<svg width="16" height="16" viewBox="0 0 16 16" fill="none" xmlns="http://www.w3.org/2000/svg">
<path d="M3 1.00049C1.892 1.00049 1 1.89249 1 3.00049V5.00049H2V3.00049C2 2.44649 2.446 2.00049 3 2.00049H5V1.00049H3ZM11 1.00049V2.00049H13C13.554 2.00049 14 2.44649 14 3.00049V5.00049H15V3.00049C15 1.89249 14.108 1.00049 13 1.00049H11ZM1 11.0005V13.0005C1 14.1085 1.892 15.0005 3 15.0005H5V14.0005H3C2.446 14.0005 2 13.5545 2 13.0005V11.0005H1ZM14 11.0005V13.0005C14 13.5545 13.554 14.0005 13 14.0005H11V15.0005H13C14.108 15.0005 15 14.1085 15 13.0005V11.0005H14Z" fill="url(#paint0_linear_9_185)"/>
<path d="M5 5.00049C3.892 5.00049 3 5.89249 3 7.00049V10.0005C3 11.1085 3.892 12.0005 5 12.0005H11C12.108 12.0005 13 11.1085 13 10.0005V7.00049C13 5.89249 12.108 5.00049 11 5.00049H5ZM5 6.00049H11C11.554 6.00049 12 6.44649 12 7.00049V10.0005C12 10.5545 11.554 11.0005 11 11.0005H5C4.446 11.0005 4 10.5545 4 10.0005V7.00049C4 6.44649 4.446 6.00049 5 6.00049Z" fill="url(#paint1_linear_9_185)"/>
<path d="M9.5 7.00049C9.10218 7.00049 8.72064 7.15852 8.43934 7.43983C8.15804 7.72113 8 8.10266 8 8.50049C8 8.89831 8.15804 9.27984 8.43934 9.56115C8.72064 9.84245 9.10218 10.0005 9.5 10.0005C9.89782 10.0005 10.2794 9.84245 10.5607 9.56115C10.842 9.27984 11 8.89831 11 8.50049C11 8.10266 10.842 7.72113 10.5607 7.43983C10.2794 7.15852 9.89782 7.00049 9.5 7.00049ZM9.48828 8.00049C9.49219 8.00044 9.49609 8.00044 9.5 8.00049C9.63261 8.00049 9.75979 8.05317 9.85355 8.14693C9.94732 8.2407 10 8.36788 10 8.50049C10 8.6331 9.94732 8.76027 9.85355 8.85404C9.75979 8.94781 9.63261 9.00049 9.5 9.00049C9.36739 9.00049 9.24021 8.94781 9.14645 8.85404C9.05268 8.76027 9 8.6331 9 8.50049C8.99996 8.36989 9.05103 8.24445 9.14228 8.15102C9.23353 8.05758 9.35771 8.00355 9.48828 8.00049Z" fill="url(#paint2_linear_9_185)"/>
<path d="M11 3.00049H9V4.00049H11V3.00049Z" fill="url(#paint3_linear_9_185)"/>
<defs>
<linearGradient id="paint0_linear_9_185" x1="1" y1="8.00049" x2="15" y2="8.00049" gradientUnits="userSpaceOnUse">
<stop stop-color="#FDFC47"/>
<stop offset="1" stop-color="#24FE41"/>
</linearGradient>
<linearGradient id="paint1_linear_9_185" x1="3" y1="8.50049" x2="13" y2="8.50049" gradientUnits="userSpaceOnUse">
<stop stop-color="#FDFC47"/>
<stop offset="1" stop-color="#24FE41"/>
</linearGradient>
<linearGradient id="paint2_linear_9_185" x1="8" y1="8.50049" x2="11" y2="8.50049" gradientUnits="userSpaceOnUse">
<stop stop-color="#FDFC47"/>
<stop offset="1" stop-color="#24FE41"/>
</linearGradient>
<linearGradient id="paint3_linear_9_185" x1="9" y1="3.50049" x2="11" y2="3.50049" gradientUnits="userSpaceOnUse">
<stop stop-color="#FDFC47"/>
<stop offset="1" stop-color="#24FE41"/>
</linearGradient>
</defs>
</svg>
