<svg width="16" height="16" viewBox="0 0 16 16" fill="none" xmlns="http://www.w3.org/2000/svg">
<path d="M4 1.00049C2.892 1.00049 2 1.89249 2 3.00049V13.0005C2 14.1085 2.892 15.0005 4 15.0005H12C13.108 15.0005 14 14.1085 14 13.0005V7.95169L13 8.95169V13.0005C13 13.5545 12.554 14.0005 12 14.0005H4C3.446 14.0005 3 13.5545 3 13.0005V3.00049C3 2.44649 3.446 2.00049 4 2.00049H10.0488L11.0488 1.00049H4Z" fill="url(#paint0_linear_9_191)"/>
<path d="M14.607 1.68685C13.8236 0.903376 12.562 0.903376 11.7786 1.68685L15.3141 5.22235C16.0976 4.43888 16.0976 3.17735 15.3141 2.39395L14.607 1.68685ZM11.0715 2.39396L4.00043 9.46506L4.00043 13.0006H7.53593L14.607 5.92946L11.0715 2.39396ZM11.0715 3.80816L13.1928 5.92946L7.53593 11.5864L5.41463 9.46506L11.0715 3.80816Z" fill="url(#paint1_linear_9_191)"/>
<defs>
<linearGradient id="paint0_linear_9_191" x1="2" y1="8.00049" x2="14" y2="8.00049" gradientUnits="userSpaceOnUse">
<stop stop-color="#FDFC47"/>
<stop offset="1" stop-color="#24FE41"/>
</linearGradient>
<linearGradient id="paint1_linear_9_191" x1="4.00043" y1="7.0499" x2="15.9017" y2="7.0499" gradientUnits="userSpaceOnUse">
<stop stop-color="#FDFC47"/>
<stop offset="1" stop-color="#24FE41"/>
</linearGradient>
</defs>
</svg>
