<svg width="16" height="16" viewBox="0 0 16 16" fill="none" xmlns="http://www.w3.org/2000/svg">
<g clip-path="url(#clip0_9_194)">
<path d="M5.994 0.000488281C4.736 0.0154883 3.815 -0.0295117 3.062 0.385488C2.67299 0.607789 2.37616 0.961712 2.225 1.38349C2.06 1.82049 2 2.34349 2 3.00049V13.0005C2 13.6585 2.06 14.1795 2.225 14.6175C2.389 15.0565 2.686 15.4065 3.062 15.6135C3.815 16.0285 4.736 15.9855 5.994 16.0005H11.006C12.264 15.9855 13.185 16.0305 13.938 15.6155C14.327 15.3932 14.6238 15.0393 14.775 14.6175C14.94 14.1795 15 13.6575 15 13.0005V3.00049C15 2.34249 14.94 1.82149 14.775 1.38349C14.6236 0.962072 14.3263 0.608768 13.937 0.387488C13.185 -0.0275117 12.264 0.0154883 11.006 0.000488281H5.998H5.994ZM6 1.00049H11C12.259 1.01549 13.09 1.06049 13.455 1.26249C13.639 1.36249 13.742 1.47549 13.84 1.73449C13.937 1.99449 14 2.40849 14 3.00049V13.0005C14 13.5925 13.937 14.0065 13.84 14.2665C13.742 14.5265 13.638 14.6375 13.455 14.7385C13.089 14.9405 12.258 14.9855 11 15.0005H6C4.741 14.9855 3.91 14.9405 3.545 14.7385C3.361 14.6385 3.258 14.5255 3.16 14.2665C3.063 14.0065 3 13.5925 3 13.0005V3.00049C3 2.40849 3.063 1.99449 3.16 1.73449C3.258 1.47449 3.363 1.36349 3.547 1.26249C3.913 1.06049 4.74 1.01549 6 1.00049Z" fill="url(#paint0_linear_9_194)"/>
<path d="M8 4.00052C7.717 4.00052 7.449 4.05552 7.201 4.16652C6.95495 4.27136 6.73455 4.4283 6.555 4.62652V4.62952L6.553 4.63152C6.37156 4.84256 6.23267 5.08671 6.144 5.35052C6.04502 5.64011 5.99632 5.94451 6 6.25052C6 6.57752 6.047 6.88252 6.145 7.15852C6.241 7.42952 6.376 7.66852 6.553 7.86952L6.555 7.87152C6.735 8.07152 6.953 8.22952 7.197 8.34052L7.199 8.34252H7.201C7.448 8.44852 7.718 8.50052 8.001 8.50052C8.282 8.50052 8.55 8.44852 8.797 8.34252V8.34052C9.042 8.23052 9.255 8.07252 9.432 7.87152C9.613 7.67052 9.753 7.43152 9.85 7.15852C9.94956 6.86631 9.99826 6.5592 9.994 6.25052H10C10 5.92852 9.953 5.62752 9.856 5.35252C9.76643 5.08599 9.62429 4.84014 9.438 4.62952C9.26235 4.4293 9.04397 4.27107 8.799 4.16652C8.54736 4.05546 8.27506 3.99888 8 4.00052ZM8 5.00052C8.552 5.00052 9 5.56052 9 6.25052C9 6.94052 8.552 7.50052 8 7.50052C7.448 7.50052 7 6.94052 7 6.25052C7 5.56052 7.448 5.00052 8 5.00052ZM8 9.00052V9.00252C5.002 9.01052 5 11.0005 5 11.0005V11.9985L8 12.0005C9.25 12.0005 10.5 11.9975 11 11.9965V10.9985C11 10.9985 10.998 9.00852 8 9.00052ZM8 10.0025C9.997 10.0065 9.893 10.9925 9.893 10.9925C9.893 10.9945 9.893 10.9985 9.895 11.0005H6.105L6.107 10.9945C6.107 10.9945 6.003 10.0085 8 10.0045V10.0025Z" fill="url(#paint1_linear_9_194)"/>
<path d="M12 1.00049H13V15.0005H12V1.00049Z" fill="url(#paint2_linear_9_194)"/>
</g>
<defs>
<linearGradient id="paint0_linear_9_194" x1="2" y1="8.00049" x2="15" y2="8.00049" gradientUnits="userSpaceOnUse">
<stop stop-color="#FDFC47"/>
<stop offset="1" stop-color="#24FE41"/>
</linearGradient>
<linearGradient id="paint1_linear_9_194" x1="5" y1="8.00051" x2="11" y2="8.00051" gradientUnits="userSpaceOnUse">
<stop stop-color="#FDFC47"/>
<stop offset="1" stop-color="#24FE41"/>
</linearGradient>
<linearGradient id="paint2_linear_9_194" x1="12" y1="8.00049" x2="13" y2="8.00049" gradientUnits="userSpaceOnUse">
<stop stop-color="#FDFC47"/>
<stop offset="1" stop-color="#24FE41"/>
</linearGradient>
<clipPath id="clip0_9_194">
<rect width="16" height="16" fill="white" transform="translate(0 0.000488281)"/>
</clipPath>
</defs>
</svg>
