<svg width="17" height="16" viewBox="0 0 17 16" fill="none" xmlns="http://www.w3.org/2000/svg">
<g clip-path="url(#clip0_9_208)">
<path d="M5.25596 0.000488281C3.99796 0.0154883 3.07696 -0.0295117 2.32496 0.385488C1.93558 0.607606 1.63838 0.961551 1.48696 1.38349C1.32196 1.82249 1.26196 2.34349 1.26196 3.00049V13.0005C1.26196 13.6585 1.32196 14.1795 1.48696 14.6175C1.65096 15.0565 1.94796 15.4065 2.32496 15.6135C3.07696 16.0285 3.99796 15.9855 5.25596 16.0005H10.268C11.526 15.9865 12.447 16.0305 13.2 15.6155C13.5893 15.3934 13.8865 15.0394 14.038 14.6175C14.202 14.1795 14.262 13.6575 14.262 13.0005V3.00049C14.262 2.34249 14.202 1.82149 14.037 1.38349C13.8858 0.962233 13.5889 0.608951 13.2 0.387488C12.447 -0.0275117 11.526 0.0154883 10.268 0.000488281H5.25996H5.25596ZM5.26196 1.00049H10.262C11.521 1.01549 12.352 1.06049 12.717 1.26249C12.901 1.36249 13.004 1.47549 13.102 1.73449C13.199 1.99449 13.262 2.40849 13.262 3.00049V13.0005C13.262 13.5925 13.199 14.0065 13.102 14.2665C13.004 14.5265 12.9 14.6375 12.717 14.7385C12.351 14.9405 11.521 14.9855 10.262 15.0005H5.26196C4.00296 14.9855 3.17196 14.9405 2.80696 14.7385C2.62296 14.6385 2.51996 14.5255 2.42196 14.2665C2.32396 14.0065 2.26196 13.5925 2.26196 13.0005V3.00049C2.26196 2.40849 2.32396 1.99449 2.42196 1.73449C2.51996 1.47449 2.62296 1.36349 2.80696 1.26249C3.17196 1.06049 4.00196 1.01549 5.26196 1.00049ZM7.76196 3.00049C7.09892 3.00049 6.46304 3.26388 5.9942 3.73272C5.52535 4.20156 5.26196 4.83745 5.26196 5.50049C5.26196 6.16353 5.52535 6.79941 5.9942 7.26826C6.46304 7.7371 7.09892 8.00049 7.76196 8.00049C8.425 8.00049 9.06089 7.7371 9.52973 7.26826C9.99857 6.79941 10.262 6.16353 10.262 5.50049C10.262 4.83745 9.99857 4.20156 9.52973 3.73272C9.06089 3.26388 8.425 3.00049 7.76196 3.00049ZM7.76196 4.00049C7.95895 4.00049 8.154 4.03929 8.33599 4.11467C8.51798 4.19005 8.68334 4.30054 8.82262 4.43983C8.96191 4.57912 9.0724 4.74447 9.14778 4.92646C9.22316 5.10845 9.26196 5.30351 9.26196 5.50049C9.26196 5.69747 9.22316 5.89253 9.14778 6.07451C9.0724 6.2565 8.96191 6.42186 8.82262 6.56115C8.68334 6.70044 8.51798 6.81093 8.33599 6.88631C8.154 6.96169 7.95895 7.00049 7.76196 7.00049C7.36414 7.00049 6.98261 6.84245 6.7013 6.56115C6.42 6.27984 6.26196 5.89831 6.26196 5.50049C6.26196 5.10266 6.42 4.72113 6.7013 4.43983C6.98261 4.15852 7.36414 4.00049 7.76196 4.00049ZM9.83996 8.98849C9.72175 8.97369 9.60233 9.00444 9.50596 9.07449L8.14596 10.0765C8.02172 10.0254 7.88848 9.99976 7.75415 10.0011C7.61982 10.0025 7.48713 10.0309 7.36396 10.0845L6.01796 9.09249C5.81196 8.94049 5.53096 8.99849 5.42596 9.13949L5.33996 9.25249C5.21396 9.42249 5.23396 9.74849 5.43996 9.90149L6.76996 10.8835C6.7476 11.077 6.78225 11.2728 6.86966 11.4469C6.95706 11.621 7.09341 11.7658 7.26196 11.8635V13.5005C7.26196 13.7775 7.47096 14.0005 7.73096 14.0005H7.79296C8.05296 14.0005 8.26196 13.7775 8.26196 13.5005V11.8655C8.43358 11.7662 8.57179 11.6181 8.65904 11.44C8.74629 11.2619 8.77863 11.062 8.75196 10.8655L10.084 9.88349C10.29 9.73149 10.31 9.40449 10.184 9.23449L10.098 9.12149C10.0659 9.08337 10.0266 9.05199 9.98228 9.02916C9.93799 9.00633 9.88962 8.99251 9.83996 8.98849Z" fill="url(#paint0_linear_9_208)"/>
</g>
<defs>
<linearGradient id="paint0_linear_9_208" x1="1.26196" y1="8.00049" x2="14.262" y2="8.00049" gradientUnits="userSpaceOnUse">
<stop stop-color="#FDFC47"/>
<stop offset="1" stop-color="#24FE41"/>
</linearGradient>
<clipPath id="clip0_9_208">
<rect width="16" height="16" fill="white" transform="translate(0.261963 0.000488281)"/>
</clipPath>
</defs>
</svg>
