<svg width="17" height="16" viewBox="0 0 17 16" fill="none" xmlns="http://www.w3.org/2000/svg">
<g clip-path="url(#clip0_9_212)">
<path d="M4.25596 0.000488281C2.99796 0.0154883 2.07696 -0.0295117 1.32496 0.385488C0.935578 0.607606 0.638377 0.961551 0.486963 1.38349C0.321963 1.82249 0.261963 2.34349 0.261963 3.00049V13.0005C0.261963 13.6585 0.321963 14.1795 0.486963 14.6175C0.650963 15.0565 0.947963 15.4075 1.32496 15.6155C2.07696 16.0315 2.99796 15.9855 4.25596 16.0005H12.268C13.526 15.9865 14.447 16.0305 15.2 15.6155C15.5893 15.3934 15.8865 15.0394 16.038 14.6175C16.202 14.1795 16.262 13.6575 16.262 13.0005V3.00049C16.262 2.34249 16.202 1.82249 16.037 1.38349C15.8858 0.961712 15.589 0.607789 15.2 0.385488C14.447 -0.0305117 13.526 0.0154883 12.268 0.000488281H4.25996H4.25596ZM4.26196 1.00049H8.26196V15.0005H4.26196C3.00296 14.9855 2.17196 14.9405 1.80696 14.7385C1.62296 14.6385 1.51996 14.5265 1.42196 14.2665C1.32396 14.0065 1.26196 13.5925 1.26196 13.0005V3.00049C1.26196 2.40849 1.32396 1.99449 1.42196 1.73449C1.51996 1.47449 1.62296 1.36349 1.80696 1.26249C2.17196 1.06049 3.00196 1.01549 4.26196 1.00049ZM10.262 6.00049H14.262V7.00049H10.262V6.00049ZM10.262 8.00049H14.262V9.00049H10.262V8.00049Z" fill="url(#paint0_linear_9_212)"/>
<path d="M3.26196 5.00049H6.26196V6.00049H3.26196V5.00049Z" fill="url(#paint1_linear_9_212)"/>
<path d="M5.26196 4.00049V7.00049H4.26196V4.00049H5.26196ZM3.26196 10.0005H6.26196V11.0005H3.26196V10.0005Z" fill="url(#paint2_linear_9_212)"/>
</g>
<defs>
<linearGradient id="paint0_linear_9_212" x1="0.261963" y1="8.00049" x2="16.262" y2="8.00049" gradientUnits="userSpaceOnUse">
<stop stop-color="#FDFC47"/>
<stop offset="1" stop-color="#24FE41"/>
</linearGradient>
<linearGradient id="paint1_linear_9_212" x1="3.26196" y1="5.50049" x2="6.26196" y2="5.50049" gradientUnits="userSpaceOnUse">
<stop stop-color="#FDFC47"/>
<stop offset="1" stop-color="#24FE41"/>
</linearGradient>
<linearGradient id="paint2_linear_9_212" x1="3.26196" y1="7.50049" x2="6.26196" y2="7.50049" gradientUnits="userSpaceOnUse">
<stop stop-color="#FDFC47"/>
<stop offset="1" stop-color="#24FE41"/>
</linearGradient>
<clipPath id="clip0_9_212">
<rect width="16" height="16" fill="white" transform="translate(0.261963 0.000488281)"/>
</clipPath>
</defs>
</svg>
