<svg width="17" height="16" viewBox="0 0 17 16" fill="none" xmlns="http://www.w3.org/2000/svg">
<g clip-path="url(#clip0_9_229)">
<path d="M8.26196 0.000488281C8.02824 0.00212673 7.79469 0.0138042 7.56196 0.0354883C7.44196 0.0484883 7.32196 0.0624883 7.20296 0.0804883C7.06396 0.0974883 6.92496 0.118488 6.78696 0.143488C6.663 0.167885 6.53963 0.195226 6.41696 0.225488C6.27496 0.257488 6.13496 0.292488 5.99696 0.332488C5.88696 0.366488 5.77896 0.402488 5.67196 0.439488C5.52612 0.488645 5.38173 0.542001 5.23896 0.599488C5.13159 0.644804 5.02523 0.692482 4.91996 0.742488C4.78796 0.802488 4.65696 0.865488 4.52796 0.932488C3.24149 1.61144 2.16448 2.62831 1.41281 3.8737C0.661142 5.11908 0.263257 6.54584 0.261963 8.00049C0.262159 9.42973 0.645243 10.8328 1.37138 12.0639C2.09751 13.2949 3.14018 14.3089 4.39096 15.0005H4.40896C5.53571 15.6217 6.79567 15.962 8.08196 15.9925L8.26196 16.0005C8.49596 15.9985 8.72896 15.9875 8.96196 15.9655C9.08196 15.9535 9.20196 15.9385 9.32096 15.9205C9.45996 15.9035 9.59896 15.8825 9.73696 15.8585C9.85396 15.8345 9.97196 15.8085 10.088 15.7805C10.243 15.7445 10.397 15.7055 10.549 15.6605C10.636 15.6335 10.722 15.6055 10.807 15.5745C10.97 15.5215 11.13 15.4625 11.289 15.3995C11.387 15.3585 11.484 15.3155 11.58 15.2695C13.1393 14.5605 14.43 13.3698 15.262 11.8725V11.8555C15.8833 10.7284 16.2236 9.46812 16.254 8.18149L16.262 8.00049C16.2603 7.7671 16.2486 7.53388 16.227 7.30149C16.2147 7.18117 16.1997 7.06113 16.182 6.94149C16.1649 6.80264 16.1443 6.66426 16.12 6.52649C16.0955 6.4022 16.0682 6.2785 16.038 6.15549C16.0058 6.01453 15.9698 5.87448 15.93 5.73549C15.8966 5.6264 15.8609 5.51804 15.823 5.41049C15.7738 5.26465 15.7205 5.12025 15.663 4.97749C15.6176 4.87014 15.5699 4.76378 15.52 4.65849C15.4602 4.52613 15.3968 4.39541 15.33 4.26649C14.611 2.90512 13.5145 1.78012 12.172 1.02649L12.157 1.02449C11.4579 0.631992 10.7038 0.346806 9.91996 0.178488C9.69171 0.130819 9.4615 0.0931165 9.22996 0.0654883L9.12996 0.0494883H9.11896C8.95068 0.0336554 8.78192 0.0233165 8.61296 0.0184883C8.49612 0.00967069 8.37909 0.00366895 8.26196 0.000488281ZM8.26196 1.00049C10.1185 1.00049 11.899 1.73799 13.2117 3.05074C14.5245 4.3635 15.262 6.14397 15.262 8.00049C15.262 9.857 14.5245 11.6375 13.2117 12.9502C11.899 14.263 10.1185 15.0005 8.26196 15.0005C6.40545 15.0005 4.62497 14.263 3.31222 12.9502C1.99946 11.6375 1.26196 9.857 1.26196 8.00049C1.26196 6.14397 1.99946 4.3635 3.31222 3.05074C4.62497 1.73799 6.40545 1.00049 8.26196 1.00049ZM11.84 4.98849C11.7217 4.97369 11.6023 5.00444 11.506 5.07449L8.14596 7.07649C8.02174 7.02533 7.88849 6.99967 7.75415 7.00105C7.61981 7.00242 7.48712 7.0308 7.36396 7.08449L5.01796 6.09249C4.81196 5.94049 4.53096 5.99849 4.42596 6.13949L4.33996 6.25249C4.21396 6.42249 4.23396 6.74849 4.43996 6.90149L6.76996 7.88349C6.7476 8.07701 6.78225 8.27284 6.86966 8.44694C6.95706 8.62104 7.09341 8.76581 7.26196 8.86349V11.5005C7.26196 11.7775 7.46996 12.0005 7.73096 12.0005H7.79296C8.05296 12.0005 8.26196 11.7775 8.26196 11.5005V8.86549C8.43358 8.76616 8.57179 8.61806 8.65904 8.44001C8.74629 8.26195 8.77863 8.06197 8.75196 7.86549L12.084 5.88349C12.29 5.73149 12.31 5.40449 12.184 5.23449L12.098 5.12149C12.0659 5.08337 12.0266 5.05199 11.9823 5.02916C11.938 5.00633 11.8896 4.99251 11.84 4.98849Z" fill="url(#paint0_linear_9_229)"/>
</g>
<defs>
<linearGradient id="paint0_linear_9_229" x1="0.261963" y1="8.00049" x2="16.262" y2="8.00049" gradientUnits="userSpaceOnUse">
<stop stop-color="#FDFC47"/>
<stop offset="1" stop-color="#24FE41"/>
</linearGradient>
<clipPath id="clip0_9_229">
<rect width="16" height="16" fill="white" transform="translate(0.261963 0.000488281)"/>
</clipPath>
</defs>
</svg>
