<svg width="17" height="16" viewBox="0 0 17 16" fill="none" xmlns="http://www.w3.org/2000/svg">
<path d="M14.2155 1.05847L12.6395 2.63547C12.9645 3.02847 13.2425 3.46247 13.4765 3.92047L15.2775 2.12047L14.2155 1.05847ZM10.5045 4.77047L6.74646 8.52847L3.62346 5.40447C3.37667 5.93166 3.24801 6.50638 3.24646 7.08847C3.24646 7.11147 3.25146 7.13347 3.25246 7.15647L6.74646 10.6495L11.1545 6.24247C11.0405 5.71258 10.8193 5.21162 10.5045 4.77047Z" fill="url(#paint0_linear_9_234)"/>
<path d="M7.24646 1.0885C3.93646 1.0885 1.24646 3.7785 1.24646 7.0885C1.24646 10.3985 3.93646 13.0885 7.24646 13.0885C8.66474 13.0894 10.037 12.5853 11.1175 11.6665L14.3925 14.9425L15.1005 14.2355L11.8245 10.9595C12.743 9.8793 13.2471 8.50744 13.2465 7.0895C13.2465 3.7795 10.5565 1.0895 7.24646 1.0895V1.0885ZM7.24646 2.0885C7.90307 2.0885 8.55325 2.21783 9.15988 2.4691C9.7665 2.72038 10.3177 3.08867 10.782 3.55297C11.2463 4.01726 11.6146 4.56846 11.8659 5.17508C12.1171 5.78171 12.2465 6.43189 12.2465 7.0885C12.2465 7.74511 12.1171 8.39529 11.8659 9.00192C11.6146 9.60855 11.2463 10.1597 10.782 10.624C10.3177 11.0883 9.7665 11.4566 9.15988 11.7079C8.55325 11.9592 7.90307 12.0885 7.24646 12.0885C5.92038 12.0885 4.64861 11.5617 3.71093 10.624C2.77324 9.68635 2.24646 8.41458 2.24646 7.0885C2.24646 5.76242 2.77324 4.49065 3.71093 3.55297C4.64861 2.61529 5.92038 2.0885 7.24646 2.0885Z" fill="url(#paint1_linear_9_234)"/>
<defs>
<linearGradient id="paint0_linear_9_234" x1="3.24646" y1="5.85397" x2="15.2775" y2="5.85397" gradientUnits="userSpaceOnUse">
<stop stop-color="#FDFC47"/>
<stop offset="1" stop-color="#24FE41"/>
</linearGradient>
<linearGradient id="paint1_linear_9_234" x1="1.24646" y1="8.0155" x2="15.1005" y2="8.0155" gradientUnits="userSpaceOnUse">
<stop stop-color="#FDFC47"/>
<stop offset="1" stop-color="#24FE41"/>
</linearGradient>
</defs>
</svg>
