<svg width="17" height="16" viewBox="0 0 17 16" fill="none" xmlns="http://www.w3.org/2000/svg">
<path d="M8.26196 4.00049C10.4711 4.00049 12.262 5.79139 12.262 8.00049C12.2615 9.51469 11.4061 10.8989 10.052 11.5765L9.15696 9.78949C9.83435 9.45052 10.2622 8.75799 10.262 8.00049C10.262 6.89589 9.36653 6.00049 8.26196 6.00049C7.15739 6.00049 6.26196 6.89592 6.26196 8.00049C6.26275 8.75746 6.69082 9.44909 7.36796 9.78749L6.47496 11.5725C5.12096 10.8964 4.26446 9.51389 4.26196 8.00049C4.26196 5.79139 6.05286 4.00049 8.26196 4.00049Z" fill="url(#paint0_linear_9_238)"/>
<path d="M3.26196 1.00049C2.15396 1.00049 1.26196 1.89249 1.26196 3.00049V13.0005C1.26196 14.1085 2.15396 15.0005 3.26196 15.0005H13.262C14.37 15.0005 15.262 14.1085 15.262 13.0005V3.00049C15.262 1.89249 14.37 1.00049 13.262 1.00049H3.26196ZM3.26196 2.00049H13.262C13.816 2.00049 14.262 2.44649 14.262 3.00049V13.0005C14.262 13.5545 13.816 14.0005 13.262 14.0005H3.26196C2.70796 14.0005 2.26196 13.5545 2.26196 13.0005V3.00049C2.26196 2.44649 2.70796 2.00049 3.26196 2.00049Z" fill="url(#paint1_linear_9_238)"/>
<defs>
<linearGradient id="paint0_linear_9_238" x1="4.26196" y1="7.78849" x2="12.262" y2="7.78849" gradientUnits="userSpaceOnUse">
<stop stop-color="#FDFC47"/>
<stop offset="1" stop-color="#24FE41"/>
</linearGradient>
<linearGradient id="paint1_linear_9_238" x1="1.26196" y1="8.00049" x2="15.262" y2="8.00049" gradientUnits="userSpaceOnUse">
<stop stop-color="#FDFC47"/>
<stop offset="1" stop-color="#24FE41"/>
</linearGradient>
</defs>
</svg>
