<svg width="17" height="16" viewBox="0 0 17 16" fill="none" xmlns="http://www.w3.org/2000/svg">
<g clip-path="url(#clip0_9_241)">
<path d="M8.26196 0.000488281C6.14023 0.000488281 4.1054 0.843343 2.60511 2.34363C1.10482 3.84393 0.261963 5.87876 0.261963 8.00049C0.261963 10.1222 1.10482 12.1571 2.60511 13.6573C4.1054 15.1576 6.14023 16.0005 8.26196 16.0005C10.3837 16.0005 12.4185 15.1576 13.9188 13.6573C15.4191 12.1571 16.262 10.1222 16.262 8.00049C16.262 5.87876 15.4191 3.84393 13.9188 2.34363C12.4185 0.843343 10.3837 0.000488281 8.26196 0.000488281ZM8.26196 1.00049C10.1185 1.00049 11.899 1.73799 13.2117 3.05074C14.5245 4.3635 15.262 6.14397 15.262 8.00049C15.262 9.857 14.5245 11.6375 13.2117 12.9502C11.899 14.263 10.1185 15.0005 8.26196 15.0005C6.40545 15.0005 4.62497 14.263 3.31222 12.9502C1.99946 11.6375 1.26196 9.857 1.26196 8.00049C1.26196 6.14397 1.99946 4.3635 3.31222 3.05074C4.62497 1.73799 6.40545 1.00049 8.26196 1.00049Z" fill="url(#paint0_linear_9_241)"/>
<path opacity="0.5" d="M8.26196 8.00049V16.0005L13.762 13.5005L8.26196 8.00049Z" fill="url(#paint1_linear_9_241)"/>
<path d="M8.26196 8.00049L13.762 13.5005L15.762 8.00049H8.26196Z" fill="url(#paint2_linear_9_241)"/>
</g>
<defs>
<linearGradient id="paint0_linear_9_241" x1="0.261963" y1="8.00049" x2="16.262" y2="8.00049" gradientUnits="userSpaceOnUse">
<stop stop-color="#FDFC47"/>
<stop offset="1" stop-color="#24FE41"/>
</linearGradient>
<linearGradient id="paint1_linear_9_241" x1="8.26196" y1="12.0005" x2="13.762" y2="12.0005" gradientUnits="userSpaceOnUse">
<stop stop-color="#FDFC47"/>
<stop offset="1" stop-color="#24FE41"/>
</linearGradient>
<linearGradient id="paint2_linear_9_241" x1="8.26196" y1="10.7505" x2="15.762" y2="10.7505" gradientUnits="userSpaceOnUse">
<stop stop-color="#FDFC47"/>
<stop offset="1" stop-color="#24FE41"/>
</linearGradient>
<clipPath id="clip0_9_241">
<rect width="16" height="16" fill="white" transform="translate(0.261963 0.000488281)"/>
</clipPath>
</defs>
</svg>
