<svg width="17" height="16" viewBox="0 0 17 16" fill="none" xmlns="http://www.w3.org/2000/svg">
<g clip-path="url(#clip0_9_251)">
<path d="M5.25596 0.000488281C3.99796 0.0154883 3.07696 -0.0295117 2.32396 0.385488C1.93495 0.607789 1.63813 0.961712 1.48696 1.38349C1.32196 1.82049 1.26196 2.34349 1.26196 3.00049V13.0005C1.26196 13.6585 1.32196 14.1795 1.48696 14.6175C1.65096 15.0565 1.94796 15.4065 2.32396 15.6135C3.07696 16.0285 3.99796 15.9855 5.25596 16.0005H10.268C11.526 15.9855 12.447 16.0305 13.2 15.6155C13.589 15.3932 13.8858 15.0393 14.037 14.6175C14.202 14.1795 14.262 13.6575 14.262 13.0005V3.00049C14.262 2.34249 14.202 1.82149 14.037 1.38349C13.8855 0.962072 13.5883 0.608768 13.199 0.387488C12.447 -0.0275117 11.526 0.0154883 10.268 0.000488281H5.25996H5.25596ZM5.26196 1.00049H10.262C11.521 1.01549 12.352 1.06049 12.717 1.26249C12.901 1.36249 13.004 1.47549 13.102 1.73449C13.199 1.99449 13.262 2.40849 13.262 3.00049V13.0005C13.262 13.5925 13.199 14.0065 13.102 14.2665C13.004 14.5265 12.9 14.6375 12.717 14.7385C12.351 14.9405 11.52 14.9855 10.262 15.0005H5.26196C4.00296 14.9855 3.17196 14.9405 2.80696 14.7385C2.62296 14.6385 2.51996 14.5255 2.42196 14.2665C2.32496 14.0065 2.26196 13.5925 2.26196 13.0005V3.00049C2.26196 2.40849 2.32496 1.99449 2.42196 1.73449C2.51996 1.47449 2.62496 1.36349 2.80896 1.26249C3.17496 1.06049 4.00196 1.01549 5.26196 1.00049Z" fill="url(#paint0_linear_9_251)"/>
<path d="M11.262 4.00049L3.26196 12.0005C3.26196 12.0005 4.26196 13.5005 5.26196 14.0005C6.20496 14.4715 7.46596 13.6905 8.26196 13.0005C8.82496 12.5125 9.26196 11.7455 9.26196 11.0005C9.26196 10.2555 8.01896 9.23249 8.26196 9.00049C8.48896 8.78349 9.51696 10.0005 10.262 10.0005C11.007 10.0005 11.774 9.56349 12.262 9.00049C12.952 8.20449 13.733 6.94349 13.262 6.00049C12.762 5.00049 11.262 4.00049 11.262 4.00049ZM11.262 6.00049C11.733 6.00049 12.262 6.52949 12.262 7.00049C12.262 7.50049 10.862 8.90049 10.362 8.90049C9.86196 8.90049 9.36196 8.37149 9.36196 7.90049C9.36196 7.40049 10.762 6.00049 11.262 6.00049ZM7.16196 10.1005C7.63296 10.1005 8.16196 10.6295 8.16196 11.1005C8.16196 11.6005 6.76196 13.0005 6.26196 13.0005C5.79096 13.0005 5.26196 12.4715 5.26196 12.0005C5.26196 11.5005 6.66196 10.1005 7.16196 10.1005Z" fill="url(#paint1_linear_9_251)"/>
</g>
<defs>
<linearGradient id="paint0_linear_9_251" x1="1.26196" y1="8.00049" x2="14.262" y2="8.00049" gradientUnits="userSpaceOnUse">
<stop stop-color="#FDFC47"/>
<stop offset="1" stop-color="#24FE41"/>
</linearGradient>
<linearGradient id="paint1_linear_9_251" x1="3.26196" y1="9.07226" x2="13.4055" y2="9.07226" gradientUnits="userSpaceOnUse">
<stop stop-color="#FDFC47"/>
<stop offset="1" stop-color="#24FE41"/>
</linearGradient>
<clipPath id="clip0_9_251">
<rect width="16" height="16" fill="white" transform="translate(0.261963 0.000488281)"/>
</clipPath>
</defs>
</svg>
