<svg width="17" height="16" viewBox="0 0 17 16" fill="none" xmlns="http://www.w3.org/2000/svg">
<path d="M5.26196 1.00049L1.26196 3.50049L4.26196 5.50049L8.26196 3.00049L5.26196 1.00049ZM8.26196 3.00049L12.262 5.50049L15.262 3.50049L11.262 1.00049L8.26196 3.00049ZM12.262 5.50049L8.26196 8.00049L11.262 10.0005L15.262 7.50049L12.262 5.50049ZM8.26196 8.00049L4.26196 5.50049L1.26196 7.50049L5.26196 10.0005L8.26196 8.00049ZM8.26196 9.20049L5.26196 11.1905L4.26196 10.5505V11.6005L8.26196 14.0005L12.262 11.6005V10.5505L11.262 11.1905L8.26196 9.20049Z" fill="url(#paint0_linear_9_261)"/>
<defs>
<linearGradient id="paint0_linear_9_261" x1="1.26196" y1="7.50049" x2="15.262" y2="7.50049" gradientUnits="userSpaceOnUse">
<stop stop-color="#FDFC47"/>
<stop offset="1" stop-color="#24FE41"/>
</linearGradient>
</defs>
</svg>
