<svg width="17" height="16" viewBox="0 0 17 16" fill="none" xmlns="http://www.w3.org/2000/svg">
<g clip-path="url(#clip0_9_273)">
<path d="M4.26196 1.00049C3.15396 1.00049 2.26196 1.89249 2.26196 3.00049V14.1025C2.26196 15.2105 3.15396 16.1025 4.26196 16.1025H5.86156C5.28581 15.8121 4.76366 15.4781 4.31666 15.1025H4.26197C3.70797 15.1025 3.26197 14.6565 3.26197 14.1025V14.0185C2.99258 13.6908 2.74721 13.3603 2.55103 13.0361C2.16713 12.4013 2.16713 11.6005 2.55103 10.9658C2.74721 10.6415 2.99258 10.3111 3.26197 9.98336V3.00096C3.26197 2.44696 3.70797 2.00096 4.26197 2.00096H12.262C12.816 2.00096 13.262 2.44696 13.262 3.00096V7.70796C13.6178 7.86291 13.9517 8.0357 14.262 8.22749V3.00089C14.262 1.89289 13.37 1.00089 12.262 1.00089L4.26196 1.00049Z" fill="url(#paint0_linear_9_273)"/>
<path d="M9.76195 8.00049C6.30095 8.00049 4.40525 9.83199 3.40645 11.4829C3.31201 11.639 3.26208 11.818 3.26208 12.0005C3.26208 12.183 3.31201 12.362 3.40645 12.5181C4.40526 14.169 6.30085 16.0005 9.76195 16.0005C13.2229 16.0005 15.1186 14.169 16.1174 12.5181C16.2119 12.362 16.2618 12.183 16.2618 12.0005C16.2618 11.818 16.2119 11.639 16.1174 11.4829C15.1186 9.83199 13.223 8.00049 9.76195 8.00049ZM9.76195 9.00049C12.9048 9.00049 14.3544 10.5005 15.2619 12.0005C14.3544 13.5005 12.9048 15.0005 9.76195 15.0005C6.61905 15.0005 5.16945 13.5005 4.26195 12.0005C5.16945 10.5005 6.61905 9.00049 9.76195 9.00049Z" fill="url(#paint1_linear_9_273)"/>
<path d="M9.71316 10.0005C9.19123 10.0133 8.69497 10.2296 8.33039 10.6033C7.96581 10.977 7.76181 11.4784 7.76196 12.0005C7.76196 12.5309 7.97268 13.0397 8.34775 13.4147C8.72282 13.7898 9.23153 14.0005 9.76196 14.0005C10.2924 14.0005 10.8011 13.7898 11.1762 13.4147C11.5512 13.0397 11.762 12.5309 11.762 12.0005C11.762 11.4701 11.5512 10.9614 11.1762 10.5863C10.8011 10.2112 10.2924 10.0005 9.76196 10.0005C9.74569 10.0003 9.72944 10.0003 9.71316 10.0005ZM9.76199 11.0005C10.0272 11.0005 10.2816 11.1059 10.4691 11.2934C10.6566 11.4809 10.762 11.7353 10.762 12.0005C10.762 12.2657 10.6566 12.5201 10.4691 12.7076C10.2816 12.8952 10.0272 13.0005 9.76199 13.0005C9.49677 13.0005 9.24242 12.8952 9.05488 12.7076C8.86735 12.5201 8.76199 12.2657 8.76199 12.0005C8.76199 11.7353 8.86735 11.4809 9.05488 11.2934C9.24242 11.1059 9.49677 11.0005 9.76199 11.0005Z" fill="url(#paint2_linear_9_273)"/>
</g>
<defs>
<linearGradient id="paint0_linear_9_273" x1="2.26196" y1="8.55149" x2="14.262" y2="8.55149" gradientUnits="userSpaceOnUse">
<stop stop-color="#FDFC47"/>
<stop offset="1" stop-color="#24FE41"/>
</linearGradient>
<linearGradient id="paint1_linear_9_273" x1="3.26208" y1="12.0005" x2="16.2618" y2="12.0005" gradientUnits="userSpaceOnUse">
<stop stop-color="#FDFC47"/>
<stop offset="1" stop-color="#24FE41"/>
</linearGradient>
<linearGradient id="paint2_linear_9_273" x1="7.76196" y1="12.0004" x2="11.762" y2="12.0004" gradientUnits="userSpaceOnUse">
<stop stop-color="#FDFC47"/>
<stop offset="1" stop-color="#24FE41"/>
</linearGradient>
<clipPath id="clip0_9_273">
<rect width="16" height="16" fill="white" transform="translate(0.261963 0.000488281)"/>
</clipPath>
</defs>
</svg>
