<svg width="17" height="16" viewBox="0 0 17 16" fill="none" xmlns="http://www.w3.org/2000/svg">
<g clip-path="url(#clip0_9_278)">
<path d="M7.26196 0.000488281C5.49896 0.000488281 5.26196 1.00049 5.26196 1.50049C5.26196 2.00049 5.26196 2.50049 5.51196 3.00049H1.26196V8.50049C1.26196 8.50049 2.26196 8.00049 3.26196 8.00049C3.76196 8.00049 4.26196 8.50049 4.26196 9.00049C4.26196 9.50049 3.76196 10.0005 3.26196 10.0005C2.26196 10.0005 1.26196 9.50049 1.26196 9.50049V15.0005H6.76196C6.76196 15.0005 6.26196 14.0005 6.26196 13.0005C6.26196 12.5005 6.76196 12.0005 7.26196 12.0005C7.76196 12.0005 8.26196 12.5005 8.26196 13.0005C8.26196 14.0005 7.76196 15.0005 7.76196 15.0005H13.262V10.7505C13.762 11.0005 14.262 11.0005 14.762 11.0005C15.308 11.0005 16.262 10.7675 16.262 9.00049C16.262 7.23749 15.262 7.00049 14.762 7.00049C14.262 7.00049 13.762 7.00049 13.262 7.25049V3.00049H9.01196C9.26196 2.50049 9.26196 2.00049 9.26196 1.50049C9.26196 0.954488 9.02896 0.000488281 7.26196 0.000488281ZM7.26196 1.00049C7.76196 1.00049 8.26196 1.50049 8.26196 2.00049C8.26196 3.00049 7.76196 4.00049 7.76196 4.00049H8.26196V4.03149L12.262 4.02949V8.50049C12.262 8.50049 13.262 8.00049 14.262 8.00049C14.762 8.00049 15.262 8.50049 15.262 9.00049C15.262 9.50049 14.762 10.0005 14.262 10.0005C13.262 10.0005 12.262 9.50049 12.262 9.50049V13.9655H9.02596C9.25796 13.4775 9.26196 12.9885 9.26196 12.5005C9.26196 11.9545 9.02896 11.0005 7.26196 11.0005C5.49896 11.0005 5.26196 12.0005 5.26196 12.5005C5.26196 12.9885 5.26596 13.4775 5.49796 13.9655H2.28496V10.7605C2.77796 10.9985 3.26996 11.0005 3.76196 11.0005C4.30796 11.0005 5.26196 10.7675 5.26196 9.00049C5.26196 7.23749 4.26196 7.00049 3.76196 7.00049C3.26996 7.00049 2.77796 7.00249 2.28496 7.24049V4.03349L6.26196 4.03149V4.00049H6.76196C6.76196 4.00049 6.26196 3.00049 6.26196 2.00049C6.26196 1.50049 6.76196 1.00049 7.26196 1.00049Z" fill="url(#paint0_linear_9_278)"/>
</g>
<defs>
<linearGradient id="paint0_linear_9_278" x1="1.26196" y1="7.50049" x2="16.262" y2="7.50049" gradientUnits="userSpaceOnUse">
<stop stop-color="#FDFC47"/>
<stop offset="1" stop-color="#24FE41"/>
</linearGradient>
<clipPath id="clip0_9_278">
<rect width="16" height="16" fill="white" transform="translate(0.261963 0.000488281)"/>
</clipPath>
</defs>
</svg>
