<svg width="17" height="16" viewBox="0 0 17 16" fill="none" xmlns="http://www.w3.org/2000/svg">
<g clip-path="url(#clip0_9_308)">
<path d="M8.26593 7.06251e-06C7.70293 -0.00499294 7.50593 0.018007 7.42593 0.714007L7.39593 0.958007C7.32693 1.40801 7.31393 1.61301 6.89593 1.72301C6.86145 1.73108 6.82711 1.73975 6.79293 1.74901C6.67157 1.7789 6.55118 1.81258 6.43193 1.85001C6.41593 1.85501 6.40093 1.86201 6.38493 1.86601C6.33493 1.88001 6.30393 1.87601 6.26193 1.88201C5.44993 2.16101 4.70193 2.60601 4.06193 3.19001C4.02293 3.23801 3.99393 3.28401 3.93193 3.33901L3.94393 3.33701C3.86093 3.41701 3.77993 3.49801 3.70193 3.58301L3.70593 3.57101C3.35693 3.97801 3.18393 3.88601 2.73493 3.71001L2.50993 3.61401C2.31393 3.52701 2.16793 3.48401 2.05093 3.48101C1.79393 3.47201 1.68093 3.65801 1.49093 4.00301C1.20393 4.49801 1.12093 4.68301 1.67093 5.10001L1.86593 5.24901C2.05693 5.40701 2.18793 5.51701 2.25193 5.65101C2.89493 5.31501 3.58193 5.03501 4.24093 5.00101C5.84393 4.91601 7.22193 5.70001 8.51793 6.45101C9.81393 7.20401 11.0399 7.92901 12.2949 8.00101C12.8209 8.03101 13.7769 7.81501 14.5729 7.56901C14.5529 7.29901 14.5229 7.03001 14.4709 6.76401C14.4479 6.71401 14.4239 6.67201 14.4069 6.60201L14.3869 6.51601C14.3869 6.51001 14.3829 6.50401 14.3809 6.49601C14.3512 6.37238 14.3179 6.24966 14.2809 6.12801L14.2659 6.07801C14.1479 5.65001 14.3159 5.53701 14.6639 5.24801L14.8599 5.10001C15.4099 4.68201 15.3259 4.49801 15.0399 4.00301C14.8499 3.65801 14.7359 3.47101 14.4789 3.47901C14.3619 3.48301 14.2159 3.52701 14.0189 3.61401L13.7969 3.71001C13.3479 3.88601 13.1749 3.97901 12.8269 3.57101L12.8289 3.58301C12.7512 3.49887 12.6711 3.41684 12.5889 3.33701L12.5999 3.33901C12.5354 3.28184 12.4777 3.21741 12.4279 3.14701C11.7994 2.58466 11.0641 2.15446 10.2659 1.88201C10.2259 1.87601 10.1939 1.87901 10.1459 1.86601L10.0999 1.85001L10.0499 1.83501C9.94083 1.80121 9.83078 1.77053 9.71993 1.74301L9.63493 1.72301C9.21793 1.61301 9.20493 1.40901 9.13493 0.958007L9.10593 0.714007C9.02793 0.018007 8.82993 -0.00599294 8.26593 7.06251e-06ZM4.29093 6.00001C3.76693 6.02801 2.83293 6.45501 2.06093 6.90901C1.99368 7.26896 1.95656 7.63389 1.94993 8.00001C1.94993 8.26201 1.97193 8.52301 2.00393 8.78301C2.71593 8.39001 3.49593 8.04001 4.24093 8.00001C5.84393 7.91501 7.22193 8.69901 8.51793 9.45001C9.81393 10.203 11.0399 10.928 12.2949 11C12.7999 11.028 13.7009 10.825 14.4769 10.591C14.2649 10.404 14.1729 10.261 14.2659 9.92101L14.2819 9.87301L14.2949 9.82201C14.328 9.71017 14.358 9.59746 14.3849 9.48401L14.4049 9.39801C14.4179 9.34501 14.4369 9.31601 14.4539 9.27501C14.4999 9.05501 14.5339 8.83101 14.5569 8.60701C13.7919 8.83401 12.9569 9.04101 12.2369 9.00001C10.6479 8.91001 9.29893 8.06001 8.01593 7.31601C6.73293 6.57201 5.53193 5.93501 4.29093 6.00001ZM4.29093 9.00001C3.80493 9.02601 2.96893 9.40301 2.23293 9.82001C2.23293 9.82101 2.23293 9.82301 2.23493 9.82501C2.24193 9.84201 2.24493 9.85801 2.24993 9.87401C2.25522 9.89016 2.25989 9.9065 2.26393 9.92301C2.38193 10.352 2.21393 10.465 1.86593 10.753L1.67393 10.901C1.12393 11.319 1.20393 11.506 1.49093 12.001C1.76693 12.502 1.88093 12.665 2.51093 12.387L2.73493 12.292C3.18393 12.115 3.35693 12.022 3.70493 12.43L3.70293 12.42C3.78193 12.505 3.86093 12.585 3.94293 12.665L3.93193 12.663C3.97993 12.706 4.00093 12.741 4.03593 12.78C4.68993 13.3841 5.46465 13.8425 6.30893 14.125C6.33693 14.131 6.35693 14.13 6.38693 14.139L6.43393 14.153L6.48293 14.167C6.59204 14.2005 6.70209 14.2308 6.81293 14.258L6.89693 14.278C7.31393 14.388 7.32693 14.593 7.39693 15.044L7.42693 15.292C7.50493 15.987 7.70293 16.007 8.26593 16.001C8.82893 16.007 9.02593 15.987 9.10593 15.291L9.13593 15.044C9.20393 14.593 9.21793 14.389 9.63593 14.278C9.67041 14.2699 9.70475 14.2613 9.73893 14.252C9.84393 14.226 9.94593 14.198 10.0489 14.167C10.0659 14.161 10.0819 14.157 10.0979 14.153L10.1449 14.139C10.1979 14.124 10.2349 14.126 10.2799 14.119C11.0763 13.8446 11.8095 13.4131 12.4359 12.85C12.4789 12.792 12.5229 12.731 12.5999 12.663L12.5879 12.665C12.6709 12.585 12.7499 12.503 12.8279 12.419L12.8239 12.43C13.1729 12.023 13.3459 12.115 13.7949 12.292L14.0199 12.387C14.6489 12.665 14.7629 12.502 15.0399 12.001C15.1899 11.74 15.2769 11.564 15.2519 11.395C15.1349 11.435 15.0569 11.467 14.9299 11.506C14.0799 11.773 13.0709 12.048 12.2369 12.001C10.6479 11.911 9.29793 11.061 8.01593 10.317C6.73293 9.57201 5.53193 8.93501 4.29093 9.00101V9.00001Z" fill="url(#paint0_linear_9_308)"/>
</g>
<defs>
<linearGradient id="paint0_linear_9_308" x1="1.26599" y1="8.00053" x2="15.2645" y2="8.00053" gradientUnits="userSpaceOnUse">
<stop stop-color="#FDFC47"/>
<stop offset="1" stop-color="#24FE41"/>
</linearGradient>
<clipPath id="clip0_9_308">
<rect width="16" height="16.001" fill="white" transform="translate(0.261963)"/>
</clipPath>
</defs>
</svg>
