<svg width="17" height="16" viewBox="0 0 17 16" fill="none" xmlns="http://www.w3.org/2000/svg">
<g clip-path="url(#clip0_9_325)">
<path d="M7.26196 0.000488281C6.15396 0.000488281 5.26196 0.892488 5.26196 2.00049V3.00049H3.26196C2.15396 3.00049 1.26196 3.89249 1.26196 5.00049V14.0005C1.26196 15.1085 2.15396 16.0005 3.26196 16.0005H9.26196C10.37 16.0005 11.262 15.1085 11.262 14.0005V13.0005H13.262C14.37 13.0005 15.262 12.1085 15.262 11.0005V6.41459V5.00049L10.262 0.000488281H9.26196H7.26196ZM7.26196 1.00049H9.26196V5.00049V6.00049H14.262V11.0005C14.262 11.5545 13.816 12.0005 13.262 12.0005H11.262V9.41459V8.00049L6.26196 3.00049V2.00049C6.26196 1.86199 6.28962 1.72957 6.34009 1.60987C6.4915 1.25071 6.84646 1.00049 7.26196 1.00049ZM10.262 1.41455L13.8479 5.00045H10.262V1.41455ZM3.26196 4.00045H5.26196V6.18795C5.57688 6.07442 5.91001 6.00045 6.26196 6.00045V4.41455L9.84786 8.00045H9.07442C9.18795 8.31537 9.26192 8.6485 9.26192 9.00045H10.2619V14.0004C10.2619 14.5544 9.81592 15.0004 9.26192 15.0004H6.26192H5.26192H3.26192C2.70792 15.0004 2.26192 14.5544 2.26192 14.0004V5.00045C2.26192 4.86195 2.28958 4.72953 2.34005 4.60983C2.49146 4.25067 2.84646 4.00045 3.26196 4.00045Z" fill="url(#paint0_linear_9_325)"/>
<path d="M6.26196 7.00049C7.36196 7.00049 8.26196 7.90049 8.26196 9.00049C8.26196 10.1005 7.36196 11.0005 6.26196 11.0005V12.0005H5.26196V10.0005H6.26196C6.81196 10.0005 7.26196 9.55049 7.26196 9.00049C7.26196 8.45049 6.81196 8.00049 6.26196 8.00049C5.71196 8.00049 5.26196 8.45049 5.26196 9.00049H4.26196C4.26196 7.90049 5.16196 7.00049 6.26196 7.00049ZM5.26196 13.0005H6.26196V14.0005H5.26196V13.0005Z" fill="url(#paint1_linear_9_325)"/>
</g>
<defs>
<linearGradient id="paint0_linear_9_325" x1="1.26196" y1="8.00049" x2="15.262" y2="8.00049" gradientUnits="userSpaceOnUse">
<stop stop-color="#FDFC47"/>
<stop offset="1" stop-color="#24FE41"/>
</linearGradient>
<linearGradient id="paint1_linear_9_325" x1="4.26196" y1="10.5005" x2="8.26196" y2="10.5005" gradientUnits="userSpaceOnUse">
<stop stop-color="#FDFC47"/>
<stop offset="1" stop-color="#24FE41"/>
</linearGradient>
<clipPath id="clip0_9_325">
<rect width="16" height="16" fill="white" transform="translate(0.261963 0.000488281)"/>
</clipPath>
</defs>
</svg>
