<svg width="17" height="16" viewBox="0 0 17 16" fill="none" xmlns="http://www.w3.org/2000/svg">
<path d="M8.26196 1.00049C7.2011 1.00049 6.18368 1.42192 5.43354 2.17206C4.68339 2.92221 4.26196 3.93962 4.26196 5.00049C4.26288 5.4769 4.3489 5.94932 4.51596 6.39549C4.49167 6.33208 4.469 6.26806 4.44796 6.20349C5.17996 8.40149 6.65396 12.5855 8.26196 15.7705C9.86996 12.5855 11.344 8.40049 12.076 6.20349C12.199 5.81433 12.2617 5.40863 12.262 5.00049C12.262 3.93962 11.8405 2.92221 11.0904 2.17206C10.3402 1.42192 9.32283 1.00049 8.26196 1.00049ZM8.26196 2.00049C9.05761 2.00049 9.82067 2.31656 10.3833 2.87917C10.9459 3.44178 11.262 4.20484 11.262 5.00049C11.262 5.79614 10.9459 6.5592 10.3833 7.12181C9.82067 7.68442 9.05761 8.00049 8.26196 8.00049C7.46631 8.00049 6.70325 7.68442 6.14064 7.12181C5.57803 6.5592 5.26196 5.79614 5.26196 5.00049C5.26196 4.20484 5.57803 3.44178 6.14064 2.87917C6.70325 2.31656 7.46631 2.00049 8.26196 2.00049Z" fill="url(#paint0_linear_9_407)"/>
<defs>
<linearGradient id="paint0_linear_9_407" x1="4.26196" y1="8.38549" x2="12.262" y2="8.38549" gradientUnits="userSpaceOnUse">
<stop stop-color="#FDFC47"/>
<stop offset="1" stop-color="#24FE41"/>
</linearGradient>
</defs>
</svg>
