<svg width="17" height="16" viewBox="0 0 17 16" fill="none" xmlns="http://www.w3.org/2000/svg">
<g clip-path="url(#clip0_9_411)">
<path d="M2.26196 1.00049C1.15396 1.00049 0.261963 1.89249 0.261963 3.00049V11.0005C0.261963 12.1085 1.15396 13.0005 2.26196 13.0005H3.78394L6.26196 16.0005L8.26196 13.0005H14.262C15.37 13.0005 16.262 12.1085 16.262 11.0005V3.00049C16.262 1.89249 15.37 1.00049 14.262 1.00049H2.26196ZM2.26196 2.00049H14.262C14.816 2.00049 15.262 2.44649 15.262 3.00049V11.0005C15.262 11.5545 14.816 12.0005 14.262 12.0005H7.82794L6.26196 14.4005L4.29596 12.0005H2.26196C1.70796 12.0005 1.26196 11.5545 1.26196 11.0005V3.00049C1.26196 2.44649 1.70796 2.00049 2.26196 2.00049ZM1.56195 13.0005C1.71495 13.0175 1.88394 13.0215 2.08594 13.0005H1.56195Z" fill="url(#paint0_linear_9_411)"/>
<path d="M13.012 4.00049H3.51196C3.37389 4.00049 3.26196 4.11242 3.26196 4.25049V4.75049C3.26196 4.88856 3.37389 5.00049 3.51196 5.00049H13.012C13.15 5.00049 13.262 4.88856 13.262 4.75049V4.25049C13.262 4.11242 13.15 4.00049 13.012 4.00049Z" fill="url(#paint1_linear_9_411)"/>
<path d="M10.012 6.00049H3.51196C3.37389 6.00049 3.26196 6.11242 3.26196 6.25049V6.75049C3.26196 6.88856 3.37389 7.00049 3.51196 7.00049H10.012C10.15 7.00049 10.262 6.88856 10.262 6.75049V6.25049C10.262 6.11242 10.15 6.00049 10.012 6.00049Z" fill="url(#paint2_linear_9_411)"/>
</g>
<defs>
<linearGradient id="paint0_linear_9_411" x1="0.261963" y1="8.50049" x2="16.262" y2="8.50049" gradientUnits="userSpaceOnUse">
<stop stop-color="#FDFC47"/>
<stop offset="1" stop-color="#24FE41"/>
</linearGradient>
<linearGradient id="paint1_linear_9_411" x1="3.26196" y1="4.50049" x2="13.262" y2="4.50049" gradientUnits="userSpaceOnUse">
<stop stop-color="#FDFC47"/>
<stop offset="1" stop-color="#24FE41"/>
</linearGradient>
<linearGradient id="paint2_linear_9_411" x1="3.26196" y1="6.50049" x2="10.262" y2="6.50049" gradientUnits="userSpaceOnUse">
<stop stop-color="#FDFC47"/>
<stop offset="1" stop-color="#24FE41"/>
</linearGradient>
<clipPath id="clip0_9_411">
<rect width="16" height="16" fill="white" transform="translate(0.261963 0.000488281)"/>
</clipPath>
</defs>
</svg>
