<svg width="17" height="16" viewBox="0 0 17 16" fill="none" xmlns="http://www.w3.org/2000/svg">
<g clip-path="url(#clip0_9_429)">
<path d="M2.26196 1.00049C1.15396 1.00049 0.261963 1.89249 0.261963 3.00049V12.0005C0.261963 13.1085 1.15396 14.0005 2.26196 14.0005H14.262C15.37 14.0005 16.262 13.1085 16.262 12.0005V3.00049C16.262 1.89249 15.37 1.00049 14.262 1.00049H2.26196ZM2.26196 2.00049H3.26196V3.00049H1.26196C1.26196 2.44649 1.70796 2.00049 2.26196 2.00049ZM4.26196 2.00049H12.262V7.00049H4.26196V2.00049ZM13.262 2.00049H14.262C14.816 2.00049 15.262 2.44649 15.262 3.00049H13.262V2.00049ZM1.26196 4.00049H3.26196V5.00049H1.26196V4.00049ZM13.262 4.00049H15.262V5.00049H13.262V4.00049ZM1.26196 6.00049H3.26196V7.00049H1.26196V6.00049ZM13.262 6.00049H15.262V7.00049H13.262V6.00049ZM1.26196 8.00049H3.26196V9.00049H1.26196V8.00049ZM4.26196 8.00049H12.262V13.0005H4.26196V8.00049ZM13.262 8.00049H15.262V9.00049H13.262V8.00049ZM1.26196 10.0005H3.26196V11.0005H1.26196V10.0005ZM13.262 10.0005H15.262V11.0005H13.262V10.0005ZM1.26196 12.0005H3.26196V13.0005H2.26196C1.70796 13.0005 1.26196 12.5545 1.26196 12.0005ZM13.262 12.0005H15.262C15.262 12.5545 14.816 13.0005 14.262 13.0005H13.262V12.0005Z" fill="url(#paint0_linear_9_429)"/>
</g>
<defs>
<linearGradient id="paint0_linear_9_429" x1="0.261963" y1="7.50049" x2="16.262" y2="7.50049" gradientUnits="userSpaceOnUse">
<stop stop-color="#FDFC47"/>
<stop offset="1" stop-color="#24FE41"/>
</linearGradient>
<clipPath id="clip0_9_429">
<rect width="16" height="16" fill="white" transform="translate(0.261963 0.000488281)"/>
</clipPath>
</defs>
</svg>
