<svg width="17" height="16" viewBox="0 0 17 16" fill="none" xmlns="http://www.w3.org/2000/svg">
<path d="M11.762 2.00049C11.485 2.00049 11.262 2.22349 11.262 2.50049V3.00049H1.76196C1.48496 3.00049 1.26196 3.22349 1.26196 3.50049C1.26196 3.77749 1.48496 4.00049 1.76196 4.00049H11.262V4.50049C11.262 4.77749 11.485 5.00049 11.762 5.00049C12.039 5.00049 12.262 4.77749 12.262 4.50049V2.50049C12.262 2.22349 12.039 2.00049 11.762 2.00049ZM13.262 3.00049V4.00049H14.762C15.039 4.00049 15.262 3.77749 15.262 3.50049C15.262 3.22349 15.039 3.00049 14.762 3.00049H13.262ZM4.76196 7.00049C4.48496 7.00049 4.26196 7.22349 4.26196 7.50049V8.00049H1.76196C1.48496 8.00049 1.26196 8.22349 1.26196 8.50049C1.26196 8.77749 1.48496 9.00049 1.76196 9.00049H4.26196V9.50049C4.26196 9.77749 4.48496 10.0005 4.76196 10.0005C5.03896 10.0005 5.26196 9.77749 5.26196 9.50049V7.50049C5.26196 7.22349 5.03896 7.00049 4.76196 7.00049ZM6.26196 8.00049V9.00049H14.762C15.039 9.00049 15.262 8.77749 15.262 8.50049C15.262 8.22349 15.039 8.00049 14.762 8.00049H6.26196ZM8.76196 12.0005C8.48496 12.0005 8.26196 12.2235 8.26196 12.5005V13.0005H1.76196C1.48496 13.0005 1.26196 13.2235 1.26196 13.5005C1.26196 13.7775 1.48496 14.0001 1.76196 14.0005H8.26196V14.5005C8.26196 14.7775 8.48496 15.0005 8.76196 15.0005C9.03896 15.0005 9.26196 14.7775 9.26196 14.5005V12.5005C9.26196 12.2235 9.03896 12.0005 8.76196 12.0005ZM10.262 13.0005V14.0005H14.762C15.039 14.0005 15.262 13.7775 15.262 13.5005C15.262 13.2235 15.039 13 14.762 13.0005H10.262Z" fill="url(#paint0_linear_9_419)"/>
<defs>
<linearGradient id="paint0_linear_9_419" x1="1.26196" y1="8.50049" x2="15.262" y2="8.50049" gradientUnits="userSpaceOnUse">
<stop stop-color="#FDFC47"/>
<stop offset="1" stop-color="#24FE41"/>
</linearGradient>
</defs>
</svg>
