<svg width="17" height="16" viewBox="0 0 17 16" fill="none" xmlns="http://www.w3.org/2000/svg">
<g clip-path="url(#clip0_9_439)">
<path fill-rule="evenodd" clip-rule="evenodd" d="M13.7758 0.0414314C13.639 0.0367556 13.5019 0.0421032 13.3658 0.0574314L6.15584 1.18243C5.34284 1.26443 5.25484 1.64443 5.26184 2.11743V11.6374C4.84884 11.3654 4.40584 11.1724 3.81684 11.1724C3.05684 11.1724 2.60384 11.4624 2.32984 11.8464C2.05584 12.2294 1.96484 12.7114 1.96484 13.0844C1.96484 13.5344 2.11984 14.0134 2.45284 14.3794C2.78684 14.7454 3.29884 15.0024 4.03484 15.0024C4.86684 15.0024 5.45084 14.7704 5.78184 14.3164C6.04184 13.9594 6.18684 13.4814 6.23884 12.8934C6.24584 12.8214 6.24884 12.7474 6.25384 12.6724C6.25784 12.6124 6.25684 12.5704 6.25784 12.5004H6.26184V4.79743C6.28384 4.17743 6.84584 4.08643 6.84584 4.08643L12.6998 3.17243C13.2618 3.00043 13.2618 3.69543 13.2618 3.69543V10.6374C12.8488 10.3654 12.4058 10.1724 11.8168 10.1724C11.0568 10.1724 10.6048 10.4624 10.3308 10.8464C10.0558 11.2294 9.96484 11.7114 9.96484 12.0844C9.96484 12.5344 10.1198 13.0134 10.4538 13.3794C10.7868 13.7454 11.2988 14.0024 12.0358 14.0024C12.8668 14.0024 13.4508 13.7704 13.7818 13.3164C14.0418 12.9594 14.1868 12.4814 14.2388 11.8934C14.2458 11.8214 14.2488 11.7474 14.2538 11.6724C14.2578 11.6124 14.2568 11.5704 14.2578 11.5004H14.2618V0.932431C14.2738 0.246431 14.1218 0.0654314 13.7758 0.0414314Z" fill="url(#paint0_linear_9_439)"/>
</g>
<defs>
<linearGradient id="paint0_linear_9_439" x1="1.96484" y1="7.52111" x2="14.2625" y2="7.52111" gradientUnits="userSpaceOnUse">
<stop stop-color="#FDFC47"/>
<stop offset="1" stop-color="#24FE41"/>
</linearGradient>
<clipPath id="clip0_9_439">
<rect width="16" height="16" fill="white" transform="translate(0.261963 0.000488281)"/>
</clipPath>
</defs>
</svg>
