<svg width="36" height="39" viewBox="0 0 36 39" fill="none" xmlns="http://www.w3.org/2000/svg">
<g clip-path="url(#clip0_9_168)" filter="url(#filter0_d_9_168)">
<g opacity="0.15" filter="url(#filter1_f_9_168)">
<path d="M27 3H9C6.23858 3 4 5.23858 4 8V26C4 28.7614 6.23858 31 9 31H27C29.7614 31 32 28.7614 32 26V8C32 5.23858 29.7614 3 27 3Z" fill="#232323"/>
<path d="M9 3.5H27C29.4853 3.5 31.5 5.51472 31.5 8V26C31.5 28.4853 29.4853 30.5 27 30.5H9C6.51472 30.5 4.5 28.4853 4.5 26V8C4.5 5.51472 6.51472 3.5 9 3.5Z" stroke="url(#paint0_linear_9_168)"/>
</g>
<path d="M9 2.5H27C29.4853 2.5 31.5 4.51472 31.5 7V25C31.5 27.4853 29.4853 29.5 27 29.5H9C6.51472 29.5 4.5 27.4853 4.5 25V7C4.5 4.51472 6.51472 2.5 9 2.5Z" fill="#232323" stroke="url(#paint1_linear_9_168)"/>
<path opacity="0.05" d="M15.24 12.2399L15.6152 12.3886L15.8398 12.0533C16.6396 10.8588 17.9556 10.0582 19.467 10.0582C21.8959 10.0582 23.8806 12.0538 23.8806 14.4968C23.8806 14.531 23.8772 14.5713 23.87 14.632C23.8688 14.6423 23.8674 14.6538 23.8659 14.6663C23.8596 14.7172 23.8515 14.7838 23.8468 14.8475L23.8219 15.1902L24.1329 15.3363C25.7108 16.0779 26.814 17.6336 26.814 19.4733C26.814 22.023 24.7519 24.0957 22.2168 24.0957H13.7837C11.2487 24.0957 9.18652 22.023 9.18652 19.4733C9.18652 18.0648 9.88112 16.8412 10.9156 15.977L11.1356 15.7932L11.0881 15.5105C11.0754 15.4347 11.0637 15.3746 11.0538 15.3232C11.0327 15.2142 11.0193 15.1449 11.0193 15.0493C11.0193 13.3191 12.4307 11.9021 14.1511 11.9021C14.424 11.9021 14.6469 11.9949 14.9684 12.1287C15.0515 12.1633 15.1412 12.2007 15.24 12.2399Z" fill="#232323" stroke="url(#paint2_linear_9_168)"/>
<path opacity="0.15" d="M15.4505 12.9815L15.9135 13.2773L16.1645 12.7886C16.7842 11.5819 18.0314 10.7559 19.466 10.7559C21.5156 10.7559 23.1819 12.4276 23.1819 14.4957C23.1819 14.7373 23.1627 14.9672 23.1216 15.1876L23.0421 15.6147L23.4539 15.753C25.0005 16.2727 26.1148 17.7355 26.1148 19.4728C26.1148 21.6502 24.3739 23.3969 22.2155 23.3969H13.7834C11.625 23.3969 9.88409 21.6503 9.88409 19.4728C9.88409 18.1113 10.5645 16.9144 11.601 16.2114L11.8932 16.0132L11.8041 15.6715C11.7497 15.4627 11.7172 15.2554 11.7172 15.0487C11.7172 13.6933 12.8091 12.5993 14.1501 12.5993C14.6279 12.5993 15.0727 12.7401 15.4505 12.9815Z" fill="#232323" stroke="url(#paint3_linear_9_168)"/>
<path d="M15.4505 12.2641L15.9135 12.5599L16.1645 12.0712C16.7842 10.8645 18.0314 10.0385 19.466 10.0385C21.5156 10.0385 23.1819 11.7101 23.1819 13.7783C23.1819 14.0199 23.1627 14.2497 23.1216 14.4701L23.0421 14.8972L23.4539 15.0356C25.0005 15.5553 26.1148 17.0181 26.1148 18.7554C26.1148 20.9328 24.3739 22.6795 22.2155 22.6795H13.7834C11.625 22.6795 9.88409 20.9329 9.88409 18.7554C9.88409 17.3938 10.5645 16.197 11.601 15.494L11.8932 15.2958L11.8041 14.9541C11.7497 14.7452 11.7172 14.538 11.7172 14.3313C11.7172 12.9759 12.8091 11.8819 14.1501 11.8819C14.6279 11.8819 15.0727 12.0227 15.4505 12.2641Z" fill="url(#paint4_linear_9_168)" stroke="url(#paint5_linear_9_168)"/>
</g>
<defs>
<filter id="filter0_d_9_168" x="-2" y="0" width="40" height="40" filterUnits="userSpaceOnUse" color-interpolation-filters="sRGB">
<feFlood flood-opacity="0" result="BackgroundImageFix"/>
<feColorMatrix in="SourceAlpha" type="matrix" values="0 0 0 0 0 0 0 0 0 0 0 0 0 0 0 0 0 0 127 0" result="hardAlpha"/>
<feOffset dy="4"/>
<feGaussianBlur stdDeviation="2"/>
<feComposite in2="hardAlpha" operator="out"/>
<feColorMatrix type="matrix" values="0 0 0 0 0 0 0 0 0 0 0 0 0 0 0 0 0 0 0.25 0"/>
<feBlend mode="normal" in2="BackgroundImageFix" result="effect1_dropShadow_9_168"/>
<feBlend mode="normal" in="SourceGraphic" in2="effect1_dropShadow_9_168" result="shape"/>
</filter>
<filter id="filter1_f_9_168" x="2.88" y="1.88" width="30.24" height="30.24" filterUnits="userSpaceOnUse" color-interpolation-filters="sRGB">
<feFlood flood-opacity="0" result="BackgroundImageFix"/>
<feBlend mode="normal" in="SourceGraphic" in2="BackgroundImageFix" result="shape"/>
<feGaussianBlur stdDeviation="0.56" result="effect1_foregroundBlur_9_168"/>
</filter>
<linearGradient id="paint0_linear_9_168" x1="4" y1="17" x2="32" y2="17" gradientUnits="userSpaceOnUse">
<stop stop-color="#FDFC47"/>
<stop offset="1" stop-color="#24FE41"/>
</linearGradient>
<linearGradient id="paint1_linear_9_168" x1="4" y1="16" x2="32" y2="16" gradientUnits="userSpaceOnUse">
<stop stop-color="#FDFC47"/>
<stop offset="1" stop-color="#24FE41"/>
</linearGradient>
<linearGradient id="paint2_linear_9_168" x1="8.68652" y1="17.0769" x2="27.314" y2="17.0769" gradientUnits="userSpaceOnUse">
<stop stop-color="#FDFC47"/>
<stop offset="1" stop-color="#24FE41"/>
</linearGradient>
<linearGradient id="paint3_linear_9_168" x1="9.38409" y1="17.0764" x2="26.6148" y2="17.0764" gradientUnits="userSpaceOnUse">
<stop stop-color="#FDFC47"/>
<stop offset="1" stop-color="#24FE41"/>
</linearGradient>
<linearGradient id="paint4_linear_9_168" x1="9.38409" y1="16.359" x2="26.6148" y2="16.359" gradientUnits="userSpaceOnUse">
<stop stop-color="#FDFC47"/>
<stop offset="1" stop-color="#24FE41"/>
</linearGradient>
<linearGradient id="paint5_linear_9_168" x1="9.38409" y1="16.359" x2="26.6148" y2="16.359" gradientUnits="userSpaceOnUse">
<stop stop-color="#FDFC47"/>
<stop offset="1" stop-color="#24FE41"/>
</linearGradient>
<clipPath id="clip0_9_168">
<rect width="32" height="32" fill="white" transform="translate(2)"/>
</clipPath>
</defs>
</svg>
