<svg width="17" height="16" viewBox="0 0 17 16" fill="none" xmlns="http://www.w3.org/2000/svg">
<g clip-path="url(#clip0_9_503)">
<path d="M4.26207 0.000488281C3.00407 0.0154883 2.08307 -0.0275117 1.33107 0.387488C0.94176 0.608768 0.644502 0.962072 0.493066 1.38349C0.328066 1.82049 0.268066 2.34349 0.268066 3.00049V7.00049H0.278066C0.250066 7.33249 0.308066 7.67849 0.458066 8.00649C0.661066 8.45349 1.00207 8.88449 1.48807 9.37149L6.89807 14.7795C7.38407 15.2675 7.81607 15.6075 8.26207 15.8115C8.70907 16.0145 9.19107 16.0555 9.62407 15.9305C10.2101 15.7605 10.7221 15.3305 11.2681 14.8155V13.3655C10.3721 14.2385 9.73807 14.8055 9.33107 14.9225C9.12007 14.9825 8.96107 14.9785 8.69607 14.8575C8.43107 14.7375 8.07807 14.4785 7.63907 14.0395L2.22907 8.62949C1.79007 8.19049 1.53107 7.83949 1.41107 7.57449C1.30307 7.33749 1.26807 7.00049 1.26807 7.00049V3.00049C1.26807 2.40849 1.33107 1.99449 1.42807 1.73449C1.52607 1.47449 1.63007 1.36349 1.81307 1.26249C2.17807 1.06049 3.00807 1.01549 4.26807 1.00049H7.26807C7.26807 1.00049 7.60307 1.03549 7.84007 1.14349C8.10507 1.26349 8.45807 1.52449 8.89707 1.96349L12.9361 6.00049H14.4181L9.63907 1.22049C9.15207 0.735488 8.72107 0.394488 8.27407 0.190488C7.95996 0.0443485 7.61347 -0.0183357 7.26807 0.00848828V0.000488281H4.26407L4.26207 0.000488281ZM3.28807 2.00049C3.26472 2.00034 3.24137 2.001 3.21807 2.00249C2.95327 2.01594 2.70465 2.134 2.52688 2.33071C2.34911 2.52743 2.25673 2.78668 2.27007 3.05149C2.28377 3.31611 2.40195 3.56447 2.59863 3.74203C2.79531 3.91959 3.05443 4.01183 3.31907 3.99849C3.58369 3.98478 3.83205 3.86661 4.00961 3.66992C4.18717 3.47324 4.27941 3.21413 4.26607 2.94949C4.25323 2.69697 4.1452 2.45869 3.96374 2.28261C3.78228 2.10653 3.54086 2.00572 3.28807 2.00049ZM13.7681 8.00049C13.4911 8.00049 13.2681 8.22349 13.2681 8.50049V9.50049C13.2681 9.77749 13.4911 10.0005 13.7681 10.0005H14.7681C15.0451 10.0005 15.2681 9.77749 15.2681 9.50049V8.50049C15.2681 8.22349 15.0451 8.00049 14.7681 8.00049H13.7681ZM13.7681 11.0005C13.4911 11.0005 13.2681 11.2235 13.2681 11.5005V12.5005C13.2681 12.7775 13.4911 13.0005 13.7681 13.0005H14.7681C15.0451 13.0005 15.2681 12.7775 15.2681 12.5005V11.5005C15.2681 11.2235 15.0451 11.0005 14.7681 11.0005H13.7681ZM13.7681 14.0005C13.4911 14.0005 13.2681 14.2235 13.2681 14.5005V15.5005C13.2681 15.7775 13.4911 16.0005 13.7681 16.0005H14.7681C15.0451 16.0005 15.2681 15.7775 15.2681 15.5005V14.5005C15.2681 14.2235 15.0451 14.0005 14.7681 14.0005H13.7681Z" fill="url(#paint0_linear_9_503)"/>
</g>
<defs>
<linearGradient id="paint0_linear_9_503" x1="0.268066" y1="8.00089" x2="15.2681" y2="8.00089" gradientUnits="userSpaceOnUse">
<stop stop-color="#FDFC47"/>
<stop offset="1" stop-color="#24FE41"/>
</linearGradient>
<clipPath id="clip0_9_503">
<rect width="16" height="16" fill="white" transform="translate(0.261963 0.000488281)"/>
</clipPath>
</defs>
</svg>
