<svg width="17" height="16" viewBox="0 0 17 16" fill="none" xmlns="http://www.w3.org/2000/svg">
<path d="M8.26196 1.00048C7.73296 1.00048 7.22996 1.09848 6.76796 1.29548C6.30796 1.48348 5.89996 1.75848 5.56096 2.11548L5.55896 2.11948L5.55696 2.12148C5.22696 2.48048 4.97096 2.91148 4.79096 3.40148C4.6063 3.91408 4.51519 4.45568 4.52196 5.00048C4.52196 5.58048 4.60896 6.12248 4.79196 6.61248C4.97196 7.09448 5.22796 7.52048 5.55796 7.87848L5.56196 7.88248C5.89996 8.23848 6.30496 8.51848 6.76296 8.71448L6.77096 8.71848C7.23096 8.90748 7.73396 9.00048 8.26196 9.00048C8.78996 9.00048 9.28996 8.90748 9.75196 8.71948V8.71748C10.203 8.52659 10.6086 8.24235 10.942 7.88348C11.282 7.52548 11.542 7.09748 11.723 6.61348C11.907 6.12348 11.994 5.58248 11.994 5.00048H12.002C12.002 4.42748 11.915 3.89148 11.732 3.40248C11.5626 2.9259 11.2971 2.48921 10.952 2.11948C10.6187 1.76021 10.2104 1.47886 9.75596 1.29548C9.28312 1.09684 8.77482 0.996472 8.26196 1.00048ZM8.26196 2.00048C8.66796 2.00048 9.03196 2.07348 9.36396 2.21548L9.37396 2.21948L9.38396 2.22148C9.71396 2.35648 9.99096 2.54748 10.221 2.79748V2.80748C10.461 3.06048 10.652 3.37148 10.79 3.74748V3.75248C10.92 4.10348 10.984 4.50548 10.989 4.95448V5.00048C10.989 5.48248 10.917 5.90048 10.782 6.26248V6.26448C10.6571 6.61029 10.4632 6.92706 10.212 7.19548L10.202 7.19948V7.20348C9.96896 7.45648 9.68796 7.65348 9.35396 7.79748C9.00648 7.93502 8.63566 8.00396 8.26196 8.00048C7.85196 8.00048 7.48496 7.92848 7.15196 7.79348H7.14896C6.82396 7.65348 6.54896 7.45648 6.31096 7.21148L6.25996 7.14148L6.25196 7.13548C6.02594 6.8795 5.84868 6.5843 5.72896 6.26448C5.58452 5.859 5.51407 5.43087 5.52096 5.00048C5.52096 4.52948 5.59196 4.11448 5.72896 3.75048L5.73096 3.74848V3.74448C5.86896 3.36848 6.05496 3.06048 6.28496 2.80848L6.29696 2.79848C6.53696 2.54848 6.81696 2.35548 7.14696 2.22048L7.15296 2.21648L7.16096 2.21448C7.49096 2.07448 7.85596 2.00048 8.26196 2.00048ZM13.762 8.00048C13.485 8.00048 13.262 8.22348 13.262 8.50048V9.50048C13.262 9.77748 13.485 10.0005 13.762 10.0005H14.762C15.039 10.0005 15.262 9.77748 15.262 9.50048V8.50048C15.262 8.22348 15.039 8.00048 14.762 8.00048H13.762ZM13.762 11.0005C13.485 11.0005 13.262 11.2235 13.262 11.5005V12.5005C13.262 12.7775 13.485 13.0005 13.762 13.0005H14.762C15.039 13.0005 15.262 12.7775 15.262 12.5005V11.5005C15.262 11.2235 15.039 11.0005 14.762 11.0005H13.762ZM8.29196 11.0255C5.40996 11.0255 3.86196 11.2915 2.71296 12.1585C2.13796 12.5925 1.75896 13.1835 1.54496 13.8715C1.33096 14.5595 1.26396 15.0835 1.26196 15.9985L2.26196 16.0005C2.26396 15.1355 2.33396 14.7005 2.49996 14.1665C2.66596 13.6325 2.91196 13.2635 3.31696 12.9575C4.12696 12.3475 5.47896 12.0245 8.29096 12.0245C9.06096 12.0245 9.69796 12.0545 10.262 12.1025V11.0885C9.60626 11.0439 8.94917 11.0229 8.29196 11.0255ZM13.762 14.0005C13.485 14.0005 13.262 14.2235 13.262 14.5005V15.5005C13.262 15.7775 13.485 16.0005 13.762 16.0005H14.762C15.039 16.0005 15.262 15.7775 15.262 15.5005V14.5005C15.262 14.2235 15.039 14.0005 14.762 14.0005H13.762Z" fill="url(#paint0_linear_9_491)"/>
<defs>
<linearGradient id="paint0_linear_9_491" x1="1.26196" y1="8.50042" x2="15.262" y2="8.50042" gradientUnits="userSpaceOnUse">
<stop stop-color="#FDFC47"/>
<stop offset="1" stop-color="#24FE41"/>
</linearGradient>
</defs>
</svg>
