<svg width="17" height="16" viewBox="0 0 17 16" fill="none" xmlns="http://www.w3.org/2000/svg">
<g clip-path="url(#clip0_9_500)">
<path opacity="0.35" d="M6.05678 0.312988C4.91967 0.641789 3.8697 1.21883 2.98258 2.00249C3.05095 2.07681 3.0952 2.1701 3.10953 2.27007C3.14332 2.50184 3.22188 2.76239 3.32828 3.03374C3.97089 2.3963 4.73102 1.88955 5.56658 1.54154C5.69259 1.11477 5.84304 0.696918 6.05678 0.312988ZM10.8166 0.426268C10.7871 0.525137 10.7277 0.612462 10.6467 0.676268C10.463 0.821898 10.2794 1.01922 10.0978 1.24658C10.9673 1.48283 11.783 1.88472 12.5001 2.43018C12.9175 2.32799 13.34 2.24992 13.7638 2.23682H13.799C12.9502 1.42125 11.9318 0.803 10.8166 0.426268ZM8.25998 0.500487C7.86358 0.508922 7.46848 0.548761 7.07838 0.619627C6.97459 0.784237 6.88836 0.967507 6.8069 1.15283C7.25459 1.05766 7.71054 1.00664 8.1682 1.00049C8.19945 1.00028 8.2307 1.00028 8.26195 1.00049C8.5335 1.00099 8.80479 1.01729 9.07445 1.04932C9.17297 0.914342 9.27522 0.782131 9.38109 0.652835C9.00909 0.594835 8.6419 0.502495 8.26389 0.500495L8.25998 0.500487ZM13.7952 3.23679C13.6761 3.24054 13.5544 3.26765 13.4338 3.28562C13.9576 3.85983 14.382 4.51726 14.6897 5.23092C14.8236 5.24621 14.9571 5.26445 15.0901 5.2856C14.8001 4.5636 14.4973 3.8436 13.9983 3.2426C13.9303 3.2416 13.8632 3.23479 13.7952 3.23679ZM2.49218 3.44968C1.99718 4.08368 1.51101 4.73088 1.29098 5.35988C1.37906 5.52238 1.49147 5.67789 1.60543 5.83254C1.84091 5.1099 2.19252 4.43044 2.64643 3.82084C2.5923 3.69828 2.5409 3.57448 2.49218 3.44968ZM0.505877 6.08248C0.369582 6.62089 0.289725 7.17203 0.267597 7.72698C0.264682 7.79856 0.262729 7.87018 0.261738 7.94182C0.261727 7.94963 0.261727 7.95744 0.261738 7.96526C0.261712 7.97697 0.261712 7.98869 0.261738 8.00041C0.261857 8.07985 0.263159 8.15929 0.265644 8.23869C0.281424 8.6877 0.335 9.13458 0.425804 9.57459C0.524224 9.55248 0.627033 9.56064 0.720724 9.59803C0.940004 9.68515 1.20581 9.74568 1.49611 9.78944C1.34113 9.20568 1.26235 8.60432 1.26173 8.00034C1.26157 7.70191 1.28049 7.40377 1.31838 7.10776C1.01437 6.78835 0.731087 6.45262 0.505877 6.08248ZM15.0289 6.21334C15.183 6.79653 15.2611 7.39721 15.2613 8.00044C15.2612 8.29691 15.2423 8.59308 15.2047 8.88716C15.509 9.20553 15.7938 9.54153 16.0191 9.91256C16.1357 9.45078 16.2109 8.97951 16.2437 8.50436C16.2539 8.35286 16.2598 8.20111 16.2613 8.04928C16.2613 8.04277 16.2613 8.03626 16.2613 8.02975C16.2613 8.01998 16.2613 8.01021 16.2613 8.00045C16.2612 7.92101 16.2599 7.84157 16.2574 7.76217C16.2412 7.3118 16.187 6.86361 16.0953 6.42237C16.0038 6.44309 15.9084 6.43767 15.8199 6.40674C15.5706 6.31805 15.3038 6.25799 15.0289 6.21334ZM14.9195 10.1567C14.6846 10.8836 14.3322 11.5671 13.8765 12.1801C13.9299 12.3008 13.9807 12.4225 14.0288 12.5454C14.4978 11.9454 14.9591 11.3385 15.228 10.6235C15.1407 10.4631 15.032 10.3091 14.9195 10.1567ZM1.4395 10.7251C1.7235 11.4311 2.02191 12.1331 2.5059 12.7231C2.6882 12.7276 2.87624 12.7091 3.06449 12.6879C2.55356 12.1218 2.13859 11.4759 1.83599 10.7758C1.70348 10.7618 1.57128 10.7449 1.4395 10.7251ZM13.1955 12.9653C12.5546 13.6021 11.7966 14.1088 10.9631 14.4575C10.8388 14.8836 10.6893 15.3009 10.4787 15.6841C11.6122 15.3546 12.6587 14.7783 13.5432 13.9966C13.4752 13.9228 13.431 13.8303 13.4163 13.731C13.3824 13.4988 13.3025 13.2372 13.1955 12.9653ZM4.0236 13.5708C3.59413 13.6758 3.16032 13.7546 2.7248 13.7641C3.5742 14.5799 4.59326 15.1982 5.7092 15.5746C5.73869 15.4758 5.79804 15.3884 5.87912 15.3246C6.06227 15.1795 6.24508 14.9808 6.426 14.7543C5.55652 14.5181 4.74073 14.1162 4.0236 13.5708ZM9.7248 14.8462C9.24394 14.9488 8.7536 15.0006 8.2619 15.0005C7.99103 15.0005 7.7204 14.9849 7.45135 14.9536C7.3528 15.0879 7.25054 15.2195 7.14471 15.3481C7.51771 15.4061 7.88485 15.4985 8.26381 15.5005C8.66381 15.4985 9.06122 15.4454 9.45521 15.3794C9.55814 15.2144 9.64404 15.0321 9.7248 14.8462Z" fill="url(#paint0_linear_9_500)"/>
<path d="M8.26191 0.000488281C7.75222 0.00255995 7.2439 0.0534592 6.74391 0.152488C5.96691 1.25249 5.69091 2.82849 5.72391 4.19549C6.495 3.6821 7.40366 3.41467 8.32991 3.42849C8.79291 2.22049 9.50691 0.940488 10.3359 0.283488C9.65996 0.0987272 8.96266 0.00357964 8.26191 0.000488281ZM2.61591 2.34249C1.69191 3.26649 1.01391 4.37249 0.698912 5.38949C1.26391 6.59749 2.48891 7.63949 3.68791 8.29349C3.63184 7.36851 3.8578 6.4483 4.33591 5.65449C3.52191 4.65049 2.76791 3.39049 2.61591 2.34249ZM13.7799 2.73649C12.5799 2.77449 11.3029 3.27649 10.2819 3.90249C11.1101 4.31269 11.7948 4.96389 12.2459 5.77049C13.3829 5.58449 14.7999 5.51249 15.9889 5.93649C15.6719 4.75862 15.0897 3.66885 14.2869 2.75049H14.2849C14.117 2.73591 13.9484 2.73124 13.7799 2.73649ZM6.56691 5.01049C6.40691 5.02649 6.26191 5.17849 6.26191 5.32849V10.6725C6.26191 10.9245 6.51991 11.0825 6.72691 10.9555L11.1069 8.28349C11.1544 8.2531 11.1935 8.21125 11.2205 8.16179C11.2476 8.11234 11.2618 8.05687 11.2618 8.00049C11.2618 7.94411 11.2476 7.88864 11.2205 7.83919C11.1935 7.78973 11.1544 7.74788 11.1069 7.71749L6.72691 5.04549C6.67861 5.01722 6.6226 5.00497 6.56691 5.01049ZM12.8249 7.70049C12.8316 7.80135 12.8349 7.90241 12.8349 8.00349C12.8332 8.82845 12.6086 9.63763 12.1849 10.3455C13.0019 11.3505 13.7569 12.6095 13.9099 13.6575C14.7717 12.795 15.425 11.747 15.8199 10.5935C15.2549 9.38049 14.0269 8.35449 12.8249 7.70049ZM0.534912 10.0635C0.851796 11.2417 1.43397 12.3318 2.23691 13.2505C2.23758 13.2505 2.23825 13.2505 2.23891 13.2505C3.56691 13.3655 5.06391 12.8185 6.22891 12.1075C5.39759 11.6957 4.71095 11.0412 4.25991 10.2305C2.98291 10.4335 1.51791 10.4545 0.534912 10.0635ZM10.7989 11.8095C10.0465 12.3136 9.16157 12.5833 8.25591 12.5845C8.23391 12.5846 8.21191 12.5846 8.18991 12.5845C7.72791 13.7885 7.01591 15.0625 6.18991 15.7175C6.86522 15.9021 7.56184 15.9972 8.26191 16.0005C8.77567 15.9984 9.28804 15.9468 9.79191 15.8465C10.5579 14.7515 10.8329 13.1765 10.7989 11.8095Z" fill="url(#paint1_linear_9_500)"/>
</g>
<defs>
<linearGradient id="paint0_linear_9_500" x1="0.261719" y1="7.99854" x2="16.2613" y2="7.99854" gradientUnits="userSpaceOnUse">
<stop stop-color="#FDFC47"/>
<stop offset="1" stop-color="#24FE41"/>
</linearGradient>
<linearGradient id="paint1_linear_9_500" x1="0.534912" y1="8.00049" x2="15.9889" y2="8.00049" gradientUnits="userSpaceOnUse">
<stop stop-color="#FDFC47"/>
<stop offset="1" stop-color="#24FE41"/>
</linearGradient>
<clipPath id="clip0_9_500">
<rect width="16" height="16" fill="white" transform="translate(0.261963 0.000488281)"/>
</clipPath>
</defs>
</svg>
