<svg width="17" height="16" viewBox="0 0 17 16" fill="none" xmlns="http://www.w3.org/2000/svg">
<path d="M5.25204 1.00049C3.99404 1.01549 3.07307 0.970498 2.32007 1.3855C1.93106 1.6078 1.63423 1.96171 1.48306 2.38348C1.31806 2.82148 1.25806 3.34349 1.25806 4.00049V13.0005C1.25806 13.6585 1.31806 14.1795 1.48306 14.6175C1.64706 15.0565 1.94407 15.4065 2.32007 15.6135C3.07307 16.0285 3.99404 15.9855 5.25204 16.0005H10.2641C11.5221 15.9855 12.443 16.0305 13.196 15.6155C13.5854 15.3934 13.8826 15.0394 14.0341 14.6175C14.1981 14.1795 14.2581 13.6575 14.2581 13.0005V4.00049C14.2581 3.34249 14.1981 2.82148 14.0331 2.38348C13.8819 1.96223 13.585 1.60894 13.196 1.38748C12.443 0.972482 11.5221 1.01549 10.2641 1.00049H5.25604H5.25204ZM5.25806 2.00049H10.2581C11.5171 2.01549 12.348 2.06048 12.713 2.26248C12.897 2.36248 13.0001 2.4755 13.0981 2.7345C13.1951 2.9945 13.2581 3.40849 13.2581 4.00049V13.0005C13.2581 13.5925 13.1951 14.0065 13.0981 14.2665C13.0001 14.5265 12.896 14.6375 12.713 14.7385C12.347 14.9405 11.5171 14.9855 10.2581 15.0005H5.25806C3.99906 14.9855 3.16804 14.9405 2.80304 14.7385C2.61904 14.6385 2.51606 14.5255 2.41806 14.2665C2.32106 14.0065 2.25806 13.5925 2.25806 13.0005V4.00049C2.25806 3.40849 2.32106 2.9945 2.41806 2.7345C2.51606 2.4745 2.62105 2.36348 2.80505 2.26248C3.17105 2.06048 3.99906 2.01549 5.25806 2.00049Z" fill="url(#paint0_linear_9_532)"/>
<path opacity="0.5" d="M3.59204 11.0005C3.40704 11.0005 3.25806 11.1125 3.25806 11.2505V13.7505C3.25806 13.8895 3.40704 14.0005 3.59204 14.0005H5.92505C6.10905 14.0005 6.25806 13.8885 6.25806 13.7505V11.2505C6.25806 11.1115 6.10905 11.0005 5.92505 11.0005H3.59204Z" fill="url(#paint1_linear_9_532)"/>
<path opacity="0.5" d="M12.012 13.0005H9.51196C9.37389 13.0005 9.26196 13.1124 9.26196 13.2505V13.7505C9.26196 13.8886 9.37389 14.0005 9.51196 14.0005H12.012C12.15 14.0005 12.262 13.8886 12.262 13.7505V13.2505C12.262 13.1124 12.15 13.0005 12.012 13.0005Z" fill="url(#paint2_linear_9_532)"/>
<path opacity="0.5" d="M12.012 11.0005H9.51196C9.37389 11.0005 9.26196 11.1124 9.26196 11.2505V11.7505C9.26196 11.8886 9.37389 12.0005 9.51196 12.0005H12.012C12.15 12.0005 12.262 11.8886 12.262 11.7505V11.2505C12.262 11.1124 12.15 11.0005 12.012 11.0005Z" fill="url(#paint3_linear_9_532)"/>
<path d="M7.20215 2.00049H8.26514V15.0005H7.20215V2.00049Z" fill="url(#paint4_linear_9_532)"/>
<defs>
<linearGradient id="paint0_linear_9_532" x1="1.25806" y1="8.50049" x2="14.2581" y2="8.50049" gradientUnits="userSpaceOnUse">
<stop stop-color="#FDFC47"/>
<stop offset="1" stop-color="#24FE41"/>
</linearGradient>
<linearGradient id="paint1_linear_9_532" x1="3.25806" y1="12.5005" x2="6.25806" y2="12.5005" gradientUnits="userSpaceOnUse">
<stop stop-color="#FDFC47"/>
<stop offset="1" stop-color="#24FE41"/>
</linearGradient>
<linearGradient id="paint2_linear_9_532" x1="9.26196" y1="13.5005" x2="12.262" y2="13.5005" gradientUnits="userSpaceOnUse">
<stop stop-color="#FDFC47"/>
<stop offset="1" stop-color="#24FE41"/>
</linearGradient>
<linearGradient id="paint3_linear_9_532" x1="9.26196" y1="11.5005" x2="12.262" y2="11.5005" gradientUnits="userSpaceOnUse">
<stop stop-color="#FDFC47"/>
<stop offset="1" stop-color="#24FE41"/>
</linearGradient>
<linearGradient id="paint4_linear_9_532" x1="7.20215" y1="8.50049" x2="8.26514" y2="8.50049" gradientUnits="userSpaceOnUse">
<stop stop-color="#FDFC47"/>
<stop offset="1" stop-color="#24FE41"/>
</linearGradient>
</defs>
</svg>
