<svg width="17" height="16" viewBox="0 0 17 16" fill="none" xmlns="http://www.w3.org/2000/svg">
<g clip-path="url(#clip0_9_591)">
<path d="M10.784 5.8305C11.104 6.2205 11.304 6.7205 11.304 7.2605C11.304 8.5105 10.294 9.5205 9.04395 9.5205C8.50395 9.5205 8.00396 9.3205 7.61396 9.0005C7.75233 9.57551 8.07999 10.0873 8.54428 10.4537C9.00857 10.82 9.58253 11.0197 10.174 11.0205C11.624 11.0205 12.804 9.8405 12.804 8.3905C12.804 7.1505 11.944 6.1005 10.784 5.8305ZM5.80396 8.6405L5.30396 7.1405L3.80396 6.6405L5.30396 6.1405L5.80396 4.6405L6.30396 6.1405L7.80396 6.6405L6.30396 7.1405L5.80396 8.6405Z" fill="url(#paint0_linear_9_591)"/>
<path d="M8.30396 4.50049C8.30396 4.6331 8.25128 4.76027 8.15751 4.85404C8.06374 4.94781 7.93656 5.00049 7.80396 5.00049C7.67135 5.00049 7.54417 4.94781 7.4504 4.85404C7.35663 4.76027 7.30396 4.6331 7.30396 4.50049C7.30396 4.36788 7.35663 4.2407 7.4504 4.14693C7.54417 4.05317 7.67135 4.00049 7.80396 4.00049C7.93656 4.00049 8.06374 4.05317 8.15751 4.14693C8.25128 4.2407 8.30396 4.36788 8.30396 4.50049ZM13.304 4.50049C13.304 4.6331 13.2513 4.76027 13.1575 4.85404C13.0637 4.94781 12.9366 5.00049 12.804 5.00049C12.6713 5.00049 12.5442 4.94781 12.4504 4.85404C12.3566 4.76027 12.304 4.6331 12.304 4.50049C12.304 4.36788 12.3566 4.2407 12.4504 4.14693C12.5442 4.05317 12.6713 4.00049 12.804 4.00049C12.9366 4.00049 13.0637 4.05317 13.1575 4.14693C13.2513 4.2407 13.304 4.36788 13.304 4.50049ZM9.30396 6.50049C9.30396 6.6331 9.25128 6.76027 9.15751 6.85404C9.06374 6.94781 8.93656 7.00049 8.80396 7.00049C8.67135 7.00049 8.54417 6.94781 8.4504 6.85404C8.35663 6.76027 8.30396 6.6331 8.30396 6.50049C8.30396 6.36788 8.35663 6.2407 8.4504 6.14693C8.54417 6.05317 8.67135 6.00049 8.80396 6.00049C8.93656 6.00049 9.06374 6.05317 9.15751 6.14693C9.25128 6.2407 9.30396 6.36788 9.30396 6.50049ZM5.30396 9.50049C5.30396 9.6331 5.25128 9.76027 5.15751 9.85404C5.06374 9.94781 4.93656 10.0005 4.80396 10.0005C4.67135 10.0005 4.54417 9.94781 4.4504 9.85404C4.35663 9.76027 4.30396 9.6331 4.30396 9.50049C4.30396 9.36788 4.35663 9.2407 4.4504 9.14693C4.54417 9.05317 4.67135 9.00049 4.80396 9.00049C4.93656 9.00049 5.06374 9.05317 5.15751 9.14693C5.25128 9.2407 5.30396 9.36788 5.30396 9.50049Z" fill="url(#paint1_linear_9_591)"/>
<path d="M4.80396 14.0005H11.804C12.081 14.0005 12.304 14.2235 12.304 14.5005C12.304 14.7775 12.081 15.0005 11.804 15.0005H4.80396C4.52696 15.0005 4.30396 14.7775 4.30396 14.5005C4.30396 14.2235 4.52696 14.0005 4.80396 14.0005Z" fill="url(#paint2_linear_9_591)"/>
<path d="M2.30396 2.00049C1.19596 2.00049 0.303955 2.89249 0.303955 4.00049V11.0005C0.303955 12.1085 1.19596 13.0005 2.30396 13.0005H14.304C15.412 13.0005 16.304 12.1085 16.304 11.0005V4.00049C16.304 2.89249 15.412 2.00049 14.304 2.00049H2.30396ZM2.30396 3.00049H14.304C14.858 3.00049 15.304 3.44649 15.304 4.00049V11.0005C15.304 11.5545 14.858 12.0005 14.304 12.0005H2.30396C1.74996 12.0005 1.30396 11.5545 1.30396 11.0005V4.00049C1.30396 3.44649 1.74996 3.00049 2.30396 3.00049Z" fill="url(#paint3_linear_9_591)"/>
</g>
<defs>
<linearGradient id="paint0_linear_9_591" x1="3.80396" y1="7.8305" x2="12.804" y2="7.8305" gradientUnits="userSpaceOnUse">
<stop stop-color="#FDFC47"/>
<stop offset="1" stop-color="#24FE41"/>
</linearGradient>
<linearGradient id="paint1_linear_9_591" x1="4.30396" y1="7.00049" x2="13.304" y2="7.00049" gradientUnits="userSpaceOnUse">
<stop stop-color="#FDFC47"/>
<stop offset="1" stop-color="#24FE41"/>
</linearGradient>
<linearGradient id="paint2_linear_9_591" x1="4.30396" y1="14.5005" x2="12.304" y2="14.5005" gradientUnits="userSpaceOnUse">
<stop stop-color="#FDFC47"/>
<stop offset="1" stop-color="#24FE41"/>
</linearGradient>
<linearGradient id="paint3_linear_9_591" x1="0.303955" y1="7.50049" x2="16.304" y2="7.50049" gradientUnits="userSpaceOnUse">
<stop stop-color="#FDFC47"/>
<stop offset="1" stop-color="#24FE41"/>
</linearGradient>
<clipPath id="clip0_9_591">
<rect width="16" height="16" fill="white" transform="translate(0.303955 0.000488281)"/>
</clipPath>
</defs>
</svg>
