<svg width="17" height="16" viewBox="0 0 17 16" fill="none" xmlns="http://www.w3.org/2000/svg">
<g clip-path="url(#clip0_9_577)">
<path d="M2.55396 4.00049H4.05396C4.19203 4.00049 4.30396 4.11242 4.30396 4.25049V5.75049C4.30396 5.88856 4.19203 6.00049 4.05396 6.00049H2.55396C2.41589 6.00049 2.30396 5.88856 2.30396 5.75049V4.25049C2.30396 4.11242 2.41589 4.00049 2.55396 4.00049ZM5.55396 4.00049H7.05396C7.19203 4.00049 7.30396 4.11242 7.30396 4.25049V5.75049C7.30396 5.88856 7.19203 6.00049 7.05396 6.00049H5.55396C5.41589 6.00049 5.30396 5.88856 5.30396 5.75049V4.25049C5.30396 4.11242 5.41589 4.00049 5.55396 4.00049ZM8.55396 4.00049H10.054C10.192 4.00049 10.304 4.11242 10.304 4.25049V5.75049C10.304 5.88856 10.192 6.00049 10.054 6.00049H8.55396C8.41589 6.00049 8.30396 5.88856 8.30396 5.75049V4.25049C8.30396 4.11242 8.41589 4.00049 8.55396 4.00049ZM11.554 4.00049H13.054C13.192 4.00049 13.304 4.11242 13.304 4.25049V5.75049C13.304 5.88856 13.192 6.00049 13.054 6.00049H11.554C11.4159 6.00049 11.304 5.88856 11.304 5.75049V4.25049C11.304 4.11242 11.4159 4.00049 11.554 4.00049ZM3.55396 7.00049H5.05396C5.19203 7.00049 5.30396 7.11242 5.30396 7.25049V8.75049C5.30396 8.88856 5.19203 9.00049 5.05396 9.00049H3.55396C3.41589 9.00049 3.30396 8.88856 3.30396 8.75049V7.25049C3.30396 7.11242 3.41589 7.00049 3.55396 7.00049ZM6.55396 7.00049H8.05396C8.19203 7.00049 8.30396 7.11242 8.30396 7.25049V8.75049C8.30396 8.88856 8.19203 9.00049 8.05396 9.00049H6.55396C6.41589 9.00049 6.30396 8.88856 6.30396 8.75049V7.25049C6.30396 7.11242 6.41589 7.00049 6.55396 7.00049ZM9.55396 7.00049H11.054C11.192 7.00049 11.304 7.11242 11.304 7.25049V8.75049C11.304 8.88856 11.192 9.00049 11.054 9.00049H9.55396C9.41589 9.00049 9.30396 8.88856 9.30396 8.75049V7.25049C9.30396 7.11242 9.41589 7.00049 9.55396 7.00049ZM12.554 7.00049H14.054C14.192 7.00049 14.304 7.11242 14.304 7.25049V8.75049C14.304 8.88856 14.192 9.00049 14.054 9.00049H12.554C12.4159 9.00049 12.304 8.88856 12.304 8.75049V7.25049C12.304 7.11242 12.4159 7.00049 12.554 7.00049ZM2.55396 10.0005H4.05396C4.19203 10.0005 4.30396 10.1124 4.30396 10.2505V11.7505C4.30396 11.8886 4.19203 12.0005 4.05396 12.0005H2.55396C2.41589 12.0005 2.30396 11.8886 2.30396 11.7505V10.2505C2.30396 10.1124 2.41589 10.0005 2.55396 10.0005ZM5.55396 10.0005H11.054C11.192 10.0005 11.304 10.1124 11.304 10.2505V11.7505C11.304 11.8886 11.192 12.0005 11.054 12.0005H5.55396C5.41589 12.0005 5.30396 11.8886 5.30396 11.7505V10.2505C5.30396 10.1124 5.41589 10.0005 5.55396 10.0005ZM12.554 10.0005H14.054C14.192 10.0005 14.304 10.1124 14.304 10.2505V11.7505C14.304 11.8886 14.192 12.0005 14.054 12.0005H12.554C12.4159 12.0005 12.304 11.8886 12.304 11.7505V10.2505C12.304 10.1124 12.4159 10.0005 12.554 10.0005Z" fill="url(#paint0_linear_9_577)"/>
<path d="M2.30396 2.00049C1.19596 2.00049 0.303955 2.89249 0.303955 4.00049V12.0005C0.303955 13.1085 1.19596 14.0005 2.30396 14.0005H14.304C15.412 14.0005 16.304 13.1085 16.304 12.0005V4.00049C16.304 2.89249 15.412 2.00049 14.304 2.00049H2.30396ZM2.30396 3.00049H14.304C14.858 3.00049 15.304 3.44649 15.304 4.00049V12.0005C15.304 12.5545 14.858 13.0005 14.304 13.0005H2.30396C1.74996 13.0005 1.30396 12.5545 1.30396 12.0005V4.00049C1.30396 3.44649 1.74996 3.00049 2.30396 3.00049Z" fill="url(#paint1_linear_9_577)"/>
</g>
<defs>
<linearGradient id="paint0_linear_9_577" x1="2.30396" y1="8.00049" x2="14.304" y2="8.00049" gradientUnits="userSpaceOnUse">
<stop stop-color="#FDFC47"/>
<stop offset="1" stop-color="#24FE41"/>
</linearGradient>
<linearGradient id="paint1_linear_9_577" x1="0.303955" y1="8.00049" x2="16.304" y2="8.00049" gradientUnits="userSpaceOnUse">
<stop stop-color="#FDFC47"/>
<stop offset="1" stop-color="#24FE41"/>
</linearGradient>
<clipPath id="clip0_9_577">
<rect width="16" height="16" fill="white" transform="translate(0.303955 0.000488281)"/>
</clipPath>
</defs>
</svg>
