<svg width="17" height="16" viewBox="0 0 17 16" fill="none" xmlns="http://www.w3.org/2000/svg">
<g clip-path="url(#clip0_9_597)">
<path d="M15.304 2.50049C15.304 1.12549 14.179 0.000488281 12.804 0.000488281C12.1416 0.00259783 11.5069 0.266667 11.0385 0.735052C10.5701 1.20344 10.3061 1.8381 10.304 2.50049C10.304 3.87549 11.429 5.00049 12.804 5.00049C14.179 5.00049 15.304 3.87549 15.304 2.50049ZM15.304 12.5005C15.304 11.1255 14.179 10.0005 12.804 10.0005C12.1416 10.0026 11.5069 10.2667 11.0385 10.7351C10.5701 11.2034 10.3061 11.8381 10.304 12.5005C10.304 13.8755 11.429 15.0005 12.804 15.0005C14.179 15.0005 15.304 13.8755 15.304 12.5005ZM14.304 2.50049C14.304 3.33449 13.638 4.00049 12.804 4.00049C11.97 4.00049 11.304 3.33449 11.304 2.50049C11.304 1.66649 11.97 1.00049 12.804 1.00049C13.638 1.00049 14.304 1.66649 14.304 2.50049ZM14.304 12.5005C14.304 13.3345 13.638 14.0005 12.804 14.0005C11.97 14.0005 11.304 13.3345 11.304 12.5005C11.304 11.6665 11.97 11.0005 12.804 11.0005C13.638 11.0005 14.304 11.6665 14.304 12.5005ZM10.038 4.61049C9.83225 4.34506 9.66588 4.05138 9.54395 3.73849L5.69096 5.88149C5.45879 5.60697 5.16988 5.38606 4.84411 5.23397C4.51834 5.08187 4.16347 5.00222 3.80396 5.00049C3.14156 5.0026 2.5069 5.26667 2.03852 5.73505C1.57013 6.20344 1.30606 6.8381 1.30396 7.50049C1.30396 8.87549 2.42896 10.0005 3.80396 10.0005C4.55896 10.0005 5.23096 9.65349 5.69096 9.12049L9.54395 11.2625C9.66595 10.9465 9.83396 10.6565 10.038 10.3915L6.17796 8.24649C6.25096 8.01049 6.30396 7.76149 6.30396 7.50049C6.30396 7.23949 6.25196 6.99149 6.17696 6.75449L10.038 4.61049ZM5.30396 7.50049C5.30396 8.33449 4.63796 9.00049 3.80396 9.00049C2.96996 9.00049 2.30396 8.33449 2.30396 7.50049C2.30396 6.66649 2.96996 6.00049 3.80396 6.00049C4.63796 6.00049 5.30396 6.66649 5.30396 7.50049Z" fill="url(#paint0_linear_9_597)"/>
</g>
<defs>
<linearGradient id="paint0_linear_9_597" x1="1.30396" y1="7.50049" x2="15.304" y2="7.50049" gradientUnits="userSpaceOnUse">
<stop stop-color="#FDFC47"/>
<stop offset="1" stop-color="#24FE41"/>
</linearGradient>
<clipPath id="clip0_9_597">
<rect width="16" height="16" fill="white" transform="translate(0.303955 0.000488281)"/>
</clipPath>
</defs>
</svg>
