<svg width="17" height="16" viewBox="0 0 17 16" fill="none" xmlns="http://www.w3.org/2000/svg">
<path d="M9.30006 2.00049V13.0125H10.304V13.0008H12.304C13.966 13.0008 15.304 11.6628 15.304 10.0008C15.304 8.33877 13.966 7.00077 12.304 7.00077H10.304V2.00077L9.30006 2.00049ZM2.30396 4.00049V5.00439H4.30396V5.00048C5.41196 5.00048 6.30396 5.89248 6.30396 7.00048H4.30396C2.64196 7.00048 1.30396 8.33848 1.30396 10.0005C1.30396 11.6625 2.64196 13.0005 4.30396 13.0005H6.30396V13.0239H7.30786V7.00052H7.30395C7.30395 5.33852 5.96595 4.00052 4.30395 4.00052L2.30396 4.00049ZM4.30396 8.00049H6.30396V10.0005V12.0005H4.30396C3.19596 12.0005 2.30396 11.1085 2.30396 10.0005C2.30396 8.89249 3.19596 8.00049 4.30396 8.00049ZM10.304 8.00049H12.304C13.412 8.00049 14.304 8.89249 14.304 10.0005C14.304 11.1085 13.412 12.0005 12.304 12.0005H10.304V8.00049Z" fill="url(#paint0_linear_9_573)"/>
<defs>
<linearGradient id="paint0_linear_9_573" x1="1.30396" y1="7.5122" x2="15.304" y2="7.5122" gradientUnits="userSpaceOnUse">
<stop stop-color="#FDFC47"/>
<stop offset="1" stop-color="#24FE41"/>
</linearGradient>
</defs>
</svg>
