<svg width="17" height="16" viewBox="0 0 17 16" fill="none" xmlns="http://www.w3.org/2000/svg">
<g clip-path="url(#clip0_9_559)">
<path d="M8.2959 0.000488281C3.8719 0.000488281 0.295898 3.57649 0.295898 8.00049C0.295898 12.4245 3.8719 16.0005 8.2959 16.0005C12.7199 16.0005 16.2959 12.4245 16.2959 8.00049C16.2959 3.57649 12.7199 0.000488281 8.2959 0.000488281ZM8.2959 1.00049C12.1659 1.00049 15.2959 4.13049 15.2959 8.00049C15.2959 11.8705 12.1659 15.0005 8.2959 15.0005C4.4259 15.0005 1.2959 11.8705 1.2959 8.00049C1.2959 4.13049 4.4259 1.00049 8.2959 1.00049ZM8.3599 2.50049C7.6469 2.50049 7.0799 3.05549 7.0799 3.75049C7.0799 4.44549 7.6469 5.03149 8.3599 5.03149C9.0729 5.03149 9.6419 4.44549 9.6419 3.75049C9.6419 3.05549 9.0729 2.50049 8.3599 2.50049ZM3.7039 5.09449C3.63986 5.08504 3.57447 5.09588 3.5169 5.12549C3.45473 5.15173 3.40117 5.19488 3.36228 5.25003C3.3234 5.30518 3.30074 5.37012 3.2969 5.43749C3.2959 5.57249 3.3919 5.68749 3.5169 5.75049L6.9539 6.81249L6.9229 9.28249L5.7039 12.9375C5.5869 13.1045 5.6229 13.2955 5.7979 13.4075C5.9729 13.5175 6.2439 13.4795 6.3599 13.3135L8.2979 9.37549L10.2349 13.3135C10.2851 13.3958 10.3657 13.4551 10.4593 13.4785C10.5528 13.5019 10.6519 13.4875 10.7349 13.4385C10.9169 13.3385 10.9949 13.1415 10.8919 12.9685L9.7039 9.28149L9.6419 7.00049L13.1419 5.75049C13.2089 5.70211 13.2576 5.6326 13.2803 5.55315C13.303 5.4737 13.2983 5.38893 13.2669 5.31249C13.2059 5.16049 13.0309 5.07549 12.9459 5.08449L8.2979 5.84449L3.7039 5.09449Z" fill="url(#paint0_linear_9_559)"/>
</g>
<defs>
<linearGradient id="paint0_linear_9_559" x1="0.295898" y1="8.00049" x2="16.2959" y2="8.00049" gradientUnits="userSpaceOnUse">
<stop stop-color="#FDFC47"/>
<stop offset="1" stop-color="#24FE41"/>
</linearGradient>
<clipPath id="clip0_9_559">
<rect width="16.002" height="16" fill="white" transform="translate(0.295898 0.000488281)"/>
</clipPath>
</defs>
</svg>
