<svg width="17" height="16" viewBox="0 0 17 16" fill="none" xmlns="http://www.w3.org/2000/svg">
<g clip-path="url(#clip0_9_586)">
<path d="M9.80396 4.00049C9.52696 4.00049 9.30396 4.22349 9.30396 4.50049V6.50049C9.30382 6.56619 9.31667 6.63126 9.34175 6.69199C9.36683 6.75271 9.40365 6.80788 9.45011 6.85434C9.49656 6.90079 9.55174 6.93762 9.61246 6.9627C9.67318 6.98778 9.73826 7.00062 9.80396 7.00049H11.804C12.081 7.00049 12.304 6.77749 12.304 6.50049V4.50049C12.304 4.22349 12.081 4.00049 11.804 4.00049H9.80396ZM10.304 5.00049H11.304V6.00049H10.304V5.00049Z" fill="url(#paint0_linear_9_586)"/>
<path d="M4.80396 14.0005H11.804C12.081 14.0005 12.304 14.2235 12.304 14.5005C12.304 14.7775 12.081 15.0005 11.804 15.0005H4.80396C4.52696 15.0005 4.30396 14.7775 4.30396 14.5005C4.30396 14.2235 4.52696 14.0005 4.80396 14.0005Z" fill="url(#paint1_linear_9_586)"/>
<path d="M2.30396 2.00049C1.19596 2.00049 0.303955 2.89249 0.303955 4.00049V11.0005C0.303955 12.1085 1.19596 13.0005 2.30396 13.0005H14.304C15.412 13.0005 16.304 12.1085 16.304 11.0005V4.00049C16.304 2.89249 15.412 2.00049 14.304 2.00049H2.30396ZM2.30396 3.00049H14.304C14.858 3.00049 15.304 3.44649 15.304 4.00049V11.0005C15.304 11.5545 14.858 12.0005 14.304 12.0005H2.30396C1.74996 12.0005 1.30396 11.5545 1.30396 11.0005V4.00049C1.30396 3.44649 1.74996 3.00049 2.30396 3.00049Z" fill="url(#paint2_linear_9_586)"/>
<path d="M4.30396 6.00049C3.74996 6.00049 3.30396 6.44649 3.30396 7.00049V10.0005C3.30396 10.5545 3.74996 11.0005 4.30396 11.0005H7.30396C7.85796 11.0005 8.30396 10.5545 8.30396 10.0005V7.00049C8.30396 6.44649 7.85796 6.00049 7.30396 6.00049H4.30396ZM4.30396 7.00049H7.30396V10.0005H4.30396V7.00049Z" fill="url(#paint3_linear_9_586)"/>
</g>
<defs>
<linearGradient id="paint0_linear_9_586" x1="9.30396" y1="5.50049" x2="12.304" y2="5.50049" gradientUnits="userSpaceOnUse">
<stop stop-color="#FDFC47"/>
<stop offset="1" stop-color="#24FE41"/>
</linearGradient>
<linearGradient id="paint1_linear_9_586" x1="4.30396" y1="14.5005" x2="12.304" y2="14.5005" gradientUnits="userSpaceOnUse">
<stop stop-color="#FDFC47"/>
<stop offset="1" stop-color="#24FE41"/>
</linearGradient>
<linearGradient id="paint2_linear_9_586" x1="0.303955" y1="7.50049" x2="16.304" y2="7.50049" gradientUnits="userSpaceOnUse">
<stop stop-color="#FDFC47"/>
<stop offset="1" stop-color="#24FE41"/>
</linearGradient>
<linearGradient id="paint3_linear_9_586" x1="3.30396" y1="8.50049" x2="8.30396" y2="8.50049" gradientUnits="userSpaceOnUse">
<stop stop-color="#FDFC47"/>
<stop offset="1" stop-color="#24FE41"/>
</linearGradient>
<clipPath id="clip0_9_586">
<rect width="16" height="16" fill="white" transform="translate(0.303955 0.000488281)"/>
</clipPath>
</defs>
</svg>
