<svg width="17" height="16" viewBox="0 0 17 16" fill="none" xmlns="http://www.w3.org/2000/svg">
<g clip-path="url(#clip0_9_616)">
<path d="M8.02395 3.00049C8.13995 3.31849 8.21096 3.65449 8.25496 4.00049H14.304V12.0005H2.30396V8.72549C1.95118 8.59921 1.61532 8.42993 1.30396 8.22149V12.0005C1.30396 12.5505 1.75396 13.0005 2.30396 13.0005H9.30396L11.304 15.0005L13.304 13.0005H14.304C14.854 13.0005 15.304 12.5505 15.304 12.0005V4.00049C15.304 3.45049 14.854 3.00049 14.304 3.00049H8.02395Z" fill="url(#paint0_linear_9_616)"/>
<path d="M3.80396 1.00049C1.87396 1.00049 0.303955 2.57049 0.303955 4.50049C0.303955 6.43049 1.87396 8.00049 3.80396 8.00049C5.73396 8.00049 7.30396 6.43049 7.30396 4.50049C7.30396 2.57049 5.73396 1.00049 3.80396 1.00049ZM3.30396 2.00049H4.30396V5.00049H3.30396V2.00049ZM3.30396 6.00049H4.30396V7.00049H3.30396V6.00049Z" fill="url(#paint1_linear_9_616)"/>
</g>
<defs>
<linearGradient id="paint0_linear_9_616" x1="1.30396" y1="9.00049" x2="15.304" y2="9.00049" gradientUnits="userSpaceOnUse">
<stop stop-color="#FDFC47"/>
<stop offset="1" stop-color="#24FE41"/>
</linearGradient>
<linearGradient id="paint1_linear_9_616" x1="0.303955" y1="4.50049" x2="7.30396" y2="4.50049" gradientUnits="userSpaceOnUse">
<stop stop-color="#FDFC47"/>
<stop offset="1" stop-color="#24FE41"/>
</linearGradient>
<clipPath id="clip0_9_616">
<rect width="16" height="16" fill="white" transform="translate(0.303955 0.000488281)"/>
</clipPath>
</defs>
</svg>
