<svg width="17" height="16" viewBox="0 0 17 16" fill="none" xmlns="http://www.w3.org/2000/svg">
<g clip-path="url(#clip0_9_644)">
<path d="M7.80593 13.0005C12.4726 13.0005 12.4726 6.00049 7.80593 6.00049C3.13923 6.00049 3.13923 13.0005 7.80593 13.0005ZM7.80593 11.0005C5.80523 10.9998 5.80623 7.99879 7.80693 7.99949C9.80763 8.00019 9.80663 11.0012 7.80593 11.0005ZM5.30593 5.00049C6.63923 5.00049 6.63923 3.00049 5.30593 3.00049C3.97263 3.00049 3.97263 5.00049 5.30593 5.00049ZM10.3059 5.00049C11.6392 5.00049 11.6392 3.00049 10.3059 3.00049C8.97263 3.00049 8.97263 5.00049 10.3059 5.00049Z" fill="url(#paint0_linear_9_644)"/>
<path d="M3.30591 0.000488281C2.19791 0.000488281 1.30591 0.892488 1.30591 2.00049V14.0005C1.30591 15.1085 2.19791 16.0005 3.30591 16.0005H12.365C13.473 16.0005 14.365 15.1085 14.365 14.0005V2.00049C14.365 0.892488 13.473 0.000488281 12.365 0.000488281H3.30591ZM3.30591 1.00049H12.365C12.919 1.00049 13.365 1.44649 13.365 2.00049V14.0005C13.365 14.5545 12.919 15.0005 12.365 15.0005H3.30591C2.75191 15.0005 2.30591 14.5545 2.30591 14.0005V2.00049C2.30591 1.44649 2.75191 1.00049 3.30591 1.00049Z" fill="url(#paint1_linear_9_644)"/>
</g>
<defs>
<linearGradient id="paint0_linear_9_644" x1="4.30591" y1="8.00049" x2="11.306" y2="8.00049" gradientUnits="userSpaceOnUse">
<stop stop-color="#FDFC47"/>
<stop offset="1" stop-color="#24FE41"/>
</linearGradient>
<linearGradient id="paint1_linear_9_644" x1="1.30591" y1="8.00049" x2="14.365" y2="8.00049" gradientUnits="userSpaceOnUse">
<stop stop-color="#FDFC47"/>
<stop offset="1" stop-color="#24FE41"/>
</linearGradient>
<clipPath id="clip0_9_644">
<rect width="16" height="16" fill="white" transform="translate(0.305908 0.000488281)"/>
</clipPath>
</defs>
</svg>
