<svg width="17" height="16" viewBox="0 0 17 16" fill="none" xmlns="http://www.w3.org/2000/svg">
<g clip-path="url(#clip0_9_654)">
<path d="M11.3059 12.0005H16.3059V13.0005H11.3059V12.0005Z" fill="url(#paint0_linear_9_654)"/>
<path d="M13.3059 10.0005H14.3059V15.0005H13.3059V10.0005ZM13.3059 8.00049H14.3059V9.00049H13.3059V8.00049ZM1.30591 8.00049H2.30591V9.00049H1.30591V8.00049ZM13.3059 4.00049H14.3059V5.00049H13.3059V4.00049ZM1.30591 4.00049H2.30591V5.00049H1.30591V4.00049ZM13.3059 2.00049H14.3059V3.00049H13.3059V2.00049ZM1.30591 2.00049H2.30591V3.00049H1.30591V2.00049ZM1.30591 10.0005H2.30591V11.0005H1.30591V10.0005ZM1.30591 12.0005H2.30591V13.0005H1.30591V12.0005ZM3.30591 12.0005H4.30591V13.0005H3.30591V12.0005ZM5.30591 12.0005H6.30591V13.0005H5.30591V12.0005ZM7.30591 12.0005H8.30591V13.0005H7.30591V12.0005ZM3.30591 2.00049H4.30591V3.00049H3.30591V2.00049ZM5.30591 2.00049H6.30591V3.00049H5.30591V2.00049ZM7.30591 2.00049H8.30591V3.00049H7.30591V2.00049ZM11.3059 2.00049H12.3059V3.00049H11.3059V2.00049ZM9.30591 12.0005H10.3059V13.0005H9.30591V12.0005ZM9.30591 2.00049H10.3059V3.00049H9.30591V2.00049ZM13.3059 6.00049H14.3059V7.00049H13.3059V6.00049ZM1.30591 6.00049H2.30591V7.00049H1.30591V6.00049Z" fill="url(#paint1_linear_9_654)"/>
</g>
<defs>
<linearGradient id="paint0_linear_9_654" x1="11.3059" y1="12.5005" x2="16.3059" y2="12.5005" gradientUnits="userSpaceOnUse">
<stop stop-color="#FDFC47"/>
<stop offset="1" stop-color="#24FE41"/>
</linearGradient>
<linearGradient id="paint1_linear_9_654" x1="1.30591" y1="8.50049" x2="14.3059" y2="8.50049" gradientUnits="userSpaceOnUse">
<stop stop-color="#FDFC47"/>
<stop offset="1" stop-color="#24FE41"/>
</linearGradient>
<clipPath id="clip0_9_654">
<rect width="16" height="16" fill="white" transform="translate(0.305908 0.000488281)"/>
</clipPath>
</defs>
</svg>
