<svg width="17" height="16" viewBox="0 0 17 16" fill="none" xmlns="http://www.w3.org/2000/svg">
<g clip-path="url(#clip0_9_658)">
<path d="M4.29991 10.0005C3.04191 9.98549 2.12091 10.0305 1.36891 9.61549C0.979523 9.39337 0.682322 9.03942 0.530908 8.61749C0.365908 8.18049 0.305908 7.65749 0.305908 7.00049V4.00049C0.305908 3.34249 0.365908 2.82149 0.530908 2.38349C0.682322 1.96155 0.979523 1.60761 1.36891 1.38549C2.12091 0.969488 3.04191 1.01549 4.29991 1.00049H8.31191C9.56991 1.01549 10.4909 0.970488 11.2439 1.38549C11.6199 1.59249 11.9169 1.94549 12.0819 2.38349C12.2459 2.82149 12.3059 3.34349 12.3059 4.00049V7.00049C12.3059 7.65849 12.2459 8.17949 12.0809 8.61749C11.9297 9.03926 11.6329 9.39319 11.2439 9.61549C10.4909 10.0315 9.56991 9.98549 8.31191 10.0005H4.30391H4.29991ZM4.30591 9.00049H8.30591C9.56491 8.98549 10.3929 8.94049 10.7589 8.73849C10.9429 8.63849 11.0489 8.52649 11.1459 8.26649C11.2429 8.00649 11.3059 7.59249 11.3059 7.00049V4.00049C11.3059 3.40849 11.2429 2.99449 11.1459 2.73449C11.0479 2.47449 10.9449 2.36349 10.7609 2.26249C10.3959 2.06049 9.56591 2.01549 8.30591 2.00049H4.30591C3.04691 2.01549 2.21591 2.06049 1.85091 2.26249C1.66691 2.36249 1.56391 2.47449 1.46591 2.73449C1.36791 2.99449 1.30591 3.40849 1.30591 4.00049V7.00049C1.30591 7.59249 1.36791 8.00649 1.46591 8.26649C1.56391 8.52649 1.66691 8.63749 1.85091 8.73849C2.21591 8.94049 3.04591 8.98549 4.30591 9.00049Z" fill="url(#paint0_linear_9_658)"/>
<path opacity="0.5" d="M13.3059 5.00049V6.00049H14.3059V6.00449C14.4189 6.01049 14.6179 6.00849 14.7039 6.01849C15.0099 6.05349 15.1119 6.11149 15.1479 6.14749C15.1839 6.18249 15.2409 6.28049 15.2729 6.58249C15.3049 6.88449 15.3059 7.34849 15.3059 7.97749V10.9885C15.3059 11.5835 15.2429 11.9975 15.1459 12.2585C15.0479 12.5185 14.9429 12.6315 14.7589 12.7335C14.3929 12.9355 13.5649 12.9815 12.3059 12.9965H7.30591C6.34791 12.9965 5.80891 12.8545 5.58291 12.7035C5.35791 12.5535 5.30591 12.4115 5.30591 11.9935V11.0005H4.30591V12.0005C4.30791 12.5835 4.50591 13.1905 5.02891 13.5405C5.55291 13.8905 6.26391 14.0005 7.30591 14.0005H12.3119C13.5699 13.9855 14.4909 14.0305 15.2439 13.6135C15.6199 13.4055 15.9169 13.0525 16.0819 12.6115C16.2459 12.1715 16.3059 11.6495 16.3059 10.9885V7.97749C16.3059 7.35049 16.3089 6.87649 16.2659 6.47749C16.2239 6.07749 16.1289 5.71049 15.8549 5.43649C15.5809 5.16149 15.2169 5.06649 14.8179 5.02049C14.6819 5.00449 14.4629 5.00749 14.3059 5.00049H13.3059Z" fill="url(#paint1_linear_9_658)"/>
</g>
<defs>
<linearGradient id="paint0_linear_9_658" x1="0.305908" y1="5.50049" x2="12.3059" y2="5.50049" gradientUnits="userSpaceOnUse">
<stop stop-color="#FDFC47"/>
<stop offset="1" stop-color="#24FE41"/>
</linearGradient>
<linearGradient id="paint1_linear_9_658" x1="4.30591" y1="9.50049" x2="16.306" y2="9.50049" gradientUnits="userSpaceOnUse">
<stop stop-color="#FDFC47"/>
<stop offset="1" stop-color="#24FE41"/>
</linearGradient>
<clipPath id="clip0_9_658">
<rect width="16" height="16" fill="white" transform="translate(0.305908 0.000488281)"/>
</clipPath>
</defs>
</svg>
