<svg width="17" height="16" viewBox="0 0 17 16" fill="none" xmlns="http://www.w3.org/2000/svg">
<g clip-path="url(#clip0_9_662)">
<path d="M9.30591 1.00049V6.00049H10.3059V10.0005L13.3059 5.00049H12.3059L13.8059 1.00049H9.30591ZM5.30591 2.00049V3.00049H7.30591V4.00049H5.80591L3.30591 6.50049V8.00049H2.30591V6.00049H1.30591V12.0005H2.30591V10.0005H3.30591V11.0005C3.30591 12.0005 4.30591 12.0005 4.30591 12.0005H6.30591L7.30591 13.0005H12.3059C12.3059 13.0005 13.3059 13.0005 13.3059 12.0005V10.0005H14.3059V12.0005H16.3059V5.00049H14.3059V7.00049H13.3059L11.3059 10.2755V11.0005H8.30591L7.30591 10.0005H5.30591V7.50049L6.80591 6.00049H8.30591V2.00049H5.30591Z" fill="url(#paint0_linear_9_662)"/>
</g>
<defs>
<linearGradient id="paint0_linear_9_662" x1="1.30591" y1="7.00049" x2="16.3059" y2="7.00049" gradientUnits="userSpaceOnUse">
<stop stop-color="#FDFC47"/>
<stop offset="1" stop-color="#24FE41"/>
</linearGradient>
<clipPath id="clip0_9_662">
<rect width="16" height="16" fill="white" transform="translate(0.305908 0.000488281)"/>
</clipPath>
</defs>
</svg>
