<svg width="17" height="16" viewBox="0 0 17 16" fill="none" xmlns="http://www.w3.org/2000/svg">
<g clip-path="url(#clip0_9_666)">
<path d="M6.95275 1.15613C6.73548 1.15613 6.68659 1.16562 6.54342 1.23593C6.33595 1.33779 6.16065 1.51332 6.06853 1.71141C5.97067 1.9218 5.95295 2.24366 6.02827 2.44159C6.0569 2.51681 6.31887 2.99019 6.61043 3.49359C6.90199 3.99698 7.14121 4.42775 7.14206 4.45086C7.14294 4.47397 6.42429 5.73856 5.54506 7.26106L3.94656 10.0293L1.04426 10.0452L0.880153 10.1218C0.666383 10.2215 0.479613 10.4074 0.383153 10.6165C0.317791 10.7582 0.306033 10.8191 0.305908 11.0162C0.305908 11.2137 0.317208 11.2733 0.382412 11.4127C0.512042 11.6904 0.768362 11.9045 1.05103 11.9711C1.10822 11.9848 3.20923 11.9965 5.79233 11.998L10.4309 12.0005L10.4831 11.9428C10.527 11.8941 10.5349 11.8436 10.5337 11.6214C10.5299 10.9475 10.141 10.304 9.60891 10.0909C9.50947 10.051 9.29719 10.0439 7.85321 10.0316L6.21061 10.0178L6.67946 9.21093C9.59686 4.19103 10.539 2.55743 10.5836 2.44163C10.6247 2.33492 10.6339 2.2568 10.6251 2.08606C10.6052 1.69892 10.4127 1.40491 10.0686 1.23595C9.92549 1.16569 9.87645 1.15614 9.65983 1.15614C9.44583 1.15614 9.3912 1.16647 9.24162 1.23558C9.00441 1.34512 8.86095 1.51371 8.5679 2.02747C8.43366 2.26278 8.31532 2.45532 8.3049 2.45532C8.29458 2.45532 8.17665 2.26317 8.04298 2.02833C7.74853 1.51094 7.62625 1.36626 7.38167 1.24585C7.21653 1.16455 7.17631 1.15613 6.95275 1.15613ZM9.76455 5.00003C9.70661 4.99825 9.55657 5.14569 9.45242 5.30682C9.09149 5.86523 8.94764 7.01402 9.14846 7.73422C9.1866 7.871 9.66014 8.71109 11.2066 11.3853C12.3113 13.2959 13.2573 14.9056 13.3087 14.9629C13.5851 15.2699 14.0422 15.3601 14.4333 15.1846C14.8027 15.0188 15.0333 14.6255 14.999 14.2196C14.9906 14.1199 14.9589 13.9829 14.9286 13.9152C14.8983 13.8475 14.6413 13.3922 14.3575 12.9032L13.8416 12.0143L15.5675 11.9871L15.7316 11.9104C15.9454 11.8107 16.1322 11.6248 16.2286 11.4157C16.294 11.274 16.3057 11.2132 16.3058 11.0161C16.3058 10.8186 16.2947 10.7589 16.2294 10.6195C16.1298 10.4058 15.9437 10.219 15.7346 10.1223L15.5675 10.0452L12.6945 10.0293L11.2455 7.51527C10.4486 6.13237 9.78215 5.00043 9.76455 5.00003ZM2.92045 12.4518C2.76529 12.4522 2.63401 12.4657 2.57921 12.4937C2.52056 12.5238 2.41591 12.6788 2.17334 13.0949C1.6857 13.9314 1.64885 14.015 1.64952 14.2829C1.65052 14.7071 1.88135 15.042 2.28494 15.2049C2.46915 15.2792 2.85183 15.2628 3.04114 15.1724C3.29374 15.0519 3.41163 14.895 3.94497 13.9701L4.44181 13.1085L4.39784 13.0303C4.28089 12.8221 3.9311 12.6153 3.52562 12.5146C3.35892 12.4732 3.11995 12.4515 2.92045 12.4518Z" fill="url(#paint0_linear_9_666)"/>
</g>
<defs>
<linearGradient id="paint0_linear_9_666" x1="0.305908" y1="8.21475" x2="16.3058" y2="8.21475" gradientUnits="userSpaceOnUse">
<stop stop-color="#FDFC47"/>
<stop offset="1" stop-color="#24FE41"/>
</linearGradient>
<clipPath id="clip0_9_666">
<rect width="16" height="16" fill="white" transform="translate(0.305908 0.000488281)"/>
</clipPath>
</defs>
</svg>
