<svg width="17" height="16" viewBox="0 0 17 16" fill="none" xmlns="http://www.w3.org/2000/svg">
<g clip-path="url(#clip0_9_664)">
<path d="M8.30591 0.000488281C3.89191 0.000488281 0.305908 3.58649 0.305908 8.00049C0.305908 12.4145 3.89191 16.0005 8.30591 16.0005C12.7199 16.0005 16.3059 12.4145 16.3059 8.00049C16.3059 3.58649 12.7199 0.000488281 8.30591 0.000488281ZM8.26591 1.00249L8.24591 1.61949L9.16091 1.75649L9.77891 1.15849C10.3815 1.28888 10.9639 1.49906 11.5109 1.78349L11.2959 2.12949L11.9059 2.66949L11.2959 3.17949L11.5339 3.78949L12.8899 3.14549L13.7379 3.78949L13.7819 3.65049C13.9659 3.88249 14.1319 4.12749 14.2859 4.38049L13.4309 4.53549L12.9229 3.99249L11.3649 4.09449L10.4149 5.58649L11.0599 7.17849L13.1609 7.82249L13.5679 10.2975L14.0749 11.5845L14.4329 11.3815C13.8283 12.4772 12.941 13.3909 11.8634 14.0273C10.7859 14.6638 9.5574 14.9999 8.30591 15.0005C4.44391 15.0005 1.30591 11.8625 1.30591 8.00049C1.30591 7.18849 1.45091 6.41149 1.70591 5.68649L1.73991 5.82249L2.82391 6.12749L4.24691 7.17749L4.28091 8.70349L5.19691 9.95749L5.73691 13.3475L6.71991 13.9575L6.44991 12.7035L8.10991 10.3985L8.82191 8.84049L7.16191 7.28049L5.36491 6.43449L4.61991 6.87449L3.73791 5.55149L3.22991 5.78949L2.78991 5.04349L3.56991 4.63749L4.31391 5.07749L5.60291 3.48449L7.46591 2.33249L6.95791 1.38249L5.43291 1.92649L5.24291 1.71549C6.18415 1.25257 7.21701 1.00881 8.26591 1.00249Z" fill="url(#paint0_linear_9_664)"/>
</g>
<defs>
<linearGradient id="paint0_linear_9_664" x1="0.305908" y1="8.00049" x2="16.3059" y2="8.00049" gradientUnits="userSpaceOnUse">
<stop stop-color="#FDFC47"/>
<stop offset="1" stop-color="#24FE41"/>
</linearGradient>
<clipPath id="clip0_9_664">
<rect width="16" height="16" fill="white" transform="translate(0.305908 0.000488281)"/>
</clipPath>
</defs>
</svg>
