<svg width="17" height="16" viewBox="0 0 17 16" fill="none" xmlns="http://www.w3.org/2000/svg">
<path d="M4.72792 9.92628C4.32068 9.92755 4.08594 10.4377 4.34901 10.7485C5.20666 11.7906 6.71501 12.2514 8.22011 12.2641C9.72371 12.2768 11.2773 11.8331 12.2396 10.7856C12.3453 10.6799 12.4049 10.5315 12.3939 10.397C12.3827 10.2599 12.3161 10.145 12.2259 10.063C12.1358 9.98099 12.0158 9.92651 11.8783 9.92823C11.7408 9.92995 11.5946 10.0025 11.4994 10.1216L11.5092 10.1099C10.8297 10.8531 9.52607 11.2751 8.22987 11.2642C6.93527 11.2533 5.68657 10.801 5.12047 10.1138L5.11852 10.1118C5.02366 9.99424 4.881 9.92617 4.72984 9.92627L4.72792 9.92628ZM4.72984 9.92627L4.89393 9.98683L4.82361 9.92628L4.72984 9.92627Z" fill="url(#paint0_linear_9_673)"/>
<path d="M8.26493 2.00049C7.6436 4.14999 7.09763 6.25269 6.95243 8.10209L6.95047 8.10795V8.11381C6.9381 8.34482 6.93353 8.6067 7.00907 8.88334C7.04684 9.02166 7.10536 9.17069 7.22977 9.30912C7.35418 9.44755 7.56012 9.55694 7.76493 9.57279L7.77469 9.57474L9.05989 9.62552C9.06416 9.64692 9.05966 9.63588 9.07356 9.74857C9.19453 11.1679 9.31221 12.6077 9.57551 14.0006H10.638C10.3538 12.6235 10.1975 11.1627 10.0697 9.66267V9.6529C10.0432 9.40236 10.0317 9.18955 9.85871 8.95369C9.68571 8.71783 9.37274 8.63591 9.16144 8.62752L7.97194 8.58065C7.95397 8.49263 7.94091 8.34088 7.9485 8.18026V8.17831C8.08832 6.40001 8.67805 4.22601 9.32741 2.00061L8.26493 2.00049Z" fill="url(#paint1_linear_9_673)"/>
<path d="M4.30591 1.00049C2.64391 1.00049 1.30591 2.33849 1.30591 4.00049V12.0005C1.30591 13.6625 2.64391 15.0005 4.30591 15.0005H12.3059C13.9679 15.0005 15.3059 13.6625 15.3059 12.0005V4.00049C15.3059 2.33849 13.9679 1.00049 12.3059 1.00049H4.30591ZM4.30591 2.00049H12.3059C13.4139 2.00049 14.3059 2.89249 14.3059 4.00049V12.0005C14.3059 13.1085 13.4139 14.0005 12.3059 14.0005H4.30591C3.19791 14.0005 2.30591 13.1085 2.30591 12.0005V4.00049C2.30591 2.89249 3.19791 2.00049 4.30591 2.00049Z" fill="url(#paint2_linear_9_673)"/>
<path d="M5.30591 5.50049C5.30591 5.22435 5.08205 5.00049 4.80591 5.00049C4.52977 5.00049 4.30591 5.22435 4.30591 5.50049V6.50049C4.30591 6.77663 4.52977 7.00049 4.80591 7.00049C5.08205 7.00049 5.30591 6.77663 5.30591 6.50049V5.50049Z" fill="url(#paint3_linear_9_673)"/>
<path d="M12.3059 5.50049C12.3059 5.22435 12.0821 5.00049 11.8059 5.00049C11.5298 5.00049 11.3059 5.22435 11.3059 5.50049V6.50049C11.3059 6.77663 11.5298 7.00049 11.8059 7.00049C12.0821 7.00049 12.3059 6.77663 12.3059 6.50049V5.50049Z" fill="url(#paint4_linear_9_673)"/>
<defs>
<linearGradient id="paint0_linear_9_673" x1="4.23779" y1="11.0953" x2="12.3952" y2="11.0953" gradientUnits="userSpaceOnUse">
<stop stop-color="#FDFC47"/>
<stop offset="1" stop-color="#24FE41"/>
</linearGradient>
<linearGradient id="paint1_linear_9_673" x1="6.94336" y1="8.00053" x2="10.638" y2="8.00053" gradientUnits="userSpaceOnUse">
<stop stop-color="#FDFC47"/>
<stop offset="1" stop-color="#24FE41"/>
</linearGradient>
<linearGradient id="paint2_linear_9_673" x1="1.30591" y1="8.00049" x2="15.3059" y2="8.00049" gradientUnits="userSpaceOnUse">
<stop stop-color="#FDFC47"/>
<stop offset="1" stop-color="#24FE41"/>
</linearGradient>
<linearGradient id="paint3_linear_9_673" x1="4.30591" y1="6.00049" x2="5.30591" y2="6.00049" gradientUnits="userSpaceOnUse">
<stop stop-color="#FDFC47"/>
<stop offset="1" stop-color="#24FE41"/>
</linearGradient>
<linearGradient id="paint4_linear_9_673" x1="11.3059" y1="6.00049" x2="12.3059" y2="6.00049" gradientUnits="userSpaceOnUse">
<stop stop-color="#FDFC47"/>
<stop offset="1" stop-color="#24FE41"/>
</linearGradient>
</defs>
</svg>
