<svg width="17" height="16" viewBox="0 0 17 16" fill="none" xmlns="http://www.w3.org/2000/svg">
<g clip-path="url(#clip0_9_681)">
<path d="M8.30591 0.000488281C3.88191 0.000488281 0.305908 3.57649 0.305908 8.00049C0.305908 12.4245 3.88191 16.0005 8.30591 16.0005C12.7299 16.0005 16.3059 12.4245 16.3059 8.00049C16.3059 3.57649 12.7299 0.000488281 8.30591 0.000488281ZM8.30591 1.00049C12.1759 1.00049 15.3059 4.13049 15.3059 8.00049C15.3059 11.8705 12.1759 15.0005 8.30591 15.0005C4.43591 15.0005 1.30591 11.8705 1.30591 8.00049C1.30591 4.13049 4.43591 1.00049 8.30591 1.00049ZM8.36891 3.00049C7.11691 2.97649 5.80491 3.47049 5.39891 4.43849C5.16491 4.97649 5.39291 5.93849 6.18091 5.93849C6.64091 5.93849 6.83391 5.62349 6.86891 5.34449C6.89491 5.13249 6.82491 4.95649 6.77491 4.78149C6.71791 4.58249 6.94791 4.18849 7.21191 4.03149C7.43291 3.90049 7.67791 3.85249 7.71191 3.84449C8.50691 3.64849 9.28791 4.09949 9.61891 4.62549C9.94891 5.15149 9.57891 5.94249 9.05591 6.71949C8.53291 7.49549 7.99091 8.37649 7.99391 9.31249C7.99391 9.66949 7.93991 9.79349 7.96191 9.93849C7.97991 10.0535 8.36491 10.0545 8.64991 10.0005C8.62491 9.09349 8.81391 8.18649 9.64991 7.56249C10.5329 6.85749 11.3959 5.97849 11.3059 4.93749C11.2859 3.93449 10.1279 3.14449 8.89991 3.03149C8.7237 3.01043 8.54637 3.00008 8.36891 3.00049ZM8.02491 11.2195C7.42191 11.3675 7.06291 12.1335 7.46191 12.6255C7.86991 13.2465 9.01591 13.0785 9.21191 12.3755C9.41591 11.8285 8.90491 11.2105 8.27491 11.2195C8.17991 11.2145 8.11091 11.1985 8.02491 11.2195Z" fill="url(#paint0_linear_9_681)"/>
</g>
<defs>
<linearGradient id="paint0_linear_9_681" x1="0.305908" y1="8.00049" x2="16.3059" y2="8.00049" gradientUnits="userSpaceOnUse">
<stop stop-color="#FDFC47"/>
<stop offset="1" stop-color="#24FE41"/>
</linearGradient>
<clipPath id="clip0_9_681">
<rect width="16" height="16" fill="white" transform="translate(0.305908 0.000488281)"/>
</clipPath>
</defs>
</svg>
