<svg width="17" height="16" viewBox="0 0 17 16" fill="none" xmlns="http://www.w3.org/2000/svg">
<g clip-path="url(#clip0_9_719)">
<path d="M11.6829 5.74548C10.3319 5.74648 9.19991 6.57548 8.62291 7.73448L8.68091 7.72948C8.65491 7.72948 8.63491 7.74648 8.60891 7.74948C8.59591 7.77548 8.56591 7.78848 8.55291 7.81548L8.58091 7.75648C7.30091 7.90548 6.30591 9.01348 6.30591 10.3575C6.30591 11.8015 7.44291 13.0005 8.85791 13.0005H14.3199C15.4219 13.0005 16.3059 12.0655 16.3059 10.9485C16.3059 10.1415 15.8249 9.47248 15.1539 9.14148L15.1589 9.19748V9.20548C15.1579 9.17948 15.1429 9.15748 15.1409 9.13148C15.1109 9.11748 15.0969 9.08248 15.0669 9.06948L15.1329 9.09948C14.9929 7.24348 13.5259 5.74948 11.6859 5.74748H11.7059L11.6939 5.74648L11.6829 5.74548ZM11.6829 6.92348H11.6889C12.9169 6.92748 13.9209 7.93648 13.9809 9.25748V9.25948L14.0229 9.90648L14.6029 10.1515C14.7608 10.2155 14.8954 10.3261 14.989 10.4684C15.0826 10.6107 15.1307 10.7782 15.1269 10.9485V10.9505C15.1319 11.4545 14.7569 11.8235 14.3209 11.8235H8.85891C8.10991 11.8235 7.48391 11.1905 7.48391 10.3575C7.48391 9.56348 8.06391 8.95348 8.76591 8.90248L9.36291 8.85948L9.62291 8.30548C10.0099 7.47148 10.7759 6.92448 11.6829 6.92348Z" fill="url(#paint0_linear_9_719)"/>
<path opacity="0.5" d="M6.47583 1.17053L5.41883 3.00053H3.30583V5.11353L1.47583 6.17053L2.53283 8.00053L1.47583 9.83053L3.30583 10.8875V13.0005H5.41883L6.47583 14.8305L8.30583 13.7735L10.1358 14.8305L11.1928 13.0005H13.3058V11.8955C12.2158 11.9485 11.1018 11.9045 10.0028 11.9085C9.33583 11.8395 8.55683 12.0625 7.99483 11.5885C7.05983 10.9215 7.28983 9.20153 8.44083 8.91253C8.73283 8.77453 9.16983 8.89853 9.36283 8.65453C9.72683 7.77053 10.4808 6.86753 11.5188 6.87953C11.7618 6.87953 12.0098 6.86953 12.2488 6.92453C13.4388 7.21853 14.1268 8.47453 14.0848 9.64353C13.9648 10.0085 14.5208 9.86653 14.5548 10.1535C14.5448 10.1655 14.5308 10.1735 14.5208 10.1865L15.1358 9.83053L14.0788 8.00053L15.1358 6.17053L13.3058 5.11353V3.00053H11.1928L10.1358 1.17053L8.30583 2.22753L6.47583 1.17053Z" fill="url(#paint1_linear_9_719)"/>
</g>
<defs>
<linearGradient id="paint0_linear_9_719" x1="6.30591" y1="9.37298" x2="16.3059" y2="9.37298" gradientUnits="userSpaceOnUse">
<stop stop-color="#FDFC47"/>
<stop offset="1" stop-color="#24FE41"/>
</linearGradient>
<linearGradient id="paint1_linear_9_719" x1="1.47583" y1="8.00053" x2="15.1358" y2="8.00053" gradientUnits="userSpaceOnUse">
<stop stop-color="#FDFC47"/>
<stop offset="1" stop-color="#24FE41"/>
</linearGradient>
<clipPath id="clip0_9_719">
<rect width="16" height="16" fill="white" transform="translate(0.305908 0.000488281)"/>
</clipPath>
</defs>
</svg>
