<svg width="16" height="16" viewBox="0 0 16 16" fill="none" xmlns="http://www.w3.org/2000/svg">
<path fill-rule="evenodd" clip-rule="evenodd" d="M10.2939 5.34699C10.3431 5.34631 10.3919 5.35573 10.4373 5.37465C10.4827 5.39357 10.5238 5.42159 10.5579 5.45699L11.0839 5.98299C11.1559 6.05499 11.1939 6.14299 11.1939 6.24499C11.1946 6.29417 11.1852 6.34297 11.1663 6.38838C11.1473 6.43379 11.1193 6.47483 11.0839 6.50899L7.75592 9.83699C7.72176 9.87239 7.68072 9.90041 7.63531 9.91933C7.58991 9.93825 7.5411 9.94766 7.49192 9.94699C7.44304 9.94756 7.39457 9.9381 7.3495 9.91918C7.30444 9.90026 7.26373 9.87228 7.22992 9.83699L6.70192 9.31099L5.30192 7.91099C5.2667 7.87675 5.23886 7.83566 5.22012 7.79026C5.20137 7.74486 5.19212 7.6961 5.19292 7.64699C5.19225 7.5978 5.20166 7.549 5.22058 7.5036C5.2395 7.45819 5.26752 7.41714 5.30292 7.38299L5.82792 6.85699C5.86221 6.8219 5.90333 6.79422 5.94873 6.77564C5.99414 6.75707 6.04287 6.748 6.09192 6.74899C6.19492 6.74899 6.28192 6.78499 6.35392 6.85699L7.49292 7.99999L10.0329 5.45699C10.0667 5.42169 10.1074 5.39372 10.1525 5.3748C10.1976 5.35588 10.246 5.34641 10.2949 5.34699H10.2939Z" fill="url(#paint0_linear_9_3476)"/>
<path d="M8 1C6.14348 1 4.36301 1.7375 3.05025 3.05025C1.7375 4.36301 1 6.14348 1 8C1 9.85652 1.7375 11.637 3.05025 12.9497C4.36301 14.2625 6.14348 15 8 15C9.85652 15 11.637 14.2625 12.9497 12.9497C14.2625 11.637 15 9.85652 15 8C15 6.14348 14.2625 4.36301 12.9497 3.05025C11.637 1.7375 9.85652 1 8 1ZM8 2C9.5913 2 11.1174 2.63214 12.2426 3.75736C13.3679 4.88258 14 6.4087 14 8C14 9.5913 13.3679 11.1174 12.2426 12.2426C11.1174 13.3679 9.5913 14 8 14C6.4087 14 4.88258 13.3679 3.75736 12.2426C2.63214 11.1174 2 9.5913 2 8C2 6.4087 2.63214 4.88258 3.75736 3.75736C4.88258 2.63214 6.4087 2 8 2Z" fill="url(#paint1_linear_9_3476)"/>
<defs>
<linearGradient id="paint0_linear_9_3476" x1="5.19287" y1="7.64699" x2="11.194" y2="7.64699" gradientUnits="userSpaceOnUse">
<stop stop-color="#FDFC47"/>
<stop offset="1" stop-color="#24FE41"/>
</linearGradient>
<linearGradient id="paint1_linear_9_3476" x1="1" y1="8" x2="15" y2="8" gradientUnits="userSpaceOnUse">
<stop stop-color="#FDFC47"/>
<stop offset="1" stop-color="#24FE41"/>
</linearGradient>
</defs>
</svg>
