<svg width="16" height="16" viewBox="0 0 16 16" fill="none" xmlns="http://www.w3.org/2000/svg">
<g clip-path="url(#clip0_9_3486)">
<path d="M10.478 4.0043C10.4538 4.00522 10.4298 4.00789 10.406 4.0123V4.0203C10.3089 4.046 10.2218 4.10036 10.156 4.1763L7.49998 6.8243L5.84298 5.1763C5.52898 4.6623 4.64298 5.5493 5.15598 5.8633L7.15598 7.8633C7.24882 7.95106 7.37173 7.99997 7.49948 7.99997C7.62724 7.99997 7.75015 7.95106 7.84298 7.8633L10.843 4.8633C10.9156 4.79302 10.9652 4.70238 10.9853 4.60333C11.0054 4.50428 10.995 4.40148 10.9555 4.30846C10.9159 4.21545 10.8491 4.13659 10.7639 4.0823C10.6787 4.028 10.579 4.0008 10.478 4.0043Z" fill="url(#paint0_linear_9_3486)"/>
<path d="M12.5 9C11.5717 9 10.6815 9.36875 10.0251 10.0251C9.36875 10.6815 9 11.5717 9 12.5C9 13.4283 9.36875 14.3185 10.0251 14.9749C10.6815 15.6313 11.5717 16 12.5 16C13.4283 16 14.3185 15.6313 14.9749 14.9749C15.6313 14.3185 16 13.4283 16 12.5C16 11.5717 15.6313 10.6815 14.9749 10.0251C14.3185 9.36875 13.4283 9 12.5 9ZM12 10H13V13H12V10ZM12 14H13V15H12V14Z" fill="url(#paint1_linear_9_3486)"/>
<path d="M7.463 2.28167e-05C5.48029 0.00980428 3.58213 0.804297 2.1836 2.20976C0.785071 3.61522 -2.41272e-05 5.51729 5.56109e-10 7.50002C5.5611e-10 9.48915 0.790176 11.3968 2.1967 12.8033C3.60322 14.2098 5.51088 15 7.5 15C7.90092 15.0001 8.30121 14.968 8.697 14.904C8.50888 14.6072 8.35617 14.2894 8.242 13.957C7.99569 13.9855 7.74795 13.9999 7.5 14C5.77609 14 4.12279 13.3152 2.90381 12.0962C1.68482 10.8772 1 9.22393 1 7.50002C1 5.77612 1.68482 4.12282 2.90381 2.90383C4.12279 1.68484 5.77609 1.00002 7.5 1.00002C8.35359 1.00002 9.19883 1.16815 9.98744 1.49481C10.7761 1.82146 11.4926 2.30025 12.0962 2.90383C12.6998 3.50741 13.1786 4.22396 13.5052 5.01258C13.8319 5.8012 14 6.64643 14 7.50002C13.9999 7.74864 13.9855 7.99705 13.957 8.24402C14.2893 8.35756 14.6071 8.50959 14.904 8.69702C14.9679 8.30123 15 7.90095 15 7.50002C15 5.5109 14.2098 3.60324 12.8033 2.19672C11.3968 0.790199 9.48912 2.28167e-05 7.5 2.28167e-05C7.48767 -7.60557e-06 7.47533 -7.60557e-06 7.463 2.28167e-05Z" fill="url(#paint2_linear_9_3486)"/>
</g>
<defs>
<linearGradient id="paint0_linear_9_3486" x1="4.99951" y1="6.00198" x2="10.9953" y2="6.00198" gradientUnits="userSpaceOnUse">
<stop stop-color="#FDFC47"/>
<stop offset="1" stop-color="#24FE41"/>
</linearGradient>
<linearGradient id="paint1_linear_9_3486" x1="9" y1="9" x2="12.7526" y2="17.4433" gradientUnits="userSpaceOnUse">
<stop stop-color="#FF0500"/>
<stop offset="1" stop-color="#FD3632"/>
</linearGradient>
<linearGradient id="paint2_linear_9_3486" x1="0" y1="7.50001" x2="15" y2="7.50001" gradientUnits="userSpaceOnUse">
<stop stop-color="#FDFC47"/>
<stop offset="1" stop-color="#24FE41"/>
</linearGradient>
<clipPath id="clip0_9_3486">
<rect width="16" height="16" fill="white"/>
</clipPath>
</defs>
</svg>
