<svg width="16" height="16" viewBox="0 0 16 16" fill="none" xmlns="http://www.w3.org/2000/svg">
<g clip-path="url(#clip0_9_3500)">
<path d="M8 0C5.87827 0 3.84344 0.842855 2.34315 2.34315C0.842855 3.84344 0 5.87827 0 8C0 10.1217 0.842855 12.1566 2.34315 13.6569C3.84344 15.1571 5.87827 16 8 16C10.1217 16 12.1566 15.1571 13.6569 13.6569C15.1571 12.1566 16 10.1217 16 8C16 5.87827 15.1571 3.84344 13.6569 2.34315C12.1566 0.842855 10.1217 0 8 0ZM7.90625 1C7.9375 0.999791 7.96875 0.999791 8 1C9.85652 1 11.637 1.7375 12.9497 3.05025C14.2625 4.36301 15 6.14348 15 8C15 9.85652 14.2625 11.637 12.9497 12.9497C11.637 14.2625 9.85652 15 8 15C6.14348 15 4.36301 14.2625 3.05025 12.9497C1.7375 11.637 1 9.85652 1 8C0.999835 6.15962 1.72444 4.39321 3.01698 3.08312C4.30951 1.77303 6.06604 1.02466 7.90625 1Z" fill="url(#paint0_linear_9_3500)"/>
<path d="M5.12882 5.21439C4.5185 5.84348 4.13171 6.65562 4.02791 7.52595C3.92411 8.39628 4.10905 9.27661 4.5543 10.0316L6.5859 7.99999L5.87879 7.29288L5.00595 8.16571C4.98287 7.75308 5.0453 7.34013 5.18932 6.95276C5.33334 6.56539 5.55584 6.21195 5.84288 5.91461C5.85475 5.90254 5.86671 5.89057 5.87879 5.8787C6.31752 5.44063 6.8812 5.14925 7.49231 5.04464C8.10341 4.94003 8.73192 5.02732 9.29138 5.29451L10.0316 4.55426C9.26772 4.10388 8.3758 3.92011 7.49607 4.03186C6.61634 4.14361 5.79868 4.54453 5.17164 5.1716C5.15726 5.18577 5.14298 5.20001 5.12882 5.21439ZM5.96851 11.4458C6.73242 11.8962 7.62434 12.0799 8.50407 11.9682C9.3838 11.8564 10.2015 11.4555 10.8285 10.8285C11.455 10.2013 11.8555 9.38386 11.967 8.50444C12.0785 7.62502 11.8947 6.73347 11.4445 5.96985L9.41427 8.00005L10.1214 8.70716L10.9942 7.83433C11.0177 8.25548 10.9521 8.67683 10.8017 9.07091C10.6513 9.46498 10.4195 9.82291 10.1214 10.1213C9.68264 10.5594 9.11896 10.8508 8.50785 10.9554C7.89675 11.06 7.26824 10.9727 6.70878 10.7055L5.96851 11.4458Z" fill="url(#paint1_linear_9_3500)"/>
</g>
<defs>
<linearGradient id="paint0_linear_9_3500" x1="0" y1="8" x2="16" y2="8" gradientUnits="userSpaceOnUse">
<stop stop-color="#FDFC47"/>
<stop offset="1" stop-color="#24FE41"/>
</linearGradient>
<linearGradient id="paint1_linear_9_3500" x1="3.99976" y1="8.00003" x2="11.9988" y2="8.00003" gradientUnits="userSpaceOnUse">
<stop stop-color="#FDFC47"/>
<stop offset="1" stop-color="#24FE41"/>
</linearGradient>
<clipPath id="clip0_9_3500">
<rect width="16" height="16" fill="white"/>
</clipPath>
</defs>
</svg>
