<svg width="16" height="16" viewBox="0 0 16 16" fill="none" xmlns="http://www.w3.org/2000/svg">
<path fill-rule="evenodd" clip-rule="evenodd" d="M8 1.00201C6.338 1.00201 5 2.34001 5 4.00201V8.00201C5 9.66401 6.338 11.002 8 11.002C9.662 11.002 11 9.66401 11 8.00201V4.00201C11 2.34001 9.662 1.00201 8 1.00201ZM8 2.00201C9.108 2.00201 10 2.89401 10 4.00201V8.00201C10 9.11001 9.108 10.002 8 10.002C6.892 10.002 6 9.11001 6 8.00201V4.00201C6 2.89401 6.892 2.00201 8 2.00201Z" fill="url(#paint0_linear_9_3516)"/>
<path fill-rule="evenodd" clip-rule="evenodd" d="M3.5 6.001C3.223 6.001 3 6.224 3 6.501V8.001C3 10.601 4.967 12.726 7.5 12.976V14H5.5C5.36739 14 5.24021 14.0527 5.14645 14.1464C5.05268 14.2402 5 14.3674 5 14.5C5 14.6326 5.05268 14.7598 5.14645 14.8536C5.24021 14.9473 5.36739 15 5.5 15H10.5C10.6326 15 10.7598 14.9473 10.8536 14.8536C10.9473 14.7598 11 14.6326 11 14.5C11 14.3674 10.9473 14.2402 10.8536 14.1464C10.7598 14.0527 10.6326 14 10.5 14H8.5V12.975C9.73435 12.8537 10.8792 12.2768 11.7112 11.357C12.5432 10.4371 13.0027 9.2403 13 8V6.5C13 6.36739 12.9473 6.24021 12.8536 6.14645C12.7598 6.05268 12.6326 6 12.5 6C12.3674 6 12.2402 6.05268 12.1464 6.14645C12.0527 6.24021 12 6.36739 12 6.5V8C12 10.216 10.216 12 8 12C5.784 12 4 10.216 4 8V6.5C4 6.223 3.777 6.001 3.5 6.001Z" fill="url(#paint1_linear_9_3516)"/>
<path fill-rule="evenodd" clip-rule="evenodd" d="M5 6.00201V8.00201C5 9.66401 6.338 11.002 8 11.002C9.662 11.002 11 9.66401 11 8.00201V6.00201H5Z" fill="url(#paint2_linear_9_3516)"/>
<defs>
<linearGradient id="paint0_linear_9_3516" x1="5" y1="6.00201" x2="11" y2="6.00201" gradientUnits="userSpaceOnUse">
<stop stop-color="#FDFC47"/>
<stop offset="1" stop-color="#24FE41"/>
</linearGradient>
<linearGradient id="paint1_linear_9_3516" x1="3" y1="10.5" x2="13" y2="10.5" gradientUnits="userSpaceOnUse">
<stop stop-color="#FDFC47"/>
<stop offset="1" stop-color="#24FE41"/>
</linearGradient>
<linearGradient id="paint2_linear_9_3516" x1="5" y1="8.50201" x2="11" y2="8.50201" gradientUnits="userSpaceOnUse">
<stop stop-color="#FDFC47"/>
<stop offset="1" stop-color="#24FE41"/>
</linearGradient>
</defs>
</svg>
