<svg width="16" height="16" viewBox="0 0 16 16" fill="none" xmlns="http://www.w3.org/2000/svg">
<g clip-path="url(#clip0_9_3566)">
<path d="M8 0C5.87827 0 3.84344 0.842855 2.34315 2.34315C0.842855 3.84344 0 5.87827 0 8C0.000547015 9.88935 0.669766 11.7175 1.88912 13.1607C3.10847 14.6039 4.79926 15.569 6.662 15.885C6.92457 15.9302 7.18923 15.9622 7.455 15.981C7.6364 15.9935 7.81817 15.9999 8 16C8.53401 15.9999 9.06667 15.9463 9.59 15.84C9.85078 15.7872 10.1088 15.7215 10.363 15.643C11.4145 15.3173 12.3875 14.778 13.221 14.059C13.3366 13.9599 13.4493 13.8575 13.559 13.752C13.5577 13.7493 13.5563 13.7467 13.555 13.744C14.3267 12.9993 14.9409 12.1071 15.3609 11.1203C15.7809 10.1336 15.9983 9.07243 16 8C16 5.87827 15.1571 3.84344 13.6569 2.34315C12.1566 0.842855 10.1217 0 8 0ZM8 1C9.85652 1 11.637 1.7375 12.9497 3.05025C14.2625 4.36301 15 6.14348 15 8C14.9963 9.79094 14.3063 11.5123 13.072 12.81C12.5329 11.9512 11.7849 11.243 10.898 10.7516C10.011 10.2602 9.01399 10.0016 8 10C6.98496 10.0014 5.98687 10.2603 5.09912 10.7524C4.21137 11.2446 3.46299 11.9539 2.924 12.814C1.69019 11.5147 1.00158 9.79177 1 8C1 6.14348 1.7375 4.36301 3.05025 3.05025C4.36301 1.7375 6.14348 1 8 1ZM8 4C7.46957 4 6.96086 4.21071 6.58579 4.58579C6.21071 4.96086 6 5.46957 6 6C6 6.53043 6.21071 7.03914 6.58579 7.41421C6.96086 7.78929 7.46957 8 8 8C8.53043 8 9.03914 7.78929 9.41421 7.41421C9.78929 7.03914 10 6.53043 10 6C10 5.46957 9.78929 4.96086 9.41421 4.58579C9.03914 4.21071 8.53043 4 8 4Z" fill="url(#paint0_linear_9_3566)"/>
</g>
<defs>
<linearGradient id="paint0_linear_9_3566" x1="0" y1="8" x2="16" y2="8" gradientUnits="userSpaceOnUse">
<stop stop-color="#FDFC47"/>
<stop offset="1" stop-color="#24FE41"/>
</linearGradient>
<clipPath id="clip0_9_3566">
<rect width="16" height="16" fill="white"/>
</clipPath>
</defs>
</svg>
