<svg width="16" height="16" viewBox="0 0 16 16" fill="none" xmlns="http://www.w3.org/2000/svg">
<path fill-rule="evenodd" clip-rule="evenodd" d="M2 3C0.892 3 0 3.892 0 5V11C0 12.108 0.892 13 2 13H11C12.108 13 13 12.108 13 11V5C13 3.892 12.108 3 11 3H2ZM2 4H11C11.554 4 12 4.446 12 5V11C12 11.554 11.554 12 11 12H2C1.446 12 1 11.554 1 11V5C1 4.446 1.446 4 2 4Z" fill="url(#paint0_linear_9_3595)"/>
<path d="M10.4529 5H2.54715C2.24497 5 2 5.24438 2 5.54584V10.4542C2 10.7556 2.24497 11 2.54715 11H10.4529C10.755 11 11 10.7556 11 10.4542V5.54584C11 5.24438 10.755 5 10.4529 5Z" fill="url(#paint1_linear_9_3595)"/>
<path fill-rule="evenodd" clip-rule="evenodd" d="M14 6V10C14.5304 10 15.0391 9.78929 15.4142 9.41421C15.7893 9.03914 16 8.53043 16 8C16 7.46957 15.7893 6.96086 15.4142 6.58579C15.0391 6.21071 14.5304 6 14 6Z" fill="url(#paint2_linear_9_3595)"/>
<defs>
<linearGradient id="paint0_linear_9_3595" x1="0" y1="8" x2="13" y2="8" gradientUnits="userSpaceOnUse">
<stop stop-color="#FDFC47"/>
<stop offset="1" stop-color="#24FE41"/>
</linearGradient>
<linearGradient id="paint1_linear_9_3595" x1="2" y1="8" x2="11" y2="8" gradientUnits="userSpaceOnUse">
<stop stop-color="#FDFC47"/>
<stop offset="1" stop-color="#24FE41"/>
</linearGradient>
<linearGradient id="paint2_linear_9_3595" x1="14" y1="8" x2="16" y2="8" gradientUnits="userSpaceOnUse">
<stop stop-color="#FDFC47"/>
<stop offset="1" stop-color="#24FE41"/>
</linearGradient>
</defs>
</svg>
