<svg width="16" height="16" viewBox="0 0 16 16" fill="none" xmlns="http://www.w3.org/2000/svg">
<path d="M6.49611 5C6.98933 5 7.39029 5.14677 7.69921 5.43945C8.00815 5.72671 8.1621 6.09505 8.1621 6.54495C8.1621 6.74007 8.11078 6.93816 8.0078 7.1387C7.90482 7.33924 7.81371 7.48167 7.73241 7.56839C7.65653 7.64969 7.54716 7.75667 7.40624 7.88675L7.36718 7.92777C7.03656 8.22587 6.87108 8.52224 6.87108 8.82035V9.14652H6.10546V8.76371C6.10546 8.51981 6.15678 8.31215 6.25976 8.13871C6.36274 7.95985 6.54452 7.75024 6.80468 7.51176C6.95102 7.37626 7.05365 7.27602 7.11327 7.21098C7.17831 7.14052 7.24115 7.04702 7.30077 6.92778C7.36581 6.80312 7.39843 6.67505 7.39843 6.54497C7.39843 6.29565 7.31689 6.09517 7.15429 5.94341C6.99711 5.79165 6.77793 5.71489 6.49609 5.71489C6.02997 5.71489 5.71055 5.97581 5.53711 6.49614L4.83789 6.20317C4.95171 5.89423 5.1474 5.61699 5.42383 5.37309C5.70567 5.12377 6.06247 5 6.49611 5ZM6.48831 9.8945C6.64549 9.8945 6.77595 9.94821 6.87893 10.0566C6.98733 10.165 7.04104 10.2955 7.04104 10.4472C7.04104 10.599 6.98733 10.7294 6.87893 10.8378C6.77595 10.9462 6.64548 11 6.4883 11C6.33112 11 6.19826 10.9462 6.08986 10.8378C5.98688 10.7294 5.93556 10.599 5.93556 10.4472C5.93556 10.2955 5.98688 10.165 6.08986 10.0566C6.19826 9.94821 6.33113 9.8945 6.48831 9.8945Z" fill="url(#paint0_linear_9_3690)"/>
<path fill-rule="evenodd" clip-rule="evenodd" d="M2 3C0.892 3 0 3.892 0 5V11C0 12.108 0.892 13 2 13H11C12.108 13 13 12.108 13 11V5C13 3.892 12.108 3 11 3H2ZM2 4H11C11.554 4 12 4.446 12 5V11C12 11.554 11.554 12 11 12H2C1.446 12 1 11.554 1 11V5C1 4.446 1.446 4 2 4Z" fill="url(#paint1_linear_9_3690)"/>
<path fill-rule="evenodd" clip-rule="evenodd" d="M14 6V10C14.5304 10 15.0391 9.78929 15.4142 9.41421C15.7893 9.03914 16 8.53043 16 8C16 7.46957 15.7893 6.96086 15.4142 6.58579C15.0391 6.21071 14.5304 6 14 6Z" fill="url(#paint2_linear_9_3690)"/>
<defs>
<linearGradient id="paint0_linear_9_3690" x1="4.83789" y1="5" x2="9.06803" y2="10.2732" gradientUnits="userSpaceOnUse">
<stop stop-color="#FF0500"/>
<stop offset="1" stop-color="#FD3632"/>
</linearGradient>
<linearGradient id="paint1_linear_9_3690" x1="0" y1="8" x2="13" y2="8" gradientUnits="userSpaceOnUse">
<stop stop-color="#FDFC47"/>
<stop offset="1" stop-color="#24FE41"/>
</linearGradient>
<linearGradient id="paint2_linear_9_3690" x1="14" y1="8" x2="16" y2="8" gradientUnits="userSpaceOnUse">
<stop stop-color="#FDFC47"/>
<stop offset="1" stop-color="#24FE41"/>
</linearGradient>
</defs>
</svg>
