<svg width="16" height="16" viewBox="0 0 16 16" fill="none" xmlns="http://www.w3.org/2000/svg">
<path fill-rule="evenodd" clip-rule="evenodd" d="M2 3C0.892 3 0 3.892 0 5V11C0 12.108 0.892 13 2 13H11C12.108 13 13 12.108 13 11V5C13 3.892 12.108 3 11 3H2ZM2 4H11C11.554 4 12 4.446 12 5V11C12 11.554 11.554 12 11 12H2C1.446 12 1 11.554 1 11V5C1 4.446 1.446 4 2 4Z" fill="url(#paint0_linear_9_3645)"/>
<path fill-rule="evenodd" clip-rule="evenodd" d="M2.5 5C2.223 5 2 5.223 2 5.5V10.5C2 10.777 2.223 11 2.5 11H4.9688L5.2188 10H3.5C3.31902 9.99996 3.14143 9.95081 2.98618 9.85779C2.83093 9.76477 2.70384 9.63137 2.61844 9.4718C2.53304 9.31223 2.49255 9.13247 2.50127 8.9517C2.50999 8.77093 2.56761 8.59591 2.66797 8.4453L4.96487 5H2.5ZM7.957 5.29883L7.78122 6H7.99997V5.5C7.99997 5.4282 7.98402 5.36043 7.957 5.29883ZM5.6679 7.55273L5.36907 8H6.48427C6.32212 7.99723 6.16308 7.95506 6.02085 7.87714C5.87863 7.79923 5.75752 7.68789 5.6679 7.55273ZM6.51556 8C6.67771 8.00277 6.83675 8.04494 6.97898 8.12286C7.1212 8.20077 7.24235 8.31211 7.33197 8.44727L7.6308 8H6.51556Z" fill="url(#paint1_linear_9_3645)"/>
<path fill-rule="evenodd" clip-rule="evenodd" d="M14 6V10C14.5304 10 15.0391 9.78929 15.4142 9.41421C15.7893 9.03914 16 8.53043 16 8C16 7.46957 15.7893 6.96086 15.4142 6.58579C15.0391 6.21071 14.5304 6 14 6Z" fill="url(#paint2_linear_9_3645)"/>
<path d="M6.834 4L3.5 9H6.5L5.75 12H6.16602L9.50002 7H6.50002L7.25002 4H6.834Z" fill="url(#paint3_linear_9_3645)"/>
<defs>
<linearGradient id="paint0_linear_9_3645" x1="0" y1="8" x2="13" y2="8" gradientUnits="userSpaceOnUse">
<stop stop-color="#FDFC47"/>
<stop offset="1" stop-color="#24FE41"/>
</linearGradient>
<linearGradient id="paint1_linear_9_3645" x1="2" y1="8" x2="7.99997" y2="8" gradientUnits="userSpaceOnUse">
<stop stop-color="#FDFC47"/>
<stop offset="1" stop-color="#24FE41"/>
</linearGradient>
<linearGradient id="paint2_linear_9_3645" x1="14" y1="8" x2="16" y2="8" gradientUnits="userSpaceOnUse">
<stop stop-color="#FDFC47"/>
<stop offset="1" stop-color="#24FE41"/>
</linearGradient>
<linearGradient id="paint3_linear_9_3645" x1="3.5" y1="8" x2="9.50002" y2="8" gradientUnits="userSpaceOnUse">
<stop stop-color="#FDFC47"/>
<stop offset="1" stop-color="#24FE41"/>
</linearGradient>
</defs>
</svg>
