<svg width="16" height="16" viewBox="0 0 16 16" fill="none" xmlns="http://www.w3.org/2000/svg">
<path d="M7.50001 1C7.22301 1 7.00001 1.223 7.00001 1.5V6.375L5.28101 4.875C4.96901 4.602 4.52401 4.655 4.25101 4.969C4.1186 5.11814 4.05076 5.31372 4.06239 5.51282C4.07401 5.71192 4.16415 5.89828 4.31301 6.031L6.56301 8L4.31301 9.969C4.164 10.1016 4.07368 10.2879 4.06187 10.487C4.05006 10.6861 4.11772 10.8817 4.25001 11.031C4.52401 11.344 4.96901 11.398 5.28101 11.125L7.00101 9.625V14.5C7.00101 14.777 7.22301 15 7.50101 15C7.78301 15 7.93801 14.98 8.15601 14.812L11.688 11.656C11.7947 11.5541 11.8703 11.4241 11.906 11.281C11.9345 11.1902 11.9454 11.0949 11.938 11C11.9331 10.947 11.9224 10.8947 11.906 10.844C11.8703 10.7009 11.7947 10.5709 11.688 10.469L8.87501 7.999L11.688 5.531C11.7947 5.42913 11.8703 5.2991 11.906 5.156C11.9518 5.01393 11.9518 4.86107 11.906 4.719C11.8703 4.5759 11.7947 4.44587 11.688 4.344L8.15601 1.187C7.95701 1.027 7.72901 1 7.50001 1ZM8.00001 3.063L10.094 4.938L8.00001 6.75V3.063ZM8.00001 9.25L10.094 11.063L8.00001 12.938V9.25Z" fill="url(#paint0_linear_9_3694)"/>
<defs>
<linearGradient id="paint0_linear_9_3694" x1="4.06055" y1="8" x2="11.9404" y2="8" gradientUnits="userSpaceOnUse">
<stop stop-color="#FDFC47"/>
<stop offset="1" stop-color="#24FE41"/>
</linearGradient>
</defs>
</svg>
