<svg width="16" height="16" viewBox="0 0 16 16" fill="none" xmlns="http://www.w3.org/2000/svg">
<g clip-path="url(#clip0_9_3705)">
<path d="M6 0C5.446 0 5 0.446 5 1V2H0.5C0.223 2 0 2.223 0 2.5C0 2.777 0.223 3 0.5 3H0.99805L1.54493 14.061C1.60613 15.0765 2.45118 16.0005 3.54293 16.0005H11.457C12.5489 16.0005 13.3938 15.0767 13.455 14.061L14.0019 3H14.5C14.777 3 15 2.777 15 2.5C15 2.223 14.777 2 14.5 2H9.99996V1C9.99996 0.446 9.55396 0 8.99996 0L6 0ZM6 1H9V2H6V1ZM7.5117 5L11 9H9V13H6V9H4L7.5117 5Z" fill="url(#paint0_linear_9_3705)"/>
</g>
<defs>
<linearGradient id="paint0_linear_9_3705" x1="0" y1="8.00025" x2="15" y2="8.00025" gradientUnits="userSpaceOnUse">
<stop stop-color="#FDFC47"/>
<stop offset="1" stop-color="#24FE41"/>
</linearGradient>
<clipPath id="clip0_9_3705">
<rect width="16" height="16" fill="white"/>
</clipPath>
</defs>
</svg>
