<svg width="16" height="16" viewBox="0 0 16 16" fill="none" xmlns="http://www.w3.org/2000/svg">
<path opacity="0.35" d="M11.0159 4C12.5591 5.0513 13.4319 6.3672 13.4319 6.3672C13.5207 6.49952 13.5767 6.65117 13.595 6.80949C13.6134 6.96781 13.5936 7.12822 13.5374 7.27736C13.6906 7.31848 13.8319 7.39547 13.9495 7.50197C13.9455 7.49837 13.9998 7.53556 14.0003 7.53517V3.99997L11.0159 4ZM14.0003 11.3457C13.572 11.5837 13.1212 11.8023 12.6507 12H14.0003V11.3457Z" fill="url(#paint0_linear_9_3707)"/>
<path d="M6.91521 3.72822C6.82625 3.73201 6.76757 3.73755 6.6786 3.74512V3.74723C5.92169 3.81585 5.1875 4.04871 4.5132 4.35988C3.83891 4.67105 3.2254 5.06093 2.7048 5.44148C1.6636 6.20265 1 6.92868 1 6.92868C1 6.92868 1.71523 9.22938 3.5161 10.8116C3.67979 10.9554 3.85178 11.0917 4.03368 11.2214C4.21602 11.3515 4.4071 11.4735 4.6083 11.5848C4.80898 11.6958 5.01784 11.7969 5.23785 11.8848C5.67838 12.0608 6.15726 12.184 6.67865 12.2397C6.87835 12.2624 7.05183 12.2756 7.26383 12.2756C9.46143 12.2756 13.3372 11.0044 15 9.42568C14.7559 9.14648 13.5688 8.50575 13.2783 8.24268C11.5302 9.95378 9.72253 11.3989 7.22583 11.3989C7.02519 11.3989 6.86323 11.3831 6.67867 11.3566C6.10549 11.2748 5.60377 11.0752 5.16397 10.8031C4.72416 10.531 4.34791 10.1862 4.02947 9.81868C3.81759 9.57411 3.63005 9.32053 3.46753 9.06872C3.46718 9.06817 3.46788 9.06716 3.46753 9.06661C3.30516 8.8149 3.16582 8.56661 3.04924 8.33566C3.04891 8.33501 3.04957 8.33419 3.04924 8.33355C2.93283 8.10282 2.83823 7.89027 2.76404 7.70823C2.76358 7.7071 2.7645 7.70724 2.76404 7.70612C2.61594 7.3425 2.54686 7.10339 2.54645 7.10192C2.54745 7.10028 2.74476 6.78077 3.13374 6.36675C3.26373 6.22839 3.41513 6.07999 3.58794 5.92945C3.58864 5.92884 3.58936 5.92794 3.59005 5.92734C3.62939 5.89314 3.6816 5.86022 3.72314 5.82594C4.41161 5.25707 5.39144 4.68884 6.67864 4.57744C6.76666 4.57082 6.82534 4.56432 6.91525 4.56054C9.39115 4.47252 11.0158 6.97314 11.0158 6.97314C11.0158 6.97314 9.26265 9.73424 7.38215 9.73424C7.11052 9.73424 6.89634 9.68443 6.67866 9.60115C6.51534 9.53895 6.36606 9.45739 6.22869 9.36243C6.09217 9.26818 5.9693 9.16072 5.85688 9.04554C5.63133 8.81432 5.45189 8.55245 5.31395 8.30614C5.03807 7.81352 4.92524 7.38295 4.92524 7.38295C4.92524 7.38295 5.71025 6.35685 6.67654 6.48933H6.67865C7.64212 6.62183 7.80755 7.10432 8.38775 8.19843L9.67435 6.96683C9.67435 6.96683 8.73394 5.56833 7.14775 5.56833C6.97645 5.56833 6.8406 5.5832 6.67876 5.60213C6.21832 5.65891 5.80239 5.78833 5.43656 5.9507C5.07136 6.11279 4.75588 6.30794 4.49858 6.49574C3.98265 6.87232 3.69792 7.22035 3.69792 7.22035C3.69792 7.22035 3.79181 7.60228 4.03171 8.10552C4.06012 8.16519 4.10053 8.23302 4.13311 8.29565C4.28393 8.58526 4.47007 8.89559 4.7204 9.1956C4.87253 9.37793 5.04411 9.55485 5.23798 9.71529C5.62568 10.0362 6.10143 10.2937 6.67878 10.4103C6.89457 10.4539 7.09605 10.4779 7.34213 10.4779C10.0252 10.4779 12.6024 6.92672 12.6024 6.92672C12.6024 6.92672 10.3583 3.59662 6.91521 3.72822Z" fill="url(#paint1_linear_9_3707)"/>
<path d="M8 2.00001C7.446 2.00001 7 2.44601 7 3.00001V4.11131L7.375 3.99998L8 4.17967V2.99997H15V13H8V12H7V13C7 13.554 7.446 14 8 14H15C15.554 14 16 13.554 16 13V2.99997C16 2.44597 15.554 1.99997 15 1.99997L8 2.00001Z" fill="url(#paint2_linear_9_3707)"/>
<defs>
<linearGradient id="paint0_linear_9_3707" x1="11.0159" y1="7.99998" x2="14.0003" y2="7.99998" gradientUnits="userSpaceOnUse">
<stop stop-color="#FDFC47"/>
<stop offset="1" stop-color="#24FE41"/>
</linearGradient>
<linearGradient id="paint1_linear_9_3707" x1="1" y1="8.00005" x2="15" y2="8.00005" gradientUnits="userSpaceOnUse">
<stop stop-color="#FDFC47"/>
<stop offset="1" stop-color="#24FE41"/>
</linearGradient>
<linearGradient id="paint2_linear_9_3707" x1="7" y1="7.99997" x2="16" y2="7.99997" gradientUnits="userSpaceOnUse">
<stop stop-color="#FDFC47"/>
<stop offset="1" stop-color="#24FE41"/>
</linearGradient>
</defs>
</svg>
