<svg width="16" height="16" viewBox="0 0 16 16" fill="none" xmlns="http://www.w3.org/2000/svg">
<path fill-rule="evenodd" clip-rule="evenodd" d="M8.5 1C8.36739 1 8.24019 1.05268 8.14642 1.14645C8.05266 1.24021 8 1.36739 8 1.5C8 1.63261 8.05266 1.75979 8.14642 1.85355C8.24019 1.94732 8.36739 2 8.5 2H12.293L7.5 6.793L2.854 2.146C2.76012 2.05225 2.6328 1.99963 2.50012 1.99973C2.36744 1.99982 2.24024 2.05261 2.14648 2.1465C2.05273 2.24039 2.00015 2.36767 2.00024 2.50035C2.00034 2.63303 2.05309 2.76024 2.14697 2.854L7.5 8.207L13 2.707V6.5C13 6.63261 13.0527 6.75979 13.1464 6.85355C13.2402 6.94732 13.3674 7 13.5 7C13.6326 7 13.7598 6.94732 13.8536 6.85355C13.9473 6.75979 14 6.63261 14 6.5V1H8.5Z" fill="url(#paint0_linear_9_3729)"/>
<path opacity="0.4" fill-rule="evenodd" clip-rule="evenodd" d="M1 14C1 15 2 15 2 15H4C4 15 5 15 5 14V13.5C5 12 7 12 7 12H9C9 12 11 12 11 13.5V14C11 15 12 15 12 15H14C14 15 15 15 15 14V13C15 9.5 9.5 10 9.5 10H6.5C6.5 10 1 9.5 1 13V14Z" fill="url(#paint1_linear_9_3729)"/>
<defs>
<linearGradient id="paint0_linear_9_3729" x1="2.00024" y1="4.6035" x2="14" y2="4.6035" gradientUnits="userSpaceOnUse">
<stop stop-color="#FDFC47"/>
<stop offset="1" stop-color="#24FE41"/>
</linearGradient>
<linearGradient id="paint1_linear_9_3729" x1="1" y1="12.4877" x2="15" y2="12.4877" gradientUnits="userSpaceOnUse">
<stop stop-color="#FDFC47"/>
<stop offset="1" stop-color="#24FE41"/>
</linearGradient>
</defs>
</svg>
