<svg width="16" height="16" viewBox="0 0 16 16" fill="none" xmlns="http://www.w3.org/2000/svg">
<path opacity="0.35" d="M3 1C1.892 1 1 1.892 1 3V10C1 11.108 1.892 12 3 12H13C14.108 12 15 11.108 15 10V3C15 1.892 14.108 1 13 1H3ZM3 2H13C13.554 2 14 2.446 14 3V10C14 10.554 13.554 11 13 11H3C2.446 11 2 10.554 2 10V3C2 2.446 2.446 2 3 2ZM1 11V13C1 14.108 1.892 15 3 15H13C14.108 15 15 14.108 15 13V11C15 12.108 14.108 13 13 13H3C1.892 13 1 12.108 1 11Z" fill="url(#paint0_linear_9_3733)"/>
<path opacity="0.35" d="M7.99997 3.933L6.71497 7.417H9.28997L7.99997 3.933ZM7.46597 3H8.53897L11.207 10H10.222L9.58497 8.204H6.42897L5.79197 10H4.79297L7.46597 3Z" fill="url(#paint1_linear_9_3733)"/>
<defs>
<linearGradient id="paint0_linear_9_3733" x1="1" y1="8" x2="15" y2="8" gradientUnits="userSpaceOnUse">
<stop stop-color="#FDFC47"/>
<stop offset="1" stop-color="#24FE41"/>
</linearGradient>
<linearGradient id="paint1_linear_9_3733" x1="4.79297" y1="6.5" x2="11.207" y2="6.5" gradientUnits="userSpaceOnUse">
<stop stop-color="#FDFC47"/>
<stop offset="1" stop-color="#24FE41"/>
</linearGradient>
</defs>
</svg>
