<svg width="16" height="16" viewBox="0 0 16 16" fill="none" xmlns="http://www.w3.org/2000/svg">
<g clip-path="url(#clip0_9_3743)">
<path d="M8 0C5.784 0 4 1.784 4 4V4.885L5 5.885V4C5 2.338 6.338 1 8 1C9.662 1 11 2.338 11 4V6H5.115L6.115 7H12C12.554 7 13 7.446 13 8V13C12.9971 13.2356 12.9099 13.4623 12.754 13.639L13.469 14.353C13.797 13.997 14 13.524 14 13V8C14 6.892 13.108 6 12 6V4C12 1.784 10.216 0 8 0ZM3.44 6.09C3.0252 6.20895 2.66037 6.45963 2.4006 6.80419C2.14082 7.14876 2.00021 7.56848 2 8V13C2 14.108 2.892 15 4 15H12C12.109 15 12.214 14.985 12.318 14.969L11.35 14H4C3.446 14 3 13.554 3 13V8C3 7.446 3.446 7 4 7H4.35L3.44 6.09Z" fill="url(#paint0_linear_9_3743)"/>
<path d="M1.43988 0.559998L0.556885 1.442L14.5569 15.442L15.4399 14.56L1.43988 0.559998Z" fill="url(#paint1_linear_9_3743)"/>
</g>
<defs>
<linearGradient id="paint0_linear_9_3743" x1="2" y1="7.5" x2="14" y2="7.5" gradientUnits="userSpaceOnUse">
<stop stop-color="#FDFC47"/>
<stop offset="1" stop-color="#24FE41"/>
</linearGradient>
<linearGradient id="paint1_linear_9_3743" x1="0.556885" y1="0.559998" x2="8.53451" y2="18.5108" gradientUnits="userSpaceOnUse">
<stop stop-color="#FF0500"/>
<stop offset="1" stop-color="#FD3632"/>
</linearGradient>
<clipPath id="clip0_9_3743">
<rect width="16" height="16" fill="white"/>
</clipPath>
</defs>
</svg>
