<svg width="16" height="16" viewBox="0 0 16 16" fill="none" xmlns="http://www.w3.org/2000/svg">
<path d="M3.5 1C2.83745 1.00158 2.20251 1.26548 1.73401 1.73398C1.26551 2.20248 1.00158 2.83745 1 3.5V12.5C1 13.876 2.124 15 3.5 15H12.5C13.877 15 15 13.876 15 12.5V3.5C15 2.124 13.877 1 12.5 1H3.5ZM3.5 2H12.5C13.34 2 14 2.66 14 3.5V12.5C14 13.34 13.34 14 12.5 14H3.5C2.66 14 2 13.34 2 12.5V3.5C2 2.66 2.66 2 3.5 2ZM2 8.875L7.25 13.375L14 4.438L12 2.625L6.78198 9.21899L3.71899 6.563L2 8.875Z" fill="url(#paint0_linear_9_3748)"/>
<defs>
<linearGradient id="paint0_linear_9_3748" x1="1" y1="8" x2="15" y2="8" gradientUnits="userSpaceOnUse">
<stop stop-color="#FDFC47"/>
<stop offset="1" stop-color="#24FE41"/>
</linearGradient>
</defs>
</svg>
