<svg width="16" height="16" viewBox="0 0 16 16" fill="none" xmlns="http://www.w3.org/2000/svg">
<path fill-rule="evenodd" clip-rule="evenodd" d="M0 15V16H15V15H0Z" fill="url(#paint0_linear_9_3767)"/>
<path d="M2.55103 9.04901C2.48535 9.04929 2.42037 9.06251 2.3598 9.08791C2.29923 9.1133 2.24423 9.15038 2.198 9.19702C2.15147 9.24338 2.11455 9.29847 2.08936 9.35913C2.06416 9.41979 2.05121 9.48484 2.05121 9.55052C2.05121 9.61621 2.06416 9.68124 2.08936 9.7419C2.11455 9.80256 2.15147 9.85766 2.198 9.90402L2.90503 10.611C2.95132 10.6577 3.00635 10.6947 3.06702 10.72C3.12769 10.7452 3.19276 10.7582 3.25848 10.7582C3.32421 10.7582 3.38928 10.7452 3.44995 10.72C3.51062 10.6947 3.56571 10.6577 3.612 10.611C3.65853 10.5646 3.69545 10.5096 3.72064 10.4489C3.74584 10.3882 3.75879 10.3232 3.75879 10.2575C3.75879 10.1918 3.74584 10.1268 3.72064 10.0661C3.69545 10.0055 3.65853 9.95038 3.612 9.90402L2.90503 9.19702C2.85867 9.15026 2.80349 9.11311 2.74274 9.08771C2.68199 9.06231 2.61687 9.04916 2.55103 9.04901ZM12.449 9.05101C12.3834 9.05092 12.3185 9.06377 12.2579 9.08882C12.1974 9.11388 12.1423 9.15065 12.096 9.19702L11.389 9.90402C11.3426 9.95044 11.3058 10.0056 11.2806 10.0662C11.2555 10.1269 11.2426 10.1919 11.2426 10.2575C11.2426 10.3232 11.2555 10.3882 11.2806 10.4488C11.3058 10.5095 11.3426 10.5646 11.389 10.611C11.4354 10.6574 11.4906 10.6943 11.5512 10.7194C11.6119 10.7445 11.6768 10.7574 11.7425 10.7574C11.8081 10.7574 11.8732 10.7445 11.9338 10.7194C11.9945 10.6943 12.0496 10.6574 12.096 10.611L12.803 9.90402C12.8732 9.83423 12.9212 9.7451 12.9406 9.64799C12.9601 9.55089 12.9502 9.4502 12.9122 9.35873C12.8743 9.26727 12.8099 9.18917 12.7274 9.13437C12.6449 9.07957 12.548 9.05055 12.449 9.05101ZM7.5 10C5.186 10 3.30303 11.753 3.05103 14H11.949C11.698 11.753 9.814 10 7.5 10ZM0.5 13C0.367392 13 0.240192 13.0527 0.146423 13.1465C0.0526552 13.2402 0 13.3674 0 13.5C0 13.6326 0.0526552 13.7598 0.146423 13.8536C0.240192 13.9473 0.367392 14 0.5 14H1.5C1.63261 14 1.75981 13.9473 1.85358 13.8536C1.94734 13.7598 2 13.6326 2 13.5C2 13.3674 1.94734 13.2402 1.85358 13.1465C1.75981 13.0527 1.63261 13 1.5 13H0.5ZM13.5 13C13.3674 13 13.2402 13.0527 13.1464 13.1465C13.0527 13.2402 13 13.3674 13 13.5C13 13.6326 13.0527 13.7598 13.1464 13.8536C13.2402 13.9473 13.3674 14 13.5 14H14.5C14.6326 14 14.7598 13.9473 14.8536 13.8536C14.9473 13.7598 15 13.6326 15 13.5C15 13.3674 14.9473 13.2402 14.8536 13.1465C14.7598 13.0527 14.6326 13 14.5 13H13.5Z" fill="url(#paint1_linear_9_3767)"/>
<path d="M7.5 1.5L4 6H7V8.5C7 8.63261 7.05266 8.75978 7.14642 8.85355C7.24019 8.94731 7.36739 9 7.5 9C7.63261 9 7.75981 8.94731 7.85358 8.85355C7.94734 8.75978 8 8.63261 8 8.5V6H11L7.5 1.5Z" fill="url(#paint2_linear_9_3767)"/>
<defs>
<linearGradient id="paint0_linear_9_3767" x1="0" y1="15.5" x2="15" y2="15.5" gradientUnits="userSpaceOnUse">
<stop stop-color="#FDFC47"/>
<stop offset="1" stop-color="#24FE41"/>
</linearGradient>
<linearGradient id="paint1_linear_9_3767" x1="0" y1="11.5245" x2="15" y2="11.5245" gradientUnits="userSpaceOnUse">
<stop stop-color="#FDFC47"/>
<stop offset="1" stop-color="#24FE41"/>
</linearGradient>
<linearGradient id="paint2_linear_9_3767" x1="4" y1="5.25" x2="11" y2="5.25" gradientUnits="userSpaceOnUse">
<stop stop-color="#FDFC47"/>
<stop offset="1" stop-color="#24FE41"/>
</linearGradient>
</defs>
</svg>
