<svg width="16" height="16" viewBox="0 0 16 16" fill="none" xmlns="http://www.w3.org/2000/svg">
<path fill-rule="evenodd" clip-rule="evenodd" d="M0 15V16H15V15H0Z" fill="url(#paint0_linear_9_3772)"/>
<path d="M7.5 6C7.223 6 7 6.223 7 6.5V9H4L7.5 13.5L11.063 9H8V6.5C8.00013 6.4343 7.9873 6.36923 7.96222 6.3085C7.93714 6.24778 7.90028 6.19261 7.85382 6.14615C7.80737 6.09969 7.75219 6.06288 7.69147 6.0378C7.63074 6.01272 7.5657 5.99987 7.5 6Z" fill="url(#paint1_linear_9_3772)"/>
<path d="M0.5 1C0.367392 1 0.240192 1.05269 0.146423 1.14645C0.0526552 1.24022 0 1.36739 0 1.5C0 1.63261 0.0526552 1.75978 0.146423 1.85355C0.240192 1.94731 0.367392 2 0.5 2H1.5C1.63261 2 1.75981 1.94731 1.85358 1.85355C1.94734 1.75978 2 1.63261 2 1.5C2 1.36739 1.94734 1.24022 1.85358 1.14645C1.75981 1.05269 1.63261 1 1.5 1H0.5ZM3.05103 1C3.30303 3.247 5.18598 5 7.50098 5C9.81398 5 11.697 3.247 11.949 1H3.05103ZM13.501 1C13.3684 1 13.2412 1.05269 13.1475 1.14645C13.0537 1.24022 13.001 1.36739 13.001 1.5C13.001 1.63261 13.0537 1.75978 13.1475 1.85355C13.2412 1.94731 13.3684 2 13.501 2H14.501C14.6336 2 14.7608 1.94731 14.8546 1.85355C14.9483 1.75978 15.001 1.63261 15.001 1.5C15.001 1.36739 14.9483 1.24022 14.8546 1.14645C14.7608 1.05269 14.6336 1 14.501 1H13.501ZM11.742 4.242C11.6428 4.24134 11.5456 4.27027 11.4629 4.32512C11.3802 4.37997 11.3157 4.45824 11.2777 4.54991C11.2397 4.64159 11.2299 4.74251 11.2496 4.83978C11.2692 4.93706 11.3174 5.02625 11.388 5.09599L12.096 5.80299C12.1423 5.84965 12.1974 5.88667 12.2581 5.91194C12.3187 5.93721 12.3838 5.95023 12.4495 5.95023C12.5152 5.95023 12.5803 5.93721 12.641 5.91194C12.7017 5.88667 12.7567 5.84965 12.803 5.80299C12.8495 5.75663 12.8864 5.70155 12.9116 5.64088C12.9368 5.58022 12.9498 5.51518 12.9498 5.44949C12.9498 5.38381 12.9368 5.31878 12.9116 5.25812C12.8864 5.19746 12.8495 5.14235 12.803 5.09599L12.096 4.38901C12.0022 4.29502 11.8748 4.24214 11.742 4.242ZM3.16199 4.252C3.06421 4.27079 2.97433 4.31853 2.90399 4.38901L2.19702 5.09599C2.15049 5.14235 2.11357 5.19746 2.08838 5.25812C2.06319 5.31878 2.05017 5.38381 2.05017 5.44949C2.05017 5.51518 2.06319 5.58022 2.08838 5.64088C2.11357 5.70155 2.15049 5.75663 2.19702 5.80299C2.24338 5.84976 2.2985 5.88691 2.35925 5.91231C2.42 5.93771 2.48518 5.95086 2.55103 5.951C2.6167 5.95073 2.68168 5.9375 2.74225 5.91211C2.80282 5.88672 2.85776 5.84964 2.90399 5.80299L3.612 5.09599C3.68846 5.02045 3.73849 4.92226 3.75464 4.81599C3.77079 4.70973 3.75217 4.6011 3.7016 4.50626C3.65103 4.41141 3.57123 4.33542 3.474 4.28961C3.37677 4.2438 3.26732 4.23061 3.16199 4.252Z" fill="url(#paint2_linear_9_3772)"/>
<defs>
<linearGradient id="paint0_linear_9_3772" x1="0" y1="15.5" x2="15" y2="15.5" gradientUnits="userSpaceOnUse">
<stop stop-color="#FDFC47"/>
<stop offset="1" stop-color="#24FE41"/>
</linearGradient>
<linearGradient id="paint1_linear_9_3772" x1="4" y1="9.75" x2="11.063" y2="9.75" gradientUnits="userSpaceOnUse">
<stop stop-color="#FDFC47"/>
<stop offset="1" stop-color="#24FE41"/>
</linearGradient>
<linearGradient id="paint2_linear_9_3772" x1="0" y1="3.4755" x2="15.001" y2="3.4755" gradientUnits="userSpaceOnUse">
<stop stop-color="#FDFC47"/>
<stop offset="1" stop-color="#24FE41"/>
</linearGradient>
</defs>
</svg>
