<svg width="17" height="17" viewBox="0 0 17 17" fill="none" xmlns="http://www.w3.org/2000/svg">
<g clip-path="url(#clip0_9_3788)">
<path d="M8.01231 0C7.26715 0 6.63211 0.39746 6.29551 0.99366C6.2916 0.993637 6.2877 0.993637 6.28379 0.99366L0.252593 12.1227C0.247664 12.1556 0.208536 12.222 0.208536 12.222C-0.101204 12.8182 -0.0780835 13.5137 0.318996 14.11C0.671926 14.6069 1.3591 15.0043 1.9733 15.0043H14.0803C14.7437 15.0043 15.3998 14.6069 15.7483 14.0107C16.0128 13.6132 16.0262 13.1164 15.9299 12.6196C15.9285 12.4825 15.8986 12.3471 15.842 12.2221C15.8327 12.1884 15.8217 12.1553 15.8088 12.1227L9.73265 0.99373C9.7307 0.993724 9.72874 0.993724 9.72679 0.99373C9.37764 0.39753 8.69141 0 8.01231 0ZM8.01231 0.99366C8.36427 0.99366 8.67983 1.1924 8.85411 1.49049L14.9303 12.6195C15.0698 12.9176 15.0684 13.2157 14.8913 13.5138C14.7493 13.8119 14.4322 14.0106 14.0807 14.0106H1.9737C1.6213 14.0106 1.33986 13.8119 1.16511 13.6131C0.990352 13.3151 0.991932 12.9176 1.13386 12.6195L7.16506 1.49049C7.34225 1.1924 7.65989 0.99366 8.01231 0.99366Z" fill="url(#paint0_linear_9_3788)"/>
<path d="M8 4C8.554 4 9 4.446 9 5V9C9 9.554 8.554 10 8 10C7.446 10 7 9.554 7 9V5C7 4.446 7.446 4 8 4Z" fill="url(#paint1_linear_9_3788)"/>
<path d="M9 12C9 12.2652 8.89464 12.5196 8.70711 12.7071C8.51957 12.8946 8.26522 13 8 13C7.73478 13 7.48043 12.8946 7.29289 12.7071C7.10536 12.5196 7 12.2652 7 12C7 11.7348 7.10536 11.4804 7.29289 11.2929C7.48043 11.1054 7.73478 11 8 11C8.26522 11 8.51957 11.1054 8.70711 11.2929C8.89464 11.4804 9 11.7348 9 12Z" fill="url(#paint2_linear_9_3788)"/>
</g>
<defs>
<linearGradient id="paint0_linear_9_3788" x1="-0.00366211" y1="7.50216" x2="15.9847" y2="7.50216" gradientUnits="userSpaceOnUse">
<stop stop-color="#FF8008"/>
<stop offset="1" stop-color="#FFC837"/>
</linearGradient>
<linearGradient id="paint1_linear_9_3788" x1="7" y1="7" x2="9" y2="7" gradientUnits="userSpaceOnUse">
<stop stop-color="#FF8008"/>
<stop offset="1" stop-color="#FFC837"/>
</linearGradient>
<linearGradient id="paint2_linear_9_3788" x1="7" y1="12" x2="9" y2="12" gradientUnits="userSpaceOnUse">
<stop stop-color="#FF8008"/>
<stop offset="1" stop-color="#FFC837"/>
</linearGradient>
<clipPath id="clip0_9_3788">
<rect width="16.002" height="16.002" fill="white"/>
</clipPath>
</defs>
</svg>
