<svg width="16" height="16" viewBox="0 0 16 16" fill="none" xmlns="http://www.w3.org/2000/svg">
<path d="M10.2129 1.006C9.64934 0.966163 9.08596 1.0864 8.58773 1.35286C8.0895 1.61931 7.67671 2.02113 7.39694 2.512C7.10284 3.02678 6.96798 3.6172 7.0094 4.20861C7.05082 4.80003 7.26666 5.36589 7.62963 5.83465C7.9926 6.30342 8.48642 6.65404 9.04863 6.84219C9.61085 7.03034 10.2162 7.04757 10.7882 6.89171C11.3603 6.73585 11.8732 6.41388 12.2623 5.96653C12.6513 5.51917 12.899 4.96651 12.974 4.37841C13.049 3.7903 12.9479 3.19317 12.6836 2.66249C12.4193 2.13181 12.0035 1.69142 11.4889 1.397V1.395C11.0985 1.17038 10.6622 1.03705 10.2129 1.005V1.006ZM3.85294 3.006C3.58891 3.0224 3.33075 3.09102 3.09343 3.20789C2.8561 3.32476 2.64432 3.48754 2.47034 3.68682C2.29636 3.88611 2.16365 4.11792 2.07988 4.36885C1.99612 4.61978 1.96296 4.88483 1.98234 5.14866C2.00172 5.41248 2.07325 5.66985 2.19278 5.90584C2.31231 6.14184 2.47747 6.35177 2.6787 6.52349C2.87993 6.69522 3.11322 6.82531 3.36508 6.90624C3.61693 6.98718 3.88234 7.01735 4.14594 6.995C4.67504 6.95627 5.1671 6.70895 5.51385 6.30744C5.86061 5.90592 6.03366 5.3831 5.99494 4.854C5.95621 4.32489 5.70889 3.83284 5.30738 3.48608C4.90586 3.13933 4.38304 2.96627 3.85394 3.005L3.85294 3.006ZM2.38894 8.006C2.03054 8.03349 1.69393 8.18877 1.44038 8.44357C1.18684 8.69837 1.03323 9.03574 1.00751 9.39428C0.98179 9.75281 1.08567 10.1087 1.30025 10.397C1.51483 10.6854 1.82583 10.8872 2.17664 10.9655C2.52744 11.0439 2.89473 10.9937 3.21163 10.824C3.52852 10.6544 3.77396 10.3766 3.90326 10.0412C4.03256 9.70577 4.03712 9.3351 3.91611 8.99663C3.7951 8.65816 3.55657 8.37439 3.24394 8.197C2.98443 8.04932 2.68662 7.98279 2.38894 8.006ZM11.8539 8.006C11.5895 8.02156 11.3308 8.08953 11.0929 8.20594C10.855 8.32234 10.6426 8.48487 10.468 8.68409C10.2934 8.8833 10.1602 9.11521 10.076 9.36636C9.99186 9.61751 9.95845 9.88288 9.97773 10.1471C9.99701 10.4112 10.0686 10.6689 10.1883 10.9052C10.3081 11.1415 10.4736 11.3516 10.6752 11.5233C10.8769 11.6951 11.1106 11.8251 11.3629 11.9057C11.6152 11.9863 11.8811 12.016 12.1449 11.993C12.6683 11.9474 13.1526 11.6976 13.4932 11.2977C13.8338 10.8978 14.0034 10.3799 13.9651 9.85603C13.9269 9.33212 13.684 8.84431 13.2889 8.49811C12.8938 8.1519 12.3783 7.97512 11.8539 8.006ZM8.59794 12.002C8.32734 11.9842 8.05698 12.0401 7.81562 12.1637C7.57426 12.2874 7.37094 12.4741 7.22728 12.7041C7.08362 12.9341 7.005 13.1988 6.99978 13.4699C6.99457 13.741 7.06295 14.0085 7.19766 14.2439C7.33236 14.4792 7.52836 14.6737 7.76478 14.8065C8.0012 14.9393 8.26921 15.0056 8.54029 14.9982C8.81138 14.9908 9.07539 14.9101 9.30424 14.7646C9.53309 14.6191 9.71822 14.4143 9.83994 14.172C10.2109 13.432 9.91194 12.532 9.17194 12.16C8.99311 12.0694 8.79792 12.0157 8.59794 12.002ZM3.92594 13.004C3.68701 13.0224 3.46265 13.1261 3.29371 13.296C3.12477 13.466 3.02248 13.691 3.00546 13.93C2.98845 14.169 3.05783 14.4062 3.20099 14.5984C3.34415 14.7906 3.55156 14.925 3.78546 14.9771C4.01937 15.0292 4.26421 14.9956 4.47541 14.8824C4.68662 14.7691 4.85014 14.5838 4.93621 14.3602C5.02228 14.1365 5.02518 13.8894 4.94437 13.6638C4.86356 13.4382 4.70443 13.2491 4.49594 13.131C4.32296 13.0325 4.12437 12.9882 3.92594 13.004Z" fill="url(#paint0_linear_9_3828)"/>
<defs>
<linearGradient id="paint0_linear_9_3828" x1="1.00366" y1="7.99978" x2="13.9704" y2="7.99978" gradientUnits="userSpaceOnUse">
<stop stop-color="#FDFC47"/>
<stop offset="1" stop-color="#24FE41"/>
</linearGradient>
</defs>
</svg>
