<svg width="16" height="16" viewBox="0 0 16 16" fill="none" xmlns="http://www.w3.org/2000/svg">
<path d="M7.4629 2.29513e-05C5.48021 0.00983077 3.58207 0.804335 2.18357 2.2098C0.785057 3.61526 -2.42576e-05 5.51731 5.62146e-10 7.50002C5.62145e-10 9.48915 0.790176 11.3968 2.1967 12.8033C3.60322 14.2098 5.51088 15 7.5 15C9.48912 15 11.3968 14.2098 12.8033 12.8033C14.2098 11.3968 15 9.48915 15 7.50002C15 5.5109 14.2098 3.60324 12.8033 2.19672C11.3968 0.790199 9.48912 2.29513e-05 7.5 2.29513e-05C7.48763 -7.65045e-06 7.47527 -7.65044e-06 7.4629 2.29513e-05ZM7.50001 1.00002C8.3536 1.00002 9.19884 1.16815 9.98745 1.49481C10.7761 1.82146 11.4926 2.30025 12.0962 2.90383C12.6998 3.50741 13.1786 4.22396 13.5052 5.01258C13.8319 5.8012 14 6.64643 14 7.50002C14 8.35362 13.8319 9.19885 13.5052 9.98746C13.1786 10.7761 12.6998 11.4926 12.0962 12.0962C11.4926 12.6998 10.7761 13.1786 9.98745 13.5052C9.19884 13.8319 8.3536 14 7.50001 14C5.7761 14 4.1228 13.3152 2.90382 12.0962C1.68483 10.8772 1.00001 9.22393 1.00001 7.50002C1.00001 5.77612 1.68483 4.12282 2.90382 2.90383C4.1228 1.68484 5.7761 1.00002 7.50001 1.00002Z" fill="url(#paint0_linear_9_3835)"/>
<path d="M8 3H7V9H8V3Z" fill="url(#paint1_linear_9_3835)"/>
<path d="M8 11H7V12H8V11Z" fill="url(#paint2_linear_9_3835)"/>
<defs>
<linearGradient id="paint0_linear_9_3835" x1="0" y1="7.50001" x2="15" y2="7.50001" gradientUnits="userSpaceOnUse">
<stop stop-color="#FDFC47"/>
<stop offset="1" stop-color="#24FE41"/>
</linearGradient>
<linearGradient id="paint1_linear_9_3835" x1="7" y1="6" x2="8" y2="6" gradientUnits="userSpaceOnUse">
<stop stop-color="#FDFC47"/>
<stop offset="1" stop-color="#24FE41"/>
</linearGradient>
<linearGradient id="paint2_linear_9_3835" x1="7" y1="11.5" x2="8" y2="11.5" gradientUnits="userSpaceOnUse">
<stop stop-color="#FDFC47"/>
<stop offset="1" stop-color="#24FE41"/>
</linearGradient>
</defs>
</svg>
