<svg width="16" height="16" viewBox="0 0 16 16" fill="none" xmlns="http://www.w3.org/2000/svg">
<path d="M3 10C4.10457 10 5 9.10457 5 8C5 6.89543 4.10457 6 3 6C1.89543 6 1 6.89543 1 8C1 9.10457 1.89543 10 3 10Z" fill="url(#paint0_linear_9_3840)"/>
<path d="M8 10C9.10457 10 10 9.10457 10 8C10 6.89543 9.10457 6 8 6C6.89543 6 6 6.89543 6 8C6 9.10457 6.89543 10 8 10Z" fill="url(#paint1_linear_9_3840)"/>
<path d="M13 10C14.1046 10 15 9.10457 15 8C15 6.89543 14.1046 6 13 6C11.8954 6 11 6.89543 11 8C11 9.10457 11.8954 10 13 10Z" fill="url(#paint2_linear_9_3840)"/>
<defs>
<linearGradient id="paint0_linear_9_3840" x1="1" y1="8" x2="5" y2="8" gradientUnits="userSpaceOnUse">
<stop stop-color="#FDFC47"/>
<stop offset="1" stop-color="#24FE41"/>
</linearGradient>
<linearGradient id="paint1_linear_9_3840" x1="6" y1="8" x2="10" y2="8" gradientUnits="userSpaceOnUse">
<stop stop-color="#FDFC47"/>
<stop offset="1" stop-color="#24FE41"/>
</linearGradient>
<linearGradient id="paint2_linear_9_3840" x1="11" y1="8" x2="15" y2="8" gradientUnits="userSpaceOnUse">
<stop stop-color="#FDFC47"/>
<stop offset="1" stop-color="#24FE41"/>
</linearGradient>
</defs>
</svg>
