<svg width="16" height="16" viewBox="0 0 16 16" fill="none" xmlns="http://www.w3.org/2000/svg">
<path d="M9.09267 2.89999C8.88928 2.99493 8.73005 3.16722 8.66768 3.39999C8.66528 3.40839 8.66928 3.41663 8.66768 3.42495C7.2396 3.41343 5.93464 4.36207 5.54272 5.82495C5.53792 5.84143 5.52184 5.85847 5.51776 5.87495C5.10257 7.42447 4.29472 10.519 2.91776 10.15C2.82603 10.1254 2.72144 10.193 2.69276 10.3L2.59276 10.675C2.56412 10.782 2.601 10.9004 2.69276 10.925L11.6432 13.3C11.7349 13.3246 11.8395 13.282 11.8682 13.175L11.9682 12.775C11.9968 12.668 11.9349 12.5746 11.8432 12.55C10.4608 12.1796 11.303 9.07427 11.7182 7.52507C11.723 7.50875 11.7142 7.49155 11.7182 7.47507C11.8151 7.11337 11.8425 6.74794 11.8182 6.40003C10.2666 6.40003 9.01815 5.15163 9.01815 3.60003C9.01815 3.36095 9.03651 3.1216 9.09267 2.89999ZM7.01764 12.9C7.0838 13.5172 7.77773 14 8.61764 14C9.07413 14 9.47611 13.855 9.76763 13.625L7.01764 12.9Z" fill="url(#paint0_linear_9_3858)"/>
<path opacity="0.35" d="M13.4175 3.6C13.4175 4.02435 13.249 4.43131 12.9489 4.73137C12.6488 5.03143 12.2419 5.2 11.8175 5.2C11.3932 5.2 10.9862 5.03143 10.6862 4.73137C10.3861 4.43131 10.2175 4.02435 10.2175 3.6C10.2175 3.17565 10.3861 2.76869 10.6862 2.46863C10.9862 2.16857 11.3932 2 11.8175 2C12.2419 2 12.6488 2.16857 12.9489 2.46863C13.249 2.76869 13.4175 3.17565 13.4175 3.6Z" fill="url(#paint1_linear_9_3858)"/>
<defs>
<linearGradient id="paint0_linear_9_3858" x1="2.58325" y1="8.44999" x2="11.9752" y2="8.44999" gradientUnits="userSpaceOnUse">
<stop stop-color="#FDFC47"/>
<stop offset="1" stop-color="#24FE41"/>
</linearGradient>
<linearGradient id="paint1_linear_9_3858" x1="10.2175" y1="3.6" x2="13.4175" y2="3.6" gradientUnits="userSpaceOnUse">
<stop stop-color="#FDFC47"/>
<stop offset="1" stop-color="#24FE41"/>
</linearGradient>
</defs>
</svg>
