<svg width="16" height="16" viewBox="0 0 16 16" fill="none" xmlns="http://www.w3.org/2000/svg">
<path d="M4.99997 1V3H5.99997C7.73997 3 8.95497 3.642 9.75597 4.582C10.556 5.522 10.972 6.709 11.35 7.842C11.727 8.975 12.07 10.06 12.596 10.807C13.12 11.554 13.76 12 15 12H16V13H15C13.489 13 12.441 12.321 11.78 11.38C11.117 10.44 10.773 9.275 10.4 8.158C10.028 7.041 9.63097 5.978 8.99397 5.23C8.35697 4.483 7.50997 4 5.99997 4H4.99797V6C4.21054 5.63867 3.43606 5.24977 2.67597 4.834C1.89597 4.404 1.14297 3.958 0.417969 3.5C1.14297 3.05 1.89497 2.61 2.67597 2.18C3.46397 1.75 4.23897 1.357 4.99997 1ZM16 3V4H15C13.761 4 13.121 4.446 12.596 5.193C12.34 5.557 12.13 6.003 11.936 6.493C11.7792 6.07565 11.5972 5.66823 11.391 5.273C11.509 5.048 11.634 4.826 11.779 4.619C12.441 3.68 13.49 3 15 3H16ZM9.78997 9.459C9.92997 9.873 10.077 10.282 10.268 10.703C10.115 10.953 9.94797 11.193 9.75597 11.418C8.95597 12.358 7.73997 13 5.99997 13H4.99797V15C4.21054 14.6387 3.43606 14.2498 2.67597 13.834C1.89597 13.404 1.14297 12.958 0.417969 12.5C1.14297 12.05 1.89497 11.61 2.67597 11.18C3.46397 10.75 4.23897 10.357 4.99997 10V12H5.99997C7.50997 12 8.35697 11.517 8.99397 10.77C9.30897 10.4 9.56497 9.951 9.78897 9.459H9.78997Z" fill="url(#paint0_linear_9_3898)"/>
<defs>
<linearGradient id="paint0_linear_9_3898" x1="0.417969" y1="8" x2="16" y2="8" gradientUnits="userSpaceOnUse">
<stop stop-color="#FDFC47"/>
<stop offset="1" stop-color="#24FE41"/>
</linearGradient>
</defs>
</svg>
