<svg width="16" height="16" viewBox="0 0 16 16" fill="none" xmlns="http://www.w3.org/2000/svg">
<path opacity="0.5" d="M5 0V2H3.994C2.736 2.015 1.815 1.97 1.062 2.385C0.672991 2.6073 0.376163 2.96122 0.225 3.383C0.06 3.82 0 4.343 0 5V11C0 11.658 0.06 12.179 0.225 12.617C0.389 13.056 0.686 13.407 1.063 13.615C1.815 14.031 2.736 13.985 3.994 14H12.006C13.264 13.985 14.185 14.03 14.938 13.615C15.3274 13.3929 15.6246 13.0389 15.776 12.617C15.94 12.179 16 11.657 16 11V5C16 4.342 15.94 3.821 15.775 3.383C15.6238 2.96122 15.327 2.6073 14.938 2.385C14.185 1.969 13.264 2.015 12.006 2H11V3H12C13.259 3.015 14.09 3.06 14.455 3.262C14.638 3.362 14.742 3.474 14.84 3.734C14.937 3.994 15 4.408 15 5V11C15 11.592 14.937 12.006 14.84 12.266C14.742 12.526 14.638 12.637 14.455 12.738C14.089 12.94 13.259 12.985 12 13H4C2.741 12.985 1.913 12.94 1.547 12.738C1.363 12.638 1.257 12.526 1.16 12.266C1.063 12.006 1 11.592 1 11V5C1 4.408 1.063 3.994 1.16 3.734C1.258 3.474 1.363 3.363 1.547 3.262C1.913 3.06 2.74 3.015 4 3H5.002V5C5.762 4.652 6.536 4.264 7.324 3.834C8.08987 3.41208 8.84288 2.96721 9.582 2.5C8.857 2.05 8.105 1.61 7.324 1.18C6.56141 0.763314 5.78639 0.3698 5 0Z" fill="url(#paint0_linear_9_3879)"/>
<defs>
<linearGradient id="paint0_linear_9_3879" x1="0" y1="7" x2="16" y2="7" gradientUnits="userSpaceOnUse">
<stop stop-color="#FDFC47"/>
<stop offset="1" stop-color="#24FE41"/>
</linearGradient>
</defs>
</svg>
