<svg width="16" height="16" viewBox="0 0 16 16" fill="none" xmlns="http://www.w3.org/2000/svg">
<path d="M2 2C0.892 2 0 2.892 0 4V12C0 13.108 0.892 14 2 14H14C15.108 14 16 13.108 16 12V4C16 2.892 15.108 2 14 2H2ZM2 3H14C14.4889 3 14.8745 3.35406 14.9629 3.81641L8.53909 8.93161C8.2335 9.17496 7.76655 9.17496 7.46099 8.93161L1.03719 3.81641C1.1256 3.35406 1.51112 3 2 3ZM1 5.0488L4.7051 8L1 10.9512V5.0488ZM15 5.0488V10.9511L11.2949 7.9999L15 5.0488ZM5.498 8.6328L6.6679 9.56444C7.39877 10.1464 8.6011 10.1464 9.332 9.56444L10.5019 8.6328L14.9628 12.1836C14.8744 12.646 14.4888 13 13.9999 13H1.99991C1.51103 13 1.12543 12.646 1.03702 12.1836L5.498 8.6328Z" fill="url(#paint0_linear_9_3921)"/>
<defs>
<linearGradient id="paint0_linear_9_3921" x1="0" y1="8" x2="16" y2="8" gradientUnits="userSpaceOnUse">
<stop stop-color="#FDFC47"/>
<stop offset="1" stop-color="#24FE41"/>
</linearGradient>
</defs>
</svg>
