<svg width="16" height="16" viewBox="0 0 16 16" fill="none" xmlns="http://www.w3.org/2000/svg">
<g clip-path="url(#clip0_9_4030)">
<path d="M5 7C4.73478 7 4.48043 7.10536 4.29289 7.29289C4.10536 7.48043 4 7.73478 4 8C4 8.26522 4.10536 8.51957 4.29289 8.70711C4.48043 8.89464 4.73478 9 5 9C5.26522 9 5.51957 8.89464 5.70711 8.70711C5.89464 8.51957 6 8.26522 6 8C6 7.73478 5.89464 7.48043 5.70711 7.29289C5.51957 7.10536 5.26522 7 5 7ZM8 7C7.73478 7 7.48043 7.10536 7.29289 7.29289C7.10536 7.48043 7 7.73478 7 8C7 8.26522 7.10536 8.51957 7.29289 8.70711C7.48043 8.89464 7.73478 9 8 9C8.26522 9 8.51957 8.89464 8.70711 8.70711C8.89464 8.51957 9 8.26522 9 8C9 7.73478 8.89464 7.48043 8.70711 7.29289C8.51957 7.10536 8.26522 7 8 7ZM11 7C10.7348 7 10.4804 7.10536 10.2929 7.29289C10.1054 7.48043 10 7.73478 10 8C10 8.26522 10.1054 8.51957 10.2929 8.70711C10.4804 8.89464 10.7348 9 11 9C11.2652 9 11.5196 8.89464 11.7071 8.70711C11.8946 8.51957 12 8.26522 12 8C12 7.73478 11.8946 7.48043 11.7071 7.29289C11.5196 7.10536 11.2652 7 11 7Z" fill="url(#paint0_linear_9_4030)"/>
<path fill-rule="evenodd" clip-rule="evenodd" d="M7.99995 5C7.12642 5 6.39485 5.55834 6.12105 6.3359C6.26163 6.42665 6.39162 6.52872 6.498 6.6484C6.4995 6.65009 6.49847 6.65257 6.49996 6.65426C6.50145 6.65257 6.50041 6.65009 6.50191 6.6484C6.85185 6.25472 7.41662 5.99996 7.99991 5.99996C8.5832 5.99996 9.14801 6.25472 9.49791 6.6484C9.49941 6.65009 9.49837 6.65257 9.49986 6.65426C9.50135 6.65257 9.50032 6.65009 9.50182 6.6484C9.6082 6.52872 9.73819 6.42665 9.87877 6.3359C9.60501 5.5583 8.87345 5 7.99995 5ZM6.49995 9.3457C6.49847 9.34739 6.4995 9.34987 6.498 9.35156C6.14806 9.74524 5.58329 10 5 10C5 10.554 5.446 11 6 11H8H10C10.554 11 11 10.554 11 10C10.4167 10 9.8519 9.74524 9.502 9.35156C9.5005 9.34987 9.50154 9.34739 9.50005 9.3457C9.49856 9.34739 9.49959 9.34987 9.49809 9.35156C9.14815 9.74524 8.58338 10 8.00009 10C7.4168 10 6.85199 9.74524 6.50209 9.35156C6.5006 9.34987 6.50144 9.34739 6.49995 9.3457Z" fill="url(#paint1_linear_9_4030)"/>
<path d="M0.115207 8.38083L3.11348 11.8331C3.30421 12.0528 3.61455 12.0541 3.80657 11.8359C3.9986 11.618 3.99972 11.2632 3.80907 11.0437L1.15617 7.98899L3.82833 4.95644C4.02036 4.73841 4.02148 4.38369 3.83083 4.16416C3.64018 3.94455 3.32985 3.94327 3.13775 4.1613L0.117712 7.58866C0.0216973 7.69768 -0.0265362 7.84074 -0.0269895 7.98407C-0.027443 8.12746 0.019977 8.27102 0.115285 8.38078L0.115207 8.38083Z" fill="url(#paint2_linear_9_4030)"/>
<path d="M15.8845 7.61917L12.8863 4.16693C12.6956 3.94721 12.3852 3.94593 12.1932 4.16406C12.0012 4.38201 12 4.73677 12.1907 4.95627L14.8436 8.01101L12.1714 11.0436C11.9794 11.2616 11.9783 11.6163 12.1689 11.8358C12.3596 12.0554 12.6699 12.0567 12.862 11.8387L15.882 8.41134C15.9781 8.30232 16.0263 8.15926 16.0267 8.01593C16.0272 7.87254 15.9798 7.72898 15.8845 7.61922L15.8845 7.61917Z" fill="url(#paint3_linear_9_4030)"/>
</g>
<defs>
<linearGradient id="paint0_linear_9_4030" x1="4" y1="8" x2="12" y2="8" gradientUnits="userSpaceOnUse">
<stop stop-color="#FDFC47"/>
<stop offset="1" stop-color="#24FE41"/>
</linearGradient>
<linearGradient id="paint1_linear_9_4030" x1="5" y1="8" x2="11" y2="8" gradientUnits="userSpaceOnUse">
<stop stop-color="#FDFC47"/>
<stop offset="1" stop-color="#24FE41"/>
</linearGradient>
<linearGradient id="paint2_linear_9_4030" x1="3.9622" y1="8.00068" x2="-0.0270022" y2="7.98807" gradientUnits="userSpaceOnUse">
<stop stop-color="#FDFC47"/>
<stop offset="1" stop-color="#24FE41"/>
</linearGradient>
<linearGradient id="paint3_linear_9_4030" x1="12.0376" y1="7.99932" x2="16.0268" y2="8.01193" gradientUnits="userSpaceOnUse">
<stop stop-color="#FDFC47"/>
<stop offset="1" stop-color="#24FE41"/>
</linearGradient>
<clipPath id="clip0_9_4030">
<rect width="16" height="16" fill="white"/>
</clipPath>
</defs>
</svg>
