<svg width="16" height="17" viewBox="0 0 16 17" fill="none" xmlns="http://www.w3.org/2000/svg">
<g clip-path="url(#clip0_9_3971)">
<path opacity="0.35" d="M13.5 0C13.223 0 13 0.223 13 0.5V8.004C13.774 8.004 14.47 8.314 15 8.804V0.5C15 0.223 14.777 0 14.5 0H13.5ZM10.5 3C10.223 3 10 3.223 10 3.5V11.004H10.014C10.0221 10.3893 10.2162 9.7914 10.5707 9.2891C10.9252 8.78681 11.4235 8.40363 12 8.19V3.5C12 3.223 11.777 3 11.5 3H10.5ZM7.5 6C7.223 6 7 6.223 7 6.5V14.5C7 14.777 7.223 15 7.5 15H8.5C8.777 15 9 14.777 9 14.5V6.5C9 6.223 8.777 6 8.5 6H7.5ZM4.5 9C4.223 9 4 9.223 4 9.5V14.5C4 14.777 4.223 15 4.5 15H5.5C5.777 15 6 14.777 6 14.5V9.5C6 9.223 5.777 9 5.5 9H4.5ZM1.5 12C1.223 12 1 12.223 1 12.5V14.5C1 14.777 1.223 15 1.5 15H2.5C2.777 15 3 14.777 3 14.5V12.5C3 12.223 2.777 12 2.5 12H1.5ZM11 13.004V15H11.5C11.777 15 12 14.777 12 14.5V13.004H11ZM13 13.004V14.5C13 14.777 13.223 15 13.5 15H14.5C14.777 15 15 14.777 15 14.5V13.004H13Z" fill="url(#paint0_linear_9_3971)"/>
<path d="M13 9.004C11.892 9.004 11 9.914 11 11.035V12.004H10V16.004H16V12.004H15V11.035C15 9.915 14.108 9.004 13 9.004ZM13 10.004C13.554 10.004 14 10.446 14 11.004V12.004H12V11.004C12 10.446 12.446 10.004 13 10.004Z" fill="url(#paint1_linear_9_3971)"/>
</g>
<defs>
<linearGradient id="paint0_linear_9_3971" x1="1" y1="7.5" x2="15" y2="7.5" gradientUnits="userSpaceOnUse">
<stop stop-color="#FDFC47"/>
<stop offset="1" stop-color="#24FE41"/>
</linearGradient>
<linearGradient id="paint1_linear_9_3971" x1="10" y1="12.504" x2="16" y2="12.504" gradientUnits="userSpaceOnUse">
<stop stop-color="#FDFC47"/>
<stop offset="1" stop-color="#24FE41"/>
</linearGradient>
<clipPath id="clip0_9_3971">
<rect width="16" height="16.004" fill="white"/>
</clipPath>
</defs>
</svg>
