<svg width="16" height="16" viewBox="0 0 16 16" fill="none" xmlns="http://www.w3.org/2000/svg">
<path opacity="0.35" d="M13.5 0C13.223 0 13 0.223 13 0.5V14.5C13 14.777 13.223 15 13.5 15H14.5C14.777 15 15 14.777 15 14.5V0.5C15 0.223 14.777 0 14.5 0H13.5ZM10.5 3C10.223 3 10 3.223 10 3.5V7H11C11.139 7 11.276 7.005 11.406 7.031C11.447 7.041 11.491 7.051 11.531 7.062C11.699 7.108 11.853 7.196 12.001 7.282V3.5C12.001 3.223 11.777 3 11.501 3H10.501H10.5ZM7.5 6C7.223 6 7 6.223 7 6.5V7H9V6.5C9 6.223 8.777 6 8.5 6H7.5ZM4 10.719V14.5C4 14.777 4.223 15 4.5 15H5.5C5.777 15 6 14.777 6 14.5V11H5C4.817 11 4.637 10.983 4.469 10.937C4.437 10.929 4.406 10.917 4.375 10.907C4.242 10.863 4.119 10.787 4 10.719ZM12 10.719C11.928 10.76 11.858 10.811 11.781 10.844C11.6998 10.8804 11.6163 10.9115 11.531 10.937C11.3579 10.9813 11.1797 11.0025 11.001 11H10.001V14.5C10.001 14.777 10.223 15 10.501 15H11.501C11.777 15 12.001 14.777 12.001 14.5V10.719H12ZM7 11V14.5C7 14.777 7.223 15 7.5 15H8.5C8.777 15 9 14.777 9 14.5V11H7ZM1.5 12C1.223 12 1 12.223 1 12.5V14.5C1 14.777 1.223 15 1.5 15H2.5C2.777 15 3 14.777 3 14.5V12.5C3 12.223 2.777 12 2.5 12H1.5Z" fill="url(#paint0_linear_9_3927)"/>
<path d="M5 8C4.73478 8 4.48043 8.10536 4.29289 8.29289C4.10536 8.48043 4 8.73478 4 9C4 9.26522 4.10536 9.51957 4.29289 9.70711C4.48043 9.89464 4.73478 10 5 10C5.26522 10 5.51957 9.89464 5.70711 9.70711C5.89464 9.51957 6 9.26522 6 9C6 8.73478 5.89464 8.48043 5.70711 8.29289C5.51957 8.10536 5.26522 8 5 8ZM8 8C7.73478 8 7.48043 8.10536 7.29289 8.29289C7.10536 8.48043 7 8.73478 7 9C7 9.26522 7.10536 9.51957 7.29289 9.70711C7.48043 9.89464 7.73478 10 8 10C8.26522 10 8.51957 9.89464 8.70711 9.70711C8.89464 9.51957 9 9.26522 9 9C9 8.73478 8.89464 8.48043 8.70711 8.29289C8.51957 8.10536 8.26522 8 8 8ZM11 8C10.7348 8 10.4804 8.10536 10.2929 8.29289C10.1054 8.48043 10 8.73478 10 9C10 9.26522 10.1054 9.51957 10.2929 9.70711C10.4804 9.89464 10.7348 10 11 10C11.2652 10 11.5196 9.89464 11.7071 9.70711C11.8946 9.51957 12 9.26522 12 9C12 8.73478 11.8946 8.48043 11.7071 8.29289C11.5196 8.10536 11.2652 8 11 8Z" fill="url(#paint1_linear_9_3927)"/>
<defs>
<linearGradient id="paint0_linear_9_3927" x1="1" y1="7.5" x2="15" y2="7.5" gradientUnits="userSpaceOnUse">
<stop stop-color="#FDFC47"/>
<stop offset="1" stop-color="#24FE41"/>
</linearGradient>
<linearGradient id="paint1_linear_9_3927" x1="4" y1="9" x2="12" y2="9" gradientUnits="userSpaceOnUse">
<stop stop-color="#FDFC47"/>
<stop offset="1" stop-color="#24FE41"/>
</linearGradient>
</defs>
</svg>
