<svg width="16" height="16" viewBox="0 0 16 16" fill="none" xmlns="http://www.w3.org/2000/svg">
<g clip-path="url(#clip0_9_4073)">
<path d="M0.115207 8.38085L3.11348 11.8331C3.30421 12.0528 3.61455 12.0541 3.80657 11.836C3.9986 11.618 3.99972 11.2632 3.80907 11.0437L1.15617 7.98901L3.82833 4.95646C4.02036 4.73843 4.02148 4.3837 3.83083 4.16418C3.64018 3.94457 3.32985 3.94328 3.13775 4.16131L0.117712 7.58868C0.0216973 7.6977 -0.0265362 7.84076 -0.0269895 7.98408C-0.027443 8.12748 0.019977 8.27104 0.115285 8.3808L0.115207 8.38085Z" fill="url(#paint0_linear_9_4073)"/>
<path d="M15.8845 7.61915L12.8863 4.16691C12.6956 3.9472 12.3852 3.94591 12.1932 4.16405C12.0012 4.38199 12 4.73675 12.1907 4.95626L14.8436 8.01099L12.1714 11.0435C11.9794 11.2616 11.9783 11.6163 12.1689 11.8358C12.3596 12.0554 12.6699 12.0567 12.862 11.8387L15.882 8.41132C15.9781 8.3023 16.0263 8.15924 16.0267 8.01592C16.0272 7.87252 15.9798 7.72896 15.8845 7.6192L15.8845 7.61915Z" fill="url(#paint1_linear_9_4073)"/>
<path d="M5.50014 5.50009V6.50009C5.50014 6.77609 5.60014 7.03809 5.78114 7.21909L6.56214 8.00009L5.78214 8.78109C5.59707 8.97424 5.49572 9.23263 5.50014 9.50009V10.5001H6.50014C6.77614 10.5001 7.03814 10.4001 7.21914 10.2191L8.00014 9.43809L8.78114 10.2181C8.96214 10.4001 9.22414 10.5001 9.50014 10.5001H10.5001V9.50009C10.5001 9.22409 10.4001 8.96209 10.2191 8.78109L9.43714 8.00009L10.2191 7.21909C10.3991 7.03809 10.5001 6.77609 10.5001 6.50009V5.50009H9.50014C9.22414 5.50009 8.96214 5.60009 8.78114 5.78109L8.00014 6.56209L7.21914 5.78209C7.026 5.59702 6.7676 5.49568 6.50014 5.50009H5.50014Z" fill="url(#paint2_linear_9_4073)"/>
</g>
<defs>
<linearGradient id="paint0_linear_9_4073" x1="3.9622" y1="8.0007" x2="-0.0270022" y2="7.98808" gradientUnits="userSpaceOnUse">
<stop stop-color="#FDFC47"/>
<stop offset="1" stop-color="#24FE41"/>
</linearGradient>
<linearGradient id="paint1_linear_9_4073" x1="12.0376" y1="7.9993" x2="16.0268" y2="8.01192" gradientUnits="userSpaceOnUse">
<stop stop-color="#FDFC47"/>
<stop offset="1" stop-color="#24FE41"/>
</linearGradient>
<linearGradient id="paint2_linear_9_4073" x1="5.5" y1="8.00002" x2="10.5001" y2="8.00002" gradientUnits="userSpaceOnUse">
<stop stop-color="#FDFC47"/>
<stop offset="1" stop-color="#24FE41"/>
</linearGradient>
<clipPath id="clip0_9_4073">
<rect width="16" height="16" fill="white"/>
</clipPath>
</defs>
</svg>
