<svg width="16" height="16" viewBox="0 0 16 16" fill="none" xmlns="http://www.w3.org/2000/svg">
<path opacity="0.35" d="M13.5 0C13.223 0 13 0.223 13 0.5V14.5C13 14.777 13.223 15 13.5 15H14.5C14.777 15 15 14.777 15 14.5V0.5C15 0.223 14.777 0 14.5 0H13.5ZM10.5 3C10.223 3 10 3.223 10 3.5V14.5C10 14.777 10.223 15 10.5 15H11.5C11.777 15 12 14.777 12 14.5V3.5C12 3.223 11.777 3 11.5 3H10.5ZM7.5 6C7.223 6 7 6.223 7 6.5V14.5C7 14.777 7.223 15 7.5 15H8.5C8.777 15 9 14.777 9 14.5V6.5C9 6.223 8.777 6 8.5 6H7.5ZM4.5 9C4.223 9 4 9.223 4 9.5V14.5C4 14.777 4.223 15 4.5 15H5.5C5.777 15 6 14.777 6 14.5V9.5C6 9.223 5.777 9 5.5 9H4.5Z" fill="url(#paint0_linear_9_3985)"/>
<path d="M1.5 12H2.5C2.777 12 3 12.224 3 12.5V14.5C3 14.778 2.777 15 2.5 15H1.5C1.4343 15.0001 1.36923 14.9873 1.3085 14.9622C1.24778 14.9371 1.19261 14.9003 1.14615 14.8538C1.0997 14.8074 1.06287 14.7522 1.03779 14.6915C1.01271 14.6308 0.999869 14.5657 1 14.5V12.5C1 12.224 1.223 12 1.5 12Z" fill="url(#paint1_linear_9_3985)"/>
<defs>
<linearGradient id="paint0_linear_9_3985" x1="4" y1="7.5" x2="15" y2="7.5" gradientUnits="userSpaceOnUse">
<stop stop-color="#FDFC47"/>
<stop offset="1" stop-color="#24FE41"/>
</linearGradient>
<linearGradient id="paint1_linear_9_3985" x1="1" y1="13.5" x2="3" y2="13.5" gradientUnits="userSpaceOnUse">
<stop stop-color="#FDFC47"/>
<stop offset="1" stop-color="#24FE41"/>
</linearGradient>
</defs>
</svg>
