<svg width="16" height="16" viewBox="0 0 16 16" fill="none" xmlns="http://www.w3.org/2000/svg">
<path d="M2 1V9C2 11.072 3.575 12.522 4.937 13.469C5.77966 14.0502 6.68051 14.5422 7.625 14.937L8 15.062L8.375 14.937C8.375 14.937 9.705 14.393 11.062 13.437C12.421 12.482 14 11.044 14 9V1H2ZM3 2H13V9C13 11.964 8 14 8 14C8 14 3 12.05 3 9V2Z" fill="url(#paint0_linear_9_4042)"/>
<path opacity="0.5" fill-rule="evenodd" clip-rule="evenodd" d="M6.58705 4.08601C6.48781 4.08535 6.39063 4.11429 6.30793 4.16914C6.22522 4.22399 6.16075 4.30225 6.12275 4.39392C6.08475 4.4856 6.07495 4.58652 6.09459 4.68379C6.11424 4.78107 6.16245 4.87027 6.23305 4.94001L7.29305 6.00001L6.23305 7.06001C6.18663 7.10644 6.1498 7.16155 6.12468 7.2222C6.09956 7.28285 6.08662 7.34786 6.08662 7.41351C6.08662 7.47916 6.09956 7.54417 6.12468 7.60483C6.1498 7.66548 6.18663 7.72059 6.23305 7.76701C6.27947 7.81344 6.33458 7.85026 6.39524 7.87538C6.45589 7.90051 6.5209 7.91344 6.58655 7.91344C6.6522 7.91344 6.71721 7.90051 6.77786 7.87538C6.83852 7.85026 6.89363 7.81344 6.94005 7.76701L8.00105 6.70701L9.06205 7.76701C9.10847 7.81344 9.16358 7.85026 9.22424 7.87538C9.28489 7.90051 9.3499 7.91344 9.41555 7.91344C9.4812 7.91344 9.54621 7.90051 9.60686 7.87538C9.66751 7.85026 9.72263 7.81344 9.76905 7.76701C9.81547 7.72059 9.8523 7.66548 9.87742 7.60483C9.90254 7.54417 9.91547 7.47916 9.91547 7.41351C9.91547 7.34786 9.90254 7.28285 9.87742 7.2222C9.8523 7.16155 9.81547 7.10644 9.76905 7.06001L8.70805 6.00001L9.76805 4.94001C9.81474 4.89364 9.85183 4.8385 9.87718 4.77777C9.90253 4.71704 9.91565 4.6519 9.91579 4.58609C9.91592 4.52028 9.90307 4.45508 9.87797 4.39425C9.85287 4.33341 9.81601 4.27813 9.76951 4.23156C9.723 4.18499 9.66777 4.14805 9.60697 4.12287C9.54617 4.09768 9.48099 4.08474 9.41518 4.08478C9.34937 4.08482 9.28422 4.09785 9.22345 4.12311C9.16268 4.14838 9.10749 4.18538 9.06105 4.23201L8.00105 5.29201L6.94105 4.23201C6.8946 4.18552 6.8394 4.14869 6.77864 4.12363C6.71789 4.09857 6.65277 4.08579 6.58705 4.08601Z" fill="url(#paint1_linear_9_4042)"/>
<defs>
<linearGradient id="paint0_linear_9_4042" x1="2" y1="8.031" x2="14" y2="8.031" gradientUnits="userSpaceOnUse">
<stop stop-color="#FDFC47"/>
<stop offset="1" stop-color="#24FE41"/>
</linearGradient>
<linearGradient id="paint1_linear_9_4042" x1="6.08472" y1="5.99911" x2="9.91579" y2="5.99911" gradientUnits="userSpaceOnUse">
<stop stop-color="#FDFC47"/>
<stop offset="1" stop-color="#24FE41"/>
</linearGradient>
</defs>
</svg>
