<svg width="16" height="16" viewBox="0 0 16 16" fill="none" xmlns="http://www.w3.org/2000/svg">
<path d="M8.00003 2.6452C5.34883 2.6452 2.69763 3.47369 0.37793 5.1307L1.04072 5.79349C5.68032 2.76949 10.3815 2.71819 14.9597 5.79349L15.6225 5.1307C13.3027 3.4737 10.6511 2.6452 8.00003 2.6452ZM8.00003 5.752C6.01163 5.752 4.02323 6.41479 2.36623 7.7404L3.02903 8.40319C6.34303 6.08339 9.65693 6.06269 12.9709 8.40319L13.6337 7.7404C11.9767 6.4148 9.98843 5.752 8.00003 5.752ZM8.00003 8.5689C6.67443 8.5689 5.34883 9.066 4.35463 10.0602L8.00003 13.7056L11.6454 10.0602C10.6512 9.06601 9.32563 8.5689 8.00003 8.5689Z" fill="url(#paint0_linear_9_4121)"/>
<defs>
<linearGradient id="paint0_linear_9_4121" x1="0.37793" y1="8.1754" x2="15.6225" y2="8.1754" gradientUnits="userSpaceOnUse">
<stop stop-color="#FDFC47"/>
<stop offset="1" stop-color="#24FE41"/>
</linearGradient>
</defs>
</svg>
