<svg width="16" height="16" viewBox="0 0 16 16" fill="none" xmlns="http://www.w3.org/2000/svg">
<g clip-path="url(#clip0_9_4062)">
<path d="M0.115207 8.38085L3.11348 11.8331C3.30421 12.0528 3.61455 12.0541 3.80657 11.836C3.9986 11.618 3.99972 11.2632 3.80907 11.0437L1.15617 7.98901L3.82833 4.95646C4.02036 4.73843 4.02148 4.3837 3.83083 4.16418C3.64018 3.94457 3.32985 3.94328 3.13775 4.16131L0.117712 7.58868C0.0216973 7.6977 -0.0265362 7.84076 -0.0269895 7.98408C-0.027443 8.12748 0.019977 8.27104 0.115285 8.3808L0.115207 8.38085Z" fill="url(#paint0_linear_9_4062)"/>
<path d="M15.8845 7.61915L12.8863 4.16691C12.6956 3.9472 12.3852 3.94591 12.1932 4.16405C12.0012 4.38199 12 4.73675 12.1907 4.95626L14.8436 8.01099L12.1714 11.0435C11.9794 11.2616 11.9783 11.6163 12.1689 11.8358C12.3596 12.0554 12.6699 12.0567 12.862 11.8387L15.882 8.41132C15.9781 8.3023 16.0263 8.15924 16.0267 8.01592C16.0272 7.87252 15.9798 7.72896 15.8845 7.6192L15.8845 7.61915Z" fill="url(#paint1_linear_9_4062)"/>
<path d="M7.99489 4C8.65252 4 9.18709 4.19569 9.59899 4.58594C10.0109 4.96896 10.2162 5.46008 10.2162 6.05994C10.2162 6.3201 10.1477 6.58422 10.0104 6.85161C9.87314 7.119 9.75166 7.30891 9.64326 7.42453C9.54209 7.53293 9.39626 7.67557 9.20836 7.84901L9.15628 7.9037C8.71545 8.30117 8.49481 8.69633 8.49481 9.0938V9.5287H7.47401V9.01828C7.47401 8.69308 7.54243 8.4162 7.67974 8.18494C7.81705 7.94646 8.05942 7.66698 8.4063 7.349C8.60142 7.16833 8.73826 7.03468 8.81776 6.94796C8.90448 6.85401 8.98827 6.72935 9.06776 6.57036C9.15448 6.40415 9.19797 6.23338 9.19797 6.05994C9.19797 5.72751 9.08925 5.4602 8.87245 5.25785C8.66288 5.0555 8.37063 4.95315 7.99484 4.95315C7.37334 4.95315 6.94744 5.30105 6.71624 5.99485L5.78394 5.60422C5.9357 5.1923 6.19662 4.82264 6.5652 4.49742C6.94099 4.16499 7.41674 4 7.99489 4ZM7.98449 10.526C8.19406 10.526 8.36801 10.5976 8.50532 10.7422C8.64985 10.8867 8.72147 11.0606 8.72147 11.263C8.72147 11.4653 8.64985 11.6393 8.50532 11.7838C8.36801 11.9283 8.19405 12 7.98448 12C7.77491 12 7.59776 11.9283 7.45322 11.7838C7.31591 11.6393 7.24749 11.4653 7.24749 11.263C7.24749 11.0606 7.31591 10.8867 7.45322 10.7422C7.59775 10.5976 7.77491 10.526 7.98449 10.526Z" fill="url(#paint2_linear_9_4062)"/>
</g>
<defs>
<linearGradient id="paint0_linear_9_4062" x1="3.9622" y1="8.0007" x2="-0.0270022" y2="7.98808" gradientUnits="userSpaceOnUse">
<stop stop-color="#FDFC47"/>
<stop offset="1" stop-color="#24FE41"/>
</linearGradient>
<linearGradient id="paint1_linear_9_4062" x1="12.0376" y1="7.9993" x2="16.0268" y2="8.01192" gradientUnits="userSpaceOnUse">
<stop stop-color="#FDFC47"/>
<stop offset="1" stop-color="#24FE41"/>
</linearGradient>
<linearGradient id="paint2_linear_9_4062" x1="5.78394" y1="7.99998" x2="10.2162" y2="7.99998" gradientUnits="userSpaceOnUse">
<stop stop-color="#FDFC47"/>
<stop offset="1" stop-color="#24FE41"/>
</linearGradient>
<clipPath id="clip0_9_4062">
<rect width="16" height="16" fill="white"/>
</clipPath>
</defs>
</svg>
