<svg width="16" height="16" viewBox="0 0 16 16" fill="none" xmlns="http://www.w3.org/2000/svg">
<path d="M2 3.765V12.283C2 13.997 3.5 13.997 3.5 13.997H12.5C14 13.997 14 12.283 14 12.283V3.71C14 3.71 14 1.996 12.5 1.996H3.5C3.5 1.996 2 1.997 2 3.765ZM3.5 3.711H6.5C7 3.725 7.375 4.43 7.156 4.944L6.126 7.327C6.391 7.427 6.687 7.495 6.852 7.702C7.101 8.016 7.25 8.397 7.25 8.854V10.569C7.25 11.522 6.57 12.283 5.75 12.283H3.5V10.569H5.75V8.854H5C4.5 8.84 4.125 8.136 4.344 7.622L5.281 5.426H3.501L3.5 3.711ZM11 3.711C12.5 3.711 12.5 5.426 12.5 5.426V6.283H11V5.426H9.5V10.569H11V8.854H10.25V7.167L11.75 7.14L12.5 7.167V10.542C12.5 10.542 12.5 12.282 11 12.282H9.5C9.5 12.282 8 12.282 8 10.569V5.426C8 3.71 9.5 3.71 9.5 3.71L11 3.711Z" fill="url(#paint0_linear_9_3923)"/>
<defs>
<linearGradient id="paint0_linear_9_3923" x1="2" y1="7.9965" x2="14" y2="7.9965" gradientUnits="userSpaceOnUse">
<stop stop-color="#FDFC47"/>
<stop offset="1" stop-color="#24FE41"/>
</linearGradient>
</defs>
</svg>
