<svg width="17" height="16" viewBox="0 0 17 16" fill="none" xmlns="http://www.w3.org/2000/svg">
<path fill-rule="evenodd" clip-rule="evenodd" d="M7.99997 3C5.15947 3 2.56757 4.0071 0.513675 5.6582C0.47899 5.67836 0.446858 5.70263 0.417972 5.73047C0.369423 5.77693 0.330737 5.8327 0.304226 5.89444C0.277714 5.95619 0.263922 6.02265 0.263672 6.08985C0.263813 6.15988 0.278665 6.2291 0.307265 6.29303C0.335864 6.35695 0.377574 6.41416 0.429692 6.46094C0.532691 6.28646 0.653099 6.12286 0.789072 5.97266C1.11474 5.6187 1.52074 5.34823 1.97283 5.18405C2.42493 5.01987 2.90987 4.9668 3.38677 5.0293C4.78797 4.37238 6.34867 4 8.00007 4C9.64987 4 11.2093 4.37158 12.6095 5.0273C13.0419 4.97022 13.4815 5.0081 13.8978 5.13831C14.314 5.26851 14.6969 5.48791 15.0197 5.78121L15.049 5.80855C15.2531 6.00049 15.4292 6.22007 15.5724 6.46089C15.6242 6.41394 15.6655 6.35665 15.6938 6.29273C15.722 6.22882 15.7366 6.15969 15.7365 6.0898C15.7362 6.0226 15.7224 5.95614 15.6959 5.8944C15.6694 5.83265 15.6307 5.77688 15.5822 5.73042C15.5533 5.70258 15.5212 5.67832 15.4865 5.65815C13.4326 4.00705 10.8404 3 7.99997 3ZM5.50197 9.6543C5.4118 9.79126 5.31055 9.9206 5.19924 10.041C4.93522 10.3243 4.61885 10.5538 4.2676 10.7168C4.3179 10.9398 4.50794 11.1094 4.74612 11.1094C4.87048 11.1091 4.99025 11.0624 5.08206 10.9785C5.4166 10.7331 5.78625 10.537 6.17386 10.377C6.10232 10.3228 6.03324 10.2654 5.96683 10.2051C5.79032 10.0408 5.63423 9.8559 5.50197 9.6543ZM10.502 9.6543C10.4118 9.79126 10.3106 9.9206 10.1992 10.041C10.0839 10.1633 9.95844 10.2757 9.82425 10.377C10.2125 10.5371 10.583 10.7328 10.918 10.9785C11.0099 11.0624 11.1296 11.109 11.254 11.1094C11.4928 11.1094 11.6829 10.9388 11.7325 10.7149C11.4526 10.5853 11.1944 10.4134 10.9669 10.2051C10.7904 10.0408 10.6342 9.8559 10.502 9.6543Z" fill="url(#paint0_linear_9_4099)"/>
<path d="M8 14C8.55228 14 9 13.5523 9 13C9 12.4477 8.55228 12 8 12C7.44772 12 7 12.4477 7 13C7 13.5523 7.44772 14 8 14Z" fill="url(#paint1_linear_9_4099)"/>
<path fill-rule="evenodd" clip-rule="evenodd" d="M4.36538 6.5386C4.75216 6.89996 4.97993 7.39991 4.99876 7.92889C5.01759 8.45788 4.82595 8.97276 4.46584 9.3607C4.10571 9.74861 3.6065 9.97795 3.0776 9.99846C2.54869 10.019 2.03322 9.82897 1.64414 9.47011C1.2551 9.11122 1.02419 8.61275 1.002 8.08392C0.979818 7.55509 1.16817 7.03903 1.52578 6.64881C1.88343 6.25864 2.38117 6.02616 2.90992 6.00229C3.43868 5.97843 3.95533 6.16514 4.34668 6.52151" fill="url(#paint2_linear_9_4099)"/>
<path fill-rule="evenodd" clip-rule="evenodd" d="M9.36538 6.5386C9.75216 6.89996 9.97993 7.39991 9.99876 7.92889C10.0176 8.45788 9.82595 8.97276 9.46584 9.3607C9.10571 9.74861 8.6065 9.97795 8.0776 9.99846C7.54869 10.019 7.03322 9.82897 6.64414 9.47011C6.2551 9.11122 6.02419 8.61275 6.002 8.08392C5.97982 7.55509 6.16817 7.03903 6.52578 6.64881C6.88343 6.25864 7.38117 6.02616 7.90992 6.00229C8.43868 5.97843 8.95533 6.16514 9.34668 6.52151" fill="url(#paint3_linear_9_4099)"/>
<path fill-rule="evenodd" clip-rule="evenodd" d="M14.3651 6.5386C14.7519 6.89996 14.9797 7.39991 14.9985 7.92889C15.0173 8.45788 14.8257 8.97276 14.4656 9.3607C14.1055 9.74861 13.6063 9.97795 13.0774 9.99846C12.5484 10.019 12.033 9.82897 11.6439 9.47011C11.2549 9.11122 11.0239 8.61275 11.0018 8.08392C10.9796 7.55509 11.1679 7.03903 11.5255 6.64881C11.8832 6.25864 12.3809 6.02616 12.9097 6.00229C13.4384 5.97843 13.9551 6.16514 14.3464 6.52151" fill="url(#paint4_linear_9_4099)"/>
<defs>
<linearGradient id="paint0_linear_9_4099" x1="0.263672" y1="7.05467" x2="15.7365" y2="7.05467" gradientUnits="userSpaceOnUse">
<stop stop-color="#FDFC47"/>
<stop offset="1" stop-color="#24FE41"/>
</linearGradient>
<linearGradient id="paint1_linear_9_4099" x1="7" y1="13" x2="9" y2="13" gradientUnits="userSpaceOnUse">
<stop stop-color="#FDFC47"/>
<stop offset="1" stop-color="#24FE41"/>
</linearGradient>
<linearGradient id="paint2_linear_9_4099" x1="1.00024" y1="8.00011" x2="5.00003" y2="8.00011" gradientUnits="userSpaceOnUse">
<stop stop-color="#FDFC47"/>
<stop offset="1" stop-color="#24FE41"/>
</linearGradient>
<linearGradient id="paint3_linear_9_4099" x1="6.00024" y1="8.00011" x2="10" y2="8.00011" gradientUnits="userSpaceOnUse">
<stop stop-color="#FDFC47"/>
<stop offset="1" stop-color="#24FE41"/>
</linearGradient>
<linearGradient id="paint4_linear_9_4099" x1="11" y1="8.00011" x2="14.9998" y2="8.00011" gradientUnits="userSpaceOnUse">
<stop stop-color="#FDFC47"/>
<stop offset="1" stop-color="#24FE41"/>
</linearGradient>
</defs>
</svg>
