<svg width="16" height="16" viewBox="0 0 16 16" fill="none" xmlns="http://www.w3.org/2000/svg">
<path d="M3.72409 1.901C3.72409 1.901 1.99609 1.901 1.99609 3.684V12.272C1.99609 14.002 3.72409 14.002 3.72409 14.002H12.3671C14.0961 14.002 14.0961 12.272 14.0961 12.272V3.63C14.0961 3.63 14.0961 1.901 12.3671 1.901H3.72409ZM6.31709 3.63H9.77509C11.5031 3.63 11.5481 5.662 11.5031 5.358V6.222H9.77509V5.358H6.31709V10.544H9.77509V9.68H8.04609V7.95H11.5031V10.543C11.5031 10.543 11.5031 12.271 9.77509 12.271H6.31709C6.31709 12.271 4.58909 12.271 4.58909 10.543V5.358C4.58909 3.63 6.31709 3.63 6.31709 3.63Z" fill="url(#paint0_linear_9_3947)"/>
<defs>
<linearGradient id="paint0_linear_9_3947" x1="1.99609" y1="7.9515" x2="14.0961" y2="7.9515" gradientUnits="userSpaceOnUse">
<stop stop-color="#FDFC47"/>
<stop offset="1" stop-color="#24FE41"/>
</linearGradient>
</defs>
</svg>
