<svg width="17" height="17" viewBox="0 0 17 17" fill="none" xmlns="http://www.w3.org/2000/svg">
<g clip-path="url(#clip0_9_4127)">
<path fill-rule="evenodd" clip-rule="evenodd" d="M7.99997 3.007C5.15947 3.007 2.56757 4.0141 0.513675 5.6652C0.47899 5.68537 0.446858 5.70963 0.417972 5.73747C0.369423 5.78393 0.330737 5.8397 0.304226 5.90145C0.277714 5.96319 0.263922 6.02965 0.263672 6.09685C0.263672 6.22946 0.31635 6.35664 0.410118 6.4504C0.503887 6.54417 0.631064 6.59685 0.763672 6.59685C0.879722 6.59718 0.992274 6.55713 1.08203 6.48357C2.97303 4.94477 5.37183 4.00697 8.00003 4.00697C10.6282 4.00697 13.0269 4.94473 14.918 6.48357C15.0078 6.55713 15.1203 6.59718 15.2364 6.59685C15.369 6.59685 15.4962 6.54417 15.5899 6.4504C15.6837 6.35664 15.7364 6.22946 15.7364 6.09685C15.7361 6.02965 15.7224 5.96319 15.6958 5.90145C15.6693 5.8397 15.6306 5.78393 15.5821 5.73747C15.5532 5.70963 15.5211 5.68537 15.4864 5.6652C13.4325 4.0141 10.8404 3.007 7.99997 3.007Z" fill="url(#paint0_linear_9_4127)"/>
<path d="M7.99996 9.00781C6.64746 9.00781 5.41676 9.47672 4.41406 10.2324C4.30372 10.3274 4.24611 10.4716 4.24609 10.6172C4.24609 10.8933 4.46995 11.1172 4.74609 11.1172C4.87045 11.1169 4.99022 11.0702 5.08203 10.9863C5.90418 10.3833 6.90193 10.0078 8.00003 10.0078C8.69472 10.0078 9.34223 10.1705 9.93753 10.4336V10.0078H11.2383C10.3022 9.3929 9.20416 9.00781 7.99996 9.00781Z" fill="url(#paint1_linear_9_4127)"/>
<path fill-rule="evenodd" clip-rule="evenodd" d="M8.00002 6.007C5.92692 6.007 4.03192 6.72426 2.51172 7.9035C2.47487 7.92387 2.44075 7.94881 2.41016 7.97772C2.36102 8.02424 2.32183 8.08025 2.29497 8.14236C2.26812 8.20447 2.25415 8.27139 2.25391 8.33905C2.25391 8.47166 2.30658 8.59884 2.40035 8.69261C2.49412 8.78637 2.6213 8.83905 2.75391 8.83905C2.87087 8.83929 2.98421 8.79851 3.07422 8.72382C4.43302 7.65502 6.13692 7.00702 8.00002 7.00702C9.86312 7.00702 11.567 7.65498 12.9258 8.72382C13.0158 8.79851 13.1292 8.83929 13.2461 8.83905C13.3787 8.83905 13.5059 8.78637 13.5997 8.69261C13.6934 8.59884 13.7461 8.47166 13.7461 8.33905C13.7459 8.27139 13.7319 8.20447 13.7051 8.14236C13.6782 8.08025 13.639 8.02424 13.5899 7.97772C13.5593 7.94881 13.5252 7.92387 13.4883 7.9035C11.9681 6.7243 10.0731 6.007 8.00002 6.007Z" fill="url(#paint2_linear_9_4127)"/>
<path d="M8 14.007C8.55228 14.007 9 13.5593 9 13.007C9 12.4547 8.55228 12.007 8 12.007C7.44772 12.007 7 12.4547 7 13.007C7 13.5593 7.44772 14.007 8 14.007Z" fill="url(#paint3_linear_9_4127)"/>
<path d="M10.9369 11.007V12.007C10.9369 12.283 11.0369 12.544 11.2189 12.725L11.9989 13.507L11.2189 14.287C11.0336 14.4804 10.9322 14.7392 10.9369 15.007V16.007H11.9369C12.2129 16.007 12.4749 15.907 12.6559 15.725L13.4369 14.945L14.2189 15.725C14.3989 15.906 14.6609 16.007 14.9369 16.007H15.9369V15.007C15.9369 14.731 15.8369 14.469 15.6559 14.287L14.8749 13.507L15.6559 12.725C15.8369 12.545 15.9369 12.283 15.9369 12.007V11.007H14.9369C14.6609 11.007 14.3999 11.107 14.2189 11.287L13.4369 12.069L12.6559 11.288C12.4626 11.1033 12.2042 11.0023 11.9369 11.007H10.9369Z" fill="url(#paint4_linear_9_4127)"/>
</g>
<defs>
<linearGradient id="paint0_linear_9_4127" x1="0.263672" y1="4.80193" x2="15.7364" y2="4.80193" gradientUnits="userSpaceOnUse">
<stop stop-color="#FDFC47"/>
<stop offset="1" stop-color="#24FE41"/>
</linearGradient>
<linearGradient id="paint1_linear_9_4127" x1="4.24609" y1="10.0625" x2="11.2383" y2="10.0625" gradientUnits="userSpaceOnUse">
<stop stop-color="#FDFC47"/>
<stop offset="1" stop-color="#24FE41"/>
</linearGradient>
<linearGradient id="paint2_linear_9_4127" x1="2.25391" y1="7.42303" x2="13.7461" y2="7.42303" gradientUnits="userSpaceOnUse">
<stop stop-color="#FDFC47"/>
<stop offset="1" stop-color="#24FE41"/>
</linearGradient>
<linearGradient id="paint3_linear_9_4127" x1="7" y1="13.007" x2="9" y2="13.007" gradientUnits="userSpaceOnUse">
<stop stop-color="#FDFC47"/>
<stop offset="1" stop-color="#24FE41"/>
</linearGradient>
<linearGradient id="paint4_linear_9_4127" x1="10.9368" y1="13.5069" x2="15.9369" y2="13.5069" gradientUnits="userSpaceOnUse">
<stop stop-color="#FDFC47"/>
<stop offset="1" stop-color="#24FE41"/>
</linearGradient>
<clipPath id="clip0_9_4127">
<rect width="16.028" height="16.007" fill="white"/>
</clipPath>
</defs>
</svg>
