<svg width="16" height="16" viewBox="0 0 16 16" fill="none" xmlns="http://www.w3.org/2000/svg">
<path fill-rule="evenodd" clip-rule="evenodd" d="M7.99997 3C5.15947 3 2.56757 4.0071 0.513675 5.6582C0.47899 5.67836 0.446858 5.70263 0.417972 5.73047C0.369423 5.77693 0.330737 5.8327 0.304226 5.89445C0.277714 5.95619 0.263922 6.02265 0.263672 6.08985C0.263672 6.22246 0.31635 6.34963 0.410118 6.4434C0.503887 6.53717 0.631064 6.58985 0.763672 6.58985C0.879722 6.59018 0.992274 6.55013 1.08203 6.47657C2.97303 4.93777 5.37183 3.99997 8.00003 3.99997C9.62623 3.99997 11.1643 4.36172 12.5488 4.99997H14C14.2652 5 14.5196 5.10536 14.7071 5.29289C14.8946 5.48042 15 5.73476 15 5.99997V6.52927C15.0726 6.56865 15.1538 6.58946 15.2364 6.58982C15.369 6.58982 15.4961 6.53714 15.5899 6.44337C15.6837 6.3496 15.7364 6.22242 15.7364 6.08982C15.7361 6.02262 15.7223 5.95616 15.6958 5.89441C15.6693 5.83267 15.6306 5.7769 15.5821 5.73044C15.5532 5.70259 15.521 5.67833 15.4864 5.65817C13.4325 4.00707 10.8404 3 7.99997 3ZM7.99997 6C5.92687 6 4.03187 6.71724 2.51167 7.8965C2.47483 7.91687 2.44071 7.9418 2.41012 7.97072C2.36098 8.01724 2.32179 8.07325 2.29493 8.13536C2.26808 8.19747 2.2541 8.26439 2.25386 8.33205C2.25386 8.46466 2.30654 8.59184 2.40031 8.6856C2.49408 8.77937 2.62126 8.83205 2.75387 8.83205C2.87083 8.83229 2.98417 8.79151 3.07417 8.71682C4.43297 7.64802 6.13687 7.00002 7.99997 7.00002C9.06437 7.00002 10.0742 7.21701 11 7.59768V6.52538C10.063 6.18741 9.05517 6 7.99997 6ZM7.99997 9C6.64747 9 5.41677 9.46892 4.41407 10.2246C4.30373 10.3196 4.24612 10.4638 4.2461 10.6094C4.2461 10.8855 4.46996 11.1094 4.7461 11.1094C4.87046 11.109 4.99023 11.0624 5.08204 10.9785C5.90419 10.3755 6.90194 9.99999 8.00004 9.99999C9.09814 9.99999 10.0958 10.3755 10.918 10.9785C10.9779 11.0332 11.0518 11.0654 11.129 11.0859L11.0079 10.125C11.0027 10.0835 11.0001 10.0418 11.0001 9.99999V9.84765C10.1169 9.32305 9.10257 9 7.99997 9ZM7.99997 12C7.73476 12 7.4804 12.1054 7.29287 12.2929C7.10533 12.4804 6.99997 12.7348 6.99997 13C6.99997 13.2652 7.10533 13.5196 7.29287 13.7071C7.4804 13.8946 7.73476 14 7.99997 14C8.26519 14 8.51955 13.8946 8.70708 13.7071C8.89462 13.5196 8.99998 13.2652 8.99998 13C8.99998 12.7348 8.89462 12.4804 8.70708 12.2929C8.51955 12.1054 8.26519 12 7.99997 12Z" fill="url(#paint0_linear_9_4117)"/>
<path d="M12 6V10L12.25 12H13.75L14 10V6H12ZM12 13V15H14V13H12Z" fill="url(#paint1_linear_9_4117)"/>
<defs>
<linearGradient id="paint0_linear_9_4117" x1="0.263672" y1="8.49999" x2="15.7364" y2="8.49999" gradientUnits="userSpaceOnUse">
<stop stop-color="#FDFC47"/>
<stop offset="1" stop-color="#24FE41"/>
</linearGradient>
<linearGradient id="paint1_linear_9_4117" x1="12" y1="6" x2="17.2" y2="8.6" gradientUnits="userSpaceOnUse">
<stop stop-color="#FF0500"/>
<stop offset="1" stop-color="#FD3632"/>
</linearGradient>
</defs>
</svg>
