<svg width="16" height="16" viewBox="0 0 16 16" fill="none" xmlns="http://www.w3.org/2000/svg">
<g clip-path="url(#clip0_9_3997)">
<path d="M7.11108 4V7.5556L7.3333 9.3334H8.6666L8.88882 7.5556V4H7.11108ZM7.11108 10.2222V12H8.88888V10.2222H7.11108Z" fill="url(#paint0_linear_9_3997)"/>
<path d="M0.115207 8.38083L3.11348 11.8331C3.30421 12.0528 3.61455 12.0541 3.80657 11.8359C3.9986 11.618 3.99972 11.2632 3.80907 11.0437L1.15617 7.98899L3.82833 4.95644C4.02036 4.73841 4.02148 4.38369 3.83083 4.16416C3.64018 3.94455 3.32985 3.94327 3.13775 4.1613L0.117712 7.58866C0.0216973 7.69768 -0.0265362 7.84074 -0.0269895 7.98407C-0.027443 8.12746 0.019977 8.27102 0.115285 8.38078L0.115207 8.38083Z" fill="url(#paint1_linear_9_3997)"/>
<path d="M15.8845 7.61917L12.8863 4.16693C12.6956 3.94721 12.3852 3.94593 12.1932 4.16406C12.0012 4.38201 12 4.73677 12.1907 4.95627L14.8436 8.01101L12.1714 11.0436C11.9794 11.2616 11.9783 11.6163 12.1689 11.8358C12.3596 12.0554 12.6699 12.0567 12.862 11.8387L15.882 8.41134C15.9781 8.30232 16.0263 8.15926 16.0267 8.01593C16.0272 7.87254 15.9798 7.72898 15.8845 7.61922L15.8845 7.61917Z" fill="url(#paint2_linear_9_3997)"/>
</g>
<defs>
<linearGradient id="paint0_linear_9_3997" x1="7.11108" y1="4" x2="11.7333" y2="6.31116" gradientUnits="userSpaceOnUse">
<stop stop-color="#FF0500"/>
<stop offset="1" stop-color="#FD3632"/>
</linearGradient>
<linearGradient id="paint1_linear_9_3997" x1="3.9622" y1="8.00068" x2="-0.0270022" y2="7.98807" gradientUnits="userSpaceOnUse">
<stop stop-color="#FDFC47"/>
<stop offset="1" stop-color="#24FE41"/>
</linearGradient>
<linearGradient id="paint2_linear_9_3997" x1="12.0376" y1="7.99932" x2="16.0268" y2="8.01193" gradientUnits="userSpaceOnUse">
<stop stop-color="#FDFC47"/>
<stop offset="1" stop-color="#24FE41"/>
</linearGradient>
<clipPath id="clip0_9_3997">
<rect width="16" height="16" fill="white"/>
</clipPath>
</defs>
</svg>
