<svg width="16" height="16" viewBox="0 0 16 16" fill="none" xmlns="http://www.w3.org/2000/svg">
<path d="M7 3V7L7.25 9H8.75L9 7V3H7ZM7 10V12H9V10H7Z" fill="url(#paint0_linear_9_4045)"/>
<path d="M2 1V9C2 11.072 3.575 12.522 4.937 13.469C5.77966 14.0502 6.68051 14.5422 7.625 14.937L8 15.062L8.375 14.937C8.375 14.937 9.705 14.393 11.062 13.437C12.421 12.482 14 11.044 14 9V1H2ZM3 2H13V9C13 11.964 8 14 8 14C8 14 3 12.05 3 9V2Z" fill="url(#paint1_linear_9_4045)"/>
<defs>
<linearGradient id="paint0_linear_9_4045" x1="7" y1="3" x2="12.2" y2="5.6" gradientUnits="userSpaceOnUse">
<stop stop-color="#FF0500"/>
<stop offset="1" stop-color="#FD3632"/>
</linearGradient>
<linearGradient id="paint1_linear_9_4045" x1="2" y1="8.031" x2="14" y2="8.031" gradientUnits="userSpaceOnUse">
<stop stop-color="#FDFC47"/>
<stop offset="1" stop-color="#24FE41"/>
</linearGradient>
</defs>
</svg>
