<svg width="16" height="16" viewBox="0 0 16 16" fill="none" xmlns="http://www.w3.org/2000/svg">
<g clip-path="url(#clip0_9_4135)">
<path d="M8 3C6.67392 3 5.40216 3.52678 4.46448 4.46446C3.5268 5.40214 3 6.67392 3 8C3 9.32608 3.5268 10.5979 4.46448 11.5355C5.40216 12.4732 6.67392 13 8 13C9.32608 13 10.5978 12.4732 11.5355 11.5355C12.4732 10.5979 13 9.32608 13 8C13 6.67392 12.4732 5.40214 11.5355 4.46446C10.5978 3.52678 9.32608 3 8 3ZM6.95105 4C6.59114 4.43981 6.34071 4.95881 6.22058 5.51427C6.10045 6.06973 6.114 6.64577 6.26001 7.195C6.50682 8.11578 7.10912 8.90088 7.93457 9.37774C8.76002 9.85459 9.74104 9.98417 10.662 9.738C11.152 9.605 11.608 9.368 12 9.047C11.8057 9.72263 11.4402 10.3367 10.939 10.8296C10.4377 11.3226 9.8178 11.6779 9.13904 11.861C8.10573 12.123 7.01081 11.9704 6.08862 11.4356C5.16644 10.9008 4.49019 10.0265 4.20435 8.9995C3.9185 7.97253 4.04578 6.87447 4.55908 5.94017C5.07238 5.00587 5.93095 4.3095 6.95105 4ZM8.5 0H7.5V2H8.5V0ZM13.303 1.99L11.889 3.404L12.5959 4.111L14.011 2.697L13.303 1.99ZM2.69702 1.99L1.98999 2.697L3.40405 4.111L4.11096 3.404L2.69702 1.99ZM16 7.5H14V8.5H16V7.5ZM2 7.5H0V8.5H2V7.5ZM12.5959 11.889L11.889 12.596L13.303 14.01L14.01 13.303L12.5959 11.889ZM3.40405 11.889L1.98999 13.303L2.69702 14.01L4.11096 12.596L3.40405 11.889ZM8.5 13.999H7.5V15.999H8.5V13.999Z" fill="url(#paint0_linear_9_4135)"/>
</g>
<defs>
<linearGradient id="paint0_linear_9_4135" x1="0" y1="7.9995" x2="16" y2="7.9995" gradientUnits="userSpaceOnUse">
<stop stop-color="#FDFC47"/>
<stop offset="1" stop-color="#24FE41"/>
</linearGradient>
<clipPath id="clip0_9_4135">
<rect width="16" height="16" fill="white"/>
</clipPath>
</defs>
</svg>
