<svg width="16" height="16" viewBox="0 0 16 16" fill="none" xmlns="http://www.w3.org/2000/svg">
<path fill-rule="evenodd" clip-rule="evenodd" d="M7.99997 3C5.15947 3 2.56757 4.0071 0.513675 5.6582C0.47899 5.67836 0.446858 5.70262 0.417972 5.73047C0.369423 5.77693 0.330737 5.8327 0.304226 5.89444C0.277714 5.95619 0.263922 6.02265 0.263672 6.08985C0.263672 6.22245 0.31635 6.34963 0.410118 6.4434C0.503887 6.53717 0.631064 6.58985 0.763672 6.58985C0.879722 6.59018 0.992274 6.55013 1.08203 6.47657C2.97303 4.93777 5.37183 3.99997 8.00003 3.99997C10.6282 3.99997 13.0269 4.93773 14.918 6.47657C15.0078 6.55013 15.1203 6.59018 15.2364 6.58985C15.369 6.58985 15.4962 6.53717 15.5899 6.4434C15.6837 6.34963 15.7364 6.22245 15.7364 6.08985C15.7361 6.02265 15.7224 5.95619 15.6958 5.89444C15.6693 5.8327 15.6306 5.77693 15.5821 5.73047C15.5532 5.70263 15.5211 5.67836 15.4864 5.6582C13.4325 4.0071 10.8404 3 7.99997 3Z" fill="url(#paint0_linear_9_4202)"/>
<path d="M7.99996 8.99999C6.64746 8.99999 5.41676 9.4689 4.41406 10.2246C4.30372 10.3196 4.24611 10.4638 4.24609 10.6094C4.24609 10.8855 4.46995 11.1094 4.74609 11.1094C4.87045 11.109 4.99022 11.0624 5.08203 10.9785C5.90418 10.3754 6.90193 9.99998 8.00003 9.99998C8.92549 9.99998 9.77193 10.2778 10.5098 10.7226C10.6535 10.4129 10.8385 10.1313 11.0606 9.8867C10.1634 9.33964 9.12836 8.99999 7.99996 8.99999Z" fill="url(#paint1_linear_9_4202)"/>
<path fill-rule="evenodd" clip-rule="evenodd" d="M8.00002 6C5.92692 6 4.03192 6.71726 2.51172 7.8965C2.47487 7.91687 2.44075 7.9418 2.41016 7.97072C2.36102 8.01724 2.32183 8.07325 2.29497 8.13536C2.26812 8.19747 2.25415 8.26438 2.25391 8.33205C2.25391 8.46466 2.30658 8.59183 2.40035 8.6856C2.49412 8.77937 2.6213 8.83205 2.75391 8.83205C2.87087 8.83229 2.98421 8.79151 3.07422 8.71682C4.43302 7.64802 6.13692 7.00002 8.00002 7.00002C9.86312 7.00002 11.567 7.64798 12.9258 8.71682C13.0158 8.79151 13.1292 8.83229 13.2461 8.83205C13.3787 8.83205 13.5059 8.77937 13.5997 8.6856C13.6934 8.59183 13.7461 8.46466 13.7461 8.33205C13.7459 8.26438 13.7319 8.19747 13.7051 8.13536C13.6782 8.07325 13.639 8.01724 13.5899 7.97072C13.5593 7.9418 13.5252 7.91687 13.4883 7.8965C11.9681 6.7173 10.0731 6 8.00002 6Z" fill="url(#paint2_linear_9_4202)"/>
<path d="M8 14C8.55228 14 9 13.5523 9 13C9 12.4477 8.55228 12 8 12C7.44772 12 7 12.4477 7 13C7 13.5523 7.44772 14 8 14Z" fill="url(#paint3_linear_9_4202)"/>
<path fill-rule="evenodd" clip-rule="evenodd" d="M13 10C11.892 10 11 10.892 11 12C10.446 12 10 12.446 10 13V15C10 15.554 10.446 16 11 16H15C15.554 16 16 15.554 16 15V13C16 12.446 15.554 12 15 12C15 10.892 14.108 10 13 10ZM13 11C13.554 11 14 11.446 14 12H12C12 11.446 12.446 11 13 11Z" fill="url(#paint4_linear_9_4202)"/>
<defs>
<linearGradient id="paint0_linear_9_4202" x1="0.263672" y1="4.79492" x2="15.7364" y2="4.79492" gradientUnits="userSpaceOnUse">
<stop stop-color="#FDFC47"/>
<stop offset="1" stop-color="#24FE41"/>
</linearGradient>
<linearGradient id="paint1_linear_9_4202" x1="4.24609" y1="10.0547" x2="11.0606" y2="10.0547" gradientUnits="userSpaceOnUse">
<stop stop-color="#FDFC47"/>
<stop offset="1" stop-color="#24FE41"/>
</linearGradient>
<linearGradient id="paint2_linear_9_4202" x1="2.25391" y1="7.41603" x2="13.7461" y2="7.41603" gradientUnits="userSpaceOnUse">
<stop stop-color="#FDFC47"/>
<stop offset="1" stop-color="#24FE41"/>
</linearGradient>
<linearGradient id="paint3_linear_9_4202" x1="7" y1="13" x2="9" y2="13" gradientUnits="userSpaceOnUse">
<stop stop-color="#FDFC47"/>
<stop offset="1" stop-color="#24FE41"/>
</linearGradient>
<linearGradient id="paint4_linear_9_4202" x1="10" y1="13" x2="16" y2="13" gradientUnits="userSpaceOnUse">
<stop stop-color="#FDFC47"/>
<stop offset="1" stop-color="#24FE41"/>
</linearGradient>
</defs>
</svg>
