<svg width="16" height="16" viewBox="0 0 16 16" fill="none" xmlns="http://www.w3.org/2000/svg">
<path opacity="0.35" d="M8 1C7.86033 1.00014 7.72223 1.02953 7.59461 1.08629C7.46699 1.14305 7.35268 1.22592 7.25904 1.32955C7.16539 1.43318 7.0945 1.55527 7.05091 1.68797C7.00733 1.82067 6.99203 1.96103 7.006 2.1C5.87449 2.32721 4.85678 2.93975 4.1263 3.83325C3.39582 4.72675 2.99777 5.84591 3 7V11.5L1 13.5V14H15V13.5L13 11.5V7.87C12.6733 7.954 12.3373 7.99633 12 7.996V11.922L13 13H3L4 11.922V7C4 5.93913 4.42143 4.92172 5.17157 4.17157C5.92172 3.42143 6.93913 3 8 3C8.044 3.001 8.087 3.003 8.13 3.006C8.26955 2.46217 8.52203 1.95382 8.871 1.514C8.78461 1.35864 8.65836 1.22912 8.50527 1.13877C8.35217 1.04843 8.17776 1.00053 8 1ZM6.27 15C6.44536 15.3037 6.69752 15.556 7.00116 15.7315C7.30481 15.9071 7.64927 15.9996 8 16C8.35039 15.9993 8.69444 15.9065 8.9977 15.731C9.30097 15.5555 9.55281 15.3034 9.728 15H6.27Z" fill="url(#paint0_linear_9_4217)"/>
<path d="M15 4C15 4.79565 14.6839 5.55871 14.1213 6.12132C13.5587 6.68393 12.7956 7 12 7C11.2044 7 10.4413 6.68393 9.87868 6.12132C9.31607 5.55871 9 4.79565 9 4C9 3.20435 9.31607 2.44129 9.87868 1.87868C10.4413 1.31607 11.2044 1 12 1C12.7956 1 13.5587 1.31607 14.1213 1.87868C14.6839 2.44129 15 3.20435 15 4Z" fill="url(#paint1_linear_9_4217)"/>
<defs>
<linearGradient id="paint0_linear_9_4217" x1="1" y1="8.5" x2="15" y2="8.5" gradientUnits="userSpaceOnUse">
<stop stop-color="#FDFC47"/>
<stop offset="1" stop-color="#24FE41"/>
</linearGradient>
<linearGradient id="paint1_linear_9_4217" x1="9" y1="4" x2="15" y2="4" gradientUnits="userSpaceOnUse">
<stop stop-color="#2193B0"/>
<stop offset="1" stop-color="#6DD5ED"/>
</linearGradient>
</defs>
</svg>
