<svg width="16" height="16" viewBox="0 0 16 16" fill="none" xmlns="http://www.w3.org/2000/svg">
<g clip-path="url(#clip0_9_4220)">
<path opacity="0.35" d="M8 0.885147C7.86033 0.885285 7.72223 0.91468 7.59461 0.97144C7.46699 1.0282 7.35268 1.11106 7.25904 1.21469C7.16539 1.31832 7.0945 1.44042 7.05091 1.57312C7.00733 1.70582 6.99203 1.84617 7.006 1.98515C5.87449 2.21235 4.85678 2.8249 4.1263 3.7184C3.39582 4.6119 2.99777 5.73105 3 6.88515V11.3851L1 13.3851V13.8851H15V13.3851L13 11.3851V6.88515C13.0024 5.731 12.6044 4.61175 11.8739 3.71821C11.1434 2.82468 10.1256 2.21218 8.994 1.98515C9.00797 1.84617 8.99267 1.70582 8.94909 1.57312C8.9055 1.44042 8.83461 1.31832 8.74096 1.21469C8.64732 1.11106 8.53301 1.0282 8.40539 0.97144C8.27777 0.91468 8.13967 0.885285 8 0.885147ZM8 2.88515C9.06087 2.88515 10.0783 3.30657 10.8284 4.05672C11.5786 4.80687 12 5.82428 12 6.88515V11.8071L13 12.8851H3L4 11.8071V6.88515C4 5.82428 4.42143 4.80687 5.17157 4.05672C5.92172 3.30657 6.93913 2.88515 8 2.88515ZM6.27 14.8851C6.44536 15.1889 6.69752 15.4412 7.00116 15.6167C7.30481 15.7922 7.64927 15.8848 8 15.8851C8.35056 15.8846 8.69481 15.7919 8.99827 15.6164C9.30173 15.4409 9.55372 15.1887 9.729 14.8851H6.27Z" fill="url(#paint0_linear_9_4220)"/>
<path d="M12.6831 15.1112L4.18311 0.388777C4.04503 0.149631 3.73924 0.0676936 3.50009 0.205765C3.26095 0.343836 3.17901 0.649631 3.31708 0.888777L11.8171 15.6112C11.9552 15.8504 12.2609 15.9323 12.5001 15.7942C12.7392 15.6562 12.8212 15.3504 12.6831 15.1112Z" fill="url(#paint1_linear_9_4220)"/>
</g>
<defs>
<linearGradient id="paint0_linear_9_4220" x1="1" y1="8.38515" x2="15" y2="8.38515" gradientUnits="userSpaceOnUse">
<stop stop-color="#FDFC47"/>
<stop offset="1" stop-color="#24FE41"/>
</linearGradient>
<linearGradient id="paint1_linear_9_4220" x1="3.50009" y1="0.205765" x2="12.5001" y2="15.7942" gradientUnits="userSpaceOnUse">
<stop stop-color="#FDFC47"/>
<stop offset="1" stop-color="#24FE41"/>
</linearGradient>
<clipPath id="clip0_9_4220">
<rect width="16" height="16" fill="white"/>
</clipPath>
</defs>
</svg>
