<svg width="16" height="16" viewBox="0 0 16 16" fill="none" xmlns="http://www.w3.org/2000/svg">
<path d="M1 2C0.446 2 0 2.446 0 3V4C0.265216 4 0.51957 4.10536 0.707107 4.29289C0.894643 4.48043 1 4.73478 1 5C1 5.26522 0.894643 5.51957 0.707107 5.70711C0.51957 5.89464 0.265216 6 0 6L0 7C0.265216 7 0.51957 7.10536 0.707107 7.29289C0.894643 7.48043 1 7.73478 1 8C1 8.26522 0.894643 8.51957 0.707107 8.70711C0.51957 8.89464 0.265216 9 0 9L0 10C0.265216 10 0.51957 10.1054 0.707107 10.2929C0.894643 10.4804 1 10.7348 1 11H15C15 10.7348 15.1054 10.4804 15.2929 10.2929C15.4804 10.1054 15.7348 10 16 10V9C15.7348 9 15.4804 8.89464 15.2929 8.70711C15.1054 8.51957 15 8.26522 15 8C15 7.73478 15.1054 7.48043 15.2929 7.29289C15.4804 7.10536 15.7348 7 16 7V6C15.7348 6 15.4804 5.89464 15.2929 5.70711C15.1054 5.51957 15 5.26522 15 5C15 4.73478 15.1054 4.48043 15.2929 4.29289C15.4804 4.10536 15.7348 4 16 4V3C16 2.446 15.554 2 15 2H1ZM3 3H13C13.554 3 14 3.446 14 4V9C14 9.554 13.554 10 13 10H3C2.446 10 2 9.554 2 9V4C2 3.446 2.446 3 3 3ZM0 12V13C0 13.554 0.446 14 1 14H7V12H0ZM8 12V14H15C15.554 14 16 13.554 16 13V12H8Z" fill="url(#paint0_linear_9_4232)"/>
<path d="M5.986 4H4.014C4.00627 4 4 4.00627 4 4.014V8.986C4 8.99373 4.00627 9 4.014 9H5.986C5.99373 9 6 8.99373 6 8.986V4.014C6 4.00627 5.99373 4 5.986 4Z" fill="url(#paint1_linear_9_4232)"/>
<path d="M9 4H7V9H9V4Z" fill="url(#paint2_linear_9_4232)"/>
<path d="M12 4H10V9H12V4Z" fill="url(#paint3_linear_9_4232)"/>
<defs>
<linearGradient id="paint0_linear_9_4232" x1="0" y1="8" x2="16" y2="8" gradientUnits="userSpaceOnUse">
<stop stop-color="#FDFC47"/>
<stop offset="1" stop-color="#24FE41"/>
</linearGradient>
<linearGradient id="paint1_linear_9_4232" x1="4" y1="6.5" x2="6" y2="6.5" gradientUnits="userSpaceOnUse">
<stop stop-color="#FDFC47"/>
<stop offset="1" stop-color="#24FE41"/>
</linearGradient>
<linearGradient id="paint2_linear_9_4232" x1="7" y1="6.5" x2="9" y2="6.5" gradientUnits="userSpaceOnUse">
<stop stop-color="#FDFC47"/>
<stop offset="1" stop-color="#24FE41"/>
</linearGradient>
<linearGradient id="paint3_linear_9_4232" x1="10" y1="6.5" x2="12" y2="6.5" gradientUnits="userSpaceOnUse">
<stop stop-color="#FDFC47"/>
<stop offset="1" stop-color="#24FE41"/>
</linearGradient>
</defs>
</svg>
