<svg width="16" height="16" viewBox="0 0 16 16" fill="none" xmlns="http://www.w3.org/2000/svg">
<path d="M4 1C2.338 1 1 2.338 1 4V5H3V4C3 3.446 3.446 3 4 3H12C12.554 3 13 3.446 13 4V10C13 10.554 12.554 11 12 11H9V13H12C13.662 13 15 11.662 15 10V4C15 2.338 13.662 1 12 1H4ZM2.281 6C1.571 6 1 6.571 1 7.281V14.719C1 15.429 1.571 15.999 2.281 15.999H6.72C7.43 15.999 8 15.429 8 14.719V7.28C8 6.571 7.43 6 6.72 6H2.281ZM2.411 7H3C3 7.554 3.446 8 4 8H5C5.554 8 6 7.554 6 7H6.59C6.817 7 7 7.182 7 7.41V14.52C7 14.786 6.786 15 6.52 15H2.48C2.41693 15.0001 2.35445 14.9878 2.29616 14.9637C2.23786 14.9397 2.18489 14.9043 2.14029 14.8597C2.0957 14.8151 2.06034 14.7621 2.03627 14.7038C2.01219 14.6455 1.99987 14.5831 2 14.52V7.41C2 7.182 2.183 7 2.411 7ZM9 14V16H13V15C13 14.446 12.554 14 12 14H9Z" fill="url(#paint0_linear_9_4239)"/>
<defs>
<linearGradient id="paint0_linear_9_4239" x1="1" y1="8.5" x2="15" y2="8.5" gradientUnits="userSpaceOnUse">
<stop stop-color="#FDFC47"/>
<stop offset="1" stop-color="#24FE41"/>
</linearGradient>
</defs>
</svg>
