<svg width="16" height="16" viewBox="0 0 16 16" fill="none" xmlns="http://www.w3.org/2000/svg">
<path d="M1.6347 7.1666C1.6347 7.1666 3.1127 4.7474 6.001 4.4971V3.6195C2.8019 3.9105 0 6.9818 0 6.9818C0 6.9818 1.6006 12.124 6.001 12.594V11.661C2.7718 11.2 1.6347 7.1666 1.6347 7.1666ZM6.001 9.8059V10.66C3.5604 10.167 2.8515 7.2909 2.8515 7.2909C2.8515 7.2909 4.0548 5.8192 6.0011 5.5806V6.5181C5.9999 6.5181 5.9991 6.5177 5.9981 6.5177C4.9766 6.3787 4.1471 7.4606 4.1471 7.4606C4.1471 7.4606 4.6259 9.2813 6.0018 9.805M6.0018 2V3.6188C6.0957 3.6107 6.1581 3.6038 6.2525 3.6001C9.8895 3.4612 12.26 6.9813 12.26 6.9813C12.26 6.9813 9.5375 10.732 6.7019 10.732C6.442 10.732 6.2295 10.706 6.001 10.66V11.661C6.1963 11.689 6.3683 11.705 6.5797 11.705C9.2182 11.705 11.127 10.178 12.974 8.3701C13.281 8.6478 14.535 9.325 14.793 9.6207C13.036 11.288 8.9417 12.632 6.6201 12.632C6.3963 12.632 6.2129 12.617 6.0017 12.593V14H16V2H6.0018ZM6.0011 5.5806L6.0018 4.4965C6.0947 4.4902 6.1568 4.4835 6.2525 4.4801C8.8678 4.3869 10.584 7.0277 10.584 7.0277C10.584 7.0277 8.7306 9.9456 6.7433 9.9456C6.4573 9.9456 6.2326 9.8933 6.0018 9.805L6.0011 6.5181C7.0193 6.6575 7.1932 7.1675 7.8057 8.3238L9.1672 7.0228C9.1672 7.0228 8.1729 5.5454 6.4978 5.5454C6.3157 5.5453 6.1722 5.56 6.0011 5.5806Z" fill="url(#paint0_linear_9_4255)"/>
<defs>
<linearGradient id="paint0_linear_9_4255" x1="0" y1="8" x2="16" y2="8" gradientUnits="userSpaceOnUse">
<stop stop-color="#FDFC47"/>
<stop offset="1" stop-color="#24FE41"/>
</linearGradient>
</defs>
</svg>
