<svg width="16" height="17" viewBox="0 0 16 17" fill="none" xmlns="http://www.w3.org/2000/svg">
<g clip-path="url(#clip0_9_4267)">
<path d="M3.93799 0.00599528C3.57799 0.0529953 3 0.255995 3 1.006V3.006C3 3.006 2 3.006 2 4.006V7.006H1C1 7.006 0 7.006 0 8.006V13.506C0 14.006 0.5 14.006 0.5 14.006H1C1 15.006 2 15.006 2 15.006C2 15.006 2 16.006 3 16.006H8.10602C7.98904 15.6814 7.99725 15.3249 8.12903 15.006H3V14.006H8.66998L9.23798 13.006H1V8.56901C1 8.14701 1.37799 8.033 1.56299 8.006C1.59372 8.00018 1.62528 8.00018 1.65601 8.006H14.344C14.344 8.006 15 8.00601 15 8.56901V11.665L16 13.428V8.006C16 7.006 15 7.006 15 7.006H14V4.006C14 3.006 13 3.006 13 3.006V1.006C13 0.00599527 12 0.00599528 11.813 0.00599528H4.18799C4.14099 0.00599528 4.05799 -0.00900472 3.93799 0.00599528ZM4 1.006H12V7.006H4V1.006ZM11.002 13.952L10.971 14.006H11.001C11.0008 13.988 11.0012 13.97 11.002 13.952ZM13.996 13.952C13.9978 13.97 13.9992 13.988 14 14.006V15.006C14 15.006 14.262 15.004 14.518 14.87L13.996 13.952Z" fill="url(#paint0_linear_9_4267)"/>
<path opacity="0.5" d="M3 8.00598V12.006H9.80499L11.248 9.46201L11.25 9.45999C11.3703 9.24915 11.5418 9.07213 11.7488 8.94537C11.9558 8.81862 12.1916 8.74625 12.434 8.73499H12.436C12.633 8.72499 12.821 8.769 13 8.836V8.00598H3Z" fill="url(#paint1_linear_9_4267)"/>
<path fill-rule="evenodd" clip-rule="evenodd" d="M12.48 9.73398C12.4062 9.73739 12.3345 9.75934 12.2714 9.79779C12.2083 9.83624 12.1559 9.88995 12.119 9.95398L9.05902 15.351C9.02081 15.4174 9.00069 15.4926 9.00073 15.5692C9.00078 15.6458 9.02098 15.7211 9.05927 15.7874C9.09755 15.8538 9.15257 15.9089 9.21887 15.9472C9.28517 15.9856 9.36041 16.0059 9.43701 16.006H15.562C15.6387 16.006 15.714 15.9859 15.7805 15.9476C15.8469 15.9093 15.9021 15.8542 15.9405 15.7879C15.9789 15.7215 15.9992 15.6462 15.9993 15.5695C15.9994 15.4928 15.9792 15.4175 15.941 15.351L12.881 9.95499C12.8408 9.88501 12.7822 9.82745 12.7114 9.78864C12.6407 9.74982 12.5606 9.73126 12.48 9.73499V9.73398ZM12 11.006H13V13.006H12V11.006ZM12 14.006H13V15.006H12V14.006Z" fill="url(#paint2_linear_9_4267)"/>
</g>
<defs>
<linearGradient id="paint0_linear_9_4267" x1="0" y1="8.00267" x2="16" y2="8.00267" gradientUnits="userSpaceOnUse">
<stop stop-color="#FDFC47"/>
<stop offset="1" stop-color="#24FE41"/>
</linearGradient>
<linearGradient id="paint1_linear_9_4267" x1="3" y1="10.006" x2="13" y2="10.006" gradientUnits="userSpaceOnUse">
<stop stop-color="#FDFC47"/>
<stop offset="1" stop-color="#24FE41"/>
</linearGradient>
<linearGradient id="paint2_linear_9_4267" x1="9.00073" y1="12.87" x2="15.9993" y2="12.87" gradientUnits="userSpaceOnUse">
<stop stop-color="#FF8008"/>
<stop offset="1" stop-color="#FFC837"/>
</linearGradient>
<clipPath id="clip0_9_4267">
<rect width="16" height="16.007" fill="white"/>
</clipPath>
</defs>
</svg>
