<svg width="16" height="17" viewBox="0 0 16 17" fill="none" xmlns="http://www.w3.org/2000/svg">
<g clip-path="url(#clip0_9_4257)">
<path d="M3.93799 0.00698904C3.57799 0.053989 3 0.256989 3 1.00699V3.00699C3 3.00699 2 3.00699 2 4.00699V7.00699H1C1 7.00699 0 7.00699 0 8.00699V13.507C0 14.007 0.5 14.007 0.5 14.007H1C1 15.007 2 15.007 2 15.007C2 15.007 2 16.007 3 16.007H9.71899C9.35768 15.7229 9.04145 15.3857 8.78101 15.007H3.00098V14.007H8.28101C8.16984 13.6832 8.09666 13.3476 8.06299 13.007H1V8.569C1 8.148 1.37799 8.03299 1.56299 8.00699C1.59372 8.00117 1.62528 8.00117 1.65601 8.00699H14.344C14.344 8.00699 15 8.00698 15 8.56998V8.788C15.381 9.046 15.714 9.36698 16 9.72598V8.00699C16 7.00699 15 7.00699 15 7.00699H14V4.00699C14 3.00699 13 3.00699 13 3.00699V1.00699C13 0.006989 12 0.00698904 11.813 0.00698904H4.18799C4.14099 0.00698904 4.05799 -0.00901096 3.93799 0.00698904ZM4 1.00699H12V7.00699H4V1.00699Z" fill="url(#paint0_linear_9_4257)"/>
<path opacity="0.5" d="M3 8.00699V12.007H8.06299C8.31599 9.76899 10.198 8.00699 12.5 8.00699H3ZM12.5 8.00699C12.671 8.00699 12.834 8.05098 13 8.06998V8.00699H12.5Z" fill="url(#paint1_linear_9_4257)"/>
<path d="M12.5 9.00699C11.5717 9.00699 10.6815 9.37573 10.0251 10.0321C9.36877 10.6885 9 11.5787 9 12.507C9 13.4352 9.36877 14.3255 10.0251 14.9819C10.6815 15.6382 11.5717 16.007 12.5 16.007C13.4283 16.007 14.3185 15.6382 14.9749 14.9819C15.6312 14.3255 16 13.4352 16 12.507C16 11.5787 15.6312 10.6885 14.9749 10.0321C14.3185 9.37573 13.4283 9.00699 12.5 9.00699ZM12 10.007H13V13.007H12V10.007ZM12 14.007H13V15.007H12V14.007Z" fill="url(#paint2_linear_9_4257)"/>
</g>
<defs>
<linearGradient id="paint0_linear_9_4257" x1="0" y1="8.00343" x2="16" y2="8.00343" gradientUnits="userSpaceOnUse">
<stop stop-color="#FDFC47"/>
<stop offset="1" stop-color="#24FE41"/>
</linearGradient>
<linearGradient id="paint1_linear_9_4257" x1="3" y1="10.007" x2="13" y2="10.007" gradientUnits="userSpaceOnUse">
<stop stop-color="#FDFC47"/>
<stop offset="1" stop-color="#24FE41"/>
</linearGradient>
<linearGradient id="paint2_linear_9_4257" x1="9" y1="9.00699" x2="12.7526" y2="17.4503" gradientUnits="userSpaceOnUse">
<stop stop-color="#FF0500"/>
<stop offset="1" stop-color="#FD3632"/>
</linearGradient>
<clipPath id="clip0_9_4257">
<rect width="16" height="16.01" fill="white"/>
</clipPath>
</defs>
</svg>
