<svg width="16" height="17" viewBox="0 0 16 17" fill="none" xmlns="http://www.w3.org/2000/svg">
<g clip-path="url(#clip0_9_4262)">
<path d="M3.93799 0.00698904C3.57799 0.053989 3 0.256989 3 1.00699V3.00699C3 3.00699 2 3.00699 2 4.00699V7.00699H1C1 7.00699 0 7.00699 0 8.00699V13.507C0 14.007 0.5 14.007 0.5 14.007H1C1 15.007 2 15.007 2 15.007C2 15.007 2 16.007 3 16.007H13C14 16.007 14 15.007 14 15.007C14 15.007 15 15.007 15 14.007H15.5C16 14.007 16 13.587 16 13.507V8.00699C16 7.00699 15 7.00699 15 7.00699H14V4.00699C14 3.00699 13 3.00699 13 3.00699V1.00699C13 0.006989 12 0.00698904 11.813 0.00698904H4.18799C4.14099 0.00698904 4.05799 -0.00901096 3.93799 0.00698904ZM4 1.00699H12V7.00699H4V1.00699ZM1.56299 8.00699C1.59372 8.00117 1.62528 8.00117 1.65601 8.00699H14.344C14.344 8.00699 15 8.007 15 8.569V13.007H1V8.569C1 8.148 1.37799 8.03299 1.56299 8.00699ZM3 14.007H13V15.007H3V14.007Z" fill="url(#paint0_linear_9_4262)"/>
<path opacity="0.5" d="M3 8.00699V12.007H13V8.00699H3Z" fill="url(#paint1_linear_9_4262)"/>
<path d="M7 2L9.03003 2.01099L9 3H10L8.03998 6.00201L6 3L6.99298 3.00201L7 2Z" fill="url(#paint2_linear_9_4262)"/>
</g>
<defs>
<linearGradient id="paint0_linear_9_4262" x1="0" y1="8.00344" x2="16" y2="8.00344" gradientUnits="userSpaceOnUse">
<stop stop-color="#FDFC47"/>
<stop offset="1" stop-color="#24FE41"/>
</linearGradient>
<linearGradient id="paint1_linear_9_4262" x1="3" y1="10.007" x2="13" y2="10.007" gradientUnits="userSpaceOnUse">
<stop stop-color="#FDFC47"/>
<stop offset="1" stop-color="#24FE41"/>
</linearGradient>
<linearGradient id="paint2_linear_9_4262" x1="6" y1="4.00101" x2="10" y2="4.00101" gradientUnits="userSpaceOnUse">
<stop stop-color="#FDFC47"/>
<stop offset="1" stop-color="#24FE41"/>
</linearGradient>
<clipPath id="clip0_9_4262">
<rect width="16" height="16.007" fill="white"/>
</clipPath>
</defs>
</svg>
