<svg width="16" height="16" viewBox="0 0 16 16" fill="none" xmlns="http://www.w3.org/2000/svg">
<path d="M8 1C6.14348 1 4.36299 1.73749 3.05023 3.05025C1.73748 4.363 1 6.14348 1 8C1 9.85652 1.73748 11.637 3.05023 12.9498C4.36299 14.2625 6.14348 15 8 15C9.85652 15 11.637 14.2625 12.9498 12.9498C14.2625 11.637 15 9.85652 15 8C15 6.14348 14.2625 4.363 12.9498 3.05025C11.637 1.73749 9.85652 1 8 1ZM11.48 4.783C12.392 4.757 12.861 5.864 12.207 6.5L7 11.707L4.09302 8.8C3.11102 7.858 4.56502 6.404 5.50702 7.386L7 8.879L10.793 5.086C10.9742 4.89936 11.221 4.79068 11.481 4.783H11.48Z" fill="url(#paint0_linear_9_4272)"/>
<defs>
<linearGradient id="paint0_linear_9_4272" x1="1" y1="8" x2="15" y2="8" gradientUnits="userSpaceOnUse">
<stop stop-color="#FDFC47"/>
<stop offset="1" stop-color="#24FE41"/>
</linearGradient>
</defs>
</svg>
