<svg width="16" height="16" viewBox="0 0 16 16" fill="none" xmlns="http://www.w3.org/2000/svg">
<path d="M7.98193 1.062C4.12493 1.062 0.981934 4.205 0.981934 8.062C0.981934 11.92 4.12493 15.062 7.98193 15.062C11.8399 15.062 14.9819 11.92 14.9819 8.062C14.9819 4.205 11.8399 1.062 7.98193 1.062ZM7.98193 2.052C8.77119 2.05161 9.55281 2.2068 10.282 2.50871C11.0113 2.81063 11.6738 3.25335 12.2318 3.81153C12.7898 4.36972 13.2323 5.03242 13.534 5.76176C13.8357 6.49109 13.9906 7.27274 13.9899 8.062C13.9906 8.85126 13.8357 9.63291 13.534 10.3622C13.2323 11.0916 12.7898 11.7543 12.2318 12.3125C11.6738 12.8707 11.0113 13.3134 10.282 13.6153C9.55281 13.9172 8.77119 14.0724 7.98193 14.072C7.19258 14.0724 6.41086 13.9172 5.68152 13.6153C4.95217 13.3134 4.28948 12.8708 3.73132 12.3126C3.17316 11.7544 2.73054 11.0917 2.42865 10.3624C2.12676 9.63305 1.97153 8.85135 1.97192 8.062C1.97153 7.27264 2.12676 6.49095 2.42865 5.7616C2.73054 5.03226 3.17316 4.36957 3.73132 3.81141C4.28948 3.25325 4.95217 2.81057 5.68152 2.50868C6.41086 2.20679 7.19258 2.05161 7.98193 2.052Z" fill="url(#paint0_linear_9_4294)"/>
<path d="M3.89795 7.05301V9.05301H12.028V7.05301H4.89795H3.89795Z" fill="url(#paint1_linear_9_4294)"/>
<defs>
<linearGradient id="paint0_linear_9_4294" x1="0.981934" y1="8.062" x2="14.9819" y2="8.062" gradientUnits="userSpaceOnUse">
<stop stop-color="#FDFC47"/>
<stop offset="1" stop-color="#24FE41"/>
</linearGradient>
<linearGradient id="paint1_linear_9_4294" x1="3.89795" y1="8.05301" x2="12.028" y2="8.05301" gradientUnits="userSpaceOnUse">
<stop stop-color="#FDFC47"/>
<stop offset="1" stop-color="#24FE41"/>
</linearGradient>
</defs>
</svg>
