<svg width="16" height="16" viewBox="0 0 16 16" fill="none" xmlns="http://www.w3.org/2000/svg">
<g clip-path="url(#clip0_9_4301)">
<path d="M7.9939 0C6.91376 0.000683442 5.84495 0.220093 4.8519 0.645C5.44833 1.11391 5.84495 1.79138 5.9619 2.541C5.99265 2.65154 6.00415 2.76656 5.9959 2.881C5.9959 2.88233 5.9959 2.88367 5.9959 2.885C5.99796 2.9233 5.9993 2.96164 5.9999 3C5.9999 3.79565 5.68383 4.55871 5.12122 5.12132C4.55861 5.68393 3.79555 6 2.9999 6C2.96286 5.99869 2.92586 5.99669 2.8889 5.994C2.765 6.00466 2.6402 5.99211 2.5209 5.957C1.78065 5.83815 1.11174 5.44643 0.645896 4.859C0.218719 5.85124 -0.00307318 6.91972 -0.00610352 8C-0.00610352 10.1217 0.836751 12.1566 2.33704 13.6569C3.83733 15.1571 5.87216 16 7.9939 16C10.1042 15.9977 12.1282 15.1617 13.6249 13.674C13.0179 13.433 12.4429 13.163 11.9279 12.83C12.0158 13.0526 12.0209 13.2993 11.9424 13.5254C11.8638 13.7514 11.7068 13.9418 11.4999 14.062C11.2702 14.1942 10.9974 14.2298 10.7414 14.161C10.4855 14.0922 10.2673 13.9246 10.1349 13.695C10.0025 13.4655 9.96662 13.1929 10.0351 12.937C10.1035 12.6811 10.2707 12.4628 10.4999 12.33C10.6452 12.2464 10.8093 12.2006 10.9769 12.197C11.0297 12.1962 11.0826 12.1995 11.1349 12.207C10.5849 11.685 10.1709 10.983 10.0509 10.187C9.49531 10.7087 8.76201 10.9994 7.9999 11C7.20425 11 6.44119 10.6839 5.87858 10.1213C5.31597 9.55871 4.9999 8.79565 4.9999 8C4.9999 7.20435 5.31597 6.44129 5.87858 5.87868C6.44119 5.31607 7.20425 5 7.9999 5C8.79555 5 9.55861 5.31607 10.1212 5.87868C10.6838 6.44129 10.9999 7.20435 10.9999 8C10.9993 8.01367 10.9987 8.02734 10.9979 8.041C11.1279 8.011 11.2479 7.997 11.3399 8C11.5269 8.006 11.6479 8.037 11.7769 8.066C11.7869 8.06785 11.7969 8.06985 11.8069 8.072L13.0859 8.402C13.0297 8.2754 13.0004 8.13851 12.9999 8C12.9999 7.73478 13.1053 7.48043 13.2928 7.29289C13.4803 7.10536 13.7347 7 13.9999 7C14.2651 7 14.5195 7.10536 14.707 7.29289C14.8945 7.48043 14.9999 7.73478 14.9999 8C14.9997 8.15398 14.964 8.30584 14.8954 8.44373C14.8269 8.58163 14.7275 8.70184 14.6049 8.795L15.9049 9.131C15.9613 8.75658 15.991 8.37863 15.9939 8C15.9939 5.87827 15.151 3.84344 13.6508 2.34315C12.1505 0.842855 10.1156 0 7.9939 0ZM7.9999 1C8.26511 1 8.51947 1.10536 8.707 1.29289C8.89454 1.48043 8.9999 1.73478 8.9999 2C8.9999 2.26522 8.89454 2.51957 8.707 2.70711C8.51947 2.89464 8.26511 3 7.9999 3C7.73468 3 7.48033 2.89464 7.29279 2.70711C7.10525 2.51957 6.9999 2.26522 6.9999 2C6.9999 1.73478 7.10525 1.48043 7.29279 1.29289C7.48033 1.10536 7.73468 1 7.9999 1ZM10.9529 1.805C11.1442 1.79604 11.3341 1.8422 11.4999 1.938C11.6137 2.00375 11.7134 2.09127 11.7933 2.19557C11.8732 2.29987 11.9318 2.4189 11.9657 2.54585C11.9996 2.67281 12.0081 2.8052 11.9908 2.93546C11.9736 3.06572 11.9308 3.19129 11.8649 3.305C11.7321 3.53423 11.5138 3.70141 11.2579 3.76985C11.002 3.83828 10.7294 3.80237 10.4999 3.67C10.2707 3.53722 10.1035 3.31892 10.0351 3.063C9.96662 2.80708 10.0025 2.53447 10.1349 2.305C10.2185 2.15982 10.3371 2.03795 10.4801 1.95058C10.623 1.86322 10.7856 1.81316 10.9529 1.805ZM13.1719 4C13.3515 3.99572 13.5289 4.0399 13.6855 4.12788C13.8421 4.21586 13.9721 4.34441 14.0619 4.5C14.1941 4.72971 14.2297 5.00251 14.1609 5.25845C14.0921 5.5144 13.9245 5.73256 13.6949 5.865C13.4654 5.99737 13.1928 6.03328 12.9369 5.96485C12.681 5.89641 12.4627 5.72923 12.3299 5.5C12.1975 5.27053 12.1616 4.99792 12.2301 4.742C12.2985 4.48608 12.4657 4.26778 12.6949 4.135C12.84 4.05068 13.0041 4.00425 13.1719 4ZM1.9999 7C2.26511 7 2.51947 7.10536 2.707 7.29289C2.89454 7.48043 2.9999 7.73478 2.9999 8C2.9999 8.26522 2.89454 8.51957 2.707 8.70711C2.51947 8.89464 2.26511 9 1.9999 9C1.73468 9 1.48033 8.89464 1.29279 8.70711C1.10525 8.51957 0.999897 8.26522 0.999897 8C0.999897 7.73478 1.10525 7.48043 1.29279 7.29289C1.48033 7.10536 1.73468 7 1.9999 7ZM2.7799 10C2.95948 9.99572 3.13689 10.0399 3.2935 10.1279C3.45011 10.2159 3.58013 10.3444 3.6699 10.5C3.80227 10.7295 3.83817 11.0021 3.76974 11.258C3.70131 11.5139 3.53413 11.7322 3.3049 11.865C3.19115 11.931 3.06549 11.9739 2.93513 11.9913C2.80476 12.0087 2.67225 12.0002 2.54518 11.9663C2.41811 11.9324 2.29897 11.8737 2.19459 11.7937C2.09021 11.7137 2.00264 11.6139 1.9369 11.5C1.80478 11.2702 1.76932 10.9973 1.83833 10.7413C1.90734 10.4854 2.07515 10.2673 2.3049 10.135C2.44916 10.0512 2.61311 10.0048 2.7799 10ZM4.9529 12.197C5.1442 12.188 5.33406 12.2342 5.4999 12.33C5.72913 12.4628 5.89631 12.6811 5.96474 12.937C6.03317 13.1929 5.99726 13.4655 5.8649 13.695C5.73245 13.9246 5.51429 14.0922 5.25835 14.161C5.0024 14.2298 4.72961 14.1942 4.4999 14.062C4.38612 13.9963 4.28643 13.9087 4.2065 13.8044C4.12657 13.7001 4.06799 13.5811 4.03409 13.4541C4.00019 13.3272 3.99165 13.1948 4.00894 13.0645C4.02624 12.9343 4.06904 12.8087 4.1349 12.695C4.2187 12.5502 4.33749 12.4287 4.48041 12.3417C4.62332 12.2547 4.78577 12.205 4.9529 12.197ZM7.9999 13C8.26511 13 8.51947 13.1054 8.707 13.2929C8.89454 13.4804 8.9999 13.7348 8.9999 14C8.9999 14.2652 8.89454 14.5196 8.707 14.7071C8.51947 14.8946 8.26511 15 7.9999 15C7.73468 15 7.48033 14.8946 7.29279 14.7071C7.10525 14.5196 6.9999 14.2652 6.9999 14C6.9999 13.7348 7.10525 13.4804 7.29279 13.2929C7.48033 13.1054 7.73468 13 7.9999 13Z" fill="url(#paint0_linear_9_4301)"/>
<path d="M3 1C2.46957 1 1.96086 1.21071 1.58579 1.58579C1.21071 1.96086 1 2.46957 1 3C1 3.53043 1.21071 4.03914 1.58579 4.41421C1.96086 4.78929 2.46957 5 3 5C3.53043 5 4.03914 4.78929 4.41421 4.41421C4.78929 4.03914 5 3.53043 5 3C5 2.46957 4.78929 1.96086 4.41421 1.58579C4.03914 1.21071 3.53043 1 3 1Z" fill="url(#paint1_linear_9_4301)"/>
<path d="M11.3069 8.99999C11.1169 8.99399 11.0929 9.09699 11.0369 9.37099C10.7569 11.175 12.3909 12.175 14.5389 12.955C14.7949 13.046 14.8169 13.001 14.9729 12.807C15.2569 12.439 15.4249 12.051 15.5639 11.645C15.6889 11.281 15.7889 10.904 15.9279 10.515C16.0669 10.187 16.0169 10.194 15.6679 10.104L11.5569 9.03999C11.475 9.01896 11.3913 9.00524 11.3069 8.99899V8.99999Z" fill="url(#paint2_linear_9_4301)"/>
</g>
<defs>
<linearGradient id="paint0_linear_9_4301" x1="-0.00610352" y1="8" x2="15.9939" y2="8" gradientUnits="userSpaceOnUse">
<stop stop-color="#FDFC47"/>
<stop offset="1" stop-color="#24FE41"/>
</linearGradient>
<linearGradient id="paint1_linear_9_4301" x1="1" y1="3" x2="5" y2="3" gradientUnits="userSpaceOnUse">
<stop stop-color="#2193B0"/>
<stop offset="1" stop-color="#6DD5ED"/>
</linearGradient>
<linearGradient id="paint2_linear_9_4301" x1="11.0056" y1="10.9996" x2="15.9998" y2="10.9996" gradientUnits="userSpaceOnUse">
<stop stop-color="#FDFC47"/>
<stop offset="1" stop-color="#24FE41"/>
</linearGradient>
<clipPath id="clip0_9_4301">
<rect width="16" height="16" fill="white"/>
</clipPath>
</defs>
</svg>
