<svg width="16" height="16" viewBox="0 0 16 16" fill="none" xmlns="http://www.w3.org/2000/svg">
<path d="M8.48798 1.02101C7.53023 0.954962 6.56912 1.08646 5.66431 1.40733C4.75949 1.72821 3.9303 2.2316 3.22815 2.88631C2.526 3.54101 1.96594 4.33304 1.58264 5.21323C1.19935 6.09341 1.00101 7.04298 1 8.00301C1.00112 9.54427 1.51046 11.0422 2.4491 12.2646C3.38774 13.4871 4.70331 14.3659 6.19202 14.765C9.25102 15.584 12.485 14.245 14.069 11.503C14.1353 11.3879 14.1532 11.2512 14.1187 11.1229C14.0841 10.9946 14.0001 10.8853 13.885 10.819C13.7699 10.7527 13.6332 10.7348 13.5049 10.7693C13.3766 10.8039 13.2673 10.8879 13.201 11.003C12.5405 12.1475 11.5206 13.0418 10.2997 13.5472C9.07877 14.0526 7.72513 14.1408 6.44897 13.798C5.17257 13.4571 4.04451 12.7043 3.23999 11.6564C2.43547 10.6084 1.99956 9.32414 2 8.00301C1.99926 6.75585 2.38739 5.53951 3.11041 4.52333C3.83343 3.50715 4.85539 2.74169 6.03387 2.33357C7.21236 1.92545 8.48874 1.89497 9.68536 2.24635C10.882 2.59774 11.9393 3.31351 12.71 4.29401L11 6.00301H15V2.00301L13.42 3.58301C12.8159 2.84239 12.0668 2.23309 11.2187 1.79251C10.3706 1.35194 9.44126 1.08939 8.48798 1.02101Z" fill="url(#paint0_linear_9_4307)"/>
<defs>
<linearGradient id="paint0_linear_9_4307" x1="1" y1="8.00398" x2="15" y2="8.00398" gradientUnits="userSpaceOnUse">
<stop stop-color="#FDFC47"/>
<stop offset="1" stop-color="#24FE41"/>
</linearGradient>
</defs>
</svg>
