<svg width="16" height="16" viewBox="0 0 16 16" fill="none" xmlns="http://www.w3.org/2000/svg">
<path d="M8.03923 1C8.42156 1.01611 8.76122 1.24886 8.91423 1.59961L10.4025 5.00001H14.2482C15.1674 5.00105 15.5989 6.13701 14.9123 6.74801L11.9182 9.40031L13.4397 13.664C13.7544 14.5513 12.7812 15.3426 11.9768 14.8535L7.99829 12.4219C6.99829 11.7384 6.99829 11.9199 6.99829 10.8379V4.28521V1.87111V1.79103L7.08227 1.59962C7.24149 1.23562 7.60098 1.00029 7.99829 1.00001C8.01197 0.999732 8.02556 0.99972 8.03923 1ZM7.99821 2V11.25L12.4982 14L10.7482 9.1016L14.2482 6H9.74821L7.99821 2Z" fill="url(#paint0_linear_9_4323)"/>
<path opacity="0.3" d="M7.99805 2L9.74805 6H14.248L10.748 9.1016L12.498 14L7.99805 11.25V2Z" fill="url(#paint1_linear_9_4323)"/>
<path opacity="0.75" d="M7.99811 1C7.90151 1.00007 7.80666 1.01468 7.71686 1.04102C7.80818 1.01403 7.90289 1.00022 7.99811 1ZM7.23053 1.35938C7.17095 1.43081 7.12057 1.51163 7.08209 1.5996C7.11997 1.51291 7.16995 1.43203 7.23053 1.35938ZM6.99811 1.79102V1.87109V4.28519L6.24811 5.99999H1.74811L5.24811 9.10159L3.49811 14L7.12701 11.7832C7.25288 11.9566 7.5016 12.0825 7.9981 12.4219L4.0196 14.8535C3.84309 14.9608 3.63767 15.0109 3.43156 14.9968C3.22545 14.9827 3.02875 14.9052 2.86846 14.7749C2.70817 14.6445 2.59215 14.4678 2.53633 14.2689C2.48051 14.07 2.48763 13.8587 2.5567 13.664L4.0782 9.40026L1.0841 6.74796C0.932661 6.61316 0.825741 6.43553 0.777508 6.23861C0.729274 6.04168 0.742001 5.83475 0.814003 5.64522C0.886006 5.45568 1.01389 5.2925 1.18071 5.17727C1.34753 5.06204 1.54542 5.00021 1.74816 4.99996H5.59386L6.99811 1.79102Z" fill="url(#paint2_linear_9_4323)"/>
<defs>
<linearGradient id="paint0_linear_9_4323" x1="6.99829" y1="8.00151" x2="15.2497" y2="8.00151" gradientUnits="userSpaceOnUse">
<stop stop-color="#FF8008"/>
<stop offset="1" stop-color="#FFC837"/>
</linearGradient>
<linearGradient id="paint1_linear_9_4323" x1="7.99805" y1="8" x2="14.248" y2="8" gradientUnits="userSpaceOnUse">
<stop stop-color="#FF8008"/>
<stop offset="1" stop-color="#FFC837"/>
</linearGradient>
<linearGradient id="paint2_linear_9_4323" x1="0.748779" y1="7.99956" x2="7.99811" y2="7.99956" gradientUnits="userSpaceOnUse">
<stop stop-color="#FDFC47"/>
<stop offset="1" stop-color="#24FE41"/>
</linearGradient>
</defs>
</svg>
