<svg width="16" height="16" viewBox="0 0 16 16" fill="none" xmlns="http://www.w3.org/2000/svg">
<path d="M7.95898 1C7.57665 1.01611 7.23699 1.24886 7.08398 1.59961L5.59568 5.00001H1.74998C0.830769 5.00105 0.399279 6.13701 1.08592 6.74801L4.08002 9.40031L2.55852 13.664C2.24377 14.5513 3.21703 15.3426 4.02142 14.8535L7.99992 12.4219C8.99992 11.7384 8.99992 11.9199 8.99992 10.8379V4.28521V1.87111V1.79103L8.91593 1.59962C8.75671 1.23562 8.39722 1.00029 7.99991 1.00001C7.98624 0.999732 7.97265 0.99972 7.95898 1ZM8 2V11.25L3.5 14L5.25 9.1016L1.75 6H6.25L8 2Z" fill="url(#paint0_linear_9_4328)"/>
<path opacity="0.3" d="M8 2L6.25 6H1.75L5.25 9.1016L3.5 14L8 11.25V2Z" fill="url(#paint1_linear_9_4328)"/>
<path opacity="0.75" d="M8 1C8.0966 1.00007 8.19145 1.01468 8.28125 1.04102C8.18993 1.01403 8.09522 1.00022 8 1ZM8.76758 1.35938C8.82716 1.43081 8.87754 1.51163 8.91602 1.5996C8.87815 1.51291 8.82817 1.43203 8.76758 1.35938ZM9 1.79102V1.87109V4.28519L9.75 5.99999H14.25L10.75 9.10159L12.5 14L8.8711 11.7832C8.74523 11.9566 8.49651 12.0825 8.00001 12.4219L11.9785 14.8535C12.155 14.9608 12.3604 15.0109 12.5666 14.9968C12.7727 14.9827 12.9694 14.9052 13.1297 14.7749C13.2899 14.6445 13.406 14.4678 13.4618 14.2689C13.5176 14.07 13.5105 13.8587 13.4414 13.664L11.9199 9.40026L14.914 6.74796C15.0655 6.61316 15.1724 6.43553 15.2206 6.23861C15.2688 6.04168 15.2561 5.83475 15.1841 5.64522C15.1121 5.45568 14.9842 5.2925 14.8174 5.17727C14.6506 5.06204 14.4527 5.00021 14.25 4.99996H10.4043L9 1.79102Z" fill="url(#paint2_linear_9_4328)"/>
<defs>
<linearGradient id="paint0_linear_9_4328" x1="0.748535" y1="8.00151" x2="8.99992" y2="8.00151" gradientUnits="userSpaceOnUse">
<stop stop-color="#FF8008"/>
<stop offset="1" stop-color="#FFC837"/>
</linearGradient>
<linearGradient id="paint1_linear_9_4328" x1="1.75" y1="8" x2="8" y2="8" gradientUnits="userSpaceOnUse">
<stop stop-color="#FF8008"/>
<stop offset="1" stop-color="#FFC837"/>
</linearGradient>
<linearGradient id="paint2_linear_9_4328" x1="8" y1="7.99956" x2="15.2493" y2="7.99956" gradientUnits="userSpaceOnUse">
<stop stop-color="#FDFC47"/>
<stop offset="1" stop-color="#24FE41"/>
</linearGradient>
</defs>
</svg>
