<svg width="16" height="16" viewBox="0 0 16 16" fill="none" xmlns="http://www.w3.org/2000/svg">
<path opacity="0.3" d="M7 4V6.1016C5.8709 6.33208 4.85608 6.94549 4.1272 7.83808C3.39832 8.73066 3.00013 9.84762 3 11C3 12.3261 3.52678 13.5979 4.46447 14.5355C5.40215 15.4732 6.67392 16 8 16C9.32608 16 10.5979 15.4732 11.5355 14.5355C12.4732 13.5979 13 12.3261 13 11C12.9999 9.84762 12.6017 8.73066 11.8728 7.83808C11.1439 6.94549 10.1291 6.33208 9 6.1016V4H7Z" fill="url(#paint0_linear_9_4335)"/>
<path d="M8 0C6.892 0 6 0.892 6 2V6.418C5.10843 6.80712 4.34972 7.44786 3.81686 8.26172C3.28399 9.07558 3.00011 10.0272 3 11C3 12.3261 3.52678 13.5979 4.46447 14.5355C5.40215 15.4732 6.67392 16 8 16C9.32608 16 10.5979 15.4732 11.5355 14.5355C12.4732 13.5979 13 12.3261 13 11C12.9999 10.0272 12.716 9.07558 12.1831 8.26172C11.6503 7.44786 10.8916 6.80712 10 6.418V2C10 0.892 9.108 0 8 0ZM8 1C8.554 1 9 1.446 9 2V6.1016V7.127C9.27133 7.19752 9.5345 7.29637 9.78516 7.42192C9.78581 7.42192 9.78646 7.42192 9.78711 7.42192C9.85116 7.45407 9.91433 7.48794 9.97656 7.52348C10.5908 7.87263 11.1017 8.37826 11.4571 8.98893C11.8125 9.5996 11.9998 10.2935 12 11.0001C12 12.0609 11.5785 13.0784 10.8284 13.8285C10.0782 14.5787 9.06083 15.0001 7.99996 15.0001C6.9391 15.0001 5.92168 14.5787 5.17154 13.8285C4.42139 13.0784 3.99996 12.0609 3.99996 11.0001C4.00044 10.1809 4.25245 9.38154 4.72192 8.71018C5.19138 8.03881 5.85566 7.52779 6.62496 7.24618C6.62822 7.24487 6.63147 7.24357 6.63473 7.24227C6.68387 7.22438 6.73336 7.20745 6.78317 7.19149C6.78642 7.19019 6.78968 7.18888 6.79293 7.18759C6.81954 7.1795 6.84624 7.17168 6.87301 7.16415C6.90027 7.15604 6.92762 7.14823 6.95504 7.14071C6.96999 7.13672 6.98497 7.13281 6.99997 7.12899V6.10169V2.00009C6.99997 1.44609 7.446 1 8 1Z" fill="url(#paint1_linear_9_4335)"/>
<defs>
<linearGradient id="paint0_linear_9_4335" x1="3" y1="10" x2="13" y2="10" gradientUnits="userSpaceOnUse">
<stop stop-color="#FDFC47"/>
<stop offset="1" stop-color="#24FE41"/>
</linearGradient>
<linearGradient id="paint1_linear_9_4335" x1="3" y1="8" x2="13" y2="8" gradientUnits="userSpaceOnUse">
<stop stop-color="#FDFC47"/>
<stop offset="1" stop-color="#24FE41"/>
</linearGradient>
</defs>
</svg>
