<svg width="16" height="16" viewBox="0 0 16 16" fill="none" xmlns="http://www.w3.org/2000/svg">
<path d="M7.95956 0.999997C7.77212 1.00786 7.59066 1.06829 7.43593 1.17439C7.2812 1.28049 7.15944 1.42798 7.08456 1.6L5.59656 5H1.75056C0.830563 5.001 0.400563 6.137 1.08656 6.748L4.08056 9.4L2.55956 13.664C2.24456 14.551 3.21756 15.343 4.02156 14.854L8.00056 12.422L11.9786 14.854C12.1551 14.9618 12.3607 15.0123 12.5671 14.9984C12.7735 14.9845 12.9705 14.907 13.131 14.7764C13.2914 14.6459 13.4075 14.4688 13.4631 14.2696C13.5187 14.0704 13.5112 13.8588 13.4416 13.664L11.9206 9.4L14.9146 6.748C15.0663 6.61334 15.1735 6.4357 15.222 6.23868C15.2704 6.04165 15.2577 5.83456 15.1857 5.64489C15.1136 5.45522 14.9856 5.29196 14.8186 5.17677C14.6516 5.06159 14.4535 4.99994 14.2506 5H10.4046L9.00056 1.791L8.91656 1.6C8.8785 1.51335 8.82834 1.43254 8.76756 1.36L8.75656 1.346C8.69664 1.27762 8.62767 1.21773 8.55156 1.168C8.5509 1.16733 8.55023 1.16666 8.54956 1.166L8.53756 1.16C8.46356 1.112 8.38353 1.074 8.29956 1.047L8.28056 1.04C8.1896 1.01346 8.09532 0.999997 8.00056 0.999997C7.9869 0.999716 7.97323 0.999716 7.95956 0.999997ZM8.00056 2L9.00056 4.285L9.75056 6H14.2506L10.7506 9.102L12.5006 14L8.87156 11.783L8.00056 11.25L3.50056 14L5.25056 9.102L1.75056 6H6.25056L8.00056 2Z" fill="url(#paint0_linear_9_4347)"/>
<defs>
<linearGradient id="paint0_linear_9_4347" x1="0.749268" y1="8.00168" x2="15.2509" y2="8.00168" gradientUnits="userSpaceOnUse">
<stop stop-color="#FDFC47"/>
<stop offset="1" stop-color="#24FE41"/>
</linearGradient>
</defs>
</svg>
