<svg width="16" height="16" viewBox="0 0 16 16" fill="none" xmlns="http://www.w3.org/2000/svg">
<g clip-path="url(#clip0_9_4357)">
<path d="M8.00006 0C7.47166 0.00420632 6.96622 0.216523 6.59333 0.590914C6.22043 0.965306 6.01015 1.47159 6.00806 2H5.00806C4.35106 2 3.83006 2.06 3.39106 2.225C2.95206 2.389 2.60106 2.686 2.39306 3.063C1.97806 3.815 2.02306 4.736 2.00806 5.994V11.006C2.02306 12.264 1.97806 13.185 2.39306 13.938C2.60106 14.314 2.95306 14.611 3.39106 14.776C3.83006 14.94 4.35106 15 5.00806 15H8.14106C8.16206 14.95 8.17206 14.898 8.20006 14.85L8.68206 14H5.00806C4.41606 14 4.00206 13.937 3.74306 13.84C3.48306 13.742 3.37106 13.637 3.27006 13.453C3.06806 13.087 3.02306 12.259 3.00806 11V6C3.02306 4.741 3.06806 3.913 3.27006 3.547C3.37106 3.363 3.48306 3.257 3.74306 3.16C4.00306 3.062 4.41606 3 5.00806 3V3.999H11.0081V3C11.6011 3 12.0141 3.063 12.2741 3.16C12.5341 3.258 12.6451 3.363 12.7461 3.547C12.9481 3.913 12.9931 4.741 13.0081 6V8.832C13.3181 8.947 13.5901 9.155 13.7601 9.452V9.453L14.0081 9.891V5.994C13.9931 4.736 14.0391 3.815 13.6231 3.062C13.4008 2.67299 13.0468 2.37616 12.6251 2.225C12.1871 2.06 11.6651 2 11.0081 2H10.0041C10.002 1.47159 9.79168 0.965306 9.41879 0.590914C9.04589 0.216523 8.54045 0.00420632 8.01206 0L8.00006 0ZM8.01006 1C8.56906 1 9.01006 1.442 9.01006 2C9.01139 2.13169 8.98644 2.26233 8.93666 2.38426C8.88688 2.50619 8.81327 2.61696 8.72014 2.71009C8.62702 2.80321 8.51625 2.87682 8.39432 2.9266C8.27239 2.97638 8.14175 3.00134 8.01006 3C7.8129 3.00264 7.61951 2.94587 7.45506 2.83707C7.29062 2.72827 7.16273 2.57249 7.08806 2.39C7.03681 2.26638 7.01063 2.13382 7.01106 2C7.01106 1.442 7.45106 1 8.01006 1ZM5.00806 6V7H11.0201V6H5.00806ZM5.00806 8V9H11.0201V8H5.00806ZM4.99806 10V11H7.99806V10H4.99806Z" fill="url(#paint0_linear_9_4357)"/>
<path fill-rule="evenodd" clip-rule="evenodd" d="M12.488 9.72899C12.4144 9.73284 12.3429 9.75497 12.2801 9.79339C12.2172 9.8318 12.1649 9.88528 12.128 9.94899L9.06696 15.346C9.02896 15.4124 9.00907 15.4877 9.00928 15.5642C9.00949 15.6407 9.0298 15.7159 9.06818 15.7821C9.10655 15.8483 9.16165 15.9033 9.22795 15.9415C9.29425 15.9798 9.36943 15.9999 9.44596 16H15.571C15.6475 15.9999 15.7227 15.9798 15.789 15.9415C15.8553 15.9033 15.9104 15.8483 15.9487 15.7821C15.9871 15.7159 16.0074 15.6407 16.0076 15.5642C16.0079 15.4877 15.988 15.4124 15.95 15.346L12.891 9.94899C12.8505 9.87909 12.7916 9.82161 12.7207 9.78283C12.6498 9.74404 12.5697 9.72542 12.489 9.72899H12.488ZM12.008 11H13.008V11.168C13.008 11.516 12.992 11.835 12.961 12.125C12.931 12.415 12.892 12.706 12.846 13H12.18C12.1283 12.7098 12.0866 12.418 12.055 12.125C12.0226 11.807 12.0069 11.4876 12.008 11.168V11ZM12.508 14C12.6406 14 12.7677 14.0527 12.8615 14.1464C12.9553 14.2402 13.008 14.3674 13.008 14.5C13.008 14.6326 12.9553 14.7598 12.8615 14.8535C12.7677 14.9473 12.6406 15 12.508 15C12.3754 15 12.2482 14.9473 12.1544 14.8535C12.0606 14.7598 12.008 14.6326 12.008 14.5C12.008 14.3674 12.0606 14.2402 12.1544 14.1464C12.2482 14.0527 12.3754 14 12.508 14Z" fill="url(#paint1_linear_9_4357)"/>
</g>
<defs>
<linearGradient id="paint0_linear_9_4357" x1="2.00806" y1="7.5" x2="14.0081" y2="7.5" gradientUnits="userSpaceOnUse">
<stop stop-color="#FDFC47"/>
<stop offset="1" stop-color="#24FE41"/>
</linearGradient>
<linearGradient id="paint1_linear_9_4357" x1="9.00928" y1="12.8643" x2="16.0076" y2="12.8643" gradientUnits="userSpaceOnUse">
<stop stop-color="#FF8008"/>
<stop offset="1" stop-color="#FFC837"/>
</linearGradient>
<clipPath id="clip0_9_4357">
<rect width="16" height="16" fill="white"/>
</clipPath>
</defs>
</svg>
