<svg width="16" height="16" viewBox="0 0 16 16" fill="none" xmlns="http://www.w3.org/2000/svg">
<path d="M2 1C0.892 1 0 1.892 0 3V11C0 12.108 0.892 13 2 13H3.522L6 16L8 13H14C15.108 13 16 12.108 16 11V3C16 1.892 15.108 1 14 1H2ZM2 2H14C14.554 2 15 2.446 15 3V11C15 11.554 14.554 12 14 12H7.566L6 14.4L4.033 12H2C1.446 12 1 11.554 1 11V3C1 2.446 1.446 2 2 2ZM8 3C5.797 3 4 4.797 4 7C4 9.203 5.797 11 8 11C10.203 11 12 9.203 12 7C12 4.797 10.203 3 8 3ZM5.5 6H10.5C10.777 6 11 6.223 11 6.5V7.5C11 7.777 10.777 8 10.5 8H5.5C5.4343 8.00013 5.36922 7.98729 5.3085 7.96221C5.24778 7.93713 5.19261 7.9003 5.14615 7.85385C5.0997 7.80739 5.06287 7.75222 5.03779 7.6915C5.01271 7.63078 4.99987 7.5657 5 7.5V6.5C5 6.223 5.223 6 5.5 6ZM1.3 13C1.453 13.017 1.622 13.021 1.824 13H1.3Z" fill="url(#paint0_linear_9_4384)"/>
<defs>
<linearGradient id="paint0_linear_9_4384" x1="0" y1="8.5" x2="16" y2="8.5" gradientUnits="userSpaceOnUse">
<stop stop-color="#FDFC47"/>
<stop offset="1" stop-color="#24FE41"/>
</linearGradient>
</defs>
</svg>
