<svg width="16" height="16" viewBox="0 0 16 16" fill="none" xmlns="http://www.w3.org/2000/svg">
<path opacity="0.5" d="M2 1C0.892 1 0 1.892 0 3V11C0 12.108 0.892 13 2 13H3.522L6 16L8 13H14C15.108 13 16 12.108 16 11V3C16 1.892 15.108 1 14 1H2ZM2 2H14C14.554 2 15 2.446 15 3V11C15 11.554 14.554 12 14 12H7.566L6 14.4L4.034 12H2C1.446 12 1 11.554 1 11V3C1 2.446 1.446 2 2 2ZM1.3 13C1.453 13.017 1.622 13.021 1.824 13H1.3Z" fill="url(#paint0_linear_9_4398)"/>
<path d="M5 6C4.73478 6 4.48043 6.10536 4.29289 6.29289C4.10536 6.48043 4 6.73478 4 7C4 7.26522 4.10536 7.51957 4.29289 7.70711C4.48043 7.89464 4.73478 8 5 8C5.26522 8 5.51957 7.89464 5.70711 7.70711C5.89464 7.51957 6 7.26522 6 7C6 6.73478 5.89464 6.48043 5.70711 6.29289C5.51957 6.10536 5.26522 6 5 6ZM8 6C7.73478 6 7.48043 6.10536 7.29289 6.29289C7.10536 6.48043 7 6.73478 7 7C7 7.26522 7.10536 7.51957 7.29289 7.70711C7.48043 7.89464 7.73478 8 8 8C8.26522 8 8.51957 7.89464 8.70711 7.70711C8.89464 7.51957 9 7.26522 9 7C9 6.73478 8.89464 6.48043 8.70711 6.29289C8.51957 6.10536 8.26522 6 8 6ZM11 6C10.7348 6 10.4804 6.10536 10.2929 6.29289C10.1054 6.48043 10 6.73478 10 7C10 7.26522 10.1054 7.51957 10.2929 7.70711C10.4804 7.89464 10.7348 8 11 8C11.2652 8 11.5196 7.89464 11.7071 7.70711C11.8946 7.51957 12 7.26522 12 7C12 6.73478 11.8946 6.48043 11.7071 6.29289C11.5196 6.10536 11.2652 6 11 6Z" fill="url(#paint1_linear_9_4398)"/>
<defs>
<linearGradient id="paint0_linear_9_4398" x1="0" y1="8.5" x2="16" y2="8.5" gradientUnits="userSpaceOnUse">
<stop stop-color="#FDFC47"/>
<stop offset="1" stop-color="#24FE41"/>
</linearGradient>
<linearGradient id="paint1_linear_9_4398" x1="4" y1="7" x2="12" y2="7" gradientUnits="userSpaceOnUse">
<stop stop-color="#FDFC47"/>
<stop offset="1" stop-color="#24FE41"/>
</linearGradient>
</defs>
</svg>
