<svg width="16" height="16" viewBox="0 0 16 16" fill="none" xmlns="http://www.w3.org/2000/svg">
<path d="M2 1C0.892 1 0 1.892 0 3V11C0 12.108 0.892 13 2 13H3.52197L6 16L8 13H14C15.108 13 16 12.108 16 11V3C16 1.892 15.108 1 14 1H2ZM2 2H14C14.554 2 15 2.446 15 3V11C15 11.554 14.554 12 14 12H7.56604L6 14.4L4.03406 12H2C1.446 12 1 11.554 1 11V3C1 2.446 1.446 2 2 2ZM1.30005 13C1.45305 13.017 1.62197 13.021 1.82397 13H1.30005Z" fill="url(#paint0_linear_9_4377)"/>
<path d="M12.75 4H3.25C3.11193 4 3 4.11193 3 4.25V4.75C3 4.88807 3.11193 5 3.25 5H12.75C12.8881 5 13 4.88807 13 4.75V4.25C13 4.11193 12.8881 4 12.75 4Z" fill="url(#paint1_linear_9_4377)"/>
<path d="M9.75 6H3.25C3.11193 6 3 6.11193 3 6.25V6.75C3 6.88807 3.11193 7 3.25 7H9.75C9.88807 7 10 6.88807 10 6.75V6.25C10 6.11193 9.88807 6 9.75 6Z" fill="url(#paint2_linear_9_4377)"/>
<defs>
<linearGradient id="paint0_linear_9_4377" x1="0" y1="8.5" x2="16" y2="8.5" gradientUnits="userSpaceOnUse">
<stop stop-color="#FDFC47"/>
<stop offset="1" stop-color="#24FE41"/>
</linearGradient>
<linearGradient id="paint1_linear_9_4377" x1="3" y1="4.5" x2="13" y2="4.5" gradientUnits="userSpaceOnUse">
<stop stop-color="#FDFC47"/>
<stop offset="1" stop-color="#24FE41"/>
</linearGradient>
<linearGradient id="paint2_linear_9_4377" x1="3" y1="6.5" x2="10" y2="6.5" gradientUnits="userSpaceOnUse">
<stop stop-color="#FDFC47"/>
<stop offset="1" stop-color="#24FE41"/>
</linearGradient>
</defs>
</svg>
