<svg width="16" height="16" viewBox="0 0 16 16" fill="none" xmlns="http://www.w3.org/2000/svg">
<path d="M1.49011 9.963C1.09245 9.96879 0.713365 10.1323 0.436206 10.4175C0.159046 10.7027 0.00650226 11.0863 0.0121123 11.484V14.479C0.0121123 14.8768 0.170148 15.2584 0.451452 15.5397C0.732757 15.821 1.11429 15.979 1.51211 15.979C1.90994 15.979 2.29147 15.821 2.57277 15.5397C2.85408 15.2584 3.01211 14.8768 3.01211 14.479V11.484C3.01494 11.2834 2.9775 11.0843 2.902 10.8984C2.82651 10.7125 2.71449 10.5436 2.57257 10.4018C2.43066 10.26 2.26174 10.1481 2.07581 10.0727C1.88988 9.99735 1.69072 9.96004 1.49011 9.963Z" fill="url(#paint0_linear_9_4401)"/>
<path d="M1.49205 1.979C1.35961 1.98111 1.23342 2.03568 1.14118 2.13073C1.04894 2.22579 0.998179 2.35356 1.00005 2.486V10C1.00005 10.1326 1.05273 10.2598 1.1465 10.3536C1.24026 10.4473 1.36744 10.5 1.50005 10.5C1.63266 10.5 1.75984 10.4473 1.8536 10.3536C1.94737 10.2598 2.00005 10.1326 2.00005 10V2.486C2.001 2.41907 1.98849 2.35264 1.96329 2.29063C1.93808 2.22863 1.90068 2.17232 1.8533 2.12503C1.80593 2.07775 1.74954 2.04046 1.68749 2.01538C1.62543 1.99029 1.55897 1.97792 1.49205 1.979Z" fill="url(#paint1_linear_9_4401)"/>
<path d="M8.47003 3C7.42303 4 4.14703 4.055 1.78003 4L1.83803 5C1.83803 5 2.30603 4.953 2.33403 5.014C2.79003 6.023 3.81603 7.422 6.00003 7.422C8.06203 7.422 8.50003 5.5 8.50003 5.5C8.50003 5.5 9.09603 7.39 11 7.39C14.51 7.39 15 4 15 4C12.398 4.148 9.55703 4 8.47003 3ZM5.53203 5C6.49103 5.008 7.00003 5.5 7.00003 5.5C7.00003 5.5 6.80203 6 5.62503 6C4.50203 6 4.00003 5.312 4.00003 5.312C4.00003 5.312 4.96003 4.995 5.53203 5ZM11.469 5C12.04 4.995 13 5.313 13 5.313C13 5.313 12.592 6 11.375 6C10.23 6 10 5.5 10 5.5C10 5.5 10.51 5.008 11.47 5H11.469Z" fill="url(#paint2_linear_9_4401)"/>
<defs>
<linearGradient id="paint0_linear_9_4401" x1="0.0119629" y1="12.9709" x2="3.01226" y2="12.9709" gradientUnits="userSpaceOnUse">
<stop stop-color="#FDFC47"/>
<stop offset="1" stop-color="#24FE41"/>
</linearGradient>
<linearGradient id="paint1_linear_9_4401" x1="1" y1="6.23947" x2="2.0001" y2="6.23947" gradientUnits="userSpaceOnUse">
<stop stop-color="#FDFC47"/>
<stop offset="1" stop-color="#24FE41"/>
</linearGradient>
<linearGradient id="paint2_linear_9_4401" x1="1.78003" y1="5.211" x2="15" y2="5.211" gradientUnits="userSpaceOnUse">
<stop stop-color="#FDFC47"/>
<stop offset="1" stop-color="#24FE41"/>
</linearGradient>
</defs>
</svg>
