<svg width="16" height="16" viewBox="0 0 16 16" fill="none" xmlns="http://www.w3.org/2000/svg">
<path d="M3.5 9L1 6H6L3.5 9Z" fill="url(#paint0_linear_9_4406)"/>
<path d="M5 1C3.892 1 3 1.892 3 3V7H4V3C4 2.446 4.446 2 5 2H11C11.554 2 12 2.446 12 3V13C12 13.554 11.554 14 11 14H5C4.446 14 4 13.554 4 13V11H3V13C3 14.108 3.892 15 5 15H11C12.108 15 13 14.108 13 13V3C13 1.892 12.108 1 11 1H5Z" fill="url(#paint1_linear_9_4406)"/>
<defs>
<linearGradient id="paint0_linear_9_4406" x1="1" y1="7.5" x2="6" y2="7.5" gradientUnits="userSpaceOnUse">
<stop stop-color="#FDFC47"/>
<stop offset="1" stop-color="#24FE41"/>
</linearGradient>
<linearGradient id="paint1_linear_9_4406" x1="3" y1="8" x2="13" y2="8" gradientUnits="userSpaceOnUse">
<stop stop-color="#FDFC47"/>
<stop offset="1" stop-color="#24FE41"/>
</linearGradient>
</defs>
</svg>
