<svg width="16" height="16" viewBox="0 0 16 16" fill="none" xmlns="http://www.w3.org/2000/svg">
<path d="M7.75004 1.032C4.98704 1.134 2.44104 2.837 1.43804 5.595C0.933208 6.98129 0.877579 8.49132 1.27904 9.911C1.68304 8.593 2.76404 7.577 4.11704 7.228C4.28704 6.938 4.48904 6.668 4.70704 6.415C4.71704 5.705 4.83704 4.986 5.09404 4.282C5.60804 2.87 6.56804 1.774 7.75004 1.032ZM5.20704 9.012L4.80104 9.073C4.32766 9.13824 3.89413 9.37332 3.5812 9.73445C3.26827 10.0956 3.09726 10.5582 3.10004 11.036C3.10004 12.152 3.98304 13.036 5.10004 13.036H11.475C11.661 13.036 11.835 12.998 12 12.942C10.979 13.0827 9.93909 12.9743 8.96904 12.626C8.1253 12.3183 7.35498 11.8381 6.70724 11.216C6.0595 10.5939 5.54856 9.84262 5.20704 9.012Z" fill="url(#paint0_linear_9_4419)"/>
<path d="M8.09912 5.786C6.54612 5.786 5.22312 6.737 4.65412 8.083C3.94467 8.18648 3.29613 8.54178 2.82702 9.08397C2.35791 9.62616 2.09954 10.319 2.09912 11.036C2.09912 11.8316 2.41519 12.5947 2.9778 13.1573C3.54041 13.7199 4.30347 14.036 5.09912 14.036H11.4741C12.1703 14.036 12.838 13.7594 13.3303 13.2672C13.8226 12.7749 14.0991 12.1072 14.0991 11.411C14.0991 10.7683 13.8627 10.148 13.4349 9.66832C13.007 9.18867 12.4177 8.88316 11.7791 8.81C11.6093 7.95849 11.15 7.192 10.4792 6.64075C9.80837 6.08951 8.96739 5.78748 8.09912 5.786Z" fill="url(#paint1_linear_9_4419)"/>
<defs>
<linearGradient id="paint0_linear_9_4419" x1="1.01392" y1="7.034" x2="12" y2="7.034" gradientUnits="userSpaceOnUse">
<stop stop-color="#FDFC47"/>
<stop offset="1" stop-color="#24FE41"/>
</linearGradient>
<linearGradient id="paint1_linear_9_4419" x1="2.09912" y1="9.911" x2="14.0991" y2="9.911" gradientUnits="userSpaceOnUse">
<stop stop-color="#FDFC47"/>
<stop offset="1" stop-color="#24FE41"/>
</linearGradient>
</defs>
</svg>
