<svg width="16" height="16" viewBox="0 0 16 16" fill="none" xmlns="http://www.w3.org/2000/svg">
<path d="M8 3C6.1636 3 4.6333 4.2018 4.0625 5.8438C2.3394 6.06216 1 7.5183 1 9.3008C1 11.2338 2.567 12.8008 4.5 12.8008H4.63672C4.62748 12.7122 4.61561 12.6235 4.61914 12.5371C4.64083 12.0067 4.84117 11.5566 5.0918 11.1621L6.7734 8.24803L7.45504 9.42773L9.10734 6.57033L10.787 9.47853C11.0604 9.90124 11.2733 10.3635 11.2831 10.9101C11.2929 11.4533 11.0333 12.007 10.662 12.3867C10.4696 12.5856 10.2464 12.709 10.0234 12.8008H12.1992C13.7456 12.8008 15 11.5464 15 9.99999C15 8.45359 13.7456 7.19919 12.1992 7.19919C12.1992 4.87969 10.3195 3 8 3ZM9.1074 10.5664C8.98851 10.7579 8.95266 10.9045 8.95115 10.9414C8.9496 10.9792 8.91689 10.9259 8.98045 10.9902L8.98631 10.9961L8.99412 11.0039C8.99516 11.005 8.90336 10.9902 9.1074 10.9902C9.31144 10.9902 9.22159 11.005 9.22263 11.0039L9.22849 10.9961L9.2363 10.9902C9.33103 10.8943 9.28324 10.9509 9.28318 10.9473C9.28311 10.9437 9.26239 10.8071 9.1074 10.5664ZM6.7734 12.2461C6.65455 12.4375 6.61866 12.5822 6.61715 12.6192C6.6156 12.657 6.58289 12.6017 6.64645 12.666L6.65426 12.6738L6.66012 12.6797C6.66116 12.6808 6.56936 12.666 6.7734 12.666C6.97744 12.666 6.88759 12.6808 6.88863 12.6797L6.89449 12.6738L6.9023 12.666C6.99703 12.5701 6.94924 12.6267 6.94918 12.6231C6.94911 12.6195 6.92839 12.4868 6.7734 12.2461Z" fill="url(#paint0_linear_9_4446)"/>
<path d="M7.61307 11.6989L6.77449 10.2477L5.93592 11.6989C5.559 12.2921 5.46607 12.8943 5.93592 13.3701C6.17976 13.6258 6.47712 13.6674 6.77449 13.6674C7.07186 13.6674 7.36923 13.6258 7.61307 13.3701C8.08291 12.8943 8.04349 12.3646 7.61307 11.6989Z" fill="url(#paint1_linear_9_4446)"/>
<path d="M9.94657 10.0212L9.10799 8.57004L8.26941 10.0212C7.8925 10.6144 7.79957 11.2166 8.26941 11.6924C8.51325 11.9481 8.81062 11.9897 9.10799 11.9897C9.40536 11.9897 9.70273 11.9481 9.94657 11.6924C10.4164 11.2166 10.377 10.6869 9.94657 10.0212Z" fill="url(#paint2_linear_9_4446)"/>
<defs>
<linearGradient id="paint0_linear_9_4446" x1="1" y1="7.9004" x2="15" y2="7.9004" gradientUnits="userSpaceOnUse">
<stop stop-color="#FDFC47"/>
<stop offset="1" stop-color="#24FE41"/>
</linearGradient>
<linearGradient id="paint1_linear_9_4446" x1="5.61743" y1="11.9576" x2="7.95083" y2="11.9576" gradientUnits="userSpaceOnUse">
<stop stop-color="#2193B0"/>
<stop offset="1" stop-color="#6DD5ED"/>
</linearGradient>
<linearGradient id="paint2_linear_9_4446" x1="7.95093" y1="10.2799" x2="10.2843" y2="10.2799" gradientUnits="userSpaceOnUse">
<stop stop-color="#2193B0"/>
<stop offset="1" stop-color="#6DD5ED"/>
</linearGradient>
</defs>
</svg>
