<svg width="16" height="16" viewBox="0 0 16 16" fill="none" xmlns="http://www.w3.org/2000/svg">
<path opacity="0.6" d="M12.2659 10.772C12.3304 10.6562 12.3464 10.5196 12.3102 10.392C12.274 10.2645 12.1886 10.1566 12.0729 10.092L11.3869 9.696L11.5869 9.643C11.6527 9.62822 11.7148 9.60031 11.7694 9.56093C11.8241 9.52155 11.8703 9.47152 11.9052 9.41385C11.94 9.35618 11.9629 9.29205 11.9723 9.22532C11.9818 9.1586 11.9777 9.09065 11.9602 9.02556C11.9427 8.96047 11.9123 8.89958 11.8707 8.84656C11.8291 8.79353 11.7772 8.74946 11.7181 8.717C11.6591 8.68454 11.5941 8.66435 11.527 8.65765C11.46 8.65094 11.3922 8.65787 11.3279 8.678L10.1619 8.989L8.49192 8.025L10.1599 7.061L11.3259 7.374C11.3905 7.39534 11.4587 7.40328 11.5265 7.39734C11.5942 7.3914 11.6601 7.37171 11.7199 7.33946C11.7798 7.30721 11.8325 7.26308 11.8747 7.20978C11.9169 7.15648 11.9479 7.09512 11.9656 7.02946C11.9833 6.9638 11.9874 6.89521 11.9777 6.8279C11.968 6.76059 11.9447 6.69597 11.9091 6.63798C11.8736 6.58 11.8266 6.52988 11.771 6.49068C11.7154 6.45148 11.6525 6.42402 11.5859 6.41L11.3819 6.356L12.0719 5.958C12.1601 5.90906 12.2313 5.83441 12.2759 5.744C12.4999 5.297 12.0009 4.834 11.5719 5.091L10.8849 5.489L10.9379 5.289C11.1499 4.623 10.1219 4.347 9.97292 5.029L9.65992 6.195L7.99092 7.159L7.98992 5.182L8.84392 4.329C8.88016 4.29385 8.91084 4.25338 8.93492 4.209C9.21692 3.699 8.54292 3.201 8.13792 3.621L7.98992 3.767V2.974C8.01992 2.279 6.96192 2.279 6.99092 2.974V3.768L6.84492 3.62C6.37292 3.148 5.66492 3.856 6.13692 4.328L6.99192 5.18L6.99092 7.158L5.14692 6.094L4.83392 4.928C4.66992 4.27 3.68192 4.535 3.86792 5.187L3.92292 5.387L3.41192 5.092C2.83392 4.759 2.33392 5.625 2.91192 5.958L3.42192 6.253L3.22192 6.307C2.56392 6.471 2.82892 7.459 3.48092 7.273L4.64692 6.96L6.49192 8.025L4.64592 9.09L3.48092 8.777C2.82092 8.577 2.55092 9.588 3.22292 9.743L3.42292 9.797L2.91092 10.093C2.29392 10.414 2.82192 11.331 3.40992 10.958L3.92392 10.662L3.86892 10.863C3.70592 11.432 4.49192 11.762 4.78392 11.247C4.80644 11.2082 4.82359 11.1664 4.83492 11.123L5.14792 9.955L6.99292 8.889V10.969L6.13792 11.823C5.63292 12.293 6.37192 13.033 6.84392 12.53L6.99292 12.383V12.973C6.98492 13.506 7.70492 13.678 7.93992 13.201C7.97468 13.1301 7.99216 13.052 7.99092 12.973V12.384L8.13692 12.53C8.1834 12.5765 8.23859 12.6134 8.29933 12.6385C8.36007 12.6637 8.42517 12.6766 8.49092 12.6766C8.55666 12.6766 8.62176 12.6637 8.6825 12.6385C8.74324 12.6134 8.79843 12.5765 8.84492 12.53C8.8914 12.4835 8.92828 12.4283 8.95344 12.3676C8.9786 12.3068 8.99155 12.2417 8.99155 12.176C8.99155 12.1103 8.9786 12.0452 8.95344 11.9844C8.92828 11.9237 8.8914 11.8685 8.84492 11.822L7.99092 10.969V8.89L9.66092 9.854L9.97392 11.02C10.1389 11.679 11.1269 11.414 10.9399 10.762L10.8859 10.561L11.5729 10.957C11.6304 10.9911 11.6941 11.0133 11.7603 11.0223C11.8265 11.0314 11.8939 11.0271 11.9584 11.0096C12.0229 10.9922 12.0833 10.962 12.1359 10.9209C12.1886 10.8797 12.2324 10.8284 12.2649 10.77L12.2659 10.772Z" fill="url(#paint0_linear_9_4476)"/>
<defs>
<linearGradient id="paint0_linear_9_4476" x1="2.63477" y1="7.96654" x2="12.3314" y2="7.96654" gradientUnits="userSpaceOnUse">
<stop stop-color="#FDFC47"/>
<stop offset="1" stop-color="#24FE41"/>
</linearGradient>
</defs>
</svg>
