<svg width="16" height="16" viewBox="0 0 16 16" fill="none" xmlns="http://www.w3.org/2000/svg">
<path opacity="0.5" d="M8 2C6.1636 2 4.6333 3.2018 4.0625 4.8438C2.3394 5.06216 1 6.5183 1 8.3008C1 8.92124 1.17582 9.4947 1.45898 10H14.807C14.9266 9.68849 15.0003 9.35362 15.0003 9C15.0003 7.4536 13.7459 6.1992 12.1995 6.1992C12.1995 3.8797 10.3195 2 8 2Z" fill="url(#paint0_linear_9_4439)"/>
<path opacity="0.5" d="M1.58334 11H7.41664C7.49325 11 7.5691 11.0129 7.63987 11.0381C7.71065 11.0632 7.77495 11.1 7.82912 11.1464C7.88329 11.1929 7.92626 11.248 7.95558 11.3087C7.98489 11.3693 7.99998 11.4343 7.99998 11.5C7.99998 11.5657 7.98489 11.6307 7.95558 11.6913C7.92626 11.752 7.88329 11.8071 7.82912 11.8536C7.77495 11.9 7.71065 11.9368 7.63987 11.9619C7.5691 11.9871 7.49325 12 7.41664 12H1.58334C1.50674 12 1.43088 11.9871 1.36011 11.9619C1.28933 11.9368 1.22503 11.9 1.17086 11.8536C1.11669 11.8071 1.07372 11.752 1.0444 11.6913C1.01509 11.6307 1 11.5657 1 11.5C1 11.4343 1.01509 11.3693 1.0444 11.3087C1.07372 11.248 1.11669 11.1929 1.17086 11.1464C1.22503 11.1 1.28933 11.0632 1.36011 11.0381C1.43088 11.0129 1.50674 11 1.58334 11Z" fill="url(#paint1_linear_9_4439)"/>
<path opacity="0.5" d="M10.5709 11H13.428C13.5031 11 13.5774 11.0129 13.6467 11.0381C13.716 11.0632 13.779 11.1 13.8321 11.1464C13.8852 11.1929 13.9273 11.248 13.956 11.3087C13.9847 11.3693 13.9995 11.4343 13.9995 11.5C13.9995 11.5657 13.9847 11.6307 13.956 11.6913C13.9273 11.752 13.8852 11.8071 13.8321 11.8536C13.779 11.9 13.716 11.9368 13.6467 11.9619C13.5774 11.9871 13.5031 12 13.428 12H10.5709C10.4959 12 10.4216 11.9871 10.3523 11.9619C10.2829 11.9368 10.2199 11.9 10.1669 11.8536C10.1138 11.8071 10.0717 11.752 10.043 11.6913C10.0143 11.6307 9.99951 11.5657 9.99951 11.5C9.99951 11.4343 10.0143 11.3693 10.043 11.3087C10.0717 11.248 10.1138 11.1929 10.1669 11.1464C10.2199 11.1 10.2829 11.0632 10.3523 11.0381C10.4216 11.0129 10.4959 11 10.5709 11Z" fill="url(#paint2_linear_9_4439)"/>
<path opacity="0.5" d="M2.49012 13H3.49672C3.6302 13 3.75821 13.0527 3.8526 13.1464C3.94698 13.2402 4.00001 13.3674 4.00001 13.5C4.00001 13.6326 3.94698 13.7598 3.8526 13.8536C3.75821 13.9473 3.6302 14 3.49672 14H2.49012C2.42402 14 2.35858 13.9871 2.29751 13.9619C2.23645 13.9368 2.18097 13.9 2.13423 13.8536C2.08749 13.8071 2.05042 13.752 2.02513 13.6913C1.99983 13.6307 1.98682 13.5657 1.98682 13.5C1.98682 13.4343 1.99983 13.3693 2.02513 13.3087C2.05042 13.248 2.08749 13.1929 2.13423 13.1464C2.18097 13.1 2.23645 13.0632 2.29751 13.0381C2.35858 13.0129 2.42402 13 2.49012 13Z" fill="url(#paint3_linear_9_4439)"/>
<path opacity="0.5" d="M5.6 13H13.4C13.4788 13 13.5568 13.0129 13.6296 13.0381C13.7024 13.0632 13.7686 13.1 13.8243 13.1464C13.88 13.1929 13.9242 13.248 13.9543 13.3087C13.9845 13.3693 14 13.4343 14 13.5C14 13.5657 13.9845 13.6307 13.9543 13.6913C13.9242 13.752 13.88 13.8071 13.8243 13.8536C13.7686 13.9 13.7024 13.9368 13.6296 13.9619C13.5568 13.9871 13.4788 14 13.4 14H5.6C5.44087 14 5.28826 13.9473 5.17574 13.8536C5.06321 13.7598 5 13.6326 5 13.5C5 13.3674 5.06321 13.2402 5.17574 13.1464C5.28826 13.0527 5.44087 13 5.6 13Z" fill="url(#paint4_linear_9_4439)"/>
<defs>
<linearGradient id="paint0_linear_9_4439" x1="1" y1="6" x2="15.0003" y2="6" gradientUnits="userSpaceOnUse">
<stop stop-color="#FDFC47"/>
<stop offset="1" stop-color="#24FE41"/>
</linearGradient>
<linearGradient id="paint1_linear_9_4439" x1="1" y1="11.5" x2="7.99998" y2="11.5" gradientUnits="userSpaceOnUse">
<stop stop-color="#FDFC47"/>
<stop offset="1" stop-color="#24FE41"/>
</linearGradient>
<linearGradient id="paint2_linear_9_4439" x1="9.99951" y1="11.5" x2="13.9995" y2="11.5" gradientUnits="userSpaceOnUse">
<stop stop-color="#FDFC47"/>
<stop offset="1" stop-color="#24FE41"/>
</linearGradient>
<linearGradient id="paint3_linear_9_4439" x1="1.98682" y1="13.5" x2="4.00001" y2="13.5" gradientUnits="userSpaceOnUse">
<stop stop-color="#FDFC47"/>
<stop offset="1" stop-color="#24FE41"/>
</linearGradient>
<linearGradient id="paint4_linear_9_4439" x1="5" y1="13.5" x2="14" y2="13.5" gradientUnits="userSpaceOnUse">
<stop stop-color="#FDFC47"/>
<stop offset="1" stop-color="#24FE41"/>
</linearGradient>
</defs>
</svg>
