<svg width="16" height="16" viewBox="0 0 16 16" fill="none" xmlns="http://www.w3.org/2000/svg">
<path d="M8 2C6.1636 2 4.6333 3.2018 4.0625 4.8438C2.3394 5.06216 1 6.5183 1 8.3008C1 10.2338 2.567 11.8008 4.5 11.8008H5.01758L5.4336 11.0801L6.29883 9.5801L7.58003 11.8008H7.6523C7.72431 11.4458 7.81981 11.1 7.99996 10.8164L8.81637 9.40232L9.6816 7.90232L11.3593 10.8105C11.5556 11.1142 11.719 11.4398 11.8007 11.8007H12.1991C13.7455 11.8007 14.9999 10.5463 14.9999 8.99995C14.9999 7.45355 13.7455 6.19915 12.1991 6.19915C12.1991 3.87965 10.3195 2 8 2Z" fill="url(#paint0_linear_9_4469)"/>
<g opacity="0.5">
<path d="M9.68151 9.9023L8.84362 11.3535C8.46671 11.9468 8.37378 12.5496 8.84362 13.0254C9.08746 13.2811 9.38414 13.3223 9.68151 13.3223C9.97888 13.3223 10.2756 13.2811 10.5194 13.0254C10.9892 12.5496 10.9498 12.0192 10.5194 11.3535L9.68151 9.9023ZM6.29871 11.58L5.46082 13.0312C5.08391 13.6245 4.99098 14.2273 5.46082 14.7031C5.70466 14.9588 6.00134 15 6.29871 15C6.59608 15 6.89276 14.9588 7.1366 14.7031C7.60644 14.2273 7.56702 13.6969 7.1366 13.0312L6.29871 11.58Z" fill="url(#paint1_linear_9_4469)"/>
</g>
<defs>
<linearGradient id="paint0_linear_9_4469" x1="1" y1="6.90037" x2="14.9999" y2="6.90037" gradientUnits="userSpaceOnUse">
<stop stop-color="#FDFC47"/>
<stop offset="1" stop-color="#24FE41"/>
</linearGradient>
<linearGradient id="paint1_linear_9_4469" x1="5.14233" y1="12.4511" x2="10.8572" y2="12.4511" gradientUnits="userSpaceOnUse">
<stop stop-color="#FDFC47"/>
<stop offset="1" stop-color="#24FE41"/>
</linearGradient>
</defs>
</svg>
