<svg width="16" height="16" viewBox="0 0 16 16" fill="none" xmlns="http://www.w3.org/2000/svg">
<path d="M8 2C6.1636 2 4.6333 3.2018 4.0625 4.8438C2.3394 5.06216 1 6.5183 1 8.3008C1 10.0806 2.3334 11.5341 4.0527 11.7559L4.55661 9.8497V9.84775C4.71731 9.2308 5.24532 8.79165 5.83981 8.70905C6.04287 8.68085 6.25087 8.69428 6.44723 8.74616C6.73514 8.8222 6.91603 9.04843 7.10739 9.25397C7.35212 8.97547 7.65608 8.75978 8.02145 8.70905C8.22451 8.68085 8.43251 8.69428 8.62887 8.74615C8.91678 8.8222 9.09767 9.04842 9.28903 9.25396C9.53376 8.97546 9.83772 8.75977 10.2031 8.70904C10.4061 8.68085 10.6141 8.69428 10.8105 8.74615C11.6262 8.9616 12.1237 9.81675 11.9082 10.6329V10.6348L11.5938 11.8008H12.1992C13.7456 11.8008 15 10.5464 15 9.00001C15 7.45361 13.7456 6.19921 12.1992 6.19921C12.1992 3.87971 10.3195 2 8 2Z" fill="url(#paint0_linear_9_4473)"/>
<path d="M5.97671 9.6992C5.7668 9.72834 5.58281 9.87868 5.52554 10.0996L4.82827 12.7344C4.74099 13.0235 4.90872 13.324 5.20327 13.4004C5.49236 13.4768 5.79292 13.3063 5.86929 13.0117L6.57827 10.3769C6.65464 10.0878 6.48064 9.78924 6.19155 9.71288C6.11928 9.69379 6.04668 9.68948 5.97671 9.6992ZM8.15831 9.6992C7.9484 9.72834 7.76441 9.87868 7.70714 10.0996L6.57234 14.3105C6.49597 14.605 6.67192 14.8931 6.96101 14.9804C7.25556 15.0568 7.55457 14.8937 7.63093 14.5937L8.75983 10.3769C8.8362 10.0878 8.6622 9.78919 8.37311 9.71283C8.30084 9.69374 8.22828 9.68948 8.15831 9.6992ZM10.3399 9.6992C10.13 9.72834 9.94601 9.87868 9.88874 10.0996L9.19147 12.7344C9.10419 13.0235 9.27387 13.324 9.56842 13.4004C9.85751 13.4768 10.1561 13.3063 10.2325 13.0117L10.9415 10.3769C11.0178 10.0878 10.8438 9.78924 10.5547 9.71288C10.4825 9.69379 10.4099 9.68948 10.3399 9.6992Z" fill="url(#paint1_linear_9_4473)"/>
<defs>
<linearGradient id="paint0_linear_9_4473" x1="1" y1="6.9004" x2="15" y2="6.9004" gradientUnits="userSpaceOnUse">
<stop stop-color="#FDFC47"/>
<stop offset="1" stop-color="#24FE41"/>
</linearGradient>
<linearGradient id="paint1_linear_9_4473" x1="4.80518" y1="12.3466" x2="10.9594" y2="12.3466" gradientUnits="userSpaceOnUse">
<stop stop-color="#FDFC47"/>
<stop offset="1" stop-color="#24FE41"/>
</linearGradient>
</defs>
</svg>
