<svg width="16" height="16" viewBox="0 0 16 16" fill="none" xmlns="http://www.w3.org/2000/svg">
<g clip-path="url(#clip0_9_4431)">
<path d="M7.30015 1.03241C4.72139 1.12707 2.34517 2.71631 1.4082 5.28994C0.228547 8.53009 1.7523 12.1248 4.84996 13.5133C4.76297 13.1984 4.71286 12.8536 4.73329 12.5218C4.75915 11.5875 5.27835 10.7606 6.01666 10.2181C4.5542 8.60079 4.02336 6.25548 4.82079 4.06512C5.30069 2.74687 6.19715 1.7245 7.30015 1.03241ZM7.47515 11.4137C7.08588 11.574 6.76769 11.8677 6.65845 12.2885C6.41095 13.0584 6.97169 13.9258 7.76683 14.0382C9.44314 13.9692 11.0331 13.2818 12.2004 12.0845V11.9387C11.0049 12.2882 9.69737 12.3095 8.4378 11.8512C8.09992 11.7283 7.77617 11.5874 7.47515 11.4137Z" fill="url(#paint0_linear_9_4431)"/>
<path d="M10.3338 8.46849C9.10946 8.46849 8.08918 9.26953 7.70872 10.3639C6.55989 10.5095 5.66699 11.4796 5.66699 12.6677C5.66699 13.9561 6.7117 15.0006 8.00039 15.0006H13.134C14.165 15.0006 15.0007 14.165 15.0007 13.1344C15.0007 12.1036 14.1649 11.2681 13.134 11.2681C13.134 9.72199 11.8803 8.46849 10.3338 8.46849Z" fill="url(#paint1_linear_9_4431)"/>
</g>
<defs>
<linearGradient id="paint0_linear_9_4431" x1="1.00952" y1="7.53532" x2="12.2004" y2="7.53532" gradientUnits="userSpaceOnUse">
<stop stop-color="#FDFC47"/>
<stop offset="1" stop-color="#24FE41"/>
</linearGradient>
<linearGradient id="paint1_linear_9_4431" x1="5.66699" y1="11.7346" x2="15.0007" y2="11.7346" gradientUnits="userSpaceOnUse">
<stop stop-color="#FDFC47"/>
<stop offset="1" stop-color="#24FE41"/>
</linearGradient>
<clipPath id="clip0_9_4431">
<rect width="16" height="16" fill="white"/>
</clipPath>
</defs>
</svg>
