<svg width="16" height="17" viewBox="0 0 16 17" fill="none" xmlns="http://www.w3.org/2000/svg">
<g clip-path="url(#clip0_10_18471)">
<path d="M3 1.0098C1.892 1.0098 1 1.9018 1 3.0098V13.0098C1 14.1178 1.892 15.0098 3 15.0098H8.7617C8.55479 14.6984 8.38749 14.3625 8.26365 14.0098H3.99995C3.99995 12.9489 4.42138 11.9315 5.17152 11.1814C5.92167 10.4312 6.93908 10.0098 7.99995 10.0098C8.2411 10.0109 8.48167 10.0337 8.7187 10.0782C8.91904 9.76618 9.15717 9.48016 9.42768 9.22659C8.96478 9.08562 8.48386 9.0126 7.99998 9.0098C6.79923 9.01092 5.63898 9.44412 4.73131 10.2302C3.82364 11.0163 3.22918 12.1028 3.05658 13.2911C3.02964 13.2003 2.99994 13.1096 2.99994 13.0098V3.00985C2.99994 2.45585 3.44594 2.00985 3.99994 2.00985H11.9999C12.5539 2.00985 12.9999 2.45585 12.9999 3.00985V8.04105C13.341 8.08012 13.6766 8.1581 13.9999 8.27347V3.00977C13.9999 1.90177 13.1079 1.00977 11.9999 1.00977L3 1.0098ZM8 4.0098C7.46957 4.0098 6.96086 4.22051 6.58579 4.59558C6.21071 4.97066 6 5.47936 6 6.0098C6 6.54023 6.21071 7.04894 6.58579 7.42401C6.96086 7.79908 7.46957 8.0098 8 8.0098C8.53043 8.0098 9.03914 7.79908 9.41421 7.42401C9.78929 7.04894 10 6.54023 10 6.0098C10 5.47936 9.78929 4.97066 9.41421 4.59558C9.03914 4.22051 8.53043 4.0098 8 4.0098ZM8 5.0098C8.26522 5.0098 8.51957 5.11515 8.70711 5.30269C8.89464 5.49023 9 5.74458 9 6.0098C9 6.27501 8.89464 6.52937 8.70711 6.7169C8.51957 6.90444 8.26522 7.0098 8 7.0098C7.73478 7.0098 7.48043 6.90444 7.29289 6.7169C7.10536 6.52937 7 6.27501 7 6.0098C7 5.74458 7.10536 5.49023 7.29289 5.30269C7.48043 5.11515 7.73478 5.0098 8 5.0098Z" fill="url(#paint0_linear_10_18471)"/>
<path d="M12.5 9.00977C10.567 9.00977 9 10.5768 9 12.5098C9 14.4428 10.567 16.0098 12.5 16.0098C14.433 16.0098 16 14.4428 16 12.5098C16 10.5768 14.433 9.00977 12.5 9.00977ZM12 10.0098H13V12.0098H15V13.0098H13V15.0098H12V13.0098H10V12.0098H12V10.0098Z" fill="url(#paint1_linear_10_18471)"/>
</g>
<defs>
<linearGradient id="paint0_linear_10_18471" x1="1" y1="8.00978" x2="13.9999" y2="8.00978" gradientUnits="userSpaceOnUse">
<stop stop-color="#FDFC47"/>
<stop offset="1" stop-color="#24FE41"/>
</linearGradient>
<linearGradient id="paint1_linear_10_18471" x1="9" y1="12.5098" x2="16" y2="12.5098" gradientUnits="userSpaceOnUse">
<stop stop-color="#FDFC47"/>
<stop offset="1" stop-color="#24FE41"/>
</linearGradient>
<clipPath id="clip0_10_18471">
<rect width="16" height="16.01" fill="white"/>
</clipPath>
</defs>
</svg>
