<svg width="16" height="16" viewBox="0 0 16 16" fill="none" xmlns="http://www.w3.org/2000/svg">
<g clip-path="url(#clip0_10_18495)">
<path d="M16 10.9993H15.0059V15.5011C15.0059 15.5669 14.9929 15.6321 14.9676 15.6929C14.9423 15.7537 14.9052 15.8088 14.8584 15.8552C14.8117 15.9016 14.7563 15.9383 14.6953 15.9631C14.6343 15.988 14.569 16.0005 14.5032 16H10.5004C10.368 16 10.2411 15.9474 10.1476 15.8539C10.054 15.7603 10.0014 15.6334 10.0014 15.5011V11.0031H0V8.99976H2.00331V0.498937C2.00331 0.22679 2.21876 0 2.49468 0H6.5013C6.77723 0 7.00024 0.22301 7.00024 0.498937V9.00354H8.00189V3.49634C8.00189 3.22041 8.2249 2.9974 8.50083 2.9974H12.4999C12.7796 2.9974 13.0026 3.22041 13.0026 3.49634V8.99598H16V10.9993ZM14.0005 15.0059V10.9993H10.9993V15.0059H14.0005ZM12.0009 8.99598V3.99905H8.99976V8.99976L12.0009 8.99598ZM6.00236 8.99598V1.00165H3.00118V8.99598H6.00236Z" fill="url(#paint0_linear_10_18495)"/>
<path opacity="0.3" d="M14.0005 10.0012V15.002H10.9993V10.0012H14.0005Z" fill="#232323"/>
<path opacity="0.1" d="M12.001 10.0012H8.9998V3.99887H12.001V10.0012ZM6.0024 10.0012H3.00122V1.00146H6.0024V10.0012Z" fill="#232323"/>
</g>
<defs>
<linearGradient id="paint0_linear_10_18495" x1="0" y1="8.00001" x2="16" y2="8.00001" gradientUnits="userSpaceOnUse">
<stop stop-color="#FDFC47"/>
<stop offset="1" stop-color="#24FE41"/>
</linearGradient>
<clipPath id="clip0_10_18495">
<rect width="16" height="16" fill="white"/>
</clipPath>
</defs>
</svg>
