<svg width="16" height="16" viewBox="0 0 16 16" fill="none" xmlns="http://www.w3.org/2000/svg">
<g clip-path="url(#clip0_10_18480)">
<path d="M5.00071 0V1.00165H0.502717C0.436878 1.00115 0.371592 1.01369 0.310621 1.03854C0.24965 1.06339 0.194201 1.10007 0.147469 1.14645C0.100737 1.19283 0.0636476 1.248 0.0383376 1.30878C0.0130277 1.36956 -1.88919e-06 1.43475 2.05453e-10 1.50059L2.05453e-10 5.49965C2.05453e-10 5.77557 0.22301 5.99858 0.498937 5.99858H4.99693V16H7.00024V14.0005H15.5011C15.6334 14.0005 15.7603 13.9479 15.8539 13.8543C15.9474 13.7608 16 13.6339 16 13.5015V9.50248C16.0005 9.43664 15.988 9.37136 15.9631 9.31038C15.9383 9.24941 15.9016 9.19396 15.8552 9.14723C15.8088 9.1005 15.7537 9.06341 15.6929 9.0381C15.6321 9.01279 15.5669 8.99976 15.5011 8.99976H7.00024V8.00189H12.4999C12.566 8.00239 12.6316 7.98973 12.6929 7.96465C12.7541 7.93956 12.8097 7.90255 12.8565 7.85577C12.9033 7.80899 12.9403 7.75337 12.9654 7.69215C12.9904 7.63093 13.0031 7.56533 13.0026 7.49917V3.50012C13.0026 3.43428 12.9896 3.36909 12.9643 3.30831C12.939 3.24752 12.9019 3.19235 12.8551 3.14597C12.8084 3.09959 12.7529 3.06292 12.692 3.03807C12.631 3.01322 12.5657 3.00068 12.4999 3.00118H7.00024V0H5.00071ZM1.00165 2.00331H5.00071V5.00071H1.00165V2.00331ZM7.00024 3.99905H12.0009V7.00024H7.00024V3.99905ZM7.00024 10.0014H15.0059V13.0026H7.00024V10.0014Z" fill="url(#paint0_linear_10_18480)"/>
<path opacity="0.3" d="M6.00242 1.99951H1.00171V5.00069H6.00242V1.99951Z" fill="#232323"/>
<path opacity="0.1" d="M5.99854 3.99902V7.0002H12.0009V3.99902H5.99854ZM5.99854 10.0014V13.0026H15.0059V10.0014H5.99854Z" fill="#232323"/>
</g>
<defs>
<linearGradient id="paint0_linear_10_18480" x1="0" y1="8" x2="16" y2="8" gradientUnits="userSpaceOnUse">
<stop stop-color="#FDFC47"/>
<stop offset="1" stop-color="#24FE41"/>
</linearGradient>
<clipPath id="clip0_10_18480">
<rect width="16" height="16" fill="white"/>
</clipPath>
</defs>
</svg>
