<svg width="16" height="16" viewBox="0 0 16 16" fill="none" xmlns="http://www.w3.org/2000/svg">
<g clip-path="url(#clip0_10_18484)">
<path d="M15.0022 0V16H12.9989V14.0005H2.50236C2.37003 14.0005 2.24312 13.9479 2.14955 13.8543C2.05598 13.7608 2.00342 13.6339 2.00342 13.5015V9.50248C2.00342 9.22277 2.23021 8.99976 2.50236 8.99976H13.0027V8.00189H5.49976C5.43392 8.00189 5.36873 7.98886 5.30794 7.96355C5.24716 7.93824 5.19199 7.90115 5.14561 7.85442C5.09923 7.80769 5.06256 7.75224 5.03771 7.69127C5.01286 7.6303 5.00032 7.56501 5.00082 7.49917V3.50012C5.00082 3.22419 5.22383 3.00118 5.49976 3.00118H13.0027V0H15.0022ZM12.9989 3.99905H6.00247V7.00024H13.0027L12.9989 3.99905ZM12.9989 10.0014H3.00507V13.0026H13.0027L12.9989 10.0014Z" fill="url(#paint0_linear_10_18484)"/>
<path opacity="0.1" d="M14.0005 3.99902V7.0002H5.99862V3.99902H14.0005ZM14.0005 10.0014V13.0026H3.00122V10.0014H14.0005Z" fill="#232323"/>
</g>
<defs>
<linearGradient id="paint0_linear_10_18484" x1="2.00342" y1="8" x2="15.0022" y2="8" gradientUnits="userSpaceOnUse">
<stop stop-color="#FDFC47"/>
<stop offset="1" stop-color="#24FE41"/>
</linearGradient>
<clipPath id="clip0_10_18484">
<rect width="16" height="16" fill="white"/>
</clipPath>
</defs>
</svg>
