<svg width="16" height="16" viewBox="0 0 16 16" fill="none" xmlns="http://www.w3.org/2000/svg">
<g clip-path="url(#clip0_10_18474)">
<path d="M7.00031 0V2.49846H9.00361V0H7.00031ZM3.50019 2.00331C3.36916 2.00329 3.24339 2.05482 3.15003 2.14676C3.05668 2.2387 3.00324 2.36367 3.00125 2.49468V7.49539C3.00125 7.7751 3.22426 7.99811 3.50019 7.99811H6.13851C6.04961 7.84547 6.00267 7.67203 6.00243 7.49539V6.99646H3.99912V3.00118H6.13851C6.05026 2.84965 6.00333 2.6776 6.00243 2.50224V1.99953L3.50019 2.00331ZM9.99393 2.00331V2.50224C9.99418 2.67726 9.94856 2.84928 9.86163 3.00118H12.001V7.00024H9.99771V7.49917C9.99632 7.67616 9.94807 7.84962 9.85785 8.00189H12.5037C12.5696 8.00189 12.6348 7.98886 12.6955 7.96355C12.7563 7.93824 12.8115 7.90115 12.8579 7.85442C12.9043 7.80769 12.9409 7.75224 12.9658 7.69127C12.9906 7.6303 13.0032 7.56501 13.0027 7.49917V2.49846C13.0022 2.43294 12.9888 2.36816 12.9632 2.30782C12.9377 2.24747 12.9005 2.19275 12.8539 2.14677C12.8072 2.10079 12.7519 2.06445 12.6912 2.03984C12.6305 2.01522 12.5655 2.00281 12.5 2.00331H9.99393ZM7.00031 4.49799V7.49917H9.00361V4.50177L7.00031 4.49799ZM1.50066 9.00354C1.43482 9.00354 1.36963 9.01657 1.30885 9.04188C1.24807 9.06719 1.1929 9.10428 1.14652 9.15101C1.10014 9.19774 1.06346 9.25319 1.03861 9.31416C1.01376 9.37514 1.00122 9.44042 1.00172 9.50626V14.5032C1.00172 14.7829 1.22473 15.0059 1.50066 15.0059H6.00243V14.5032C6.00218 14.3282 6.0478 14.1562 6.13473 14.0043H2.00338V10.0014H6.00621V9.50248C6.00645 9.32584 6.05339 9.15241 6.14229 8.99976L1.50066 9.00354ZM9.85785 9.00354C9.94674 9.15619 9.99369 9.32962 9.99393 9.50626V10.0052H14.0005V14.0043H9.86541C9.95234 14.1562 9.99795 14.3282 9.99771 14.5032V15.0059H14.5033C14.5694 15.0064 14.635 14.9937 14.6962 14.9687C14.7575 14.9436 14.8131 14.9066 14.8599 14.8598C14.9066 14.813 14.9436 14.7574 14.9687 14.6962C14.9938 14.6349 15.0065 14.5693 15.006 14.5032V9.50248C15.0065 9.43632 14.9938 9.37072 14.9687 9.30951C14.9436 9.24829 14.9066 9.19267 14.8599 9.14589C14.8131 9.0991 14.7575 9.06209 14.6962 9.03701C14.635 9.01192 14.5694 8.99926 14.5033 8.99976L9.85785 9.00354ZM7.00031 9.50626V12.5037H9.00361V9.50626H7.00031ZM7.00031 14.5032V16.0038H9.00361V14.5032H7.00031Z" fill="url(#paint0_linear_10_18474)"/>
<path opacity="0.1" d="M3.99917 2.00329V8.00187H12.0011V1.99951L3.99917 2.00329ZM2.00342 8.99597V15.0059H14.0044V8.99597H2.00342Z" fill="#232323"/>
</g>
<defs>
<linearGradient id="paint0_linear_10_18474" x1="1.00171" y1="8.00189" x2="15.006" y2="8.00189" gradientUnits="userSpaceOnUse">
<stop stop-color="#FDFC47"/>
<stop offset="1" stop-color="#24FE41"/>
</linearGradient>
<clipPath id="clip0_10_18474">
<rect width="16" height="16" fill="white"/>
</clipPath>
</defs>
</svg>
