<svg width="16" height="16" viewBox="0 0 16 16" fill="none" xmlns="http://www.w3.org/2000/svg">
<path d="M6 0L5 0.25V1H6V0ZM6 1V2H5V1H4.994C3.736 1.015 2.815 0.97 2.062 1.385C1.686 1.592 1.387 1.945 1.222 2.383C1.058 2.821 1 3.343 1 4V12C1 12.658 1.058 13.179 1.223 13.617C1.387 14.056 1.686 14.406 2.063 14.613C2.815 15.029 3.736 14.985 4.994 15H10V14H5C3.74 13.985 2.913 13.94 2.547 13.738C2.363 13.638 2.257 13.526 2.16 13.266C2.063 13.006 2 12.592 2 12V7C2 6.408 2.063 5.994 2.16 5.734C2.258 5.474 2.363 5.363 2.547 5.262C2.914 5.059 3.742 5.015 5.006 5H11C12.26 5.015 13.087 5.06 13.453 5.262C13.637 5.362 13.743 5.474 13.84 5.734C13.937 5.994 14 7 14 7V10H15V4C15 3.342 14.94 2.821 14.775 2.383C14.6238 1.96122 14.327 1.6073 13.938 1.385C13.185 0.969 12.264 1.015 11.006 1H11V2H10V1H6ZM10 1H11V0L10 0.25V1ZM13 11V13H11V14H13V16H14V14H16V13H14V11H13Z" fill="url(#paint0_linear_10_18518)"/>
<defs>
<linearGradient id="paint0_linear_10_18518" x1="1" y1="8" x2="16" y2="8" gradientUnits="userSpaceOnUse">
<stop stop-color="#FDFC47"/>
<stop offset="1" stop-color="#24FE41"/>
</linearGradient>
</defs>
</svg>
