<svg width="16" height="16" viewBox="0 0 16 16" fill="none" xmlns="http://www.w3.org/2000/svg">
<g clip-path="url(#clip0_10_18543)">
<path d="M3 1C1.892 1 1 1.892 1 3V8H2V5C2 4.446 2.446 4 3 4H13C13.554 4 14 4.446 14 5V13C14 13.554 13.554 14 13 14H3C2.446 14 2 13.554 2 13V11H1V13C1 14.108 1.892 15 3 15H13C14.108 15 15 14.108 15 13V3C15 1.892 14.108 1 13 1H3Z" fill="url(#paint0_linear_10_18543)"/>
<path d="M6.46483 5.96484L5.7578 6.67187L8.0859 8.99997H0V9.99997H8.0859L5.7578 12.3281L6.46483 13.0351L10 9.4999L9.293 8.79287L6.46483 5.96484Z" fill="url(#paint1_linear_10_18543)"/>
</g>
<defs>
<linearGradient id="paint0_linear_10_18543" x1="1" y1="8" x2="15" y2="8" gradientUnits="userSpaceOnUse">
<stop stop-color="#FDFC47"/>
<stop offset="1" stop-color="#24FE41"/>
</linearGradient>
<linearGradient id="paint1_linear_10_18543" x1="0" y1="9.49997" x2="10" y2="9.49997" gradientUnits="userSpaceOnUse">
<stop stop-color="#FDFC47"/>
<stop offset="1" stop-color="#24FE41"/>
</linearGradient>
<clipPath id="clip0_10_18543">
<rect width="16" height="16" fill="white"/>
</clipPath>
</defs>
</svg>
