<svg width="16" height="16" viewBox="0 0 16 16" fill="none" xmlns="http://www.w3.org/2000/svg">
<path d="M11.0301 3.03023C10.8101 3.08023 10.6101 3.20023 10.4701 3.37023L4.19009 10.5602L1.94009 8.31023C1.56009 7.93023 0.880088 7.93023 0.500088 8.31023C0.120088 8.69023 0.120088 9.37023 0.500088 9.75023L4.28009 13.5002L11.9701 4.69023C12.5301 4.07023 11.8501 2.86023 11.0301 3.03023ZM14.7501 3.03023C14.5201 3.08023 14.3001 3.21023 14.1501 3.40023L7.45009 11.0602L7.10009 10.7202L5.68009 12.3402L6.72009 13.4002L7.55009 14.2002L8.28009 13.3302L15.7501 4.80023C16.3601 4.14023 15.6301 2.85023 14.7501 3.03023Z" fill="url(#paint0_linear_10_18580)"/>
<defs>
<linearGradient id="paint0_linear_10_18580" x1="0.215088" y1="8.60671" x2="15.9751" y2="8.60671" gradientUnits="userSpaceOnUse">
<stop stop-color="#FDFC47"/>
<stop offset="1" stop-color="#24FE41"/>
</linearGradient>
</defs>
</svg>
