<svg width="16" height="17" viewBox="0 0 16 17" fill="none" xmlns="http://www.w3.org/2000/svg">
<g clip-path="url(#clip0_10_18605)">
<path d="M5 0.0078125C3.892 0.0078125 3 0.899812 3 2.00781V4.00781H2C0.892 4.00781 0 4.89981 0 6.00781V11.0078C0 12.1158 0.892 13.0078 2 13.0078H3V14.0078C3 15.1158 3.892 16.0078 5 16.0078H11C11.7818 16.0078 12.4501 15.5589 12.7793 14.9082L12.5156 14.6445C12.1342 14.8023 11.7352 14.8991 11.334 14.9395C11.2288 14.9769 11.1185 15.0078 11 15.0078H5.00005C4.44605 15.0078 4.00005 14.5618 4.00005 14.0078V11.0078C4.00005 10.4538 4.44605 10.0078 5.00005 10.0078H7.14655C7.23538 9.66006 7.37174 9.32527 7.55475 9.00782H5.00005C3.89205 9.00782 3.00005 9.89982 3.00005 11.0078V12.0078H2.00005C1.44605 12.0078 1.00005 11.5618 1.00005 11.0078V6.00782C1.00005 5.45382 1.44605 5.00782 2.00005 5.00782H14C14.554 5.00782 15 5.45382 15 6.00782V11.0078C15 11.1387 14.9711 11.2606 14.9258 11.375C14.8829 11.764 14.786 12.1497 14.6329 12.5195L14.8985 12.7851C15.5501 12.4562 16.0001 11.7902 16.0001 11.0078V6.00783C16.0001 4.89983 15.1081 4.00783 14.0001 4.00783H13.0001V2.00783C13.0001 0.899832 12.1081 0.0078315 11.0001 0.0078315L5 0.0078125ZM5 1.00781H11C11.554 1.00781 12 1.45381 12 2.00781V4.00781H4V2.00781C4 1.45381 4.446 1.00781 5 1.00781ZM13.5 6.00781C13.2239 6.00781 13 6.23167 13 6.50781C13 6.78395 13.2239 7.00781 13.5 7.00781C13.7761 7.00781 14 6.78395 14 6.50781C14 6.23167 13.7761 6.00781 13.5 6.00781ZM5 11.0078V12.0078H7.1465C7.0624 11.6792 7.00588 11.3453 7.00588 11.0078H5ZM5 13.0078V14.0078H8.373C8.30627 13.9497 8.23534 13.8995 8.17183 13.8359C7.92058 13.5849 7.7247 13.3025 7.55464 13.0078H5Z" fill="url(#paint0_linear_10_18605)"/>
<path d="M10.957 8.00766C10.1766 8.01853 9.43118 8.3331 8.87892 8.88461C8.60013 9.16321 8.37896 9.49402 8.22807 9.85813C8.07718 10.2222 7.99951 10.6125 7.99951 11.0067C7.99951 11.4008 8.07718 11.7911 8.22807 12.1552C8.37896 12.5193 8.60013 12.8501 8.87892 13.1287C9.38019 13.6301 10.0428 13.9377 10.7493 13.997C11.4558 14.0564 12.1604 13.8636 12.7383 13.4529L14.5352 15.2498C14.7311 15.4457 15.0464 15.4457 15.2423 15.2498C15.4381 15.054 15.4381 14.7387 15.2423 14.5428L13.4415 12.742C13.8521 12.1647 14.0452 11.4607 13.9866 10.7547C13.928 10.0487 13.6214 9.38623 13.1211 8.8846C12.8374 8.60119 12.4996 8.37756 12.1279 8.22693C11.7562 8.07631 11.358 8.00175 10.957 8.00766ZM11.0293 9.00766C11.5495 9.01541 12.0463 9.22559 12.4141 9.5936C12.7891 9.96866 12.9997 10.4773 12.9997 11.0076C12.9997 11.538 12.7891 12.0466 12.4141 12.4217C12.039 12.7967 11.5304 13.0073 11 13.0073C10.4697 13.0073 9.96105 12.7967 9.58599 12.4217C9.21101 12.0466 9.00036 11.538 9.00036 11.0076C9.00036 10.4773 9.21101 9.96866 9.58599 9.5936C9.77515 9.40434 10.0004 9.25497 10.2483 9.15432C10.4962 9.05368 10.7617 9.0038 11.0293 9.00766Z" fill="url(#paint1_linear_10_18605)"/>
</g>
<defs>
<linearGradient id="paint0_linear_10_18605" x1="0" y1="8.00781" x2="16.0001" y2="8.00781" gradientUnits="userSpaceOnUse">
<stop stop-color="#FDFC47"/>
<stop offset="1" stop-color="#24FE41"/>
</linearGradient>
<linearGradient id="paint1_linear_10_18605" x1="7.99951" y1="11.702" x2="15.3892" y2="11.702" gradientUnits="userSpaceOnUse">
<stop stop-color="#FDFC47"/>
<stop offset="1" stop-color="#24FE41"/>
</linearGradient>
<clipPath id="clip0_10_18605">
<rect width="16" height="16.007" fill="white"/>
</clipPath>
</defs>
</svg>
