<svg width="16" height="16" viewBox="0 0 16 16" fill="none" xmlns="http://www.w3.org/2000/svg">
<path d="M1 5V13C1 14.108 1.892 15 3 15H12C13.108 15 14 14.108 14 13V5H13V13C13 13.554 12.554 14 12 14H3C2.446 14 2 13.554 2 13V5H1Z" fill="#232323"/>
<path d="M8.20716 11.2931L5.20068 8.28662L4.49358 8.99373L7.50005 12.0002L8.20716 11.2931Z" fill="#232323"/>
<path d="M6.79331 11.2931L9.7998 8.28662L10.5069 8.99373L7.50042 12.0002L6.79331 11.2931Z" fill="#232323"/>
<path d="M8 6H7V11H8V6Z" fill="#232323"/>
<path d="M1 1C0.446 1 0 1.446 0 2V4C0 4.554 0.446 5 1 5H14C14.554 5 15 4.554 15 4V2C15 1.446 14.554 1 14 1H1ZM1 2H14V4H1V2Z" fill="#232323"/>
</svg>
