<svg width="16" height="16" viewBox="0 0 16 16" fill="none" xmlns="http://www.w3.org/2000/svg">
<path d="M3 14H13V13H3V14ZM3 2H13V1H3V2Z" fill="url(#paint0_linear_10_18595)"/>
<path d="M3 1.50002C3 4.05002 3.378 5.42202 4.037 6.30002C4.526 6.95202 5.108 7.19002 5.66 7.50002C5.108 7.81002 4.526 8.04902 4.037 8.70002C3.378 9.58002 3 10.95 3 13.5H4C4 11.05 4.371 9.92202 4.838 9.30002C5.304 8.67802 5.963 8.45802 6.778 7.91502C6.84648 7.86936 6.90263 7.8075 6.94146 7.73493C6.98029 7.66236 7.00061 7.58133 7.00061 7.49902C7.00061 7.41672 6.98029 7.33568 6.94146 7.26311C6.90263 7.19055 6.84648 7.12869 6.778 7.08302C5.963 6.54102 5.304 6.32302 4.838 5.70102C4.37 5.07902 4 3.94902 4 1.49902H3V1.50002ZM12 1.50002C12 3.95002 11.628 5.07902 11.162 5.70002C10.695 6.32302 10.036 6.54002 9.222 7.08302C9.15352 7.12869 9.09737 7.19055 9.05854 7.26311C9.01971 7.33568 8.99939 7.41672 8.99939 7.49902C8.99939 7.58133 9.01971 7.66236 9.05854 7.73493C9.09737 7.8075 9.15352 7.86936 9.222 7.91502C10.036 8.45802 10.695 8.67802 11.162 9.30002C11.628 9.92202 12 11.05 12 13.5H13C13 10.95 12.621 9.57902 11.963 8.70002C11.473 8.04902 10.892 7.81002 10.34 7.50002C10.892 7.19002 11.474 6.95202 11.963 6.30002C12.62 5.42202 13 4.05002 13 1.50002H12Z" fill="url(#paint1_linear_10_18595)"/>
<path d="M5.625 5C5.637 5.028 5.644 5.077 5.656 5.094C5.926 5.454 6.437 5.645 7.344 6.25V6.281H7.374C7.79 6.579 7.979 7.008 8 7.437C8.02 7.008 8.21 6.579 8.625 6.281H8.656V6.25C9.563 5.646 10.073 5.455 10.344 5.094C10.356 5.077 10.363 5.028 10.374 5H5.625ZM5.25 12H10.75C10.75 11 8.25 10.75 8 10.306C7.75 10.75 5.25 11 5.25 12Z" fill="url(#paint2_linear_10_18595)"/>
<defs>
<linearGradient id="paint0_linear_10_18595" x1="3" y1="7.5" x2="13" y2="7.5" gradientUnits="userSpaceOnUse">
<stop stop-color="#FDFC47"/>
<stop offset="1" stop-color="#24FE41"/>
</linearGradient>
<linearGradient id="paint1_linear_10_18595" x1="3" y1="7.49952" x2="13" y2="7.49952" gradientUnits="userSpaceOnUse">
<stop stop-color="#FDFC47"/>
<stop offset="1" stop-color="#24FE41"/>
</linearGradient>
<linearGradient id="paint2_linear_10_18595" x1="5.25" y1="8.5" x2="10.75" y2="8.5" gradientUnits="userSpaceOnUse">
<stop stop-color="#FDFC47"/>
<stop offset="1" stop-color="#24FE41"/>
</linearGradient>
</defs>
</svg>
