<svg width="16" height="16" viewBox="0 0 16 16" fill="none" xmlns="http://www.w3.org/2000/svg">
<path d="M1 1V2H2V1H1ZM3 1V2H4V1H3ZM5 1V2H6V1H5ZM7 1V2H8V1H7ZM9 1V2H10V1H9ZM11 1V2H12V1H11ZM13 1V2H14V1H13ZM1 3V4H2V3H1ZM3 3V7H12V3H3ZM13 3V4H14V3H13ZM1 5V6H2V5H1ZM13 5V6H14V5H13ZM1 7V8H2V7H1ZM13 7V8H14V7H13ZM3 8V12H7V8H3ZM8 8V12H12V8H8ZM1 9V10H2V9H1ZM13 9V10H14V9H13ZM1 11V12H2V11H1ZM13 11V12H14V11H13ZM1 13V14H2V13H1ZM3 13V14H4V13H3ZM5 13V14H6V13H5ZM7 13V14H8V13H7ZM9 13V14H10V13H9ZM11 13V14H12V13H11ZM13 13V14H14V13H13Z" fill="url(#paint0_linear_10_18658)"/>
<defs>
<linearGradient id="paint0_linear_10_18658" x1="1" y1="7.5" x2="14" y2="7.5" gradientUnits="userSpaceOnUse">
<stop stop-color="#FDFC47"/>
<stop offset="1" stop-color="#24FE41"/>
</linearGradient>
</defs>
</svg>
