<svg width="16" height="16" viewBox="0 0 16 16" fill="none" xmlns="http://www.w3.org/2000/svg">
<g clip-path="url(#clip0_10_18648)">
<path d="M10.5355 3.46424C10.0712 2.99995 9.52004 2.63165 8.91342 2.38038C8.30679 2.12911 7.65661 1.99978 7 1.99978C5.67392 1.99978 4.40215 2.52656 3.46447 3.46424C2.52678 4.40193 2 5.6737 2 6.99978C2 7.65639 2.12933 8.30657 2.3806 8.9132C2.63188 9.51982 3.00017 10.071 3.46447 10.5353C4.40215 11.473 5.67392 11.9998 7 11.9998C8.32608 11.9998 9.59785 11.473 10.5355 10.5353C11.4732 9.59763 12 8.32586 12 6.99978C12 5.6737 11.4732 4.40193 10.5355 3.46424ZM9.82843 4.17135C10.5786 4.9215 11 5.93891 11 6.99978C11 8.06064 10.5786 9.07806 9.82843 9.82821C9.07828 10.5784 8.06087 10.9998 7 10.9998C5.93913 10.9998 4.92172 10.5784 4.17157 9.82821C3.42143 9.07806 3 8.06064 3 6.99978C3 5.93891 3.42143 4.9215 4.17157 4.17135C4.92172 3.42121 5.93913 2.99978 7 2.99978C8.06087 2.99978 9.07828 3.42121 9.82843 4.17135Z" fill="url(#paint0_linear_10_18648)"/>
<path d="M15.1316 14.4244L10.1819 9.47461L9.47478 10.1817L14.4245 15.1315L15.1316 14.4244Z" fill="url(#paint1_linear_10_18648)"/>
</g>
<defs>
<linearGradient id="paint0_linear_10_18648" x1="3.46447" y1="3.46424" x2="10.5355" y2="10.5353" gradientUnits="userSpaceOnUse">
<stop stop-color="#FDFC47"/>
<stop offset="1" stop-color="#24FE41"/>
</linearGradient>
<linearGradient id="paint1_linear_10_18648" x1="9.82833" y1="9.82816" x2="14.7781" y2="14.7779" gradientUnits="userSpaceOnUse">
<stop stop-color="#FDFC47"/>
<stop offset="1" stop-color="#24FE41"/>
</linearGradient>
<clipPath id="clip0_10_18648">
<rect width="16" height="16" fill="white"/>
</clipPath>
</defs>
</svg>
