<svg width="16" height="16" viewBox="0 0 16 16" fill="none" xmlns="http://www.w3.org/2000/svg">
<path d="M1 2V13H6C7 13 8 14 8 14C8 14 9 13.0039 10 13H15V2H10C9 2 8 3 8 3C8 3 7 2 6 2H1ZM2 3H6C7 3 8 4 8 4C8 4 9 3 10 3H14V12H10C9 12 8 13 8 13C8 13 7 12 6 12H2V3Z" fill="url(#paint0_linear_10_18673)"/>
<path opacity="0.3" d="M3 5V6H7V5H3ZM9 5V6H13V5H9ZM3 7V8H7V7H3ZM9 7V8H13V7H9ZM3 9V10H7V9H3ZM9 9V10H13V9H9Z" fill="url(#paint1_linear_10_18673)"/>
<defs>
<linearGradient id="paint0_linear_10_18673" x1="1" y1="8" x2="15" y2="8" gradientUnits="userSpaceOnUse">
<stop stop-color="#FDFC47"/>
<stop offset="1" stop-color="#24FE41"/>
</linearGradient>
<linearGradient id="paint1_linear_10_18673" x1="3" y1="7.5" x2="13" y2="7.5" gradientUnits="userSpaceOnUse">
<stop stop-color="#FDFC47"/>
<stop offset="1" stop-color="#24FE41"/>
</linearGradient>
</defs>
</svg>
