<svg width="16" height="16" viewBox="0 0 16 16" fill="none" xmlns="http://www.w3.org/2000/svg">
<path d="M13.238 1L12.885 1.36L3.916 10.455L3.886 10.5C3.825 10.599 3.616 10.95 3.303 11.588C2.989 12.226 2.603 13.098 2.291 14.08L2 15L2.92 14.709C3.77454 14.4337 4.60749 14.0955 5.412 13.697C6.05 13.383 6.399 13.177 6.5 13.113L6.545 13.084L16 3.762L13.238 1ZM4.891 10.89L6.109 12.11L5.932 12.285C5.939 12.28 5.553 12.512 4.971 12.799C4.757 12.904 4.435 13.021 4.137 13.137L3.863 12.863C3.979 12.565 4.096 12.243 4.201 12.029C4.488 11.447 4.719 11.063 4.715 11.069L4.891 10.89Z" fill="url(#paint0_linear_10_18676)"/>
<path d="M12 1H5.49998C3.99998 1 3.00698 1.64 2.52598 2.558C2.04398 3.476 2.00098 4.576 2.00098 5.628V6.001H0.000976562C0.347977 6.761 0.736977 7.538 1.16698 8.326C1.59698 9.106 2.04198 9.859 2.50098 10.584C2.94998 9.859 3.38998 9.106 3.82098 8.326C4.23736 7.56274 4.63054 6.78706 4.99998 6H2.99998V5.63C2.99998 4.617 3.07898 3.655 3.40998 3.024C3.73998 2.393 4.24998 2 5.49998 2H12V1Z" fill="url(#paint1_linear_10_18676)"/>
<defs>
<linearGradient id="paint0_linear_10_18676" x1="2" y1="8" x2="16" y2="8" gradientUnits="userSpaceOnUse">
<stop stop-color="#FDFC47"/>
<stop offset="1" stop-color="#24FE41"/>
</linearGradient>
<linearGradient id="paint1_linear_10_18676" x1="0.000976562" y1="5.792" x2="12" y2="5.792" gradientUnits="userSpaceOnUse">
<stop stop-color="#FDFC47"/>
<stop offset="1" stop-color="#24FE41"/>
</linearGradient>
</defs>
</svg>
