<svg width="16" height="16" viewBox="0 0 16 16" fill="none" xmlns="http://www.w3.org/2000/svg">
<path opacity="0.5" fill-rule="evenodd" clip-rule="evenodd" d="M1 2C0.446 2 0 2.446 0 3V13C0 13.554 0.446 14 1 14H14C14.554 14 15 13.554 15 13V3C15 2.446 14.554 2 14 2H1ZM1 3H14V13H1V3Z" fill="url(#paint0_linear_10_18702)"/>
<path opacity="0.5" fill-rule="evenodd" clip-rule="evenodd" d="M2 4H4V6H2V4ZM5 4H7V6H5V4ZM8 4H10V6H8V4ZM11 4H13V6H11V4ZM2 7H4V9H2V7ZM5 7H7V9H5V7ZM8 7H10V9H8V7ZM11 7H13V9H11V7ZM4 10H11V12H4V10Z" fill="url(#paint1_linear_10_18702)"/>
<defs>
<linearGradient id="paint0_linear_10_18702" x1="0" y1="8" x2="15" y2="8" gradientUnits="userSpaceOnUse">
<stop stop-color="#FDFC47"/>
<stop offset="1" stop-color="#24FE41"/>
</linearGradient>
<linearGradient id="paint1_linear_10_18702" x1="2" y1="8" x2="13" y2="8" gradientUnits="userSpaceOnUse">
<stop stop-color="#FDFC47"/>
<stop offset="1" stop-color="#24FE41"/>
</linearGradient>
</defs>
</svg>
