<svg width="16" height="16" viewBox="0 0 16 16" fill="none" xmlns="http://www.w3.org/2000/svg">
<path d="M4 3C3.20435 3 2.44129 3.31607 1.87868 3.87868C1.31607 4.44129 1 5.20435 1 6C1 6.79565 1.31607 7.55871 1.87868 8.12132C2.44129 8.68393 3.20435 9 4 9C4.79565 9 5.55871 8.68393 6.12132 8.12132C6.68393 7.55871 7 6.79565 7 6C7 5.20435 6.68393 4.44129 6.12132 3.87868C5.55871 3.31607 4.79565 3 4 3ZM4 4C4.53043 4 5.03914 4.21071 5.41421 4.58579C5.78929 4.96086 6 5.46957 6 6C6 6.53043 5.78929 7.03914 5.41421 7.41421C5.03914 7.78929 4.53043 8 4 8C3.46957 8 2.96086 7.78929 2.58579 7.41421C2.21071 7.03914 2 6.53043 2 6C2 5.46957 2.21071 4.96086 2.58579 4.58579C2.96086 4.21071 3.46957 4 4 4Z" fill="url(#paint0_linear_10_18693)"/>
<path d="M12 3C11.2044 3 10.4413 3.31607 9.87868 3.87868C9.31607 4.44129 9 5.20435 9 6C9 6.79565 9.31607 7.55871 9.87868 8.12132C10.4413 8.68393 11.2044 9 12 9C12.7328 8.99936 13.4401 8.73049 13.9883 8.24414C13.9262 9.26012 13.4791 10.2142 12.7381 10.912C11.9971 11.6099 11.0179 11.999 10 12C9.6624 11.9981 9.32639 11.9535 9 11.8672V12.8945C9.32894 12.9632 9.66397 12.9985 10 13C11.3261 13 12.5979 12.4732 13.5355 11.5355C14.4732 10.5979 15 9.32608 15 8V6C15 5.20435 14.6839 4.44129 14.1213 3.87868C13.5587 3.31607 12.7956 3 12 3ZM12 4C12.5304 4 13.0391 4.21071 13.4142 4.58579C13.7893 4.96086 14 5.46957 14 6C14 6.53043 13.7893 7.03914 13.4142 7.41421C13.0391 7.78929 12.5304 8 12 8C11.4696 8 10.9609 7.78929 10.5858 7.41421C10.2107 7.03914 10 6.53043 10 6C10 5.46957 10.2107 4.96086 10.5858 4.58579C10.9609 4.21071 11.4696 4 12 4Z" fill="url(#paint1_linear_10_18693)"/>
<defs>
<linearGradient id="paint0_linear_10_18693" x1="1" y1="6" x2="7" y2="6" gradientUnits="userSpaceOnUse">
<stop stop-color="#FDFC47"/>
<stop offset="1" stop-color="#24FE41"/>
</linearGradient>
<linearGradient id="paint1_linear_10_18693" x1="9" y1="8" x2="15" y2="8" gradientUnits="userSpaceOnUse">
<stop stop-color="#FDFC47"/>
<stop offset="1" stop-color="#24FE41"/>
</linearGradient>
</defs>
</svg>
