<svg width="16" height="16" viewBox="0 0 16 16" fill="none" xmlns="http://www.w3.org/2000/svg">
<path d="M2 8H8V9H2V8Z" fill="url(#paint0_linear_10_18771)"/>
<path d="M2 13H8V14H2V13Z" fill="url(#paint1_linear_10_18771)"/>
<path d="M2 3H8V4H2V3Z" fill="url(#paint2_linear_10_18771)"/>
<path d="M10.6807 4.94778V4.36004H11.8925V1.65745L10.7189 2.25086V1.62931L11.9446 0.985352H12.8683V4.36004H13.9899V4.94778H10.6807Z" fill="url(#paint3_linear_10_18771)"/>
<path d="M10.6199 10.0488V9.49311C10.7455 9.26323 10.9237 9.039 11.1545 8.82052C11.3875 8.60204 11.6799 8.37406 12.0317 8.13658C12.3698 7.90861 12.6063 7.72053 12.7411 7.57234C12.8782 7.42415 12.9467 7.27881 12.9467 7.13633C12.9467 6.78676 12.7354 6.61202 12.3127 6.61202C12.1071 6.61202 11.9495 6.65852 11.8398 6.75161C11.7324 6.8428 11.6628 6.98056 11.6308 7.16485L10.661 7.11923C10.7158 6.74687 10.8826 6.46286 11.1613 6.26718C11.4423 6.0715 11.8238 5.97363 12.3059 5.97363C12.8267 5.97363 13.2265 6.0724 13.5053 6.26998C13.784 6.46756 13.9233 6.74496 13.9233 7.10213C13.9233 7.29021 13.8788 7.46023 13.7897 7.61221C13.7006 7.7642 13.5864 7.90481 13.447 8.03399C13.3076 8.16128 13.1523 8.28098 12.981 8.39306C12.8119 8.50515 12.6474 8.61435 12.4875 8.72074C12.3276 8.82713 12.1814 8.93452 12.0489 9.0428C11.9186 9.15109 11.8215 9.26696 11.7576 9.39045H13.9987V10.0487L10.6199 10.0488Z" fill="url(#paint4_linear_10_18771)"/>
<path d="M13.9983 13.8772C13.9983 14.2685 13.8556 14.571 13.5701 14.7844C13.2846 14.9978 12.8783 15.1045 12.3512 15.1045C11.8527 15.1045 11.4563 15.0017 11.162 14.7962C10.8677 14.5887 10.6953 14.2903 10.6448 13.901L11.5869 13.8269C11.6462 14.2281 11.8999 14.4287 12.3479 14.4287C12.5697 14.4287 12.7421 14.3792 12.8651 14.2804C12.9881 14.1816 13.0496 14.0304 13.0496 13.8269C13.0496 13.6411 12.9749 13.4988 12.8256 13.4C12.6762 13.3012 12.4544 13.2518 12.1601 13.2518H11.8373V12.5789H12.1404C12.4061 12.5789 12.606 12.5305 12.7399 12.4337C12.8739 12.3349 12.9409 12.1945 12.9409 12.0127C12.9409 11.8408 12.8871 11.7064 12.7795 11.6096C12.674 11.5108 12.5192 11.4613 12.315 11.4613C12.1239 11.4613 11.9691 11.5088 11.8505 11.6036C11.7341 11.6985 11.6671 11.8329 11.6495 12.0068L10.7238 11.9475C10.7721 11.5879 10.938 11.3062 11.2213 11.1026C11.5046 10.8991 11.8746 10.7974 12.3314 10.7974C12.8168 10.7974 13.1956 10.8962 13.468 11.0938C13.7425 11.2895 13.8797 11.5612 13.8797 11.909C13.8797 12.1698 13.7941 12.3843 13.6228 12.5523C13.4537 12.7202 13.2088 12.8319 12.8882 12.8872V12.899C13.2439 12.9366 13.5174 13.0424 13.7084 13.2163C13.9017 13.3882 13.9983 13.6085 13.9983 13.8772Z" fill="url(#paint5_linear_10_18771)"/>
<defs>
<linearGradient id="paint0_linear_10_18771" x1="8" y1="8.5" x2="2" y2="8.5" gradientUnits="userSpaceOnUse">
<stop stop-color="#FDFC47"/>
<stop offset="1" stop-color="#24FE41"/>
</linearGradient>
<linearGradient id="paint1_linear_10_18771" x1="8" y1="13.5" x2="2" y2="13.5" gradientUnits="userSpaceOnUse">
<stop stop-color="#FDFC47"/>
<stop offset="1" stop-color="#24FE41"/>
</linearGradient>
<linearGradient id="paint2_linear_10_18771" x1="8" y1="3.5" x2="2" y2="3.5" gradientUnits="userSpaceOnUse">
<stop stop-color="#FDFC47"/>
<stop offset="1" stop-color="#24FE41"/>
</linearGradient>
<linearGradient id="paint3_linear_10_18771" x1="10.6807" y1="2.96656" x2="13.9899" y2="2.96656" gradientUnits="userSpaceOnUse">
<stop stop-color="#FDFC47"/>
<stop offset="1" stop-color="#24FE41"/>
</linearGradient>
<linearGradient id="paint4_linear_10_18771" x1="10.6199" y1="8.01122" x2="13.9987" y2="8.01122" gradientUnits="userSpaceOnUse">
<stop stop-color="#FDFC47"/>
<stop offset="1" stop-color="#24FE41"/>
</linearGradient>
<linearGradient id="paint5_linear_10_18771" x1="10.6448" y1="12.951" x2="13.9983" y2="12.951" gradientUnits="userSpaceOnUse">
<stop stop-color="#FDFC47"/>
<stop offset="1" stop-color="#24FE41"/>
</linearGradient>
</defs>
</svg>
