<svg width="16" height="16" viewBox="0 0 16 16" fill="none" xmlns="http://www.w3.org/2000/svg">
<path d="M12.501 3C12.8988 3 13.2803 3.15803 13.5616 3.43933C13.8429 3.72064 14.001 4.10218 14.001 4.5C14.001 4.89782 13.8429 5.27936 13.5616 5.56067C13.2803 5.84197 12.8988 6 12.501 6C12.1032 6 11.7216 5.84197 11.4403 5.56067C11.159 5.27936 11.001 4.89782 11.001 4.5C11.001 4.10218 11.159 3.72064 11.4403 3.43933C11.7216 3.15803 12.1032 3 12.501 3ZM12.501 4C12.3684 4 12.2412 4.05266 12.1474 4.14642C12.0537 4.24019 12.001 4.36739 12.001 4.5C12.001 4.63261 12.0537 4.75981 12.1474 4.85358C12.2412 4.94734 12.3684 5 12.501 5C12.6336 5 12.7608 4.94734 12.8545 4.85358C12.9483 4.75981 13.001 4.63261 13.001 4.5C13.001 4.36739 12.9483 4.24019 12.8545 4.14642C12.7608 4.05266 12.6336 4 12.501 4Z" fill="url(#paint0_linear_10_18862)"/>
<path d="M2.00098 4H10.001V5H2.00098V4Z" fill="url(#paint1_linear_10_18862)"/>
<path d="M12.501 7C12.8988 7 13.2803 7.15803 13.5616 7.43933C13.8429 7.72064 14.001 8.10218 14.001 8.5C14.001 8.89782 13.8429 9.27936 13.5616 9.56067C13.2803 9.84197 12.8988 10 12.501 10C12.1032 10 11.7216 9.84197 11.4403 9.56067C11.159 9.27936 11.001 8.89782 11.001 8.5C11.001 8.10218 11.159 7.72064 11.4403 7.43933C11.7216 7.15803 12.1032 7 12.501 7ZM12.501 8C12.3684 8 12.2412 8.05266 12.1474 8.14642C12.0537 8.24019 12.001 8.36739 12.001 8.5C12.001 8.63261 12.0537 8.75981 12.1474 8.85358C12.2412 8.94734 12.3684 9 12.501 9C12.6336 9 12.7608 8.94734 12.8545 8.85358C12.9483 8.75981 13.001 8.63261 13.001 8.5C13.001 8.36739 12.9483 8.24019 12.8545 8.14642C12.7608 8.05266 12.6336 8 12.501 8Z" fill="url(#paint2_linear_10_18862)"/>
<path d="M2.00098 8H10.001V9H2.00098V8Z" fill="url(#paint3_linear_10_18862)"/>
<path d="M12.501 11C12.8988 11 13.2803 11.158 13.5616 11.4393C13.8429 11.7206 14.001 12.1022 14.001 12.5C14.001 12.8978 13.8429 13.2794 13.5616 13.5607C13.2803 13.842 12.8988 14 12.501 14C12.1032 14 11.7216 13.842 11.4403 13.5607C11.159 13.2794 11.001 12.8978 11.001 12.5C11.001 12.1022 11.159 11.7206 11.4403 11.4393C11.7216 11.158 12.1032 11 12.501 11ZM12.501 12C12.3684 12 12.2412 12.0527 12.1474 12.1464C12.0537 12.2402 12.001 12.3674 12.001 12.5C12.001 12.6326 12.0537 12.7598 12.1474 12.8536C12.2412 12.9473 12.3684 13 12.501 13C12.6336 13 12.7608 12.9473 12.8545 12.8536C12.9483 12.7598 13.001 12.6326 13.001 12.5C13.001 12.3674 12.9483 12.2402 12.8545 12.1464C12.7608 12.0527 12.6336 12 12.501 12Z" fill="url(#paint4_linear_10_18862)"/>
<path d="M2.00098 12H10.001V13H2.00098V12Z" fill="url(#paint5_linear_10_18862)"/>
<defs>
<linearGradient id="paint0_linear_10_18862" x1="14.001" y1="4.5" x2="11.001" y2="4.5" gradientUnits="userSpaceOnUse">
<stop stop-color="#FDFC47"/>
<stop offset="1" stop-color="#24FE41"/>
</linearGradient>
<linearGradient id="paint1_linear_10_18862" x1="10.001" y1="4.5" x2="2.00098" y2="4.5" gradientUnits="userSpaceOnUse">
<stop stop-color="#FDFC47"/>
<stop offset="1" stop-color="#24FE41"/>
</linearGradient>
<linearGradient id="paint2_linear_10_18862" x1="14.001" y1="8.5" x2="11.001" y2="8.5" gradientUnits="userSpaceOnUse">
<stop stop-color="#FDFC47"/>
<stop offset="1" stop-color="#24FE41"/>
</linearGradient>
<linearGradient id="paint3_linear_10_18862" x1="10.001" y1="8.5" x2="2.00098" y2="8.5" gradientUnits="userSpaceOnUse">
<stop stop-color="#FDFC47"/>
<stop offset="1" stop-color="#24FE41"/>
</linearGradient>
<linearGradient id="paint4_linear_10_18862" x1="14.001" y1="12.5" x2="11.001" y2="12.5" gradientUnits="userSpaceOnUse">
<stop stop-color="#FDFC47"/>
<stop offset="1" stop-color="#24FE41"/>
</linearGradient>
<linearGradient id="paint5_linear_10_18862" x1="10.001" y1="12.5" x2="2.00098" y2="12.5" gradientUnits="userSpaceOnUse">
<stop stop-color="#FDFC47"/>
<stop offset="1" stop-color="#24FE41"/>
</linearGradient>
</defs>
</svg>
