<svg width="16" height="16" viewBox="0 0 16 16" fill="none" xmlns="http://www.w3.org/2000/svg">
<path d="M2 14V15H14V14H2Z" fill="url(#paint0_linear_10_18851)"/>
<path d="M11.7651 5.2539C11.7651 4.534 11.7219 4.33243 11.4915 3.8429C10.9156 2.6335 9.69181 2 7.92081 2C5.61711 2 4.19171 3.1806 4.19171 5.0812C4.19171 6.3626 4.86841 7.1689 6.25061 7.5288L8.85661 8.2199C10.1956 8.56545 10.7859 9.09817 10.7859 9.9189C10.7859 10.4804 10.4836 11.0563 10.0372 11.3731C9.61968 11.6755 8.95742 11.8194 8.10792 11.8194C6.95612 11.8194 6.19302 11.5459 5.68912 10.9412C5.30038 10.4804 5.1276 9.97651 5.142 9.32857H3.875C3.8894 10.2932 4.07657 10.9268 4.49411 11.5027C5.214 12.4961 6.42341 13.0001 8.02161 13.0001C9.27421 13.0001 10.2965 12.7121 10.9732 12.1938C11.6787 11.6323 12.125 10.6964 12.125 9.78939C12.125 8.49359 11.3187 7.54329 9.89331 7.15459L7.25851 6.44909C5.99151 6.10354 5.53081 5.7004 5.53081 4.89409C5.53081 3.82869 6.46667 3.12319 7.87771 3.12319C9.54791 3.12319 10.4837 3.87188 10.4981 5.25409L11.7651 5.2539Z" fill="url(#paint1_linear_10_18851)"/>
<defs>
<linearGradient id="paint0_linear_10_18851" x1="2" y1="14.5" x2="14" y2="14.5" gradientUnits="userSpaceOnUse">
<stop stop-color="#FDFC47"/>
<stop offset="1" stop-color="#24FE41"/>
</linearGradient>
<linearGradient id="paint1_linear_10_18851" x1="3.875" y1="7.50003" x2="12.125" y2="7.50003" gradientUnits="userSpaceOnUse">
<stop stop-color="#FDFC47"/>
<stop offset="1" stop-color="#24FE41"/>
</linearGradient>
</defs>
</svg>
