<svg width="16" height="16" viewBox="0 0 16 16" fill="none" xmlns="http://www.w3.org/2000/svg">
<path d="M1 7V8H15V7H1Z" fill="url(#paint0_linear_10_18848)"/>
<path d="M4 3V4H10C11.108 4 12 4.892 12 6H13C13 4.338 11.662 3 10 3H4ZM3.18164 9C3.07069 9.31399 3 9.64708 3 10C3 11.662 4.338 13 6 13H12H13V12V9H12V12H6C4.892 12 4 11.108 4 10C4 9.63307 4.10429 9.295 4.27539 9H3.18164Z" fill="url(#paint1_linear_10_18848)"/>
<defs>
<linearGradient id="paint0_linear_10_18848" x1="1" y1="7.5" x2="15" y2="7.5" gradientUnits="userSpaceOnUse">
<stop stop-color="#FDFC47"/>
<stop offset="1" stop-color="#24FE41"/>
</linearGradient>
<linearGradient id="paint1_linear_10_18848" x1="3" y1="8" x2="13" y2="8" gradientUnits="userSpaceOnUse">
<stop stop-color="#FDFC47"/>
<stop offset="1" stop-color="#24FE41"/>
</linearGradient>
</defs>
</svg>
