<svg width="16" height="16" viewBox="0 0 16 16" fill="none" xmlns="http://www.w3.org/2000/svg">
<path d="M3.5 3C3.10218 3 2.72064 3.15803 2.43934 3.43933C2.15803 3.72064 2 4.10218 2 4.5C2 4.89782 2.15803 5.27936 2.43934 5.56067C2.72064 5.84197 3.10218 6 3.5 6C3.89782 6 4.27936 5.84197 4.56066 5.56067C4.84197 5.27936 5 4.89782 5 4.5C5 4.10218 4.84197 3.72064 4.56066 3.43933C4.27936 3.15803 3.89782 3 3.5 3ZM3.5 4C3.63261 4 3.75979 4.05266 3.85355 4.14642C3.94732 4.24019 4 4.36739 4 4.5C4 4.63261 3.94732 4.75981 3.85355 4.85358C3.75979 4.94734 3.63261 5 3.5 5C3.36739 5 3.24021 4.94734 3.14645 4.85358C3.05268 4.75981 3 4.63261 3 4.5C3 4.36739 3.05268 4.24019 3.14645 4.14642C3.24021 4.05266 3.36739 4 3.5 4Z" fill="url(#paint0_linear_10_18871)"/>
<path d="M14 4H6V5H14V4Z" fill="url(#paint1_linear_10_18871)"/>
<path d="M3.5 7C3.10218 7 2.72064 7.15803 2.43934 7.43933C2.15803 7.72064 2 8.10218 2 8.5C2 8.89782 2.15803 9.27936 2.43934 9.56067C2.72064 9.84197 3.10218 10 3.5 10C3.89782 10 4.27936 9.84197 4.56066 9.56067C4.84197 9.27936 5 8.89782 5 8.5C5 8.10218 4.84197 7.72064 4.56066 7.43933C4.27936 7.15803 3.89782 7 3.5 7ZM3.5 8C3.63261 8 3.75979 8.05266 3.85355 8.14642C3.94732 8.24019 4 8.36739 4 8.5C4 8.63261 3.94732 8.75981 3.85355 8.85358C3.75979 8.94734 3.63261 9 3.5 9C3.36739 9 3.24021 8.94734 3.14645 8.85358C3.05268 8.75981 3 8.63261 3 8.5C3 8.36739 3.05268 8.24019 3.14645 8.14642C3.24021 8.05266 3.36739 8 3.5 8Z" fill="url(#paint2_linear_10_18871)"/>
<path d="M14 8H6V9H14V8Z" fill="url(#paint3_linear_10_18871)"/>
<path d="M3.5 11C3.10218 11 2.72064 11.158 2.43934 11.4393C2.15803 11.7206 2 12.1022 2 12.5C2 12.8978 2.15803 13.2794 2.43934 13.5607C2.72064 13.842 3.10218 14 3.5 14C3.89782 14 4.27936 13.842 4.56066 13.5607C4.84197 13.2794 5 12.8978 5 12.5C5 12.1022 4.84197 11.7206 4.56066 11.4393C4.27936 11.158 3.89782 11 3.5 11ZM3.5 12C3.63261 12 3.75979 12.0527 3.85355 12.1464C3.94732 12.2402 4 12.3674 4 12.5C4 12.6326 3.94732 12.7598 3.85355 12.8536C3.75979 12.9473 3.63261 13 3.5 13C3.36739 13 3.24021 12.9473 3.14645 12.8536C3.05268 12.7598 3 12.6326 3 12.5C3 12.3674 3.05268 12.2402 3.14645 12.1464C3.24021 12.0527 3.36739 12 3.5 12Z" fill="url(#paint4_linear_10_18871)"/>
<path d="M14 12H6V13H14V12Z" fill="url(#paint5_linear_10_18871)"/>
<defs>
<linearGradient id="paint0_linear_10_18871" x1="2" y1="4.5" x2="5" y2="4.5" gradientUnits="userSpaceOnUse">
<stop stop-color="#FDFC47"/>
<stop offset="1" stop-color="#24FE41"/>
</linearGradient>
<linearGradient id="paint1_linear_10_18871" x1="6" y1="4.5" x2="14" y2="4.5" gradientUnits="userSpaceOnUse">
<stop stop-color="#FDFC47"/>
<stop offset="1" stop-color="#24FE41"/>
</linearGradient>
<linearGradient id="paint2_linear_10_18871" x1="2" y1="8.5" x2="5" y2="8.5" gradientUnits="userSpaceOnUse">
<stop stop-color="#FDFC47"/>
<stop offset="1" stop-color="#24FE41"/>
</linearGradient>
<linearGradient id="paint3_linear_10_18871" x1="6" y1="8.5" x2="14" y2="8.5" gradientUnits="userSpaceOnUse">
<stop stop-color="#FDFC47"/>
<stop offset="1" stop-color="#24FE41"/>
</linearGradient>
<linearGradient id="paint4_linear_10_18871" x1="2" y1="12.5" x2="5" y2="12.5" gradientUnits="userSpaceOnUse">
<stop stop-color="#FDFC47"/>
<stop offset="1" stop-color="#24FE41"/>
</linearGradient>
<linearGradient id="paint5_linear_10_18871" x1="6" y1="12.5" x2="14" y2="12.5" gradientUnits="userSpaceOnUse">
<stop stop-color="#FDFC47"/>
<stop offset="1" stop-color="#24FE41"/>
</linearGradient>
</defs>
</svg>
