<svg width="16" height="16" viewBox="0 0 16 16" fill="none" xmlns="http://www.w3.org/2000/svg">
<path d="M9 1.50293V4.00293H6.5C3.5 4.00293 1.5 6.12993 1.5 9.25293C1.5 12.5029 5.5 14.0029 5.5 14.0029C5.5 14.0029 3.625 11.3509 4.062 10.0029C4.428 8.87693 5.635 8.00293 7 8.00293H9V10.5029L15.469 6.00293L9 1.50293ZM10 3.40993L13.75 6.00293L10 8.59693V7.00293H7C5.209 7.00293 3.644 8.09393 3.125 9.69093C2.975 10.1509 3.035 10.5569 3.094 10.9719C2.743 10.4739 2.5 9.92493 2.5 9.25293C2.5 7.90493 2.914 6.87593 3.594 6.15993C4.274 5.44293 5.236 5.00293 6.5 5.00293H10V3.40993Z" fill="url(#paint0_linear_10_18879)"/>
<defs>
<linearGradient id="paint0_linear_10_18879" x1="1.5" y1="7.75293" x2="15.469" y2="7.75293" gradientUnits="userSpaceOnUse">
<stop stop-color="#FDFC47"/>
<stop offset="1" stop-color="#24FE41"/>
</linearGradient>
</defs>
</svg>
