<svg width="16" height="16" viewBox="0 0 16 16" fill="none" xmlns="http://www.w3.org/2000/svg">
<g clip-path="url(#clip0_10_18881)">
<path d="M8 0C3.5862 0 0 3.5865 0 8C0 12.4135 3.5862 16 8 16C12.4138 16 16 12.4135 16 8C16 3.5865 12.4138 0 8 0ZM7.9609 1.00201L7.9394 1.6192L8.85542 1.75592L9.47261 1.15826C10.0844 1.28964 10.6638 1.5032 11.205 1.78326L10.9902 2.12897L11.5995 2.66998L10.9902 3.17975L11.2284 3.78912L12.5839 3.14459L13.4316 3.78912L13.4765 3.65045C13.6605 3.88172 13.8264 4.12724 13.9804 4.38092L13.1249 4.53522L12.6171 3.99225L11.0585 4.09381L10.1093 5.586L10.7539 7.1778L12.8555 7.82233L13.2617 10.2969L13.7695 11.584L14.1269 11.3809C12.9331 13.5368 10.6358 15 8.00004 15C4.13804 15 1.00004 11.8618 1.00004 8C1.00004 7.1879 1.14535 6.41121 1.40043 5.68561L1.43363 5.82233L2.51763 6.12701L3.94143 7.1778L3.97463 8.70325L4.89064 9.95709L5.43166 13.3477L6.41408 13.9571L6.14455 12.7032L7.80475 10.3985L8.51568 8.8399L6.85548 7.27942L5.05858 6.43365L4.31444 6.87317L3.43163 5.55084L2.92382 5.78912L2.48437 5.04303L3.26366 4.63678L4.0078 5.07623L5.2969 3.48444L7.1602 2.33215L6.65238 1.38293L5.12698 1.9259L4.93753 1.71497C5.85298 1.26726 6.8758 1.00803 7.9609 1.00201Z" fill="url(#paint0_linear_10_18881)"/>
</g>
<defs>
<linearGradient id="paint0_linear_10_18881" x1="0" y1="8" x2="16" y2="8" gradientUnits="userSpaceOnUse">
<stop stop-color="#FDFC47"/>
<stop offset="1" stop-color="#24FE41"/>
</linearGradient>
<clipPath id="clip0_10_18881">
<rect width="16" height="16" fill="white"/>
</clipPath>
</defs>
</svg>
