<svg width="16" height="16" viewBox="0 0 16 16" fill="none" xmlns="http://www.w3.org/2000/svg">
<g clip-path="url(#clip0_10_18929)">
<path d="M8 0C12.4183 0 16 3.5817 16 8C16 12.4183 12.4183 16 8 16C3.5817 16 0 12.4183 0 8C0 3.5817 3.5817 0 8 0ZM8 1C4.134 1 1 4.134 1 8C1 11.866 4.134 15 8 15C11.866 15 15 11.866 15 8C15 4.134 11.866 1 8 1Z" fill="url(#paint0_linear_10_18929)"/>
<path d="M8 4C7.73478 4 7.48043 4.10536 7.29289 4.29289C7.10536 4.48043 7 4.73478 7 5C7 5.26522 7.10536 5.51957 7.29289 5.70711C7.48043 5.89464 7.73478 6 8 6C8.26522 6 8.51957 5.89464 8.70711 5.70711C8.89464 5.51957 9 5.26522 9 5C9 4.73478 8.89464 4.48043 8.70711 4.29289C8.51957 4.10536 8.26522 4 8 4ZM8 7C7.446 7 7 7.446 7 8V12C7 12.554 7.446 13 8 13C8.554 13 9 12.554 9 12V8C9 7.446 8.554 7 8 7Z" fill="url(#paint1_linear_10_18929)"/>
</g>
<defs>
<linearGradient id="paint0_linear_10_18929" x1="0" y1="8" x2="16" y2="8" gradientUnits="userSpaceOnUse">
<stop stop-color="#FDFC47"/>
<stop offset="1" stop-color="#24FE41"/>
</linearGradient>
<linearGradient id="paint1_linear_10_18929" x1="7" y1="8.5" x2="9" y2="8.5" gradientUnits="userSpaceOnUse">
<stop stop-color="#FDFC47"/>
<stop offset="1" stop-color="#24FE41"/>
</linearGradient>
<clipPath id="clip0_10_18929">
<rect width="16" height="16" fill="white"/>
</clipPath>
</defs>
</svg>
