<svg width="16" height="16" viewBox="0 0 16 16" fill="none" xmlns="http://www.w3.org/2000/svg">
<path d="M1 8V9H2V8H1ZM3 8V9H4V8H3ZM5 8V9H6V8H5ZM7 8V9H8V8H7ZM9 8V9H10V8H9ZM11 8V9H12V8H11ZM13 8V9H14V8H13ZM15 8V9H16V8H15Z" fill="url(#paint0_linear_10_18951)"/>
<path d="M13.031 1.28713C12.8982 1.27873 12.762 1.28375 12.6248 1.30276L1.72878 2.81056C0.631278 2.9626 -0.130322 3.96886 0.0217781 5.06646L0.289358 7.00006H1.29916L1.01205 4.92976C0.936029 4.381 1.31681 3.87886 1.86557 3.80276L12.7616 2.29296C13.3103 2.21694 13.8125 2.59772 13.8886 3.14648L14.4237 6.99998H15.4335L14.8808 3.00778C14.7478 2.04745 13.9609 1.34593 13.031 1.28713ZM4.78303 4.43753C4.68356 4.43114 4.58287 4.43504 4.4803 4.44925C3.65971 4.56293 3.0854 5.32006 3.1991 6.14065C3.24633 6.48157 3.40879 6.77605 3.6366 7.00003H5.7362C6.06099 6.67888 6.23924 6.21579 6.17175 5.72853C6.07228 5.01051 5.47931 4.48223 4.78303 4.43753ZM10.3396 6.66603L10.1209 7.00001H10.6912L10.3396 6.66603ZM0.704828 10L1.11889 12.9922C1.27093 14.0897 2.27719 14.8493 3.37479 14.6973L14.2708 13.1895C15.3683 13.0375 16.1299 12.0312 15.9778 10.9336L15.8489 10H14.8391L14.9875 11.0703L13.8586 10H8.16332L7.44066 11.1055L5.56566 10H4.26876L2.11056 12.8535L1.71408 10L0.704828 10Z" fill="url(#paint1_linear_10_18951)"/>
<defs>
<linearGradient id="paint0_linear_10_18951" x1="1" y1="8.5" x2="16" y2="8.5" gradientUnits="userSpaceOnUse">
<stop stop-color="#FDFC47"/>
<stop offset="1" stop-color="#24FE41"/>
</linearGradient>
<linearGradient id="paint1_linear_10_18951" x1="0.00244141" y1="7.99994" x2="15.9971" y2="7.99994" gradientUnits="userSpaceOnUse">
<stop stop-color="#FDFC47"/>
<stop offset="1" stop-color="#24FE41"/>
</linearGradient>
</defs>
</svg>
