<svg width="16" height="16" viewBox="0 0 16 16" fill="none" xmlns="http://www.w3.org/2000/svg">
<path opacity="0.3" d="M1.5 14.5C2.07 11.8 2.76 9.15 8 8C13.22 7.04 13.09 4.35 14 2V14.5H1.5Z" fill="url(#paint0_linear_10_18939)"/>
<path d="M13.47 1C13.206 1 13 1.264 13 1.533C13.02 2.715 12.96 3.833 12.31 4.753C11.67 5.683 10.4 6.493 7.87 7.003C5.15 7.553 3.53 8.693 2.56 10.063C1.6 11.443 1.28 13.003 1 14.353L2 14.563C2.28 13.213 2.59 11.823 3.41 10.663C4.22 9.503 5.53 8.513 8.06 8.003C10.74 7.463 12.29 6.513 13.12 5.313C13.96 4.123 14 2.743 14 1.503C14.002 1.202 13.769 1 13.47 1Z" fill="url(#paint1_linear_10_18939)"/>
<path d="M1 1H2V15H1V1Z" fill="url(#paint2_linear_10_18939)"/>
<path d="M15 14V15H1V14H15Z" fill="url(#paint3_linear_10_18939)"/>
<defs>
<linearGradient id="paint0_linear_10_18939" x1="1.5" y1="8.25" x2="14" y2="8.25" gradientUnits="userSpaceOnUse">
<stop stop-color="#FDFC47"/>
<stop offset="1" stop-color="#24FE41"/>
</linearGradient>
<linearGradient id="paint1_linear_10_18939" x1="1" y1="7.7815" x2="14" y2="7.7815" gradientUnits="userSpaceOnUse">
<stop stop-color="#FDFC47"/>
<stop offset="1" stop-color="#24FE41"/>
</linearGradient>
<linearGradient id="paint2_linear_10_18939" x1="1" y1="8" x2="2" y2="8" gradientUnits="userSpaceOnUse">
<stop stop-color="#FDFC47"/>
<stop offset="1" stop-color="#24FE41"/>
</linearGradient>
<linearGradient id="paint3_linear_10_18939" x1="1" y1="14.5" x2="15" y2="14.5" gradientUnits="userSpaceOnUse">
<stop stop-color="#FDFC47"/>
<stop offset="1" stop-color="#24FE41"/>
</linearGradient>
</defs>
</svg>
