<svg width="16" height="16" viewBox="0 0 16 16" fill="none" xmlns="http://www.w3.org/2000/svg">
<path d="M7.94329 1.00208C7.7785 1.01148 7.6186 1.06152 7.47786 1.14775C7.33711 1.23397 7.21989 1.35368 7.13665 1.49622L0.136652 13.4962C0.0480598 13.6481 0.00109479 13.8207 0.000494116 13.9966C-0.000106556 14.1725 0.0456783 14.3454 0.133231 14.4979C0.220784 14.6504 0.347008 14.7772 0.499174 14.8653C0.65134 14.9535 0.824066 15 0.999932 15.0001H14.9999C15.1758 15 15.3485 14.9535 15.5007 14.8653C15.6529 14.7772 15.7791 14.6504 15.8666 14.4979C15.9542 14.3454 16 14.1725 15.9994 13.9966C15.9988 13.8207 15.9518 13.6481 15.8632 13.4962L8.86321 1.49622C8.77028 1.3371 8.6352 1.20675 8.47287 1.11955C8.31053 1.03235 8.12727 0.991699 7.94329 1.00208ZM7.99993 2.00013L14.9999 14.0001H0.999933L7.99993 2.00013Z" fill="url(#paint0_linear_10_18949)"/>
<defs>
<linearGradient id="paint0_linear_10_18949" x1="0.000488281" y1="8.0003" x2="15.9994" y2="8.0003" gradientUnits="userSpaceOnUse">
<stop stop-color="#FDFC47"/>
<stop offset="1" stop-color="#24FE41"/>
</linearGradient>
</defs>
</svg>
