<svg width="16" height="16" viewBox="0 0 16 16" fill="none" xmlns="http://www.w3.org/2000/svg">
<path d="M5 12L8 16L11 12H5Z" fill="url(#paint0_linear_10_18957)"/>
<path d="M6.5 3L4 5.5V8H12V6L10.75 4.75L9.5 6L6.5 3Z" fill="url(#paint1_linear_10_18957)"/>
<path d="M4 1C2.892 1 2 1.892 2 3V8C2 9.108 2.892 10 4 10H12C13.108 10 14 9.108 14 8V3C14 1.892 13.108 1 12 1H4ZM4 2H12C12.554 2 13 2.446 13 3V8C13 8.554 12.554 9 12 9H4C3.446 9 3 8.554 3 8V3C3 2.446 3.446 2 4 2Z" fill="#232323"/>
<defs>
<linearGradient id="paint0_linear_10_18957" x1="5" y1="14" x2="11" y2="14" gradientUnits="userSpaceOnUse">
<stop stop-color="#FDFC47"/>
<stop offset="1" stop-color="#24FE41"/>
</linearGradient>
<linearGradient id="paint1_linear_10_18957" x1="4" y1="5.5" x2="12" y2="5.5" gradientUnits="userSpaceOnUse">
<stop stop-color="#FDFC47"/>
<stop offset="1" stop-color="#24FE41"/>
</linearGradient>
</defs>
</svg>
