<svg width="16" height="16" viewBox="0 0 16 16" fill="none" xmlns="http://www.w3.org/2000/svg">
<g clip-path="url(#clip0_10_18961)">
<path d="M5 12L8 16L11 12H5Z" fill="url(#paint0_linear_10_18961)"/>
<path d="M8 0C6.67392 0 5.40215 0.526784 4.46447 1.46447C3.52678 2.40215 3 3.67392 3 5C3 6.32608 3.52678 7.59785 4.46447 8.53553C5.40215 9.47322 6.67392 10 8 10C9.32608 10 10.5979 9.47322 11.5355 8.53553C12.4732 7.59785 13 6.32608 13 5C13 3.67392 12.4732 2.40215 11.5355 1.46447C10.5979 0.526784 9.32608 0 8 0ZM8 1C9.06087 1 10.0783 1.42143 10.8284 2.17157C11.5786 2.92172 12 3.93913 12 5C12 6.06087 11.5786 7.07828 10.8284 7.82843C10.0783 8.57857 9.06087 9 8 9C6.93913 9 5.92172 8.57857 5.17157 7.82843C4.42143 7.07828 4 6.06087 4 5C4 3.93913 4.42143 2.92172 5.17157 2.17157C5.92172 1.42143 6.93913 1 8 1Z" fill="url(#paint1_linear_10_18961)"/>
</g>
<defs>
<linearGradient id="paint0_linear_10_18961" x1="5" y1="14" x2="11" y2="14" gradientUnits="userSpaceOnUse">
<stop stop-color="#FDFC47"/>
<stop offset="1" stop-color="#24FE41"/>
</linearGradient>
<linearGradient id="paint1_linear_10_18961" x1="3" y1="5" x2="13" y2="5" gradientUnits="userSpaceOnUse">
<stop stop-color="#FDFC47"/>
<stop offset="1" stop-color="#24FE41"/>
</linearGradient>
<clipPath id="clip0_10_18961">
<rect width="16" height="16" fill="white"/>
</clipPath>
</defs>
</svg>
