<svg width="16" height="16" viewBox="0 0 16 16" fill="none" xmlns="http://www.w3.org/2000/svg">
<path d="M12.5 9C11.5717 9 10.6815 9.36875 10.0251 10.0251C9.36875 10.6815 9 11.5717 9 12.5C9 13.4283 9.36875 14.3185 10.0251 14.9749C10.6815 15.6313 11.5717 16 12.5 16C13.4283 16 14.3185 15.6313 14.9749 14.9749C15.6313 14.3185 16 13.4283 16 12.5C16 11.5717 15.6313 10.6815 14.9749 10.0251C14.3185 9.36875 13.4283 9 12.5 9ZM12.5 12H15V13H10V12H12.5Z" fill="url(#paint0_linear_10_18978)"/>
<path d="M2 3V4H14V3H2ZM2 7V8H13H14V7H2ZM2 11V12H8.1016C8.17235 11.6564 8.27906 11.3212 8.41996 11H2Z" fill="url(#paint1_linear_10_18978)"/>
<defs>
<linearGradient id="paint0_linear_10_18978" x1="9" y1="9" x2="12.7526" y2="17.4433" gradientUnits="userSpaceOnUse">
<stop stop-color="#FF0500"/>
<stop offset="1" stop-color="#FD3632"/>
</linearGradient>
<linearGradient id="paint1_linear_10_18978" x1="2" y1="7.5" x2="14" y2="7.5" gradientUnits="userSpaceOnUse">
<stop stop-color="#FDFC47"/>
<stop offset="1" stop-color="#24FE41"/>
</linearGradient>
</defs>
</svg>
