<svg width="16" height="16" viewBox="0 0 16 16" fill="none" xmlns="http://www.w3.org/2000/svg">
<path d="M3.99998 3.33984C3.4274 3.61815 3.01957 4.00249 2.83008 4.25L0.20508 7.6777C0.0719202 7.85218 -0.000149766 8.06563 2.33674e-07 8.28512V8.49996V8.99996V12C2.33674e-07 13.108 0.892 14 2 14H13C14.108 14 14.9979 13.108 15 12V8.99996V8.49996V8.28512C15.0001 8.06563 14.9281 7.85218 14.7949 7.6777L12.1699 4.25C11.9804 4.00249 11.5726 3.61815 11 3.33984V4.47074C11.1503 4.59581 11.2766 4.7289 11.375 4.85746L13.7812 8.00006H12H10.959H10.0782H9.94925C9.71168 9.16396 8.68795 9.99996 7.50005 10.0001C6.31365 9.99808 5.29205 9.1625 5.05475 8.00006H4.92194H4.03913H1.21883L3.62503 4.85746C3.72346 4.7289 3.84978 4.59581 4.00003 4.47074L3.99998 3.33984ZM0.99998 9.00004H4.34178C4.92053 10.2201 6.14958 10.9984 7.49998 11C8.85028 10.9967 10.0693 10.2137 10.6465 9.00004H10.6582H12H14V12C14 12.554 13.554 13 13 13H2C1.446 13 0.999999 12.554 0.999999 12L0.99998 9.00004Z" fill="url(#paint0_linear_10_19021)"/>
<path d="M7.49995 8.00002C7.22295 8.00002 6.99995 7.77702 6.99995 7.50002V2.70702L5.73235 3.97462C5.53648 4.17049 5.22119 4.17049 5.02532 3.97462C4.82945 3.77875 4.82945 3.46346 5.02532 3.26759L7.14642 1.14649C7.19343 1.09948 7.24966 1.06242 7.31244 1.03711C7.37034 1.01377 7.43349 1 7.49994 1C7.56639 1 7.62954 1.01377 7.68744 1.03711C7.75022 1.06241 7.80644 1.09947 7.85346 1.14649L9.97456 3.26759C10.1704 3.46346 10.1704 3.77875 9.97456 3.97462C9.77869 4.17049 9.4634 4.17049 9.26753 3.97462L7.99993 2.70702V7.50002C7.99993 7.77702 7.77695 8.00002 7.49995 8.00002Z" fill="url(#paint1_linear_10_19021)"/>
<defs>
<linearGradient id="paint0_linear_10_19021" x1="0" y1="8.6699" x2="15" y2="8.6699" gradientUnits="userSpaceOnUse">
<stop stop-color="#FDFC47"/>
<stop offset="1" stop-color="#24FE41"/>
</linearGradient>
<linearGradient id="paint1_linear_10_19021" x1="4.87842" y1="4.50001" x2="10.1215" y2="4.50001" gradientUnits="userSpaceOnUse">
<stop stop-color="#FDFC47"/>
<stop offset="1" stop-color="#24FE41"/>
</linearGradient>
</defs>
</svg>
