<svg width="16" height="16" viewBox="0 0 16 16" fill="none" xmlns="http://www.w3.org/2000/svg">
<path d="M14.706 1.25888C14.698 1.25124 14.6897 1.24387 14.6811 1.23678C14.6657 1.22433 14.6496 1.2128 14.6328 1.20226C14.6287 1.19989 14.6245 1.19759 14.6204 1.19535C14.6082 1.18791 14.5958 1.181 14.5831 1.17463C14.5731 1.16969 14.563 1.16508 14.5527 1.16082C14.5373 1.15452 14.5216 1.14899 14.5057 1.14425C14.5002 1.14231 14.4947 1.14047 14.4892 1.13873C14.4768 1.13595 14.4644 1.13365 14.4519 1.13182C14.4482 1.13085 14.4445 1.12993 14.4408 1.12906C14.4298 1.12777 14.4187 1.12685 14.4077 1.1263C14.3912 1.12455 14.3746 1.12363 14.358 1.12354C14.3469 1.12409 14.3358 1.12501 14.3248 1.1263C14.3193 1.1262 14.3138 1.1262 14.3082 1.1263C14.3027 1.12712 14.2972 1.12804 14.2917 1.12906C14.2806 1.13052 14.2695 1.13236 14.2585 1.13458C14.2441 1.13717 14.2298 1.1404 14.2157 1.14425C14.2125 1.14559 14.2092 1.14697 14.206 1.14839C14.2018 1.14971 14.1977 1.15109 14.1936 1.15253C14.1838 1.15636 14.1741 1.16051 14.1646 1.16496C14.1632 1.16541 14.1618 1.16587 14.1605 1.16634L1.43248 6.82324C1.34387 6.86295 1.26875 6.92761 1.21627 7.00931C1.1638 7.09101 1.13624 7.18622 1.13698 7.28332C1.13771 7.38041 1.1667 7.4752 1.2204 7.5561C1.2741 7.637 1.35019 7.70051 1.43939 7.73889L6.20549 9.78148L8.24809 14.5476C8.28647 14.6368 8.34998 14.7129 8.43088 14.7666C8.51178 14.8203 8.60657 14.8493 8.70366 14.85C8.80076 14.8507 8.89597 14.8232 8.97767 14.7707C9.05937 14.7182 9.12402 14.6431 9.16374 14.5545L14.8067 1.85649C14.8275 1.81682 14.8428 1.77455 14.8523 1.73081C14.8533 1.7253 14.8543 1.71977 14.8551 1.71423C14.8568 1.70369 14.8582 1.6931 14.8592 1.68247C14.8612 1.66826 14.8626 1.65398 14.8633 1.63965C14.8633 1.63689 14.8633 1.63413 14.8633 1.63136C14.8634 1.62584 14.8634 1.62032 14.8633 1.61479C14.8632 1.60419 14.8627 1.5936 14.8619 1.58303C14.8616 1.57703 14.8611 1.57105 14.8605 1.56507C14.859 1.55397 14.8572 1.54291 14.855 1.53193C14.8537 1.52684 14.8524 1.52178 14.8509 1.51674C14.849 1.50607 14.8467 1.49548 14.844 1.48497C14.8423 1.47941 14.8404 1.47389 14.8385 1.4684C14.8352 1.45815 14.8315 1.44802 14.8275 1.43801C14.8213 1.42248 14.8144 1.40727 14.8067 1.39244C14.8016 1.38212 14.796 1.37199 14.7902 1.36206C14.7875 1.35741 14.7847 1.3528 14.7819 1.34824C14.7787 1.34405 14.7755 1.33991 14.7722 1.33581C14.7623 1.32193 14.7517 1.30856 14.7404 1.29576C14.7295 1.28276 14.7181 1.27072 14.706 1.25888ZM12.1054 3.17438L6.47199 8.80778L2.88669 7.27208L12.1054 3.17438ZM12.8125 3.88149L8.7149 13.1001L7.1792 9.51479L12.8125 3.88149Z" fill="url(#paint0_linear_10_19031)"/>
<defs>
<linearGradient id="paint0_linear_10_19031" x1="1.13696" y1="7.98677" x2="14.8634" y2="7.98677" gradientUnits="userSpaceOnUse">
<stop stop-color="#FDFC47"/>
<stop offset="1" stop-color="#24FE41"/>
</linearGradient>
</defs>
</svg>
