<svg width="16" height="16" viewBox="0 0 16 16" fill="none" xmlns="http://www.w3.org/2000/svg">
<path d="M5.8812 3.00875C5.6299 3.0399 5.42131 3.14907 5.25308 3.33806C5.08485 3.52705 5 3.74939 5 4.00277V11.9976C5 12.251 5.08486 12.4733 5.25308 12.6623C5.42131 12.8513 5.62993 12.9604 5.8812 12.9916C6.1325 13.0228 6.36055 12.9672 6.57031 12.8239L12.3697 8.82659C12.5545 8.6999 12.6833 8.52714 12.7539 8.31739C12.8245 8.10556 12.8245 7.896 12.7539 7.68621C12.6833 7.47645 12.5555 7.30576 12.3728 7.17701L6.57025 3.17651C6.36118 3.03113 6.13181 2.9769 5.8812 3.00875Z" fill="url(#paint0_linear_10_19051)"/>
<defs>
<linearGradient id="paint0_linear_10_19051" x1="5" y1="7.99999" x2="12.8069" y2="7.99999" gradientUnits="userSpaceOnUse">
<stop stop-color="#FDFC47"/>
<stop offset="1" stop-color="#24FE41"/>
</linearGradient>
</defs>
</svg>
