<svg width="16" height="16" viewBox="0 0 16 16" fill="none" xmlns="http://www.w3.org/2000/svg">
<g clip-path="url(#clip0_10_19053)">
<path d="M8 0C5.87827 0 3.84344 0.842855 2.34315 2.34315C0.842855 3.84344 0 5.87827 0 8C0 10.1217 0.842855 12.1566 2.34315 13.6569C3.84344 15.1571 5.87827 16 8 16C10.1217 16 12.1566 15.1571 13.6569 13.6569C15.1571 12.1566 16 10.1217 16 8C16 5.87827 15.1571 3.84344 13.6569 2.34315C12.1566 0.842855 10.1217 0 8 0ZM7.9043 1C7.90495 1 7.9056 1 7.90625 1C7.9375 0.999791 7.96875 0.999791 8 1C8.91926 0.999987 9.82951 1.18104 10.6788 1.53282C11.5281 1.88459 12.2998 2.40021 12.9498 3.05022C13.5998 3.70024 14.1154 4.47192 14.4672 5.3212C14.819 6.17049 15 7.08074 15 8C15 8.91926 14.819 9.82951 14.4672 10.6788C14.1154 11.5281 13.5998 12.2998 12.9498 12.9498C12.2998 13.5998 11.5281 14.1154 10.6788 14.4672C9.82951 14.819 8.91926 15 8 15C7.08074 15 6.17049 14.819 5.3212 14.4672C4.47192 14.1154 3.70024 13.5998 3.05022 12.9498C2.40021 12.2998 1.88459 11.5281 1.53282 10.6788C1.18104 9.82951 0.999987 8.91926 1 8C0.999802 6.15994 1.72414 4.3938 3.01627 3.08375C4.30841 1.77371 6.06441 1.02513 7.9043 1ZM6 5C5.44601 5 5 5.44601 5 6V10C5 10.554 5.44601 11 6 11H10C10.554 11 11 10.554 11 10V6C11 5.44601 10.554 5 10 5H6Z" fill="url(#paint0_linear_10_19053)"/>
</g>
<defs>
<linearGradient id="paint0_linear_10_19053" x1="0" y1="8" x2="16" y2="8" gradientUnits="userSpaceOnUse">
<stop stop-color="#FDFC47"/>
<stop offset="1" stop-color="#24FE41"/>
</linearGradient>
<clipPath id="clip0_10_19053">
<rect width="16" height="16" fill="white"/>
</clipPath>
</defs>
</svg>
