<svg width="16" height="16" viewBox="0 0 16 16" fill="none" xmlns="http://www.w3.org/2000/svg">
<path d="M1.8812 3.00875C1.6299 3.0399 1.42131 3.14907 1.25308 3.33806C1.08485 3.52705 1 3.74939 1 4.00277V11.9976C1 12.251 1.08487 12.4733 1.25308 12.6623C1.42131 12.8513 1.62993 12.9604 1.8812 12.9916C2.1325 13.0228 2.36055 12.9672 2.57031 12.8239L8.36971 8.82659C8.55455 8.6999 8.6833 8.52714 8.75389 8.31739C8.82452 8.10556 8.82452 7.896 8.75389 7.68621C8.68326 7.47645 8.55553 7.30576 8.37275 7.17701L2.57025 3.17651C2.36118 3.03113 2.13181 2.9769 1.8812 3.00875Z" fill="url(#paint0_linear_10_19071)"/>
<path d="M7.8812 3.00875C7.6299 3.0399 7.42131 3.14907 7.25308 3.33806C7.08485 3.52705 7 3.74939 7 4.00277V11.9976C7 12.251 7.08487 12.4733 7.25308 12.6623C7.42131 12.8513 7.62993 12.9604 7.8812 12.9916C8.1325 13.0228 8.36055 12.9672 8.57031 12.8239L14.3697 8.82659C14.5545 8.6999 14.6833 8.52714 14.7539 8.31739C14.8245 8.10556 14.8245 7.896 14.7539 7.68621C14.6833 7.47645 14.5555 7.30576 14.3728 7.17701L8.57025 3.17651C8.36118 3.03113 8.13181 2.9769 7.8812 3.00875Z" fill="url(#paint1_linear_10_19071)"/>
<defs>
<linearGradient id="paint0_linear_10_19071" x1="1" y1="7.99999" x2="8.80686" y2="7.99999" gradientUnits="userSpaceOnUse">
<stop stop-color="#FDFC47"/>
<stop offset="1" stop-color="#24FE41"/>
</linearGradient>
<linearGradient id="paint1_linear_10_19071" x1="7" y1="7.99999" x2="14.8069" y2="7.99999" gradientUnits="userSpaceOnUse">
<stop stop-color="#FDFC47"/>
<stop offset="1" stop-color="#24FE41"/>
</linearGradient>
</defs>
</svg>
