<svg width="16" height="16" viewBox="0 0 16 16" fill="none" xmlns="http://www.w3.org/2000/svg">
<path d="M2.5 1.00001C2.223 1.00001 2 1.22301 2 1.50001V8.05471C2.1644 8.01972 2.33192 8.00139 2.5 8.00002C2.66795 8.00011 2.83546 8.01712 3 8.0508V1.5C3 1.223 2.777 1.00001 2.5 1.00001ZM3 12.945C2.8356 12.98 2.66808 12.9983 2.5 12.9997C2.33205 12.9996 2.16454 12.9826 2 12.9489V14.4997C2 14.7767 2.223 14.9997 2.5 14.9997C2.777 14.9997 3 14.7767 3 14.4997V12.945Z" fill="url(#paint0_linear_10_19090)"/>
<path d="M7.5 1.00001C7.223 1.00001 7 1.22301 7 1.50001V3.05471C7.1644 3.01972 7.33192 3.00139 7.5 3.00002C7.66795 3.00011 7.83546 3.01712 8 3.0508V1.5C8 1.223 7.777 1.00001 7.5 1.00001ZM8 7.94531C7.8356 7.9803 7.66808 7.99862 7.5 8C7.33205 7.99991 7.16454 7.98289 7 7.94921V14.5C7 14.777 7.223 15 7.5 15C7.777 15 8 14.777 8 14.5V7.94531Z" fill="url(#paint1_linear_10_19090)"/>
<path d="M12.5 1.00001C12.223 1.00001 12 1.22301 12 1.50001V8.05471C12.1644 8.01972 12.3319 8.00139 12.5 8.00002C12.6679 8.00011 12.8355 8.01712 13 8.0508V1.5C13 1.223 12.777 1.00001 12.5 1.00001ZM13 12.945C12.8356 12.98 12.6681 12.9983 12.5 12.9997C12.3321 12.9996 12.1645 12.9826 12 12.9489V14.4997C12 14.7767 12.223 14.9997 12.5 14.9997C12.777 14.9997 13 14.7767 13 14.4997V12.945Z" fill="url(#paint2_linear_10_19090)"/>
<path d="M2.5 12C3.32843 12 4 11.3284 4 10.5C4 9.67157 3.32843 9 2.5 9C1.67157 9 1 9.67157 1 10.5C1 11.3284 1.67157 12 2.5 12Z" fill="url(#paint3_linear_10_19090)"/>
<path d="M7.5 7C8.32843 7 9 6.32843 9 5.5C9 4.67157 8.32843 4 7.5 4C6.67157 4 6 4.67157 6 5.5C6 6.32843 6.67157 7 7.5 7Z" fill="url(#paint4_linear_10_19090)"/>
<path d="M12.5 12C13.3284 12 14 11.3284 14 10.5C14 9.67157 13.3284 9 12.5 9C11.6716 9 11 9.67157 11 10.5C11 11.3284 11.6716 12 12.5 12Z" fill="url(#paint5_linear_10_19090)"/>
<defs>
<linearGradient id="paint0_linear_10_19090" x1="2" y1="7.99986" x2="3" y2="7.99986" gradientUnits="userSpaceOnUse">
<stop stop-color="#FDFC47"/>
<stop offset="1" stop-color="#24FE41"/>
</linearGradient>
<linearGradient id="paint1_linear_10_19090" x1="7" y1="8.00001" x2="8" y2="8.00001" gradientUnits="userSpaceOnUse">
<stop stop-color="#FDFC47"/>
<stop offset="1" stop-color="#24FE41"/>
</linearGradient>
<linearGradient id="paint2_linear_10_19090" x1="12" y1="7.99986" x2="13" y2="7.99986" gradientUnits="userSpaceOnUse">
<stop stop-color="#FDFC47"/>
<stop offset="1" stop-color="#24FE41"/>
</linearGradient>
<linearGradient id="paint3_linear_10_19090" x1="1" y1="10.5" x2="4" y2="10.5" gradientUnits="userSpaceOnUse">
<stop stop-color="#FDFC47"/>
<stop offset="1" stop-color="#24FE41"/>
</linearGradient>
<linearGradient id="paint4_linear_10_19090" x1="6" y1="5.5" x2="9" y2="5.5" gradientUnits="userSpaceOnUse">
<stop stop-color="#FDFC47"/>
<stop offset="1" stop-color="#24FE41"/>
</linearGradient>
<linearGradient id="paint5_linear_10_19090" x1="11" y1="10.5" x2="14" y2="10.5" gradientUnits="userSpaceOnUse">
<stop stop-color="#FDFC47"/>
<stop offset="1" stop-color="#24FE41"/>
</linearGradient>
</defs>
</svg>
