<svg width="16" height="16" viewBox="0 0 16 16" fill="none" xmlns="http://www.w3.org/2000/svg">
<g clip-path="url(#clip0_10_19113)">
<path d="M0.999995 8.97466C1.55228 8.97466 1.99999 8.52691 1.99999 7.97463C1.99999 7.42235 1.55228 6.97461 0.999995 6.97461C0.447713 6.97461 0 7.42235 0 7.97463C0 8.52691 0.447713 8.97466 0.999995 8.97466Z" fill="url(#paint0_linear_10_19113)"/>
<path d="M8.00024 8.97466C8.55252 8.97466 9.00023 8.52691 9.00023 7.97463C9.00023 7.42235 8.55252 6.97461 8.00024 6.97461C7.44796 6.97461 7.00024 7.42235 7.00024 7.97463C7.00024 8.52691 7.44796 8.97466 8.00024 8.97466Z" fill="url(#paint1_linear_10_19113)"/>
<path d="M15.0002 8.97466C15.5525 8.97466 16.0002 8.52691 16.0002 7.97463C16.0002 7.42235 15.5525 6.97461 15.0002 6.97461C14.448 6.97461 14.0002 7.42235 14.0002 7.97463C14.0002 8.52691 14.448 8.97466 15.0002 8.97466Z" fill="url(#paint2_linear_10_19113)"/>
</g>
<defs>
<linearGradient id="paint0_linear_10_19113" x1="0" y1="7.97463" x2="1.99999" y2="7.97463" gradientUnits="userSpaceOnUse">
<stop stop-color="#FDFC47"/>
<stop offset="1" stop-color="#24FE41"/>
</linearGradient>
<linearGradient id="paint1_linear_10_19113" x1="7.00024" y1="7.97463" x2="9.00023" y2="7.97463" gradientUnits="userSpaceOnUse">
<stop stop-color="#FDFC47"/>
<stop offset="1" stop-color="#24FE41"/>
</linearGradient>
<linearGradient id="paint2_linear_10_19113" x1="14.0002" y1="7.97463" x2="16.0002" y2="7.97463" gradientUnits="userSpaceOnUse">
<stop stop-color="#FDFC47"/>
<stop offset="1" stop-color="#24FE41"/>
</linearGradient>
<clipPath id="clip0_10_19113">
<rect width="16" height="16" fill="white"/>
</clipPath>
</defs>
</svg>
