<svg width="16" height="16" viewBox="0 0 16 16" fill="none" xmlns="http://www.w3.org/2000/svg">
<path d="M2.9895 9C3.54179 9 3.9895 8.55228 3.9895 8C3.9895 7.44772 3.54179 7 2.9895 7C2.43722 7 1.9895 7.44772 1.9895 8C1.9895 8.55228 2.43722 9 2.9895 9Z" fill="url(#paint0_linear_10_19108)"/>
<path d="M8 9C8.55228 9 9 8.55228 9 8C9 7.44772 8.55228 7 8 7C7.44772 7 7 7.44772 7 8C7 8.55228 7.44772 9 8 9Z" fill="url(#paint1_linear_10_19108)"/>
<path d="M13 9C13.5523 9 14 8.55228 14 8C14 7.44772 13.5523 7 13 7C12.4477 7 12 7.44772 12 8C12 8.55228 12.4477 9 13 9Z" fill="url(#paint2_linear_10_19108)"/>
<defs>
<linearGradient id="paint0_linear_10_19108" x1="1.9895" y1="8" x2="3.9895" y2="8" gradientUnits="userSpaceOnUse">
<stop stop-color="#FDFC47"/>
<stop offset="1" stop-color="#24FE41"/>
</linearGradient>
<linearGradient id="paint1_linear_10_19108" x1="7" y1="8" x2="9" y2="8" gradientUnits="userSpaceOnUse">
<stop stop-color="#FDFC47"/>
<stop offset="1" stop-color="#24FE41"/>
</linearGradient>
<linearGradient id="paint2_linear_10_19108" x1="12" y1="8" x2="14" y2="8" gradientUnits="userSpaceOnUse">
<stop stop-color="#FDFC47"/>
<stop offset="1" stop-color="#24FE41"/>
</linearGradient>
</defs>
</svg>
