<svg width="16" height="16" viewBox="0 0 16 16" fill="none" xmlns="http://www.w3.org/2000/svg">
<path d="M8 1C7.86033 1.00014 7.72223 1.02953 7.59461 1.08629C7.46699 1.14305 7.35268 1.22592 7.25904 1.32955C7.16539 1.43318 7.0945 1.55527 7.05091 1.68797C7.00733 1.82067 6.99203 1.96103 7.006 2.1C5.87449 2.32721 4.85678 2.93975 4.1263 3.83325C3.39582 4.72675 2.99777 5.84591 3 7V11.5L1 13.5V14H15V13.5L13 11.5V7C13.0024 5.84586 12.6044 4.7266 11.8739 3.83307C11.1434 2.93953 10.1256 2.32703 8.994 2.1C9.00797 1.96103 8.99267 1.82067 8.94909 1.68797C8.9055 1.55527 8.83461 1.43318 8.74096 1.32955C8.64732 1.22592 8.53301 1.14305 8.40539 1.08629C8.27777 1.02953 8.13967 1.00014 8 1ZM8 3C9.06087 3 10.0783 3.42143 10.8284 4.17157C11.5786 4.92172 12 5.93913 12 7V11.922L13 13H3L4 11.922V7C4 5.93913 4.42143 4.92172 5.17157 4.17157C5.92172 3.42143 6.93913 3 8 3ZM6.27 15C6.44536 15.3037 6.69752 15.556 7.00116 15.7315C7.30481 15.9071 7.64927 15.9996 8 16C8.35056 15.9995 8.69481 15.9068 8.99827 15.7313C9.30173 15.5558 9.55372 15.3036 9.729 15H6.27Z" fill="url(#paint0_linear_10_19128)"/>
<defs>
<linearGradient id="paint0_linear_10_19128" x1="1" y1="8.5" x2="15" y2="8.5" gradientUnits="userSpaceOnUse">
<stop stop-color="#FDFC47"/>
<stop offset="1" stop-color="#24FE41"/>
</linearGradient>
</defs>
</svg>
