<svg width="16" height="16" viewBox="0 0 16 16" fill="none" xmlns="http://www.w3.org/2000/svg">
<path opacity="0.35" d="M8.00003 1C7.73482 1 7.48046 1.10536 7.29293 1.29289C7.10539 1.48043 7.00003 1.73478 7.00003 2C7.00016 2.04574 7.00342 2.09142 7.0098 2.13672C5.2786 2.57706 4 4.12792 4 6.00002V9.88092L5 8.88092V6.00002C5 4.33802 6.338 3.00002 8 3.00002C8.80043 3.00002 9.5217 3.31487 10.0586 3.82229L10.7598 3.12112C10.2701 2.65608 9.66607 2.3088 8.98827 2.13674C8.9953 2.09149 8.99922 2.04581 8.99999 2.00002C8.99999 1.7348 8.89463 1.48045 8.7071 1.29291C8.51956 1.10538 8.26525 1 8.00003 1ZM12 6.123L11 7.123V9C11.0016 9.73867 11.2756 10.4508 11.7696 11H7.12316L6.12316 12H14.0002V11C13.4697 11 12.961 10.7893 12.586 10.4142C12.2109 10.0391 12.0002 9.53043 12.0002 9L12 6.123ZM7.00003 13C7.00003 13.2652 7.10539 13.5196 7.29293 13.7071C7.48046 13.8946 7.73482 14 8.00003 14C8.26525 14 8.5196 13.8946 8.70714 13.7071C8.89468 13.5196 9.00003 13.2652 9.00003 13H7.00003Z" fill="url(#paint0_linear_10_19130)"/>
<path opacity="0.35" d="M13.3035 1.99L1.98975 13.3037L2.69685 14.0108L14.0106 2.69711L13.3035 1.99Z" fill="url(#paint1_linear_10_19130)"/>
<defs>
<linearGradient id="paint0_linear_10_19130" x1="4" y1="7.5" x2="14.0002" y2="7.5" gradientUnits="userSpaceOnUse">
<stop stop-color="#FDFC47"/>
<stop offset="1" stop-color="#24FE41"/>
</linearGradient>
<linearGradient id="paint1_linear_10_19130" x1="2.3433" y1="13.6573" x2="13.657" y2="2.34356" gradientUnits="userSpaceOnUse">
<stop stop-color="#FDFC47"/>
<stop offset="1" stop-color="#24FE41"/>
</linearGradient>
</defs>
</svg>
