<svg width="16" height="16" viewBox="0 0 16 16" fill="none" xmlns="http://www.w3.org/2000/svg">
<path d="M2.09111 1.30664L5.39511 4.61364C4.66311 4.88664 3.89511 5.14064 3.08911 5.37764C2.28911 5.60864 1.49711 5.81364 0.714111 5.98964C0.897111 5.21364 1.10411 4.42464 1.33511 3.62364C1.57211 2.81864 1.82511 2.04564 2.09111 1.30664Z" fill="url(#paint0_linear_10_19170)"/>
<path d="M3.24408 11.6557L3.31608 11.7397L2.56608 12.3997L2.47508 12.2967L2.43508 12.2467L1.95508 11.5267L2.78708 10.9727L3.24408 11.6557ZM4.35408 12.7637L4.69408 12.9897L4.13908 13.8217L3.77208 13.5777L3.72108 13.5387L3.29908 13.1687L3.95708 12.4177L4.35408 12.7637ZM5.70708 13.5427L6.38308 13.7727L6.06108 14.7207L5.34408 14.4747L5.28408 14.4507L5.06608 14.3407L5.50808 13.4447L5.70708 13.5427ZM8.03308 14.0017L7.96708 14.9977L7.16608 14.9447L7.23208 13.9467L8.03308 14.0017Z" fill="url(#paint1_linear_10_19170)"/>
<path d="M8 6C7.46957 6 6.96086 6.21071 6.58579 6.58579C6.21071 6.96086 6 7.46957 6 8C6 8.53043 6.21071 9.03914 6.58579 9.41421C6.96086 9.78929 7.46957 10 8 10C8.53043 10 9.03914 9.78929 9.41421 9.41421C9.78929 9.03914 10 8.53043 10 8C10 7.46957 9.78929 6.96086 9.41421 6.58579C9.03914 6.21071 8.53043 6 8 6ZM8 7C8.26522 7 8.51957 7.10536 8.70711 7.29289C8.89464 7.48043 9 7.73478 9 8C9 8.26522 8.89464 8.51957 8.70711 8.70711C8.51957 8.89464 8.26522 9 8 9C7.73478 9 7.48043 8.89464 7.29289 8.70711C7.10536 8.51957 7 8.26522 7 8C7 7.73478 7.10536 7.48043 7.29289 7.29289C7.48043 7.10536 7.73478 7 8 7Z" fill="url(#paint2_linear_10_19170)"/>
<path d="M8.426 1.01377C9.217 1.06077 10.012 1.24377 10.773 1.57177C12.2516 2.21052 13.465 3.33933 14.2087 4.76807C14.9524 6.19681 15.181 7.83819 14.856 9.41577C14.5293 10.9928 13.6691 12.4091 12.4204 13.4262C11.1716 14.4433 9.61054 14.999 8 14.9998H7.5V13.9998H8C10.85 13.9998 13.3 12.0028 13.877 9.21277C14.1572 7.86049 13.962 6.45293 13.3243 5.22797C12.6866 4.00302 11.6455 3.03579 10.377 2.48977C9.10923 1.94229 7.69132 1.84926 6.36289 2.22642C5.03445 2.60358 3.87696 3.42779 3.086 4.55977L2.799 4.96977L1.979 4.39577L2.266 3.98577C2.95336 3.00548 3.88047 2.21768 4.95886 1.69757C6.03724 1.17746 7.23093 0.941381 8.426 1.01377Z" fill="url(#paint3_linear_10_19170)"/>
<defs>
<linearGradient id="paint0_linear_10_19170" x1="0.714111" y1="3.64814" x2="5.39511" y2="3.64814" gradientUnits="userSpaceOnUse">
<stop stop-color="#FDFC47"/>
<stop offset="1" stop-color="#24FE41"/>
</linearGradient>
<linearGradient id="paint1_linear_10_19170" x1="1.95508" y1="12.9852" x2="8.03308" y2="12.9852" gradientUnits="userSpaceOnUse">
<stop stop-color="#FDFC47"/>
<stop offset="1" stop-color="#24FE41"/>
</linearGradient>
<linearGradient id="paint2_linear_10_19170" x1="6" y1="8" x2="10" y2="8" gradientUnits="userSpaceOnUse">
<stop stop-color="#FDFC47"/>
<stop offset="1" stop-color="#24FE41"/>
</linearGradient>
<linearGradient id="paint3_linear_10_19170" x1="1.979" y1="8.00086" x2="15.0001" y2="8.00086" gradientUnits="userSpaceOnUse">
<stop stop-color="#FDFC47"/>
<stop offset="1" stop-color="#24FE41"/>
</linearGradient>
</defs>
</svg>
