<svg width="16" height="16" viewBox="0 0 16 16" fill="none" xmlns="http://www.w3.org/2000/svg">
<g clip-path="url(#clip0_10_19168)">
<path d="M9.41427 0.928911C8.6308 0.145441 7.36927 0.145441 6.58587 0.928911L5.17167 2.34311L5.87878 3.05022L7.29298 1.63602C7.68472 1.24428 8.31548 1.24428 8.70718 1.63602L10.1214 3.05022L10.8285 2.34311L9.41427 0.928911ZM13.6569 5.17151L12.9498 5.87862L14.364 7.29282C14.7557 7.68456 14.7557 8.31532 14.364 8.70702L12.9498 10.1212L13.6569 10.8283L15.0711 9.41413C15.8545 8.63066 15.8545 7.36913 15.0711 6.58573L13.6569 5.17151ZM2.34287 5.17151L0.928667 6.58571C0.145197 7.36918 0.145197 8.63071 0.928667 9.41411L2.34287 10.8283L3.04998 10.1212L1.63578 8.707C1.24404 8.31526 1.24404 7.6845 1.63578 7.2928L3.04998 5.8786L2.34287 5.17151ZM10.1211 12.9497L8.70687 14.3639C8.31513 14.7557 7.68437 14.7557 7.29267 14.3639L5.87847 12.9497L5.17136 13.6568L6.58556 15.071C7.36903 15.8545 8.63056 15.8545 9.41396 15.071L10.8282 13.6568L10.1211 12.9497Z" fill="url(#paint0_linear_10_19168)"/>
</g>
<defs>
<linearGradient id="paint0_linear_10_19168" x1="0.341064" y1="7.99997" x2="15.6587" y2="7.99997" gradientUnits="userSpaceOnUse">
<stop stop-color="#FDFC47"/>
<stop offset="1" stop-color="#24FE41"/>
</linearGradient>
<clipPath id="clip0_10_19168">
<rect width="16" height="16" fill="white"/>
</clipPath>
</defs>
</svg>
