<svg width="16" height="16" viewBox="0 0 16 16" fill="none" xmlns="http://www.w3.org/2000/svg">
<path d="M1 8V9H2V8H1ZM3 8V9H4V8H3ZM5 8V9H6V8H5ZM7 8V9H8V8H7ZM9 8V9H10V8H9ZM11 8V9H12V8H11ZM13 8V9H14V8H13ZM15 8V9H16V8H15Z" fill="url(#paint0_linear_10_19192)"/>
<path d="M10.7111 1.10337C10.5782 1.11148 10.4445 1.13393 10.3107 1.16977L2.58408 3.24007C1.51388 3.52684 0.88328 4.61907 1.16998 5.68927L1.52154 6.99977H2.55474L2.13482 5.42947C1.99143 4.89435 2.30673 4.34827 2.84185 4.20487L10.5704 2.13457C11.1055 1.99118 11.6516 2.30648 11.795 2.8416L12.9083 6.9998H13.9435L12.7599 2.5838C12.5089 1.64733 11.6411 1.04667 10.7111 1.10337ZM2.32437 9.99987L3.24039 13.4159C3.52716 14.4861 4.61939 15.1167 5.68959 14.83L13.4162 12.7597C14.4864 12.4729 15.117 11.3807 14.8303 10.3105L14.7463 9.99992H13.7131L13.8654 10.5702C14.0088 11.1053 13.6935 11.6514 13.1584 11.7948L5.42992 13.8651C4.8948 14.0085 4.34872 13.6932 4.20532 13.1581L3.35962 9.9999L2.32437 9.99987Z" fill="url(#paint1_linear_10_19192)"/>
<defs>
<linearGradient id="paint0_linear_10_19192" x1="1" y1="8.5" x2="16" y2="8.5" gradientUnits="userSpaceOnUse">
<stop stop-color="#FDFC47"/>
<stop offset="1" stop-color="#24FE41"/>
</linearGradient>
<linearGradient id="paint1_linear_10_19192" x1="1.10083" y1="7.99936" x2="14.8994" y2="7.99936" gradientUnits="userSpaceOnUse">
<stop stop-color="#FDFC47"/>
<stop offset="1" stop-color="#24FE41"/>
</linearGradient>
</defs>
</svg>
