<svg width="16" height="16" viewBox="0 0 16 16" fill="none" xmlns="http://www.w3.org/2000/svg">
<g clip-path="url(#clip0_10_19254)">
<path d="M10.1738 0.00186149C8.72753 -0.0386115 7.31532 0.444903 6.19733 1.36334C5.07935 2.28177 4.33089 3.57326 4.08984 4.99991H1C0.446 4.99991 0 5.44591 0 5.99991V14.9999C0 15.5539 0.446 15.9999 1 15.9999H10C10.554 15.9999 11 15.5539 11 14.9999V11.9159C12.3981 11.6796 13.6673 10.9558 14.5826 9.87285C15.4978 8.78991 16 7.41782 16 5.99991C16.0001 4.43861 15.3917 2.93875 14.3039 1.81881C13.216 0.698882 11.7345 0.0470945 10.1738 0.00186149ZM10.1465 1.00186C11.4467 1.03997 12.6808 1.58326 13.587 2.51643C14.4932 3.44959 15 4.69916 15 5.99991C14.999 7.32531 14.4717 8.59608 13.5342 9.53292C12.5966 10.4698 11.3254 10.996 10 10.996V14.4999C10 14.7769 9.777 14.9999 9.5 14.9999H1.5C1.223 14.9999 1 14.7769 1 14.4999V6.49991C1 6.22291 1.223 5.99991 1.5 5.99991H5C4.99997 5.33095 5.13419 4.66879 5.39469 4.05264C5.65519 3.4365 6.03668 2.87888 6.51657 2.41283C6.99647 1.94678 7.565 1.58177 8.18851 1.33941C8.81201 1.09704 9.47782 0.982263 10.1465 1.00186Z" fill="url(#paint0_linear_10_19254)"/>
<path opacity="0.25" d="M10.1465 1.00215C9.47782 0.982548 8.81201 1.09733 8.18851 1.33969C7.565 1.58205 6.99647 1.94707 6.51657 2.41312C6.03668 2.87917 5.65519 3.43678 5.39469 4.05293C5.13419 4.66908 4.99997 5.33124 5 6.00019H1.5C1.223 6.00019 1 6.22319 1 6.50019V14.5002C1 14.7772 1.223 15.0002 1.5 15.0002H9.5C9.777 15.0002 10 14.7772 10 14.5002V10.9963C11.3254 10.9963 12.5966 10.47 13.5342 9.5332C14.4717 8.59637 14.999 7.3256 15 6.00019C15 4.69944 14.4932 3.44987 13.587 2.51671C12.6808 1.58355 11.4467 1.04025 10.1465 1.00215Z" fill="url(#paint1_linear_10_19254)"/>
</g>
<defs>
<linearGradient id="paint0_linear_10_19254" x1="0" y1="7.99971" x2="16" y2="7.99971" gradientUnits="userSpaceOnUse">
<stop stop-color="#FDFC47"/>
<stop offset="1" stop-color="#24FE41"/>
</linearGradient>
<linearGradient id="paint1_linear_10_19254" x1="1" y1="8.0001" x2="15" y2="8.0001" gradientUnits="userSpaceOnUse">
<stop stop-color="#FDFC47"/>
<stop offset="1" stop-color="#24FE41"/>
</linearGradient>
<clipPath id="clip0_10_19254">
<rect width="16" height="16" fill="white"/>
</clipPath>
</defs>
</svg>
