<svg width="16" height="16" viewBox="0 0 16 16" fill="none" xmlns="http://www.w3.org/2000/svg">
<g clip-path="url(#clip0_10_19242)">
<path d="M10.174 0.00186216C8.72775 -0.0386165 7.31554 0.44489 6.19755 1.36332C5.07956 2.28174 4.3311 3.57322 4.09004 4.99986H1.00024C0.446244 4.99986 0.000244141 5.44586 0.000244141 5.99986V14.9999C0.000244141 15.5539 0.446244 15.9999 1.00024 15.9999H10.0002C10.5542 15.9999 11.0002 15.5539 11.0002 14.9999V11.912C12.3977 11.6758 13.6664 10.9525 14.5815 9.87039C15.4967 8.78826 15.9993 7.4171 16.0002 5.99986C16.0004 4.43857 15.3919 2.93871 14.3041 1.81879C13.2162 0.698865 11.7347 0.0470876 10.174 0.00186216ZM10.1447 1.00186C10.1454 1.00186 10.1461 1.00186 10.1467 1.00186C10.4803 1.01168 10.812 1.05487 11.137 1.13077C11.9527 1.32108 12.7076 1.71328 13.3323 2.27137C13.5809 2.49373 13.8066 2.7404 14.0061 3.0077C14.1061 3.14098 14.1993 3.27918 14.2854 3.42176C14.2854 3.42243 14.2854 3.4231 14.2854 3.42376C14.4571 3.70959 14.5997 4.01188 14.7112 4.3261C14.9023 4.86347 15 5.42957 15.0002 5.9999C15.0003 6.66886 14.8661 7.33103 14.6057 7.9472C14.5409 8.10046 14.4686 8.25038 14.3889 8.39642C14.3889 8.39709 14.3889 8.39776 14.3889 8.39842C14.3567 8.45243 14.3235 8.50583 14.2893 8.55858C14.1531 8.79141 13.9983 9.01284 13.8264 9.22069C13.3949 9.73303 12.8649 10.1535 12.2678 10.457C11.6716 10.7604 11.0206 10.9412 10.3533 10.9885C9.68601 11.0358 9.01601 10.9487 8.38298 10.7324C8.22639 10.6789 8.07256 10.6176 7.92204 10.5488C7.92138 10.5481 7.92071 10.5475 7.92004 10.5468C7.31236 10.2693 6.76644 9.87281 6.31454 9.38079C6.29147 9.35369 6.26868 9.32635 6.24618 9.29876C6.15818 9.19992 6.07413 9.09763 5.99423 8.99212C5.89507 8.86007 5.80251 8.72318 5.71689 8.58196C5.71623 8.58066 5.71556 8.57936 5.71489 8.57806C5.54324 8.29223 5.4006 7.98995 5.28911 7.67572C5.23377 7.51997 5.18619 7.36157 5.14653 7.20111C5.1239 7.10083 5.10436 6.99987 5.08794 6.89838C5.07433 6.83483 5.06196 6.77101 5.05083 6.70697C5.02704 6.54314 5.0114 6.37822 5.00396 6.21283C5.00396 6.21153 5.00396 6.21023 5.00396 6.20893C5.00124 6.13932 4.99998 6.06966 5.00016 6C5.00034 5.83367 5.00881 5.66744 5.02555 5.50195C5.02555 5.50129 5.02555 5.50062 5.02555 5.49995C5.04211 5.33476 5.06688 5.17049 5.09977 5.00776C5.09977 5.0071 5.09977 5.00643 5.09977 5.00576C5.13275 4.84301 5.17382 4.68201 5.22282 4.52334C5.22282 4.52271 5.22282 4.52208 5.22282 4.52144C5.27228 4.36243 5.32964 4.20598 5.3947 4.05269C5.52454 3.74513 5.68484 3.45135 5.87322 3.17574C5.96747 3.03863 6.06851 2.9063 6.17595 2.77926C6.49876 2.39608 6.87732 2.06359 7.29895 1.79293C7.57933 1.61265 7.87704 1.46085 8.18762 1.33981C8.8108 1.09746 9.47638 0.982505 10.1447 1.00186ZM1.50024 5.99986H4.00024C4.00128 7.59048 4.63388 9.11561 5.75898 10.24C6.88409 11.3644 8.40962 11.996 10.0002 11.996V14.4999C10.0002 14.7769 9.77724 14.9999 9.50024 14.9999H1.50024C1.22324 14.9999 1.00024 14.7769 1.00024 14.4999V6.49986C1.00024 6.22286 1.22324 5.99986 1.50024 5.99986Z" fill="url(#paint0_linear_10_19242)"/>
<path opacity="0.25" d="M1.5 6C1.223 6 1 6.223 1 6.5V14.5C1 14.777 1.223 15 1.5 15H9.5C9.777 15 10 14.777 10 14.5V11.9941C8.40972 11.9941 6.88449 11.3628 5.75944 10.2388C4.63439 9.11488 4.00156 7.59028 4 6H1.5Z" fill="url(#paint1_linear_10_19242)"/>
</g>
<defs>
<linearGradient id="paint0_linear_10_19242" x1="0.000244141" y1="7.99969" x2="16.0002" y2="7.99969" gradientUnits="userSpaceOnUse">
<stop stop-color="#FDFC47"/>
<stop offset="1" stop-color="#24FE41"/>
</linearGradient>
<linearGradient id="paint1_linear_10_19242" x1="1" y1="10.5" x2="10" y2="10.5" gradientUnits="userSpaceOnUse">
<stop stop-color="#FDFC47"/>
<stop offset="1" stop-color="#24FE41"/>
</linearGradient>
<clipPath id="clip0_10_19242">
<rect width="16" height="16" fill="white"/>
</clipPath>
</defs>
</svg>
