<svg width="16" height="16" viewBox="0 0 16 16" fill="none" xmlns="http://www.w3.org/2000/svg">
<path d="M9.5 1.5L15.97 6L9.5 10.5V9.457L14.47 6L9.5 2.543V1.5Z" fill="url(#paint0_linear_10_19261)"/>
<path d="M6 1.50293V4.00293H5C2 4.00293 0 6.12993 0 9.25293C0 12.5029 4 14.0029 4 14.0029C4 14.0029 2.125 11.3509 2.562 10.0029C2.928 8.87693 4.135 8.00293 5.5 8.00293H6V10.5029L12.469 6.00293L6 1.50293ZM7 3.40993L10.75 6.00293L7 8.59693V7.00293H5.5C3.709 7.00293 2.144 8.09393 1.625 9.69093C1.475 10.1509 1.535 10.5569 1.594 10.9719C1.243 10.4739 1 9.92493 1 9.25293C1 7.90493 1.414 6.87593 2.094 6.15993C2.774 5.44293 3.736 5.00293 5 5.00293H7V3.40993Z" fill="url(#paint1_linear_10_19261)"/>
<defs>
<linearGradient id="paint0_linear_10_19261" x1="9.5" y1="6" x2="15.97" y2="6" gradientUnits="userSpaceOnUse">
<stop stop-color="#FDFC47"/>
<stop offset="1" stop-color="#24FE41"/>
</linearGradient>
<linearGradient id="paint1_linear_10_19261" x1="0" y1="7.75293" x2="12.469" y2="7.75293" gradientUnits="userSpaceOnUse">
<stop stop-color="#FDFC47"/>
<stop offset="1" stop-color="#24FE41"/>
</linearGradient>
</defs>
</svg>
