<svg width="16" height="16" viewBox="0 0 16 16" fill="none" xmlns="http://www.w3.org/2000/svg">
<path d="M15 2.5C15 1.125 13.875 0 12.5 0C11.8376 0.00210955 11.2029 0.266179 10.7346 0.734563C10.2662 1.20295 10.0021 1.83761 10 2.5C10 3.875 11.125 5 12.5 5C13.875 5 15 3.875 15 2.5ZM15 12.5C15 11.125 13.875 10 12.5 10C11.8376 10.0021 11.2029 10.2662 10.7346 10.7346C10.2662 11.2029 10.0021 11.8376 10 12.5C10 13.875 11.125 15 12.5 15C13.875 15 15 13.875 15 12.5ZM14 2.5C14 3.334 13.334 4 12.5 4C11.666 4 11 3.334 11 2.5C11 1.666 11.666 1 12.5 1C13.334 1 14 1.666 14 2.5ZM14 12.5C14 13.334 13.334 14 12.5 14C11.666 14 11 13.334 11 12.5C11 11.666 11.666 11 12.5 11C13.334 11 14 11.666 14 12.5ZM9.734 4.61C9.5283 4.34457 9.36192 4.05089 9.24 3.738L5.387 5.881C5.15484 5.60649 4.86592 5.38557 4.54015 5.23348C4.21439 5.08138 3.85952 5.00173 3.5 5C2.83761 5.00211 2.20295 5.26618 1.73456 5.73456C1.26618 6.20295 1.00211 6.83761 1 7.5C1 8.875 2.125 10 3.5 10C4.255 10 4.927 9.653 5.387 9.12L9.24 11.262C9.362 10.946 9.53 10.656 9.734 10.391L5.874 8.246C5.947 8.01 6 7.761 6 7.5C6 7.239 5.948 6.991 5.873 6.754L9.734 4.61ZM5 7.5C5 8.334 4.334 9 3.5 9C2.666 9 2 8.334 2 7.5C2 6.666 2.666 6 3.5 6C4.334 6 5 6.666 5 7.5Z" fill="url(#paint0_linear_10_19300)"/>
<defs>
<linearGradient id="paint0_linear_10_19300" x1="1" y1="7.5" x2="15" y2="7.5" gradientUnits="userSpaceOnUse">
<stop stop-color="#FDFC47"/>
<stop offset="1" stop-color="#24FE41"/>
</linearGradient>
</defs>
</svg>
