<svg width="16" height="16" viewBox="0 0 16 16" fill="none" xmlns="http://www.w3.org/2000/svg">
<path d="M9 0H6C5.44772 0 5 0.447715 5 1C5 1.55228 5.44772 2 6 2H9C9.55228 2 10 1.55228 10 1C10 0.447715 9.55228 0 9 0Z" fill="url(#paint0_linear_10_19312)"/>
<path d="M11.53 3.0002C11.4948 2.99963 11.4597 3.00031 11.4245 3.00221C11.1992 3.01404 10.9794 3.07652 10.7816 3.18507C10.5837 3.29362 10.413 3.44544 10.2819 3.62916C9.31145 3.16799 8.24178 2.9546 7.16863 3.00807C5.44707 3.09595 3.83092 3.86403 2.67568 5.14344C1.52044 6.42286 0.920713 8.10877 1.00843 9.83033C1.0517 10.6829 1.2625 11.5187 1.62879 12.2898C1.99508 13.0609 2.50968 13.7523 3.1432 14.3245C3.77673 14.8968 4.51677 15.3386 5.32106 15.6248C6.12535 15.911 6.97814 16.0359 7.83072 15.9924C9.55225 15.905 11.1686 15.1374 12.3242 13.8584C13.4798 12.5794 14.08 10.8937 13.9928 9.17213V9.16816C13.9216 7.83366 13.4408 6.55354 12.6158 5.50215C12.8808 5.20747 13.0185 4.81991 12.9986 4.42408C12.9794 4.04495 12.8172 3.68715 12.5446 3.42292C12.272 3.1587 11.9095 3.0076 11.53 3.0002ZM7.7702 4.00612C9.13204 4.07309 10.4205 4.64348 11.3855 5.6067C12.3505 6.56992 12.9234 7.8573 12.9929 9.21901V9.22297C13.0662 10.6792 12.5583 12.105 11.5808 13.1869C10.6033 14.2688 9.23619 14.9182 7.78 14.9925C6.32342 15.0664 4.89714 14.5587 3.81482 13.5811C2.73249 12.6036 2.08276 11.2362 2.0085 9.77961C1.9346 8.32337 2.442 6.89734 3.41914 5.81508C4.39629 4.73281 5.7632 4.08284 7.2194 4.00807C7.40284 3.9982 7.58669 3.99758 7.7702 4.00612Z" fill="url(#paint1_linear_10_19312)"/>
<path d="M7.3 5H7.8L8 10H7L7.3 5Z" fill="url(#paint2_linear_10_19312)"/>
<path d="M8.4999 9.44991C8.51332 9.71476 8.42098 9.97408 8.2432 10.1709C8.06543 10.3676 7.81677 10.4858 7.55192 10.4992C7.28708 10.5127 7.02775 10.4203 6.83096 10.2426C6.63416 10.0648 6.51602 9.81625 6.50252 9.55141C6.48902 9.28657 6.58128 9.02718 6.75899 8.83034C6.9367 8.63351 7.18531 8.51533 7.45016 8.50179C7.71499 8.48826 7.97436 8.58046 8.17121 8.75814C8.36806 8.93582 8.48632 9.18508 8.4999 9.44991Z" fill="url(#paint3_linear_10_19312)"/>
<defs>
<linearGradient id="paint0_linear_10_19312" x1="5" y1="1" x2="10" y2="1" gradientUnits="userSpaceOnUse">
<stop stop-color="#FDFC47"/>
<stop offset="1" stop-color="#24FE41"/>
</linearGradient>
<linearGradient id="paint1_linear_10_19312" x1="1" y1="9.50043" x2="14.0011" y2="9.50043" gradientUnits="userSpaceOnUse">
<stop stop-color="#FDFC47"/>
<stop offset="1" stop-color="#24FE41"/>
</linearGradient>
<linearGradient id="paint2_linear_10_19312" x1="7" y1="7.5" x2="8" y2="7.5" gradientUnits="userSpaceOnUse">
<stop stop-color="#FDFC47"/>
<stop offset="1" stop-color="#24FE41"/>
</linearGradient>
<linearGradient id="paint3_linear_10_19312" x1="6.50122" y1="9.5005" x2="8.50118" y2="9.5005" gradientUnits="userSpaceOnUse">
<stop stop-color="#FDFC47"/>
<stop offset="1" stop-color="#24FE41"/>
</linearGradient>
</defs>
</svg>
