<svg width="17" height="16" viewBox="0 0 17 16" fill="none" xmlns="http://www.w3.org/2000/svg">
<path d="M7.94486 0.500053C5.96557 0.514991 4.07242 1.31176 2.67812 2.71666C1.28381 4.12157 0.501408 6.0207 0.501465 8.00005C0.501465 9.98918 1.29164 11.8968 2.69816 13.3034C4.10469 14.7099 6.01234 15.5001 8.00146 15.5001C8.98638 15.5001 9.96165 15.3061 10.8716 14.9292C11.7815 14.5522 12.6083 13.9998 13.3048 13.3034C14.0012 12.6069 14.5537 11.7801 14.9306 10.8702C15.3075 9.96024 15.5015 8.98497 15.5015 8.00005C15.5015 7.01514 15.3075 6.03987 14.9306 5.12993C14.5537 4.21999 14.0012 3.39319 13.3048 2.69675C12.6083 2.00031 11.7815 1.44787 10.8716 1.07096C9.96165 0.694047 8.98638 0.500053 8.00146 0.500053C7.98258 0.499982 7.96375 0.499982 7.94486 0.500053ZM7.94781 1.50005C7.96571 1.49998 7.98361 1.49998 8.00151 1.50005C8.8551 1.50005 9.70033 1.66818 10.4889 1.99484C11.2776 2.32149 11.9941 2.80028 12.5977 3.40386C13.2013 4.00744 13.6801 4.72399 14.0067 5.51261C14.3334 6.30123 14.5015 7.14646 14.5015 8.00005C14.5015 8.85365 14.3334 9.69888 14.0067 10.4875C13.6801 11.2761 13.2013 11.9927 12.5977 12.5962C11.9941 13.1998 11.2776 13.6786 10.4889 14.0053C9.70033 14.3319 8.8551 14.5001 8.00151 14.5001C6.2776 14.5001 4.6243 13.8152 3.40531 12.5962C2.18633 11.3773 1.50151 9.72396 1.50151 8.00005C1.50145 6.28541 2.17889 4.6402 3.38629 3.42274C4.59368 2.20529 6.23323 1.51422 7.94781 1.50005Z" fill="url(#paint0_linear_10_19338)"/>
<path d="M11.0015 6H5.00146C4.72532 6 4.50146 6.22386 4.50146 6.5C4.50146 6.77614 4.72532 7 5.00146 7H11.0015C11.2776 7 11.5015 6.77614 11.5015 6.5C11.5015 6.22386 11.2776 6 11.0015 6Z" fill="url(#paint1_linear_10_19338)"/>
<path d="M11.3545 6.14626L9.23319 4.02494C9.03793 3.82968 8.72135 3.82968 8.52609 4.02494C8.33082 4.2202 8.33082 4.53678 8.52609 4.73205L10.6474 6.85337C10.8427 7.04863 11.1593 7.04863 11.3545 6.85337C11.5498 6.65811 11.5498 6.34152 11.3545 6.14626Z" fill="url(#paint2_linear_10_19338)"/>
<path d="M5.00195 10H11.002C11.2781 10 11.502 9.77614 11.502 9.5C11.502 9.22386 11.2781 9 11.002 9H5.00195C4.72581 9 4.50195 9.22386 4.50195 9.5C4.50195 9.77614 4.72581 10 5.00195 10Z" fill="url(#paint3_linear_10_19338)"/>
<path d="M4.64866 9.85423L6.76998 11.9755C6.96524 12.1708 7.28183 12.1708 7.47709 11.9755C7.67235 11.7803 7.67235 11.4637 7.47709 11.2684L5.35577 9.14712C5.16051 8.95186 4.84392 8.95186 4.64866 9.14712C4.4534 9.34238 4.4534 9.65897 4.64866 9.85423Z" fill="url(#paint4_linear_10_19338)"/>
<defs>
<linearGradient id="paint0_linear_10_19338" x1="0.501465" y1="8.00003" x2="15.5015" y2="8.00003" gradientUnits="userSpaceOnUse">
<stop stop-color="#FDFC47"/>
<stop offset="1" stop-color="#24FE41"/>
</linearGradient>
<linearGradient id="paint1_linear_10_19338" x1="4.50146" y1="6.5" x2="11.5015" y2="6.5" gradientUnits="userSpaceOnUse">
<stop stop-color="#FDFC47"/>
<stop offset="1" stop-color="#24FE41"/>
</linearGradient>
<linearGradient id="paint2_linear_10_19338" x1="8.52609" y1="4.02494" x2="11.3545" y2="6.85337" gradientUnits="userSpaceOnUse">
<stop stop-color="#FDFC47"/>
<stop offset="1" stop-color="#24FE41"/>
</linearGradient>
<linearGradient id="paint3_linear_10_19338" x1="11.502" y1="9.5" x2="4.50195" y2="9.5" gradientUnits="userSpaceOnUse">
<stop stop-color="#FDFC47"/>
<stop offset="1" stop-color="#24FE41"/>
</linearGradient>
<linearGradient id="paint4_linear_10_19338" x1="7.47709" y1="11.9755" x2="4.64866" y2="9.14712" gradientUnits="userSpaceOnUse">
<stop stop-color="#FDFC47"/>
<stop offset="1" stop-color="#24FE41"/>
</linearGradient>
</defs>
</svg>
