<svg width="16" height="16" viewBox="0 0 16 16" fill="none" xmlns="http://www.w3.org/2000/svg">
<path d="M3.05025 3.05007C2.40024 3.70008 1.88463 4.47175 1.53284 5.32103C1.18106 6.17031 1 7.08057 1 7.99982C1 8.91907 1.18106 9.82933 1.53284 10.6786C1.88463 11.5279 2.40024 12.2996 3.05025 12.9496C3.70026 13.5996 4.47194 14.1152 5.32122 14.467C6.1705 14.8188 7.08075 14.9998 8 14.9998C8.91926 14.9998 9.82951 14.8188 10.6788 14.467C11.5281 14.1152 12.2997 13.5996 12.9498 12.9496C13.5485 12.3447 14.032 11.6356 14.3764 10.8573C14.3805 10.8559 14.3846 10.8545 14.3888 10.8532C14.4067 10.8092 14.4242 10.765 14.4413 10.7206C14.4741 10.6402 14.5054 10.5591 14.5352 10.4775C14.5934 10.327 14.6463 10.1746 14.694 10.0204C14.7124 9.95619 14.7299 9.89174 14.7465 9.82704C14.7818 9.70914 14.8141 9.59032 14.8431 9.47072C14.8408 9.4721 14.8385 9.47348 14.8362 9.47486C14.8344 9.47578 14.8326 9.4767 14.8307 9.47762C14.4512 9.72478 14.0449 9.92818 13.6195 10.0839C13.6191 10.0844 13.6186 10.0848 13.6181 10.0853C12.5424 10.4844 11.3747 10.5667 10.2536 10.3224C9.13255 10.0781 8.10501 9.51742 7.29285 8.70691C6.46229 7.87276 5.89544 6.81274 5.66288 5.65881C5.43032 4.50489 5.54232 3.30805 5.98495 2.21731C6.02226 2.12519 6.06187 2.03401 6.10371 1.94386C6.15066 1.84306 6.2004 1.74358 6.25288 1.64555C6.29654 1.56301 6.34213 1.48151 6.38961 1.4011C6.43608 1.32034 6.48443 1.24068 6.53462 1.16218C6.53599 1.15988 6.53738 1.15757 6.53876 1.15527C5.2174 1.43698 4.0059 2.09504 3.05025 3.05007ZM3.75737 3.75718C4.04553 3.47082 4.36204 3.21447 4.70202 2.99207C4.45478 4.13467 4.49765 5.321 4.82671 6.44279C5.15576 7.56457 5.76053 8.58607 6.58581 9.41407C7.41186 10.2386 8.43096 10.8434 9.55038 11.1736C10.6698 11.5039 11.854 11.5489 12.9953 11.3048C12.7765 11.6418 12.5243 11.9559 12.2426 12.2425C11.6855 12.7997 11.024 13.2416 10.2961 13.5432C9.56814 13.8447 8.78792 13.9999 7.99998 13.9999C7.21205 13.9999 6.43183 13.8447 5.70388 13.5432C4.97592 13.2416 4.31449 12.7997 3.75734 12.2425C3.20018 11.6854 2.75822 11.0239 2.45669 10.296C2.15516 9.56801 1.99997 8.78779 1.99997 7.99986C1.99997 7.21193 2.15516 6.43171 2.45669 5.70375C2.75822 4.9758 3.20021 4.31433 3.75737 3.75718Z" fill="url(#paint0_linear_10_19318)"/>
<defs>
<linearGradient id="paint0_linear_10_19318" x1="1" y1="8.07755" x2="14.8431" y2="8.07755" gradientUnits="userSpaceOnUse">
<stop stop-color="#FDFC47"/>
<stop offset="1" stop-color="#24FE41"/>
</linearGradient>
</defs>
</svg>
