<svg width="16" height="16" viewBox="0 0 16 16" fill="none" xmlns="http://www.w3.org/2000/svg">
<path d="M14 1V8L7 15L0 8L7 1H14ZM13 2H7.438L1.438 8L7 13.563L13 7.563V4V2ZM11 3C10.7348 3 10.4804 3.10536 10.2929 3.29289C10.1054 3.48043 10 3.73478 10 4C10 4.26522 10.1054 4.51957 10.2929 4.70711C10.4804 4.89464 10.7348 5 11 5C11.2652 5 11.5196 4.89464 11.7071 4.70711C11.8946 4.51957 12 4.26522 12 4C12 3.73478 11.8946 3.48043 11.7071 3.29289C11.5196 3.10536 11.2652 3 11 3Z" fill="url(#paint0_linear_10_19351)"/>
<path d="M14.1169 3.98807C13.8157 3.64437 13.4264 3.38952 12.9909 3.25107C12.4069 3.06407 11.7429 3.13307 11.1419 3.55307C11.0356 3.63162 10.9632 3.74772 10.9394 3.87774C10.9156 4.00777 10.9422 4.14197 11.0139 4.25307C11.0937 4.35863 11.2107 4.42981 11.3411 4.45211C11.4715 4.4744 11.6056 4.44614 11.7159 4.37307C12.0839 4.11507 12.3909 4.10907 12.7089 4.21107C13.0279 4.31307 13.3359 4.58307 13.5489 4.92107C13.7619 5.25807 13.8729 5.65107 13.8259 6.02407C13.7789 6.39607 13.6159 6.74307 13.1729 7.05307C11.3999 8.29507 11.1379 10.2651 12.0529 11.5001C12.5629 12.1891 13.4109 12.6101 14.4179 12.5901L14.9149 11.5561C13.9489 11.7731 13.2409 11.4241 12.8539 10.9011C12.2819 10.1281 12.3219 8.86907 13.7469 7.87107C14.0375 7.67257 14.2831 7.41501 14.4675 7.11519C14.6518 6.81536 14.7709 6.48003 14.8169 6.13107C14.8969 5.49407 14.7099 4.88607 14.3869 4.37207C14.3049 4.24407 14.2169 4.10207 14.1169 3.98807ZM15.7309 11.2511C15.6499 11.2911 15.5689 11.3111 15.4909 11.3431L14.9459 12.5261C15.0119 12.5161 15.0859 12.5101 15.1529 12.4961L15.7309 11.2511ZM15.3189 11.4251C15.2329 11.4571 15.1429 11.4691 15.0609 11.4921L14.5559 12.5701C14.6329 12.5661 14.7039 12.5741 14.7819 12.5651L15.3189 11.4251Z" fill="url(#paint1_linear_10_19351)"/>
<defs>
<linearGradient id="paint0_linear_10_19351" x1="0" y1="8" x2="14" y2="8" gradientUnits="userSpaceOnUse">
<stop stop-color="#FDFC47"/>
<stop offset="1" stop-color="#24FE41"/>
</linearGradient>
<linearGradient id="paint1_linear_10_19351" x1="10.9309" y1="7.87179" x2="15.7309" y2="7.87179" gradientUnits="userSpaceOnUse">
<stop stop-color="#FDFC47"/>
<stop offset="1" stop-color="#24FE41"/>
</linearGradient>
</defs>
</svg>
