<svg width="17" height="16" viewBox="0 0 17 16" fill="none" xmlns="http://www.w3.org/2000/svg">
<path d="M4.30402 2L1.44702 10H2.72601L3.33099 8.285H6.513L7.12 10H8.46399L5.44702 2H4.30402ZM4.914 3.871L6.12 7.143H3.72601L4.914 3.871ZM10.005 5V6H12.505C12.719 6 13.005 6.307 13.005 6.5V7H10.505C10.045 7 9.637 7.192 9.38 7.484C9.1336 7.7646 8.99998 8.1266 9.005 8.5C9.008 8.86 9.14002 9.226 9.39502 9.516C9.65202 9.805 10.051 10 10.505 10H14.005V9.578C14.013 9.531 14.005 9.5 14.005 9.5V6.5C14.005 6.10218 13.847 5.72064 13.5657 5.43934C13.2844 5.15803 12.9028 5 12.505 5H10.005ZM10.505 8H13.005V9H10.505C10.306 9 10.222 8.945 10.145 8.86C10.058 8.75986 10.0085 8.6326 10.005 8.5C10.0033 8.36908 10.0475 8.2417 10.13 8.14C10.203 8.058 10.294 8 10.505 8Z" fill="url(#paint0_linear_10_19362)"/>
<path d="M2.505 10.793L0.151001 13.146C0.104513 13.1925 0.0676396 13.2476 0.0424805 13.3084C0.0173214 13.3691 0.00439454 13.4342 0.00439453 13.5C0.00439452 13.5657 0.0173214 13.6308 0.0424805 13.6916C0.0676396 13.7523 0.104513 13.8075 0.151001 13.854C0.197489 13.9005 0.252676 13.9373 0.313416 13.9625C0.374155 13.9877 0.439261 14.0006 0.505005 14.0006C0.570749 14.0006 0.635855 13.9877 0.696594 13.9625C0.757334 13.9373 0.812521 13.9005 0.859009 13.854L2.505 12.207L4.505 14.207L6.505 12.207L8.505 14.207L10.505 12.207L12.505 14.207L14.859 11.854C14.9055 11.8075 14.9424 11.7523 14.9675 11.6916C14.9927 11.6308 15.0056 11.5657 15.0056 11.5C15.0056 11.4342 14.9927 11.3691 14.9675 11.3084C14.9424 11.2476 14.9055 11.1925 14.859 11.146C14.8125 11.0995 14.7573 11.0626 14.6966 11.0374C14.6359 11.0123 14.5707 10.9993 14.505 10.9993C14.4393 10.9993 14.3742 11.0123 14.3134 11.0374C14.2527 11.0626 14.1975 11.0995 14.151 11.146L12.505 12.793L10.505 10.793L8.505 12.793L6.505 10.793L4.505 12.793L2.505 10.793Z" fill="url(#paint1_linear_10_19362)"/>
<defs>
<linearGradient id="paint0_linear_10_19362" x1="1.44702" y1="6" x2="14.0086" y2="6" gradientUnits="userSpaceOnUse">
<stop stop-color="#FDFC47"/>
<stop offset="1" stop-color="#24FE41"/>
</linearGradient>
<linearGradient id="paint1_linear_10_19362" x1="0.00439453" y1="12.5" x2="15.0056" y2="12.5" gradientUnits="userSpaceOnUse">
<stop stop-color="#FDFC47"/>
<stop offset="1" stop-color="#24FE41"/>
</linearGradient>
</defs>
</svg>
