<svg width="16" height="16" viewBox="0 0 16 16" fill="none" xmlns="http://www.w3.org/2000/svg">
<path d="M2 1C0.892 1 0 1.892 0 3V12C0 13.108 0.892 14 2 14H14C15.108 14 16 13.108 16 12V3C16 1.892 15.108 1 14 1H2ZM2 2H14C14.554 2 15 2.446 15 3V12L10 7L6.5206 11L4 9L1 12V3C1 2.446 1.446 2 2 2ZM4.5 4C3.67157 4 3 4.67157 3 5.5C3 6.32843 3.67157 7 4.5 7C5.32843 7 6 6.32843 6 5.5C6 4.67157 5.32843 4 4.5 4Z" fill="url(#paint0_linear_10_19445)"/>
<defs>
<linearGradient id="paint0_linear_10_19445" x1="0" y1="7.5" x2="16" y2="7.5" gradientUnits="userSpaceOnUse">
<stop stop-color="#FDFC47"/>
<stop offset="1" stop-color="#24FE41"/>
</linearGradient>
</defs>
</svg>
