<svg width="16" height="16" viewBox="0 0 16 16" fill="none" xmlns="http://www.w3.org/2000/svg">
<g clip-path="url(#clip0_10_19400)">
<path d="M7.99779 2.03906C4.22807 2.04364 0.927843 4.40585 -0.00983618 7.76954C-0.0536874 7.92649 -0.0536874 8.09111 -0.00983618 8.24806C0.370915 9.59935 1.13734 10.7842 2.15812 11.7226L2.86904 11.0117C1.99272 10.1963 1.32947 9.17741 0.999982 8.00782C1.82081 5.06343 4.7 3.00404 7.99983 3.00004C8.86314 3.00057 9.69379 3.14906 10.4705 3.4102L11.2302 2.65043C10.2302 2.25814 9.13647 2.0398 7.9998 2.0391C7.99915 2.0391 7.99844 2.03906 7.99779 2.03906ZM13.8434 4.27925L13.1324 4.99019C14.0077 5.80531 14.6703 6.82338 14.9996 7.99218C14.1788 10.9366 11.2996 12.996 7.99975 13C7.13734 12.9994 6.30699 12.8524 5.531 12.5918L4.77321 13.3496C5.77229 13.7413 6.86436 13.9602 7.99974 13.9609C8.00039 13.9609 8.00104 13.9609 8.00169 13.9609C11.7714 13.9563 15.0716 11.5941 16.0093 8.23042C16.0535 8.07285 16.0535 7.90752 16.0093 7.74995C15.6289 6.39995 14.8625 5.21685 13.8434 4.27925ZM7.99969 4.99995C7.20406 4.99995 6.44101 5.31602 5.87841 5.87863C5.31582 6.44123 4.99975 7.20429 4.99975 7.99994C5.00091 8.2619 5.03636 8.52258 5.10522 8.77533L6.00559 7.87494C6.03646 7.38935 6.24329 6.93166 6.58734 6.5876C6.93139 6.24354 7.38907 6.03671 7.87465 6.00585L8.77697 5.10351C8.52351 5.03514 8.26221 5.0003 7.99969 4.99995ZM10.8941 7.22844L9.99375 8.12883C9.96208 8.6131 9.7554 9.06934 9.41225 9.4125C9.06909 9.75567 8.61286 9.96235 8.1286 9.99402L7.22628 10.8964C7.47848 10.9644 7.73848 10.9992 7.9997 10.9999C8.79533 10.9999 9.55838 10.6838 10.121 10.1212C10.6836 9.55859 10.9996 8.79553 10.9996 7.99989C10.9981 7.73924 10.9626 7.47993 10.8941 7.22844Z" fill="url(#paint0_linear_10_19400)"/>
<path d="M13.3035 1.99L1.98975 13.3037L2.69685 14.0108L14.0106 2.69711L13.3035 1.99Z" fill="url(#paint1_linear_10_19400)"/>
</g>
<defs>
<linearGradient id="paint0_linear_10_19400" x1="-0.0427246" y1="7.99998" x2="16.0425" y2="7.99998" gradientUnits="userSpaceOnUse">
<stop stop-color="#FDFC47"/>
<stop offset="1" stop-color="#24FE41"/>
</linearGradient>
<linearGradient id="paint1_linear_10_19400" x1="2.3433" y1="13.6573" x2="13.657" y2="2.34356" gradientUnits="userSpaceOnUse">
<stop stop-color="#FDFC47"/>
<stop offset="1" stop-color="#24FE41"/>
</linearGradient>
<clipPath id="clip0_10_19400">
<rect width="16" height="16" fill="white"/>
</clipPath>
</defs>
</svg>
