<svg width="16" height="16" viewBox="0 0 16 16" fill="none" xmlns="http://www.w3.org/2000/svg">
<path d="M5.99902 13.9878L5.99902 1.98779H4.99902L4.99902 13.9878H5.99902Z" fill="url(#paint0_linear_10_19426)"/>
<path d="M14.9998 2.98779C14.9998 1.87979 14.1078 0.987793 12.9998 0.987793L2.99976 0.987793C1.89176 0.987793 0.999756 1.87979 0.999756 2.98779V12.9878C0.999756 14.0958 1.89176 14.9878 2.99976 14.9878H12.9998C14.1078 14.9878 14.9998 14.0958 14.9998 12.9878V2.98779ZM13.9998 2.98779V12.9878C13.9998 13.5418 13.5538 13.9878 12.9998 13.9878H2.99976C2.44576 13.9878 1.99976 13.5418 1.99976 12.9878V2.98779C1.99976 2.43379 2.44576 1.98779 2.99976 1.98779L12.9998 1.98779C13.5538 1.98779 13.9998 2.43379 13.9998 2.98779Z" fill="url(#paint1_linear_10_19426)"/>
<defs>
<linearGradient id="paint0_linear_10_19426" x1="5.49902" y1="1.98779" x2="5.49902" y2="13.9878" gradientUnits="userSpaceOnUse">
<stop stop-color="#FDFC47"/>
<stop offset="1" stop-color="#24FE41"/>
</linearGradient>
<linearGradient id="paint1_linear_10_19426" x1="7.99976" y1="0.987793" x2="7.99976" y2="14.9878" gradientUnits="userSpaceOnUse">
<stop stop-color="#FDFC47"/>
<stop offset="1" stop-color="#24FE41"/>
</linearGradient>
</defs>
</svg>
