<svg width="16" height="16" viewBox="0 0 16 16" fill="none" xmlns="http://www.w3.org/2000/svg">
<path d="M8 3C6.4087 3 4.88258 3.63214 3.75736 4.75736C2.63214 5.88258 2 7.4087 2 9C2 10.5913 2.63214 12.1174 3.75736 13.2426C4.88258 14.3679 6.4087 15 8 15C9.5913 15 11.1174 14.3679 12.2426 13.2426C13.3679 12.1174 14 10.5913 14 9H13C13 9.65661 12.8707 10.3068 12.6194 10.9134C12.3681 11.52 11.9998 12.0712 11.5355 12.5355C11.0712 12.9998 10.52 13.3681 9.91342 13.6194C9.30679 13.8707 8.65661 14 8 14C6.67392 14 5.40215 13.4732 4.46447 12.5355C3.52678 11.5979 3 10.3261 3 9C3 7.67392 3.52678 6.40215 4.46447 5.46447C5.40215 4.52678 6.67392 4 8 4V3Z" fill="url(#paint0_linear_10_19485)"/>
<path d="M8.17187 0.671875L7.46484 1.3789L9.58594 3.50001L7.46484 5.62111L8.17187 6.32813L11 3.50004L10.2929 2.793L8.17187 0.671875Z" fill="url(#paint1_linear_10_19485)"/>
<path d="M10 3H8V4H10V3Z" fill="url(#paint2_linear_10_19485)"/>
<defs>
<linearGradient id="paint0_linear_10_19485" x1="2" y1="9" x2="14" y2="9" gradientUnits="userSpaceOnUse">
<stop stop-color="#FDFC47"/>
<stop offset="1" stop-color="#24FE41"/>
</linearGradient>
<linearGradient id="paint1_linear_10_19485" x1="7.46484" y1="3.5" x2="11" y2="3.5" gradientUnits="userSpaceOnUse">
<stop stop-color="#FDFC47"/>
<stop offset="1" stop-color="#24FE41"/>
</linearGradient>
<linearGradient id="paint2_linear_10_19485" x1="8" y1="3.5" x2="10" y2="3.5" gradientUnits="userSpaceOnUse">
<stop stop-color="#FDFC47"/>
<stop offset="1" stop-color="#24FE41"/>
</linearGradient>
</defs>
</svg>
