<svg width="16" height="16" viewBox="0 0 16 16" fill="none" xmlns="http://www.w3.org/2000/svg">
<path d="M2 2C1.446 2 1 2.446 1 3V7C1 7.554 1.446 8 2 8H4C4.554 8 5 7.554 5 7V3C5 2.446 4.554 2 4 2H2ZM2 3H4V7H2V3Z" fill="url(#paint0_linear_10_19392)"/>
<path d="M7 2C6.446 2 6 2.446 6 3V7C6 7.554 6.446 8 7 8H9C9.554 8 10 7.554 10 7V3C10 2.446 9.554 2 9 2H7ZM7 3H9V7H7V3Z" fill="url(#paint1_linear_10_19392)"/>
<path d="M12 2C11.446 2 11 2.446 11 3V7C11 7.554 11.446 8 12 8H14C14.554 8 15 7.554 15 7V3C15 2.446 14.554 2 14 2H12ZM12 3H14V7H12V3Z" fill="url(#paint2_linear_10_19392)"/>
<path d="M2 9C1.446 9 1 9.446 1 10V14C1 14.554 1.446 15 2 15H4C4.554 15 5 14.554 5 14V10C5 9.446 4.554 9 4 9H2ZM2 10H4V14H2V10Z" fill="url(#paint3_linear_10_19392)"/>
<path d="M7 9C6.446 9 6 9.446 6 10V14C6 14.554 6.446 15 7 15H9C9.554 15 10 14.554 10 14V10C10 9.446 9.554 9 9 9H7ZM7 10H9V14H7V10Z" fill="url(#paint4_linear_10_19392)"/>
<path d="M12 9C11.446 9 11 9.446 11 10V14C11 14.554 11.446 15 12 15H14C14.554 15 15 14.554 15 14V10C15 9.446 14.554 9 14 9H12ZM12 10H14V14H12V10Z" fill="url(#paint5_linear_10_19392)"/>
<defs>
<linearGradient id="paint0_linear_10_19392" x1="1" y1="5" x2="5" y2="5" gradientUnits="userSpaceOnUse">
<stop stop-color="#FDFC47"/>
<stop offset="1" stop-color="#24FE41"/>
</linearGradient>
<linearGradient id="paint1_linear_10_19392" x1="6" y1="5" x2="10" y2="5" gradientUnits="userSpaceOnUse">
<stop stop-color="#FDFC47"/>
<stop offset="1" stop-color="#24FE41"/>
</linearGradient>
<linearGradient id="paint2_linear_10_19392" x1="11" y1="5" x2="15" y2="5" gradientUnits="userSpaceOnUse">
<stop stop-color="#FDFC47"/>
<stop offset="1" stop-color="#24FE41"/>
</linearGradient>
<linearGradient id="paint3_linear_10_19392" x1="1" y1="12" x2="5" y2="12" gradientUnits="userSpaceOnUse">
<stop stop-color="#FDFC47"/>
<stop offset="1" stop-color="#24FE41"/>
</linearGradient>
<linearGradient id="paint4_linear_10_19392" x1="6" y1="12" x2="10" y2="12" gradientUnits="userSpaceOnUse">
<stop stop-color="#FDFC47"/>
<stop offset="1" stop-color="#24FE41"/>
</linearGradient>
<linearGradient id="paint5_linear_10_19392" x1="11" y1="12" x2="15" y2="12" gradientUnits="userSpaceOnUse">
<stop stop-color="#FDFC47"/>
<stop offset="1" stop-color="#24FE41"/>
</linearGradient>
</defs>
</svg>
