<svg width="16" height="16" viewBox="0 0 16 16" fill="none" xmlns="http://www.w3.org/2000/svg">
<path d="M3.25 3H4.75C4.8163 3 4.87989 3.02634 4.92678 3.07322C4.97366 3.12011 5 3.1837 5 3.25V4.75C5 4.8163 4.97366 4.87989 4.92678 4.92678C4.87989 4.97366 4.8163 5 4.75 5H3.25C3.1837 5 3.12011 4.97366 3.07322 4.92678C3.02634 4.87989 3 4.8163 3 4.75V3.25C3 3.1837 3.02634 3.12011 3.07322 3.07322C3.12011 3.02634 3.1837 3 3.25 3ZM7.25 3H8.75C8.8163 3 8.87989 3.02634 8.92678 3.07322C8.97366 3.12011 9 3.1837 9 3.25V4.75C9 4.8163 8.97366 4.87989 8.92678 4.92678C8.87989 4.97366 8.8163 5 8.75 5H7.25C7.1837 5 7.12011 4.97366 7.07322 4.92678C7.02634 4.87989 7 4.8163 7 4.75V3.25C7 3.1837 7.02634 3.12011 7.07322 3.07322C7.12011 3.02634 7.1837 3 7.25 3ZM11.25 3H12.75C12.8163 3 12.8799 3.02634 12.9268 3.07322C12.9737 3.12011 13 3.1837 13 3.25V4.75C13 4.8163 12.9737 4.87989 12.9268 4.92678C12.8799 4.97366 12.8163 5 12.75 5H11.25C11.1837 5 11.1201 4.97366 11.0732 4.92678C11.0263 4.87989 11 4.8163 11 4.75V3.25C11 3.1837 11.0263 3.12011 11.0732 3.07322C11.1201 3.02634 11.1837 3 11.25 3ZM11.25 7H12.75C12.8163 7 12.8799 7.02634 12.9268 7.07322C12.9737 7.12011 13 7.1837 13 7.25V8.75C13 8.8163 12.9737 8.87989 12.9268 8.92678C12.8799 8.97366 12.8163 9 12.75 9H11.25C11.1837 9 11.1201 8.97366 11.0732 8.92678C11.0263 8.87989 11 8.8163 11 8.75V7.25C11 7.1837 11.0263 7.12011 11.0732 7.07322C11.1201 7.02634 11.1837 7 11.25 7ZM7.25 7H8.75C8.8163 7 8.87989 7.02634 8.92678 7.07322C8.97366 7.12011 9 7.1837 9 7.25V8.75C9 8.8163 8.97366 8.87989 8.92678 8.92678C8.87989 8.97366 8.8163 9 8.75 9H7.25C7.1837 9 7.12011 8.97366 7.07322 8.92678C7.02634 8.87989 7 8.8163 7 8.75V7.25C7 7.1837 7.02634 7.12011 7.07322 7.07322C7.12011 7.02634 7.1837 7 7.25 7ZM3.25 7H4.75C4.8163 7 4.87989 7.02634 4.92678 7.07322C4.97366 7.12011 5 7.1837 5 7.25V8.75C5 8.8163 4.97366 8.87989 4.92678 8.92678C4.87989 8.97366 4.8163 9 4.75 9H3.25C3.1837 9 3.12011 8.97366 3.07322 8.92678C3.02634 8.87989 3 8.8163 3 8.75V7.25C3 7.1837 3.02634 7.12011 3.07322 7.07322C3.12011 7.02634 3.1837 7 3.25 7ZM3.25 11H4.75C4.8163 11 4.87989 11.0263 4.92678 11.0732C4.97366 11.1201 5 11.1837 5 11.25V12.75C5 12.8163 4.97366 12.8799 4.92678 12.9268C4.87989 12.9737 4.8163 13 4.75 13H3.25C3.1837 13 3.12011 12.9737 3.07322 12.9268C3.02634 12.8799 3 12.8163 3 12.75V11.25C3 11.1837 3.02634 11.1201 3.07322 11.0732C3.12011 11.0263 3.1837 11 3.25 11ZM7.25 11H8.75C8.8163 11 8.87989 11.0263 8.92678 11.0732C8.97366 11.1201 9 11.1837 9 11.25V12.75C9 12.8163 8.97366 12.8799 8.92678 12.9268C8.87989 12.9737 8.8163 13 8.75 13H7.25C7.1837 13 7.12011 12.9737 7.07322 12.9268C7.02634 12.8799 7 12.8163 7 12.75V11.25C7 11.1837 7.02634 11.1201 7.07322 11.0732C7.12011 11.0263 7.1837 11 7.25 11ZM11.25 11H12.75C12.8163 11 12.8799 11.0263 12.9268 11.0732C12.9737 11.1201 13 11.1837 13 11.25V12.75C13 12.889 12.889 13 12.75 13H11.25C11.1837 13 11.1201 12.9737 11.0732 12.9268C11.0263 12.8799 11 12.8163 11 12.75V11.25C11 11.1837 11.0263 11.1201 11.0732 11.0732C11.1201 11.0263 11.1837 11 11.25 11Z" fill="url(#paint0_linear_10_19381)"/>
<defs>
<linearGradient id="paint0_linear_10_19381" x1="3" y1="8" x2="13" y2="8" gradientUnits="userSpaceOnUse">
<stop stop-color="#FDFC47"/>
<stop offset="1" stop-color="#24FE41"/>
</linearGradient>
</defs>
</svg>
