<svg width="16" height="16" viewBox="0 0 16 16" fill="none" xmlns="http://www.w3.org/2000/svg">
<path d="M0 1V14H6C6.975 14 7.602 14.8 7.602 14.8L7.992 15.318L8.392 14.808C8.392 14.808 9.044 14.015 10.004 14H16V1H10C8.964 1 8.365 1.465 8 1.82C7.635 1.465 7.036 1 6 1H0ZM1 2H6C6.983 2 7.6 2.799 7.6 2.799L8 3.334L8.4 2.799C8.4 2.799 9.017 2 10 2H15V13H9.992C8.967 13.015 8.368 13.478 8.004 13.824C7.74176 13.56 7.42938 13.3511 7.08523 13.2096C6.74107 13.0681 6.3721 12.9968 6 13H1V2ZM2 4V5H6V4H2ZM9 4V5H13V4H9ZM2 6V7H6V6H2ZM9 6V7H13V6H9ZM2 8V9H6V8H2ZM9 8V9H13V8H9ZM2 10V11H6V10H2ZM9 10V11H13V10H9Z" fill="url(#paint0_linear_10_19408)"/>
<defs>
<linearGradient id="paint0_linear_10_19408" x1="0" y1="8.159" x2="16" y2="8.159" gradientUnits="userSpaceOnUse">
<stop stop-color="#FDFC47"/>
<stop offset="1" stop-color="#24FE41"/>
</linearGradient>
</defs>
</svg>
