<svg width="16" height="16" viewBox="0 0 16 16" fill="none" xmlns="http://www.w3.org/2000/svg">
<path d="M5 3V4H14V3H5ZM5 7V8H14V7H5ZM5 11V12H14V11H5Z" fill="url(#paint0_linear_10_19439)"/>
<path d="M2.5 2C2.10218 2 1.72064 2.15804 1.43934 2.43934C1.15804 2.72064 1 3.10218 1 3.5C1 3.89782 1.15804 4.27936 1.43934 4.56066C1.72064 4.84196 2.10218 5 2.5 5C2.89782 5 3.27936 4.84196 3.56066 4.56066C3.84196 4.27936 4 3.89782 4 3.5C4 3.10218 3.84196 2.72064 3.56066 2.43934C3.27936 2.15804 2.89782 2 2.5 2ZM2.48828 3C2.49219 2.99995 2.49609 2.99995 2.5 3C2.63261 3 2.75979 3.05268 2.85355 3.14645C2.94732 3.24021 3 3.36739 3 3.5C3 3.63261 2.94732 3.75979 2.85355 3.85355C2.75979 3.94732 2.63261 4 2.5 4C2.36739 4 2.24021 3.94732 2.14645 3.85355C2.05268 3.75979 2 3.63261 2 3.5C1.99996 3.3694 2.05103 3.24396 2.14228 3.15053C2.23353 3.05709 2.35771 3.00306 2.48828 3Z" fill="#232323"/>
<path d="M2.5 6C2.10218 6 1.72064 6.15804 1.43934 6.43934C1.15804 6.72064 1 7.10218 1 7.5C1 7.89782 1.15804 8.27936 1.43934 8.56066C1.72064 8.84196 2.10218 9 2.5 9C2.89782 9 3.27936 8.84196 3.56066 8.56066C3.84196 8.27936 4 7.89782 4 7.5C4 7.10218 3.84196 6.72064 3.56066 6.43934C3.27936 6.15804 2.89782 6 2.5 6ZM2.48828 7C2.49219 6.99995 2.49609 6.99995 2.5 7C2.63261 7 2.75979 7.05268 2.85355 7.14645C2.94732 7.24021 3 7.36739 3 7.5C3 7.63261 2.94732 7.75979 2.85355 7.85355C2.75979 7.94732 2.63261 8 2.5 8C2.36739 8 2.24021 7.94732 2.14645 7.85355C2.05268 7.75979 2 7.63261 2 7.5C1.99996 7.3694 2.05103 7.24396 2.14228 7.15053C2.23353 7.05709 2.35771 7.00306 2.48828 7Z" fill="#232323"/>
<path d="M2.5 10C2.10218 10 1.72064 10.158 1.43934 10.4393C1.15804 10.7206 1 11.1022 1 11.5C1 11.8978 1.15804 12.2794 1.43934 12.5607C1.72064 12.842 2.10218 13 2.5 13C2.89782 13 3.27936 12.842 3.56066 12.5607C3.84196 12.2794 4 11.8978 4 11.5C4 11.1022 3.84196 10.7206 3.56066 10.4393C3.27936 10.158 2.89782 10 2.5 10ZM2.48828 11C2.49219 11 2.49609 11 2.5 11C2.63261 11 2.75979 11.0527 2.85355 11.1464C2.94732 11.2402 3 11.3674 3 11.5C3 11.6326 2.94732 11.7598 2.85355 11.8536C2.75979 11.9473 2.63261 12 2.5 12C2.36739 12 2.24021 11.9473 2.14645 11.8536C2.05268 11.7598 2 11.6326 2 11.5C1.99996 11.3694 2.05103 11.244 2.14228 11.1505C2.23353 11.0571 2.35771 11.0031 2.48828 11Z" fill="#232323"/>
<defs>
<linearGradient id="paint0_linear_10_19439" x1="5" y1="7.5" x2="14" y2="7.5" gradientUnits="userSpaceOnUse">
<stop stop-color="#FDFC47"/>
<stop offset="1" stop-color="#24FE41"/>
</linearGradient>
</defs>
</svg>
