<svg width="16" height="16" viewBox="0 0 16 16" fill="none" xmlns="http://www.w3.org/2000/svg">
<path d="M9.00098 2V14H8.00098V2H9.00098ZM15.001 3V4H11.001V3H15.001ZM5.50098 3C5.50098 3 6.00098 3 6.00098 3.5V6.5C6.00098 6.5 6.00098 7 5.50098 7H2.50098C2.50098 7 2.00098 7 2.00098 6.5V3.5C2.00098 3.5 2.00098 3 2.50098 3H5.50098ZM5.00098 4H3.00098V6H5.00098V4ZM15.001 6V7H11.001V6H15.001ZM15.001 9V10H11.001V9H15.001ZM5.50098 9C5.50098 9 6.00098 9 6.00098 9.5V12.5C6.00098 12.5 6.00098 13 5.50098 13H2.50098C2.50098 13 2.00098 13 2.00098 12.5V9.5C2.00098 9.5 2.00098 9 2.50098 9H5.50098ZM5.00098 10H3.00098V12H5.00098V10ZM15.001 12V13H11.001V12H15.001Z" fill="url(#paint0_linear_10_19412)"/>
<defs>
<linearGradient id="paint0_linear_10_19412" x1="2.00098" y1="8" x2="15.001" y2="8" gradientUnits="userSpaceOnUse">
<stop stop-color="#FDFC47"/>
<stop offset="1" stop-color="#24FE41"/>
</linearGradient>
</defs>
</svg>
