<svg width="16" height="16" viewBox="0 0 16 16" fill="none" xmlns="http://www.w3.org/2000/svg">
<g clip-path="url(#clip0_10_19467)">
<path d="M2.00001 3.54165e-06C1.13901 3.54165e-06 0.57011 0.320224 0.28711 0.699224C0.00411001 1.07522 0 1.5 0 1.5V14.5C0 14.5 0.00410941 14.9238 0.28711 15.3008C0.57111 15.6798 1.139 16 2.00001 16C2.11087 16.0004 2.21874 15.964 2.30665 15.8965L7.80665 11.6465C7.86705 11.5996 7.9159 11.5395 7.94942 11.4707C7.98294 11.402 8.00025 11.3265 8.00001 11.25V4.5C8.00009 4.42122 7.98156 4.34353 7.94592 4.27328C7.91028 4.20302 7.85855 4.14217 7.79493 4.0957L2.29493 0.0957035C2.20925 0.0333575 2.10597 -0.000152385 2.00001 3.54165e-06ZM2.00001 1.1191L7.00001 4.7558V11.0038L2.00001 14.8671V1.1191Z" fill="url(#paint0_linear_10_19467)"/>
<path opacity="0.5" d="M14 1.66997e-07C13.894 -8.64612e-05 13.7907 0.0335323 13.705 0.0960002L8.205 4.096C8.14144 4.14245 8.08974 4.20325 8.05412 4.27345C8.0185 4.34365 7.99995 4.42128 8 4.5V11.25C7.9998 11.3264 8.01708 11.4018 8.05054 11.4704C8.084 11.539 8.13273 11.5991 8.193 11.646L13.693 15.896C13.7809 15.9638 13.889 16.0004 14 16C14.861 16 15.43 15.679 15.713 15.3C15.996 14.923 16 14.5 16 14.5V1.5C16 1.5 15.996 1.077 15.713 0.7C15.429 0.32 14.86 1.66997e-07 14 1.66997e-07ZM14 1.12V14.867L9 11.004V4.756L14 1.12Z" fill="url(#paint1_linear_10_19467)"/>
</g>
<defs>
<linearGradient id="paint0_linear_10_19467" x1="0" y1="8" x2="8.00001" y2="8" gradientUnits="userSpaceOnUse">
<stop stop-color="#FDFC47"/>
<stop offset="1" stop-color="#24FE41"/>
</linearGradient>
<linearGradient id="paint1_linear_10_19467" x1="8" y1="8" x2="16" y2="8" gradientUnits="userSpaceOnUse">
<stop stop-color="#FDFC47"/>
<stop offset="1" stop-color="#24FE41"/>
</linearGradient>
<clipPath id="clip0_10_19467">
<rect width="16" height="16" fill="white"/>
</clipPath>
</defs>
</svg>
