<svg width="16" height="16" viewBox="0 0 16 16" fill="none" xmlns="http://www.w3.org/2000/svg">
<path d="M13 4H4V5H13V4Z" fill="url(#paint0_linear_10_19455)"/>
<path d="M13 8H4V9H13V8Z" fill="url(#paint1_linear_10_19455)"/>
<path d="M13 12H4V13H13V12Z" fill="url(#paint2_linear_10_19455)"/>
<path d="M3 4H2V5H3V4Z" fill="url(#paint3_linear_10_19455)"/>
<path d="M3 8H2V9H3V8Z" fill="url(#paint4_linear_10_19455)"/>
<path d="M3 12H2V13H3V12Z" fill="url(#paint5_linear_10_19455)"/>
<defs>
<linearGradient id="paint0_linear_10_19455" x1="4" y1="4.5" x2="13" y2="4.5" gradientUnits="userSpaceOnUse">
<stop stop-color="#FDFC47"/>
<stop offset="1" stop-color="#24FE41"/>
</linearGradient>
<linearGradient id="paint1_linear_10_19455" x1="4" y1="8.5" x2="13" y2="8.5" gradientUnits="userSpaceOnUse">
<stop stop-color="#FDFC47"/>
<stop offset="1" stop-color="#24FE41"/>
</linearGradient>
<linearGradient id="paint2_linear_10_19455" x1="4" y1="12.5" x2="13" y2="12.5" gradientUnits="userSpaceOnUse">
<stop stop-color="#FDFC47"/>
<stop offset="1" stop-color="#24FE41"/>
</linearGradient>
<linearGradient id="paint3_linear_10_19455" x1="2" y1="4.5" x2="3" y2="4.5" gradientUnits="userSpaceOnUse">
<stop stop-color="#FDFC47"/>
<stop offset="1" stop-color="#24FE41"/>
</linearGradient>
<linearGradient id="paint4_linear_10_19455" x1="2" y1="8.5" x2="3" y2="8.5" gradientUnits="userSpaceOnUse">
<stop stop-color="#FDFC47"/>
<stop offset="1" stop-color="#24FE41"/>
</linearGradient>
<linearGradient id="paint5_linear_10_19455" x1="2" y1="12.5" x2="3" y2="12.5" gradientUnits="userSpaceOnUse">
<stop stop-color="#FDFC47"/>
<stop offset="1" stop-color="#24FE41"/>
</linearGradient>
</defs>
</svg>
