<svg width="16" height="16" viewBox="0 0 16 16" fill="none" xmlns="http://www.w3.org/2000/svg">
<path d="M4 4C2.892 4 2 4.892 2 6V12C2 13.108 2.892 14 4 14H11C12.108 14 13 13.108 13 12V6C13 4.892 12.108 4 11 4H4ZM4 6H11C11.554 6 12 6.446 12 7V12C12 12.554 11.554 13 11 13H4C3.446 13 3 12.554 3 12V7C3 6.446 3.446 6 4 6Z" fill="url(#paint0_linear_10_19518)"/>
<path d="M5.99999 2C5.25892 2 4.62099 2.4042 4.27539 3H12C13.108 3 14 3.892 14 5V10V11.7246C14.5958 11.379 15 10.7411 15 10V5C15 3.338 13.662 2 12 2H5.99999Z" fill="url(#paint1_linear_10_19518)"/>
<defs>
<linearGradient id="paint0_linear_10_19518" x1="2" y1="9" x2="13" y2="9" gradientUnits="userSpaceOnUse">
<stop stop-color="#FDFC47"/>
<stop offset="1" stop-color="#24FE41"/>
</linearGradient>
<linearGradient id="paint1_linear_10_19518" x1="4.27539" y1="6.8623" x2="15" y2="6.8623" gradientUnits="userSpaceOnUse">
<stop stop-color="#FDFC47"/>
<stop offset="1" stop-color="#24FE41"/>
</linearGradient>
</defs>
</svg>
