<svg width="16" height="16" viewBox="0 0 16 16" fill="none" xmlns="http://www.w3.org/2000/svg">
<path d="M3 1L4 2V6L2 8H9L7 6V2L8 1H3ZM5 9V13.75C5.14215 14.2578 5.30901 14.7584 5.5 15.25C5.68768 14.7573 5.85449 14.2568 6 13.75V9H5Z" fill="url(#paint0_linear_10_19544)"/>
<path d="M11.5 8C10.5717 8 9.6815 8.36875 9.02513 9.02513C8.36875 9.6815 8 10.5717 8 11.5C8 12.4283 8.36875 13.3185 9.02513 13.9749C9.6815 14.6313 10.5717 15 11.5 15C12.4283 15 13.3185 14.6313 13.9749 13.9749C14.6313 13.3185 15 12.4283 15 11.5C15 10.5717 14.6313 9.6815 13.9749 9.02513C13.3185 8.36875 12.4283 8 11.5 8ZM11 9H12V11H14V12H12V14H11V12H9V11H11V9Z" fill="url(#paint1_linear_10_19544)"/>
<defs>
<linearGradient id="paint0_linear_10_19544" x1="2" y1="8.125" x2="9" y2="8.125" gradientUnits="userSpaceOnUse">
<stop stop-color="#FDFC47"/>
<stop offset="1" stop-color="#24FE41"/>
</linearGradient>
<linearGradient id="paint1_linear_10_19544" x1="8" y1="11.5" x2="15" y2="11.5" gradientUnits="userSpaceOnUse">
<stop stop-color="#FDFC47"/>
<stop offset="1" stop-color="#24FE41"/>
</linearGradient>
</defs>
</svg>
