<svg width="16" height="16" viewBox="0 0 16 16" fill="none" xmlns="http://www.w3.org/2000/svg">
<path d="M5.994 2C4.736 2.015 3.815 1.97 3.062 2.385C2.67299 2.6073 2.37616 2.96122 2.225 3.383C2.06 3.82 2 4.343 2 5V11C2 11.658 2.06 12.179 2.225 12.617C2.389 13.056 2.686 13.407 3.062 13.615C3.815 14.031 4.736 13.985 5.994 14H10.006C11.264 13.985 12.185 14.03 12.938 13.615C13.3274 13.3929 13.6246 13.0389 13.776 12.617C13.94 12.179 14 11.657 14 11V5C14 4.342 13.94 3.821 13.775 3.383C13.6236 2.96106 13.3264 2.60712 12.937 2.385C12.185 1.969 11.264 2.015 10.006 2H5.998H5.994ZM6 3H10C11.259 3.015 12.087 3.06 12.453 3.262C12.637 3.362 12.743 3.474 12.84 3.734C12.937 3.994 13 4.408 13 5V11C13 11.592 12.937 12.006 12.84 12.266C12.742 12.526 12.638 12.637 12.455 12.738C12.089 12.94 11.258 12.985 10 13H6C4.741 12.985 3.91 12.94 3.545 12.738C3.361 12.638 3.258 12.526 3.16 12.266C3.063 12.006 3 11.592 3 11V5C3 4.408 3.063 3.994 3.16 3.734C3.258 3.474 3.361 3.363 3.545 3.262C3.91 3.06 4.74 3.015 6 3Z" fill="url(#paint0_linear_10_19567)"/>
<path d="M6.11694 6.247C6.28394 6.177 6.45694 6.1 6.63694 6.013C6.82094 5.921 6.99994 5.823 7.17294 5.719C7.34167 5.61238 7.50644 5.49964 7.66694 5.381C7.82794 5.26 7.97294 5.133 8.09994 5H8.99994V11H7.99994V6.348C7.55194 6.695 6.98794 6.914 6.50594 7.11L6.11694 6.247Z" fill="url(#paint1_linear_10_19567)"/>
<defs>
<linearGradient id="paint0_linear_10_19567" x1="2" y1="8" x2="14" y2="8" gradientUnits="userSpaceOnUse">
<stop stop-color="#FDFC47"/>
<stop offset="1" stop-color="#24FE41"/>
</linearGradient>
<linearGradient id="paint1_linear_10_19567" x1="6.11694" y1="8" x2="8.99994" y2="8" gradientUnits="userSpaceOnUse">
<stop stop-color="#FDFC47"/>
<stop offset="1" stop-color="#24FE41"/>
</linearGradient>
</defs>
</svg>
