<svg width="16" height="16" viewBox="0 0 16 16" fill="none" xmlns="http://www.w3.org/2000/svg">
<g clip-path="url(#clip0_10_19564)">
<path d="M7 5V8H4V9H7V12H8V9H11V8H8V5H7Z" fill="url(#paint0_linear_10_19564)"/>
<path d="M7.46289 1.00002C5.4802 1.00983 3.58207 1.80434 2.18356 3.2098C0.785056 4.61526 -2.42699e-05 6.51731 5.62716e-10 8.50002C5.62717e-10 10.4891 0.790176 12.3968 2.1967 13.8033C3.60322 15.2098 5.51088 16 7.5 16C9.48912 16 11.3968 15.2098 12.8033 13.8033C14.2098 12.3968 15 10.4891 15 8.50002C15 6.5109 14.2098 4.60324 12.8033 3.19672C11.3968 1.7902 9.48912 1.00002 7.5 1.00002C7.48763 0.999992 7.47526 0.999992 7.46289 1.00002ZM7.5 2.00002C8.35359 2.00002 9.19883 2.16815 9.98744 2.49481C10.7761 2.82146 11.4926 3.30025 12.0962 3.90383C12.6998 4.50741 13.1786 5.22396 13.5052 6.01258C13.8319 6.8012 14 7.64643 14 8.50002C14 9.35362 13.8319 10.1988 13.5052 10.9875C13.1786 11.7761 12.6998 12.4926 12.0962 13.0962C11.4926 13.6998 10.7761 14.1786 9.98744 14.5052C9.19883 14.8319 8.35359 15 7.5 15C5.77609 15 4.12279 14.3152 2.90381 13.0962C1.68482 11.8772 1 10.2239 1 8.50002C1 6.77612 1.68482 5.12282 2.90381 3.90383C4.12279 2.68484 5.77609 2.00002 7.5 2.00002Z" fill="url(#paint1_linear_10_19564)"/>
</g>
<defs>
<linearGradient id="paint0_linear_10_19564" x1="4" y1="8.5" x2="11" y2="8.5" gradientUnits="userSpaceOnUse">
<stop stop-color="#FDFC47"/>
<stop offset="1" stop-color="#24FE41"/>
</linearGradient>
<linearGradient id="paint1_linear_10_19564" x1="0" y1="8.50001" x2="15" y2="8.50001" gradientUnits="userSpaceOnUse">
<stop stop-color="#FDFC47"/>
<stop offset="1" stop-color="#24FE41"/>
</linearGradient>
<clipPath id="clip0_10_19564">
<rect width="16" height="16" fill="white"/>
</clipPath>
</defs>
</svg>
