<svg width="22" height="22" viewBox="0 0 22 22" fill="none" xmlns="http://www.w3.org/2000/svg">
<path d="M6.85543 4.2598C6.62124 4.29213 6.41871 4.45972 6.35348 4.70316C6.2665 5.02774 6.45859 5.35838 6.78317 5.44535L12.584 7.00005H5.00977C3.90177 7.00005 3.00977 7.89205 3.00977 9.00005V16.0001C3.00977 17.1081 3.90177 18.0001 5.00977 18.0001H16.9998C18.1078 18.0001 18.9998 17.1081 18.9998 16.0001V9.00005C18.9998 7.89205 18.1078 7.00005 16.9998 7.00005H16.8396C16.7632 6.91298 16.6713 6.83905 16.5505 6.80669L7.09745 4.27349C7.0163 4.25175 6.9335 4.24903 6.85543 4.2598ZM4.99993 8H17.0099C17.5639 8 18.0099 8.446 18.0099 9V16C18.0099 16.554 17.5639 17 17.0099 17H4.99993C4.44593 17 3.99993 16.554 3.99993 16V9C3.99993 8.446 4.44593 8 4.99993 8ZM5.0097 10V11H10V10H5.0097ZM14.4999 10C13.1192 10 11.9999 11.1193 11.9999 12.5C11.9999 13.8807 13.1192 15 14.4999 15C15.8806 15 16.9999 13.8807 16.9999 12.5C16.9999 11.1193 15.8806 10 14.4999 10ZM14.4999 11C15.3283 11 15.9999 11.6716 15.9999 12.5C15.9999 13.3284 15.3283 14 14.4999 14C13.6715 14 12.9999 13.3284 12.9999 12.5C12.9999 11.6716 13.6715 11 14.4999 11ZM5.0097 12V13H10V12H5.0097ZM5.0097 14V15H10V14H5.0097Z" fill="url(#paint0_linear_9_5847)"/>
<defs>
<linearGradient id="paint0_linear_9_5847" x1="3.00977" y1="11.1269" x2="18.9998" y2="11.1269" gradientUnits="userSpaceOnUse">
<stop stop-color="#FDFC47"/>
<stop offset="1" stop-color="#24FE41"/>
</linearGradient>
</defs>
</svg>
