<svg width="22" height="22" viewBox="0 0 22 22" fill="none" xmlns="http://www.w3.org/2000/svg">
<path d="M10.906 1C7.07666 1.05132 3.99936 4.1703 3.99976 8V14H4.99976V8C4.99976 4.6863 7.68606 2 10.9998 2C14.3135 2 16.9998 4.6863 16.9998 8V15V17C16.9998 18.662 15.6618 20 13.9998 20H12.9119C12.8086 19.7079 12.6174 19.4549 12.3645 19.2759C12.1117 19.0968 11.8096 19.0004 11.4998 19C11.1019 19 10.7204 19.158 10.4391 19.4393C10.1578 19.7206 9.99976 20.1022 9.99976 20.5C9.99976 20.8978 10.1578 21.2794 10.4391 21.5607C10.7204 21.842 11.1019 22 11.4998 22C11.8099 22 12.1125 21.9038 12.3657 21.7247C12.619 21.5456 12.8105 21.2924 12.9139 21H13.9998C16.2158 21 17.9998 19.216 17.9998 17V15V8C17.9998 4.134 14.8658 1 10.9998 1C10.9685 0.999795 10.9372 0.999795 10.906 1ZM5.99976 11V17H6.99976C6.99976 17 7.99976 17 7.99976 16V12C7.99976 11 6.99976 11 6.99976 11H5.99976ZM14.9998 11C14.9998 11 13.9998 11 13.9998 12V16C13.9998 17 14.9998 17 14.9998 17H15.9998V11H14.9998Z" fill="url(#paint0_linear_9_5842)"/>
<defs>
<linearGradient id="paint0_linear_9_5842" x1="3.99976" y1="11.4999" x2="17.9998" y2="11.4999" gradientUnits="userSpaceOnUse">
<stop stop-color="#FDFC47"/>
<stop offset="1" stop-color="#24FE41"/>
</linearGradient>
</defs>
</svg>
