<svg width="22" height="22" viewBox="0 0 22 22" fill="none" xmlns="http://www.w3.org/2000/svg">
<path d="M10.906 3C9.06574 3.02467 7.30927 3.77304 6.01673 5.08313C4.7242 6.39322 3.99959 8.15963 3.99976 10V16H4.99976V10C4.99976 8.40871 5.6319 6.88258 6.75712 5.75736C7.88233 4.63215 9.40846 4 10.9998 4C12.5911 4 14.1172 4.63215 15.2424 5.75736C16.3676 6.88258 16.9998 8.40871 16.9998 10V16H17.9998V10C17.9998 9.08075 17.8187 8.1705 17.4669 7.32122C17.1151 6.47194 16.5995 5.70027 15.9495 5.05026C15.2995 4.40025 14.5278 3.88463 13.6785 3.53285C12.8293 3.18106 11.919 3 10.9998 3C10.9685 2.9998 10.9372 2.9998 10.906 3ZM5.99976 13V19H6.99976C6.99976 19 7.99976 19 7.99976 18V14C7.99976 13 6.99976 13 6.99976 13H5.99976ZM14.9998 13C14.9998 13 13.9998 13 13.9998 14V18C13.9998 19 14.9998 19 14.9998 19H15.9998V13H14.9998Z" fill="url(#paint0_linear_9_5840)"/>
<defs>
<linearGradient id="paint0_linear_9_5840" x1="3.99976" y1="10.9999" x2="17.9998" y2="10.9999" gradientUnits="userSpaceOnUse">
<stop stop-color="#FDFC47"/>
<stop offset="1" stop-color="#24FE41"/>
</linearGradient>
</defs>
</svg>
