<svg width="22" height="22" viewBox="0 0 22 22" fill="none" xmlns="http://www.w3.org/2000/svg">
<path d="M6 3C4.892 3 4 3.892 4 5V17C4 18.108 4.892 19 6 19H16C17.108 19 18 18.108 18 17V7L14 3H6ZM6 4H13.5859L17 7.4141V17C17 17.554 16.554 18 16 18H6C5.446 18 5 17.554 5 17V5C5 4.446 5.446 4 6 4ZM7 6C6.446 6 6 6.446 6 7V10.293L7.293 9H9V6H7ZM10 6V9H12V6H10ZM13 6V9H14.707L16 10.293V7.8262L14.1738 6H13ZM7.707 10L6.707 11H5.99997V12H6.707L7.707 13H14.2929L15.2929 12H15.9999V11H15.2929L14.2929 10H7.707ZM6 12.707V16C6 16.554 6.44712 17.0352 7 17H9V14H7.293L6 12.707ZM16 12.707L14.707 14H13V17H15C15.554 17 16 16.554 16 16V12.707ZM10 14V17H12V14H10Z" fill="url(#paint0_linear_9_5850)"/>
<defs>
<linearGradient id="paint0_linear_9_5850" x1="4" y1="11" x2="18" y2="11" gradientUnits="userSpaceOnUse">
<stop stop-color="#FDFC47"/>
<stop offset="1" stop-color="#24FE41"/>
</linearGradient>
</defs>
</svg>
