<svg width="22" height="22" viewBox="0 0 22 22" fill="none" xmlns="http://www.w3.org/2000/svg">
<path d="M5 4C3.338 4 2 5.338 2 7V15C2 16.662 3.338 18 5 18H13C14.662 18 16.4774 16.592 16 15V14.2012L18.4453 15.8321C19.1099 16.2749 19.9998 15.7986 20 15V7.00004C20.0002 6.43694 19.5356 5.98474 18.9727 6.00004C18.7846 6.00531 18.6018 6.06353 18.4454 6.16801L16.0001 7.79891V7.00008C16.0001 5.33808 14.6621 4.00008 13.0001 4.00008L5 4ZM5 5H13C14.108 5 15 5.892 15 7V15C15 16.108 14.108 17 13 17H5C3.892 17 3 16.108 3 15V7C3 5.892 3.892 5 5 5ZM19 7V15L16 13V9L19 7Z" fill="url(#paint0_linear_9_5863)"/>
<defs>
<linearGradient id="paint0_linear_9_5863" x1="2" y1="11" x2="20" y2="11" gradientUnits="userSpaceOnUse">
<stop stop-color="#FDFC47"/>
<stop offset="1" stop-color="#24FE41"/>
</linearGradient>
</defs>
</svg>
