<svg width="22" height="22" viewBox="0 0 22 22" fill="none" xmlns="http://www.w3.org/2000/svg">
<path d="M13.5 8C12.5717 8 11.6815 8.36875 11.0251 9.02513C10.3687 9.6815 10 10.5717 10 11.5C10 12.4283 10.3687 13.3185 11.0251 13.9749C11.6815 14.6313 12.5717 15 13.5 15C14.4283 15 15.3185 14.6313 15.9749 13.9749C16.6313 13.3185 17 12.4283 17 11.5C17 10.5717 16.6313 9.6815 15.9749 9.02513C15.3185 8.36875 14.4283 8 13.5 8ZM13.5 9C14.163 9 14.7989 9.26339 15.2678 9.73223C15.7366 10.2011 16 10.837 16 11.5C16 11.8283 15.9353 12.1534 15.8097 12.4567C15.6841 12.76 15.4999 13.0356 15.2678 13.2678C15.0356 13.4999 14.76 13.6841 14.4567 13.8097C14.1534 13.9353 13.8283 14 13.5 14C12.837 14 12.2011 13.7366 11.7322 13.2678C11.2634 12.7989 11 12.163 11 11.5C11 10.837 11.2634 10.2011 11.7322 9.73223C12.2011 9.26339 12.837 9 13.5 9Z" fill="url(#paint0_linear_9_5857)"/>
<path d="M4 5C2.892 5 2 5.892 2 7V16C2 17.108 2.892 18 4 18H18C19.108 18 20 17.108 20 16V7C20 5.892 19.108 5 18 5H4ZM4 6H18C18.554 6 19 6.446 19 7V16C19 16.554 18.554 17 18 17H4C3.446 17 3 16.554 3 16V7C3 6.446 3.446 6 4 6Z" fill="url(#paint1_linear_9_5857)"/>
<path d="M16 3H10V4H16V3Z" fill="url(#paint2_linear_9_5857)"/>
<path d="M7 8H5V9H7V8Z" fill="url(#paint3_linear_9_5857)"/>
<defs>
<linearGradient id="paint0_linear_9_5857" x1="10" y1="11.5" x2="17" y2="11.5" gradientUnits="userSpaceOnUse">
<stop stop-color="#FDFC47"/>
<stop offset="1" stop-color="#24FE41"/>
</linearGradient>
<linearGradient id="paint1_linear_9_5857" x1="2" y1="11.5" x2="20" y2="11.5" gradientUnits="userSpaceOnUse">
<stop stop-color="#FDFC47"/>
<stop offset="1" stop-color="#24FE41"/>
</linearGradient>
<linearGradient id="paint2_linear_9_5857" x1="10" y1="3.5" x2="16" y2="3.5" gradientUnits="userSpaceOnUse">
<stop stop-color="#FDFC47"/>
<stop offset="1" stop-color="#24FE41"/>
</linearGradient>
<linearGradient id="paint3_linear_9_5857" x1="5" y1="8.5" x2="7" y2="8.5" gradientUnits="userSpaceOnUse">
<stop stop-color="#FDFC47"/>
<stop offset="1" stop-color="#24FE41"/>
</linearGradient>
</defs>
</svg>
