<svg width="22" height="22" viewBox="0 0 22 22" fill="none" xmlns="http://www.w3.org/2000/svg">
<path d="M7.99992 5C6.50042 5 5.45742 6.0366 5.06832 7.0332L2.19922 14.5176C2.19599 14.5252 2.19456 14.5334 2.1914 14.541L2.13281 14.6914H2.14453C2.05748 14.9462 2 15.2151 2 15.5C2 16.885 3.115 18 4.5 18H17.5C18.885 18 20 16.885 20 15.5C20 15.215 19.9425 14.9462 19.8555 14.6914H19.8672L19.8086 14.541L19.8047 14.5254C19.8036 14.5227 19.8019 14.5203 19.8008 14.5176L16.9316 7.03321C16.5424 6.03662 15.4994 5.00001 14 5.00001H10.9999L7.99992 5ZM7.99992 6H13.9999C15.1079 6 15.7084 6.6499 15.9999 7.3965L18.1874 13.1074C17.9678 13.0447 17.7402 13 17.4999 13H4.49992C4.25964 13 4.03203 13.0447 3.81242 13.1074L5.99992 7.3965C6.29145 6.64992 6.89192 6 7.99992 6ZM4.49992 14H17.4999C18.3309 14 18.9999 14.669 18.9999 15.5C18.9999 16.331 18.3309 17 17.4999 17H4.49992C3.66892 17 2.99992 16.331 2.99992 15.5C2.99992 14.669 3.66892 14 4.49992 14Z" fill="url(#paint0_linear_9_5878)"/>
<path d="M15.4998 16C15.7759 16 15.9998 15.7761 15.9998 15.5C15.9998 15.2239 15.7759 15 15.4998 15C15.2236 15 14.9998 15.2239 14.9998 15.5C14.9998 15.7761 15.2236 16 15.4998 16Z" fill="url(#paint1_linear_9_5878)"/>
<path d="M13.4998 16C13.7759 16 13.9998 15.7761 13.9998 15.5C13.9998 15.2239 13.7759 15 13.4998 15C13.2236 15 12.9998 15.2239 12.9998 15.5C12.9998 15.7761 13.2236 16 13.4998 16Z" fill="url(#paint2_linear_9_5878)"/>
<path d="M11.4998 16C11.7759 16 11.9998 15.7761 11.9998 15.5C11.9998 15.2239 11.7759 15 11.4998 15C11.2236 15 10.9998 15.2239 10.9998 15.5C10.9998 15.7761 11.2236 16 11.4998 16Z" fill="url(#paint3_linear_9_5878)"/>
<defs>
<linearGradient id="paint0_linear_9_5878" x1="2" y1="11.5" x2="20" y2="11.5" gradientUnits="userSpaceOnUse">
<stop stop-color="#FDFC47"/>
<stop offset="1" stop-color="#24FE41"/>
</linearGradient>
<linearGradient id="paint1_linear_9_5878" x1="14.9998" y1="15.5" x2="15.9998" y2="15.5" gradientUnits="userSpaceOnUse">
<stop stop-color="#FDFC47"/>
<stop offset="1" stop-color="#24FE41"/>
</linearGradient>
<linearGradient id="paint2_linear_9_5878" x1="12.9998" y1="15.5" x2="13.9998" y2="15.5" gradientUnits="userSpaceOnUse">
<stop stop-color="#FDFC47"/>
<stop offset="1" stop-color="#24FE41"/>
</linearGradient>
<linearGradient id="paint3_linear_9_5878" x1="10.9998" y1="15.5" x2="11.9998" y2="15.5" gradientUnits="userSpaceOnUse">
<stop stop-color="#FDFC47"/>
<stop offset="1" stop-color="#24FE41"/>
</linearGradient>
</defs>
</svg>
