<svg width="22" height="22" viewBox="0 0 22 22" fill="none" xmlns="http://www.w3.org/2000/svg">
<path d="M9 3C6.23 3 4 5.23 4 8V9V15C4 17.77 6.23 20 9 20H12C14.77 20 17 17.77 17 15V9V8C17 5.23 14.77 3 12 3H9ZM9 4H10V8H5C5 5.784 6.784 4 9 4ZM11 4H12C14.216 4 16 5.784 16 8H11V4ZM5 9H16V15C16 17.216 14.216 19 12 19H9C6.784 19 5 17.216 5 15V9Z" fill="url(#paint0_linear_9_5920)"/>
<defs>
<linearGradient id="paint0_linear_9_5920" x1="4" y1="11.5" x2="17" y2="11.5" gradientUnits="userSpaceOnUse">
<stop stop-color="#FDFC47"/>
<stop offset="1" stop-color="#24FE41"/>
</linearGradient>
</defs>
</svg>
