<svg width="22" height="22" viewBox="0 0 22 22" fill="none" xmlns="http://www.w3.org/2000/svg">
<path d="M10.9902 2C8.60498 2.00259 6.3183 2.95194 4.63259 4.63949C2.94687 6.32704 2 8.61474 2 11C2 13.3869 2.94821 15.6761 4.63604 17.364C6.32387 19.0518 8.61305 20 11 20C12.022 19.9997 13.0365 19.8253 14 19.4844V18.4141C13.047 18.8004 12.0284 18.9993 11 19C9.94942 19 8.90914 18.7931 7.93853 18.391C6.96793 17.989 6.08601 17.3997 5.34315 16.6569C4.60028 15.914 4.011 15.0321 3.60896 14.0615C3.20693 13.0909 3 12.0506 3 11C3 9.94943 3.20693 8.90914 3.60896 7.93853C4.011 6.96793 4.60028 6.08602 5.34315 5.34315C6.08601 4.60028 6.96793 4.011 7.93853 3.60897C8.90914 3.20693 9.94942 3 11 3C12.0506 3 13.0909 3.20693 14.0615 3.60897C15.0321 4.011 15.914 4.60028 16.6569 5.34315C17.3997 6.08602 17.989 6.96793 18.391 7.93853C18.7931 8.90914 19 9.94943 19 11C19.0001 11.3343 18.9792 11.6683 18.9375 12H19.9434C19.9808 11.668 19.9997 11.3341 20 11C20 9.8181 19.7672 8.64778 19.3149 7.55585C18.8626 6.46392 18.1997 5.47177 17.364 4.63604C16.5282 3.80031 15.5361 3.13738 14.4442 2.68509C13.3522 2.23279 12.1819 2 11 2C10.9967 2 10.9935 2 10.9902 2ZM11 8C9.32 8 8 9.32 8 11C8 12.68 9.32 14 11 14C12.68 14 14 12.68 14 11C14 9.32 12.68 8 11 8ZM11.0059 9.00586C11.5348 9.00742 12.0416 9.21822 12.4156 9.59222C12.7896 9.96623 13.0004 10.473 13.002 11.002C13.0004 11.5309 12.7896 12.0377 12.4156 12.4117C12.0416 12.7857 11.5348 12.9965 11.0059 12.998C9.90786 12.998 8.99219 12.101 8.99219 11.002C8.99219 9.90395 9.90783 9.00586 11.0059 9.00586ZM15 13V20H18L20 18V13H15ZM16 14H19V18H18V19H16V14Z" fill="url(#paint0_linear_9_5937)"/>
<defs>
<linearGradient id="paint0_linear_9_5937" x1="2" y1="11" x2="20" y2="11" gradientUnits="userSpaceOnUse">
<stop stop-color="#FDFC47"/>
<stop offset="1" stop-color="#24FE41"/>
</linearGradient>
</defs>
</svg>
