<svg width="22" height="22" viewBox="0 0 22 22" fill="none" xmlns="http://www.w3.org/2000/svg">
<path d="M10.5 2C5.2533 2 1 6.2533 1 11.5C1.00044 15.164 3.1079 18.5011 6.416 20.0762L6.82616 19.1641C3.87696 17.7506 2.00036 14.7704 1.99996 11.5C1.99955 6.84949 5.73656 3.06199 10.3867 2.99999C10.4244 2.99974 10.4622 2.99974 10.4999 2.99999C15.1943 2.99999 18.9999 6.80559 18.9999 11.5C18.9996 14.7704 17.1229 17.7506 14.1737 19.1641L14.5839 20.0762C17.892 18.5011 19.9995 15.164 19.9999 11.5C19.9999 6.2533 15.7467 2 10.5 2ZM10.4629 4C6.33529 4.02042 2.99989 7.3723 2.99999 11.5C3.00024 14.3769 4.64609 17.0001 7.23629 18.252L7.64645 17.3399C5.41515 16.2497 4.00005 13.9835 3.99995 11.5001C3.99995 7.91019 6.91005 5.00009 10.5 5.00009C14.0899 5.00009 17 7.91019 17 11.5001C16.9998 13.9835 15.5847 16.2497 13.3534 17.3399L13.7636 18.252C16.3538 17.0001 17.9997 14.3769 17.9999 11.5C17.9999 7.3579 14.642 4 10.4999 4C10.4875 3.99997 10.4753 3.99997 10.4629 4ZM10.5 6C7.4624 6 5 8.4624 5 11.5C4.99991 13.5899 6.1843 15.4993 8.0566 16.4277L8.46871 15.5136C6.95511 14.748 6.00061 13.1962 5.99991 11.4999C5.99991 9.01464 8.01461 6.99994 10.4999 6.99994C12.9852 6.99994 14.9999 9.01464 14.9999 11.4999C14.9999 13.1969 14.0454 14.7495 12.5311 15.5155L12.9432 16.4277C14.8155 15.4992 15.9999 13.5899 15.9998 11.5C15.9998 8.46235 13.5376 6 10.5 6ZM10.5 8C8.567 8 7 9.567 7 11.5C7.00013 12.803 7.72408 13.9981 8.8789 14.6016L9.29101 13.6875C8.49472 13.2476 8.00031 12.4097 8.00001 11.5C8.00001 10.1193 9.11931 9.00004 10.5 9.00004C11.8807 9.00004 13 10.1193 13 11.5C12.9997 12.4098 12.5053 13.2475 11.709 13.6875L12.1211 14.6016C13.2759 13.9981 13.9999 12.803 14 11.5C14 9.567 12.433 8 10.5 8ZM10.5 10C9.67157 10 9 10.6716 9 11.5C9 12.3284 9.67157 13 10.5 13C11.3284 13 12 12.3284 12 11.5C12 10.6716 11.3284 10 10.5 10Z" fill="url(#paint0_linear_9_5959)"/>
<defs>
<linearGradient id="paint0_linear_9_5959" x1="1" y1="11.0381" x2="19.9999" y2="11.0381" gradientUnits="userSpaceOnUse">
<stop stop-color="#FDFC47"/>
<stop offset="1" stop-color="#24FE41"/>
</linearGradient>
</defs>
</svg>
