<svg width="22" height="22" viewBox="0 0 22 22" fill="none" xmlns="http://www.w3.org/2000/svg">
<path d="M4 4C2.892 4 2 4.892 2 6V16C2 17.108 2.892 18 4 18H18C19.108 18 20 17.108 20 16V6C20 4.892 19.108 4 18 4H4ZM3 6L4 5V7H5V5H6V7H7V5H8V7H9V5H13V7H14V5H15V7H16V5H17V7H18V5L19 6V14H16V15H14V17H8V15H6V14H3V6Z" fill="url(#paint0_linear_9_5963)"/>
<defs>
<linearGradient id="paint0_linear_9_5963" x1="2" y1="11" x2="20" y2="11" gradientUnits="userSpaceOnUse">
<stop stop-color="#FDFC47"/>
<stop offset="1" stop-color="#24FE41"/>
</linearGradient>
</defs>
</svg>
