<svg width="22" height="22" viewBox="0 0 22 22" fill="none" xmlns="http://www.w3.org/2000/svg">
<path d="M10.9512 7C10.4293 7.01274 9.93301 7.22906 9.56843 7.60276C9.20385 7.97646 8.99984 8.47791 9 9C8.99994 9.3193 9.07633 9.63397 9.22278 9.91771C9.36923 10.2014 9.58149 10.446 9.8418 10.6309L9 14H13L12.1582 10.6309C12.4185 10.446 12.6308 10.2014 12.7772 9.91771C12.9237 9.63397 13.0001 9.3193 13 9C13 8.46956 12.7893 7.96086 12.4142 7.58578C12.0391 7.21071 11.5304 7 11 7C10.9837 6.9998 10.9675 6.9998 10.9512 7ZM11 8C11.2652 8 11.5196 8.10535 11.7071 8.29289C11.8947 8.48043 12 8.73478 12 9C12 9.26521 11.8947 9.51957 11.7071 9.7071C11.5196 9.89464 11.2652 10 11 10C10.7348 10 10.4805 9.89464 10.2929 9.7071C10.1054 9.51957 10 9.26521 10 9C10 8.73478 10.1054 8.48043 10.2929 8.29289C10.4805 8.10535 10.7348 8 11 8Z" fill="url(#paint0_linear_9_5965)"/>
<path d="M10.6387 2.06836L4.63867 4.38866C4.25334 4.53801 3.99955 4.90899 4 5.32225V11.9999C4.00022 15.6616 6.6786 18.4306 10.2891 19.8007L10.6446 19.9355C10.873 20.0221 11.1252 20.0221 11.3536 19.9355L11.709 19.8007H11.711C15.3216 18.4306 17.9998 15.6616 18.0001 11.9999V5.32225C17.9997 4.9097 17.7461 4.5397 17.3614 4.39061L11.3614 2.06831C11.2018 2 11.093 2 11 2C10.907 2 10.7856 2 10.6387 2.06836ZM11 3L17 5.3223V12C16.9998 15.1836 14.7165 17.5898 11.3555 18.8652L11 19L10.6446 18.8652C7.28366 17.5898 5.00026 15.1836 5.00006 12V5.3223L11 3Z" fill="url(#paint1_linear_9_5965)"/>
<defs>
<linearGradient id="paint0_linear_9_5965" x1="9" y1="10.4999" x2="13" y2="10.4999" gradientUnits="userSpaceOnUse">
<stop stop-color="#FDFC47"/>
<stop offset="1" stop-color="#24FE41"/>
</linearGradient>
<linearGradient id="paint1_linear_9_5965" x1="4" y1="11.0002" x2="18.0001" y2="11.0002" gradientUnits="userSpaceOnUse">
<stop stop-color="#FDFC47"/>
<stop offset="1" stop-color="#24FE41"/>
</linearGradient>
</defs>
</svg>
