<svg width="22" height="22" viewBox="0 0 22 22" fill="none" xmlns="http://www.w3.org/2000/svg">
<path d="M11 5.59741C7.97903 5.59741 5.12553 6.93071 3.17113 9.25571C2.91153 9.56449 2.95242 10.025 3.2617 10.2846C3.39853 10.3995 3.56481 10.4554 3.73087 10.4554C3.93931 10.4554 4.14598 10.3675 4.29061 10.1955C5.96601 8.20213 8.41151 7.05833 11 7.05833C13.5885 7.05833 16.0341 8.20263 17.7094 10.1955C17.8541 10.3675 18.0607 10.4554 18.2691 10.4554C18.4352 10.4554 18.603 10.4 18.7398 10.2846C19.0486 10.0255 19.0885 9.56399 18.8289 9.25571C16.875 6.93061 14.021 5.59741 11 5.59741ZM11 8.69151C8.84203 8.69151 6.80443 9.64431 5.40863 11.3046C5.14905 11.6134 5.18844 12.0739 5.49771 12.3335C5.63454 12.4484 5.80079 12.5043 5.96688 12.5043C6.17532 12.5043 6.38246 12.4163 6.52662 12.2444C7.64332 10.9153 9.27452 10.1524 11 10.1524C12.7255 10.1524 14.3562 10.9153 15.4734 12.2444C15.6181 12.4169 15.8252 12.5043 16.0332 12.5043C16.1993 12.5043 16.3655 12.4489 16.5023 12.3335C16.8116 12.0739 16.851 11.6129 16.5914 11.3046C15.1951 9.64431 13.158 8.69151 11 8.69151ZM11 11.9059C9.70453 11.9059 8.48123 12.4763 7.64463 13.4723C7.38503 13.7811 7.42592 14.2416 7.7352 14.5012C7.87203 14.6161 8.03828 14.6734 8.20437 14.6734C8.41281 14.6734 8.61995 14.5841 8.76411 14.4121C9.32274 13.7473 10.1376 13.3669 11.0001 13.3669C11.8626 13.3669 12.6775 13.7474 13.2361 14.4121C13.3808 14.5846 13.5879 14.6734 13.7958 14.6734C13.9619 14.6734 14.1282 14.6166 14.265 14.5012C14.5743 14.2416 14.6152 13.7811 14.3556 13.4723C13.5189 12.4764 12.2954 11.9059 11 11.9059ZM10.9377 14.6793C10.3663 14.7338 9.81677 15.1611 9.79737 15.7973C9.79737 16.4615 10.3358 16.9999 11 16.9999C11.6641 16.9999 12.2026 16.4615 12.2026 15.7973C12.1009 14.9434 11.5091 14.6249 10.9377 14.6793Z" fill="url(#paint0_linear_9_5976)"/>
<defs>
<linearGradient id="paint0_linear_9_5976" x1="3.00024" y1="11.2987" x2="19.0002" y2="11.2987" gradientUnits="userSpaceOnUse">
<stop stop-color="#FDFC47"/>
<stop offset="1" stop-color="#24FE41"/>
</linearGradient>
</defs>
</svg>
