<svg width="16" height="16" viewBox="0 0 16 16" fill="none" xmlns="http://www.w3.org/2000/svg">
<path d="M15 5.7658C14.9992 5.27163 14.9011 4.78246 14.7113 4.32621C14.5214 3.86997 14.2436 3.45558 13.8936 3.10671C13.5436 2.75784 13.1283 2.48132 12.6715 2.29294C12.2146 2.10456 11.7252 2.00801 11.231 2.0088C9.86 2.0088 8.66 2.7388 8.001 3.8308C7.66518 3.27435 7.1912 2.81418 6.62508 2.49494C6.05896 2.1757 5.41993 2.00823 4.77 2.0088C4.27575 2.00788 3.78616 2.10433 3.3292 2.29265C2.87223 2.48097 2.45684 2.75747 2.10675 3.10635C1.75666 3.45524 1.47873 3.86967 1.28883 4.32598C1.09893 4.78229 1.00079 5.27155 1 5.7658C0.999711 6.27943 1.10522 6.78762 1.30996 7.25868C1.51469 7.72975 1.81427 8.15359 2.19 8.5038H2.189L7.914 13.9998L13.813 8.5038C14.1886 8.1535 14.4879 7.72962 14.6925 7.25856C14.8971 6.7875 15.0024 6.27936 15.002 5.7658" fill="#232323"/>
</svg>
