<svg width="16" height="16" viewBox="0 0 16 16" fill="none" xmlns="http://www.w3.org/2000/svg">
<path fill-rule="evenodd" clip-rule="evenodd" d="M8.18 2.00717C7.36194 1.98229 6.54745 2.12506 5.78663 2.42671C5.02581 2.72835 4.33476 3.18249 3.756 3.76117C3.70824 3.80729 3.67015 3.86246 3.64395 3.92347C3.61774 3.98447 3.60395 4.05008 3.60337 4.11647C3.6028 4.18286 3.61545 4.2487 3.64059 4.31014C3.66573 4.37159 3.70286 4.42742 3.7498 4.47436C3.79675 4.52131 3.85257 4.55844 3.91402 4.58358C3.97547 4.60872 4.04131 4.62137 4.1077 4.62079C4.17409 4.62022 4.2397 4.60642 4.3007 4.58022C4.3617 4.55401 4.41688 4.51592 4.463 4.46817C5.24091 3.68935 6.25434 3.18938 7.34572 3.04597C8.43711 2.90256 9.5453 3.12376 10.498 3.67517C11.2553 4.1139 11.8836 4.74434 12.3199 5.50305C12.7561 6.26176 12.9848 7.12199 12.983 7.99717H11L13.5 10.9972L16 7.99717H13.994C13.9933 6.94538 13.7162 5.91225 13.1903 5.00134C12.6645 4.09044 11.9085 3.33376 10.998 2.80717C10.1395 2.31111 9.17111 2.03621 8.18 2.00717ZM2.5 4.99717L0 7.99717H2.004C2.0041 9.44379 2.52564 10.8419 3.473 11.9352C4.0134 12.556 4.67569 13.059 5.41873 13.4131C6.16177 13.7671 6.96967 13.9646 7.79224 13.9932C8.61481 14.0218 9.43448 13.8809 10.2003 13.5793C10.9661 13.2778 11.6618 12.8219 12.244 12.2402C12.2905 12.1937 12.3274 12.1386 12.3526 12.0779C12.3777 12.0173 12.3907 11.9522 12.3908 11.8865C12.3908 11.8208 12.3779 11.7558 12.3528 11.695C12.3277 11.6343 12.2909 11.5792 12.2445 11.5327C12.1981 11.4862 12.143 11.4493 12.0823 11.4241C12.0216 11.3989 11.9566 11.3859 11.8909 11.3859C11.8252 11.3858 11.7601 11.3987 11.6994 11.4238C11.6387 11.4489 11.5835 11.4857 11.537 11.5322C10.7588 12.3112 9.7452 12.8114 8.65354 12.9551C7.56189 13.0989 6.45331 12.8781 5.5 12.3272C4.74187 11.8875 4.11306 11.2557 3.67696 10.4955C3.24086 9.7353 3.01288 8.87356 3.016 7.99717H5L2.5 4.99717Z" fill="#232323"/>
</svg>
