<svg width="16" height="16" viewBox="0 0 16 16" fill="none" xmlns="http://www.w3.org/2000/svg">
<g clip-path="url(#clip0_10_19892)">
<path d="M1.75 1C1.65144 0.999739 1.55379 1.01896 1.46268 1.05656C1.37156 1.09415 1.28878 1.14939 1.21908 1.21908C1.14939 1.28878 1.09415 1.37156 1.05656 1.46268C1.01896 1.55379 0.999739 1.65144 1 1.75V15.25C1 15.666 1.334 16 1.75 16H14.25C14.665 16 15 15.666 15 15.25V1.75C15.0003 1.65144 14.981 1.55379 14.9434 1.46268C14.9059 1.37156 14.8506 1.28878 14.7809 1.21908C14.7112 1.14939 14.6284 1.09415 14.5373 1.05656C14.4462 1.01896 14.3486 0.999739 14.25 1H1.75ZM2 2H3V3H2V2ZM4.5 2H11.5C11.777 2 12 2.223 12 2.5V7.5C12 7.777 11.777 8 11.5 8H4.5C4.4343 8.00013 4.36923 7.98729 4.30851 7.96221C4.24778 7.93713 4.19261 7.90031 4.14616 7.85385C4.0997 7.80739 4.06288 7.75222 4.03779 7.6915C4.01271 7.63078 3.99987 7.5657 4 7.5V2.5C4 2.223 4.223 2 4.5 2ZM13 2H14V3H13V2ZM2 4H3V5H2V4ZM13 4H14V5H13V4ZM2 6H3V7H2V6ZM13 6H14V7H13V6ZM2 8H3V9H2V8ZM13 8H14V9H13V8ZM4.5 9H11.5C11.777 9 12 9.223 12 9.5V14.5C12 14.777 11.777 15 11.5 15H4.5C4.4343 15.0001 4.36923 14.9873 4.30851 14.9622C4.24778 14.9371 4.19261 14.9003 4.14616 14.8539C4.0997 14.8074 4.06288 14.7522 4.03779 14.6915C4.01271 14.6308 3.99987 14.5657 4 14.5V9.5C4 9.223 4.223 9 4.5 9ZM2 10H3V11H2V10ZM13 10H14V11H13V10ZM2 12H3V13H2V12ZM13 12H14V13H13V12ZM2 14H3V15H2V14ZM13 14H14V15H13V14Z" fill="#232323"/>
</g>
<defs>
<clipPath id="clip0_10_19892">
<rect width="16" height="16" fill="white"/>
</clipPath>
</defs>
</svg>
