<svg width="16" height="16" viewBox="0 0 16 16" fill="none" xmlns="http://www.w3.org/2000/svg">
<path fill-rule="evenodd" clip-rule="evenodd" d="M12.5 1C11.837 1 11.2011 1.26339 10.7322 1.73223C10.2634 2.20107 10 2.83696 10 3.5C10.0013 3.66194 10.0184 3.82336 10.051 3.982L5.205 6.676C4.74283 6.2428 4.13345 6.00119 3.5 6C2.83696 6 2.20107 6.26339 1.73223 6.73223C1.26339 7.20107 1 7.83696 1 8.5C1 9.16304 1.26339 9.79893 1.73223 10.2678C2.20107 10.7366 2.83696 11 3.5 11C4.13869 10.9997 4.75305 10.755 5.217 10.316L10.051 13.004C10.0178 13.1673 10.0011 13.3334 10.001 13.5C10.001 14.163 10.2644 14.7989 10.7332 15.2678C11.2021 15.7366 11.838 16 12.501 16C13.164 16 13.7999 15.7366 14.2688 15.2678C14.7376 14.7989 15.001 14.163 15.001 13.5C15.001 12.837 14.7376 12.2011 14.2688 11.7322C13.7999 11.2634 13.164 11 12.501 11C11.86 11.0001 11.2436 11.2464 10.779 11.688L5.947 9C5.98142 8.83554 5.99918 8.66802 6 8.5C5.99882 8.32716 5.97972 8.1549 5.943 7.986L10.772 5.303C11.2367 5.74932 11.8557 5.99902 12.5 6C12.8283 6 13.1534 5.93534 13.4567 5.8097C13.76 5.68406 14.0356 5.49991 14.2678 5.26777C14.4999 5.03562 14.6841 4.76002 14.8097 4.45671C14.9353 4.15339 15 3.8283 15 3.5C15 2.83696 14.7366 2.20107 14.2678 1.73223C13.7989 1.26339 13.163 1 12.5 1Z" fill="#232323"/>
</svg>
