<svg width="24" height="24" viewBox="0 0 24 24" fill="none" xmlns="http://www.w3.org/2000/svg">
<path d="M8.00024 19C6.89224 19 6.00024 19.892 6.00024 21H7.00024C7.00024 20.446 7.44624 20 8.00024 20H16.0002C16.5542 20 17.0002 20.446 17.0002 21H18.0002C18.0002 19.892 17.1082 19 16.0002 19H8.00024Z" fill="url(#paint0_linear_9_6023)"/>
<path d="M11.9494 7.99999C11.1626 8.01331 10.4126 8.33525 9.86089 8.89643C9.30922 9.4576 9.00013 10.2131 9.00024 11C9.00024 11.7956 9.31631 12.5587 9.87892 13.1213C10.4415 13.6839 11.2046 14 12.0002 14C12.7959 14 13.559 13.6839 14.1216 13.1213C14.6842 12.5587 15.0002 11.7956 15.0002 11C15.0002 10.2043 14.6842 9.44127 14.1216 8.87867C13.559 8.31606 12.7959 7.99999 12.0002 7.99999C11.9833 7.99984 11.9664 7.99984 11.9494 7.99999ZM12.0002 9.99999C12.2654 9.99999 12.5198 10.1053 12.7073 10.2929C12.8949 10.4804 13.0002 10.7348 13.0002 11C13.0002 11.2652 12.8949 11.5196 12.7073 11.7071C12.5198 11.8946 12.2654 12 12.0002 12C11.735 12 11.4807 11.8946 11.2931 11.7071C11.1056 11.5196 11.0002 11.2652 11.0002 11C11.0002 10.7348 11.1056 10.4804 11.2931 10.2929C11.4807 10.1053 11.735 9.99999 12.0002 9.99999Z" fill="url(#paint1_linear_9_6023)"/>
<path d="M11.906 4C10.0657 4.02467 8.30927 4.77304 7.01673 6.08313C5.7242 7.39322 4.99959 9.15963 4.99976 11C4.99976 12.8565 5.73725 14.637 7.05001 15.9498C8.36276 17.2625 10.1432 18 11.9998 18C13.8563 18 15.6367 17.2625 16.9495 15.9498C18.2623 14.637 18.9998 12.8565 18.9998 11C18.9998 9.14349 18.2623 7.36301 16.9495 6.05026C15.6367 4.7375 13.8563 4 11.9998 4C11.9685 3.9998 11.9372 3.9998 11.906 4ZM11.9997 5C13.591 5 15.1171 5.63215 16.2423 6.75736C17.3676 7.88258 17.9997 9.40871 17.9997 11C17.9997 12.5913 17.3676 14.1174 16.2423 15.2426C15.1171 16.3679 13.591 17 11.9997 17C10.4084 17 8.88228 16.3679 7.75706 15.2426C6.63185 14.1174 5.99971 12.5913 5.99971 11C5.99971 9.40871 6.63185 7.88258 7.75706 6.75736C8.88228 5.63215 10.4084 5 11.9997 5Z" fill="url(#paint2_linear_9_6023)"/>
<defs>
<linearGradient id="paint0_linear_9_6023" x1="6.00024" y1="20" x2="18.0002" y2="20" gradientUnits="userSpaceOnUse">
<stop stop-color="#FDFC47"/>
<stop offset="1" stop-color="#24FE41"/>
</linearGradient>
<linearGradient id="paint1_linear_9_6023" x1="9.00024" y1="10.9999" x2="15.0002" y2="10.9999" gradientUnits="userSpaceOnUse">
<stop stop-color="#FDFC47"/>
<stop offset="1" stop-color="#24FE41"/>
</linearGradient>
<linearGradient id="paint2_linear_9_6023" x1="4.99976" y1="10.9999" x2="18.9998" y2="10.9999" gradientUnits="userSpaceOnUse">
<stop stop-color="#FDFC47"/>
<stop offset="1" stop-color="#24FE41"/>
</linearGradient>
</defs>
</svg>
