<svg width="24" height="24" viewBox="0 0 24 24" fill="none" xmlns="http://www.w3.org/2000/svg">
<path d="M8.99992 6C7.50042 6 6.45742 7.0366 6.06832 8.0332L3.19922 15.5176C3.19599 15.5252 3.19456 15.5334 3.1914 15.541L3.13281 15.6914H3.14453C3.05748 15.9462 3 16.2151 3 16.5C3 17.885 4.115 19 5.5 19H18.5C19.885 19 21 17.885 21 16.5C21 16.215 20.9425 15.9462 20.8555 15.6914H20.8672L20.8086 15.541L20.8047 15.5254C20.8036 15.5227 20.8019 15.5203 20.8008 15.5176L17.9316 8.03321C17.5424 7.03662 16.4994 6.00001 15 6.00001H11.9999L8.99992 6ZM8.99992 7H14.9999C16.1079 7 16.7084 7.6499 16.9999 8.3965L19.1874 14.1074C18.9678 14.0447 18.7402 14 18.4999 14H5.49992C5.25964 14 5.03203 14.0447 4.81242 14.1074L6.99992 8.3965C7.29145 7.64992 7.89192 7 8.99992 7ZM5.49992 15H18.4999C19.3309 15 19.9999 15.669 19.9999 16.5C19.9999 17.331 19.3309 18 18.4999 18H5.49992C4.66892 18 3.99992 17.331 3.99992 16.5C3.99992 15.669 4.66892 15 5.49992 15Z" fill="url(#paint0_linear_9_6036)"/>
<path d="M16.4998 17C16.7759 17 16.9998 16.7761 16.9998 16.5C16.9998 16.2239 16.7759 16 16.4998 16C16.2236 16 15.9998 16.2239 15.9998 16.5C15.9998 16.7761 16.2236 17 16.4998 17Z" fill="url(#paint1_linear_9_6036)"/>
<path d="M14.4998 17C14.7759 17 14.9998 16.7761 14.9998 16.5C14.9998 16.2239 14.7759 16 14.4998 16C14.2236 16 13.9998 16.2239 13.9998 16.5C13.9998 16.7761 14.2236 17 14.4998 17Z" fill="url(#paint2_linear_9_6036)"/>
<path d="M12.4998 17C12.7759 17 12.9998 16.7761 12.9998 16.5C12.9998 16.2239 12.7759 16 12.4998 16C12.2236 16 11.9998 16.2239 11.9998 16.5C11.9998 16.7761 12.2236 17 12.4998 17Z" fill="url(#paint3_linear_9_6036)"/>
<defs>
<linearGradient id="paint0_linear_9_6036" x1="3" y1="12.5" x2="21" y2="12.5" gradientUnits="userSpaceOnUse">
<stop stop-color="#FDFC47"/>
<stop offset="1" stop-color="#24FE41"/>
</linearGradient>
<linearGradient id="paint1_linear_9_6036" x1="15.9998" y1="16.5" x2="16.9998" y2="16.5" gradientUnits="userSpaceOnUse">
<stop stop-color="#FDFC47"/>
<stop offset="1" stop-color="#24FE41"/>
</linearGradient>
<linearGradient id="paint2_linear_9_6036" x1="13.9998" y1="16.5" x2="14.9998" y2="16.5" gradientUnits="userSpaceOnUse">
<stop stop-color="#FDFC47"/>
<stop offset="1" stop-color="#24FE41"/>
</linearGradient>
<linearGradient id="paint3_linear_9_6036" x1="11.9998" y1="16.5" x2="12.9998" y2="16.5" gradientUnits="userSpaceOnUse">
<stop stop-color="#FDFC47"/>
<stop offset="1" stop-color="#24FE41"/>
</linearGradient>
</defs>
</svg>
