<svg width="24" height="24" viewBox="0 0 24 24" fill="none" xmlns="http://www.w3.org/2000/svg">
<path d="M5 3H8V6H5V3Z" fill="url(#paint0_linear_9_6055)"/>
<path d="M10 3H13V6H10V3Z" fill="url(#paint1_linear_9_6055)"/>
<path d="M15 3H18V6H15V3Z" fill="url(#paint2_linear_9_6055)"/>
<path d="M5 8H8V11H5V8Z" fill="url(#paint3_linear_9_6055)"/>
<path d="M10 8H13V11H10V8Z" fill="url(#paint4_linear_9_6055)"/>
<path d="M15 8H18V11H15V8Z" fill="url(#paint5_linear_9_6055)"/>
<path d="M5 13H8V16H5V13Z" fill="url(#paint6_linear_9_6055)"/>
<path d="M10 13H13V16H10V13Z" fill="url(#paint7_linear_9_6055)"/>
<path d="M15 13H18V16H15V13Z" fill="url(#paint8_linear_9_6055)"/>
<path d="M10 18H13V21H10V18Z" fill="url(#paint9_linear_9_6055)"/>
<defs>
<linearGradient id="paint0_linear_9_6055" x1="5" y1="4.5" x2="8" y2="4.5" gradientUnits="userSpaceOnUse">
<stop stop-color="#FDFC47"/>
<stop offset="1" stop-color="#24FE41"/>
</linearGradient>
<linearGradient id="paint1_linear_9_6055" x1="10" y1="4.5" x2="13" y2="4.5" gradientUnits="userSpaceOnUse">
<stop stop-color="#FDFC47"/>
<stop offset="1" stop-color="#24FE41"/>
</linearGradient>
<linearGradient id="paint2_linear_9_6055" x1="15" y1="4.5" x2="18" y2="4.5" gradientUnits="userSpaceOnUse">
<stop stop-color="#FDFC47"/>
<stop offset="1" stop-color="#24FE41"/>
</linearGradient>
<linearGradient id="paint3_linear_9_6055" x1="5" y1="9.5" x2="8" y2="9.5" gradientUnits="userSpaceOnUse">
<stop stop-color="#FDFC47"/>
<stop offset="1" stop-color="#24FE41"/>
</linearGradient>
<linearGradient id="paint4_linear_9_6055" x1="10" y1="9.5" x2="13" y2="9.5" gradientUnits="userSpaceOnUse">
<stop stop-color="#FDFC47"/>
<stop offset="1" stop-color="#24FE41"/>
</linearGradient>
<linearGradient id="paint5_linear_9_6055" x1="15" y1="9.5" x2="18" y2="9.5" gradientUnits="userSpaceOnUse">
<stop stop-color="#FDFC47"/>
<stop offset="1" stop-color="#24FE41"/>
</linearGradient>
<linearGradient id="paint6_linear_9_6055" x1="5" y1="14.5" x2="8" y2="14.5" gradientUnits="userSpaceOnUse">
<stop stop-color="#FDFC47"/>
<stop offset="1" stop-color="#24FE41"/>
</linearGradient>
<linearGradient id="paint7_linear_9_6055" x1="10" y1="14.5" x2="13" y2="14.5" gradientUnits="userSpaceOnUse">
<stop stop-color="#FDFC47"/>
<stop offset="1" stop-color="#24FE41"/>
</linearGradient>
<linearGradient id="paint8_linear_9_6055" x1="15" y1="14.5" x2="18" y2="14.5" gradientUnits="userSpaceOnUse">
<stop stop-color="#FDFC47"/>
<stop offset="1" stop-color="#24FE41"/>
</linearGradient>
<linearGradient id="paint9_linear_9_6055" x1="10" y1="19.5" x2="13" y2="19.5" gradientUnits="userSpaceOnUse">
<stop stop-color="#FDFC47"/>
<stop offset="1" stop-color="#24FE41"/>
</linearGradient>
</defs>
</svg>
