<svg width="24" height="24" viewBox="0 0 24 24" fill="none" xmlns="http://www.w3.org/2000/svg">
<path d="M19.479 16.009C19.7574 15.9748 20.0488 16.0329 20.2572 16.1958C20.674 16.5214 20.7641 17.264 20.4385 17.6808L20.2224 17.9591L18.4847 20.182C18.0505 20.7377 17.0611 20.8597 16.5053 20.4255C15.9496 19.9913 15.8276 19.0019 16.2618 18.4461L17.9995 16.2232L18.276 16.4393L16.5402 18.6622C16.2145 19.079 16.3046 19.8215 16.7214 20.1472C17.1382 20.4728 17.8808 20.3827 18.2064 19.9659L19.9441 17.743L20.1602 17.4647C20.3773 17.1868 20.3172 16.6912 20.0393 16.4741C19.7615 16.257 19.2658 16.3189 19.0487 16.5968L18.8327 16.8732L17.529 18.5413L17.3129 18.8197C17.2044 18.9586 17.2344 19.2055 17.3733 19.314C17.5123 19.4226 17.7592 19.3926 17.8677 19.2536L19.3875 17.3072L19.6658 17.5251L18.146 19.4697C17.9289 19.7476 17.4351 19.8095 17.1573 19.5924C16.8794 19.3753 16.8175 18.8797 17.0346 18.6018L17.2525 18.3235L18.7723 16.3789C18.9351 16.1705 19.2006 16.0432 19.479 16.009Z" fill="url(#paint0_linear_9_6097)"/>
<path d="M12 9C10.32 9 9 10.32 9 12C9 13.68 10.32 15 12 15C13.68 15 15 13.68 15 12C15 10.32 13.68 9 12 9ZM12.0059 10.0059C12.5348 10.0075 13.0416 10.2183 13.4156 10.5923C13.7896 10.9663 14.0004 11.4731 14.002 12.002C14.0004 12.5309 13.7896 13.0377 13.4156 13.4117C13.0416 13.7857 12.5348 13.9965 12.0059 13.9981C10.9079 13.9981 9.99216 13.101 9.99216 12.002C9.99216 10.904 10.9078 10.0059 12.0059 10.0059Z" fill="url(#paint1_linear_9_6097)"/>
<path d="M11.99 3C9.60471 3.0026 7.31804 3.95196 5.63233 5.6395C3.94662 7.32705 2.99975 9.61475 2.99976 12C2.99976 14.3869 3.94797 16.6761 5.63579 18.364C7.32362 20.0518 9.61281 21 11.9998 21C13.0218 20.9997 14.0363 20.8253 14.9998 20.4844V19.4141C14.0467 19.8004 13.0281 19.9993 11.9998 20C9.87802 20 7.84319 19.1572 6.3429 17.6569C4.84261 16.1566 3.99976 14.1218 3.99976 12C3.99976 9.87829 4.84261 7.84346 6.3429 6.34317C7.84319 4.84287 9.87802 4.00002 11.9998 4.00002C14.1215 4.00002 16.1563 4.84287 17.6566 6.34317C19.1569 7.84346 19.9998 9.87829 19.9998 12C19.9997 13.0283 19.8014 14.0468 19.4158 15H20.4842C20.8251 14.0366 20.9995 13.022 20.9998 12C20.9998 9.61307 20.0516 7.32389 18.3638 5.63606C16.6759 3.94823 14.3867 3.00002 11.9998 3.00002C11.9965 3.00002 11.9932 3 11.99 3Z" fill="url(#paint2_linear_9_6097)"/>
<defs>
<linearGradient id="paint0_linear_9_6097" x1="15.9998" y1="18.3435" x2="20.6355" y2="18.3435" gradientUnits="userSpaceOnUse">
<stop stop-color="#FDFC47"/>
<stop offset="1" stop-color="#24FE41"/>
</linearGradient>
<linearGradient id="paint1_linear_9_6097" x1="9" y1="12" x2="15" y2="12" gradientUnits="userSpaceOnUse">
<stop stop-color="#FDFC47"/>
<stop offset="1" stop-color="#24FE41"/>
</linearGradient>
<linearGradient id="paint2_linear_9_6097" x1="2.99976" y1="12" x2="20.9998" y2="12" gradientUnits="userSpaceOnUse">
<stop stop-color="#FDFC47"/>
<stop offset="1" stop-color="#24FE41"/>
</linearGradient>
</defs>
</svg>
