<svg width="24" height="24" viewBox="0 0 24 24" fill="none" xmlns="http://www.w3.org/2000/svg">
<path d="M10.0002 9L14.4618 11.9827L10.0002 14.9654V9Z" fill="url(#paint0_linear_9_6113)"/>
<path d="M11.99 3C9.60471 3.0026 7.31804 3.95196 5.63233 5.6395C3.94662 7.32705 2.99975 9.61475 2.99976 12C2.99976 14.3869 3.94797 16.6761 5.63579 18.364C7.32362 20.0518 9.61281 21 11.9998 21C14.3867 21 16.6759 20.0518 18.3637 18.364C20.0515 16.6761 20.9998 14.3869 20.9998 12C20.9998 9.61305 20.0515 7.32387 18.3637 5.63604C16.6759 3.94821 14.3867 3 11.9998 3C11.9965 3 11.9932 3 11.99 3ZM11.9998 4C14.1215 4 16.1563 4.84286 17.6566 6.34315C19.1569 7.84344 19.9998 9.87827 19.9998 12C19.9998 14.1217 19.1569 16.1566 17.6566 17.6569C16.1563 19.1571 14.1215 20 11.9998 20C9.87802 20 7.84319 19.1571 6.3429 17.6569C4.84261 16.1566 3.99976 14.1217 3.99976 12C3.99976 9.87827 4.84261 7.84344 6.3429 6.34315C7.84319 4.84286 9.87802 4 11.9998 4Z" fill="url(#paint1_linear_9_6113)"/>
<defs>
<linearGradient id="paint0_linear_9_6113" x1="10.0002" y1="11.9827" x2="14.4618" y2="11.9827" gradientUnits="userSpaceOnUse">
<stop stop-color="#FDFC47"/>
<stop offset="1" stop-color="#24FE41"/>
</linearGradient>
<linearGradient id="paint1_linear_9_6113" x1="2.99976" y1="12" x2="20.9998" y2="12" gradientUnits="userSpaceOnUse">
<stop stop-color="#FDFC47"/>
<stop offset="1" stop-color="#24FE41"/>
</linearGradient>
</defs>
</svg>
