<svg width="24" height="24" viewBox="0 0 24 24" fill="none" xmlns="http://www.w3.org/2000/svg">
<path d="M13.5669 7.53781C13.6231 8.05059 13.4177 8.56351 13.1123 8.93401C12.8066 9.30366 12.3046 9.59269 11.8135 9.55437C11.7471 9.05184 11.9952 8.52877 12.2784 8.20087C12.594 7.83122 13.127 7.55572 13.5669 7.53781ZM13.5583 9.65351C13.8436 9.66542 14.6439 9.76784 15.1579 10.52C15.1171 10.5464 14.2018 11.0781 14.2128 12.1863C14.2244 13.5099 15.3736 13.9508 15.3869 13.9568C15.3767 13.9874 15.204 14.5842 14.782 15.2009C14.417 15.7341 14.0383 16.2648 13.4422 16.2759C12.8558 16.2869 12.6679 15.929 11.9981 15.929C11.3282 15.929 11.1183 16.264 10.5643 16.2861C9.98892 16.3075 9.55096 15.712 9.18346 15.1804C8.43137 14.0945 7.85806 12.1102 8.62975 10.7712C9.01217 10.1061 9.69685 9.68513 10.4396 9.67403C11.0047 9.66376 11.537 10.0551 11.882 10.0551C12.2278 10.0551 12.8769 9.58452 13.5583 9.65351Z" fill="url(#paint0_linear_9_6110)"/>
<path d="M7 4C5.338 4 4 5.338 4 7V17C4 18.662 5.338 20 7 20H17C18.662 20 20 18.662 20 17V7C20 5.338 18.662 4 17 4H7ZM7 5H17C18.108 5 19 5.892 19 7V17C19 18.108 18.108 19 17 19H7C5.892 19 5 18.108 5 17V7C5 5.892 5.892 5 7 5Z" fill="url(#paint1_linear_9_6110)"/>
<defs>
<linearGradient id="paint0_linear_9_6110" x1="8.26318" y1="11.9122" x2="15.3869" y2="11.9122" gradientUnits="userSpaceOnUse">
<stop stop-color="#FDFC47"/>
<stop offset="1" stop-color="#24FE41"/>
</linearGradient>
<linearGradient id="paint1_linear_9_6110" x1="4" y1="12" x2="20" y2="12" gradientUnits="userSpaceOnUse">
<stop stop-color="#FDFC47"/>
<stop offset="1" stop-color="#24FE41"/>
</linearGradient>
</defs>
</svg>
