<svg width="24" height="24" viewBox="0 0 24 24" fill="none" xmlns="http://www.w3.org/2000/svg">
<path d="M12 6.6915C8.97903 6.6915 6.12553 8.0248 4.17113 10.3498C3.91153 10.6586 3.95242 11.1191 4.2617 11.3787C4.39853 11.4936 4.56481 11.5494 4.73087 11.5494C4.93931 11.5494 5.14598 11.4615 5.29061 11.2896C6.96601 9.29622 9.41151 8.15242 12 8.15242C14.5885 8.15242 17.0341 9.29672 18.7094 11.2896C18.8541 11.4615 19.0607 11.5494 19.2691 11.5494C19.4352 11.5494 19.603 11.4941 19.7398 11.3787C20.0486 11.1196 20.0885 10.6581 19.8289 10.3498C17.875 8.0247 15.021 6.6915 12 6.6915ZM12 9.7856C9.84203 9.7856 7.80443 10.7384 6.40863 12.3987C6.14905 12.7075 6.18844 13.168 6.49771 13.4276C6.63454 13.5425 6.80079 13.5983 6.96688 13.5983C7.17532 13.5983 7.38246 13.5104 7.52662 13.3385C8.64332 12.0094 10.2745 11.2465 12 11.2465C13.7255 11.2465 15.3562 12.0094 16.4734 13.3385C16.6181 13.5109 16.8252 13.5983 17.0332 13.5983C17.1993 13.5983 17.3655 13.543 17.5023 13.4276C17.8116 13.168 17.851 12.707 17.5914 12.3987C16.1951 10.7384 14.158 9.7856 12 9.7856ZM12 13C10.7045 13 9.48123 13.5704 8.64463 14.5664C8.38503 14.8752 8.42592 15.3357 8.7352 15.5953C8.87203 15.7102 9.03828 15.7675 9.20437 15.7675C9.41281 15.7675 9.61995 15.6781 9.76411 15.5062C10.3227 14.8414 11.1376 14.461 12.0001 14.461C12.8626 14.461 13.6775 14.8415 14.2361 15.5062C14.3808 15.6786 14.5879 15.7675 14.7958 15.7675C14.9619 15.7675 15.1282 15.7107 15.265 15.5953C15.5743 15.3357 15.6152 14.8751 15.3556 14.5664C14.5189 13.5704 13.2954 13 12 13ZM11.9377 15.7734C11.3663 15.8278 10.8168 16.2552 10.7974 16.8914C10.7974 17.5556 11.3358 18.094 12 18.094C12.6641 18.094 13.2026 17.5556 13.2026 16.8914C13.1009 16.0375 12.5091 15.719 11.9377 15.7734Z" fill="url(#paint0_linear_9_6133)"/>
<defs>
<linearGradient id="paint0_linear_9_6133" x1="4.00024" y1="12.3927" x2="20.0002" y2="12.3927" gradientUnits="userSpaceOnUse">
<stop stop-color="#FDFC47"/>
<stop offset="1" stop-color="#24FE41"/>
</linearGradient>
</defs>
</svg>
