<svg width="24" height="24" viewBox="0 0 24 24" fill="none" xmlns="http://www.w3.org/2000/svg">
<path d="M12 3C6.7533 3 2.5 7.2533 2.5 12.5C2.50044 16.164 4.6079 19.5011 7.916 21.0762L8.32616 20.1641C5.37696 18.7506 3.50036 15.7704 3.49996 12.5C3.49955 7.84949 7.23656 4.06199 11.8867 3.99999C11.9244 3.99974 11.9622 3.99974 11.9999 3.99999C16.6943 3.99999 20.4999 7.80559 20.4999 12.5C20.4996 15.7704 18.6229 18.7506 15.6737 20.1641L16.0839 21.0762C19.392 19.5011 21.4995 16.164 21.4999 12.5C21.4999 7.2533 17.2467 3 12 3ZM11.9629 5C7.83529 5.02042 4.49989 8.3723 4.49999 12.5C4.50024 15.3769 6.14609 18.0001 8.73629 19.252L9.14645 18.3399C6.91515 17.2497 5.50005 14.9835 5.49995 12.5001C5.49995 8.91019 8.41005 6.00009 12 6.00009C15.5899 6.00009 18.5 8.91019 18.5 12.5001C18.4998 14.9835 17.0847 17.2497 14.8534 18.3399L15.2636 19.252C17.8538 18.0001 19.4997 15.3769 19.4999 12.5C19.4999 8.3579 16.142 5 11.9999 5C11.9875 4.99997 11.9753 4.99997 11.9629 5ZM12 7C8.9624 7 6.5 9.4624 6.5 12.5C6.49991 14.5899 7.6843 16.4993 9.5566 17.4277L9.96871 16.5136C8.45511 15.748 7.50061 14.1962 7.49991 12.4999C7.49991 10.0146 9.51461 7.99994 11.9999 7.99994C14.4852 7.99994 16.4999 10.0146 16.4999 12.4999C16.4999 14.1969 15.5454 15.7495 14.0311 16.5155L14.4432 17.4277C16.3155 16.4992 17.4999 14.5899 17.4998 12.5C17.4998 9.46235 15.0376 7 12 7ZM12 9C10.067 9 8.5 10.567 8.5 12.5C8.50013 13.803 9.22408 14.9981 10.3789 15.6016L10.791 14.6875C9.99472 14.2476 9.50031 13.4097 9.50001 12.5C9.50001 11.1193 10.6193 10 12 10C13.3807 10 14.5 11.1193 14.5 12.5C14.4997 13.4098 14.0053 14.2475 13.209 14.6875L13.6211 15.6016C14.7759 14.9981 15.4999 13.803 15.5 12.5C15.5 10.567 13.933 9 12 9ZM12 11C11.1716 11 10.5 11.6716 10.5 12.5C10.5 13.3284 11.1716 14 12 14C12.8284 14 13.5 13.3284 13.5 12.5C13.5 11.6716 12.8284 11 12 11Z" fill="url(#paint0_linear_9_6117)"/>
<defs>
<linearGradient id="paint0_linear_9_6117" x1="2.5" y1="12.0381" x2="21.4999" y2="12.0381" gradientUnits="userSpaceOnUse">
<stop stop-color="#FDFC47"/>
<stop offset="1" stop-color="#24FE41"/>
</linearGradient>
</defs>
</svg>
