<svg width="16" height="16" viewBox="0 0 16 16" fill="none" xmlns="http://www.w3.org/2000/svg">
<path d="M7.0625 0.999993C6.6075 1.04999 6.1785 1.22099 5.8125 1.49999C5.3245 1.87099 5 2.45449 5 3.18749V6.99999H2.5C2.223 6.99999 2 7.22208 2 7.49608V14.5059C2 14.7799 2.223 15 2.5 15H8.5C8.777 15 9 14.7799 9 14.5059V7.49608C8.99988 7.43064 8.98684 7.36586 8.96162 7.30547C8.9364 7.24508 8.89951 7.19027 8.85305 7.14418C8.80659 7.09808 8.75149 7.06162 8.6909 7.03687C8.63032 7.01213 8.56544 6.9996 8.5 6.99999H6V3.18749C6 2.73849 6.1715 2.48424 6.4375 2.28124C6.7035 2.07924 7.101 1.98099 7.5 1.99999C7.899 2.01899 8.2835 2.15424 8.5625 2.40624C8.8405 2.65824 9.03125 2.99124 9.03125 3.53124C9.03125 5.69724 10.4952 7.04104 12.0312 7.00004C12.8882 6.97804 13.7203 6.52354 14.2812 5.68754L13.7188 4.68754C13.3438 5.60354 12.651 5.98304 12 6.00004C11.04 6.02504 10.0311 5.27029 10.0311 3.53124C10.0311 2.73924 9.69465 2.08724 9.21865 1.65624C8.74265 1.22624 8.13815 1.02899 7.53115 0.999993C7.38015 0.992993 7.2135 0.982993 7.0625 0.999993ZM14 2.99999V3.12499L14.7812 4.49999C14.7922 4.45999 14.8025 4.41699 14.8125 4.37499L14 2.99999ZM14 3.34374L13.9707 3.65624L14.6875 4.87504C14.7105 4.81204 14.731 4.75354 14.75 4.68754L14 3.34374ZM13.9375 3.84374C13.9235 3.93374 13.8959 4.00974 13.8789 4.09374L14.5332 5.21874C14.5632 5.15774 14.6 5.09524 14.627 5.03124L13.9375 3.84374ZM13.8438 4.28124C13.8197 4.37124 13.779 4.45124 13.75 4.53124L14.3438 5.56244C14.3837 5.49644 14.4317 5.44394 14.4688 5.37494L13.8438 4.28124ZM2.99975 8.00004H7.99975V14H2.99975V8.00004Z" fill="url(#paint0_linear_9_6198)"/>
<defs>
<linearGradient id="paint0_linear_9_6198" x1="2" y1="7.99533" x2="14.8125" y2="7.99533" gradientUnits="userSpaceOnUse">
<stop stop-color="#FDFC47"/>
<stop offset="1" stop-color="#24FE41"/>
</linearGradient>
</defs>
</svg>
