<svg width="16" height="16" viewBox="0 0 16 16" fill="none" xmlns="http://www.w3.org/2000/svg">
<path d="M2 3C0.892 3 0 3.892 0 5V10C0 11.108 0.892 12 2 12C2 12.554 2.446 13 3 13H4C4.554 13 5 12.554 5 12H11C11 12.554 11.446 13 12 13H13C13.554 13 14 12.554 14 12C15.108 12 16 11.108 16 10V5C16 3.892 15.108 3 14 3H2ZM2 4H14C14.554 4 15 4.446 15 5V10C15 10.554 14.554 11 14 11H2C1.446 11 1 10.554 1 10V5C1 4.446 1.446 4 2 4ZM2.5 5C2.223 5 2 5.223 2 5.5V9.5C2 9.777 2.223 10 2.5 10C2.777 10 3 9.777 3 9.5V5.5C3 5.223 2.777 5 2.5 5ZM4.5 5C4.223 5 4 5.223 4 5.5V9.5C4 9.777 4.223 10 4.5 10C4.777 10 5 9.777 5 9.5V5.5C5 5.223 4.777 5 4.5 5ZM6.5 5C6.223 5 6 5.223 6 5.5V9.5C6 9.777 6.223 10 6.5 10C6.777 10 7 9.777 7 9.5V5.5C7 5.223 6.777 5 6.5 5ZM11.5 5C10.837 5 10.2011 5.26339 9.73223 5.73223C9.26339 6.20107 9 6.83696 9 7.5C9 8.16304 9.26339 8.79893 9.73223 9.26777C10.2011 9.73661 10.837 10 11.5 10C12.163 10 12.7989 9.73661 13.2678 9.26777C13.7366 8.79893 14 8.16304 14 7.5C14 6.83696 13.7366 6.20107 13.2678 5.73223C12.7989 5.26339 12.163 5 11.5 5ZM11.5 6C11.8978 6 12.2794 6.15804 12.5607 6.43934C12.842 6.72064 13 7.10218 13 7.5C13 7.89782 12.842 8.27936 12.5607 8.56066C12.2794 8.84196 11.8978 9 11.5 9C11.1022 9 10.7206 8.84196 10.4393 8.56066C10.158 8.27936 10 7.89782 10 7.5C10 7.10218 10.158 6.72064 10.4393 6.43934C10.7206 6.15804 11.1022 6 11.5 6Z" fill="url(#paint0_linear_9_6204)"/>
<defs>
<linearGradient id="paint0_linear_9_6204" x1="0" y1="8" x2="16" y2="8" gradientUnits="userSpaceOnUse">
<stop stop-color="#FDFC47"/>
<stop offset="1" stop-color="#24FE41"/>
</linearGradient>
</defs>
</svg>
