<svg width="16" height="16" viewBox="0 0 16 16" fill="none" xmlns="http://www.w3.org/2000/svg">
<g clip-path="url(#clip0_9_6213)">
<path d="M5.99992 2C4.50042 2 3.45742 3.0366 3.06832 4.0332L0.199218 11.5176C0.195986 11.5252 0.194564 11.5334 0.191405 11.541L0.132811 11.6914H0.14453C0.05748 11.9462 0 12.2151 0 12.5C0 13.885 1.115 15 2.5 15H13.5C14.885 15 16 13.885 16 12.5C16 12.215 15.9425 11.9462 15.8555 11.6914H15.8672L15.8086 11.541L15.8047 11.5254C15.8036 11.5227 15.8019 11.5203 15.8008 11.5176L12.9316 4.03321C12.5424 3.03662 11.4994 2.00001 10 2.00001H8L5.99992 2ZM5.99992 3H9.99992C11.1079 3 11.7084 3.6499 11.9999 4.3965L14.1874 10.1074C13.9678 10.0447 13.7402 9.99998 13.4999 9.99998H2.49992C2.25964 9.99998 2.03203 10.0447 1.81242 10.1074L3.99992 4.3965C4.29145 3.64992 4.89192 3 5.99992 3ZM2.49992 11H13.4999C14.3309 11 14.9999 11.669 14.9999 12.5C14.9999 13.331 14.3309 14 13.4999 14H2.49992C1.66892 14 0.999918 13.331 0.999918 12.5C0.999918 11.669 1.66892 11 2.49992 11Z" fill="url(#paint0_linear_9_6213)"/>
<path d="M12.5 13C12.7761 13 13 12.7761 13 12.5C13 12.2239 12.7761 12 12.5 12C12.2239 12 12 12.2239 12 12.5C12 12.7761 12.2239 13 12.5 13Z" fill="url(#paint1_linear_9_6213)"/>
<path d="M10.5 13C10.7761 13 11 12.7761 11 12.5C11 12.2239 10.7761 12 10.5 12C10.2239 12 10 12.2239 10 12.5C10 12.7761 10.2239 13 10.5 13Z" fill="url(#paint2_linear_9_6213)"/>
<path d="M8.5 13C8.77614 13 9 12.7761 9 12.5C9 12.2239 8.77614 12 8.5 12C8.22386 12 8 12.2239 8 12.5C8 12.7761 8.22386 13 8.5 13Z" fill="url(#paint3_linear_9_6213)"/>
</g>
<defs>
<linearGradient id="paint0_linear_9_6213" x1="0" y1="8.50001" x2="16" y2="8.50001" gradientUnits="userSpaceOnUse">
<stop stop-color="#FDFC47"/>
<stop offset="1" stop-color="#24FE41"/>
</linearGradient>
<linearGradient id="paint1_linear_9_6213" x1="12" y1="12.5" x2="13" y2="12.5" gradientUnits="userSpaceOnUse">
<stop stop-color="#FDFC47"/>
<stop offset="1" stop-color="#24FE41"/>
</linearGradient>
<linearGradient id="paint2_linear_9_6213" x1="10" y1="12.5" x2="11" y2="12.5" gradientUnits="userSpaceOnUse">
<stop stop-color="#FDFC47"/>
<stop offset="1" stop-color="#24FE41"/>
</linearGradient>
<linearGradient id="paint3_linear_9_6213" x1="8" y1="12.5" x2="9" y2="12.5" gradientUnits="userSpaceOnUse">
<stop stop-color="#FDFC47"/>
<stop offset="1" stop-color="#24FE41"/>
</linearGradient>
<clipPath id="clip0_9_6213">
<rect width="16" height="16" fill="white"/>
</clipPath>
</defs>
</svg>
