<svg width="16" height="16" viewBox="0 0 16 16" fill="none" xmlns="http://www.w3.org/2000/svg">
<g clip-path="url(#clip0_9_6219)">
<path d="M4.58476 6.9013V5.4794H4.97062V6.8866C4.97062 7.10891 5.01396 7.27598 5.10065 7.38783C5.18733 7.49828 5.31734 7.55351 5.4907 7.55351C5.69901 7.55351 5.86328 7.4871 5.98352 7.35428C6.10515 7.22146 6.16597 7.0404 6.16597 6.81111V5.47941H6.55184V7.82821H6.16597V7.46749C6.07229 7.6101 5.96324 7.71636 5.83881 7.78627C5.71577 7.85478 5.57247 7.88903 5.40889 7.88903C5.13906 7.88903 4.93424 7.80514 4.79444 7.63737C4.65462 7.4696 4.58476 7.22425 4.58476 6.9013Z" fill="url(#paint0_linear_9_6219)"/>
<path d="M8.84854 5.5487V5.91361C8.73949 5.85769 8.62624 5.81574 8.50881 5.78778C8.39137 5.75981 8.26973 5.74583 8.1439 5.74583C7.95237 5.74583 7.80837 5.77518 7.7119 5.8339C7.61683 5.89263 7.56929 5.9807 7.56929 6.09813C7.56929 6.18761 7.60354 6.25822 7.67205 6.30994C7.74056 6.36028 7.87827 6.40851 8.0852 6.45465L8.21732 6.48403C8.49135 6.54275 8.68568 6.62594 8.80032 6.73359C8.91636 6.83984 8.97438 6.98874 8.97438 7.18027C8.97438 7.39838 8.8877 7.57104 8.71434 7.69826C8.54237 7.82548 8.30539 7.88909 8.0034 7.88909C7.87757 7.88909 7.74615 7.87651 7.60912 7.85136C7.47351 7.8276 7.3302 7.79125 7.1792 7.74231V7.34384C7.3218 7.41794 7.46231 7.47386 7.60073 7.51161C7.73914 7.54796 7.87616 7.56613 8.01177 7.56613C8.19353 7.56613 8.33334 7.53537 8.4312 7.47386C8.52907 7.41094 8.578 7.32287 8.578 7.20963C8.578 7.10477 8.54235 7.02438 8.47104 6.96846C8.40113 6.91253 8.24664 6.85871 8.00756 6.80698L7.87334 6.77551C7.63427 6.72518 7.4616 6.64828 7.35535 6.54482C7.2491 6.43996 7.19597 6.29665 7.19597 6.1149C7.19597 5.894 7.27426 5.72344 7.43085 5.60321C7.58744 5.48297 7.80973 5.42285 8.09774 5.42285C8.24035 5.42285 8.37457 5.43334 8.5004 5.45432C8.62623 5.47529 8.74229 5.50676 8.84854 5.5487Z" fill="url(#paint1_linear_9_6219)"/>
<path d="M11.2789 6.65699C11.2789 6.37317 11.2202 6.15088 11.1027 5.9901C10.9867 5.82792 10.8266 5.74683 10.6225 5.74683C10.4184 5.74683 10.2576 5.82792 10.1401 5.9901C10.0241 6.15089 9.96608 6.37319 9.96608 6.65699C9.96608 6.94081 10.0241 7.16381 10.1401 7.32599C10.2576 7.48677 10.4184 7.56716 10.6225 7.56716C10.8266 7.56716 10.9867 7.48677 11.1027 7.32599C11.2202 7.16381 11.2789 6.94081 11.2789 6.65699ZM9.9661 5.83702C10.0472 5.69721 10.1492 5.59375 10.2723 5.52663C10.3967 5.45813 10.5449 5.42387 10.7169 5.42387C11.0021 5.42387 11.2335 5.53712 11.411 5.7636C11.59 5.99009 11.6794 6.28789 11.6794 6.65699C11.6794 7.0261 11.59 7.3239 11.411 7.55039C11.2335 7.77688 11.0021 7.89012 10.7169 7.89012C10.5449 7.89012 10.3967 7.85657 10.2723 7.78946C10.1492 7.72096 10.0472 7.6168 9.9661 7.47698V7.82929H9.57812V4.56619H9.9661V5.83702Z" fill="url(#paint2_linear_9_6219)"/>
<path d="M5.99992 2C4.50042 2 3.45742 3.0366 3.06832 4.0332L0.199218 11.5176C0.195986 11.5252 0.194564 11.5334 0.191405 11.541L0.132811 11.6914H0.14453C0.05748 11.9462 0 12.2151 0 12.5C0 13.885 1.115 15 2.5 15H13.5C14.885 15 16 13.885 16 12.5C16 12.215 15.9425 11.9462 15.8555 11.6914H15.8672L15.8086 11.541L15.8047 11.5254C15.8036 11.5227 15.8019 11.5203 15.8008 11.5176L12.9316 4.03321C12.5424 3.03662 11.4994 2.00001 10 2.00001H8L5.99992 2ZM5.99992 3H9.99992C11.1079 3 11.7084 3.6499 11.9999 4.3965L14.1874 10.1074C13.9678 10.0447 13.7402 9.99998 13.4999 9.99998H2.49992C2.25964 9.99998 2.03203 10.0447 1.81242 10.1074L3.99992 4.3965C4.29145 3.64992 4.89192 3 5.99992 3ZM2.49992 11H13.4999C14.3309 11 14.9999 11.669 14.9999 12.5C14.9999 13.331 14.3309 14 13.4999 14H2.49992C1.66892 14 0.999918 13.331 0.999918 12.5C0.999918 11.669 1.66892 11 2.49992 11Z" fill="url(#paint3_linear_9_6219)"/>
<path d="M12.5 13C12.7761 13 13 12.7761 13 12.5C13 12.2239 12.7761 12 12.5 12C12.2239 12 12 12.2239 12 12.5C12 12.7761 12.2239 13 12.5 13Z" fill="url(#paint4_linear_9_6219)"/>
<path d="M10.5 13C10.7761 13 11 12.7761 11 12.5C11 12.2239 10.7761 12 10.5 12C10.2239 12 10 12.2239 10 12.5C10 12.7761 10.2239 13 10.5 13Z" fill="url(#paint5_linear_9_6219)"/>
<path d="M8.5 13C8.77614 13 9 12.7761 9 12.5C9 12.2239 8.77614 12 8.5 12C8.22386 12 8 12.2239 8 12.5C8 12.7761 8.22386 13 8.5 13Z" fill="url(#paint6_linear_9_6219)"/>
</g>
<defs>
<linearGradient id="paint0_linear_9_6219" x1="4.58472" y1="6.68422" x2="6.55184" y2="6.68422" gradientUnits="userSpaceOnUse">
<stop stop-color="#FDFC47"/>
<stop offset="1" stop-color="#24FE41"/>
</linearGradient>
<linearGradient id="paint1_linear_9_6219" x1="7.1792" y1="6.65597" x2="8.97438" y2="6.65597" gradientUnits="userSpaceOnUse">
<stop stop-color="#FDFC47"/>
<stop offset="1" stop-color="#24FE41"/>
</linearGradient>
<linearGradient id="paint2_linear_9_6219" x1="9.57812" y1="6.22816" x2="11.6794" y2="6.22816" gradientUnits="userSpaceOnUse">
<stop stop-color="#FDFC47"/>
<stop offset="1" stop-color="#24FE41"/>
</linearGradient>
<linearGradient id="paint3_linear_9_6219" x1="0" y1="8.50001" x2="16" y2="8.50001" gradientUnits="userSpaceOnUse">
<stop stop-color="#FDFC47"/>
<stop offset="1" stop-color="#24FE41"/>
</linearGradient>
<linearGradient id="paint4_linear_9_6219" x1="12" y1="12.5" x2="13" y2="12.5" gradientUnits="userSpaceOnUse">
<stop stop-color="#FDFC47"/>
<stop offset="1" stop-color="#24FE41"/>
</linearGradient>
<linearGradient id="paint5_linear_9_6219" x1="10" y1="12.5" x2="11" y2="12.5" gradientUnits="userSpaceOnUse">
<stop stop-color="#FDFC47"/>
<stop offset="1" stop-color="#24FE41"/>
</linearGradient>
<linearGradient id="paint6_linear_9_6219" x1="8" y1="12.5" x2="9" y2="12.5" gradientUnits="userSpaceOnUse">
<stop stop-color="#FDFC47"/>
<stop offset="1" stop-color="#24FE41"/>
</linearGradient>
<clipPath id="clip0_9_6219">
<rect width="16" height="16" fill="white"/>
</clipPath>
</defs>
</svg>
