<svg width="16" height="17" viewBox="0 0 16 17" fill="none" xmlns="http://www.w3.org/2000/svg">
<g clip-path="url(#clip0_9_6231)">
<path d="M2 10.15V11.01C2 13.841 4.695 16.15 8 16.15C11.305 16.15 14 13.841 14 11.01V10.15H6H2ZM3 11.007H6V11.01C6 11.951 6.902 12.723 8 12.723C9.099 12.723 10 11.951 10 11.01V11.007H13V11.01C13 13.38 10.768 15.293 8 15.293C5.233 15.293 3 13.381 3 11.01V11.007ZM7 11.007H9V11.01C9 11.488 8.558 11.867 8 11.867C7.442 11.867 7 11.488 7 11.01V11.007Z" fill="url(#paint0_linear_9_6231)"/>
<path fill-rule="evenodd" clip-rule="evenodd" d="M2.47989 1.00701C2.47989 1.00701 2.13995 1.01601 1.78995 1.20401C1.56305 1.33311 1.37205 1.51696 1.23441 1.73879C1.09677 1.96062 1.01678 2.21338 1.00187 2.47401V2.444L0.0018662 10.444C-0.00517936 10.4921 -0.00517936 10.5409 0.0018662 10.589L0.251866 12.089C0.287866 12.309 0.374905 12.522 0.541905 12.7C0.632546 12.7954 0.741295 12.8717 0.861852 12.9244C0.982408 12.9771 1.11236 13.0052 1.24393 13.007H2.49393C2.62654 13.007 2.75368 12.9543 2.84745 12.8606C2.94122 12.7668 2.99393 12.6396 2.99393 12.507C2.99393 12.3744 2.94122 12.2472 2.84745 12.1535C2.75368 12.0597 2.62654 12.007 2.49393 12.007H1.26993C1.25993 11.997 1.24693 11.972 1.23893 11.925L0.999913 10.497L1.9899 2.57001C1.9902 2.56001 1.9902 2.55 1.9899 2.54C2.0129 2.218 2.11987 2.15801 2.25187 2.08701C2.38387 2.01701 2.50992 2.00701 2.50992 2.00701H13.4999C13.5116 2.00675 13.5233 2.00608 13.5349 2.00501C13.5349 2.00501 13.645 2.00301 13.758 2.05801C13.87 2.11201 13.9779 2.15201 14.0019 2.53801C14.0015 2.54834 14.0015 2.55867 14.0019 2.569L14.9919 10.497L14.7559 11.925C14.7459 11.972 14.7289 11.997 14.7229 12.007H13.4999C13.3673 12.007 13.2402 12.0597 13.1464 12.1535C13.0526 12.2472 12.9999 12.3744 12.9999 12.507C12.9999 12.6396 13.0526 12.7668 13.1464 12.8606C13.2402 12.9543 13.3673 13.007 13.4999 13.007H14.7499C14.8817 13.0053 15.0117 12.9773 15.1325 12.9246C15.2532 12.8719 15.3622 12.7955 15.4529 12.7C15.6189 12.522 15.7079 12.308 15.7439 12.089L15.9939 10.589C16.001 10.5409 16.001 10.4921 15.9939 10.444L14.9999 2.47601C14.9579 1.79801 14.5649 1.33701 14.1929 1.15701C13.8219 0.977009 13.467 1.00901 13.467 1.00901L13.4999 1.00701H2.49991C2.49325 1.00687 2.48656 1.00687 2.47989 1.00701Z" fill="url(#paint1_linear_9_6231)"/>
<path fill-rule="evenodd" clip-rule="evenodd" d="M0.5 10.007V12.007H2.5V10.007H0.5ZM13.5 10.007V12.007H15.5V10.007H13.5Z" fill="url(#paint2_linear_9_6231)"/>
<path fill-rule="evenodd" clip-rule="evenodd" d="M2 10.007V11.007H14V10.007H2Z" fill="url(#paint3_linear_9_6231)"/>
</g>
<defs>
<linearGradient id="paint0_linear_9_6231" x1="2" y1="13.15" x2="14" y2="13.15" gradientUnits="userSpaceOnUse">
<stop stop-color="#FDFC47"/>
<stop offset="1" stop-color="#24FE41"/>
</linearGradient>
<linearGradient id="paint1_linear_9_6231" x1="-0.00341797" y1="7.00691" x2="15.9992" y2="7.00691" gradientUnits="userSpaceOnUse">
<stop stop-color="#FDFC47"/>
<stop offset="1" stop-color="#24FE41"/>
</linearGradient>
<linearGradient id="paint2_linear_9_6231" x1="0.5" y1="11.007" x2="15.5" y2="11.007" gradientUnits="userSpaceOnUse">
<stop stop-color="#FDFC47"/>
<stop offset="1" stop-color="#24FE41"/>
</linearGradient>
<linearGradient id="paint3_linear_9_6231" x1="2" y1="10.507" x2="14" y2="10.507" gradientUnits="userSpaceOnUse">
<stop stop-color="#FDFC47"/>
<stop offset="1" stop-color="#24FE41"/>
</linearGradient>
<clipPath id="clip0_9_6231">
<rect width="16" height="16.15" fill="white"/>
</clipPath>
</defs>
</svg>
