<svg width="16" height="16" viewBox="0 0 16 16" fill="none" xmlns="http://www.w3.org/2000/svg">
<g clip-path="url(#clip0_9_6248)">
<path d="M7.68021 0.0020113C5.60275 -0.0445738 3.58037 0.673165 1.9971 2.01901C1.94707 2.06156 1.90595 2.11355 1.87601 2.172C1.84607 2.23046 1.82796 2.29424 1.82267 2.35971C1.81737 2.42517 1.82496 2.49104 1.84513 2.55355C1.86529 2.61606 1.89755 2.67398 1.9401 2.72401C1.98265 2.77405 2.03472 2.81521 2.09317 2.84515C2.15163 2.87509 2.21533 2.89323 2.2808 2.89853C2.34626 2.90382 2.41214 2.89616 2.47464 2.876C2.53715 2.85583 2.59514 2.82356 2.64518 2.78101C4.04203 1.59293 5.82609 0.958325 7.65946 0.997396C9.49282 1.03647 11.2482 1.74649 12.5932 2.99301C12.6411 3.03902 12.6976 3.07504 12.7596 3.09896C12.8215 3.12287 12.8876 3.13421 12.954 3.13231C13.0204 3.1304 13.0857 3.11529 13.1462 3.08786C13.2066 3.06044 13.261 3.02124 13.3062 2.97256C13.3513 2.92388 13.3864 2.86669 13.4092 2.80433C13.432 2.74197 13.4422 2.6757 13.4391 2.60936C13.436 2.54303 13.4198 2.47798 13.3913 2.418C13.3628 2.35802 13.3226 2.30431 13.2731 2.26001C11.7488 0.847578 9.75792 0.0440562 7.68021 0.0020113ZM7.50016 1.99801C5.78143 1.998 4.13271 2.6787 2.91458 3.8912C1.69646 5.10371 1.00809 6.74931 1.00016 8.46801C0.999948 8.47635 0.999948 8.48468 1.00016 8.49301C1.00015 8.49468 1.00015 8.49635 1.00016 8.49801C1.00015 8.49901 1.00015 8.50001 1.00016 8.50101C1.00015 8.50201 1.00015 8.50301 1.00016 8.50401V8.51401C0.99998 8.52168 0.99998 8.52935 1.00016 8.53701C1.00016 9.82102 1.23713 11.095 1.69913 12.293C1.72277 12.3543 1.75822 12.4103 1.8035 12.4578C1.84878 12.5054 1.90301 12.5436 1.96305 12.5702C2.02308 12.5968 2.08783 12.6113 2.15348 12.6129C2.21912 12.6145 2.28435 12.6031 2.34562 12.5795C2.40688 12.5559 2.46298 12.5204 2.51053 12.4751C2.55808 12.4298 2.59623 12.3756 2.62284 12.3156C2.64944 12.2556 2.66396 12.1909 2.66556 12.1252C2.66717 12.0596 2.65575 11.9943 2.63211 11.933C2.2106 10.8401 1.99602 9.67838 1.99918 8.50702C1.99921 8.50402 1.99921 8.50101 1.99918 8.49801C1.99918 7.03932 2.57857 5.64037 3.61002 4.60892C4.64147 3.57747 6.04049 2.99801 7.49918 2.99801C8.95787 2.99801 10.3568 3.57747 11.3882 4.60892C12.4197 5.64037 12.9992 7.03932 12.9992 8.49801C12.9992 8.89584 12.8412 9.27737 12.5598 9.55867C12.2785 9.83998 11.897 9.99801 11.4992 9.99801C11.1014 9.99801 10.7198 9.83998 10.4385 9.55867C10.1572 9.27737 9.99918 8.89584 9.99918 8.49801C9.99918 7.83497 9.73572 7.19909 9.26688 6.73024C8.79804 6.2614 8.16222 5.99801 7.49918 5.99801C6.84148 5.99823 6.21036 6.25762 5.74259 6.71996C5.27482 7.1823 5.00805 7.81036 5.00016 8.46801C5.0001 8.47801 5.0001 8.48801 5.00016 8.49801C5.00014 8.50001 5.00014 8.50201 5.00016 8.50401C4.99016 12.06 7.86611 14.967 11.4241 14.998C11.4898 14.9987 11.555 14.9864 11.6159 14.9619C11.6768 14.9373 11.7323 14.9011 11.7792 14.8551C11.8261 14.8091 11.8635 14.7544 11.8892 14.694C11.9149 14.6336 11.9285 14.5687 11.9291 14.503C11.9298 14.4373 11.9175 14.3722 11.893 14.3113C11.8685 14.2504 11.8323 14.1949 11.7863 14.148C11.7403 14.1011 11.6856 14.0637 11.6252 14.038C11.5647 14.0122 11.4998 13.9987 11.4341 13.998C9.98641 13.9877 8.60181 13.404 7.58365 12.3748C6.56549 11.3456 5.99678 9.95474 6.00211 8.50702C6.00214 8.50402 6.00214 8.50101 6.00211 8.49801C6.00211 8.10019 6.16014 7.71866 6.44144 7.43735C6.72275 7.15605 7.10428 6.99801 7.50211 6.99801C7.89993 6.99801 8.28147 7.15605 8.56278 7.43735C8.84408 7.71866 9.00211 8.10019 9.00211 8.49801C9.00211 9.16105 9.26557 9.79694 9.73441 10.2658C10.2033 10.7346 10.8391 10.998 11.5021 10.998C12.1652 10.998 12.8011 10.7346 13.2699 10.2658C13.7388 9.79694 14.0021 9.16105 14.0021 8.49801C14.0021 6.77411 13.3173 5.12081 12.0983 3.90182C10.8793 2.68284 9.22602 1.99801 7.50211 1.99801H7.50016ZM7.50016 3.99801C6.31203 3.99799 5.17216 4.46783 4.32914 5.30505C3.48611 6.14227 3.00834 7.27892 3.00016 8.46702C3.0001 8.47135 3.0001 8.47568 3.00016 8.48002C3.00014 8.48602 3.00014 8.49201 3.00016 8.49801C3.00014 8.50001 3.00014 8.50201 3.00016 8.50401C2.99632 9.85206 3.31454 11.1815 3.92838 12.3817C4.54221 13.5819 5.43396 14.6181 6.52921 15.404C6.62401 15.4741 6.74052 15.5085 6.85819 15.501C6.87495 15.4999 6.89156 15.4979 6.90812 15.495C7.00607 15.4786 7.09692 15.4335 7.1691 15.3653C7.24128 15.2971 7.29163 15.2089 7.31351 15.112C7.3354 15.0152 7.32788 14.914 7.29203 14.8214C7.25618 14.7287 7.19362 14.6489 7.11222 14.592C6.14646 13.8988 5.36017 12.985 4.81888 11.9266C4.27759 10.8682 3.99689 9.6958 4.00016 8.50702C4.00019 8.50368 4.00019 8.50035 4.00016 8.49701C4.00016 7.56876 4.36893 6.67851 5.0253 6.02214C5.68168 5.36576 6.5719 4.99701 7.50016 4.99701C8.42841 4.99701 9.31863 5.36576 9.97501 6.02214C10.6314 6.67851 11.0002 7.56876 11.0002 8.49701C11.0002 8.62962 11.0529 8.7568 11.1466 8.85057C11.2404 8.94434 11.3675 8.99701 11.5002 8.99701C11.6328 8.99701 11.7599 8.94434 11.8537 8.85057C11.9474 8.7568 12.0002 8.62962 12.0002 8.49701C12.0009 8.48169 12.0009 8.46633 12.0002 8.45101C11.9878 7.26604 11.5084 6.1338 10.6663 5.30008C9.82415 4.46636 8.68714 3.99848 7.50211 3.99801H7.50016ZM7.49015 7.97901C7.4244 7.97966 7.35946 7.99328 7.29898 8.01907C7.23851 8.04487 7.18371 8.08234 7.13773 8.12934C7.09175 8.17634 7.0555 8.23195 7.03104 8.29298C7.00658 8.35401 6.99436 8.41927 6.99515 8.48501V8.49201C6.99514 8.49401 6.99514 8.49601 6.99515 8.49801C6.99421 8.51567 6.99421 8.53336 6.99515 8.55101C7.01049 9.72739 7.48532 10.8511 8.31815 11.6821C9.15098 12.513 10.2758 12.9853 11.4522 12.998C11.5178 12.9987 11.5829 12.9864 11.6438 12.9619C11.7047 12.9373 11.7603 12.9011 11.8072 12.8551C11.8541 12.8091 11.8914 12.7544 11.9171 12.694C11.9429 12.6336 11.9565 12.5687 11.9572 12.503C11.9578 12.4373 11.9456 12.3722 11.9211 12.3113C11.8965 12.2504 11.8602 12.1949 11.8142 12.148C11.7683 12.1011 11.7135 12.0637 11.6531 12.038C11.5927 12.0122 11.5279 11.9987 11.4622 11.998C10.5387 11.9919 9.65506 11.6202 9.00492 10.9643C8.35478 10.3084 7.99106 9.42156 7.9932 8.49801C7.99323 8.49468 7.99323 8.49134 7.9932 8.48801C7.99427 8.42126 7.9819 8.35496 7.95694 8.29304C7.93198 8.23112 7.89488 8.17483 7.84781 8.12748C7.80074 8.08014 7.74467 8.04269 7.6829 8.01736C7.62112 7.99203 7.55495 7.97934 7.48819 7.98002L7.49015 7.97901Z" fill="url(#paint0_linear_9_6248)"/>
</g>
<defs>
<linearGradient id="paint0_linear_9_6248" x1="1" y1="7.75095" x2="14.0021" y2="7.75095" gradientUnits="userSpaceOnUse">
<stop stop-color="#FDFC47"/>
<stop offset="1" stop-color="#24FE41"/>
</linearGradient>
<clipPath id="clip0_9_6248">
<rect width="16" height="16" fill="white"/>
</clipPath>
</defs>
</svg>
