<svg width="16" height="16" viewBox="0 0 16 16" fill="none" xmlns="http://www.w3.org/2000/svg">
<g clip-path="url(#clip0_9_6259)">
<path d="M6.5 1.004C5.30661 1.00426 4.16222 1.47846 3.31836 2.32231C2.4745 3.16617 2.00027 4.3106 2 5.504V11.504C2 13.988 4.016 16.004 6.5 16.004H8.5C10.984 16.004 13 13.988 13 11.504V5.504C13 3.02 10.984 1.004 8.5 1.004H6.5ZM6.5 2.004H7V6.004H3V5.504C3 3.556 4.553 2.004 6.5 2.004ZM8 2.004H8.5C10.448 2.004 12 3.556 12 5.504V6.004H8V2.004ZM3 7.004H12V11.504C12 13.452 10.448 15.004 8.5 15.004H6.5C6.03967 15.0065 5.58337 14.9177 5.15759 14.7427C4.73182 14.5677 4.34504 14.31 4.01953 13.9845C3.69402 13.659 3.43623 13.2721 3.26123 12.8464C3.08623 12.4206 2.99748 11.9643 3 11.504V7.004Z" fill="url(#paint0_linear_9_6259)"/>
</g>
<defs>
<linearGradient id="paint0_linear_9_6259" x1="2" y1="8.504" x2="13" y2="8.504" gradientUnits="userSpaceOnUse">
<stop stop-color="#FDFC47"/>
<stop offset="1" stop-color="#24FE41"/>
</linearGradient>
<clipPath id="clip0_9_6259">
<rect width="16" height="16" fill="white"/>
</clipPath>
</defs>
</svg>
