<svg width="16" height="16" viewBox="0 0 16 16" fill="none" xmlns="http://www.w3.org/2000/svg">
<path d="M1.5 1.01099C0.678 1.01099 0 1.68899 0 2.51099V13.511C0 14.333 0.678 15.011 1.5 15.011H13.5C14.323 15.011 15 14.333 15 13.511V2.51099C15 1.68899 14.323 1.01099 13.5 1.01099H1.5ZM1.5 2.01099H13.5C13.786 2.01099 14 2.22499 14 2.51099V11.007H1V2.51099C1 2.22499 1.215 2.01099 1.5 2.01099ZM1 12.007H7.01001V14.011H1.5C1.43389 14.0126 1.36817 14.0008 1.30676 13.9763C1.24536 13.9517 1.18958 13.915 1.14282 13.8682C1.09606 13.8214 1.05921 13.7657 1.03467 13.7043C1.01012 13.6429 0.998353 13.5771 1 13.511V12.007ZM8.01001 12.007H14V13.511C14 13.797 13.786 14.011 13.5 14.011H8.01001V12.007Z" fill="url(#paint0_linear_9_6265)"/>
<defs>
<linearGradient id="paint0_linear_9_6265" x1="0" y1="8.01099" x2="15" y2="8.01099" gradientUnits="userSpaceOnUse">
<stop stop-color="#FDFC47"/>
<stop offset="1" stop-color="#24FE41"/>
</linearGradient>
</defs>
</svg>
