<svg width="16" height="16" viewBox="0 0 16 16" fill="none" xmlns="http://www.w3.org/2000/svg">
<g clip-path="url(#clip0_9_6262)">
<path d="M1.5 2.01099C0.678 2.01099 0 2.68899 0 3.51099V13.511C0 14.333 0.678 15.011 1.5 15.011H13.5C14.323 15.011 15 14.333 15 13.511V5.46199L15.729 4.72999C15.909 4.54799 16.01 4.28799 16.01 4.00999C16.01 3.45699 15.564 3.00999 15.01 3.00999C14.976 3.00999 14.946 3.02499 14.912 3.02899C14.8113 2.73378 14.6214 2.47717 14.3684 2.29477C14.1154 2.11236 13.8119 2.01319 13.5 2.01099H1.5ZM1.5 3.01099H3V6.00699H1V3.51099C1 3.22499 1.215 3.01099 1.5 3.01099ZM4.01001 3.01099H13.5C13.786 3.01099 14 3.22499 14 3.51099V3.58099L8.01001 9.54199V11.011H9.479L14 6.46599V13.511C14 13.797 13.786 14.011 13.5 14.011H4.01001V3.01099ZM1 7.00699H3V10.007H1V7.00699ZM1 11.007H3V14.011H1.5C1.43389 14.0126 1.36817 14.0008 1.30676 13.9763C1.24536 13.9517 1.18958 13.915 1.14282 13.8682C1.09606 13.8214 1.05921 13.7657 1.03467 13.7043C1.01012 13.6429 0.998353 13.5771 1 13.511V11.007Z" fill="url(#paint0_linear_9_6262)"/>
</g>
<defs>
<linearGradient id="paint0_linear_9_6262" x1="0" y1="8.51099" x2="16.01" y2="8.51099" gradientUnits="userSpaceOnUse">
<stop stop-color="#FDFC47"/>
<stop offset="1" stop-color="#24FE41"/>
</linearGradient>
<clipPath id="clip0_9_6262">
<rect width="16" height="16" fill="white"/>
</clipPath>
</defs>
</svg>
