<svg width="16" height="16" viewBox="0 0 16 16" fill="none" xmlns="http://www.w3.org/2000/svg">
<g clip-path="url(#clip0_9_6284)">
<path d="M14.479 11.031C14.7574 10.9968 15.0488 11.0549 15.2572 11.2178C15.674 11.5434 15.7641 12.286 15.4385 12.7028L15.2224 12.9811L13.4847 15.204C13.0505 15.7597 12.0611 15.8817 11.5053 15.4475C10.9496 15.0133 10.8276 14.0239 11.2618 13.4681L12.9995 11.2452L13.276 11.4613L11.5402 13.6842C11.2145 14.101 11.3046 14.8435 11.7214 15.1692C12.1382 15.4948 12.8808 15.4047 13.2064 14.9879L14.9441 12.765L15.1602 12.4867C15.3773 12.2088 15.3172 11.7132 15.0393 11.4961C14.7615 11.279 14.2658 11.3409 14.0487 11.6188L13.8327 11.8953L12.529 13.5634L12.3129 13.8417C12.2044 13.9806 12.2344 14.2275 12.3733 14.3361C12.5123 14.4446 12.7592 14.4146 12.8677 14.2756L14.3875 12.3292L14.6658 12.5471L13.146 14.4917C12.9289 14.7696 12.4351 14.8315 12.1573 14.6144C11.8794 14.3973 11.8175 13.9017 12.0346 13.6238L12.2525 13.3455L13.7723 11.4009C13.9351 11.1925 14.2006 11.0652 14.479 11.031Z" fill="url(#paint0_linear_9_6284)"/>
<path d="M8 5C6.32 5 5 6.32 5 8C5 9.68 6.32 11 8 11C9.68 11 11 9.68 11 8C11 6.32 9.68 5 8 5ZM8.00586 6.0059C8.53478 6.00746 9.04159 6.21826 9.4156 6.59226C9.7896 6.96627 10.0004 7.47308 10.002 8.002C10.0004 8.53092 9.7896 9.03773 9.4156 9.41174C9.04159 9.78574 8.53478 9.99654 8.00586 9.9981C6.90786 9.9981 5.99216 9.10101 5.99216 8.002C5.99216 6.904 6.90783 6.0059 8.00586 6.0059Z" fill="url(#paint1_linear_9_6284)"/>
<path d="M8 4e-05C5.87827 4e-05 3.84344 0.842895 2.34315 2.34319C0.842855 3.84348 0 5.87831 0 8.00004C0 10.1218 0.842855 12.1566 2.34315 13.6569C3.84344 15.1572 5.87827 16 8 16C8.67471 16.0001 9.34671 15.9148 10 15.7461V14.707C9.35102 14.9009 8.67733 14.9996 8 15C6.14348 15 4.36301 14.2625 3.05025 12.9497C1.7375 11.637 1 9.85652 1 8C0.999835 6.15962 1.72444 4.39321 3.01698 3.08312C4.30951 1.77303 6.06599 1.02466 7.9062 1C7.93745 0.999791 7.9687 0.999791 7.99995 1C9.85647 1 11.6369 1.7375 12.9497 3.05025C14.2625 4.36301 15 6.14348 15 8C14.9996 8.67733 14.9009 9.35102 14.707 10H15.7461C15.9147 9.34671 16 8.67471 16 8C16 5.87827 15.1571 3.84344 13.6568 2.34315C12.1566 0.842855 10.1217 4e-05 8 4e-05Z" fill="url(#paint2_linear_9_6284)"/>
</g>
<defs>
<linearGradient id="paint0_linear_9_6284" x1="10.9998" y1="13.3655" x2="15.6355" y2="13.3655" gradientUnits="userSpaceOnUse">
<stop stop-color="#FDFC47"/>
<stop offset="1" stop-color="#24FE41"/>
</linearGradient>
<linearGradient id="paint1_linear_9_6284" x1="5" y1="8" x2="11" y2="8" gradientUnits="userSpaceOnUse">
<stop stop-color="#FDFC47"/>
<stop offset="1" stop-color="#24FE41"/>
</linearGradient>
<linearGradient id="paint2_linear_9_6284" x1="0" y1="8.00002" x2="16" y2="8.00002" gradientUnits="userSpaceOnUse">
<stop stop-color="#FDFC47"/>
<stop offset="1" stop-color="#24FE41"/>
</linearGradient>
<clipPath id="clip0_9_6284">
<rect width="16" height="16" fill="white"/>
</clipPath>
</defs>
</svg>
