<svg width="16" height="16" viewBox="0 0 16 16" fill="none" xmlns="http://www.w3.org/2000/svg">
<path d="M3 2.00299V13.003C3 13.837 3.56398 14.529 4.05298 14.773C4.54098 15.017 5 15.003 5 15.003H12C12 15.003 12.459 15.017 12.947 14.773C13.436 14.529 14 13.837 14 13.003V4.55799L13.676 4.23399L11.77 2.32799L11.4449 2.00299H11H3ZM4 3.00299H5V5.00299H6V3.00299H7V5.00299H8V3.00299H9V5.00299H10V3.00299H11.031L11.062 3.035L12.968 4.94099L12.999 4.97199V13.003C12.999 14.003 11.999 14.003 11.999 14.003H4.99902C4.99902 14.003 3.99902 14.003 3.99902 13.003L4 3.00299Z" fill="url(#paint0_linear_9_6271)"/>
<defs>
<linearGradient id="paint0_linear_9_6271" x1="3" y1="8.50307" x2="14" y2="8.50307" gradientUnits="userSpaceOnUse">
<stop stop-color="#FDFC47"/>
<stop offset="1" stop-color="#24FE41"/>
</linearGradient>
</defs>
</svg>
