<svg width="16" height="16" viewBox="0 0 16 16" fill="none" xmlns="http://www.w3.org/2000/svg">
<path d="M4 7L6 6.99951V10.0002L4 10.0007V7ZM7 6.99927H9V9.00027H7V6.99927ZM10 6.99951L12 7V10.0007L10 10.0002V6.99951ZM7 10H9V12.9993H7V10ZM4 11.0005L6 11V12.9995L4 13V11.0005ZM10 11L12 11.0005V13L10 12.9995V11Z" fill="url(#paint0_linear_9_6304)"/>
<path d="M6 1L2 5V6.4141V13C2 14.108 2.892 15 4 15H12C13.108 15 14 14.108 14 13V3C14 1.892 13.108 1 12 1H6ZM6.41406 2H12C12.554 2 13 2.446 13 3V13C13 13.554 12.554 14 12 14H3.99996C3.44596 14 2.99996 13.554 2.99996 13V5.4141L6.41406 2Z" fill="url(#paint1_linear_9_6304)"/>
<defs>
<linearGradient id="paint0_linear_9_6304" x1="4" y1="9.99964" x2="12" y2="9.99964" gradientUnits="userSpaceOnUse">
<stop stop-color="#FDFC47"/>
<stop offset="1" stop-color="#24FE41"/>
</linearGradient>
<linearGradient id="paint1_linear_9_6304" x1="2" y1="8" x2="14" y2="8" gradientUnits="userSpaceOnUse">
<stop stop-color="#FDFC47"/>
<stop offset="1" stop-color="#24FE41"/>
</linearGradient>
</defs>
</svg>
