<svg width="16" height="16" viewBox="0 0 16 16" fill="none" xmlns="http://www.w3.org/2000/svg">
<path d="M10.821 2.923C10.304 2.952 9.92696 3.382 9.60396 3.743C9.29096 4.146 8.97198 4.587 8.88398 5.101C8.88298 5.254 9.07393 5.329 9.15693 5.448C9.47293 5.732 9.798 6.164 9.597 6.606C9.315 7.167 8.78097 7.54 8.36897 8C8.03497 8.335 7.60799 8.79 7.08699 8.597C6.69999 8.451 6.47297 8.094 6.17097 7.851C5.75397 7.883 5.38692 8.142 5.03792 8.356C4.59092 8.68 4.12789 9.078 3.96589 9.626C3.87089 10.061 4.32791 10.295 4.61091 10.524C5.31791 11.036 6.268 11.104 7.076 10.811C8.377 10.349 9.42595 9.387 10.349 8.391C11.139 7.493 11.892 6.441 11.993 5.212C12.063 4.348 11.623 3.492 10.957 2.962L10.89 2.935L10.821 2.923Z" fill="url(#paint0_linear_9_6313)"/>
<path d="M10.907 10C10.125 10.648 9.20399 11.251 8.06299 11.656C6.44899 12.242 4.481 12.163 2.875 11C2.83263 10.9696 2.79095 10.9383 2.75 10.906C2.808 10.954 2.62 10.839 2.375 10.626L1 12V15H15V12L13 10H10.907ZM10.5 11.797C10.89 11.797 11.203 12.11 11.203 12.5C11.203 12.89 10.89 13.203 10.5 13.203C10.4076 13.2031 10.3162 13.185 10.2308 13.1498C10.1455 13.1145 10.0679 13.0627 10.0026 12.9974C9.93726 12.9321 9.8855 12.8545 9.85022 12.7692C9.81494 12.6838 9.79687 12.5924 9.797 12.5C9.797 12.11 10.111 11.797 10.5 11.797ZM12.5 11.82C12.877 11.82 13.1801 12.123 13.1801 12.5C13.1801 12.877 12.877 13.18 12.5 13.18C12.4106 13.1803 12.3221 13.1629 12.2395 13.1288C12.1569 13.0947 12.0818 13.0446 12.0186 12.9814C11.9554 12.9182 11.9053 12.8432 11.8712 12.7605C11.8371 12.6779 11.8197 12.5894 11.8199 12.5C11.8199 12.123 12.124 11.82 12.5 11.82Z" fill="url(#paint1_linear_9_6313)"/>
<defs>
<linearGradient id="paint0_linear_9_6313" x1="3.95312" y1="6.95359" x2="12.0003" y2="6.95359" gradientUnits="userSpaceOnUse">
<stop stop-color="#FDFC47"/>
<stop offset="1" stop-color="#24FE41"/>
</linearGradient>
<linearGradient id="paint1_linear_9_6313" x1="1" y1="12.5" x2="15" y2="12.5" gradientUnits="userSpaceOnUse">
<stop stop-color="#FDFC47"/>
<stop offset="1" stop-color="#24FE41"/>
</linearGradient>
</defs>
</svg>
