<svg width="16" height="16" viewBox="0 0 16 16" fill="none" xmlns="http://www.w3.org/2000/svg">
<path d="M8 0C5.87827 0 3.84344 0.842802 2.34315 2.343C0.842855 3.8432 0 5.8779 0 7.9995C0.00229619 9.3892 0.36661 10.7543 1.05705 11.9604C1.74749 13.1665 2.74024 14.1719 3.9375 14.8776C4.03332 14.9499 4.14996 14.9891 4.26997 14.9896C4.41731 14.9896 4.55862 14.931 4.66281 14.8269C4.767 14.7227 4.82553 14.5814 4.82553 14.434C4.82554 14.3389 4.80112 14.2454 4.75461 14.1624C4.7081 14.0794 4.64106 14.0098 4.55991 13.9601C3.51259 13.3565 2.64255 12.4879 2.03718 11.4417C1.43182 10.3954 1.11243 9.20828 1.11111 7.99952C1.11111 6.17258 1.8369 4.42046 3.12882 3.12861C4.42074 1.83677 6.17296 1.11102 8.00001 1.11102C9.82706 1.11102 11.5793 1.83677 12.8712 3.12861C14.1631 4.42046 14.8889 6.17258 14.8889 7.99952C14.8872 9.20808 14.5675 10.3949 13.962 11.4409C13.3565 12.4868 12.4864 13.3551 11.4392 13.9584L11.4409 13.961C11.355 14.0092 11.2834 14.0794 11.2335 14.1643C11.1836 14.2493 11.1572 14.346 11.1571 14.4445C11.1571 14.5918 11.2156 14.7331 11.3198 14.8373C11.424 14.9415 11.5653 15 11.7126 15C11.8297 14.9996 11.9436 14.9622 12.0381 14.8933C13.2422 14.1893 14.2413 13.1827 14.9362 11.9734C15.6312 10.7642 15.9979 9.39426 15.9999 7.99956C15.9999 5.87796 15.1571 3.84326 13.6568 2.34306C12.1565 0.842862 10.1217 0 8 0ZM8 2.2221C6.46763 2.2221 4.99803 2.83079 3.91448 3.91426C2.83093 4.99773 2.2222 6.46724 2.2222 7.9995C2.22386 9.00351 2.48716 9.98975 2.98614 10.861C3.48511 11.7323 4.20254 12.4585 5.0677 12.968C5.08339 12.9787 5.09961 12.9885 5.11631 12.9975C5.19791 13.0427 5.28955 13.0665 5.3828 13.067C5.53014 13.067 5.67145 13.0084 5.77564 12.9043C5.87983 12.8001 5.93836 12.6588 5.93836 12.5114C5.93837 12.4097 5.91045 12.3099 5.85764 12.223C5.80483 12.1361 5.72916 12.0653 5.63888 12.0184C5.63743 12.0175 5.63598 12.0167 5.63452 12.0158C4.93474 11.6043 4.3544 11.0175 3.95083 10.3131C3.54726 9.60878 3.33442 8.81136 3.33332 7.99961C3.33332 6.762 3.82499 5.57509 4.70017 4.69997C5.57534 3.82485 6.76234 3.33321 8.00002 3.33321C9.23771 3.33321 10.4247 3.82485 11.2999 4.69997C12.1751 5.57509 12.6667 6.762 12.6667 7.99961C12.6656 8.81846 12.4489 9.62259 12.0386 10.3312C11.6283 11.0399 11.0387 11.628 10.329 12.0367C10.2444 12.0853 10.1741 12.1554 10.1252 12.2398C10.0763 12.3242 10.0505 12.42 10.0504 12.5176C10.0504 12.6649 10.1089 12.8062 10.2131 12.9104C10.3173 13.0146 10.4586 13.0731 10.6059 13.0731C10.7036 13.0728 10.7994 13.0467 10.8837 12.9976L10.8846 12.9993C11.7632 12.4931 12.4931 11.7646 13.0009 10.8869C13.5088 10.0093 13.7767 9.01353 13.7778 7.99959C13.7778 7.24089 13.6284 6.48962 13.338 5.78867C13.0476 5.08773 12.622 4.45083 12.0855 3.91435C11.549 3.37787 10.9121 2.95231 10.2111 2.66197C9.51007 2.37163 8.75875 2.2221 8 2.2221ZM8 4.6664C7.11595 4.6664 6.26812 5.01757 5.643 5.64264C5.01789 6.26772 4.6667 7.11551 4.6667 7.9995C4.66765 8.57546 4.81784 9.14135 5.10264 9.64199C5.38743 10.1426 5.7971 10.5609 6.2917 10.8561C6.30275 10.8632 6.31404 10.8698 6.32555 10.8761C6.32929 10.8784 6.33305 10.8807 6.33684 10.883C6.41772 10.9263 6.50808 10.949 6.59986 10.9489C6.74719 10.9489 6.8885 10.8904 6.99268 10.7862C7.09687 10.6821 7.15541 10.5408 7.15542 10.3934C7.15523 10.2949 7.12884 10.1982 7.07896 10.1133C7.02908 10.0283 6.95751 9.95815 6.87157 9.90997C6.539 9.71396 6.26324 9.43469 6.07144 9.09968C5.87964 8.76468 5.77843 8.38549 5.77777 7.99947C5.77777 7.41013 6.01189 6.84493 6.42864 6.42821C6.84538 6.01148 7.4106 5.77737 7.99997 5.77737C8.58933 5.77737 9.15456 6.01148 9.5713 6.42821C9.98804 6.84493 10.2222 7.41013 10.2222 7.99947C10.2216 8.38948 10.1184 8.77247 9.92288 9.10995C9.72738 9.44743 9.44651 9.72752 9.10847 9.92207L9.10936 9.92296C9.02731 9.97233 8.95941 10.0421 8.91226 10.1254C8.86512 10.2088 8.84031 10.3029 8.84026 10.3986C8.84026 10.546 8.89879 10.6873 9.00298 10.7914C9.10716 10.8956 9.24847 10.9541 9.39582 10.9541C9.48966 10.954 9.58194 10.9301 9.66405 10.8847C9.66665 10.883 9.66926 10.8812 9.67186 10.8795C9.68735 10.8707 9.70242 10.8611 9.717 10.8509C10.2092 10.5551 10.6167 10.1371 10.8999 9.63755C11.183 9.13798 11.3323 8.57371 11.3333 7.99947C11.3333 7.11548 10.9821 6.26769 10.357 5.64261C9.73188 5.01753 8.88405 4.6664 8 4.6664ZM8 7.1107C7.76425 7.1107 7.53816 7.20435 7.37146 7.37104C7.20476 7.53772 7.11111 7.7638 7.11111 7.99954C7.11111 8.23527 7.20476 8.46136 7.37146 8.62805C7.53816 8.79473 7.76425 8.88838 8 8.88838C8.23575 8.88838 8.46184 8.79473 8.62854 8.62805C8.79524 8.46136 8.88889 8.23527 8.88889 7.99954C8.88889 7.7638 8.79524 7.53772 8.62854 7.37104C8.46184 7.20435 8.23575 7.1107 8 7.1107Z" fill="url(#paint0_linear_9_6327)"/>
<defs>
<linearGradient id="paint0_linear_9_6327" x1="0" y1="7.50001" x2="15.9999" y2="7.50001" gradientUnits="userSpaceOnUse">
<stop stop-color="#FDFC47"/>
<stop offset="1" stop-color="#24FE41"/>
</linearGradient>
</defs>
</svg>
