<svg width="16" height="16" viewBox="0 0 16 16" fill="none" xmlns="http://www.w3.org/2000/svg">
<g clip-path="url(#clip0_9_4637)">
<path d="M7.99999 0C7.94919 0.00146923 7.89841 0.00342245 7.84765 0.0058594L7.8457 0.0078125C7.83398 0.00843774 7.82226 0.00908878 7.81054 0.0097656C7.80078 0.00909702 7.79101 0.00844598 7.78124 0.0078125C7.74868 0.0102173 7.71612 0.0128215 7.68359 0.015625C7.45833 0.0237027 7.23352 0.0412964 7.00976 0.068359C6.97587 0.0733499 6.94202 0.0785583 6.9082 0.083984C6.68527 0.114342 6.46372 0.154091 6.24414 0.203124C6.19127 0.215607 6.13854 0.228629 6.08594 0.242186C5.87191 0.294614 5.66014 0.355863 5.45117 0.425776C5.42573 0.434762 5.40034 0.443877 5.375 0.45312C5.14243 0.533029 4.91367 0.623618 4.68945 0.7246C4.68423 0.727198 4.67903 0.729803 4.67382 0.732413C4.43839 0.839685 4.2083 0.958314 3.98437 1.08788C3.97328 1.09502 3.96222 1.10218 3.95117 1.10937C3.73038 1.23898 3.51594 1.37911 3.30859 1.52929C3.30403 1.53254 3.29947 1.53579 3.29492 1.53905C3.09021 1.68844 2.89272 1.84748 2.70312 2.01561C2.67889 2.0376 2.6548 2.05974 2.63085 2.08202C2.45706 2.23869 2.29024 2.40291 2.13085 2.57421C2.10988 2.59752 2.08904 2.62096 2.06835 2.64452C1.90711 2.82244 1.75396 3.00752 1.60937 3.19921C1.60087 3.21156 1.59241 3.22393 1.58398 3.23632C1.43734 3.43302 1.29982 3.63636 1.17187 3.8457C1.15143 3.88005 1.13124 3.91456 1.11132 3.94922C0.998429 4.14009 0.893522 4.33557 0.796871 4.53516C0.775599 4.58118 0.754765 4.62741 0.734371 4.67383C0.640376 4.87783 0.555014 5.0857 0.478511 5.29688C0.470596 5.31963 0.462783 5.34242 0.455073 5.36524C0.377624 5.58547 0.309853 5.80899 0.251953 6.03516C0.228936 6.12398 0.207449 6.21318 0.1875 6.30274C0.188828 6.3033 0.190078 6.30413 0.191406 6.30469C0.185397 6.33265 0.179538 6.36065 0.173828 6.38868C0.13613 6.57177 0.104861 6.75612 0.0800784 6.94141C0.0674645 7.0317 0.0563953 7.12221 0.0468754 7.21289C0.0252521 7.41801 0.0115699 7.62389 0.0058594 7.83008C0.00330443 7.88669 0.00135119 7.94334 0 8C0.00195285 9.51485 0.433973 10.998 1.24581 12.277C2.05764 13.5559 3.21591 14.5781 4.5859 15.2246C4.58981 15.2266 4.59371 15.2285 4.59762 15.2305C4.72561 15.2918 4.85521 15.3498 4.98629 15.4043V15.4062C4.98954 15.4075 4.9928 15.4088 4.99606 15.4101C5.19874 15.4908 5.40465 15.5631 5.61325 15.6269C5.66451 15.6444 5.71594 15.6613 5.76754 15.6777C5.94566 15.7276 6.12546 15.7712 6.3066 15.8086C6.39222 15.8289 6.47817 15.8478 6.56441 15.8652C6.73481 15.8949 6.90613 15.919 7.07808 15.9375C7.17033 15.9502 7.26279 15.9612 7.35542 15.9707C7.56979 15.9891 7.7848 15.9989 7.99995 16C8.22099 15.9987 8.44189 15.9883 8.66206 15.9687V15.9668C8.66662 15.9668 8.67118 15.9668 8.67574 15.9668C8.92259 15.945 9.1683 15.9118 9.41207 15.8672C9.43096 15.8646 9.44984 15.862 9.46871 15.8594C9.47261 15.8587 9.47652 15.8581 9.48043 15.8574C9.73853 15.8082 9.99405 15.7462 10.2461 15.6719C11.6501 15.2593 12.914 14.4696 13.9004 13.3887C13.9069 13.3815 13.9134 13.3744 13.9199 13.3672C13.9876 13.2974 14.054 13.2265 14.1191 13.1543C14.1198 13.153 14.1204 13.1517 14.1211 13.1504C14.1159 13.1522 14.1106 13.1543 14.1054 13.1562C15.3257 11.715 15.9968 9.88851 15.9999 8.00004C15.9966 7.32828 15.9087 6.65962 15.7382 6.00984C15.7395 6.0098 15.7408 6.00988 15.7421 6.00984C15.7351 5.98833 15.7279 5.96684 15.7206 5.94539C15.7193 5.94083 15.718 5.93627 15.7167 5.93172C15.6607 5.72215 15.5962 5.51495 15.5234 5.31063C15.5094 5.2708 15.495 5.23109 15.4804 5.19149C15.2112 4.47352 14.8402 3.79797 14.3788 3.18559C14.3691 3.17319 14.3593 3.16082 14.3495 3.14848C14.3417 3.13869 14.3339 3.12893 14.3261 3.11918C14.0168 2.71811 13.6702 2.34732 13.2909 2.01178C13.2753 1.9987 13.2597 1.98568 13.244 1.97272C13.2407 1.96946 13.2375 1.96621 13.2342 1.96295C13.0529 1.80547 12.8645 1.65622 12.6698 1.51568C12.6464 1.49863 12.623 1.4817 12.5995 1.4649C12.4127 1.33436 12.2205 1.21185 12.0233 1.09771C11.9935 1.07994 11.9635 1.06236 11.9335 1.04498C10.7343 0.363387 9.37934 0.00336032 7.99999 0ZM7.99999 1C8.0078 1.00064 8.01562 1.00129 8.02343 1.00195C8.01857 1.12448 7.99999 1.24337 7.99999 1.36718C7.99999 2.35258 8.12583 3.30768 8.33983 4.22848C7.23073 5.16593 5.84643 5.78738 4.32223 5.95308C4.75163 4.13158 5.61273 2.48348 6.78513 1.10738C6.94905 1.08069 7.11387 1.05985 7.27927 1.04488C7.3501 1.03533 7.42107 1.02687 7.49216 1.01949C7.66114 1.00684 7.83054 1.00036 7.99999 1ZM9.01759 1.08203C9.0228 1.08333 9.02801 1.08463 9.03321 1.08594C9.25789 1.11934 9.48081 1.16367 9.70118 1.21875C9.70184 1.21875 9.70249 1.21875 9.70314 1.21875C9.70379 1.21875 9.70444 1.21875 9.70509 1.21875C9.93102 1.27594 10.154 1.34439 10.3731 1.42383C10.3809 1.42642 10.3887 1.42902 10.3965 1.43164C10.0918 2.14594 9.68625 2.80654 9.1875 3.38674C9.07246 2.72954 9 2.05764 9 1.36724C9 1.2707 9.01489 1.17791 9.01759 1.08203ZM5.15629 1.61328C4.27306 2.91928 3.62369 4.39408 3.28329 5.98828C2.63009 5.96964 2.00239 5.86047 1.40239 5.68555C1.47797 5.47054 1.56401 5.25936 1.6602 5.05274C1.66667 5.03905 1.67318 5.02538 1.67973 5.01172C1.77393 4.81162 1.87756 4.61608 1.99028 4.42579C1.99353 4.42057 1.99678 4.41536 2.00005 4.41016C2.11818 4.21324 2.24594 4.02225 2.38286 3.83789C2.52101 3.65165 2.66832 3.4724 2.82427 3.30078C2.82687 3.29752 2.82947 3.29427 2.83208 3.29101C2.985 3.12313 3.14599 2.96278 3.3145 2.81054C3.3223 2.80402 3.33011 2.79751 3.33794 2.79101C3.50306 2.64295 3.67513 2.50282 3.85356 2.37109C3.86395 2.3639 3.87437 2.35674 3.88481 2.34961C4.06501 2.21772 4.25142 2.09454 4.4434 1.98047C4.4486 1.97786 4.45381 1.97525 4.45902 1.97266C4.65741 1.8559 4.86143 1.749 5.07035 1.65235C5.09891 1.63913 5.12756 1.62611 5.15629 1.61328ZM11.3047 1.83203C11.3066 1.83333 11.3086 1.83463 11.3105 1.83594C11.5142 1.9452 11.7124 2.06449 11.9043 2.19336C12.0764 2.31022 12.2433 2.43469 12.4043 2.56641C12.4246 2.58127 12.4447 2.59625 12.4648 2.61133C12.4668 2.61328 12.4688 2.61523 12.4707 2.61719C12.627 2.74793 12.7776 2.88543 12.9219 3.0293C12.9415 3.04742 12.961 3.06565 12.9805 3.08399C12.9818 3.08594 12.9831 3.08789 12.9844 3.08985C13.1008 3.21014 13.2128 3.33457 13.3203 3.4629C13.3673 3.51558 13.4136 3.56897 13.459 3.62306C13.5492 3.73815 13.6359 3.85605 13.7188 3.97658C13.7702 4.0466 13.8203 4.11758 13.8691 4.18947C13.9737 4.35265 14.0714 4.52012 14.1621 4.69142C14.1786 4.7193 14.1949 4.74729 14.2109 4.7754C14.2116 4.77735 14.2122 4.77931 14.2129 4.78126C14.2993 4.95048 14.3788 5.12315 14.4512 5.29884C14.4684 5.33645 14.4854 5.37421 14.502 5.41212C14.5033 5.41602 14.5046 5.41993 14.5059 5.42384C14.5632 5.57434 14.6153 5.72677 14.6621 5.88087C14.6888 5.95595 14.7142 6.03148 14.7383 6.10743C13.3105 6.32233 11.9968 6.88686 10.8926 7.72073C10.2623 6.75583 9.77599 5.69213 9.45309 4.55663C10.2382 3.78493 10.8658 2.85833 11.3047 1.83203ZM8.62309 5.26753C8.98379 6.37653 9.48938 7.42003 10.1251 8.37103C8.89589 9.54973 8.01629 11.0892 7.66809 12.8222C6.52569 12.6279 5.44219 12.2686 4.43959 11.7675C4.16091 10.7689 4.00014 9.72093 4.00014 8.63273C4.00014 8.06523 4.05464 7.51243 4.13295 6.96673C5.81285 6.84203 7.35519 6.22947 8.62309 5.26753ZM1.13479 6.63473C1.77009 6.82363 2.43159 6.94981 3.12109 6.98043C3.04995 7.52243 3 8.07153 3 8.63273C3 9.47223 3.08752 10.2919 3.24414 11.0858C2.45854 10.5686 1.75164 9.94753 1.11714 9.25963C1.11714 9.25898 1.11714 9.25833 1.11714 9.25768C1.0883 9.09124 1.0655 8.92381 1.04878 8.75573C1.03848 8.68166 1.02936 8.60743 1.02144 8.53307C1.0075 8.35567 1.00033 8.17781 0.999952 7.99987C1 7.76635 1.01173 7.53299 1.03511 7.30065C1.05761 7.07717 1.09092 6.85501 1.13479 6.63473ZM14.9318 7.0859C14.9619 7.3062 14.9814 7.5278 14.9904 7.74996C14.9951 7.83323 14.9984 7.91658 15.0001 7.99996C14.9967 9.0546 14.755 10.0948 14.2931 11.043C14.2854 11.0606 14.2776 11.0781 14.2697 11.0957C13.2035 10.3951 12.2572 9.5297 11.4728 8.5273C12.4624 7.7766 13.6441 7.2705 14.9318 7.0859ZM10.7189 9.1757C11.5766 10.2627 12.615 11.1933 13.7794 11.9491C13.7787 11.9504 13.7781 11.9517 13.7774 11.953C13.6872 12.0798 13.5927 12.2036 13.4942 12.3241C12.2846 12.7511 10.9896 12.9999 9.63294 12.9999C9.30496 12.9999 8.9833 12.9776 8.66224 12.951C8.96814 11.4893 9.69859 10.1878 10.7189 9.1757ZM1.82049 11.2773C2.37569 11.7216 2.96839 12.1214 3.59779 12.4648C3.74699 12.9329 3.92713 13.3865 4.12904 13.8281C4.12709 13.8268 4.12513 13.8255 4.12318 13.8242C3.94068 13.7017 3.76405 13.5707 3.59388 13.4316C3.58344 13.4238 3.57302 13.416 3.56263 13.4082C3.38379 13.2612 3.21236 13.1054 3.04896 12.9414C2.88415 12.7761 2.7277 12.6027 2.58021 12.4218C2.43292 12.2414 2.29472 12.0536 2.16615 11.8593C2.0416 11.671 1.92627 11.4768 1.82049 11.2773ZM4.87709 13.0644C5.72139 13.4086 6.61169 13.6555 7.53529 13.8105C7.51683 14.0388 7.50013 14.267 7.50013 14.4999C7.50013 14.6609 7.51232 14.818 7.52162 14.9765C7.51836 14.9759 7.51511 14.9752 7.51185 14.9745C6.88 14.93 6.25711 14.7999 5.66025 14.5878C5.65765 14.5872 5.65504 14.5865 5.65244 14.5859C5.35719 14.1019 5.09572 13.5953 4.87709 13.0644ZM11.9376 13.7792C11.9363 13.7805 11.935 13.7818 11.9337 13.7831C11.7455 13.9104 11.5513 14.0283 11.3517 14.1367C11.3477 14.1393 11.3438 14.1419 11.3399 14.1445C11.338 14.1451 11.336 14.1458 11.3341 14.1464C11.1601 14.2405 10.9822 14.3272 10.8009 14.4062C10.7574 14.4255 10.7138 14.4444 10.67 14.4628C10.5013 14.532 10.3299 14.5946 10.1563 14.6503C10.1083 14.6665 10.0602 14.6821 10.0118 14.6972C9.85254 14.7446 9.69163 14.7863 9.5294 14.8222C9.45739 14.8396 9.38512 14.8559 9.3126 14.871C9.16361 14.898 9.01379 14.9202 8.86338 14.9375C8.75239 14.9538 8.64103 14.9675 8.5294 14.9785C8.51682 14.8195 8.5001 14.6624 8.5001 14.4999C8.5001 14.3126 8.514 14.1291 8.52744 13.9453C8.89236 13.977 9.25985 13.9999 9.63294 13.9999C10.4218 13.9999 11.1915 13.923 11.9376 13.7792Z" fill="url(#paint0_linear_9_4637)"/>
</g>
<defs>
<linearGradient id="paint0_linear_9_4637" x1="0" y1="8" x2="15.9999" y2="8" gradientUnits="userSpaceOnUse">
<stop stop-color="#FDFC47"/>
<stop offset="1" stop-color="#24FE41"/>
</linearGradient>
<clipPath id="clip0_9_4637">
<rect width="16" height="16" fill="white"/>
</clipPath>
</defs>
</svg>
