<svg width="16" height="16" viewBox="0 0 16 16" fill="none" xmlns="http://www.w3.org/2000/svg">
<g clip-path="url(#clip0_9_4623)">
<path d="M8 0C3.568 0 0 3.568 0 8C0 11.573 2.31995 14.5801 5.54102 15.6133V13.9512C3.51597 14.3981 3.08984 13.0605 3.08984 13.0605C2.75865 12.2059 2.28125 11.9785 2.28125 11.9785C1.62022 11.5199 2.33008 11.5273 2.33008 11.5273C3.0608 11.5795 3.44531 12.291 3.44531 12.291C4.09472 13.4213 5.14971 13.0956 5.56446 12.9063C5.63061 12.4285 5.81953 12.1008 6.02735 11.916C4.41085 11.7293 3.00977 10.6956 3.00977 7.861C3.00977 7.0536 3.5963 5.99326 4.062 5.47656C3.9869 5.28946 3.73591 4.13724 4.13231 3.11914C4.13231 3.11914 4.1705 3.10712 4.2495 3.10351C4.4864 3.09241 5.0193 3.54186 6.062 4.25976C6.69154 4.0789 7.49703 3.99433 8 3.99023C8.56713 3.98553 9.22384 4.08312 9.81561 4.25976C10.8586 3.54186 11.5249 3.09056 11.7609 3.10156H11.7629C11.8418 3.10526 11.8801 3.11719 11.8801 3.11719C12.2774 4.13525 12.027 5.28946 11.9524 5.47656C12.4189 5.99336 13 7.0536 13 7.861C13 10.7028 11.2991 11.7271 9.67773 11.9102C9.93874 12.1386 10.0039 12.5914 10.0039 13.2813C10.0039 14.1144 10.0018 14.6559 10 15V15.7402C13.4566 14.8556 16 11.7399 16 8C16 3.568 12.432 0 8 0Z" fill="url(#paint0_linear_9_4623)"/>
</g>
<defs>
<linearGradient id="paint0_linear_9_4623" x1="0" y1="7.87012" x2="16" y2="7.87012" gradientUnits="userSpaceOnUse">
<stop stop-color="#FDFC47"/>
<stop offset="1" stop-color="#24FE41"/>
</linearGradient>
<clipPath id="clip0_9_4623">
<rect width="16" height="16" fill="white"/>
</clipPath>
</defs>
</svg>
