<svg width="16" height="16" viewBox="0 0 16 16" fill="none" xmlns="http://www.w3.org/2000/svg">
<path d="M5 3H6V4H6.5C7.15 4 7.7002 4.42 7.9102 5H6V6H6.5C7.33 6 8 6.67 8 7.5C8 8.33 7.33 9 6.5 9H6V10H5V9H4.5C3.85 9 3.2998 8.58 3.0898 8H5V7H4.5C3.67 7 3 6.33 3 5.5C3 4.67 3.67 4 4.5 4H5V3ZM4.5 5C4.22 5 4 5.22 4 5.5C4 5.78 4.22 6 4.5 6H5V5H4.5ZM6 7V8H6.5C6.78 8.01 7 7.78 7 7.5C7 7.22 6.78 7 6.5 7H6ZM9 9H13V10H9V9Z" fill="url(#paint0_linear_9_4694)"/>
<path d="M2 1C0.892 1 0 1.892 0 3V12C0 13.108 0.892 14 2 14H14C15.108 14 16 13.108 16 12V3C16 1.892 15.108 1 14 1H2ZM2 2H14C14.554 2 15 2.446 15 3V12C15 12.554 14.554 13 14 13H2C1.446 13 1 12.554 1 12V3C1 2.446 1.446 2 2 2Z" fill="url(#paint1_linear_9_4694)"/>
<defs>
<linearGradient id="paint0_linear_9_4694" x1="3" y1="6.5" x2="13" y2="6.5" gradientUnits="userSpaceOnUse">
<stop stop-color="#FDFC47"/>
<stop offset="1" stop-color="#24FE41"/>
</linearGradient>
<linearGradient id="paint1_linear_9_4694" x1="0" y1="7.5" x2="16" y2="7.5" gradientUnits="userSpaceOnUse">
<stop stop-color="#FDFC47"/>
<stop offset="1" stop-color="#24FE41"/>
</linearGradient>
</defs>
</svg>
