<svg width="16" height="16" viewBox="0 0 16 16" fill="none" xmlns="http://www.w3.org/2000/svg">
<g clip-path="url(#clip0_9_4656)">
<path d="M7.00001 3C7.98039 3.00013 8.93909 3.28847 9.75689 3.82915C10.5747 4.36983 11.2155 5.13901 11.5996 6.041C11.7314 6.0139 11.8655 6.00016 12 5.99998C12.5304 5.99998 13.0391 6.2107 13.4142 6.58577C13.7893 6.96084 14 7.46955 14 7.99998C13.9995 8.01692 13.9989 8.03385 13.998 8.05077C15.143 8.28025 16 9.28547 16 10.5C16 11.885 14.885 13 13.5 13H2.5C1.115 13 0 11.885 0 10.5C0 9.28547 0.85694 8.28027 2.002 8.05077C2.00125 8.03384 2.00058 8.01692 2 7.99998C2 6.6739 2.52678 5.40213 3.46447 4.46445C4.40215 3.52677 5.67393 3 7.00001 3ZM7.06642 4C7.04428 3.99982 7.02214 3.99982 7.00001 4C5.93914 4 4.92173 4.42143 4.17158 5.17157C3.42144 5.92172 3.00001 6.93913 3.00001 8C3.0019 8.3376 3.04653 8.67361 3.13282 9H2.50001C1.66901 9 1.00001 9.669 1.00001 10.5C1.00001 11.331 1.66901 12 2.50001 12H13.5C14.331 12 15 11.331 15 10.5C15 9.669 14.331 9 13.5 9H13V8C13 7.73478 12.8947 7.48043 12.7071 7.29289C12.5196 7.10536 12.2652 7 12 7H10.8672C10.6487 6.15322 10.1588 5.40138 9.47231 4.85956C8.78587 4.31775 7.94078 4.01582 7.06642 4Z" fill="url(#paint0_linear_9_4656)"/>
</g>
<defs>
<linearGradient id="paint0_linear_9_4656" x1="0" y1="7.99998" x2="16" y2="7.99998" gradientUnits="userSpaceOnUse">
<stop stop-color="#FDFC47"/>
<stop offset="1" stop-color="#24FE41"/>
</linearGradient>
<clipPath id="clip0_9_4656">
<rect width="16" height="16" fill="white"/>
</clipPath>
</defs>
</svg>
