<svg width="16" height="16" viewBox="0 0 16 16" fill="none" xmlns="http://www.w3.org/2000/svg">
<g clip-path="url(#clip0_9_4697)">
<path d="M2.084 -4.7572e-07C1.48383 -4.7572e-07 1 0.48382 1 1.084V14.916C1 15.5162 1.48382 16 2.084 16H12.916C13.5162 16 14 15.5162 14 14.916V5H13.9961L9 0.00389952V-6.67572e-06H7.5801L2.084 -4.7572e-07ZM2.00002 1H6.00002V1.87891H6.86916C6.96587 1.87891 7.0508 1.8086 7.0508 1.70313C7.0508 1.60922 7.14362 1.53321 7.22658 1.53321H7.41213V1.56837C7.41213 1.64082 7.46076 1.70509 7.53322 1.70509H7.63674C7.70917 1.70509 7.75588 1.64083 7.75588 1.56837V1.31056C7.75588 1.2381 7.70919 1.17189 7.63674 1.17189H7.53322C7.46079 1.17189 7.41213 1.2381 7.41213 1.31056V1.34376H7.23635C7.152 1.34376 7.0508 1.28431 7.0508 1.16993C7.0508 1.08898 6.97068 1.00001 6.88283 1.00001H8.00003V1.67774C7.96903 1.71013 7.94924 1.7525 7.94924 1.79297C7.94924 1.90735 7.84804 1.9668 7.76369 1.9668H7.58791V1.9336C7.58791 1.86114 7.53925 1.79493 7.46683 1.79493H7.36331C7.29085 1.79493 7.24416 1.86114 7.24416 1.9336V2.19141C7.24416 2.26386 7.29087 2.32813 7.36331 2.32813H7.46683C7.53928 2.32813 7.58791 2.26387 7.58791 2.19141V2.15625H7.77347C7.85643 2.15625 7.94924 2.23226 7.94924 2.32617C7.94924 2.37489 7.97118 2.41343 8.00003 2.44336V2.92774C7.96903 2.96013 7.94924 3.0025 7.94924 3.04297C7.94924 3.15734 7.84804 3.21875 7.76369 3.21875H7.58791V3.18359C7.58791 3.11113 7.53925 3.04492 7.46683 3.04492H7.36331C7.29085 3.04492 7.24416 3.11114 7.24416 3.18359V3.4414C7.24416 3.51386 7.29087 3.58007 7.36331 3.58007H7.46683C7.53928 3.58007 7.58791 3.51386 7.58791 3.4414V3.4082H7.77347C7.85643 3.4082 7.94924 3.48421 7.94924 3.57812C7.94924 3.62679 7.97123 3.66344 8.00003 3.69335V4.17382C7.96903 4.20621 7.94924 4.24858 7.94924 4.28905C7.94924 4.40343 7.84804 4.46288 7.76369 4.46288H7.58791V4.42968C7.58791 4.35722 7.53925 4.29101 7.46683 4.29101H7.36331C7.29085 4.29101 7.24416 4.35722 7.24416 4.42968V4.68749C7.24416 4.75995 7.29087 4.82421 7.36331 4.82421H7.46683C7.53928 4.82421 7.58791 4.75995 7.58791 4.68749V4.65233H7.77347C7.85643 4.65233 7.94924 4.72834 7.94924 4.82225C7.94924 4.87097 7.97118 4.90952 8.00003 4.93944V5.42382C7.96903 5.45621 7.94924 5.49858 7.94924 5.53905C7.94924 5.65343 7.84804 5.71483 7.76369 5.71483H7.58791V5.67968C7.58791 5.60722 7.53925 5.54101 7.46683 5.54101H7.36331C7.29085 5.54101 7.24416 5.60722 7.24416 5.67968V5.93749C7.24416 6.00994 7.29087 6.07616 7.36331 6.07616H7.46683C7.53928 6.07616 7.58791 6.00994 7.58791 5.93749V5.90428H7.77347C7.85643 5.90428 7.94924 5.98029 7.94924 6.0742C7.94924 6.17966 8.03417 6.24803 8.13089 6.24803H9.00002V5.99998H13V15H2.00003L2.00002 1ZM8.99802 1.41602L12.582 5.00002H9.00002V2.87302H8.99807V2.49997H9.00002V1.62302H8.99807L8.99802 1.41602ZM6.00002 2.25V3.12891H6.86916C6.96587 3.12891 7.0508 3.06055 7.0508 2.95508C7.0508 2.86117 7.14362 2.78516 7.22658 2.78516H7.41213V2.81836C7.41213 2.89082 7.46076 2.95703 7.53322 2.95703H7.63674C7.70917 2.95703 7.75588 2.89082 7.75588 2.81836V2.56055C7.75588 2.48809 7.70919 2.42383 7.63674 2.42383H7.53322C7.46079 2.42383 7.41213 2.48809 7.41213 2.56055V2.59571H7.23635C7.152 2.59571 7.0508 2.5343 7.0508 2.41993C7.0508 2.33898 6.97068 2.25001 6.88283 2.25001L6.00002 2.25ZM6.00002 3.502V4.37895H6.86916C6.96587 4.37895 7.0508 4.31059 7.0508 4.20512C7.0508 4.1112 7.14362 4.0352 7.22658 4.0352H7.41213V4.07036C7.41213 4.14281 7.46076 4.20708 7.53322 4.20708H7.63674C7.70917 4.20708 7.75588 4.14281 7.75588 4.07036V3.81255C7.75588 3.74009 7.70919 3.67388 7.63674 3.67388H7.53322C7.46079 3.67388 7.41213 3.74009 7.41213 3.81255V3.84575H7.23635C7.152 3.84575 7.0508 3.7863 7.0508 3.67192C7.0508 3.59097 6.97068 3.502 6.88283 3.502L6.00002 3.502ZM6.00002 4.752V5.63091H6.86916C6.96587 5.63091 7.0508 5.56256 7.0508 5.45708C7.0508 5.36317 7.14362 5.28716 7.22658 5.28716H7.41213V5.32036C7.41213 5.39282 7.46076 5.45903 7.53322 5.45903H7.63674C7.70917 5.45903 7.75588 5.39281 7.75588 5.32036V5.06255C7.75588 4.99009 7.70919 4.92388 7.63674 4.92388H7.53322C7.46079 4.92388 7.41213 4.9901 7.41213 5.06255V5.09771H7.23635C7.152 5.09771 7.0508 5.03631 7.0508 4.92193C7.0508 4.84098 6.97068 4.75201 6.88283 4.75201L6.00002 4.752ZM6.00002 5.9981V6.87505H6.86916C6.96587 6.87505 7.0508 6.80669 7.0508 6.70122C7.0508 6.60731 7.14362 6.5313 7.22658 6.5313H7.41213V6.56646C7.41213 6.63891 7.46076 6.70318 7.53322 6.70318H7.63674C7.70917 6.70318 7.75588 6.63892 7.75588 6.56646V6.30865C7.75588 6.23619 7.70919 6.16998 7.63674 6.16998H7.53322C7.46079 6.16998 7.41213 6.23619 7.41213 6.30865V6.34185H7.23635C7.152 6.34185 7.0508 6.2824 7.0508 6.16802C7.0508 6.08707 6.97068 5.9981 6.88283 5.9981L6.00002 5.9981ZM8.11722 6.62115C8.02937 6.62115 7.94925 6.71012 7.94925 6.79107C7.94925 6.90545 7.84805 6.9649 7.7637 6.9649H7.58792V6.92974C7.58792 6.85728 7.53925 6.79302 7.46683 6.79302H7.36331C7.29085 6.79302 7.24417 6.85728 7.24417 6.92974V7.18951C7.24417 7.26197 7.29088 7.32623 7.36331 7.32623H7.46683C7.53928 7.32623 7.58792 7.26197 7.58792 7.18951V7.15436H7.77347C7.85643 7.15436 7.94925 7.23037 7.94925 7.32428C7.94925 7.42974 8.03417 7.49811 8.13089 7.49811H9.00003V6.62116L8.11722 6.62115ZM6.00002 7.2481V8.12701H6.86916C6.96587 8.12701 7.0508 8.05865 7.0508 7.95318C7.0508 7.85927 7.14362 7.78326 7.22658 7.78326H7.41213V7.81646C7.41213 7.88892 7.46076 7.95513 7.53322 7.95513H7.63674C7.70917 7.95513 7.75588 7.88892 7.75588 7.81646V7.55865C7.75588 7.48619 7.70919 7.41998 7.63674 7.41998H7.53322C7.46079 7.41998 7.41213 7.4862 7.41213 7.55865V7.59381H7.23635C7.152 7.59381 7.0508 7.5324 7.0508 7.41803C7.0508 7.33708 6.97068 7.24811 6.88283 7.24811L6.00002 7.2481ZM8.11722 7.87115C8.02937 7.87115 7.94925 7.96012 7.94925 8.04107C7.94925 8.15545 7.84805 8.2149 7.7637 8.2149H7.58792V8.1817C7.58792 8.10924 7.53925 8.04303 7.46683 8.04303H7.36331C7.29085 8.04303 7.24417 8.10924 7.24417 8.1817V8.43951C7.24417 8.51197 7.29088 8.57818 7.36331 8.57818H7.46683C7.53928 8.57818 7.58792 8.51196 7.58792 8.43951V8.40435H7.77347C7.85643 8.40435 7.94925 8.48036 7.94925 8.57427C7.94925 8.67973 8.03417 8.75005 8.13089 8.75005H9.00003V7.87114L8.11722 7.87115ZM6.00002 8.50006V11.4942C6.00002 12.3235 6.67656 13.0001 7.50592 13.0001C8.33528 13.0001 9.00002 12.3235 9.00002 11.4942V9.00006H7.75592V8.80865C7.75592 8.73619 7.70923 8.67193 7.63678 8.67193H7.53326C7.46083 8.67193 7.41217 8.73619 7.41217 8.80865V8.84381H7.23639C7.15204 8.84381 7.05084 8.78435 7.05084 8.66998C7.05084 8.58903 6.97072 8.50006 6.88287 8.50006L6.00002 8.50006ZM7.50592 10.8204C7.8809 10.8204 8.17975 11.1192 8.17975 11.4942C8.17975 11.8692 7.8809 12.1797 7.50592 12.1797C7.13094 12.1797 6.82037 11.8692 6.82037 11.4942C6.82037 11.1192 7.13093 10.8204 7.50592 10.8204Z" fill="url(#paint0_linear_9_4697)"/>
</g>
<defs>
<linearGradient id="paint0_linear_9_4697" x1="1" y1="8" x2="14" y2="8" gradientUnits="userSpaceOnUse">
<stop stop-color="#FDFC47"/>
<stop offset="1" stop-color="#24FE41"/>
</linearGradient>
<clipPath id="clip0_9_4697">
<rect width="16" height="16" fill="white"/>
</clipPath>
</defs>
</svg>
