<svg width="16" height="16" viewBox="0 0 16 16" fill="none" xmlns="http://www.w3.org/2000/svg">
<g clip-path="url(#clip0_9_4685)">
<path d="M2 1C0.892 1 0 1.892 0 3V12C0 13.108 0.892 14 2 14H7.5V15H0.5547C0.24692 15 1e-05 15.223 1e-05 15.5C1e-05 15.777 0.24692 16 0.5547 16H15.4457C15.7535 16 16.0004 15.777 16.0004 15.5C16.0004 15.223 15.7535 15 15.4457 15H8.5004V14H14.0004C15.1084 14 16.0004 13.108 16.0004 12V4C16.0004 2.892 15.1084 2 14.0004 2H12.0004H6.3715C5.79165 1.9771 5.7668 2.07688 5.3324 1.64258C4.89859 1.20877 4.7194 1.00045 4.0004 1H2ZM2 2H4C4.31116 2 4.52033 2.00014 4.99805 2.4707C5.47682 2.94231 5.63685 3 5.99805 3H12H14C14.554 3 15 3.446 15 4V5H1.00005V3C1.00005 2.446 1.446 2 2 2ZM1 6H15V12C15 12.554 14.554 13 14 13H2C1.446 13 1 12.554 1 12V6Z" fill="url(#paint0_linear_9_4685)"/>
</g>
<defs>
<linearGradient id="paint0_linear_9_4685" x1="0" y1="8.5" x2="16.0004" y2="8.5" gradientUnits="userSpaceOnUse">
<stop stop-color="#FDFC47"/>
<stop offset="1" stop-color="#24FE41"/>
</linearGradient>
<clipPath id="clip0_9_4685">
<rect width="16" height="16" fill="white"/>
</clipPath>
</defs>
</svg>
