<svg width="16" height="16" viewBox="0 0 16 16" fill="none" xmlns="http://www.w3.org/2000/svg">
<path d="M2 2C0.892 2 0 2.892 0 4V13C0 14.108 0.892 15 2 15H14C15.108 15 16 14.108 16 13V5C16 3.892 15.108 3 14 3H12H6.3711C5.79125 2.9771 5.76636 3.07689 5.332 2.64258C4.89819 2.20877 4.71903 2.00045 4 2H2ZM2 3H4C4.31116 3 4.52033 3.00014 4.99805 3.4707C5.47682 3.94231 5.63685 4 5.99805 4H12H14C14.554 4 15 4.446 15 5V6H1.00005V4C1.00005 3.446 1.446 3 2 3ZM1 7H15V13C15 13.554 14.554 14 14 14H2C1.446 14 1 13.554 1 13V7Z" fill="url(#paint0_linear_9_4732)"/>
<defs>
<linearGradient id="paint0_linear_9_4732" x1="0" y1="8.5" x2="16" y2="8.5" gradientUnits="userSpaceOnUse">
<stop stop-color="#FDFC47"/>
<stop offset="1" stop-color="#24FE41"/>
</linearGradient>
</defs>
</svg>
