<svg width="16" height="16" viewBox="0 0 16 16" fill="none" xmlns="http://www.w3.org/2000/svg">
<g clip-path="url(#clip0_9_4691)">
<path d="M8.0001 -0.000163078C5.87834 -0.000163078 3.84348 0.842702 2.34318 2.34301C0.842865 3.84332 0 5.87818 0 7.99994C0 10.1217 0.842865 12.1566 2.34318 13.6569C3.84348 15.1572 5.87834 16 8.0001 16C10.1219 16 12.1567 15.1572 13.657 13.6569C15.1573 12.1566 16.0002 10.1217 16.0002 7.99994C16.0002 5.87818 15.1573 3.84332 13.657 2.34301C12.1567 0.842702 10.1219 -0.000163078 8.0001 -0.000163078ZM7.90635 0.999849C7.9376 0.99964 7.96885 0.99964 8.0001 0.999849C9.85664 0.999849 11.6371 1.73736 12.9499 3.05013C14.2627 4.3629 15.0002 6.1434 15.0002 7.99994C15.0002 9.85648 14.2627 11.637 12.9499 12.9497C11.6371 14.2625 9.85664 15 8.0001 15C7.03043 15 6.07135 14.7984 5.18366 14.4082C5.28848 14.2673 5.38472 14.1167 5.45515 13.9473C5.57692 13.6531 5.63328 13.345 5.62507 13.0371L8.41421 11.043C8.43678 11.0437 8.45999 11.0449 8.48257 11.0449C10.1524 11.0449 11.5099 9.68351 11.5099 8.01169C11.5099 6.33977 10.1525 4.98045 8.48257 4.98045C6.81334 4.98045 5.45713 6.33987 5.45713 8.01169C5.45713 8.02509 5.45642 8.03817 5.45713 8.05075L3.5079 10.8848C3.192 10.8704 2.8749 10.925 2.5743 11.0489C2.44179 11.1029 2.31776 11.1695 2.20125 11.2461L1.69343 11.0371C1.23711 10.0897 1.00012 9.05161 1.00006 8C0.999896 6.1596 1.72451 4.39317 3.01707 3.08306C4.30962 1.77296 6.06611 1.02451 7.90635 0.999849ZM8.48253 5.99211C9.59484 5.99211 10.5021 6.89831 10.5021 8.01164C10.5021 9.12585 9.59484 10.0332 8.48253 10.0332C7.37091 10.0332 6.4669 9.12589 6.4669 8.01164C6.4669 6.89832 7.37093 5.99211 8.48253 5.99211ZM8.48643 6.49017C7.65047 6.49017 6.97271 7.16955 6.97271 8.00779C6.97271 8.84607 7.65045 9.52541 8.48643 9.52541C9.32308 9.52541 10.0021 8.84609 10.0021 8.00779C10.0021 7.16957 9.32303 6.49017 8.48643 6.49017ZM3.43367 11.3886C3.64668 11.3904 3.86165 11.4326 4.0704 11.5195C4.49132 11.6946 4.81921 12.0239 4.99229 12.4453C5.16536 12.8667 5.16351 13.3319 4.98838 13.7519C4.92091 13.9139 4.8257 14.054 4.71885 14.1816C4.56868 14.1023 4.42144 14.0176 4.27743 13.9277C4.37184 13.8238 4.45091 13.7034 4.50791 13.5663C4.77498 12.9254 4.4723 12.1886 3.83212 11.9218L2.81261 11.4999C3.00915 11.4254 3.22066 11.3869 3.43367 11.3886Z" fill="url(#paint0_linear_9_4691)"/>
</g>
<defs>
<linearGradient id="paint0_linear_9_4691" x1="0" y1="7.99994" x2="16.0002" y2="7.99994" gradientUnits="userSpaceOnUse">
<stop stop-color="#FDFC47"/>
<stop offset="1" stop-color="#24FE41"/>
</linearGradient>
<clipPath id="clip0_9_4691">
<rect width="16" height="16" fill="white"/>
</clipPath>
</defs>
</svg>
