<svg width="16" height="16" viewBox="0 0 16 16" fill="none" xmlns="http://www.w3.org/2000/svg">
<g clip-path="url(#clip0_9_4650)">
<path d="M9.00004 3C8.01966 3.00013 7.06095 3.28847 6.24315 3.82915C5.42535 4.36983 4.78455 5.13901 4.40044 6.041C4.26869 6.0139 4.13455 6.00016 4.00005 5.99998C3.46961 5.99998 2.96091 6.2107 2.58583 6.58577C2.21076 6.96084 2.00005 7.46955 2.00005 7.99998C2.00048 8.01692 2.00113 8.03385 2.002 8.05077C0.857 8.28025 0 9.28547 0 10.5C0 11.885 1.115 13 2.5 13H13.5C14.885 13 16 11.885 16 10.5C16 9.28547 15.1431 8.28027 13.998 8.05077C13.9987 8.03384 13.9994 8.01691 14 7.99998C14 6.6739 13.4732 5.40213 12.5355 4.46445C11.5978 3.52677 10.3261 3 9.00004 3ZM8.93363 4C8.95577 3.99982 8.9779 3.99982 9.00004 4C10.0609 4 11.0783 4.42143 11.8285 5.17157C12.5786 5.92172 13 6.93913 13 8C12.9981 8.3376 12.9535 8.67361 12.8672 9H13.5C14.331 9 15 9.669 15 10.5C15 11.331 14.331 12 13.5 12H9.00004H2.50004C1.66904 12 1.00004 11.331 1.00004 10.5C1.00004 9.669 1.66904 9 2.50004 9H3.00004V8C3.00004 7.73478 3.10539 7.48043 3.29293 7.29289C3.48047 7.10536 3.73482 7 4.00004 7H5.13284C5.35132 6.15322 5.84129 5.40138 6.52773 4.85956C7.21418 4.31775 8.05926 4.01582 8.93363 4Z" fill="url(#paint0_linear_9_4650)"/>
</g>
<defs>
<linearGradient id="paint0_linear_9_4650" x1="0" y1="7.99998" x2="16" y2="7.99998" gradientUnits="userSpaceOnUse">
<stop stop-color="#FDFC47"/>
<stop offset="1" stop-color="#24FE41"/>
</linearGradient>
<clipPath id="clip0_9_4650">
<rect width="16" height="16" fill="white"/>
</clipPath>
</defs>
</svg>
