<svg width="16" height="16" viewBox="0 0 16 16" fill="none" xmlns="http://www.w3.org/2000/svg">
<path d="M7.5 0C5.51088 0 3.60322 0.790176 2.1967 2.1967C0.790176 3.60322 0 5.51088 0 7.5C0 9.48912 0.790176 11.3968 2.1967 12.8033C3.60322 14.2098 5.51088 15 7.5 15C9.48912 15 11.3968 14.2098 12.8033 12.8033C14.2098 11.3968 15 9.48912 15 7.5C15 5.51088 14.2098 3.60322 12.8033 2.1967C11.3968 0.790176 9.48912 0 7.5 0ZM7.5 1C8.35359 1 9.19883 1.16813 9.98744 1.49478C10.7761 1.82144 11.4926 2.30023 12.0962 2.90381C12.6998 3.50739 13.1786 4.22394 13.5052 5.01256C13.8319 5.80117 14 6.64641 14 7.5C14 8.35359 13.8319 9.19883 13.5052 9.98744C13.1786 10.7761 12.6998 11.4926 12.0962 12.0962C11.4926 12.6998 10.7761 13.1786 9.98744 13.5052C9.19883 13.8319 8.35359 14 7.5 14C5.77609 14 4.12279 13.3152 2.90381 12.0962C1.68482 10.8772 1 9.22391 1 7.5C1 5.77609 1.68482 4.12279 2.90381 2.90381C4.12279 1.68482 5.77609 1 7.5 1ZM7.5 4C7.223 4 7 4.223 7 4.5V9.293L5.7324 8.0254C5.53653 7.82953 5.22124 7.82953 5.02537 8.0254C4.8295 8.22127 4.8295 8.53656 5.02537 8.73243L7.14647 10.8535C7.19348 10.9005 7.24971 10.9376 7.31249 10.9629C7.43283 11.0119 7.56715 11.0119 7.68749 10.9629C7.75027 10.9376 7.80649 10.9005 7.85351 10.8535L9.97461 8.73243C10.1705 8.53656 10.1705 8.22127 9.97461 8.0254C9.77874 7.82953 9.46345 7.82953 9.26758 8.0254L7.99998 9.293V4.5C7.99998 4.223 7.777 4 7.5 4Z" fill="url(#paint0_linear_9_4610)"/>
<defs>
<linearGradient id="paint0_linear_9_4610" x1="0" y1="7.5" x2="15" y2="7.5" gradientUnits="userSpaceOnUse">
<stop stop-color="#FDFC47"/>
<stop offset="1" stop-color="#24FE41"/>
</linearGradient>
</defs>
</svg>
