<svg width="16" height="16" viewBox="0 0 16 16" fill="none" xmlns="http://www.w3.org/2000/svg">
<g clip-path="url(#clip0_9_4707)">
<path d="M8 0C5.87827 0 3.84344 0.842855 2.34315 2.34315C0.842855 3.84344 0 5.87827 0 8C0 10.1217 0.842855 12.1566 2.34315 13.6569C3.84344 15.1571 5.87827 16 8 16C9.94366 15.9966 11.8196 15.2856 13.2773 14H8C6.4087 14 4.88258 13.3679 3.75736 12.2426C2.63214 11.1174 2 9.5913 2 8C2 6.4087 2.63214 4.88258 3.75736 3.75736C4.88258 2.63214 6.4087 2 8 2V3C6.67392 3 5.40215 3.52678 4.46447 4.46447C3.52678 5.40215 3 6.67392 3 8C3 9.32608 3.52678 10.5979 4.46447 11.5355C5.40215 12.4732 6.67392 13 8 13H11.3086H14.2363C14.4891 12.6844 14.7177 12.3501 14.9199 12H8C5.79086 12 4 10.2091 4 8C4 5.79086 5.79086 4 8 4C8.33752 4.00126 8.67352 4.04523 9 4.13086V5.17578C8.67908 5.0608 8.3409 5.0014 8 5C6.34315 5 5 6.34315 5 8C5 9.65685 6.34315 11 8 11H15.4102C15.54 10.6741 15.6483 10.3401 15.7344 10H8C7.46957 10 6.96086 9.78929 6.58579 9.41421C6.21071 9.03914 6 8.53043 6 8C6 7.46957 6.21071 6.96086 6.58579 6.58579C6.96086 6.21071 7.46957 6 8 6C8.35081 6.00028 8.69537 6.09282 8.9991 6.26834C9.30284 6.44387 9.55507 6.69619 9.73047 7H8C7.73478 7 7.48043 7.10536 7.29289 7.29289C7.10536 7.48043 7 7.73478 7 8C7 8.26522 7.10536 8.51957 7.29289 8.70711C7.48043 8.89464 7.73478 9 8 9H15.9297C15.974 8.66846 15.9975 8.33448 16 8C16 5.87827 15.1571 3.84344 13.6569 2.34315C12.1566 0.842855 10.1217 0 8 0Z" fill="url(#paint0_linear_9_4707)"/>
</g>
<defs>
<linearGradient id="paint0_linear_9_4707" x1="0" y1="8" x2="16" y2="8" gradientUnits="userSpaceOnUse">
<stop stop-color="#FDFC47"/>
<stop offset="1" stop-color="#24FE41"/>
</linearGradient>
<clipPath id="clip0_9_4707">
<rect width="16" height="16" fill="white"/>
</clipPath>
</defs>
</svg>
