<svg width="16" height="16" viewBox="0 0 16 16" fill="none" xmlns="http://www.w3.org/2000/svg">
<g clip-path="url(#clip0_9_4704)">
<path d="M7.99992 1.00579C7.87211 1.00579 7.74434 1.05434 7.6464 1.15227L0.576102 8.22457C0.380232 8.42044 0.380232 8.73573 0.576102 8.9316C0.771972 9.12747 1.08726 9.12747 1.28313 8.9316L1.99993 8.2148V14C1.99993 15.108 2.89193 16 3.99993 16H11.9999C13.1079 16 13.9999 15.108 13.9999 14V8.2148L14.7167 8.9316C14.9126 9.12747 15.2279 9.12747 15.4238 8.9316C15.6196 8.73573 15.6196 8.42044 15.4238 8.22457L8.35346 1.15227C8.25553 1.05434 8.12773 1.00579 7.99992 1.00579ZM7.99992 2.21479L12.9999 7.21479V14C12.9999 14.554 12.5539 15 11.9999 15H9.99992V12C9.99992 10.892 9.10792 9.99999 7.99992 9.99999C6.89192 9.99999 5.99992 10.892 5.99992 12V15H3.99992C3.44592 15 2.99992 14.554 2.99992 14V7.21479L7.99992 2.21479Z" fill="url(#paint0_linear_9_4704)"/>
</g>
<defs>
<linearGradient id="paint0_linear_9_4704" x1="0.429199" y1="8.5029" x2="15.5707" y2="8.5029" gradientUnits="userSpaceOnUse">
<stop stop-color="#FDFC47"/>
<stop offset="1" stop-color="#24FE41"/>
</linearGradient>
<clipPath id="clip0_9_4704">
<rect width="16" height="16" fill="white"/>
</clipPath>
</defs>
</svg>
