<svg width="16" height="16" viewBox="0 0 16 16" fill="none" xmlns="http://www.w3.org/2000/svg">
<path d="M3.99998 3.3398C3.4274 3.61811 3.01957 4.00245 2.83008 4.24996L0.20508 7.67766C0.0719202 7.85214 -0.000149766 8.06559 2.33674e-07 8.28508V8.49992V8.99992V11.9999C2.33674e-07 13.1079 0.892 13.9999 2 13.9999H13C14.108 13.9999 14.9979 13.1079 15 11.9999V8.99992V8.49992V8.28508C15.0001 8.06559 14.9281 7.85214 14.7949 7.67766L12.1699 4.24996C11.9804 4.00245 11.5726 3.61811 11 3.3398V4.4707C11.1503 4.59577 11.2766 4.72886 11.375 4.85742L13.7812 8.00002H12H10.959H10.0782H9.94925C9.71168 9.16392 8.68795 9.99992 7.50005 10C6.31365 9.99803 5.29205 9.16246 5.05475 8.00002H4.92194H4.03913H1.21883L3.62503 4.85742C3.72346 4.72886 3.84978 4.59577 4.00003 4.4707L3.99998 3.3398ZM0.99998 9H4.34178C4.92053 10.2201 6.14958 10.9984 7.49998 11C8.85028 10.9967 10.0693 10.2137 10.6465 9H10.6582H12H14V12C14 12.554 13.554 13 13 13H2C1.446 13 0.999999 12.554 0.999999 12L0.99998 9Z" fill="url(#paint0_linear_9_4738)"/>
<path d="M7.49995 8C7.22295 8 6.99995 7.777 6.99995 7.5V2.707L5.73235 3.9746C5.53648 4.17047 5.22119 4.17047 5.02532 3.9746C4.82945 3.77873 4.82945 3.46344 5.02532 3.26757L7.14642 1.14647C7.19343 1.09946 7.24966 1.0624 7.31244 1.03709C7.37034 1.01375 7.43349 0.999981 7.49994 0.999981C7.56639 0.999981 7.62954 1.01375 7.68744 1.03709C7.75022 1.06239 7.80644 1.09945 7.85346 1.14647L9.97456 3.26757C10.1704 3.46344 10.1704 3.77873 9.97456 3.9746C9.77869 4.17047 9.4634 4.17047 9.26753 3.9746L7.99993 2.707V7.5C7.99993 7.777 7.77695 8 7.49995 8Z" fill="url(#paint1_linear_9_4738)"/>
<defs>
<linearGradient id="paint0_linear_9_4738" x1="0" y1="8.66986" x2="15" y2="8.66986" gradientUnits="userSpaceOnUse">
<stop stop-color="#FDFC47"/>
<stop offset="1" stop-color="#24FE41"/>
</linearGradient>
<linearGradient id="paint1_linear_9_4738" x1="4.87842" y1="4.49999" x2="10.1215" y2="4.49999" gradientUnits="userSpaceOnUse">
<stop stop-color="#FDFC47"/>
<stop offset="1" stop-color="#24FE41"/>
</linearGradient>
</defs>
</svg>
