<svg width="16" height="16" viewBox="0 0 16 16" fill="none" xmlns="http://www.w3.org/2000/svg">
<path d="M7.49998 1C7.22298 1 6.99998 1.223 6.99998 1.5V6.293L5.73238 5.0254C5.53651 4.82953 5.22122 4.82953 5.02535 5.0254C4.82948 5.22127 4.82948 5.53656 5.02535 5.73243L7.14645 7.85353C7.19346 7.90054 7.24969 7.9376 7.31247 7.96291C7.37037 7.98625 7.43352 8.00002 7.49997 8.00002C7.56642 8.00002 7.62957 7.98625 7.68747 7.96291C7.75025 7.93761 7.80647 7.90055 7.85349 7.85353L9.97459 5.73243C10.1705 5.53656 10.1705 5.22127 9.97459 5.0254C9.77872 4.82953 9.46343 4.82953 9.26756 5.0254L7.99996 6.293V1.5C7.99996 1.223 7.77698 1 7.49998 1ZM4.99998 3.0293C3.85918 3.16441 3.11638 3.87608 2.83008 4.25L0.20508 7.6777C0.0719202 7.85218 -0.000149766 8.06563 2.33674e-07 8.28512V11.9999C2.33674e-07 13.1079 0.892 13.9999 2 13.9999H13C14.108 13.9999 14.9979 13.1079 15 11.9999V8.28512C15.0001 8.06563 14.9281 7.85218 14.7949 7.6777L12.1699 4.25C11.8836 3.87608 11.1408 3.1644 10 3.0293V4.0449C10.7628 4.14927 11.1244 4.53007 11.375 4.8574L13.7812 8H9.94912C9.83388 8.56455 9.52717 9.07196 9.08088 9.4364C8.63459 9.80084 8.07611 9.99993 7.49992 10C6.9244 9.99904 6.36684 9.79953 5.92135 9.43517C5.47586 9.0708 5.16972 8.56389 5.05462 8H1.21872L3.62492 4.8574C3.87553 4.53007 4.23714 4.14927 4.99992 4.0449L4.99998 3.0293ZM0.99998 9H4.34178C4.62534 9.59779 5.07253 10.103 5.63151 10.457C6.19048 10.8109 6.83835 10.9992 7.49998 11C8.16061 10.9981 8.80722 10.8093 9.36505 10.4554C9.92288 10.1015 10.3692 9.59689 10.6523 9H14V12C14 12.554 13.554 13 13 13H1.99998C1.44598 13 0.99998 12.554 0.99998 12V9Z" fill="url(#paint0_linear_9_4736)"/>
<defs>
<linearGradient id="paint0_linear_9_4736" x1="0" y1="7.49996" x2="15" y2="7.49996" gradientUnits="userSpaceOnUse">
<stop stop-color="#FDFC47"/>
<stop offset="1" stop-color="#24FE41"/>
</linearGradient>
</defs>
</svg>
