<svg width="16" height="16" viewBox="0 0 16 16" fill="none" xmlns="http://www.w3.org/2000/svg">
<path d="M3 0C2.446 0 2 0.446 2 1V2C0.892 2 0 2.892 0 4V12C0 13.108 0.892 14 2 14H14C15.108 14 16 13.108 16 12V4C16 2.892 15.108 2 14 2V1C14 0.446 13.554 0 13 0H3ZM3 1H13V2V3V5.3789L8.5391 8.9316C8.23351 9.17495 7.76654 9.17495 7.461 8.9316L3.0001 5.3789V3V2L3 1ZM4.5 2C4.223 2 4 2.223 4 2.5C4 2.777 4.223 3 4.5 3H11.5C11.777 3 12 2.777 12 2.5C12 2.223 11.777 2 11.5 2H4.5ZM2 3V4.584L1.03711 3.81642C1.12552 3.35407 1.51112 3 2 3ZM14 3C14.4889 3 14.8745 3.35406 14.9629 3.81641L14 4.58399V3ZM4.5 4C4.223 4 4 4.223 4 4.5C4 4.777 4.223 5 4.5 5H11.5C11.777 5 12 4.777 12 4.5C12 4.223 11.777 4 11.5 4H4.5ZM1 5.0488L4.7051 8L1 10.9512V5.0488ZM15 5.0488V10.9511L11.2949 7.9999L15 5.0488ZM5.498 8.6328L6.6679 9.56444C7.39877 10.1464 8.6011 10.1464 9.332 9.56444L10.5019 8.6328L14.9628 12.1836C14.8744 12.646 14.4888 13 13.9999 13H1.99991C1.51103 13 1.12543 12.646 1.03702 12.1836L5.498 8.6328Z" fill="url(#paint0_linear_9_4745)"/>
<defs>
<linearGradient id="paint0_linear_9_4745" x1="0" y1="7" x2="16" y2="7" gradientUnits="userSpaceOnUse">
<stop stop-color="#FDFC47"/>
<stop offset="1" stop-color="#24FE41"/>
</linearGradient>
</defs>
</svg>
