<svg width="16" height="16" viewBox="0 0 16 16" fill="none" xmlns="http://www.w3.org/2000/svg">
<g clip-path="url(#clip0_9_4741)">
<path d="M1 7V8H4V7H1ZM2 9V10H4V9H2Z" fill="url(#paint0_linear_9_4741)"/>
<path d="M5 2V3H14C14.4889 3 14.8745 3.35406 14.9629 3.81641L8.53909 8.93161C8.2335 9.17496 7.76653 9.17496 7.46099 8.93161L5.00009 6.97261V9.02921L5.49814 8.63273L6.66804 9.56437C7.39891 10.1464 8.60124 10.1464 9.33214 9.56437L10.502 8.63273L14.9629 12.1835C14.8745 12.6459 14.4889 12.9999 14 12.9999H5.00005V13.9999H14C15.108 13.9999 16 13.1079 16 11.9999V3.99994C16 2.89194 15.108 1.99994 14 1.99994L5 2ZM15 5.0488V10.9511L11.2949 7.9999L15 5.0488Z" fill="url(#paint1_linear_9_4741)"/>
<path d="M4 5H0V6H4V5Z" fill="url(#paint2_linear_9_4741)"/>
</g>
<defs>
<linearGradient id="paint0_linear_9_4741" x1="1" y1="8.5" x2="4" y2="8.5" gradientUnits="userSpaceOnUse">
<stop stop-color="#FDFC47"/>
<stop offset="1" stop-color="#24FE41"/>
</linearGradient>
<linearGradient id="paint1_linear_9_4741" x1="5" y1="7.99994" x2="16" y2="7.99994" gradientUnits="userSpaceOnUse">
<stop stop-color="#FDFC47"/>
<stop offset="1" stop-color="#24FE41"/>
</linearGradient>
<linearGradient id="paint2_linear_9_4741" x1="0" y1="5.5" x2="4" y2="5.5" gradientUnits="userSpaceOnUse">
<stop stop-color="#FDFC47"/>
<stop offset="1" stop-color="#24FE41"/>
</linearGradient>
<clipPath id="clip0_9_4741">
<rect width="16" height="16" fill="white"/>
</clipPath>
</defs>
</svg>
