<svg width="16" height="16" viewBox="0 0 16 16" fill="none" xmlns="http://www.w3.org/2000/svg">
<path d="M8 2C6.4087 2 4.88258 2.21071 3.75736 2.58579C2.63214 2.96086 2 3.46957 2 4V12C2 12.5304 2.63214 13.0391 3.75736 13.4142C4.88258 13.7893 6.4087 14 8 14C9.5913 14 11.1174 13.7893 12.2426 13.4142C13.3679 13.0391 14 12.5304 14 12V4C14 3.46957 13.3679 2.96086 12.2426 2.58579C11.1174 2.21071 9.5913 2 8 2ZM8 3C9.32608 3 10.5979 3.10536 11.5355 3.29289C12.4732 3.48043 13 3.73478 13 4C13 4.26522 12.4732 4.51957 11.5355 4.70711C10.5979 4.89464 9.32608 5 8 5C6.67392 5 5.40215 4.89464 4.46447 4.70711C3.52678 4.51957 3 4.26522 3 4C3 3.73478 3.52678 3.48043 4.46447 3.29289C5.40215 3.10536 6.67392 3 8 3ZM3 5.1016C3.54594 5.37737 4.28833 5.60376 5.16084 5.76054C6.03335 5.91732 7.00879 5.9996 8 6.00004C8.99067 5.99982 9.96576 5.91783 10.8382 5.7614C11.7107 5.60497 12.4534 5.37897 13 5.10356V8.00006C13 8.26528 12.4732 8.51963 11.5355 8.70717C10.5979 8.8947 9.32608 9.00006 8 9.00006C6.67392 9.00006 5.40215 8.8947 4.46447 8.70717C3.52678 8.51963 3 8.26528 3 8.00006V5.1016ZM3 9.1016C3.54594 9.37737 4.28833 9.60376 5.16084 9.76054C6.03335 9.91732 7.00879 9.9996 8 10C8.99067 9.99982 9.96576 9.91783 10.8382 9.7614C11.7107 9.60497 12.4534 9.37897 13 9.10356V12.0001C13 12.2653 12.4732 12.5196 11.5355 12.7072C10.5979 12.8947 9.32608 13.0001 8 13.0001C6.67392 13.0001 5.40215 12.8947 4.46447 12.7072C3.52678 12.5196 3 12.2653 3 12.0001V9.1016Z" fill="url(#paint0_linear_9_4747)"/>
<defs>
<linearGradient id="paint0_linear_9_4747" x1="2" y1="8" x2="14" y2="8" gradientUnits="userSpaceOnUse">
<stop stop-color="#FDFC47"/>
<stop offset="1" stop-color="#24FE41"/>
</linearGradient>
</defs>
</svg>
