<svg width="22" height="22" viewBox="0 0 22 22" fill="none" xmlns="http://www.w3.org/2000/svg">
<path d="M11.5 9C10.2861 9 9.28098 9.85593 9.05078 11H3V12H9.05078C9.28098 13.1441 10.2861 14 11.5 14C12.7139 14 13.719 13.1441 13.9492 12H19V11H13.9492C13.719 9.85593 12.7139 9 11.5 9Z" fill="url(#paint0_linear_10_11644)"/>
<path d="M5.5 14C4.115 14 3 15.115 3 16.5C3 17.885 4.115 19 5.5 19C6.71386 19 7.71902 18.1441 7.94922 17H19V16H7.94922C7.71902 14.8559 6.71386 14 5.5 14ZM5.5 15C6.331 15 7 15.669 7 16.5C7 17.331 6.331 18 5.5 18C4.669 18 4 17.331 4 16.5C4 15.669 4.669 15 5.5 15Z" fill="url(#paint1_linear_10_11644)"/>
<path d="M14.5 3C13.2861 3 12.281 3.85593 12.0508 5H3V6H12.0508C12.281 7.14407 13.2861 8 14.5 8C15.7139 8 16.719 7.14407 16.9492 6H19V5H16.9492C16.719 3.85593 15.7139 3 14.5 3ZM14.5 4C15.331 4 16 4.669 16 5.5C16 6.331 15.331 7 14.5 7C13.669 7 13 6.331 13 5.5C13 4.669 13.669 4 14.5 4Z" fill="url(#paint2_linear_10_11644)"/>
<defs>
<linearGradient id="paint0_linear_10_11644" x1="3" y1="11.5" x2="19" y2="11.5" gradientUnits="userSpaceOnUse">
<stop stop-color="#56AB2F"/>
<stop offset="1" stop-color="#A8E063"/>
</linearGradient>
<linearGradient id="paint1_linear_10_11644" x1="3" y1="16.5" x2="19" y2="16.5" gradientUnits="userSpaceOnUse">
<stop stop-color="#2193B0"/>
<stop offset="1" stop-color="#6DD5ED"/>
</linearGradient>
<linearGradient id="paint2_linear_10_11644" x1="3" y1="3" x2="3.9841" y2="10.0855" gradientUnits="userSpaceOnUse">
<stop stop-color="#FF0500"/>
<stop offset="1" stop-color="#FD3632"/>
</linearGradient>
</defs>
</svg>
