<svg width="22" height="22" viewBox="0 0 22 22" fill="none" xmlns="http://www.w3.org/2000/svg">
<path d="M6.70703 7L6 7.70703L7.793 9.50003L6 11.293L6.70703 12.0001L9.20703 9.50006L9 9.29303L6.70703 7ZM10 10.998V11.998H14V10.998H10Z" fill="url(#paint0_linear_10_11651)"/>
<path d="M5 3C3.338 3 2 4.338 2 6V16C2 17.662 3.338 19 5 19H17C18.662 19 20 17.662 20 16V6C20 4.338 18.662 3 17 3H5ZM5 4H17C18.108 4 19 4.892 19 6V16C19 17.108 18.108 18 17 18H5C3.892 18 3 17.108 3 16V6C3 4.892 3.892 4 5 4Z" fill="url(#paint1_linear_10_11651)"/>
<defs>
<linearGradient id="paint0_linear_10_11651" x1="6" y1="9.50003" x2="14" y2="9.50003" gradientUnits="userSpaceOnUse">
<stop stop-color="#FDFC47"/>
<stop offset="1" stop-color="#24FE41"/>
</linearGradient>
<linearGradient id="paint1_linear_10_11651" x1="2" y1="11" x2="20" y2="11" gradientUnits="userSpaceOnUse">
<stop stop-color="#FDFC47"/>
<stop offset="1" stop-color="#24FE41"/>
</linearGradient>
</defs>
</svg>
