<svg width="22" height="22" viewBox="0 0 22 22" fill="none" xmlns="http://www.w3.org/2000/svg">
<path d="M6.0957 6C6.36524 7.7782 7.06276 9.64812 8.64648 11.3535C7.92625 12.2599 7.01719 13.1405 5.8418 14H3V15H4.32617C3.82772 15.299 3.29999 15.5965 2.71875 15.8906L3.31445 17C4.55874 16.3703 5.62502 15.6983 6.55469 15H19V14H7.77148C10.5903 11.46 11.8225 8.63196 12.7188 6H11.3613C10.8494 7.5034 10.2582 8.93179 9.375 10.3086C8.11027 8.89229 7.51827 7.5122 7.28906 6H6.0957ZM16.1367 6C14.964 6.025 14.0647 6.21755 13.4102 6.49805L13.7773 7.75977C14.091 7.65767 15.2772 7.30078 15.9727 7.30078H16.0684C17.0365 7.33878 17.1055 7.66947 17.1055 8.44727V8.75391L16.5996 8.83203C14.2541 9.15083 13 9.41846 13 11.1016C13 12.2746 13.9136 13 15.2363 13C16.15 13 16.7497 12.6428 17.3633 12.1582L17.5547 12.873H19V8.1543C19 6.7135 17.9372 6 16.3008 6H16.1367ZM17.1055 9.75V11.3184C16.6009 11.6372 16.219 11.8652 15.5645 11.8652C14.9781 11.8652 14.6914 11.5216 14.6914 11.0371C14.6914 10.1191 15.5496 9.96452 16.5996 9.82422L17.1055 9.75Z" fill="url(#paint0_linear_10_11677)"/>
<defs>
<linearGradient id="paint0_linear_10_11677" x1="2.71875" y1="11.5" x2="19" y2="11.5" gradientUnits="userSpaceOnUse">
<stop stop-color="#FDFC47"/>
<stop offset="1" stop-color="#24FE41"/>
</linearGradient>
</defs>
</svg>
