<svg width="22" height="22" viewBox="0 0 22 22" fill="none" xmlns="http://www.w3.org/2000/svg">
<path d="M7 3V17.4609C6.67124 17.5297 6.37289 17.602 6 17.666L6.27734 19C6.52667 18.9572 6.76203 18.9035 7 18.8516V19H8V18.5977C12.8149 17.1971 15 13.8535 15 11H13.5234C13.5234 11.9235 13.057 13.706 12.2578 14.3926C11.442 13.6195 10.4579 12.4244 10.2207 11.0215L9.03125 11C9.03125 12.8985 10.3723 14.4706 11.3809 15.4355C10.5186 16.3114 9.50343 16.8388 8 17.2402V3H7ZM12.1367 3C10.964 3.02548 10.0628 3.21755 9.4082 3.49805L9.77734 4.75977C10.091 4.65771 11.2772 4.30078 11.9727 4.30078H12.0684C13.0366 4.339 13.1055 4.6695 13.1055 5.44727V5.75391L12.5996 5.83008C10.2541 6.14884 9 6.41656 9 8.09961C9 9.27264 9.91358 10 11.2363 10C12.15 10 12.7496 9.64271 13.3633 9.1582L13.5547 9.87305H15V5.1543C15 3.71352 13.9372 3 12.3008 3H12.1367ZM13.1055 6.74805V8.31641C12.6009 8.63517 12.219 8.86523 11.5645 8.86523C10.9781 8.86523 10.6914 8.52162 10.6914 8.03711C10.6914 7.11908 11.5496 6.96447 12.5996 6.82422L13.1055 6.74805Z" fill="url(#paint0_linear_10_11654)"/>
<defs>
<linearGradient id="paint0_linear_10_11654" x1="6" y1="11" x2="15" y2="11" gradientUnits="userSpaceOnUse">
<stop stop-color="#FDFC47"/>
<stop offset="1" stop-color="#24FE41"/>
</linearGradient>
</defs>
</svg>
