<svg width="22" height="22" viewBox="0 0 22 22" fill="none" xmlns="http://www.w3.org/2000/svg">
<path d="M11 3C10.2044 3 9.44129 3.31607 8.87868 3.87868C8.31607 4.44129 8 5.20435 8 6H5V7V18V19H13V18H6V7H8V8.08789C7.70789 8.19117 7.45492 8.38237 7.27586 8.63522C7.0968 8.88807 7.00043 9.19017 7 9.5C7 9.89782 7.15804 10.2794 7.43934 10.5607C7.72064 10.842 8.10218 11 8.5 11C8.89782 11 9.27936 10.842 9.56066 10.5607C9.84196 10.2794 10 9.89782 10 9.5C9.99957 9.19017 9.9032 8.88807 9.72414 8.63522C9.54508 8.38237 9.29211 8.19117 9 8.08789V7H13V8.08789C12.7079 8.19117 12.4549 8.38237 12.2759 8.63522C12.0968 8.88807 12.0004 9.19017 12 9.5C12 9.89782 12.158 10.2794 12.4393 10.5607C12.7206 10.842 13.1022 11 13.5 11C13.8978 11 14.2794 10.842 14.5607 10.5607C14.842 10.2794 15 9.89782 15 9.5C14.9996 9.19017 14.9032 8.88807 14.7241 8.63522C14.5451 8.38237 14.2921 8.19117 14 8.08789V7H16V13H17V7V6H14C14 5.20435 13.6839 4.44129 13.1213 3.87868C12.5587 3.31607 11.7956 3 11 3ZM11 4C11.5304 4 12.0391 4.21071 12.4142 4.58579C12.7893 4.96086 13 5.46957 13 6H9C9 5.46957 9.21071 4.96086 9.58579 4.58579C9.96086 4.21071 10.4696 4 11 4ZM8.5 9C8.63261 9 8.75979 9.05268 8.85355 9.14645C8.94732 9.24021 9 9.36739 9 9.5C9 9.63261 8.94732 9.75979 8.85355 9.85355C8.75979 9.94732 8.63261 10 8.5 10C8.36739 10 8.24021 9.94732 8.14645 9.85355C8.05268 9.75979 8 9.63261 8 9.5C8 9.36739 8.05268 9.24021 8.14645 9.14645C8.24021 9.05268 8.36739 9 8.5 9ZM13.5 9C13.6326 9 13.7598 9.05268 13.8536 9.14645C13.9473 9.24021 14 9.36739 14 9.5C14 9.63261 13.9473 9.75979 13.8536 9.85355C13.7598 9.94732 13.6326 10 13.5 10C13.3674 10 13.2402 9.94732 13.1464 9.85355C13.0527 9.75979 13 9.63261 13 9.5C13 9.36739 13.0527 9.24021 13.1464 9.14645C13.2402 9.05268 13.3674 9 13.5 9Z" fill="url(#paint0_linear_10_11696)"/>
<path d="M14.834 14L14 14.834L15.666 16.5L14 18.166L14.834 19L16.5 17.334L18.166 19L19 18.166L17.334 16.5L19 14.834L18.166 14L16.5 15.666L14.834 14Z" fill="url(#paint1_linear_10_11696)"/>
<defs>
<linearGradient id="paint0_linear_10_11696" x1="5" y1="11" x2="17" y2="11" gradientUnits="userSpaceOnUse">
<stop stop-color="#FDFC47"/>
<stop offset="1" stop-color="#24FE41"/>
</linearGradient>
<linearGradient id="paint1_linear_10_11696" x1="14" y1="14" x2="16.6804" y2="20.0309" gradientUnits="userSpaceOnUse">
<stop stop-color="#FF0500"/>
<stop offset="1" stop-color="#FD3632"/>
</linearGradient>
</defs>
</svg>
