<svg width="22" height="22" viewBox="0 0 22 22" fill="none" xmlns="http://www.w3.org/2000/svg">
<path d="M11 4C9.89543 4 9 4.89543 9 6C9 6.93198 9.6373 7.71554 10.5 7.9375V10H8V11H10.5V18.9688C7.96096 18.806 5.75161 17.4566 4.40625 15.4688L4.59375 15.375L5.5 14.875L5 14L2 15.625L2.5 16.5L3.53125 15.9375C5.13541 18.3731 7.86685 20 11 20C14.1332 20 16.8639 18.3731 18.4688 15.9375L19.5 16.5L20 15.625L17 14L16.5 14.875L17.4062 15.375L17.5938 15.4688C16.2484 17.4566 14.039 18.806 11.5 18.9688V11H14V10H11.5V7.9375C12.3627 7.71554 13 6.93198 13 6C13 4.89543 12.1046 4 11 4ZM11 5C11.5523 5 12 5.44771 12 6C12 6.55229 11.5523 7 11 7C10.4477 7 10 6.55229 10 6C10 5.44771 10.4477 5 11 5Z" fill="url(#paint0_linear_10_11705)"/>
<defs>
<linearGradient id="paint0_linear_10_11705" x1="2" y1="12" x2="20" y2="12" gradientUnits="userSpaceOnUse">
<stop stop-color="#FDFC47"/>
<stop offset="1" stop-color="#24FE41"/>
</linearGradient>
</defs>
</svg>
