<svg width="22" height="22" viewBox="0 0 22 22" fill="none" xmlns="http://www.w3.org/2000/svg">
<path d="M11 4V5H12V4H11ZM11 5H10V6H11V5ZM11 6V7H12V6H11ZM11 7H10V8H11V7ZM11 8V9H12V8H11ZM11 9H10V11H12V10H11V9Z" fill="url(#paint0_linear_10_11723)"/>
<path d="M16.5 13C15.5717 13 14.6815 13.3687 14.0251 14.0251C13.3687 14.6815 13 15.5717 13 16.5C13 17.4283 13.3687 18.3185 14.0251 18.9749C14.6815 19.6313 15.5717 20 16.5 20C17.4283 20 18.3185 19.6313 18.9749 18.9749C19.6313 18.3185 20 17.4283 20 16.5C20 15.5717 19.6313 14.6815 18.9749 14.0251C18.3185 13.3687 17.4283 13 16.5 13ZM16.5 14.0859L19 16.5859L18.293 17.2929L17 15.9999V18.9999H16V15.9999L14.707 17.2929L13.9999 16.5859L16.5 14.0859Z" fill="url(#paint1_linear_10_11723)"/>
<path d="M6 3C4.338 3 3 4.338 3 6V16C3 17.662 4.338 19 6 19H12.7598C12.5508 18.6889 12.3816 18.353 12.2559 18H5.99999C4.89199 18 3.99999 17.108 3.99999 16V6C3.99999 4.892 4.89199 4 5.99999 4H16C17.108 4 18 4.892 18 6V12.2578C18.3528 12.3822 18.6887 12.5502 19 12.7578V6C19 4.338 17.662 3 16 3H6Z" fill="url(#paint2_linear_10_11723)"/>
<defs>
<linearGradient id="paint0_linear_10_11723" x1="10" y1="7.5" x2="12" y2="7.5" gradientUnits="userSpaceOnUse">
<stop stop-color="#FDFC47"/>
<stop offset="1" stop-color="#24FE41"/>
</linearGradient>
<linearGradient id="paint1_linear_10_11723" x1="13" y1="16.5" x2="20" y2="16.5" gradientUnits="userSpaceOnUse">
<stop stop-color="#FDFC47"/>
<stop offset="1" stop-color="#24FE41"/>
</linearGradient>
<linearGradient id="paint2_linear_10_11723" x1="3" y1="11" x2="19" y2="11" gradientUnits="userSpaceOnUse">
<stop stop-color="#FDFC47"/>
<stop offset="1" stop-color="#24FE41"/>
</linearGradient>
</defs>
</svg>
