<svg width="22" height="22" viewBox="0 0 22 22" fill="none" xmlns="http://www.w3.org/2000/svg">
<path opacity="0.8" d="M14 19C16.7614 19 19 16.7614 19 14C19 11.2386 16.7614 9 14 9C11.2386 9 9 11.2386 9 14C9 16.7614 11.2386 19 14 19Z" fill="url(#paint0_linear_10_11782)"/>
<path opacity="0.4" d="M8 19C10.7614 19 13 16.7614 13 14C13 11.2386 10.7614 9 8 9C5.23858 9 3 11.2386 3 14C3 16.7614 5.23858 19 8 19Z" fill="url(#paint1_linear_10_11782)"/>
<path opacity="0.6" d="M11 13C13.7614 13 16 10.7614 16 8C16 5.23858 13.7614 3 11 3C8.23858 3 6 5.23858 6 8C6 10.7614 8.23858 13 11 13Z" fill="url(#paint2_linear_10_11782)"/>
<defs>
<linearGradient id="paint0_linear_10_11782" x1="9" y1="14" x2="19" y2="14" gradientUnits="userSpaceOnUse">
<stop stop-color="#FDFC47"/>
<stop offset="1" stop-color="#24FE41"/>
</linearGradient>
<linearGradient id="paint1_linear_10_11782" x1="3" y1="14" x2="13" y2="14" gradientUnits="userSpaceOnUse">
<stop stop-color="#FDFC47"/>
<stop offset="1" stop-color="#24FE41"/>
</linearGradient>
<linearGradient id="paint2_linear_10_11782" x1="6" y1="8" x2="16" y2="8" gradientUnits="userSpaceOnUse">
<stop stop-color="#FDFC47"/>
<stop offset="1" stop-color="#24FE41"/>
</linearGradient>
</defs>
</svg>
