<svg width="22" height="22" viewBox="0 0 22 22" fill="none" xmlns="http://www.w3.org/2000/svg">
<path d="M10 3V5.08984C8.77279 5.2975 7.64054 5.88167 6.76009 6.76142C5.87964 7.64117 5.29457 8.77296 5.08594 10H3V12H5.08984C5.32599 13.3971 6.04895 14.6655 7.13068 15.5807C8.2124 16.4958 9.5831 16.9986 11 17C12.4176 16.9995 13.7892 16.4971 14.8717 15.5819C15.9543 14.6667 16.6778 13.3977 16.9141 12H19V10H16.9102C16.7025 8.77279 16.1183 7.64054 15.2386 6.76009C14.3588 5.87964 13.227 5.29457 12 5.08594V3H10ZM11 6C12.3261 6 13.5979 6.52678 14.5355 7.46447C15.4732 8.40215 16 9.67392 16 11C16 12.3261 15.4732 13.5979 14.5355 14.5355C13.5979 15.4732 12.3261 16 11 16C9.67392 16 8.40215 15.4732 7.46447 14.5355C6.52678 13.5979 6 12.3261 6 11C6 9.67392 6.52678 8.40215 7.46447 7.46447C8.40215 6.52678 9.67392 6 11 6Z" fill="url(#paint0_linear_10_11796)"/>
<defs>
<linearGradient id="paint0_linear_10_11796" x1="3" y1="10" x2="19" y2="10" gradientUnits="userSpaceOnUse">
<stop stop-color="#FDFC47"/>
<stop offset="1" stop-color="#24FE41"/>
</linearGradient>
</defs>
</svg>
