<svg width="22" height="22" viewBox="0 0 22 22" fill="none" xmlns="http://www.w3.org/2000/svg">
<path d="M15.4062 3L11.4062 7L10.3125 8.09375L7 11.375V11.4062L6.3125 12.0938L3 15.375V17L5 19H6.625L10.5938 15L11.7188 13.875L15 10.5938L15.7188 9.875L19 6.59375V5L17 3H15.4062Z" fill="url(#paint0_linear_10_11810)"/>
<path d="M15.4062 3L11.4062 7L10.3125 8.09375L7 11.375V11.4062L6.3125 12.0938L3 15.375V17L5 19H6.625L10.5938 15L11.7188 13.875L15 10.5938L15.7188 9.875L19 6.59375V5L17 3H15.4062Z" fill="url(#paint1_linear_10_11810)"/>
<defs>
<linearGradient id="paint0_linear_10_11810" x1="3" y1="11" x2="19" y2="11" gradientUnits="userSpaceOnUse">
<stop stop-color="#FDFC47"/>
<stop offset="1" stop-color="#24FE41"/>
</linearGradient>
<linearGradient id="paint1_linear_10_11810" x1="8.68644" y1="9.22881" x2="12.661" y2="13.1441" gradientUnits="userSpaceOnUse">
<stop stop-color="white" stop-opacity="0.458824"/>
<stop offset="1" stop-color="white" stop-opacity="0.0529412"/>
</linearGradient>
</defs>
</svg>
