<svg width="22" height="22" viewBox="0 0 22 22" fill="none" xmlns="http://www.w3.org/2000/svg">
<path d="M4.5 3C4.30302 3 4.10796 3.0388 3.92597 3.11418C3.74399 3.18956 3.57863 3.30005 3.43934 3.43934C3.30005 3.57863 3.18956 3.74399 3.11418 3.92597C3.0388 4.10796 3 4.30302 3 4.5C3.00043 4.80983 3.0968 5.11193 3.27586 5.36478C3.45492 5.61763 3.70789 5.80883 4 5.91211V6V13V19H5V13H12V14H19V7H13V6H5V5.91211C5.29211 5.80883 5.54508 5.61763 5.72414 5.36478C5.9032 5.11193 5.99957 4.80983 6 4.5C6 4.30302 5.9612 4.10796 5.88582 3.92597C5.81044 3.74399 5.69995 3.57863 5.56066 3.43934C5.42137 3.30005 5.25601 3.18956 5.07403 3.11418C4.89204 3.0388 4.69698 3 4.5 3ZM5 7H12V12H5V7ZM13 8H18V13H13V8Z" fill="url(#paint0_linear_10_11808)"/>
<defs>
<linearGradient id="paint0_linear_10_11808" x1="3" y1="11" x2="19" y2="11" gradientUnits="userSpaceOnUse">
<stop stop-color="#FDFC47"/>
<stop offset="1" stop-color="#24FE41"/>
</linearGradient>
</defs>
</svg>
