<svg width="22" height="22" viewBox="0 0 22 22" fill="none" xmlns="http://www.w3.org/2000/svg">
<path d="M11 3C8.87827 3 6.84344 3.84285 5.34315 5.34315C3.84285 6.84344 3 8.87827 3 11C3 13.1217 3.84285 15.1566 5.34315 16.6569C6.84344 18.1571 8.87827 19 11 19C13.1217 19 15.1566 18.1571 16.6569 16.6569C18.1571 15.1566 19 13.1217 19 11C19 8.87827 18.1571 6.84344 16.6569 5.34315C15.1566 3.84285 13.1217 3 11 3ZM11 4C12.8565 4 14.637 4.7375 15.9497 6.05025C17.2625 7.36301 18 9.14348 18 11C18 12.8565 17.2625 14.637 15.9497 15.9497C14.637 17.2625 12.8565 18 11 18C9.14348 18 7.36301 17.2625 6.05025 15.9497C4.7375 14.637 4 12.8565 4 11C4 9.14348 4.7375 7.36301 6.05025 6.05025C7.36301 4.7375 9.14348 4 11 4Z" fill="url(#paint0_linear_10_11822)"/>
<defs>
<linearGradient id="paint0_linear_10_11822" x1="3" y1="11" x2="19" y2="11" gradientUnits="userSpaceOnUse">
<stop stop-color="#FDFC47"/>
<stop offset="1" stop-color="#24FE41"/>
</linearGradient>
</defs>
</svg>
