<svg width="22" height="22" viewBox="0 0 22 22" fill="none" xmlns="http://www.w3.org/2000/svg">
<path d="M11 3C9.892 3 9 3.892 9 5C9 5.09728 9.01172 5.19204 9.02539 5.28516C6.11574 6.13415 4 8.80889 4 12C4 15.878 7.122 19 11 19C14.878 19 18 15.878 18 12C18 10.4137 17.4727 8.95848 16.5898 7.78711C16.8329 7.60501 17 7.3284 17 7C17 6.446 16.554 6 16 6C15.6716 6 15.395 6.16712 15.2129 6.41016C14.5487 5.90961 13.7947 5.52444 12.9746 5.28516C12.9883 5.19204 13 5.09728 13 5C13 3.892 12.108 3 11 3ZM11 4C11.554 4 12 4.446 12 5C12 5.02703 11.9865 5.04969 11.9844 5.07617C11.6618 5.031 11.3354 5 11 5C10.6646 5 10.3382 5.031 10.0156 5.07617C10.0135 5.04969 10 5.02703 10 5C10 4.446 10.446 4 11 4ZM11 6C11.2596 6 11.5137 6.01932 11.7637 6.05273C11.7984 6.05712 11.8326 6.06338 11.8672 6.06836C12.1093 6.10503 12.3477 6.15384 12.5801 6.2168C15.131 6.90802 17 9.22442 17 12C17 15.324 14.324 18 11 18C7.676 18 5 15.324 5 12C5 9.22442 6.86898 6.90802 9.41992 6.2168C9.65226 6.15384 9.89072 6.10503 10.1328 6.06836C10.1674 6.06338 10.2016 6.05712 10.2363 6.05273C10.4863 6.01932 10.7404 6 11 6ZM11 7V11C11.554 11 12 11.446 12 12H16C16 9.23 13.77 7 11 7Z" fill="url(#paint0_linear_10_11826)"/>
<defs>
<linearGradient id="paint0_linear_10_11826" x1="4" y1="11" x2="18" y2="11" gradientUnits="userSpaceOnUse">
<stop stop-color="#FDFC47"/>
<stop offset="1" stop-color="#24FE41"/>
</linearGradient>
</defs>
</svg>
