<svg width="22" height="22" viewBox="0 0 22 22" fill="none" xmlns="http://www.w3.org/2000/svg">
<path d="M5 3C3.892 3 3 3.892 3 5C3 6.108 3.892 7 5 7V10H3V11V17V18H5V19H19V16H5V17H4V11H5V13V13.6523V14H19V13.6523V13V5H7C7 3.892 6.108 3 5 3ZM5 4C5.554 4 6 4.446 6 5C6 5.554 5.554 6 5 6C4.446 6 4 5.554 4 5C4 4.446 4.446 4 5 4ZM6 6H18V13H6V6Z" fill="url(#paint0_linear_10_11838)"/>
<defs>
<linearGradient id="paint0_linear_10_11838" x1="3" y1="11" x2="19" y2="11" gradientUnits="userSpaceOnUse">
<stop stop-color="#FDFC47"/>
<stop offset="1" stop-color="#24FE41"/>
</linearGradient>
</defs>
</svg>
