<svg width="22" height="22" viewBox="0 0 22 22" fill="none" xmlns="http://www.w3.org/2000/svg">
<path d="M7 3C6.02709 6.40503 3.64555 9.33228 2.5957 11.6758C2.2283 12.3726 2 13.1546 2 14C2 16.77 4.23 19 7 19C9.77 19 12 16.77 12 14C12 13.1546 11.7717 12.3726 11.4043 11.6758C10.3544 9.33228 7.9729 6.40503 7 3ZM9.2832 10.7168C10.3209 11.438 11 12.6351 11 14C11 16.216 9.216 18 7 18C5.63504 18 4.438 17.321 3.7168 16.2832C4.36385 16.7329 5.14892 17 6 17C8.216 17 10 15.216 10 13C10 12.1489 9.73291 11.3638 9.2832 10.7168Z" fill="url(#paint0_linear_10_11873)"/>
<path d="M14 2C13.1857 4.85 11.394 7.36008 10.2129 9.47852C10.4199 9.82618 10.618 10.1732 10.8008 10.502C11.6085 8.88637 12.9325 6.7779 14 4.39258C15.1941 7.06063 16.7467 9.4199 17.4922 11.084L17.5039 11.1133L17.5195 11.1426C17.8227 11.7175 18 12.3346 18 13C18 15.2333 16.2333 17 14 17C13.0485 17 12.1933 16.6658 11.5117 16.125C11.3687 16.4293 11.1969 16.7138 10.998 16.9805C11.8351 17.6119 12.8661 18 14 18C16.77 18 19 15.77 19 13C19 12.1546 18.7717 11.3726 18.4043 10.6758C17.3544 8.33228 14.9729 5.40503 14 2Z" fill="url(#paint1_linear_10_11873)"/>
<defs>
<linearGradient id="paint0_linear_10_11873" x1="2" y1="11" x2="12" y2="11" gradientUnits="userSpaceOnUse">
<stop stop-color="#FDFC47"/>
<stop offset="1" stop-color="#24FE41"/>
</linearGradient>
<linearGradient id="paint1_linear_10_11873" x1="10.2129" y1="10" x2="19" y2="10" gradientUnits="userSpaceOnUse">
<stop stop-color="#FDFC47"/>
<stop offset="1" stop-color="#24FE41"/>
</linearGradient>
</defs>
</svg>
