<svg width="22" height="22" viewBox="0 0 22 22" fill="none" xmlns="http://www.w3.org/2000/svg">
<path d="M11 3C10.0271 6.40503 7.64555 9.33228 6.5957 11.6758C6.2283 12.3726 6 13.1546 6 14C6 16.77 8.23 19 11 19C13.77 19 16 16.77 16 14C16 13.1546 15.7717 12.3726 15.4043 11.6758C14.3544 9.33228 11.9729 6.40503 11 3ZM13.2832 10.7168C14.3209 11.438 15 12.6351 15 14C15 16.216 13.216 18 11 18C9.63504 18 8.438 17.321 7.7168 16.2832C8.36384 16.7329 9.14892 17 10 17C12.216 17 14 15.216 14 13C14 12.1489 13.7329 11.3638 13.2832 10.7168Z" fill="url(#paint0_linear_10_11950)"/>
<defs>
<linearGradient id="paint0_linear_10_11950" x1="6" y1="11" x2="16" y2="11" gradientUnits="userSpaceOnUse">
<stop stop-color="#FDFC47"/>
<stop offset="1" stop-color="#24FE41"/>
</linearGradient>
</defs>
</svg>
