<svg width="22" height="22" viewBox="0 0 22 22" fill="none" xmlns="http://www.w3.org/2000/svg">
<path d="M10.5 4V5.8125H11.5V4H10.5ZM5.6875 5.96875L4.96875 6.6875L6.25 8L6.96875 7.25L5.6875 5.96875ZM16.3125 5.96875L15.0312 7.25L15.75 8L17.0312 6.6875L16.3125 5.96875ZM11 7C8.23858 7 6 9.2386 6 12C6 14.7614 8.23858 17 11 17C13.7614 17 16 14.7614 16 12C16 9.2386 13.7614 7 11 7ZM11 8V16C8.79086 16 7 14.2091 7 12C7 9.7909 8.79086 8 11 8ZM3 11.5V12.5H4.8125V11.5H3ZM17.1875 11.5V12.5H19V11.5H17.1875ZM6.25 16.0312L4.96875 17.3125L5.6875 18.0312L6.96875 16.75L6.25 16.0312ZM15.75 16.0312L15.0312 16.75L16.3125 18.0312L17.0312 17.3125L15.75 16.0312ZM10.5 18.1875V20H11.5V18.1875H10.5Z" fill="url(#paint0_linear_10_11980)"/>
<defs>
<linearGradient id="paint0_linear_10_11980" x1="3" y1="12" x2="19" y2="12" gradientUnits="userSpaceOnUse">
<stop stop-color="#FDFC47"/>
<stop offset="1" stop-color="#24FE41"/>
</linearGradient>
</defs>
</svg>
