<svg width="22" height="22" viewBox="0 0 22 22" fill="none" xmlns="http://www.w3.org/2000/svg">
<path d="M10.5 2V4.02539C8.82174 4.14537 7.24284 4.86582 6.05239 6.05484C4.86194 7.24386 4.13958 8.82189 4.01758 10.5H2V11.5H4.02539C4.14537 13.1783 4.86582 14.7572 6.05484 15.9476C7.24386 17.1381 8.82189 17.8604 10.5 17.9824V20H11.5V17.9746C13.1783 17.8546 14.7572 17.1342 15.9476 15.9452C17.1381 14.7561 17.8604 13.1781 17.9824 11.5H20V10.5H17.9746C17.8546 8.82174 17.1342 7.24284 15.9452 6.05239C14.7561 4.86194 13.1781 4.13958 11.5 4.01758V2H10.5ZM10.5 5.02539V7.03516C9.62039 7.14718 8.80294 7.5483 8.17612 8.17548C7.5493 8.80265 7.14864 9.62033 7.03711 10.5H5.02539C5.14447 9.08792 5.7595 7.76356 6.76153 6.76153C7.76356 5.7595 9.08792 5.14447 10.5 5.02539ZM11.5 5.02539C12.9121 5.14447 14.2364 5.7595 15.2385 6.76153C16.2405 7.76356 16.8555 9.08792 16.9746 10.5H14.9648C14.8528 9.62039 14.4517 8.80294 13.8245 8.17612C13.1973 7.5493 12.3797 7.14864 11.5 7.03711V5.02539ZM10.5 8.04102V10.5H8.04688C8.15022 9.88631 8.44185 9.31995 8.88137 8.87938C9.3209 8.4388 9.88656 8.14582 10.5 8.04102ZM11.5 8.04688C12.1137 8.15022 12.68 8.44185 13.1206 8.88138C13.5612 9.3209 13.8542 9.88656 13.959 10.5H11.5V8.04688ZM5.02539 11.5H7.03516C7.14718 12.3796 7.5483 13.1971 8.17548 13.8239C8.80265 14.4507 9.62033 14.8514 10.5 14.9629V16.9746C9.08792 16.8555 7.76356 16.2405 6.76153 15.2385C5.7595 14.2364 5.14447 12.9121 5.02539 11.5ZM8.04102 11.5H10.5V13.9531C9.88631 13.8498 9.31995 13.5582 8.87938 13.1186C8.4388 12.6791 8.14582 12.1134 8.04102 11.5ZM11.5 11.5H13.9531C13.8498 12.1137 13.5582 12.68 13.1186 13.1206C12.6791 13.5612 12.1134 13.8542 11.5 13.959V11.5ZM14.9629 11.5H16.9746C16.8555 12.9121 16.2405 14.2364 15.2385 15.2385C14.2364 16.2405 12.9121 16.8555 11.5 16.9746V14.9648C12.3796 14.8528 13.1971 14.4517 13.8239 13.8245C14.4507 13.1973 14.8514 12.3797 14.9629 11.5Z" fill="url(#paint0_linear_10_11986)"/>
<defs>
<linearGradient id="paint0_linear_10_11986" x1="2" y1="11" x2="20" y2="11" gradientUnits="userSpaceOnUse">
<stop stop-color="#FDFC47"/>
<stop offset="1" stop-color="#24FE41"/>
</linearGradient>
</defs>
</svg>
