<svg width="22" height="22" viewBox="0 0 22 22" fill="none" xmlns="http://www.w3.org/2000/svg">
<path d="M3 3V7V19H4H19V18V7V5V3H14V4V7H18V18H4V7H8V4V3H3ZM9.42773 9C8.36164 9 7.91406 9.35225 7.91406 10.2539V11.4766C7.91406 12.0335 7.89356 12.6777 7.30469 12.6777H7V13.3223H7.30469C7.89358 13.3223 7.91406 13.9665 7.91406 14.5234V15.7461C7.91406 16.6478 8.36164 17 9.42773 17V16.4082C8.71701 16.4082 8.70703 16.169 8.70703 15.3027V14.2949C8.70703 13.8795 8.58341 13.2603 7.98438 13.0039C8.58341 12.7476 8.70703 12.1303 8.70703 11.7148V10.6973C8.70703 9.83096 8.70803 9.5918 9.42773 9.5918V9ZM12.5645 9V9.5918C13.2752 9.5918 13.293 9.83096 13.293 10.6973V11.7148C13.293 12.1303 13.4166 12.7476 14.0156 13.0039C13.4166 13.2603 13.293 13.8795 13.293 14.2949V15.3027C13.293 16.169 13.2753 16.4082 12.5645 16.4082V17C13.6306 17 14.0859 16.6478 14.0859 15.7461V14.5234C14.0859 13.9665 14.1263 13.3223 14.7051 13.3223H15V12.6777H14.7051C14.1263 12.6777 14.0859 12.0335 14.0859 11.4766V10.2539C14.0859 9.35225 13.6306 9 12.5645 9Z" fill="url(#paint0_linear_10_12010)"/>
<path fill-rule="evenodd" clip-rule="evenodd" d="M9 3L11 6L13 3H9Z" fill="url(#paint1_linear_10_12010)"/>
<defs>
<linearGradient id="paint0_linear_10_12010" x1="3" y1="11" x2="19" y2="11" gradientUnits="userSpaceOnUse">
<stop stop-color="#FDFC47"/>
<stop offset="1" stop-color="#24FE41"/>
</linearGradient>
<linearGradient id="paint1_linear_10_12010" x1="9" y1="4.5" x2="13" y2="4.5" gradientUnits="userSpaceOnUse">
<stop stop-color="#FF8008"/>
<stop offset="1" stop-color="#FFC837"/>
</linearGradient>
</defs>
</svg>
