<svg width="22" height="22" viewBox="0 0 22 22" fill="none" xmlns="http://www.w3.org/2000/svg">
<path d="M15.7812 5.5625L11.9375 9.75L12.6875 10.4375L16.5312 6.25C16.3896 6.11461 16.0579 5.82719 15.7812 5.5625ZM6.21875 5.625L5.46875 6.3125L9.27734 10.4141L10.0312 9.71875L6.21875 5.625ZM10.5 13.4375V15.5625H11.5V13.4375C11.1029 13.4419 10.7952 13.4382 10.5 13.4375Z" fill="url(#paint0_linear_10_12065)"/>
<path d="M4.5 3C4.30302 3 4.10796 3.0388 3.92598 3.11418C3.74399 3.18956 3.57863 3.30005 3.43934 3.43934C3.30005 3.57863 3.18956 3.74399 3.11418 3.92597C3.0388 4.10796 3 4.30302 3 4.5C3 4.69698 3.0388 4.89204 3.11418 5.07403C3.18956 5.25601 3.30005 5.42137 3.43934 5.56066C3.57863 5.69995 3.74399 5.81044 3.92598 5.88582C4.10796 5.9612 4.30302 6 4.5 6C4.69698 6 4.89204 5.9612 5.07402 5.88582C5.25601 5.81044 5.42137 5.69995 5.56066 5.56066C5.69995 5.42137 5.81044 5.25601 5.88582 5.07403C5.9612 4.89204 6 4.69698 6 4.5C6 4.30302 5.9612 4.10796 5.88582 3.92597C5.81044 3.74399 5.69995 3.57863 5.56066 3.43934C5.42137 3.30005 5.25601 3.18956 5.07402 3.11418C4.89204 3.0388 4.69698 3 4.5 3ZM17.5 3C17.303 3 17.108 3.0388 16.926 3.11418C16.744 3.18956 16.5786 3.30005 16.4393 3.43934C16.3001 3.57863 16.1896 3.74399 16.1142 3.92597C16.0388 4.10796 16 4.30302 16 4.5C16 4.69698 16.0388 4.89204 16.1142 5.07403C16.1896 5.25601 16.3001 5.42137 16.4393 5.56066C16.5786 5.69995 16.744 5.81044 16.926 5.88582C17.108 5.9612 17.303 6 17.5 6C17.697 6 17.892 5.9612 18.074 5.88582C18.256 5.81044 18.4214 5.69995 18.5607 5.56066C18.6999 5.42137 18.8104 5.25601 18.8858 5.07403C18.9612 4.89204 19 4.69698 19 4.5C19 4.30302 18.9612 4.10796 18.8858 3.92597C18.8104 3.74399 18.6999 3.57863 18.5607 3.43934C18.4214 3.30005 18.256 3.18956 18.074 3.11418C17.892 3.0388 17.697 3 17.5 3ZM11 10C10.803 10 10.608 10.0388 10.426 10.1142C10.244 10.1896 10.0786 10.3001 9.93934 10.4393C9.80005 10.5786 9.68956 10.744 9.61418 10.926C9.5388 11.108 9.5 11.303 9.5 11.5C9.5 11.697 9.5388 11.892 9.61418 12.074C9.68956 12.256 9.80005 12.4214 9.93934 12.5607C10.0786 12.6999 10.244 12.8104 10.426 12.8858C10.608 12.9612 10.803 13 11 13C11.197 13 11.392 12.9612 11.574 12.8858C11.756 12.8104 11.9214 12.6999 12.0607 12.5607C12.1999 12.4214 12.3104 12.256 12.3858 12.074C12.4612 11.892 12.5 11.697 12.5 11.5C12.5 11.303 12.4612 11.108 12.3858 10.926C12.3104 10.744 12.1999 10.5786 12.0607 10.4393C11.9214 10.3001 11.756 10.1896 11.574 10.1142C11.392 10.0388 11.197 10 11 10ZM11 16C10.803 16 10.608 16.0388 10.426 16.1142C10.244 16.1896 10.0786 16.3001 9.93934 16.4393C9.80005 16.5786 9.68956 16.744 9.61418 16.926C9.5388 17.108 9.5 17.303 9.5 17.5C9.5 17.697 9.5388 17.892 9.61418 18.074C9.68956 18.256 9.80005 18.4214 9.93934 18.5607C10.0786 18.6999 10.244 18.8104 10.426 18.8858C10.608 18.9612 10.803 19 11 19C11.197 19 11.392 18.9612 11.574 18.8858C11.756 18.8104 11.9214 18.6999 12.0607 18.5607C12.1999 18.4214 12.3104 18.256 12.3858 18.074C12.4612 17.892 12.5 17.697 12.5 17.5C12.5 17.303 12.4612 17.108 12.3858 16.926C12.3104 16.744 12.1999 16.5786 12.0607 16.4393C11.9214 16.3001 11.756 16.1896 11.574 16.1142C11.392 16.0388 11.197 16 11 16Z" fill="url(#paint1_linear_10_12065)"/>
<defs>
<linearGradient id="paint0_linear_10_12065" x1="5.46875" y1="10.5625" x2="16.5312" y2="10.5625" gradientUnits="userSpaceOnUse">
<stop stop-color="#FDFC47"/>
<stop offset="1" stop-color="#24FE41"/>
</linearGradient>
<linearGradient id="paint1_linear_10_12065" x1="3" y1="11" x2="19" y2="11" gradientUnits="userSpaceOnUse">
<stop stop-color="#FDFC47"/>
<stop offset="1" stop-color="#24FE41"/>
</linearGradient>
</defs>
</svg>
