<svg width="22" height="22" viewBox="0 0 22 22" fill="none" xmlns="http://www.w3.org/2000/svg">
<path d="M6 3L3 5L6 7V3ZM10 3V7L13 5L10 3ZM6.11523 8.0293C4.9425 8.05478 4.04127 8.24489 3.38672 8.52539L3.75586 9.78906C4.0695 9.687 5.25571 9.33008 5.95117 9.33008H6.04688C7.01507 9.3683 7.08203 9.6988 7.08203 10.4766V10.7832L6.57812 10.8594C4.23264 11.1781 2.97852 11.4459 2.97852 13.1289C2.97852 14.3019 3.89209 15.0293 5.21484 15.0293C6.12849 15.0293 6.72816 14.672 7.3418 14.1875L7.5332 14.9004H8.97852V10.1836C8.97852 8.74281 7.91373 8.0293 6.27734 8.0293H6.11523ZM12.2422 9.57031C12.2422 11.4688 13.5833 13.0411 14.5918 14.0059C13.393 15.2237 11.9148 15.7723 9.21094 16.2363L9.48828 17.5703C15.5157 16.5359 18.2109 12.7458 18.2109 9.57031H16.7344C16.7344 10.4938 16.2679 12.2763 15.4688 12.9629C14.653 12.1898 13.6688 10.9947 13.4316 9.5918L12.2422 9.57031ZM7.08203 11.7773V13.3457C6.57749 13.6645 6.19557 13.8945 5.54102 13.8945C4.95465 13.8945 4.66797 13.549 4.66797 13.0645C4.66797 12.1464 5.52811 11.9938 6.57812 11.8535L7.08203 11.7773Z" fill="url(#paint0_linear_10_12071)"/>
<defs>
<linearGradient id="paint0_linear_10_12071" x1="2.97852" y1="10.2852" x2="18.2109" y2="10.2852" gradientUnits="userSpaceOnUse">
<stop stop-color="#FDFC47"/>
<stop offset="1" stop-color="#24FE41"/>
</linearGradient>
</defs>
</svg>
