<svg width="22" height="22" viewBox="0 0 22 22" fill="none" xmlns="http://www.w3.org/2000/svg">
<path d="M13.0312 3C13.0312 4.8985 14.3723 6.47065 15.3809 7.43555C14.1821 8.65325 12.7039 9.20192 10 9.66602L10.2773 11C16.3047 9.9656 19 6.1755 19 3H17.5234C17.5234 3.9235 17.057 5.70598 16.2578 6.39258C15.442 5.61948 14.4579 4.42438 14.2207 3.02148L13.0312 3ZM5 7L3 10H7L5 7ZM16.1309 11.9707C14.9581 11.9962 14.0569 12.1863 13.4023 12.4668L13.7715 13.7305C14.0851 13.6284 15.2713 13.2715 15.9668 13.2715H16.0625C17.0307 13.3097 17.0996 13.6402 17.0996 14.418V14.7246L16.5938 14.8008C14.2483 15.1195 12.9941 15.3873 12.9941 17.0703C12.9941 18.2433 13.9077 18.9707 15.2305 18.9707C16.1441 18.9707 16.7438 18.6134 17.3574 18.1289L17.5488 18.8438H18.9941V14.125C18.9941 12.6842 17.9313 11.9707 16.2949 11.9707H16.1309ZM17.0996 15.7188V17.2871C16.5951 17.6059 16.2131 17.8359 15.5586 17.8359C14.9722 17.8359 14.6855 17.4904 14.6855 17.0059C14.6855 16.0878 15.5437 15.9352 16.5938 15.7949L17.0996 15.7188ZM3 16L5 19L7 16H3Z" fill="url(#paint0_linear_10_12096)"/>
<defs>
<linearGradient id="paint0_linear_10_12096" x1="3" y1="11" x2="19" y2="11" gradientUnits="userSpaceOnUse">
<stop stop-color="#FDFC47"/>
<stop offset="1" stop-color="#24FE41"/>
</linearGradient>
</defs>
</svg>
