<svg width="22" height="22" viewBox="0 0 22 22" fill="none" xmlns="http://www.w3.org/2000/svg">
<path d="M4 4C2.892 4 2 4.892 2 6V18C2 19.108 2.892 20 4 20H16C17.108 20 18 19.108 18 18V8L14 4H4ZM4 5H6V8C6 9.108 6.892 10 8 10H12C13.108 10 14 9.108 14 8V5.4141L17 8.4141V18C17 18.554 16.554 19 16 19V17C16 15.892 15.108 15 14 15H6C4.892 15 4 15.892 4 17V19C3.446 19 3 18.554 3 18V6C3 5.446 3.446 5 4 5ZM7 5H10V9H8C7.446 9 7 8.554 7 8V5ZM6 16H14C14.554 16 15.0131 16.4462 15 17V19H5V17C5 16.446 5.446 16 6 16Z" fill="url(#paint0_linear_10_12196)"/>
<path d="M6 2C4.892 2 4 2.892 4 4H5C5 3.446 5.446 3 6 3H8V4H9V3H12V4H14L16 6V3.4141L19 6.4141V16C19 16.554 18.554 17 18 17V18C19.108 18 20 17.108 20 16V6L16 2H6Z" fill="url(#paint1_linear_10_12196)"/>
<defs>
<linearGradient id="paint0_linear_10_12196" x1="2" y1="12" x2="18" y2="12" gradientUnits="userSpaceOnUse">
<stop stop-color="#FDFC47"/>
<stop offset="1" stop-color="#24FE41"/>
</linearGradient>
<linearGradient id="paint1_linear_10_12196" x1="4" y1="10" x2="20" y2="10" gradientUnits="userSpaceOnUse">
<stop stop-color="#FDFC47"/>
<stop offset="1" stop-color="#24FE41"/>
</linearGradient>
</defs>
</svg>
