<svg width="22" height="22" viewBox="0 0 22 22" fill="none" xmlns="http://www.w3.org/2000/svg">
<path d="M15.5 13C13.567 13 12 14.567 12 16.5C12 18.433 13.567 20 15.5 20C17.433 20 19 18.433 19 16.5C19 14.567 17.433 13 15.5 13ZM15 14H16V16H18V17H16V19H15V17H13V16H15V14Z" fill="url(#paint0_linear_10_12148)"/>
<path d="M7 3C5.338 3 4 4.338 4 6V16C4 17.662 5.338 19 7 19H11V18H7C5.892 18 5 17.108 5 16V6C5 4.892 5.892 4 7 4H12V9H17V12H18V8L13 3H12H7ZM13 4.4141L16.5859 8H13V4.4141Z" fill="url(#paint1_linear_10_12148)"/>
<defs>
<linearGradient id="paint0_linear_10_12148" x1="12" y1="16.5" x2="19" y2="16.5" gradientUnits="userSpaceOnUse">
<stop stop-color="#FDFC47"/>
<stop offset="1" stop-color="#24FE41"/>
</linearGradient>
<linearGradient id="paint1_linear_10_12148" x1="4" y1="11" x2="18" y2="11" gradientUnits="userSpaceOnUse">
<stop stop-color="#FDFC47"/>
<stop offset="1" stop-color="#24FE41"/>
</linearGradient>
</defs>
</svg>
