<svg width="22" height="22" viewBox="0 0 22 22" fill="none" xmlns="http://www.w3.org/2000/svg">
<path d="M15.5 13C14.6716 13 14 13.6716 14 14.5V16H13V19H18V16H17V14.5C17 13.6716 16.3284 13 15.5 13ZM15.5 14C15.7761 14 16 14.2239 16 14.5V16H15V14.5C15 14.2239 15.2239 14 15.5 14Z" fill="url(#paint0_linear_10_12128)"/>
<path d="M7 3C5.338 3 4 4.338 4 6V16C4 17.662 5.338 19 7 19H12V18H7C5.892 18 5 17.108 5 16V6C5 4.892 5.892 4 7 4H12V9H17V12H18V9V8L13 3H12H7ZM13 4.4141L16.5859 8H13V4.4141Z" fill="url(#paint1_linear_10_12128)"/>
<defs>
<linearGradient id="paint0_linear_10_12128" x1="13" y1="16" x2="18" y2="16" gradientUnits="userSpaceOnUse">
<stop stop-color="#FDFC47"/>
<stop offset="1" stop-color="#24FE41"/>
</linearGradient>
<linearGradient id="paint1_linear_10_12128" x1="4" y1="11" x2="18" y2="11" gradientUnits="userSpaceOnUse">
<stop stop-color="#FDFC47"/>
<stop offset="1" stop-color="#24FE41"/>
</linearGradient>
</defs>
</svg>
