<svg width="22" height="22" viewBox="0 0 22 22" fill="none" xmlns="http://www.w3.org/2000/svg">
<path d="M17 13.016L13 17.016V19.016H15L19 15.016L17 13.016ZM16.6894 14.7055L17.2812 15.2973L14.3125 18.2973L13.7187 17.7035L16.6894 14.7055Z" fill="url(#paint0_linear_10_12131)"/>
<path d="M7 3C5.338 3 4 4.338 4 6V16C4 17.662 5.338 19 7 19H12V18H7C5.892 18 5 17.108 5 16V6C5 4.892 5.892 4 7 4H12V9H17V12H18V8L13 3H12H7ZM13 4.4141L16.5859 8H13V4.4141Z" fill="url(#paint1_linear_10_12131)"/>
<defs>
<linearGradient id="paint0_linear_10_12131" x1="13" y1="16.016" x2="19" y2="16.016" gradientUnits="userSpaceOnUse">
<stop stop-color="#FDFC47"/>
<stop offset="1" stop-color="#24FE41"/>
</linearGradient>
<linearGradient id="paint1_linear_10_12131" x1="4" y1="11" x2="18" y2="11" gradientUnits="userSpaceOnUse">
<stop stop-color="#FDFC47"/>
<stop offset="1" stop-color="#24FE41"/>
</linearGradient>
</defs>
</svg>
