<svg width="22" height="22" viewBox="0 0 22 22" fill="none" xmlns="http://www.w3.org/2000/svg">
<path d="M4 3C2.892 3 2 3.892 2 5V16C2 17.108 2.892 18 4 18H10.5V19H2.5C2.223 19 2 19.223 2 19.5C2 19.777 2.223 20 2.5 20H19.5C19.777 20 20 19.777 20 19.5C20 19.223 19.777 19 19.5 19H11.5V18H18C19.108 18 20 17.108 20 16V6C20 4.892 19.108 4 18 4H8.3711C7.79125 3.9771 7.7664 4.07688 7.332 3.64258C6.89819 3.20877 6.719 3.00045 6 3H4ZM4 4H6C6.31116 4 6.52033 4.00014 6.99805 4.4707C7.47682 4.94231 7.63685 5 7.99805 5H18C18.554 5 19 5.446 19 6V7H3.00005V5C3.00005 4.446 3.446 4 4 4ZM3 8H19V16C19 16.554 18.554 17 18 17H4C3.446 17 3 16.554 3 16V8Z" fill="url(#paint0_linear_10_12154)"/>
<defs>
<linearGradient id="paint0_linear_10_12154" x1="2" y1="11.5" x2="20" y2="11.5" gradientUnits="userSpaceOnUse">
<stop stop-color="#FDFC47"/>
<stop offset="1" stop-color="#24FE41"/>
</linearGradient>
</defs>
</svg>
