<svg width="22" height="22" viewBox="0 0 22 22" fill="none" xmlns="http://www.w3.org/2000/svg">
<path d="M5 3C3.892 3 3 3.892 3 5V17C3 18.108 3.892 19 5 19H17C18.108 19 19 18.108 19 17V7L15 3H5ZM5 4H7V7C7 8.108 7.892 9 9 9H13C14.108 9 15 8.108 15 7V4.4141L18 7.4141V17C18 17.554 17.554 18 17 18V16C17 14.892 16.108 14 15 14H7C5.892 14 5 14.892 5 16V18C4.446 18 4 17.554 4 17V5C4 4.446 4.446 4 5 4ZM8 4H11V8H9C8.446 8 8 7.554 8 7V4ZM7 15H15C15.554 15 16.0131 15.4462 16 16V18H6V16C6 15.446 6.446 15 7 15Z" fill="url(#paint0_linear_10_12205)"/>
<defs>
<linearGradient id="paint0_linear_10_12205" x1="3" y1="11" x2="19" y2="11" gradientUnits="userSpaceOnUse">
<stop stop-color="#FDFC47"/>
<stop offset="1" stop-color="#24FE41"/>
</linearGradient>
</defs>
</svg>
