<svg width="22" height="22" viewBox="0 0 22 22" fill="none" xmlns="http://www.w3.org/2000/svg">
<path d="M16.5 13C14.567 13 13 14.567 13 16.5C13 18.433 14.567 20 16.5 20C18.433 20 20 18.433 20 16.5C20 14.567 18.433 13 16.5 13ZM15.5 14C15.777 14 16 14.223 16 14.5V17H18.5C18.777 17 19 17.223 19 17.5C19 17.777 18.777 18 18.5 18H15.5C15.223 18 15 17.777 15 17.5V14.5C15 14.223 15.223 14 15.5 14Z" fill="url(#paint0_linear_10_12151)"/>
<path d="M9 2C7.6909 2 6.5932 2.83531 6.1816 4H5C3.338 4 2 5.338 2 7V17C2 18.662 3.338 20 5 20H12V19H5C3.892 19 3 18.108 3 17V7C3 5.892 3.892 5 5 5H6H7H10V10H15V12H16V10V9L15 8H19V12H20V8V7L15 2H14H9ZM9 3H14V7L11 4H10H7.2754C7.62096 3.4042 8.25894 3 9 3ZM15 3.41406L18.5859 6.99996H15V3.41406ZM11 5.41406L14.5859 8.99996H11V5.41406Z" fill="url(#paint1_linear_10_12151)"/>
<defs>
<linearGradient id="paint0_linear_10_12151" x1="13" y1="16.5" x2="20" y2="16.5" gradientUnits="userSpaceOnUse">
<stop stop-color="#FDFC47"/>
<stop offset="1" stop-color="#24FE41"/>
</linearGradient>
<linearGradient id="paint1_linear_10_12151" x1="2" y1="11" x2="20" y2="11" gradientUnits="userSpaceOnUse">
<stop stop-color="#FDFC47"/>
<stop offset="1" stop-color="#24FE41"/>
</linearGradient>
</defs>
</svg>
