<svg width="22" height="22" viewBox="0 0 22 22" fill="none" xmlns="http://www.w3.org/2000/svg">
<path d="M8.96875 3C7.21782 3 5.56187 3.4216 4 4.26367L4.77734 6.05078C5.55826 5.66726 6.26005 5.3933 6.88477 5.22656C7.51774 5.05983 8.16269 4.97656 8.82031 4.97656C9.80675 4.97656 10.5637 5.19681 11.0898 5.63867C11.6159 6.08054 11.8789 6.71367 11.8789 7.53906C11.8789 7.98093 11.8221 8.36969 11.707 8.70319C11.592 9.03667 11.3947 9.3697 11.1152 9.70319C10.8358 10.0367 10.2476 10.5865 9.35156 11.3536C8.25148 12.3569 7.10046 14.139 7 16H9L8.99399 15.9688C8.99399 15.2101 9.12546 14.6012 9.38852 14.1426C9.6598 13.6757 10.2017 13.0876 11.0155 12.379C12.0101 11.5369 12.673 10.9038 13.0018 10.4786C13.3388 10.0534 13.5894 9.6042 13.7538 9.12897C13.9183 8.65374 13.9998 8.10726 13.9998 7.4903C13.9998 6.07296 13.5521 4.97125 12.6561 4.18756C11.7601 3.39552 10.5306 3 8.96875 3ZM7 17V19H9V17H7Z" fill="url(#paint0_linear_10_12215)"/>
<path d="M12.9902 13L12 13.9902L14.0098 16L12 18.0098L12.9902 19L15 16.9902L17.0098 19L18 18.0098L15.9902 16L18 13.9902L17.0098 13L15 15.0098L12.9902 13Z" fill="url(#paint1_linear_10_12215)"/>
<defs>
<linearGradient id="paint0_linear_10_12215" x1="4" y1="11" x2="13.9998" y2="11" gradientUnits="userSpaceOnUse">
<stop stop-color="#FDFC47"/>
<stop offset="1" stop-color="#24FE41"/>
</linearGradient>
<linearGradient id="paint1_linear_10_12215" x1="12" y1="13" x2="15.2165" y2="20.2371" gradientUnits="userSpaceOnUse">
<stop stop-color="#FF0500"/>
<stop offset="1" stop-color="#FD3632"/>
</linearGradient>
</defs>
</svg>
