<svg width="22" height="22" viewBox="0 0 22 22" fill="none" xmlns="http://www.w3.org/2000/svg">
<path d="M5 5V7H7V5H5ZM10 5V7H12V5H10ZM15 5V7H17V5H15ZM5 10V12H7V10H5ZM10 10V12H12V10H10ZM15 10V12H17V10H15ZM5 15V17H7V15H5ZM10 15V17H12V15H10ZM15 15V17H17V15H15Z" fill="url(#paint0_linear_10_12221)"/>
<defs>
<linearGradient id="paint0_linear_10_12221" x1="5" y1="11" x2="17" y2="11" gradientUnits="userSpaceOnUse">
<stop stop-color="#FDFC47"/>
<stop offset="1" stop-color="#24FE41"/>
</linearGradient>
</defs>
</svg>
