<svg width="22" height="22" viewBox="0 0 22 22" fill="none" xmlns="http://www.w3.org/2000/svg">
<path d="M11 5C8.87827 5 6.84344 5.63214 5.34315 6.75736C3.84285 7.88258 3 9.4087 3 11C3 12.5913 3.84285 14.1174 5.34315 15.2426C6.84344 16.3679 8.87827 17 11 17C13.1217 17 15.1566 16.3679 16.6569 15.2426C18.1571 14.1174 19 12.5913 19 11C19 9.4087 18.1571 7.88258 16.6569 6.75736C15.1566 5.63214 13.1217 5 11 5ZM11 6C12.8565 6 14.637 6.52678 15.9497 7.46447C17.2625 8.40215 18 9.67392 18 11C18 12.3261 17.2625 13.5979 15.9497 14.5355C14.637 15.4732 12.8565 16 11 16C9.14348 16 7.36301 15.4732 6.05025 14.5355C4.7375 13.5979 4 12.3261 4 11C4 9.67392 4.7375 8.40215 6.05025 7.46447C7.36301 6.52678 9.14348 6 11 6Z" fill="url(#paint0_linear_10_12245)"/>
<defs>
<linearGradient id="paint0_linear_10_12245" x1="3" y1="11" x2="19" y2="11" gradientUnits="userSpaceOnUse">
<stop stop-color="#FDFC47"/>
<stop offset="1" stop-color="#24FE41"/>
</linearGradient>
</defs>
</svg>
