<svg width="22" height="22" viewBox="0 0 22 22" fill="none" xmlns="http://www.w3.org/2000/svg">
<path d="M9 4L2 11.1562L5.875 18H9L8.6875 20L13 17.5938L17.3125 20L16.5 14.9375L20 11.3438L15.1562 10.5938L13 6L12.3438 7.40625L9 4ZM9 5.25L11.9375 8.25L10.8438 10.5938L6 11.3438L9.5 14.9375L9.15625 17.125H6.375L3.0625 11.3125L9 5.25ZM13 7.75L14.625 11.2188L18.25 11.75L15.625 14.4375L16.25 18.25L13 16.4688L9.75 18.25L10.375 14.4375L7.75 11.75L11.375 11.2188L13 7.75Z" fill="url(#paint0_linear_10_12265)"/>
<defs>
<linearGradient id="paint0_linear_10_12265" x1="2" y1="12" x2="20" y2="12" gradientUnits="userSpaceOnUse">
<stop stop-color="#FDFC47"/>
<stop offset="1" stop-color="#24FE41"/>
</linearGradient>
</defs>
</svg>
