<svg width="22" height="22" viewBox="0 0 22 22" fill="none" xmlns="http://www.w3.org/2000/svg">
<path d="M11.0371 3.00203C6.93871 3.09725 3.53223 6.58349 3.63281 10.7247C3.65208 11.5181 3.80609 12.2823 4.06445 13.0001L5.1875 12.6329C4.96598 12.0313 4.83134 11.3906 4.81055 10.7247C4.70116 7.22163 7.57557 4.266 11.0371 4.16414C14.6868 4.05675 17.7618 7.08185 17.8613 10.7247C17.9659 14.5528 14.8231 17.7768 11.0371 17.8751C7.8644 17.9575 5.09649 15.8672 4.06445 13.0001L3 13.3477C4.17146 16.7366 7.45918 19.0733 11.0371 18.9981C15.4375 18.9056 19.0952 15.1687 18.998 10.7247C18.9047 6.45362 15.3103 2.90277 11.0371 3.00203ZM5.1875 12.6329C6.06701 15.0214 8.38556 16.7581 11.0371 16.668C14.1599 16.562 16.7481 13.8885 16.6328 10.7247C16.5249 7.76343 14.0107 5.3085 11.0371 5.42781C8.27054 5.53882 5.97884 7.91739 6.10156 10.7247C6.12462 11.252 6.25313 11.7516 6.43555 12.2266L7.83203 11.7716C7.6933 11.4419 7.59323 11.0929 7.56641 10.7247C7.41908 8.70268 9.05616 6.97265 11.0371 6.84774C13.2562 6.70781 15.1474 8.52523 15.2676 10.7247C15.4003 13.1537 13.4255 15.2189 11.0371 15.336C8.95894 15.4379 7.15009 14.0873 6.43555 12.2266L5.1875 12.6329ZM7.83203 11.7716C8.36061 13.0276 9.6149 13.9245 11.0371 13.7989C12.5684 13.6637 13.8302 12.2981 13.6582 10.7247C13.5173 9.43558 12.3567 8.36844 11.0371 8.56258C10.027 8.71119 9.17987 9.67115 9.41016 10.7247C9.44584 10.8879 9.51673 11.0465 9.60938 11.1915L11.0371 10.7247C11.7317 10.7247 11.4705 11.5451 11.0371 11.7364C10.4793 11.9826 9.91303 11.6666 9.60938 11.1915L7.83203 11.7716Z" fill="url(#paint0_linear_10_12276)"/>
<defs>
<linearGradient id="paint0_linear_10_12276" x1="3" y1="10.9999" x2="18.9999" y2="10.9999" gradientUnits="userSpaceOnUse">
<stop stop-color="#FDFC47"/>
<stop offset="1" stop-color="#24FE41"/>
</linearGradient>
</defs>
</svg>
