<svg width="22" height="22" viewBox="0 0 22 22" fill="none" xmlns="http://www.w3.org/2000/svg">
<path d="M17.5 4C16.8458 4 16.2978 4.41808 16.0918 5H3V6C6.601 6 9.5 8.899 9.5 12.5C9.5 14.4055 8.67789 16.1018 7.37891 17.2871C7.13318 17.1069 6.83013 17 6.5 17C5.669 17 5 17.669 5 18.5C5 19.331 5.669 20 6.5 20C7.15424 20 7.7022 19.5819 7.9082 19H12V20H15V17H12V18H8.08789C9.56704 16.6321 10.5 14.6829 10.5 12.5C10.5 9.71133 8.98933 7.29253 6.74219 6H16.0918C16.2978 6.58192 16.8458 7 17.5 7C18.331 7 19 6.331 19 5.5C19 4.669 18.331 4 17.5 4ZM17.5 5C17.777 5 18 5.223 18 5.5C18 5.777 17.777 6 17.5 6C17.4307 6 17.3645 5.98617 17.3047 5.96094C17.1251 5.88523 17 5.70775 17 5.5C17 5.43075 17.0138 5.36455 17.0391 5.30469C17.1148 5.12511 17.2922 5 17.5 5ZM6.5 18C6.777 18 7 18.223 7 18.5C7 18.777 6.777 19 6.5 19C6.223 19 6 18.777 6 18.5C6 18.223 6.223 18 6.5 18ZM13 18H14V19H13V18Z" fill="url(#paint0_linear_10_12225)"/>
<defs>
<linearGradient id="paint0_linear_10_12225" x1="3" y1="12" x2="19" y2="12" gradientUnits="userSpaceOnUse">
<stop stop-color="#FDFC47"/>
<stop offset="1" stop-color="#24FE41"/>
</linearGradient>
</defs>
</svg>
