<svg width="22" height="22" viewBox="0 0 22 22" fill="none" xmlns="http://www.w3.org/2000/svg">
<path d="M18.5137 4.00784C17.9301 3.93431 16.863 4.40549 15.5007 5.33821C14.1385 6.27093 12.5686 7.60521 11.0684 9.10549C9.68706 10.4872 8.44346 11.931 7.52539 13.2188C8.60145 13.5614 9.44056 14.4005 9.7832 15.4766C11.071 14.5585 12.5148 13.3149 13.8965 11.9336C15.584 10.246 17.0535 8.47857 17.9816 7.02009C18.9097 5.5616 19.2205 4.53148 18.8457 4.15628C18.7654 4.07553 18.6543 4.02587 18.5137 4.00784ZM7 14.6641C2.99999 15.7359 6 18.268 3 20C7.00339 20 9 17.9992 9 16.6641C9 15.9992 9.0676 14.7746 7 14.6641Z" fill="url(#paint0_linear_10_12227)"/>
<defs>
<linearGradient id="paint0_linear_10_12227" x1="3" y1="12.0002" x2="19.0008" y2="12.0002" gradientUnits="userSpaceOnUse">
<stop stop-color="#FDFC47"/>
<stop offset="1" stop-color="#24FE41"/>
</linearGradient>
</defs>
</svg>
