<svg width="22" height="22" viewBox="0 0 22 22" fill="none" xmlns="http://www.w3.org/2000/svg">
<path d="M11 0.412109C10.2585 0.882709 10.993 0.412091 10.2188 0.900391L2 6.36914V7.58789V15.1816V15.5879C3.14882 16.3396 2.22209 15.7322 2.75 16.0879L10.0938 20.9941C10.9891 21.5903 10.1018 20.9941 11 21.5879C19.0233 16.2637 17.0538 17.5741 19.375 16.0254C20.0066 15.5638 19.4922 15.9304 20 15.5566V15.2129V15.1816V7.58789V6.36914C17.6762 4.82244 19.6601 6.14254 19.4375 5.99414L11.7812 0.900391L11.375 0.650391C11.0922 0.468391 12.5984 1.44121 11 0.412109ZM10.5 1.93164V9.68164L10.4375 9.77539L10.2188 9.90039L3 14.7129V6.93164L10.5 1.93164ZM11.5 1.93164L19 6.93164V14.5566L11.5 9.55664V1.93164ZM11.125 10.5254L18.4375 15.4004L11 20.3691L3.65625 15.4941L10.7812 10.7441L11.125 10.5254Z" fill="url(#paint0_linear_10_12238)"/>
<path d="M10.582 1.875C10.5694 1.875 8.83266 3.02223 6.72266 4.42383L2.88672 6.97266V10.9297C2.88672 13.1071 2.89801 14.8887 2.91211 14.8887C2.92619 14.8887 4.66289 13.7401 6.77148 12.3359L10.6055 9.7832V5.82812C10.6055 3.65333 10.5947 1.875 10.582 1.875Z" fill="url(#paint1_linear_10_12238)" fill-opacity="0.2"/>
<path d="M11.0898 10.3945C10.9751 10.3992 3.40682 15.5058 3.45112 15.5488C3.47304 15.5699 5.17267 16.7134 7.22847 18.0879C9.28427 19.4624 10.9779 20.5803 10.9921 20.5703C11.6321 20.1555 18.5945 15.4449 18.6015 15.4219C18.6165 15.3721 11.1741 10.3945 11.0898 10.3945Z" fill="url(#paint2_linear_10_12238)" fill-opacity="0.4"/>
<path d="M11.4278 1.8125C11.4152 1.8125 11.4036 3.56363 11.4043 5.70312L11.4063 9.5918L15.2383 12.1562C17.3454 13.5662 19.0741 14.7227 19.0801 14.7227C19.0865 14.7244 19.0918 12.9699 19.0918 10.8242V6.92383L15.2715 4.36719C13.1701 2.96169 11.4404 1.8125 11.4278 1.8125Z" fill="url(#paint3_linear_10_12238)" fill-opacity="0.6"/>
<defs>
<linearGradient id="paint0_linear_10_12238" x1="2" y1="11" x2="20" y2="11" gradientUnits="userSpaceOnUse">
<stop stop-color="#FDFC47"/>
<stop offset="1" stop-color="#24FE41"/>
</linearGradient>
<linearGradient id="paint1_linear_10_12238" x1="2.88672" y1="8.38184" x2="10.6055" y2="8.38184" gradientUnits="userSpaceOnUse">
<stop stop-color="#FDFC47"/>
<stop offset="1" stop-color="#24FE41"/>
</linearGradient>
<linearGradient id="paint2_linear_10_12238" x1="3.45093" y1="15.4825" x2="18.6015" y2="15.4825" gradientUnits="userSpaceOnUse">
<stop stop-color="#FDFC47"/>
<stop offset="1" stop-color="#24FE41"/>
</linearGradient>
<linearGradient id="paint3_linear_10_12238" x1="11.4043" y1="8.26758" x2="19.0918" y2="8.26758" gradientUnits="userSpaceOnUse">
<stop stop-color="#FDFC47"/>
<stop offset="1" stop-color="#24FE41"/>
</linearGradient>
</defs>
</svg>
