<svg width="22" height="22" viewBox="0 0 22 22" fill="none" xmlns="http://www.w3.org/2000/svg">
<path d="M16 13C14.8954 13 14 13.8954 14 15V17H13V20H19V17H18V15C18 13.8954 17.1046 13 16 13ZM16 14C16.5523 14 17 14.4477 17 15V17H15V15C15 14.4477 15.4477 14 16 14Z" fill="url(#paint0_linear_10_12312)"/>
<path d="M6 2C4.338 2 3 3.338 3 5V15C3 16.3601 3.90218 17.491 5.1387 17.8613C5.50907 19.0978 6.6399 20 8 20H12V19H8C6.892 19 6 18.108 6 17V7C6 5.892 6.892 5 8 5H16C17.108 5 18 5.892 18 7V12H19V7C19 5.6399 18.0978 4.509 16.8613 4.1387C16.4909 2.9022 15.3601 2 14 2H6ZM6 3H14C14.7411 3 15.379 3.4042 15.7246 4H8C6.338 4 5 5.338 5 7V16.7246C4.4042 16.379 4 15.7411 4 15V5C4 3.892 4.892 3 6 3Z" fill="url(#paint1_linear_10_12312)"/>
<defs>
<linearGradient id="paint0_linear_10_12312" x1="13" y1="16.5" x2="19" y2="16.5" gradientUnits="userSpaceOnUse">
<stop stop-color="#FDFC47"/>
<stop offset="1" stop-color="#24FE41"/>
</linearGradient>
<linearGradient id="paint1_linear_10_12312" x1="3" y1="11" x2="19" y2="11" gradientUnits="userSpaceOnUse">
<stop stop-color="#FDFC47"/>
<stop offset="1" stop-color="#24FE41"/>
</linearGradient>
</defs>
</svg>
