<svg width="22" height="22" viewBox="0 0 22 22" fill="none" xmlns="http://www.w3.org/2000/svg">
<path d="M3 3V4V19H4H19V18V3H3ZM4 4H18V18H4V4ZM5 5V6V8H6V6H8V5H5ZM14 5V6H16V8H17V6V5H14ZM8 7C7.446 7 7 7.446 7 8C7 8.554 7.446 9 8 9C8.554 9 9 8.554 9 8C9 7.446 8.554 7 8 7ZM14 7C13.446 7 13 7.446 13 8C13 8.554 13.446 9 14 9C14.554 9 15 8.554 15 8C15 7.446 14.554 7 14 7ZM7.12891 11.9668L6.16406 12.209C6.70457 14.3874 8.64976 16 11 16C13.3502 16 15.2954 14.3874 15.8359 12.209L14.8711 11.9668C14.4392 13.7103 12.8807 15 11 15C9.11927 15 7.56079 13.7103 7.12891 11.9668ZM5 14V16V17H8V16H6V14H5ZM16 14V16H14V17H17V16V14H16Z" fill="url(#paint0_linear_10_12349)"/>
<defs>
<linearGradient id="paint0_linear_10_12349" x1="3" y1="11" x2="19" y2="11" gradientUnits="userSpaceOnUse">
<stop stop-color="#FDFC47"/>
<stop offset="1" stop-color="#24FE41"/>
</linearGradient>
</defs>
</svg>
