<svg width="22" height="22" viewBox="0 0 22 22" fill="none" xmlns="http://www.w3.org/2000/svg">
<path d="M6 2C4.338 2 3 3.338 3 5V15C3 16.3601 3.90221 17.491 5.1387 17.8613C5.50907 19.0978 6.6399 20 8 20H14L19 15V7C19 5.6399 18.0978 4.509 16.8613 4.1387C16.4909 2.9022 15.3601 2 14 2H6ZM6 3H14C14.7411 3 15.379 3.4042 15.7246 4H8C6.338 4 5 5.338 5 7V16.7246C4.4042 16.379 4 15.7411 4 15V5C4 3.892 4.892 3 6 3ZM16 4C16.1642 4 16.3233 4.01841 16.4785 4.04688C16.3217 4.02175 16.1642 4 16 4ZM8 5H16C17.108 5 18 5.892 18 7V14H13V19H8C6.892 19 6 18.108 6 17V7C6 5.892 6.892 5 8 5ZM14 15H17.5859L14 18.5859V15ZM5 17C5 17.1642 5.02175 17.3217 5.04688 17.4785C5.01841 17.3233 5 17.1642 5 17Z" fill="url(#paint0_linear_10_12316)"/>
<defs>
<linearGradient id="paint0_linear_10_12316" x1="3" y1="11" x2="19" y2="11" gradientUnits="userSpaceOnUse">
<stop stop-color="#FDFC47"/>
<stop offset="1" stop-color="#24FE41"/>
</linearGradient>
</defs>
</svg>
