<svg width="22" height="22" viewBox="0 0 22 22" fill="none" xmlns="http://www.w3.org/2000/svg">
<path d="M9 1C7.892 1 7 1.892 7 3V4H2.5C2.223 4 2 4.223 2 4.5C2 4.777 2.23687 5.08656 2.5 5H2.99805L3.54493 18.061C3.60613 19.0765 4.45113 20.0005 5.54293 20.0005H15.457C16.5489 20.0005 17.3938 19.0766 17.455 18.061L18.0019 5H18.5C18.777 5 19 4.777 19 4.5C19 4.223 18.7768 4.01008 18.5 4H14V3C14 1.892 13.108 1 12 1H9ZM9 2H12C12.554 2 13 2.446 13 3V4H8V3C8 2.446 8.446 2 9 2ZM4 5H17L16.457 18C16.4237 18.553 16.011 19 15.457 19H5.54293C4.98893 19 4.57626 18.553 4.54293 18L4 5ZM7.5 7C7.223 7 7 7.223 7 7.5V16.5C7 16.777 7.223 17 7.5 17C7.777 17 8 16.777 8 16.5V7.5C8 7.223 7.777 7 7.5 7ZM10.502 7C10.225 7 10.002 7.223 10.002 7.5V16.5C10.002 16.777 10.225 17 10.502 17C10.779 17 11.002 16.777 11.002 16.5V7.5C11.002 7.223 10.779 7 10.502 7ZM13.5 7C13.223 7 13 7.223 13 7.5V16.5C13 16.777 13.223 17 13.5 17C13.777 17 14 16.777 14 16.5V7.5C14 7.223 13.777 7 13.5 7Z" fill="url(#paint0_linear_10_12334)"/>
<defs>
<linearGradient id="paint0_linear_10_12334" x1="2" y1="10.5002" x2="19" y2="10.5002" gradientUnits="userSpaceOnUse">
<stop stop-color="#FDFC47"/>
<stop offset="1" stop-color="#24FE41"/>
</linearGradient>
</defs>
</svg>
