<svg width="22" height="22" viewBox="0 0 22 22" fill="none" xmlns="http://www.w3.org/2000/svg">
<path d="M10.9121 3C10.0902 3.00715 9.2746 3.10925 8.49414 3.30273L9.33203 4.14453C9.87765 4.04738 10.4377 3.99754 11 3.99609C11.1761 3.99787 11.352 4.00438 11.5273 4.01563L10.9121 3ZM12.1191 3.0625L12.7891 4.16797C13.7978 4.35701 14.7347 4.70468 15.5312 5.18555L16.3437 4.54102C15.1625 3.74455 13.6918 3.22985 12.1191 3.0625ZM7.41797 3.63867C6.74008 3.89385 6.11402 4.22003 5.55859 4.60742L6.53125 5.1543C7.03525 4.85577 7.5954 4.60923 8.19531 4.42188L7.41797 3.63867ZM17.1582 5.16992L16.3691 5.79688C16.6731 6.05625 16.9394 6.33698 17.1641 6.63477L18.1641 6.3418C17.8906 5.92319 17.553 5.52992 17.1582 5.16992ZM4.71875 5.28125C4.30211 5.6816 3.95493 6.12 3.68554 6.58594L4.61718 6.95312C4.87848 6.53515 5.2189 6.14478 5.6289 5.79297L4.71875 5.28125ZM18.6484 7.24219L17.6816 7.52539C17.8369 7.87967 17.9365 8.24521 17.9785 8.61523L18.9844 8.75195C18.9588 8.24001 18.8459 7.73262 18.6484 7.24219ZM3.26172 7.49219C3.09984 7.95797 3.01328 8.43667 3.00391 8.91797L4.00781 8.87305C4.01973 8.53161 4.08059 8.19195 4.18945 7.85938L3.26172 7.49219ZM17.9394 9.61914C17.8497 10.1267 17.6514 10.6214 17.3516 11.0859L18.3418 11.3613C18.6352 10.8485 18.8317 10.3075 18.9258 9.75391L17.9394 9.61914ZM4.10937 9.86914L3.10351 9.91406C3.20635 10.421 3.39539 10.9159 3.66601 11.3867L4.57617 10.9688C4.36193 10.6162 4.20529 10.2473 4.10937 9.86914ZM5.19726 11.7852L4.25781 12.2148C4.73598 12.7739 5.33462 13.2696 6.0293 13.6816C6.66533 16.0572 4.18884 18.183 5 18.9941C6.13471 19.1023 6.80916 17.4273 7.08203 15.8047C7.1841 15.6658 7.55302 15.1378 7.84961 14.5078C8.8418 14.8279 9.91014 14.994 10.9902 14.9961L9.92382 13.9297C9.30675 13.859 8.7057 13.7296 8.13671 13.5449C8.14464 13.1009 7.87094 12.8213 7.00195 13C7.00091 12.9986 7.00106 12.9955 7 12.9941C6.9208 12.9941 6.84236 12.9783 6.76367 12.9668C6.1547 12.6367 5.62556 12.2375 5.19726 11.7852ZM16.6582 11.9316C16.196 12.3853 15.6301 12.7801 14.9844 13.0996L15.9609 13.6953C16.6573 13.2848 17.2579 12.7905 17.7383 12.2324L16.6582 11.9316ZM13.8242 13.5645C13.0563 13.8081 12.2333 13.951 11.3945 13.9863L12.3164 14.9082C13.2269 14.7949 14.1045 14.5643 14.9102 14.2266L13.8242 13.5645Z" fill="url(#paint0_linear_10_12378)"/>
<defs>
<linearGradient id="paint0_linear_10_12378" x1="3.00391" y1="10.9996" x2="18.9844" y2="10.9996" gradientUnits="userSpaceOnUse">
<stop stop-color="#FDFC47"/>
<stop offset="1" stop-color="#24FE41"/>
</linearGradient>
</defs>
</svg>
