<svg width="22" height="22" viewBox="0 0 22 22" fill="none" xmlns="http://www.w3.org/2000/svg">
<path d="M17.5645 2.75586L14.2988 8.57422L11.8828 7.13867L10.8613 8.85742L16.5117 12.2168L17.5332 10.4961L15.1582 9.08398L18.4355 3.24414L17.5645 2.75586ZM7 6C6.73478 6 6.48043 6.10536 6.29289 6.29289C6.10536 6.48043 6 6.73478 6 7C6 7.26522 6.10536 7.51957 6.29289 7.70711C6.48043 7.89464 6.73478 8 7 8C7.26522 8 7.51957 7.89464 7.70711 7.70711C7.89464 7.51957 8 7.26522 8 7C8 6.73478 7.89464 6.48043 7.70711 6.29289C7.51957 6.10536 7.26522 6 7 6ZM3.5 7C3.36739 7 3.24021 7.05268 3.14645 7.14645C3.05268 7.24021 3 7.36739 3 7.5C3 7.63261 3.05268 7.75979 3.14645 7.85355C3.24021 7.94732 3.36739 8 3.5 8C3.63261 8 3.75979 7.94732 3.85355 7.85355C3.94732 7.75979 4 7.63261 4 7.5C4 7.36739 3.94732 7.24021 3.85355 7.14645C3.75979 7.05268 3.63261 7 3.5 7ZM5 9C4.73478 9 4.48043 9.10536 4.29289 9.29289C4.10536 9.48043 4 9.73478 4 10C4 10.2652 4.10536 10.5196 4.29289 10.7071C4.48043 10.8946 4.73478 11 5 11C5.26522 11 5.51957 10.8946 5.70711 10.7071C5.89464 10.5196 6 10.2652 6 10C6 9.73478 5.89464 9.48043 5.70711 9.29289C5.51957 9.10536 5.26522 9 5 9ZM10 10C8.88151 11.5643 6.83551 12.8109 3 13V14C5.11371 17.3717 8 19 12 19H13C14.3112 17.4128 15.3575 15.9676 16 14V13L11 10H10ZM10.5293 11.1016L14.8574 13.6992C14.2846 15.2459 13.3854 16.6028 12.2734 17.9688C9 18 6.05277 16.5405 4.32617 13.8301C7.44439 13.5195 9.34572 12.5453 10.5293 11.1016Z" fill="url(#paint0_linear_10_12300)"/>
<defs>
<linearGradient id="paint0_linear_10_12300" x1="3" y1="10.8779" x2="18.4355" y2="10.8779" gradientUnits="userSpaceOnUse">
<stop stop-color="#FDFC47"/>
<stop offset="1" stop-color="#24FE41"/>
</linearGradient>
</defs>
</svg>
