<svg width="22" height="22" viewBox="0 0 22 22" fill="none" xmlns="http://www.w3.org/2000/svg">
<path d="M7 7V10H10V7H7ZM12 7V10H15V7H12ZM7 12V15H10V12H7ZM12 12V15H15V12H12Z" fill="url(#paint0_linear_10_12373)"/>
<path d="M6 3C4.338 3 3 4.338 3 6V8H4V6C4 4.892 4.892 4 6 4H8V3H6ZM14 3V4H16C17.108 4 18 4.892 18 6V8H19V6C19 4.338 17.662 3 16 3H14ZM3 14V16C3 17.662 4.338 19 6 19H8V18H6C4.892 18 4 17.108 4 16V14H3ZM18 14V16C18 17.108 17.108 18 16 18H14V19H16C17.662 19 19 17.662 19 16V14H18Z" fill="url(#paint1_linear_10_12373)"/>
<defs>
<linearGradient id="paint0_linear_10_12373" x1="7" y1="11" x2="15" y2="11" gradientUnits="userSpaceOnUse">
<stop stop-color="#FDFC47"/>
<stop offset="1" stop-color="#24FE41"/>
</linearGradient>
<linearGradient id="paint1_linear_10_12373" x1="3" y1="11" x2="19" y2="11" gradientUnits="userSpaceOnUse">
<stop stop-color="#FDFC47"/>
<stop offset="1" stop-color="#24FE41"/>
</linearGradient>
</defs>
</svg>
