<svg width="22" height="22" viewBox="0 0 22 22" fill="none" xmlns="http://www.w3.org/2000/svg">
<path d="M16 13C14.8954 13 14 13.8954 14 15V17H13V20H19V17H18V15C18 13.8954 17.1046 13 16 13ZM16 14C16.5523 14 17 14.4477 17 15V17H15V15C15 14.4477 15.4477 14 16 14Z" fill="url(#paint0_linear_10_12384)"/>
<path d="M8 4C6.338 4 5 5.338 5 7V17C5 18.662 6.338 20 8 20H12V19H8C6.892 19 6 18.108 6 17V7C6 5.892 6.892 5 8 5H16C17.108 5 18 5.892 18 7V12H19V7C19 5.338 17.662 4 16 4H8Z" fill="url(#paint1_linear_10_12384)"/>
<path d="M6 2.00005C4.338 2.00005 3 3.33805 3 5.00005V15C3 16.3601 3.90221 17.491 5.1387 17.8613C5.05651 17.5869 5.00003 17.3019 5.00003 17V16.7246C4.40423 16.3791 4.00003 15.7411 4.00003 15V5.00003C4.00003 3.89203 4.89203 3.00003 6.00003 3.00003H14C14.7411 3.00003 15.379 3.40423 15.7246 4.00003H16C16.3019 4.00003 16.5869 4.05651 16.8613 4.1387C16.491 2.9022 15.3601 2 14 2L6 2.00005Z" fill="url(#paint2_linear_10_12384)"/>
<defs>
<linearGradient id="paint0_linear_10_12384" x1="13" y1="16.5" x2="19" y2="16.5" gradientUnits="userSpaceOnUse">
<stop stop-color="#FDFC47"/>
<stop offset="1" stop-color="#24FE41"/>
</linearGradient>
<linearGradient id="paint1_linear_10_12384" x1="5" y1="12" x2="19" y2="12" gradientUnits="userSpaceOnUse">
<stop stop-color="#FDFC47"/>
<stop offset="1" stop-color="#24FE41"/>
</linearGradient>
<linearGradient id="paint2_linear_10_12384" x1="3" y1="9.93067" x2="16.8613" y2="9.93067" gradientUnits="userSpaceOnUse">
<stop stop-color="#FDFC47"/>
<stop offset="1" stop-color="#24FE41"/>
</linearGradient>
</defs>
</svg>
