<svg width="22" height="22" viewBox="0 0 22 22" fill="none" xmlns="http://www.w3.org/2000/svg">
<path d="M6 3C5.73478 3 5.48043 3.10536 5.29289 3.29289C5.10536 3.48043 5 3.73478 5 4C5 4.26522 5.10536 4.51957 5.29289 4.70711C5.48043 4.89464 5.73478 5 6 5C6.26522 5 6.51957 4.89464 6.70711 4.70711C6.89464 4.51957 7 4.26522 7 4C7 3.73478 6.89464 3.48043 6.70711 3.29289C6.51957 3.10536 6.26522 3 6 3ZM7 6L7.00586 19L10.9004 14.3008L17 14L7 6Z" fill="url(#paint0_linear_10_12391)"/>
<defs>
<linearGradient id="paint0_linear_10_12391" x1="5" y1="11" x2="17" y2="11" gradientUnits="userSpaceOnUse">
<stop stop-color="#FDFC47"/>
<stop offset="1" stop-color="#24FE41"/>
</linearGradient>
</defs>
</svg>
