<svg width="22" height="22" viewBox="0 0 22 22" fill="none" xmlns="http://www.w3.org/2000/svg">
<path d="M9 3V4H17V14H13V15V18H5V8H4V19H5H13H14V18.9902L14.0078 19L18 15.0078V15V13.5938V3H17H9ZM9 6V7H15V6H9ZM7 9V10H15V9H7ZM7 12V13H15V12H7ZM7 15V16H11V15H7Z" fill="url(#paint0_linear_10_12419)"/>
<path d="M3 3L5 6L7 3H3Z" fill="url(#paint1_linear_10_12419)"/>
<defs>
<linearGradient id="paint0_linear_10_12419" x1="4" y1="11" x2="18" y2="11" gradientUnits="userSpaceOnUse">
<stop stop-color="#FDFC47"/>
<stop offset="1" stop-color="#24FE41"/>
</linearGradient>
<linearGradient id="paint1_linear_10_12419" x1="3" y1="4.5" x2="7" y2="4.5" gradientUnits="userSpaceOnUse">
<stop stop-color="#FDFC47"/>
<stop offset="1" stop-color="#24FE41"/>
</linearGradient>
</defs>
</svg>
