<svg width="22" height="22" viewBox="0 0 22 22" fill="none" xmlns="http://www.w3.org/2000/svg">
<path d="M3 3V4V19H4H19V18V3H3ZM4 4H18V18H4V4ZM5 5V6V7H6V6H7V5H5ZM11 5C9.615 5 8.5 6.115 8.5 7.5C8.5 8.885 9.615 10 11 10C12.385 10 13.5 8.885 13.5 7.5C13.5 6.115 12.385 5 11 5ZM15 5V6H16V7H17V5H15ZM11 6C11.831 6 12.5 6.669 12.5 7.5C12.5 8.331 11.831 9 11 9C10.169 9 9.5 8.331 9.5 7.5C9.5 6.669 10.169 6 11 6ZM5 9V10V11H7V10H6V9H5ZM16 9V10H15V11H17V10V9H16ZM11 11C8.50701 11 6.5 13.007 6.5 15.5V16V17H6.77539H7.5H7.8457H14.1543H15.2246H15.5V16V15.5C15.5 13.007 13.493 11 11 11ZM11 12C12.939 12 14.5 13.561 14.5 15.5V16H7.5V15.5C7.5 13.561 9.06101 12 11 12Z" fill="url(#paint0_linear_10_12353)"/>
<defs>
<linearGradient id="paint0_linear_10_12353" x1="3" y1="11" x2="19" y2="11" gradientUnits="userSpaceOnUse">
<stop stop-color="#FDFC47"/>
<stop offset="1" stop-color="#24FE41"/>
</linearGradient>
</defs>
</svg>
