<svg width="22" height="22" viewBox="0 0 22 22" fill="none" xmlns="http://www.w3.org/2000/svg">
<path d="M11 2.00005C9.8954 2.00005 9 2.89548 9 4.00005H7C5.338 4.00005 4 5.33805 4 7.00005V16.0001C4 17.6621 5.338 19.0001 7 19.0001H15C16.662 19.0001 18 17.6621 18 16.0001V7.00005C18 5.33805 16.662 4.00005 15 4.00005V4.00591C14.9794 4.00531 14.9602 4.00005 14.9395 4.00005H13C13 3.86205 12.9947 3.7238 12.9687 3.5938C12.7726 2.66344 11.951 1.99825 11 2.00005ZM10.9883 3.00005C10.9922 3.00003 10.9961 3.00003 11 3.00005C11.414 3.00005 11.7543 3.26605 11.9062 3.62505C11.9631 3.74221 11.9951 3.86991 12 4.00005C11.9999 4.88818 10.9284 5.33525 10.2969 4.71099C9.66533 4.08673 10.1002 3.01045 10.9883 3.00005ZM6.99998 5.00005H8.99998V6.00005C8.99998 6.00005 7.99998 6.00005 7.99998 7.00005H14C14 6.25005 13.4372 6.04705 13.1562 6.00005H13V5.00005H15C16.108 5.00005 17 5.89205 17 7.00005V16.0001C17 17.1081 16.108 18.0001 15 18.0001H6.99998C5.89198 18.0001 4.99998 17.1081 4.99998 16.0001V7.00005C4.99998 5.89205 5.89198 5.00005 6.99998 5.00005Z" fill="url(#paint0_linear_10_12366)"/>
<defs>
<linearGradient id="paint0_linear_10_12366" x1="4" y1="10.5" x2="18" y2="10.5" gradientUnits="userSpaceOnUse">
<stop stop-color="#FDFC47"/>
<stop offset="1" stop-color="#24FE41"/>
</linearGradient>
</defs>
</svg>
