<svg width="22" height="22" viewBox="0 0 22 22" fill="none" xmlns="http://www.w3.org/2000/svg">
<path d="M4 4V18H18V4H4ZM5 5H17V17H5V5ZM8 8V14H14V8H8ZM9 9H13V13H9V9Z" fill="url(#paint0_linear_10_12424)"/>
<path d="M3 3V4V18V19H18H19V18V4V3H18H4H3ZM4 4H18V18H4V4ZM7 7V8V14V15H15V14V8V7H14H8H7ZM8 8H14V14H8V8Z" fill="url(#paint1_linear_10_12424)" fill-opacity="0.5"/>
<defs>
<linearGradient id="paint0_linear_10_12424" x1="4" y1="11" x2="18" y2="11" gradientUnits="userSpaceOnUse">
<stop stop-color="#FDFC47"/>
<stop offset="1" stop-color="#24FE41"/>
</linearGradient>
<linearGradient id="paint1_linear_10_12424" x1="3" y1="11" x2="19" y2="11" gradientUnits="userSpaceOnUse">
<stop stop-color="#FDFC47"/>
<stop offset="1" stop-color="#24FE41"/>
</linearGradient>
</defs>
</svg>
