<svg width="22" height="22" viewBox="0 0 22 22" fill="none" xmlns="http://www.w3.org/2000/svg">
<path d="M3 3V10H11V3H3ZM4 4H10V9H4V4ZM12 4.07812V5.08984V8H13V5.35547C14.1678 5.76835 15.1792 6.53256 15.8954 7.54319C16.6116 8.55382 16.9975 9.76134 17 11H18C17.9985 9.31783 17.3912 7.69246 16.2894 6.42136C15.1876 5.15026 13.6649 4.31843 12 4.07812ZM4 11C4.00152 12.6822 4.60875 14.3075 5.71057 15.5786C6.81238 16.8497 8.33508 17.6816 10 17.9219V16.9102V14H9V16.6445C7.83217 16.2316 6.82076 15.4674 6.10457 14.4568C5.38839 13.4462 5.00254 12.2387 5 11H4Z" fill="url(#paint0_linear_10_12469)"/>
<path d="M15.5 12C15.0404 12 14.5852 12.0905 14.1606 12.2664C13.736 12.4423 13.3501 12.7001 13.0251 13.0251C12.7001 13.3501 12.4423 13.736 12.2664 14.1606C12.0905 14.5852 12 15.0404 12 15.5C12.0011 16.2551 12.2464 16.9896 12.6992 17.5938L13.416 16.877C13.1454 16.4687 13.0008 15.9898 13 15.5C13 14.837 13.2634 14.2011 13.7322 13.7322C14.2011 13.2634 14.837 13 15.5 13C15.9898 13.0008 16.4686 13.1454 16.877 13.416L17.5938 12.6992C16.9895 12.2464 16.2551 12.0011 15.5 12ZM18.3008 13.4063L17.584 14.123C17.8546 14.5313 17.9992 15.0102 18 15.5C18 16.163 17.7366 16.7989 17.2678 17.2678C16.7989 17.7366 16.163 18 15.5 18C15.0102 17.9992 14.5314 17.8546 14.123 17.584L13.4062 18.3008C14.0105 18.7536 14.7449 18.9989 15.5 19C15.9596 19 16.4148 18.9095 16.8394 18.7336C17.264 18.5577 17.6499 18.2999 17.9749 17.9749C18.2999 17.6499 18.5577 17.264 18.7336 16.8394C18.9095 16.4148 19 15.9596 19 15.5C18.9989 14.7449 18.7536 14.0105 18.3008 13.4063Z" fill="url(#paint1_linear_10_12469)"/>
<defs>
<linearGradient id="paint0_linear_10_12469" x1="3" y1="10.4609" x2="18" y2="10.4609" gradientUnits="userSpaceOnUse">
<stop stop-color="#FDFC47"/>
<stop offset="1" stop-color="#24FE41"/>
</linearGradient>
<linearGradient id="paint1_linear_10_12469" x1="12" y1="15.5" x2="19" y2="15.5" gradientUnits="userSpaceOnUse">
<stop stop-color="#FDFC47"/>
<stop offset="1" stop-color="#24FE41"/>
</linearGradient>
</defs>
</svg>
