<svg width="22" height="22" viewBox="0 0 22 22" fill="none" xmlns="http://www.w3.org/2000/svg">
<path d="M11 3C8.96332 3 7.09142 3.43876 5.72461 4.32812C4.35781 5.21749 3.49827 6.56614 3.5 8.35742C3.509 10.3818 4.81966 12.9926 6.40235 15.127C7.19368 16.1941 8.05489 17.1434 8.85938 17.834C9.66384 18.5246 10.407 18.9629 10.9941 19H11H11.0059C11.593 18.9628 12.3362 18.5246 13.1406 17.834C13.9451 17.1434 14.8063 16.1941 15.5977 15.127C17.1804 12.9926 18.4903 10.3818 18.5 8.35742C18.501 6.56614 17.6422 5.21749 16.2754 4.32812C14.9086 3.43876 13.0367 3 11 3ZM11 5.66602L12.25 8.30273L15.0723 8.73242L13.0156 10.7734L13.4824 13.666L10.9609 12.291L8.42578 13.6504L8.92578 10.7598L6.89063 8.70508L9.72266 8.29102L11 5.66602Z" fill="url(#paint0_linear_10_12479)"/>
<defs>
<linearGradient id="paint0_linear_10_12479" x1="3.5" y1="11" x2="18.5" y2="11" gradientUnits="userSpaceOnUse">
<stop stop-color="#FDFC47"/>
<stop offset="1" stop-color="#24FE41"/>
</linearGradient>
</defs>
</svg>
