<svg width="22" height="22" viewBox="0 0 22 22" fill="none" xmlns="http://www.w3.org/2000/svg">
<path d="M13.3494 6.24097C13.3494 6.52661 13.3237 6.79761 13.2725 7.05396C13.2212 7.31031 13.1333 7.55201 13.0088 7.77905C12.8916 7.99878 12.7744 8.20019 12.6572 8.3833C12.54 8.55908 12.3716 8.74218 12.1519 8.93262C11.9395 9.11572 11.7563 9.26953 11.6025 9.39404C11.4487 9.51856 11.229 9.66504 10.9434 9.8335C10.665 10.0019 10.4453 10.1301 10.2842 10.218C10.123 10.3059 9.88502 10.4341 9.57007 10.6025L13.9756 15.3816C14.6494 14.6492 15.2646 13.7849 15.8213 12.7888L17.0737 13.6128C16.4219 14.748 15.7261 15.7002 14.9863 16.4692L16.7332 18.3699L15.4587 19.4246L13.7778 17.5569C12.3057 18.6848 10.7603 19.2488 9.1416 19.2488C8.43847 19.2488 7.76465 19.1389 7.12012 18.9192C6.48291 18.6921 5.93725 18.3918 5.48315 18.0183C5.02905 17.6448 4.66651 17.209 4.39551 16.7109C4.13184 16.2129 4 15.6965 4 15.1619C4 14.6638 4.05859 14.1987 4.17578 13.7666C4.30029 13.3271 4.45776 12.9499 4.64819 12.635C4.84595 12.3127 5.09131 12.0088 5.38428 11.7231C5.68457 11.4302 5.9812 11.1848 6.27417 10.9871C6.56714 10.782 6.90405 10.5732 7.28491 10.3608L6.98828 10.0312C5.91162 8.84472 5.37329 7.64721 5.37329 6.43872C5.37329 5.41333 5.76148 4.58569 6.53784 3.95581C7.32153 3.3186 8.32861 3 9.55908 3C10.709 3 11.6282 3.27832 12.3167 3.83496C13.0051 4.3916 13.3494 5.1936 13.3494 6.24097ZM8.68018 9.63574C9.06836 9.43799 9.3833 9.26953 9.625 9.13037C9.86669 8.98388 10.134 8.80444 10.427 8.59204C10.7273 8.37231 10.958 8.15991 11.1191 7.95483C11.2876 7.74976 11.4268 7.5044 11.5366 7.21875C11.6538 6.92578 11.7124 6.61817 11.7124 6.2959C11.7124 5.65137 11.533 5.16064 11.1741 4.82373C10.8152 4.47949 10.2842 4.30737 9.58105 4.30737C8.86328 4.30737 8.25171 4.49048 7.74634 4.85669C7.24097 5.2229 6.98828 5.70996 6.98828 6.31787C6.98828 7.30664 7.47168 8.3247 8.43848 9.37207L8.68018 9.63574ZM12.7891 16.4692L8.19678 11.3716C7.42041 11.8403 6.81982 12.3567 6.39502 12.9207C5.97021 13.4773 5.75781 14.1658 5.75781 14.9861C5.75781 15.7698 6.0874 16.4363 6.74658 16.9856C7.40576 17.5276 8.22607 17.7986 9.20752 17.7986C10.416 17.7986 11.6099 17.3555 12.7891 16.4692Z" fill="url(#paint0_linear_10_12485)"/>
<defs>
<linearGradient id="paint0_linear_10_12485" x1="4" y1="11.2123" x2="17.0737" y2="11.2123" gradientUnits="userSpaceOnUse">
<stop stop-color="#FDFC47"/>
<stop offset="1" stop-color="#24FE41"/>
</linearGradient>
</defs>
</svg>
