<svg width="22" height="22" viewBox="0 0 22 22" fill="none" xmlns="http://www.w3.org/2000/svg">
<path d="M7 3V4V14.5039C6.56775 14.178 6.04137 14.0011 5.5 14C4.83696 14 4.20108 14.2634 3.73224 14.7322C3.2634 15.2011 3 15.837 3 16.5C3 17.163 3.2634 17.7989 3.73224 18.2678C4.20108 18.7366 4.83696 19 5.5 19C6.16304 19 6.79892 18.7366 7.26776 18.2678C7.7366 17.7989 8 17.163 8 16.5V7H18V12.5039C17.5677 12.178 17.0414 12.0011 16.5 12C15.837 12 15.2011 12.2634 14.7322 12.7322C14.2634 13.2011 14 13.837 14 14.5C14 15.163 14.2634 15.7989 14.7322 16.2678C15.2011 16.7366 15.837 17 16.5 17C17.163 17 17.7989 16.7366 18.2678 16.2678C18.7366 15.7989 19 15.163 19 14.5V4V3.5V3H8H7ZM8 4H18V6H8V4Z" fill="url(#paint0_linear_10_12497)"/>
<defs>
<linearGradient id="paint0_linear_10_12497" x1="3" y1="11" x2="19" y2="11" gradientUnits="userSpaceOnUse">
<stop stop-color="#FDFC47"/>
<stop offset="1" stop-color="#24FE41"/>
</linearGradient>
</defs>
</svg>
