<svg width="22" height="22" viewBox="0 0 22 22" fill="none" xmlns="http://www.w3.org/2000/svg">
<path d="M10.5 3C9.115 3 8 4.115 8 5.5V8L3 13L9 19L16 12L13 9V5.5C13 4.115 11.885 3 10.5 3ZM10.5 4C11.331 4 12 4.669 12 5.5V8L10 6L9 7V5.5C9 4.669 9.669 4 10.5 4ZM10 7.41406L14.5352 11.9512C10.9998 16.0009 8.99922 10.0001 4.41406 13L10 7.41406ZM17.5 11C17.5 11 16 13.6716 16 14.5C16 15.3284 16.6716 16 17.5 16C18.3284 16 19 15.3284 19 14.5C19 13.6716 17.5 11 17.5 11Z" fill="url(#paint0_linear_10_12527)"/>
<defs>
<linearGradient id="paint0_linear_10_12527" x1="3" y1="11" x2="19" y2="11" gradientUnits="userSpaceOnUse">
<stop stop-color="#FDFC47"/>
<stop offset="1" stop-color="#24FE41"/>
</linearGradient>
</defs>
</svg>
