<svg width="22" height="22" viewBox="0 0 22 22" fill="none" xmlns="http://www.w3.org/2000/svg">
<path d="M11 3C6.58173 3 3 6.58172 3 11C3 15.4183 6.58173 19 11 19C15.4183 19 19 15.4183 19 11C19 6.58172 15.4183 3 11 3ZM11 4C12.6602 4.00043 14.2662 4.59091 15.5312 5.66602V5.66797C15.5437 5.68736 15.5493 5.6986 15.5625 5.71875L11 10.2812L6.4375 5.71875C6.44567 5.70564 6.44896 5.69852 6.45703 5.68555C7.7224 4.60077 9.3333 4.00309 11 4ZM5.71875 6.4375L10.2812 11L5.71875 15.5625C5.61715 15.4408 5.55127 15.3755 5.45703 15.2656C4.51431 14.0433 4.00207 12.5436 4 11C4.00089 9.34048 4.59134 7.73525 5.66602 6.4707C5.6871 6.45677 5.69712 6.45194 5.71875 6.4375ZM16.2812 6.4375C16.2905 6.4413 16.2955 6.44155 16.3047 6.44531C17.3956 7.71236 17.997 9.32803 18 11C17.9996 12.6664 17.4047 14.2779 16.3223 15.5449C16.3072 15.5526 16.2972 15.5539 16.2812 15.5625L11.7188 11L16.2812 6.4375ZM11 11.7188L15.5625 16.2812C15.5577 16.2914 15.5555 16.2966 15.5508 16.3066C14.2845 17.396 12.6704 17.9966 11 18C9.32693 17.9985 7.70975 17.3977 6.44141 16.3066C6.43968 16.2963 6.43926 16.2917 6.4375 16.2812L11 11.7188Z" fill="url(#paint0_linear_10_12531)"/>
<defs>
<linearGradient id="paint0_linear_10_12531" x1="3" y1="11" x2="19" y2="11" gradientUnits="userSpaceOnUse">
<stop stop-color="#FDFC47"/>
<stop offset="1" stop-color="#24FE41"/>
</linearGradient>
</defs>
</svg>
