<svg width="22" height="22" viewBox="0 0 22 22" fill="none" xmlns="http://www.w3.org/2000/svg">
<path d="M6.75 3C4.33016 3 2.77619 6.05944 2.54688 10H3.53906C3.72749 6.61217 4.86252 4 6.75 4C8.63748 4 10.1833 6.61218 10.4453 10H11.4414C11.1461 6.0594 9.16985 3 6.75 3ZM10.541 12C10.8401 15.9976 12.8577 18.9968 15.25 19C17.6416 19 19.2011 15.9964 19.5 12H18.5C18.2339 15.4408 17.1124 17.9958 15.25 18C13.3876 18 11.809 15.4408 11.543 12H10.541Z" fill="url(#paint0_linear_10_12651)"/>
<path d="M1 9V13H5V9H1ZM9 9V13H13V9H9ZM17 9V13H21V9H17ZM2 10H4V12H2V10ZM10 10H12V12H10V10ZM18 10H20V12H18V10Z" fill="url(#paint1_linear_10_12651)"/>
<defs>
<linearGradient id="paint0_linear_10_12651" x1="2.54688" y1="11" x2="19.5" y2="11" gradientUnits="userSpaceOnUse">
<stop stop-color="#FDFC47"/>
<stop offset="1" stop-color="#24FE41"/>
</linearGradient>
<linearGradient id="paint1_linear_10_12651" x1="1" y1="11" x2="21" y2="11" gradientUnits="userSpaceOnUse">
<stop stop-color="#FDFC47"/>
<stop offset="1" stop-color="#24FE41"/>
</linearGradient>
</defs>
</svg>
