<svg width="22" height="22" viewBox="0 0 22 22" fill="none" xmlns="http://www.w3.org/2000/svg">
<path d="M7.5 3C5.567 3 4 4.7909 4 7V8V10C4 12.2091 5.567 14 7.5 14C9.433 14 11 12.2091 11 10V8V7C11 4.7909 9.433 3 7.5 3ZM15.5 3C13.567 3 12 4.7909 12 7V8V10C12 12.2091 13.567 14 15.5 14C17.433 14 19 12.2091 19 10V8V7C19 4.7909 17.433 3 15.5 3ZM7.5 4C8.88071 4 10 5.3432 10 7V10C10 11.6569 8.88071 13 7.5 13C6.11929 13 5 11.6569 5 10V7C5 5.3432 6.11929 4 7.5 4ZM15.5 4C16.8807 4 18 5.3431 18 7V10C18 11.6569 16.8807 13 15.5 13C14.1193 13 13 11.6569 13 10V7C13 5.3431 14.1193 4 15.5 4ZM3 13V14H4V13H3Z" fill="url(#paint0_linear_10_12712)"/>
<path d="M15 15V17H13V18H15V20H16V18H18V17H16V15H15Z" fill="url(#paint1_linear_10_12712)"/>
<defs>
<linearGradient id="paint0_linear_10_12712" x1="3" y1="8.5" x2="19" y2="8.5" gradientUnits="userSpaceOnUse">
<stop stop-color="#FDFC47"/>
<stop offset="1" stop-color="#24FE41"/>
</linearGradient>
<linearGradient id="paint1_linear_10_12712" x1="13" y1="17.5" x2="18" y2="17.5" gradientUnits="userSpaceOnUse">
<stop stop-color="#FDFC47"/>
<stop offset="1" stop-color="#24FE41"/>
</linearGradient>
</defs>
</svg>
