<svg width="22" height="22" viewBox="0 0 22 22" fill="none" xmlns="http://www.w3.org/2000/svg">
<path d="M16.4805 2.61133L4.48047 18.6094L5.05078 19.0371L5.40625 19.3105L5.41016 19.3066L5.51953 19.3887L17.5195 3.38867L17.0508 3.03711L16.5938 2.68555L16.5898 2.69336L16.4805 2.61133ZM6.5 3.99805C4.567 3.99805 3 5.56505 3 7.49805C3 9.43105 4.567 10.998 6.5 10.998C8.433 10.998 10 9.43105 10 7.49805C10 5.56505 8.433 3.99805 6.5 3.99805ZM6.5 4.99805C7.88071 4.99805 9 6.11734 9 7.49805C9 8.87876 7.88071 9.99805 6.5 9.99805C5.11929 9.99805 4 8.87876 4 7.49805C4 6.11734 5.11929 4.99805 6.5 4.99805ZM15.5 11.998C13.567 11.998 12 13.565 12 15.498C12 17.431 13.567 18.998 15.5 18.998C17.433 18.998 19 17.431 19 15.498C19 13.565 17.433 11.998 15.5 11.998ZM15.5 12.998C16.8807 12.998 18 14.1173 18 15.498C18 16.8788 16.8807 17.998 15.5 17.998C14.1193 17.998 13 16.8788 13 15.498C13 14.1173 14.1193 12.998 15.5 12.998Z" fill="url(#paint0_linear_10_12706)"/>
<defs>
<linearGradient id="paint0_linear_10_12706" x1="3" y1="11" x2="19" y2="11" gradientUnits="userSpaceOnUse">
<stop stop-color="#FDFC47"/>
<stop offset="1" stop-color="#24FE41"/>
</linearGradient>
</defs>
</svg>
