<svg width="22" height="22" viewBox="0 0 22 22" fill="none" xmlns="http://www.w3.org/2000/svg">
<path d="M16 3V4V5V5.3125L10.3125 11H11V11.6875L16.6875 6H19V3H16ZM17 4H18V5H17V4ZM10 11.3125L5.3125 16H5H4H3V19H6V16.6875L10.6875 12H10V11.3125ZM4 17H5V18H4V17Z" fill="url(#paint0_linear_10_12697)"/>
<path d="M9 10V13H12V10H9ZM10 11H11V12H10V11Z" fill="url(#paint1_linear_10_12697)"/>
<defs>
<linearGradient id="paint0_linear_10_12697" x1="3" y1="11" x2="19" y2="11" gradientUnits="userSpaceOnUse">
<stop stop-color="#FDFC47"/>
<stop offset="1" stop-color="#24FE41"/>
</linearGradient>
<linearGradient id="paint1_linear_10_12697" x1="9" y1="11.5" x2="12" y2="11.5" gradientUnits="userSpaceOnUse">
<stop stop-color="#FDFC47"/>
<stop offset="1" stop-color="#24FE41"/>
</linearGradient>
</defs>
</svg>
