<svg width="22" height="22" viewBox="0 0 22 22" fill="none" xmlns="http://www.w3.org/2000/svg">
<path d="M14 3V5V6V8V9H15H17C18.108 9 19 8.108 19 7C19 6.1891 18.5187 5.49809 17.8281 5.18359C17.9341 4.97769 18 4.7483 18 4.5C18 3.669 17.331 3 16.5 3H15H14ZM15 4H16.5C16.777 4 17 4.223 17 4.5C17 4.777 16.777 5 16.5 5H15V4ZM8.2168 5L3 19H4.6875L6.35547 14.5703H11.918L13.4512 19H15.1406L10.2109 5H8.2168ZM15 6H16.5H17C17.554 6 18 6.446 18 7C18 7.554 17.554 8 17 8H15V6ZM9.23242 6.61133L11.3613 13.2852H6.87305L9.23242 6.61133Z" fill="url(#paint0_linear_10_12753)"/>
<defs>
<linearGradient id="paint0_linear_10_12753" x1="3" y1="11" x2="19" y2="11" gradientUnits="userSpaceOnUse">
<stop stop-color="#FDFC47"/>
<stop offset="1" stop-color="#24FE41"/>
</linearGradient>
</defs>
</svg>
