<svg width="22" height="22" viewBox="0 0 22 22" fill="none" xmlns="http://www.w3.org/2000/svg">
<path d="M12 7V15V19H13V17.6387C13.3747 18.0656 13.8361 18.4078 14.3533 18.6425C14.8706 18.8773 15.432 18.9991 16 19C17.0609 19 18.0783 18.5786 18.8284 17.8284C19.5786 17.0783 20 16.0609 20 15C20 13.9391 19.5786 12.9217 18.8284 12.1716C18.0783 11.4214 17.0609 11 16 11C15.432 11.0009 14.8706 11.1227 14.3533 11.3575C13.8361 11.5922 13.3747 11.9344 13 12.3613V7H12ZM6 11C4.93913 11 3.92172 11.4214 3.17157 12.1716C2.42143 12.9217 2 13.9391 2 15C2 16.0609 2.42143 17.0783 3.17157 17.8284C3.92172 18.5786 4.93913 19 6 19C6.56804 18.9991 7.12938 18.8773 7.64666 18.6425C8.16393 18.4078 8.62528 18.0656 9 17.6387V19H10V11H9V12.3613C8.62528 11.9344 8.16393 11.5922 7.64666 11.3575C7.12938 11.1227 6.56804 11.0009 6 11ZM6 12C6.79565 12 7.55871 12.3161 8.12132 12.8787C8.68393 13.4413 9 14.2044 9 15C9 15.7956 8.68393 16.5587 8.12132 17.1213C7.55871 17.6839 6.79565 18 6 18C5.20435 18 4.44129 17.6839 3.87868 17.1213C3.31607 16.5587 3 15.7956 3 15C3 14.2044 3.31607 13.4413 3.87868 12.8787C4.44129 12.3161 5.20435 12 6 12ZM16 12C16.7956 12 17.5587 12.3161 18.1213 12.8787C18.6839 13.4413 19 14.2044 19 15C19 15.7956 18.6839 16.5587 18.1213 17.1213C17.5587 17.6839 16.7956 18 16 18C15.2044 18 14.4413 17.6839 13.8787 17.1213C13.3161 16.5587 13 15.7956 13 15C13 14.2044 13.3161 13.4413 13.8787 12.8787C14.4413 12.3161 15.2044 12 16 12Z" fill="url(#paint0_linear_10_12746)"/>
<path d="M13 3L16 7L19 3H13Z" fill="url(#paint1_linear_10_12746)"/>
<defs>
<linearGradient id="paint0_linear_10_12746" x1="2" y1="13" x2="20" y2="13" gradientUnits="userSpaceOnUse">
<stop stop-color="#FDFC47"/>
<stop offset="1" stop-color="#24FE41"/>
</linearGradient>
<linearGradient id="paint1_linear_10_12746" x1="13" y1="5" x2="19" y2="5" gradientUnits="userSpaceOnUse">
<stop stop-color="#FDFC47"/>
<stop offset="1" stop-color="#24FE41"/>
</linearGradient>
</defs>
</svg>
