<svg width="22" height="22" viewBox="0 0 22 22" fill="none" xmlns="http://www.w3.org/2000/svg">
<path d="M5.03516 7L1 19H1.97461L3.41992 15H8.45312L9.89453 19H11L6.91016 7H5.03516ZM12 7V15V19H13V17.6387C13.3747 18.0656 13.8361 18.4078 14.3533 18.6425C14.8706 18.8773 15.432 18.9991 16 19C17.0609 19 18.0783 18.5786 18.8284 17.8284C19.5786 17.0783 20 16.0609 20 15C20 13.9391 19.5786 12.9217 18.8284 12.1716C18.0783 11.4214 17.0609 11 16 11C15.432 11.0009 14.8706 11.1227 14.3533 11.3575C13.8361 11.5922 13.3747 11.9344 13 12.3613V7H12ZM5.94336 8.0293L8.0918 14H3.7832L5.94336 8.0293ZM16 12C16.7956 12 17.5587 12.3161 18.1213 12.8787C18.6839 13.4413 19 14.2044 19 15C19 15.7956 18.6839 16.5587 18.1213 17.1213C17.5587 17.6839 16.7956 18 16 18C15.2044 18 14.4413 17.6839 13.8787 17.1213C13.3161 16.5587 13 15.7956 13 15C13 14.2044 13.3161 13.4413 13.8787 12.8787C14.4413 12.3161 15.2044 12 16 12Z" fill="url(#paint0_linear_10_12728)"/>
<path d="M3 6L6 2L9 6H3Z" fill="url(#paint1_linear_10_12728)"/>
<defs>
<linearGradient id="paint0_linear_10_12728" x1="1" y1="13" x2="20" y2="13" gradientUnits="userSpaceOnUse">
<stop stop-color="#FDFC47"/>
<stop offset="1" stop-color="#24FE41"/>
</linearGradient>
<linearGradient id="paint1_linear_10_12728" x1="3" y1="4" x2="9" y2="4" gradientUnits="userSpaceOnUse">
<stop stop-color="#FDFC47"/>
<stop offset="1" stop-color="#24FE41"/>
</linearGradient>
</defs>
</svg>
