<svg width="22" height="22" viewBox="0 0 22 22" fill="none" xmlns="http://www.w3.org/2000/svg">
<path d="M4 2V3H11V10H4V11H11V18H4V19H11H12H19H20V18V11V10V3V2H19H12H11H4ZM12 3H19V10H12V3ZM12 11H19V18H12V11Z" fill="url(#paint0_linear_10_12628)" fill-opacity="0.1"/>
<path d="M4 3V10H11V3H4ZM12 3V10H19V3H12ZM4 11V18H11V11H4ZM12 11V18H19V11H12Z" fill="url(#paint1_linear_10_12628)" fill-opacity="0.5"/>
<path d="M3 2V19H4V2H3Z" fill="url(#paint2_linear_10_12628)"/>
<defs>
<linearGradient id="paint0_linear_10_12628" x1="4" y1="10.5" x2="20" y2="10.5" gradientUnits="userSpaceOnUse">
<stop stop-color="#FDFC47"/>
<stop offset="1" stop-color="#24FE41"/>
</linearGradient>
<linearGradient id="paint1_linear_10_12628" x1="4" y1="10.5" x2="19" y2="10.5" gradientUnits="userSpaceOnUse">
<stop stop-color="#FDFC47"/>
<stop offset="1" stop-color="#24FE41"/>
</linearGradient>
<linearGradient id="paint2_linear_10_12628" x1="3" y1="10.5" x2="4" y2="10.5" gradientUnits="userSpaceOnUse">
<stop stop-color="#FDFC47"/>
<stop offset="1" stop-color="#24FE41"/>
</linearGradient>
</defs>
</svg>
