<svg width="22" height="22" viewBox="0 0 22 22" fill="none" xmlns="http://www.w3.org/2000/svg">
<path d="M3 2V3V10V11V18V19H4H11H12H19H20V18V2H3ZM4 3H11V10H4V3ZM12 3H19V10H12V3ZM4 11H11V18H4V11ZM12 11H19V18H12V11Z" fill="url(#paint0_linear_10_12632)" fill-opacity="0.1"/>
<path d="M4 3V10H11V3H4ZM12 3V10H19V3H12ZM4 11V18H11V11H4ZM12 11V18H19V11H12Z" fill="url(#paint1_linear_10_12632)" fill-opacity="0.5"/>
<defs>
<linearGradient id="paint0_linear_10_12632" x1="3" y1="10.5" x2="20" y2="10.5" gradientUnits="userSpaceOnUse">
<stop stop-color="#FDFC47"/>
<stop offset="1" stop-color="#24FE41"/>
</linearGradient>
<linearGradient id="paint1_linear_10_12632" x1="4" y1="10.5" x2="19" y2="10.5" gradientUnits="userSpaceOnUse">
<stop stop-color="#FDFC47"/>
<stop offset="1" stop-color="#24FE41"/>
</linearGradient>
</defs>
</svg>
