<svg width="22" height="22" viewBox="0 0 22 22" fill="none" xmlns="http://www.w3.org/2000/svg">
<path d="M8.2168 3L3 17H4.6875L6.35547 12.5703H11.918L12.0664 13H13.7324L10.2109 3H8.2168ZM9.23242 4.61133L11.3613 11.2852H6.87305L9.23242 4.61133ZM14 13V15V16V18V19H15H17C18.108 19 19 18.108 19 17C19 16.1891 18.5187 15.4981 17.8281 15.1836C17.9341 14.9777 18 14.7483 18 14.5C18 13.669 17.331 13 16.5 13H15H14ZM15 14H16.5C16.777 14 17 14.223 17 14.5C17 14.777 16.777 15 16.5 15H15V14ZM15 16H16.5H17C17.554 16 18 16.446 18 17C18 17.554 17.554 18 17 18H15V16Z" fill="url(#paint0_linear_10_12751)"/>
<defs>
<linearGradient id="paint0_linear_10_12751" x1="3" y1="11" x2="19" y2="11" gradientUnits="userSpaceOnUse">
<stop stop-color="#FDFC47"/>
<stop offset="1" stop-color="#24FE41"/>
</linearGradient>
</defs>
</svg>
