<svg width="22" height="22" viewBox="0 0 22 22" fill="none" xmlns="http://www.w3.org/2000/svg">
<path d="M11 3V3.00195C8.00044 3.00195 6.5 4.98814 6.5 7.40039C6.5 9.99975 9.41406 15 9.41406 15L12.5859 14.9961C12.5859 14.9961 15.5 9.99975 15.5 7.40039C15.5 4.98816 14.0004 3 11 3ZM11 4.00195C13.3337 4.00195 14.5 5.65771 14.5 7.66797C14.5 9.83417 12.2344 13.998 12.2344 13.998L9.76562 14.002C9.76562 14.002 7.5 9.83417 7.5 7.66797C7.5 5.65768 8.66702 4.00391 11 4.00391V4.00195ZM9 16V17.5C9 18.331 9.669 19 10.5 19H11.5C12.331 19 13 18.331 13 17.5V16H11.5H10.5H9Z" fill="url(#paint0_linear_10_12779)"/>
<defs>
<linearGradient id="paint0_linear_10_12779" x1="6.5" y1="11" x2="15.5" y2="11" gradientUnits="userSpaceOnUse">
<stop stop-color="#FDFC47"/>
<stop offset="1" stop-color="#24FE41"/>
</linearGradient>
</defs>
</svg>
