<svg width="22" height="22" viewBox="0 0 22 22" fill="none" xmlns="http://www.w3.org/2000/svg">
<path d="M11 2V10H3V11H11V19H12V11H20V10H12V2H11Z" fill="url(#paint0_linear_10_12821)" fill-opacity="0.1"/>
<path d="M4 3V10H11V3H4ZM12 3V10H19V3H12ZM4 11V18H11V11H4ZM12 11V18H19V11H12Z" fill="url(#paint1_linear_10_12821)" fill-opacity="0.5"/>
<path d="M3 2V19H20V2H4H3ZM5 4H18V17H5V4Z" fill="url(#paint2_linear_10_12821)"/>
<defs>
<linearGradient id="paint0_linear_10_12821" x1="3" y1="10.5" x2="20" y2="10.5" gradientUnits="userSpaceOnUse">
<stop stop-color="#FDFC47"/>
<stop offset="1" stop-color="#24FE41"/>
</linearGradient>
<linearGradient id="paint1_linear_10_12821" x1="4" y1="10.5" x2="19" y2="10.5" gradientUnits="userSpaceOnUse">
<stop stop-color="#FDFC47"/>
<stop offset="1" stop-color="#24FE41"/>
</linearGradient>
<linearGradient id="paint2_linear_10_12821" x1="3" y1="10.5" x2="20" y2="10.5" gradientUnits="userSpaceOnUse">
<stop stop-color="#FDFC47"/>
<stop offset="1" stop-color="#24FE41"/>
</linearGradient>
</defs>
</svg>
