<svg width="22" height="22" viewBox="0 0 22 22" fill="none" xmlns="http://www.w3.org/2000/svg">
<path d="M5 3L4 4V5.30469L9 12.3672V16.0391L12 18.2656V17.0195L10 15.5352V12H9.96484L5 4.98828V4H17V4.98828L12.0352 12H13.2598L18 5.30469V4L17 3H5ZM6 5L8 8V6L10 5H6Z" fill="url(#paint0_linear_10_12790)"/>
<path d="M13.9902 13L13 13.9902L15.0098 16L13 18.0098L13.9902 19L16 16.9902L18.0098 19L19 18.0098L16.9902 16L19 13.9902L18.0098 13L16 15.0098L13.9902 13Z" fill="url(#paint1_linear_10_12790)"/>
<defs>
<linearGradient id="paint0_linear_10_12790" x1="4" y1="10.6328" x2="18" y2="10.6328" gradientUnits="userSpaceOnUse">
<stop stop-color="#FDFC47"/>
<stop offset="1" stop-color="#24FE41"/>
</linearGradient>
<linearGradient id="paint1_linear_10_12790" x1="13" y1="13" x2="16.2165" y2="20.2371" gradientUnits="userSpaceOnUse">
<stop stop-color="#FF0500"/>
<stop offset="1" stop-color="#FD3632"/>
</linearGradient>
</defs>
</svg>
