<svg width="22" height="22" viewBox="0 0 22 22" fill="none" xmlns="http://www.w3.org/2000/svg">
<path d="M6.5 4C4.567 4 3 5.7909 3 8V14C3 16.2091 4.567 18 6.5 18C8.433 18 10 16.2091 10 14V8C10 5.7909 8.433 4 6.5 4ZM15.5 4C13.567 4 12 5.7909 12 8V14C12 16.2091 13.567 18 15.5 18C17.433 18 19 16.2091 19 14V8C19 5.7909 17.433 4 15.5 4ZM6.5 5C7.88071 5 9 6.3431 9 8V14C9 15.6569 7.88071 17 6.5 17C5.11929 17 4 15.6569 4 14V8C4 6.3431 5.11929 5 6.5 5ZM15.5 5C16.8807 5 18 6.3431 18 8V14C18 15.6569 16.8807 17 15.5 17C14.1193 17 13 15.6569 13 14V8C13 6.3431 14.1193 5 15.5 5ZM10 17V19H12V17H10Z" fill="url(#paint0_linear_10_12850)"/>
<defs>
<linearGradient id="paint0_linear_10_12850" x1="3" y1="11.5" x2="19" y2="11.5" gradientUnits="userSpaceOnUse">
<stop stop-color="#FDFC47"/>
<stop offset="1" stop-color="#24FE41"/>
</linearGradient>
</defs>
</svg>
