<svg width="22" height="22" viewBox="0 0 22 22" fill="none" xmlns="http://www.w3.org/2000/svg">
<path d="M10 2V4.13086C9.02283 4.27274 8.19069 4.52994 7.53711 4.93164C6.52656 5.54654 6.02148 6.48972 6.02148 7.76172C6.01693 9.95701 7.57896 10.6804 10 11.3457V16.3359C8.82728 16.2369 7.75511 16.0165 6.62305 15.5332L6 16.8887C6.56451 17.19 7.3273 17.4508 8.28906 17.6738C8.83334 17.7961 9.40028 17.8744 10 17.9277V20H11V17.9766C11.1701 17.9811 11.3144 18 11.4941 18C11.6577 17.9987 11.8302 17.9847 12 17.9766V20H13V17.8809C14.9967 17.596 16.98 16.6786 16.959 14.1934C16.889 12.3643 15.7559 11.6858 13 10.7168V5.76367C13.9033 5.88442 15.0021 6.13595 16.2246 6.74609L17 5.20312C16.4494 4.90762 15.1689 4.43672 14.3535 4.26172C13.92 4.16911 13.467 4.10611 13 4.0625V2H12V4.01367C11.9078 4.01191 11.8219 4 11.7285 4C11.4718 4 11.2407 4.02034 11 4.0332V2H10ZM11.4375 5.64844C11.5885 5.64927 11.7998 5.65789 12 5.66602V10.3672C11.8426 10.3145 11.7446 10.274 11.5781 10.2188C11.3994 10.1748 11.1932 10.1106 11 10.0586V5.66211C11.1459 5.65574 11.2916 5.64845 11.4375 5.64844ZM10 5.75977V9.75586C8.77301 9.32149 7.64296 8.66466 7.67578 7.56641C7.61623 6.5251 8.68023 5.97562 10 5.75977ZM11 11.6133C11.1839 11.6601 11.3298 11.7054 11.5215 11.7539C11.6825 11.7997 11.8389 11.8513 12 11.8984V16.3906C11.8505 16.3937 11.6886 16.4094 11.5488 16.4082C11.3574 16.4064 11.1842 16.3942 11 16.3887V11.6133ZM13 12.2109C14.2815 12.6595 15.3197 13.2463 15.2969 14.2754C15.258 15.6711 14.1653 16.1583 13 16.3242V12.2109Z" fill="url(#paint0_linear_10_12809)"/>
<defs>
<linearGradient id="paint0_linear_10_12809" x1="6" y1="11" x2="17" y2="11" gradientUnits="userSpaceOnUse">
<stop stop-color="#FDFC47"/>
<stop offset="1" stop-color="#24FE41"/>
</linearGradient>
</defs>
</svg>
