<svg width="22" height="22" viewBox="0 0 22 22" fill="none" xmlns="http://www.w3.org/2000/svg">
<path d="M6 3C4.34315 3 3 4.3431 3 6C3 7.6569 4.34315 9 6 9C7.30132 9 8.39699 8.1584 8.8125 7H11.2188C6.88581 9.4608 4 13.9142 4 19H6C6 12.6297 11.3012 7.4148 18 7H19V5H8.8125C8.39699 3.8416 7.30132 3 6 3ZM6 5C6.55229 5 7 5.4477 7 6C7 6.5523 6.55229 7 6 7C5.44772 7 5 6.5523 5 6C5 5.4477 5.44772 5 6 5Z" fill="url(#paint0_linear_10_12801)"/>
<path d="M17.5 7C17.1973 7.014 17.1016 7.02725 17.0312 7.03125C10.897 7.27685 6 12.3055 6 18.5C6 18.6672 6.02418 18.8345 6.03125 19H17.0312H18H19V7H17.5Z" fill="#B3B3B3"/>
<defs>
<linearGradient id="paint0_linear_10_12801" x1="3" y1="11" x2="19" y2="11" gradientUnits="userSpaceOnUse">
<stop stop-color="#FDFC47"/>
<stop offset="1" stop-color="#24FE41"/>
</linearGradient>
</defs>
</svg>
