<svg width="22" height="22" viewBox="0 0 22 22" fill="none" xmlns="http://www.w3.org/2000/svg">
<path d="M3 4V18H10V17H4V5H14V9H18V11H19V8L15 4H4H3ZM15 11C12.7909 11 11 12.7909 11 15C11 17.2091 12.7909 19 15 19C17.2091 19 19 17.2091 19 15C19 12.7909 17.2091 11 15 11ZM15 11.666C15.1151 11.666 15.2219 11.6762 15.334 11.6875H15.416C15.4511 11.6942 15.4868 11.7017 15.5215 11.707C15.6173 11.7224 15.6982 11.7481 15.791 11.7715C15.9621 11.8135 16.1315 11.87 16.291 11.9375C16.379 11.9748 16.4571 12.0181 16.541 12.0625C16.541 12.0692 16.5415 12.0747 16.541 12.082C16.5603 12.0907 16.5709 12.1285 16.6035 12.1465C16.6155 12.1532 16.6137 12.16 16.625 12.166C16.6443 12.1767 16.67 12.1884 16.666 12.207C16.6607 12.2337 16.6222 12.228 16.6035 12.248C16.6062 12.2867 16.5725 12.2865 16.5625 12.3125C16.5685 12.3292 16.6008 12.3342 16.6035 12.3535C16.6002 12.3748 16.5545 12.3732 16.5625 12.3945C16.5985 12.4225 16.632 12.4012 16.666 12.3945C16.7407 12.3852 16.8075 12.3882 16.8535 12.3535C16.8475 12.3182 16.92 12.323 16.916 12.291C16.9351 12.305 16.9596 12.318 16.9785 12.332C16.9713 12.3387 16.967 12.3482 16.959 12.3515C16.945 12.3582 16.9287 12.365 16.916 12.373C16.8973 12.385 16.8748 12.4007 16.8535 12.414C16.8382 12.4247 16.807 12.4765 16.791 12.4765C16.7717 12.4765 16.7425 12.453 16.7285 12.457C16.7085 12.4637 16.7101 12.4907 16.6875 12.498C16.6435 12.514 16.5563 12.4737 16.541 12.539C16.5597 12.577 16.6327 12.5594 16.666 12.5801C16.6867 12.5934 16.7232 12.6414 16.7285 12.664C16.7338 12.6827 16.7365 12.769 16.7285 12.789C16.7078 12.8424 16.6453 12.8307 16.584 12.8301H16.541C16.4377 12.8234 16.3377 12.7775 16.291 12.8515C16.2943 12.9082 16.3037 12.9467 16.291 12.9961C16.2817 13.0321 16.2265 13.0705 16.2285 13.1015C16.2292 13.1175 16.2675 13.1414 16.2715 13.164C16.2742 13.176 16.2662 13.1937 16.2715 13.2051C16.2888 13.2377 16.3228 13.1984 16.3535 13.2051C16.3828 13.2118 16.416 13.2544 16.416 13.2871C16.416 13.3104 16.4113 13.3484 16.3965 13.3711C16.3671 13.4151 16.3135 13.4096 16.2715 13.4336C16.2368 13.4536 16.2296 13.5047 16.209 13.5391C16.187 13.5764 16.1573 13.589 16.166 13.6426C16.136 13.7019 16.103 13.7389 16.041 13.7676C16.023 13.7756 15.9951 13.7751 15.9785 13.7871C15.9652 13.7964 15.9562 13.8302 15.9375 13.8515C15.9142 13.8775 15.8877 13.894 15.875 13.914C15.8657 13.9294 15.8634 13.9552 15.8535 13.9765C15.8388 14.0045 15.8096 14.011 15.791 14.039C15.7823 14.0524 15.7807 14.0842 15.7715 14.1015C15.7501 14.1402 15.7245 14.1711 15.7285 14.2051C15.7318 14.2371 15.7695 14.2382 15.7715 14.2676C15.7735 14.2836 15.7493 14.2912 15.75 14.3086C15.7507 14.3339 15.7695 14.353 15.7715 14.373C15.7762 14.4224 15.7378 14.4428 15.7285 14.4765C15.7238 14.4925 15.7325 14.5049 15.7285 14.5176C15.7205 14.5422 15.6882 14.5722 15.6875 14.6015C15.6868 14.6222 15.7265 14.6347 15.7285 14.664C15.7298 14.6834 15.705 14.7079 15.709 14.7265C15.7163 14.7625 15.7845 14.8021 15.8125 14.8301C15.8505 14.8681 15.8994 14.8953 15.916 14.9355C15.93 14.9695 15.933 15.0351 15.959 15.0605C15.9783 15.0792 16.0163 15.0822 16.041 15.1015C16.0643 15.1195 16.0789 15.1232 16.1035 15.1426C16.1442 15.1746 16.2068 15.2507 16.2715 15.2461C16.3055 15.2394 16.337 15.2111 16.375 15.2051C16.4143 15.1984 16.46 15.1802 16.5 15.1836C16.5307 15.1903 16.5715 15.2071 16.6035 15.2051C16.6368 15.1984 16.671 15.1976 16.709 15.1836C16.775 15.1549 16.8825 15.1074 16.9785 15.1211C17.0518 15.1317 17.0522 15.2134 17.1035 15.2461C17.1622 15.2528 17.2033 15.2347 17.25 15.2461C17.2853 15.2548 17.3306 15.3021 17.334 15.3301C17.3373 15.3587 17.295 15.396 17.291 15.414C17.2817 15.4527 17.2977 15.4929 17.291 15.5176C17.2857 15.5369 17.2708 15.5607 17.2715 15.5801C17.2715 15.5974 17.2945 15.6414 17.3125 15.664C17.3345 15.692 17.3698 15.7161 17.3965 15.7461C17.4451 15.8021 17.466 15.8596 17.5 15.9336C17.5087 15.9522 17.492 15.974 17.5 15.998C17.4853 16.1099 17.4483 16.1866 17.375 16.3105C17.3403 16.3505 17.2903 16.3856 17.291 16.4355C17.2883 16.5555 17.3589 16.632 17.3535 16.748C17.3415 16.9039 17.3655 16.9147 17.3535 16.998C17.4062 17.0247 17.3688 17.1086 17.3535 17.164C17.3308 17.23 17.3037 17.245 17.291 17.289C17.3264 17.3044 17.3767 17.2983 17.416 17.289C17.3961 17.3097 17.3738 17.3309 17.3535 17.3515C17.2027 17.5023 17.0308 17.6477 16.8535 17.7675C16.5095 17.9999 16.1281 18.1765 15.709 18.2675C15.4799 18.3175 15.2439 18.33 15 18.33C14.8731 18.33 14.7479 18.3245 14.625 18.3105C14.5271 18.2992 14.4291 18.2888 14.334 18.2695C14.1452 18.2308 13.9667 18.1511 13.791 18.082C13.785 18.0707 13.77 18.0524 13.7715 18.039C13.8061 18.0244 13.8711 18.0884 13.8965 18.039C13.9091 18.0157 13.8798 17.9588 13.8965 17.9355C13.9085 17.9195 13.9753 17.9206 14 17.916C14.0353 17.9093 14.0855 17.9038 14.1055 17.8945C14.1275 17.8805 14.1505 17.8319 14.1465 17.791C14.1445 17.7717 14.1207 17.7653 14.1055 17.748C14.0928 17.7333 14.1142 17.7203 14.1055 17.707C14.0895 17.6837 14.0496 17.6785 14.043 17.6445C14.091 17.6352 14.1611 17.6853 14.2305 17.666C14.2631 17.6567 14.3186 17.5932 14.334 17.5625C14.3387 17.5532 14.3287 17.5315 14.334 17.5195C14.34 17.5075 14.3535 17.4845 14.3555 17.4785C14.3602 17.4605 14.3515 17.471 14.3555 17.4589C14.3675 17.4249 14.396 17.399 14.416 17.375C14.4313 17.3563 14.4645 17.3318 14.4785 17.3125C14.4945 17.2918 14.4894 17.2901 14.5 17.2714C14.51 17.2108 14.4638 17.1567 14.4785 17.1035C14.4945 17.0435 14.5885 17.0058 14.6465 16.9785C14.6665 16.9692 14.6924 16.9649 14.709 16.9589C14.749 16.9449 14.7967 16.9306 14.834 16.9179C14.8967 16.8953 14.9068 16.8502 14.9375 16.7929C14.9522 16.7663 14.9759 16.7283 14.9785 16.7089C14.9812 16.6916 14.9752 16.6879 14.9785 16.6679C14.9818 16.6486 14.9732 16.6281 14.9785 16.6054C14.9858 16.5768 15 16.5124 15 16.4804C15 16.4538 14.9791 16.4419 14.9785 16.4179C14.9738 16.3313 15.0091 16.3403 15.041 16.2929C15.057 16.2696 15.0727 16.2256 15.084 16.2089C15.138 16.1289 15.2352 16.1018 15.2285 15.9804C15.2258 15.9404 15.1953 15.8466 15.166 15.8339C15.1494 15.8266 15.1281 15.8211 15.1035 15.8125C15.0249 15.7831 14.957 15.6941 14.875 15.6875H14.834C14.802 15.6875 14.7645 15.6726 14.7285 15.6679C14.7058 15.6612 14.6598 15.6746 14.6465 15.6679C14.6258 15.6579 14.6202 15.6168 14.6035 15.6054C14.5902 15.5961 14.5616 15.5913 14.541 15.5839C14.5083 15.5719 14.497 15.5449 14.459 15.5429C14.447 15.5429 14.4294 15.5496 14.416 15.5429C14.3953 15.5362 14.3747 15.5334 14.3555 15.5214C14.3315 15.5068 14.3029 15.5011 14.293 15.4804C14.315 15.4085 14.2451 15.3974 14.2305 15.3554C14.2238 15.3361 14.2372 15.2907 14.2305 15.2734C14.2218 15.2487 14.1952 15.2296 14.168 15.209C14.12 15.1716 14.0901 15.1551 14.0215 15.1465C13.9908 15.1398 13.9546 15.1532 13.918 15.1465C13.8793 15.1398 13.8223 15.1173 13.793 15.084C13.765 15.0513 13.7551 15.0173 13.7305 15.0019C13.7071 14.9873 13.684 14.9736 13.668 14.959C13.6607 14.9523 13.6531 14.9535 13.6465 14.9394C13.6345 14.9148 13.6103 14.9069 13.625 14.8769C13.5983 14.8636 13.6126 14.9011 13.584 14.8965C13.558 14.8598 13.5391 14.8234 13.4805 14.834C13.4538 14.8407 13.4278 14.8958 13.3965 14.8965C13.3705 14.8965 13.3465 14.8393 13.3125 14.834C13.2865 14.8273 13.2485 14.8588 13.2305 14.8554C13.2018 14.8487 13.1939 14.8318 13.168 14.8144C13.1486 14.8018 13.1161 14.7727 13.1055 14.7734C13.0721 14.7734 13.046 14.8391 13 14.8144C12.9773 14.7858 13.0482 14.7786 13.0215 14.7519C13.0015 14.7326 12.9965 14.7621 12.9805 14.7715C12.9618 14.7835 12.9386 14.7856 12.918 14.7929C12.872 14.8103 12.829 14.8153 12.793 14.834C12.7596 14.8513 12.7497 14.8625 12.7305 14.8965C12.7151 14.9245 12.6912 14.9791 12.668 14.9804C12.64 14.9804 12.6308 14.9508 12.6055 14.9394C12.5288 14.9061 12.4813 14.9576 12.418 14.959C12.3593 14.959 12.2688 14.8678 12.2715 14.8125C12.2735 14.7785 12.289 14.7295 12.293 14.6875C12.2963 14.6541 12.3334 14.6143 12.334 14.584C12.3346 14.5426 12.2571 14.5261 12.2305 14.5215C12.1678 14.5101 12.0928 14.5495 12.0215 14.5215C12.0081 14.4988 12.035 14.4816 12.043 14.459C12.0477 14.447 12.0383 14.4313 12.043 14.4179C12.051 14.3966 12.0955 14.3781 12.1055 14.3554C12.1128 14.3381 12.0982 14.3149 12.1055 14.2929C12.1142 14.2689 12.1445 14.2478 12.1465 14.2304C12.1492 14.2078 12.1234 14.1807 12.1055 14.166C12.0501 14.1727 12.0125 14.1735 11.9805 14.1875C11.9085 14.2201 11.9281 14.3113 11.8555 14.334C11.8308 14.342 11.7995 14.3488 11.7715 14.3535C11.7593 14.3602 11.7441 14.3535 11.7305 14.3535C11.7318 14.3468 11.7292 14.3406 11.7305 14.334C11.7338 14.3186 11.7467 14.3076 11.75 14.2929C11.7975 14.0763 11.8716 13.8665 11.959 13.6679H11.9805C12.0058 13.6746 12.021 13.7076 12.043 13.709C12.1043 13.7157 12.1173 13.6516 12.168 13.625C12.22 13.6323 12.2456 13.6183 12.293 13.625C12.325 13.6317 12.3712 13.6633 12.3965 13.666C12.4178 13.666 12.4175 13.6438 12.4375 13.6465C12.4575 13.6532 12.4967 13.685 12.5 13.709C12.5033 13.739 12.4717 13.7794 12.4805 13.8125C12.5118 13.8445 12.5803 13.8563 12.625 13.875C12.6543 13.8503 12.6297 13.8061 12.625 13.7715C12.6243 13.7561 12.627 13.723 12.625 13.709C12.6217 13.685 12.6055 13.6671 12.6055 13.6465C12.6055 13.5511 12.686 13.5158 12.75 13.4785C12.7773 13.4625 12.81 13.428 12.834 13.416C12.868 13.3993 12.89 13.4105 12.918 13.3965C12.9687 13.3678 13.0037 13.3235 13.043 13.291C13.061 13.2477 13.041 13.1891 13.043 13.1465C13.061 13.1351 13.0862 13.1465 13.1055 13.1465C13.1362 13.1398 13.1507 13.1013 13.168 13.084C13.178 13.074 13.197 13.0725 13.209 13.0625C13.2397 13.0385 13.2448 13.0107 13.2715 13C13.2808 12.9933 13.2978 12.9832 13.3125 12.9785C13.3325 12.9718 13.3645 12.971 13.3965 12.959C13.4172 12.9517 13.4725 12.9462 13.4805 12.9375C13.4905 12.9275 13.4778 12.8903 13.4805 12.875C13.4965 12.7997 13.6007 12.7969 13.668 12.7715C13.7147 12.7542 13.7605 12.6998 13.8125 12.709C13.8025 12.745 13.7628 12.7477 13.7715 12.791C13.7828 12.8517 13.8537 12.7801 13.875 12.7715C13.9157 12.7542 13.9896 12.729 14.043 12.709C14.0896 12.6923 14.169 12.679 14.125 12.625C14.0883 12.6183 14.075 12.6534 14.043 12.666C14.021 12.6727 14.0187 12.6485 14 12.6465C13.982 12.6465 13.977 12.6694 13.959 12.666C13.941 12.6593 13.9206 12.6255 13.918 12.6035C13.9107 12.5475 13.9579 12.5415 13.9805 12.5C13.9651 12.4493 13.8981 12.4783 13.8555 12.459C13.8602 12.429 13.8827 12.4012 13.918 12.3945C13.9466 12.3878 14.0256 12.402 14.043 12.416C14.053 12.4247 14.0277 12.4437 14.043 12.457C14.0603 12.4724 14.0829 12.4637 14.1055 12.457C14.1135 12.419 14.0558 12.4407 14.0625 12.416C14.1078 12.3867 14.1947 12.4019 14.25 12.3945C14.282 12.3878 14.3268 12.3689 14.3555 12.3535C14.3821 12.3382 14.39 12.3087 14.418 12.334C14.426 12.3613 14.412 12.3818 14.3965 12.3965C14.3452 12.4418 14.29 12.4884 14.25 12.541C14.2747 12.565 14.3141 12.5578 14.3555 12.5625C14.3715 12.5692 14.4014 12.5625 14.418 12.5625C14.438 12.5692 14.4625 12.5558 14.4785 12.5625C14.5065 12.5692 14.5131 12.625 14.541 12.625C14.5864 12.625 14.567 12.571 14.541 12.541C14.549 12.5097 14.5739 12.481 14.5625 12.459C14.5418 12.4177 14.463 12.4713 14.459 12.418C14.4563 12.3847 14.488 12.3808 14.5 12.3555C14.4947 12.2915 14.5477 12.2885 14.541 12.2305C14.5377 12.2065 14.5167 12.2102 14.5 12.1875C14.4913 12.1755 14.4885 12.1343 14.4785 12.125C14.4439 12.0957 14.379 12.1185 14.375 12.0625C14.373 12.0292 14.3797 11.9947 14.375 11.959C14.3703 11.925 14.3418 11.8192 14.3125 11.8125C14.2752 11.8045 14.2537 11.8758 14.209 11.8965C14.185 11.9078 14.1282 11.92 14.1035 11.916C14.0875 11.9093 14.0645 11.9063 14.0625 11.875C14.0598 11.847 14.0931 11.8345 14.1035 11.8125C14.1062 11.8058 14.1022 11.8003 14.1035 11.793C14.1519 11.7796 14.2008 11.7613 14.25 11.75C14.2779 11.7433 14.3058 11.7358 14.334 11.7305C14.3539 11.7238 14.3765 11.7372 14.3965 11.7305C14.4855 11.7138 14.5747 11.6981 14.666 11.6895C14.7768 11.6781 14.8859 11.668 15 11.668L15 11.666ZM13.6465 11.9785C13.6253 12.1002 13.5107 12.15 13.375 12.1465C13.3443 12.1758 13.3703 12.2308 13.3535 12.2715C13.3395 12.3055 13.284 12.3367 13.25 12.334C13.2253 12.334 13.1875 12.2948 13.1875 12.2715C13.1875 12.2428 13.2337 12.2417 13.209 12.209C13.2103 12.2023 13.2216 12.1942 13.2285 12.1875C13.242 12.1788 13.2579 12.174 13.2715 12.166C13.3923 12.0917 13.5161 12.0372 13.6465 11.9785ZM16.4375 12.1035C16.4252 12.1102 16.4268 12.1183 16.416 12.125C16.3907 12.1403 16.3728 12.1593 16.3535 12.166C16.3262 12.176 16.2949 12.1824 16.291 12.207C16.2877 12.2277 16.3132 12.2294 16.3125 12.248C16.3025 12.2727 16.2963 12.2825 16.291 12.3125C16.325 12.3678 16.3955 12.2997 16.4375 12.291C16.4562 12.2843 16.4685 12.2835 16.4785 12.2695C16.4899 12.2515 16.4914 12.2324 16.5 12.207C16.5093 12.179 16.5444 12.1692 16.541 12.1445C16.5383 12.1199 16.4788 12.1002 16.4375 12.1035ZM12.791 12.5215C12.8226 12.5468 12.8677 12.6013 12.8125 12.625C12.8058 12.6317 12.725 12.6491 12.709 12.6465C12.7023 12.6465 12.6931 12.6297 12.6875 12.625C12.722 12.5917 12.7552 12.5535 12.791 12.5215ZM12.916 12.6465C12.932 12.6465 12.9403 12.6868 12.959 12.6875C12.977 12.6875 12.9893 12.6634 13 12.666C13.028 12.6733 13.0482 12.7293 13.0215 12.75C12.9995 12.7567 12.9945 12.7259 12.9785 12.7285C12.9332 12.7365 12.909 12.8367 12.875 12.834C12.843 12.8273 12.8208 12.7519 12.8535 12.7285C12.8542 12.7085 12.8522 12.7082 12.8535 12.6875C12.8635 12.6755 12.8893 12.6445 12.916 12.6465ZM12.75 12.666C12.7593 12.666 12.7682 12.6593 12.7715 12.666C12.7668 12.7013 12.7558 12.7118 12.7285 12.7285C12.6812 12.7572 12.6403 12.7925 12.625 12.8535C12.6203 12.8715 12.5637 12.9203 12.541 12.916C12.4883 12.9047 12.572 12.8063 12.584 12.791C12.5973 12.7743 12.6097 12.7687 12.625 12.75C12.6403 12.7313 12.6514 12.6982 12.666 12.6875C12.682 12.6762 12.722 12.6666 12.75 12.668L12.75 12.666ZM17.2715 12.7715C17.3242 12.7648 17.351 12.8215 17.375 12.8535C17.395 12.8795 17.4458 12.9195 17.4785 12.9375C17.4972 12.9475 17.5203 12.9698 17.541 12.9785C17.5843 12.9978 17.664 13.0608 17.666 13.1035C17.6667 13.1248 17.6431 13.146 17.6465 13.166C17.6792 13.1727 17.7083 13.1166 17.709 13.084C17.7703 13.1707 17.8221 13.2611 17.875 13.3535C17.9 13.3968 17.9359 13.4335 17.959 13.4785C17.9296 13.4872 17.9207 13.4915 17.916 13.5195C17.9093 13.5569 17.931 13.6184 17.875 13.625C17.8397 13.6317 17.7987 13.5953 17.75 13.584C17.73 13.5773 17.7035 13.5907 17.6875 13.584C17.6508 13.572 17.6563 13.522 17.625 13.5C17.607 13.4873 17.5501 13.4616 17.5215 13.459C17.5035 13.459 17.4972 13.4657 17.4785 13.459C17.4558 13.4523 17.4151 13.4683 17.3965 13.459C17.3785 13.4476 17.3386 13.4118 17.334 13.3965C17.3267 13.3718 17.3951 13.3553 17.3965 13.334C17.3978 13.318 17.3783 13.2942 17.375 13.2695C17.3723 13.2549 17.3783 13.2385 17.375 13.2285C17.3703 13.2112 17.3398 13.2096 17.3125 13.209H17.0625C17.0045 13.2157 16.9613 13.2023 16.916 13.209C16.8833 13.209 16.8217 13.2367 16.791 13.25C16.7757 13.2573 16.77 13.2595 16.75 13.2695C16.7407 13.2762 16.721 13.2857 16.709 13.291C16.6903 13.2997 16.6644 13.3267 16.6465 13.332C16.6205 13.3387 16.5883 13.3253 16.541 13.332C16.507 13.332 16.4596 13.3102 16.459 13.2695C16.4583 13.2075 16.5663 13.2399 16.625 13.2285C16.647 13.2218 16.6608 13.2035 16.6875 13.1875C16.7002 13.1802 16.6971 13.174 16.709 13.166C16.729 13.152 16.7682 13.1195 16.7715 13.1035C16.7742 13.0889 16.7695 13.0738 16.7715 13.0625C16.7742 13.0485 16.7945 13.0402 16.8125 13.0215C16.8405 12.9935 16.8618 12.9555 16.8965 12.9375C16.9198 12.9255 16.9483 12.9152 16.959 12.8965C16.9617 12.8752 16.9583 12.8755 16.959 12.8555C16.9736 12.8421 16.988 12.8367 17 12.834C17.036 12.826 17.0615 12.834 17.1035 12.834C17.1215 12.834 17.1467 12.8427 17.166 12.834C17.182 12.8233 17.193 12.8003 17.209 12.793C17.2263 12.7837 17.2502 12.7728 17.2715 12.7715ZM17.6465 13.166L17.5625 13.166C17.5332 13.166 17.4958 13.1507 17.4785 13.166C17.5032 13.206 17.5482 13.2185 17.6035 13.2285C17.6235 13.2138 17.6372 13.192 17.6465 13.166ZM13.084 12.791H13.1465C13.1632 12.791 13.1808 12.7843 13.1875 12.791C13.1768 12.835 13.0757 12.8285 13.041 12.8125C13.043 12.7958 13.0626 12.7937 13.084 12.791ZM12.9375 12.875C12.9084 12.8963 12.8802 12.9228 12.834 12.9375C12.8087 12.9455 12.7762 12.944 12.7715 12.916C12.7662 12.8814 12.8113 12.8998 12.834 12.8965C12.8633 12.8898 12.9035 12.8763 12.9375 12.875ZM17.2715 12.875C17.2495 12.8823 17.2388 12.9308 17.2715 12.9375C17.2868 12.9282 17.2951 12.9037 17.291 12.875C17.2823 12.8657 17.2781 12.8683 17.2715 12.875ZM17.2285 12.9785C17.2292 13.0158 17.2358 13.0516 17.2285 13.084C17.2498 13.1253 17.3018 13.0905 17.3125 13.0625C17.3252 12.9932 17.3035 12.9699 17.2715 12.9785C17.2608 12.9852 17.2398 12.9698 17.2285 12.9785ZM11.709 14.541C11.7466 14.575 11.7675 14.6242 11.8125 14.6465C11.8292 14.6552 11.8537 14.6607 11.875 14.666C11.8923 14.6727 11.8993 14.6593 11.916 14.666C11.9513 14.678 11.9935 14.6944 12.0215 14.707C12.0642 14.7257 12.1098 14.7912 12.1465 14.8125C12.1485 14.8338 12.1398 14.859 12.1465 14.875C12.1638 14.8983 12.181 14.9215 12.209 14.9375C12.243 14.9562 12.259 14.9853 12.291 15C12.3023 15.0067 12.3166 14.9933 12.334 15C12.378 15.0133 12.3995 15.0736 12.4375 15.0625C12.4622 15.0552 12.4551 15.024 12.459 15C12.4757 14.982 12.4955 14.959 12.5215 14.959C12.5628 14.959 12.5687 15.0223 12.584 15.0625C12.5927 15.0852 12.619 15.101 12.625 15.125C12.635 15.1663 12.6337 15.2878 12.625 15.3125C12.6143 15.3432 12.5664 15.341 12.541 15.375C12.529 15.391 12.5308 15.4262 12.5215 15.4375C12.5055 15.4568 12.4905 15.4625 12.4785 15.4805C12.4718 15.4905 12.4649 15.5081 12.459 15.5215C12.439 15.5641 12.3994 15.5951 12.416 15.6465C12.4227 15.6671 12.459 15.6843 12.459 15.709C12.459 15.7383 12.4012 15.761 12.3965 15.793C12.3932 15.8163 12.4088 15.8437 12.416 15.875C12.4213 15.8983 12.4645 15.9222 12.4785 15.9375C12.5019 15.9635 12.5198 16.01 12.541 16.043C12.583 16.1076 12.6052 16.1867 12.6465 16.25C12.6685 16.2827 12.7139 16.2993 12.7285 16.334C12.7358 16.3513 12.7218 16.3805 12.7285 16.3965C12.7525 16.4505 12.862 16.5164 12.916 16.543C12.9414 16.5556 12.9767 16.5492 13 16.5625C13.0353 16.5825 13.107 16.6369 13.125 16.668C13.141 16.696 13.1385 16.7679 13.1465 16.8125C13.1565 16.8712 13.1438 16.9171 13.1465 16.9805C13.1485 17.0151 13.166 17.0278 13.166 17.0625C13.166 17.0745 13.1667 17.1123 13.166 17.125C13.1653 17.1663 13.1693 17.208 13.166 17.25C13.164 17.2727 13.1647 17.2932 13.166 17.3125C13.168 17.3332 13.1862 17.3375 13.1875 17.3555C13.1888 17.3748 13.1639 17.4026 13.166 17.418C13.1707 17.46 13.201 17.4826 13.209 17.5215C13.2157 17.5521 13.2325 17.6313 13.2285 17.668C13.2258 17.6873 13.2116 17.7085 13.209 17.7305C13.207 17.7478 13.2117 17.7561 13.209 17.7715C13.207 17.7868 13.213 17.7998 13.209 17.8125C13.1877 17.7992 13.1673 17.7855 13.1465 17.7715C12.9691 17.6516 12.7973 17.5063 12.6465 17.3555C12.6261 17.3348 12.6038 17.3123 12.584 17.291C12.4636 17.1643 12.3494 17.0195 12.25 16.875C12.241 16.8617 12.2373 16.8467 12.2285 16.834C12.1132 16.6611 12.0194 16.4866 11.9375 16.293C11.9315 16.279 11.9217 16.264 11.916 16.25C11.8458 16.0773 11.7907 15.8946 11.75 15.709C11.7423 15.6736 11.7351 15.6409 11.7285 15.6055C11.712 15.5164 11.6968 15.4254 11.6875 15.334C11.6761 15.221 11.666 15.1151 11.666 15C11.666 14.8416 11.6876 14.6935 11.709 14.541Z" fill="url(#paint0_linear_10_12860)"/>
<defs>
<linearGradient id="paint0_linear_10_12860" x1="3" y1="11.5" x2="19" y2="11.5" gradientUnits="userSpaceOnUse">
<stop stop-color="#FDFC47"/>
<stop offset="1" stop-color="#24FE41"/>
</linearGradient>
</defs>
</svg>
