<svg width="22" height="22" viewBox="0 0 22 22" fill="none" xmlns="http://www.w3.org/2000/svg">
<path d="M11 3H14L18 7V11H17V8H13V4H11V3ZM5 11V18H11V19H4V11H5Z" fill="url(#paint0_linear_10_12886)"/>
<path d="M13 12V13H12V14H13V17H12V18H13V19H14V18H17V19H18V18H19V17H18V14H19V13H18V12H17V13H14V12H13ZM14 14H17V17H14V14Z" fill="url(#paint1_linear_10_12886)"/>
<path d="M4 3V4H3V5H4V8H3V9H4V10H5V9H8V10H9V9H10V8H9V5H10V4H9V3H8V4H5V3H4ZM5 5H8V8H5V5Z" fill="url(#paint2_linear_10_12886)"/>
<defs>
<linearGradient id="paint0_linear_10_12886" x1="4" y1="11" x2="18" y2="11" gradientUnits="userSpaceOnUse">
<stop stop-color="#FDFC47"/>
<stop offset="1" stop-color="#24FE41"/>
</linearGradient>
<linearGradient id="paint1_linear_10_12886" x1="12" y1="15.5" x2="19" y2="15.5" gradientUnits="userSpaceOnUse">
<stop stop-color="#FDFC47"/>
<stop offset="1" stop-color="#24FE41"/>
</linearGradient>
<linearGradient id="paint2_linear_10_12886" x1="3" y1="6.5" x2="10" y2="6.5" gradientUnits="userSpaceOnUse">
<stop stop-color="#FDFC47"/>
<stop offset="1" stop-color="#24FE41"/>
</linearGradient>
</defs>
</svg>
