<svg width="22" height="22" viewBox="0 0 22 22" fill="none" xmlns="http://www.w3.org/2000/svg">
<path d="M2 3V19H16L20 11L16 3H2ZM7.42773 7V7.5918C6.71703 7.5918 6.70703 7.83096 6.70703 8.69727V9.71484C6.70703 10.1303 6.58341 10.7476 5.98438 11.0039C6.58341 11.2603 6.70703 11.8795 6.70703 12.2949V13.3027C6.70703 14.169 6.71701 14.4082 7.42773 14.4082V15C6.36164 15 5.91406 14.6478 5.91406 13.7461V12.5234C5.91406 11.9665 5.89358 11.3223 5.30469 11.3223H5V10.6777H5.30469C5.89356 10.6777 5.91406 10.0335 5.91406 9.47656V8.25391C5.91406 7.35225 6.36164 7 7.42773 7ZM10.5645 7C11.6306 7 12.0859 7.35225 12.0859 8.25391V9.47656C12.0859 10.0335 12.1263 10.6777 12.7051 10.6777H13V11.3223H12.7051C12.1263 11.3223 12.0859 11.9665 12.0859 12.5234V13.7461C12.0859 14.6478 11.6306 15 10.5645 15V14.4082C11.2753 14.4082 11.293 14.169 11.293 13.3027V12.2949C11.293 11.8795 11.4166 11.2603 12.0156 11.0039C11.4166 10.7476 11.293 10.1303 11.293 9.71484V8.69727C11.293 7.83096 11.2752 7.5918 10.5645 7.5918V7Z" fill="url(#paint0_linear_10_12914)"/>
<defs>
<linearGradient id="paint0_linear_10_12914" x1="2" y1="11" x2="20" y2="11" gradientUnits="userSpaceOnUse">
<stop stop-color="#FDFC47"/>
<stop offset="1" stop-color="#24FE41"/>
</linearGradient>
</defs>
</svg>
