<svg width="22" height="22" viewBox="0 0 22 22" fill="none" xmlns="http://www.w3.org/2000/svg">
<path d="M20 3V19H6L2 11L6 3H20ZM14.5723 7V7.5918C15.283 7.5918 15.293 7.83096 15.293 8.69727V9.71484C15.293 10.1303 15.4166 10.7476 16.0156 11.0039C15.4166 11.2603 15.293 11.8795 15.293 12.2949V13.3027C15.293 14.169 15.292 14.4082 14.5723 14.4082V15C15.6384 15 16.0859 14.6478 16.0859 13.7461V12.5234C16.0859 11.9665 16.1064 11.3223 16.6953 11.3223H17V10.6777H16.6953C16.1064 10.6777 16.0859 10.0335 16.0859 9.47656V8.25391C16.0859 7.35225 15.6384 7 14.5723 7ZM11.4355 7C10.3694 7 9.91406 7.35225 9.91406 8.25391V9.47656C9.91407 10.0335 9.87366 10.6777 9.29492 10.6777H9V11.3223H9.29492C9.87366 11.3223 9.91406 11.9665 9.91406 12.5234V13.7461C9.91407 14.6478 10.3694 15 11.4355 15V14.4082C10.7247 14.4082 10.707 14.169 10.707 13.3027V12.2949C10.707 11.8795 10.5834 11.2603 9.98438 11.0039C10.5834 10.7476 10.707 10.1303 10.707 9.71484V8.69727C10.707 7.83096 10.7248 7.5918 11.4355 7.5918V7Z" fill="url(#paint0_linear_10_12925)"/>
<defs>
<linearGradient id="paint0_linear_10_12925" x1="2" y1="11" x2="20" y2="11" gradientUnits="userSpaceOnUse">
<stop stop-color="#FDFC47"/>
<stop offset="1" stop-color="#24FE41"/>
</linearGradient>
</defs>
</svg>
