<svg width="22" height="22" viewBox="0 0 22 22" fill="none" xmlns="http://www.w3.org/2000/svg">
<path d="M16.5 11C15.5717 11 14.6815 11.3687 14.0251 12.0251C13.3687 12.6815 13 13.5717 13 14.5C13 15.4283 13.3687 16.3185 14.0251 16.9749C14.6815 17.6313 15.5717 18 16.5 18C17.4283 18 18.3185 17.6313 18.9749 16.9749C19.6313 16.3185 20 15.4283 20 14.5C20 13.5717 19.6313 12.6815 18.9749 12.0251C18.3185 11.3687 17.4283 11 16.5 11ZM16.5 12.0859L19 14.5859L18.293 15.2929L17 13.9999V16.9999H16V13.9999L14.707 15.2929L13.9999 14.5859L16.5 12.0859Z" fill="url(#paint0_linear_10_12922)"/>
<path d="M4 3C2.892 3 2 3.892 2 5V16C2 17.108 2.892 18 4 18H12V17H4C3.446 17 3 16.554 3 16V8H19V10H20V6C20 4.892 19.108 4 18 4H8.3711C7.79125 3.9771 7.7664 4.07688 7.332 3.64258C6.89819 3.20877 6.719 3.00045 6 3H4ZM4 4H6C6.31116 4 6.52033 4.00014 6.99805 4.4707C7.47682 4.94231 7.63685 5 7.99805 5H18C18.554 5 19 5.446 19 6V7H3.00005V5C3.00005 4.446 3.446 4 4 4Z" fill="url(#paint1_linear_10_12922)"/>
<defs>
<linearGradient id="paint0_linear_10_12922" x1="13" y1="14.5" x2="20" y2="14.5" gradientUnits="userSpaceOnUse">
<stop stop-color="#FDFC47"/>
<stop offset="1" stop-color="#24FE41"/>
</linearGradient>
<linearGradient id="paint1_linear_10_12922" x1="2" y1="10.5" x2="20" y2="10.5" gradientUnits="userSpaceOnUse">
<stop stop-color="#FDFC47"/>
<stop offset="1" stop-color="#24FE41"/>
</linearGradient>
</defs>
</svg>
