<svg width="22" height="22" viewBox="0 0 22 22" fill="none" xmlns="http://www.w3.org/2000/svg">
<path d="M10.959 3.13281L9.08398 5.00781L7.9082 6.18359L8.61523 6.89062L9.79102 5.71484L10.959 4.54688L12.127 5.71484L13.3027 6.89062L14.0098 6.18359L12.834 5.00781L10.959 3.13281ZM5.95898 9.01172V10.0117H15.959V9.01172H5.95898ZM5.95898 12.0117V13.0117H15.959V12.0117H5.95898ZM8.61523 15.1328L7.9082 15.8398L9.08398 17.0156L10.959 18.8906L12.834 17.0156L14.0098 15.8398L13.3027 15.1328L12.127 16.3086L10.959 17.4766L9.79102 16.3086L8.61523 15.1328Z" fill="url(#paint0_linear_10_12948)"/>
<defs>
<linearGradient id="paint0_linear_10_12948" x1="5.95898" y1="11.0117" x2="15.959" y2="11.0117" gradientUnits="userSpaceOnUse">
<stop stop-color="#FDFC47"/>
<stop offset="1" stop-color="#24FE41"/>
</linearGradient>
</defs>
</svg>
