<svg width="22" height="22" viewBox="0 0 22 22" fill="none" xmlns="http://www.w3.org/2000/svg">
<path d="M10 3V5.08984C9.08676 5.24213 8.24596 5.59586 7.52344 6.10938L6.05078 4.63672L4.63672 6.05078L6.10938 7.52344C5.59586 8.24596 5.24213 9.08676 5.08984 10H3V12H5.08984C5.24213 12.9132 5.59586 13.754 6.10938 14.4766L4.63672 15.9492L6.05078 17.3633L7.52344 15.8906C8.24596 16.4041 9.08676 16.7579 10 16.9102V19H12V16.9102C12.9132 16.7579 13.754 16.4041 14.4766 15.8906L15.9492 17.3633L17.3633 15.9492L15.8906 14.4766C16.4041 13.754 16.7579 12.9132 16.9102 12H19V10H16.9102C16.7579 9.08676 16.4041 8.24596 15.8906 7.52344L17.3633 6.05078L15.9492 4.63672L14.4766 6.10938C13.754 5.59586 12.9132 5.24213 12 5.08984V3H10ZM11 6C12.364 6 13.5938 6.54422 14.4941 7.42383L14.5762 7.50586C15.4558 8.40619 16 9.63604 16 11C16 12.364 15.4558 13.5938 14.5762 14.4941L14.4941 14.5762C13.5938 15.4558 12.364 16 11 16C9.63604 16 8.40619 15.4558 7.50586 14.5762L7.42383 14.4941C6.54422 13.5938 6 12.364 6 11C6 9.63604 6.54422 8.40619 7.42383 7.50586L7.50586 7.42383C8.40619 6.54422 9.63604 6 11 6ZM9 9C8.446 9 8 9.446 8 10C8 10.554 8.446 11 9 11C9.554 11 10 10.554 10 10C10 9.446 9.554 9 9 9ZM13 9C12.446 9 12 9.446 12 10C12 10.554 12.446 11 13 11C13.554 11 14 10.554 14 10C14 9.446 13.554 9 13 9ZM8.0918 11.7266L7.125 11.9688C7.34086 12.8335 7.83935 13.6014 8.54137 14.1506C9.24339 14.6997 10.1087 14.9987 11 15C11.8916 14.9991 12.7574 14.7004 13.4598 14.1512C14.1622 13.602 14.661 12.8338 14.877 11.9688L13.9062 11.7266C13.7444 12.3751 13.3705 12.9511 12.844 13.3629C12.3175 13.7748 11.6685 13.999 11 14C10.3312 13.9994 9.68176 13.7754 9.15485 13.3635C8.62793 12.9516 8.25377 12.3755 8.0918 11.7266Z" fill="url(#paint0_linear_10_12972)"/>
<defs>
<linearGradient id="paint0_linear_10_12972" x1="3" y1="11" x2="19" y2="11" gradientUnits="userSpaceOnUse">
<stop stop-color="#FDFC47"/>
<stop offset="1" stop-color="#24FE41"/>
</linearGradient>
</defs>
</svg>
