<svg width="22" height="22" viewBox="0 0 22 22" fill="none" xmlns="http://www.w3.org/2000/svg">
<path d="M10.9277 3C9.86687 3 8.84945 3.42142 8.0993 4.17157C7.34916 4.92171 6.92774 5.93913 6.92773 7C6.92774 8.06087 7.34916 9.07829 8.0993 9.82843C8.84945 10.5786 9.86687 11 10.9277 11C11.9886 11 13.006 10.5786 13.7561 9.82843C14.5063 9.07829 14.9277 8.06087 14.9277 7C14.9277 5.93913 14.5063 4.92171 13.7561 4.17157C13.006 3.42142 11.9886 3 10.9277 3ZM10.9277 4C11.7234 4 12.4864 4.31605 13.049 4.87866C13.6117 5.44127 13.9277 6.20435 13.9277 7C13.9277 7.79565 13.6117 8.55867 13.049 9.12128C12.4864 9.68389 11.7234 10 10.9277 10C10.1321 10 9.36904 9.68389 8.80643 9.12128C8.24382 8.55867 7.92774 7.79565 7.92773 7C7.92774 6.20435 8.24382 5.44127 8.80643 4.87866C9.36904 4.31605 10.1321 4 10.9277 4Z" fill="url(#paint0_linear_10_13003)"/>
<path d="M10.9277 12.0005C8.98084 12.0028 7.1016 12.715 5.64219 14.0036C4.18278 15.2922 3.24337 17.0688 3 19.0005H4.00781C4.24808 17.3359 5.07962 15.8135 6.35032 14.7117C7.62101 13.6099 9.24591 13.0025 10.9277 13.0005C11.2626 13.0032 11.5967 13.03 11.9277 13.0806V12.0708C11.5962 12.0265 11.2622 12.003 10.9277 12.0005Z" fill="url(#paint1_linear_10_13003)"/>
<path d="M15.4277 12.0005C14.4995 12.0005 13.6092 12.3692 12.9529 13.0256C12.2965 13.682 11.9277 14.5722 11.9277 15.5005C11.9277 16.4287 12.2965 17.319 12.9529 17.9754C13.6092 18.6317 14.4995 19.0005 15.4277 19.0005C16.356 19.0005 17.2462 18.6317 17.9026 17.9754C18.559 17.319 18.9277 16.4287 18.9277 15.5005C18.9277 14.5722 18.559 13.682 17.9026 13.0256C17.2462 12.3692 16.356 12.0005 15.4277 12.0005ZM14.9277 13.0005H15.9277V15.0005H16.9277V16.0005H15.9277H14.9277V15.0005V13.0005Z" fill="url(#paint2_linear_10_13003)"/>
<defs>
<linearGradient id="paint0_linear_10_13003" x1="6.92773" y1="3" x2="11.2164" y2="12.6495" gradientUnits="userSpaceOnUse">
<stop stop-color="#FF0500"/>
<stop offset="1" stop-color="#FD3632"/>
</linearGradient>
<linearGradient id="paint1_linear_10_13003" x1="3" y1="12.0005" x2="6.14194" y2="21.0167" gradientUnits="userSpaceOnUse">
<stop stop-color="#FF0500"/>
<stop offset="1" stop-color="#FD3632"/>
</linearGradient>
<linearGradient id="paint2_linear_10_13003" x1="11.9277" y1="12.0005" x2="15.6803" y2="20.4438" gradientUnits="userSpaceOnUse">
<stop stop-color="#FF0500"/>
<stop offset="1" stop-color="#FD3632"/>
</linearGradient>
</defs>
</svg>
