<svg width="22" height="22" viewBox="0 0 22 22" fill="none" xmlns="http://www.w3.org/2000/svg">
<path d="M11 3C9.93914 3 8.92173 3.42142 8.17158 4.17157C7.42144 4.92171 7.00001 5.93913 7 7C7.00001 8.06087 7.42144 9.07829 8.17158 9.82843C8.92173 10.5786 9.93914 11 11 11C12.0609 11 13.0783 10.5786 13.8284 9.82843C14.5786 9.07829 15 8.06087 15 7C15 5.93913 14.5786 4.92171 13.8284 4.17157C13.0783 3.42142 12.0609 3 11 3ZM11 4C11.7956 4 12.5587 4.31607 13.1213 4.87868C13.6839 5.44129 14 6.20435 14 7C14 7.79565 13.6839 8.55871 13.1213 9.12132C12.5587 9.68393 11.7956 10 11 10C10.2044 10 9.4413 9.68393 8.87869 9.12132C8.31608 8.55871 8.00001 7.79565 8 7C8.00001 6.20435 8.31608 5.44129 8.87869 4.87868C9.4413 4.31607 10.2044 4 11 4ZM11 12C9.05311 12.0023 7.17387 12.7145 5.71446 14.0031C4.25504 15.2918 3.31563 17.0684 3.07227 19H4.08008C4.32034 17.3354 5.15189 15.813 6.42258 14.7112C7.69328 13.6094 9.31817 13.002 11 13C11.3348 13.0027 11.669 13.0295 12 13.0801V12.0703C11.6685 12.026 11.3345 12.0025 11 12ZM15.5 12C13.567 12 12 13.567 12 15.5C12 17.433 13.567 19 15.5 19C17.433 19 19 17.433 19 15.5C19 13.567 17.433 12 15.5 12ZM13 15H18V16H13V15Z" fill="url(#paint0_linear_10_13008)" fill-opacity="0.5"/>
<path d="M13 15V16H18V15H13Z" fill="white"/>
<defs>
<linearGradient id="paint0_linear_10_13008" x1="3.07227" y1="11" x2="19" y2="11" gradientUnits="userSpaceOnUse">
<stop stop-color="#FDFC47"/>
<stop offset="1" stop-color="#24FE41"/>
</linearGradient>
</defs>
</svg>
