<svg width="22" height="22" viewBox="0 0 22 22" fill="none" xmlns="http://www.w3.org/2000/svg">
<path d="M9 3C7.34315 3 6 4.3431 6 6V8H4V9H6V10V19H7V9H8H9V8H8H7V6C7 4.89543 7.89543 4 9 4H10V3H9ZM12.7422 13L12 13.7324L14.293 16L12 18.2676L12.7422 19L15.0352 16.7324L17.2578 18.9316L18 18.1992L15.7754 16L18 13.8008L17.2578 13.0684L15.0352 15.2676L12.7422 13Z" fill="url(#paint0_linear_10_13048)"/>
<defs>
<linearGradient id="paint0_linear_10_13048" x1="4" y1="11" x2="18" y2="11" gradientUnits="userSpaceOnUse">
<stop stop-color="#FDFC47"/>
<stop offset="1" stop-color="#24FE41"/>
</linearGradient>
</defs>
</svg>
