<svg width="22" height="22" viewBox="0 0 22 22" fill="none" xmlns="http://www.w3.org/2000/svg">
<path d="M3 3V19H12V18H10V16H12V15H10V13H12V12H10V10H12V12H13V10H15V12H16V10H18V12H19V3H3ZM4 4H6H7H9V9H4V7V6V4ZM10 4H12V6H10V4ZM13 4H15V6H13V4ZM16 4H18V6H16V4ZM10 7H12V9H10V7ZM13 7H15V9H13V7ZM16 7H18V9H16V7ZM4 10H6V12H4V10ZM7 10H9V12H7V10ZM4 13H6V15H4V13ZM7 13H9V15H7V13ZM16 14V16H14V17H16V19H17V17H19V16H17V14H16ZM4 16H6V18H4V16ZM7 16H9V18H7V16Z" fill="url(#paint0_linear_10_13059)"/>
<path d="M4 4V7V9H9V7V4H7H4Z" fill="url(#paint1_linear_10_13059)"/>
<defs>
<linearGradient id="paint0_linear_10_13059" x1="3" y1="11" x2="19" y2="11" gradientUnits="userSpaceOnUse">
<stop stop-color="#FDFC47"/>
<stop offset="1" stop-color="#24FE41"/>
</linearGradient>
<linearGradient id="paint1_linear_10_13059" x1="4" y1="6.5" x2="9" y2="6.5" gradientUnits="userSpaceOnUse">
<stop stop-color="#FDFC47"/>
<stop offset="1" stop-color="#24FE41"/>
</linearGradient>
</defs>
</svg>
