<svg width="22" height="22" viewBox="0 0 22 22" fill="none" xmlns="http://www.w3.org/2000/svg">
<path d="M3 2V3H2V4H3V18H2V19H3V20H4V19H14V18H4V4H18V14H19V4H20V3H19V2H18V3H4V2H3ZM6 6V8H10V16H12V8H16V6H6ZM17 15V17H15V18H17V20H18V18H20V17H18V15H17Z" fill="url(#paint0_linear_10_13062)"/>
<defs>
<linearGradient id="paint0_linear_10_13062" x1="2" y1="11" x2="20" y2="11" gradientUnits="userSpaceOnUse">
<stop stop-color="#FDFC47"/>
<stop offset="1" stop-color="#24FE41"/>
</linearGradient>
</defs>
</svg>
