<svg width="22" height="22" viewBox="0 0 22 22" fill="none" xmlns="http://www.w3.org/2000/svg">
<path d="M15 4L3 7.41797V8.46094V13V13.582L4 13.8672V16V16.3008L10 18V17V15.5762L15 17V15.957V5.04297V4ZM19.0293 4.42773L18.2578 5.05859C19.3951 6.83083 19.9997 8.8923 20 10.998C19.996 13.1019 19.3886 15.1605 18.25 16.9297L19.0332 17.5723C20.3148 15.619 20.9983 13.3342 21 10.998C20.996 8.66285 20.3115 6.37942 19.0293 4.42773ZM14 5.32812V15.6719L4 12.8242V8.17578L14 5.32812ZM16.6895 6.34375L15.9082 6.98242C16.62 8.20121 16.9967 9.58663 17 10.998C16.998 12.4099 16.6216 13.7961 15.9102 15.0156L16.6914 15.6562C17.5446 14.2521 17.9972 12.6411 18 10.998C17.996 9.35612 17.5427 7.74659 16.6895 6.34375ZM2 7.70312L1 7.98828V8V9V12V13V13.0117L2 13.2969V13V12.2539V8.74609V8V7.70312ZM5 14.1523L9 15.291V16.7168L5 15.584V14.1523Z" fill="url(#paint0_linear_10_13078)"/>
<defs>
<linearGradient id="paint0_linear_10_13078" x1="1" y1="11" x2="21" y2="11" gradientUnits="userSpaceOnUse">
<stop stop-color="#FDFC47"/>
<stop offset="1" stop-color="#24FE41"/>
</linearGradient>
</defs>
</svg>
