<svg width="22" height="22" viewBox="0 0 22 22" fill="none" xmlns="http://www.w3.org/2000/svg">
<path d="M3 3V4V7H4V4H7V3H4H3ZM15 3V4H18V7H19V3H15ZM5 5V10H10V5H5ZM12 5V10H17V5H12ZM6 6H9V9H6V6ZM13 6H16V9H13V6ZM5 12V17H10V12H5ZM12 12V17H13V16V13H16H17V12H12ZM6 13H9V16H6V13ZM3 15V19H4H7V18H4V15H3Z" fill="url(#paint0_linear_10_13136)"/>
<path d="M14.707 14L14 14.707L15.793 16.5L14 18.293L14.707 19L16.5 17.207L18.293 19L19 18.293L17.207 16.5L19 14.707L18.293 14L16.5 15.793L14.707 14Z" fill="url(#paint1_linear_10_13136)"/>
<defs>
<linearGradient id="paint0_linear_10_13136" x1="3" y1="11" x2="19" y2="11" gradientUnits="userSpaceOnUse">
<stop stop-color="#FDFC47"/>
<stop offset="1" stop-color="#24FE41"/>
</linearGradient>
<linearGradient id="paint1_linear_10_13136" x1="14" y1="14" x2="16.6804" y2="20.0309" gradientUnits="userSpaceOnUse">
<stop stop-color="#FF0500"/>
<stop offset="1" stop-color="#FD3632"/>
</linearGradient>
</defs>
</svg>
