<svg width="22" height="22" viewBox="0 0 22 22" fill="none" xmlns="http://www.w3.org/2000/svg">
<path d="M3 3V4V5V18V19H18H19V5V4V3H3ZM6 5H16V17H6V5ZM4 6H5V7H4V6ZM17 6H18V7H17V6ZM4 8H5V9H4V8ZM9 8V14L13 11L9 8ZM17 8H18V9H17V8ZM4 10H5V11H4V10ZM17 10H18V11H17V10ZM4 12H5V13H4V12ZM17 12H18V13H17V12ZM4 14H5V15H4V14ZM17 14H18V15H17V14ZM4 16H5V17H4V16ZM17 16H18V17H17V16Z" fill="url(#paint0_linear_10_13089)"/>
<defs>
<linearGradient id="paint0_linear_10_13089" x1="3" y1="11" x2="19" y2="11" gradientUnits="userSpaceOnUse">
<stop stop-color="#FDFC47"/>
<stop offset="1" stop-color="#24FE41"/>
</linearGradient>
</defs>
</svg>
