<svg width="22" height="22" viewBox="0 0 22 22" fill="none" xmlns="http://www.w3.org/2000/svg">
<path d="M11 3C6.568 3 3 6.568 3 11C3 15.432 6.568 19 11 19C15.432 19 19 15.432 19 11C19 6.568 15.432 3 11 3ZM11 4C14.878 4 18 7.122 18 11C18 14.878 14.878 18 11 18C7.122 18 4 14.878 4 11C4 7.122 7.122 4 11 4ZM9 7V9H11V13H9V15H11H13V7H11H9Z" fill="url(#paint0_linear_10_13147)"/>
<defs>
<linearGradient id="paint0_linear_10_13147" x1="3" y1="11" x2="19" y2="11" gradientUnits="userSpaceOnUse">
<stop stop-color="#FDFC47"/>
<stop offset="1" stop-color="#24FE41"/>
</linearGradient>
</defs>
</svg>
