<svg width="22" height="22" viewBox="0 0 22 22" fill="none" xmlns="http://www.w3.org/2000/svg">
<path d="M10.9688 3C9.21782 3 7.56187 3.4216 6 4.26367L6.77734 6.05078C7.55826 5.66726 8.26005 5.3933 8.88477 5.22656C9.51774 5.05983 10.1627 4.97656 10.8203 4.97656C11.8068 4.97656 12.5637 5.19681 13.0898 5.63867C13.6159 6.08054 13.8789 6.71367 13.8789 7.53906C13.8789 7.98093 13.8221 8.36963 13.707 8.70312C13.592 9.03661 13.3947 9.36963 13.1152 9.70312C12.8358 10.0366 12.2476 10.5865 11.3516 11.3535C10.2515 12.3568 9.10046 14.139 9 16H11L10.9941 15.9688C10.9941 15.2101 11.1256 14.6011 11.3887 14.1426C11.66 13.6757 12.2018 13.0876 13.0156 12.3789C14.0103 11.5368 14.6732 10.9037 15.002 10.4785C15.339 10.0533 15.5895 9.60414 15.7539 9.12891C15.9184 8.65368 16 8.10719 16 7.49023C16 6.07289 15.5523 4.97119 14.6562 4.1875C13.7602 3.39546 12.5306 3 10.9688 3ZM9 17V19H11V17H9Z" fill="url(#paint0_linear_10_13159)"/>
<path d="M19.3066 13L14.8145 17.5918L13.6914 16.4453L13 17.1523L14.8066 19L14.8125 18.9922L14.8203 19L20 13.707L19.3086 13H19.3066Z" fill="url(#paint1_linear_10_13159)"/>
<defs>
<linearGradient id="paint0_linear_10_13159" x1="6" y1="11" x2="16" y2="11" gradientUnits="userSpaceOnUse">
<stop stop-color="#FDFC47"/>
<stop offset="1" stop-color="#24FE41"/>
</linearGradient>
<linearGradient id="paint1_linear_10_13159" x1="13" y1="16" x2="20" y2="16" gradientUnits="userSpaceOnUse">
<stop stop-color="#FDFC47"/>
<stop offset="1" stop-color="#24FE41"/>
</linearGradient>
</defs>
</svg>
