<svg width="22" height="22" viewBox="0 0 22 22" fill="none" xmlns="http://www.w3.org/2000/svg">
<path d="M11 3C8.87827 3 6.84344 3.84285 5.34315 5.34315C3.84285 6.84344 3 8.87827 3 11C3.00014 12.6043 3.48261 14.1715 4.38477 15.498C4.31498 15.5754 4.25345 15.6599 4.20117 15.75C4.00231 16.0945 3.94841 16.5038 4.05133 16.8881C4.15425 17.2723 4.40557 17.5999 4.75 17.7988C5.02529 17.9575 5.34387 18.0247 5.65978 17.9906C5.9757 17.9566 6.27265 17.8231 6.50781 17.6094C7.83208 18.5125 9.3971 18.997 11 19C13.1217 19 15.1566 18.1571 16.6569 16.6569C18.1571 15.1566 19 13.1217 19 11C19 8.87827 18.1571 6.84344 16.6569 5.34315C15.1566 3.84285 13.1217 3 11 3ZM11 4C12.8565 4 14.637 4.7375 15.9497 6.05025C17.2625 7.36301 18 9.14348 18 11C18 12.8565 17.2625 14.637 15.9497 15.9497C14.637 17.2625 12.8565 18 11 18C9.562 17.9989 8.15922 17.5549 6.98242 16.7285C7.02844 16.4298 6.98313 16.1241 6.85243 15.8516C6.72174 15.579 6.51175 15.3523 6.25 15.2012C5.95613 15.031 5.61322 14.9656 5.27734 15.0156C4.44922 13.8401 4.00322 12.438 4 11C4 9.14348 4.7375 7.36301 6.05025 6.05025C7.36301 4.7375 9.14348 4 11 4ZM11 6C9.67392 6 8.40215 6.52678 7.46447 7.46447C6.52678 8.40215 6 9.67392 6 11C6 12.3261 6.52678 13.5979 7.46447 14.5355C8.40215 15.4732 9.67392 16 11 16C12.1138 15.9979 13.1951 15.624 14.0723 14.9375C14.3954 15.0336 14.7416 15.0181 15.0548 14.8933C15.3681 14.7686 15.6302 14.542 15.7988 14.25C15.9423 14.001 16.0112 13.716 15.9973 13.429C15.9835 13.1419 15.8875 12.8649 15.7207 12.6309C15.9037 12.1065 15.9981 11.5554 16 11C16 9.67392 15.4732 8.40215 14.5355 7.46447C13.5979 6.52678 12.3261 6 11 6ZM11 7C12.0609 7 13.0783 7.42143 13.8284 8.17157C14.5786 8.92172 15 9.93913 15 11C14.9986 11.3524 14.9507 11.7031 14.8574 12.043C14.542 11.9657 14.2101 11.9928 13.9114 12.1203C13.6127 12.2478 13.3635 12.4687 13.2012 12.75C13.0635 12.9885 12.9942 13.2602 13.0007 13.5355C13.0073 13.8107 13.0895 14.0789 13.2383 14.3105C12.5777 14.7585 11.7982 14.9986 11 15C9.93913 15 8.92172 14.5786 8.17157 13.8284C7.42143 13.0783 7 12.0609 7 11C7 9.93913 7.42143 8.92172 8.17157 8.17157C8.92172 7.42143 9.93913 7 11 7ZM11 9C10.4696 9 9.96086 9.21071 9.58579 9.58579C9.21071 9.96086 9 10.4696 9 11C9 11.5304 9.21071 12.0391 9.58579 12.4142C9.96086 12.7893 10.4696 13 11 13C11.5304 13 12.0391 12.7893 12.4142 12.4142C12.7893 12.0391 13 11.5304 13 11C13 10.4696 12.7893 9.96086 12.4142 9.58579C12.0391 9.21071 11.5304 9 11 9Z" fill="url(#paint0_linear_10_13209)"/>
<defs>
<linearGradient id="paint0_linear_10_13209" x1="3" y1="11" x2="19" y2="11" gradientUnits="userSpaceOnUse">
<stop stop-color="#FDFC47"/>
<stop offset="1" stop-color="#24FE41"/>
</linearGradient>
</defs>
</svg>
