<svg width="22" height="22" viewBox="0 0 22 22" fill="none" xmlns="http://www.w3.org/2000/svg">
<path d="M9 4.99805C5.13401 4.99805 2 7.67597 2 10.9805C2 14.2851 4.13401 16.7461 8 16.7461C4.77832 16.7461 3.16599 13.7344 3.16602 10.9805C3.16599 8.22657 5.77832 5.99414 9 5.99414C10.4561 5.99414 11.7709 6.4666 12.793 7.2207C12.2212 7.04676 11.6134 6.95672 11 6.95508C10.3432 6.95508 9.6929 7.05643 9.08615 7.25334C8.4794 7.45026 7.92812 7.73888 7.4638 8.10271C6.99948 8.46655 6.63122 8.89848 6.38006 9.37382C6.1289 9.84916 5.99975 10.3586 6 10.873V10.8828C6.00106 10.9884 6.00758 11.094 6.01953 11.1992C6.21248 14.4295 9.25851 17 13 17C16.866 17 20 14.2582 20 10.877C20 7.49565 17.866 5 14 5C17.2217 5 18.834 8.0573 18.834 10.875C18.834 13.6927 16.2217 15.9766 13 15.9766C11.3275 15.9766 9.82341 15.3574 8.75977 14.3711C9.45482 14.6451 10.2219 14.7882 11 14.7891C12.3012 14.7879 13.5506 14.3894 14.4827 13.6782C15.4148 12.9671 15.9563 11.9993 15.9922 10.9805H16C16 10.9615 15.9963 10.9428 15.9961 10.9238C15.9975 10.9069 15.9988 10.89 16 10.873C15.9983 10.7393 15.9879 10.6056 15.9688 10.4727C15.6662 7.40666 12.6651 4.99805 9 4.99805Z" fill="url(#paint0_linear_10_13192)"/>
<defs>
<linearGradient id="paint0_linear_10_13192" x1="2" y1="10.999" x2="20" y2="10.999" gradientUnits="userSpaceOnUse">
<stop stop-color="#FDFC47"/>
<stop offset="1" stop-color="#24FE41"/>
</linearGradient>
</defs>
</svg>
