<svg width="22" height="22" viewBox="0 0 22 22" fill="none" xmlns="http://www.w3.org/2000/svg">
<path d="M15 3L14.2344 5.15234L12.1719 4.17188L13.1523 6.23438L11 7L13.1523 7.76562L12.1719 9.82812L14.2344 8.84766L15 11L15.7656 8.84766L17.8281 9.82812L16.8477 7.76562L19 7L16.8477 6.23438L17.8281 4.17188L15.7656 5.15234L15 3ZM7.69922 9L7.20898 11.625L5.24023 9.82031L6.12695 12.3379L3.51953 11.7598L5.54688 13.498L3 14.3008L5.625 14.793L3.82031 16.7598L6.33789 15.873L5.75977 18.4805L7.49805 16.4531L8.30078 19L8.79297 16.377L10.7598 18.1797L9.87305 15.6621L12.4805 16.2402L10.4531 14.502L13 13.6992L10.377 13.209L12.1797 11.2402L9.66211 12.127L10.2402 9.51953L8.50195 11.5469L7.69922 9Z" fill="url(#paint0_linear_10_13211)"/>
<defs>
<linearGradient id="paint0_linear_10_13211" x1="3" y1="11" x2="19" y2="11" gradientUnits="userSpaceOnUse">
<stop stop-color="#FDFC47"/>
<stop offset="1" stop-color="#24FE41"/>
</linearGradient>
</defs>
</svg>
