<svg width="22" height="22" viewBox="0 0 22 22" fill="none" xmlns="http://www.w3.org/2000/svg">
<path d="M5 3L7.8125 18H13.25L17 3H5ZM6.5 4C6.63261 4 6.75979 4.05268 6.85355 4.14645C6.94732 4.24021 7 4.36739 7 4.5C7 4.63261 6.94732 4.75979 6.85355 4.85355C6.75979 4.94732 6.63261 5 6.5 5C6.36739 5 6.24021 4.94732 6.14645 4.85355C6.05268 4.75979 6 4.63261 6 4.5C6 4.36739 6.05268 4.24021 6.14645 4.14645C6.24021 4.05268 6.36739 4 6.5 4ZM13.5 4C13.6326 4 13.7598 4.05268 13.8536 4.14645C13.9473 4.24021 14 4.36739 14 4.5C14 4.63261 13.9473 4.75979 13.8536 4.85355C13.7598 4.94732 13.6326 5 13.5 5C13.3674 5 13.2402 4.94732 13.1464 4.85355C13.0527 4.75979 13 4.63261 13 4.5C13 4.36739 13.0527 4.24021 13.1464 4.14645C13.2402 4.05268 13.3674 4 13.5 4ZM10.9043 6.00195C11.6478 5.97805 12.3736 6.2312 12.941 6.71229C13.5083 7.19338 13.8767 7.86808 13.9746 8.60547C14.0265 8.99611 14.0009 9.39315 13.8993 9.77391C13.7978 10.1547 13.6222 10.5117 13.3826 10.8246C13.143 11.1374 12.8441 11.4 12.503 11.5974C12.1618 11.7947 11.7852 11.9229 11.3945 11.9746C11.0039 12.0265 10.6068 12.0009 10.2261 11.8993C9.84533 11.7978 9.48832 11.6222 9.17544 11.3826C8.86257 11.143 8.59997 10.8441 8.40264 10.503C8.20531 10.1618 8.07712 9.7852 8.02539 9.39453C7.97349 9.00389 7.99906 8.60685 8.10065 8.22609C8.20224 7.84533 8.37784 7.48832 8.61744 7.17544C8.85704 6.86257 9.15593 6.59997 9.49704 6.40264C9.83815 6.20531 10.2148 6.07712 10.6055 6.02539C10.7046 6.0126 10.8044 6.00478 10.9043 6.00195ZM12.5 13C12.6326 13 12.7598 13.0527 12.8536 13.1464C12.9473 13.2402 13 13.3674 13 13.5C13 13.6326 12.9473 13.7598 12.8536 13.8536C12.7598 13.9473 12.6326 14 12.5 14C12.3674 14 12.2402 13.9473 12.1464 13.8536C12.0527 13.7598 12 13.6326 12 13.5C12 13.3674 12.0527 13.2402 12.1464 13.1464C12.2402 13.0527 12.3674 13 12.5 13ZM9.5 15C9.63261 15 9.75979 15.0527 9.85355 15.1464C9.94732 15.2402 10 15.3674 10 15.5C10 15.6326 9.94732 15.7598 9.85355 15.8536C9.75979 15.9473 9.63261 16 9.5 16C9.36739 16 9.24021 15.9473 9.14645 15.8536C9.05268 15.7598 9 15.6326 9 15.5C9 15.3674 9.05268 15.2402 9.14645 15.1464C9.24021 15.0527 9.36739 15 9.5 15Z" fill="url(#paint0_linear_10_13201)"/>
<path d="M19.4179 4.0001C18.281 3.98774 15.6697 5.07915 12.9394 6.71495C13.2222 6.95528 13.458 7.24601 13.6347 7.57237C15.5759 6.2797 17.0212 5.62237 17.4472 6.06846C17.8469 6.48706 17.1777 7.54454 15.7382 9.08214C15.8092 9.20124 15.8516 9.34771 15.9101 9.47081C18.0925 7.29381 20.458 4.7137 19.9238 4.1544C19.8268 4.0528 19.6543 4.0027 19.4179 4.0001ZM8.21673 10.1134C4.42739 13.3615 1.39241 17.2204 2.10345 17.9649C2.24895 18.1172 3.6552 17.7317 4.1054 17.5157C4.79224 17.2665 5.9138 16.8048 7.26165 16.0646L7.17767 15.6134C5.88156 16.2579 4.96665 16.4739 4.64837 16.1407C4.07398 15.5393 6.02444 13.5598 8.92181 11.1603C8.6152 10.8653 8.37486 10.5084 8.21673 10.1134ZM1.99993 19.0001V20.0001H19.9999V19.0001H1.99993Z" fill="url(#paint1_linear_10_13201)" fill-opacity="0.5"/>
<path d="M6.5 4C6.36739 4 6.24021 4.05268 6.14645 4.14645C6.05268 4.24021 6 4.36739 6 4.5C6 4.63261 6.05268 4.75979 6.14645 4.85355C6.24021 4.94732 6.36739 5 6.5 5C6.63261 5 6.75979 4.94732 6.85355 4.85355C6.94732 4.75979 7 4.63261 7 4.5C7 4.36739 6.94732 4.24021 6.85355 4.14645C6.75979 4.05268 6.63261 4 6.5 4ZM13.5 4C13.3674 4 13.2402 4.05268 13.1464 4.14645C13.0527 4.24021 13 4.36739 13 4.5C13 4.63261 13.0527 4.75979 13.1464 4.85355C13.2402 4.94732 13.3674 5 13.5 5C13.6326 5 13.7598 4.94732 13.8536 4.85355C13.9473 4.75979 14 4.63261 14 4.5C14 4.36739 13.9473 4.24021 13.8536 4.14645C13.7598 4.05268 13.6326 4 13.5 4ZM10.9043 6.00195C10.8044 6.00478 10.7046 6.0126 10.6055 6.02539C10.2148 6.07712 9.83815 6.20531 9.49704 6.40264C9.15593 6.59997 8.85704 6.86257 8.61744 7.17544C8.37784 7.48832 8.20224 7.84533 8.10065 8.22609C7.99906 8.60685 7.97349 9.00389 8.02539 9.39453C8.07712 9.7852 8.20531 10.1618 8.40264 10.503C8.59997 10.8441 8.86257 11.143 9.17544 11.3826C9.48832 11.6222 9.84533 11.7978 10.2261 11.8993C10.6068 12.0009 11.0039 12.0265 11.3945 11.9746C11.7852 11.9229 12.1618 11.7947 12.503 11.5974C12.8441 11.4 13.143 11.1374 13.3826 10.8246C13.6222 10.5117 13.7978 10.1547 13.8993 9.77391C14.0009 9.39315 14.0265 8.99611 13.9746 8.60547C13.8767 7.86808 13.5083 7.19338 12.941 6.71229C12.3736 6.2312 11.6478 5.97805 10.9043 6.00195ZM12.5 13C12.3674 13 12.2402 13.0527 12.1464 13.1464C12.0527 13.2402 12 13.3674 12 13.5C12 13.6326 12.0527 13.7598 12.1464 13.8536C12.2402 13.9473 12.3674 14 12.5 14C12.6326 14 12.7598 13.9473 12.8536 13.8536C12.9473 13.7598 13 13.6326 13 13.5C13 13.3674 12.9473 13.2402 12.8536 13.1464C12.7598 13.0527 12.6326 13 12.5 13ZM9.5 15C9.36739 15 9.24021 15.0527 9.14645 15.1464C9.05268 15.2402 9 15.3674 9 15.5C9 15.6326 9.05268 15.7598 9.14645 15.8536C9.24021 15.9473 9.36739 16 9.5 16C9.63261 16 9.75979 15.9473 9.85355 15.8536C9.94732 15.7598 10 15.6326 10 15.5C10 15.3674 9.94732 15.2402 9.85355 15.1464C9.75979 15.0527 9.63261 15 9.5 15Z" fill="url(#paint2_linear_10_13201)"/>
<defs>
<linearGradient id="paint0_linear_10_13201" x1="5" y1="10.5" x2="17" y2="10.5" gradientUnits="userSpaceOnUse">
<stop stop-color="#FDFC47"/>
<stop offset="1" stop-color="#24FE41"/>
</linearGradient>
<linearGradient id="paint1_linear_10_13201" x1="1.99951" y1="12.0001" x2="20.0002" y2="12.0001" gradientUnits="userSpaceOnUse">
<stop stop-color="#FDFC47"/>
<stop offset="1" stop-color="#24FE41"/>
</linearGradient>
<linearGradient id="paint2_linear_10_13201" x1="6" y1="10" x2="14.0007" y2="10" gradientUnits="userSpaceOnUse">
<stop stop-color="#FF8008"/>
<stop offset="1" stop-color="#FFC837"/>
</linearGradient>
</defs>
</svg>
