<svg width="22" height="22" viewBox="0 0 22 22" fill="none" xmlns="http://www.w3.org/2000/svg">
<path d="M14 3L8.73633 10.1777C8.88872 10.2219 9.03867 10.274 9.18555 10.334C8.66423 10.1229 8.09703 10 7.5 10C6.30699 10.0012 5.16329 10.4761 4.32031 11.3203C4.08256 11.5584 3.87226 11.8224 3.69336 12.1074L5.78711 14.2012L4.39062 16.1055C4.72463 16.7502 5.25089 17.2751 5.89648 17.6074L7.79883 16.2129L9.89453 18.3086C10.1789 18.129 10.4423 17.918 10.6797 17.6797C11.5239 16.8367 11.9988 15.693 12 14.5C12 13.9188 11.8803 13.3674 11.6797 12.8574C11.7343 12.9898 11.7825 13.1247 11.8242 13.2617L19 8L14 3ZM5.91406 3.08594L3.08594 5.91602L6.75781 9.58594L9.58594 6.75781L5.91406 3.08594ZM14.1172 4.53125L17.4688 7.88281L11.4277 12.3145C11.49 12.4278 11.5473 12.5438 11.5996 12.6621C11.1513 11.6642 10.3527 10.8631 9.35742 10.4102C9.47024 10.459 9.58101 10.5124 9.68945 10.5703L14.1172 4.53125ZM7.5 11C9.433 11 11 12.567 11 14.5C10.9988 15.4278 10.6293 16.3172 9.97266 16.9727L5.02734 12.0273C5.68281 11.3707 6.57219 11.0012 7.5 11ZM15.2422 12.4141L12.4141 15.2441L16.0859 18.916L18.9141 16.0859L15.2422 12.4141ZM3.74805 16.9805L3 18L4 19L5.01953 18.252C4.51448 17.918 4.08202 17.4855 3.74805 16.9805Z" fill="url(#paint0_linear_10_13207)"/>
<defs>
<linearGradient id="paint0_linear_10_13207" x1="3" y1="11" x2="19" y2="11" gradientUnits="userSpaceOnUse">
<stop stop-color="#FDFC47"/>
<stop offset="1" stop-color="#24FE41"/>
</linearGradient>
</defs>
</svg>
