<svg width="22" height="22" viewBox="0 0 22 22" fill="none" xmlns="http://www.w3.org/2000/svg">
<path d="M6 3C5.34339 3 4.69321 3.12933 4.08658 3.3806C3.47995 3.63188 2.92876 4.00017 2.46447 4.46447C1.52678 5.40215 1 6.67392 1 8V14C1 15.3261 1.52678 16.5979 2.46447 17.5355C2.92876 17.9998 3.47995 18.3681 4.08658 18.6194C4.69321 18.8707 5.34339 19 6 19C7.32608 19 8.59785 18.4732 9.53553 17.5355C10.4732 16.5979 11 15.3261 11 14V8C11 6.67392 10.4732 5.40215 9.53553 4.46447C8.59785 3.52678 7.32608 3 6 3ZM6 4C7.06087 4 8.07828 4.42143 8.82843 5.17157C9.57857 5.92172 10 6.93913 10 8V14C10 15.0609 9.57857 16.0783 8.82843 16.8284C8.07828 17.5786 7.06087 18 6 18C4.93913 18 3.92172 17.5786 3.17157 16.8284C2.42143 16.0783 2 15.0609 2 14V8C2 6.93913 2.42143 5.92172 3.17157 5.17157C3.92172 4.42143 4.93913 4 6 4ZM19 7V8H20V7H19ZM12 10V19H13V13C13 12.4696 13.2107 11.9609 13.5858 11.5858C13.9609 11.2107 14.4696 11 15 11C15.5304 11 16.0391 11.2107 16.4142 11.5858C16.7893 11.9609 17 12.4696 17 13H18C18 12.2044 17.6839 11.4413 17.1213 10.8787C16.5587 10.3161 15.7956 10 15 10C14.2616 10.001 13.5495 10.2743 13 10.7676V10H12ZM19 10V19H20V10H19Z" fill="url(#paint0_linear_10_13184)"/>
<defs>
<linearGradient id="paint0_linear_10_13184" x1="1" y1="11" x2="20" y2="11" gradientUnits="userSpaceOnUse">
<stop stop-color="#FDFC47"/>
<stop offset="1" stop-color="#24FE41"/>
</linearGradient>
</defs>
</svg>
