<svg width="22" height="22" viewBox="0 0 22 22" fill="none" xmlns="http://www.w3.org/2000/svg">
<path d="M7.0293 3L6.32617 4.80859C5.18335 4.46466 4.06713 4.00485 3 3.42383V4.8125C3.93272 5.2775 4.8919 5.67009 5.875 5.9707L4.38086 9.81641C3.91158 9.60237 3.45308 9.35746 3 9.09961V10.5078C3.30873 10.6669 3.61679 10.8288 3.93164 10.9707L3 13.3691V16.7871L3.05469 16.6465C5.36146 17.7719 7.85038 18.391 10.3613 18.5137L10.3633 19H11.5996V18.5352C14.1294 18.4928 16.6511 17.9483 19 16.8906V13.1875L18.3086 11.4062C18.543 11.3175 18.7685 11.2016 19 11.1035V9.75781C18.6226 9.93077 18.2455 10.1038 17.8594 10.25L16.2637 6.14258C17.1943 5.893 18.1093 5.57035 19 5.17773V3.80469C17.9698 4.29989 16.905 4.69839 15.8145 4.98242L15.043 3H13.7051L14.584 5.25586C13.5901 5.43955 12.5837 5.53604 11.5762 5.54688L11.5703 3H10.3223L10.3301 5.51758C9.39317 5.46122 8.45888 5.33515 7.53906 5.12891L8.36719 3H7.0293ZM7.08398 6.29492C8.15345 6.5452 9.24042 6.69519 10.332 6.75586L10.3438 11.3418C8.70767 11.22 7.08558 10.8706 5.5293 10.291L7.08398 6.29492ZM15.041 6.42969L16.6836 10.6484C15.0229 11.1453 13.3052 11.3971 11.5859 11.3906L11.5781 6.78516C12.7391 6.77305 13.898 6.65567 15.041 6.42969ZM5.08008 11.4453C6.78214 12.0795 8.55713 12.4568 10.3477 12.5801L10.3594 17.2754C8.00263 17.1509 5.67058 16.5507 3.50977 15.4785L5.08008 11.4453ZM17.1348 11.8047L18.6465 15.6836C16.4132 16.7181 14.0095 17.2567 11.5957 17.2988L11.5879 12.627C13.4593 12.6326 15.3295 12.3547 17.1348 11.8047Z" fill="url(#paint0_linear_10_13196)"/>
<defs>
<linearGradient id="paint0_linear_10_13196" x1="3" y1="11" x2="19" y2="11" gradientUnits="userSpaceOnUse">
<stop stop-color="#FDFC47"/>
<stop offset="1" stop-color="#24FE41"/>
</linearGradient>
</defs>
</svg>
