<svg width="22" height="22" viewBox="0 0 22 22" fill="none" xmlns="http://www.w3.org/2000/svg">
<path d="M11 3C8.87827 3 6.84344 3.84285 5.34315 5.34315C3.84286 6.84344 3 8.87827 3 11C3 13.1217 3.84286 15.1566 5.34315 16.6569C6.84344 18.1571 8.87827 19 11 19H15V16H11C9.67392 16 8.40215 15.4732 7.46447 14.5355C6.52678 13.5979 6 12.3261 6 11C6 9.67392 6.52678 8.40215 7.46447 7.46447C8.40215 6.52678 9.67392 6 11 6H15V3H11ZM16 3V6H19V3H16ZM16 16V19H19V16H16Z" fill="url(#paint0_linear_10_13221)"/>
<defs>
<linearGradient id="paint0_linear_10_13221" x1="3" y1="11" x2="19" y2="11" gradientUnits="userSpaceOnUse">
<stop stop-color="#FDFC47"/>
<stop offset="1" stop-color="#24FE41"/>
</linearGradient>
</defs>
</svg>
