<svg width="22" height="22" viewBox="0 0 22 22" fill="none" xmlns="http://www.w3.org/2000/svg">
<path d="M3 3V5C5.64654 5.00308 8.238 5.75626 10.4739 7.17219C12.7098 8.58813 14.4986 10.6088 15.6328 13H17.8203C16.6259 10.0474 14.5774 7.51838 11.9372 5.73688C9.29695 3.95537 6.18507 3.00241 3 3ZM3 7V9C4.55493 9.00341 6.08764 9.36937 7.47638 10.0688C8.86511 10.7683 10.0716 11.7819 11 13.0293V13H12H13.3809C12.3286 11.1774 10.8156 9.66367 8.99351 8.61055C7.17146 7.55744 5.1045 7.00201 3 7ZM3 11V13C3.78793 13 4.56815 13.1552 5.2961 13.4567C6.02406 13.7583 6.68549 14.2002 7.24265 14.7574C7.7998 15.3145 8.24175 15.9759 8.54328 16.7039C8.84481 17.4319 9 18.2121 9 19H11C11 17.9494 10.7931 16.9091 10.391 15.9385C9.989 14.9679 9.39973 14.086 8.65686 13.3431C7.91399 12.6003 7.03208 12.011 6.06147 11.609C5.09087 11.2069 4.05058 11 3 11ZM4.5 16C4.10218 16 3.72064 16.158 3.43934 16.4393C3.15804 16.7206 3 17.1022 3 17.5C3 17.8978 3.15804 18.2794 3.43934 18.5607C3.72064 18.842 4.10218 19 4.5 19C4.89782 19 5.27936 18.842 5.56066 18.5607C5.84196 18.2794 6 17.8978 6 17.5C6 17.1022 5.84196 16.7206 5.56066 16.4393C5.27936 16.158 4.89782 16 4.5 16Z" fill="url(#paint0_linear_10_13226)"/>
<path d="M14 16V17H19V16H14Z" fill="url(#paint1_linear_10_13226)"/>
<defs>
<linearGradient id="paint0_linear_10_13226" x1="3" y1="11" x2="17.8203" y2="11" gradientUnits="userSpaceOnUse">
<stop stop-color="#FDFC47"/>
<stop offset="1" stop-color="#24FE41"/>
</linearGradient>
<linearGradient id="paint1_linear_10_13226" x1="14" y1="16" x2="14.1274" y2="17.4331" gradientUnits="userSpaceOnUse">
<stop stop-color="#FF0500"/>
<stop offset="1" stop-color="#FD3632"/>
</linearGradient>
</defs>
</svg>
