<svg width="22" height="22" viewBox="0 0 22 22" fill="none" xmlns="http://www.w3.org/2000/svg">
<path d="M18.8576 12.027C18.8576 12.5938 18.6977 13.0594 18.3779 13.4237C18.0621 13.7881 17.6086 14.031 17.0175 14.1525V14.2011C17.726 14.2901 18.2544 14.5168 18.6026 14.8812C18.9548 15.2456 19.1309 15.7193 19.1309 16.3023C19.1309 17.1484 18.8374 17.8023 18.2503 18.2638C17.6633 18.7213 16.8212 18.95 15.724 18.95C15.2544 18.95 14.8212 18.9156 14.4244 18.8468C14.0317 18.778 13.6511 18.6525 13.2827 18.4703V17.45C13.6592 17.6363 14.0621 17.78 14.4912 17.8812C14.9204 17.9824 15.3353 18.033 15.7362 18.033C17.2341 18.033 17.9831 17.448 17.9831 16.278C17.9831 15.2334 17.1552 14.7112 15.4993 14.7112H14.637V13.782H15.5115C16.2078 13.782 16.7524 13.6343 17.1451 13.3387C17.5378 13.0391 17.7341 12.6262 17.7341 12.0998C17.7341 11.6747 17.5904 11.3428 17.303 11.1039C17.0196 10.865 16.6248 10.7456 16.1187 10.7456C15.726 10.7456 15.3617 10.8002 15.0256 10.9096C14.6936 11.0148 14.3111 11.2091 13.8779 11.4925L13.3313 10.7456C13.6957 10.4581 14.1147 10.2334 14.5884 10.0715C15.0661 9.90551 15.5722 9.82251 16.1066 9.82251C16.973 9.82251 17.6471 10.0209 18.1289 10.4177C18.6147 10.8104 18.8576 11.3468 18.8576 12.027Z" fill="url(#paint0_linear_10_13244)"/>
<path d="M3 3V5H4V4H5V3H3ZM8 3V4H10V3H8ZM12 3V4H14V3H12ZM17 3V4H18V5H19V3H17ZM9 7V8H11.293L8 11.293L8.70703 12L12 8.70703V11H13V7H12H9ZM3 8V10H4V8H3ZM3 13V19H9V13H3ZM4 14H8V18H4V14Z" fill="url(#paint1_linear_10_13244)"/>
<defs>
<linearGradient id="paint0_linear_10_13244" x1="13.2827" y1="14.3863" x2="19.1309" y2="14.3863" gradientUnits="userSpaceOnUse">
<stop stop-color="#FDFC47"/>
<stop offset="1" stop-color="#24FE41"/>
</linearGradient>
<linearGradient id="paint1_linear_10_13244" x1="3" y1="11" x2="19" y2="11" gradientUnits="userSpaceOnUse">
<stop stop-color="#FDFC47"/>
<stop offset="1" stop-color="#24FE41"/>
</linearGradient>
</defs>
</svg>
