<svg width="22" height="22" viewBox="0 0 22 22" fill="none" xmlns="http://www.w3.org/2000/svg">
<path d="M20.2875 16.9673H19V19H17.9373V16.9673H13.6863V16.0306L17.8644 10H19V15.9755H20.2875V16.9673ZM17.9373 15.9755V13.1592C17.9373 12.6 17.9596 11.9388 18.0041 11.1755H17.9494C17.9049 11.2816 17.8259 11.4408 17.7126 11.6531C17.6033 11.8653 17.5041 12.0327 17.415 12.1551L14.7551 15.9755H17.9373Z" fill="url(#paint0_linear_10_13247)"/>
<path d="M3 3V5H4V4H5V3H3ZM8 3V4H10V3H8ZM12 3V4H14V3H12ZM17 3V4H18V5H19V3H17ZM9 7V8H11.293L8 11.293L8.70703 12L12 8.70703V11H13V7H12H9ZM3 8V10H4V8H3ZM3 13V19H9V13H3ZM4 14H8V18H4V14Z" fill="url(#paint1_linear_10_13247)"/>
<defs>
<linearGradient id="paint0_linear_10_13247" x1="13.6863" y1="14.5" x2="20.2875" y2="14.5" gradientUnits="userSpaceOnUse">
<stop stop-color="#FDFC47"/>
<stop offset="1" stop-color="#24FE41"/>
</linearGradient>
<linearGradient id="paint1_linear_10_13247" x1="3" y1="11" x2="19" y2="11" gradientUnits="userSpaceOnUse">
<stop stop-color="#FDFC47"/>
<stop offset="1" stop-color="#24FE41"/>
</linearGradient>
</defs>
</svg>
