<svg width="22" height="22" viewBox="0 0 22 22" fill="none" xmlns="http://www.w3.org/2000/svg">
<path d="M2 3V4V11V12V19H3V12H11V17V18H20V17V11H12V4H3V3H2ZM3 5H11V11H3V5ZM12 12H19V17H12V12Z" fill="url(#paint0_linear_10_13304)"/>
<path d="M7 3C6.09558 3 5.36306 3.60348 4.76953 4.36523C4.176 5.12699 3.68563 6.09576 3.28125 7.05664C2.4725 8.9784 2.01367 10.8828 2.01367 10.8828L2.98633 11.1172C2.98633 11.1172 3.43373 9.2716 4.20312 7.44336C4.58782 6.52924 5.05447 5.62301 5.55664 4.97852C6.05678 4.33662 6.55613 4.0066 6.99414 4.00391C7.41494 4.01769 7.77712 4.18889 8.15039 4.54688C8.52621 4.9073 8.89027 5.45502 9.22656 6.13477C9.89915 7.49426 10.4611 9.36093 11.0234 11.2363C11.5858 13.1117 12.1473 14.9954 12.8828 16.4512C13.2506 17.179 13.6611 17.806 14.1699 18.2676C14.6772 18.7277 15.3093 19.0155 16.0078 18.998C16.8844 18.9939 17.5504 18.3641 18.0391 17.5957C18.5293 16.8248 18.8954 15.8549 19.1816 14.8926C19.7541 12.9679 19.9961 11.0645 19.9961 11.0645L19.0039 10.9355C19.0039 10.9355 18.7656 12.7821 18.2227 14.6074C17.9512 15.5201 17.5993 16.4252 17.1953 17.0605C16.7913 17.6959 16.3884 18 16 18H15.9922H15.9863C15.5627 18.0117 15.2115 17.8608 14.8418 17.5254C14.4721 17.19 14.1103 16.6629 13.7754 16C13.1055 14.6743 12.5426 12.8239 11.9805 10.9492C11.4183 9.07449 10.8573 7.17551 10.123 5.69141C9.75593 4.94935 9.34558 4.30737 8.8418 3.82422C8.33801 3.34107 7.71537 3.01928 7.01367 3H7.00781H7Z" fill="url(#paint1_linear_10_13304)"/>
<defs>
<linearGradient id="paint0_linear_10_13304" x1="2" y1="11" x2="20" y2="11" gradientUnits="userSpaceOnUse">
<stop stop-color="#FDFC47"/>
<stop offset="1" stop-color="#24FE41"/>
</linearGradient>
<linearGradient id="paint1_linear_10_13304" x1="2.01367" y1="10.9994" x2="19.9961" y2="10.9994" gradientUnits="userSpaceOnUse">
<stop stop-color="#FDFC47"/>
<stop offset="1" stop-color="#24FE41"/>
</linearGradient>
</defs>
</svg>
