<svg width="22" height="22" viewBox="0 0 22 22" fill="none" xmlns="http://www.w3.org/2000/svg">
<path d="M2 3V19H11V18V11H18H19V3H2ZM18 11L17.0039 11.9941H17L12 16.9883L12.0078 16.9902L12.0039 17.9922H12V18.9824H14H14.0059H14.0098H14.0195L14.0137 18.9805L15 17.9941L19 14.002L18.2949 13.293L13.3047 18.2754L12.7109 17.6836L17.7031 12.6992L18.2949 13.293L19 13.9961L20 12.9961L18 11ZM3 4H10V10H3V4ZM11 4H18V10H11V4ZM6.08008 5.00195C5.54021 4.98058 5.01465 5.17854 4.62305 5.55078C3.96242 6.17865 3.80983 7.17373 4.25195 7.9707C4.69452 8.7674 5.61972 9.16414 6.50195 8.93555C7.38387 8.70689 7.9998 7.91108 8 7H6L7.05859 5.30273C6.76404 5.11928 6.42682 5.01563 6.08008 5.00195ZM3 11H10V18H3V11Z" fill="url(#paint0_linear_10_13257)"/>
<defs>
<linearGradient id="paint0_linear_10_13257" x1="2" y1="11" x2="20" y2="11" gradientUnits="userSpaceOnUse">
<stop stop-color="#FDFC47"/>
<stop offset="1" stop-color="#24FE41"/>
</linearGradient>
</defs>
</svg>
