<svg width="22" height="22" viewBox="0 0 22 22" fill="none" xmlns="http://www.w3.org/2000/svg">
<path d="M6 3L2 7V19H5V18H3V8H7V4H19V7H20V3H6ZM14 7L9.99805 11.002H8.00195V12.002H10.4121L14.002 8.41211L16.125 10.5352L16.1309 10.5312L16.1348 10.5352L18.9629 7.70703C18.9659 7.71203 18.2559 7 18.2559 7L16.1309 9.125L14.0039 7L14.002 7.00195L14 7ZM7 9V19H8H14V18H8V14H10.4609L13.9961 17.5352L13.998 17.5332L14 17.5352V16.1211L13.998 16.123L10.875 13H9.46094H8V9H7ZM17 14V16H15V17H17V19H18V17H20V16H18V14H17Z" fill="url(#paint0_linear_10_13288)"/>
<defs>
<linearGradient id="paint0_linear_10_13288" x1="2" y1="11" x2="20" y2="11" gradientUnits="userSpaceOnUse">
<stop stop-color="#FDFC47"/>
<stop offset="1" stop-color="#24FE41"/>
</linearGradient>
</defs>
</svg>
