<svg width="22" height="22" viewBox="0 0 22 22" fill="none" xmlns="http://www.w3.org/2000/svg">
<path d="M19.1918 18.8286H13.3193V17.9177L15.6452 15.5674C16.3457 14.8589 16.8092 14.3529 17.0359 14.0492C17.2627 13.7456 17.4307 13.4521 17.54 13.1687C17.6533 12.8853 17.71 12.5796 17.71 12.2517C17.71 11.782 17.5703 11.4156 17.291 11.1525C17.0116 10.8893 16.6291 10.7577 16.1432 10.7577C15.7789 10.7577 15.4327 10.8185 15.1048 10.9399C14.7809 11.0614 14.4145 11.282 14.0056 11.6019L13.4226 10.867C14.2525 10.1707 15.1594 9.82251 16.1432 9.82251C16.9691 9.82251 17.623 10.0351 18.1048 10.4602C18.5906 10.8812 18.8335 11.4561 18.8335 12.1849C18.8335 12.5735 18.7627 12.95 18.621 13.3144C18.4793 13.6747 18.2667 14.0432 17.9833 14.4197C17.6999 14.7921 17.2242 15.3043 16.5562 15.9561L14.704 17.784V17.8326H19.1918V18.8286Z" fill="url(#paint0_linear_10_13241)"/>
<path d="M3 3V5H4V4H5V3H3ZM8 3V4H10V3H8ZM12 3V4H14V3H12ZM17 3V4H18V5H19V3H17ZM9 7V8H11.293L8 11.293L8.70703 12L12 8.70703V11H13V7H12H9ZM3 8V10H4V8H3ZM3 13V19H9V13H3ZM4 14H8V18H4V14Z" fill="url(#paint1_linear_10_13241)"/>
<defs>
<linearGradient id="paint0_linear_10_13241" x1="13.3193" y1="14.3255" x2="19.1918" y2="14.3255" gradientUnits="userSpaceOnUse">
<stop stop-color="#FDFC47"/>
<stop offset="1" stop-color="#24FE41"/>
</linearGradient>
<linearGradient id="paint1_linear_10_13241" x1="3" y1="11" x2="19" y2="11" gradientUnits="userSpaceOnUse">
<stop stop-color="#FDFC47"/>
<stop offset="1" stop-color="#24FE41"/>
</linearGradient>
</defs>
</svg>
