<svg width="22" height="22" viewBox="0 0 22 22" fill="none" xmlns="http://www.w3.org/2000/svg">
<path d="M11.0957 7C8.88656 7 7.0957 8.79086 7.0957 11C7.0957 13.2091 8.88656 15 11.0957 15C13.3048 15 15.0957 13.2091 15.0957 11C15.0943 8.92517 13.5066 7.19588 11.4395 7.01758C11 7 11.0957 7 11.0957 7ZM11.0957 8C12.7526 8 14.0957 9.34315 14.0957 11C14.0957 12.6569 12.7526 14 11.0957 14C9.43885 14 8.0957 12.6569 8.0957 11C8.0957 9.34315 9.43885 8 11.0957 8ZM11.0957 9C9.9877 9 9.0957 9.892 9.0957 11C9.0957 12.108 9.9877 13 11.0957 13C12.2037 13 13.0957 12.108 13.0957 11C13.0957 10.7952 13.0567 10.6018 13 10.416C12.8421 10.7597 12.5 11 12.0957 11C11.5417 11 11.0957 10.554 11.0957 10C11.0957 9.59568 11.336 9.25359 11.6797 9.0957C11.4939 9.03902 11.3005 9 11.0957 9Z" fill="url(#paint0_linear_10_13333)"/>
<path d="M11 4C9.14348 4 7.36301 4.7375 6.05025 6.05025C4.7375 7.36301 4 9.14348 4 11C4 12.8565 4.7375 14.637 6.05025 15.9497C7.36301 17.2625 9.14348 18 11 18C12.8565 18 14.637 17.2625 15.9497 15.9497C17.2625 14.637 18 12.8565 18 11C18 9.14348 17.2625 7.36301 15.9497 6.05025C14.637 4.7375 12.8565 4 11 4ZM11 5C12.5913 5 14.1174 5.63214 15.2426 6.75736C16.3679 7.88258 17 9.4087 17 11C17 12.5913 16.3679 14.1174 15.2426 15.2426C14.1174 16.3679 12.5913 17 11 17C9.4087 17 7.88258 16.3679 6.75736 15.2426C5.63214 14.1174 5 12.5913 5 11C5 9.4087 5.63214 7.88258 6.75736 6.75736C7.88258 5.63214 9.4087 5 11 5Z" fill="url(#paint1_linear_10_13333)"/>
<defs>
<linearGradient id="paint0_linear_10_13333" x1="7.0957" y1="11" x2="15.0957" y2="11" gradientUnits="userSpaceOnUse">
<stop stop-color="#FDFC47"/>
<stop offset="1" stop-color="#24FE41"/>
</linearGradient>
<linearGradient id="paint1_linear_10_13333" x1="4" y1="11" x2="18" y2="11" gradientUnits="userSpaceOnUse">
<stop stop-color="#FDFC47"/>
<stop offset="1" stop-color="#24FE41"/>
</linearGradient>
</defs>
</svg>
