<svg width="22" height="22" viewBox="0 0 22 22" fill="none" xmlns="http://www.w3.org/2000/svg">
<path d="M10.5 2C10.223 2 9.99998 2.223 9.99998 2.5V9.293L8.73238 8.0254C8.53651 7.82953 8.22122 7.82953 8.02535 8.0254C7.82948 8.22127 7.82948 8.53656 8.02535 8.73243L10.1465 10.8535C10.1935 10.9005 10.2497 10.9376 10.3125 10.9629C10.3704 10.9862 10.4335 11 10.5 11C10.5664 11 10.6296 10.9862 10.6875 10.9629C10.7503 10.9376 10.8065 10.9005 10.8535 10.8535L12.9746 8.73243C13.1705 8.53656 13.1705 8.22127 12.9746 8.0254C12.7787 7.82953 12.4634 7.82953 12.2676 8.0254L11 9.293V2.5C11 2.223 10.777 2 10.5 2ZM6.99998 6.0293C5.85918 6.16441 5.11638 6.87608 4.83008 7.25L2.20508 10.6777C2.07192 10.8522 1.99985 11.0656 2 11.2851V16.9999C2 18.1079 2.892 18.9999 4 18.9999H17C18.108 18.9999 18.9979 18.1079 19 16.9999V11.2851C19.0001 11.0656 18.9281 10.8522 18.7949 10.6777L16.1699 7.25C15.8836 6.87608 15.1408 6.1644 14 6.0293V7.0449C14.7628 7.14927 15.1244 7.53007 15.375 7.8574L17.7812 11H12.9491C12.7115 12.1639 11.6878 12.9999 10.4999 13C9.31352 12.998 8.29192 12.1624 8.05462 11H3.21872L5.62492 7.8574C5.87553 7.53007 6.23714 7.14927 6.99992 7.0449L6.99998 6.0293ZM2.99998 12H7.34178C7.92053 13.2201 9.14958 13.9984 10.5 14C11.8483 13.9962 13.0745 13.2182 13.6523 12H18V17C18 17.554 17.554 18 17 18H3.99998C3.44598 18 2.99998 17.554 2.99998 17V12Z" fill="url(#paint0_linear_10_13419)"/>
<defs>
<linearGradient id="paint0_linear_10_13419" x1="2" y1="10.5" x2="19" y2="10.5" gradientUnits="userSpaceOnUse">
<stop stop-color="#FDFC47"/>
<stop offset="1" stop-color="#24FE41"/>
</linearGradient>
</defs>
</svg>
