<svg width="22" height="22" viewBox="0 0 22 22" fill="none" xmlns="http://www.w3.org/2000/svg">
<path d="M16.5 11.0181C15.5717 11.0181 14.6815 11.3868 14.0251 12.0432C13.3687 12.6996 13 13.5898 13 14.5181C13 15.4463 13.3687 16.3366 14.0251 16.9929C14.6815 17.6493 15.5717 18.0181 16.5 18.0181C17.4283 18.0181 18.3185 17.6493 18.9749 16.9929C19.6313 16.3366 20 15.4463 20 14.5181C20 13.5898 19.6313 12.6996 18.9749 12.0432C18.3185 11.3868 17.4283 11.0181 16.5 11.0181ZM16 12.0005H17V15.0181H16V12.0005ZM16 16.0181H17V17.0181H16V16.0181Z" fill="url(#paint0_linear_10_13390)"/>
<path d="M5 4C3.338 4 2 5.338 2 7V15C2 16.662 3.338 18 5 18H12V17H5C3.9308 17 3.0712 16.1671 3.0117 15.1133L7.6094 11.6153L8.3301 12.1641C9.31784 12.9153 10.7322 13.1483 12 12.8868V11.9845C11.0482 12.2832 9.9165 12.137 9.1406 11.547L3.0117 6.88675C3.07121 5.83295 3.9308 5.00005 5 5.00005H17C18.0692 5.00005 18.9288 5.83299 18.9883 6.88675L14.8945 10H16.5175L18.9999 8.11135V10H19.9999V7.00005C19.9999 5.33805 18.6619 4.00005 16.9999 4.00005L5 4ZM3 8.1094L6.8008 11L3 13.8887V8.1094Z" fill="url(#paint1_linear_10_13390)"/>
<defs>
<linearGradient id="paint0_linear_10_13390" x1="13" y1="14.5181" x2="20" y2="14.5181" gradientUnits="userSpaceOnUse">
<stop stop-color="#FDFC47"/>
<stop offset="1" stop-color="#24FE41"/>
</linearGradient>
<linearGradient id="paint1_linear_10_13390" x1="2" y1="11" x2="19.9999" y2="11" gradientUnits="userSpaceOnUse">
<stop stop-color="#FDFC47"/>
<stop offset="1" stop-color="#24FE41"/>
</linearGradient>
</defs>
</svg>
