<svg width="22" height="22" viewBox="0 0 22 22" fill="none" xmlns="http://www.w3.org/2000/svg">
<path d="M16.4489 11.0001C15.5383 11.0136 14.6689 11.3814 14.0251 12.0255C13.3689 12.6819 13.0002 13.572 13.0002 14.5001C13.0002 15.4282 13.3689 16.3184 14.0251 16.9747C14.6815 17.6309 15.5716 17.9996 16.4997 17.9996C17.4278 17.9996 18.3179 17.6309 18.9743 16.9747C19.6305 16.3184 19.9991 15.4282 19.9991 14.5001C19.9991 13.572 19.6305 12.6819 18.9743 12.0255C18.6433 11.6944 18.2493 11.433 17.8155 11.2569C17.3817 11.0807 16.917 10.9934 16.4489 11.0001ZM16.5368 12.0001C17.0139 12.0081 17.4788 12.1524 17.8766 12.4161L14.4137 15.879C14.096 15.3982 13.9541 14.8224 14.0121 14.249C14.0701 13.6757 14.3244 13.1399 14.732 12.7325C14.9686 12.4959 15.2501 12.3092 15.5601 12.1833C15.8701 12.0575 16.2023 11.9952 16.5368 12.0001ZM18.5856 13.1212C18.9033 13.602 19.0452 14.1778 18.9872 14.7512C18.9292 15.3246 18.6748 15.8603 18.2672 16.2677C17.8597 16.6745 17.3242 16.9282 16.7513 16.9858C16.1784 17.0435 15.6031 16.9016 15.1227 16.5841L18.5856 13.1212Z" fill="url(#paint0_linear_10_13393)"/>
<path d="M5 4C3.338 4 2 5.338 2 7V15C2 16.662 3.338 18 5 18H12V17H5C3.9308 17 3.0712 16.1671 3.0117 15.1133L7.6094 11.6153L8.3301 12.1641C9.31784 12.9153 10.7322 13.1483 12 12.8868V11.9845C11.0482 12.2832 9.9165 12.137 9.1406 11.547L3.0117 6.88675C3.07121 5.83295 3.9308 5.00005 5 5.00005H17C18.0692 5.00005 18.9288 5.83299 18.9883 6.88675L14.8945 10H16.5175L18.9999 8.11135V10H19.9999V7.00005C19.9999 5.33805 18.6619 4.00005 16.9999 4.00005L5 4ZM3 8.1094L6.8008 11L3 13.8887V8.1094Z" fill="url(#paint1_linear_10_13393)"/>
<defs>
<linearGradient id="paint0_linear_10_13393" x1="13.0002" y1="14.4997" x2="19.9991" y2="14.4997" gradientUnits="userSpaceOnUse">
<stop stop-color="#FDFC47"/>
<stop offset="1" stop-color="#24FE41"/>
</linearGradient>
<linearGradient id="paint1_linear_10_13393" x1="2" y1="11" x2="19.9999" y2="11" gradientUnits="userSpaceOnUse">
<stop stop-color="#FDFC47"/>
<stop offset="1" stop-color="#24FE41"/>
</linearGradient>
</defs>
</svg>
