<svg width="22" height="22" viewBox="0 0 22 22" fill="none" xmlns="http://www.w3.org/2000/svg">
<path d="M1 3V4V12V18V18.4141V19H2H8H14V18H8H2V17.4141L2.46289 16.9512L8.73047 10.6836L10.1836 12.1348L10.998 12.9492H11L11.8164 12.1348L13.2695 10.6836L14.5859 12H16L13.9766 9.97656L19.7285 4.22266L19.9512 4H20V4.22266V12H21V3H20.9512H20H19.5371H2.46289H2H1ZM2 4H2.04883L2.27148 4.22266L8.02344 9.97656L2 16V12V4.22266V4ZM3.46289 4H18.5371L11 11.5371L3.46289 4ZM15 14V15H21V14H15ZM15 16V17H21V16H15ZM15 18V19H21V18H15Z" fill="url(#paint0_linear_10_13411)"/>
<defs>
<linearGradient id="paint0_linear_10_13411" x1="1" y1="11" x2="21" y2="11" gradientUnits="userSpaceOnUse">
<stop stop-color="#FDFC47"/>
<stop offset="1" stop-color="#24FE41"/>
</linearGradient>
</defs>
</svg>
