<svg width="22" height="22" viewBox="0 0 22 22" fill="none" xmlns="http://www.w3.org/2000/svg">
<path d="M16.5 11C15.5717 11 14.6815 11.3687 14.0251 12.0251C13.3687 12.6815 13 13.5717 13 14.5C13 15.4283 13.3687 16.3185 14.0251 16.9749C14.6815 17.6313 15.5717 18 16.5 18C17.4283 18 18.3185 17.6313 18.9749 16.9749C19.6313 16.3185 20 15.4283 20 14.5C20 13.5717 19.6313 12.6815 18.9749 12.0251C18.3185 11.3687 17.4283 11 16.5 11ZM18.4902 12.3789L19.1972 13.0859L15.662 16.6211L13.5409 14.5L14.248 13.793L15.6621 15.2071L18.4902 12.3789Z" fill="url(#paint0_linear_10_13396)"/>
<path d="M5 4C3.338 4 2 5.338 2 7V15C2 16.662 3.338 18 5 18H12V17H5C3.9308 17 3.0712 16.1671 3.0117 15.1133L7.6094 11.6153L8.3301 12.1641C9.31784 12.9153 10.7322 13.1483 12 12.8868V11.9845C11.0482 12.2832 9.9165 12.137 9.1406 11.547L3.0117 6.88675C3.07121 5.83295 3.9308 5.00005 5 5.00005H17C18.0692 5.00005 18.9288 5.83299 18.9883 6.88675L14.8945 10H16.5175L18.9999 8.11135V10H19.9999V7.00005C19.9999 5.33805 18.6619 4.00005 16.9999 4.00005L5 4ZM3 8.1094L6.8008 11L3 13.8887V8.1094Z" fill="url(#paint1_linear_10_13396)"/>
<defs>
<linearGradient id="paint0_linear_10_13396" x1="13" y1="14.5" x2="20" y2="14.5" gradientUnits="userSpaceOnUse">
<stop stop-color="#FDFC47"/>
<stop offset="1" stop-color="#24FE41"/>
</linearGradient>
<linearGradient id="paint1_linear_10_13396" x1="2" y1="11" x2="19.9999" y2="11" gradientUnits="userSpaceOnUse">
<stop stop-color="#FDFC47"/>
<stop offset="1" stop-color="#24FE41"/>
</linearGradient>
</defs>
</svg>
