<svg width="22" height="22" viewBox="0 0 22 22" fill="none" xmlns="http://www.w3.org/2000/svg">
<path d="M7 1C5.892 1 5 1.892 5 3V4C3.338 4 2 5.338 2 7V15C2 16.662 3.338 18 5 18H17C18.662 18 20 16.662 20 15V7C20 5.338 18.662 4 17 4V3C17 1.892 16.108 1 15 1H7ZM7 2H15C15.554 2 16 2.446 16 3V9.1582L12.8594 11.5469C11.8292 12.3304 10.1708 12.3304 9.1406 11.5469L6 9.1582V3C6 2.446 6.446 2 7 2ZM7.5 4C7.223 4 7 4.223 7 4.5C7 4.777 7.223 5 7.5 5H14.5C14.777 5 15 4.777 15 4.5C15 4.223 14.777 4 14.5 4H7.5ZM5 5V8.3984L3.0117 6.8867C3.07121 5.8329 3.9308 5 5 5ZM17 5C18.0692 5 18.9288 5.83294 18.9883 6.8867L17 8.3984V5ZM7.5 7C7.223 7 7 7.223 7 7.5C7 7.777 7.223 8 7.5 8H14.5C14.777 8 15 7.777 15 7.5C15 7.223 14.777 7 14.5 7H7.5ZM3 8.1094L6.8008 11L3 13.8887V8.1094ZM19 8.11135V13.8887L15.2031 11L19 8.11135ZM7.609 11.6153L8.3297 12.1641C9.795 13.2785 12.2061 13.2785 13.6715 12.1641L14.3903 11.6172L18.9879 15.1133C18.9284 16.1671 18.0688 17 16.9996 17H4.99965C3.93045 17 3.07085 16.1671 3.01135 15.1133L7.609 11.6153Z" fill="url(#paint0_linear_10_13399)"/>
<defs>
<linearGradient id="paint0_linear_10_13399" x1="2" y1="9.5" x2="20" y2="9.5" gradientUnits="userSpaceOnUse">
<stop stop-color="#FDFC47"/>
<stop offset="1" stop-color="#24FE41"/>
</linearGradient>
</defs>
</svg>
