<svg width="22" height="22" viewBox="0 0 22 22" fill="none" xmlns="http://www.w3.org/2000/svg">
<path d="M17.5 12C16.6716 12 16 12.6716 16 13.5V15H15V18H20V15H19V13.5C19 12.6716 18.3284 12 17.5 12ZM17.5 13C17.7761 13 18 13.2239 18 13.5V15H17V13.5C17 13.2239 17.2239 13 17.5 13ZM16 16H19V17H16V16Z" fill="url(#paint0_linear_10_13369)"/>
<path d="M5 4C3.338 4 2 5.338 2 7V15C2 16.662 3.338 18 5 18H14V17H5C3.9308 17 3.0712 16.1671 3.0117 15.1133L7.6094 11.6153L8.3301 12.1641C9.7954 13.2785 12.2065 13.2785 13.6719 12.1641L19 8.11143V11.0001H20V7.00013C20 5.33813 18.662 4.00013 17 4.00013L5 4ZM5 5H17C18.0692 5 18.9288 5.83294 18.9883 6.8867L12.8594 11.5469C11.8292 12.3304 10.1708 12.3304 9.1406 11.5469L3.0117 6.8867C3.07121 5.8329 3.9308 5 5 5ZM3 8.1094L6.8008 11L3 13.8887V8.1094Z" fill="url(#paint1_linear_10_13369)"/>
<path d="M17.5 12C16.6716 12 16 12.6716 16 13.5V15H15V18H20V15H19V13.5C19 12.6716 18.3284 12 17.5 12ZM17.5 13C17.7761 13 18 13.2239 18 13.5V15H17V13.5C17 13.2239 17.2239 13 17.5 13ZM16 16H19V17H16V16Z" fill="url(#paint2_linear_10_13369)"/>
<defs>
<linearGradient id="paint0_linear_10_13369" x1="15" y1="15" x2="20" y2="15" gradientUnits="userSpaceOnUse">
<stop stop-color="#FDFC47"/>
<stop offset="1" stop-color="#24FE41"/>
</linearGradient>
<linearGradient id="paint1_linear_10_13369" x1="2" y1="11" x2="20" y2="11" gradientUnits="userSpaceOnUse">
<stop stop-color="#FDFC47"/>
<stop offset="1" stop-color="#24FE41"/>
</linearGradient>
<linearGradient id="paint2_linear_10_13369" x1="15" y1="15" x2="20" y2="15" gradientUnits="userSpaceOnUse">
<stop stop-color="#FDFC47"/>
<stop offset="1" stop-color="#24FE41"/>
</linearGradient>
</defs>
</svg>
