<svg width="22" height="22" viewBox="0 0 22 22" fill="none" xmlns="http://www.w3.org/2000/svg">
<path d="M8 4.00001V5.00001H17C18.0692 5.00001 18.9288 5.83295 18.9883 6.88671L12.8594 11.5469C11.8292 12.3304 10.1708 12.3304 9.1406 11.5469L8 10.6797V11.9121L8.33008 12.1641C9.79538 13.2785 12.2065 13.2785 13.6719 12.1641L14.3906 11.6172L18.9883 15.1133C18.9288 16.1671 18.0692 17 17 17H8.00003V18H17C18.662 18 20 16.662 20 15V7C20 5.338 18.662 4 17 4L8 4.00001ZM19 8.11131V13.8886L15.2031 10.9999L19 8.11131Z" fill="url(#paint0_linear_10_13433)"/>
<path d="M6.5 7H1.5C1.22386 7 1 7.22386 1 7.5C1 7.77614 1.22386 8 1.5 8H6.5C6.77614 8 7 7.77614 7 7.5C7 7.22386 6.77614 7 6.5 7Z" fill="url(#paint1_linear_10_13433)"/>
<path d="M6.5 11H2.5C2.22386 11 2 11.2239 2 11.5C2 11.7761 2.22386 12 2.5 12H6.5C6.77614 12 7 11.7761 7 11.5C7 11.2239 6.77614 11 6.5 11Z" fill="url(#paint2_linear_10_13433)"/>
<path d="M6.5 15H3.5C3.22386 15 3 15.2239 3 15.5C3 15.7761 3.22386 16 3.5 16H6.5C6.77614 16 7 15.7761 7 15.5C7 15.2239 6.77614 15 6.5 15Z" fill="url(#paint3_linear_10_13433)"/>
<defs>
<linearGradient id="paint0_linear_10_13433" x1="8" y1="11" x2="20" y2="11" gradientUnits="userSpaceOnUse">
<stop stop-color="#FDFC47"/>
<stop offset="1" stop-color="#24FE41"/>
</linearGradient>
<linearGradient id="paint1_linear_10_13433" x1="1" y1="7.5" x2="7" y2="7.5" gradientUnits="userSpaceOnUse">
<stop stop-color="#FDFC47"/>
<stop offset="1" stop-color="#24FE41"/>
</linearGradient>
<linearGradient id="paint2_linear_10_13433" x1="2" y1="11.5" x2="7" y2="11.5" gradientUnits="userSpaceOnUse">
<stop stop-color="#FDFC47"/>
<stop offset="1" stop-color="#24FE41"/>
</linearGradient>
<linearGradient id="paint3_linear_10_13433" x1="3" y1="15.5" x2="7" y2="15.5" gradientUnits="userSpaceOnUse">
<stop stop-color="#FDFC47"/>
<stop offset="1" stop-color="#24FE41"/>
</linearGradient>
</defs>
</svg>
