<svg width="22" height="22" viewBox="0 0 22 22" fill="none" xmlns="http://www.w3.org/2000/svg">
<path d="M1 3V12H2V4.22266V4H2.04883L2.27148 4.22266L8.02344 9.97656L6 12H7.41406L8.73047 10.6836L10.1836 12.1348L11 12.9492H11.002L11.8164 12.1348L13.2695 10.6836L14.5859 12H16L13.9766 9.97656L19.7285 4.22266L19.9512 4H20V4.22266V12H21V4V3H20H19.5371H2.46289H2H1.04883H1ZM3.46289 4H18.5371L11 11.5371L3.46289 4ZM4 13L1 16L4 19V17H5H6V15H5H4V13ZM15 14V15H21V14H15ZM15 16V17H21V16H15ZM8 18V19H14V18H8ZM15 18V19H21V18H15Z" fill="url(#paint0_linear_10_13429)"/>
<defs>
<linearGradient id="paint0_linear_10_13429" x1="1" y1="11" x2="21" y2="11" gradientUnits="userSpaceOnUse">
<stop stop-color="#FDFC47"/>
<stop offset="1" stop-color="#24FE41"/>
</linearGradient>
</defs>
</svg>
