<svg width="22" height="22" viewBox="0 0 22 22" fill="none" xmlns="http://www.w3.org/2000/svg">
<path d="M3 3V4V5V6L1 9V10V11.4004V12V13H2V12V11V10.4004V10H2.40039H3H4.07812L11 13.9961L17.9219 10H18H19H20V10.4004V11V12H21V11.4004V9.98633V9L19 6V3H4H3ZM4 4H18V5V8.79883L11 12.8398L4 8.79883V5V4ZM5 5V5.98633L4.98633 6H5H17H17.0137L17 5.98633V5H5ZM5 7V8H12V7H5ZM17.707 12L17 12.707L19.293 15H15V16H19.293L17 18.293L17.707 19L21 15.707L21.207 15.5L21 15.293L17.707 12ZM4 13L1 16L4 19V17H5H6V15H5H4V13ZM7 18V19H8H14V18H7Z" fill="url(#paint0_linear_10_13378)"/>
<defs>
<linearGradient id="paint0_linear_10_13378" x1="1" y1="11" x2="21.207" y2="11" gradientUnits="userSpaceOnUse">
<stop stop-color="#FDFC47"/>
<stop offset="1" stop-color="#24FE41"/>
</linearGradient>
</defs>
</svg>
