<svg width="22" height="22" viewBox="0 0 22 22" fill="none" xmlns="http://www.w3.org/2000/svg">
<path d="M1 3V12H2V4.22266V4H2.04883L2.27148 4.22266L8.02344 9.97656L6 12H7.41406L8.73047 10.6836L10.1836 12.1348L11 12.9492H11.002L11.8164 12.1348L13.2695 10.6836L19.5371 16.9512L20 17.4141V18H14H8V19H14H20H21V18.4141V18V12V4V3H20H19.5371H2.46289H2H1.04883H1ZM3.46289 4H18.5371L11 11.5371L3.46289 4ZM19.9512 4H20V4.22266V12V16L13.9766 9.97656L19.7285 4.22266L19.9512 4ZM4 13L1 16L4 19V17H5H6V15H5H4V13Z" fill="url(#paint0_linear_10_13431)"/>
<defs>
<linearGradient id="paint0_linear_10_13431" x1="1" y1="11" x2="21" y2="11" gradientUnits="userSpaceOnUse">
<stop stop-color="#FDFC47"/>
<stop offset="1" stop-color="#24FE41"/>
</linearGradient>
</defs>
</svg>
