<svg width="22" height="22" viewBox="0 0 22 22" fill="none" xmlns="http://www.w3.org/2000/svg">
<path d="M16.5049 11.0181C15.5766 11.0181 14.6864 11.3868 14.03 12.0432C13.3736 12.6996 13.0049 13.5898 13.0049 14.5181C13.0049 15.4463 13.3736 16.3366 14.03 16.9929C14.6864 17.6493 15.5766 18.0181 16.5049 18.0181C17.4331 18.0181 18.3234 17.6493 18.9798 16.9929C19.6361 16.3366 20.0049 15.4463 20.0049 14.5181C20.0049 13.5898 19.6361 12.6996 18.9798 12.0432C18.3234 11.3868 17.4331 11.0181 16.5049 11.0181ZM16.5049 12.0005C16.8355 12.0004 17.1629 12.0655 17.4684 12.1919C17.7739 12.3184 18.0515 12.5039 18.2853 12.7377C18.5191 12.9715 18.7045 13.249 18.831 13.5545C18.9575 13.86 19.0226 14.1874 19.0225 14.5181C19.0216 14.8784 18.9434 15.2344 18.7932 15.5619C18.6429 15.8894 18.424 16.1809 18.1514 16.4165C17.645 16.1447 17.0796 16.0019 16.5049 16.0005C15.9291 16.0006 15.3622 16.1428 14.8545 16.4145C14.5828 16.1787 14.3648 15.8875 14.2152 15.5603C14.0657 15.2332 13.9879 14.8778 13.9873 14.518C13.9872 14.1874 14.0523 13.86 14.1788 13.5545C14.3052 13.249 14.4907 12.9714 14.7245 12.7376C14.9583 12.5038 15.2359 12.3184 15.5414 12.1919C15.8468 12.0654 16.1742 12.0004 16.5049 12.0005ZM16.5049 13.0005C16.2397 13.0005 15.9853 13.1058 15.7978 13.2934C15.6102 13.4809 15.5049 13.7353 15.5049 14.0005C15.5049 14.2657 15.6102 14.5201 15.7978 14.7076C15.9853 14.8951 16.2397 15.0005 16.5049 15.0005C16.7701 15.0005 17.0245 14.8951 17.212 14.7076C17.3995 14.5201 17.5049 14.2657 17.5049 14.0005C17.5049 13.7353 17.3995 13.4809 17.212 13.2934C17.0245 13.1058 16.7701 13.0005 16.5049 13.0005Z" fill="url(#paint0_linear_10_13382)"/>
<path d="M5 4C3.338 4 2 5.338 2 7V15C2 16.662 3.338 18 5 18H12V17H5C3.9308 17 3.0712 16.1671 3.0117 15.1133L7.6094 11.6153L8.3301 12.1641C9.31784 12.9153 10.7322 13.1483 12 12.8868V11.9845C11.0482 12.2832 9.9165 12.137 9.1406 11.547L3.0117 6.88675C3.07121 5.83295 3.9308 5.00005 5 5.00005V4ZM17 4V5C18.0692 5 18.9288 5.83294 18.9883 6.8867L14.8945 10H16.5175L18.9999 8.1113V10H19.9999V7C19.9999 5.338 18.662 4 17 4ZM3 8.1094L6.8008 11L3 13.8887V8.1094Z" fill="url(#paint1_linear_10_13382)"/>
<path d="M7 1C5.892 1 5 1.892 5 3V9.3711H6V3C6 2.446 6.446 2 7 2H15C15.554 2 16 2.446 16 3V9.3711H17V3C17 1.892 16.108 1 15 1H7Z" fill="url(#paint2_linear_10_13382)"/>
<path d="M14.5 4H7.5C7.22386 4 7 4.22386 7 4.5C7 4.77614 7.22386 5 7.5 5H14.5C14.7761 5 15 4.77614 15 4.5C15 4.22386 14.7761 4 14.5 4Z" fill="url(#paint3_linear_10_13382)"/>
<path d="M14.5 7H7.5C7.22386 7 7 7.22386 7 7.5C7 7.77614 7.22386 8 7.5 8H14.5C14.7761 8 15 7.77614 15 7.5C15 7.22386 14.7761 7 14.5 7Z" fill="url(#paint4_linear_10_13382)"/>
<defs>
<linearGradient id="paint0_linear_10_13382" x1="13.0049" y1="14.5181" x2="20.0049" y2="14.5181" gradientUnits="userSpaceOnUse">
<stop stop-color="#FDFC47"/>
<stop offset="1" stop-color="#24FE41"/>
</linearGradient>
<linearGradient id="paint1_linear_10_13382" x1="2" y1="11" x2="19.9999" y2="11" gradientUnits="userSpaceOnUse">
<stop stop-color="#FDFC47"/>
<stop offset="1" stop-color="#24FE41"/>
</linearGradient>
<linearGradient id="paint2_linear_10_13382" x1="5" y1="5.18555" x2="17" y2="5.18555" gradientUnits="userSpaceOnUse">
<stop stop-color="#FDFC47"/>
<stop offset="1" stop-color="#24FE41"/>
</linearGradient>
<linearGradient id="paint3_linear_10_13382" x1="7" y1="4.5" x2="15" y2="4.5" gradientUnits="userSpaceOnUse">
<stop stop-color="#FDFC47"/>
<stop offset="1" stop-color="#24FE41"/>
</linearGradient>
<linearGradient id="paint4_linear_10_13382" x1="7" y1="7.5" x2="15" y2="7.5" gradientUnits="userSpaceOnUse">
<stop stop-color="#FDFC47"/>
<stop offset="1" stop-color="#24FE41"/>
</linearGradient>
</defs>
</svg>
