<svg width="22" height="22" viewBox="0 0 22 22" fill="none" xmlns="http://www.w3.org/2000/svg">
<path d="M3 3V4V5V6L1 9V10V11.4004V12H2V11V10.4004V10H2.40039H3H4.07812L11 13.9961L17.9219 10H18H19H20V10.4004V11V12V18H14H7V19H8H14H20H21V18V12V11.4004V9.98633V9L19 6V3H4H3ZM4 4H18V5V8.79883L11 12.8398L4 8.79883V5V4ZM5 5V5.98633L4.98633 6H5H17H17.0137L17 5.98633V5H5ZM5 7V8H12V7H5ZM4 13L1 16L4 19V17H6V15H4V13Z" fill="url(#paint0_linear_10_13421)"/>
<defs>
<linearGradient id="paint0_linear_10_13421" x1="1" y1="11" x2="21" y2="11" gradientUnits="userSpaceOnUse">
<stop stop-color="#FDFC47"/>
<stop offset="1" stop-color="#24FE41"/>
</linearGradient>
</defs>
</svg>
