<svg width="22" height="22" viewBox="0 0 22 22" fill="none" xmlns="http://www.w3.org/2000/svg">
<path d="M3 4V19H8H9H13H14H19V4H3ZM4 5H8V8H4V5ZM9 5H13V8H9V5ZM14 5H18V8H14V5ZM4 9H8V11H4V9ZM9 9H13V11H9V9ZM14 9H18V11H14V9ZM4 12H8V14H4V12ZM9 12H13V14H9V12ZM14 12H18V14H14V12ZM4 15H8V18H4V15ZM9 15H13V18H9V15ZM14 15H18V18H14V15Z" fill="url(#paint0_linear_10_13461)"/>
<defs>
<linearGradient id="paint0_linear_10_13461" x1="3" y1="11.5" x2="19" y2="11.5" gradientUnits="userSpaceOnUse">
<stop stop-color="#FDFC47"/>
<stop offset="1" stop-color="#24FE41"/>
</linearGradient>
</defs>
</svg>
