<svg width="22" height="22" viewBox="0 0 22 22" fill="none" xmlns="http://www.w3.org/2000/svg">
<path d="M3 3V19H19V3H3ZM4 4H8V8H4V4ZM9 4H13V8H9V4ZM14 4H18V8H14V4ZM4 9H8V13H4V9ZM9 9H13V13H9V9ZM14 9H18V13H14V9ZM4 14H8V18H4V14ZM9 14H13V18H9V14ZM14 14H18V18H14V14Z" fill="url(#paint0_linear_10_13455)"/>
<defs>
<linearGradient id="paint0_linear_10_13455" x1="3" y1="11" x2="19" y2="11" gradientUnits="userSpaceOnUse">
<stop stop-color="#FDFC47"/>
<stop offset="1" stop-color="#24FE41"/>
</linearGradient>
</defs>
</svg>
