<svg width="22" height="22" viewBox="0 0 22 22" fill="none" xmlns="http://www.w3.org/2000/svg">
<path d="M2 3V19H3H9V18H8C8 17.4477 7.55228 17 7 17C6.44772 17 6 17.4477 6 18H5V11V4H6C6 4.55228 6.44772 5 7 5C7.55228 5 8 4.55228 8 4H12H16C16 4.55228 16.4477 5 17 5C17.5523 5 18 4.55228 18 4H19V11V12H20V3H3H2ZM19 11C19 7.13401 15.866 4 12 4C8.13401 4 5 7.13401 5 11C5.00315 13.7008 6.55978 16.1589 9 17.3164V16.1895C7.14566 15.1189 6.00239 13.1412 6 11C6 7.68629 8.68629 5 12 5C15.3137 5 18 7.68629 18 11C17.998 11.3353 17.968 11.6698 17.9102 12H18.9219C18.9718 11.669 18.9979 11.3348 19 11ZM3 4H4V18H3V4ZM12 12L10 13.5L12 15V14H17C17.554 14 18 14.446 18 15H19C19 13.892 18.108 13 17 13H12V12ZM10 16C10 17.108 10.892 18 12 18H17V19L19 17.5L17 16V17H12C11.446 17 11 16.554 11 16H10Z" fill="url(#paint0_linear_10_13498)"/>
<defs>
<linearGradient id="paint0_linear_10_13498" x1="2" y1="11" x2="20" y2="11" gradientUnits="userSpaceOnUse">
<stop stop-color="#FDFC47"/>
<stop offset="1" stop-color="#24FE41"/>
</linearGradient>
</defs>
</svg>
