<svg width="22" height="22" viewBox="0 0 22 22" fill="none" xmlns="http://www.w3.org/2000/svg">
<path d="M4.5 3C3.67158 3 3.00001 3.67157 3 4.5C3.00001 5.32843 3.67158 6 4.5 6C5.32842 6 5.99999 5.32843 6 4.5C5.99999 3.67157 5.32842 3 4.5 3ZM7 4V5H8V4H7ZM9 4V5H19V4H9ZM9 6V7H12V6H9ZM4.5 9C3.67157 9 3 9.67157 3 10.5C3 11.3284 3.67157 12 4.5 12C5.32843 12 6 11.3284 6 10.5C6 9.67157 5.32843 9 4.5 9ZM7 10V11H8V10H7ZM17 11V12H16H15.9766C14.3276 12 13 13.3276 13 14.9766V15C13 16.108 12.108 17 11 17H8V18H11H11.0234C12.6724 18 14 16.6724 14 15.0234V15C14 13.892 14.892 13 16 13H17V14L19 12.5L17 11ZM8 12V13H11C11.3989 13 11.7668 13.1187 12.0781 13.3184C12.1538 12.9815 12.288 12.6691 12.4668 12.3867C12.0379 12.1478 11.5511 12 11.0234 12H11H8ZM4.5 15C3.67157 15 3 15.6716 3 16.5C3 17.3284 3.67157 18 4.5 18C5.32843 18 6 17.3284 6 16.5C6 15.6716 5.32843 15 4.5 15ZM17 16V17H16C15.6011 17 15.2332 16.8813 14.9219 16.6816C14.8462 17.0185 14.712 17.3309 14.5332 17.6133C14.9621 17.8522 15.4489 18 15.9766 18H16H17V19L19 17.5L17 16Z" fill="url(#paint0_linear_10_13493)"/>
<defs>
<linearGradient id="paint0_linear_10_13493" x1="3" y1="11" x2="19" y2="11" gradientUnits="userSpaceOnUse">
<stop stop-color="#FDFC47"/>
<stop offset="1" stop-color="#24FE41"/>
</linearGradient>
</defs>
</svg>
