<svg width="22" height="22" viewBox="0 0 22 22" fill="none" xmlns="http://www.w3.org/2000/svg">
<path d="M3 3V7H9H10H11V15H10H9H3V19H12V15V13H19V9H12V7V3H3ZM4 4H11V6H4V4ZM7.5 8C7.223 8 7 8.223 7 8.5C7 8.777 7.223 9 7.5 9C7.777 9 8 8.777 8 8.5C8 8.223 7.777 8 7.5 8ZM12 10H13H14H18V12H14H13H12V10ZM7.5 13C7.223 13 7 13.223 7 13.5C7 13.777 7.223 14 7.5 14C7.777 14 8 13.777 8 13.5C8 13.223 7.777 13 7.5 13ZM4 16H11V18H4V16Z" fill="url(#paint0_linear_10_13537)"/>
<defs>
<linearGradient id="paint0_linear_10_13537" x1="3" y1="11" x2="19" y2="11" gradientUnits="userSpaceOnUse">
<stop stop-color="#FDFC47"/>
<stop offset="1" stop-color="#24FE41"/>
</linearGradient>
</defs>
</svg>
