<svg width="22" height="22" viewBox="0 0 22 22" fill="none" xmlns="http://www.w3.org/2000/svg">
<path d="M8.00001 4V6V14H9.00001V6H16V14H17V6V4H8.00001ZM5.08591 14.301L4.37891 15.008L5.79301 16.422L4.37891 17.836L5.08591 18.543L6.50001 17.129L7.91411 18.543L8.62111 17.836L7.20701 16.422L8.62111 15.008L7.91411 14.301L6.50001 15.715L5.08591 14.301ZM13.086 14.301L12.379 15.008L13.793 16.422L12.379 17.836L13.086 18.543L14.5 17.129L15.914 18.543L16.621 17.836L15.207 16.422L16.621 15.008L15.914 14.301L14.5 15.715L13.086 14.301Z" fill="url(#paint0_linear_10_13550)"/>
<defs>
<linearGradient id="paint0_linear_10_13550" x1="4.37891" y1="11.2715" x2="17" y2="11.2715" gradientUnits="userSpaceOnUse">
<stop stop-color="#FDFC47"/>
<stop offset="1" stop-color="#24FE41"/>
</linearGradient>
</defs>
</svg>
