<svg width="22" height="22" viewBox="0 0 22 22" fill="none" xmlns="http://www.w3.org/2000/svg">
<path d="M3 3V4H10V3H3ZM12 3V4H19V3H12ZM3 6V7H10V6H3ZM12 6V7H19V6H12ZM3 9V10H10V9H3ZM12 9V10H19V9H12ZM3 13V14H10V13H3ZM18 13C17.554 13.0008 17.1164 13.1208 16.7324 13.3477C16.9395 13.6094 17.1158 13.8935 17.2422 14.207C17.4719 14.0719 17.7335 14.0005 18 14H20.0098V13H18ZM13 16L11 17.5L13 19V18H14C14.446 17.9992 14.8836 17.8792 15.2676 17.6523C15.0605 17.3906 14.8842 17.1065 14.7578 16.793C14.5281 16.9281 14.2665 16.9995 14 17H13V16ZM3 17V18H10V17H3Z" fill="url(#paint0_linear_10_13565)"/>
<path d="M13 12L11 13.5L13 15V14H14C14.8284 14 15.5 14.6716 15.5 15.5C15.5 16.8807 16.6193 18 18 18H20.0312V17H18C17.1716 17 16.5 16.3284 16.5 15.5C16.5 14.1193 15.3807 13 14 13H13V12Z" fill="url(#paint1_linear_10_13565)"/>
<defs>
<linearGradient id="paint0_linear_10_13565" x1="3" y1="11" x2="20.0098" y2="11" gradientUnits="userSpaceOnUse">
<stop stop-color="#FDFC47"/>
<stop offset="1" stop-color="#24FE41"/>
</linearGradient>
<linearGradient id="paint1_linear_10_13565" x1="11" y1="15" x2="20.0312" y2="15" gradientUnits="userSpaceOnUse">
<stop stop-color="#FDFC47"/>
<stop offset="1" stop-color="#24FE41"/>
</linearGradient>
</defs>
</svg>
