<svg width="22" height="22" viewBox="0 0 22 22" fill="none" xmlns="http://www.w3.org/2000/svg">
<path d="M3 3V4H10V3H3ZM12 3V4H19V3H12ZM3 6V7H10V6H3ZM12 6V7H19V6H12ZM3 9V10H10V9H3ZM12 9V10H19V9H12ZM3 13V14H10V13H3ZM11 16C11 17.108 11.892 18 13 18H18V19L20 17.5L18 16V17H13C12.446 17 12 16.554 12 16H11ZM3 17V18H10V17H3Z" fill="url(#paint0_linear_10_13559)"/>
<path d="M13 12L11 13.5L13 15V14H18C18.554 14 19 14.446 19 15H20C20 13.892 19.108 13 18 13H13V12Z" fill="url(#paint1_linear_10_13559)"/>
<defs>
<linearGradient id="paint0_linear_10_13559" x1="3" y1="11" x2="20" y2="11" gradientUnits="userSpaceOnUse">
<stop stop-color="#FDFC47"/>
<stop offset="1" stop-color="#24FE41"/>
</linearGradient>
<linearGradient id="paint1_linear_10_13559" x1="11" y1="13.5" x2="20" y2="13.5" gradientUnits="userSpaceOnUse">
<stop stop-color="#FDFC47"/>
<stop offset="1" stop-color="#24FE41"/>
</linearGradient>
</defs>
</svg>
