<svg width="22" height="22" viewBox="0 0 22 22" fill="none" xmlns="http://www.w3.org/2000/svg">
<path d="M11 3V4V7V8V12V14.6406C10.4507 14.2292 9.73857 14.0011 9 14C7.34315 14 6 15.1193 6 16.5C6 17.8807 7.34315 19 9 19C10.6569 19 12 17.8807 12 16.5V12V8.0957C13.4739 8.34766 15.1809 9.47717 16 10.2443V9.5V9V8.84375V5.5V4.84375C14.7885 3.84729 12.9712 3 11 3ZM12 4.0957C13.1328 4.28934 14.1947 4.77575 15 5.3418V8.14648C14.1378 7.63414 13.108 7.23782 12 7.08008V4.0957ZM9 15C10.1046 15 11 15.6716 11 16.5C11 17.3284 10.1046 18 9 18C7.89543 18 7 17.3284 7 16.5C7 15.6716 7.89543 15 9 15Z" fill="url(#paint0_linear_10_13573)"/>
<defs>
<linearGradient id="paint0_linear_10_13573" x1="6" y1="11" x2="16" y2="11" gradientUnits="userSpaceOnUse">
<stop stop-color="#FDFC47"/>
<stop offset="1" stop-color="#24FE41"/>
</linearGradient>
</defs>
</svg>
