<svg width="22" height="22" viewBox="0 0 22 22" fill="none" xmlns="http://www.w3.org/2000/svg">
<path d="M18.293 3L14.793 6.5L13.293 5L11.293 7L9.5 8.79297L11 10.293L11.707 11L13.207 12.5L15 10.707L17 8.70703L15.5 7.20703L19 3.70703L18.293 3ZM8.79297 9.5L8 10.293L6 12.293L7.5 13.793L3 18.293L3.70703 19L8.20703 14.5L9.70703 16L11.707 14L12.5 13.207L11 11.707L10.293 11L8.79297 9.5Z" fill="url(#paint0_linear_10_13577)"/>
<path d="M14.834 14L14 14.834L15.666 16.5L14 18.166L14.834 19L16.5 17.334L18.166 19L19 18.166L17.334 16.5L19 14.834L18.166 14L16.5 15.666L14.834 14Z" fill="url(#paint1_linear_10_13577)"/>
<defs>
<linearGradient id="paint0_linear_10_13577" x1="3" y1="11" x2="19" y2="11" gradientUnits="userSpaceOnUse">
<stop stop-color="#FDFC47"/>
<stop offset="1" stop-color="#24FE41"/>
</linearGradient>
<linearGradient id="paint1_linear_10_13577" x1="14" y1="16.5" x2="19" y2="16.5" gradientUnits="userSpaceOnUse">
<stop stop-color="#FDFC47"/>
<stop offset="1" stop-color="#24FE41"/>
</linearGradient>
</defs>
</svg>
