<svg width="22" height="22" viewBox="0 0 22 22" fill="none" xmlns="http://www.w3.org/2000/svg">
<path d="M1.00195 3L1 3.00195V3.99805L1.00195 4H1.99805L2 3.99805V4.00391C6.31303 4.75402 9.6245 10.1668 9.96484 16.793L10.8945 15.8633C10.2715 9.09989 6.64491 3.70025 2 3H1.99805H1.00195ZM10 3V6H11V7H12V6H13V3H10ZM20 3C19.995 10.0646 16.6064 15.9992 12.1113 16.8691L12.4141 17.1719L12 17.5859V17.9258C17.1101 17.1554 21.0003 10.7038 21 3H20ZM11 4H12V5H11V4ZM11 8V9H12V8H11ZM11 10V11H12V10H11ZM18 16V17H17V18H18V19H21V16H18ZM15 17V18H16V17H15ZM19 17H20V18H19V17ZM9.99023 17.5762C9.99223 17.6881 10 17.7976 10 17.9102H10.3242L9.99023 17.5762Z" fill="url(#paint0_linear_10_13606)"/>
<path d="M11 14.3438L8.17188 17.1719L11 20L13.8281 17.1719L11 14.3438ZM11 15.7578L12.4141 17.1719L11 18.5859L9.58594 17.1719L11 15.7578Z" fill="url(#paint1_linear_10_13606)"/>
<defs>
<linearGradient id="paint0_linear_10_13606" x1="1" y1="11" x2="21" y2="11" gradientUnits="userSpaceOnUse">
<stop stop-color="#FDFC47"/>
<stop offset="1" stop-color="#24FE41"/>
</linearGradient>
<linearGradient id="paint1_linear_10_13606" x1="8.17188" y1="17.1719" x2="13.8281" y2="17.1719" gradientUnits="userSpaceOnUse">
<stop stop-color="#FDFC47"/>
<stop offset="1" stop-color="#24FE41"/>
</linearGradient>
</defs>
</svg>
