<svg width="22" height="22" viewBox="0 0 22 22" fill="none" xmlns="http://www.w3.org/2000/svg">
<path d="M6 3L5.90625 3.09375L3 6V6.90625V18.3125V19H3.6875H15.125H15.9688L16 18.9688L18.9062 16.0625L18.9688 16L19 15.9688V15.4375V3.6875V3H18.3125H6.53125H6ZM7 4H17.3125L15.375 5.9375L15.3125 6H7V4ZM6 4.375V6H4.375L6 4.375ZM18 4.6875V15H16V6.6875L16.0625 6.625L18 4.6875ZM4 7H6V15.2812L5.65625 15.6562L4 17.3125V7ZM7 7H15V15H7V7ZM6.71875 16H15V18H4.6875L6.34375 16.3438L6.71875 16ZM16 16H17.5938L16 17.5938V16Z" fill="url(#paint0_linear_10_13615)"/>
<defs>
<linearGradient id="paint0_linear_10_13615" x1="3" y1="11" x2="19" y2="11" gradientUnits="userSpaceOnUse">
<stop stop-color="#FDFC47"/>
<stop offset="1" stop-color="#24FE41"/>
</linearGradient>
</defs>
</svg>
