<svg width="22" height="22" viewBox="0 0 22 22" fill="none" xmlns="http://www.w3.org/2000/svg">
<path d="M1 2C1.00265 5.45447 1.80011 8.8017 3.25767 11.4763C4.71523 14.1508 6.74355 15.9888 9 16.6797V15.6367C7.01306 14.9323 5.23863 13.1997 3.96703 10.7225C2.69542 8.24526 2.00193 5.17006 2 2H1ZM20 2C19.9975 5.16939 19.3038 8.24368 18.0322 10.7201C16.7606 13.1965 14.9865 14.9285 13 15.6328V16.6953C15.2582 16.0039 17.2879 14.1636 18.7456 11.4858C20.2034 8.80805 20.9998 5.45715 21 2H20ZM1 15V18H4V17H5V16H4V15H1ZM18 15V16H17V17H18V18H21V15H18ZM2 16H3V17H2V16ZM6 16V17H7V16H6ZM15 16V17H16V16H15ZM19 16H20V17H19V16Z" fill="url(#paint0_linear_10_13603)"/>
<path d="M11 14C10.337 14 9.70107 14.2634 9.23223 14.7322C8.76339 15.2011 8.5 15.837 8.5 16.5C8.5 17.163 8.76339 17.7989 9.23223 18.2678C9.70107 18.7366 10.337 19 11 19C11.663 19 12.2989 18.7366 12.7678 18.2678C13.2366 17.7989 13.5 17.163 13.5 16.5C13.5 15.837 13.2366 15.2011 12.7678 14.7322C12.2989 14.2634 11.663 14 11 14ZM11 15C11.3978 15 11.7794 15.158 12.0607 15.4393C12.342 15.7206 12.5 16.1022 12.5 16.5C12.5 16.8978 12.342 17.2794 12.0607 17.5607C11.7794 17.842 11.3978 18 11 18C10.6022 18 10.2206 17.842 9.93934 17.5607C9.65804 17.2794 9.5 16.8978 9.5 16.5C9.5 16.1022 9.65804 15.7206 9.93934 15.4393C10.2206 15.158 10.6022 15 11 15Z" fill="url(#paint1_linear_10_13603)"/>
<defs>
<linearGradient id="paint0_linear_10_13603" x1="1" y1="10" x2="21" y2="10" gradientUnits="userSpaceOnUse">
<stop stop-color="#FDFC47"/>
<stop offset="1" stop-color="#24FE41"/>
</linearGradient>
<linearGradient id="paint1_linear_10_13603" x1="8.5" y1="16.5" x2="13.5" y2="16.5" gradientUnits="userSpaceOnUse">
<stop stop-color="#FDFC47"/>
<stop offset="1" stop-color="#24FE41"/>
</linearGradient>
</defs>
</svg>
