<svg width="22" height="22" viewBox="0 0 22 22" fill="none" xmlns="http://www.w3.org/2000/svg">
<path d="M1 2C1.00242 5.71603 1.92432 9.29842 3.58708 12.0531C5.24983 14.8077 7.53507 16.5386 10 16.9102V16V15.9062C7.80069 15.5238 5.76907 13.8942 4.29331 11.3289C2.81755 8.76362 2.00112 5.44247 2 2H1ZM20 2C19.9973 5.44078 19.1802 8.75955 17.7046 11.3228C16.229 13.886 14.1982 15.5142 12 15.8965V16V16.9258C14.4667 16.5539 16.7534 14.8209 18.4164 12.0629C20.0794 9.30496 21.0002 5.71872 21 2H20ZM1 15V18H4V17H5V16H4V15H1ZM18 15V16H17V17H18V18H21V15H18ZM2 16H3V17H2V16ZM6 16V17H7V16H6ZM15 16V17H16V16H15ZM19 16H20V17H19V16Z" fill="url(#paint0_linear_10_13612)"/>
<path d="M11 13L8 18H14L11 13ZM11 15L12 17H10L11 15Z" fill="url(#paint1_linear_10_13612)"/>
<defs>
<linearGradient id="paint0_linear_10_13612" x1="1" y1="10" x2="21" y2="10" gradientUnits="userSpaceOnUse">
<stop stop-color="#FDFC47"/>
<stop offset="1" stop-color="#24FE41"/>
</linearGradient>
<linearGradient id="paint1_linear_10_13612" x1="8" y1="15.5" x2="14" y2="15.5" gradientUnits="userSpaceOnUse">
<stop stop-color="#FDFC47"/>
<stop offset="1" stop-color="#24FE41"/>
</linearGradient>
</defs>
</svg>
