<svg width="22" height="22" viewBox="0 0 22 22" fill="none" xmlns="http://www.w3.org/2000/svg">
<path d="M3 3V4V5V6H6V3H5H3ZM16 3V6H17H19V4V3H17H16ZM4 4H5V5H4V4ZM17 4H18V5H17V4ZM7 5V6H9V5H7ZM10 5V6H12V5H10ZM13 5V6H15V5H13ZM5 7V9H6V7H5ZM16 7V9H17V7H16ZM5 10V12H6V10H5ZM16 10V12H17V10H16ZM5 13V15H6V13H5ZM3 16V17V18V19H4H5H6V17V16H5H4H3ZM7 16V17H9V16H7ZM10 16V17H12V16H10ZM4 17H5V18H4V17Z" fill="url(#paint0_linear_10_13600)"/>
<path d="M13 13V14V15H14V14H15V13H13ZM17 13V14H18V15H19V13H18H17ZM13 17V19H14H15V18H14V17H13ZM18 17V18H17V19H19V18V17H18Z" fill="url(#paint1_linear_10_13600)"/>
<defs>
<linearGradient id="paint0_linear_10_13600" x1="3" y1="11" x2="19" y2="11" gradientUnits="userSpaceOnUse">
<stop stop-color="#FDFC47"/>
<stop offset="1" stop-color="#24FE41"/>
</linearGradient>
<linearGradient id="paint1_linear_10_13600" x1="13" y1="16" x2="19" y2="16" gradientUnits="userSpaceOnUse">
<stop stop-color="#FDFC47"/>
<stop offset="1" stop-color="#24FE41"/>
</linearGradient>
</defs>
</svg>
