<svg width="22" height="22" viewBox="0 0 22 22" fill="none" xmlns="http://www.w3.org/2000/svg">
<path fill-rule="evenodd" clip-rule="evenodd" d="M10.2695 17C10.0934 17.3039 10.0005 17.6488 10 18C10 18.5304 10.2107 19.0391 10.5858 19.4142C10.9609 19.7893 11.4696 20 12 20C12.5304 20 13.0391 19.7893 13.4142 19.4142C13.7893 19.0391 14 18.5304 14 18C13.9989 17.6486 13.9053 17.3037 13.7285 17H10.2695ZM12 4C11.7348 4 11.4804 4.10536 11.2929 4.29289C11.1054 4.48043 11 4.73478 11 5C11.0005 5.04314 11.0038 5.08619 11.0098 5.12891C10.1497 5.34867 9.38709 5.84833 8.84217 6.54918C8.29726 7.25003 8.00098 8.11224 8 9C8 12 7 13 5 15V16H19V15C17 13 16 12 16 9C15.999 8.11224 15.7027 7.25004 15.1578 6.54919C14.6129 5.84834 13.8504 5.34868 12.9902 5.12891C12.9963 5.08619 12.9995 5.04313 13 5C13 4.73478 12.8946 4.48043 12.7071 4.29289C12.5196 4.10536 12.2652 4 12 4ZM12 6C12.7956 6 13.5587 6.31607 14.1213 6.87868C14.6839 7.44129 15 8.20435 15 9C15 12 15.5859 13 17.5859 15H6.41406C8.41406 13 9 12 9 9C9 8.20435 9.31607 7.44129 9.87868 6.87868C10.4413 6.31607 11.2044 6 12 6Z" fill="url(#paint0_linear_10_13623)"/>
<defs>
<linearGradient id="paint0_linear_10_13623" x1="5" y1="12" x2="19" y2="12" gradientUnits="userSpaceOnUse">
<stop stop-color="#FDFC47"/>
<stop offset="1" stop-color="#24FE41"/>
</linearGradient>
</defs>
</svg>
