<svg width="22" height="22" viewBox="0 0 22 22" fill="none" xmlns="http://www.w3.org/2000/svg">
<path d="M4 4.70703L19.293 20L20 19.293L4.70703 4L4 4.70703Z" fill="url(#paint0_linear_10_13620)"/>
<path fill-rule="evenodd" clip-rule="evenodd" d="M12 4C11.7348 4 11.4804 4.10536 11.2929 4.29289C11.1054 4.48043 11 4.73478 11 5C11.0005 5.04313 11.0037 5.08619 11.0098 5.12891C10.1091 5.35967 9.31699 5.89697 8.76953 6.64844L9.48633 7.36523C9.75853 6.94639 10.131 6.60214 10.57 6.36373C11.0089 6.12532 11.5005 6.0003 12 6C12.7956 6 13.5587 6.31607 14.1213 6.87868C14.6839 7.44129 15 8.20435 15 9C15 12 15.5859 13 17.5859 15H17.1211L18.1211 16H19V15C17 13 16 12 16 9C15.999 8.11224 15.7027 7.25004 15.1578 6.54919C14.6129 5.84834 13.8504 5.34868 12.9902 5.12891C12.9963 5.08619 12.9995 5.04313 13 5C13 4.73478 12.8946 4.48043 12.7071 4.29289C12.5196 4.10536 12.2652 4 12 4ZM7.94727 10.0684C7.7219 12.2731 6.74113 13.2589 5 15V16H13.8789L12.8789 15H6.41406C7.89371 13.5204 8.59624 12.5841 8.86328 10.9844L7.94727 10.0684ZM10.2695 17C10.0934 17.3039 10.0005 17.6488 10 18C10 18.5304 10.2107 19.0391 10.5858 19.4142C10.9609 19.7893 11.4696 20 12 20C12.5304 20 13.0391 19.7893 13.4142 19.4142C13.7893 19.0391 14 18.5304 14 18C13.9989 17.6486 13.9053 17.3037 13.7285 17H10.2695Z" fill="url(#paint1_linear_10_13620)"/>
<defs>
<linearGradient id="paint0_linear_10_13620" x1="4" y1="4" x2="12.5773" y2="23.299" gradientUnits="userSpaceOnUse">
<stop stop-color="#FF0500"/>
<stop offset="1" stop-color="#FD3632"/>
</linearGradient>
<linearGradient id="paint1_linear_10_13620" x1="5" y1="12" x2="19" y2="12" gradientUnits="userSpaceOnUse">
<stop stop-color="#FDFC47"/>
<stop offset="1" stop-color="#24FE41"/>
</linearGradient>
</defs>
</svg>
