<svg width="22" height="22" viewBox="0 0 22 22" fill="none" xmlns="http://www.w3.org/2000/svg">
<path d="M6 3V6.93945V11.0918L3.71875 8.8457L3 9.55469L6.28125 12.7852L6.5 13L6.71875 12.7852L10 9.55469L9.28125 8.8457L7 11.0918V6.93945V3H6ZM10 4V5H19V4H10ZM16 6V7H19V6H16ZM12 8V9H19V8H12ZM10 10V11H19V10H10ZM15 12V13H19V12H15ZM3 14V15H19V14H3ZM11 16V17H19V16H11ZM13 18V19H19V18H13Z" fill="url(#paint0_linear_10_13639)"/>
<defs>
<linearGradient id="paint0_linear_10_13639" x1="3" y1="11" x2="19" y2="11" gradientUnits="userSpaceOnUse">
<stop stop-color="#FDFC47"/>
<stop offset="1" stop-color="#24FE41"/>
</linearGradient>
</defs>
</svg>
