<svg width="22" height="22" viewBox="0 0 22 22" fill="none" xmlns="http://www.w3.org/2000/svg">
<path d="M12.4004 3L9.10742 6.29297L8.90039 6.5L9.10742 6.70703L12.4004 10L13.1074 9.29297L10.8145 7H13.0996H14V6H13.0996H10.8145L13.1074 3.70703L12.4004 3ZM15.5 6C15.223 6 15 6.223 15 6.5C15 6.777 15.223 7 15.5 7C15.777 7 16 6.777 16 6.5C16 6.223 15.777 6 15.5 6ZM6.94922 8L2 12.9492L8.05078 19L13 14.0508L6.94922 8ZM18.5 8C18.223 8 18 8.223 18 8.5C18 8.777 18.223 9 18.5 9C18.777 9 19 8.777 19 8.5C19 8.223 18.777 8 18.5 8ZM6.94922 9.41406L11.7266 14.1914L8.19141 17.7266L3.41406 12.9492L6.94922 9.41406ZM19.5 11C19.223 11 19 11.223 19 11.5C19 11.777 19.223 12 19.5 12C19.777 12 20 11.777 20 11.5C20 11.223 19.777 11 19.5 11ZM18.5 14C18.223 14 18 14.223 18 14.5C18 14.777 18.223 15 18.5 15C18.777 15 19 14.777 19 14.5C19 14.223 18.777 14 18.5 14ZM15.5 16C15.223 16 15 16.223 15 16.5C15 16.777 15.223 17 15.5 17C15.777 17 16 16.777 16 16.5C16 16.223 15.777 16 15.5 16Z" fill="url(#paint0_linear_10_13643)"/>
<defs>
<linearGradient id="paint0_linear_10_13643" x1="2" y1="11" x2="20" y2="11" gradientUnits="userSpaceOnUse">
<stop stop-color="#FDFC47"/>
<stop offset="1" stop-color="#24FE41"/>
</linearGradient>
</defs>
</svg>
