<svg width="22" height="22" viewBox="0 0 22 22" fill="none" xmlns="http://www.w3.org/2000/svg">
<path d="M4 3V9V10V15V16V17H3V18H4V19H5V18H18.293H19V17.293V17H18.707H17.293H5V15.4316V15.4238V15V12.4238V11.4238V11V10V9V6V5.99219V5V3H4ZM17 3V4H18V3H17ZM18 4V5H19V4H18ZM18 5H17V6H18V5ZM17 5V4H16V5H17ZM6 4V5H7V4H6ZM8 4V5H9V4H8ZM6 6V7H7V6H6ZM8 6V7H9V6H8ZM11 7V8H12V7H11ZM13 7V8H14V7H13ZM11 9V10H12V9H11ZM13 9V10H14V9H13ZM7 13V14H8V13H7ZM8 14V15H9V14H8ZM8 15H7V16H8V15ZM7 15V14H6V15H7Z" fill="url(#paint0_linear_10_13688)"/>
<defs>
<linearGradient id="paint0_linear_10_13688" x1="3" y1="11" x2="19" y2="11" gradientUnits="userSpaceOnUse">
<stop stop-color="#FDFC47"/>
<stop offset="1" stop-color="#24FE41"/>
</linearGradient>
</defs>
</svg>
