<svg width="22" height="22" viewBox="0 0 22 22" fill="none" xmlns="http://www.w3.org/2000/svg">
<path d="M10 3.06836C6.04433 3.55842 3 6.90746 3 11C3 15.0925 6.04433 18.4416 10 18.9316V17.9219C6.60064 17.4381 4 14.5372 4 11C4 7.46279 6.60064 4.56194 10 4.07812V3.06836ZM12 3.06836V4.07812C15.3994 4.56194 18 7.46279 18 11C18 14.5372 15.3994 17.4381 12 17.9219V18.9316C15.9557 18.4416 19 15.0925 19 11C19 6.90746 15.9557 3.55842 12 3.06836ZM11 5C7.676 5 5 7.676 5 11C5 14.324 7.676 17 11 17C14.324 17 17 14.324 17 11C17 10.1182 16.8075 9.28397 16.4688 8.53125L15.6875 9.3125C15.8772 9.84177 16 10.4039 16 11C16 13.77 13.77 16 11 16C8.23 16 6 13.77 6 11C6 8.23 8.23 6 11 6C12.6416 6 14.0797 6.79514 14.9902 8.00977L15.7129 7.28711C14.616 5.89471 12.9181 5 11 5ZM11 7C9.892 7 8.89292 7.44692 8.16992 8.16992L8.87695 8.87695C9.4192 8.3347 10.169 8 11 8C12.662 8 14 9.338 14 11C14 12.662 12.662 14 11 14C9.338 14 8 12.662 8 11C8 10.6981 8.05648 10.4131 8.13867 10.1387L7.35742 9.35742C7.13183 9.859 7 10.4125 7 11C7 13.216 8.784 15 11 15C13.216 15 15 13.216 15 11C15 8.784 13.216 7 11 7Z" fill="url(#paint0_linear_10_13686)"/>
<defs>
<linearGradient id="paint0_linear_10_13686" x1="3" y1="11" x2="19" y2="11" gradientUnits="userSpaceOnUse">
<stop stop-color="#FDFC47"/>
<stop offset="1" stop-color="#24FE41"/>
</linearGradient>
</defs>
</svg>
