<svg width="22" height="22" viewBox="0 0 22 22" fill="none" xmlns="http://www.w3.org/2000/svg">
<path d="M4 3V9V10V15V16V17H3V18H4V19H5V18H19V17H5V16H5.00781H6H8V15.9922L8.00781 16L10.0078 14H11.5996L13.5996 16H17.0996H19V15H17.0996H14.0137L12.0137 13H12H11.0078H10.5996H9.59375L7.59375 15H6H5.00781H5V12V11V10H6H7H8.87305H8.875L10.875 8L11.7031 7.17188L12.998 5.87695L15.1211 8L15.127 7.99609L15.1309 8L17.1309 6L17.959 5.17188L19 4.13086L18.293 3.42383L17.252 4.46484L16.4238 5.29297L15.127 6.58984L13 4.46484L12.998 4.4668L12.9961 4.46484L11.4688 5.99219H5V5V3H4ZM5 6H11.4609L10.9961 6.46484L10.168 7.29297L8.46094 9H7H6H5V6Z" fill="url(#paint0_linear_10_13676)"/>
<defs>
<linearGradient id="paint0_linear_10_13676" x1="3" y1="11" x2="19" y2="11" gradientUnits="userSpaceOnUse">
<stop stop-color="#FDFC47"/>
<stop offset="1" stop-color="#24FE41"/>
</linearGradient>
</defs>
</svg>
