<svg width="22" height="22" viewBox="0 0 22 22" fill="none" xmlns="http://www.w3.org/2000/svg">
<path d="M4 3V9V10V15V16V17H3V18H4V19H5V18H18.293H19V17.293V17H18.707L17.959 16.252L17.1309 15.4238L15.1309 13.4238L15.127 13.4277L15.1211 13.4238L12.998 15.5469L11.7031 14.252L10.875 13.4238L8.875 11.4238H8.87305H7H6H5V11V10H6H7H8.87305H8.875L10.875 8L11.7031 7.17188L12.998 5.87695L15.1211 8L15.127 7.99609L15.1309 8L17.1309 6L17.959 5.17188L19 4.13086L18.293 3.42383L17.252 4.46484L16.4238 5.29297L15.127 6.58984L13 4.46484L12.998 4.4668L12.9961 4.46484L11.4688 5.99219H5V5V3H4ZM5 6H11.4609L10.9961 6.46484L10.168 7.29297L8.46094 9H7H6H5V6ZM5 12.4238H6H7H8.46094L10.168 14.1309L10.9961 14.959L11.4609 15.4238H5V15V12.4238ZM15.127 14.834L16.4238 16.1309L17.252 16.959L17.293 17H5V16V15.4316H11.4688L12.9961 16.959L12.998 16.957L13 16.959L15.127 14.834Z" fill="url(#paint0_linear_10_13663)"/>
<path d="M18.9336 4.06445L19 4.13086V4.12695L18.9336 4.06445ZM19 4.13086L17.959 5.17188L17.1309 6L15.1309 8L15.127 7.99609L15.1211 8L12.998 5.87695L11.7031 7.17188L10.875 8L8.875 10H8.87305H7H6H5V11V11.4238H6H7H8.87305H8.875L10.875 13.4238L11.7031 14.252L12.998 15.5469L15.1211 13.4238L15.127 13.4277L15.1309 13.4238L17.1309 15.4238L17.959 16.252L18.707 17H19V4.13086ZM5 12.4238V15V15.4238H11.4609L10.9961 14.959L10.168 14.1309L8.46094 12.4238H7H6H5ZM15.127 14.834L13 16.959L12.998 16.957L12.9961 16.959L11.4688 15.4316H5V17H10L12 16.9922L12.0078 17H12.0137L14.0059 16.9922L17.291 16.998L17.252 16.959L16.4238 16.1309L15.127 14.834Z" fill="url(#paint1_linear_10_13663)" fill-opacity="0.5"/>
<defs>
<linearGradient id="paint0_linear_10_13663" x1="3" y1="11" x2="19" y2="11" gradientUnits="userSpaceOnUse">
<stop stop-color="#FDFC47"/>
<stop offset="1" stop-color="#24FE41"/>
</linearGradient>
<linearGradient id="paint1_linear_10_13663" x1="5" y1="10.5322" x2="19" y2="10.5322" gradientUnits="userSpaceOnUse">
<stop stop-color="#FDFC47"/>
<stop offset="1" stop-color="#24FE41"/>
</linearGradient>
</defs>
</svg>
