<svg width="22" height="22" viewBox="0 0 22 22" fill="none" xmlns="http://www.w3.org/2000/svg">
<path d="M4 3V9V10V15V16V17H3V18H4V19H5V18H19V17H16V8H15H12V17H10V4H11V3H10H6V17H5V16V15V12V11V10V9V6V5.99219V5V3H4ZM12 3V4H13V7H14V3H13H12ZM16.5 3C15.669 3 15 3.669 15 4.5V5.5C15 6.331 15.669 7 16.5 7C17.331 7 18 6.331 18 5.5V4.5C18 3.669 17.331 3 16.5 3ZM20.5 3C19.669 3 19 3.669 19 4.5V5.5C19 6.331 19.669 7 20.5 7C21.331 7 22 6.331 22 5.5V4.5C22 3.669 21.331 3 20.5 3ZM7 4H9V17H7V4ZM16.5 4C16.777 4 17 4.223 17 4.5V5.5C17 5.777 16.777 6 16.5 6C16.223 6 16 5.777 16 5.5V4.5C16 4.223 16.223 4 16.5 4ZM20.5 4C20.777 4 21 4.223 21 4.5V5.5C21 5.777 20.777 6 20.5 6C20.223 6 20 5.777 20 5.5V4.5C20 4.223 20.223 4 20.5 4ZM13 9H15V17H13V9Z" fill="url(#paint0_linear_10_13666)"/>
<defs>
<linearGradient id="paint0_linear_10_13666" x1="3" y1="11" x2="22" y2="11" gradientUnits="userSpaceOnUse">
<stop stop-color="#FDFC47"/>
<stop offset="1" stop-color="#24FE41"/>
</linearGradient>
</defs>
</svg>
