<svg width="22" height="22" viewBox="0 0 22 22" fill="none" xmlns="http://www.w3.org/2000/svg">
<path d="M18.5132 3.00747C17.9297 2.93391 16.8628 3.40521 15.5006 4.33816C14.1384 5.27112 12.5687 6.60574 11.0685 8.10641C9.68737 9.48842 8.44384 10.9325 7.52582 12.2207C8.60179 12.5635 9.44047 13.4023 9.78314 14.4787C11.0708 13.5604 12.5145 12.3165 13.8961 10.9348C15.5835 9.24678 17.0528 7.47891 17.9808 6.02005C18.9089 4.56119 19.2197 3.53078 18.8449 3.15548C18.7646 3.07469 18.6539 3.02552 18.5132 3.00747ZM6.99988 13.6655C2.99999 14.7378 5.99992 17.2703 3 19C6.99989 19 8.99982 16.9982 8.99982 15.6632C8.99982 14.9978 9.06781 13.7735 6.99988 13.6628" fill="url(#paint0_linear_10_13690)"/>
<defs>
<linearGradient id="paint0_linear_10_13690" x1="3" y1="11" x2="19" y2="11" gradientUnits="userSpaceOnUse">
<stop stop-color="#FDFC47"/>
<stop offset="1" stop-color="#24FE41"/>
</linearGradient>
</defs>
</svg>
