<svg width="22" height="22" viewBox="0 0 22 22" fill="none" xmlns="http://www.w3.org/2000/svg">
<path d="M8 3C6.34314 3 5 4.34314 5 6V9H3V15H13V9H11V6C11 4.34314 9.65686 3 8 3ZM8 4C9.10457 4 10 4.89543 10 6V9H6V6C6 4.89543 6.89543 4 8 4ZM12 6V7H19V14H16H15V15V18H11V16H10V17V18V19H16L20 15V14V7V6H12ZM4 10H12V14H4V10Z" fill="url(#paint0_linear_10_13713)"/>
<defs>
<linearGradient id="paint0_linear_10_13713" x1="3" y1="11" x2="20" y2="11" gradientUnits="userSpaceOnUse">
<stop stop-color="#FDFC47"/>
<stop offset="1" stop-color="#24FE41"/>
</linearGradient>
</defs>
</svg>
