<svg width="22" height="22" viewBox="0 0 22 22" fill="none" xmlns="http://www.w3.org/2000/svg">
<path d="M14.1562 3L12.375 4L3.375 9L3 9.21875V19H13.8027L14 18.6562L19 10.0625L20 8.34375V6.3125V3.6875V3H19.3125H16.25H14.1562ZM14.4375 4H18.3125L13.3125 9H5.4375L14.4375 4ZM19 4.6875V8.03125L14 16.625V9.6875L19 4.6875ZM4 10H13V18H4V10Z" fill="url(#paint0_linear_10_13735)"/>
<path d="M15 3L4 9H14V17L20 8V3H15ZM4 10V18H13V10H4Z" fill="url(#paint1_linear_10_13735)" fill-opacity="0.5"/>
<defs>
<linearGradient id="paint0_linear_10_13735" x1="3" y1="11" x2="20" y2="11" gradientUnits="userSpaceOnUse">
<stop stop-color="#FDFC47"/>
<stop offset="1" stop-color="#24FE41"/>
</linearGradient>
<linearGradient id="paint1_linear_10_13735" x1="4" y1="10.5" x2="20" y2="10.5" gradientUnits="userSpaceOnUse">
<stop stop-color="#FDFC47"/>
<stop offset="1" stop-color="#24FE41"/>
</linearGradient>
</defs>
</svg>
