<svg width="22" height="22" viewBox="0 0 22 22" fill="none" xmlns="http://www.w3.org/2000/svg">
<path d="M11 3C6.568 3 3 6.568 3 11C3 15.432 6.568 19 11 19C15.432 19 19 15.432 19 11C19 6.568 15.432 3 11 3ZM11 4C14.878 4 18 7.122 18 11C18 14.878 14.878 18 11 18C7.122 18 4 14.878 4 11C4 7.122 7.122 4 11 4ZM11 8V14L15 11L11 8Z" fill="url(#paint0_linear_10_13779)"/>
<path d="M10 8C9.20435 8 8.44129 8.31607 7.87868 8.87868C7.31607 9.44129 7 10.2044 7 11C7 11.7956 7.31607 12.5587 7.87868 13.1213C8.44129 13.6839 9.20435 14 10 14V8Z" fill="url(#paint1_linear_10_13779)"/>
<defs>
<linearGradient id="paint0_linear_10_13779" x1="3" y1="11" x2="19" y2="11" gradientUnits="userSpaceOnUse">
<stop stop-color="#FDFC47"/>
<stop offset="1" stop-color="#24FE41"/>
</linearGradient>
<linearGradient id="paint1_linear_10_13779" x1="7" y1="8" x2="11.3034" y2="12.8414" gradientUnits="userSpaceOnUse">
<stop stop-color="#FF0500"/>
<stop offset="1" stop-color="#FD3632"/>
</linearGradient>
</defs>
</svg>
