<svg width="22" height="22" viewBox="0 0 22 22" fill="none" xmlns="http://www.w3.org/2000/svg">
<path d="M7 11L4 14L7 17V11ZM15 11V17L18 14L15 11ZM6.02344 4.99414V8.99414H5.02344V6.99414H4.02344V8.99414H3.02344V9.99414H19.0234V8.99414H19V7H18V8.99414H17.0234V4.99414H16.0234V8.99414H15.0234V6.99414H14.0234V8.99414H13.0234V6.99414H12.0234V8.99414H11.0234V6.99414H10.0234V8.99414H9.02344V6.99414H8.02344V8.99414H7.02344V4.99414H6.02344ZM10.5 11.5V13.5H8.5V14.5H10.5V16.5H11.5V14.5H13.5V13.5H11.5V11.5H10.5ZM3 11H4V17H3V11ZM18 11H19V17H18V11Z" fill="url(#paint0_linear_10_13767)"/>
<defs>
<linearGradient id="paint0_linear_10_13767" x1="3" y1="10.9971" x2="19.0234" y2="10.9971" gradientUnits="userSpaceOnUse">
<stop stop-color="#FDFC47"/>
<stop offset="1" stop-color="#24FE41"/>
</linearGradient>
</defs>
</svg>
