<svg width="22" height="22" viewBox="0 0 22 22" fill="none" xmlns="http://www.w3.org/2000/svg">
<path d="M6 3V4V10V11V19H7V11H13C14.0609 11 15.0783 10.5786 15.8284 9.82843C16.5786 9.07828 17 8.06087 17 7C17 5.93913 16.5786 4.92172 15.8284 4.17157C15.0783 3.42143 14.0609 3 13 3H7H6ZM7 4H13C13.7956 4 14.5587 4.31607 15.1213 4.87868C15.6839 5.44129 16 6.20435 16 7C16 7.79565 15.6839 8.55871 15.1213 9.12132C14.5587 9.68393 13.7956 10 13 10H7V4Z" fill="url(#paint0_linear_10_13784)"/>
<defs>
<linearGradient id="paint0_linear_10_13784" x1="6" y1="11" x2="17" y2="11" gradientUnits="userSpaceOnUse">
<stop stop-color="#FDFC47"/>
<stop offset="1" stop-color="#24FE41"/>
</linearGradient>
</defs>
</svg>
