<svg width="22" height="22" viewBox="0 0 22 22" fill="none" xmlns="http://www.w3.org/2000/svg">
<path d="M6 3V5H3V6H6V8H10V7H7V4H10V3H6ZM12 3V4H15V7H12V8H16V6H19V5H16V3H12ZM10 5V6H12V5H10Z" fill="url(#paint0_linear_10_13818)"/>
<path d="M14.707 14.0332L14 14.7402L15.793 16.5332L14 18.3262L14.707 19.0332L16.5 17.2402L18.293 19.0332L19 18.3262L17.207 16.5332L19 14.7402L18.293 14.0332L16.5 15.8262L14.707 14.0332Z" fill="url(#paint1_linear_10_13818)"/>
<defs>
<linearGradient id="paint0_linear_10_13818" x1="3" y1="5.5" x2="19" y2="5.5" gradientUnits="userSpaceOnUse">
<stop stop-color="#FDFC47"/>
<stop offset="1" stop-color="#24FE41"/>
</linearGradient>
<linearGradient id="paint1_linear_10_13818" x1="14" y1="14.0332" x2="16.6804" y2="20.0641" gradientUnits="userSpaceOnUse">
<stop stop-color="#FF0500"/>
<stop offset="1" stop-color="#FD3632"/>
</linearGradient>
</defs>
</svg>
