<svg width="22" height="22" viewBox="0 0 22 22" fill="none" xmlns="http://www.w3.org/2000/svg">
<path d="M3 3V4V19H4H19V18V3H4H3ZM4 4H18V18H4V4ZM6.5 5C5.669 5 5 5.669 5 6.5C5 7.331 5.669 8 6.5 8C7.331 8 8 7.331 8 6.5C8 5.669 7.331 5 6.5 5ZM15.5 5C14.669 5 14 5.669 14 6.5C14 7.331 14.669 8 15.5 8C16.331 8 17 7.331 17 6.5C17 5.669 16.331 5 15.5 5ZM11 9.5C10.169 9.5 9.5 10.169 9.5 11C9.5 11.831 10.169 12.5 11 12.5C11.831 12.5 12.5 11.831 12.5 11C12.5 10.169 11.831 9.5 11 9.5ZM6.5 14C5.669 14 5 14.669 5 15.5C5 16.331 5.669 17 6.5 17C7.331 17 8 16.331 8 15.5C8 14.669 7.331 14 6.5 14ZM15.5 14C14.669 14 14 14.669 14 15.5C14 16.331 14.669 17 15.5 17C16.331 17 17 16.331 17 15.5C17 14.669 16.331 14 15.5 14Z" fill="url(#paint0_linear_10_13845)"/>
<defs>
<linearGradient id="paint0_linear_10_13845" x1="3" y1="11" x2="19" y2="11" gradientUnits="userSpaceOnUse">
<stop stop-color="#FDFC47"/>
<stop offset="1" stop-color="#24FE41"/>
</linearGradient>
</defs>
</svg>
