<svg width="22" height="22" viewBox="0 0 22 22" fill="none" xmlns="http://www.w3.org/2000/svg">
<path d="M2.0045 2.00007V5.0004C10.2899 5.0004 17.0062 11.7167 17.0062 20.0021H20.0065V19.9076C20.0065 19.321 19.9675 18.7449 19.912 18.1734C19.909 18.1419 19.915 18.1104 19.912 18.0789C19.8535 17.5073 19.741 16.9447 19.63 16.3912C19.624 16.3612 19.636 16.3267 19.63 16.2967C19.2759 14.561 18.6654 12.9333 17.8478 11.4211C17.8418 11.4091 17.8538 11.3851 17.8478 11.3746C15.629 7.28816 11.8726 4.17681 7.34659 2.79516C6.81103 2.62864 6.26047 2.48913 5.70541 2.37361C5.67541 2.36761 5.6409 2.37961 5.6109 2.37361C5.05434 2.2596 4.49628 2.15309 3.92321 2.09158C3.89171 2.08858 3.86021 2.09458 3.8287 2.09158C3.25414 2.03307 2.68258 2.00157 2.09451 1.99707H2M2 7.99774V10.9981C6.97155 10.9981 11.001 15.0275 11.001 19.9991H14.0013C14.0013 13.3713 8.62774 7.99774 2 7.99774ZM5.00033 13.9984C3.34265 13.9984 2 15.3411 2 16.9987C2 18.6564 3.34265 19.9991 5.00033 19.9991C6.65802 19.9991 8.00067 18.6564 8.00067 16.9987C8.00067 15.3411 6.65802 13.9984 5.00033 13.9984Z" fill="url(#paint0_linear_10_13847)"/>
<defs>
<linearGradient id="paint0_linear_10_13847" x1="2" y1="10.9996" x2="20.0065" y2="10.9996" gradientUnits="userSpaceOnUse">
<stop stop-color="#FDFC47"/>
<stop offset="1" stop-color="#24FE41"/>
</linearGradient>
</defs>
</svg>
