<svg width="22" height="22" viewBox="0 0 22 22" fill="none" xmlns="http://www.w3.org/2000/svg">
<path d="M2 3V5H3V10V12V17H2V19H4V18H10H12H13H18V19H20V17H19V12V10V9V5H20V3H18V4H13H12H10H9H4V3H2ZM4 5H18V17H12H10H4V5ZM5 6V16H8V15H6V7H8H16H17V6H5ZM15 8L14.0039 8.99414L14 8.99023L9 13.9883L9.00781 13.9961L9.00391 15H9V15.9902V16H11L11.0059 15.9941L11.0098 15.9902C11.0138 15.9902 11.0155 15.9922 11.0195 15.9922L11.0137 15.9863L12 15L16 11.0039L15.2949 10.2949L10.3047 15.2812L9.71094 14.6895L14.7031 9.70117L15.2949 10.2949L16 10.998L17 9.99805L15 8Z" fill="url(#paint0_linear_10_13863)"/>
<defs>
<linearGradient id="paint0_linear_10_13863" x1="2" y1="11" x2="20" y2="11" gradientUnits="userSpaceOnUse">
<stop stop-color="#FDFC47"/>
<stop offset="1" stop-color="#24FE41"/>
</linearGradient>
</defs>
</svg>
