<svg width="22" height="22" viewBox="0 0 22 22" fill="none" xmlns="http://www.w3.org/2000/svg">
<path d="M16 4V4.99805C15.9622 4.99787 15.9245 4.99787 15.8867 4.99805V5C13.0245 5.02945 10.2755 6.06842 8.172 7.91575C6.06848 9.76309 4.76005 12.2874 4.5 15H5.54688C5.80543 12.5507 7.00429 10.2781 8.91392 8.61753C10.8235 6.95692 13.3097 6.02493 15.8965 6C15.931 5.99984 15.9655 5.99984 16 6V7H19V4H16ZM17 5H18V6H17V5Z" fill="url(#paint0_linear_10_13877)"/>
<path d="M4.98052 3.0001C4.4511 3.00525 3.94533 3.22012 3.57408 3.59759C3.20283 3.97506 2.9964 4.48434 3.00005 5.01377C3.00327 5.45465 3.15209 5.88212 3.42336 6.22968C3.69463 6.57725 4.07315 6.82543 4.50005 6.93564V9.0001H5.50005V6.93369C5.92888 6.82297 6.30883 6.57303 6.5803 6.22309C6.85177 5.87315 6.99941 5.44299 7.00005 5.0001V4.97471C6.99335 4.44529 6.777 3.94012 6.39843 3.56997C6.01985 3.19982 5.50995 2.99488 4.98052 3.0001ZM4.99028 4.0001C5.25483 3.99749 5.50964 4.09982 5.6989 4.28469C5.88815 4.46955 5.99644 4.72189 6.00005 4.98643V5.0001C6.00005 5.26464 5.89523 5.5184 5.70854 5.70583C5.52184 5.89325 5.26849 5.99906 5.00395 6.0001C4.73907 6.00114 4.4846 5.89704 4.29639 5.71066C4.10817 5.52428 4.0016 5.27083 4.00005 5.00596C3.99848 4.74141 4.10181 4.48702 4.28741 4.2985C4.47301 4.10998 4.72574 4.00268 4.99028 4.0001ZM4.50005 10.0001V11.0001H5.50005V10.0001H4.50005ZM3.00005 15.0001V19.0001H7.00005V15.0001H3.00005ZM4.00005 16.0001H6.00005V18.0001H4.00005V16.0001Z" fill="url(#paint1_linear_10_13877)"/>
<defs>
<linearGradient id="paint0_linear_10_13877" x1="4.5" y1="9.5" x2="19" y2="9.5" gradientUnits="userSpaceOnUse">
<stop stop-color="#FDFC47"/>
<stop offset="1" stop-color="#24FE41"/>
</linearGradient>
<linearGradient id="paint1_linear_10_13877" x1="3" y1="11" x2="7.00005" y2="11" gradientUnits="userSpaceOnUse">
<stop stop-color="#FDFC47"/>
<stop offset="1" stop-color="#24FE41"/>
</linearGradient>
</defs>
</svg>
