<svg width="22" height="22" viewBox="0 0 22 22" fill="none" xmlns="http://www.w3.org/2000/svg">
<path d="M11 3C6.58172 3 3 6.58172 3 11C3 15.4183 6.58172 19 11 19C15.4183 19 19 15.4183 19 11C19 6.58172 15.4183 3 11 3ZM8 7C8.554 7 9 7.446 9 8C9 8.554 8.554 9 8 9C7.446 9 7 8.554 7 8C7 7.446 7.446 7 8 7ZM14 7C14.554 7 15 7.446 15 8C15 8.554 14.554 9 14 9C13.446 9 13 8.554 13 8C13 7.446 13.446 7 14 7ZM7.15625 13H14.8438C14.4005 14.7269 12.869 16 11 16C9.13104 16 7.59954 14.7269 7.15625 13Z" fill="url(#paint0_linear_10_13905)"/>
<defs>
<linearGradient id="paint0_linear_10_13905" x1="3" y1="11" x2="19" y2="11" gradientUnits="userSpaceOnUse">
<stop stop-color="#FDFC47"/>
<stop offset="1" stop-color="#24FE41"/>
</linearGradient>
</defs>
</svg>
