<svg width="22" height="22" viewBox="0 0 22 22" fill="none" xmlns="http://www.w3.org/2000/svg">
<path d="M3 3V6H4V7H5V6H6V5H7V4H6V3H3ZM16 3V4H15V5H16V6H17V7H18V6H19V3H16ZM4 4H5V5H4V4ZM9 4V5H10V4H9ZM12 4V5H13V4H12ZM17 4H18V5H17V4ZM4 9V10H5V9H4ZM4 12V13H5V12H4ZM4 15V16H3V19H6V18H7V17H6V16H5V15H4ZM17 15V16H16V17H15V18H16V19H19V16H18V15H17ZM4 17H5V18H4V17ZM9 17V18H10V17H9ZM12 17V18H13V17H12ZM17 17H18V18H17V17Z" fill="url(#paint0_linear_10_13925)"/>
<path d="M15 9V13H19V9H15ZM16 10H18V12H16V10Z" fill="url(#paint1_linear_10_13925)"/>
<defs>
<linearGradient id="paint0_linear_10_13925" x1="3" y1="11" x2="19" y2="11" gradientUnits="userSpaceOnUse">
<stop stop-color="#FDFC47"/>
<stop offset="1" stop-color="#24FE41"/>
</linearGradient>
<linearGradient id="paint1_linear_10_13925" x1="15" y1="11" x2="19" y2="11" gradientUnits="userSpaceOnUse">
<stop stop-color="#FDFC47"/>
<stop offset="1" stop-color="#24FE41"/>
</linearGradient>
</defs>
</svg>
