<svg width="22" height="22" viewBox="0 0 22 22" fill="none" xmlns="http://www.w3.org/2000/svg">
<path d="M3 3V6H4V7H5V6H6V5H7V4H6V3H3ZM16 3V4H15V5H16V6H17V7H18V6H19V3H16ZM4 4H5V5H4V4ZM9 4V5H10V4H9ZM12 4V5H13V4H12ZM17 4H18V5H17V4ZM4 9V10H5V9H4ZM17 9V10H18V9H17ZM4 12V13H5V12H4ZM17 12V13H18V12H17ZM4 15V16H3V19H6V18H7V17H6V16H5V15H4ZM17 15V16H16V17H15V18H16V19H19V16H18V15H17ZM4 17H5V18H4V17ZM9 17V18H10V17H9ZM12 17V18H13V17H12ZM17 17H18V18H17V17Z" fill="url(#paint0_linear_10_13916)"/>
<path d="M11 9C10.4696 9 9.96086 9.21071 9.58579 9.58579C9.21071 9.96086 9 10.4696 9 11C9 11.5304 9.21071 12.0391 9.58579 12.4142C9.96086 12.7893 10.4696 13 11 13C11.5304 13 12.0391 12.7893 12.4142 12.4142C12.7893 12.0391 13 11.5304 13 11C13 10.4696 12.7893 9.96086 12.4142 9.58579C12.0391 9.21071 11.5304 9 11 9ZM11 10C11.2652 10 11.5196 10.1054 11.7071 10.2929C11.8946 10.4804 12 10.7348 12 11C12 11.2652 11.8946 11.5196 11.7071 11.7071C11.5196 11.8946 11.2652 12 11 12C10.7348 12 10.4804 11.8946 10.2929 11.7071C10.1054 11.5196 10 11.2652 10 11C10 10.7348 10.1054 10.4804 10.2929 10.2929C10.4804 10.1054 10.7348 10 11 10Z" fill="url(#paint1_linear_10_13916)"/>
<defs>
<linearGradient id="paint0_linear_10_13916" x1="3" y1="11" x2="19" y2="11" gradientUnits="userSpaceOnUse">
<stop stop-color="#FDFC47"/>
<stop offset="1" stop-color="#24FE41"/>
</linearGradient>
<linearGradient id="paint1_linear_10_13916" x1="9" y1="11" x2="13" y2="11" gradientUnits="userSpaceOnUse">
<stop stop-color="#FDFC47"/>
<stop offset="1" stop-color="#24FE41"/>
</linearGradient>
</defs>
</svg>
