<svg width="22" height="22" viewBox="0 0 22 22" fill="none" xmlns="http://www.w3.org/2000/svg">
<path d="M9.59961 3.05078L8.89258 3.75781L11.1855 6.05078H8.90039H8V7.05078H8.90039H11.1855L8.89258 9.34375L9.59961 10.0508L12.8926 6.75781L13.0996 6.55078L12.8926 6.34375L9.59961 3.05078ZM6.5 6.05078C6.223 6.05078 6 6.27378 6 6.55078C6 6.82778 6.223 7.05078 6.5 7.05078C6.777 7.05078 7 6.82778 7 6.55078C7 6.27378 6.777 6.05078 6.5 6.05078ZM3.5 8.05078C3.223 8.05078 3 8.27378 3 8.55078C3 8.82778 3.223 9.05078 3.5 9.05078C3.777 9.05078 4 8.82778 4 8.55078C4 8.27378 3.777 8.05078 3.5 8.05078ZM2.5 11.0508C2.223 11.0508 2 11.2738 2 11.5508C2 11.8278 2.223 12.0508 2.5 12.0508C2.777 12.0508 3 11.8278 3 11.5508C3 11.2738 2.777 11.0508 2.5 11.0508ZM3.5 14.0508C3.223 14.0508 3 14.2738 3 14.5508C3 14.8278 3.223 15.0508 3.5 15.0508C3.777 15.0508 4 14.8278 4 14.5508C4 14.2738 3.777 14.0508 3.5 14.0508ZM6.5 16.0508C6.223 16.0508 6 16.2738 6 16.5508C6 16.8278 6.223 17.0508 6.5 17.0508C6.777 17.0508 7 16.8278 7 16.5508C7 16.2738 6.777 16.0508 6.5 16.0508Z" fill="url(#paint0_linear_10_13954)"/>
<path d="M14 10C12.9391 10 11.9217 10.4214 11.1716 11.1716C10.4214 11.9217 10 12.9391 10 14C10 15.0609 10.4214 16.0783 11.1716 16.8284C11.9217 17.5786 12.9391 18 14 18C15.0609 18 16.0783 17.5786 16.8284 16.8284C17.5786 16.0783 18 15.0609 18 14C18 12.9391 17.5786 11.9217 16.8284 11.1716C16.0783 10.4214 15.0609 10 14 10ZM14 11C14.7956 11 15.5587 11.3161 16.1213 11.8787C16.6839 12.4413 17 13.2044 17 14C17 14.7956 16.6839 15.5587 16.1213 16.1213C15.5587 16.6839 14.7956 17 14 17C13.2044 17 12.4413 16.6839 11.8787 16.1213C11.3161 15.5587 11 14.7956 11 14C11 13.2044 11.3161 12.4413 11.8787 11.8787C12.4413 11.3161 13.2044 11 14 11Z" fill="url(#paint1_linear_10_13954)"/>
<defs>
<linearGradient id="paint0_linear_10_13954" x1="2" y1="10.0508" x2="13.0996" y2="10.0508" gradientUnits="userSpaceOnUse">
<stop stop-color="#FDFC47"/>
<stop offset="1" stop-color="#24FE41"/>
</linearGradient>
<linearGradient id="paint1_linear_10_13954" x1="10" y1="14" x2="18" y2="14" gradientUnits="userSpaceOnUse">
<stop stop-color="#FDFC47"/>
<stop offset="1" stop-color="#24FE41"/>
</linearGradient>
</defs>
</svg>
