<svg width="22" height="22" viewBox="0 0 22 22" fill="none" xmlns="http://www.w3.org/2000/svg">
<path d="M3 3V6H4V7H5V6H6V5H7V4H6V3H3ZM16 3V4H15V5H16V6H17V7H18V6H19V3H16ZM4 4H5V5H4V4ZM9 4V5H10V4H9ZM12 4V5H13V4H12ZM17 4H18V5H17V4ZM4 9V10H5V9H4ZM17 9V10H18V9H17ZM4 12V13H5V12H4ZM17 12V13H18V12H17ZM4 15V16H3V19H6V18H7V17H6V16H5V15H4ZM4 17H5V18H4V17ZM9 17V18H10V17H9ZM12 17V18H13V17H12Z" fill="url(#paint0_linear_10_13919)"/>
<path d="M15 15V19H19V15H15ZM16 16H18V18H16V16Z" fill="url(#paint1_linear_10_13919)"/>
<defs>
<linearGradient id="paint0_linear_10_13919" x1="3" y1="11" x2="19" y2="11" gradientUnits="userSpaceOnUse">
<stop stop-color="#FDFC47"/>
<stop offset="1" stop-color="#24FE41"/>
</linearGradient>
<linearGradient id="paint1_linear_10_13919" x1="15" y1="17" x2="19" y2="17" gradientUnits="userSpaceOnUse">
<stop stop-color="#FDFC47"/>
<stop offset="1" stop-color="#24FE41"/>
</linearGradient>
</defs>
</svg>
