<svg width="22" height="22" viewBox="0 0 22 22" fill="none" xmlns="http://www.w3.org/2000/svg">
<path d="M3 3V4H4V3H3ZM18.293 3L12.293 9H13V9.70703L19 3.70703L18.293 3ZM5 5V6H6V5H5ZM7 7V8H8V7H7ZM9 12.293L3 18.293L3.70703 19L9.70703 13H9V12.293ZM14 14V15H15V14H14ZM16 16V17H17V16H16ZM18 18V19H19V18H18Z" fill="url(#paint0_linear_10_13945)"/>
<path d="M9 9V13H13V9H9ZM10 10H12V12H10V10Z" fill="url(#paint1_linear_10_13945)"/>
<defs>
<linearGradient id="paint0_linear_10_13945" x1="3" y1="11" x2="19" y2="11" gradientUnits="userSpaceOnUse">
<stop stop-color="#FDFC47"/>
<stop offset="1" stop-color="#24FE41"/>
</linearGradient>
<linearGradient id="paint1_linear_10_13945" x1="9" y1="11" x2="13" y2="11" gradientUnits="userSpaceOnUse">
<stop stop-color="#FDFC47"/>
<stop offset="1" stop-color="#24FE41"/>
</linearGradient>
</defs>
</svg>
