<svg width="22" height="22" viewBox="0 0 22 22" fill="none" xmlns="http://www.w3.org/2000/svg">
<path d="M11 3V4H12V3H11ZM11 6V7H12V6H11ZM9 8V13H14V8H9ZM3 10V11H4V10H3ZM5 10V11H6V10H5ZM7 10V11H8V10H7ZM15 10V11H16V10H15ZM18 10V11H19V10H18ZM11 14V15H12V14H11ZM11 16V17H12V16H11ZM11 18V19H12V18H11Z" fill="url(#paint0_linear_10_13960)"/>
<defs>
<linearGradient id="paint0_linear_10_13960" x1="3" y1="11" x2="19" y2="11" gradientUnits="userSpaceOnUse">
<stop stop-color="#FDFC47"/>
<stop offset="1" stop-color="#24FE41"/>
</linearGradient>
</defs>
</svg>
