<svg width="22" height="22" viewBox="0 0 22 22" fill="none" xmlns="http://www.w3.org/2000/svg">
<path d="M3 3V6H4V7H5V6H6V5H7V4H6V3H3ZM16 3V4H15V5H16V6H17V7H18V6H19V3H16ZM4 4H5V5H4V4ZM9 4V5H10V4H9ZM12 4V5H13V4H12ZM17 4H18V5H17V4ZM4 9V10H5V9H4ZM17 9V10H18V9H17ZM4 12V13H5V12H4ZM17 12V13H18V12H17ZM4 15V16H3V19H6V18H7V17H6V16H5V15H4ZM17 15V16H16V17H15V18H16V19H19V16H18V15H17ZM4 17H5V18H4V17ZM17 17H18V18H17V17Z" fill="url(#paint0_linear_10_13922)"/>
<path d="M11 12C10.4696 12 9.96086 12.2107 9.58579 12.5858C9.21071 12.9609 9 13.4696 9 14C9 14.5304 9.21071 15.0391 9.58579 15.4142C9.96086 15.7893 10.4696 16 11 16C11.5304 16 12.0391 15.7893 12.4142 15.4142C12.7893 15.0391 13 14.5304 13 14C13 13.4696 12.7893 12.9609 12.4142 12.5858C12.0391 12.2107 11.5304 12 11 12ZM11 16C10.4696 16 9.96086 16.2107 9.58579 16.5858C9.21071 16.9609 9 17.4696 9 18C9 18.5304 9.21071 19.0391 9.58579 19.4142C9.96086 19.7893 10.4696 20 11 20C11.5304 20 12.0391 19.7893 12.4142 19.4142C12.7893 19.0391 13 18.5304 13 18C13 17.4696 12.7893 16.9609 12.4142 16.5858C12.0391 16.2107 11.5304 16 11 16ZM11 13C11.2652 13 11.5196 13.1054 11.7071 13.2929C11.8946 13.4804 12 13.7348 12 14C12 14.2652 11.8946 14.5196 11.7071 14.7071C11.5196 14.8946 11.2652 15 11 15C10.7348 15 10.4804 14.8946 10.2929 14.7071C10.1054 14.5196 10 14.2652 10 14C10 13.7348 10.1054 13.4804 10.2929 13.2929C10.4804 13.1054 10.7348 13 11 13ZM11 17C11.2652 17 11.5196 17.1054 11.7071 17.2929C11.8946 17.4804 12 17.7348 12 18C12 18.2652 11.8946 18.5196 11.7071 18.7071C11.5196 18.8946 11.2652 19 11 19C10.7348 19 10.4804 18.8946 10.2929 18.7071C10.1054 18.5196 10 18.2652 10 18C10 17.7348 10.1054 17.4804 10.2929 17.2929C10.4804 17.1054 10.7348 17 11 17Z" fill="url(#paint1_linear_10_13922)"/>
<defs>
<linearGradient id="paint0_linear_10_13922" x1="3" y1="11" x2="19" y2="11" gradientUnits="userSpaceOnUse">
<stop stop-color="#FDFC47"/>
<stop offset="1" stop-color="#24FE41"/>
</linearGradient>
<linearGradient id="paint1_linear_10_13922" x1="9" y1="16" x2="13" y2="16" gradientUnits="userSpaceOnUse">
<stop stop-color="#FDFC47"/>
<stop offset="1" stop-color="#24FE41"/>
</linearGradient>
</defs>
</svg>
