<svg width="22" height="22" viewBox="0 0 22 22" fill="none" xmlns="http://www.w3.org/2000/svg">
<path d="M6 3V10H5V13H6V19H7V13H8V10H7V3H6ZM3 4V8L5 6L3 4ZM10 4L8 6L10 8V4ZM16 10V13H17V19H18V13H19V10H16ZM10 11V12H11V11H10ZM12 11V12H13V11H12ZM14 11V12H15V11H14Z" fill="url(#paint0_linear_10_13933)"/>
<defs>
<linearGradient id="paint0_linear_10_13933" x1="3" y1="11" x2="19" y2="11" gradientUnits="userSpaceOnUse">
<stop stop-color="#FDFC47"/>
<stop offset="1" stop-color="#24FE41"/>
</linearGradient>
</defs>
</svg>
