<svg width="22" height="22" viewBox="0 0 22 22" fill="none" xmlns="http://www.w3.org/2000/svg">
<path d="M11 3C9.0837 3 7.33171 3.66964 5.95703 4.78516C5.85676 4.33846 5.47782 4 5 4C4.446 4 4 4.446 4 5C4 5.47782 4.33846 5.85676 4.78516 5.95703C3.66964 7.33171 3 9.0837 3 11C3 12.9163 3.66964 14.6683 4.78516 16.043C4.33846 16.1432 4 16.5222 4 17C4 17.554 4.446 18 5 18C5.47782 18 5.85676 17.6615 5.95703 17.2148C7.33171 18.3304 9.0837 19 11 19C12.9163 19 14.6683 18.3304 16.043 17.2148C16.1432 17.6615 16.5222 18 17 18C17.554 18 18 17.554 18 17C18 16.5222 17.6615 16.1432 17.2148 16.043C18.3304 14.6683 19 12.9163 19 11C19 9.0837 18.3304 7.33171 17.2148 5.95703C17.6615 5.85676 18 5.47782 18 5C18 4.446 17.554 4 17 4C16.5222 4 16.1432 4.33846 16.043 4.78516C14.6683 3.66964 12.9163 3 11 3ZM10 4L10.0469 4.07227C10.3595 4.02992 10.6754 4 11 4C14.878 4 18 7.122 18 11C18 14.878 14.878 18 11 18C7.122 18 4 14.878 4 11C4 7.5164 6.52222 4.65002 9.8457 4.10156L10 4ZM11 9C9.892 9 9 9.892 9 11C9 12.108 9.892 13 11 13C12.108 13 13 12.108 13 11C13 9.892 12.108 9 11 9Z" fill="url(#paint0_linear_10_13974)"/>
<defs>
<linearGradient id="paint0_linear_10_13974" x1="3" y1="11" x2="19" y2="11" gradientUnits="userSpaceOnUse">
<stop stop-color="#FDFC47"/>
<stop offset="1" stop-color="#24FE41"/>
</linearGradient>
</defs>
</svg>
