<svg width="22" height="22" viewBox="0 0 22 22" fill="none" xmlns="http://www.w3.org/2000/svg">
<path d="M15.5 13C14.5717 13 13.6815 13.3687 13.0251 14.0251C12.3687 14.6815 12 15.5717 12 16.5C12 17.4283 12.3687 18.3185 13.0251 18.9749C13.6815 19.6313 14.5717 20 15.5 20C16.4283 20 17.3185 19.6313 17.9749 18.9749C18.6313 18.3185 19 17.4283 19 16.5C19 15.5717 18.6313 14.6815 17.9749 14.0251C17.3185 13.3687 16.4283 13 15.5 13ZM15.5 14L15.9785 15.3457L17.2676 14.7324L16.6543 16.0215L18 16.5L16.6543 16.9786L17.2676 18.2677L15.9785 17.6544L15.5 19.0001L15.0215 17.6544L13.7324 18.2677L14.3457 16.9786L13 16.5L14.3457 16.0215L13.7324 14.7324L15.0215 15.3457L15.5 14Z" fill="url(#paint0_linear_10_13976)"/>
<path d="M11 2.00005C9.8954 2.00005 9 2.89548 9 4.00005H7C5.338 4.00005 4 5.33805 4 7.00005V16.0001C4 17.6621 5.338 19.0001 7 19.0001H11V18.0001H7C5.892 18.0001 5 17.1081 5 16.0001V7.00005C5 5.89205 5.892 5.00005 7 5.00005H9V6.00005C9 6.00005 8 6.00005 8 7.00005H14C14 6.25005 13.4372 6.04705 13.1562 6.00005H13V5.00005H15C16.108 5.00005 17 5.89205 17 7.00005V12.0001H18V7.00005C18 5.33805 16.662 4.00005 15 4.00005V4.00591C14.9794 4.00531 14.9602 4.00005 14.9395 4.00005H13C13 3.86205 12.9947 3.7238 12.9687 3.5938C12.7726 2.66344 11.951 1.99825 11 2.00005ZM10.9883 3.00005C10.9922 3.00003 10.9961 3.00003 11 3.00005C11.414 3.00005 11.7543 3.26605 11.9062 3.62505C11.9631 3.74221 11.9951 3.86991 12 4.00005C11.9999 4.88818 10.9284 5.33525 10.2969 4.71099C9.66533 4.08673 10.1002 3.01045 10.9883 3.00005Z" fill="url(#paint1_linear_10_13976)"/>
<defs>
<linearGradient id="paint0_linear_10_13976" x1="12" y1="16.5" x2="19" y2="16.5" gradientUnits="userSpaceOnUse">
<stop stop-color="#FDFC47"/>
<stop offset="1" stop-color="#24FE41"/>
</linearGradient>
<linearGradient id="paint1_linear_10_13976" x1="4" y1="10.5" x2="18" y2="10.5" gradientUnits="userSpaceOnUse">
<stop stop-color="#FDFC47"/>
<stop offset="1" stop-color="#24FE41"/>
</linearGradient>
</defs>
</svg>
