<svg width="22" height="22" viewBox="0 0 22 22" fill="none" xmlns="http://www.w3.org/2000/svg">
<path d="M4.5 3C4.30302 3 4.10796 3.0388 3.92598 3.11418C3.74399 3.18956 3.57863 3.30005 3.43934 3.43934C3.30005 3.57863 3.18956 3.74399 3.11418 3.92597C3.0388 4.10796 3 4.30302 3 4.5C3.00043 4.80983 3.0968 5.11193 3.27586 5.36478C3.45492 5.61763 3.70789 5.80883 4 5.91211V12V16.0879C3.70789 16.1912 3.45492 16.3824 3.27586 16.6352C3.0968 16.8881 3.00043 17.1902 3 17.5C3 17.697 3.0388 17.892 3.11418 18.074C3.18956 18.256 3.30005 18.4214 3.43934 18.5607C3.57863 18.6999 3.74399 18.8104 3.92598 18.8858C4.10796 18.9612 4.30302 19 4.5 19C4.69698 19 4.89204 18.9612 5.07403 18.8858C5.25601 18.8104 5.42137 18.6999 5.56066 18.5607C5.69995 18.4214 5.81044 18.256 5.88582 18.074C5.9612 17.892 6 17.697 6 17.5C5.99957 17.1902 5.9032 16.8881 5.72414 16.6352C5.54508 16.3824 5.29211 16.1912 5 16.0879V12C5 11.7348 5.10536 11.4804 5.29289 11.2929C5.48043 11.1054 5.73478 11 6 11H16C16.5304 11 17.0391 10.7893 17.4142 10.4142C17.7893 10.0391 18 9.53043 18 9V5.91211C18.2921 5.80883 18.5451 5.61763 18.7241 5.36478C18.9032 5.11193 18.9996 4.80983 19 4.5C19 4.30302 18.9612 4.10796 18.8858 3.92597C18.8104 3.74399 18.6999 3.57863 18.5607 3.43934C18.4214 3.30005 18.256 3.18956 18.074 3.11418C17.892 3.0388 17.697 3 17.5 3C17.303 3 17.108 3.0388 16.926 3.11418C16.744 3.18956 16.5786 3.30005 16.4393 3.43934C16.3001 3.57863 16.1896 3.74399 16.1142 3.92597C16.0388 4.10796 16 4.30302 16 4.5C16.0004 4.80983 16.0968 5.11193 16.2759 5.36478C16.4549 5.61763 16.7079 5.80883 17 5.91211V9C17 9.26522 16.8946 9.51957 16.7071 9.70711C16.5196 9.89464 16.2652 10 16 10H6C5.64878 10.0005 5.30389 10.0934 5 10.2695V5.91211C5.29211 5.80883 5.54508 5.61763 5.72414 5.36478C5.9032 5.11193 5.99957 4.80983 6 4.5C6 4.30302 5.9612 4.10796 5.88582 3.92597C5.81044 3.74399 5.69995 3.57863 5.56066 3.43934C5.42137 3.30005 5.25601 3.18956 5.07403 3.11418C4.89204 3.0388 4.69698 3 4.5 3ZM4.5 4C4.63261 4 4.75979 4.05268 4.85355 4.14645C4.94732 4.24021 5 4.36739 5 4.5C5 4.63261 4.94732 4.75979 4.85355 4.85355C4.75979 4.94732 4.63261 5 4.5 5C4.36739 5 4.24021 4.94732 4.14645 4.85355C4.05268 4.75979 4 4.63261 4 4.5C4 4.36739 4.05268 4.24021 4.14645 4.14645C4.24021 4.05268 4.36739 4 4.5 4ZM17.5 4C17.6326 4 17.7598 4.05268 17.8536 4.14645C17.9473 4.24021 18 4.36739 18 4.5C18 4.63261 17.9473 4.75979 17.8536 4.85355C17.7598 4.94732 17.6326 5 17.5 5C17.3674 5 17.2402 4.94732 17.1464 4.85355C17.0527 4.75979 17 4.63261 17 4.5C17 4.36739 17.0527 4.24021 17.1464 4.14645C17.2402 4.05268 17.3674 4 17.5 4ZM16 14V16H14V17H16V19H17V17H19V16H17V14H16ZM4.5 17C4.63261 17 4.75979 17.0527 4.85355 17.1464C4.94732 17.2402 5 17.3674 5 17.5C5 17.6326 4.94732 17.7598 4.85355 17.8536C4.75979 17.9473 4.63261 18 4.5 18C4.36739 18 4.24021 17.9473 4.14645 17.8536C4.05268 17.7598 4 17.6326 4 17.5C4 17.3674 4.05268 17.2402 4.14645 17.1464C4.24021 17.0527 4.36739 17 4.5 17Z" fill="url(#paint0_linear_10_13986)"/>
<defs>
<linearGradient id="paint0_linear_10_13986" x1="3" y1="11" x2="19" y2="11" gradientUnits="userSpaceOnUse">
<stop stop-color="#FDFC47"/>
<stop offset="1" stop-color="#24FE41"/>
</linearGradient>
</defs>
</svg>
