<svg width="22" height="22" viewBox="0 0 22 22" fill="none" xmlns="http://www.w3.org/2000/svg">
<path d="M5 3C3.892 3 3 3.892 3 5V17C3 18.108 3.892 19 5 19H17C18.108 19 19 18.108 19 17V5C19 3.892 18.108 3 17 3H5ZM5 4H17C17.554 4 18 4.446 18 5V17C18 17.554 17.554 18 17 18H5C4.446 18 4 17.554 4 17V5C4 4.446 4.446 4 5 4ZM6 5C5.446 5 5 5.446 5 6V16C5 16.554 5.446 17 6 17H16C16.554 17 17 16.554 17 16V6C17 5.446 16.554 5 16 5H6Z" fill="url(#paint0_linear_10_13988)"/>
<defs>
<linearGradient id="paint0_linear_10_13988" x1="3" y1="11" x2="19" y2="11" gradientUnits="userSpaceOnUse">
<stop stop-color="#FDFC47"/>
<stop offset="1" stop-color="#24FE41"/>
</linearGradient>
</defs>
</svg>
