<svg width="22" height="22" viewBox="0 0 22 22" fill="none" xmlns="http://www.w3.org/2000/svg">
<path d="M10.957 2.9785C8.29096 3.0038 5.63898 3.7026 3 4.99998C6.10652 10.0028 5.04843 13.2282 3 17C8.61051 19.9795 13.9673 19.3448 19 17C16.4924 13.1202 16.2782 9.79723 19 4.99998C16.3032 3.60139 13.6231 2.95319 10.957 2.9785ZM10.7148 3.99217C11.5936 3.96711 12.4875 4.04129 13.3965 4.2031C13.1069 5.36799 12.8813 6.52958 12.7324 7.68748C12.2949 7.64781 11.8545 7.61616 11.4043 7.60545C10.6963 7.5886 9.9658 7.62649 9.22266 7.69139C9.07564 6.54647 8.85285 5.39783 8.56836 4.24607C9.2781 4.11385 9.99146 4.0128 10.7148 3.99217ZM14.373 4.4199C15.4433 4.68307 16.5329 5.05432 17.6484 5.55467C17.1581 6.49862 16.791 7.44559 16.543 8.38865C15.6268 8.14721 14.6916 7.94342 13.7246 7.80857C13.8699 6.68545 14.0895 5.55536 14.373 4.4199ZM7.58789 4.44529C7.86667 5.56561 8.08435 6.68074 8.22852 7.78904C7.33981 7.91208 6.41614 8.11612 5.4707 8.37693C5.20962 7.48207 4.83315 6.54507 4.32812 5.56443C5.40887 5.10271 6.49298 4.72031 7.58789 4.44529ZM11.0098 8.6035C11.5601 8.60301 12.0991 8.62749 12.6289 8.67576C12.4812 10.2666 12.4715 11.8501 12.6074 13.4238C11.5616 13.5179 10.4769 13.5195 9.34961 13.4219C9.48519 11.8501 9.47342 10.2685 9.32617 8.67967C9.89781 8.62943 10.4594 8.60398 11.0098 8.6035ZM8.33203 8.78123C8.47356 10.3056 8.48446 11.819 8.35547 13.3222C7.50366 13.2024 6.61686 13.0037 5.70508 12.75C5.7608 12.4744 5.8214 12.2023 5.85352 11.9121C5.94198 11.1126 5.88884 10.2548 5.70898 9.34959C6.61103 9.09884 7.48864 8.90095 8.33203 8.78123ZM13.6211 8.79881C14.5506 8.9317 15.4539 9.13124 16.3438 9.36912C16.1476 10.5051 16.1296 11.6321 16.3008 12.7422C15.4172 12.9763 14.5204 13.1719 13.5977 13.3027C13.4708 11.8114 13.4817 10.3109 13.6211 8.79881ZM5.46289 13.7168C6.41832 13.9814 7.35055 14.1907 8.24805 14.3144C8.11157 15.3828 7.89249 16.4455 7.60742 17.5039C6.49289 17.2523 5.41451 16.8962 4.35742 16.4492C4.77464 15.5883 5.16963 14.6875 5.46289 13.7168ZM16.4902 13.7226C16.7264 14.6432 17.0901 15.5487 17.5938 16.4336C16.4541 16.9057 15.375 17.2434 14.3418 17.4785C14.0588 16.4215 13.8424 15.3598 13.707 14.2929C14.6619 14.1603 15.5852 13.9593 16.4902 13.7226ZM9.24023 14.4101C10.4428 14.5145 11.6008 14.5124 12.7148 14.4121C12.8524 15.5003 13.0726 16.5824 13.3574 17.6601C11.6571 17.9408 10.0801 17.9324 8.58789 17.6953C8.87765 16.6055 9.10127 15.5104 9.24023 14.4101Z" fill="url(#paint0_linear_10_14002)"/>
<defs>
<linearGradient id="paint0_linear_10_14002" x1="3" y1="10.9907" x2="19" y2="10.9907" gradientUnits="userSpaceOnUse">
<stop stop-color="#FDFC47"/>
<stop offset="1" stop-color="#24FE41"/>
</linearGradient>
</defs>
</svg>
