<svg width="22" height="22" viewBox="0 0 22 22" fill="none" xmlns="http://www.w3.org/2000/svg">
<path d="M15 4.5C12.2152 4.5 9.54451 5.60625 7.57538 7.57538C5.60625 9.54451 4.5 12.2152 4.5 15H5.5C5.5 12.4804 6.50089 10.0641 8.28249 8.28249C10.0641 6.50089 12.4804 5.5 15 5.5V4.5ZM16.5 14C16.1717 14 15.8466 14.0647 15.5433 14.1903C15.24 14.3159 14.9644 14.5001 14.7322 14.7322C14.5001 14.9644 14.3159 15.24 14.1903 15.5433C14.0647 15.8466 14 16.1717 14 16.5C14.0008 16.9898 14.1454 17.4686 14.416 17.877L15.1484 17.1445C15.0516 16.9434 15.0009 16.7232 15 16.5C15 16.1022 15.158 15.7206 15.4393 15.4393C15.7206 15.158 16.1022 15 16.5 15C16.7232 15.0009 16.9434 15.0516 17.1445 15.1484L17.877 14.416C17.4686 14.1454 16.9898 14.0008 16.5 14ZM18.584 15.123L17.8516 15.8555C17.9484 16.0566 17.9991 16.2768 18 16.5C18 16.8978 17.842 17.2794 17.5607 17.5607C17.2794 17.842 16.8978 18 16.5 18C16.2768 17.9991 16.0566 17.9484 15.8555 17.8516L15.123 18.584C15.5314 18.8546 16.0102 18.9992 16.5 19C16.8283 19 17.1534 18.9353 17.4567 18.8097C17.76 18.6841 18.0356 18.4999 18.2678 18.2678C18.4999 18.0356 18.6841 17.76 18.8097 17.4567C18.9353 17.1534 19 16.8283 19 16.5C18.9992 16.0102 18.8546 15.5314 18.584 15.123Z" fill="url(#paint0_linear_10_14023)"/>
<path d="M15 5.5C12.4804 5.5 10.0641 6.50089 8.28249 8.28249C6.50089 10.0641 5.5 12.4804 5.5 15H7V18H13V16.5C13 16.0404 13.0905 15.5852 13.2664 15.1606C13.4423 14.736 13.7001 14.3501 14.0251 14.0251C14.3501 13.7001 14.736 13.4423 15.1606 13.2664C15.5852 13.0905 16.0404 13 16.5 13H18V7H15V5.5Z" fill="url(#paint1_linear_10_14023)" fill-opacity="0.5"/>
<path d="M15 3V7H19V3H15ZM16 4H18V6H16V4ZM3 15V19H7V15H3ZM4 16H6V18H4V16Z" fill="url(#paint2_linear_10_14023)"/>
<defs>
<linearGradient id="paint0_linear_10_14023" x1="4.5" y1="11.75" x2="19" y2="11.75" gradientUnits="userSpaceOnUse">
<stop stop-color="#FDFC47"/>
<stop offset="1" stop-color="#24FE41"/>
</linearGradient>
<linearGradient id="paint1_linear_10_14023" x1="5.5" y1="11.75" x2="18" y2="11.75" gradientUnits="userSpaceOnUse">
<stop stop-color="#FDFC47"/>
<stop offset="1" stop-color="#24FE41"/>
</linearGradient>
<linearGradient id="paint2_linear_10_14023" x1="3" y1="11" x2="19" y2="11" gradientUnits="userSpaceOnUse">
<stop stop-color="#FDFC47"/>
<stop offset="1" stop-color="#24FE41"/>
</linearGradient>
</defs>
</svg>
