<svg width="22" height="22" viewBox="0 0 22 22" fill="none" xmlns="http://www.w3.org/2000/svg">
<path d="M5 3V4V10V19H6H9V18V10V7H13H16H17V6V4V3H16H6H5ZM6 4H16V6H13H9H8V7V10V18H6V10V4ZM11 9V10V19H12H15V18V13H16H17V12V10V9H16H15H13H11ZM12 10H15H16V12H15H14V13V18H12V10Z" fill="url(#paint0_linear_10_14019)"/>
<defs>
<linearGradient id="paint0_linear_10_14019" x1="5" y1="11" x2="17" y2="11" gradientUnits="userSpaceOnUse">
<stop stop-color="#FDFC47"/>
<stop offset="1" stop-color="#24FE41"/>
</linearGradient>
</defs>
</svg>
