<svg width="22" height="22" viewBox="0 0 22 22" fill="none" xmlns="http://www.w3.org/2000/svg">
<path d="M10.5 3C9.84576 3 9.2978 3.41808 9.0918 4H5H4V5V16.0918C3.41808 16.2978 3 16.8458 3 17.5C3 18.331 3.669 19 4.5 19C5.331 19 6 18.331 6 17.5C6 16.8458 5.58192 16.2978 5 16.0918V5H9.0918C9.24214 5.4247 9.5753 5.75786 10 5.9082V12V13H11H11.0918C11.2978 13.5819 11.8458 14 12.5 14C13.331 14 14 13.331 14 12.5C14 11.669 13.331 11 12.5 11C11.8458 11 11.2978 11.4181 11.0918 12H11V5.9082C11.5819 5.7022 12 5.15424 12 4.5C12 3.669 11.331 3 10.5 3ZM10.5 4C10.777 4 11 4.223 11 4.5C11 4.777 10.777 5 10.5 5C10.223 5 10 4.777 10 4.5C10 4.223 10.223 4 10.5 4ZM12.5 12C12.777 12 13 12.223 13 12.5C13 12.777 12.777 13 12.5 13C12.223 13 12 12.777 12 12.5C12 12.223 12.223 12 12.5 12ZM16 13V17.293L13.707 15L13 15.707L16.293 19L16.5 19.207L16.707 19L20 15.707L19.293 15L17 17.293V13H16ZM4.5 17C4.777 17 5 17.223 5 17.5C5 17.777 4.777 18 4.5 18C4.223 18 4 17.777 4 17.5C4 17.223 4.223 17 4.5 17Z" fill="url(#paint0_linear_10_14029)"/>
<defs>
<linearGradient id="paint0_linear_10_14029" x1="3" y1="11.1035" x2="20" y2="11.1035" gradientUnits="userSpaceOnUse">
<stop stop-color="#FDFC47"/>
<stop offset="1" stop-color="#24FE41"/>
</linearGradient>
</defs>
</svg>
