<svg width="22" height="22" viewBox="0 0 22 22" fill="none" xmlns="http://www.w3.org/2000/svg">
<path d="M10 3V10H12V3H10ZM9 3.26562C5.54445 4.15022 3 7.26101 3 11C3 15.432 6.568 19 11 19C15.432 19 19 15.432 19 11C19 7.26101 16.4555 4.15022 13 3.26562V4.30273C15.895 5.15992 18 7.81962 18 11C18 14.878 14.878 18 11 18C7.122 18 4 14.878 4 11C4 7.81962 6.10496 5.15992 9 4.30273V3.26562Z" fill="url(#paint0_linear_10_14040)"/>
<defs>
<linearGradient id="paint0_linear_10_14040" x1="3" y1="11" x2="19" y2="11" gradientUnits="userSpaceOnUse">
<stop stop-color="#FDFC47"/>
<stop offset="1" stop-color="#24FE41"/>
</linearGradient>
</defs>
</svg>
