<svg width="22" height="22" viewBox="0 0 22 22" fill="none" xmlns="http://www.w3.org/2000/svg">
<path d="M11 3C6.568 3 3 6.568 3 11C3 15.432 6.568 19 11 19C15.432 19 19 15.432 19 11C19 6.568 15.432 3 11 3ZM11 4C14.878 4 18 7.122 18 11C18 14.878 14.878 18 11 18C7.122 18 4 14.878 4 11C4 7.122 7.122 4 11 4ZM11 6C10.4696 6 9.96086 6.21071 9.58579 6.58579C9.21071 6.96086 9 7.46957 9 8V10H7V15H15V10H13V8C13 7.46957 12.7893 6.96086 12.4142 6.58579C12.0391 6.21071 11.5304 6 11 6ZM11 7C11.2652 7 11.5196 7.10536 11.7071 7.29289C11.8946 7.48043 12 7.73478 12 8V10H10V8C10 7.73478 10.1054 7.48043 10.2929 7.29289C10.4804 7.10536 10.7348 7 11 7ZM8 11H9H10H12H13H14V14H8V11Z" fill="url(#paint0_linear_10_14033)"/>
<defs>
<linearGradient id="paint0_linear_10_14033" x1="3" y1="11" x2="19" y2="11" gradientUnits="userSpaceOnUse">
<stop stop-color="#FDFC47"/>
<stop offset="1" stop-color="#24FE41"/>
</linearGradient>
</defs>
</svg>
