<svg width="22" height="22" viewBox="0 0 22 22" fill="none" xmlns="http://www.w3.org/2000/svg">
<path d="M6.78906 3.41211L5.92188 3.91211L7.56836 6.76172L5.32031 6.16016L5.06055 7.12695L8.27539 7.98828L9.8457 10.7051H6.70703L4.35352 8.35156L3.64648 9.05859L5.29297 10.7051H2V11.7051H5.29297L3.64648 13.3516L4.35352 14.0586L6.70703 11.7051H9.83984L8.27344 14.418L5.05859 15.2793L5.31641 16.2461L7.56641 15.6426L5.91992 18.4941L6.78516 18.9941L8.43164 16.1426L9.03516 18.3926L10 18.1328L9.13867 14.916L10.9941 11.7051H11L12.8574 14.9238L11.9961 18.1387L12.9629 18.3965L13.5645 16.1484L15.2109 19L16.0781 18.5L14.4316 15.6484L16.6797 16.25L16.9395 15.2852L13.7246 14.4238L12.1543 11.7051H15.293L17.6465 14.0586L18.3535 13.3516L16.707 11.7051H20V10.7051H16.707L18.3535 9.05859L18.3027 9H17L15.293 10.7051H12.1562L13.1406 9H12L11.002 10.7031H11L10.9961 10.7011L9.14258 7.48823L10.0039 4.27339L9.03712 4.01363L8.43555 6.26363L6.78906 3.41211ZM17.5031 5.25H19.0063L18.9781 6H16L17.5031 3.75H16V3H19.0063L17.5031 5.25ZM13.4984 7.25H15L14.9718 8H11.9969L13.4984 5.75H11.9969V5H15L13.4984 7.25Z" fill="url(#paint0_linear_10_14042)"/>
<defs>
<linearGradient id="paint0_linear_10_14042" x1="2" y1="11" x2="20" y2="11" gradientUnits="userSpaceOnUse">
<stop stop-color="#FDFC47"/>
<stop offset="1" stop-color="#24FE41"/>
</linearGradient>
</defs>
</svg>
