<svg width="22" height="22" viewBox="0 0 22 22" fill="none" xmlns="http://www.w3.org/2000/svg">
<path d="M9 3L3 5L5 11L10 13.5V10H18L19 8L9 3ZM3 5V11L10 18V14.2734L4 11L3 5ZM6.5 5C7.331 5 8 5.669 8 6.5C8 7.331 7.331 8 6.5 8C5.669 8 5 7.331 5 6.5C5 5.669 5.669 5 6.5 5ZM15 11C12.784 11 11 12.784 11 15C11 17.216 12.784 19 15 19C17.216 19 19 17.216 19 15C19 12.784 17.216 11 15 11ZM15 12C16.662 12 18 13.338 18 15C18 16.662 16.662 18 15 18C13.338 18 12 16.662 12 15C12 13.338 13.338 12 15 12ZM14 13V15V16H15H16V15H15V13H14Z" fill="url(#paint0_linear_10_14066)"/>
<defs>
<linearGradient id="paint0_linear_10_14066" x1="3" y1="11" x2="19" y2="11" gradientUnits="userSpaceOnUse">
<stop stop-color="#FDFC47"/>
<stop offset="1" stop-color="#24FE41"/>
</linearGradient>
</defs>
</svg>
