<svg width="22" height="22" viewBox="0 0 22 22" fill="none" xmlns="http://www.w3.org/2000/svg">
<path d="M10.2941 20.0384C9.60742 18.9692 9.36117 18.7973 9.05012 19.17C8.93408 19.309 8.77642 19.4227 8.69976 19.4227C8.62311 19.4227 8.18889 18.9051 7.73483 18.2725C6.83409 17.0175 6.39573 16.8679 6.22669 17.7581C6.13267 18.2531 6.08567 18.2014 5.38121 16.827C4.97095 16.0266 4.51375 15.3254 4.36521 15.2687C4.21667 15.2121 3.89141 15.2579 3.64241 15.3708C3.39341 15.4836 3.14979 15.5362 3.10103 15.4877C3.05227 15.4392 3.18447 14.7174 3.39479 13.8837C3.85012 12.0786 3.75315 11.8198 2.68528 11.9895C2.15957 12.0731 2 12.0405 2 11.8494C2 11.7124 2.50907 10.7413 3.13126 9.69138C4.19491 7.89652 4.24688 7.7587 4.00079 7.38529C3.35862 6.41086 4.31399 5.21091 5.73198 5.21091C6.10586 5.21091 6.41177 5.16309 6.41177 5.10465C6.41177 5.0462 6.21324 4.7638 5.97059 4.47709C5.72794 4.19038 5.52941 3.89252 5.52941 3.81518C5.52941 3.73784 6.05134 3.77207 6.68926 3.89126L7.84911 4.10796L7.73956 3.67397C7.6793 3.43527 7.58454 3.01397 7.52898 2.73775L7.42795 2.23554L8.54046 2.68499L9.65297 3.13444L9.96526 2.72517C10.137 2.50008 10.4125 2.01983 10.5773 1.65795C10.7422 1.29608 10.9324 1 11 1C11.0676 1 11.2578 1.29608 11.4227 1.65795C11.5875 2.01983 11.863 2.50008 12.0347 2.72517L12.347 3.13444L13.4595 2.68499L14.5721 2.23554L14.471 2.73775C14.4155 3.01397 14.3196 3.43971 14.258 3.68384C14.1363 4.1657 14.0806 4.16476 16.0735 3.71478C16.617 3.59208 16.5716 3.85616 15.9229 4.59071L15.3752 5.21091H16.1615C17.6868 5.21091 18.6675 6.37128 17.9992 7.38528C17.7531 7.7587 17.8051 7.89652 18.8687 9.69137C19.4909 10.7413 20 11.7124 20 11.8494C20 12.0405 19.8404 12.0731 19.3147 11.9895C18.2469 11.8198 18.1499 12.0786 18.6052 13.8837C18.8155 14.7174 18.9477 15.4392 18.899 15.4877C18.8502 15.5362 18.6066 15.4836 18.3576 15.3708C18.1086 15.258 17.7833 15.212 17.6348 15.2687C17.4863 15.3254 17.0291 16.0266 16.6188 16.827C15.9143 18.2014 15.8673 18.2531 15.7733 17.758C15.6043 16.8679 15.1659 17.0175 14.2652 18.2725C13.8111 18.9051 13.3769 19.4227 13.3002 19.4227C13.2236 19.4227 13.0659 19.309 12.9499 19.17C12.6388 18.7973 12.3926 18.9692 11.7059 20.0384C11.3662 20.5673 11.0485 21 11 21C10.9515 21 10.6338 20.5673 10.2941 20.0384ZM12.49 16.5764C12.9274 15.9555 12.8439 15.5627 12.2746 15.5627C12.005 15.5627 11.6079 15.4398 11.3922 15.2896C11.0372 15.0424 10.9628 15.0424 10.6078 15.2896C10.3921 15.4398 9.99502 15.5627 9.72544 15.5627C9.15608 15.5627 9.0726 15.9555 9.51001 16.5764C9.74867 16.9152 9.94421 16.9664 11 16.9664C12.0558 16.9664 12.2513 16.9152 12.49 16.5764ZM10.1252 15.0323C10.3107 14.9336 10.544 14.7014 10.6437 14.5163C10.7951 14.2349 10.7367 14.1279 10.2872 13.8639C9.88003 13.6248 9.76204 13.4412 9.80121 13.1079C9.85051 12.6884 9.90678 12.6677 11 12.6677C12.0988 12.6677 12.1493 12.6866 12.1996 13.1161C12.2384 13.4473 12.1346 13.627 11.8025 13.8037C11.2486 14.0985 11.2244 14.5761 11.7452 14.9387C12.3478 15.3584 12.6674 15.2704 13.1322 14.557C13.3669 14.1969 13.8969 13.7169 14.3101 13.4905C14.7232 13.264 15.1473 12.919 15.2524 12.7237C15.5732 12.1278 15.7902 10.1479 15.578 9.75362C15.4744 9.56129 14.5446 8.73685 13.5117 7.92152C11.0182 5.95326 11.0029 5.95326 8.49647 7.92203C7.45923 8.73678 6.52581 9.56087 6.42221 9.75334C6.20779 10.1517 6.42791 12.1297 6.75408 12.7357C6.86274 12.9376 7.20738 13.2312 7.51995 13.3883C8.21624 13.7381 8.88236 14.3272 8.88236 14.5932C8.88236 15.1225 9.52739 15.3504 10.1252 15.0323ZM8.88235 10.8401C8.88235 10.7355 8.72894 10.65 8.54143 10.65C8.19494 10.65 7.3473 9.66137 7.53434 9.47541C7.59059 9.41948 8.01616 9.52861 8.48006 9.7179C9.14843 9.99061 9.32353 10.1474 9.32353 10.473C9.32353 10.699 9.22427 10.9168 9.10294 10.957C8.98162 10.9973 8.88235 10.9446 8.88235 10.8401ZM12.6521 10.7377C12.5962 10.593 12.5909 10.3698 12.6403 10.2418C12.7398 9.98403 14.3177 9.32827 14.4711 9.48087C14.6542 9.66283 13.7992 10.65 13.4586 10.65C13.2711 10.65 13.1176 10.729 13.1176 10.8255C13.1176 11.0982 12.7656 11.0319 12.6521 10.7377ZM6.41177 8.0155C6.59938 7.89305 6.61817 7.80441 6.47629 7.71114C6.36619 7.63876 6.24638 7.42363 6.21002 7.23305C6.12757 6.80078 5.44489 6.44508 4.69117 6.44168C3.94252 6.43835 3.94851 6.76218 4.71201 7.56706C5.31395 8.20162 5.89267 8.3543 6.41177 8.0155ZM17.288 7.56706C18.0515 6.76218 18.0575 6.43831 17.3088 6.44168C16.5551 6.44512 15.8724 6.80078 15.79 7.23305C15.7536 7.42363 15.6338 7.63877 15.5237 7.71114C15.3818 7.80441 15.4006 7.89305 15.5882 8.0155C16.1073 8.3543 16.6861 8.20162 17.288 7.56706ZM7.18298 6.46425C7.44396 6.17755 7.44806 6.11257 7.21726 5.92212C6.82216 5.59611 5.6855 5.50408 5.08824 5.74975L4.55883 5.96751L5.20812 6.08594C5.56523 6.15107 6.0417 6.332 6.26694 6.48799C6.79401 6.853 6.82999 6.85207 7.18298 6.46425ZM15.6979 6.49675C15.9455 6.33546 16.439 6.1504 16.7946 6.08551L17.4412 5.96751L16.9118 5.74975C16.3145 5.50408 15.1778 5.59611 14.7827 5.92212C14.5519 6.11257 14.556 6.17755 14.817 6.46426C15.1765 6.85915 15.1435 6.85793 15.6979 6.49675Z" fill="url(#paint0_linear_10_14077)"/>
<defs>
<linearGradient id="paint0_linear_10_14077" x1="2" y1="11" x2="20" y2="11" gradientUnits="userSpaceOnUse">
<stop stop-color="#FDFC47"/>
<stop offset="1" stop-color="#24FE41"/>
</linearGradient>
</defs>
</svg>
