<svg width="22" height="22" viewBox="0 0 22 22" fill="none" xmlns="http://www.w3.org/2000/svg">
<path d="M5 11C3.93913 11 2.92172 11.4214 2.17157 12.1716C1.42143 12.9217 1 13.9391 1 15C1 16.0609 1.42143 17.0783 2.17157 17.8284C2.92172 18.5786 3.93913 19 5 19C5.56804 18.9991 6.12938 18.8773 6.64666 18.6425C7.16393 18.4078 7.62528 18.0656 8 17.6387V19H9V15V11H8V12.3613C7.62528 11.9344 7.16393 11.5922 6.64666 11.3575C6.12938 11.1227 5.56804 11.0009 5 11ZM13 11V15V19H14V17.6387C14.3747 18.0656 14.8361 18.4078 15.3533 18.6425C15.8706 18.8773 16.432 18.9991 17 19C18.0609 19 19.0783 18.5786 19.8284 17.8284C20.5786 17.0783 21 16.0609 21 15C21 13.9391 20.5786 12.9217 19.8284 12.1716C19.0783 11.4214 18.0609 11 17 11C16.432 11.0009 15.8706 11.1227 15.3533 11.3575C14.8361 11.5922 14.3747 11.9344 14 12.3613V11H13ZM5 12C5.79565 12 6.55871 12.3161 7.12132 12.8787C7.68393 13.4413 8 14.2044 8 15C8 15.7956 7.68393 16.5587 7.12132 17.1213C6.55871 17.6839 5.79565 18 5 18C4.20435 18 3.44129 17.6839 2.87868 17.1213C2.31607 16.5587 2 15.7956 2 15C2 14.2044 2.31607 13.4413 2.87868 12.8787C3.44129 12.3161 4.20435 12 5 12ZM17 12C17.7956 12 18.5587 12.3161 19.1213 12.8787C19.6839 13.4413 20 14.2044 20 15C20 15.7956 19.6839 16.5587 19.1213 17.1213C18.5587 17.6839 17.7956 18 17 18C16.2044 18 15.4413 17.6839 14.8787 17.1213C14.3161 16.5587 14 15.7956 14 15C14 14.2044 14.3161 13.4413 14.8787 12.8787C15.4413 12.3161 16.2044 12 17 12Z" fill="url(#paint0_linear_10_14079)"/>
<path d="M9 3L5 6L9 9V3ZM13 3V9L17 6L13 3Z" fill="url(#paint1_linear_10_14079)"/>
<defs>
<linearGradient id="paint0_linear_10_14079" x1="1" y1="15" x2="21" y2="15" gradientUnits="userSpaceOnUse">
<stop stop-color="#FDFC47"/>
<stop offset="1" stop-color="#24FE41"/>
</linearGradient>
<linearGradient id="paint1_linear_10_14079" x1="5" y1="6" x2="17" y2="6" gradientUnits="userSpaceOnUse">
<stop stop-color="#FDFC47"/>
<stop offset="1" stop-color="#24FE41"/>
</linearGradient>
</defs>
</svg>
