<svg width="22" height="22" viewBox="0 0 22 22" fill="none" xmlns="http://www.w3.org/2000/svg">
<path d="M3 3V4V19H4H10V18V4V3H4H3ZM4 4H9V18H4V4ZM5 5V6H8V5H5ZM5 7V8H8V7H5ZM5 9V10H8V9H5ZM5 11V12H7V11H5Z" fill="url(#paint0_linear_10_14110)"/>
<path d="M13 3V4H18V18H13V19H19V18V3H13ZM13 18V4H12V18H13Z" fill="url(#paint1_linear_10_14110)"/>
<defs>
<linearGradient id="paint0_linear_10_14110" x1="3" y1="11" x2="10" y2="11" gradientUnits="userSpaceOnUse">
<stop stop-color="#FDFC47"/>
<stop offset="1" stop-color="#24FE41"/>
</linearGradient>
<linearGradient id="paint1_linear_10_14110" x1="12" y1="3" x2="23.5541" y2="14.3736" gradientUnits="userSpaceOnUse">
<stop stop-color="#FF0500"/>
<stop offset="1" stop-color="#FD3632"/>
</linearGradient>
</defs>
</svg>
