<svg width="22" height="22" viewBox="0 0 22 22" fill="none" xmlns="http://www.w3.org/2000/svg">
<path d="M12 5V9V13H13V11.6387C13.3747 12.0656 13.8361 12.4078 14.3533 12.6425C14.8706 12.8773 15.432 12.9991 16 13C17.0609 13 18.0783 12.5786 18.8284 11.8284C19.5786 11.0783 20 10.0609 20 9C20 7.93913 19.5786 6.92172 18.8284 6.17157C18.0783 5.42143 17.0609 5 16 5C15.432 5.00089 14.8706 5.12275 14.3533 5.35747C13.8361 5.5922 13.3747 5.93441 13 6.36133V5H12ZM16 6C16.7956 6 17.5587 6.31607 18.1213 6.87868C18.6839 7.44129 19 8.20435 19 9C19 9.79565 18.6839 10.5587 18.1213 11.1213C17.5587 11.6839 16.7956 12 16 12C15.2044 12 14.4413 11.6839 13.8787 11.1213C13.3161 10.5587 13 9.79565 13 9C13 8.20435 13.3161 7.44129 13.8787 6.87868C14.4413 6.31607 15.2044 6 16 6ZM5 11C3.93913 11 2.92172 11.4214 2.17157 12.1716C1.42143 12.9217 1 13.9391 1 15C1 16.0609 1.42143 17.0783 2.17157 17.8284C2.92172 18.5786 3.93913 19 5 19C5.56804 18.9991 6.12938 18.8773 6.64666 18.6425C7.16393 18.4078 7.62528 18.0656 8 17.6387V19H9V15V11H8V12.3613C7.62528 11.9344 7.16393 11.5922 6.64666 11.3575C6.12938 11.1227 5.56804 11.0009 5 11ZM5 12C5.79565 12 6.55871 12.3161 7.12132 12.8787C7.68393 13.4413 8 14.2044 8 15C8 15.7956 7.68393 16.5587 7.12132 17.1213C6.55871 17.6839 5.79565 18 5 18C4.20435 18 3.44129 17.6839 2.87868 17.1213C2.31607 16.5587 2 15.7956 2 15C2 14.2044 2.31607 13.4413 2.87868 12.8787C3.44129 12.3161 4.20435 12 5 12Z" fill="url(#paint0_linear_10_14097)"/>
<path d="M10 3V19H11V15H20V14H11V3H10Z" fill="url(#paint1_linear_10_14097)"/>
<defs>
<linearGradient id="paint0_linear_10_14097" x1="1" y1="12" x2="20" y2="12" gradientUnits="userSpaceOnUse">
<stop stop-color="#FDFC47"/>
<stop offset="1" stop-color="#24FE41"/>
</linearGradient>
<linearGradient id="paint1_linear_10_14097" x1="10" y1="11" x2="20" y2="11" gradientUnits="userSpaceOnUse">
<stop stop-color="#FDFC47"/>
<stop offset="1" stop-color="#24FE41"/>
</linearGradient>
</defs>
</svg>
