<svg width="22" height="22" viewBox="0 0 22 22" fill="none" xmlns="http://www.w3.org/2000/svg">
<path d="M3 3V19H11V18H4V4H18V12H19V3H3ZM5 5V6H17V5H5ZM5 7V8H14V7H5ZM5 10V11H17V10H5ZM5 12V13H9V12H5ZM5 15V16H14V15H5ZM12 17V18H15V17H12Z" fill="url(#paint0_linear_10_14105)"/>
<path d="M11 12V13H15H15.5C16.885 13 18 14.115 18 15.5C18 16.3187 17.6045 17.0351 17 17.4902V16H16V17.9492V18V18.9512V19H17H19V18H17.9238C18.5818 17.3681 19 16.4903 19 15.5C19 13.561 17.439 12 15.5 12H11Z" fill="url(#paint1_linear_10_14105)"/>
<defs>
<linearGradient id="paint0_linear_10_14105" x1="3" y1="11" x2="19" y2="11" gradientUnits="userSpaceOnUse">
<stop stop-color="#FDFC47"/>
<stop offset="1" stop-color="#24FE41"/>
</linearGradient>
<linearGradient id="paint1_linear_10_14105" x1="11" y1="15.5" x2="19" y2="15.5" gradientUnits="userSpaceOnUse">
<stop stop-color="#FDFC47"/>
<stop offset="1" stop-color="#24FE41"/>
</linearGradient>
</defs>
</svg>
