<svg width="22" height="22" viewBox="0 0 22 22" fill="none" xmlns="http://www.w3.org/2000/svg">
<path d="M3 3V4V6V7V9V10V12V13V15V16V18V19H18H19V18V16V15V13V12V10V9V7V6V4V3H18H3ZM4 4H18V6H4V4ZM4 7H18V9H4V7ZM4 10H18V12H4V10ZM4 13H18V15H4V13ZM4 16H18V18H4V16Z" fill="url(#paint0_linear_10_14121)"/>
<defs>
<linearGradient id="paint0_linear_10_14121" x1="3" y1="11" x2="19" y2="11" gradientUnits="userSpaceOnUse">
<stop stop-color="#FDFC47"/>
<stop offset="1" stop-color="#24FE41"/>
</linearGradient>
</defs>
</svg>
