<svg width="22" height="22" viewBox="0 0 22 22" fill="none" xmlns="http://www.w3.org/2000/svg">
<path d="M11 3C6.568 3 3 6.568 3 11C3 15.432 6.568 19 11 19V18C7.122 18 4 14.878 4 11C4 7.122 7.122 4 11 4C14.878 4 18 7.122 18 11H19C19 6.568 15.432 3 11 3ZM11 5C7.676 5 5 7.676 5 11H8C8 9.338 9.338 8 11 8V5ZM11 9C9.892 9 9 9.892 9 11C9 12.108 9.892 13 11 13V12C10.446 12 10 11.554 10 11C10 10.446 10.446 10 11 10C11.554 10 12 10.446 12 11H13C13 9.892 12.108 9 11 9ZM15 10V15.2773C14.7049 15.1061 14.367 15 14 15C12.892 15 12 15.892 12 17C12 18.108 12.892 19 14 19C15.108 19 16 18.108 16 17V12V11H17L16 10H15Z" fill="url(#paint0_linear_10_14184)"/>
<defs>
<linearGradient id="paint0_linear_10_14184" x1="3" y1="11" x2="19" y2="11" gradientUnits="userSpaceOnUse">
<stop stop-color="#FDFC47"/>
<stop offset="1" stop-color="#24FE41"/>
</linearGradient>
</defs>
</svg>
