<svg width="22" height="22" viewBox="0 0 22 22" fill="none" xmlns="http://www.w3.org/2000/svg">
<path d="M4.5 3L3.96875 3.96875L3 4.5L3.96875 5.03125L4.5 6L5.03125 5.03125L6 4.5L5.03125 3.96875L4.5 3ZM9.5 3L8.96875 3.96875L8 4.5L8.96875 5.03125L9.5 6L10.0312 5.03125L11 4.5L10.0312 3.96875L9.5 3ZM16.1719 3L3 16.1719L5.82812 19L19 5.82812L16.1719 3ZM16.1035 4.48242L17.5176 5.89648L14.4199 8.99609L13.0039 7.58008L16.1035 4.48242ZM6.5 7L5.96875 7.96875L5 8.5L5.96875 9.03125L6.5 10L7.03125 9.03125L8 8.5L7.03125 7.96875L6.5 7Z" fill="url(#paint0_linear_10_14190)"/>
<defs>
<linearGradient id="paint0_linear_10_14190" x1="3" y1="11" x2="19" y2="11" gradientUnits="userSpaceOnUse">
<stop stop-color="#FDFC47"/>
<stop offset="1" stop-color="#24FE41"/>
</linearGradient>
</defs>
</svg>
