<svg width="22" height="22" viewBox="0 0 22 22" fill="none" xmlns="http://www.w3.org/2000/svg">
<path d="M13.01 4.00002C11.3157 3.95992 10.0694 4.89566 9.23853 6.19143C8.40727 7.48773 7.90717 9.15253 7.49048 10.7988C7.07379 12.4452 6.74505 14.0787 6.33228 15.2559C6.12589 15.8445 5.89479 16.3147 5.66235 16.6035C5.42991 16.8924 5.24341 16.9951 4.99048 17C4.12979 17.0002 3.00024 17 3.00024 17V18C3.00024 18 4.13767 18.0002 5.00024 18H5.00427H5.01025C5.5907 17.9887 6.08908 17.6689 6.44189 17.2305C6.79471 16.7921 7.04985 16.2306 7.27588 15.586C7.72794 14.2967 8.05295 12.6569 8.46143 11.043C8.86991 9.4291 9.36408 7.84782 10.0806 6.73049C10.7971 5.61316 11.6516 4.96771 12.9888 5.00002H12.9928H12.9968C15.7093 5.02182 16.8608 6.13899 17.4518 7.25197C17.8407 7.98423 17.78 8.30132 17.8132 8.71682C16.1137 7.96205 14.6775 7.76539 13.6686 8.29885C12.4668 8.93436 11.9211 10.2787 11.8327 11.6836C11.7443 13.0885 12.089 14.6108 12.7878 15.8301C13.4865 17.0494 14.5972 18.0006 16.0007 18C17.549 18.0148 19.0065 18 19.0065 18L18.9948 17C18.9948 17 17.5439 17.0148 16.0046 17H16.0026H16.0006C15.0488 17.0004 14.2423 16.357 13.6549 15.3321C13.0675 14.3071 12.7558 12.937 12.8307 11.7461C12.9056 10.5553 13.3445 9.59984 14.1354 9.18166C14.9262 8.76348 16.2323 8.78931 18.2545 9.93557L18.9655 10.3379L19.0006 9.5215C19.0006 9.5215 19.065 8.15874 18.3346 6.78322C17.6049 5.40904 16.0083 4.02677 13.0123 4.00002H13.01Z" fill="url(#paint0_linear_10_14163)"/>
<defs>
<linearGradient id="paint0_linear_10_14163" x1="3.00024" y1="11.0027" x2="19.0065" y2="11.0027" gradientUnits="userSpaceOnUse">
<stop stop-color="#FDFC47"/>
<stop offset="1" stop-color="#24FE41"/>
</linearGradient>
</defs>
</svg>
