<svg width="22" height="22" viewBox="0 0 22 22" fill="none" xmlns="http://www.w3.org/2000/svg">
<path d="M8 10C8.55228 10 9 9.55228 9 9C9 8.44772 8.55228 8 8 8C7.44772 8 7 8.44772 7 9C7 9.55228 7.44772 10 8 10Z" fill="url(#paint0_linear_10_14178)"/>
<path d="M14 10C14.5523 10 15 9.55228 15 9C15 8.44772 14.5523 8 14 8C13.4477 8 13 8.44772 13 9C13 9.55228 13.4477 10 14 10Z" fill="url(#paint1_linear_10_14178)"/>
<path d="M11 12C10.0282 12.0012 9.07785 12.2856 8.26512 12.8184C7.4524 13.3512 6.81255 14.1093 6.42383 15H7.54103C7.89167 14.3927 8.39582 13.8882 9.00292 13.5372C9.61002 13.1861 10.2987 13.0009 11 13C11.7013 13.0009 12.39 13.1861 12.9971 13.5372C13.6042 13.8882 14.1084 14.3927 14.459 15H15.5801C15.1911 14.1087 14.5507 13.3502 13.7372 12.8174C12.9237 12.2845 11.9725 12.0005 11 12Z" fill="url(#paint2_linear_10_14178)"/>
<path d="M10.99 2C8.60471 2.0026 6.31804 2.95196 4.63233 4.6395C2.94662 6.32705 1.99975 8.61475 1.99976 11C1.99976 13.3869 2.94797 15.6761 4.63579 17.364C6.32362 19.0518 8.61281 20 10.9998 20C12.1817 20 13.352 19.7672 14.4439 19.3149C15.5358 18.8626 16.528 18.1997 17.3637 17.364C18.1994 16.5282 18.8624 15.5361 19.3147 14.4442C19.767 13.3522 19.9998 12.1819 19.9998 11C19.9998 8.61305 19.0515 6.32387 17.3637 4.63604C15.6759 2.94821 13.3867 2 10.9998 2C10.9965 2 10.9932 2 10.99 2ZM10.9998 3C13.1215 3 15.1563 3.84286 16.6566 5.34315C18.1569 6.84344 18.9998 8.87827 18.9998 11C18.9998 13.1217 18.1569 15.1566 16.6566 16.6569C15.1563 18.1571 13.1215 19 10.9998 19C8.87802 19 6.84319 18.1571 5.3429 16.6569C3.84261 15.1566 2.99976 13.1217 2.99976 11C2.99976 8.87827 3.84261 6.84344 5.3429 5.34315C6.84319 3.84286 8.87802 3 10.9998 3Z" fill="url(#paint3_linear_10_14178)"/>
<defs>
<linearGradient id="paint0_linear_10_14178" x1="7" y1="9" x2="9" y2="9" gradientUnits="userSpaceOnUse">
<stop stop-color="#FDFC47"/>
<stop offset="1" stop-color="#24FE41"/>
</linearGradient>
<linearGradient id="paint1_linear_10_14178" x1="13" y1="9" x2="15" y2="9" gradientUnits="userSpaceOnUse">
<stop stop-color="#FDFC47"/>
<stop offset="1" stop-color="#24FE41"/>
</linearGradient>
<linearGradient id="paint2_linear_10_14178" x1="6.42383" y1="13.5" x2="15.5801" y2="13.5" gradientUnits="userSpaceOnUse">
<stop stop-color="#FDFC47"/>
<stop offset="1" stop-color="#24FE41"/>
</linearGradient>
<linearGradient id="paint3_linear_10_14178" x1="1.99976" y1="11" x2="19.9998" y2="11" gradientUnits="userSpaceOnUse">
<stop stop-color="#FDFC47"/>
<stop offset="1" stop-color="#24FE41"/>
</linearGradient>
</defs>
</svg>
