<svg width="22" height="22" viewBox="0 0 22 22" fill="none" xmlns="http://www.w3.org/2000/svg">
<path d="M17.5 12C16.5717 12 15.6815 12.3687 15.0251 13.0251C14.3687 13.6815 14 14.5717 14 15.5C14 16.4283 14.3687 17.3185 15.0251 17.9749C15.6815 18.6313 16.5717 19 17.5 19C18.4283 19 19.3185 18.6313 19.9749 17.9749C20.6313 17.3185 21 16.4283 21 15.5C21 14.5717 20.6313 13.6815 19.9749 13.0251C19.3185 12.3687 18.4283 12 17.5 12ZM17.5 13.0859L20 15.5859L19.293 16.2929L18 14.9999V17.9999H17V14.9999L15.707 16.2929L14.9999 15.5859L17.5 13.0859Z" fill="url(#paint0_linear_10_14248)"/>
<path d="M5 4.00001C3.338 4.00001 2 5.33801 2 7.00001V15C2 16.662 3.338 18 5 18H13V11L9 15L6 13L3.1797 15.8203C3.06677 15.5694 3.00001 15.2939 3.00001 15V7C3.00001 5.892 3.89201 5 5.00001 5H17C18.108 5 19 5.892 19 7V11H20V7C20 5.338 18.662 4 17 4L5 4.00001ZM7.5 7.00001C6.67157 7.00001 6 7.67158 6 8.50001C6 9.32844 6.67157 10 7.5 10C8.32843 10 9 9.32844 9 8.50001C9 7.67158 8.32843 7.00001 7.5 7.00001Z" fill="url(#paint1_linear_10_14248)"/>
<defs>
<linearGradient id="paint0_linear_10_14248" x1="14" y1="15.5" x2="21" y2="15.5" gradientUnits="userSpaceOnUse">
<stop stop-color="#FDFC47"/>
<stop offset="1" stop-color="#24FE41"/>
</linearGradient>
<linearGradient id="paint1_linear_10_14248" x1="2" y1="11" x2="20" y2="11" gradientUnits="userSpaceOnUse">
<stop stop-color="#FDFC47"/>
<stop offset="1" stop-color="#24FE41"/>
</linearGradient>
</defs>
</svg>
