<svg width="22" height="22" viewBox="0 0 22 22" fill="none" xmlns="http://www.w3.org/2000/svg">
<path d="M14.834 14L14 14.834L15.666 16.5L14 18.166L14.834 19L16.5 17.334L18.166 19L19 18.166L17.334 16.5L19 14.834L18.166 14L16.5 15.666L14.834 14Z" fill="url(#paint0_linear_10_14266)"/>
<path d="M11 3C6.58172 3 3 4.34315 3 6V16C3 17.6569 6.58172 19 11 19C11.6752 18.9986 12.3472 18.9651 13 18.9004V18V17.916C12.3511 17.9715 11.6774 17.9998 11 18C7.13401 18 4 17.1046 4 16V12.4512C5.40812 13.4066 8.08901 13.9998 11 14C13.9143 13.9986 16.596 13.403 18 12.4453V13H19V6C19 4.34315 15.4183 3 11 3ZM11 4C14.866 4 18 4.89543 18 6C18 7.10457 14.866 8 11 8C7.13401 8 4 7.10457 4 6C4 4.89543 7.13401 4 11 4ZM18 7.44531V11C18 12.1046 14.866 13 11 13C7.13401 13 4 12.1046 4 11V7.45117C5.40812 8.40658 8.08901 8.99976 11 9C13.9143 8.99858 16.596 8.40298 18 7.44531Z" fill="url(#paint1_linear_10_14266)"/>
<defs>
<linearGradient id="paint0_linear_10_14266" x1="14" y1="16.5" x2="19" y2="16.5" gradientUnits="userSpaceOnUse">
<stop stop-color="#FDFC47"/>
<stop offset="1" stop-color="#24FE41"/>
</linearGradient>
<linearGradient id="paint1_linear_10_14266" x1="3" y1="11" x2="19" y2="11" gradientUnits="userSpaceOnUse">
<stop stop-color="#FDFC47"/>
<stop offset="1" stop-color="#24FE41"/>
</linearGradient>
</defs>
</svg>
