<svg width="22" height="22" viewBox="0 0 22 22" fill="none" xmlns="http://www.w3.org/2000/svg">
<path d="M11 3C6.58172 3 3 4.34315 3 6V16C3 17.6569 6.58172 19 11 19C11.9735 18.9995 12.9349 18.9318 13.8379 18.8027L13 17.9141C12.3514 17.9702 11.6777 17.9992 11 18C7.13401 18 4 17.1046 4 16V12.4512C5.40812 13.4 8.08901 14 11 14C12.1657 13.9982 13.3162 13.9 14.3711 13.7148L15.5762 12.5098C14.3065 12.825 12.682 13 11 13C7.13401 13 4 12.1046 4 11V7.45117C5.40812 8.40658 8.08901 8.99976 11 9C13.9143 8.99858 16.596 8.40298 18 7.44531V11C17.9971 11.3691 17.6368 11.7307 16.959 12.0449L17.4141 12.5L17.5977 12.6836C17.7417 12.6066 17.8759 12.5271 18 12.4453V13.0859L19 14.0859V6C19 4.34315 15.4183 3 11 3ZM11 4C14.866 4 18 4.89543 18 6C18 7.10457 14.866 8 11 8C7.13401 8 4 7.10457 4 6C4 4.89543 7.13401 4 11 4ZM16.5 13L16.293 13.207L13 16.5L13.707 17.207L16 14.9141V19.207H17V14.9141L19.293 17.207L20 16.5L16.707 13.207L16.5 13Z" fill="url(#paint0_linear_10_14262)"/>
<defs>
<linearGradient id="paint0_linear_10_14262" x1="3" y1="11.1035" x2="20" y2="11.1035" gradientUnits="userSpaceOnUse">
<stop stop-color="#FDFC47"/>
<stop offset="1" stop-color="#24FE41"/>
</linearGradient>
</defs>
</svg>
