<svg width="22" height="22" viewBox="0 0 22 22" fill="none" xmlns="http://www.w3.org/2000/svg">
<path d="M11 3C8.87827 3 6.84344 3.31607 5.34315 3.87868C3.84285 4.44129 3 5.20435 3 6V16C3 16.7956 3.84285 17.5587 5.34315 18.1213C6.84344 18.6839 8.87827 19 11 19C12.2368 18.9992 13.4562 18.8909 14.5625 18.6836L13.7188 17.8398C12.859 17.9445 11.9346 17.999 11 18C9.14348 18 7.36301 17.7893 6.05025 17.4142C4.7375 17.0391 4 16.5304 4 16V12.4512C4.69142 12.9203 5.70538 13.3114 6.93642 13.5838C8.16747 13.8562 9.57064 13.9999 11 14C11.8275 13.9994 12.6498 13.9506 13.4375 13.8555L13.7 13.5859L13.9102 13.8C14.2864 13.7438 14.6507 13.6769 15 13.6V13V12.6387C13.8273 12.8731 12.4313 12.9992 11 13C9.14348 13 7.36301 12.7893 6.05025 12.4142C4.7375 12.0391 4 11.5304 4 11V7.45117C4.69142 7.9203 5.70537 8.31139 6.93642 8.58377C8.16747 8.85616 9.57064 8.99988 11 9C12.4309 8.9993 13.8352 8.8547 15.0664 8.58125C16.2975 8.30781 17.3106 7.91553 18 7.44531V11C17.9977 11.3513 17.6717 11.6962 17.0547 12H18V12.4453V14.9L19 13.9V6C19 5.20435 18.1571 4.44129 16.6569 3.87868C15.1566 3.31607 13.1217 3 11 3ZM11 4C12.8565 4 14.637 4.21071 15.9497 4.58579C17.2625 4.96086 18 5.46957 18 6C18 6.53043 17.2625 7.03914 15.9497 7.41421C14.637 7.78929 12.8565 8 11 8C9.14348 8 7.36301 7.78929 6.05025 7.41421C4.7375 7.03914 4 6.53043 4 6C4 5.46957 4.7375 4.96086 6.05025 4.58579C7.36301 4.21071 9.14348 4 11 4ZM16 13V17.3L13.7 15L13 15.7L16.3 19L16.5 19.207L16.7 19L20 15.7L19.3 15L17 17.3V13H16Z" fill="url(#paint0_linear_10_14271)"/>
<defs>
<linearGradient id="paint0_linear_10_14271" x1="3" y1="11.1035" x2="20" y2="11.1035" gradientUnits="userSpaceOnUse">
<stop stop-color="#FDFC47"/>
<stop offset="1" stop-color="#24FE41"/>
</linearGradient>
</defs>
</svg>
