<svg width="22" height="22" viewBox="0 0 22 22" fill="none" xmlns="http://www.w3.org/2000/svg">
<path d="M7 4V4.87891L8 5.87891V5H14V6H8.12109L9.12109 7H15V12.8789L17 14.8789V7H18V15.8789L19 16.8789V6H15V4H7ZM3 6V18H15.8789L14.8789 17H7V9.12109L5 7.12109V17H4V7H4.87891L3.87891 6H3Z" fill="url(#paint0_linear_10_14469)"/>
<path d="M3.70703 3L3 3.70703L18.293 19L19 18.293L3.70703 3Z" fill="url(#paint1_linear_10_14469)"/>
<defs>
<linearGradient id="paint0_linear_10_14469" x1="3" y1="11" x2="19" y2="11" gradientUnits="userSpaceOnUse">
<stop stop-color="#FDFC47"/>
<stop offset="1" stop-color="#24FE41"/>
</linearGradient>
<linearGradient id="paint1_linear_10_14469" x1="3" y1="11" x2="19" y2="11" gradientUnits="userSpaceOnUse">
<stop stop-color="#FDFC47"/>
<stop offset="1" stop-color="#24FE41"/>
</linearGradient>
</defs>
</svg>
