<svg width="22" height="22" viewBox="0 0 22 22" fill="none" xmlns="http://www.w3.org/2000/svg">
<path d="M3 3V4V19H4H10V18H4V4H18V12H19V4V3H4H3ZM5 5V6V17H6H10V16H6V6H16V9H15V11H17V9V5H5ZM9 9C7.892 9 7 9.892 7 11C7 12.108 7.892 13 9 13C10.108 13 11 12.108 11 11C11 9.892 10.108 9 9 9ZM9 10C9.554 10 10 10.446 10 11C10 11.554 9.554 12 9 12C8.446 12 8 11.554 8 11C8 10.446 8.446 10 9 10ZM11 13V19H19V13H11ZM12 14H18V15H17V17H18V18H12V17H13V15H12V14ZM15 15C14.446 15 14 15.446 14 16C14 16.554 14.446 17 15 17C15.554 17 16 16.554 16 16C16 15.446 15.554 15 15 15Z" fill="url(#paint0_linear_10_14275)"/>
<defs>
<linearGradient id="paint0_linear_10_14275" x1="3" y1="11" x2="19" y2="11" gradientUnits="userSpaceOnUse">
<stop stop-color="#FDFC47"/>
<stop offset="1" stop-color="#24FE41"/>
</linearGradient>
</defs>
</svg>
