<svg width="22" height="22" viewBox="0 0 22 22" fill="none" xmlns="http://www.w3.org/2000/svg">
<path d="M3 6V16H4V6H3ZM5 6V13H6V6H5ZM7 6V16H8V6H7ZM9 6V16H11V6H9ZM12 6V16H13V13H14V6H12ZM15 6V11H16V6H15ZM17 6V13H19V6H17ZM16 14V16H14V17H16V19H17V17H19V16H17V14H16Z" fill="url(#paint0_linear_10_14282)"/>
<defs>
<linearGradient id="paint0_linear_10_14282" x1="3" y1="12.5" x2="19" y2="12.5" gradientUnits="userSpaceOnUse">
<stop stop-color="#FDFC47"/>
<stop offset="1" stop-color="#24FE41"/>
</linearGradient>
</defs>
</svg>
