<svg width="22" height="22" viewBox="0 0 22 22" fill="none" xmlns="http://www.w3.org/2000/svg">
<path d="M3 3V19H19V3H3ZM4 7H18V18H4V7ZM9.49414 7.99609L7.80859 11.3691H5L7.24609 13.6152L6.68359 16.9883L9.49219 15.3027L12.3027 16.9883L11.7402 13.6152L13.9902 11.3691H11.1797L9.49414 7.99609ZM12.0332 8.01953V9.01953H17.0039V8.01953H12.0332ZM15 10V11H17V10H15ZM15.0039 12.0195V13.0195H17.0039V12.0195H15.0039ZM13.0059 13.9805V14.9805H17.0039V13.9805H13.0059ZM12.9902 15.9805V16.9805H17.0039V15.9805H12.9902Z" fill="url(#paint0_linear_10_14706)"/>
<defs>
<linearGradient id="paint0_linear_10_14706" x1="3" y1="11" x2="19" y2="11" gradientUnits="userSpaceOnUse">
<stop stop-color="#FDFC47"/>
<stop offset="1" stop-color="#24FE41"/>
</linearGradient>
</defs>
</svg>
