<svg width="22" height="22" viewBox="0 0 22 22" fill="none" xmlns="http://www.w3.org/2000/svg">
<path d="M10.998 5.03906C7.22821 5.04364 3.92811 7.40586 2.99041 10.7696C2.94656 10.9265 2.94656 11.0911 2.99041 11.2481C3.93608 14.6042 7.23611 16.9587 11 16.961C11.0006 16.961 11.0013 16.961 11.0019 16.961C14.7717 16.9564 18.0718 14.5942 19.0095 11.2305C19.0537 11.0729 19.0537 10.9076 19.0095 10.75C18.0639 7.39391 14.7638 5.04141 10.9999 5.03911C10.9992 5.03911 10.9987 5.03906 10.998 5.03906ZM11 6C14.2947 6.00204 17.1721 8.0544 17.9998 10.9922C17.179 13.9366 14.2999 15.996 11 16C7.70521 15.998 4.82791 13.9456 4.00011 11.0078C4.82096 8.0634 7.70011 6.004 11 6Z" fill="url(#paint0_linear_10_14708)"/>
<path d="M11 8C10.2044 8 9.44129 8.31607 8.87868 8.87868C8.31607 9.44129 8 10.2044 8 11C8 11.7956 8.31607 12.5587 8.87868 13.1213C9.44129 13.6839 10.2044 14 11 14C11.7956 14 12.5587 13.6839 13.1213 13.1213C13.6839 12.5587 14 11.7956 14 11C14 10.2044 13.6839 9.44129 13.1213 8.87868C12.5587 8.31607 11.7956 8 11 8ZM11 9C11.5304 9 12.0391 9.21071 12.4142 9.58579C12.7893 9.96086 13 10.4696 13 11C13 11.5304 12.7893 12.0391 12.4142 12.4142C12.0391 12.7893 11.5304 13 11 13C10.4696 13 9.96086 12.7893 9.58579 12.4142C9.21071 12.0391 9 11.5304 9 11C9 10.4696 9.21071 9.96086 9.58579 9.58579C9.96086 9.21071 10.4696 9 11 9Z" fill="url(#paint1_linear_10_14708)"/>
<defs>
<linearGradient id="paint0_linear_10_14708" x1="2.95752" y1="11" x2="19.0427" y2="11" gradientUnits="userSpaceOnUse">
<stop stop-color="#FDFC47"/>
<stop offset="1" stop-color="#24FE41"/>
</linearGradient>
<linearGradient id="paint1_linear_10_14708" x1="8" y1="11" x2="14" y2="11" gradientUnits="userSpaceOnUse">
<stop stop-color="#FDFC47"/>
<stop offset="1" stop-color="#24FE41"/>
</linearGradient>
</defs>
</svg>
