<svg width="22" height="22" viewBox="0 0 22 22" fill="none" xmlns="http://www.w3.org/2000/svg">
<path d="M15.5 8H14.5C14.2239 8 14 8.22386 14 8.5V9.5C14 9.77614 14.2239 10 14.5 10H15.5C15.7761 10 16 9.77614 16 9.5V8.5C16 8.22386 15.7761 8 15.5 8Z" fill="url(#paint0_linear_10_14327)"/>
<path d="M15.5 11H14.5C14.2239 11 14 11.2239 14 11.5V12.5C14 12.7761 14.2239 13 14.5 13H15.5C15.7761 13 16 12.7761 16 12.5V11.5C16 11.2239 15.7761 11 15.5 11Z" fill="url(#paint1_linear_10_14327)"/>
<path d="M9.5 8H8.5C8.22386 8 8 8.22386 8 8.5V9.5C8 9.77614 8.22386 10 8.5 10H9.5C9.77614 10 10 9.77614 10 9.5V8.5C10 8.22386 9.77614 8 9.5 8Z" fill="url(#paint2_linear_10_14327)"/>
<path d="M12.5 8H11.5C11.2239 8 11 8.22386 11 8.5V9.5C11 9.77614 11.2239 10 11.5 10H12.5C12.7761 10 13 9.77614 13 9.5V8.5C13 8.22386 12.7761 8 12.5 8Z" fill="url(#paint3_linear_10_14327)"/>
<path d="M9.5 11H8.5C8.22386 11 8 11.2239 8 11.5V12.5C8 12.7761 8.22386 13 8.5 13H9.5C9.77614 13 10 12.7761 10 12.5V11.5C10 11.2239 9.77614 11 9.5 11Z" fill="url(#paint4_linear_10_14327)"/>
<path d="M12.5 11H11.5C11.2239 11 11 11.2239 11 11.5V12.5C11 12.7761 11.2239 13 11.5 13H12.5C12.7761 13 13 12.7761 13 12.5V11.5C13 11.2239 12.7761 11 12.5 11Z" fill="url(#paint5_linear_10_14327)"/>
<path d="M6.5 11H5.5C5.22386 11 5 11.2239 5 11.5V12.5C5 12.7761 5.22386 13 5.5 13H6.5C6.77614 13 7 12.7761 7 12.5V11.5C7 11.2239 6.77614 11 6.5 11Z" fill="url(#paint6_linear_10_14327)"/>
<path d="M6.5 14H5.5C5.22386 14 5 14.2239 5 14.5V15.5C5 15.7761 5.22386 16 5.5 16H6.5C6.77614 16 7 15.7761 7 15.5V14.5C7 14.2239 6.77614 14 6.5 14Z" fill="url(#paint7_linear_10_14327)"/>
<path d="M9.5 14H8.5C8.22386 14 8 14.2239 8 14.5V15.5C8 15.7761 8.22386 16 8.5 16H9.5C9.77614 16 10 15.7761 10 15.5V14.5C10 14.2239 9.77614 14 9.5 14Z" fill="url(#paint8_linear_10_14327)"/>
<path d="M12.5 14H11.5C11.2239 14 11 14.2239 11 14.5V15.5C11 15.7761 11.2239 16 11.5 16H12.5C12.7761 16 13 15.7761 13 15.5V14.5C13 14.2239 12.7761 14 12.5 14Z" fill="url(#paint9_linear_10_14327)"/>
<path d="M5 3C3.338 3 2 4.338 2 6V16C2 17.662 3.338 19 5 19H16C17.662 19 19 17.662 19 16V6C19 4.338 17.662 3 16 3H5ZM5 6H16C17.108 6 18 6.892 18 8V16C18 17.108 17.108 18 16 18H5C3.892 18 3 17.108 3 16V8C3 6.892 3.892 6 5 6Z" fill="url(#paint10_linear_10_14327)"/>
<defs>
<linearGradient id="paint0_linear_10_14327" x1="14" y1="9" x2="16" y2="9" gradientUnits="userSpaceOnUse">
<stop stop-color="#FDFC47"/>
<stop offset="1" stop-color="#24FE41"/>
</linearGradient>
<linearGradient id="paint1_linear_10_14327" x1="14" y1="12" x2="16" y2="12" gradientUnits="userSpaceOnUse">
<stop stop-color="#FDFC47"/>
<stop offset="1" stop-color="#24FE41"/>
</linearGradient>
<linearGradient id="paint2_linear_10_14327" x1="8" y1="9" x2="10" y2="9" gradientUnits="userSpaceOnUse">
<stop stop-color="#FDFC47"/>
<stop offset="1" stop-color="#24FE41"/>
</linearGradient>
<linearGradient id="paint3_linear_10_14327" x1="11" y1="9" x2="13" y2="9" gradientUnits="userSpaceOnUse">
<stop stop-color="#FDFC47"/>
<stop offset="1" stop-color="#24FE41"/>
</linearGradient>
<linearGradient id="paint4_linear_10_14327" x1="8" y1="12" x2="10" y2="12" gradientUnits="userSpaceOnUse">
<stop stop-color="#FDFC47"/>
<stop offset="1" stop-color="#24FE41"/>
</linearGradient>
<linearGradient id="paint5_linear_10_14327" x1="11" y1="12" x2="13" y2="12" gradientUnits="userSpaceOnUse">
<stop stop-color="#FDFC47"/>
<stop offset="1" stop-color="#24FE41"/>
</linearGradient>
<linearGradient id="paint6_linear_10_14327" x1="5" y1="12" x2="7" y2="12" gradientUnits="userSpaceOnUse">
<stop stop-color="#FDFC47"/>
<stop offset="1" stop-color="#24FE41"/>
</linearGradient>
<linearGradient id="paint7_linear_10_14327" x1="5" y1="15" x2="7" y2="15" gradientUnits="userSpaceOnUse">
<stop stop-color="#FDFC47"/>
<stop offset="1" stop-color="#24FE41"/>
</linearGradient>
<linearGradient id="paint8_linear_10_14327" x1="8" y1="15" x2="10" y2="15" gradientUnits="userSpaceOnUse">
<stop stop-color="#FDFC47"/>
<stop offset="1" stop-color="#24FE41"/>
</linearGradient>
<linearGradient id="paint9_linear_10_14327" x1="11" y1="15" x2="13" y2="15" gradientUnits="userSpaceOnUse">
<stop stop-color="#FDFC47"/>
<stop offset="1" stop-color="#24FE41"/>
</linearGradient>
<linearGradient id="paint10_linear_10_14327" x1="2" y1="11" x2="19" y2="11" gradientUnits="userSpaceOnUse">
<stop stop-color="#FDFC47"/>
<stop offset="1" stop-color="#24FE41"/>
</linearGradient>
</defs>
</svg>
