<svg width="22" height="22" viewBox="0 0 22 22" fill="none" xmlns="http://www.w3.org/2000/svg">
<path d="M4 3V19H11V18H5V4H17V12H18V3H4ZM6 6V7H13V6H6ZM6 8V9H13V8H6ZM6 10V11H13V10H6ZM14.9492 13C14.1624 13.0133 13.4123 13.3353 12.8607 13.8964C12.309 14.4576 11.9999 15.2131 12 16C12 16.7956 12.3161 17.5587 12.8787 18.1213C13.4413 18.6839 14.2044 19 15 19C15.7956 19 16.5587 18.6839 17.1213 18.1213C17.6839 17.5587 18 16.7956 18 16C18 15.2044 17.6839 14.4413 17.1213 13.8787C16.5587 13.3161 15.7956 13 15 13C14.9831 12.9999 14.9661 12.9999 14.9492 13ZM14.9492 14C14.9499 14 14.9505 14 14.9512 14C14.9674 13.9998 14.9837 13.9998 15 14C15.5304 14 16.0391 14.2107 16.4142 14.5858C16.7893 14.9609 17 15.4696 17 16H15V18C14.4696 18 13.9609 17.7893 13.5858 17.4142C13.2107 17.0391 13 16.5304 13 16C12.9998 15.4782 13.2036 14.9771 13.5677 14.6034C13.9319 14.2298 14.4276 14.0132 14.9492 14Z" fill="url(#paint0_linear_10_14485)"/>
<path d="M14 6V7H16V6H14ZM14 8V9H16V8H14ZM14 10V11H16V10H14Z" fill="url(#paint1_linear_10_14485)"/>
<defs>
<linearGradient id="paint0_linear_10_14485" x1="4" y1="11" x2="18" y2="11" gradientUnits="userSpaceOnUse">
<stop stop-color="#FDFC47"/>
<stop offset="1" stop-color="#24FE41"/>
</linearGradient>
<linearGradient id="paint1_linear_10_14485" x1="14" y1="8.5" x2="16" y2="8.5" gradientUnits="userSpaceOnUse">
<stop stop-color="#FDFC47"/>
<stop offset="1" stop-color="#24FE41"/>
</linearGradient>
</defs>
</svg>
