<svg width="22" height="22" viewBox="0 0 22 22" fill="none" xmlns="http://www.w3.org/2000/svg">
<path d="M4.5 3C3.67158 3 3.00001 3.67157 3 4.5C3.00001 5.32843 3.67158 6 4.5 6C5.32842 6 5.99999 5.32843 6 4.5C5.99999 3.67157 5.32842 3 4.5 3ZM7 4V5H8V4H7ZM9 4V5H19V4H9ZM9 6V7H12V6H9ZM4.5 9C3.67157 9 3 9.67157 3 10.5C3 11.3284 3.67157 12 4.5 12C5.32843 12 6 11.3284 6 10.5C6 9.67157 5.32843 9 4.5 9ZM7 10V11H8V10H7ZM9 10V11H19V10H9ZM9 12V13H13V12H9ZM4.5 15C3.67157 15 3 15.6716 3 16.5C3 17.3284 3.67157 18 4.5 18C5.32843 18 6 17.3284 6 16.5C6 15.6716 5.32843 15 4.5 15ZM7 16V17H8V16H7ZM9 16V17H19V16H9ZM9 18V19H16V18H9Z" fill="url(#paint0_linear_10_14574)"/>
<defs>
<linearGradient id="paint0_linear_10_14574" x1="3" y1="11" x2="19" y2="11" gradientUnits="userSpaceOnUse">
<stop stop-color="#FDFC47"/>
<stop offset="1" stop-color="#24FE41"/>
</linearGradient>
</defs>
</svg>
