<svg width="22" height="22" viewBox="0 0 22 22" fill="none" xmlns="http://www.w3.org/2000/svg">
<path d="M7 9V12H8V11H12V12H13V9H12V10H8V9H7ZM10 12V15H11V14H14V15H15V12H14V13H11V12H10Z" fill="url(#paint0_linear_10_14324)"/>
<path d="M5 3C3.338 3 2 4.338 2 6V16C2 17.662 3.338 19 5 19H16C17.662 19 19 17.662 19 16V6C19 4.338 17.662 3 16 3H5ZM5 6H16C17.108 6 18 6.892 18 8V16C18 17.108 17.108 18 16 18H5C3.892 18 3 17.108 3 16V8C3 6.892 3.892 6 5 6Z" fill="url(#paint1_linear_10_14324)"/>
<defs>
<linearGradient id="paint0_linear_10_14324" x1="7" y1="12" x2="15" y2="12" gradientUnits="userSpaceOnUse">
<stop stop-color="#FDFC47"/>
<stop offset="1" stop-color="#24FE41"/>
</linearGradient>
<linearGradient id="paint1_linear_10_14324" x1="2" y1="11" x2="19" y2="11" gradientUnits="userSpaceOnUse">
<stop stop-color="#FDFC47"/>
<stop offset="1" stop-color="#24FE41"/>
</linearGradient>
</defs>
</svg>
