<svg width="22" height="22" viewBox="0 0 22 22" fill="none" xmlns="http://www.w3.org/2000/svg">
<path d="M20 16.5C20 15.5717 19.6313 14.6815 18.9749 14.0251C18.3185 13.3687 17.4283 13 16.5 13C15.5717 13 14.6815 13.3687 14.0251 14.0251C13.3687 14.6815 13 15.5717 13 16.5C13 17.4283 13.3687 18.3185 14.0251 18.9749C14.6815 19.6313 15.5717 20 16.5 20C17.4283 20 18.3185 19.6313 18.9749 18.9749C19.6313 18.3185 20 17.4283 20 16.5ZM18.9141 16.5L16.4141 19L15.7071 18.293L17.0001 17H14.0001V16H17.0001L15.7071 14.707L16.4141 13.9999L18.9141 16.5Z" fill="url(#paint0_linear_10_14360)"/>
<path d="M7 3C5.338 3 4 4.338 4 6V7H3.5C3.223 7 3 7.223 3 7.5C3 7.777 3.223 8 3.5 8H4V15H3.5C3.223 15 3 15.223 3 15.5C3 15.777 3.223 16 3.5 16H4C4 17.662 5.338 19 7 19H12V18H8C6.892 18 6 17.108 6 16V6C6 4.892 6.892 4 8 4H16C17.108 4 18 4.892 18 6V12H19V6C19 4.338 17.662 3 16 3H7Z" fill="url(#paint1_linear_10_14360)"/>
<defs>
<linearGradient id="paint0_linear_10_14360" x1="13" y1="16.5" x2="20" y2="16.5" gradientUnits="userSpaceOnUse">
<stop stop-color="#FDFC47"/>
<stop offset="1" stop-color="#24FE41"/>
</linearGradient>
<linearGradient id="paint1_linear_10_14360" x1="3" y1="11" x2="19" y2="11" gradientUnits="userSpaceOnUse">
<stop stop-color="#FDFC47"/>
<stop offset="1" stop-color="#24FE41"/>
</linearGradient>
</defs>
</svg>
