<svg width="22" height="22" viewBox="0 0 22 22" fill="none" xmlns="http://www.w3.org/2000/svg">
<path d="M3 3V6H4V4H18V9H19V3H3ZM3 7V19H9V18H4V8H12V9H13V7H3ZM5 10V11H9V10H5ZM10 10V19H13V18H11V11H18V13H19V10H10ZM12 12V14H13V13H17V12H12ZM5 13V14H7V13H5ZM5 15V16H9V15H5Z" fill="url(#paint0_linear_10_14490)"/>
<path d="M14 16V17H19V16H14Z" fill="url(#paint1_linear_10_14490)"/>
<defs>
<linearGradient id="paint0_linear_10_14490" x1="3" y1="11" x2="19" y2="11" gradientUnits="userSpaceOnUse">
<stop stop-color="#FDFC47"/>
<stop offset="1" stop-color="#24FE41"/>
</linearGradient>
<linearGradient id="paint1_linear_10_14490" x1="14" y1="16.5" x2="19" y2="16.5" gradientUnits="userSpaceOnUse">
<stop stop-color="#FDFC47"/>
<stop offset="1" stop-color="#24FE41"/>
</linearGradient>
</defs>
</svg>
