<svg width="22" height="22" viewBox="0 0 22 22" fill="none" xmlns="http://www.w3.org/2000/svg">
<path d="M6 3C4.338 3 3 4.338 3 6V7H3.5C3.777 7 4 7.223 4 7.5C4 7.777 3.777 8 3.5 8H3V14H3.5C3.777 14 4 14.223 4 14.5C4 14.777 3.777 15 3.5 15H3V16C3 17.662 4.338 19 6 19H16C17.662 19 19 17.662 19 16V6C19 4.338 17.662 3 16 3H6ZM8 4H9V8H6V6C6 4.892 6.892 4 8 4ZM10 4H16C17.108 4 18 4.892 18 6V8H10V4ZM6 9H9V13H6V9ZM10 9H18V13H10V9ZM6 14H9V18H8C6.892 18 6 17.108 6 16V14ZM10 14H18V16C18 17.108 17.108 18 16 18H10V14Z" fill="url(#paint0_linear_10_14288)"/>
<defs>
<linearGradient id="paint0_linear_10_14288" x1="3" y1="11" x2="19" y2="11" gradientUnits="userSpaceOnUse">
<stop stop-color="#FDFC47"/>
<stop offset="1" stop-color="#24FE41"/>
</linearGradient>
</defs>
</svg>
