<svg width="22" height="22" viewBox="0 0 22 22" fill="none" xmlns="http://www.w3.org/2000/svg">
<path d="M3 2.99805V3.99805H13V2.99805H3ZM16 3V4H17V6H16V7H17H18H19V6H18V4H19V3H18H17H16ZM3 4.99805V5.99805H9V4.99805H3ZM10 4.99805V5.99805H11V4.99805H10ZM12 4.99805V5.99805H13V4.99805H12ZM14 4.99805V5.99805H15V4.99805H14ZM3 8.99805V9.99805H11V8.99805H3ZM14 9V10H15V12H14V13H19V12H18V10H19V9H14ZM16 10H17V12H16V10ZM3 10.998V11.998H7V10.998H3ZM8 10.998V11.998H9V10.998H8ZM10 10.998V11.998H11V10.998H10ZM12 10.998V11.998H13V10.998H12ZM3 14.998V15.998H10V14.998H3ZM12 15V16H13V18H12V19H13H14H15H19V18H18V16H19V15H15H14H13H12ZM14 16H15V18H14V16ZM16 16H17V18H16V16ZM3 16.998V17.998H5V16.998H3ZM6 16.998V17.998H7V16.998H6ZM8 16.998V17.998H9V16.998H8ZM10 16.998V17.998H11V16.998H10Z" fill="url(#paint0_linear_10_14668)"/>
<defs>
<linearGradient id="paint0_linear_10_14668" x1="3" y1="10.999" x2="19" y2="10.999" gradientUnits="userSpaceOnUse">
<stop stop-color="#FDFC47"/>
<stop offset="1" stop-color="#24FE41"/>
</linearGradient>
</defs>
</svg>
