<svg width="22" height="22" viewBox="0 0 22 22" fill="none" xmlns="http://www.w3.org/2000/svg">
<path d="M15 12V4.9141L12.707 7.20698L12 6.49994L15.5 3L19 6.49994L18.293 7.20698L16 4.9141V12H15Z" fill="url(#paint0_linear_10_14632)"/>
<path d="M3 19V18H17V19H3Z" fill="url(#paint1_linear_10_14632)"/>
<path d="M3 16V15H15V16H3Z" fill="url(#paint2_linear_10_14632)"/>
<path d="M3 13V12H13V13H3Z" fill="url(#paint3_linear_10_14632)"/>
<path d="M3 3V4.00002H7V3H3Z" fill="url(#paint4_linear_10_14632)"/>
<path d="M3 6V6.9999H9V6H3Z" fill="url(#paint5_linear_10_14632)"/>
<path d="M3 9V10H11V9H3Z" fill="url(#paint6_linear_10_14632)"/>
<defs>
<linearGradient id="paint0_linear_10_14632" x1="12" y1="7.50001" x2="19" y2="7.50001" gradientUnits="userSpaceOnUse">
<stop stop-color="#FDFC47"/>
<stop offset="1" stop-color="#24FE41"/>
</linearGradient>
<linearGradient id="paint1_linear_10_14632" x1="3" y1="18.5" x2="17" y2="18.5" gradientUnits="userSpaceOnUse">
<stop stop-color="#FDFC47"/>
<stop offset="1" stop-color="#24FE41"/>
</linearGradient>
<linearGradient id="paint2_linear_10_14632" x1="3" y1="15.5" x2="15" y2="15.5" gradientUnits="userSpaceOnUse">
<stop stop-color="#FDFC47"/>
<stop offset="1" stop-color="#24FE41"/>
</linearGradient>
<linearGradient id="paint3_linear_10_14632" x1="3" y1="12.5" x2="13" y2="12.5" gradientUnits="userSpaceOnUse">
<stop stop-color="#FDFC47"/>
<stop offset="1" stop-color="#24FE41"/>
</linearGradient>
<linearGradient id="paint4_linear_10_14632" x1="3" y1="3.50001" x2="7" y2="3.50001" gradientUnits="userSpaceOnUse">
<stop stop-color="#FDFC47"/>
<stop offset="1" stop-color="#24FE41"/>
</linearGradient>
<linearGradient id="paint5_linear_10_14632" x1="3" y1="6.49995" x2="9" y2="6.49995" gradientUnits="userSpaceOnUse">
<stop stop-color="#FDFC47"/>
<stop offset="1" stop-color="#24FE41"/>
</linearGradient>
<linearGradient id="paint6_linear_10_14632" x1="3" y1="9.50001" x2="11" y2="9.50001" gradientUnits="userSpaceOnUse">
<stop stop-color="#FDFC47"/>
<stop offset="1" stop-color="#24FE41"/>
</linearGradient>
</defs>
</svg>
