<svg width="22" height="22" viewBox="0 0 22 22" fill="none" xmlns="http://www.w3.org/2000/svg">
<path d="M3 3V6H4V4H18V9H19V3H3ZM3 7V19H9V18H4V8H12V9H13V7H3ZM5 10V11H9V10H5ZM10 10V19H12V18H11V11H18V12H19V10H10ZM5 13V14H7V13H5ZM17 13L13 17V19H15L19 15L17 13ZM16.6894 14.6895L17.2812 15.2813L14.3125 18.2657V18.2813L13.7187 17.6876L16.6894 14.6895ZM5.00045 15V16H9.00045V15H5.00045Z" fill="url(#paint0_linear_10_14493)"/>
<defs>
<linearGradient id="paint0_linear_10_14493" x1="3" y1="11" x2="19" y2="11" gradientUnits="userSpaceOnUse">
<stop stop-color="#FDFC47"/>
<stop offset="1" stop-color="#24FE41"/>
</linearGradient>
</defs>
</svg>
