<svg width="22" height="22" viewBox="0 0 22 22" fill="none" xmlns="http://www.w3.org/2000/svg">
<path d="M6.12109 4L7.12109 5H9.43359L11.7246 5.00391L16.2832 5.01172L17.9395 9.98242C17.9381 9.99642 17.0135 9.99364 16.7109 10H12.1211L13.1211 11H18V15.8789L19 16.8789V10L17 4H6.12109ZM4.21875 6.33984L3 10V17H4V19H6V17H14.8789L13.8789 16H4V11H8.87891L7.87891 10H4.87109C4.66972 9.99366 4.06195 9.99617 4.06055 9.98242L5.00977 7.13086L4.21875 6.33984ZM6.5 12C6.10218 12 5.72064 12.1054 5.43934 12.2929C5.15804 12.4804 5 12.7348 5 13C5 13.2652 5.15804 13.5196 5.43934 13.7071C5.72064 13.8946 6.10218 14 6.5 14C6.89782 14 7.27936 13.8946 7.56066 13.7071C7.84196 13.5196 8 13.2652 8 13C8 12.7348 7.84196 12.4804 7.56066 12.2929C7.27936 12.1054 6.89782 12 6.5 12ZM15.5 12C15.2994 11.9999 15.1007 12.0267 14.9159 12.0787C14.731 12.1307 14.5637 12.2069 14.4238 12.3027L16.0508 13.9297C16.3306 13.856 16.5707 13.728 16.74 13.5622C16.9093 13.3964 16.9999 13.2006 17 13C17 12.7348 16.842 12.4804 16.5607 12.2929C16.2794 12.1054 15.8978 12 15.5 12ZM16 18.1211V19H16.8789L16 18.1211Z" fill="url(#paint0_linear_10_14420)"/>
<path d="M3.70703 3L3 3.70703L18.293 19L19 18.293L3.70703 3Z" fill="url(#paint1_linear_10_14420)"/>
<defs>
<linearGradient id="paint0_linear_10_14420" x1="3" y1="11.5" x2="19" y2="11.5" gradientUnits="userSpaceOnUse">
<stop stop-color="#FDFC47"/>
<stop offset="1" stop-color="#24FE41"/>
</linearGradient>
<linearGradient id="paint1_linear_10_14420" x1="3" y1="11" x2="19" y2="11" gradientUnits="userSpaceOnUse">
<stop stop-color="#FDFC47"/>
<stop offset="1" stop-color="#24FE41"/>
</linearGradient>
</defs>
</svg>
