<svg width="22" height="22" viewBox="0 0 22 22" fill="none" xmlns="http://www.w3.org/2000/svg">
<path d="M3 3V4H4V3H3ZM8 3V4H9V3H8ZM13 3V4H14V3H13ZM18 3V4H19V3H18ZM3 6V7H4V6H3ZM8 6V7H9V6H8ZM13 6V7H14V6H13ZM18 6V7H19V6H18ZM3 9V10H4V9H3ZM8 9V10H9V9H8ZM13 9V10H14V9H13ZM18 9V10H19V9H18ZM3 12V13H4V12H3ZM8 12V13H9V12H8ZM13 12V13H14V12H13ZM18 12V13H19V12H18ZM3 15V16H4V15H3ZM8 15V16H9V15H8ZM13 15V16H14V15H13ZM18 15V16H19V15H18ZM3 18V19H4V18H3ZM8 18V19H9V18H8ZM13 18V19H14V18H13ZM18 18V19H19V18H18Z" fill="url(#paint0_linear_10_14522)"/>
<defs>
<linearGradient id="paint0_linear_10_14522" x1="3" y1="11" x2="19" y2="11" gradientUnits="userSpaceOnUse">
<stop stop-color="#FDFC47"/>
<stop offset="1" stop-color="#24FE41"/>
</linearGradient>
</defs>
</svg>
