<svg width="22" height="22" viewBox="0 0 22 22" fill="none" xmlns="http://www.w3.org/2000/svg">
<path d="M11 3L3 7.62305V7.99805V9H4V10V18H3V19H19V18H18V10V9H19V7.99805V7.62305L11 3ZM11 4.15625L17.6504 7.99805H4.34961L11 4.15625ZM5 9H7V10V18H5V10V9ZM8 9H14V10V18H13V14H9V18H8V10V9ZM15 9H17V10V18H15V10V9Z" fill="url(#paint0_linear_10_14537)"/>
<defs>
<linearGradient id="paint0_linear_10_14537" x1="3" y1="11" x2="19" y2="11" gradientUnits="userSpaceOnUse">
<stop stop-color="#FDFC47"/>
<stop offset="1" stop-color="#24FE41"/>
</linearGradient>
</defs>
</svg>
