<svg width="22" height="22" viewBox="0 0 22 22" fill="none" xmlns="http://www.w3.org/2000/svg">
<path d="M3 3V5V6V19H10V18H4V7H18V12H19V3H17V5H15V3H12V5H10V3H7V5H5V3H3ZM5 8V9H11V8H5ZM5 11V12H11V11H5ZM11 13V19H19V13H11ZM12 14H18V15H17V17H18V18H12V17H13V15H12V14ZM15 15C14.446 15 14 15.446 14 16C14 16.554 14.446 17 15 17C15.554 17 16 16.554 16 16C16 15.446 15.554 15 15 15Z" fill="url(#paint0_linear_10_14277)"/>
<path d="M12 8V9H17V8H12Z" fill="url(#paint1_linear_10_14277)"/>
<defs>
<linearGradient id="paint0_linear_10_14277" x1="3" y1="11" x2="19" y2="11" gradientUnits="userSpaceOnUse">
<stop stop-color="#FDFC47"/>
<stop offset="1" stop-color="#24FE41"/>
</linearGradient>
<linearGradient id="paint1_linear_10_14277" x1="12" y1="8" x2="12.1274" y2="9.43312" gradientUnits="userSpaceOnUse">
<stop stop-color="#FF0500"/>
<stop offset="1" stop-color="#FD3632"/>
</linearGradient>
</defs>
</svg>
