<svg width="22" height="22" viewBox="0 0 22 22" fill="none" xmlns="http://www.w3.org/2000/svg">
<path d="M5.12109 3L6.12109 4H16V5H17V6H18V8H19V3H5.12109ZM11 5C10.5037 5.0115 10.018 5.146 9.5864 5.39143C9.15485 5.63686 8.79096 5.98556 8.52734 6.40625L9.23438 7.11328C9.39363 6.79061 9.63699 6.51689 9.93879 6.32096C10.2406 6.12502 10.5897 6.01414 10.9492 6C10.9499 6 10.9505 6 10.9512 6C10.9674 5.9998 10.9837 5.9998 11 6C11.5304 6 12.0391 6.21071 12.4142 6.58579C12.7893 6.96086 13 7.46957 13 8H14C14 7.20435 13.6839 6.44129 13.1213 5.87868C12.5587 5.31607 11.7956 5 11 5ZM3 5.12109V8H4V6.12109L3 5.12109ZM3 9V14H4V12H5V11H6V10H7.87891L6.87891 9H3ZM11.1211 9L12.1211 10H16V11H17V12H18V14H19V9H11.1211ZM9.40625 11.5273C8.98556 11.791 8.63686 12.1549 8.39143 12.5864C8.146 13.018 8.0115 13.5037 8 14H9C9.00716 13.6322 9.11559 13.2736 9.31338 12.9635C9.51117 12.6533 9.79065 12.4038 10.1211 12.2422L9.40625 11.5273ZM3 15V19H4V18H5V17H6V16H13.8789L12.8789 15H3ZM17.1211 15L19 16.8789V15H17.1211ZM11 17C10.3843 17.0057 9.78535 17.2006 9.2843 17.5584C8.78325 17.9162 8.40442 18.4195 8.19922 19H9.27344C9.44411 18.7041 9.68773 18.4568 9.98109 18.2817C10.2744 18.1067 10.6077 18.0097 10.9492 18C10.9499 18 10.9505 18 10.9512 18C10.9674 17.9998 10.9837 17.9998 11 18C11.3495 18.0016 11.6924 18.0948 11.9947 18.2703C12.2969 18.4457 12.5479 18.6973 12.7227 19H13.8242C13.6177 18.4158 13.2353 17.9098 12.7296 17.5517C12.2239 17.1936 11.6197 17.0009 11 17Z" fill="url(#paint0_linear_10_14452)"/>
<path d="M3.70703 3L3 3.70703L18.293 19L19 18.293L3.70703 3Z" fill="url(#paint1_linear_10_14452)"/>
<defs>
<linearGradient id="paint0_linear_10_14452" x1="3" y1="11" x2="19" y2="11" gradientUnits="userSpaceOnUse">
<stop stop-color="#FDFC47"/>
<stop offset="1" stop-color="#24FE41"/>
</linearGradient>
<linearGradient id="paint1_linear_10_14452" x1="3" y1="11" x2="19" y2="11" gradientUnits="userSpaceOnUse">
<stop stop-color="#FDFC47"/>
<stop offset="1" stop-color="#24FE41"/>
</linearGradient>
</defs>
</svg>
