<svg width="22" height="22" viewBox="0 0 22 22" fill="none" xmlns="http://www.w3.org/2000/svg">
<path d="M3 5V17H13V16H4V6H18V11H19V5H3ZM7.5 7C6.669 7 6 7.669 6 8.5V10H5V13H10V10H9V8.5C9 7.669 8.331 7 7.5 7ZM7.5 8C7.777 8 8 8.223 8 8.5V10H7V8.5C7 8.223 7.223 8 7.5 8ZM11 8V9H17V8H11ZM11 10V11H16V10H11ZM11 12V13H15V12H11ZM17.5 12L14.707 14.793L14 15.5L14.707 16.207L17.5 19L18.207 18.293L15.9141 16H21V15H20.207H15.9141L18.207 12.707L17.5 12Z" fill="url(#paint0_linear_10_14395)"/>
<defs>
<linearGradient id="paint0_linear_10_14395" x1="3" y1="12" x2="21" y2="12" gradientUnits="userSpaceOnUse">
<stop stop-color="#FDFC47"/>
<stop offset="1" stop-color="#24FE41"/>
</linearGradient>
</defs>
</svg>
