<svg width="22" height="22" viewBox="0 0 22 22" fill="none" xmlns="http://www.w3.org/2000/svg">
<path d="M5 3V11H3V19H17V11H6V4H18V19H19V3H5ZM7 5V6H13V5H7ZM7 7V8H11V7H7ZM4 12H16V18H4V12ZM6.9609 12.5391C6.60472 12.5337 6.23994 12.71 5.96481 12.998C5.70634 13.2687 5.55769 13.5627 5.42379 13.7969C5.28429 14.0409 5.20451 14.2668 5.12301 14.4433L5.10153 14.4922L5.01168 14.8906C4.95105 15.1603 5.05438 15.4398 5.32418 15.5C5.59389 15.5606 5.92802 15.3792 5.98824 15.1094C6.01657 14.8123 6.18963 14.547 6.29293 14.293C6.43814 14.039 6.55755 13.8255 6.68746 13.6894C6.87288 13.4953 6.92803 13.531 6.94332 13.5371C6.95861 13.5432 7.05912 13.6116 7.09371 13.8769C7.09776 13.908 7.08769 14.0632 7.06441 14.1855C7.02779 14.3002 7.01682 14.4344 6.99606 14.543C7.00017 14.9826 7.11057 15.6111 7.99996 15.5C8.88935 15.3889 9.03696 14.8201 9.15226 14.6543C9.22501 14.7394 9.29499 14.8242 9.3964 14.9297C9.54014 15.0791 9.70585 15.2408 9.96281 15.3418C10.2198 15.4428 10.6116 15.4118 10.873 15.207C10.9225 15.1682 10.9305 15.1365 10.9726 15.0976C11.0161 15.1682 11.0245 15.1881 11.08 15.2734C11.2306 15.5059 11.5416 15.5716 11.7734 15.4199C12.0058 15.2693 12.0715 14.9583 11.9198 14.7265C11.737 14.4457 11.6384 14.2688 11.5702 14.1484C11.5361 14.0882 11.5175 14.0476 11.4609 13.9726C11.4325 13.9352 11.3997 13.8804 11.2792 13.8144C11.1588 13.7485 10.8929 13.7453 10.7636 13.8223C10.6507 13.9147 10.5733 14.0622 10.4863 14.1719C10.4547 14.2228 10.4205 14.2652 10.3261 14.3476C10.2264 14.3765 10.2009 14.3234 10.1171 14.2363C10.0165 14.1317 9.9081 13.997 9.7929 13.8691C9.73529 13.8052 9.67801 13.7423 9.59758 13.6777C9.51715 13.6131 9.41143 13.5209 9.19133 13.5117C8.92391 13.5005 8.73882 13.6349 8.61907 13.7441C8.49932 13.8534 8.41603 13.9657 8.33976 14.0742C8.18723 14.2912 8.02859 14.5119 8.03312 14.5078C8.03712 14.5042 8.02134 14.5054 8.01555 14.5058C8.02841 14.4535 8.03262 14.4475 8.0468 14.373C8.07929 14.2022 8.11639 13.9952 8.08391 13.7461C8.01781 13.2391 7.76333 12.7868 7.31047 12.6074C7.19726 12.5625 7.07963 12.5409 6.9609 12.5391ZM5 16V17H12V16H5ZM13 16V17H15V16H13Z" fill="url(#paint0_linear_10_14433)"/>
<path d="M14 5V6H17V5H14Z" fill="url(#paint1_linear_10_14433)"/>
<defs>
<linearGradient id="paint0_linear_10_14433" x1="3" y1="11" x2="19" y2="11" gradientUnits="userSpaceOnUse">
<stop stop-color="#FDFC47"/>
<stop offset="1" stop-color="#24FE41"/>
</linearGradient>
<linearGradient id="paint1_linear_10_14433" x1="14" y1="5" x2="14.2094" y2="6.41342" gradientUnits="userSpaceOnUse">
<stop stop-color="#FF0500"/>
<stop offset="1" stop-color="#FD3632"/>
</linearGradient>
</defs>
</svg>
