<svg width="22" height="22" viewBox="0 0 22 22" fill="none" xmlns="http://www.w3.org/2000/svg">
<path d="M11 3L3 7.62305V7.99805V9H4V18H3V19H13V14H9V18H8V9H14V13H15V9H17V13H18V9H19V7.99805V7.62305L11 3ZM11 4.15625L17.6504 7.99805H4.34961L11 4.15625ZM5 9H7V18H5V9ZM16 14V16H14V17H16V19H17V17H19V16H17V14H16Z" fill="url(#paint0_linear_10_14530)"/>
<defs>
<linearGradient id="paint0_linear_10_14530" x1="3" y1="11" x2="19" y2="11" gradientUnits="userSpaceOnUse">
<stop stop-color="#FDFC47"/>
<stop offset="1" stop-color="#24FE41"/>
</linearGradient>
</defs>
</svg>
