<svg width="22" height="22" viewBox="0 0 22 22" fill="none" xmlns="http://www.w3.org/2000/svg">
<path d="M3 5V17H13V16H4V6H18V14H19V5H3ZM7.5 7C6.669 7 6 7.669 6 8.5V10H5V13H10V10H9V8.5C9 7.669 8.331 7 7.5 7ZM7.5 8C7.777 8 8 8.223 8 8.5V10H7V8.5C7 8.223 7.223 8 7.5 8ZM11 8V9H17V8H11ZM11 10V11H16V10H11ZM11 12V13H15V12H11ZM16 14V16H14V17H16V19H17V17H19V16H17V14H16Z" fill="url(#paint0_linear_10_14386)"/>
<defs>
<linearGradient id="paint0_linear_10_14386" x1="3" y1="12" x2="19" y2="12" gradientUnits="userSpaceOnUse">
<stop stop-color="#FDFC47"/>
<stop offset="1" stop-color="#24FE41"/>
</linearGradient>
</defs>
</svg>
