<svg width="22" height="22" viewBox="0 0 22 22" fill="none" xmlns="http://www.w3.org/2000/svg">
<path d="M11 3C9.55829 3 8.21071 3.38292 7.04492 4.04492L7.7832 4.7832L7.78516 4.78125L10.5645 7.55859L11.2715 6.85156L8.78906 4.37109C9.48469 4.13842 10.2239 4 11 4C14.878 4 18 7.122 18 11C18 12.1625 17.7142 13.2539 17.2168 14.2168L17.9551 14.9551C18.6171 13.7893 19 12.4417 19 11C19 6.568 15.432 3 11 3ZM4.04492 7.04492C3.38287 8.21072 3 9.5583 3 11C3 15.432 6.56803 19 11 19C12.4417 19 13.7893 18.6171 14.9551 17.9551L14.2715 17.2715L14.2734 17.2695L11.4453 14.4414L10.7383 15.1484L13.2168 17.627C12.5195 17.8609 11.7783 18 11 18C7.12203 18 4 14.878 4 11C4 9.8375 4.28583 8.7461 4.7832 7.7832L4.04492 7.04492Z" fill="url(#paint0_linear_10_14609)"/>
<defs>
<linearGradient id="paint0_linear_10_14609" x1="3" y1="11" x2="19" y2="11" gradientUnits="userSpaceOnUse">
<stop stop-color="#FDFC47"/>
<stop offset="1" stop-color="#24FE41"/>
</linearGradient>
</defs>
</svg>
