<svg width="22" height="22" viewBox="0 0 22 22" fill="none" xmlns="http://www.w3.org/2000/svg">
<path d="M7 5C5.93913 5 4.92172 5.42143 4.17157 6.17157C3.42143 6.92172 3 7.93913 3 9H2V10H3V12H2V13H3C3 14.0609 3.42143 15.0783 4.17157 15.8284C4.92172 16.5786 5.93913 17 7 17C7.70128 16.9991 8.39 16.8139 8.9971 16.4628C9.6042 16.1118 10.1083 15.6073 10.459 15H9.23242C8.95144 15.3142 8.60741 15.5656 8.22276 15.7379C7.83811 15.9102 7.42148 15.9995 7 16C6.20435 16 5.44129 15.6839 4.87868 15.1213C4.31607 14.5587 4 13.7956 4 13H9V12H4V10H10V9H4C4 8.20435 4.31607 7.44129 4.87868 6.87868C5.44129 6.31607 6.20435 6 7 6C7.42115 6.00079 7.83741 6.09024 8.2217 6.26253C8.60599 6.43482 8.9497 6.68609 9.23047 7H10.459C10.1083 6.39267 9.6042 5.88821 8.9971 5.53718C8.39 5.18615 7.70128 5.0009 7 5ZM12.293 5L16 8.70703V10H13V11H16V13H13V14H16V17H17V14H20V13H17V11H20V10H17V8.70703L20.707 5H19.293L16.5 7.79297L13.707 5H12.293Z" fill="url(#paint0_linear_10_14411)"/>
<defs>
<linearGradient id="paint0_linear_10_14411" x1="2" y1="11" x2="20.707" y2="11" gradientUnits="userSpaceOnUse">
<stop stop-color="#FDFC47"/>
<stop offset="1" stop-color="#24FE41"/>
</linearGradient>
</defs>
</svg>
