<svg width="22" height="22" viewBox="0 0 22 22" fill="none" xmlns="http://www.w3.org/2000/svg">
<path d="M2 5V6V16C2 16.554 2.446 17 3 17H19H20V16V6C20 5.446 19.554 5 19 5H3H2ZM3 6H19V9H17H12C10.892 9 10 9.892 10 11C10 12.108 10.892 13 12 13H17H19V16H3V6ZM13 10C13.5523 10 14 10.4477 14 11C14 11.5523 13.5523 12 13 12C12.4477 12 12 11.5523 12 11C12 10.4477 12.4477 10 13 10Z" fill="url(#paint0_linear_10_14715)"/>
<defs>
<linearGradient id="paint0_linear_10_14715" x1="2" y1="11" x2="20" y2="11" gradientUnits="userSpaceOnUse">
<stop stop-color="#FDFC47"/>
<stop offset="1" stop-color="#24FE41"/>
</linearGradient>
</defs>
</svg>
