<svg width="22" height="22" viewBox="0 0 22 22" fill="none" xmlns="http://www.w3.org/2000/svg">
<path d="M10.5 3V4.8125H11.5V3H10.5ZM5.6875 4.96875L4.96875 5.6875L6.25 7L6.96875 6.25L5.6875 4.96875ZM16.3125 4.96875L15.0312 6.25L15.75 7L17.0312 5.6875L16.3125 4.96875ZM11 6C8.23858 6 6 8.2386 6 11C6 13.7614 8.23858 16 11 16C13.7614 16 16 13.7614 16 11C16 8.2386 13.7614 6 11 6ZM11 7C12.0609 7 13.0783 7.42143 13.8284 8.17157C14.5786 8.92172 15 9.93913 15 11C15 12.0609 14.5786 13.0783 13.8284 13.8284C13.0783 14.5786 12.0609 15 11 15C9.93913 15 8.92172 14.5786 8.17157 13.8284C7.42143 13.0783 7 12.0609 7 11C7 9.93913 7.42143 8.92172 8.17157 8.17157C8.92172 7.42143 9.93913 7 11 7ZM3 10.5V11.5H4.8125V10.5H3ZM17.1875 10.5V11.5H19V10.5H17.1875ZM6.25 15.0312L4.96875 16.3125L5.6875 17.0312L6.96875 15.75L6.25 15.0312ZM15.75 15.0312L15.0312 15.75L16.3125 17.0312L17.0312 16.3125L15.75 15.0312ZM10.5 17.1875V19H11.5V17.1875H10.5Z" fill="url(#paint0_linear_10_14725)"/>
<defs>
<linearGradient id="paint0_linear_10_14725" x1="3" y1="11" x2="19" y2="11" gradientUnits="userSpaceOnUse">
<stop stop-color="#FDFC47"/>
<stop offset="1" stop-color="#24FE41"/>
</linearGradient>
</defs>
</svg>
