<svg width="22" height="22" viewBox="0 0 22 22" fill="none" xmlns="http://www.w3.org/2000/svg">
<path d="M16.5 13C14.567 13 13 14.567 13 16.5C13 18.433 14.567 20 16.5 20C18.433 20 20 18.433 20 16.5C20 14.567 18.433 13 16.5 13ZM16 14H17V16H19V17H17V19H16V17H14V16H16V14Z" fill="url(#paint0_linear_10_14736)"/>
<path d="M6 3C4.338 3 3 4.338 3 6V16C3 17.662 4.338 19 6 19H12V18H6C4.892 18 4 17.108 4 16V8C4 6.892 4.892 6 6 6H16C17.108 6 18 6.892 18 8V12H19V6C19 4.338 17.662 3 16 3H6Z" fill="url(#paint1_linear_10_14736)"/>
<defs>
<linearGradient id="paint0_linear_10_14736" x1="13" y1="16.5" x2="20" y2="16.5" gradientUnits="userSpaceOnUse">
<stop stop-color="#FDFC47"/>
<stop offset="1" stop-color="#24FE41"/>
</linearGradient>
<linearGradient id="paint1_linear_10_14736" x1="3" y1="11" x2="19" y2="11" gradientUnits="userSpaceOnUse">
<stop stop-color="#FDFC47"/>
<stop offset="1" stop-color="#24FE41"/>
</linearGradient>
</defs>
</svg>
