<svg width="22" height="22" viewBox="0 0 22 22" fill="none" xmlns="http://www.w3.org/2000/svg">
<path d="M15 3V14.0508C15.5646 14.166 16.072 14.4727 16.4364 14.919C16.8008 15.3653 16.9999 15.9238 17 16.5C17 17.163 16.7366 17.7989 16.2678 18.2678C15.7989 18.7366 15.163 19 14.5 19C13.837 19 13.2011 18.7366 12.7322 18.2678C12.2634 17.7989 12 17.163 12 16.5C12.001 15.9245 12.2005 15.3669 12.5648 14.9214C12.9292 14.4759 13.4361 14.1698 14 14.0547V3H15ZM7.70703 6L10.5 8.79297L11.207 9.5L10.5 10.207L7.70703 13L7 12.293L9.29297 10H3V9H5H9.29297L7 6.70703L7.70703 6ZM14.5 15C14.1022 15 13.7206 15.158 13.4393 15.4393C13.158 15.7206 13 16.1022 13 16.5C13 16.8978 13.158 17.2794 13.4393 17.5607C13.7206 17.842 14.1022 18 14.5 18C14.8978 18 15.2794 17.842 15.5607 17.5607C15.842 17.2794 16 16.8978 16 16.5C16 16.1022 15.842 15.7206 15.5607 15.4393C15.2794 15.158 14.8978 15 14.5 15Z" fill="url(#paint0_linear_10_14771)"/>
<defs>
<linearGradient id="paint0_linear_10_14771" x1="3" y1="11" x2="17" y2="11" gradientUnits="userSpaceOnUse">
<stop stop-color="#FDFC47"/>
<stop offset="1" stop-color="#24FE41"/>
</linearGradient>
</defs>
</svg>
