<svg width="22" height="22" viewBox="0 0 22 22" fill="none" xmlns="http://www.w3.org/2000/svg">
<path d="M17 3C18.108 3 19 3.892 19 5V6H18V5C18 4.446 17.554 4 17 4H16V3H17ZM6 3V4H5C4.446 4 4 4.446 4 5V6H3V5C3 3.892 3.892 3 5 3H6ZM9 5C9.554 5 10 5.446 10 6V16C10 16.554 9.554 17 9 17H6C5.446 17 5 16.554 5 16V6C5 5.446 5.446 5 6 5H9ZM16 8C16.554 8 17 8.446 17 9V13C17 13.554 16.554 14 16 14H15C14.446 14 14 13.554 14 13V9C14 8.446 14.446 8 15 8H16ZM11 9V13L13 11L11 9ZM19 16V17C19 18.108 18.108 19 17 19H16V18H17C17.554 18 18 17.554 18 17V16H19ZM4 16V17C4 17.554 4.446 18 5 18H6V19H5C3.892 19 3 18.108 3 17V16H4Z" fill="url(#paint0_linear_10_14775)"/>
<defs>
<linearGradient id="paint0_linear_10_14775" x1="3" y1="11" x2="19" y2="11" gradientUnits="userSpaceOnUse">
<stop stop-color="#FDFC47"/>
<stop offset="1" stop-color="#24FE41"/>
</linearGradient>
</defs>
</svg>
