<svg width="22" height="22" viewBox="0 0 22 22" fill="none" xmlns="http://www.w3.org/2000/svg">
<path d="M5 3C3.892 3 3 3.892 3 5V6H4V5C4 4.446 4.446 4 5 4H6V3H5ZM8 3V4H10V3H8ZM12 3V4H14V3H12ZM16 3V4H17C17.554 4 18 4.446 18 5V6H19V5C19 3.892 18.108 3 17 3H16ZM11 7V8H13.293L10 11.293L10.707 12L14 8.70703V11H15V7.00003H14L11 7ZM3 8V10H4V8H3ZM18 8V10H19V8H18ZM18 12V14H19V12H18ZM5 13C3.892 13 3 13.892 3 15V17C3 18.108 3.892 19 5 19H7C8.108 19 9 18.108 9 17V15C9 13.892 8.108 13 7 13H5ZM5 14H7C7.554 14 8 14.446 8 15V17C8 17.554 7.554 18 7 18H5C4.446 18 4 17.554 4 17V15C4 14.446 4.446 14 5 14ZM18 16V17C18 17.554 17.554 18 17 18H16V19H17C18.108 19 19 18.108 19 17V16H18Z" fill="url(#paint0_linear_10_14788)"/>
<defs>
<linearGradient id="paint0_linear_10_14788" x1="3" y1="11" x2="19" y2="11" gradientUnits="userSpaceOnUse">
<stop stop-color="#FDFC47"/>
<stop offset="1" stop-color="#24FE41"/>
</linearGradient>
</defs>
</svg>
