<svg width="22" height="22" viewBox="0 0 22 22" fill="none" xmlns="http://www.w3.org/2000/svg">
<path d="M5 3C3.892 3 3 3.892 3 5V6H4V5C4 4.446 4.446 4 5 4H6V3H5ZM16 3V4H17C17.554 4 18 4.446 18 5V6H19V5C19 3.892 18.108 3 17 3H16ZM13 5C12.446 5 12 5.446 12 6V16C12 16.554 12.446 17 13 17H16C16.554 17 17 16.554 17 16V6C17 5.446 16.554 5 16 5H13ZM6 8C5.446 8 5 8.446 5 9V13C5 13.554 5.446 14 6 14H7C7.554 14 8 13.554 8 13V9C8 8.446 7.554 8 7 8H6ZM9 9V13L11 11L9 9ZM3 16V17C3 18.108 3.892 19 5 19H6V18H5C4.446 18 4 17.554 4 17V16H3ZM18 16V17C18 17.554 17.554 18 17 18H16V19H17C18.108 19 19 18.108 19 17V16H18Z" fill="url(#paint0_linear_10_14773)"/>
<defs>
<linearGradient id="paint0_linear_10_14773" x1="3" y1="11" x2="19" y2="11" gradientUnits="userSpaceOnUse">
<stop stop-color="#FDFC47"/>
<stop offset="1" stop-color="#24FE41"/>
</linearGradient>
</defs>
</svg>
