<svg width="22" height="22" viewBox="0 0 22 22" fill="none" xmlns="http://www.w3.org/2000/svg">
<path d="M19 11L17 9V13L19 11ZM16 8C16 6.892 15.108 6 14 6H8C6.892 6 6 6.892 6 8V14C6 15.108 6.892 16 8 16H14C15.108 16 16 15.108 16 14V8ZM15 8V14C15 14.554 14.554 15 14 15H8C7.446 15 7 14.554 7 14V8C7 7.446 7.446 7 8 7H14C14.554 7 15 7.446 15 8ZM5 9L3 11L5 13V9Z" fill="url(#paint0_linear_10_14782)"/>
<path d="M5 3C3.892 3 3 3.892 3 5V7H4V5C4 4.446 4.446 4 5 4H7V3H5ZM15 3V4H17C17.554 4 18 4.446 18 5V7H19V5C19 3.892 18.108 3 17 3H15ZM3 15V17C3 18.108 3.892 19 5 19H7V18H5C4.446 18 4 17.554 4 17V15H3ZM18 15V17C18 17.554 17.554 18 17 18H15V19H17C18.108 19 19 18.108 19 17V15H18Z" fill="url(#paint1_linear_10_14782)"/>
<defs>
<linearGradient id="paint0_linear_10_14782" x1="3" y1="11" x2="19" y2="11" gradientUnits="userSpaceOnUse">
<stop stop-color="#FDFC47"/>
<stop offset="1" stop-color="#24FE41"/>
</linearGradient>
<linearGradient id="paint1_linear_10_14782" x1="3" y1="11" x2="19" y2="11" gradientUnits="userSpaceOnUse">
<stop stop-color="#FDFC47"/>
<stop offset="1" stop-color="#24FE41"/>
</linearGradient>
</defs>
</svg>
