<svg width="26" height="28" viewBox="0 0 26 28" fill="none" xmlns="http://www.w3.org/2000/svg">
<g filter="url(#filter0_d_9_4885)">
<path d="M13.002 4.3652C12.9006 4.36477 12.8014 4.39517 12.7177 4.45238C12.634 4.50959 12.5696 4.59089 12.5332 4.68551L10.6621 9.53901L5.4746 9.81245C5.37323 9.81712 5.27569 9.85251 5.19492 9.91394C5.11414 9.97537 5.05397 10.0599 5.02239 10.1563C4.99081 10.2528 4.98932 10.3565 5.01811 10.4538C5.0469 10.5512 5.10461 10.6374 5.18358 10.7011L9.21878 13.9843L7.88478 19.0058C7.85849 19.1036 7.8625 19.207 7.89626 19.3025C7.93002 19.3979 7.99196 19.4808 8.07387 19.5403C8.15579 19.5998 8.25383 19.633 8.35503 19.6356C8.45623 19.6381 8.55582 19.6099 8.64064 19.5546L13 16.7304L17 19.3222V17.9999C17.0003 17.8243 17.0468 17.6519 17.1348 17.4999C17.0468 17.348 17.0003 17.1756 17 16.9999V14.8085L16.7813 13.9843L17 13.8066V12.5156L15.9004 13.4121C15.8258 13.4728 15.7703 13.5537 15.7405 13.6451C15.7107 13.7366 15.7079 13.8347 15.7325 13.9277L16.8165 18.0117L13.2716 15.7148C13.1907 15.6625 13.0964 15.6347 13.0001 15.6347C12.9038 15.6347 12.8095 15.6625 12.7286 15.7148L9.1837 18.0117L10.2677 13.9277C10.2923 13.8347 10.2895 13.7366 10.2597 13.6451C10.2299 13.5537 10.1744 13.4728 10.0997 13.4121L6.82433 10.7441L11.0391 10.5214C11.1355 10.5161 11.2282 10.4831 11.3062 10.4262C11.3842 10.3694 11.444 10.2912 11.4786 10.2011L13.0001 6.25581L14.5216 10.2011C14.5561 10.2912 14.616 10.3694 14.694 10.4262C14.7719 10.4831 14.8647 10.5161 14.961 10.5214L19.1758 10.7441L18.8614 10.9999H20.0001C20.1245 11.0006 20.2477 11.0244 20.3634 11.0702L20.8165 10.7011C20.8955 10.6374 20.9532 10.5511 20.982 10.4538C21.0107 10.3565 21.0093 10.2528 20.9777 10.1563C20.9461 10.0599 20.8859 9.97536 20.8051 9.91393C20.7244 9.85251 20.6268 9.81711 20.5255 9.81244L15.338 9.539L13.4669 4.6855C13.4307 4.5915 13.3669 4.51063 13.284 4.45348C13.201 4.39632 13.1027 4.36556 13.002 4.3652Z" fill="url(#paint0_linear_9_4885)"/>
<path d="M18 12V17H20V12H18ZM18 18V20H20V18H18Z" fill="url(#paint1_linear_9_4885)"/>
</g>
<defs>
<filter id="filter0_d_9_4885" x="-3" y="0" width="32" height="32" filterUnits="userSpaceOnUse" color-interpolation-filters="sRGB">
<feFlood flood-opacity="0" result="BackgroundImageFix"/>
<feColorMatrix in="SourceAlpha" type="matrix" values="0 0 0 0 0 0 0 0 0 0 0 0 0 0 0 0 0 0 127 0" result="hardAlpha"/>
<feOffset dy="4"/>
<feGaussianBlur stdDeviation="2"/>
<feComposite in2="hardAlpha" operator="out"/>
<feColorMatrix type="matrix" values="0 0 0 0 0 0 0 0 0 0 0 0 0 0 0 0 0 0 0.25 0"/>
<feBlend mode="normal" in2="BackgroundImageFix" result="effect1_dropShadow_9_4885"/>
<feBlend mode="normal" in="SourceGraphic" in2="effect1_dropShadow_9_4885" result="shape"/>
</filter>
<linearGradient id="paint0_linear_9_4885" x1="4.99756" y1="12.0005" x2="21.0025" y2="12.0005" gradientUnits="userSpaceOnUse">
<stop stop-color="#FDFC47"/>
<stop offset="1" stop-color="#24FE41"/>
</linearGradient>
<linearGradient id="paint1_linear_9_4885" x1="18" y1="16" x2="20" y2="16" gradientUnits="userSpaceOnUse">
<stop stop-color="#FF8008"/>
<stop offset="1" stop-color="#FFC837"/>
</linearGradient>
</defs>
</svg>
