<svg width="24" height="25" viewBox="0 0 24 25" fill="none" xmlns="http://www.w3.org/2000/svg">
<g filter="url(#filter0_d_9_4954)">
<path d="M12.0001 7.0206C9.35688 7.0206 6.86038 8.1871 5.15008 10.2215C5.07183 10.3147 5.02182 10.4282 5.00595 10.5489C4.99007 10.6695 5.009 10.7921 5.06049 10.9024C5.11198 11.0126 5.19389 11.1058 5.29658 11.1711C5.39927 11.2363 5.51847 11.2708 5.64013 11.2706C5.82235 11.2706 6.00318 11.1933 6.12984 11.0432C7.59554 9.29938 9.73554 8.29858 12.0001 8.29858C14.2647 8.29858 16.4047 9.29978 17.8704 11.0432C17.9967 11.1943 18.1776 11.271 18.3601 11.271C18.482 11.2715 18.6014 11.2371 18.7043 11.1718C18.8072 11.1066 18.8892 11.0133 18.9408 10.9029C18.9923 10.7925 19.0111 10.6696 18.995 10.5489C18.9789 10.4281 18.9285 10.3145 18.8498 10.2215C17.1401 8.18705 14.6437 7.0206 12.0001 7.0206ZM12.0001 9.7276C10.1124 9.7276 8.32918 10.5614 7.10788 12.0139C7.05388 12.0781 7.01306 12.1524 6.98776 12.2324C6.96245 12.3124 6.95316 12.3966 6.96041 12.4802C6.96766 12.5638 6.99131 12.6452 7.03001 12.7197C7.0687 12.7941 7.12169 12.8603 7.18594 12.9142C7.25019 12.9682 7.32445 13.009 7.40447 13.0343C7.4845 13.0596 7.56871 13.0689 7.65232 13.0616C7.73592 13.0543 7.81728 13.0306 7.89173 12.9919C7.96619 12.9532 8.03229 12.9002 8.08626 12.8359C8.56513 12.2634 9.16373 11.8027 9.83989 11.4865C10.5161 11.1704 11.2533 11.0063 11.9998 11.0058C13.51 11.0058 14.9367 11.6733 15.914 12.8359C16.0403 12.9871 16.2218 13.0637 16.4037 13.0637C16.5253 13.0637 16.6443 13.0289 16.7468 12.9635C16.8493 12.8981 16.931 12.8048 16.9823 12.6946C17.0336 12.5844 17.0524 12.4618 17.0364 12.3412C17.0204 12.2207 16.9703 12.1073 16.892 12.0142C15.6703 10.5613 13.8885 9.7276 12.0001 9.7276ZM12.0001 12.5402C11.4403 12.54 10.8873 12.6626 10.38 12.8994C9.87276 13.1362 9.42363 13.4814 9.06428 13.9106C9.01029 13.9749 8.9695 14.0492 8.94427 14.1293C8.91903 14.2094 8.90984 14.2936 8.91721 14.3773C8.92458 14.4609 8.94838 14.5422 8.98723 14.6167C9.02609 14.6911 9.07924 14.7571 9.14365 14.811C9.2077 14.8654 9.28189 14.9065 9.36194 14.9321C9.44199 14.9577 9.52631 14.9671 9.61003 14.9599C9.69375 14.9527 9.77521 14.9289 9.8497 14.89C9.9242 14.8512 9.99024 14.7979 10.044 14.7333C10.2834 14.4471 10.5826 14.2169 10.9205 14.0589C11.2585 13.9009 11.627 13.8189 12.0001 13.8188C12.7549 13.8188 13.4678 14.1518 13.9569 14.7333C14.0108 14.7977 14.0769 14.8508 14.1513 14.8896C14.2258 14.9284 14.3072 14.9521 14.3908 14.9593C14.4744 14.9665 14.5587 14.9571 14.6387 14.9317C14.7187 14.9062 14.7929 14.8652 14.857 14.811C14.9214 14.7571 14.9745 14.6911 15.0134 14.6167C15.0522 14.5422 15.076 14.4609 15.0834 14.3773C15.0908 14.2936 15.0816 14.2094 15.0564 14.1293C15.0311 14.0492 14.9903 13.9749 14.9363 13.9106C14.5769 13.4813 14.1278 13.1361 13.6204 12.8993C13.1131 12.6626 12.5599 12.54 12.0001 12.5402ZM11.9456 14.9666C11.4458 15.0149 10.9648 15.3883 10.9482 15.945C10.9529 16.2209 11.0657 16.484 11.2625 16.6775C11.4593 16.871 11.7243 16.9794 12.0002 16.9794C12.2762 16.9794 12.5412 16.871 12.738 16.6775C12.9347 16.484 13.0476 16.2209 13.0523 15.945C12.9636 15.1978 12.4457 14.919 11.9456 14.9666Z" fill="url(#paint0_linear_9_4954)"/>
</g>
<defs>
<filter id="filter0_d_9_4954" x="-4" y="0" width="32" height="32" filterUnits="userSpaceOnUse" color-interpolation-filters="sRGB">
<feFlood flood-opacity="0" result="BackgroundImageFix"/>
<feColorMatrix in="SourceAlpha" type="matrix" values="0 0 0 0 0 0 0 0 0 0 0 0 0 0 0 0 0 0 127 0" result="hardAlpha"/>
<feOffset dy="4"/>
<feGaussianBlur stdDeviation="2"/>
<feComposite in2="hardAlpha" operator="out"/>
<feColorMatrix type="matrix" values="0 0 0 0 0 0 0 0 0 0 0 0 0 0 0 0 0 0 0.25 0"/>
<feBlend mode="normal" in2="BackgroundImageFix" result="effect1_dropShadow_9_4954"/>
<feBlend mode="normal" in="SourceGraphic" in2="effect1_dropShadow_9_4954" result="shape"/>
</filter>
<linearGradient id="paint0_linear_9_4954" x1="5.00049" y1="12" x2="19.0006" y2="12" gradientUnits="userSpaceOnUse">
<stop stop-color="#FDFC47"/>
<stop offset="1" stop-color="#24FE41"/>
</linearGradient>
</defs>
</svg>
