<svg width="24" height="27" viewBox="0 0 24 27" fill="none" xmlns="http://www.w3.org/2000/svg">
<g filter="url(#filter0_d_9_4897)">
<path d="M6 6C4.892 6 4 6.892 4 8V17C4 18.108 4.892 19 6 19H18C19.108 19 20 18.108 20 17V8C20 6.892 19.108 6 18 6H6ZM6 7H18C18.554 7 19 7.446 19 8V17L14 12L10.5206 16L8 14L5 17V8C5 7.446 5.446 7 6 7ZM8.5 9C7.67157 9 7 9.67157 7 10.5C7 11.3284 7.67157 12 8.5 12C9.32843 12 10 11.3284 10 10.5C10 9.67157 9.32843 9 8.5 9Z" fill="url(#paint0_linear_9_4897)"/>
</g>
<defs>
<filter id="filter0_d_9_4897" x="-4" y="0" width="32" height="32" filterUnits="userSpaceOnUse" color-interpolation-filters="sRGB">
<feFlood flood-opacity="0" result="BackgroundImageFix"/>
<feColorMatrix in="SourceAlpha" type="matrix" values="0 0 0 0 0 0 0 0 0 0 0 0 0 0 0 0 0 0 127 0" result="hardAlpha"/>
<feOffset dy="4"/>
<feGaussianBlur stdDeviation="2"/>
<feComposite in2="hardAlpha" operator="out"/>
<feColorMatrix type="matrix" values="0 0 0 0 0 0 0 0 0 0 0 0 0 0 0 0 0 0 0.25 0"/>
<feBlend mode="normal" in2="BackgroundImageFix" result="effect1_dropShadow_9_4897"/>
<feBlend mode="normal" in="SourceGraphic" in2="effect1_dropShadow_9_4897" result="shape"/>
</filter>
<linearGradient id="paint0_linear_9_4897" x1="4" y1="12.5" x2="20" y2="12.5" gradientUnits="userSpaceOnUse">
<stop stop-color="#FDFC47"/>
<stop offset="1" stop-color="#24FE41"/>
</linearGradient>
</defs>
</svg>
