<svg width="24" height="27" viewBox="0 0 24 27" fill="none" xmlns="http://www.w3.org/2000/svg">
<g filter="url(#filter0_d_9_4925)">
<path d="M6 6C4.892 6 4 6.892 4 8V17C4 18.108 4.892 19 6 19H13.6777C13.3236 18.7149 13.0148 18.3777 12.7617 18H5.99998C5.44598 18 4.99998 17.554 4.99998 17V11H19V11.7598C19.3775 12.0122 19.7147 12.3204 20 12.6738V9.00003C20 7.89203 19.108 7.00003 18 7.00003H10.3711C9.79123 6.97713 9.76638 7.07691 9.33198 6.64261C8.89817 6.2088 8.71898 6.00048 7.99998 6.00003L6 6ZM6 7H8C8.31116 7 8.52033 7.00014 8.99805 7.4707C9.47682 7.94231 9.63685 8 9.99805 8H18C18.554 8 19 8.446 19 9V10H5.00005V8C5.00005 7.446 5.446 7 6 7Z" fill="url(#paint0_linear_9_4925)"/>
<path d="M16.5 12C15.5717 12 14.6815 12.3687 14.0251 13.0251C13.3687 13.6815 13 14.5717 13 15.5C13 16.4283 13.3687 17.3185 14.0251 17.9749C14.6815 18.6313 15.5717 19 16.5 19C17.4283 19 18.3185 18.6313 18.9749 17.9749C19.6313 17.3185 20 16.4283 20 15.5C20 14.5717 19.6313 13.6815 18.9749 13.0251C18.3185 12.3687 17.4283 12 16.5 12ZM16.5 13C16.777 13 17 13.223 17 13.5V15H18.5C18.777 15 19 15.223 19 15.5C19 15.777 18.777 16 18.5 16H17V17.5C17 17.777 16.777 18 16.5 18C16.223 18 16 17.777 16 17.5V16H14.5C14.223 16 14 15.777 14 15.5C14 15.223 14.223 15 14.5 15H16V13.5C16 13.223 16.223 13 16.5 13Z" fill="url(#paint1_linear_9_4925)"/>
</g>
<defs>
<filter id="filter0_d_9_4925" x="-4" y="0" width="32" height="32" filterUnits="userSpaceOnUse" color-interpolation-filters="sRGB">
<feFlood flood-opacity="0" result="BackgroundImageFix"/>
<feColorMatrix in="SourceAlpha" type="matrix" values="0 0 0 0 0 0 0 0 0 0 0 0 0 0 0 0 0 0 127 0" result="hardAlpha"/>
<feOffset dy="4"/>
<feGaussianBlur stdDeviation="2"/>
<feComposite in2="hardAlpha" operator="out"/>
<feColorMatrix type="matrix" values="0 0 0 0 0 0 0 0 0 0 0 0 0 0 0 0 0 0 0.25 0"/>
<feBlend mode="normal" in2="BackgroundImageFix" result="effect1_dropShadow_9_4925"/>
<feBlend mode="normal" in="SourceGraphic" in2="effect1_dropShadow_9_4925" result="shape"/>
</filter>
<linearGradient id="paint0_linear_9_4925" x1="4" y1="12.5" x2="20" y2="12.5" gradientUnits="userSpaceOnUse">
<stop stop-color="#FDFC47"/>
<stop offset="1" stop-color="#24FE41"/>
</linearGradient>
<linearGradient id="paint1_linear_9_4925" x1="13" y1="15.5" x2="20" y2="15.5" gradientUnits="userSpaceOnUse">
<stop stop-color="#FDFC47"/>
<stop offset="1" stop-color="#24FE41"/>
</linearGradient>
</defs>
</svg>
