<svg width="24" height="28" viewBox="0 0 24 28" fill="none" xmlns="http://www.w3.org/2000/svg">
<g filter="url(#filter0_d_9_4899)">
<path d="M11.5 5C9.51088 5 7.60322 5.79018 6.1967 7.1967C4.79018 8.60322 4 10.5109 4 12.5C4 14.4891 4.79018 16.3968 6.1967 17.8033C7.60322 19.2098 9.51088 20 11.5 20C13.4891 20 15.3968 19.2098 16.8033 17.8033C18.2098 16.3968 19 14.4891 19 12.5C19 10.5109 18.2098 8.60322 16.8033 7.1967C15.3968 5.79018 13.4891 5 11.5 5ZM11.5 6C13.2239 6 14.8772 6.68482 16.0962 7.90381C17.3152 9.12279 18 10.7761 18 12.5C18 14.2239 17.3152 15.8772 16.0962 17.0962C14.8772 18.3152 13.2239 19 11.5 19C9.77609 19 8.12279 18.3152 6.90381 17.0962C5.68482 15.8772 5 14.2239 5 12.5C5 10.7761 5.68482 9.12279 6.90381 7.90381C8.12279 6.68482 9.77609 6 11.5 6ZM11.5 9C11.223 9 11 9.223 11 9.5V14.293L9.7324 13.0254C9.53653 12.8295 9.22124 12.8295 9.02537 13.0254C8.8295 13.2213 8.8295 13.5366 9.02537 13.7324L11.1465 15.8535C11.1935 15.9005 11.2497 15.9376 11.3125 15.9629C11.4328 16.0119 11.5672 16.0119 11.6875 15.9629C11.7503 15.9376 11.8065 15.9005 11.8535 15.8535L13.9746 13.7324C14.1705 13.5366 14.1705 13.2213 13.9746 13.0254C13.7787 12.8295 13.4635 12.8295 13.2676 13.0254L12 14.293V9.5C12 9.223 11.777 9 11.5 9Z" fill="url(#paint0_linear_9_4899)"/>
</g>
<defs>
<filter id="filter0_d_9_4899" x="-4" y="0" width="32" height="32" filterUnits="userSpaceOnUse" color-interpolation-filters="sRGB">
<feFlood flood-opacity="0" result="BackgroundImageFix"/>
<feColorMatrix in="SourceAlpha" type="matrix" values="0 0 0 0 0 0 0 0 0 0 0 0 0 0 0 0 0 0 127 0" result="hardAlpha"/>
<feOffset dy="4"/>
<feGaussianBlur stdDeviation="2"/>
<feComposite in2="hardAlpha" operator="out"/>
<feColorMatrix type="matrix" values="0 0 0 0 0 0 0 0 0 0 0 0 0 0 0 0 0 0 0.25 0"/>
<feBlend mode="normal" in2="BackgroundImageFix" result="effect1_dropShadow_9_4899"/>
<feBlend mode="normal" in="SourceGraphic" in2="effect1_dropShadow_9_4899" result="shape"/>
</filter>
<linearGradient id="paint0_linear_9_4899" x1="4" y1="12.5" x2="19" y2="12.5" gradientUnits="userSpaceOnUse">
<stop stop-color="#FDFC47"/>
<stop offset="1" stop-color="#24FE41"/>
</linearGradient>
</defs>
</svg>
