<svg width="24" height="24" viewBox="0 0 24 24" fill="none" xmlns="http://www.w3.org/2000/svg">
<g filter="url(#filter0_d_9_4933)">
<path opacity="0.8" d="M11 6.0001C10.4132 6.00014 9.84513 6.20658 9.39523 6.58328C8.94532 6.95999 8.64226 7.48295 8.5391 8.0606C8.36214 8.02092 8.18139 8.00062 8.00004 8.00005C7.337 8.00005 6.70111 8.26344 6.23227 8.73228C5.76343 9.20112 5.50004 9.83701 5.50004 10.5001C5.50029 10.8038 5.55588 11.1049 5.6641 11.3887C5.30781 11.614 5.01425 11.9256 4.81072 12.2948C4.6072 12.6639 4.50031 13.0785 4.5 13.5C4.5 14.1631 4.76339 14.7989 5.23223 15.2678C5.70107 15.7366 6.33696 16 7 16C7.3721 15.9999 7.73948 15.9167 8.07535 15.7566C8.41122 15.5964 8.70709 15.3633 8.9414 15.0742C9.65988 15.6723 10.5652 15.9999 11.5 16C12.5048 15.9995 13.4725 15.6209 14.2109 14.9395C14.4926 15.2719 14.8432 15.5389 15.2386 15.7221C15.6339 15.9052 16.0643 16.0001 16.5 16C17.2956 16 18.0587 15.6839 18.6213 15.1213C19.1839 14.5587 19.5 13.7957 19.5 13C19.4996 12.3645 19.2974 11.7455 18.9225 11.2323C18.5476 10.7191 18.0194 10.3382 17.4141 10.1445C17.4707 9.93433 17.4996 9.71766 17.5 9.49999C17.5 8.83695 17.2366 8.20106 16.7678 7.73222C16.299 7.26338 15.6631 6.99999 15 6.99999C14.389 6.99995 13.7991 7.22367 13.3418 7.6289C13.1642 7.15098 12.8446 6.73881 12.4261 6.44766C12.0075 6.15652 11.5099 6.00041 11 6.0001Z" fill="url(#paint0_linear_9_4933)"/>
</g>
<defs>
<filter id="filter0_d_9_4933" x="-3" y="0" width="30" height="30" filterUnits="userSpaceOnUse" color-interpolation-filters="sRGB">
<feFlood flood-opacity="0" result="BackgroundImageFix"/>
<feColorMatrix in="SourceAlpha" type="matrix" values="0 0 0 0 0 0 0 0 0 0 0 0 0 0 0 0 0 0 127 0" result="hardAlpha"/>
<feOffset dy="4"/>
<feGaussianBlur stdDeviation="2"/>
<feComposite in2="hardAlpha" operator="out"/>
<feColorMatrix type="matrix" values="0 0 0 0 0 0 0 0 0 0 0 0 0 0 0 0 0 0 0.25 0"/>
<feBlend mode="normal" in2="BackgroundImageFix" result="effect1_dropShadow_9_4933"/>
<feBlend mode="normal" in="SourceGraphic" in2="effect1_dropShadow_9_4933" result="shape"/>
</filter>
<linearGradient id="paint0_linear_9_4933" x1="4.5" y1="11" x2="19.5" y2="11" gradientUnits="userSpaceOnUse">
<stop stop-color="#FDFC47"/>
<stop offset="1" stop-color="#24FE41"/>
</linearGradient>
</defs>
</svg>
