<svg width="24" height="28" viewBox="0 0 24 28" fill="none" xmlns="http://www.w3.org/2000/svg">
<g filter="url(#filter0_d_9_4950)">
<path d="M11 4C9.892 4 9 4.892 9 6V7H7C5.892 7 5 7.892 5 9V18C5 19.108 5.892 20 7 20H13C14.108 20 15 19.108 15 18V17H17C18.108 17 19 16.108 19 15V9L14 4H13H11ZM11 5H13V10H18V15C18 15.554 17.554 16 17 16H15V12L10 7V6C10 5.8615 10.0277 5.72909 10.0781 5.60938C10.2295 5.25022 10.5845 5 11 5ZM14 5.41406L17.5859 8.99996H14V5.41406ZM7 7.99996H9V13H14V18C14 18.554 13.554 19 13 19H7C6.446 19 6 18.554 6 18V8.99996C6 8.86146 6.02766 8.72905 6.07812 8.60934C6.22953 8.25018 6.5845 7.99996 7 7.99996ZM10 8.41402L13.5859 11.9999H10V8.41402Z" fill="url(#paint0_linear_9_4950)"/>
</g>
<defs>
<filter id="filter0_d_9_4950" x="-4" y="0" width="32" height="32" filterUnits="userSpaceOnUse" color-interpolation-filters="sRGB">
<feFlood flood-opacity="0" result="BackgroundImageFix"/>
<feColorMatrix in="SourceAlpha" type="matrix" values="0 0 0 0 0 0 0 0 0 0 0 0 0 0 0 0 0 0 127 0" result="hardAlpha"/>
<feOffset dy="4"/>
<feGaussianBlur stdDeviation="2"/>
<feComposite in2="hardAlpha" operator="out"/>
<feColorMatrix type="matrix" values="0 0 0 0 0 0 0 0 0 0 0 0 0 0 0 0 0 0 0.25 0"/>
<feBlend mode="normal" in2="BackgroundImageFix" result="effect1_dropShadow_9_4950"/>
<feBlend mode="normal" in="SourceGraphic" in2="effect1_dropShadow_9_4950" result="shape"/>
</filter>
<linearGradient id="paint0_linear_9_4950" x1="5" y1="12" x2="19" y2="12" gradientUnits="userSpaceOnUse">
<stop stop-color="#FDFC47"/>
<stop offset="1" stop-color="#24FE41"/>
</linearGradient>
</defs>
</svg>
