<svg width="32" height="32" viewBox="0 0 32 32" fill="none" xmlns="http://www.w3.org/2000/svg">
<path d="M23.7793 3.98047L3.98047 23.7793L8.22266 28.0234L28.0215 8.22461L23.7793 3.98047ZM6.25 4L5.45312 5.45312L4 6.25L5.45312 7.04688L6.25 8.5L7.04688 7.04688L8.5 6.25L7.04688 5.45312L6.25 4ZM13.75 4L12.9531 5.45312L11.5 6.25L12.9531 7.04688L13.75 8.5L14.5469 7.04688L16 6.25L14.5469 5.45312L13.75 4ZM23.7773 5.39453L26.6055 8.22266L20.9473 13.8809L18.1191 11.0527L23.7773 5.39453ZM9.25 10L8.45312 11.4531L7 12.25L8.45312 13.0469L9.25 14.5L10.0469 13.0469L11.5 12.25L10.0469 11.4531L9.25 10Z" fill="url(#paint0_linear_10_17967)"/>
<defs>
<linearGradient id="paint0_linear_10_17967" x1="3.98047" y1="16.002" x2="28.0215" y2="16.002" gradientUnits="userSpaceOnUse">
<stop stop-color="#FDFC47"/>
<stop offset="1" stop-color="#24FE41"/>
</linearGradient>
</defs>
</svg>
