<svg width="32" height="32" viewBox="0 0 32 32" fill="none" xmlns="http://www.w3.org/2000/svg">
<path d="M15.8609 24.946C18.5849 27.67 22.3999 28.554 25.8709 27.668L27.5319 26.007C27.5319 26.007 28.5929 24.946 27.5319 23.886L22.9709 19.325C21.9099 18.264 20.8499 19.325 20.8499 19.325L20.3199 19.855C19.4389 20.736 18.0189 20.736 17.1379 19.855L12.1489 14.866C11.2679 13.985 11.2679 12.565 12.1489 11.684L12.6789 11.154C12.6789 11.154 13.7399 10.093 12.6789 9.03304L8.11793 4.47204C7.05693 3.41104 5.99693 4.47204 5.99693 4.47204L4.33593 6.13304C3.44993 9.60004 4.33393 13.415 7.05793 16.143L15.8609 24.946Z" fill="url(#paint0_linear_10_17977)"/>
<defs>
<linearGradient id="paint0_linear_10_17977" x1="4.00439" y1="16" x2="28.0035" y2="16" gradientUnits="userSpaceOnUse">
<stop stop-color="#FDFC47"/>
<stop offset="1" stop-color="#24FE41"/>
</linearGradient>
</defs>
</svg>
