<svg width="32" height="32" viewBox="0 0 32 32" fill="none" xmlns="http://www.w3.org/2000/svg">
<path d="M11 4C10.027 7.405 7.644 10.344 6.594 12.688C6.227 13.385 6 14.155 6 15.001C6 17.771 8.23 20.001 11 20.001C13.77 20.001 16 17.771 16 15.001C16 14.156 15.774 13.385 15.406 12.688C14.356 10.344 11.973 7.405 11 4Z" fill="#B3B3B3"/>
<path d="M16 4C15.5515 5.572 14.902 7.066 14.1715 8.5H16V4ZM16 8.5V14.5H21.25C20.1925 12.679 18.9325 10.669 17.8285 8.5H16ZM16 14.5H10.75C10.4995 14.932 10.219 15.355 10 15.766V20.5H16V14.5ZM16 20.5V26.5H20.5C21.0715 26.071 21.571 25.5715 22 25V20.5H16Z" fill="#777777"/>
<path d="M16 4C14.5405 9.1075 10.966 13.516 9.391 17.032C8.8405 18.0775 8.5 19.2325 8.5 20.5015C8.5 24.6565 11.845 28.0015 16 28.0015C20.155 28.0015 23.5 24.6565 23.5 20.5015C23.5 19.234 23.161 18.0775 22.609 17.032C21.034 13.516 17.4595 9.1075 16 4Z" fill="url(#paint0_linear_10_18025)"/>
<path d="M16 4C14.5405 9.1075 10.966 13.516 9.391 17.032C8.8405 18.0775 8.5 19.2325 8.5 20.5015C8.5 24.6565 11.845 28.0015 16 28.0015C20.155 28.0015 23.5 24.6565 23.5 20.5015C23.5 19.234 23.161 18.0775 22.609 17.032C21.034 13.516 17.4595 9.109 16 4ZM16 7C17.167 11.1505 20.0365 14.737 21.2965 17.59C21.5305 18.04 21.688 18.4915 21.8125 18.997C21.8635 19.2055 21.925 19.435 21.9535 19.654C21.958 19.684 21.9505 19.7185 21.9535 19.7485C21.979 19.966 22 20.179 22 20.4055C22 20.437 22 20.467 22 20.5C21.994 20.8885 21.9325 21.2575 21.859 21.625C21.853 21.655 21.865 21.6895 21.859 21.7195C21.7795 22.0855 21.6715 22.4605 21.5305 22.798C21.5245 22.8115 21.5365 22.831 21.5305 22.8445C21.382 23.1955 21.175 23.5165 20.968 23.8285C20.9605 23.8405 20.9755 23.8645 20.968 23.875C20.758 24.187 20.527 24.4525 20.2645 24.7195C19.987 25.0015 19.7035 25.2475 19.3735 25.4695C18.4165 26.125 17.245 26.5015 15.9985 26.5015C15.583 26.5015 15.172 26.4415 14.779 26.3605C14.5 26.3035 14.245 26.221 13.9825 26.1265C13.936 26.11 13.888 26.098 13.8415 26.08C13.7815 26.056 13.7125 26.0575 13.654 26.0335C13.558 25.993 13.4665 25.939 13.372 25.8925C13.2085 25.8115 13.0585 25.7065 12.9025 25.6105C12.796 25.5445 12.6775 25.495 12.574 25.423C12.5455 25.4035 12.508 25.396 12.4795 25.3765C12.211 25.1815 11.962 24.955 11.7295 24.7195C11.5045 24.49 11.3065 24.232 11.1205 23.9695C11.1025 23.9575 11.092 23.935 11.074 23.923C10.3915 22.9345 9.9955 21.712 9.9955 20.407C9.9955 19.3765 10.258 18.4435 10.699 17.5945C11.959 14.7385 14.8285 11.1505 15.9955 7.0045" fill="url(#paint1_linear_10_18025)"/>
<defs>
<linearGradient id="paint0_linear_10_18025" x1="8.5" y1="27.997" x2="26.5" y2="9.997" gradientUnits="userSpaceOnUse">
<stop stop-color="#1D99F3"/>
<stop offset="0.417" stop-color="#48ACF5" stop-opacity="0.761"/>
<stop offset="0.667" stop-color="#73C0F7" stop-opacity="0"/>
<stop offset="1" stop-color="#CAE7FC" stop-opacity="0"/>
</linearGradient>
<linearGradient id="paint1_linear_10_18025" x1="8.5" y1="16.0007" x2="23.5" y2="16.0007" gradientUnits="userSpaceOnUse">
<stop stop-color="#FDFC47"/>
<stop offset="1" stop-color="#24FE41"/>
</linearGradient>
</defs>
</svg>
