<svg width="32" height="32" viewBox="0 0 32 32" fill="none" xmlns="http://www.w3.org/2000/svg">
<path d="M26 4C25.4696 4.00008 24.9609 4.21085 24.5859 4.58594L21.793 7.37891L20.207 5.79297L18.793 7.20703L19.9414 8.35547L6.76562 21.5293C6.25587 22.039 6 22.711 6 23.3828V24.5859L4 26.5859L5.41406 28L7.41406 26H8.61914C9.29096 26 9.96291 25.7461 10.4727 25.2363L23.6484 12.0625L24.793 13.207L26.207 11.793L24.6211 10.207L27.4141 7.41406C27.7892 7.03905 27.9999 6.5304 28 6V5.5C28 5.10218 27.842 4.72064 27.5607 4.43934C27.2794 4.15804 26.8978 4 26.5 4H26ZM20.6484 9.0625L22.9414 11.3555L14.2949 20H9.70898L20.6484 9.0625Z" fill="url(#paint0_linear_10_18016)"/>
<defs>
<linearGradient id="paint0_linear_10_18016" x1="4" y1="16" x2="28" y2="16" gradientUnits="userSpaceOnUse">
<stop stop-color="#FDFC47"/>
<stop offset="1" stop-color="#24FE41"/>
</linearGradient>
</defs>
</svg>
