<svg width="32" height="32" viewBox="0 0 32 32" fill="none" xmlns="http://www.w3.org/2000/svg">
<path d="M18.5 6C17.6593 6.00123 16.847 6.30506 16.2119 6.85592C15.5768 7.40679 15.1611 8.16787 15.041 9H4V10H15.04C15.1601 10.8323 15.5759 11.5935 16.2113 12.1444C16.8466 12.6953 17.6591 12.999 18.5 13C19.3407 12.9988 20.153 12.6949 20.7881 12.1441C21.4232 11.5932 21.8389 10.8321 21.959 10H28V9H21.961C21.8408 8.16753 21.4249 7.40617 20.7894 6.85526C20.1538 6.30436 19.3411 6.00075 18.5 6ZM7.5 19C6.57174 19 5.6815 19.3687 5.02513 20.0251C4.36875 20.6815 4 21.5717 4 22.5C4 23.4283 4.36875 24.3185 5.02513 24.9749C5.6815 25.6313 6.57174 26 7.5 26C8.34108 25.9992 9.15377 25.6956 9.78932 25.1447C10.4249 24.5938 10.8408 23.8325 10.9609 23H28V22H10.959C10.8389 21.1679 10.4233 20.4068 9.78811 19.8559C9.15297 19.3051 8.34075 19.0012 7.5 19ZM7.5 20C8.16304 20 8.79893 20.2634 9.26777 20.7322C9.73661 21.2011 10 21.837 10 22.5C10 23.163 9.73661 23.7989 9.26777 24.2678C8.79893 24.7366 8.16304 25 7.5 25C6.83696 25 6.20107 24.7366 5.73223 24.2678C5.26339 23.7989 5 23.163 5 22.5C5 21.837 5.26339 21.2011 5.73223 20.7322C6.20107 20.2634 6.83696 20 7.5 20Z" fill="url(#paint0_linear_10_18032)"/>
<defs>
<linearGradient id="paint0_linear_10_18032" x1="4" y1="16" x2="28" y2="16" gradientUnits="userSpaceOnUse">
<stop stop-color="#FDFC47"/>
<stop offset="1" stop-color="#24FE41"/>
</linearGradient>
</defs>
</svg>
