<svg width="32" height="32" viewBox="0 0 32 32" fill="none" xmlns="http://www.w3.org/2000/svg">
<path d="M6 4V28H15V27H7V5H18V12H25V15H26V11L19 4H18H6ZM24.5 16C23.672 16 23 16.672 23 17.5C23 18.328 23.672 19 24.5 19C25.328 19 26 18.328 26 17.5C26 16.672 25.328 16 24.5 16ZM21.5 19C21.224 19 21 19.224 21 19.5C21 19.776 21.224 20 21.5 20C21.776 20 22 19.776 22 19.5C22 19.224 21.776 19 21.5 19ZM19.5 20C19.224 20 19 20.224 19 20.5C19 20.776 19.224 21 19.5 21C19.776 21 20 20.776 20 20.5C20 20.224 19.776 20 19.5 20ZM16.5 21C15.672 21 15 21.672 15 22.5C15 23.328 15.672 24 16.5 24C17.328 24 18 23.328 18 22.5C18 21.672 17.328 21 16.5 21ZM19.5 24C19.224 24 19 24.224 19 24.5C19 24.776 19.224 25 19.5 25C19.776 25 20 24.776 20 24.5C20 24.224 19.776 24 19.5 24ZM21.5 25C21.224 25 21 25.224 21 25.5C21 25.776 21.224 26 21.5 26C21.776 26 22 25.776 22 25.5C22 25.224 21.776 25 21.5 25ZM24.5 25C23.672 25 23 25.672 23 26.5C23 27.328 23.672 28 24.5 28C25.328 28 26 27.328 26 26.5C26 25.672 25.328 25 24.5 25Z" fill="url(#paint0_linear_10_18092)"/>
<defs>
<linearGradient id="paint0_linear_10_18092" x1="6" y1="16" x2="26" y2="16" gradientUnits="userSpaceOnUse">
<stop stop-color="#FDFC47"/>
<stop offset="1" stop-color="#24FE41"/>
</linearGradient>
</defs>
</svg>
