<svg width="32" height="32" viewBox="0 0 32 32" fill="none" xmlns="http://www.w3.org/2000/svg">
<path d="M6 4V16H7V5H18V12H25V16H26V11L19 4H6ZM21 16C19.343 16 18 17.343 18 19V22H16V28H26V22H24V19C24 17.343 22.657 16 21 16ZM9 17V19H11V17H9ZM21 17C22.105 17 23 17.895 23 19V22H19V19C19 17.895 19.895 17 21 17ZM6 20V22H8V20H6ZM12 20V22H14V20H12ZM9 23V25H11V23H9ZM6 26V28H8V26H6ZM12 26V28H14V26H12Z" fill="url(#paint0_linear_10_18052)"/>
<defs>
<linearGradient id="paint0_linear_10_18052" x1="6" y1="16" x2="26" y2="16" gradientUnits="userSpaceOnUse">
<stop stop-color="#FDFC47"/>
<stop offset="1" stop-color="#24FE41"/>
</linearGradient>
</defs>
</svg>
