<svg width="32" height="32" viewBox="0 0 32 32" fill="none" xmlns="http://www.w3.org/2000/svg">
<path d="M21.0001 3.5L20.2931 4.207L24.0861 8H15.9961C13.3439 8 10.8004 9.05357 8.92503 10.9289C7.04966 12.8043 5.99609 15.3478 5.99609 18C5.99609 20.6522 7.04966 23.1957 8.92503 25.0711C10.8004 26.9464 13.3439 28 15.9961 28H16.9961V27H15.9961C13.6091 27 11.32 26.0518 9.63213 24.364C7.94431 22.6761 6.99609 20.3869 6.99609 18C6.99609 15.6131 7.94431 13.3239 9.63213 11.636C11.32 9.94821 13.6091 9 15.9961 9H24.0861L20.2931 12.793L21.0001 13.5L26.0001 8.5L25.0001 7.5L21.0001 3.5Z" fill="url(#paint0_linear_10_18108)"/>
<defs>
<linearGradient id="paint0_linear_10_18108" x1="5.99609" y1="15.75" x2="26.0001" y2="15.75" gradientUnits="userSpaceOnUse">
<stop stop-color="#FDFC47"/>
<stop offset="1" stop-color="#24FE41"/>
</linearGradient>
</defs>
</svg>
