<svg width="32" height="32" viewBox="0 0 32 32" fill="none" xmlns="http://www.w3.org/2000/svg">
<path d="M4 4V28H16V27H5V14H10L13 11H27V16H28V7H18L15 4H4ZM22 16C20.4087 16 18.8826 16.6321 17.7574 17.7574C16.6321 18.8826 16 20.4087 16 22C16.0021 23.0707 16.2908 24.1214 16.8359 25.043L17.5684 24.3105C17.1957 23.5973 17.0008 22.8047 17 22C17 20.6739 17.5268 19.4021 18.4645 18.4645C19.4021 17.5268 20.6739 17 22 17C22.8042 17.0017 23.5961 17.1973 24.3086 17.5703L25.0391 16.8359C24.1186 16.2914 23.0694 16.0028 22 16ZM27.1602 18.957L26.4316 19.6895C26.8043 20.4027 26.9992 21.1953 27 22C27 23.3261 26.4732 24.5979 25.5355 25.5355C24.5979 26.4732 23.3261 27 22 27C21.1958 26.9983 20.4039 26.8027 19.6914 26.4297L18.957 27.1602C19.8782 27.7067 20.9289 27.9967 22 28C23.5913 28 25.1174 27.3679 26.2426 26.2426C27.3679 25.1174 28 23.5913 28 22C27.9979 20.9293 27.7092 19.8786 27.1641 18.957H27.1602Z" fill="url(#paint0_linear_10_18129)"/>
<defs>
<linearGradient id="paint0_linear_10_18129" x1="4" y1="16" x2="28" y2="16" gradientUnits="userSpaceOnUse">
<stop stop-color="#FDFC47"/>
<stop offset="1" stop-color="#24FE41"/>
</linearGradient>
</defs>
</svg>
