<svg width="32" height="32" viewBox="0 0 32 32" fill="none" xmlns="http://www.w3.org/2000/svg">
<path d="M16 4C12.8174 4 9.76516 5.26428 7.51472 7.51472C5.26428 9.76516 4 12.8174 4 16C4 19.1826 5.26428 22.2348 7.51472 24.4853C9.76516 26.7357 12.8174 28 16 28C16.6706 27.9954 17.3396 27.9347 18 27.8184V26.8105C17.3405 26.9346 16.671 26.998 16 27C13.0826 27 10.2847 25.8411 8.22183 23.7782C6.15893 21.7153 5 18.9174 5 16C5 13.0826 6.15893 10.2847 8.22183 8.22183C10.2847 6.15893 13.0826 5 16 5C18.9174 5 21.7153 6.15893 23.7782 8.22183C25.8411 10.2847 27 13.0826 27 16C26.9935 17.3699 26.7312 18.7265 26.2266 20H27.3086C27.7645 18.7156 27.9984 17.3629 28 16C28 12.8174 26.7357 9.76516 24.4853 7.51472C22.2348 5.26428 19.1826 4 16 4ZM15 9V11H17V9H15ZM15 13V23H17V13H15ZM19 16L19.0078 28L22.5996 23.0762H28L19 16Z" fill="url(#paint0_linear_10_18192)"/>
<defs>
<linearGradient id="paint0_linear_10_18192" x1="4" y1="16" x2="28" y2="16" gradientUnits="userSpaceOnUse">
<stop stop-color="#FDFC47"/>
<stop offset="1" stop-color="#24FE41"/>
</linearGradient>
</defs>
</svg>
