<svg width="32" height="32" viewBox="0 0 32 32" fill="none" xmlns="http://www.w3.org/2000/svg">
<g clip-path="url(#clip0_10_18187)">
<g opacity="0.2" filter="url(#filter0_f_10_18187)">
<path d="M23 4H9C5.68629 4 3 6.68629 3 10V24C3 27.3137 5.68629 30 9 30H23C26.3137 30 29 27.3137 29 24V10C29 6.68629 26.3137 4 23 4Z" fill="url(#paint0_linear_10_18187)"/>
</g>
<path d="M23 3H9C5.68629 3 3 5.68629 3 9V23C3 26.3137 5.68629 29 9 29H23C26.3137 29 29 26.3137 29 23V9C29 5.68629 26.3137 3 23 3Z" fill="url(#paint1_linear_10_18187)"/>
<path d="M15 9V11H17V9H15ZM15 13V23H17V13H15Z" fill="url(#paint2_linear_10_18187)"/>
</g>
<defs>
<filter id="filter0_f_10_18187" x="0.66" y="1.66" width="30.68" height="30.68" filterUnits="userSpaceOnUse" color-interpolation-filters="sRGB">
<feFlood flood-opacity="0" result="BackgroundImageFix"/>
<feBlend mode="normal" in="SourceGraphic" in2="BackgroundImageFix" result="shape"/>
<feGaussianBlur stdDeviation="1.17" result="effect1_foregroundBlur_10_18187"/>
</filter>
<linearGradient id="paint0_linear_10_18187" x1="3" y1="17" x2="29" y2="17" gradientUnits="userSpaceOnUse">
<stop stop-color="#FDFC47"/>
<stop offset="1" stop-color="#24FE41"/>
</linearGradient>
<linearGradient id="paint1_linear_10_18187" x1="3" y1="16" x2="29" y2="16" gradientUnits="userSpaceOnUse">
<stop stop-color="#2193B0"/>
<stop offset="1" stop-color="#6DD5ED"/>
</linearGradient>
<linearGradient id="paint2_linear_10_18187" x1="1.14739e-06" y1="30" x2="1.14739e-06" y2="2" gradientUnits="userSpaceOnUse">
<stop stop-color="#7CBAF8"/>
<stop offset="1" stop-color="#F4FCFF"/>
</linearGradient>
<clipPath id="clip0_10_18187">
<rect width="32" height="32" fill="white"/>
</clipPath>
</defs>
</svg>
