<svg width="32" height="32" viewBox="0 0 32 32" fill="none" xmlns="http://www.w3.org/2000/svg">
<path d="M2 5V24.6836V27H19V26H3V25.1113L3.42969 24.6836L12.7852 15.541L16 18.6836L28.9766 6H29V16H30V5H2ZM3 6H3.02344L12.0703 14.8418L3 23.707V6ZM4.45312 6H27.5469L16 17.2852L4.45312 6ZM20 17V22L25.3906 26.9746L29.9746 22.3906L25 17H20ZM22.8906 18.6406C23.5806 18.6406 24.1406 19.2006 24.1406 19.8906C24.1406 20.5806 23.5806 21.1406 22.8906 21.1406C22.2006 21.1406 21.6406 20.5806 21.6406 19.8906C21.6406 19.2006 22.2006 18.6406 22.8906 18.6406Z" fill="url(#paint0_linear_10_18270)"/>
<defs>
<linearGradient id="paint0_linear_10_18270" x1="2" y1="16" x2="30" y2="16" gradientUnits="userSpaceOnUse">
<stop stop-color="#FDFC47"/>
<stop offset="1" stop-color="#24FE41"/>
</linearGradient>
</defs>
</svg>
