<svg width="32" height="32" viewBox="0 0 32 32" fill="none" xmlns="http://www.w3.org/2000/svg">
<path d="M2 5V24.6836V27H19V26H3V25.1113L3.42969 24.6836L12.7852 15.541L16 18.6836L19.2148 15.541L21 17.2852V15.8887L19.9297 14.8418L28.9766 6H29V14H30V5H2ZM3 6H3.02344L12.0703 14.8418L3 23.707V6ZM4.45312 6H27.5469L16 17.2852L4.45312 6ZM26.4551 14.916C25.0744 14.916 23.9551 16.0353 23.9551 17.416V23.4512H23.957C23.9761 24.2651 24.6409 24.9152 25.4551 24.916C26.2835 24.916 26.9551 24.2444 26.9551 23.416V17.916H25.9551V23.416C25.9551 23.6922 25.7312 23.916 25.4551 23.916C25.1789 23.916 24.9551 23.6922 24.9551 23.416V17.416C24.9551 16.5876 25.6267 15.916 26.4551 15.916C27.2835 15.916 27.9551 16.5876 27.9551 17.416V23.416C27.9551 24.7967 26.8358 25.916 25.4551 25.916C24.0744 25.916 22.9551 24.7967 22.9551 23.416V16.916H21.9551V23.416C21.9551 25.349 23.5221 26.916 25.4551 26.916C27.3881 26.916 28.9551 25.349 28.9551 23.416V17.3809H28.9531C28.934 16.0147 27.8214 14.9169 26.4551 14.916Z" fill="url(#paint0_linear_10_18202)"/>
<defs>
<linearGradient id="paint0_linear_10_18202" x1="2" y1="16" x2="30" y2="16" gradientUnits="userSpaceOnUse">
<stop stop-color="#FDFC47"/>
<stop offset="1" stop-color="#24FE41"/>
</linearGradient>
</defs>
</svg>
