<svg width="32" height="32" viewBox="0 0 32 32" fill="none" xmlns="http://www.w3.org/2000/svg">
<path d="M2 5V24.6836V27H19V26H3V25.1113L3.42969 24.6836L12.7852 15.541L16 18.6836L28.9766 6H29V16H30V5H2ZM3 6H3.02344L12.0703 14.8418L3 23.707V6ZM4.45312 6H27.5469L16 17.2852L4.45312 6ZM24 18C22.3895 18.0021 20.809 18.4364 19.4235 19.2574C18.038 20.0785 16.8982 21.2563 16.123 22.668C16.252 23.0317 16.4805 23.3446 16.7793 23.5762C17.4269 22.2086 18.4491 21.0527 19.7272 20.2427C21.0052 19.4327 22.4869 19.0018 24 19C23.4747 19 22.9546 19.1035 22.4693 19.3045C21.984 19.5055 21.543 19.8001 21.1716 20.1716C20.8001 20.543 20.5055 20.984 20.3045 21.4693C20.1035 21.9546 20 22.4747 20 23C20 23.5253 20.1035 24.0454 20.3045 24.5307C20.5055 25.016 20.8001 25.457 21.1716 25.8284C21.543 26.1999 21.984 26.4945 22.4693 26.6955C22.9546 26.8965 23.4747 27 24 27C24.5253 27 25.0454 26.8965 25.5307 26.6955C26.016 26.4945 26.457 26.1999 26.8284 25.8284C27.1999 25.457 27.4945 25.016 27.6955 24.5307C27.8965 24.0454 28 23.5253 28 23C27.9994 22 27.6244 21.0366 26.9487 20.2994C26.273 19.5623 25.3457 19.105 24.3496 19.0176C25.8009 19.082 27.2072 19.5403 28.4177 20.3434C29.6282 21.1465 30.5972 22.2641 31.2207 23.5762C31.5222 23.3425 31.7526 23.0261 31.8809 22.6582C31.1041 21.2478 29.9631 20.0716 28.5769 19.2522C27.1908 18.4329 25.6102 18.0005 24 18ZM24 20C24.394 20 24.7841 20.0776 25.1481 20.2284C25.512 20.3791 25.8427 20.6001 26.1213 20.8787C26.3999 21.1573 26.6209 21.488 26.7716 21.8519C26.9224 22.2159 27 22.606 27 23C27 23.394 26.9224 23.7841 26.7716 24.1481C26.6209 24.512 26.3999 24.8427 26.1213 25.1213C25.8427 25.3999 25.512 25.6209 25.1481 25.7716C24.7841 25.9224 24.394 26 24 26C23.606 26 23.2159 25.9224 22.8519 25.7716C22.488 25.6209 22.1573 25.3999 21.8787 25.1213C21.6001 24.8427 21.3791 24.512 21.2284 24.1481C21.0776 23.7841 21 23.394 21 23C21 22.606 21.0776 22.2159 21.2284 21.8519C21.3791 21.488 21.6001 21.1573 21.8787 20.8787C22.1573 20.6001 22.488 20.3791 22.8519 20.2284C23.2159 20.0776 23.606 20 24 20ZM24 21C23.4696 21 22.9609 21.2107 22.5858 21.5858C22.2107 21.9609 22 22.4696 22 23C22 23.5304 22.2107 24.0391 22.5858 24.4142C22.9609 24.7893 23.4696 25 24 25C24.5304 25 25.0391 24.7893 25.4142 24.4142C25.7893 24.0391 26 23.5304 26 23C25.9995 22.8007 25.9692 22.6025 25.9102 22.4121C25.831 22.5872 25.703 22.7357 25.5416 22.84C25.3802 22.9443 25.1922 22.9998 25 23C24.8687 23 24.7386 22.9741 24.6173 22.9239C24.496 22.8736 24.3858 22.8 24.2929 22.7071C24.2 22.6142 24.1264 22.504 24.0761 22.3827C24.0259 22.2614 24 22.1313 24 22C24.0004 21.8076 24.0562 21.6194 24.1608 21.458C24.2654 21.2966 24.4144 21.1687 24.5898 21.0898C24.3988 21.0306 24.2 21.0003 24 21Z" fill="url(#paint0_linear_10_18272)"/>
<defs>
<linearGradient id="paint0_linear_10_18272" x1="2" y1="16" x2="31.8809" y2="16" gradientUnits="userSpaceOnUse">
<stop stop-color="#FDFC47"/>
<stop offset="1" stop-color="#24FE41"/>
</linearGradient>
</defs>
</svg>
