<svg width="32" height="32" viewBox="0 0 32 32" fill="none" xmlns="http://www.w3.org/2000/svg">
<path d="M2 5V24.6836V27H17V26H3V25.1113L3.42969 24.6836L12.7852 15.541L16 18.6836C16 18.6836 29 6 28.9766 6H29V14H30V5H2ZM3 6H3.02344L12.0703 14.8418L3 23.707V6ZM4.45312 6H27.5469L16 17.2852L4.45312 6ZM24 15C20.6863 15 18 17.6863 18 21C18 24.3137 20.6863 27 24 27C27.3137 27 30 24.3137 30 21C30 17.6863 27.3137 15 24 15ZM24 16C26.7614 16 29 18.2386 29 21C29 23.7614 26.7614 26 24 26C21.2386 26 19 23.7614 19 21C19 18.2386 21.2386 16 24 16ZM23 17V21V22H28V21H24V17H23Z" fill="url(#paint0_linear_10_18242)"/>
<defs>
<linearGradient id="paint0_linear_10_18242" x1="2" y1="16" x2="30" y2="16" gradientUnits="userSpaceOnUse">
<stop stop-color="#FDFC47"/>
<stop offset="1" stop-color="#24FE41"/>
</linearGradient>
</defs>
</svg>
