<svg width="32" height="32" viewBox="0 0 32 32" fill="none" xmlns="http://www.w3.org/2000/svg">
<path d="M23.5 7V10H8.5C6.007 10 4 12.007 4 14.5V16H5V14.5C5 12.7182 6.69418 11 8.5 11H23.5L23.5 14L28 10.5L23.5 7ZM18 20.9521L8.5 21V18L4 21.5L8.5 25V22H18V20.9521Z" fill="url(#paint0_linear_10_18290)"/>
<path d="M19.65 16.5L18 18.15L21.35 21.5L18 24.85L19.65 26.5L23 23.15L26.35 26.5L28 24.85L24.65 21.5L28 18.15L26.35 16.5L23 19.85L19.65 16.5Z" fill="url(#paint1_linear_10_18290)"/>
<defs>
<linearGradient id="paint0_linear_10_18290" x1="4" y1="16" x2="28" y2="16" gradientUnits="userSpaceOnUse">
<stop stop-color="#FDFC47"/>
<stop offset="1" stop-color="#24FE41"/>
</linearGradient>
<linearGradient id="paint1_linear_10_18290" x1="18" y1="21.5" x2="28" y2="21.5" gradientUnits="userSpaceOnUse">
<stop stop-color="#FDFC47"/>
<stop offset="1" stop-color="#24FE41"/>
</linearGradient>
</defs>
</svg>
