<svg width="32" height="32" viewBox="0 0 32 32" fill="none" xmlns="http://www.w3.org/2000/svg">
<path d="M23.5 7V10H19C15.676 10 13.5 12.676 13.5 16C13.5 18.493 11.0257 21 8.5 21H4V22H8.5C11.824 22 14.5 19.324 14.5 16C14.5 13.507 16.507 11 19 11H23.5V14L28 10.5L23.5 7ZM4 10V11H8.5C9.78042 11 11.093 11.6321 11.911 12.4849C12.0546 11.9683 12.0934 11.8853 12.3613 11.4355C11.3169 10.5521 9.98139 10 8.5 10H4ZM23.5 18V21H19C17.7196 21 16.4138 20.379 15.5958 19.5263C15.4522 20.0428 15.4066 20.1147 15.1387 20.5645C16.1831 21.4479 17.5186 22 19 22H23.5V25L28 21.5L23.5 18Z" fill="url(#paint0_linear_10_18286)"/>
<defs>
<linearGradient id="paint0_linear_10_18286" x1="4" y1="16" x2="28" y2="16" gradientUnits="userSpaceOnUse">
<stop stop-color="#FDFC47"/>
<stop offset="1" stop-color="#24FE41"/>
</linearGradient>
</defs>
</svg>
