<svg width="32" height="32" viewBox="0 0 32 32" fill="none" xmlns="http://www.w3.org/2000/svg">
<path d="M9 17.5L3.66602 21.5L9 25.5V22H22V20.9512L9 20.998V17.5Z" fill="url(#paint0_linear_10_18293)"/>
<path d="M23 6.5V10H8.5C6.007 10 4 12.007 4 14.5V16H5V14.5C5 12.7182 6.69418 11 8.5 11H23V14.5L28.334 10.5L23 6.5Z" fill="url(#paint1_linear_10_18293)"/>
<path fill-rule="evenodd" clip-rule="evenodd" d="M25.293 17L22.793 19.5L23.5 20.207L25 18.707V24H23V25H28V24H26V17H25.293Z" fill="url(#paint2_linear_10_18293)"/>
<defs>
<linearGradient id="paint0_linear_10_18293" x1="3.66602" y1="21.5" x2="22" y2="21.5" gradientUnits="userSpaceOnUse">
<stop stop-color="#FDFC47"/>
<stop offset="1" stop-color="#24FE41"/>
</linearGradient>
<linearGradient id="paint1_linear_10_18293" x1="4" y1="11.25" x2="28.334" y2="11.25" gradientUnits="userSpaceOnUse">
<stop stop-color="#FDFC47"/>
<stop offset="1" stop-color="#24FE41"/>
</linearGradient>
<linearGradient id="paint2_linear_10_18293" x1="22.793" y1="21" x2="28" y2="21" gradientUnits="userSpaceOnUse">
<stop stop-color="#FDFC47"/>
<stop offset="1" stop-color="#24FE41"/>
</linearGradient>
</defs>
</svg>
