<svg width="32" height="32" viewBox="0 0 32 32" fill="none" xmlns="http://www.w3.org/2000/svg">
<path d="M23.5898 3.7207L7.58984 27.7207L8.42188 28.2754L24.4219 4.27539L23.5898 3.7207ZM9 6C6.239 6 4 8.239 4 11C4 13.761 6.239 16 9 16C11.761 16 14 13.761 14 11C14 8.239 11.761 6 9 6ZM9 7C11.209 7 13 8.791 13 11C13 13.209 11.209 15 9 15C6.791 15 5 13.209 5 11C5 8.791 6.791 7 9 7ZM23 16C20.239 16 18 18.239 18 21C18 23.761 20.239 26 23 26C25.761 26 28 23.761 28 21C28 18.239 25.761 16 23 16ZM23 17C25.209 17 27 18.791 27 21C27 23.209 25.209 25 23 25C20.791 25 19 23.209 19 21C19 18.791 20.791 17 23 17Z" fill="url(#paint0_linear_10_18318)"/>
<defs>
<linearGradient id="paint0_linear_10_18318" x1="4" y1="15.998" x2="28" y2="15.998" gradientUnits="userSpaceOnUse">
<stop stop-color="#FDFC47"/>
<stop offset="1" stop-color="#24FE41"/>
</linearGradient>
</defs>
</svg>
