<svg width="32" height="32" viewBox="0 0 32 32" fill="none" xmlns="http://www.w3.org/2000/svg">
<path d="M4 16C4.00462 13.8592 4.58186 11.7586 5.67188 9.91602L11.0508 15.293L10.3398 16L5.93555 11.5957C5.32336 12.9836 5.00484 14.4831 5 16C5 18.9174 6.15893 21.7153 8.22183 23.7782C10.2847 25.8411 13.0826 27 16 27C17.8744 26.9955 19.7165 26.5121 21.3516 25.5957L22.0801 26.3281C20.2387 27.4175 18.1395 27.9947 16 28C12.8174 28 9.76516 26.7357 7.51472 24.4853C5.26428 22.2348 4 19.1826 4 16ZM9.91602 5.67188C11.7586 4.58186 13.8592 4.00462 16 4C19.1826 4 22.2348 5.26428 24.4853 7.51472C26.7357 9.76516 28 12.8174 28 16C27.9954 18.1408 27.4181 20.2414 26.3281 22.084L20.9492 16.707L21.6562 16L26.0605 20.4062C26.6743 19.018 26.9942 17.5178 27 16C27 13.0826 25.8411 10.2847 23.7782 8.22183C21.7153 6.15893 18.9174 5 16 5C14.1256 5.00451 12.2835 5.4879 10.6484 6.4043L9.91602 5.67188Z" fill="url(#paint0_linear_10_18326)"/>
<defs>
<linearGradient id="paint0_linear_10_18326" x1="4" y1="16" x2="28" y2="16" gradientUnits="userSpaceOnUse">
<stop stop-color="#FDFC47"/>
<stop offset="1" stop-color="#24FE41"/>
</linearGradient>
</defs>
</svg>
