<svg width="32" height="32" viewBox="0 0 32 32" fill="none" xmlns="http://www.w3.org/2000/svg">
<path d="M16 4C14.4241 4 12.8637 4.31039 11.4078 4.91345C9.95189 5.5165 8.62902 6.40042 7.51472 7.51472C6.40042 8.62902 5.5165 9.95189 4.91345 11.4078C4.31039 12.8637 4 14.4241 4 16C4 19.1826 5.26428 22.2348 7.51472 24.4853C9.76516 26.7357 12.8174 28 16 28C19.1826 28 22.2348 26.7357 24.4853 24.4853C26.7357 22.2348 28 19.1826 28 16C28 14.4241 27.6896 12.8637 27.0866 11.4078C26.4835 9.95189 25.5996 8.62902 24.4853 7.51472C23.371 6.40042 22.0481 5.5165 20.5922 4.91345C19.1363 4.31039 17.5759 4 16 4ZM16 5C17.4445 5 18.8749 5.28452 20.2095 5.83733C21.5441 6.39013 22.7567 7.20038 23.7782 8.22183C24.7996 9.24327 25.6099 10.4559 26.1627 11.7905C26.7155 13.1251 27 14.5555 27 16C27 18.9174 25.8411 21.7153 23.7782 23.7782C21.7153 25.8411 18.9174 27 16 27C13.0826 27 10.2847 25.8411 8.22183 23.7782C6.15893 21.7153 5 18.9174 5 16C5 14.5555 5.28452 13.1251 5.83733 11.7905C6.39013 10.4559 7.20038 9.24327 8.22183 8.22183C9.24327 7.20038 10.4559 6.39013 11.7905 5.83733C13.1251 5.28452 14.5555 5 16 5ZM19.2695 8L11 16L19.2695 24L20 23.293L12.4609 16L20 8.70703L19.2695 8Z" fill="url(#paint0_linear_10_18324)"/>
<defs>
<linearGradient id="paint0_linear_10_18324" x1="4" y1="16" x2="28" y2="16" gradientUnits="userSpaceOnUse">
<stop stop-color="#FDFC47"/>
<stop offset="1" stop-color="#24FE41"/>
</linearGradient>
</defs>
</svg>
