<svg width="32" height="32" viewBox="0 0 32 32" fill="none" xmlns="http://www.w3.org/2000/svg">
<path d="M9.79 5.242L8.922 5.742L11.068 9.459L7.453 8.49L7.195 9.457L11.775 10.684L14.844 16H8.707L5.354 12.646L4.646 13.354L7.293 16H3V17H7.293L4.646 19.646L5.354 20.354L8.707 17H14.844L11.775 22.316L7.195 23.543L7.453 24.51L11.068 23.541L8.922 27.258L9.789 27.758L11.936 24.041L12.904 27.656L13.869 27.396L12.643 22.816L16 17L19.357 22.816L18.131 27.396L19.096 27.656L20.064 24.041L22.211 27.758L23.078 27.258L20.932 23.541L24.547 24.51L24.805 23.543L20.225 22.316L17.156 17H23.293L26.646 20.354L27.354 19.646L24.707 17H29V16H24.707L27.354 13.354L26.646 12.646L23.293 16H16V15.998L12.643 10.184L13.869 5.604L12.904 5.344L11.936 8.959L9.79 5.242ZM23 4V5H25.293L23.293 7L23 7.293V8H27V7H24.707L26.707 5L27 4.707V4H26.293H23Z" fill="url(#paint0_linear_10_18332)"/>
<path d="M20 10V11H22.293L20.293 13L20 13.293V14H24V13H21.707L23.707 11L24 10.707V10H23.293H20ZM16 5V6H18.293L16.293 8L16 8.293V9H20V8H17.707L19.707 6L20 5.707V5H19.293H16Z" fill="url(#paint1_linear_10_18332)"/>
<defs>
<linearGradient id="paint0_linear_10_18332" x1="3" y1="15.879" x2="29" y2="15.879" gradientUnits="userSpaceOnUse">
<stop stop-color="#FDFC47"/>
<stop offset="1" stop-color="#24FE41"/>
</linearGradient>
<linearGradient id="paint1_linear_10_18332" x1="16" y1="9.5" x2="24" y2="9.5" gradientUnits="userSpaceOnUse">
<stop stop-color="#FDFC47"/>
<stop offset="1" stop-color="#24FE41"/>
</linearGradient>
</defs>
</svg>
