<svg width="32" height="32" viewBox="0 0 32 32" fill="none" xmlns="http://www.w3.org/2000/svg">
<path opacity="0.5" d="M6 3V4H26V3H6ZM6 5V6H26V5H6ZM6 7V8H26V7H6ZM6 9V10H26V9H6ZM8 11V12H26V11H8ZM6 23V24H24V23H6ZM6 25V26H26V25H6ZM6 27V28H26V27H6ZM6 29V30H26V29H6Z" fill="url(#paint0_linear_10_18358)"/>
<path d="M8 15V16H24V15H8ZM8 17V18H24V17H8ZM8 19V20H24V19H8Z" fill="url(#paint1_linear_10_18358)"/>
<path d="M6 11V13H4V14H6V22H25V24H26V22H28V21H26V13H7V11H6ZM7 14H25V21H7V14Z" fill="url(#paint2_linear_10_18358)"/>
<defs>
<linearGradient id="paint0_linear_10_18358" x1="6" y1="16.5" x2="26" y2="16.5" gradientUnits="userSpaceOnUse">
<stop stop-color="#FDFC47"/>
<stop offset="1" stop-color="#24FE41"/>
</linearGradient>
<linearGradient id="paint1_linear_10_18358" x1="8" y1="17.5" x2="24" y2="17.5" gradientUnits="userSpaceOnUse">
<stop stop-color="#FDFC47"/>
<stop offset="1" stop-color="#24FE41"/>
</linearGradient>
<linearGradient id="paint2_linear_10_18358" x1="4" y1="17.5" x2="28" y2="17.5" gradientUnits="userSpaceOnUse">
<stop stop-color="#FDFC47"/>
<stop offset="1" stop-color="#24FE41"/>
</linearGradient>
</defs>
</svg>
