<svg width="32" height="32" viewBox="0 0 32 32" fill="none" xmlns="http://www.w3.org/2000/svg">
<path d="M4 27V26H9V27H4Z" fill="url(#paint0_linear_10_18417)"/>
<path d="M4 15V14H17V15H4Z" fill="url(#paint1_linear_10_18417)"/>
<path d="M4 12V11H19V12H4Z" fill="url(#paint2_linear_10_18417)"/>
<path d="M4 5V6.00002H23V5H4Z" fill="url(#paint3_linear_10_18417)"/>
<path d="M4 8V9.00002H21V8H4Z" fill="url(#paint4_linear_10_18417)"/>
<path d="M24 18V26.0859L21.707 23.7931L21 24.5001L24.5 28L28 24.5001L27.293 23.7931L25 26.0859V18H24Z" fill="url(#paint5_linear_10_18417)"/>
<path d="M4 17.9999V17H15V17.9999H4Z" fill="url(#paint6_linear_10_18417)"/>
<path d="M4 21V20H13V21H4Z" fill="url(#paint7_linear_10_18417)"/>
<path d="M4 24V23H11V24H4Z" fill="url(#paint8_linear_10_18417)"/>
<defs>
<linearGradient id="paint0_linear_10_18417" x1="4" y1="26.5" x2="9" y2="26.5" gradientUnits="userSpaceOnUse">
<stop stop-color="#FDFC47"/>
<stop offset="1" stop-color="#24FE41"/>
</linearGradient>
<linearGradient id="paint1_linear_10_18417" x1="4" y1="14.5" x2="17" y2="14.5" gradientUnits="userSpaceOnUse">
<stop stop-color="#FDFC47"/>
<stop offset="1" stop-color="#24FE41"/>
</linearGradient>
<linearGradient id="paint2_linear_10_18417" x1="4" y1="11.5" x2="19" y2="11.5" gradientUnits="userSpaceOnUse">
<stop stop-color="#FDFC47"/>
<stop offset="1" stop-color="#24FE41"/>
</linearGradient>
<linearGradient id="paint3_linear_10_18417" x1="4" y1="5.50001" x2="23" y2="5.50001" gradientUnits="userSpaceOnUse">
<stop stop-color="#FDFC47"/>
<stop offset="1" stop-color="#24FE41"/>
</linearGradient>
<linearGradient id="paint4_linear_10_18417" x1="4" y1="8.50001" x2="21" y2="8.50001" gradientUnits="userSpaceOnUse">
<stop stop-color="#FDFC47"/>
<stop offset="1" stop-color="#24FE41"/>
</linearGradient>
<linearGradient id="paint5_linear_10_18417" x1="21" y1="23" x2="28" y2="23" gradientUnits="userSpaceOnUse">
<stop stop-color="#FDFC47"/>
<stop offset="1" stop-color="#24FE41"/>
</linearGradient>
<linearGradient id="paint6_linear_10_18417" x1="4" y1="17.4999" x2="15" y2="17.4999" gradientUnits="userSpaceOnUse">
<stop stop-color="#FDFC47"/>
<stop offset="1" stop-color="#24FE41"/>
</linearGradient>
<linearGradient id="paint7_linear_10_18417" x1="4" y1="20.5" x2="13" y2="20.5" gradientUnits="userSpaceOnUse">
<stop stop-color="#FDFC47"/>
<stop offset="1" stop-color="#24FE41"/>
</linearGradient>
<linearGradient id="paint8_linear_10_18417" x1="4" y1="23.5" x2="11" y2="23.5" gradientUnits="userSpaceOnUse">
<stop stop-color="#FDFC47"/>
<stop offset="1" stop-color="#24FE41"/>
</linearGradient>
</defs>
</svg>
