<svg width="32" height="32" viewBox="0 0 32 32" fill="none" xmlns="http://www.w3.org/2000/svg">
<path d="M4 4V28H28V4H4ZM5 5H27V27H5V5ZM11 7C9.93913 7 8.92172 7.42143 8.17157 8.17157C7.42143 8.92172 7 9.93913 7 11C7 12.0609 7.42143 13.0783 8.17157 13.8284C8.92172 14.5786 9.93913 15 11 15C12.0609 15 13.0783 14.5786 13.8284 13.8284C14.5786 13.0783 15 12.0609 15 11C15 9.93913 14.5786 8.92172 13.8284 8.17157C13.0783 7.42143 12.0609 7 11 7ZM11 8C11.7956 8 12.5587 8.31607 13.1213 8.87868C13.6839 9.44129 14 10.2044 14 11C14 11.7956 13.6839 12.5587 13.1213 13.1213C12.5587 13.6839 11.7956 14 11 14C10.2044 14 9.44129 13.6839 8.87868 13.1213C8.31607 12.5587 8 11.7956 8 11C8 10.2044 8.31607 9.44129 8.87868 8.87868C9.44129 8.31607 10.2044 8 11 8ZM20.5 14.793L15.5 19.793L13.5 17.793L7 24.293L7.707 25L13.5 19.207L15.5 21.207L20.5 16.207L24.293 20L25 19.293L20.5 14.793Z" fill="url(#paint0_linear_10_18393)"/>
<defs>
<linearGradient id="paint0_linear_10_18393" x1="4" y1="16" x2="28" y2="16" gradientUnits="userSpaceOnUse">
<stop stop-color="#FDFC47"/>
<stop offset="1" stop-color="#24FE41"/>
</linearGradient>
</defs>
</svg>
