<svg width="32" height="32" viewBox="0 0 32 32" fill="none" xmlns="http://www.w3.org/2000/svg">
<path d="M16 4C12.8174 4 9.76516 5.26428 7.51472 7.51472C5.26428 9.76516 4 12.8174 4 16C4 19.1826 5.26428 22.2348 7.51472 24.4853C9.76516 26.7357 12.8174 28 16 28C19.1826 28 22.2348 26.7357 24.4853 24.4853C26.7357 22.2348 28 19.1826 28 16C28 12.8174 26.7357 9.76516 24.4853 7.51472C22.2348 5.26428 19.1826 4 16 4ZM10.707 10L16 15.293L21.293 10C21.293 10 22.02 10.716 22 10.707L16.707 16L22 21.293C22 21.293 21.299 21.999 21.293 22L16 16.707L10.707 22C10.708 21.995 10 21.293 10 21.293L15.293 16L10 10.707C10.02 10.708 10.707 10 10.707 10Z" fill="url(#paint0_linear_10_18440)"/>
<defs>
<linearGradient id="paint0_linear_10_18440" x1="4" y1="16" x2="28" y2="16" gradientUnits="userSpaceOnUse">
<stop stop-color="#FDFC47"/>
<stop offset="1" stop-color="#24FE41"/>
</linearGradient>
</defs>
</svg>
