<svg width="32" height="32" viewBox="0 0 32 32" fill="none" xmlns="http://www.w3.org/2000/svg">
<path d="M4 4V9H5V5H9V4H4ZM11 4V5H15V4H11ZM17 4V5H21V4H17ZM23 4V5H27V9H28V5V4H27H23ZM14.9297 10V11H20.293L12.4531 18.8379L13.1621 19.5469L21 11.707V17.0703H22V11.4141V10H14.9297ZM4 11V15H5V11H4ZM27 11V15H28V11H27ZM4 17V20H5V17H4ZM27 17V21H28V17H27ZM4 21V23V28H9H11V21H4ZM5 22H10V27H9H5V23V22ZM27 23V27H23V28H28V23H27ZM12 27V28H15V27H12ZM17 27V28H21V27H17Z" fill="url(#paint0_linear_10_18452)"/>
<defs>
<linearGradient id="paint0_linear_10_18452" x1="4" y1="16" x2="28" y2="16" gradientUnits="userSpaceOnUse">
<stop stop-color="#FDFC47"/>
<stop offset="1" stop-color="#24FE41"/>
</linearGradient>
</defs>
</svg>
