<svg width="64" height="64" viewBox="0 0 64 64" fill="none" xmlns="http://www.w3.org/2000/svg">
<path opacity="0.887" d="M59.661 2.84598H4.34091C2.80981 2.84598 1.5686 4.06799 1.5686 5.57543V50.2298C1.5686 51.7372 2.80981 52.9592 4.34091 52.9592H59.661C61.1921 52.9592 62.4333 51.7372 62.4333 50.2298V5.57543C62.4333 4.06799 61.1921 2.84598 59.661 2.84598Z" fill="#232323"/>
<path d="M59.661 2.84598H4.34091C2.80981 2.84598 1.5686 4.06799 1.5686 5.57543V50.2298C1.5686 51.7372 2.80981 52.9592 4.34091 52.9592H59.661C61.1921 52.9592 62.4333 51.7372 62.4333 50.2298V5.57543C62.4333 4.06799 61.1921 2.84598 59.661 2.84598Z" fill="#232323"/>
<path d="M59.661 2.84598H4.34091C2.80981 2.84598 1.5686 4.06799 1.5686 5.57543V50.2298C1.5686 51.7372 2.80981 52.9592 4.34091 52.9592H59.661C61.1921 52.9592 62.4333 51.7372 62.4333 50.2298V5.57543C62.4333 4.06799 61.1921 2.84598 59.661 2.84598Z" fill="#232323"/>
<path d="M4.34086 2.84558C2.805 2.84558 1.56836 4.06315 1.56836 5.57522V42.0521H62.4331V5.57522C62.4331 4.0631 61.1964 2.84558 59.6606 2.84558H4.34086Z" fill="#232323"/>
<path d="M4.09619 4.56906H59.6677V39.9202H4.09619V4.56906Z" fill="url(#paint0_linear_9_6511)"/>
<path d="M1.56836 49.7202V50.2295C1.56836 51.7417 2.80504 52.9592 4.34086 52.9592H59.6578C61.1936 52.9592 62.4303 51.7416 62.4303 50.2295V49.7202C62.4303 51.2323 61.1936 52.4498 59.6578 52.4498H4.34086C2.805 52.4498 1.56836 51.2322 1.56836 49.7202Z" fill="#232323"/>
<path d="M39.6171 53.3195C39.5739 55.103 39.1537 57.0903 42.0412 58.7835C44.3459 60.194 40.7625 60.2909 39.8722 60.2909H37.0972H24.132C23.2418 60.2909 19.6584 60.194 21.9631 58.7835C24.8507 57.0901 24.4304 55.1028 24.3872 53.3195H39.6171Z" fill="#232323"/>
<path d="M39.617 52.606C39.5738 54.3895 39.1536 56.3768 42.0411 58.07C44.3458 59.4805 40.7624 59.5773 39.8721 59.5773C34.7346 59.8004 29.51 59.9448 24.132 59.5773C23.2418 59.5773 19.6584 59.4805 21.9631 58.07C24.8507 56.3766 24.4304 54.3893 24.3872 52.606H39.617Z" fill="#232323"/>
<path d="M39.6171 52.606C39.5739 54.3895 39.1537 56.3768 42.0412 58.07C44.3459 59.4805 40.7625 59.5773 39.8722 59.5773H37.0972H24.132C23.2418 59.5773 19.6584 59.4805 21.9631 58.07C24.8507 56.3766 24.4304 54.3893 24.3872 52.606H39.6171Z" fill="#232323"/>
<path d="M39.6171 52.606C39.5739 54.3895 39.1537 56.3768 42.0412 58.07C44.3459 59.4805 40.7625 59.5773 39.8722 59.5773H37.0972H24.132C23.2418 59.5773 19.6584 59.4805 21.9631 58.07C24.8507 56.3766 24.4304 54.3893 24.3872 52.606H39.6171Z" fill="#232323"/>
<path opacity="0.887" d="M31.7581 59.5778C36.0211 59.5778 39.4771 59.4091 39.4771 59.201C39.4771 58.9928 36.0211 58.8241 31.7581 58.8241C27.495 58.8241 24.0391 58.9928 24.0391 59.201C24.0391 59.4091 27.495 59.5778 31.7581 59.5778Z" fill="#232323"/>
<path d="M39.6171 52.606C39.5739 54.3895 39.1537 56.3768 42.0412 58.07C44.3459 59.4805 40.7625 59.5773 39.8722 59.5773H37.0972H24.132C23.2418 59.5773 19.6584 59.4805 21.9631 58.07C24.8507 56.3766 24.4304 54.3893 24.3872 52.606H39.6171Z" fill="#232323"/>
<path d="M34.0908 48.2209C34.0124 48.3991 33.9197 48.5631 33.8122 48.7139C33.6657 48.9196 33.5458 49.0619 33.4534 49.1409C33.3101 49.2707 33.1566 49.3371 32.9922 49.3409C32.8741 49.3409 32.7318 49.3078 32.5662 49.2407C32.3999 49.174 32.2472 49.1409 32.1075 49.1409C31.961 49.1409 31.8039 49.174 31.6359 49.2407C31.4676 49.3078 31.332 49.3428 31.2284 49.3462C31.0707 49.3528 30.9136 49.2845 30.7568 49.1409C30.6566 49.055 30.5314 48.9076 30.3814 48.6988C30.2205 48.4759 30.0882 48.2174 29.9845 47.9227C29.8735 47.6043 29.8179 47.296 29.8179 46.9976C29.8179 46.6557 29.8929 46.3609 30.0432 46.1138C30.1613 45.9153 30.3184 45.7587 30.5151 45.6438C30.7118 45.5289 30.9242 45.4703 31.1531 45.4666C31.2783 45.4666 31.4425 45.5047 31.6465 45.5796C31.85 45.6548 31.9807 45.693 32.038 45.693C32.0808 45.693 32.2259 45.6484 32.472 45.5595C32.7046 45.477 32.901 45.4429 33.0619 45.4564C33.4978 45.491 33.8253 45.6602 34.0431 45.965C33.6533 46.1976 33.4604 46.5233 33.4643 46.9412C33.4677 47.2667 33.5877 47.5375 33.8234 47.7526C33.9302 47.8524 34.0495 47.9296 34.1823 47.9844C34.1535 48.0665 34.1231 48.1453 34.0908 48.2209ZM33.091 44.3475C33.091 44.6026 32.9963 44.8408 32.8076 45.0612C32.5799 45.3234 32.3044 45.4748 32.0058 45.4509C32.0018 45.4203 31.9997 45.3881 31.9997 45.3542C31.9997 45.1093 32.108 44.8472 32.3003 44.6329C32.3963 44.5244 32.5185 44.4342 32.6665 44.3622C32.8143 44.2913 32.9541 44.2521 33.0855 44.2454C33.0894 44.2795 33.091 44.3136 33.091 44.3475Z" fill="url(#paint1_linear_9_6511)"/>
<path d="M4.09619 4.56857V39.9202H59.6677V4.56857H4.09619ZM4.36684 4.81338H59.4438V39.6979H4.36684V4.81338Z" fill="black" fill-opacity="0.21198"/>
<path d="M4.09603 5.48347H4.04603V5.53347V39.92V39.97H4.09603H59.6675H59.7175V39.92V5.53347V5.48347H59.6675H4.09603ZM1.61836 5.6954C1.61836 4.21167 2.83187 3.01576 4.34086 3.01576H59.6606C61.1696 3.01576 62.3831 4.21162 62.3831 5.6954V42.0017H1.61836V5.6954Z" fill="#232323" stroke="url(#paint2_linear_9_6511)" stroke-width="0.1"/>
<defs>
<linearGradient id="paint0_linear_9_6511" x1="4.09619" y1="22.2446" x2="59.6677" y2="22.2446" gradientUnits="userSpaceOnUse">
<stop stop-color="#FDFC47"/>
<stop offset="1" stop-color="#24FE41"/>
</linearGradient>
<linearGradient id="paint1_linear_9_6511" x1="29.8179" y1="46.796" x2="34.1823" y2="46.796" gradientUnits="userSpaceOnUse">
<stop stop-color="#FDFC47"/>
<stop offset="1" stop-color="#24FE41"/>
</linearGradient>
<linearGradient id="paint2_linear_9_6511" x1="1.56836" y1="22.5087" x2="62.4331" y2="22.5087" gradientUnits="userSpaceOnUse">
<stop stop-color="#FDFC47"/>
<stop offset="1" stop-color="#24FE41"/>
</linearGradient>
</defs>
</svg>
