<svg width="64" height="64" viewBox="0 0 64 64" fill="none" xmlns="http://www.w3.org/2000/svg">
<path d="M31.999 21.615C29.245 21.615 26.6038 22.709 24.6564 24.6564C22.709 26.6038 21.615 29.245 21.615 31.999C21.615 34.753 22.709 37.3942 24.6564 39.3416C26.6038 41.289 29.245 42.383 31.999 42.383C34.753 42.383 37.3942 41.289 39.3416 39.3416C41.289 37.3942 42.383 34.753 42.383 31.999C42.383 29.245 41.289 26.6038 39.3416 24.6564C37.3942 22.709 34.753 21.615 31.999 21.615ZM31.999 28.5378C33.9166 28.5378 35.4604 30.0816 35.4604 31.9992C35.4604 33.9168 33.9166 35.4606 31.999 35.4606C30.0814 35.4606 28.5376 33.9168 28.5376 31.9992C28.5376 30.0816 30.0814 28.5378 31.999 28.5378Z" fill="url(#paint0_linear_9_7028)"/>
<path d="M32.001 60.844V37.768C33.531 37.768 34.9984 37.1602 36.0803 36.0783C37.1622 34.9964 37.77 33.529 37.77 31.999H61.997C61.997 48.618 48.619 60.844 32.001 60.844Z" fill="url(#paint1_linear_9_7028)"/>
<path d="M31.996 60.844V37.768C30.466 37.768 28.9986 37.1602 27.9167 36.0783C26.8348 34.9964 26.227 33.529 26.227 31.999H2C2 48.618 15.378 60.844 31.996 60.844Z" fill="url(#paint2_linear_9_7028)"/>
<g opacity="0.1" filter="url(#filter0_f_9_7028)">
<path d="M2 31.9988L27.3836 57.3824L31.9965 53.9233V46.6809L24.6572 39.3404L24.6618 39.3358C22.7137 37.3907 21.6176 34.7517 21.6146 31.9988H2Z" fill="url(#paint3_linear_9_7028)"/>
</g>
<path d="M31.9989 2V26.23C30.4689 26.23 29.0015 26.8378 27.9196 27.9197C26.8377 29.0016 26.2299 30.469 26.2299 31.999H2.00293C2.00293 15.38 15.3809 2 31.9989 2Z" fill="url(#paint4_linear_9_7028)"/>
<path d="M2.00232 31.065C1.99655 31.3165 2.00232 31.5681 2.00232 31.8207C2.00232 45.1047 10.4527 56.3237 22.2623 60.3747L23.3884 59.5544C11.2204 55.8288 2.32742 44.4354 2.00242 31.0634L2.00232 31.065Z" fill="#232323"/>
<path d="M31.999 2V26.23C33.5291 26.23 34.9964 26.8378 36.0783 27.9197C37.1602 29.0016 37.768 30.469 37.768 31.999H61.995C61.995 15.38 48.617 2 31.999 2Z" fill="url(#paint5_linear_9_7028)"/>
<path d="M28.1209 22.6364C29.3504 22.1271 30.6682 21.865 31.999 21.865C34.6867 21.865 37.2643 22.9327 39.1648 24.8332C41.0653 26.7337 42.133 29.3113 42.133 31.999C42.133 34.6867 41.0653 37.2643 39.1648 39.1648C37.2643 41.0653 34.6867 42.133 31.999 42.133C30.6682 42.133 29.3504 41.8709 28.1209 41.3616C26.8914 40.8523 25.7742 40.1058 24.8332 39.1648C23.8921 38.2238 23.1457 37.1066 22.6364 35.8771C22.1271 34.6476 21.865 33.3298 21.865 31.999C21.865 30.6682 22.1271 29.3504 22.6364 28.1209C23.1457 26.8914 23.8921 25.7742 24.8332 24.8332C25.7742 23.8921 26.8914 23.1457 28.1209 22.6364ZM34.3024 26.4384C33.5721 26.1359 32.7894 25.9802 31.999 25.9802C30.4027 25.9802 28.8717 26.6143 27.7429 27.7431C26.6141 28.8719 25.98 30.4029 25.98 31.9992C25.98 33.5955 26.6141 35.1265 27.7429 36.2553C28.8717 37.384 30.4027 38.0182 31.999 38.0182C32.7894 38.0182 33.5721 37.8625 34.3024 37.56C35.0326 37.2575 35.6962 36.8142 36.2551 36.2553C36.814 35.6964 37.2573 35.0328 37.5598 34.3026C37.8623 33.5723 38.018 32.7896 38.018 31.9992C38.018 31.2088 37.8623 30.4261 37.5598 29.6958C37.2573 28.9656 36.814 28.302 36.2551 27.7431C35.6962 27.1842 35.0326 26.7408 34.3024 26.4384Z" fill="#232323" stroke="url(#paint6_linear_9_7028)" stroke-width="0.5"/>
<path opacity="0.4" d="M37.768 27.384C37.462 27.384 37.1685 27.2624 36.9521 27.0461C36.7357 26.8297 36.6142 26.5362 36.6142 26.2302C36.6142 25.9242 36.7357 25.6307 36.9521 25.4143C37.1685 25.198 37.462 25.0764 37.768 25.0764C38.074 25.0764 38.3675 25.198 38.5838 25.4143C38.8002 25.6307 38.9218 25.9242 38.9218 26.2302C38.9218 26.5362 38.8002 26.8297 38.5838 27.0461C38.3675 27.2624 38.074 27.384 37.768 27.384ZM26.23 38.922C25.924 38.922 25.6305 38.8004 25.4141 38.5841C25.1977 38.3677 25.0762 38.0742 25.0762 37.7682C25.0762 37.4622 25.1977 37.1687 25.4141 36.9523C25.6305 36.736 25.924 36.6144 26.23 36.6144C26.536 36.6144 26.8295 36.736 27.0458 36.9523C27.2622 37.1687 27.3838 37.4622 27.3838 37.7682C27.3838 38.0742 27.2622 38.3677 27.0458 38.5841C26.8295 38.8004 26.536 38.922 26.23 38.922ZM27.3838 26.23C27.3838 26.536 27.2622 26.8295 27.0458 27.0459C26.8295 27.2622 26.536 27.3838 26.23 27.3838C25.924 27.3838 25.6305 27.2622 25.4141 27.0459C25.1977 26.8295 25.0762 26.536 25.0762 26.23C25.0762 25.924 25.1977 25.6305 25.4141 25.4141C25.6305 25.1978 25.924 25.0762 26.23 25.0762C26.536 25.0762 26.8295 25.1978 27.0458 25.4141C27.2622 25.6305 27.3838 25.924 27.3838 26.23ZM38.9218 37.768C38.9218 38.074 38.8002 38.3675 38.5838 38.5839C38.3675 38.8002 38.074 38.9218 37.768 38.9218C37.462 38.9218 37.1685 38.8002 36.9521 38.5839C36.7357 38.3675 36.6142 38.074 36.6142 37.768C36.6142 37.462 36.7357 37.1685 36.9521 36.9521C37.1685 36.7358 37.462 36.6142 37.768 36.6142C38.074 36.6142 38.3675 36.7358 38.5838 36.9521C38.8002 37.1685 38.9218 37.462 38.9218 37.768Z" fill="#292C2F"/>
<path d="M31.999 27.384C30.775 27.384 29.6011 27.8702 28.7355 28.7358C27.87 29.6013 27.3838 30.7752 27.3838 31.9992C27.3838 33.2232 27.87 34.3971 28.7355 35.2626C29.6011 36.1282 30.775 36.6144 31.999 36.6144C33.223 36.6144 34.3969 36.1282 35.2624 35.2626C36.1279 34.3971 36.6142 33.2232 36.6142 31.9992C36.6142 30.7752 36.1279 29.6013 35.2624 28.7358C34.3969 27.8702 33.223 27.384 31.999 27.384ZM31.999 28.5378C32.917 28.5378 33.7974 28.9025 34.4466 29.5516C35.0957 30.2008 35.4604 31.0812 35.4604 31.9992C35.4604 32.9172 35.0957 33.7976 34.4466 34.4468C33.7974 35.0959 32.917 35.4606 31.999 35.4606C31.081 35.4606 30.2005 35.0959 29.5514 34.4468C28.9023 33.7976 28.5376 32.9172 28.5376 31.9992C28.5376 31.0812 28.9023 30.2008 29.5514 29.5516C30.2005 28.9025 31.081 28.5378 31.999 28.5378Z" fill="url(#paint7_linear_9_7028)"/>
<path d="M33.153 23.922C33.153 24.228 33.0314 24.5215 32.8151 24.7378C32.5987 24.9542 32.3052 25.0758 31.9992 25.0758C31.6932 25.0758 31.3997 24.9542 31.1833 24.7378C30.967 24.5215 30.8454 24.228 30.8454 23.922C30.8454 23.616 30.967 23.3225 31.1833 23.1061C31.3997 22.8897 31.6932 22.7682 31.9992 22.7682C32.3052 22.7682 32.5987 22.8897 32.8151 23.1061C33.0314 23.3225 33.153 23.616 33.153 23.922ZM41.2296 31.9986C41.2296 32.3046 41.108 32.5981 40.8917 32.8144C40.6753 33.0308 40.3818 33.1524 40.0758 33.1524C39.7698 33.1524 39.4763 33.0308 39.2599 32.8144C39.0436 32.5981 38.922 32.3046 38.922 31.9986C38.922 31.6926 39.0436 31.3991 39.2599 31.1827C39.4763 30.9663 39.7698 30.8448 40.0758 30.8448C40.3818 30.8448 40.6753 30.9663 40.8917 31.1827C41.108 31.3991 41.2296 31.6926 41.2296 31.9986ZM33.153 40.0752C33.153 40.3812 33.0314 40.6747 32.8151 40.891C32.5987 41.1074 32.3052 41.229 31.9992 41.229C31.6932 41.229 31.3997 41.1074 31.1833 40.891C30.967 40.6747 30.8454 40.3812 30.8454 40.0752C30.8454 39.7692 30.967 39.4757 31.1833 39.2593C31.3997 39.0429 31.6932 38.9214 31.9992 38.9214C32.3052 38.9214 32.5987 39.0429 32.8151 39.2593C33.0314 39.4757 33.153 39.7692 33.153 40.0752ZM25.0764 31.9986C25.0764 32.3046 24.9548 32.5981 24.7385 32.8144C24.5221 33.0308 24.2286 33.1524 23.9226 33.1524C23.6166 33.1524 23.3231 33.0308 23.1067 32.8144C22.8904 32.5981 22.7688 32.3046 22.7688 31.9986C22.7688 31.6926 22.8904 31.3991 23.1067 31.1827C23.3231 30.9663 23.6166 30.8448 23.9226 30.8448C24.2286 30.8448 24.5221 30.9663 24.7385 31.1827C24.9548 31.3991 25.0764 31.6926 25.0764 31.9986Z" fill="#4D4D4D"/>
<path d="M42.359 32.488C42.2334 35.1522 41.0874 37.666 39.1586 39.5082C37.2299 41.3504 34.6662 42.3798 31.999 42.383C29.3605 42.3823 26.8211 41.3772 24.8969 39.5719C22.9726 37.7666 21.8078 35.2965 21.639 32.6634C21.6271 32.8263 21.619 32.9894 21.6147 33.1526C21.6147 34.5163 21.8833 35.8666 22.4052 37.1264C22.927 38.3862 23.6919 39.531 24.6561 40.4952C26.6035 42.4426 29.2447 43.5366 31.9987 43.5366C33.3624 43.5366 34.7127 43.268 35.9725 42.7462C37.2324 42.2243 38.3771 41.4595 39.3413 40.4952C40.3056 39.531 41.0705 38.3862 41.5923 37.1264C42.1142 35.8666 42.3827 34.5163 42.3827 33.1526C42.3818 32.9309 42.3741 32.7092 42.359 32.488Z" fill="#7F8C8D"/>
<g opacity="0.3" filter="url(#filter1_f_9_7028)">
<path d="M42.3831 31.9988C42.3831 34.7529 41.289 37.3941 39.3416 39.3415C37.3942 41.289 34.7529 42.383 31.9989 42.383C29.2457 42.3806 26.6062 41.285 24.6607 39.337L24.6572 39.3404L35.6183 50.3015L37.7679 48.152L38.9217 45.8444L48.1521 41.2292L56.3844 49.4616C57.4932 47.9245 58.4536 46.2857 59.2528 44.5672L46.6833 31.9988H42.3831ZM56.1906 49.7546C56.0914 49.8885 55.9864 50.0177 55.886 50.1504C55.9886 50.0193 56.0901 49.8874 56.1906 49.7546ZM54.2234 52.1719C54.1622 52.2388 54.0964 52.3022 54.0364 52.368C54.099 52.3029 54.1613 52.2375 54.2234 52.1719ZM47.3755 57.7666C47.2486 57.8428 47.1194 57.9166 46.9902 57.9893C47.1192 57.916 47.2476 57.8418 47.3755 57.7666ZM44.6399 59.2181L44.5637 59.2527L44.5684 59.2562C44.5922 59.2435 44.6161 59.2308 44.6399 59.2181Z" fill="url(#paint8_linear_9_7028)"/>
</g>
<g opacity="0.2" filter="url(#filter2_f_9_7028)">
<path d="M42.3831 31.9988H46.6833L39.449 24.7645C41.3307 26.7025 42.3832 29.2975 42.3831 31.9988Z" fill="url(#paint9_linear_9_7028)"/>
</g>
<path opacity="0.2" d="M48.152 41.229L38.9216 45.8442L37.7678 48.1518L34.3064 51.6132L22.2524 60.3821C25.3065 61.424 28.5821 61.9974 31.9985 61.9974C32.2501 61.9974 32.497 61.9859 32.7462 61.9789L37.7675 55.0746L41.2289 51.6132L43.5365 50.4594L48.152 41.229Z" fill="#292C2F"/>
<g opacity="0.2" filter="url(#filter3_f_9_7028)">
<path d="M48.1521 41.2292L43.5369 50.4596L41.2293 51.6134L37.7679 55.0748L32.7466 61.9791C37.3893 61.8755 41.9441 60.6916 46.0497 58.5214C50.1553 56.3513 53.6989 53.2545 56.3995 49.4765L48.1521 41.2292Z" fill="url(#paint10_linear_9_7028)"/>
</g>
<path d="M31.999 35.4604C33.9107 35.4604 35.4604 33.9107 35.4604 31.999C35.4604 30.0873 33.9107 28.5376 31.999 28.5376C30.0873 28.5376 28.5376 30.0873 28.5376 31.999C28.5376 33.9107 30.0873 35.4604 31.999 35.4604Z" fill="url(#paint11_linear_9_7028)"/>
<g opacity="0.1" filter="url(#filter4_f_9_7028)">
<path d="M46.6763 31.9988L59.2331 44.5522C61.0539 40.6176 61.9972 36.3342 61.9976 31.9988H46.6763Z" fill="url(#paint12_linear_9_7028)"/>
</g>
<path d="M61.9952 31.065C61.6109 46.892 49.2222 59.955 33.6062 60.798L32.7466 61.9783C49.0156 61.5803 61.9956 48.2853 61.9956 31.8203C61.9956 31.5665 62.001 31.3165 61.9952 31.065Z" fill="#6E3E86"/>
<path d="M48.152 41.229L38.9216 45.8442L37.7678 48.1518L34.3064 51.6132L22.2524 60.3821C25.3065 61.424 28.5821 61.9974 31.9985 61.9974C32.2501 61.9974 32.497 61.9859 32.7462 61.9789L37.7675 55.0746L41.2289 51.6132L43.5365 50.4594L48.152 41.229ZM41.2292 46.5203L42.8607 48.1518L41.2292 49.7833L39.5977 48.1518L41.2292 46.5203ZM37.2901 50.4594L38.9216 52.0909L38.2455 52.767H36.614V51.1355L37.2901 50.4594ZM34.3064 53.9208C34.6124 53.9208 34.9059 54.0424 35.1223 54.2587C35.3387 54.4751 35.4602 54.7686 35.4602 55.0746C35.4602 55.3806 35.3387 55.6741 35.1223 55.8905C34.9059 56.1068 34.6124 56.2284 34.3064 56.2284C34.0004 56.2284 33.707 56.1068 33.4906 55.8905C33.2742 55.6741 33.1526 55.3806 33.1526 55.0746C33.1526 54.7686 33.2742 54.4751 33.4906 54.2587C33.707 54.0424 34.0004 53.9208 34.3064 53.9208ZM30.845 56.2284L33.1526 58.536L31.2442 60.8251C29.4933 60.7843 27.7496 60.5874 26.0336 60.2367L30.845 56.2284ZM26.1894 61.432C26.3002 61.4539 26.4121 61.4701 26.5229 61.4897C26.4121 61.4701 26.3002 61.4539 26.1883 61.432H26.1894Z" fill="url(#paint13_linear_9_7028)"/>
<path opacity="0.1" d="M36.614 51.136L30.845 56.2289L33.1526 58.5365L38.2455 52.7675H36.614V51.136ZM39.5977 48.1523L37.2901 50.4599L38.9216 52.0914L41.2292 49.7838L39.5977 48.1523ZM45.8444 43.5371L41.2292 46.5208L42.8607 48.1523L45.8444 43.5371Z" fill="#292C2F"/>
<defs>
<filter id="filter0_f_9_7028" x="0.691504" y="30.6903" width="32.6136" height="28.0006" filterUnits="userSpaceOnUse" color-interpolation-filters="sRGB">
<feFlood flood-opacity="0" result="BackgroundImageFix"/>
<feBlend mode="normal" in="SourceGraphic" in2="BackgroundImageFix" result="shape"/>
<feGaussianBlur stdDeviation="0.654248" result="effect1_foregroundBlur_9_7028"/>
</filter>
<filter id="filter1_f_9_7028" x="23.3487" y="30.6903" width="37.2125" height="29.8744" filterUnits="userSpaceOnUse" color-interpolation-filters="sRGB">
<feFlood flood-opacity="0" result="BackgroundImageFix"/>
<feBlend mode="normal" in="SourceGraphic" in2="BackgroundImageFix" result="shape"/>
<feGaussianBlur stdDeviation="0.654248" result="effect1_foregroundBlur_9_7028"/>
</filter>
<filter id="filter2_f_9_7028" x="39.2319" y="24.5474" width="7.66843" height="7.66837" filterUnits="userSpaceOnUse" color-interpolation-filters="sRGB">
<feFlood flood-opacity="0" result="BackgroundImageFix"/>
<feBlend mode="normal" in="SourceGraphic" in2="BackgroundImageFix" result="shape"/>
<feGaussianBlur stdDeviation="0.108515" result="effect1_foregroundBlur_9_7028"/>
</filter>
<filter id="filter3_f_9_7028" x="31.4381" y="39.9207" width="26.2698" height="23.3669" filterUnits="userSpaceOnUse" color-interpolation-filters="sRGB">
<feFlood flood-opacity="0" result="BackgroundImageFix"/>
<feBlend mode="normal" in="SourceGraphic" in2="BackgroundImageFix" result="shape"/>
<feGaussianBlur stdDeviation="0.654248" result="effect1_foregroundBlur_9_7028"/>
</filter>
<filter id="filter4_f_9_7028" x="46.2581" y="31.5807" width="16.1575" height="13.3896" filterUnits="userSpaceOnUse" color-interpolation-filters="sRGB">
<feFlood flood-opacity="0" result="BackgroundImageFix"/>
<feBlend mode="normal" in="SourceGraphic" in2="BackgroundImageFix" result="shape"/>
<feGaussianBlur stdDeviation="0.20906" result="effect1_foregroundBlur_9_7028"/>
</filter>
<linearGradient id="paint0_linear_9_7028" x1="1.99999" y1="61.9976" x2="1.99999" y2="1.99999" gradientUnits="userSpaceOnUse">
<stop stop-color="#98A7B0"/>
<stop offset="1" stop-color="#DDE1E3"/>
</linearGradient>
<linearGradient id="paint1_linear_9_7028" x1="31.9984" y1="61.9976" x2="31.9984" y2="31.9988" gradientUnits="userSpaceOnUse">
<stop stop-color="#8E44AD"/>
<stop offset="1" stop-color="#AF7AC4"/>
</linearGradient>
<linearGradient id="paint2_linear_9_7028" x1="2" y1="31.999" x2="17.0569" y2="67.2288" gradientUnits="userSpaceOnUse">
<stop stop-color="#FF0500"/>
<stop offset="1" stop-color="#FD3632"/>
</linearGradient>
<linearGradient id="paint3_linear_9_7028" x1="2" y1="31.9988" x2="16.9994" y2="46.9982" gradientUnits="userSpaceOnUse">
<stop stop-color="#292C2F"/>
<stop offset="1" stop-opacity="0"/>
</linearGradient>
<linearGradient id="paint4_linear_9_7028" x1="2.00293" y1="16.9995" x2="31.9989" y2="16.9995" gradientUnits="userSpaceOnUse">
<stop stop-color="#FDFC47"/>
<stop offset="1" stop-color="#24FE41"/>
</linearGradient>
<linearGradient id="paint5_linear_9_7028" x1="31.999" y1="16.9995" x2="61.995" y2="16.9995" gradientUnits="userSpaceOnUse">
<stop stop-color="#2193B0"/>
<stop offset="1" stop-color="#6DD5ED"/>
</linearGradient>
<linearGradient id="paint6_linear_9_7028" x1="21.615" y1="31.999" x2="42.383" y2="31.999" gradientUnits="userSpaceOnUse">
<stop stop-color="#FDFC47"/>
<stop offset="1" stop-color="#24FE41"/>
</linearGradient>
<linearGradient id="paint7_linear_9_7028" x1="31.9988" y1="36.614" x2="31.9988" y2="27.3836" gradientUnits="userSpaceOnUse">
<stop stop-color="#5C7274"/>
<stop offset="1" stop-color="#A4A4A4"/>
</linearGradient>
<linearGradient id="paint8_linear_9_7028" x1="25.0761" y1="25.076" x2="52.7673" y2="52.7672" gradientUnits="userSpaceOnUse">
<stop stop-color="#292C2F"/>
<stop offset="1" stop-opacity="0"/>
</linearGradient>
<linearGradient id="paint9_linear_9_7028" x1="24.6573" y1="42.0092" x2="61.9954" y2="42.0092" gradientUnits="userSpaceOnUse">
<stop stop-color="#292C2F"/>
<stop offset="1" stop-color="#292C2F" stop-opacity="0"/>
</linearGradient>
<linearGradient id="paint10_linear_9_7028" x1="48.1521" y1="41.2292" x2="56.3845" y2="49.4616" gradientUnits="userSpaceOnUse">
<stop stop-color="#292C2F"/>
<stop offset="1" stop-opacity="0"/>
</linearGradient>
<linearGradient id="paint11_linear_9_7028" x1="28.5376" y1="31.999" x2="35.4604" y2="31.999" gradientUnits="userSpaceOnUse">
<stop stop-color="#FDFC47"/>
<stop offset="1" stop-color="#24FE41"/>
</linearGradient>
<linearGradient id="paint12_linear_9_7028" x1="35.4625" y1="31.9988" x2="55.0771" y2="51.6134" gradientUnits="userSpaceOnUse">
<stop stop-color="#292C2F"/>
<stop offset="1" stop-opacity="0"/>
</linearGradient>
<linearGradient id="paint13_linear_9_7028" x1="22.2524" y1="51.6132" x2="48.152" y2="51.6132" gradientUnits="userSpaceOnUse">
<stop stop-color="#FDFC47"/>
<stop offset="1" stop-color="#24FE41"/>
</linearGradient>
</defs>
</svg>
