<svg width="64" height="64" viewBox="0 0 64 64" fill="none" xmlns="http://www.w3.org/2000/svg">
<g clip-path="url(#clip0_9_7502)">
<path opacity="0.01" d="M16.5142 2C8.52334 2 1.99976 8.74092 1.99976 16.9982V49.002C1.99976 57.2589 8.52334 64.0002 16.5142 64.0002H47.4857C55.4766 64.0002 62.0001 57.2593 62.0001 49.002V16.9982C62.0001 8.74129 55.4766 2 47.4857 2H16.5142ZM17.4857 3.96876H46.516C53.4868 3.96876 59.0987 9.76742 59.0987 16.9706V46.9685C59.0987 54.1717 53.4871 59.9703 46.516 59.9703H17.4857C10.515 59.9703 4.90302 54.1717 4.90302 46.9685V16.9706C4.90302 9.76742 10.5146 3.96876 17.4857 3.96876Z" fill="black"/>
<path opacity="0.01" d="M16.474 2.99997C9.0403 2.99997 3.00391 9.24689 3.00391 16.9376V49.0627C3.00391 56.7534 9.0403 63.0004 16.474 63.0004H47.528C54.9617 63.0004 61 56.7534 61 49.0627V16.9376C61 9.24689 54.9617 2.99997 47.528 2.99997H16.474ZM17.5029 3.96872H46.4992C53.462 3.96872 59.0668 9.76738 59.0668 16.9705V46.9685C59.0668 54.1716 53.4616 59.9703 46.4992 59.9703H17.5029C10.5401 59.9703 4.93536 54.1716 4.93536 46.9685V16.9705C4.93536 9.76738 10.5405 3.96872 17.5029 3.96872Z" fill="black"/>
<path opacity="0.03" d="M16.289 3.99994C9.2374 3.99994 3.53247 9.8141 3.53247 16.998V49.0017C3.53247 56.1856 9.46644 61.9998 16.518 61.9998H47.5092C54.5608 61.9998 60.4635 56.1856 60.4635 49.0017V16.998C60.4635 9.8141 54.7563 3.99994 47.705 3.99994H47.3389C54.1195 4.32693 59.4857 9.97889 59.4857 16.9708V46.9687C59.4857 54.1719 53.794 59.9705 46.7235 59.9705H17.2786C10.2081 59.9705 4.51638 54.1719 4.51638 46.9687V16.9708C4.51638 9.97927 9.88303 4.32763 16.6633 3.99994H16.289Z" fill="black"/>
<path opacity="0.03" d="M4 46.9693V49.0005C4 55.6485 9.89574 61.0006 16.5441 61.0006H47.5053C54.1532 61.0006 60.0004 55.6485 60.0004 49.0005V47.0083C59.9792 54.1932 54.1903 59.9714 47.0003 59.9714H17.0021C9.79884 59.9714 4 54.1726 4 46.9693Z" fill="black"/>
<path opacity="0.05" d="M4 44.9999V47.2387C4 54.5659 9.94493 60.4647 16.5929 60.4647H47.4355C54.0835 60.4647 60.0001 54.5655 60.0001 47.2387V45.043C59.9789 52.962 54.1901 59.3302 47.0001 59.3302H17.0022C9.79904 59.3302 4 52.939 4 44.9999Z" fill="black"/>
<path d="M17.002 4.4686H47C53.9047 4.4686 59.502 10.0659 59.502 16.9706V46.9686C59.502 53.8733 53.9047 59.4706 47 59.4706H17.002C10.0973 59.4706 4.5 53.8733 4.5 46.9686V16.9706C4.5 10.0659 10.0973 4.4686 17.002 4.4686Z" fill="#232323" stroke="url(#paint0_linear_9_7502)"/>
<g opacity="0.35" filter="url(#filter0_f_9_7502)">
<path d="M31.0531 9.50229C28.1275 9.53478 24.9822 9.80141 22.8388 11.8108C19.5559 14.8884 19.9704 17.0172 19.648 21.2294C18.9897 29.828 19.2446 41.6124 20.9929 50.0784C21.5057 52.5618 23.8481 54.3094 26.3329 54.7877C28.24 55.1548 30.2122 55.4329 32.1871 55.5C34.162 55.4329 36.1342 55.1548 38.0413 54.7877C40.5261 54.3094 42.8684 52.5618 43.3813 50.0784C45.1296 41.612 45.3844 29.8274 44.7262 21.2294C44.4037 17.0172 44.8182 14.8884 41.5354 11.8108C39.392 9.80139 36.2466 9.53479 33.3211 9.50229C32.9387 9.49809 32.5594 9.50179 32.1872 9.50229C31.815 9.50179 31.4354 9.49809 31.0531 9.50229Z" fill="black"/>
</g>
<path d="M31.0531 9.00229C28.1275 9.03478 24.9822 9.30141 22.8388 11.3108C19.5559 14.3884 19.9704 16.5172 19.648 20.7294C18.9897 29.328 19.2446 41.1124 20.9929 49.5784C21.5057 52.0618 23.8481 53.8094 26.3329 54.2877C28.24 54.6548 30.2122 54.9329 32.1871 55C34.162 54.9329 36.1342 54.6548 38.0413 54.2877C40.5261 53.8094 42.8684 52.0618 43.3813 49.5784C45.1296 41.112 45.3844 29.3274 44.7262 20.7294C44.4037 16.5172 44.8182 14.3884 41.5354 11.3108C39.392 9.30139 36.2466 9.03479 33.3211 9.00229C32.9387 8.99809 32.5594 9.00179 32.1872 9.00229C31.815 9.00179 31.4354 8.99809 31.0531 9.00229Z" fill="url(#paint1_linear_9_7502)"/>
<path d="M32.187 15.0003C32.741 15.0003 33.187 15.5498 33.187 16.2324V19.7681C33.187 20.4507 32.741 21.0002 32.187 21.0002C31.633 21.0002 31.187 20.4506 31.187 19.7681V16.2324C31.187 15.5498 31.633 15.0003 32.187 15.0003Z" fill="#232323"/>
<path d="M32.187 16.0003C32.741 16.0003 33.187 16.5498 33.187 17.2324V20.7681C33.187 21.4507 32.741 22.0002 32.187 22.0002C31.633 22.0002 31.187 21.4506 31.187 20.7681V17.2324C31.187 16.5498 31.633 16.0003 32.187 16.0003Z" fill="#232323"/>
<path d="M31.3501 48.268C31.3287 48.2634 31.3179 48.2595 31.3259 48.2582C31.3341 48.2579 31.3232 48.2512 31.3026 48.2471C31.2219 48.2282 31.0989 48.1526 30.9975 48.0597C30.8983 47.9686 30.6972 47.7067 30.5846 47.522C30.3913 47.2045 30.2421 46.8018 30.1791 46.4268C30.1368 46.1756 30.1343 45.8736 30.1726 45.6574C30.2885 45.0029 30.7767 44.5455 31.3603 44.5446C31.4801 44.5443 31.566 44.5618 31.7334 44.6206C32.1147 44.7544 32.1143 44.7543 32.1789 44.7542C32.2289 44.754 32.2686 44.7447 32.3726 44.708C32.8466 44.5413 32.8802 44.533 33.0749 44.5341C33.3385 44.5348 33.5905 44.6156 33.7829 44.7588C33.8568 44.8137 33.9548 44.9106 33.998 44.9713L34.0188 45.0005L33.9348 45.0641C33.6147 45.3032 33.4675 45.6307 33.4976 46.0363C33.5075 46.1694 33.5301 46.2676 33.5775 46.384C33.6645 46.5976 33.8728 46.8246 34.0801 46.9318C34.116 46.9505 34.1455 46.9708 34.1455 46.9769C34.1457 47.0083 34.0648 47.2062 33.9941 47.3482C33.885 47.567 33.7396 47.7845 33.5746 47.9763C33.4557 48.1144 33.3007 48.2152 33.1664 48.2429C33.1322 48.2496 33.1107 48.2581 33.1186 48.2611C33.1262 48.2638 33.0998 48.2662 33.0603 48.2677C33.0176 48.2679 32.993 48.2646 33.0005 48.2602C33.0088 48.2545 32.9938 48.2498 32.9588 48.2455C32.8995 48.2387 32.7924 48.2051 32.634 48.1442C32.476 48.0834 32.3547 48.0618 32.2078 48.0684C32.0784 48.0742 31.9968 48.0914 31.859 48.1424C31.6862 48.2063 31.5871 48.2392 31.5495 48.2452C31.5283 48.2501 31.5126 48.2548 31.5154 48.2594C31.5181 48.264 31.5105 48.2684 31.4976 48.2683C31.4846 48.2682 31.4551 48.2704 31.4316 48.2729C31.4083 48.275 31.3715 48.2733 31.3501 48.268ZM32.1659 44.4442C32.1534 44.4319 32.1595 44.2559 32.1745 44.183C32.2293 43.9178 32.4169 43.6536 32.6575 43.5028C32.7591 43.4391 32.8945 43.3799 32.9895 43.3574C33.0289 43.3482 33.058 43.3375 33.0542 43.3336C33.051 43.3294 33.0609 43.3269 33.0774 43.3269C33.0935 43.3265 33.1131 43.3245 33.1205 43.3218C33.1493 43.3101 33.1207 43.5884 33.079 43.7193C32.9789 44.0329 32.7185 44.3176 32.4504 44.4068C32.3532 44.4393 32.1833 44.4617 32.1659 44.4442Z" fill="#232323"/>
</g>
<defs>
<filter id="filter0_f_9_7502" x="17.5219" y="7.70673" width="29.3303" height="49.5869" filterUnits="userSpaceOnUse" color-interpolation-filters="sRGB">
<feFlood flood-opacity="0" result="BackgroundImageFix"/>
<feBlend mode="normal" in="SourceGraphic" in2="BackgroundImageFix" result="shape"/>
<feGaussianBlur stdDeviation="0.896789" result="effect1_foregroundBlur_9_7502"/>
</filter>
<linearGradient id="paint0_linear_9_7502" x1="4" y1="31.9696" x2="60.002" y2="31.9696" gradientUnits="userSpaceOnUse">
<stop stop-color="#FDFC47"/>
<stop offset="1" stop-color="#24FE41"/>
</linearGradient>
<linearGradient id="paint1_linear_9_7502" x1="19.3154" y1="32.0002" x2="45.0587" y2="32.0002" gradientUnits="userSpaceOnUse">
<stop stop-color="#FDFC47"/>
<stop offset="1" stop-color="#24FE41"/>
</linearGradient>
<clipPath id="clip0_9_7502">
<rect width="64" height="64" fill="white"/>
</clipPath>
</defs>
</svg>
