<svg width="64" height="64" viewBox="0 0 64 64" fill="none" xmlns="http://www.w3.org/2000/svg">
<g clip-path="url(#clip0_9_7735)">
<g opacity="0.25" filter="url(#filter0_f_9_7735)">
<path d="M48.8075 0.990356H15.193C12.9956 0.990356 11.2144 2.77697 11.2144 4.98088V59.0016C11.2144 61.2056 12.9956 62.9922 15.193 62.9922H48.8075C51.0048 62.9922 52.7861 61.2056 52.7861 59.0016V4.98088C52.7861 2.77697 51.0048 0.990356 48.8075 0.990356Z" fill="#232323"/>
<path d="M15.193 1.49036H48.8075C50.7272 1.49036 52.2861 3.0517 52.2861 4.98088V59.0016C52.2861 60.9308 50.7272 62.4922 48.8075 62.4922H15.193C13.2732 62.4922 11.7144 60.9308 11.7144 59.0016V4.98088C11.7144 3.0517 13.2732 1.49036 15.193 1.49036Z" stroke="url(#paint0_linear_9_7735)"/>
</g>
<path d="M15.193 1.49036H48.8075C50.7272 1.49036 52.2861 3.0517 52.2861 4.98088V59.0016C52.2861 60.9308 50.7272 62.4922 48.8075 62.4922H15.193C13.2732 62.4922 11.7144 60.9308 11.7144 59.0016V4.98088C11.7144 3.0517 13.2732 1.49036 15.193 1.49036Z" fill="#232323" stroke="url(#paint1_linear_9_7735)"/>
<path d="M31.1589 33.6501C27.925 33.8551 24.8638 35.2374 22.5583 37.555C20.1538 39.9721 18.7604 43.2166 18.653 46.6237C18.6964 46.5548 18.7475 46.4903 18.8059 46.4316C19.0144 46.2219 19.2977 46.1037 19.5937 46.1036H19.5937C19.7403 46.1036 19.8853 46.1326 20.0206 46.1889C20.1558 46.2452 20.2785 46.3277 20.3818 46.4315C20.4849 46.5352 20.5667 46.6582 20.6225 46.7935C20.6782 46.9288 20.7068 47.0737 20.7068 47.2199V47.22C20.7067 47.5152 20.59 47.7987 20.3816 48.0082C20.1731 48.2177 19.8898 48.3359 19.5937 48.3359H19.5937C19.2977 48.3358 19.0145 48.2176 18.806 48.008C18.7549 47.9566 18.7092 47.9007 18.6695 47.8412C18.7572 49.334 19.0924 50.8035 19.6631 52.1884C20.3344 53.8176 21.3182 55.2977 22.5583 56.5443C23.7984 57.7909 25.2705 58.7796 26.8905 59.4542C28.2511 60.0207 29.6938 60.3563 31.1597 60.4492C31.0058 60.2532 30.9211 60.0101 30.9211 59.7586V59.7586C30.9212 59.4635 31.0378 59.18 31.2462 58.9705C31.4546 58.761 31.7379 58.6427 32.0338 58.6427H32.0339C32.3298 58.6426 32.6132 58.7607 32.8218 58.9703C33.0302 59.1798 33.1469 59.4634 33.147 59.7586V59.7586C33.147 59.9049 33.1184 60.0497 33.0626 60.185C33.0243 60.278 32.9736 60.3653 32.9122 60.4444C34.3532 60.3452 35.7708 60.0114 37.1091 59.4542C38.7291 58.7796 40.2012 57.7909 41.4413 56.5443C42.6814 55.2977 43.6653 53.8176 44.3365 52.1884C44.9071 50.8037 45.2424 49.3344 45.3301 47.8418C45.2905 47.9011 45.245 47.9568 45.194 48.008C44.9855 48.2176 44.7023 48.3358 44.4063 48.3359H44.4063C44.1102 48.3359 43.8269 48.2177 43.6184 48.0082C43.41 47.7987 43.2933 47.5152 43.2932 47.22V47.2199C43.2932 47.0737 43.3218 46.9288 43.3775 46.7935C43.4333 46.6582 43.5151 46.5352 43.6182 46.4315C43.7215 46.3277 43.8442 46.2452 43.9794 46.1889C44.1147 46.1326 44.2597 46.1036 44.4063 46.1036H44.4063C44.7023 46.1037 44.9856 46.2219 45.1941 46.4316C45.2523 46.4901 45.3033 46.5544 45.3467 46.6231C45.2391 43.2162 43.8457 39.972 41.4413 37.555C39.1528 35.2545 36.1197 33.8755 32.9121 33.6548C32.9735 33.7339 33.024 33.8211 33.0623 33.9139C33.118 34.0491 33.1466 34.1939 33.1466 34.3401L31.1589 33.6501ZM31.1589 33.6501C31.0053 33.846 30.9208 34.0889 30.9208 34.3401L31.1589 33.6501ZM32.0336 35.4565H32.0335C31.7375 35.4564 31.4542 35.3381 31.2457 35.1285C31.0373 34.919 30.9208 34.6354 30.9208 34.3403L32.0336 35.4565ZM32.0336 35.4565C32.1801 35.4565 32.3251 35.4275 32.4604 35.3712C32.5956 35.3148 32.7183 35.2324 32.8216 35.1286C32.9248 35.0248 33.0066 34.9017 33.0623 34.7665C33.118 34.6313 33.1466 34.4865 33.1466 34.3403L32.0336 35.4565ZM24.5823 47.0494V47.0494C24.5823 49.0254 25.3632 50.921 26.754 52.319C28.1448 53.7171 30.0317 54.503 31.9998 54.503C33.9679 54.503 35.8548 53.7171 37.2457 52.319C38.6364 50.921 39.4173 49.0254 39.4174 47.0494C39.4173 45.0734 38.6364 43.1778 37.2457 41.7798C35.8548 40.3817 33.9679 39.5957 31.9998 39.5957C30.0317 39.5957 28.1448 40.3817 26.754 41.7798C25.3632 43.1778 24.5823 45.0734 24.5823 47.0494Z" fill="#232323" stroke="url(#paint2_linear_9_7735)"/>
<path d="M46.5138 3.90982H17.4879C16.5482 3.90982 15.7864 4.67388 15.7864 5.61641V27.1144C15.7864 28.0569 16.5482 28.821 17.4879 28.821H46.5138C47.4535 28.821 48.2153 28.0569 48.2153 27.1144V5.61641C48.2153 4.67388 47.4535 3.90982 46.5138 3.90982Z" fill="#232323" stroke="url(#paint3_linear_9_7735)" stroke-linecap="round" stroke-linejoin="round"/>
</g>
<defs>
<filter id="filter0_f_9_7735" x="9.66075" y="-0.56325" width="44.679" height="65.109" filterUnits="userSpaceOnUse" color-interpolation-filters="sRGB">
<feFlood flood-opacity="0" result="BackgroundImageFix"/>
<feBlend mode="normal" in="SourceGraphic" in2="BackgroundImageFix" result="shape"/>
<feGaussianBlur stdDeviation="0.776803" result="effect1_foregroundBlur_9_7735"/>
</filter>
<linearGradient id="paint0_linear_9_7735" x1="11.2144" y1="31.9913" x2="52.7861" y2="31.9913" gradientUnits="userSpaceOnUse">
<stop stop-color="#FDFC47"/>
<stop offset="1" stop-color="#24FE41"/>
</linearGradient>
<linearGradient id="paint1_linear_9_7735" x1="11.2144" y1="31.9913" x2="52.7861" y2="31.9913" gradientUnits="userSpaceOnUse">
<stop stop-color="#FDFC47"/>
<stop offset="1" stop-color="#24FE41"/>
</linearGradient>
<linearGradient id="paint2_linear_9_7735" x1="18.1462" y1="47.0496" x2="45.8534" y2="47.0496" gradientUnits="userSpaceOnUse">
<stop stop-color="#FDFC47"/>
<stop offset="1" stop-color="#24FE41"/>
</linearGradient>
<linearGradient id="paint3_linear_9_7735" x1="15.7864" y1="16.3654" x2="48.2153" y2="16.3654" gradientUnits="userSpaceOnUse">
<stop stop-color="#FDFC47"/>
<stop offset="1" stop-color="#24FE41"/>
</linearGradient>
<clipPath id="clip0_9_7735">
<rect width="64" height="64" fill="white"/>
</clipPath>
</defs>
</svg>
