<svg width="64" height="64" viewBox="0 0 64 64" fill="none" xmlns="http://www.w3.org/2000/svg">
<g clip-path="url(#clip0_9_7742)">
<path opacity="0.01" d="M16.5142 2C8.52335 2 1.99976 8.74092 1.99976 16.9982V49.002C1.99976 57.2589 8.52335 64.0002 16.5142 64.0002H47.4858C55.4766 64.0002 62.0002 57.2593 62.0002 49.002V16.9982C62.0002 8.7413 55.4766 2 47.4858 2H16.5142ZM17.4857 3.96876H46.5161C53.4868 3.96876 59.0987 9.76742 59.0987 16.9706V46.9685C59.0987 54.1717 53.4872 59.9704 46.5161 59.9704H17.4857C10.515 59.9704 4.90302 54.1717 4.90302 46.9685V16.9706C4.90302 9.76742 10.5146 3.96876 17.4857 3.96876Z" fill="black"/>
<path opacity="0.01" d="M16.474 2.99997C9.04031 2.99997 3.00391 9.2469 3.00391 16.9376V49.0627C3.00391 56.7535 9.04031 63.0004 16.474 63.0004H47.528C54.9617 63.0004 61 56.7535 61 49.0627V16.9376C61 9.2469 54.9617 2.99997 47.528 2.99997H16.474ZM17.5029 3.96872H46.4993C53.462 3.96872 59.0668 9.76738 59.0668 16.9705V46.9685C59.0668 54.1717 53.4617 59.9703 46.4993 59.9703H17.5029C10.5401 59.9703 4.93536 54.1717 4.93536 46.9685V16.9705C4.93536 9.76738 10.5405 3.96872 17.5029 3.96872Z" fill="black"/>
<path opacity="0.03" d="M16.289 3.99994C9.2374 3.99994 3.53247 9.8141 3.53247 16.998V49.0018C3.53247 56.1857 9.46645 61.9998 16.518 61.9998H47.5093C54.5609 61.9998 60.4635 56.1857 60.4635 49.0018V16.998C60.4635 9.8141 54.7563 3.99994 47.7051 3.99994H47.3389C54.1195 4.32693 59.4858 9.97889 59.4858 16.9708V46.9687C59.4858 54.1719 53.7941 59.9706 46.7236 59.9706H17.2786C10.2081 59.9706 4.51638 54.1719 4.51638 46.9687V16.9708C4.51638 9.97927 9.88303 4.32763 16.6633 3.99994H16.289Z" fill="black"/>
<path opacity="0.03" d="M4 46.9693V49.0005C4 55.6485 9.89574 61.0006 16.5441 61.0006H47.5053C54.1533 61.0006 60.0004 55.6485 60.0004 49.0005V47.0083C59.9792 54.1933 54.1904 59.9714 47.0003 59.9714H17.0021C9.79884 59.9714 4 54.1727 4 46.9693Z" fill="black"/>
<path opacity="0.05" d="M4 44.9999V47.2387C4 54.5659 9.94494 60.4647 16.5929 60.4647H47.4356C54.0835 60.4647 60.0001 54.5655 60.0001 47.2387V45.043C59.9789 52.962 54.1901 59.3302 47.0002 59.3302H17.0022C9.79904 59.3302 4 52.939 4 44.9999Z" fill="black"/>
<path d="M17.0015 4.49994H46.9971C53.9015 4.49994 59.4986 10.097 59.4986 17.0014V46.9971C59.4986 53.9014 53.9015 59.4985 46.9971 59.4985H17.0015C10.0971 59.4985 4.5 53.9014 4.5 46.9971V17.0014C4.5 10.097 10.0971 4.49994 17.0015 4.49994Z" fill="#232323" stroke="url(#paint0_linear_9_7742)"/>
<path d="M55.4995 31.9997C55.4995 44.9784 44.9782 55.4996 31.9996 55.4996C19.021 55.4996 8.49976 44.9784 8.49976 31.9997C8.49976 19.0211 19.021 8.49988 31.9996 8.49988C44.9782 8.49988 55.4995 19.0211 55.4995 31.9997Z" fill="#232323" stroke="url(#paint1_linear_9_7742)"/>
<path fill-rule="evenodd" clip-rule="evenodd" d="M33.2999 8.06186C31.0208 9.24699 28.2668 11.0317 25.5265 13.7009C22.8975 16.2612 20.3543 19.58 18.4921 23.5866C18.4649 22.5729 18.4891 21.5802 18.5532 20.6193C18.8217 16.6575 19.7956 13.3328 20.8016 10.7929C20.5373 10.938 20.2758 11.088 20.0172 11.2429C19.0053 13.7028 18.0727 16.8445 17.7625 20.5614C17.6355 22.0861 17.621 23.6875 17.7322 25.3366C14.7467 24.3395 12.3804 22.8725 10.7229 21.6085C10.641 21.546 10.5708 21.4877 10.4949 21.4272C10.4171 21.5842 10.341 21.742 10.2666 21.9007C10.3102 21.939 10.3501 21.9755 10.3964 22.0147C12.0203 23.3902 14.399 24.9807 17.4589 26.0757C17.3582 26.3505 17.2605 26.6266 17.1668 26.907C17.0317 27.3113 16.9026 27.7205 16.7824 28.1336C16.4711 29.2031 16.2217 30.2669 16.0246 31.3225C14.6818 30.4562 13.4705 29.5747 12.3981 28.7194C10.9447 27.5603 9.82371 26.5277 8.89646 25.6287C8.8525 25.7923 8.81027 25.9564 8.76978 26.1209C9.62035 27.0375 10.6557 28.0705 11.9948 29.2083C13.1268 30.1702 14.424 31.1617 15.8822 32.1301C15.2153 36.2661 15.3744 40.2388 16.0539 43.7468C16.6996 47.0767 17.7896 49.8412 18.9164 52.0859C19.223 52.2841 19.534 52.4753 19.8492 52.6594C18.6781 50.2897 17.4932 47.2752 16.8399 43.6001C16.2494 40.2801 16.119 36.5514 16.7117 32.6688C17.6376 33.2531 18.6235 33.8257 19.6664 34.3719C19.9845 35.2287 20.3437 36.0828 20.7477 36.9344C20.7951 37.0346 20.8414 37.1362 20.8898 37.236C23.1794 41.9325 26.4203 45.6392 29.8505 48.3504C29.7502 50.1768 29.7943 51.8787 29.9285 53.402C30.0099 54.3243 30.1251 55.1433 30.252 55.9098C30.4326 55.9207 30.6134 55.9296 30.7942 55.9364C30.7004 55.1465 30.6167 54.304 30.5644 53.3583C30.4894 52.0017 30.4824 50.5058 30.5825 48.9114C30.9948 49.2182 31.4084 49.5113 31.8232 49.7896C33.7815 51.1033 35.7179 52.0771 37.5169 52.8068C37.203 53.675 36.9667 54.5031 36.7935 55.2599C36.7753 55.3449 36.7614 55.4211 36.7451 55.5021C36.9567 55.4571 37.1676 55.4091 37.3779 55.3584C37.5829 54.6459 37.8429 53.8745 38.1701 53.0646C39.3316 53.5058 40.3878 53.8109 41.3778 54.0646C41.625 53.9594 41.8703 53.85 42.1138 53.7365C40.9975 53.4243 39.7749 53.0385 38.4153 52.4786C39.4119 50.1915 40.9491 47.6647 43.2918 45.4067C43.9678 44.7545 44.7017 44.1375 45.4918 43.5598C46.7068 44.5514 47.8982 45.3504 48.9998 45.9895C48.6283 47.485 48.1942 48.8274 47.7482 50.0771C48.1018 49.7804 48.4467 49.4735 48.7826 49.1568C49.0975 48.278 49.4035 47.3638 49.6778 46.3693C50.0703 46.5816 50.4234 46.7452 50.7795 46.913C50.8856 46.7762 50.9903 46.6381 51.0935 46.499C50.6888 46.2805 50.2828 46.0623 49.8342 45.7896C50.2448 44.2112 50.5878 42.5051 50.8201 40.6897C52.1586 40.191 53.4738 39.8587 54.7374 39.6366C54.8343 39.3581 54.9261 39.0778 55.0126 38.796C53.7036 38.9669 52.3327 39.2574 50.9313 39.7272C51.0142 38.9272 51.0756 38.1064 51.1109 37.2679C52.8896 36.7236 54.4163 36.1189 55.7171 35.5351C55.7505 35.3318 55.7812 35.1282 55.8093 34.9241C54.4883 35.4619 52.9507 36.0299 51.1327 36.5444C51.1569 35.5642 51.1448 34.56 51.0937 33.5334C51.0272 32.2379 50.8966 30.9232 50.6937 29.5958C50.1563 26.0784 49.1937 22.8852 48.0078 20.0415C49.3105 19.2428 50.492 18.6372 51.5608 18.1305C51.4613 17.9878 51.3603 17.8461 51.2577 17.7055C50.1945 18.1534 49.0296 18.6954 47.7467 19.4258C47.0742 17.8834 46.3367 16.4482 45.5685 15.1275C45.7134 14.8539 45.8491 14.5873 45.9732 14.3275C46.2094 13.8331 46.395 13.3832 46.5639 12.9524C46.4372 12.8543 46.3096 12.7574 46.181 12.6618C45.9766 13.1037 45.7536 13.5664 45.4795 14.0774C45.3978 14.2293 45.3104 14.3846 45.2216 14.5414C44.2787 12.9794 43.2979 11.5858 42.3372 10.3695C42.3359 10.3679 42.3352 10.3665 42.3341 10.3646C41.9153 10.1591 41.4906 9.96576 41.0606 9.78495C41.3131 10.1018 41.5604 10.4029 41.8262 10.7615C42.8073 12.085 43.8115 13.6039 44.7715 15.3054C43.1469 17.9527 40.5381 21.0874 36.5914 23.3839C36.5189 23.4263 36.446 23.4686 36.3725 23.5104C36.2885 21.5243 36.4206 19.6221 36.696 17.8744C37.2856 14.1406 38.4976 11.2192 39.5132 9.22147C39.3627 9.1658 39.2116 9.11163 39.06 9.05898C37.9147 11.0247 36.5827 13.9506 35.9037 17.7407C35.5592 19.6604 35.3915 21.7702 35.4975 23.9814C33.8767 24.8079 32.0968 25.469 30.1913 25.9079C27.0552 26.6305 23.973 26.6649 21.1864 26.1986C20.2851 26.0481 19.4259 25.8481 18.6083 25.6111C20.4343 20.9713 23.2002 17.1503 26.0723 14.2549C29.0317 11.2735 31.9865 9.36845 34.3165 8.11426C33.9778 8.08988 33.6393 8.07185 33.2999 8.06186ZM45.1198 15.9353C45.7823 17.1557 46.4175 18.4654 47.0026 19.8603C46.4018 20.2223 45.788 20.6168 45.1619 21.0493C42.44 22.9296 39.5943 25.4638 37.098 28.7024C36.7532 27.2766 36.5395 25.8652 36.4324 24.4868C36.6364 24.3737 36.8384 24.2582 37.037 24.14C40.9653 21.7973 43.5402 18.6472 45.1198 15.9353ZM47.2682 20.5073C48.3746 23.2711 49.2752 26.3553 49.7916 29.7354C49.99 31.0331 50.1236 32.3166 50.1932 33.5823C50.2533 34.6763 50.2673 35.7455 50.2431 36.787C49.7604 36.913 49.2644 37.0332 48.7524 37.148C46.5514 37.6408 44.1163 38.0067 41.5103 38.1479C39.937 35.9897 38.5569 33.4586 37.6289 30.5901C37.6107 30.5349 37.5932 30.4797 37.5757 30.4245C37.5104 30.218 37.4493 30.0104 37.3897 29.8042C39.9039 26.3642 42.8123 23.6684 45.5882 21.6553C46.158 21.2421 46.7194 20.8615 47.2682 20.5073ZM35.5602 24.9448C35.6887 26.4844 35.9528 28.0669 36.3836 29.6619C35.5496 30.8229 34.7613 32.0668 34.0398 33.3979C33.9023 33.6518 33.7671 33.9049 33.6367 34.1604C33.0468 35.3184 32.5409 36.4759 32.1054 37.6245C31.9536 37.5985 31.8015 37.5728 31.6492 37.5448C31.3453 37.4899 31.0448 37.4325 30.7445 37.3714C26.8767 36.5835 23.4301 35.309 20.4316 33.8277C19.5286 31.3541 18.9732 28.8739 18.6956 26.4776C19.4416 26.6972 20.2214 26.887 21.0378 27.0355C23.9269 27.5594 27.1316 27.5478 30.3922 26.7964C32.2395 26.3707 33.9728 25.7365 35.5602 24.9448ZM17.9416 27.4635C18.1959 29.3535 18.6278 31.2887 19.265 33.2277C18.4207 32.7786 17.6153 32.3143 16.8495 31.8433C17.0532 30.7006 17.3197 29.5479 17.6573 28.3885C17.7477 28.0778 17.8427 27.7691 17.9416 27.4635ZM36.7088 30.7683C36.7209 30.8045 36.73 30.8402 36.7418 30.8761C37.6382 33.642 38.9494 36.0909 40.4542 38.1932C38.089 38.2642 35.5937 38.1462 33.0137 37.7682C33.4281 36.7086 33.903 35.6412 34.4481 34.5744C34.5751 34.3256 34.7063 34.0796 34.8403 33.8322C35.4233 32.756 36.0506 31.7342 36.7088 30.7683ZM20.8793 34.9823C23.7226 36.3565 26.9583 37.5255 30.5624 38.2635C30.8696 38.3262 31.1784 38.3858 31.489 38.4416C31.59 38.4598 31.6901 38.476 31.7905 38.4948C30.7127 41.5822 30.1499 44.5876 29.9218 47.3436C26.7793 44.6981 23.8307 41.193 21.7091 36.8372C21.6619 36.7405 21.6162 36.6442 21.57 36.5466C21.3235 36.0272 21.0933 35.5042 20.8793 34.9823ZM50.2201 37.5292C50.1847 38.3885 50.1228 39.2278 50.039 40.0464C48.4965 40.6391 46.9374 41.4419 45.4186 42.4948C45.0121 42.1262 44.6053 41.7378 44.1983 41.3229C43.4935 40.6039 42.799 39.8154 42.1311 38.9651C44.5733 38.7734 46.8546 38.383 48.9233 37.873C49.3675 37.7633 49.7987 37.6477 50.2201 37.5292ZM32.6905 38.6385C35.6183 39.0776 38.4359 39.1773 41.0825 39.0354C41.8954 40.0852 42.7535 41.0392 43.6262 41.8933C44.0095 42.2685 44.3931 42.6223 44.7762 42.9573C44.0202 43.5236 43.3158 44.1284 42.6653 44.7652C40.2375 47.1443 38.695 49.801 37.7465 52.1966C36.0093 51.4365 34.1475 50.4442 32.2668 49.1388C31.7274 48.7644 31.1884 48.3653 30.6543 47.9419C30.9071 45.0621 31.5156 41.8925 32.6905 38.6385ZM49.925 41.0464C49.7324 42.5662 49.4649 44.0088 49.15 45.362C48.1931 44.7434 47.1689 44.0012 46.1252 43.1151C47.3771 42.2664 48.6552 41.5832 49.925 41.0464Z" fill="url(#paint2_linear_9_7742)"/>
<path d="M18.0524 31.76C21.5868 31.76 24.4521 28.8947 24.4521 25.3602C24.4521 21.8257 21.5868 18.9604 18.0524 18.9604C14.5179 18.9604 11.6526 21.8257 11.6526 25.3602C11.6526 28.8947 14.5179 31.76 18.0524 31.76Z" fill="url(#paint3_radial_9_7742)"/>
<path d="M35.7798 28.7802C38.4962 28.7802 40.6983 26.5781 40.6983 23.8617C40.6983 21.1453 38.4962 18.9432 35.7798 18.9432C33.0634 18.9432 30.8613 21.1453 30.8613 23.8617C30.8613 26.5781 33.0634 28.7802 35.7798 28.7802Z" fill="url(#paint4_radial_9_7742)"/>
<path d="M37.1548 33.6712C39.1402 33.6712 40.7496 32.0618 40.7496 30.0764C40.7496 28.0911 39.1402 26.4817 37.1548 26.4817C35.1695 26.4817 33.5601 28.0911 33.5601 30.0764C33.5601 32.0618 35.1695 33.6712 37.1548 33.6712Z" fill="url(#paint5_radial_9_7742)"/>
<path d="M44.5686 19.2915C46.554 19.2915 48.1634 17.6821 48.1634 15.6968C48.1634 13.7114 46.554 12.102 44.5686 12.102C42.5833 12.102 40.9739 13.7114 40.9739 15.6968C40.9739 17.6821 42.5833 19.2915 44.5686 19.2915Z" fill="url(#paint6_radial_9_7742)"/>
<path d="M47.7647 23.7275C49.75 23.7275 51.3595 22.118 51.3595 20.1327C51.3595 18.1474 49.75 16.5379 47.7647 16.5379C45.7794 16.5379 44.1699 18.1474 44.1699 20.1327C44.1699 22.118 45.7794 23.7275 47.7647 23.7275Z" fill="url(#paint7_radial_9_7742)"/>
<path d="M50.6462 39.5292C52.2347 39.5292 53.5224 38.2415 53.5224 36.6531C53.5224 35.0646 52.2347 33.7769 50.6462 33.7769C49.0577 33.7769 47.77 35.0646 47.77 36.6531C47.77 38.2415 49.0577 39.5292 50.6462 39.5292Z" fill="url(#paint8_radial_9_7742)"/>
<path d="M50.2622 43.3571C51.8506 43.3571 53.1383 42.0694 53.1383 40.4809C53.1383 38.8925 51.8506 37.6048 50.2622 37.6048C48.6737 37.6048 47.386 38.8925 47.386 40.4809C47.386 42.0694 48.6737 43.3571 50.2622 43.3571Z" fill="url(#paint9_radial_9_7742)"/>
<path d="M41.5513 43.9566C44.4293 43.9566 46.7625 41.6235 46.7625 38.7454C46.7625 35.8673 44.4293 33.5342 41.5513 33.5342C38.6732 33.5342 36.3401 35.8673 36.3401 38.7454C36.3401 41.6235 38.6732 43.9566 41.5513 43.9566Z" fill="url(#paint10_radial_9_7742)"/>
<path d="M30.8008 53.2149C33.6788 53.2149 36.012 50.8818 36.012 48.0037C36.012 45.1256 33.6788 42.7925 30.8008 42.7925C27.9227 42.7925 25.5896 45.1256 25.5896 48.0037C25.5896 50.8818 27.9227 53.2149 30.8008 53.2149Z" fill="url(#paint11_radial_9_7742)"/>
<path d="M20.4128 38.2813C22.1989 38.2813 23.6468 36.8333 23.6468 35.0472C23.6468 33.2611 22.1989 31.8132 20.4128 31.8132C18.6266 31.8132 17.1787 33.2611 17.1787 35.0472C17.1787 36.8333 18.6266 38.2813 20.4128 38.2813Z" fill="url(#paint12_radial_9_7742)"/>
<path d="M38.2857 54.1432C39.3703 54.1432 40.2496 53.2639 40.2496 52.1793C40.2496 51.0947 39.3703 50.2154 38.2857 50.2154C37.201 50.2154 36.3218 51.0947 36.3218 52.1793C36.3218 53.2639 37.201 54.1432 38.2857 54.1432Z" fill="url(#paint13_radial_9_7742)"/>
<path d="M32.3359 40.9878C33.9918 40.9878 35.3342 39.6454 35.3342 37.9895C35.3342 36.3336 33.9918 34.9912 32.3359 34.9912C30.68 34.9912 29.3376 36.3336 29.3376 37.9895C29.3376 39.6454 30.68 40.9878 32.3359 40.9878Z" fill="url(#paint14_radial_9_7742)"/>
<path d="M49.2522 47.457C50.0458 47.457 50.6891 46.8137 50.6891 46.0202C50.6891 45.2267 50.0458 44.5834 49.2522 44.5834C48.4587 44.5834 47.8154 45.2267 47.8154 46.0202C47.8154 46.8137 48.4587 47.457 49.2522 47.457Z" fill="url(#paint15_radial_9_7742)"/>
<path d="M45.8357 44.896C46.6293 44.896 47.2726 44.2527 47.2726 43.4592C47.2726 42.6657 46.6293 42.0224 45.8357 42.0224C45.0422 42.0224 44.3989 42.6657 44.3989 43.4592C44.3989 44.2527 45.0422 44.896 45.8357 44.896Z" fill="url(#paint16_radial_9_7742)"/>
</g>
<defs>
<linearGradient id="paint0_linear_9_7742" x1="4" y1="31.9992" x2="59.9986" y2="31.9992" gradientUnits="userSpaceOnUse">
<stop stop-color="#FDFC47"/>
<stop offset="1" stop-color="#24FE41"/>
</linearGradient>
<linearGradient id="paint1_linear_9_7742" x1="7.99976" y1="31.9997" x2="55.9995" y2="31.9997" gradientUnits="userSpaceOnUse">
<stop stop-color="#FDFC47"/>
<stop offset="1" stop-color="#24FE41"/>
</linearGradient>
<linearGradient id="paint2_linear_9_7742" x1="8.76978" y1="31.9991" x2="55.8093" y2="31.9991" gradientUnits="userSpaceOnUse">
<stop stop-color="#FDFC47"/>
<stop offset="1" stop-color="#24FE41"/>
</linearGradient>
<radialGradient id="paint3_radial_9_7742" cx="0" cy="0" r="1" gradientUnits="userSpaceOnUse" gradientTransform="translate(18.0524 25.3602) scale(6.39976)">
<stop stop-color="#FDFC47"/>
<stop offset="1" stop-color="#24FE41" stop-opacity="0"/>
</radialGradient>
<radialGradient id="paint4_radial_9_7742" cx="0" cy="0" r="1" gradientUnits="userSpaceOnUse" gradientTransform="translate(35.7798 23.8617) scale(4.9185)">
<stop stop-color="#FDFC47"/>
<stop offset="1" stop-color="#24FE41" stop-opacity="0"/>
</radialGradient>
<radialGradient id="paint5_radial_9_7742" cx="0" cy="0" r="1" gradientUnits="userSpaceOnUse" gradientTransform="translate(37.1548 30.0764) scale(3.59477)">
<stop stop-color="#FDFC47"/>
<stop offset="1" stop-color="#24FE41" stop-opacity="0"/>
</radialGradient>
<radialGradient id="paint6_radial_9_7742" cx="0" cy="0" r="1" gradientUnits="userSpaceOnUse" gradientTransform="translate(44.5686 15.6968) scale(3.59477)">
<stop stop-color="#FDFC47"/>
<stop offset="1" stop-color="#24FE41" stop-opacity="0"/>
</radialGradient>
<radialGradient id="paint7_radial_9_7742" cx="0" cy="0" r="1" gradientUnits="userSpaceOnUse" gradientTransform="translate(47.7647 20.1327) scale(3.59477)">
<stop stop-color="#FDFC47"/>
<stop offset="1" stop-color="#24FE41" stop-opacity="0"/>
</radialGradient>
<radialGradient id="paint8_radial_9_7742" cx="0" cy="0" r="1" gradientUnits="userSpaceOnUse" gradientTransform="translate(50.6462 36.6531) scale(2.87618)">
<stop stop-color="#FDFC47"/>
<stop offset="1" stop-color="#24FE41" stop-opacity="0"/>
</radialGradient>
<radialGradient id="paint9_radial_9_7742" cx="0" cy="0" r="1" gradientUnits="userSpaceOnUse" gradientTransform="translate(50.2622 40.4809) scale(2.87617 2.87618)">
<stop stop-color="#FDFC47"/>
<stop offset="1" stop-color="#24FE41" stop-opacity="0"/>
</radialGradient>
<radialGradient id="paint10_radial_9_7742" cx="0" cy="0" r="1" gradientUnits="userSpaceOnUse" gradientTransform="translate(41.5513 38.7454) scale(5.21118)">
<stop stop-color="#FDFC47"/>
<stop offset="1" stop-color="#24FE41" stop-opacity="0"/>
</radialGradient>
<radialGradient id="paint11_radial_9_7742" cx="0" cy="0" r="1" gradientUnits="userSpaceOnUse" gradientTransform="translate(30.8008 48.0037) scale(5.21118)">
<stop stop-color="#FDFC47"/>
<stop offset="1" stop-color="#24FE41" stop-opacity="0"/>
</radialGradient>
<radialGradient id="paint12_radial_9_7742" cx="0" cy="0" r="1" gradientUnits="userSpaceOnUse" gradientTransform="translate(20.4128 35.0472) scale(3.23405)">
<stop stop-color="#FDFC47"/>
<stop offset="1" stop-color="#24FE41" stop-opacity="0"/>
</radialGradient>
<radialGradient id="paint13_radial_9_7742" cx="0" cy="0" r="1" gradientUnits="userSpaceOnUse" gradientTransform="translate(38.2857 52.1793) scale(1.96389 1.96389)">
<stop stop-color="#FDFC47"/>
<stop offset="1" stop-color="#24FE41" stop-opacity="0"/>
</radialGradient>
<radialGradient id="paint14_radial_9_7742" cx="0" cy="0" r="1" gradientUnits="userSpaceOnUse" gradientTransform="translate(32.3359 37.9895) scale(2.99827)">
<stop stop-color="#FDFC47"/>
<stop offset="1" stop-color="#24FE41" stop-opacity="0"/>
</radialGradient>
<radialGradient id="paint15_radial_9_7742" cx="0" cy="0" r="1" gradientUnits="userSpaceOnUse" gradientTransform="translate(49.2522 46.0202) scale(1.43682 1.43682)">
<stop stop-color="#FDFC47"/>
<stop offset="1" stop-color="#24FE41" stop-opacity="0"/>
</radialGradient>
<radialGradient id="paint16_radial_9_7742" cx="0" cy="0" r="1" gradientUnits="userSpaceOnUse" gradientTransform="translate(45.8357 43.4592) scale(1.43682 1.43682)">
<stop stop-color="#FDFC47"/>
<stop offset="1" stop-color="#24FE41" stop-opacity="0"/>
</radialGradient>
<clipPath id="clip0_9_7742">
<rect width="64" height="64" fill="white"/>
</clipPath>
</defs>
</svg>
