<svg width="64" height="64" viewBox="0 0 64 64" fill="none" xmlns="http://www.w3.org/2000/svg">
<g clip-path="url(#clip0_9_7785)">
<g opacity="0.35" filter="url(#filter0_f_9_7785)">
<path d="M2.41068 53.4123C1.34238 53.5293 1.36716 54.6262 1.48297 55.722C1.52477 57.1437 1.64453 58.7935 1.8444 60.2733C1.95393 61.5032 3.14762 62.4981 4.76647 62.4981H59.235C60.8538 62.4981 62.0475 61.5032 62.157 60.2733C62.3569 58.7934 62.4766 57.1437 62.5184 55.722C62.6343 54.6262 62.659 53.5295 61.5907 53.4123H6.69671H2.41068Z" fill="black"/>
</g>
<g opacity="0.35" filter="url(#filter1_f_9_7785)">
<path d="M9.03262 28.1464C8.41688 28.1459 7.88432 28.1951 7.4516 28.2983C6.74757 28.4239 6.44937 28.6598 6.2463 29.0436L1.38842 53.8347C1.36457 53.9562 1.38016 54.0745 1.42957 54.1872C1.44935 54.2323 1.47443 54.2765 1.50468 54.3198C1.51979 54.3416 1.53624 54.3629 1.55382 54.3838C1.6066 54.447 1.6705 54.5081 1.74412 54.5664C1.8668 54.6634 2.01661 54.7529 2.18821 54.8328C2.22256 54.8475 2.25769 54.8644 2.2937 54.8796C2.4738 54.9557 2.67457 55.0219 2.89033 55.0762C2.93347 55.0872 2.97704 55.0975 3.02135 55.1076C3.42013 55.1969 3.86415 55.2469 4.32116 55.2469H59.6811C60.7473 55.2469 61.7429 54.9741 62.2581 54.5664C62.3318 54.5081 62.3956 54.447 62.4484 54.3838C62.466 54.3627 62.4825 54.3413 62.4976 54.3198C62.5278 54.2766 62.5529 54.2322 62.5727 54.1873C62.6221 54.0745 62.6377 53.9564 62.6138 53.8347L57.756 29.0436C57.5529 28.6598 57.2547 28.4241 56.5507 28.2984C56.1179 28.1948 55.5852 28.1459 54.9694 28.1464L32.0015 28.1629L9.03262 28.1464Z" fill="black"/>
</g>
<path d="M2.41068 53.4123C1.34238 53.5293 1.36716 54.6262 1.48297 55.722C1.52477 57.1437 1.64453 58.7935 1.8444 60.2733C1.95393 61.5032 3.14762 62.4981 4.76647 62.4981H59.235C60.8538 62.4981 62.0475 61.5032 62.157 60.2733C62.3569 58.7934 62.4766 57.1437 62.5184 55.722C62.6343 54.6262 62.659 53.5295 61.5907 53.4123H6.69671H2.41068Z" fill="#232323"/>
<path opacity="0.35" d="M9.03262 28.1464C8.41688 28.1459 7.88432 28.1962 7.4516 28.302C6.74757 28.4307 6.44937 28.6721 6.2463 29.0651L1.38842 54.4484C1.36457 54.573 1.38016 54.6939 1.42957 54.8093C1.44935 54.8555 1.47443 54.9009 1.50468 54.9452C1.51979 54.9674 1.53624 54.9892 1.55382 55.0109C1.6066 55.0758 1.6705 55.1383 1.74412 55.1977C1.8668 55.2971 2.01661 55.3887 2.18821 55.4705C2.22256 55.4852 2.25769 55.5028 2.2937 55.5184C2.4738 55.5963 2.67457 55.6642 2.89033 55.7197C2.93347 55.7307 2.97704 55.7417 3.02135 55.7518C3.42013 55.8434 3.86415 55.8946 4.32116 55.8946H59.6811C60.7473 55.8946 61.7429 55.6153 62.2581 55.1978C62.3318 55.1382 62.3956 55.0759 62.4484 55.011C62.466 54.9894 62.4825 54.9675 62.4976 54.9454C62.5278 54.9012 62.5529 54.8557 62.5727 54.8095C62.6221 54.694 62.6377 54.5731 62.6138 54.4485L57.756 29.0652C57.5529 28.6722 57.2547 28.4309 56.5507 28.3021C56.1179 28.1962 55.5852 28.1459 54.9694 28.1465L32.0015 28.1657L9.03262 28.1464Z" fill="url(#paint0_linear_9_7785)"/>
<path d="M50.3895 1.6414L50.3894 1.64141C50.3284 1.64784 50.2548 1.69362 50.1744 1.79613C50.0958 1.89636 50.0218 2.03684 49.9574 2.20065C49.8284 2.52818 49.7452 2.92891 49.7323 3.23537M50.3895 1.6414L49.7323 3.23537M50.3895 1.6414C50.4169 1.6385 50.4503 1.64455 50.4911 1.66685L50.5389 1.6929L50.5867 1.66694C50.6285 1.64426 50.6647 1.63951 50.6977 1.6449C50.7323 1.65054 50.7713 1.66864 50.8142 1.70405C50.902 1.77648 50.9899 1.90766 51.0692 2.08042C51.2267 2.42369 51.3312 2.88868 51.3458 3.23537M50.3895 1.6414L51.3458 3.23537M49.7323 3.23537C49.5414 7.77607 49.3642 14.1294 49.2347 19.348C49.17 21.9572 49.1172 24.2826 49.0806 25.9557C49.0623 26.7922 49.048 27.4657 49.0384 27.93L49.0273 28.4639L49.0256 28.5475M49.7323 3.23537L49.0256 28.5475M51.3458 3.23537C51.5367 7.77635 51.7139 14.1297 51.8434 19.3482C51.9081 21.9574 51.9609 24.2827 51.9975 25.9558C52.0158 26.7923 52.0301 27.4657 52.0398 27.93L52.0508 28.4639L52.0525 28.5475M51.3458 3.23537L52.0525 28.5475M52.0525 28.5475H49.0256M52.0525 28.5475H49.0256" fill="#232323" stroke="url(#paint1_linear_9_7785)" stroke-width="0.2"/>
<path d="M13.1128 1.64141L13.1128 1.6414C13.1403 1.6385 13.1736 1.64456 13.2145 1.66685L13.2623 1.6929L13.3101 1.66694C13.3519 1.64426 13.388 1.63951 13.4211 1.6449C13.4557 1.65054 13.4947 1.66864 13.5376 1.70405C13.6254 1.77648 13.7133 1.90766 13.7926 2.08042C13.9501 2.42369 14.0546 2.88868 14.0692 3.23537C14.2601 7.77635 14.4373 14.1297 14.5668 19.3482C14.6315 21.9574 14.6843 24.2827 14.7209 25.9558C14.7392 26.7923 14.7535 27.4657 14.7631 27.93L14.7742 28.4639L14.7759 28.5475H11.749L11.7507 28.4639L11.7617 27.93C11.7714 27.4657 11.7857 26.7922 11.804 25.9557C11.8406 24.2826 11.8934 21.9572 11.9581 19.348C12.0876 14.1294 12.2648 7.77607 12.4557 3.23537C12.4686 2.92891 12.5518 2.52818 12.6807 2.20065C12.7452 2.03684 12.8192 1.89636 12.8978 1.79613C12.9782 1.69362 13.0518 1.64784 13.1128 1.64141Z" fill="#232323" stroke="url(#paint2_linear_9_7785)" stroke-width="0.2"/>
<path d="M9.03262 28.1464C8.41688 28.1459 7.88432 28.1951 7.4516 28.2983C6.74757 28.4239 6.44937 28.6598 6.2463 29.0436L1.38842 53.8347C1.36457 53.9562 1.38016 54.0745 1.42957 54.1872C1.44935 54.2323 1.47443 54.2765 1.50468 54.3198C1.51979 54.3416 1.53624 54.3629 1.55382 54.3838C1.6066 54.447 1.6705 54.5081 1.74412 54.5664C1.8668 54.6634 2.01661 54.7529 2.18821 54.8328C2.22256 54.8475 2.25769 54.8644 2.2937 54.8796C2.4738 54.9557 2.67457 55.0219 2.89033 55.0762C2.93347 55.0872 2.97704 55.0975 3.02135 55.1076C3.42013 55.1969 3.86415 55.2469 4.32116 55.2469H59.6811C60.7473 55.2469 61.7429 54.9741 62.2581 54.5664C62.3318 54.5081 62.3956 54.447 62.4484 54.3838C62.466 54.3627 62.4825 54.3413 62.4976 54.3198C62.5278 54.2766 62.5529 54.2322 62.5727 54.1873C62.6221 54.0745 62.6377 53.9564 62.6138 53.8347L57.756 29.0436C57.5529 28.6598 57.2547 28.4241 56.5507 28.2984C56.1179 28.1948 55.5852 28.1459 54.9694 28.1464L32.0015 28.1629L9.03262 28.1464Z" fill="#232323"/>
<path d="M52.9181 56.8777H11.0844C10.3335 56.8777 9.72485 57.4862 9.72485 58.2367V59.9489C9.72485 60.6994 10.3335 61.3078 11.0844 61.3078H52.9181C53.669 61.3078 54.2776 60.6994 54.2776 59.9489V58.2367C54.2776 57.4862 53.669 56.8777 52.9181 56.8777Z" fill="url(#paint3_linear_9_7785)"/>
<path d="M13.2592 60.4172C13.9991 60.4172 14.5989 59.8176 14.5989 59.0779C14.5989 58.3383 13.9991 57.7386 13.2592 57.7386C12.5193 57.7386 11.9194 58.3383 11.9194 59.0779C11.9194 59.8176 12.5193 60.4172 13.2592 60.4172Z" fill="url(#paint4_linear_9_7785)"/>
<path d="M16.9914 60.4172C17.7313 60.4172 18.3311 59.8176 18.3311 59.0779C18.3311 58.3383 17.7313 57.7386 16.9914 57.7386C16.2514 57.7386 15.6516 58.3383 15.6516 59.0779C15.6516 59.8176 16.2514 60.4172 16.9914 60.4172Z" fill="url(#paint5_linear_9_7785)"/>
<path d="M20.7162 60.4172C21.4562 60.4172 22.056 59.8176 22.056 59.0779C22.056 58.3383 21.4562 57.7386 20.7162 57.7386C19.9763 57.7386 19.3765 58.3383 19.3765 59.0779C19.3765 59.8176 19.9763 60.4172 20.7162 60.4172Z" fill="url(#paint6_linear_9_7785)"/>
<path d="M46.9066 60.4172C47.6466 60.4172 48.2464 59.8176 48.2464 59.0779C48.2464 58.3383 47.6466 57.7386 46.9066 57.7386C46.1667 57.7386 45.5669 58.3383 45.5669 59.0779C45.5669 59.8176 46.1667 60.4172 46.9066 60.4172Z" fill="url(#paint7_linear_9_7785)"/>
<path d="M50.63 60.4172C51.37 60.4172 51.9698 59.8176 51.9698 59.0779C51.9698 58.3383 51.37 57.7386 50.63 57.7386C49.8901 57.7386 49.2903 58.3383 49.2903 59.0779C49.2903 59.8176 49.8901 60.4172 50.63 60.4172Z" fill="url(#paint8_linear_9_7785)"/>
<path d="M11.6469 28.3664C11.1075 28.3659 10.6408 28.4097 10.2617 28.5026C9.64497 28.6154 9.38392 28.8267 9.20602 29.1709L4.95031 51.4024C4.92941 51.5115 4.94301 51.6174 4.98631 51.7185C5.00362 51.7589 5.02571 51.7988 5.05222 51.8377C5.06544 51.8571 5.07971 51.876 5.09514 51.8951C5.14134 51.9519 5.19738 52.0068 5.26186 52.059C5.36934 52.1459 5.50062 52.2262 5.65095 52.2979C5.68107 52.3108 5.71188 52.3262 5.74345 52.3397C5.90122 52.4081 6.07702 52.4673 6.26603 52.5161C6.30376 52.5253 6.34186 52.5356 6.38068 52.5444C6.73002 52.6245 7.11907 52.6692 7.51943 52.6692H18.5015C19.3731 50.7487 21.132 49.068 23.5198 47.8739C25.9076 46.6798 28.7984 46.0353 31.7676 46.0351C34.7345 46.0373 37.6223 46.6826 40.0074 47.8766C42.3925 49.0705 44.1494 50.7502 45.0203 52.6692H56.0156C56.9496 52.6692 57.8217 52.4247 58.2731 52.0591C58.3376 52.0068 58.3936 51.9523 58.4398 51.8955C58.4552 51.8763 58.4695 51.8574 58.4828 51.8379C58.5092 51.7991 58.5313 51.7594 58.5487 51.7189C58.5919 51.6179 58.6056 51.5119 58.5847 51.4028L54.329 29.1713C54.1511 28.8271 53.8898 28.6158 53.2731 28.503C52.894 28.4103 52.4272 28.3661 51.8878 28.3666L31.7666 28.3813L11.6469 28.3664Z" fill="url(#paint9_linear_9_7785)"/>
<path opacity="0.8" d="M49.1781 29.6865H14.3563C14.1343 29.6865 13.9543 29.8664 13.9543 30.0882C13.9543 30.3101 14.1343 30.4901 14.3563 30.4901H49.1781C49.4001 30.4901 49.5801 30.3101 49.5801 30.0882C49.5801 29.8664 49.4001 29.6865 49.1781 29.6865Z" fill="#232323"/>
<path d="M27.6047 50.7431H27.9723L28.4376 51.6477L28.9052 50.7431H29.2728V52.0725H29.0322V50.9052L28.5621 51.8169H28.3142L27.8441 50.9052V52.0725H27.6047L27.6047 50.7431Z" fill="url(#paint10_linear_9_7785)"/>
<path d="M30.2839 51.1899C30.1634 51.1899 30.0682 51.2243 29.9982 51.2931C29.9282 51.3614 29.8931 51.4552 29.8931 51.5745C29.8931 51.6938 29.9277 51.7879 29.9969 51.8568C30.067 51.925 30.1626 51.9592 30.2839 51.9592C30.4036 51.9592 30.4984 51.9247 30.5684 51.8559C30.6384 51.787 30.6735 51.6932 30.6735 51.5745C30.6735 51.4564 30.6384 51.3629 30.5684 51.294C30.4984 51.2246 30.4036 51.1899 30.2839 51.1899ZM30.2839 51.051C30.4793 51.051 30.6327 51.0973 30.7443 51.1899C30.8558 51.2825 30.9116 51.4107 30.9116 51.5745C30.9116 51.7377 30.8558 51.866 30.7443 51.9592C30.6328 52.0518 30.4793 52.0981 30.2839 52.0981C30.0877 52.0981 29.9339 52.0518 29.8223 51.9592C29.7116 51.866 29.6562 51.7377 29.6562 51.5745C29.6562 51.4107 29.7116 51.2825 29.8223 51.1899C29.9339 51.0973 30.0877 51.051 30.2839 51.051Z" fill="url(#paint11_linear_9_7785)"/>
<path d="M32.183 51.2278V50.6882H32.4077V52.0737H32.183V51.9241C32.1358 51.9835 32.0759 52.0277 32.0035 52.0568C31.9318 52.0853 31.8455 52.0995 31.7446 52.0995C31.5793 52.0995 31.4446 52.0515 31.3404 51.9553C31.237 51.8591 31.1853 51.7327 31.1853 51.576C31.1853 51.4193 31.237 51.2928 31.3404 51.1967C31.4446 51.1005 31.5793 51.0524 31.7446 51.0524C31.8455 51.0524 31.9318 51.067 32.0035 51.096C32.0759 51.1245 32.1358 51.1685 32.183 51.2278ZM31.4173 51.576C31.4173 51.6965 31.4511 51.7912 31.5187 51.86C31.5871 51.9283 31.6807 51.9624 31.7996 51.9624C31.9184 51.9624 32.012 51.9283 32.0804 51.86C32.1488 51.7912 32.183 51.6965 32.183 51.576C32.183 51.4555 32.1488 51.3611 32.0804 51.2928C32.012 51.224 31.9184 51.1895 31.7996 51.1895C31.6807 51.1895 31.5871 51.224 31.5187 51.2928C31.4511 51.3611 31.4173 51.4555 31.4173 51.576Z" fill="url(#paint12_linear_9_7785)"/>
<path d="M34.0403 51.5355V51.6156H33.0072C33.0169 51.7284 33.0633 51.8145 33.1464 51.8738C33.2302 51.9326 33.3466 51.962 33.4956 51.962C33.5819 51.962 33.6654 51.9543 33.7459 51.9388C33.8274 51.9234 33.908 51.9003 33.9877 51.8694V52.0243C33.9071 52.0492 33.8245 52.0682 33.7398 52.0813C33.6552 52.0943 33.5693 52.1009 33.4822 52.1009C33.264 52.1009 33.091 52.0546 32.9632 51.962C32.8362 51.8694 32.7727 51.7441 32.7727 51.5862C32.7727 51.423 32.8329 51.2936 32.9534 51.198C33.0747 51.1019 33.238 51.0538 33.4431 51.0538C33.6271 51.0538 33.7724 51.0971 33.879 51.1838C33.9865 51.2698 34.0403 51.3871 34.0403 51.5355ZM33.8156 51.4874C33.8139 51.3977 33.7793 51.3262 33.7118 51.2728C33.645 51.2194 33.5563 51.1927 33.4456 51.1927C33.3202 51.1927 33.2196 51.2185 33.1439 51.2701C33.069 51.3218 33.0259 51.3945 33.0145 51.4883L33.8156 51.4874Z" fill="url(#paint13_linear_9_7785)"/>
<path d="M35.4738 51.2699C35.5299 51.1963 35.5971 51.142 35.6752 51.107C35.7534 51.072 35.8454 51.0545 35.9512 51.0545C36.0937 51.0545 36.2036 51.091 36.2809 51.164C36.3583 51.2364 36.3969 51.3397 36.3969 51.4738V52.0758H36.171V51.4792C36.171 51.3836 36.1478 51.3127 36.1014 51.2664C36.055 51.2201 35.9842 51.1969 35.8889 51.1969C35.7725 51.1969 35.6805 51.2251 35.613 51.2815C35.5454 51.3379 35.5116 51.4148 35.5116 51.5121V52.0758H35.2857V51.4792C35.2857 51.383 35.2625 51.3121 35.2161 51.2664C35.1697 51.2201 35.0981 51.1969 35.0012 51.1969C34.8864 51.1969 34.7952 51.2254 34.7277 51.2824C34.6601 51.3388 34.6263 51.4154 34.6263 51.5121V52.0757H34.4004V51.0785H34.6263V51.2334C34.6776 51.1723 34.7391 51.1272 34.8107 51.0981C34.8823 51.069 34.9674 51.0544 35.0659 51.0544C35.1652 51.0544 35.2495 51.0728 35.3187 51.1097C35.3887 51.1465 35.4404 51.1999 35.4738 51.2699Z" fill="url(#paint14_linear_9_7785)"/>
</g>
<defs>
<filter id="filter0_f_9_7785" x="-0.00508964" y="51.9785" width="64.0116" height="11.9534" filterUnits="userSpaceOnUse" color-interpolation-filters="sRGB">
<feFlood flood-opacity="0" result="BackgroundImageFix"/>
<feBlend mode="normal" in="SourceGraphic" in2="BackgroundImageFix" result="shape"/>
<feGaussianBlur stdDeviation="0.7169" result="effect1_foregroundBlur_9_7785"/>
</filter>
<filter id="filter1_f_9_7785" x="-0.0563592" y="26.7126" width="64.1149" height="29.9682" filterUnits="userSpaceOnUse" color-interpolation-filters="sRGB">
<feFlood flood-opacity="0" result="BackgroundImageFix"/>
<feBlend mode="normal" in="SourceGraphic" in2="BackgroundImageFix" result="shape"/>
<feGaussianBlur stdDeviation="0.7169" result="effect1_foregroundBlur_9_7785"/>
</filter>
<linearGradient id="paint0_linear_9_7785" x1="1.37744" y1="42.0205" x2="62.6248" y2="42.0205" gradientUnits="userSpaceOnUse">
<stop stop-color="#FDFC47"/>
<stop offset="1" stop-color="#24FE41"/>
</linearGradient>
<linearGradient id="paint1_linear_9_7785" x1="48.9236" y1="15.0941" x2="52.1545" y2="15.0941" gradientUnits="userSpaceOnUse">
<stop stop-color="#FDFC47"/>
<stop offset="1" stop-color="#24FE41"/>
</linearGradient>
<linearGradient id="paint2_linear_9_7785" x1="11.647" y1="15.0941" x2="14.8779" y2="15.0941" gradientUnits="userSpaceOnUse">
<stop stop-color="#FDFC47"/>
<stop offset="1" stop-color="#24FE41"/>
</linearGradient>
<linearGradient id="paint3_linear_9_7785" x1="29.6681" y1="57.1073" x2="29.786" y2="61.184" gradientUnits="userSpaceOnUse">
<stop stop-color="#1A1A1A"/>
<stop offset="1" stop-color="#4D4D4D"/>
</linearGradient>
<linearGradient id="paint4_linear_9_7785" x1="11.9194" y1="59.0779" x2="14.5989" y2="59.0779" gradientUnits="userSpaceOnUse">
<stop stop-color="#FDFC47"/>
<stop offset="1" stop-color="#24FE41"/>
</linearGradient>
<linearGradient id="paint5_linear_9_7785" x1="15.6516" y1="59.0779" x2="18.3311" y2="59.0779" gradientUnits="userSpaceOnUse">
<stop stop-color="#FDFC47"/>
<stop offset="1" stop-color="#24FE41"/>
</linearGradient>
<linearGradient id="paint6_linear_9_7785" x1="19.3765" y1="59.0779" x2="22.056" y2="59.0779" gradientUnits="userSpaceOnUse">
<stop stop-color="#FDFC47"/>
<stop offset="1" stop-color="#24FE41"/>
</linearGradient>
<linearGradient id="paint7_linear_9_7785" x1="45.5669" y1="59.0779" x2="48.2464" y2="59.0779" gradientUnits="userSpaceOnUse">
<stop stop-color="#FDFC47"/>
<stop offset="1" stop-color="#24FE41"/>
</linearGradient>
<linearGradient id="paint8_linear_9_7785" x1="49.2903" y1="59.0779" x2="51.9698" y2="59.0779" gradientUnits="userSpaceOnUse">
<stop stop-color="#FDFC47"/>
<stop offset="1" stop-color="#24FE41"/>
</linearGradient>
<linearGradient id="paint9_linear_9_7785" x1="4.94067" y1="40.5178" x2="58.5943" y2="40.5178" gradientUnits="userSpaceOnUse">
<stop stop-color="#FDFC47"/>
<stop offset="1" stop-color="#24FE41"/>
</linearGradient>
<linearGradient id="paint10_linear_9_7785" x1="27.6047" y1="51.4078" x2="29.2728" y2="51.4078" gradientUnits="userSpaceOnUse">
<stop stop-color="#FDFC47"/>
<stop offset="1" stop-color="#24FE41"/>
</linearGradient>
<linearGradient id="paint11_linear_9_7785" x1="29.6562" y1="51.5745" x2="30.9116" y2="51.5745" gradientUnits="userSpaceOnUse">
<stop stop-color="#FDFC47"/>
<stop offset="1" stop-color="#24FE41"/>
</linearGradient>
<linearGradient id="paint12_linear_9_7785" x1="31.1853" y1="51.3939" x2="32.4077" y2="51.3939" gradientUnits="userSpaceOnUse">
<stop stop-color="#FDFC47"/>
<stop offset="1" stop-color="#24FE41"/>
</linearGradient>
<linearGradient id="paint13_linear_9_7785" x1="32.7727" y1="51.5773" x2="34.0403" y2="51.5773" gradientUnits="userSpaceOnUse">
<stop stop-color="#FDFC47"/>
<stop offset="1" stop-color="#24FE41"/>
</linearGradient>
<linearGradient id="paint14_linear_9_7785" x1="34.4004" y1="51.5651" x2="36.3969" y2="51.5651" gradientUnits="userSpaceOnUse">
<stop stop-color="#FDFC47"/>
<stop offset="1" stop-color="#24FE41"/>
</linearGradient>
<clipPath id="clip0_9_7785">
<rect width="64" height="64" fill="white"/>
</clipPath>
</defs>
</svg>
