<svg width="22" height="22" viewBox="0 0 22 22" fill="none" xmlns="http://www.w3.org/2000/svg">
<path d="M19 11C19 6.58172 15.4183 3 11 3C6.58172 3 3 6.58172 3 11C3 15.4183 6.58172 19 11 19C15.4183 19 19 15.4183 19 11Z" fill="url(#paint0_linear_10_19672)"/>
<path d="M7.80005 13.4001C7.80005 14.2488 8.13719 15.0627 8.73731 15.6628C9.33742 16.263 10.1514 16.6001 11 16.6001C11.8487 16.6001 12.6627 16.263 13.2628 15.6628C13.8629 15.0627 14.2 14.2488 14.2 13.4001C14.2 12.5514 13.8629 11.7375 13.2628 11.1374C12.6627 10.5372 11.8487 10.2001 11 10.2001C10.1514 10.2001 9.33742 10.5372 8.73731 11.1374C8.13719 11.7375 7.80005 12.5514 7.80005 13.4001ZM9.40005 13.4001C9.40005 12.9758 9.56862 12.5688 9.86868 12.2687C10.1687 11.9687 10.5757 11.8001 11 11.8001C11.4244 11.8001 11.8314 11.9687 12.1314 12.2687C12.4315 12.5688 12.6 12.9758 12.6 13.4001C12.6 13.8244 12.4315 14.2314 12.1314 14.5315C11.8314 14.8315 11.4244 15.0001 11 15.0001C10.5757 15.0001 10.1687 14.8315 9.86868 14.5315C9.56862 14.2314 9.40005 13.8244 9.40005 13.4001Z" fill="white"/>
<path d="M10.2 11.8003V5.40029H11.8V11.8003H10.2ZM11.8 8.20029V6.60029H13.4V8.20029H11.8Z" fill="white"/>
<defs>
<linearGradient id="paint0_linear_10_19672" x1="11" y1="19" x2="11" y2="3" gradientUnits="userSpaceOnUse">
<stop stop-color="#56AB2F"/>
<stop offset="1" stop-color="#A8E063"/>
</linearGradient>
</defs>
</svg>
