<svg width="22" height="22" viewBox="0 0 22 22" fill="none" xmlns="http://www.w3.org/2000/svg">
<path opacity="0.1" d="M11.0001 3.23208C15.4178 3.23208 18.999 6.81333 18.999 11.231C18.999 15.6487 15.4178 19.23 11.0001 19.23C6.58237 19.23 3.00112 15.6487 3.00112 11.231C3.00112 6.81333 6.58237 3.23208 11.0001 3.23208Z" stroke="#232323" stroke-width="1.50001"/>
<path opacity="0.2" d="M11.0001 3.23208C15.4178 3.23208 18.999 6.81333 18.999 11.231C18.999 15.6487 15.4178 19.23 11.0001 19.23C6.58237 19.23 3.00112 15.6487 3.00112 11.231C3.00112 6.81333 6.58237 3.23208 11.0001 3.23208Z" stroke="#232323" stroke-width="0.500017"/>
<path d="M11.0001 3.01196C15.4179 3.01196 18.9993 6.59336 18.9993 11.0112C18.9993 15.429 15.4179 19.0103 11.0001 19.0103C6.58232 19.0103 3.00099 15.429 3.00099 11.0112C3.00099 6.59336 6.58232 3.01196 11.0001 3.01196Z" fill="url(#paint0_linear_10_19729)"/>
<path d="M6.99951 10.0039H15.0005V15.0041H6.99951V10.0039Z" fill="white"/>
<path d="M11.002 6.50049H10.9982C9.61848 6.50049 8.5 7.61901 8.5 8.99873V11.0018C8.5 12.3815 9.61848 13.4999 10.9982 13.4999H11.002C12.3817 13.4999 13.5002 12.3815 13.5002 11.0018V8.99873C13.5002 7.61901 12.3817 6.50049 11.002 6.50049Z" stroke="white" stroke-width="1.00155" stroke-linejoin="round"/>
<defs>
<linearGradient id="paint0_linear_10_19729" x1="11.0001" y1="19.0103" x2="11.0001" y2="3.01196" gradientUnits="userSpaceOnUse">
<stop stop-color="#FF8008"/>
<stop offset="1" stop-color="#FFC837"/>
</linearGradient>
</defs>
</svg>
