<svg width="22" height="22" viewBox="0 0 22 22" fill="none" xmlns="http://www.w3.org/2000/svg">
<path d="M10.9982 3.00098L3.3638 7.92929L3.31845 7.96331L3.30711 7.97092C3.21185 8.04544 3.13478 8.14054 3.08175 8.24923C3.02871 8.35793 3.00109 8.47731 3.00098 8.59825V16.1949C3.00098 16.6409 3.35624 16.9999 3.79843 16.9999H18.198C18.3034 17.0004 18.4078 16.98 18.5052 16.9399C18.6027 16.8998 18.6912 16.8408 18.7657 16.7663C18.8402 16.6918 18.8992 16.6033 18.9393 16.5059C18.9794 16.4084 18.9998 16.3041 18.9993 16.1987V8.59825C18.9994 8.47408 18.9704 8.35163 18.9146 8.2407C18.8588 8.12977 18.7778 8.03342 18.678 7.9595H18.6818L10.9982 3.00098Z" fill="#232323"/>
<path d="M16.9999 5.00391H5.00024V15.0042H16.9999V5.00391Z" fill="#F9F9F9"/>
<path d="M3.00098 8.59814L18.198 18.9992H3.85513C3.79843 18.9992 3.00098 18.9991 3.00098 18.1412V8.59814Z" fill="#232323"/>
<path d="M18.1412 18.9992C18.9992 18.9992 18.9992 18.1412 18.9992 18.1412V8.59814L3.79834 18.9992H18.1412Z" fill="#232323"/>
</svg>
