<svg width="22" height="22" viewBox="0 0 22 22" fill="none" xmlns="http://www.w3.org/2000/svg">
<path d="M11 19C15.4183 19 19 15.4183 19 11C19 6.58172 15.4183 3 11 3C6.58172 3 3 6.58172 3 11C3 15.4183 6.58172 19 11 19Z" fill="#232323"/>
<path d="M12 7C12 6.44772 11.5523 6 11 6C10.4477 6 10 6.44772 10 7V11C10 11.5523 10.4477 12 11 12C11.5523 12 12 11.5523 12 11V7Z" fill="white"/>
<path opacity="0.5" d="M10.9751 10.2681V11.6821L14.1451 14.8541C14.1917 14.9006 14.2471 14.9375 14.308 14.9627C14.3688 14.9879 14.4341 15.0008 14.5 15.0008C14.5659 15.0007 14.6311 14.9877 14.6919 14.9624C14.7528 14.9372 14.8081 14.9002 14.8546 14.8536C14.9012 14.8069 14.9381 14.7516 14.9633 14.6907C14.9884 14.6298 15.0014 14.5646 15.0013 14.4987C15.0013 14.4328 14.9882 14.3676 14.963 14.3068C14.9377 14.2459 14.9007 14.1906 14.8541 14.1441L10.9741 10.2681H10.9751Z" fill="white"/>
</svg>
