<svg width="22" height="22" viewBox="0 0 22 22" fill="none" xmlns="http://www.w3.org/2000/svg">
<path opacity="0.1" d="M10.9999 3.2317C15.4177 3.2317 18.999 6.81304 18.999 11.2308C18.999 15.6486 15.4177 19.23 10.9999 19.23C6.58208 19.23 3.00074 15.6486 3.00074 11.2308C3.00074 6.81304 6.58208 3.2317 10.9999 3.2317Z" stroke="#232323" stroke-width="1.50001"/>
<path opacity="0.2" d="M10.9999 3.2317C15.4177 3.2317 18.999 6.81304 18.999 11.2308C18.999 15.6486 15.4177 19.23 10.9999 19.23C6.58208 19.23 3.00074 15.6486 3.00074 11.2308C3.00074 6.81304 6.58208 3.2317 10.9999 3.2317Z" stroke="#232323" stroke-width="0.500017"/>
<path d="M10.9999 3.00074C15.4177 3.00074 18.999 6.58208 18.999 10.9999C18.999 15.4177 15.4177 18.999 10.9999 18.999C6.58208 18.999 3.00074 15.4177 3.00074 10.9999C3.00074 6.58208 6.58208 3.00074 10.9999 3.00074Z" fill="#232323"/>
<path d="M12.4143 9.5857C12.2931 9.46452 12.1628 9.35904 12.0248 9.26807L11.2901 10.0028C11.4395 10.0752 11.5818 10.1674 11.7072 10.2928C12.3009 10.8865 12.3009 11.8204 11.7072 12.4141L9.58591 14.5354C8.9922 15.1291 8.05831 15.1291 7.4646 14.5354C6.87089 13.9417 6.87089 13.0078 7.4646 12.4141L8.0695 11.8092C7.93301 11.4183 7.85845 11.011 7.86372 10.6008L6.75752 11.707C5.78428 12.6803 5.78428 14.2693 6.75752 15.2425C7.73075 16.2157 9.31981 16.2157 10.293 15.2425L12.4143 13.1212C13.3876 12.148 13.3876 10.5589 12.4143 9.5857Z" fill="white"/>
<path d="M9.58586 12.4141C9.70704 12.5353 9.8374 12.6408 9.97533 12.7318L10.71 11.997C10.5607 11.9246 10.4184 11.8324 10.293 11.707C9.69928 11.1133 9.69928 10.1794 10.293 9.58568L12.4143 7.46436C13.008 6.87065 13.9419 6.87065 14.5356 7.46436C15.1293 8.05807 15.1293 8.99197 14.5356 9.58568L13.9307 10.1906C14.0672 10.5815 14.1418 10.9887 14.1365 11.399L15.2427 10.2928C16.2159 9.31953 16.2159 7.73047 15.2427 6.75727C14.2695 5.78403 12.6804 5.78403 11.7072 6.75727L9.58589 8.87859C8.61265 9.85182 8.61262 11.4409 9.58586 12.4141Z" fill="white"/>
</svg>
