<svg width="22" height="22" viewBox="0 0 22 22" fill="none" xmlns="http://www.w3.org/2000/svg">
<path d="M11.0038 3.00085C15.4216 3.00085 19.0029 6.58213 19.0029 10.9999C19.0029 15.4177 15.4216 18.999 11.0038 18.999C6.58598 18.999 3.00465 15.4177 3.00465 10.9999C3.00465 6.58213 6.58598 3.00085 11.0038 3.00085Z" fill="#673AB7"/>
<path d="M12.5023 6.99951C12.1043 6.99951 11.7227 7.15757 11.4413 7.43895C11.1599 7.72034 11.0018 8.10201 11.0018 8.49995C11.0018 8.61334 11.0245 8.71915 11.051 8.82498L9.44094 9.82658C9.22024 9.65002 8.95416 9.5393 8.67334 9.50732C8.39253 9.47535 8.10839 9.52341 7.85365 9.64584C7.59891 9.76827 7.38393 9.9601 7.23347 10.1994C7.083 10.4386 7.00317 10.7156 7.00317 10.9982C7.00317 11.2808 7.083 11.5577 7.23347 11.7969C7.38393 12.0362 7.59891 12.2281 7.85365 12.3505C8.10839 12.473 8.39253 12.5209 8.67334 12.4889C8.95416 12.457 9.22024 12.3464 9.44094 12.1698L11.051 13.1713C11.0222 13.2774 11.0057 13.3864 11.0018 13.4963C11.0011 13.8362 11.1159 14.1663 11.3273 14.4325C11.5387 14.6987 11.8343 14.8853 12.1655 14.9616C12.4968 15.0379 12.8442 14.9994 13.1507 14.8525C13.4572 14.7056 13.7048 14.4589 13.8529 14.1529C14.001 13.8469 14.0407 13.4997 13.9657 13.1682C13.8906 12.8366 13.7052 12.5403 13.4399 12.3279C13.1745 12.1155 12.8448 11.9996 12.5049 11.999C12.1649 11.9984 11.8349 12.1132 11.5688 12.3247L9.95494 11.3269C9.98399 11.2196 10.0005 11.1093 10.0041 10.9982C10.0005 10.8871 9.98399 10.7767 9.95494 10.6694L11.565 9.67156C11.7522 9.82133 11.9725 9.92401 12.2076 9.9711C12.4426 10.0182 12.6856 10.0084 12.916 9.94226C13.1464 9.87617 13.3577 9.75581 13.532 9.59129C13.7064 9.42676 13.8388 9.22282 13.9182 8.9966C13.9975 8.77039 14.0215 8.52847 13.9881 8.29107C13.9547 8.05368 13.865 7.82771 13.7263 7.63214C13.5877 7.43658 13.4042 7.27705 13.1912 7.16698C12.9782 7.05692 12.742 6.99951 12.5023 6.99951Z" fill="white"/>
</svg>
