<svg width="16" height="16" viewBox="0 0 16 16" fill="none" xmlns="http://www.w3.org/2000/svg">
<g clip-path="url(#clip0_9_1302)">
<path d="M7.70896 0.00390919C6.61886 0.0195852 5.35726 0.206499 4.24996 0.792969C3.14266 1.37944 2.17566 2.54877 2.20506 4.08397C2.21983 4.85689 2.45825 5.53617 2.89061 5.99417C3.32296 6.45211 3.84727 6.63654 4.25391 6.74612C4.66053 6.85571 4.99031 6.91287 5.13672 6.96682C5.14451 6.96969 5.14049 6.96582 5.14453 6.96682C5.35988 6.70693 5.576 6.45167 5.79492 6.2012C5.00693 5.63741 3.24242 6.12098 3.20312 4.0645C3.15884 1.7522 5.77592 1.0319 7.72262 1.004C7.85271 1.00213 8.00225 0.999329 8.12496 1.004C8.85217 1.02807 9.67756 1.2206 10.4512 1.56455C10.735 1.32123 11.0101 1.10179 11.2891 0.873139C10.2777 0.339839 9.18025 0.0378292 8.15815 0.00399919C7.99193 -0.00207381 7.83405 0.00211119 7.70896 0.00390919ZM14.0371 0.00390919C12.2371 1.30291 9.83176 3.30591 7.92376 5.33791C7.7522 5.51746 7.58356 5.69978 7.4179 5.88479C7.3149 5.99179 7.20645 6.07943 7.10345 6.19143C7.03845 6.26843 6.97604 6.35466 6.91204 6.43166C5.97604 7.46666 5.04644 8.63576 4.20114 9.79106C3.87108 10.2421 3.56919 10.6835 3.2695 11.1212C2.95664 10.9616 2.56559 10.9392 2.1484 11.2149C1.3944 11.7129 1.55196 13.4991 0 13.4981C0.147 14.1001 1.7356 14.0923 2.8086 13.8243C3.8216 13.5713 4.1325 12.6825 3.9395 11.9395C3.91274 11.8366 3.84476 11.7339 3.78325 11.6309C5.76775 9.98739 7.18135 8.61449 8.14265 7.59379C8.38265 7.34779 8.67321 7.02696 8.99421 6.66996C10.1982 5.33496 11.9191 3.23291 14.0371 0.00390919ZM5.98826 2.00001C4.65266 1.99912 3.98406 3.61371 4.92776 4.55861C5.8714 5.50351 7.48546 4.83557 7.48636 3.50001C7.48636 2.67101 6.81521 2.00001 5.98826 2.00001ZM13.4981 2.56446C13.3036 2.84023 13.1236 3.08621 12.9375 3.3418C14.0405 4.5846 15.0237 6.349 15.1758 8.293C15.5596 13.1789 11.7508 15.5863 8.15431 14.8809C5.90951 14.4414 5.58361 13.2326 5.16211 11.877C5.15307 11.8479 5.15014 11.8183 5.14258 11.7891C4.87532 12.0177 4.60363 12.2463 4.3125 12.4864C4.49587 13.0802 4.70474 13.7263 5.18945 14.3419C5.75782 15.0637 6.67985 15.6102 7.96285 15.8614C10.0368 16.2676 12.194 15.7843 13.7968 14.4532C15.4001 13.1216 16.3869 10.9282 16.1738 8.21488C16 5.99348 15.1038 4.36348 13.6758 2.74808C13.6194 2.68426 13.5551 2.6279 13.4981 2.56446ZM13.6016 6.00196C12.2683 6.00196 12.2683 8.00196 13.6016 8.00196C14.9349 8.00196 14.9349 6.00196 13.6016 6.00196ZM12.9766 9.00196C11.6433 9.00196 11.6433 11.002 12.9766 11.002C14.3099 11.002 14.3099 9.00196 12.9766 9.00196ZM7.98638 11.002C6.65308 11.002 6.65308 13.002 7.98638 13.002C9.27758 12.9611 9.27758 11.0428 7.98638 11.002ZM10.9805 11.002C9.64718 11.002 9.64718 13.002 10.9805 13.002C12.2717 12.9611 12.2717 11.0428 10.9805 11.002Z" fill="url(#paint0_linear_9_1302)"/>
</g>
<defs>
<linearGradient id="paint0_linear_9_1302" x1="0" y1="8.00094" x2="16.2027" y2="8.00094" gradientUnits="userSpaceOnUse">
<stop stop-color="#FDFC47"/>
<stop offset="1" stop-color="#24FE41"/>
</linearGradient>
<clipPath id="clip0_9_1302">
<rect width="16" height="16" fill="white"/>
</clipPath>
</defs>
</svg>
