<svg width="16" height="16" viewBox="0 0 16 16" fill="none" xmlns="http://www.w3.org/2000/svg">
<path d="M2.5 1C1.678 1 1 1.678 1 2.5V13.5C1 14.322 1.678 15 2.5 15H13.5C14.322 15 15 14.322 15 13.5V2.5C15 1.678 14.322 1 13.5 1H2.5ZM2.5 2H13.5C13.786 2 14 2.214 14 2.5V13.5C14 13.786 13.786 14 13.5 14H2.5C2.43389 14.0016 2.36813 13.9898 2.30673 13.9653C2.24532 13.9408 2.18954 13.904 2.14278 13.8572C2.09602 13.8105 2.05925 13.7547 2.03471 13.6933C2.01016 13.6319 1.99835 13.5661 2 13.5V2.5C2 2.214 2.214 2 2.5 2ZM7.201 4.002V5.189L7.025 5.252C6.943 5.282 6.85 5.327 6.75 5.375L6.582 5.457L5.748 4.625C5.748 4.622 5.738 4.621 5.736 4.619C5.736 4.621 5.725 4.623 5.725 4.625L4.625 5.725C4.636 5.714 4.636 5.755 4.625 5.745L5.457 6.58L5.375 6.75C5.327 6.85 5.283 6.942 5.254 7.023L5.189 7.201H4V8.799H5.19L5.254 8.977C5.283 9.057 5.326 9.15 5.375 9.25L5.457 9.42L4.625 10.256C4.636 10.246 4.636 10.286 4.625 10.276L5.725 11.375C5.714 11.365 5.758 11.365 5.748 11.375L6.582 10.543L6.75 10.625C6.849 10.672 6.943 10.718 7.025 10.748L7.201 10.81V11.998H8.801V10.81L8.978 10.748C9.06 10.718 9.152 10.673 9.252 10.625L9.424 10.543L10.256 11.375C10.245 11.365 10.29 11.365 10.279 11.375L11.379 10.275C11.367 10.286 11.367 10.245 11.379 10.255L10.544 9.42L10.626 9.25C10.674 9.15 10.718 9.058 10.748 8.976L10.812 8.799H12V7.2H10.812L10.748 7.022C10.713 6.9289 10.6729 6.83776 10.628 6.749L10.545 6.579L11.379 5.743C11.369 5.753 11.369 5.713 11.379 5.723L10.279 4.624C10.291 4.634 10.246 4.634 10.258 4.624L9.424 5.456L9.254 5.374C9.154 5.326 9.061 5.281 8.978 5.251L8.803 5.188V4.001L7.201 4.002ZM8.002 6.668C8.735 6.668 9.334 7.268 9.334 8C9.334 8.733 8.734 9.332 8.002 9.332C7.269 9.332 6.668 8.732 6.668 8C6.668 7.267 7.269 6.668 8.002 6.668Z" fill="url(#paint0_linear_9_1310)"/>
<defs>
<linearGradient id="paint0_linear_9_1310" x1="1" y1="8" x2="15" y2="8" gradientUnits="userSpaceOnUse">
<stop stop-color="#FDFC47"/>
<stop offset="1" stop-color="#24FE41"/>
</linearGradient>
</defs>
</svg>
