<svg width="16" height="16" viewBox="0 0 16 16" fill="none" xmlns="http://www.w3.org/2000/svg">
<path d="M8.229 1.08395L4.223 4.08395C4.13375 4.14347 4.066 4.23011 4.02977 4.33108C3.99354 4.43205 3.99074 4.542 4.02179 4.64468C4.05284 4.74736 4.1161 4.83734 4.20221 4.90131C4.28832 4.96529 4.39272 4.99987 4.5 4.99995H5V6.99995H1.5C1.223 6.99995 1 7.22295 1 7.49995V13.5C1 13.777 1.223 14 1.5 14H6.5C6.777 14 7 13.777 7 13.5V11C7 11 7 9.99995 8 9.99995H9C10 9.99995 10 11 10 11V13.5C10 13.777 10.223 14 10.5 14H15.5C15.777 14 16 13.777 16 13.5V7.49995C16 7.22295 15.777 6.99995 15.5 6.99995H12V4.99995H12.5C12.6073 4.99987 12.7117 4.96529 12.7978 4.90131C12.8839 4.83734 12.9472 4.74736 12.9782 4.64468C13.0093 4.542 13.0065 4.43205 12.9702 4.33108C12.934 4.23011 12.8663 4.14347 12.777 4.08395L8.783 1.08395C8.70083 1.02913 8.60427 0.999878 8.5055 0.999878C8.40673 0.999878 8.31016 1.02913 8.228 1.08395H8.229ZM6.25 4.99995H6.75C6.8163 4.99995 6.87989 5.02629 6.92678 5.07318C6.97366 5.12006 7 5.18365 7 5.24995V6.74995C7 6.81626 6.97366 6.87985 6.92678 6.92673C6.87989 6.97361 6.8163 6.99995 6.75 6.99995H6.25C6.1837 6.99995 6.12011 6.97361 6.07322 6.92673C6.02634 6.87985 6 6.81626 6 6.74995V5.24995C6 5.18365 6.02634 5.12006 6.07322 5.07318C6.12011 5.02629 6.1837 4.99995 6.25 4.99995ZM8.25 4.99995H8.75C8.8163 4.99995 8.87989 5.02629 8.92678 5.07318C8.97366 5.12006 9 5.18365 9 5.24995V6.74995C9 6.81626 8.97366 6.87985 8.92678 6.92673C8.87989 6.97361 8.8163 6.99995 8.75 6.99995H8.25C8.1837 6.99995 8.12011 6.97361 8.07322 6.92673C8.02634 6.87985 8 6.81626 8 6.74995V5.24995C8 5.18365 8.02634 5.12006 8.07322 5.07318C8.12011 5.02629 8.1837 4.99995 8.25 4.99995ZM10.25 4.99995H10.75C10.8163 4.99995 10.8799 5.02629 10.9268 5.07318C10.9737 5.12006 11 5.18365 11 5.24995V6.74995C11 6.81626 10.9737 6.87985 10.9268 6.92673C10.8799 6.97361 10.8163 6.99995 10.75 6.99995H10.25C10.1837 6.99995 10.1201 6.97361 10.0732 6.92673C10.0263 6.87985 10 6.81626 10 6.74995V5.24995C10 5.18365 10.0263 5.12006 10.0732 5.07318C10.1201 5.02629 10.1837 4.99995 10.25 4.99995ZM2.25 7.99995H2.75C2.8163 7.99995 2.87989 8.02629 2.92678 8.07318C2.97366 8.12006 3 8.18365 3 8.24995V9.74995C3 9.81626 2.97366 9.87985 2.92678 9.92673C2.87989 9.97361 2.8163 9.99995 2.75 9.99995H2.25C2.1837 9.99995 2.12011 9.97361 2.07322 9.92673C2.02634 9.87985 2 9.81626 2 9.74995V8.24995C2 8.18365 2.02634 8.12006 2.07322 8.07318C2.12011 8.02629 2.1837 7.99995 2.25 7.99995ZM4.25 7.99995H4.75C4.8163 7.99995 4.87989 8.02629 4.92678 8.07318C4.97366 8.12006 5 8.18365 5 8.24995V9.74995C5 9.81626 4.97366 9.87985 4.92678 9.92673C4.87989 9.97361 4.8163 9.99995 4.75 9.99995H4.25C4.1837 9.99995 4.12011 9.97361 4.07322 9.92673C4.02634 9.87985 4 9.81626 4 9.74995V8.24995C4 8.18365 4.02634 8.12006 4.07322 8.07318C4.12011 8.02629 4.1837 7.99995 4.25 7.99995ZM12.25 7.99995H12.75C12.8163 7.99995 12.8799 8.02629 12.9268 8.07318C12.9737 8.12006 13 8.18365 13 8.24995V9.74995C13 9.81626 12.9737 9.87985 12.9268 9.92673C12.8799 9.97361 12.8163 9.99995 12.75 9.99995H12.25C12.1837 9.99995 12.1201 9.97361 12.0732 9.92673C12.0263 9.87985 12 9.81626 12 9.74995V8.24995C12 8.18365 12.0263 8.12006 12.0732 8.07318C12.1201 8.02629 12.1837 7.99995 12.25 7.99995ZM14.25 7.99995H14.75C14.8163 7.99995 14.8799 8.02629 14.9268 8.07318C14.9737 8.12006 15 8.18365 15 8.24995V9.74995C15 9.81626 14.9737 9.87985 14.9268 9.92673C14.8799 9.97361 14.8163 9.99995 14.75 9.99995H14.25C14.1837 9.99995 14.1201 9.97361 14.0732 9.92673C14.0263 9.87985 14 9.81626 14 9.74995V8.24995C14 8.18365 14.0263 8.12006 14.0732 8.07318C14.1201 8.02629 14.1837 7.99995 14.25 7.99995ZM2.25 11H2.75C2.8163 11 2.87989 11.0263 2.92678 11.0732C2.97366 11.1201 3 11.1836 3 11.25V12.75C3 12.8163 2.97366 12.8798 2.92678 12.9267C2.87989 12.9736 2.8163 13 2.75 13H2.25C2.1837 13 2.12011 12.9736 2.07322 12.9267C2.02634 12.8798 2 12.8163 2 12.75V11.25C2 11.1836 2.02634 11.1201 2.07322 11.0732C2.12011 11.0263 2.1837 11 2.25 11ZM4.25 11H4.75C4.8163 11 4.87989 11.0263 4.92678 11.0732C4.97366 11.1201 5 11.1836 5 11.25V12.75C5 12.8163 4.97366 12.8798 4.92678 12.9267C4.87989 12.9736 4.8163 13 4.75 13H4.25C4.1837 13 4.12011 12.9736 4.07322 12.9267C4.02634 12.8798 4 12.8163 4 12.75V11.25C4 11.1836 4.02634 11.1201 4.07322 11.0732C4.12011 11.0263 4.1837 11 4.25 11ZM12.25 11H12.75C12.8163 11 12.8799 11.0263 12.9268 11.0732C12.9737 11.1201 13 11.1836 13 11.25V12.75C13 12.8163 12.9737 12.8798 12.9268 12.9267C12.8799 12.9736 12.8163 13 12.75 13H12.25C12.1837 13 12.1201 12.9736 12.0732 12.9267C12.0263 12.8798 12 12.8163 12 12.75V11.25C12 11.1836 12.0263 11.1201 12.0732 11.0732C12.1201 11.0263 12.1837 11 12.25 11ZM14.25 11H14.75C14.8163 11 14.8799 11.0263 14.9268 11.0732C14.9737 11.1201 15 11.1836 15 11.25V12.75C15 12.8163 14.9737 12.8798 14.9268 12.9267C14.8799 12.9736 14.8163 13 14.75 13H14.25C14.1837 13 14.1201 12.9736 14.0732 12.9267C14.0263 12.8798 14 12.8163 14 12.75V11.25C14 11.1836 14.0263 11.1201 14.0732 11.0732C14.1201 11.0263 14.1837 11 14.25 11Z" fill="url(#paint0_linear_9_1295)"/>
<defs>
<linearGradient id="paint0_linear_9_1295" x1="1" y1="7.49992" x2="16" y2="7.49992" gradientUnits="userSpaceOnUse">
<stop stop-color="#FDFC47"/>
<stop offset="1" stop-color="#24FE41"/>
</linearGradient>
</defs>
</svg>
