<svg width="16" height="16" viewBox="0 0 16 16" fill="none" xmlns="http://www.w3.org/2000/svg">
<g clip-path="url(#clip0_9_1316)">
<path d="M2.9336 0C1.3082 0 0 1.3321 0 2.9863V13.0133C0 14.6675 1.3082 15.9996 2.9336 15.9996H3.06641C4.69181 15.9996 6.00001 14.6675 6.00001 13.0133V2.9863C6.00001 1.3321 4.69181 0 3.06641 0H2.9336ZM3.00001 1C4.10801 1 5.00001 1.892 5.00001 3V13C5.00001 14.108 4.10801 15 3.00001 15C1.89201 15 1.00001 14.108 1.00001 13V3C1.00001 1.892 1.89201 1 3.00001 1Z" fill="url(#paint0_linear_9_1316)"/>
<path d="M5.40796 -0.00195312C6.28596 0.711047 6.87695 1.79005 6.87695 2.99805V3.99805H9.00195C8.92795 2.90505 10.251 1.99805 11.002 1.99805C11.682 1.99805 12.002 2.00905 12.002 2.99805V3.99805H13.2209C14.4489 3.39805 15.0009 2.02806 15.0009 1.31006C15.0009 0.574059 12.616 -0.00195312 11.314 -0.00195312H5.40796ZM7.00195 4.99805V9.31104C9.76795 11.972 13.127 11.717 13.127 11.717C13.127 11.717 13.4799 10.197 11.2209 7.68604L8.84595 4.99805H7.06396C7.04396 5.00005 7.02395 4.99605 7.00195 4.99805ZM9.97693 7.53006L11.6599 9.26706C9.86091 9.43206 9.50993 8.41106 9.97693 7.53006Z" fill="url(#paint1_linear_9_1316)"/>
</g>
<defs>
<linearGradient id="paint0_linear_9_1316" x1="0" y1="7.9998" x2="6.00001" y2="7.9998" gradientUnits="userSpaceOnUse">
<stop stop-color="#FDFC47"/>
<stop offset="1" stop-color="#24FE41"/>
</linearGradient>
<linearGradient id="paint1_linear_9_1316" x1="5.40796" y1="5.86084" x2="15.0009" y2="5.86084" gradientUnits="userSpaceOnUse">
<stop stop-color="#FDFC47"/>
<stop offset="1" stop-color="#24FE41"/>
</linearGradient>
<clipPath id="clip0_9_1316">
<rect width="16" height="16" fill="white"/>
</clipPath>
</defs>
</svg>
