<svg width="16" height="16" viewBox="0 0 16 16" fill="none" xmlns="http://www.w3.org/2000/svg">
<path d="M3 1C2.272 1 1.67 2.5 1.531 4.502C1.52068 4.50117 1.51034 4.50051 1.5 4.5C1.23478 4.5 0.98043 4.60536 0.792893 4.79289C0.605357 4.98043 0.5 5.23478 0.5 5.5C0.500966 5.74428 0.591317 5.97977 0.754 6.162C0.282 6.418 0 6.7 0 7V14.5C0 14.777 0.223 15 0.5 15H2.068C2.345 15 2.568 14.777 2.568 14.5V12.463C3.995 12.793 5.892 13 8 13C10.108 13 12.005 12.794 13.432 12.463V14.5C13.432 14.777 13.655 15 13.932 15H15.5C15.777 15 16 14.777 16 14.5V7C16 6.7 15.72 6.417 15.248 6.162C15.41 5.97947 15.4996 5.74402 15.5 5.5C15.5 5.23478 15.3946 4.98043 15.2071 4.79289C15.0196 4.60536 14.7652 4.5 14.5 4.5C14.4897 4.49984 14.4793 4.49984 14.469 4.5C14.329 2.498 13.727 1 13 1H3ZM3.336 2H12.664C13.127 2 13.5 3.561 13.5 5.5L13.498 5.55C12.065 5.212 10.139 5 8 5C5.86 5 3.934 5.21 2.502 5.549L2.5 5.5C2.5 3.561 2.873 2 3.336 2ZM8 6C11.878 6 15 6.643 15 7.443V10.557C15 11.357 11.878 12 8 12C4.122 12 1 11.357 1 10.557V7.443C1 6.643 4.122 6 8 6ZM3 8C2.73478 8 2.48043 8.10536 2.29289 8.29289C2.10536 8.48043 2 8.73478 2 9C2 9.26522 2.10536 9.51957 2.29289 9.70711C2.48043 9.89464 2.73478 10 3 10C3.26522 10 3.51957 9.89464 3.70711 9.70711C3.89464 9.51957 4 9.26522 4 9C4 8.73478 3.89464 8.48043 3.70711 8.29289C3.51957 8.10536 3.26522 8 3 8ZM13 8C12.7348 8 12.4804 8.10536 12.2929 8.29289C12.1054 8.48043 12 8.73478 12 9C12 9.26522 12.1054 9.51957 12.2929 9.70711C12.4804 9.89464 12.7348 10 13 10C13.2652 10 13.5196 9.89464 13.7071 9.70711C13.8946 9.51957 14 9.26522 14 9C14 8.73478 13.8946 8.48043 13.7071 8.29289C13.5196 8.10536 13.2652 8 13 8ZM5.5 10C5.36739 10 5.24021 10.0527 5.14645 10.1464C5.05268 10.2402 5 10.3674 5 10.5C5 10.6326 5.05268 10.7598 5.14645 10.8536C5.24021 10.9473 5.36739 11 5.5 11H10.5C10.6326 11 10.7598 10.9473 10.8536 10.8536C10.9473 10.7598 11 10.6326 11 10.5C11 10.3674 10.9473 10.2402 10.8536 10.1464C10.7598 10.0527 10.6326 10 10.5 10H5.5Z" fill="url(#paint0_linear_9_1335)"/>
<defs>
<linearGradient id="paint0_linear_9_1335" x1="0" y1="8" x2="16" y2="8" gradientUnits="userSpaceOnUse">
<stop stop-color="#FDFC47"/>
<stop offset="1" stop-color="#24FE41"/>
</linearGradient>
</defs>
</svg>
