<svg width="18" height="12" viewBox="0 0 18 12" fill="none" xmlns="http://www.w3.org/2000/svg">
<g clip-path="url(#clip0_9_1345)">
<path d="M8.99779 0.0390625C5.22797 0.0436395 1.92784 2.40585 0.990164 5.76954C0.946313 5.92649 0.946313 6.09111 0.990164 6.24806C1.93583 9.60414 5.23587 11.9586 8.99979 11.9609H9.00174C12.7716 11.9563 16.0717 9.59414 17.0094 6.23046C17.0536 6.07289 17.0536 5.90756 17.0094 5.74999C16.0637 2.3939 12.7637 0.0414126 8.99974 0.0391126L8.99779 0.0390625ZM8.99974 0.999999C12.2945 1.00204 15.1718 3.05439 15.9996 5.99218C15.1787 8.93657 12.2997 10.996 8.99974 11C5.70501 10.998 2.82767 8.94557 1.99989 6.00778C2.82074 3.06339 5.69981 1.004 8.99974 0.999999Z" fill="url(#paint0_linear_9_1345)"/>
</g>
<defs>
<linearGradient id="paint0_linear_9_1345" x1="0.957275" y1="6" x2="17.0425" y2="6" gradientUnits="userSpaceOnUse">
<stop stop-color="#FDFC47"/>
<stop offset="1" stop-color="#24FE41"/>
</linearGradient>
<clipPath id="clip0_9_1345">
<rect width="18" height="12" fill="white"/>
</clipPath>
</defs>
</svg>
