<svg width="11" height="16" viewBox="0 0 11 16" fill="none" xmlns="http://www.w3.org/2000/svg">
<g clip-path="url(#clip0_9_1353)">
<path d="M0 0V6L1 6.75V14.5C1 15.331 1.669 16 2.5 16C3.331 16 4 15.331 4 14.5V6.75L5 6V0H4V5.5L3 6V0H2V6L1 5.5V0H0ZM2 7.11H3V14.5C3 14.6326 2.94732 14.7598 2.85355 14.8536C2.75979 14.9473 2.63261 15 2.5 15C2.36739 15 2.24021 14.9473 2.14645 14.8536C2.05268 14.7598 2 14.6326 2 14.5V7.11ZM11 0C9.57 0 8.25 0.953 7.535 2.5C6.821 4.047 6.821 5.953 7.535 7.5C7.669 7.784 7.825 8.051 8 8.297V14.5C8 15.331 8.669 16 9.5 16C10.331 16 11 15.331 11 14.5V7.5V0ZM10 1.28V14.5C10 14.6326 9.94732 14.7598 9.85355 14.8536C9.75979 14.9473 9.63261 15 9.5 15C9.36739 15 9.24021 14.9473 9.14645 14.8536C9.05268 14.7598 9 14.6326 9 14.5V7.89C8.715 7.606 8.479 7.204 8.312 6.723C7.965 5.711 7.878 4.472 8.226 3.46C8.574 2.448 9.176 1.462 10 1.28Z" fill="url(#paint0_linear_9_1353)"/>
</g>
<defs>
<linearGradient id="paint0_linear_9_1353" x1="0" y1="8" x2="11" y2="8" gradientUnits="userSpaceOnUse">
<stop stop-color="#FDFC47"/>
<stop offset="1" stop-color="#24FE41"/>
</linearGradient>
<clipPath id="clip0_9_1353">
<rect width="11" height="16" fill="white"/>
</clipPath>
</defs>
</svg>
