<svg width="15" height="17" viewBox="0 0 15 17" fill="none" xmlns="http://www.w3.org/2000/svg">
<g clip-path="url(#clip0_9_1363)">
<path d="M6.06005 0.0719183C5.75435 0.0901295 5.46094 0.19872 5.21705 0.383918C4.55805 0.893918 4.36705 1.90692 4.90405 2.60192C5.14405 2.91192 5.46405 3.19792 5.87405 3.53992C6.07805 3.70992 6.27905 3.86992 6.52905 4.00892L6.59205 4.03892H1.49805C1.36544 4.03892 1.23826 4.0916 1.14449 4.18537C1.05073 4.27913 0.998047 4.40631 0.998047 4.53892V7.53892C0.998047 7.81692 1.22105 8.03892 1.49805 8.03892H1.99805V15.5389C1.99805 15.8169 2.22105 16.0389 2.49805 16.0389H13.498C13.775 16.0389 13.998 15.8169 13.998 15.5389V8.03892H14.498C14.775 8.03892 14.998 7.81692 14.998 7.53892V4.53892C14.998 4.40631 14.9454 4.27913 14.8516 4.18537C14.7578 4.0916 14.6307 4.03892 14.498 4.03892H9.65405C9.78705 3.95692 9.91605 3.87992 10.029 3.78892C10.336 3.54592 10.543 3.40892 10.779 3.10192C11.288 2.44492 11.099 1.53492 10.499 1.07192C10.219 0.855918 9.83505 0.779918 9.46705 0.821918C9.09905 0.861918 8.72505 1.02792 8.49805 1.32192C8.31105 1.56192 8.22305 1.77092 8.12305 2.00892C8.10505 1.96492 8.07805 1.92592 8.06105 1.88392C7.96688 1.6501 7.86244 1.42054 7.74805 1.19592C7.64005 0.989918 7.58405 0.855918 7.43605 0.664918C7.30754 0.499901 7.14727 0.362315 6.96469 0.260291C6.78211 0.158267 6.58093 0.093874 6.37305 0.0709183C6.27305 0.0599183 6.16305 0.0639183 6.06105 0.0709183L6.06005 0.0719183ZM6.18605 1.00892C6.27725 1.01533 6.36607 1.04091 6.44672 1.08399C6.52736 1.12707 6.59801 1.18668 6.65405 1.25892C6.85905 1.52292 7.60605 3.02292 7.34205 3.22692C7.07805 3.43192 5.89005 2.27292 5.68605 2.00892C5.63867 1.94536 5.60431 1.87306 5.58495 1.79619C5.56559 1.71931 5.5616 1.63937 5.57321 1.56095C5.58483 1.48253 5.61181 1.40718 5.65263 1.33921C5.69344 1.27125 5.74728 1.21202 5.81105 1.16492C5.87544 1.11024 5.94933 1.06787 6.02905 1.03992C6.08505 1.02492 6.12905 1.00592 6.18605 1.00892ZM9.59205 1.78892C9.69505 1.77692 9.78205 1.81292 9.87305 1.88392C10.056 2.02392 10.108 2.29392 9.96705 2.47692C9.82605 2.65992 8.99305 3.43092 8.81105 3.28992C8.62805 3.14792 9.16905 2.12892 9.31105 1.94592C9.38044 1.85937 9.48093 1.80338 9.59105 1.78992L9.59205 1.78892ZM1.99805 5.03892H6.99805V7.03892H1.99805V5.03892ZM8.99805 5.03892H13.998V7.03892H8.99805V5.03892ZM2.99805 8.03892H6.99805V15.0389H2.99805V8.03892ZM8.99805 8.03892H12.998V15.0389H8.99805V8.03892Z" fill="url(#paint0_linear_9_1363)"/>
</g>
<defs>
<linearGradient id="paint0_linear_9_1363" x1="0.998047" y1="8.0515" x2="14.998" y2="8.0515" gradientUnits="userSpaceOnUse">
<stop stop-color="#FDFC47"/>
<stop offset="1" stop-color="#24FE41"/>
</linearGradient>
<clipPath id="clip0_9_1363">
<rect width="15" height="17" fill="white"/>
</clipPath>
</defs>
</svg>
