<svg width="13" height="14" viewBox="0 0 13 14" fill="none" xmlns="http://www.w3.org/2000/svg">
<g clip-path="url(#clip0_9_1351)">
<path d="M6.967 0C6.82552 9.23136e-05 6.68567 0.0302051 6.55669 0.0883489C6.42771 0.146493 6.31253 0.231344 6.21877 0.337296C6.12501 0.443249 6.0548 0.56789 6.01278 0.702987C5.97076 0.838083 5.95788 0.980559 5.975 1.121C5.99 1.248 5.998 1.375 6 1.502C6.00096 2.2334 5.7721 2.94662 5.34576 3.54092C4.91942 4.13521 4.31714 4.58054 3.624 4.814C3.476 4.875 3.21 5.002 3.089 5.002L1 5C0.446 5 0 5.446 0 6V12C0 12.554 0.446 13 1 13H3L9.016 13.973C9.48395 14.0538 9.9652 13.9567 10.3652 13.7008C10.7653 13.4449 11.0552 13.0487 11.178 12.59L12.838 6.395C12.9134 6.1131 12.9231 5.81762 12.8661 5.53141C12.8091 5.2452 12.687 4.97594 12.5094 4.74443C12.3317 4.51292 12.1032 4.32537 11.8415 4.19629C11.5797 4.06721 11.2918 4.00005 11 4H9.547C9.593 3.686 9.621 3.355 9.621 3C9.621 2.363 9.55 1.787 9.395 1.287C9.32232 1.02745 9.20452 0.782716 9.047 0.564C8.869 0.324 8.518 0 8 0H6.967ZM7.24 1.104H8C8.041 1.104 8.095 1.132 8.158 1.219C8.222 1.305 8.286 1.442 8.34 1.615C8.448 1.962 8.518 2.455 8.518 3C8.518 3.529 8.45 4.003 8.348 4.348C8.328 4.4 8.33 4.46 8.322 4.506C8.322 4.782 8.546 5 8.822 5H11C11.1385 4.99998 11.2752 5.03185 11.3994 5.09315C11.5236 5.15445 11.632 5.24352 11.7162 5.35347C11.8004 5.46342 11.8582 5.59129 11.885 5.72717C11.9119 5.86305 11.9071 6.00328 11.871 6.137L10.211 12.332C10.1525 12.5492 10.0149 12.7367 9.82525 12.8577C9.63563 12.9787 9.40763 13.0244 9.186 12.986L4 12.092V5.833C4.90328 5.52251 5.68747 4.93849 6.24371 4.16202C6.79995 3.38554 7.10063 2.45514 7.104 1.5V1.498C7.102 1.372 7.09 1.247 7.078 1.121L7.24 1.104ZM1 6H3V12H1V6Z" fill="url(#paint0_linear_9_1351)"/>
</g>
<defs>
<linearGradient id="paint0_linear_9_1351" x1="0" y1="7.00037" x2="12.9027" y2="7.00037" gradientUnits="userSpaceOnUse">
<stop stop-color="#FDFC47"/>
<stop offset="1" stop-color="#24FE41"/>
</linearGradient>
<clipPath id="clip0_9_1351">
<rect width="13" height="14" fill="white"/>
</clipPath>
</defs>
</svg>
