<svg width="16" height="16" viewBox="0 0 16 16" fill="none" xmlns="http://www.w3.org/2000/svg">
<g clip-path="url(#clip0_9_1367)">
<path d="M7.99779 2.03906C4.22797 2.04364 0.927843 4.40585 -0.00983618 7.76954C-0.0536874 7.92649 -0.0536874 8.09111 -0.00983618 8.24806C0.935833 11.6041 4.23587 13.9586 7.99979 13.9609C8.00044 13.9609 8.00109 13.9609 8.00174 13.9609C11.7716 13.9563 15.0717 11.5941 16.0094 8.23046C16.0536 8.07289 16.0536 7.90756 16.0094 7.74999C15.0637 4.3939 11.7637 2.04141 7.99974 2.03911C7.99909 2.03911 7.99844 2.03906 7.99779 2.03906ZM7.99974 3C11.2945 3.00204 14.1718 5.05439 14.9996 7.99218C14.1787 10.9366 11.2997 12.996 7.99974 13C4.70501 12.998 1.82767 10.9456 0.999892 8.00778C1.82074 5.06339 4.69981 3.004 7.99974 3Z" fill="url(#paint0_linear_9_1367)"/>
<path d="M8 5C7.20435 5 6.44129 5.31607 5.87868 5.87868C5.31607 6.44129 5 7.20435 5 8C5 8.79565 5.31607 9.55871 5.87868 10.1213C6.44129 10.6839 7.20435 11 8 11C8.79565 11 9.55871 10.6839 10.1213 10.1213C10.6839 9.55871 11 8.79565 11 8C11 7.20435 10.6839 6.44129 10.1213 5.87868C9.55871 5.31607 8.79565 5 8 5ZM8 6C8.53043 6 9.03914 6.21071 9.41421 6.58579C9.78929 6.96086 10 7.46957 10 8C10 8.53043 9.78929 9.03914 9.41421 9.41421C9.03914 9.78929 8.53043 10 8 10C7.46957 10 6.96086 9.78929 6.58579 9.41421C6.21071 9.03914 6 8.53043 6 8C6 7.46957 6.21071 6.96086 6.58579 6.58579C6.96086 6.21071 7.46957 6 8 6Z" fill="url(#paint1_linear_9_1367)"/>
</g>
<defs>
<linearGradient id="paint0_linear_9_1367" x1="-0.0427246" y1="8" x2="16.0425" y2="8" gradientUnits="userSpaceOnUse">
<stop stop-color="#FDFC47"/>
<stop offset="1" stop-color="#24FE41"/>
</linearGradient>
<linearGradient id="paint1_linear_9_1367" x1="5" y1="8" x2="11" y2="8" gradientUnits="userSpaceOnUse">
<stop stop-color="#FDFC47"/>
<stop offset="1" stop-color="#24FE41"/>
</linearGradient>
<clipPath id="clip0_9_1367">
<rect width="16" height="16" fill="white"/>
</clipPath>
</defs>
</svg>
