<svg width="16" height="16" viewBox="0 0 16 16" fill="none" xmlns="http://www.w3.org/2000/svg">
<path d="M11 4.00101C11 2.34415 9.65685 1.00101 8 1.00101C6.34315 1.00101 5 2.34415 5 4.00101V8.00101C5 9.65786 6.34315 11.001 8 11.001C9.65685 11.001 11 9.65786 11 8.00101V4.00101Z" fill="url(#paint0_linear_9_5644)"/>
<path d="M3.5 6.00101C3.223 6.00101 3 6.22401 3 6.50101V8.00101C3 10.6018 4.967 12.7258 7.5 12.9756V14.001H5.5C5.223 14.001 5 14.224 5 14.501C5 14.778 5.223 15.001 5.5 15.001H10.5C10.777 15.001 11 14.778 11 14.501C11 14.224 10.777 14.001 10.5 14.001H8.5V12.9756C11.033 12.7258 13 10.6018 13 8.00101V6.50101C13 6.22401 12.777 6.00101 12.5 6.00101C12.223 6.00101 12 6.22401 12 6.50101V8.00101C12 10.217 10.216 12.001 8 12.001C5.784 12.001 4 10.217 4 8.00101V6.50101C4 6.22401 3.777 6.00101 3.5 6.00101Z" fill="url(#paint1_linear_9_5644)"/>
<defs>
<linearGradient id="paint0_linear_9_5644" x1="5" y1="6.00101" x2="11" y2="6.00101" gradientUnits="userSpaceOnUse">
<stop stop-color="#FDFC47"/>
<stop offset="1" stop-color="#24FE41"/>
</linearGradient>
<linearGradient id="paint1_linear_9_5644" x1="3" y1="10.501" x2="13" y2="10.501" gradientUnits="userSpaceOnUse">
<stop stop-color="#FDFC47"/>
<stop offset="1" stop-color="#24FE41"/>
</linearGradient>
</defs>
</svg>
