<svg width="16" height="16" viewBox="0 0 16 16" fill="none" xmlns="http://www.w3.org/2000/svg">
<g clip-path="url(#clip0_9_5638)">
<path d="M14 0.00700378C13.7348 0.00700378 13.4804 0.11236 13.2928 0.299896C13.1053 0.487433 13 0.741787 13 1.007V2.007H1.51001C0.68801 2.007 0.0100098 2.685 0.0100098 3.507V12.501C0.0100098 13.324 0.68801 14.001 1.51001 14.001H13V16.007H14V12.007H16L16.01 5.00401L14.005 5.007V1.507C14.005 1.507 14.005 1.007 14.505 1.007H16.005V0.00700378H14ZM1.51001 3.007H13V13.001H1.51001C1.4439 13.0027 1.37818 12.9908 1.31677 12.9663C1.25537 12.9418 1.19959 12.905 1.15283 12.8582C1.10607 12.8115 1.06922 12.7557 1.04468 12.6943C1.02013 12.6329 1.00836 12.5671 1.01001 12.501V3.507C1.01001 3.221 1.22401 3.007 1.51001 3.007ZM14.01 6.00101H15.01V7.00101H14.01V6.00101ZM14.01 8.00101H15.01V9.00101H14.01V8.00101ZM14.01 10.001H15.01V11.001H14.01V10.001Z" fill="url(#paint0_linear_9_5638)"/>
<path d="M9.70003 3.98701C9.64073 3.97637 9.57978 3.97979 9.52205 3.997L5.43208 5.12101C5.18008 5.19001 4.97713 5.46901 4.97713 5.74601V10.007C4.68763 9.96335 4.39237 9.97694 4.10811 10.047C3.30511 10.243 2.82012 10.821 3.02412 11.337C3.22712 11.854 4.04302 12.114 4.84602 11.917C5.53102 11.749 6.00103 11.297 5.97603 10.831V6.817L8.97603 5.99401V9.00701C8.68621 8.96321 8.39061 8.97681 8.10603 9.04701C7.30303 9.24301 6.81805 9.82101 7.02205 10.337C7.22505 10.854 8.04107 11.114 8.84407 10.917C9.51007 10.753 9.97607 10.32 9.97407 9.86401V4.372C9.97407 4.165 9.85912 4.01801 9.69612 3.98801L9.70003 3.98701Z" fill="url(#paint1_linear_9_5638)"/>
</g>
<defs>
<linearGradient id="paint0_linear_9_5638" x1="0.0100098" y1="8.007" x2="16.01" y2="8.007" gradientUnits="userSpaceOnUse">
<stop stop-color="#FDFC47"/>
<stop offset="1" stop-color="#24FE41"/>
</linearGradient>
<linearGradient id="paint1_linear_9_5638" x1="2.97754" y1="7.98191" x2="9.97408" y2="7.98191" gradientUnits="userSpaceOnUse">
<stop stop-color="#FDFC47"/>
<stop offset="1" stop-color="#24FE41"/>
</linearGradient>
<clipPath id="clip0_9_5638">
<rect width="16" height="16" fill="white"/>
</clipPath>
</defs>
</svg>
