<svg width="16" height="16" viewBox="0 0 16 16" fill="none" xmlns="http://www.w3.org/2000/svg">
<g clip-path="url(#clip0_9_5650)">
<path d="M4 6H1C0.447715 6 0 6.44772 0 7V9C0 9.55228 0.447715 10 1 10H4C4.55228 10 5 9.55228 5 9V7C5 6.44772 4.55228 6 4 6Z" fill="url(#paint0_linear_9_5650)"/>
<path d="M6 3L3 6V10L6 13V3Z" fill="url(#paint1_linear_9_5650)"/>
<path d="M13.1389 1.42771C12.5935 0.999976 12.0002 1.65232 12.4554 2.16013C14.0756 3.67053 14.997 5.78503 15.0003 7.99993C14.9977 10.2204 14.0723 12.34 12.4456 13.8515C12.0002 14.3232 12.6262 14.9999 13.1233 14.58C14.9537 12.8808 15.9958 10.4975 16.0003 7.99995C15.9977 5.50745 14.9616 3.12781 13.1389 1.42771Z" fill="url(#paint2_linear_9_5650)"/>
<path d="M10.775 2.88871C10.1875 2.35383 9.57615 3.11389 10.0914 3.62113C11.3061 4.75373 11.997 6.33923 11.9996 8.00003C11.9977 9.66543 11.3036 11.2551 10.0836 12.3887C9.61521 12.835 10.257 13.5354 10.7633 13.1173C12.1863 11.7957 12.9963 9.94215 12.9996 8.00005C12.9977 6.06175 12.1922 4.21101 10.775 2.88871Z" fill="url(#paint3_linear_9_5650)"/>
<path d="M8.41009 4.34961C7.88914 3.85592 7.25499 4.56964 7.7265 5.08008C8.53695 5.83509 8.998 6.89238 8.9999 7.99998C8.99862 9.11028 8.53594 10.1701 7.7226 10.9258C7.25001 11.3557 7.86217 12.078 8.40229 11.6562C9.41909 10.712 9.99779 9.38765 9.99999 8.00005C9.99827 6.61565 9.42251 5.29381 8.41009 4.34961Z" fill="url(#paint4_linear_9_5650)"/>
</g>
<defs>
<linearGradient id="paint0_linear_9_5650" x1="0" y1="8" x2="5" y2="8" gradientUnits="userSpaceOnUse">
<stop stop-color="#FDFC47"/>
<stop offset="1" stop-color="#24FE41"/>
</linearGradient>
<linearGradient id="paint1_linear_9_5650" x1="3" y1="8" x2="6" y2="8" gradientUnits="userSpaceOnUse">
<stop stop-color="#FDFC47"/>
<stop offset="1" stop-color="#24FE41"/>
</linearGradient>
<linearGradient id="paint2_linear_9_5650" x1="12.2935" y1="8.00043" x2="16.0003" y2="8.00043" gradientUnits="userSpaceOnUse">
<stop stop-color="#FDFC47"/>
<stop offset="1" stop-color="#24FE41"/>
</linearGradient>
<linearGradient id="paint3_linear_9_5650" x1="9.89771" y1="7.97573" x2="12.9996" y2="7.97573" gradientUnits="userSpaceOnUse">
<stop stop-color="#FDFC47"/>
<stop offset="1" stop-color="#24FE41"/>
</linearGradient>
<linearGradient id="paint4_linear_9_5650" x1="7.55347" y1="7.98359" x2="9.99999" y2="7.98359" gradientUnits="userSpaceOnUse">
<stop stop-color="#FDFC47"/>
<stop offset="1" stop-color="#24FE41"/>
</linearGradient>
<clipPath id="clip0_9_5650">
<rect width="16" height="16" fill="white"/>
</clipPath>
</defs>
</svg>
