<svg width="16" height="16" viewBox="0 0 16 16" fill="none" xmlns="http://www.w3.org/2000/svg">
<path d="M4 1C2.892 1 2 1.892 2 3V13C2 14.108 2.892 15 4 15H12C13.108 15 14 14.108 14 13V6.4141V5L10 1H4ZM4 2H9.5859L13 5.4141V13C13 13.554 12.554 14 12 14H4C3.446 14 3 13.554 3 13V3C3 2.446 3.446 2 4 2ZM5 4C4.446 4 4 4.446 4 5V7.293L5.293 6H6.00003V4H5ZM7 4V6H9V4H7ZM10 4V6H10.707L12 7.293V5.8262L10.1738 4H10ZM5.707 7L4.707 8H3.99997V9H4.707L5.707 10H10.2929L11.2929 9H11.9999V8H11.2929L10.2929 7H5.707ZM4 9.707V12C4 12.554 4.446 13 5 13H6V11H5.29297L4 9.707ZM12 9.707L10.707 11H9.99997V13H11C11.554 13 12 12.554 12 12L12 9.707ZM7 11V13H9V11H7Z" fill="url(#paint0_linear_9_5658)"/>
<defs>
<linearGradient id="paint0_linear_9_5658" x1="2" y1="8" x2="14" y2="8" gradientUnits="userSpaceOnUse">
<stop stop-color="#FDFC47"/>
<stop offset="1" stop-color="#24FE41"/>
</linearGradient>
</defs>
</svg>
