<svg width="16" height="16" viewBox="0 0 16 16" fill="none" xmlns="http://www.w3.org/2000/svg">
<path d="M8 3L5.983 7L8 7.01695V10L10 6.00005H8V3ZM4 8.9888V11.9888H5V8.9888H4ZM6 8.9888V11.9888H7V8.9888H6ZM10.5 8.9888C9.67157 8.9888 9 9.66037 9 10.4888C9 11.3172 9.67157 11.9888 10.5 11.9888C11.3284 11.9888 12 11.3172 12 10.4888C12 9.66037 11.3284 8.9888 10.5 8.9888Z" fill="url(#paint0_linear_9_5660)"/>
<path d="M4 1C2.338 1 1 2.338 1 4V12C1 13.662 2.338 15 4 15H12C13.662 15 15 13.662 15 12V4C15 2.338 13.662 1 12 1H4ZM4 2H12C13.108 2 14 2.892 14 4V12C14 13.108 13.108 14 12 14H4C2.892 14 2 13.108 2 12V4C2 2.892 2.892 2 4 2Z" fill="url(#paint1_linear_9_5660)"/>
<defs>
<linearGradient id="paint0_linear_9_5660" x1="4" y1="7.4944" x2="12" y2="7.4944" gradientUnits="userSpaceOnUse">
<stop stop-color="#FDFC47"/>
<stop offset="1" stop-color="#24FE41"/>
</linearGradient>
<linearGradient id="paint1_linear_9_5660" x1="1" y1="8" x2="15" y2="8" gradientUnits="userSpaceOnUse">
<stop stop-color="#FDFC47"/>
<stop offset="1" stop-color="#24FE41"/>
</linearGradient>
</defs>
</svg>
