<svg width="16" height="16" viewBox="0 0 16 16" fill="none" xmlns="http://www.w3.org/2000/svg">
<path d="M8 1C6.4087 1 4.88258 1.63214 3.75736 2.75736C2.63214 3.88258 2 5.4087 2 7C2 8.5913 2.63214 10.1174 3.75736 11.2426C4.88258 12.3679 6.4087 13 8 13C9.5913 13 11.1174 12.3679 12.2426 11.2426C13.3679 10.1174 14 8.5913 14 7C14 5.4087 13.3679 3.88258 12.2426 2.75736C11.1174 1.63214 9.5913 1 8 1ZM8 2C9.32608 2 10.5979 2.52678 11.5355 3.46447C12.4732 4.40215 13 5.67392 13 7C13 7.65661 12.8707 8.30679 12.6194 8.91342C12.3681 9.52004 11.9998 10.0712 11.5355 10.5355C11.0712 10.9998 10.52 11.3681 9.91342 11.6194C9.30679 11.8707 8.65661 12 8 12C6.67392 12 5.40215 11.4732 4.46447 10.5355C3.52678 9.59785 3 8.32608 3 7C3 5.67392 3.52678 4.40215 4.46447 3.46447C5.40215 2.52678 6.67392 2 8 2Z" fill="url(#paint0_linear_9_5678)"/>
<path d="M5 14C3.892 14 3 14.892 3 16H4C4 15.446 4.446 15 5 15H11C11.554 15 12 15.446 12 16H13C13 14.892 12.108 14 11 14H5Z" fill="url(#paint1_linear_9_5678)"/>
<path d="M7.9492 4C7.16239 4.01333 6.41231 4.33527 5.86064 4.89644C5.30898 5.45761 4.99989 6.21308 5 7C5 7.79565 5.31607 8.55871 5.87868 9.12132C6.44129 9.68393 7.20435 10 8 10C8.79565 10 9.55871 9.68393 10.1213 9.12132C10.6839 8.55871 11 7.79565 11 7C11 6.20435 10.6839 5.44129 10.1213 4.87868C9.55871 4.31607 8.79565 4 8 4C7.98307 3.99986 7.96613 3.99986 7.9492 4ZM7.99998 6C8.2652 6 8.51955 6.10536 8.70709 6.29289C8.89462 6.48043 8.99998 6.73478 8.99998 7C8.99998 7.26522 8.89462 7.51957 8.70709 7.70711C8.51955 7.89464 8.2652 8 7.99998 8C7.73476 8 7.48041 7.89464 7.29287 7.70711C7.10534 7.51957 6.99998 7.26522 6.99998 7C6.99998 6.73478 7.10534 6.48043 7.29287 6.29289C7.48041 6.10536 7.73476 6 7.99998 6Z" fill="url(#paint2_linear_9_5678)"/>
<defs>
<linearGradient id="paint0_linear_9_5678" x1="2" y1="7" x2="14" y2="7" gradientUnits="userSpaceOnUse">
<stop stop-color="#FDFC47"/>
<stop offset="1" stop-color="#24FE41"/>
</linearGradient>
<linearGradient id="paint1_linear_9_5678" x1="3" y1="15" x2="13" y2="15" gradientUnits="userSpaceOnUse">
<stop stop-color="#FDFC47"/>
<stop offset="1" stop-color="#24FE41"/>
</linearGradient>
<linearGradient id="paint2_linear_9_5678" x1="5" y1="6.99995" x2="11" y2="6.99995" gradientUnits="userSpaceOnUse">
<stop stop-color="#FDFC47"/>
<stop offset="1" stop-color="#24FE41"/>
</linearGradient>
</defs>
</svg>
