<svg width="16" height="16" viewBox="0 0 16 16" fill="none" xmlns="http://www.w3.org/2000/svg">
<path d="M4.5 14H11.5C11.777 14 12 14.223 12 14.5C12 14.777 11.777 15 11.5 15H4.5C4.223 15 4 14.777 4 14.5C4 14.223 4.223 14 4.5 14Z" fill="url(#paint0_linear_9_5686)"/>
<path d="M2 2C0.892 2 0 2.892 0 4V11C0 12.108 0.892 13 2 13H14C15.108 13 16 12.108 16 11V4C16 2.892 15.108 2 14 2H2ZM2 3H14C14.554 3 15 3.446 15 4V11C15 11.554 14.554 12 14 12H2C1.446 12 1 11.554 1 11V4C1 3.446 1.446 3 2 3Z" fill="url(#paint1_linear_9_5686)"/>
<defs>
<linearGradient id="paint0_linear_9_5686" x1="4" y1="14.5" x2="12" y2="14.5" gradientUnits="userSpaceOnUse">
<stop stop-color="#FDFC47"/>
<stop offset="1" stop-color="#24FE41"/>
</linearGradient>
<linearGradient id="paint1_linear_9_5686" x1="0" y1="7.5" x2="16" y2="7.5" gradientUnits="userSpaceOnUse">
<stop stop-color="#FDFC47"/>
<stop offset="1" stop-color="#24FE41"/>
</linearGradient>
</defs>
</svg>
