<svg width="16" height="16" viewBox="0 0 16 16" fill="none" xmlns="http://www.w3.org/2000/svg">
<path d="M7.99998 2C6.35818 2 5.04298 2.04977 3.98828 2.26758C3.46094 2.37648 2.99052 2.52615 2.56838 2.78711C2.14622 3.04807 1.76975 3.46576 1.6094 3.97661C0.83416 6.44621 0 8.62661 0 11.334C0 12.8644 1.3582 14 2.9531 14C4.5068 14 5.6312 12.8795 6.082 11.6875L6.05856 11.7442L6.53122 10.6934C7.02552 10.5983 7.50014 10.5316 7.98822 10.5371H7.99994H8.01166C8.49977 10.5316 8.97439 10.5983 9.46866 10.6934L9.94132 11.7442L9.91788 11.6875C10.3687 12.8795 11.4931 14 13.0468 14C14.6417 14 15.9999 12.8644 15.9999 11.334C15.9999 8.62661 15.1657 6.44611 14.3905 3.97661C14.2301 3.4658 13.8537 3.04812 13.4315 2.78711C13.0093 2.52615 12.5389 2.37648 12.0116 2.26758C10.9569 2.04978 9.64178 2 7.99998 2ZM7.99998 3C11.2352 3 13.1109 3.23489 13.4375 4.2754C14.2223 6.7754 15 8.834 15 11.334C15 12.1673 14.1286 13 13.0469 13C11.9652 13 11.1939 12.2341 10.8535 11.334L10.3105 10.127C10.2802 10.0238 10.1808 9.79674 9.99996 9.752C9.29957 9.58369 8.65016 9.52984 7.99996 9.53716C7.34973 9.52985 6.70036 9.58369 5.99996 9.752C5.81911 9.79674 5.71968 10.0238 5.68941 10.127L5.14644 11.334C4.80605 12.2341 4.03484 13 2.95304 13C1.87134 13 0.99994 12.1673 0.99994 11.334C0.99994 8.834 1.77764 6.7754 2.56244 4.2754C2.88907 3.2349 4.76478 3 7.99998 3Z" fill="url(#paint0_linear_9_5726)"/>
<path d="M7.5 6H3.5C3.22386 6 3 6.22386 3 6.5C3 6.77614 3.22386 7 3.5 7H7.5C7.77614 7 8 6.77614 8 6.5C8 6.22386 7.77614 6 7.5 6Z" fill="url(#paint1_linear_9_5726)"/>
<path d="M6 8.5V4.5C6 4.22386 5.77614 4 5.5 4C5.22386 4 5 4.22386 5 4.5V8.5C5 8.77614 5.22386 9 5.5 9C5.77614 9 6 8.77614 6 8.5Z" fill="url(#paint2_linear_9_5726)"/>
<path d="M12 7C12.5523 7 13 6.55228 13 6C13 5.44772 12.5523 5 12 5C11.4477 5 11 5.44772 11 6C11 6.55228 11.4477 7 12 7Z" fill="url(#paint3_linear_9_5726)"/>
<path d="M10 9C10.5523 9 11 8.55228 11 8C11 7.44772 10.5523 7 10 7C9.44772 7 9 7.44772 9 8C9 8.55228 9.44772 9 10 9Z" fill="url(#paint4_linear_9_5726)"/>
<defs>
<linearGradient id="paint0_linear_9_5726" x1="0" y1="8" x2="15.9999" y2="8" gradientUnits="userSpaceOnUse">
<stop stop-color="#FDFC47"/>
<stop offset="1" stop-color="#24FE41"/>
</linearGradient>
<linearGradient id="paint1_linear_9_5726" x1="3" y1="6.5" x2="8" y2="6.5" gradientUnits="userSpaceOnUse">
<stop stop-color="#FDFC47"/>
<stop offset="1" stop-color="#24FE41"/>
</linearGradient>
<linearGradient id="paint2_linear_9_5726" x1="5.5" y1="4" x2="5.5" y2="9" gradientUnits="userSpaceOnUse">
<stop stop-color="#FDFC47"/>
<stop offset="1" stop-color="#24FE41"/>
</linearGradient>
<linearGradient id="paint3_linear_9_5726" x1="11" y1="6" x2="13" y2="6" gradientUnits="userSpaceOnUse">
<stop stop-color="#FDFC47"/>
<stop offset="1" stop-color="#24FE41"/>
</linearGradient>
<linearGradient id="paint4_linear_9_5726" x1="9" y1="8" x2="11" y2="8" gradientUnits="userSpaceOnUse">
<stop stop-color="#FDFC47"/>
<stop offset="1" stop-color="#24FE41"/>
</linearGradient>
</defs>
</svg>
