<svg width="16" height="16" viewBox="0 0 16 16" fill="none" xmlns="http://www.w3.org/2000/svg">
<g clip-path="url(#clip0_9_5741)">
<path d="M1.5 2.011C0.678 2.011 0 2.689 0 3.511V13.511C0 14.333 0.678 15.011 1.5 15.011H13.5C14.323 15.011 15 14.333 15 13.511V5.462L15.729 4.73C15.9135 4.53616 16.0144 4.27757 16.01 4.01C16.01 3.457 15.564 3.01 15.01 3.01C14.976 3.01 14.946 3.025 14.912 3.029C14.8114 2.73379 14.6214 2.47719 14.3684 2.29479C14.1154 2.11238 13.8119 2.0132 13.5 2.011H1.5ZM1.5 3.011H3V6.007H1V3.511C1 3.225 1.215 3.011 1.5 3.011ZM4.01 3.011H13.5C13.786 3.011 14 3.225 14 3.511V3.581L8.01 9.542V11.011H9.479L14 6.466V13.511C14 13.797 13.786 14.011 13.5 14.011H4.01V3.011ZM1 7.007H3V10.007H1V7.007ZM1 11.007H3V14.011H1.5C1.43389 14.0126 1.36813 14.0008 1.30673 13.9763C1.24532 13.9518 1.18954 13.915 1.14278 13.8682C1.09602 13.8215 1.05925 13.7657 1.03471 13.7043C1.01016 13.6429 0.998353 13.5771 1 13.511V11.007Z" fill="url(#paint0_linear_9_5741)"/>
</g>
<defs>
<linearGradient id="paint0_linear_9_5741" x1="0" y1="8.511" x2="16.0101" y2="8.511" gradientUnits="userSpaceOnUse">
<stop stop-color="#FDFC47"/>
<stop offset="1" stop-color="#24FE41"/>
</linearGradient>
<clipPath id="clip0_9_5741">
<rect width="16" height="16" fill="white"/>
</clipPath>
</defs>
</svg>
