<svg width="16" height="16" viewBox="0 0 16 16" fill="none" xmlns="http://www.w3.org/2000/svg">
<path opacity="0.3" d="M2 1C1.178 1 0.5 1.678 0.5 2.5V13.5C0.5 14.322 1.178 15 2 15H14C14.823 15 15.5 14.322 15.5 13.5V2.5C15.5 1.678 14.823 1 14 1H2ZM2 2H14C14.286 2 14.5 2.214 14.5 2.5V10.996H1.5V2.5C1.5 2.214 1.715 2 2 2ZM1.5 11.996H7.51V14H2C1.93389 14.0016 1.86813 13.9898 1.80673 13.9653C1.74532 13.9408 1.68954 13.904 1.64278 13.8572C1.59602 13.8105 1.55925 13.7547 1.53471 13.6933C1.51016 13.6319 1.49835 13.5661 1.5 13.5V11.996ZM8.51 11.996H14.5V13.5C14.5 13.786 14.286 14 14 14H8.51V11.996Z" fill="url(#paint0_linear_9_5743)"/>
<defs>
<linearGradient id="paint0_linear_9_5743" x1="0.5" y1="8" x2="15.5" y2="8" gradientUnits="userSpaceOnUse">
<stop stop-color="#FDFC47"/>
<stop offset="1" stop-color="#24FE41"/>
</linearGradient>
</defs>
</svg>
