<svg width="16" height="16" viewBox="0 0 16 16" fill="none" xmlns="http://www.w3.org/2000/svg">
<path d="M9.56712 3.5378C9.62335 4.05058 9.41791 4.5635 9.11253 4.934C8.80683 5.30365 8.30476 5.59268 7.81373 5.55436C7.7473 5.05183 7.9954 4.52876 8.27857 4.20086C8.59417 3.83121 9.12722 3.55571 9.56712 3.5378ZM9.55855 5.6535C9.84386 5.66541 10.6442 5.76783 11.1582 6.51996C11.1173 6.54636 10.202 7.0781 10.2131 8.18626C10.2246 9.50986 11.3739 9.95076 11.3872 9.95676C11.3769 9.9874 11.2042 10.5842 10.7822 11.2009C10.4172 11.734 10.0386 12.2648 9.4424 12.2759C8.85607 12.2869 8.66816 11.9289 7.9983 11.9289C7.32843 11.9289 7.11853 12.264 6.5645 12.2861C5.98916 12.3074 5.5512 11.712 5.1837 11.1804C4.43161 10.0945 3.8583 8.11022 4.62999 6.77122C5.01241 6.10607 5.69709 5.68512 6.43979 5.67402C7.0049 5.66375 7.53719 6.05512 7.88219 6.05512C8.228 6.05512 8.87718 5.58451 9.55855 5.6535Z" fill="url(#paint0_linear_9_5765)"/>
<path d="M4 1C2.338 1 1 2.338 1 4V12C1 13.662 2.338 15 4 15H12C13.662 15 15 13.662 15 12V4C15 2.338 13.662 1 12 1H4ZM4 2H12C13.108 2 14 2.892 14 4V12C14 13.108 13.108 14 12 14H4C2.892 14 2 13.108 2 12V4C2 2.892 2.892 2 4 2Z" fill="url(#paint1_linear_9_5765)"/>
<defs>
<linearGradient id="paint0_linear_9_5765" x1="4.26343" y1="7.91222" x2="11.3872" y2="7.91222" gradientUnits="userSpaceOnUse">
<stop stop-color="#FDFC47"/>
<stop offset="1" stop-color="#24FE41"/>
</linearGradient>
<linearGradient id="paint1_linear_9_5765" x1="1" y1="8" x2="15" y2="8" gradientUnits="userSpaceOnUse">
<stop stop-color="#FDFC47"/>
<stop offset="1" stop-color="#24FE41"/>
</linearGradient>
</defs>
</svg>
