<svg width="16" height="16" viewBox="0 0 16 16" fill="none" xmlns="http://www.w3.org/2000/svg">
<g clip-path="url(#clip0_9_5779)">
<path d="M7.9512 4C7.42927 4.01274 6.93301 4.22906 6.56843 4.60276C6.20385 4.97646 5.99984 5.47791 6 6C5.99994 6.3193 6.07633 6.63397 6.22278 6.91771C6.36923 7.20144 6.58149 7.44599 6.8418 7.6309L6 11H10L9.1582 7.6309C9.41851 7.44599 9.63077 7.20144 9.77722 6.91771C9.92367 6.63397 10.0001 6.3193 10 6C10 5.46956 9.78929 4.96086 9.41421 4.58578C9.03914 4.21071 8.53043 4 8 4C7.98372 3.9998 7.96748 3.9998 7.9512 4ZM8.00003 5C8.26524 5 8.5196 5.10535 8.70714 5.29289C8.89467 5.48043 9.00003 5.73478 9.00003 6C9.00003 6.26521 8.89467 6.51957 8.70714 6.7071C8.5196 6.89464 8.26524 7 8.00003 7C7.73481 7 7.48046 6.89464 7.29292 6.7071C7.10538 6.51957 7.00003 6.26521 7.00003 6C7.00003 5.73478 7.10538 5.48043 7.29292 5.29289C7.48046 5.10535 7.73481 5 8.00003 5Z" fill="url(#paint0_linear_9_5779)"/>
<path d="M8.0332 -8.25463e-06C7.89843 -0.00405029 7.76423 0.019202 7.63867 0.0683507L1.63867 2.38865C1.45042 2.46161 1.28866 2.58984 1.17467 2.75648C1.06067 2.92311 0.999782 3.12035 1 3.32224V7.99994C1.00022 11.6616 3.6786 14.4306 7.2891 15.8007L7.64457 15.9355C7.87297 16.0221 8.12515 16.0221 8.35355 15.9355L8.70902 15.8007C8.70967 15.8007 8.71032 15.8007 8.71097 15.8007C12.3216 14.4306 14.9998 11.6616 15.0001 7.99994V3.32224C14.9999 3.12068 14.9388 2.92387 14.8249 2.75762C14.7109 2.59138 14.5493 2.46344 14.3614 2.3906L8.3614 0.0683007C8.25665 0.0272189 8.14564 0.00415812 8.0332 -8.25463e-06ZM8 0.999992L14 3.32229V7.99999C13.9998 11.1836 11.7165 13.5898 8.3555 14.8652L8.00003 15L7.64456 14.8652C4.28366 13.5898 2.00026 11.1836 2.00006 7.99999V3.32229L8 0.999992Z" fill="url(#paint1_linear_9_5779)"/>
</g>
<defs>
<linearGradient id="paint0_linear_9_5779" x1="6" y1="7.49992" x2="10" y2="7.49992" gradientUnits="userSpaceOnUse">
<stop stop-color="#FDFC47"/>
<stop offset="1" stop-color="#24FE41"/>
</linearGradient>
<linearGradient id="paint1_linear_9_5779" x1="1" y1="7.99999" x2="15.0001" y2="7.99999" gradientUnits="userSpaceOnUse">
<stop stop-color="#FDFC47"/>
<stop offset="1" stop-color="#24FE41"/>
</linearGradient>
<clipPath id="clip0_9_5779">
<rect width="16" height="16" fill="white"/>
</clipPath>
</defs>
</svg>
