<svg width="16" height="16" viewBox="0 0 16 16" fill="none" xmlns="http://www.w3.org/2000/svg">
<path d="M8 8C7.44531 8 7 8.44531 7 9V14H9V9C9 8.44531 8.55469 8 8 8Z" fill="url(#paint0_linear_9_5801)"/>
<path d="M8 2C4.12109 2 1 5.12109 1 9C1 10.9375 1.78125 12.6914 3.04688 13.9531L3.75391 13.2461C2.66797 12.1602 2 10.6602 2 9C2 5.67578 4.67578 3 8 3C11.3242 3 14 5.67578 14 9C14 10.6602 13.332 12.1602 12.2461 13.2461L12.9531 13.9531C14.2188 12.6914 15 10.9375 15 9C15 5.12109 11.8789 2 8 2ZM8 5C5.78516 5 4 6.78516 4 9C4 10.1094 4.44531 11.1055 5.17188 11.8281L5.875 11.125C5.33594 10.582 5 9.83203 5 9C5 7.33984 6.33984 6 8 6C9.66016 6 11 7.33984 11 9C11 9.83203 10.6641 10.582 10.125 11.125L10.8281 11.8281C11.5547 11.1055 12 10.1094 12 9C12 6.78516 10.2148 5 8 5Z" fill="url(#paint1_linear_9_5801)"/>
<defs>
<linearGradient id="paint0_linear_9_5801" x1="7" y1="11" x2="9" y2="11" gradientUnits="userSpaceOnUse">
<stop stop-color="#FDFC47"/>
<stop offset="1" stop-color="#24FE41"/>
</linearGradient>
<linearGradient id="paint1_linear_9_5801" x1="1" y1="7.97656" x2="15" y2="7.97656" gradientUnits="userSpaceOnUse">
<stop stop-color="#FDFC47"/>
<stop offset="1" stop-color="#24FE41"/>
</linearGradient>
</defs>
</svg>
