<svg width="16" height="16" viewBox="0 0 16 16" fill="none" xmlns="http://www.w3.org/2000/svg">
<path d="M4 2C2.892 2 2 2.892 2 4V12C2 13.108 2.892 14 4 14H12C13.108 14 14 13.108 14 12V4C14 2.892 13.108 2 12 2H4ZM6 3H10V5H11V6H13V12L12 13V11H11V13H10V11H9V13H7V11H6V13H5V11H4V13L3 12V6H5V5H6V3Z" fill="url(#paint0_linear_9_5773)"/>
<defs>
<linearGradient id="paint0_linear_9_5773" x1="2" y1="8" x2="14" y2="8" gradientUnits="userSpaceOnUse">
<stop stop-color="#FDFC47"/>
<stop offset="1" stop-color="#24FE41"/>
</linearGradient>
</defs>
</svg>
