<svg width="16" height="16" viewBox="0 0 16 16" fill="none" xmlns="http://www.w3.org/2000/svg">
<g clip-path="url(#clip0_9_5794)">
<path d="M7.99973 5.69156C5.84173 5.69156 3.80411 6.64436 2.40831 8.30465C2.14873 8.61343 2.18812 9.07398 2.49739 9.33356C2.63423 9.44848 2.80047 9.5043 2.96656 9.5043C3.175 9.5043 3.38214 9.41639 3.5263 9.24447C4.64304 7.9154 6.27419 7.15252 7.99973 7.15252C9.72528 7.15252 11.3559 7.9154 12.4732 9.24447C12.6178 9.41689 12.825 9.5043 13.0329 9.5043C13.199 9.5043 13.3652 9.44898 13.5021 9.33356C13.8113 9.07398 13.8507 8.61296 13.5912 8.30465C12.1948 6.64439 10.1577 5.69156 7.99973 5.69156ZM7.99973 8.90596C6.70425 8.90596 5.48098 9.47637 4.64429 10.4723C4.38468 10.7811 4.42558 11.2417 4.73485 11.5012C4.87169 11.6162 5.03793 11.6735 5.20402 11.6735C5.41246 11.6735 5.6196 11.5841 5.76376 11.4122C6.32239 10.7474 7.13721 10.3669 7.99973 10.3669C8.86226 10.3669 9.6771 10.7474 10.2357 11.4122C10.3804 11.5846 10.5875 11.6735 10.7954 11.6735C10.9615 11.6735 11.1278 11.6167 11.2646 11.5012C11.5739 11.2416 11.6148 10.7811 11.3552 10.4723C10.5185 9.47637 9.29519 8.90596 7.99973 8.90596ZM7.93738 11.6794C7.36601 11.7338 6.81647 12.1612 6.79712 12.7974C6.79712 13.4616 7.33556 14 7.99974 14C8.66391 14 9.20235 13.4616 9.20235 12.7974C9.10071 11.9435 8.50875 11.625 7.93738 11.6794Z" fill="url(#paint0_linear_9_5794)"/>
<path d="M7.99977 2.59741C4.97877 2.59741 2.12532 3.93068 0.170888 6.25574C-0.0887156 6.56452 -0.0478206 7.02507 0.261456 7.28465C0.39829 7.39957 0.564562 7.45539 0.730625 7.45539C0.939066 7.45539 1.14574 7.36748 1.29036 7.19556C2.96573 5.20218 5.41124 4.05837 7.99977 4.05837C10.5883 4.05837 13.0338 5.20265 14.7092 7.19556C14.8538 7.36748 15.0605 7.45539 15.2689 7.45539C15.435 7.45539 15.6027 7.40007 15.7396 7.28465C16.0484 7.02551 16.0883 6.56402 15.8287 6.25574C13.8747 3.93068 11.0208 2.59741 7.99977 2.59741Z" fill="url(#paint1_linear_9_5794)" fill-opacity="0.5"/>
</g>
<defs>
<linearGradient id="paint0_linear_9_5794" x1="2.23682" y1="9.84578" x2="13.7626" y2="9.84578" gradientUnits="userSpaceOnUse">
<stop stop-color="#FDFC47"/>
<stop offset="1" stop-color="#24FE41"/>
</linearGradient>
<linearGradient id="paint1_linear_9_5794" x1="0" y1="5.0264" x2="16" y2="5.0264" gradientUnits="userSpaceOnUse">
<stop stop-color="#FDFC47"/>
<stop offset="1" stop-color="#24FE41"/>
</linearGradient>
<clipPath id="clip0_9_5794">
<rect width="16" height="16" fill="white"/>
</clipPath>
</defs>
</svg>
