<svg width="16" height="16" viewBox="0 0 16 16" fill="none" xmlns="http://www.w3.org/2000/svg">
<g clip-path="url(#clip0_9_5791)">
<path d="M7.99973 8.90594C6.70424 8.90594 5.48097 9.47636 4.64428 10.4723C4.38467 10.7811 4.42557 11.2416 4.73484 11.5012C4.87168 11.6161 5.03792 11.6734 5.20401 11.6734C5.41245 11.6734 5.61959 11.5841 5.76375 11.4121C6.32238 10.7473 7.1372 10.3669 7.99973 10.3669C8.86225 10.3669 9.6771 10.7473 10.2357 11.4121C10.3804 11.5846 10.5875 11.6734 10.7954 11.6734C10.9615 11.6734 11.1278 11.6166 11.2646 11.5012C11.5739 11.2416 11.6148 10.7811 11.3552 10.4723C10.5185 9.47636 9.29518 8.90594 7.99973 8.90594ZM7.93737 11.6794C7.366 11.7338 6.81647 12.1612 6.79711 12.7974C6.79711 13.4616 7.33555 14 7.99973 14C8.6639 14 9.20234 13.4616 9.20234 12.7974C9.1007 11.9435 8.50874 11.6249 7.93737 11.6794Z" fill="url(#paint0_linear_9_5791)"/>
<path d="M7.99977 2.59741C4.97877 2.59741 2.12532 3.93068 0.170888 6.25574C-0.0887156 6.56452 -0.0478206 7.02507 0.261456 7.28465C0.39829 7.39957 0.564562 7.45539 0.730625 7.45539C0.939066 7.45539 1.14574 7.36748 1.29036 7.19556C2.96573 5.20218 5.41124 4.05837 7.99977 4.05837C10.5883 4.05837 13.0338 5.20265 14.7092 7.19556C14.8538 7.36748 15.0605 7.45539 15.2689 7.45539C15.435 7.45539 15.6027 7.40007 15.7396 7.28465C16.0484 7.02551 16.0883 6.56402 15.8287 6.25574C13.8747 3.93068 11.0208 2.59741 7.99977 2.59741ZM7.99977 5.69155C5.84177 5.69155 3.80414 6.64436 2.40835 8.30464C2.14877 8.61342 2.18816 9.07397 2.49743 9.33355C2.63427 9.44848 2.80051 9.50429 2.9666 9.50429C3.17504 9.50429 3.38218 9.41639 3.52634 9.24447C4.64308 7.91539 6.27423 7.15251 7.99977 7.15251C9.72532 7.15251 11.356 7.91539 12.4732 9.24447C12.6179 9.41688 12.825 9.50429 13.0329 9.50429C13.199 9.50429 13.3653 9.44897 13.5021 9.33355C13.8114 9.07397 13.8507 8.61295 13.5912 8.30464C12.1949 6.64438 10.1578 5.69155 7.99977 5.69155Z" fill="url(#paint1_linear_9_5791)" fill-opacity="0.5"/>
</g>
<defs>
<linearGradient id="paint0_linear_9_5791" x1="4.47339" y1="11.453" x2="11.5261" y2="11.453" gradientUnits="userSpaceOnUse">
<stop stop-color="#FDFC47"/>
<stop offset="1" stop-color="#24FE41"/>
</linearGradient>
<linearGradient id="paint1_linear_9_5791" x1="0" y1="6.05085" x2="16" y2="6.05085" gradientUnits="userSpaceOnUse">
<stop stop-color="#FDFC47"/>
<stop offset="1" stop-color="#24FE41"/>
</linearGradient>
<clipPath id="clip0_9_5791">
<rect width="16" height="16" fill="white"/>
</clipPath>
</defs>
</svg>
