<svg width="16" height="16" viewBox="0 0 16 16" fill="none" xmlns="http://www.w3.org/2000/svg">
<g clip-path="url(#clip0_9_5822)">
<path d="M1.34412 0.00300736C1.27936 0.0238874 1.21955 0.0577674 1.16834 0.102571C1.11712 0.147375 1.0756 0.202169 1.0463 0.263582C1.01699 0.324994 1.00053 0.391739 0.997926 0.459733C0.995318 0.527728 1.00662 0.595537 1.03113 0.659013L3.00113 6.53401L2.00113 12.94V16.003H14.0011V12.941L13.0011 6.50301L14.7191 0.628007C14.7379 0.555343 14.7401 0.479378 14.7255 0.405748C14.711 0.332118 14.6801 0.262718 14.635 0.202684C14.59 0.14265 14.532 0.0935269 14.4653 0.0589613C14.3987 0.0243958 14.3251 0.00526871 14.2501 0.00300736H1.50012C1.46886 5.54898e-05 1.43739 5.54898e-05 1.40613 0.00300736C1.38548 0.00172479 1.36476 0.00172479 1.34412 0.00300736ZM2.18811 1.00301H13.5941L12.1251 6.00301H3.84412L2.18811 1.00301ZM3.93811 7.00301H12.0631L13.0001 13.003H3.00012L3.93811 7.00301ZM3.00012 14.003H4.00012V15.003H3.00012V14.003Z" fill="url(#paint0_linear_9_5822)"/>
<path d="M11.4692 10.159L4.28125 11.971V12.003H11.7192L11.4692 10.159Z" fill="url(#paint1_linear_9_5822)"/>
<path d="M4.81299 8.00299L4.43799 10.878L11.344 9.12799L11.188 8.00299H4.81299ZM3.56299 2.00299L4.56299 5.00299H11.375L12.25 2.00299H3.56299Z" fill="url(#paint2_linear_9_5822)"/>
</g>
<defs>
<linearGradient id="paint0_linear_9_5822" x1="0.997559" y1="8.0019" x2="14.735" y2="8.0019" gradientUnits="userSpaceOnUse">
<stop stop-color="#FDFC47"/>
<stop offset="1" stop-color="#24FE41"/>
</linearGradient>
<linearGradient id="paint1_linear_9_5822" x1="4.28125" y1="11.081" x2="11.7192" y2="11.081" gradientUnits="userSpaceOnUse">
<stop stop-color="#FDFC47"/>
<stop offset="1" stop-color="#24FE41"/>
</linearGradient>
<linearGradient id="paint2_linear_9_5822" x1="3.56299" y1="6.44049" x2="12.25" y2="6.44049" gradientUnits="userSpaceOnUse">
<stop stop-color="#FDFC47"/>
<stop offset="1" stop-color="#24FE41"/>
</linearGradient>
<clipPath id="clip0_9_5822">
<rect width="16" height="16" fill="white"/>
</clipPath>
</defs>
</svg>
