<svg width="16" height="16" viewBox="0 0 16 16" fill="none" xmlns="http://www.w3.org/2000/svg">
<path d="M3 0C1.892 0 1 0.892 1 2V14C1 15.108 1.892 16 3 16H12C13.108 16 14 15.108 14 14V2C14 0.892 13.108 0 12 0H3ZM3 1H12C12.554 1 13 1.446 13 2V14C13 14.554 12.554 15 12 15H3C2.446 15 2 14.554 2 14V2C2 1.446 2.446 1 3 1Z" fill="url(#paint0_linear_9_5827)"/>
<path d="M3.5 3C3.77614 3 4 2.77614 4 2.5C4 2.22386 3.77614 2 3.5 2C3.22386 2 3 2.22386 3 2.5C3 2.77614 3.22386 3 3.5 3Z" fill="url(#paint1_linear_9_5827)"/>
<path d="M15.5 3C15.777 3 16 3.223 16 3.5V13L15.5 14L15 13V3.5C15 3.223 15.223 3 15.5 3Z" fill="url(#paint2_linear_9_5827)"/>
<defs>
<linearGradient id="paint0_linear_9_5827" x1="1" y1="8" x2="14" y2="8" gradientUnits="userSpaceOnUse">
<stop stop-color="#FDFC47"/>
<stop offset="1" stop-color="#24FE41"/>
</linearGradient>
<linearGradient id="paint1_linear_9_5827" x1="3" y1="2.5" x2="4" y2="2.5" gradientUnits="userSpaceOnUse">
<stop stop-color="#FDFC47"/>
<stop offset="1" stop-color="#24FE41"/>
</linearGradient>
<linearGradient id="paint2_linear_9_5827" x1="15" y1="8.5" x2="16" y2="8.5" gradientUnits="userSpaceOnUse">
<stop stop-color="#FDFC47"/>
<stop offset="1" stop-color="#24FE41"/>
</linearGradient>
</defs>
</svg>
