<svg width="16" height="16" viewBox="0 0 16 16" fill="none" xmlns="http://www.w3.org/2000/svg">
<path d="M4.5 2C3.83696 2 3.20107 2.26339 2.73223 2.73223C2.26339 3.20107 2 3.83696 2 4.5C2 5.16304 2.26339 5.79893 2.73223 6.26777C3.20107 6.73661 3.83696 7 4.5 7C4.86833 6.99867 5.23181 6.91597 5.56445 6.75781C5.81493 7.24062 6 7.70305 6 8C6 8.29662 5.81445 8.75803 5.56445 9.24023C5.23165 9.08275 4.86818 9.00072 4.5 9C3.83696 9 3.20107 9.26339 2.73223 9.73223C2.26339 10.2011 2 10.837 2 11.5C2 12.163 2.26339 12.7989 2.73223 13.2678C3.20107 13.7366 3.83696 14 4.5 14C4.8283 14 5.15339 13.9353 5.45671 13.8097C5.76002 13.6841 6.03562 13.4999 6.26777 13.2678C6.49991 13.0356 6.68406 12.76 6.8097 12.4567C6.93534 12.1534 7 11.8283 7 11.5C6.99899 11.1325 6.91697 10.7697 6.75977 10.4375C7.24361 10.1855 7.7051 10 8 10C8.2949 10 8.75639 10.1855 9.24023 10.4375C9.08303 10.7697 9.00101 11.1325 9 11.5C9 12.163 9.26339 12.7989 9.73223 13.2678C10.2011 13.7366 10.837 14 11.5 14C12.163 14 12.7989 13.7366 13.2678 13.2678C13.7366 12.7989 14 12.163 14 11.5C14 10.837 13.7366 10.2011 13.2678 9.73223C12.7989 9.26339 12.163 9 11.5 9C11.1317 9.00133 10.7682 9.08403 10.4355 9.24219C10.1851 8.75938 10 8.29695 10 8C10 7.70338 10.1855 7.24198 10.4355 6.75977C10.7683 6.91725 11.1318 6.99928 11.5 7C11.8283 7 12.1534 6.93534 12.4567 6.8097C12.76 6.68406 13.0356 6.49991 13.2678 6.26777C13.4999 6.03562 13.6841 5.76002 13.8097 5.45671C13.9353 5.15339 14 4.8283 14 4.5C14 3.83696 13.7366 3.20107 13.2678 2.73223C12.7989 2.26339 12.163 2 11.5 2C10.837 2 10.2011 2.26339 9.73223 2.73223C9.26339 3.20107 9 3.83696 9 4.5C9.00101 4.86752 9.08303 5.2303 9.24023 5.5625C8.75639 5.81449 8.2949 6 8 6C7.7051 6 7.24361 5.81449 6.75977 5.5625C6.91697 5.2303 6.99899 4.86752 7 4.5C7 4.1717 6.93534 3.84661 6.8097 3.54329C6.68406 3.23998 6.49991 2.96438 6.26777 2.73223C6.03562 2.50009 5.76002 2.31594 5.45671 2.1903C5.15339 2.06466 4.8283 2 4.5 2ZM4.5 3C4.89782 3 5.27936 3.15804 5.56066 3.43934C5.84196 3.72064 6 4.10218 6 4.5C5.99909 4.68309 5.96467 4.86446 5.89844 5.03516C5.49858 4.75414 5.11921 4.45316 4.85352 4.14648C4.76169 4.0546 4.6377 4.00207 4.50781 4C4.44084 3.99897 4.37435 4.01141 4.31228 4.03657C4.25021 4.06173 4.19383 4.09911 4.14648 4.14648C4.05274 4.24025 4.00008 4.36741 4.00008 4.5C4.00008 4.63259 4.05274 4.75975 4.14648 4.85352C4.45451 5.11635 4.75626 5.49757 5.03906 5.90039C4.86702 5.96642 4.68428 6.00019 4.5 6C4.10218 6 3.72064 5.84196 3.43934 5.56066C3.15804 5.27936 3 4.89782 3 4.5C3 4.10218 3.15804 3.72064 3.43934 3.43934C3.72064 3.15804 4.10218 3 4.5 3ZM11.5 3C11.8978 3 12.2794 3.15804 12.5607 3.43934C12.842 3.72064 13 4.10218 13 4.5C13 4.89782 12.842 5.27936 12.5607 5.56066C12.2794 5.84196 11.8978 6 11.5 6C11.3156 5.99957 11.1329 5.96514 10.9609 5.89844C11.2435 5.49613 11.5458 5.11606 11.8535 4.85352C11.9473 4.75975 11.9999 4.63259 11.9999 4.5C11.9999 4.36741 11.9473 4.24025 11.8535 4.14648C11.7598 4.05274 11.6326 4.00008 11.5 4.00008C11.3674 4.00008 11.2402 4.05274 11.1465 4.14648C10.8803 4.45372 10.5003 4.75569 10.0996 5.03711C10.0338 4.86568 10 4.68362 10 4.5C10 4.10218 10.158 3.72064 10.4393 3.43934C10.7206 3.15804 11.1022 3 11.5 3ZM4.5 10C4.6844 10.0004 4.86715 10.0349 5.03906 10.1016C4.7565 10.5039 4.45418 10.8839 4.14648 11.1465C4.05274 11.2402 4.00008 11.3674 4.00008 11.5C4.00008 11.6326 4.05274 11.7598 4.14648 11.8535C4.24025 11.9473 4.36741 11.9999 4.5 11.9999C4.63259 11.9999 4.75975 11.9473 4.85352 11.8535C5.11971 11.5463 5.49968 11.2443 5.90039 10.9629C5.96619 11.1343 5.99995 11.3164 6 11.5C6 11.8978 5.84196 12.2794 5.56066 12.5607C5.27936 12.842 4.89782 13 4.5 13C4.10218 13 3.72064 12.842 3.43934 12.5607C3.15804 12.2794 3 11.8978 3 11.5C3 11.1022 3.15804 10.7206 3.43934 10.4393C3.72064 10.158 4.10218 10 4.5 10ZM11.5 10C11.8978 10 12.2794 10.158 12.5607 10.4393C12.842 10.7206 13 11.1022 13 11.5C13 11.8978 12.842 12.2794 12.5607 12.5607C12.2794 12.842 11.8978 13 11.5 13C11.1022 13 10.7206 12.842 10.4393 12.5607C10.158 12.2794 10 11.8978 10 11.5C10.0009 11.3169 10.0353 11.1355 10.1016 10.9648C10.5014 11.2459 10.8808 11.5468 11.1465 11.8535C11.2402 11.9473 11.3674 11.9999 11.5 11.9999C11.6326 11.9999 11.7598 11.9473 11.8535 11.8535C11.9473 11.7598 11.9999 11.6326 11.9999 11.5C11.9999 11.3674 11.9473 11.2402 11.8535 11.1465C11.5455 10.8837 11.2437 10.5024 10.9609 10.0996C11.133 10.0336 11.3157 9.99981 11.5 10Z" fill="url(#paint0_linear_9_5832)"/>
<defs>
<linearGradient id="paint0_linear_9_5832" x1="2" y1="8" x2="14" y2="8" gradientUnits="userSpaceOnUse">
<stop stop-color="#FDFC47"/>
<stop offset="1" stop-color="#24FE41"/>
</linearGradient>
</defs>
</svg>
