<svg width="22" height="22" viewBox="0 0 22 22" fill="none" xmlns="http://www.w3.org/2000/svg">
<path d="M11 4C9.338 4 8 5.338 8 7V11C8 12.662 9.338 14 11 14C12.662 14 14 12.662 14 11V7C14 5.338 12.662 4 11 4ZM9.5 7C9.777 7 10 7.223 10 7.5V10.5C10 10.6326 9.94732 10.7598 9.85355 10.8536C9.75979 10.9473 9.63261 11 9.5 11C9.36739 11 9.24021 10.9473 9.14645 10.8536C9.05268 10.7598 9 10.6326 9 10.5V7.5C9 7.223 9.223 7 9.5 7ZM12.5 7C12.777 7 13 7.223 13 7.5V10.5C13 10.6326 12.9473 10.7598 12.8536 10.8536C12.7598 10.9473 12.6326 11 12.5 11C12.3674 11 12.2402 10.9473 12.1464 10.8536C12.0527 10.7598 12 10.6326 12 10.5V7.5C12 7.223 12.223 7 12.5 7Z" fill="url(#paint0_linear_9_2262)"/>
<path d="M6.5 9C6.223 9 6 9.223 6 9.5V11C6 13.6 7.967 15.725 10.5 15.975V17H8.5C8.36739 17 8.24021 17.0527 8.14645 17.1464C8.05268 17.2402 8 17.3674 8 17.5C8 17.6326 8.05268 17.7598 8.14645 17.8536C8.24021 17.9473 8.36739 18 8.5 18H13.5C13.6326 18 13.7598 17.9473 13.8536 17.8536C13.9473 17.7598 14 17.6326 14 17.5C14 17.3674 13.9473 17.2402 13.8536 17.1464C13.7598 17.0527 13.6326 17 13.5 17H11.5V15.975C12.7344 15.8537 13.8792 15.2768 14.7112 14.357C15.5432 13.4371 16.0027 12.2403 16 11V9.5C16 9.36739 15.9473 9.24021 15.8536 9.14645C15.7598 9.05268 15.6326 9 15.5 9C15.3674 9 15.2402 9.05268 15.1464 9.14645C15.0527 9.24021 15 9.36739 15 9.5V11C15 13.216 13.216 15 11 15C8.784 15 7 13.216 7 11V9.5C7 9.223 6.777 9 6.5 9Z" fill="url(#paint1_linear_9_2262)"/>
<defs>
<linearGradient id="paint0_linear_9_2262" x1="8" y1="9" x2="14" y2="9" gradientUnits="userSpaceOnUse">
<stop stop-color="#FDFC47"/>
<stop offset="1" stop-color="#24FE41"/>
</linearGradient>
<linearGradient id="paint1_linear_9_2262" x1="6" y1="13.5" x2="16" y2="13.5" gradientUnits="userSpaceOnUse">
<stop stop-color="#FDFC47"/>
<stop offset="1" stop-color="#24FE41"/>
</linearGradient>
</defs>
</svg>
