<svg width="22" height="22" viewBox="0 0 22 22" fill="none" xmlns="http://www.w3.org/2000/svg">
<path d="M14.999 12C13.891 12 12.999 12.911 12.999 14.031V15.001H11.999V19.001H17.999V15.001H16.999V14.031C16.999 12.911 16.107 12.001 14.999 12.001V12ZM14.999 13C15.553 13 15.999 13.443 15.999 14V15H13.999V14C13.999 13.443 14.445 13 14.999 13Z" fill="url(#paint0_linear_9_2364)"/>
<path d="M9.49899 4C9.22199 4 8.99899 4.223 8.99899 4.5V9.375L7.27999 7.875C6.96799 7.602 6.52399 7.655 6.24999 7.969C6.11746 8.11801 6.04944 8.31352 6.06088 8.51261C6.07232 8.71171 6.16227 8.89814 6.31099 9.031L8.56099 11L6.31099 12.969C6.16212 13.1017 6.07199 13.2881 6.06036 13.4872C6.04874 13.6863 6.11658 13.8819 6.24899 14.031C6.52299 14.344 6.96899 14.398 7.27999 14.125L8.99999 12.625V17.5C8.99999 17.777 9.22299 18 9.49999 18C9.78299 18 9.93699 17.98 10.155 17.812L10.999 17.06V15.04L9.99899 15.936V12.25L12.013 13.994C12.0229 13.4344 12.1869 12.8884 12.487 12.416L10.874 11L13.686 8.531C13.7934 8.42938 13.8697 8.29932 13.906 8.156C13.9518 8.01393 13.9518 7.86107 13.906 7.719C13.8697 7.57568 13.7934 7.44562 13.686 7.344L10.156 4.187C9.95599 4.027 9.72799 4 9.49899 4ZM9.99899 6.062L12.093 7.937L9.99899 9.75V6.062Z" fill="url(#paint1_linear_9_2364)"/>
<defs>
<linearGradient id="paint0_linear_9_2364" x1="11.999" y1="15.5005" x2="17.999" y2="15.5005" gradientUnits="userSpaceOnUse">
<stop stop-color="#FDFC47"/>
<stop offset="1" stop-color="#24FE41"/>
</linearGradient>
<linearGradient id="paint1_linear_9_2364" x1="6.05908" y1="11" x2="13.9403" y2="11" gradientUnits="userSpaceOnUse">
<stop stop-color="#FDFC47"/>
<stop offset="1" stop-color="#24FE41"/>
</linearGradient>
</defs>
</svg>
