<svg width="22" height="22" viewBox="0 0 22 22" fill="none" xmlns="http://www.w3.org/2000/svg">
<path d="M5 11V14C5 17 7 19 10 19H12C15 19 16.76 17.434 16.959 15H17.5C19 15 19 13.5 19 13.5V12.5C19 11 17.5 11 17.5 11H17H5ZM6 12H16V14C16 16.216 14.216 18 12 18H10C7.784 18 6 16.216 6 14V12ZM17.5 12C18 11.968 18.016 12.531 18.016 12.531V13.531C18.016 14 17.5 14 17.5 14H17L17.01 12.015L17.5 12ZM11.193 3.99902C10.095 5.38402 9.765 6.06502 10.161 6.94702C10.521 7.74502 11.449 8.15202 10.982 9.99902C11.749 9.09902 12.358 7.95702 11.756 7.03502C11.144 6.09702 10.808 5.52702 11.193 3.99902ZM8.193 3.99902C7.095 5.38402 6.765 6.06502 7.161 6.94702C7.521 7.74502 8.449 8.15202 7.982 9.99902C8.749 9.09902 9.358 7.95702 8.756 7.03502C8.144 6.09702 7.808 5.52702 8.193 3.99902ZM14.193 3.99902C13.095 5.38402 12.765 6.06502 13.161 6.94702C13.521 7.74502 14.449 8.15202 13.982 9.99902C14.749 9.09902 15.358 7.95702 14.756 7.03502C14.144 6.09702 13.808 5.52702 14.193 3.99902Z" fill="url(#paint0_linear_9_2371)"/>
<defs>
<linearGradient id="paint0_linear_9_2371" x1="5" y1="11.4995" x2="19" y2="11.4995" gradientUnits="userSpaceOnUse">
<stop stop-color="#FDFC47"/>
<stop offset="1" stop-color="#24FE41"/>
</linearGradient>
</defs>
</svg>
