<svg width="22" height="22" viewBox="0 0 22 22" fill="none" xmlns="http://www.w3.org/2000/svg">
<path d="M11 3.08948C8.90198 3.08948 6.88992 3.9229 5.40641 5.40641C3.9229 6.88992 3.08948 8.90198 3.08948 11C3.08948 13.098 3.9229 15.11 5.40641 16.5935C6.88992 18.0771 8.90198 18.9105 11 18.9105C13.098 18.9105 15.11 18.0771 16.5935 16.5935C18.0771 15.11 18.9105 13.098 18.9105 11C18.9105 8.90198 18.0771 6.88992 16.5935 5.40641C15.11 3.9229 13.098 3.08948 11 3.08948ZM11 3.96253C11.1989 3.96253 11.3897 4.04155 11.5303 4.18221C11.671 4.32287 11.75 4.51365 11.75 4.71258C11.75 4.9115 11.671 5.10228 11.5303 5.24294C11.3897 5.3836 11.1989 5.46263 11 5.46263C10.8011 5.46263 10.6103 5.3836 10.4696 5.24294C10.329 5.10228 10.2499 4.9115 10.2499 4.71258C10.2499 4.51365 10.329 4.32287 10.4696 4.18221C10.6103 4.04155 10.8011 3.96253 11 3.96253ZM10.998 5.99963C12.3238 6.00121 13.595 6.52848 14.5327 7.46581C15.4704 8.40315 15.9982 9.67407 16.0003 10.9999C16.0003 13.7571 13.7552 16.0002 10.998 16.0002C9.67249 15.9986 8.40177 15.4712 7.46469 14.5338C6.52762 13.5963 6.00074 12.3254 5.99968 10.9999C5.99968 8.24373 8.24078 5.99963 10.998 5.99963ZM11 7.49973C9.06988 7.49973 7.49978 9.06983 7.49978 10.9999C7.49978 12.93 9.06988 14.5001 11 14.5001C12.9301 14.5001 14.5002 12.93 14.5002 10.9999C14.5002 9.06983 12.9301 7.49973 11 7.49973ZM9.78088 8.99983C9.87088 8.99983 9.94689 9.02983 10.0099 9.09984L10.9999 10.0899L11.99 9.09984C12.05 9.02983 12.13 8.99983 12.219 8.99983C12.309 8.99983 12.384 9.02983 12.447 9.09984L12.9061 9.55487C12.9365 9.58438 12.9606 9.61986 12.9768 9.65909C12.993 9.69832 13.0009 9.74045 13.0001 9.78288C13.0001 9.87288 12.9691 9.94889 12.9061 10.0099L11.916 10.9999L12.9061 11.992C12.9363 12.0219 12.9602 12.0576 12.9763 12.097C12.9925 12.1363 13.0006 12.1785 13.0001 12.221C13.0001 12.311 12.9691 12.388 12.9061 12.451L12.447 12.9081C12.4174 12.9383 12.3819 12.9621 12.3426 12.9779C12.3034 12.9937 12.2613 13.0013 12.219 13.0001C12.1765 13.0015 12.1343 12.994 12.0948 12.9782C12.0554 12.9623 12.0197 12.9385 11.99 12.9081L10.9999 11.918L10.0099 12.9081C9.98005 12.9383 9.94433 12.962 9.90493 12.9778C9.86554 12.9937 9.82332 13.0012 9.78088 13.0001C9.73858 13.0013 9.6965 12.9937 9.65726 12.9779C9.61802 12.9621 9.58248 12.9383 9.55287 12.9081L9.08984 12.451C9.06043 12.4205 9.03735 12.3845 9.0219 12.345C9.00646 12.3055 8.99896 12.2634 8.99983 12.221C8.99983 12.13 9.02983 12.06 9.08984 11.992L10.0799 10.9999L9.08984 10.0099C9.0603 9.98008 9.03709 9.9446 9.02162 9.90559C9.00615 9.86657 8.99874 9.82483 8.99983 9.78288C8.99983 9.69287 9.02983 9.61787 9.08984 9.55487L9.55287 9.09984C9.58106 9.06728 9.61615 9.04142 9.65559 9.02412C9.69503 9.00682 9.73783 8.99852 9.78088 8.99983Z" fill="url(#paint0_linear_9_2374)"/>
<defs>
<linearGradient id="paint0_linear_9_2374" x1="3.08948" y1="11" x2="18.9105" y2="11" gradientUnits="userSpaceOnUse">
<stop stop-color="#FDFC47"/>
<stop offset="1" stop-color="#24FE41"/>
</linearGradient>
</defs>
</svg>
