<svg width="22" height="22" viewBox="0 0 22 22" fill="none" xmlns="http://www.w3.org/2000/svg">
<path d="M10.75 3.5C10.6837 3.5 10.6201 3.52634 10.5732 3.57322C10.5263 3.62011 10.5 3.6837 10.5 3.75V5.25C10.5 5.389 10.612 5.5 10.75 5.5H11.25C11.3163 5.5 11.3799 5.47366 11.4268 5.42678C11.4737 5.37989 11.5 5.3163 11.5 5.25V3.75C11.5 3.6837 11.4737 3.62011 11.4268 3.57322C11.3799 3.52634 11.3163 3.5 11.25 3.5H10.75ZM6.051 5.447C6.01798 5.44681 5.98525 5.45316 5.9547 5.46569C5.92415 5.47822 5.89638 5.49668 5.873 5.52L5.52 5.873C5.49672 5.89622 5.47825 5.92381 5.46564 5.95418C5.45304 5.98456 5.44655 6.01712 5.44655 6.05C5.44655 6.08288 5.45304 6.11544 5.46564 6.14582C5.47825 6.17619 5.49672 6.20378 5.52 6.227L6.58 7.287C6.60322 7.31028 6.63081 7.32875 6.66118 7.34136C6.69156 7.35396 6.72412 7.36045 6.757 7.36045C6.78988 7.36045 6.82244 7.35396 6.85282 7.34136C6.88319 7.32875 6.91078 7.31028 6.934 7.287L7.287 6.934C7.31028 6.91078 7.32875 6.88319 7.34136 6.85282C7.35396 6.82244 7.36045 6.78988 7.36045 6.757C7.36045 6.72412 7.35396 6.69156 7.34136 6.66118C7.32875 6.63081 7.31028 6.60322 7.287 6.58L6.227 5.52C6.20399 5.49674 6.17658 5.4783 6.14635 5.46577C6.11613 5.45323 6.08372 5.44685 6.051 5.447ZM15.949 5.447C15.9165 5.44699 15.8842 5.45343 15.8542 5.46596C15.8241 5.47849 15.7969 5.49686 15.774 5.52L14.714 6.58C14.6907 6.60322 14.6722 6.63081 14.6596 6.66118C14.647 6.69156 14.6406 6.72412 14.6406 6.757C14.6406 6.78988 14.647 6.82244 14.6596 6.85282C14.6722 6.88319 14.6907 6.91078 14.714 6.934L15.067 7.287C15.1139 7.33372 15.1773 7.35995 15.2435 7.35995C15.3097 7.35995 15.3731 7.33372 15.42 7.287L16.48 6.227C16.5033 6.20378 16.5218 6.17619 16.5344 6.14582C16.547 6.11544 16.5534 6.08288 16.5534 6.05C16.5534 6.01712 16.547 5.98456 16.5344 5.95418C16.5218 5.92381 16.5033 5.89622 16.48 5.873L16.127 5.52C16.1036 5.49668 16.0759 5.47822 16.0453 5.46569C16.0148 5.45316 15.982 5.44681 15.949 5.447ZM11 7.5C10.0717 7.5 9.1815 7.86875 8.52513 8.52513C7.86875 9.1815 7.5 10.0717 7.5 11C7.5 11.9283 7.86875 12.8185 8.52513 13.4749C9.1815 14.1313 10.0717 14.5 11 14.5C11.9283 14.5 12.8185 14.1313 13.4749 13.4749C14.1313 12.8185 14.5 11.9283 14.5 11C14.5 10.0717 14.1313 9.1815 13.4749 8.52513C12.8185 7.86875 11.9283 7.5 11 7.5ZM11 8.5C11.663 8.5 12.2989 8.76339 12.7678 9.23223C13.2366 9.70107 13.5 10.337 13.5 11C13.5 11.663 13.2366 12.2989 12.7678 12.7678C12.2989 13.2366 11.663 13.5 11 13.5C10.337 13.5 9.70107 13.2366 9.23223 12.7678C8.76339 12.2989 8.5 11.663 8.5 11C8.5 10.337 8.76339 9.70107 9.23223 9.23223C9.70107 8.76339 10.337 8.5 11 8.5ZM3.75 10.5C3.6837 10.5 3.62011 10.5263 3.57322 10.5732C3.52634 10.6201 3.5 10.6837 3.5 10.75V11.25C3.5 11.389 3.612 11.5 3.75 11.5H5.25C5.3163 11.5 5.37989 11.4737 5.42678 11.4268C5.47366 11.3799 5.5 11.3163 5.5 11.25V10.75C5.5 10.6837 5.47366 10.6201 5.42678 10.5732C5.37989 10.5263 5.3163 10.5 5.25 10.5H3.75ZM16.75 10.5C16.6837 10.5 16.6201 10.5263 16.5732 10.5732C16.5263 10.6201 16.5 10.6837 16.5 10.75V11.25C16.5 11.389 16.612 11.5 16.75 11.5H18.25C18.3163 11.5 18.3799 11.4737 18.4268 11.4268C18.4737 11.3799 18.5 11.3163 18.5 11.25V10.75C18.5 10.6837 18.4737 10.6201 18.4268 10.5732C18.3799 10.5263 18.3163 10.5 18.25 10.5H16.75ZM6.758 14.639C6.6912 14.6391 6.62718 14.6657 6.58 14.713L5.52 15.773C5.49672 15.7962 5.47825 15.8238 5.46564 15.8542C5.45304 15.8846 5.44655 15.9171 5.44655 15.95C5.44655 15.9829 5.45304 16.0154 5.46564 16.0458C5.47825 16.0762 5.49672 16.1038 5.52 16.127L5.873 16.48C5.89622 16.5033 5.92381 16.5218 5.95418 16.5344C5.98456 16.547 6.01712 16.5534 6.05 16.5534C6.08288 16.5534 6.11544 16.547 6.14582 16.5344C6.17619 16.5218 6.20378 16.5033 6.227 16.48L7.287 15.42C7.31028 15.3968 7.32875 15.3692 7.34136 15.3388C7.35396 15.3084 7.36045 15.2759 7.36045 15.243C7.36045 15.2101 7.35396 15.1776 7.34136 15.1472C7.32875 15.1168 7.31028 15.0892 7.287 15.066L6.934 14.713C6.91101 14.6896 6.88362 14.6711 6.85341 14.6584C6.8232 14.6457 6.79077 14.6391 6.758 14.639ZM15.242 14.639C15.2094 14.6392 15.1772 14.6459 15.1471 14.6586C15.1171 14.6713 15.0899 14.6898 15.067 14.713L14.713 15.066C14.6897 15.0892 14.6712 15.1168 14.6586 15.1472C14.646 15.1776 14.6396 15.2101 14.6396 15.243C14.6396 15.2759 14.646 15.3084 14.6586 15.3388C14.6712 15.3692 14.6897 15.3968 14.713 15.42L15.773 16.48C15.7962 16.5033 15.8238 16.5218 15.8542 16.5344C15.8846 16.547 15.9171 16.5534 15.95 16.5534C15.9829 16.5534 16.0154 16.547 16.0458 16.5344C16.0762 16.5218 16.1038 16.5033 16.127 16.48L16.481 16.127C16.5043 16.1038 16.5228 16.0762 16.5354 16.0458C16.548 16.0154 16.5544 15.9829 16.5544 15.95C16.5544 15.9171 16.548 15.8846 16.5354 15.8542C16.5228 15.8238 16.5043 15.7962 16.481 15.773L15.421 14.713C15.3975 14.6895 15.3696 14.6708 15.3389 14.6581C15.3082 14.6454 15.2752 14.6389 15.242 14.639ZM10.75 16.5C10.6837 16.5 10.6201 16.5263 10.5732 16.5732C10.5263 16.6201 10.5 16.6837 10.5 16.75V18.25C10.5 18.389 10.612 18.5 10.75 18.5H11.25C11.3163 18.5 11.3799 18.4737 11.4268 18.4268C11.4737 18.3799 11.5 18.3163 11.5 18.25V16.75C11.5 16.6837 11.4737 16.6201 11.4268 16.5732C11.3799 16.5263 11.3163 16.5 11.25 16.5H10.75Z" fill="url(#paint0_linear_9_2380)"/>
<defs>
<linearGradient id="paint0_linear_9_2380" x1="3.5" y1="11" x2="18.5" y2="11" gradientUnits="userSpaceOnUse">
<stop stop-color="#FDFC47"/>
<stop offset="1" stop-color="#24FE41"/>
</linearGradient>
</defs>
</svg>
