<svg width="22" height="22" viewBox="0 0 22 22" fill="none" xmlns="http://www.w3.org/2000/svg">
<path d="M6.5 4C5.1193 4 4 5.1193 4 6.5C4 7.8807 5.1193 9 6.5 9H8V13H6.5C5.1193 13 4 14.1193 4 15.5C4 16.8807 5.1193 18 6.5 18C7.8807 18 9 16.8807 9 15.5V14H13V15.5C13 16.8807 14.1193 18 15.5 18C16.8807 18 18 16.8807 18 15.5C18 14.1193 16.8807 13 15.5 13H14V9H15.5C16.8807 9 18 7.8807 18 6.5C18 5.1193 16.8807 4 15.5 4C14.1193 4 13 5.1193 13 6.5V8H9V6.5C9 5.1193 7.8807 4 6.5 4ZM6.5 5C7.32843 5 8 5.67157 8 6.5V8H6.5C5.67157 8 5 7.32843 5 6.5C5 5.67157 5.67157 5 6.5 5ZM15.5 5C16.3284 5 17 5.67157 17 6.5C17 7.32843 16.3284 8 15.5 8H14V6.5C14 5.67157 14.6716 5 15.5 5ZM9 9H13V13H9V9ZM6.5 14H8V15.5C8 16.3284 7.32843 17 6.5 17C5.67157 17 5 16.3284 5 15.5C5 14.6716 5.67157 14 6.5 14ZM14 14H15.5C16.3284 14 17 14.6716 17 15.5C17 16.3284 16.3284 17 15.5 17C14.6716 17 14 16.3284 14 15.5V14Z" fill="url(#paint0_linear_9_2387)"/>
<defs>
<linearGradient id="paint0_linear_9_2387" x1="4" y1="11" x2="18" y2="11" gradientUnits="userSpaceOnUse">
<stop stop-color="#FDFC47"/>
<stop offset="1" stop-color="#24FE41"/>
</linearGradient>
</defs>
</svg>
