<svg width="22" height="22" viewBox="0 0 22 22" fill="none" xmlns="http://www.w3.org/2000/svg">
<path d="M10.545 4.742C9.92973 4.91133 9.36073 5.21772 8.88067 5.6382C8.40061 6.05869 8.02194 6.58237 7.77303 7.17C7.77303 7.17 5.85903 11.79 4.08803 11.729C4.06903 11.733 4.05603 11.747 4.03503 11.752C3.95758 11.7738 3.88426 11.8083 3.81803 11.854C3.79103 11.872 3.76403 11.882 3.74003 11.902C3.65014 11.9763 3.57919 12.0709 3.53303 12.178C3.49536 12.2691 3.47601 12.3667 3.47607 12.4652C3.47614 12.5638 3.49563 12.6613 3.53343 12.7524C3.57123 12.8434 3.6266 12.926 3.69636 12.9956C3.76613 13.0652 3.84893 13.1204 3.94003 13.158L13.64 17.176C14.025 17.335 14.46 17.156 14.62 16.771C14.6626 16.6627 14.6791 16.5459 14.668 16.43C14.666 16.398 14.654 16.37 14.648 16.34C14.6337 16.261 14.6063 16.185 14.567 16.115C14.557 16.098 14.559 16.077 14.547 16.061C13.775 15.341 14.144 13.418 14.567 11.975C13.3217 11.8668 12.162 11.2959 11.3167 10.3751C10.4713 9.45418 10.0016 8.25006 10 7C10.0019 6.21499 10.1886 5.44145 10.545 4.742ZM9.40603 16.504C9.44256 16.9673 9.63951 17.4033 9.96297 17.737C10.2864 18.0707 10.7161 18.2811 11.178 18.332C11.4485 18.3614 11.7221 18.3351 11.982 18.2546C12.2419 18.1741 12.4825 18.0412 12.689 17.864L9.40603 16.504Z" fill="url(#paint0_linear_9_2389)"/>
<path d="M19 7C19 8.06087 18.5786 9.07828 17.8284 9.82843C17.0783 10.5786 16.0609 11 15 11C13.9391 11 12.9217 10.5786 12.1716 9.82843C11.4214 9.07828 11 8.06087 11 7C11 5.93913 11.4214 4.92172 12.1716 4.17157C12.9217 3.42143 13.9391 3 15 3C16.0609 3 17.0783 3.42143 17.8284 4.17157C18.5786 4.92172 19 5.93913 19 7Z" fill="url(#paint1_linear_9_2389)"/>
<defs>
<linearGradient id="paint0_linear_9_2389" x1="3.47607" y1="11.5428" x2="14.6714" y2="11.5428" gradientUnits="userSpaceOnUse">
<stop stop-color="#FDFC47"/>
<stop offset="1" stop-color="#24FE41"/>
</linearGradient>
<linearGradient id="paint1_linear_9_2389" x1="11" y1="7" x2="19" y2="7" gradientUnits="userSpaceOnUse">
<stop stop-color="#FDFC47"/>
<stop offset="1" stop-color="#24FE41"/>
</linearGradient>
</defs>
</svg>
