<svg width="22" height="22" viewBox="0 0 22 22" fill="none" xmlns="http://www.w3.org/2000/svg">
<path d="M14 7C14 5.34315 12.6569 4 11 4C9.34315 4 8 5.34315 8 7V11C8 12.6569 9.34315 14 11 14C12.6569 14 14 12.6569 14 11V7Z" fill="url(#paint0_linear_9_2408)"/>
<path d="M6.5 9C6.223 9 6 9.223 6 9.5V11C6 13.6 7.967 15.725 10.5 15.975V17H8.5C8.36739 17 8.24021 17.0527 8.14645 17.1464C8.05268 17.2402 8 17.3674 8 17.5C8 17.6326 8.05268 17.7598 8.14645 17.8536C8.24021 17.9473 8.36739 18 8.5 18H13.5C13.6326 18 13.7598 17.9473 13.8536 17.8536C13.9473 17.7598 14 17.6326 14 17.5C14 17.3674 13.9473 17.2402 13.8536 17.1464C13.7598 17.0527 13.6326 17 13.5 17H11.5V15.975C12.7344 15.8537 13.8792 15.2768 14.7112 14.357C15.5432 13.4371 16.0027 12.2403 16 11V9.5C16 9.36739 15.9473 9.24021 15.8536 9.14645C15.7598 9.05268 15.6326 9 15.5 9C15.3674 9 15.2402 9.05268 15.1464 9.14645C15.0527 9.24021 15 9.36739 15 9.5V11C15 13.216 13.216 15 11 15C8.784 15 7 13.216 7 11V9.5C7 9.223 6.777 9 6.5 9Z" fill="url(#paint1_linear_9_2408)"/>
<defs>
<linearGradient id="paint0_linear_9_2408" x1="8" y1="9" x2="14" y2="9" gradientUnits="userSpaceOnUse">
<stop stop-color="#FDFC47"/>
<stop offset="1" stop-color="#24FE41"/>
</linearGradient>
<linearGradient id="paint1_linear_9_2408" x1="6" y1="13.5" x2="16" y2="13.5" gradientUnits="userSpaceOnUse">
<stop stop-color="#FDFC47"/>
<stop offset="1" stop-color="#24FE41"/>
</linearGradient>
</defs>
</svg>
