<svg width="22" height="22" viewBox="0 0 22 22" fill="none" xmlns="http://www.w3.org/2000/svg">
<path d="M11 2C8.61305 2 6.32387 2.94821 4.63604 4.63604C2.94821 6.32387 2 8.61305 2 11C2 13.3869 2.94821 15.6761 4.63604 17.364C6.32387 19.0518 8.61305 20 11 20C12.1819 20 13.3522 19.7672 14.4442 19.3149C15.5361 18.8626 16.5282 18.1997 17.364 17.364C18.1997 16.5282 18.8626 15.5361 19.3149 14.4442C19.7672 13.3522 20 12.1819 20 11C20 9.8181 19.7672 8.64778 19.3149 7.55585C18.8626 6.46392 18.1997 5.47177 17.364 4.63604C16.5282 3.80031 15.5361 3.13738 14.4442 2.68508C13.3522 2.23279 12.1819 2 11 2ZM9.714 7.143H12.286V12.286H13.571L11 16.143L8.429 12.286H9.714V7.143Z" fill="url(#paint0_linear_9_2425)"/>
<defs>
<linearGradient id="paint0_linear_9_2425" x1="2" y1="11" x2="20" y2="11" gradientUnits="userSpaceOnUse">
<stop stop-color="#FDFC47"/>
<stop offset="1" stop-color="#24FE41"/>
</linearGradient>
</defs>
</svg>
