<svg width="22" height="22" viewBox="0 0 22 22" fill="none" xmlns="http://www.w3.org/2000/svg">
<path d="M11.002 2C8.615 2 6.32582 2.94821 4.63799 4.63604C2.95016 6.32387 2.00195 8.61305 2.00195 11C2.00195 13.3869 2.95016 15.6761 4.63799 17.364C6.32582 19.0518 8.615 20 11.002 20C13.3889 20 15.6781 19.0518 17.3659 17.364C19.0537 15.6761 20.002 13.3869 20.002 11C20.002 8.61305 19.0537 6.32387 17.3659 4.63604C15.6781 2.94821 13.3889 2 11.002 2ZM14.94 8.494L15.849 9.403L10.394 14.857L6.75795 11.221L7.66795 10.312L10.394 13.039L14.94 8.494Z" fill="url(#paint0_linear_9_2427)"/>
<defs>
<linearGradient id="paint0_linear_9_2427" x1="2.00195" y1="11" x2="20.002" y2="11" gradientUnits="userSpaceOnUse">
<stop stop-color="#FDFC47"/>
<stop offset="1" stop-color="#24FE41"/>
</linearGradient>
</defs>
</svg>
