<svg width="22" height="22" viewBox="0 0 22 22" fill="none" xmlns="http://www.w3.org/2000/svg">
<path d="M11 6C8.16004 6 5.56804 7.007 3.51404 8.658C3.47926 8.67806 3.44703 8.70223 3.41804 8.73C3.36947 8.77656 3.33079 8.83244 3.30433 8.8943C3.27787 8.95616 3.26417 9.02272 3.26404 9.09C3.26404 9.22261 3.31672 9.34979 3.41048 9.44355C3.50425 9.53732 3.63143 9.59 3.76404 9.59C3.87993 9.59033 3.99234 9.55038 4.08204 9.477C6.03262 7.8769 8.47712 7.00164 11 7C13.628 7 16.027 7.938 17.918 9.477C18.0077 9.55038 18.1201 9.59033 18.236 9.59C18.3686 9.59 18.4958 9.53732 18.5896 9.44355C18.6834 9.34979 18.736 9.22261 18.736 9.09C18.7359 9.02272 18.7222 8.95616 18.6957 8.8943C18.6693 8.83244 18.6306 8.77656 18.582 8.73C18.553 8.70223 18.5208 8.67806 18.486 8.658C16.433 7.008 13.841 6 11 6Z" fill="url(#paint0_linear_9_2476)"/>
<path d="M11 12C9.64803 12 8.41703 12.47 7.41403 13.225C7.36015 13.2734 7.31727 13.3329 7.28829 13.3993C7.25931 13.4657 7.2449 13.5375 7.24603 13.61C7.24609 13.7068 7.27424 13.8015 7.32708 13.8826C7.37991 13.9637 7.45515 14.0278 7.54368 14.0669C7.6322 14.1061 7.73019 14.1188 7.82575 14.1033C7.92132 14.0879 8.01035 14.0451 8.08203 13.98C8.90403 13.375 9.90203 13 11 13C11.695 13 12.342 13.163 12.938 13.427V13H14.238C13.302 12.386 12.204 12 11 12Z" fill="url(#paint1_linear_9_2476)"/>
<path fill-rule="evenodd" clip-rule="evenodd" d="M11 9C9.01029 9.0024 7.07851 9.67015 5.51203 10.897C5.47504 10.9173 5.44077 10.9421 5.41003 10.971C5.36097 11.0175 5.32186 11.0735 5.29505 11.1355C5.26823 11.1976 5.25428 11.2644 5.25403 11.332C5.25403 11.4646 5.30671 11.5918 5.40048 11.6856C5.49424 11.7793 5.62142 11.832 5.75403 11.832C5.87085 11.8322 5.98407 11.7915 6.07403 11.717C7.47563 10.6059 9.21146 10.0009 11 10C12.863 10 14.567 10.648 15.926 11.717C16.016 11.7915 16.1292 11.8322 16.246 11.832C16.3786 11.832 16.5058 11.7793 16.5996 11.6856C16.6933 11.5918 16.746 11.4646 16.746 11.332C16.7458 11.2644 16.7318 11.1976 16.705 11.1355C16.6782 11.0735 16.6391 11.0175 16.59 10.971C16.5593 10.9418 16.5251 10.9166 16.488 10.896C14.9214 9.66957 12.9896 9.00219 11 9Z" fill="url(#paint2_linear_9_2476)"/>
<path d="M11 17C11.5523 17 12 16.5523 12 16C12 15.4477 11.5523 15 11 15C10.4477 15 10 15.4477 10 16C10 16.5523 10.4477 17 11 17Z" fill="url(#paint3_linear_9_2476)"/>
<path d="M14 14V15C14 15.276 14.1 15.537 14.282 15.718L15.062 16.5L14.282 17.28C14.0967 17.4734 13.9954 17.7322 14 18V19H15C15.276 19 15.538 18.9 15.719 18.718L16.5 17.938L17.282 18.718C17.462 18.899 17.724 19 18 19H19V18C19 17.724 18.9 17.462 18.719 17.28L17.938 16.5L18.719 15.718C18.9 15.538 19 15.276 19 15V14H18C17.724 14 17.463 14.1 17.282 14.28L16.5 15.062L15.719 14.281C15.5257 14.0963 15.2674 13.9953 15 14H14Z" fill="url(#paint4_linear_9_2476)"/>
<defs>
<linearGradient id="paint0_linear_9_2476" x1="3.26404" y1="7.795" x2="18.736" y2="7.795" gradientUnits="userSpaceOnUse">
<stop stop-color="#FDFC47"/>
<stop offset="1" stop-color="#24FE41"/>
</linearGradient>
<linearGradient id="paint1_linear_9_2476" x1="7.24597" y1="13.0549" x2="14.238" y2="13.0549" gradientUnits="userSpaceOnUse">
<stop stop-color="#FDFC47"/>
<stop offset="1" stop-color="#24FE41"/>
</linearGradient>
<linearGradient id="paint2_linear_9_2476" x1="5.25403" y1="10.416" x2="16.746" y2="10.416" gradientUnits="userSpaceOnUse">
<stop stop-color="#FDFC47"/>
<stop offset="1" stop-color="#24FE41"/>
</linearGradient>
<linearGradient id="paint3_linear_9_2476" x1="10" y1="16" x2="12" y2="16" gradientUnits="userSpaceOnUse">
<stop stop-color="#FDFC47"/>
<stop offset="1" stop-color="#24FE41"/>
</linearGradient>
<linearGradient id="paint4_linear_9_2476" x1="13.9999" y1="16.4999" x2="19" y2="16.4999" gradientUnits="userSpaceOnUse">
<stop stop-color="#FDFC47"/>
<stop offset="1" stop-color="#24FE41"/>
</linearGradient>
</defs>
</svg>
