<svg width="22" height="22" viewBox="0 0 22 22" fill="none" xmlns="http://www.w3.org/2000/svg">
<path d="M10.99 6C8.15404 6.002 5.56504 7.009 3.51404 8.658C3.47926 8.67806 3.44703 8.70223 3.41804 8.73C3.36947 8.77656 3.33079 8.83244 3.30433 8.8943C3.27787 8.95616 3.26417 9.02272 3.26404 9.09C3.26404 9.22261 3.31672 9.34978 3.41048 9.44355C3.50425 9.53732 3.63143 9.59 3.76404 9.59C3.87993 9.59033 3.99234 9.55038 4.08204 9.477C5.33626 8.45453 6.80026 7.72082 8.37004 7.328C8.53004 7.121 8.70504 6.924 8.90504 6.748C9.30004 6.4 9.66204 6.206 10.181 6.102C10.466 6.051 10.761 6 10.991 6H10.99ZM11 6C11.852 6.001 12.679 6.289 13.281 6.857C13.437 7.003 13.575 7.167 13.693 7.342C15.2393 7.73936 16.6809 8.46781 17.918 9.477C18.0077 9.55038 18.1201 9.59033 18.236 9.59C18.3686 9.59 18.4958 9.53732 18.5896 9.44355C18.6834 9.34978 18.736 9.22261 18.736 9.09C18.7359 9.02272 18.7222 8.95616 18.6957 8.8943C18.6693 8.83244 18.6306 8.77656 18.582 8.73C18.553 8.70223 18.5208 8.67806 18.486 8.658C16.432 7.008 13.84 6 11 6ZM11 9C10.942 9 10.884 9.007 10.826 9.008C10.792 9.04 10.729 9.115 10.664 9.311C10.6206 9.44152 10.5507 9.56167 10.4587 9.66393C10.3667 9.7662 10.2546 9.84839 10.1294 9.90536C10.0042 9.96234 9.86857 9.99286 9.73103 9.99504C9.59349 9.99721 9.45698 9.97099 9.33004 9.918L8.39704 9.528C8.34704 9.506 8.31104 9.468 8.26604 9.439C7.27091 9.76227 6.33918 10.2552 5.51204 10.896C5.475 10.9166 5.44072 10.9418 5.41004 10.971C5.36098 11.0175 5.32187 11.0735 5.29506 11.1355C5.26824 11.1976 5.25429 11.2644 5.25404 11.332C5.25404 11.4646 5.30672 11.5918 5.40048 11.6856C5.49425 11.7793 5.62143 11.832 5.75404 11.832C5.87086 11.8322 5.98408 11.7915 6.07404 11.717C7.29314 10.7513 8.76872 10.1644 10.318 10.029C10.445 9.892 10.574 9.756 10.727 9.615C10.912 9.443 11.041 9.315 11.08 9.271L11.082 9.27C11.1226 9.22045 11.1562 9.16561 11.182 9.107C11.202 9.069 11.197 9.067 11.197 9.061C11.197 8.977 11.195 9.003 11.191 9.008C11.127 9.006 11.064 9 11 9ZM14.148 9.584C14.0978 9.83557 14.0144 10.0794 13.9 10.309C13.863 10.382 13.824 10.444 13.787 10.512C14.563 10.805 15.284 11.212 15.926 11.717C16.016 11.7915 16.1292 11.8322 16.246 11.832C16.3786 11.832 16.5058 11.7793 16.5996 11.6856C16.6934 11.5918 16.746 11.4646 16.746 11.332C16.7458 11.2644 16.7318 11.1976 16.705 11.1355C16.6782 11.0735 16.6391 11.0175 16.59 10.971C16.5594 10.9418 16.5251 10.9166 16.488 10.896C15.7771 10.3456 14.9885 9.90346 14.148 9.584ZM12.494 12.217V12.529C12.4939 12.7607 12.4133 12.9851 12.266 13.164C12.272 13.172 12.276 13.184 12.283 13.191C12.877 13.358 13.431 13.621 13.918 13.978C13.9897 14.043 14.0786 14.0858 14.1741 14.1013C14.2695 14.1168 14.3675 14.1042 14.4559 14.0651C14.5444 14.0261 14.6197 13.9622 14.6726 13.8813C14.7255 13.8003 14.7538 13.7057 14.754 13.609C14.755 13.5367 14.7406 13.4651 14.7116 13.3988C14.6826 13.3326 14.6398 13.2733 14.586 13.225C13.9598 12.7579 13.2496 12.4157 12.494 12.217ZM9.47404 12.225C8.73035 12.4252 8.03135 12.7645 7.41404 13.225C7.36028 13.2733 7.31747 13.3326 7.2885 13.3988C7.25952 13.4651 7.24505 13.5367 7.24604 13.609C7.24609 13.7058 7.27424 13.8005 7.32708 13.8816C7.37991 13.9627 7.45516 14.0268 7.54368 14.0659C7.6322 14.1051 7.73019 14.1178 7.82576 14.1023C7.92132 14.0869 8.01035 14.0441 8.08204 13.979C8.55758 13.6334 9.08946 13.3728 9.65404 13.209C9.66904 13.191 9.67404 13.166 9.69004 13.149C9.55067 12.9724 9.47493 12.754 9.47504 12.529V12.225H9.47404ZM12.213 13.035C12.216 13.038 12.216 13.044 12.219 13.047C12.222 13.05 12.228 13.05 12.231 13.053L12.213 13.035ZM11.953 15.697C11.663 15.89 11.309 16 10.984 16C10.667 16 10.326 15.896 10.041 15.719C10.0144 15.8103 10.0009 15.9049 10.001 16C10.001 16.2652 10.1064 16.5196 10.2939 16.7071C10.4815 16.8946 10.7358 17 11.001 17C11.2663 17 11.5206 16.8946 11.7081 16.7071C11.8957 16.5196 12.001 16.2652 12.001 16C12.0007 15.8971 11.9845 15.7949 11.953 15.697Z" fill="url(#paint0_linear_9_2472)"/>
<path opacity="0.35" d="M10.9951 7C11.6531 7 12.1871 7.196 12.5991 7.586C13.0111 7.969 13.2161 8.46 13.2161 9.06C13.2161 9.32 13.1481 9.584 13.0101 9.852C12.8731 10.119 12.7521 10.309 12.6431 10.425C12.5031 10.5714 12.358 10.7128 12.2081 10.849L12.1561 10.904C11.7161 11.301 11.4951 11.696 11.4951 12.094V12.529H10.4741V12.019C10.4741 11.693 10.5421 11.416 10.6801 11.185C10.8171 10.946 11.0601 10.667 11.4061 10.349C11.6011 10.169 11.7381 10.035 11.8181 9.948C11.9041 9.854 11.9881 9.729 12.0681 9.57C12.1541 9.404 12.1981 9.233 12.1981 9.06C12.1981 8.728 12.0891 8.46 11.8721 8.258C11.6621 8.055 11.3711 7.953 10.9951 7.953C10.3731 7.953 9.94706 8.301 9.71606 8.995L8.78406 8.605C8.93606 8.192 9.19706 7.823 9.56506 7.497C9.94106 7.165 10.4171 7 10.9951 7ZM10.9851 13.526C11.1951 13.526 11.3681 13.598 11.5051 13.742C11.6501 13.887 11.7211 14.061 11.7211 14.263C11.7211 14.465 11.6501 14.639 11.5051 14.783C11.3681 14.928 11.1951 15 10.9851 15C10.8876 15.0023 10.7907 14.9849 10.7001 14.9487C10.6096 14.9125 10.5274 14.8583 10.4584 14.7894C10.3894 14.7205 10.3351 14.6383 10.2988 14.5478C10.2625 14.4574 10.2449 14.3605 10.2471 14.263C10.245 14.1657 10.2627 14.0689 10.299 13.9786C10.3353 13.8882 10.3895 13.8062 10.4584 13.7373C10.5272 13.6685 10.6093 13.6143 10.6996 13.5779C10.79 13.5416 10.8877 13.524 10.9851 13.526Z" fill="url(#paint1_linear_9_2472)"/>
<defs>
<linearGradient id="paint0_linear_9_2472" x1="3.26404" y1="11.5" x2="18.736" y2="11.5" gradientUnits="userSpaceOnUse">
<stop stop-color="#FDFC47"/>
<stop offset="1" stop-color="#24FE41"/>
</linearGradient>
<linearGradient id="paint1_linear_9_2472" x1="8.78406" y1="11.0001" x2="13.2161" y2="11.0001" gradientUnits="userSpaceOnUse">
<stop stop-color="#FDFC47"/>
<stop offset="1" stop-color="#24FE41"/>
</linearGradient>
</defs>
</svg>
