<svg width="22" height="22" viewBox="0 0 22 22" fill="none" xmlns="http://www.w3.org/2000/svg">
<path opacity="0.5" d="M5.352 3.758L4.412 4.7L17.955 18.242L18.895 17.3L17.488 15.894C17.6241 15.8179 17.7405 15.7111 17.828 15.582L20.766 11.664C20.776 11.6516 20.7856 11.6389 20.795 11.626C20.9281 11.4516 21.0001 11.2383 21 11.019C20.999 10.7747 20.9087 10.5392 20.746 10.357L17.852 6.496C17.7621 6.35056 17.6363 6.23062 17.4868 6.14764C17.3373 6.06465 17.169 6.0214 16.998 6.022C16.8667 6.02226 16.7367 6.04838 16.6155 6.09888C16.4942 6.14938 16.3842 6.22326 16.2915 6.3163C16.1988 6.40935 16.1254 6.51973 16.0754 6.64116C16.0253 6.76259 15.9997 6.89267 16 7.024C16.0009 7.239 16.071 7.448 16.2 7.62L16.195 7.622L18.746 11.024L16.196 14.426L16.197 14.428C16.1721 14.4625 16.1493 14.4986 16.129 14.536L13.447 11.854C13.6108 11.9632 13.8031 12.0216 14 12.022C14.2652 12.022 14.5196 11.9166 14.7071 11.7291C14.8946 11.5416 15 11.2872 15 11.022C15 10.7568 14.8946 10.5024 14.7071 10.3149C14.5196 10.1274 14.2652 10.022 14 10.022C13.8191 10.0223 13.6417 10.0717 13.4867 10.1649C13.3317 10.2581 13.2048 10.3915 13.1197 10.5511C13.0345 10.7107 12.9942 10.8904 13.0031 11.071C13.0119 11.2517 13.0696 11.4265 13.17 11.577L5.352 3.758ZM4.523 6.142C4.36895 6.22573 4.23963 6.34851 4.148 6.498L1.254 10.358C1.09109 10.5405 1.00072 10.7764 1 11.021C0.999914 11.2403 1.07195 11.4536 1.205 11.628C1.21469 11.6409 1.22469 11.6536 1.235 11.666L4.172 15.584C4.26346 15.719 4.38654 15.8295 4.53051 15.906C4.67447 15.9825 4.83496 16.0227 4.998 16.023C5.12941 16.0233 5.25958 15.9976 5.38107 15.9475C5.50256 15.8975 5.61299 15.8239 5.70605 15.7312C5.7991 15.6384 5.87296 15.5282 5.9234 15.4068C5.97384 15.2855 5.99987 15.1554 6 15.024C6 14.8093 5.93093 14.6004 5.803 14.428L5.805 14.426L3.254 11.024L5.804 7.622L5.801 7.62C5.82996 7.58095 5.85602 7.53984 5.879 7.497L4.523 6.141V6.142ZM8 10.022C7.73478 10.022 7.48043 10.1274 7.29289 10.3149C7.10536 10.5024 7 10.7568 7 11.022C7 11.2872 7.10536 11.5416 7.29289 11.7291C7.48043 11.9166 7.73478 12.022 8 12.022C8.18845 12.0216 8.37295 11.968 8.53225 11.8673C8.69154 11.7666 8.81915 11.623 8.90036 11.4529C8.98157 11.2829 9.01308 11.0934 8.99125 10.9062C8.96943 10.719 8.89516 10.5418 8.777 10.395L8.627 10.245C8.44959 10.1013 8.22833 10.0226 8 10.022Z" fill="url(#paint0_linear_9_2458)"/>
<defs>
<linearGradient id="paint0_linear_9_2458" x1="1" y1="11" x2="21" y2="11" gradientUnits="userSpaceOnUse">
<stop stop-color="#FDFC47"/>
<stop offset="1" stop-color="#24FE41"/>
</linearGradient>
</defs>
</svg>
