<svg width="22" height="22" viewBox="0 0 22 22" fill="none" xmlns="http://www.w3.org/2000/svg">
<path d="M5.002 5.99799C4.83091 5.99749 4.66255 6.04091 4.51303 6.12407C4.36351 6.20723 4.23782 6.32737 4.148 6.47299L1.254 10.333C1.09109 10.5155 1.00072 10.7514 1 10.996C0.999914 11.2153 1.07195 11.4286 1.205 11.603C1.21469 11.6159 1.22469 11.6286 1.235 11.641L4.172 15.559C4.26346 15.694 4.38654 15.8045 4.53051 15.881C4.67447 15.9575 4.83496 15.9977 4.998 15.998C5.12932 15.9983 5.25941 15.9726 5.38084 15.9226C5.50226 15.8726 5.61265 15.7992 5.70569 15.7065C5.79874 15.6138 5.87262 15.5037 5.92311 15.3825C5.97361 15.2613 5.99974 15.1313 6 15C6 14.7853 5.93093 14.5764 5.803 14.404L5.805 14.402L3.254 11L5.804 7.59799L5.801 7.59599C5.92965 7.42387 5.99943 7.21488 6 6.99999C6.00026 6.86867 5.97466 6.73858 5.92465 6.61715C5.87463 6.49573 5.80119 6.38534 5.70852 6.2923C5.61585 6.19925 5.50576 6.12537 5.38453 6.07488C5.26331 6.02438 5.13332 5.99825 5.002 5.99799ZM16.998 5.99799C16.8667 5.99825 16.7367 6.02438 16.6155 6.07488C16.4942 6.12537 16.3842 6.19925 16.2915 6.2923C16.1988 6.38534 16.1254 6.49573 16.0754 6.61715C16.0253 6.73858 15.9997 6.86867 16 6.99999C16.0009 7.21499 16.071 7.42399 16.2 7.59599L16.195 7.59799L18.746 11L18.094 11.871C18.6633 12.4342 18.9875 13.1992 18.996 14L20.766 11.64C20.776 11.6279 20.7856 11.6155 20.795 11.603C20.9281 11.4286 21.0001 11.2153 21 10.996C20.999 10.7517 20.9087 10.5162 20.746 10.334L17.852 6.47299C17.7622 6.32737 17.6365 6.20723 17.487 6.12407C17.3375 6.04091 17.1691 5.99749 16.998 5.99799ZM8 9.99799C7.73478 9.99799 7.48043 10.1033 7.29289 10.2909C7.10536 10.4784 7 10.7328 7 10.998C7 11.2632 7.10536 11.5176 7.29289 11.7051C7.48043 11.8926 7.73478 11.998 8 11.998C8.26522 11.998 8.51957 11.8926 8.70711 11.7051C8.89464 11.5176 9 11.2632 9 10.998C9 10.7328 8.89464 10.4784 8.70711 10.2909C8.51957 10.1033 8.26522 9.99799 8 9.99799ZM11 9.99799C10.7348 9.99799 10.4804 10.1033 10.2929 10.2909C10.1054 10.4784 10 10.7328 10 10.998C10 11.2632 10.1054 11.5176 10.2929 11.7051C10.4804 11.8926 10.7348 11.998 11 11.998C11.2652 11.998 11.5196 11.8926 11.7071 11.7051C11.8946 11.5176 12 11.2632 12 10.998C12 10.7328 11.8946 10.4784 11.7071 10.2909C11.5196 10.1033 11.2652 9.99799 11 9.99799ZM14 9.99799C13.7528 10.0002 13.5153 10.0938 13.3331 10.2608C13.1509 10.4278 13.037 10.6564 13.0134 10.9024C12.9898 11.1485 13.0581 11.3945 13.2052 11.5931C13.3523 11.7918 13.5678 11.9289 13.81 11.978C14.131 11.629 14.53 11.361 14.98 11.193C15.0088 11.048 15.0052 10.8985 14.9693 10.7551C14.9334 10.6118 14.8661 10.4781 14.7724 10.3639C14.6787 10.2496 14.5608 10.1575 14.4273 10.0942C14.2937 10.031 14.1478 9.99811 14 9.99799ZM16 11.998C14.892 11.998 14 12.908 14 14.029V14.998H13.5C13.5 14.998 13 14.998 13 15.498V18.498C13 18.498 13 18.998 13.5 18.998H18.5C18.5 18.998 19 18.998 19 18.498V15.498C19 14.998 18.5 14.998 18.5 14.998H18V14.029C18 12.909 17.108 11.998 16 11.998ZM16 12.998C16.554 12.998 17 13.44 17 13.998V14.998H15V13.998C15 13.44 15.446 12.998 16 12.998Z" fill="url(#paint0_linear_9_2450)"/>
<defs>
<linearGradient id="paint0_linear_9_2450" x1="1" y1="12.498" x2="21" y2="12.498" gradientUnits="userSpaceOnUse">
<stop stop-color="#FDFC47"/>
<stop offset="1" stop-color="#24FE41"/>
</linearGradient>
</defs>
</svg>
