<svg width="22" height="22" viewBox="0 0 22 22" fill="none" xmlns="http://www.w3.org/2000/svg">
<path d="M11 6.02197C8.16004 6.02197 5.56804 7.02897 3.51404 8.67997C3.47926 8.70003 3.44703 8.72421 3.41804 8.75197C3.36947 8.79853 3.33079 8.85441 3.30433 8.91627C3.27787 8.97813 3.26417 9.04469 3.26404 9.11197C3.26404 9.24458 3.31672 9.37176 3.41048 9.46553C3.50425 9.55929 3.63143 9.61197 3.76404 9.61197C3.87993 9.6123 3.99234 9.57236 4.08204 9.49897C6.03262 7.89887 8.47712 7.02362 11 7.02197C13.628 7.02197 16.027 7.95997 17.918 9.49897C18.0077 9.57236 18.1201 9.6123 18.236 9.61197C18.3686 9.61197 18.4958 9.55929 18.5896 9.46553C18.6834 9.37176 18.736 9.24458 18.736 9.11197C18.7359 9.04469 18.7222 8.97813 18.6957 8.91627C18.6693 8.85441 18.6306 8.79853 18.582 8.75197C18.553 8.72421 18.5208 8.70003 18.486 8.67997C16.433 7.02997 13.841 6.02197 11 6.02197ZM11 9.02197L10.955 9.02397C10.985 9.0233 11.015 9.0233 11.045 9.02397L11 9.02197ZM10.926 9.02597C9.75718 9.03499 8.60177 9.27634 7.52704 9.73597C7.7448 9.99463 7.89343 10.3043 7.95904 10.636C8.34825 10.4737 8.74988 10.3429 9.16004 10.245C9.24794 10.0338 9.37139 9.83936 9.52504 9.66997C9.70421 9.47538 9.92021 9.31826 10.1605 9.20772C10.4008 9.09718 10.6617 9.0354 10.926 9.02597ZM11.106 9.02597C11.5666 9.05017 12.0047 9.23282 12.346 9.54297L12.366 9.56097C12.5695 9.75341 12.7303 9.98644 12.838 10.245C13.253 10.344 13.654 10.474 14.041 10.635C14.1061 10.3035 14.254 9.99384 14.471 9.73497C13.4065 9.27967 12.2628 9.03842 11.105 9.02497L11.106 9.02597ZM9.43004 12.258C8.70264 12.4601 8.01907 12.7954 7.41404 13.247C7.36028 13.2953 7.31747 13.3546 7.2885 13.4208C7.25952 13.487 7.24505 13.5587 7.24604 13.631C7.24609 13.7278 7.27424 13.8225 7.32708 13.9036C7.37991 13.9847 7.45516 14.0487 7.54368 14.0879C7.6322 14.1271 7.73019 14.1397 7.82576 14.1243C7.92132 14.1089 8.01035 14.066 8.08204 14.001C8.90404 13.396 9.90204 13.022 11 13.022C12.098 13.022 13.096 13.397 13.918 14C13.9897 14.065 14.0786 14.1078 14.1741 14.1233C14.2695 14.1387 14.3675 14.1262 14.4559 14.0871C14.5444 14.0481 14.6197 13.9842 14.6726 13.9032C14.7255 13.8223 14.7538 13.7277 14.754 13.631C14.755 13.5587 14.7406 13.487 14.7116 13.4208C14.6826 13.3546 14.6398 13.2953 14.586 13.247C13.981 12.7954 13.2974 12.4601 12.57 12.258C12.5368 12.3011 12.5017 12.3428 12.465 12.383C12.1051 12.7705 11.6062 12.9996 11.0777 13.0202C10.5493 13.0408 10.0341 12.8512 9.64504 12.493C9.56724 12.4205 9.49534 12.3419 9.43004 12.258Z" fill="url(#paint0_linear_9_2464)"/>
<path d="M11 17.022C11.5523 17.022 12 16.5743 12 16.022C12 15.4697 11.5523 15.022 11 15.022C10.4477 15.022 10 15.4697 10 16.022C10 16.5743 10.4477 17.022 11 17.022Z" fill="url(#paint1_linear_9_2464)"/>
<path opacity="0.35" d="M6.68308 10.291C6.87642 10.4717 6.99025 10.7217 6.99963 10.9861C7.009 11.2506 6.91315 11.508 6.73308 11.702C6.55305 11.896 6.30344 12.0108 6.03894 12.0211C5.77445 12.0314 5.51666 11.9364 5.32208 11.757C5.12734 11.5776 5.01166 11.3284 5.00042 11.0639C4.98917 10.7994 5.08327 10.5412 5.26208 10.346C5.44088 10.1507 5.68983 10.0343 5.95435 10.0223C6.21886 10.0103 6.47733 10.1037 6.67308 10.282M11.6831 10.291C11.8764 10.4717 11.9903 10.7217 11.9996 10.9861C12.009 11.2506 11.9131 11.508 11.7331 11.702C11.553 11.896 11.3034 12.0108 11.0389 12.0211C10.7745 12.0314 10.5167 11.9364 10.3221 11.757C10.1273 11.5776 10.0117 11.3284 10.0004 11.0639C9.98917 10.7994 10.0833 10.5412 10.2621 10.346C10.4409 10.1507 10.6898 10.0343 10.9543 10.0223C11.2189 10.0103 11.4773 10.1037 11.6731 10.282M16.6831 10.291C16.8764 10.4717 16.9903 10.7217 16.9996 10.9861C17.009 11.2506 16.9131 11.508 16.7331 11.702C16.5531 11.8957 16.3037 12.0103 16.0394 12.0206C15.7752 12.0309 15.5176 11.9361 15.3231 11.757C15.1283 11.5776 15.0127 11.3284 15.0014 11.0639C14.9902 10.7994 15.0843 10.5412 15.2631 10.346C15.4418 10.151 15.6906 10.0348 15.9549 10.0228C16.2191 10.0108 16.4774 10.104 16.6731 10.282" fill="url(#paint2_linear_9_2464)"/>
<defs>
<linearGradient id="paint0_linear_9_2464" x1="3.26404" y1="10.0763" x2="18.736" y2="10.0763" gradientUnits="userSpaceOnUse">
<stop stop-color="#FDFC47"/>
<stop offset="1" stop-color="#24FE41"/>
</linearGradient>
<linearGradient id="paint1_linear_9_2464" x1="10" y1="16.022" x2="12" y2="16.022" gradientUnits="userSpaceOnUse">
<stop stop-color="#FDFC47"/>
<stop offset="1" stop-color="#24FE41"/>
</linearGradient>
<linearGradient id="paint2_linear_9_2464" x1="4.99951" y1="11.0215" x2="17.0003" y2="11.0215" gradientUnits="userSpaceOnUse">
<stop stop-color="#FDFC47"/>
<stop offset="1" stop-color="#24FE41"/>
</linearGradient>
</defs>
</svg>
