<svg width="22" height="22" viewBox="0 0 22 22" fill="none" xmlns="http://www.w3.org/2000/svg">
<path d="M8.00027 9.9867C7.73505 9.9867 7.4807 10.0921 7.29316 10.2796C7.10563 10.4671 7.00027 10.7215 7.00027 10.9867C7.00027 11.2519 7.10563 11.5063 7.29316 11.6938C7.4807 11.8813 7.73505 11.9867 8.00027 11.9867C8.26549 11.9867 8.51984 11.8813 8.70738 11.6938C8.89491 11.5063 9.00027 11.2519 9.00027 10.9867C9.00027 10.7215 8.89491 10.4671 8.70738 10.2796C8.51984 10.0921 8.26549 9.9867 8.00027 9.9867ZM11.0003 9.9867C10.7351 9.9867 10.4807 10.0921 10.2932 10.2796C10.1056 10.4671 10.0003 10.7215 10.0003 10.9867C10.0003 11.2519 10.1056 11.5063 10.2932 11.6938C10.4807 11.8813 10.7351 11.9867 11.0003 11.9867C11.2655 11.9867 11.5198 11.8813 11.7074 11.6938C11.8949 11.5063 12.0003 11.2519 12.0003 10.9867C12.0003 10.7215 11.8949 10.4671 11.7074 10.2796C11.5198 10.0921 11.2655 9.9867 11.0003 9.9867ZM14.0003 9.9867C13.7351 9.9867 13.4807 10.0921 13.2932 10.2796C13.1056 10.4671 13.0003 10.7215 13.0003 10.9867C13.0003 11.2519 13.1056 11.5063 13.2932 11.6938C13.4807 11.8813 13.7351 11.9867 14.0003 11.9867C14.2655 11.9867 14.5198 11.8813 14.7074 11.6938C14.8949 11.5063 15.0003 11.2519 15.0003 10.9867C15.0003 10.7215 14.8949 10.4671 14.7074 10.2796C14.5198 10.0921 14.2655 9.9867 14.0003 9.9867ZM5.00227 5.9867C4.83118 5.9862 4.66282 6.02961 4.5133 6.11278C4.36378 6.19594 4.23809 6.31608 4.14827 6.4617L1.25427 10.3217C1.0944 10.501 1.0044 10.7318 1.00073 10.972C0.997055 11.2121 1.07996 11.4456 1.23427 11.6297L4.17227 15.5477C4.24517 15.6617 4.34045 15.7598 4.45234 15.8359C4.56424 15.912 4.69042 15.9646 4.82324 15.9905C4.95607 16.0165 5.09278 16.0152 5.22508 15.9867C5.35739 15.9582 5.48254 15.9032 5.59297 15.825C5.70339 15.7467 5.79678 15.6469 5.86748 15.5315C5.93818 15.4161 5.98473 15.2876 6.0043 15.1537C6.02387 15.0197 6.01605 14.8833 5.98133 14.7525C5.9466 14.6217 5.88568 14.4993 5.80227 14.3927L5.80527 14.3907L3.25427 10.9887L5.80427 7.5867L5.80127 7.5847C5.91207 7.43619 5.97944 7.25982 5.99585 7.07526C6.01226 6.8907 5.97707 6.70521 5.8942 6.53948C5.81134 6.37376 5.68406 6.23431 5.52657 6.1367C5.36907 6.03909 5.18756 5.98716 5.00227 5.9867Z" fill="url(#paint0_linear_9_2436)"/>
<path opacity="0.35" d="M16.9983 5.9867C16.813 5.98716 16.6315 6.03909 16.474 6.1367C16.3165 6.23431 16.1892 6.37376 16.1063 6.53948C16.0235 6.70521 15.9883 6.8907 16.0047 7.07526C16.0211 7.25982 16.0885 7.43619 16.1993 7.5847L16.1953 7.5867L18.7463 10.9887L16.1963 14.3907L16.1973 14.3927C16.113 14.4992 16.0513 14.6218 16.0159 14.7529C15.9806 14.884 15.9723 15.021 15.9916 15.1554C16.0109 15.2898 16.0574 15.4189 16.1282 15.5348C16.1991 15.6507 16.2928 15.7509 16.4036 15.8294C16.5145 15.9079 16.6401 15.963 16.773 15.9913C16.9058 16.0196 17.043 16.0205 17.1762 15.9941C17.3094 15.9676 17.4359 15.9143 17.5478 15.8374C17.6597 15.7605 17.7548 15.6616 17.8273 15.5467L20.7663 11.6297C20.9203 11.4457 21.0031 11.2124 20.9994 10.9725C20.9957 10.7325 20.9059 10.5019 20.7463 10.3227L17.8523 6.4617C17.7624 6.31608 17.6368 6.19594 17.4872 6.11278C17.3377 6.02961 17.1694 5.9862 16.9983 5.9867Z" fill="url(#paint1_linear_9_2436)"/>
<defs>
<linearGradient id="paint0_linear_9_2436" x1="1.00061" y1="10.9979" x2="15.0003" y2="10.9979" gradientUnits="userSpaceOnUse">
<stop stop-color="#FDFC47"/>
<stop offset="1" stop-color="#24FE41"/>
</linearGradient>
<linearGradient id="paint1_linear_9_2436" x1="15.9814" y1="11" x2="20.9995" y2="11" gradientUnits="userSpaceOnUse">
<stop stop-color="#FDFC47"/>
<stop offset="1" stop-color="#24FE41"/>
</linearGradient>
</defs>
</svg>
