<svg width="22" height="22" viewBox="0 0 22 22" fill="none" xmlns="http://www.w3.org/2000/svg">
<g opacity="0.35">
<path fill-rule="evenodd" clip-rule="evenodd" d="M11 6.021C8.16004 6.021 5.56804 7.028 3.51404 8.679C3.47926 8.69906 3.44703 8.72323 3.41804 8.751C3.36947 8.79755 3.33079 8.85344 3.30433 8.91529C3.27787 8.97715 3.26417 9.04372 3.26404 9.111C3.26404 9.2436 3.31672 9.37078 3.41048 9.46455C3.50425 9.55832 3.63143 9.611 3.76404 9.611C3.87993 9.61132 3.99234 9.57138 4.08204 9.498C6.03262 7.8979 8.47712 7.02264 11 7.021C13.628 7.021 16.027 7.959 17.918 9.498C18.0077 9.57138 18.1201 9.61132 18.236 9.611C18.3686 9.611 18.4958 9.55832 18.5896 9.46455C18.6834 9.37078 18.736 9.2436 18.736 9.111C18.7359 9.04372 18.7222 8.97715 18.6957 8.91529C18.6693 8.85344 18.6306 8.79755 18.582 8.751C18.553 8.72323 18.5208 8.69906 18.486 8.679C16.433 7.029 13.841 6.021 11 6.021Z" fill="url(#paint0_linear_9_2492)"/>
<path d="M11 12.021C9.64702 12.021 8.41702 12.49 7.41402 13.246C7.36026 13.2943 7.31746 13.3536 7.28848 13.4198C7.2595 13.4861 7.24503 13.5577 7.24602 13.63C7.24607 13.7268 7.27423 13.8215 7.32706 13.9026C7.3799 13.9837 7.45514 14.0478 7.54366 14.0869C7.63218 14.1261 7.73017 14.1388 7.82574 14.1233C7.9213 14.1079 8.01033 14.065 8.08202 14C8.90402 13.396 9.90202 13.021 11 13.021C12.098 13.021 13.096 13.396 13.918 14C13.9897 14.065 14.0787 14.1079 14.1743 14.1233C14.2699 14.1388 14.3679 14.1261 14.4564 14.0869C14.5449 14.0478 14.6201 13.9837 14.673 13.9026C14.7258 13.8215 14.754 13.7268 14.754 13.63C14.755 13.5577 14.7405 13.4861 14.7116 13.4198C14.6826 13.3536 14.6398 13.2943 14.586 13.246C13.583 12.49 12.353 12.021 11 12.021Z" fill="url(#paint1_linear_9_2492)"/>
<path fill-rule="evenodd" clip-rule="evenodd" d="M11 9.021C9.01029 9.0234 7.07851 9.69114 5.51203 10.918C5.47504 10.9383 5.44077 10.9631 5.41003 10.992C5.36097 11.0385 5.32186 11.0945 5.29505 11.1565C5.26823 11.2186 5.25428 11.2854 5.25403 11.353C5.25403 11.4856 5.30671 11.6128 5.40048 11.7065C5.49424 11.8003 5.62142 11.853 5.75403 11.853C5.87085 11.8532 5.98407 11.8125 6.07403 11.738C7.47563 10.6269 9.21146 10.0219 11 10.021C12.863 10.021 14.567 10.669 15.926 11.738C16.016 11.8125 16.1292 11.8532 16.246 11.853C16.3786 11.853 16.5058 11.8003 16.5996 11.7065C16.6933 11.6128 16.746 11.4856 16.746 11.353C16.7458 11.2854 16.7318 11.2186 16.705 11.1565C16.6782 11.0945 16.6391 11.0385 16.59 10.992C16.5593 10.9628 16.5251 10.9376 16.488 10.917C14.9214 9.69057 12.9896 9.02319 11 9.021Z" fill="url(#paint2_linear_9_2492)"/>
<path d="M11 17.021C11.5523 17.021 12 16.5733 12 16.021C12 15.4687 11.5523 15.021 11 15.021C10.4477 15.021 10 15.4687 10 16.021C10 16.5733 10.4477 17.021 11 17.021Z" fill="url(#paint3_linear_9_2492)"/>
</g>
<defs>
<linearGradient id="paint0_linear_9_2492" x1="3.26404" y1="7.816" x2="18.736" y2="7.816" gradientUnits="userSpaceOnUse">
<stop stop-color="#FDFC47"/>
<stop offset="1" stop-color="#24FE41"/>
</linearGradient>
<linearGradient id="paint1_linear_9_2492" x1="7.24597" y1="13.0754" x2="14.7541" y2="13.0754" gradientUnits="userSpaceOnUse">
<stop stop-color="#FDFC47"/>
<stop offset="1" stop-color="#24FE41"/>
</linearGradient>
<linearGradient id="paint2_linear_9_2492" x1="5.25403" y1="10.437" x2="16.746" y2="10.437" gradientUnits="userSpaceOnUse">
<stop stop-color="#FDFC47"/>
<stop offset="1" stop-color="#24FE41"/>
</linearGradient>
<linearGradient id="paint3_linear_9_2492" x1="10" y1="16.021" x2="12" y2="16.021" gradientUnits="userSpaceOnUse">
<stop stop-color="#FDFC47"/>
<stop offset="1" stop-color="#24FE41"/>
</linearGradient>
</defs>
</svg>
