<svg width="22" height="22" viewBox="0 0 22 22" fill="none" xmlns="http://www.w3.org/2000/svg">
<path d="M8 6C9.1045 6 10 6.8955 10 8V9H12V8C12 6.8955 12.8954 6 14 6C15.1045 6 16 6.8955 16 8C16 9.1045 15.1045 10 14 10H13V12H14C15.1045 12.0003 16 12.8955 16 14C16 15.1045 15.1045 16 14 16C12.8955 16 12 15.1045 12 14V13H10V14C10 15.1045 9.10463 16 8 16C6.8955 16 6 15.1045 6 14C6 12.8955 6.8955 12 8 12H9V10H8C6.8955 10 6 9.1045 6 8C6 6.8955 6.8955 6 8 6ZM8 7C7.44775 7 7 7.44775 7 8C7 8.55213 7.44775 9 8 9H9V8C9 7.44775 8.55225 7 8 7ZM14 7C13.4477 7 13 7.44775 13 8V9H14C14.5523 9 15 8.55225 15 8C15 7.44775 14.5523 7 14 7ZM10 10V12H12V10H10ZM8 13C7.44775 13 7 13.4477 7 14C7 14.5523 7.44775 15 8 15C8.55225 15 9 14.5523 9 14V13H8ZM13 13V14C13 14.5523 13.4477 15 14 15C14.5523 15 15 14.5523 15 14C15 13.4477 14.5523 13 14 13H13Z" fill="url(#paint0_linear_9_2556)"/>
<path d="M6 3C4.338 3 3 4.338 3 6V16C3 17.662 4.338 19 6 19H16C17.662 19 19 17.662 19 16V6C19 4.338 17.662 3 16 3H6ZM6 4H16C17.108 4 18 4.892 18 6V16C18 17.108 17.108 18 16 18H6C4.892 18 4 17.108 4 16V6C4 4.892 4.892 4 6 4Z" fill="url(#paint1_linear_9_2556)"/>
<defs>
<linearGradient id="paint0_linear_9_2556" x1="6" y1="11" x2="16" y2="11" gradientUnits="userSpaceOnUse">
<stop stop-color="#FDFC47"/>
<stop offset="1" stop-color="#24FE41"/>
</linearGradient>
<linearGradient id="paint1_linear_9_2556" x1="3" y1="11" x2="19" y2="11" gradientUnits="userSpaceOnUse">
<stop stop-color="#FDFC47"/>
<stop offset="1" stop-color="#24FE41"/>
</linearGradient>
</defs>
</svg>
