<svg width="22" height="22" viewBox="0 0 22 22" fill="none" xmlns="http://www.w3.org/2000/svg">
<g clip-path="url(#clip0_9_2559)">
<path d="M21.903 7.83197C20.867 2.74297 11.097 2.42097 4.79798 6.29797V6.72597C11.088 3.45397 20.013 3.47597 20.825 8.16297C21.099 9.71497 20.237 11.331 18.691 12.26V13.476C20.551 12.788 22.453 10.562 21.903 7.83197ZM10.45 16.742C6.10298 17.147 1.57398 16.509 0.939977 13.072C0.624977 11.38 1.39198 9.58497 2.40298 8.46997V7.87397C0.579978 9.48997 -0.411023 11.537 0.159977 13.952C0.889977 17.052 4.77598 18.806 10.71 18.222C13.06 17.993 16.134 17.228 18.268 16.042V14.355C16.328 15.525 13.123 16.492 10.45 16.742Z" fill="url(#paint0_linear_9_2559)"/>
<path d="M17.921 7.09595H16.781V12.2329C16.781 12.8369 17.067 13.3619 17.921 13.4449M4.34703 8.97395H3.20703V12.3289C3.20703 12.9329 3.49303 13.4569 4.34703 13.5399M3.20703 7.25295H4.34703V8.34495H3.20703V7.25295ZM11.175 13.4869C10.252 13.4869 9.86203 12.8369 9.86203 12.1959V7.73995H10.989V8.97395H11.843V9.89795H10.989V12.1279C10.989 12.3889 11.113 12.5329 11.383 12.5329H11.843V13.4869H11.175ZM14.171 9.84195C13.786 9.84195 13.488 10.0439 13.363 10.3159C13.289 10.4809 13.263 10.6059 13.252 10.8079H14.996C14.971 10.3139 14.751 9.84195 14.171 9.84195ZM13.251 11.5859C13.251 12.1709 13.616 12.6019 14.254 12.6019C14.756 12.6019 15.004 12.4599 15.294 12.1719L15.991 12.8479C15.543 13.2929 15.075 13.5639 14.246 13.5639C13.165 13.5639 12.129 12.9659 12.129 11.2259C12.129 9.73795 13.032 8.89695 14.221 8.89695C15.427 8.89695 16.119 9.88195 16.119 11.1739V11.5859H13.251ZM7.41703 9.89795C7.74903 9.89795 7.88603 10.0629 7.88603 10.3309V13.4929H9.01603V10.3269C9.01603 9.68395 8.67603 8.97395 7.68603 8.97395H5.35503V13.4929H6.48003V9.89795" fill="url(#paint1_linear_9_2559)"/>
</g>
<defs>
<linearGradient id="paint0_linear_9_2559" x1="-0.00134277" y1="11" x2="21.9994" y2="11" gradientUnits="userSpaceOnUse">
<stop stop-color="#FDFC47"/>
<stop offset="1" stop-color="#24FE41"/>
</linearGradient>
<linearGradient id="paint1_linear_9_2559" x1="3.20703" y1="10.3299" x2="17.921" y2="10.3299" gradientUnits="userSpaceOnUse">
<stop stop-color="#FDFC47"/>
<stop offset="1" stop-color="#24FE41"/>
</linearGradient>
<clipPath id="clip0_9_2559">
<rect width="22" height="22" fill="white"/>
</clipPath>
</defs>
</svg>
