<svg width="22" height="22" viewBox="0 0 22 22" fill="none" xmlns="http://www.w3.org/2000/svg">
<path d="M8.5 4C8.10218 4 7.72064 4.15804 7.43934 4.43934C7.15804 4.72064 7 5.10218 7 5.5C7 5.89782 7.15804 6.27936 7.43934 6.56066C7.72064 6.84196 8.10218 7 8.5 7H10V5.5C10 5.10218 9.84196 4.72064 9.56066 4.43934C9.27936 4.15804 8.89782 4 8.5 4ZM12.5 4C12.1022 4 11.7206 4.15804 11.4393 4.43934C11.158 4.72064 11 5.10218 11 5.5V9.5C11 9.89782 11.158 10.2794 11.4393 10.5607C11.7206 10.842 12.1022 11 12.5 11C12.8978 11 13.2794 10.842 13.5607 10.5607C13.842 10.2794 14 9.89782 14 9.5V8.2324C13.6859 7.95142 13.4344 7.6074 13.2621 7.22275C13.0898 6.83811 13.0005 6.42147 13 6C13.001 5.42173 13.169 4.85606 13.484 4.37109C13.2115 4.1327 12.862 4.0009 12.5 4ZM4.5 8C4.10218 8 3.72064 8.15804 3.43934 8.43934C3.15804 8.72064 3 9.10218 3 9.5C3 9.89782 3.15804 10.2794 3.43934 10.5607C3.72064 10.842 4.10218 11 4.5 11H8.5C8.89782 11 9.27936 10.842 9.56066 10.5607C9.84196 10.2794 10 9.89782 10 9.5C10 9.10218 9.84196 8.72064 9.56066 8.43934C9.27936 8.15804 8.89782 8 8.5 8H4.5ZM17.631 8.5156C17.1455 8.83108 16.579 8.99931 16 9C15.709 8.99955 15.4197 8.95677 15.141 8.873C15.0493 9.06936 15.0012 9.28327 15 9.5V11H16.5C16.8978 11 17.2794 10.842 17.5607 10.5607C17.842 10.2794 18 9.89782 18 9.5C17.9998 9.1381 17.8687 8.78848 17.631 8.5156ZM4.5 12C4.10218 12 3.72064 12.158 3.43934 12.4393C3.15804 12.7206 3 13.1022 3 13.5C3 13.8978 3.15804 14.2794 3.43934 14.5607C3.72064 14.842 4.10218 15 4.5 15C4.89782 15 5.27936 14.842 5.56066 14.5607C5.84196 14.2794 6 13.8978 6 13.5V12H4.5ZM8.5 12C8.10218 12 7.72064 12.158 7.43934 12.4393C7.15804 12.7206 7 13.1022 7 13.5V17.5C7 17.8978 7.15804 18.2794 7.43934 18.5607C7.72064 18.842 8.10218 19 8.5 19C8.89782 19 9.27936 18.842 9.56066 18.5607C9.84196 18.2794 10 17.8978 10 17.5V13.5C10 13.1022 9.84196 12.7206 9.56066 12.4393C9.27936 12.158 8.89782 12 8.5 12ZM12.5 12C12.1022 12 11.7206 12.158 11.4393 12.4393C11.158 12.7206 11 13.1022 11 13.5C11 13.8978 11.158 14.2794 11.4393 14.5607C11.7206 14.842 12.1022 15 12.5 15H16.5C16.8978 15 17.2794 14.842 17.5607 14.5607C17.842 14.2794 18 13.8978 18 13.5C18 13.1022 17.842 12.7206 17.5607 12.4393C17.2794 12.158 16.8978 12 16.5 12H12.5ZM11 16V17.5C11 17.8978 11.158 18.2794 11.4393 18.5607C11.7206 18.842 12.1022 19 12.5 19C12.8978 19 13.2794 18.842 13.5607 18.5607C13.842 18.2794 14 17.8978 14 17.5C14 17.1022 13.842 16.7206 13.5607 16.4393C13.2794 16.158 12.8978 16 12.5 16H11Z" fill="url(#paint0_linear_9_2596)"/>
<path d="M16 8C17.1046 8 18 7.10457 18 6C18 4.89543 17.1046 4 16 4C14.8954 4 14 4.89543 14 6C14 7.10457 14.8954 8 16 8Z" fill="url(#paint1_linear_9_2596)"/>
<defs>
<linearGradient id="paint0_linear_9_2596" x1="3" y1="11.5" x2="18" y2="11.5" gradientUnits="userSpaceOnUse">
<stop stop-color="#FDFC47"/>
<stop offset="1" stop-color="#24FE41"/>
</linearGradient>
<linearGradient id="paint1_linear_9_2596" x1="14" y1="6" x2="18" y2="6" gradientUnits="userSpaceOnUse">
<stop stop-color="#FDFC47"/>
<stop offset="1" stop-color="#24FE41"/>
</linearGradient>
</defs>
</svg>
