<svg width="22" height="22" viewBox="0 0 22 22" fill="none" xmlns="http://www.w3.org/2000/svg">
<path d="M13.0616 6.24872C13.5445 5.64748 13.8719 4.83061 13.7815 4.00269C13.086 4.03182 12.2195 4.48577 11.7174 5.06947C11.2739 5.58738 10.88 6.43395 10.982 7.23186C11.7626 7.29014 12.5619 6.83691 13.0616 6.24872ZM14.8214 11.4504C14.8047 9.67985 16.2701 8.82025 16.3364 8.77922C15.5074 7.56918 14.2219 7.40528 13.7686 7.39032C12.6883 7.28025 11.6426 8.03941 11.0914 8.03941C10.5305 8.03934 9.68353 7.40346 8.77125 7.42154C7.59543 7.43912 6.49433 8.11997 5.89154 9.17426C4.65061 11.3292 5.5757 14.4942 6.76759 16.2318C7.36465 17.0872 8.06014 18.0392 8.97241 18.0016C9.86465 17.9677 10.1972 17.4351 11.2756 17.4351C12.3427 17.4351 12.6553 18.0016 13.5862 17.9834C14.5443 17.9676 15.1469 17.1265 15.7232 16.2676C16.4097 15.2878 16.6869 14.3272 16.6979 14.2761C16.6765 14.2682 14.841 13.57 14.8214 11.4504Z" fill="url(#paint0_linear_9_2609)"/>
<defs>
<linearGradient id="paint0_linear_9_2609" x1="5.30225" y1="11.0027" x2="16.6979" y2="11.0027" gradientUnits="userSpaceOnUse">
<stop stop-color="#FDFC47"/>
<stop offset="1" stop-color="#24FE41"/>
</linearGradient>
</defs>
</svg>
