<svg width="22" height="22" viewBox="0 0 22 22" fill="none" xmlns="http://www.w3.org/2000/svg">
<path d="M11.002 3.00201C9.9511 3.00179 8.91045 3.20862 7.9395 3.61068C6.96855 4.01273 6.08633 4.60215 5.34323 5.34525C4.60013 6.08835 4.01072 6.97057 3.60866 7.94152C3.2066 8.91247 2.99978 9.95311 3 11.004C3.00061 13.1257 3.844 15.1603 5.34465 16.6602C6.8453 18.1601 8.88029 19.0025 11.002 19.002C13.123 19.0014 15.157 18.1586 16.6568 16.6588C18.1566 15.159 18.9994 13.125 19 11.004C19.0005 8.88231 18.1581 6.84731 16.6582 5.34666C15.1583 3.84601 13.1237 3.00262 11.002 3.00201ZM7.8086 6.30471H14.1953C14.5273 6.30471 14.7969 6.57427 14.7969 6.90627V15.7012C14.7969 16.0332 14.5273 16.3047 14.1953 16.3047H7.8086C7.4766 16.3047 7.20704 16.0332 7.20704 15.7012V6.90627C7.20704 6.57427 7.4766 6.30471 7.8086 6.30471ZM11.002 14.875C10.706 14.875 10.4649 15.1142 10.4649 15.4102C10.4649 15.7062 10.706 15.9473 11.002 15.9473C11.298 15.9473 11.5372 15.7062 11.5372 15.4102C11.5372 15.1142 11.298 14.875 11.002 14.875Z" fill="url(#paint0_linear_9_2616)"/>
<defs>
<linearGradient id="paint0_linear_9_2616" x1="3" y1="11.002" x2="19" y2="11.002" gradientUnits="userSpaceOnUse">
<stop stop-color="#FDFC47"/>
<stop offset="1" stop-color="#24FE41"/>
</linearGradient>
</defs>
</svg>
