<svg width="22" height="22" viewBox="0 0 22 22" fill="none" xmlns="http://www.w3.org/2000/svg">
<path d="M18.3891 4.25399C18.2282 4.2383 18.0661 4.26773 17.9211 4.33899L3.74606 9.83899C2.77906 10.229 2.78606 10.774 3.56906 11.015L7.20506 12.156L15.6251 6.81199C16.0211 6.57199 16.3861 6.69899 16.0891 6.96799L9.26706 13.16L9.07206 14.772L8.08406 11.604L7.20806 12.161C7.63806 13.521 8.05506 14.886 8.48806 16.243C8.62606 16.608 8.97306 16.707 9.28106 16.714C9.74606 16.729 10.5251 16.08 10.5251 16.08L11.7761 15.024L15.1991 17.568C15.8761 17.944 16.3651 17.749 16.5321 16.934L18.9451 5.49199C19.1291 4.74399 18.8251 4.30099 18.3891 4.25399ZM10.1921 13.848L10.9501 14.411L10.0301 15.187L10.1921 13.848Z" fill="url(#paint0_linear_9_2632)"/>
<defs>
<linearGradient id="paint0_linear_9_2632" x1="2.99976" y1="11.0009" x2="18.9998" y2="11.0009" gradientUnits="userSpaceOnUse">
<stop stop-color="#FDFC47"/>
<stop offset="1" stop-color="#24FE41"/>
</linearGradient>
</defs>
</svg>
