<svg width="22" height="22" viewBox="0 0 22 22" fill="none" xmlns="http://www.w3.org/2000/svg">
<path d="M6 3C4.338 3 3 4.338 3 6V16C3 17.662 4.338 19 6 19H16C17.662 19 19 17.662 19 16V6C19 4.338 17.662 3 16 3H6ZM6 4H16C17.108 4 18 4.892 18 6V16C18 17.108 17.108 18 16 18H6C4.892 18 4 17.108 4 16V6C4 4.892 4.892 4 6 4Z" fill="url(#paint0_linear_9_2653)"/>
<path fill-rule="evenodd" clip-rule="evenodd" d="M6.46484 7.4648L5.75781 8.17183L8.58591 10.9999L5.75781 13.828L6.46484 14.5351L10 10.9999L6.46484 7.4648ZM10 14V15H15V14H10Z" fill="url(#paint1_linear_9_2653)"/>
<defs>
<linearGradient id="paint0_linear_9_2653" x1="3" y1="11" x2="19" y2="11" gradientUnits="userSpaceOnUse">
<stop stop-color="#FDFC47"/>
<stop offset="1" stop-color="#24FE41"/>
</linearGradient>
<linearGradient id="paint1_linear_9_2653" x1="5.75781" y1="11.2323" x2="15" y2="11.2323" gradientUnits="userSpaceOnUse">
<stop stop-color="#FDFC47"/>
<stop offset="1" stop-color="#24FE41"/>
</linearGradient>
</defs>
</svg>
