<svg width="32" height="32" viewBox="0 0 32 32" fill="none" xmlns="http://www.w3.org/2000/svg">
<g clip-path="url(#clip0_9_868)">
<g filter="url(#filter0_d_9_868)">
<path d="M23 1H9C4.58172 1 1 4.58172 1 9V23C1 27.4183 4.58172 31 9 31H23C27.4183 31 31 27.4183 31 23V9C31 4.58172 27.4183 1 23 1Z" fill="#232323"/>
<path d="M9 1.5H23C27.1421 1.5 30.5 4.85786 30.5 9V23C30.5 27.1421 27.1421 30.5 23 30.5H9C4.85786 30.5 1.5 27.1421 1.5 23V9C1.5 4.85786 4.85786 1.5 9 1.5Z" stroke="url(#paint0_linear_9_868)"/>
</g>
<path opacity="0.9" d="M7 5C5.892 5 5 5.892 5 7V13C5 14.108 5.892 15 7 15H13C14.108 15 15 14.108 15 13V7C15 5.892 14.108 5 13 5H7ZM7 6H13C13.554 6 14 6.446 14 7V13C14 13.554 13.554 14 13 14H7C6.446 14 6 13.554 6 13V7C6 6.446 6.446 6 7 6Z" fill="url(#paint1_linear_9_868)"/>
<path opacity="0.9" d="M19 5C17.892 5 17 5.892 17 7V13C17 14.108 17.892 15 19 15H25C26.108 15 27 14.108 27 13V7C27 5.892 26.108 5 25 5H19ZM19 6H25C25.554 6 26 6.446 26 7V13C26 13.554 25.554 14 25 14H19C18.446 14 18 13.554 18 13V7C18 6.446 18.446 6 19 6Z" fill="url(#paint2_linear_9_868)"/>
<path opacity="0.9" d="M7 17C5.892 17 5 17.892 5 19V25C5 26.108 5.892 27 7 27H13C14.108 27 15 26.108 15 25V19C15 17.892 14.108 17 13 17H7ZM7 18H13C13.554 18 14 18.446 14 19V25C14 25.554 13.554 26 13 26H7C6.446 26 6 25.554 6 25V19C6 18.446 6.446 18 7 18Z" fill="url(#paint3_linear_9_868)"/>
<path opacity="0.9" d="M19 17C17.892 17 17 17.892 17 19V25C17 26.108 17.892 27 19 27H25C26.108 27 27 26.108 27 25V19C27 17.892 26.108 17 25 17H19ZM19 18H25C25.554 18 26 18.446 26 19V25C26 25.554 25.554 26 25 26H19C18.446 26 18 25.554 18 25V19C18 18.446 18.446 18 19 18Z" fill="url(#paint4_linear_9_868)"/>
</g>
<defs>
<filter id="filter0_d_9_868" x="-3" y="1" width="38" height="38" filterUnits="userSpaceOnUse" color-interpolation-filters="sRGB">
<feFlood flood-opacity="0" result="BackgroundImageFix"/>
<feColorMatrix in="SourceAlpha" type="matrix" values="0 0 0 0 0 0 0 0 0 0 0 0 0 0 0 0 0 0 127 0" result="hardAlpha"/>
<feOffset dy="4"/>
<feGaussianBlur stdDeviation="2"/>
<feComposite in2="hardAlpha" operator="out"/>
<feColorMatrix type="matrix" values="0 0 0 0 0 0 0 0 0 0 0 0 0 0 0 0 0 0 0.25 0"/>
<feBlend mode="normal" in2="BackgroundImageFix" result="effect1_dropShadow_9_868"/>
<feBlend mode="normal" in="SourceGraphic" in2="effect1_dropShadow_9_868" result="shape"/>
</filter>
<linearGradient id="paint0_linear_9_868" x1="1" y1="16" x2="31" y2="16" gradientUnits="userSpaceOnUse">
<stop stop-color="#FDFC47"/>
<stop offset="1" stop-color="#24FE41"/>
</linearGradient>
<linearGradient id="paint1_linear_9_868" x1="5" y1="10" x2="15" y2="10" gradientUnits="userSpaceOnUse">
<stop stop-color="#FDFC47"/>
<stop offset="1" stop-color="#24FE41"/>
</linearGradient>
<linearGradient id="paint2_linear_9_868" x1="17" y1="10" x2="27" y2="10" gradientUnits="userSpaceOnUse">
<stop stop-color="#FDFC47"/>
<stop offset="1" stop-color="#24FE41"/>
</linearGradient>
<linearGradient id="paint3_linear_9_868" x1="5" y1="22" x2="15" y2="22" gradientUnits="userSpaceOnUse">
<stop stop-color="#FDFC47"/>
<stop offset="1" stop-color="#24FE41"/>
</linearGradient>
<linearGradient id="paint4_linear_9_868" x1="17" y1="22" x2="27" y2="22" gradientUnits="userSpaceOnUse">
<stop stop-color="#FDFC47"/>
<stop offset="1" stop-color="#24FE41"/>
</linearGradient>
<clipPath id="clip0_9_868">
<rect width="32" height="32" fill="white"/>
</clipPath>
</defs>
</svg>
