<svg width="24" height="24" viewBox="0 0 24 24" fill="none" xmlns="http://www.w3.org/2000/svg">
<path d="M7.0957 7C7.36524 8.7782 8.06276 10.6481 9.64648 12.3535C8.92625 13.2599 8.01719 14.1405 6.8418 15H4V16H5.32617C4.82772 16.299 4.29999 16.5965 3.71875 16.8906L4.31445 18C5.55874 17.3703 6.62502 16.6983 7.55469 16H20V15H8.77148C11.5903 12.46 12.8225 9.63196 13.7188 7H12.3613C11.8494 8.5034 11.2582 9.93179 10.375 11.3086C9.11027 9.89229 8.51827 8.5122 8.28906 7H7.0957ZM17.1367 7C15.964 7.025 15.0647 7.21755 14.4102 7.49805L14.7773 8.75977C15.091 8.65767 16.2772 8.30078 16.9727 8.30078H17.0684C18.0365 8.33878 18.1055 8.66947 18.1055 9.44727V9.75391L17.5996 9.83203C15.2541 10.1508 14 10.4185 14 12.1016C14 13.2746 14.9136 14 16.2363 14C17.15 14 17.7497 13.6428 18.3633 13.1582L18.5547 13.873H20V9.1543C20 7.7135 18.9372 7 17.3008 7H17.1367ZM18.1055 10.75V12.3184C17.6009 12.6372 17.219 12.8652 16.5645 12.8652C15.9781 12.8652 15.6914 12.5216 15.6914 12.0371C15.6914 11.1191 16.5496 10.9645 17.5996 10.8242L18.1055 10.75Z" fill="url(#paint0_linear_10_14864)"/>
<defs>
<linearGradient id="paint0_linear_10_14864" x1="3.71875" y1="12.5" x2="20" y2="12.5" gradientUnits="userSpaceOnUse">
<stop stop-color="#FDFC47"/>
<stop offset="1" stop-color="#24FE41"/>
</linearGradient>
</defs>
</svg>
