<svg width="24" height="24" viewBox="0 0 24 24" fill="none" xmlns="http://www.w3.org/2000/svg">
<path d="M4 4V8H8V4H4ZM12 4V5H13V4H12ZM5 5H7V7H5V5ZM12 7V8H13V7H12ZM12 10V11H13V10H12ZM17 10V14H21V10H17ZM18 11H20V13H18V11ZM12 13V14H13V13H12ZM4 16V20H8V16H4ZM12 16V17H13V16H12ZM5 17H7V19H5V17ZM12 19V20H13V19H12Z" fill="url(#paint0_linear_10_14853)"/>
<path d="M9 4V8L12 6L9 4ZM16 10L13 12L16 14V10ZM9 16V20L12 18L9 16Z" fill="url(#paint1_linear_10_14853)"/>
<defs>
<linearGradient id="paint0_linear_10_14853" x1="4" y1="12" x2="21" y2="12" gradientUnits="userSpaceOnUse">
<stop stop-color="#FDFC47"/>
<stop offset="1" stop-color="#24FE41"/>
</linearGradient>
<linearGradient id="paint1_linear_10_14853" x1="9" y1="12" x2="16" y2="12" gradientUnits="userSpaceOnUse">
<stop stop-color="#FDFC47"/>
<stop offset="1" stop-color="#24FE41"/>
</linearGradient>
</defs>
</svg>
