<svg width="24" height="24" viewBox="0 0 24 24" fill="none" xmlns="http://www.w3.org/2000/svg">
<path d="M8 4V18.4609C7.67124 18.5297 7.37289 18.602 7 18.666L7.27734 20C7.52667 19.9572 7.76203 19.9035 8 19.8516V20H9V19.5977C13.8149 18.1971 16 14.8535 16 12H14.5234C14.5234 12.9235 14.057 14.706 13.2578 15.3926C12.442 14.6195 11.4579 13.4244 11.2207 12.0215L10.0312 12C10.0312 13.8985 11.3723 15.4706 12.3809 16.4355C11.5186 17.3114 10.5034 17.8388 9 18.2402V4H8ZM13.1367 4C11.964 4.02548 11.0628 4.21755 10.4082 4.49805L10.7773 5.75977C11.091 5.65771 12.2772 5.30078 12.9727 5.30078H13.0684C14.0366 5.339 14.1055 5.6695 14.1055 6.44727V6.75391L13.5996 6.83008C11.2541 7.14884 10 7.41656 10 9.09961C10 10.2726 10.9136 11 12.2363 11C13.15 11 13.7496 10.6427 14.3633 10.1582L14.5547 10.873H16V6.1543C16 4.71352 14.9372 4 13.3008 4H13.1367ZM14.1055 7.74805V9.31641C13.6009 9.63517 13.219 9.86523 12.5645 9.86523C11.9781 9.86523 11.6914 9.52162 11.6914 9.03711C11.6914 8.11908 12.5496 7.96447 13.5996 7.82422L14.1055 7.74805Z" fill="url(#paint0_linear_10_14841)"/>
<defs>
<linearGradient id="paint0_linear_10_14841" x1="7" y1="12" x2="16" y2="12" gradientUnits="userSpaceOnUse">
<stop stop-color="#FDFC47"/>
<stop offset="1" stop-color="#24FE41"/>
</linearGradient>
</defs>
</svg>
