<svg width="24" height="24" viewBox="0 0 24 24" fill="none" xmlns="http://www.w3.org/2000/svg">
<path d="M11.9883 4L7 8.99023V9V10V14V15V15.0098L11.9883 20H13V19.5977V4.40234V4H11.9883ZM4 9V10V14V15H6V14V10V9H4Z" fill="url(#paint0_linear_10_14927)"/>
<path d="M14.8652 4.53711L14.6211 5.51367C15.914 6.03577 17.0215 6.93209 17.8017 8.08772C18.5818 9.24336 18.9991 10.6057 19 12C18.9974 13.3932 18.5791 14.754 17.7987 15.9081C17.0183 17.0622 15.9112 17.9572 14.6191 18.4785L14.8633 19.4531C16.372 18.8748 17.6702 17.8533 18.5871 16.5229C19.504 15.1925 19.9966 13.6157 20 12C19.9987 10.3828 19.5073 8.80404 18.5907 7.47176C17.674 6.13949 16.3751 5.1163 14.8652 4.53711ZM15.3242 8.28125L14.7852 9.14258C15.1679 9.51385 15.4725 9.95789 15.6811 10.4486C15.8898 10.9393 15.9982 11.4668 16 12C15.9992 12.5336 15.8917 13.0616 15.6837 13.553C15.4757 14.0444 15.1716 14.4893 14.7891 14.8613L15.3281 15.7246C15.8531 15.2563 16.2734 14.6825 16.5615 14.0407C16.8496 13.3989 16.999 12.7035 17 12C16.9977 11.2972 16.8473 10.6027 16.5586 9.96197C16.2698 9.32121 15.8492 8.74851 15.3242 8.28125Z" fill="url(#paint1_linear_10_14927)" fill-opacity="0.5"/>
<defs>
<linearGradient id="paint0_linear_10_14927" x1="4" y1="12" x2="13" y2="12" gradientUnits="userSpaceOnUse">
<stop stop-color="#FDFC47"/>
<stop offset="1" stop-color="#24FE41"/>
</linearGradient>
<linearGradient id="paint1_linear_10_14927" x1="14.6191" y1="11.9951" x2="20" y2="11.9951" gradientUnits="userSpaceOnUse">
<stop stop-color="#FDFC47"/>
<stop offset="1" stop-color="#24FE41"/>
</linearGradient>
</defs>
</svg>
