<svg width="24" height="24" viewBox="0 0 24 24" fill="none" xmlns="http://www.w3.org/2000/svg">
<path d="M6 6V7H7V6H6ZM8 6V7H9V6H8ZM10 6V7H11V6H10ZM13 6V7H14V6H13ZM15 6V7H16V6H15ZM17 6V7H18V6H17ZM6 8V9H7V8H6ZM17 8V9H18V8H17ZM2 10V14L5 12L2 10ZM6 10V11H7V10H6ZM17 10V11H18V10H17ZM22 10L19 12L22 14V10ZM6 12V19H18V12H6ZM7 13H17V18H7V13Z" fill="url(#paint0_linear_10_14936)"/>
<defs>
<linearGradient id="paint0_linear_10_14936" x1="2" y1="12.5" x2="22" y2="12.5" gradientUnits="userSpaceOnUse">
<stop stop-color="#FDFC47"/>
<stop offset="1" stop-color="#24FE41"/>
</linearGradient>
</defs>
</svg>
