<svg width="24" height="24" viewBox="0 0 24 24" fill="none" xmlns="http://www.w3.org/2000/svg">
<path opacity="0.8" d="M15 20C17.7614 20 20 17.7614 20 15C20 12.2386 17.7614 10 15 10C12.2386 10 10 12.2386 10 15C10 17.7614 12.2386 20 15 20Z" fill="url(#paint0_linear_10_14967)"/>
<path opacity="0.4" d="M9 20C11.7614 20 14 17.7614 14 15C14 12.2386 11.7614 10 9 10C6.23858 10 4 12.2386 4 15C4 17.7614 6.23858 20 9 20Z" fill="url(#paint1_linear_10_14967)"/>
<path opacity="0.6" d="M12 14C14.7614 14 17 11.7614 17 9C17 6.23858 14.7614 4 12 4C9.23858 4 7 6.23858 7 9C7 11.7614 9.23858 14 12 14Z" fill="url(#paint2_linear_10_14967)"/>
<defs>
<linearGradient id="paint0_linear_10_14967" x1="10" y1="15" x2="20" y2="15" gradientUnits="userSpaceOnUse">
<stop stop-color="#FDFC47"/>
<stop offset="1" stop-color="#24FE41"/>
</linearGradient>
<linearGradient id="paint1_linear_10_14967" x1="4" y1="15" x2="14" y2="15" gradientUnits="userSpaceOnUse">
<stop stop-color="#FDFC47"/>
<stop offset="1" stop-color="#24FE41"/>
</linearGradient>
<linearGradient id="paint2_linear_10_14967" x1="7" y1="9" x2="17" y2="9" gradientUnits="userSpaceOnUse">
<stop stop-color="#FDFC47"/>
<stop offset="1" stop-color="#24FE41"/>
</linearGradient>
</defs>
</svg>
