<svg width="24" height="24" viewBox="0 0 24 24" fill="none" xmlns="http://www.w3.org/2000/svg">
<path d="M9 9C6.432 9 4.217 10.382 3 12.434V14C3 14 3 15 4 15H7C8 15 8 14 8 14V13.5C8 12.669 8.669 12 9.5 12H14.5C15.331 12 16 12.669 16 13.5V14C16 14 16 15 17 15H20C21 15 21 14 21 14V12.434C19.783 10.382 17.568 9 15 9H9Z" fill="url(#paint0_linear_10_14975)"/>
<defs>
<linearGradient id="paint0_linear_10_14975" x1="3" y1="9" x2="4.25638" y2="17.4805" gradientUnits="userSpaceOnUse">
<stop stop-color="#FF0500"/>
<stop offset="1" stop-color="#FD3632"/>
</linearGradient>
</defs>
</svg>
