<svg width="24" height="24" viewBox="0 0 24 24" fill="none" xmlns="http://www.w3.org/2000/svg">
<path d="M5.5 4C5.30302 4 5.10796 4.0388 4.92597 4.11418C4.74399 4.18956 4.57863 4.30005 4.43934 4.43934C4.30005 4.57863 4.18956 4.74399 4.11418 4.92597C4.0388 5.10796 4 5.30302 4 5.5C4.00043 5.80983 4.0968 6.11193 4.27586 6.36478C4.45492 6.61763 4.70789 6.80883 5 6.91211V7V14V20H6V14H13V15H20V8H14V7H6V6.91211C6.29211 6.80883 6.54508 6.61763 6.72414 6.36478C6.9032 6.11193 6.99957 5.80983 7 5.5C7 5.30302 6.9612 5.10796 6.88582 4.92597C6.81044 4.74399 6.69995 4.57863 6.56066 4.43934C6.42137 4.30005 6.25601 4.18956 6.07403 4.11418C5.89204 4.0388 5.69698 4 5.5 4ZM6 8H13V13H6V8ZM14 9H19V14H14V9Z" fill="url(#paint0_linear_10_14996)"/>
<defs>
<linearGradient id="paint0_linear_10_14996" x1="4" y1="12" x2="20" y2="12" gradientUnits="userSpaceOnUse">
<stop stop-color="#FDFC47"/>
<stop offset="1" stop-color="#24FE41"/>
</linearGradient>
</defs>
</svg>
