<svg width="24" height="24" viewBox="0 0 24 24" fill="none" xmlns="http://www.w3.org/2000/svg">
<path d="M16.4062 4L12.4062 8L11.3125 9.09375L8 12.375V12.4062L7.3125 13.0938L4 16.375V18L6 20H7.625L11.5938 16L12.7188 14.875L16 11.5938L16.7188 10.875L20 7.59375V6L18 4H16.4062Z" fill="url(#paint0_linear_10_14998)"/>
<path d="M16.4062 4L12.4062 8L11.3125 9.09375L8 12.375V12.4062L7.3125 13.0938L4 16.375V18L6 20H7.625L11.5938 16L12.7188 14.875L16 11.5938L16.7188 10.875L20 7.59375V6L18 4H16.4062Z" fill="url(#paint1_linear_10_14998)"/>
<defs>
<linearGradient id="paint0_linear_10_14998" x1="4" y1="12" x2="20" y2="12" gradientUnits="userSpaceOnUse">
<stop stop-color="#FDFC47"/>
<stop offset="1" stop-color="#24FE41"/>
</linearGradient>
<linearGradient id="paint1_linear_10_14998" x1="9.68644" y1="10.2288" x2="13.661" y2="14.1441" gradientUnits="userSpaceOnUse">
<stop stop-color="white" stop-opacity="0.458824"/>
<stop offset="1" stop-color="white" stop-opacity="0.0529412"/>
</linearGradient>
</defs>
</svg>
