<svg width="24" height="24" viewBox="0 0 24 24" fill="none" xmlns="http://www.w3.org/2000/svg">
<path d="M12 4C10.892 4 10 4.892 10 6C10 6.09728 10.0117 6.19204 10.0254 6.28516C7.11574 7.13415 5 9.80889 5 13C5 16.878 8.122 20 12 20C15.878 20 19 16.878 19 13C19 11.4137 18.4727 9.95848 17.5898 8.78711C17.8329 8.60501 18 8.3284 18 8C18 7.446 17.554 7 17 7C16.6716 7 16.395 7.16712 16.2129 7.41016C15.5487 6.90961 14.7947 6.52444 13.9746 6.28516C13.9883 6.19204 14 6.09728 14 6C14 4.892 13.108 4 12 4ZM12 5C12.554 5 13 5.446 13 6C13 6.02703 12.9865 6.04969 12.9844 6.07617C12.6618 6.031 12.3354 6 12 6C11.6646 6 11.3382 6.031 11.0156 6.07617C11.0135 6.04969 11 6.02703 11 6C11 5.446 11.446 5 12 5ZM12 7C12.2596 7 12.5137 7.01932 12.7637 7.05273C12.7984 7.05712 12.8326 7.06339 12.8672 7.06836C13.1093 7.10503 13.3477 7.15384 13.5801 7.2168C16.131 7.90802 18 10.2244 18 13C18 16.324 15.324 19 12 19C8.676 19 6 16.324 6 13C6 10.2244 7.86898 7.90802 10.4199 7.2168C10.6523 7.15384 10.8907 7.10503 11.1328 7.06836C11.1674 7.06339 11.2016 7.05712 11.2363 7.05273C11.4863 7.01932 11.7404 7 12 7ZM12 8V12C12.554 12 13 12.446 13 13H17C17 10.23 14.77 8 12 8Z" fill="url(#paint0_linear_10_15019)"/>
<defs>
<linearGradient id="paint0_linear_10_15019" x1="5" y1="12" x2="19" y2="12" gradientUnits="userSpaceOnUse">
<stop stop-color="#FDFC47"/>
<stop offset="1" stop-color="#24FE41"/>
</linearGradient>
</defs>
</svg>
