<svg width="24" height="24" viewBox="0 0 24 24" fill="none" xmlns="http://www.w3.org/2000/svg">
<path d="M9 4C8.02709 7.40503 5.64555 10.3323 4.5957 12.6758C4.2283 13.3726 4 14.1546 4 15C4 17.77 6.23 20 9 20C11.77 20 14 17.77 14 15C14 14.1546 13.7717 13.3726 13.4043 12.6758C12.3544 10.3323 9.9729 7.40503 9 4ZM11.2832 11.7168C12.3209 12.438 13 13.6351 13 15C13 17.216 11.216 19 9 19C7.63504 19 6.438 18.321 5.7168 17.2832C6.36385 17.7329 7.14892 18 8 18C10.216 18 12 16.216 12 14C12 13.1489 11.7329 12.3638 11.2832 11.7168Z" fill="url(#paint0_linear_10_15077)"/>
<path d="M20 7.5C20 5.567 18.433 4 16.5 4C14.567 4 13 5.567 13 7.5C13 9.433 14.567 11 16.5 11C18.433 11 20 9.433 20 7.5Z" fill="url(#paint1_linear_10_15077)"/>
<path d="M19 7.5C19 6.11929 17.8807 5 16.5 5C15.1193 5 14 6.11929 14 7.5C14 8.88071 15.1193 10 16.5 10C17.8807 10 19 8.88071 19 7.5Z" fill="#BDC3C7"/>
<defs>
<linearGradient id="paint0_linear_10_15077" x1="4" y1="12" x2="14" y2="12" gradientUnits="userSpaceOnUse">
<stop stop-color="#FDFC47"/>
<stop offset="1" stop-color="#24FE41"/>
</linearGradient>
<linearGradient id="paint1_linear_10_15077" x1="13" y1="7.5" x2="20" y2="7.5" gradientUnits="userSpaceOnUse">
<stop stop-color="#FDFC47"/>
<stop offset="1" stop-color="#24FE41"/>
</linearGradient>
</defs>
</svg>
