<svg width="24" height="24" viewBox="0 0 24 24" fill="none" xmlns="http://www.w3.org/2000/svg">
<path d="M12 4C9.87827 4 7.84343 4.84285 6.34314 6.34314C4.84285 7.84343 4 9.87827 4 12C4 14.1217 4.84285 16.1566 6.34314 17.6569C7.84343 19.1572 9.87827 20 12 20C14.1217 20 16.1566 19.1572 17.6569 17.6569C19.1572 16.1566 20 14.1217 20 12C20 9.87827 19.1572 7.84343 17.6569 6.34314C16.1566 4.84285 14.1217 4 12 4ZM12 5C13.8565 5 15.637 5.73748 16.9498 7.05023C18.2625 8.36299 19 10.1435 19 12C19 13.8565 18.2625 15.637 16.9498 16.9498C15.637 18.2625 13.8565 19 12 19C10.1435 19 8.36299 18.2625 7.05023 16.9498C5.73748 15.637 5 13.8565 5 12C5 10.1435 5.73748 8.36299 7.05023 7.05023C8.36299 5.73748 10.1435 5 12 5ZM15 9L12 10C11.4696 10 10.9609 10.2107 10.5858 10.5858C10.2107 10.9608 10 11.4696 10 12L9 15L12 14C12.5304 14 13.0392 13.7893 13.4142 13.4142C13.7893 13.0391 14 12.5304 14 12L15 9ZM12 11C12.2652 11 12.5196 11.1054 12.7071 11.2929C12.8946 11.4804 13 11.7348 13 12C13 12.2652 12.8946 12.5196 12.7071 12.7071C12.5196 12.8946 12.2652 13 12 13C11.7348 13 11.4804 12.8946 11.2929 12.7071C11.1054 12.5196 11 12.2652 11 12C11 11.7348 11.1054 11.4804 11.2929 11.2929C11.4804 11.1054 11.7348 11 12 11Z" fill="url(#paint0_linear_10_15110)"/>
<defs>
<linearGradient id="paint0_linear_10_15110" x1="4" y1="12" x2="20" y2="12" gradientUnits="userSpaceOnUse">
<stop stop-color="#FDFC47"/>
<stop offset="1" stop-color="#24FE41"/>
</linearGradient>
</defs>
</svg>
