<svg width="24" height="24" viewBox="0 0 24 24" fill="none" xmlns="http://www.w3.org/2000/svg">
<path d="M6 4V9H21V17H19V12H18V17H10V18H18V19H19V18H22V4H6ZM7 5H21V8H7V6V5ZM8 6V7H10V6H8ZM18 6V7H20V6H18Z" fill="url(#paint0_linear_10_15197)"/>
<path d="M5.5 10C4.57174 10 3.6815 10.3687 3.02513 11.0251C2.36875 11.6815 2 12.5717 2 13.5V16.5C2 17.4283 2.36875 18.3185 3.02513 18.9749C3.6815 19.6313 4.57174 20 5.5 20C6.42826 20 7.3185 19.6313 7.97487 18.9749C8.63125 18.3185 9 17.4283 9 16.5V13.5C9 12.5717 8.63125 11.6815 7.97487 11.0251C7.3185 10.3687 6.42826 10 5.5 10ZM5.5 11C5.8283 11 6.15339 11.0647 6.45671 11.1903C6.76002 11.3159 7.03562 11.5001 7.26777 11.7322C7.49991 11.9644 7.68406 12.24 7.8097 12.5433C7.93534 12.8466 8 13.1717 8 13.5V16.5C8 17.163 7.73661 17.7989 7.26777 18.2678C6.79893 18.7366 6.16304 19 5.5 19C4.83696 19 4.20107 18.7366 3.73223 18.2678C3.26339 17.7989 3 17.163 3 16.5V13.5C3 12.837 3.26339 12.2011 3.73223 11.7322C4.20107 11.2634 4.83696 11 5.5 11Z" fill="url(#paint1_linear_10_15197)"/>
<path d="M5 12H6V14H5V12Z" fill="url(#paint2_linear_10_15197)"/>
<defs>
<linearGradient id="paint0_linear_10_15197" x1="6" y1="11.5" x2="22" y2="11.5" gradientUnits="userSpaceOnUse">
<stop stop-color="#FDFC47"/>
<stop offset="1" stop-color="#24FE41"/>
</linearGradient>
<linearGradient id="paint1_linear_10_15197" x1="2" y1="15" x2="9" y2="15" gradientUnits="userSpaceOnUse">
<stop stop-color="#FDFC47"/>
<stop offset="1" stop-color="#24FE41"/>
</linearGradient>
<linearGradient id="paint2_linear_10_15197" x1="5" y1="13" x2="6" y2="13" gradientUnits="userSpaceOnUse">
<stop stop-color="#FDFC47"/>
<stop offset="1" stop-color="#24FE41"/>
</linearGradient>
</defs>
</svg>
