<svg width="24" height="24" viewBox="0 0 24 24" fill="none" xmlns="http://www.w3.org/2000/svg">
<path d="M4 4V8H8V4H4ZM5 5H7V7H5V5ZM16 10V14H20V10H16ZM17 11H19V13H17V11ZM4 16V20H8V16H4ZM5 17H7V19H5V17Z" fill="url(#paint0_linear_10_15257)"/>
<path d="M10 6V7H11V9H10V10H14V9H13V7H14V6H10ZM10 14V15H11V17H10V18H14V17H13V15H14V14H10Z" fill="url(#paint1_linear_10_15257)"/>
<defs>
<linearGradient id="paint0_linear_10_15257" x1="4" y1="12" x2="20" y2="12" gradientUnits="userSpaceOnUse">
<stop stop-color="#FDFC47"/>
<stop offset="1" stop-color="#24FE41"/>
</linearGradient>
<linearGradient id="paint1_linear_10_15257" x1="10" y1="12" x2="14" y2="12" gradientUnits="userSpaceOnUse">
<stop stop-color="#FDFC47"/>
<stop offset="1" stop-color="#24FE41"/>
</linearGradient>
</defs>
</svg>
