<svg width="24" height="24" viewBox="0 0 24 24" fill="none" xmlns="http://www.w3.org/2000/svg">
<path d="M8.6875 5.61133L3.6875 9.61133L4.3125 10.3906L9.3125 6.39062L8.6875 5.61133ZM10.3848 5.68164L9.61523 6.32031L14.6152 12.3203L15.3848 11.6816L10.3848 5.68164ZM19.584 5.72266L15.584 11.7227L16.416 12.2773L20.416 6.27734L19.584 5.72266ZM3 10.998V17.998H4V10.998H3ZM4 17.998V18.998H10V17.998H4ZM14.6094 12.6895L10.6094 17.6895L11.3906 18.3125L15.3906 13.3125L14.6094 12.6895ZM16.3906 12.6895L15.6094 13.3125L19.6094 18.3125L20.3906 17.6895L16.3906 12.6895Z" fill="url(#paint0_linear_10_15219)"/>
<path d="M9.5 4C9.30302 4 9.10796 4.0388 8.92597 4.11418C8.74399 4.18956 8.57863 4.30005 8.43934 4.43934C8.30005 4.57863 8.18956 4.74399 8.11418 4.92597C8.0388 5.10796 8 5.30302 8 5.5C8 5.69698 8.0388 5.89204 8.11418 6.07403C8.18956 6.25601 8.30005 6.42137 8.43934 6.56066C8.57863 6.69995 8.74399 6.81044 8.92597 6.88582C9.10796 6.9612 9.30302 7 9.5 7C9.69698 7 9.89204 6.9612 10.074 6.88582C10.256 6.81044 10.4214 6.69995 10.5607 6.56066C10.6999 6.42137 10.8104 6.25601 10.8858 6.07403C10.9612 5.89204 11 5.69698 11 5.5C11 5.30302 10.9612 5.10796 10.8858 4.92597C10.8104 4.74399 10.6999 4.57863 10.5607 4.43934C10.4214 4.30005 10.256 4.18956 10.074 4.11418C9.89204 4.0388 9.69698 4 9.5 4ZM20.5 4C20.303 4 20.108 4.0388 19.926 4.11418C19.744 4.18956 19.5786 4.30005 19.4393 4.43934C19.3001 4.57863 19.1896 4.74399 19.1142 4.92597C19.0388 5.10796 19 5.30302 19 5.5C19 5.69698 19.0388 5.89204 19.1142 6.07403C19.1896 6.25601 19.3001 6.42137 19.4393 6.56066C19.5786 6.69995 19.744 6.81044 19.926 6.88582C20.108 6.9612 20.303 7 20.5 7C20.697 7 20.892 6.9612 21.074 6.88582C21.256 6.81044 21.4214 6.69995 21.5607 6.56066C21.6999 6.42137 21.8104 6.25601 21.8858 6.07403C21.9612 5.89204 22 5.69698 22 5.5C22 5.30302 21.9612 5.10796 21.8858 4.92597C21.8104 4.74399 21.6999 4.57863 21.5607 4.43934C21.4214 4.30005 21.256 4.18956 21.074 4.11418C20.892 4.0388 20.697 4 20.5 4ZM3.5 9C3.30302 9 3.10796 9.0388 2.92598 9.11418C2.74399 9.18956 2.57863 9.30005 2.43934 9.43934C2.30005 9.57863 2.18956 9.74399 2.11418 9.92597C2.0388 10.108 2 10.303 2 10.5C2 10.697 2.0388 10.892 2.11418 11.074C2.18956 11.256 2.30005 11.4214 2.43934 11.5607C2.57863 11.6999 2.74399 11.8104 2.92598 11.8858C3.10796 11.9612 3.30302 12 3.5 12C3.69698 12 3.89204 11.9612 4.07402 11.8858C4.25601 11.8104 4.42137 11.6999 4.56066 11.5607C4.69995 11.4214 4.81044 11.256 4.88582 11.074C4.9612 10.892 5 10.697 5 10.5C5 10.303 4.9612 10.108 4.88582 9.92597C4.81044 9.74399 4.69995 9.57863 4.56066 9.43934C4.42137 9.30005 4.25601 9.18956 4.07402 9.11418C3.89204 9.0388 3.69698 9 3.5 9ZM15.5 11C15.303 11 15.108 11.0388 14.926 11.1142C14.744 11.1896 14.5786 11.3001 14.4393 11.4393C14.3001 11.5786 14.1896 11.744 14.1142 11.926C14.0388 12.108 14 12.303 14 12.5C14 12.697 14.0388 12.892 14.1142 13.074C14.1896 13.256 14.3001 13.4214 14.4393 13.5607C14.5786 13.6999 14.744 13.8104 14.926 13.8858C15.108 13.9612 15.303 14 15.5 14C15.697 14 15.892 13.9612 16.074 13.8858C16.256 13.8104 16.4214 13.6999 16.5607 13.5607C16.6999 13.4214 16.8104 13.256 16.8858 13.074C16.9612 12.892 17 12.697 17 12.5C17 12.303 16.9612 12.108 16.8858 11.926C16.8104 11.744 16.6999 11.5786 16.5607 11.4393C16.4214 11.3001 16.256 11.1896 16.074 11.1142C15.892 11.0388 15.697 11 15.5 11ZM3.5 17C3.30302 17 3.10796 17.0388 2.92598 17.1142C2.74399 17.1896 2.57863 17.3001 2.43934 17.4393C2.30005 17.5786 2.18956 17.744 2.11418 17.926C2.0388 18.108 2 18.303 2 18.5C2 18.697 2.0388 18.892 2.11418 19.074C2.18956 19.256 2.30005 19.4214 2.43934 19.5607C2.57863 19.6999 2.74399 19.8104 2.92598 19.8858C3.10796 19.9612 3.30302 20 3.5 20C3.69698 20 3.89204 19.9612 4.07402 19.8858C4.25601 19.8104 4.42137 19.6999 4.56066 19.5607C4.69995 19.4214 4.81044 19.256 4.88582 19.074C4.9612 18.892 5 18.697 5 18.5C5 18.303 4.9612 18.108 4.88582 17.926C4.81044 17.744 4.69995 17.5786 4.56066 17.4393C4.42137 17.3001 4.25601 17.1896 4.07402 17.1142C3.89204 17.0388 3.69698 17 3.5 17ZM10.5 17C10.303 17 10.108 17.0388 9.92597 17.1142C9.74399 17.1896 9.57863 17.3001 9.43934 17.4393C9.30005 17.5786 9.18956 17.744 9.11418 17.926C9.0388 18.108 9 18.303 9 18.5C9 18.697 9.0388 18.892 9.11418 19.074C9.18956 19.256 9.30005 19.4214 9.43934 19.5607C9.57863 19.6999 9.74399 19.8104 9.92597 19.8858C10.108 19.9612 10.303 20 10.5 20C10.697 20 10.892 19.9612 11.074 19.8858C11.256 19.8104 11.4214 19.6999 11.5607 19.5607C11.6999 19.4214 11.8104 19.256 11.8858 19.074C11.9612 18.892 12 18.697 12 18.5C12 18.303 11.9612 18.108 11.8858 17.926C11.8104 17.744 11.6999 17.5786 11.5607 17.4393C11.4214 17.3001 11.256 17.1896 11.074 17.1142C10.892 17.0388 10.697 17 10.5 17ZM20.5 17C20.303 17 20.108 17.0388 19.926 17.1142C19.744 17.1896 19.5786 17.3001 19.4393 17.4393C19.3001 17.5786 19.1896 17.744 19.1142 17.926C19.0388 18.108 19 18.303 19 18.5C19 18.697 19.0388 18.892 19.1142 19.074C19.1896 19.256 19.3001 19.4214 19.4393 19.5607C19.5786 19.6999 19.744 19.8104 19.926 19.8858C20.108 19.9612 20.303 20 20.5 20C20.697 20 20.892 19.9612 21.074 19.8858C21.256 19.8104 21.4214 19.6999 21.5607 19.5607C21.6999 19.4214 21.8104 19.256 21.8858 19.074C21.9612 18.892 22 18.697 22 18.5C22 18.303 21.9612 18.108 21.8858 17.926C21.8104 17.744 21.6999 17.5786 21.5607 17.4393C21.4214 17.3001 21.256 17.1896 21.074 17.1142C20.892 17.0388 20.697 17 20.5 17Z" fill="url(#paint1_linear_10_15219)"/>
<defs>
<linearGradient id="paint0_linear_10_15219" x1="3" y1="12.3047" x2="20.416" y2="12.3047" gradientUnits="userSpaceOnUse">
<stop stop-color="#FDFC47"/>
<stop offset="1" stop-color="#24FE41"/>
</linearGradient>
<linearGradient id="paint1_linear_10_15219" x1="2" y1="12" x2="22" y2="12" gradientUnits="userSpaceOnUse">
<stop stop-color="#FDFC47"/>
<stop offset="1" stop-color="#24FE41"/>
</linearGradient>
</defs>
</svg>
