<svg width="24" height="24" viewBox="0 0 24 24" fill="none" xmlns="http://www.w3.org/2000/svg">
<path d="M16 4C15.4696 4 14.9609 4.21072 14.5858 4.58579C14.2107 4.96086 14 5.46957 14 6C14 6.53043 14.2107 7.03914 14.5858 7.41421C14.9609 7.78928 15.4696 8 16 8C16.5304 8 17.0391 7.78928 17.4142 7.41421C17.7893 7.03914 18 6.53043 18 6C18 5.46957 17.7893 4.96086 17.4142 4.58579C17.0391 4.21072 16.5304 4 16 4ZM11.5 8C11.3674 8 11.2402 8.05268 11.1464 8.14645C11.0527 8.24021 11 8.36739 11 8.5C11 8.63261 11.0527 8.75979 11.1464 8.85355C11.2402 8.94732 11.3674 9 11.5 9C11.6326 9 11.7598 8.94732 11.8536 8.85355C11.9473 8.75979 12 8.63261 12 8.5C12 8.36739 11.9473 8.24021 11.8536 8.14645C11.7598 8.05268 11.6326 8 11.5 8ZM9.5 9C9.43434 9 9.36932 9.01293 9.30866 9.03806C9.24799 9.06319 9.19287 9.10002 9.14644 9.14645C9.10001 9.19288 9.06318 9.248 9.03806 9.30866C9.01293 9.36932 9 9.43434 9 9.5C9 9.56566 9.01293 9.63068 9.03806 9.69134C9.06318 9.752 9.10001 9.80712 9.14644 9.85355C9.19287 9.89998 9.24799 9.93681 9.30866 9.96194C9.36932 9.98707 9.43434 10 9.5 10C9.56566 10 9.63068 9.98707 9.69134 9.96194C9.75201 9.93681 9.80713 9.89998 9.85356 9.85355C9.89999 9.80712 9.93682 9.752 9.96194 9.69134C9.98707 9.63068 10 9.56566 10 9.5C10 9.43434 9.98707 9.36932 9.96194 9.30866C9.93682 9.248 9.89999 9.19288 9.85356 9.14645C9.80713 9.10002 9.75201 9.06319 9.69134 9.03806C9.63068 9.01293 9.56566 9 9.5 9ZM6 10C5.46957 10 4.96086 10.2107 4.58579 10.5858C4.21072 10.9609 4 11.4696 4 12C4 12.5304 4.21072 13.0391 4.58579 13.4142C4.96086 13.7893 5.46957 14 6 14C6.53043 14 7.03914 13.7893 7.41421 13.4142C7.78928 13.0391 8 12.5304 8 12C8 11.4696 7.78928 10.9609 7.41421 10.5858C7.03914 10.2107 6.53043 10 6 10ZM9.5 14C9.36739 14 9.24021 14.0527 9.14645 14.1465C9.05268 14.2402 9 14.3674 9 14.5C9 14.6326 9.05268 14.7598 9.14645 14.8535C9.24021 14.9473 9.36739 15 9.5 15C9.63261 15 9.75979 14.9473 9.85355 14.8535C9.94732 14.7598 10 14.6326 10 14.5C10 14.3674 9.94732 14.2402 9.85355 14.1465C9.75979 14.0527 9.63261 14 9.5 14ZM11.5 15C11.3674 15 11.2402 15.0527 11.1464 15.1464C11.0527 15.2402 11 15.3674 11 15.5C11 15.6326 11.0527 15.7598 11.1464 15.8536C11.2402 15.9473 11.3674 16 11.5 16C11.6326 16 11.7598 15.9473 11.8536 15.8536C11.9473 15.7598 12 15.6326 12 15.5C12 15.3674 11.9473 15.2402 11.8536 15.1464C11.7598 15.0527 11.6326 15 11.5 15ZM16 16C15.4696 16 14.9609 16.2107 14.5858 16.5858C14.2107 16.9609 14 17.4696 14 18C14 18.5304 14.2107 19.0391 14.5858 19.4142C14.9609 19.7893 15.4696 20 16 20C16.5304 20 17.0391 19.7893 17.4142 19.4142C17.7893 19.0391 18 18.5304 18 18C18 17.4696 17.7893 16.9609 17.4142 16.5858C17.0391 16.2107 16.5304 16 16 16Z" fill="url(#paint0_linear_10_15322)"/>
<defs>
<linearGradient id="paint0_linear_10_15322" x1="4" y1="12" x2="18" y2="12" gradientUnits="userSpaceOnUse">
<stop stop-color="#FDFC47"/>
<stop offset="1" stop-color="#24FE41"/>
</linearGradient>
</defs>
</svg>
