<svg width="24" height="24" viewBox="0 0 24 24" fill="none" xmlns="http://www.w3.org/2000/svg">
<path d="M5 3.99805V4V6H7V4H9V6H11V4H13V6H15V4H17V6H19V4V3.99805H18H6H5ZM7 7V9H9V7H7ZM11 7V9H13V7H11ZM15 7V9H17V7H15ZM5 10V12V20H6H13V19H6V12H7V10H5ZM9 10V12H11V10H9ZM14 12C12.338 12 11 13.338 11 15C11 16.662 12.338 18 14 18C14.6494 18 15.2464 17.7914 15.7363 17.4434L18.293 20L19 19.293L16.4434 16.7363C16.7914 16.2464 17 15.6494 17 15C17 13.338 15.662 12 14 12ZM14 13C15.108 13 16 13.892 16 15C16 16.108 15.108 17 14 17C12.892 17 12 16.108 12 15C12 13.892 12.892 13 14 13Z" fill="url(#paint0_linear_10_15272)"/>
<defs>
<linearGradient id="paint0_linear_10_15272" x1="5" y1="11.999" x2="19" y2="11.999" gradientUnits="userSpaceOnUse">
<stop stop-color="#FDFC47"/>
<stop offset="1" stop-color="#24FE41"/>
</linearGradient>
</defs>
</svg>
