<svg width="24" height="24" viewBox="0 0 24 24" fill="none" xmlns="http://www.w3.org/2000/svg">
<path d="M6 4V5V9H4V10V17H5H8V19V20H16V19V17H20V16V10V9H18V5V4H6ZM7 5H17V9H16V8H8V9H7V5ZM8 6V7H16V6H8ZM5 10H19V16H17V14H7V16H5V10ZM15 11V12H18V11H15ZM9 17H15V19H9V17Z" fill="url(#paint0_linear_10_15304)"/>
<defs>
<linearGradient id="paint0_linear_10_15304" x1="4" y1="12" x2="20" y2="12" gradientUnits="userSpaceOnUse">
<stop stop-color="#FDFC47"/>
<stop offset="1" stop-color="#24FE41"/>
</linearGradient>
</defs>
</svg>
