<svg width="24" height="24" viewBox="0 0 24 24" fill="none" xmlns="http://www.w3.org/2000/svg">
<path d="M3 3.99805V4V5V20H4H13V19H7V13H16V12H7H6V19H4V5H7V9V10H15V9V5H15.293L18 7.70703V8V13H19V8V7.30078H18.9922L19 7.29102L15.707 3.99805L15.6992 4.00781V3.99805H15H3ZM8 5H11.9004V9H8V5ZM17 14L16.4258 15.6133L14.8789 14.8789L15.6133 16.4258L14 17L15.6133 17.5742L14.8789 19.1211L16.4258 18.3867L17 20L17.5742 18.3867L19.1211 19.1211L18.3867 17.5742L20 17L18.3867 16.4258L19.1211 14.8789L17.5742 15.6133L17 14Z" fill="url(#paint0_linear_10_15316)"/>
<defs>
<linearGradient id="paint0_linear_10_15316" x1="3" y1="11.999" x2="20" y2="11.999" gradientUnits="userSpaceOnUse">
<stop stop-color="#FDFC47"/>
<stop offset="1" stop-color="#24FE41"/>
</linearGradient>
</defs>
</svg>
