<svg width="24" height="24" viewBox="0 0 24 24" fill="none" xmlns="http://www.w3.org/2000/svg">
<path d="M19.5137 4.00796C18.9301 3.93443 17.863 4.40561 16.5007 5.33833C15.1385 6.27105 13.5686 7.60533 12.0684 9.10561C10.6871 10.4873 9.44346 11.9311 8.52539 13.2189C9.60145 13.5615 10.4406 14.4006 10.7832 15.4767C12.071 14.5586 13.5148 13.315 14.8965 11.9337C16.584 10.2461 18.0535 8.47869 18.9816 7.02021C19.9097 5.56172 20.2205 4.5316 19.8457 4.1564C19.7654 4.07565 19.6543 4.02599 19.5137 4.00796ZM17.5 12.0001C17.0136 13.7027 15.8238 15.1663 15.2988 16.338C15.1151 16.6864 15 17.0774 15 17.5001C15 18.8851 16.115 20.0001 17.5 20.0001C18.885 20.0001 20 18.8851 20 17.5001C20 17.0774 19.8868 16.6864 19.7031 16.338C19.1782 15.1663 17.9864 13.7027 17.5 12.0001ZM8 14.6642C3.99999 15.736 7 18.2681 4 20.0001C8.00339 20.0001 10 17.9993 10 16.6642C10 15.9993 10.0676 14.7748 8 14.6642ZM18.6426 15.8595C19.1614 16.2201 19.5 16.8177 19.5 17.5001C19.5 18.6081 18.608 19.5001 17.5 19.5001C16.8175 19.5001 16.22 19.1616 15.8594 18.6427C16.1829 18.8676 16.5745 19.0001 17 19.0001C18.108 19.0001 19 18.1081 19 17.0001C19 16.5746 18.8674 16.183 18.6426 15.8595Z" fill="url(#paint0_linear_10_15410)"/>
<defs>
<linearGradient id="paint0_linear_10_15410" x1="4" y1="12.0003" x2="20.0008" y2="12.0003" gradientUnits="userSpaceOnUse">
<stop stop-color="#FDFC47"/>
<stop offset="1" stop-color="#24FE41"/>
</linearGradient>
</defs>
</svg>
