<svg width="24" height="24" viewBox="0 0 24 24" fill="none" xmlns="http://www.w3.org/2000/svg">
<path d="M12 1.41211C11.2585 1.88271 11.993 1.41209 11.2188 1.90039L3 7.36914V8.58789V16.1816V16.5879C4.14882 17.3396 3.22209 16.7322 3.75 17.0879L11.0938 21.9941C11.9891 22.5903 11.1018 21.9941 12 22.5879C20.0233 17.2637 18.0538 18.5741 20.375 17.0254C21.0066 16.5638 20.4922 16.9304 21 16.5566V16.2129V16.1816V8.58789V7.36914C18.6762 5.82244 20.6601 7.14254 20.4375 6.99414L12.7812 1.90039L12.375 1.65039C12.0922 1.46839 13.5984 2.44121 12 1.41211ZM11.5 2.93164V10.6816L11.4375 10.7754L11.2188 10.9004L4 15.7129V7.93164L11.5 2.93164ZM12.5 2.93164L20 7.93164V15.5566L12.5 10.5566V2.93164ZM12.125 11.5254L19.4375 16.4004L12 21.3691L4.65625 16.4941L11.7812 11.7441L12.125 11.5254Z" fill="url(#paint0_linear_10_15352)"/>
<path d="M11.582 2.875C11.5694 2.875 9.83266 4.02223 7.72266 5.42383L3.88672 7.97266V11.9297C3.88672 14.1071 3.89801 15.8887 3.91211 15.8887C3.92619 15.8887 5.66289 14.7401 7.77148 13.3359L11.6055 10.7832V6.82812C11.6055 4.65333 11.5947 2.875 11.582 2.875Z" fill="url(#paint1_linear_10_15352)" fill-opacity="0.2"/>
<path d="M12.0898 11.3945C11.9751 11.3992 4.40682 16.5058 4.45112 16.5488C4.47304 16.5699 6.17267 17.7134 8.22847 19.0879C10.2843 20.4624 11.9779 21.5803 11.9921 21.5703C12.6321 21.1555 19.5945 16.4449 19.6015 16.4219C19.6165 16.3721 12.1741 11.3945 12.0898 11.3945Z" fill="url(#paint2_linear_10_15352)" fill-opacity="0.4"/>
<path d="M12.4278 2.8125C12.4152 2.8125 12.4036 4.56363 12.4043 6.70312L12.4063 10.5918L16.2383 13.1562C18.3454 14.5662 20.0741 15.7227 20.0801 15.7227C20.0865 15.7244 20.0918 13.9699 20.0918 11.8242V7.92383L16.2715 5.36719C14.17 3.96169 12.4404 2.8125 12.4278 2.8125Z" fill="url(#paint3_linear_10_15352)" fill-opacity="0.6"/>
<defs>
<linearGradient id="paint0_linear_10_15352" x1="3" y1="12" x2="21" y2="12" gradientUnits="userSpaceOnUse">
<stop stop-color="#FDFC47"/>
<stop offset="1" stop-color="#24FE41"/>
</linearGradient>
<linearGradient id="paint1_linear_10_15352" x1="3.88672" y1="9.38184" x2="11.6055" y2="9.38184" gradientUnits="userSpaceOnUse">
<stop stop-color="#FDFC47"/>
<stop offset="1" stop-color="#24FE41"/>
</linearGradient>
<linearGradient id="paint2_linear_10_15352" x1="4.45093" y1="16.4825" x2="19.6015" y2="16.4825" gradientUnits="userSpaceOnUse">
<stop stop-color="#FDFC47"/>
<stop offset="1" stop-color="#24FE41"/>
</linearGradient>
<linearGradient id="paint3_linear_10_15352" x1="12.4043" y1="9.26758" x2="20.0918" y2="9.26758" gradientUnits="userSpaceOnUse">
<stop stop-color="#FDFC47"/>
<stop offset="1" stop-color="#24FE41"/>
</linearGradient>
</defs>
</svg>
