<svg width="24" height="24" viewBox="0 0 24 24" fill="none" xmlns="http://www.w3.org/2000/svg">
<path d="M12.0371 4.00203C7.93871 4.09725 4.53223 7.58349 4.63281 11.7247C4.65208 12.5181 4.80609 13.2823 5.06445 14.0001L6.1875 13.6329C5.96598 13.0313 5.83134 12.3906 5.81055 11.7247C5.70116 8.22163 8.57558 5.266 12.0371 5.16414C15.6868 5.05675 18.7618 8.08186 18.8613 11.7247C18.9659 15.5528 15.8231 18.7768 12.0371 18.8751C8.8644 18.9575 6.09649 16.8672 5.06445 14.0001L4 14.3477C5.17146 17.7366 8.45918 20.0733 12.0371 19.9981C16.4375 19.9056 20.0952 16.1687 19.998 11.7247C19.9047 7.45362 16.3103 3.90277 12.0371 4.00203ZM6.1875 13.6329C7.06701 16.0214 9.38556 17.7581 12.0371 17.668C15.1599 17.562 17.7481 14.8885 17.6328 11.7247C17.5249 8.76343 15.0107 6.3085 12.0371 6.42781C9.27054 6.53882 6.97884 8.91739 7.10156 11.7247C7.12462 12.252 7.25313 12.7516 7.43555 13.2266L8.83203 12.7716C8.6933 12.4419 8.59323 12.0929 8.56641 11.7247C8.41908 9.70268 10.0562 7.97265 12.0371 7.84774C14.2562 7.70781 16.1474 9.52523 16.2676 11.7247C16.4003 14.1537 14.4255 16.2189 12.0371 16.336C9.95894 16.4379 8.15009 15.0873 7.43555 13.2266L6.1875 13.6329ZM8.83203 12.7716C9.36061 14.0276 10.6149 14.9245 12.0371 14.7989C13.5684 14.6637 14.8302 13.2981 14.6582 11.7247C14.5173 10.4356 13.3567 9.36844 12.0371 9.56258C11.027 9.71119 10.1799 10.6711 10.4102 11.7247C10.4458 11.8879 10.5167 12.0465 10.6094 12.1915L12.0371 11.7247C12.7317 11.7247 12.4705 12.5451 12.0371 12.7364C11.4793 12.9826 10.913 12.6666 10.6094 12.1915L8.83203 12.7716Z" fill="url(#paint0_linear_10_15392)"/>
<defs>
<linearGradient id="paint0_linear_10_15392" x1="4" y1="11.9999" x2="19.9999" y2="11.9999" gradientUnits="userSpaceOnUse">
<stop stop-color="#FDFC47"/>
<stop offset="1" stop-color="#24FE41"/>
</linearGradient>
</defs>
</svg>
