<svg width="24" height="24" viewBox="0 0 24 24" fill="none" xmlns="http://www.w3.org/2000/svg">
<path d="M19.5137 4.00796C18.9301 3.93443 17.863 4.40561 16.5007 5.33833C15.1385 6.27105 13.5686 7.60533 12.0684 9.10561C10.6871 10.4873 9.44346 11.9311 8.52539 13.2189C9.60145 13.5615 10.4406 14.4006 10.7832 15.4767C12.071 14.5586 13.5148 13.315 14.8965 11.9337C16.584 10.2461 18.0535 8.47869 18.9816 7.02021C19.9097 5.56172 20.2205 4.5316 19.8457 4.1564C19.7654 4.07565 19.6543 4.02599 19.5137 4.00796ZM8 14.6642C3.99999 15.736 7 18.2681 4 20.0001C8.00339 20.0001 10 17.9993 10 16.6642C10 15.9993 10.0676 14.7748 8 14.6642Z" fill="url(#paint0_linear_10_15341)"/>
<defs>
<linearGradient id="paint0_linear_10_15341" x1="4" y1="12.0003" x2="20.0008" y2="12.0003" gradientUnits="userSpaceOnUse">
<stop stop-color="#FDFC47"/>
<stop offset="1" stop-color="#24FE41"/>
</linearGradient>
</defs>
</svg>
