<svg width="24" height="24" viewBox="0 0 24 24" fill="none" xmlns="http://www.w3.org/2000/svg">
<path d="M13.002 4L5.6582 11.3125L4.25195 12.75L4.00195 13V17H5.00195H7.00195H8.00195L8.25195 16.75L8.62695 16.4062L9.31445 15.6875L9.68945 15.3438L16 9L17 8L13.002 4ZM12.4082 6L15 8.59375L10.7207 12.8438L8.1582 10.25L12.4082 6ZM7.43945 10.9688L10.0332 13.5625L9.31445 14.2812L6.7207 11.6875L7.00195 11.4062L7.43945 10.9688ZM6.0332 12.375L8.62695 14.9688L7.9082 15.6875L5.31445 13.0938L6.0332 12.375ZM17.498 15C17.2364 15.0001 16.5436 15.046 15.4355 15.5625C15.0892 15.7241 14.8018 15.907 14.4062 16.125C14.1951 16.2414 13.438 16.6193 13.1562 16.75C12.3306 17.1332 12.0562 17.2299 11.3438 17.5C10.6542 17.7615 9.9106 17.9987 9.40625 18.1875C7.28335 18.9823 4 19 4 19V20C4 20 7.32741 20.032 9.75 19.125C10.0714 19.0047 10.6315 18.8074 11.1562 18.625C11.9633 18.3306 12.8354 17.9683 13.5625 17.6562C13.8672 17.5149 14.5734 17.1652 14.873 17C15.3133 16.7574 15.6069 16.5782 15.8418 16.4688C16.3552 16.1664 16.9252 15.9864 17.498 16C17.4532 16.0002 17.6718 16.001 17.873 16.0938C18.0743 16.1777 18.2978 16.3274 18.4668 16.4688C18.7941 16.8007 18.9314 17.0539 18.998 17.5C18.9723 18.182 18.7374 18.3957 18.248 18.7812C17.9242 18.9958 17.4683 19.0348 17 19.0039V19.9727C17.7837 19.9747 18.411 19.8183 18.7793 19.625C19.616 19.1478 20.0273 18.2886 19.998 17.4688C19.993 17.1808 19.9208 16.9437 19.7793 16.625C19.6377 16.3064 19.4353 15.9489 19.123 15.6875C18.6412 15.2643 18.3994 15.0781 17.498 15Z" fill="url(#paint0_linear_10_15363)"/>
<defs>
<linearGradient id="paint0_linear_10_15363" x1="4" y1="12.0001" x2="19.9995" y2="12.0001" gradientUnits="userSpaceOnUse">
<stop stop-color="#FDFC47"/>
<stop offset="1" stop-color="#24FE41"/>
</linearGradient>
</defs>
</svg>
