<svg width="24" height="24" viewBox="0 0 24 24" fill="none" xmlns="http://www.w3.org/2000/svg">
<path d="M4 4V5V20H5H14V19H10V17H14V16H10V14H14H20V13H14H10V11H14V10H10V8H14V7H10V6V5H14H20V4H14H4ZM5 5H9V6V7H8H5V5ZM5 8H8H9V10H5V8ZM5 11H9V13H5V11ZM5 14H9V16H8H5V14ZM15 15V20L20 17.5L15 15ZM5 17H8H9V18.0996V19H5V17Z" fill="url(#paint0_linear_10_15512)"/>
<path d="M14 4V5V10.293V13V14H20V13V5V4H14ZM15 5H19V5.29297L15 9.29297V5ZM19 6.70703V9.29297L15.293 13H15V10.707L19 6.70703ZM19 10.707V13H16.707L19 10.707Z" fill="url(#paint1_linear_10_15512)"/>
<defs>
<linearGradient id="paint0_linear_10_15512" x1="4" y1="12" x2="20" y2="12" gradientUnits="userSpaceOnUse">
<stop stop-color="#FDFC47"/>
<stop offset="1" stop-color="#24FE41"/>
</linearGradient>
<linearGradient id="paint1_linear_10_15512" x1="14" y1="9" x2="20" y2="9" gradientUnits="userSpaceOnUse">
<stop stop-color="#FDFC47"/>
<stop offset="1" stop-color="#24FE41"/>
</linearGradient>
</defs>
</svg>
