<svg width="24" height="24" viewBox="0 0 24 24" fill="none" xmlns="http://www.w3.org/2000/svg">
<path d="M4 4V20H20V4H4ZM19 5V19H5L8.46875 15.5312C7.56393 14.6264 7 13.3807 7 12C7 9.23858 9.23858 7 12 7C13.3807 7 14.6264 7.56393 15.5312 8.46875L19 5ZM15.5312 8.46875L8.46875 15.5312C9.37357 16.4361 10.6193 17 12 17C14.7614 17 17 14.7614 17 12C17 10.6193 16.4361 9.37357 15.5312 8.46875Z" fill="url(#paint0_linear_10_15486)"/>
<defs>
<linearGradient id="paint0_linear_10_15486" x1="4" y1="12" x2="20" y2="12" gradientUnits="userSpaceOnUse">
<stop stop-color="#FDFC47"/>
<stop offset="1" stop-color="#24FE41"/>
</linearGradient>
</defs>
</svg>
