<svg width="24" height="24" viewBox="0 0 24 24" fill="none" xmlns="http://www.w3.org/2000/svg">
<path d="M20 4C18.6808 4.2713 17.5415 5.06428 16.8184 6.17773C16.5681 6.06549 16.293 6 16 6C15.7915 6 15.595 6.04094 15.4062 6.09961C14.2688 5.40589 12.9352 5 11.5 5C7.345 5 4 8.345 4 12.5C4 16.655 7.345 20 11.5 20C15.655 20 19 16.655 19 12.5C19 11.0648 18.5941 9.73119 17.9004 8.59375C17.9591 8.40504 18 8.20851 18 8C18 7.55197 17.8505 7.14325 17.6035 6.81055C18.1391 5.93881 18.9893 5.29186 20 5.0293V4ZM7.31836 7.51758C6.37074 8.6465 5.80078 10.1032 5.80078 11.6992C5.80078 15.3002 8.69978 18.1992 12.3008 18.1992C13.8962 18.1992 15.3517 17.6287 16.4805 16.6816C15.29 18.0994 13.5046 19 11.5 19C7.899 19 5 16.101 5 12.5C5 10.495 5.90008 8.70809 7.31836 7.51758Z" fill="url(#paint0_linear_10_15415)"/>
<defs>
<linearGradient id="paint0_linear_10_15415" x1="4" y1="12" x2="20" y2="12" gradientUnits="userSpaceOnUse">
<stop stop-color="#FDFC47"/>
<stop offset="1" stop-color="#24FE41"/>
</linearGradient>
</defs>
</svg>
