<svg width="24" height="24" viewBox="0 0 24 24" fill="none" xmlns="http://www.w3.org/2000/svg">
<path d="M5.5 4C4.669 4 4 4.669 4 5.5C4 6.15424 4.41808 6.7022 5 6.9082V17H4V20H7V17H6V6.9082C6.42446 6.75794 6.75675 6.42266 6.9082 6H17V7H20V4H17V5H6.9082C6.7022 4.41808 6.15424 4 5.5 4ZM5.5 5C5.777 5 6 5.223 6 5.5C6 5.777 5.777 6 5.5 6C5.223 6 5 5.777 5 5.5C5 5.223 5.223 5 5.5 5ZM18 5H19V6H18V5ZM7 7V14L9 11.5H12L7 7ZM5 18H6V19H5V18Z" fill="url(#paint0_linear_10_15466)"/>
<defs>
<linearGradient id="paint0_linear_10_15466" x1="4" y1="12" x2="20" y2="12" gradientUnits="userSpaceOnUse">
<stop stop-color="#FDFC47"/>
<stop offset="1" stop-color="#24FE41"/>
</linearGradient>
</defs>
</svg>
