<svg width="24" height="24" viewBox="0 0 24 24" fill="none" xmlns="http://www.w3.org/2000/svg">
<path d="M5 4V18H7V20H13V19H8V7H18V12H19V6H17V4H5ZM6 5H16V6H7V17H6V5ZM17 13C16.4696 13 15.9609 13.2107 15.5858 13.5858C15.2107 13.9609 15 14.4696 15 15V17H14V20H20V17H19V15C19 14.4696 18.7893 13.9609 18.4142 13.5858C18.0391 13.2107 17.5304 13 17 13ZM17 14C17.2652 14 17.5196 14.1054 17.7071 14.2929C17.8946 14.4804 18 14.7348 18 15V17H16V15C16 14.7348 16.1054 14.4804 16.2929 14.2929C16.4804 14.1054 16.7348 14 17 14Z" fill="url(#paint0_linear_10_15426)"/>
<defs>
<linearGradient id="paint0_linear_10_15426" x1="5" y1="12" x2="20" y2="12" gradientUnits="userSpaceOnUse">
<stop stop-color="#FDFC47"/>
<stop offset="1" stop-color="#24FE41"/>
</linearGradient>
</defs>
</svg>
