<svg width="24" height="24" viewBox="0 0 24 24" fill="none" xmlns="http://www.w3.org/2000/svg">
<path d="M4 4V5V20H5H20V19V4H4ZM5 5H19V19H5V5ZM6 6V7V9H7V7H9V6H6ZM15 6V7H17V9H18V7V6H15ZM9 8C8.446 8 8 8.446 8 9C8 9.554 8.446 10 9 10C9.554 10 10 9.554 10 9C10 8.446 9.554 8 9 8ZM15 8C14.446 8 14 8.446 14 9C14 9.554 14.446 10 15 10C15.554 10 16 9.554 16 9C16 8.446 15.554 8 15 8ZM8.12891 12.9668L7.16406 13.209C7.70457 15.3874 9.64976 17 12 17C14.3502 17 16.2954 15.3874 16.8359 13.209L15.8711 12.9668C15.4392 14.7103 13.8807 16 12 16C10.1193 16 8.56079 14.7103 8.12891 12.9668ZM6 15V17V18H9V17H7V15H6ZM17 15V17H15V18H18V17V15H17Z" fill="url(#paint0_linear_10_15457)"/>
<defs>
<linearGradient id="paint0_linear_10_15457" x1="4" y1="12" x2="20" y2="12" gradientUnits="userSpaceOnUse">
<stop stop-color="#FDFC47"/>
<stop offset="1" stop-color="#24FE41"/>
</linearGradient>
</defs>
</svg>
