<svg width="24" height="24" viewBox="0 0 24 24" fill="none" xmlns="http://www.w3.org/2000/svg">
<path d="M7 4C6.73478 4 6.48043 4.10536 6.29289 4.29289C6.10536 4.48043 6 4.73478 6 5C6 5.26522 6.10536 5.51957 6.29289 5.70711C6.48043 5.89464 6.73478 6 7 6C7.26522 6 7.51957 5.89464 7.70711 5.70711C7.89464 5.51957 8 5.26522 8 5C8 4.73478 7.89464 4.48043 7.70711 4.29289C7.51957 4.10536 7.26522 4 7 4ZM8 7L8.00586 20L11.9004 15.3008L18 15L8 7Z" fill="url(#paint0_linear_10_15496)"/>
<defs>
<linearGradient id="paint0_linear_10_15496" x1="6" y1="12" x2="18" y2="12" gradientUnits="userSpaceOnUse">
<stop stop-color="#FDFC47"/>
<stop offset="1" stop-color="#24FE41"/>
</linearGradient>
</defs>
</svg>
