<svg width="24" height="24" viewBox="0 0 24 24" fill="none" xmlns="http://www.w3.org/2000/svg">
<path opacity="0.66" fill-rule="evenodd" clip-rule="evenodd" d="M7 15C7 17.77 9.23 20 12 20C14.77 20 17 17.77 17 15H7Z" fill="url(#paint0_linear_10_15468)"/>
<path opacity="0.33" fill-rule="evenodd" clip-rule="evenodd" d="M8.482 11C8.142 11.586 7.832 12.148 7.596 12.676C7.21007 13.3902 7.00541 14.1882 7 15H17C17 14.155 16.772 13.373 16.404 12.676C16.1375 12.1026 15.8418 11.5432 15.518 11H8.482Z" fill="url(#paint1_linear_10_15468)"/>
<path d="M12 4C11.027 7.405 8.646 10.332 7.596 12.676C7.21007 13.3902 7.00541 14.1882 7 15C7 17.77 9.23 20 12 20C14.77 20 17 17.77 17 15C17 14.155 16.772 13.373 16.404 12.676C15.354 10.332 12.973 7.405 12 4ZM12 6.393C13.194 9.061 14.747 11.42 15.492 13.084L15.504 13.114L15.52 13.143C15.8305 13.713 15.9954 14.3509 16 15C16 17.233 14.233 19 12 19C11.4736 19.004 10.9517 18.9033 10.4646 18.7037C9.97745 18.504 9.5349 18.2096 9.16267 17.8373C8.79044 17.4651 8.49595 17.0226 8.29635 16.5354C8.09674 16.0483 7.99601 15.5264 8 15C8 14.335 8.177 13.717 8.48 13.143L8.496 13.113L8.508 13.084C9.253 11.42 10.806 9.061 12 6.393Z" fill="url(#paint2_linear_10_15468)"/>
<defs>
<linearGradient id="paint0_linear_10_15468" x1="7" y1="17.5" x2="17" y2="17.5" gradientUnits="userSpaceOnUse">
<stop stop-color="#FDFC47"/>
<stop offset="1" stop-color="#24FE41"/>
</linearGradient>
<linearGradient id="paint1_linear_10_15468" x1="7" y1="13" x2="17" y2="13" gradientUnits="userSpaceOnUse">
<stop stop-color="#FDFC47"/>
<stop offset="1" stop-color="#24FE41"/>
</linearGradient>
<linearGradient id="paint2_linear_10_15468" x1="7" y1="12" x2="17" y2="12" gradientUnits="userSpaceOnUse">
<stop stop-color="#FDFC47"/>
<stop offset="1" stop-color="#24FE41"/>
</linearGradient>
</defs>
</svg>
