<svg width="24" height="24" viewBox="0 0 24 24" fill="none" xmlns="http://www.w3.org/2000/svg">
<path d="M11.9121 4C11.0902 4.00715 10.2746 4.10926 9.49414 4.30273L10.332 5.14453C10.8777 5.04738 11.4377 4.99754 12 4.99609C12.1761 4.99786 12.352 5.00438 12.5273 5.01562L11.9121 4ZM13.1191 4.0625L13.7891 5.16797C14.7978 5.35701 15.7347 5.70468 16.5312 6.18555L17.3438 5.54102C16.1625 4.74455 14.6918 4.22985 13.1191 4.0625ZM8.41797 4.63867C7.74008 4.89385 7.11402 5.22003 6.55859 5.60742L7.53125 6.1543C8.03525 5.85577 8.5954 5.60923 9.19531 5.42188L8.41797 4.63867ZM18.1582 6.16992L17.3691 6.79688C17.6731 7.05625 17.9394 7.33698 18.1641 7.63477L19.1641 7.3418C18.8906 6.92319 18.553 6.52992 18.1582 6.16992ZM5.71875 6.28125C5.30212 6.6816 4.95494 7.12 4.68555 7.58594L5.61719 7.95312C5.87849 7.53515 6.21891 7.14478 6.62891 6.79297L5.71875 6.28125ZM19.6484 8.24219L18.6816 8.52539C18.8369 8.87967 18.9365 9.24521 18.9785 9.61523L19.9844 9.75195C19.9588 9.24001 19.8459 8.73262 19.6484 8.24219ZM4.26172 8.49219C4.09984 8.95797 4.01328 9.43667 4.00391 9.91797L5.00781 9.87305C5.01973 9.53161 5.0806 9.19195 5.18945 8.85938L4.26172 8.49219ZM18.9395 10.6191C18.8497 11.1267 18.6514 11.6214 18.3516 12.0859L19.3418 12.3613C19.6352 11.8485 19.8317 11.3075 19.9258 10.7539L18.9395 10.6191ZM5.10938 10.8691L4.10352 10.9141C4.20635 11.421 4.39539 11.9159 4.66602 12.3867L5.57617 11.9688C5.36193 11.6162 5.2053 11.2473 5.10938 10.8691ZM6.19727 12.7852L5.25781 13.2148C5.73598 13.7739 6.33462 14.2696 7.0293 14.6816C7.66533 17.0572 5.18885 19.183 6 19.9941C7.13471 20.1023 7.80916 18.4273 8.08203 16.8047C8.1841 16.6658 8.55303 16.1378 8.84961 15.5078C9.8418 15.8279 10.9101 15.994 11.9902 15.9961L10.9238 14.9297C10.3067 14.859 9.7057 14.7296 9.13672 14.5449C9.14464 14.1009 8.87095 13.8213 8.00195 14C8.00091 13.9986 8.00106 13.9955 8 13.9941C7.92081 13.9941 7.84237 13.9783 7.76367 13.9668C7.1547 13.6367 6.62556 13.2375 6.19727 12.7852ZM17.6582 12.9316C17.196 13.3853 16.6301 13.7801 15.9844 14.0996L16.9609 14.6953C17.6573 14.2848 18.2579 13.7905 18.7383 13.2324L17.6582 12.9316ZM14.8242 14.5645C14.0563 14.8081 13.2333 14.951 12.3945 14.9863L13.3164 15.9082C14.2269 15.7949 15.1045 15.5643 15.9102 15.2266L14.8242 14.5645Z" fill="url(#paint0_linear_10_15488)"/>
<defs>
<linearGradient id="paint0_linear_10_15488" x1="4.00391" y1="11.9996" x2="19.9844" y2="11.9996" gradientUnits="userSpaceOnUse">
<stop stop-color="#FDFC47"/>
<stop offset="1" stop-color="#24FE41"/>
</linearGradient>
</defs>
</svg>
