<svg width="24" height="24" viewBox="0 0 24 24" fill="none" xmlns="http://www.w3.org/2000/svg">
<path d="M4 4V11H12V4H4ZM5 5H11V10H5V5ZM13 5.07812V5.99805V6.08984V8.99805H14V6.35547C15.1678 6.76835 16.1792 7.53256 16.8954 8.54319C17.6116 9.55382 17.9975 10.7613 18 12H19C18.9985 10.3178 18.3912 8.69246 17.2894 7.42136C16.1876 6.15026 14.6649 5.31843 13 5.07812ZM5 12C5.00152 13.6822 5.60875 15.3075 6.71057 16.5786C7.81238 17.8497 9.33508 18.6816 11 18.9219V17.9102V14.998H10V17.6445C8.83217 17.2316 7.82076 16.4674 7.10457 15.4568C6.38839 14.4462 6.00254 13.2387 6 12H5Z" fill="url(#paint0_linear_10_15591)"/>
<path d="M14 13L13.793 13.207L12 15V16.4141L13.5 14.9141V19H14.5V14.9141L16 16.4141V15L14.207 13.207L14 13ZM17.5 14V18.0859L16 16.5859V18L17.793 19.793L18 20L18.207 19.793L20 18V16.5859L18.5 18.0859V14H17.5Z" fill="url(#paint1_linear_10_15591)"/>
<defs>
<linearGradient id="paint0_linear_10_15591" x1="4" y1="11.4609" x2="19" y2="11.4609" gradientUnits="userSpaceOnUse">
<stop stop-color="#FDFC47"/>
<stop offset="1" stop-color="#24FE41"/>
</linearGradient>
<linearGradient id="paint1_linear_10_15591" x1="12" y1="16.5" x2="20" y2="16.5" gradientUnits="userSpaceOnUse">
<stop stop-color="#FDFC47"/>
<stop offset="1" stop-color="#24FE41"/>
</linearGradient>
</defs>
</svg>
