<svg width="24" height="24" viewBox="0 0 24 24" fill="none" xmlns="http://www.w3.org/2000/svg">
<path d="M4 4V11H12V4H4ZM5 5H11V10H5V5ZM13 5.07812V6.08984V9H14V6.35547C15.1678 6.76835 16.1792 7.53256 16.8954 8.54319C17.6116 9.55382 17.9975 10.7613 18 12H19C18.9985 10.3178 18.3912 8.69246 17.2894 7.42136C16.1876 6.15026 14.6649 5.31843 13 5.07812ZM5 12C5.00152 13.6822 5.60875 15.3075 6.71057 16.5786C7.81238 17.8497 9.33508 18.6816 11 18.9219V17.9102V15H10V17.6445C8.83217 17.2316 7.82076 16.4674 7.10457 15.4568C6.38839 14.4462 6.00254 13.2387 6 12H5ZM12 13V20H20V13H12ZM13 14H19V19H13V14Z" fill="url(#paint0_linear_10_15594)"/>
<defs>
<linearGradient id="paint0_linear_10_15594" x1="4" y1="12" x2="20" y2="12" gradientUnits="userSpaceOnUse">
<stop stop-color="#FDFC47"/>
<stop offset="1" stop-color="#24FE41"/>
</linearGradient>
</defs>
</svg>
