<svg width="24" height="24" viewBox="0 0 24 24" fill="none" xmlns="http://www.w3.org/2000/svg">
<path d="M4 4V6C5.83851 6 7.65901 6.36212 9.35757 7.06569C11.0561 7.76925 12.5995 8.80048 13.8995 10.1005C15.1995 11.4005 16.2307 12.9439 16.9343 14.6424C17.6379 16.341 18 18.1615 18 20H20C20 17.8988 19.5861 15.8183 18.7821 13.8771C17.978 11.9359 16.7994 10.172 15.3137 8.68629C13.828 7.20055 12.0641 6.022 10.1229 5.21793C8.18173 4.41385 6.10115 4 4 4ZM4 8V10C5.31322 10 6.61358 10.2587 7.82683 10.7612C9.04009 11.2638 10.1425 12.0003 11.0711 12.9289C11.9997 13.8575 12.7362 14.9599 13.2388 16.1732C13.7413 17.3864 14 18.6868 14 20H16C16 16.8174 14.7357 13.7652 12.4853 11.5147C10.2348 9.26428 7.1826 8 4 8ZM4 12V14C4.78793 14 5.56815 14.1552 6.2961 14.4567C7.02406 14.7583 7.68549 15.2002 8.24265 15.7574C8.7998 16.3145 9.24175 16.9759 9.54328 17.7039C9.84481 18.4319 10 19.2121 10 20H12C12 18.9494 11.7931 17.9091 11.391 16.9385C10.989 15.9679 10.3997 15.086 9.65686 14.3431C8.91399 13.6003 8.03208 13.011 7.06147 12.609C6.09087 12.2069 5.05058 12 4 12ZM5.5 17C5.10218 17 4.72064 17.158 4.43934 17.4393C4.15804 17.7206 4 18.1022 4 18.5C4 18.8978 4.15804 19.2794 4.43934 19.5607C4.72064 19.842 5.10218 20 5.5 20C5.89782 20 6.27936 19.842 6.56066 19.5607C6.84196 19.2794 7 18.8978 7 18.5C7 18.1022 6.84196 17.7206 6.56066 17.4393C6.27936 17.158 5.89782 17 5.5 17Z" fill="url(#paint0_linear_10_15605)"/>
<defs>
<linearGradient id="paint0_linear_10_15605" x1="4" y1="12" x2="20" y2="12" gradientUnits="userSpaceOnUse">
<stop stop-color="#FDFC47"/>
<stop offset="1" stop-color="#24FE41"/>
</linearGradient>
</defs>
</svg>
