<svg width="24" height="24" viewBox="0 0 24 24" fill="none" xmlns="http://www.w3.org/2000/svg">
<path d="M14.3494 7.24097C14.3494 7.52661 14.3237 7.79761 14.2725 8.05396C14.2212 8.31031 14.1333 8.55201 14.0088 8.77905C13.8916 8.99878 13.7744 9.20019 13.6572 9.3833C13.54 9.55908 13.3716 9.74218 13.1519 9.93262C12.9395 10.1157 12.7563 10.2695 12.6025 10.394C12.4487 10.5186 12.229 10.665 11.9434 10.8335C11.665 11.0019 11.4453 11.1301 11.2842 11.218C11.123 11.3059 10.885 11.4341 10.5701 11.6025L14.9756 16.3816C15.6494 15.6492 16.2646 14.7849 16.8213 13.7888L18.0737 14.6128C17.4219 15.748 16.7261 16.7002 15.9863 17.4692L17.7332 19.3699L16.4587 20.4246L14.7778 18.5569C13.3057 19.6848 11.7603 20.2488 10.1416 20.2488C9.43847 20.2488 8.76465 20.1389 8.12012 19.9192C7.48291 19.6921 6.93725 19.3918 6.48315 19.0183C6.02905 18.6448 5.66651 18.209 5.39551 17.7109C5.13184 17.2129 5 16.6965 5 16.1619C5 15.6638 5.05859 15.1987 5.17578 14.7666C5.30029 14.3271 5.45776 13.9499 5.64819 13.635C5.84595 13.3127 6.09131 13.0088 6.38428 12.7231C6.68457 12.4302 6.9812 12.1848 7.27417 11.9871C7.56714 11.782 7.90405 11.5732 8.28491 11.3608L7.98828 11.0312C6.91162 9.84472 6.37329 8.64721 6.37329 7.43872C6.37329 6.41333 6.76148 5.58569 7.53784 4.95581C8.32153 4.3186 9.32861 4 10.5591 4C11.709 4 12.6282 4.27832 13.3167 4.83496C14.0051 5.3916 14.3494 6.1936 14.3494 7.24097ZM9.68018 10.6357C10.0684 10.438 10.3833 10.2695 10.625 10.1304C10.8667 9.98388 11.134 9.80444 11.427 9.59204C11.7273 9.37231 11.958 9.15991 12.1191 8.95483C12.2876 8.74976 12.4268 8.5044 12.5366 8.21875C12.6538 7.92578 12.7124 7.61817 12.7124 7.2959C12.7124 6.65137 12.533 6.16064 12.1741 5.82373C11.8152 5.47949 11.2842 5.30737 10.5811 5.30737C9.86328 5.30737 9.25171 5.49048 8.74634 5.85669C8.24097 6.2229 7.98828 6.70996 7.98828 7.31787C7.98828 8.30664 8.47168 9.3247 9.43848 10.3721L9.68018 10.6357ZM13.7891 17.4692L9.19678 12.3716C8.42041 12.8403 7.81982 13.3567 7.39502 13.9207C6.97021 14.4773 6.75781 15.1658 6.75781 15.9861C6.75781 16.7698 7.0874 17.4363 7.74658 17.9856C8.40576 18.5276 9.22607 18.7986 10.2075 18.7986C11.416 18.7986 12.6099 18.3555 13.7891 17.4692Z" fill="url(#paint0_linear_10_15607)"/>
<defs>
<linearGradient id="paint0_linear_10_15607" x1="5" y1="12.2123" x2="18.0737" y2="12.2123" gradientUnits="userSpaceOnUse">
<stop stop-color="#FDFC47"/>
<stop offset="1" stop-color="#24FE41"/>
</linearGradient>
</defs>
</svg>
