<svg width="24" height="24" viewBox="0 0 24 24" fill="none" xmlns="http://www.w3.org/2000/svg">
<path d="M5 4V5V18H6H8H9V19V20H14V19H10V8H18V12H19V8V7H17V4H16H6H5ZM6 5H16V7H9V8V17H8H6V5ZM17.5 13C16.5717 13 15.6815 13.3687 15.0251 14.0251C14.3687 14.6815 14 15.5717 14 16.5C14 17.4283 14.3687 18.3185 15.0251 18.9749C15.6815 19.6313 16.5717 20 17.5 20C18.4283 20 19.3185 19.6313 19.9749 18.9749C20.6313 18.3185 21 17.4283 21 16.5C21 15.5717 20.6313 14.6815 19.9749 14.0251C19.3185 13.3687 18.4283 13 17.5 13ZM17.5 14C18.163 14 18.7989 14.2634 19.2678 14.7322C19.7366 15.2011 20 15.837 20 16.5C20 17.163 19.7366 17.7989 19.2678 18.2678C18.7989 18.7366 18.163 19 17.5 19C16.837 19 16.2011 18.7366 15.7322 18.2678C15.2634 17.7989 15 17.163 15 16.5C15 15.837 15.2634 15.2011 15.7322 14.7322C16.2011 14.2634 16.837 14 17.5 14ZM17 15V18H18H19V17H18V15H17Z" fill="url(#paint0_linear_10_15622)"/>
<defs>
<linearGradient id="paint0_linear_10_15622" x1="5" y1="12" x2="21" y2="12" gradientUnits="userSpaceOnUse">
<stop stop-color="#FDFC47"/>
<stop offset="1" stop-color="#24FE41"/>
</linearGradient>
</defs>
</svg>
