<svg width="24" height="24" viewBox="0 0 24 24" fill="none" xmlns="http://www.w3.org/2000/svg">
<path d="M6 4H9V20H6V4Z" fill="url(#paint0_linear_10_15631)"/>
<path d="M12 4H15V20H12V4Z" fill="url(#paint1_linear_10_15631)"/>
<path d="M18 4H21V20H18V4Z" fill="url(#paint2_linear_10_15631)"/>
<path d="M3 4H6V20H3V4Z" fill="url(#paint3_linear_10_15631)"/>
<path d="M15 4H18V20H15V4Z" fill="url(#paint4_linear_10_15631)"/>
<path d="M9 4H12V20H9V4Z" fill="url(#paint5_linear_10_15631)"/>
<defs>
<linearGradient id="paint0_linear_10_15631" x1="6" y1="12" x2="9" y2="12" gradientUnits="userSpaceOnUse">
<stop stop-color="#FF8008"/>
<stop offset="1" stop-color="#FFC837"/>
</linearGradient>
<linearGradient id="paint1_linear_10_15631" x1="12" y1="12" x2="15" y2="12" gradientUnits="userSpaceOnUse">
<stop stop-color="#56AB2F"/>
<stop offset="1" stop-color="#A8E063"/>
</linearGradient>
<linearGradient id="paint2_linear_10_15631" x1="18" y1="12" x2="21" y2="12" gradientUnits="userSpaceOnUse">
<stop stop-color="#2193B0"/>
<stop offset="1" stop-color="#6DD5ED"/>
</linearGradient>
<linearGradient id="paint3_linear_10_15631" x1="3" y1="12" x2="6" y2="12" gradientUnits="userSpaceOnUse">
<stop stop-color="#FF8008"/>
<stop offset="1" stop-color="#FFC837"/>
</linearGradient>
<linearGradient id="paint4_linear_10_15631" x1="15" y1="12" x2="18" y2="12" gradientUnits="userSpaceOnUse">
<stop stop-color="#2193B0"/>
<stop offset="1" stop-color="#6DD5ED"/>
</linearGradient>
<linearGradient id="paint5_linear_10_15631" x1="9" y1="12" x2="12" y2="12" gradientUnits="userSpaceOnUse">
<stop stop-color="#56AB2F"/>
<stop offset="1" stop-color="#A8E063"/>
</linearGradient>
</defs>
</svg>
