<svg width="24" height="24" viewBox="0 0 24 24" fill="none" xmlns="http://www.w3.org/2000/svg">
<path d="M14 6V14V18H15V16.6387C15.3747 17.0656 15.8361 17.4078 16.3533 17.6425C16.8706 17.8772 17.432 17.9991 18 18C19.0609 18 20.0783 17.5786 20.8284 16.8284C21.5786 16.0783 22 15.0609 22 14C22 12.9391 21.5786 11.9217 20.8284 11.1716C20.0783 10.4214 19.0609 10 18 10C17.432 10.0009 16.8706 10.1228 16.3533 10.3575C15.8361 10.5922 15.3747 10.9344 15 11.3613V6H14ZM18 11C18.7956 11 19.5587 11.3161 20.1213 11.8787C20.6839 12.4413 21 13.2044 21 14C21 14.7956 20.6839 15.5587 20.1213 16.1213C19.5587 16.6839 18.7956 17 18 17C17.2044 17 16.4413 16.6839 15.8787 16.1213C15.3161 15.5587 15 14.7956 15 14C15 13.2044 15.3161 12.4413 15.8787 11.8787C16.4413 11.3161 17.2044 11 18 11Z" fill="url(#paint0_linear_10_15626)"/>
<path d="M6.6723 4L1.83105 18H3.00003L4.73535 13.3334H10.775L12.5035 18H13.8311L8.92413 4H6.6723ZM7.76196 5.20087L10.3423 12.1667H5.17032L7.76196 5.20087Z" fill="url(#paint1_linear_10_15626)"/>
<defs>
<linearGradient id="paint0_linear_10_15626" x1="14" y1="12" x2="22" y2="12" gradientUnits="userSpaceOnUse">
<stop stop-color="#FDFC47"/>
<stop offset="1" stop-color="#24FE41"/>
</linearGradient>
<linearGradient id="paint1_linear_10_15626" x1="1.83105" y1="11" x2="13.8311" y2="11" gradientUnits="userSpaceOnUse">
<stop stop-color="#FDFC47"/>
<stop offset="1" stop-color="#24FE41"/>
</linearGradient>
</defs>
</svg>
