<svg width="24" height="24" viewBox="0 0 24 24" fill="none" xmlns="http://www.w3.org/2000/svg">
<path d="M16 12C13.784 12 12 13.784 12 16C12 18.216 13.784 20 16 20C18.216 20 20 18.216 20 16C20 13.784 18.216 12 16 12ZM16 13C17.662 13 19 14.338 19 16C19 17.662 17.662 19 16 19C14.338 19 13 17.662 13 16C13 14.338 14.338 13 16 13ZM15 14V17H17V16H16V14H15ZM4 4V20H12V19H5V11H8V10.9902L8.00781 11L10.0078 9H19V12H20V6H13.0078L11.0078 4L11 4.00977V4H4Z" fill="url(#paint0_linear_10_15697)"/>
<defs>
<linearGradient id="paint0_linear_10_15697" x1="4" y1="12" x2="20" y2="12" gradientUnits="userSpaceOnUse">
<stop stop-color="#FDFC47"/>
<stop offset="1" stop-color="#24FE41"/>
</linearGradient>
</defs>
</svg>
