<svg width="24" height="24" viewBox="0 0 24 24" fill="none" xmlns="http://www.w3.org/2000/svg">
<path d="M4 4V7H7V6H10H14H17V7H20V4H17V5H14H10H7V4H4ZM5 5H6V6H5V5ZM18 5H19V6H18V5ZM4 17V20H7V19H10V18H7V17H4ZM17 17V18H14V19H17V20H20V17H17ZM5 18H6V19H5V18ZM18 18H19V19H18V18Z" fill="url(#paint0_linear_10_15787)"/>
<path d="M10 10.5L12 13.5L14 10.5H10Z" fill="url(#paint1_linear_10_15787)"/>
<defs>
<linearGradient id="paint0_linear_10_15787" x1="4" y1="12" x2="20" y2="12" gradientUnits="userSpaceOnUse">
<stop stop-color="#FDFC47"/>
<stop offset="1" stop-color="#24FE41"/>
</linearGradient>
<linearGradient id="paint1_linear_10_15787" x1="10" y1="12" x2="14" y2="12" gradientUnits="userSpaceOnUse">
<stop stop-color="#FDFC47"/>
<stop offset="1" stop-color="#24FE41"/>
</linearGradient>
</defs>
</svg>
