<svg width="24" height="24" viewBox="0 0 24 24" fill="none" xmlns="http://www.w3.org/2000/svg">
<path d="M17.4805 3.61133L5.48047 19.6094L6.05078 20.0371L6.40625 20.3105L6.41016 20.3066L6.51953 20.3887L18.5195 4.38867L18.0508 4.03711L17.5938 3.68555L17.5898 3.69336L17.4805 3.61133ZM7.5 4.99805C5.567 4.99805 4 6.56505 4 8.49805C4 10.431 5.567 11.998 7.5 11.998C9.433 11.998 11 10.431 11 8.49805C11 6.56505 9.433 4.99805 7.5 4.99805ZM7.5 5.99805C8.88071 5.99805 10 7.11734 10 8.49805C10 9.87876 8.88071 10.998 7.5 10.998C6.11929 10.998 5 9.87876 5 8.49805C5 7.11734 6.11929 5.99805 7.5 5.99805ZM16.5 12.998C14.567 12.998 13 14.565 13 16.498C13 18.431 14.567 19.998 16.5 19.998C18.433 19.998 20 18.431 20 16.498C20 14.565 18.433 12.998 16.5 12.998ZM16.5 13.998C17.8807 13.998 19 15.1173 19 16.498C19 17.8788 17.8807 18.998 16.5 18.998C15.1193 18.998 14 17.8788 14 16.498C14 15.1173 15.1193 13.998 16.5 13.998Z" fill="url(#paint0_linear_10_15834)"/>
<defs>
<linearGradient id="paint0_linear_10_15834" x1="4" y1="12" x2="20" y2="12" gradientUnits="userSpaceOnUse">
<stop stop-color="#FDFC47"/>
<stop offset="1" stop-color="#24FE41"/>
</linearGradient>
</defs>
</svg>
