<svg width="24" height="24" viewBox="0 0 24 24" fill="none" xmlns="http://www.w3.org/2000/svg">
<path d="M4 3V4V19V20H5H12H13H20H21V19V4V3H20H5H4ZM5 4H12V19H5V4ZM13 4H20V19H13V4Z" fill="url(#paint0_linear_10_15747)" fill-opacity="0.1"/>
<path d="M5 4V11H12V4H5ZM13 4V11H20V4H13ZM5 12V19H12V12H5ZM13 12V19H20V12H13Z" fill="url(#paint1_linear_10_15747)" fill-opacity="0.5"/>
<path d="M4 11V12H21V11H4Z" fill="url(#paint2_linear_10_15747)"/>
<defs>
<linearGradient id="paint0_linear_10_15747" x1="4" y1="11.5" x2="21" y2="11.5" gradientUnits="userSpaceOnUse">
<stop stop-color="#FDFC47"/>
<stop offset="1" stop-color="#24FE41"/>
</linearGradient>
<linearGradient id="paint1_linear_10_15747" x1="5" y1="11.5" x2="20" y2="11.5" gradientUnits="userSpaceOnUse">
<stop stop-color="#FDFC47"/>
<stop offset="1" stop-color="#24FE41"/>
</linearGradient>
<linearGradient id="paint2_linear_10_15747" x1="4" y1="11.5" x2="21" y2="11.5" gradientUnits="userSpaceOnUse">
<stop stop-color="#FDFC47"/>
<stop offset="1" stop-color="#24FE41"/>
</linearGradient>
</defs>
</svg>
