<svg width="24" height="24" viewBox="0 0 24 24" fill="none" xmlns="http://www.w3.org/2000/svg">
<path d="M10 4V5H4V6H10V8H14V6H20V5H14V4H10ZM11 5H13V6V7H11V5ZM4 17V20H7V19H10V18H7V17H4ZM17 17V18H14V19H17V20H20V17H17ZM5 18H6V19H5V18ZM18 18H19V19H18V18Z" fill="url(#paint0_linear_10_15776)"/>
<path d="M10 10.5L12 13.5L14 10.5H10Z" fill="url(#paint1_linear_10_15776)"/>
<defs>
<linearGradient id="paint0_linear_10_15776" x1="4" y1="12" x2="20" y2="12" gradientUnits="userSpaceOnUse">
<stop stop-color="#FDFC47"/>
<stop offset="1" stop-color="#24FE41"/>
</linearGradient>
<linearGradient id="paint1_linear_10_15776" x1="10" y1="12" x2="14" y2="12" gradientUnits="userSpaceOnUse">
<stop stop-color="#FDFC47"/>
<stop offset="1" stop-color="#24FE41"/>
</linearGradient>
</defs>
</svg>
