<svg width="24" height="24" viewBox="0 0 24 24" fill="none" xmlns="http://www.w3.org/2000/svg">
<path d="M12.9961 4.00195L5.66992 11.3281L5.66797 11.3242L4.25391 12.7383L4.25586 12.7422L4.00586 12.9922H4V17H5H7H8.00781L8.25977 16.748L8.61328 16.3945L9.32031 15.6875L9.67578 15.334L16.998 8.00391L13 4.00391L12.9961 4.00195ZM12.4121 5.99805L15 8.58789L10.7324 12.8555L8.14453 10.2656L12.4121 5.99805ZM7.4375 10.9727L10.0254 13.5625L9.31836 14.2695L6.72852 11.6797L7.00195 11.4082L7.4375 10.9727ZM6.02148 12.3867L8.61133 14.9766L8.61523 14.9785L7.9082 15.6855L7.9043 15.6836L5.31445 13.0938L6.02148 12.3867ZM4 19V20H20V19H4Z" fill="url(#paint0_linear_10_15774)"/>
<defs>
<linearGradient id="paint0_linear_10_15774" x1="4" y1="12.001" x2="20" y2="12.001" gradientUnits="userSpaceOnUse">
<stop stop-color="#FDFC47"/>
<stop offset="1" stop-color="#24FE41"/>
</linearGradient>
</defs>
</svg>
