<svg width="24" height="24" viewBox="0 0 24 24" fill="none" xmlns="http://www.w3.org/2000/svg">
<path d="M5 4C4.44772 4 4 4.44772 4 5C4 5.55228 4.44772 6 5 6C5.55228 6 6 5.55228 6 5C6 4.44772 5.55228 4 5 4ZM11 4V5H20V4H11ZM11 6V7H17V6H11ZM5 10C4.44772 10 4 10.4477 4 11C4 11.5523 4.44772 12 5 12C5.55228 12 6 11.5523 6 11C6 10.4477 5.55228 10 5 10ZM11 10V11H20V10H11ZM11 12V13H13V12H11ZM5 16C4.44772 16 4 16.4477 4 17C4 17.5523 4.44772 18 5 18C5.55228 18 6 17.5523 6 17C6 16.4477 5.55228 16 5 16ZM11 16V17H20V16H11ZM11 18V19H17V18H11ZM18 19V20H20V19H18Z" fill="url(#paint0_linear_10_15820)"/>
<defs>
<linearGradient id="paint0_linear_10_15820" x1="4" y1="12" x2="20" y2="12" gradientUnits="userSpaceOnUse">
<stop stop-color="#FDFC47"/>
<stop offset="1" stop-color="#24FE41"/>
</linearGradient>
</defs>
</svg>
