<svg width="24" height="24" viewBox="0 0 24 24" fill="none" xmlns="http://www.w3.org/2000/svg">
<path d="M5 5V21H21V5H5ZM6 6H8V8H6V6ZM9 6H11V8H9V6ZM12 6H14V8H12V6ZM15 6H17V8H15V6ZM18 6H20V8H18V6ZM6 9H8V11H6V9ZM9 9H11V11H9V9ZM12 9H14V11H12V9ZM15 9H17V11H15V9ZM18 9H20V11H18V9ZM6 12H8V14H6V12ZM9 12H11V14H9V12ZM12 12H14V14H12V12ZM15 12H17V14H15V12ZM18 12H20V14H18V12ZM6 15H8V17H6V15ZM9 15H11V17H9V15ZM12 15H14V17H12V15ZM15 15H17V17H15V15ZM18 15H20V17H18V15ZM6 18H8V20H6V18ZM9 18H11V20H9V18ZM12 18H14V20H12V18ZM15 18H17V20H15V18ZM18 18H20V20H18V18Z" fill="url(#paint0_linear_10_15918)"/>
<defs>
<linearGradient id="paint0_linear_10_15918" x1="5" y1="13" x2="21" y2="13" gradientUnits="userSpaceOnUse">
<stop stop-color="#FDFC47"/>
<stop offset="1" stop-color="#24FE41"/>
</linearGradient>
</defs>
</svg>
