<svg width="24" height="24" viewBox="0 0 24 24" fill="none" xmlns="http://www.w3.org/2000/svg">
<path d="M12 4V4.00195C9.00044 4.00195 7.5 5.98814 7.5 8.40039C7.5 10.9998 10.4141 16 10.4141 16L13.5859 15.9961C13.5859 15.9961 16.5 10.9998 16.5 8.40039C16.5 5.98816 15.0004 4 12 4ZM12 5.00195C14.3337 5.00195 15.5 6.65771 15.5 8.66797C15.5 10.8342 13.2344 14.998 13.2344 14.998L10.7656 15.002C10.7656 15.002 8.5 10.8342 8.5 8.66797C8.5 6.65768 9.66702 5.00391 12 5.00391V5.00195ZM10 17V18.5C10 19.331 10.669 20 11.5 20H12.5C13.331 20 14 19.331 14 18.5V17H12.5H11.5H10Z" fill="url(#paint0_linear_10_15926)"/>
<defs>
<linearGradient id="paint0_linear_10_15926" x1="7.5" y1="12" x2="16.5" y2="12" gradientUnits="userSpaceOnUse">
<stop stop-color="#FDFC47"/>
<stop offset="1" stop-color="#24FE41"/>
</linearGradient>
</defs>
</svg>
