<svg width="24" height="24" viewBox="0 0 24 24" fill="none" xmlns="http://www.w3.org/2000/svg">
<path d="M16.9785 4C15.465 4.43772 13.7484 4.66938 12 4.67188C10.2516 4.67074 8.53435 4.44043 7.01953 4.00391C7.04163 4.69335 7.09665 5.34936 7.15625 6H7C7 5 6 5 6 5H5H4V7H4.00781C4.00726 7.03375 4 7.06571 4 7.09961C4 10.812 6.50611 13.9095 9.92383 14.8203C10.2648 15.2251 10.624 15.5386 11 15.7363V18H10V19H9V20H15V19H14V18H13V15.7363C13.3755 15.5385 13.7337 15.2246 14.0742 14.8203C17.4929 13.9102 20 10.8127 20 7.09961C20 7.06571 19.9927 7.03375 19.9922 7H20V5H19H18H17.9844C17.9844 5 17.2781 5.0051 17 5.95703V6H16.9844H16.8418C16.9015 5.34818 16.9564 4.69075 16.9785 4ZM5.09375 6H6C6.26795 7 7 7 7 7H7.26367C7.58884 9.61605 8.20116 11.8496 9.01367 13.4277C6.63955 12.3102 5 9.9066 5 7.09961C5 6.72419 5.03738 6.35911 5.09375 6ZM12 6L12.6191 7.31641L14 7.52734L13 8.55273L13.2363 10L12 9.31641L10.7637 10L11 8.55273L10 7.52734L11.3809 7.31641L12 6ZM18 6H18.9062C18.9626 6.35911 19 6.72419 19 7.09961C19 9.90879 17.3576 12.3133 14.9805 13.4297C15.7939 11.8513 16.409 9.61801 16.7344 7H17C17 7 18 7 18 6Z" fill="url(#paint0_linear_10_15924)"/>
<defs>
<linearGradient id="paint0_linear_10_15924" x1="4" y1="12" x2="20" y2="12" gradientUnits="userSpaceOnUse">
<stop stop-color="#FDFC47"/>
<stop offset="1" stop-color="#24FE41"/>
</linearGradient>
</defs>
</svg>
