<svg width="24" height="24" viewBox="0 0 24 24" fill="none" xmlns="http://www.w3.org/2000/svg">
<path d="M12.9961 4.00195C10.0849 6.92143 7.16392 9.82827 4.25391 12.7383L4.25586 12.7422L4.00586 12.9922H4V17H8.00781C10.9128 14.0979 14.0078 10.9974 16.998 8.00391L13 4.00391L12.9961 4.00195ZM12.4121 5.99805L15 8.58789L10.7324 12.8555L8.14453 10.2656L12.4121 5.99805ZM17.5 9C17.0135 10.7025 15.8218 12.1661 15.2969 13.3379C15.1132 13.6863 15 14.0773 15 14.5C15 15.885 16.115 17 17.5 17C18.885 17 20 15.885 20 14.5C20 14.0773 19.8868 13.6863 19.7031 13.3379C19.1782 12.1661 17.9864 10.7025 17.5 9ZM7.4375 10.9727L10.0254 13.5625L9.31836 14.2695L6.72852 11.6797C6.9659 11.4451 7.20134 11.2085 7.4375 10.9727ZM6.02148 12.3867L8.61133 14.9766L8.61523 14.9785L7.9082 15.6855L7.9043 15.6836L5.31445 13.0938L6.02148 12.3867ZM4 19V20H20V19H4Z" fill="url(#paint0_linear_10_15943)"/>
<defs>
<linearGradient id="paint0_linear_10_15943" x1="4" y1="12.001" x2="20" y2="12.001" gradientUnits="userSpaceOnUse">
<stop stop-color="#FDFC47"/>
<stop offset="1" stop-color="#24FE41"/>
</linearGradient>
</defs>
</svg>
