<svg width="24" height="24" viewBox="0 0 24 24" fill="none" xmlns="http://www.w3.org/2000/svg">
<path d="M11 3V5.13086C10.0228 5.27274 9.19069 5.52994 8.53711 5.93164C7.52656 6.54654 7.02148 7.48972 7.02148 8.76172C7.01693 10.957 8.57896 11.6804 11 12.3457V17.3359C9.82728 17.2369 8.75511 17.0165 7.62305 16.5332L7 17.8887C7.56451 18.19 8.3273 18.4508 9.28906 18.6738C9.83334 18.7961 10.4003 18.8744 11 18.9277V21H12V18.9766C12.1701 18.9811 12.3144 19 12.4941 19C12.6577 18.9987 12.8302 18.9847 13 18.9766V21H14V18.8809C15.9967 18.596 17.98 17.6786 17.959 15.1934C17.889 13.3643 16.7559 12.6858 14 11.7168V6.76367C14.9033 6.88442 16.0021 7.13595 17.2246 7.74609L18 6.20312C17.4494 5.90762 16.1689 5.43672 15.3535 5.26172C14.92 5.16911 14.467 5.10611 14 5.0625V3H13V5.01367C12.9078 5.01191 12.8219 5 12.7285 5C12.4718 5 12.2407 5.02034 12 5.0332V3H11ZM12.4375 6.64844C12.5885 6.64927 12.7998 6.65789 13 6.66602V11.3672C12.8426 11.3145 12.7446 11.274 12.5781 11.2188C12.3994 11.1748 12.1932 11.1106 12 11.0586V6.66211C12.1459 6.65574 12.2916 6.64845 12.4375 6.64844ZM11 6.75977V10.7559C9.77301 10.3215 8.64296 9.66466 8.67578 8.56641C8.61623 7.5251 9.68023 6.97562 11 6.75977ZM12 12.6133C12.1839 12.6601 12.3298 12.7054 12.5215 12.7539C12.6825 12.7997 12.8389 12.8513 13 12.8984V17.3906C12.8505 17.3937 12.6886 17.4094 12.5488 17.4082C12.3574 17.4064 12.1842 17.3942 12 17.3887V12.6133ZM14 13.2109C15.2815 13.6595 16.3197 14.2463 16.2969 15.2754C16.258 16.6711 15.1653 17.1583 14 17.3242V13.2109Z" fill="url(#paint0_linear_10_15957)"/>
<defs>
<linearGradient id="paint0_linear_10_15957" x1="7" y1="12" x2="18" y2="12" gradientUnits="userSpaceOnUse">
<stop stop-color="#FDFC47"/>
<stop offset="1" stop-color="#24FE41"/>
</linearGradient>
</defs>
</svg>
