<svg width="24" height="24" viewBox="0 0 24 24" fill="none" xmlns="http://www.w3.org/2000/svg">
<path d="M12 20H5V4H15L19 8V12H18V9H14V5H6V19H12V20Z" fill="url(#paint0_linear_10_16025)"/>
<path d="M14 13V14H13V15H14V18H13V19H14V20H15V19H18V20H19V19H20V18H19V15H20V14H19V13H18V14H15V13H14ZM15 15H18V18H15V15Z" fill="url(#paint1_linear_10_16025)"/>
<defs>
<linearGradient id="paint0_linear_10_16025" x1="5" y1="12" x2="19" y2="12" gradientUnits="userSpaceOnUse">
<stop stop-color="#FDFC47"/>
<stop offset="1" stop-color="#24FE41"/>
</linearGradient>
<linearGradient id="paint1_linear_10_16025" x1="13" y1="16.5" x2="20" y2="16.5" gradientUnits="userSpaceOnUse">
<stop stop-color="#FDFC47"/>
<stop offset="1" stop-color="#24FE41"/>
</linearGradient>
</defs>
</svg>
