<svg width="24" height="24" viewBox="0 0 24 24" fill="none" xmlns="http://www.w3.org/2000/svg">
<path d="M4 4V5V20H5H19H20V5V4H4ZM5 5H9V6V7H8H5V5ZM10 5H14V6V7H10V6V5ZM15 5H19V7H16H15V6V5ZM5 8H8H9V10H5V8ZM10 8H14H15H17H19V16.0996H17H15H14H10V14V13V8ZM5 11H9V13H5V11ZM5 14H9V16.0996H8H5V14ZM5 17.0996H8H9V18.0996V19H5V17.0996ZM10 17.0996H14V18.0996V19H10V18.0996V17.0996ZM15 17.0996H16H19V19H15V18.0996V17.0996Z" fill="url(#paint0_linear_10_15945)"/>
<defs>
<linearGradient id="paint0_linear_10_15945" x1="4" y1="12" x2="20" y2="12" gradientUnits="userSpaceOnUse">
<stop stop-color="#FDFC47"/>
<stop offset="1" stop-color="#24FE41"/>
</linearGradient>
</defs>
</svg>
