<svg width="24" height="24" viewBox="0 0 24 24" fill="none" xmlns="http://www.w3.org/2000/svg">
<path d="M4 3V4V11V12V20H5V12H12V20H13V12H20V20H21V3H5H4ZM5 4H12V11H5V4ZM13 4H20V11H13V4Z" fill="url(#paint0_linear_10_15963)" fill-opacity="0.1"/>
<path d="M5 4V11H12V4H5ZM13 4V11H20V4H13ZM5 12V19H12V12H5ZM13 12V19H20V12H13Z" fill="url(#paint1_linear_10_15963)" fill-opacity="0.5"/>
<path d="M4 18V20H21V18H4Z" fill="url(#paint2_linear_10_15963)"/>
<defs>
<linearGradient id="paint0_linear_10_15963" x1="4" y1="11.5" x2="21" y2="11.5" gradientUnits="userSpaceOnUse">
<stop stop-color="#FDFC47"/>
<stop offset="1" stop-color="#24FE41"/>
</linearGradient>
<linearGradient id="paint1_linear_10_15963" x1="5" y1="11.5" x2="20" y2="11.5" gradientUnits="userSpaceOnUse">
<stop stop-color="#FDFC47"/>
<stop offset="1" stop-color="#24FE41"/>
</linearGradient>
<linearGradient id="paint2_linear_10_15963" x1="4" y1="19" x2="21" y2="19" gradientUnits="userSpaceOnUse">
<stop stop-color="#FDFC47"/>
<stop offset="1" stop-color="#24FE41"/>
</linearGradient>
</defs>
</svg>
