<svg width="24" height="24" viewBox="0 0 24 24" fill="none" xmlns="http://www.w3.org/2000/svg">
<path d="M7.5 5C5.567 5 4 6.7909 4 9V15C4 17.2091 5.567 19 7.5 19C9.433 19 11 17.2091 11 15V9C11 6.7909 9.433 5 7.5 5ZM16.5 5C14.567 5 13 6.7909 13 9V15C13 17.2091 14.567 19 16.5 19C18.433 19 20 17.2091 20 15V9C20 6.7909 18.433 5 16.5 5ZM7.5 6C8.88071 6 10 7.3431 10 9V15C10 16.6569 8.88071 18 7.5 18C6.11929 18 5 16.6569 5 15V9C5 7.3431 6.11929 6 7.5 6ZM16.5 6C17.8807 6 19 7.3431 19 9V15C19 16.6569 17.8807 18 16.5 18C15.1193 18 14 16.6569 14 15V9C14 7.3431 15.1193 6 16.5 6ZM11 18V20H13V18H11Z" fill="url(#paint0_linear_10_15992)"/>
<defs>
<linearGradient id="paint0_linear_10_15992" x1="4" y1="12.5" x2="20" y2="12.5" gradientUnits="userSpaceOnUse">
<stop stop-color="#FDFC47"/>
<stop offset="1" stop-color="#24FE41"/>
</linearGradient>
</defs>
</svg>
