<svg width="24" height="24" viewBox="0 0 24 24" fill="none" xmlns="http://www.w3.org/2000/svg">
<path d="M18.9688 8.03125C18.9816 8.10336 19 8.17409 19 8.25V15.75C19 16.4425 18.4425 17 17.75 17H5.25C5.17409 17 5.10336 16.9816 5.03125 16.9688C5.13556 17.5545 5.63339 18 6.25 18H18.75C19.4425 18 20 17.4425 20 16.75V9.25C20 8.63339 19.5545 8.13556 18.9688 8.03125Z" fill="#B3B3B3"/>
<path d="M5.25 7C4.55748 7 4 7.55748 4 8.25V15.75C4 16.4425 4.55748 17 5.25 17H17.75C18.4425 17 19 16.4425 19 15.75V8.25C19 7.55748 18.4425 7 17.75 7H5.25ZM15 9H16V13H15H10V15L7 12.5L10 10V12H13H14H15V9Z" fill="url(#paint0_linear_10_16006)"/>
<defs>
<linearGradient id="paint0_linear_10_16006" x1="4" y1="12" x2="19" y2="12" gradientUnits="userSpaceOnUse">
<stop stop-color="#FDFC47"/>
<stop offset="1" stop-color="#24FE41"/>
</linearGradient>
</defs>
</svg>
