<svg width="24" height="24" viewBox="0 0 24 24" fill="none" xmlns="http://www.w3.org/2000/svg">
<path d="M6 4C4.892 4 4 4.892 4 6V18C4 19.108 4.892 20 6 20H18C19.108 20 20 19.108 20 18V6C20 4.892 19.108 4 18 4H6ZM6 5H18C18.554 5 19 5.446 19 6V18C19 18.554 18.554 19 18 19H6C5.446 19 5 18.554 5 18V6C5 5.446 5.446 5 6 5ZM7 6C6.446 6 6 6.446 6 7V17C6 17.554 6.446 18 7 18H17C17.554 18 18 17.554 18 17V7C18 6.446 17.554 6 17 6H7Z" fill="url(#paint0_linear_10_16009)"/>
<defs>
<linearGradient id="paint0_linear_10_16009" x1="4" y1="12" x2="20" y2="12" gradientUnits="userSpaceOnUse">
<stop stop-color="#FDFC47"/>
<stop offset="1" stop-color="#24FE41"/>
</linearGradient>
</defs>
</svg>
