<svg width="24" height="24" viewBox="0 0 24 24" fill="none" xmlns="http://www.w3.org/2000/svg">
<path d="M7 4L3 12L7 20H21V4H7ZM12.4355 8V8.5918C11.7248 8.5918 11.707 8.83096 11.707 9.69727V10.7148C11.707 11.1303 11.5834 11.7476 10.9844 12.0039C11.5834 12.2603 11.707 12.8795 11.707 13.2949V14.3027C11.707 15.169 11.7247 15.4082 12.4355 15.4082V16C11.3694 16 10.9141 15.6478 10.9141 14.7461V13.5234C10.9141 12.9665 10.8737 12.3223 10.2949 12.3223H10V11.6777H10.2949C10.8737 11.6777 10.9141 11.0335 10.9141 10.4766V9.25391C10.9141 8.35225 11.3694 8 12.4355 8ZM15.5723 8C16.6384 8 17.0859 8.35225 17.0859 9.25391V10.4766C17.0859 11.0335 17.1064 11.6777 17.6953 11.6777H18V12.3223H17.6953C17.1064 12.3223 17.0859 12.9665 17.0859 13.5234V14.7461C17.0859 15.6478 16.6384 16 15.5723 16V15.4082C16.292 15.4082 16.293 15.169 16.293 14.3027V13.2949C16.293 12.8795 16.4166 12.2603 17.0156 12.0039C16.4166 11.7476 16.293 11.1303 16.293 10.7148V9.69727C16.293 8.83096 16.283 8.5918 15.5723 8.5918V8Z" fill="url(#paint0_linear_10_16073)"/>
<defs>
<linearGradient id="paint0_linear_10_16073" x1="3" y1="12" x2="21" y2="12" gradientUnits="userSpaceOnUse">
<stop stop-color="#FDFC47"/>
<stop offset="1" stop-color="#24FE41"/>
</linearGradient>
</defs>
</svg>
