<svg width="24" height="24" viewBox="0 0 24 24" fill="none" xmlns="http://www.w3.org/2000/svg">
<path d="M4 4V5H14V4H4ZM17 4V5H18V7H17V8H18H19H20V7H19V5H20V4H19H18H17ZM4 6V7H10V6H4ZM11 6V7H12V6H11ZM13 6V7H14V6H13ZM15 6V7H16V6H15ZM4 10V11H12V10H4ZM15 10V11H16V13H15V14H20V13H19V11H20V10H15ZM17 11H18V13H17V11ZM4 12V13H8V12H4ZM9 12V13H10V12H9ZM11 12V13H12V12H11ZM13 12V13H14V12H13ZM4 16V17H11V16H4ZM13 16V17H14V19H13V20H14H15H16H20V19H19V17H20V16H16H15H14H13ZM15 17H16V19H15V17ZM17 17H18V19H17V17ZM4 18V19H6V18H4ZM7 18V19H8V18H7ZM9 18V19H10V18H9ZM11 18V19H12V18H11Z" fill="url(#paint0_linear_10_16091)"/>
<defs>
<linearGradient id="paint0_linear_10_16091" x1="4" y1="12" x2="20" y2="12" gradientUnits="userSpaceOnUse">
<stop stop-color="#FDFC47"/>
<stop offset="1" stop-color="#24FE41"/>
</linearGradient>
</defs>
</svg>
