<svg width="24" height="24" viewBox="0 0 24 24" fill="none" xmlns="http://www.w3.org/2000/svg">
<path d="M12 4.12109L10.125 5.99609L8.94922 7.17188L9.65625 7.87891L10.832 6.70312L12 5.53516L13.168 6.70312L14.3438 7.87891L15.0508 7.17188L13.875 5.99609L12 4.12109ZM7.17188 8.94922L5.99609 10.125L4.12109 12L5.99609 13.875L7.17188 15.0508L7.87891 14.3438L6.70312 13.168L5.53516 12L6.70312 10.832L7.87891 9.65625L7.17188 8.94922ZM16.8281 8.94922L16.1211 9.65625L17.2969 10.832L18.4648 12L17.2969 13.168L16.1211 14.3438L16.8281 15.0508L18.0039 13.875L19.8789 12L18.0039 10.125L16.8281 8.94922ZM12 9.17188L9.17188 12L12 14.8281L14.8281 12L12 9.17188ZM12 10.5859L13.4141 12L12 13.4141L10.5859 12L12 10.5859ZM9.65625 16.1211L8.94922 16.8281L10.125 18.0039L12 19.8789L13.875 18.0039L15.0508 16.8281L14.3438 16.1211L13.168 17.2969L12 18.4648L10.832 17.2969L9.65625 16.1211Z" fill="url(#paint0_linear_10_16096)"/>
<defs>
<linearGradient id="paint0_linear_10_16096" x1="4.12109" y1="12" x2="19.8789" y2="12" gradientUnits="userSpaceOnUse">
<stop stop-color="#FDFC47"/>
<stop offset="1" stop-color="#24FE41"/>
</linearGradient>
</defs>
</svg>
