<svg width="24" height="24" viewBox="0 0 24 24" fill="none" xmlns="http://www.w3.org/2000/svg">
<path d="M11.959 4.13281L10.084 6.00781L8.9082 7.18359L9.61523 7.89062L10.791 6.71484L11.959 5.54688L13.127 6.71484L14.3027 7.89062L15.0098 7.18359L13.834 6.00781L11.959 4.13281ZM6.95898 10.0117V11.0117H16.959V10.0117H6.95898ZM6.95898 13.0117V14.0117H16.959V13.0117H6.95898ZM9.61523 16.1328L8.9082 16.8398L10.084 18.0156L11.959 19.8906L13.834 18.0156L15.0098 16.8398L14.3027 16.1328L13.127 17.3086L11.959 18.4766L10.791 17.3086L9.61523 16.1328Z" fill="url(#paint0_linear_10_16099)"/>
<defs>
<linearGradient id="paint0_linear_10_16099" x1="6.95898" y1="12.0117" x2="16.959" y2="12.0117" gradientUnits="userSpaceOnUse">
<stop stop-color="#FDFC47"/>
<stop offset="1" stop-color="#24FE41"/>
</linearGradient>
</defs>
</svg>
