<svg width="24" height="24" viewBox="0 0 24 24" fill="none" xmlns="http://www.w3.org/2000/svg">
<path d="M16.3164 8.60938V15.2656H17.377V8.60938H16.3164ZM6.71484 9.01758L4 15.2656H5.23242L5.79883 13.8398H8.49609L9.07617 15.2656H10.3418L7.6582 9.01758H6.71484ZM7.14258 10.3496C7.23132 10.6502 7.32962 10.933 7.43555 11.1992L8.10938 12.8828H6.17188L6.8418 11.2285C6.95344 10.9537 7.05383 10.6617 7.14258 10.3496ZM13.0391 10.9023C12.3921 10.9023 11.845 11.1082 11.3984 11.5176C10.9518 11.9241 10.7285 12.465 10.7285 13.1406C10.7285 13.8106 10.9365 14.3525 11.3516 14.7676C11.7667 15.1827 12.3137 15.3906 12.9922 15.3906C13.4159 15.3906 13.7754 15.3251 14.0703 15.1934C14.368 15.0588 14.6139 14.8795 14.8086 14.6562C15.0061 14.4329 15.1424 14.1891 15.2168 13.9258C15.2941 13.6595 15.332 13.4424 15.332 13.2734C15.332 12.9328 15.3023 12.6613 15.2422 12.4609C15.1477 12.1431 14.995 11.8625 14.7832 11.6191C14.5714 11.3758 14.3143 11.1955 14.0137 11.0781C13.7159 10.9608 13.3912 10.9023 13.0391 10.9023ZM13.0391 11.8398C13.4427 11.8398 13.746 11.9689 13.9492 12.2266C14.1553 12.4842 14.2578 12.806 14.2578 13.1953C14.2578 13.4186 14.2106 13.6306 14.1133 13.8281C14.016 14.0257 13.8675 14.1815 13.6699 14.2988C13.4753 14.4162 13.253 14.4766 13.0039 14.4766C12.6575 14.4766 12.3716 14.3567 12.1426 14.1191C11.9164 13.8787 11.8027 13.56 11.8027 13.1621C11.8027 12.7642 11.9195 12.4455 12.1543 12.2051C12.389 11.9617 12.6841 11.8398 13.0391 11.8398ZM19.3008 13.918C19.1033 13.918 18.9343 13.9856 18.7969 14.123C18.6623 14.2604 18.5957 14.4264 18.5957 14.6211C18.5957 14.8158 18.6653 14.9817 18.8027 15.1191C18.9401 15.2537 19.1061 15.3223 19.3008 15.3223C19.4926 15.3223 19.6556 15.2527 19.793 15.1152C19.9304 14.9778 20 14.8129 20 14.6211C20 14.4264 19.9304 14.2604 19.793 14.123C19.6584 13.9856 19.4954 13.918 19.3008 13.918Z" fill="url(#paint0_linear_10_16117)"/>
<defs>
<linearGradient id="paint0_linear_10_16117" x1="4" y1="12" x2="20" y2="12" gradientUnits="userSpaceOnUse">
<stop stop-color="#FDFC47"/>
<stop offset="1" stop-color="#24FE41"/>
</linearGradient>
</defs>
</svg>
