<svg width="24" height="24" viewBox="0 0 24 24" fill="none" xmlns="http://www.w3.org/2000/svg">
<path d="M12 4C10.9494 4 9.90913 4.20693 8.93853 4.60896C7.96792 5.011 7.086 5.60028 6.34314 6.34315C5.60027 7.08602 5.01099 7.96793 4.60895 8.93853C4.20692 9.90914 4 10.9494 4 12C4 13.0506 4.20692 14.0909 4.60895 15.0615C5.01099 16.0321 5.60027 16.914 6.34314 17.6569C7.086 18.3997 7.96792 18.989 8.93853 19.391C9.90913 19.7931 10.9494 20 12 20C13.0506 20 14.0909 19.7931 15.0615 19.391C16.0321 18.989 16.914 18.3997 17.6569 17.6569C18.3997 16.914 18.989 16.0321 19.391 15.0615C19.7931 14.0909 20 13.0506 20 12C20 10.9494 19.7931 9.90914 19.391 8.93853C18.989 7.96793 18.3997 7.08602 17.6569 6.34315C16.914 5.60028 16.0321 5.011 15.0615 4.60896C14.0909 4.20693 13.0506 4 12 4ZM12 5C12.9193 5 13.8295 5.18106 14.6788 5.53284C15.5281 5.88463 16.2997 6.40024 16.9498 7.05025C17.5998 7.70026 18.1154 8.47194 18.4672 9.32122C18.8189 10.1705 19 11.0807 19 12C19 12.9193 18.8189 13.8295 18.4672 14.6788C18.1154 15.5281 17.5998 16.2997 16.9498 16.9497C16.2997 17.5998 15.5281 18.1154 14.6788 18.4672C13.8295 18.8189 12.9193 19 12 19C11.0807 19 10.1705 18.8189 9.32121 18.4672C8.47193 18.1154 7.70025 17.5998 7.05024 16.9497C6.40023 16.2997 5.88462 15.5281 5.53284 14.6788C5.18105 13.8295 5 12.9193 5 12C5 11.0807 5.18105 10.1705 5.53284 9.32122C5.88462 8.47194 6.40023 7.70026 7.05024 7.05025C7.70025 6.40024 8.47193 5.88463 9.32121 5.53284C10.1705 5.18106 11.0807 5 12 5ZM8.83789 8.13086C8.57918 8.34232 8.34232 8.57918 8.13086 8.83789L11.293 12L8.13086 15.1621C8.34232 15.4208 8.57918 15.6577 8.83789 15.8691L12 12.707L15.1621 15.8691C15.4208 15.6577 15.6577 15.4208 15.8691 15.1621L12.707 12L15.8691 8.83789C15.6577 8.57918 15.4208 8.34232 15.1621 8.13086L12 11.293L8.83789 8.13086Z" fill="url(#paint0_linear_10_16119)"/>
<defs>
<linearGradient id="paint0_linear_10_16119" x1="4" y1="12" x2="20" y2="12" gradientUnits="userSpaceOnUse">
<stop stop-color="#FDFC47"/>
<stop offset="1" stop-color="#24FE41"/>
</linearGradient>
</defs>
</svg>
