<svg width="24" height="24" viewBox="0 0 24 24" fill="none" xmlns="http://www.w3.org/2000/svg">
<path d="M11 4V6.08984C10.0868 6.24213 9.24596 6.59586 8.52344 7.10938L7.05078 5.63672L5.63672 7.05078L7.10938 8.52344C6.59586 9.24596 6.24213 10.0868 6.08984 11H4V13H6.08984C6.24213 13.9132 6.59586 14.754 7.10938 15.4766L5.63672 16.9492L7.05078 18.3633L8.52344 16.8906C9.24596 17.4041 10.0868 17.7579 11 17.9102V20H13V17.9102C13.9132 17.7579 14.754 17.4041 15.4766 16.8906L16.9492 18.3633L18.3633 16.9492L16.8906 15.4766C17.4041 14.754 17.7579 13.9132 17.9102 13H20V11H17.9102C17.7579 10.0868 17.4041 9.24596 16.8906 8.52344L18.3633 7.05078L16.9492 5.63672L15.4766 7.10938C14.754 6.59586 13.9132 6.24213 13 6.08984V4H11ZM12 7C13.364 7 14.5938 7.54422 15.4941 8.42383L15.5762 8.50586C16.4558 9.40619 17 10.636 17 12C17 13.364 16.4558 14.5938 15.5762 15.4941L15.4941 15.5762C14.5938 16.4558 13.364 17 12 17C10.636 17 9.40619 16.4558 8.50586 15.5762L8.42383 15.4941C7.54422 14.5938 7 13.364 7 12C7 10.636 7.54422 9.40619 8.42383 8.50586L8.50586 8.42383C9.40619 7.54422 10.636 7 12 7ZM10 10C9.446 10 9 10.446 9 11C9 11.554 9.446 12 10 12C10.554 12 11 11.554 11 11C11 10.446 10.554 10 10 10ZM14 10C13.446 10 13 10.446 13 11C13 11.554 13.446 12 14 12C14.554 12 15 11.554 15 11C15 10.446 14.554 10 14 10ZM9.0918 12.7266L8.125 12.9688C8.34086 13.8335 8.83935 14.6014 9.54137 15.1506C10.2434 15.6997 11.1087 15.9987 12 16C12.8916 15.9991 13.7574 15.7004 14.4598 15.1512C15.1622 14.602 15.661 13.8338 15.877 12.9688L14.9062 12.7266C14.7444 13.3751 14.3705 13.9511 13.844 14.3629C13.3175 14.7748 12.6685 14.999 12 15C11.3312 14.9994 10.6818 14.7754 10.1548 14.3635C9.62793 13.9516 9.25377 13.3755 9.0918 12.7266Z" fill="url(#paint0_linear_10_16123)"/>
<defs>
<linearGradient id="paint0_linear_10_16123" x1="4" y1="12" x2="20" y2="12" gradientUnits="userSpaceOnUse">
<stop stop-color="#FDFC47"/>
<stop offset="1" stop-color="#24FE41"/>
</linearGradient>
</defs>
</svg>
