<svg width="24" height="24" viewBox="0 0 24 24" fill="none" xmlns="http://www.w3.org/2000/svg">
<path d="M12 4C7.58183 4 4 6.6864 4 10C4 13.2629 7.4761 15.9117 11.8008 15.9922V20C20.0172 15.2563 20 12.2658 20 10C20 6.6864 16.4182 4 12 4ZM8.25977 7.06445H11.3418V10.1484H11.332C11.3385 10.2214 11.3418 10.2948 11.3418 10.3691C11.3418 11.6325 10.3751 12.668 9.14062 12.7793V11.8867C9.88662 11.779 10.4609 11.1449 10.4609 10.3691C10.4609 10.2941 10.4518 10.2206 10.4414 10.1484H8.25977V7.06445ZM12.6582 7.06445H15.7402V10.1484H15.7305C15.737 10.2214 15.7402 10.2948 15.7402 10.3691C15.7402 11.6325 14.7735 12.668 13.5391 12.7793V11.8867C14.2851 11.779 14.8594 11.1449 14.8594 10.3691C14.8594 10.2941 14.8523 10.2206 14.8418 10.1484H12.6582V7.06445Z" fill="url(#paint0_linear_10_16125)"/>
<defs>
<linearGradient id="paint0_linear_10_16125" x1="4" y1="12" x2="20" y2="12" gradientUnits="userSpaceOnUse">
<stop stop-color="#FDFC47"/>
<stop offset="1" stop-color="#24FE41"/>
</linearGradient>
</defs>
</svg>
