<svg width="24" height="24" viewBox="0 0 24 24" fill="none" xmlns="http://www.w3.org/2000/svg">
<path d="M12 4C11.7374 4 11.4773 4.0776 11.2346 4.22836C10.992 4.37913 10.7715 4.6001 10.5858 4.87868C10.4001 5.15726 10.2528 5.48797 10.1522 5.85195C10.0517 6.21593 10 6.60603 10 7C10.0007 7.06192 10.0026 7.1238 10.0059 7.18555C9.96451 7.1398 9.92217 7.09485 9.87891 7.05078C9.31634 6.48829 8.62787 6.09781 7.96492 5.96522C7.30197 5.83263 6.71883 5.96879 6.34375 6.34375C5.96879 6.71883 5.83263 7.30197 5.96522 7.96492C6.09781 8.62787 6.48829 9.31634 7.05078 9.87891C7.0942 9.92214 7.13849 9.96448 7.18359 10.0059C7.1225 10.0027 7.06127 10.0007 7 10C6.60603 10 6.21593 10.0517 5.85195 10.1522C5.48797 10.2528 5.15726 10.4001 4.87868 10.5858C4.6001 10.7715 4.37913 10.992 4.22836 11.2346C4.0776 11.4773 4 11.7374 4 12C4 12.2626 4.0776 12.5227 4.22836 12.7654C4.37913 13.008 4.6001 13.2285 4.87868 13.4142C5.15726 13.5999 5.48797 13.7472 5.85195 13.8478C6.21593 13.9483 6.60603 14 7 14C7.06192 13.9993 7.1238 13.9974 7.18555 13.9941C7.1398 14.0355 7.09485 14.0778 7.05078 14.1211C6.48829 14.6837 6.09781 15.3721 5.96522 16.0351C5.83263 16.698 5.96879 17.2812 6.34375 17.6562C6.71883 18.0312 7.30197 18.1674 7.96492 18.0348C8.62787 17.9022 9.31634 17.5117 9.87891 16.9492C9.92214 16.9058 9.96448 16.8615 10.0059 16.8164C10.0027 16.8775 10.0007 16.9387 10 17C10 17.394 10.0517 17.7841 10.1522 18.1481C10.2528 18.512 10.4001 18.8427 10.5858 19.1213C10.7715 19.3999 10.992 19.6209 11.2346 19.7716C11.4773 19.9224 11.7374 20 12 20C12.2626 20 12.5227 19.9224 12.7654 19.7716C13.008 19.6209 13.2285 19.3999 13.4142 19.1213C13.5999 18.8427 13.7472 18.512 13.8478 18.1481C13.9483 17.7841 14 17.394 14 17C13.9993 16.9381 13.9974 16.8762 13.9941 16.8145C14.0355 16.8602 14.0778 16.9051 14.1211 16.9492C14.6837 17.5117 15.3721 17.9022 16.0351 18.0348C16.698 18.1674 17.2812 18.0312 17.6562 17.6562C18.0312 17.2812 18.1674 16.698 18.0348 16.0351C17.9022 15.3721 17.5117 14.6837 16.9492 14.1211C16.9058 14.0779 16.8615 14.0355 16.8164 13.9941C16.8775 13.9973 16.9387 13.9993 17 14C17.394 14 17.7841 13.9483 18.1481 13.8478C18.512 13.7472 18.8427 13.5999 19.1213 13.4142C19.3999 13.2285 19.6209 13.008 19.7716 12.7654C19.9224 12.5227 20 12.2626 20 12C20 11.7374 19.9224 11.4773 19.7716 11.2346C19.6209 10.992 19.3999 10.7715 19.1213 10.5858C18.8427 10.4001 18.512 10.2528 18.1481 10.1522C17.7841 10.0517 17.394 10 17 10C16.9381 10.0007 16.8762 10.0026 16.8145 10.0059C16.8602 9.96451 16.9051 9.92217 16.9492 9.87891C17.5117 9.31634 17.9022 8.62787 18.0348 7.96492C18.1674 7.30197 18.0312 6.71883 17.6562 6.34375C17.2812 5.96879 16.698 5.83263 16.0351 5.96522C15.3721 6.09781 14.6837 6.48829 14.1211 7.05078C14.0779 7.0942 14.0355 7.13849 13.9941 7.18359C13.9973 7.1225 13.9993 7.06127 14 7C14 6.60603 13.9483 6.21593 13.8478 5.85195C13.7472 5.48797 13.5999 5.15726 13.4142 4.87868C13.2285 4.6001 13.008 4.37913 12.7654 4.22836C12.5227 4.0776 12.2626 4 12 4ZM12.9941 9.59766C13.0228 9.99718 13.1676 10.3379 13.4141 10.5859C13.6616 10.832 14.0017 10.9768 14.4004 11.0059C14.1391 11.3083 14.0011 11.651 14 12C14.0017 12.3491 14.1404 12.6919 14.4023 12.9941C14.0028 13.0228 13.6621 13.1676 13.4141 13.4141C13.168 13.6616 13.0232 14.0017 12.9941 14.4004C12.6917 14.1391 12.349 14.0011 12 14C11.651 14.0011 11.3083 14.1391 11.0059 14.4004C10.9768 14.0017 10.832 13.6616 10.5859 13.4141C10.3384 13.168 9.99832 13.0232 9.59961 12.9941C9.86089 12.6917 9.99893 12.349 10 12C9.99893 11.651 9.86089 11.3083 9.59961 11.0059C9.99832 10.9768 10.3384 10.832 10.5859 10.5859C10.832 10.3384 10.9768 9.99832 11.0059 9.59961C11.3083 9.86089 11.651 9.99893 12 10C12.3491 9.99833 12.6919 9.85962 12.9941 9.59766ZM12 11C11.446 11 11 11.446 11 12C11 12.554 11.446 13 12 13C12.554 13 13 12.554 13 12C13 11.446 12.554 11 12 11Z" fill="url(#paint0_linear_10_16129)"/>
<defs>
<linearGradient id="paint0_linear_10_16129" x1="4" y1="12" x2="20" y2="12" gradientUnits="userSpaceOnUse">
<stop stop-color="#FDFC47"/>
<stop offset="1" stop-color="#24FE41"/>
</linearGradient>
</defs>
</svg>
