<svg width="24" height="24" viewBox="0 0 24 24" fill="none" xmlns="http://www.w3.org/2000/svg">
<path d="M8.42578 4C5.98179 4 4 5.95351 4 8.36328C4 9.16881 4.22315 9.92264 4.60938 10.5703C4.50795 11.059 4.45312 11.5656 4.45312 12.084C4.45312 16.24 7.86917 19.6094 12.084 19.6094C12.5618 19.6094 13.0292 19.5654 13.4824 19.4824C14.1053 19.8129 14.8175 20 15.5742 20C18.0186 20 20 18.0468 20 15.6367C20 14.9406 19.8333 14.2832 19.5391 13.6992C19.6543 13.1789 19.7168 12.6383 19.7168 12.084C19.7168 7.92807 16.3008 4.55859 12.0859 4.55859C11.6411 4.55859 11.2036 4.5987 10.7793 4.66992C10.0971 4.24646 9.29141 4 8.42578 4ZM12.0352 6.78906C12.7169 6.78906 13.316 6.86789 13.8164 7.02148C14.3191 7.17588 14.743 7.38399 15.0762 7.64062C15.4118 7.8993 15.6615 8.17576 15.8184 8.46289C15.9768 8.75352 16.0566 9.04068 16.0566 9.32031C16.0566 9.58908 15.9522 9.83436 15.7441 10.0469C15.5348 10.2613 15.27 10.3711 14.959 10.3711C14.6765 10.3711 14.4561 10.3021 14.3027 10.168C14.1597 10.0437 14.0121 9.84917 13.8477 9.57031C13.6572 9.21356 13.4264 8.93246 13.1621 8.73438C12.9057 8.54183 12.4778 8.44531 11.8887 8.44531C11.3416 8.44531 10.8969 8.55231 10.5664 8.76562C10.2479 8.9715 10.0918 9.209 10.0918 9.48828C10.0918 9.65976 10.1414 9.80237 10.2441 9.92578C10.3526 10.0562 10.5059 10.1703 10.6992 10.2656C10.8996 10.3653 11.1077 10.4438 11.3145 10.5C11.5268 10.5581 11.8815 10.6444 12.3691 10.7559C12.9868 10.8865 13.5547 11.0332 14.0566 11.1914C14.5645 11.3519 15.0055 11.5495 15.3633 11.7793C15.7289 12.014 16.0175 12.3157 16.2227 12.6758C16.4287 13.0367 16.5332 13.482 16.5332 14C16.5331 14.6197 16.3526 15.1855 15.998 15.6797C15.6454 16.1727 15.1251 16.5629 14.4492 16.8398C13.7801 17.1141 12.9776 17.2539 12.0645 17.2539C10.9682 17.2539 10.0491 17.0625 9.33203 16.6875C8.81937 16.4141 8.39514 16.0465 8.07422 15.5898C7.75017 15.1286 7.58594 14.6699 7.58594 14.2285C7.58594 13.9527 7.69316 13.7149 7.9043 13.5195C8.11335 13.3254 8.38185 13.2266 8.70117 13.2266C8.9635 13.2266 9.1892 13.3039 9.37305 13.457C9.54858 13.604 9.69947 13.8211 9.82031 14.1016C9.9558 14.407 10.1041 14.6641 10.2598 14.8672C10.4096 15.0627 10.6235 15.227 10.8984 15.3555C11.1754 15.4848 11.549 15.5508 12.0078 15.5508C12.6389 15.5508 13.1559 15.4183 13.5449 15.1562C13.9248 14.9008 14.1094 14.593 14.1094 14.2168C14.1094 13.9196 14.0127 13.687 13.8145 13.5039C13.6065 13.3124 13.3332 13.1628 13 13.0605C12.6534 12.9544 12.1835 12.8389 11.6016 12.7188C10.8096 12.5516 10.1368 12.3536 9.60156 12.1289C9.05444 11.8996 8.61157 11.5801 8.28906 11.1816C7.96143 10.7778 7.79688 10.2703 7.79688 9.67383C7.79688 9.1054 7.97043 8.5942 8.31445 8.15234C8.65554 7.71328 9.15315 7.37072 9.79492 7.13672C10.4284 6.90578 11.183 6.78906 12.0352 6.78906Z" fill="url(#paint0_linear_10_16142)"/>
<defs>
<linearGradient id="paint0_linear_10_16142" x1="4" y1="12" x2="20" y2="12" gradientUnits="userSpaceOnUse">
<stop stop-color="#FDFC47"/>
<stop offset="1" stop-color="#24FE41"/>
</linearGradient>
</defs>
</svg>
