<svg width="24" height="24" viewBox="0 0 24 24" fill="none" xmlns="http://www.w3.org/2000/svg">
<path d="M12 4C10.9391 4 9.92173 4.42142 9.17158 5.17157C8.42144 5.92171 8.00001 6.93913 8 8C8.00001 9.06087 8.42144 10.0783 9.17158 10.8284C9.92173 11.5786 10.9391 12 12 12C13.0609 12 14.0783 11.5786 14.8284 10.8284C15.5786 10.0783 16 9.06087 16 8C16 6.93913 15.5786 5.92171 14.8284 5.17157C14.0783 4.42142 13.0609 4 12 4ZM12 5C12.7956 5 13.5587 5.31607 14.1213 5.87868C14.6839 6.44129 15 7.20435 15 8C15 8.79565 14.6839 9.55871 14.1213 10.1213C13.5587 10.6839 12.7956 11 12 11C11.2044 11 10.4413 10.6839 9.87869 10.1213C9.31608 9.55871 9.00001 8.79565 9 8C9.00001 7.20435 9.31608 6.44129 9.87869 5.87868C10.4413 5.31607 11.2044 5 12 5ZM12 13C10.0531 13.0023 8.17387 13.7145 6.71446 15.0031C5.25504 16.2918 4.31563 18.0684 4.07227 20H5.08008C5.32034 18.3354 6.15189 16.813 7.42258 15.7112C8.69328 14.6094 10.3182 14.002 12 14C12.3348 14.0027 12.669 14.0295 13 14.0801V13.0703C12.6685 13.026 12.3345 13.0025 12 13ZM16.5 13C14.567 13 13 14.567 13 16.5C13 18.433 14.567 20 16.5 20C18.433 20 20 18.433 20 16.5C20 14.567 18.433 13 16.5 13ZM14 16H19V17H14V16Z" fill="url(#paint0_linear_10_16151)" fill-opacity="0.5"/>
<path d="M14 16V17H19V16H14Z" fill="white"/>
<defs>
<linearGradient id="paint0_linear_10_16151" x1="4.07227" y1="12" x2="20" y2="12" gradientUnits="userSpaceOnUse">
<stop stop-color="#FDFC47"/>
<stop offset="1" stop-color="#24FE41"/>
</linearGradient>
</defs>
</svg>
