<svg width="24" height="24" viewBox="0 0 24 24" fill="none" xmlns="http://www.w3.org/2000/svg">
<path d="M4 7.0332L4.01367 7.75391L6.12109 8.0293C6.69891 8.5317 9.91244 12.2502 10.4023 13.2051L10.4512 15.8691C10.1371 16.283 8.2168 16.1973 8.2168 16.1973L8.05273 16.9668C8.05273 16.9668 15.2497 16.8226 15.2871 16.9062C15.2691 16.8104 15.3008 16.1855 15.3008 16.1855L12.9648 16.123C12.9648 16.123 12.8127 14.2245 12.9258 13.1191C14.4583 11.423 17.1934 9.50781 17.1934 9.50781L19.0508 9.19141L19.4785 8.44727L13.1543 8.4082L13.3184 9.17969C13.3184 9.17969 15.0479 9.3179 15.2363 9.46875C15.2112 9.84567 12.2441 12.2227 12.2441 12.2227L9 7.85352L11.2734 7.67773L11.373 7.13477L4 7.0332ZM18.3301 11.5098L18.3457 15.5762L19.0391 15.668L20 11.7363L18.3301 11.5098ZM18.1973 16.0254L18.084 16.8281L18.9316 16.9668L19.0586 16.1211L18.1973 16.0254Z" fill="url(#paint0_linear_10_16159)"/>
<defs>
<linearGradient id="paint0_linear_10_16159" x1="4" y1="12" x2="20" y2="12" gradientUnits="userSpaceOnUse">
<stop stop-color="#FDFC47"/>
<stop offset="1" stop-color="#24FE41"/>
</linearGradient>
</defs>
</svg>
