<svg width="24" height="24" viewBox="0 0 24 24" fill="none" xmlns="http://www.w3.org/2000/svg">
<path d="M4 3V4H3V5H4V19H3V20H4V21H5V20H15V19H5V5H19V15H20V5H21V4H20V3H19V4H5V3H4ZM7 7V9H11V17H13V9H17V7H7ZM18 16V18H16V19H18V21H19V19H21V18H19V16H18Z" fill="url(#paint0_linear_10_16210)"/>
<defs>
<linearGradient id="paint0_linear_10_16210" x1="3" y1="12" x2="21" y2="12" gradientUnits="userSpaceOnUse">
<stop stop-color="#FDFC47"/>
<stop offset="1" stop-color="#24FE41"/>
</linearGradient>
</defs>
</svg>
