<svg width="24" height="24" viewBox="0 0 24 24" fill="none" xmlns="http://www.w3.org/2000/svg">
<path d="M8 4V8H4V9H8V15H4V16H8V20H9V16H12V15H9V9H15V12H16V9H20V8H16V4H15V8H9V4H8Z" fill="url(#paint0_linear_10_16214)"/>
<path d="M16.5 13C14.561 13 13 14.561 13 16.5C13 18.439 14.561 20 16.5 20C18.439 20 20 18.439 20 16.5C20 14.561 18.439 13 16.5 13Z" fill="url(#paint1_linear_10_16214)"/>
<defs>
<linearGradient id="paint0_linear_10_16214" x1="4" y1="12" x2="20" y2="12" gradientUnits="userSpaceOnUse">
<stop stop-color="#FDFC47"/>
<stop offset="1" stop-color="#24FE41"/>
</linearGradient>
<linearGradient id="paint1_linear_10_16214" x1="13" y1="16.5" x2="20" y2="16.5" gradientUnits="userSpaceOnUse">
<stop stop-color="#FDFC47"/>
<stop offset="1" stop-color="#24FE41"/>
</linearGradient>
</defs>
</svg>
