<svg width="24" height="24" viewBox="0 0 24 24" fill="none" xmlns="http://www.w3.org/2000/svg">
<path d="M4 4V18L5 17L6 16H5V15H6V16L7 15V13H9L11.0996 10.9004H7V5H17L18 4H4ZM19.293 4L4 19.293L4.70703 20L20 4.70703L19.293 4ZM5 6H6V7H5V6ZM20 6L19 7L18 8H19V9H18V8L17 9V10.9004H15.0996L13 13H17V19H7L6 20H20V6ZM5 8H6V9H5V8ZM5 10H6V11H5V10ZM18 10.0996H19V11.0996H18V10.0996ZM5 13H6V14H5V13ZM18 13H19V14H18V13ZM18 15H19V16H18V15ZM18 17H19V18H18V17Z" fill="url(#paint0_linear_10_16247)"/>
<defs>
<linearGradient id="paint0_linear_10_16247" x1="4" y1="12" x2="20" y2="12" gradientUnits="userSpaceOnUse">
<stop stop-color="#FDFC47"/>
<stop offset="1" stop-color="#24FE41"/>
</linearGradient>
</defs>
</svg>
