<svg width="24" height="24" viewBox="0 0 24 24" fill="none" xmlns="http://www.w3.org/2000/svg">
<path d="M7.16797 3.01561C6.91101 2.91705 6.63285 3.31042 6.54492 3.89647C6.46568 4.42467 6.54723 7.21394 6.65234 7.57421C6.70437 7.75253 6.61785 7.8366 6.16602 8.04686C5.50197 8.35588 4.54758 9.25953 4.23047 9.88085C4.09256 10.151 4 10.5382 4 10.8398C4 11.28 4.05347 11.3993 4.41016 11.7558C4.84252 12.188 5.2975 12.3637 6.28125 12.4766C6.60986 12.5143 6.94439 12.5957 7.02344 12.6582C7.30494 12.8808 7.58513 13.6025 7.69531 14.3828C7.76489 14.8756 7.95702 15.4928 8.20117 16.0137C8.59231 16.8482 8.59331 16.8529 8.52148 17.9121C8.48184 18.4967 8.39481 19.3316 8.32812 19.7656C8.21906 20.4753 8.22501 20.5758 8.40039 20.7695C8.69919 21.0995 9.47926 21.0692 9.70898 20.7187C9.8807 20.4568 10.1038 19.6909 10.2402 18.8945L10.3105 18.4883L10.8223 18.75C11.1121 18.8989 11.4126 19.1582 11.5176 19.3476L11.7031 19.6816H11.4062C10.9658 19.6816 10.627 19.9648 10.627 20.332C10.627 20.983 11 21 11 21H17C18 21 18.0587 20.7886 18.1465 19.8535C18.1717 19.5851 18.2491 19.5107 18.6465 19.3789C19.6023 19.0618 20.2256 18.0735 19.9238 17.3516C19.7625 16.9656 19.2567 16.6945 18.8438 16.7734C18.5991 16.8202 18.5796 16.7815 18.4746 16.0527C18.2509 14.5003 17.6267 13.4356 16.5039 12.6875C15.6721 12.1333 14.7357 11.878 13.123 11.7637C11.5955 11.6554 11.0877 11.4801 10.5898 10.8887C10.4353 10.7051 10.2808 10.3726 10.2461 10.1504C10.1014 9.22291 9.9452 8.87105 9.47852 8.42186L9.00586 7.96483L9.2168 7.35155C9.84517 5.52598 9.94583 3.06835 9.39258 3.06835C9.07977 3.06835 8.59014 3.82435 8.24414 4.84179L8.06055 5.3789L7.91992 4.74022C7.73234 3.88783 7.38884 3.10033 7.16797 3.01561ZM6.5 8.99999C6.77614 8.99999 7 9.22385 7 9.49999C7 9.77613 6.77614 9.99999 6.5 9.99999C6.22386 9.99999 6 9.77613 6 9.49999C6 9.22385 6.22386 8.99999 6.5 8.99999Z" fill="url(#paint0_linear_10_16341)"/>
<defs>
<linearGradient id="paint0_linear_10_16341" x1="4" y1="12.0004" x2="20.0005" y2="12.0004" gradientUnits="userSpaceOnUse">
<stop stop-color="#FDFC47"/>
<stop offset="1" stop-color="#24FE41"/>
</linearGradient>
</defs>
</svg>
