<svg width="24" height="24" viewBox="0 0 24 24" fill="none" xmlns="http://www.w3.org/2000/svg">
<path d="M15 4L9.73633 11.1777C9.88872 11.2219 10.0387 11.274 10.1855 11.334C9.66423 11.1229 9.09703 11 8.5 11C7.30699 11.0012 6.16329 11.4761 5.32031 12.3203C5.08256 12.5584 4.87226 12.8224 4.69336 13.1074L6.78711 15.2012L5.39062 17.1055C5.72463 17.7502 6.25089 18.2751 6.89648 18.6074L8.79883 17.2129L10.8945 19.3086C11.1789 19.129 11.4423 18.918 11.6797 18.6797C12.5239 17.8367 12.9988 16.693 13 15.5C13 14.9188 12.8803 14.3674 12.6797 13.8574C12.7343 13.9898 12.7825 14.1247 12.8242 14.2617L20 9L15 4ZM6.91406 4.08594L4.08594 6.91602L7.75781 10.5859L10.5859 7.75781L6.91406 4.08594ZM15.1172 5.53125L18.4688 8.88281L12.4277 13.3145C12.49 13.4278 12.5473 13.5438 12.5996 13.6621C12.1513 12.6642 11.3527 11.8631 10.3574 11.4102C10.4702 11.459 10.581 11.5124 10.6895 11.5703L15.1172 5.53125ZM8.5 12C10.433 12 12 13.567 12 15.5C11.9988 16.4278 11.6293 17.3172 10.9727 17.9727L6.02734 13.0273C6.68281 12.3707 7.57219 12.0012 8.5 12ZM16.2422 13.4141L13.4141 16.2441L17.0859 19.916L19.9141 17.0859L16.2422 13.4141ZM4.74805 17.9805L4 19L5 20L6.01953 19.252C5.51448 18.918 5.08202 18.4855 4.74805 17.9805Z" fill="url(#paint0_linear_10_16370)"/>
<defs>
<linearGradient id="paint0_linear_10_16370" x1="4" y1="12" x2="20" y2="12" gradientUnits="userSpaceOnUse">
<stop stop-color="#FDFC47"/>
<stop offset="1" stop-color="#24FE41"/>
</linearGradient>
</defs>
</svg>
