<svg width="24" height="24" viewBox="0 0 24 24" fill="none" xmlns="http://www.w3.org/2000/svg">
<path d="M14.9316 4C13.8365 4.027 12.8336 3.95835 11.7031 4.25195V4.25C9.80162 5.0465 8.69238 6.81066 8.19336 8.72266C8.1535 8.88126 7.93359 9.51181 7.93359 10.2871V13.1543C7.87545 14.7112 6.76944 15.6635 5.61914 16.5215C5.08341 16.9001 4.52492 17.2296 4 17.6191L4.00391 20C6.97281 19.99 8.28436 19.9794 10.2773 19.9844C11.8816 17.522 12.9471 15.7925 12.9707 13.2324V10.2891C13.0405 9.66476 13.2742 9.00732 13.7812 8.94922C14.6685 8.90122 15.3975 9.15398 15.875 9.45898C16.1407 9.63058 16.7261 10.0059 17.6465 10.0059H19.0137H20V4.99414H18.8594C18.0541 5.05914 17.4228 4.51705 16.6855 4.25195C16.318 4.16095 15.6882 4 14.9316 4Z" fill="url(#paint0_linear_10_16367)"/>
<defs>
<linearGradient id="paint0_linear_10_16367" x1="4" y1="12" x2="20" y2="12" gradientUnits="userSpaceOnUse">
<stop stop-color="#FDFC47"/>
<stop offset="1" stop-color="#24FE41"/>
</linearGradient>
</defs>
</svg>
