<svg width="24" height="24" viewBox="0 0 24 24" fill="none" xmlns="http://www.w3.org/2000/svg">
<path d="M7.52539 4L10.4277 5.2793C9.94558 6.20844 9.3338 7.05562 8.62695 7.81445L4.81836 4.01953H4.01172V4.96875L7.73438 8.67383C7.01354 9.2977 6.22058 9.83666 5.35938 10.2676L4.56836 8.48242V8.47852L4.0293 7.22266L4.01562 10.2461L4.24023 10.752C4.15877 10.7824 4.08233 10.823 4 10.8516V12.1602C4.25343 12.0813 4.49383 11.9748 4.74023 11.8809L6.67578 16.2461C5.81419 16.5851 4.92232 16.8648 4 17.0645V18.334C5.09918 18.1122 6.15758 17.7826 7.17773 17.377L8.3125 19.9395H9.64453L8.29492 16.8926C9.97907 16.0913 11.522 15.0452 12.8828 13.8008L16.3066 17.209C15.1883 18.2499 13.9746 19.1899 12.6699 20H14.8906C15.6969 19.41 16.4555 18.7613 17.1836 18.0801L19.0508 19.9395L19.9395 19.9492L19.9453 19.0938L18.0605 17.2168C18.7463 16.5088 19.4015 15.7712 20 14.9863V12.8379C19.1769 14.0983 18.2303 15.2685 17.1875 16.3457L13.7676 12.9375C15.1006 11.547 16.2212 9.95385 17.0762 8.20508L19.9355 9.46484L19.9395 8.11914L17.5723 7.09375C17.9775 6.10572 18.3108 5.08164 18.543 4.01758H17.2734C17.0648 4.90919 16.7831 5.77049 16.4434 6.60352L12.0391 4.69727C12.1298 4.4703 12.2347 4.25072 12.3125 4.01758H10.9961C10.9716 4.08323 10.9378 4.14391 10.9121 4.20898L10.4316 4H7.52539ZM11.5547 5.77539L15.9473 7.70898C15.1555 9.31835 14.1195 10.784 12.8926 12.0664L9.5 8.68555C10.313 7.81851 11.0076 6.84279 11.5547 5.77539ZM8.60938 9.54492L12.0078 12.9277C10.7545 14.0655 9.33847 15.0245 7.79297 15.7617L5.85938 11.3945C6.85911 10.8983 7.77922 10.2745 8.60938 9.54492Z" fill="url(#paint0_linear_10_16352)"/>
<defs>
<linearGradient id="paint0_linear_10_16352" x1="4" y1="12" x2="20" y2="12" gradientUnits="userSpaceOnUse">
<stop stop-color="#FDFC47"/>
<stop offset="1" stop-color="#24FE41"/>
</linearGradient>
</defs>
</svg>
