<svg width="24" height="24" viewBox="0 0 24 24" fill="none" xmlns="http://www.w3.org/2000/svg">
<path d="M12 4C9.87827 4 7.84344 4.84285 6.34315 6.34315C4.84285 7.84344 4 9.87827 4 12C4.00014 13.6043 4.48261 15.1715 5.38477 16.498C5.31498 16.5754 5.25345 16.6599 5.20117 16.75C5.00231 17.0945 4.94841 17.5038 5.05133 17.8881C5.15425 18.2723 5.40557 18.5999 5.75 18.7988C6.02529 18.9575 6.34387 19.0247 6.65978 18.9906C6.9757 18.9566 7.27265 18.8231 7.50781 18.6094C8.83208 19.5125 10.3971 19.997 12 20C14.1217 20 16.1566 19.1571 17.6569 17.6569C19.1571 16.1566 20 14.1217 20 12C20 9.87827 19.1571 7.84344 17.6569 6.34315C16.1566 4.84285 14.1217 4 12 4ZM12 5C13.8565 5 15.637 5.7375 16.9497 7.05025C18.2625 8.36301 19 10.1435 19 12C19 13.8565 18.2625 15.637 16.9497 16.9497C15.637 18.2625 13.8565 19 12 19C10.562 18.9989 9.15922 18.5549 7.98242 17.7285C8.02844 17.4298 7.98313 17.1241 7.85243 16.8516C7.72174 16.579 7.51175 16.3523 7.25 16.2012C6.95613 16.031 6.61322 15.9656 6.27734 16.0156C5.44922 14.8401 5.00322 13.438 5 12C5 10.1435 5.7375 8.36301 7.05025 7.05025C8.36301 5.7375 10.1435 5 12 5ZM12 7C10.6739 7 9.40215 7.52678 8.46447 8.46447C7.52678 9.40215 7 10.6739 7 12C7 13.3261 7.52678 14.5979 8.46447 15.5355C9.40215 16.4732 10.6739 17 12 17C13.1138 16.9979 14.1951 16.624 15.0723 15.9375C15.3954 16.0336 15.7416 16.0181 16.0548 15.8933C16.3681 15.7686 16.6302 15.542 16.7988 15.25C16.9423 15.001 17.0112 14.716 16.9973 14.429C16.9835 14.1419 16.8875 13.8649 16.7207 13.6309C16.9037 13.1065 16.9981 12.5554 17 12C17 10.6739 16.4732 9.40215 15.5355 8.46447C14.5979 7.52678 13.3261 7 12 7ZM12 8C13.0609 8 14.0783 8.42143 14.8284 9.17157C15.5786 9.92172 16 10.9391 16 12C15.9986 12.3524 15.9507 12.7031 15.8574 13.043C15.542 12.9657 15.2101 12.9928 14.9114 13.1203C14.6127 13.2478 14.3635 13.4687 14.2012 13.75C14.0635 13.9885 13.9942 14.2602 14.0007 14.5355C14.0073 14.8107 14.0895 15.0789 14.2383 15.3105C13.5777 15.7585 12.7982 15.9986 12 16C10.9391 16 9.92172 15.5786 9.17157 14.8284C8.42143 14.0783 8 13.0609 8 12C8 10.9391 8.42143 9.92172 9.17157 9.17157C9.92172 8.42143 10.9391 8 12 8ZM12 10C11.4696 10 10.9609 10.2107 10.5858 10.5858C10.2107 10.9609 10 11.4696 10 12C10 12.5304 10.2107 13.0391 10.5858 13.4142C10.9609 13.7893 11.4696 14 12 14C12.5304 14 13.0391 13.7893 13.4142 13.4142C13.7893 13.0391 14 12.5304 14 12C14 11.4696 13.7893 10.9609 13.4142 10.5858C13.0391 10.2107 12.5304 10 12 10Z" fill="url(#paint0_linear_10_16373)"/>
<defs>
<linearGradient id="paint0_linear_10_16373" x1="4" y1="12" x2="20" y2="12" gradientUnits="userSpaceOnUse">
<stop stop-color="#FDFC47"/>
<stop offset="1" stop-color="#24FE41"/>
</linearGradient>
</defs>
</svg>
