<svg width="24" height="24" viewBox="0 0 24 24" fill="none" xmlns="http://www.w3.org/2000/svg">
<path d="M10 5.99805C6.13401 5.99805 3 8.67597 3 11.9805C3 15.2851 5.13401 17.7461 9 17.7461C5.77832 17.7461 4.16599 14.7344 4.16602 11.9805C4.16599 9.22657 6.77832 6.99414 10 6.99414C11.4561 6.99414 12.7709 7.4666 13.793 8.2207C13.2212 8.04676 12.6134 7.95672 12 7.95508C11.3432 7.95508 10.6929 8.05643 10.0861 8.25334C9.4794 8.45026 8.92812 8.73888 8.4638 9.10271C7.99948 9.46655 7.63122 9.89848 7.38006 10.3738C7.1289 10.8492 6.99975 11.3586 7 11.873V11.8828C7.00106 11.9884 7.00758 12.094 7.01953 12.1992C7.21248 15.4295 10.2585 18 14 18C17.866 18 21 15.2582 21 11.877C21 8.49565 18.866 6 15 6C18.2217 6 19.834 9.0573 19.834 11.875C19.834 14.6927 17.2217 16.9766 14 16.9766C12.3275 16.9766 10.8234 16.3574 9.75977 15.3711C10.4548 15.6451 11.2219 15.7882 12 15.7891C13.3012 15.7879 14.5506 15.3894 15.4827 14.6782C16.4148 13.9671 16.9563 12.9993 16.9922 11.9805H17C17 11.9615 16.9963 11.9428 16.9961 11.9238C16.9975 11.9069 16.9988 11.89 17 11.873C16.9983 11.7393 16.9879 11.6056 16.9688 11.4727C16.6662 8.40666 13.6651 5.99805 10 5.99805Z" fill="url(#paint0_linear_10_16350)"/>
<defs>
<linearGradient id="paint0_linear_10_16350" x1="3" y1="11.999" x2="21" y2="11.999" gradientUnits="userSpaceOnUse">
<stop stop-color="#FDFC47"/>
<stop offset="1" stop-color="#24FE41"/>
</linearGradient>
</defs>
</svg>
