<svg width="24" height="24" viewBox="0 0 24 24" fill="none" xmlns="http://www.w3.org/2000/svg">
<path d="M9 4C8.99832 4.29683 8.97022 4.59292 8.91602 4.88477C8.88696 5.04797 8.8498 5.20963 8.80469 5.36914V5.37109C8.75862 5.53191 8.70452 5.69031 8.64258 5.8457V5.84766C8.16089 7.05297 7.22936 8.02373 6.04492 8.55469C5.89625 8.62197 5.74438 8.68194 5.58984 8.73438C5.58659 8.73568 5.58333 8.73698 5.58008 8.73828C5.57617 8.73959 5.57227 8.74089 5.56836 8.74219C5.41875 8.79165 5.26689 8.83402 5.11328 8.86914C5.10808 8.87045 5.10287 8.87175 5.09766 8.87305C4.73758 8.95579 4.36945 8.99837 4 9V10C4.47666 9.99778 4.95136 9.93877 5.41406 9.82422L6.36523 12.6758C5.59951 12.8873 4.80399 12.9982 4 13V13.6621C5.6837 13.6622 7.33246 13.2478 8.80078 12.4746L9.4707 13.5273L10.0078 14.3691V14.3711C10.2964 14.2045 10.5779 14.026 10.8516 13.8359L10.8477 13.8301C12.9215 12.3835 14.5409 10.2909 15.375 7.77148L17.5293 8.38672L18.2695 8.63477C18.7443 7.15953 18.9975 5.55418 19 4H18C17.9963 5.11636 17.8454 6.26225 17.5742 7.35938L9.88086 5.16016C9.95815 4.77822 9.99805 4.38967 10 4H9ZM9.60938 6.12305L14.418 7.49805C13.6534 9.77741 12.1874 11.6733 10.3125 12.9902L9.66406 11.9707L9.24023 11.3027C9.01424 11.4638 8.78092 11.6144 8.54102 11.7539C8.14637 11.986 7.73337 12.1785 7.31055 12.3477L6.36523 9.51172C7.10586 9.19374 7.77484 8.7298 8.33222 8.14758C8.8896 7.56537 9.32396 6.87682 9.60938 6.12305ZM13.123 11.7891C12.9061 12.0426 12.6787 12.2869 12.4414 12.5215L13.8926 13.8691C11.2786 16.4921 7.7303 17.9969 4 18V19C8.00722 18.9935 11.8162 17.3684 14.6172 14.541L16.8262 16.5938C15.4732 17.9704 13.9077 19.1205 12.1895 20H14.209C15.4243 19.2206 16.5467 18.3052 17.5547 17.2715L17.5645 17.2793C17.7981 17.0412 18.0253 16.797 18.2461 16.5469L18.2402 16.543C18.8844 15.8232 19.4726 15.0553 20 14.2461V12.207C19.3168 13.519 18.4745 14.7418 17.4922 15.8477L15.3125 13.8223L14.5859 13.1484L13.123 11.7891Z" fill="url(#paint0_linear_10_16332)"/>
<defs>
<linearGradient id="paint0_linear_10_16332" x1="4" y1="12" x2="20" y2="12" gradientUnits="userSpaceOnUse">
<stop stop-color="#FDFC47"/>
<stop offset="1" stop-color="#24FE41"/>
</linearGradient>
</defs>
</svg>
