<svg width="24" height="24" viewBox="0 0 24 24" fill="none" xmlns="http://www.w3.org/2000/svg">
<path d="M17.1432 14.3814C18.0703 14.3814 18.7991 14.6142 19.3294 15.0798C19.8638 15.5453 20.1311 16.183 20.1311 16.9927C20.1311 17.9158 19.8375 18.6405 19.2505 19.1668C18.6634 19.6891 17.8497 19.9502 16.8092 19.9502C15.8173 19.9502 15.0501 19.7903 14.5076 19.4704V18.4381C14.8072 18.6162 15.1675 18.7579 15.5885 18.8632C16.0096 18.9684 16.4205 19.021 16.8213 19.021C17.5177 19.021 18.0562 18.8551 18.4367 18.5231C18.8173 18.1911 19.0076 17.7174 19.0076 17.102C19.0076 15.9036 18.2667 15.3044 16.7849 15.3044C16.3072 15.3044 15.8011 15.3652 15.2667 15.4866L14.7201 15.1405L15.0001 11.0001L19.5055 10.9502V12.0001H16.0001L15.7768 14.521C16.2424 14.4279 16.6979 14.3814 17.1432 14.3814Z" fill="url(#paint0_linear_10_16414)"/>
<path d="M4 4V6H5V5H6V4H4ZM9 4V5H11V4H9ZM13 4V5H15V4H13ZM18 4V5H19V6H20V4H18ZM10 8V9H12.293L9 12.293L9.70703 13L13 9.70703V12H14V8H13H10ZM4 9V11H5V9H4ZM4 14V20H10V14H4ZM5 15H9V19H5V15Z" fill="url(#paint1_linear_10_16414)"/>
<defs>
<linearGradient id="paint0_linear_10_16414" x1="14.5076" y1="15.4502" x2="20.1311" y2="15.4502" gradientUnits="userSpaceOnUse">
<stop stop-color="#FDFC47"/>
<stop offset="1" stop-color="#24FE41"/>
</linearGradient>
<linearGradient id="paint1_linear_10_16414" x1="4" y1="12" x2="20" y2="12" gradientUnits="userSpaceOnUse">
<stop stop-color="#FDFC47"/>
<stop offset="1" stop-color="#24FE41"/>
</linearGradient>
</defs>
</svg>
