<svg width="24" height="24" viewBox="0 0 24 24" fill="none" xmlns="http://www.w3.org/2000/svg">
<path d="M7 4L3 8V20H6V19H4V9H8V5H20V8H21V4H7ZM15 8L10.998 12.002H9.00195V13.002H11.4121L15.002 9.41211L17.125 11.5352L17.1309 11.5312L17.1348 11.5352L19.9629 8.70703C19.9659 8.71203 19.2559 8 19.2559 8L17.1309 10.125L15.0039 8L15.002 8.00195L15 8ZM8 10V20H9H20V19.002V19V17.8672L19.959 17.8281L17.1309 15L17.127 15.0039L17.1211 15L14.998 17.123L11.875 14H10.4609H9V10H8ZM9 15H11.4609L14.9961 18.5352L14.998 18.5332L15 18.5352L17.127 16.4102L19.252 18.5352L19.7344 19H9V15Z" fill="url(#paint0_linear_10_16472)"/>
<defs>
<linearGradient id="paint0_linear_10_16472" x1="3" y1="12" x2="21" y2="12" gradientUnits="userSpaceOnUse">
<stop stop-color="#FDFC47"/>
<stop offset="1" stop-color="#24FE41"/>
</linearGradient>
</defs>
</svg>
