<svg width="24" height="24" viewBox="0 0 24 24" fill="none" xmlns="http://www.w3.org/2000/svg">
<path d="M5 4V18H4V19H5V20H6V19H20V18H9V15H13V14V10H16V9V6H20V5H17H15V9H12V10V14H8V15V18H6V4H5Z" fill="url(#paint0_linear_10_16512)"/>
<path d="M19.9961 5C18.3183 5.01472 16.8829 5.92866 15.6309 7.19727C14.3789 8.46587 13.2742 10.1101 12.209 11.7324C11.1437 13.3548 10.1172 14.9567 9.08008 16.123C8.04294 17.2894 7.03471 17.9774 6 17.9785V18.9785C7.46529 18.9769 8.70811 18.0486 9.82812 16.7891C10.9481 15.5296 11.9844 13.8964 13.0449 12.2812C14.1054 10.6662 15.1881 9.06939 16.3418 7.90039C17.4955 6.7314 18.6846 6.01158 20.0039 6L19.9961 5Z" fill="url(#paint1_linear_10_16512)"/>
<defs>
<linearGradient id="paint0_linear_10_16512" x1="4" y1="12" x2="20" y2="12" gradientUnits="userSpaceOnUse">
<stop stop-color="#FDFC47"/>
<stop offset="1" stop-color="#24FE41"/>
</linearGradient>
<linearGradient id="paint1_linear_10_16512" x1="6" y1="11.9893" x2="20.0039" y2="11.9893" gradientUnits="userSpaceOnUse">
<stop stop-color="#FDFC47"/>
<stop offset="1" stop-color="#24FE41"/>
</linearGradient>
</defs>
</svg>
