<svg width="24" height="24" viewBox="0 0 24 24" fill="none" xmlns="http://www.w3.org/2000/svg">
<path d="M4 4V6H5V5H6V4H4ZM9 4V5H11V4H9ZM13 4V5H15V4H13ZM18 4V5H19V6H20V4H18ZM10 8V9H12.293L9 12.293L9.70703 13L13 9.70703V12H14V8H13H10ZM4 9V11H5V9H4ZM4 14V20H10V14H4ZM5 15H9V19H5V15Z" fill="url(#paint0_linear_10_16398)"/>
<path d="M20 20H19V12C18.4915 12.4388 17.4196 13.4235 16.9058 13.8459L16.335 13.1978L19 11H20V20Z" fill="url(#paint1_linear_10_16398)"/>
<defs>
<linearGradient id="paint0_linear_10_16398" x1="4" y1="12" x2="20" y2="12" gradientUnits="userSpaceOnUse">
<stop stop-color="#FDFC47"/>
<stop offset="1" stop-color="#24FE41"/>
</linearGradient>
<linearGradient id="paint1_linear_10_16398" x1="16.335" y1="15.5" x2="20" y2="15.5" gradientUnits="userSpaceOnUse">
<stop stop-color="#FDFC47"/>
<stop offset="1" stop-color="#24FE41"/>
</linearGradient>
</defs>
</svg>
