<svg width="24" height="24" viewBox="0 0 24 24" fill="none" xmlns="http://www.w3.org/2000/svg">
<path d="M5 4V5V6H4V9H5V15H4V18H5V20H6H7V19H6V5H19V7H20V5V4H5ZM14 8C12.4087 8 10.8826 8.21071 9.75736 8.58579C8.63214 8.96086 8 9.46957 8 10V18C8 18.5304 8.63214 19.0391 9.75736 19.4142C10.8826 19.7893 12.4087 20 14 20C15.5913 20 17.1174 19.7893 18.2426 19.4142C19.3679 19.0391 20 18.5304 20 18V10C20 9.46957 19.3679 8.96086 18.2426 8.58579C17.1174 8.21071 15.5913 8 14 8ZM14 9C15.3261 9 16.5979 9.10536 17.5355 9.29289C18.4732 9.48043 19 9.73478 19 10C19 10.2652 18.4732 10.5196 17.5355 10.7071C16.5979 10.8946 15.3261 11 14 11C12.6739 11 11.4021 10.8946 10.4645 10.7071C9.52678 10.5196 9 10.2652 9 10C9 9.73478 9.52678 9.48043 10.4645 9.29289C11.4021 9.10536 12.6739 9 14 9ZM9 11.1016C9.54594 11.3773 10.2883 11.6037 11.1608 11.7605C12.0334 11.9173 13.0088 11.9996 14 12C14.9907 11.9998 15.9658 11.9178 16.8382 11.7614C17.7107 11.6049 18.4534 11.3789 19 11.1035V14C19 14.2652 18.4732 14.5196 17.5355 14.7071C16.5979 14.8946 15.3261 15 14 15C12.6739 15 11.4021 14.8946 10.4645 14.7071C9.52678 14.5196 9 14.2652 9 14V11.1016ZM9 15.1016C9.54594 15.3773 10.2883 15.6037 11.1608 15.7605C12.0334 15.9173 13.0088 15.9996 14 16C14.9907 15.9998 15.9658 15.9178 16.8382 15.7614C17.7107 15.6049 18.4534 15.3789 19 15.1035V18C19 18.2652 18.4732 18.5196 17.5355 18.7071C16.5979 18.8946 15.3261 19 14 19C12.6739 19 11.4021 18.8946 10.4645 18.7071C9.52678 18.5196 9 18.2652 9 18V15.1016Z" fill="url(#paint0_linear_10_16466)"/>
<defs>
<linearGradient id="paint0_linear_10_16466" x1="4" y1="12" x2="20" y2="12" gradientUnits="userSpaceOnUse">
<stop stop-color="#FDFC47"/>
<stop offset="1" stop-color="#24FE41"/>
</linearGradient>
</defs>
</svg>
