<svg width="24" height="24" viewBox="0 0 24 24" fill="none" xmlns="http://www.w3.org/2000/svg">
<path d="M3 4V20H12V19V12H19H20V4H3ZM19 12L18.0039 12.9941H18L13 17.9883L13.0078 17.9902L13.0039 18.9922H13V19.9824H15H15.0059H15.0098H15.0195L15.0137 19.9805L16 18.9941L20 15.002L19.2949 14.293L14.3047 19.2754L13.7109 18.6836L18.7031 13.6992L19.2949 14.293L20 14.9961L21 13.9961L19 12ZM4 5H11V11H4V5ZM12 5H19V11H12V5ZM7.08008 6.00195C6.54021 5.98058 6.01465 6.17854 5.62305 6.55078C4.96242 7.17865 4.80983 8.17373 5.25195 8.9707C5.69452 9.7674 6.61972 10.1641 7.50195 9.93555C8.38387 9.70689 8.9998 8.91108 9 8H7L8.05859 6.30273C7.76404 6.11928 7.42682 6.01563 7.08008 6.00195ZM4 12H11V19H4V12Z" fill="url(#paint0_linear_10_16424)"/>
<defs>
<linearGradient id="paint0_linear_10_16424" x1="3" y1="12" x2="21" y2="12" gradientUnits="userSpaceOnUse">
<stop stop-color="#FDFC47"/>
<stop offset="1" stop-color="#24FE41"/>
</linearGradient>
</defs>
</svg>
