<svg width="24" height="24" viewBox="0 0 24 24" fill="none" xmlns="http://www.w3.org/2000/svg">
<path d="M3 4V5V12V13V20H4V13H12V18V19H21V18V12H13V5H4V4H3ZM4 6H12V12H4V6ZM13 13H20V18H13V13Z" fill="url(#paint0_linear_10_16492)"/>
<path d="M8 4C7.09558 4 6.36306 4.60348 5.76953 5.36523C5.176 6.12699 4.68563 7.09576 4.28125 8.05664C3.4725 9.9784 3.01367 11.8828 3.01367 11.8828L3.98633 12.1172C3.98633 12.1172 4.43373 10.2716 5.20312 8.44336C5.58782 7.52924 6.05447 6.62301 6.55664 5.97852C7.05678 5.33662 7.55613 5.0066 7.99414 5.00391C8.41494 5.01769 8.77712 5.18889 9.15039 5.54688C9.52621 5.9073 9.89027 6.45502 10.2266 7.13477C10.8992 8.49426 11.4611 10.3609 12.0234 12.2363C12.5858 14.1117 13.1473 15.9954 13.8828 17.4512C14.2506 18.179 14.6611 18.806 15.1699 19.2676C15.6772 19.7277 16.3093 20.0155 17.0078 19.998C17.8844 19.9939 18.5504 19.3641 19.0391 18.5957C19.5293 17.8248 19.8954 16.8549 20.1816 15.8926C20.7541 13.9679 20.9961 12.0645 20.9961 12.0645L20.0039 11.9355C20.0039 11.9355 19.7656 13.7821 19.2227 15.6074C18.9512 16.5201 18.5993 17.4252 18.1953 18.0605C17.7913 18.6959 17.3884 19 17 19H16.9922H16.9863C16.5627 19.0117 16.2115 18.8608 15.8418 18.5254C15.4721 18.19 15.1103 17.6629 14.7754 17C14.1055 15.6743 13.5426 13.8239 12.9805 11.9492C12.4183 10.0745 11.8573 8.17551 11.123 6.69141C10.7559 5.94935 10.3456 5.30737 9.8418 4.82422C9.33801 4.34107 8.71537 4.01928 8.01367 4H8.00781H8Z" fill="url(#paint1_linear_10_16492)"/>
<defs>
<linearGradient id="paint0_linear_10_16492" x1="3" y1="12" x2="21" y2="12" gradientUnits="userSpaceOnUse">
<stop stop-color="#FDFC47"/>
<stop offset="1" stop-color="#24FE41"/>
</linearGradient>
<linearGradient id="paint1_linear_10_16492" x1="3.01367" y1="11.9994" x2="20.9961" y2="11.9994" gradientUnits="userSpaceOnUse">
<stop stop-color="#FDFC47"/>
<stop offset="1" stop-color="#24FE41"/>
</linearGradient>
</defs>
</svg>
