<svg width="24" height="24" viewBox="0 0 24 24" fill="none" xmlns="http://www.w3.org/2000/svg">
<path d="M12 4C7.58172 4 4 7.58172 4 12C4 14.0276 4.75669 15.8713 6 17.2812C6.20803 17.5485 6.49881 17.7863 6.71875 18C8.12868 19.2433 9.9724 20 12 20C16.4183 20 20 16.4183 20 12C20 9.9724 19.2433 8.12868 18 6.71875C17.8886 6.59254 17.7752 6.46272 17.6562 6.34375L17.2812 6C15.8713 4.75669 14.0276 4 12 4ZM16.9492 7.05078C17.6466 7.75109 18.1877 8.59113 18.5371 9.51562C18.5381 9.51763 18.54 9.51848 18.541 9.52148C18.5476 9.54099 18.5541 9.56052 18.5605 9.58008C18.8444 10.2649 18.9183 10.9632 18.9844 11.6758C18.9894 11.784 18.998 11.8904 18.998 12V12.043C18.9296 15.5882 16.4052 18.2237 13.0449 18.9141C12.9166 18.9333 12.7887 18.9546 12.6582 18.9668C12.5224 18.9773 12.3862 18.9838 12.25 18.9863C12.1663 18.9893 12.0844 19 12 19C11.9851 19 11.97 18.9961 11.9551 18.9961C11.1327 19.0093 10.3583 18.8034 9.59766 18.5645C9.55206 18.5475 9.50606 18.5317 9.46094 18.5137C9.29014 18.4467 9.12204 18.3731 8.95703 18.293C8.25094 17.9548 7.60658 17.5006 7.05078 16.9492L16.9492 7.05078Z" fill="url(#paint0_linear_10_16530)"/>
<defs>
<linearGradient id="paint0_linear_10_16530" x1="4" y1="12" x2="20" y2="12" gradientUnits="userSpaceOnUse">
<stop stop-color="#FDFC47"/>
<stop offset="1" stop-color="#24FE41"/>
</linearGradient>
</defs>
</svg>
