<svg width="24" height="24" viewBox="0 0 24 24" fill="none" xmlns="http://www.w3.org/2000/svg">
<path d="M8 4C5.23858 4 3 6.23858 3 9C3 14 10 18 12 20C14 18 21 14 21 9C21 6.23858 18.7614 4 16 4C14.3604 4 12.9118 4.78077 12 6C11.0882 4.78077 9.6396 4 8 4ZM8 5C9.32214 5 10.469 5.6232 11.1992 6.59961L12 7.66992L12.8008 6.59961C13.531 5.62321 14.6779 5 16 5C18.221 5 20 6.77902 20 9C20 11.0333 18.4875 13.0935 16.5664 14.8945C14.9029 16.4541 13.2313 17.6256 12 18.7031C10.7687 17.6256 9.09713 16.4541 7.43359 14.8945C5.51246 13.0935 4 11.0333 4 9C4 6.77902 5.77902 5 8 5Z" fill="url(#paint0_linear_10_16553)"/>
<defs>
<linearGradient id="paint0_linear_10_16553" x1="3" y1="12" x2="21" y2="12" gradientUnits="userSpaceOnUse">
<stop stop-color="#FDFC47"/>
<stop offset="1" stop-color="#24FE41"/>
</linearGradient>
</defs>
</svg>
