<svg width="24" height="24" viewBox="0 0 24 24" fill="none" xmlns="http://www.w3.org/2000/svg">
<path d="M4 4V5V6V7L2 10V11V12.4004V13V19V19.4141V20H3H9H15V19H3V18.4141V17V13V12V11.4004V11H3.40039H4H5.07812L12 14.9961L18.9219 11H19H20H21V11.4004V12V13H22V12.4004V10.9863V10L20 7V4H5H4ZM5 5H19V6V9.79883L12 13.8398L5 9.79883V6V5ZM6 6V6.98633L5.98633 7H6H18H18.0137L18 6.98633V6H6ZM6 8V9H13V8H6ZM19.5 13C18.669 13 18 13.669 18 14.5C18 15.331 18.669 16 19.5 16C20.331 16 21 15.331 21 14.5C21 13.669 20.331 13 19.5 13ZM19 17C17.892 17 17 17.892 17 19V20H22V19C22 17.892 21.108 17 20 17H19Z" fill="url(#paint0_linear_10_16570)"/>
<defs>
<linearGradient id="paint0_linear_10_16570" x1="2" y1="12" x2="22" y2="12" gradientUnits="userSpaceOnUse">
<stop stop-color="#FDFC47"/>
<stop offset="1" stop-color="#24FE41"/>
</linearGradient>
</defs>
</svg>
