<svg width="24" height="24" viewBox="0 0 24 24" fill="none" xmlns="http://www.w3.org/2000/svg">
<path d="M2 4V5V13V19V19.4141V20H3H9H12V19H9H3V18.4141L3.46289 17.9512L9.73047 11.6836L11.1836 13.1348L11.998 13.9492H12L12.8164 13.1348L14.2695 11.6836L15.5859 13H17L14.9766 10.9766L20.7285 5.22266L20.9512 5H21V5.22266V11H22V4H21.9512H21H20.5371H3.46289H3H2ZM3 5H3.04883L3.27148 5.22266L9.02344 10.9766L3 17V13V5.22266V5ZM4.46289 5H19.5371L12 12.5371L4.46289 5Z" fill="url(#paint0_linear_10_16613)"/>
<path d="M20 12L19.0039 12.9941L19 12.9902L14 17.9883L14.0078 17.9961L14.0039 19H14V19.9902V20H16L16.0059 19.9941L16.0098 19.9902C16.0138 19.9902 16.0155 19.9922 16.0195 19.9922L16.0137 19.9863L17 19L21 15.0039L20.2949 14.2949L15.3047 19.2812L14.7109 18.6895L19.7031 13.7012L20.2949 14.2949L21 14.998L22 13.998L20 12Z" fill="url(#paint1_linear_10_16613)"/>
<defs>
<linearGradient id="paint0_linear_10_16613" x1="2" y1="12" x2="22" y2="12" gradientUnits="userSpaceOnUse">
<stop stop-color="#FDFC47"/>
<stop offset="1" stop-color="#24FE41"/>
</linearGradient>
<linearGradient id="paint1_linear_10_16613" x1="14" y1="16" x2="22" y2="16" gradientUnits="userSpaceOnUse">
<stop stop-color="#FDFC47"/>
<stop offset="1" stop-color="#24FE41"/>
</linearGradient>
</defs>
</svg>
