<svg width="24" height="24" viewBox="0 0 24 24" fill="none" xmlns="http://www.w3.org/2000/svg">
<path d="M2 4V5V13V19V19.4141V20H3H9H15V19H9H3V18.4141L3.46289 17.9512L9.73047 11.6836L11.1836 13.1348L11.998 13.9492H12L12.8164 13.1348L14.2695 11.6836L15.5859 13H17L14.9766 10.9766L20.7285 5.22266L20.9512 5H21V5.22266V13H22V4H21.9512H21H20.5371H3.46289H3H2ZM3 5H3.04883L3.27148 5.22266L9.02344 10.9766L3 17V13V5.22266V5ZM4.46289 5H19.5371L12 12.5371L4.46289 5ZM19.5 14C18.669 14 18 14.669 18 15.5V17H17V20H22V17H21V15.5C21 14.669 20.331 14 19.5 14ZM19.5 15C19.777 15 20 15.223 20 15.5V17H19V15.5C19 15.223 19.223 15 19.5 15ZM18 18H21V19H18V18Z" fill="url(#paint0_linear_10_16560)"/>
<defs>
<linearGradient id="paint0_linear_10_16560" x1="2" y1="12" x2="22" y2="12" gradientUnits="userSpaceOnUse">
<stop stop-color="#FDFC47"/>
<stop offset="1" stop-color="#24FE41"/>
</linearGradient>
</defs>
</svg>
