<svg width="24" height="24" viewBox="0 0 24 24" fill="none" xmlns="http://www.w3.org/2000/svg">
<path d="M12.1172 3.99985C11.047 3.98445 9.98461 4.18394 8.99291 4.58653C8.00121 4.98911 7.10038 5.5866 6.34376 6.3436C4.84384 7.84385 4.00122 9.87842 4.00122 11.9999C4.00122 14.1213 4.84384 16.1559 6.34376 17.6561C7.844 19.156 9.87857 19.9986 12 19.9986C14.1214 19.9986 16.156 19.156 17.6563 17.6561C19.1562 16.1559 19.9988 14.1213 19.9988 11.9999C19.9988 9.87842 19.1562 7.84385 17.6563 6.3436C16.185 4.87161 14.1981 4.03088 12.1172 3.99985ZM11.8984 4.99985C13.6159 4.97798 15.2814 5.58831 16.5781 6.7147L15.1738 8.11899C14.349 7.35762 13.4398 6.71991 12.5052 6.24743C11.5707 5.77495 10.6319 5.4783 9.75001 5.37681C10.4421 5.13966 11.167 5.01247 11.8984 4.99985ZM8.8711 6.30649C9.69267 6.25987 10.6394 6.46751 11.6194 6.90929C12.5995 7.35106 13.5796 8.01198 14.4649 8.82798L12 11.2928L7.44923 6.74204C7.84224 6.48807 8.32328 6.34071 8.8711 6.30649ZM17.291 7.41587C18.0866 8.33697 18.6282 9.44958 18.8625 10.6439C19.0967 11.8383 19.0156 13.073 18.627 14.2264C18.5199 13.3469 18.2199 12.4122 17.7462 11.4827C17.2726 10.5532 16.6358 9.64953 15.877 8.82993L17.291 7.41587ZM6.74024 7.44712L11.293 11.9999L8.82618 14.4666C7.73267 13.2786 6.92733 11.9301 6.54705 10.6504C6.16678 9.3707 6.23504 8.2388 6.74024 7.44712ZM15.1738 9.53306C16.2673 10.7211 17.0727 12.0696 17.453 13.3493C17.8332 14.629 17.765 15.7609 17.2598 16.5526L12.707 11.9999L15.1738 9.53306ZM5.37305 9.77329C5.48009 10.6528 5.78012 11.5875 6.25379 12.517C6.72746 13.4465 7.36424 14.3502 8.12305 15.1698L6.70899 16.5838C5.91345 15.6627 5.37182 14.5501 5.13754 13.3558C4.90327 12.1615 4.98444 10.9267 5.37305 9.77329ZM12 12.7069L16.5508 17.2577C15.759 17.7617 14.6276 17.8293 13.3488 17.4491C12.07 17.0689 10.7225 16.2642 9.53516 15.1717L12 12.7069ZM8.82618 15.8807C9.65096 16.6421 10.5602 17.2798 11.4948 17.7523C12.4293 18.2248 13.3681 18.5214 14.25 18.6229C13.094 19.0145 11.8557 19.0971 10.6579 18.8624C9.46018 18.6277 8.3446 18.0839 7.42188 17.285L8.82618 15.8807Z" fill="url(#paint0_linear_10_16630)"/>
<defs>
<linearGradient id="paint0_linear_10_16630" x1="4.00122" y1="11.9988" x2="19.9988" y2="11.9988" gradientUnits="userSpaceOnUse">
<stop stop-color="#FDFC47"/>
<stop offset="1" stop-color="#24FE41"/>
</linearGradient>
</defs>
</svg>
