<svg width="24" height="24" viewBox="0 0 24 24" fill="none" xmlns="http://www.w3.org/2000/svg">
<path d="M12 4C7.568 4 4 7.568 4 12H5C5 8.122 8.122 5 12 5C15.878 5 19 8.122 19 12H20C20 7.568 16.432 4 12 4ZM12 6C8.676 6 6 8.676 6 12H9C9 10.338 10.338 9 12 9V6ZM12 10C10.892 10 10 10.892 10 12H11C11 11.446 11.446 11 12 11C12.554 11 13 11.446 13 12H14C14 10.892 13.108 10 12 10ZM13 13L11 14.5L13 16V15H18C18.554 15 19 15.446 19 16H20C20 14.892 19.108 14 18 14H13V13ZM5 14V15H4V16H5V18H4V19H5V20H6V19H8V20H9V19H10V18H9V16H10V15H9V14H8V15H6V14H5ZM6 16H8V18H6V16ZM11 17C11 18.108 11.892 19 13 19H18V20L20 18.5L18 17V18H13C12.446 18 12 17.554 12 17H11Z" fill="url(#paint0_linear_10_16683)"/>
<defs>
<linearGradient id="paint0_linear_10_16683" x1="4" y1="12" x2="20" y2="12" gradientUnits="userSpaceOnUse">
<stop stop-color="#FDFC47"/>
<stop offset="1" stop-color="#24FE41"/>
</linearGradient>
</defs>
</svg>
