<svg width="24" height="24" viewBox="0 0 24 24" fill="none" xmlns="http://www.w3.org/2000/svg">
<path d="M5 4V5H6V7H5V8H8V7H7V5H8V4H5ZM11 4V5H20V4H11ZM11 6V7H17V6H11ZM4 10V11H5V13H4V14H9V13H8V11H9V10H4ZM11 10V11H15V10H11ZM6 11H7V13H6V11ZM11 12V13H13V12H11ZM11 16V17H20V16H11ZM11 18V19H17V18H11ZM18 19V20H20V19H18Z" fill="url(#paint0_linear_10_16696)"/>
<path d="M17.5 10L15 13H20L17.5 10Z" fill="url(#paint1_linear_10_16696)"/>
<defs>
<linearGradient id="paint0_linear_10_16696" x1="4" y1="12" x2="20" y2="12" gradientUnits="userSpaceOnUse">
<stop stop-color="#FDFC47"/>
<stop offset="1" stop-color="#24FE41"/>
</linearGradient>
<linearGradient id="paint1_linear_10_16696" x1="15" y1="11.5" x2="20" y2="11.5" gradientUnits="userSpaceOnUse">
<stop stop-color="#FDFC47"/>
<stop offset="1" stop-color="#24FE41"/>
</linearGradient>
</defs>
</svg>
