<svg width="24" height="24" viewBox="0 0 24 24" fill="none" xmlns="http://www.w3.org/2000/svg">
<path d="M3 4V20H4H21V4H4H3ZM4 5H5V19H4V5ZM6 5H7C7 5.26522 7.10536 5.51957 7.29289 5.70711C7.48043 5.89464 7.73478 6 8 6C8.26522 6 8.51957 5.89464 8.70711 5.70711C8.89464 5.51957 9 5.26522 9 5H13H17C17 5.26522 17.1054 5.51957 17.2929 5.70711C17.4804 5.89464 17.7348 6 18 6C18.2652 6 18.5196 5.89464 18.7071 5.70711C18.8946 5.51957 19 5.26522 19 5H20V12V19H19C19 18.7348 18.8946 18.4804 18.7071 18.2929C18.5196 18.1054 18.2652 18 18 18C17.7348 18 17.4804 18.1054 17.2929 18.2929C17.1054 18.4804 17 18.7348 17 19H13H9C9 18.7348 8.89464 18.4804 8.70711 18.2929C8.51957 18.1054 8.26522 18 8 18C7.73478 18 7.48043 18.1054 7.29289 18.2929C7.10536 18.4804 7 18.7348 7 19H6V12V5ZM6 12C6 13.8565 6.7375 15.637 8.05025 16.9497C9.36301 18.2625 11.1435 19 13 19C14.8565 19 16.637 18.2625 17.9497 16.9497C19.2625 15.637 20 13.8565 20 12C20 10.1435 19.2625 8.36301 17.9497 7.05025C16.637 5.7375 14.8565 5 13 5C11.1435 5 9.36301 5.7375 8.05025 7.05025C6.7375 8.36301 6 10.1435 6 12ZM13 6C14.5913 6 16.1174 6.63214 17.2426 7.75736C18.3679 8.88258 19 10.4087 19 12C19 13.5913 18.3679 15.1174 17.2426 16.2426C16.1174 17.3679 14.5913 18 13 18C11.4087 18 9.88258 17.3679 8.75736 16.2426C7.63214 15.1174 7 13.5913 7 12C7 10.4087 7.63214 8.88258 8.75736 7.75736C9.88258 6.63214 11.4087 6 13 6ZM13 11C12.7348 11 12.4804 11.1054 12.2929 11.2929C12.1054 11.4804 12 11.7348 12 12C12 12.2652 12.1054 12.5196 12.2929 12.7071C12.4804 12.8946 12.7348 13 13 13C13.2652 13 13.5196 12.8946 13.7071 12.7071C13.8946 12.5196 14 12.2652 14 12C14 11.7348 13.8946 11.4804 13.7071 11.2929C13.5196 11.1054 13.2652 11 13 11Z" fill="url(#paint0_linear_10_16642)"/>
<defs>
<linearGradient id="paint0_linear_10_16642" x1="3" y1="12" x2="21" y2="12" gradientUnits="userSpaceOnUse">
<stop stop-color="#FDFC47"/>
<stop offset="1" stop-color="#24FE41"/>
</linearGradient>
</defs>
</svg>
