<svg width="24" height="24" viewBox="0 0 24 24" fill="none" xmlns="http://www.w3.org/2000/svg">
<path d="M3 4V20H4H10V19H9C9 18.4477 8.55228 18 8 18C7.44772 18 7 18.4477 7 19H6V12V5H7C7 5.55228 7.44772 6 8 6C8.55228 6 9 5.55228 9 5H13H17C17 5.55228 17.4477 6 18 6C18.5523 6 19 5.55228 19 5H20V12V13H21V4H4H3ZM20 12C20 8.13401 16.866 5 13 5C9.13401 5 6 8.13401 6 12C6.00315 14.7008 7.55978 17.1589 10 18.3164V17.1895C8.14566 16.1189 7.00239 14.1412 7 12C7 8.68629 9.68629 6 13 6C16.3137 6 19 8.68629 19 12C18.998 12.3353 18.968 12.6698 18.9102 13H19.9219C19.9718 12.669 19.9979 12.3348 20 12ZM4 5H5V19H4V5ZM13 13L11 14.5L13 16V15H18C18.554 15 19 15.446 19 16H20C20 14.892 19.108 14 18 14H13V13ZM11 17C11 18.108 11.892 19 13 19H18V20L20 18.5L18 17V18H13C12.446 18 12 17.554 12 17H11Z" fill="url(#paint0_linear_10_16675)"/>
<defs>
<linearGradient id="paint0_linear_10_16675" x1="3" y1="12" x2="21" y2="12" gradientUnits="userSpaceOnUse">
<stop stop-color="#FDFC47"/>
<stop offset="1" stop-color="#24FE41"/>
</linearGradient>
</defs>
</svg>
