<svg width="24" height="24" viewBox="0 0 24 24" fill="none" xmlns="http://www.w3.org/2000/svg">
<path d="M9 7C7.338 7 6 8.338 6 10C6 11.662 7.338 13 9 13C10.662 13 12 11.662 12 10C12 8.338 10.662 7 9 7ZM9 14C6.22998 14 4 16.23 4 19V20H14V19C14 16.23 11.77 14 9 14ZM9 15C11.216 15 13 16.784 13 19H5C5 16.784 6.78398 15 9 15Z" fill="url(#paint0_linear_10_16703)"/>
<path d="M11 4C10.446 4 10 4.446 10 5C10 5.554 10.446 6 11 6C11.554 6 12 5.554 12 5C12 4.446 11.554 4 11 4ZM15 4C14.446 4 14 4.446 14 5C14 5.554 14.446 6 15 6C15.554 6 16 5.554 16 5C16 4.446 15.554 4 15 4ZM19 4C18.446 4 18 4.446 18 5C18 5.554 18.446 6 19 6C19.554 6 20 5.554 20 5C20 4.446 19.554 4 19 4Z" fill="url(#paint1_linear_10_16703)"/>
<defs>
<linearGradient id="paint0_linear_10_16703" x1="4" y1="13.5" x2="14" y2="13.5" gradientUnits="userSpaceOnUse">
<stop stop-color="#FDFC47"/>
<stop offset="1" stop-color="#24FE41"/>
</linearGradient>
<linearGradient id="paint1_linear_10_16703" x1="10" y1="5" x2="20" y2="5" gradientUnits="userSpaceOnUse">
<stop stop-color="#FDFC47"/>
<stop offset="1" stop-color="#24FE41"/>
</linearGradient>
</defs>
</svg>
