<svg width="24" height="24" viewBox="0 0 24 24" fill="none" xmlns="http://www.w3.org/2000/svg">
<path d="M5 3V7H11H12H13V15H12H11H5V19H14V15V13H21V9H14V7V3H5ZM6 4H13V6H6V4ZM9.5 8C9.223 8 9 8.223 9 8.5C9 8.777 9.223 9 9.5 9C9.777 9 10 8.777 10 8.5C10 8.223 9.777 8 9.5 8ZM14 10H15H16H20V12H16H15H14V10ZM9.5 13C9.223 13 9 13.223 9 13.5C9 13.777 9.223 14 9.5 14C9.777 14 10 13.777 10 13.5C10 13.223 9.777 13 9.5 13ZM6 16H13V18H6V16Z" fill="url(#paint0_linear_10_16711)"/>
<defs>
<linearGradient id="paint0_linear_10_16711" x1="5" y1="11" x2="21" y2="11" gradientUnits="userSpaceOnUse">
<stop stop-color="#FDFC47"/>
<stop offset="1" stop-color="#24FE41"/>
</linearGradient>
</defs>
</svg>
