<svg width="24" height="24" viewBox="0 0 24 24" fill="none" xmlns="http://www.w3.org/2000/svg">
<path d="M19.5001 19.5001C16.0001 12.0001 24.0001 12.0001 19.5001 4.5001C12.0001 9.0001 12.0001 1.0001 4.5001 4.5001C9.0001 12.0001 1.0001 12.0001 4.5001 19.5001C12.0001 16.0001 12.0001 24.0001 19.5001 19.5001Z" fill="url(#paint0_linear_10_16713)"/>
<path d="M9.0311 3.16189C7.7548 2.95768 6.2301 3.14079 4.2889 4.04666C4.22524 4.07614 4.16849 4.11868 4.12235 4.17152C4.0762 4.22436 4.04169 4.28632 4.02106 4.35338C4.00043 4.42043 3.99414 4.49107 4.0026 4.56071C4.01105 4.63035 4.03407 4.69744 4.07015 4.7576C5.16155 6.5766 5.46225 7.8723 5.40605 8.9256C5.34987 9.9789 4.92932 10.8356 4.43339 11.7654C3.93746 12.6953 3.36609 13.6922 3.16189 14.9685C2.95769 16.2448 3.14079 17.7695 4.04666 19.7107C4.10265 19.8308 4.20405 19.9238 4.32856 19.9692C4.45308 20.0147 4.59053 20.0088 4.71072 19.9529C6.51962 19.1088 7.80732 18.9794 8.87482 19.1502C9.94232 19.321 10.8203 19.8121 11.7654 20.3162C12.7105 20.8202 13.7288 21.3372 15.0193 21.406C16.3098 21.4748 17.8265 21.088 19.7576 19.9294C19.8636 19.8656 19.9423 19.7649 19.9784 19.6466C20.0144 19.5283 20.0054 19.4008 19.9529 19.2887C19.1088 17.4798 18.9794 16.1921 19.1502 15.1246C19.321 14.0571 19.8121 13.1791 20.3162 12.234C20.8203 11.2889 21.3372 10.2706 21.406 8.98013C21.4748 7.68963 21.0881 6.17293 19.9294 4.24183C19.8956 4.1853 19.8511 4.13599 19.7982 4.09674C19.7453 4.05748 19.6852 4.02905 19.6214 4.01308C19.5575 3.99711 19.4911 3.99392 19.426 4.00368C19.3608 4.01344 19.2983 4.03596 19.2419 4.06995C17.4229 5.16135 16.1272 5.46205 15.0739 5.40585C14.0206 5.34968 13.1639 4.92912 12.2341 4.43319C11.3042 3.93726 10.3074 3.36609 9.0311 3.16189ZM8.87485 4.15017C9.94235 4.32096 10.8203 4.81211 11.7654 5.31617C12.7106 5.82024 13.7288 6.33717 15.0193 6.40597C16.1856 6.46818 17.581 6.07552 19.2556 5.15987C20.1347 6.74547 20.4574 7.96147 20.406 8.92547C20.3499 9.97877 19.9293 10.8355 19.4334 11.7653C18.9375 12.6951 18.3661 13.6921 18.1619 14.9684C17.9762 16.1287 18.1839 17.5367 18.8904 19.234C17.2767 20.1379 16.0491 20.4579 15.074 20.4059C14.0207 20.3497 13.164 19.9291 12.2342 19.4332C11.3044 18.9373 10.3074 18.3659 9.03111 18.1617C7.88311 17.978 6.48871 18.1875 4.81631 18.8746C4.15766 17.3059 3.99448 16.0984 4.15029 15.1246C4.32108 14.0571 4.81223 13.1791 5.31629 12.234C5.82036 11.2889 6.33729 10.2706 6.40609 8.9801C6.4676 7.8267 6.07561 6.4454 5.18339 4.7965C6.71969 4.16193 7.91425 3.99648 8.87485 4.15017Z" fill="url(#paint1_linear_10_16713)"/>
<path d="M2.5 2.5H6.5V6.5H2.5V2.5Z" fill="white"/>
<path d="M2.5 2C2.3674 2.00001 2.24023 2.0527 2.14646 2.14646C2.0527 2.24023 2.00001 2.3674 2 2.5V6.5C2.00001 6.6326 2.0527 6.75977 2.14646 6.85354C2.24023 6.9473 2.3674 6.99999 2.5 7H6.5C6.6326 6.99999 6.75977 6.9473 6.85354 6.85354C6.9473 6.75977 6.99999 6.6326 7 6.5V2.5C6.99999 2.3674 6.9473 2.24023 6.85354 2.14646C6.75977 2.0527 6.6326 2.00001 6.5 2H2.5ZM3 3H6V6H3V3Z" fill="url(#paint2_linear_10_16713)"/>
<path d="M17.49 17.5H21.4999V21.5036H17.49V17.5Z" fill="white"/>
<path d="M17.49 17C17.4243 16.9999 17.3592 17.0127 17.2985 17.0378C17.2378 17.0629 17.1826 17.0997 17.1362 17.1462C17.0897 17.1927 17.0529 17.2478 17.0278 17.3085C17.0027 17.3692 16.9899 17.4343 16.99 17.5V21.5039C16.9903 21.6362 17.0431 21.763 17.1369 21.8564C17.2306 21.9498 17.3577 22.0022 17.49 22.0019H21.4998C21.6321 22.0022 21.7591 21.9498 21.8529 21.8564C21.9467 21.763 21.9995 21.6362 21.9998 21.5039V17.5C21.9999 17.4343 21.987 17.3692 21.962 17.3085C21.9369 17.2478 21.9 17.1927 21.8536 17.1462C21.8071 17.0997 21.752 17.0629 21.6913 17.0378C21.6306 17.0127 21.5655 16.9999 21.4998 17H17.49ZM17.988 18H20.9997V21.0039H17.988V18Z" fill="url(#paint3_linear_10_16713)"/>
<path d="M17.5 2.5H21.5099V6.5036H17.5V2.5Z" fill="white"/>
<path d="M17.5 2C17.4343 1.99989 17.3692 2.01275 17.3085 2.03784C17.2478 2.06292 17.1927 2.09975 17.1462 2.1462C17.0997 2.19265 17.0629 2.24782 17.0378 2.30853C17.0127 2.36924 16.9999 2.43431 17 2.5V6.5039C17.0003 6.63624 17.0531 6.76304 17.1469 6.85644C17.2406 6.94983 17.3677 7.00217 17.5 7.00195H21.5098C21.6421 7.00217 21.7692 6.94983 21.8629 6.85644C21.9567 6.76304 22.0095 6.63624 22.0098 6.5039V2.5C22.0099 2.43431 21.9971 2.36924 21.972 2.30853C21.9469 2.24782 21.9101 2.19265 21.8636 2.1462C21.8171 2.09975 21.762 2.06292 21.7013 2.03784C21.6406 2.01275 21.5755 1.99989 21.5098 2H17.5ZM18 3H21.0117V6.0039H18V3Z" fill="url(#paint4_linear_10_16713)"/>
<path d="M2.5 17.5H6.5099V21.5036H2.5V17.5Z" fill="white"/>
<path d="M2.5 17C2.43431 16.9999 2.36924 17.0127 2.30853 17.0378C2.24782 17.0629 2.19265 17.0997 2.1462 17.1462C2.09975 17.1927 2.06292 17.2478 2.03784 17.3085C2.01275 17.3692 1.99989 17.4343 2 17.5V21.5039C2.00029 21.6362 2.05313 21.763 2.14689 21.8564C2.24065 21.9498 2.36766 22.0022 2.5 22.0019H6.5098C6.64214 22.0022 6.76915 21.9498 6.86291 21.8564C6.95667 21.763 7.00951 21.6362 7.0098 21.5039V17.5C7.00991 17.4343 6.99705 17.3692 6.97197 17.3085C6.94688 17.2478 6.91005 17.1927 6.8636 17.1462C6.81715 17.0997 6.76199 17.0629 6.70127 17.0378C6.64056 17.0127 6.57549 16.9999 6.5098 17H2.5ZM3 18H6.0117V21.0039H3V18Z" fill="url(#paint5_linear_10_16713)"/>
<defs>
<linearGradient id="paint0_linear_10_16713" x1="4.50011" y1="4.5001" x2="19.0006" y2="19.5031" gradientUnits="userSpaceOnUse">
<stop stop-color="#ECECEC"/>
<stop offset="1" stop-color="#666666"/>
</linearGradient>
<linearGradient id="paint1_linear_10_16713" x1="3.08643" y1="12.25" x2="21.4137" y2="12.25" gradientUnits="userSpaceOnUse">
<stop stop-color="#FDFC47"/>
<stop offset="1" stop-color="#24FE41"/>
</linearGradient>
<linearGradient id="paint2_linear_10_16713" x1="2" y1="4.5" x2="7" y2="4.5" gradientUnits="userSpaceOnUse">
<stop stop-color="#FDFC47"/>
<stop offset="1" stop-color="#24FE41"/>
</linearGradient>
<linearGradient id="paint3_linear_10_16713" x1="16.99" y1="19.501" x2="21.9998" y2="19.501" gradientUnits="userSpaceOnUse">
<stop stop-color="#FDFC47"/>
<stop offset="1" stop-color="#24FE41"/>
</linearGradient>
<linearGradient id="paint4_linear_10_16713" x1="17" y1="4.50098" x2="22.0098" y2="4.50098" gradientUnits="userSpaceOnUse">
<stop stop-color="#FDFC47"/>
<stop offset="1" stop-color="#24FE41"/>
</linearGradient>
<linearGradient id="paint5_linear_10_16713" x1="2" y1="19.501" x2="7.0098" y2="19.501" gradientUnits="userSpaceOnUse">
<stop stop-color="#FDFC47"/>
<stop offset="1" stop-color="#24FE41"/>
</linearGradient>
</defs>
</svg>
