<svg width="24" height="24" viewBox="0 0 24 24" fill="none" xmlns="http://www.w3.org/2000/svg">
<path d="M13.0129 4.00849V6.00849H4.01294V7.00849H13.0129V8.78579C12.8967 8.72239 12.7744 8.6707 12.6479 8.63149L12.6401 8.62954C12.1333 8.47683 11.5865 8.53155 11.12 8.78167C10.6534 9.0318 10.3052 9.45687 10.1518 9.96354C10.1478 9.97847 10.1439 9.99344 10.1401 10.0085H4.01312V11.0085H10.1244C10.2055 11.3469 10.3736 11.6583 10.612 11.9118C10.8504 12.1653 11.151 12.3521 11.4838 12.4538C11.5848 12.484 11.688 12.5062 11.7924 12.5202C11.4139 12.572 11.0581 12.7312 10.7673 12.9791C10.4765 13.2269 10.2629 13.553 10.1518 13.9186C10.1433 13.9483 10.1355 13.9783 10.1284 14.0084H4.01317V15.0084H10.1343C10.2216 15.3371 10.3914 15.6381 10.6276 15.8828C10.8637 16.1275 11.1585 16.3079 11.4839 16.4068C11.5842 16.437 11.6867 16.4592 11.7905 16.4732C11.4123 16.5254 11.0569 16.6848 10.7665 16.9326C10.4761 17.1804 10.2628 17.5063 10.1518 17.8716C10.1385 17.9168 10.1268 17.9624 10.1167 18.0083H4.01316V19.0083H10.146C10.2388 19.3274 10.4098 19.6183 10.6434 19.8546C10.877 20.091 11.1659 20.2653 11.4839 20.3618C11.9907 20.5159 12.538 20.4623 13.0054 20.2129C13.4728 19.9634 13.8219 19.5386 13.9761 19.0317C13.9781 19.0239 13.98 19.0161 13.982 19.0083H20.0132V18.0083H14.0132V15.0083H20.0132V14.0083H14.0132V11.0083H20.0132V10.0083H14.0132V7.0083H20.0132V6.0083H14.0132V4.0083L13.0129 4.00849ZM12.0696 9.56119C12.1561 9.5622 12.2422 9.57468 12.3254 9.5983L12.3508 9.60416C12.5982 9.67981 12.8055 9.85018 12.9277 10.0781C13.05 10.3061 13.0771 10.5731 13.0032 10.821C12.9295 11.0692 12.7606 11.2782 12.5333 11.4023C12.3061 11.5263 12.0389 11.5554 11.7903 11.4831C11.5418 11.4106 11.3321 11.2428 11.207 11.0163C11.0818 10.7898 11.0514 10.523 11.1223 10.2741C11.1806 10.0681 11.3048 9.88682 11.4759 9.75808C11.6469 9.62934 11.8555 9.56019 12.0696 9.56119ZM13.0129 12.2975V12.7389C12.8966 12.6755 12.7743 12.6238 12.6477 12.5846L12.6399 12.5827C12.5415 12.5535 12.4409 12.5319 12.3391 12.5182C12.5751 12.4854 12.8033 12.4106 13.0129 12.2975ZM12.0696 13.5163C12.156 13.5167 12.2421 13.5285 12.3254 13.5514L12.3508 13.5593C12.5982 13.6349 12.8055 13.8053 12.9277 14.0332C13.05 14.2612 13.0771 14.5282 13.0032 14.7761C12.9291 15.0239 12.76 15.2325 12.5328 15.3562C12.3056 15.4798 12.0386 15.5086 11.7903 15.4362C11.5418 15.3638 11.3321 15.196 11.207 14.9695C11.0818 14.7429 11.0514 14.4761 11.1223 14.2272C11.181 14.0216 11.3053 13.8408 11.4763 13.7124C11.6474 13.584 11.8557 13.5152 12.0696 13.5163ZM13.0129 16.2526V16.694C12.8966 16.6306 12.7743 16.5789 12.6477 16.5397L12.6399 16.5378C12.5408 16.5085 12.4396 16.4869 12.3372 16.4733C12.5738 16.4407 12.8027 16.366 13.0129 16.2526ZM12.0699 17.4709C12.1564 17.4713 12.2424 17.4831 12.3258 17.5061L12.3512 17.512C12.599 17.5876 12.8067 17.7583 12.929 17.9867C13.0512 18.2151 13.078 18.4826 13.0035 18.7308C12.9295 18.9786 12.7604 19.1872 12.5332 19.3109C12.3059 19.4345 12.039 19.4633 11.7906 19.3909C11.5422 19.3185 11.3325 19.1507 11.2073 18.9242C11.0822 18.6976 11.0517 18.4308 11.1227 18.1819C11.1813 17.9763 11.3057 17.7955 11.4767 17.6671C11.6477 17.5387 11.8561 17.4698 12.0699 17.4709Z" fill="url(#paint0_linear_10_16730)"/>
<defs>
<linearGradient id="paint0_linear_10_16730" x1="4.01294" y1="12.2282" x2="20.0132" y2="12.2282" gradientUnits="userSpaceOnUse">
<stop stop-color="#FDFC47"/>
<stop offset="1" stop-color="#24FE41"/>
</linearGradient>
</defs>
</svg>
