<svg width="24" height="24" viewBox="0 0 24 24" fill="none" xmlns="http://www.w3.org/2000/svg">
<path d="M9.00001 5V15H10V7H17V15H18V5H9.00001ZM6.08591 15.301L5.37891 16.008L6.79301 17.422L5.37891 18.836L6.08591 19.543L7.50001 18.129L8.91411 19.543L9.62111 18.836L8.20701 17.422L9.62111 16.008L8.91411 15.301L7.50001 16.715L6.08591 15.301ZM14.086 15.301L13.379 16.008L14.793 17.422L13.379 18.836L14.086 19.543L15.5 18.129L16.914 19.543L17.621 18.836L16.207 17.422L17.621 16.008L16.914 15.301L15.5 16.715L14.086 15.301Z" fill="url(#paint0_linear_10_16738)"/>
<defs>
<linearGradient id="paint0_linear_10_16738" x1="5.37891" y1="12.2715" x2="18" y2="12.2715" gradientUnits="userSpaceOnUse">
<stop stop-color="#FDFC47"/>
<stop offset="1" stop-color="#24FE41"/>
</linearGradient>
</defs>
</svg>
