<svg width="24" height="24" viewBox="0 0 24 24" fill="none" xmlns="http://www.w3.org/2000/svg">
<path d="M4 4V5H11V4H4ZM13 4V5H20V4H13ZM4 7V8H11V7H4ZM13 7V8H20V7H13ZM4 10V11H11V10H4ZM13 10V11H20V10H13ZM4 14V15H11V14H4ZM4 18V19H11V18H4Z" fill="url(#paint0_linear_10_16762)"/>
<path d="M13.5 13L11.5 14.5L13.5 16V15H14.5C15.3284 15 16 15.6716 16 16.5C16 17.8807 17.1193 19 18.5 19H20.5312V18H18.5C17.6716 18 17 17.3284 17 16.5C17 15.1193 15.8807 14 14.5 14H13.5V13ZM19.5312 13V14H18.5312C18.0372 14 17.5792 14.1491 17.1914 14.3965C17.465 14.5996 17.6821 14.8691 17.8223 15.1797C17.8242 15.1803 17.8262 15.181 17.8281 15.1816C18.0387 15.0688 18.2756 15 18.5312 15H19.5312V16L21.5312 14.5L19.5312 13ZM15.1895 17.8418C14.9899 17.94 14.7687 18 14.5312 18H12.5V19H14.5312C15.0126 19 15.4604 18.8633 15.8398 18.627C15.5589 18.4258 15.3348 18.1553 15.1895 17.8418Z" fill="url(#paint1_linear_10_16762)"/>
<defs>
<linearGradient id="paint0_linear_10_16762" x1="4" y1="11.5" x2="20" y2="11.5" gradientUnits="userSpaceOnUse">
<stop stop-color="#FDFC47"/>
<stop offset="1" stop-color="#24FE41"/>
</linearGradient>
<linearGradient id="paint1_linear_10_16762" x1="11.5" y1="16" x2="21.5312" y2="16" gradientUnits="userSpaceOnUse">
<stop stop-color="#FDFC47"/>
<stop offset="1" stop-color="#24FE41"/>
</linearGradient>
</defs>
</svg>
