<svg width="24" height="24" viewBox="0 0 24 24" fill="none" xmlns="http://www.w3.org/2000/svg">
<path d="M4 4V5H10V4H4ZM17 4V7H18V17.0918C17.5755 17.2421 17.2433 17.5773 17.0918 18H7V17H4V20H7V19H17.0918C17.2978 19.5819 17.8458 20 18.5 20C19.331 20 20 19.331 20 18.5C20 17.8458 19.5819 17.2978 19 17.0918V7H20V4H17ZM11 5L9.14648 8.95117L5 9.58398L8 12.6582L7.29297 17L11 14.9512L14.707 17L14 12.6582L17 9.58398L12.8535 8.95117L11 5ZM18 5H19V6H18V5ZM4 6V7H9V6H4ZM4 8V9H7.24609V8H4ZM4 12V13H6V12H4ZM4 14V15H7V14H4ZM5 18H6V19H5V18ZM18.5 18C18.777 18 19 18.223 19 18.5C19 18.777 18.777 19 18.5 19C18.223 19 18 18.777 18 18.5C18 18.223 18.223 18 18.5 18Z" fill="url(#paint0_linear_10_16766)"/>
<defs>
<linearGradient id="paint0_linear_10_16766" x1="4" y1="12" x2="20" y2="12" gradientUnits="userSpaceOnUse">
<stop stop-color="#FDFC47"/>
<stop offset="1" stop-color="#24FE41"/>
</linearGradient>
</defs>
</svg>
