<svg width="24" height="24" viewBox="0 0 24 24" fill="none" xmlns="http://www.w3.org/2000/svg">
<path d="M12 4V5V8V9V13V15.6406C11.4507 15.2292 10.7386 15.0011 10 15C8.34315 15 7 16.1193 7 17.5C7 18.8807 8.34315 20 10 20C11.6569 20 13 18.8807 13 17.5V13V9.0957C14.4739 9.34766 16.1809 10.4772 17 11.2443V10.5V10V9.84375V6.5V5.84375C15.7885 4.84729 13.9712 4 12 4ZM13 5.0957C14.1328 5.28934 15.1947 5.77575 16 6.3418V9.14648C15.1378 8.63414 14.108 8.23782 13 8.08008V5.0957ZM10 16C11.1046 16 12 16.6716 12 17.5C12 18.3284 11.1046 19 10 19C8.89543 19 8 18.3284 8 17.5C8 16.6716 8.89543 16 10 16Z" fill="url(#paint0_linear_10_16769)"/>
<defs>
<linearGradient id="paint0_linear_10_16769" x1="7" y1="12" x2="17" y2="12" gradientUnits="userSpaceOnUse">
<stop stop-color="#FDFC47"/>
<stop offset="1" stop-color="#24FE41"/>
</linearGradient>
</defs>
</svg>
