<svg width="24" height="24" viewBox="0 0 24 24" fill="none" xmlns="http://www.w3.org/2000/svg">
<path d="M5 4V18H4V19H5V20H6V19H13V18H6V4H5ZM11.5 4C10.5278 4 9.62 4.34094 8.98047 4.98047C8.34094 5.62 8 6.52778 8 7.5H10C10 6.97222 10.1591 6.63 10.3945 6.39453C10.63 6.15906 10.9722 6 11.5 6C12.0278 6 12.37 6.15906 12.6055 6.39453C12.8409 6.63 13 6.97222 13 7.5C13 7.95834 12.9096 8.15332 12.7891 8.32617C12.2678 8.85208 11.6373 9.30172 11.1309 9.73242C10.5592 10.1617 10 10.7244 10 11.5V12H12V11.5C12.7108 10.7723 13.7703 10.1378 14.4297 9.4707C14.7778 8.97167 15 8.29167 15 7.5C15 6.52778 14.6591 5.62 14.0195 4.98047C13.38 4.34094 12.4722 4 11.5 4ZM18 4V13H19V4H18ZM16.707 13L16 13.707L18.293 16H14V17H18.293L16 19.293L16.707 20L20 16.707L20.207 16.5L20 16.293L16.707 13ZM10 14V16H12V14H10Z" fill="url(#paint0_linear_10_16784)"/>
<defs>
<linearGradient id="paint0_linear_10_16784" x1="4" y1="12" x2="20.207" y2="12" gradientUnits="userSpaceOnUse">
<stop stop-color="#FDFC47"/>
<stop offset="1" stop-color="#24FE41"/>
</linearGradient>
</defs>
</svg>
