<svg width="24" height="24" viewBox="0 0 24 24" fill="none" xmlns="http://www.w3.org/2000/svg">
<path d="M7 4L6.90625 4.09375L4 7V7.90625V19.3125V20H4.6875H16.125H16.9688L17 19.9688L19.9062 17.0625L19.9688 17L20 16.9688V16.4375V4.6875V4H19.3125H7.53125H7ZM8 5H18.3125L16.375 6.9375L16.3125 7H8V5ZM7 5.375V7H5.375L7 5.375ZM19 5.6875V16H17V7.6875L17.0625 7.625L19 5.6875ZM5 8H7V16.2812L6.65625 16.6562L5 18.3125V8ZM8 8H16V16H8V8ZM7.71875 17H16V19H5.6875L7.34375 17.3438L7.71875 17ZM17 17H18.5938L17 18.5938V17Z" fill="url(#paint0_linear_10_16814)"/>
<defs>
<linearGradient id="paint0_linear_10_16814" x1="4" y1="12" x2="20" y2="12" gradientUnits="userSpaceOnUse">
<stop stop-color="#FDFC47"/>
<stop offset="1" stop-color="#24FE41"/>
</linearGradient>
</defs>
</svg>
