<svg width="24" height="24" viewBox="0 0 24 24" fill="none" xmlns="http://www.w3.org/2000/svg">
<path d="M2.00195 4L2 4.00195V4.99805L2.00195 5H2.99805L3 4.99805V5.00391C7.31303 5.75402 10.6245 11.1668 10.9648 17.793L11.8945 16.8633C11.2715 10.0999 7.64491 4.70025 3 4H2.99805H2.00195ZM11 4V7H12V8H13V7H14V4H11ZM21 4C20.995 11.0646 17.6064 16.9992 13.1113 17.8691L13.4141 18.1719L13 18.5859V18.9258C18.1101 18.1554 22.0003 11.7038 22 4H21ZM12 5H13V6H12V5ZM12 9V10H13V9H12ZM12 11V12H13V11H12ZM19 17V18H18V19H19V20H22V17H19ZM16 18V19H17V18H16ZM20 18H21V19H20V18ZM10.9902 18.5762C10.9922 18.6881 11 18.7976 11 18.9102H11.3242L10.9902 18.5762Z" fill="url(#paint0_linear_10_16805)"/>
<path d="M12 15.3438L9.17188 18.1719L12 21L14.8281 18.1719L12 15.3438ZM12 16.7578L13.4141 18.1719L12 19.5859L10.5859 18.1719L12 16.7578Z" fill="url(#paint1_linear_10_16805)"/>
<defs>
<linearGradient id="paint0_linear_10_16805" x1="2" y1="12" x2="22" y2="12" gradientUnits="userSpaceOnUse">
<stop stop-color="#FDFC47"/>
<stop offset="1" stop-color="#24FE41"/>
</linearGradient>
<linearGradient id="paint1_linear_10_16805" x1="9.17188" y1="18.1719" x2="14.8281" y2="18.1719" gradientUnits="userSpaceOnUse">
<stop stop-color="#FDFC47"/>
<stop offset="1" stop-color="#24FE41"/>
</linearGradient>
</defs>
</svg>
