<svg width="24" height="24" viewBox="0 0 24 24" fill="none" xmlns="http://www.w3.org/2000/svg">
<path d="M10.5996 4L9.89258 4.70703L12.1855 7H9.90039H9V8H9.90039H12.1855L9.89258 10.293L10.5996 11L13.8926 7.70703L14.0996 7.5L13.8926 7.29297L10.5996 4ZM7.5 7C7.223 7 7 7.223 7 7.5C7 7.777 7.223 8 7.5 8C7.777 8 8 7.777 8 7.5C8 7.223 7.777 7 7.5 7ZM4.5 9C4.223 9 4 9.223 4 9.5C4 9.777 4.223 10 4.5 10C4.777 10 5 9.777 5 9.5C5 9.223 4.777 9 4.5 9ZM16.0508 9L10 15.0508L14.9492 20L21 13.9492L16.0508 9ZM16.0508 10.4141L19.5859 13.9492L14.8086 18.7266L11.2734 15.1914L16.0508 10.4141ZM3.5 12C3.223 12 3 12.223 3 12.5C3 12.777 3.223 13 3.5 13C3.777 13 4 12.777 4 12.5C4 12.223 3.777 12 3.5 12ZM4.5 15C4.223 15 4 15.223 4 15.5C4 15.777 4.223 16 4.5 16C4.777 16 5 15.777 5 15.5C5 15.223 4.777 15 4.5 15ZM7.5 17C7.223 17 7 17.223 7 17.5C7 17.777 7.223 18 7.5 18C7.777 18 8 17.777 8 17.5C8 17.223 7.777 17 7.5 17Z" fill="url(#paint0_linear_10_16848)"/>
<defs>
<linearGradient id="paint0_linear_10_16848" x1="3" y1="12" x2="21" y2="12" gradientUnits="userSpaceOnUse">
<stop stop-color="#FDFC47"/>
<stop offset="1" stop-color="#24FE41"/>
</linearGradient>
</defs>
</svg>
