<svg width="24" height="24" viewBox="0 0 24 24" fill="none" xmlns="http://www.w3.org/2000/svg">
<path d="M11 4.06836C7.04433 4.55842 4 7.90746 4 12C4 16.0925 7.04433 19.4416 11 19.9316V18.9219C7.60064 18.4381 5 15.5372 5 12C5 8.46279 7.60064 5.56194 11 5.07812V4.06836ZM13 4.06836V5.07812C16.3994 5.56194 19 8.46279 19 12C19 15.5372 16.3994 18.4381 13 18.9219V19.9316C16.9557 19.4416 20 16.0925 20 12C20 7.90746 16.9557 4.55842 13 4.06836ZM12 6C8.676 6 6 8.676 6 12C6 15.324 8.676 18 12 18C15.324 18 18 15.324 18 12C18 11.1182 17.8075 10.284 17.4688 9.53125L16.6875 10.3125C16.8772 10.8418 17 11.4039 17 12C17 14.77 14.77 17 12 17C9.23 17 7 14.77 7 12C7 9.23 9.23 7 12 7C13.6416 7 15.0797 7.79514 15.9902 9.00977L16.7129 8.28711C15.616 6.89471 13.9181 6 12 6ZM12 8C10.892 8 9.89292 8.44692 9.16992 9.16992L9.87695 9.87695C10.4192 9.3347 11.169 9 12 9C13.662 9 15 10.338 15 12C15 13.662 13.662 15 12 15C10.338 15 9 13.662 9 12C9 11.6981 9.05648 11.4131 9.13867 11.1387L8.35742 10.3574C8.13183 10.859 8 11.4125 8 12C8 14.216 9.784 16 12 16C14.216 16 16 14.216 16 12C16 9.784 14.216 8 12 8Z" fill="url(#paint0_linear_10_16887)"/>
<defs>
<linearGradient id="paint0_linear_10_16887" x1="4" y1="12" x2="20" y2="12" gradientUnits="userSpaceOnUse">
<stop stop-color="#FDFC47"/>
<stop offset="1" stop-color="#24FE41"/>
</linearGradient>
</defs>
</svg>
