<svg width="24" height="24" viewBox="0 0 24 24" fill="none" xmlns="http://www.w3.org/2000/svg">
<path d="M5 4V10V11V16V17V18H4V19H5V20H6V19H19.293H20V18.293V18H19.707H18.293H6V16.4316V16.4238V16V13.4238V12.4238V12V11V10V7V6.99219V6V4H5ZM18 4V5H19V4H18ZM19 5V6H20V5H19ZM19 6H18V7H19V6ZM18 6V5H17V6H18ZM7 5V6H8V5H7ZM9 5V6H10V5H9ZM7 7V8H8V7H7ZM9 7V8H10V7H9ZM12 8V9H13V8H12ZM14 8V9H15V8H14ZM12 10V11H13V10H12ZM14 10V11H15V10H14ZM8 14V15H9V14H8ZM9 15V16H10V15H9ZM9 16H8V17H9V16ZM8 16V15H7V16H8Z" fill="url(#paint0_linear_10_16889)"/>
<defs>
<linearGradient id="paint0_linear_10_16889" x1="4" y1="12" x2="20" y2="12" gradientUnits="userSpaceOnUse">
<stop stop-color="#FDFC47"/>
<stop offset="1" stop-color="#24FE41"/>
</linearGradient>
</defs>
</svg>
