<svg width="24" height="24" viewBox="0 0 24 24" fill="none" xmlns="http://www.w3.org/2000/svg">
<path d="M5 4V16V17V18H4V19H5V20H6V19H20V18H6V17H6.00781H7H9V16.9922L9.00781 17L11.0078 15H12.5996L14.5996 17H18.0996H20V16H18.0996H15.0137L13.0137 14H13H12.0078H11.5996H10.5938L8.59375 16H7H6.00781H6V12H11V11.9922L11.0078 12L12.0039 11.0039L12 11L11.2969 10.2969L10.5938 11H6V4H5ZM12 11H14V10H13V9H12V11ZM12 5V7H13V6H14V5H12ZM16 5V6H17V7H18V5H16ZM15 6.59375L14.293 7.30078L13.2969 8.29688L14.0039 9.00391L15 8.00781L15.9961 9.00391L16.7031 8.29688L15 6.59375ZM17 9V10H16V11H18V9H17ZM20 9L19 10H20V9Z" fill="url(#paint0_linear_10_16857)"/>
<path d="M15 8L13.0039 10H14V11H12.0059L11.0078 12H6V16H8.59961L10.5996 14H13.0078L15 15.9922L20 16V10H18V11H16V10H17L15 8ZM11 15L9 17H6V18H20V17H14.5996L12.5996 15H11Z" fill="url(#paint1_linear_10_16857)" fill-opacity="0.5"/>
<defs>
<linearGradient id="paint0_linear_10_16857" x1="4" y1="12" x2="20" y2="12" gradientUnits="userSpaceOnUse">
<stop stop-color="#FDFC47"/>
<stop offset="1" stop-color="#24FE41"/>
</linearGradient>
<linearGradient id="paint1_linear_10_16857" x1="6" y1="13" x2="20" y2="13" gradientUnits="userSpaceOnUse">
<stop stop-color="#FDFC47"/>
<stop offset="1" stop-color="#24FE41"/>
</linearGradient>
</defs>
</svg>
