<svg width="24" height="24" viewBox="0 0 24 24" fill="none" xmlns="http://www.w3.org/2000/svg">
<path d="M12 4C7.568 4 4 7.568 4 12C4 16.432 7.568 20 12 20C16.432 20 20 16.432 20 12C20 7.568 16.432 4 12 4ZM12 5C13.3659 5 14.634 5.3932 15.709 6.06445L13.0586 10.3066C13.5781 10.6315 13.9289 11.1879 13.9824 11.834L18.9707 11.418C18.9865 11.6106 19 11.8032 19 12C19 15.878 15.878 19 12 19C8.122 19 5 15.878 5 12C5 8.122 8.122 5 12 5ZM12 6C10.0986 6 8.41221 6.87831 7.31445 8.25L10.4434 10.7539C10.8093 10.2971 11.3665 10 12 10V9.5V7.5V6ZM10.584 13.416L8.46094 15.5391C9.36469 16.4428 10.615 17 12 17V15.5V14C11.446 14 10.9455 13.7775 10.584 13.416Z" fill="url(#paint0_linear_10_16883)"/>
<defs>
<linearGradient id="paint0_linear_10_16883" x1="4" y1="12" x2="20" y2="12" gradientUnits="userSpaceOnUse">
<stop stop-color="#FDFC47"/>
<stop offset="1" stop-color="#24FE41"/>
</linearGradient>
</defs>
</svg>
