<svg width="24" height="24" viewBox="0 0 24 24" fill="none" xmlns="http://www.w3.org/2000/svg">
<path d="M19.5132 4.00747C18.9297 3.93391 17.8628 4.40521 16.5006 5.33816C15.1384 6.27112 13.5687 7.60574 12.0685 9.10641C10.6874 10.4884 9.44384 11.9325 8.52582 13.2207C9.60179 13.5635 10.4405 14.4023 10.7831 15.4787C12.0708 14.5604 13.5145 13.3165 14.8961 11.9348C16.5835 10.2468 18.0528 8.47891 18.9808 7.02005C19.9089 5.56119 20.2197 4.53078 19.8449 4.15548C19.7646 4.07469 19.6539 4.02552 19.5132 4.00747ZM7.99988 14.6655C3.99999 15.7378 6.99992 18.2703 4 20C7.99989 20 9.99982 17.9982 9.99982 16.6632C9.99982 15.9978 10.0678 14.7735 7.99988 14.6628" fill="url(#paint0_linear_10_16891)"/>
<defs>
<linearGradient id="paint0_linear_10_16891" x1="4" y1="12" x2="20" y2="12" gradientUnits="userSpaceOnUse">
<stop stop-color="#FDFC47"/>
<stop offset="1" stop-color="#24FE41"/>
</linearGradient>
</defs>
</svg>
