<svg width="24" height="24" viewBox="0 0 24 24" fill="none" xmlns="http://www.w3.org/2000/svg">
<path opacity="0.65" d="M17.5139 15C16.84 15.9872 15.9874 16.8397 15.0002 17.5137V24H24.0002V15H17.5139Z" fill="url(#paint0_linear_10_16916)"/>
<path opacity="0.15" d="M10 0.5C4.7533 0.5 0.5 4.7533 0.5 10C0.5 13.618 2.5239 16.7629 5.5 18.3672V5.5002H18.367C16.7627 2.5241 13.618 0.5 10 0.5ZM14.5 14.5V18.3672C16.1363 17.4851 17.4851 16.1363 18.3672 14.5H14.5Z" fill="url(#paint1_linear_10_16916)"/>
<path d="M10 0C4.4831 0 0 4.4831 0 10C0 13.8969 2.242 17.2683 5.5 18.918V17.7891C2.8107 16.2341 1 13.3347 1 10C1 5.0235 5.0235 1 10 1C13.3346 1 16.234 2.8107 17.7891 5.5H18.918C17.2684 2.242 13.897 0 10 0ZM17.7891 14.5C16.9997 15.8652 15.8652 16.9997 14.5 17.7891V18.918C16.4036 17.9541 17.9541 16.4037 18.918 14.5H17.7891Z" fill="url(#paint2_linear_10_16916)"/>
<path opacity="0.35" d="M5.5 24V5.5H24V14.5H14.5V24H5.5Z" fill="url(#paint3_linear_10_16916)"/>
<path d="M5 5V24H6V6H24V5H5ZM14 14V24H15V15H24V14H14Z" fill="url(#paint4_linear_10_16916)"/>
<path d="M9 9V11H11V9H9ZM13 9V11H15V9H13ZM17 9V11H19V9H17ZM21 9V11H23V9H21ZM9 13V15H11V13H9ZM9 17V19H11V17H9ZM9 21V23H11V21H9Z" fill="url(#paint5_linear_10_16916)"/>
<defs>
<linearGradient id="paint0_linear_10_16916" x1="15.0002" y1="19.5" x2="24.0002" y2="19.5" gradientUnits="userSpaceOnUse">
<stop stop-color="#FDFC47"/>
<stop offset="1" stop-color="#24FE41"/>
</linearGradient>
<linearGradient id="paint1_linear_10_16916" x1="0.5" y1="9.4336" x2="18.3672" y2="9.4336" gradientUnits="userSpaceOnUse">
<stop stop-color="#FDFC47"/>
<stop offset="1" stop-color="#24FE41"/>
</linearGradient>
<linearGradient id="paint2_linear_10_16916" x1="0" y1="9.459" x2="18.918" y2="9.459" gradientUnits="userSpaceOnUse">
<stop stop-color="#FDFC47"/>
<stop offset="1" stop-color="#24FE41"/>
</linearGradient>
<linearGradient id="paint3_linear_10_16916" x1="5.5" y1="14.75" x2="24" y2="14.75" gradientUnits="userSpaceOnUse">
<stop stop-color="#FDFC47"/>
<stop offset="1" stop-color="#24FE41"/>
</linearGradient>
<linearGradient id="paint4_linear_10_16916" x1="5" y1="14.5" x2="24" y2="14.5" gradientUnits="userSpaceOnUse">
<stop stop-color="#FDFC47"/>
<stop offset="1" stop-color="#24FE41"/>
</linearGradient>
<linearGradient id="paint5_linear_10_16916" x1="9" y1="16" x2="23" y2="16" gradientUnits="userSpaceOnUse">
<stop stop-color="#FDFC47"/>
<stop offset="1" stop-color="#24FE41"/>
</linearGradient>
</defs>
</svg>
