<svg width="24" height="24" viewBox="0 0 24 24" fill="none" xmlns="http://www.w3.org/2000/svg">
<path d="M12 19H20V12H17H16V11V8H13V7H17L21 11V12V19V20H11V17H12V19Z" fill="url(#paint0_linear_10_16967)"/>
<path d="M5 11H13V15H5V11ZM9 5C10.1046 5 11 5.89543 11 7V10H7V7C7 5.89543 7.89543 5 9 5ZM9 4C7.34314 4 6 5.34314 6 7V10H4V16H14V10H12V7C12 5.34314 10.6569 4 9 4Z" fill="url(#paint1_linear_10_16967)"/>
<defs>
<linearGradient id="paint0_linear_10_16967" x1="11" y1="13.5" x2="21" y2="13.5" gradientUnits="userSpaceOnUse">
<stop stop-color="#FDFC47"/>
<stop offset="1" stop-color="#24FE41"/>
</linearGradient>
<linearGradient id="paint1_linear_10_16967" x1="4" y1="10" x2="14" y2="10" gradientUnits="userSpaceOnUse">
<stop stop-color="#FDFC47"/>
<stop offset="1" stop-color="#24FE41"/>
</linearGradient>
</defs>
</svg>
