<svg width="24" height="24" viewBox="0 0 24 24" fill="none" xmlns="http://www.w3.org/2000/svg">
<path d="M4 5V19H20V5H4ZM11.9414 6C13.5294 5.98436 15.0588 6.5989 16.1945 7.70893C17.3301 8.81897 17.9794 10.334 18 11.9219V12C18 13.5879 17.3705 15.1111 16.2496 16.2358C15.1286 17.3604 13.6074 17.9948 12.0195 18C10.4316 18.0052 8.90636 17.3807 7.77803 16.2634C6.64971 15.146 6.01033 13.627 6 12.0391C5.98959 10.4511 6.6091 8.92379 7.72279 7.7918C8.83648 6.65981 10.3535 6.01547 11.9414 6Z" fill="url(#paint0_linear_10_16976)"/>
<path d="M18 12C18 13.5879 17.3706 15.111 16.2496 16.2357C15.1286 17.3603 13.6075 17.9948 12.0196 18C10.4317 18.0052 8.90655 17.3807 7.77824 16.2634C6.64992 15.1461 6.01052 13.6271 6.00013 12.0393C5.98974 10.4514 6.6092 8.92417 7.72279 7.79221C8.83638 6.66025 10.3533 6.01588 11.9411 6.00029C13.5289 5.9847 15.0582 6.59917 16.1938 7.70905C17.3294 8.81893 17.9787 10.3337 17.9995 11.9215" fill="url(#paint1_linear_10_16976)"/>
<defs>
<linearGradient id="paint0_linear_10_16976" x1="4" y1="12" x2="20" y2="12" gradientUnits="userSpaceOnUse">
<stop stop-color="#FDFC47"/>
<stop offset="1" stop-color="#24FE41"/>
</linearGradient>
<linearGradient id="paint1_linear_10_16976" x1="6" y1="12" x2="18" y2="12" gradientUnits="userSpaceOnUse">
<stop stop-color="#2193B0"/>
<stop offset="1" stop-color="#6DD5ED"/>
</linearGradient>
</defs>
</svg>
