<svg width="24" height="24" viewBox="0 0 24 24" fill="none" xmlns="http://www.w3.org/2000/svg">
<path d="M7.87695 4C6.21252 4.85617 4.85617 6.21252 4 7.87695V8L4.92188 8.30664C5.67648 6.85675 6.85675 5.67648 8.30664 4.92188L8 4H7.87695ZM16.0059 4L15.6992 4.92188C17.1491 5.67649 18.3294 6.85675 19.084 8.30664L20.0059 8V7.87695C19.1497 6.21252 17.7933 4.85617 16.1289 4H16.0059ZM12 6C8.122 6 5 9.122 5 13C5 16.878 8.122 20 12 20C15.878 20 19 16.878 19 13C19 9.122 15.878 6 12 6ZM12 7C15.324 7 18 9.676 18 13C18 16.324 15.324 19 12 19C8.676 19 6 16.324 6 13C6 9.676 8.676 7 12 7ZM10 10V16L15 13L10 10Z" fill="url(#paint0_linear_10_16995)"/>
<defs>
<linearGradient id="paint0_linear_10_16995" x1="4" y1="12" x2="20.0059" y2="12" gradientUnits="userSpaceOnUse">
<stop stop-color="#FDFC47"/>
<stop offset="1" stop-color="#24FE41"/>
</linearGradient>
</defs>
</svg>
