<svg width="24" height="24" viewBox="0 0 24 24" fill="none" xmlns="http://www.w3.org/2000/svg">
<path d="M5 4V20H14V19H6V5H18V14H19V4H5ZM7 6V11H12V6H7ZM13 6V7H17V6H13ZM13 8V9H17V8H13ZM13 10V11H17V10H13ZM7 12V13H17V12H7ZM7 14V15H14V14H7ZM21.4453 14L16.8535 18.5918L15.707 17.4453L15 18.1523L16.8457 20L16.8516 19.9922L16.8594 20L22.1523 14.707L21.4453 14ZM7 16V17H14V16H7Z" fill="url(#paint0_linear_10_17007)"/>
<defs>
<linearGradient id="paint0_linear_10_17007" x1="5" y1="12" x2="22.1523" y2="12" gradientUnits="userSpaceOnUse">
<stop stop-color="#FDFC47"/>
<stop offset="1" stop-color="#24FE41"/>
</linearGradient>
</defs>
</svg>
