<svg width="24" height="24" viewBox="0 0 24 24" fill="none" xmlns="http://www.w3.org/2000/svg">
<path d="M6 10C4.892 10 4 10.892 4 12C4 13.108 4.892 14 6 14C7.108 14 8 13.108 8 12C8 10.892 7.108 10 6 10ZM12 10C10.892 10 10 10.892 10 12C10 13.108 10.892 14 12 14C13.108 14 14 13.108 14 12C14 10.892 13.108 10 12 10ZM18 10C16.892 10 16 10.892 16 12C16 13.108 16.892 14 18 14C19.108 14 20 13.108 20 12C20 10.892 19.108 10 18 10ZM6 11C6.554 11 7 11.446 7 12C7 12.554 6.554 13 6 13C5.446 13 5 12.554 5 12C5 11.446 5.446 11 6 11ZM12 11C12.554 11 13 11.446 13 12C13 12.554 12.554 13 12 13C11.446 13 11 12.554 11 12C11 11.446 11.446 11 12 11ZM18 11C18.554 11 19 11.446 19 12C19 12.554 18.554 13 18 13C17.446 13 17 12.554 17 12C17 11.446 17.446 11 18 11Z" fill="url(#paint0_linear_10_17005)"/>
<defs>
<linearGradient id="paint0_linear_10_17005" x1="4" y1="12" x2="20" y2="12" gradientUnits="userSpaceOnUse">
<stop stop-color="#FDFC47"/>
<stop offset="1" stop-color="#24FE41"/>
</linearGradient>
</defs>
</svg>
