<svg width="24" height="24" viewBox="0 0 24 24" fill="none" xmlns="http://www.w3.org/2000/svg">
<path d="M12 4C7.568 4 4 7.568 4 12C4 16.432 7.568 20 12 20C16.432 20 20 16.432 20 12C20 7.568 16.432 4 12 4ZM12 5C15.878 5 19 8.122 19 12C19 15.878 15.878 19 12 19C8.122 19 5 15.878 5 12C5 8.122 8.122 5 12 5ZM12 9V15L16 12L12 9Z" fill="url(#paint0_linear_10_17034)"/>
<path d="M11 9C10.2044 9 9.44129 9.31607 8.87868 9.87868C8.31607 10.4413 8 11.2044 8 12C8 12.7956 8.31607 13.5587 8.87868 14.1213C9.44129 14.6839 10.2044 15 11 15V9Z" fill="url(#paint1_linear_10_17034)"/>
<defs>
<linearGradient id="paint0_linear_10_17034" x1="4" y1="12" x2="20" y2="12" gradientUnits="userSpaceOnUse">
<stop stop-color="#FDFC47"/>
<stop offset="1" stop-color="#24FE41"/>
</linearGradient>
<linearGradient id="paint1_linear_10_17034" x1="8" y1="9" x2="12.3034" y2="13.8414" gradientUnits="userSpaceOnUse">
<stop stop-color="#FF0500"/>
<stop offset="1" stop-color="#FD3632"/>
</linearGradient>
</defs>
</svg>
