<svg width="24" height="24" viewBox="0 0 24 24" fill="none" xmlns="http://www.w3.org/2000/svg">
<path d="M12 4C9.87827 4 7.84344 4.84285 6.34315 6.34315C4.84285 7.84344 4 9.87827 4 12C4.00263 13.606 4.48854 15.174 5.39453 16.5L6.11719 15.7773C5.3909 14.6511 5.00315 13.3401 5 12C5 10.1435 5.7375 8.36301 7.05025 7.05025C8.36301 5.7375 10.1435 5 12 5C13.3392 5.00506 14.6488 5.39414 15.7734 6.12109L16.4941 5.40039C15.1704 4.49345 13.6046 4.00553 12 4ZM19.293 4L4 19.293L4.70703 20L20 4.70703L19.293 4ZM18.6113 7.49609L17.8906 8.2168C17.8906 8.21745 17.8906 8.2181 17.8906 8.21875C18.6149 9.34693 18.9999 10.6594 19 12C19 13.8565 18.2625 15.637 16.9497 16.9497C15.637 18.2625 13.8565 19 12 19C10.6601 18.9974 9.34908 18.6104 8.22266 17.8848L7.50195 18.6055C8.82743 19.5111 10.3947 19.997 12 20C14.1217 20 16.1566 19.1571 17.6569 17.6569C19.1571 16.1566 20 14.1217 20 12C19.9999 10.3933 19.516 8.82389 18.6113 7.49609ZM12 9V9.89453L12.5117 9.38281L12 9ZM14.918 11.1895L12 14.1074V15L16 12L14.918 11.1895Z" fill="url(#paint0_linear_10_17030)"/>
<path d="M11 9C9.34315 9 8 10.3431 8 12C8.00056 12.5245 8.13861 13.0397 8.40039 13.4941L11 10.8945V9Z" fill="url(#paint1_linear_10_17030)"/>
<defs>
<linearGradient id="paint0_linear_10_17030" x1="4" y1="12" x2="20" y2="12" gradientUnits="userSpaceOnUse">
<stop stop-color="#FDFC47"/>
<stop offset="1" stop-color="#24FE41"/>
</linearGradient>
<linearGradient id="paint1_linear_10_17030" x1="8" y1="9" x2="10.9946" y2="13.4977" gradientUnits="userSpaceOnUse">
<stop stop-color="#FF0500"/>
<stop offset="1" stop-color="#FD3632"/>
</linearGradient>
</defs>
</svg>
