<svg width="24" height="24" viewBox="0 0 24 24" fill="none" xmlns="http://www.w3.org/2000/svg">
<path d="M6 4L5 5V6V6.30469L10 13.3672V17V17.0391L13.9902 20H14V13.3672L19 6.30469V5L18 4H6ZM6 5H18V5.98828L13.0352 13H13V13.0488V14V18.0195L11 16.5352V14V13.0488V13H10.9648L6 5.98828V5ZM7 6L9 9V7L11 6H7Z" fill="url(#paint0_linear_10_17082)"/>
<path d="M15.9902 14L15 14.9902L17.0098 17L15 19.0098L15.9902 20L18 17.9902L20.0098 20L21 19.0098L18.9902 17L21 14.9902L20.0098 14L18 16.0098L15.9902 14Z" fill="url(#paint1_linear_10_17082)"/>
<defs>
<linearGradient id="paint0_linear_10_17082" x1="5" y1="12" x2="19" y2="12" gradientUnits="userSpaceOnUse">
<stop stop-color="#FDFC47"/>
<stop offset="1" stop-color="#24FE41"/>
</linearGradient>
<linearGradient id="paint1_linear_10_17082" x1="15" y1="14" x2="18.2165" y2="21.2371" gradientUnits="userSpaceOnUse">
<stop stop-color="#FF0500"/>
<stop offset="1" stop-color="#FD3632"/>
</linearGradient>
</defs>
</svg>
