<svg width="24" height="24" viewBox="0 0 24 24" fill="none" xmlns="http://www.w3.org/2000/svg">
<path d="M4 4V5V20H5H20V19V4H5H4ZM5 5H19V19H5V5ZM7.5 6C6.669 6 6 6.669 6 7.5C6 8.331 6.669 9 7.5 9C8.331 9 9 8.331 9 7.5C9 6.669 8.331 6 7.5 6ZM16.5 6C15.669 6 15 6.669 15 7.5C15 8.331 15.669 9 16.5 9C17.331 9 18 8.331 18 7.5C18 6.669 17.331 6 16.5 6ZM12 10.5C11.169 10.5 10.5 11.169 10.5 12C10.5 12.831 11.169 13.5 12 13.5C12.831 13.5 13.5 12.831 13.5 12C13.5 11.169 12.831 10.5 12 10.5ZM7.5 15C6.669 15 6 15.669 6 16.5C6 17.331 6.669 18 7.5 18C8.331 18 9 17.331 9 16.5C9 15.669 8.331 15 7.5 15ZM16.5 15C15.669 15 15 15.669 15 16.5C15 17.331 15.669 18 16.5 18C17.331 18 18 17.331 18 16.5C18 15.669 17.331 15 16.5 15Z" fill="url(#paint0_linear_10_17100)"/>
<defs>
<linearGradient id="paint0_linear_10_17100" x1="4" y1="12" x2="20" y2="12" gradientUnits="userSpaceOnUse">
<stop stop-color="#FDFC47"/>
<stop offset="1" stop-color="#24FE41"/>
</linearGradient>
</defs>
</svg>
