<svg width="24" height="24" viewBox="0 0 24 24" fill="none" xmlns="http://www.w3.org/2000/svg">
<path d="M12 4C11.3248 4.004 10.6528 4.093 10 4.26562V5.29883V5.31055C9.54381 5.44694 9.10272 5.62953 8.68359 5.85547L8.67578 5.84766L7.94336 5.11523C6.77641 5.80328 5.80328 6.77641 5.11523 7.94336L5.63672 8.46484L5.85547 8.68359C5.62886 9.10264 5.44562 9.54373 5.30859 10H5.29492H4.25977C4.08915 10.653 4.00187 11.325 4 12C4.004 12.6752 4.09301 13.3472 4.26562 14H5.29883H5.31055C5.44694 14.4562 5.62953 14.8973 5.85547 15.3164L5.63672 15.5352L5.11523 16.0566C5.80328 17.2236 6.7764 18.1967 7.94336 18.8848L8.46484 18.3633L8.68359 18.1445C9.10264 18.3711 9.54373 18.5544 10 18.6914V19V19.7402C10.653 19.9109 11.325 19.9981 12 20C12.335 19.998 12.6685 19.9734 13 19.9297V18.9238C12.6696 18.9726 12.3349 18.9988 12 19C11.6646 18.9995 11.3311 18.9741 11 18.9258V18.9219V18V17.9102C10.1092 17.7595 9.264 17.4097 8.52734 16.8867L8.46484 16.9492L7.81445 17.5996L7.81055 17.6035C7.27425 17.2015 6.79911 16.7248 6.39844 16.1875L6.40039 16.1855L7.05078 15.5352L7.11523 15.4707C6.59048 14.7351 6.23862 13.8906 6.08594 13H6H5.08008H5.07617C5.02737 12.6696 5.0012 12.3349 5 12C5.0005 11.6646 5.02592 11.3311 5.07422 11H5.07812H6H6.08984C6.24049 10.1092 6.59033 9.264 7.11328 8.52734L7.05078 8.46484L6.40039 7.81445L6.39648 7.81055C6.79856 7.27425 7.27516 6.79911 7.8125 6.39844L7.81445 6.40039L8.46484 7.05078L8.5293 7.11523C9.26486 6.59048 10.1094 6.23862 11 6.08594V6V5.08008V5.07617C11.3304 5.02737 11.6651 5.0012 12 5C12.3354 5.0005 12.6689 5.02592 13 5.07422V5.07812V6V6.08984C13.8908 6.24049 14.736 6.59034 15.4727 7.11328L15.5352 7.05078L16.1855 6.40039L16.1895 6.39648C16.7258 6.79854 17.2009 7.27516 17.6016 7.8125L17.5996 7.81445L16.9492 8.46484L16.8848 8.5293C17.4095 9.26486 17.7614 10.1094 17.9141 11H18H18.9199H18.9238C18.9726 11.3304 18.9988 11.6651 19 12C18.9995 12.3354 18.9741 12.6689 18.9258 13H19.9336C19.9763 12.6685 19.9991 12.3349 20 12C19.996 11.3248 19.907 10.6528 19.7344 10H19H18.6895C18.5531 9.54381 18.3705 9.10272 18.1445 8.68359L18.1523 8.67578L18.8848 7.94336C18.1967 6.7764 17.2236 5.80328 16.0566 5.11523L15.3281 5.84375L15.3164 5.85547C14.8974 5.62886 14.4563 5.44562 14 5.30859V5.29492V4.25977C13.347 4.08915 12.675 4.00187 12 4ZM10 9V15L15 12L10 9ZM17 14V18.293L14.707 16L14 16.707L17.293 20L17.5 20.207L17.707 20L21 16.707L20.293 16L18 18.293V14H17Z" fill="url(#paint0_linear_10_17113)"/>
<defs>
<linearGradient id="paint0_linear_10_17113" x1="4" y1="12.1035" x2="21" y2="12.1035" gradientUnits="userSpaceOnUse">
<stop stop-color="#FDFC47"/>
<stop offset="1" stop-color="#24FE41"/>
</linearGradient>
</defs>
</svg>
