<svg width="24" height="24" viewBox="0 0 24 24" fill="none" xmlns="http://www.w3.org/2000/svg">
<path d="M3 4V6H4V11V13V18H3V20H5V19H11H13H14H19V20H21V18H20V13V11V10V6H21V4H19V5H14H13H11H10H5V4H3ZM5 6H19V18H13H11H5V6ZM6 7V17H9V16H7V8H9H17H18V7H6ZM16 9L15.0039 9.99414L15 9.99023L10 14.9883L10.0078 14.9961L10.0039 16H10V16.9902V17H12L12.0059 16.9941L12.0098 16.9902C12.0138 16.9902 12.0155 16.9921 12.0195 16.9922L12.0137 16.9863L13 16L17 12.0039L16.2949 11.2949L11.3047 16.2812L10.7109 15.6895L15.7031 10.7012L16.2949 11.2949L17 11.998L18 10.998L16 9Z" fill="url(#paint0_linear_10_17119)"/>
<defs>
<linearGradient id="paint0_linear_10_17119" x1="3" y1="12" x2="21" y2="12" gradientUnits="userSpaceOnUse">
<stop stop-color="#FDFC47"/>
<stop offset="1" stop-color="#24FE41"/>
</linearGradient>
</defs>
</svg>
