<svg width="24" height="24" viewBox="0 0 24 24" fill="none" xmlns="http://www.w3.org/2000/svg">
<path d="M7 4V6H6V7H4V8H6V10H4V11H6V13H4V14H6V16H4V17H6V18H7V20H8V18H10V20H11V18H13V20H14V18H16V20H17V18H18V17H20V16H18V14H20V13H18V11H20V10H18V8H20V7H18V6H17V4H16V6H14V4H13V6H11V4H10V6H8V4H7Z" fill="url(#paint0_linear_10_17131)"/>
<defs>
<linearGradient id="paint0_linear_10_17131" x1="4" y1="12" x2="20" y2="12" gradientUnits="userSpaceOnUse">
<stop stop-color="#FDFC47"/>
<stop offset="1" stop-color="#24FE41"/>
</linearGradient>
</defs>
</svg>
