<svg width="24" height="24" viewBox="0 0 24 24" fill="none" xmlns="http://www.w3.org/2000/svg">
<path d="M4 4V7H7V4H4ZM8 4V5H17L18 4H8ZM8 6V7H12H13H14.1699L15.1699 6H8ZM4 11V12V13V14H7V13V12V11H4ZM8 11V12H10L11 11H8ZM15 11L14 12H18V11H15ZM13 13L12 14H14V13H13ZM9.83008 16L8.83008 17H18V16H12H11H9.83008ZM8 18L7 19H15V18H8ZM18 19V20H20V19H18Z" fill="url(#paint0_linear_10_17134)"/>
<defs>
<linearGradient id="paint0_linear_10_17134" x1="4" y1="12" x2="20" y2="12" gradientUnits="userSpaceOnUse">
<stop stop-color="#FDFC47"/>
<stop offset="1" stop-color="#24FE41"/>
</linearGradient>
</defs>
</svg>
