<svg width="24" height="24" viewBox="0 0 24 24" fill="none" xmlns="http://www.w3.org/2000/svg">
<path d="M17 4V7H20V4H17ZM18 5H19V6H18V5ZM4 17V20H7V17H4ZM5 18H6V19H5V18Z" fill="url(#paint0_linear_10_17141)"/>
<path d="M17 5C13.8174 5 10.7652 6.26428 8.51472 8.51472C6.26428 10.7652 5 13.8174 5 17H6C6 14.0826 7.15893 11.2847 9.22183 9.22183C11.2847 7.15893 14.0826 6 17 6V5Z" fill="url(#paint1_linear_10_17141)"/>
<defs>
<linearGradient id="paint0_linear_10_17141" x1="4" y1="12" x2="20" y2="12" gradientUnits="userSpaceOnUse">
<stop stop-color="#FDFC47"/>
<stop offset="1" stop-color="#24FE41"/>
</linearGradient>
<linearGradient id="paint1_linear_10_17141" x1="5" y1="11" x2="17" y2="11" gradientUnits="userSpaceOnUse">
<stop stop-color="#FDFC47"/>
<stop offset="1" stop-color="#24FE41"/>
</linearGradient>
</defs>
</svg>
