<svg width="24" height="24" viewBox="0 0 24 24" fill="none" xmlns="http://www.w3.org/2000/svg">
<path d="M12 4C7.58172 4 4 7.58172 4 12C4 16.4183 7.58172 20 12 20C12.6921 20 13.3595 19.9035 14 19.7383V18.7012C13.3513 18.8971 12.6776 18.9977 12 19C10.1435 19 8.36301 18.2625 7.05025 16.9497C5.7375 15.637 5 13.8565 5 12C5 10.1435 5.7375 8.36301 7.05025 7.05025C8.36301 5.7375 10.1435 5 12 5C13.8565 5 15.637 5.7375 16.9497 7.05025C18.2625 8.36301 19 10.1435 19 12C18.9984 12.6775 18.8984 13.3512 18.7031 14H19.7207C19.8879 13.3587 20 12.6941 20 12C20 7.58172 16.4183 4 12 4ZM9 8.03711C8.75937 8.03711 8.71428 8.04546 8.57617 8.11328C8.37943 8.20989 8.20403 8.38529 8.10742 8.58203C8.04041 8.71849 8.03125 8.76631 8.03125 8.99219C8.03125 9.21213 8.04055 9.26832 8.10156 9.39844C8.2298 9.67194 8.46237 9.87374 8.74219 9.95312C8.81412 9.97353 8.9466 9.98316 9.06055 9.97656C9.42226 9.95563 9.71834 9.75591 9.88086 9.42578C9.96095 9.26309 9.96875 9.22682 9.96875 8.99219C9.96875 8.76569 9.95965 8.71857 9.89258 8.58203C9.79597 8.38529 9.62057 8.20989 9.42383 8.11328C9.28572 8.04546 9.24063 8.03711 9 8.03711ZM15 8.03711C14.7594 8.03711 14.7143 8.04546 14.5762 8.11328C14.3794 8.20989 14.204 8.38529 14.1074 8.58203C14.0404 8.71849 14.0312 8.76631 14.0312 8.99219C14.0312 9.21213 14.0406 9.26832 14.1016 9.39844C14.2298 9.67194 14.4624 9.87374 14.7422 9.95312C14.8141 9.97353 14.9466 9.98315 15.0605 9.97656C15.4223 9.95563 15.7183 9.75591 15.8809 9.42578C15.961 9.26309 15.9688 9.22682 15.9688 8.99219C15.9688 8.76569 15.9596 8.71857 15.8926 8.58203C15.796 8.38529 15.6206 8.20989 15.4238 8.11328C15.2857 8.04546 15.2406 8.03711 15 8.03711ZM8.17773 14.0234L8.19531 14.0977C8.20511 14.1383 8.24775 14.2638 8.28906 14.377C8.78303 15.73 9.98582 16.722 11.3945 16.9395C12.4257 17.0987 13.5363 16.8245 14.3535 16.207C14.7055 15.9411 15.0963 15.518 15.3418 15.1367C15.5047 14.8837 15.7447 14.3459 15.8047 14.0977L15.8223 14.0234H12H8.17773ZM17 15V17H15V18H17V20H18V18H20V17H18V15H17Z" fill="url(#paint0_linear_10_17170)"/>
<defs>
<linearGradient id="paint0_linear_10_17170" x1="4" y1="12" x2="20" y2="12" gradientUnits="userSpaceOnUse">
<stop stop-color="#FDFC47"/>
<stop offset="1" stop-color="#24FE41"/>
</linearGradient>
</defs>
</svg>
