<svg width="24" height="24" viewBox="0 0 24 24" fill="none" xmlns="http://www.w3.org/2000/svg">
<path d="M4 4V7H5V8H6V7H7V6H8V5H7V4H4ZM17 4V5H16V6H17V7H18V8H19V7H20V4H17ZM5 5H6V6H5V5ZM10 5V6H11V5H10ZM13 5V6H14V5H13ZM18 5H19V6H18V5ZM5 10V11H6V10H5ZM5 13V14H6V13H5ZM5 16V17H4V20H7V19H8V18H7V17H6V16H5ZM18 16V17H17V18H16V19H17V20H20V17H19V16H18ZM5 18H6V19H5V18ZM10 18V19H11V18H10ZM13 18V19H14V18H13ZM18 18H19V19H18V18Z" fill="url(#paint0_linear_10_17198)"/>
<path d="M16 10V14H20V10H16ZM17 11H19V13H17V11Z" fill="url(#paint1_linear_10_17198)"/>
<defs>
<linearGradient id="paint0_linear_10_17198" x1="4" y1="12" x2="20" y2="12" gradientUnits="userSpaceOnUse">
<stop stop-color="#FDFC47"/>
<stop offset="1" stop-color="#24FE41"/>
</linearGradient>
<linearGradient id="paint1_linear_10_17198" x1="16" y1="12" x2="20" y2="12" gradientUnits="userSpaceOnUse">
<stop stop-color="#FDFC47"/>
<stop offset="1" stop-color="#24FE41"/>
</linearGradient>
</defs>
</svg>
