<svg width="24" height="24" viewBox="0 0 24 24" fill="none" xmlns="http://www.w3.org/2000/svg">
<path d="M10 5.29492C8.88765 5.62777 7.87556 6.23208 7.05489 7.05343C6.23423 7.87478 5.63075 8.88737 5.29883 10H6.35156C6.64977 9.15841 7.13205 8.39399 7.76323 7.76248C8.39441 7.13096 9.15857 6.64827 10 6.34961V5.29492ZM14 5.29883V6.35156C14.8416 6.64977 15.606 7.13205 16.2375 7.76323C16.869 8.39441 17.3517 9.15857 17.6504 10H18.7051C18.3722 8.88765 17.7679 7.87556 16.9466 7.05489C16.1252 6.23423 15.1126 5.63075 14 5.29883ZM5.29492 14C5.62777 15.1124 6.23208 16.1244 7.05343 16.9451C7.87478 17.7658 8.88737 18.3692 10 18.7012V17.6484C9.15841 17.3502 8.39399 16.8679 7.76248 16.2368C7.13096 15.6056 6.64827 14.8414 6.34961 14H5.29492ZM17.6484 14C17.3502 14.8416 16.8679 15.606 16.2368 16.2375C15.6056 16.869 14.8414 17.3517 14 17.6504V18.7051C15.1124 18.3722 16.1244 17.7679 16.9451 16.9466C17.7658 16.1252 18.3692 15.1126 18.7012 14H17.6484Z" fill="url(#paint0_linear_10_17230)"/>
<path d="M10 3V7H14V3H10ZM11 4H13V6H11V4ZM3 10V14H7V10H3ZM17 10V14H21V10H17ZM4 11H6V13H4V11ZM18 11H20V13H18V11ZM10 17V21H14V17H10ZM11 18H13V20H11V18Z" fill="url(#paint1_linear_10_17230)"/>
<defs>
<linearGradient id="paint0_linear_10_17230" x1="5.29492" y1="12" x2="18.7051" y2="12" gradientUnits="userSpaceOnUse">
<stop stop-color="#FDFC47"/>
<stop offset="1" stop-color="#24FE41"/>
</linearGradient>
<linearGradient id="paint1_linear_10_17230" x1="3" y1="12" x2="21" y2="12" gradientUnits="userSpaceOnUse">
<stop stop-color="#FDFC47"/>
<stop offset="1" stop-color="#24FE41"/>
</linearGradient>
</defs>
</svg>
