<svg width="24" height="24" viewBox="0 0 24 24" fill="none" xmlns="http://www.w3.org/2000/svg">
<path d="M7 4V11H6V14H7V20H8V14H9V11H8V4H7ZM4 5V9L6 7L4 5ZM11 5L9 7L11 9V5ZM17 11V14H18V20H19V14H20V11H17ZM11 12V13H12V12H11ZM13 12V13H14V12H13ZM15 12V13H16V12H15Z" fill="url(#paint0_linear_10_17206)"/>
<defs>
<linearGradient id="paint0_linear_10_17206" x1="4" y1="12" x2="20" y2="12" gradientUnits="userSpaceOnUse">
<stop stop-color="#FDFC47"/>
<stop offset="1" stop-color="#24FE41"/>
</linearGradient>
</defs>
</svg>
