<svg width="24" height="24" viewBox="0 0 24 24" fill="none" xmlns="http://www.w3.org/2000/svg">
<path d="M6 5V6H12V18V19H18V18H13V5H12H6Z" fill="url(#paint0_linear_10_17257)"/>
<path d="M5.5 4C5.30302 4 5.10796 4.0388 4.92598 4.11418C4.74399 4.18956 4.57863 4.30005 4.43934 4.43934C4.30005 4.57863 4.18956 4.74399 4.11418 4.92597C4.0388 5.10796 4 5.30302 4 5.5C4 5.69698 4.0388 5.89204 4.11418 6.07403C4.18956 6.25601 4.30005 6.42137 4.43934 6.56066C4.57863 6.69995 4.74399 6.81044 4.92598 6.88582C5.10796 6.9612 5.30302 7 5.5 7C5.69698 7 5.89204 6.9612 6.07403 6.88582C6.25601 6.81044 6.42137 6.69995 6.56066 6.56066C6.69995 6.42137 6.81044 6.25601 6.88582 6.07403C6.9612 5.89204 7 5.69698 7 5.5C7 5.30302 6.9612 5.10796 6.88582 4.92597C6.81044 4.74399 6.69995 4.57863 6.56066 4.43934C6.42137 4.30005 6.25601 4.18956 6.07403 4.11418C5.89204 4.0388 5.69698 4 5.5 4ZM5.5 5C5.63261 5 5.75979 5.05268 5.85355 5.14645C5.94732 5.24021 6 5.36739 6 5.5C6 5.63261 5.94732 5.75979 5.85355 5.85355C5.75979 5.94732 5.63261 6 5.5 6C5.36739 6 5.24021 5.94732 5.14645 5.85355C5.05268 5.75979 5 5.63261 5 5.5C5 5.36739 5.05268 5.24021 5.14645 5.14645C5.24021 5.05268 5.36739 5 5.5 5ZM18.5 17C18.303 17 18.108 17.0388 17.926 17.1142C17.744 17.1896 17.5786 17.3001 17.4393 17.4393C17.3001 17.5786 17.1896 17.744 17.1142 17.926C17.0388 18.108 17 18.303 17 18.5C17 18.697 17.0388 18.892 17.1142 19.074C17.1896 19.256 17.3001 19.4214 17.4393 19.5607C17.5786 19.6999 17.744 19.8104 17.926 19.8858C18.108 19.9612 18.303 20 18.5 20C18.697 20 18.892 19.9612 19.074 19.8858C19.256 19.8104 19.4214 19.6999 19.5607 19.5607C19.6999 19.4214 19.8104 19.256 19.8858 19.074C19.9612 18.892 20 18.697 20 18.5C20 18.303 19.9612 18.108 19.8858 17.926C19.8104 17.744 19.6999 17.5786 19.5607 17.4393C19.4214 17.3001 19.256 17.1896 19.074 17.1142C18.892 17.0388 18.697 17 18.5 17ZM18.5 18C18.6326 18 18.7598 18.0527 18.8536 18.1464C18.9473 18.2402 19 18.3674 19 18.5C19 18.6326 18.9473 18.7598 18.8536 18.8536C18.7598 18.9473 18.6326 19 18.5 19C18.3674 19 18.2402 18.9473 18.1464 18.8536C18.0527 18.7598 18 18.6326 18 18.5C18 18.3674 18.0527 18.2402 18.1464 18.1464C18.2402 18.0527 18.3674 18 18.5 18Z" fill="url(#paint1_linear_10_17257)"/>
<defs>
<linearGradient id="paint0_linear_10_17257" x1="6" y1="12" x2="18" y2="12" gradientUnits="userSpaceOnUse">
<stop stop-color="#FDFC47"/>
<stop offset="1" stop-color="#24FE41"/>
</linearGradient>
<linearGradient id="paint1_linear_10_17257" x1="4" y1="12" x2="20" y2="12" gradientUnits="userSpaceOnUse">
<stop stop-color="#FDFC47"/>
<stop offset="1" stop-color="#24FE41"/>
</linearGradient>
</defs>
</svg>
