<svg width="24" height="24" viewBox="0 0 24 24" fill="none" xmlns="http://www.w3.org/2000/svg">
<path d="M12 4C11.3248 4.004 10.6528 4.093 10 4.26562V5.29883V5.31055C9.54381 5.44694 9.10272 5.62953 8.68359 5.85547L8.67578 5.84766L7.94336 5.11523C6.77641 5.80328 5.80328 6.77641 5.11523 7.94336L5.63672 8.46484L5.85547 8.68359C5.62886 9.10264 5.44562 9.54373 5.30859 10H5.29492H4.25977C4.08915 10.653 4.00187 11.325 4 12C4.004 12.6752 4.09301 13.3472 4.26562 14H5.29883H5.31055C5.44694 14.4562 5.62953 14.8973 5.85547 15.3164L5.63672 15.5352L5.11523 16.0566C5.80328 17.2236 6.7764 18.1967 7.94336 18.8848L8.46484 18.3633L8.68359 18.1445C9.10264 18.3711 9.54373 18.5544 10 18.6914V19V19.7402C10.329 19.8262 10.6634 19.8902 11 19.9336V18.9258V18.9219V18V17.9102C10.1092 17.7595 9.264 17.4097 8.52734 16.8867L8.46484 16.9492L7.81445 17.5996L7.81055 17.6035C7.27425 17.2015 6.79911 16.7248 6.39844 16.1875L6.40039 16.1855L7.05078 15.5352L7.11523 15.4707C6.59048 14.7351 6.23862 13.8906 6.08594 13H6H5.08008H5.07617C5.02737 12.6696 5.0012 12.3349 5 12C5.0005 11.6646 5.02592 11.3311 5.07422 11H5.07812H6H6.08984C6.24049 10.1092 6.59033 9.264 7.11328 8.52734L7.05078 8.46484L6.40039 7.81445L6.39648 7.81055C6.79855 7.27425 7.27516 6.79911 7.8125 6.39844L7.81445 6.40039L8.46484 7.05078L8.5293 7.11523C9.26486 6.59048 10.1094 6.23862 11 6.08594V6V5.08008V5.07617C11.3304 5.02737 11.6651 5.0012 12 5C12.3349 5.0012 12.6696 5.02737 13 5.07617V5.08008V6V6.08594C13.8906 6.23862 14.7351 6.59048 15.4707 7.11523L15.5352 7.05078L16.1855 6.40039L16.1875 6.39844C16.7248 6.79911 17.2014 7.27425 17.6035 7.81055L17.5996 7.81445L16.9492 8.46484L16.8867 8.52734C17.4097 9.264 17.7595 10.1092 17.9102 11H18H18.9219H18.9258C18.9741 11.3311 18.9995 11.6646 19 12C18.9988 12.3349 18.9726 12.6696 18.9238 13H19.9297C19.9733 12.6685 19.998 12.335 20 12C19.9981 11.325 19.9109 10.653 19.7402 10H18.7051H18.6914C18.5544 9.54373 18.3711 9.10264 18.1445 8.68359L18.3633 8.46484L18.8848 7.94336C18.1967 6.77641 17.2236 5.80328 16.0566 5.11523L15.3242 5.84766L15.3164 5.85547C14.8973 5.62953 14.4562 5.44694 14 5.31055V5.29883V4.26562C13.3472 4.093 12.6752 4.004 12 4ZM12 11C11.7348 11 11.4804 11.1054 11.2929 11.2929C11.1054 11.4804 11 11.7348 11 12C11 12.2652 11.1054 12.5196 11.2929 12.7071C11.4804 12.8946 11.7348 13 12 13C12.2652 13 12.5196 12.8946 12.7071 12.7071C12.8946 12.5196 13 12.2652 13 12C13 11.7348 12.8946 11.4804 12.7071 11.2929C12.5196 11.1054 12.2652 11 12 11ZM14 13L12 14.5L14 16V15H19C19.554 15 20 15.446 20 16H21C21 14.892 20.108 14 19 14H14V13ZM12 17C12 18.108 12.892 19 14 19H19V20L21 18.5L19 17V18H14C13.446 18 13 17.554 13 17H12Z" fill="url(#paint0_linear_10_17280)"/>
<defs>
<linearGradient id="paint0_linear_10_17280" x1="4" y1="12" x2="21" y2="12" gradientUnits="userSpaceOnUse">
<stop stop-color="#FDFC47"/>
<stop offset="1" stop-color="#24FE41"/>
</linearGradient>
</defs>
</svg>
