<svg width="24" height="24" viewBox="0 0 24 24" fill="none" xmlns="http://www.w3.org/2000/svg">
<path d="M13.0879 2L13.4551 2.37891L15.0762 4H13H5V5H15.0762H17.5L16.9902 4.5L14.4902 2H13.0879ZM5 6V20H6V13H12V12H6V7H14V6H6H5Z" fill="url(#paint0_linear_10_17276)"/>
<path d="M16.5 13C14.567 13 13 14.567 13 16.5C13 18.433 14.567 20 16.5 20C18.2386 19.998 19.7516 18.7208 20 17V16H17V17H18.9453C18.708 18.1624 17.6864 18.998 16.5 19C15.1193 19 14 17.8807 14 16.5C14 15.1193 15.1193 14 16.5 14C17.163 14.0001 17.7988 14.2636 18.2676 14.7324L18.9727 14.0273C18.3172 13.3707 17.4278 13.0012 16.5 13Z" fill="url(#paint1_linear_10_17276)"/>
<defs>
<linearGradient id="paint0_linear_10_17276" x1="5" y1="11" x2="17.5" y2="11" gradientUnits="userSpaceOnUse">
<stop stop-color="#FDFC47"/>
<stop offset="1" stop-color="#24FE41"/>
</linearGradient>
<linearGradient id="paint1_linear_10_17276" x1="13" y1="16.5" x2="20" y2="16.5" gradientUnits="userSpaceOnUse">
<stop stop-color="#FDFC47"/>
<stop offset="1" stop-color="#24FE41"/>
</linearGradient>
</defs>
</svg>
