<svg width="24" height="24" viewBox="0 0 24 24" fill="none" xmlns="http://www.w3.org/2000/svg">
<path d="M16 5.5C13.2152 5.5 10.5445 6.60625 8.57538 8.57538C6.60625 10.5445 5.5 13.2152 5.5 16H6.5C6.5 13.4804 7.50089 11.0641 9.28249 9.28249C11.0641 7.50089 13.4804 6.5 16 6.5V5.5ZM17.5 15C17.1717 15 16.8466 15.0647 16.5433 15.1903C16.24 15.3159 15.9644 15.5001 15.7322 15.7322C15.5001 15.9644 15.3159 16.24 15.1903 16.5433C15.0647 16.8466 15 17.1717 15 17.5C15.0008 17.9898 15.1454 18.4686 15.416 18.877L16.1484 18.1445C16.0516 17.9434 16.0009 17.7232 16 17.5C16 17.1022 16.158 16.7206 16.4393 16.4393C16.7206 16.158 17.1022 16 17.5 16C17.7232 16.0009 17.9434 16.0516 18.1445 16.1484L18.877 15.416C18.4686 15.1454 17.9898 15.0008 17.5 15ZM19.584 16.123L18.8516 16.8555C18.9484 17.0566 18.9991 17.2768 19 17.5C19 17.8978 18.842 18.2794 18.5607 18.5607C18.2794 18.842 17.8978 19 17.5 19C17.2768 18.9991 17.0566 18.9484 16.8555 18.8516L16.123 19.584C16.5314 19.8546 17.0102 19.9992 17.5 20C17.8283 20 18.1534 19.9353 18.4567 19.8097C18.76 19.6841 19.0356 19.4999 19.2678 19.2678C19.4999 19.0356 19.6841 18.76 19.8097 18.4567C19.9353 18.1534 20 17.8283 20 17.5C19.9992 17.0102 19.8546 16.5314 19.584 16.123Z" fill="url(#paint0_linear_10_17307)"/>
<path d="M16 6.5C13.4804 6.5 11.0641 7.50089 9.28249 9.28249C7.50089 11.0641 6.5 13.4804 6.5 16H8V19H14V17.5C14 17.0404 14.0905 16.5852 14.2664 16.1606C14.4423 15.736 14.7001 15.3501 15.0251 15.0251C15.3501 14.7001 15.736 14.4423 16.1606 14.2664C16.5852 14.0905 17.0404 14 17.5 14H19V8H16V6.5Z" fill="url(#paint1_linear_10_17307)" fill-opacity="0.5"/>
<path d="M16 4V8H20V4H16ZM17 5H19V7H17V5ZM4 16V20H8V16H4ZM5 17H7V19H5V17Z" fill="url(#paint2_linear_10_17307)"/>
<defs>
<linearGradient id="paint0_linear_10_17307" x1="5.5" y1="12.75" x2="20" y2="12.75" gradientUnits="userSpaceOnUse">
<stop stop-color="#FDFC47"/>
<stop offset="1" stop-color="#24FE41"/>
</linearGradient>
<linearGradient id="paint1_linear_10_17307" x1="6.5" y1="12.75" x2="19" y2="12.75" gradientUnits="userSpaceOnUse">
<stop stop-color="#FDFC47"/>
<stop offset="1" stop-color="#24FE41"/>
</linearGradient>
<linearGradient id="paint2_linear_10_17307" x1="4" y1="12" x2="20" y2="12" gradientUnits="userSpaceOnUse">
<stop stop-color="#FDFC47"/>
<stop offset="1" stop-color="#24FE41"/>
</linearGradient>
</defs>
</svg>
