<svg width="24" height="24" viewBox="0 0 24 24" fill="none" xmlns="http://www.w3.org/2000/svg">
<path d="M6 4V5V11V20H7H10V19V11V8H14H17H18V7V5V4H17H7H6ZM7 5H17V7H14H10H9V8V11V19H7V11V5ZM12 10V11V20H13H16V19V14H17H18V13V11V10H17H16H14H12ZM13 11H16H17V13H16H15V14V19H13V11Z" fill="url(#paint0_linear_10_17303)"/>
<defs>
<linearGradient id="paint0_linear_10_17303" x1="6" y1="12" x2="18" y2="12" gradientUnits="userSpaceOnUse">
<stop stop-color="#FDFC47"/>
<stop offset="1" stop-color="#24FE41"/>
</linearGradient>
</defs>
</svg>
