<svg width="24" height="24" viewBox="0 0 24 24" fill="none" xmlns="http://www.w3.org/2000/svg">
<path d="M11.5 4C10.8458 4 10.2978 4.41808 10.0918 5H6H5V6V17.0918C4.41808 17.2978 4 17.8458 4 18.5C4 19.331 4.669 20 5.5 20C6.331 20 7 19.331 7 18.5C7 17.8458 6.58192 17.2978 6 17.0918V6H10.0918C10.2421 6.4247 10.5753 6.75786 11 6.9082V13V14H12H12.0918C12.2978 14.5819 12.8458 15 13.5 15C14.331 15 15 14.331 15 13.5C15 12.669 14.331 12 13.5 12C12.8458 12 12.2978 12.4181 12.0918 13H12V6.9082C12.5819 6.7022 13 6.15424 13 5.5C13 4.669 12.331 4 11.5 4ZM11.5 5C11.777 5 12 5.223 12 5.5C12 5.777 11.777 6 11.5 6C11.223 6 11 5.777 11 5.5C11 5.223 11.223 5 11.5 5ZM13.5 13C13.777 13 14 13.223 14 13.5C14 13.777 13.777 14 13.5 14C13.223 14 13 13.777 13 13.5C13 13.223 13.223 13 13.5 13ZM17 14V18.293L14.707 16L14 16.707L17.293 20L17.5 20.207L17.707 20L21 16.707L20.293 16L18 18.293V14H17ZM5.5 18C5.777 18 6 18.223 6 18.5C6 18.777 5.777 19 5.5 19C5.223 19 5 18.777 5 18.5C5 18.223 5.223 18 5.5 18Z" fill="url(#paint0_linear_10_17313)"/>
<defs>
<linearGradient id="paint0_linear_10_17313" x1="4" y1="12.1035" x2="21" y2="12.1035" gradientUnits="userSpaceOnUse">
<stop stop-color="#FDFC47"/>
<stop offset="1" stop-color="#24FE41"/>
</linearGradient>
</defs>
</svg>
