<svg width="24" height="24" viewBox="0 0 24 24" fill="none" xmlns="http://www.w3.org/2000/svg">
<path d="M4 4V20H10V19H5V8H10V10H11V8V4H4ZM12 4V10H13V8H14H19V13H20V4H14H13H12ZM12.293 11L9.5 13.793L8.79297 14.5L9.5 15.207L12.293 18L13 17.293L10.707 15H16V14H15H14H10.707L13 11.707L12.293 11ZM17.707 14L17 14.707L19.293 17H14V18H15H16H19.293L17 20.293L17.707 21L20.5 18.207L21.207 17.5L20.5 16.793L17.707 14Z" fill="url(#paint0_linear_10_17315)"/>
<defs>
<linearGradient id="paint0_linear_10_17315" x1="4" y1="12.5" x2="21.207" y2="12.5" gradientUnits="userSpaceOnUse">
<stop stop-color="#FDFC47"/>
<stop offset="1" stop-color="#24FE41"/>
</linearGradient>
</defs>
</svg>
