<svg width="24" height="24" viewBox="0 0 24 24" fill="none" xmlns="http://www.w3.org/2000/svg">
<path d="M12.3821 3.38818C10.3927 3.38818 9.16156 4.65171 8.98438 6.18718V7.20518L6.83334 5.685L5.98438 6.34804L8.53128 8.33715L9.38025 9.00018L10.2292 8.33715L12.7761 6.34804L11.9272 5.685L9.98438 7.20518V6.18718C9.98438 5.1516 11.049 4.38855 12.3819 4.38818C13.7148 4.38855 15.0029 5.15177 14.9844 6.18718V7.00018H15.9844V6.18686C15.9844 4.64119 14.3716 3.38818 12.3821 3.38818ZM14.9844 8.00018C13.8798 8.00018 12.9844 8.89561 12.9844 10.0002C12.9844 11.1048 13.8798 12.0002 14.9844 12.0002C16.0889 12.0002 16.9844 11.1048 16.9844 10.0002C16.9844 8.89561 16.0889 8.00018 14.9844 8.00018ZM8.98438 10.0002C8.72173 10.0002 8.46166 10.0519 8.21901 10.1524C7.97636 10.2529 7.75588 10.4003 7.57016 10.586C7.38444 10.7717 7.23713 10.9922 7.13662 11.2348C7.03611 11.4775 6.98437 11.7375 6.98438 12.0002C6.98437 12.2628 7.03611 12.5229 7.13662 12.7656C7.23713 13.0082 7.38444 13.2287 7.57016 13.4144C7.75588 13.6001 7.97636 13.7474 8.21901 13.8479C8.46166 13.9485 8.72173 14.0002 8.98438 14.0002C9.24702 14.0002 9.50709 13.9485 9.74974 13.8479C9.99239 13.7474 10.2129 13.6001 10.3986 13.4144C10.5843 13.2287 10.7316 13.0082 10.8321 12.7656C10.9326 12.5229 10.9844 12.2628 10.9844 12.0002C10.9844 11.7375 10.9326 11.4775 10.8321 11.2348C10.7316 10.9922 10.5843 10.7717 10.3986 10.586C10.2129 10.4003 9.99239 10.2529 9.74974 10.1524C9.50709 10.0519 9.24702 10.0002 8.98438 10.0002ZM15 13.0002C13.4812 13.0002 12.2358 14.1632 12.0215 15.6721C12.6044 16.3342 12.9844 17.0002 12.9844 18.0002H15H16.8125H17.4141C17.8073 17.4596 18.0208 16.8016 18.0215 16.1252C18.0215 14.3993 16.6692 13.0002 15 13.0002ZM14.9512 14.0002C16.0537 14.0002 16.9473 14.8396 16.9473 15.8752C16.9468 16.281 16.8066 16.6758 16.5469 17.0002H16.1484H14.9512H13.752H13.7266C13.6409 16.4617 13.3694 15.9803 12.9844 15.6017C13.1259 14.6965 13.948 14.0002 14.9512 14.0002ZM8.98438 15.0002C8.59041 15.0002 8.2003 15.081 7.83632 15.2381C7.47235 15.3951 7.14163 15.6253 6.86305 15.9155C6.58448 16.2057 6.3635 16.5502 6.21274 16.9293C6.06197 17.3084 5.98437 17.7148 5.98438 18.1252C5.98595 18.802 6.19843 19.46 6.58984 20.0002H7.18359H8.98438H10.7852H11.3828C11.7728 19.4595 11.9839 18.8015 11.9844 18.1252C11.9844 17.7148 11.9068 17.3084 11.756 16.9293C11.6052 16.5502 11.3843 16.2057 11.1057 15.9155C10.8271 15.6253 10.4964 15.3951 10.1324 15.2381C9.76845 15.081 9.37834 15.0002 8.98438 15.0002ZM8.98438 16.0002C9.51481 16.0002 10.0235 16.2372 10.3986 16.6592C10.7737 17.0811 10.9844 17.6534 10.9844 18.2502C10.9835 18.5059 10.9438 18.7595 10.8672 19.0002H7.10156C7.02491 18.7595 6.98528 18.5059 6.98438 18.2502C6.98438 17.6534 7.19509 17.0811 7.57016 16.6592C7.94523 16.2372 8.45394 16.0002 8.98438 16.0002Z" fill="url(#paint0_linear_10_17339)"/>
<defs>
<linearGradient id="paint0_linear_10_17339" x1="5.98438" y1="11.6942" x2="18.0215" y2="11.6942" gradientUnits="userSpaceOnUse">
<stop stop-color="#FDFC47"/>
<stop offset="1" stop-color="#24FE41"/>
</linearGradient>
</defs>
</svg>
