<svg width="24" height="24" viewBox="0 0 24 24" fill="none" xmlns="http://www.w3.org/2000/svg">
<path d="M8.047 5.04883C6.81904 5.74659 5.79768 6.75736 5.08683 7.9783C4.37597 9.19924 4.00098 10.5868 4 11.9998C4 14.1214 4.84219 16.1561 6.34133 17.6563C7.84046 19.1566 9.87377 19.9996 11.994 19.9998C13.404 19.998 14.7885 19.623 16.007 18.913C17.2254 18.2029 18.2346 17.1831 18.932 15.9568C18.9353 15.9548 18.9387 15.9528 18.942 15.9508L18.203 15.2128C18.2017 15.2148 18.2003 15.2168 18.199 15.2188C17.2076 15.7314 16.108 15.9991 14.992 15.9998C13.1369 15.9993 11.3579 15.2616 10.0464 13.9489C8.7348 12.6362 7.998 10.856 7.998 8.99983C7.99939 7.88146 8.26857 6.77971 8.783 5.78683L8.047 5.04883ZM7.303 6.81983C7.10143 7.52896 6.99879 8.26257 6.998 8.99983C6.998 11.1214 7.84019 13.1561 9.33933 14.6563C10.8385 16.1566 12.8718 16.9996 14.992 16.9998C15.7323 16.9974 16.4687 16.892 17.18 16.6868C16.5252 17.4136 15.7253 17.995 14.8321 18.3934C13.9388 18.7918 12.972 18.9984 11.994 18.9998C10.1389 18.9993 8.35995 18.2616 7.04837 16.9489C5.7368 15.6362 5 13.856 5 11.9998C5.00159 11.0234 5.2073 10.0582 5.60392 9.1661C6.00055 8.274 6.5793 7.4748 7.303 6.81983Z" fill="url(#paint0_linear_10_17334)"/>
<path d="M11 7V8H13.293L11.293 10L11 10.293V11H15V10H12.707L14.707 8L15 7.707V7H14.293H11ZM16 4V5H18.293L16.293 7L16 7.293V8H20V7H17.707L19.707 5L20 4.707V4H19.293H16Z" fill="url(#paint1_linear_10_17334)"/>
<defs>
<linearGradient id="paint0_linear_10_17334" x1="4" y1="12.5243" x2="18.942" y2="12.5243" gradientUnits="userSpaceOnUse">
<stop stop-color="#FDFC47"/>
<stop offset="1" stop-color="#24FE41"/>
</linearGradient>
<linearGradient id="paint1_linear_10_17334" x1="11" y1="7.5" x2="20" y2="7.5" gradientUnits="userSpaceOnUse">
<stop stop-color="#FDFC47"/>
<stop offset="1" stop-color="#24FE41"/>
</linearGradient>
</defs>
</svg>
