<svg width="24" height="24" viewBox="0 0 24 24" fill="none" xmlns="http://www.w3.org/2000/svg">
<path d="M11 4V11H13V4H11ZM10 4.26562C6.54445 5.15022 4 8.26101 4 12C4 16.432 7.568 20 12 20C16.432 20 20 16.432 20 12C20 8.26101 17.4555 5.15022 14 4.26562V5.30273C16.895 6.15992 19 8.81962 19 12C19 15.878 15.878 19 12 19C8.122 19 5 15.878 5 12C5 8.81962 7.10496 6.15992 10 5.30273V4.26562Z" fill="url(#paint0_linear_10_17326)"/>
<defs>
<linearGradient id="paint0_linear_10_17326" x1="4" y1="12" x2="20" y2="12" gradientUnits="userSpaceOnUse">
<stop stop-color="#FDFC47"/>
<stop offset="1" stop-color="#24FE41"/>
</linearGradient>
</defs>
</svg>
