<svg width="24" height="24" viewBox="0 0 24 24" fill="none" xmlns="http://www.w3.org/2000/svg">
<path d="M11.2941 21.0384C10.6074 19.9692 10.3612 19.7973 10.0501 20.17C9.93408 20.309 9.77642 20.4227 9.69976 20.4227C9.62311 20.4227 9.18889 19.9051 8.73483 19.2725C7.83409 18.0175 7.39573 17.8679 7.22669 18.7581C7.13267 19.2531 7.08567 19.2014 6.38121 17.827C5.97095 17.0266 5.51375 16.3254 5.36521 16.2687C5.21667 16.2121 4.89141 16.2579 4.64241 16.3708C4.39341 16.4836 4.14979 16.5362 4.10103 16.4877C4.05227 16.4392 4.18447 15.7174 4.39479 14.8837C4.85012 13.0786 4.75315 12.8198 3.68528 12.9895C3.15957 13.0731 3 13.0405 3 12.8494C3 12.7124 3.50907 11.7413 4.13126 10.6914C5.19491 8.89652 5.24688 8.7587 5.00079 8.38529C4.35862 7.41086 5.31399 6.21091 6.73198 6.21091C7.10586 6.21091 7.41177 6.16309 7.41177 6.10465C7.41177 6.0462 7.21324 5.7638 6.97059 5.47709C6.72794 5.19038 6.52941 4.89252 6.52941 4.81518C6.52941 4.73784 7.05134 4.77207 7.68926 4.89126L8.84911 5.10796L8.73956 4.67397C8.6793 4.43527 8.58454 4.01397 8.52898 3.73775L8.42795 3.23554L9.54046 3.68499L10.653 4.13444L10.9653 3.72517C11.137 3.50008 11.4125 3.01983 11.5773 2.65795C11.7422 2.29608 11.9324 2 12 2C12.0676 2 12.2578 2.29608 12.4227 2.65795C12.5875 3.01983 12.863 3.50008 13.0347 3.72517L13.347 4.13444L14.4595 3.68499L15.5721 3.23554L15.471 3.73775C15.4155 4.01397 15.3196 4.43971 15.258 4.68384C15.1363 5.1657 15.0806 5.16476 17.0735 4.71478C17.617 4.59208 17.5716 4.85616 16.9229 5.59071L16.3752 6.21091H17.1615C18.6868 6.21091 19.6675 7.37128 18.9992 8.38528C18.7531 8.7587 18.8051 8.89652 19.8687 10.6914C20.4909 11.7413 21 12.7124 21 12.8494C21 13.0405 20.8404 13.0731 20.3147 12.9895C19.2469 12.8198 19.1499 13.0786 19.6052 14.8837C19.8155 15.7174 19.9477 16.4392 19.899 16.4877C19.8502 16.5362 19.6066 16.4836 19.3576 16.3708C19.1086 16.258 18.7833 16.212 18.6348 16.2687C18.4863 16.3254 18.0291 17.0266 17.6188 17.827C16.9143 19.2014 16.8673 19.2531 16.7733 18.758C16.6043 17.8679 16.1659 18.0175 15.2652 19.2725C14.8111 19.9051 14.3769 20.4227 14.3002 20.4227C14.2236 20.4227 14.0659 20.309 13.9499 20.17C13.6388 19.7973 13.3926 19.9692 12.7059 21.0384C12.3662 21.5673 12.0485 22 12 22C11.9515 22 11.6338 21.5673 11.2941 21.0384ZM13.49 17.5764C13.9274 16.9555 13.8439 16.5627 13.2746 16.5627C13.005 16.5627 12.6079 16.4398 12.3922 16.2896C12.0372 16.0424 11.9628 16.0424 11.6078 16.2896C11.3921 16.4398 10.995 16.5627 10.7254 16.5627C10.1561 16.5627 10.0726 16.9555 10.51 17.5764C10.7487 17.9152 10.9442 17.9664 12 17.9664C13.0558 17.9664 13.2513 17.9152 13.49 17.5764ZM11.1252 16.0323C11.3107 15.9336 11.544 15.7014 11.6437 15.5163C11.7951 15.2349 11.7367 15.1279 11.2872 14.8639C10.88 14.6248 10.762 14.4412 10.8012 14.1079C10.8505 13.6884 10.9068 13.6677 12 13.6677C13.0988 13.6677 13.1493 13.6866 13.1996 14.1161C13.2384 14.4473 13.1346 14.627 12.8025 14.8037C12.2486 15.0985 12.2244 15.5761 12.7452 15.9387C13.3478 16.3584 13.6674 16.2704 14.1322 15.557C14.3669 15.1969 14.8969 14.7169 15.3101 14.4905C15.7232 14.264 16.1473 13.919 16.2524 13.7237C16.5732 13.1278 16.7902 11.1479 16.578 10.7536C16.4744 10.5613 15.5446 9.73685 14.5117 8.92152C12.0182 6.95326 12.0029 6.95326 9.49647 8.92203C8.45923 9.73678 7.52581 10.5609 7.42221 10.7533C7.20779 11.1517 7.42791 13.1297 7.75408 13.7357C7.86274 13.9376 8.20738 14.2312 8.51995 14.3883C9.21624 14.7381 9.88236 15.3272 9.88236 15.5932C9.88236 16.1225 10.5274 16.3504 11.1252 16.0323ZM9.88235 11.8401C9.88235 11.7355 9.72894 11.65 9.54143 11.65C9.19494 11.65 8.3473 10.6614 8.53434 10.4754C8.59059 10.4195 9.01616 10.5286 9.48006 10.7179C10.1484 10.9906 10.3235 11.1474 10.3235 11.473C10.3235 11.699 10.2243 11.9168 10.1029 11.957C9.98162 11.9973 9.88235 11.9446 9.88235 11.8401ZM13.6521 11.7377C13.5962 11.593 13.5909 11.3698 13.6403 11.2418C13.7398 10.984 15.3177 10.3283 15.4711 10.4809C15.6542 10.6628 14.7992 11.65 14.4586 11.65C14.2711 11.65 14.1176 11.729 14.1176 11.8255C14.1176 12.0982 13.7656 12.0319 13.6521 11.7377ZM7.41177 9.0155C7.59938 8.89305 7.61817 8.80441 7.47629 8.71114C7.36619 8.63876 7.24638 8.42363 7.21002 8.23305C7.12757 7.80078 6.44489 7.44508 5.69117 7.44168C4.94252 7.43835 4.94851 7.76218 5.71201 8.56706C6.31395 9.20162 6.89267 9.3543 7.41177 9.0155ZM18.288 8.56706C19.0515 7.76218 19.0575 7.43831 18.3088 7.44168C17.5551 7.44512 16.8724 7.80078 16.79 8.23305C16.7536 8.42363 16.6338 8.63877 16.5237 8.71114C16.3818 8.80441 16.4006 8.89305 16.5882 9.0155C17.1073 9.3543 17.6861 9.20162 18.288 8.56706ZM8.18298 7.46425C8.44396 7.17755 8.44806 7.11257 8.21726 6.92212C7.82216 6.59611 6.6855 6.50408 6.08824 6.74975L5.55883 6.96751L6.20812 7.08594C6.56523 7.15107 7.0417 7.332 7.26694 7.48799C7.79401 7.853 7.82999 7.85207 8.18298 7.46425ZM16.6979 7.49675C16.9455 7.33546 17.439 7.1504 17.7946 7.08551L18.4412 6.96751L17.9118 6.74975C17.3145 6.50408 16.1778 6.59611 15.7827 6.92212C15.5519 7.11257 15.556 7.17755 15.817 7.46426C16.1765 7.85915 16.1435 7.85793 16.6979 7.49675Z" fill="url(#paint0_linear_10_17365)"/>
<defs>
<linearGradient id="paint0_linear_10_17365" x1="3" y1="12" x2="21" y2="12" gradientUnits="userSpaceOnUse">
<stop stop-color="#FDFC47"/>
<stop offset="1" stop-color="#24FE41"/>
</linearGradient>
</defs>
</svg>
