<svg width="24" height="24" viewBox="0 0 24 24" fill="none" xmlns="http://www.w3.org/2000/svg">
<path d="M6 12C4.93913 12 3.92172 12.4214 3.17157 13.1716C2.42143 13.9217 2 14.9391 2 16C2 17.0609 2.42143 18.0783 3.17157 18.8284C3.92172 19.5786 4.93913 20 6 20C6.56804 19.9991 7.12938 19.8773 7.64666 19.6425C8.16393 19.4078 8.62528 19.0656 9 18.6387V20H10V16V12H9V13.3613C8.62528 12.9344 8.16393 12.5922 7.64666 12.3575C7.12938 12.1227 6.56804 12.0009 6 12ZM14 12V16V20H15V18.6387C15.3747 19.0656 15.8361 19.4078 16.3533 19.6425C16.8706 19.8773 17.432 19.9991 18 20C19.0609 20 20.0783 19.5786 20.8284 18.8284C21.5786 18.0783 22 17.0609 22 16C22 14.9391 21.5786 13.9217 20.8284 13.1716C20.0783 12.4214 19.0609 12 18 12C17.432 12.0009 16.8706 12.1227 16.3533 12.3575C15.8361 12.5922 15.3747 12.9344 15 13.3613V12H14ZM6 13C6.79565 13 7.55871 13.3161 8.12132 13.8787C8.68393 14.4413 9 15.2044 9 16C9 16.7956 8.68393 17.5587 8.12132 18.1213C7.55871 18.6839 6.79565 19 6 19C5.20435 19 4.44129 18.6839 3.87868 18.1213C3.31607 17.5587 3 16.7956 3 16C3 15.2044 3.31607 14.4413 3.87868 13.8787C4.44129 13.3161 5.20435 13 6 13ZM18 13C18.7956 13 19.5587 13.3161 20.1213 13.8787C20.6839 14.4413 21 15.2044 21 16C21 16.7956 20.6839 17.5587 20.1213 18.1213C19.5587 18.6839 18.7956 19 18 19C17.2044 19 16.4413 18.6839 15.8787 18.1213C15.3161 17.5587 15 16.7956 15 16C15 15.2044 15.3161 14.4413 15.8787 13.8787C16.4413 13.3161 17.2044 13 18 13Z" fill="url(#paint0_linear_10_17368)"/>
<path d="M10 4L6 7L10 10V4ZM14 4V10L18 7L14 4Z" fill="url(#paint1_linear_10_17368)"/>
<defs>
<linearGradient id="paint0_linear_10_17368" x1="2" y1="16" x2="22" y2="16" gradientUnits="userSpaceOnUse">
<stop stop-color="#FDFC47"/>
<stop offset="1" stop-color="#24FE41"/>
</linearGradient>
<linearGradient id="paint1_linear_10_17368" x1="6" y1="7" x2="18" y2="7" gradientUnits="userSpaceOnUse">
<stop stop-color="#FDFC47"/>
<stop offset="1" stop-color="#24FE41"/>
</linearGradient>
</defs>
</svg>
