<svg width="24" height="24" viewBox="0 0 24 24" fill="none" xmlns="http://www.w3.org/2000/svg">
<path d="M11.982 19.9751C11.9824 20.2554 12.2095 20.4825 12.4898 20.4829C12.7709 20.4836 12.9992 20.2562 12.9996 19.9751V18.0005H16.982V19.9751C16.9824 20.2554 17.2095 20.4825 17.4898 20.4829C17.7709 20.4836 17.9992 20.2562 17.9996 19.9751V15.8364C17.9996 14.924 17.6084 14.1761 17.0328 13.6997C16.4571 13.2233 15.72 13.0005 14.9898 13.0005C14.2596 13.0005 13.5225 13.2233 12.9468 13.6997C12.3711 14.1761 11.9819 14.924 11.9819 15.8364L11.982 19.9751ZM12.9996 16.9829V15.8364C12.9996 15.1971 13.2335 14.7823 13.5953 14.4829C13.9572 14.1835 14.4701 14.0181 14.9898 14.0181C15.5096 14.0181 16.0225 14.1835 16.3843 14.4829C16.7462 14.7824 16.982 15.1971 16.982 15.8364V16.9829H12.9996Z" fill="url(#paint0_linear_10_17410)"/>
<path d="M15.0801 2.99999C14.9932 3.00535 14.9091 3.03292 14.836 3.08007C14.7228 3.15338 14.6434 3.26864 14.6152 3.40049C14.587 3.53234 14.6123 3.67 14.6856 3.78319L14.8262 3.99999H11.4922C11.4254 3.99983 11.3592 4.01285 11.2974 4.03829C11.2356 4.06373 11.1794 4.1011 11.1321 4.14826C11.0847 4.19542 11.0472 4.25145 11.0215 4.31314C10.9958 4.37483 10.9825 4.44098 10.9824 4.5078V5.5078C10.9825 5.57462 10.9958 5.64077 11.0215 5.70247C11.0471 5.76416 11.0847 5.82019 11.1321 5.86735C11.1794 5.91451 11.2356 5.95188 11.2974 5.97732C11.3592 6.00276 11.4254 6.01577 11.4922 6.01561C11.6268 6.01541 11.7559 5.96185 11.8511 5.86666C11.9462 5.77147 11.9998 5.64242 12 5.5078V5.01561H18.7422V5.5078C18.7424 5.64242 18.796 5.77147 18.8911 5.86666C18.9863 5.96185 19.1154 6.01541 19.25 6.01561C19.3846 6.01541 19.5137 5.96185 19.6089 5.86666C19.7041 5.77147 19.7576 5.64242 19.7578 5.5078V4.5078C19.7576 4.37318 19.704 4.24414 19.6089 4.14895C19.5137 4.05377 19.3846 4.0002 19.25 3.99999H16.0371L15.5391 3.23241C15.4901 3.15636 15.4218 3.09473 15.3411 3.05388C15.2605 3.01302 15.1704 2.99442 15.0801 2.99999ZM13.043 5.99999C12.9084 6.00018 12.7793 6.05375 12.6841 6.14894C12.5889 6.24413 12.5354 6.37318 12.5352 6.5078C12.5354 6.64242 12.5889 6.77147 12.6841 6.86666C12.7793 6.96185 12.9084 7.01542 13.043 7.01561H16.0098L15.2989 7.62108C15.2431 7.66888 15.1983 7.7282 15.1676 7.79496C15.1369 7.86171 15.1211 7.93433 15.1211 8.0078V8.54686L11.4981 8.49999C11.4313 8.49905 11.365 8.51129 11.3029 8.53602C11.2408 8.56075 11.1842 8.59747 11.1363 8.64409C11.0884 8.6907 11.0502 8.7463 11.0238 8.80771C10.9974 8.86911 10.9834 8.93511 10.9825 9.00193C10.9811 9.13656 11.0332 9.26623 11.1273 9.36253C11.2214 9.45882 11.3498 9.51387 11.4845 9.51561L15.1212 9.56249V11.0078C15.1212 11.0824 15.066 11.2211 14.9532 11.3301C14.8404 11.4391 14.6905 11.5 14.5958 11.5H13.5606C13.4937 11.4998 13.4275 11.5128 13.3658 11.5383C13.304 11.5637 13.2478 11.6011 13.2004 11.6482C13.1531 11.6954 13.1155 11.7514 13.0898 11.8131C13.0642 11.8748 13.0509 11.941 13.0508 12.0078C13.0509 12.0746 13.0642 12.1408 13.0898 12.2025C13.1155 12.2641 13.1531 12.3202 13.2004 12.3673C13.2478 12.4145 13.304 12.4519 13.3658 12.4773C13.4275 12.5027 13.4937 12.5158 13.5606 12.5156H14.5958C15.0183 12.5156 15.3851 12.3265 15.6603 12.0605C15.9354 11.7945 16.1388 11.4331 16.1388 11.0078V9.57622L19.2443 9.61723C19.3789 9.6186 19.5086 9.56653 19.6049 9.47244C19.7012 9.37834 19.7562 9.2499 19.758 9.11527C19.7589 9.04845 19.7467 8.9821 19.7219 8.92001C19.6972 8.85792 19.6605 8.80131 19.6139 8.75342C19.5672 8.70554 19.5116 8.66731 19.4502 8.64092C19.3888 8.61454 19.3228 8.60051 19.256 8.59965L16.1388 8.56059V8.24223L17.7189 6.89453C17.7977 6.82693 17.8539 6.73686 17.8799 6.6364C17.906 6.53594 17.9007 6.42991 17.8648 6.33253C17.8289 6.23516 17.764 6.15111 17.6789 6.09167C17.5939 6.03223 17.4926 6.00024 17.3888 6L13.043 5.99999Z" fill="url(#paint1_linear_10_17410)"/>
<path d="M6.48268 21L3.89648 18H5.96538V3H6.99988V18H9.06878L6.48268 21Z" fill="url(#paint2_linear_10_17410)"/>
<path d="M20 1C21.662 1 23 2.338 23 4V20C23 21.662 21.662 23 20 23H4C2.338 23 1 21.662 1 20V4C1 2.338 2.338 1 4 1H20ZM20 2H4C2.892 2 2 2.892 2 4V20C2 21.108 2.892 22 4 22H20C21.108 22 22 21.108 22 20V4C22 2.892 21.108 2 20 2Z" fill="url(#paint3_linear_10_17410)"/>
<defs>
<linearGradient id="paint0_linear_10_17410" x1="11.9819" y1="16.7417" x2="17.9996" y2="16.7417" gradientUnits="userSpaceOnUse">
<stop stop-color="#FDFC47"/>
<stop offset="1" stop-color="#24FE41"/>
</linearGradient>
<linearGradient id="paint1_linear_10_17410" x1="10.9824" y1="7.75731" x2="19.758" y2="7.75731" gradientUnits="userSpaceOnUse">
<stop stop-color="#FDFC47"/>
<stop offset="1" stop-color="#24FE41"/>
</linearGradient>
<linearGradient id="paint2_linear_10_17410" x1="3.89648" y1="12" x2="9.06878" y2="12" gradientUnits="userSpaceOnUse">
<stop stop-color="#FDFC47"/>
<stop offset="1" stop-color="#24FE41"/>
</linearGradient>
<linearGradient id="paint3_linear_10_17410" x1="1" y1="12" x2="23" y2="12" gradientUnits="userSpaceOnUse">
<stop stop-color="#FDFC47"/>
<stop offset="1" stop-color="#24FE41"/>
</linearGradient>
</defs>
</svg>
