<svg width="24" height="24" viewBox="0 0 24 24" fill="none" xmlns="http://www.w3.org/2000/svg">
<path d="M4 4V20H13V19H5V5H19V13H20V4H4ZM6 6V7H18V6H6ZM6 8V9H15V8H6ZM6 11V12H18V11H6ZM6 13V14H10V13H6ZM6 16V17H13V16H6Z" fill="url(#paint0_linear_10_17417)"/>
<path d="M14.9805 14L13.9902 14.9902L16 17L13.9902 19.0098L14.9805 20L16.9902 17.9902L19 20L19.9902 19.0098L17.9805 17L19.9902 14.9902L19 14L16.9902 16.0098L14.9805 14Z" fill="url(#paint1_linear_10_17417)"/>
<defs>
<linearGradient id="paint0_linear_10_17417" x1="4" y1="12" x2="20" y2="12" gradientUnits="userSpaceOnUse">
<stop stop-color="#FDFC47"/>
<stop offset="1" stop-color="#24FE41"/>
</linearGradient>
<linearGradient id="paint1_linear_10_17417" x1="13.9902" y1="17" x2="19.9902" y2="17" gradientUnits="userSpaceOnUse">
<stop stop-color="#FDFC47"/>
<stop offset="1" stop-color="#24FE41"/>
</linearGradient>
</defs>
</svg>
