<svg width="24" height="24" viewBox="0 0 24 24" fill="none" xmlns="http://www.w3.org/2000/svg">
<path d="M13 6V10V14H14V12.6387C14.3747 13.0656 14.8361 13.4078 15.3533 13.6425C15.8706 13.8773 16.432 13.9991 17 14C18.0609 14 19.0783 13.5786 19.8284 12.8284C20.5786 12.0783 21 11.0609 21 10C21 8.93913 20.5786 7.92172 19.8284 7.17157C19.0783 6.42143 18.0609 6 17 6C16.432 6.00089 15.8706 6.12275 15.3533 6.35747C14.8361 6.5922 14.3747 6.93441 14 7.36133V6H13ZM17 7C17.7956 7 18.5587 7.31607 19.1213 7.87868C19.6839 8.44129 20 9.20435 20 10C20 10.7956 19.6839 11.5587 19.1213 12.1213C18.5587 12.6839 17.7956 13 17 13C16.2044 13 15.4413 12.6839 14.8787 12.1213C14.3161 11.5587 14 10.7956 14 10C14 9.20435 14.3161 8.44129 14.8787 7.87868C15.4413 7.31607 16.2044 7 17 7ZM6 12C4.93913 12 3.92172 12.4214 3.17157 13.1716C2.42143 13.9217 2 14.9391 2 16C2 17.0609 2.42143 18.0783 3.17157 18.8284C3.92172 19.5786 4.93913 20 6 20C6.56804 19.9991 7.12938 19.8773 7.64666 19.6425C8.16393 19.4078 8.62528 19.0656 9 18.6387V20H10V16V12H9V13.3613C8.62528 12.9344 8.16393 12.5922 7.64666 12.3575C7.12938 12.1227 6.56804 12.0009 6 12ZM6 13C6.79565 13 7.55871 13.3161 8.12132 13.8787C8.68393 14.4413 9 15.2044 9 16C9 16.7956 8.68393 17.5587 8.12132 18.1213C7.55871 18.6839 6.79565 19 6 19C5.20435 19 4.44129 18.6839 3.87868 18.1213C3.31607 17.5587 3 16.7956 3 16C3 15.2044 3.31607 14.4413 3.87868 13.8787C4.44129 13.3161 5.20435 13 6 13Z" fill="url(#paint0_linear_10_17384)"/>
<path d="M11 4V20H12V16H21V15H12V4H11Z" fill="url(#paint1_linear_10_17384)"/>
<defs>
<linearGradient id="paint0_linear_10_17384" x1="2" y1="13" x2="21" y2="13" gradientUnits="userSpaceOnUse">
<stop stop-color="#FDFC47"/>
<stop offset="1" stop-color="#24FE41"/>
</linearGradient>
<linearGradient id="paint1_linear_10_17384" x1="11" y1="12" x2="21" y2="12" gradientUnits="userSpaceOnUse">
<stop stop-color="#FDFC47"/>
<stop offset="1" stop-color="#24FE41"/>
</linearGradient>
</defs>
</svg>
