<svg width="24" height="24" viewBox="0 0 24 24" fill="none" xmlns="http://www.w3.org/2000/svg">
<path d="M15.666 7.89453L14.334 11.666L13 15.4375L13.9434 15.7715L14.3965 14.4883C14.6075 15.0157 14.9285 15.4921 15.338 15.8857C15.7475 16.2794 16.2362 16.5814 16.7715 16.7715C17.7715 17.1248 18.8709 17.0665 19.8279 16.6094C20.785 16.1523 21.5213 15.3339 21.875 14.334C22.0502 13.8387 22.1262 13.3138 22.0985 12.7891C22.0709 12.2645 21.9401 11.7504 21.7138 11.2763C21.4874 10.8022 21.1699 10.3774 20.7793 10.026C20.3888 9.67464 19.9328 9.40365 19.4375 9.22852C18.9018 9.0401 18.3321 8.96791 17.7664 9.01674C17.2006 9.06557 16.6517 9.23431 16.1562 9.51172L16.6094 8.22852L15.666 7.89453ZM6 8.44727C5.47471 8.44727 4.95457 8.55073 4.46927 8.75175C3.98396 8.95277 3.54301 9.2474 3.17157 9.61884C2.80014 9.99027 2.5055 10.4312 2.30448 10.9165C2.10346 11.4018 2 11.922 2 12.4473C2 13.5081 2.42143 14.5255 3.17157 15.2757C3.92172 16.0258 4.93913 16.4473 6 16.4473C6.56804 16.4464 7.12938 16.3245 7.64666 16.0898C8.16393 15.8551 8.62528 15.5129 9 15.0859V16.4473H10V12.4473V8.44727H9V9.80859C8.62528 9.38168 8.16393 9.03947 7.64666 8.80474C7.12938 8.57001 6.56804 8.44815 6 8.44727ZM6 9.44727C6.39397 9.44727 6.78407 9.52486 7.14805 9.67563C7.51203 9.82639 7.84274 10.0474 8.12132 10.3259C8.3999 10.6045 8.62087 10.9352 8.77164 11.2992C8.9224 11.6632 9 12.0533 9 12.4473C9 13.2429 8.68393 14.006 8.12132 14.5686C7.55871 15.1312 6.79565 15.4473 6 15.4473C5.20435 15.4473 4.44129 15.1312 3.87868 14.5686C3.31607 14.006 3 13.2429 3 12.4473C3 12.0533 3.0776 11.6632 3.22836 11.2992C3.37913 10.9352 3.6001 10.6045 3.87868 10.3259C4.15726 10.0474 4.48797 9.82639 4.85195 9.67563C5.21593 9.52486 5.60603 9.44727 6 9.44727ZM18.0117 10.002C18.3837 9.99026 18.7546 10.0479 19.1055 10.1719C19.8555 10.4372 20.4694 10.9895 20.8123 11.7074C21.1551 12.4253 21.1987 13.2499 20.9336 14C20.6683 14.75 20.116 15.364 19.3981 15.7068C18.6802 16.0496 17.8555 16.0933 17.1055 15.8281C16.7339 15.697 16.3919 15.4939 16.0988 15.2305C15.8057 14.9671 15.5674 14.6486 15.3975 14.2931C15.2275 13.9377 15.1293 13.5522 15.1083 13.1587C15.0874 12.7653 15.1442 12.3715 15.2754 12C15.477 11.43 15.8462 10.9343 16.3345 10.5777C16.8228 10.2212 17.4074 10.0205 18.0117 10.002Z" fill="url(#paint0_linear_10_17379)"/>
<path d="M11 4V20H12V17.5801L21.3594 19.6855L21.5918 18.6582L12 16.5V4H11Z" fill="url(#paint1_linear_10_17379)"/>
<defs>
<linearGradient id="paint0_linear_10_17379" x1="2" y1="12.4472" x2="22.1041" y2="12.4472" gradientUnits="userSpaceOnUse">
<stop stop-color="#FDFC47"/>
<stop offset="1" stop-color="#24FE41"/>
</linearGradient>
<linearGradient id="paint1_linear_10_17379" x1="11" y1="12" x2="21.5918" y2="12" gradientUnits="userSpaceOnUse">
<stop stop-color="#FDFC47"/>
<stop offset="1" stop-color="#24FE41"/>
</linearGradient>
</defs>
</svg>
