<svg width="24" height="24" viewBox="0 0 24 24" fill="none" xmlns="http://www.w3.org/2000/svg">
<path d="M4 4V5V20H5H11V19V5V4H5H4ZM5 5H10V19H5V5ZM6 6V7H9V6H6ZM6 8V9H9V8H6ZM6 10V11H9V10H6ZM6 12V13H8V12H6Z" fill="url(#paint0_linear_10_17397)"/>
<path d="M14 4V5H19V19H14V20H20V19V4H14ZM14 19V5H13V19H14Z" fill="url(#paint1_linear_10_17397)"/>
<defs>
<linearGradient id="paint0_linear_10_17397" x1="4" y1="12" x2="11" y2="12" gradientUnits="userSpaceOnUse">
<stop stop-color="#FDFC47"/>
<stop offset="1" stop-color="#24FE41"/>
</linearGradient>
<linearGradient id="paint1_linear_10_17397" x1="13" y1="12" x2="20" y2="12" gradientUnits="userSpaceOnUse">
<stop stop-color="#FDFC47"/>
<stop offset="1" stop-color="#24FE41"/>
</linearGradient>
</defs>
</svg>
