<svg width="24" height="24" viewBox="0 0 24 24" fill="none" xmlns="http://www.w3.org/2000/svg">
<path d="M12 4C7.568 4 4 7.568 4 12C4 16.432 7.568 20 12 20V19C8.122 19 5 15.878 5 12C5 8.122 8.122 5 12 5C15.878 5 19 8.122 19 12H20C20 7.568 16.432 4 12 4ZM12 6C8.676 6 6 8.676 6 12H9C9 10.338 10.338 9 12 9V6ZM12 10C10.892 10 10 10.892 10 12C10 13.108 10.892 14 12 14V13C11.446 13 11 12.554 11 12C11 11.446 11.446 11 12 11C12.554 11 13 11.446 13 12H14C14 10.892 13.108 10 12 10ZM16 11V16.2773C15.7049 16.1061 15.367 16 15 16C13.892 16 13 16.892 13 18C13 19.108 13.892 20 15 20C16.108 20 17 19.108 17 18V13V12H18L17 11H16Z" fill="url(#paint0_linear_10_17481)"/>
<defs>
<linearGradient id="paint0_linear_10_17481" x1="4" y1="12" x2="20" y2="12" gradientUnits="userSpaceOnUse">
<stop stop-color="#FDFC47"/>
<stop offset="1" stop-color="#24FE41"/>
</linearGradient>
</defs>
</svg>
