<svg width="24" height="24" viewBox="0 0 24 24" fill="none" xmlns="http://www.w3.org/2000/svg">
<path d="M12 4C7.568 4 4 7.568 4 12C4 16.432 7.568 20 12 20C16.432 20 20 16.432 20 12C20 7.568 16.432 4 12 4ZM12 5C15.878 5 19 8.122 19 12C19 15.878 15.878 19 12 19C8.122 19 5 15.878 5 12C5 8.122 8.122 5 12 5ZM12 10C10.892 10 10 10.892 10 12C10 13.108 10.892 14 12 14C13.108 14 14 13.108 14 12C14 10.892 13.108 10 12 10ZM12 11C12.554 11 13 11.446 13 12C13 12.554 12.554 13 12 13C11.446 13 11 12.554 11 12C11 11.446 11.446 11 12 11Z" fill="url(#paint0_linear_10_17477)"/>
<defs>
<linearGradient id="paint0_linear_10_17477" x1="4" y1="12" x2="20" y2="12" gradientUnits="userSpaceOnUse">
<stop stop-color="#FDFC47"/>
<stop offset="1" stop-color="#24FE41"/>
</linearGradient>
</defs>
</svg>
