<svg width="24" height="24" viewBox="0 0 24 24" fill="none" xmlns="http://www.w3.org/2000/svg">
<path d="M12 4C7.568 4 4 7.568 4 12C4 16.432 7.568 20 12 20C12.6921 20 13.3603 19.904 14 19.7402V18.707C13.3662 18.8946 12.6962 19 12 19C8.122 19 5 15.878 5 12C5 8.122 8.122 5 12 5C15.878 5 19 8.122 19 12C19 12.6962 18.8946 13.3662 18.707 14H19.7402C19.9039 13.3603 20 12.6921 20 12C20 7.568 16.432 4 12 4ZM12 6C8.676 6 6 8.676 6 12H9C9 10.338 10.338 9 12 9V6ZM12 10C10.892 10 10 10.892 10 12C10 13.108 10.892 14 12 14C13.108 14 14 13.108 14 12C14 10.892 13.108 10 12 10ZM12 11C12.554 11 13 11.446 13 12C13 12.554 12.554 13 12 13C11.446 13 11 12.554 11 12C11 11.446 11.446 11 12 11ZM15 12C15 12.3529 14.9313 12.6876 14.8184 13H17.9102C17.9663 12.6751 18 12.3417 18 12H15ZM16.4043 14.041C17.3173 14.2269 18 15.0305 18 16C18 16.5815 17.7511 17.1001 17.3574 17.4648C17.1371 17.2039 17 16.8698 17 16.5C17 16.4182 17.0129 16.3397 17.0254 16.2617C16.4158 16.6036 16 17.2486 16 18C16 19.108 16.892 20 18 20C19.108 20 20 19.108 20 18C20 15.9225 18.4262 14.2452 16.4043 14.041ZM14 14.2246C13.4691 14.7018 12.7733 15 12 15V18C12.7033 18 13.3739 17.8728 14 17.6523V14.2246Z" fill="url(#paint0_linear_10_17471)"/>
<defs>
<linearGradient id="paint0_linear_10_17471" x1="4" y1="12" x2="20" y2="12" gradientUnits="userSpaceOnUse">
<stop stop-color="#FDFC47"/>
<stop offset="1" stop-color="#24FE41"/>
</linearGradient>
</defs>
</svg>
