<svg width="24" height="24" viewBox="0 0 24 24" fill="none" xmlns="http://www.w3.org/2000/svg">
<path d="M12 4C7.568 4 4 7.568 4 12C4 16.432 7.568 20 12 20V19C8.122 19 5 15.878 5 12C5 8.122 8.122 5 12 5C15.878 5 19 8.122 19 12H20C20 7.568 16.432 4 12 4ZM12 10C10.892 10 10 10.892 10 12C10 13.108 10.892 14 12 14V13C11.446 13 11 12.554 11 12C11 11.446 11.446 11 12 11C12.554 11 13 11.446 13 12H14C14 10.892 13.108 10 12 10ZM14.5 14C13.669 14 13 14.669 13 15.5C13 16.1542 13.4181 16.7022 14 16.9082V20H18V18V17C18.554 17 19 16.554 19 16C19 15.446 18.554 15 18 15C17.446 15 17 15.446 17 16H15.9082C15.9639 15.8428 16 15.6768 16 15.5C16 14.669 15.331 14 14.5 14ZM18 18L20 20V16L18 18ZM15 17H17V19H15V17Z" fill="url(#paint0_linear_10_17485)"/>
<defs>
<linearGradient id="paint0_linear_10_17485" x1="4" y1="12" x2="20" y2="12" gradientUnits="userSpaceOnUse">
<stop stop-color="#FDFC47"/>
<stop offset="1" stop-color="#24FE41"/>
</linearGradient>
</defs>
</svg>
