<svg width="24" height="24" viewBox="0 0 24 24" fill="none" xmlns="http://www.w3.org/2000/svg">
<path d="M14.0098 4.99978C12.3154 4.95968 11.0692 5.89541 10.2383 7.19118C9.40702 8.48748 8.90692 10.1523 8.49023 11.7986C8.07354 13.4449 7.7448 15.0784 7.33203 16.2556C7.12564 16.8442 6.89455 17.3145 6.66211 17.6033C6.42967 17.8921 6.24316 17.9949 5.99023 17.9998C5.12954 17.9999 4 17.9998 4 17.9998V18.9998C4 18.9998 5.13743 18.9999 6 18.9998H6.00391H6.00977C6.59022 18.9885 7.0886 18.6687 7.44141 18.2302C7.79423 17.7918 8.04936 17.2303 8.27539 16.5857C8.72745 15.2964 9.05246 13.6566 9.46094 12.0427C9.86942 10.4289 10.3636 8.84758 11.0801 7.73025C11.7966 6.61292 12.6511 5.96747 13.9883 5.99978H13.9922H13.9961C16.7086 6.02158 17.8601 7.13875 18.4512 8.25173C18.84 8.98399 18.7794 9.30107 18.8125 9.71657C17.113 8.9618 15.6768 8.76514 14.668 9.2986C13.4661 9.93411 12.9204 11.2785 12.832 12.6834C12.7436 14.0883 13.0884 15.6106 13.7871 16.8299C14.4858 18.0491 15.5965 19.0004 17 18.9998C18.5484 19.0146 20.0059 18.9998 20.0059 18.9998L19.9941 17.9998C19.9941 17.9998 18.5432 18.0146 17.0039 17.9998H17.002H17C16.0482 18.0002 15.2417 17.3567 14.6543 16.3318C14.0669 15.3069 13.7552 13.9367 13.8301 12.7459C13.905 11.555 14.3439 10.5996 15.1348 10.1814C15.9256 9.76324 17.2317 9.78906 19.2539 10.9353L19.9648 11.3377L20 10.5213C20 10.5213 20.0644 9.1585 19.334 7.78298C18.6042 6.4088 17.0077 5.02653 14.0117 4.99978H14.0098Z" fill="url(#paint0_linear_10_17464)"/>
<defs>
<linearGradient id="paint0_linear_10_17464" x1="4" y1="12.0024" x2="20.0059" y2="12.0024" gradientUnits="userSpaceOnUse">
<stop stop-color="#FDFC47"/>
<stop offset="1" stop-color="#24FE41"/>
</linearGradient>
</defs>
</svg>
