<svg width="24" height="24" viewBox="0 0 24 24" fill="none" xmlns="http://www.w3.org/2000/svg">
<path d="M12 4C7.58764 4 4 7.58764 4 12C4 16.4124 7.58764 20 12 20C16.4124 20 20 16.4124 20 12C20 7.58764 16.4124 4 12 4ZM12 5C15.8719 5 19 8.12808 19 12C19 15.8719 15.8719 19 12 19C8.12808 19 5 15.8719 5 12C5 8.12808 8.12808 5 12 5ZM10.4844 7C10.4047 7.00252 10.3268 7.02405 10.2572 7.06278C10.1875 7.10151 10.1282 7.15632 10.084 7.22266L8.08398 10.2227C8.04633 10.2773 8.01992 10.3388 8.00628 10.4037C7.99265 10.4686 7.99206 10.5356 8.00456 10.6007C8.01706 10.6659 8.04239 10.7279 8.07908 10.7831C8.11577 10.8384 8.16309 10.8858 8.21827 10.9226C8.27346 10.9594 8.33542 10.9848 8.40053 10.9974C8.46565 11.0101 8.53262 11.0096 8.59756 10.9961C8.6625 10.9826 8.72409 10.9563 8.77877 10.9187C8.83344 10.8812 8.88009 10.8331 8.91602 10.7773L10 9.15234V15C9.99906 15.0663 10.0113 15.132 10.036 15.1935C10.0607 15.255 10.0974 15.311 10.1439 15.3582C10.1904 15.4053 10.2459 15.4428 10.307 15.4684C10.3681 15.494 10.4337 15.5071 10.5 15.5071C10.5663 15.5071 10.6319 15.494 10.693 15.4684C10.7541 15.4428 10.8096 15.4053 10.8561 15.3582C10.9026 15.311 10.9393 15.255 10.964 15.1935C10.9887 15.132 11.0009 15.0663 11 15V7.5C11 7.43301 10.9866 7.36669 10.9605 7.30499C10.9344 7.24329 10.8962 7.18746 10.8481 7.14082C10.8 7.09418 10.743 7.05769 10.6805 7.03349C10.618 7.0093 10.5513 6.99791 10.4844 7ZM13.4922 8.49219C13.4265 8.49321 13.3617 8.50716 13.3014 8.53323C13.2412 8.55931 13.1866 8.597 13.1409 8.64416C13.0952 8.69131 13.0592 8.74701 13.0351 8.80806C13.0109 8.86912 12.999 8.93434 13 9V16.5C13 16.6073 13.0346 16.7117 13.0985 16.7979C13.1625 16.884 13.2525 16.9473 13.3551 16.9784C13.4578 17.0095 13.5678 17.0067 13.6688 16.9705C13.7698 16.9343 13.8565 16.8666 13.916 16.7773L15.916 13.7773C15.9537 13.7227 15.9801 13.6612 15.9937 13.5963C16.0073 13.5314 16.0079 13.4644 15.9954 13.3993C15.9829 13.3341 15.9576 13.2721 15.9209 13.2169C15.8842 13.1616 15.8369 13.1142 15.7817 13.0774C15.7265 13.0406 15.6646 13.0152 15.5995 13.0026C15.5343 12.99 15.4674 12.9904 15.4024 13.0039C15.3375 13.0175 15.2759 13.0438 15.2212 13.0813C15.1666 13.1189 15.1199 13.1669 15.084 13.2227L14 14.8477V9C14.001 8.93302 13.9886 8.86652 13.9635 8.80444C13.9383 8.74235 13.901 8.68595 13.8536 8.63859C13.8062 8.59122 13.7498 8.55386 13.6878 8.52871C13.6257 8.50356 13.5592 8.49114 13.4922 8.49219Z" fill="url(#paint0_linear_10_17491)"/>
<defs>
<linearGradient id="paint0_linear_10_17491" x1="4" y1="12" x2="20" y2="12" gradientUnits="userSpaceOnUse">
<stop stop-color="#FDFC47"/>
<stop offset="1" stop-color="#24FE41"/>
</linearGradient>
</defs>
</svg>
