<svg width="24" height="24" viewBox="0 0 24 24" fill="none" xmlns="http://www.w3.org/2000/svg">
<path d="M4 4V6V7H7V6V4H5H4ZM17 4V5H19V7H20V5V4H17ZM5 5H6V6H5V5ZM8 6V7H10V6H8ZM11 6V7H13V6H11ZM14 6V7H16V6H14ZM6 8V10H7V8H6ZM10 8V15H11H16V14H11V8H10ZM17 8V10H18V8H17ZM6 11V13H7V11H6ZM17 11V13H18V11H17ZM6 14V16H7V14H6ZM17 14V16H18V14H17ZM4 17V18V20H5H6H7V17H4ZM8 17V18H10V17H8ZM11 17V18H13V17H11ZM14 17V18H16V17H14ZM17 17V18V19V20H18H19H20V19V18V17H18H17ZM5 18H6V19H5V18ZM18 18H19V19H18V18Z" fill="url(#paint0_linear_10_17497)"/>
<defs>
<linearGradient id="paint0_linear_10_17497" x1="4" y1="12" x2="20" y2="12" gradientUnits="userSpaceOnUse">
<stop stop-color="#FDFC47"/>
<stop offset="1" stop-color="#24FE41"/>
</linearGradient>
</defs>
</svg>
