<svg width="24" height="24" viewBox="0 0 24 24" fill="none" xmlns="http://www.w3.org/2000/svg">
<path opacity="0.5" d="M6 5V6.00002H18V5H6ZM7 7.00003V8.00005H18V7.00003H7ZM6 19V20H17V19H6Z" fill="url(#paint0_linear_10_17527)"/>
<path d="M7 11V12H17V11H7ZM7 13V14H17V13H7ZM7 15.0001V16H17V15.0001H7Z" fill="url(#paint1_linear_10_17527)"/>
<path d="M5 7V8.99992H3V9.99993H5V17.9999H18V20H19V17.9999H21V16.9999H19V8.99992H6V7H5ZM6 9.99993H18V16.9999H6V9.99993Z" fill="url(#paint2_linear_10_17527)"/>
<defs>
<linearGradient id="paint0_linear_10_17527" x1="6" y1="12.5" x2="18" y2="12.5" gradientUnits="userSpaceOnUse">
<stop stop-color="#FDFC47"/>
<stop offset="1" stop-color="#24FE41"/>
</linearGradient>
<linearGradient id="paint1_linear_10_17527" x1="7" y1="13.5" x2="17" y2="13.5" gradientUnits="userSpaceOnUse">
<stop stop-color="#FDFC47"/>
<stop offset="1" stop-color="#24FE41"/>
</linearGradient>
<linearGradient id="paint2_linear_10_17527" x1="3" y1="13.5" x2="21" y2="13.5" gradientUnits="userSpaceOnUse">
<stop stop-color="#FDFC47"/>
<stop offset="1" stop-color="#24FE41"/>
</linearGradient>
</defs>
</svg>
