<svg width="24" height="24" viewBox="0 0 24 24" fill="none" xmlns="http://www.w3.org/2000/svg">
<path d="M12 4C9.87827 4 7.84344 4.31607 6.34315 4.87868C4.84285 5.44129 4 6.20435 4 7V17C4 17.7956 4.84285 18.5587 6.34315 19.1213C7.84344 19.6839 9.87827 20 12 20C14.1217 20 16.1566 19.6839 17.6569 19.1213C19.1571 18.5587 20 17.7956 20 17V7C20 6.20435 19.1571 5.44129 17.6569 4.87868C16.1566 4.31607 14.1217 4 12 4ZM12 5C13.8565 5 15.637 5.21071 16.9497 5.58579C18.2625 5.96086 19 6.46957 19 7C19 7.53043 18.2625 8.03914 16.9497 8.41421C15.637 8.78929 13.8565 9 12 9C10.1435 9 8.36301 8.78929 7.05025 8.41421C5.7375 8.03914 5 7.53043 5 7C5 6.46957 5.7375 5.96086 7.05025 5.58579C8.36301 5.21071 10.1435 5 12 5ZM19 8.44531V12C19 12.5304 18.2625 13.0391 16.9497 13.4142C15.637 13.7893 13.8565 14 12 14C10.1435 14 8.36301 13.7893 7.05025 13.4142C5.7375 13.0391 5 12.5304 5 12V8.45117C5.69142 8.9203 6.70537 9.31139 7.93642 9.58377C9.16747 9.85616 10.5706 9.99988 12 10C13.4309 9.9993 14.8352 9.8547 16.0664 9.58125C17.2975 9.30781 18.3106 8.91553 19 8.44531ZM19 13.4453V17C19 17.5304 18.2625 18.0391 16.9497 18.4142C15.637 18.7893 13.8565 19 12 19C10.1435 19 8.36301 18.7893 7.05025 18.4142C5.7375 18.0391 5 17.5304 5 17V13.4512C5.69142 13.9203 6.70538 14.3114 7.93642 14.5838C9.16747 14.8562 10.5706 14.9999 12 15C13.4309 14.9993 14.8352 14.8547 16.0664 14.5813C17.2975 14.3078 18.3106 13.9155 19 13.4453Z" fill="url(#paint0_linear_10_17535)"/>
<defs>
<linearGradient id="paint0_linear_10_17535" x1="4" y1="12" x2="20" y2="12" gradientUnits="userSpaceOnUse">
<stop stop-color="#FDFC47"/>
<stop offset="1" stop-color="#24FE41"/>
</linearGradient>
</defs>
</svg>
