<svg width="24" height="24" viewBox="0 0 24 24" fill="none" xmlns="http://www.w3.org/2000/svg">
<path d="M3 4V20H4H6V19H4V5H6V4H4H3ZM17 4V5H19V14H20V4H19H17ZM6 15V16V17H14V16H7V15H6Z" fill="url(#paint0_linear_10_17547)"/>
<path d="M15.834 15L15 15.834L16.666 17.5L15 19.166L15.834 20L17.5 18.334L19.166 20L20 19.166L18.334 17.5L20 15.834L19.166 15L17.5 16.666L15.834 15Z" fill="url(#paint1_linear_10_17547)"/>
<defs>
<linearGradient id="paint0_linear_10_17547" x1="3" y1="12" x2="20" y2="12" gradientUnits="userSpaceOnUse">
<stop stop-color="#FDFC47"/>
<stop offset="1" stop-color="#24FE41"/>
</linearGradient>
<linearGradient id="paint1_linear_10_17547" x1="15" y1="15" x2="17.6804" y2="21.0309" gradientUnits="userSpaceOnUse">
<stop stop-color="#FF0500"/>
<stop offset="1" stop-color="#FD3632"/>
</linearGradient>
</defs>
</svg>
