<svg width="24" height="24" viewBox="0 0 24 24" fill="none" xmlns="http://www.w3.org/2000/svg">
<path d="M15 4C13.338 4 12 5.338 12 7C12 8.662 13.338 10 15 10C16.662 10 18 8.662 18 7C18 5.338 16.662 4 15 4ZM9 7C7.338 7 6 8.338 6 10C6 11.662 7.338 13 9 13C10.662 13 12 11.662 12 10C12 8.338 10.662 7 9 7ZM15 11C14.3537 11 13.744 11.1342 13.1816 11.3613L13.6367 12.2754C14.0645 12.1149 14.5145 12 15 12C16.483 12 17.7584 12.8073 18.4492 14H19.5801C18.8106 12.2328 17.0568 11 15 11ZM9 14C6.22998 14 4 16.23 4 19V20H14V19C14 16.23 11.77 14 9 14ZM9 15C11.216 15 13 16.784 13 19H5C5 16.784 6.78398 15 9 15ZM17 15V16H18V15H17ZM17 17V18H18V17H17ZM17 19V20H18V19H17Z" fill="url(#paint0_linear_10_17563)"/>
<defs>
<linearGradient id="paint0_linear_10_17563" x1="4" y1="12" x2="19.5801" y2="12" gradientUnits="userSpaceOnUse">
<stop stop-color="#FDFC47"/>
<stop offset="1" stop-color="#24FE41"/>
</linearGradient>
</defs>
</svg>
