<svg width="24" height="24" viewBox="0 0 24 24" fill="none" xmlns="http://www.w3.org/2000/svg">
<path d="M12 4C7.58172 4 4 5.34315 4 7V17C4 18.6569 7.58172 20 12 20C13.8947 20 15.7281 19.7483 17.1738 19.2891L16.4395 18.5449C16.4252 18.5482 16.4109 18.5514 16.3965 18.5547C15.9441 18.7443 15.5212 19 15 19C14.7059 19 14.421 18.9634 14.1445 18.9023C13.4518 18.9666 12.7283 18.9995 12 19C8.13401 19 5 18.1046 5 17V13.4512C6.23857 14.2884 8.46848 14.8537 11.002 14.9727C11.0044 14.6297 11.0638 14.3023 11.1484 13.9844C7.63906 13.8615 5.00136 13.0102 5 12V8.45117C6.40812 9.40658 9.08901 9.99976 12 10C14.9143 9.99858 17.596 9.40298 19 8.44531V16.8887L19.7891 17.668C19.9259 17.449 19.9967 17.2249 20 17V7C20 5.34315 16.4183 4 12 4ZM12 5C15.866 5 19 5.89543 19 7C19 8.10457 15.866 9 12 9C8.13401 9 5 8.10457 5 7C5 5.89543 8.13401 5 12 5ZM15 12C13.338 12 12 13.338 12 15C12 16.662 13.338 18 15 18C15.6494 18 16.26 17.7855 16.75 17.4375L19.2812 20L20 19.2812L17.4375 16.75C17.7856 16.2601 18 15.6494 18 15C18 13.338 16.662 12 15 12ZM15 13C16.1 13 17 13.892 17 15C17 16.108 16.1 17 15 17C13.9 17 13 16.108 13 15C13 13.892 13.892 13 15 13Z" fill="url(#paint0_linear_10_17579)"/>
<defs>
<linearGradient id="paint0_linear_10_17579" x1="4" y1="12" x2="20" y2="12" gradientUnits="userSpaceOnUse">
<stop stop-color="#FDFC47"/>
<stop offset="1" stop-color="#24FE41"/>
</linearGradient>
</defs>
</svg>
