<svg width="24" height="24" viewBox="0 0 24 24" fill="none" xmlns="http://www.w3.org/2000/svg">
<path d="M4 4V10H10V4H4ZM11 4V5H12V4H11ZM12 5V6H11V7H13V5H12ZM14 4V10H20V4H14ZM5 5H9V9H5V5ZM15 5H19V9H15V5ZM6 6V8H8V6H6ZM16 6V8H18V6H16ZM11 8V9H12V8H11ZM12 9V10H13V9H12ZM5 11V12H6V11H5ZM6 12V13H8V12H6ZM8 12H9H10V11H9H8V12ZM10 12V13H12V11H11V12H10ZM12 13V14H11V15H12V16H13C13 15 13 14 13 13H12ZM12 16H11V17H12V16ZM5 12H4V13H5V12ZM13 11V12H14V11H13ZM14 12V13C15 13 16 13 17 13V12H16V11H15V12H14ZM18 11C18 11.6667 18 12.3333 18 13H19V12H20V11H18ZM4 14V20H10V14H4ZM14 14V18H15V19H16V18H18V17H19V16H18V14H14ZM19 16H20V14H19V16ZM19 17V18H20V17H19ZM16 19V20H18V19H16ZM5 15H9V19H5V15ZM15 15H17V17H15V15ZM6 16V18H8V16H6ZM11 18V19H12V18H11ZM13 19V20H14V19H13ZM19 19V20H20V19H19Z" fill="url(#paint0_linear_10_17596)"/>
<defs>
<linearGradient id="paint0_linear_10_17596" x1="4" y1="12" x2="20" y2="12" gradientUnits="userSpaceOnUse">
<stop stop-color="#FDFC47"/>
<stop offset="1" stop-color="#24FE41"/>
</linearGradient>
</defs>
</svg>
