<svg width="24" height="24" viewBox="0 0 24 24" fill="none" xmlns="http://www.w3.org/2000/svg">
<path d="M11 3C10.3592 3 9.73905 3.08362 9.14258 3.22461C8.86458 3.29032 8.5939 3.37111 8.32812 3.46484C8.22076 3.50271 8.11299 3.53783 8.00781 3.58008C8.00591 3.58084 8.00386 3.58126 8.00195 3.58203C7.39018 3.82832 6.82009 4.15116 6.29492 4.5332C6.26207 4.5571 6.22974 4.58108 6.19727 4.60547C5.95688 4.78601 5.72596 4.9776 5.50781 5.18359C5.4964 5.19437 5.484 5.204 5.47266 5.21484C5.00207 5.66447 4.58973 6.17162 4.24023 6.72461C4.22477 6.74912 4.21052 6.77414 4.19531 6.79883C4.03101 7.06517 3.88077 7.34088 3.74805 7.62695C3.74412 7.63543 3.74022 7.64385 3.73633 7.65234C3.45489 8.26459 3.24887 8.91666 3.12891 9.60156C3.0493 10.056 3 10.522 3 11C3 14.4035 5.1081 17.2893 8.0918 18.4492C8.09416 18.4503 8.09532 18.4521 8.09766 18.4531C8.10396 18.4556 8.11088 18.4566 8.11719 18.459C8.44864 18.5865 8.78929 18.6923 9.14062 18.7754C9.14463 18.7763 9.14833 18.7784 9.15234 18.7793C9.74572 18.9187 10.3629 19 11 19C11.6929 19 12.3604 18.9031 13 18.7383V17.7012C12.3658 17.8896 11.697 18 11 18C10.1523 18 9.34446 17.842 8.59375 17.5684C8.60736 17.5556 8.62873 17.5495 8.63281 17.5293C8.64181 17.4896 8.62319 17.4717 8.62109 17.4082C8.63609 17.343 8.7071 17.3359 8.7207 17.2695C8.6929 17.2219 8.62784 17.253 8.58594 17.2285C8.54524 17.2048 8.5274 17.152 8.5332 17.1016C8.6028 17.0722 8.73722 17.1717 8.78711 17.0742C8.81201 17.0281 8.75927 16.9157 8.79297 16.8691C8.81637 16.8377 8.94475 16.8363 8.99414 16.8281C9.06504 16.8158 9.14753 16.8015 9.1875 16.7754C9.2311 16.7468 9.29473 16.6643 9.28711 16.582C9.28311 16.5426 9.25646 16.5288 9.22656 16.4941C9.20146 16.4649 9.19193 16.4281 9.17383 16.4004C9.14253 16.3536 9.09388 16.3619 9.08008 16.2949C9.17588 16.2761 9.32236 16.373 9.46094 16.334C9.52664 16.3155 9.61795 16.175 9.64844 16.1133C9.64944 16.0939 9.65767 16.0648 9.66797 16.041C9.68027 16.0151 9.70508 15.9939 9.70898 15.9805C9.70998 15.9441 9.7125 15.9155 9.7207 15.8926C9.745 15.8248 9.80754 15.804 9.84766 15.7539C9.87806 15.7161 9.89308 15.6706 9.92188 15.6328C9.95327 15.5917 9.98125 15.5558 10.002 15.5195C10.0217 15.3977 9.95382 15.3118 9.98242 15.2051C10.0144 15.0852 10.1788 15.0131 10.2949 14.959C10.3349 14.9404 10.3756 14.9099 10.4082 14.8984C10.4886 14.8702 10.5886 14.8864 10.6621 14.8594C10.7872 14.8137 10.8016 14.6784 10.8633 14.5645C10.8927 14.5106 10.9297 14.4564 10.9355 14.418C10.9405 14.3834 10.9232 14.3514 10.9297 14.3105C10.9357 14.2704 10.9734 14.2357 10.9844 14.1914C10.9989 14.1337 11.0039 14.0488 11.0039 13.9844C11.0039 13.9316 10.979 13.8857 10.9766 13.8379C10.9676 13.6647 11.0395 13.645 11.1035 13.5508C11.1354 13.504 11.1494 13.4496 11.1719 13.416C11.2794 13.2555 11.4647 13.1781 11.4512 12.9355C11.4462 12.8552 11.3971 12.6741 11.3379 12.6484C11.3042 12.6337 11.2266 12.6483 11.1777 12.6289C11.0199 12.57 10.9272 12.3738 10.7637 12.3613C10.7289 12.3593 10.6955 12.3758 10.6562 12.375C10.5916 12.3749 10.4955 12.3305 10.4238 12.3223C10.3783 12.3173 10.3164 12.3357 10.2891 12.3223C10.2473 12.3021 10.2428 12.2241 10.209 12.2012C10.1819 12.1828 10.1306 12.1778 10.0898 12.1621C10.0241 12.1366 9.97042 12.1068 9.89453 12.1016C9.87113 12.1006 9.84351 12.1114 9.81641 12.1074C9.77441 12.1014 9.74005 12.0509 9.70117 12.0273C9.65277 11.9979 9.60795 11.9836 9.58789 11.9414C9.63179 11.7976 9.51188 11.7569 9.48242 11.6738C9.46852 11.6349 9.47559 11.5894 9.46289 11.5547C9.44559 11.5049 9.39577 11.4751 9.3418 11.4336C9.2452 11.3593 9.15957 11.2905 9.02148 11.2734C8.96078 11.2664 8.90145 11.2918 8.82812 11.2871C8.75043 11.2821 8.65189 11.2129 8.59375 11.1465C8.53725 11.0816 8.51025 11.0252 8.46094 10.9941C8.41424 10.9644 8.35213 10.9639 8.32031 10.9336C8.30621 10.9201 8.30747 10.8983 8.29297 10.8672C8.26957 10.8187 8.23047 10.7926 8.25977 10.7344C8.20647 10.7072 8.20474 10.7836 8.14648 10.7734C8.09448 10.6997 8.05141 10.664 7.93359 10.6855C7.87979 10.6865 7.85008 10.7638 7.78711 10.7656C7.73551 10.7657 7.69509 10.709 7.62695 10.6992C7.57545 10.6922 7.51509 10.7145 7.47852 10.707C7.42162 10.696 7.40368 10.6476 7.35156 10.6133C7.31356 10.5882 7.24019 10.5443 7.21875 10.5449C7.15165 10.545 7.10423 10.6877 7.01172 10.6387C6.96662 10.5818 7.08455 10.5533 7.03125 10.5C6.99085 10.4595 6.95813 10.5168 6.92578 10.5391C6.88888 10.5646 6.85347 10.5904 6.8125 10.6055C6.7208 10.6397 6.66346 10.6232 6.5918 10.6602C6.5253 10.6947 6.52203 10.7521 6.48438 10.8203C6.45348 10.8763 6.38401 10.9576 6.33789 10.9609C6.28199 10.9649 6.22844 10.8813 6.17773 10.8594C6.02483 10.7932 5.95119 10.9181 5.82422 10.9199C5.7064 10.92 5.53705 10.7299 5.54297 10.6191C5.54697 10.5516 5.58174 10.4489 5.58984 10.3652C5.59584 10.2987 5.64198 10.26 5.64258 10.1992C5.64268 10.1182 5.53694 10.0545 5.48438 10.0449C5.35964 10.022 5.18593 10.0954 5.04297 10.0391C5.01577 9.99396 5.07454 9.9638 5.08984 9.91992C5.09884 9.89492 5.09432 9.85953 5.10352 9.83203C5.11932 9.78973 5.16369 9.75604 5.18359 9.71094C5.19859 9.67664 5.2016 9.62669 5.2168 9.58398C5.2341 9.53548 5.26573 9.50672 5.26953 9.47266C5.27453 9.42756 5.25836 9.37541 5.22266 9.3457C5.1117 9.3517 5.03962 9.35567 4.97656 9.38477C4.83209 9.45047 4.85914 9.64521 4.71484 9.69141C4.66494 9.70751 4.59595 9.70885 4.54102 9.71875C4.49372 9.72775 4.43759 9.75285 4.38867 9.75195C4.33097 9.75185 4.22969 9.6952 4.19531 9.6582C4.18261 9.64447 4.16828 9.60421 4.14844 9.56445C4.227 9.1848 4.3415 8.81894 4.47852 8.46484C4.57174 8.41382 4.65199 8.33742 4.76172 8.33008C4.81832 8.32608 4.9026 8.34612 4.95703 8.35742C5.00733 8.35842 5.04634 8.401 5.08984 8.4043C5.21323 8.4053 5.24309 8.31746 5.34375 8.26367C5.44772 8.27827 5.51545 8.24476 5.60938 8.25586C5.67338 8.26286 5.71956 8.33409 5.76953 8.33789C5.81163 8.33989 5.85004 8.29633 5.89062 8.30273C5.93013 8.30873 5.99754 8.39517 6.00391 8.44336C6.01091 8.50326 5.95946 8.55908 5.97656 8.625C6.03946 8.689 6.15429 8.70141 6.24414 8.73828C6.30264 8.68998 6.25314 8.60105 6.24414 8.53125C6.24214 8.50035 6.24814 8.47166 6.24414 8.44336C6.23814 8.39526 6.217 8.35176 6.2168 8.31055C6.21619 8.12056 6.37061 8.03205 6.49805 7.95703C6.55325 7.92443 6.59666 7.86763 6.64453 7.84375C6.71203 7.80995 6.76245 7.80113 6.81836 7.76953C6.91951 7.71273 7.00686 7.66596 7.08594 7.60156C7.12264 7.51546 7.0878 7.40154 7.0918 7.31641C7.1285 7.29401 7.15853 7.32627 7.19727 7.32227C7.25837 7.30927 7.26429 7.2219 7.29883 7.1875C7.31883 7.1678 7.37354 7.15437 7.39844 7.13477C7.45934 7.08707 7.47814 7.01469 7.53125 6.99414C7.55025 6.98714 7.595 6.98917 7.625 6.98047C7.6647 6.96947 7.72072 6.92239 7.78516 6.90039C7.82696 6.88609 7.92342 6.88339 7.93945 6.86719C7.95915 6.84719 7.93952 6.79187 7.94531 6.76172C7.97771 6.611 8.20563 6.57807 8.33984 6.52734C8.43384 6.49164 8.52946 6.42718 8.63281 6.44727C8.61261 6.51887 8.51675 6.49318 8.5332 6.58008C8.556 6.70084 8.71712 6.54524 8.75977 6.52734C8.84117 6.49314 8.97908 6.47239 9.08594 6.43359C9.17974 6.39959 9.34811 6.34741 9.25977 6.24023C9.18607 6.23523 9.15018 6.32605 9.08594 6.35352C9.04154 6.35952 9.05147 6.3161 9.01367 6.3125C8.97787 6.3105 8.95682 6.34624 8.91992 6.33984C8.88322 6.33384 8.83187 6.27538 8.82617 6.23242C8.81147 6.12098 8.92061 6.07726 8.9668 5.99414C8.9363 5.89336 8.79718 5.97299 8.71289 5.93359C8.72189 5.87349 8.78344 5.83184 8.85352 5.82031C8.91092 5.81931 9.04 5.8177 9.07422 5.8457C9.09422 5.8625 9.07582 5.90569 9.10742 5.93359C9.14152 5.96439 9.18227 5.96043 9.22656 5.95312C9.24266 5.87713 9.12813 5.89604 9.14062 5.8457C9.23072 5.7867 9.37788 5.83621 9.48828 5.82031C9.55178 5.81931 9.61752 5.76422 9.67383 5.73242C9.72743 5.70212 9.79864 5.64932 9.85547 5.69922C9.87107 5.75362 9.80569 5.7717 9.77539 5.79883C9.67326 5.88973 9.56769 5.99409 9.48828 6.09961C9.53708 6.14721 9.6246 6.12311 9.70703 6.13281C9.73923 6.13681 9.78039 6.1483 9.81445 6.1543C9.85425 6.1613 9.89657 6.15892 9.92773 6.16602C9.98393 6.17982 9.99928 6.24023 10.0547 6.24023C10.146 6.24006 10.1474 6.14182 10.0957 6.08008C10.112 6.01708 10.1374 5.98364 10.1152 5.93945C10.0741 5.85715 9.92182 5.93719 9.91406 5.83203C9.90906 5.76543 9.96994 5.76861 9.99414 5.71875C9.98314 5.59011 10.1003 5.58015 10.0879 5.46484C10.0819 5.41654 10.0417 5.41825 10.0078 5.37305C9.99031 5.34975 9.98204 5.30306 9.96094 5.28516C9.89114 5.22616 9.75078 5.23764 9.74219 5.125C9.73819 5.0586 9.75785 5.00374 9.74805 4.93164C9.73905 4.86434 9.69363 4.67691 9.63477 4.66406C9.56027 4.64786 9.48192 4.77607 9.39258 4.81836C9.34398 4.84146 9.27527 4.86662 9.22656 4.85742C9.19496 4.85142 9.13175 4.80531 9.12695 4.74414C9.12095 4.67404 9.1747 4.67243 9.1875 4.59766C9.1765 4.55356 9.12917 4.56435 9.08594 4.53125C9.03694 4.49395 8.99885 4.41338 8.93359 4.4043C8.90109 4.3993 8.85853 4.42944 8.82617 4.43164C8.7665 4.43525 8.7203 4.42017 8.66992 4.4043C8.8308 4.34777 8.99407 4.29685 9.16016 4.25195C9.19126 4.28535 9.20233 4.3491 9.24023 4.37109C9.26553 4.38559 9.30924 4.38123 9.33984 4.39062C9.43784 4.42032 9.51974 4.47377 9.62695 4.45117C9.66375 4.38657 9.55125 4.36906 9.59375 4.31836C9.66555 4.32436 9.71228 4.35455 9.76758 4.37695C9.84478 4.32045 9.89534 4.31537 9.89258 4.22461C9.89186 4.16983 9.84885 4.14395 9.82031 4.10547C9.87981 4.09543 9.93999 4.08667 10 4.07812C10.0132 4.09263 10.0242 4.11472 10.041 4.11719C10.079 4.12319 10.1921 4.06764 10.2148 4.05664C10.2191 4.05457 10.2263 4.04631 10.2324 4.04297C10.4849 4.01561 10.74 4 11 4C12.1956 4 13.3182 4.29807 14.3008 4.82227C14.2676 4.83242 14.2351 4.83946 14.1953 4.85352C14.1482 4.87012 14.061 4.95165 14.0488 4.98047C14.0287 5.02807 14.0538 5.07915 14.0488 5.15234C14.0869 5.16894 14.1107 5.24358 14.1758 5.2793C14.2004 5.2928 14.232 5.28613 14.2539 5.29883C14.292 5.32033 14.3223 5.36809 14.3145 5.40625C14.3035 5.46105 14.2325 5.44573 14.1953 5.48633C14.2013 5.56403 14.1406 5.57506 14.1211 5.62695C14.1334 5.65985 14.1822 5.65386 14.1875 5.69336C14.1805 5.73596 14.1046 5.74221 14.1211 5.78711C14.1926 5.84291 14.2683 5.77628 14.3359 5.76758C14.4853 5.74898 14.6368 5.78684 14.7285 5.71484C14.716 5.64344 14.8046 5.61843 14.7969 5.55469C14.7909 5.50659 14.7109 5.5 14.6758 5.4668C14.657 5.449 14.6518 5.40755 14.6289 5.37305C14.6025 5.33345 14.5528 5.30623 14.5234 5.26758C14.4842 5.21548 14.4021 5.13925 14.4023 5.09961C14.403 5.05411 14.4585 5.04275 14.4688 4.98047C14.4565 4.92327 14.35 4.96109 14.3418 4.90039C14.3438 4.88098 14.3533 4.8678 14.3633 4.85547C14.6698 5.02303 14.9581 5.21779 15.2344 5.42773C15.2313 5.42816 15.2255 5.42721 15.2227 5.42773C15.1558 5.44003 15.1312 5.5238 15.0762 5.58984C15.038 5.63594 14.965 5.68448 14.9082 5.70898C14.8805 5.72128 14.8477 5.72013 14.8223 5.73633C14.7848 5.76123 14.7711 5.82083 14.7285 5.84961C14.6978 5.87041 14.5812 5.92909 14.5488 5.92969C14.5108 5.9303 14.4764 5.89354 14.4492 5.90234C14.4091 5.91494 14.4125 5.99371 14.3672 6.00977C14.2787 6.04117 14.1324 5.9306 14.1016 6.0625C14.1395 6.1389 14.2346 6.11991 14.3008 6.16211C14.3425 6.18831 14.4304 6.30493 14.4414 6.34961C14.4424 6.38741 14.4373 6.53606 14.4219 6.57617C14.3806 6.68272 14.2827 6.64723 14.1602 6.64453C14.1267 6.64392 14.0915 6.65339 14.0605 6.65039C13.8539 6.63639 13.6461 6.56168 13.5527 6.70898C13.5597 6.82227 13.5856 6.89959 13.5605 6.99805C13.5422 7.07035 13.4773 7.13456 13.4805 7.19727C13.4825 7.22947 13.5195 7.26105 13.5273 7.30469C13.5323 7.32799 13.5163 7.37734 13.5273 7.39844C13.5613 7.46414 13.6525 7.40827 13.7129 7.41797C13.7719 7.41897 13.8405 7.51208 13.8398 7.57812C13.8392 7.62423 13.7969 7.69979 13.7676 7.74414C13.7092 7.83264 13.6303 7.83749 13.5469 7.88477C13.4773 7.92427 13.447 7.98993 13.4062 8.05859C13.3619 8.13279 13.3353 8.1778 13.3535 8.28516C13.2938 8.40347 13.2037 8.4769 13.0801 8.5332C13.0434 8.5498 12.9925 8.55578 12.959 8.58008C12.9324 8.59928 12.9168 8.6507 12.8789 8.69336C12.8322 8.74556 12.7844 8.76676 12.7598 8.80664C12.7408 8.83764 12.7337 8.89815 12.7129 8.93945C12.6843 8.99545 12.6233 9.02329 12.5859 9.08008C12.5687 9.10628 12.5581 9.15888 12.5391 9.19336C12.4968 9.27026 12.4239 9.32692 12.4316 9.39453C12.4386 9.46003 12.5145 9.47035 12.5195 9.52734C12.5235 9.55954 12.4966 9.57818 12.498 9.61328C12.4981 9.66448 12.5351 9.70081 12.5391 9.74023C12.5401 9.83943 12.503 9.87951 12.4844 9.94727C12.4754 9.97967 12.4809 10.0158 12.4727 10.041C12.4564 10.0905 12.386 10.1366 12.3848 10.1953C12.3847 10.2371 12.428 10.2696 12.4316 10.3281C12.4336 10.3683 12.4108 10.4121 12.418 10.4492C12.4322 10.5219 12.5627 10.6056 12.6191 10.6621C12.6946 10.7376 12.7936 10.7954 12.8262 10.875C12.8537 10.9425 12.8538 11.033 12.9062 11.084C12.9451 11.1214 13.0087 11.1445 13.0586 11.1836C13.1052 11.2198 13.1574 11.2503 13.207 11.2891C13.2883 11.3527 13.4096 11.4805 13.5391 11.4707C13.6066 11.4657 13.6772 11.4101 13.7539 11.3965C13.8329 11.3826 13.9341 11.3747 14.0137 11.3828C14.0748 11.3888 14.1378 11.425 14.2012 11.4219C14.2682 11.4179 14.3458 11.3691 14.4219 11.3359C14.5535 11.2786 14.7491 11.2023 14.9414 11.2305C15.0879 11.2518 15.0821 11.4182 15.1836 11.4824C15.3014 11.4834 15.3951 11.4399 15.4883 11.4629C15.5588 11.4803 15.6436 11.5868 15.6504 11.6426C15.6574 11.7005 15.6179 11.7885 15.6094 11.8242C15.591 11.9021 15.5902 11.9936 15.5762 12.043C15.5652 12.0812 15.5346 12.1044 15.5352 12.1426C15.5358 12.1777 15.5794 12.2647 15.6152 12.3105C15.6591 12.3668 15.73 12.4097 15.7832 12.4707C15.8809 12.5824 15.9226 12.7179 15.9902 12.8652C16.0074 12.9026 16.0254 12.9529 16.041 13H18.7266C18.7802 12.7823 18.8413 12.5675 18.8789 12.3438C18.8923 12.2645 18.9049 12.1855 18.916 12.1055C18.9658 11.7435 19 11.3761 19 11C19 10.6978 18.9796 10.4007 18.9473 10.1074C18.9149 9.81365 18.8638 9.52532 18.8008 9.24219C18.7524 9.02509 18.7003 8.80955 18.6348 8.59961C18.6229 8.56157 18.6067 8.5257 18.5938 8.48828C18.5546 8.36924 18.5113 8.25319 18.4668 8.13672C18.4108 7.98997 18.3514 7.84553 18.2871 7.70312C18.2848 7.69806 18.2834 7.69263 18.2812 7.6875C18.2794 7.68352 18.2772 7.67976 18.2754 7.67578C18.2508 7.62172 18.2231 7.56902 18.1973 7.51562C18.1006 7.31557 17.9971 7.11995 17.8848 6.92969C17.8833 6.92718 17.8823 6.92438 17.8809 6.92188C17.8228 6.82387 17.7652 6.72609 17.7031 6.63086C17.5471 6.39136 17.3813 6.16013 17.2012 5.93945C17.0215 5.71928 16.8308 5.50823 16.6289 5.30859C16.5362 5.21695 16.4369 5.13196 16.3398 5.04492L16.3359 5.04102C16.0532 4.7878 15.7565 4.55108 15.4395 4.33984C14.1705 3.49444 12.6456 3 11 3ZM8.48438 4.4707C8.46155 4.51411 8.43903 4.558 8.39258 4.57227C8.40488 4.63747 8.31644 4.67889 8.30664 4.73047C8.30064 4.76517 8.31616 4.80634 8.31836 4.83789C8.33836 5.15719 8.0747 5.30744 7.76367 5.29883C7.70257 5.35723 7.71865 5.46682 7.68555 5.54688C7.65755 5.61417 7.5575 5.68543 7.49023 5.67969C7.44053 5.67569 7.38489 5.60496 7.38477 5.55859C7.38461 5.50149 7.46737 5.47151 7.41797 5.40625C7.42497 5.36185 7.52388 5.33631 7.51172 5.26562C7.49922 5.19202 7.39635 5.23015 7.30469 5.21875C7.25308 5.21179 7.19282 5.18217 7.13867 5.15625C7.55706 4.87995 8.00902 4.653 8.48438 4.4707ZM13.8906 5.22266C13.8634 5.22666 13.8367 5.23219 13.8145 5.24609C13.7637 5.27709 13.7463 5.32474 13.707 5.33984C13.6528 5.36034 13.6154 5.34278 13.6074 5.39258C13.6014 5.43368 13.6419 5.45369 13.6406 5.49219C13.6209 5.54119 13.5645 5.55409 13.5547 5.61328C13.6222 5.72362 13.7852 5.62511 13.8691 5.59961C13.9069 5.58861 13.96 5.59065 13.9805 5.56055C14.0038 5.52525 13.9836 5.46318 14.002 5.41211C14.0214 5.35591 14.075 5.34901 14.0684 5.29883C14.0624 5.24903 13.9724 5.21456 13.8906 5.22266ZM6.55078 6C6.61138 6.0158 6.7717 6.19139 6.63867 6.24805C6.62607 6.25405 6.44364 6.27298 6.41211 6.26758C6.36601 6.26058 6.33769 6.1957 6.29102 6.1875C6.19882 6.1713 6.07493 6.29805 6.01172 6.19336C6.02782 6.13406 6.09361 6.13238 6.16406 6.11328C6.28916 6.07918 6.44254 5.97172 6.55078 6ZM6.80469 6.32227C6.83599 6.32427 6.87437 6.35853 6.91211 6.36133C6.94781 6.36333 6.97615 6.34206 6.99805 6.34766C7.05385 6.36236 7.07799 6.447 7.02539 6.48828C6.98179 6.49328 6.96464 6.46881 6.93164 6.47461C6.84094 6.49021 6.80604 6.66799 6.73828 6.66211C6.67438 6.65611 6.64018 6.50145 6.70508 6.45508C6.70708 6.41458 6.67563 6.40709 6.67773 6.36719C6.69733 6.34219 6.75148 6.31777 6.80469 6.32227ZM6.50391 6.3418C6.52241 6.34241 6.53802 6.34787 6.54492 6.35547C6.53592 6.42657 6.4787 6.42185 6.42383 6.45508C6.32893 6.51238 6.27433 6.60028 6.24414 6.72266C6.23514 6.75856 6.14282 6.85119 6.09766 6.8418C5.99173 6.8196 6.12629 6.62537 6.15039 6.5957C6.17699 6.5628 6.21264 6.53399 6.24414 6.49609C6.27464 6.45929 6.29482 6.40903 6.32422 6.38867C6.35652 6.36647 6.44813 6.3397 6.50391 6.3418ZM16.0098 6.38281H16.0117C16.0593 6.39568 16.0556 6.4377 16.0918 6.46289C16.1184 6.48139 16.1537 6.47739 16.1836 6.49609C16.2187 6.51819 16.2377 6.57601 16.2773 6.60938C16.3333 6.65648 16.4328 6.69092 16.5117 6.72852C16.5274 6.73597 16.5461 6.74724 16.5645 6.75586C16.615 6.82213 16.6666 6.88697 16.7148 6.95508C16.7138 6.96399 16.7116 6.97449 16.7129 6.98242C16.7189 7.02202 16.7466 7.06348 16.7656 7.08984C16.8172 7.16094 16.8904 7.22425 16.9473 7.31055C16.9466 7.39308 16.9812 7.43991 17.0391 7.46289C17.1466 7.64669 17.2452 7.83519 17.3359 8.0293C17.3062 8.02733 17.2756 8.02526 17.2461 8.01758C17.1804 7.90171 16.8488 7.89401 16.8203 8.06445C16.8076 8.13965 16.8579 8.24484 16.7461 8.25781C16.6751 8.26681 16.6031 8.18516 16.5059 8.16406C16.466 8.15506 16.4099 8.16159 16.3789 8.15039C16.3061 8.12529 16.3146 8.05591 16.252 8.01172C16.2156 7.98622 16.122 7.94966 16.0645 7.94336C16.0287 7.93936 15.9948 7.95422 15.957 7.94922C15.9121 7.94422 15.8485 7.91372 15.8105 7.89062C15.7743 7.86853 15.7006 7.83433 15.6914 7.80273C15.6772 7.75353 15.7817 7.6981 15.7852 7.65625C15.7872 7.62475 15.7461 7.60514 15.7383 7.55664C15.7333 7.52734 15.7504 7.49606 15.7441 7.47656C15.7431 7.44206 15.6768 7.40334 15.623 7.40234C15.5754 7.40173 15.5309 7.44216 15.4902 7.44336C15.4315 7.44346 15.3363 7.41032 15.2637 7.41602C15.2192 7.42002 15.1781 7.44602 15.1367 7.44922C15.0204 7.45022 14.926 7.44322 14.8359 7.44922C14.7703 7.45322 14.6567 7.47415 14.5957 7.50195C14.5647 7.51605 14.5419 7.55011 14.502 7.57031C14.484 7.57931 14.4594 7.57894 14.4355 7.58984C14.3976 7.60704 14.3583 7.64715 14.3223 7.65625C14.2701 7.66965 14.1901 7.64639 14.0957 7.65039C14.0279 7.65439 13.915 7.65251 13.9141 7.57031C13.9131 7.44675 14.1255 7.4924 14.2422 7.4707C14.2862 7.4617 14.3089 7.42182 14.3613 7.39062C14.3864 7.37563 14.4178 7.37362 14.4414 7.35742C14.4819 7.32962 14.5429 7.2626 14.5488 7.23047C14.5548 7.20077 14.5317 7.15872 14.5352 7.13672C14.5402 7.10862 14.5731 7.07877 14.6094 7.04297C14.6657 6.98747 14.7258 6.91338 14.7949 6.87695C14.8421 6.85205 14.908 6.85401 14.9297 6.81641C14.9347 6.77361 14.9228 6.74784 14.9238 6.70898C14.9529 6.68248 14.9718 6.66145 14.9961 6.65625C15.0681 6.64065 15.1389 6.70672 15.2227 6.70312C15.2589 6.70112 15.2912 6.67619 15.3301 6.65039C15.3628 6.62869 15.3977 6.612 15.4297 6.5957C15.465 6.5774 15.5021 6.53786 15.5449 6.53516C15.65 6.52916 15.6906 6.64571 15.7383 6.70898C15.7783 6.76158 15.8915 6.85174 15.957 6.88867C15.9939 6.90937 16.0434 6.91129 16.084 6.92969C16.1707 6.96859 16.3429 7.09862 16.3457 7.18359C16.3477 7.22599 16.3059 7.25781 16.3125 7.29688C16.3781 7.30787 16.4496 7.23563 16.4512 7.16992C16.4518 7.12882 16.4101 7.10575 16.418 7.0625C16.4487 6.9964 16.5386 7.06412 16.5781 7.03711C16.5711 6.96241 16.4681 6.9548 16.4043 6.91602C16.3699 6.89502 16.3482 6.85054 16.3125 6.83594C16.2608 6.81474 16.2043 6.82016 16.1641 6.78906C16.1263 6.75986 16.1095 6.69477 16.0723 6.65039C16.0181 6.58589 15.8991 6.5753 15.9316 6.42969C15.9475 6.40809 15.9846 6.37521 16.0098 6.38281ZM7.29492 6.58398C7.32872 6.5846 7.35905 6.58846 7.37305 6.60156C7.35135 6.68976 7.16127 6.66842 7.0918 6.63672C7.0958 6.60362 7.14781 6.59424 7.19141 6.58984C7.22231 6.58784 7.26093 6.58398 7.29492 6.58398ZM15.5625 6.74414C15.5192 6.75834 15.4966 6.85164 15.5625 6.86328C15.5932 6.84488 15.617 6.82007 15.6094 6.76367C15.5925 6.74537 15.5768 6.73934 15.5625 6.74414ZM6.86133 6.74609C6.88413 6.74548 6.90794 6.74686 6.93164 6.75586C6.87004 6.80736 6.8028 6.83576 6.69727 6.86914C6.64647 6.88524 6.55936 6.90631 6.55078 6.84961C6.53978 6.78021 6.6255 6.79516 6.67188 6.78906C6.73028 6.78206 6.79294 6.74829 6.86133 6.74609ZM15.5449 6.93164C15.5234 6.93764 15.4995 6.95256 15.4766 6.97656C15.4776 7.05116 15.4857 7.09931 15.4707 7.16406C15.5137 7.24636 15.6089 7.17339 15.6309 7.11719C15.6567 6.97823 15.609 6.91414 15.5449 6.93164ZM16.1133 7.30078C16.0546 7.29893 15.9992 7.30144 15.9648 7.33008C16.0137 7.41018 16.1152 7.43727 16.2246 7.45703C16.2641 7.42743 16.2672 7.36162 16.2852 7.31055C16.2378 7.31115 16.1741 7.30385 16.1152 7.30078H16.1133ZM4.26758 10.0117C4.43128 10.0067 4.50258 10.2196 4.63477 10.2852C4.66787 10.3019 4.71113 10.3028 4.75391 10.3125C4.78861 10.3195 4.81446 10.3344 4.84766 10.3457C4.91826 10.3696 5.00603 10.3675 5.0625 10.3926C5.1476 10.4304 5.20806 10.59 5.28125 10.6328C5.28525 10.676 5.27411 10.7334 5.28711 10.7656C5.32171 10.8124 5.37076 10.8034 5.42773 10.834C5.49583 10.8708 5.51747 10.9651 5.58203 10.9941C5.60403 10.9951 5.66014 11.0033 5.69531 11.0137C5.78381 11.0404 5.81277 11.1435 5.88867 11.1211C5.93847 11.1066 5.93351 11.0554 5.94141 11.0078C5.97431 10.972 6.01122 10.9151 6.0625 10.9141C6.1455 10.9131 6.1533 10.9995 6.18359 11.0801C6.20049 11.1256 6.24416 11.1649 6.25586 11.2129C6.27636 11.2959 6.267 11.5441 6.25 11.5938C6.229 11.6546 6.14645 11.6806 6.0957 11.748C6.0719 11.7795 6.06117 11.8255 6.04297 11.8477C6.01047 11.8875 5.9599 11.8987 5.93555 11.9355C5.92165 11.9561 5.90968 12.0014 5.89648 12.0293C5.85628 12.1143 5.80224 12.1734 5.83594 12.2754C5.84974 12.3173 5.91582 12.3452 5.91602 12.3945C5.91615 12.4527 5.7928 12.5046 5.7832 12.5684C5.7762 12.6156 5.82104 12.702 5.83594 12.7637C5.84694 12.8104 5.93537 12.8381 5.96289 12.8691C6.00969 12.9217 6.04702 12.9964 6.08984 13.0625C6.17444 13.1925 6.2418 13.3506 6.32422 13.4766C6.36752 13.5426 6.42799 13.6015 6.45703 13.6699C6.47173 13.7045 6.47048 13.7463 6.48438 13.7773C6.53207 13.8851 6.74281 13.9973 6.85156 14.0508C6.90246 14.0758 6.9572 14.0851 7.00391 14.1113C7.07461 14.1508 7.21622 14.2563 7.25195 14.3184C7.28395 14.3742 7.30276 14.509 7.31836 14.5977C7.33896 14.7149 7.31922 14.8047 7.32422 14.9316C7.32822 15.0003 7.35066 15.0699 7.35156 15.1387C7.35187 15.1627 7.33879 15.1823 7.33789 15.207C7.33589 15.2902 7.35876 15.383 7.35156 15.4668C7.34756 15.5124 7.33449 15.5498 7.33789 15.5879C7.34189 15.6293 7.36203 15.6629 7.36523 15.6992C7.36723 15.7383 7.35342 15.7899 7.35742 15.8203C7.36642 15.9046 7.42871 15.9698 7.44531 16.0469C7.45851 16.1083 7.46688 16.2351 7.45898 16.3086C7.45398 16.3472 7.43168 16.3855 7.42578 16.4277C7.42178 16.4611 7.43078 16.4961 7.42578 16.5273C7.41978 16.574 7.38978 16.6108 7.39258 16.6543C7.39858 16.7443 7.49762 16.8182 7.51172 16.9082C7.51672 16.9384 7.50486 16.9729 7.50586 17.002C7.50685 17.0294 7.51748 17.0532 7.52539 17.0781C5.41771 15.8745 4 13.6105 4 11C4 10.687 4.02698 10.382 4.06641 10.0801C4.12971 10.0804 4.1978 10.0136 4.26758 10.0117ZM6.98438 10.7676C7.04847 10.7382 7.06442 10.8605 7.01172 10.8691C6.96182 10.8761 6.93598 10.7899 6.98438 10.7676ZM14 14V15V16V17V18H15H16V19H19V17H16H15V16H16H19V14H16V15H15V14H14Z" fill="url(#paint0_linear_10_17815)"/>
<defs>
<linearGradient id="paint0_linear_10_17815" x1="3" y1="11" x2="19" y2="11" gradientUnits="userSpaceOnUse">
<stop stop-color="#FDFC47"/>
<stop offset="1" stop-color="#24FE41"/>
</linearGradient>
</defs>
</svg>
