<svg width="24" height="24" viewBox="0 0 24 24" fill="none" xmlns="http://www.w3.org/2000/svg">
<path d="M7 4C7 4 6 3.99997 6 5H4V8V19V20H20V19V8V5H18C18 3.99997 17 4 17 4H14C14 4 13 3.99997 13 5H11C11 3.99997 10 4 10 4H7ZM7 5H10V6H7V5ZM14 5H17V6H14V5ZM5 8H19V19H5V8ZM10.5 10C8.561 10 7 11.561 7 13.5C7 15.439 8.561 17 10.5 17C11.0396 17 11.5444 16.8706 12 16.6543C12.4556 16.8706 12.9604 17 13.5 17C15.439 17 17 15.439 17 13.5C17 11.561 15.439 10 13.5 10C12.9604 10 12.4556 10.1294 12 10.3457C11.5444 10.1294 11.0396 10 10.5 10ZM10.5 11C10.6718 11 10.8401 11.0181 11.002 11.0508C10.3837 11.6814 10 12.543 10 13.5C10 14.457 10.3837 15.3186 11.002 15.9492C10.8401 15.9819 10.6718 16 10.5 16C9.115 16 8 14.885 8 13.5C8 12.115 9.115 11 10.5 11ZM13.5 11C14.885 11 16 12.115 16 13.5C16 14.885 14.885 16 13.5 16C13.3282 16 13.1599 15.9819 12.998 15.9492C13.6163 15.3186 14 14.457 14 13.5C14 12.543 13.6163 11.6814 12.998 11.0508C13.1599 11.0181 13.3282 11 13.5 11ZM12 11.5078C12.605 11.9633 13 12.681 13 13.5C13 14.319 12.605 15.0367 12 15.4922C11.395 15.0367 11 14.319 11 13.5C11 12.681 11.395 11.9633 12 11.5078Z" fill="url(#paint0_linear_10_17626)"/>
<defs>
<linearGradient id="paint0_linear_10_17626" x1="4" y1="12" x2="20" y2="12" gradientUnits="userSpaceOnUse">
<stop stop-color="#FDFC47"/>
<stop offset="1" stop-color="#24FE41"/>
</linearGradient>
</defs>
</svg>
