<svg width="24" height="24" viewBox="0 0 24 24" fill="none" xmlns="http://www.w3.org/2000/svg">
<path d="M4.70703 4C5.1604 4.0923 5.5 4.49123 5.5 4.97266C5.5 5.26146 5.37515 5.51813 5.17969 5.69922C5.0703 5.56963 5.00391 5.40437 5.00391 5.2207C5.00391 5.18034 5.00563 5.14252 5.01562 5.10352C4.71292 5.27337 4.50781 5.59173 4.50781 5.96484C4.50781 6.51513 4.94971 6.95898 5.5 6.95898C6.05008 6.95898 6.49414 6.51513 6.49414 5.96484C6.49414 4.93333 5.71102 4.10135 4.70703 4ZM8.70703 4C9.1604 4.0923 9.5 4.49123 9.5 4.97266C9.5 5.26146 9.37515 5.51813 9.17969 5.69922C9.0703 5.56963 9.00391 5.40437 9.00391 5.2207C9.00391 5.18034 9.00563 5.14252 9.01562 5.10352C8.71292 5.27337 8.50781 5.59173 8.50781 5.96484C8.50781 6.51513 8.94971 6.95898 9.5 6.95898C10.0501 6.95898 10.4941 6.51513 10.4941 5.96484C10.4941 4.93333 9.71102 4.10135 8.70703 4ZM13.707 4C14.1604 4.0923 14.5 4.49123 14.5 4.97266C14.5 5.26146 14.3751 5.51813 14.1797 5.69922C14.0703 5.56963 14.0039 5.40437 14.0039 5.2207C14.0039 5.18034 14.0056 5.14252 14.0156 5.10352C13.7129 5.27337 13.5078 5.59173 13.5078 5.96484C13.5078 6.51513 13.9497 6.95898 14.5 6.95898C15.0501 6.95898 15.4941 6.51513 15.4941 5.96484C15.4941 4.93333 14.711 4.10135 13.707 4ZM17.707 4C18.1604 4.0923 18.5 4.49123 18.5 4.97266C18.5 5.26146 18.3751 5.51813 18.1797 5.69922C18.0703 5.56963 18.0039 5.40437 18.0039 5.2207C18.0039 5.18034 18.0056 5.14252 18.0156 5.10352C17.7129 5.27337 17.5078 5.59173 17.5078 5.96484C17.5078 6.51513 17.9497 6.95898 18.5 6.95898C19.0501 6.95898 19.4941 6.51513 19.4941 5.96484C19.4941 4.93333 18.711 4.10135 17.707 4ZM5 8V10H4V11V15V16V19V20H20V19V16V15V11V10H19V8H18V10H15V8H14V10H10V8H9V10H6V8H5ZM5 11H19V15H18.4551C17.0952 15 16 13.9048 16 12.5449V12H15V12.5449C15 13.9048 13.9048 15 12.5449 15H11.4551C10.0952 15 9 13.9048 9 12.5449V12H8V12.5449C8 13.9048 6.90475 15 5.54492 15H5V11ZM8.5 14.6582C9.03622 15.4673 9.95248 16 11 16H13C14.0475 16 14.9638 15.4674 15.5 14.6582C16.0362 15.4674 16.9525 16 18 16H19V17H5V16H6C7.04752 16 7.96378 15.4673 8.5 14.6582ZM5 18H19V19H5V18Z" fill="url(#paint0_linear_10_17603)"/>
<defs>
<linearGradient id="paint0_linear_10_17603" x1="4" y1="12" x2="20" y2="12" gradientUnits="userSpaceOnUse">
<stop stop-color="#FDFC47"/>
<stop offset="1" stop-color="#24FE41"/>
</linearGradient>
</defs>
</svg>
