<svg width="24" height="24" viewBox="0 0 24 24" fill="none" xmlns="http://www.w3.org/2000/svg">
<path opacity="0.35" d="M11.998 6.03906C8.22816 6.04364 4.92786 8.40586 3.99016 11.7696C3.94631 11.9265 3.94631 12.0911 3.99016 12.2481C4.93583 15.6042 8.23606 17.9587 12 17.961C12.0006 17.961 12.0013 17.961 12.002 17.961C15.7718 17.9564 19.0721 15.5942 20.0098 12.2305C20.054 12.0729 20.054 11.9076 20.0098 11.75C19.0641 8.39391 15.7639 6.04141 12 6.03911C11.9993 6.03911 11.9986 6.03906 11.998 6.03906ZM12 7C15.2947 7.00204 18.1723 9.0544 19 11.9922C18.1791 14.9366 15.2999 16.996 12 17C8.70516 16.998 5.82776 14.9456 4.99996 12.0078C5.82081 9.0634 8.70006 7.004 12 7ZM12 9C11.2043 9 10.4413 9.31607 9.87864 9.87868C9.31603 10.4413 8.99996 11.2044 8.99996 12C8.99996 12.7957 9.31603 13.5587 9.87864 14.1213C10.4413 14.6839 11.2043 15 12 15C12.7956 15 13.5587 14.6839 14.1213 14.1213C14.6839 13.5587 15 12.7957 15 12C15 11.2044 14.6839 10.4413 14.1213 9.87868C13.5587 9.31607 12.7956 9 12 9ZM11.9511 10C11.9674 9.9998 11.9837 9.9998 12 10C12.5304 10 13.0391 10.2107 13.4142 10.5858C13.7893 10.9609 14 11.4696 14 12C14 12.5304 13.7893 13.0391 13.4142 13.4142C13.0391 13.7893 12.5304 14 12 14C11.4695 14 10.9608 13.7893 10.5858 13.4142C10.2107 13.0391 9.99996 12.5304 9.99996 12C9.99981 11.4779 10.2038 10.9765 10.5684 10.6028C10.933 10.2291 11.4292 10.0127 11.9511 10Z" fill="url(#paint0_linear_10_17680)"/>
<path d="M6.93292 2.22363L6.06689 2.72363L17.0669 21.7762L17.9329 21.2762L6.93292 2.22363Z" fill="url(#paint1_linear_10_17680)"/>
<defs>
<linearGradient id="paint0_linear_10_17680" x1="3.95728" y1="12" x2="20.0429" y2="12" gradientUnits="userSpaceOnUse">
<stop stop-color="#FDFC47"/>
<stop offset="1" stop-color="#24FE41"/>
</linearGradient>
<linearGradient id="paint1_linear_10_17680" x1="11.5669" y1="12.2499" x2="12.4329" y2="11.7499" gradientUnits="userSpaceOnUse">
<stop stop-color="#FDFC47"/>
<stop offset="1" stop-color="#24FE41"/>
</linearGradient>
</defs>
</svg>
