<svg width="24" height="24" viewBox="0 0 24 24" fill="none" xmlns="http://www.w3.org/2000/svg">
<path d="M12 4C10.5583 4 9.21071 4.38292 8.04492 5.04492L8.7832 5.7832L8.78516 5.78125L11.5645 8.55859L12.2715 7.85156L9.78906 5.37109C10.4847 5.13842 11.2239 5 12 5C15.878 5 19 8.122 19 12C19 13.1625 18.7142 14.2539 18.2168 15.2168L18.9551 15.9551C19.6171 14.7893 20 13.4417 20 12C20 7.568 16.432 4 12 4ZM5.04492 8.04492C4.38287 9.21072 4 10.5583 4 12C4 16.432 7.56803 20 12 20C13.4417 20 14.7893 19.6171 15.9551 18.9551L15.2715 18.2715L15.2734 18.2695L12.4453 15.4414L11.7383 16.1484L14.2168 18.627C13.5195 18.8609 12.7783 19 12 19C8.12203 19 5 15.878 5 12C5 10.8375 5.28583 9.7461 5.7832 8.7832L5.04492 8.04492Z" fill="url(#paint0_linear_10_17734)"/>
<defs>
<linearGradient id="paint0_linear_10_17734" x1="4" y1="12" x2="20" y2="12" gradientUnits="userSpaceOnUse">
<stop stop-color="#FDFC47"/>
<stop offset="1" stop-color="#24FE41"/>
</linearGradient>
</defs>
</svg>
