<svg width="24" height="24" viewBox="0 0 24 24" fill="none" xmlns="http://www.w3.org/2000/svg">
<path d="M16 13V5.9141L13.707 8.20698L13 7.49994L16.5 4L20 7.49994L19.293 8.20698L17 5.9141V13H16Z" fill="url(#paint0_linear_10_17747)"/>
<path d="M4 20V19H18V20H4Z" fill="url(#paint1_linear_10_17747)"/>
<path d="M4 17V16H16V17H4Z" fill="url(#paint2_linear_10_17747)"/>
<path d="M4 13.9999V13H14V13.9999H4Z" fill="url(#paint3_linear_10_17747)"/>
<path d="M4 4V5.00002H8V4H4Z" fill="url(#paint4_linear_10_17747)"/>
<path d="M4 7V7.9999H10V7H4Z" fill="url(#paint5_linear_10_17747)"/>
<path d="M4 10V11H12V10H4Z" fill="url(#paint6_linear_10_17747)"/>
<defs>
<linearGradient id="paint0_linear_10_17747" x1="13" y1="8.50001" x2="20" y2="8.50001" gradientUnits="userSpaceOnUse">
<stop stop-color="#FDFC47"/>
<stop offset="1" stop-color="#24FE41"/>
</linearGradient>
<linearGradient id="paint1_linear_10_17747" x1="4" y1="19.5" x2="18" y2="19.5" gradientUnits="userSpaceOnUse">
<stop stop-color="#FDFC47"/>
<stop offset="1" stop-color="#24FE41"/>
</linearGradient>
<linearGradient id="paint2_linear_10_17747" x1="4" y1="16.5" x2="16" y2="16.5" gradientUnits="userSpaceOnUse">
<stop stop-color="#FDFC47"/>
<stop offset="1" stop-color="#24FE41"/>
</linearGradient>
<linearGradient id="paint3_linear_10_17747" x1="4" y1="13.4999" x2="14" y2="13.4999" gradientUnits="userSpaceOnUse">
<stop stop-color="#FDFC47"/>
<stop offset="1" stop-color="#24FE41"/>
</linearGradient>
<linearGradient id="paint4_linear_10_17747" x1="4" y1="4.50001" x2="8" y2="4.50001" gradientUnits="userSpaceOnUse">
<stop stop-color="#FDFC47"/>
<stop offset="1" stop-color="#24FE41"/>
</linearGradient>
<linearGradient id="paint5_linear_10_17747" x1="4" y1="7.49995" x2="10" y2="7.49995" gradientUnits="userSpaceOnUse">
<stop stop-color="#FDFC47"/>
<stop offset="1" stop-color="#24FE41"/>
</linearGradient>
<linearGradient id="paint6_linear_10_17747" x1="4" y1="10.5" x2="12" y2="10.5" gradientUnits="userSpaceOnUse">
<stop stop-color="#FDFC47"/>
<stop offset="1" stop-color="#24FE41"/>
</linearGradient>
</defs>
</svg>
