<svg width="24" height="24" viewBox="0 0 24 24" fill="none" xmlns="http://www.w3.org/2000/svg">
<path d="M12 4L4 8.62305V8.99805V10H5V11V19H4V20H20V19H19V11V10H20V8.99805V8.62305L12 4ZM12 5.15625L18.6504 8.99805H5.34961L12 5.15625ZM6 10H8V11V19H6V11V10ZM9 10H15V11V19H14V15H10V19H9V11V10ZM16 10H18V11V19H16V11V10Z" fill="url(#paint0_linear_10_17592)"/>
<defs>
<linearGradient id="paint0_linear_10_17592" x1="4" y1="12" x2="20" y2="12" gradientUnits="userSpaceOnUse">
<stop stop-color="#FDFC47"/>
<stop offset="1" stop-color="#24FE41"/>
</linearGradient>
</defs>
</svg>
