<svg width="24" height="24" viewBox="0 0 24 24" fill="none" xmlns="http://www.w3.org/2000/svg">
<path d="M7 4C7 4 6 3.99997 6 5H4V8V19V20H20V19V8V5H18C18 3.99997 17 4 17 4H14C14 4 13 3.99997 13 5H11C11 3.99997 10 4 10 4H7ZM7 5H10V6H7V5ZM14 5H17V6H14V5ZM5 8H19V19H5V8ZM6 10V12H8V10H6ZM10 10V12H12V10H10ZM14 10V12H16V10H14ZM10 13V15H12V13H10ZM14 13V15H16V13H14Z" fill="url(#paint0_linear_10_17623)"/>
<path d="M17 10V15H18V10H17ZM17 16V17H18V16H17Z" fill="url(#paint1_linear_10_17623)"/>
<defs>
<linearGradient id="paint0_linear_10_17623" x1="4" y1="12" x2="20" y2="12" gradientUnits="userSpaceOnUse">
<stop stop-color="#FDFC47"/>
<stop offset="1" stop-color="#24FE41"/>
</linearGradient>
<linearGradient id="paint1_linear_10_17623" x1="17" y1="13.5" x2="18" y2="13.5" gradientUnits="userSpaceOnUse">
<stop stop-color="#FDFC47"/>
<stop offset="1" stop-color="#24FE41"/>
</linearGradient>
</defs>
</svg>
