<svg width="24" height="24" viewBox="0 0 24 24" fill="none" xmlns="http://www.w3.org/2000/svg">
<path d="M4 4V5H5V4H4ZM9 4V5H10V4H9ZM14 4V5H15V4H14ZM19 4V5H20V4H19ZM4 7V8H5V7H4ZM9 7V8H10V7H9ZM14 7V8H15V7H14ZM19 7V8H20V7H19ZM4 10V11H5V10H4ZM9 10V11H10V10H9ZM14 10V11H15V10H14ZM19 10V11H20V10H19ZM4 13V14H5V13H4ZM9 13V14H10V13H9ZM14 13V14H15V13H14ZM19 13V14H20V13H19ZM4 16V17H5V16H4ZM9 16V17H10V16H9ZM14 16V17H15V16H14ZM19 16V17H20V16H19ZM4 19V20H5V19H4ZM9 19V20H10V19H9ZM14 19V20H15V19H14ZM19 19V20H20V19H19Z" fill="url(#paint0_linear_10_17676)"/>
<defs>
<linearGradient id="paint0_linear_10_17676" x1="4" y1="12" x2="20" y2="12" gradientUnits="userSpaceOnUse">
<stop stop-color="#FDFC47"/>
<stop offset="1" stop-color="#24FE41"/>
</linearGradient>
</defs>
</svg>
