<svg width="24" height="24" viewBox="0 0 24 24" fill="none" xmlns="http://www.w3.org/2000/svg">
<path d="M12 4C9.87827 4 7.84344 4.84285 6.34315 6.34315C4.84286 7.84344 4 9.87827 4 12C4 14.1217 4.84286 16.1566 6.34315 17.6569C7.84344 19.1571 9.87827 20 12 20C14.1217 20 16.1566 19.1571 17.6569 17.6569C19.1571 16.1566 20 14.1217 20 12C20 9.87827 19.1571 7.84344 17.6569 6.34315C16.1566 4.84285 14.1217 4 12 4ZM8.70703 8L12 11.293L15.293 8L16 8.70703L12.707 12L16 15.293L15.293 16L12 12.707L8.70703 16L8 15.293L11.293 12L8 8.70703L8.70703 8Z" fill="url(#paint0_linear_10_17840)"/>
<defs>
<linearGradient id="paint0_linear_10_17840" x1="4" y1="12" x2="20" y2="12" gradientUnits="userSpaceOnUse">
<stop stop-color="#FDFC47"/>
<stop offset="1" stop-color="#24FE41"/>
</linearGradient>
</defs>
</svg>
