<svg width="24" height="24" viewBox="0 0 24 24" fill="none" xmlns="http://www.w3.org/2000/svg">
<path d="M16 4V15.0508C16.5646 15.166 17.072 15.4727 17.4364 15.919C17.8008 16.3653 17.9999 16.9238 18 17.5C18 18.163 17.7366 18.7989 17.2678 19.2678C16.7989 19.7366 16.163 20 15.5 20C14.837 20 14.2011 19.7366 13.7322 19.2678C13.2634 18.7989 13 18.163 13 17.5C13.001 16.9245 13.2005 16.3669 13.5648 15.9214C13.9292 15.4759 14.4361 15.1698 15 15.0547V4H16ZM8.70703 7L11.5 9.79297L12.207 10.5L11.5 11.207L8.70703 14L8 13.293L10.293 11H4V10H6H10.293L8 7.70703L8.70703 7ZM15.5 16C15.1022 16 14.7206 16.158 14.4393 16.4393C14.158 16.7206 14 17.1022 14 17.5C14 17.8978 14.158 18.2794 14.4393 18.5607C14.7206 18.842 15.1022 19 15.5 19C15.8978 19 16.2794 18.842 16.5607 18.5607C16.842 18.2794 17 17.8978 17 17.5C17 17.1022 16.842 16.7206 16.5607 16.4393C16.2794 16.158 15.8978 16 15.5 16Z" fill="url(#paint0_linear_10_17876)"/>
<defs>
<linearGradient id="paint0_linear_10_17876" x1="4" y1="12" x2="18" y2="12" gradientUnits="userSpaceOnUse">
<stop stop-color="#FDFC47"/>
<stop offset="1" stop-color="#24FE41"/>
</linearGradient>
</defs>
</svg>
