<svg width="24" height="24" viewBox="0 0 24 24" fill="none" xmlns="http://www.w3.org/2000/svg">
<path d="M6 4C4.892 4 4 4.892 4 6V7H5V6C5 5.446 5.446 5 6 5H7V4H6ZM9 4V5H11V4H9ZM13 4V5H15V4H13ZM17 4V5H18C18.554 5 19 5.446 19 6V7H20V6C20 4.892 19.108 4 18 4H17ZM12 8V9H14.293L11 12.293L11.707 13L15 9.70703V12H16V8.00003L12 8ZM4 9V11H5V9H4ZM19 9V11H20V9H19ZM19 13V15H20V13H19ZM6 14C4.892 14 4 14.892 4 16V18C4 19.108 4.892 20 6 20H8C9.108 20 10 19.108 10 18V16C10 14.892 9.108 14 8 14H6ZM6 15H8C8.554 15 9 15.446 9 16V18C9 18.554 8.554 19 8 19H6C5.446 19 5 18.554 5 18V16C5 15.446 5.446 15 6 15ZM19 17V18C19 18.554 18.554 19 18 19H17V20H18C19.108 20 20 19.108 20 18V17H19Z" fill="url(#paint0_linear_10_17895)"/>
<defs>
<linearGradient id="paint0_linear_10_17895" x1="4" y1="12" x2="20" y2="12" gradientUnits="userSpaceOnUse">
<stop stop-color="#FDFC47"/>
<stop offset="1" stop-color="#24FE41"/>
</linearGradient>
</defs>
</svg>
