<svg width="24" height="24" viewBox="0 0 24 24" fill="none" xmlns="http://www.w3.org/2000/svg">
<path d="M6.0001 4C4.8921 4 4.0001 4.892 4.0001 6V7H5.0001V6C5.0001 5.446 5.4461 5 6.0001 5H7.0001V4H6.0001ZM9.0001 4V5H11.0001V4H9.0001ZM17.172 4.66992L16.465 5.37695L18.0861 6.99805H13.4299V7.99805H18.0861L16.465 9.62105L17.172 10.3281L19.2931 8.20508L20.0001 7.49805L17.172 4.66992ZM4 9.00002V11H5V9.00002H4ZM19 13V15H20V13H19ZM6 14C4.892 14 4 14.892 4 16V18C4 19.108 4.892 20 6 20H8C9.108 20 10 19.108 10 18V16C10 14.892 9.108 14 8 14H6ZM6 15H8C8.554 15 9 15.446 9 16V18C9 18.554 8.554 19 8 19H6C5.446 19 5 18.554 5 18V16C5 15.446 5.446 15 6 15ZM19 17V18C19 18.554 18.554 19 18 19H17V20H18C19.108 20 20 19.108 20 18V17H19ZM13 19V20H15V19H13Z" fill="url(#paint0_linear_10_17893)"/>
<defs>
<linearGradient id="paint0_linear_10_17893" x1="4" y1="12" x2="20.0001" y2="12" gradientUnits="userSpaceOnUse">
<stop stop-color="#FDFC47"/>
<stop offset="1" stop-color="#24FE41"/>
</linearGradient>
</defs>
</svg>
