<svg width="24" height="24" viewBox="0 0 24 24" fill="none" xmlns="http://www.w3.org/2000/svg">
<path d="M6 4C4.892 4 4 4.892 4 6H5C5 5.446 5.446 5 6 5V4ZM8 4V5C8.554 5 9 5.446 9 6H10C10 4.892 9.108 4 8 4ZM13 4V5H18C18.554 5 19 5.446 19 6V18C19 18.554 18.554 19 18 19H13V20H18C19.108 20 20 19.108 20 18V6C20 4.892 19.108 4 18 4H13ZM4 8C4 9.108 4.892 10 6 10V9C5.446 9 5 8.554 5 8H4ZM9 8C9 8.554 8.554 9 8 9V10C9.108 10 10 9.108 10 8H9ZM6.8281 13.6699L4 16.498L6.8281 19.3281L7.53513 18.6211L5.91403 16.9981H10.5702V15.9981H5.91403L7.53513 14.377L6.8281 13.6699Z" fill="url(#paint0_linear_10_17901)"/>
<defs>
<linearGradient id="paint0_linear_10_17901" x1="4" y1="12" x2="20" y2="12" gradientUnits="userSpaceOnUse">
<stop stop-color="#FDFC47"/>
<stop offset="1" stop-color="#24FE41"/>
</linearGradient>
</defs>
</svg>
