<svg width="24" height="24" viewBox="0 0 24 24" fill="none" xmlns="http://www.w3.org/2000/svg">
<path d="M8.99996 7.02441C7.89198 7.02441 7 7.91639 7 9.02437V15.0243C7 16.1322 7.89197 17.0242 8.99996 17.0242H14.9998C16.1078 17.0242 16.9998 16.1322 16.9998 15.0243V9.02437C16.9998 7.9164 16.1078 7.02441 14.9998 7.02441H8.99996ZM8.99996 8.02439H14.9998C15.5538 8.02439 15.9998 8.47039 15.9998 9.02437V15.0243C15.9998 15.5782 15.5538 16.0242 14.9998 16.0242H8.99996C8.44597 16.0242 7.99998 15.5782 7.99998 15.0243V9.02437C7.99998 8.47039 8.44597 8.02439 8.99996 8.02439Z" fill="url(#paint0_linear_10_17883)"/>
<path d="M6.00011 4.02441C4.89211 4.02441 4.00011 4.91643 4.00011 6.02443V7.02444H5.00009V6.02443C5.00009 5.47043 5.44607 5.02442 6.00007 5.02442H7.00005V4.02441H6.00011ZM17 4.02441V5.02442H17.9999C18.5539 5.02442 18.9999 5.47043 18.9999 6.02443V7.02444H19.9999V6.02443C19.9999 4.91643 19.1079 4.02441 17.9999 4.02441H17ZM4 17.0244V18.0244C4 19.1324 4.892 20.0244 6 20.0244H6.99998V19.0244H6C5.446 19.0244 5.00002 18.5784 5.00002 18.0244V17.0244H4ZM18.9997 17.0244V18.0244C18.9997 18.5784 18.5537 19.0244 17.9997 19.0244H16.9997V20.0244H17.9997C19.1077 20.0244 19.9997 19.1324 19.9997 18.0244V17.0244H18.9997Z" fill="url(#paint1_linear_10_17883)"/>
<defs>
<linearGradient id="paint0_linear_10_17883" x1="7" y1="12.0243" x2="16.9998" y2="12.0243" gradientUnits="userSpaceOnUse">
<stop stop-color="#FDFC47"/>
<stop offset="1" stop-color="#24FE41"/>
</linearGradient>
<linearGradient id="paint1_linear_10_17883" x1="4" y1="12.0244" x2="19.9999" y2="12.0244" gradientUnits="userSpaceOnUse">
<stop stop-color="#FDFC47"/>
<stop offset="1" stop-color="#24FE41"/>
</linearGradient>
</defs>
</svg>
