<svg width="24" height="24" viewBox="0 0 24 24" fill="none" xmlns="http://www.w3.org/2000/svg">
<path d="M6 4C4.892 4 4 4.892 4 6V7H5V6C5 5.446 5.446 5 6 5H7V4H6ZM17 4V5H18C18.554 5 19 5.446 19 6V7H20V6C20 4.892 19.108 4 18 4H17ZM14 6C13.446 6 13 6.446 13 7V17C13 17.554 13.446 18 14 18H17C17.554 18 18 17.554 18 17V7C18 6.446 17.554 6 17 6H14ZM7 9C6.446 9 6 9.446 6 10V14C6 14.554 6.446 15 7 15H8C8.554 15 9 14.554 9 14V10C9 9.446 8.554 9 8 9H7ZM10 10V14L12 12L10 10ZM4 17V18C4 19.108 4.892 20 6 20H7V19H6C5.446 19 5 18.554 5 18V17H4ZM19 17V18C19 18.554 18.554 19 18 19H17V20H18C19.108 20 20 19.108 20 18V17H19Z" fill="url(#paint0_linear_10_17879)"/>
<defs>
<linearGradient id="paint0_linear_10_17879" x1="4" y1="12" x2="20" y2="12" gradientUnits="userSpaceOnUse">
<stop stop-color="#FDFC47"/>
<stop offset="1" stop-color="#24FE41"/>
</linearGradient>
</defs>
</svg>
