<svg width="24" height="24" viewBox="0 0 24 24" fill="none" xmlns="http://www.w3.org/2000/svg">
<path d="M6 4C4.892 4 4 4.892 4 6V11H5V6C5 5.446 5.446 5 6 5H18C18.554 5 19 5.446 19 6V18C19 18.554 18.554 19 18 19H13V20H18C19.108 20 20 19.108 20 18V6C20 4.892 19.108 4 18 4H6ZM15.293 8L12 11.293V9H11V13H15V12H12.707L16 8.707L15.293 8ZM6 14C4.892 14 4 14.892 4 16H5C5 15.446 5.446 15 6 15V14ZM8 14V15C8.554 15 9 15.446 9 16H10C10 14.892 9.108 14 8 14ZM4 18C4 19.108 4.892 20 6 20V19C5.446 19 5 18.554 5 18H4ZM9 18C9 18.554 8.554 19 8 19V20C9.108 20 10 19.108 10 18H9Z" fill="url(#paint0_linear_10_17905)"/>
<defs>
<linearGradient id="paint0_linear_10_17905" x1="4" y1="12" x2="20" y2="12" gradientUnits="userSpaceOnUse">
<stop stop-color="#FDFC47"/>
<stop offset="1" stop-color="#24FE41"/>
</linearGradient>
</defs>
</svg>
