<svg width="24" height="24" viewBox="0 0 24 24" fill="none" xmlns="http://www.w3.org/2000/svg">
<path d="M18 4C19.108 4 20 4.892 20 6V7H19V6C19 5.446 18.554 5 18 5H17V4H18ZM7 4V5H6C5.446 5 5 5.446 5 6V7H4V6C4 4.892 4.892 4 6 4H7ZM10 6C10.554 6 11 6.446 11 7V17C11 17.554 10.554 18 10 18H7C6.446 18 6 17.554 6 17V7C6 6.446 6.446 6 7 6H10ZM17 9C17.554 9 18 9.446 18 10V14C18 14.554 17.554 15 17 15H16C15.446 15 15 14.554 15 14V10C15 9.446 15.446 9 16 9H17ZM12 10V14L14 12L12 10ZM20 17V18C20 19.108 19.108 20 18 20H17V19H18C18.554 19 19 18.554 19 18V17H20ZM5 17V18C5 18.554 5.446 19 6 19H7V20H6C4.892 20 4 19.108 4 18V17H5Z" fill="url(#paint0_linear_10_17881)"/>
<defs>
<linearGradient id="paint0_linear_10_17881" x1="4" y1="12" x2="20" y2="12" gradientUnits="userSpaceOnUse">
<stop stop-color="#FDFC47"/>
<stop offset="1" stop-color="#24FE41"/>
</linearGradient>
</defs>
</svg>
