<svg width="24" height="24" viewBox="0 0 24 24" fill="none" xmlns="http://www.w3.org/2000/svg">
<path d="M6 4C4.892 4 4 4.892 4 6V8H5V6C5 5.446 5.446 5 6 5H8V4H6ZM12 4L10 6H14L12 4ZM16 4V5H18C18.554 5 19 5.446 19 6V8H20V6C20 4.892 19.108 4 18 4H16ZM9 7C7.892 7 7 7.892 7 9V15C7 16.108 7.892 17 9 17H15C16.108 17 17 16.108 17 15V9C17 7.892 16.108 7 15 7H9ZM9 8H15C15.554 8 16 8.446 16 9V15C16 15.554 15.554 16 15 16H9C8.446 16 8 15.554 8 15V9C8 8.446 8.446 8 9 8ZM6 10L4 12L6 14V10ZM18 10V14L20 12L18 10ZM4 16V18C4 19.108 4.892 20 6 20H8V19H6C5.446 19 5 18.554 5 18V16H4ZM19 16V18C19 18.554 18.554 19 18 19H16V20H18C19.108 20 20 19.108 20 18V16H19ZM10 18L12 20L14 18H10Z" fill="url(#paint0_linear_10_17887)"/>
<defs>
<linearGradient id="paint0_linear_10_17887" x1="4" y1="12" x2="20" y2="12" gradientUnits="userSpaceOnUse">
<stop stop-color="#FDFC47"/>
<stop offset="1" stop-color="#24FE41"/>
</linearGradient>
</defs>
</svg>
