<svg width="16" height="16" viewBox="0 0 16 16" fill="none" xmlns="http://www.w3.org/2000/svg">
<g clip-path="url(#clip0_9_5475)">
<path d="M8.00195 0.365227C7.90056 0.364798 7.80143 0.395202 7.71771 0.452408C7.634 0.509614 7.56965 0.590918 7.5332 0.685537L5.6621 5.53904L0.474602 5.81248C0.373235 5.81715 0.275687 5.85254 0.194916 5.91397C0.114144 5.97539 0.0539718 6.05994 0.0223914 6.15637C-0.00918905 6.25281 -0.010683 6.35657 0.0181081 6.45388C0.0468991 6.55118 0.104612 6.63742 0.183582 6.70115L4.21878 9.98435L2.88478 15.0058C2.85849 15.1036 2.8625 15.207 2.89626 15.3025C2.93002 15.3979 2.99196 15.4809 3.07387 15.5403C3.15579 15.5998 3.25383 15.633 3.35503 15.6356C3.45623 15.6382 3.55582 15.6099 3.64064 15.5547L8.00004 12.7305L12 15.3223V14C12.0003 13.8244 12.0468 13.6519 12.1348 13.5C12.0468 13.348 12.0003 13.1756 12 13V10.8086L11.7813 9.98436L12 9.80663V8.51563L10.9004 9.41211C10.8258 9.4728 10.7703 9.55372 10.7405 9.64517C10.7107 9.73662 10.7079 9.83473 10.7325 9.92773L11.8165 14.0117L8.27157 11.7148C8.19068 11.6625 8.09641 11.6347 8.00009 11.6347C7.90377 11.6347 7.80949 11.6625 7.7286 11.7148L4.1837 14.0117L5.2677 9.92773C5.29226 9.83473 5.28948 9.73662 5.25968 9.64517C5.22989 9.55372 5.17435 9.4728 5.09973 9.41211L1.82433 6.74411L6.03913 6.52145C6.13548 6.51615 6.22823 6.48308 6.3062 6.42625C6.38418 6.36942 6.44405 6.29123 6.47858 6.20114L8.00008 2.25584L9.52158 6.20114C9.55612 6.29123 9.61599 6.36942 9.69396 6.42625C9.77194 6.48308 9.86469 6.51615 9.96103 6.52145L14.1758 6.74411L13.8614 6.99997H15.0001C15.1245 7.0006 15.2477 7.02445 15.3634 7.07028L15.8165 6.70114C15.8955 6.63741 15.9532 6.55117 15.982 6.45387C16.0107 6.35656 16.0093 6.2528 15.9777 6.15637C15.9461 6.05993 15.8859 5.97539 15.8051 5.91396C15.7244 5.85254 15.6268 5.81714 15.5255 5.81247L10.338 5.53903L8.46686 0.685529C8.43066 0.591532 8.36691 0.510661 8.28396 0.453507C8.20102 0.396353 8.10268 0.365588 8.00195 0.365227Z" fill="url(#paint0_linear_9_5475)"/>
<path d="M13 8V13H15V8H13ZM13 14V16H15V14H13Z" fill="url(#paint1_linear_9_5475)"/>
</g>
<defs>
<linearGradient id="paint0_linear_9_5475" x1="-0.00244141" y1="8.00049" x2="16.0025" y2="8.00049" gradientUnits="userSpaceOnUse">
<stop stop-color="#FDFC47"/>
<stop offset="1" stop-color="#24FE41"/>
</linearGradient>
<linearGradient id="paint1_linear_9_5475" x1="13" y1="8" x2="17.9377" y2="10.7774" gradientUnits="userSpaceOnUse">
<stop stop-color="#FF0500"/>
<stop offset="1" stop-color="#FD3632"/>
</linearGradient>
<clipPath id="clip0_9_5475">
<rect width="16" height="16" fill="white"/>
</clipPath>
</defs>
</svg>
