<svg width="16" height="16" viewBox="0 0 16 16" fill="none" xmlns="http://www.w3.org/2000/svg">
<g clip-path="url(#clip0_9_5483)">
<path d="M8.00234 0.000244141C5.88064 0.000244141 3.84583 0.843088 2.34556 2.34336C0.845286 3.84363 0.00244141 5.87844 0.00244141 8.00014C0.00244141 10.1218 0.845286 12.1567 2.34556 13.6569C3.84583 15.1572 5.88064 16 8.00234 16C10.124 16 12.1589 15.1572 13.6591 13.6569C15.1594 12.1567 16.0022 10.1218 16.0022 8.00014C16.0022 5.87844 15.1594 3.84363 13.6591 2.34336C12.1589 0.843088 10.124 0.000244141 8.00234 0.000244141ZM8.00234 0.889124C9.8883 0.889124 11.697 1.63832 13.0306 2.97189C14.3641 4.30546 15.1133 6.11417 15.1133 8.00012C15.1133 8.93395 14.9294 9.85864 14.572 10.7214C14.2147 11.5841 13.6909 12.368 13.0306 13.0284C12.3703 13.6887 11.5863 14.2125 10.7236 14.5698C9.86086 14.9272 8.93617 15.1111 8.00234 15.1111C6.11639 15.1111 4.30768 14.3619 2.97411 13.0284C1.64053 11.6948 0.891341 9.88608 0.891341 8.00012C0.891341 6.11417 1.64053 4.30546 2.97411 2.97189C4.30768 1.63832 6.11639 0.889124 8.00234 0.889124Z" fill="url(#paint0_linear_9_5483)"/>
<path opacity="0.5" d="M8.00225 2.6669C5.05675 2.6669 2.66895 5.0547 2.66895 8.0002C2.66895 10.9457 5.05675 13.3335 8.00225 13.3335C10.9477 13.3335 13.3355 10.9457 13.3355 8.0002C13.3355 5.0547 10.9477 2.6669 8.00225 2.6669ZM8.00225 3.11134C10.7022 3.11134 12.891 5.30014 12.891 8.00014C12.891 10.7001 10.7022 12.8889 8.00225 12.8889C5.30225 12.8889 3.11345 10.7001 3.11345 8.00014C3.11345 5.30014 5.30225 3.11134 8.00225 3.11134Z" fill="url(#paint1_linear_9_5483)"/>
<path opacity="0.5" d="M8.00229 5.33351C6.52959 5.33351 5.33569 6.52741 5.33569 8.00011C5.33569 9.47281 6.52959 10.6667 8.00229 10.6667C9.47499 10.6667 10.6689 9.47281 10.6689 8.00011C10.6689 6.52741 9.47499 5.33351 8.00229 5.33351ZM8.00229 5.77795C9.22959 5.77795 10.2245 6.77287 10.2245 8.00015C10.2245 9.22743 9.22957 10.2224 8.00229 10.2224C6.77501 10.2224 5.78009 9.22743 5.78009 8.00015C5.78009 6.77287 6.77501 5.77795 8.00229 5.77795Z" fill="url(#paint2_linear_9_5483)"/>
<path d="M13.6092 3.06551L12.9807 2.43698L7.72931 7.68838L8.35785 8.31691L13.6092 3.06551Z" fill="url(#paint3_linear_9_5483)"/>
</g>
<defs>
<linearGradient id="paint0_linear_9_5483" x1="0.00244141" y1="8.00014" x2="16.0022" y2="8.00014" gradientUnits="userSpaceOnUse">
<stop stop-color="#FDFC47"/>
<stop offset="1" stop-color="#24FE41"/>
</linearGradient>
<linearGradient id="paint1_linear_9_5483" x1="2.66895" y1="8.0002" x2="13.3355" y2="8.0002" gradientUnits="userSpaceOnUse">
<stop stop-color="#FDFC47"/>
<stop offset="1" stop-color="#24FE41"/>
</linearGradient>
<linearGradient id="paint2_linear_9_5483" x1="5.33569" y1="8.00011" x2="10.6689" y2="8.00011" gradientUnits="userSpaceOnUse">
<stop stop-color="#FDFC47"/>
<stop offset="1" stop-color="#24FE41"/>
</linearGradient>
<linearGradient id="paint3_linear_9_5483" x1="10.355" y1="5.06268" x2="10.9835" y2="5.69121" gradientUnits="userSpaceOnUse">
<stop stop-color="#FDFC47"/>
<stop offset="1" stop-color="#24FE41"/>
</linearGradient>
<clipPath id="clip0_9_5483">
<rect width="16" height="16" fill="white"/>
</clipPath>
</defs>
</svg>
