<svg width="16" height="16" viewBox="0 0 16 16" fill="none" xmlns="http://www.w3.org/2000/svg">
<path d="M12.779 1C9.81876 1 9.26176 5 10.929 5C12.593 5 15.741 1 12.779 1ZM8.22976 2C8.18276 2 8.13076 2.005 8.07876 2.01C6.38376 2.214 6.97876 4.949 7.88176 5C8.75476 5.05 9.70976 2.008 8.22976 2ZM5.13976 3C5.01876 2.995 4.88376 3.011 4.73476 3.049C3.14876 3.45 4.49376 5.106 5.38176 4.994C6.18776 4.893 6.30476 3.047 5.13976 3ZM2.92876 5C2.78676 4.998 2.63276 5.029 2.46976 5.105C1.16576 5.721 2.90976 7.207 3.67676 6.977C4.34776 6.775 3.91976 5.023 2.92876 5ZM9.01076 6C6.67676 5.963 3.59876 7.065 3.07276 9.279C2.50476 11.676 5.41576 15 8.44976 15C9.94276 15 11.665 14.329 11.987 12.721C12.232 11.495 8.89576 12.023 9.00876 12.834C9.14376 13.807 8.44576 13.652 7.57076 13.025C5.00076 11 12.181 10.034 11.694 7.307C11.543 6.458 10.411 6.024 9.01076 6.002V6Z" fill="url(#paint0_linear_9_5524)"/>
<defs>
<linearGradient id="paint0_linear_9_5524" x1="2" y1="8" x2="14.0002" y2="8" gradientUnits="userSpaceOnUse">
<stop stop-color="#FDFC47"/>
<stop offset="1" stop-color="#24FE41"/>
</linearGradient>
</defs>
</svg>
