<svg width="16" height="16" viewBox="0 0 16 16" fill="none" xmlns="http://www.w3.org/2000/svg">
<g clip-path="url(#clip0_9_5555)">
<path d="M6.5 3.00001C5.91321 3.00004 5.34513 3.20649 4.89523 3.58319C4.44532 3.9599 4.14226 4.48285 4.0391 5.06051C3.86214 5.02083 3.68139 5.00053 3.50004 4.99996C3.17174 4.99996 2.84665 5.06462 2.54333 5.19026C2.24002 5.3159 1.96442 5.50004 1.73227 5.73219C1.26343 6.20103 1.00004 6.83692 1.00004 7.49996C1.00029 7.80369 1.05588 8.10483 1.1641 8.38863C0.807806 8.61387 0.51425 8.92555 0.310724 9.29468C0.107198 9.66381 0.000310732 10.0784 0 10.4999C0 11.163 0.263392 11.7989 0.732233 12.2677C1.20107 12.7365 1.83696 12.9999 2.5 12.9999C2.8721 12.9998 3.23948 12.9167 3.57535 12.7565C3.91121 12.5963 4.20709 12.3632 4.4414 12.0741C5.15988 12.6722 6.06515 12.9998 7 12.9999C8.00476 12.9994 8.97253 12.6209 9.7109 11.9394C9.99256 12.2718 10.3432 12.5389 10.7386 12.722C11.1339 12.9051 11.5643 13 12 12.9999C12.7956 12.9999 13.5587 12.6839 14.1213 12.1212C14.6839 11.5586 15 10.7956 15 9.99993C14.9996 9.36438 14.7974 8.74538 14.4225 8.23217C14.0476 7.71897 13.5194 7.33808 12.9141 7.14443C12.9707 6.93424 12.9996 6.71757 13 6.4999C13 5.83686 12.7366 5.20097 12.2678 4.73213C11.799 4.26329 11.1631 3.9999 10.5 3.9999C9.88902 3.99985 9.29914 4.22358 8.84184 4.62881C8.66418 4.15089 8.34464 3.73872 7.92607 3.44757C7.5075 3.15642 7.00987 3.00032 6.5 3.00001Z" fill="url(#paint0_linear_9_5555)"/>
</g>
<defs>
<linearGradient id="paint0_linear_9_5555" x1="0" y1="7.99992" x2="15" y2="7.99992" gradientUnits="userSpaceOnUse">
<stop stop-color="#FDFC47"/>
<stop offset="1" stop-color="#24FE41"/>
</linearGradient>
<clipPath id="clip0_9_5555">
<rect width="16" height="16" fill="white"/>
</clipPath>
</defs>
</svg>
