<svg width="16" height="16" viewBox="0 0 16 16" fill="none" xmlns="http://www.w3.org/2000/svg">
<path d="M2 2C0.892 2 0 2.892 0 4V13C0 14.108 0.892 15 2 15H9.6777C9.3236 14.7149 9.01475 14.3777 8.76168 14H1.99998C1.44598 14 0.99998 13.554 0.99998 13V7H15V7.75977C15.3775 8.01225 15.7147 8.32042 16 8.67383V5.00003C16 3.89203 15.108 3.00003 14 3.00003H6.37108C5.79123 2.97713 5.76638 3.07691 5.33198 2.64261C4.89817 2.2088 4.71898 2.00048 3.99998 2.00003L2 2ZM2 3H4C4.31116 3 4.52033 3.00014 4.99805 3.4707C5.47682 3.94231 5.63685 4 5.99805 4H14C14.554 4 15 4.446 15 5V6H1.00005V4C1.00005 3.446 1.446 3 2 3Z" fill="url(#paint0_linear_9_5550)"/>
<path d="M12.5 8C10.567 8 9 9.567 9 11.5C9 13.433 10.567 15 12.5 15C14.433 15 16 13.433 16 11.5C16 9.567 14.433 8 12.5 8ZM11.5 9C11.777 9 12 9.223 12 9.5V12H14.5C14.777 12 15 12.223 15 12.5C15 12.777 14.777 13 14.5 13H11.5C11.223 13 11 12.777 11 12.5V9.5C11 9.223 11.223 9 11.5 9Z" fill="url(#paint1_linear_9_5550)"/>
<defs>
<linearGradient id="paint0_linear_9_5550" x1="0" y1="8.5" x2="16" y2="8.5" gradientUnits="userSpaceOnUse">
<stop stop-color="#FDFC47"/>
<stop offset="1" stop-color="#24FE41"/>
</linearGradient>
<linearGradient id="paint1_linear_9_5550" x1="9" y1="11.5" x2="16" y2="11.5" gradientUnits="userSpaceOnUse">
<stop stop-color="#FDFC47"/>
<stop offset="1" stop-color="#24FE41"/>
</linearGradient>
</defs>
</svg>
