<svg width="16" height="16" viewBox="0 0 16 16" fill="none" xmlns="http://www.w3.org/2000/svg">
<path d="M3 6C2.46957 6 1.96086 6.21071 1.58579 6.58579C1.21071 6.96086 1 7.46957 1 8C1 8.53043 1.21071 9.03914 1.58579 9.41421C1.96086 9.78929 2.46957 10 3 10C3.53043 10 4.03914 9.78929 4.41421 9.41421C4.78929 9.03914 5 8.53043 5 8C5 7.46957 4.78929 6.96086 4.41421 6.58579C4.03914 6.21071 3.53043 6 3 6ZM3 7C3.26522 7 3.51957 7.10536 3.70711 7.29289C3.89464 7.48043 4 7.73478 4 8C4 8.26522 3.89464 8.51957 3.70711 8.70711C3.51957 8.89464 3.26522 9 3 9C2.73478 9 2.48043 8.89464 2.29289 8.70711C2.10536 8.51957 2 8.26522 2 8C2 7.73478 2.10536 7.48043 2.29289 7.29289C2.48043 7.10536 2.73478 7 3 7Z" fill="url(#paint0_linear_9_5489)"/>
<path d="M8 6C7.46957 6 6.96086 6.21071 6.58579 6.58579C6.21071 6.96086 6 7.46957 6 8C6 8.53043 6.21071 9.03914 6.58579 9.41421C6.96086 9.78929 7.46957 10 8 10C8.53043 10 9.03914 9.78929 9.41421 9.41421C9.78929 9.03914 10 8.53043 10 8C10 7.46957 9.78929 6.96086 9.41421 6.58579C9.03914 6.21071 8.53043 6 8 6ZM8 7C8.26522 7 8.51957 7.10536 8.70711 7.29289C8.89464 7.48043 9 7.73478 9 8C9 8.26522 8.89464 8.51957 8.70711 8.70711C8.51957 8.89464 8.26522 9 8 9C7.73478 9 7.48043 8.89464 7.29289 8.70711C7.10536 8.51957 7 8.26522 7 8C7 7.73478 7.10536 7.48043 7.29289 7.29289C7.48043 7.10536 7.73478 7 8 7Z" fill="url(#paint1_linear_9_5489)"/>
<path d="M13 6C12.4696 6 11.9609 6.21071 11.5858 6.58579C11.2107 6.96086 11 7.46957 11 8C11 8.53043 11.2107 9.03914 11.5858 9.41421C11.9609 9.78929 12.4696 10 13 10C13.5304 10 14.0391 9.78929 14.4142 9.41421C14.7893 9.03914 15 8.53043 15 8C15 7.46957 14.7893 6.96086 14.4142 6.58579C14.0391 6.21071 13.5304 6 13 6ZM13 7C13.2652 7 13.5196 7.10536 13.7071 7.29289C13.8946 7.48043 14 7.73478 14 8C14 8.26522 13.8946 8.51957 13.7071 8.70711C13.5196 8.89464 13.2652 9 13 9C12.7348 9 12.4804 8.89464 12.2929 8.70711C12.1054 8.51957 12 8.26522 12 8C12 7.73478 12.1054 7.48043 12.2929 7.29289C12.4804 7.10536 12.7348 7 13 7Z" fill="url(#paint2_linear_9_5489)"/>
<defs>
<linearGradient id="paint0_linear_9_5489" x1="1" y1="8" x2="5" y2="8" gradientUnits="userSpaceOnUse">
<stop stop-color="#FDFC47"/>
<stop offset="1" stop-color="#24FE41"/>
</linearGradient>
<linearGradient id="paint1_linear_9_5489" x1="6" y1="8" x2="10" y2="8" gradientUnits="userSpaceOnUse">
<stop stop-color="#FDFC47"/>
<stop offset="1" stop-color="#24FE41"/>
</linearGradient>
<linearGradient id="paint2_linear_9_5489" x1="11" y1="8" x2="15" y2="8" gradientUnits="userSpaceOnUse">
<stop stop-color="#FDFC47"/>
<stop offset="1" stop-color="#24FE41"/>
</linearGradient>
</defs>
</svg>
