<svg width="16" height="16" viewBox="0 0 16 16" fill="none" xmlns="http://www.w3.org/2000/svg">
<path d="M8 0C5.784 0 4 1.784 4 4V6H5V4C5 2.338 6.338 1 8 1C9.662 1 11 2.338 11 4V6H12V4C12 1.784 10.216 0 8 0Z" fill="url(#paint0_linear_9_5534)"/>
<path d="M4 6C2.892 6 2 6.892 2 8V13C2 14.108 2.892 15 4 15H12C13.108 15 14 14.108 14 13V8C14 6.892 13.108 6 12 6H4ZM4 7H12C12.554 7 13 7.446 13 8V13C13 13.554 12.554 14 12 14H4C3.446 14 3 13.554 3 13V8C3 7.446 3.446 7 4 7Z" fill="url(#paint1_linear_9_5534)"/>
<defs>
<linearGradient id="paint0_linear_9_5534" x1="4" y1="3" x2="12" y2="3" gradientUnits="userSpaceOnUse">
<stop stop-color="#FDFC47"/>
<stop offset="1" stop-color="#24FE41"/>
</linearGradient>
<linearGradient id="paint1_linear_9_5534" x1="2" y1="10.5" x2="14" y2="10.5" gradientUnits="userSpaceOnUse">
<stop stop-color="#FDFC47"/>
<stop offset="1" stop-color="#24FE41"/>
</linearGradient>
</defs>
</svg>
