<svg width="16" height="16" viewBox="0 0 16 16" fill="none" xmlns="http://www.w3.org/2000/svg">
<path d="M7.09206 2.04657C3.5365 2.04657 4.36368 5.29474 2.54323 6.27313C2.48049 6.30873 2.44521 6.34152 2.38894 6.37665C3.58948 5.66206 5.06924 5.06458 6.64089 4.65985C7.9718 4.31747 9.32173 4.12539 10.5667 4.10126C10.5987 4.10114 10.6306 4.10114 10.6624 4.10126C9.46179 3.76009 9.33051 2.04657 7.09206 2.04657ZM10.9671 5.00165C9.72212 5.02579 8.37219 5.21786 7.04128 5.56024C2.65481 6.689 -0.471362 9.14359 0.0588578 11.0427C0.364379 12.1279 1.83643 12.844 4.02956 12.9743C4.02856 12.9661 4.02655 12.9591 4.02565 12.9509C3.90726 11.9241 4.55873 11.0309 5.32253 10.4255C6.08632 9.82002 7.06879 9.38039 8.17213 9.14618C9.27547 8.91196 10.3086 8.92328 11.1721 9.18329C11.984 9.42772 12.7479 9.96109 12.9358 10.8766C15.1339 9.64431 16.274 8.15848 15.9436 6.95672C15.5937 5.69853 13.6851 4.94872 10.9671 5.00165ZM9.66237 9.99969C9.22081 9.99447 8.75258 10.043 8.28542 10.1423C7.8266 10.2396 7.37782 10.3841 6.96469 10.5675C6.55156 10.7508 6.18219 10.9694 5.87767 11.2108C5.57314 11.4523 5.33944 11.7117 5.1899 11.9744C5.04035 12.2371 4.97791 12.4979 5.00612 12.7419C5.0344 12.9858 5.15277 13.2082 5.35448 13.3963C5.55618 13.5843 5.83727 13.7345 6.18169 13.838C6.52611 13.9416 6.92711 13.9966 7.3618 13.9998C7.79649 14.0031 8.25634 13.9546 8.71511 13.8571C9.6415 13.6602 10.5072 13.2758 11.1218 12.7882C11.7365 12.3007 12.0496 11.7501 11.9925 11.2575C11.9502 10.8925 11.7066 10.5786 11.2922 10.3549C10.8779 10.1312 10.311 10.0076 9.66237 9.99969Z" fill="url(#paint0_linear_9_5605)"/>
<defs>
<linearGradient id="paint0_linear_9_5605" x1="0.000244141" y1="8.02328" x2="15.9999" y2="8.02328" gradientUnits="userSpaceOnUse">
<stop stop-color="#FDFC47"/>
<stop offset="1" stop-color="#24FE41"/>
</linearGradient>
</defs>
</svg>
