<svg width="16" height="16" viewBox="0 0 16 16" fill="none" xmlns="http://www.w3.org/2000/svg">
<path d="M2 1C0.892 1 0 1.892 0 3V12C0 13.108 0.892 14 2 14H14C15.108 14 16 13.108 16 12V3C16 1.892 15.108 1 14 1H2ZM2 2H3V3H1C1 2.446 1.446 2 2 2ZM4 2H12V7H4V2ZM13 2H14C14.554 2 15 2.446 15 3H13V2ZM1 4H3V5H1V4ZM13 4H15V5H13V4ZM1 6H3V7H1V6ZM13 6H15V7H13V6ZM1 8H3V9H1V8ZM4 8H12V13H4V8ZM13 8H15V9H13V8ZM1 10H3V11H1V10ZM13 10H15V11H13V10ZM1 12H3V13H2C1.446 13 1 12.554 1 12ZM13 12H15C15 12.554 14.554 13 14 13H13V12Z" fill="url(#paint0_linear_9_5595)"/>
<defs>
<linearGradient id="paint0_linear_9_5595" x1="0" y1="7.5" x2="16" y2="7.5" gradientUnits="userSpaceOnUse">
<stop stop-color="#FDFC47"/>
<stop offset="1" stop-color="#24FE41"/>
</linearGradient>
</defs>
</svg>
