<svg width="16" height="16" viewBox="0 0 16 16" fill="none" xmlns="http://www.w3.org/2000/svg">
<path d="M11 2.0078L8 4.0078L12 6.0078L15 4.0078L11 2.0078ZM12 6.0078L8 8.5078L11 10.508L15 8.5078L12 6.0078ZM5 2.0254L1 4.0254L3.9551 5.9961L1 8.459L5 10.459L8 8.459L4.0586 5.9961L8 4.0254L5 2.0254ZM8 9.541L5 11.541L4 11.041V12.041L8 14.041L12 12.041V11.041L11 11.541L8 9.541Z" fill="url(#paint0_linear_9_5509)"/>
<defs>
<linearGradient id="paint0_linear_9_5509" x1="1" y1="8.0244" x2="15" y2="8.0244" gradientUnits="userSpaceOnUse">
<stop stop-color="#FDFC47"/>
<stop offset="1" stop-color="#24FE41"/>
</linearGradient>
</defs>
</svg>
