<svg width="16" height="16" viewBox="0 0 16 16" fill="none" xmlns="http://www.w3.org/2000/svg">
<path d="M7 0C5.892 0 5 0.892 5 2V3H3C1.892 3 1 3.892 1 5V14C1 15.108 1.892 16 3 16H9C10.108 16 11 15.108 11 14V13H13C14.108 13 15 12.108 15 11V6.4141V5L10 0H9H7ZM7 1H9V5V6H14V11C14 11.554 13.554 12 13 12H11V9.4141V8L6 3V2C6 1.8615 6.02766 1.72909 6.07812 1.60938C6.22953 1.25022 6.5845 1 7 1ZM10 1.41406L13.5859 4.99996H10V1.41406ZM3 3.99996H5V7.99996V8.99996H10V14C10 14.554 9.554 15 9 15H3C2.446 15 2 14.554 2 14V4.99996C2 4.86146 2.02766 4.72905 2.07812 4.60934C2.22953 4.25018 2.5845 3.99996 3 3.99996ZM6 4.41402L9.5859 7.99992H6V4.41402Z" fill="url(#paint0_linear_9_5505)"/>
<defs>
<linearGradient id="paint0_linear_9_5505" x1="1" y1="8" x2="15" y2="8" gradientUnits="userSpaceOnUse">
<stop stop-color="#FDFC47"/>
<stop offset="1" stop-color="#24FE41"/>
</linearGradient>
</defs>
</svg>
