<svg width="16" height="16" viewBox="0 0 16 16" fill="none" xmlns="http://www.w3.org/2000/svg">
<path d="M6.5 0.999994C3.4624 0.999994 1 3.46239 1 6.49999C1 9.53759 3.4624 12 6.5 12C7.6132 12 8.7001 11.6622 9.6172 11.0312L13.3027 14.7167C14.2612 15.7259 15.7383 14.2139 14.707 13.2792L12.3574 10.9315L11.0371 9.61124L11.0273 9.60148C11.6551 8.68859 11.9975 7.60908 12 6.49988C12 3.46228 9.5376 0.999994 6.5 0.999994ZM6.5 1.99999C8.9853 1.99999 11 4.01469 11 6.49999C11 8.98529 8.9853 11 6.5 11C4.0147 11 2 8.98529 2 6.49999C2 4.01469 4.0147 1.99999 6.5 1.99999Z" fill="url(#paint0_linear_9_5574)"/>
<defs>
<linearGradient id="paint0_linear_9_5574" x1="1" y1="8.02531" x2="15.0579" y2="8.02531" gradientUnits="userSpaceOnUse">
<stop stop-color="#FDFC47"/>
<stop offset="1" stop-color="#24FE41"/>
</linearGradient>
</defs>
</svg>
