<svg width="16" height="16" viewBox="0 0 16 16" fill="none" xmlns="http://www.w3.org/2000/svg">
<g clip-path="url(#clip0_9_5503)">
<path d="M7.9842 0.00174876C7.60464 0.0337948 7.60473 0.352969 7.46864 1.14015C7.2124 1.16171 6.95757 1.19748 6.70534 1.24729C6.36872 0.436779 6.25108 0.153389 5.93312 0.260669C5.56753 0.383959 5.65321 0.696969 5.70994 1.51737C5.4681 1.60168 5.23115 1.6993 5.00021 1.80979C4.43248 1.12572 4.23832 0.887429 3.96461 1.08433C3.65585 1.30646 3.82083 1.58164 4.10968 2.32543C3.89558 2.47153 3.68992 2.62952 3.49369 2.79865C2.77824 2.27102 2.53123 2.08884 2.31309 2.34552C2.06546 2.63679 2.29688 2.86045 2.7617 3.52192C2.59598 3.71343 2.44101 3.91389 2.29747 4.12238C1.54762 3.84424 1.27057 3.68179 1.05217 3.99291C0.858939 4.26807 1.09848 4.46075 1.78868 5.01521C1.67643 5.24686 1.57733 5.48459 1.49184 5.72728C0.702939 5.65271 0.393939 5.5705 0.264339 5.92595C0.150259 6.23873 0.428469 6.36437 1.22181 6.71391C1.17511 6.96341 1.14232 7.21529 1.12361 7.46839C0.345836 7.61864 0.0250057 7.62442 0.00100572 8.00189C-0.0198203 8.32972 0.280516 8.37501 1.11471 8.48405C1.13524 8.75382 1.17176 9.02214 1.22407 9.28763C0.509406 9.60006 0.202366 9.68014 0.262136 10.051C0.315346 10.3813 0.620286 10.3529 1.49414 10.272C1.58295 10.5249 1.68653 10.7723 1.80436 11.0131C1.19504 11.4843 0.917576 11.6387 1.06562 11.9819C1.1987 12.2904 1.48949 12.1869 2.32442 11.8926C2.46414 12.0947 2.61464 12.2891 2.77525 12.4752C2.31571 13.1484 2.08546 13.3759 2.33781 13.6649C2.55792 13.9171 2.80266 13.7318 3.50061 13.2028C3.69751 13.3728 3.90391 13.5315 4.11884 13.6783C3.83913 14.4551 3.67084 14.7344 3.98939 14.9528C4.26838 15.1441 4.45732 14.9004 5.01379 14.1983L4.87765 14.1179C5.14075 14.2504 5.41211 14.366 5.69005 14.4639C5.63613 15.2616 5.55852 15.5733 5.91993 15.6939C6.23282 15.7983 6.35111 15.5208 6.67206 14.7408C6.93096 14.7906 7.19252 14.8256 7.45545 14.8457C7.60334 15.7282 7.65202 16.0309 7.98887 15.9975C8.36706 15.9601 8.36051 15.6397 8.48434 14.8546C8.74946 14.8355 9.01326 14.8012 9.27442 14.7519C9.59989 15.543 9.71844 15.8234 10.0332 15.7185C10.3948 15.5979 10.317 15.2868 10.2631 14.4885C10.5072 14.4044 10.7464 14.3068 10.9795 14.196C11.52 14.8779 11.7106 15.1171 11.9861 14.9282C12.2989 14.7137 12.1406 14.4365 11.8701 13.6916C12.0922 13.5418 12.3053 13.3794 12.5084 13.205C13.177 13.7115 13.4217 13.8877 13.6377 13.6402C13.8837 13.3584 13.6681 13.1277 13.2315 12.4929C13.3978 12.3037 13.5535 12.1054 13.698 11.8992C14.5143 12.1869 14.8027 12.2873 14.9344 11.9818C15.0815 11.6406 14.8085 11.4866 14.2068 11.0219C14.3264 10.7783 14.4315 10.5279 14.5215 10.2719C15.3801 10.3514 15.685 10.3788 15.7379 10.0509C15.797 9.68365 15.4936 9.59917 14.7938 9.29424C14.8441 9.02641 14.8784 8.75584 14.8965 8.48396C15.7213 8.37609 16.0197 8.32803 15.999 8.0018C15.9753 7.62848 15.6578 7.61828 14.8987 7.47277C14.8782 7.21505 14.8432 6.95868 14.7938 6.70489C15.5734 6.36131 15.8489 6.23631 15.7356 5.92586C15.607 5.57332 15.3005 5.6509 14.5259 5.72496C14.4401 5.47844 14.3402 5.23697 14.2268 5.00174C14.9034 4.45819 15.1393 4.26558 14.9477 3.99284C14.7302 3.68303 14.4539 3.84409 13.7113 4.12008C13.5639 3.90668 13.4044 3.70173 13.2337 3.50623C13.7354 2.7989 13.9101 2.54893 13.6511 2.33883C13.36 2.10277 13.1379 2.32523 12.5151 2.78303C12.314 2.61037 12.1031 2.44938 11.8834 2.30087C12.2155 1.4923 12.3316 1.21137 12.0308 1.06427C11.6845 0.894959 11.5244 1.17515 10.9863 1.79642C10.7531 1.6857 10.5139 1.58808 10.2698 1.504C10.3442 0.619319 10.3735 0.313399 10.04 0.262899C9.66589 0.206292 9.58952 0.515099 9.27889 1.23837C9.01981 1.19155 8.75825 1.15951 8.4955 1.14239C8.36316 0.276106 8.31847 -0.0264512 7.9842 0.00174876ZM7.70745 2.11565C8.4726 2.10286 9.38075 2.23767 9.67595 2.36565C10.9605 2.75635 12.1482 3.47565 13.1598 5.14695C13.3483 5.45821 13.485 5.75954 13.546 6.03535C13.6065 6.32537 13.5842 6.66441 13.3964 6.93045C13.2355 7.14202 13.0362 7.34029 12.7581 7.36573C11.8927 7.44662 10.718 7.40028 9.79201 7.39028C9.63619 7.38859 9.48864 7.32552 9.44384 7.27644C9.1695 7.10395 8.98425 6.73043 8.67831 6.62465C8.18987 6.39889 7.99187 6.58772 7.71638 6.24965C7.20889 5.43741 6.71861 4.60285 6.26788 3.77415C5.94132 3.20701 6.15512 2.63805 6.64729 2.33215C6.83986 2.18312 7.24838 2.12331 7.70745 2.11565ZM4.29715 3.86345C4.33699 3.86222 4.3771 3.86382 4.41767 3.86791C4.6814 3.90395 4.95309 3.98019 5.11178 4.20944C5.60712 4.922 6.14358 5.96444 6.58928 6.77414C6.66428 6.91042 6.68157 7.0705 6.6607 7.13352C6.64468 7.45666 6.40877 7.80004 6.46653 8.11792C6.50907 8.6533 6.77165 8.73264 6.6116 9.13802C6.15129 9.97778 5.66125 10.8151 5.1586 11.6135C4.82357 12.1757 4.22331 12.2662 3.7146 11.9885C3.11549 11.7372 2.3101 9.85222 2.2572 9.34112C1.96795 8.03262 2.01276 6.64552 2.97586 4.94592C3.15522 4.62939 3.35188 4.36416 3.56284 4.17581C3.75848 4.00525 4.01822 3.87217 4.29715 3.86345ZM7.99975 7.42815C8.15128 7.42815 8.29661 7.48835 8.40376 7.59552C8.51091 7.70269 8.57111 7.84803 8.57111 7.99959C8.57111 8.15114 8.51091 8.29649 8.40376 8.40366C8.29661 8.51082 8.15128 8.57103 7.99975 8.57103C7.92472 8.57103 7.85042 8.55625 7.7811 8.52753C7.71178 8.49881 7.64879 8.45672 7.59574 8.40366C7.54268 8.35059 7.50059 8.2876 7.47188 8.21827C7.44317 8.14894 7.42839 8.07463 7.42839 7.99959C7.42839 7.92455 7.44317 7.85024 7.47188 7.78091C7.50059 7.71158 7.54268 7.64858 7.59574 7.59552C7.64879 7.54246 7.71178 7.50036 7.7811 7.47165C7.85042 7.44293 7.92472 7.42815 7.99975 7.42815ZM11.1422 8.62465H11.1444C11.6241 8.62714 12.1036 8.6362 12.5751 8.65367C13.2307 8.66204 13.6108 9.1378 13.6241 9.71617C13.7055 10.3595 12.47 11.9976 12.0529 12.2989C11.0618 13.203 9.83635 13.8571 7.87945 13.8748C7.51499 13.8781 7.18649 13.8401 6.91752 13.752C6.63654 13.6563 6.35735 13.4661 6.22345 13.1694C6.12288 12.9235 6.05247 12.6488 6.17212 12.3971C6.54298 11.6128 7.17842 10.629 7.65852 9.83898C7.73931 9.70604 7.87013 9.61136 7.93527 9.5979C8.22377 9.45017 8.64121 9.48306 8.88827 9.27424C9.33173 8.96979 9.26875 8.70247 9.70067 8.63807C10.1795 8.627 10.6625 8.62219 11.1422 8.62465Z" fill="url(#paint0_linear_9_5503)"/>
</g>
<defs>
<linearGradient id="paint0_linear_9_5503" x1="0" y1="7.99998" x2="16" y2="7.99998" gradientUnits="userSpaceOnUse">
<stop stop-color="#FDFC47"/>
<stop offset="1" stop-color="#24FE41"/>
</linearGradient>
<clipPath id="clip0_9_5503">
<rect width="16" height="16" fill="white"/>
</clipPath>
</defs>
</svg>
