<svg width="16" height="16" viewBox="0 0 16 16" fill="none" xmlns="http://www.w3.org/2000/svg">
<g clip-path="url(#clip0_9_5627)">
<path d="M8.00195 0.365239C7.90056 0.364809 7.80143 0.395214 7.71771 0.45242C7.634 0.509626 7.56965 0.59093 7.5332 0.685549L5.6621 5.53905L0.474602 5.81249C0.373235 5.81716 0.275687 5.85256 0.194916 5.91398C0.114144 5.97541 0.0539718 6.05995 0.0223914 6.15639C-0.00918905 6.25282 -0.010683 6.35658 0.0181081 6.45389C0.0468991 6.55119 0.104612 6.63743 0.183582 6.70116L4.21878 9.98436L2.88478 15.0059C2.85849 15.1036 2.8625 15.2071 2.89626 15.3025C2.93002 15.3979 2.99196 15.4809 3.07387 15.5403C3.15579 15.5998 3.25383 15.633 3.35503 15.6356C3.45623 15.6382 3.55582 15.6099 3.64064 15.5547L8.00004 12.7305L12.3594 15.5547C12.4443 15.6099 12.5439 15.6382 12.6451 15.6356C12.7463 15.633 12.8443 15.5998 12.9262 15.5403C13.0081 15.4809 13.0701 15.3979 13.1038 15.3025C13.1376 15.2071 13.1416 15.1036 13.1153 15.0059L11.7813 9.98436L15.8165 6.70116C15.8955 6.63743 15.9532 6.55119 15.982 6.45389C16.0108 6.35658 16.0093 6.25282 15.9777 6.15639C15.9461 6.05995 15.8859 5.97541 15.8052 5.91398C15.7244 5.85256 15.6268 5.81716 15.5255 5.81249L10.338 5.53905L8.46688 0.685549C8.43068 0.591552 8.36693 0.510681 8.28398 0.453527C8.20104 0.396372 8.10268 0.3656 8.00195 0.365239ZM8 2.25584L9.5215 6.20114C9.55604 6.29124 9.6159 6.36942 9.69388 6.42625C9.77185 6.48309 9.8646 6.51615 9.96095 6.52145L14.1757 6.74411L10.9003 9.41211C10.8257 9.4728 10.7702 9.55372 10.7404 9.64517C10.7106 9.73663 10.7078 9.83473 10.7324 9.92773L11.8164 14.0117L8.27148 11.7148C8.19059 11.6625 8.09632 11.6347 7.99999 11.6347C7.90367 11.6347 7.8094 11.6625 7.72851 11.7148L4.18361 14.0117L5.26761 9.92773C5.29217 9.83473 5.28938 9.73663 5.25959 9.64517C5.2298 9.55372 5.17426 9.4728 5.09964 9.41211L1.82424 6.74411L6.03904 6.52145C6.13538 6.51615 6.22814 6.48309 6.30611 6.42625C6.38409 6.36942 6.44395 6.29124 6.47849 6.20114L8 2.25584Z" fill="url(#paint0_linear_9_5627)"/>
</g>
<defs>
<linearGradient id="paint0_linear_9_5627" x1="-0.00244141" y1="8.0005" x2="16.0025" y2="8.0005" gradientUnits="userSpaceOnUse">
<stop stop-color="#FDFC47"/>
<stop offset="1" stop-color="#24FE41"/>
</linearGradient>
<clipPath id="clip0_9_5627">
<rect width="16" height="16" fill="white"/>
</clipPath>
</defs>
</svg>
