<svg width="16" height="16" viewBox="0 0 16 16" fill="none" xmlns="http://www.w3.org/2000/svg">
<path d="M2 1C0.892 1 0 1.892 0 3V12C0 13.108 0.892 14 2 14H14C15.108 14 16 13.108 16 12V3C16 1.892 15.108 1 14 1H2ZM2 2H14C14.554 2 15 2.446 15 3H1C1 2.446 1.446 2 2 2ZM1 4H15V12C15 12.554 14.554 13 14 13H2C1.446 13 1 12.554 1 12V4ZM4 10C3.446 10 3 10.446 3 11C3 11.554 3.446 12 4 12H12C12.554 12 13 11.554 13 11C13 10.446 12.554 10 12 10H4Z" fill="url(#paint0_linear_9_5629)"/>
<defs>
<linearGradient id="paint0_linear_9_5629" x1="0" y1="7.5" x2="16" y2="7.5" gradientUnits="userSpaceOnUse">
<stop stop-color="#FDFC47"/>
<stop offset="1" stop-color="#24FE41"/>
</linearGradient>
</defs>
</svg>
