<svg width="16" height="16" viewBox="0 0 16 16" fill="none" xmlns="http://www.w3.org/2000/svg">
<g clip-path="url(#clip0_9_5631)">
<path d="M7.99992 1.00589C7.87211 1.00589 7.74434 1.05444 7.6464 1.15237L0.576102 8.22467C0.380232 8.42054 0.380232 8.73583 0.576102 8.9317C0.771972 9.12757 1.08726 9.12757 1.28313 8.9317L1.99993 8.2149V14.0001C1.99993 15.1081 2.89193 16.0001 3.99993 16.0001H11.9999C13.1079 16.0001 13.9999 15.1081 13.9999 14.0001V8.2149L14.7167 8.9317C14.9126 9.12757 15.2279 9.12757 15.4238 8.9317C15.6196 8.73583 15.6196 8.42054 15.4238 8.22467L8.35346 1.15237C8.25553 1.05444 8.12773 1.00589 7.99992 1.00589ZM7.99992 2.21489L12.9999 7.21489V14.0001C12.9999 14.5541 12.5539 15.0001 11.9999 15.0001H9.99992V12.0001C9.99992 10.8921 9.10792 10.0001 7.99992 10.0001C6.89192 10.0001 5.99992 10.8921 5.99992 12.0001V15.0001H3.99992C3.44592 15.0001 2.99992 14.5541 2.99992 14.0001V7.21489L7.99992 2.21489Z" fill="url(#paint0_linear_9_5631)"/>
</g>
<defs>
<linearGradient id="paint0_linear_9_5631" x1="0.429199" y1="8.503" x2="15.5707" y2="8.503" gradientUnits="userSpaceOnUse">
<stop stop-color="#FDFC47"/>
<stop offset="1" stop-color="#24FE41"/>
</linearGradient>
<clipPath id="clip0_9_5631">
<rect width="16" height="16" fill="white"/>
</clipPath>
</defs>
</svg>
