<svg width="22" height="22" viewBox="0 0 22 22" fill="none" xmlns="http://www.w3.org/2000/svg">
<path d="M11.002 3.3652C10.9006 3.36477 10.8014 3.39517 10.7177 3.45238C10.634 3.50959 10.5696 3.59089 10.5332 3.68551L8.6621 8.53901L3.4746 8.81245C3.37323 8.81712 3.27569 8.85252 3.19492 8.91394C3.11414 8.97537 3.05397 9.05991 3.02239 9.15635C2.99081 9.25278 2.98932 9.35654 3.01811 9.45385C3.0469 9.55115 3.10461 9.6374 3.18358 9.70112L7.21878 12.9843L5.88478 18.0058C5.85849 18.1036 5.8625 18.207 5.89626 18.3025C5.93002 18.3979 5.99196 18.4808 6.07387 18.5403C6.15579 18.5998 6.25383 18.633 6.35503 18.6356C6.45623 18.6381 6.55582 18.6099 6.64064 18.5546L11 15.7304L15 18.3222V16.9999C15.0003 16.8243 15.0468 16.6519 15.1348 16.4999C15.0468 16.348 15.0003 16.1756 15 15.9999V13.8085L14.7813 12.9843L15 12.8066V11.5156L13.9004 12.4121C13.8258 12.4728 13.7703 12.5537 13.7405 12.6451C13.7107 12.7366 13.7079 12.8347 13.7325 12.9277L14.8165 17.0117L11.2716 14.7148C11.1907 14.6625 11.0964 14.6347 11.0001 14.6347C10.9038 14.6347 10.8095 14.6625 10.7286 14.7148L7.1837 17.0117L8.2677 12.9277C8.29226 12.8347 8.28947 12.7366 8.25968 12.6451C8.22989 12.5537 8.17435 12.4728 8.09973 12.4121L4.82433 9.74408L9.03913 9.52142C9.13548 9.51612 9.22823 9.48306 9.3062 9.42622C9.38418 9.36939 9.44404 9.29121 9.47858 9.20111L11.0001 5.25581L12.5216 9.20111C12.5561 9.29121 12.616 9.36939 12.694 9.42622C12.7719 9.48306 12.8647 9.51612 12.961 9.52142L17.1758 9.74408L16.8614 9.99994H18.0001C18.1245 10.0006 18.2477 10.0244 18.3634 10.0703L18.8165 9.70111C18.8955 9.63739 18.9532 9.55114 18.982 9.45384C19.0107 9.35654 19.0093 9.25277 18.9777 9.15634C18.9461 9.0599 18.8859 8.97536 18.8051 8.91393C18.7244 8.85251 18.6268 8.81711 18.5255 8.81244L13.338 8.539L11.4669 3.6855C11.4307 3.59151 11.3669 3.51063 11.284 3.45348C11.201 3.39633 11.1027 3.36556 11.002 3.3652Z" fill="url(#paint0_linear_9_4758)"/>
<path d="M16 11V16H18V11H16ZM16 17V19H18V17H16Z" fill="#FF7F2A"/>
<defs>
<linearGradient id="paint0_linear_9_4758" x1="2.99756" y1="11.0005" x2="19.0025" y2="11.0005" gradientUnits="userSpaceOnUse">
<stop stop-color="#FDFC47"/>
<stop offset="1" stop-color="#24FE41"/>
</linearGradient>
</defs>
</svg>
