<svg width="22" height="22" viewBox="0 0 22 22" fill="none" xmlns="http://www.w3.org/2000/svg">
<path d="M5 5C3.892 5 3 5.892 3 7V16C3 17.108 3.892 18 5 18H17C18.108 18 19 17.108 19 16V7C19 5.892 18.108 5 17 5H5ZM5 6H17C17.554 6 18 6.446 18 7V16L13 11L9.5206 15L7 13L4 16V7C4 6.446 4.446 6 5 6ZM7.5 8C6.67157 8 6 8.67157 6 9.5C6 10.3284 6.67157 11 7.5 11C8.32843 11 9 10.3284 9 9.5C9 8.67157 8.32843 8 7.5 8Z" fill="url(#paint0_linear_9_4778)"/>
<defs>
<linearGradient id="paint0_linear_9_4778" x1="3" y1="11.5" x2="19" y2="11.5" gradientUnits="userSpaceOnUse">
<stop stop-color="#FDFC47"/>
<stop offset="1" stop-color="#24FE41"/>
</linearGradient>
</defs>
</svg>
