<svg width="22" height="22" viewBox="0 0 22 22" fill="none" xmlns="http://www.w3.org/2000/svg">
<path d="M11 3C8.87827 3 6.84344 3.8428 5.34315 5.343C3.84285 6.8432 3 8.8779 3 10.9995C3.0023 12.3892 3.36661 13.7543 4.05705 14.9604C4.74749 16.1665 5.74024 17.1719 6.9375 17.8776C7.03332 17.9499 7.14996 17.9891 7.26997 17.9896C7.34293 17.9896 7.41517 17.9752 7.48257 17.9473C7.54998 17.9194 7.61122 17.8784 7.66281 17.8269C7.7144 17.7753 7.75532 17.714 7.78324 17.6466C7.81116 17.5792 7.82553 17.507 7.82553 17.434C7.82554 17.3389 7.80112 17.2454 7.75461 17.1624C7.7081 17.0794 7.64106 17.0098 7.55991 16.9601C6.51259 16.3565 5.64255 15.4879 5.03718 14.4417C4.43182 13.3954 4.11243 12.2083 4.11111 10.9995C4.11111 9.17258 4.8369 7.42046 6.12882 6.12861C7.42074 4.83677 9.17296 4.11102 11 4.11102C12.8271 4.11102 14.5793 4.83677 15.8712 6.12861C17.1631 7.42046 17.8889 9.17258 17.8889 10.9995C17.8872 12.2081 17.5675 13.3949 16.962 14.4409C16.3565 15.4868 15.4864 16.3551 14.4392 16.9584L14.4409 16.961C14.355 17.0092 14.2834 17.0794 14.2335 17.1643C14.1836 17.2493 14.1572 17.346 14.1571 17.4445C14.1571 17.5175 14.1714 17.5897 14.1993 17.6571C14.2273 17.7245 14.2682 17.7857 14.3198 17.8373C14.3714 17.8889 14.4326 17.9298 14.5 17.9577C14.5674 17.9857 14.6397 18 14.7126 18C14.8297 17.9996 14.9436 17.9622 15.0381 17.8933C16.2422 17.1892 17.2413 16.1827 17.9362 14.9734C18.6312 13.7642 18.9979 12.3943 18.9999 10.9996C18.9999 8.87796 18.1571 6.84326 16.6568 5.34306C15.1565 3.84286 13.1217 3 11 3ZM11 5.2221C9.46763 5.2221 7.99803 5.83079 6.91448 6.91426C5.83093 7.99773 5.2222 9.46724 5.2222 10.9995C5.22386 12.0035 5.48716 12.9897 5.98614 13.861C6.48511 14.7323 7.20254 15.4585 8.0677 15.968C8.08339 15.9787 8.09961 15.9885 8.11631 15.9975C8.19791 16.0427 8.28955 16.0665 8.3828 16.067C8.53014 16.067 8.67145 16.0084 8.77564 15.9043C8.87983 15.8001 8.93836 15.6588 8.93836 15.5114C8.93837 15.4097 8.91045 15.3099 8.85764 15.223C8.80483 15.1361 8.72916 15.0653 8.63888 15.0184C8.63743 15.0175 8.63598 15.0167 8.63452 15.0158C7.93474 14.6043 7.3544 14.0175 6.95083 13.3131C6.54726 12.6088 6.33442 11.8114 6.33332 10.9996C6.33332 9.762 6.82499 8.57509 7.70017 7.69997C8.57534 6.82485 9.76234 6.33321 11 6.33321C12.2377 6.33321 13.4247 6.82485 14.2999 7.69997C15.1751 8.57509 15.6667 9.762 15.6667 10.9996C15.6656 11.8185 15.4489 12.6226 15.0386 13.3312C14.6283 14.0399 14.0387 14.628 13.329 15.0367C13.2444 15.0853 13.1741 15.1554 13.1252 15.2398C13.0763 15.3242 13.0505 15.42 13.0504 15.5176C13.0504 15.5905 13.0647 15.6628 13.0927 15.7302C13.1206 15.7976 13.1615 15.8588 13.2131 15.9104C13.2647 15.962 13.3259 16.0029 13.3933 16.0308C13.4607 16.0587 13.533 16.0731 13.6059 16.0731C13.7036 16.0728 13.7994 16.0467 13.8837 15.9976L13.8846 15.9993C14.7632 15.4931 15.4931 14.7646 16.0009 13.8869C16.5088 13.0093 16.7767 12.0135 16.7778 10.9996C16.7778 9.46733 16.1691 7.99782 15.0855 6.91435C14.002 5.83088 12.5324 5.2221 11 5.2221ZM11 7.6664C10.5623 7.6664 10.1288 7.75261 9.7244 7.92012C9.31999 8.08762 8.95253 8.33314 8.643 8.64264C8.01789 9.26772 7.6667 10.1155 7.6667 10.9995C7.66765 11.5755 7.81784 12.1413 8.10264 12.642C8.38743 13.1426 8.7971 13.5609 9.2917 13.8561C9.30275 13.8632 9.31404 13.8698 9.32555 13.8761C9.32929 13.8784 9.33305 13.8807 9.33684 13.883C9.41772 13.9263 9.50808 13.949 9.59986 13.9489C9.7472 13.9489 9.8885 13.8904 9.99268 13.7862C10.0969 13.6821 10.1554 13.5408 10.1554 13.3934C10.1552 13.2949 10.1288 13.1982 10.079 13.1133C10.0291 13.0283 9.95751 12.9582 9.87157 12.91C9.539 12.714 9.26324 12.4347 9.07144 12.0997C8.87964 11.7647 8.77843 11.3855 8.77777 10.9995C8.77777 10.4101 9.01189 9.84493 9.42864 9.42821C9.84538 9.01148 10.4106 8.77737 11 8.77737C11.2918 8.77737 11.5808 8.83485 11.8504 8.94652C12.12 9.05819 12.365 9.22187 12.5713 9.42821C12.7777 9.63455 12.9413 9.87951 13.053 10.1491C13.1647 10.4187 13.2222 10.7077 13.2222 10.9995C13.2216 11.3895 13.1184 11.7725 12.9229 12.11C12.7274 12.4474 12.4465 12.7275 12.1085 12.9221L12.1094 12.923C12.0273 12.9723 11.9594 13.0421 11.9123 13.1254C11.8651 13.2088 11.8403 13.3029 11.8403 13.3986C11.8403 13.546 11.8988 13.6873 12.003 13.7914C12.1072 13.8956 12.2485 13.9541 12.3958 13.9541C12.4897 13.954 12.5819 13.9301 12.664 13.8847C12.6666 13.883 12.6692 13.8812 12.6718 13.8795C12.6873 13.8707 12.7024 13.8611 12.717 13.8509C13.2092 13.5551 13.6167 13.1371 13.8999 12.6376C14.183 12.138 14.3323 11.5737 14.3333 10.9995C14.3333 10.1155 13.9821 9.26769 13.357 8.64261C12.7319 8.01753 11.884 7.6664 11 7.6664ZM11 10.1107C10.7643 10.1107 10.5382 10.2043 10.3715 10.371C10.2048 10.5377 10.1111 10.7638 10.1111 10.9995C10.1111 11.2353 10.2048 11.4614 10.3715 11.628C10.5382 11.7947 10.7643 11.8884 11 11.8884C11.2357 11.8884 11.4618 11.7947 11.6285 11.628C11.7952 11.4614 11.8889 11.2353 11.8889 10.9995C11.8889 10.7638 11.7952 10.5377 11.6285 10.371C11.4618 10.2043 11.2357 10.1107 11 10.1107Z" fill="url(#paint0_linear_9_4836)"/>
<defs>
<linearGradient id="paint0_linear_9_4836" x1="3" y1="10.5" x2="18.9999" y2="10.5" gradientUnits="userSpaceOnUse">
<stop stop-color="#FDFC47"/>
<stop offset="1" stop-color="#24FE41"/>
</linearGradient>
</defs>
</svg>
