<svg width="22" height="22" viewBox="0 0 22 22" fill="none" xmlns="http://www.w3.org/2000/svg">
<path d="M11 4C9.4087 4 7.88258 4.63214 6.75736 5.75736C5.63214 6.88258 5 8.4087 5 10C5.00084 10.043 5.00214 10.086 5.00391 10.1289C4.14487 10.3498 3.38361 10.8499 2.83984 11.5507C2.29608 12.2514 2.00064 13.113 2 14C2 15.0609 2.42143 16.0783 3.17157 16.8284C3.92172 17.5786 4.93913 18 6 18H15C16.3261 18 17.5979 17.4732 18.5355 16.5355C19.4732 15.5979 20 14.3261 20 13C19.999 11.9834 19.6881 10.9913 19.1089 10.156C18.5296 9.32058 17.7095 8.6816 16.7578 8.32422C16.3952 7.0775 15.6379 5.98205 14.5997 5.20234C13.5615 4.42263 12.2984 4.00074 11 4ZM11 5C12.1719 5.00011 13.3065 5.41183 14.2057 6.16327C15.1049 6.91471 15.7116 7.95812 15.9199 9.11133C16.796 9.31836 17.5766 9.81486 18.1356 10.5205C18.6945 11.2262 18.9991 12.0998 19 13C19 14.0609 18.5786 15.0783 17.8284 15.8284C17.0783 16.5786 16.0609 17 15 17H6C5.60603 17 5.21593 16.9224 4.85195 16.7716C4.48797 16.6209 4.15725 16.3999 3.87868 16.1213C3.6001 15.8427 3.37912 15.512 3.22836 15.1481C3.0776 14.7841 3 14.394 3 14C3 13.606 3.0776 13.2159 3.22836 12.8519C3.37912 12.488 3.6001 12.1573 3.87868 11.8787C4.15725 11.6001 4.48797 11.3791 4.85195 11.2284C5.21593 11.0776 5.60603 11 6 11C6.03584 11.0013 6.07165 11.0033 6.10742 11.0059C6.0377 10.6751 6.00171 10.3381 6 10C6 8.67392 6.52678 7.40215 7.46447 6.46447C8.40215 5.52678 9.67392 5 11 5Z" fill="url(#paint0_linear_9_4776)"/>
<defs>
<linearGradient id="paint0_linear_9_4776" x1="2" y1="11" x2="20" y2="11" gradientUnits="userSpaceOnUse">
<stop stop-color="#FDFC47"/>
<stop offset="1" stop-color="#24FE41"/>
</linearGradient>
</defs>
</svg>
