<svg width="22" height="22" viewBox="0 0 22 22" fill="none" xmlns="http://www.w3.org/2000/svg">
<path d="M11 3C6.577 3 3 6.576 3 11C3 15.424 6.577 19 11 19C15.424 19 19 15.424 19 11C19 6.576 15.424 3 11 3ZM11 4C14.866 4 18 7.134 18 11C18 14.866 14.866 18 11 18C7.134 18 4 14.866 4 11C4 7.134 7.134 4 11 4ZM11 6C10.446 6 10 6.446 10 7V12C10 12.554 10.446 13 11 13C11.554 13 12 12.554 12 12V7C12 6.446 11.554 6 11 6ZM11 14C9.6667 14 9.6667 16 11 16C12.3333 16 12.3333 14 11 14Z" fill="url(#paint0_linear_9_4808)"/>
<defs>
<linearGradient id="paint0_linear_9_4808" x1="3" y1="11" x2="19" y2="11" gradientUnits="userSpaceOnUse">
<stop stop-color="#FDFC47"/>
<stop offset="1" stop-color="#24FE41"/>
</linearGradient>
</defs>
</svg>
