<svg width="22" height="22" viewBox="0 0 22 22" fill="none" xmlns="http://www.w3.org/2000/svg">
<path d="M11 4C8.784 4 7 5.784 7 8V10C5.892 10 5 10.892 5 12V17C5 18.108 5.892 19 7 19H15C16.108 19 17 18.108 17 17V12C17 10.892 16.108 10 15 10V8C15 5.784 13.216 4 11 4ZM11 5C12.662 5 14 6.338 14 8V10H8V8C8 6.338 9.338 5 11 5ZM7 11H15C15.554 11 16 11.446 16 12V17C16 17.554 15.554 18 15 18H7C6.446 18 6 17.554 6 17V12C6 11.446 6.446 11 7 11Z" fill="url(#paint0_linear_9_4812)"/>
<defs>
<linearGradient id="paint0_linear_9_4812" x1="5" y1="11.5" x2="17" y2="11.5" gradientUnits="userSpaceOnUse">
<stop stop-color="#FDFC47"/>
<stop offset="1" stop-color="#24FE41"/>
</linearGradient>
</defs>
</svg>
