<svg width="22" height="22" viewBox="0 0 22 22" fill="none" xmlns="http://www.w3.org/2000/svg">
<path d="M5.99046 4.001C5.86827 4.001 5.74509 4.06677 5.69946 4.20021L3.92616 9.00071H8.05486L6.27956 4.20021C6.23392 4.06677 6.11265 4.001 5.99046 4.001ZM8.05486 9.00071L11 18.0001L13.9452 9.0007L8.05486 9.00071ZM13.9452 9.0007H18.0738L16.3005 4.2002C16.2092 3.93332 15.8117 3.93332 15.7204 4.2002L13.9452 9.0007ZM18.0738 9.0007L11 18.0001L18.7476 12.6528C18.9614 12.5053 19.0519 12.2431 18.9702 12.0044L18.0738 9.0007ZM11 18.0001L3.92616 9.00071L3.02972 12.0044C2.94808 12.2431 3.03862 12.5053 3.25236 12.6528L11 18.0001Z" fill="url(#paint0_linear_9_4794)"/>
<defs>
<linearGradient id="paint0_linear_9_4794" x1="3" y1="11.0001" x2="18.9999" y2="11.0001" gradientUnits="userSpaceOnUse">
<stop stop-color="#FDFC47"/>
<stop offset="1" stop-color="#24FE41"/>
</linearGradient>
</defs>
</svg>
