<svg width="22" height="22" viewBox="0 0 22 22" fill="none" xmlns="http://www.w3.org/2000/svg">
<path d="M5 5C3.892 5 3 5.892 3 7V16C3 17.108 3.892 18 5 18H17C18.108 18 19 17.108 19 16V7C19 5.892 18.108 5 17 5H5ZM5 6H6V7H4C4 6.446 4.446 6 5 6ZM7 6H15V11H7V6ZM16 6H17C17.554 6 18 6.446 18 7H16V6ZM4 8H6V9H4V8ZM16 8H18V9H16V8ZM4 10H6V11H4V10ZM16 10H18V11H16V10ZM4 12H6V13H4V12ZM7 12H15V17H7V12ZM16 12H18V13H16V12ZM4 14H6V15H4V14ZM16 14H18V15H16V14ZM4 16H6V17H5C4.446 17 4 16.554 4 16ZM16 16H18C18 16.554 17.554 17 17 17H16V16Z" fill="url(#paint0_linear_9_4858)"/>
<defs>
<linearGradient id="paint0_linear_9_4858" x1="3" y1="11.5" x2="19" y2="11.5" gradientUnits="userSpaceOnUse">
<stop stop-color="#FDFC47"/>
<stop offset="1" stop-color="#24FE41"/>
</linearGradient>
</defs>
</svg>
