<svg width="22" height="22" viewBox="0 0 22 22" fill="none" xmlns="http://www.w3.org/2000/svg">
<path d="M11 3C10.9492 3.00147 10.8985 3.00342 10.8477 3.00586L10.8457 3.00781C10.834 3.00843 10.8223 3.00908 10.8105 3.00976C10.8008 3.00909 10.791 3.00844 10.7812 3.00781C10.7487 3.01021 10.7161 3.01282 10.6836 3.01562C10.4583 3.0237 10.2335 3.04129 10.0098 3.06835C9.97587 3.07334 9.94201 3.07855 9.90819 3.08398C9.68526 3.11434 9.46371 3.15409 9.24413 3.20312C9.19127 3.2156 9.13853 3.22862 9.08593 3.24218C8.87191 3.29461 8.66014 3.35586 8.45116 3.42577C8.42573 3.43476 8.40034 3.44387 8.37499 3.45311C8.14242 3.53302 7.91366 3.62361 7.68944 3.7246C7.68423 3.72719 7.67902 3.7298 7.67382 3.7324C7.43839 3.83968 7.2083 3.95831 6.98437 4.08787C6.97328 4.09501 6.96221 4.10217 6.95116 4.10936C6.73037 4.23897 6.51593 4.3791 6.30858 4.52928C6.30402 4.53253 6.29947 4.53579 6.29491 4.53905C6.09021 4.68844 5.89272 4.84747 5.70311 5.01561C5.67889 5.0376 5.6548 5.05973 5.63085 5.08202C5.45706 5.23869 5.29024 5.40291 5.13085 5.5742C5.10988 5.59752 5.08904 5.62096 5.06835 5.64452C4.90711 5.82243 4.75396 6.00752 4.60937 6.19921C4.60087 6.21155 4.5924 6.22392 4.58398 6.23632C4.43733 6.43302 4.29982 6.63636 4.17187 6.8457C4.15142 6.88005 4.13124 6.91456 4.11132 6.94922C3.99843 7.14009 3.89352 7.33557 3.79687 7.53516C3.7756 7.58118 3.75476 7.62741 3.73437 7.67383C3.64037 7.87783 3.55501 8.08569 3.47851 8.29688C3.47059 8.31963 3.46278 8.34241 3.45507 8.36524C3.37762 8.58547 3.30985 8.80899 3.25195 9.03516C3.22893 9.12397 3.20745 9.21318 3.1875 9.30274C3.18883 9.3033 3.19008 9.30412 3.19141 9.30468C3.1854 9.33265 3.17954 9.36064 3.17383 9.38867C3.13613 9.57176 3.10486 9.75612 3.08008 9.9414C3.06747 10.0317 3.0564 10.1222 3.04688 10.2129C3.02525 10.418 3.01157 10.6239 3.00586 10.8301C3.0033 10.8867 3.00135 10.9433 3 11C3.00195 12.5148 3.43397 13.998 4.24581 15.277C5.05764 16.5559 6.21591 17.5781 7.5859 18.2246C7.58981 18.2266 7.59371 18.2285 7.59762 18.2305C7.72561 18.2919 7.85521 18.3498 7.98629 18.4043V18.4063C7.98954 18.4076 7.9928 18.4089 7.99606 18.4102C8.19875 18.4909 8.40465 18.5632 8.61325 18.627C8.66451 18.6445 8.71594 18.6614 8.76755 18.6778C8.94567 18.7276 9.12546 18.7713 9.30661 18.8087C9.39223 18.829 9.47818 18.8478 9.56442 18.8653C9.73482 18.8949 9.90613 18.919 10.0781 18.9376C10.1703 18.9502 10.2628 18.9613 10.3554 18.9708C10.5698 18.9892 10.7848 18.999 11 19.0001C11.221 18.9988 11.4419 18.9884 11.6621 18.9688V18.9668C11.6666 18.9668 11.6712 18.9668 11.6757 18.9668C11.9226 18.945 12.1683 18.9118 12.4121 18.8672C12.431 18.8647 12.4498 18.8621 12.4687 18.8594C12.4726 18.8587 12.4765 18.8581 12.4804 18.8574C12.7385 18.8082 12.9941 18.7462 13.2461 18.6719C14.6501 18.2593 15.914 17.4696 16.9004 16.3887C16.9069 16.3815 16.9134 16.3744 16.9199 16.3672C16.9876 16.2974 17.054 16.2265 17.1191 16.1543C17.1198 16.153 17.1204 16.1517 17.1211 16.1504C17.1159 16.1523 17.1107 16.1543 17.1055 16.1563C18.3258 14.715 18.9969 12.8886 19 11.0001C18.9966 10.3283 18.9087 9.65967 18.7383 9.00989C18.7396 9.00985 18.7409 9.00993 18.7422 9.00989C18.7351 8.98837 18.7279 8.96689 18.7207 8.94544C18.7194 8.94088 18.7181 8.93632 18.7168 8.93176C18.6608 8.7222 18.5963 8.515 18.5234 8.31067C18.5094 8.27085 18.4951 8.23113 18.4804 8.19153C18.2113 7.47356 17.8403 6.79802 17.3788 6.18563C17.3691 6.17324 17.3593 6.16087 17.3495 6.14853C17.3417 6.13874 17.3339 6.12898 17.3261 6.11923C17.0169 5.71816 16.6702 5.34736 16.2909 5.01183C16.2753 4.99875 16.2597 4.98573 16.244 4.97276C16.2408 4.96951 16.2375 4.96625 16.2342 4.963C16.0529 4.80551 15.8645 4.65627 15.6698 4.51573C15.6464 4.49867 15.623 4.48174 15.5995 4.46494C15.4127 4.3344 15.2205 4.21189 15.0233 4.09775C14.9935 4.07998 14.9635 4.0624 14.9335 4.04502C13.7343 3.36343 12.3794 3.00336 11 3ZM11 4C11.0079 4.00064 11.0157 4.00129 11.0235 4.00195C11.0186 4.12448 11 4.24337 11 4.36718C11 5.35258 11.1259 6.30768 11.3399 7.22848C10.2308 8.16593 8.84648 8.78738 7.32228 8.95308C7.75168 7.13158 8.61278 5.48348 9.78518 4.10738C9.9491 4.08069 10.1139 4.05984 10.2793 4.04488C10.3502 4.03533 10.4211 4.02687 10.4922 4.01949C10.6612 4.00683 10.8306 4.00036 11 4ZM12.0176 4.08203C12.0229 4.08333 12.0281 4.08463 12.0333 4.08594C12.258 4.11935 12.4809 4.16367 12.7012 4.21875C12.7019 4.21875 12.7026 4.21875 12.7032 4.21875C12.7039 4.21875 12.7046 4.21875 12.7052 4.21875C12.9312 4.27595 13.1541 4.34439 13.3732 4.42383C13.381 4.42642 13.3888 4.42902 13.3967 4.43164C13.092 5.14594 12.6864 5.80654 12.1877 6.38674C12.0726 5.72954 12.0002 5.05764 12.0002 4.36724C12.0002 4.2707 12.0149 4.17791 12.0176 4.08203ZM8.15634 4.61328C7.27311 5.91928 6.62374 7.39408 6.28334 8.98828C5.63014 8.96964 5.00244 8.86047 4.40244 8.68555C4.47803 8.47054 4.56407 8.25936 4.66025 8.05274C4.66672 8.03905 4.67323 8.02538 4.67979 8.01173C4.77399 7.81162 4.87762 7.61608 4.99034 7.42579C4.99359 7.42057 4.99684 7.41536 5.00011 7.41016C5.11824 7.21324 5.246 7.02225 5.38292 6.83789C5.52106 6.65165 5.66838 6.47239 5.82433 6.30078C5.82693 6.29752 5.82953 6.29426 5.83213 6.29101C5.98505 6.12312 6.14605 5.96278 6.31455 5.81054C6.32235 5.80401 6.33017 5.7975 6.33799 5.79101C6.50312 5.64295 6.67518 5.50281 6.85361 5.37109C6.86401 5.3639 6.87443 5.35674 6.88486 5.34961C7.06507 5.21772 7.25147 5.09453 7.44345 4.98046C7.44866 4.97786 7.45387 4.97525 7.45908 4.97265C7.65746 4.8559 7.86149 4.749 8.07041 4.65235C8.09897 4.63913 8.12761 4.62611 8.15634 4.61328ZM14.3047 4.83203C14.3067 4.83333 14.3087 4.83464 14.3106 4.83594C14.5143 4.9452 14.7125 5.06449 14.9044 5.19336C15.0765 5.31022 15.2434 5.43469 15.4044 5.56641C15.4247 5.58128 15.4448 5.59625 15.4649 5.61133C15.4669 5.61329 15.4689 5.61524 15.4708 5.61719C15.6272 5.74793 15.7777 5.88543 15.922 6.0293C15.9416 6.04742 15.9612 6.06565 15.9806 6.08399C15.9819 6.08594 15.9832 6.0879 15.9845 6.08985C16.1009 6.21014 16.213 6.33457 16.3204 6.4629C16.3675 6.51559 16.4137 6.56898 16.4591 6.62306C16.5494 6.73816 16.636 6.85606 16.7189 6.97658C16.7703 7.0466 16.8205 7.11758 16.8693 7.18947C16.9738 7.35266 17.0716 7.52012 17.1622 7.69142C17.1787 7.7193 17.195 7.7473 17.2111 7.7754C17.2117 7.77736 17.2124 7.77931 17.2131 7.78126C17.2995 7.95049 17.379 8.12316 17.4514 8.29885C17.4686 8.33645 17.4855 8.37422 17.5021 8.41212C17.5034 8.41603 17.5047 8.41994 17.506 8.42384C17.5634 8.57434 17.6155 8.72678 17.6623 8.88087C17.689 8.95595 17.7144 9.03149 17.7385 9.10743C16.3107 9.32233 14.997 9.88686 13.8928 10.7207C13.2624 9.75583 12.7762 8.69213 12.4533 7.55663C13.2384 6.78493 13.8658 5.85833 14.3047 4.83203ZM11.6231 8.26753C11.9838 9.37653 12.4894 10.42 13.1251 11.371C11.8959 12.5497 11.0163 14.0892 10.6681 15.8222C9.52574 15.6279 8.44224 15.2686 7.43964 14.7675C7.16096 13.7689 7.00019 12.7209 7.00019 11.6327C7.00019 11.0652 7.05469 10.5124 7.133 9.96673C8.8129 9.84203 10.3552 9.22947 11.6231 8.26753ZM4.13484 9.63473C4.77014 9.82363 5.43164 9.94981 6.12114 9.98043C6.05001 10.5224 6.00005 11.0715 6.00005 11.6327C6.00005 12.4722 6.08758 13.2919 6.24419 14.0858C5.45859 13.5686 4.75169 12.9475 4.11719 12.2596C4.11719 12.259 4.11719 12.2583 4.11719 12.2576C4.08836 12.0912 4.06556 11.9238 4.04884 11.7557C4.03853 11.6816 4.02942 11.6074 4.02149 11.533C4.00756 11.3556 4.00039 11.1778 4.00001 10.9998C4.00006 10.7663 4.01179 10.5329 4.03516 10.3006C4.05766 10.0771 4.09098 9.85501 4.13484 9.63473ZM17.9318 10.0859C17.9619 10.3062 17.9815 10.5278 17.9904 10.75C17.9952 10.8332 17.9985 10.9166 18.0002 11C17.9968 12.0546 17.7551 13.0948 17.2932 14.043C17.2855 14.0606 17.2776 14.0781 17.2698 14.0957C16.2036 13.3951 15.2573 12.5297 14.4729 11.5273C15.4625 10.7766 16.6441 10.2705 17.9318 10.0859ZM13.7189 12.1757C14.5766 13.2627 15.615 14.1933 16.7794 14.9491C16.7788 14.9504 16.7781 14.9517 16.7774 14.953C16.6872 15.0798 16.5927 15.2036 16.4942 15.3241C15.2846 15.7511 13.9896 15.9999 12.6329 15.9999C12.305 15.9999 11.9833 15.9776 11.6622 15.951C11.9681 14.4893 12.6986 13.1878 13.7189 12.1757ZM4.82054 14.2773C5.37574 14.7216 5.96844 15.1214 6.59784 15.4648C6.74704 15.9329 6.92718 16.3865 7.12909 16.8281C7.12714 16.8268 7.12519 16.8255 7.12323 16.8242C6.94074 16.7017 6.76411 16.5707 6.59393 16.4316C6.5835 16.4238 6.57308 16.416 6.56268 16.4082C6.38385 16.2612 6.21241 16.1054 6.04901 15.9414C5.8842 15.7761 5.72776 15.6027 5.58026 15.4219C5.43297 15.2414 5.29478 15.0536 5.1662 14.8594C5.04165 14.671 4.92632 14.4768 4.82054 14.2773ZM7.87714 16.0644C8.72144 16.4086 9.61174 16.6555 10.5353 16.8105C10.5169 17.0388 10.5002 17.267 10.5002 17.4999C10.5002 17.6609 10.5124 17.818 10.5217 17.9765C10.5184 17.9758 10.5151 17.9752 10.5119 17.9745C9.88001 17.93 9.25712 17.7999 8.66026 17.5878C8.65766 17.5871 8.65506 17.5864 8.65245 17.5858C8.3572 17.1018 8.09577 16.5953 7.87714 16.0644ZM14.9376 16.7792C14.9363 16.7805 14.935 16.7818 14.9337 16.7831C14.7456 16.9104 14.5513 17.0283 14.3517 17.1367C14.3478 17.1393 14.3439 17.1419 14.34 17.1445C14.338 17.1451 14.3361 17.1458 14.3341 17.1465C14.1601 17.2405 13.9822 17.3272 13.8009 17.4062C13.7575 17.4256 13.7138 17.4444 13.67 17.4629C13.5013 17.532 13.33 17.5946 13.1564 17.6504C13.1084 17.6665 13.0602 17.6821 13.0118 17.6972C12.8526 17.7446 12.6917 17.7863 12.5294 17.8222C12.4574 17.8397 12.3851 17.8559 12.3126 17.8711C12.1636 17.8981 12.0138 17.9202 11.8634 17.9375C11.7524 17.9538 11.6411 17.9675 11.5294 17.9785C11.5168 17.8196 11.5001 17.6624 11.5001 17.5C11.5001 17.3126 11.514 17.1291 11.5275 16.9453C11.8924 16.9771 12.2599 17 12.633 17C13.4219 17 14.1915 16.923 14.9376 16.7792Z" fill="url(#paint0_linear_9_4804)"/>
<defs>
<linearGradient id="paint0_linear_9_4804" x1="3" y1="11" x2="19" y2="11" gradientUnits="userSpaceOnUse">
<stop stop-color="#FDFC47"/>
<stop offset="1" stop-color="#24FE41"/>
</linearGradient>
</defs>
</svg>
