<svg width="22" height="22" viewBox="0 0 22 22" fill="none" xmlns="http://www.w3.org/2000/svg">
<path d="M11.002 3.3647C10.9006 3.36427 10.8014 3.39467 10.7177 3.45188C10.634 3.50909 10.5696 3.59039 10.5332 3.68501L8.6621 8.53851L3.4746 8.81195C3.37323 8.81662 3.27569 8.85202 3.19492 8.91344C3.11414 8.97487 3.05397 9.05941 3.02239 9.15585C2.99081 9.25228 2.98932 9.35604 3.01811 9.45335C3.0469 9.55065 3.10461 9.63689 3.18358 9.70062L7.21878 12.9838L5.88478 18.0053C5.85849 18.1031 5.8625 18.2065 5.89626 18.302C5.93002 18.3974 5.99196 18.4803 6.07387 18.5398C6.15579 18.5993 6.25383 18.6325 6.35503 18.6351C6.45623 18.6376 6.55582 18.6094 6.64064 18.5541L11 15.7299L15.3594 18.5541C15.4443 18.6094 15.5439 18.6376 15.6451 18.6351C15.7463 18.6325 15.8443 18.5993 15.9262 18.5398C16.0081 18.4803 16.0701 18.3974 16.1038 18.302C16.1376 18.2065 16.1416 18.1031 16.1153 18.0053L14.7813 12.9838L18.8165 9.70062C18.8955 9.63689 18.9532 9.55065 18.982 9.45335C19.0108 9.35604 19.0093 9.25228 18.9777 9.15585C18.9461 9.05941 18.8859 8.97487 18.8052 8.91344C18.7244 8.85202 18.6268 8.81662 18.5255 8.81195L13.338 8.53851L11.4669 3.68501C11.4307 3.59101 11.3669 3.51014 11.284 3.45299C11.201 3.39583 11.1027 3.36506 11.002 3.3647ZM11 5.2553L12.5215 9.2006C12.556 9.2907 12.6159 9.36888 12.6938 9.42571C12.7718 9.48255 12.8646 9.51561 12.9609 9.52091L17.1757 9.74357L13.9003 12.4116C13.8257 12.4723 13.7701 12.5532 13.7404 12.6446C13.7106 12.7361 13.7078 12.8342 13.7323 12.9272L14.8163 17.0112L11.2714 14.7143C11.1905 14.662 11.0963 14.6342 10.9999 14.6342C10.9036 14.6342 10.8094 14.662 10.7285 14.7143L7.18356 17.0112L8.26756 12.9272C8.29212 12.8342 8.28935 12.7361 8.25956 12.6446C8.22978 12.5532 8.17426 12.4723 8.09964 12.4116L4.82424 9.74357L9.03904 9.52091C9.13539 9.51561 9.22814 9.48255 9.30611 9.42571C9.38409 9.36888 9.44396 9.2907 9.47849 9.2006L11 5.2553Z" fill="url(#paint0_linear_9_4772)"/>
<defs>
<linearGradient id="paint0_linear_9_4772" x1="2.99756" y1="11" x2="19.0025" y2="11" gradientUnits="userSpaceOnUse">
<stop stop-color="#FDFC47"/>
<stop offset="1" stop-color="#24FE41"/>
</linearGradient>
</defs>
</svg>
