<svg width="22" height="22" viewBox="0 0 22 22" fill="none" xmlns="http://www.w3.org/2000/svg">
<path d="M10 6.0001C9.41321 6.00014 8.84513 6.20658 8.39523 6.58329C7.94532 6.95999 7.64226 7.48295 7.5391 8.0606C7.36214 8.02093 7.18139 8.00063 7.00004 8.00005C6.337 8.00005 5.70111 8.26345 5.23227 8.73229C4.76343 9.20113 4.50004 9.83701 4.50004 10.5001C4.50029 10.8038 4.55588 11.1049 4.6641 11.3887C4.30781 11.614 4.01425 11.9256 3.81072 12.2948C3.6072 12.6639 3.50031 13.0785 3.5 13.5C3.5 14.1631 3.76339 14.7989 4.23223 15.2678C4.70107 15.7366 5.33696 16 6 16C6.3721 15.9999 6.73948 15.9167 7.07535 15.7566C7.41122 15.5964 7.70709 15.3633 7.9414 15.0742C8.65988 15.6723 9.56515 15.9999 10.5 16C11.5048 15.9995 12.4725 15.621 13.2109 14.9395C13.4926 15.2719 13.8432 15.539 14.2386 15.7221C14.6339 15.9052 15.0643 16.0001 15.5 16C16.2956 16 17.0587 15.684 17.6213 15.1213C18.1839 14.5587 18.5 13.7957 18.5 13C18.4996 12.3645 18.2974 11.7455 17.9225 11.2323C17.5476 10.7191 17.0194 10.3382 16.4141 10.1445C16.4707 9.93434 16.4996 9.71766 16.5 9.49999C16.5 8.83695 16.2366 8.20107 15.7678 7.73223C15.299 7.26339 14.6631 6.99999 14 6.99999C13.389 6.99995 12.7991 7.22367 12.3418 7.6289C12.1642 7.15099 11.8446 6.73882 11.4261 6.44767C11.0075 6.15652 10.5099 6.00041 10 6.0001Z" fill="url(#paint0_linear_9_4834)"/>
<defs>
<linearGradient id="paint0_linear_9_4834" x1="3.5" y1="11" x2="18.5" y2="11" gradientUnits="userSpaceOnUse">
<stop stop-color="#FDFC47"/>
<stop offset="1" stop-color="#24FE41"/>
</linearGradient>
</defs>
</svg>
