<svg width="22" height="22" viewBox="0 0 22 22" fill="none" xmlns="http://www.w3.org/2000/svg">
<path d="M10.9999 4.0058C10.8721 4.0058 10.7443 4.05435 10.6464 4.15228L3.5761 11.2246C3.38023 11.4205 3.38023 11.7357 3.5761 11.9316C3.77197 12.1275 4.08726 12.1275 4.28313 11.9316L4.99993 11.2148V17C4.99993 18.108 5.89193 19 6.99993 19H14.9999C16.1079 19 16.9999 18.108 16.9999 17V11.2148L17.7167 11.9316C17.9126 12.1275 18.2279 12.1275 18.4238 11.9316C18.6196 11.7357 18.6196 11.4205 18.4238 11.2246L11.3535 4.15228C11.2555 4.05435 11.1277 4.0058 10.9999 4.0058ZM10.9999 5.2148L15.9999 10.2148V17C15.9999 17.554 15.5539 18 14.9999 18H12.9999V15C12.9999 13.892 12.1079 13 10.9999 13C9.89192 13 8.99992 13.892 8.99992 15V18H6.99992C6.44592 18 5.99992 17.554 5.99992 17V10.2148L10.9999 5.2148Z" fill="url(#paint0_linear_9_4802)"/>
<defs>
<linearGradient id="paint0_linear_9_4802" x1="3.4292" y1="11.5029" x2="18.5707" y2="11.5029" gradientUnits="userSpaceOnUse">
<stop stop-color="#FDFC47"/>
<stop offset="1" stop-color="#24FE41"/>
</linearGradient>
</defs>
</svg>
