<svg width="22" height="22" viewBox="0 0 22 22" fill="none" xmlns="http://www.w3.org/2000/svg">
<path d="M11 3C6.568 3 3 6.568 3 11C3 14.573 5.32 17.5801 8.541 18.6133V16.9512C6.516 17.3981 6.0898 16.0606 6.0898 16.0606C5.75861 15.206 5.28121 14.9786 5.28121 14.9786C4.62018 14.52 5.33004 14.5274 5.33004 14.5274C6.06076 14.5796 6.44524 15.2911 6.44524 15.2911C7.09464 16.4214 8.14964 16.0957 8.56434 15.9063C8.63049 15.4286 8.81941 15.1009 9.02723 14.9161C7.41073 14.7294 6.00963 13.6957 6.00963 10.8611C6.00963 10.0537 6.59616 8.99338 7.06183 8.47668C6.98673 8.28958 6.73574 7.13738 7.13214 6.11928C7.13214 6.11928 7.17033 6.10726 7.24933 6.10365C7.48623 6.09255 8.01913 6.542 9.06183 7.25985C9.69137 7.07899 10.4968 6.99442 10.9998 6.99032C11.567 6.98562 12.2236 7.08321 12.8154 7.25985C13.8584 6.54195 14.5247 6.09065 14.7607 6.10165H14.7627C14.8416 6.10535 14.8799 6.11728 14.8799 6.11728C15.2772 7.13538 15.0268 8.28958 14.9522 8.47668C15.4187 8.99348 15.9998 10.0537 15.9998 10.8611C15.9998 13.7029 14.2989 14.7272 12.6775 14.9103C12.9385 15.1387 13.0037 15.5916 13.0037 16.2814C13.0037 17.1145 13.0016 17.656 12.9998 18.0002V18.7404C16.4564 17.8557 18.9998 14.7401 18.9998 11.0002C18.9998 6.56821 15.432 3 11 3Z" fill="url(#paint0_linear_9_4792)"/>
<defs>
<linearGradient id="paint0_linear_9_4792" x1="3" y1="10.8702" x2="18.9998" y2="10.8702" gradientUnits="userSpaceOnUse">
<stop stop-color="#FDFC47"/>
<stop offset="1" stop-color="#24FE41"/>
</linearGradient>
</defs>
</svg>
