<svg width="22" height="22" viewBox="0 0 22 22" fill="none" xmlns="http://www.w3.org/2000/svg">
<path d="M13.0616 6.24875C13.5445 5.64751 13.8719 4.83064 13.7815 4.00272C13.086 4.03185 12.2195 4.4858 11.7174 5.0695C11.2739 5.58741 10.88 6.43398 10.982 7.2319C11.7626 7.29017 12.5619 6.83694 13.0616 6.24875ZM14.8214 11.4504C14.8047 9.67988 16.2701 8.82028 16.3364 8.77925C15.5074 7.56921 14.2219 7.40531 13.7686 7.39035C12.6883 7.28028 11.6426 8.03944 11.0914 8.03944C10.5305 8.03937 9.68353 7.40349 8.77125 7.42157C7.59543 7.43915 6.49433 8.12 5.89154 9.17429C4.65061 11.3292 5.5757 14.4942 6.76759 16.2319C7.36465 17.0872 8.06014 18.0393 8.97241 18.0016C9.86465 17.9677 10.1972 17.4351 11.2756 17.4351C12.3427 17.4351 12.6553 18.0016 13.5862 17.9834C14.5443 17.9677 15.1469 17.1265 15.7232 16.2676C16.4097 15.2878 16.6869 14.3272 16.6979 14.2761C16.6765 14.2682 14.841 13.57 14.8214 11.4504Z" fill="url(#paint0_linear_9_4877)"/>
<defs>
<linearGradient id="paint0_linear_9_4877" x1="5.30225" y1="11.0027" x2="16.6979" y2="11.0027" gradientUnits="userSpaceOnUse">
<stop stop-color="#FDFC47"/>
<stop offset="1" stop-color="#24FE41"/>
</linearGradient>
</defs>
</svg>
