<svg width="22" height="22" viewBox="0 0 22 22" fill="none" xmlns="http://www.w3.org/2000/svg">
<path d="M9 2.9998C8.446 2.9998 8 3.4458 8 3.9998V4.9998H3.5C3.223 4.9998 3 5.2228 3 5.4998C3 5.7768 3.223 5.9998 3.5 5.9998H3.99805L4.54493 17.0608C4.60613 18.0763 5.45108 19.0003 6.54293 19.0003H14.457C15.5489 19.0003 16.3938 18.0764 16.455 17.0608L17.0019 5.9998H17.5C17.777 5.9998 18 5.7768 18 5.4998C18 5.2228 17.777 4.9998 17.5 4.9998H13V3.9998C13 3.4458 12.554 2.9998 12 2.9998H9ZM9 3.9998H12V4.9998H9V3.9998ZM5 5.9998H16L15.457 16.9998C15.4237 17.5528 15.011 17.9998 14.457 17.9998H6.54293C5.98893 17.9998 5.57626 17.5528 5.54293 16.9998L5 5.9998ZM7.5 7.9998C7.223 7.9998 7 8.2228 7 8.4998V15.4998C7 15.7768 7.223 15.9998 7.5 15.9998C7.777 15.9998 8 15.7768 8 15.4998V8.4998C8 8.2228 7.777 7.9998 7.5 7.9998ZM10.5 7.9998C10.223 7.9998 10 8.2228 10 8.4998V15.4998C10 15.7768 10.223 15.9998 10.5 15.9998C10.777 15.9998 11 15.7768 11 15.4998V8.4998C11 8.2228 10.777 7.9998 10.5 7.9998ZM13.5 7.9998C13.223 7.9998 13 8.2228 13 8.4998V15.4998C13 15.7768 13.223 15.9998 13.5 15.9998C13.777 15.9998 14 15.7768 14 15.4998V8.4998C14 8.2228 13.777 7.9998 13.5 7.9998Z" fill="url(#paint0_linear_9_4882)"/>
<defs>
<linearGradient id="paint0_linear_9_4882" x1="3" y1="11.0001" x2="18" y2="11.0001" gradientUnits="userSpaceOnUse">
<stop stop-color="#FDFC47"/>
<stop offset="1" stop-color="#24FE41"/>
</linearGradient>
</defs>
</svg>
