<svg width="16" height="16" viewBox="0 0 16 16" fill="none" xmlns="http://www.w3.org/2000/svg">
<g clip-path="url(#clip0_10_19615)">
<path d="M8 0C12.4183 0 16 3.58172 16 8C16 12.4183 12.4183 16 8 16C3.58172 16 0 12.4183 0 8C0 3.58172 3.58172 0 8 0Z" fill="#232323"/>
<path d="M9.41429 6.5857C9.29311 6.46452 9.16275 6.35905 9.02482 6.26807L8.2901 7.00279C8.43944 7.07521 8.5818 7.16741 8.7072 7.2928C9.30091 7.88651 9.30091 8.8204 8.7072 9.4141L6.5859 11.5354C5.99219 12.1291 5.0583 12.1291 4.4646 11.5354C3.8709 10.9417 3.87089 10.0078 4.4646 9.4141L5.0695 8.8092C4.93301 8.4183 4.85845 8.01102 4.86372 7.6008L3.75752 8.707C2.78428 9.68024 2.78428 11.2693 3.75752 12.2425C4.73076 13.2157 6.31982 13.2157 7.29302 12.2425L9.41432 10.1212C10.3876 9.14796 10.3875 7.5589 9.41429 6.5857Z" fill="white"/>
<path d="M6.58563 9.41412C6.70681 9.5353 6.83717 9.64077 6.9751 9.73175L7.70982 8.99703C7.56048 8.92462 7.41816 8.83237 7.29276 8.70697C6.69905 8.11326 6.69905 7.17937 7.29276 6.58567L9.41406 4.46437C10.0078 3.87066 10.9417 3.87066 11.5354 4.46437C12.1291 5.05808 12.1291 5.99197 11.5354 6.58567L10.9305 7.19057C11.067 7.58147 11.1415 7.98875 11.1362 8.39897L12.2424 7.29277C13.2157 6.31953 13.2157 4.73047 12.2424 3.75727C11.2692 2.78403 9.68014 2.78403 8.70694 3.75727L6.58564 5.87857C5.6124 6.85181 5.61239 8.44092 6.58563 9.41412Z" fill="white"/>
</g>
<defs>
<clipPath id="clip0_10_19615">
<rect width="16" height="16" fill="white"/>
</clipPath>
</defs>
</svg>
