<svg width="16" height="16" viewBox="0 0 16 16" fill="none" xmlns="http://www.w3.org/2000/svg">
<g clip-path="url(#clip0_10_19611)">
<path fill-rule="evenodd" clip-rule="evenodd" d="M8 0.25C3.71979 0.250001 0.25 3.71979 0.25 8C0.250001 12.2802 3.71979 15.75 8 15.75C12.2802 15.75 15.75 12.2802 15.75 8C15.75 3.71979 12.2802 0.25 8 0.25Z" fill="#9B59B6"/>
<path d="M8.13338 4C7.48524 4 6.88005 4.22738 6.45369 4.65364C6.02734 5.08004 5.80005 5.6852 5.80005 6.33333H7.13338C7.13338 5.98147 7.23942 5.75329 7.3964 5.59636C7.55338 5.43942 7.78153 5.33333 8.13338 5.33333C8.48524 5.33333 8.71338 5.43996 8.87036 5.59636C9.02734 5.75329 9.13338 5.98147 9.13338 6.33333C9.13338 6.63893 9.07315 6.77022 8.99276 6.88541C8.91237 7.00008 8.78002 7.10746 8.5839 7.24479C8.38779 7.38199 8.12923 7.53965 7.88859 7.82031C7.64795 8.10111 7.46672 8.52787 7.46672 9V9.33333H8.80005V9C8.80005 8.8056 8.82713 8.77137 8.89901 8.6875C8.97086 8.6035 9.12897 8.49294 9.34953 8.33854C9.57008 8.18414 9.8544 7.97863 10.0865 7.64583C10.3186 7.31317 10.4667 6.86107 10.4667 6.33333C10.4667 5.6852 10.2394 5.08004 9.81307 4.65364C9.38672 4.22738 8.78153 4 8.13338 4ZM7.46672 10.6667V12H8.80005V10.6667H7.46672Z" fill="white"/>
</g>
<defs>
<clipPath id="clip0_10_19611">
<rect width="16" height="16" fill="white"/>
</clipPath>
</defs>
</svg>
