<svg width="16" height="16" viewBox="0 0 16 16" fill="none" xmlns="http://www.w3.org/2000/svg">
<g clip-path="url(#clip0_10_19574)">
<path fill-rule="evenodd" clip-rule="evenodd" d="M8 0.25C5.94457 0.25 3.97333 1.06652 2.51992 2.51992C1.06652 3.97333 0.25 5.94457 0.25 8C0.25 10.0554 1.06652 12.0267 2.51992 13.4801C3.97333 14.9335 5.94457 15.75 8 15.75C10.0554 15.75 12.0267 14.9335 13.4801 13.4801C14.9335 12.0267 15.75 10.0554 15.75 8C15.75 5.94457 14.9335 3.97333 13.4801 2.51992C12.0267 1.06652 10.0554 0.25 8 0.25ZM5.36116 4.125C6.2607 4.97465 7.1209 5.86551 8 6.73609C8.87909 5.86546 9.73931 4.97473 10.6388 4.125L11.875 5.36117C11.0253 6.26074 10.1345 7.12088 9.26392 8C10.1345 8.87909 11.0253 9.73931 11.875 10.6388L10.6388 11.875C9.73926 11.0253 8.87912 10.1345 8 9.26392C7.12091 10.1345 6.26069 11.0253 5.36116 11.875L4.125 10.6388C4.97468 9.73926 5.86549 8.87912 6.73608 8C5.86546 7.12091 4.97473 6.26069 4.125 5.36117L5.36116 4.125Z" fill="url(#paint0_linear_10_19574)"/>
<path fill-rule="evenodd" clip-rule="evenodd" d="M5.36117 4.125C6.2607 4.97465 7.1209 5.86551 8 6.73609C8.87909 5.86546 9.73931 4.97473 10.6388 4.125L11.875 5.36117C11.0253 6.26074 10.1345 7.12088 9.26392 8C10.1345 8.87909 11.0253 9.73931 11.875 10.6388L10.6388 11.875C9.73926 11.0253 8.87912 10.1345 8 9.26392C7.12091 10.1345 6.26069 11.0253 5.36117 11.875L4.125 10.6388C4.97468 9.73926 5.86549 8.87912 6.73608 8C5.86546 7.12091 4.97473 6.26069 4.125 5.36117L5.36117 4.125Z" fill="white"/>
</g>
<defs>
<linearGradient id="paint0_linear_10_19574" x1="0.25" y1="0.25" x2="8.55928" y2="18.9459" gradientUnits="userSpaceOnUse">
<stop stop-color="#FF0500"/>
<stop offset="1" stop-color="#FD3632"/>
</linearGradient>
<clipPath id="clip0_10_19574">
<rect width="16" height="16" fill="white"/>
</clipPath>
</defs>
</svg>
