<svg width="16" height="16" viewBox="0 0 16 16" fill="none" xmlns="http://www.w3.org/2000/svg">
<path d="M8 1C6.14348 1 4.36301 1.7375 3.05025 3.05025C1.7375 4.36301 1 6.14348 1 8C1 9.85652 1.7375 11.637 3.05025 12.9497C4.36301 14.2625 6.14348 15 8 15C9.85652 15 11.637 14.2625 12.9497 12.9497C14.2625 11.637 15 9.85652 15 8C15 6.14348 14.2625 4.36301 12.9497 3.05025C11.637 1.7375 9.85652 1 8 1Z" fill="url(#paint0_linear_10_19629)"/>
<path d="M5.17188 3.75781L3.75781 5.17188L6.58594 8L3.75781 10.8281L5.17188 12.2422L8 9.41406L10.8281 12.2422L12.2422 10.8281L9.41406 8L12.2422 5.17188L10.8281 3.75781L8 6.58594L5.17188 3.75781Z" fill="white"/>
<defs>
<linearGradient id="paint0_linear_10_19629" x1="1" y1="1" x2="8.50516" y2="17.8866" gradientUnits="userSpaceOnUse">
<stop stop-color="#FF0500"/>
<stop offset="1" stop-color="#FD3632"/>
</linearGradient>
</defs>
</svg>
