<svg width="32" height="32" viewBox="0 0 32 32" fill="none" xmlns="http://www.w3.org/2000/svg">
<g clip-path="url(#clip0_9_3431)">
<g opacity="0.25" filter="url(#filter0_f_9_3431)">
<path d="M16 1C7.7232 1 1 7.7232 1 16C1 24.2768 7.7232 31 16 31C24.2768 31 31 24.2768 31 16C31 7.7232 24.2768 1 16 1Z" fill="black"/>
</g>
<path d="M16 1C7.7232 1 1 7.7232 1 16C1 24.2768 7.7232 31 16 31C24.2768 31 31 24.2768 31 16C31 7.7232 24.2768 1 16 1Z" fill="url(#paint0_linear_9_3431)"/>
<g opacity="0.25" filter="url(#filter1_f_9_3431)">
<path d="M16 6C15.4696 6 14.9609 6.21071 14.5858 6.58579C14.2107 6.96086 14 7.46957 14 8C14 10 14.667 14.667 15.333 20H16.667C17.333 14.667 18 10 18 8C18 7.46957 17.7893 6.96086 17.4142 6.58579C17.0391 6.21071 16.5304 6 16 6ZM16 22C15.4696 22 14.9609 22.2107 14.5858 22.5858C14.2107 22.9609 14 23.4696 14 24C14 24.5304 14.2107 25.0391 14.5858 25.4142C14.9609 25.7893 15.4696 26 16 26C16.5304 26 17.0391 25.7893 17.4142 25.4142C17.7893 25.0391 18 24.5304 18 24C18 23.4696 17.7893 22.9609 17.4142 22.5858C17.0391 22.2107 16.5304 22 16 22Z" fill="black"/>
</g>
<path d="M16 6C15.4696 6 14.9609 6.21071 14.5858 6.58579C14.2107 6.96086 14 7.46957 14 8C14 10 14.667 14.667 15.333 20H16.667C17.333 14.667 18 10 18 8C18 7.46957 17.7893 6.96086 17.4142 6.58579C17.0391 6.21071 16.5304 6 16 6ZM16 22C15.4696 22 14.9609 22.2107 14.5858 22.5858C14.2107 22.9609 14 23.4696 14 24C14 24.5304 14.2107 25.0391 14.5858 25.4142C14.9609 25.7893 15.4696 26 16 26C16.5304 26 17.0391 25.7893 17.4142 25.4142C17.7893 25.0391 18 24.5304 18 24C18 23.4696 17.7893 22.9609 17.4142 22.5858C17.0391 22.2107 16.5304 22 16 22Z" fill="url(#paint1_linear_9_3431)"/>
</g>
<defs>
<filter id="filter0_f_9_3431" x="0.1" y="0.1" width="31.8" height="31.8" filterUnits="userSpaceOnUse" color-interpolation-filters="sRGB">
<feFlood flood-opacity="0" result="BackgroundImageFix"/>
<feBlend mode="normal" in="SourceGraphic" in2="BackgroundImageFix" result="shape"/>
<feGaussianBlur stdDeviation="0.45" result="effect1_foregroundBlur_9_3431"/>
</filter>
<filter id="filter1_f_9_3431" x="13.64" y="5.64" width="4.72" height="20.72" filterUnits="userSpaceOnUse" color-interpolation-filters="sRGB">
<feFlood flood-opacity="0" result="BackgroundImageFix"/>
<feBlend mode="normal" in="SourceGraphic" in2="BackgroundImageFix" result="shape"/>
<feGaussianBlur stdDeviation="0.18" result="effect1_foregroundBlur_9_3431"/>
</filter>
<linearGradient id="paint0_linear_9_3431" x1="1" y1="16" x2="31" y2="16" gradientUnits="userSpaceOnUse">
<stop stop-color="#FDFC47"/>
<stop offset="1" stop-color="#24FE41"/>
</linearGradient>
<linearGradient id="paint1_linear_9_3431" x1="14" y1="6" x2="24.8108" y2="10.8649" gradientUnits="userSpaceOnUse">
<stop stop-color="#FF0500"/>
<stop offset="1" stop-color="#FD3632"/>
</linearGradient>
<clipPath id="clip0_9_3431">
<rect width="32" height="32" fill="white"/>
</clipPath>
</defs>
</svg>
