<svg width="32" height="32" viewBox="0 0 32 32" fill="none" xmlns="http://www.w3.org/2000/svg">
<g clip-path="url(#clip0_9_3459)">
<g opacity="0.25" filter="url(#filter0_f_9_3459)">
<path d="M16 1C7.7232 1 1 7.7232 1 16C1 24.2768 7.7232 31 16 31C24.2768 31 31 24.2768 31 16C31 7.7232 24.2768 1 16 1Z" fill="black"/>
</g>
<path d="M16 1C7.7232 1 1 7.7232 1 16C1 24.2768 7.7232 31 16 31C24.2768 31 31 24.2768 31 16C31 7.7232 24.2768 1 16 1Z" fill="#232323"/>
<path opacity="0.5" fill-rule="evenodd" clip-rule="evenodd" d="M16.437 11.666H15.771L15.104 16.333L18.438 19V18.333L16.438 15.666L16.437 11.666Z" fill="url(#paint0_linear_9_3459)"/>
<path opacity="0.5" fill-rule="evenodd" clip-rule="evenodd" d="M16 8C11.584 8 8 11.584 8 16C8 20.416 11.584 24 16 24C20.416 24 24 20.416 24 16C24 11.584 20.416 8 16 8ZM16 10C19.312 10 22 12.688 22 16C22 19.312 19.312 22 16 22C12.688 22 10 19.312 10 16C10 12.688 12.688 10 16 10Z" fill="url(#paint1_linear_9_3459)"/>
</g>
<defs>
<filter id="filter0_f_9_3459" x="0.1" y="0.1" width="31.8" height="31.8" filterUnits="userSpaceOnUse" color-interpolation-filters="sRGB">
<feFlood flood-opacity="0" result="BackgroundImageFix"/>
<feBlend mode="normal" in="SourceGraphic" in2="BackgroundImageFix" result="shape"/>
<feGaussianBlur stdDeviation="0.45" result="effect1_foregroundBlur_9_3459"/>
</filter>
<linearGradient id="paint0_linear_9_3459" x1="15.104" y1="15.333" x2="18.438" y2="15.333" gradientUnits="userSpaceOnUse">
<stop stop-color="#FDFC47"/>
<stop offset="1" stop-color="#24FE41"/>
</linearGradient>
<linearGradient id="paint1_linear_9_3459" x1="8" y1="16" x2="24" y2="16" gradientUnits="userSpaceOnUse">
<stop stop-color="#FDFC47"/>
<stop offset="1" stop-color="#24FE41"/>
</linearGradient>
<clipPath id="clip0_9_3459">
<rect width="32" height="32" fill="white"/>
</clipPath>
</defs>
</svg>
