<svg width="64" height="64" viewBox="0 0 64 64" fill="none" xmlns="http://www.w3.org/2000/svg">
<g opacity="0.3" filter="url(#filter0_f_10_19945)">
<path d="M46.4983 4.5H17.5021C10.3212 4.5 4.5 10.3213 4.5 17.5021V46.4983C4.5 53.6792 10.3212 59.5004 17.5021 59.5004H46.4983C53.6792 59.5004 59.5004 53.6792 59.5004 46.4983V17.5021C59.5004 10.3213 53.6792 4.5 46.4983 4.5Z" fill="black"/>
</g>
<path d="M5.00146 17.5018C5.00146 10.5748 10.5763 5 17.5033 5H46.4993C53.4263 5 59.0011 10.5748 59.0011 17.5018V46.4978C59.0011 53.4248 53.4263 58.9996 46.4993 58.9996H17.5033C10.5763 58.9996 5.00146 53.4248 5.00146 46.4978V17.5018Z" fill="black" stroke="url(#paint0_linear_10_19945)"/>
<path d="M18.3383 10.5C13.9963 10.5 10.5005 13.996 10.5005 18.3377V45.662C10.5005 50.004 13.9966 53.4998 18.3383 53.4998H45.6626C50.0046 53.4998 53.5003 50.0037 53.5003 45.662V18.3377C53.5003 13.9957 50.0043 10.5 45.6626 10.5H18.3383Z" fill="url(#paint1_linear_10_19945)"/>
<path opacity="0.6" d="M16.1162 15.979C16.1351 16.1325 16.1536 16.2858 16.1747 16.4387H47.8327C47.8523 16.2735 47.8693 16.142 47.887 15.979H16.1162Z" fill="black"/>
<path opacity="0.8" d="M59.5 32.8043V44.7273C59.5 52.9122 52.9122 59.5 44.7273 59.5H19.2727C11.0878 59.5 4.5 52.9122 4.5 44.7273V19.2727C4.5 11.0878 11.0878 4.5 19.2727 4.5H21.9017H24.3278C24.755 4.5 25.4009 4.70756 25.7524 5.14879L25.7606 5.15877C25.7605 5.15867 25.7636 5.1624 25.7699 5.17142C25.776 5.18022 25.7839 5.1923 25.7937 5.20822C25.8133 5.2404 25.8371 5.28296 25.865 5.33698C25.921 5.44532 25.9865 5.58646 26.0605 5.75757C26.2084 6.09941 26.381 6.53919 26.5667 7.03147C26.7708 7.57252 26.981 8.14991 27.1888 8.72107C27.3664 9.2091 27.5424 9.69259 27.7115 10.145L27.7159 10.1564C28.1633 11.2692 28.6517 12.2597 29.2535 13.0845C29.858 13.913 30.5779 14.5795 31.4832 15.0343C32.3874 15.4884 33.4466 15.7179 34.7105 15.7179H42.8639H43.2795H55.0741H57.4386C58.2559 15.7179 58.9566 16.1896 59.2911 16.8784C59.4195 17.6651 59.5 18.4608 59.5 19.2727V28.2144L59.4994 28.2188C59.4976 28.2334 59.4936 28.2654 59.4922 28.3022L59.4919 28.3116V28.321V28.671V32.3043V32.8043H59.5Z" fill="black" stroke="url(#paint2_linear_10_19945)"/>
<path d="M31.9997 29.7627C31.6542 29.7627 31.3067 29.7905 30.9701 29.8255C30.314 29.8849 29.6655 30.0103 29.0345 30.2C27.4866 30.6836 26.0789 31.5352 24.9321 32.682C23.7853 33.8288 22.9337 35.2364 22.4501 36.7844C22.2604 37.4154 22.1349 38.0638 22.0755 38.72C22.0368 39.0619 22.0159 39.4056 22.0127 39.7496C22.0127 40.0952 22.0405 40.4428 22.0755 40.7794C22.1349 41.4355 22.2604 42.084 22.4501 42.7149C22.9337 44.2629 23.7853 45.6706 24.9321 46.8173C26.0789 47.9641 27.4866 48.8158 29.0345 49.2993C29.6655 49.4893 30.3139 49.6152 30.9701 49.6749C31.3067 49.7089 31.6541 49.7368 31.9997 49.7368C32.3453 49.7368 32.6929 49.7088 33.0295 49.674C33.6857 49.6149 34.3341 49.4898 34.9651 49.3005C35.5921 49.0991 36.1982 48.8376 36.7748 48.5195C39.0633 47.2819 40.7774 45.1988 41.551 42.7147C41.7404 42.0838 41.8655 41.4353 41.9245 40.7792C41.9597 40.4426 41.9875 40.0951 41.9875 39.7495C41.9875 39.405 41.9591 39.0554 41.9245 38.7198C41.8655 38.0637 41.7404 37.4152 41.551 36.7842C41.163 35.5419 40.5376 34.3866 39.7094 33.3826C39.5055 33.136 39.2799 32.9222 39.0532 32.6955C38.1513 31.7937 37.0966 31.0466 35.9013 30.5422C35.595 30.4131 35.2828 30.2988 34.9656 30.1997C34.3346 30.01 33.6862 29.8845 33.03 29.8252C32.6881 29.787 32.3438 29.7664 31.9997 29.7627ZM31.9997 30.7613C33.5108 30.7613 34.932 31.1319 36.1822 31.791C36.2151 31.8096 36.2423 31.8359 36.275 31.8538C36.3 31.8869 36.2939 31.9229 36.338 31.9467C36.3701 31.9652 36.4009 31.9934 36.4308 32.0095C36.4836 32.0411 36.5355 32.0835 36.5245 32.1342C36.5116 32.2091 36.3887 32.2042 36.3378 32.2593C36.3438 32.3639 36.3019 32.3441 36.2748 32.4149C36.2907 32.4607 36.3308 32.4549 36.3378 32.509C36.3283 32.5669 36.2528 32.5737 36.2748 32.6337C36.3726 32.7096 36.4634 32.6461 36.5563 32.6337C36.7589 32.609 36.9298 32.6368 37.0557 32.54C37.0428 32.462 37.1154 32.4403 37.1485 32.3843C37.2155 32.431 37.2715 32.4923 37.3364 32.54C37.2983 32.5554 37.2147 32.5808 37.1797 32.6028C37.1297 32.6368 37.1136 32.6898 37.0557 32.7275C37.0138 32.7554 36.912 32.8522 36.868 32.8522C36.8151 32.8522 36.7182 32.8083 36.6802 32.82C36.6264 32.8355 36.648 32.9237 36.5874 32.9448C36.4675 32.9887 36.2548 32.8281 36.2128 33.0076C36.2628 33.1113 36.4336 33.0766 36.5245 33.1323C36.5815 33.1682 36.6664 33.3523 36.6815 33.413C36.6997 33.506 36.6997 33.6016 36.6815 33.6946C36.6246 33.8395 36.4739 33.8225 36.306 33.8194C36.261 33.8194 36.2229 33.8225 36.182 33.8194C35.9005 33.8008 35.6227 33.7114 35.4949 33.9122C35.5043 34.0669 35.5296 34.1518 35.4949 34.2867C35.4699 34.3845 35.365 34.4517 35.37 34.5365C35.372 34.5804 35.453 34.6643 35.4637 34.7243C35.4698 34.7565 35.4479 34.8203 35.4637 34.8491C35.5106 34.9382 35.6294 34.8336 35.7134 34.8491C35.7933 34.8615 35.8691 34.979 35.8691 35.0666C35.8674 35.1536 35.8459 35.239 35.8062 35.3164C35.7263 35.4362 35.5776 35.4074 35.4636 35.473C35.3687 35.5268 35.3328 35.659 35.2758 35.7537C35.2158 35.8555 35.159 35.8896 35.183 36.0344C35.1151 36.1876 34.9926 36.3101 34.8394 36.3779C34.7844 36.4044 34.7319 36.4359 34.6827 36.472C34.6369 36.5089 34.5954 36.5507 34.5589 36.5967C34.4951 36.6667 34.4059 36.6976 34.371 36.7524C34.346 36.7942 34.368 36.8833 34.3397 36.9403C34.2998 37.0161 34.2337 37.082 34.183 37.1578C34.1611 37.1947 34.115 37.2358 34.0902 37.2829C34.0323 37.3887 33.9543 37.4717 33.9653 37.5645C33.9747 37.6536 34.0851 37.6735 34.0902 37.7514C34.0962 37.7954 34.0573 37.8294 34.058 37.8762C34.061 37.9461 34.083 37.978 34.0902 38.0318C34.103 38.1668 34.0213 38.2206 33.9961 38.3135C33.9833 38.3565 34.0056 38.4035 33.9961 38.4372C33.9742 38.5053 33.8732 38.5453 33.8713 38.6251C33.8693 38.6811 33.9591 38.7331 33.9651 38.8129C33.9682 38.8671 33.9232 38.9176 33.933 38.9686C33.9518 39.0664 34.1376 39.2041 34.2144 39.2803C34.3173 39.384 34.4183 39.4521 34.4642 39.5619C34.5023 39.6539 34.518 39.8049 34.5891 39.8736C34.641 39.9238 34.7397 39.9458 34.8067 39.9987C34.8705 40.0488 34.9587 40.0708 35.0267 40.1237C35.1364 40.2104 35.2861 40.3865 35.463 40.3735C35.5549 40.3674 35.6399 40.3295 35.7437 40.3106C35.8506 40.2921 35.9783 40.2376 36.0872 40.2487C36.1703 40.2582 36.2489 40.3168 36.337 40.3116C36.427 40.3055 36.5458 40.2623 36.6486 40.2178C36.8286 40.1398 37.1051 39.9918 37.3668 40.0299C37.5665 40.0617 37.5706 40.2846 37.7104 40.3735C37.8702 40.386 37.9891 40.3418 38.1158 40.3735C38.2117 40.3984 38.3256 40.5784 38.3344 40.6542C38.3439 40.7322 38.2825 40.7928 38.2715 40.8421C38.2465 40.9467 38.2274 41.0869 38.2095 41.1538C38.1937 41.2067 38.1766 41.2574 38.1774 41.3103C38.1774 41.3571 38.2532 41.466 38.3032 41.5279C38.3633 41.6047 38.4491 41.6628 38.5208 41.7464C38.6535 41.8993 38.7096 42.106 38.8024 42.3087C38.8244 42.3588 38.7805 42.3684 38.8024 42.4328C38.7625 42.7383 38.6586 42.9381 38.4588 43.2757C38.3638 43.3856 38.2692 43.5143 38.2711 43.6503C38.2651 43.9768 38.4418 44.1457 38.428 44.4622C38.3951 44.8867 38.429 44.9526 38.3958 45.1793C38.5396 45.2523 38.4688 45.4659 38.428 45.6168C38.366 45.7962 38.306 45.8405 38.2711 45.9603C38.3395 45.9912 38.4152 46.0022 38.4896 45.9921C37.6487 46.864 36.6401 47.5568 35.5245 48.0288C34.4088 48.5008 33.2092 48.7422 31.9979 48.7386C30.8426 48.7392 29.6981 48.5168 28.6273 48.0834C28.6243 48.0814 28.6303 48.0516 28.6273 48.0513C28.7222 48.0114 28.9017 48.1212 28.9708 47.9894C29.0048 47.9256 28.9248 47.8034 28.9708 47.7396C29.0029 47.6956 29.2156 47.6566 29.2826 47.6458C29.3794 47.6303 29.4782 47.6489 29.5323 47.6141C29.5728 47.5867 29.6056 47.5493 29.6275 47.5056C29.6494 47.4618 29.6595 47.4132 29.6571 47.3643C29.6511 47.3114 29.6052 47.2863 29.5643 47.2393C29.5295 47.1994 29.555 47.1502 29.5323 47.1146C29.4895 47.0508 29.4253 47.0196 29.4074 46.9267C29.5383 46.9018 29.7182 47.0737 29.9068 47.0205C29.9968 46.9956 30.1465 46.824 30.1883 46.7398C30.2012 46.7148 30.1725 46.6148 30.1883 46.5841C30.2042 46.549 30.2442 46.5392 30.2502 46.5213C30.263 46.4724 30.2407 46.4585 30.2502 46.4285C30.2831 46.3356 30.383 46.2765 30.4381 46.2087C30.479 46.1586 30.5239 46.106 30.5629 46.053C30.6057 45.997 30.6268 45.9781 30.6558 45.9289C30.6841 45.7631 30.5538 45.6365 30.5937 45.4915C30.6365 45.3275 30.8735 45.222 31.0302 45.1479C31.0853 45.123 31.141 45.0712 31.1872 45.0551C31.296 45.0161 31.4277 45.0302 31.5296 44.9923C31.7004 44.9304 31.7593 44.7425 31.8423 44.5868C31.8823 44.5138 31.9282 44.4519 31.9351 44.399C31.9446 44.3522 31.9257 44.2981 31.9351 44.2433C31.9446 44.1894 31.9511 44.1474 31.9673 44.0876C31.9881 43.9847 31.9986 43.88 31.9987 43.775C31.9987 43.7028 31.9673 43.6849 31.9673 43.6193C31.9545 43.3838 32.0361 43.3736 32.1229 43.2447C32.167 43.181 32.186 43.0721 32.2171 43.0262C32.364 42.8087 32.6096 42.7017 32.5916 42.3711C32.5856 42.2612 32.5465 42.0315 32.4666 41.9965C32.4207 41.978 32.3147 41.9905 32.248 41.9648C32.0332 41.8849 31.8785 41.6392 31.6548 41.6213C31.6079 41.6193 31.5829 41.6233 31.53 41.6213C31.4432 41.6193 31.3473 41.5383 31.2495 41.5275C31.1875 41.5214 31.0676 41.546 31.0309 41.5275C30.9749 41.5025 30.983 41.4028 30.9381 41.3718C30.901 41.3469 30.8384 41.33 30.7814 41.309C30.7024 41.274 30.6179 41.2531 30.5316 41.2471C30.4995 41.245 30.4118 41.2531 30.3759 41.2471C30.32 41.2376 30.272 41.1861 30.2201 41.1533C30.1541 41.1134 30.1223 41.0852 30.0953 41.0286C30.155 40.833 29.9475 40.7999 29.9076 40.686C29.8887 40.6331 29.9265 40.5461 29.9076 40.4982C29.8856 40.431 29.8266 40.3985 29.7518 40.3425C29.6218 40.2406 29.502 40.1478 29.3143 40.124C29.2313 40.1145 29.1344 40.13 29.0347 40.124C28.9147 40.1125 28.8034 40.0569 28.7221 39.968C28.6453 39.8779 28.6321 39.7913 28.5654 39.7495C28.5025 39.7096 28.3905 39.6975 28.3478 39.6554C28.3289 39.6369 28.3348 39.6034 28.3155 39.5626C28.2834 39.4967 28.2137 39.4855 28.2537 39.406C28.1807 39.3701 28.2067 39.4518 28.1287 39.4381C28.0589 39.3385 28.0079 39.2824 27.8481 39.3125C27.7751 39.328 27.7142 39.4363 27.6296 39.4381C27.5598 39.4402 27.5038 39.3251 27.411 39.3125C27.3412 39.303 27.2411 39.3865 27.1933 39.3753C27.1144 39.3628 27.1074 39.2664 27.0367 39.2196C26.9848 39.1845 26.8787 39.0927 26.8498 39.0949C26.7589 39.0969 26.6941 39.2868 26.5683 39.2196C26.5072 39.1416 26.6731 39.1358 26.6004 39.063C26.5453 39.0092 26.5186 39.066 26.4755 39.0952C26.4245 39.1292 26.3754 39.1691 26.3185 39.188C26.1936 39.2357 26.105 39.231 26.0069 39.2821C25.9169 39.3298 25.9031 39.4078 25.8512 39.5006C25.8093 39.5764 25.7272 39.6844 25.6634 39.6884C25.5875 39.6945 25.5135 39.5925 25.4456 39.5625C25.2358 39.4724 25.1181 39.6234 24.9463 39.6253C24.7865 39.6273 24.5638 39.3706 24.5718 39.2198C24.5778 39.127 24.6227 38.9902 24.6336 38.8762C24.6431 38.7861 24.7256 38.7103 24.7275 38.6265C24.7295 38.5166 24.5497 38.4207 24.4777 38.408C24.3069 38.3762 24.0782 38.485 23.8845 38.408C23.8486 38.346 23.9565 38.312 23.9782 38.2523C23.991 38.2171 23.9653 38.1963 23.9782 38.1585C24.0001 38.1006 24.075 38.0644 24.103 38.0028C24.1219 37.9561 24.1124 37.8728 24.1343 37.815C24.1593 37.7503 24.2222 37.707 24.2285 37.6593C24.2345 37.5974 24.1834 37.5123 24.1343 37.4724C24.017 37.4721 23.9007 37.4931 23.7909 37.5343C23.5952 37.6243 23.6461 37.8788 23.4482 37.9408C23.3803 37.9623 23.2744 37.9909 23.1986 38.0027C23.3264 37.3586 23.525 36.7306 23.791 36.1302C23.8608 36.1426 23.9188 36.1872 23.9789 36.193C24.1456 36.2054 24.1524 36.0782 24.2905 36.0052C24.4324 36.0237 24.5054 35.9928 24.6341 36.0052C24.721 36.0145 24.8457 36.125 24.9146 36.1299C24.9725 36.1319 24.9845 36.0578 25.0396 36.0671C25.0947 36.0764 25.1864 36.19 25.1961 36.2549C25.2056 36.3366 25.1412 36.4146 25.1641 36.5047C25.25 36.5917 25.4167 36.6415 25.5386 36.6926C25.6185 36.6269 25.5515 36.475 25.5386 36.3799C25.5367 36.3381 25.5447 36.2929 25.5386 36.2552C25.5292 36.1905 25.5072 36.1243 25.5072 36.0673C25.5072 35.8076 25.7069 35.7017 25.8817 35.5998C25.9566 35.5559 26.0347 35.4761 26.1004 35.4432C26.1922 35.3984 26.2423 35.3931 26.3181 35.3504C26.4568 35.2724 26.5857 35.1898 26.6926 35.1006C26.7426 34.9827 26.6865 34.8419 26.6926 34.7261C26.7426 34.6946 26.7656 34.7323 26.8175 34.7261C26.9015 34.7076 26.9272 34.5862 26.9741 34.5383C27.0025 34.5104 27.0971 34.5033 27.1299 34.4764C27.2138 34.4108 27.2137 34.3176 27.2854 34.2885C27.3104 34.2792 27.3705 34.27 27.4104 34.257C27.4655 34.2415 27.5421 34.1941 27.6289 34.1629C27.6849 34.1443 27.8259 34.1536 27.8476 34.1313C27.8756 34.1035 27.8416 33.9856 27.8476 33.9435C27.8904 33.7386 28.1942 33.7318 28.378 33.6637C28.5047 33.6136 28.6414 33.5108 28.7833 33.5377C28.755 33.6355 28.6355 33.6077 28.6585 33.7256C28.6898 33.8905 28.8811 33.6857 28.94 33.6628C29.0498 33.616 29.2627 33.5907 29.4075 33.538C29.5352 33.4932 29.7461 33.404 29.6261 33.2573C29.5261 33.2511 29.4953 33.3465 29.4075 33.3821C29.3478 33.3914 29.3336 33.3542 29.2826 33.3505C29.2335 33.3485 29.2069 33.3904 29.1578 33.3821C29.1087 33.3728 29.0406 33.2843 29.0328 33.2264C29.0139 33.0735 29.1895 33.0268 29.2515 32.9137C29.2097 32.776 29.0246 32.9044 28.9078 32.8518C28.9206 32.7701 28.9676 32.681 29.0646 32.664C29.1722 32.6573 29.2796 32.679 29.3763 32.7268C29.4042 32.7484 29.3668 32.8128 29.4076 32.8518C29.4554 32.8936 29.5334 32.8611 29.5953 32.8518C29.6173 32.7481 29.4526 32.7939 29.4706 32.7268C29.5936 32.6469 29.8191 32.6838 29.9699 32.664C30.0567 32.6516 30.1416 32.581 30.2196 32.5392C30.2916 32.4975 30.3614 32.4393 30.4372 32.5077C30.4592 32.5826 30.3855 32.6256 30.3446 32.6634C30.2046 32.7875 30.0787 32.9261 29.97 33.0698C30.037 33.1345 30.1377 33.0884 30.2506 33.1014C30.2946 33.1076 30.3603 33.1262 30.4062 33.1336C30.4612 33.1429 30.5192 33.1243 30.5629 33.1336C30.6388 33.1522 30.6428 33.2583 30.7187 33.2583C30.8417 33.2583 30.8513 33.1547 30.7805 33.0705C30.8024 32.9857 30.8435 32.9126 30.8127 32.8529C30.7558 32.7399 30.5432 32.8715 30.5312 32.7282C30.5251 32.6372 30.6239 32.6093 30.656 32.5403C30.6431 32.3664 30.7989 32.3556 30.781 32.1978C30.7715 32.1321 30.701 32.134 30.656 32.073C30.6341 32.0399 30.6213 31.9712 30.5941 31.9483C30.4991 31.8685 30.3246 31.8811 30.3126 31.7283C30.3065 31.6382 30.3254 31.5775 30.3126 31.4785C30.2997 31.3866 30.2056 31.123 30.1258 31.105C30.0239 31.0833 29.9659 31.2665 29.8451 31.3226C29.766 31.3548 29.68 31.3659 29.5953 31.3548C29.5513 31.3455 29.4756 31.313 29.4706 31.2297C29.4645 31.1821 29.4799 31.165 29.5018 31.136C29.5079 31.1298 29.4958 31.1112 29.5018 31.1044C30.314 30.8741 31.1555 30.759 31.9997 30.7613ZM28.2854 31.5733C28.1976 31.8571 27.9408 32.0187 27.5993 32.0097C27.5153 32.0896 27.5501 32.2425 27.5051 32.3533C27.4825 32.4002 27.4471 32.4397 27.4029 32.4673C27.3587 32.4948 27.3076 32.5093 27.2555 32.509C27.1885 32.5028 27.0676 32.4161 27.0676 32.3533C27.0676 32.3013 27.1177 32.2425 27.1306 32.1967C27.4996 31.9605 27.8857 31.7527 28.2854 31.5733ZM35.9322 31.885C35.8993 31.8898 35.8676 31.9005 35.8386 31.9166C35.7687 31.9584 35.7656 32.0212 35.7137 32.0413C35.6388 32.0692 35.5369 32.0692 35.5259 32.1354C35.5164 32.1914 35.5907 32.2094 35.5888 32.2601C35.5604 32.3273 35.5089 32.3341 35.4951 32.4158C35.5878 32.5665 35.8176 32.4178 35.9325 32.3842C35.9825 32.3688 36.0293 32.3935 36.0563 32.3527C36.0877 32.3025 36.0625 32.2029 36.0886 32.1342C36.1135 32.0583 36.1913 32.0763 36.1813 32.0094C36.1752 31.9423 36.0451 31.8739 35.9322 31.885ZM26.0377 33.0395C26.1047 33.1194 26.1607 33.2373 26.0377 33.2893C26.0188 33.2986 25.8011 33.3292 25.7571 33.3215C25.7442 33.3195 25.7382 33.2998 25.7257 33.2893C25.8207 33.1965 25.9386 33.1287 26.0377 33.0395ZM26.2874 33.3522C26.3315 33.3542 26.3613 33.4423 26.4123 33.4451C26.4623 33.4513 26.539 33.4051 26.5692 33.4135C26.645 33.4321 26.6731 33.575 26.6006 33.6311C26.5409 33.6373 26.5206 33.559 26.4766 33.5682C26.3527 33.5899 26.3188 33.8257 26.2269 33.818C26.1392 33.8087 26.0749 33.632 26.1639 33.5682C26.1659 33.5144 26.1292 33.4983 26.1326 33.4432C26.161 33.4092 26.2144 33.3463 26.2874 33.3522ZM25.882 33.4141C25.9069 33.4141 25.9039 33.4048 25.9134 33.4141C25.9005 33.511 25.8632 33.5249 25.7884 33.5707C25.7247 33.6066 25.6695 33.6558 25.6264 33.7149C25.5833 33.774 25.5534 33.8416 25.5387 33.9132C25.5259 33.9634 25.3821 34.1129 25.3211 34.1011C25.1773 34.0695 25.3808 33.7994 25.4138 33.7575C25.4509 33.7117 25.4969 33.6836 25.5387 33.6328C25.5806 33.5827 25.5928 33.475 25.6328 33.445C25.6768 33.4134 25.8059 33.4116 25.882 33.4141ZM38.1793 33.6639C38.3221 33.6546 38.394 33.827 38.4588 33.9136C38.5139 33.9845 38.6826 34.0835 38.7716 34.1321C38.8226 34.16 38.8715 34.2002 38.9285 34.2262C38.9873 34.251 39.0763 34.2859 39.1462 34.3509C39.216 34.4147 39.2693 34.5106 39.2711 34.5685C39.2732 34.6273 39.2312 34.6703 39.2398 34.7251C39.3027 34.7344 39.3356 34.6712 39.3646 34.6001C39.6002 34.9357 39.8001 35.2942 39.9889 35.6607C39.9713 35.6699 39.9564 35.6833 39.9454 35.6997C39.9344 35.7162 39.9277 35.7351 39.9259 35.7548C39.907 35.8566 39.9857 35.9866 39.8331 36.0046C39.7363 36.017 39.6224 35.9086 39.4895 35.8798C39.4357 35.8674 39.3457 35.8922 39.3016 35.8798C39.2019 35.8449 39.2319 35.7211 39.146 35.6613C39.0695 35.6147 38.9847 35.5832 38.8962 35.5685C38.8472 35.5623 38.8223 35.5747 38.7713 35.5685C38.7093 35.5592 38.6037 35.5685 38.5537 35.5363C38.5037 35.5047 38.3788 35.4534 38.3659 35.4116C38.347 35.3444 38.5188 35.25 38.5216 35.194C38.5247 35.1501 38.4687 35.1343 38.4596 35.068C38.4535 35.0281 38.469 34.9693 38.4596 34.9443C38.4467 34.8966 38.3778 34.8523 38.3029 34.8505C38.2381 34.8505 38.1731 34.882 38.1162 34.882C38.0363 34.884 37.8724 34.8421 37.7726 34.8505C37.7129 34.8567 37.6728 34.8783 37.6168 34.882C37.4589 34.8944 37.3662 34.8727 37.2423 34.882C37.1524 34.8882 36.9828 34.9381 36.8988 34.9758C36.8569 34.9944 36.829 35.0417 36.7739 35.0687C36.7489 35.0811 36.7141 35.0841 36.6811 35.1009C36.6301 35.1225 36.5423 35.1807 36.4932 35.1937C36.4234 35.2123 36.3414 35.1875 36.2127 35.1937C36.1199 35.1999 35.9651 35.1813 35.9629 35.0699C35.9609 34.9 36.2715 34.974 36.4303 34.944C36.4901 34.9316 36.5143 34.861 36.587 34.8202C36.621 34.8016 36.6468 34.7793 36.6798 34.7573C36.7349 34.7193 36.8276 34.6444 36.8365 34.6017C36.8425 34.5617 36.7998 34.5057 36.8043 34.4769C36.8104 34.4389 36.8802 34.4011 36.9302 34.3522C37.006 34.2752 37.0542 34.1823 37.1479 34.1337C37.2118 34.0988 37.3375 34.091 37.3664 34.04C37.3725 33.9821 37.3644 33.9678 37.3664 33.9152C37.4064 33.8793 37.3948 33.8601 37.4294 33.8533C37.5272 33.8317 37.6264 33.8901 37.7412 33.8849C37.7912 33.8829 37.845 33.888 37.8969 33.8533C37.9409 33.8218 37.9786 33.7812 38.0217 33.7596C38.0695 33.7348 38.1204 33.6679 38.1793 33.6639ZM26.7236 33.7579C26.7485 33.7549 26.7885 33.761 26.8187 33.7579C26.8596 33.7559 26.8985 33.7579 26.9435 33.7579C26.9885 33.7579 27.0496 33.7394 27.0685 33.7579C27.0371 33.8777 26.7568 33.8328 26.662 33.7895C26.665 33.7678 26.6997 33.7617 26.7236 33.7579ZM26.3812 33.9764C26.4125 33.9764 26.4422 33.964 26.4752 33.9764C26.3912 34.0464 26.2763 34.0863 26.1315 34.1321C26.0617 34.1538 25.9567 34.177 25.9438 34.1006C25.9309 34.0055 26.0076 34.0158 26.0687 34.0068C26.1486 33.9975 26.2884 33.9764 26.3812 33.9764ZM38.2101 33.9764C38.1503 33.995 38.1201 34.1163 38.2101 34.1321C38.2519 34.1074 38.2519 34.0523 38.2414 33.9764C38.2165 33.9517 38.2286 33.9702 38.2101 33.9764ZM38.1779 34.2262C38.1496 34.2355 38.116 34.2242 38.0852 34.2578C38.0872 34.3596 38.1041 34.4175 38.0852 34.5075C38.143 34.6205 38.2749 34.5524 38.3029 34.476C38.338 34.2862 38.2648 34.2024 38.1779 34.2262ZM38.9591 34.7256C38.8909 34.7216 38.8236 34.7437 38.7712 34.7875C38.8391 34.8974 38.9641 34.9175 39.1148 34.9441C39.1689 34.9042 39.1519 34.7943 39.1778 34.7244C39.112 34.7244 39.0699 34.7306 38.9899 34.7244L38.9591 34.7256ZM23.104 38.5634C23.1678 38.6451 23.2368 38.7401 23.3217 38.7835C23.3676 38.805 23.4205 38.802 23.4783 38.8152C23.5252 38.8247 23.5582 38.8644 23.6032 38.878C23.6991 38.9113 23.8387 38.906 23.9148 38.9408C24.0315 38.991 24.0958 39.1943 24.1965 39.2525C24.2025 39.3104 24.1776 39.3655 24.1965 39.4082C24.2433 39.472 24.3384 39.4908 24.4141 39.533C24.5069 39.584 24.5459 39.7115 24.6327 39.7514C24.6641 39.7639 24.7108 39.739 24.7576 39.7514C24.8775 39.7874 24.9036 39.969 25.0074 39.9393C25.0744 39.9208 25.0901 39.8164 25.1011 39.7514C25.1461 39.7013 25.1859 39.6267 25.2567 39.6267C25.3697 39.6248 25.4028 39.7666 25.4446 39.8765C25.4666 39.9384 25.5217 39.9981 25.5374 40.0643C25.563 40.2298 25.563 40.3982 25.5374 40.5637C25.5095 40.6466 25.3876 40.6906 25.3197 40.7812C25.2868 40.8252 25.2508 40.8772 25.2259 40.906C25.1819 40.9611 25.1342 40.9818 25.1012 41.0307C25.0823 41.0587 25.0853 41.1177 25.069 41.1554C25.0152 41.2724 24.9303 41.3594 24.9762 41.499C24.9951 41.555 25.069 41.6188 25.069 41.6868C25.069 41.7667 24.8954 41.7865 24.8822 41.8738C24.8728 41.9375 24.9561 42.0694 24.9762 42.1545C24.9891 42.2182 25.0942 42.2693 25.1319 42.3114C25.1958 42.3813 25.2618 42.4702 25.3197 42.5611C25.4336 42.7369 25.4873 42.9506 25.5993 43.1224C25.659 43.2125 25.7792 43.2772 25.8192 43.3722C25.8381 43.4189 25.8003 43.5158 25.8192 43.56C25.884 43.7071 26.2018 43.8618 26.3486 43.9336C26.4184 43.9687 26.4734 43.9914 26.5363 44.0274C26.6332 44.0824 26.8312 44.1923 26.88 44.2771C26.924 44.3539 26.9519 44.5297 26.9736 44.6517C27.0016 44.8114 26.9676 44.9472 26.9736 45.1201C26.9797 45.2138 27.0051 45.2748 27.0051 45.3698C27.0051 45.4027 27.0071 45.4617 27.0051 45.4946C27.0031 45.6075 27.0145 45.7242 27.0051 45.8381C27.0006 45.9004 27.0006 45.9628 27.0051 46.0251C27.0111 46.082 27.0639 46.1009 27.068 46.1498C27.0711 46.2027 26.9991 46.2646 27.0051 46.3067C27.0179 46.4206 27.1391 46.5134 27.1608 46.6184C27.1797 46.7023 27.2026 46.8929 27.1928 46.9929C27.1834 47.0459 27.168 47.1229 27.1608 47.1808C27.1548 47.2256 27.1669 47.2637 27.1608 47.3046C24.673 45.7066 23.0104 42.9304 23.0104 39.7518C23.0104 39.3443 23.0512 38.9569 23.104 38.5634ZM26.5365 39.4693C26.6243 39.4293 26.6073 39.5831 26.5365 39.594C26.4695 39.6034 26.4717 39.4999 26.5365 39.4693Z" fill="url(#paint3_linear_10_19945)"/>
<defs>
<filter id="filter0_f_10_19945" x="2.29998" y="2.29998" width="59.4005" height="59.4005" filterUnits="userSpaceOnUse" color-interpolation-filters="sRGB">
<feFlood flood-opacity="0" result="BackgroundImageFix"/>
<feBlend mode="normal" in="SourceGraphic" in2="BackgroundImageFix" result="shape"/>
<feGaussianBlur stdDeviation="1.10001" result="effect1_foregroundBlur_10_19945"/>
</filter>
<linearGradient id="paint0_linear_10_19945" x1="4.50146" y1="31.9998" x2="59.5011" y2="31.9998" gradientUnits="userSpaceOnUse">
<stop stop-color="#FDFC47"/>
<stop offset="1" stop-color="#24FE41"/>
</linearGradient>
<linearGradient id="paint1_linear_10_19945" x1="10.5005" y1="31.9999" x2="53.5003" y2="31.9999" gradientUnits="userSpaceOnUse">
<stop stop-color="#FDFC47"/>
<stop offset="1" stop-color="#24FE41"/>
</linearGradient>
<linearGradient id="paint2_linear_10_19945" x1="4" y1="32" x2="60" y2="32" gradientUnits="userSpaceOnUse">
<stop stop-color="#FDFC47"/>
<stop offset="1" stop-color="#24FE41"/>
</linearGradient>
<linearGradient id="paint3_linear_10_19945" x1="22.0127" y1="39.7496" x2="41.9875" y2="39.7496" gradientUnits="userSpaceOnUse">
<stop stop-color="#FDFC47"/>
<stop offset="1" stop-color="#24FE41"/>
</linearGradient>
</defs>
</svg>
