<svg width="64" height="64" viewBox="0 0 64 64" fill="none" xmlns="http://www.w3.org/2000/svg">
<g opacity="0.3" filter="url(#filter0_f_10_19962)">
<path d="M46.4983 4.5H17.5021C10.3212 4.5 4.5 10.3213 4.5 17.5021V46.4983C4.5 53.6792 10.3212 59.5004 17.5021 59.5004H46.4983C53.6792 59.5004 59.5004 53.6792 59.5004 46.4983V17.5021C59.5004 10.3213 53.6792 4.5 46.4983 4.5Z" fill="black"/>
</g>
<path d="M5 17.5018C5 10.5748 10.5748 5 17.5018 5H46.4978C53.4248 5 58.9996 10.5748 58.9996 17.5018V46.4978C58.9996 53.4248 53.4248 58.9996 46.4978 58.9996H17.5018C10.5748 58.9996 5 53.4248 5 46.4978V17.5018Z" fill="black" stroke="url(#paint0_linear_10_19962)"/>
<path d="M18.3378 10.5C13.9958 10.5 10.5 13.9961 10.5 18.3378V45.662C10.5 50.004 13.9961 53.4998 18.3378 53.4998H45.662C50.004 53.4998 53.4998 50.0037 53.4998 45.662V18.3378C53.4998 13.9958 50.0037 10.5 45.662 10.5H18.3378Z" fill="url(#paint1_linear_10_19962)"/>
<path opacity="0.6" d="M16.1147 15.979C16.1336 16.1326 16.1522 16.2859 16.1733 16.4387H47.8312C47.8509 16.2736 47.8679 16.1421 47.8855 15.979H16.1147Z" fill="black"/>
<path opacity="0.8" d="M59.5 32.8043V44.7273C59.5 52.9122 52.9122 59.5 44.7273 59.5H19.2727C11.0878 59.5 4.5 52.9122 4.5 44.7273V19.2727C4.5 11.0878 11.0878 4.5 19.2727 4.5H21.9017H24.3278C24.755 4.5 25.4009 4.70756 25.7524 5.14879L25.7606 5.15877C25.7605 5.15867 25.7636 5.1624 25.7699 5.17142C25.776 5.18022 25.7839 5.1923 25.7937 5.20822C25.8133 5.2404 25.8371 5.28296 25.865 5.33698C25.921 5.44532 25.9865 5.58646 26.0605 5.75757C26.2084 6.09941 26.381 6.53919 26.5667 7.03147C26.7708 7.57252 26.981 8.14991 27.1888 8.72107C27.3664 9.2091 27.5424 9.69259 27.7115 10.145L27.7159 10.1564C28.1633 11.2692 28.6517 12.2597 29.2535 13.0845C29.858 13.913 30.5779 14.5795 31.4832 15.0343C32.3874 15.4884 33.4466 15.7179 34.7105 15.7179H42.8639H43.2795H55.0741H57.4386C58.2559 15.7179 58.9566 16.1896 59.2911 16.8784C59.4195 17.6651 59.5 18.4608 59.5 19.2727V28.2144L59.4994 28.2188C59.4976 28.2334 59.4936 28.2654 59.4922 28.3022L59.4919 28.3116V28.321V28.671V32.3043V32.8043H59.5Z" fill="black" stroke="url(#paint2_linear_10_19962)"/>
<path d="M27.9094 36.8066L20.6367 49.7611H39.7269L33.5906 39.0795L31.3179 42.4886L27.9094 36.8066Z" fill="url(#paint3_linear_10_19962)"/>
<path d="M39.7275 29.7612C37.7192 29.7612 36.0913 31.3893 36.0913 33.3976C36.0913 35.4059 37.7193 37.034 39.7275 37.034C41.7358 37.034 43.3638 35.4059 43.3638 33.3976C43.3638 31.3893 41.7358 29.7612 39.7275 29.7612Z" fill="url(#paint4_linear_10_19962)"/>
<defs>
<filter id="filter0_f_10_19962" x="2.29998" y="2.29998" width="59.4005" height="59.4005" filterUnits="userSpaceOnUse" color-interpolation-filters="sRGB">
<feFlood flood-opacity="0" result="BackgroundImageFix"/>
<feBlend mode="normal" in="SourceGraphic" in2="BackgroundImageFix" result="shape"/>
<feGaussianBlur stdDeviation="1.10001" result="effect1_foregroundBlur_10_19962"/>
</filter>
<linearGradient id="paint0_linear_10_19962" x1="4.5" y1="31.9998" x2="59.4996" y2="31.9998" gradientUnits="userSpaceOnUse">
<stop stop-color="#FDFC47"/>
<stop offset="1" stop-color="#24FE41"/>
</linearGradient>
<linearGradient id="paint1_linear_10_19962" x1="10.5" y1="31.9999" x2="53.4998" y2="31.9999" gradientUnits="userSpaceOnUse">
<stop stop-color="#FDFC47"/>
<stop offset="1" stop-color="#24FE41"/>
</linearGradient>
<linearGradient id="paint2_linear_10_19962" x1="4" y1="32" x2="60" y2="32" gradientUnits="userSpaceOnUse">
<stop stop-color="#FDFC47"/>
<stop offset="1" stop-color="#24FE41"/>
</linearGradient>
<linearGradient id="paint3_linear_10_19962" x1="20.6367" y1="43.2839" x2="39.7269" y2="43.2839" gradientUnits="userSpaceOnUse">
<stop stop-color="#FDFC47"/>
<stop offset="1" stop-color="#24FE41"/>
</linearGradient>
<linearGradient id="paint4_linear_10_19962" x1="36.0913" y1="33.3976" x2="43.3638" y2="33.3976" gradientUnits="userSpaceOnUse">
<stop stop-color="#FDFC47"/>
<stop offset="1" stop-color="#24FE41"/>
</linearGradient>
</defs>
</svg>
