<svg width="64" height="64" viewBox="0 0 64 64" fill="none" xmlns="http://www.w3.org/2000/svg">
<g opacity="0.3" filter="url(#filter0_f_10_19988)">
<path d="M46.4983 4.5H17.5021C10.3212 4.5 4.5 10.3213 4.5 17.5021V46.4983C4.5 53.6792 10.3212 59.5004 17.5021 59.5004H46.4983C53.6792 59.5004 59.5004 53.6792 59.5004 46.4983V17.5021C59.5004 10.3213 53.6792 4.5 46.4983 4.5Z" fill="black"/>
</g>
<path d="M4.99756 17.5018C4.99756 10.5748 10.5724 5 17.4994 5H46.4954C53.4224 5 58.9972 10.5748 58.9972 17.5018V46.4978C58.9972 53.4248 53.4224 58.9996 46.4954 58.9996H17.4994C10.5724 58.9996 4.99756 53.4248 4.99756 46.4978V17.5018Z" fill="black" stroke="url(#paint0_linear_10_19988)"/>
<path d="M18.3385 10.5C13.9965 10.5 10.5007 13.9961 10.5007 18.3378V45.662C10.5007 50.004 13.9968 53.4998 18.3385 53.4998H45.6628C50.0048 53.4998 53.5005 50.0037 53.5005 45.662V18.3378C53.5005 13.9958 50.0045 10.5 45.6628 10.5H18.3385Z" fill="url(#paint1_linear_10_19988)"/>
<path opacity="0.6" d="M16.1123 15.979C16.1312 16.1326 16.1497 16.2859 16.1708 16.4387H47.8288C47.8484 16.2736 47.8654 16.1421 47.8831 15.979H16.1123Z" fill="black"/>
<path opacity="0.8" d="M59.5 32.8043V44.7273C59.5 52.9122 52.9122 59.5 44.7273 59.5H19.2727C11.0878 59.5 4.5 52.9122 4.5 44.7273V19.2727C4.5 11.0878 11.0878 4.5 19.2727 4.5H21.9017H24.3278C24.755 4.5 25.4009 4.70756 25.7524 5.14879L25.7606 5.15877C25.7605 5.15867 25.7636 5.1624 25.7699 5.17142C25.776 5.18022 25.7839 5.1923 25.7937 5.20822C25.8133 5.2404 25.8371 5.28296 25.865 5.33698C25.921 5.44532 25.9865 5.58646 26.0605 5.75757C26.2084 6.09941 26.381 6.53919 26.5667 7.03147C26.7708 7.57252 26.981 8.14991 27.1888 8.72107C27.3664 9.2091 27.5424 9.69259 27.7115 10.145L27.7159 10.1564C28.1633 11.2692 28.6517 12.2597 29.2535 13.0845C29.858 13.913 30.5779 14.5795 31.4832 15.0343C32.3874 15.4884 33.4466 15.7179 34.7105 15.7179H42.8639H43.2795H55.0741H57.4386C58.2559 15.7179 58.9566 16.1896 59.2911 16.8784C59.4195 17.6651 59.5 18.4608 59.5 19.2727V28.2144L59.4994 28.2188C59.4976 28.2334 59.4936 28.2654 59.4922 28.3022L59.4919 28.3116V28.321V28.671V32.3043V32.8043H59.5Z" fill="black" stroke="url(#paint2_linear_10_19988)"/>
<path d="M32.9997 34.7633C32.9997 34.2101 32.5521 33.7617 31.9999 33.7617C31.4478 33.7617 31.0002 34.2101 31.0002 34.7633V38.7583C31.0002 39.3115 31.4478 39.7599 31.9999 39.7599C32.5521 39.7599 32.9997 39.3115 32.9997 38.7583V34.7633Z" fill="url(#paint3_linear_10_19988)"/>
<path d="M37.095 44.8601L37.0977 44.8574C37.2925 44.6626 37.2925 44.3467 37.0977 44.1519L32.8536 39.9078C32.6588 39.713 32.3429 39.713 32.148 39.9078L32.1454 39.9105C31.9505 40.1053 31.9505 40.4212 32.1454 40.616L36.3894 44.8601C36.5843 45.0549 36.9002 45.0549 37.095 44.8601Z" fill="url(#paint4_linear_10_19988)"/>
<path d="M32.0019 41.7644C33.1061 41.7644 34.0013 40.8692 34.0013 39.765C34.0013 38.6607 33.1061 37.7656 32.0019 37.7656C30.8976 37.7656 30.0024 38.6607 30.0024 39.765C30.0024 40.8692 30.8976 41.7644 32.0019 41.7644Z" fill="url(#paint5_linear_10_19988)"/>
<path d="M32.0018 29.7627C29.3494 29.7627 26.8057 30.8164 24.9302 32.6919C23.0546 34.5674 22.001 37.1112 22.001 39.7636C22.001 41.0769 22.2597 42.3774 22.7622 43.5907C23.2648 44.8041 24.0015 45.9066 24.9302 46.8352C25.8588 47.7639 26.9613 48.5005 28.1747 49.0031C29.388 49.5057 30.6885 49.7644 32.0018 49.7644C34.6535 49.7634 37.1963 48.7093 39.071 46.8339C40.9457 44.9585 41.9989 42.4153 41.9989 39.7636C41.9989 37.1118 40.9457 34.5687 39.071 32.6933C37.1963 30.8178 34.6535 29.7638 32.0018 29.7627ZM32.0018 30.7643C34.3872 30.7653 36.6747 31.7134 38.3614 33.4002C40.0482 35.0869 40.9963 37.3744 40.9973 39.7598C40.9978 40.9416 40.7655 42.1119 40.3137 43.2039C39.8619 44.296 39.1994 45.2883 38.3641 46.1243C37.5288 46.9603 36.537 47.6236 35.4454 48.0763C34.3537 48.529 33.1836 48.7623 32.0018 48.7628C30.8197 48.7633 29.6491 48.5309 28.5568 48.0789C27.4645 47.6268 26.472 46.964 25.6359 46.1283C24.7999 45.2926 24.1367 44.3004 23.6842 43.2083C23.2317 42.1162 22.9988 40.9457 22.9988 39.7636C22.9988 38.5815 23.2317 37.4109 23.6842 36.3188C24.1367 35.2268 24.7999 34.2345 25.6359 33.3988C26.472 32.5631 27.4645 31.9003 28.5568 31.4483C29.6491 30.9962 30.8197 30.7638 32.0018 30.7643Z" fill="url(#paint6_linear_10_19988)"/>
<defs>
<filter id="filter0_f_10_19988" x="2.29998" y="2.29998" width="59.4005" height="59.4005" filterUnits="userSpaceOnUse" color-interpolation-filters="sRGB">
<feFlood flood-opacity="0" result="BackgroundImageFix"/>
<feBlend mode="normal" in="SourceGraphic" in2="BackgroundImageFix" result="shape"/>
<feGaussianBlur stdDeviation="1.10001" result="effect1_foregroundBlur_10_19988"/>
</filter>
<linearGradient id="paint0_linear_10_19988" x1="4.49756" y1="31.9998" x2="59.4972" y2="31.9998" gradientUnits="userSpaceOnUse">
<stop stop-color="#FDFC47"/>
<stop offset="1" stop-color="#24FE41"/>
</linearGradient>
<linearGradient id="paint1_linear_10_19988" x1="10.5007" y1="31.9999" x2="53.5005" y2="31.9999" gradientUnits="userSpaceOnUse">
<stop stop-color="#FDFC47"/>
<stop offset="1" stop-color="#24FE41"/>
</linearGradient>
<linearGradient id="paint2_linear_10_19988" x1="4" y1="32" x2="60" y2="32" gradientUnits="userSpaceOnUse">
<stop stop-color="#FDFC47"/>
<stop offset="1" stop-color="#24FE41"/>
</linearGradient>
<linearGradient id="paint3_linear_10_19988" x1="31.0002" y1="36.7608" x2="32.9997" y2="36.7608" gradientUnits="userSpaceOnUse">
<stop stop-color="#FDFC47"/>
<stop offset="1" stop-color="#24FE41"/>
</linearGradient>
<linearGradient id="paint4_linear_10_19988" x1="34.9756" y1="42.0298" x2="34.2674" y2="42.7381" gradientUnits="userSpaceOnUse">
<stop stop-color="#FDFC47"/>
<stop offset="1" stop-color="#24FE41"/>
</linearGradient>
<linearGradient id="paint5_linear_10_19988" x1="30.0024" y1="39.765" x2="34.0013" y2="39.765" gradientUnits="userSpaceOnUse">
<stop stop-color="#FDFC47"/>
<stop offset="1" stop-color="#24FE41"/>
</linearGradient>
<linearGradient id="paint6_linear_10_19988" x1="22.001" y1="39.7636" x2="41.9989" y2="39.7636" gradientUnits="userSpaceOnUse">
<stop stop-color="#FDFC47"/>
<stop offset="1" stop-color="#24FE41"/>
</linearGradient>
</defs>
</svg>
