<svg width="64" height="64" viewBox="0 0 64 64" fill="none" xmlns="http://www.w3.org/2000/svg">
<g opacity="0.3" filter="url(#filter0_f_10_19999)">
<path d="M46.4983 4.5H17.5021C10.3212 4.5 4.5 10.3213 4.5 17.5021V46.4983C4.5 53.6792 10.3212 59.5004 17.5021 59.5004H46.4983C53.6792 59.5004 59.5004 53.6792 59.5004 46.4983V17.5021C59.5004 10.3213 53.6792 4.5 46.4983 4.5Z" fill="black"/>
</g>
<path d="M4.99756 17.5018C4.99756 10.5748 10.5724 5 17.4994 5H46.4954C53.4224 5 58.9972 10.5748 58.9972 17.5018V46.4978C58.9972 53.4248 53.4224 58.9996 46.4954 58.9996H17.4994C10.5724 58.9996 4.99756 53.4248 4.99756 46.4978V17.5018Z" fill="black" stroke="url(#paint0_linear_10_19999)"/>
<path d="M18.3348 10.5C13.9928 10.5 10.4971 13.9961 10.4971 18.3378V45.662C10.4971 50.004 13.9931 53.4998 18.3348 53.4998H45.6591C50.0011 53.4998 53.4968 50.0037 53.4968 45.662V18.3378C53.4968 13.9958 50.0008 10.5 45.6591 10.5H18.3348Z" fill="url(#paint1_linear_10_19999)"/>
<path opacity="0.6" d="M16.1123 15.979C16.1312 16.1325 16.1497 16.2858 16.1708 16.4387H47.8288C47.8484 16.2736 47.8654 16.1421 47.8831 15.979H16.1123Z" fill="black"/>
<path opacity="0.8" d="M59.5 32.8043V44.7273C59.5 52.9122 52.9122 59.5 44.7273 59.5H19.2727C11.0878 59.5 4.5 52.9122 4.5 44.7273V19.2727C4.5 11.0878 11.0878 4.5 19.2727 4.5H21.9017H24.3278C24.755 4.5 25.4009 4.70756 25.7524 5.14879L25.7606 5.15877C25.7605 5.15867 25.7636 5.1624 25.7699 5.17142C25.776 5.18022 25.7839 5.1923 25.7937 5.20822C25.8133 5.2404 25.8371 5.28296 25.865 5.33698C25.921 5.44532 25.9865 5.58646 26.0605 5.75757C26.2084 6.09941 26.381 6.53919 26.5667 7.03147C26.7708 7.57252 26.981 8.14991 27.1888 8.72107C27.3664 9.2091 27.5424 9.69259 27.7115 10.145L27.7159 10.1564C28.1633 11.2692 28.6517 12.2597 29.2535 13.0845C29.858 13.913 30.5779 14.5795 31.4832 15.0343C32.3874 15.4884 33.4466 15.7179 34.7105 15.7179H42.8639H43.2795H55.0741H57.4386C58.2559 15.7179 58.9566 16.1896 59.2911 16.8784C59.4195 17.6651 59.5 18.4608 59.5 19.2727V28.2144L59.4994 28.2188C59.4976 28.2334 59.4936 28.2654 59.4922 28.3022L59.4919 28.3116V28.321V28.671V32.3043V32.8043H59.5Z" fill="black" stroke="url(#paint2_linear_10_19999)"/>
<path d="M34.8399 29.7627C34.2602 29.7627 34.0302 30.0205 33.893 30.2947C33.756 30.5689 33.7529 30.8496 33.7529 30.8496V43.9805L33.7627 44.0281C33.7973 44.1793 33.9366 44.7267 34.2561 45.6649C34.5752 46.6018 35.7018 48.671 36.3616 49.9431C37.0207 48.6719 38.1482 46.6018 38.4672 45.6649C38.7866 44.7267 38.9265 44.1756 38.9606 44.0277L38.9704 43.9805V30.8496C38.9704 30.2699 38.7126 30.0399 38.4384 29.9028C38.164 29.7657 37.8834 29.7627 37.8834 29.7627H34.8399ZM34.6225 30.6322H38.1008V33.2409H34.6225V30.6322ZM34.6225 42.8062H38.1008V43.8736C38.0725 43.9938 37.9467 44.4956 37.6439 45.3847C37.4796 45.8672 36.9226 46.9651 36.3616 48.0499C35.8007 46.9652 35.2437 45.8673 35.0794 45.3847C34.7764 44.4953 34.651 43.9963 34.6225 43.8749V42.8062Z" fill="url(#paint3_linear_10_19999)"/>
<path d="M25.0574 29.7627V49.7627H31.1443V29.7627H25.0574ZM25.9269 30.6322H30.2748V32.3714H28.5356V33.2409H30.2748V35.8496H28.5356V36.7192H30.2748V39.3279H28.5356V40.1975H30.2748V42.8062H28.5356V43.6757H30.2748V46.2844H28.5356V47.154H30.2748V48.8931H25.9269V30.8496V30.6322Z" fill="url(#paint4_linear_10_19999)"/>
<defs>
<filter id="filter0_f_10_19999" x="2.29998" y="2.29998" width="59.4005" height="59.4005" filterUnits="userSpaceOnUse" color-interpolation-filters="sRGB">
<feFlood flood-opacity="0" result="BackgroundImageFix"/>
<feBlend mode="normal" in="SourceGraphic" in2="BackgroundImageFix" result="shape"/>
<feGaussianBlur stdDeviation="1.10001" result="effect1_foregroundBlur_10_19999"/>
</filter>
<linearGradient id="paint0_linear_10_19999" x1="4.49756" y1="31.9998" x2="59.4972" y2="31.9998" gradientUnits="userSpaceOnUse">
<stop stop-color="#FDFC47"/>
<stop offset="1" stop-color="#24FE41"/>
</linearGradient>
<linearGradient id="paint1_linear_10_19999" x1="10.4971" y1="31.9999" x2="53.4968" y2="31.9999" gradientUnits="userSpaceOnUse">
<stop stop-color="#FDFC47"/>
<stop offset="1" stop-color="#24FE41"/>
</linearGradient>
<linearGradient id="paint2_linear_10_19999" x1="4" y1="32" x2="60" y2="32" gradientUnits="userSpaceOnUse">
<stop stop-color="#FDFC47"/>
<stop offset="1" stop-color="#24FE41"/>
</linearGradient>
<linearGradient id="paint3_linear_10_19999" x1="33.7529" y1="39.8529" x2="38.9704" y2="39.8529" gradientUnits="userSpaceOnUse">
<stop stop-color="#FDFC47"/>
<stop offset="1" stop-color="#24FE41"/>
</linearGradient>
<linearGradient id="paint4_linear_10_19999" x1="25.0574" y1="39.7627" x2="31.1443" y2="39.7627" gradientUnits="userSpaceOnUse">
<stop stop-color="#FDFC47"/>
<stop offset="1" stop-color="#24FE41"/>
</linearGradient>
</defs>
</svg>
