<svg width="64" height="64" viewBox="0 0 64 64" fill="none" xmlns="http://www.w3.org/2000/svg">
<g opacity="0.3" filter="url(#filter0_f_10_19902)">
<path d="M46.4983 4.5H17.5021C10.3212 4.5 4.5 10.3213 4.5 17.5021V46.4983C4.5 53.6792 10.3212 59.5004 17.5021 59.5004H46.4983C53.6792 59.5004 59.5004 53.6792 59.5004 46.4983V17.5021C59.5004 10.3213 53.6792 4.5 46.4983 4.5Z" fill="black"/>
</g>
<path d="M4.99756 17.5018C4.99756 10.5748 10.5724 5 17.4994 5H46.4954C53.4224 5 58.9972 10.5748 58.9972 17.5018V46.4978C58.9972 53.4248 53.4224 58.9996 46.4954 58.9996H17.4994C10.5724 58.9996 4.99756 53.4248 4.99756 46.4978V17.5018Z" fill="black" stroke="url(#paint0_linear_10_19902)"/>
<path d="M18.3385 10.4995C13.9965 10.4995 10.5007 13.9956 10.5007 18.3373V45.6615C10.5007 50.0036 13.9968 53.4993 18.3385 53.4993H45.6627C50.0048 53.4993 53.5005 50.0033 53.5005 45.6615V18.3373C53.5005 13.9953 50.0045 10.4995 45.6627 10.4995H18.3385Z" fill="url(#paint1_linear_10_19902)"/>
<path opacity="0.6" d="M16.1123 15.9785C16.1312 16.1321 16.1497 16.2854 16.1708 16.4383H47.8288C47.8484 16.2731 47.8654 16.1416 47.8831 15.9785H16.1123Z" fill="black"/>
<path opacity="0.8" d="M59.5 32.8043V44.7273C59.5 52.9122 52.9122 59.5 44.7273 59.5H19.2727C11.0878 59.5 4.5 52.9122 4.5 44.7273V19.2727C4.5 11.0878 11.0878 4.5 19.2727 4.5H21.9017H24.3278C24.755 4.5 25.4009 4.70756 25.7524 5.14879L25.7606 5.15877C25.7605 5.15867 25.7636 5.1624 25.7699 5.17142C25.776 5.18022 25.7839 5.1923 25.7937 5.20822C25.8133 5.2404 25.8371 5.28296 25.865 5.33698C25.921 5.44532 25.9865 5.58646 26.0605 5.75757C26.2084 6.09941 26.381 6.53919 26.5667 7.03147C26.7708 7.57252 26.981 8.14991 27.1888 8.72107C27.3664 9.2091 27.5424 9.69259 27.7115 10.145L27.7159 10.1564C28.1633 11.2692 28.6517 12.2597 29.2535 13.0845C29.858 13.913 30.5779 14.5795 31.4832 15.0343C32.3874 15.4884 33.4466 15.7179 34.7105 15.7179H42.8639H43.2795H55.0741H57.4386C58.2559 15.7179 58.9566 16.1896 59.2911 16.8784C59.4195 17.6651 59.5 18.4608 59.5 19.2727V28.2144L59.4994 28.2188C59.4976 28.2334 59.4936 28.2654 59.4922 28.3022L59.4919 28.3116V28.321V28.671V32.3043V32.8043H59.5Z" fill="black" stroke="url(#paint2_linear_10_19902)"/>
<path d="M34.2499 31.7617C31.1229 31.7617 28.4342 33.5656 27.2478 36.1483C26.6133 35.656 25.8143 35.3631 24.949 35.3631C22.9108 35.3631 21.2531 36.9898 21.2009 39.0155C19.0971 39.8045 17.5994 41.8333 17.5994 44.2128C17.5994 47.0235 19.6898 49.3466 22.4002 49.7129V49.7617H41.5995V49.7538C44.2765 49.5985 46.4003 47.3778 46.4003 44.6619C46.4003 42.0427 44.4246 39.8848 41.8826 39.5953C41.8935 39.4356 41.9003 39.2752 41.9003 39.1129C41.9003 35.0536 38.4748 31.7617 34.2499 31.7617Z" fill="url(#paint3_linear_10_19902)"/>
<defs>
<filter id="filter0_f_10_19902" x="2.29998" y="2.29998" width="59.4005" height="59.4005" filterUnits="userSpaceOnUse" color-interpolation-filters="sRGB">
<feFlood flood-opacity="0" result="BackgroundImageFix"/>
<feBlend mode="normal" in="SourceGraphic" in2="BackgroundImageFix" result="shape"/>
<feGaussianBlur stdDeviation="1.10001" result="effect1_foregroundBlur_10_19902"/>
</filter>
<linearGradient id="paint0_linear_10_19902" x1="4.49756" y1="31.9998" x2="59.4972" y2="31.9998" gradientUnits="userSpaceOnUse">
<stop stop-color="#FDFC47"/>
<stop offset="1" stop-color="#24FE41"/>
</linearGradient>
<linearGradient id="paint1_linear_10_19902" x1="10.5007" y1="31.9994" x2="53.5005" y2="31.9994" gradientUnits="userSpaceOnUse">
<stop stop-color="#FDFC47"/>
<stop offset="1" stop-color="#24FE41"/>
</linearGradient>
<linearGradient id="paint2_linear_10_19902" x1="4" y1="32" x2="60" y2="32" gradientUnits="userSpaceOnUse">
<stop stop-color="#FDFC47"/>
<stop offset="1" stop-color="#24FE41"/>
</linearGradient>
<linearGradient id="paint3_linear_10_19902" x1="17.5994" y1="40.7617" x2="46.4003" y2="40.7617" gradientUnits="userSpaceOnUse">
<stop stop-color="#FDFC47"/>
<stop offset="1" stop-color="#24FE41"/>
</linearGradient>
</defs>
</svg>
