<svg width="64" height="64" viewBox="0 0 64 64" fill="none" xmlns="http://www.w3.org/2000/svg">
<g opacity="0.3" filter="url(#filter0_f_10_20112)">
<path d="M46.4983 4.5H17.5021C10.3212 4.5 4.5 10.3213 4.5 17.5021V46.4983C4.5 53.6792 10.3212 59.5004 17.5021 59.5004H46.4983C53.6792 59.5004 59.5004 53.6792 59.5004 46.4983V17.5021C59.5004 10.3213 53.6792 4.5 46.4983 4.5Z" fill="black"/>
</g>
<path d="M4.99756 17.5018C4.99756 10.5748 10.5724 5 17.4994 5H46.4954C53.4224 5 58.9972 10.5748 58.9972 17.5018V46.4978C58.9972 53.4248 53.4224 58.9996 46.4954 58.9996H17.4994C10.5724 58.9996 4.99756 53.4248 4.99756 46.4978V17.5018Z" fill="black" stroke="url(#paint0_linear_10_20112)"/>
<path d="M18.3348 10.5C13.9928 10.5 10.4971 13.9961 10.4971 18.3378V45.662C10.4971 50.004 13.9931 53.4998 18.3348 53.4998H45.6591C50.0011 53.4998 53.4968 50.0037 53.4968 45.662V18.3378C53.4968 13.9958 50.0008 10.5 45.6591 10.5H18.3348Z" fill="url(#paint1_linear_10_20112)"/>
<path opacity="0.8" d="M59.5 32.8043V44.7273C59.5 52.9122 52.9122 59.5 44.7273 59.5H19.2727C11.0878 59.5 4.5 52.9122 4.5 44.7273V19.2727C4.5 11.0878 11.0878 4.5 19.2727 4.5H21.9017H24.3278C24.755 4.5 25.4009 4.70756 25.7524 5.14879L25.7606 5.15877C25.7605 5.15867 25.7636 5.1624 25.7699 5.17142C25.776 5.18022 25.7839 5.1923 25.7937 5.20822C25.8133 5.2404 25.8371 5.28296 25.865 5.33698C25.921 5.44532 25.9865 5.58646 26.0605 5.75757C26.2084 6.09941 26.381 6.53919 26.5667 7.03147C26.7708 7.57252 26.981 8.14991 27.1888 8.72107C27.3664 9.2091 27.5424 9.69259 27.7115 10.145L27.7159 10.1564C28.1633 11.2692 28.6517 12.2597 29.2535 13.0845C29.858 13.913 30.5779 14.5795 31.4832 15.0343C32.3874 15.4884 33.4466 15.7179 34.7105 15.7179H42.8639H43.2795H55.0741H57.4386C58.2559 15.7179 58.9566 16.1896 59.2911 16.8784C59.4195 17.6651 59.5 18.4608 59.5 19.2727V28.2144L59.4994 28.2188C59.4976 28.2334 59.4936 28.2654 59.4922 28.3022L59.4919 28.3116V28.321V28.671V32.3043V32.8043H59.5Z" fill="black" stroke="url(#paint2_linear_10_20112)"/>
<path opacity="0.6" d="M16.1123 15.979C16.1312 16.1326 16.1497 16.2859 16.1708 16.4387H47.8288C47.8484 16.2736 47.8654 16.1421 47.8831 15.979H16.1123Z" fill="black"/>
<path d="M28.9919 41.1875V42.0808C28.9919 42.0808 29.2331 43.9997 27.8706 44.7094C26.508 45.4191 21.9975 47.5478 21.7553 47.942C21.5131 48.3362 21.15 49.4734 22.1795 49.7626H41.8204C42.8499 49.4735 42.4869 48.3362 42.2446 47.942C42.0024 47.5477 37.4918 45.4191 36.1294 44.7094C34.7668 43.9998 35.008 42.0808 35.008 42.0808V41.1875H31.9999H28.9919Z" fill="url(#paint3_linear_10_20112)"/>
<path d="M36.4657 36.8058C35.8725 41.0352 34.4736 43.2926 32.0163 43.2926C29.5589 43.2926 28.1599 41.0352 27.5668 36.8058C27.0256 32.947 27.5668 29.7568 32.0163 29.7568C36.4657 29.7568 37.007 32.947 36.4657 36.8058Z" fill="#F0F0F0"/>
<path d="M36.5557 35.8377C36.5557 35.8377 37.9461 35.7821 37.5753 37.1725C37.2046 38.563 36.5 40.0463 35.7214 40.2131C34.9427 40.38 36.3332 35.8933 36.5557 35.8377Z" fill="url(#paint4_linear_10_20112)"/>
<path d="M27.4438 35.7064C27.4438 35.7064 26.0534 35.6508 26.4242 37.0413C26.7949 38.4317 27.4995 39.915 28.2781 40.0819C29.0568 40.2487 27.6663 35.762 27.4438 35.7064Z" fill="url(#paint5_linear_10_20112)"/>
<path d="M36.4657 36.8058C35.8725 41.0352 34.4736 43.2926 32.0163 43.2926C29.5589 43.2926 28.1599 41.0352 27.5668 36.8058C27.0256 32.947 27.5668 29.7568 32.0163 29.7568C36.4657 29.7568 37.007 32.947 36.4657 36.8058Z" fill="url(#paint6_linear_10_20112)"/>
<defs>
<filter id="filter0_f_10_20112" x="2.29998" y="2.29998" width="59.4005" height="59.4005" filterUnits="userSpaceOnUse" color-interpolation-filters="sRGB">
<feFlood flood-opacity="0" result="BackgroundImageFix"/>
<feBlend mode="normal" in="SourceGraphic" in2="BackgroundImageFix" result="shape"/>
<feGaussianBlur stdDeviation="1.10001" result="effect1_foregroundBlur_10_20112"/>
</filter>
<linearGradient id="paint0_linear_10_20112" x1="4.49756" y1="31.9998" x2="59.4972" y2="31.9998" gradientUnits="userSpaceOnUse">
<stop stop-color="#FDFC47"/>
<stop offset="1" stop-color="#24FE41"/>
</linearGradient>
<linearGradient id="paint1_linear_10_20112" x1="10.4971" y1="31.9999" x2="53.4968" y2="31.9999" gradientUnits="userSpaceOnUse">
<stop stop-color="#FDFC47"/>
<stop offset="1" stop-color="#24FE41"/>
</linearGradient>
<linearGradient id="paint2_linear_10_20112" x1="4" y1="32" x2="60" y2="32" gradientUnits="userSpaceOnUse">
<stop stop-color="#FDFC47"/>
<stop offset="1" stop-color="#24FE41"/>
</linearGradient>
<linearGradient id="paint3_linear_10_20112" x1="21.4902" y1="45.475" x2="42.5097" y2="45.475" gradientUnits="userSpaceOnUse">
<stop stop-color="#FDFC47"/>
<stop offset="1" stop-color="#24FE41"/>
</linearGradient>
<linearGradient id="paint4_linear_10_20112" x1="35.4868" y1="38.0275" x2="37.6382" y2="38.0275" gradientUnits="userSpaceOnUse">
<stop stop-color="#FDFC47"/>
<stop offset="1" stop-color="#24FE41"/>
</linearGradient>
<linearGradient id="paint5_linear_10_20112" x1="26.3613" y1="37.8963" x2="28.5127" y2="37.8963" gradientUnits="userSpaceOnUse">
<stop stop-color="#FDFC47"/>
<stop offset="1" stop-color="#24FE41"/>
</linearGradient>
<linearGradient id="paint6_linear_10_20112" x1="27.3946" y1="36.5247" x2="36.638" y2="36.5247" gradientUnits="userSpaceOnUse">
<stop stop-color="#FDFC47"/>
<stop offset="1" stop-color="#24FE41"/>
</linearGradient>
</defs>
</svg>
