<svg width="64" height="64" viewBox="0 0 64 64" fill="none" xmlns="http://www.w3.org/2000/svg">
<path d="M12.6249 8.52832C11.5516 8.52832 11.0507 9.45638 10.6874 10.4658L8.94328 15.3095C8.57998 16.32 9.8074 17.247 10.8808 17.247H53.1191C54.1924 17.247 55.4199 16.32 55.0566 15.3095L53.3124 10.4658C52.9491 9.45638 52.4483 8.52832 51.3749 8.52832H12.6249Z" fill="black" stroke="url(#paint0_linear_10_20133)" stroke-linecap="round"/>
<path d="M19.2233 50.6375L13.2036 9.5127H50.7966L44.7769 50.6375C44.6484 51.5157 44.0827 52.1064 43.3341 52.1064H20.6661C19.9175 52.1064 19.3518 51.5156 19.2233 50.6375Z" fill="black" stroke="url(#paint1_linear_10_20133)"/>
<path d="M8.94434 16.2803L13.1084 57.9776C13.213 59.0229 13.9725 59.8722 15.0459 59.8722H48.9521C50.0255 59.8722 50.785 59.0239 50.8896 57.9776L55.0557 16.2803H8.94434Z" fill="black" stroke="url(#paint2_linear_10_20133)" stroke-linecap="round"/>
<path d="M30.041 26.4502C30.6368 26.6982 31.1329 27.1458 31.5039 27.79L34.1562 32.3994L32.4961 33.3408L37.873 33.417L40.5 28.706L38.8652 29.6728L37.3535 27.0967C37.1046 26.6743 36.6841 26.4502 36.1387 26.4502H30.041ZM28.627 26.6748C27.6863 26.6748 26.9181 27.1218 26.4473 27.9404L24.1914 31.831L28.9258 35.1631L31.8516 29.5244L31.0078 28.1123C30.4392 27.1464 29.6441 26.6748 28.627 26.6748ZM41.0215 34.0459L36.2891 36.749L39.2129 41.8056H40.8496C41.3406 41.8255 41.828 41.7143 42.2617 41.4834C43.0532 41.0378 43.625 40.0953 43.625 39.2041C43.625 38.7575 43.5002 38.3356 43.2774 37.9385L41.0215 34.0459ZM25.7793 35.1885L20.375 35.2881L22.0352 36.2275L20.5488 38.831C20.449 39.0034 20.375 39.2752 20.375 39.499C20.3791 39.7255 20.4388 39.9475 20.5488 40.1455L23.6465 45.4736C23.6223 45.3002 23.6231 45.175 23.6231 45.0771C23.6231 44.6557 23.8204 43.9856 24.0684 43.54L26.7207 38.956L28.4062 39.9209L25.7793 35.1885ZM35.5937 40.4658L32.8184 45.1025L35.5937 49.7373V47.8271H38.4941C38.7383 47.8373 38.9806 47.7804 39.1948 47.6626C39.4089 47.5449 39.5867 47.3708 39.709 47.1592L42.7813 41.8056C42.261 42.2018 41.6415 42.3994 40.8984 42.3994H35.5937V40.4658ZM25.4316 42.3506L24.6387 43.7627C24.3907 44.1841 24.2168 44.8538 24.2168 45.251C24.2208 45.9333 24.4938 46.5865 24.9765 47.0689C25.4591 47.5512 26.1126 47.8236 26.7949 47.8271H31.3047V42.3506H25.4316Z" fill="url(#paint3_linear_10_20133)"/>
<defs>
<linearGradient id="paint0_linear_10_20133" x1="8.87817" y1="12.8877" x2="55.1217" y2="12.8877" gradientUnits="userSpaceOnUse">
<stop stop-color="#FDFC47"/>
<stop offset="1" stop-color="#24FE41"/>
</linearGradient>
<linearGradient id="paint1_linear_10_20133" x1="12.6251" y1="30.8095" x2="51.3751" y2="30.8095" gradientUnits="userSpaceOnUse">
<stop stop-color="#FDFC47"/>
<stop offset="1" stop-color="#24FE41"/>
</linearGradient>
<linearGradient id="paint2_linear_10_20133" x1="8.94434" y1="38.0763" x2="55.0557" y2="38.0763" gradientUnits="userSpaceOnUse">
<stop stop-color="#FDFC47"/>
<stop offset="1" stop-color="#24FE41"/>
</linearGradient>
<linearGradient id="paint3_linear_10_20133" x1="20.375" y1="38.0937" x2="43.625" y2="38.0937" gradientUnits="userSpaceOnUse">
<stop stop-color="#FDFC47"/>
<stop offset="1" stop-color="#24FE41"/>
</linearGradient>
</defs>
</svg>
