<svg width="24" height="24" viewBox="0 0 24 24" fill="none" xmlns="http://www.w3.org/2000/svg">
<path d="M5 13.503C5.001 14.297 5.03401 14.284 6.03101 14.035L11.001 12.41V16.91L9.21899 18.128C9.00999 18.268 9 18.251 9 18.472V18.691C9 19.119 9.43799 18.972 9.43799 18.972L12 18.691L14.563 18.972C14.563 18.972 15 19.112 15 18.722V18.472C15 18.261 14.991 18.268 14.781 18.128L13.001 16.91V12.41L17.938 14.035C18.985 14.296 19 14.299 19 13.503C19 13.071 18.989 13.07 18.5 12.785L13 9.09699V6.00299C13 5.44899 12.554 5.00299 12 5.00299C11.446 5.00299 11 5.44899 11 6.00299V9.09699L5.5 12.785C5.043 13.051 5.002 13.068 5 13.441V13.503Z" fill="url(#paint0_linear_9_2661)"/>
<defs>
<linearGradient id="paint0_linear_9_2661" x1="5" y1="11.9997" x2="19" y2="11.9997" gradientUnits="userSpaceOnUse">
<stop stop-color="#FDFC47"/>
<stop offset="1" stop-color="#24FE41"/>
</linearGradient>
</defs>
</svg>
