<svg width="24" height="24" viewBox="0 0 24 24" fill="none" xmlns="http://www.w3.org/2000/svg">
<path d="M11.8811 6.2533L6.63589 12.9669C5.6524 14.2257 5.9277 16.4681 7.18649 17.4515C8.44528 18.435 10.6876 18.1597 11.671 16.9009L17.5719 9.34804C18.2276 8.50884 18.044 7.01401 17.2048 6.35829C16.3656 5.70263 14.8708 5.88619 14.2151 6.7254L8.96992 13.439C8.64208 13.8586 8.73387 14.6061 9.15346 14.9338C9.57306 15.2616 10.3205 15.1699 10.6483 14.7503L15.2379 8.87588L16.0771 9.53154L11.4875 15.4059C10.8318 16.2452 9.33702 16.4287 8.49783 15.7731C7.65862 15.1174 7.47508 13.6225 8.13071 12.7833L13.3759 6.06968C14.3594 4.81088 16.6017 4.53553 17.8605 5.51901C19.1193 6.50249 19.3946 8.74483 18.4111 10.0036L17.7555 10.8428L12.5102 17.5565C11.1989 19.2349 8.20924 19.602 6.53085 18.2906C4.85246 16.9793 4.48538 13.9896 5.79667 12.3112L11.0419 5.59758L11.8811 6.2533Z" fill="url(#paint0_linear_9_2668)"/>
<defs>
<linearGradient id="paint0_linear_9_2668" x1="5.00488" y1="12.0038" x2="19.005" y2="12.0038" gradientUnits="userSpaceOnUse">
<stop stop-color="#FDFC47"/>
<stop offset="1" stop-color="#24FE41"/>
</linearGradient>
</defs>
</svg>
