<svg width="24" height="24" viewBox="0 0 24 24" fill="none" xmlns="http://www.w3.org/2000/svg">
<path fill-rule="evenodd" clip-rule="evenodd" d="M12 5C10.338 5 9 6.338 9 8V12C9 13.662 10.338 15 12 15C13.662 15 15 13.662 15 12V8C15 6.338 13.662 5 12 5ZM10.5 8C10.777 8 11 8.223 11 8.5V11.5C11 11.777 10.777 12 10.5 12C10.223 12 10 11.777 10 11.5V8.5C10 8.223 10.223 8 10.5 8ZM13.5 8C13.777 8 14 8.223 14 8.5V11.5C14 11.777 13.777 12 13.5 12C13.223 12 13 11.777 13 11.5V8.5C13 8.223 13.223 8 13.5 8Z" fill="url(#paint0_linear_9_2697)"/>
<path fill-rule="evenodd" clip-rule="evenodd" d="M7.5 10C7.223 10 7 10.223 7 10.5V12C7 14.6008 8.967 16.7248 11.5 16.9746V18H9.5C9.223 18 9 18.223 9 18.5C9 18.777 9.223 19 9.5 19H14.5C14.777 19 15 18.777 15 18.5C15 18.223 14.777 18 14.5 18H12.5V16.9746C15.033 16.7248 17 14.6008 17 12V10.5C17 10.223 16.777 10 16.5 10C16.223 10 16 10.223 16 10.5V12C16 14.216 14.216 16 12 16C9.784 16 8 14.216 8 12V10.5C8 10.223 7.777 10 7.5 10Z" fill="url(#paint1_linear_9_2697)"/>
<defs>
<linearGradient id="paint0_linear_9_2697" x1="9" y1="10" x2="15" y2="10" gradientUnits="userSpaceOnUse">
<stop stop-color="#FDFC47"/>
<stop offset="1" stop-color="#24FE41"/>
</linearGradient>
<linearGradient id="paint1_linear_9_2697" x1="7" y1="14.5" x2="17" y2="14.5" gradientUnits="userSpaceOnUse">
<stop stop-color="#FDFC47"/>
<stop offset="1" stop-color="#24FE41"/>
</linearGradient>
</defs>
</svg>
