<svg width="24" height="24" viewBox="0 0 24 24" fill="none" xmlns="http://www.w3.org/2000/svg">
<path fill-rule="evenodd" clip-rule="evenodd" d="M4 7C2.892 7 2 7.892 2 9V15C2 16.108 2.892 17 4 17H17C18.108 17 19 16.108 19 15V9C19 7.892 18.108 7 17 7H4ZM4 8H17C17.554 8 18 8.446 18 9V15C18 15.554 17.554 16 17 16H4C3.446 16 3 15.554 3 15V9C3 8.446 3.446 8 4 8Z" fill="url(#paint0_linear_9_2738)"/>
<path fill-rule="evenodd" clip-rule="evenodd" d="M20 10V14C20.5304 14 21.0391 13.7893 21.4142 13.4142C21.7893 13.0391 22 12.5304 22 12C22 11.4696 21.7893 10.9609 21.4142 10.5858C21.0391 10.2107 20.5304 10 20 10Z" fill="url(#paint1_linear_9_2738)"/>
<path d="M10.834 8L7.5 13H10.5L9.75 16H10.166L13.5 11H10.5L11.25 8H10.834Z" fill="url(#paint2_linear_9_2738)"/>
<path fill-rule="evenodd" clip-rule="evenodd" d="M4.48242 9C4.21539 9 4 9.24253 4 9.54492V14.4551C4 14.7575 4.21539 15 4.48242 15H6.51762C6.78465 15 7.00004 14.7575 7.00004 14.4551V13.8633C6.53027 13.5904 6.32925 12.9537 6.66801 12.4453L7.00004 11.9473V9.54497C7.00004 9.24257 6.78465 9.00005 6.51762 9.00005L4.48242 9Z" fill="url(#paint3_linear_9_2738)"/>
<defs>
<linearGradient id="paint0_linear_9_2738" x1="2" y1="12" x2="19" y2="12" gradientUnits="userSpaceOnUse">
<stop stop-color="#FDFC47"/>
<stop offset="1" stop-color="#24FE41"/>
</linearGradient>
<linearGradient id="paint1_linear_9_2738" x1="20" y1="12" x2="22" y2="12" gradientUnits="userSpaceOnUse">
<stop stop-color="#FDFC47"/>
<stop offset="1" stop-color="#24FE41"/>
</linearGradient>
<linearGradient id="paint2_linear_9_2738" x1="7.5" y1="12" x2="13.5" y2="12" gradientUnits="userSpaceOnUse">
<stop stop-color="#FDFC47"/>
<stop offset="1" stop-color="#24FE41"/>
</linearGradient>
<linearGradient id="paint3_linear_9_2738" x1="4" y1="12" x2="7.00004" y2="12" gradientUnits="userSpaceOnUse">
<stop stop-color="#FDFC47"/>
<stop offset="1" stop-color="#24FE41"/>
</linearGradient>
</defs>
</svg>
