<svg width="24" height="24" viewBox="0 0 24 24" fill="none" xmlns="http://www.w3.org/2000/svg">
<path fill-rule="evenodd" clip-rule="evenodd" d="M4.53125 9C4.23713 9 4 9.24253 4 9.54492V14.4551C4 14.7575 4.23713 15 4.53125 15H8.46875C8.76287 15 9 14.7575 9 14.4551V14H7.5C6.70141 13.9999 6.2251 13.1099 6.66797 12.4453L8.85157 9.16994C8.75506 9.06642 8.61988 9.00002 8.46876 9.00002L4.53125 9Z" fill="url(#paint0_linear_9_2788)"/>
<path fill-rule="evenodd" clip-rule="evenodd" d="M4 7C2.892 7 2 7.892 2 9V15C2 16.108 2.892 17 4 17H17C18.108 17 19 16.108 19 15V9C19 7.892 18.108 7 17 7H4ZM4 8H17C17.554 8 18 8.446 18 9V15C18 15.554 17.554 16 17 16H4C3.446 16 3 15.554 3 15V9C3 8.446 3.446 8 4 8Z" fill="url(#paint1_linear_9_2788)"/>
<path fill-rule="evenodd" clip-rule="evenodd" d="M20 10V14C20.5304 14 21.0391 13.7893 21.4142 13.4142C21.7893 13.0391 22 12.5304 22 12C22 11.4696 21.7893 10.9609 21.4142 10.5858C21.0391 10.2107 20.5304 10 20 10Z" fill="url(#paint2_linear_9_2788)"/>
<path d="M10.834 8L7.5 13H10.5L9.75 16H10.166L13.5 11H10.5L11.25 8H10.834Z" fill="url(#paint3_linear_9_2788)"/>
<defs>
<linearGradient id="paint0_linear_9_2788" x1="4" y1="12" x2="9" y2="12" gradientUnits="userSpaceOnUse">
<stop stop-color="#FDFC47"/>
<stop offset="1" stop-color="#24FE41"/>
</linearGradient>
<linearGradient id="paint1_linear_9_2788" x1="2" y1="12" x2="19" y2="12" gradientUnits="userSpaceOnUse">
<stop stop-color="#FDFC47"/>
<stop offset="1" stop-color="#24FE41"/>
</linearGradient>
<linearGradient id="paint2_linear_9_2788" x1="20" y1="12" x2="22" y2="12" gradientUnits="userSpaceOnUse">
<stop stop-color="#FDFC47"/>
<stop offset="1" stop-color="#24FE41"/>
</linearGradient>
<linearGradient id="paint3_linear_9_2788" x1="7.5" y1="12" x2="13.5" y2="12" gradientUnits="userSpaceOnUse">
<stop stop-color="#FDFC47"/>
<stop offset="1" stop-color="#24FE41"/>
</linearGradient>
</defs>
</svg>
