<svg width="24" height="24" viewBox="0 0 24 24" fill="none" xmlns="http://www.w3.org/2000/svg">
<path d="M11.51 5.00003C11.233 5.00003 11.01 5.22203 11.01 5.50003V10.374L9.29101 8.87402C8.97801 8.60102 8.53301 8.65503 8.26001 8.96803C8.12728 9.11722 8.05923 9.31303 8.07086 9.51237C8.08249 9.71172 8.17285 9.89829 8.32202 10.031L10.572 11.999L8.32202 13.969C8.17315 14.1017 8.08297 14.2881 8.07135 14.4872C8.05972 14.6863 8.12759 14.8819 8.26001 15.031C8.53301 15.343 8.97801 15.398 9.29101 15.124L11.01 13.624V18.499C11.01 18.776 11.233 18.999 11.51 18.999C11.792 18.999 11.947 18.979 12.166 18.812L15.697 15.656C15.8044 15.5544 15.8807 15.4244 15.917 15.281C15.945 15.1898 15.9552 15.0941 15.947 14.999C15.9428 14.9461 15.9327 14.8938 15.917 14.843C15.8807 14.6997 15.8044 14.5697 15.697 14.468L12.885 11.999L15.697 9.53104C15.8044 9.42941 15.8807 9.29936 15.917 9.15604C15.963 9.01366 15.963 8.86041 15.917 8.71803C15.8807 8.57471 15.8044 8.44466 15.697 8.34303L12.167 5.18703C11.967 5.02603 11.739 4.99902 11.51 4.99902V5.00003ZM12.01 7.06203L14.104 8.93703L12.01 10.749V7.06203ZM12.01 13.249L14.104 15.062L12.01 16.937V13.249ZM20.059 17.999C19.7915 17.9911 19.525 18.037 19.2755 18.134C19.026 18.231 18.7985 18.377 18.6065 18.5635C18.4145 18.75 18.2618 18.9732 18.1576 19.2198C18.0535 19.4664 17.9999 19.7313 18 19.999C18 20.5295 18.2107 21.0382 18.5858 21.4132C18.9609 21.7883 19.4696 21.999 20 21.999C20.5304 21.999 21.0391 21.7883 21.4142 21.4132C21.7893 21.0382 22 20.5295 22 19.999C22.0002 19.4787 21.7976 18.9787 21.4352 18.6053C21.0728 18.2318 20.5792 18.0144 20.059 17.999Z" fill="url(#paint0_linear_9_2829)"/>
<defs>
<linearGradient id="paint0_linear_9_2829" x1="8.06958" y1="13.499" x2="22" y2="13.499" gradientUnits="userSpaceOnUse">
<stop stop-color="#FDFC47"/>
<stop offset="1" stop-color="#24FE41"/>
</linearGradient>
</defs>
</svg>
