<svg width="24" height="24" viewBox="0 0 24 24" fill="none" xmlns="http://www.w3.org/2000/svg">
<path d="M17 13C15.892 13 15 13.911 15 15.031V16.001H14V20.001H20V16.001H19V15.031C19 13.911 18.108 13.001 17 13.001V13ZM17 14C17.554 14 18 14.443 18 15V16H16V15C16 14.443 16.446 14 17 14Z" fill="url(#paint0_linear_9_2832)"/>
<path d="M11.5 4.99988C11.223 4.99988 11 5.22288 11 5.49988V10.3749L9.28125 8.87488C8.96925 8.60188 8.52495 8.65463 8.25195 8.96863C8.1192 9.11761 8.05102 9.31319 8.06237 9.51241C8.07372 9.71162 8.16368 9.89819 8.31249 10.0311L10.5625 11.9999L8.31249 13.9687C8.1634 14.1014 8.07308 14.2878 8.06136 14.487C8.04964 14.6863 8.11749 14.882 8.24999 15.0312C8.52399 15.3442 8.96924 15.398 9.28119 15.125L11.0019 13.625V18.5C11.0019 18.777 11.2239 19 11.5019 19C11.7839 19 11.9382 18.9805 12.1562 18.8125L12.9999 18.0586V16.041L11.9999 16.9374V13.2499L14.0136 14.994C14.0217 14.4168 14.1986 13.8772 14.4883 13.4159L12.875 11.9999L15.6875 9.53115C15.7944 9.42937 15.8702 9.29933 15.9062 9.15615C15.9521 9.01393 15.9521 8.86087 15.9062 8.71865C15.8702 8.57547 15.7944 8.44543 15.6875 8.34365L12.1563 5.18745C11.9573 5.02745 11.729 4.99988 11.5 4.99988ZM12 7.06238L14.0938 8.93738L12 10.7499V7.06238Z" fill="url(#paint1_linear_9_2832)"/>
<defs>
<linearGradient id="paint0_linear_9_2832" x1="14" y1="16.5005" x2="20" y2="16.5005" gradientUnits="userSpaceOnUse">
<stop stop-color="#FDFC47"/>
<stop offset="1" stop-color="#24FE41"/>
</linearGradient>
<linearGradient id="paint1_linear_9_2832" x1="8.06006" y1="11.9999" x2="15.9406" y2="11.9999" gradientUnits="userSpaceOnUse">
<stop stop-color="#FDFC47"/>
<stop offset="1" stop-color="#24FE41"/>
</linearGradient>
</defs>
</svg>
