<svg width="24" height="24" viewBox="0 0 24 24" fill="none" xmlns="http://www.w3.org/2000/svg">
<path d="M6.35156 4.73633L5.41211 5.67773L9.47461 9.74023H8.11133C8.15432 9.85184 8.22328 9.9516 8.3125 10.0312L10.5625 12L8.3125 13.9688C8.16341 14.1014 8.07308 14.2878 8.06136 14.4871C8.04965 14.6863 8.11749 14.882 8.25 15.0312C8.523 15.3442 8.96825 15.398 9.28125 15.125L11.002 13.625V18.5C11.002 18.777 11.224 19 11.502 19C11.784 19 11.9383 18.9805 12.1562 18.8125L15.6875 15.6562C15.7944 15.5545 15.8703 15.4244 15.9062 15.2812C15.9345 15.1904 15.9451 15.0949 15.9375 15C15.9329 14.9469 15.9224 14.8945 15.9062 14.8438C15.8703 14.7006 15.7944 14.5705 15.6875 14.4688L12.875 11.998L15.6875 9.53125C15.7944 9.42947 15.8703 9.29943 15.9062 9.15625C15.9523 9.01405 15.9523 8.86095 15.9062 8.71875C15.8703 8.57557 15.7944 8.44553 15.6875 8.34375L12.1562 5.1875C11.9572 5.0275 11.729 5 11.5 5C11.223 5 11 5.223 11 5.5V10.375L9.84766 9.36719L10.416 8.79883L6.35156 4.73633ZM12 7.0625L14.0938 8.9375L12 10.75V7.0625ZM12 13.25L14.0938 15.0625L12 16.9375V13.25Z" fill="url(#paint0_linear_9_2811)"/>
<defs>
<linearGradient id="paint0_linear_9_2811" x1="5.41211" y1="11.8682" x2="15.9408" y2="11.8682" gradientUnits="userSpaceOnUse">
<stop stop-color="#FDFC47"/>
<stop offset="1" stop-color="#24FE41"/>
</linearGradient>
</defs>
</svg>
