<svg width="24" height="24" viewBox="0 0 24 24" fill="none" xmlns="http://www.w3.org/2000/svg">
<path d="M5 11V14C5 17 7 19 10 19H12C15 19 16.76 17.434 16.959 15H17.5C19 15 19 13.5 19 13.5V12.5C19 11 17.5 11 17.5 11H17H5ZM6 12H16V14C16 16.216 14.216 18 12 18H10C7.784 18 6 16.216 6 14V12ZM17.5 12C18 11.968 18.016 12.531 18.016 12.531V13.531C18.016 14 17.5 14 17.5 14H17L17.01 12.015L17.5 12Z" fill="url(#paint0_linear_9_2835)"/>
<path opacity="0.35" d="M11.1929 3.99902C10.0949 5.38402 9.76491 6.06502 10.1609 6.94702C10.5209 7.74502 11.4489 8.15202 10.9819 9.99902C11.7489 9.09902 12.3579 7.95702 11.7559 7.03502C11.1439 6.09702 10.8079 5.52702 11.1929 3.99902Z" fill="url(#paint1_linear_9_2835)"/>
<path opacity="0.35" d="M8.19291 3.99902C7.09491 5.38402 6.76491 6.06502 7.16091 6.94702C7.52091 7.74502 8.44891 8.15202 7.98191 9.99902C8.74891 9.09902 9.35791 7.95702 8.75591 7.03502C8.14391 6.09702 7.80791 5.52702 8.19291 3.99902Z" fill="url(#paint2_linear_9_2835)"/>
<path opacity="0.35" d="M14.1929 3.99902C13.0949 5.38402 12.7649 6.06502 13.1609 6.94702C13.5209 7.74502 14.4489 8.15202 13.9819 9.99902C14.7489 9.09902 15.3579 7.95702 14.7559 7.03502C14.1439 6.09702 13.8079 5.52702 14.1929 3.99902Z" fill="url(#paint3_linear_9_2835)"/>
<defs>
<linearGradient id="paint0_linear_9_2835" x1="5" y1="15" x2="19" y2="15" gradientUnits="userSpaceOnUse">
<stop stop-color="#FDFC47"/>
<stop offset="1" stop-color="#24FE41"/>
</linearGradient>
<linearGradient id="paint1_linear_9_2835" x1="9.99976" y1="6.99902" x2="11.9999" y2="6.99902" gradientUnits="userSpaceOnUse">
<stop stop-color="#FDFC47"/>
<stop offset="1" stop-color="#24FE41"/>
</linearGradient>
<linearGradient id="paint2_linear_9_2835" x1="6.99976" y1="6.99902" x2="8.99992" y2="6.99902" gradientUnits="userSpaceOnUse">
<stop stop-color="#FDFC47"/>
<stop offset="1" stop-color="#24FE41"/>
</linearGradient>
<linearGradient id="paint3_linear_9_2835" x1="12.9998" y1="6.99902" x2="14.9999" y2="6.99902" gradientUnits="userSpaceOnUse">
<stop stop-color="#FDFC47"/>
<stop offset="1" stop-color="#24FE41"/>
</linearGradient>
</defs>
</svg>
