<svg width="24" height="24" viewBox="0 0 24 24" fill="none" xmlns="http://www.w3.org/2000/svg">
<path fill-rule="evenodd" clip-rule="evenodd" d="M12 4.08978C9.90217 4.08992 7.89026 4.92335 6.40683 6.40677C4.92341 7.89019 4.08998 9.90211 4.08984 12C4.08998 14.0979 4.92341 16.1098 6.40683 17.5932C7.89026 19.0766 9.90217 19.9101 12 19.9102C14.0979 19.9101 16.1098 19.0766 17.5933 17.5932C19.0767 16.1098 19.9101 14.0979 19.9102 12C19.9101 9.90211 19.0767 7.89019 17.5933 6.40677C16.1098 4.92335 14.0979 4.08992 12 4.08978ZM12 4.96294C12.414 4.96294 12.75 5.29894 12.75 5.71294C12.75 6.12594 12.414 6.46294 12 6.46294C11.586 6.46294 11.25 6.12594 11.25 5.71294C11.25 5.29894 11.586 4.96294 12 4.96294ZM11.998 6.99994C14.755 6.99994 17 9.24394 17 11.9999C17 14.7569 14.755 16.9999 11.998 16.9999C9.24104 16.9999 7.00004 14.7569 7.00004 11.9999C7.00004 9.24394 9.24104 6.99994 11.998 6.99994ZM12 8.49994C10.07 8.49994 8.50004 10.0699 8.50004 11.9999C8.50004 13.9299 10.07 15.4999 12 15.4999C13.93 15.4999 15.5 13.9299 15.5 11.9999C15.5 10.0699 13.93 8.49994 12 8.49994Z" fill="url(#paint0_linear_9_2849)" stroke="url(#paint1_linear_9_2849)" stroke-width="0.179" stroke-linecap="round"/>
<defs>
<linearGradient id="paint0_linear_9_2849" x1="4.08984" y1="12" x2="19.9102" y2="12" gradientUnits="userSpaceOnUse">
<stop stop-color="#FDFC47"/>
<stop offset="1" stop-color="#24FE41"/>
</linearGradient>
<linearGradient id="paint1_linear_9_2849" x1="4.08984" y1="12" x2="19.9102" y2="12" gradientUnits="userSpaceOnUse">
<stop stop-color="#FDFC47"/>
<stop offset="1" stop-color="#24FE41"/>
</linearGradient>
</defs>
</svg>
