<svg width="24" height="24" viewBox="0 0 24 24" fill="none" xmlns="http://www.w3.org/2000/svg">
<path d="M11.25 5C11.1837 5 11.1201 5.02634 11.0732 5.07322C11.0264 5.12011 11 5.1837 11 5.25V6.75C11 6.889 11.112 7 11.25 7H11.75C11.8163 7 11.8799 6.97366 11.9268 6.92678C11.9736 6.87989 12 6.8163 12 6.75V5.25C12 5.1837 11.9736 5.12011 11.9268 5.07322C11.8799 5.02634 11.8163 5 11.75 5H11.25ZM6.55103 6.947C6.518 6.94681 6.48526 6.95316 6.45471 6.96569C6.42416 6.97822 6.39636 6.99668 6.37299 7.02L6.02002 7.373C5.99674 7.39622 5.97824 7.42381 5.96564 7.45418C5.95303 7.48455 5.94653 7.51712 5.94653 7.55C5.94653 7.58288 5.95303 7.61544 5.96564 7.64582C5.97824 7.67619 5.99674 7.70378 6.02002 7.727L7.08002 8.787C7.10324 8.81028 7.13082 8.82875 7.16119 8.84135C7.19157 8.85396 7.22414 8.86045 7.25702 8.86045C7.2899 8.86045 7.32247 8.85396 7.35284 8.84135C7.38322 8.82875 7.4108 8.81028 7.43402 8.787L7.78699 8.434C7.81027 8.41078 7.82877 8.38319 7.84137 8.35282C7.85397 8.32244 7.86047 8.28988 7.86047 8.257C7.86047 8.22412 7.85397 8.19155 7.84137 8.16118C7.82877 8.13081 7.81027 8.10322 7.78699 8.08L6.72699 7.02C6.70398 6.99674 6.67658 6.9783 6.64636 6.96577C6.61614 6.95323 6.58374 6.94685 6.55103 6.947ZM16.449 6.947C16.4164 6.94699 16.3842 6.95343 16.3542 6.96596C16.3241 6.97849 16.2969 6.99686 16.274 7.02L15.214 8.08C15.1907 8.10322 15.1723 8.13081 15.1597 8.16118C15.1471 8.19155 15.1406 8.22412 15.1406 8.257C15.1406 8.28988 15.1471 8.32244 15.1597 8.35282C15.1723 8.38319 15.1907 8.41078 15.214 8.434L15.567 8.787C15.6139 8.83371 15.6774 8.85995 15.7435 8.85995C15.8097 8.85995 15.8731 8.83371 15.92 8.787L16.98 7.727C17.0033 7.70378 17.0218 7.67619 17.0344 7.64582C17.047 7.61544 17.0535 7.58288 17.0535 7.55C17.0535 7.51712 17.047 7.48455 17.0344 7.45418C17.0218 7.42381 17.0033 7.39622 16.98 7.373L16.627 7.02C16.6036 6.99668 16.5758 6.97822 16.5453 6.96569C16.5147 6.95316 16.482 6.94681 16.449 6.947ZM11.5 9C10.5717 9 9.68152 9.36875 9.02515 10.0251C8.36877 10.6815 8 11.5717 8 12.5C8 13.4283 8.36877 14.3185 9.02515 14.9749C9.68152 15.6312 10.5717 16 11.5 16C12.4283 16 13.3185 15.6312 13.9749 14.9749C14.6312 14.3185 15 13.4283 15 12.5C15 11.5717 14.6312 10.6815 13.9749 10.0251C13.3185 9.36875 12.4283 9 11.5 9ZM11.5 10C12.163 10 12.7989 10.2634 13.2678 10.7322C13.7366 11.2011 14 11.837 14 12.5C14 13.163 13.7366 13.7989 13.2678 14.2678C12.7989 14.7366 12.163 15 11.5 15C10.837 15 10.2011 14.7366 9.73224 14.2678C9.2634 13.7989 9 13.163 9 12.5C9 11.837 9.2634 11.2011 9.73224 10.7322C10.2011 10.2634 10.837 10 11.5 10ZM4.25 12C4.1837 12 4.12013 12.0263 4.07324 12.0732C4.02636 12.1201 4 12.1837 4 12.25V12.75C4 12.889 4.112 13 4.25 13H5.75C5.8163 13 5.87987 12.9737 5.92676 12.9268C5.97364 12.8799 6 12.8163 6 12.75V12.25C6 12.1837 5.97364 12.1201 5.92676 12.0732C5.87987 12.0263 5.8163 12 5.75 12H4.25ZM17.25 12C17.1837 12 17.1201 12.0263 17.0732 12.0732C17.0264 12.1201 17 12.1837 17 12.25V12.75C17 12.889 17.112 13 17.25 13H18.75C18.8163 13 18.8799 12.9737 18.9268 12.9268C18.9736 12.8799 19 12.8163 19 12.75V12.25C19 12.1837 18.9736 12.1201 18.9268 12.0732C18.8799 12.0263 18.8163 12 18.75 12H17.25ZM7.258 16.139C7.1912 16.1391 7.1272 16.1657 7.08002 16.213L6.02002 17.273C5.99674 17.2962 5.97824 17.3238 5.96564 17.3542C5.95303 17.3846 5.94653 17.4171 5.94653 17.45C5.94653 17.4829 5.95303 17.5154 5.96564 17.5458C5.97824 17.5762 5.99674 17.6038 6.02002 17.627L6.37299 17.98C6.39621 18.0033 6.42379 18.0218 6.45416 18.0344C6.48454 18.047 6.5171 18.0534 6.54999 18.0534C6.58287 18.0534 6.61544 18.047 6.64581 18.0344C6.67619 18.0218 6.70377 18.0033 6.72699 17.98L7.78699 16.92C7.81027 16.8968 7.82877 16.8692 7.84137 16.8388C7.85397 16.8084 7.86047 16.7759 7.86047 16.743C7.86047 16.7101 7.85397 16.6776 7.84137 16.6472C7.82877 16.6168 7.81027 16.5892 7.78699 16.566L7.43402 16.213C7.41103 16.1897 7.3836 16.1711 7.35339 16.1584C7.32318 16.1457 7.29077 16.1391 7.258 16.139ZM15.742 16.139C15.7094 16.1392 15.6772 16.1459 15.6472 16.1586C15.6171 16.1713 15.5899 16.1898 15.567 16.213L15.213 16.566C15.1897 16.5892 15.1712 16.6168 15.1586 16.6472C15.146 16.6776 15.1395 16.7101 15.1395 16.743C15.1395 16.7759 15.146 16.8084 15.1586 16.8388C15.1712 16.8692 15.1897 16.8968 15.213 16.92L16.273 17.98C16.2962 18.0033 16.3238 18.0218 16.3542 18.0344C16.3846 18.047 16.4171 18.0534 16.45 18.0534C16.4829 18.0534 16.5155 18.047 16.5458 18.0344C16.5762 18.0218 16.6038 18.0033 16.627 17.98L16.981 17.627C17.0043 17.6038 17.0227 17.5762 17.0353 17.5458C17.0479 17.5154 17.0544 17.4829 17.0544 17.45C17.0544 17.4171 17.0479 17.3846 17.0353 17.3542C17.0227 17.3238 17.0043 17.2962 16.981 17.273L15.921 16.213C15.8975 16.1895 15.8696 16.1708 15.8389 16.1581C15.8081 16.1454 15.7752 16.1389 15.742 16.139ZM11.25 18C11.1837 18 11.1201 18.0263 11.0732 18.0732C11.0264 18.1201 11 18.1837 11 18.25V19.75C11 19.889 11.112 20 11.25 20H11.75C11.8163 20 11.8799 19.9737 11.9268 19.9268C11.9736 19.8799 12 19.8163 12 19.75V18.25C12 18.1837 11.9736 18.1201 11.9268 18.0732C11.8799 18.0263 11.8163 18 11.75 18H11.25Z" fill="url(#paint0_linear_9_2854)"/>
<defs>
<linearGradient id="paint0_linear_9_2854" x1="4" y1="12.5" x2="19" y2="12.5" gradientUnits="userSpaceOnUse">
<stop stop-color="#FDFC47"/>
<stop offset="1" stop-color="#24FE41"/>
</linearGradient>
</defs>
</svg>
