<svg width="24" height="24" viewBox="0 0 24 24" fill="none" xmlns="http://www.w3.org/2000/svg">
<path d="M10.6 13.2H9.4V10.8H10.6C11.9254 10.8 13 9.7254 13 8.4C13 7.0746 11.9254 6 10.6 6C9.27445 6 8.2 7.0746 8.2 8.4V9.6H5.8V8.4C5.8 7.0746 4.7254 6 3.4 6C2.0746 6 1 7.0746 1 8.4C1 9.7254 2.0746 10.8 3.4 10.8H4.6V13.2H3.4C2.0746 13.2 1 14.2746 1 15.6C1 16.9254 2.0746 18 3.4 18C4.72555 18 5.8 16.9254 5.8 15.6V14.4H8.2V15.597C8.2 15.5982 8.19985 15.5991 8.19985 15.6C8.19985 16.9254 9.27445 18 10.5999 18C11.9253 18 12.9999 16.9254 12.9999 15.6C12.9999 14.2746 11.9254 13.2003 10.6 13.2ZM10.6 7.2C11.2627 7.2 11.8 7.7373 11.8 8.4C11.8 9.0627 11.2627 9.6 10.6 9.6H9.4V8.4C9.4 7.7373 9.9373 7.2 10.6 7.2ZM2.2 8.4C2.2 7.7373 2.7373 7.2 3.4 7.2C4.0627 7.2 4.6 7.7373 4.6 8.4V9.6H3.4C2.7373 9.6 2.2 9.06255 2.2 8.4ZM3.4 16.8C2.7373 16.8 2.2 16.2627 2.2 15.6C2.2 14.9373 2.7373 14.4 3.4 14.4H4.6V15.6C4.6 16.2627 4.0627 16.8 3.4 16.8ZM5.8 13.2V10.8H8.2V13.2H5.8ZM10.6 16.8C9.9373 16.8 9.4 16.2627 9.4 15.6V14.4H10.5999C11.2626 14.4 11.7999 14.9373 11.7999 15.6C11.7999 16.2627 11.2627 16.8 10.6 16.8Z" fill="url(#paint0_linear_9_2868)"/>
<path fill-rule="evenodd" clip-rule="evenodd" d="M14 19C14 20.108 14.892 21 16 21H22C23.108 21 24 20.108 24 19V6C24 4.892 23.108 4 22 4H16C14.892 4 14 4.892 14 6L14 19ZM15 19V6C15 5.446 15.446 5 16 5H22C22.554 5 23 5.446 23 6V19C23 19.554 22.554 20 22 20H16C15.446 20 15 19.554 15 19Z" fill="url(#paint1_linear_9_2868)"/>
<path fill-rule="evenodd" clip-rule="evenodd" d="M17 3L21 3C21 2.46957 20.7893 1.96086 20.4142 1.58579C20.0391 1.21071 19.5304 1 19 1C18.4696 1 17.9609 1.21071 17.5858 1.58579C17.2107 1.96086 17 2.46957 17 3Z" fill="url(#paint2_linear_9_2868)"/>
<defs>
<linearGradient id="paint0_linear_9_2868" x1="1" y1="12" x2="13" y2="12" gradientUnits="userSpaceOnUse">
<stop stop-color="#FDFC47"/>
<stop offset="1" stop-color="#24FE41"/>
</linearGradient>
<linearGradient id="paint1_linear_9_2868" x1="14" y1="21" x2="27.5203" y2="17.4653" gradientUnits="userSpaceOnUse">
<stop stop-color="#FF0500"/>
<stop offset="1" stop-color="#FD3632"/>
</linearGradient>
<linearGradient id="paint2_linear_9_2868" x1="17" y1="3" x2="20.2276" y2="0.131034" gradientUnits="userSpaceOnUse">
<stop stop-color="#FF0500"/>
<stop offset="1" stop-color="#FD3632"/>
</linearGradient>
</defs>
</svg>
