<svg width="24" height="24" viewBox="0 0 24 24" fill="none" xmlns="http://www.w3.org/2000/svg">
<path d="M11.75 6V8H12.25V6H11.75ZM7.8535 7.5L7.49998 7.85352L9.26758 9.62112L9.6211 9.2676L7.8535 7.5ZM16 7.5L14.2324 9.2676L14.5859 9.62112L16.3535 7.85352L16 7.5ZM10.5 9.4062C10.0446 9.66914 9.66626 10.0472 9.40299 10.5024C9.13972 10.9577 9.00075 11.4741 9 12C9.00075 12.5259 9.13972 13.0423 9.40299 13.4976C9.66626 13.9528 10.0446 14.3309 10.5 14.5938V14C10.5002 13.8244 10.5467 13.652 10.6348 13.5C10.6341 13.4994 10.6335 13.4988 10.6328 13.4981C10.428 13.3084 10.2645 13.0785 10.1526 12.8228C10.0407 12.567 9.98277 12.291 9.98243 12.0118C9.98345 11.5137 10.1677 11.0333 10.5 10.6622L10.5 9.4062ZM13.5 9.4062V10.6347C13.8472 11.0093 14.0404 11.501 14.041 12.0117C14.0406 12.2948 13.981 12.5747 13.8659 12.8334C13.7509 13.092 13.583 13.3238 13.373 13.5137C13.4561 13.6624 13.4998 13.8298 13.5 14V14.5938C13.9554 14.3308 14.3337 13.9528 14.597 13.4976C14.8603 13.0423 14.9993 12.5259 15 12C14.9993 11.4741 14.8603 10.9576 14.597 10.5024C14.3337 10.0472 13.9554 9.66914 13.5 9.4062ZM6 11.75V12.25H8.5V11.75H6ZM15.5 11.75V12.25H18V11.75H15.5ZM9.2676 14.3789L7.5 16.1465L7.85352 16.5L9.62112 14.7324L9.2676 14.3789ZM14.7324 14.3789L14.3789 14.7324L16.1465 16.5L16.5 16.1465L14.7324 14.3789ZM11.75 16V18H12.25V16H11.75Z" fill="url(#paint0_linear_9_2864)"/>
<path d="M11.5 9V13H12.5V9H11.5ZM11.5 14V15H12.5V14H11.5Z" fill="url(#paint1_linear_9_2864)"/>
<defs>
<linearGradient id="paint0_linear_9_2864" x1="6" y1="12" x2="18" y2="12" gradientUnits="userSpaceOnUse">
<stop stop-color="#FDFC47"/>
<stop offset="1" stop-color="#24FE41"/>
</linearGradient>
<linearGradient id="paint1_linear_9_2864" x1="11.5" y1="9" x2="14.3493" y2="10.0685" gradientUnits="userSpaceOnUse">
<stop stop-color="#FF0500"/>
<stop offset="1" stop-color="#FD3632"/>
</linearGradient>
</defs>
</svg>
