<svg width="24" height="24" viewBox="0 0 24 24" fill="none" xmlns="http://www.w3.org/2000/svg">
<path d="M11.5449 5.74219C10.3275 6.07354 9.27139 6.97139 8.77339 8.16989C8.77339 8.16989 6.85909 12.79 5.08789 12.7285C5.06889 12.7325 5.05546 12.7473 5.03516 12.7519C4.95806 12.7734 4.88433 12.8081 4.81836 12.8535C4.79136 12.8715 4.76383 12.8818 4.74023 12.9023C4.65033 12.9765 4.57955 13.0707 4.5332 13.1777C4.37401 13.562 4.55605 13.9994 4.93945 14.1582L14.6407 18.1758C15.025 18.335 15.46 18.1558 15.6192 17.7715C15.6621 17.6631 15.679 17.5457 15.668 17.4297C15.666 17.3984 15.6543 17.3704 15.6485 17.3398C15.6337 17.2609 15.6061 17.185 15.5664 17.1152C15.5562 17.098 15.5584 17.0772 15.5469 17.0605C14.7746 16.3408 15.1435 14.418 15.5664 12.9746C14.3213 12.8662 13.1618 12.2954 12.3166 11.3747C11.4714 10.4539 11.0017 9.24993 11 8.00004C11.0019 7.2151 11.1885 6.44158 11.5449 5.74219ZM10.4062 17.5042C10.4798 18.4422 11.2081 19.2256 12.1777 19.3323C12.7474 19.3946 13.2851 19.2081 13.6894 18.8635L10.4062 17.5042Z" fill="url(#paint0_linear_9_2923)"/>
<path d="M20 8C20 9.06087 19.5786 10.0783 18.8284 10.8284C18.0783 11.5786 17.0609 12 16 12C14.9391 12 13.9217 11.5786 13.1716 10.8284C12.4214 10.0783 12 9.06087 12 8C12 6.93913 12.4214 5.92172 13.1716 5.17157C13.9217 4.42143 14.9391 4 16 4C17.0609 4 18.0783 4.42143 18.8284 5.17157C19.5786 5.92172 20 6.93913 20 8Z" fill="url(#paint1_linear_9_2923)"/>
<defs>
<linearGradient id="paint0_linear_9_2923" x1="4.47559" y1="12.5432" x2="15.6713" y2="12.5432" gradientUnits="userSpaceOnUse">
<stop stop-color="#FDFC47"/>
<stop offset="1" stop-color="#24FE41"/>
</linearGradient>
<linearGradient id="paint1_linear_9_2923" x1="12" y1="4" x2="16.2887" y2="13.6495" gradientUnits="userSpaceOnUse">
<stop stop-color="#FF0500"/>
<stop offset="1" stop-color="#FD3632"/>
</linearGradient>
</defs>
</svg>
