<svg width="24" height="24" viewBox="0 0 24 24" fill="none" xmlns="http://www.w3.org/2000/svg">
<path d="M12 4.75C11.7348 4.75 11.4804 4.85536 11.2929 5.04289C11.1054 5.23043 11 5.48478 11 5.75V5.76C9.236 6.216 8.002 7.928 8 9.75C8 9.75 8.00003 14.75 6.34003 15.371C6.32403 15.382 6.31699 15.402 6.29999 15.414C6.23698 15.4634 6.18257 15.5229 6.13898 15.59C6.12098 15.617 6.1 15.638 6.086 15.666C6.03135 15.769 6.00188 15.8834 6 16C6 16.416 6.335 16.75 6.75 16.75H17.25C17.666 16.75 18 16.416 18 16C17.9981 15.8834 17.9686 15.769 17.914 15.666C17.9 15.638 17.879 15.616 17.862 15.59C17.8181 15.5228 17.7634 15.4633 17.7 15.414C17.684 15.402 17.677 15.382 17.66 15.371C16 14.751 16 9.75 16 9.75C15.998 7.927 14.765 6.215 13 5.76V5.75C13 5.48478 12.8946 5.23043 12.7071 5.04289C12.5196 4.85536 12.2652 4.75 12 4.75ZM10.067 17.75C10.1777 18.1787 10.4275 18.5586 10.7773 18.8301C11.1272 19.1015 11.5572 19.2492 12 19.25C12.4433 19.2499 12.874 19.1025 13.2244 18.831C13.5749 18.5595 13.8251 18.1792 13.936 17.75H10.067Z" fill="url(#paint0_linear_9_2927)"/>
<defs>
<linearGradient id="paint0_linear_9_2927" x1="6" y1="4.75" x2="14.7301" y2="21.0061" gradientUnits="userSpaceOnUse">
<stop stop-color="#FF0500"/>
<stop offset="1" stop-color="#FD3632"/>
</linearGradient>
</defs>
</svg>
