<svg width="24" height="24" viewBox="0 0 24 24" fill="none" xmlns="http://www.w3.org/2000/svg">
<path d="M7.5 5C6.1193 5 5 6.1193 5 7.5C5 8.8807 6.1193 10 7.5 10H9V14H7.5C6.1193 14 5 15.1193 5 16.5C5 17.8807 6.1193 19 7.5 19C8.8807 19 10 17.8807 10 16.5V15H14V16.5C14 17.8807 15.1193 19 16.5 19C17.8807 19 19 17.8807 19 16.5C19 15.1193 17.8807 14 16.5 14H15V10H16.5C17.8807 10 19 8.8807 19 7.5C19 6.1193 17.8807 5 16.5 5C15.1193 5 14 6.1193 14 7.5V9H10V7.5C10 6.1193 8.8807 5 7.5 5ZM7.5 6C8.32843 6 9 6.67157 9 7.5V9H7.5C6.67157 9 6 8.32843 6 7.5C6 6.67157 6.67157 6 7.5 6ZM16.5 6C17.3284 6 18 6.67157 18 7.5C18 8.32843 17.3284 9 16.5 9H15V7.5C15 6.67157 15.6716 6 16.5 6ZM10 10H14V14H10V10ZM7.5 15H9V16.5C9 17.3284 8.32843 18 7.5 18C6.67157 18 6 17.3284 6 16.5C6 15.6716 6.67157 15 7.5 15ZM15 15H16.5C17.3284 15 18 15.6716 18 16.5C18 17.3284 17.3284 18 16.5 18C15.6716 18 15 17.3284 15 16.5V15Z" fill="#232323"/>
</svg>
