<svg width="24" height="24" viewBox="0 0 24 24" fill="none" xmlns="http://www.w3.org/2000/svg">
<path opacity="0.35" d="M15 8C15 6.34315 13.6569 5 12 5C10.3431 5 9 6.34315 9 8V12C9 13.6569 10.3431 15 12 15C13.6569 15 15 13.6569 15 12V8Z" fill="url(#paint0_linear_9_2994)"/>
<path opacity="0.35" fill-rule="evenodd" clip-rule="evenodd" d="M7.5 10C7.223 10 7 10.223 7 10.5V12C7 14.6008 8.967 16.7248 11.5 16.9746V18H9.5C9.223 18 9 18.223 9 18.5C9 18.777 9.223 19 9.5 19H14.5C14.777 19 15 18.777 15 18.5C15 18.223 14.777 18 14.5 18H12.5V16.9746C15.033 16.7248 17 14.6008 17 12V10.5C17 10.223 16.777 10 16.5 10C16.223 10 16 10.223 16 10.5V12C16 14.216 14.216 16 12 16C9.784 16 8 14.216 8 12V10.5C8 10.223 7.777 10 7.5 10Z" fill="url(#paint1_linear_9_2994)"/>
<defs>
<linearGradient id="paint0_linear_9_2994" x1="9" y1="10" x2="15" y2="10" gradientUnits="userSpaceOnUse">
<stop stop-color="#FDFC47"/>
<stop offset="1" stop-color="#24FE41"/>
</linearGradient>
<linearGradient id="paint1_linear_9_2994" x1="7" y1="14.5" x2="17" y2="14.5" gradientUnits="userSpaceOnUse">
<stop stop-color="#FDFC47"/>
<stop offset="1" stop-color="#24FE41"/>
</linearGradient>
</defs>
</svg>
