<svg width="24" height="24" viewBox="0 0 24 24" fill="none" xmlns="http://www.w3.org/2000/svg">
<path d="M6.35352 4.73633L5.41211 5.67773L9.6543 9.91992L10 9.57422V13C10 14.108 10.892 15 12 15C13.108 15 14 14.108 14 13V7C14 5.892 13.108 5 12 5C10.892 5 10 5.892 10 7V8.38281L6.35352 4.73633ZM7 10V11H8V13C7.99931 13.8856 8.29395 14.7462 8.8373 15.4455C9.38065 16.1449 10.1417 16.6431 11 16.8613V19H10V20H14V19H13V16.8613C13.8583 16.6431 14.6193 16.1449 15.1627 15.4455C15.706 14.7462 16.0007 13.8856 16 13V11H17V10H15V13C15 14.662 13.662 16 12 16C10.338 16 9 14.662 9 13V10.5742L8.42578 10H7Z" fill="url(#paint0_linear_9_2978)"/>
<defs>
<linearGradient id="paint0_linear_9_2978" x1="5.41211" y1="12.3682" x2="17" y2="12.3682" gradientUnits="userSpaceOnUse">
<stop stop-color="#FDFC47"/>
<stop offset="1" stop-color="#24FE41"/>
</linearGradient>
</defs>
</svg>
