<svg width="24" height="24" viewBox="0 0 24 24" fill="none" xmlns="http://www.w3.org/2000/svg">
<path d="M12 4.00002C9.87827 4.00002 7.84344 4.84287 6.34315 6.34317C4.84285 7.84346 4 9.87829 4 12C4 14.1218 4.84285 16.1566 6.34315 17.6569C7.84344 19.1572 9.87827 20 12 20C13.6407 19.9987 15.2412 19.4929 16.5848 18.5513C16.5762 18.463 16.5717 18.3744 16.5714 18.2857C16.5717 17.5648 16.8444 16.8707 17.335 16.3425C17.8255 15.8143 18.4976 15.491 19.2165 15.4375C19.7301 14.3642 19.9977 13.1898 20 12C20 9.87827 19.1571 7.84344 17.6568 6.34315C16.1566 4.84285 14.1217 4.00002 12 4.00002ZM10.8571 7.42862H13.1428V9.71432H10.8571V7.42862ZM10.8571 10.8572H13.1428V16.5715H10.8571V10.8572Z" fill="#232323"/>
<path d="M19.5 20C20.3284 20 21 19.3284 21 18.5C21 17.6716 20.3284 17 19.5 17C18.6716 17 18 17.6716 18 18.5C18 19.3284 18.6716 20 19.5 20Z" fill="#232323"/>
</svg>
