<svg width="24" height="24" viewBox="0 0 24 24" fill="none" xmlns="http://www.w3.org/2000/svg">
<path d="M12 4C9.87827 4 7.84344 4.84285 6.34315 6.34315C4.84285 7.84344 4 9.87827 4 12C4 14.1217 4.84285 16.1566 6.34315 17.6569C7.84344 19.1571 9.87827 20 12 20C14.1217 20 16.1566 19.1571 17.6569 17.6569C19.1571 16.1566 20 14.1217 20 12C20 9.87827 19.1571 7.84344 17.6569 6.34315C16.1566 4.84285 14.1217 4 12 4ZM11.9799 8.5915C12.9404 8.59299 13.8561 8.9967 14.5045 9.7053L15.4063 9.18298L15.2032 10.8683L15.2077 10.8772H15.2032L15.0648 12.0201L12.4376 10.8973L13.4755 10.2968C13.0607 9.93551 12.53 9.73566 11.98 9.73434C11.1642 9.73518 10.4102 10.1707 10.0023 10.8772H8.75007C9.2342 9.50794 10.5275 8.5922 11.9799 8.5915ZM8.89281 12.0402L11.52 13.163L10.4955 13.7545C10.9089 14.1092 11.4352 14.305 11.9798 14.3059C12.7956 14.305 13.5496 13.8695 13.9575 13.163H15.2097C14.7257 14.5319 13.4318 15.4476 11.9798 15.4487C11.0261 15.4474 10.1159 15.0486 9.46861 14.3483L8.5512 14.8773L8.75656 13.1742L8.75209 13.163H8.75656L8.89281 12.0402Z" fill="#232323"/>
</svg>
