<svg width="24" height="24" viewBox="0 0 24 24" fill="none" xmlns="http://www.w3.org/2000/svg">
<path fill-rule="evenodd" clip-rule="evenodd" d="M12 6.00861C9.15947 6.00861 6.56757 7.01571 4.51367 8.66681C4.47899 8.68697 4.44686 8.71123 4.41797 8.73907C4.36942 8.78553 4.33074 8.8413 4.30423 8.90305C4.27771 8.9648 4.26392 9.03125 4.26367 9.09845C4.26367 9.23106 4.31635 9.35824 4.41012 9.45201C4.50389 9.54577 4.63106 9.59845 4.76367 9.59845C4.87972 9.59878 4.99227 9.55873 5.08203 9.48517C6.97303 7.94637 9.37183 7.00857 12 7.00857C14.6282 7.00857 17.0269 7.94633 18.918 9.48517C19.0078 9.55873 19.1203 9.59878 19.2364 9.59845C19.369 9.59845 19.4962 9.54577 19.5899 9.45201C19.6837 9.35824 19.7364 9.23106 19.7364 9.09845C19.7361 9.03125 19.7224 8.9648 19.6958 8.90305C19.6693 8.8413 19.6306 8.78553 19.5821 8.73907C19.5532 8.71123 19.5211 8.68697 19.4864 8.66681C17.4325 7.01571 14.8404 6.00861 12 6.00861ZM12 9.00861C11.9848 9.00861 11.9702 9.01049 11.9551 9.01056C11.985 9.00988 12.015 9.00988 12.0449 9.01056C12.0298 9.01048 12.0151 9.00861 12 9.00861ZM11.9258 9.01252C10.7179 9.0226 9.57306 9.27723 8.52736 9.72346C8.74475 9.98171 8.89324 10.2908 8.959 10.6219C9.34521 10.4606 9.74601 10.3305 10.1602 10.2313C10.2482 10.0204 10.3718 9.82619 10.5254 9.65706C10.7046 9.46232 10.9206 9.30508 11.161 9.19444C11.4014 9.0838 11.6613 9.02196 11.9258 9.01252ZM12.1054 9.01252C12.5662 9.03683 13.0043 9.21969 13.3456 9.5301L13.3652 9.54767C13.5689 9.73993 13.7299 9.97282 13.8378 10.2313C14.2527 10.3305 14.6542 10.4604 15.0409 10.6219C15.1058 10.2903 15.2536 9.98051 15.4706 9.72149C14.4346 9.27975 13.3008 9.02668 12.1054 9.01252ZM10.4296 12.2449C9.69444 12.4532 9.01035 12.7838 8.41405 13.2332C8.30371 13.3282 8.2461 13.4724 8.24608 13.618C8.24608 13.8941 8.46994 14.118 8.74608 14.118C8.87044 14.1176 8.99021 14.071 9.08202 13.9871C9.90417 13.384 10.9019 13.0086 12 13.0086C13.0981 13.0086 14.0958 13.384 14.918 13.9871C15.0098 14.071 15.1296 14.1176 15.254 14.118C15.5301 14.118 15.754 13.8941 15.754 13.618C15.7539 13.4724 15.6963 13.3282 15.586 13.2332C14.9897 12.7838 14.3056 12.4532 13.5704 12.2449C13.5369 12.288 13.5018 12.3297 13.4649 12.3699C13.1048 12.7574 12.6059 12.9865 12.0774 13.007C11.5488 13.0275 11.0336 12.8377 10.6446 12.4793C10.5669 12.407 10.4949 12.3286 10.4296 12.2449Z" fill="url(#paint0_linear_9_3150)"/>
<path d="M12 17.0086C12.5523 17.0086 13 16.5609 13 16.0086C13 15.4563 12.5523 15.0086 12 15.0086C11.4477 15.0086 11 15.4563 11 16.0086C11 16.5609 11.4477 17.0086 12 17.0086Z" fill="url(#paint1_linear_9_3150)"/>
<path opacity="0.35" fill-rule="evenodd" clip-rule="evenodd" d="M7.68264 10.2779C7.87605 10.4586 7.98994 10.7086 7.99936 10.9731C8.00877 11.2376 7.91294 11.4951 7.73287 11.689C7.55281 11.883 7.30319 11.9977 7.03873 12.0079C6.77426 12.0182 6.51651 11.9232 6.32197 11.7437C6.12744 11.5643 6.01197 11.315 6.00088 11.0506C5.98979 10.7862 6.08397 10.5281 6.26279 10.333C6.44162 10.1379 6.6905 10.0217 6.95489 10.0097C7.21928 9.99781 7.47762 10.0912 7.67329 10.2694" fill="url(#paint2_linear_9_3150)"/>
<path opacity="0.35" fill-rule="evenodd" clip-rule="evenodd" d="M12.6826 10.2779C12.876 10.4586 12.9899 10.7086 12.9994 10.9731C13.0088 11.2376 12.9129 11.4951 12.7329 11.689C12.5528 11.883 12.3032 11.9977 12.0387 12.0079C11.7743 12.0182 11.5165 11.9232 11.322 11.7437C11.1274 11.5643 11.012 11.315 11.0009 11.0506C10.9898 10.7862 11.084 10.5281 11.2628 10.333C11.4416 10.1379 11.6905 10.0217 11.9549 10.0097C12.2193 9.99781 12.4776 10.0912 12.6733 10.2694" fill="url(#paint3_linear_9_3150)"/>
<path opacity="0.35" fill-rule="evenodd" clip-rule="evenodd" d="M17.6829 10.2779C17.8763 10.4586 17.9902 10.7086 17.9996 10.9731C18.009 11.2376 17.9132 11.4951 17.7331 11.689C17.5531 11.883 17.3034 11.9977 17.039 12.0079C16.7745 12.0182 16.5168 11.9232 16.3222 11.7437C16.1277 11.5643 16.0122 11.315 16.0011 11.0506C15.99 10.7862 16.0842 10.5281 16.263 10.333C16.4419 10.1379 16.6907 10.0217 16.9551 10.0097C17.2195 9.99781 17.4779 10.0912 17.6735 10.2694" fill="url(#paint4_linear_9_3150)"/>
<defs>
<linearGradient id="paint0_linear_9_3150" x1="4.26367" y1="10.0633" x2="19.7364" y2="10.0633" gradientUnits="userSpaceOnUse">
<stop stop-color="#FDFC47"/>
<stop offset="1" stop-color="#24FE41"/>
</linearGradient>
<linearGradient id="paint1_linear_9_3150" x1="11" y1="16.0086" x2="13" y2="16.0086" gradientUnits="userSpaceOnUse">
<stop stop-color="#FDFC47"/>
<stop offset="1" stop-color="#24FE41"/>
</linearGradient>
<linearGradient id="paint2_linear_9_3150" x1="6" y1="11.0087" x2="7.99999" y2="11.0087" gradientUnits="userSpaceOnUse">
<stop stop-color="#FDFC47"/>
<stop offset="1" stop-color="#24FE41"/>
</linearGradient>
<linearGradient id="paint3_linear_9_3150" x1="11" y1="11.0087" x2="13" y2="11.0087" gradientUnits="userSpaceOnUse">
<stop stop-color="#FDFC47"/>
<stop offset="1" stop-color="#24FE41"/>
</linearGradient>
<linearGradient id="paint4_linear_9_3150" x1="16.0002" y1="11.0087" x2="18.0002" y2="11.0087" gradientUnits="userSpaceOnUse">
<stop stop-color="#FDFC47"/>
<stop offset="1" stop-color="#24FE41"/>
</linearGradient>
</defs>
</svg>
