<svg width="24" height="24" viewBox="0 0 24 24" fill="none" xmlns="http://www.w3.org/2000/svg">
<path opacity="0.4" d="M20.5 6C20.223 6 20 6.223 20 6.5V17.5C20 17.777 20.223 18 20.5 18H21.5C21.777 18 22 17.777 22 17.5V6.5C22 6.223 21.777 6 21.5 6H20.5ZM16.5 9C16.223 9 16 9.223 16 9.5V17.5C16 17.777 16.223 18 16.5 18H17.5C17.777 18 18 17.777 18 17.5V9.5C18 9.223 17.777 9 17.5 9H16.5ZM1.469 10L1 11L4 14V18H5V14L8 11L7.625 10H1.469ZM2.375 11H4V12.625L2.375 11ZM5 11H6.625L5 12.625V11ZM12.5 12C12.223 12 12 12.223 12 12.5V17.5C12 17.777 12.223 18 12.5 18H13.5C13.777 18 14 17.777 14 17.5V12.5C14 12.223 13.777 12 13.5 12H12.5ZM8.5 15C8.223 15 8 15.223 8 15.5V17.5C8 17.777 8.223 18 8.5 18H9.5C9.777 18 10 17.777 10 17.5V15.5C10 15.223 9.777 15 9.5 15H8.5Z" fill="url(#paint0_linear_9_3083)"/>
<defs>
<linearGradient id="paint0_linear_9_3083" x1="1" y1="12" x2="22" y2="12" gradientUnits="userSpaceOnUse">
<stop stop-color="#FDFC47"/>
<stop offset="1" stop-color="#24FE41"/>
</linearGradient>
</defs>
</svg>
