<svg width="24" height="24" viewBox="0 0 24 24" fill="none" xmlns="http://www.w3.org/2000/svg">
<path d="M12 6.93958C9.34883 6.93958 6.69763 7.76807 4.37793 9.42508L5.04072 10.0879C9.68032 7.06386 14.3815 7.01256 18.9597 10.0879L19.6225 9.42508C17.3027 7.76808 14.6511 6.93958 12 6.93958ZM12 10.0464C10.0116 10.0464 8.02323 10.7092 6.36623 12.0348L7.02903 12.6976C10.343 10.3778 13.6569 10.3571 16.9709 12.6976L17.6337 12.0348C15.9767 10.7092 13.9884 10.0464 12 10.0464ZM12 12.8633C10.6744 12.8633 9.34883 13.3604 8.35463 14.3546L12 18L15.6454 14.3546C14.6512 13.3604 13.3256 12.8633 12 12.8633Z" fill="url(#paint0_linear_9_3160)"/>
<defs>
<linearGradient id="paint0_linear_9_3160" x1="4.37793" y1="12.4698" x2="19.6225" y2="12.4698" gradientUnits="userSpaceOnUse">
<stop stop-color="#FDFC47"/>
<stop offset="1" stop-color="#24FE41"/>
</linearGradient>
</defs>
</svg>
