<svg width="24" height="24" viewBox="0 0 24 24" fill="none" xmlns="http://www.w3.org/2000/svg">
<path fill-rule="evenodd" clip-rule="evenodd" d="M11.9903 7C9.15367 7.00233 6.56517 8.009 4.51367 9.6582C4.47899 9.67836 4.44686 9.70262 4.41797 9.73047C4.36942 9.77693 4.33074 9.8327 4.30423 9.89444C4.27771 9.95619 4.26392 10.0226 4.26367 10.0898C4.26367 10.2225 4.31635 10.3496 4.41012 10.4434C4.50389 10.5372 4.63106 10.5898 4.76367 10.5898C4.87972 10.5902 4.99227 10.5501 5.08203 10.4766C6.31903 9.46997 7.77553 8.72607 9.36913 8.32817C9.52807 8.12083 9.70441 7.92445 9.90429 7.74809C10.2987 7.39968 10.6612 7.20641 11.1797 7.10161C11.4652 7.05103 11.7593 7.00027 11.9903 7ZM12 7C12.8518 7.00132 13.6787 7.28905 14.2812 7.85742C14.437 8.00273 14.5745 8.16637 14.6934 8.3418C16.2628 8.74358 17.697 9.483 18.918 10.4766C19.0077 10.5502 19.1203 10.5902 19.2363 10.5899C19.3689 10.5899 19.4961 10.5372 19.5899 10.4434C19.6836 10.3497 19.7363 10.2225 19.7363 10.0899C19.7361 10.0227 19.7223 9.95622 19.6958 9.89448C19.6692 9.83273 19.6306 9.77696 19.582 9.7305C19.5531 9.70266 19.521 9.6784 19.4863 9.65823C17.4324 8.00713 14.8404 7 12 7ZM12 10C11.9415 10 11.8845 10.0067 11.8262 10.0078C11.7919 10.0405 11.7293 10.115 11.6641 10.3105C11.4806 10.8623 10.8668 11.1418 10.3301 10.918L9.39651 10.5273C9.34604 10.5062 9.3107 10.4676 9.26566 10.4394C8.26056 10.7667 7.33025 11.2616 6.51175 11.8964C6.47491 11.9168 6.44079 11.9418 6.41019 11.9707C6.36106 12.0172 6.32187 12.0732 6.29501 12.1353C6.26816 12.1974 6.25418 12.2643 6.25394 12.332C6.25394 12.4646 6.30662 12.5918 6.40039 12.6856C6.49416 12.7793 6.62134 12.832 6.75394 12.832C6.87091 12.8322 6.98425 12.7915 7.07425 12.7168C8.26555 11.7797 9.72176 11.1663 11.3184 11.0293C11.4446 10.8923 11.5736 10.7555 11.7266 10.6152C11.9123 10.4432 12.041 10.3141 12.0801 10.2715L12.082 10.2695C12.0875 10.2636 12.1265 10.2176 12.1738 10.123C12.1764 10.1178 12.179 10.1126 12.1816 10.1074C12.2018 10.0687 12.1973 10.0668 12.1973 10.0605C12.1973 9.97702 12.1954 10.0034 12.1914 10.0078C12.1273 10.0064 12.0645 10 12 10ZM15.1484 10.584C15.0951 10.8348 15.0177 11.0802 14.9004 11.3086C14.8625 11.3823 14.8244 11.4441 14.7871 11.5117C15.5633 11.8048 16.284 12.2119 16.9258 12.7168C17.0158 12.7915 17.1292 12.8323 17.2461 12.832C17.3787 12.832 17.5059 12.7794 17.5997 12.6856C17.6934 12.5918 17.7461 12.4646 17.7461 12.332C17.7459 12.2644 17.7319 12.1975 17.7051 12.1354C17.6782 12.0732 17.639 12.0172 17.5899 11.9707C17.5593 11.9418 17.5252 11.9169 17.4883 11.8965C16.7833 11.3496 15.995 10.9067 15.1484 10.584ZM13.4941 13.2168V13.5293C13.4938 13.7609 13.413 13.9853 13.2656 14.1641C13.2725 14.1723 13.2765 14.1831 13.2832 14.1914C13.8773 14.3582 14.4313 14.6215 14.918 14.9785C15.0098 15.0624 15.1296 15.109 15.2539 15.1094C15.5301 15.1094 15.7539 14.8855 15.7539 14.6094C15.7539 14.4638 15.6963 14.3196 15.586 14.2246C14.9692 13.7598 14.2586 13.4222 13.4941 13.2168ZM10.4746 13.2246C9.72216 13.4313 9.02244 13.7661 8.41414 14.2246C8.3038 14.3196 8.24619 14.4638 8.24617 14.6094C8.24617 14.8855 8.47003 15.1094 8.74617 15.1094C8.87053 15.109 8.9903 15.0624 9.08211 14.9785C9.55177 14.634 10.0841 14.3774 10.6544 14.209C10.6686 14.1907 10.6749 14.1661 10.6896 14.1484C10.5505 13.972 10.4748 13.7539 10.4747 13.5293L10.4746 13.2246ZM13.2129 14.0351C13.216 14.0381 13.2158 14.0437 13.2188 14.0469C13.2219 14.0501 13.2275 14.0496 13.2305 14.0528L13.2129 14.0351ZM12.9532 16.6972C12.6633 16.8896 12.3093 17 11.9844 17C11.6668 17 11.326 16.8957 11.0411 16.7187C11.0141 16.81 11.0003 16.9047 11 17C11 17.2652 11.1054 17.5195 11.2929 17.7071C11.4805 17.8946 11.7348 18 12 18C12.1314 18 12.2614 17.9741 12.3827 17.9238C12.5041 17.8736 12.6143 17.7999 12.7072 17.7071C12.8 17.6142 12.8737 17.504 12.9239 17.3827C12.9742 17.2613 13 17.1313 13 17C13.0001 16.8973 12.9843 16.7951 12.9532 16.6972Z" fill="url(#paint0_linear_9_3162)"/>
<path opacity="0.35" d="M11.9949 8C12.6525 8 13.1871 8.19569 13.599 8.58594C14.0109 8.96896 14.2162 9.46008 14.2162 10.0599C14.2162 10.3201 14.1477 10.5842 14.0104 10.8516C13.8731 11.119 13.7517 11.3089 13.6433 11.4245C13.5421 11.5329 13.3963 11.6756 13.2084 11.849L13.1563 11.9037C12.7154 12.3012 12.4948 12.6963 12.4948 13.0938V13.5287H11.474V13.0183C11.474 12.6931 11.5424 12.4162 11.6797 12.1849C11.817 11.9465 12.0594 11.667 12.4063 11.349C12.6014 11.1683 12.7383 11.0347 12.8178 10.948C12.9045 10.854 12.9883 10.7293 13.0678 10.5704C13.1545 10.4041 13.198 10.2334 13.198 10.0599C13.198 9.72751 13.0892 9.4602 12.8724 9.25785C12.6629 9.0555 12.3706 8.95315 11.9948 8.95315C11.3733 8.95315 10.9474 9.30105 10.7162 9.99485L9.78394 9.60422C9.9357 9.1923 10.1966 8.82264 10.5652 8.49742C10.941 8.16499 11.4167 8 11.9949 8ZM11.9845 14.526C12.1941 14.526 12.368 14.5976 12.5053 14.7422C12.6498 14.8867 12.7215 15.0606 12.7215 15.263C12.7215 15.4653 12.6499 15.6393 12.5053 15.7838C12.368 15.9283 12.194 16 11.9845 16C11.7749 16 11.5978 15.9283 11.4532 15.7838C11.3159 15.6393 11.2475 15.4653 11.2475 15.263C11.2475 15.0606 11.3159 14.8867 11.4532 14.7422C11.5977 14.5976 11.7749 14.526 11.9845 14.526Z" fill="url(#paint1_linear_9_3162)"/>
<defs>
<linearGradient id="paint0_linear_9_3162" x1="4.26367" y1="12.5" x2="19.7363" y2="12.5" gradientUnits="userSpaceOnUse">
<stop stop-color="#FDFC47"/>
<stop offset="1" stop-color="#24FE41"/>
</linearGradient>
<linearGradient id="paint1_linear_9_3162" x1="9.78394" y1="12" x2="14.2162" y2="12" gradientUnits="userSpaceOnUse">
<stop stop-color="#FDFC47"/>
<stop offset="1" stop-color="#24FE41"/>
</linearGradient>
</defs>
</svg>
