<svg width="24" height="24" viewBox="0 0 24 24" fill="none" xmlns="http://www.w3.org/2000/svg">
<path d="M21 12C19.892 12 19 12.91 19 14.031V15H18.5C18.5 15 18 15 18 15.5V18.5C18 18.5 18 19 18.5 19H23.5C24 19 24 18.5 24 18.5V15.5C24 15 23.5 15 23.5 15H23V14.031C23 12.911 22.108 12 21 12ZM21 13C21.554 13 22 13.442 22 14V15H20V14C20 13.442 20.446 13 21 13Z" fill="url(#paint0_linear_9_3079)"/>
<path opacity="0.4" d="M20.5 6C20.223 6 20 6.223 20 6.5V11.19C20.314 11.075 20.648 11 21 11C21.353 11 21.686 11.075 22 11.19V6.5C22 6.223 21.777 6 21.5 6H20.5ZM16.5 9C16.223 9 16 9.223 16 9.5V17.5C16 17.777 16.223 18 16.5 18H17V15.5C17 14.917 17.44 14.35 17.803 14.168C17.906 14.117 17.909 14.146 18 14.121V9.5C18 9.223 17.777 9 17.5 9H16.5ZM1.469 10L1 11L4 14V18H5V14L8 11L7.625 10H1.469ZM2.375 11H4V12.625L2.375 11ZM5 11H6.625L5 12.625V11ZM12.5 12C12.223 12 12 12.223 12 12.5V17.5C12 17.777 12.223 18 12.5 18H13.5C13.777 18 14 17.777 14 17.5V12.5C14 12.223 13.777 12 13.5 12H12.5ZM8.5 15C8.223 15 8 15.223 8 15.5V17.5C8 17.777 8.223 18 8.5 18H9.5C9.777 18 10 17.777 10 17.5V15.5C10 15.223 9.777 15 9.5 15H8.5ZM20 16V17.5C20 17.777 20.223 18 20.5 18H21.5C21.777 18 22 17.777 22 17.5V16H20Z" fill="url(#paint1_linear_9_3079)"/>
<defs>
<linearGradient id="paint0_linear_9_3079" x1="18" y1="15.5" x2="24" y2="15.5" gradientUnits="userSpaceOnUse">
<stop stop-color="#FDFC47"/>
<stop offset="1" stop-color="#24FE41"/>
</linearGradient>
<linearGradient id="paint1_linear_9_3079" x1="1" y1="12" x2="22" y2="12" gradientUnits="userSpaceOnUse">
<stop stop-color="#FDFC47"/>
<stop offset="1" stop-color="#24FE41"/>
</linearGradient>
</defs>
</svg>
