<svg width="24" height="24" viewBox="0 0 24 24" fill="none" xmlns="http://www.w3.org/2000/svg">
<path d="M9 11C8.73478 11 8.48043 11.1054 8.29289 11.2929C8.10536 11.4804 8 11.7348 8 12C8 12.2652 8.10536 12.5196 8.29289 12.7071C8.48043 12.8946 8.73478 13 9 13C9.26522 13 9.51957 12.8946 9.70711 12.7071C9.89464 12.5196 10 12.2652 10 12C10 11.7348 9.89464 11.4804 9.70711 11.2929C9.51957 11.1054 9.26522 11 9 11ZM12 11C11.7348 11 11.4804 11.1054 11.2929 11.2929C11.1054 11.4804 11 11.7348 11 12C11 12.2652 11.1054 12.5196 11.2929 12.7071C11.4804 12.8946 11.7348 13 12 13C12.2652 13 12.5196 12.8946 12.7071 12.7071C12.8946 12.5196 13 12.2652 13 12C13 11.7348 12.8946 11.4804 12.7071 11.2929C12.5196 11.1054 12.2652 11 12 11ZM15 11C14.7348 11 14.4804 11.1054 14.2929 11.2929C14.1054 11.4804 14 11.7348 14 12C14 12.2652 14.1054 12.5196 14.2929 12.7071C14.4804 12.8946 14.7348 13 15 13C15.2652 13 15.5196 12.8946 15.7071 12.7071C15.8946 12.5196 16 12.2652 16 12C16 11.7348 15.8946 11.4804 15.7071 11.2929C15.5196 11.1054 15.2652 11 15 11Z" fill="url(#paint0_linear_9_3127)"/>
<path fill-rule="evenodd" clip-rule="evenodd" d="M12 9C11.1265 9 10.3949 9.55834 10.1211 10.3359C10.2617 10.4267 10.3917 10.5287 10.498 10.6484C10.4995 10.6501 10.4985 10.6526 10.5 10.6543C10.5015 10.6526 10.5005 10.6501 10.5021 10.6484C10.852 10.2547 11.4168 9.99996 12 9.99996C12.5833 9.99996 13.1481 10.2547 13.498 10.6484C13.4995 10.6501 13.4985 10.6526 13.5 10.6543C13.5015 10.6526 13.5005 10.6501 13.502 10.6484C13.6083 10.5287 13.7383 10.4267 13.8789 10.3359C13.605 9.5583 12.8735 9 12 9ZM10.5 13.3457C10.4985 13.3474 10.4995 13.3499 10.498 13.3516C10.1481 13.7452 9.58334 14 9 14C9 14.554 9.446 15 10 15H14C14.554 15 15 14.554 15 14C14.4167 14 13.8519 13.7452 13.502 13.3516C13.5005 13.3499 13.5015 13.3474 13.5 13.3457C13.4985 13.3474 13.4995 13.3499 13.4981 13.3516C13.1482 13.7452 12.5834 14 12.0001 14C11.4168 14 10.852 13.7452 10.5021 13.3516C10.5006 13.3499 10.5015 13.3474 10.5 13.3457Z" fill="url(#paint1_linear_9_3127)"/>
<path d="M6.00205 7C5.65439 6.99908 5.33119 7.17879 5.14853 7.47461L2.25403 11.3359C2.09136 11.5182 2.00104 11.7537 2.00012 11.998C1.99997 12.2175 2.07203 12.431 2.2052 12.6054C2.21467 12.618 2.22444 12.6304 2.2345 12.6426L5.172 16.5606C5.35764 16.8348 5.667 16.9994 5.99817 17C6.55046 17.0011 6.99907 16.5542 7.00017 16.002C7.00003 15.7874 6.93087 15.5785 6.8029 15.4063L6.80485 15.4043L4.25405 12.002L6.80485 8.59965L6.80094 8.5977C6.9296 8.4257 6.99945 8.21684 7.00017 8.00204C7.00125 7.44975 6.55434 7.0011 6.00205 7Z" fill="url(#paint2_linear_9_3127)"/>
<path d="M17.9981 6.99998C17.4458 7.00106 16.9989 7.44965 17 8.00198C17.0007 8.21679 17.0706 8.42567 17.1992 8.59768L17.1953 8.59963L19.7461 12.0019L17.1953 15.4042L17.1973 15.4062C17.0693 15.5785 17.0002 15.7873 17 16.0019C17.0011 16.5542 17.4497 17.001 18.002 16.9999C18.3332 16.9993 18.6425 16.8347 18.8282 16.5605L21.7657 12.6425C21.7757 12.6304 21.7855 12.618 21.795 12.6054C21.9281 12.4309 22.0002 12.2175 22.0001 11.998C21.9991 11.7537 21.9088 11.5181 21.7461 11.3359L18.8516 7.47455C18.669 7.17873 18.3457 6.99906 17.9981 6.99998Z" fill="url(#paint3_linear_9_3127)"/>
<defs>
<linearGradient id="paint0_linear_9_3127" x1="8" y1="12" x2="16" y2="12" gradientUnits="userSpaceOnUse">
<stop stop-color="#FDFC47"/>
<stop offset="1" stop-color="#24FE41"/>
</linearGradient>
<linearGradient id="paint1_linear_9_3127" x1="9" y1="12" x2="15" y2="12" gradientUnits="userSpaceOnUse">
<stop stop-color="#FDFC47"/>
<stop offset="1" stop-color="#24FE41"/>
</linearGradient>
<linearGradient id="paint2_linear_9_3127" x1="2.00012" y1="12" x2="7.00017" y2="12" gradientUnits="userSpaceOnUse">
<stop stop-color="#FDFC47"/>
<stop offset="1" stop-color="#24FE41"/>
</linearGradient>
<linearGradient id="paint3_linear_9_3127" x1="17" y1="11.9999" x2="22.0001" y2="11.9999" gradientUnits="userSpaceOnUse">
<stop stop-color="#FDFC47"/>
<stop offset="1" stop-color="#24FE41"/>
</linearGradient>
</defs>
</svg>
