<svg width="24" height="24" viewBox="0 0 24 24" fill="none" xmlns="http://www.w3.org/2000/svg">
<path opacity="0.5" d="M6.35156 4.73633L5.41211 5.67773L18.9551 19.2207L19.8945 18.2793L18.4883 16.873C18.6244 16.7968 18.7408 16.6898 18.8281 16.5605L21.7656 12.6426C21.7757 12.6304 21.7855 12.6181 21.7949 12.6055C21.9281 12.431 22.0002 12.2175 22 11.998C21.9991 11.7537 21.9088 11.5182 21.7461 11.3359L18.8516 7.47461C18.7617 7.32913 18.6361 7.20912 18.4867 7.12603C18.3373 7.04294 18.169 6.99955 17.998 7C17.8667 7.00026 17.7367 7.02638 17.6155 7.07687C17.4943 7.12736 17.3842 7.20123 17.2915 7.29427C17.1988 7.38731 17.1254 7.4977 17.0754 7.61912C17.0254 7.74054 16.9997 7.87063 17 8.00195C17.0007 8.21676 17.0706 8.42564 17.1992 8.59766L17.1953 8.59961L19.7461 12.002L17.1953 15.4043L17.1973 15.4062C17.1722 15.4406 17.1494 15.4764 17.1289 15.5137L14.4473 12.832C14.611 12.9412 14.8032 12.9996 15 13C15.2652 13 15.5196 12.8946 15.7071 12.7071C15.8946 12.5196 16 12.2652 16 12C16 11.7348 15.8946 11.4804 15.7071 11.2929C15.5196 11.1054 15.2652 11 15 11C14.8192 11.0004 14.6418 11.0497 14.4868 11.1429C14.3318 11.2361 14.205 11.3695 14.1198 11.529C14.0347 11.6885 13.9944 11.8682 14.0032 12.0488C14.012 12.2294 14.0696 12.4042 14.1699 12.5547L6.35156 4.73633ZM5.52344 7.11914C5.36946 7.20273 5.24014 7.32531 5.14844 7.47461L2.25391 11.3359C2.09123 11.5182 2.00091 11.7537 2 11.998C1.99984 12.2175 2.07191 12.431 2.20508 12.6055C2.21455 12.6181 2.22432 12.6304 2.23438 12.6426L5.17188 16.5605C5.2633 16.6956 5.38638 16.8063 5.53039 16.8829C5.67439 16.9595 5.83494 16.9997 5.99805 17C6.12937 17.0003 6.25946 16.9746 6.38088 16.9246C6.5023 16.8746 6.61269 16.8012 6.70573 16.7085C6.79877 16.6158 6.87264 16.5057 6.92313 16.3845C6.97362 16.2633 6.99974 16.1333 7 16.002C6.99986 15.7874 6.9307 15.5785 6.80273 15.4062L6.80469 15.4043L4.25391 12.002L6.80469 8.59961L6.80078 8.59766C6.82978 8.5586 6.85589 8.51747 6.87891 8.47461L5.52344 7.11914ZM9 11C8.73478 11 8.48043 11.1054 8.29289 11.2929C8.10536 11.4804 8 11.7348 8 12C8 12.2652 8.10536 12.5196 8.29289 12.7071C8.48043 12.8946 8.73478 13 9 13C9.18847 12.9997 9.37301 12.9461 9.53235 12.8454C9.69169 12.7448 9.81934 12.6012 9.90059 12.4311C9.98184 12.2611 10.0134 12.0715 9.99157 11.8843C9.96977 11.6971 9.8955 11.5199 9.77734 11.373L9.62695 11.2227C9.44951 11.0791 9.22827 11.0005 9 11Z" fill="url(#paint0_linear_9_3144)"/>
<defs>
<linearGradient id="paint0_linear_9_3144" x1="2" y1="11.9785" x2="22" y2="11.9785" gradientUnits="userSpaceOnUse">
<stop stop-color="#FDFC47"/>
<stop offset="1" stop-color="#24FE41"/>
</linearGradient>
</defs>
</svg>
