<svg width="24" height="24" viewBox="0 0 24 24" fill="none" xmlns="http://www.w3.org/2000/svg">
<path d="M6.00205 6.99998C5.65439 6.99906 5.33119 7.17877 5.14853 7.47459L2.25403 11.3359C2.09136 11.5182 2.00104 11.7537 2.00012 11.998C1.99997 12.2175 2.07203 12.4309 2.2052 12.6054C2.21467 12.618 2.22444 12.6304 2.2345 12.6425L5.172 16.5605C5.35764 16.8348 5.667 16.9993 5.99817 17C6.55046 17.0011 6.99907 16.5542 7.00017 16.0019C7.00003 15.7873 6.93087 15.5785 6.8029 15.4062L6.80485 15.4042L4.25405 12.0019L6.80485 8.59963L6.80094 8.59768C6.9296 8.42568 6.99945 8.21682 7.00017 8.00202C7.00125 7.44973 6.55434 7.00108 6.00205 6.99998ZM17.9981 6.99998C17.4458 7.00106 16.9989 7.44965 17 8.00198C17.0007 8.21679 17.0706 8.42567 17.1992 8.59768L17.1953 8.59963L19.7461 12.0019L17.1953 15.4042L17.1973 15.4062C17.0693 15.5785 17.0002 15.7873 17 16.0019C17.0011 16.5542 17.4497 17.001 18.002 16.9999C18.3332 16.9993 18.6425 16.8347 18.8282 16.5605L21.7657 12.6425C21.7757 12.6304 21.7855 12.618 21.795 12.6054C21.9281 12.4309 22.0002 12.2175 22.0001 11.998C21.9991 11.7537 21.9088 11.5181 21.7461 11.3359L18.8516 7.47455C18.669 7.17873 18.3457 6.99906 17.9981 6.99998Z" fill="url(#paint0_linear_9_3138)"/>
<path opacity="0.5" d="M8.99997 11C7.66667 11 7.66667 13 8.99997 13C10.3333 13 10.3333 11 8.99997 11ZM12 11C10.6667 11 10.6667 13 12 13C13.3333 13 13.3333 11 12 11ZM15 11C13.6667 11 13.6667 13 15 13C16.3333 13 16.3333 11 15 11Z" fill="url(#paint1_linear_9_3138)"/>
<defs>
<linearGradient id="paint0_linear_9_3138" x1="2.00012" y1="12" x2="22.0001" y2="12" gradientUnits="userSpaceOnUse">
<stop stop-color="#FDFC47"/>
<stop offset="1" stop-color="#24FE41"/>
</linearGradient>
<linearGradient id="paint1_linear_9_3138" x1="8" y1="12" x2="15.9999" y2="12" gradientUnits="userSpaceOnUse">
<stop stop-color="#FDFC47"/>
<stop offset="1" stop-color="#24FE41"/>
</linearGradient>
</defs>
</svg>
