<svg width="24" height="24" viewBox="0 0 24 24" fill="none" xmlns="http://www.w3.org/2000/svg">
<path d="M11.995 8C12.6526 8 13.1872 8.19569 13.5991 8.58594C14.011 8.96896 14.2163 9.46008 14.2163 10.0599C14.2163 10.3201 14.1479 10.5842 14.0106 10.8516C13.8733 11.119 13.7518 11.3089 13.6434 11.4245C13.5422 11.5329 13.3964 11.6756 13.2085 11.849L13.1564 11.9037C12.7156 12.3012 12.4949 12.6963 12.4949 13.0938V13.5287H11.4741V13.0183C11.4741 12.6931 11.5425 12.4162 11.6799 12.1849C11.8172 11.9465 12.0595 11.667 12.4064 11.349C12.6015 11.1683 12.7384 11.0347 12.8179 10.948C12.9046 10.854 12.9884 10.7294 13.0679 10.5704C13.1546 10.4042 13.1981 10.2334 13.1981 10.0599C13.1981 9.72751 13.0894 9.4602 12.8726 9.25785C12.663 9.0555 12.3707 8.95315 11.995 8.95315C11.3735 8.95315 10.9476 9.30105 10.7164 9.99485L9.78406 9.60422C9.93582 9.1923 10.1967 8.82264 10.5653 8.49742C10.9411 8.16499 11.4169 8 11.995 8ZM11.9846 14.526C12.1942 14.526 12.3681 14.5976 12.5054 14.7422C12.65 14.8867 12.7216 15.0606 12.7216 15.263C12.7216 15.4653 12.65 15.6393 12.5054 15.7838C12.3681 15.9283 12.1942 16 11.9846 16C11.775 16 11.5979 15.9283 11.4533 15.7838C11.316 15.6393 11.2476 15.4653 11.2476 15.263C11.2476 15.0606 11.316 14.8867 11.4533 14.7422C11.5979 14.5976 11.775 14.526 11.9846 14.526Z" fill="url(#paint0_linear_9_3141)"/>
<path d="M6.00205 6.99998C5.65439 6.99906 5.33119 7.17877 5.14853 7.47459L2.25403 11.3359C2.09136 11.5182 2.00104 11.7537 2.00012 11.998C1.99997 12.2175 2.07203 12.4309 2.2052 12.6054C2.21467 12.618 2.22444 12.6304 2.2345 12.6425L5.172 16.5605C5.35764 16.8348 5.667 16.9993 5.99817 17C6.55046 17.0011 6.99907 16.5542 7.00017 16.0019C7.00003 15.7873 6.93087 15.5785 6.8029 15.4062L6.80485 15.4042L4.25405 12.0019L6.80485 8.59963L6.80094 8.59768C6.9296 8.42568 6.99945 8.21682 7.00017 8.00202C7.00125 7.44973 6.55434 7.00108 6.00205 6.99998ZM17.9981 6.99998C17.4458 7.00106 16.9989 7.44965 17 8.00198C17.0007 8.21679 17.0706 8.42567 17.1992 8.59768L17.1953 8.59963L19.7461 12.0019L17.1953 15.4042L17.1973 15.4062C17.0693 15.5785 17.0002 15.7873 17 16.0019C17.0011 16.5542 17.4497 17.001 18.002 16.9999C18.3332 16.9993 18.6425 16.8347 18.8282 16.5605L21.7657 12.6425C21.7757 12.6304 21.7855 12.618 21.795 12.6054C21.9281 12.4309 22.0002 12.2175 22.0001 11.998C21.9991 11.7537 21.9088 11.5181 21.7461 11.3359L18.8516 7.47455C18.669 7.17873 18.3457 6.99906 17.9981 6.99998Z" fill="url(#paint1_linear_9_3141)"/>
<defs>
<linearGradient id="paint0_linear_9_3141" x1="9.78406" y1="12" x2="14.2163" y2="12" gradientUnits="userSpaceOnUse">
<stop stop-color="#FDFC47"/>
<stop offset="1" stop-color="#24FE41"/>
</linearGradient>
<linearGradient id="paint1_linear_9_3141" x1="2.00012" y1="12" x2="22.0001" y2="12" gradientUnits="userSpaceOnUse">
<stop stop-color="#FDFC47"/>
<stop offset="1" stop-color="#24FE41"/>
</linearGradient>
</defs>
</svg>
