<svg width="24" height="24" viewBox="0 0 24 24" fill="none" xmlns="http://www.w3.org/2000/svg">
<path d="M17.5 4C17.223 4 17 4.223 17 4.5V18.5C17 18.777 17.223 19 17.5 19H18.5C18.777 19 19 18.777 19 18.5V4.5C19 4.223 18.777 4 18.5 4H17.5ZM14.5 7C14.223 7 14 7.223 14 7.5V18.5C14 18.777 14.223 19 14.5 19H15.5C15.777 19 16 18.777 16 18.5V7.5C16 7.223 15.777 7 15.5 7H14.5ZM11.5 10C11.223 10 11 10.223 11 10.5V18.5C11 18.777 11.223 19 11.5 19H12.5C12.777 19 13 18.777 13 18.5V10.5C13 10.223 12.777 10 12.5 10H11.5ZM8.5 13C8.223 13 8 13.223 8 13.5V18.5C8 18.777 8.223 19 8.5 19H9.5C9.777 19 10 18.777 10 18.5V13.5C10 13.223 9.777 13 9.5 13H8.5ZM5.5 16C5.223 16 5 16.223 5 16.5V18.5C5 18.777 5.223 19 5.5 19H6.5C6.777 19 7 18.777 7 18.5V16.5C7 16.223 6.777 16 6.5 16H5.5Z" fill="url(#paint0_linear_9_3061)"/>
<defs>
<linearGradient id="paint0_linear_9_3061" x1="5" y1="11.5" x2="19" y2="11.5" gradientUnits="userSpaceOnUse">
<stop stop-color="#FDFC47"/>
<stop offset="1" stop-color="#24FE41"/>
</linearGradient>
</defs>
</svg>
