<svg width="24" height="24" viewBox="0 0 24 24" fill="none" xmlns="http://www.w3.org/2000/svg">
<path d="M9 11C8.73478 11 8.48043 11.1054 8.29289 11.2929C8.10536 11.4804 8 11.7348 8 12C8 12.2652 8.10536 12.5196 8.29289 12.7071C8.48043 12.8946 8.73478 13 9 13C9.26522 13 9.51957 12.8946 9.70711 12.7071C9.89464 12.5196 10 12.2652 10 12C10 11.7348 9.89464 11.4804 9.70711 11.2929C9.51957 11.1054 9.26522 11 9 11ZM12 11C11.7348 11 11.4804 11.1054 11.2929 11.2929C11.1054 11.4804 11 11.7348 11 12C11 12.2652 11.1054 12.5196 11.2929 12.7071C11.4804 12.8946 11.7348 13 12 13C12.2652 13 12.5196 12.8946 12.7071 12.7071C12.8946 12.5196 13 12.2652 13 12C13 11.7348 12.8946 11.4804 12.7071 11.2929C12.5196 11.1054 12.2652 11 12 11ZM15 11C14.7348 11 14.4804 11.1054 14.2929 11.2929C14.1054 11.4804 14 11.7348 14 12C14 12.2652 14.1054 12.5196 14.2929 12.7071C14.4804 12.8946 14.7348 13 15 13C15.2652 13 15.5196 12.8946 15.7071 12.7071C15.8946 12.5196 16 12.2652 16 12C16 11.7348 15.8946 11.4804 15.7071 11.2929C15.5196 11.1054 15.2652 11 15 11Z" fill="url(#paint0_linear_9_3135)"/>
<path opacity="0.35" d="M6.00195 7C5.83098 6.99955 5.66274 7.04294 5.51332 7.12603C5.36389 7.20912 5.23827 7.32914 5.14844 7.47461L2.25391 11.3359C2.09123 11.5182 2.00091 11.7537 2 11.9981C1.99984 12.2175 2.07191 12.431 2.20508 12.6055C2.21455 12.6181 2.22432 12.6304 2.23438 12.6426L5.17188 16.5606C5.2633 16.6956 5.38638 16.8063 5.53039 16.8829C5.67439 16.9595 5.83494 16.9997 5.99805 17C6.12937 17.0003 6.25946 16.9746 6.38088 16.9246C6.5023 16.8746 6.61269 16.8012 6.70573 16.7085C6.79877 16.6158 6.87264 16.5057 6.92313 16.3845C6.97362 16.2633 6.99974 16.1333 7 16.002C6.99986 15.7874 6.9307 15.5785 6.80273 15.4063L6.80469 15.4043L4.25391 12.002L6.80469 8.59961L6.80078 8.59766C6.92945 8.42564 6.9993 8.21677 7 8.00196C7.00026 7.87063 6.97465 7.74055 6.92463 7.61912C6.87461 7.4977 6.80117 7.38732 6.70849 7.29428C6.61581 7.20124 6.50572 7.12736 6.38449 7.07687C6.26326 7.02638 6.13328 7.00026 6.00195 7ZM17.998 7C17.8667 7.00026 17.7367 7.02638 17.6155 7.07687C17.4943 7.12736 17.3842 7.20124 17.2915 7.29428C17.1988 7.38732 17.1254 7.4977 17.0754 7.61912C17.0254 7.74055 16.9997 7.87063 17 8.00196C17.0007 8.21677 17.0706 8.42564 17.1992 8.59766L17.1953 8.59961L19.7461 12.002L17.1953 15.4043L17.1973 15.4063C17.0693 15.5785 17.0001 15.7874 17 16.002C17.0003 16.1333 17.0264 16.2633 17.0769 16.3845C17.1274 16.5057 17.2012 16.6158 17.2943 16.7085C17.3873 16.8012 17.4977 16.8746 17.6191 16.9246C17.7405 16.9746 17.8706 17.0003 18.002 17C18.1651 16.9997 18.3256 16.9595 18.4696 16.8829C18.6136 16.8063 18.7367 16.6956 18.8281 16.5606L21.7656 12.6426C21.7757 12.6304 21.7855 12.6181 21.7949 12.6055C21.9281 12.431 22.0002 12.2175 22 11.9981C21.9991 11.7537 21.9088 11.5182 21.7461 11.3359L18.8516 7.47461C18.7617 7.32914 18.6361 7.20912 18.4867 7.12603C18.3373 7.04294 18.169 6.99955 17.998 7Z" fill="url(#paint1_linear_9_3135)"/>
<defs>
<linearGradient id="paint0_linear_9_3135" x1="8" y1="12" x2="16" y2="12" gradientUnits="userSpaceOnUse">
<stop stop-color="#FDFC47"/>
<stop offset="1" stop-color="#24FE41"/>
</linearGradient>
<linearGradient id="paint1_linear_9_3135" x1="2" y1="12" x2="22" y2="12" gradientUnits="userSpaceOnUse">
<stop stop-color="#FDFC47"/>
<stop offset="1" stop-color="#24FE41"/>
</linearGradient>
</defs>
</svg>
