<svg width="24" height="24" viewBox="0 0 24 24" fill="none" xmlns="http://www.w3.org/2000/svg">
<path d="M11.25 3C11.1119 3 11 3.11193 11 3.25V4.75C11 4.889 11.112 5 11.25 5H11.75C11.8881 5 12 4.88807 12 4.75V3.25C12 3.11193 11.8881 3 11.75 3H11.25ZM17.8613 5.53125C17.8528 5.53147 17.8444 5.53212 17.8359 5.5332C17.7797 5.53978 17.7274 5.56526 17.6875 5.60547L16.627 6.66601C16.5287 6.7643 16.5294 6.92195 16.627 7.01953L16.9805 7.37304C17.0781 7.47065 17.2364 7.47065 17.334 7.37304L18.3945 6.3125C18.4921 6.21487 18.4921 6.05661 18.3945 5.95898L18.041 5.60547C17.9936 5.5575 17.9288 5.53073 17.8613 5.53125ZM11.5 7C8.46529 7 6 9.46529 6 12.5C6 15.5347 8.46529 18 11.5 18C14.5347 18 17 15.5347 17 12.5C17 9.46529 14.5347 7 11.5 7ZM11.4004 8.0625H11.4024C11.4304 8.06224 11.4584 8.06224 11.4864 8.0625H11.4923C10.5563 8.76176 10.0041 9.86093 10.002 11.0293C10.0002 13.0802 11.6621 14.7438 13.713 14.7441C14.3772 14.7422 15.0288 14.5622 15.5997 14.2227C14.2431 17.4919 9.79937 17.9488 7.80578 15.0242C5.81211 12.0997 7.8615 8.13039 11.4004 8.0625ZM2.25 12C2.11193 12 2 12.1119 2 12.25V12.75C2 12.889 2.112 13 2.25 13H3.75C3.88807 13 4 12.8881 4 12.75V12.25C4 12.1119 3.88807 12 3.75 12H2.25ZM19.25 12C19.1119 12 19 12.1119 19 12.25V12.75C19 12.889 19.112 13 19.25 13H20.75C20.8881 13 21 12.8881 21 12.75V12.25C21 12.1119 20.8881 12 20.75 12H19.25ZM5.83984 17.5527C5.77442 17.5537 5.71201 17.5804 5.66602 17.627L4.60547 18.6875C4.50718 18.7858 4.50789 18.9434 4.60547 19.041L4.95898 19.3945C5.05661 19.4921 5.21487 19.4921 5.3125 19.3945L6.37305 18.334C6.47065 18.2364 6.47065 18.0781 6.37305 17.9805L6.01953 17.627C5.9721 17.579 5.9073 17.5522 5.83984 17.5527ZM17.1523 17.5527C17.0876 17.5542 17.026 17.5809 16.9805 17.627L16.627 17.9805C16.5287 18.0788 16.5294 18.2364 16.627 18.334L17.6875 19.3945C17.7851 19.4921 17.9434 19.4921 18.041 19.3945L18.3945 19.041C18.4921 18.9434 18.4921 18.7851 18.3945 18.6875L17.334 17.627C17.2861 17.5785 17.2205 17.5517 17.1523 17.5527ZM11.25 20C11.1119 20 11 20.1119 11 20.25V21.75C11 21.889 11.112 22 11.25 22H11.75C11.8881 22 12 21.8881 12 21.75V20.25C12 20.1119 11.8881 20 11.75 20H11.25Z" fill="url(#paint0_linear_9_3175)"/>
<path d="M5.35352 5.23633L4.41211 6.17773L5.76172 7.52734L6.70312 6.58594L5.35352 5.23633Z" fill="url(#paint1_linear_9_3175)"/>
<defs>
<linearGradient id="paint0_linear_9_3175" x1="2" y1="12.5" x2="21" y2="12.5" gradientUnits="userSpaceOnUse">
<stop stop-color="#FDFC47"/>
<stop offset="1" stop-color="#24FE41"/>
</linearGradient>
<linearGradient id="paint1_linear_9_3175" x1="4.41211" y1="6.38184" x2="6.70312" y2="6.38184" gradientUnits="userSpaceOnUse">
<stop stop-color="#FDFC47"/>
<stop offset="1" stop-color="#24FE41"/>
</linearGradient>
</defs>
</svg>
