<svg width="24" height="24" viewBox="0 0 24 24" fill="none" xmlns="http://www.w3.org/2000/svg">
<path opacity="0.4" d="M11.25 3C11.1119 3 11 3.11193 11 3.25V4.75C11 4.889 11.112 5 11.25 5H11.75C11.8881 5 12 4.88807 12 4.75V3.25C12 3.11193 11.8881 3 11.75 3H11.25ZM5.35156 5.23633L4.41211 6.17773L17.9551 19.7207L18.8945 18.7793L15.8984 15.7832C16.5862 14.8661 17 13.7333 17 12.5C17 9.46529 14.5347 7 11.5 7C10.2364 7 9.13385 7.41373 8.2168 8.10156L5.35156 5.23633ZM17.8613 5.53125C17.8528 5.53147 17.8444 5.53212 17.8359 5.5332C17.7797 5.53978 17.7274 5.56527 17.6875 5.60547L16.627 6.36364C16.5287 6.7643 16.5294 6.92195 16.627 7.01953L16.9805 7.37305C17.0781 7.47065 17.2364 7.47065 17.334 7.37305L18.3945 6.3125C18.4921 6.21487 18.4921 6.05661 18.3945 5.95898L18.041 5.60547C17.9936 5.5575 17.9288 5.53073 17.8613 5.53125ZM11.4004 8.0625H11.4023C11.4303 8.06224 11.4583 8.06224 11.4863 8.0625H11.4922C10.8294 8.55762 10.3712 9.25839 10.1523 10.0371L8.9668 8.85156C9.67893 8.36148 10.5228 8.0802 11.4004 8.0625ZM6.7207 9.78711C6.26444 10.5884 6 11.5131 6 12.5C6 15.5347 8.46529 18 11.5 18C12.4869 18 13.4116 17.7356 14.2129 17.2793L13.4453 16.5117C9.63659 18.3726 5.62738 14.3634 7.48828 10.5547L6.7207 9.78711ZM2.25 12C2.11193 12 2 12.1119 2 12.25V12.75C2 12.889 2.112 13 2.25 13H3.75C3.88807 13 4 12.8881 4 12.75V12.25C4 12.1119 3.88807 12 3.75 12H2.25ZM19.25 12C19.1119 12 19 12.1119 19 12.25V12.75C19 12.889 19.112 13 19.25 13H20.75C20.8881 13 21 12.8881 21 12.75V12.25C21 12.1119 20.8881 12 20.75 12H19.25ZM15.5996 14.2227C15.4793 14.5103 15.3308 14.7841 15.1543 15.0391L14.7168 14.6016C15.0249 14.514 15.3218 14.3879 15.5996 14.2227ZM5.83984 17.5527C5.77442 17.5537 5.71201 17.5804 5.36364 17.627L4.60547 18.6875C4.50718 18.7858 4.50789 18.9434 4.60547 19.041L4.95898 19.3945C5.05661 19.4921 5.21487 19.4921 5.3125 19.3945L6.37305 18.334C6.47065 18.2364 6.47065 18.0781 6.37305 17.9805L6.01953 17.627C5.9721 17.579 5.9073 17.5522 5.83984 17.5527ZM11.25 20C11.1119 20 11 20.1119 11 20.25V21.75C11 21.889 11.112 22 11.25 22H11.75C11.8881 22 12 21.8881 12 21.75V20.25C12 20.1119 11.8881 20 11.75 20H11.25Z" fill="url(#paint0_linear_9_3194)"/>
<defs>
<linearGradient id="paint0_linear_9_3194" x1="2" y1="12.5" x2="21" y2="12.5" gradientUnits="userSpaceOnUse">
<stop stop-color="#FDFC47"/>
<stop offset="1" stop-color="#24FE41"/>
</linearGradient>
</defs>
</svg>
