<svg width="24" height="24" viewBox="0 0 24 24" fill="none" xmlns="http://www.w3.org/2000/svg">
<path opacity="0.35" fill-rule="evenodd" clip-rule="evenodd" d="M11.9999 6.5C9.15935 6.5 6.56745 7.5071 4.51355 9.1582C4.47887 9.17836 4.44674 9.20262 4.41785 9.23047C4.3693 9.27693 4.33061 9.3327 4.3041 9.39444C4.27759 9.45619 4.2638 9.52265 4.26355 9.58985C4.26355 9.72245 4.31623 9.84963 4.41 9.9434C4.50376 10.0372 4.63094 10.0898 4.76355 10.0898C4.8796 10.0902 4.99215 10.0501 5.08191 9.97657C6.97291 8.43777 9.37171 7.49997 11.9999 7.49997C14.6281 7.49997 17.0268 8.43773 18.9179 9.97657C19.0077 10.0501 19.1202 10.0902 19.2363 10.0898C19.3689 10.0898 19.4961 10.0372 19.5898 9.9434C19.6836 9.84963 19.7363 9.72245 19.7363 9.58985C19.736 9.52265 19.7222 9.45619 19.6957 9.39444C19.6692 9.3327 19.6305 9.27693 19.582 9.23047C19.5531 9.20263 19.521 9.17836 19.4863 9.1582C17.4324 7.5071 14.8403 6.5 11.9999 6.5Z" fill="url(#paint0_linear_9_3247)"/>
<path d="M11.9998 12.5C10.6473 12.5 9.41664 12.9689 8.41394 13.7246C8.3036 13.8196 8.24599 13.9638 8.24597 14.1094C8.24597 14.3855 8.46983 14.6094 8.74597 14.6094C8.87033 14.609 8.9901 14.5624 9.08191 14.4785C9.90406 13.8754 10.9018 13.5 11.9999 13.5C13.098 13.5 14.0957 13.8754 14.9179 14.4785C15.0097 14.5624 15.1295 14.609 15.2539 14.6094C15.53 14.6094 15.7539 14.3855 15.7539 14.1094C15.7538 13.9638 15.6962 13.8196 15.5859 13.7246C14.5832 12.9689 13.3523 12.5 11.9998 12.5Z" fill="url(#paint1_linear_9_3247)"/>
<path fill-rule="evenodd" clip-rule="evenodd" d="M11.9999 9.5C9.92679 9.5 8.03179 10.2173 6.51159 11.3965C6.47475 11.4169 6.44063 11.4418 6.41003 11.4707C6.36089 11.5172 6.32171 11.5733 6.29485 11.6354C6.26799 11.6975 6.25402 11.7644 6.25378 11.832C6.25378 11.9647 6.30646 12.0918 6.40023 12.1856C6.494 12.2794 6.62118 12.332 6.75378 12.332C6.87075 12.3323 6.98409 12.2915 7.07409 12.2168C8.43289 11.148 10.1368 10.5 11.9999 10.5C13.863 10.5 15.5669 11.148 16.9257 12.2168C17.0157 12.2915 17.129 12.3323 17.246 12.332C17.3786 12.332 17.5058 12.2794 17.5996 12.1856C17.6933 12.0918 17.746 11.9647 17.746 11.832C17.7458 11.7644 17.7318 11.6975 17.7049 11.6354C17.6781 11.5733 17.6389 11.5172 17.5898 11.4707C17.5592 11.4418 17.525 11.4169 17.4882 11.3965C15.968 10.2173 14.073 9.5 11.9999 9.5Z" fill="url(#paint2_linear_9_3247)"/>
<path d="M11.9999 17.5C12.5522 17.5 12.9999 17.0523 12.9999 16.5C12.9999 15.9477 12.5522 15.5 11.9999 15.5C11.4476 15.5 10.9999 15.9477 10.9999 16.5C10.9999 17.0523 11.4476 17.5 11.9999 17.5Z" fill="url(#paint3_linear_9_3247)"/>
<defs>
<linearGradient id="paint0_linear_9_3247" x1="4.26355" y1="8.29492" x2="19.7363" y2="8.29492" gradientUnits="userSpaceOnUse">
<stop stop-color="#FDFC47"/>
<stop offset="1" stop-color="#24FE41"/>
</linearGradient>
<linearGradient id="paint1_linear_9_3247" x1="8.24597" y1="13.5547" x2="15.7539" y2="13.5547" gradientUnits="userSpaceOnUse">
<stop stop-color="#FDFC47"/>
<stop offset="1" stop-color="#24FE41"/>
</linearGradient>
<linearGradient id="paint2_linear_9_3247" x1="6.25378" y1="10.916" x2="17.746" y2="10.916" gradientUnits="userSpaceOnUse">
<stop stop-color="#FDFC47"/>
<stop offset="1" stop-color="#24FE41"/>
</linearGradient>
<linearGradient id="paint3_linear_9_3247" x1="10.9999" y1="16.5" x2="12.9999" y2="16.5" gradientUnits="userSpaceOnUse">
<stop stop-color="#FDFC47"/>
<stop offset="1" stop-color="#24FE41"/>
</linearGradient>
</defs>
</svg>
