<svg width="24" height="24" viewBox="0 0 24 24" fill="none" xmlns="http://www.w3.org/2000/svg">
<path opacity="0.25" fill-rule="evenodd" clip-rule="evenodd" d="M12 7C9.15947 7 6.56757 8.0071 4.51367 9.6582C4.47899 9.67836 4.44686 9.70262 4.41797 9.73047C4.36942 9.77693 4.33074 9.8327 4.30423 9.89444C4.27771 9.95619 4.26392 10.0226 4.26367 10.0898C4.26367 10.2225 4.31635 10.3496 4.41012 10.4434C4.50389 10.5372 4.63106 10.5898 4.76367 10.5898C4.87972 10.5902 4.99227 10.5501 5.08203 10.4766C6.97303 8.93777 9.37183 7.99997 12 7.99997C14.6282 7.99997 17.0269 8.93773 18.918 10.4766C19.0078 10.5501 19.1203 10.5902 19.2364 10.5898C19.369 10.5898 19.4962 10.5372 19.5899 10.4434C19.6837 10.3496 19.7364 10.2225 19.7364 10.0898C19.7361 10.0226 19.7224 9.95619 19.6958 9.89444C19.6693 9.8327 19.6306 9.77693 19.5821 9.73047C19.5532 9.70263 19.5211 9.67836 19.4864 9.6582C17.4325 8.0071 14.8404 7 12 7Z" fill="url(#paint0_linear_9_3233)"/>
<path d="M12 13C10.6475 13 9.41676 13.4689 8.41406 14.2246C8.30372 14.3196 8.24611 14.4638 8.24609 14.6094C8.24609 14.8855 8.46995 15.1094 8.74609 15.1094C8.87045 15.109 8.99022 15.0624 9.08203 14.9785C9.90418 14.3754 10.9019 14 12 14C13.0981 14 14.0958 14.3754 14.918 14.9785C15.0098 15.0624 15.1296 15.109 15.254 15.1094C15.5301 15.1094 15.754 14.8855 15.754 14.6094C15.754 14.4638 15.6964 14.3196 15.586 14.2246C14.5833 13.4689 13.3525 13 12 13Z" fill="url(#paint1_linear_9_3233)"/>
<path opacity="0.25" fill-rule="evenodd" clip-rule="evenodd" d="M12 10C9.92692 10 8.03192 10.7173 6.51172 11.8965C6.47487 11.9169 6.44075 11.9418 6.41016 11.9707C6.36102 12.0172 6.32183 12.0733 6.29497 12.1354C6.26812 12.1975 6.25415 12.2644 6.25391 12.332C6.25391 12.4647 6.30658 12.5918 6.40035 12.6856C6.49412 12.7794 6.6213 12.832 6.75391 12.832C6.87087 12.8323 6.98421 12.7915 7.07422 12.7168C8.43302 11.648 10.1369 11 12 11C13.8631 11 15.567 11.648 16.9258 12.7168C17.0158 12.7915 17.1292 12.8323 17.2461 12.832C17.3787 12.832 17.5059 12.7794 17.5997 12.6856C17.6934 12.5918 17.7461 12.4647 17.7461 12.332C17.7459 12.2644 17.7319 12.1975 17.7051 12.1354C17.6782 12.0733 17.639 12.0172 17.5899 11.9707C17.5593 11.9418 17.5252 11.9169 17.4883 11.8965C15.9681 10.7173 14.0731 10 12 10Z" fill="url(#paint2_linear_9_3233)"/>
<path d="M12 18C12.5523 18 13 17.5523 13 17C13 16.4477 12.5523 16 12 16C11.4477 16 11 16.4477 11 17C11 17.5523 11.4477 18 12 18Z" fill="url(#paint3_linear_9_3233)"/>
<defs>
<linearGradient id="paint0_linear_9_3233" x1="4.26367" y1="8.79492" x2="19.7364" y2="8.79492" gradientUnits="userSpaceOnUse">
<stop stop-color="#FDFC47"/>
<stop offset="1" stop-color="#24FE41"/>
</linearGradient>
<linearGradient id="paint1_linear_9_3233" x1="8.24609" y1="14.0547" x2="15.754" y2="14.0547" gradientUnits="userSpaceOnUse">
<stop stop-color="#FDFC47"/>
<stop offset="1" stop-color="#24FE41"/>
</linearGradient>
<linearGradient id="paint2_linear_9_3233" x1="6.25391" y1="11.416" x2="17.7461" y2="11.416" gradientUnits="userSpaceOnUse">
<stop stop-color="#FDFC47"/>
<stop offset="1" stop-color="#24FE41"/>
</linearGradient>
<linearGradient id="paint3_linear_9_3233" x1="11" y1="17" x2="13" y2="17" gradientUnits="userSpaceOnUse">
<stop stop-color="#FDFC47"/>
<stop offset="1" stop-color="#24FE41"/>
</linearGradient>
</defs>
</svg>
