<svg width="24" height="24" viewBox="0 0 24 24" fill="none" xmlns="http://www.w3.org/2000/svg">
<path d="M13.4902 5.00976C13.1005 5.01266 12.7308 5.24427 12.5723 5.62695L12.5684 5.63476C10.7641 5.381 8.96863 6.49128 8.26953 8.17383C8.26953 8.17383 6.35722 12.7939 4.58594 12.7324C4.56694 12.7364 4.55155 12.7513 4.53125 12.7559C4.45415 12.7774 4.38238 12.8121 4.3164 12.8574C4.2894 12.8755 4.26188 12.8857 4.23828 12.9062C4.14848 12.9805 4.07761 13.0766 4.03125 13.1836C3.87206 13.5679 4.0541 14.0033 4.4375 14.1621L14.1367 18.1816C14.5211 18.3408 14.958 18.1597 15.1172 17.7754C15.16 17.3636 15.177 17.5496 15.166 17.4336C15.164 17.4024 15.1523 17.3743 15.1465 17.3437C15.1317 17.2648 15.1042 17.1889 15.0645 17.1191C15.0543 17.1019 15.0545 17.0811 15.043 17.0645C13.7466 15.8564 15.6621 11.2363 15.6621 11.2363C16.3579 9.55133 15.8725 7.49619 14.416 6.40039L14.4199 6.39258C14.6313 5.88233 14.3891 5.29728 13.8789 5.08593C13.7513 5.0331 13.6201 5.0088 13.4902 5.00976ZM7.11914 16.3555C6.99075 17.2576 7.48878 18.1324 8.33008 18.4824C9.17295 18.8302 10.1443 18.5634 10.6914 17.834L7.11914 16.3555Z" fill="url(#paint0_linear_9_3294)"/>
<defs>
<linearGradient id="paint0_linear_9_3294" x1="3.97363" y1="11.8217" x2="15.9751" y2="11.8217" gradientUnits="userSpaceOnUse">
<stop stop-color="#FDFC47"/>
<stop offset="1" stop-color="#24FE41"/>
</linearGradient>
</defs>
</svg>
