<svg width="24" height="24" viewBox="0 0 24 24" fill="none" xmlns="http://www.w3.org/2000/svg">
<path d="M13.9902 5.00976C13.6005 5.01266 13.2308 5.24427 13.0723 5.62695L13.0684 5.63476C11.2641 5.381 9.46863 6.49128 8.76953 8.17383C8.76953 8.17383 6.85723 12.7939 5.08594 12.7324C5.06694 12.7364 5.05155 12.7513 5.03125 12.7559C4.95415 12.7774 4.88238 12.8121 4.8164 12.8574C4.7894 12.8755 4.76198 12.8857 4.73828 12.9062C4.64848 12.9805 4.57761 13.0766 4.53125 13.1836C4.37206 13.5679 4.5541 14.0033 4.9375 14.1621L14.6367 18.1816C15.0211 18.3408 15.458 18.1597 15.6172 17.7754C15.66 17.3636 15.677 17.5496 15.3636 17.4336C15.664 17.4024 15.6523 17.3743 15.6465 17.3437C15.6317 17.2648 15.6042 17.1889 15.5645 17.1191C15.5543 17.1019 15.5545 17.0811 15.543 17.0645C14.2466 15.8564 16.1621 11.2363 16.1621 11.2363C16.8579 9.55133 16.3725 7.49619 14.916 6.40039L14.9199 6.39258C15.1313 5.88233 14.8891 5.29728 14.3789 5.08593C14.2513 5.0331 14.1201 5.0088 13.9902 5.00976ZM6.89648 16.0605C6.78323 16.8884 7.19229 17.7302 7.98242 18.1211C8.85663 18.5529 9.89189 18.2854 10.459 17.5352L6.89648 16.0605Z" fill="url(#paint0_linear_9_3302)"/>
<defs>
<linearGradient id="paint0_linear_9_3302" x1="4.47363" y1="11.6688" x2="16.4751" y2="11.6688" gradientUnits="userSpaceOnUse">
<stop stop-color="#FDFC47"/>
<stop offset="1" stop-color="#24FE41"/>
</linearGradient>
</defs>
</svg>
