<svg width="24" height="24" viewBox="0 0 24 24" fill="none" xmlns="http://www.w3.org/2000/svg">
<path d="M13.9922 5.00391C13.6025 5.00681 13.2327 5.24037 13.0742 5.62305L13.0703 5.63086C11.2661 5.3771 9.47254 6.48738 8.77344 8.16993C8.77344 8.16993 6.85918 12.79 5.08789 12.7285C5.06889 12.7325 5.05545 12.7474 5.03515 12.752C4.95805 12.7735 4.88433 12.8082 4.81836 12.8535C4.79136 12.8716 4.76383 12.8818 4.74023 12.9023C4.65033 12.9766 4.57955 13.0708 4.5332 13.1777C4.37401 13.5621 4.55605 13.9994 4.93945 14.1582L14.6406 18.1758C15.025 18.335 15.4599 18.1558 15.6191 17.7715C15.662 17.6631 15.679 17.5457 15.668 17.4297C15.666 17.3985 15.6542 17.3704 15.6484 17.3398C15.6336 17.2609 15.6061 17.185 15.5664 17.1152C15.5562 17.098 15.5584 17.0772 15.5469 17.0606C14.3664 15.9605 15.7901 12.1901 16.0645 11.4961C15.5998 11.5047 15.138 11.4206 14.7062 11.2488C14.2743 11.077 13.881 10.8209 13.5492 10.4954C13.2174 10.17 12.9537 9.78169 12.7736 9.35325C12.5934 8.92481 12.5004 8.46478 12.5 8C12.5005 7.40696 12.6516 6.82377 12.9393 6.30516C13.227 5.78656 13.6417 5.34955 14.1445 5.03516C14.0933 5.02753 14.0431 5.00353 13.9922 5.00391ZM9.61523 17.1777C9.59003 18.1397 10.2565 19.0059 11.2324 19.1914C11.9256 19.3227 12.5985 19.0758 13.0508 18.5996L9.61523 17.1777Z" fill="url(#paint0_linear_9_3307)"/>
<path d="M18.5 8C18.5 8.66304 18.2366 9.29893 17.7678 9.76777C17.2989 10.2366 16.663 10.5 16 10.5C15.337 10.5 14.7011 10.2366 14.2322 9.76777C13.7634 9.29893 13.5 8.66304 13.5 8C13.5 7.33696 13.7634 6.70107 14.2322 6.23223C14.7011 5.76339 15.337 5.5 16 5.5C16.663 5.5 17.2989 5.76339 17.7678 6.23223C18.2366 6.70107 18.5 7.33696 18.5 8Z" fill="url(#paint1_linear_9_3307)"/>
<defs>
<linearGradient id="paint0_linear_9_3307" x1="4.47559" y1="12.1152" x2="16.0645" y2="12.1152" gradientUnits="userSpaceOnUse">
<stop stop-color="#FDFC47"/>
<stop offset="1" stop-color="#24FE41"/>
</linearGradient>
<linearGradient id="paint1_linear_9_3307" x1="13.5" y1="5.5" x2="16.1804" y2="11.5309" gradientUnits="userSpaceOnUse">
<stop stop-color="#FF0500"/>
<stop offset="1" stop-color="#FD3632"/>
</linearGradient>
</defs>
</svg>
