<svg width="24" height="24" viewBox="0 0 24 24" fill="none" xmlns="http://www.w3.org/2000/svg">
<path d="M12.8613 5.00977C12.4754 5.06351 12.1385 5.34014 12.0313 5.74024L12.0293 5.75C10.2074 5.73391 8.57116 7.06873 8.09766 8.82813C8.09766 8.82813 6.80519 13.6579 5.04102 13.8281C5.02272 13.8346 5.00984 13.8522 4.99024 13.8594C4.91664 13.8908 4.84856 13.9347 4.78907 13.9883C4.76467 14.0097 4.73956 14.0235 4.71876 14.0469C4.63936 14.1322 4.58085 14.2356 4.54884 14.3477C4.44117 14.7495 4.67922 15.1582 5.08009 15.2656L15.2207 17.9844C15.6225 18.092 16.033 17.855 16.1406 17.4531C16.1688 17.34 16.1691 17.223 16.1426 17.1094C16.1366 17.0787 16.123 17.051 16.1133 17.0215C16.0883 16.9452 16.0505 16.8746 16.002 16.8106C15.9897 16.7948 15.9882 16.7728 15.9746 16.7578C14.5316 15.7293 15.8262 10.8984 15.8262 10.8984C16.2961 9.13704 15.548 7.16389 13.9609 6.26758L13.9629 6.25782C14.1058 5.72435 13.7893 5.17615 13.2559 5.03321C13.1225 4.99747 12.99 4.99186 12.8613 5.00977ZM8.86524 17.3184C8.87564 18.2774 9.56586 19.0938 10.5098 19.2637C11.3309 19.4107 12.1571 19.0323 12.582 18.3145L8.86524 17.3184Z" fill="url(#paint0_linear_9_3292)"/>
<defs>
<linearGradient id="paint0_linear_9_3292" x1="4.52295" y1="12.1475" x2="16.1621" y2="12.1475" gradientUnits="userSpaceOnUse">
<stop stop-color="#FDFC47"/>
<stop offset="1" stop-color="#24FE41"/>
</linearGradient>
</defs>
</svg>
