<svg width="24" height="24" viewBox="0 0 24 24" fill="none" xmlns="http://www.w3.org/2000/svg">
<path d="M13.879 5.01172C13.6252 5.04513 13.385 5.17546 13.2169 5.39453L13.211 5.40235C11.534 4.69026 9.51121 5.29792 8.40046 6.74219C8.40046 6.74219 5.35719 10.7093 3.66218 10.1914C3.64278 10.1904 3.62634 10.202 3.60554 10.2012C3.52554 10.202 3.44468 10.2155 3.36921 10.2422C3.33851 10.2527 3.30942 10.2558 3.28132 10.2695C3.17532 10.318 3.0823 10.3911 3.00984 10.4824C2.75659 10.8125 2.81927 11.2825 3.14851 11.5352L11.4786 17.9258C11.8086 18.179 12.2761 18.1171 12.5294 17.7871C12.5988 17.6934 12.6467 17.5856 12.3637 17.4707C12.6721 17.44 12.668 17.4099 12.67 17.3789C12.676 17.2989 12.6689 17.2183 12.6485 17.1406C12.6435 17.1214 12.6497 17.1011 12.6427 17.082C11.7031 15.5796 14.7481 11.6113 14.7481 11.6113C15.8563 10.1638 15.9202 8.05458 14.7969 6.61914L14.8028 6.61133C15.139 6.17317 15.0554 5.54715 14.6173 5.21094L14.6192 5.20899C14.4001 5.04088 14.1327 4.97832 13.879 5.01172ZM3.17 12.8125C3.04344 13.3886 3.17799 13.9912 3.53718 14.459C4.12754 15.2256 5.18222 15.4592 6.04109 15.0137L3.17 12.8125Z" fill="url(#paint0_linear_9_3298)"/>
<defs>
<linearGradient id="paint0_linear_9_3298" x1="2.85425" y1="11.5423" x2="15.6099" y2="11.5423" gradientUnits="userSpaceOnUse">
<stop stop-color="#FDFC47"/>
<stop offset="1" stop-color="#24FE41"/>
</linearGradient>
</defs>
</svg>
