<svg width="24" height="24" viewBox="0 0 24 24" fill="none" xmlns="http://www.w3.org/2000/svg">
<path d="M6.35156 4.73633L5.41211 5.67773L10.8301 11.0957H9.5293L8.0332 9.59961C8.01983 9.73287 8.00015 9.86507 8 10C8 10 7.99984 15.0001 6.33984 15.6211C6.32384 15.6321 6.31778 15.6521 6.30078 15.6641C6.2374 15.7133 6.18262 15.7727 6.13867 15.8398C6.12067 15.8668 6.09994 15.888 6.08594 15.916C6.03132 16.019 6.00187 16.1334 6 16.25C6 16.3636 6.335 17 6.75 17H17.25C17.3636 17 18 16.3636 18 16.25C17.9981 16.1334 17.9687 16.019 17.9141 15.916C17.9001 15.888 17.8783 15.8658 17.8613 15.8398C17.8174 15.7727 17.7626 15.7133 17.6992 15.6641C17.6832 15.6521 17.6772 15.6321 17.6602 15.6211C16.0001 15.0011 16 10 16 10C15.998 8.177 14.765 6.46477 13 6.00977V6C13 5.44772 12.5523 5 12 5C11.4477 5 11 5.44772 11 6V6.00977C10.1807 6.22155 9.48376 6.71004 8.96484 7.34961L6.35156 4.73633ZM10.0664 18C10.2941 18.882 11.0891 19.4987 12 19.5C12.9116 19.4996 13.7076 18.8827 13.9355 18H10.0664Z" fill="url(#paint0_linear_9_3275)"/>
<defs>
<linearGradient id="paint0_linear_9_3275" x1="5.41211" y1="12.1182" x2="18" y2="12.1182" gradientUnits="userSpaceOnUse">
<stop stop-color="#FDFC47"/>
<stop offset="1" stop-color="#24FE41"/>
</linearGradient>
</defs>
</svg>
