<svg width="24" height="24" viewBox="0 0 24 24" fill="none" xmlns="http://www.w3.org/2000/svg">
<path d="M9 7C10.1045 7 11 7.8955 11 9V10H13V9C13 7.8955 13.8954 7 15 7C16.1045 7 17 7.8955 17 9C17 10.1045 16.1045 11 15 11H14V13H15C16.1045 13.0003 17 13.8955 17 15C17 16.1045 16.1045 17 15 17C13.8955 17 13 16.1045 13 15V14H11V15C11 16.1045 10.1046 17 9 17C7.8955 17 7 16.1045 7 15C7 13.8955 7.8955 13 9 13H10V11H9C7.8955 11 7 10.1045 7 9C7 7.8955 7.8955 7 9 7ZM9 8C8.44775 8 8 8.44775 8 9C8 9.55213 8.44775 10 9 10H10V9C10 8.44775 9.55225 8 9 8ZM15 8C14.4477 8 14 8.44775 14 9V10H15C15.5523 10 16 9.55225 16 9C16 8.44775 15.5523 8 15 8ZM11 11V13H13V11H11ZM9 14C8.44775 14 8 14.4477 8 15C8 15.5523 8.44775 16 9 16C9.55225 16 10 15.5523 10 15V14H9ZM14 14V15C14 15.5523 14.4477 16 15 16C15.5523 16 16 15.5523 16 15C16 14.4477 15.5523 14 15 14H14Z" fill="#232323"/>
<path d="M7 4C5.338 4 4 5.338 4 7V17C4 18.662 5.338 20 7 20H17C18.662 20 20 18.662 20 17V7C20 5.338 18.662 4 17 4H7ZM7 5H17C18.108 5 19 5.892 19 7V17C19 18.108 18.108 19 17 19H7C5.892 19 5 18.108 5 17V7C5 5.892 5.892 5 7 5Z" fill="#232323"/>
</svg>
