<svg width="24" height="24" viewBox="0 0 24 24" fill="none" xmlns="http://www.w3.org/2000/svg">
<path d="M22.9037 8.832C21.8678 3.7432 12.0977 3.4209 5.79865 7.2979V7.72616C12.0888 4.45406 21.0137 4.47506 21.8257 9.16256C22.0993 10.7155 21.2374 12.3306 19.6919 13.2599V14.4761C21.5524 13.7882 23.4546 11.5615 22.9037 8.832ZM11.4503 17.7418C7.10385 18.1473 2.57475 17.5091 1.94075 14.0727C1.62593 12.3805 2.39248 10.5846 3.40355 9.47026V8.87362C1.58035 10.4909 0.589953 12.5366 1.16175 14.9519C1.89105 18.0515 5.77775 19.8059 11.7118 19.2218C14.0612 18.9932 17.1358 18.2282 19.2695 17.0414V15.3553C17.3304 16.5255 14.1228 17.4925 11.4503 17.7418Z" fill="url(#paint0_linear_9_3316)"/>
<path d="M18.9216 8.0965H17.782V13.2335C17.782 13.8369 18.068 14.3617 18.9216 14.445M5.34761 9.9739H4.20801V13.3292C4.20801 13.9327 4.49401 14.4573 5.34761 14.5404M4.20811 8.2525H5.34771V9.3454H4.20811V8.2525ZM12.176 14.4865C11.2522 14.4865 10.8626 13.837 10.8626 13.196V8.7396H11.9897V9.9739H12.8432V10.898H11.9897V13.1273C11.9897 13.3894 12.114 13.5332 12.3832 13.5332H12.8431V14.4866L12.176 14.4865ZM15.1718 10.842C14.7866 10.842 14.4884 11.0438 14.364 11.3164C14.2894 11.4809 14.2645 11.6058 14.2522 11.8078H15.9966C15.9717 11.3144 15.752 10.842 15.1718 10.842ZM14.2523 12.5863C14.2523 13.1712 14.6167 13.6018 15.2548 13.6018C15.7564 13.6018 16.005 13.4602 16.295 13.1713L16.9911 13.8477C16.5436 14.2929 16.0754 14.5636 15.2467 14.5636C14.1653 14.5636 13.1293 13.9662 13.1293 12.2261C13.1293 10.738 14.0325 9.89701 15.2217 9.89701C16.4275 9.89701 17.1193 10.8816 17.1193 12.1742V12.5863L14.2523 12.5863ZM8.41792 10.898C8.74938 10.898 8.88615 11.0625 8.88615 11.331V14.4927H10.0173V11.3269C10.0173 10.6838 9.67753 9.9739 8.68725 9.9739H6.35455V14.4927H7.48145V10.8981" fill="url(#paint1_linear_9_3316)"/>
<defs>
<linearGradient id="paint0_linear_9_3316" x1="1" y1="12" x2="22.9999" y2="12" gradientUnits="userSpaceOnUse">
<stop stop-color="#FDFC47"/>
<stop offset="1" stop-color="#24FE41"/>
</linearGradient>
<linearGradient id="paint1_linear_9_3316" x1="4.20801" y1="11.3301" x2="18.9216" y2="11.3301" gradientUnits="userSpaceOnUse">
<stop stop-color="#FDFC47"/>
<stop offset="1" stop-color="#24FE41"/>
</linearGradient>
</defs>
</svg>
