<svg width="24" height="24" viewBox="0 0 24 24" fill="none" xmlns="http://www.w3.org/2000/svg">
<path opacity="0.3" d="M7.46323 4.00022C8.26312 3.98961 9.05476 4.36289 9.54721 5.06663C9.74797 5.3535 9.88042 5.67312 9.9476 6.00608H12.68C14.7729 6.00608 16.471 7.40153 16.471 9.49436C16.471 10.7412 15.8599 11.7314 14.93 12.3362L15.9398 13.7795C17.1945 12.7762 18.0003 11.2391 18.0003 9.51194C18.0003 6.48777 15.5379 4.03538 12.5003 4.03538H7.90464C7.75883 4.01074 7.61111 3.99887 7.46323 4.00022ZM5.00424 6.51975L5.00033 6.52366V6.55882C5.00006 6.54585 5.00431 6.53274 5.00424 6.51975ZM5.00033 6.55882V17.4748C4.95252 20.8407 10.0481 20.8407 10.0003 17.4748V14.9865H10.68L10.6312 14.9162C10.4326 14.6402 10.2924 14.3264 10.2192 13.9943C10.146 13.6622 10.1413 13.3186 10.2054 12.9846H7.79331V17.6721C7.80094 18.2115 6.98685 18.2115 6.99448 17.6721V8.94163C6.39225 8.81654 5.83329 8.47661 5.45346 7.93381C5.16629 7.52346 5.01073 7.04824 5.00033 6.55882ZM9.97104 6.80295C9.96565 6.84667 9.96898 6.89011 9.96127 6.93381C9.84527 7.5918 9.48072 8.16589 8.93393 8.54905C8.58342 8.79466 8.19115 8.9267 7.79331 8.97288V12.1858H8.59018H10.5042C10.6827 11.8831 10.923 11.6214 11.2093 11.4178C11.4957 11.2142 11.8218 11.0732 12.1664 11.0041H10.0003V8.0178H12.5003C13.3761 8.0178 14.0003 8.64 14.0003 9.51194C14.0003 10.2571 13.5428 10.8136 12.8636 10.9612C13.4645 11.0113 14.0271 11.277 14.4476 11.7092C15.1889 11.253 15.6722 10.4907 15.6722 9.49436C15.6722 7.83268 14.3417 6.80295 12.68 6.80295H10.5843L9.97104 6.80295Z" fill="#232323"/>
<path d="M7.4554 4.00021C6.97387 4.0081 6.49007 4.15475 6.06673 4.45139C5.51979 4.8344 5.15524 5.40878 5.03938 6.06662C4.92338 6.72446 5.07054 7.38667 5.45345 7.93381C6.24393 9.06345 7.80501 9.34007 8.93392 8.54904C9.48071 8.16588 9.84525 7.59179 9.96126 6.93381C10.0771 6.27627 9.9301 5.61376 9.5472 5.06662C9.05314 4.36059 8.25794 3.98706 7.4554 4.00021ZM12.596 10.9533C12.141 10.9647 11.6977 11.1 11.314 11.3448C10.9302 11.5895 10.6206 11.9344 10.4184 12.3422C10.2162 12.75 10.1292 13.2052 10.1667 13.6588C10.2042 14.1124 10.3648 14.5472 10.6312 14.9162L13.4241 18.9045C13.6095 19.1805 13.848 19.4168 14.1257 19.5995C14.4034 19.7822 14.7147 19.9077 15.0415 19.9686C15.3683 20.0296 15.704 20.0247 16.0289 19.9544C16.3538 19.884 16.6614 19.7496 16.9337 19.559C17.2061 19.3683 17.4376 19.1253 17.6149 18.8441C17.7922 18.5629 17.9116 18.2491 17.9662 17.9212C18.0208 17.5933 18.0094 17.2578 17.9328 16.9343C17.8561 16.6108 17.7158 16.3059 17.5199 16.0373L14.7288 12.049C14.4936 11.7023 14.175 11.4203 13.8023 11.2288C13.4297 11.0374 13.0149 10.9426 12.596 10.9533Z" fill="#232323"/>
</svg>
