<svg width="24" height="24" viewBox="0 0 24 24" fill="none" xmlns="http://www.w3.org/2000/svg">
<path d="M14.0616 7.24875C14.5445 6.64751 14.8719 5.83064 14.7815 5.00272C14.086 5.03185 13.2195 5.4858 12.7174 6.0695C12.2739 6.58741 11.88 7.43398 11.982 8.2319C12.7626 8.29017 13.5619 7.83694 14.0616 7.24875ZM15.8214 12.4504C15.8047 10.6799 17.2701 9.82028 17.3364 9.77925C16.5074 8.56921 15.2219 8.40531 14.7686 8.39035C13.6883 8.28028 12.6426 9.03944 12.0914 9.03944C11.5305 9.03937 10.6835 8.40349 9.77125 8.42157C8.59543 8.43915 7.49433 9.12 6.89154 10.1743C5.65061 12.3292 6.5757 15.4942 7.76759 17.2319C8.36465 18.0872 9.06014 19.0393 9.97241 19.0016C10.8647 18.9677 11.1972 18.4351 12.2756 18.4351C13.3427 18.4351 13.6553 19.0016 14.5862 18.9834C15.5443 18.9677 16.1469 18.1265 16.7232 17.2676C17.4097 16.2878 17.6869 15.3272 17.6979 15.2761C17.6765 15.2682 15.841 14.57 15.8214 12.4504Z" fill="#232323"/>
</svg>
