<svg width="24" height="24" viewBox="0 0 24 24" fill="none" xmlns="http://www.w3.org/2000/svg">
<g clip-path="url(#clip0_9_3358)">
<path d="M10.836 2.04659C9.04992 2.05659 7.60982 3.49919 7.61525 5.28489C7.61725 6.02089 7.86442 6.69859 8.27931 7.23989C9.17282 6.19949 10.4951 5.53549 11.9727 5.53089C12.6956 5.53089 13.3815 5.68639 14 5.96839C14.0494 5.74199 14.0749 5.50639 14.0742 5.26529C14.0692 3.47959 12.622 2.04109 10.836 2.04659ZM6.62306 3.54849V3.55849C5.69289 3.55849 4.9464 4.31759 4.94923 5.24789C4.95023 5.54869 5.02962 5.83309 5.16798 6.07609C5.72829 5.75799 6.37716 5.57229 7.06642 5.57019C7.13292 5.56929 7.19606 5.56929 7.26173 5.57019C7.25373 5.47619 7.24786 5.37969 7.24806 5.28509C7.24606 4.76719 7.35836 4.27359 7.5547 3.82799C7.28794 3.64899 6.96862 3.55159 6.62306 3.55259V3.54849ZM14.5918 4.68719C14.5231 4.68809 14.4564 4.68719 14.3887 4.71019C14.4184 4.89369 14.4412 5.08189 14.4414 5.27469C14.4424 5.57409 14.4042 5.86359 14.3359 6.14189C15.1521 6.59029 15.831 7.26258 16.2793 8.07938C16.741 7.83698 17.2572 7.68208 17.8047 7.64378C17.6585 5.98978 16.2835 4.69149 14.5918 4.69659L14.5918 4.68719ZM11.9746 5.89809C9.4754 5.90809 7.45921 7.93449 7.46681 10.4333C7.46744 10.6297 7.50059 10.8159 7.52541 11.0056C7.38975 11.1575 7.26039 11.3148 7.14064 11.4802C7.04731 11.4642 6.95375 11.4502 6.85548 11.4512C5.87643 11.4512 5.0908 12.2439 5.09377 13.2227C5.09581 13.5863 5.46872 14.4607 6.01173 14.7617C6.00862 14.8417 6.00002 14.9195 6.00002 15C6.00002 18.324 8.67602 21 12 21C15.324 21 18 18.324 18 15C18 15 18 14.99 18 14.99C18.0294 14.9906 18.0564 15 18.086 15C20.0249 14.99 21.5879 13.4209 21.582 11.4824C21.576 9.54369 20.0034 7.98629 18.0645 7.99219C17.4757 7.99219 16.9237 8.14579 16.4375 8.40229C16.7159 9.01409 16.8728 9.69289 16.875 10.4082C16.876 10.7395 16.8432 11.0637 16.7813 11.377C16.6775 11.2399 16.5681 11.1079 16.4531 10.9805C16.477 10.7899 16.5084 10.6016 16.5078 10.4043C16.4998 7.90529 14.4738 5.89049 11.9746 5.89809ZM7.06642 5.92709V5.93709C5.12746 5.94709 3.56443 7.51629 3.57033 9.45469C3.57333 10.596 4.12018 11.6043 4.96486 12.2418C5.31808 11.5558 6.03121 11.0861 6.85548 11.0836C6.95518 11.0837 7.05045 11.1056 7.1465 11.1086C7.1154 10.8894 7.10032 10.6642 7.09962 10.4367C7.09662 9.34929 7.44743 8.34259 8.04689 7.52849C7.68518 7.07879 7.42616 6.53809 7.31447 5.94839C7.23307 5.94929 7.14934 5.92709 7.06642 5.92709ZM3.22462 8.49938C1.43922 8.49938 -0.00541475 9.94368 1.52574e-05 11.7299C0.00501525 13.5152 1.46 14.9599 3.24611 14.9545C3.92592 14.9545 4.5551 14.7406 5.07423 14.3803C4.85826 14.0472 4.72981 13.6475 4.72853 13.2221C4.72758 13.0014 4.75843 12.7895 4.82033 12.5892C3.84426 11.8884 3.20705 10.7458 3.20314 9.45448C3.20214 9.12648 3.24401 8.80979 3.32033 8.50529C3.28843 8.50529 3.25868 8.50429 3.22658 8.50529L3.22463 8.49529L3.22462 8.49938ZM22.2207 11.2142C22.1255 11.2151 22.0345 11.2362 21.9434 11.2392C21.9484 11.3212 21.9493 11.3963 21.9493 11.4795C21.9523 12.5086 21.5498 13.4452 20.8946 14.1416C21.2191 14.5165 21.6949 14.7545 22.2325 14.7529C23.2116 14.7529 24.003 13.9605 24.0001 12.9814C23.9971 12.0024 23.1999 11.2112 22.2207 11.2142Z" fill="#232323"/>
<path d="M10.835 1.54698C9.049 1.55698 7.61041 2.99958 7.61584 4.78528C7.61784 5.52128 7.86537 6.19798 8.28026 6.73928C9.17377 5.69888 10.4951 5.03588 11.9727 5.03138C12.6956 5.03138 13.3816 5.18648 14.0001 5.46848C14.0495 5.24208 14.0747 5.00678 14.074 4.76568C14.069 2.97998 12.6211 1.54148 10.835 1.54698ZM6.6228 3.05378C5.69263 3.05378 4.94728 3.81258 4.95011 4.74288C4.95111 5.04368 5.02961 5.32798 5.16797 5.57098C5.72828 5.25288 6.37665 5.06728 7.06591 5.06518C7.13241 5.06428 7.19652 5.06428 7.26219 5.06518C7.25419 4.97118 7.24859 4.87528 7.24879 4.78068C7.24679 4.26278 7.35826 3.76948 7.5546 3.32388C7.28784 3.14488 6.96858 3.04698 6.62302 3.04798L6.6228 3.05378ZM14.5913 4.18808C14.5226 4.18898 14.4564 4.18898 14.3887 4.21108C14.4184 4.39458 14.4408 4.58148 14.441 4.77428C14.442 5.07368 14.4043 5.36338 14.3361 5.64168C15.1523 6.09008 15.8311 6.76258 16.2794 7.57938C16.7411 7.33698 17.2565 7.18238 17.804 7.14408C17.6578 5.49008 16.2829 4.19268 14.5913 4.19778L14.5913 4.18808ZM11.9738 5.39858C9.47457 5.40858 7.45928 7.43358 7.46688 9.93238C7.47488 12.431 9.50191 14.446 12.0013 14.4384C14.5006 14.4284 16.5158 12.4036 16.5082 9.90478C16.5002 7.40578 14.473 5.39098 11.9738 5.39858ZM7.06694 5.43658C5.12798 5.44658 3.56411 7.01568 3.57001 8.95408C3.57301 10.0954 4.12039 11.1041 4.96507 11.7416C5.31829 11.0556 6.03044 10.5863 6.85471 10.5838C6.95441 10.5839 7.05 10.6058 7.14605 10.6088C7.11495 10.3896 7.10035 10.1654 7.09965 9.93788C7.09665 8.85048 7.44737 7.84358 8.04683 7.02948C7.68512 6.57978 7.42559 6.03868 7.3139 5.44898C7.2325 5.44988 7.14981 5.42698 7.06689 5.42698L7.06694 5.43658ZM18.0644 7.49218C17.4756 7.49218 16.9246 7.64548 16.4384 7.90198C16.7168 8.51378 16.8729 9.19238 16.8751 9.90768C16.8791 11.2463 16.3445 12.4634 15.4736 13.3492C16.1175 14.0594 17.05 14.5028 18.0856 14.4997C20.0246 14.4897 21.5885 12.9207 21.5826 10.9822C21.5766 9.04348 20.0032 7.48628 18.0644 7.49218ZM3.22492 7.99938C1.43952 7.99938 -0.00541475 9.44458 1.52544e-05 11.2308C0.00501525 13.0161 1.45915 14.4609 3.24526 14.4555C3.92507 14.4555 4.55418 14.2404 5.07331 13.8801C4.85734 13.547 4.72919 13.148 4.72791 12.7226C4.72696 12.5019 4.75911 12.2897 4.82101 12.0894C3.84494 11.3886 3.20716 10.2458 3.20325 8.95448C3.20225 8.62648 3.24435 8.30918 3.32067 8.00468C3.28877 8.00468 3.25787 8.00458 3.22577 8.00558L3.22492 7.99938ZM22.2216 10.7143C22.1264 10.7152 22.0341 10.7373 21.943 10.7403C21.948 10.8223 21.95 10.8979 21.95 10.9811C21.953 12.0102 21.5496 12.9464 20.8943 13.6428C21.2189 14.0177 21.6946 14.2543 22.2322 14.2527C23.2113 14.2527 24.0026 13.4603 23.9996 12.4812C23.9966 11.5022 23.2007 10.7113 22.2216 10.7143ZM6.85575 10.951C5.8767 10.951 5.09171 11.7434 5.09468 12.7222C5.09768 13.7012 5.88746 14.4924 6.86651 14.4894C7.617 14.4894 8.25253 14.0171 8.50922 13.3578C7.87606 12.717 7.41991 11.8982 7.21669 10.9881C7.09932 10.9641 6.98027 10.95 6.85575 10.951Z" fill="#232323"/>
<path d="M12 20.5C15.3137 20.5 18 17.8137 18 14.5C18 11.1863 15.3137 8.5 12 8.5C8.68629 8.5 6 11.1863 6 14.5C6 17.8137 8.68629 20.5 12 20.5Z" fill="url(#paint0_linear_9_3358)"/>
<path d="M14.78 14.9541C14.5727 14.746 14.2363 14.746 14.0286 14.9541L11.931 17.2722L9.83338 14.9541C9.62577 14.746 9.28959 14.746 9.08198 14.9541C8.87437 15.1622 8.87437 15.4993 9.08198 15.7074L11.522 18.4041C11.6344 18.5166 11.7839 18.5662 11.931 18.5569C12.0778 18.5662 12.2277 18.5165 12.34 18.4041L14.78 15.7074C14.9874 15.4993 14.9874 15.1622 14.78 14.9541ZM11.9279 12.711C12.4114 12.711 12.8033 12.3186 12.8033 11.8345C12.8033 11.3504 12.4114 10.958 11.9279 10.958C11.4444 10.958 11.0524 11.3504 11.0524 11.8345C11.0524 12.3186 11.4444 12.711 11.9279 12.711ZM11.9279 15.2154C12.4114 15.2154 12.8033 14.823 12.8033 14.3389C12.8033 13.8548 12.4114 13.4623 11.9279 13.4623C11.4444 13.4623 11.0524 13.8548 11.0524 14.3389C11.0524 14.823 11.4444 15.2154 11.9279 15.2154Z" fill="url(#paint1_linear_9_3358)"/>
</g>
<defs>
<linearGradient id="paint0_linear_9_3358" x1="6" y1="14.5" x2="18" y2="14.5" gradientUnits="userSpaceOnUse">
<stop stop-color="#2193B0"/>
<stop offset="1" stop-color="#6DD5ED"/>
</linearGradient>
<linearGradient id="paint1_linear_9_3358" x1="8.92627" y1="14.758" x2="14.9356" y2="14.758" gradientUnits="userSpaceOnUse">
<stop stop-color="#FDFC47"/>
<stop offset="1" stop-color="#24FE41"/>
</linearGradient>
<clipPath id="clip0_9_3358">
<rect width="24" height="24" fill="white"/>
</clipPath>
</defs>
</svg>
