<svg width="24" height="24" viewBox="0 0 24 24" fill="none" xmlns="http://www.w3.org/2000/svg">
<path d="M12 5C11.446 5 11 5.446 11 6V10C11 10.554 11.446 11 12 11C12.554 11 13 10.554 13 10V6C13 5.446 12.554 5 12 5ZM9 7C8.766 7 8.544 7.08399 8.375 7.21899C8.27819 7.29873 8.18445 7.38212 8.09399 7.46899C7.43743 8.02735 6.91009 8.72177 6.54852 9.50414C6.18695 10.2865 5.99979 11.1381 6 12C6 13.5913 6.63214 15.1174 7.75735 16.2426C8.88257 17.3679 10.4087 18 12 18C13.5913 18 15.1174 17.3679 16.2426 16.2426C17.3679 15.1174 18 13.5913 18 12C18 10.18 17.185 8.56499 15.906 7.46899C15.8159 7.38214 15.7225 7.29875 15.626 7.21899C15.4789 7.10092 15.3015 7.02687 15.1141 7.00536C14.9267 6.98384 14.7371 7.01575 14.567 7.09741C14.397 7.17907 14.2536 7.30715 14.1532 7.46686C14.0529 7.62657 13.9998 7.81139 14 8C14 8.311 14.147 8.57 14.374 8.75C14.414 8.788 14.428 8.81 14.499 8.875C14.9704 9.24745 15.3506 9.7225 15.6107 10.264C15.8708 10.8055 16.0039 11.3993 16 12C16 13.0609 15.5786 14.0783 14.8284 14.8284C14.0783 15.5786 13.0609 16 12 16C10.9391 16 9.92172 15.5786 9.17157 14.8284C8.42142 14.0783 8 13.0609 8 12C7.99596 11.3993 8.12896 10.8057 8.38889 10.2642C8.64881 9.72266 9.02883 9.24755 9.5 8.875C9.572 8.809 9.585 8.788 9.625 8.75C9.74106 8.66233 9.83531 8.54903 9.90036 8.41893C9.96541 8.28883 9.9995 8.14545 10 8C10 7.73478 9.89463 7.48043 9.70709 7.29289C9.51956 7.10536 9.26522 7 9 7Z" fill="url(#paint0_linear_9_3406)"/>
<defs>
<linearGradient id="paint0_linear_9_3406" x1="6" y1="11.5" x2="18" y2="11.5" gradientUnits="userSpaceOnUse">
<stop stop-color="#FDFC47"/>
<stop offset="1" stop-color="#24FE41"/>
</linearGradient>
</defs>
</svg>
