<svg width="24" height="24" viewBox="0 0 24 24" fill="none" xmlns="http://www.w3.org/2000/svg">
<path opacity="0.35" d="M19.3753 5.25812C19.2301 5.24395 19.0672 5.26874 18.9078 5.34664L4.74682 10.8389C3.77655 11.2285 3.78718 11.7738 4.57331 12.011L8.20651 13.1548L16.6202 7.81484C17.0204 7.5705 17.378 7.70152 17.0841 7.97065L10.2675 14.157L10.0727 15.7682L9.08477 12.6024L8.21011 13.1583C8.63858 14.5181 9.05644 15.8779 9.49201 17.2377C9.62657 17.6024 9.97714 17.7016 10.2852 17.7087C10.7491 17.7228 11.5281 17.0748 11.5281 17.0748L12.7781 16.0195L16.1988 18.562C16.8752 18.9374 17.3638 18.7426 17.5338 17.9282L19.9453 6.49715C20.1295 5.75352 19.8249 5.31085 19.3894 5.26135M11.2023 14.8472L11.9601 15.4067L11.0394 16.1857L11.1987 14.8472" fill="#232323"/>
<path opacity="0.35" d="M6.00024 20C7.10481 20 8.00024 19.1046 8.00024 18C8.00024 16.8954 7.10481 16 6.00024 16C4.89567 16 4.00024 16.8954 4.00024 18C4.00024 19.1046 4.89567 20 6.00024 20Z" fill="#232323"/>
</svg>
