<svg width="24" height="24" viewBox="0 0 24 24" fill="none" xmlns="http://www.w3.org/2000/svg">
<path d="M19.3891 5.25401C19.2438 5.23629 19.0808 5.26464 18.9214 5.33906L4.74635 10.8388C3.77894 11.2286 3.78603 11.7743 4.56917 12.0153L8.20497 13.1563L16.6247 7.81246C17.0216 7.57149 17.3866 7.69906 17.0889 7.96838L10.2674 14.1591L10.0725 15.7715L9.08382 12.6035L8.20854 13.1598C8.63732 14.5206 9.05547 15.8849 9.48784 17.2421C9.62604 17.6071 9.97332 17.7063 10.2816 17.7134C10.7458 17.7276 11.5254 17.0791 11.5254 17.0791L12.7763 16.0231L16.1994 18.5674C16.8762 18.943 17.3653 18.7481 17.5318 17.9331L19.945 6.49111C20.1293 5.7434 19.825 5.30001 19.3891 5.25401ZM11.1923 14.847L11.9506 15.4104L11.0293 16.1865L11.1923 14.847Z" fill="#232323"/>
</svg>
