<svg width="64" height="64" viewBox="0 0 64 64" fill="none" xmlns="http://www.w3.org/2000/svg">
<g opacity="0.3" filter="url(#filter0_f_4_26022)">
<path d="M44.5 4.5H19.5C11.2157 4.5 4.5 11.2157 4.5 19.5V44.5C4.5 52.7843 11.2157 59.5 19.5 59.5H44.5C52.7843 59.5 59.5 52.7843 59.5 44.5V19.5C59.5 11.2157 52.7843 4.5 44.5 4.5Z" fill="url(#paint0_linear_4_26022)"/>
</g>
<path d="M19.5 5H44.5C52.5081 5 59 11.4919 59 19.5V44.5C59 52.5081 52.5081 59 44.5 59H19.5C11.4919 59 5 52.5081 5 44.5V19.5C5 11.4919 11.4919 5 19.5 5Z" fill="#232323" stroke="url(#paint1_linear_4_26022)"/>
<path d="M45.1303 10.631H18.8733C14.3222 10.631 10.6328 14.3204 10.6328 18.8715V45.1285C10.6328 49.6796 14.3222 53.369 18.8733 53.369H45.1303C49.6814 53.369 53.3708 49.6796 53.3708 45.1285V18.8715C53.3708 14.3204 49.6814 10.631 45.1303 10.631Z" stroke="url(#paint2_linear_4_26022)" stroke-width="2.2616"/>
<path d="M20.5938 42.494H24.9147M22.1369 42.494L32.0135 21.506L41.8899 42.494M39.1121 42.494H43.4331" stroke="url(#paint3_linear_4_26022)" stroke-width="3.7037" stroke-linecap="round" stroke-linejoin="round"/>
<defs>
<filter id="filter0_f_4_26022" x="3.2625" y="3.2625" width="57.475" height="57.475" filterUnits="userSpaceOnUse" color-interpolation-filters="sRGB">
<feFlood flood-opacity="0" result="BackgroundImageFix"/>
<feBlend mode="normal" in="SourceGraphic" in2="BackgroundImageFix" result="shape"/>
<feGaussianBlur stdDeviation="0.61875" result="effect1_foregroundBlur_4_26022"/>
</filter>
<linearGradient id="paint0_linear_4_26022" x1="4.5" y1="32" x2="59.5" y2="32" gradientUnits="userSpaceOnUse">
<stop stop-color="#FDFC47"/>
<stop offset="1" stop-color="#24FE41"/>
</linearGradient>
<linearGradient id="paint1_linear_4_26022" x1="4.5" y1="32" x2="59.5" y2="32" gradientUnits="userSpaceOnUse">
<stop stop-color="#FDFC47"/>
<stop offset="1" stop-color="#24FE41"/>
</linearGradient>
<linearGradient id="paint2_linear_4_26022" x1="10.6328" y1="32" x2="53.3708" y2="32" gradientUnits="userSpaceOnUse">
<stop stop-color="#FDFC47"/>
<stop offset="1" stop-color="#24FE41"/>
</linearGradient>
<linearGradient id="paint3_linear_4_26022" x1="20.5938" y1="32" x2="43.4331" y2="32" gradientUnits="userSpaceOnUse">
<stop stop-color="#FDFC47"/>
<stop offset="1" stop-color="#24FE41"/>
</linearGradient>
</defs>
</svg>
