<svg width="64" height="64" viewBox="0 0 64 64" fill="none" xmlns="http://www.w3.org/2000/svg">
<g opacity="0.3" filter="url(#filter0_f_4_25758)">
<path d="M44.5003 4.50003H19.5001C11.2158 4.50003 4.5 11.2158 4.5 19.5001V44.5003C4.5 52.7846 11.2158 59.5004 19.5001 59.5004H44.5003C52.7846 59.5004 59.5004 52.7846 59.5004 44.5003V19.5001C59.5004 11.2158 52.7846 4.50003 44.5003 4.50003Z" fill="url(#paint0_linear_4_25758)"/>
</g>
<path d="M19.5001 5H44.5007C52.5089 5 59.0008 11.4919 59.0008 19.5001V44.5007C59.0008 52.5089 52.5089 59.0008 44.5007 59.0008H19.5001C11.4919 59.0008 5 52.5089 5 44.5007V19.5001C5 11.4919 11.4919 5 19.5001 5Z" fill="#232323" stroke="url(#paint1_linear_4_25758)"/>
<path d="M17.039 12.8327H26.3737C28.3067 12.8327 29.8737 14.3997 29.8737 16.3327V25.6673C29.8737 27.6003 28.3067 29.1673 26.3737 29.1673H17.039C15.1061 29.1673 13.5391 27.6003 13.5391 25.6673V16.3327C13.5391 14.3997 15.1061 12.8327 17.039 12.8327Z" fill="url(#paint2_linear_4_25758)" stroke="#232323"/>
<path d="M19.3795 25.3398V24.5731L22.2587 21.4213C22.5966 21.0522 22.8748 20.7314 23.0935 20.4588C23.3121 20.1834 23.474 19.925 23.579 19.6836C23.6869 19.4394 23.7409 19.1839 23.7409 18.917C23.7409 18.6103 23.667 18.3448 23.5194 18.1205C23.3746 17.8962 23.1758 17.723 22.9231 17.6009C22.6704 17.4788 22.3865 17.4178 22.0713 17.4178C21.7362 17.4178 21.4438 17.4873 21.1939 17.6265C20.9469 17.7627 20.7552 17.9544 20.6189 18.2014C20.4855 18.4485 20.4187 18.7381 20.4187 19.0703H19.4136C19.4136 18.5592 19.5314 18.1106 19.7671 17.7244C20.0028 17.3383 20.3236 17.0373 20.7296 16.8215C21.1385 16.6057 21.5971 16.4978 22.1053 16.4978C22.6164 16.4978 23.0693 16.6057 23.464 16.8215C23.8587 17.0373 24.1682 17.3283 24.3925 17.6946C24.6168 18.0609 24.729 18.4683 24.729 18.917C24.729 19.2378 24.6708 19.5516 24.5544 19.8582C24.4408 20.1621 24.242 20.5014 23.9581 20.8762C23.677 21.2481 23.2865 21.7024 22.7868 22.2391L20.8276 24.3346V24.4027H24.8823V25.3398H19.3795Z" fill="url(#paint3_linear_4_25758)"/>
<path d="M19.3795 25.3398H18.3795V26.3398H19.3795V25.3398ZM19.3795 24.5731L18.6412 23.8986L18.3795 24.1851V24.5731H19.3795ZM22.2587 21.4213L21.5211 20.7461L21.5204 20.7469L22.2587 21.4213ZM23.0935 20.4588L23.8736 21.0845L23.8767 21.0805L23.0935 20.4588ZM23.579 19.6836L22.6643 19.2794L22.6621 19.2845L23.579 19.6836ZM23.5194 18.1205L22.6792 18.6629L22.6841 18.6703L23.5194 18.1205ZM22.9231 17.6009L23.3581 16.7005V16.7005L22.9231 17.6009ZM21.1939 17.6265L21.677 18.502L21.6804 18.5001L21.1939 17.6265ZM20.6189 18.2014L19.7433 17.7183L19.7391 17.7261L20.6189 18.2014ZM20.4187 19.0703V20.0703H21.4187V19.0703H20.4187ZM19.4136 19.0703H18.4136V20.0703H19.4136V19.0703ZM19.7671 17.7244L20.6207 18.2454L20.6207 18.2454L19.7671 17.7244ZM20.7296 16.8215L20.2629 15.9371L20.2603 15.9384L20.7296 16.8215ZM23.464 16.8215L23.9437 15.9441L23.9437 15.9441L23.464 16.8215ZM24.3925 17.6946L23.5397 18.2169L24.3925 17.6946ZM24.5544 19.8582L23.6194 19.5033L23.6177 19.5081L24.5544 19.8582ZM23.9581 20.8762L23.161 20.2723L23.1603 20.2733L23.9581 20.8762ZM22.7868 22.2391L23.5173 22.9221L23.5186 22.9206L22.7868 22.2391ZM20.8276 24.3346L20.0971 23.6516L19.8276 23.9399V24.3346H20.8276ZM20.8276 24.4027H19.8276V25.4027H20.8276V24.4027ZM24.8823 24.4027H25.8823V23.4027H24.8823V24.4027ZM24.8823 25.3398V26.3398H25.8823V25.3398H24.8823ZM20.3795 25.3398V24.5731H18.3795V25.3398H20.3795ZM20.1178 25.2476L22.997 22.0958L21.5204 20.7469L18.6412 23.8986L20.1178 25.2476ZM22.9963 22.0966C23.3432 21.7176 23.6369 21.3795 23.8735 21.0845L22.3134 19.8331C22.1128 20.0832 21.8499 20.3868 21.5211 20.7461L22.9963 22.0966ZM23.8767 21.0805C24.1325 20.7583 24.3468 20.4253 24.4959 20.0827L22.6621 19.2845C22.6011 19.4246 22.4917 19.6084 22.3102 19.837L23.8767 21.0805ZM24.4937 20.0878C24.6578 19.7163 24.7409 19.3231 24.7409 18.917H22.7409C22.7409 19.0447 22.716 19.1625 22.6643 19.2795L24.4937 20.0878ZM24.7409 18.917C24.7409 18.4434 24.6245 17.9806 24.3547 17.5707L22.6841 18.6703C22.7096 18.7091 22.7409 18.7772 22.7409 18.917H24.7409ZM24.3595 17.5781C24.1099 17.1915 23.7673 16.8982 23.3581 16.7005L22.4881 18.5013C22.5843 18.5478 22.6392 18.6009 22.6792 18.6629L24.3595 17.5781ZM23.3581 16.7005C22.9539 16.5052 22.5184 16.4178 22.0713 16.4178V18.4178C22.2545 18.4178 22.3869 18.4524 22.4881 18.5013L23.3581 16.7005ZM22.0713 16.4178C21.5953 16.4178 21.1297 16.5176 20.7074 16.7528L21.6804 18.5001C21.7578 18.457 21.8771 18.4178 22.0713 18.4178V16.4178ZM20.7108 16.7509C20.2985 16.9783 19.9708 17.3061 19.7433 17.7184L21.4945 18.6845C21.5396 18.6027 21.5952 18.5472 21.677 18.502L20.7108 16.7509ZM19.7391 17.7261C19.5135 18.1438 19.4187 18.6025 19.4187 19.0703H21.4187C21.4187 18.8736 21.4574 18.7532 21.4987 18.6767L19.7391 17.7261ZM20.4187 18.0703H19.4136V20.0703H20.4187V18.0703ZM20.4136 19.0703C20.4136 18.7186 20.4927 18.455 20.6207 18.2454L18.9135 17.2035C18.5701 17.7661 18.4136 18.3998 18.4136 19.0703H20.4136ZM20.6207 18.2454C20.7614 18.0148 20.9484 17.8377 21.199 17.7045L20.2603 15.9384C19.6988 16.2369 19.2441 16.6617 18.9135 17.2035L20.6207 18.2454ZM21.1964 17.7059C21.4475 17.5733 21.7433 17.4978 22.1053 17.4978V15.4978C21.4509 15.4978 20.8295 15.638 20.2629 15.9371L21.1964 17.7059ZM22.1053 17.4978C22.4719 17.4978 22.7557 17.5739 22.9843 17.6989L23.9437 15.9441C23.3829 15.6374 22.761 15.4978 22.1053 15.4978V17.4978ZM22.9843 17.6989C23.2333 17.835 23.411 18.0067 23.5397 18.2169L25.2453 17.1723C24.9254 16.65 24.4841 16.2395 23.9437 15.9441L22.9843 17.6989ZM23.5397 18.2169C23.6634 18.4188 23.729 18.6441 23.729 18.917H25.729C25.729 18.2926 25.5703 17.703 25.2453 17.1723L23.5397 18.2169ZM23.729 18.917C23.729 19.1138 23.6938 19.3075 23.6195 19.5033L25.4893 20.2132C25.6477 19.7957 25.729 19.3618 25.729 18.917H23.729ZM23.6177 19.5081C23.5496 19.6902 23.4102 19.9434 23.161 20.2723L24.7552 21.48C25.0738 21.0594 25.332 20.6339 25.491 20.2084L23.6177 19.5081ZM23.1603 20.2733C22.908 20.6071 22.543 21.0336 22.055 21.5576L23.5186 22.9206C24.0301 22.3713 24.446 21.8892 24.7559 21.4791L23.1603 20.2733ZM22.0563 21.5561L20.0971 23.6516L21.5581 25.0175L23.5173 22.9221L22.0563 21.5561ZM19.8276 24.3346V24.4027H21.8276V24.3346H19.8276ZM20.8276 25.4027H24.8823V23.4027H20.8276V25.4027ZM23.8823 24.4027V25.3398H25.8823V24.4027H23.8823ZM24.8823 24.3398H19.3795V26.3398H24.8823V24.3398Z" fill="#232323"/>
<mask id="path-6-inside-1_4_25758" fill="white">
<path d="M21.6163 16.6664C20.7105 16.6664 19.8817 16.9945 19.132 17.6504L19.2336 17.7667C19.9567 17.1674 20.7504 16.859 21.6162 16.859C22.3658 16.859 22.9586 17.0623 23.3958 17.4684C23.8057 17.8489 24.0155 18.3581 24.0412 18.9856C24.0418 18.9623 24.0518 18.9391 24.0518 18.9158C24.0518 18.2286 23.8332 17.6819 23.3959 17.2758C22.9586 16.8698 22.3659 16.6664 21.6163 16.6664ZM22.9621 19.0681C22.9456 19.4671 22.8475 19.855 22.6468 20.2277C22.4594 20.6337 21.9433 21.2898 21.1 22.1956L19.0391 24.3962V24.5909L21.1 22.3881C21.9433 21.4823 22.4595 20.8262 22.6468 20.4202C22.8654 20.0141 22.9748 19.5921 22.9748 19.1548C22.9748 19.1225 22.9635 19.0994 22.9621 19.0681ZM20.4885 24.3497L20.3509 24.4957V24.5423H24.3799V24.3497H20.4885Z"/>
</mask>
<path d="M21.6163 16.6664C20.7105 16.6664 19.8817 16.9945 19.132 17.6504L19.2336 17.7667C19.9567 17.1674 20.7504 16.859 21.6162 16.859C22.3658 16.859 22.9586 17.0623 23.3958 17.4684C23.8057 17.8489 24.0155 18.3581 24.0412 18.9856C24.0418 18.9623 24.0518 18.9391 24.0518 18.9158C24.0518 18.2286 23.8332 17.6819 23.3959 17.2758C22.9586 16.8698 22.3659 16.6664 21.6163 16.6664ZM22.9621 19.0681C22.9456 19.4671 22.8475 19.855 22.6468 20.2277C22.4594 20.6337 21.9433 21.2898 21.1 22.1956L19.0391 24.3962V24.5909L21.1 22.3881C21.9433 21.4823 22.4595 20.8262 22.6468 20.4202C22.8654 20.0141 22.9748 19.5921 22.9748 19.1548C22.9748 19.1225 22.9635 19.0994 22.9621 19.0681ZM20.4885 24.3497L20.3509 24.4957V24.5423H24.3799V24.3497H20.4885Z" fill="url(#paint4_linear_4_25758)"/>
<path d="M19.132 17.6504L18.4735 16.8978L17.7219 17.5554L18.3786 18.3079L19.132 17.6504ZM19.2336 17.7667L18.4802 18.4243L19.1212 19.1587L19.8717 18.5367L19.2336 17.7667ZM23.3958 17.4684L22.7154 18.2012L23.3958 17.4684ZM24.0412 18.9856L23.0421 19.0266L25.0409 19.0118L24.0412 18.9856ZM23.3959 17.2758L24.0763 16.543L24.0763 16.543L23.3959 17.2758ZM22.9621 19.0681L23.9611 19.0245L21.963 19.0268L22.9621 19.0681ZM22.6468 20.2277L21.7664 19.7535L21.7518 19.7807L21.7388 19.8086L22.6468 20.2277ZM21.1 22.1956L21.8299 22.8791L21.8319 22.877L21.1 22.1956ZM19.0391 24.3962L18.3092 23.7126L18.0391 24.001V24.3962H19.0391ZM19.0391 24.5909H18.0391V27.1234L19.7693 25.2741L19.0391 24.5909ZM21.1 22.3881L21.8303 23.0713L21.8319 23.0695L21.1 22.3881ZM22.6468 20.4202L21.7663 19.9461L21.7517 19.9733L21.7388 20.0013L22.6468 20.4202ZM20.4885 24.3497V23.3497H20.0567L19.7606 23.664L20.4885 24.3497ZM20.3509 24.4957L19.6231 23.81L19.3509 24.0989V24.4957H20.3509ZM20.3509 24.5423H19.3509V25.5423H20.3509V24.5423ZM24.3799 24.5423V25.5423H25.3799V24.5423H24.3799ZM24.3799 24.3497H25.3799V23.3497H24.3799V24.3497ZM21.6163 15.6664C20.4438 15.6664 19.3861 16.0993 18.4735 16.8978L19.7905 18.4029C20.3772 17.8896 20.9773 17.6664 21.6163 17.6664V15.6664ZM18.3786 18.3079L18.4802 18.4243L19.987 17.1092L19.8855 16.9928L18.3786 18.3079ZM19.8717 18.5367C20.4375 18.0678 21.0105 17.859 21.6162 17.859V15.859C20.4903 15.859 19.476 16.267 18.5955 16.9968L19.8717 18.5367ZM21.6162 17.859C22.1801 17.859 22.5068 18.0075 22.7154 18.2012L24.0763 16.7356C23.4104 16.1172 22.5515 15.859 21.6162 15.859V17.859ZM22.7154 18.2012C22.899 18.3717 23.0252 18.6143 23.0421 19.0266L25.0404 18.9446C25.0058 18.1019 24.7123 17.3261 24.0763 16.7356L22.7154 18.2012ZM25.0409 19.0118C25.0393 19.0715 25.0322 19.1178 25.028 19.1414C25.0259 19.1537 25.024 19.1628 25.0231 19.1667C25.0225 19.1695 25.0219 19.1724 25.0231 19.1671C25.0238 19.164 25.0259 19.1543 25.0282 19.143C25.0306 19.1313 25.034 19.1143 25.0373 19.0939C25.0438 19.0541 25.0518 18.9918 25.0518 18.9158H23.0518C23.0518 18.8514 23.0587 18.8007 23.0633 18.7725C23.0656 18.758 23.0679 18.7468 23.0691 18.7408C23.0702 18.7354 23.0711 18.7315 23.0705 18.7343C23.0704 18.7348 23.0684 18.7434 23.0666 18.7521C23.0645 18.7617 23.0615 18.7767 23.0583 18.7948C23.0521 18.8301 23.0435 18.888 23.0416 18.9593L25.0409 19.0118ZM25.0518 18.9158C25.0518 17.9968 24.7489 17.1676 24.0763 16.543L22.7154 18.0086C22.9174 18.1961 23.0518 18.4605 23.0518 18.9158H25.0518ZM24.0763 16.543C23.4104 15.9246 22.5516 15.6664 21.6163 15.6664V17.6664C22.1802 17.6664 22.5068 17.8149 22.7155 18.0086L24.0763 16.543ZM21.963 19.0268C21.9523 19.2835 21.891 19.5221 21.7664 19.7535L23.5273 20.7018C23.804 20.1879 23.9389 19.6507 23.9612 19.1094L21.963 19.0268ZM21.7388 19.8086C21.6284 20.048 21.2246 20.5943 20.3681 21.5142L21.8319 22.877C22.662 21.9854 23.2904 21.2194 23.5548 20.6467L21.7388 19.8086ZM20.3701 21.512L18.3092 23.7126L19.7689 25.0798L21.8299 22.8791L20.3701 21.512ZM18.0391 24.3962V24.5909H20.0391V24.3962H18.0391ZM19.7693 25.2741L21.8302 23.0713L20.3698 21.7049L18.3088 23.9077L19.7693 25.2741ZM21.8319 23.0695C22.662 22.178 23.2906 21.412 23.5548 20.8391L21.7388 20.0013C21.6284 20.2405 21.2247 20.7867 20.3681 21.7067L21.8319 23.0695ZM23.5273 20.8943C23.82 20.3507 23.9748 19.7665 23.9748 19.1548H21.9748C21.9748 19.4176 21.9109 19.6776 21.7663 19.9461L23.5273 20.8943ZM23.9748 19.1548C23.9748 19.0215 23.9499 18.9158 23.9458 18.897C23.9441 18.8891 23.9448 18.8924 23.945 18.8933C23.9456 18.8961 23.9473 18.9043 23.9493 18.9155C23.9534 18.9387 23.9591 18.9768 23.9611 19.0245L21.9631 19.1117C21.9658 19.175 21.9734 19.2277 21.9801 19.2651C21.9833 19.2834 21.9864 19.2985 21.9885 19.3082C21.9895 19.3131 21.9904 19.3173 21.991 19.32C21.9913 19.3213 21.9916 19.3226 21.9918 19.3233C21.992 19.3243 21.9921 19.3247 21.9921 19.3251C21.9925 19.3269 21.9915 19.3223 21.9902 19.3155C21.9887 19.3082 21.9865 19.2962 21.9842 19.281C21.9794 19.2496 21.9748 19.2063 21.9748 19.1548H23.9748ZM19.7606 23.664L19.6231 23.81L21.0788 25.1814L21.2163 25.0354L19.7606 23.664ZM19.3509 24.4957V24.5423H21.3509V24.4957H19.3509ZM20.3509 25.5423H24.3799V23.5423H20.3509V25.5423ZM25.3799 24.5423V24.3497H23.3799V24.5423H25.3799ZM24.3799 23.3497H20.4885V25.3497H24.3799V23.3497Z" fill="#232323" mask="url(#path-6-inside-1_4_25758)"/>
<path d="M37.625 12.8327H46.9596C48.8926 12.8327 50.4596 14.3997 50.4596 16.3327V25.6673C50.4596 27.6003 48.8926 29.1673 46.9596 29.1673H37.625C35.692 29.1673 34.125 27.6003 34.125 25.6673V16.3327C34.125 14.3997 35.692 12.8327 37.625 12.8327Z" fill="url(#paint5_linear_4_25758)" stroke="#232323"/>
<path d="M42.7402 25.4355C42.0985 25.4355 41.5519 25.2609 41.1005 24.9117C40.649 24.5596 40.304 24.0499 40.0655 23.3826C39.827 22.7125 39.7077 21.9033 39.7077 20.9549C39.7077 20.0122 39.827 19.2073 40.0655 18.54C40.3068 17.8699 40.6533 17.3588 41.1047 17.0067C41.559 16.6518 42.1042 16.4743 42.7402 16.4743C43.3763 16.4743 43.92 16.6518 44.3715 17.0067C44.8258 17.3588 45.1722 17.8699 45.4107 18.54C45.6521 19.2073 45.7727 20.0122 45.7727 20.9549C45.7727 21.9033 45.6535 22.7125 45.415 23.3826C45.1765 24.0499 44.8315 24.5596 44.38 24.9117C43.9285 25.2609 43.3819 25.4355 42.7402 25.4355ZM42.7402 24.4985C43.3763 24.4985 43.8703 24.1919 44.2224 23.5786C44.5745 22.9652 44.7505 22.0907 44.7505 20.9549C44.7505 20.1996 44.6696 19.5565 44.5078 19.0255C44.3488 18.4946 44.1188 18.0899 43.8178 17.8117C43.5197 17.5334 43.1605 17.3943 42.7402 17.3943C42.1099 17.3943 41.6172 17.7052 41.2623 18.327C40.9074 18.946 40.7299 19.822 40.7299 20.9549C40.7299 21.7102 40.8094 22.3519 40.9684 22.8801C41.1274 23.4082 41.356 23.81 41.6541 24.0854C41.9551 24.3608 42.3172 24.4985 42.7402 24.4985Z" fill="url(#paint6_linear_4_25758)"/>
<path d="M41.1005 24.9117L40.4855 25.7002L40.4886 25.7026L41.1005 24.9117ZM40.0655 23.3826L39.1234 23.718L39.1238 23.7192L40.0655 23.3826ZM40.0655 18.54L39.1247 18.2011L39.1238 18.2034L40.0655 18.54ZM41.1047 17.0067L41.7197 17.7953L41.7204 17.7947L41.1047 17.0067ZM44.3715 17.0067L43.7534 17.7929L43.7589 17.7971L44.3715 17.0067ZM45.4107 18.54L44.4686 18.8753L44.4703 18.8801L45.4107 18.54ZM45.415 23.3826L46.3566 23.7192L46.3571 23.718L45.415 23.3826ZM44.38 24.9117L44.9919 25.7026L44.995 25.7002L44.38 24.9117ZM44.2224 23.5786L43.3552 23.0807L44.2224 23.5786ZM44.5078 19.0255L43.5498 19.3124L43.5512 19.3171L44.5078 19.0255ZM43.8178 17.8117L43.1355 18.5427L43.1389 18.546L43.8178 17.8117ZM41.2623 18.327L42.1298 18.8245L42.1308 18.8228L41.2623 18.327ZM40.9684 22.8801L40.0109 23.1684H40.0109L40.9684 22.8801ZM41.6541 24.0854L40.9756 24.8199L40.9791 24.8231L41.6541 24.0854ZM42.7402 24.4355C42.291 24.4355 41.967 24.3177 41.7123 24.1207L40.4886 25.7026C41.1369 26.2041 41.906 26.4355 42.7402 26.4355V24.4355ZM41.7154 24.1231C41.4455 23.9126 41.197 23.5772 41.0071 23.046L39.1238 23.7192C39.411 24.5226 39.8525 25.2066 40.4855 25.7002L41.7154 24.1231ZM41.0076 23.0473C40.8178 22.514 40.7077 21.8248 40.7077 20.9549H38.7077C38.7077 21.9818 38.8362 22.911 39.1234 23.718L41.0076 23.0473ZM40.7077 20.9549C40.7077 20.0914 40.8176 19.4067 41.0071 18.8766L39.1238 18.2034C38.8363 19.0078 38.7077 19.9331 38.7077 20.9549H40.7077ZM41.0063 18.8789C41.1993 18.3432 41.4496 18.0059 41.7197 17.7953L40.4897 16.2182C39.8569 16.7117 39.4144 17.3966 39.1247 18.2011L41.0063 18.8789ZM41.7204 17.7947C41.9805 17.5915 42.3029 17.4743 42.7402 17.4743V15.4743C41.9055 15.4743 41.1375 15.7121 40.4891 16.2187L41.7204 17.7947ZM42.7402 17.4743C43.1776 17.4743 43.4973 17.5915 43.7534 17.7929L44.9895 16.2206C44.3427 15.7121 43.5749 15.4743 42.7402 15.4743V17.4743ZM43.7589 17.7971C44.0298 18.0071 44.279 18.3425 44.4686 18.8753L46.3528 18.2047C46.0654 17.3973 45.6217 16.7105 44.984 16.2163L43.7589 17.7971ZM44.4703 18.8801C44.6617 19.4091 44.7727 20.0924 44.7727 20.9549H46.7727C46.7727 19.9321 46.6425 19.0054 46.3511 18.1999L44.4703 18.8801ZM44.7727 20.9549C44.7727 21.8248 44.6627 22.514 44.4729 23.0473L46.3571 23.718C46.6443 22.911 46.7727 21.9818 46.7727 20.9549H44.7727ZM44.4733 23.046C44.2835 23.5772 44.035 23.9126 43.765 24.1231L44.995 25.7002C45.6279 25.2066 46.0694 24.5226 46.3566 23.7192L44.4733 23.046ZM43.7681 24.1207C43.5135 24.3177 43.1894 24.4355 42.7402 24.4355V26.4355C43.5744 26.4355 44.3436 26.2041 44.9919 25.7026L43.7681 24.1207ZM42.7402 25.4985C43.7804 25.4985 44.5834 24.9583 45.0897 24.0764L43.3552 23.0807C43.1572 23.4255 42.9721 23.4985 42.7402 23.4985V25.4985ZM45.0897 24.0764C45.5663 23.2461 45.7505 22.1701 45.7505 20.9549H43.7505C43.7505 22.0113 43.5827 22.6843 43.3552 23.0807L45.0897 24.0764ZM45.7505 20.9549C45.7505 20.1339 45.6632 19.3866 45.4643 18.734L43.5512 19.3171C43.676 19.7265 43.7505 20.2654 43.7505 20.9549H45.7505ZM45.4657 18.7387C45.2728 18.0945 44.9674 17.5126 44.4966 17.0774L43.1389 18.546C43.2701 18.6672 43.4247 18.8947 43.5498 19.3124L45.4657 18.7387ZM44.5001 17.0806C44.0107 16.6238 43.4052 16.3943 42.7402 16.3943V18.3943C42.9157 18.3943 43.0286 18.443 43.1355 18.5427L44.5001 17.0806ZM42.7402 16.3943C41.6957 16.3943 40.8976 16.9487 40.3938 17.8313L42.1308 18.8228C42.3369 18.4617 42.524 18.3943 42.7402 18.3943V16.3943ZM40.3948 17.8296C39.9163 18.6641 39.7299 19.7402 39.7299 20.9549H41.7299C41.7299 19.9037 41.8984 19.228 42.1298 18.8245L40.3948 17.8296ZM39.7299 20.9549C39.7299 21.7745 39.8155 22.5194 40.0109 23.1684L41.926 22.5918C41.8033 22.1845 41.7299 21.6459 41.7299 20.9549H39.7299ZM40.0109 23.1684C40.2036 23.8084 40.5074 24.3874 40.9756 24.8199L42.3327 23.3509C42.2046 23.2325 42.0513 23.0079 41.926 22.5918L40.0109 23.1684ZM40.9791 24.8231C41.4718 25.274 42.0774 25.4985 42.7402 25.4985V23.4985C42.5569 23.4985 42.4385 23.4476 42.3292 23.3477L40.9791 24.8231Z" fill="#232323"/>
<mask id="path-11-inside-2_4_25758" fill="white">
<path d="M42.2716 16.5963C41.3659 16.5963 40.6791 16.9703 40.2107 17.7199C39.7734 18.4382 39.5547 19.5317 39.5547 20.9997C39.5547 21.0522 39.5604 21.0962 39.5611 21.1478C39.5762 19.7585 39.7891 18.7086 40.2107 18.0161C40.6792 17.2665 41.3659 16.8903 42.2717 16.8903C43.2087 16.8903 43.8954 17.2664 44.3326 18.0161C44.7843 18.7086 45.0126 19.7585 45.0288 21.1478C45.0294 21.0962 45.0352 21.0522 45.0352 20.9997C45.0352 19.5316 44.8012 18.4382 44.3327 17.7199C43.8954 16.9703 43.2086 16.5963 42.2716 16.5963ZM40.6359 21.1499C40.6355 21.2015 40.6317 21.243 40.6317 21.2959C40.6317 22.6702 40.7717 23.6063 41.0528 24.1061C41.3651 24.5746 41.7719 24.8086 42.2716 24.8086C42.8026 24.8086 43.2093 24.5593 43.4904 24.0595C43.8028 23.5598 43.9581 22.6391 43.9581 21.296C43.9581 21.2432 43.9544 21.2014 43.9538 21.15C43.9417 22.406 43.7901 23.2837 43.4904 23.7632C43.2093 24.263 42.8026 24.5144 42.2716 24.5144C41.7719 24.5144 41.3651 24.2804 41.0528 23.8119C40.7828 23.332 40.6466 22.4365 40.6359 21.1499Z"/>
</mask>
<path d="M42.2716 16.5963C41.3659 16.5963 40.6791 16.9703 40.2107 17.7199C39.7734 18.4382 39.5547 19.5317 39.5547 20.9997C39.5547 21.0522 39.5604 21.0962 39.5611 21.1478C39.5762 19.7585 39.7891 18.7086 40.2107 18.0161C40.6792 17.2665 41.3659 16.8903 42.2717 16.8903C43.2087 16.8903 43.8954 17.2664 44.3326 18.0161C44.7843 18.7086 45.0126 19.7585 45.0288 21.1478C45.0294 21.0962 45.0352 21.0522 45.0352 20.9997C45.0352 19.5316 44.8012 18.4382 44.3327 17.7199C43.8954 16.9703 43.2086 16.5963 42.2716 16.5963ZM40.6359 21.1499C40.6355 21.2015 40.6317 21.243 40.6317 21.2959C40.6317 22.6702 40.7717 23.6063 41.0528 24.1061C41.3651 24.5746 41.7719 24.8086 42.2716 24.8086C42.8026 24.8086 43.2093 24.5593 43.4904 24.0595C43.8028 23.5598 43.9581 22.6391 43.9581 21.296C43.9581 21.2432 43.9544 21.2014 43.9538 21.15C43.9417 22.406 43.7901 23.2837 43.4904 23.7632C43.2093 24.263 42.8026 24.5144 42.2716 24.5144C41.7719 24.5144 41.3651 24.2804 41.0528 23.8119C40.7828 23.332 40.6466 22.4365 40.6359 21.1499Z" fill="url(#paint7_linear_4_25758)"/>
<path d="M40.2107 17.7199L39.3626 17.1898L39.3565 17.1999L40.2107 17.7199ZM39.5611 21.1478L38.5612 21.1604L40.561 21.1587L39.5611 21.1478ZM40.2107 18.0161L39.3626 17.486L39.3565 17.4961L40.2107 18.0161ZM42.2717 16.8903V15.8903V16.8903ZM44.3326 18.0161L43.4688 18.5199L43.4814 18.5415L43.495 18.5623L44.3326 18.0161ZM45.0288 21.1478L44.0289 21.1595L46.0287 21.1594L45.0288 21.1478ZM44.3327 17.7199L43.4689 18.2237L43.4815 18.2453L43.4951 18.2662L44.3327 17.7199ZM40.6359 21.1499L41.6359 21.1416L39.6359 21.1415L40.6359 21.1499ZM41.0528 24.1061L40.1812 24.5963L40.1997 24.6293L40.2207 24.6608L41.0528 24.1061ZM43.4904 24.0595L42.6424 23.5295L42.6302 23.5491L42.6189 23.5693L43.4904 24.0595ZM43.9538 21.15L44.9538 21.1394L42.9539 21.1403L43.9538 21.15ZM43.4904 23.7632L42.6424 23.2332L42.6302 23.2528L42.6189 23.273L43.4904 23.7632ZM41.0528 23.8119L40.1812 24.3022L40.1997 24.3351L40.2207 24.3666L41.0528 23.8119ZM42.2716 15.5963C41.0319 15.5963 40.0195 16.1388 39.3626 17.1899L41.0587 18.2498C41.3387 17.8017 41.6998 17.5963 42.2716 17.5963V15.5963ZM39.3565 17.1999C38.7766 18.1526 38.5547 19.4677 38.5547 20.9997H40.5547C40.5547 19.5958 40.7702 18.7239 41.0649 18.2398L39.3565 17.1999ZM38.5547 20.9997C38.5547 21.0607 38.5581 21.1129 38.5596 21.1371C38.5616 21.1676 38.5612 21.1647 38.5612 21.1604L40.561 21.1352C40.5603 21.0792 40.5568 21.0286 40.5557 21.011C40.5541 20.9872 40.5547 20.9912 40.5547 20.9997H38.5547ZM40.561 21.1587C40.5755 19.8306 40.7835 18.9983 41.0649 18.536L39.3565 17.4961C38.7948 18.4189 38.577 19.6864 38.5611 21.1369L40.561 21.1587ZM41.0587 18.5461C41.3398 18.0964 41.7018 17.8903 42.2717 17.8903V15.8903C41.0301 15.8903 40.0186 16.4366 39.3627 17.4861L41.0587 18.5461ZM42.2717 17.8903C42.8861 17.8903 43.2269 18.1051 43.4688 18.5199L45.1964 17.5122C44.5639 16.4278 43.5312 15.8903 42.2717 15.8903V17.8903ZM43.495 18.5623C43.7921 19.0179 44.0135 19.8389 44.0289 21.1595L46.0287 21.1361C46.0117 19.6782 45.7764 18.3993 45.1702 17.4698L43.495 18.5623ZM46.0287 21.1594C46.0287 21.1644 46.0283 21.1676 46.0302 21.1373C46.0317 21.1134 46.0352 21.0609 46.0352 20.9997H44.0352C44.0352 20.9909 44.0358 20.9867 44.0342 21.0108C44.0331 21.0286 44.0295 21.0796 44.0289 21.1362L46.0287 21.1594ZM46.0352 20.9997C46.0352 19.4603 45.7962 18.1332 45.1703 17.1735L43.4951 18.2662C43.8062 18.7431 44.0352 19.603 44.0352 20.9997H46.0352ZM45.1965 17.216C44.563 16.13 43.5292 15.5963 42.2716 15.5963V17.5963C42.8879 17.5963 43.2278 17.8105 43.4689 18.2237L45.1965 17.216ZM39.6359 21.1415C39.6359 21.1469 39.6357 21.1521 39.6345 21.1797C39.6335 21.2039 39.6317 21.2462 39.6317 21.2959H41.6317C41.6317 21.2928 41.6317 21.2878 41.6327 21.2651C41.6335 21.2458 41.6355 21.2045 41.6359 21.1584L39.6359 21.1415ZM39.6317 21.2959C39.6317 22.0126 39.6679 22.6432 39.7478 23.1771C39.8258 23.6976 39.9547 24.1936 40.1812 24.5963L41.9244 23.6158C41.8697 23.5187 41.7881 23.2969 41.7258 22.8808C41.6655 22.4781 41.6317 21.9536 41.6317 21.2959H39.6317ZM40.2207 24.6608C40.6915 25.367 41.3916 25.8086 42.2716 25.8086V23.8086C42.1521 23.8086 42.0387 23.7822 41.8848 23.5514L40.2207 24.6608ZM42.2716 25.8086C43.1966 25.8086 43.9204 25.3348 44.362 24.5498L42.6189 23.5693C42.4982 23.7837 42.4086 23.8086 42.2716 23.8086V25.8086ZM44.3384 24.5895C44.5926 24.1829 44.739 23.6832 44.8274 23.1607C44.9176 22.6269 44.9581 22.0013 44.9581 21.296H42.9581C42.9581 21.9338 42.9208 22.44 42.8554 22.8273C42.788 23.2259 42.7006 23.4364 42.6424 23.5295L44.3384 24.5895ZM44.9581 21.296C44.9581 21.2469 44.9563 21.2051 44.9553 21.1804C44.9541 21.1523 44.9539 21.1461 44.9538 21.1394L42.9539 21.1605C42.9544 21.2052 42.9563 21.2457 42.957 21.2645C42.958 21.2868 42.9581 21.2923 42.9581 21.296H44.9581ZM42.9539 21.1403C42.9482 21.735 42.9094 22.2098 42.8452 22.5743C42.779 22.95 42.696 23.1476 42.6424 23.2332L44.3384 24.2932C44.5846 23.8994 44.7273 23.4183 44.8148 22.9213C44.9044 22.413 44.9474 21.8209 44.9538 21.1596L42.9539 21.1403ZM42.6189 23.273C42.4968 23.4901 42.4058 23.5144 42.2716 23.5144V25.5144C43.1994 25.5144 43.9219 25.0359 44.362 24.2535L42.6189 23.273ZM42.2716 23.5144C42.1521 23.5144 42.0387 23.488 41.8848 23.2572L40.2207 24.3666C40.6915 25.0728 41.3916 25.5144 42.2716 25.5144V23.5144ZM41.9243 23.3217C41.8742 23.2324 41.7965 23.0237 41.7352 22.6298C41.6761 22.2493 41.641 21.7559 41.6359 21.1416L39.6359 21.1582C39.6415 21.8305 39.6799 22.4281 39.759 22.937C39.836 23.4325 39.9614 23.9115 40.1812 24.3022L41.9243 23.3217Z" fill="#232323" mask="url(#path-11-inside-2_4_25758)"/>
<path d="M17.039 34.8338H26.3737C28.3067 34.8338 29.8737 36.4008 29.8737 38.3338V47.6684C29.8737 49.6014 28.3067 51.1684 26.3737 51.1684H17.039C15.1061 51.1684 13.5391 49.6014 13.5391 47.6684V38.3338C13.5391 36.4008 15.1061 34.8338 17.039 34.8338Z" fill="url(#paint8_linear_4_25758)" stroke="#232323"/>
<path d="M19.1438 45.1956V44.3267L22.977 38.2617H23.6074V39.6076H23.1815L20.2853 44.1904V44.2586H25.4473V45.1956H19.1438ZM23.2496 46.9844V44.9315V44.5269V38.2617H24.2548V46.9844H23.2496Z" fill="url(#paint9_linear_4_25758)"/>
<path d="M19.1438 45.1956H18.1438V46.1956H19.1438V45.1956ZM19.1438 44.3267L18.2985 43.7924L18.1438 44.0372V44.3267H19.1438ZM22.977 38.2617V37.2617H22.4261L22.1317 37.7274L22.977 38.2617ZM23.6074 38.2617H24.6074V37.2617H23.6074V38.2617ZM23.6074 39.6076V40.6076H24.6074V39.6076H23.6074ZM23.1815 39.6076V38.6076H22.6305L22.3361 39.0734L23.1815 39.6076ZM20.2853 44.1904L19.4399 43.6562L19.2853 43.9009V44.1904H20.2853ZM20.2853 44.2586H19.2853V45.2586H20.2853V44.2586ZM25.4473 44.2586H26.4473V43.2586H25.4473V44.2586ZM25.4473 45.1956V46.1956H26.4473V45.1956H25.4473ZM23.2496 46.9844H22.2496V47.9844H23.2496V46.9844ZM23.2496 38.2617V37.2617H22.2496V38.2617H23.2496ZM24.2548 38.2617H25.2548V37.2617H24.2548V38.2617ZM24.2548 46.9844V47.9844H25.2548V46.9844H24.2548ZM20.1438 45.1956V44.3267H18.1438V45.1956H20.1438ZM19.9891 44.861L23.8224 38.796L22.1317 37.7274L18.2985 43.7924L19.9891 44.861ZM22.977 39.2617H23.6074V37.2617H22.977V39.2617ZM22.6074 38.2617V39.6076H24.6074V38.2617H22.6074ZM23.6074 38.6076H23.1815V40.6076H23.6074V38.6076ZM22.3361 39.0734L19.4399 43.6562L21.1306 44.7246L24.0268 40.1418L22.3361 39.0734ZM19.2853 44.1904V44.2586H21.2853V44.1904H19.2853ZM20.2853 45.2586H25.4473V43.2586H20.2853V45.2586ZM24.4473 44.2586V45.1956H26.4473V44.2586H24.4473ZM25.4473 44.1956H19.1438V46.1956H25.4473V44.1956ZM24.2496 46.9844V44.9315H22.2496V46.9844H24.2496ZM24.2496 44.9315V44.5269H22.2496V44.9315H24.2496ZM24.2496 44.5269V38.2617H22.2496V44.5269H24.2496ZM23.2496 39.2617H24.2548V37.2617H23.2496V39.2617ZM23.2548 38.2617V46.9844H25.2548V38.2617H23.2548ZM24.2548 45.9844H23.2496V47.9844H24.2548V45.9844Z" fill="#232323"/>
<mask id="path-16-inside-3_4_25758" fill="white">
<path d="M22.4731 38.358L18.5859 44.12V44.3231L22.4731 38.5611H23.5523V38.358H22.4731ZM22.6085 39.6847C22.5556 40.5819 22.5218 41.3798 22.5218 42.0123V42.2154C22.5218 41.5283 22.5524 40.6842 22.6149 39.6847H22.6085ZM19.7561 44.0734L19.6165 44.2765H22.5217V44.0734H19.7561ZM23.5523 44.0734V44.2765H24.8155V44.0734H23.5523Z"/>
</mask>
<path d="M22.4731 38.358L18.5859 44.12V44.3231L22.4731 38.5611H23.5523V38.358H22.4731ZM22.6085 39.6847C22.5556 40.5819 22.5218 41.3798 22.5218 42.0123V42.2154C22.5218 41.5283 22.5524 40.6842 22.6149 39.6847H22.6085ZM19.7561 44.0734L19.6165 44.2765H22.5217V44.0734H19.7561ZM23.5523 44.0734V44.2765H24.8155V44.0734H23.5523Z" fill="url(#paint10_linear_4_25758)"/>
<path d="M22.4731 38.358V37.358H21.9414L21.6441 37.7987L22.4731 38.358ZM18.5859 44.12L17.7569 43.5607L17.5859 43.8142V44.12H18.5859ZM18.5859 44.3231H17.5859V47.5935L19.4149 44.8824L18.5859 44.3231ZM22.4731 38.5611V37.5611H21.9414L21.6441 38.0019L22.4731 38.5611ZM23.5523 38.5611V39.5611H24.5523V38.5611H23.5523ZM23.5523 38.358H24.5523V37.358H23.5523V38.358ZM22.6085 39.6847V38.6847H21.6658L21.6103 39.6258L22.6085 39.6847ZM22.6149 39.6847L23.6129 39.7471L23.6793 38.6847H22.6149V39.6847ZM19.7561 44.0734V43.0734H19.2301L18.9321 43.5068L19.7561 44.0734ZM19.6165 44.2765L18.7924 43.71L17.7154 45.2765H19.6165V44.2765ZM22.5217 44.2765V45.2765H23.5217V44.2765H22.5217ZM22.5217 44.0734H23.5217V43.0734H22.5217V44.0734ZM23.5523 44.0734V43.0734H22.5523V44.0734H23.5523ZM23.5523 44.2765H22.5523V45.2765H23.5523V44.2765ZM24.8155 44.2765V45.2765H25.8155V44.2765H24.8155ZM24.8155 44.0734H25.8155V43.0734H24.8155V44.0734ZM21.6441 37.7987L17.7569 43.5607L19.4149 44.6792L23.3021 38.9172L21.6441 37.7987ZM17.5859 44.12V44.3231H19.5859V44.12H17.5859ZM19.4149 44.8824L23.3021 39.1204L21.6441 38.0019L17.7569 43.7639L19.4149 44.8824ZM22.4731 39.5611H23.5523V37.5611H22.4731V39.5611ZM24.5523 38.5611V38.358H22.5523V38.5611H24.5523ZM23.5523 37.358H22.4731V39.358H23.5523V37.358ZM21.6103 39.6258C21.557 40.5286 21.5218 41.3499 21.5218 42.0123H23.5218C23.5218 41.4097 23.5542 40.6352 23.6068 39.7436L21.6103 39.6258ZM21.5218 42.0123V42.2154H23.5218V42.0123H21.5218ZM23.5218 42.2154C23.5218 41.5557 23.5513 40.7336 23.6129 39.7471L21.6168 39.6223C21.5535 40.6347 21.5218 41.5009 21.5218 42.2154H23.5218ZM22.6149 38.6847H22.6085V40.6847H22.6149V38.6847ZM18.9321 43.5068L18.7924 43.71L20.4405 44.8431L20.5802 44.6399L18.9321 43.5068ZM19.6165 45.2765H22.5217V43.2765H19.6165V45.2765ZM23.5217 44.2765V44.0734H21.5217V44.2765H23.5217ZM22.5217 43.0734H19.7561V45.0734H22.5217V43.0734ZM22.5523 44.0734V44.2765H24.5523V44.0734H22.5523ZM23.5523 45.2765H24.8155V43.2765H23.5523V45.2765ZM25.8155 44.2765V44.0734H23.8155V44.2765H25.8155ZM24.8155 43.0734H23.5523V45.0734H24.8155V43.0734Z" fill="#232323" mask="url(#path-16-inside-3_4_25758)"/>
<path d="M37.625 34.8338H46.9596C48.8926 34.8338 50.4596 36.4008 50.4596 38.3338V47.6684C50.4596 49.6014 48.8926 51.1684 46.9596 51.1684H37.625C35.692 51.1684 34.125 49.6014 34.125 47.6684V38.3338C34.125 36.4008 35.692 34.8338 37.625 34.8338Z" fill="url(#paint11_linear_4_25758)" stroke="#232323"/>
<path d="M42.6891 47.1035C42.1042 47.1035 41.5874 46.9999 41.1388 46.7926C40.693 46.5825 40.3452 46.2943 40.0953 45.928C39.8454 45.5589 39.7219 45.1386 39.7248 44.6673C39.7219 44.2982 39.7943 43.9574 39.942 43.6451C40.0896 43.3299 40.2912 43.0673 40.5468 42.8571C40.8052 42.6442 41.0934 42.5093 41.4114 42.4525V42.4014C40.994 42.2935 40.6618 42.0593 40.4147 41.6987C40.1677 41.3352 40.0456 40.9221 40.0485 40.4593C40.0456 40.0163 40.1578 39.6202 40.3849 39.271C40.6121 38.9217 40.9244 38.6463 41.3219 38.4447C41.7223 38.2431 42.178 38.1423 42.6891 38.1423C43.1945 38.1423 43.646 38.2431 44.0435 38.4447C44.441 38.6463 44.7534 38.9217 44.9805 39.271C45.2105 39.6202 45.3269 40.0163 45.3298 40.4593C45.3269 40.9221 45.2006 41.3352 44.9507 41.6987C44.7037 42.0593 44.3757 42.2935 43.9669 42.4014V42.4525C44.282 42.5093 44.566 42.6442 44.8187 42.8571C45.0714 43.0673 45.273 43.3299 45.4235 43.6451C45.574 43.9574 45.6506 44.2982 45.6535 44.6673C45.6506 45.1386 45.5229 45.5589 45.2702 45.928C45.0203 46.2943 44.6725 46.5825 44.2267 46.7926C43.7837 46.9999 43.2712 47.1035 42.6891 47.1035ZM42.6891 46.1665C43.0838 46.1665 43.4245 46.1026 43.7113 45.9748C43.9981 45.8471 44.2196 45.6668 44.3757 45.4339C44.5319 45.2011 44.6114 44.9285 44.6142 44.6162C44.6114 44.2868 44.5262 43.9958 44.3587 43.743C44.1912 43.4903 43.9626 43.2916 43.673 43.1468C43.3862 43.002 43.0582 42.9296 42.6891 42.9296C42.3172 42.9296 41.9849 43.002 41.6925 43.1468C41.4029 43.2916 41.1743 43.4903 41.0068 43.743C40.8421 43.9958 40.7611 44.2868 40.764 44.6162C40.7611 44.9285 40.8364 45.2011 40.9897 45.4339C41.1459 45.6668 41.3688 45.8471 41.6584 45.9748C41.948 46.1026 42.2916 46.1665 42.6891 46.1665ZM42.6891 42.0266C43.0015 42.0266 43.2783 41.9641 43.5197 41.8392C43.7638 41.7143 43.9555 41.5397 44.0946 41.3153C44.2338 41.091 44.3048 40.8284 44.3076 40.5274C44.3048 40.2321 44.2352 39.9751 44.0989 39.7565C43.9626 39.535 43.7738 39.3647 43.5324 39.2454C43.2911 39.1233 43.01 39.0623 42.6891 39.0623C42.3626 39.0623 42.0772 39.1233 41.833 39.2454C41.5888 39.3647 41.4 39.535 41.2666 39.7565C41.1331 39.9751 41.0678 40.2321 41.0706 40.5274C41.0678 40.8284 41.1345 41.091 41.2708 41.3153C41.41 41.5397 41.6016 41.7143 41.8458 41.8392C42.09 41.9641 42.3711 42.0266 42.6891 42.0266Z" fill="#232323"/>
<path d="M42.3185 38.2646C41.5689 38.2646 40.9762 38.468 40.5389 38.874C40.1017 39.2488 39.883 39.7322 39.883 40.3256C39.883 40.3603 39.8942 40.3909 39.8957 40.425C39.9295 39.8987 40.1386 39.4604 40.5389 39.1174C40.9762 38.7113 41.5689 38.5079 42.3185 38.5079C43.0369 38.5079 43.6143 38.7113 44.0515 39.1174C44.4507 39.4595 44.6579 39.8965 44.6927 40.4208C44.6941 40.3877 44.7075 40.3593 44.7075 40.3256C44.7075 39.7322 44.4888 39.2488 44.0515 38.874C43.6143 38.468 43.0369 38.2646 42.3185 38.2646ZM40.9791 40.4885C40.976 40.5342 40.9601 40.5666 40.9601 40.6155C40.9601 41.3026 41.4128 41.8494 42.3186 42.2554C43.2243 41.8494 43.677 41.3027 43.677 40.6155C43.677 40.569 43.6591 40.5385 43.6559 40.4949C43.6026 41.1223 43.1675 41.6315 42.3185 42.0121C41.4666 41.6302 41.0297 41.1191 40.9791 40.4885ZM43.3575 42.5581C43.2886 42.5961 43.2371 42.6406 43.1628 42.6766C44.3209 43.3001 44.9213 44.0243 44.9784 44.8455C44.9802 44.8059 44.989 44.7697 44.989 44.7292C44.989 43.9078 44.432 43.1865 43.3575 42.5581ZM41.1061 42.5898C40.1158 43.1151 39.6016 43.8377 39.6016 44.7757C39.6016 44.8152 39.6108 44.8493 39.6122 44.8878C39.6606 43.9536 40.2144 43.2323 41.2881 42.7252C41.2184 42.6834 41.1706 42.6333 41.1061 42.5898ZM43.9458 44.9449C43.9146 45.3294 43.7827 45.6368 43.5374 45.8548C43.2563 46.1047 42.8342 46.2293 42.272 46.2293C41.741 46.2293 41.3343 46.12 41.0532 45.9013C40.828 45.6762 40.72 45.3496 40.6977 44.947C40.6951 44.9885 40.6786 45.0252 40.6786 45.0676C40.6786 45.5361 40.8033 45.8948 41.0532 46.1447C41.3343 46.3633 41.741 46.4727 42.272 46.4727C42.8342 46.4727 43.2563 46.348 43.5374 46.0981C43.8185 45.8483 43.9585 45.4875 43.9585 45.019C43.9585 44.9925 43.9471 44.9708 43.9458 44.9449Z" fill="#232323"/>
<defs>
<filter id="filter0_f_4_25758" x="3.26249" y="3.26252" width="57.475" height="57.4754" filterUnits="userSpaceOnUse" color-interpolation-filters="sRGB">
<feFlood flood-opacity="0" result="BackgroundImageFix"/>
<feBlend mode="normal" in="SourceGraphic" in2="BackgroundImageFix" result="shape"/>
<feGaussianBlur stdDeviation="0.618754" result="effect1_foregroundBlur_4_25758"/>
</filter>
<linearGradient id="paint0_linear_4_25758" x1="4.5" y1="32.0002" x2="59.5004" y2="32.0002" gradientUnits="userSpaceOnUse">
<stop stop-color="#FDFC47"/>
<stop offset="1" stop-color="#24FE41"/>
</linearGradient>
<linearGradient id="paint1_linear_4_25758" x1="4.5" y1="32.0004" x2="59.5008" y2="32.0004" gradientUnits="userSpaceOnUse">
<stop stop-color="#FDFC47"/>
<stop offset="1" stop-color="#24FE41"/>
</linearGradient>
<linearGradient id="paint2_linear_4_25758" x1="13.0391" y1="21" x2="30.3737" y2="21" gradientUnits="userSpaceOnUse">
<stop stop-color="#FDFC47"/>
<stop offset="1" stop-color="#24FE41"/>
</linearGradient>
<linearGradient id="paint3_linear_4_25758" x1="18.4766" y1="20.8398" x2="26.4766" y2="20.8398" gradientUnits="userSpaceOnUse">
<stop stop-color="#FDFC47"/>
<stop offset="1" stop-color="#24FE41"/>
</linearGradient>
<linearGradient id="paint4_linear_4_25758" x1="19.0391" y1="20.6286" x2="24.3799" y2="20.6286" gradientUnits="userSpaceOnUse">
<stop stop-color="#FDFC47"/>
<stop offset="1" stop-color="#24FE41"/>
</linearGradient>
<linearGradient id="paint5_linear_4_25758" x1="33.625" y1="21" x2="50.9596" y2="21" gradientUnits="userSpaceOnUse">
<stop stop-color="#FDFC47"/>
<stop offset="1" stop-color="#24FE41"/>
</linearGradient>
<linearGradient id="paint6_linear_4_25758" x1="38.9922" y1="20.8163" x2="46.9922" y2="20.8163" gradientUnits="userSpaceOnUse">
<stop stop-color="#FDFC47"/>
<stop offset="1" stop-color="#24FE41"/>
</linearGradient>
<linearGradient id="paint7_linear_4_25758" x1="39.5547" y1="20.7024" x2="45.0352" y2="20.7024" gradientUnits="userSpaceOnUse">
<stop stop-color="#FDFC47"/>
<stop offset="1" stop-color="#24FE41"/>
</linearGradient>
<linearGradient id="paint8_linear_4_25758" x1="13.0391" y1="43.0011" x2="30.3737" y2="43.0011" gradientUnits="userSpaceOnUse">
<stop stop-color="#FDFC47"/>
<stop offset="1" stop-color="#24FE41"/>
</linearGradient>
<linearGradient id="paint9_linear_4_25758" x1="18.4453" y1="42.4844" x2="26.4453" y2="42.4844" gradientUnits="userSpaceOnUse">
<stop stop-color="#FDFC47"/>
<stop offset="1" stop-color="#24FE41"/>
</linearGradient>
<linearGradient id="paint10_linear_4_25758" x1="18.5859" y1="41.3405" x2="24.8155" y2="41.3405" gradientUnits="userSpaceOnUse">
<stop stop-color="#FDFC47"/>
<stop offset="1" stop-color="#24FE41"/>
</linearGradient>
<linearGradient id="paint11_linear_4_25758" x1="33.625" y1="43.0011" x2="50.9596" y2="43.0011" gradientUnits="userSpaceOnUse">
<stop stop-color="#FDFC47"/>
<stop offset="1" stop-color="#24FE41"/>
</linearGradient>
</defs>
</svg>
