<svg width="64" height="64" viewBox="0 0 64 64" fill="none" xmlns="http://www.w3.org/2000/svg">
<g opacity="0.3" filter="url(#filter0_f_4_25752)">
<path d="M44.5 4.5H19.5C11.2157 4.5 4.5 11.2157 4.5 19.5V44.5C4.5 52.7843 11.2157 59.5 19.5 59.5H44.5C52.7843 59.5 59.5 52.7843 59.5 44.5V19.5C59.5 11.2157 52.7843 4.5 44.5 4.5Z" fill="#232323"/>
<path d="M19.5 5H44.5C52.5081 5 59 11.4919 59 19.5V44.5C59 52.5081 52.5081 59 44.5 59H19.5C11.4919 59 5 52.5081 5 44.5V19.5C5 11.4919 11.4919 5 19.5 5Z" stroke="url(#paint0_linear_4_25752)"/>
</g>
<path d="M19.5 5H44.5C52.5081 5 59 11.4919 59 19.5V44.5C59 52.5081 52.5081 59 44.5 59H19.5C11.4919 59 5 52.5081 5 44.5V19.5C5 11.4919 11.4919 5 19.5 5Z" fill="#232323" stroke="url(#paint1_linear_4_25752)"/>
<path d="M29.8272 38.4111L29.8453 38.4127L29.8635 38.4129L33.3137 38.4559L32.6794 39.6934L17.1087 39.6927C17.7273 39.3448 18.3355 38.9109 18.9168 38.3687C20.2708 37.1058 21.4535 35.2788 22.2914 32.6442C22.9986 30.4205 24.0456 28.3102 25.3288 26.7675C26.2938 25.6074 27.3616 24.8022 28.4937 24.473C26.4346 27.3136 25.4351 30.5127 25.1028 32.6375C24.9724 33.3576 25.136 34.6889 25.8112 35.8843C26.5071 37.1162 27.7655 38.2351 29.8272 38.4111ZM34.1723 25.5893L34.1542 25.5878L34.136 25.5875L30.6858 25.5445L31.3201 24.307L46.8913 24.308C46.2728 24.6559 45.6646 25.0898 45.0833 25.6319C43.7293 26.8948 42.5466 28.7217 41.7087 31.3563L42.1852 31.5078L41.7087 31.3563C41.0015 33.58 39.9545 35.6903 38.6713 37.233C37.7063 38.3931 36.6385 39.1983 35.5064 39.5275C37.5655 36.6869 38.5644 33.4877 38.8967 31.3629C39.0271 30.6429 38.8635 29.3115 38.1883 28.1162C37.4924 26.8842 36.234 25.7654 34.1723 25.5893Z" fill="url(#paint2_linear_4_25752)" stroke="url(#paint3_linear_4_25752)"/>
<defs>
<filter id="filter0_f_4_25752" x="3.2625" y="3.2625" width="57.475" height="57.475" filterUnits="userSpaceOnUse" color-interpolation-filters="sRGB">
<feFlood flood-opacity="0" result="BackgroundImageFix"/>
<feBlend mode="normal" in="SourceGraphic" in2="BackgroundImageFix" result="shape"/>
<feGaussianBlur stdDeviation="0.61875" result="effect1_foregroundBlur_4_25752"/>
</filter>
<linearGradient id="paint0_linear_4_25752" x1="4.5" y1="32" x2="59.5" y2="32" gradientUnits="userSpaceOnUse">
<stop stop-color="#FDFC47"/>
<stop offset="1" stop-color="#24FE41"/>
</linearGradient>
<linearGradient id="paint1_linear_4_25752" x1="4.5" y1="32" x2="59.5" y2="32" gradientUnits="userSpaceOnUse">
<stop stop-color="#FDFC47"/>
<stop offset="1" stop-color="#24FE41"/>
</linearGradient>
<linearGradient id="paint2_linear_4_25752" x1="14.5" y1="32.0002" x2="49.5" y2="32.0002" gradientUnits="userSpaceOnUse">
<stop stop-color="#FDFC47"/>
<stop offset="1" stop-color="#24FE41"/>
</linearGradient>
<linearGradient id="paint3_linear_4_25752" x1="14.5" y1="32.0002" x2="49.5" y2="32.0002" gradientUnits="userSpaceOnUse">
<stop stop-color="#FDFC47"/>
<stop offset="1" stop-color="#24FE41"/>
</linearGradient>
</defs>
</svg>
