<svg width="64" height="64" viewBox="0 0 64 64" fill="none" xmlns="http://www.w3.org/2000/svg">
<g clip-path="url(#clip0_4_25857)">
<g opacity="0.3" filter="url(#filter0_f_4_25857)">
<path d="M44.5 4.5H19.5C11.2157 4.5 4.5 11.2157 4.5 19.5V44.5C4.5 52.7843 11.2157 59.5 19.5 59.5H44.5C52.7843 59.5 59.5 52.7843 59.5 44.5V19.5C59.5 11.2157 52.7843 4.5 44.5 4.5Z" fill="url(#paint0_linear_4_25857)"/>
</g>
<path d="M19.5 5H44.5C52.5081 5 59 11.4919 59 19.5V44.5C59 52.5081 52.5081 59 44.5 59H19.5C11.4919 59 5 52.5081 5 44.5V19.5C5 11.4919 11.4919 5 19.5 5Z" fill="#232323" stroke="url(#paint1_linear_4_25857)"/>
<path fill-rule="evenodd" clip-rule="evenodd" d="M34.5327 20.8503C32.8558 20.852 31.2152 21.3533 29.8095 22.2934C28.4038 23.2336 27.2931 24.5724 26.6118 26.1478C25.4684 25.5972 24.2219 25.3097 22.9592 25.3055C20.6577 25.3055 18.4504 26.2455 16.823 27.9187C15.1955 29.5919 14.2812 31.8613 14.2812 34.2276C14.2812 36.5939 15.1955 38.8632 16.823 40.5365C18.4504 42.2097 20.6577 43.1497 22.9592 43.1497H22.9622H43.2112C44.9362 43.1492 46.5903 42.4442 47.8098 41.1898C49.0293 39.9355 49.7142 38.2345 49.714 36.4609C49.7135 34.6879 49.0281 32.9876 47.8087 31.7339C46.5894 30.4802 44.9357 29.7757 43.2112 29.7752V29.7723V29.7685C43.2098 27.4032 42.2949 25.1352 40.6676 23.4632C39.0403 21.7912 36.8339 20.852 34.5332 20.852L34.5327 20.8503Z" fill="url(#paint2_linear_4_25857)"/>
</g>
<defs>
<filter id="filter0_f_4_25857" x="3.2625" y="3.2625" width="57.475" height="57.475" filterUnits="userSpaceOnUse" color-interpolation-filters="sRGB">
<feFlood flood-opacity="0" result="BackgroundImageFix"/>
<feBlend mode="normal" in="SourceGraphic" in2="BackgroundImageFix" result="shape"/>
<feGaussianBlur stdDeviation="0.61875" result="effect1_foregroundBlur_4_25857"/>
</filter>
<linearGradient id="paint0_linear_4_25857" x1="4.5" y1="32" x2="59.5" y2="32" gradientUnits="userSpaceOnUse">
<stop stop-color="#FDFC47"/>
<stop offset="1" stop-color="#24FE41"/>
</linearGradient>
<linearGradient id="paint1_linear_4_25857" x1="4.5" y1="32" x2="59.5" y2="32" gradientUnits="userSpaceOnUse">
<stop stop-color="#FDFC47"/>
<stop offset="1" stop-color="#24FE41"/>
</linearGradient>
<linearGradient id="paint2_linear_4_25857" x1="14.2812" y1="32" x2="49.714" y2="32" gradientUnits="userSpaceOnUse">
<stop stop-color="#FDFC47"/>
<stop offset="1" stop-color="#24FE41"/>
</linearGradient>
<clipPath id="clip0_4_25857">
<rect width="64" height="64" fill="white"/>
</clipPath>
</defs>
</svg>
