<svg width="64" height="64" viewBox="0 0 64 64" fill="none" xmlns="http://www.w3.org/2000/svg">
<g opacity="0.3" filter="url(#filter0_f_4_25851)">
<path d="M44.5 4.49979H19.5C11.2157 4.49979 4.5 11.2155 4.5 19.4998V44.4998C4.5 52.7841 11.2157 59.4998 19.5 59.4998H44.5C52.7843 59.4998 59.5 52.7841 59.5 44.4998V19.4998C59.5 11.2155 52.7843 4.49979 44.5 4.49979Z" fill="url(#paint0_linear_4_25851)"/>
</g>
<path d="M19.5 4.9996H44.501C52.5091 4.9996 59.001 11.4915 59.001 19.4996V44.5006C59.001 52.5087 52.5091 59.0006 44.501 59.0006H19.5C11.4919 59.0006 5 52.5087 5 44.5006V19.4996C5 11.4915 11.4919 4.9996 19.5 4.9996Z" fill="#232323" stroke="url(#paint1_linear_4_25851)"/>
<path d="M29.462 15.5L15.5 37.712V43.4235H29.462V48.5004H35.8082V37.0774H38.3467C44.6929 37.0774 48.5007 32.0005 48.5007 26.2894C48.5007 20.5779 44.693 15.5014 38.3467 15.5014H29.4621L29.462 15.5ZM35.8082 21.8462H37.712C40.8851 21.8462 42.1543 24.3847 42.1543 26.2885C42.1543 28.1923 40.8851 30.7308 37.712 30.7308H35.8082M29.462 26.8013V37.0773H23.1158" fill="url(#paint2_linear_4_25851)"/>
<defs>
<filter id="filter0_f_4_25851" x="3.2625" y="3.26229" width="57.475" height="57.475" filterUnits="userSpaceOnUse" color-interpolation-filters="sRGB">
<feFlood flood-opacity="0" result="BackgroundImageFix"/>
<feBlend mode="normal" in="SourceGraphic" in2="BackgroundImageFix" result="shape"/>
<feGaussianBlur stdDeviation="0.61875" result="effect1_foregroundBlur_4_25851"/>
</filter>
<linearGradient id="paint0_linear_4_25851" x1="4.5" y1="31.9998" x2="59.5" y2="31.9998" gradientUnits="userSpaceOnUse">
<stop stop-color="#FDFC47"/>
<stop offset="1" stop-color="#24FE41"/>
</linearGradient>
<linearGradient id="paint1_linear_4_25851" x1="4.5" y1="32.0001" x2="59.501" y2="32.0001" gradientUnits="userSpaceOnUse">
<stop stop-color="#FDFC47"/>
<stop offset="1" stop-color="#24FE41"/>
</linearGradient>
<linearGradient id="paint2_linear_4_25851" x1="15.5" y1="32.0002" x2="48.5007" y2="32.0002" gradientUnits="userSpaceOnUse">
<stop stop-color="#FDFC47"/>
<stop offset="1" stop-color="#24FE41"/>
</linearGradient>
</defs>
</svg>
