<svg width="64" height="64" viewBox="0 0 64 64" fill="none" xmlns="http://www.w3.org/2000/svg">
<g opacity="0.3" filter="url(#filter0_f_4_25826)">
<path d="M44.5 4.5H19.5C11.2157 4.5 4.5 11.2157 4.5 19.5V44.5C4.5 52.7843 11.2157 59.5 19.5 59.5H44.5C52.7843 59.5 59.5 52.7843 59.5 44.5V19.5C59.5 11.2157 52.7843 4.5 44.5 4.5Z" fill="#232323"/>
<path d="M19.5 5H44.5C52.5081 5 59 11.4919 59 19.5V44.5C59 52.5081 52.5081 59 44.5 59H19.5C11.4919 59 5 52.5081 5 44.5V19.5C5 11.4919 11.4919 5 19.5 5Z" stroke="url(#paint0_linear_4_25826)"/>
</g>
<path d="M19.5 5H44.5C52.5081 5 59 11.4919 59 19.5V44.5C59 52.5081 52.5081 59 44.5 59H19.5C11.4919 59 5 52.5081 5 44.5V19.5C5 11.4919 11.4919 5 19.5 5Z" fill="#232323" stroke="url(#paint1_linear_4_25826)"/>
<path d="M22.1176 35.9121L22.1172 33.5108C23.2524 31.3826 23.5973 29.2955 23.6602 27.2241C23.6921 26.174 23.6515 25.1232 23.604 24.0776C23.5986 23.9572 23.593 23.8368 23.5874 23.7165C23.5511 22.929 23.5148 22.1442 23.5046 21.351L36.8407 19.2997L38.9637 22.2539L36.6413 24.5763H34.0792C34.0573 24.5763 34.0352 24.5763 34.0129 24.5763C33.3722 24.5757 32.5451 24.575 31.898 25.0064C31.1726 25.4901 30.81 26.3949 30.81 27.8455C30.81 29.9361 30.15 31.9377 29.2906 34.0047C29.0403 34.6067 28.7712 35.2179 28.4982 35.838C27.9421 37.101 27.3697 38.4009 26.9068 39.7356L22.1176 35.9121Z" fill="#232323" stroke="url(#paint2_linear_4_25826)"/>
<path d="M34.9627 23.0005C34.9627 23.1067 34.8766 23.1928 34.7704 23.1928C34.6642 23.1928 34.5781 23.1067 34.5781 23.0005C34.5781 22.8943 34.6642 22.8082 34.7704 22.8082C34.8766 22.8082 34.9627 22.8943 34.9627 23.0005Z" fill="#232323" stroke="url(#paint3_linear_4_25826)"/>
<path d="M29.0092 29.3886L29.0348 29.3116V29.2305V21.4229H29.4194V29.1494L26.2656 38.6108V37.6193L29.0092 29.3886Z" fill="#232323" stroke="url(#paint4_linear_4_25826)"/>
<path d="M24.8589 29.3886L24.8846 29.3116V29.2305V21.4229H25.2692V29.1494L23.5 34.457V33.4655L24.8589 29.3886Z" fill="#232323" stroke="url(#paint5_linear_4_25826)"/>
<path opacity="0.1" d="M34.0769 21.808H33.8698L33.7234 21.9544L32.4851 23.1926C31.4451 23.1933 29.7792 23.2027 28.0562 23.3335C26.5144 23.4505 24.8792 23.6673 23.5976 24.0836C23.5934 23.987 23.5891 23.8904 23.5848 23.7939C23.5486 22.9824 23.5125 22.1732 23.5026 21.3519L31.7069 20.0895C33.4573 20.061 35.3427 20.0446 37.3714 20.0418L38.8611 22.1151C38.503 21.9867 38.0717 21.9204 37.5713 21.8795C36.7499 21.8122 35.618 21.808 34.0769 21.808Z" fill="#232323" stroke="url(#paint6_linear_4_25826)"/>
<g filter="url(#filter1_d_4_25826)">
<path fill-rule="evenodd" clip-rule="evenodd" d="M20.2338 27.8465L14.6953 29.2311C16.7204 39.4151 29.3363 45.8211 36.2453 45.8461L39.6179 43.0769L38.2333 37.5384C31.3102 37.5384 22.1658 36.1542 20.2338 27.8465Z" fill="url(#paint7_linear_4_25826)"/>
<path d="M23.9182 40.9336C19.8435 38.188 16.3889 34.3052 15.2864 29.5987L19.8716 28.4525C20.9828 32.5026 23.8048 34.8964 27.173 36.2708C30.5263 37.6391 34.4463 38.0112 37.8426 38.0369L39.0561 42.8912L36.0689 45.344C32.7469 45.2783 28.0555 43.7212 23.9182 40.9336Z" stroke="url(#paint8_linear_4_25826)"/>
</g>
<path d="M35.4422 44.3722C35.5575 44.5541 35.656 44.8431 35.7444 45.3567C31.9199 45.179 26.4648 43.1189 22.078 39.59C22.313 39.3065 22.5833 38.9989 22.8963 38.7274C23.3603 38.3249 23.8527 38.0615 24.3714 38.0615C24.9712 38.0615 25.3951 38.2087 25.7434 38.4351C26.1051 38.6701 26.41 39.0057 26.7509 39.4316C26.832 39.5331 26.9147 39.6391 27 39.7486C27.6145 40.5375 28.3658 41.5018 29.6874 42.1626C31.7675 43.2027 33.191 43.5517 34.1105 43.7771C34.3624 43.8389 34.5764 43.8914 34.7558 43.9462C35.1567 44.0689 35.3212 44.1815 35.4422 44.3722Z" fill="#232323" stroke="url(#paint9_linear_4_25826)"/>
<path d="M45.1177 38.2977L41.7345 36.0422C41.7894 35.975 41.8435 35.9089 41.8968 35.8438C42.9719 34.5307 43.6911 33.6523 43.9027 32.3324C44.0232 31.5807 43.9798 30.7082 43.8044 29.5552C43.643 28.4932 43.3641 27.1617 42.976 25.4278C43.8218 25.2038 44.5972 25.1025 45.2989 25.2195C46.0751 25.349 46.8072 25.7534 47.4637 26.6763C48.138 29.139 48.6296 31.1087 48.3999 32.9553C48.1823 34.7052 47.304 36.4041 45.1177 38.2977Z" fill="url(#paint10_linear_4_25826)" stroke="url(#paint11_linear_4_25826)"/>
<path opacity="0.1" d="M43.1758 25.3772C43.4335 25.5465 43.6572 25.7287 43.8712 25.903C43.9127 25.9367 43.9538 25.9702 43.9947 26.0032L47.5174 26.8833C47.4992 26.8153 47.4807 26.7466 47.4618 26.6772C46.646 25.5303 45.7031 25.1682 44.6643 25.1715L43.1758 25.3772ZM43.1758 25.3772C43.6977 25.2499 44.1946 25.173 44.6642 25.1715L43.1758 25.3772Z" fill="#232323" stroke="url(#paint12_linear_4_25826)"/>
<mask id="path-14-inside-1_4_25826" fill="white">
<path fill-rule="evenodd" clip-rule="evenodd" d="M47.9257 26.4615L49.3103 25.0769C48.627 22.105 42.7965 19.5384 38.2333 18.1538C23.0023 18.1538 14.6953 18.1538 14.6953 23.6923L20.2338 25.0769C20.2338 22.3077 28.5415 22.3077 31.3108 22.3077L32.6954 20.9231C38.2339 20.9231 38.2339 20.9231 38.2339 23.6923C41.0031 23.6923 41.47 24.3485 42.3877 25.0769"/>
</mask>
<path fill-rule="evenodd" clip-rule="evenodd" d="M47.9257 26.4615L49.3103 25.0769C48.627 22.105 42.7965 19.5384 38.2333 18.1538C23.0023 18.1538 14.6953 18.1538 14.6953 23.6923L20.2338 25.0769C20.2338 22.3077 28.5415 22.3077 31.3108 22.3077L32.6954 20.9231C38.2339 20.9231 38.2339 20.9231 38.2339 23.6923C41.0031 23.6923 41.47 24.3485 42.3877 25.0769" fill="url(#paint13_linear_4_25826)"/>
<path d="M49.3103 25.0769L50.0174 25.784L50.409 25.3925L50.2849 24.8528L49.3103 25.0769ZM38.2333 18.1538L38.5237 17.1969L38.3817 17.1538H38.2333V18.1538ZM14.6953 23.6923H13.6953V24.4731L14.4528 24.6625L14.6953 23.6923ZM20.2338 25.0769L19.9913 26.0471L21.2338 26.3577V25.0769H20.2338ZM31.3108 22.3077V23.3077H31.725L32.0179 23.0148L31.3108 22.3077ZM32.6954 20.9231V19.9231H32.2812L31.9883 20.216L32.6954 20.9231ZM38.2339 23.6923H37.2339V24.6923H38.2339V23.6923ZM48.6328 27.1686L50.0174 25.784L48.6032 24.3698L47.2186 25.7544L48.6328 27.1686ZM50.2849 24.8528C50.0529 23.8441 49.4103 22.9624 48.6227 22.2121C47.8274 21.4544 46.815 20.7648 45.7162 20.1481C43.5175 18.914 40.845 17.9013 38.5237 17.1969L37.9429 19.1107C40.1848 19.791 42.7091 20.7538 44.7373 21.8922C45.7519 22.4616 46.6105 23.0574 47.2432 23.6602C47.8836 24.2702 48.226 24.8238 48.3357 25.301L50.2849 24.8528ZM38.2333 17.1538C30.6606 17.1538 24.6686 17.15 20.5813 17.8609C18.5381 18.2163 16.8323 18.7703 15.6232 19.6965C14.3508 20.6711 13.6953 22.0074 13.6953 23.6923H15.6953C15.6953 22.608 16.0782 21.8673 16.8394 21.2842C17.6637 20.6528 18.9867 20.1683 20.924 19.8313C24.798 19.1576 30.575 19.1538 38.2333 19.1538V17.1538ZM14.4528 24.6625L19.9913 26.0471L20.4763 24.1068L14.9378 22.7222L14.4528 24.6625ZM21.2338 25.0769C21.2338 24.986 21.2813 24.7217 22.0032 24.3797C22.6882 24.0553 23.6944 23.8125 24.8752 23.6438C27.2173 23.3092 29.9173 23.3077 31.3108 23.3077V21.3077C29.935 21.3077 27.0965 21.3062 24.5924 21.6639C23.3501 21.8414 22.1064 22.1178 21.1471 22.5722C20.2247 23.0091 19.2338 23.7832 19.2338 25.0769H21.2338ZM32.0179 23.0148L33.4025 21.6302L31.9883 20.216L30.6037 21.6006L32.0179 23.0148ZM32.6954 21.9231C34.0923 21.9231 35.0975 21.9235 35.8419 21.9648C36.6169 22.0079 36.9499 22.0915 37.0944 22.1637C37.1411 22.187 37.1388 22.1953 37.1303 22.1835C37.1267 22.1784 37.148 22.204 37.1712 22.3083C37.2282 22.5648 37.2339 22.9524 37.2339 23.6923H39.2339C39.2339 23.0476 39.2396 22.3967 39.1236 21.8744C39.0602 21.5894 38.9517 21.2904 38.7534 21.0149C38.5502 20.7326 38.2883 20.5246 37.9888 20.3748C37.4409 20.1009 36.7355 20.0114 35.9528 19.9679C35.1395 19.9227 34.0677 19.9231 32.6954 19.9231V21.9231ZM38.2339 24.6923C39.5497 24.6923 40.2023 24.8501 40.6011 25.0262C41.0246 25.2133 41.217 25.4244 41.766 25.8602L43.0094 24.2936C42.6407 24.001 42.1408 23.5198 41.4091 23.1967C40.6527 22.8626 39.6874 22.6923 38.2339 22.6923V24.6923Z" fill="url(#paint14_linear_4_25826)" mask="url(#path-14-inside-1_4_25826)"/>
<mask id="path-16-inside-2_4_25826" fill="white">
<path fill-rule="evenodd" clip-rule="evenodd" d="M16.0781 24.0385V24.7308L18.8473 25.4231V24.7308L16.0781 24.0385Z"/>
</mask>
<path fill-rule="evenodd" clip-rule="evenodd" d="M16.0781 24.0385V24.7308L18.8473 25.4231V24.7308L16.0781 24.0385Z" fill="#232323"/>
<path d="M16.0781 24.0385L16.3207 23.0684L15.0781 22.7577V24.0385H16.0781ZM16.0781 24.7308H15.0781V25.5116L15.8356 25.701L16.0781 24.7308ZM18.8473 25.4231L18.6048 26.3933L19.8473 26.7039V25.4231H18.8473ZM18.8473 24.7308H19.8473V23.95L19.0899 23.7607L18.8473 24.7308ZM15.0781 24.0385V24.7308H17.0781V24.0385H15.0781ZM15.8356 25.701L18.6048 26.3933L19.0899 24.453L16.3207 23.7607L15.8356 25.701ZM19.8473 25.4231V24.7308H17.8473V25.4231H19.8473ZM19.0899 23.7607L16.3207 23.0684L15.8356 25.0087L18.6048 25.701L19.0899 23.7607Z" fill="url(#paint15_linear_4_25826)" mask="url(#path-16-inside-2_4_25826)"/>
<mask id="path-18-inside-3_4_25826" fill="white">
<path fill-rule="evenodd" clip-rule="evenodd" d="M18.8473 27.5005L16.0781 28.1928V28.8851L18.8473 28.1928V27.5005Z"/>
</mask>
<path fill-rule="evenodd" clip-rule="evenodd" d="M18.8473 27.5005L16.0781 28.1928V28.8851L18.8473 28.1928V27.5005Z" fill="#232323"/>
<path d="M18.8473 27.5005H19.8473V26.2197L18.6048 26.5303L18.8473 27.5005ZM16.0781 28.1928L15.8356 27.2227L15.0781 27.412V28.1928H16.0781ZM16.0781 28.8851H15.0781V30.1659L16.3207 29.8552L16.0781 28.8851ZM18.8473 28.1928L19.0899 29.1629L19.8473 28.9736V28.1928H18.8473ZM18.6048 26.5303L15.8356 27.2227L16.3207 29.1629L19.0899 28.4706L18.6048 26.5303ZM15.0781 28.1928V28.8851H17.0781V28.1928H15.0781ZM16.3207 29.8552L19.0899 29.1629L18.6048 27.2227L15.8356 27.915L16.3207 29.8552ZM19.8473 28.1928V27.5005H17.8473V28.1928H19.8473Z" fill="url(#paint16_linear_4_25826)" mask="url(#path-18-inside-3_4_25826)"/>
<defs>
<filter id="filter0_f_4_25826" x="3.2625" y="3.2625" width="57.475" height="57.475" filterUnits="userSpaceOnUse" color-interpolation-filters="sRGB">
<feFlood flood-opacity="0" result="BackgroundImageFix"/>
<feBlend mode="normal" in="SourceGraphic" in2="BackgroundImageFix" result="shape"/>
<feGaussianBlur stdDeviation="0.61875" result="effect1_foregroundBlur_4_25826"/>
</filter>
<filter id="filter1_d_4_25826" x="10.6953" y="27.8465" width="32.9219" height="25.9996" filterUnits="userSpaceOnUse" color-interpolation-filters="sRGB">
<feFlood flood-opacity="0" result="BackgroundImageFix"/>
<feColorMatrix in="SourceAlpha" type="matrix" values="0 0 0 0 0 0 0 0 0 0 0 0 0 0 0 0 0 0 127 0" result="hardAlpha"/>
<feOffset dy="4"/>
<feGaussianBlur stdDeviation="2"/>
<feComposite in2="hardAlpha" operator="out"/>
<feColorMatrix type="matrix" values="0 0 0 0 0 0 0 0 0 0 0 0 0 0 0 0 0 0 0.25 0"/>
<feBlend mode="normal" in2="BackgroundImageFix" result="effect1_dropShadow_4_25826"/>
<feBlend mode="normal" in="SourceGraphic" in2="effect1_dropShadow_4_25826" result="shape"/>
</filter>
<linearGradient id="paint0_linear_4_25826" x1="4.5" y1="32" x2="59.5" y2="32" gradientUnits="userSpaceOnUse">
<stop stop-color="#FDFC47"/>
<stop offset="1" stop-color="#24FE41"/>
</linearGradient>
<linearGradient id="paint1_linear_4_25826" x1="4.5" y1="32" x2="59.5" y2="32" gradientUnits="userSpaceOnUse">
<stop stop-color="#FDFC47"/>
<stop offset="1" stop-color="#24FE41"/>
</linearGradient>
<linearGradient id="paint2_linear_4_25826" x1="21.6172" y1="29.6667" x2="39.6176" y2="29.6667" gradientUnits="userSpaceOnUse">
<stop stop-color="#FDFC47"/>
<stop offset="1" stop-color="#24FE41"/>
</linearGradient>
<linearGradient id="paint3_linear_4_25826" x1="34.0781" y1="23.0005" x2="35.4627" y2="23.0005" gradientUnits="userSpaceOnUse">
<stop stop-color="#FDFC47"/>
<stop offset="1" stop-color="#24FE41"/>
</linearGradient>
<linearGradient id="paint4_linear_4_25826" x1="25.7656" y1="31.3074" x2="29.9194" y2="31.3074" gradientUnits="userSpaceOnUse">
<stop stop-color="#FDFC47"/>
<stop offset="1" stop-color="#24FE41"/>
</linearGradient>
<linearGradient id="paint5_linear_4_25826" x1="23" y1="29.2305" x2="25.7692" y2="29.2305" gradientUnits="userSpaceOnUse">
<stop stop-color="#FDFC47"/>
<stop offset="1" stop-color="#24FE41"/>
</linearGradient>
<linearGradient id="paint6_linear_4_25826" x1="23" y1="22.1674" x2="39.6153" y2="22.1674" gradientUnits="userSpaceOnUse">
<stop stop-color="#FDFC47"/>
<stop offset="1" stop-color="#24FE41"/>
</linearGradient>
<linearGradient id="paint7_linear_4_25826" x1="14.6953" y1="36.8461" x2="39.6179" y2="36.8461" gradientUnits="userSpaceOnUse">
<stop stop-color="#FDFC47"/>
<stop offset="1" stop-color="#24FE41"/>
</linearGradient>
<linearGradient id="paint8_linear_4_25826" x1="14.6953" y1="36.8461" x2="39.6179" y2="36.8461" gradientUnits="userSpaceOnUse">
<stop stop-color="#FDFC47"/>
<stop offset="1" stop-color="#24FE41"/>
</linearGradient>
<linearGradient id="paint9_linear_4_25826" x1="21.375" y1="41.7153" x2="36.3148" y2="41.7153" gradientUnits="userSpaceOnUse">
<stop stop-color="#FDFC47"/>
<stop offset="1" stop-color="#24FE41"/>
</linearGradient>
<linearGradient id="paint10_linear_4_25826" x1="41" y1="31.7965" x2="48.9569" y2="31.7965" gradientUnits="userSpaceOnUse">
<stop stop-color="#FDFC47"/>
<stop offset="1" stop-color="#24FE41"/>
</linearGradient>
<linearGradient id="paint11_linear_4_25826" x1="41" y1="31.7965" x2="48.9569" y2="31.7965" gradientUnits="userSpaceOnUse">
<stop stop-color="#FDFC47"/>
<stop offset="1" stop-color="#24FE41"/>
</linearGradient>
<linearGradient id="paint12_linear_4_25826" x1="42.3828" y1="26.1224" x2="48.216" y2="26.1224" gradientUnits="userSpaceOnUse">
<stop stop-color="#FDFC47"/>
<stop offset="1" stop-color="#24FE41"/>
</linearGradient>
<linearGradient id="paint13_linear_4_25826" x1="14.6953" y1="22.3077" x2="49.3103" y2="22.3077" gradientUnits="userSpaceOnUse">
<stop stop-color="#FDFC47"/>
<stop offset="1" stop-color="#24FE41"/>
</linearGradient>
<linearGradient id="paint14_linear_4_25826" x1="14.6953" y1="22.3077" x2="49.3103" y2="22.3077" gradientUnits="userSpaceOnUse">
<stop stop-color="#FDFC47"/>
<stop offset="1" stop-color="#24FE41"/>
</linearGradient>
<linearGradient id="paint15_linear_4_25826" x1="16.0781" y1="24.7308" x2="18.8473" y2="24.7308" gradientUnits="userSpaceOnUse">
<stop stop-color="#FDFC47"/>
<stop offset="1" stop-color="#24FE41"/>
</linearGradient>
<linearGradient id="paint16_linear_4_25826" x1="16.0781" y1="28.1928" x2="18.8473" y2="28.1928" gradientUnits="userSpaceOnUse">
<stop stop-color="#FDFC47"/>
<stop offset="1" stop-color="#24FE41"/>
</linearGradient>
</defs>
</svg>
