<svg width="64" height="64" viewBox="0 0 64 64" fill="none" xmlns="http://www.w3.org/2000/svg">
<g clip-path="url(#clip0_4_25599)">
<g opacity="0.3" filter="url(#filter0_f_4_25599)">
<path d="M44.5 4.5H19.5C11.2157 4.5 4.5 11.2157 4.5 19.5V44.5C4.5 52.7843 11.2157 59.5 19.5 59.5H44.5C52.7843 59.5 59.5 52.7843 59.5 44.5V19.5C59.5 11.2157 52.7843 4.5 44.5 4.5Z" fill="url(#paint0_linear_4_25599)"/>
</g>
<path d="M19.5 5H44.5C52.5081 5 59 11.4919 59 19.5V44.5C59 52.5081 52.5081 59 44.5 59H19.5C11.4919 59 5 52.5081 5 44.5V19.5C5 11.4919 11.4919 5 19.5 5Z" fill="#232323" stroke="url(#paint1_linear_4_25599)"/>
<path d="M42.7141 19.9563C40.5975 18.7355 37.6759 18.6825 35.0944 19.824C32.7095 20.8785 30.986 23.2029 29.9693 24.9491C29.7475 24.8965 29.5144 24.9197 29.3073 25.0149C29.1002 25.1102 28.9309 25.2721 28.8265 25.4748C28.7221 25.6775 28.6886 25.9093 28.7313 26.1332C28.7741 26.3571 28.8905 26.5603 29.0622 26.7104C29.0027 26.8415 28.946 26.9738 28.8921 27.1073L23.9484 37.9623C23.7064 37.8603 23.4344 37.8554 23.189 37.9488C22.9436 38.0422 22.7436 38.2267 22.6307 38.4637C22.5177 38.7008 22.5005 38.9722 22.5826 39.2217C22.6648 39.4711 22.8398 39.6794 23.0715 39.803L23.1055 39.8181L21.9943 42.2635H19.2314C18.9608 42.2635 18.7012 42.371 18.5098 42.5624C18.3185 42.7538 18.2109 43.0133 18.2109 43.284C18.2109 43.5546 18.3185 43.8142 18.5098 44.0056C18.7012 44.197 18.9608 44.3044 19.2314 44.3044H24.3339C24.6045 44.3044 24.8641 44.197 25.0555 44.0056C25.2469 43.8142 25.3544 43.5546 25.3544 43.284C25.3544 43.0133 25.2469 42.7538 25.0555 42.5624C24.8641 42.371 24.6045 42.2635 24.3339 42.2635H24.2356L24.9424 40.7063C25.0343 40.7347 25.1297 40.7499 25.2259 40.7516C25.4465 40.753 25.6616 40.6826 25.8387 40.551C26.0158 40.4194 26.1452 40.2337 26.2075 40.022C26.2699 39.8104 26.2616 39.5842 26.1841 39.3776C26.1065 39.171 25.9639 38.9953 25.7777 38.8769L30.8953 27.6327C31.1352 27.7548 31.4138 27.7769 31.67 27.694C31.9262 27.6112 32.1391 27.4302 32.2622 27.1907C32.3852 26.9512 32.4082 26.6726 32.3263 26.4161C32.2444 26.1597 32.0641 25.9461 31.8251 25.8222C32.6944 24.352 34.0928 22.4961 35.9222 21.6911C37.8875 20.8218 40.1553 20.8331 41.6936 21.7251C42.8275 22.379 43.4814 23.4184 43.6325 24.8206C43.916 27.4398 43.6741 29.1974 42.9144 30.0441C42.8458 30.1193 42.7713 30.1888 42.6914 30.2519V32.5348C43.3188 32.3232 43.9236 31.9754 44.4338 31.4047C45.6131 30.0931 46.0137 27.867 45.6622 24.6014C45.443 22.5756 44.396 20.9276 42.7141 19.9563Z" fill="url(#paint2_linear_4_25599)"/>
<path d="M39.8152 37.1535C40.4804 37.1535 41.1078 37.3048 41.6748 37.5694V29.5037C41.6748 28.9405 41.7277 28.9934 41.1645 28.9934H39.1689C38.6019 28.9934 32.9212 29.4621 31.4207 36.8852L30.4531 43.0195C30.4531 43.5864 30.9105 44.2932 31.4736 44.2932H36.3153C35.7114 43.5203 35.3828 42.5679 35.3817 41.587C35.3817 39.1416 37.3698 37.1535 39.8152 37.1535Z" fill="url(#paint3_linear_4_25599)"/>
<path d="M42.1802 39.1189C41.5425 38.5065 40.6945 38.1616 39.8104 38.1551C39.3445 38.0003 38.8507 37.9481 38.3628 38.0021C37.8749 38.0562 37.4045 38.2153 36.9838 38.4684C36.5632 38.7215 36.2023 39.0625 35.926 39.4683C35.6497 39.874 35.4645 40.3349 35.3831 40.819C35.3016 41.3031 35.326 41.799 35.4543 42.2728C35.5827 42.7466 35.8122 43.1871 36.1269 43.5638C36.4416 43.9406 36.8341 44.2447 37.2774 44.4554C37.7208 44.6661 38.2045 44.7784 38.6954 44.7845C39.4043 45.0339 40.1761 45.0403 40.8891 44.8028C41.6021 44.5654 42.2159 44.0975 42.6337 43.4729C43.0842 42.8104 43.2858 42.0098 43.2028 41.213C43.1197 40.4161 42.7575 39.6744 42.1802 39.1189Z" fill="url(#paint4_linear_4_25599)"/>
</g>
<defs>
<filter id="filter0_f_4_25599" x="3.2625" y="3.2625" width="57.475" height="57.475" filterUnits="userSpaceOnUse" color-interpolation-filters="sRGB">
<feFlood flood-opacity="0" result="BackgroundImageFix"/>
<feBlend mode="normal" in="SourceGraphic" in2="BackgroundImageFix" result="shape"/>
<feGaussianBlur stdDeviation="0.61875" result="effect1_foregroundBlur_4_25599"/>
</filter>
<linearGradient id="paint0_linear_4_25599" x1="4.5" y1="32" x2="59.5" y2="32" gradientUnits="userSpaceOnUse">
<stop stop-color="#FDFC47"/>
<stop offset="1" stop-color="#24FE41"/>
</linearGradient>
<linearGradient id="paint1_linear_4_25599" x1="4.5" y1="32" x2="59.5" y2="32" gradientUnits="userSpaceOnUse">
<stop stop-color="#FDFC47"/>
<stop offset="1" stop-color="#24FE41"/>
</linearGradient>
<linearGradient id="paint2_linear_4_25599" x1="18.2109" y1="31.6537" x2="45.7851" y2="31.6537" gradientUnits="userSpaceOnUse">
<stop stop-color="#FDFC47"/>
<stop offset="1" stop-color="#24FE41"/>
</linearGradient>
<linearGradient id="paint3_linear_4_25599" x1="30.4531" y1="36.6426" x2="41.6761" y2="36.6426" gradientUnits="userSpaceOnUse">
<stop stop-color="#FDFC47"/>
<stop offset="1" stop-color="#24FE41"/>
</linearGradient>
<linearGradient id="paint4_linear_4_25599" x1="35.3359" y1="41.4789" x2="43.221" y2="41.4789" gradientUnits="userSpaceOnUse">
<stop stop-color="#FDFC47"/>
<stop offset="1" stop-color="#24FE41"/>
</linearGradient>
<clipPath id="clip0_4_25599">
<rect width="64" height="64" fill="white"/>
</clipPath>
</defs>
</svg>
