<svg width="64" height="64" viewBox="0 0 64 64" fill="none" xmlns="http://www.w3.org/2000/svg">
<g opacity="0.3" filter="url(#filter0_f_4_25653)">
<path d="M44.5003 4.50003H19.5001C11.2158 4.50003 4.5 11.2158 4.5 19.5001V44.5003C4.5 52.7846 11.2158 59.5004 19.5001 59.5004H44.5003C52.7846 59.5004 59.5004 52.7846 59.5004 44.5003V19.5001C59.5004 11.2158 52.7846 4.50003 44.5003 4.50003Z" fill="#232323"/>
<path d="M19.5001 5.00003H44.5003C52.5085 5.00003 59.0004 11.4919 59.0004 19.5001V44.5003C59.0004 52.5085 52.5085 59.0004 44.5003 59.0004H19.5001C11.4919 59.0004 5 52.5085 5 44.5003V19.5001C5 11.4919 11.4919 5.00003 19.5001 5.00003Z" stroke="url(#paint0_linear_4_25653)"/>
</g>
<path d="M19.5001 5.00037H44.5007C52.5089 5.00037 59.0008 11.4923 59.0008 19.5005V44.501C59.0008 52.5092 52.5089 59.0011 44.5007 59.0011H19.5001C11.4919 59.0011 5 52.5092 5 44.501V19.5005C5 11.4923 11.4919 5.00037 19.5001 5.00037Z" fill="#232323" stroke="url(#paint1_linear_4_25653)"/>
<path d="M20.4067 20.4095L20.4056 20.4106C17.6937 23.1314 16.0231 26.7178 15.6852 30.5444C15.3596 34.2316 16.2913 37.9162 18.3217 41.0014L14.2878 45.0353C11.2297 40.8815 9.72292 35.7798 10.042 30.6195C10.3728 25.2703 12.6429 20.2253 16.4268 16.4299C20.3803 12.4817 25.6866 10.1838 31.271 10.0017C36.215 9.84329 41.0628 11.3541 45.0367 14.2812L37.7985 21.5194V17.0382V16.685L37.4656 16.567C34.5493 15.5327 31.3999 15.3447 28.3812 16.0247C25.3626 16.7046 22.5979 18.2248 20.4067 20.4095Z" fill="url(#paint2_linear_4_25653)" stroke="url(#paint3_linear_4_25653)"/>
<path d="M45.6824 23.0089L49.7163 18.975C52.7739 23.1293 54.2803 28.2308 53.9604 33.391C53.6287 38.7402 51.3577 43.7849 47.5731 47.5797C43.778 51.3657 38.7323 53.6375 33.382 53.9692C28.2207 54.2891 23.1177 52.7825 18.9631 49.7237L21.4356 47.2555L21.436 47.2551L26.2007 42.4865V46.972V47.3252L26.5336 47.4432C29.4499 48.4774 32.5993 48.6655 35.618 47.9855C38.6366 47.3055 41.4013 45.7854 43.5925 43.6006L43.5935 43.5996C46.3061 40.8795 47.9777 37.2934 48.3166 33.4668C48.6431 29.7796 47.7122 26.0946 45.6824 23.0089Z" fill="url(#paint4_linear_4_25653)" stroke="url(#paint5_linear_4_25653)"/>
<path d="M30.2049 28.8349L30.0336 28.8747L30.0176 26.1522L38.0247 24.6086V27.018L37.5864 27.1198L30.2049 28.8349ZM37.6021 35.0039C37.7958 34.8971 37.9323 34.7545 38.0247 34.6053V35.5966C38.0247 36.6518 37.5849 37.2016 37.146 37.5061C36.9159 37.6658 36.6739 37.7654 36.4705 37.8247C36.3694 37.8541 36.2806 37.8728 36.2115 37.8839C36.1771 37.8895 36.1486 37.893 36.1271 37.895C36.1163 37.896 36.1079 37.8966 36.1017 37.8969C36.0958 37.8973 36.093 37.8973 36.093 37.8973H36.0931C36.0746 37.8973 36.0534 37.8975 36.0297 37.8978C35.8061 37.9002 35.3624 37.905 34.9521 37.7405C34.7357 37.6538 34.5514 37.5274 34.4194 37.3445C34.2897 37.1647 34.1832 36.8927 34.1832 36.465C34.1832 36.0397 34.292 35.7905 34.4205 35.6343C34.553 35.4732 34.75 35.3581 35.0165 35.2824C35.4639 35.1554 35.9677 35.1675 36.4339 35.1786C36.5626 35.1817 36.6885 35.1847 36.8095 35.1847C37.1181 35.1847 37.3831 35.1246 37.6021 35.0039ZM29.2118 36.4595C29.5026 36.3005 29.6947 36.0645 29.818 35.7829V37.5717C29.818 38.2994 29.487 38.7635 29.0632 39.0631C28.6183 39.3777 28.0755 39.5033 27.7345 39.5033C27.4061 39.5033 26.9444 39.374 26.5737 39.1048C26.2154 38.8447 25.9766 38.4832 25.9766 38.0059C25.9766 37.51 26.1763 37.2157 26.5053 37.0176C26.8703 36.7978 27.4264 36.6822 28.1253 36.6822C28.5291 36.6822 28.9012 36.6293 29.2118 36.4595Z" fill="url(#paint6_linear_4_25653)" stroke="url(#paint7_linear_4_25653)"/>
<defs>
<filter id="filter0_f_4_25653" x="3.26249" y="3.26252" width="57.475" height="57.4754" filterUnits="userSpaceOnUse" color-interpolation-filters="sRGB">
<feFlood flood-opacity="0" result="BackgroundImageFix"/>
<feBlend mode="normal" in="SourceGraphic" in2="BackgroundImageFix" result="shape"/>
<feGaussianBlur stdDeviation="0.618754" result="effect1_foregroundBlur_4_25653"/>
</filter>
<linearGradient id="paint0_linear_4_25653" x1="4.5" y1="32.0002" x2="59.5004" y2="32.0002" gradientUnits="userSpaceOnUse">
<stop stop-color="#FDFC47"/>
<stop offset="1" stop-color="#24FE41"/>
</linearGradient>
<linearGradient id="paint1_linear_4_25653" x1="4.5" y1="32.0007" x2="59.5008" y2="32.0007" gradientUnits="userSpaceOnUse">
<stop stop-color="#FDFC47"/>
<stop offset="1" stop-color="#24FE41"/>
</linearGradient>
<linearGradient id="paint2_linear_4_25653" x1="9.5" y1="27.6426" x2="45.7962" y2="27.6426" gradientUnits="userSpaceOnUse">
<stop stop-color="#FDFC47"/>
<stop offset="1" stop-color="#24FE41"/>
</linearGradient>
<linearGradient id="paint3_linear_4_25653" x1="9.5" y1="27.6426" x2="45.7962" y2="27.6426" gradientUnits="userSpaceOnUse">
<stop stop-color="#FDFC47"/>
<stop offset="1" stop-color="#24FE41"/>
</linearGradient>
<linearGradient id="paint4_linear_4_25653" x1="18.2031" y1="36.3631" x2="54.5026" y2="36.3631" gradientUnits="userSpaceOnUse">
<stop stop-color="#FDFC47"/>
<stop offset="1" stop-color="#24FE41"/>
</linearGradient>
<linearGradient id="paint5_linear_4_25653" x1="18.2031" y1="36.3631" x2="54.5026" y2="36.3631" gradientUnits="userSpaceOnUse">
<stop stop-color="#FDFC47"/>
<stop offset="1" stop-color="#24FE41"/>
</linearGradient>
<linearGradient id="paint6_linear_4_25653" x1="25.4766" y1="32.0032" x2="38.5247" y2="32.0032" gradientUnits="userSpaceOnUse">
<stop stop-color="#FDFC47"/>
<stop offset="1" stop-color="#24FE41"/>
</linearGradient>
<linearGradient id="paint7_linear_4_25653" x1="25.4766" y1="32.0032" x2="38.5247" y2="32.0032" gradientUnits="userSpaceOnUse">
<stop stop-color="#FDFC47"/>
<stop offset="1" stop-color="#24FE41"/>
</linearGradient>
</defs>
</svg>
