<svg width="64" height="64" viewBox="0 0 64 64" fill="none" xmlns="http://www.w3.org/2000/svg">
<g opacity="0.3" filter="url(#filter0_f_4_25586)">
<path d="M46.498 4.5H17.502C10.3212 4.5 4.5 10.3212 4.5 17.502V46.498C4.5 53.6788 10.3212 59.5 17.502 59.5H46.498C53.6788 59.5 59.5 53.6788 59.5 46.498V17.502C59.5 10.3212 53.6788 4.5 46.498 4.5Z" fill="#232323"/>
<path d="M17.502 5H46.498C53.4027 5 59 10.5973 59 17.502V46.498C59 53.4027 53.4027 59 46.498 59H17.502C10.5973 59 5 53.4027 5 46.498V17.502C5 10.5973 10.5973 5 17.502 5Z" stroke="url(#paint0_linear_4_25586)"/>
</g>
<path d="M17.502 5H46.498C53.4027 5 59 10.5973 59 17.502V46.498C59 53.4027 53.4027 59 46.498 59H17.502C10.5973 59 5 53.4027 5 46.498V17.502C5 10.5973 10.5973 5 17.502 5Z" fill="#232323" stroke="url(#paint1_linear_4_25586)"/>
<g opacity="0.6">
<mask id="path-4-inside-1_4_25586" fill="white">
<path d="M9.97257 25.9648C9.94381 26.1146 9.92602 26.2709 9.89844 26.4245H54.1063C54.0802 26.271 54.061 26.1145 54.0292 25.9648H9.97257Z"/>
</mask>
<path d="M9.97257 25.9648C9.94381 26.1146 9.92602 26.2709 9.89844 26.4245H54.1063C54.0802 26.271 54.061 26.1145 54.0292 25.9648H9.97257Z" fill="#232323"/>
<path d="M9.97257 25.9648V24.9648H9.14625L8.99049 25.7763L9.97257 25.9648ZM9.89844 26.4245L8.91418 26.2477L8.70285 27.4245H9.89844V26.4245ZM54.1063 26.4245V27.4245H55.2904L55.0921 26.2571L54.1063 26.4245ZM54.0292 25.9648L55.0074 25.7571L54.8393 24.9648H54.0292V25.9648ZM8.99049 25.7763C8.97172 25.8741 8.95735 25.9696 8.94601 26.0457C8.93373 26.1279 8.92478 26.1888 8.91418 26.2477L10.8827 26.6013C10.8997 26.5067 10.9134 26.4126 10.9241 26.3408C10.9357 26.2629 10.9447 26.2053 10.9546 26.1533L8.99049 25.7763ZM9.89844 27.4245H54.1063V25.4245H9.89844V27.4245ZM55.0921 26.2571C55.0776 26.1713 55.0437 25.9279 55.0074 25.7571L53.051 26.1724C53.0784 26.3012 53.0828 26.3706 53.1204 26.5919L55.0921 26.2571ZM54.0292 24.9648H9.97257V26.9648H54.0292V24.9648Z" fill="url(#paint2_linear_4_25586)" mask="url(#path-4-inside-1_4_25586)"/>
</g>
<g opacity="0.6">
<mask id="path-6-inside-2_4_25586" fill="white">
<path d="M10.6953 15.9778C10.7209 16.1313 10.7453 16.2846 10.7738 16.4375H53.2316C53.2581 16.2723 53.2808 16.1408 53.3045 15.9778H10.6953Z"/>
</mask>
<path d="M10.6953 15.9778C10.7209 16.1313 10.7453 16.2846 10.7738 16.4375H53.2316C53.2581 16.2723 53.2808 16.1408 53.3045 15.9778H10.6953Z" fill="#232323"/>
<path d="M10.6953 15.9778V14.9778H9.51459L9.70895 16.1424L10.6953 15.9778ZM10.7738 16.4375L9.79066 16.6205L9.94271 17.4375H10.7738V16.4375ZM53.2316 16.4375V17.4375H54.0842L54.219 16.5956L53.2316 16.4375ZM53.3045 15.9778L54.2941 16.1216L54.4603 14.9778H53.3045V15.9778ZM9.70895 16.1424C9.73291 16.2859 9.75994 16.4554 9.79066 16.6205L11.7569 16.2545C11.7307 16.1138 11.709 15.9767 11.6817 15.8132L9.70895 16.1424ZM10.7738 17.4375H53.2316V15.4375H10.7738V17.4375ZM54.219 16.5956C54.2433 16.4441 54.269 16.294 54.2941 16.1216L52.3149 15.834C52.2925 15.9876 52.2728 16.1006 52.2442 16.2794L54.219 16.5956ZM53.3045 14.9778H10.6953V16.9778H53.3045V14.9778Z" fill="url(#paint3_linear_4_25586)" mask="url(#path-6-inside-2_4_25586)"/>
</g>
<g opacity="0.6">
<mask id="path-8-inside-3_4_25586" fill="white">
<path d="M9.97257 35.9518C9.94381 36.1017 9.92602 36.258 9.89844 36.4115H54.1063C54.0802 36.258 54.061 36.1016 54.0292 35.9518H9.97257Z"/>
</mask>
<path d="M9.97257 35.9518C9.94381 36.1017 9.92602 36.258 9.89844 36.4115H54.1063C54.0802 36.258 54.061 36.1016 54.0292 35.9518H9.97257Z" fill="#232323"/>
<path d="M9.97257 35.9518V34.9518H9.14625L8.99049 35.7633L9.97257 35.9518ZM9.89844 36.4115L8.91418 36.2348L8.70286 37.4115H9.89844V36.4115ZM54.1063 36.4115V37.4115H55.2904L55.0922 36.2441L54.1063 36.4115ZM54.0292 35.9518L55.0075 35.7442L54.8393 34.9518H54.0292V35.9518ZM8.99049 35.7633C8.97172 35.8612 8.95735 35.9567 8.94601 36.0327C8.93373 36.115 8.92478 36.1758 8.91418 36.2348L10.8827 36.5883C10.8997 36.4937 10.9134 36.3996 10.9241 36.3279C10.9357 36.2499 10.9447 36.1923 10.9546 36.1403L8.99049 35.7633ZM9.89844 37.4115H54.1063V35.4115H9.89844V37.4115ZM55.0922 36.2441C55.0776 36.1583 55.0437 35.915 55.0075 35.7442L53.051 36.1594C53.0784 36.2882 53.0828 36.3577 53.1204 36.579L55.0922 36.2441ZM54.0292 34.9518H9.97257V36.9518H54.0292V34.9518Z" fill="url(#paint4_linear_4_25586)" mask="url(#path-8-inside-3_4_25586)"/>
</g>
<g opacity="0.6">
<mask id="path-10-inside-4_4_25586" fill="white">
<path d="M9.97257 45.9378C9.94381 46.0877 9.92602 46.2439 9.89844 46.3975H54.1063C54.0802 46.244 54.061 46.0876 54.0292 45.9378H9.97257Z"/>
</mask>
<path d="M9.97257 45.9378C9.94381 46.0877 9.92602 46.2439 9.89844 46.3975H54.1063C54.0802 46.244 54.061 46.0876 54.0292 45.9378H9.97257Z" fill="#232323"/>
<path d="M9.97257 45.9378V44.9378H9.14625L8.99049 45.7493L9.97257 45.9378ZM9.89844 46.3975L8.91418 46.2208L8.70286 47.3975H9.89844V46.3975ZM54.1063 46.3975V47.3975H55.2904L55.0922 46.2301L54.1063 46.3975ZM54.0292 45.9378L55.0075 45.7302L54.8393 44.9378H54.0292V45.9378ZM8.99049 45.7493C8.97172 45.8471 8.95735 45.9427 8.94601 46.0187C8.93373 46.1009 8.92478 46.1618 8.91418 46.2208L10.8827 46.5743C10.8997 46.4797 10.9134 46.3856 10.9241 46.3139C10.9357 46.2359 10.9447 46.1783 10.9546 46.1263L8.99049 45.7493ZM9.89844 47.3975H54.1063V45.3975H9.89844V47.3975ZM55.0922 46.2301C55.0776 46.1443 55.0437 45.901 55.0075 45.7302L53.051 46.1454C53.0784 46.2742 53.0828 46.3437 53.1204 46.565L55.0922 46.2301ZM54.0292 44.9378H9.97257V46.9378H54.0292V44.9378Z" fill="url(#paint5_linear_4_25586)" mask="url(#path-10-inside-4_4_25586)"/>
</g>
<g opacity="0.5" filter="url(#filter1_f_4_25586)">
<path d="M16.8689 45.196C16.8689 45.196 16.1484 44.7285 16.1484 44.4867C16.1484 44.2449 18.1235 37.6183 18.3367 37.2535C18.55 36.8887 41.1376 15.3168 41.1376 15.3168C41.1376 15.3168 42.169 14.5358 42.8056 15.0194C43.4423 15.503 45.5857 17.6941 45.5857 17.6941L16.8689 45.196Z" fill="#232323"/>
<path d="M44.8735 17.6838L16.8255 44.5452C16.8253 44.5451 16.8251 44.5449 16.8249 44.5447C16.7652 44.496 16.7141 44.4503 16.6752 44.411C16.6865 44.366 16.7004 44.3122 16.717 44.2497C16.7702 44.049 16.8473 43.7723 16.9412 43.4429C17.1289 42.7849 17.3817 41.9248 17.6415 41.0601C17.9012 40.1952 18.1673 39.328 18.3813 38.6551C18.4884 38.3184 18.5817 38.0328 18.6543 37.8216C18.6907 37.7156 18.7208 37.6315 18.7442 37.5703C18.7513 37.5515 18.7571 37.5369 18.7616 37.5259C18.7678 37.5193 18.775 37.5116 18.7832 37.503C18.8283 37.4556 18.8946 37.3878 18.9823 37.2997C19.1572 37.124 19.4089 36.8753 19.7275 36.5634C20.3642 35.9399 21.263 35.0683 22.3366 34.0317C24.4835 31.9586 27.3264 29.2285 30.1631 26.5093C32.9997 23.7902 35.8297 21.0824 37.9505 19.0545C39.0109 18.0405 39.8941 17.1964 40.5121 16.6059L41.2293 15.9207L41.4182 15.7402L41.4584 15.7018C41.4613 15.6998 41.4645 15.6975 41.468 15.6951C41.4911 15.6791 41.5263 15.6555 41.5709 15.6281C41.6615 15.5722 41.7841 15.5047 41.9184 15.4511C42.2247 15.3287 42.4092 15.3462 42.5032 15.4176L42.5032 15.4176C42.7894 15.635 43.4576 16.2757 44.083 16.8937C44.3832 17.1905 44.6646 17.4729 44.8735 17.6838ZM18.7291 37.562C18.729 37.5621 18.7304 37.5603 18.734 37.5562C18.7311 37.5598 18.7293 37.5619 18.7291 37.562ZM16.6438 44.5478C16.6438 44.548 16.644 44.5461 16.6448 44.5418C16.6443 44.5456 16.6439 44.5477 16.6438 44.5478Z" stroke="url(#paint6_linear_4_25586)"/>
</g>
<g opacity="0.5" filter="url(#filter2_f_4_25586)">
<path d="M16.8672 45.196C16.8672 45.196 17.3531 45.8892 17.6044 45.8892C17.8557 45.8892 24.7434 43.989 25.1226 43.7839C25.5018 43.5787 47.9236 21.8472 47.9236 21.8472C47.9236 21.8472 48.7353 20.8549 48.2326 20.2424C47.73 19.6298 45.4526 17.5677 45.4526 17.5677L16.8672 45.196Z" fill="#232323"/>
<path d="M47.5509 21.5121L47.5113 21.5505L47.3237 21.7322L46.6115 22.4222C45.9977 23.0168 45.1204 23.8665 44.0665 24.8867C41.9586 26.9271 39.1442 29.6498 36.318 32.3789C33.4916 35.1081 30.6539 37.8432 28.4992 39.9087C27.4218 40.9416 26.5158 41.8064 25.8677 42.419C25.5435 42.7255 25.2851 42.9677 25.1024 43.1359C25.0108 43.2203 24.9403 43.2842 24.891 43.3276C24.8809 43.3365 24.8721 43.3442 24.8645 43.3507C24.8521 43.3554 24.8349 43.3617 24.812 43.3698C24.7478 43.3925 24.6598 43.4216 24.5495 43.4567C24.3294 43.5267 24.0322 43.6166 23.682 43.7197C22.9824 43.9257 22.0807 44.1817 21.1816 44.4317C20.2827 44.6817 19.3885 44.925 18.7042 45.1056C18.3617 45.196 18.0738 45.2702 17.8648 45.3216C17.7868 45.3407 17.7214 45.3563 17.6693 45.3682C17.6318 45.3351 17.5882 45.2913 17.5414 45.2397L45.4625 18.2535C45.4678 18.2583 45.4731 18.2632 45.4784 18.2681C45.6989 18.4702 45.9979 18.7458 46.3123 19.0403C46.9549 19.6421 47.6206 20.2847 47.8461 20.5596L47.8461 20.5596C47.9066 20.6333 47.9332 20.7852 47.8075 21.0764C47.7529 21.2028 47.6838 21.319 47.6262 21.4056C47.5979 21.4482 47.5737 21.4817 47.5572 21.5036C47.555 21.5067 47.5528 21.5095 47.5509 21.5121ZM17.5508 45.3928C17.5509 45.3927 17.5528 45.3924 17.5563 45.392C17.5524 45.3926 17.5507 45.3928 17.5508 45.3928ZM24.8296 43.3797C24.8297 43.3795 24.8317 43.3779 24.8353 43.3753C24.8314 43.3785 24.8296 43.3798 24.8296 43.3797Z" stroke="url(#paint7_linear_4_25586)"/>
</g>
<path d="M41.2528 14.0793L41.2942 14.0383C41.2973 14.036 41.3007 14.0335 41.3045 14.0308C41.3279 14.014 41.3635 13.9891 41.4087 13.9602C41.5006 13.9014 41.6245 13.8305 41.76 13.7742C42.069 13.6459 42.2501 13.6654 42.3436 13.7392L42.3436 13.7392C42.6339 13.9683 43.3104 14.6427 43.9428 15.2924C44.2525 15.6104 44.5423 15.9129 44.7548 16.136C44.759 16.1403 44.7631 16.1446 44.7671 16.1489L16.3722 44.414C16.3067 44.3582 16.2511 44.306 16.2105 44.2618C16.2228 44.21 16.2387 44.1458 16.2582 44.0694C16.3122 43.8581 16.3902 43.5669 16.4852 43.2204C16.6751 42.5283 16.931 41.6238 17.1938 40.7145C17.4566 39.805 17.7257 38.8929 17.9423 38.1852C18.0507 37.831 18.1452 37.5304 18.2188 37.3079C18.2557 37.1963 18.2863 37.1074 18.3101 37.0425C18.3186 37.0195 18.3252 37.0022 18.3301 36.9897C18.3371 36.9819 18.3454 36.9727 18.3551 36.9621C18.4009 36.9121 18.4681 36.8407 18.5569 36.748C18.7338 36.5632 18.9885 36.3017 19.3108 35.9737C19.9549 35.3181 20.8642 34.4016 21.9502 33.3117C24.122 31.132 26.9979 28.2614 29.8674 25.4023C32.7369 22.5434 35.5996 19.6964 37.745 17.5641C38.8177 16.4979 39.7111 15.6105 40.3362 14.9895L41.0618 14.2691L41.2528 14.0793ZM16.1835 44.3862C16.1834 44.3863 16.1837 44.3846 16.1844 44.3807C16.1839 44.3841 16.1836 44.3861 16.1835 44.3862ZM18.3045 37.019C18.3018 37.0225 18.3002 37.0244 18.3 37.0246C18.2998 37.0247 18.3011 37.023 18.3045 37.019Z" fill="url(#paint8_linear_4_25586)" stroke="url(#paint9_linear_4_25586)"/>
<path d="M17.0834 45.1197L45.3485 16.7247C45.3528 16.7288 45.3571 16.7329 45.3614 16.737C45.5845 16.9495 45.887 17.2394 46.205 17.549C46.8547 18.1814 47.529 18.858 47.7582 19.1482L47.7582 19.1482C47.832 19.2418 47.8515 19.4228 47.7232 19.7319C47.6669 19.8673 47.596 19.9913 47.5372 20.0831C47.5083 20.1283 47.4834 20.164 47.4666 20.1874C47.4639 20.1911 47.4614 20.1946 47.4591 20.1977L47.4181 20.239L47.2283 20.4301L46.5079 21.1556C45.8869 21.7808 44.9995 22.6741 43.9333 23.7468C41.801 25.8922 38.954 28.755 36.0951 31.6244C33.236 34.494 30.3654 37.3698 28.1857 39.5416C27.0958 40.6277 26.1793 41.5369 25.5237 42.1811C25.1957 42.5034 24.9342 42.7581 24.7494 42.935C24.6567 43.0237 24.5853 43.091 24.5353 43.1367C24.5247 43.1464 24.5155 43.1547 24.5077 43.1618C24.4952 43.1667 24.4779 43.1733 24.4549 43.1818C24.39 43.2056 24.3011 43.2362 24.1895 43.2731C23.967 43.3466 23.6664 43.4411 23.3122 43.5495C22.6045 43.7661 21.6924 44.0353 20.7829 44.2981C19.8736 44.5609 18.9691 44.8167 18.277 45.0066C17.9305 45.1017 17.6393 45.1797 17.428 45.2336C17.3516 45.2531 17.2874 45.2691 17.2356 45.2814C17.1914 45.2407 17.1392 45.1852 17.0834 45.1197ZM17.1112 45.3084C17.1113 45.3083 17.1133 45.308 17.1167 45.3075C17.1128 45.3082 17.1111 45.3084 17.1112 45.3084ZM24.4728 43.1919C24.4729 43.1917 24.4749 43.1901 24.4784 43.1873C24.4745 43.1906 24.4728 43.192 24.4728 43.1919Z" fill="url(#paint10_linear_4_25586)" stroke="url(#paint11_linear_4_25586)"/>
<defs>
<filter id="filter0_f_4_25586" x="2.3" y="2.3" width="59.4" height="59.4" filterUnits="userSpaceOnUse" color-interpolation-filters="sRGB">
<feFlood flood-opacity="0" result="BackgroundImageFix"/>
<feBlend mode="normal" in="SourceGraphic" in2="BackgroundImageFix" result="shape"/>
<feGaussianBlur stdDeviation="1.1" result="effect1_foregroundBlur_4_25586"/>
</filter>
<filter id="filter1_f_4_25586" x="13.9337" y="12.6467" width="33.867" height="34.764" filterUnits="userSpaceOnUse" color-interpolation-filters="sRGB">
<feFlood flood-opacity="0" result="BackgroundImageFix"/>
<feBlend mode="normal" in="SourceGraphic" in2="BackgroundImageFix" result="shape"/>
<feGaussianBlur stdDeviation="1.10736" result="effect1_foregroundBlur_4_25586"/>
</filter>
<filter id="filter2_f_4_25586" x="14.6525" y="15.353" width="35.9607" height="32.7509" filterUnits="userSpaceOnUse" color-interpolation-filters="sRGB">
<feFlood flood-opacity="0" result="BackgroundImageFix"/>
<feBlend mode="normal" in="SourceGraphic" in2="BackgroundImageFix" result="shape"/>
<feGaussianBlur stdDeviation="1.10736" result="effect1_foregroundBlur_4_25586"/>
</filter>
<linearGradient id="paint0_linear_4_25586" x1="4.5" y1="32" x2="59.5" y2="32" gradientUnits="userSpaceOnUse">
<stop stop-color="#FDFC47"/>
<stop offset="1" stop-color="#24FE41"/>
</linearGradient>
<linearGradient id="paint1_linear_4_25586" x1="4.5" y1="32" x2="59.5" y2="32" gradientUnits="userSpaceOnUse">
<stop stop-color="#FDFC47"/>
<stop offset="1" stop-color="#24FE41"/>
</linearGradient>
<linearGradient id="paint2_linear_4_25586" x1="9.89844" y1="26.1946" x2="54.1063" y2="26.1946" gradientUnits="userSpaceOnUse">
<stop stop-color="#FDFC47"/>
<stop offset="1" stop-color="#24FE41"/>
</linearGradient>
<linearGradient id="paint3_linear_4_25586" x1="10.6953" y1="16.2076" x2="53.3045" y2="16.2076" gradientUnits="userSpaceOnUse">
<stop stop-color="#FDFC47"/>
<stop offset="1" stop-color="#24FE41"/>
</linearGradient>
<linearGradient id="paint4_linear_4_25586" x1="9.89844" y1="36.1817" x2="54.1063" y2="36.1817" gradientUnits="userSpaceOnUse">
<stop stop-color="#FDFC47"/>
<stop offset="1" stop-color="#24FE41"/>
</linearGradient>
<linearGradient id="paint5_linear_4_25586" x1="9.89844" y1="46.1677" x2="54.1063" y2="46.1677" gradientUnits="userSpaceOnUse">
<stop stop-color="#FDFC47"/>
<stop offset="1" stop-color="#24FE41"/>
</linearGradient>
<linearGradient id="paint6_linear_4_25586" x1="16.1484" y1="30.0287" x2="45.5857" y2="30.0287" gradientUnits="userSpaceOnUse">
<stop stop-color="#FDFC47"/>
<stop offset="1" stop-color="#24FE41"/>
</linearGradient>
<linearGradient id="paint7_linear_4_25586" x1="16.8672" y1="31.7284" x2="48.3968" y2="31.7284" gradientUnits="userSpaceOnUse">
<stop stop-color="#FDFC47"/>
<stop offset="1" stop-color="#24FE41"/>
</linearGradient>
<linearGradient id="paint8_linear_4_25586" x1="15.6875" y1="29.1281" x2="45.4657" y2="29.1281" gradientUnits="userSpaceOnUse">
<stop stop-color="#FDFC47"/>
<stop offset="1" stop-color="#24FE41"/>
</linearGradient>
<linearGradient id="paint9_linear_4_25586" x1="15.6875" y1="29.1281" x2="45.4657" y2="29.1281" gradientUnits="userSpaceOnUse">
<stop stop-color="#FDFC47"/>
<stop offset="1" stop-color="#24FE41"/>
</linearGradient>
<linearGradient id="paint10_linear_4_25586" x1="16.4219" y1="30.9153" x2="48.3167" y2="30.9153" gradientUnits="userSpaceOnUse">
<stop stop-color="#FDFC47"/>
<stop offset="1" stop-color="#24FE41"/>
</linearGradient>
<linearGradient id="paint11_linear_4_25586" x1="16.4219" y1="30.9153" x2="48.3167" y2="30.9153" gradientUnits="userSpaceOnUse">
<stop stop-color="#FDFC47"/>
<stop offset="1" stop-color="#24FE41"/>
</linearGradient>
</defs>
</svg>
