<svg width="64" height="64" viewBox="0 0 64 64" fill="none" xmlns="http://www.w3.org/2000/svg">
<g opacity="0.3" filter="url(#filter0_f_4_25478)">
<path d="M44.5003 4.50003H19.5001C11.2158 4.50003 4.5 11.2158 4.5 19.5001V44.5003C4.5 52.7846 11.2158 59.5004 19.5001 59.5004H44.5003C52.7846 59.5004 59.5004 52.7846 59.5004 44.5003V19.5001C59.5004 11.2158 52.7846 4.50003 44.5003 4.50003Z" fill="#232323"/>
<path d="M19.5001 5.00003H44.5003C52.5085 5.00003 59.0004 11.4919 59.0004 19.5001V44.5003C59.0004 52.5085 52.5085 59.0004 44.5003 59.0004H19.5001C11.4919 59.0004 5 52.5085 5 44.5003V19.5001C5 11.4919 11.4919 5.00003 19.5001 5.00003Z" stroke="url(#paint0_linear_4_25478)"/>
</g>
<path d="M19.5001 5H44.5007C52.5089 5 59.0008 11.4919 59.0008 19.5001V44.5007C59.0008 52.5089 52.5089 59.0008 44.5007 59.0008H19.5001C11.4919 59.0008 5 52.5089 5 44.5007V19.5001C5 11.4919 11.4919 5 19.5001 5Z" fill="#232323" stroke="url(#paint1_linear_4_25478)"/>
<path d="M27.4356 35.3687L27.4341 35.3548V34.3766H32.0043H36.5746V35.3548L36.5731 35.3687C36.5703 35.397 36.5666 35.4369 36.563 35.4871C36.5556 35.5875 36.5482 35.7296 36.547 35.9029C36.5446 36.2481 36.5669 36.7242 36.6676 37.2441C36.8669 38.2742 37.3928 39.5581 38.7338 40.2565L38.9648 39.8131L38.7338 40.2565C39.3489 40.5769 40.3503 41.0717 41.4889 41.6343C42.4774 42.1227 43.5693 42.6622 44.6018 43.1832C45.72 43.7474 46.773 44.2918 47.5699 44.7352C47.9691 44.9573 48.2968 45.1501 48.5337 45.3046C48.6527 45.3822 48.7414 45.4455 48.8023 45.4943C48.8346 45.5201 48.8516 45.5362 48.8586 45.543C49.0252 45.8232 49.2295 46.361 49.2194 46.8523C49.2144 47.0947 49.158 47.2966 49.0489 47.453C48.9508 47.5938 48.7844 47.735 48.4849 47.8305H15.5239C15.2244 47.735 15.058 47.5937 14.9598 47.453C14.8508 47.2965 14.7944 47.0946 14.7894 46.8522C14.7793 46.361 14.9836 45.8231 15.1501 45.5429C15.1571 45.5362 15.1742 45.5201 15.2064 45.4943C15.2673 45.4455 15.356 45.3822 15.475 45.3047C15.7119 45.1501 16.0396 44.9573 16.4388 44.7352C17.2357 44.2918 18.2887 43.7474 19.407 43.1832C20.4394 42.6623 21.5312 42.1228 22.5196 41.6344C23.6583 41.0717 24.6598 40.5769 25.2749 40.2565L25.2749 40.2565C26.6159 39.558 27.1418 38.2741 27.3412 37.2441C27.4418 36.7242 27.4641 36.248 27.4617 35.9029C27.4605 35.7296 27.4531 35.5875 27.4458 35.4871C27.4421 35.4369 27.4384 35.397 27.4356 35.3687Z" fill="url(#paint2_linear_4_25478)" stroke="url(#paint3_linear_4_25478)"/>
<g opacity="0.3" filter="url(#filter1_f_4_25478)">
<path d="M38.6275 27.741C37.6948 34.8943 35.4958 38.7122 31.6328 38.7122C27.7697 38.7122 25.5704 34.8943 24.638 27.741C23.7871 21.2146 24.638 15.819 31.6328 15.819C38.6275 15.819 39.4784 21.2146 38.6275 27.741Z" fill="#232323"/>
<path d="M25.1338 27.6764L25.1338 27.6763C24.71 24.4256 24.7298 21.5672 25.6487 19.5389C26.1012 18.54 26.7703 17.7463 27.7197 17.1968C28.6745 16.6442 29.9467 16.319 31.6328 16.319C33.3188 16.319 34.591 16.6442 35.5458 17.1968C36.4952 17.7463 37.1643 18.54 37.6168 19.5389C38.5357 21.5672 38.5555 24.4256 38.1317 27.6763C37.6687 31.2277 36.8975 33.8867 35.8044 35.6451C34.728 37.3765 33.3593 38.2122 31.6328 38.2122C29.9062 38.2122 28.5374 37.3765 27.461 35.6451C26.3678 33.8867 25.5967 31.2277 25.1338 27.6764Z" stroke="url(#paint4_linear_4_25478)"/>
</g>
<path d="M25.0277 26.4211L25.0277 26.421C24.5735 23.183 24.5959 20.3432 25.5774 18.3295C26.0606 17.338 26.7781 16.5433 27.8052 15.9908C28.8389 15.4346 30.2149 15.1086 32.0324 15.1086C33.85 15.1086 35.226 15.4346 36.2597 15.9907C37.2867 16.5432 38.0043 17.3378 38.4875 18.3293C39.469 20.343 39.4914 23.1828 39.0371 26.421C38.5411 29.9573 37.7154 32.6031 36.545 34.3531C35.3932 36.0752 33.9155 36.9249 32.0324 36.9249C30.1493 36.9249 28.6715 36.0753 27.5197 34.3533C26.3493 32.6033 25.5236 29.9575 25.0277 26.4211Z" fill="url(#paint5_linear_4_25478)" stroke="url(#paint6_linear_4_25478)"/>
<path d="M39.9182 25.4204C39.9259 25.4032 39.9333 25.3871 39.9404 25.3721C39.9518 25.3734 39.9634 25.3749 39.9753 25.3765C40.1516 25.3998 40.3612 25.4496 40.5439 25.5466C40.7206 25.6403 40.8585 25.7699 40.936 25.9586C41.0149 26.1507 41.0571 26.4669 40.9202 26.98C40.6152 28.124 40.1759 29.2927 39.6634 30.1987C39.4071 30.652 39.1409 31.0243 38.8761 31.2934C38.6999 31.4724 38.5369 31.593 38.3899 31.6666C38.3813 31.5643 38.3795 31.425 38.3906 31.244C38.4287 30.6205 38.6011 29.7348 38.8335 28.8088C39.0644 27.8894 39.3471 26.9587 39.5938 26.2559C39.7177 25.9032 39.8293 25.6166 39.9182 25.4204ZM38.4261 31.8568C38.4261 31.8568 38.4257 31.856 38.4249 31.8542C38.4258 31.8558 38.4262 31.8567 38.4261 31.8568ZM39.7023 25.3585C39.7022 25.3585 39.7022 25.3585 39.7024 25.3585L39.7023 25.3585Z" fill="url(#paint7_linear_4_25478)" stroke="url(#paint8_linear_4_25478)"/>
<path d="M24.034 25.1558C24.0459 25.1542 24.0576 25.1527 24.0689 25.1514C24.076 25.1664 24.0834 25.1825 24.0912 25.1996C24.18 25.3959 24.2917 25.6825 24.4155 26.0352C24.6622 26.738 24.945 27.6687 25.1758 28.5881C25.4082 29.5141 25.5806 30.3998 25.6187 31.0233C25.6298 31.2043 25.628 31.3436 25.6194 31.4459C25.4724 31.3723 25.3094 31.2517 25.1333 31.0727C24.8684 30.8036 24.6022 30.4313 24.3459 29.978C23.8334 29.072 23.3941 27.9033 23.0891 26.7593C22.9522 26.2461 22.9944 25.9299 23.0733 25.7379C23.1509 25.5492 23.2887 25.4196 23.4654 25.3259C23.6481 25.2289 23.8577 25.1791 24.034 25.1558ZM25.5832 31.6361C25.5832 31.636 25.5836 31.6351 25.5844 31.6335C25.5836 31.6353 25.5832 31.6361 25.5832 31.6361Z" fill="url(#paint9_linear_4_25478)" stroke="url(#paint10_linear_4_25478)"/>
<path d="M25.0277 26.4211L25.0277 26.421C24.5735 23.183 24.5959 20.3432 25.5774 18.3295C26.0606 17.338 26.7781 16.5433 27.8052 15.9908C28.8389 15.4346 30.2149 15.1086 32.0324 15.1086C33.85 15.1086 35.226 15.4346 36.2597 15.9907C37.2867 16.5432 38.0043 17.3378 38.4875 18.3293C39.469 20.343 39.4914 23.1828 39.0371 26.421C38.5411 29.9573 37.7154 32.6031 36.545 34.3531C35.3932 36.0752 33.9155 36.9249 32.0324 36.9249C30.1493 36.9249 28.6715 36.0753 27.5197 34.3533C26.3493 32.6033 25.5236 29.9575 25.0277 26.4211Z" fill="url(#paint11_linear_4_25478)" stroke="url(#paint12_linear_4_25478)"/>
<defs>
<filter id="filter0_f_4_25478" x="3.26249" y="3.26252" width="57.475" height="57.4754" filterUnits="userSpaceOnUse" color-interpolation-filters="sRGB">
<feFlood flood-opacity="0" result="BackgroundImageFix"/>
<feBlend mode="normal" in="SourceGraphic" in2="BackgroundImageFix" result="shape"/>
<feGaussianBlur stdDeviation="0.618754" result="effect1_foregroundBlur_4_25478"/>
</filter>
<filter id="filter1_f_4_25478" x="23.4386" y="14.8904" width="16.3884" height="24.7503" filterUnits="userSpaceOnUse" color-interpolation-filters="sRGB">
<feFlood flood-opacity="0" result="BackgroundImageFix"/>
<feBlend mode="normal" in="SourceGraphic" in2="BackgroundImageFix" result="shape"/>
<feGaussianBlur stdDeviation="0.464297" result="effect1_foregroundBlur_4_25478"/>
</filter>
<linearGradient id="paint0_linear_4_25478" x1="4.5" y1="32.0002" x2="59.5004" y2="32.0002" gradientUnits="userSpaceOnUse">
<stop stop-color="#FDFC47"/>
<stop offset="1" stop-color="#24FE41"/>
</linearGradient>
<linearGradient id="paint1_linear_4_25478" x1="4.5" y1="32.0004" x2="59.5008" y2="32.0004" gradientUnits="userSpaceOnUse">
<stop stop-color="#FDFC47"/>
<stop offset="1" stop-color="#24FE41"/>
</linearGradient>
<linearGradient id="paint2_linear_4_25478" x1="14.2891" y1="41.1036" x2="49.7197" y2="41.1036" gradientUnits="userSpaceOnUse">
<stop stop-color="#FDFC47"/>
<stop offset="1" stop-color="#24FE41"/>
</linearGradient>
<linearGradient id="paint3_linear_4_25478" x1="14.2891" y1="41.1036" x2="49.7197" y2="41.1036" gradientUnits="userSpaceOnUse">
<stop stop-color="#FDFC47"/>
<stop offset="1" stop-color="#24FE41"/>
</linearGradient>
<linearGradient id="paint4_linear_4_25478" x1="24.3672" y1="27.2656" x2="38.8983" y2="27.2656" gradientUnits="userSpaceOnUse">
<stop stop-color="#FDFC47"/>
<stop offset="1" stop-color="#24FE41"/>
</linearGradient>
<linearGradient id="paint5_linear_4_25478" x1="24.2422" y1="26.0167" x2="39.8227" y2="26.0167" gradientUnits="userSpaceOnUse">
<stop stop-color="#FDFC47"/>
<stop offset="1" stop-color="#24FE41"/>
</linearGradient>
<linearGradient id="paint6_linear_4_25478" x1="24.2422" y1="26.0167" x2="39.8227" y2="26.0167" gradientUnits="userSpaceOnUse">
<stop stop-color="#FDFC47"/>
<stop offset="1" stop-color="#24FE41"/>
</linearGradient>
<linearGradient id="paint7_linear_4_25478" x1="37.8828" y1="28.55" x2="41.5093" y2="28.55" gradientUnits="userSpaceOnUse">
<stop stop-color="#FDFC47"/>
<stop offset="1" stop-color="#24FE41"/>
</linearGradient>
<linearGradient id="paint8_linear_4_25478" x1="37.8828" y1="28.55" x2="41.5093" y2="28.55" gradientUnits="userSpaceOnUse">
<stop stop-color="#FDFC47"/>
<stop offset="1" stop-color="#24FE41"/>
</linearGradient>
<linearGradient id="paint9_linear_4_25478" x1="22.5" y1="28.3293" x2="26.1265" y2="28.3293" gradientUnits="userSpaceOnUse">
<stop stop-color="#FDFC47"/>
<stop offset="1" stop-color="#24FE41"/>
</linearGradient>
<linearGradient id="paint10_linear_4_25478" x1="22.5" y1="28.3293" x2="26.1265" y2="28.3293" gradientUnits="userSpaceOnUse">
<stop stop-color="#FDFC47"/>
<stop offset="1" stop-color="#24FE41"/>
</linearGradient>
<linearGradient id="paint11_linear_4_25478" x1="24.2422" y1="26.0167" x2="39.8227" y2="26.0167" gradientUnits="userSpaceOnUse">
<stop stop-color="#FDFC47"/>
<stop offset="1" stop-color="#24FE41"/>
</linearGradient>
<linearGradient id="paint12_linear_4_25478" x1="24.2422" y1="26.0167" x2="39.8227" y2="26.0167" gradientUnits="userSpaceOnUse">
<stop stop-color="#FDFC47"/>
<stop offset="1" stop-color="#24FE41"/>
</linearGradient>
</defs>
</svg>
