<svg width="64" height="64" viewBox="0 0 64 64" fill="none" xmlns="http://www.w3.org/2000/svg">
<g filter="url(#filter0_f_4_25383)">
<path d="M44.5003 4.49982H19.5001C11.2158 4.49982 4.5 11.2156 4.5 19.4999V44.5001C4.5 52.7844 11.2158 59.5002 19.5001 59.5002H44.5003C52.7846 59.5002 59.5004 52.7844 59.5004 44.5001V19.4999C59.5004 11.2156 52.7846 4.49982 44.5003 4.49982Z" fill="url(#paint0_linear_4_25383)"/>
</g>
<path d="M19.5001 4.9996H44.5007C52.5089 4.9996 59.0008 11.4915 59.0008 19.4997V44.5003C59.0008 52.5085 52.5089 59.0004 44.5007 59.0004H19.5001C11.4919 59.0004 5 52.5085 5 44.5003V19.4997C5 11.4915 11.4919 4.9996 19.5001 4.9996Z" fill="#232323" stroke="url(#paint1_linear_4_25383)"/>
<path d="M25.2968 22.9778C27.0566 22.9778 28.7944 23.2387 30.51 23.7604L31.0539 23.9196L29.9661 26.9971L29.462 26.8512C27.8614 26.409 26.4022 26.1879 25.0845 26.1879C23.7846 26.1879 22.6703 26.4002 21.7417 26.8247C20.822 27.2492 20.3622 27.793 20.3622 28.4563C20.3622 28.8896 20.5656 29.2699 20.9724 29.5971C21.388 29.9243 21.923 30.2029 22.5774 30.4328C23.2319 30.6539 23.9526 30.875 24.7397 31.096C25.5356 31.3171 26.3315 31.5736 27.1274 31.8654C27.9233 32.1573 28.6485 32.4933 29.3029 32.8736C29.9573 33.2538 30.4879 33.7623 30.8947 34.3991C31.3103 35.027 31.5181 35.7521 31.5181 36.5746C31.5181 37.1052 31.4253 37.6313 31.2396 38.1531C31.0627 38.666 30.7576 39.1745 30.3243 39.6786C29.8998 40.1827 29.3692 40.6248 28.7325 41.0051C28.1046 41.3765 27.2998 41.6816 26.3182 41.9204C25.3454 42.1503 24.2533 42.2653 23.0417 42.2653C21.8302 42.2653 20.738 42.1548 19.7652 41.9337C18.7924 41.7037 17.7622 41.3765 16.6744 40.9521L16.1836 40.7663L17.3112 37.5562L17.8285 37.7552C20.0659 38.5511 21.9098 38.949 23.3601 38.949C24.722 38.949 25.823 38.7412 26.6631 38.3256C27.5121 37.9099 27.9366 37.3616 27.9366 36.6807C27.9366 36.3004 27.8083 35.9599 27.5519 35.6593C27.2954 35.3586 26.9505 35.1065 26.5172 34.9031C26.0839 34.6909 25.5842 34.4963 25.0182 34.3195C24.4611 34.1426 23.873 33.9702 23.254 33.8021C22.6349 33.6341 22.0159 33.4528 21.3968 33.2583C20.7778 33.0637 20.1853 32.8294 19.6193 32.5552C19.0622 32.2811 18.5669 31.9715 18.1336 31.6267C17.7003 31.2818 17.3554 30.8529 17.0989 30.3399C16.8425 29.8182 16.7142 29.2389 16.7142 28.6022C16.7142 27.0104 17.4925 25.675 19.0489 24.5961C20.6142 23.5172 22.6968 22.9778 25.2968 22.9778ZM42.2497 28.6287C43.3993 28.6287 44.6418 28.9073 45.9772 29.4644L46.1761 28.894H48.6302V42.2786C48.6302 42.7473 48.5992 43.1983 48.5373 43.6316C48.4754 44.0738 48.3649 44.5292 48.2057 44.9979C48.0465 45.4666 47.8431 45.9 47.5955 46.2979C47.3479 46.6959 47.0251 47.0761 46.6271 47.4387C46.238 47.8013 45.787 48.1064 45.2741 48.354C44.7612 48.6105 44.1466 48.8094 43.4302 48.9509C42.7228 49.1013 41.9401 49.1764 41.0823 49.1764C39.4021 49.1764 37.8014 48.8802 36.2803 48.2877L35.7895 48.0754L36.7844 45.502L37.3283 45.701C38.4868 46.0812 39.6276 46.2714 40.7507 46.2714C41.5289 46.2714 42.201 46.1785 42.767 45.9928C43.3418 45.8159 43.7928 45.586 44.12 45.303C44.4472 45.0289 44.7081 44.684 44.9027 44.2683C45.0972 43.8527 45.221 43.4503 45.2741 43.0612C45.336 42.6809 45.367 42.2565 45.367 41.7878V41.6684C44.2527 42.0663 43.134 42.2653 42.0109 42.2653C41.3034 42.2653 40.6225 42.1901 39.968 42.0398C39.3136 41.8983 38.6769 41.6551 38.0579 41.3102C37.4388 40.9653 36.8994 40.5408 36.4395 40.0368C35.9885 39.5238 35.6259 38.8783 35.3518 38.1C35.0776 37.3218 34.9406 36.4507 34.9406 35.4868C34.9406 34.4875 35.0997 33.5855 35.4181 32.7807C35.7453 31.976 36.1609 31.3216 36.665 30.8175C37.1779 30.3134 37.766 29.8933 38.4293 29.5573C39.0925 29.2124 39.7381 28.9736 40.366 28.841C41.0027 28.6995 41.6306 28.6287 42.2497 28.6287ZM42.4088 31.4807C41.1708 31.4807 40.1759 31.8256 39.4242 32.5154C38.6813 33.1964 38.3099 34.1117 38.3099 35.2613C38.3099 36.464 38.6902 37.4545 39.4507 38.2327C40.2112 39.0021 41.299 39.3868 42.7139 39.3868C43.5983 39.3868 44.4826 39.2276 45.367 38.9092V31.9848C44.2173 31.6488 43.2313 31.4807 42.4088 31.4807Z" fill="url(#paint2_linear_4_25383)"/>
<defs>
<filter id="filter0_f_4_25383" x="3.26249" y="3.26231" width="57.475" height="57.4754" filterUnits="userSpaceOnUse" color-interpolation-filters="sRGB">
<feFlood flood-opacity="0" result="BackgroundImageFix"/>
<feBlend mode="normal" in="SourceGraphic" in2="BackgroundImageFix" result="shape"/>
<feGaussianBlur stdDeviation="0.618754" result="effect1_foregroundBlur_4_25383"/>
</filter>
<linearGradient id="paint0_linear_4_25383" x1="4.5" y1="32" x2="59.5004" y2="32" gradientUnits="userSpaceOnUse">
<stop stop-color="#FDFC47"/>
<stop offset="1" stop-color="#24FE41"/>
</linearGradient>
<linearGradient id="paint1_linear_4_25383" x1="4.5" y1="32" x2="59.5008" y2="32" gradientUnits="userSpaceOnUse">
<stop stop-color="#FDFC47"/>
<stop offset="1" stop-color="#24FE41"/>
</linearGradient>
<linearGradient id="paint2_linear_4_25383" x1="13" y1="31.5" x2="52" y2="31.5" gradientUnits="userSpaceOnUse">
<stop stop-color="#FDFC47"/>
<stop offset="1" stop-color="#24FE41"/>
</linearGradient>
</defs>
</svg>
