<svg width="64" height="64" viewBox="0 0 64 64" fill="none" xmlns="http://www.w3.org/2000/svg">
<g opacity="0.3" filter="url(#filter0_f_4_25378)">
<path d="M44.5003 4.50003H19.5001C11.2158 4.50003 4.5 11.2158 4.5 19.5001V44.5003C4.5 52.7846 11.2158 59.5004 19.5001 59.5004H44.5003C52.7846 59.5004 59.5004 52.7846 59.5004 44.5003V19.5001C59.5004 11.2158 52.7846 4.50003 44.5003 4.50003Z" fill="#232323"/>
<path d="M19.5001 5.00003H44.5003C52.5085 5.00003 59.0004 11.4919 59.0004 19.5001V44.5003C59.0004 52.5085 52.5085 59.0004 44.5003 59.0004H19.5001C11.4919 59.0004 5 52.5085 5 44.5003V19.5001C5 11.4919 11.4919 5.00003 19.5001 5.00003Z" stroke="url(#paint0_linear_4_25378)"/>
</g>
<path d="M19.5001 5.00009H44.5007C52.5089 5.00009 59.0008 11.492 59.0008 19.5002V44.5008C59.0008 52.5089 52.5089 59.0009 44.5007 59.0009H19.5001C11.4919 59.0009 5 52.5089 5 44.5008V19.5002C5 11.492 11.4919 5.00009 19.5001 5.00009Z" fill="#232323" stroke="url(#paint1_linear_4_25378)"/>
<path d="M32.3926 19.1148L32.0227 18.7043L31.6511 19.1132L21.1634 30.6539C20.3198 31.4872 18.9637 31.4814 18.1285 30.6396C17.2892 29.7936 17.2915 28.4267 18.1338 27.5849L18.1423 27.5764L18.1504 27.5675L30.352 14.1399C30.8042 13.6942 31.4054 13.4957 32.0015 13.5346L32.033 13.5367L32.0645 13.5348C32.6621 13.4984 33.2612 13.6992 33.7115 14.147L45.8561 27.6256L45.8642 27.6347L45.8728 27.6433C46.7128 28.4889 46.71 29.8558 45.8664 30.6978C45.0261 31.5365 43.6711 31.5364 42.8312 30.6996L32.3926 19.1148ZM31.9879 42.7198H31.988C34.125 42.7241 35.855 44.4626 35.8503 46.6038V46.6038C35.846 48.7448 34.1088 50.4758 31.9715 50.4714C29.8346 50.4671 28.1047 48.7286 28.1092 46.5874C28.1136 44.4463 29.8508 42.7151 31.9879 42.7198ZM32.0144 30.2176H32.0145C34.1515 30.2219 35.8815 31.9604 35.8768 34.1016V34.1017C35.8724 36.2428 34.1352 37.9736 31.998 37.9693C29.861 37.9649 28.1312 36.2264 28.1357 34.0852V34.0852C28.14 31.9442 29.8773 30.2131 32.0144 30.2176ZM36.3503 46.6049C36.3556 44.1881 34.4028 42.2247 31.989 42.2198L36.3503 46.6049Z" fill="url(#paint2_linear_4_25378)" stroke="url(#paint3_linear_4_25378)"/>
<defs>
<filter id="filter0_f_4_25378" x="3.26249" y="3.26252" width="57.475" height="57.4754" filterUnits="userSpaceOnUse" color-interpolation-filters="sRGB">
<feFlood flood-opacity="0" result="BackgroundImageFix"/>
<feBlend mode="normal" in="SourceGraphic" in2="BackgroundImageFix" result="shape"/>
<feGaussianBlur stdDeviation="0.618754" result="effect1_foregroundBlur_4_25378"/>
</filter>
<linearGradient id="paint0_linear_4_25378" x1="4.5" y1="32.0002" x2="59.5004" y2="32.0002" gradientUnits="userSpaceOnUse">
<stop stop-color="#FDFC47"/>
<stop offset="1" stop-color="#24FE41"/>
</linearGradient>
<linearGradient id="paint1_linear_4_25378" x1="4.5" y1="32.0005" x2="59.5008" y2="32.0005" gradientUnits="userSpaceOnUse">
<stop stop-color="#FDFC47"/>
<stop offset="1" stop-color="#24FE41"/>
</linearGradient>
<linearGradient id="paint2_linear_4_25378" x1="17" y1="32.0006" x2="47.001" y2="32.0006" gradientUnits="userSpaceOnUse">
<stop stop-color="#FDFC47"/>
<stop offset="1" stop-color="#24FE41"/>
</linearGradient>
<linearGradient id="paint3_linear_4_25378" x1="17" y1="32.0006" x2="47.001" y2="32.0006" gradientUnits="userSpaceOnUse">
<stop stop-color="#FDFC47"/>
<stop offset="1" stop-color="#24FE41"/>
</linearGradient>
</defs>
</svg>
