<svg width="64" height="64" viewBox="0 0 64 64" fill="none" xmlns="http://www.w3.org/2000/svg">
<g filter="url(#filter0_f_4_25400)">
<path d="M44.5003 4.49982H19.5001C11.2158 4.49982 4.5 11.2156 4.5 19.4999V44.5001C4.5 52.7844 11.2158 59.5002 19.5001 59.5002H44.5003C52.7846 59.5002 59.5004 52.7844 59.5004 44.5001V19.4999C59.5004 11.2156 52.7846 4.49982 44.5003 4.49982Z" fill="#232323"/>
<path d="M19.5001 4.99982H44.5003C52.5085 4.99982 59.0004 11.4917 59.0004 19.4999V44.5001C59.0004 52.5083 52.5085 59.0002 44.5003 59.0002H19.5001C11.4919 59.0002 5 52.5083 5 44.5001V19.4999C5 11.4917 11.4919 4.99982 19.5001 4.99982Z" stroke="url(#paint0_linear_4_25400)"/>
</g>
<path d="M19.5001 4.9996H44.5007C52.5089 4.9996 59.0008 11.4915 59.0008 19.4997V44.5003C59.0008 52.5085 52.5089 59.0004 44.5007 59.0004H19.5001C11.4919 59.0004 5 52.5085 5 44.5003V19.4997C5 11.4915 11.4919 4.9996 19.5001 4.9996Z" fill="#232323" stroke="url(#paint1_linear_4_25400)"/>
<path d="M22.4062 23.7V40.7577H31.7853V38.2017H25.2107V23.7001L22.4062 23.7ZM40.2467 27.6387C38.9897 27.6387 37.7325 28.5508 36.8864 30.2201H36.79L36.5962 27.9513H34.3002V40.7577H37.0802V32.9328C37.8054 31.0027 38.9417 30.2989 39.8845 30.2989C40.3922 30.2989 40.7063 30.3768 41.1172 30.5072L41.6002 27.8986C41.2376 27.716 40.8511 27.6387 40.2467 27.6387Z" fill="url(#paint2_linear_4_25400)"/>
<defs>
<filter id="filter0_f_4_25400" x="3.26249" y="3.26231" width="57.475" height="57.4754" filterUnits="userSpaceOnUse" color-interpolation-filters="sRGB">
<feFlood flood-opacity="0" result="BackgroundImageFix"/>
<feBlend mode="normal" in="SourceGraphic" in2="BackgroundImageFix" result="shape"/>
<feGaussianBlur stdDeviation="0.618754" result="effect1_foregroundBlur_4_25400"/>
</filter>
<linearGradient id="paint0_linear_4_25400" x1="4.5" y1="32" x2="59.5004" y2="32" gradientUnits="userSpaceOnUse">
<stop stop-color="#FDFC47"/>
<stop offset="1" stop-color="#24FE41"/>
</linearGradient>
<linearGradient id="paint1_linear_4_25400" x1="4.5" y1="32" x2="59.5008" y2="32" gradientUnits="userSpaceOnUse">
<stop stop-color="#FDFC47"/>
<stop offset="1" stop-color="#24FE41"/>
</linearGradient>
<linearGradient id="paint2_linear_4_25400" x1="22.4062" y1="32.2288" x2="41.6002" y2="32.2288" gradientUnits="userSpaceOnUse">
<stop stop-color="#FDFC47"/>
<stop offset="1" stop-color="#24FE41"/>
</linearGradient>
</defs>
</svg>
