<svg width="64" height="64" viewBox="0 0 64 64" fill="none" xmlns="http://www.w3.org/2000/svg">
<g clip-path="url(#clip0_4_25302)">
<g opacity="0.3" filter="url(#filter0_f_4_25302)">
<path d="M46.498 4.5H17.502C10.3212 4.5 4.5 10.3212 4.5 17.502V46.498C4.5 53.6788 10.3212 59.5 17.502 59.5H46.498C53.6788 59.5 59.5 53.6788 59.5 46.498V17.502C59.5 10.3212 53.6788 4.5 46.498 4.5Z" fill="url(#paint0_linear_4_25302)"/>
</g>
<path d="M17.502 5H46.498C53.4027 5 59 10.5973 59 17.502V46.498C59 53.4027 53.4027 59 46.498 59H17.502C10.5973 59 5 53.4027 5 46.498V17.502C5 10.5973 10.5973 5 17.502 5Z" fill="#232323" stroke="url(#paint1_linear_4_25302)"/>
<path d="M17.943 40.5202C18.3083 40.3338 18.8924 39.8875 19.2408 39.5285C19.5892 39.1695 19.9556 38.8758 20.0551 38.8758C20.1545 38.8758 20.3868 39.1715 20.5711 39.5329C21.1162 40.6013 21.8506 40.909 23.1625 40.6186C23.6456 40.5117 24.6947 39.5547 24.6947 39.2209C24.6947 39.145 24.4046 39.0365 24.0501 38.9798C23.6117 38.9097 23.269 38.7144 22.9783 38.3689C22.4167 37.7014 22.4127 36.6747 22.9637 34.6179C23.1902 33.7725 23.3756 32.9092 23.3756 32.6994C23.3756 32.2273 22.7284 31.7779 21.886 31.6649C21.1605 31.5676 21.2478 31.3883 20.6622 34.1764C20.1954 36.3982 19.7984 37.1334 18.6161 37.9643C18.017 38.3853 17.7511 38.4636 16.9188 38.4636C15.9743 38.4636 15.9044 38.4342 15.2954 37.7813C14.9273 37.3867 14.577 36.7958 14.4645 36.3797C14.1967 35.3894 14.3432 33.5205 14.7628 32.5741C15.2738 31.4216 16.4452 30.259 17.6482 29.7106C18.5663 29.292 18.8524 29.2429 20.3251 29.2518C22.1761 29.2629 23.0825 29.5187 24.0666 30.3079C24.4014 30.5764 24.7121 30.7364 24.7572 30.6635C24.8918 30.4458 24.5351 29.1123 24.1952 28.5622C23.482 27.4083 21.1931 26.7295 18.9605 27.0099C14.7207 27.5422 11.9937 30.832 12 35.4065C12.0037 38.2701 12.9937 40.1317 14.8836 40.8304C15.5722 41.085 17.1494 40.925 17.943 40.5202ZM29.6301 40.6928C30.3043 40.4995 31.1254 39.7564 31.1254 39.3396C31.1254 39.1177 30.9986 39.0407 30.6333 39.0407C30.3246 39.0407 29.9441 38.8645 29.612 38.5677C29.1404 38.1464 29.0757 37.9801 29.0184 37.0425C28.9652 36.1725 29.103 35.4189 29.8134 32.6924C30.9974 28.1493 30.9666 28.4868 30.196 28.4916C29.3478 28.4966 28.302 28.7483 28.1577 28.9817C27.9998 29.2373 26.863 35.0489 26.6901 36.4849C26.427 38.6693 26.8672 40.1719 27.9022 40.6227C28.5132 40.8888 28.8929 40.9042 29.6301 40.6928ZM50.9181 40.4835C51.6125 40.1331 52.1452 39.4661 51.9644 39.1736C51.9192 39.1005 51.6236 39.0407 51.3074 39.0407C50.9104 39.0407 50.6018 38.91 50.3103 38.6184C49.9162 38.2244 49.8935 38.1169 49.9699 37.0107C50.0149 36.3587 50.2153 35.0833 50.4151 34.1764C50.8387 32.2547 50.7938 31.0066 50.2614 29.9069C49.4188 28.1663 47.1302 28.2391 45.1531 30.0696C44.6282 30.5555 44.1476 30.9018 44.0849 30.8391C44.0223 30.7765 43.8313 30.4092 43.6604 30.023C42.8555 28.2034 40.3596 28.1923 38.4842 29.9999C37.6747 30.7802 37.2264 30.916 37.2264 30.3809C37.2264 29.9 36.7306 29.1551 36.2425 28.9026C34.9898 28.2549 32.9396 28.93 32.748 30.0533C32.6999 30.3351 32.8073 30.3957 33.4956 30.4754C35.0756 30.6584 35.1406 31.1844 34.21 36.2585C33.8046 38.4689 33.5273 40.3368 33.5938 40.4095C33.6603 40.4822 34.1895 40.5193 34.7698 40.492L35.8248 40.4423L36.0128 39.6178C36.1162 39.1644 36.3597 37.95 36.554 36.9193C37.3642 32.6203 38.9715 30.2949 40.549 31.1392C41.006 31.3837 41.3488 32.2778 41.3481 33.223C41.3477 33.6567 41.0883 35.3842 40.7716 37.062C40.4548 38.7398 40.1954 40.2085 40.1951 40.3258C40.1946 40.4852 40.496 40.5269 41.3864 40.4907L42.5784 40.4423L43.0262 37.9928C43.5469 35.1449 44.0968 33.3938 44.8282 32.254C45.9962 30.4338 47.7537 30.5531 48.1208 32.4775C48.2587 33.2004 48.1454 34.2398 47.7016 36.32C47.2675 38.3549 47.4371 39.7097 48.2101 40.384C48.849 40.9412 49.9323 40.981 50.9181 40.4835ZM31.3368 25.9546C32.5455 25.443 32.9091 24.1708 32.0564 23.4373C31.2653 22.7568 29.4432 23.0086 28.9867 23.8615C28.6885 24.4188 28.7849 25.268 29.188 25.6347C29.8339 26.2225 30.4776 26.3183 31.3368 25.9546Z" fill="url(#paint2_linear_4_25302)"/>
</g>
<defs>
<filter id="filter0_f_4_25302" x="2.3" y="2.3" width="59.4" height="59.4" filterUnits="userSpaceOnUse" color-interpolation-filters="sRGB">
<feFlood flood-opacity="0" result="BackgroundImageFix"/>
<feBlend mode="normal" in="SourceGraphic" in2="BackgroundImageFix" result="shape"/>
<feGaussianBlur stdDeviation="1.1" result="effect1_foregroundBlur_4_25302"/>
</filter>
<linearGradient id="paint0_linear_4_25302" x1="4.5" y1="32" x2="59.5" y2="32" gradientUnits="userSpaceOnUse">
<stop stop-color="#FDFC47"/>
<stop offset="1" stop-color="#24FE41"/>
</linearGradient>
<linearGradient id="paint1_linear_4_25302" x1="4.5" y1="32" x2="59.5" y2="32" gradientUnits="userSpaceOnUse">
<stop stop-color="#FDFC47"/>
<stop offset="1" stop-color="#24FE41"/>
</linearGradient>
<linearGradient id="paint2_linear_4_25302" x1="12" y1="32" x2="52" y2="32" gradientUnits="userSpaceOnUse">
<stop stop-color="#FDFC47"/>
<stop offset="1" stop-color="#24FE41"/>
</linearGradient>
<clipPath id="clip0_4_25302">
<rect width="64" height="64" fill="white"/>
</clipPath>
</defs>
</svg>
