<svg width="64" height="64" viewBox="0 0 64 64" fill="none" xmlns="http://www.w3.org/2000/svg">
<g clip-path="url(#clip0_4_25276)">
<g opacity="0.3" filter="url(#filter0_f_4_25276)">
<path d="M44.5 4.5H19.5C11.2157 4.5 4.5 11.2157 4.5 19.5V44.5C4.5 52.7843 11.2157 59.5 19.5 59.5H44.5C52.7843 59.5 59.5 52.7843 59.5 44.5V19.5C59.5 11.2157 52.7843 4.5 44.5 4.5Z" fill="url(#paint0_linear_4_25276)"/>
</g>
<path d="M19.5 5H44.5C52.5081 5 59 11.4919 59 19.5V44.5C59 52.5081 52.5081 59 44.5 59H19.5C11.4919 59 5 52.5081 5 44.5V19.5C5 11.4919 11.4919 5 19.5 5Z" fill="#232323" stroke="url(#paint1_linear_4_25276)"/>
<path d="M21.1969 15.8V21.2C33.1269 21.2 42.7969 30.87 42.7969 42.8H48.1969C48.1969 27.882 36.1089 15.8 21.1969 15.8ZM21.1969 26.6V32C27.1612 32 31.9969 36.8357 31.9969 42.8H37.3969C37.3969 33.8536 30.1433 26.6 21.1969 26.6ZM21.1969 37.4C18.2147 37.4 15.7969 39.8178 15.7969 42.8C15.7969 45.7822 18.2147 48.2 21.1969 48.2C24.1791 48.2 26.5969 45.7822 26.5969 42.8C26.5969 39.8178 24.1791 37.4 21.1969 37.4Z" fill="url(#paint2_linear_4_25276)"/>
</g>
<defs>
<filter id="filter0_f_4_25276" x="3.2625" y="3.2625" width="57.475" height="57.475" filterUnits="userSpaceOnUse" color-interpolation-filters="sRGB">
<feFlood flood-opacity="0" result="BackgroundImageFix"/>
<feBlend mode="normal" in="SourceGraphic" in2="BackgroundImageFix" result="shape"/>
<feGaussianBlur stdDeviation="0.61875" result="effect1_foregroundBlur_4_25276"/>
</filter>
<linearGradient id="paint0_linear_4_25276" x1="4.5" y1="32" x2="59.5" y2="32" gradientUnits="userSpaceOnUse">
<stop stop-color="#FDFC47"/>
<stop offset="1" stop-color="#24FE41"/>
</linearGradient>
<linearGradient id="paint1_linear_4_25276" x1="4.5" y1="32" x2="59.5" y2="32" gradientUnits="userSpaceOnUse">
<stop stop-color="#FDFC47"/>
<stop offset="1" stop-color="#24FE41"/>
</linearGradient>
<linearGradient id="paint2_linear_4_25276" x1="15.7969" y1="32" x2="48.1969" y2="32" gradientUnits="userSpaceOnUse">
<stop stop-color="#FDFC47"/>
<stop offset="1" stop-color="#24FE41"/>
</linearGradient>
<clipPath id="clip0_4_25276">
<rect width="64" height="64" fill="white"/>
</clipPath>
</defs>
</svg>
