<svg width="64" height="64" viewBox="0 0 64 64" fill="none" xmlns="http://www.w3.org/2000/svg">
<g opacity="0.3" filter="url(#filter0_f_4_25237)">
<path d="M44.5003 4.50003H19.5001C11.2158 4.50003 4.5 11.2158 4.5 19.5001V44.5003C4.5 52.7846 11.2158 59.5004 19.5001 59.5004H44.5003C52.7846 59.5004 59.5004 52.7846 59.5004 44.5003V19.5001C59.5004 11.2158 52.7846 4.50003 44.5003 4.50003Z" fill="#232323"/>
<path d="M19.5001 5.00003H44.5003C52.5085 5.00003 59.0004 11.4919 59.0004 19.5001V44.5003C59.0004 52.5085 52.5085 59.0004 44.5003 59.0004H19.5001C11.4919 59.0004 5 52.5085 5 44.5003V19.5001C5 11.4919 11.4919 5.00003 19.5001 5.00003Z" stroke="url(#paint0_linear_4_25237)"/>
</g>
<path d="M19.5001 5H44.5007C52.5089 5 59.0008 11.4919 59.0008 19.5001V44.5007C59.0008 52.5089 52.5089 59.0008 44.5007 59.0008H19.5001C11.4919 59.0008 5 52.5089 5 44.5007V19.5001C5 11.4919 11.4919 5 19.5001 5Z" fill="#232323" stroke="url(#paint1_linear_4_25237)"/>
<path opacity="0.2" d="M22.5941 28.1844H41.0026C42.5496 28.1844 43.8037 29.4386 43.8037 30.9856V40.9516C43.8037 42.4986 42.5496 43.7527 41.0026 43.7527H22.5941C21.0471 43.7527 19.793 42.4986 19.793 40.9516V30.9856C19.793 29.4386 21.0471 28.1844 22.5941 28.1844Z" fill="#232323" stroke="url(#paint2_linear_4_25237)"/>
<path d="M23.3321 18.8752L24.4999 17.7074L31.6466 24.854L31.793 25.0004H32.0001C32.6208 25.0004 33.2382 25.006 33.8511 25.0162L34.0631 25.0197L34.213 24.8698L40.4378 18.645L41.6057 19.8129L37.1297 24.2889L36.3359 25.0827L37.4569 25.1418C40.2113 25.287 42.8546 25.5406 45.3442 25.8881C46.0888 28.9164 46.5004 32.2497 46.5004 35.7507C46.5004 39.2515 46.0888 42.5827 45.3442 45.6109C41.2486 46.1828 36.7379 46.5008 32.0002 46.5008C27.2629 46.5008 22.754 46.1828 18.6585 45.6109C17.9138 42.5826 17.5 39.2513 17.5 35.7507C17.5 32.25 17.9137 28.9167 18.6585 25.8881C21.682 25.466 24.9321 25.1826 28.333 25.0633L29.4823 25.023L28.6689 24.21L23.3321 18.8752ZM42.791 28.7389L42.7001 28.4229L42.3739 28.3812C39.1956 27.975 35.6861 27.7506 32.0001 27.7506C28.3141 27.7506 24.8071 27.975 21.6287 28.3812L21.3024 28.4229L21.2115 28.739C20.5933 30.8892 20.25 33.261 20.25 35.7507C20.25 38.2406 20.5933 40.6101 21.2115 42.7602L21.3024 43.0763L21.6287 43.118C24.8068 43.5242 28.3138 43.7508 32.0001 43.7508C35.6864 43.7508 39.1956 43.5242 42.3739 43.118L42.7002 43.0763L42.791 42.7602C43.4094 40.6097 43.7503 38.2402 43.7503 35.7507C43.7503 33.2613 43.4096 30.8894 42.791 28.7389Z" fill="url(#paint3_linear_4_25237)" stroke="url(#paint4_linear_4_25237)"/>
<defs>
<filter id="filter0_f_4_25237" x="3.26249" y="3.26252" width="57.475" height="57.4754" filterUnits="userSpaceOnUse" color-interpolation-filters="sRGB">
<feFlood flood-opacity="0" result="BackgroundImageFix"/>
<feBlend mode="normal" in="SourceGraphic" in2="BackgroundImageFix" result="shape"/>
<feGaussianBlur stdDeviation="0.618754" result="effect1_foregroundBlur_4_25237"/>
</filter>
<linearGradient id="paint0_linear_4_25237" x1="4.5" y1="32.0002" x2="59.5004" y2="32.0002" gradientUnits="userSpaceOnUse">
<stop stop-color="#FDFC47"/>
<stop offset="1" stop-color="#24FE41"/>
</linearGradient>
<linearGradient id="paint1_linear_4_25237" x1="4.5" y1="32.0004" x2="59.5008" y2="32.0004" gradientUnits="userSpaceOnUse">
<stop stop-color="#FDFC47"/>
<stop offset="1" stop-color="#24FE41"/>
</linearGradient>
<linearGradient id="paint2_linear_4_25237" x1="19.293" y1="35.9686" x2="44.3037" y2="35.9686" gradientUnits="userSpaceOnUse">
<stop stop-color="#FDFC47"/>
<stop offset="1" stop-color="#24FE41"/>
</linearGradient>
<linearGradient id="paint3_linear_4_25237" x1="17" y1="32.0005" x2="47.0004" y2="32.0005" gradientUnits="userSpaceOnUse">
<stop stop-color="#FDFC47"/>
<stop offset="1" stop-color="#24FE41"/>
</linearGradient>
<linearGradient id="paint4_linear_4_25237" x1="17" y1="32.0005" x2="47.0004" y2="32.0005" gradientUnits="userSpaceOnUse">
<stop stop-color="#FDFC47"/>
<stop offset="1" stop-color="#24FE41"/>
</linearGradient>
</defs>
</svg>
