<svg width="64" height="64" viewBox="0 0 64 64" fill="none" xmlns="http://www.w3.org/2000/svg">
<g opacity="0.3" filter="url(#filter0_f_4_25225)">
<path d="M44.5003 4.50003H19.5001C11.2158 4.50003 4.5 11.2158 4.5 19.5001V44.5003C4.5 52.7846 11.2158 59.5004 19.5001 59.5004H44.5003C52.7846 59.5004 59.5004 52.7846 59.5004 44.5003V19.5001C59.5004 11.2158 52.7846 4.50003 44.5003 4.50003Z" fill="#232323"/>
<path d="M19.5001 5.00003H44.5003C52.5085 5.00003 59.0004 11.4919 59.0004 19.5001V44.5003C59.0004 52.5085 52.5085 59.0004 44.5003 59.0004H19.5001C11.4919 59.0004 5 52.5085 5 44.5003V19.5001C5 11.4919 11.4919 5.00003 19.5001 5.00003Z" stroke="url(#paint0_linear_4_25225)"/>
</g>
<path d="M19.5001 5H44.5007C52.5089 5 59.0008 11.4919 59.0008 19.5001V44.5007C59.0008 52.5089 52.5089 59.0008 44.5007 59.0008H19.5001C11.4919 59.0008 5 52.5089 5 44.5007V19.5001C5 11.4919 11.4919 5 19.5001 5Z" fill="#232323" stroke="url(#paint1_linear_4_25225)"/>
<g filter="url(#filter1_f_4_25225)">
<path d="M16 27.4792C16 37.7692 24.4962 52.0001 31.9998 52.0001C39.0639 52.0001 48 37.7681 48 27.4792C48 17.1893 40.8365 12.0002 31.9998 12.0002C23.1631 12.0002 16 17.1889 16 27.4792Z" fill="#232323"/>
<path d="M31.9998 51.5001C30.281 51.5001 28.4514 50.6824 26.6483 49.2267C24.8501 47.775 23.119 45.7205 21.6087 43.3313C18.5832 38.5451 16.5 32.5065 16.5 27.4792C16.5 22.4581 18.243 18.7309 21.019 16.2539C23.8035 13.7695 27.6756 12.5002 31.9998 12.5002C36.324 12.5002 40.1963 13.7696 42.9808 16.2541C45.7569 18.7311 47.5 22.4583 47.5 27.4792C47.5 32.5002 45.3108 38.5373 42.2285 43.3274C40.6902 45.7181 38.944 47.7749 37.1638 49.2283C35.3758 50.6881 33.6026 51.5001 31.9998 51.5001Z" stroke="url(#paint2_linear_4_25225)"/>
</g>
<g filter="url(#filter2_f_4_25225)">
<path d="M36.3817 34.383C38.4023 32.3624 41.2214 31.6276 43.8233 32.1775C44.3732 34.7793 43.6383 37.5986 41.6178 39.6188C39.5972 41.6394 36.778 42.3742 34.1765 41.8243C33.6266 39.2224 34.3611 36.4032 36.3817 34.383Z" fill="#232323"/>
<path d="M36.7352 34.7366L36.7352 34.7366C38.5476 32.9242 41.0445 32.2136 43.3954 32.6054C43.7873 34.9563 43.0765 37.4533 41.2643 39.2652L41.2643 39.2653C39.4519 41.0776 36.955 41.7883 34.6044 41.3964C34.2125 39.0454 34.9229 36.5485 36.7352 34.7366Z" stroke="url(#paint3_linear_4_25225)"/>
</g>
<g filter="url(#filter3_f_4_25225)">
<path d="M20.1769 32.3141C22.7787 31.7719 25.598 32.4965 27.6182 34.489C29.6388 36.4815 30.3736 39.2615 29.8237 41.8271C27.2219 42.3693 24.4026 41.6447 22.382 39.6522C20.3614 37.6596 19.627 34.8797 20.1769 32.3141Z" fill="#232323"/>
<path d="M27.2671 34.845L27.2671 34.845C29.077 36.6297 29.7861 39.0861 29.3968 41.3981C27.0433 41.7849 24.545 41.0829 22.7331 39.2962C20.9232 37.5114 20.2145 35.0551 20.6038 32.7431C22.9573 32.3563 25.4556 33.0583 27.2671 34.845Z" stroke="url(#paint4_linear_4_25225)"/>
</g>
<path d="M32.0002 51.5009C30.2813 51.5009 28.4516 50.6832 26.6485 49.2275C24.8502 47.7757 23.119 45.7212 21.6087 43.332C18.5832 38.5457 16.5 32.507 16.5 27.4796C16.5 22.4583 18.2431 18.731 21.0192 16.254C23.8037 13.7695 27.676 12.5002 32.0002 12.5002C36.3246 12.5002 40.1969 13.7696 42.9815 16.2541C45.7577 18.7312 47.5008 22.4585 47.5008 27.4796C47.5008 32.5006 45.3114 38.5377 42.229 43.328C40.6907 45.7187 38.9445 47.7755 37.1642 49.229C35.3762 50.6888 33.6029 51.5009 32.0002 51.5009Z" fill="url(#paint5_linear_4_25225)" stroke="url(#paint6_linear_4_25225)"/>
<path d="M36.7352 34.7374L36.7353 34.7374C38.5476 32.925 41.0445 32.2143 43.3955 32.6061C43.7873 34.9571 43.0766 37.454 41.2643 39.266L41.2643 39.266C39.4519 41.0784 36.955 41.7891 34.6044 41.3972C34.2125 39.0462 34.923 36.5493 36.7352 34.7374Z" fill="#232323" stroke="url(#paint7_linear_4_25225)"/>
<path d="M27.2671 34.8458L27.2671 34.8458C29.077 36.6306 29.7861 39.0869 29.3968 41.3989C27.0433 41.7857 24.545 41.0837 22.7331 39.2969C20.9232 37.5121 20.2145 35.0559 20.6038 32.7438C22.9573 32.357 25.4556 33.0591 27.2671 34.8458Z" fill="#232323" stroke="url(#paint8_linear_4_25225)"/>
<defs>
<filter id="filter0_f_4_25225" x="3.26249" y="3.26252" width="57.475" height="57.4754" filterUnits="userSpaceOnUse" color-interpolation-filters="sRGB">
<feFlood flood-opacity="0" result="BackgroundImageFix"/>
<feBlend mode="normal" in="SourceGraphic" in2="BackgroundImageFix" result="shape"/>
<feGaussianBlur stdDeviation="0.618754" result="effect1_foregroundBlur_4_25225"/>
</filter>
<filter id="filter1_f_4_25225" x="10.6" y="6.60025" width="42.8" height="50.7999" filterUnits="userSpaceOnUse" color-interpolation-filters="sRGB">
<feFlood flood-opacity="0" result="BackgroundImageFix"/>
<feBlend mode="normal" in="SourceGraphic" in2="BackgroundImageFix" result="shape"/>
<feGaussianBlur stdDeviation="2.7" result="effect1_foregroundBlur_4_25225"/>
</filter>
<filter id="filter2_f_4_25225" x="28.6" y="26.601" width="20.8" height="20.7998" filterUnits="userSpaceOnUse" color-interpolation-filters="sRGB">
<feFlood flood-opacity="0" result="BackgroundImageFix"/>
<feBlend mode="normal" in="SourceGraphic" in2="BackgroundImageFix" result="shape"/>
<feGaussianBlur stdDeviation="2.7" result="effect1_foregroundBlur_4_25225"/>
</filter>
<filter id="filter3_f_4_25225" x="14.6" y="26.7401" width="20.8" height="20.6611" filterUnits="userSpaceOnUse" color-interpolation-filters="sRGB">
<feFlood flood-opacity="0" result="BackgroundImageFix"/>
<feBlend mode="normal" in="SourceGraphic" in2="BackgroundImageFix" result="shape"/>
<feGaussianBlur stdDeviation="2.7" result="effect1_foregroundBlur_4_25225"/>
</filter>
<linearGradient id="paint0_linear_4_25225" x1="4.5" y1="32.0002" x2="59.5004" y2="32.0002" gradientUnits="userSpaceOnUse">
<stop stop-color="#FDFC47"/>
<stop offset="1" stop-color="#24FE41"/>
</linearGradient>
<linearGradient id="paint1_linear_4_25225" x1="4.5" y1="32.0004" x2="59.5008" y2="32.0004" gradientUnits="userSpaceOnUse">
<stop stop-color="#FDFC47"/>
<stop offset="1" stop-color="#24FE41"/>
</linearGradient>
<linearGradient id="paint2_linear_4_25225" x1="16" y1="32.0002" x2="48" y2="32.0002" gradientUnits="userSpaceOnUse">
<stop stop-color="#FDFC47"/>
<stop offset="1" stop-color="#24FE41"/>
</linearGradient>
<linearGradient id="paint3_linear_4_25225" x1="34" y1="37.0009" x2="43.9998" y2="37.0009" gradientUnits="userSpaceOnUse">
<stop stop-color="#FDFC47"/>
<stop offset="1" stop-color="#24FE41"/>
</linearGradient>
<linearGradient id="paint4_linear_4_25225" x1="20" y1="37.0706" x2="30.0002" y2="37.0706" gradientUnits="userSpaceOnUse">
<stop stop-color="#FDFC47"/>
<stop offset="1" stop-color="#24FE41"/>
</linearGradient>
<linearGradient id="paint5_linear_4_25225" x1="16" y1="32.0006" x2="48.0008" y2="32.0006" gradientUnits="userSpaceOnUse">
<stop stop-color="#FDFC47"/>
<stop offset="1" stop-color="#24FE41"/>
</linearGradient>
<linearGradient id="paint6_linear_4_25225" x1="16" y1="32.0006" x2="48.0008" y2="32.0006" gradientUnits="userSpaceOnUse">
<stop stop-color="#FDFC47"/>
<stop offset="1" stop-color="#24FE41"/>
</linearGradient>
<linearGradient id="paint7_linear_4_25225" x1="34" y1="37.0017" x2="43.9999" y2="37.0017" gradientUnits="userSpaceOnUse">
<stop stop-color="#FDFC47"/>
<stop offset="1" stop-color="#24FE41"/>
</linearGradient>
<linearGradient id="paint8_linear_4_25225" x1="20" y1="37.0714" x2="30.0002" y2="37.0714" gradientUnits="userSpaceOnUse">
<stop stop-color="#FDFC47"/>
<stop offset="1" stop-color="#24FE41"/>
</linearGradient>
</defs>
</svg>
