<svg width="64" height="64" viewBox="0 0 64 64" fill="none" xmlns="http://www.w3.org/2000/svg">
<g opacity="0.3" filter="url(#filter0_f_4_25193)">
<path d="M44.5003 3.93121H19.5001C11.2158 3.93121 4.5 10.647 4.5 18.9313V43.9315C4.5 52.2158 11.2158 58.9316 19.5001 58.9316H44.5003C52.7846 58.9316 59.5004 52.2158 59.5004 43.9315V18.9313C59.5004 10.647 52.7846 3.93121 44.5003 3.93121Z" fill="#232323"/>
<path d="M19.5001 4.43121H44.5003C52.5085 4.43121 59.0004 10.9231 59.0004 18.9313V43.9315C59.0004 51.9397 52.5085 58.4316 44.5003 58.4316H19.5001C11.4919 58.4316 5 51.9397 5 43.9315V18.9313C5 10.9231 11.4919 4.43121 19.5001 4.43121Z" stroke="url(#paint0_linear_4_25193)"/>
</g>
<path d="M19.5001 4.43155H44.5007C52.5089 4.43155 59.0008 10.9235 59.0008 18.9317V43.9322C59.0008 51.9404 52.5089 58.4323 44.5007 58.4323H19.5001C11.4919 58.4323 5 51.9404 5 43.9322V18.9317C5 10.9235 11.4919 4.43155 19.5001 4.43155Z" fill="#232323" stroke="url(#paint1_linear_4_25193)"/>
<g filter="url(#filter1_f_4_25193)">
<path fill-rule="evenodd" clip-rule="evenodd" d="M51.9895 26.1933C51.9895 26.1933 51.5985 25.8657 51.1701 25.8284C50.7403 25.7922 49.8422 25.938 49.5698 25.9018C49.2963 25.8657 48.3594 25.3551 48.3594 25.3551C48.3594 25.3551 49.6086 24.6988 50.0383 24.6265C50.468 24.5531 51.21 24.4446 51.21 24.4446C51.21 24.4446 51.5223 24.8095 51.7572 25.3189C51.992 25.8295 51.992 26.1933 51.992 26.1933" fill="#232323"/>
</g>
<g filter="url(#filter2_f_4_25193)">
<path fill-rule="evenodd" clip-rule="evenodd" d="M50.4119 36.9531C49.5686 37.058 49.4062 36.9706 49.4062 36.9706C49.4062 36.9706 49.6011 36.1464 49.8122 36.0764C50.0234 36.0065 50.6392 36.9006 50.4119 36.9531Z" fill="#232323"/>
</g>
<g filter="url(#filter3_f_4_25193)">
<path fill-rule="evenodd" clip-rule="evenodd" d="M51.5587 29.6544C51.5587 29.6544 48.7868 30.8935 47.4601 32.824C46.1322 34.7545 45.1953 36.7223 45.1953 36.7223C45.1953 36.7223 46.1322 36.9041 46.9917 37.1955C47.8511 37.487 49.4126 37.5604 50.0759 37.4508C50.7392 37.3413 50.9354 37.0498 50.2708 36.7945C49.6075 36.5392 48.6306 36.3574 48.5919 35.8106C48.5531 35.2639 49.8023 32.0943 50.1534 31.5848C50.5044 31.0742 51.5587 29.6544 51.5587 29.6544Z" fill="#232323"/>
</g>
<g filter="url(#filter4_f_4_25193)">
<path fill-rule="evenodd" clip-rule="evenodd" d="M27.239 35.9564C27.239 35.9564 30.6731 35.4737 31.981 34.744C36.2457 32.3659 36.1008 31.0381 36.1008 31.0381C36.1008 31.0381 31.59 29.3536 28.4707 32.8263C27.1653 34.28 27.239 35.9564 27.239 35.9564Z" fill="#232323"/>
</g>
<g filter="url(#filter5_f_4_25193)">
<path fill-rule="evenodd" clip-rule="evenodd" d="M28.5271 34.5167C28.5271 34.5167 31.9499 33.8732 33.2204 32.9965C34.4896 32.1211 35.0142 31.6571 34.8493 31.3482C34.6832 31.0393 33.4415 30.5753 31.8962 30.9355C30.351 31.2957 29.2467 32.3262 28.9431 32.9709C28.6396 33.6144 28.336 34.3103 28.5296 34.5167" fill="#232323"/>
</g>
<g filter="url(#filter6_f_4_25193)">
<path fill-rule="evenodd" clip-rule="evenodd" d="M47.8746 37.473C49.1363 37.6082 49.3736 37.4951 49.3736 37.4951C49.3736 37.4951 49.0838 36.4343 48.769 36.3446C48.4542 36.2548 47.536 37.4054 47.8746 37.473Z" fill="#232323"/>
</g>
<g filter="url(#filter7_f_4_25193)">
<path fill-rule="evenodd" clip-rule="evenodd" d="M14.5735 41.1089C15.8352 42.0112 19.0206 42.5428 20.5834 42.3306C24.2697 41.8282 24.4596 42.0858 23.5702 39.8907C22.9281 38.3065 19.198 36.6849 16.6996 39.0164L15.4504 37.8507C16.1912 36.8551 14.8258 34.5353 14.2012 34.3535C13.5766 34.1716 10.6298 34.92 10.3562 35.1753C10.0826 35.4306 13.3155 40.2066 14.5735 41.1089Z" fill="#232323"/>
</g>
<path d="M47.6094 22.4258L47.6093 22.4258C47.5058 22.4261 47.3965 22.4338 47.2813 22.4514L47.2057 21.9571M47.6094 22.4258L48.6454 21.9841C48.4836 21.9901 48.3186 21.9745 48.1449 21.9581C48.0906 21.953 48.0355 21.9478 47.9794 21.9431C47.8615 21.9333 47.7356 21.9255 47.6081 21.9258C47.4805 21.9262 47.3464 21.9356 47.2057 21.9571M47.6094 22.4258C47.7166 22.4256 47.8266 22.4322 47.938 22.4414L47.9381 22.4414C47.981 22.445 48.0271 22.4494 48.0757 22.454C48.2544 22.471 48.4655 22.4911 48.6637 22.4838L48.6644 22.4838C49.2438 22.4618 49.7067 22.5408 50.0197 22.6226C50.152 22.6573 50.2572 22.6923 50.3328 22.7203M47.6094 22.4258L50.3328 22.7203M47.2057 21.9571L47.2817 22.4513C46.2063 22.6166 44.4086 23.1636 42.6386 23.7357C42.1686 23.8876 41.7004 24.0414 41.2508 24.189C40.0393 24.5868 38.964 24.94 38.3597 25.0907M47.2057 21.9571C45.7746 22.1771 43.1817 23.0286 41.0713 23.7216C39.8694 24.1163 38.8239 24.4596 38.2386 24.6056M38.3597 25.0907L38.2386 24.6056M38.3597 25.0907C38.3597 25.0907 38.3598 25.0907 38.3598 25.0907L38.2386 24.6056M38.3597 25.0907C38.1421 25.1451 37.9344 25.2005 37.7315 25.2547C37.2187 25.3915 36.7367 25.5201 36.2043 25.6024C35.4398 25.7205 34.5618 25.7482 33.2403 25.6229L33.2873 25.1252M38.2386 24.6056C38.0025 24.6646 37.7848 24.7227 37.577 24.7782C36.3665 25.1012 35.4935 25.3342 33.2873 25.1252M33.2873 25.1252C30.3404 24.8464 29.0156 24.8276 28.2404 24.8498L33.2873 25.1252ZM50.3328 22.7203C50.3385 22.7319 50.3445 22.744 50.3506 22.7567C50.4102 22.879 50.4896 23.0512 50.5688 23.2497C50.7332 23.6622 50.8721 24.1288 50.8721 24.49C50.8721 25.2633 50.5358 26.0995 49.8045 26.796L49.8044 26.7961C49.5704 27.0191 49.1262 27.6004 48.6251 28.2864C48.1093 28.9925 47.4962 29.8623 46.9091 30.7065C46.3216 31.5511 45.7586 32.3724 45.3425 32.9823C45.1345 33.2873 44.9631 33.5396 44.8437 33.7157L44.7055 33.9197L44.6692 33.9734L44.6599 33.9872L44.6575 33.9907L44.6569 33.9916L44.6567 33.9918C44.6567 33.9919 44.6567 33.9919 45.0711 34.2717L44.6567 33.9919L44.1949 34.676L45.0151 34.7685L48.1236 35.119L50.4185 35.6279C50.4384 35.6879 50.4598 35.7556 50.4805 35.8273C50.5603 36.1036 50.6014 36.3445 50.5867 36.462L50.5868 36.4618C50.5868 36.4618 50.5855 36.4706 50.5802 36.4896C50.5748 36.5093 50.5664 36.5355 50.5542 36.568C50.5297 36.6335 50.4936 36.7152 50.4455 36.8092C50.3492 36.9973 50.2136 37.2176 50.0511 37.4325C49.706 37.8886 49.3217 38.2119 49.0112 38.2851C48.514 38.4023 47.1009 38.7585 45.683 39.1833C44.9743 39.3957 44.2577 39.6271 43.651 39.8563C43.0638 40.078 42.5198 40.3188 42.2024 40.5626C42.1623 40.5933 42.1201 40.6255 42.076 40.6593C40.9471 41.5228 38.5041 43.3913 36.6924 46.1457L36.6649 46.1874L36.6463 46.2338C36.3432 46.9869 36.2279 47.7266 36.1871 48.2727C36.1763 48.4161 36.1707 48.5471 36.1681 48.6627H35.6941H35.3452L35.2248 48.9902C34.9545 49.7254 34.7389 50.5026 34.6119 51.3312L34.6072 51.3616L34.6063 51.3924C34.5567 53.1098 34.7834 54.6766 35.021 55.8115C35.1389 56.3745 35.2601 56.8338 35.3528 57.1554C35.3506 57.1563 35.3484 57.1573 35.3462 57.1582C35.006 57.2977 34.5918 57.5668 34.2474 58.0731L34.1754 58.179L34.1631 58.3065C34.1596 58.3427 34.1543 58.3852 34.1477 58.4325H22.9314C20.8163 58.4269 18.9528 58.3698 17.2943 58.2477C10.9667 57.287 6.00838 52.2803 5.14223 45.9229C5.92169 45.6985 6.95175 45.3304 8.00224 44.7723L8.29602 44.6162L8.26553 44.2849L8.23579 43.9618C8.33843 43.9383 8.45458 43.9083 8.58249 43.8699C9.08751 43.7183 9.7753 43.4366 10.5381 42.9154L10.5815 42.8857L10.6178 42.8476C10.9124 42.5387 11.2376 42.1993 11.4894 41.937L11.7986 41.615L11.8873 41.5228L11.9109 41.4983L11.9169 41.492L11.9185 41.4904L11.9189 41.49L11.919 41.4899L11.919 41.4899L11.5587 41.1432L11.919 41.4899L12.3962 40.994L11.7771 40.6934C11.5867 40.6009 11.3305 40.4126 11.0213 40.1215C10.7174 39.8356 10.3841 39.4715 10.0384 39.0517C9.34716 38.2123 8.6253 37.1734 8.01446 36.1474C7.40065 35.1163 6.91455 34.1242 6.6782 33.3762C6.55792 32.9955 6.51751 32.724 6.52928 32.5591C6.53171 32.5251 6.53531 32.5021 6.53864 32.4872C6.92751 32.3568 7.3538 32.1662 7.79422 31.9692C7.94509 31.9018 8.09762 31.8335 8.25088 31.7668C8.88351 31.4911 9.5794 31.2147 10.3731 31.0235L10.3731 31.0234C11.2492 30.8123 12.5183 30.3384 13.6801 29.855C14.8443 29.3706 15.9442 28.8583 16.487 28.5565C16.8546 28.3524 17.3908 28.3429 18.2388 28.4027C18.342 28.41 18.4486 28.4181 18.5585 28.4265C19.2987 28.4829 20.184 28.5503 21.1356 28.4444L21.174 28.4402L21.2113 28.43C24.4376 27.5539 26.0585 26.6743 26.8993 26.0324L27.1183 25.8651L27.0939 25.5907L27.0571 25.1768C27.3522 25.2421 27.7322 25.3067 28.1963 25.3478L28.2255 25.3504L28.2547 25.3496C29.0015 25.3282 30.3039 25.3451 33.2402 25.6229L50.3328 22.7203ZM6.54695 32.4634C6.54723 32.464 6.54606 32.4676 6.54261 32.4724C6.54495 32.4653 6.54668 32.4629 6.54695 32.4634Z" fill="url(#paint2_linear_4_25193)" stroke="url(#paint3_linear_4_25193)"/>
<path d="M49.7578 21.2595L49.758 21.2598L49.7579 21.2597L49.7578 21.2595ZM49.9199 21.4906C49.9208 21.492 49.9216 21.4933 49.9225 21.4946C50.0075 21.6259 50.1108 21.8009 50.2059 22.0024C50.1886 22.0001 50.1711 21.9982 50.1536 21.9965L50.1536 21.9965L50.152 21.9964C49.8716 21.9711 49.4724 22.0086 49.1645 22.0376L49.1643 22.0376C49.1475 22.0392 49.1309 22.0407 49.1145 22.0423C48.968 22.0561 48.836 22.0685 48.7226 22.0761C48.6602 22.0802 48.6089 22.0825 48.5683 22.0829C48.5286 22.0832 48.511 22.0816 48.5088 22.0814C48.5086 22.0814 48.5085 22.0814 48.5086 22.0814L48.5083 22.0814C48.5103 22.0817 48.5087 22.0811 48.503 22.0792C48.4855 22.0733 48.4294 22.0545 48.3255 22.0078C48.2983 21.9956 48.2699 21.9825 48.2408 21.9687C48.3855 21.8971 48.5307 21.8284 48.6627 21.7713C48.8473 21.6915 48.9658 21.6522 49.0155 21.6432L49.0155 21.6432L49.0168 21.643C49.2356 21.6029 49.5369 21.5528 49.7861 21.5123C49.833 21.5046 49.8779 21.4974 49.9199 21.4906Z" fill="#232323" stroke="url(#paint4_linear_4_25193)"/>
<mask id="path-13-inside-1_4_25193" fill="white">
<path fill-rule="evenodd" clip-rule="evenodd" d="M49.3144 34.9285C48.435 35.0457 48.2656 34.9481 48.2656 34.9481C48.2656 34.9481 48.4689 34.027 48.6891 33.9489C48.9092 33.8707 49.5515 34.8698 49.3144 34.9285Z"/>
</mask>
<path fill-rule="evenodd" clip-rule="evenodd" d="M49.3144 34.9285C48.435 35.0457 48.2656 34.9481 48.2656 34.9481C48.2656 34.9481 48.4689 34.027 48.6891 33.9489C48.9092 33.8707 49.5515 34.8698 49.3144 34.9285Z" fill="#232323"/>
<path d="M49.3144 34.9285L49.4465 35.9197L49.501 35.9124L49.5544 35.8992L49.3144 34.9285ZM48.2656 34.9481L47.2891 34.7327L47.1312 35.4486L47.7664 35.8146L48.2656 34.9481ZM48.6891 33.9489L49.0236 34.8913L49.0236 34.8912L48.6891 33.9489ZM49.1822 33.9372C48.7811 33.9907 48.5888 33.9884 48.5241 33.9843C48.4933 33.9823 48.5053 33.9808 48.5457 33.9907C48.5664 33.9959 48.5965 34.0045 48.6333 34.0186C48.6518 34.0257 48.6722 34.0343 48.6942 34.0447C48.7052 34.0499 48.7167 34.0555 48.7285 34.0617C48.7344 34.0648 48.7403 34.068 48.7464 34.0713C48.7495 34.073 48.7525 34.0747 48.7556 34.0764C48.7571 34.0772 48.7587 34.0781 48.7602 34.079C48.761 34.0794 48.7622 34.0801 48.7626 34.0803C48.7637 34.081 48.7649 34.0817 48.2656 34.9481C47.7664 35.8146 47.7675 35.8152 47.7687 35.8159C47.7691 35.8161 47.7703 35.8168 47.771 35.8173C47.7726 35.8181 47.7742 35.819 47.7757 35.8199C47.7788 35.8217 47.782 35.8234 47.7851 35.8251C47.7913 35.8285 47.7976 35.8319 47.8038 35.8351C47.8163 35.8416 47.8288 35.8478 47.8412 35.8537C47.8662 35.8654 47.8911 35.876 47.9159 35.8855C47.9654 35.9046 48.0156 35.9199 48.066 35.9324C48.1655 35.9569 48.2749 35.9725 48.3964 35.9802C48.6361 35.9956 48.9683 35.9835 49.4465 35.9197L49.1822 33.9372ZM48.2656 34.9481C49.2421 35.1636 49.2421 35.1637 49.2421 35.1638C49.2421 35.1638 49.2421 35.1639 49.2421 35.1639C49.242 35.164 49.242 35.1641 49.242 35.1642C49.242 35.1644 49.2419 35.1645 49.2419 35.1645C49.2419 35.1646 49.2419 35.1645 49.242 35.1642C49.2421 35.1636 49.2425 35.1622 49.2429 35.16C49.2439 35.1557 49.2456 35.1483 49.248 35.1383C49.2527 35.1184 49.26 35.0884 49.2694 35.0518C49.2886 34.9768 49.315 34.8812 49.3454 34.788C49.3782 34.6877 49.405 34.6231 49.4194 34.595C49.4271 34.5802 49.4166 34.6046 49.3827 34.6461C49.3609 34.6729 49.2469 34.812 49.0236 34.8913L48.3545 33.0065C48.0762 33.1053 47.9077 33.2902 47.8326 33.3824C47.7455 33.4892 47.683 33.5984 47.6405 33.681C47.555 33.8475 47.4897 34.0278 47.4441 34.1676C47.3962 34.3145 47.358 34.454 47.3323 34.5542C47.3192 34.6051 47.3088 34.6477 47.3016 34.6784C47.2979 34.6938 47.2951 34.7063 47.293 34.7155C47.2919 34.7201 47.2911 34.7238 47.2904 34.7267C47.2901 34.7282 47.2898 34.7294 47.2896 34.7304C47.2895 34.7309 47.2894 34.7313 47.2893 34.7317C47.2893 34.7319 47.2892 34.7321 47.2892 34.7322C47.2892 34.7323 47.2892 34.7324 47.2892 34.7325C47.2891 34.7326 47.2891 34.7327 48.2656 34.9481ZM49.0236 34.8912C48.6582 35.021 48.3757 34.8785 48.3256 34.8523C48.2472 34.8113 48.2121 34.7741 48.2221 34.7837C48.2355 34.7965 48.2804 34.8476 48.3312 34.9268C48.3858 35.0121 48.3973 35.0518 48.3901 35.0279C48.3868 35.017 48.3788 34.9886 48.373 34.9461C48.3676 34.9071 48.3599 34.8277 48.3747 34.7244C48.3896 34.6205 48.4333 34.4536 48.5626 34.2891C48.7021 34.1115 48.8893 34.0035 49.0744 33.9577L49.5544 35.8992C49.7691 35.8462 49.9791 35.7234 50.1351 35.5248C50.281 35.3392 50.3349 35.145 50.3545 35.0082C50.3902 34.7595 50.3345 34.5488 50.3052 34.4514C50.2374 34.2262 50.1191 34.01 50.0152 33.848C49.9075 33.6798 49.7654 33.4921 49.6039 33.3378C49.5264 33.2637 49.4069 33.1608 49.2522 33.0799C49.1257 33.0138 48.775 32.8572 48.3545 33.0065L49.0236 34.8912Z" fill="url(#paint5_linear_4_25193)" mask="url(#path-13-inside-1_4_25193)"/>
<path fill-rule="evenodd" clip-rule="evenodd" d="M50.5118 26.7702C50.5118 26.7702 47.6208 28.1551 46.237 30.3126C44.8521 32.47 43.875 34.6693 43.875 34.6693C43.875 34.6693 44.8521 34.8725 45.7484 35.1983C46.6448 35.524 48.2733 35.606 48.9651 35.4836C49.6569 35.3611 49.8614 35.0354 49.1683 34.7501C48.4766 34.4648 47.4578 34.2616 47.4174 33.6506C47.377 33.0395 48.6798 29.4971 49.0459 28.9279C49.412 28.3573 50.5118 26.7702 50.5118 26.7702Z" fill="#232323"/>
<path d="M29.8383 32.0294L29.8382 32.0294C29.2354 32.3898 28.0766 32.715 27.0019 32.9538C26.501 33.065 26.0377 33.1536 25.6902 33.2157C25.708 33.0872 25.7332 32.9416 25.7687 32.7834C25.9073 32.1673 26.2005 31.3722 26.817 30.6365C28.3268 28.8354 30.1609 28.3742 31.6371 28.3607C32.3791 28.3539 33.0278 28.461 33.4908 28.5701C33.6004 28.5959 33.6993 28.6217 33.7861 28.646C33.7294 28.763 33.6423 28.9128 33.5085 29.0945C33.0439 29.7249 32.0302 30.7196 29.8383 32.0294Z" fill="#232323" stroke="url(#paint6_linear_4_25193)"/>
<path fill-rule="evenodd" clip-rule="evenodd" d="M26.4907 32.2034C26.4907 32.2034 30.0604 31.4842 31.3853 30.5045C32.7089 29.5261 33.2561 29.0076 33.0841 28.6623C32.9108 28.3171 31.6158 27.7986 30.0043 28.2011C28.3927 28.6037 27.241 29.7554 26.9244 30.4759C26.6078 31.195 26.2887 31.9728 26.4907 32.2034Z" fill="#232323"/>
<path d="M47.4756 34.8764C47.504 34.9368 47.5326 35.0049 47.5606 35.0778C47.4873 35.0752 47.4048 35.0711 47.3122 35.0649C47.3661 34.9955 47.4221 34.9312 47.4756 34.8764ZM47.0849 35.444C47.0848 35.444 47.0852 35.442 47.0865 35.4376C47.0857 35.4417 47.085 35.4439 47.0849 35.444Z" fill="#232323" stroke="url(#paint7_linear_4_25193)"/>
<path fill-rule="evenodd" clip-rule="evenodd" d="M11.9389 39.5736C13.2548 40.582 16.5769 41.1761 18.2066 40.9389C22.0513 40.3774 22.2493 40.6653 21.3217 38.2121C20.652 36.4416 16.762 34.6294 14.1563 37.235L12.8535 35.9322C13.6261 34.8196 12.2021 32.227 11.5506 32.0237C10.8992 31.8205 7.82589 32.6569 7.54049 32.9422C7.25517 33.2275 10.627 38.5652 11.9389 39.5736Z" fill="#232323"/>
<defs>
<filter id="filter0_f_4_25193" x="3.26249" y="2.6937" width="57.475" height="57.4754" filterUnits="userSpaceOnUse" color-interpolation-filters="sRGB">
<feFlood flood-opacity="0" result="BackgroundImageFix"/>
<feBlend mode="normal" in="SourceGraphic" in2="BackgroundImageFix" result="shape"/>
<feGaussianBlur stdDeviation="0.618754" result="effect1_foregroundBlur_4_25193"/>
</filter>
<filter id="filter1_f_4_25193" x="47.4072" y="23.4924" width="5.53721" height="3.65302" filterUnits="userSpaceOnUse" color-interpolation-filters="sRGB">
<feFlood flood-opacity="0" result="BackgroundImageFix"/>
<feBlend mode="normal" in="SourceGraphic" in2="BackgroundImageFix" result="shape"/>
<feGaussianBlur stdDeviation="0.476098" result="effect1_foregroundBlur_4_25193"/>
</filter>
<filter id="filter2_f_4_25193" x="48.4541" y="35.1203" width="2.95908" height="2.83655" filterUnits="userSpaceOnUse" color-interpolation-filters="sRGB">
<feFlood flood-opacity="0" result="BackgroundImageFix"/>
<feBlend mode="normal" in="SourceGraphic" in2="BackgroundImageFix" result="shape"/>
<feGaussianBlur stdDeviation="0.476098" result="effect1_foregroundBlur_4_25193"/>
</filter>
<filter id="filter3_f_4_25193" x="44.2431" y="28.7022" width="8.26767" height="9.74918" filterUnits="userSpaceOnUse" color-interpolation-filters="sRGB">
<feFlood flood-opacity="0" result="BackgroundImageFix"/>
<feBlend mode="normal" in="SourceGraphic" in2="BackgroundImageFix" result="shape"/>
<feGaussianBlur stdDeviation="0.476098" result="effect1_foregroundBlur_4_25193"/>
</filter>
<filter id="filter4_f_4_25193" x="26.2861" y="29.6774" width="10.7677" height="7.23111" filterUnits="userSpaceOnUse" color-interpolation-filters="sRGB">
<feFlood flood-opacity="0" result="BackgroundImageFix"/>
<feBlend mode="normal" in="SourceGraphic" in2="BackgroundImageFix" result="shape"/>
<feGaussianBlur stdDeviation="0.476098" result="effect1_foregroundBlur_4_25193"/>
</filter>
<filter id="filter5_f_4_25193" x="27.5166" y="29.8523" width="8.31455" height="5.61658" filterUnits="userSpaceOnUse" color-interpolation-filters="sRGB">
<feFlood flood-opacity="0" result="BackgroundImageFix"/>
<feBlend mode="normal" in="SourceGraphic" in2="BackgroundImageFix" result="shape"/>
<feGaussianBlur stdDeviation="0.476098" result="effect1_foregroundBlur_4_25193"/>
</filter>
<filter id="filter6_f_4_25193" x="46.8486" y="35.3874" width="3.47861" height="3.10425" filterUnits="userSpaceOnUse" color-interpolation-filters="sRGB">
<feFlood flood-opacity="0" result="BackgroundImageFix"/>
<feBlend mode="normal" in="SourceGraphic" in2="BackgroundImageFix" result="shape"/>
<feGaussianBlur stdDeviation="0.476098" result="effect1_foregroundBlur_4_25193"/>
</filter>
<filter id="filter7_f_4_25193" x="9.38765" y="33.3731" width="15.5802" height="9.95627" filterUnits="userSpaceOnUse" color-interpolation-filters="sRGB">
<feFlood flood-opacity="0" result="BackgroundImageFix"/>
<feBlend mode="normal" in="SourceGraphic" in2="BackgroundImageFix" result="shape"/>
<feGaussianBlur stdDeviation="0.476098" result="effect1_foregroundBlur_4_25193"/>
</filter>
<linearGradient id="paint0_linear_4_25193" x1="4.5" y1="31.4314" x2="59.5004" y2="31.4314" gradientUnits="userSpaceOnUse">
<stop stop-color="#FDFC47"/>
<stop offset="1" stop-color="#24FE41"/>
</linearGradient>
<linearGradient id="paint1_linear_4_25193" x1="4.5" y1="31.4319" x2="59.5008" y2="31.4319" gradientUnits="userSpaceOnUse">
<stop stop-color="#FDFC47"/>
<stop offset="1" stop-color="#24FE41"/>
</linearGradient>
<linearGradient id="paint2_linear_4_25193" x1="4.59375" y1="40.429" x2="51.3721" y2="40.429" gradientUnits="userSpaceOnUse">
<stop stop-color="#FDFC47"/>
<stop offset="1" stop-color="#24FE41"/>
</linearGradient>
<linearGradient id="paint3_linear_4_25193" x1="4.59375" y1="40.429" x2="51.3721" y2="40.429" gradientUnits="userSpaceOnUse">
<stop stop-color="#FDFC47"/>
<stop offset="1" stop-color="#24FE41"/>
</linearGradient>
<linearGradient id="paint4_linear_4_25193" x1="47.1758" y1="21.925" x2="50.9643" y2="21.925" gradientUnits="userSpaceOnUse">
<stop stop-color="#FDFC47"/>
<stop offset="1" stop-color="#24FE41"/>
</linearGradient>
<linearGradient id="paint5_linear_4_25193" x1="48.2656" y1="34.4654" x2="49.3662" y2="34.4654" gradientUnits="userSpaceOnUse">
<stop stop-color="#FDFC47"/>
<stop offset="1" stop-color="#24FE41"/>
</linearGradient>
<linearGradient id="paint6_linear_4_25193" x1="25.1484" y1="30.837" x2="34.392" y2="30.837" gradientUnits="userSpaceOnUse">
<stop stop-color="#FDFC47"/>
<stop offset="1" stop-color="#24FE41"/>
</linearGradient>
<linearGradient id="paint7_linear_4_25193" x1="46.5898" y1="34.9106" x2="48.2302" y2="34.9106" gradientUnits="userSpaceOnUse">
<stop stop-color="#FDFC47"/>
<stop offset="1" stop-color="#24FE41"/>
</linearGradient>
</defs>
</svg>
