<svg width="64" height="64" viewBox="0 0 64 64" fill="none" xmlns="http://www.w3.org/2000/svg">
<g opacity="0.3" filter="url(#filter0_f_4_24636)">
<path d="M46.4983 4.49982H17.5021C10.3212 4.49982 4.5 10.3211 4.5 17.5019V46.4981C4.5 53.679 10.3212 59.5002 17.5021 59.5002H46.4983C53.6792 59.5002 59.5004 53.679 59.5004 46.4981V17.5019C59.5004 10.3211 53.6792 4.49982 46.4983 4.49982Z" fill="url(#paint0_linear_4_24636)"/>
</g>
<path d="M5 17.5014C5 10.5744 10.5748 4.9996 17.5018 4.9996H46.4978C53.4248 4.9996 58.9996 10.5744 58.9996 17.5014V46.4974C58.9996 53.4244 53.4248 58.9992 46.4978 58.9992H17.5018C10.5748 58.9992 5 53.4244 5 46.4974V17.5014Z" fill="#232323" stroke="url(#paint1_linear_4_24636)"/>
<path d="M18.3378 10.4997C13.9958 10.4997 10.5 13.9958 10.5 18.3375V45.6617C10.5 50.0037 13.9961 53.4995 18.3378 53.4995H45.662C50.004 53.4995 53.4998 50.0034 53.4998 45.6617V18.3375C53.4998 13.9955 50.0037 10.4997 45.662 10.4997H18.3378Z" fill="url(#paint2_linear_4_24636)"/>
<g opacity="0.6">
<mask id="path-4-inside-1_4_24636" fill="white">
<path d="M15.5748 25.9659C15.5533 26.1157 15.5401 26.272 15.5195 26.4256H48.4826C48.4633 26.272 48.4489 26.1156 48.4251 25.9659H15.5748Z"/>
</mask>
<path d="M15.5748 25.9659C15.5533 26.1157 15.5401 26.272 15.5195 26.4256H48.4826C48.4633 26.272 48.4489 26.1156 48.4251 25.9659H15.5748Z" fill="#232323"/>
<path d="M15.5748 25.9659V24.9659H14.7083L14.585 25.8236L15.5748 25.9659ZM15.5195 26.4256L14.5283 26.2931L14.377 27.4256H15.5195V26.4256ZM48.4826 26.4256V27.4256H49.616L49.4748 26.301L48.4826 26.4256ZM48.4251 25.9659L49.4127 25.8088L49.2787 24.9659H48.4251V25.9659ZM14.585 25.8236C14.5717 25.9162 14.5614 26.0074 14.5529 26.0838C14.5439 26.165 14.5368 26.2298 14.5283 26.2931L16.5107 26.558C16.5228 26.4678 16.5326 26.3777 16.5407 26.3049C16.5493 26.2273 16.5564 26.1653 16.5647 26.1081L14.585 25.8236ZM15.5195 27.4256H48.4826V25.4256H15.5195V27.4256ZM49.4748 26.301C49.4616 26.1958 49.4395 25.977 49.4127 25.8088L47.4375 26.1229C47.4584 26.2542 47.465 26.3483 47.4904 26.5501L49.4748 26.301ZM48.4251 24.9659H15.5748V26.9659H48.4251V24.9659Z" fill="url(#paint3_linear_4_24636)" mask="url(#path-4-inside-1_4_24636)"/>
</g>
<g opacity="0.6">
<mask id="path-6-inside-2_4_24636" fill="white">
<path d="M16.1172 15.9786C16.1365 16.1322 16.1546 16.2855 16.1757 16.4384H47.8336C47.8533 16.2732 47.8703 16.1417 47.888 15.9786H16.1172Z"/>
</mask>
<path d="M16.1172 15.9786C16.1365 16.1322 16.1546 16.2855 16.1757 16.4384H47.8336C47.8533 16.2732 47.8703 16.1417 47.888 15.9786H16.1172Z" fill="#232323"/>
<path d="M16.1172 15.9786V14.9786H14.9838L15.125 16.1032L16.1172 15.9786ZM16.1757 16.4384L15.1851 16.575L15.3042 17.4384H16.1757V16.4384ZM47.8336 16.4384V17.4384H48.7217L48.8266 16.5565L47.8336 16.4384ZM47.888 15.9786L48.8821 16.0863L49.0021 14.9786H47.888V15.9786ZM15.125 16.1032C15.1431 16.2474 15.1629 16.4141 15.1851 16.575L17.1663 16.3017C17.1463 16.1568 17.1299 16.017 17.1094 15.8541L15.125 16.1032ZM16.1757 17.4384H47.8336V15.4384H16.1757V17.4384ZM48.8266 16.5565C48.8449 16.403 48.8638 16.256 48.8821 16.0863L46.8938 15.871C46.8768 16.0274 46.8617 16.1433 46.8406 16.3202L48.8266 16.5565ZM47.888 14.9786H16.1172V16.9786H47.888V14.9786Z" fill="url(#paint4_linear_4_24636)" mask="url(#path-6-inside-2_4_24636)"/>
</g>
<g opacity="0.6">
<mask id="path-8-inside-3_4_24636" fill="white">
<path d="M15.5748 35.9527C15.5533 36.1026 15.5401 36.2588 15.5195 36.4124H48.4826C48.4633 36.2589 48.4489 36.1024 48.4251 35.9527H15.5748Z"/>
</mask>
<path d="M15.5748 35.9527C15.5533 36.1026 15.5401 36.2588 15.5195 36.4124H48.4826C48.4633 36.2589 48.4489 36.1024 48.4251 35.9527H15.5748Z" fill="#232323"/>
<path d="M15.5748 35.9527V34.9527H14.7083L14.585 35.8104L15.5748 35.9527ZM15.5195 36.4124L14.5283 36.2799L14.377 37.4124H15.5195V36.4124ZM48.4826 36.4124V37.4124H49.616L49.4748 36.2879L48.4826 36.4124ZM48.4251 35.9527L49.4127 35.7957L49.2787 34.9527H48.4251V35.9527ZM14.585 35.8104C14.5717 35.9031 14.5614 35.9942 14.5529 36.0706C14.5439 36.1518 14.5368 36.2166 14.5283 36.2799L16.5107 36.5449C16.5228 36.4546 16.5326 36.3645 16.5407 36.2917C16.5493 36.2141 16.5564 36.1522 16.5647 36.095L14.585 35.8104ZM15.5195 37.4124H48.4826V35.4124H15.5195V37.4124ZM49.4748 36.2879C49.4616 36.1826 49.4395 35.9639 49.4127 35.7957L47.4375 36.1097C47.4584 36.241 47.465 36.3351 47.4904 36.537L49.4748 36.2879ZM48.4251 34.9527H15.5748V36.9527H48.4251V34.9527Z" fill="url(#paint5_linear_4_24636)" mask="url(#path-8-inside-3_4_24636)"/>
</g>
<g opacity="0.6">
<mask id="path-10-inside-4_4_24636" fill="white">
<path d="M15.5748 45.9403C15.5533 46.0902 15.5401 46.2465 15.5195 46.4H48.4826C48.4633 46.2465 48.4489 46.0901 48.4251 45.9403H15.5748Z"/>
</mask>
<path d="M15.5748 45.9403C15.5533 46.0902 15.5401 46.2465 15.5195 46.4H48.4826C48.4633 46.2465 48.4489 46.0901 48.4251 45.9403H15.5748Z" fill="#232323"/>
<path d="M15.5748 45.9403V44.9403H14.7083L14.585 45.798L15.5748 45.9403ZM15.5195 46.4L14.5283 46.2676L14.377 47.4H15.5195V46.4ZM48.4826 46.4V47.4H49.6159L49.4748 46.2755L48.4826 46.4ZM48.4251 45.9403L49.4127 45.7833L49.2787 44.9403H48.4251V45.9403ZM14.585 45.798C14.5717 45.8907 14.5614 45.9818 14.5529 46.0582C14.5439 46.1394 14.5368 46.2042 14.5283 46.2676L16.5107 46.5325C16.5228 46.4423 16.5326 46.3521 16.5407 46.2793C16.5493 46.2017 16.5564 46.1398 16.5647 46.0826L14.585 45.798ZM15.5195 47.4H48.4826V45.4H15.5195V47.4ZM49.4748 46.2755C49.4616 46.1702 49.4395 45.9515 49.4127 45.7833L47.4375 46.0973C47.4584 46.2286 47.465 46.3227 47.4904 46.5246L49.4748 46.2755ZM48.4251 44.9403H15.5748V46.9403H48.4251V44.9403Z" fill="url(#paint6_linear_4_24636)" mask="url(#path-10-inside-4_4_24636)"/>
</g>
<path d="M6.62306 14.068H6.62303C5.72059 14.068 4.99609 14.7925 4.99609 15.695V22.6033C4.99609 22.6313 4.99849 22.6483 5.00369 22.6852C5.00716 22.7098 5.01187 22.7432 5.01795 22.7946L5.02172 22.8264L5.02139 22.8584C5.00166 24.7971 5.00171 26.9942 5.00176 29.8317L5.00176 30.281V31.1287V31.1287L4.99981 46.4977C4.99981 46.4977 4.99981 46.4977 4.99981 46.4977C4.99982 46.5492 5.00272 46.6032 5.00703 46.6698C5.00764 46.6791 5.00828 46.6888 5.00894 46.6988C5.01267 46.7551 5.01708 46.8217 5.01917 46.8884M6.62306 14.068L4.51947 46.9058M6.62306 14.068L10.5034 14.0677H10.5035H13.9503C13.9512 14.0678 13.9521 14.068 13.9531 14.0681C13.954 14.0682 13.9553 14.0684 13.9568 14.0686C13.9639 14.0696 13.9772 14.0715 13.9888 14.0729C14.005 14.0749 14.0269 14.0773 14.0522 14.0787L14.0659 14.0794H14.0796H23.7301H23.7539L23.7758 14.0773L23.7762 14.0773L23.7768 14.0772L23.7772 14.0772L23.7774 14.0772L23.7776 14.0772M6.62306 14.068L23.7776 14.0772M5.01917 46.8884C5.01919 46.8891 5.01921 46.8899 5.01924 46.8906L4.51947 46.9058M5.01917 46.8884C5.01914 46.8877 5.01911 46.887 5.01909 46.8863L4.51947 46.9058M5.01917 46.8884C5.02081 46.9306 5.02227 46.9714 5.02369 47.0111C5.02915 47.1642 5.03403 47.3008 5.04679 47.4375L5.04765 47.4468L5.04756 47.4468C5.50687 53.6087 10.3864 58.4894 16.5473 58.9524L16.5572 58.9531L16.5572 58.9532C16.8656 58.9825 17.176 58.9994 17.491 58.9998H17.4916H17.504H46.4999C46.8201 58.9998 47.1357 58.9829 47.4487 58.9532L47.4584 58.9523L47.4584 58.9524C53.6037 58.4888 58.473 53.6294 58.9505 47.4883L58.9512 47.4787L58.9513 47.4787C58.9829 47.1532 59.0017 46.8271 59.0017 46.4978V30.8355V30.8309C59.0019 30.8152 59.0027 30.8013 59.0037 30.7899M4.51947 46.9058C4.52098 46.9445 4.52235 46.9832 4.52373 47.0218C4.52923 47.1768 4.53473 47.3316 4.54895 47.484C5.02665 53.8927 10.1023 58.9694 16.5099 59.451C16.8318 59.4816 17.1579 59.4993 17.4903 59.4998H17.504H46.4999C46.8377 59.4998 47.1692 59.482 47.496 59.451C53.8873 58.9689 58.9523 53.9142 59.449 47.5271C59.4819 47.1886 59.5017 46.846 59.5017 46.4978V30.8355C59.5017 30.8322 59.5022 30.829 59.5027 30.8259C59.5032 30.8226 59.5037 30.8193 59.5037 30.8159V23.9076C59.5037 22.729 58.5553 21.7806 57.3767 21.7806H34.6734C33.6472 21.7806 32.8438 21.7113 32.1773 21.5345C31.5109 21.3577 30.9827 21.0724 30.5113 20.6439M59.0037 30.7899V30.8159C59.0037 30.7942 59.0052 30.7768 59.0064 30.7661L59.0078 30.7543L59.0073 30.758L59.0053 30.7735C59.0048 30.7781 59.0042 30.7836 59.0037 30.7899ZM59.0037 30.7899V23.9076C59.0037 23.0051 58.2791 22.2806 57.3767 22.2806H34.6734C33.6301 22.2806 32.7768 22.2108 32.0491 22.0178C31.3097 21.8216 30.709 21.4993 30.175 21.0139M30.175 21.0139L30.5113 20.6439M30.175 21.0139C30.175 21.0139 30.175 21.0139 30.175 21.0139L30.5113 20.6439M30.175 21.0139C29.6493 20.5361 29.2037 19.9142 28.7515 19.1403L29.1832 18.888M30.5113 20.6439C30.0399 20.2154 29.6244 19.643 29.1832 18.888M29.1832 18.888L28.7515 19.1403C28.3 18.3677 27.8247 17.4149 27.2512 16.2633L27.2428 16.2462L27.2356 16.2286C26.9884 15.6204 26.6488 15.1899 26.2861 14.8831L26.609 14.5013M29.1832 18.888L26.609 14.5013M26.609 14.5013C27.0331 14.8601 27.421 15.357 27.6988 16.0404L26.609 14.5013ZM26.609 14.5013L26.2861 14.8831C25.9212 14.5744 25.5228 14.3815 25.1459 14.2607C24.7681 14.1396 24.4189 14.0938 24.1644 14.0785C24.0377 14.071 23.9361 14.0711 23.8684 14.0729C23.8346 14.0738 23.8094 14.0751 23.7939 14.076L23.778 14.0772L23.7776 14.0772M26.609 14.5013L23.7776 14.0772" fill="#232323" stroke="url(#paint7_linear_4_24636)"/>
<path d="M11.125 20.1524H22.9375C23.2137 20.1524 23.4376 20.3763 23.4376 20.6524C23.4376 20.9286 23.2137 21.1524 22.9375 21.1524H11.125C10.8489 21.1524 10.625 20.9286 10.625 20.6524C10.625 20.3763 10.8489 20.1524 11.125 20.1524Z" fill="#232323" stroke="url(#paint8_linear_4_24636)"/>
<defs>
<filter id="filter0_f_4_24636" x="2.29998" y="2.2998" width="59.4" height="59.4004" filterUnits="userSpaceOnUse" color-interpolation-filters="sRGB">
<feFlood flood-opacity="0" result="BackgroundImageFix"/>
<feBlend mode="normal" in="SourceGraphic" in2="BackgroundImageFix" result="shape"/>
<feGaussianBlur stdDeviation="1.10001" result="effect1_foregroundBlur_4_24636"/>
</filter>
<linearGradient id="paint0_linear_4_24636" x1="4.5" y1="32" x2="59.5004" y2="32" gradientUnits="userSpaceOnUse">
<stop stop-color="#FDFC47"/>
<stop offset="1" stop-color="#24FE41"/>
</linearGradient>
<linearGradient id="paint1_linear_4_24636" x1="4.5" y1="31.9994" x2="59.4996" y2="31.9994" gradientUnits="userSpaceOnUse">
<stop stop-color="#FDFC47"/>
<stop offset="1" stop-color="#24FE41"/>
</linearGradient>
<linearGradient id="paint2_linear_4_24636" x1="10.5" y1="31.9996" x2="53.4998" y2="31.9996" gradientUnits="userSpaceOnUse">
<stop stop-color="#FDFC47"/>
<stop offset="1" stop-color="#24FE41"/>
</linearGradient>
<linearGradient id="paint3_linear_4_24636" x1="15.5195" y1="26.1957" x2="48.4826" y2="26.1957" gradientUnits="userSpaceOnUse">
<stop stop-color="#FDFC47"/>
<stop offset="1" stop-color="#24FE41"/>
</linearGradient>
<linearGradient id="paint4_linear_4_24636" x1="16.1172" y1="16.2085" x2="47.888" y2="16.2085" gradientUnits="userSpaceOnUse">
<stop stop-color="#FDFC47"/>
<stop offset="1" stop-color="#24FE41"/>
</linearGradient>
<linearGradient id="paint5_linear_4_24636" x1="15.5195" y1="36.1826" x2="48.4826" y2="36.1826" gradientUnits="userSpaceOnUse">
<stop stop-color="#FDFC47"/>
<stop offset="1" stop-color="#24FE41"/>
</linearGradient>
<linearGradient id="paint6_linear_4_24636" x1="15.5195" y1="46.1702" x2="48.4826" y2="46.1702" gradientUnits="userSpaceOnUse">
<stop stop-color="#FDFC47"/>
<stop offset="1" stop-color="#24FE41"/>
</linearGradient>
<linearGradient id="paint7_linear_4_24636" x1="4.49609" y1="36.5338" x2="59.5037" y2="36.5338" gradientUnits="userSpaceOnUse">
<stop stop-color="#FDFC47"/>
<stop offset="1" stop-color="#24FE41"/>
</linearGradient>
<linearGradient id="paint8_linear_4_24636" x1="10.125" y1="20.6524" x2="23.9376" y2="20.6524" gradientUnits="userSpaceOnUse">
<stop stop-color="#FDFC47"/>
<stop offset="1" stop-color="#24FE41"/>
</linearGradient>
</defs>
</svg>
