<svg width="64" height="64" viewBox="0 0 64 64" fill="none" xmlns="http://www.w3.org/2000/svg">
<g opacity="0.3" filter="url(#filter0_f_4_24631)">
<path d="M44.5003 4.5H19.5001C11.2158 4.5 4.5 11.2158 4.5 19.5001V44.5003C4.5 52.7846 11.2158 59.5004 19.5001 59.5004H44.5003C52.7846 59.5004 59.5004 52.7846 59.5004 44.5003V19.5001C59.5004 11.2158 52.7846 4.5 44.5003 4.5Z" fill="#232323"/>
<path d="M19.5001 5H44.5003C52.5085 5 59.0004 11.4919 59.0004 19.5001V44.5003C59.0004 52.5085 52.5085 59.0004 44.5003 59.0004H19.5001C11.4919 59.0004 5 52.5085 5 44.5003V19.5001C5 11.4919 11.4919 5 19.5001 5Z" stroke="url(#paint0_linear_4_24631)"/>
</g>
<path d="M5 24.8641C5 21.5382 5.08236 18.7628 5.32353 16.4421C6.55033 10.685 11.1773 6.2284 17.0184 5.22732C18.8994 5.0702 21.031 5.00037 23.5277 5.00037H40.4732C42.9698 5.00037 45.1015 5.0702 46.9825 5.22732C52.8237 6.22863 57.4507 10.685 58.6774 16.4421C58.9186 18.7628 59.0009 21.5384 59.0009 24.8641V39.1378C59.0009 42.4636 58.9186 45.239 58.6774 47.5597C57.4507 53.3168 52.8237 57.7734 46.9825 58.7745C45.1015 58.9317 42.9699 59.0015 40.4732 59.0015H23.5277C21.0311 59.0015 18.8994 58.9316 17.0184 58.7745C11.1772 57.7732 6.55015 53.3168 5.32351 47.5597C5.08231 45.239 5 42.4635 5 39.1378V24.8641Z" fill="#232323" stroke="url(#paint1_linear_4_24631)"/>
<path d="M45.6736 45.3154L45.6735 45.3151L45.6735 45.315L45.6735 45.3145L45.6288 44.9214L45.2344 44.8756C42.6225 44.5728 40.152 42.8452 38.2982 41.1267C37.3796 40.2751 36.6297 39.4421 36.1096 38.822C35.8498 38.5122 35.648 38.2563 35.5119 38.0788C35.4438 37.9901 35.3921 37.921 35.3579 37.8746C35.3408 37.8514 35.328 37.8339 35.3197 37.8225L35.3106 37.8099L35.3086 37.8071L35.3084 37.8067L35.3083 37.8066L35.3083 37.8066L35.0569 37.454L34.672 37.6526C32.6813 38.6795 31.5382 40.1913 31.0229 41.9485C30.513 43.6869 30.6265 45.6312 31.071 47.5387C31.9588 51.3495 34.2054 55.1745 35.8494 57.3015L35.8497 57.3019C36.2595 57.831 36.5914 58.402 36.8653 59.0017H25.5923C24.439 59.0017 23.3727 58.9946 22.3366 58.9821L22.3359 58.9821C22.0521 58.9791 21.7773 58.9753 21.5035 58.9704H21.5034C20.6943 58.9561 19.9362 58.9291 19.1957 58.8986C18.6708 58.8742 18.1598 58.8462 17.6726 58.8115L17.6698 58.8113C17.4122 58.7944 17.1648 58.7742 16.9126 58.7533C12.4142 57.9483 8.6534 55.0889 6.62411 51.1701C6.40078 47.9925 6.97865 44.7922 7.62392 42.3645C7.94916 41.1408 8.28968 40.1202 8.54842 39.4066C8.67775 39.0499 8.78652 38.7703 8.86255 38.5809C8.90055 38.4861 8.93037 38.414 8.95046 38.366L8.97312 38.3123L8.97862 38.2995L8.97985 38.2967L8.98004 38.2962L8.98007 38.2961L8.98009 38.2961L9.47587 37.1564L8.32888 37.6354C7.82159 37.8472 6.98675 38.2575 6.26036 38.6271C6.06229 38.7279 5.86862 38.8275 5.68898 38.9208C6.00467 37.9495 6.70407 36.8519 7.68525 35.6912C8.98692 34.1514 10.7113 32.5845 12.444 31.1737C14.174 29.7652 15.8986 28.5233 17.1918 27.633C17.838 27.1881 18.3756 26.8316 18.7512 26.5866C18.939 26.4641 19.0862 26.3696 19.1862 26.3058C19.2362 26.2739 19.2744 26.2497 19.2999 26.2336L19.3286 26.2155L19.3357 26.2111L19.3373 26.2101L19.3377 26.2099L19.0727 25.7858L19.3377 26.2098L20.816 25.2858H19.0727H15.0848C19.9335 21.0469 24.9967 19.6797 28.9283 19.3919C31.0241 19.2385 32.7992 19.3921 34.0478 19.5834C34.6718 19.679 35.1634 19.7839 35.4967 19.8641C35.6633 19.9043 35.7902 19.9382 35.8743 19.9617C35.9164 19.9735 35.9477 19.9827 35.9678 19.9887L35.9897 19.9953L35.9942 19.9967L35.9945 19.9968L35.9948 19.9969L35.9949 19.9969L36.5388 20.1688L36.6376 19.6066C36.7083 19.2045 37.0487 18.6422 37.6238 17.9801C38.1818 17.3376 38.8997 16.6687 39.6176 16.0575C40.1267 15.6241 40.6306 15.2241 41.069 14.8884C40.9952 15.1944 40.9289 15.5131 40.8706 15.8205C40.772 16.3398 40.6943 16.8374 40.6413 17.2045C40.6147 17.3882 40.5943 17.5398 40.5805 17.6458C40.5736 17.6988 40.5683 17.7405 40.5647 17.769L40.5606 17.8019L40.5596 17.8105L40.5593 17.8129L40.5592 17.8135L40.5592 17.8137C40.5592 17.8138 40.5592 17.8138 41.0556 17.8734L40.5592 17.8138L41.4924 18.1167C41.7207 17.7071 42.1675 17.2212 42.6406 16.7756C42.3274 18.2282 42.3812 19.7522 42.5387 21.0122C42.6517 21.9161 42.821 22.7058 42.962 23.2698C43.0326 23.5522 43.0963 23.7788 43.1427 23.936C43.166 24.0146 43.1849 24.0758 43.1982 24.1181L43.2138 24.1669L43.2181 24.1803L43.2194 24.1841L43.2198 24.1853L43.2199 24.1857C43.22 24.1858 43.22 24.186 43.6944 24.0279L43.22 24.186L43.2575 24.2982L43.3412 24.3818C44.1336 25.1725 45.0308 26.4621 45.9394 27.9851C46.843 29.4999 47.7395 31.2138 48.5345 32.8298C49.3291 34.4447 50.0197 35.9564 50.5118 37.0646C50.7578 37.6185 50.954 38.0713 51.0886 38.3852C51.1558 38.5422 51.2077 38.6645 51.2427 38.7473L51.2823 38.8414L51.2923 38.8652L51.2947 38.8711L51.2953 38.8725L51.2954 38.8728L51.757 38.6806L51.2955 38.8729L51.3157 38.9215L51.3456 38.9648L52.7675 41.0234L52.7696 41.0264C53.5999 42.2101 53.8548 43.5209 53.7066 44.6328C53.5567 45.7568 53.0074 46.6226 52.2923 47.0058L52.2915 47.0063C50.6609 47.884 49.4505 48.1679 48.563 48.1455C47.6905 48.1236 47.0995 47.8056 46.6858 47.4043C46.2615 46.9926 46.0051 46.4736 45.8548 46.0402C45.7805 45.8259 45.7344 45.6394 45.7072 45.5081C45.6937 45.4426 45.6849 45.3914 45.6797 45.3581C45.6771 45.3415 45.6754 45.3293 45.6744 45.3221L45.6736 45.3159L45.6736 45.3154Z" fill="url(#paint2_linear_4_24631)" stroke="url(#paint3_linear_4_24631)"/>
<defs>
<filter id="filter0_f_4_24631" x="3.26249" y="3.26249" width="57.475" height="57.4754" filterUnits="userSpaceOnUse" color-interpolation-filters="sRGB">
<feFlood flood-opacity="0" result="BackgroundImageFix"/>
<feBlend mode="normal" in="SourceGraphic" in2="BackgroundImageFix" result="shape"/>
<feGaussianBlur stdDeviation="0.618754" result="effect1_foregroundBlur_4_24631"/>
</filter>
<linearGradient id="paint0_linear_4_24631" x1="4.5" y1="32.0002" x2="59.5004" y2="32.0002" gradientUnits="userSpaceOnUse">
<stop stop-color="#FDFC47"/>
<stop offset="1" stop-color="#24FE41"/>
</linearGradient>
<linearGradient id="paint1_linear_4_24631" x1="4.5" y1="32.0009" x2="59.5009" y2="32.0009" gradientUnits="userSpaceOnUse">
<stop stop-color="#FDFC47"/>
<stop offset="1" stop-color="#24FE41"/>
</linearGradient>
<linearGradient id="paint2_linear_4_24631" x1="5.00391" y1="36.4883" x2="54.2464" y2="36.4883" gradientUnits="userSpaceOnUse">
<stop stop-color="#FDFC47"/>
<stop offset="1" stop-color="#24FE41"/>
</linearGradient>
<linearGradient id="paint3_linear_4_24631" x1="5.00391" y1="36.4883" x2="54.2464" y2="36.4883" gradientUnits="userSpaceOnUse">
<stop stop-color="#FDFC47"/>
<stop offset="1" stop-color="#24FE41"/>
</linearGradient>
</defs>
</svg>
