<svg width="64" height="64" viewBox="0 0 64 64" fill="none" xmlns="http://www.w3.org/2000/svg">
<g opacity="0.3" filter="url(#filter0_f_4_24596)">
<path d="M44.5003 4.50003H19.5001C11.2158 4.50003 4.5 11.2158 4.5 19.5001V44.5003C4.5 52.7846 11.2158 59.5004 19.5001 59.5004H44.5003C52.7846 59.5004 59.5004 52.7846 59.5004 44.5003V19.5001C59.5004 11.2158 52.7846 4.50003 44.5003 4.50003Z" fill="#232323"/>
<path d="M19.5001 5.00003H44.5003C52.5085 5.00003 59.0004 11.4919 59.0004 19.5001V44.5003C59.0004 52.5085 52.5085 59.0004 44.5003 59.0004H19.5001C11.4919 59.0004 5 52.5085 5 44.5003V19.5001C5 11.4919 11.4919 5.00003 19.5001 5.00003Z" stroke="url(#paint0_linear_4_24596)"/>
</g>
<path d="M5 19.5005C5 11.4668 11.4664 5.00037 19.5005 5.00037H44.501C52.5351 5.00037 59.0015 11.4664 59.0015 19.5005V44.501C59.0015 52.5351 52.5351 59.0015 44.501 59.0015H19.5005C11.4664 59.0015 5 52.5351 5 44.501V19.5005Z" fill="#232323" stroke="url(#paint1_linear_4_24596)"/>
<g filter="url(#filter1_d_4_24596)">
<path d="M49.6901 22.8874C49.6901 22.8874 49.2096 28.6705 49.4283 31.7332C49.6468 34.7957 45.2409 36.6395 44.2095 37.1081C43.178 37.5769 30.0159 37.2898 28.4844 37.2898C26.9529 37.2898 25.3516 40.6063 25.3516 40.6063H37.1957C39.2508 40.6063 40.9751 43.745 40.9751 43.745C40.9751 43.745 42.9414 47.2371 46.8308 46.3974C50.72 45.5576 51.019 42.8103 51.1471 41.7311C51.3971 40.5749 49.6901 22.8874 49.6901 22.8874Z" fill="url(#paint2_linear_4_24596)"/>
<path d="M49.9271 31.6975L49.9271 31.6976C50.0554 33.4959 48.8234 34.8665 47.5876 35.7933C46.4351 36.6578 45.1495 37.2343 44.5571 37.4999L49.9271 31.6975ZM49.9271 31.6975C49.8976 31.285 49.8811 30.8205 49.8746 30.3256C49.921 30.8501 49.9678 31.3835 50.0142 31.9188C50.2119 34.2011 50.4015 36.5169 50.5261 38.3332C50.5884 39.2418 50.6342 40.0218 50.6567 40.6086C50.6679 40.9024 50.6731 41.1433 50.672 41.3258C50.6714 41.4171 50.6692 41.4898 50.6659 41.5449C50.6622 41.605 50.6581 41.627 50.6584 41.6254L50.6534 41.6486L50.6506 41.6722L50.6496 41.6805C50.5855 42.2207 50.4845 43.0711 49.9749 43.8898C49.4755 44.6919 48.549 45.5148 46.7253 45.9087C44.9615 46.2894 43.6459 45.694 42.7533 44.9929C42.3037 44.6397 41.9642 44.2608 41.7373 43.97C41.6243 43.8251 41.5403 43.7034 41.4856 43.6198C41.4583 43.578 41.4384 43.5458 41.4259 43.5252L41.4127 43.5031L41.4111 43.5002L41.4105 43.4993L41.4104 43.499L41.4103 43.4989L41.4102 43.4987L41.4063 43.4917L41.3894 43.4618C41.3748 43.4362 41.3537 43.3998 41.3264 43.3541C41.272 43.2627 41.1926 43.1337 41.0911 42.9796C40.8888 42.6723 40.5953 42.2604 40.232 41.846C39.8703 41.4335 39.4283 41.0056 38.9266 40.678C38.4257 40.351 37.8379 40.1063 37.1957 40.1063H26.1915M49.9271 31.6975L26.1915 40.1063M26.1915 40.1063C26.3444 39.8453 26.5347 39.5411 26.7507 39.2385C27.035 38.8401 27.3514 38.4622 27.6728 38.1888C28.0039 37.9072 28.2774 37.7898 28.4844 37.7898C28.7579 37.7898 29.3793 37.7985 30.2276 37.8105C31.8041 37.8328 34.1645 37.8661 36.5326 37.8747C38.3395 37.8813 40.1356 37.8733 41.5465 37.8341C42.2513 37.8145 42.866 37.7869 43.3404 37.7489C43.5772 37.7299 43.7856 37.7078 43.9559 37.6816C44.1106 37.6577 44.2833 37.6238 44.4163 37.5633L26.1915 40.1063Z" stroke="url(#paint3_linear_4_24596)"/>
</g>
<path d="M13.9645 23.9186C13.9645 23.9186 13.4827 32.1857 12.8434 41.7764M13.9645 23.9186C14.8081 15.7934 22.6833 15.8245 22.6833 15.8245L41.6838 15.8225M13.9645 23.9186L14.4619 23.9702C14.4622 23.9665 14.4626 23.9628 14.463 23.9591M13.9645 23.9186L14.4637 23.9478L14.4637 23.948L14.4636 23.9492L14.4633 23.9537L14.463 23.9591M12.8434 41.7764C12.8434 41.7764 12.3661 45.804 17.5895 46.513C20.8437 46.9547 23.057 43.9007 24.9375 41.3059C26.2581 39.4838 27.4147 37.888 28.6524 37.888H44.7463C47.1382 37.888 49.7013 35.5016 49.7013 32.0988C49.7013 31.4373 49.7014 30.7108 49.7014 29.9638C49.7016 26.8675 49.7018 23.4193 49.6993 22.796C49.7023 22.0142 49.265 16.0334 41.6838 15.8225M12.8434 41.7764C13.34 41.8353 13.34 41.835 13.34 41.8347M12.8434 41.7764L13.34 41.8353L13.34 41.8347M41.6838 15.8225L41.6698 16.3223C41.6722 16.3224 41.6745 16.3225 41.6768 16.3225M41.6838 15.8225L41.6838 16.3225L41.6768 16.3225M41.6768 16.3225C45.3079 16.4254 47.1553 17.8948 48.1169 19.3684C49.101 20.8766 49.2006 22.4588 49.1993 22.7941L49.1994 22.798C49.2018 23.4201 49.2016 26.8655 49.2014 29.9614C49.2014 30.7091 49.2013 31.4365 49.2013 32.0988C49.2013 35.2658 46.8235 37.388 44.7463 37.388H28.6524C28.1423 37.388 27.6762 37.5879 27.2575 37.8788C26.8405 38.1685 26.4423 38.5678 26.0578 39.0156C25.5608 39.5941 25.0436 40.3075 24.5142 41.0377C24.237 41.4199 23.9566 41.8068 23.674 42.1812C22.8303 43.2991 21.9384 44.3506 20.9388 45.0783C19.9506 45.7976 18.8812 46.1837 17.6567 46.0176C15.1947 45.6833 14.1608 44.5912 13.7072 43.6599C13.4729 43.1788 13.381 42.7146 13.3482 42.3696C13.3319 42.1978 13.3305 42.0579 13.333 41.9636C13.3342 41.9166 13.3363 41.8812 13.3379 41.8591C13.3388 41.8481 13.3395 41.8405 13.3399 41.8364L13.34 41.8347M41.6768 16.3225L22.6834 16.3245L22.6813 16.3245M13.34 41.8347L13.3401 41.8342L13.3402 41.8335L13.3402 41.8334L13.3402 41.8331L13.3415 41.8225L13.3423 41.8097C13.662 37.0132 13.9424 32.5478 14.1428 29.2816C14.243 27.6485 14.3232 26.3151 14.3784 25.3899C14.406 24.9273 14.4273 24.5668 14.4417 24.3219L14.4581 24.043L14.4623 23.9717L14.463 23.9591M14.463 23.9591C14.8672 20.1008 16.9181 18.2173 18.8588 17.2743C19.8412 16.797 20.8029 16.5585 21.5211 16.44C21.8793 16.3808 22.1744 16.352 22.3778 16.3379C22.4794 16.3308 22.558 16.3275 22.6098 16.3259C22.6357 16.3252 22.655 16.3248 22.667 16.3247L22.6797 16.3245L22.6813 16.3245M22.6813 16.3245L22.6833 15.8247C22.6813 16.3245 22.6816 16.3245 22.6818 16.3245L22.682 16.3245L22.6819 16.3245L22.6813 16.3245Z" fill="#232323" stroke="url(#paint4_linear_4_24596)"/>
<path d="M23.937 22.1004C24.584 22.1004 25.1085 22.6249 25.1085 23.2718V29.6018C25.1085 30.2487 24.584 30.7732 23.937 30.7732C23.2901 30.7732 22.7656 30.2487 22.7656 29.6018V23.2718C22.7656 22.6249 23.2901 22.1004 23.937 22.1004Z" fill="url(#paint5_linear_4_24596)" stroke="url(#paint6_linear_4_24596)"/>
<path d="M19.6016 26.4364C19.6016 25.7894 20.126 25.265 20.773 25.265H27.1029C27.7499 25.265 28.2743 25.7894 28.2743 26.4364C28.2743 27.0833 27.7499 27.6078 27.1029 27.6078H20.773C20.126 27.6078 19.6016 27.0833 19.6016 26.4364Z" fill="url(#paint7_linear_4_24596)" stroke="url(#paint8_linear_4_24596)"/>
<path d="M41.7862 23.5254C41.7862 24.134 41.2927 24.6275 40.6841 24.6275C40.0754 24.6275 39.582 24.134 39.582 23.5254C39.582 22.9167 40.0754 22.4233 40.6841 22.4233C41.2927 22.4233 41.7862 22.9167 41.7862 23.5254Z" fill="url(#paint9_linear_4_24596)" stroke="url(#paint10_linear_4_24596)"/>
<path d="M41.7862 29.3478C41.7862 29.9565 41.2927 30.4499 40.6841 30.4499C40.0754 30.4499 39.582 29.9565 39.582 29.3478C39.582 28.7392 40.0754 28.2458 40.6841 28.2458C41.2927 28.2458 41.7862 28.7392 41.7862 29.3478Z" fill="url(#paint11_linear_4_24596)" stroke="url(#paint12_linear_4_24596)"/>
<path d="M37.7739 25.3344C38.3826 25.3344 38.876 25.8278 38.876 26.4364C38.876 27.0451 38.3826 27.5385 37.7739 27.5385C37.1653 27.5385 36.6719 27.0451 36.6719 26.4364C36.6719 25.8278 37.1653 25.3344 37.7739 25.3344Z" fill="url(#paint13_linear_4_24596)" stroke="url(#paint14_linear_4_24596)"/>
<path d="M43.5942 25.3344C44.2029 25.3344 44.6963 25.8278 44.6963 26.4364C44.6963 27.0451 44.2029 27.5385 43.5942 27.5385C42.9856 27.5385 42.4922 27.0451 42.4922 26.4364C42.4922 25.8278 42.9856 25.3344 43.5942 25.3344Z" fill="url(#paint15_linear_4_24596)" stroke="url(#paint16_linear_4_24596)"/>
<defs>
<filter id="filter0_f_4_24596" x="3.26249" y="3.26252" width="57.475" height="57.4754" filterUnits="userSpaceOnUse" color-interpolation-filters="sRGB">
<feFlood flood-opacity="0" result="BackgroundImageFix"/>
<feBlend mode="normal" in="SourceGraphic" in2="BackgroundImageFix" result="shape"/>
<feGaussianBlur stdDeviation="0.618754" result="effect1_foregroundBlur_4_24596"/>
</filter>
<filter id="filter1_d_4_24596" x="21.3516" y="22.8874" width="33.8203" height="31.6404" filterUnits="userSpaceOnUse" color-interpolation-filters="sRGB">
<feFlood flood-opacity="0" result="BackgroundImageFix"/>
<feColorMatrix in="SourceAlpha" type="matrix" values="0 0 0 0 0 0 0 0 0 0 0 0 0 0 0 0 0 0 127 0" result="hardAlpha"/>
<feOffset dy="4"/>
<feGaussianBlur stdDeviation="2"/>
<feComposite in2="hardAlpha" operator="out"/>
<feColorMatrix type="matrix" values="0 0 0 0 0 0 0 0 0 0 0 0 0 0 0 0 0 0 0.25 0"/>
<feBlend mode="normal" in2="BackgroundImageFix" result="effect1_dropShadow_4_24596"/>
<feBlend mode="normal" in="SourceGraphic" in2="effect1_dropShadow_4_24596" result="shape"/>
</filter>
<linearGradient id="paint0_linear_4_24596" x1="4.5" y1="32.0002" x2="59.5004" y2="32.0002" gradientUnits="userSpaceOnUse">
<stop stop-color="#FDFC47"/>
<stop offset="1" stop-color="#24FE41"/>
</linearGradient>
<linearGradient id="paint1_linear_4_24596" x1="4.5" y1="32.0009" x2="59.5015" y2="32.0009" gradientUnits="userSpaceOnUse">
<stop stop-color="#FDFC47"/>
<stop offset="1" stop-color="#24FE41"/>
</linearGradient>
<linearGradient id="paint2_linear_4_24596" x1="25.3516" y1="34.7074" x2="51.1721" y2="34.7074" gradientUnits="userSpaceOnUse">
<stop stop-color="#FDFC47"/>
<stop offset="1" stop-color="#24FE41"/>
</linearGradient>
<linearGradient id="paint3_linear_4_24596" x1="25.3516" y1="34.7074" x2="51.1721" y2="34.7074" gradientUnits="userSpaceOnUse">
<stop stop-color="#FDFC47"/>
<stop offset="1" stop-color="#24FE41"/>
</linearGradient>
<linearGradient id="paint4_linear_4_24596" x1="12.832" y1="31.1892" x2="49.7015" y2="31.1892" gradientUnits="userSpaceOnUse">
<stop stop-color="#FDFC47"/>
<stop offset="1" stop-color="#24FE41"/>
</linearGradient>
<linearGradient id="paint5_linear_4_24596" x1="22.2656" y1="26.4368" x2="25.6085" y2="26.4368" gradientUnits="userSpaceOnUse">
<stop stop-color="#FDFC47"/>
<stop offset="1" stop-color="#24FE41"/>
</linearGradient>
<linearGradient id="paint6_linear_4_24596" x1="22.2656" y1="26.4368" x2="25.6085" y2="26.4368" gradientUnits="userSpaceOnUse">
<stop stop-color="#FDFC47"/>
<stop offset="1" stop-color="#24FE41"/>
</linearGradient>
<linearGradient id="paint7_linear_4_24596" x1="23.9379" y1="28.1078" x2="23.9379" y2="24.765" gradientUnits="userSpaceOnUse">
<stop stop-color="#FDFC47"/>
<stop offset="1" stop-color="#24FE41"/>
</linearGradient>
<linearGradient id="paint8_linear_4_24596" x1="23.9379" y1="28.1078" x2="23.9379" y2="24.765" gradientUnits="userSpaceOnUse">
<stop stop-color="#FDFC47"/>
<stop offset="1" stop-color="#24FE41"/>
</linearGradient>
<linearGradient id="paint9_linear_4_24596" x1="39.082" y1="23.5254" x2="42.2862" y2="23.5254" gradientUnits="userSpaceOnUse">
<stop stop-color="#FDFC47"/>
<stop offset="1" stop-color="#24FE41"/>
</linearGradient>
<linearGradient id="paint10_linear_4_24596" x1="39.082" y1="23.5254" x2="42.2862" y2="23.5254" gradientUnits="userSpaceOnUse">
<stop stop-color="#FDFC47"/>
<stop offset="1" stop-color="#24FE41"/>
</linearGradient>
<linearGradient id="paint11_linear_4_24596" x1="39.082" y1="29.3478" x2="42.2862" y2="29.3478" gradientUnits="userSpaceOnUse">
<stop stop-color="#FDFC47"/>
<stop offset="1" stop-color="#24FE41"/>
</linearGradient>
<linearGradient id="paint12_linear_4_24596" x1="39.082" y1="29.3478" x2="42.2862" y2="29.3478" gradientUnits="userSpaceOnUse">
<stop stop-color="#FDFC47"/>
<stop offset="1" stop-color="#24FE41"/>
</linearGradient>
<linearGradient id="paint13_linear_4_24596" x1="37.7739" y1="28.0385" x2="37.7739" y2="24.8344" gradientUnits="userSpaceOnUse">
<stop stop-color="#FDFC47"/>
<stop offset="1" stop-color="#24FE41"/>
</linearGradient>
<linearGradient id="paint14_linear_4_24596" x1="37.7739" y1="28.0385" x2="37.7739" y2="24.8344" gradientUnits="userSpaceOnUse">
<stop stop-color="#FDFC47"/>
<stop offset="1" stop-color="#24FE41"/>
</linearGradient>
<linearGradient id="paint15_linear_4_24596" x1="43.5942" y1="28.0385" x2="43.5942" y2="24.8344" gradientUnits="userSpaceOnUse">
<stop stop-color="#FDFC47"/>
<stop offset="1" stop-color="#24FE41"/>
</linearGradient>
<linearGradient id="paint16_linear_4_24596" x1="43.5942" y1="28.0385" x2="43.5942" y2="24.8344" gradientUnits="userSpaceOnUse">
<stop stop-color="#FDFC47"/>
<stop offset="1" stop-color="#24FE41"/>
</linearGradient>
</defs>
</svg>
