<svg width="64" height="64" viewBox="0 0 64 64" fill="none" xmlns="http://www.w3.org/2000/svg">
<g clip-path="url(#clip0_4_24407)">
<g opacity="0.3" filter="url(#filter0_f_4_24407)">
<path d="M44.5 4.5H19.5C11.2157 4.5 4.5 11.2157 4.5 19.5V44.5C4.5 52.7843 11.2157 59.5 19.5 59.5H44.5C52.7843 59.5 59.5 52.7843 59.5 44.5V19.5C59.5 11.2157 52.7843 4.5 44.5 4.5Z" fill="url(#paint0_linear_4_24407)"/>
</g>
<path d="M19.5 5H44.5C52.5081 5 59 11.4919 59 19.5V44.5C59 52.5081 52.5081 59 44.5 59H19.5C11.4919 59 5 52.5081 5 44.5V19.5C5 11.4919 11.4919 5 19.5 5Z" fill="#232323" stroke="url(#paint1_linear_4_24407)"/>
<path d="M31.942 12.7094C24.9372 12.7094 21.0703 18.6521 21.0703 24.4539H42.8136C42.8136 18.6521 38.4505 12.7094 31.942 12.7094Z" stroke="url(#paint2_linear_4_24407)" stroke-width="2.341"/>
<path d="M12.7689 44.1481C12.5569 44.1486 12.3528 44.0678 12.1986 43.9222C12.0444 43.7767 11.9518 43.5776 11.94 43.3659C11.9281 43.1542 11.9979 42.9461 12.1349 42.7843C12.272 42.6225 12.4658 42.5194 12.6766 42.4962C13.0546 42.4538 13.409 42.291 13.6874 42.0317C13.9658 41.7724 14.1534 41.4305 14.2225 41.0564C14.2917 40.6823 14.2386 40.2959 14.0713 39.9543C13.9039 39.6126 13.6311 39.3339 13.2931 39.1592C12.9552 38.9846 12.57 38.9232 12.1945 38.9843C11.819 39.0454 11.4731 39.2256 11.2079 39.4984C10.9427 39.7711 10.7723 40.122 10.7219 40.499C10.6714 40.8761 10.7435 41.2594 10.9276 41.5923C11.0244 41.7838 11.043 42.0053 10.9798 42.2102C10.9165 42.4152 10.7762 42.5876 10.5884 42.6912C10.4005 42.7948 10.1799 42.8216 9.97275 42.7658C9.76563 42.71 9.58821 42.5761 9.47782 42.3922C9.12232 41.7481 8.98333 41.0069 9.08139 40.2778C9.17944 39.5487 9.50934 38.8705 10.0224 38.3432C10.5354 37.816 11.2044 37.4677 11.9305 37.3498C12.6566 37.2318 13.4014 37.3505 14.055 37.6883C14.7085 38.0261 15.236 38.5651 15.5598 39.2257C15.8835 39.8863 15.9863 40.6334 15.8529 41.3569C15.7194 42.0803 15.3569 42.7417 14.8188 43.2433C14.2808 43.745 13.5956 44.0603 12.8646 44.1428C12.8328 44.1463 12.8009 44.148 12.7689 44.1481Z" fill="url(#paint3_linear_4_24407)"/>
<path d="M16.4247 33.2828L16.2093 33.1726C15.2027 32.6577 13.9693 33.0563 13.4545 34.0629L12.599 35.7354C12.0841 36.742 12.4827 37.9754 13.4893 38.4902L13.7047 38.6004C14.7113 39.1153 15.9446 38.7167 16.4595 37.7101L17.315 36.0376C17.8299 35.031 17.4312 33.7976 16.4247 33.2828Z" fill="url(#paint4_linear_4_24407)"/>
<path d="M16.5708 29.8302L18.8868 31.0149L17.1032 34.5018C17.0255 34.6539 16.9185 34.7891 16.7884 34.8999C16.6584 35.0106 16.5078 35.0946 16.3452 35.1472C16.1827 35.1997 16.0114 35.2197 15.8411 35.206C15.6709 35.1924 15.505 35.1453 15.3529 35.0675C15.2008 34.9897 15.0656 34.8827 14.9548 34.7527C14.8441 34.6226 14.7601 34.472 14.7076 34.3095C14.655 34.147 14.635 33.9757 14.6487 33.8054C14.6624 33.6351 14.7094 33.4692 14.7872 33.3172L16.5708 29.8302Z" fill="url(#paint5_linear_4_24407)"/>
<path d="M18.269 32.6763C19.986 32.6763 21.3779 31.2844 21.3779 29.5674C21.3779 27.8504 19.986 26.4586 18.269 26.4586C16.552 26.4586 15.1602 27.8504 15.1602 29.5674C15.1602 31.2844 16.552 32.6763 18.269 32.6763Z" fill="url(#paint6_linear_4_24407)"/>
<path d="M51.2297 44.1481C51.1981 44.148 51.1666 44.1462 51.1352 44.1427C50.4041 44.0603 49.7189 43.7449 49.1808 43.2431C48.6426 42.7414 48.2801 42.0799 48.1467 41.3564C48.0133 40.6329 48.1161 39.8856 48.4399 39.2249C48.7637 38.5643 49.2914 38.0253 49.945 37.6875C50.5986 37.3497 51.3435 37.231 52.0697 37.349C52.7959 37.467 53.465 37.8153 53.9781 38.3427C54.4911 38.87 54.821 39.5483 54.919 40.2775C55.0171 41.0067 54.878 41.7481 54.5224 42.3922C54.4722 42.4916 54.4025 42.5798 54.3174 42.6516C54.2324 42.7235 54.1337 42.7774 54.0273 42.8103C53.9209 42.8431 53.809 42.8542 53.6983 42.8428C53.5875 42.8314 53.4802 42.7978 53.3827 42.7441C53.2852 42.6903 53.1996 42.6174 53.1309 42.5298C53.0622 42.4421 53.0119 42.3416 52.9829 42.2341C52.954 42.1266 52.947 42.0143 52.9624 41.904C52.9778 41.7938 53.0153 41.6877 53.0726 41.5923C53.2567 41.2594 53.3288 40.8761 53.2784 40.4991C53.2279 40.122 53.0575 39.7712 52.7923 39.4985C52.5272 39.2257 52.1813 39.0455 51.8058 38.9844C51.4304 38.9233 51.0452 38.9846 50.7072 39.1592C50.3693 39.3338 50.0965 39.6125 49.9291 39.9541C49.7617 40.2957 49.7086 40.6821 49.7776 41.0561C49.8467 41.4302 50.0342 41.7722 50.3126 42.0315C50.5909 42.2908 50.9452 42.4537 51.3233 42.4962C51.534 42.5193 51.7279 42.6224 51.8649 42.7842C52.0019 42.946 52.0717 43.1542 52.0599 43.3659C52.048 43.5776 51.9555 43.7767 51.8013 43.9222C51.6471 44.0677 51.4429 44.1486 51.2309 44.1481L51.2297 44.1481Z" fill="url(#paint7_linear_4_24407)"/>
<path d="M50.298 38.6027L50.5134 38.4925C51.5199 37.9777 51.9186 36.7443 51.4037 35.7377L50.5482 34.0652C50.0333 33.0586 48.8 32.66 47.7934 33.1749L47.578 33.2851C46.5714 33.7999 46.1728 35.0333 46.6877 36.0399L47.5432 37.7124C48.058 38.719 49.2914 39.1176 50.298 38.6027Z" fill="url(#paint8_linear_4_24407)"/>
<path d="M48.6472 35.0698C48.3401 35.2269 47.9831 35.2556 47.6549 35.1495C47.3266 35.0434 47.054 34.8113 46.8969 34.5041L45.1133 31.0172L47.4293 29.8326L49.2129 33.3195C49.37 33.6266 49.3986 33.9836 49.2925 34.3118C49.1865 34.6401 48.9543 34.9127 48.6472 35.0698Z" fill="url(#paint9_linear_4_24407)"/>
<path d="M45.7299 32.6763C47.4469 32.6763 48.8388 31.2844 48.8388 29.5674C48.8388 27.8504 47.4469 26.4586 45.7299 26.4586C44.013 26.4586 42.6211 27.8504 42.6211 29.5674C42.6211 31.2844 44.013 32.6763 45.7299 32.6763Z" fill="url(#paint10_linear_4_24407)"/>
<path d="M19.3555 52.4611C17.8365 52.4611 16.5801 50.8103 16.2276 48.3539C16.0387 47.0354 16.134 45.6535 16.4961 44.4601C16.8859 43.1759 17.5528 42.2402 18.3734 41.8206C18.6765 41.6628 19.013 41.5799 19.3547 41.5786H23.6429V52.4611H19.3555Z" fill="url(#paint11_linear_4_24407)"/>
<path d="M23.6067 52.4611C22.726 52.4611 21.9974 50.8103 21.7932 48.3539C21.6838 47.0354 21.7389 45.6535 21.9489 44.4601C22.1747 43.1759 22.5612 42.2402 23.0371 41.8206C23.219 41.6602 23.4099 41.5786 23.6059 41.5786C23.8018 41.5786 23.9928 41.6615 24.1755 41.8189L26.2342 43.6345C26.9537 44.2691 27.2031 46.2856 27.0722 47.8597C26.9716 49.0726 26.658 50.0212 26.2359 50.3982L24.1775 52.2134C23.9936 52.3786 23.8014 52.4611 23.6067 52.4611Z" fill="url(#paint12_linear_4_24407)"/>
<path d="M23.9845 42.4696L26.0411 44.2836C26.5043 44.6937 26.7777 46.2491 26.6534 47.7595C26.5705 48.7648 26.329 49.4972 26.0416 49.7532L23.9849 51.5671C23.2152 52.2456 22.4195 50.7623 22.2107 48.2503C22.0019 45.7384 22.4592 43.1511 23.2289 42.4713C23.4836 42.2468 23.7467 42.2626 23.9845 42.4696Z" fill="url(#paint13_linear_4_24407)"/>
<path d="M44.2878 52.4611C45.8064 52.4611 47.0632 50.8103 47.4157 48.3539C47.6046 47.0354 47.5093 45.6535 47.1473 44.4601C46.7575 43.1759 46.0905 42.2402 45.2699 41.8206C44.9668 41.6628 44.6303 41.5799 44.2886 41.5786H40V52.4611H44.2878Z" fill="url(#paint14_linear_4_24407)"/>
<path d="M40.038 52.4611C40.9186 52.4611 41.6473 50.8103 41.8515 48.3539C41.9608 47.0354 41.9058 45.6535 41.6957 44.4601C41.47 43.1759 41.0831 42.2402 40.6075 41.8206C40.4253 41.6602 40.2347 41.5786 40.0388 41.5786C39.8428 41.5786 39.6519 41.6615 39.4688 41.8189L37.4104 43.6345C36.6905 44.2691 36.4415 46.2856 36.5724 47.8597C36.6731 49.0726 36.9867 50.0212 37.4088 50.3982L39.4667 52.2134C39.6511 52.3786 39.8433 52.4611 40.038 52.4611Z" fill="white" fill-opacity="0.982897"/>
<path d="M39.6599 42.4696L37.6032 44.2836C37.1397 44.692 36.8659 46.2475 36.9914 47.7578C37.0742 48.7632 37.3157 49.4955 37.6032 49.7515L39.6599 51.5655C40.4308 52.2452 41.2249 50.7606 41.4337 48.2487C41.6424 45.7367 41.1851 43.1494 40.4155 42.4696C40.1595 42.2468 39.8977 42.2625 39.6599 42.4696Z" fill="url(#paint15_linear_4_24407)"/>
<path d="M44.2024 32.2123C44.0198 31.597 44.0118 30.943 44.1792 30.3234C44.7898 28.1226 44.3888 25.6931 44.3888 25.6931C36.7225 23.3 31.9563 25.6732 31.9563 25.6732C31.9563 25.6732 27.2013 23.2855 19.5292 25.6545C19.5292 25.6545 19.1208 28.0836 19.7247 30.2869C19.8902 30.907 19.8803 31.5607 19.6961 32.1755C19.4832 32.9033 19.2521 34.0188 19.25 35.4396C19.2347 45.7542 31.9257 48.9471 31.9257 48.9471C31.9257 48.9471 44.6254 45.7927 44.6407 35.4778C44.6407 34.0569 44.4133 32.9422 44.2024 32.2123Z" stroke="url(#paint16_linear_4_24407)" stroke-width="2.341"/>
<path d="M34.3229 33.3465C34.3239 32.8981 34.1981 32.4585 33.9602 32.0784C33.7222 31.6983 33.3817 31.3932 32.9779 31.1982C32.5741 31.0032 32.1234 30.9262 31.6778 30.9761C31.2322 31.026 30.8097 31.2007 30.459 31.4803C30.1084 31.7598 29.8438 32.1327 29.6959 32.556C29.5479 32.9793 29.5225 33.4358 29.6226 33.8729C29.7227 34.31 29.9442 34.7099 30.2617 35.0266C30.5792 35.3433 30.9797 35.5639 31.417 35.6629L30.0795 41.2746L31.9299 41.8069L33.7819 41.2804L32.463 35.6646C32.99 35.5465 33.4612 35.2527 33.7992 34.8315C34.1372 34.4103 34.3219 33.8866 34.3229 33.3465Z" fill="url(#paint17_linear_4_24407)"/>
</g>
<defs>
<filter id="filter0_f_4_24407" x="3.2625" y="3.2625" width="57.475" height="57.475" filterUnits="userSpaceOnUse" color-interpolation-filters="sRGB">
<feFlood flood-opacity="0" result="BackgroundImageFix"/>
<feBlend mode="normal" in="SourceGraphic" in2="BackgroundImageFix" result="shape"/>
<feGaussianBlur stdDeviation="0.61875" result="effect1_foregroundBlur_4_24407"/>
</filter>
<linearGradient id="paint0_linear_4_24407" x1="4.5" y1="32" x2="59.5" y2="32" gradientUnits="userSpaceOnUse">
<stop stop-color="#FDFC47"/>
<stop offset="1" stop-color="#24FE41"/>
</linearGradient>
<linearGradient id="paint1_linear_4_24407" x1="4.5" y1="32" x2="59.5" y2="32" gradientUnits="userSpaceOnUse">
<stop stop-color="#FDFC47"/>
<stop offset="1" stop-color="#24FE41"/>
</linearGradient>
<linearGradient id="paint2_linear_4_24407" x1="21.0703" y1="18.5817" x2="42.8136" y2="18.5817" gradientUnits="userSpaceOnUse">
<stop stop-color="#FDFC47"/>
<stop offset="1" stop-color="#24FE41"/>
</linearGradient>
<linearGradient id="paint3_linear_4_24407" x1="9.05078" y1="40.7268" x2="15.9097" y2="40.7268" gradientUnits="userSpaceOnUse">
<stop stop-color="#FDFC47"/>
<stop offset="1" stop-color="#24FE41"/>
</linearGradient>
<linearGradient id="paint4_linear_4_24407" x1="13.0267" y1="34.8992" x2="16.8872" y2="36.8738" gradientUnits="userSpaceOnUse">
<stop stop-color="#FDFC47"/>
<stop offset="1" stop-color="#24FE41"/>
</linearGradient>
<linearGradient id="paint5_linear_4_24407" x1="14.6445" y1="32.5202" x2="18.8868" y2="32.5202" gradientUnits="userSpaceOnUse">
<stop stop-color="#FDFC47"/>
<stop offset="1" stop-color="#24FE41"/>
</linearGradient>
<linearGradient id="paint6_linear_4_24407" x1="15.1602" y1="29.5674" x2="21.3779" y2="29.5674" gradientUnits="userSpaceOnUse">
<stop stop-color="#FDFC47"/>
<stop offset="1" stop-color="#24FE41"/>
</linearGradient>
<linearGradient id="paint7_linear_4_24407" x1="48.0898" y1="40.7264" x2="54.9496" y2="40.7264" gradientUnits="userSpaceOnUse">
<stop stop-color="#FDFC47"/>
<stop offset="1" stop-color="#24FE41"/>
</linearGradient>
<linearGradient id="paint8_linear_4_24407" x1="50.9759" y1="34.9015" x2="47.1154" y2="36.8761" gradientUnits="userSpaceOnUse">
<stop stop-color="#FDFC47"/>
<stop offset="1" stop-color="#24FE41"/>
</linearGradient>
<linearGradient id="paint9_linear_4_24407" x1="45.1133" y1="32.5225" x2="49.3556" y2="32.5225" gradientUnits="userSpaceOnUse">
<stop stop-color="#FDFC47"/>
<stop offset="1" stop-color="#24FE41"/>
</linearGradient>
<linearGradient id="paint10_linear_4_24407" x1="42.6211" y1="29.5674" x2="48.8388" y2="29.5674" gradientUnits="userSpaceOnUse">
<stop stop-color="#FDFC47"/>
<stop offset="1" stop-color="#24FE41"/>
</linearGradient>
<linearGradient id="paint11_linear_4_24407" x1="16.1328" y1="47.0199" x2="23.6429" y2="47.0199" gradientUnits="userSpaceOnUse">
<stop stop-color="#FDFC47"/>
<stop offset="1" stop-color="#24FE41"/>
</linearGradient>
<linearGradient id="paint12_linear_4_24407" x1="21.7383" y1="47.0199" x2="27.1056" y2="47.0199" gradientUnits="userSpaceOnUse">
<stop stop-color="#FDFC47"/>
<stop offset="1" stop-color="#24FE41"/>
</linearGradient>
<linearGradient id="paint13_linear_4_24407" x1="22.1602" y1="47.02" x2="26.6834" y2="47.02" gradientUnits="userSpaceOnUse">
<stop stop-color="#FDFC47"/>
<stop offset="1" stop-color="#24FE41"/>
</linearGradient>
<linearGradient id="paint14_linear_4_24407" x1="40" y1="47.0199" x2="47.5105" y2="47.0199" gradientUnits="userSpaceOnUse">
<stop stop-color="#FDFC47"/>
<stop offset="1" stop-color="#24FE41"/>
</linearGradient>
<linearGradient id="paint15_linear_4_24407" x1="36.9609" y1="47.0193" x2="41.4842" y2="47.0193" gradientUnits="userSpaceOnUse">
<stop stop-color="#FDFC47"/>
<stop offset="1" stop-color="#24FE41"/>
</linearGradient>
<linearGradient id="paint16_linear_4_24407" x1="19.25" y1="36.7768" x2="44.6407" y2="36.7768" gradientUnits="userSpaceOnUse">
<stop stop-color="#FDFC47"/>
<stop offset="1" stop-color="#24FE41"/>
</linearGradient>
<linearGradient id="paint17_linear_4_24407" x1="29.5625" y1="36.3841" x2="34.3229" y2="36.3841" gradientUnits="userSpaceOnUse">
<stop stop-color="#FDFC47"/>
<stop offset="1" stop-color="#24FE41"/>
</linearGradient>
<clipPath id="clip0_4_24407">
<rect width="64" height="64" fill="white"/>
</clipPath>
</defs>
</svg>
