<svg width="64" height="64" viewBox="0 0 64 64" fill="none" xmlns="http://www.w3.org/2000/svg">
<g clip-path="url(#clip0_4_24371)">
<g opacity="0.3" filter="url(#filter0_f_4_24371)">
<path d="M44.5 4.5H19.5C11.2157 4.5 4.5 11.2157 4.5 19.5V44.5C4.5 52.7843 11.2157 59.5 19.5 59.5H44.5C52.7843 59.5 59.5 52.7843 59.5 44.5V19.5C59.5 11.2157 52.7843 4.5 44.5 4.5Z" fill="url(#paint0_linear_4_24371)"/>
</g>
<path d="M19.5 5H44.5C52.5081 5 59 11.4919 59 19.5V44.5C59 52.5081 52.5081 59 44.5 59H19.5C11.4919 59 5 52.5081 5 44.5V19.5C5 11.4919 11.4919 5 19.5 5Z" fill="#232323" stroke="url(#paint1_linear_4_24371)"/>
<path d="M19.9988 48.1C19.7514 47.9755 19.4462 47.6701 19.3206 47.4229C19.1436 47.0743 19.102 44.7339 19.1357 37.0154C19.1653 30.2493 19.2403 27.0372 19.3699 26.994C19.4748 26.9595 21.6448 28.5034 24.1923 30.426C27.9525 33.2638 29.0532 34.0025 30.042 34.3516C31.0054 34.6918 31.4978 34.7625 32.3982 34.6903C34.602 34.5133 36.6028 33.211 37.5633 31.3285C38.0884 30.2992 38.3128 28.6809 38.0958 27.4874C37.8687 26.2374 37.3888 25.2975 36.4677 24.2983C35.7534 23.5233 34.1757 22.5849 33.587 22.5849C33.4226 22.5849 33.153 22.4364 32.9879 22.2534C32.7359 21.9749 32.6879 21.4719 32.6879 19.1084C32.6879 16.5165 32.7167 16.2687 33.0539 15.9636C33.4039 15.6468 33.4811 15.6457 34.8206 15.9351C36.4673 16.2922 38.4354 17.1867 39.8105 18.2027C41.0146 19.092 42.3677 20.5903 43.1802 21.9334C43.5158 22.4883 44.0428 23.6571 44.3513 24.5309C44.8741 26.0117 44.9118 26.2859 44.9058 28.5674C44.9003 30.7186 44.8412 31.1912 44.4193 32.4659C44.1553 33.2638 43.6311 34.4468 43.2546 35.095C42.8781 35.7433 41.9172 36.9265 41.1194 37.7242C38.603 40.2406 35.6744 41.4412 32.0532 41.4412C30.0629 41.4412 28.0322 41.0309 26.7261 40.3646C26.3231 40.1589 25.9493 39.9908 25.8955 39.9908C25.8417 39.9908 25.795 41.6432 25.7918 43.6627C25.7858 47.5055 25.7502 47.6935 24.9482 48.1207C24.4023 48.4114 20.5834 48.3946 19.9988 48.0982L19.9988 48.1Z" fill="url(#paint2_linear_4_24371)"/>
<path d="M22.1186 27.25C20.6612 26.1547 19.3837 25.0993 19.2796 24.9046C19.0308 24.4398 19.0247 18.4238 19.2729 18.2705C19.3734 18.2075 20.0998 18.6115 20.887 19.1664C21.6744 19.7212 22.4923 20.1753 22.7047 20.1753C22.9434 20.1753 23.591 19.6716 24.3997 18.8569C25.7485 17.4984 27.5383 16.3956 28.9723 16.0398C30.6432 15.6252 30.6774 15.6247 31.0548 16.0022C31.3882 16.3357 31.4202 16.6027 31.4202 19.0473C31.4202 21.1789 31.3625 21.8092 31.1379 22.1297C30.9827 22.3514 30.7583 22.5335 30.6393 22.5344C30.1677 22.5344 28.5177 23.4415 27.8037 24.0867C26.7559 25.0332 26.1945 26.074 25.9011 27.6138C25.6666 28.8444 25.4435 29.2322 24.9665 29.2388C24.8576 29.2388 23.5759 28.3453 22.1186 27.25Z" fill="url(#paint3_linear_4_24371)" fill-opacity="0.5"/>
</g>
<defs>
<filter id="filter0_f_4_24371" x="3.2625" y="3.2625" width="57.475" height="57.475" filterUnits="userSpaceOnUse" color-interpolation-filters="sRGB">
<feFlood flood-opacity="0" result="BackgroundImageFix"/>
<feBlend mode="normal" in="SourceGraphic" in2="BackgroundImageFix" result="shape"/>
<feGaussianBlur stdDeviation="0.61875" result="effect1_foregroundBlur_4_24371"/>
</filter>
<linearGradient id="paint0_linear_4_24371" x1="4.5" y1="32" x2="59.5" y2="32" gradientUnits="userSpaceOnUse">
<stop stop-color="#FDFC47"/>
<stop offset="1" stop-color="#24FE41"/>
</linearGradient>
<linearGradient id="paint1_linear_4_24371" x1="4.5" y1="32" x2="59.5" y2="32" gradientUnits="userSpaceOnUse">
<stop stop-color="#FDFC47"/>
<stop offset="1" stop-color="#24FE41"/>
</linearGradient>
<linearGradient id="paint2_linear_4_24371" x1="19.125" y1="32.0259" x2="44.9063" y2="32.0259" gradientUnits="userSpaceOnUse">
<stop stop-color="#FDFC47"/>
<stop offset="1" stop-color="#24FE41"/>
</linearGradient>
<linearGradient id="paint3_linear_4_24371" x1="19.0898" y1="22.4813" x2="31.4202" y2="22.4813" gradientUnits="userSpaceOnUse">
<stop stop-color="#FDFC47"/>
<stop offset="1" stop-color="#24FE41"/>
</linearGradient>
<clipPath id="clip0_4_24371">
<rect width="64" height="64" fill="white"/>
</clipPath>
</defs>
</svg>
