<svg width="64" height="64" viewBox="0 0 64 64" fill="none" xmlns="http://www.w3.org/2000/svg">
<g opacity="0.3" filter="url(#filter0_f_4_24346)">
<path d="M44.5003 4.50003H19.5001C11.2158 4.50003 4.5 11.2158 4.5 19.5001V44.5003C4.5 52.7846 11.2158 59.5004 19.5001 59.5004H44.5003C52.7846 59.5004 59.5004 52.7846 59.5004 44.5003V19.5001C59.5004 11.2158 52.7846 4.50003 44.5003 4.50003Z" fill="#232323"/>
<path d="M19.5001 5.00003H44.5003C52.5085 5.00003 59.0004 11.4919 59.0004 19.5001V44.5003C59.0004 52.5085 52.5085 59.0004 44.5003 59.0004H19.5001C11.4919 59.0004 5 52.5085 5 44.5003V19.5001C5 11.4919 11.4919 5.00003 19.5001 5.00003Z" stroke="url(#paint0_linear_4_24346)"/>
</g>
<path d="M19.5001 5H44.5007C52.5089 5 59.0008 11.4919 59.0008 19.5001V44.5007C59.0008 52.5089 52.5089 59.0008 44.5007 59.0008H19.5001C11.4919 59.0008 5 52.5089 5 44.5007V19.5001C5 11.4919 11.4919 5 19.5001 5Z" fill="#232323" stroke="url(#paint1_linear_4_24346)"/>
<path opacity="0.15" d="M45.1112 32.0008C45.1112 39.2424 39.2406 45.113 31.999 45.113C24.7573 45.113 18.8867 39.2424 18.8867 32.0008C18.8867 24.7591 24.7573 18.8885 31.999 18.8885C39.2406 18.8885 45.1112 24.7591 45.1112 32.0008Z" fill="url(#paint2_linear_4_24346)" stroke="url(#paint3_linear_4_24346)"/>
<path d="M40.7816 43.8273C39.6325 43.0611 39.3494 42.8926 38.6488 42.5674C37.8039 42.1753 36.9443 42.3125 35.8461 43.0147C34.7645 43.7063 34.6297 43.9426 34.4651 45.4112C34.2851 47.0175 33.7141 47.8162 32.6428 47.9601L40.7816 43.8273ZM40.7816 43.8273C41.6236 44.3888 42.1483 44.296 43.1215 43.4054L40.7816 43.8273ZM31.3661 16.5108L31.5361 16.5045C31.8006 16.4946 32.1152 16.5105 32.4957 16.5543L32.4961 16.5543C33.0517 16.6177 33.2383 16.7196 33.3795 16.9092C33.5702 17.1654 33.7266 17.6461 33.9402 18.6784L33.9402 18.6784C34.1265 19.5786 34.3659 20.2724 34.8026 20.7909C35.2504 21.3228 35.8519 21.6085 36.6188 21.8139C37.2986 21.9962 37.9148 22.0263 38.5688 21.8345C39.2046 21.648 39.8357 21.2629 40.5697 20.6953L31.3661 16.5108ZM31.3661 16.5108C31.0636 16.5377 30.8554 16.6035 30.703 16.6921C30.5307 16.7924 30.3889 16.9455 30.2626 17.1996C30.0891 17.5489 29.9419 18.1614 29.9418 18.5068C29.9414 19.4624 29.4613 20.3405 28.7659 20.9686C28.069 21.5981 27.1208 22.0105 26.1155 22.0105C25.6213 22.0105 25.2123 21.938 24.6941 21.6782C24.208 21.4346 23.6243 21.025 22.7649 20.3814C22.4322 20.1322 22.2788 20.1225 22.1218 20.1706C21.8794 20.2448 21.5299 20.4943 20.9115 21.1031C20.3311 21.6745 20.1718 21.9761 20.159 22.2161C20.1457 22.4657 20.2806 22.8104 20.7979 23.4967L20.7979 23.4968C21.0239 23.7968 21.2489 24.143 21.4314 24.462C21.6075 24.7697 21.7667 25.0909 21.8348 25.3314C21.9935 25.892 21.9334 26.614 21.7705 27.2566C21.6066 27.9025 21.3125 28.5722 20.9081 29.0142C20.5586 29.3963 20.0007 29.6922 19.419 29.8922C18.8257 30.0963 18.1463 30.2216 17.5039 30.2216C17.0547 30.2216 16.8745 30.3403 16.7595 30.5219C16.6043 30.767 16.5 31.2321 16.5 32.0947C16.5 32.7966 16.517 33.1047 16.5658 33.279C16.5842 33.3449 16.6027 33.372 16.6199 33.392C16.6444 33.4207 16.6886 33.4597 16.794 33.5297L16.7942 33.5298C16.8675 33.5784 17.079 33.6684 17.4072 33.7638C17.7173 33.854 18.0802 33.9344 18.4166 33.9826C18.8029 34.0379 19.215 34.1301 19.5717 34.2348C19.9111 34.3344 20.2568 34.4612 20.4719 34.6039C20.8974 34.8864 21.281 35.4595 21.5493 36.0096C21.8227 36.5702 22.0391 37.2359 22.0431 37.7804L31.3661 16.5108ZM20.2252 41.9354L20.2252 41.9355C20.2455 42.0002 20.3167 42.135 20.462 42.3291C20.5994 42.5127 20.7781 42.7166 20.9745 42.9145C21.1708 43.1122 21.3779 43.297 21.5695 43.4443C21.7682 43.5971 21.9238 43.6889 22.0196 43.7258L22.0197 43.7259C22.1511 43.7765 22.2215 43.7784 22.2703 43.7709C22.3246 43.7626 22.4093 43.7334 22.5546 43.6304L22.5546 43.6304C23.1165 43.2317 23.8632 42.8253 24.5446 42.5187C24.8866 42.3647 25.2205 42.2321 25.5144 42.1369C25.7938 42.0464 26.0845 41.9736 26.3205 41.9736C26.8976 41.9736 27.5938 42.2175 28.1656 42.5219C28.4591 42.678 28.7396 42.8605 28.9752 43.0564C29.2039 43.2467 29.421 43.475 29.5489 43.7303L29.5489 43.7304C29.7414 44.115 29.9476 44.9098 30.0342 45.5119L29.5393 45.5831L30.0342 45.512C30.1332 46.2007 30.2551 46.6566 30.3932 46.9418C30.5259 47.2158 30.6375 47.2638 30.7016 47.2776C30.7017 47.2776 30.7019 47.2777 30.7021 47.2777L30.5979 47.7667L20.2252 41.9354ZM20.2252 41.9354C20.2212 41.9226 20.2098 41.8585 20.23 41.727C20.249 41.6035 20.2909 41.453 20.3558 41.2894C20.4875 40.9579 20.6921 40.6263 20.9105 40.4051M20.2252 41.9354L20.9105 40.4051M20.9105 40.4051C21.2218 40.0898 21.5001 39.6206 21.6983 39.1654M20.9105 40.4051L21.6983 39.1654M21.6983 39.1654C21.8941 38.7157 22.0462 38.2007 22.0431 37.7807L21.6983 39.1654ZM41.8573 37.6165C41.8645 38.5516 42.2333 39.4744 42.9235 40.2795L40.5698 20.6953C40.8093 20.5101 41.07 20.3417 41.2922 20.222C41.4035 20.162 41.4978 20.1182 41.5698 20.0908C41.5898 20.0831 41.6057 20.0777 41.6179 20.0738C41.628 20.0781 41.6407 20.0839 41.6562 20.0916C41.7274 20.1267 41.8227 20.184 41.9389 20.2644C42.1698 20.4244 42.4465 20.6504 42.7192 20.9003C42.9914 21.1499 43.2488 21.4134 43.4437 21.6445C43.5414 21.7603 43.6182 21.8619 43.6723 21.9451C43.7063 21.9973 43.7248 22.0325 43.7343 22.0522C43.7327 22.0618 43.7301 22.0752 43.7257 22.0928C43.7085 22.1615 43.6727 22.2613 43.6101 22.3949C43.4853 22.6612 43.2773 23.0123 42.9852 23.4358L42.9852 23.4359C42.3969 24.2889 42.014 24.9652 41.8762 25.6186C41.731 26.3066 41.8681 26.9086 42.1663 27.5808L42.1663 27.5808C42.5094 28.3539 42.8705 28.9306 43.4484 29.3369C44.015 29.7353 44.7321 29.928 45.6847 30.0771C46.1748 30.1539 46.5297 30.2246 46.7939 30.3085C47.0559 30.3917 47.1886 30.4759 47.2658 30.555C47.4168 30.7096 47.5035 30.9912 47.5004 31.8724C47.4974 32.7321 47.3977 33.0461 47.2067 33.2386C47.1043 33.3418 46.9402 33.4452 46.6504 33.5495C46.3591 33.6543 45.9736 33.7487 45.4532 33.8527C44.7567 33.9919 44.2567 34.1155 43.8651 34.2851C43.4494 34.4652 43.1694 34.6907 42.8948 34.9985C42.2063 35.7703 41.8501 36.6796 41.8573 37.6165ZM36.5967 27.4049C35.3777 26.1859 33.7243 25.501 32.0004 25.501C31.1468 25.501 30.3015 25.6692 29.5129 25.9958C28.7243 26.3225 28.0077 26.8013 27.4041 27.4049C26.8005 28.0085 26.3217 28.725 25.9951 29.5137C25.6684 30.3023 25.5003 31.1475 25.5003 32.0011C25.5003 32.8548 25.6684 33.7 25.9951 34.4886C26.3217 35.2773 26.8005 35.9938 27.4041 36.5974C28.0077 37.201 28.7243 37.6798 29.5129 38.0065C30.3015 38.3331 31.1468 38.5013 32.0004 38.5013C33.7243 38.5013 35.3777 37.8164 36.5967 36.5974C37.8157 35.3784 38.5005 33.7251 38.5005 32.0011C38.5005 30.2772 37.8157 28.6239 36.5967 27.4049Z" fill="url(#paint4_linear_4_24346)" stroke="url(#paint5_linear_4_24346)"/>
<defs>
<filter id="filter0_f_4_24346" x="3.26249" y="3.26252" width="57.475" height="57.4754" filterUnits="userSpaceOnUse" color-interpolation-filters="sRGB">
<feFlood flood-opacity="0" result="BackgroundImageFix"/>
<feBlend mode="normal" in="SourceGraphic" in2="BackgroundImageFix" result="shape"/>
<feGaussianBlur stdDeviation="0.618754" result="effect1_foregroundBlur_4_24346"/>
</filter>
<linearGradient id="paint0_linear_4_24346" x1="4.5" y1="32.0002" x2="59.5004" y2="32.0002" gradientUnits="userSpaceOnUse">
<stop stop-color="#FDFC47"/>
<stop offset="1" stop-color="#24FE41"/>
</linearGradient>
<linearGradient id="paint1_linear_4_24346" x1="4.5" y1="32.0004" x2="59.5008" y2="32.0004" gradientUnits="userSpaceOnUse">
<stop stop-color="#FDFC47"/>
<stop offset="1" stop-color="#24FE41"/>
</linearGradient>
<linearGradient id="paint2_linear_4_24346" x1="18.3867" y1="32.0008" x2="45.6112" y2="32.0008" gradientUnits="userSpaceOnUse">
<stop stop-color="#FDFC47"/>
<stop offset="1" stop-color="#24FE41"/>
</linearGradient>
<linearGradient id="paint3_linear_4_24346" x1="18.3867" y1="32.0008" x2="45.6112" y2="32.0008" gradientUnits="userSpaceOnUse">
<stop stop-color="#FDFC47"/>
<stop offset="1" stop-color="#24FE41"/>
</linearGradient>
<linearGradient id="paint4_linear_4_24346" x1="16" y1="32.0011" x2="48.0005" y2="32.0011" gradientUnits="userSpaceOnUse">
<stop stop-color="#FDFC47"/>
<stop offset="1" stop-color="#24FE41"/>
</linearGradient>
<linearGradient id="paint5_linear_4_24346" x1="16" y1="32.0011" x2="48.0005" y2="32.0011" gradientUnits="userSpaceOnUse">
<stop stop-color="#FDFC47"/>
<stop offset="1" stop-color="#24FE41"/>
</linearGradient>
</defs>
</svg>
