<svg width="64" height="64" viewBox="0 0 64 64" fill="none" xmlns="http://www.w3.org/2000/svg">
<g opacity="0.3" filter="url(#filter0_f_4_24182)">
<path d="M44.5 4.5H19.5C11.2157 4.5 4.5 11.2157 4.5 19.5V44.5C4.5 52.7843 11.2157 59.5 19.5 59.5H44.5C52.7843 59.5 59.5 52.7843 59.5 44.5V19.5C59.5 11.2157 52.7843 4.5 44.5 4.5Z" fill="url(#paint0_linear_4_24182)"/>
</g>
<path d="M19.5 5H44.5C52.5081 5 59 11.4919 59 19.5V44.5C59 52.5081 52.5081 59 44.5 59H19.5C11.4919 59 5 52.5081 5 44.5V19.5C5 11.4919 11.4919 5 19.5 5Z" fill="#232323" stroke="url(#paint1_linear_4_24182)"/>
<path d="M25.3555 40.6064C25.3555 40.6064 26.9577 37.2895 28.489 37.2895C30.0203 37.2895 43.1818 37.5752 44.2133 37.1065C45.2445 36.6377 49.6506 34.794 49.4321 31.7315C49.2134 28.669 49.6938 22.8876 49.6938 22.8876C49.6938 22.8876 51.4009 40.575 51.1509 41.7312C51.0224 42.8101 50.7232 45.5558 46.8342 46.3956C42.945 47.2353 40.9785 43.7439 40.9785 43.7439C40.9785 43.7439 39.2549 40.6061 37.1998 40.6061L25.3555 40.6064Z" fill="url(#paint2_linear_4_24182)"/>
<path d="M41.6823 15.8235C49.2634 16.0344 49.7018 22.0124 49.6988 22.7943C49.701 23.3783 49.7007 26.443 49.7005 29.3742C49.7004 30.3261 49.7003 31.2639 49.7003 32.0981C49.7003 35.5009 47.1368 37.8858 44.7449 37.8858H28.6509C27.4134 37.8858 26.257 39.4815 24.9366 41.3036C23.056 43.8985 20.8427 46.9525 17.5884 46.5109C12.365 45.8022 12.8435 41.7758 12.8435 41.7758L13.9634 23.9172C14.807 15.7923 22.6822 15.8235 22.6822 15.8235H41.6823ZM41.6823 15.8235L41.6684 16.3233C41.6707 16.3234 41.673 16.3235 41.6753 16.3235M41.6823 15.8235V16.3235H41.6753M41.6753 16.3235C45.3064 16.4263 47.1541 17.8951 48.1159 19.3682C49.1002 20.8757 49.2001 22.4571 49.1988 22.7923L49.1988 22.7962C49.201 23.3791 49.2007 26.4409 49.2005 29.3713C49.2004 30.324 49.2003 31.2629 49.2003 32.0981C49.2003 35.2648 46.8222 37.3858 44.7449 37.3858H28.6509C28.1409 37.3858 27.6748 37.5858 27.2562 37.8766C26.8392 38.1664 26.4411 38.5657 26.0565 39.0134C25.5597 39.5919 25.0425 40.3053 24.5132 41.0353C24.236 41.4177 23.9555 41.8046 23.6729 42.1791C22.8292 43.297 21.9373 44.3485 20.9377 45.0761C19.9495 45.7955 18.8802 46.1816 17.6557 46.0154C15.1935 45.6814 14.16 44.5895 13.7067 43.6587C13.4726 43.1778 13.3808 42.7138 13.3481 42.3689C13.3319 42.1971 13.3305 42.0573 13.333 41.9631C13.3342 41.9161 13.3363 41.8807 13.338 41.8586C13.3388 41.8476 13.3395 41.84 13.3399 41.8359L13.3401 41.8342L13.3401 41.8337L13.3402 41.833L13.3402 41.833L13.3403 41.8326L13.3415 41.8219L13.3424 41.809C13.6621 37.0127 13.9421 32.5471 14.1422 29.2807C14.2423 27.6474 14.3224 26.3139 14.3775 25.3886C14.405 24.926 14.4263 24.5655 14.4407 24.3205L14.457 24.0415L14.4612 23.9703L14.4619 23.9577C14.8661 20.0995 16.917 18.2162 18.8577 17.2732C19.8401 16.7959 20.8018 16.5575 21.52 16.4389C21.8782 16.3798 22.1733 16.3509 22.3767 16.3369C22.4783 16.3298 22.5569 16.3265 22.6087 16.3249C22.6346 16.3241 22.6539 16.3238 22.6659 16.3236L22.6786 16.3235L22.6802 16.3235M41.6753 16.3235H22.6822H22.6802M22.6802 16.3235L22.6808 16.3235L22.6807 16.3235C22.6805 16.3235 22.6802 16.3235 22.6822 15.8236L22.6802 16.3235Z" fill="#232323" stroke="url(#paint3_linear_4_24182)"/>
<path d="M25.6084 23.2713C25.6084 22.3482 24.8601 21.5999 23.937 21.5999C23.0139 21.5999 22.2656 22.3482 22.2656 23.2713V29.6009C22.2656 30.524 23.0139 31.2723 23.937 31.2723C24.8601 31.2723 25.6084 30.524 25.6084 29.6009V23.2713Z" fill="url(#paint4_linear_4_24182)"/>
<path d="M20.7729 24.7645C19.8499 24.7645 19.1016 25.5128 19.1016 26.4359C19.1016 27.3589 19.8499 28.1072 20.7729 28.1072H27.1026C28.0256 28.1072 28.7739 27.3589 28.7739 26.4359C28.7739 25.5128 28.0256 24.7645 27.1026 24.7645H20.7729Z" fill="url(#paint5_linear_4_24182)"/>
<path d="M40.6841 25.1268C41.5688 25.1268 42.2861 24.4095 42.2861 23.5248C42.2861 22.64 41.5688 21.9227 40.6841 21.9227C39.7993 21.9227 39.082 22.64 39.082 23.5248C39.082 24.4095 39.7993 25.1268 40.6841 25.1268Z" fill="url(#paint6_linear_4_24182)"/>
<path d="M40.6841 30.9493C41.5688 30.9493 42.2861 30.232 42.2861 29.3472C42.2861 28.4625 41.5688 27.7452 40.6841 27.7452C39.7993 27.7452 39.082 28.4625 39.082 29.3472C39.082 30.232 39.7993 30.9493 40.6841 30.9493Z" fill="url(#paint7_linear_4_24182)"/>
<path d="M39.3759 26.4358C39.3759 25.551 38.6587 24.8338 37.7739 24.8338C36.8891 24.8338 36.1719 25.551 36.1719 26.4358C36.1719 27.3206 36.8891 28.0378 37.7739 28.0378C38.6587 28.0378 39.3759 27.3206 39.3759 26.4358Z" fill="url(#paint8_linear_4_24182)"/>
<path d="M45.1962 26.4358C45.1962 25.551 44.479 24.8338 43.5942 24.8338C42.7094 24.8338 41.9922 25.551 41.9922 26.4358C41.9922 27.3206 42.7094 28.0378 43.5942 28.0378C44.479 28.0378 45.1962 27.3206 45.1962 26.4358Z" fill="url(#paint9_linear_4_24182)"/>
<defs>
<filter id="filter0_f_4_24182" x="3.2625" y="3.2625" width="57.475" height="57.475" filterUnits="userSpaceOnUse" color-interpolation-filters="sRGB">
<feFlood flood-opacity="0" result="BackgroundImageFix"/>
<feBlend mode="normal" in="SourceGraphic" in2="BackgroundImageFix" result="shape"/>
<feGaussianBlur stdDeviation="0.61875" result="effect1_foregroundBlur_4_24182"/>
</filter>
<linearGradient id="paint0_linear_4_24182" x1="4.5" y1="32" x2="59.5" y2="32" gradientUnits="userSpaceOnUse">
<stop stop-color="#FDFC47"/>
<stop offset="1" stop-color="#24FE41"/>
</linearGradient>
<linearGradient id="paint1_linear_4_24182" x1="4.5" y1="32" x2="59.5" y2="32" gradientUnits="userSpaceOnUse">
<stop stop-color="#FDFC47"/>
<stop offset="1" stop-color="#24FE41"/>
</linearGradient>
<linearGradient id="paint2_linear_4_24182" x1="25.3555" y1="34.7068" x2="51.1759" y2="34.7068" gradientUnits="userSpaceOnUse">
<stop stop-color="#FDFC47"/>
<stop offset="1" stop-color="#24FE41"/>
</linearGradient>
<linearGradient id="paint3_linear_4_24182" x1="12.832" y1="31.1885" x2="49.7007" y2="31.1885" gradientUnits="userSpaceOnUse">
<stop stop-color="#FDFC47"/>
<stop offset="1" stop-color="#24FE41"/>
</linearGradient>
<linearGradient id="paint4_linear_4_24182" x1="22.2656" y1="26.4361" x2="25.6084" y2="26.4361" gradientUnits="userSpaceOnUse">
<stop stop-color="#FDFC47"/>
<stop offset="1" stop-color="#24FE41"/>
</linearGradient>
<linearGradient id="paint5_linear_4_24182" x1="23.9378" y1="28.1072" x2="23.9378" y2="24.7645" gradientUnits="userSpaceOnUse">
<stop stop-color="#FDFC47"/>
<stop offset="1" stop-color="#24FE41"/>
</linearGradient>
<linearGradient id="paint6_linear_4_24182" x1="39.082" y1="23.5248" x2="42.2861" y2="23.5248" gradientUnits="userSpaceOnUse">
<stop stop-color="#FDFC47"/>
<stop offset="1" stop-color="#24FE41"/>
</linearGradient>
<linearGradient id="paint7_linear_4_24182" x1="39.082" y1="29.3472" x2="42.2861" y2="29.3472" gradientUnits="userSpaceOnUse">
<stop stop-color="#FDFC47"/>
<stop offset="1" stop-color="#24FE41"/>
</linearGradient>
<linearGradient id="paint8_linear_4_24182" x1="37.7739" y1="28.0378" x2="37.7739" y2="24.8338" gradientUnits="userSpaceOnUse">
<stop stop-color="#FDFC47"/>
<stop offset="1" stop-color="#24FE41"/>
</linearGradient>
<linearGradient id="paint9_linear_4_24182" x1="43.5942" y1="28.0378" x2="43.5942" y2="24.8338" gradientUnits="userSpaceOnUse">
<stop stop-color="#FDFC47"/>
<stop offset="1" stop-color="#24FE41"/>
</linearGradient>
</defs>
</svg>
