<svg width="64" height="64" viewBox="0 0 64 64" fill="none" xmlns="http://www.w3.org/2000/svg">
<g opacity="0.3" filter="url(#filter0_f_4_24334)">
<path d="M44.5003 4.50003H19.5001C11.2158 4.50003 4.5 11.2158 4.5 19.5001V44.5003C4.5 52.7846 11.2158 59.5004 19.5001 59.5004H44.5003C52.7846 59.5004 59.5004 52.7846 59.5004 44.5003V19.5001C59.5004 11.2158 52.7846 4.50003 44.5003 4.50003Z" fill="#232323"/>
<path d="M19.5001 5.00003H44.5003C52.5085 5.00003 59.0004 11.4919 59.0004 19.5001V44.5003C59.0004 52.5085 52.5085 59.0004 44.5003 59.0004H19.5001C11.4919 59.0004 5 52.5085 5 44.5003V19.5001C5 11.4919 11.4919 5.00003 19.5001 5.00003Z" stroke="url(#paint0_linear_4_24334)"/>
</g>
<path d="M19.5001 5H44.5007C52.5089 5 59.0008 11.4919 59.0008 19.5001V44.5007C59.0008 52.5089 52.5089 59.0008 44.5007 59.0008H19.5001C11.4919 59.0008 5 52.5089 5 44.5007V19.5001C5 11.4919 11.4919 5 19.5001 5Z" fill="#232323" stroke="url(#paint1_linear_4_24334)"/>
<g opacity="0.4">
<mask id="path-4-inside-1_4_24334" fill="white">
<path d="M19.5023 4.5C17.7177 4.5 16.0149 4.82379 14.4301 5.39063C16.0193 6.85775 15.8642 7.45342 15.4809 7.61723C15.4319 7.63691 13.4194 6.80337 12.2484 6.36134C7.62367 8.91087 4.5021 13.8257 4.5021 19.5004V19.6566C4.57326 19.6561 4.64725 19.6533 4.66226 19.6527C4.98922 19.6466 5.45957 19.7419 5.77362 19.809C6.06338 19.8686 6.29822 20.0616 6.54904 20.0805C7.26078 20.135 7.43135 19.5819 8.01197 19.2719C8.61202 19.3557 9.00933 19.1683 9.55106 19.2289C9.92037 19.2708 10.1871 19.6657 10.4749 19.6879C10.717 19.7115 10.9302 19.4607 11.1644 19.4965C11.392 19.5323 11.7856 20.0269 11.8226 20.3051C11.8706 20.6513 11.5684 20.9639 11.6683 21.3442C12.031 21.7135 12.6893 21.7877 13.2074 22.0004C13.5449 21.7223 13.2528 21.2076 13.2074 20.8051C13.2013 20.6273 13.231 20.4684 13.2074 20.3051C13.1775 20.0278 13.0588 19.7748 13.057 19.5375C13.0509 18.4417 13.9392 17.9291 14.6742 17.4964C14.9924 17.3078 15.2439 16.9762 15.5199 16.8382C15.9099 16.6429 16.2011 16.5977 16.5239 16.4163C17.1073 16.0886 17.6067 15.8267 18.063 15.4554C18.2735 14.9585 18.0831 14.2921 18.102 13.801C18.3127 13.6718 18.4936 13.8554 18.7173 13.8381C19.0692 13.7655 19.0998 13.2689 19.2993 13.0705C19.4151 12.9564 19.7315 12.8753 19.8755 12.7619C20.2263 12.4868 20.3405 12.072 20.647 11.9533C20.7571 11.9082 21.0108 11.923 21.1841 11.8752C21.4121 11.8146 21.7367 11.5455 22.108 11.4182C22.35 11.3344 22.9043 11.3164 22.9967 11.2248C23.1108 11.1086 22.9949 10.7815 23.0358 10.6076C23.2225 9.73834 24.5333 9.55461 25.3073 9.26188C25.8498 9.05732 26.4065 8.67948 27.0026 8.79506C26.8857 9.20821 26.3304 9.06286 26.4245 9.56462C26.5543 10.2608 27.4852 9.36523 27.7312 9.26188C28.2009 9.06434 29.0074 8.94257 29.6238 8.7189C30.1644 8.52136 31.1333 8.21992 30.6238 7.60169C30.1988 7.57811 29.9942 8.09962 29.6238 8.25795C29.368 8.30006 29.4169 8.04399 29.198 8.02356C28.9912 7.99998 28.8741 8.2151 28.6609 8.17786C28.4491 8.14288 28.153 7.81039 28.1199 7.56262C28.0361 6.91978 28.6622 6.6554 28.9285 6.17588C28.7517 5.5945 27.9478 6.05563 27.4617 5.82822C27.5095 5.482 27.8678 5.24397 28.2722 5.17783C28.6037 5.12208 29.3463 5.15152 29.5437 5.32627C29.6583 5.42494 29.5518 5.66676 29.7371 5.82824C29.9332 6.00604 30.1758 5.98611 30.4305 5.94543C30.521 5.50661 29.8604 5.61644 29.9324 5.32629C30.4526 4.98601 31.2975 5.26557 31.9344 5.17199C32.3009 5.11747 32.6856 4.85866 33.0106 4.67588C33.1108 4.61882 33.2286 4.55976 33.3426 4.50009L19.5023 4.5ZM34.0473 4.5C34.1129 4.79864 33.7595 4.9037 33.5883 5.05666C32.9992 5.58081 32.3919 6.18234 31.934 6.79108C32.2149 7.06516 32.7261 6.92708 33.2016 6.98445C33.3876 7.00803 33.6203 7.06327 33.8168 7.09968C34.0469 7.14179 34.2914 7.12826 34.4712 7.17586C34.7947 7.25438 34.8813 7.5997 35.2017 7.5997C35.7285 7.59876 35.7347 7.02989 35.436 6.67389C35.5302 6.31046 35.6781 6.1218 35.5513 5.86724C35.3139 5.3926 34.4436 5.8443 34.3989 5.252C34.3717 4.86803 34.7207 4.88487 34.8599 4.59768C34.8568 4.56143 34.8636 4.53312 34.8636 4.50002L34.0473 4.5ZM16.4434 8.03914H16.4473C16.627 8.06273 16.8435 8.25684 17.0606 8.27352C17.2652 8.27961 17.4341 8.16 17.5606 8.1954C17.8826 8.27942 18.0185 8.76763 17.7149 9.00597C17.4632 9.03628 17.3656 8.89521 17.1758 8.9298C16.6529 9.01748 16.4515 10.0419 16.0606 10.0079C15.692 9.97845 15.4942 9.07799 15.8692 8.81062C15.8928 8.57709 15.698 8.54132 15.711 8.31062C15.8223 8.16903 16.1371 8.01443 16.4434 8.03914ZM14.709 8.16024C14.8162 8.16432 14.8962 8.18923 14.9376 8.23641C14.8861 8.64688 14.5651 8.61936 14.2481 8.81065C13.7005 9.14108 13.3852 9.6439 13.211 10.3497C13.1601 10.5543 12.62 11.0995 12.3594 11.0451C11.7487 10.9165 12.5297 9.79036 12.668 9.61926C12.8228 9.42965 13.0294 9.26399 13.2109 9.04502C13.3869 8.83308 13.5022 8.5474 13.6719 8.42978C13.8579 8.3012 14.3873 8.14779 14.709 8.16024ZM19.2676 9.54505C19.4629 9.54913 19.6385 9.58095 19.7188 9.66028C19.5933 10.1688 18.4983 10.0338 18.0977 9.84974C18.1213 9.6581 18.4218 9.60521 18.6739 9.5802C18.8517 9.57411 19.0724 9.53853 19.2676 9.54505ZM16.7734 10.4826C16.9032 10.4785 17.037 10.5055 17.1738 10.5431C16.8194 10.8396 16.4347 11.0087 15.8261 11.2013C15.5335 11.2927 15.0281 11.4073 14.9784 11.0802C14.9178 10.6797 15.4066 10.7723 15.6738 10.7365C16.0102 10.6893 16.3792 10.4953 16.7734 10.4826ZM55.0192 12.7658C54.9732 12.8758 54.9401 12.9833 54.945 13.0881C54.9684 13.2741 55.173 13.452 55.2184 13.7034C55.2419 13.8368 55.1559 14.1248 55.2184 14.2463C55.404 14.6059 55.8889 14.3491 56.236 14.3674C55.8417 13.8244 55.4483 13.2802 55.0192 12.7658ZM56.988 15.4143C56.9321 15.6795 56.7506 16.0252 56.6052 16.2464C56.2695 16.7569 55.815 16.7808 55.3337 17.053C54.9324 17.2806 54.7585 17.6592 54.5231 18.055C54.2681 18.4825 54.1095 18.7422 54.2145 19.3617C53.8704 20.0442 53.3511 20.4608 52.6383 20.7855C52.4278 20.8807 52.1384 20.9179 51.945 21.057C51.7915 21.1683 51.7029 21.4635 51.484 21.7094C51.214 22.0099 50.9326 22.138 50.7906 22.3676C50.6806 22.5454 50.6418 22.8971 50.5191 23.1352C50.3539 23.4586 50.0046 23.6181 49.7886 23.9457C49.6902 24.0967 49.6249 24.4036 49.5172 24.602C49.2731 25.0453 48.8552 25.3644 48.9 25.7544C48.9452 26.1313 49.3728 26.1973 49.4019 26.5259C49.408 26.7116 49.2792 26.8255 49.2867 27.0278C49.2927 27.3233 49.492 27.5309 49.5152 27.7583C49.5728 28.33 49.3224 28.5569 49.2144 28.9478C49.1629 29.1345 49.1861 29.3449 49.1363 29.4908C49.0401 29.7769 48.6423 30.0353 48.6343 30.3736C48.6302 30.6141 48.8817 30.8075 48.9019 31.1451C48.908 31.3781 48.7854 31.6264 48.8277 31.8404C48.9089 32.2594 49.6582 32.7474 49.9839 33.0729C50.4195 33.5086 50.9895 33.8462 51.1773 34.3053C51.3348 34.6952 51.3338 35.2009 51.6383 35.4948C51.8629 35.7117 52.2353 35.8474 52.523 36.0729C52.7915 36.2832 53.0839 36.4648 53.3707 36.6882C53.8394 37.055 54.5499 37.7856 55.2966 37.7292C55.6865 37.7024 56.0847 37.384 56.527 37.3054C56.9821 37.2246 57.5739 37.181 58.0329 37.2292C58.3846 37.2644 58.7455 37.4746 59.1111 37.4577C59.2357 37.4502 59.3673 37.4105 59.5017 37.3601V20.0922C58.794 18.4549 57.962 16.8849 56.988 15.4143ZM7.31647 25.5006L7.31452 25.5065C6.67478 25.542 6.25434 25.5703 5.89067 25.7349C5.10115 26.0942 5.19537 27.1162 4.5 27.4498V31.0456C4.53955 31.0524 4.57758 31.0565 4.61719 31.0652C4.81575 31.1104 4.96832 31.1954 5.16017 31.2606C5.56757 31.3983 6.06678 31.3808 6.39262 31.5262C6.88344 31.7441 7.24201 32.668 7.66412 32.9149C7.6877 33.1637 7.61664 33.4971 7.70513 33.6825C7.90389 33.9531 8.18522 33.8926 8.51374 34.0692C8.90686 34.2812 9.02607 34.8297 9.39851 34.997C9.52688 35.0543 9.8496 35.0458 10.0528 35.1083C10.5632 35.2621 10.7305 35.8546 11.1681 35.7255C11.455 35.6417 11.4321 35.3455 11.4786 35.0712C11.6682 34.8666 11.8764 34.5399 12.172 34.534C12.6505 34.5106 12.6914 35.0284 12.8654 35.493C12.9642 35.7557 13.2221 35.9836 13.2892 36.2606C13.4086 36.7391 13.3484 38.172 13.2462 38.458C13.1256 38.8088 12.6505 38.9576 12.3575 39.3466C12.2198 39.5294 12.1537 39.7966 12.0489 39.9248C11.8604 40.1546 11.5807 40.2149 11.4396 40.4267C11.3604 40.5462 11.2829 40.8026 11.2052 40.9639C10.9739 41.4539 10.665 41.7995 10.8595 42.3877C10.9402 42.6298 11.3175 42.7923 11.3185 43.0772C11.3196 43.4125 10.6062 43.7136 10.5509 44.0811C10.5088 44.3547 10.7725 44.8425 10.8595 45.1983C10.9231 45.4673 11.4314 45.6347 11.59 45.8136C11.8602 46.1171 12.0755 46.5477 12.3224 46.9288C12.8106 47.6786 13.1927 48.5931 13.6681 49.3195C13.9193 49.7 14.2723 50.0418 14.4396 50.4367C14.5245 50.6355 14.5136 50.8729 14.592 51.052C14.8671 51.6731 16.082 52.3218 16.7092 52.6301C17.0027 52.7723 17.3285 52.8241 17.5979 52.9739C18.006 53.2015 18.8137 53.8133 19.0198 54.1712C19.2037 54.4928 19.3172 55.275 19.4065 55.7864C19.5261 56.4624 19.4097 56.9822 19.4475 57.7142C19.4711 58.1101 19.5969 58.5068 19.6018 58.9037C19.6033 59.0422 19.5292 59.1466 19.5237 59.2885C19.5235 59.3104 19.5315 59.338 19.5315 59.3607C19.6407 59.4102 19.7536 59.4531 19.8635 59.5014H34.7582C34.7642 59.4355 34.7554 59.3725 34.7737 59.3041C34.9578 58.6127 35.9142 58.1903 36.5843 57.8783C36.8145 57.7711 37.049 57.5978 37.2366 57.5326C37.7003 57.371 38.2796 57.4597 38.7034 57.3041C39.425 57.04 39.5 56.2661 39.8558 55.6087C40.0244 55.2976 40.2467 54.9846 40.2796 54.763C40.3076 54.5642 40.2058 54.377 40.2367 54.1419C40.2707 53.9094 40.4808 53.708 40.5453 53.4524C40.6291 53.1189 40.6664 52.6305 40.6664 52.2591C40.6664 51.954 40.5233 51.6865 40.5121 51.4114C40.4617 50.4125 40.873 50.3007 41.2426 49.757C41.4281 49.4871 41.4979 49.1791 41.6273 48.9855C42.2478 48.06 43.3243 47.6132 43.2465 46.214C43.2231 45.751 42.929 44.7035 42.5883 44.5558C42.3936 44.4718 41.9464 44.5497 41.6645 44.4405C40.7543 44.1011 40.2208 42.9736 39.2777 42.9014C39.0769 42.878 38.8911 42.9832 38.6644 42.9796C38.2911 42.9561 37.7279 42.7176 37.3148 42.671C37.0521 42.6441 36.7009 42.7485 36.5433 42.671C36.3031 42.5538 36.2799 42.1117 36.0843 41.9795C35.9303 41.8717 35.6262 41.8372 35.3909 41.7451C35.0117 41.6009 34.7112 41.4299 34.2737 41.3994C34.139 41.3934 33.97 41.4624 33.8127 41.4404C33.5707 41.3983 33.3798 41.1135 33.1565 40.9776C32.8766 40.8064 32.6178 40.7243 32.5022 40.4814C32.755 39.6521 32.057 39.4216 31.8869 38.9423C31.8061 38.7178 31.8422 38.4473 31.7717 38.247C31.6702 37.96 31.3874 37.795 31.0764 37.5556C30.5192 37.1267 30.025 36.7241 29.2287 36.6259C28.8786 36.5807 28.5306 36.7315 28.1076 36.704C27.6594 36.6772 27.097 36.2825 26.7618 35.8993C26.4358 35.5252 26.2782 35.1894 25.9942 35.0106C25.7253 34.8375 25.3673 34.8429 25.1837 34.6688C25.1021 34.5927 25.1175 34.4608 25.0294 34.2801C24.8945 34.0001 24.6667 33.8442 24.836 33.5086C24.5291 33.3508 24.5194 33.8013 24.1836 33.743C23.8842 33.3183 23.6328 33.1185 22.9531 33.243C22.6419 33.3006 22.4681 33.6922 22.1055 33.702C21.808 33.7254 21.5744 33.3711 21.1816 33.3153C20.8851 33.2732 20.5469 33.3943 20.3359 33.3563C20.0073 33.2908 19.9057 33.0186 19.6054 32.8211C19.3853 32.6771 18.9573 32.4285 18.8339 32.4324C18.4468 32.4559 18.1723 33.2562 17.6386 32.9734C17.3791 32.6446 18.0612 32.4705 17.7538 32.1629C17.5206 31.9296 17.3232 32.2693 17.1366 32.3972C16.9227 32.5441 16.7225 32.6926 16.4862 32.7801C15.9572 32.9776 15.6261 32.8736 15.2127 33.0867C14.83 33.2845 14.8143 33.6167 14.5975 34.0106C14.4197 34.3333 14.0163 34.8036 13.7498 34.8231C13.4271 34.8465 13.1187 34.3715 12.826 34.2449C11.9441 33.8629 11.5171 34.5848 10.7849 34.5946C10.1053 34.618 9.13355 33.4971 9.16768 32.8582C9.17377 32.4684 9.3936 31.8777 9.43917 31.3953C9.48128 31.0117 9.74134 30.7806 9.74582 30.4304C9.75204 29.9627 9.1257 29.6031 8.82208 29.5475C8.10267 29.4155 7.10361 29.8361 6.27905 29.5045C6.122 29.2436 6.46453 29.063 6.5525 28.8092C6.60316 28.6655 6.57208 28.4719 6.62477 28.3131C6.7153 28.0678 6.97472 27.8795 7.08962 27.6197C7.17425 27.422 7.19579 27.1352 7.28103 26.8892C7.38336 26.6092 7.56784 26.4274 7.58963 26.231C7.61628 25.9716 7.51995 25.6715 7.31647 25.5006ZM17.6095 33.6588C17.8678 33.686 17.9013 34.221 17.6349 34.2643C17.3469 34.3097 17.2002 33.8116 17.4806 33.6823C17.5282 33.6588 17.5724 33.6573 17.6095 33.6588Z"/>
</mask>
<path d="M19.5023 4.5C17.7177 4.5 16.0149 4.82379 14.4301 5.39063C16.0193 6.85775 15.8642 7.45342 15.4809 7.61723C15.4319 7.63691 13.4194 6.80337 12.2484 6.36134C7.62367 8.91087 4.5021 13.8257 4.5021 19.5004V19.6566C4.57326 19.6561 4.64725 19.6533 4.66226 19.6527C4.98922 19.6466 5.45957 19.7419 5.77362 19.809C6.06338 19.8686 6.29822 20.0616 6.54904 20.0805C7.26078 20.135 7.43135 19.5819 8.01197 19.2719C8.61202 19.3557 9.00933 19.1683 9.55106 19.2289C9.92037 19.2708 10.1871 19.6657 10.4749 19.6879C10.717 19.7115 10.9302 19.4607 11.1644 19.4965C11.392 19.5323 11.7856 20.0269 11.8226 20.3051C11.8706 20.6513 11.5684 20.9639 11.6683 21.3442C12.031 21.7135 12.6893 21.7877 13.2074 22.0004C13.5449 21.7223 13.2528 21.2076 13.2074 20.8051C13.2013 20.6273 13.231 20.4684 13.2074 20.3051C13.1775 20.0278 13.0588 19.7748 13.057 19.5375C13.0509 18.4417 13.9392 17.9291 14.6742 17.4964C14.9924 17.3078 15.2439 16.9762 15.5199 16.8382C15.9099 16.6429 16.2011 16.5977 16.5239 16.4163C17.1073 16.0886 17.6067 15.8267 18.063 15.4554C18.2735 14.9585 18.0831 14.2921 18.102 13.801C18.3127 13.6718 18.4936 13.8554 18.7173 13.8381C19.0692 13.7655 19.0998 13.2689 19.2993 13.0705C19.4151 12.9564 19.7315 12.8753 19.8755 12.7619C20.2263 12.4868 20.3405 12.072 20.647 11.9533C20.7571 11.9082 21.0108 11.923 21.1841 11.8752C21.4121 11.8146 21.7367 11.5455 22.108 11.4182C22.35 11.3344 22.9043 11.3164 22.9967 11.2248C23.1108 11.1086 22.9949 10.7815 23.0358 10.6076C23.2225 9.73834 24.5333 9.55461 25.3073 9.26188C25.8498 9.05732 26.4065 8.67948 27.0026 8.79506C26.8857 9.20821 26.3304 9.06286 26.4245 9.56462C26.5543 10.2608 27.4852 9.36523 27.7312 9.26188C28.2009 9.06434 29.0074 8.94257 29.6238 8.7189C30.1644 8.52136 31.1333 8.21992 30.6238 7.60169C30.1988 7.57811 29.9942 8.09962 29.6238 8.25795C29.368 8.30006 29.4169 8.04399 29.198 8.02356C28.9912 7.99998 28.8741 8.2151 28.6609 8.17786C28.4491 8.14288 28.153 7.81039 28.1199 7.56262C28.0361 6.91978 28.6622 6.6554 28.9285 6.17588C28.7517 5.5945 27.9478 6.05563 27.4617 5.82822C27.5095 5.482 27.8678 5.24397 28.2722 5.17783C28.6037 5.12208 29.3463 5.15152 29.5437 5.32627C29.6583 5.42494 29.5518 5.66676 29.7371 5.82824C29.9332 6.00604 30.1758 5.98611 30.4305 5.94543C30.521 5.50661 29.8604 5.61644 29.9324 5.32629C30.4526 4.98601 31.2975 5.26557 31.9344 5.17199C32.3009 5.11747 32.6856 4.85866 33.0106 4.67588C33.1108 4.61882 33.2286 4.55976 33.3426 4.50009L19.5023 4.5ZM34.0473 4.5C34.1129 4.79864 33.7595 4.9037 33.5883 5.05666C32.9992 5.58081 32.3919 6.18234 31.934 6.79108C32.2149 7.06516 32.7261 6.92708 33.2016 6.98445C33.3876 7.00803 33.6203 7.06327 33.8168 7.09968C34.0469 7.14179 34.2914 7.12826 34.4712 7.17586C34.7947 7.25438 34.8813 7.5997 35.2017 7.5997C35.7285 7.59876 35.7347 7.02989 35.436 6.67389C35.5302 6.31046 35.6781 6.1218 35.5513 5.86724C35.3139 5.3926 34.4436 5.8443 34.3989 5.252C34.3717 4.86803 34.7207 4.88487 34.8599 4.59768C34.8568 4.56143 34.8636 4.53312 34.8636 4.50002L34.0473 4.5ZM16.4434 8.03914H16.4473C16.627 8.06273 16.8435 8.25684 17.0606 8.27352C17.2652 8.27961 17.4341 8.16 17.5606 8.1954C17.8826 8.27942 18.0185 8.76763 17.7149 9.00597C17.4632 9.03628 17.3656 8.89521 17.1758 8.9298C16.6529 9.01748 16.4515 10.0419 16.0606 10.0079C15.692 9.97845 15.4942 9.07799 15.8692 8.81062C15.8928 8.57709 15.698 8.54132 15.711 8.31062C15.8223 8.16903 16.1371 8.01443 16.4434 8.03914ZM14.709 8.16024C14.8162 8.16432 14.8962 8.18923 14.9376 8.23641C14.8861 8.64688 14.5651 8.61936 14.2481 8.81065C13.7005 9.14108 13.3852 9.6439 13.211 10.3497C13.1601 10.5543 12.62 11.0995 12.3594 11.0451C11.7487 10.9165 12.5297 9.79036 12.668 9.61926C12.8228 9.42965 13.0294 9.26399 13.2109 9.04502C13.3869 8.83308 13.5022 8.5474 13.6719 8.42978C13.8579 8.3012 14.3873 8.14779 14.709 8.16024ZM19.2676 9.54505C19.4629 9.54913 19.6385 9.58095 19.7188 9.66028C19.5933 10.1688 18.4983 10.0338 18.0977 9.84974C18.1213 9.6581 18.4218 9.60521 18.6739 9.5802C18.8517 9.57411 19.0724 9.53853 19.2676 9.54505ZM16.7734 10.4826C16.9032 10.4785 17.037 10.5055 17.1738 10.5431C16.8194 10.8396 16.4347 11.0087 15.8261 11.2013C15.5335 11.2927 15.0281 11.4073 14.9784 11.0802C14.9178 10.6797 15.4066 10.7723 15.6738 10.7365C16.0102 10.6893 16.3792 10.4953 16.7734 10.4826ZM55.0192 12.7658C54.9732 12.8758 54.9401 12.9833 54.945 13.0881C54.9684 13.2741 55.173 13.452 55.2184 13.7034C55.2419 13.8368 55.1559 14.1248 55.2184 14.2463C55.404 14.6059 55.8889 14.3491 56.236 14.3674C55.8417 13.8244 55.4483 13.2802 55.0192 12.7658ZM56.988 15.4143C56.9321 15.6795 56.7506 16.0252 56.6052 16.2464C56.2695 16.7569 55.815 16.7808 55.3337 17.053C54.9324 17.2806 54.7585 17.6592 54.5231 18.055C54.2681 18.4825 54.1095 18.7422 54.2145 19.3617C53.8704 20.0442 53.3511 20.4608 52.6383 20.7855C52.4278 20.8807 52.1384 20.9179 51.945 21.057C51.7915 21.1683 51.7029 21.4635 51.484 21.7094C51.214 22.0099 50.9326 22.138 50.7906 22.3676C50.6806 22.5454 50.6418 22.8971 50.5191 23.1352C50.3539 23.4586 50.0046 23.6181 49.7886 23.9457C49.6902 24.0967 49.6249 24.4036 49.5172 24.602C49.2731 25.0453 48.8552 25.3644 48.9 25.7544C48.9452 26.1313 49.3728 26.1973 49.4019 26.5259C49.408 26.7116 49.2792 26.8255 49.2867 27.0278C49.2927 27.3233 49.492 27.5309 49.5152 27.7583C49.5728 28.33 49.3224 28.5569 49.2144 28.9478C49.1629 29.1345 49.1861 29.3449 49.1363 29.4908C49.0401 29.7769 48.6423 30.0353 48.6343 30.3736C48.6302 30.6141 48.8817 30.8075 48.9019 31.1451C48.908 31.3781 48.7854 31.6264 48.8277 31.8404C48.9089 32.2594 49.6582 32.7474 49.9839 33.0729C50.4195 33.5086 50.9895 33.8462 51.1773 34.3053C51.3348 34.6952 51.3338 35.2009 51.6383 35.4948C51.8629 35.7117 52.2353 35.8474 52.523 36.0729C52.7915 36.2832 53.0839 36.4648 53.3707 36.6882C53.8394 37.055 54.5499 37.7856 55.2966 37.7292C55.6865 37.7024 56.0847 37.384 56.527 37.3054C56.9821 37.2246 57.5739 37.181 58.0329 37.2292C58.3846 37.2644 58.7455 37.4746 59.1111 37.4577C59.2357 37.4502 59.3673 37.4105 59.5017 37.3601V20.0922C58.794 18.4549 57.962 16.8849 56.988 15.4143ZM7.31647 25.5006L7.31452 25.5065C6.67478 25.542 6.25434 25.5703 5.89067 25.7349C5.10115 26.0942 5.19537 27.1162 4.5 27.4498V31.0456C4.53955 31.0524 4.57758 31.0565 4.61719 31.0652C4.81575 31.1104 4.96832 31.1954 5.16017 31.2606C5.56757 31.3983 6.06678 31.3808 6.39262 31.5262C6.88344 31.7441 7.24201 32.668 7.66412 32.9149C7.6877 33.1637 7.61664 33.4971 7.70513 33.6825C7.90389 33.9531 8.18522 33.8926 8.51374 34.0692C8.90686 34.2812 9.02607 34.8297 9.39851 34.997C9.52688 35.0543 9.8496 35.0458 10.0528 35.1083C10.5632 35.2621 10.7305 35.8546 11.1681 35.7255C11.455 35.6417 11.4321 35.3455 11.4786 35.0712C11.6682 34.8666 11.8764 34.5399 12.172 34.534C12.6505 34.5106 12.6914 35.0284 12.8654 35.493C12.9642 35.7557 13.2221 35.9836 13.2892 36.2606C13.4086 36.7391 13.3484 38.172 13.2462 38.458C13.1256 38.8088 12.6505 38.9576 12.3575 39.3466C12.2198 39.5294 12.1537 39.7966 12.0489 39.9248C11.8604 40.1546 11.5807 40.2149 11.4396 40.4267C11.3604 40.5462 11.2829 40.8026 11.2052 40.9639C10.9739 41.4539 10.665 41.7995 10.8595 42.3877C10.9402 42.6298 11.3175 42.7923 11.3185 43.0772C11.3196 43.4125 10.6062 43.7136 10.5509 44.0811C10.5088 44.3547 10.7725 44.8425 10.8595 45.1983C10.9231 45.4673 11.4314 45.6347 11.59 45.8136C11.8602 46.1171 12.0755 46.5477 12.3224 46.9288C12.8106 47.6786 13.1927 48.5931 13.6681 49.3195C13.9193 49.7 14.2723 50.0418 14.4396 50.4367C14.5245 50.6355 14.5136 50.8729 14.592 51.052C14.8671 51.6731 16.082 52.3218 16.7092 52.6301C17.0027 52.7723 17.3285 52.8241 17.5979 52.9739C18.006 53.2015 18.8137 53.8133 19.0198 54.1712C19.2037 54.4928 19.3172 55.275 19.4065 55.7864C19.5261 56.4624 19.4097 56.9822 19.4475 57.7142C19.4711 58.1101 19.5969 58.5068 19.6018 58.9037C19.6033 59.0422 19.5292 59.1466 19.5237 59.2885C19.5235 59.3104 19.5315 59.338 19.5315 59.3607C19.6407 59.4102 19.7536 59.4531 19.8635 59.5014H34.7582C34.7642 59.4355 34.7554 59.3725 34.7737 59.3041C34.9578 58.6127 35.9142 58.1903 36.5843 57.8783C36.8145 57.7711 37.049 57.5978 37.2366 57.5326C37.7003 57.371 38.2796 57.4597 38.7034 57.3041C39.425 57.04 39.5 56.2661 39.8558 55.6087C40.0244 55.2976 40.2467 54.9846 40.2796 54.763C40.3076 54.5642 40.2058 54.377 40.2367 54.1419C40.2707 53.9094 40.4808 53.708 40.5453 53.4524C40.6291 53.1189 40.6664 52.6305 40.6664 52.2591C40.6664 51.954 40.5233 51.6865 40.5121 51.4114C40.4617 50.4125 40.873 50.3007 41.2426 49.757C41.4281 49.4871 41.4979 49.1791 41.6273 48.9855C42.2478 48.06 43.3243 47.6132 43.2465 46.214C43.2231 45.751 42.929 44.7035 42.5883 44.5558C42.3936 44.4718 41.9464 44.5497 41.6645 44.4405C40.7543 44.1011 40.2208 42.9736 39.2777 42.9014C39.0769 42.878 38.8911 42.9832 38.6644 42.9796C38.2911 42.9561 37.7279 42.7176 37.3148 42.671C37.0521 42.6441 36.7009 42.7485 36.5433 42.671C36.3031 42.5538 36.2799 42.1117 36.0843 41.9795C35.9303 41.8717 35.6262 41.8372 35.3909 41.7451C35.0117 41.6009 34.7112 41.4299 34.2737 41.3994C34.139 41.3934 33.97 41.4624 33.8127 41.4404C33.5707 41.3983 33.3798 41.1135 33.1565 40.9776C32.8766 40.8064 32.6178 40.7243 32.5022 40.4814C32.755 39.6521 32.057 39.4216 31.8869 38.9423C31.8061 38.7178 31.8422 38.4473 31.7717 38.247C31.6702 37.96 31.3874 37.795 31.0764 37.5556C30.5192 37.1267 30.025 36.7241 29.2287 36.6259C28.8786 36.5807 28.5306 36.7315 28.1076 36.704C27.6594 36.6772 27.097 36.2825 26.7618 35.8993C26.4358 35.5252 26.2782 35.1894 25.9942 35.0106C25.7253 34.8375 25.3673 34.8429 25.1837 34.6688C25.1021 34.5927 25.1175 34.4608 25.0294 34.2801C24.8945 34.0001 24.6667 33.8442 24.836 33.5086C24.5291 33.3508 24.5194 33.8013 24.1836 33.743C23.8842 33.3183 23.6328 33.1185 22.9531 33.243C22.6419 33.3006 22.4681 33.6922 22.1055 33.702C21.808 33.7254 21.5744 33.3711 21.1816 33.3153C20.8851 33.2732 20.5469 33.3943 20.3359 33.3563C20.0073 33.2908 19.9057 33.0186 19.6054 32.8211C19.3853 32.6771 18.9573 32.4285 18.8339 32.4324C18.4468 32.4559 18.1723 33.2562 17.6386 32.9734C17.3791 32.6446 18.0612 32.4705 17.7538 32.1629C17.5206 31.9296 17.3232 32.2693 17.1366 32.3972C16.9227 32.5441 16.7225 32.6926 16.4862 32.7801C15.9572 32.9776 15.6261 32.8736 15.2127 33.0867C14.83 33.2845 14.8143 33.6167 14.5975 34.0106C14.4197 34.3333 14.0163 34.8036 13.7498 34.8231C13.4271 34.8465 13.1187 34.3715 12.826 34.2449C11.9441 33.8629 11.5171 34.5848 10.7849 34.5946C10.1053 34.618 9.13355 33.4971 9.16768 32.8582C9.17377 32.4684 9.3936 31.8777 9.43917 31.3953C9.48128 31.0117 9.74134 30.7806 9.74582 30.4304C9.75204 29.9627 9.1257 29.6031 8.82208 29.5475C8.10267 29.4155 7.10361 29.8361 6.27905 29.5045C6.122 29.2436 6.46453 29.063 6.5525 28.8092C6.60316 28.6655 6.57208 28.4719 6.62477 28.3131C6.7153 28.0678 6.97472 27.8795 7.08962 27.6197C7.17425 27.422 7.19579 27.1352 7.28103 26.8892C7.38336 26.6092 7.56784 26.4274 7.58963 26.231C7.61628 25.9716 7.51995 25.6715 7.31647 25.5006ZM17.6095 33.6588C17.8678 33.686 17.9013 34.221 17.6349 34.2643C17.3469 34.3097 17.2002 33.8116 17.4806 33.6823C17.5282 33.6588 17.5724 33.6573 17.6095 33.6588Z" fill="url(#paint2_linear_4_24334)" stroke="url(#paint3_linear_4_24334)" stroke-width="2" mask="url(#path-4-inside-1_4_24334)"/>
</g>
<path d="M27.2138 36.7639C25.6756 35.2272 25.0504 33.1448 25.307 31.1415L29.0692 34.9037L29.4228 35.2573L29.7763 34.9037L34.9098 29.7703L35.2633 29.4168L34.9099 29.0632L31.1498 25.3015C33.1533 25.046 35.2354 25.671 36.7701 27.206L36.7702 27.2061C38.5343 28.9702 39.0965 31.4569 38.4999 33.716L38.4266 33.9937L38.6295 34.197L48.7392 44.321L48.7406 44.3224C49.9676 45.5415 49.9676 47.5264 48.7505 48.7454C48.1628 49.3312 47.3668 49.6601 46.537 49.6601C45.7072 49.6601 44.9111 49.3311 44.3234 48.7453C44.3234 48.7452 44.3233 48.7452 44.3233 48.7452L34.2052 38.6236L34.0019 38.4203L33.724 38.4937C31.4628 39.0903 28.9778 38.5281 27.214 36.7641L27.2138 36.7639ZM27.5232 45.4545L27.4433 45.2676L27.2557 45.1894C27.0134 45.0885 26.8343 45.0155 26.6585 44.9439C26.4708 44.8673 26.287 44.7924 26.0341 44.6867L25.8455 44.6079L25.6557 44.6838L21.411 46.381L17.6157 42.5873L19.3142 38.3502L19.3904 38.1603L19.3115 37.9715C19.1426 37.5669 18.9755 37.1615 18.8103 36.7554L18.733 36.5655L18.5448 36.4845L14.3438 34.677V29.3107L18.5438 27.5137L18.7309 27.4337L18.8089 27.2458L18.8145 27.2323C18.9814 26.8303 19.1492 26.4262 19.3134 26.0219L19.3893 25.835L19.3142 25.6477L17.6156 21.4105L21.4108 17.6153L25.6461 19.3139L25.8387 19.3911L26.0294 19.3093C26.4997 19.1075 26.7783 18.9924 27.2512 18.7986L27.4405 18.721L27.5211 18.5329L29.318 14.3416H34.6836L36.4787 18.5328L36.5575 18.717L36.7418 18.7957C37.2208 19.0005 37.5048 19.1177 37.9799 19.3125L38.1675 19.3893L38.3556 19.3139L42.5909 17.6153L46.3861 21.4105L44.6875 25.6477L44.6101 25.8407L44.6923 26.0316C44.8939 26.4994 45.0087 26.7792 45.2028 27.2528L45.2803 27.442L45.4682 27.5226L49.6579 29.3212V34.6858L46.8633 35.8859L43.3453 32.3679C43.3988 30.8494 43.1486 29.3348 42.6083 27.913C42.0414 26.421 41.1678 25.0646 40.0439 23.9313L40.0436 23.931C38.994 22.8743 37.7447 22.0371 36.3683 21.468C34.9923 20.8991 33.5169 20.6095 32.028 20.6163C31.0341 20.6164 30.044 20.7495 29.0839 21.0012L29.0832 21.0014C27.1438 21.513 25.3747 22.5298 23.9564 23.9481C22.5381 25.3664 21.5214 27.1355 21.0097 29.0749L21.0097 29.0751C19.9773 32.994 21.0899 37.1979 23.9371 40.048C25.0638 41.1824 26.4198 42.063 27.9143 42.631C29.3379 43.1721 30.856 43.4175 32.3761 43.3534L35.8817 46.8607L34.6824 49.6544H29.3184L27.5232 45.4545Z" fill="url(#paint4_linear_4_24334)" stroke="url(#paint5_linear_4_24334)"/>
<defs>
<filter id="filter0_f_4_24334" x="3.26249" y="3.26252" width="57.475" height="57.4754" filterUnits="userSpaceOnUse" color-interpolation-filters="sRGB">
<feFlood flood-opacity="0" result="BackgroundImageFix"/>
<feBlend mode="normal" in="SourceGraphic" in2="BackgroundImageFix" result="shape"/>
<feGaussianBlur stdDeviation="0.618754" result="effect1_foregroundBlur_4_24334"/>
</filter>
<linearGradient id="paint0_linear_4_24334" x1="4.5" y1="32.0002" x2="59.5004" y2="32.0002" gradientUnits="userSpaceOnUse">
<stop stop-color="#FDFC47"/>
<stop offset="1" stop-color="#24FE41"/>
</linearGradient>
<linearGradient id="paint1_linear_4_24334" x1="4.5" y1="32.0004" x2="59.5008" y2="32.0004" gradientUnits="userSpaceOnUse">
<stop stop-color="#FDFC47"/>
<stop offset="1" stop-color="#24FE41"/>
</linearGradient>
<linearGradient id="paint2_linear_4_24334" x1="4.5" y1="32.0007" x2="59.5017" y2="32.0007" gradientUnits="userSpaceOnUse">
<stop stop-color="#FDFC47"/>
<stop offset="1" stop-color="#24FE41"/>
</linearGradient>
<linearGradient id="paint3_linear_4_24334" x1="4.5" y1="32.0007" x2="59.5017" y2="32.0007" gradientUnits="userSpaceOnUse">
<stop stop-color="#FDFC47"/>
<stop offset="1" stop-color="#24FE41"/>
</linearGradient>
<linearGradient id="paint4_linear_4_24334" x1="13.8438" y1="32.0009" x2="50.1622" y2="32.0009" gradientUnits="userSpaceOnUse">
<stop stop-color="#FDFC47"/>
<stop offset="1" stop-color="#24FE41"/>
</linearGradient>
<linearGradient id="paint5_linear_4_24334" x1="13.8438" y1="32.0009" x2="50.1622" y2="32.0009" gradientUnits="userSpaceOnUse">
<stop stop-color="#FDFC47"/>
<stop offset="1" stop-color="#24FE41"/>
</linearGradient>
</defs>
</svg>
