<svg width="64" height="64" viewBox="0 0 64 64" fill="none" xmlns="http://www.w3.org/2000/svg">
<g clip-path="url(#clip0_4_24156)">
<g opacity="0.3" filter="url(#filter0_f_4_24156)">
<path d="M44.5 4.5H19.5C11.2157 4.5 4.5 11.2157 4.5 19.5V44.5C4.5 52.7843 11.2157 59.5 19.5 59.5H44.5C52.7843 59.5 59.5 52.7843 59.5 44.5V19.5C59.5 11.2157 52.7843 4.5 44.5 4.5Z" fill="url(#paint0_linear_4_24156)"/>
</g>
<path d="M19.5 5H44.5C52.5081 5 59 11.4919 59 19.5V44.5C59 52.5081 52.5081 59 44.5 59H19.5C11.4919 59 5 52.5081 5 44.5V19.5C5 11.4919 11.4919 5 19.5 5Z" fill="#232323" stroke="url(#paint1_linear_4_24156)"/>
<path fill-rule="evenodd" clip-rule="evenodd" d="M12.0094 41.3997L15.0801 26.4006H22.1758C25.2464 26.5896 26.7771 28.0681 26.7771 30.6617C26.7771 35.1024 23.1348 37.6865 19.8751 37.5117H16.4171L15.647 41.4044H12M17.1871 34.7386L18.1461 29.1831H20.6404C21.9868 29.1831 22.9411 29.7405 22.9411 30.8507C22.7474 33.997 21.2168 34.5544 19.4925 34.7386" fill="url(#paint2_linear_4_24156)"/>
<path d="M25.6328 37.5259L28.7035 22.5316H32.3458L31.5805 26.4148H35.0338C38.1045 26.6038 39.2572 28.0824 38.8698 29.9343L37.5282 37.5259H33.6874L35.0338 30.676C35.2228 29.7501 35.2228 29.1926 33.8764 29.1926H31.0041L29.2751 37.5213H25.6375" fill="url(#paint3_linear_4_24156)"/>
<path fill-rule="evenodd" clip-rule="evenodd" d="M37.2227 41.3997L40.2933 26.4006H47.3984C50.4691 26.5896 51.9997 28.0681 51.9997 30.6617C51.9997 35.1024 48.3527 37.6865 45.0883 37.5117H41.635L40.8697 41.4044M42.405 34.7386L43.364 29.1831H45.8584C47.2 29.1831 48.159 29.7405 48.159 30.8507C47.97 33.997 46.4347 34.5544 44.7009 34.7386" fill="url(#paint4_linear_4_24156)"/>
</g>
<defs>
<filter id="filter0_f_4_24156" x="3.2625" y="3.2625" width="57.475" height="57.475" filterUnits="userSpaceOnUse" color-interpolation-filters="sRGB">
<feFlood flood-opacity="0" result="BackgroundImageFix"/>
<feBlend mode="normal" in="SourceGraphic" in2="BackgroundImageFix" result="shape"/>
<feGaussianBlur stdDeviation="0.61875" result="effect1_foregroundBlur_4_24156"/>
</filter>
<linearGradient id="paint0_linear_4_24156" x1="4.5" y1="32" x2="59.5" y2="32" gradientUnits="userSpaceOnUse">
<stop stop-color="#FDFC47"/>
<stop offset="1" stop-color="#24FE41"/>
</linearGradient>
<linearGradient id="paint1_linear_4_24156" x1="4.5" y1="32" x2="59.5" y2="32" gradientUnits="userSpaceOnUse">
<stop stop-color="#FDFC47"/>
<stop offset="1" stop-color="#24FE41"/>
</linearGradient>
<linearGradient id="paint2_linear_4_24156" x1="12" y1="33.9025" x2="26.7771" y2="33.9025" gradientUnits="userSpaceOnUse">
<stop stop-color="#FDFC47"/>
<stop offset="1" stop-color="#24FE41"/>
</linearGradient>
<linearGradient id="paint3_linear_4_24156" x1="25.6328" y1="30.0288" x2="38.9422" y2="30.0288" gradientUnits="userSpaceOnUse">
<stop stop-color="#FDFC47"/>
<stop offset="1" stop-color="#24FE41"/>
</linearGradient>
<linearGradient id="paint4_linear_4_24156" x1="37.2227" y1="33.9025" x2="51.9997" y2="33.9025" gradientUnits="userSpaceOnUse">
<stop stop-color="#FDFC47"/>
<stop offset="1" stop-color="#24FE41"/>
</linearGradient>
<clipPath id="clip0_4_24156">
<rect width="64" height="64" fill="white"/>
</clipPath>
</defs>
</svg>
