<svg width="64" height="64" viewBox="0 0 64 64" fill="none" xmlns="http://www.w3.org/2000/svg">
<g clip-path="url(#clip0_4_24275)">
<g opacity="0.3" filter="url(#filter0_f_4_24275)">
<path d="M46.498 4.5H17.502C10.3212 4.5 4.5 10.3212 4.5 17.502V46.498C4.5 53.6788 10.3212 59.5 17.502 59.5H46.498C53.6788 59.5 59.5 53.6788 59.5 46.498V17.502C59.5 10.3212 53.6788 4.5 46.498 4.5Z" fill="url(#paint0_linear_4_24275)"/>
</g>
<path d="M5 17.502C5 10.575 10.575 5 17.502 5H46.498C53.425 5 59 10.575 59 17.502V46.498C59 53.425 53.425 59 46.498 59H17.502C10.575 59 5 53.425 5 46.498V17.502Z" fill="#232323" stroke="url(#paint1_linear_4_24275)"/>
<path d="M52 32.0001C52 30.0741 47.5073 28.8822 46.9431 27.1444C46.3582 25.3431 49.2716 21.7418 48.1806 20.2425C47.0786 18.7282 42.7458 20.3923 41.2316 19.2903C39.7324 18.1992 39.9826 13.5591 38.1816 12.9742C36.4436 12.41 33.9259 16.2927 32 16.2927C30.0741 16.2927 27.5564 12.41 25.8184 12.9743C24.0174 13.5592 24.2676 18.1992 22.7684 19.2904C21.2542 20.3925 16.9215 18.7284 15.8195 20.2426C14.7284 21.7418 17.6418 25.3432 17.057 27.1444C16.4927 28.8822 12 30.0741 12 32.0001C12 33.926 16.4927 35.1179 17.057 36.8557C17.6418 38.6569 14.7285 42.2583 15.8195 43.7575C16.9215 45.2716 21.2542 43.6077 22.7684 44.7097C24.2676 45.8009 24.0174 50.441 25.8184 51.0258C27.5563 51.5901 30.0739 47.7074 31.9999 47.7074C33.9258 47.7074 36.4434 51.5901 38.1814 51.0258C39.9825 50.441 39.7323 45.8008 41.2313 44.7097C42.7456 43.6077 47.0782 45.2717 48.1802 43.7575C49.2714 42.2583 46.358 38.657 46.9427 36.8557C47.5072 35.1179 52 33.9261 52 32.0001ZM32 45.2454C24.6966 45.2454 18.7548 39.3036 18.7548 32.0002C18.7548 24.6968 24.6966 18.7549 32 18.7549C39.3035 18.7549 45.2454 24.6968 45.2454 32.0002C45.2454 39.3036 39.3035 45.2454 32 45.2454Z" fill="url(#paint2_linear_4_24275)"/>
<path d="M32.0013 20.9011C25.8813 20.9011 20.9023 25.8801 20.9023 32C20.9023 38.12 25.8813 43.099 32.0013 43.099C38.1214 43.099 43.1003 38.12 43.1003 32C43.1003 25.8801 38.1214 20.9011 32.0013 20.9011ZM35.3996 27.5959C35.9922 27.5959 36.4727 28.0764 36.4727 28.6691C36.4727 29.2619 35.9922 29.7422 35.3996 29.7422C34.8069 29.7422 34.3264 29.2619 34.3264 28.6691C34.3264 28.0764 34.8069 27.5959 35.3996 27.5959ZM28.6923 27.5959C29.285 27.5959 29.7655 28.0764 29.7655 28.6691C29.7655 29.2619 29.285 29.7422 28.6923 29.7422C28.0996 29.7422 27.6191 29.2619 27.6191 28.6691C27.6191 28.0764 28.0996 27.5959 28.6923 27.5959ZM38.2524 34.3786C37.4244 36.7566 35.2753 38.4822 32.7773 38.7745C32.5227 38.8044 32.2683 38.8191 32.0155 38.8191C29.7549 38.8191 27.6044 37.6509 26.3892 35.7104C26.1272 35.2921 25.9121 34.8441 25.75 34.3786C25.5549 33.8189 25.8506 33.2072 26.4104 33.012C26.9701 32.8167 27.5817 33.1125 27.7768 33.6724C27.8861 33.9863 28.0314 34.2887 28.2082 34.5711C29.1217 36.0298 30.8172 36.8418 32.5275 36.6427C34.2144 36.4451 35.666 35.2794 36.2255 33.6724C36.4203 33.1128 37.0314 32.8169 37.5919 33.0119C38.1517 33.2069 38.4473 33.8188 38.2524 34.3786Z" fill="url(#paint3_linear_4_24275)"/>
</g>
<defs>
<filter id="filter0_f_4_24275" x="2.3" y="2.3" width="59.4" height="59.4" filterUnits="userSpaceOnUse" color-interpolation-filters="sRGB">
<feFlood flood-opacity="0" result="BackgroundImageFix"/>
<feBlend mode="normal" in="SourceGraphic" in2="BackgroundImageFix" result="shape"/>
<feGaussianBlur stdDeviation="1.1" result="effect1_foregroundBlur_4_24275"/>
</filter>
<linearGradient id="paint0_linear_4_24275" x1="4.5" y1="32" x2="59.5" y2="32" gradientUnits="userSpaceOnUse">
<stop stop-color="#FDFC47"/>
<stop offset="1" stop-color="#24FE41"/>
</linearGradient>
<linearGradient id="paint1_linear_4_24275" x1="4.5" y1="32" x2="59.5" y2="32" gradientUnits="userSpaceOnUse">
<stop stop-color="#FDFC47"/>
<stop offset="1" stop-color="#24FE41"/>
</linearGradient>
<linearGradient id="paint2_linear_4_24275" x1="12" y1="32" x2="52" y2="32" gradientUnits="userSpaceOnUse">
<stop stop-color="#FDFC47"/>
<stop offset="1" stop-color="#24FE41"/>
</linearGradient>
<linearGradient id="paint3_linear_4_24275" x1="20.9023" y1="32" x2="43.1003" y2="32" gradientUnits="userSpaceOnUse">
<stop stop-color="#FDFC47"/>
<stop offset="1" stop-color="#24FE41"/>
</linearGradient>
<clipPath id="clip0_4_24275">
<rect width="64" height="64" fill="white"/>
</clipPath>
</defs>
</svg>
