<svg width="64" height="64" viewBox="0 0 64 64" fill="none" xmlns="http://www.w3.org/2000/svg">
<g opacity="0.3" filter="url(#filter0_f_4_24290)">
<path d="M44.5003 4.50003H19.5001C11.2158 4.50003 4.5 11.2158 4.5 19.5001V44.5003C4.5 52.7846 11.2158 59.5004 19.5001 59.5004H44.5003C52.7846 59.5004 59.5004 52.7846 59.5004 44.5003V19.5001C59.5004 11.2158 52.7846 4.50003 44.5003 4.50003Z" fill="#232323"/>
<path d="M19.5001 5.00003H44.5003C52.5085 5.00003 59.0004 11.4919 59.0004 19.5001V44.5003C59.0004 52.5085 52.5085 59.0004 44.5003 59.0004H19.5001C11.4919 59.0004 5 52.5085 5 44.5003V19.5001C5 11.4919 11.4919 5.00003 19.5001 5.00003Z" stroke="url(#paint0_linear_4_24290)"/>
</g>
<path d="M19.5001 5.00037H44.5007C52.5089 5.00037 59.0008 11.4923 59.0008 19.5005V44.501C59.0008 52.5092 52.5089 59.0011 44.5007 59.0011H19.5001C11.4919 59.0011 5 52.5092 5 44.501V19.5005C5 11.4923 11.4919 5.00037 19.5001 5.00037Z" fill="#232323" stroke="url(#paint1_linear_4_24290)"/>
<g filter="url(#filter1_d_4_24290)">
<path d="M47.8852 41.1716C47.3367 42.1263 46.3405 42.654 45.3147 42.654C44.8121 42.654 44.3022 42.5265 43.8352 42.2567L34.9675 37.135V47.3785C34.9675 49.0151 33.6393 50.3433 32.0027 50.3433C30.3661 50.3433 29.0378 49.0151 29.0378 47.3785V37.1335L20.1655 42.2567C19.6986 42.5265 19.1886 42.654 18.6861 42.654C17.6618 42.654 16.664 42.1263 16.1156 41.1716C15.2973 39.7529 15.782 37.9399 17.2007 37.1244L26.0699 32.0011L17.1977 26.8779C15.779 26.0581 15.2942 24.2481 16.1125 22.8296C16.9308 21.4109 18.7453 20.9246 20.1624 21.7444L29.0331 26.8662V16.6212C29.0331 14.9846 30.3614 13.6563 31.998 13.6563C33.6346 13.6563 34.9628 14.9846 34.9628 16.6212V26.8647L43.8305 21.7429C45.2477 20.9231 47.0667 21.4094 47.8804 22.828C48.6987 24.2467 48.2139 26.0598 46.7953 26.8764L37.9287 31.9996L46.7964 37.1214C48.2151 37.9397 48.7035 39.7531 47.8852 41.1716Z" fill="url(#paint2_linear_4_24290)"/>
<path d="M47.4521 40.9217L47.4517 40.9225C46.9967 41.7144 46.1704 42.154 45.3147 42.154C44.8972 42.154 44.4739 42.0483 44.0854 41.8238L44.0853 41.8237L35.2176 36.702L34.4675 36.2688V37.135V47.3785C34.4675 48.7389 33.3631 49.8433 32.0027 49.8433C30.6422 49.8433 29.5378 48.7389 29.5378 47.3785V37.1335V36.2674L28.7878 36.7005L19.9155 41.8237L19.9154 41.8238C19.5269 42.0483 19.1036 42.154 18.6861 42.154C17.8317 42.154 17.004 41.7143 16.5491 40.9225L16.5487 40.9218C15.8679 39.7416 16.2718 38.235 17.4499 37.5579L17.4508 37.5573L26.32 32.4341L27.0696 32.0011L26.3199 31.5681L17.4478 26.445C17.4478 26.4449 17.4477 26.4449 17.4477 26.4449C16.2681 25.7631 15.8653 24.2588 16.5456 23.0794L16.5456 23.0794C17.2259 21.8999 18.7344 21.4959 19.912 22.1772L19.9124 22.1774L28.7831 27.2992L29.5331 27.7322V26.8662V16.6212C29.5331 15.2607 30.6375 14.1563 31.998 14.1563C33.3584 14.1563 34.4628 15.2607 34.4628 16.6212V26.8647V27.7309L35.2129 27.2976L44.0806 22.1759L44.0809 22.1757C45.2594 21.494 46.7713 21.8993 47.4467 23.0768L47.4473 23.0779C48.128 24.258 47.7242 25.7647 46.5458 26.443L46.5451 26.4435L37.6785 31.5667L36.9291 31.9997L37.6786 32.4326L46.5463 37.5543L46.5466 37.5545C47.7265 38.2351 48.1321 39.7429 47.4521 40.9217Z" stroke="url(#paint3_linear_4_24290)"/>
</g>
<defs>
<filter id="filter0_f_4_24290" x="3.26249" y="3.26252" width="57.475" height="57.4754" filterUnits="userSpaceOnUse" color-interpolation-filters="sRGB">
<feFlood flood-opacity="0" result="BackgroundImageFix"/>
<feBlend mode="normal" in="SourceGraphic" in2="BackgroundImageFix" result="shape"/>
<feGaussianBlur stdDeviation="0.618754" result="effect1_foregroundBlur_4_24290"/>
</filter>
<filter id="filter1_d_4_24290" x="11.7148" y="13.6563" width="40.5664" height="44.687" filterUnits="userSpaceOnUse" color-interpolation-filters="sRGB">
<feFlood flood-opacity="0" result="BackgroundImageFix"/>
<feColorMatrix in="SourceAlpha" type="matrix" values="0 0 0 0 0 0 0 0 0 0 0 0 0 0 0 0 0 0 127 0" result="hardAlpha"/>
<feOffset dy="4"/>
<feGaussianBlur stdDeviation="2"/>
<feComposite in2="hardAlpha" operator="out"/>
<feColorMatrix type="matrix" values="0 0 0 0 0 0 0 0 0 0 0 0 0 0 0 0 0 0 0.25 0"/>
<feBlend mode="normal" in2="BackgroundImageFix" result="effect1_dropShadow_4_24290"/>
<feBlend mode="normal" in="SourceGraphic" in2="effect1_dropShadow_4_24290" result="shape"/>
</filter>
<linearGradient id="paint0_linear_4_24290" x1="4.5" y1="32.0002" x2="59.5004" y2="32.0002" gradientUnits="userSpaceOnUse">
<stop stop-color="#FDFC47"/>
<stop offset="1" stop-color="#24FE41"/>
</linearGradient>
<linearGradient id="paint1_linear_4_24290" x1="4.5" y1="32.0008" x2="59.5008" y2="32.0008" gradientUnits="userSpaceOnUse">
<stop stop-color="#FDFC47"/>
<stop offset="1" stop-color="#24FE41"/>
</linearGradient>
<linearGradient id="paint2_linear_4_24290" x1="15.7148" y1="31.9998" x2="48.2814" y2="31.9998" gradientUnits="userSpaceOnUse">
<stop stop-color="#FDFC47"/>
<stop offset="1" stop-color="#24FE41"/>
</linearGradient>
<linearGradient id="paint3_linear_4_24290" x1="15.7148" y1="31.9998" x2="48.2814" y2="31.9998" gradientUnits="userSpaceOnUse">
<stop stop-color="#FDFC47"/>
<stop offset="1" stop-color="#24FE41"/>
</linearGradient>
</defs>
</svg>
