<svg width="64" height="64" viewBox="0 0 64 64" fill="none" xmlns="http://www.w3.org/2000/svg">
<g opacity="0.3" filter="url(#filter0_f_4_24150)">
<path d="M44.5003 4.50003H19.5001C11.2158 4.50003 4.5 11.2158 4.5 19.5001V44.5003C4.5 52.7846 11.2158 59.5004 19.5001 59.5004H44.5003C52.7846 59.5004 59.5004 52.7846 59.5004 44.5003V19.5001C59.5004 11.2158 52.7846 4.50003 44.5003 4.50003Z" fill="#232323"/>
<path d="M19.5001 5.00003H44.5003C52.5085 5.00003 59.0004 11.4919 59.0004 19.5001V44.5003C59.0004 52.5085 52.5085 59.0004 44.5003 59.0004H19.5001C11.4919 59.0004 5 52.5085 5 44.5003V19.5001C5 11.4919 11.4919 5.00003 19.5001 5.00003Z" stroke="url(#paint0_linear_4_24150)"/>
</g>
<path d="M19.5001 5H44.5007C52.5089 5 59.0008 11.4919 59.0008 19.5001V44.5007C59.0008 52.5089 52.5089 59.0008 44.5007 59.0008H19.5001C11.4919 59.0008 5 52.5089 5 44.5007V19.5001C5 11.4919 11.4919 5 19.5001 5Z" fill="#232323" stroke="url(#paint1_linear_4_24150)"/>
<path d="M27.6609 45.4845L27.7284 45.5294C29.6114 46.7787 31.0885 48.536 31.9973 50.5847C32.9061 48.536 34.3833 46.7787 36.2662 45.5294L36.3338 45.4845L36.4121 45.4633C39.604 44.5995 42.4524 42.8166 44.6163 40.36C44.3827 40.5213 44.1039 40.6094 43.816 40.6094H25.0703C24.6965 40.6094 24.3381 40.461 24.0739 40.1967C23.8096 39.9324 23.6612 39.574 23.6612 39.2003V39.0639C23.6612 38.6902 23.8096 38.3318 24.0739 38.0675C24.3381 37.8033 24.6966 37.6548 25.0703 37.6548H30.726C30.4359 37.6077 30.1658 37.4707 29.9554 37.2603C29.6911 36.9961 29.5427 36.6377 29.5427 36.2639V35.1458C29.5427 34.7721 29.6911 34.4136 29.9554 34.1494C30.2196 33.8851 30.5781 33.7367 30.9518 33.7367H38.3641C38.1392 33.6894 37.929 33.5829 37.7565 33.4259L38.0931 33.0561L37.7565 33.4259C37.5135 33.2047 37.3633 32.8997 37.336 32.5723C37.1546 30.6877 36.6865 28.8419 35.9477 27.0987C35.3506 25.7413 34.6867 24.4144 33.9582 23.1231L32.4838 25.6438L32.2343 26.0702L31.8049 25.826L27.65 23.4623L27.2103 23.2121L27.4656 22.7754L29.9477 18.5299L29.9542 18.5188L29.9544 18.5188C30.1862 18.1448 30.5534 17.8746 30.9795 17.7645C31.1422 17.7224 31.3088 17.7049 31.4739 17.7114C31.4432 17.6332 31.4166 17.5532 31.3942 17.4718C31.3107 17.1678 31.2884 16.8503 31.3286 16.5377C31.3687 16.2249 31.4707 15.9234 31.6281 15.6505L31.6308 15.6459L31.6308 15.6459L32.1308 14.8004L32.1313 14.7997C32.2324 14.6293 32.3965 14.5056 32.5881 14.4552C32.7793 14.4048 32.9826 14.4316 33.1543 14.5296C33.1546 14.5298 33.155 14.53 33.1553 14.5302L36.881 16.6475L36.8872 16.6511L36.8872 16.6511C36.9716 16.7006 37.0452 16.7665 37.1038 16.8449C37.1625 16.9233 37.2049 17.0125 37.2286 17.1074L27.6609 45.4845ZM27.6609 45.4845L27.5826 45.4633C23.6555 44.4006 20.2486 41.9466 17.9963 38.5586C15.744 35.1705 14.7999 31.0794 15.3398 27.047C15.8798 23.0146 17.8669 19.3159 20.9312 16.6398C23.9955 13.9636 27.928 12.4924 31.9964 12.5002L31.9983 12.5002C36.0667 12.4924 39.9992 13.9636 43.0635 16.6398C46.1278 19.3159 48.1149 23.0146 48.6548 27.047C49.1948 31.0794 48.2507 35.1705 45.9984 38.5586C45.7151 38.9848 45.4135 39.3962 45.0948 39.792C45.1798 39.6082 45.2251 39.4066 45.2251 39.2003V39.0639C45.2251 38.6902 45.0766 38.3318 44.8123 38.0675C44.5481 37.8033 44.1897 37.6548 43.816 37.6548H43.0595C43.3496 37.6077 43.6197 37.4707 43.8301 37.2603C44.0944 36.9961 44.2428 36.6377 44.2428 36.2639V35.1458C44.2428 34.7721 44.0944 34.4136 43.8301 34.1494C43.5658 33.8851 43.2074 33.7367 42.8337 33.7367H42.403C42.633 33.6882 42.8474 33.5779 43.0219 33.415C43.2705 33.183 43.4182 32.8629 43.4336 32.5233L43.4336 32.5233L43.4338 32.5172C43.4648 31.5762 43.1648 29.8577 41.7286 26.7003C40.8392 24.5797 39.7682 22.5398 38.5278 20.6035L38.5197 20.5909L38.5109 20.5788C38.3896 20.4123 38.2311 20.2766 38.048 20.1825C37.8648 20.0884 37.6622 20.0385 37.4563 20.0368V20.0368H37.4522H35.0699C35.033 19.9238 34.9839 19.8147 34.9233 19.7114C34.9174 19.7015 34.9115 19.6916 34.9055 19.6818C34.9977 19.6685 35.0894 19.6499 35.1803 19.6258C35.7948 19.4631 36.3209 19.0659 36.6456 18.5195L36.6473 18.5165L37.1455 17.6651C37.1948 17.5831 37.2276 17.4923 37.2421 17.3978L27.6609 45.4845ZM27.1148 23.3938L27.5447 23.6384L31.6997 26.0021L32.1435 26.2546L31.8817 26.693L31.4908 27.3476L31.4902 27.3487C31.2601 27.7317 30.8892 28.0094 30.4568 28.1223C30.0246 28.2352 29.5654 28.1743 29.1775 27.9529L27.1148 23.3938ZM27.1148 23.3938L26.8656 23.8211L26.4852 24.4732C26.485 24.4736 26.4847 24.4741 26.4844 24.4746C26.3716 24.666 26.2988 24.8775 26.2691 25.0965C26.2394 25.3167 26.254 25.5406 26.3121 25.755C26.3703 25.9695 26.4708 26.1701 26.6077 26.345L27.0015 26.0368L26.6077 26.345C26.7441 26.5192 26.9137 26.6644 27.1068 26.7722L29.1771 27.9526L27.1148 23.3938ZM18.7702 29.9184V30.3187V38.364C18.7702 38.9788 19.0145 39.5684 19.4492 40.0032C19.8839 40.4379 20.4736 40.6822 21.0884 40.6822H21.3702C21.985 40.6822 22.5747 40.4379 23.0094 40.0032C23.4442 39.5684 23.6884 38.9788 23.6884 38.364L23.6885 30.3187L23.6885 29.8187H23.6884L23.6884 29.4184L23.6883 24.0549C23.6883 24.0548 23.6883 24.0548 23.6883 24.0548C23.6883 23.9208 23.6617 23.7881 23.6098 23.6645L23.1679 23.8498L23.6098 23.6645C23.558 23.5409 23.4821 23.4288 23.3864 23.3349L23.036 23.6916L23.3864 23.3349C23.2908 23.241 23.1775 23.167 23.0529 23.1174C22.93 23.0683 22.7987 23.044 22.6664 23.0457H19.7792C19.5116 23.0457 19.2549 23.152 19.0657 23.3412C18.8764 23.5305 18.7701 23.7872 18.7701 24.0548V29.4184V29.9184H18.7702Z" fill="url(#paint2_linear_4_24150)" stroke="url(#paint3_linear_4_24150)"/>
<path d="M32.8978 20.989L32.8978 20.9891L32.9059 20.9935C32.9838 21.0361 33.0523 21.0939 33.1075 21.1635C33.1626 21.2331 33.2032 21.3131 33.2269 21.3986C33.2506 21.4842 33.2569 21.5737 33.2454 21.6617C33.234 21.7485 33.2056 21.8322 33.1618 21.9079C33.0689 22.0592 32.9218 22.1697 32.7504 22.2167C32.5778 22.264 32.3937 22.2435 32.2358 22.1592L32.2358 22.1592L32.2308 22.1566C32.1502 22.1147 32.0787 22.0571 32.0206 21.9872L31.6421 22.3016L32.0206 21.9872C31.9625 21.9173 31.919 21.8364 31.8926 21.7495C31.8663 21.6625 31.8575 21.5711 31.867 21.4807C31.8761 21.3934 31.9019 21.3088 31.9431 21.2314C32.0389 21.0767 32.1906 20.9646 32.3669 20.9186C32.5462 20.8717 32.7368 20.897 32.8978 20.989ZM41.3643 31.5106L41.3641 31.5105L41.3643 31.5106Z" fill="#232323" stroke="url(#paint4_linear_4_24150)"/>
<defs>
<filter id="filter0_f_4_24150" x="3.26249" y="3.26252" width="57.475" height="57.4754" filterUnits="userSpaceOnUse" color-interpolation-filters="sRGB">
<feFlood flood-opacity="0" result="BackgroundImageFix"/>
<feBlend mode="normal" in="SourceGraphic" in2="BackgroundImageFix" result="shape"/>
<feGaussianBlur stdDeviation="0.618754" result="effect1_foregroundBlur_4_24150"/>
</filter>
<linearGradient id="paint0_linear_4_24150" x1="4.5" y1="32.0002" x2="59.5004" y2="32.0002" gradientUnits="userSpaceOnUse">
<stop stop-color="#FDFC47"/>
<stop offset="1" stop-color="#24FE41"/>
</linearGradient>
<linearGradient id="paint1_linear_4_24150" x1="4.5" y1="32.0004" x2="59.5008" y2="32.0004" gradientUnits="userSpaceOnUse">
<stop stop-color="#FDFC47"/>
<stop offset="1" stop-color="#24FE41"/>
</linearGradient>
<linearGradient id="paint2_linear_4_24150" x1="14.6914" y1="32.0006" x2="49.3033" y2="32.0006" gradientUnits="userSpaceOnUse">
<stop stop-color="#FDFC47"/>
<stop offset="1" stop-color="#24FE41"/>
</linearGradient>
<linearGradient id="paint3_linear_4_24150" x1="14.6914" y1="32.0006" x2="49.3033" y2="32.0006" gradientUnits="userSpaceOnUse">
<stop stop-color="#FDFC47"/>
<stop offset="1" stop-color="#24FE41"/>
</linearGradient>
<linearGradient id="paint4_linear_4_24150" x1="31.3633" y1="26.1799" x2="41.8214" y2="26.1799" gradientUnits="userSpaceOnUse">
<stop stop-color="#FDFC47"/>
<stop offset="1" stop-color="#24FE41"/>
</linearGradient>
</defs>
</svg>
