<svg width="64" height="64" viewBox="0 0 64 64" fill="none" xmlns="http://www.w3.org/2000/svg">
<g clip-path="url(#clip0_4_24121)">
<g opacity="0.3" filter="url(#filter0_f_4_24121)">
<path d="M44.5 4.5H19.5C11.2157 4.5 4.5 11.2157 4.5 19.5V44.5C4.5 52.7843 11.2157 59.5 19.5 59.5H44.5C52.7843 59.5 59.5 52.7843 59.5 44.5V19.5C59.5 11.2157 52.7843 4.5 44.5 4.5Z" fill="url(#paint0_linear_4_24121)"/>
</g>
<path d="M19.5 5H44.5C52.5081 5 59 11.4919 59 19.5V44.5C59 52.5081 52.5081 59 44.5 59H19.5C11.4919 59 5 52.5081 5 44.5V19.5C5 11.4919 11.4919 5 19.5 5Z" fill="#232323" stroke="url(#paint1_linear_4_24121)"/>
<path d="M21.3869 12.861L21.3771 12.863C15.2167 12.863 9.50409 14.728 4.74609 17.8767C4.73321 17.8965 4.72182 17.9174 4.70898 17.9372C4.59234 19.573 4.53266 21.4094 4.51562 23.4567C5.78552 22.2353 7.01402 21.2235 8.25002 20.404C12.9783 33.29 13.2248 33.341 9.71883 19.5486C13.1832 17.6377 16.7701 17.0115 21.3768 16.9802C21.7799 16.975 22.1567 17.0069 22.5584 17.0212C22.5023 24.2055 21.3811 39.0102 17.3807 44.4122C11.5972 29.5292 12.3004 32.1792 16.1991 44.8614C15.9239 44.9984 15.6651 45.2022 15.3847 45.4317L13.5898 44.0879L14.4882 46.6563C11.2444 47.149 8.01901 46.5471 4.79681 47.2032C4.9079 48.3771 5.06234 49.4353 5.25775 50.4005C8.57215 49.4242 11.1135 46.8153 14.5293 48.7462C14.5853 49.0266 14.7328 49.2744 14.8554 49.5196L6.03713 53.1806C6.10648 53.3399 6.30304 53.8274 6.44142 54.0674C9.27973 52.7278 12.77 51.767 15.4257 50.3361C15.6905 50.5708 16.0377 50.7388 16.4042 50.8654L11.0194 58.1134C11.5095 58.2961 11.8366 58.4079 12.1913 58.5098C14.0252 56.2272 14.9021 53.5604 17.2616 51.0274C17.5721 51.0535 17.9231 51.1057 18.2792 51.0587C17.9416 53.8142 18.0341 56.6351 18.4765 59.381C19.4267 59.432 20.4506 59.4621 21.5312 59.4787C20.4975 56.6571 19.3494 53.8596 19.5078 50.8127C20.6648 51.2561 21.2705 51.8313 22.5644 52.7287C21.984 51.8574 21.271 51.2918 20.7714 50.2014C20.8836 50.0174 20.99 49.8339 21.0566 49.6291C26.9979 51.8908 32.5556 52.5284 38.5876 56.1506L41.8845 58.5979C41.6727 58.9077 41.4337 59.197 41.2028 59.4924C43.1269 59.4827 44.8646 59.4345 46.4118 59.3264C49.5851 54.5728 51.4645 48.8684 51.4645 42.7814C51.4645 26.3544 38.0549 12.861 21.3869 12.861ZM26.3185 17.4665C36.2641 19.423 44.9415 27.2293 46.8225 36.3805L46.3733 36.9508C45.5372 38.3973 37.6868 40.9037 34.8383 41.8024C29.4018 42.9646 25.5082 45.7272 20.2853 45.9176C19.9644 45.495 19.5933 45.1127 19.1447 44.8571C22.3195 39.2119 21.2746 24.1255 26.3185 17.4665ZM46.0485 38.9075H46.0524L47.234 40.0481C47.234 40.9598 47.1386 41.8583 46.9859 42.7805C46.2112 47.6614 45.2329 52.4852 43.2007 56.4345L38.8745 55.0068C33.948 52.6068 26.5605 51.0493 21.3065 47.5888C28.8365 43.2636 37.7845 41.5214 46.0485 38.9075Z" fill="url(#paint2_linear_4_24121)"/>
</g>
<defs>
<filter id="filter0_f_4_24121" x="3.2625" y="3.2625" width="57.475" height="57.475" filterUnits="userSpaceOnUse" color-interpolation-filters="sRGB">
<feFlood flood-opacity="0" result="BackgroundImageFix"/>
<feBlend mode="normal" in="SourceGraphic" in2="BackgroundImageFix" result="shape"/>
<feGaussianBlur stdDeviation="0.61875" result="effect1_foregroundBlur_4_24121"/>
</filter>
<linearGradient id="paint0_linear_4_24121" x1="4.5" y1="32" x2="59.5" y2="32" gradientUnits="userSpaceOnUse">
<stop stop-color="#FDFC47"/>
<stop offset="1" stop-color="#24FE41"/>
</linearGradient>
<linearGradient id="paint1_linear_4_24121" x1="4.5" y1="32" x2="59.5" y2="32" gradientUnits="userSpaceOnUse">
<stop stop-color="#FDFC47"/>
<stop offset="1" stop-color="#24FE41"/>
</linearGradient>
<linearGradient id="paint2_linear_4_24121" x1="4.51562" y1="36.1767" x2="51.4645" y2="36.1767" gradientUnits="userSpaceOnUse">
<stop stop-color="#FDFC47"/>
<stop offset="1" stop-color="#24FE41"/>
</linearGradient>
<clipPath id="clip0_4_24121">
<rect width="64" height="64" fill="white"/>
</clipPath>
</defs>
</svg>
