<svg width="64" height="64" viewBox="0 0 64 64" fill="none" xmlns="http://www.w3.org/2000/svg">
<g clip-path="url(#clip0_4_24069)">
<g opacity="0.3" filter="url(#filter0_f_4_24069)">
<path d="M44.5 4.5H19.5C11.2157 4.5 4.5 11.2157 4.5 19.5V44.5C4.5 52.7843 11.2157 59.5 19.5 59.5H44.5C52.7843 59.5 59.5 52.7843 59.5 44.5V19.5C59.5 11.2157 52.7843 4.5 44.5 4.5Z" fill="url(#paint0_linear_4_24069)"/>
</g>
<path d="M19.5 5H44.5C52.5081 5 59 11.4919 59 19.5V44.5C59 52.5081 52.5081 59 44.5 59H19.5C11.4919 59 5 52.5081 5 44.5V19.5C5 11.4919 11.4919 5 19.5 5Z" fill="#232323" stroke="url(#paint1_linear_4_24069)"/>
<path d="M31.5176 16C30.625 16.0332 30.1343 16.3329 29.8145 16.9766C29.6094 17.3896 29.4417 18.0777 29.4415 18.5059C29.4408 20.0767 27.8549 21.5098 26.1153 21.5098C25.2617 21.5098 24.7929 21.2748 23.0645 19.9805C22.2778 19.3913 21.7812 19.5445 20.5606 20.7461C19.401 21.8878 19.3717 22.4345 20.3985 23.7969C20.8228 24.36 21.2527 25.1107 21.3535 25.4668C21.6029 26.3474 21.1947 27.9593 20.5391 28.6758C20.0018 29.2631 18.6674 29.7207 17.5039 29.7207C16.3975 29.7207 16 30.3505 16 32.0937C16 33.4511 16.0521 33.6364 16.5176 33.9453C16.802 34.1342 17.6238 34.3731 18.3457 34.4765C19.0676 34.5799 19.901 34.8242 20.1953 35.0195C20.8166 35.4319 21.5368 36.9079 21.543 37.7832C21.5479 38.4186 21.0588 39.5421 20.5547 40.0527C20.0053 40.6092 19.6033 41.6221 19.7481 42.0839C19.9335 42.6756 21.1895 43.9409 21.8399 44.1913C22.2124 44.3348 22.483 44.293 22.8438 44.037C23.9011 43.2869 25.71 42.4725 26.3204 42.4725C27.2405 42.4725 28.7669 43.2846 29.1016 43.953C29.2592 44.2678 29.4556 45.0017 29.5391 45.5819C29.7414 46.989 30.0611 47.6512 30.5977 47.7655C30.8416 47.8172 31.2341 47.9049 31.4688 47.9589C31.7035 48.0142 32.2319 48.0142 32.6426 47.9589C33.7139 47.815 34.2849 47.0162 34.4649 45.4101C34.6294 43.9415 34.7642 43.7052 35.8457 43.0136C36.9439 42.3113 37.8035 42.1742 38.6484 42.5663C39.349 42.8914 39.6321 43.0599 40.7812 43.8261C41.6232 44.3875 42.1479 44.2948 43.1211 43.4042C44.5845 42.0651 44.6139 41.4828 43.3027 39.953C42.0546 38.4971 42.0404 36.7059 43.2675 35.33C43.7375 34.8031 44.1588 34.6199 45.5507 34.3417C47.6523 33.9218 47.9938 33.5786 47.9999 31.8729C48.0061 30.1693 47.735 29.8909 45.7616 29.5819C43.8839 29.2879 43.2827 28.8637 42.6229 27.3768C42.0744 26.1405 42.2257 25.416 43.3964 23.7186C43.9967 22.8483 44.2955 22.213 44.2265 21.9452C44.0722 21.3476 42.1271 19.5643 41.6287 19.5643C41.398 19.5643 40.7836 19.8966 40.2635 20.2987C38.8289 21.4081 37.9746 21.6587 36.748 21.3299C35.3067 20.9438 34.7936 20.3351 34.4296 18.576C34.0115 16.5558 33.7419 16.1922 32.5526 16.0565C32.1563 16.011 31.8149 15.9927 31.5173 16.0038L31.5176 16ZM32 26C33.5913 26 35.1175 26.6321 36.2427 27.7574C37.3679 28.8826 38 30.4087 38 32C38 33.5913 37.3679 35.1174 36.2427 36.2426C35.1175 37.3679 33.5913 38 32 38C30.4088 38 28.8826 37.3679 27.7574 36.2426C26.6322 35.1174 26 33.5913 26 32C26 30.4087 26.6322 28.8826 27.7574 27.7574C28.8826 26.6321 30.4088 26 32 26Z" fill="url(#paint2_linear_4_24069)"/>
</g>
<defs>
<filter id="filter0_f_4_24069" x="3.2625" y="3.2625" width="57.475" height="57.475" filterUnits="userSpaceOnUse" color-interpolation-filters="sRGB">
<feFlood flood-opacity="0" result="BackgroundImageFix"/>
<feBlend mode="normal" in="SourceGraphic" in2="BackgroundImageFix" result="shape"/>
<feGaussianBlur stdDeviation="0.61875" result="effect1_foregroundBlur_4_24069"/>
</filter>
<linearGradient id="paint0_linear_4_24069" x1="4.5" y1="32" x2="59.5" y2="32" gradientUnits="userSpaceOnUse">
<stop stop-color="#FDFC47"/>
<stop offset="1" stop-color="#24FE41"/>
</linearGradient>
<linearGradient id="paint1_linear_4_24069" x1="4.5" y1="32" x2="59.5" y2="32" gradientUnits="userSpaceOnUse">
<stop stop-color="#FDFC47"/>
<stop offset="1" stop-color="#24FE41"/>
</linearGradient>
<linearGradient id="paint2_linear_4_24069" x1="16" y1="32.0001" x2="48" y2="32.0001" gradientUnits="userSpaceOnUse">
<stop stop-color="#FDFC47"/>
<stop offset="1" stop-color="#24FE41"/>
</linearGradient>
<clipPath id="clip0_4_24069">
<rect width="64" height="64" fill="white"/>
</clipPath>
</defs>
</svg>
