<svg width="64" height="64" viewBox="0 0 64 64" fill="none" xmlns="http://www.w3.org/2000/svg">
<g opacity="0.3" filter="url(#filter0_f_4_24009)">
<path d="M44.5003 4.50003H19.5001C11.2158 4.50003 4.5 11.2158 4.5 19.5001V44.5003C4.5 52.7846 11.2158 59.5004 19.5001 59.5004H44.5003C52.7846 59.5004 59.5004 52.7846 59.5004 44.5003V19.5001C59.5004 11.2158 52.7846 4.50003 44.5003 4.50003Z" fill="#232323"/>
<path d="M19.5001 5.00003H44.5003C52.5085 5.00003 59.0004 11.4919 59.0004 19.5001V44.5003C59.0004 52.5085 52.5085 59.0004 44.5003 59.0004H19.5001C11.4919 59.0004 5 52.5085 5 44.5003V19.5001C5 11.4919 11.4919 5.00003 19.5001 5.00003Z" stroke="url(#paint0_linear_4_24009)"/>
</g>
<path d="M19.5001 5.00006H44.5007C52.5089 5.00006 59.0008 11.492 59.0008 19.5002V44.5007C59.0008 52.5089 52.5089 59.0008 44.5007 59.0008H19.5001C11.4919 59.0008 5 52.5089 5 44.5007V19.5002C5 11.492 11.4919 5.00006 19.5001 5.00006Z" fill="#232323" stroke="url(#paint1_linear_4_24009)"/>
<path d="M32.0001 13.5004C42.2174 13.5004 50.5001 21.7832 50.5001 32.0005C50.5001 42.2178 42.2174 50.5005 32.0001 50.5005C21.7828 50.5005 13.5 42.2178 13.5 32.0005C13.5 21.7832 21.7828 13.5004 32.0001 13.5004Z" fill="url(#paint2_linear_4_24009)" stroke="url(#paint3_linear_4_24009)"/>
<path d="M20.5469 32.0008C20.5469 25.6774 25.6727 20.5501 31.9976 20.5501C38.321 20.5501 43.4483 25.6781 43.4483 32.0008C43.4483 38.3243 38.3225 43.4516 31.9976 43.4516C25.6741 43.4516 20.5469 38.3257 20.5469 32.0008ZM37.9806 31.9695C37.9806 28.6248 35.2693 25.9172 31.9284 25.9172C28.5873 25.9172 25.8761 28.6284 25.8761 31.9695C25.8761 35.3106 28.5873 38.0217 31.9284 38.0217C35.2731 38.0217 37.9806 35.3104 37.9806 31.9695Z" fill="#232323" stroke="url(#paint4_linear_4_24009)"/>
<mask id="path-6-inside-1_4_24009" fill="white">
<path d="M32.0016 19.3343C25.0045 19.3343 19.332 25.0052 19.332 32.0024C19.332 38.9961 25.0045 44.667 32.0016 44.667C38.9954 44.667 44.6663 38.9961 44.6663 32.0024C44.6663 25.0052 38.9954 19.3343 32.0016 19.3343ZM32.0236 20.0427C38.6246 20.0427 43.9747 25.3942 43.9747 31.9938C43.9747 38.5949 38.6231 43.9449 32.0236 43.9449C25.4225 43.9449 20.0725 38.5934 20.0725 31.9938C20.0725 25.395 25.424 20.0427 32.0236 20.0427ZM32.027 23.8903C27.5701 23.8903 23.9538 27.5024 23.9538 31.9602C23.9538 36.4171 27.5693 40.03 32.027 40.03C36.484 40.03 40.0935 36.4179 40.0935 31.9602C40.0935 27.5033 36.4848 23.8903 32.027 23.8903ZM32.027 24.7742C36.0126 24.7742 39.245 28.0083 39.245 31.9971C39.245 35.9826 36.0126 39.215 32.027 39.215C28.0415 39.215 24.8042 35.9826 24.8042 31.9971C24.8042 28.0115 28.0383 24.7742 32.027 24.7742Z"/>
</mask>
<path d="M32.0016 19.3343C25.0045 19.3343 19.332 25.0052 19.332 32.0024C19.332 38.9961 25.0045 44.667 32.0016 44.667C38.9954 44.667 44.6663 38.9961 44.6663 32.0024C44.6663 25.0052 38.9954 19.3343 32.0016 19.3343ZM32.0236 20.0427C38.6246 20.0427 43.9747 25.3942 43.9747 31.9938C43.9747 38.5949 38.6231 43.9449 32.0236 43.9449C25.4225 43.9449 20.0725 38.5934 20.0725 31.9938C20.0725 25.395 25.424 20.0427 32.0236 20.0427ZM32.027 23.8903C27.5701 23.8903 23.9538 27.5024 23.9538 31.9602C23.9538 36.4171 27.5693 40.03 32.027 40.03C36.484 40.03 40.0935 36.4179 40.0935 31.9602C40.0935 27.5033 36.4848 23.8903 32.027 23.8903ZM32.027 24.7742C36.0126 24.7742 39.245 28.0083 39.245 31.9971C39.245 35.9826 36.0126 39.215 32.027 39.215C28.0415 39.215 24.8042 35.9826 24.8042 31.9971C24.8042 28.0115 28.0383 24.7742 32.027 24.7742Z" fill="#232323"/>
<path d="M32.0016 18.3343C24.4523 18.3343 18.332 24.4527 18.332 32.0024H20.332C20.332 25.5576 25.5566 20.3343 32.0016 20.3343V18.3343ZM18.332 32.0024C18.332 39.5487 24.4525 45.667 32.0016 45.667V43.667C25.5564 43.667 20.332 38.4435 20.332 32.0024H18.332ZM32.0016 45.667C39.5477 45.667 45.6663 39.5484 45.6663 32.0024H43.6663C43.6663 38.4438 38.4431 43.667 32.0016 43.667V45.667ZM45.6663 32.0024C45.6663 24.4531 39.5479 18.3343 32.0016 18.3343V20.3343C38.443 20.3343 43.6663 25.5573 43.6663 32.0024H45.6663ZM32.0236 21.0427C38.0723 21.0427 42.9747 25.9465 42.9747 31.9938H44.9747C44.9747 24.842 39.177 19.0427 32.0236 19.0427V21.0427ZM42.9747 31.9938C42.9747 38.0425 38.0709 42.9449 32.0236 42.9449V44.9449C39.1753 44.9449 44.9747 39.1473 44.9747 31.9938H42.9747ZM32.0236 42.9449C25.9748 42.9449 21.0725 38.0412 21.0725 31.9938H19.0725C19.0725 39.1456 24.8701 44.9449 32.0236 44.9449V42.9449ZM21.0725 31.9938C21.0725 25.9472 25.9763 21.0427 32.0236 21.0427V19.0427C24.8717 19.0427 19.0725 24.8428 19.0725 31.9938H21.0725ZM32.027 22.8903C27.0185 22.8903 22.9538 26.9495 22.9538 31.9602H24.9538C24.9538 28.0553 28.1218 24.8903 32.027 24.8903V22.8903ZM22.9538 31.9602C22.9538 36.9698 27.0175 41.03 32.027 41.03V39.03C28.1211 39.03 24.9538 35.8643 24.9538 31.9602H22.9538ZM32.027 41.03C37.0367 41.03 41.0935 36.9697 41.0935 31.9602H39.0935C39.0935 35.8661 35.9312 39.03 32.027 39.03V41.03ZM41.0935 31.9602C41.0935 26.9516 37.0376 22.8903 32.027 22.8903V24.8903C35.9319 24.8903 39.0935 28.0549 39.0935 31.9602H41.0935ZM32.027 25.7742C35.4598 25.7742 38.245 28.56 38.245 31.9971H40.245C40.245 27.4566 36.5655 23.7742 32.027 23.7742V25.7742ZM38.245 31.9971C38.245 35.4304 35.4603 38.215 32.027 38.215V40.215C36.5649 40.215 40.245 36.5349 40.245 31.9971H38.245ZM32.027 38.215C28.5929 38.215 25.8042 35.4294 25.8042 31.9971H23.8042C23.8042 36.5358 27.4901 40.215 32.027 40.215V38.215ZM25.8042 31.9971C25.8042 28.5635 28.5909 25.7742 32.027 25.7742V23.7742C27.4857 23.7742 23.8042 27.4595 23.8042 31.9971H25.8042Z" fill="url(#paint5_linear_4_24009)" mask="url(#path-6-inside-1_4_24009)"/>
<defs>
<filter id="filter0_f_4_24009" x="3.26249" y="3.26252" width="57.475" height="57.4754" filterUnits="userSpaceOnUse" color-interpolation-filters="sRGB">
<feFlood flood-opacity="0" result="BackgroundImageFix"/>
<feBlend mode="normal" in="SourceGraphic" in2="BackgroundImageFix" result="shape"/>
<feGaussianBlur stdDeviation="0.618754" result="effect1_foregroundBlur_4_24009"/>
</filter>
<linearGradient id="paint0_linear_4_24009" x1="4.5" y1="32.0002" x2="59.5004" y2="32.0002" gradientUnits="userSpaceOnUse">
<stop stop-color="#FDFC47"/>
<stop offset="1" stop-color="#24FE41"/>
</linearGradient>
<linearGradient id="paint1_linear_4_24009" x1="4.5" y1="32.0004" x2="59.5008" y2="32.0004" gradientUnits="userSpaceOnUse">
<stop stop-color="#FDFC47"/>
<stop offset="1" stop-color="#24FE41"/>
</linearGradient>
<linearGradient id="paint2_linear_4_24009" x1="13" y1="32.0005" x2="51.0001" y2="32.0005" gradientUnits="userSpaceOnUse">
<stop stop-color="#FDFC47"/>
<stop offset="1" stop-color="#24FE41"/>
</linearGradient>
<linearGradient id="paint3_linear_4_24009" x1="13" y1="32.0005" x2="51.0001" y2="32.0005" gradientUnits="userSpaceOnUse">
<stop stop-color="#FDFC47"/>
<stop offset="1" stop-color="#24FE41"/>
</linearGradient>
<linearGradient id="paint4_linear_4_24009" x1="20.0469" y1="32.0008" x2="43.9483" y2="32.0008" gradientUnits="userSpaceOnUse">
<stop stop-color="#FDFC47"/>
<stop offset="1" stop-color="#24FE41"/>
</linearGradient>
<linearGradient id="paint5_linear_4_24009" x1="19.332" y1="32.0007" x2="44.6663" y2="32.0007" gradientUnits="userSpaceOnUse">
<stop stop-color="#FDFC47"/>
<stop offset="1" stop-color="#24FE41"/>
</linearGradient>
</defs>
</svg>
