<svg width="64" height="64" viewBox="0 0 64 64" fill="none" xmlns="http://www.w3.org/2000/svg">
<g opacity="0.3" filter="url(#filter0_f_4_23973)">
<path d="M44.5003 4.50003H19.5001C11.2158 4.50003 4.5 11.2158 4.5 19.5001V44.5003C4.5 52.7846 11.2158 59.5004 19.5001 59.5004H44.5003C52.7846 59.5004 59.5004 52.7846 59.5004 44.5003V19.5001C59.5004 11.2158 52.7846 4.50003 44.5003 4.50003Z" fill="#232323"/>
<path d="M19.5001 5.00003H44.5003C52.5085 5.00003 59.0004 11.4919 59.0004 19.5001V44.5003C59.0004 52.5085 52.5085 59.0004 44.5003 59.0004H19.5001C11.4919 59.0004 5 52.5085 5 44.5003V19.5001C5 11.4919 11.4919 5.00003 19.5001 5.00003Z" stroke="url(#paint0_linear_4_23973)"/>
</g>
<path d="M19.5005 5H44.5003C52.5087 5 59.0008 11.4921 59.0008 19.5005V44.5003C59.0008 52.5087 52.5087 59.0008 44.5003 59.0008H19.5005C11.4921 59.0008 5 52.5087 5 44.5003V19.5005C5 11.4921 11.4921 5 19.5005 5Z" fill="#232323" stroke="url(#paint1_linear_4_23973)"/>
<path opacity="0.98693" d="M40.2828 30.2328L40.2829 30.2328C42.2729 28.9011 44.0847 27.6891 45.4002 26.81C45.9541 26.4399 46.4199 26.1289 46.774 25.8928C46.7758 26.2279 46.7774 26.6457 46.7788 27.1307C46.7827 28.4647 46.785 30.3059 46.785 32.3322V39.4346L39.7895 44.1134L40.0675 44.529L39.7895 44.1134C37.8049 45.4408 35.996 46.6473 34.6805 47.522C34.1164 47.897 33.6433 48.2108 33.286 48.4468C33.2825 48.1099 33.2794 47.6873 33.2766 47.195C33.2693 45.8643 33.265 44.0283 33.2657 42.0082V42.0081L33.2675 34.9272L40.2828 30.2328Z" fill="#232323" stroke="url(#paint2_linear_4_23973)"/>
<path opacity="0.98693" d="M24.1995 44.0063L17.1758 39.3406V32.1304C17.1758 30.0745 17.1812 28.2062 17.19 26.8522C17.1933 26.3406 17.197 25.903 17.2012 25.5568C17.561 25.7932 18.039 26.1086 18.6097 26.4862C19.9305 27.3599 21.7461 28.5653 23.7375 29.8914C23.7375 29.8914 23.7375 29.8914 23.7375 29.8914L30.7567 34.5658V41.7673C30.7567 43.8208 30.7519 45.6872 30.744 47.0398C30.741 47.5493 30.7377 47.9854 30.734 48.3308C30.3747 48.095 29.8981 47.781 29.3294 47.4055C28.0084 46.5332 26.1922 45.33 24.1995 44.0063Z" fill="#232323" stroke="url(#paint3_linear_4_23973)"/>
<path opacity="0.98693" d="M25.1528 19.0302L25.1528 19.0302C27.0939 17.7323 28.8637 16.5559 30.1511 15.7066C30.795 15.2819 31.3174 14.9395 31.6799 14.7049C31.7946 14.6306 31.8925 14.5677 31.9728 14.5166C33.0152 15.2078 36.2343 17.3788 39.3395 19.4797C41.0597 20.6435 42.7423 21.784 43.9956 22.6363C44.619 23.0602 45.1358 23.4126 45.498 23.6608C45.4912 23.6656 45.4844 23.6703 45.4774 23.6752C45.0979 23.9395 44.5524 24.3131 43.8946 24.7601C42.5796 25.6536 40.8212 26.8367 39.0564 28.0172C37.2916 29.1977 35.5214 30.3749 34.1829 31.2567C33.5134 31.6978 32.9531 32.0642 32.5558 32.32C32.3982 32.4214 32.2676 32.5046 32.1667 32.5677C32.0609 32.5021 31.9227 32.4144 31.7548 32.3064C31.346 32.0434 30.7722 31.6669 30.0879 31.2139C28.7199 30.3081 26.9162 29.0998 25.1213 27.8889C23.3264 26.678 21.5415 25.4652 20.2111 24.5505C19.5455 24.0929 18.9953 23.711 18.6148 23.4415C18.6084 23.437 18.6021 23.4325 18.5958 23.428C18.5989 23.4259 18.602 23.4238 18.6051 23.4217C18.9721 23.1736 19.4983 22.8194 20.1449 22.3851C21.4379 21.5165 23.2113 20.3283 25.1528 19.0302ZM31.7124 14.3452C31.713 14.3455 31.7136 14.3459 31.7141 14.3463C31.7131 14.3456 31.712 14.3449 31.711 14.3442L31.7124 14.3452Z" fill="#232323" stroke="url(#paint4_linear_4_23973)"/>
<path opacity="0.98693" d="M16.384 23.016C16.3839 23.0161 16.385 23.0152 16.3876 23.0134C16.3854 23.015 16.3841 23.016 16.384 23.016ZM16.4744 22.9607C16.4789 22.957 16.4925 22.9457 16.5086 22.9296C16.5553 22.8978 16.6164 22.8565 16.6953 22.8033C16.6956 22.8031 16.6959 22.8029 16.6961 22.8027L30.5661 13.5363C30.5663 13.5362 30.5665 13.5361 30.5666 13.536C30.9894 13.2544 31.2002 13.1147 31.3057 13.0456C31.3356 13.0259 31.3555 13.013 31.3685 13.0046C31.3908 12.9936 31.4085 12.983 31.4151 12.9791L31.4159 12.9786C31.4389 12.9649 31.4735 12.9429 31.5269 12.9084C31.6101 12.8546 31.7531 12.7611 32.0003 12.598C42.3486 19.465 43.703 20.3608 45.0545 21.2611C45.6392 21.6506 46.2234 22.0409 47.5352 22.916C48.1418 23.3594 48.1617 23.3796 48.1603 23.3783C48.1571 23.3754 48.1766 23.3939 48.1982 23.4123C48.2183 23.4293 48.2428 23.4488 48.2761 23.4744C48.3208 23.5087 48.3902 23.5609 48.5022 23.644V40.4786L46.7664 41.6341C46.6339 41.7223 46.5708 41.7643 46.5646 41.7686C46.5635 41.7694 46.5597 41.7721 46.5549 41.7755L33.2708 50.6136C33.2689 50.6138 33.267 50.614 33.2653 50.6143C33.2387 50.6234 33.2019 50.6388 33.1912 50.6439C33.1771 50.6509 33.1661 50.6573 33.1641 50.6584L33.1639 50.6585C33.1579 50.662 33.1529 50.665 33.1512 50.666L33.1509 50.6662L33.1281 50.6805L33.0409 50.7362C32.8952 50.8295 32.5799 51.0322 31.9992 51.406C31.8209 51.293 31.7145 51.226 31.6504 51.1859C31.606 51.1582 31.5772 51.1405 31.5577 51.129C31.5486 51.1237 31.5333 51.1148 31.5155 51.1059C31.5133 51.1048 31.5112 51.1038 31.5089 51.1027C31.4982 51.0963 31.4764 51.0833 31.4391 51.0603C31.3443 51.0017 31.1598 50.8863 30.7973 50.6578L15.5 40.4792V23.603C15.6136 23.5286 15.7139 23.463 15.8024 23.4051C16.0267 23.2584 16.175 23.1614 16.2707 23.0987C16.3485 23.0477 16.3932 23.0183 16.4159 23.0032L16.4322 22.9923L16.4422 22.9854L16.4515 22.9787L16.4515 22.9787C16.4541 22.9768 16.4633 22.97 16.4744 22.9607ZM46.6492 42.3134L33.7238 50.9128L46.6492 42.3134ZM33.1307 50.6795C33.1312 50.6792 33.1311 50.6792 33.1301 50.6799L33.1307 50.6795ZM31.0923 13.055C31.0998 13.0558 31.1101 13.0566 31.1219 13.0571C31.1103 13.0567 31.1004 13.0558 31.0923 13.055ZM30.7794 49.5456L31.5568 50.0639V49.1296V34.4897V34.3386L31.4731 34.2129L31.3551 34.0353L31.2895 33.9367L31.1868 33.878L30.7885 33.6504L17.1664 24.5697L16.3891 24.0515V24.9857V39.6846V39.9522L16.6117 40.1006L30.7794 49.5456ZM32.4458 49.1296V50.0639L33.2231 49.5456L47.3906 40.1004L47.6132 39.952V39.6844V25.2807V24.3464L46.8359 24.8647L32.6684 34.3099L32.4458 34.4583V34.7259V49.1296ZM31.969 33.3177L32.2438 33.4925L32.5148 33.3119L46.3281 24.1029L46.9515 23.6873L46.3285 23.2711L32.2789 13.8852L32.0021 13.7002L31.7246 13.8844L17.8524 23.0934L17.2262 23.5091L17.8516 23.926L31.3107 32.8987L31.3107 32.8988L31.3197 32.9046L31.969 33.3177ZM46.5738 41.7624C46.5731 41.7629 46.5734 41.7627 46.5741 41.7623L46.5738 41.7624Z" fill="#232323" stroke="url(#paint5_linear_4_23973)"/>
<defs>
<filter id="filter0_f_4_23973" x="3.26249" y="3.26252" width="57.475" height="57.4754" filterUnits="userSpaceOnUse" color-interpolation-filters="sRGB">
<feFlood flood-opacity="0" result="BackgroundImageFix"/>
<feBlend mode="normal" in="SourceGraphic" in2="BackgroundImageFix" result="shape"/>
<feGaussianBlur stdDeviation="0.618754" result="effect1_foregroundBlur_4_23973"/>
</filter>
<linearGradient id="paint0_linear_4_23973" x1="4.5" y1="32.0002" x2="59.5004" y2="32.0002" gradientUnits="userSpaceOnUse">
<stop stop-color="#FDFC47"/>
<stop offset="1" stop-color="#24FE41"/>
</linearGradient>
<linearGradient id="paint1_linear_4_23973" x1="4.5" y1="32.0004" x2="59.5008" y2="32.0004" gradientUnits="userSpaceOnUse">
<stop stop-color="#FDFC47"/>
<stop offset="1" stop-color="#24FE41"/>
</linearGradient>
<linearGradient id="paint2_linear_4_23973" x1="32.7656" y1="37.1626" x2="47.285" y2="37.1626" gradientUnits="userSpaceOnUse">
<stop stop-color="#FDFC47"/>
<stop offset="1" stop-color="#24FE41"/>
</linearGradient>
<linearGradient id="paint3_linear_4_23973" x1="16.6758" y1="36.9447" x2="31.2567" y2="36.9447" gradientUnits="userSpaceOnUse">
<stop stop-color="#FDFC47"/>
<stop offset="1" stop-color="#24FE41"/>
</linearGradient>
<linearGradient id="paint4_linear_4_23973" x1="17.7383" y1="23.535" x2="46.3582" y2="23.535" gradientUnits="userSpaceOnUse">
<stop stop-color="#FDFC47"/>
<stop offset="1" stop-color="#24FE41"/>
</linearGradient>
<linearGradient id="paint5_linear_4_23973" x1="15" y1="31.9989" x2="49.0022" y2="31.9989" gradientUnits="userSpaceOnUse">
<stop stop-color="#FDFC47"/>
<stop offset="1" stop-color="#24FE41"/>
</linearGradient>
</defs>
</svg>
