<svg width="64" height="64" viewBox="0 0 64 64" fill="none" xmlns="http://www.w3.org/2000/svg">
<g clip-path="url(#clip0_4_23884)">
<g opacity="0.3" filter="url(#filter0_f_4_23884)">
<path d="M44.5 4.5H19.5C11.2157 4.5 4.5 11.2157 4.5 19.5V44.5C4.5 52.7843 11.2157 59.5 19.5 59.5H44.5C52.7843 59.5 59.5 52.7843 59.5 44.5V19.5C59.5 11.2157 52.7843 4.5 44.5 4.5Z" fill="url(#paint0_linear_4_23884)"/>
</g>
<path d="M19.5 5H44.5C52.5081 5 59 11.4919 59 19.5V44.5C59 52.5081 52.5081 59 44.5 59H19.5C11.4919 59 5 52.5081 5 44.5V19.5C5 11.4919 11.4919 5 19.5 5Z" fill="#232323" stroke="url(#paint1_linear_4_23884)"/>
<path d="M20.2845 38.2915C21.7645 39.9858 26.1543 38.8574 27.9491 38.3082C26.968 37.6586 26.4323 36.9789 26.151 36.403C25.7257 35.5424 25.5047 33.7041 27.132 33.9084C34.1269 34.8794 35.7472 31.9194 37.4923 28.6982C38.9288 26.063 40.4322 23.2804 44.2394 21.787C40.5896 15.5087 30.1085 22.5773 28.2974 26.9068C28.1266 27.4024 27.7081 27.7439 27.1924 27.7439C26.5595 27.7439 26.0271 27.1948 26.0271 26.5419C26.0271 26.5419 26.1242 24.7873 26.6533 22.5171C25.8664 23.2671 25.1867 24.1578 24.6442 25.1523C23.6933 26.8968 23.258 28.9059 23.7468 30.7173H23.7399C23.8672 31.1962 23.6964 31.7453 23.2611 32.04C22.7387 32.3983 22.0389 32.2442 21.6773 31.6951C21.1616 30.8714 20.5891 30.0778 20.1604 29.2005C19.186 31.9696 18.8179 35.6464 20.2845 38.2915Z" fill="url(#paint2_linear_4_23884)"/>
<path d="M26.7556 46.9975H38.7162C39.1146 46.9975 39.416 46.6694 39.416 46.2675C39.416 45.8624 39.1146 45.5543 38.7162 45.5543H26.7556C26.3806 45.5543 26.0625 45.8624 26.0625 46.2675C26.0659 46.6727 26.3806 46.9975 26.7556 46.9975Z" fill="url(#paint3_linear_4_23884)"/>
<path d="M18.3203 39.5841C15.9999 35.4387 16.9508 29.301 19.3952 25.4807C19.7333 24.9316 20.4633 24.7742 20.979 25.1526C21.2334 25.3233 21.4143 25.5845 21.4611 25.8658H21.4745C21.5181 26.0834 21.5716 26.2877 21.6218 26.4852C21.873 25.6113 22.2112 24.7507 22.6532 23.9505C23.9658 21.5196 26.0786 19.5037 28.3622 18.5863C28.9515 18.3553 29.6078 18.6634 29.8489 19.2795C29.9527 19.5976 29.936 19.9157 29.8188 20.207C29.5911 20.7394 29.3935 21.2785 29.2227 21.8042C30.9237 20.207 33.0667 18.7906 35.2532 17.9234C39.7937 16.1286 44.9775 16.6677 46.9189 22.0855C47.1466 22.7116 46.8318 23.3981 46.2425 23.6559L46.1387 23.6895C42.278 24.7509 40.8415 27.3962 39.4888 29.8975C37.5869 33.3899 35.8055 36.6378 29.5134 36.524C29.9319 36.7283 30.4945 36.956 31.201 37.1837C31.8037 37.3745 32.152 38.0442 31.9611 38.6938C31.8707 39.0119 31.6597 39.263 31.3852 39.407C28.482 41.1415 23.3992 42.3569 20.1241 41.0008C19.6754 41.6806 18.9656 43.1806 19.4611 45.5379V45.5513H22.6354C23.0238 45.5513 23.3185 45.8594 23.3185 46.2645C23.3185 46.6663 23.0238 46.9945 22.6354 46.9945H18.4666C17.8773 47.0547 17.3415 46.6395 17.2009 46.0334C16.5714 42.896 17.5759 40.6827 18.3193 39.5843L18.3203 39.5841Z" fill="url(#paint4_linear_4_23884)"/>
</g>
<defs>
<filter id="filter0_f_4_23884" x="3.2625" y="3.2625" width="57.475" height="57.475" filterUnits="userSpaceOnUse" color-interpolation-filters="sRGB">
<feFlood flood-opacity="0" result="BackgroundImageFix"/>
<feBlend mode="normal" in="SourceGraphic" in2="BackgroundImageFix" result="shape"/>
<feGaussianBlur stdDeviation="0.61875" result="effect1_foregroundBlur_4_23884"/>
</filter>
<linearGradient id="paint0_linear_4_23884" x1="4.5" y1="32" x2="59.5" y2="32" gradientUnits="userSpaceOnUse">
<stop stop-color="#FDFC47"/>
<stop offset="1" stop-color="#24FE41"/>
</linearGradient>
<linearGradient id="paint1_linear_4_23884" x1="4.5" y1="32" x2="59.5" y2="32" gradientUnits="userSpaceOnUse">
<stop stop-color="#FDFC47"/>
<stop offset="1" stop-color="#24FE41"/>
</linearGradient>
<linearGradient id="paint2_linear_4_23884" x1="19.3047" y1="29.2433" x2="44.2394" y2="29.2433" gradientUnits="userSpaceOnUse">
<stop stop-color="#FDFC47"/>
<stop offset="1" stop-color="#24FE41"/>
</linearGradient>
<linearGradient id="paint3_linear_4_23884" x1="26.0625" y1="46.2759" x2="39.416" y2="46.2759" gradientUnits="userSpaceOnUse">
<stop stop-color="#FDFC47"/>
<stop offset="1" stop-color="#24FE41"/>
</linearGradient>
<linearGradient id="paint4_linear_4_23884" x1="16.9922" y1="32.0003" x2="46.9933" y2="32.0003" gradientUnits="userSpaceOnUse">
<stop stop-color="#FDFC47"/>
<stop offset="1" stop-color="#24FE41"/>
</linearGradient>
<clipPath id="clip0_4_23884">
<rect width="64" height="64" fill="white"/>
</clipPath>
</defs>
</svg>
