<svg width="64" height="64" viewBox="0 0 64 64" fill="none" xmlns="http://www.w3.org/2000/svg">
<g opacity="0.3" filter="url(#filter0_f_4_23809)">
<path d="M44.5003 4.50003H19.5001C11.2158 4.50003 4.5 11.2158 4.5 19.5001V44.5003C4.5 52.7846 11.2158 59.5004 19.5001 59.5004H44.5003C52.7846 59.5004 59.5004 52.7846 59.5004 44.5003V19.5001C59.5004 11.2158 52.7846 4.50003 44.5003 4.50003Z" fill="url(#paint0_linear_4_23809)"/>
</g>
<path d="M19.5001 5.00037H44.5007C52.5089 5.00037 59.0008 11.4923 59.0008 19.5005V44.501C59.0008 52.5092 52.5089 59.0011 44.5007 59.0011H19.5001C11.4919 59.0011 5 52.5092 5 44.501V19.5005C5 11.4923 11.4919 5.00037 19.5001 5.00037Z" fill="#232323" stroke="url(#paint1_linear_4_23809)"/>
<path d="M20.2015 21.5547L23.4864 21.5177C23.6739 21.5152 23.8226 21.3636 23.8205 21.176C23.8205 21.176 23.748 18.396 23.7394 17.6217L23.74 17.6055C23.7328 16.9707 23.8623 16.4132 24.0953 15.949L24.202 15.7402C24.1922 15.7387 24.1741 15.7527 24.1665 15.7625L17.8546 22.0858C17.844 22.1009 17.8391 22.1126 17.8334 22.1265C17.963 22.0561 18.1429 21.9677 18.1694 21.9565C18.7227 21.7003 19.3917 21.5583 20.2021 21.5492M45.7378 20.5819C45.4629 19.2025 44.6292 18.5359 43.8718 18.2743C43.0584 17.9915 41.412 17.7151 39.351 17.4986C37.6859 17.3195 35.737 17.3566 34.5573 17.4064C34.4069 16.4513 33.716 15.5862 32.9529 15.2887C30.9178 14.5104 27.7907 14.7385 26.9883 14.9709C26.3556 15.1496 25.6479 15.5209 25.2644 16.0813C25.0038 16.4581 24.8375 16.939 24.845 17.6042C24.8488 17.9781 24.8695 18.8667 24.8892 19.6569C24.9088 20.4577 24.9274 21.1586 24.9274 21.1586C24.9353 21.865 24.3642 22.4437 23.6473 22.4677L20.3626 22.5043C19.6615 22.5123 19.1266 22.6326 18.7243 22.8195C18.3153 23.0118 18.0279 23.2584 17.8131 23.5576C17.3779 24.1453 17.3127 24.8632 17.321 25.5948C17.321 25.5948 17.3327 26.1815 17.4908 27.344C17.6256 28.2473 18.678 34.5041 19.6345 36.389C20.006 37.1288 20.2489 37.432 20.9643 37.7514C22.5564 38.4041 26.1927 39.1113 27.889 39.3064C29.5904 39.4991 30.6557 39.9408 31.2758 38.63C31.2803 38.6306 31.4026 38.301 31.5688 37.8216C32.1011 36.1684 32.1578 34.7013 32.146 33.641C32.1446 33.5364 32.3058 33.5299 32.3069 33.6391C32.3153 34.3882 32.2 37.0345 34.2288 37.7237C35.0329 37.995 36.6881 38.225 38.3732 38.3998C39.8986 38.5529 41.0067 39.1339 41.0499 42.9961C41.0763 45.3456 40.5808 45.6627 37.9771 45.6917C35.8618 45.7152 35.0576 45.7815 35.0388 44.1186C35.0237 42.7723 36.3718 42.9089 37.3643 42.8977C37.8061 42.8916 37.4804 42.5692 37.4711 41.7429C37.462 40.9219 37.9767 40.4372 37.4832 40.4334C34.0469 40.3793 32.0217 40.4893 32.0693 44.7399C32.1126 48.6007 33.6173 49.3011 38.4973 49.2463C42.3222 49.2033 43.6723 49.0581 45.1974 44.1975C45.498 43.2375 46.2249 40.3087 46.6264 35.3971C46.8777 32.2968 46.2114 22.9479 45.7378 20.5819ZM39.1883 30.9991C38.7158 30.9837 38.2585 31.0256 37.8282 31.0981C37.9479 30.14 38.3299 28.9663 39.7274 29.0025C41.2925 29.0365 41.5271 30.4952 41.5435 31.4822C40.8803 31.1983 40.072 31.021 39.1829 30.9988" fill="url(#paint2_linear_4_23809)"/>
<defs>
<filter id="filter0_f_4_23809" x="3.26249" y="3.26252" width="57.475" height="57.4754" filterUnits="userSpaceOnUse" color-interpolation-filters="sRGB">
<feFlood flood-opacity="0" result="BackgroundImageFix"/>
<feBlend mode="normal" in="SourceGraphic" in2="BackgroundImageFix" result="shape"/>
<feGaussianBlur stdDeviation="0.618754" result="effect1_foregroundBlur_4_23809"/>
</filter>
<linearGradient id="paint0_linear_4_23809" x1="4.5" y1="32.0002" x2="59.5004" y2="32.0002" gradientUnits="userSpaceOnUse">
<stop stop-color="#FDFC47"/>
<stop offset="1" stop-color="#24FE41"/>
</linearGradient>
<linearGradient id="paint1_linear_4_23809" x1="4.5" y1="32.0008" x2="59.5008" y2="32.0008" gradientUnits="userSpaceOnUse">
<stop stop-color="#FDFC47"/>
<stop offset="1" stop-color="#24FE41"/>
</linearGradient>
<linearGradient id="paint2_linear_4_23809" x1="17.3203" y1="31.9996" x2="46.6813" y2="31.9996" gradientUnits="userSpaceOnUse">
<stop stop-color="#FDFC47"/>
<stop offset="1" stop-color="#24FE41"/>
</linearGradient>
</defs>
</svg>
