<svg width="64" height="64" viewBox="0 0 64 64" fill="none" xmlns="http://www.w3.org/2000/svg">
<g clip-path="url(#clip0_4_23577)">
<g opacity="0.3" filter="url(#filter0_f_4_23577)">
<path d="M44.5003 4.50003H19.5001C11.2158 4.50003 4.5 11.2158 4.5 19.5001V44.5003C4.5 52.7846 11.2158 59.5004 19.5001 59.5004H44.5003C52.7846 59.5004 59.5004 52.7846 59.5004 44.5003V19.5001C59.5004 11.2158 52.7846 4.50003 44.5003 4.50003Z" fill="url(#paint0_linear_4_23577)"/>
</g>
<path d="M19.5001 5H44.5007C52.5089 5 59.0008 11.4919 59.0008 19.5001V44.5007C59.0008 52.5089 52.5089 59.0008 44.5007 59.0008H19.5001C11.4919 59.0008 5 52.5089 5 44.5007V19.5001C5 11.4919 11.4919 5 19.5001 5Z" fill="#232323" stroke="url(#paint1_linear_4_23577)"/>
<path opacity="0.25" d="M44.8358 35.4734C47.7352 35.4734 50.0857 33.1229 50.0857 30.2235C50.0857 27.3241 47.7352 24.9737 44.8358 24.9737C41.9364 24.9737 39.5859 27.3241 39.5859 30.2235C39.5859 33.1229 41.9364 35.4734 44.8358 35.4734Z" fill="url(#paint2_linear_4_23577)"/>
<path opacity="0.25" d="M44.8358 35.4734C47.7352 35.4734 50.0857 33.1229 50.0857 30.2235C50.0857 27.3241 47.7352 24.9737 44.8358 24.9737C41.9364 24.9737 39.5859 27.3241 39.5859 30.2235C39.5859 33.1229 41.9364 35.4734 44.8358 35.4734Z" fill="url(#paint3_linear_4_23577)"/>
<path d="M33.1676 42.4959C39.6115 42.4959 44.8353 37.2721 44.8353 30.8282C44.8353 24.3844 39.6115 19.1607 33.1676 19.1607C26.7238 19.1607 21.5 24.3844 21.5 30.8282C21.5 37.2721 26.7238 42.4959 33.1676 42.4959Z" fill="url(#paint4_linear_4_23577)"/>
<path d="M32.8368 42.8323C38.3601 42.8323 42.8376 38.3547 42.8376 32.8314C42.8376 27.3081 38.3601 22.8306 32.8368 22.8306C27.3135 22.8306 22.8359 27.3081 22.8359 32.8314C22.8359 38.3547 27.3135 42.8323 32.8368 42.8323Z" fill="url(#paint5_linear_4_23577)"/>
<path d="M20.3357 44.809C25.4896 44.809 29.6676 40.631 29.6676 35.4771C29.6676 30.3233 25.4896 26.1453 20.3357 26.1453C15.1819 26.1453 11.0039 30.3233 11.0039 35.4771C11.0039 40.631 15.1819 44.809 20.3357 44.809Z" fill="url(#paint6_linear_4_23577)"/>
<path d="M21.8374 44.8392C26.2564 44.8392 29.8388 41.2569 29.8388 36.8378C29.8388 32.4187 26.2564 28.8365 21.8374 28.8365C17.4183 28.8365 13.8359 32.4187 13.8359 36.8378C13.8359 41.2569 17.4183 44.8392 21.8374 44.8392Z" fill="url(#paint7_linear_4_23577)"/>
<path d="M46.0037 44.8203C49.8696 44.8203 53.0036 41.6864 53.0036 37.8205C53.0036 33.9546 49.8696 30.8207 46.0037 30.8207C42.1378 30.8207 39.0039 33.9546 39.0039 37.8205C39.0039 41.6864 42.1378 44.8203 46.0037 44.8203Z" fill="url(#paint8_linear_4_23577)"/>
<path d="M43.8381 44.8392C47.1508 44.8392 49.8363 42.1537 49.8363 38.841C49.8363 35.5282 47.1508 32.8428 43.8381 32.8428C40.5253 32.8428 37.8398 35.5282 37.8398 38.841C37.8398 42.1537 40.5253 44.8392 43.8381 44.8392Z" fill="url(#paint9_linear_4_23577)"/>
<path d="M20.3359 31.9999H46.0032V44.8318H20.3359V31.9999Z" fill="url(#paint10_linear_4_23577)"/>
<path d="M31.8624 26.0434C31.1546 26.0434 30.4537 26.1828 29.7998 26.4536C29.1459 26.7245 28.5517 27.1215 28.0513 27.622C27.5508 28.1225 27.1538 28.7166 26.8829 29.3705C26.6121 30.0244 26.4727 30.7253 26.4727 31.4331C26.4727 32.1409 26.6121 32.8417 26.8829 33.4956C27.1538 34.1495 27.5508 34.7437 28.0513 35.2442C28.5517 35.7447 29.1459 36.1417 29.7998 36.4125C30.4537 36.6834 31.1546 36.8228 31.8624 36.8228C33.2918 36.8228 34.6627 36.2549 35.6735 35.2442C36.6842 34.2334 37.2521 32.8625 37.2521 31.4331C37.2521 30.0036 36.6842 28.6327 35.6735 27.622C34.6627 26.6112 33.2918 26.0434 31.8624 26.0434ZM31.885 28.4094C32.692 28.4094 33.4659 28.73 34.0365 29.3005C34.6071 29.8711 34.9276 30.645 34.9276 31.452C34.9276 32.2589 34.6071 33.0328 34.0365 33.6034C33.4659 34.174 32.692 34.4946 31.885 34.4946C31.0781 34.4946 30.3042 34.174 29.7336 33.6034C29.163 33.0328 28.8425 32.2589 28.8425 31.452C28.8425 30.645 29.163 29.8711 29.7336 29.3005C30.3042 28.73 31.0781 28.4094 31.885 28.4094Z" fill="#232323"/>
<path d="M37.9658 31.8262C36.5522 31.8262 35.2898 32.3855 34.3298 33.27L35.8719 35.0539C35.9983 34.9295 36.1348 34.8157 36.2801 34.7138C36.6775 34.4361 37.1422 34.2704 37.6256 34.2338C37.7919 34.2186 37.9658 34.2262 38.1547 34.2338C38.6834 34.246 39.1981 34.4058 39.6409 34.6949C40.0837 34.9841 40.4368 35.3912 40.6606 35.8703C40.8935 36.3418 41.004 36.8643 40.9819 37.3897V37.3973C40.999 37.699 41.1308 37.9827 41.3505 38.1903C41.5701 38.3978 41.8608 38.5135 42.163 38.5135C42.4652 38.5135 42.7559 38.3978 42.9755 38.1903C43.1952 37.9827 43.3271 37.699 43.3441 37.3973V37.2045C43.3441 37.1138 43.3366 37.0193 43.329 36.9286L43.3252 36.8908L43.3215 36.7963C43.2204 35.4451 42.6085 34.1819 41.6152 33.2602C40.622 32.3384 39.3208 31.8262 37.9658 31.8262ZM25.6632 31.811C24.2337 31.811 22.8628 32.3789 21.852 33.3896C20.8413 34.4004 20.2734 35.7713 20.2734 37.2007C20.2734 38.6302 20.8413 40.0011 21.852 41.0118C22.8628 42.0226 24.2337 42.5905 25.6632 42.5905C27.0926 42.5905 28.4635 42.0226 29.4743 41.0118C30.485 40.0011 31.0529 38.6302 31.0529 37.2007C31.0529 35.7713 30.485 34.4004 29.4743 33.3896C28.4635 32.3789 27.0926 31.811 25.6632 31.811ZM25.6858 34.1771C26.4921 34.1781 27.265 34.4991 27.8348 35.0696C28.4046 35.64 28.7246 36.4134 28.7246 37.2196C28.7246 38.0259 28.4046 38.7993 27.8348 39.3697C27.265 39.9402 26.4921 40.2612 25.6858 40.2622C24.8789 40.2622 24.105 39.9417 23.5344 39.3711C22.9638 38.8005 22.6433 38.0266 22.6433 37.2196C22.6433 36.4127 22.9638 35.6388 23.5344 35.0682C24.105 34.4976 24.8789 34.1771 25.6858 34.1771Z" fill="#232323"/>
<path d="M25.6354 31.7813C25.3543 31.7813 25.0625 31.8121 24.793 31.8537C25.184 32.0219 25.5174 32.3004 25.7525 32.6552C25.9876 33.01 26.1142 33.4256 26.1167 33.8513C26.1167 33.9745 26.089 34.0946 26.0682 34.2124C26.5462 34.2728 27.0022 34.4491 27.3965 34.726C27.7908 35.0029 28.1115 35.3719 28.3306 35.801C28.9397 37.0154 28.7326 38.3861 27.7769 39.3387C28.5177 38.6002 30.0363 37.258 30.9773 36.3786C30.583 33.7796 28.3522 31.7821 25.6346 31.7821L25.6354 31.7813Z" fill="#232323"/>
<path d="M27.9995 41.3735L25.5352 41.4717L34.2093 33.4212L35.759 35.1598L29.0313 41.4075L27.9995 41.3735Z" fill="#232323"/>
<path d="M42.2112 41.6985C42.85 41.6985 43.3678 41.1807 43.3678 40.5419C43.3678 39.9032 42.85 39.3854 42.2112 39.3854C41.5725 39.3854 41.0547 39.9032 41.0547 40.5419C41.0547 41.1807 41.5725 41.6985 42.2112 41.6985Z" fill="#232323"/>
</g>
<defs>
<filter id="filter0_f_4_23577" x="3.26249" y="3.26252" width="57.475" height="57.4754" filterUnits="userSpaceOnUse" color-interpolation-filters="sRGB">
<feFlood flood-opacity="0" result="BackgroundImageFix"/>
<feBlend mode="normal" in="SourceGraphic" in2="BackgroundImageFix" result="shape"/>
<feGaussianBlur stdDeviation="0.618754" result="effect1_foregroundBlur_4_23577"/>
</filter>
<linearGradient id="paint0_linear_4_23577" x1="4.5" y1="32.0002" x2="59.5004" y2="32.0002" gradientUnits="userSpaceOnUse">
<stop stop-color="#FDFC47"/>
<stop offset="1" stop-color="#24FE41"/>
</linearGradient>
<linearGradient id="paint1_linear_4_23577" x1="4.5" y1="32.0004" x2="59.5008" y2="32.0004" gradientUnits="userSpaceOnUse">
<stop stop-color="#FDFC47"/>
<stop offset="1" stop-color="#24FE41"/>
</linearGradient>
<linearGradient id="paint2_linear_4_23577" x1="39.5859" y1="30.2235" x2="50.0857" y2="30.2235" gradientUnits="userSpaceOnUse">
<stop stop-color="#FDFC47"/>
<stop offset="1" stop-color="#24FE41"/>
</linearGradient>
<linearGradient id="paint3_linear_4_23577" x1="39.5859" y1="30.2235" x2="50.0857" y2="30.2235" gradientUnits="userSpaceOnUse">
<stop stop-color="#FDFC47"/>
<stop offset="1" stop-color="#24FE41"/>
</linearGradient>
<linearGradient id="paint4_linear_4_23577" x1="21.5" y1="30.8283" x2="44.8353" y2="30.8283" gradientUnits="userSpaceOnUse">
<stop stop-color="#FDFC47"/>
<stop offset="1" stop-color="#24FE41"/>
</linearGradient>
<linearGradient id="paint5_linear_4_23577" x1="22.8359" y1="32.8314" x2="42.8376" y2="32.8314" gradientUnits="userSpaceOnUse">
<stop stop-color="#FDFC47"/>
<stop offset="1" stop-color="#24FE41"/>
</linearGradient>
<linearGradient id="paint6_linear_4_23577" x1="11.0039" y1="35.4771" x2="29.6676" y2="35.4771" gradientUnits="userSpaceOnUse">
<stop stop-color="#FDFC47"/>
<stop offset="1" stop-color="#24FE41"/>
</linearGradient>
<linearGradient id="paint7_linear_4_23577" x1="13.8359" y1="36.8379" x2="29.8388" y2="36.8379" gradientUnits="userSpaceOnUse">
<stop stop-color="#FDFC47"/>
<stop offset="1" stop-color="#24FE41"/>
</linearGradient>
<linearGradient id="paint8_linear_4_23577" x1="39.0039" y1="37.8205" x2="53.0036" y2="37.8205" gradientUnits="userSpaceOnUse">
<stop stop-color="#FDFC47"/>
<stop offset="1" stop-color="#24FE41"/>
</linearGradient>
<linearGradient id="paint9_linear_4_23577" x1="37.8398" y1="38.841" x2="49.8363" y2="38.841" gradientUnits="userSpaceOnUse">
<stop stop-color="#FDFC47"/>
<stop offset="1" stop-color="#24FE41"/>
</linearGradient>
<linearGradient id="paint10_linear_4_23577" x1="20.3359" y1="38.4159" x2="46.0032" y2="38.4159" gradientUnits="userSpaceOnUse">
<stop stop-color="#FDFC47"/>
<stop offset="1" stop-color="#24FE41"/>
</linearGradient>
<clipPath id="clip0_4_23577">
<rect width="64" height="64" fill="white"/>
</clipPath>
</defs>
</svg>
