<svg width="64" height="64" viewBox="0 0 64 64" fill="none" xmlns="http://www.w3.org/2000/svg">
<g clip-path="url(#clip0_4_23213)">
<g opacity="0.3" filter="url(#filter0_f_4_23213)">
<path d="M44.5 4.5H19.5C11.2157 4.5 4.5 11.2157 4.5 19.5V44.5C4.5 52.7843 11.2157 59.5 19.5 59.5H44.5C52.7843 59.5 59.5 52.7843 59.5 44.5V19.5C59.5 11.2157 52.7843 4.5 44.5 4.5Z" fill="url(#paint0_linear_4_23213)"/>
</g>
<path d="M19.5 5H44.5C52.5081 5 59 11.4919 59 19.5V44.5C59 52.5081 52.5081 59 44.5 59H19.5C11.4919 59 5 52.5081 5 44.5V19.5C5 11.4919 11.4919 5 19.5 5Z" fill="#232323" stroke="url(#paint1_linear_4_23213)"/>
<path d="M43.5434 18.956L38.4578 26.6438L33.2014 18.956H43.5434ZM37.6498 28.4019H26.3678L32.0083 49.8559L37.6498 28.4019ZM26.7438 27.1424H37.2718L32.0074 19.4421L26.7438 27.1424ZM25.5594 26.6437L30.8151 18.9559H20.4741L25.5594 26.6437ZM30.8125 50.2607L25.0656 28.4027H12.6836L30.8125 50.2607ZM12.7015 27.1427H24.3795L19.2925 19.4531L12.7015 27.1427ZM44.7155 19.467L39.6373 27.1427H51.2953L44.7155 19.467ZM38.9509 28.4022L33.2034 50.2592L51.3124 28.4022H38.9509Z" fill="url(#paint2_linear_4_23213)"/>
</g>
<defs>
<filter id="filter0_f_4_23213" x="3.2625" y="3.2625" width="57.475" height="57.475" filterUnits="userSpaceOnUse" color-interpolation-filters="sRGB">
<feFlood flood-opacity="0" result="BackgroundImageFix"/>
<feBlend mode="normal" in="SourceGraphic" in2="BackgroundImageFix" result="shape"/>
<feGaussianBlur stdDeviation="0.61875" result="effect1_foregroundBlur_4_23213"/>
</filter>
<linearGradient id="paint0_linear_4_23213" x1="4.5" y1="32" x2="59.5" y2="32" gradientUnits="userSpaceOnUse">
<stop stop-color="#FDFC47"/>
<stop offset="1" stop-color="#24FE41"/>
</linearGradient>
<linearGradient id="paint1_linear_4_23213" x1="4.5" y1="32" x2="59.5" y2="32" gradientUnits="userSpaceOnUse">
<stop stop-color="#FDFC47"/>
<stop offset="1" stop-color="#24FE41"/>
</linearGradient>
<linearGradient id="paint2_linear_4_23213" x1="12.6836" y1="34.6083" x2="51.3124" y2="34.6083" gradientUnits="userSpaceOnUse">
<stop stop-color="#FDFC47"/>
<stop offset="1" stop-color="#24FE41"/>
</linearGradient>
<clipPath id="clip0_4_23213">
<rect width="64" height="64" fill="white"/>
</clipPath>
</defs>
</svg>
