<svg width="64" height="64" viewBox="0 0 64 64" fill="none" xmlns="http://www.w3.org/2000/svg">
<g opacity="0.3" filter="url(#filter0_f_4_23201)">
<path d="M44.4961 4.95578H19.4961C11.2118 4.95578 4.49609 11.6715 4.49609 19.9558V44.9558C4.49609 53.2401 11.2118 59.9558 19.4961 59.9558H44.4961C52.7804 59.9558 59.4961 53.2401 59.4961 44.9558V19.9558C59.4961 11.6715 52.7804 4.95578 44.4961 4.95578Z" fill="url(#paint0_linear_4_23201)"/>
</g>
<path d="M19.4961 5.45578H44.4961C52.5042 5.45578 58.9961 11.9477 58.9961 19.9558V44.9558C58.9961 52.9639 52.5042 59.4558 44.4961 59.4558H19.4961C11.488 59.4558 4.99609 52.9639 4.99609 44.9558V19.9558C4.99609 11.9477 11.488 5.45578 19.4961 5.45578Z" fill="#232323" stroke="url(#paint1_linear_4_23201)"/>
<path d="M40.7492 47.1557C49.1193 42.3232 51.9871 31.6204 47.1546 23.2503C42.3221 14.8802 31.6193 12.0124 23.2492 16.8448C14.8791 21.6773 12.0113 32.3802 16.8438 40.7503C21.6762 49.1204 32.3791 51.9882 40.7492 47.1557Z" fill="url(#paint2_linear_4_23201)"/>
<path opacity="0.2" d="M31.5842 14.5053C28.6529 14.5745 25.786 15.3791 23.2467 16.8453C20.5028 18.4313 18.241 20.7326 16.7029 23.5037C15.1648 26.2748 14.4081 29.4115 14.5136 32.5791C14.5201 29.5167 15.33 26.5097 16.8625 23.8584C18.395 21.2072 20.5964 19.0044 23.2467 17.4703C27.2661 15.1498 32.0427 14.5209 36.5257 15.7221C41.0087 16.9232 44.831 19.856 47.1517 23.8753C48.5872 26.3665 49.3867 29.1729 49.4796 32.0466C49.4928 28.9605 48.6897 25.9258 47.1517 23.2503C45.5808 20.5295 43.3064 18.2817 40.5672 16.743C37.828 15.2043 34.7251 14.4313 31.5842 14.5053Z" fill="url(#paint3_linear_4_23201)"/>
<path d="M17.4931 41.7856L17.5102 41.8112M17.4931 41.7856L38.803 15.8944C40.0148 16.4045 41.1518 17.0547 42.2075 17.812C42.3403 17.9054 42.4717 18.0006 42.6018 18.0977M17.4931 41.7856C17.2651 41.4482 17.0489 41.1029 16.8449 40.7504L17.4931 41.7856ZM17.5102 41.8112C18.7935 43.7029 20.4349 45.3248 22.3418 46.5854M17.5102 41.8112L17.7701 41.6377L17.7695 41.6368M17.5102 41.8112L38.791 16.2289M22.3418 46.5854C24.8855 43.9456 28.541 40.7579 33.2718 38.2041C37.7813 35.7699 43.7912 33.7831 49.478 32.2508M22.3418 46.5854L22.1168 46.3685C22.1769 46.3061 22.2377 46.2433 22.2992 46.1803M22.3418 46.5854L22.5141 46.3247C22.4421 46.2771 22.3704 46.2289 22.2992 46.1803M49.478 32.2508C49.5161 29.7772 49.0293 27.3237 48.0498 25.052M49.478 32.2508L49.1656 32.2459C49.1668 32.1676 49.1674 32.0893 49.1676 32.011M49.478 32.2508L49.3967 31.949C49.3204 31.9696 49.244 31.9902 49.1676 32.011M48.0498 25.052C47.9794 24.8898 47.9067 24.7298 47.8325 24.5711C47.6254 24.1214 47.3994 23.6807 47.155 23.2502M48.0498 25.052L47.7631 25.1764M48.0498 25.052L47.7628 25.1757C47.7629 25.176 47.763 25.1762 47.7631 25.1764M47.155 23.2502C46.9292 22.8606 46.6872 22.4829 46.4336 22.1137C46.1459 21.6937 45.84 21.2864 45.5168 20.8931M47.155 23.2502L46.8846 23.4069C46.8844 23.4065 46.8842 23.4062 46.8839 23.4058M47.155 23.2502L46.8832 23.4045C46.8835 23.4049 46.8837 23.4054 46.8839 23.4058M45.5168 20.8931C45.4186 20.7739 45.3141 20.6602 45.2097 20.5466C45.1568 20.489 45.1038 20.4314 45.0517 20.373C44.8636 20.1584 44.6703 19.9484 44.4719 19.7432M45.5168 20.8931L45.2757 21.0918C45.2757 21.0918 45.2756 21.0918 45.2756 21.0918M45.5168 20.8931L45.2754 21.0914C45.2754 21.0915 45.2755 21.0916 45.2756 21.0918M44.4719 19.7432C44.2678 19.5361 44.056 19.3378 43.842 19.1414C43.6827 18.9947 43.5208 18.8511 43.3562 18.7104M44.4719 19.7432L44.2493 19.9625C44.249 19.9622 44.2487 19.9619 44.2483 19.9615M44.4719 19.7432L44.2472 19.9604C44.2476 19.9608 44.248 19.9611 44.2483 19.9615M43.3562 18.7104C43.1097 18.5004 42.8597 18.2938 42.6018 18.0977M43.3562 18.7104L43.1535 18.9483C43.3151 19.0863 43.474 19.2273 43.6304 19.3713L43.6306 19.3715C43.8432 19.5667 44.0501 19.7605 44.2483 19.9615M43.3562 18.7104L43.1532 18.948C42.9093 18.7403 42.6648 18.5382 42.4139 18.3473M42.6018 18.0977L42.415 18.3481C42.4146 18.3479 42.4142 18.3476 42.4139 18.3473M42.6018 18.0977L42.4126 18.3464C42.413 18.3467 42.4135 18.347 42.4139 18.3473M25.8217 21.5526C29.1735 19.7397 33.9428 17.891 38.791 16.2289M25.8217 21.5526L25.6731 21.2777L25.8217 21.5526ZM25.8217 21.5526C25.3291 21.8191 24.8108 22.1131 24.2703 22.4279C21.5635 24.0044 18.3436 26.1206 15.25 28.2447C15.1439 28.7155 15.0587 29.1894 14.9927 29.6648C14.9839 29.7297 14.9756 29.7946 14.9676 29.8596L14.9674 29.8608C14.9101 30.3118 14.8701 30.7635 14.8488 31.2147C14.841 31.4006 14.8362 31.5866 14.8344 31.7726L14.8344 31.7742C14.8291 32.1306 14.8321 32.4844 14.8487 32.8365L14.8487 32.837C14.8632 33.1532 14.8864 33.469 14.9183 33.7839C14.9407 34.0027 14.9686 34.2219 14.9997 34.4416C15.0512 34.7994 15.114 35.1556 15.1879 35.5095L15.188 35.5101C15.2251 35.6891 15.2625 35.8646 15.3042 36.0384C15.3998 36.4329 15.5094 36.8239 15.6326 37.2107L15.6328 37.2113C15.645 37.2498 15.6567 37.2873 15.6682 37.3241C15.699 37.4226 15.7284 37.5165 15.7609 37.6112C15.9115 38.0448 16.0794 38.4722 16.2643 38.8924L16.2647 38.8934C16.2867 38.9439 16.3018 38.9809 16.3157 39.0148C16.3318 39.0542 16.3462 39.0894 16.3677 39.1368L16.0832 39.2661L16.3677 39.1368C16.5937 39.6342 16.8433 40.1206 17.1156 40.5943C17.3159 40.9403 17.5281 41.2793 17.752 41.6106L17.7533 41.6125L17.7688 41.6358C17.7691 41.6361 17.7693 41.6364 17.7695 41.6368M38.791 16.2289C39.9389 16.7221 41.019 17.344 42.0254 18.0659L42.0277 18.0676C42.1577 18.1591 42.2865 18.2523 42.4139 18.3473M38.791 16.2289L17.7695 41.6368M17.7695 41.6368C18.9813 43.4228 20.5181 44.9639 22.2992 46.1803M22.2992 46.1803C24.85 43.5618 28.4689 40.4416 33.1233 37.9291C37.6044 35.5102 43.5416 33.5367 49.1676 32.011M49.1676 32.011C49.1716 29.6615 48.694 27.3353 47.7631 25.1764M47.7631 25.1764C47.6941 25.0174 47.6227 24.8601 47.5494 24.7034L47.5486 24.7018C47.3455 24.2606 47.1237 23.8282 46.8839 23.4058M46.8839 23.4058C46.663 23.0245 46.4256 22.654 46.176 22.2907L46.1757 22.2903C45.8933 21.8779 45.5929 21.478 45.2756 21.0918M45.2756 21.0918C45.1824 20.9787 45.088 20.876 44.9875 20.7666C44.9332 20.7077 44.8772 20.6468 44.8187 20.5813L44.8167 20.579L44.8167 20.579C44.6323 20.3686 44.4428 20.1627 44.2483 19.9615M14.5219 31.7697C14.5166 32.1307 14.5196 32.4911 14.5366 32.8512L14.5219 31.7697ZM29.5002 20.9008L29.5002 20.9008C28.5759 21.4342 27.7659 22.1444 27.1162 22.9909C26.4665 23.8375 25.9899 24.8037 25.7137 25.8344C25.4375 26.8651 25.367 27.9401 25.5063 28.9981C25.6456 30.056 25.992 31.0761 26.5256 32.0002C27.059 32.9244 27.7692 33.7345 28.6157 34.3842C29.4622 35.0339 30.4284 35.5104 31.4591 35.7866C32.4899 36.0629 33.5649 36.1333 34.6228 35.994C35.6808 35.8547 36.7009 35.5084 37.625 34.9747C38.5492 34.4413 39.3593 33.7311 40.0089 32.8846C40.6586 32.0381 41.1352 31.0719 41.4114 30.0412C41.6876 29.0105 41.7581 27.9355 41.6188 26.8775C41.4795 25.8196 41.1331 24.7994 40.5995 23.8754C39.8701 22.612 38.814 21.5683 37.542 20.8539C36.2701 20.1395 34.8293 19.7808 33.3709 19.8154C32.0101 19.8472 30.6791 20.2204 29.5002 20.9008Z" fill="#232323" stroke="url(#paint4_linear_4_23201)" stroke-width="0.625"/>
<path d="M32.2728 32.6262L33.4624 31.9406L29.6463 25.3419L27.625 26.5069L28.2705 27.6231L29.1022 27.1436L32.2728 32.6262Z" fill="#2D3337" fill-opacity="0.99608"/>
<path d="M35.2003 26.7019L35.3971 26.5885C36.1842 26.1349 36.947 26.2785 37.3343 26.9482C37.7009 27.5822 37.5312 28.2991 36.932 28.6445C36.3595 28.9744 35.7068 28.8149 35.2648 28.2362L34.0663 28.927C34.8556 30.1269 36.3008 30.4607 37.5709 29.7287C38.8499 28.9915 39.2468 27.5127 38.5084 26.2358C38.0281 25.4054 37.3488 25.0349 36.4935 25.1232C36.718 24.6247 36.6865 24.1785 36.3922 23.6696C35.8035 22.6516 34.6044 22.3309 33.5848 22.9185C33.066 23.2175 32.7107 23.6961 32.5864 24.244C32.4847 24.7074 32.5426 25.055 32.8077 25.6166L34.0151 24.9206C33.8313 24.479 33.9017 24.1883 34.2237 24.0028C34.5636 23.8069 34.9548 23.9266 35.1665 24.2927C35.3266 24.5695 35.3112 24.8522 35.1227 25.1037C35.0068 25.2539 34.8562 25.3645 34.5394 25.559L35.2003 26.7019Z" fill="#2D3337" fill-opacity="0.99608"/>
<defs>
<filter id="filter0_f_4_23201" x="3.25859" y="3.71828" width="57.475" height="57.475" filterUnits="userSpaceOnUse" color-interpolation-filters="sRGB">
<feFlood flood-opacity="0" result="BackgroundImageFix"/>
<feBlend mode="normal" in="SourceGraphic" in2="BackgroundImageFix" result="shape"/>
<feGaussianBlur stdDeviation="0.61875" result="effect1_foregroundBlur_4_23201"/>
</filter>
<linearGradient id="paint0_linear_4_23201" x1="4.49609" y1="32.4558" x2="59.4961" y2="32.4558" gradientUnits="userSpaceOnUse">
<stop stop-color="#FDFC47"/>
<stop offset="1" stop-color="#24FE41"/>
</linearGradient>
<linearGradient id="paint1_linear_4_23201" x1="4.49609" y1="32.4558" x2="59.4961" y2="32.4558" gradientUnits="userSpaceOnUse">
<stop stop-color="#FDFC47"/>
<stop offset="1" stop-color="#24FE41"/>
</linearGradient>
<linearGradient id="paint2_linear_4_23201" x1="16.8438" y1="40.7503" x2="47.1546" y2="23.2503" gradientUnits="userSpaceOnUse">
<stop stop-color="#FDFC47"/>
<stop offset="1" stop-color="#24FE41"/>
</linearGradient>
<linearGradient id="paint3_linear_4_23201" x1="14.5039" y1="23.5398" x2="49.4798" y2="23.5398" gradientUnits="userSpaceOnUse">
<stop stop-color="#FDFC47"/>
<stop offset="1" stop-color="#24FE41"/>
</linearGradient>
<linearGradient id="paint4_linear_4_23201" x1="14.5195" y1="31.2398" x2="49.4801" y2="31.2398" gradientUnits="userSpaceOnUse">
<stop stop-color="#FDFC47"/>
<stop offset="1" stop-color="#24FE41"/>
</linearGradient>
</defs>
</svg>
