<svg width="64" height="64" viewBox="0 0 64 64" fill="none" xmlns="http://www.w3.org/2000/svg">
<g clip-path="url(#clip0_4_23168)">
<g opacity="0.3" filter="url(#filter0_f_4_23168)">
<path d="M44.5 4.5H19.5C11.2157 4.5 4.5 11.2157 4.5 19.5V44.5C4.5 52.7843 11.2157 59.5 19.5 59.5H44.5C52.7843 59.5 59.5 52.7843 59.5 44.5V19.5C59.5 11.2157 52.7843 4.5 44.5 4.5Z" fill="url(#paint0_linear_4_23168)"/>
</g>
<path d="M19.5 5H44.5C52.5081 5 59 11.4919 59 19.5V44.5C59 52.5081 52.5081 59 44.5 59H19.5C11.4919 59 5 52.5081 5 44.5V19.5C5 11.4919 11.4919 5 19.5 5Z" fill="#232323" stroke="url(#paint1_linear_4_23168)"/>
<path d="M17.957 15.404V48.597H36.468C41.7725 48.5969 46.0429 44.3266 46.0429 39.0221C46.0429 35.9741 44.6284 33.273 42.4224 31.5218C44.618 29.8966 46.0429 27.294 46.0429 24.3406C46.0429 19.3898 42.0572 15.404 37.1063 15.404H17.957ZM24.3403 21.7872H39.6603L38.3837 26.8938H30.7238V30.7238H37.1071L35.8305 35.8304H30.7239V42.2137H24.3407L24.3403 21.7872Z" fill="url(#paint2_linear_4_23168)"/>
</g>
<defs>
<filter id="filter0_f_4_23168" x="3.2625" y="3.2625" width="57.475" height="57.475" filterUnits="userSpaceOnUse" color-interpolation-filters="sRGB">
<feFlood flood-opacity="0" result="BackgroundImageFix"/>
<feBlend mode="normal" in="SourceGraphic" in2="BackgroundImageFix" result="shape"/>
<feGaussianBlur stdDeviation="0.61875" result="effect1_foregroundBlur_4_23168"/>
</filter>
<linearGradient id="paint0_linear_4_23168" x1="4.5" y1="32" x2="59.5" y2="32" gradientUnits="userSpaceOnUse">
<stop stop-color="#FDFC47"/>
<stop offset="1" stop-color="#24FE41"/>
</linearGradient>
<linearGradient id="paint1_linear_4_23168" x1="4.5" y1="32" x2="59.5" y2="32" gradientUnits="userSpaceOnUse">
<stop stop-color="#FDFC47"/>
<stop offset="1" stop-color="#24FE41"/>
</linearGradient>
<linearGradient id="paint2_linear_4_23168" x1="17.957" y1="32.0005" x2="46.0429" y2="32.0005" gradientUnits="userSpaceOnUse">
<stop stop-color="#FDFC47"/>
<stop offset="1" stop-color="#24FE41"/>
</linearGradient>
<clipPath id="clip0_4_23168">
<rect width="64" height="64" fill="white"/>
</clipPath>
</defs>
</svg>
