<svg width="64" height="64" viewBox="0 0 64 64" fill="none" xmlns="http://www.w3.org/2000/svg">
<g clip-path="url(#clip0_4_23110)">
<g opacity="0.3" filter="url(#filter0_f_4_23110)">
<path d="M44.5 4.49979H19.5C11.2157 4.49979 4.5 11.2155 4.5 19.4998V44.4998C4.5 52.7841 11.2157 59.4998 19.5 59.4998H44.5C52.7843 59.4998 59.5 52.7841 59.5 44.4998V19.4998C59.5 11.2155 52.7843 4.49979 44.5 4.49979Z" fill="url(#paint0_linear_4_23110)"/>
</g>
<path d="M19.5 4.9996H44.501C52.5091 4.9996 59.001 11.4915 59.001 19.4996V44.5006C59.001 52.5087 52.5091 59.0006 44.501 59.0006H19.5C11.4919 59.0006 5 52.5087 5 44.5006V19.4996C5 11.4915 11.4919 4.9996 19.5 4.9996Z" fill="#232323" stroke="url(#paint1_linear_4_23110)"/>
<path d="M46.2766 28.277C46.8738 24.2852 43.8341 22.1393 39.6778 20.7077L41.0261 15.3003L37.7342 14.48L36.4216 19.7449C35.5562 19.5292 34.6673 19.3259 33.7841 19.1243L35.1061 13.8247L31.8161 13.0044L30.4669 18.41C29.7506 18.247 29.0474 18.0856 28.3648 17.9159L28.3689 17.8996L23.829 16.7662L22.9533 20.2818C22.9533 20.2818 25.3958 20.8415 25.3442 20.8761C26.6775 21.209 26.9184 22.0911 26.8781 22.7905L25.3423 28.9508C25.4342 28.975 25.5532 29.0082 25.6845 29.0606C25.5748 29.0334 25.4577 29.0033 25.3366 28.9744L23.1839 37.604C23.0209 38.009 22.6073 38.6165 21.6753 38.3859C21.7081 38.4338 19.2826 37.7887 19.2826 37.7887L17.6484 41.5565L21.9323 42.6243C22.7293 42.8239 23.5103 43.033 24.2791 43.2299L22.9168 48.6992L26.205 49.5195L27.5542 44.1083C28.4525 44.352 29.3244 44.577 30.1776 44.7889L28.8331 50.1748L32.125 50.9951L33.4874 45.5361C39.1008 46.5983 43.3219 46.1699 45.0984 41.0933C46.5301 37.0058 45.0272 34.6481 42.0737 33.1106C44.2246 32.6147 45.8443 31.1992 46.2766 28.277ZM38.7552 38.823C37.7379 42.9105 30.855 40.7008 28.6232 40.1468L30.4309 32.9009C32.6624 33.4578 39.8184 34.5603 38.7552 38.823ZM39.7734 28.218C38.8452 31.9361 33.1164 30.047 31.2581 29.5839L32.897 23.0121C34.7553 23.4752 40.74 24.3396 39.7734 28.218Z" fill="url(#paint2_linear_4_23110)"/>
</g>
<defs>
<filter id="filter0_f_4_23110" x="3.2625" y="3.26229" width="57.475" height="57.475" filterUnits="userSpaceOnUse" color-interpolation-filters="sRGB">
<feFlood flood-opacity="0" result="BackgroundImageFix"/>
<feBlend mode="normal" in="SourceGraphic" in2="BackgroundImageFix" result="shape"/>
<feGaussianBlur stdDeviation="0.61875" result="effect1_foregroundBlur_4_23110"/>
</filter>
<linearGradient id="paint0_linear_4_23110" x1="4.5" y1="31.9998" x2="59.5" y2="31.9998" gradientUnits="userSpaceOnUse">
<stop stop-color="#FDFC47"/>
<stop offset="1" stop-color="#24FE41"/>
</linearGradient>
<linearGradient id="paint1_linear_4_23110" x1="4.5" y1="32.0001" x2="59.501" y2="32.0001" gradientUnits="userSpaceOnUse">
<stop stop-color="#FDFC47"/>
<stop offset="1" stop-color="#24FE41"/>
</linearGradient>
<linearGradient id="paint2_linear_4_23110" x1="17.6484" y1="31.9998" x2="46.3516" y2="31.9998" gradientUnits="userSpaceOnUse">
<stop stop-color="#FDFC47"/>
<stop offset="1" stop-color="#24FE41"/>
</linearGradient>
<clipPath id="clip0_4_23110">
<rect width="64" height="64" fill="white"/>
</clipPath>
</defs>
</svg>
