<svg width="64" height="64" viewBox="0 0 64 64" fill="none" xmlns="http://www.w3.org/2000/svg">
<g clip-path="url(#clip0_4_23084)">
<g opacity="0.3" filter="url(#filter0_f_4_23084)">
<path d="M44.5 4.5H19.5C11.2157 4.5 4.5 11.2157 4.5 19.5V44.5C4.5 52.7843 11.2157 59.5 19.5 59.5H44.5C52.7843 59.5 59.5 52.7843 59.5 44.5V19.5C59.5 11.2157 52.7843 4.5 44.5 4.5Z" fill="#232323"/>
<path d="M19.5 5H44.5C52.5081 5 59 11.4919 59 19.5V44.5C59 52.5081 52.5081 59 44.5 59H19.5C11.4919 59 5 52.5081 5 44.5V19.5C5 11.4919 11.4919 5 19.5 5Z" stroke="url(#paint0_linear_4_23084)"/>
</g>
<path d="M19.5 5H44.5C52.5081 5 59 11.4919 59 19.5V44.5C59 52.5081 52.5081 59 44.5 59H19.5C11.4919 59 5 52.5081 5 44.5V19.5C5 11.4919 11.4919 5 19.5 5Z" fill="#232323" stroke="url(#paint1_linear_4_23084)"/>
<mask id="path-4-inside-1_4_23084" fill="white">
<path d="M31.6019 12.8488L23.1042 33.9948L50.3937 37.4266C50.4141 37.3615 50.4141 37.2925 50.4333 37.2274L29.4877 27.5321L31.6824 12.8501H31.6019M38.0659 14.2864C37.9267 14.3119 37.7965 14.4613 37.7467 14.446L31.9211 25.8571L49.1719 35.103C49.6213 35.0825 49.606 34.8132 49.4362 34.554L37.6663 23.8221L38.385 14.8469C38.3506 14.3783 38.205 14.2621 38.0659 14.2864ZM24.2609 14.5277C17.5633 17.51 12.8906 24.1974 12.8906 32.0031C12.8906 42.5806 21.4637 51.1536 32.0411 51.1536C39.8954 51.1536 46.644 46.4311 49.5957 39.6633H19.6725M41.6164 16.4785L39.5022 22.982L49.0123 32.2087C49.2868 32.6083 50.7933 32.847 51.1125 31.6801C51.1125 25.4269 48.2054 20.2103 43.5723 16.7185C42.4896 16.1593 41.79 16.0252 41.6164 16.4785Z"/>
</mask>
<path d="M31.6019 12.8488L23.1042 33.9948L50.3937 37.4266C50.4141 37.3615 50.4141 37.2925 50.4333 37.2274L29.4877 27.5321L31.6824 12.8501H31.6019M38.0659 14.2864C37.9267 14.3119 37.7965 14.4613 37.7467 14.446L31.9211 25.8571L49.1719 35.103C49.6213 35.0825 49.606 34.8132 49.4362 34.554L37.6663 23.8221L38.385 14.8469C38.3506 14.3783 38.205 14.2621 38.0659 14.2864ZM24.2609 14.5277C17.5633 17.51 12.8906 24.1974 12.8906 32.0031C12.8906 42.5806 21.4637 51.1536 32.0411 51.1536C39.8954 51.1536 46.644 46.4311 49.5957 39.6633H19.6725M41.6164 16.4785L39.5022 22.982L49.0123 32.2087C49.2868 32.6083 50.7933 32.847 51.1125 31.6801C51.1125 25.4269 48.2054 20.2103 43.5723 16.7185C42.4896 16.1593 41.79 16.0252 41.6164 16.4785Z" fill="url(#paint2_linear_4_23084)"/>
<path d="M23.1042 33.9948L22.1763 33.6219L21.6928 34.8252L22.9795 34.987L23.1042 33.9948ZM50.3937 37.4266L50.2689 38.4188L51.0978 38.523L51.3478 37.7259L50.3937 37.4266ZM50.4333 37.2274L51.3926 37.5096L51.636 36.6822L50.8533 36.3199L50.4333 37.2274ZM29.4877 27.5321L28.4987 27.3843L28.388 28.125L29.0677 28.4396L29.4877 27.5321ZM31.6824 12.8501L32.6714 12.9979L32.843 11.8501H31.6824V12.8501ZM38.0659 14.2864L37.8941 13.3012L37.8854 13.3028L38.0659 14.2864ZM37.7467 14.446L38.0408 13.4902L37.238 13.2432L36.856 13.9913L37.7467 14.446ZM31.9211 25.8571L31.0305 25.4024L30.5848 26.2754L31.4487 26.7385L31.9211 25.8571ZM49.1719 35.103L48.6995 35.9844L48.9422 36.1144L49.2173 36.1019L49.1719 35.103ZM49.4362 34.554L50.2726 34.006L50.2033 33.9002L50.1099 33.8151L49.4362 34.554ZM37.6663 23.8221L36.6695 23.7422L36.6303 24.2308L36.9925 24.561L37.6663 23.8221ZM38.385 14.8469L39.3819 14.9267L39.388 14.8501L39.3824 14.7735L38.385 14.8469ZM49.5957 39.6633L50.5124 40.0631L51.1229 38.6633H49.5957V39.6633ZM41.6164 16.4785L40.6826 16.1207L40.6733 16.1448L40.6654 16.1693L41.6164 16.4785ZM39.5022 22.982L38.5512 22.6728L38.3584 23.2656L38.8058 23.6997L39.5022 22.982ZM49.0123 32.2087L49.8366 31.6425L49.7801 31.5604L49.7086 31.491L49.0123 32.2087ZM51.1125 31.6801L52.077 31.944L52.1125 31.8144V31.6801H51.1125ZM43.5723 16.7185L44.1741 15.9199L44.1065 15.8689L44.0312 15.83L43.5723 16.7185ZM30.6741 12.4759L22.1763 33.6219L24.0321 34.3677L32.5298 13.2217L30.6741 12.4759ZM22.9795 34.987L50.2689 38.4188L50.5185 36.4344L23.229 33.0026L22.9795 34.987ZM51.3478 37.7259C51.3678 37.6622 51.3802 37.6061 51.3881 37.5644C51.3957 37.5246 51.4009 37.4886 51.4032 37.473C51.4065 37.4512 51.4064 37.4522 51.4059 37.455C51.4049 37.4603 51.4011 37.4809 51.3926 37.5096L49.4739 36.9452C49.4559 37.0065 49.4449 37.0601 49.4379 37.0987C49.4313 37.1347 49.4264 37.1693 49.4247 37.181C49.422 37.1989 49.4222 37.1964 49.4235 37.1899C49.4251 37.1815 49.4298 37.1584 49.4395 37.1272L51.3478 37.7259ZM50.8533 36.3199L29.9078 26.6246L29.0677 28.4396L50.0132 38.1349L50.8533 36.3199ZM30.4767 27.68L32.6714 12.9979L30.6934 12.7023L28.4987 27.3843L30.4767 27.68ZM31.6824 11.8501H31.6019V13.8501H31.6824V11.8501ZM37.8854 13.3028C37.7134 13.3344 37.5782 13.3969 37.4939 13.4418C37.4085 13.4873 37.3388 13.5351 37.3062 13.5575C37.2822 13.574 37.2817 13.5745 37.2729 13.5804C37.2669 13.5845 37.2793 13.5757 37.301 13.5633C37.3128 13.5566 37.3325 13.5457 37.3583 13.5336C37.3835 13.5218 37.4225 13.505 37.4726 13.4895C37.5218 13.4742 37.5956 13.4558 37.6876 13.4494C37.7812 13.4429 37.9043 13.4482 38.0408 13.4902L37.4526 15.4017C37.7321 15.4877 37.9653 15.4307 38.0654 15.3996C38.1749 15.3656 38.2572 15.3205 38.295 15.2988C38.3381 15.2742 38.3739 15.2503 38.3928 15.2375C38.409 15.2265 38.4352 15.2083 38.4393 15.2055C38.463 15.1893 38.4549 15.1959 38.4347 15.2067C38.4155 15.2169 38.3488 15.2512 38.2463 15.27L37.8854 13.3028ZM36.856 13.9913L31.0305 25.4024L32.8118 26.3118L38.6373 14.9007L36.856 13.9913ZM31.4487 26.7385L48.6995 35.9844L49.6443 34.2216L32.3935 24.9757L31.4487 26.7385ZM49.2173 36.1019C49.5719 36.0858 50.2708 35.9394 50.4929 35.2091C50.5836 34.9111 50.5416 34.6421 50.4888 34.4633C50.435 34.2806 50.3509 34.1254 50.2726 34.006L48.5997 35.102C48.6063 35.1121 48.5879 35.0878 48.5706 35.0291C48.5544 34.9744 48.52 34.8227 48.5795 34.627C48.6479 34.4021 48.8014 34.2468 48.9485 34.1667C49.0699 34.1006 49.1523 34.1028 49.1265 34.104L49.2173 36.1019ZM50.1099 33.8151L38.34 23.0831L36.9925 24.561L48.7624 35.2929L50.1099 33.8151ZM38.6631 23.9019L39.3819 14.9267L37.3882 14.767L36.6695 23.7422L38.6631 23.9019ZM39.3824 14.7735C39.3606 14.4773 39.297 14.1185 39.089 13.8157C38.9748 13.6494 38.8059 13.485 38.5712 13.382C38.3342 13.2781 38.0962 13.266 37.8941 13.3012L38.2376 15.2715C38.1051 15.2946 37.9375 15.288 37.768 15.2136C37.6008 15.1403 37.4965 15.0296 37.4404 14.9479C37.3486 14.8143 37.3751 14.7478 37.3877 14.9202L39.3824 14.7735ZM23.8541 13.6142C16.8107 16.7505 11.8906 23.7864 11.8906 32.0031H13.8906C13.8906 24.6084 18.316 18.2696 24.6677 15.4412L23.8541 13.6142ZM11.8906 32.0031C11.8906 43.1329 20.9114 52.1536 32.0411 52.1536V50.1536C22.016 50.1536 13.8906 42.0283 13.8906 32.0031H11.8906ZM32.0411 52.1536C40.3066 52.1536 47.4071 47.1829 50.5124 40.0631L48.6791 39.2636C45.8809 45.6794 39.4841 50.1536 32.0411 50.1536V52.1536ZM49.5957 38.6633H19.6725V40.6633H49.5957V38.6633ZM40.6654 16.1693L38.5512 22.6728L40.4532 23.2911L42.5674 16.7876L40.6654 16.1693ZM38.8058 23.6997L48.316 32.9264L49.7086 31.491L40.1985 22.2643L38.8058 23.6997ZM48.188 32.7749C48.4398 33.1415 48.834 33.3222 49.101 33.4094C49.408 33.5096 49.7646 33.5577 50.1257 33.5286C50.8706 33.4688 51.7764 33.0431 52.077 31.944L50.1479 31.4163C50.136 31.46 50.1236 31.4794 50.1197 31.4849C50.1159 31.4904 50.113 31.4932 50.1085 31.4964C50.0969 31.5047 50.0542 31.5279 49.9655 31.5351C49.8758 31.5423 49.7844 31.5286 49.7217 31.5082C49.6917 31.4984 49.6853 31.4925 49.6977 31.5002C49.7039 31.5041 49.769 31.5442 49.8366 31.6425L48.188 32.7749ZM52.1125 31.6801C52.1125 25.0905 49.0396 19.5867 44.1741 15.9199L42.9704 17.5171C47.3713 20.8338 50.1125 25.7632 50.1125 31.6801H52.1125ZM44.0312 15.83C43.4683 15.5393 42.899 15.2999 42.3929 15.2286C42.1365 15.1925 41.8046 15.1855 41.4741 15.3166C41.1019 15.4643 40.824 15.7516 40.6826 16.1207L42.5502 16.8362C42.4956 16.9788 42.3702 17.1128 42.2118 17.1756C42.0952 17.2219 42.0384 17.1984 42.114 17.209C42.2718 17.2313 42.5937 17.3385 43.1134 17.607L44.0312 15.83Z" fill="url(#paint3_linear_4_23084)" mask="url(#path-4-inside-1_4_23084)"/>
</g>
<defs>
<filter id="filter0_f_4_23084" x="3.2625" y="3.2625" width="57.475" height="57.475" filterUnits="userSpaceOnUse" color-interpolation-filters="sRGB">
<feFlood flood-opacity="0" result="BackgroundImageFix"/>
<feBlend mode="normal" in="SourceGraphic" in2="BackgroundImageFix" result="shape"/>
<feGaussianBlur stdDeviation="0.61875" result="effect1_foregroundBlur_4_23084"/>
</filter>
<linearGradient id="paint0_linear_4_23084" x1="4.5" y1="32" x2="59.5" y2="32" gradientUnits="userSpaceOnUse">
<stop stop-color="#FDFC47"/>
<stop offset="1" stop-color="#24FE41"/>
</linearGradient>
<linearGradient id="paint1_linear_4_23084" x1="4.5" y1="32" x2="59.5" y2="32" gradientUnits="userSpaceOnUse">
<stop stop-color="#FDFC47"/>
<stop offset="1" stop-color="#24FE41"/>
</linearGradient>
<linearGradient id="paint2_linear_4_23084" x1="12.8906" y1="32.0012" x2="51.1125" y2="32.0012" gradientUnits="userSpaceOnUse">
<stop stop-color="#FDFC47"/>
<stop offset="1" stop-color="#24FE41"/>
</linearGradient>
<linearGradient id="paint3_linear_4_23084" x1="12.8906" y1="32.0012" x2="51.1125" y2="32.0012" gradientUnits="userSpaceOnUse">
<stop stop-color="#FDFC47"/>
<stop offset="1" stop-color="#24FE41"/>
</linearGradient>
<clipPath id="clip0_4_23084">
<rect width="64" height="64" fill="white"/>
</clipPath>
</defs>
</svg>
