<svg width="64" height="64" viewBox="0 0 64 64" fill="none" xmlns="http://www.w3.org/2000/svg">
<g clip-path="url(#clip0_4_21892)">
<g opacity="0.3" filter="url(#filter0_f_4_21892)">
<path d="M44.5 4.5H19.5C11.2157 4.5 4.5 11.2157 4.5 19.5V44.5C4.5 52.7843 11.2157 59.5 19.5 59.5H44.5C52.7843 59.5 59.5 52.7843 59.5 44.5V19.5C59.5 11.2157 52.7843 4.5 44.5 4.5Z" fill="url(#paint0_linear_4_21892)"/>
</g>
<path d="M19.5 5H44.5C52.5081 5 59 11.4919 59 19.5V44.5C59 52.5081 52.5081 59 44.5 59H19.5C11.4919 59 5 52.5081 5 44.5V19.5C5 11.4919 11.4919 5 19.5 5Z" fill="#232323" stroke="url(#paint1_linear_4_21892)"/>
<path d="M34.5889 16.0156C34.5889 16.0156 29.4733 16.0433 29.2281 16.0515C28.6416 16.1384 27.9835 16.6261 27.9835 16.6261C27.9983 16.6304 28.0137 16.6057 28.0304 16.6089C28.4822 16.339 29.1901 16.2861 29.6325 16.7323L30.6038 18.4141L32.2699 21.2998L34.3718 24.9398C33.4224 25.4818 31.6016 26.5388 31.6016 26.5388L40.3387 28.8795L42.6825 20.1473C42.6825 20.1473 39.9088 21.7381 39.9108 21.7416L37.0188 16.7337C36.6944 16.2763 36.1604 16.1042 35.7009 16.0279C35.5983 16.0132 35.1135 16.0081 34.5889 16.0156ZM24.9899 27.8019L16.2545 30.1395C16.2545 30.1395 19.0211 31.7451 19.0231 31.7417L16.1311 36.7496C15.8973 37.2592 16.0159 37.8079 16.1795 38.2439C16.2182 38.3401 16.4557 38.763 16.7245 39.2137C16.7245 39.2137 19.3057 43.6292 19.4353 43.8374C19.8038 44.3018 20.555 44.6291 20.555 44.6291C20.5513 44.6142 20.523 44.614 20.5175 44.5979C20.0578 44.3415 19.6574 43.7535 19.8226 43.1471L20.7939 41.4654L22.46 38.5796L24.5619 34.9397C25.5059 35.4909 27.3305 36.5387 27.3305 36.5387L24.9899 27.8019ZM37.587 35.1958L31.1909 41.5919L37.5823 47.988C37.5823 47.988 37.5909 44.7899 37.587 44.7899H43.3694C43.9277 44.7376 44.3431 44.3611 44.6389 44.0013C44.7029 43.9198 44.9515 43.5022 45.2073 43.0441C45.2073 43.0441 47.7402 38.6009 47.8557 38.3845C48.0736 37.8331 47.9806 37.0197 47.9806 37.0197C47.9696 37.0304 47.984 37.0553 47.9728 37.0681C47.9806 37.5944 47.6717 38.2338 47.064 38.3939H37.5866C37.5919 37.3007 37.587 35.1958 37.587 35.1958Z" fill="url(#paint2_linear_4_21892)"/>
<path opacity="0.5" d="M23.1988 24.4344L28.6125 27.5717C28.6276 27.5611 29.1082 26.7528 29.676 25.7695C30.2443 24.7887 31.0643 23.3819 31.4902 22.6468L31.493 22.6452L32.2694 21.3005L29.6322 16.7327C29.1857 16.2824 28.4723 16.2604 28.0159 16.6163C27.7281 16.847 27.6323 16.9577 27.3763 17.3825C27.0143 17.982 23.2023 24.4323 23.1953 24.4363" fill="url(#paint3_linear_4_21892)"/>
<path opacity="0.5" d="M43.4731 28.8925L38.1875 32.0921C38.1891 32.1105 38.6488 32.9308 39.2165 33.9142C39.7817 34.8968 40.59 36.3103 41.0138 37.0467V37.0499L41.7901 38.3946H47.0645C47.6777 38.2331 48.0535 37.6263 47.9735 37.0531C47.9175 36.6885 47.8696 36.5502 47.6297 36.116C47.2915 35.5028 43.4731 28.8965 43.4731 28.8885" fill="url(#paint4_linear_4_21892)"/>
<path opacity="0.5" d="M29.5907 44.7883L29.5925 38.3943C29.5925 38.3943 24.7061 38.3929 22.4613 38.3943L19.8241 43.1475C19.6573 43.7593 19.995 44.3882 20.5314 44.6056C20.8751 44.7394 21.0189 44.767 21.5148 44.7763C22.215 44.7901 29.5875 44.7864 29.5939 44.7904" fill="url(#paint5_linear_4_21892)"/>
</g>
<defs>
<filter id="filter0_f_4_21892" x="3.2625" y="3.2625" width="57.475" height="57.475" filterUnits="userSpaceOnUse" color-interpolation-filters="sRGB">
<feFlood flood-opacity="0" result="BackgroundImageFix"/>
<feBlend mode="normal" in="SourceGraphic" in2="BackgroundImageFix" result="shape"/>
<feGaussianBlur stdDeviation="0.61875" result="effect1_foregroundBlur_4_21892"/>
</filter>
<linearGradient id="paint0_linear_4_21892" x1="4.5" y1="32" x2="59.5" y2="32" gradientUnits="userSpaceOnUse">
<stop stop-color="#FDFC47"/>
<stop offset="1" stop-color="#24FE41"/>
</linearGradient>
<linearGradient id="paint1_linear_4_21892" x1="4.5" y1="32" x2="59.5" y2="32" gradientUnits="userSpaceOnUse">
<stop stop-color="#FDFC47"/>
<stop offset="1" stop-color="#24FE41"/>
</linearGradient>
<linearGradient id="paint2_linear_4_21892" x1="16" y1="32" x2="48.0004" y2="32" gradientUnits="userSpaceOnUse">
<stop stop-color="#FDFC47"/>
<stop offset="1" stop-color="#24FE41"/>
</linearGradient>
<linearGradient id="paint3_linear_4_21892" x1="23.1953" y1="21.9708" x2="32.2694" y2="21.9708" gradientUnits="userSpaceOnUse">
<stop stop-color="#FDFC47"/>
<stop offset="1" stop-color="#24FE41"/>
</linearGradient>
<linearGradient id="paint4_linear_4_21892" x1="38.1875" y1="33.6415" x2="47.9842" y2="33.6415" gradientUnits="userSpaceOnUse">
<stop stop-color="#FDFC47"/>
<stop offset="1" stop-color="#24FE41"/>
</linearGradient>
<linearGradient id="paint5_linear_4_21892" x1="19.7812" y1="41.592" x2="29.5939" y2="41.592" gradientUnits="userSpaceOnUse">
<stop stop-color="#FDFC47"/>
<stop offset="1" stop-color="#24FE41"/>
</linearGradient>
<clipPath id="clip0_4_21892">
<rect width="64" height="64" fill="white"/>
</clipPath>
</defs>
</svg>
