<svg width="64" height="64" viewBox="0 0 64 64" fill="none" xmlns="http://www.w3.org/2000/svg">
<g clip-path="url(#clip0_4_20735)">
<g opacity="0.3" filter="url(#filter0_f_4_20735)">
<path d="M44.5018 4.50021H19.5007C11.216 4.50021 4.5 11.2162 4.5 19.5009V44.502C4.5 52.7867 11.216 59.5027 19.5007 59.5027H44.5018C52.7864 59.5027 59.5025 52.7867 59.5025 44.502V19.5009C59.5025 11.2162 52.7864 4.50021 44.5018 4.50021Z" fill="#232323"/>
<path d="M19.5007 5.00021H44.5018C52.5103 5.00021 59.0025 11.4924 59.0025 19.5009V44.502C59.0025 52.5105 52.5103 59.0027 44.5018 59.0027H19.5007C11.4922 59.0027 5 52.5105 5 44.502V19.5009C5 11.4924 11.4922 5.00021 19.5007 5.00021Z" stroke="url(#paint0_linear_4_20735)"/>
</g>
<path d="M19.5005 5.00153H44.5003C52.5087 5.00153 59.0008 11.4936 59.0008 19.502V44.5018C59.0008 52.5102 52.5087 59.0023 44.5003 59.0023H19.5005C11.4921 59.0023 5 52.5102 5 44.5018V19.502C5 11.4936 11.4921 5.00153 19.5005 5.00153Z" fill="#232323" stroke="url(#paint1_linear_4_20735)"/>
<path d="M12.1813 21.9516L12 37.1014L17.2536 37.1643C19.4057 37.1902 20.3376 36.8844 21.2151 35.861C21.9429 35.0045 22.315 33.9119 22.33 32.667C22.3502 30.979 21.8361 29.8125 20.4527 29.0362C21.5367 28.395 21.9905 27.5144 22.0085 26.0163C22.0379 23.5688 20.6001 22.0535 18.2159 22.0249L12.1813 21.9516ZM49.5952 22.0845L49.5653 24.5119L51.971 24.5408L51.9999 22.1144L49.5952 22.0845ZM24.568 22.101L24.3857 37.2498L26.7904 37.2786L26.9728 22.1298L24.568 22.101ZM14.6412 24.5769L17.6157 24.6129C18.9449 24.6289 19.5298 25.1416 19.5166 26.2387C19.5032 27.357 18.8209 27.9612 17.6394 27.947L14.601 27.9109L14.6412 24.5769ZM43.4712 25.9575C40.7494 25.9248 39.0778 28.0992 39.0336 31.7708C38.988 35.5686 40.5862 37.7407 43.4557 37.7755C45.5234 37.8004 46.8874 36.6979 47.6347 34.2168L45.1444 34.1869C44.9027 34.9859 44.3497 35.4013 43.5268 35.3914C42.2187 35.3756 41.5738 34.5448 41.4487 32.6651L47.7583 32.7414L47.7645 32.2139C47.8125 28.2261 46.2774 25.9912 43.4712 25.9575ZM29.2672 26.0822L29.1786 33.4674C29.1469 36.1049 30.247 37.6164 32.2304 37.6402C33.5807 37.6564 34.4746 37.0548 35.1235 35.7331L35.1039 37.3785L37.4242 37.4063L37.5592 26.1823L35.1544 26.1534L35.0761 32.6309C35.0571 34.2133 34.3284 35.1747 33.1257 35.1603C32.0918 35.1478 31.5733 34.4242 31.5895 33.0739L31.673 26.1111L29.2672 26.0822ZM49.5229 26.3253L49.3745 38.6682C49.3657 39.4067 49.1504 39.6995 48.644 39.6934L48.201 39.6882L48.1732 42.0518L48.8058 42.059C51.0212 42.0856 51.7491 41.2718 51.7792 38.7609L51.9276 26.3537L49.5229 26.3253ZM43.4205 28.3838C44.5177 28.397 45.1418 29.1856 45.2916 30.77L41.5361 30.7247C41.7667 29.1026 42.3445 28.3709 43.4205 28.3838ZM14.5699 30.4846L17.8824 30.5248C19.0639 30.539 19.7514 31.2437 19.737 32.4464C19.7202 33.8389 19.0154 34.5897 17.7072 34.574L14.5205 34.5358L14.5699 30.4846Z" fill="url(#paint2_linear_4_20735)"/>
<path d="M63.5043 48.0025C63.5043 56.563 56.5646 63.5026 48.0041 63.5026C39.4436 63.5026 32.5039 56.563 32.5039 48.0025C32.5039 39.4419 39.4436 32.5023 48.0041 32.5023C56.5646 32.5023 63.5043 39.4419 63.5043 48.0025Z" fill="#232323" stroke="url(#paint3_linear_4_20735)"/>
<path opacity="0.5" d="M48.0055 54.9924C51.8681 54.9924 54.9993 51.8612 54.9993 47.9987C54.9993 44.1361 51.8681 41.0049 48.0055 41.0049C44.1429 41.0049 41.0117 44.1361 41.0117 47.9987C41.0117 51.8612 44.1429 54.9924 48.0055 54.9924Z" stroke="url(#paint4_linear_4_20735)" stroke-width="1.33212"/>
<path d="M47.932 34.0028C47.2704 34.07 47.2811 34.63 47.0669 36.0101C46.6146 36.045 46.1646 36.1054 45.7192 36.1909C45.0988 34.766 44.8873 34.2726 44.3325 34.4712C43.7029 34.6966 43.8545 35.24 43.9786 36.6489C43.5603 36.7944 43.1503 36.9629 42.7506 37.1536C41.8597 36.0769 41.5842 35.59 40.9814 35.8709C40.4482 36.1193 40.6425 36.6193 41.2012 38.0629C40.8279 38.3162 40.4692 38.5903 40.1267 38.8838C38.9985 38.0817 38.6046 37.6866 38.0973 38.1124C37.6509 38.487 37.9628 38.9188 38.857 40.1418C38.5674 40.4795 38.2968 40.833 38.0465 41.2007C36.7384 40.7492 36.2486 40.4815 35.8818 41.0329C35.5633 41.5118 35.9772 41.8405 37.1437 42.7344C36.9397 43.1615 36.7612 43.6002 36.609 44.0484C35.2544 43.898 34.719 43.7499 34.4846 44.3645C34.2759 44.9118 34.7622 45.1354 36.155 45.776C36.0666 46.2372 36.0054 46.7033 35.9716 47.1718C34.6373 47.3541 34.0863 47.3456 34.0098 47.9953C33.941 48.5793 34.4678 48.6749 35.9884 48.9579C36.0237 49.3865 36.0819 49.813 36.1628 50.2354C34.8782 50.8549 34.3312 50.9999 34.4599 51.6586C34.5721 52.2332 35.1031 52.1659 36.622 51.9734C36.7711 52.403 36.9444 52.8239 37.141 53.234C36.0378 54.1677 35.5404 54.4432 35.831 55.0527C36.0855 55.5865 36.5835 55.3827 38.0399 54.8042L37.9046 54.5635C38.1864 54.9938 38.4953 55.4058 38.8296 55.7968C38.0497 56.9592 37.6598 57.3643 38.1011 57.8627C38.483 58.2942 38.9074 57.9781 40.0758 57.0757C40.4237 57.3768 40.7886 57.6578 41.1685 57.9174C40.6197 59.3847 40.4256 59.8865 40.9643 60.1302C41.5691 60.4038 41.842 59.9142 42.7166 58.8319C43.1341 59.0337 43.5628 59.2114 44.0006 59.364C43.8004 60.8478 43.7342 61.3752 44.3024 61.491C44.9548 61.6239 45.1096 61.0847 45.7269 59.8272C46.1702 59.9142 46.618 59.9763 47.0681 60.0132C47.2888 61.519 47.368 62.0468 47.9501 62.001C48.611 61.9489 48.6139 61.3894 48.8569 60.0236C49.324 59.9903 49.7888 59.9299 50.2488 59.8427C50.8168 61.1946 51.0309 61.6776 51.5744 61.491C52.1933 61.2785 52.068 60.7403 51.9633 59.3966C52.3806 59.2547 52.7896 59.0901 53.1887 58.9035C54.1718 60.0527 54.5198 60.455 54.9865 60.1068C55.5078 59.718 55.2312 59.2451 54.7277 58.015C55.122 57.7514 55.5004 57.4647 55.8608 57.1564C57.0901 58.0268 57.5259 58.3319 57.8928 57.881C58.3039 57.3758 57.9185 56.9838 57.1265 55.9101C57.4378 55.5474 57.7271 55.1664 57.9929 54.7692C59.3351 55.326 59.8266 55.5161 60.0809 55.0034C60.3719 54.4166 59.9038 54.123 58.8828 53.2394C59.0767 52.8313 59.2474 52.4126 59.3941 51.9853C60.8743 52.1454 61.4024 52.1946 61.5028 51.625C61.6169 50.9781 61.0834 50.8298 59.8468 50.2656C59.9325 49.8163 59.9924 49.3624 60.0263 48.9061C61.5256 48.6728 62.0521 48.5881 62.0011 48.0072C61.9432 47.3474 61.3849 47.3489 60.0198 47.1187C59.9841 46.666 59.9229 46.2156 59.8364 45.7697C61.2145 45.1354 61.6977 44.9095 61.4898 44.3647C61.2562 43.7526 60.7228 43.897 59.3797 44.0473C59.2267 43.6104 59.0486 43.1825 58.8463 42.7659C60.0565 41.8298 60.4801 41.502 60.1537 41.0162C59.7781 40.457 59.2885 40.7432 57.9305 41.2152C57.6757 40.8442 57.4003 40.4876 57.1057 40.1472C57.9927 38.8707 58.3011 38.4323 57.8407 38.0644C57.3244 37.6519 56.9404 38.0535 55.8373 38.8788C55.487 38.5811 55.12 38.3036 54.7381 38.0476C55.2959 36.6194 55.4908 36.1206 54.9618 35.8712C54.3605 35.5895 54.0805 36.076 53.1861 37.1499C52.7791 36.9577 52.3617 36.7883 51.9359 36.6426C52.1363 35.1196 52.2064 34.5878 51.6315 34.4727C50.9705 34.3404 50.8251 34.8899 50.1927 36.1834C49.7535 36.1 49.3101 36.0409 48.8645 36.0065C48.6045 34.4734 48.5184 33.9433 47.932 34.0028ZM50.9006 38.2397C51.3224 38.182 51.992 38.4449 52.6932 38.8343C53.8619 39.4832 55.1166 40.4833 55.4511 40.9352C57.0525 42.6496 58.2211 44.7764 58.2884 48.1939C58.3009 48.8304 58.2412 49.4071 58.092 49.8786C57.9296 50.3712 57.6007 50.8633 57.0838 51.1027C56.6551 51.283 56.179 51.4111 55.7361 51.2068C54.3561 50.5736 52.6207 49.4797 51.2285 48.6557C50.9943 48.517 50.824 48.2918 50.7992 48.1782C50.5352 47.6771 50.5853 46.9459 50.2151 46.5183C49.6739 45.7493 49.2081 45.864 49.0872 45.1107C49.0306 43.4359 49.0188 41.7421 49.0627 40.0917C49.0652 38.9466 49.8882 38.2737 50.9006 38.2397ZM44.9647 38.297C45.3155 38.2777 45.682 38.3349 46.0041 38.5077C46.0655 38.5406 46.1246 38.5779 46.1823 38.6196C46.5498 38.9046 46.8949 39.2561 46.9342 39.7422C47.0598 41.2553 46.9584 43.304 46.9237 44.9211C46.918 45.1932 46.8049 45.4525 46.7181 45.5299C46.411 46.0058 45.75 46.3204 45.559 46.8529C45.1547 47.7019 45.4835 48.0509 44.8865 48.5258C43.455 49.3972 41.9839 50.2388 40.5244 51.0106C39.5254 51.5704 38.535 51.1839 38.0085 50.3184C37.3223 49.414 37.757 45.8513 38.1243 45.0304C38.8322 42.7937 40.1112 40.7315 43.0559 38.9955C43.6043 38.6722 44.1369 38.4425 44.6209 38.3411C44.7322 38.3192 44.8478 38.3034 44.9647 38.297ZM48.005 46.724C48.3434 46.7241 48.6679 46.8586 48.9072 47.0979C49.1465 47.3372 49.281 47.6617 49.2812 48.0001C49.2812 48.1678 49.2483 48.3339 49.1842 48.4888C49.1201 48.6438 49.0262 48.7846 48.9076 48.9032C48.7891 49.0218 48.6484 49.116 48.4936 49.1802C48.3387 49.2445 48.1726 49.2776 48.005 49.2777C47.8372 49.2777 47.671 49.2448 47.516 49.1806C47.361 49.1164 47.2201 49.0223 47.1014 48.9037C46.9828 48.785 46.8887 48.6442 46.8245 48.4891C46.7604 48.3341 46.7274 48.1679 46.7275 48.0001C46.7276 47.8325 46.7607 47.6664 46.8249 47.5116C46.8892 47.3567 46.9833 47.216 47.1019 47.0975C47.2205 46.979 47.3613 46.885 47.5163 46.8209C47.6712 46.7568 47.8373 46.7239 48.005 46.724ZM49.553 50.3782C49.6804 50.3732 49.8218 50.3967 49.9992 50.4666C50.7344 50.8687 51.4679 51.2831 52.1926 51.7064C52.9172 52.1297 53.6322 52.5618 54.3312 53.0008C55.3156 53.586 55.4757 54.6373 54.9895 55.5259C54.5493 56.5724 51.2478 57.9779 50.353 58.0704C48.0621 58.5757 45.6369 58.4987 42.6608 56.8163C42.1066 56.503 41.6403 56.1571 41.3105 55.7886C40.9692 55.398 40.7134 54.8646 40.7706 54.2978C40.8337 53.8371 40.9664 53.3625 41.3677 53.0853C42.6153 52.2201 44.4406 51.2842 45.8583 50.5057C46.0969 50.3747 46.3776 50.343 46.4879 50.3795C47.0537 50.4075 47.6577 50.8212 48.2142 50.7203C48.9172 50.6646 49.1707 50.3926 49.553 50.3782Z" fill="url(#paint5_linear_4_20735)"/>
</g>
<defs>
<filter id="filter0_f_4_20735" x="3.26244" y="3.26266" width="57.479" height="57.4776" filterUnits="userSpaceOnUse" color-interpolation-filters="sRGB">
<feFlood flood-opacity="0" result="BackgroundImageFix"/>
<feBlend mode="normal" in="SourceGraphic" in2="BackgroundImageFix" result="shape"/>
<feGaussianBlur stdDeviation="0.618778" result="effect1_foregroundBlur_4_20735"/>
</filter>
<linearGradient id="paint0_linear_4_20735" x1="4.5" y1="32.0014" x2="59.5025" y2="32.0014" gradientUnits="userSpaceOnUse">
<stop stop-color="#FDFC47"/>
<stop offset="1" stop-color="#24FE41"/>
</linearGradient>
<linearGradient id="paint1_linear_4_20735" x1="4.5" y1="32.0019" x2="59.5008" y2="32.0019" gradientUnits="userSpaceOnUse">
<stop stop-color="#FDFC47"/>
<stop offset="1" stop-color="#24FE41"/>
</linearGradient>
<linearGradient id="paint2_linear_4_20735" x1="12" y1="32.0056" x2="51.9999" y2="32.0056" gradientUnits="userSpaceOnUse">
<stop stop-color="#FDFC47"/>
<stop offset="1" stop-color="#24FE41"/>
</linearGradient>
<linearGradient id="paint3_linear_4_20735" x1="32.0039" y1="48.0024" x2="64.0043" y2="48.0024" gradientUnits="userSpaceOnUse">
<stop stop-color="#FDFC47"/>
<stop offset="1" stop-color="#24FE41"/>
</linearGradient>
<linearGradient id="paint4_linear_4_20735" x1="41.0117" y1="47.9987" x2="54.9993" y2="47.9987" gradientUnits="userSpaceOnUse">
<stop stop-color="#FDFC47"/>
<stop offset="1" stop-color="#24FE41"/>
</linearGradient>
<linearGradient id="paint5_linear_4_20735" x1="34.0039" y1="48.0012" x2="62.0044" y2="48.0012" gradientUnits="userSpaceOnUse">
<stop stop-color="#FDFC47"/>
<stop offset="1" stop-color="#24FE41"/>
</linearGradient>
<clipPath id="clip0_4_20735">
<rect width="64" height="64" fill="white"/>
</clipPath>
</defs>
</svg>
