<svg width="64" height="64" viewBox="0 0 64 64" fill="none" xmlns="http://www.w3.org/2000/svg">
<g clip-path="url(#clip0_4_20745)">
<g opacity="0.3" filter="url(#filter0_f_4_20745)">
<path d="M44.5 4.5H19.5C11.2157 4.5 4.5 11.2157 4.5 19.5V44.5C4.5 52.7843 11.2157 59.5 19.5 59.5H44.5C52.7843 59.5 59.5 52.7843 59.5 44.5V19.5C59.5 11.2157 52.7843 4.5 44.5 4.5Z" fill="url(#paint0_linear_4_20745)"/>
</g>
<path d="M19.5 5H44.5C52.5081 5 59 11.4919 59 19.5V44.5C59 52.5081 52.5081 59 44.5 59H19.5C11.4919 59 5 52.5081 5 44.5V19.5C5 11.4919 11.4919 5 19.5 5Z" fill="#232323" stroke="url(#paint1_linear_4_20745)"/>
<path d="M51.9999 12C51.9999 11.9438 51.36 12.3811 50.5774 12.9712C43.2159 18.5228 34.0144 23.3782 28.8624 24.4292L27.8911 24.6278L27.5228 25.5949C26.2397 28.968 22.5923 31.3601 16.8738 32.5782C15.9703 32.7707 15.0011 33.0452 14.7202 33.188C13.8523 33.6293 12.8439 34.6388 12.388 35.5234C12.0197 36.2377 11.9627 36.5458 12.0183 37.5142C12.0651 38.3292 12.1776 38.7609 12.4078 39.011C12.7175 39.3474 13.4893 39.5239 13.2943 39.2136C13.141 38.9695 13.8676 38.1915 14.5861 37.8311C15.7494 37.2476 17.5567 36.9719 19.4477 36.9973C19.7853 37.0033 20.1915 37.018 20.4717 37.0397C21.8878 37.1399 23.2955 37.4068 24.464 37.8433C25.0923 38.078 25.6244 38.3596 26.0562 38.6765C27.6685 39.5023 29.0248 40.5768 30.1641 41.8175C30.1651 41.7763 30.1691 41.7371 30.1691 41.6951C30.1761 40.8794 30.2047 40.2121 30.2306 40.2117C30.2566 40.2114 30.3593 40.4203 30.4585 40.6767C30.6991 41.2978 30.8244 41.9516 30.8481 42.609C33.0107 45.2946 34.2895 48.6031 35.0403 51.797C36.041 50.0922 36.9891 47.8376 36.9933 46.9169C36.9993 45.554 37.9599 48.2294 38.263 50.4544L38.4725 51.9949L38.8525 51.0621C39.4875 49.5023 39.7858 47.8714 39.7875 45.9505C39.7885 44.9576 39.7382 43.9848 39.6746 43.7887C39.6114 43.5926 39.6285 43.432 39.7132 43.432C39.9212 43.432 41.5752 45.0891 41.9989 45.7216C42.3987 46.3185 42.4291 46.0578 42.1008 44.846C41.2329 41.6413 38.7436 38.622 35.1917 36.4655L33.8192 35.6323L34.5024 35.6123C34.8779 35.6014 35.4178 35.5405 35.7024 35.4771L36.2199 35.362L35.5299 35.1311L34.8399 34.8995L35.9454 34.6775C36.5536 34.5554 37.6019 34.1992 38.2742 33.886L39.4961 33.3166L37.9442 33.3771L36.3917 33.4376L37.5992 33.0371C39.2792 32.4797 42.5023 30.8158 42.2959 30.6129C42.2668 30.5839 41.6633 30.7087 40.9556 30.8895C38.8747 31.4208 38.655 31.3044 40.2813 30.5322C41.8645 29.7804 44.0926 28.3659 45.1874 27.4174L45.8774 26.8198L44.5844 27.3931C43.4859 27.8802 40.9785 28.6807 40.5509 28.6807C40.4788 28.6807 40.9207 28.4241 41.5326 28.1106C43.2844 27.2129 44.8675 26.0241 46.8255 24.1372L48.6368 22.3913L47.1712 23.1525C45.785 23.872 42.8592 25.1643 42.8592 25.0572C42.8592 25.03 43.228 24.7512 43.6786 24.4381C45.427 23.2231 48.5222 20.0127 50.3542 17.5146L51.0196 16.608L49.3883 17.8612C47.6467 19.1997 44.0896 21.4683 43.9489 21.33C43.9026 21.2844 44.0757 21.1106 44.3336 20.9444C45.0952 20.4538 48.4476 16.7307 50.2905 14.3293C51.2306 13.1043 51.9999 12.0562 51.9999 12Z" fill="url(#paint2_linear_4_20745)"/>
</g>
<defs>
<filter id="filter0_f_4_20745" x="3.2625" y="3.2625" width="57.475" height="57.475" filterUnits="userSpaceOnUse" color-interpolation-filters="sRGB">
<feFlood flood-opacity="0" result="BackgroundImageFix"/>
<feBlend mode="normal" in="SourceGraphic" in2="BackgroundImageFix" result="shape"/>
<feGaussianBlur stdDeviation="0.61875" result="effect1_foregroundBlur_4_20745"/>
</filter>
<linearGradient id="paint0_linear_4_20745" x1="4.5" y1="32" x2="59.5" y2="32" gradientUnits="userSpaceOnUse">
<stop stop-color="#FDFC47"/>
<stop offset="1" stop-color="#24FE41"/>
</linearGradient>
<linearGradient id="paint1_linear_4_20745" x1="4.5" y1="32" x2="59.5" y2="32" gradientUnits="userSpaceOnUse">
<stop stop-color="#FDFC47"/>
<stop offset="1" stop-color="#24FE41"/>
</linearGradient>
<linearGradient id="paint2_linear_4_20745" x1="12" y1="31.995" x2="51.9999" y2="31.995" gradientUnits="userSpaceOnUse">
<stop stop-color="#FDFC47"/>
<stop offset="1" stop-color="#24FE41"/>
</linearGradient>
<clipPath id="clip0_4_20745">
<rect width="64" height="64" fill="white"/>
</clipPath>
</defs>
</svg>
