<svg width="64" height="64" viewBox="0 0 64 64" fill="none" xmlns="http://www.w3.org/2000/svg">
<g opacity="0.3" filter="url(#filter0_f_4_21850)">
<path d="M44.5 4.5H19.5C11.2157 4.5 4.5 11.2157 4.5 19.5V44.5C4.5 52.7843 11.2157 59.5 19.5 59.5H44.5C52.7843 59.5 59.5 52.7843 59.5 44.5V19.5C59.5 11.2157 52.7843 4.5 44.5 4.5Z" fill="url(#paint0_linear_4_21850)"/>
</g>
<path d="M19.5 5H44.5C52.5081 5 59 11.4919 59 19.5V44.5C59 52.5081 52.5081 59 44.5 59H19.5C11.4919 59 5 52.5081 5 44.5V19.5C5 11.4919 11.4919 5 19.5 5Z" fill="#232323" stroke="url(#paint1_linear_4_21850)"/>
<path d="M32.0008 50.325C42.1214 50.325 50.3258 42.1206 50.3258 32C50.3258 21.8794 42.1214 13.675 32.0008 13.675C21.8802 13.675 13.6758 21.8794 13.6758 32C13.6758 42.1206 21.8802 50.325 32.0008 50.325Z" fill="url(#paint2_linear_4_21850)" stroke="#232323" stroke-width="2.4026"/>
<path d="M32.1457 21.248H31.8553C31.5685 21.248 31.3359 21.4805 31.3359 21.7674V32.1506C31.3359 32.4374 31.5685 32.67 31.8553 32.67H32.1457C32.4326 32.67 32.6651 32.4374 32.6651 32.1506V21.7674C32.6651 21.4805 32.4326 21.248 32.1457 21.248Z" fill="#232323"/>
<path d="M32.5688 32.3369L32.3649 32.5409C32.2993 32.6065 32.2979 32.7115 32.3619 32.7754L42.4145 42.828C42.4784 42.892 42.5834 42.8906 42.649 42.825L42.853 42.6211C42.9186 42.5555 42.9199 42.4505 42.856 42.3865L32.8034 32.3339C32.7394 32.27 32.6344 32.2713 32.5688 32.3369Z" fill="#232323"/>
<defs>
<filter id="filter0_f_4_21850" x="3.2625" y="3.2625" width="57.475" height="57.475" filterUnits="userSpaceOnUse" color-interpolation-filters="sRGB">
<feFlood flood-opacity="0" result="BackgroundImageFix"/>
<feBlend mode="normal" in="SourceGraphic" in2="BackgroundImageFix" result="shape"/>
<feGaussianBlur stdDeviation="0.61875" result="effect1_foregroundBlur_4_21850"/>
</filter>
<linearGradient id="paint0_linear_4_21850" x1="4.5" y1="32" x2="59.5" y2="32" gradientUnits="userSpaceOnUse">
<stop stop-color="#FDFC47"/>
<stop offset="1" stop-color="#24FE41"/>
</linearGradient>
<linearGradient id="paint1_linear_4_21850" x1="4.5" y1="32" x2="59.5" y2="32" gradientUnits="userSpaceOnUse">
<stop stop-color="#FDFC47"/>
<stop offset="1" stop-color="#24FE41"/>
</linearGradient>
<linearGradient id="paint2_linear_4_21850" x1="13.6758" y1="32" x2="50.3258" y2="32" gradientUnits="userSpaceOnUse">
<stop stop-color="#FDFC47"/>
<stop offset="1" stop-color="#24FE41"/>
</linearGradient>
</defs>
</svg>
