<svg width="64" height="64" viewBox="0 0 64 64" fill="none" xmlns="http://www.w3.org/2000/svg">
<g clip-path="url(#clip0_4_18573)">
<g opacity="0.3" filter="url(#filter0_f_4_18573)">
<path d="M46.498 4.5H17.502C10.3212 4.5 4.5 10.3212 4.5 17.502V46.498C4.5 53.6788 10.3212 59.5 17.502 59.5H46.498C53.6788 59.5 59.5 53.6788 59.5 46.498V17.502C59.5 10.3212 53.6788 4.5 46.498 4.5Z" fill="url(#paint0_linear_4_18573)"/>
</g>
<path d="M5 17.502C5 10.575 10.575 5 17.502 5H46.498C53.425 5 59 10.575 59 17.502V46.498C59 53.425 53.425 59 46.498 59H17.502C10.575 59 5 53.425 5 46.498V17.502Z" fill="#232323" stroke="url(#paint1_linear_4_18573)"/>
<g filter="url(#filter1_f_4_18573)">
<path fill-rule="evenodd" clip-rule="evenodd" d="M19.9329 26.5211C18.8296 26.521 17.7715 26.9588 16.9909 27.7384C16.2102 28.5179 15.7709 29.5753 15.7695 30.6785C15.7695 30.6776 15.7695 30.6795 15.7695 30.6785V45.0934H24.0961V30.6814C24.0961 30.6805 24.0961 30.6824 24.0961 30.6814C24.0946 29.5782 23.6554 28.5179 22.8747 27.7384C22.0941 26.9588 21.0361 26.521 19.9329 26.5211Z" fill="url(#paint2_linear_4_18573)"/>
<path fill-rule="evenodd" clip-rule="evenodd" d="M21.2295 12.7689C20.4969 12.7514 19.773 12.9315 19.1341 13.2905C18.4951 13.6494 17.9647 14.174 17.5985 14.8088C17.0585 15.7456 16.9125 16.8584 17.1925 17.9028C17.4725 18.9471 18.1555 19.8377 19.0917 20.3787C19.0907 20.3778 19.0927 20.3797 19.0917 20.3787L19.0946 20.3845L23.2291 22.7696L39.7958 32.4803C39.7958 32.4803 29.8525 38.1889 23.4535 41.9638C17.0545 45.7386 15.7656 39.1556 15.7656 39.1556V45.4621C16.7784 53.0119 24.0058 51.2162 25.0648 50.8482C26.1238 50.4801 47.9586 37.429 47.9586 37.429C51.6343 35.1782 51.8954 30.1922 48.2521 27.5659C47.6455 27.0459 30.0685 17.2622 27.8815 16.0456L27.8899 16.0346L23.177 13.3127C23.1761 13.3127 23.1723 13.3156 23.1713 13.3156C22.5799 12.9737 21.9124 12.7856 21.2295 12.7689Z" fill="url(#paint3_linear_4_18573)"/>
</g>
<path fill-rule="evenodd" clip-rule="evenodd" d="M19.9329 26.5211C18.8296 26.521 17.7715 26.9588 16.9909 27.7384C16.2102 28.5179 15.7709 29.5753 15.7695 30.6785C15.7695 30.6776 15.7695 30.6795 15.7695 30.6785V45.0934H24.0961V30.6814C24.0961 30.6805 24.0961 30.6824 24.0961 30.6814C24.0946 29.5782 23.6554 28.5179 22.8747 27.7384C22.0941 26.9588 21.0361 26.521 19.9329 26.5211Z" fill="url(#paint4_linear_4_18573)"/>
<path fill-rule="evenodd" clip-rule="evenodd" d="M21.2295 12.7689C20.4969 12.7514 19.773 12.9315 19.1341 13.2905C18.4951 13.6494 17.9647 14.174 17.5985 14.8088C17.0585 15.7456 16.9125 16.8584 17.1925 17.9028C17.4725 18.9471 18.1555 19.8377 19.0917 20.3787C19.0907 20.3778 19.0927 20.3797 19.0917 20.3787L19.0946 20.3845L23.2291 22.7696L39.7958 32.4803C39.7958 32.4803 29.8525 38.1889 23.4535 41.9638C17.0545 45.7386 15.7656 39.1556 15.7656 39.1556V45.4621C16.7784 53.0119 24.0058 51.2162 25.0648 50.8482C26.1238 50.4801 47.9586 37.429 47.9586 37.429C51.6343 35.1782 51.8954 30.1922 48.2521 27.5659C47.6455 27.0459 30.0685 17.2622 27.8815 16.0456L27.8899 16.0346L23.177 13.3127C23.1761 13.3127 23.1723 13.3156 23.1713 13.3156C22.5799 12.9737 21.9124 12.7856 21.2295 12.7689Z" fill="url(#paint5_linear_4_18573)"/>
</g>
<defs>
<filter id="filter0_f_4_18573" x="2.3" y="2.3" width="59.4" height="59.4" filterUnits="userSpaceOnUse" color-interpolation-filters="sRGB">
<feFlood flood-opacity="0" result="BackgroundImageFix"/>
<feBlend mode="normal" in="SourceGraphic" in2="BackgroundImageFix" result="shape"/>
<feGaussianBlur stdDeviation="1.1" result="effect1_foregroundBlur_4_18573"/>
</filter>
<filter id="filter1_f_4_18573" x="13.9252" y="10.9272" width="38.7708" height="42.2113" filterUnits="userSpaceOnUse" color-interpolation-filters="sRGB">
<feFlood flood-opacity="0" result="BackgroundImageFix"/>
<feBlend mode="normal" in="SourceGraphic" in2="BackgroundImageFix" result="shape"/>
<feGaussianBlur stdDeviation="0.920236" result="effect1_foregroundBlur_4_18573"/>
</filter>
<linearGradient id="paint0_linear_4_18573" x1="4.5" y1="32" x2="59.5" y2="32" gradientUnits="userSpaceOnUse">
<stop stop-color="#FDFC47"/>
<stop offset="1" stop-color="#24FE41"/>
</linearGradient>
<linearGradient id="paint1_linear_4_18573" x1="4.5" y1="32" x2="59.5" y2="32" gradientUnits="userSpaceOnUse">
<stop stop-color="#FDFC47"/>
<stop offset="1" stop-color="#24FE41"/>
</linearGradient>
<linearGradient id="paint2_linear_4_18573" x1="15.7695" y1="35.8073" x2="24.0961" y2="35.8073" gradientUnits="userSpaceOnUse">
<stop stop-color="#FDFC47"/>
<stop offset="1" stop-color="#24FE41"/>
</linearGradient>
<linearGradient id="paint3_linear_4_18573" x1="15.7656" y1="32.0329" x2="50.8539" y2="32.0329" gradientUnits="userSpaceOnUse">
<stop stop-color="#FDFC47"/>
<stop offset="1" stop-color="#24FE41"/>
</linearGradient>
<linearGradient id="paint4_linear_4_18573" x1="15.7695" y1="35.8073" x2="24.0961" y2="35.8073" gradientUnits="userSpaceOnUse">
<stop stop-color="#FDFC47"/>
<stop offset="1" stop-color="#24FE41"/>
</linearGradient>
<linearGradient id="paint5_linear_4_18573" x1="15.7656" y1="32.0329" x2="50.8539" y2="32.0329" gradientUnits="userSpaceOnUse">
<stop stop-color="#FDFC47"/>
<stop offset="1" stop-color="#24FE41"/>
</linearGradient>
<clipPath id="clip0_4_18573">
<rect width="64" height="64" fill="white"/>
</clipPath>
</defs>
</svg>
