<svg width="64" height="64" viewBox="0 0 64 64" fill="none" xmlns="http://www.w3.org/2000/svg">
<g clip-path="url(#clip0_4_17954)">
<g opacity="0.3" filter="url(#filter0_f_4_17954)">
<path d="M46.4983 4.50003H17.5021C10.3212 4.50003 4.5 10.3213 4.5 17.5021V46.4983C4.5 53.6792 10.3212 59.5004 17.5021 59.5004H46.4983C53.6792 59.5004 59.5004 53.6792 59.5004 46.4983V17.5021C59.5004 10.3213 53.6792 4.50003 46.4983 4.50003Z" fill="url(#paint0_linear_4_17954)"/>
</g>
<path d="M17.5018 5H46.4989C53.4035 5 59.0008 10.5973 59.0008 17.5018V46.4989C59.0008 53.4035 53.4035 59.0008 46.4989 59.0008H17.5018C10.5973 59.0008 5 53.4035 5 46.4989V17.5018C5 10.5973 10.5973 5 17.5018 5Z" fill="#232323" stroke="url(#paint1_linear_4_17954)"/>
<path opacity="0.6" d="M9.97257 25.9648C9.94381 26.1146 9.92602 26.2709 9.89844 26.4245H54.1063C54.0802 26.271 54.0611 26.1145 54.0292 25.9648H9.97257Z" fill="url(#paint2_linear_4_17954)"/>
<path opacity="0.6" d="M10.6992 15.9778C10.7248 16.1313 10.7492 16.2846 10.7777 16.4375H53.2355C53.2621 16.2723 53.2847 16.1408 53.3084 15.9778H10.6992Z" fill="url(#paint3_linear_4_17954)"/>
<path opacity="0.6" d="M9.97257 35.9518C9.94381 36.1017 9.92602 36.258 9.89844 36.4115H54.1063C54.0802 36.258 54.0611 36.1016 54.0292 35.9518H9.97257Z" fill="url(#paint4_linear_4_17954)"/>
<path opacity="0.6" d="M9.97257 45.9378C9.94381 46.0877 9.92602 46.244 9.89844 46.3975H54.1063C54.0802 46.244 54.0611 46.0876 54.0292 45.9378H9.97257Z" fill="url(#paint5_linear_4_17954)"/>
<g opacity="0.5" filter="url(#filter1_f_4_17954)">
<path d="M16.8689 45.196C16.8689 45.196 16.1484 44.7285 16.1484 44.4867C16.1484 44.2449 18.1235 37.6183 18.3367 37.2535C18.55 36.8887 41.1376 15.3168 41.1376 15.3168C41.1376 15.3168 42.169 14.5358 42.8056 15.0194C43.4423 15.503 45.5857 17.6941 45.5857 17.6941L16.8689 45.196Z" fill="url(#paint6_linear_4_17954)"/>
<path d="M16.8672 45.196C16.8672 45.196 17.3531 45.8892 17.6044 45.8892C17.8557 45.8892 24.7434 43.989 25.1226 43.7839C25.5018 43.5787 47.9236 21.8472 47.9236 21.8472C47.9236 21.8472 48.7353 20.8549 48.2326 20.2424C47.73 19.6298 45.4526 17.5677 45.4526 17.5677L16.8672 45.196Z" fill="url(#paint7_linear_4_17954)"/>
</g>
<path d="M16.4202 45.0755C16.4202 45.0755 15.6914 44.584 15.6914 44.3298C15.6914 44.0755 17.6893 37.1081 17.905 36.7245C18.1207 36.3409 40.97 13.6594 40.97 13.6594C40.97 13.6594 42.0133 12.8383 42.6574 13.3468C43.3014 13.8553 45.4696 16.159 45.4696 16.159L16.4202 45.0755Z" fill="url(#paint8_linear_4_17954)"/>
<path d="M16.4219 45.0755C16.4219 45.0755 16.9134 45.8044 17.1676 45.8044C17.4219 45.8044 24.3893 43.8065 24.7729 43.5908C25.1565 43.375 47.838 20.5257 47.838 20.5257C47.838 20.5257 48.6591 19.4824 48.1506 18.8384C47.6421 18.1943 45.3384 16.0262 45.3384 16.0262L16.4219 45.0755Z" fill="url(#paint9_linear_4_17954)"/>
<path d="M18.4141 4.50003V24.2052L22.4121 28.2032V4.50003H18.4141Z" fill="url(#paint10_linear_4_17954)"/>
<path d="M17.5039 4.50002C16.4366 4.50002 15.4054 4.64055 14.4141 4.88088V28.207L18.4141 24.205V4.49988L17.5039 4.50002Z" fill="url(#paint11_linear_4_17954)"/>
</g>
<defs>
<filter id="filter0_f_4_17954" x="2.29998" y="2.30001" width="59.4" height="59.4004" filterUnits="userSpaceOnUse" color-interpolation-filters="sRGB">
<feFlood flood-opacity="0" result="BackgroundImageFix"/>
<feBlend mode="normal" in="SourceGraphic" in2="BackgroundImageFix" result="shape"/>
<feGaussianBlur stdDeviation="1.10001" result="effect1_foregroundBlur_4_17954"/>
</filter>
<filter id="filter1_f_4_17954" x="13.9337" y="12.6467" width="36.6795" height="35.4572" filterUnits="userSpaceOnUse" color-interpolation-filters="sRGB">
<feFlood flood-opacity="0" result="BackgroundImageFix"/>
<feBlend mode="normal" in="SourceGraphic" in2="BackgroundImageFix" result="shape"/>
<feGaussianBlur stdDeviation="1.10736" result="effect1_foregroundBlur_4_17954"/>
</filter>
<linearGradient id="paint0_linear_4_17954" x1="4.5" y1="32.0002" x2="59.5004" y2="32.0002" gradientUnits="userSpaceOnUse">
<stop stop-color="#FDFC47"/>
<stop offset="1" stop-color="#24FE41"/>
</linearGradient>
<linearGradient id="paint1_linear_4_17954" x1="4.5" y1="32.0004" x2="59.5008" y2="32.0004" gradientUnits="userSpaceOnUse">
<stop stop-color="#FDFC47"/>
<stop offset="1" stop-color="#24FE41"/>
</linearGradient>
<linearGradient id="paint2_linear_4_17954" x1="9.89844" y1="26.1946" x2="54.1063" y2="26.1946" gradientUnits="userSpaceOnUse">
<stop stop-color="#FDFC47"/>
<stop offset="1" stop-color="#24FE41"/>
</linearGradient>
<linearGradient id="paint3_linear_4_17954" x1="10.6992" y1="16.2076" x2="53.3084" y2="16.2076" gradientUnits="userSpaceOnUse">
<stop stop-color="#FDFC47"/>
<stop offset="1" stop-color="#24FE41"/>
</linearGradient>
<linearGradient id="paint4_linear_4_17954" x1="9.89844" y1="36.1817" x2="54.1063" y2="36.1817" gradientUnits="userSpaceOnUse">
<stop stop-color="#FDFC47"/>
<stop offset="1" stop-color="#24FE41"/>
</linearGradient>
<linearGradient id="paint5_linear_4_17954" x1="9.89844" y1="46.1677" x2="54.1063" y2="46.1677" gradientUnits="userSpaceOnUse">
<stop stop-color="#FDFC47"/>
<stop offset="1" stop-color="#24FE41"/>
</linearGradient>
<linearGradient id="paint6_linear_4_17954" x1="16.1484" y1="30.0287" x2="45.5857" y2="30.0287" gradientUnits="userSpaceOnUse">
<stop stop-color="#FDFC47"/>
<stop offset="1" stop-color="#24FE41"/>
</linearGradient>
<linearGradient id="paint7_linear_4_17954" x1="16.8672" y1="31.7284" x2="48.3968" y2="31.7284" gradientUnits="userSpaceOnUse">
<stop stop-color="#FDFC47"/>
<stop offset="1" stop-color="#24FE41"/>
</linearGradient>
<linearGradient id="paint8_linear_4_17954" x1="15.6914" y1="29.1281" x2="45.4696" y2="29.1281" gradientUnits="userSpaceOnUse">
<stop stop-color="#FDFC47"/>
<stop offset="1" stop-color="#24FE41"/>
</linearGradient>
<linearGradient id="paint9_linear_4_17954" x1="16.4219" y1="30.9153" x2="48.3167" y2="30.9153" gradientUnits="userSpaceOnUse">
<stop stop-color="#FDFC47"/>
<stop offset="1" stop-color="#24FE41"/>
</linearGradient>
<linearGradient id="paint10_linear_4_17954" x1="18.4141" y1="16.3516" x2="22.4121" y2="16.3516" gradientUnits="userSpaceOnUse">
<stop stop-color="#FDFC47"/>
<stop offset="1" stop-color="#24FE41"/>
</linearGradient>
<linearGradient id="paint11_linear_4_17954" x1="14.4141" y1="16.3535" x2="18.4141" y2="16.3535" gradientUnits="userSpaceOnUse">
<stop stop-color="#FDFC47"/>
<stop offset="1" stop-color="#24FE41"/>
</linearGradient>
<clipPath id="clip0_4_17954">
<rect width="64" height="64" fill="white"/>
</clipPath>
</defs>
</svg>
