<svg width="64" height="64" viewBox="0 0 64 64" fill="none" xmlns="http://www.w3.org/2000/svg">
<g clip-path="url(#clip0_4_17893)">
<g opacity="0.3" filter="url(#filter0_f_4_17893)">
<path d="M44.5 4.5H19.5C11.2157 4.5 4.5 11.2157 4.5 19.5V44.5C4.5 52.7843 11.2157 59.5 19.5 59.5H44.5C52.7843 59.5 59.5 52.7843 59.5 44.5V19.5C59.5 11.2157 52.7843 4.5 44.5 4.5Z" fill="url(#paint0_linear_4_17893)"/>
</g>
<path d="M19.5 5H44.5C52.5081 5 59 11.4919 59 19.5V44.5C59 52.5081 52.5081 59 44.5 59H19.5C11.4919 59 5 52.5081 5 44.5V19.5C5 11.4919 11.4919 5 19.5 5Z" fill="#232323" stroke="url(#paint1_linear_4_17893)"/>
<path d="M12.3689 27.2942C11.9343 27.7287 11.9343 28.4284 12.3689 28.863L15.5065 32.0005L12.3689 35.1381C11.9343 35.5727 11.9343 36.2724 12.3689 36.707C12.8034 37.1415 13.5031 37.1415 13.9377 36.707L17.0753 33.5694L20.2129 36.707C20.6474 37.1415 21.3471 37.1415 21.7817 36.707C22.2162 36.2724 22.2162 35.5727 21.7817 35.1381L18.6441 32.0005L21.7817 28.863C22.2162 28.4284 22.2162 27.7288 21.7817 27.2942C21.3471 26.8596 20.6475 26.8596 20.2129 27.2942L17.0753 30.4318L13.9377 27.2942C13.5031 26.8596 12.8035 26.8596 12.3689 27.2942Z" fill="url(#paint2_linear_4_17893)"/>
<path d="M31.4958 26.9681C28.423 26.9681 25.9492 29.4419 25.9492 32.5147C25.9492 35.5875 28.423 38.0613 31.4958 38.0613C34.5686 38.0613 37.0424 35.5875 37.0424 32.5147C37.0424 29.4419 34.5686 26.9681 31.4958 26.9681ZM31.4958 29.1867C33.3395 29.1867 34.8237 30.671 34.8237 32.5146C34.8237 34.3583 33.3394 35.8425 31.4958 35.8425C29.6522 35.8425 28.1679 34.3582 28.1679 32.5146C28.1679 30.6709 29.6522 29.1867 31.4958 29.1867Z" fill="url(#paint3_linear_4_17893)"/>
<path d="M36.7153 40.7321C37.1498 41.1667 37.1498 41.8663 36.7153 42.3009L33.5777 45.4385L36.7153 48.5761C37.1498 49.0107 37.1498 49.7103 36.7153 50.1449C36.2807 50.5795 35.5811 50.5795 35.1465 50.1449L32.0089 47.0073L28.8713 50.1449C28.4367 50.5795 27.7371 50.5795 27.3025 50.1449C26.8679 49.7104 26.8679 49.0107 27.3025 48.5761L30.4401 45.4385L27.3025 42.3009C26.8679 41.8664 26.8679 41.1667 27.3025 40.7321C27.737 40.2976 28.4367 40.2976 28.8713 40.7321L32.0089 43.8697L35.1465 40.7321C35.581 40.2976 36.2807 40.2976 36.7153 40.7321Z" fill="url(#paint4_linear_4_17893)"/>
<path d="M12.3689 14.3691C11.9343 14.8037 11.9343 15.5033 12.3689 15.9379L15.5065 19.0755L12.3689 22.2131C11.9343 22.6477 11.9343 23.3473 12.3689 23.7819C12.8034 24.2165 13.5031 24.2165 13.9377 23.7819L17.0753 20.6443L20.2129 23.7819C20.6474 24.2165 21.3471 24.2165 21.7817 23.7819C22.2162 23.3474 22.2162 22.6477 21.7817 22.2131L18.6441 19.0755L21.7817 15.9379C22.2162 15.5034 22.2162 14.8037 21.7817 14.3691C21.3471 13.9346 20.6475 13.9346 20.2129 14.3691L17.0753 17.5067L13.9377 14.3691C13.5031 13.9346 12.8035 13.9346 12.3689 14.3691Z" fill="url(#paint5_linear_4_17893)"/>
<path d="M31.488 13.5291C28.4152 13.5291 25.9414 16.0029 25.9414 19.0757C25.9414 22.1485 28.4152 24.6223 31.488 24.6223C34.5608 24.6223 37.0346 22.1485 37.0346 19.0757C37.0346 16.0029 34.5608 13.5291 31.488 13.5291ZM31.488 15.7477C33.3317 15.7477 34.8159 17.232 34.8159 19.0756C34.8159 20.9193 33.3316 22.4035 31.488 22.4035C29.6444 22.4035 28.1601 20.9192 28.1601 19.0756C28.1601 17.2319 29.6444 15.7477 31.488 15.7477Z" fill="url(#paint6_linear_4_17893)"/>
<path d="M51.6333 40.7321C52.0678 41.1667 52.0678 41.8663 51.6333 42.3009L48.4957 45.4385L51.6333 48.5761C52.0678 49.0107 52.0678 49.7103 51.6333 50.1449C51.1987 50.5795 50.499 50.5795 50.0644 50.1449L46.9268 47.0073L43.7892 50.1449C43.3547 50.5795 42.6551 50.5795 42.2205 50.1449C41.7859 49.7104 41.7859 49.0107 42.2205 48.5761L45.3581 45.4385L42.2205 42.3009C41.7859 41.8664 41.7859 41.1667 42.2205 40.7321C42.655 40.2976 43.3546 40.2976 43.7892 40.7321L46.9268 43.8697L50.0644 40.7321C50.499 40.2976 51.1987 40.2976 51.6333 40.7321Z" fill="url(#paint7_linear_4_17893)"/>
<path d="M46.4138 13.5291C43.341 13.5291 40.8672 16.0029 40.8672 19.0757C40.8672 22.1485 43.341 24.6223 46.4138 24.6223C49.4866 24.6223 51.9604 22.1485 51.9604 19.0757C51.9604 16.0029 49.4866 13.5291 46.4138 13.5291ZM46.4138 15.7477C48.2575 15.7477 49.7417 17.232 49.7417 19.0756C49.7417 20.9193 48.2574 22.4035 46.4138 22.4035C44.5702 22.4035 43.0859 20.9192 43.0859 19.0756C43.0859 17.2319 44.5702 15.7477 46.4138 15.7477Z" fill="url(#paint8_linear_4_17893)"/>
</g>
<defs>
<filter id="filter0_f_4_17893" x="3.2625" y="3.2625" width="57.475" height="57.475" filterUnits="userSpaceOnUse" color-interpolation-filters="sRGB">
<feFlood flood-opacity="0" result="BackgroundImageFix"/>
<feBlend mode="normal" in="SourceGraphic" in2="BackgroundImageFix" result="shape"/>
<feGaussianBlur stdDeviation="0.61875" result="effect1_foregroundBlur_4_17893"/>
</filter>
<linearGradient id="paint0_linear_4_17893" x1="4.5" y1="32" x2="59.5" y2="32" gradientUnits="userSpaceOnUse">
<stop stop-color="#FDFC47"/>
<stop offset="1" stop-color="#24FE41"/>
</linearGradient>
<linearGradient id="paint1_linear_4_17893" x1="4.5" y1="32" x2="59.5" y2="32" gradientUnits="userSpaceOnUse">
<stop stop-color="#FDFC47"/>
<stop offset="1" stop-color="#24FE41"/>
</linearGradient>
<linearGradient id="paint2_linear_4_17893" x1="12.043" y1="32.0006" x2="22.1076" y2="32.0006" gradientUnits="userSpaceOnUse">
<stop stop-color="#FDFC47"/>
<stop offset="1" stop-color="#24FE41"/>
</linearGradient>
<linearGradient id="paint3_linear_4_17893" x1="25.9492" y1="32.5147" x2="37.0424" y2="32.5147" gradientUnits="userSpaceOnUse">
<stop stop-color="#FDFC47"/>
<stop offset="1" stop-color="#24FE41"/>
</linearGradient>
<linearGradient id="paint4_linear_4_17893" x1="26.9766" y1="45.4385" x2="37.0412" y2="45.4385" gradientUnits="userSpaceOnUse">
<stop stop-color="#FDFC47"/>
<stop offset="1" stop-color="#24FE41"/>
</linearGradient>
<linearGradient id="paint5_linear_4_17893" x1="12.043" y1="19.0755" x2="22.1076" y2="19.0755" gradientUnits="userSpaceOnUse">
<stop stop-color="#FDFC47"/>
<stop offset="1" stop-color="#24FE41"/>
</linearGradient>
<linearGradient id="paint6_linear_4_17893" x1="25.9414" y1="19.0757" x2="37.0346" y2="19.0757" gradientUnits="userSpaceOnUse">
<stop stop-color="#FDFC47"/>
<stop offset="1" stop-color="#24FE41"/>
</linearGradient>
<linearGradient id="paint7_linear_4_17893" x1="41.8945" y1="45.4385" x2="51.9592" y2="45.4385" gradientUnits="userSpaceOnUse">
<stop stop-color="#FDFC47"/>
<stop offset="1" stop-color="#24FE41"/>
</linearGradient>
<linearGradient id="paint8_linear_4_17893" x1="40.8672" y1="19.0757" x2="51.9604" y2="19.0757" gradientUnits="userSpaceOnUse">
<stop stop-color="#FDFC47"/>
<stop offset="1" stop-color="#24FE41"/>
</linearGradient>
<clipPath id="clip0_4_17893">
<rect width="64" height="64" fill="white"/>
</clipPath>
</defs>
</svg>
