<svg width="64" height="64" viewBox="0 0 64 64" fill="none" xmlns="http://www.w3.org/2000/svg">
<g opacity="0.3" filter="url(#filter0_f_4_17832)">
<path d="M44.5003 4.50003H19.5001C11.2158 4.50003 4.5 11.2158 4.5 19.5001V44.5003C4.5 52.7846 11.2158 59.5004 19.5001 59.5004H44.5003C52.7846 59.5004 59.5004 52.7846 59.5004 44.5003V19.5001C59.5004 11.2158 52.7846 4.50003 44.5003 4.50003Z" fill="#232323"/>
<path d="M19.5001 5.00003H44.5003C52.5085 5.00003 59.0004 11.4919 59.0004 19.5001V44.5003C59.0004 52.5085 52.5085 59.0004 44.5003 59.0004H19.5001C11.4919 59.0004 5 52.5085 5 44.5003V19.5001C5 11.4919 11.4919 5.00003 19.5001 5.00003Z" stroke="url(#paint0_linear_4_17832)"/>
</g>
<path d="M19.5005 4.99997H44.5003C52.5087 4.99997 59.0008 11.4921 59.0008 19.5005V44.5003C59.0008 52.5086 52.5087 59.0007 44.5003 59.0007H19.5005C11.4921 59.0007 5 52.5086 5 44.5003V19.5005C5 11.4921 11.4921 4.99997 19.5005 4.99997Z" fill="#232323" stroke="url(#paint1_linear_4_17832)"/>
<g opacity="0.25" filter="url(#filter1_f_4_17832)">
<path d="M28.954 8.23331L28.9564 8.24049C34.1441 16.6934 29.5291 18.091 28.4937 24.6334C29.7354 23.6962 31.2482 23.188 32.8039 23.1855C34.7064 23.1855 36.5311 23.9413 37.8764 25.2866C39.2217 26.6319 39.9775 28.4566 39.9775 30.3591C39.9775 32.2617 39.2217 34.0863 37.8764 35.4316C36.5311 36.7769 34.7064 37.5327 32.8039 37.5327C30.9013 37.5327 29.0767 36.7769 27.7314 35.4316C26.3861 34.0863 25.6303 32.2617 25.6303 30.3591C25.6332 29.0017 26.0213 27.6729 26.7494 26.5272C26.0798 25.5707 25.1879 24.8103 23.2391 24.3811C28.0215 32.7503 17.536 31.8154 18.5308 39.1025C17.2419 38.7475 16.0607 36.3467 17.0363 33.3864C13.6695 37.5435 14.8675 41.1231 17.2611 44.7099C14.8699 42.3187 10.9602 42.3259 9.76464 38.9627C9.08793 42.8842 10.5633 46.6038 13.3371 49.7087C18.1948 54.032 24.5925 56.6623 31.6071 56.6623C40.6805 56.6623 48.7245 52.2661 53.7329 45.4906C54.1107 44.4445 54.339 43.3601 54.3797 42.2494C53.2678 43.8981 48.3419 47.0928 46.1384 47.0928C51.9347 42.3103 53.1351 35.1367 47.9689 28.262C48.3515 32.7455 45.9376 35.1427 43.8213 36.6671C47.1332 30.3531 47.1332 23.1604 40.6458 16.8273C41.1647 18.378 41.5617 19.5927 41.2066 21.0119C41.5664 19.2747 36.3883 11.2259 28.9516 8.23212L28.954 8.23331ZM32.8051 26.7723C31.8538 26.7723 30.9415 27.1502 30.2688 27.8229C29.5962 28.4955 29.2183 29.4078 29.2183 30.3591C29.2183 31.3104 29.5962 32.2227 30.2688 32.8954C30.9415 33.568 31.8538 33.9459 32.8051 33.9459C33.7564 33.9459 34.6687 33.568 35.3413 32.8954C36.014 32.2227 36.3919 31.3104 36.3919 30.3591C36.3919 29.4078 36.014 28.4955 35.3413 27.8229C34.6687 27.1502 33.7564 26.7723 32.8051 26.7723Z" fill="#232323"/>
<path d="M41.6916 21.1333C41.9058 20.2774 41.8708 19.4887 41.7124 18.7026C43.9433 21.343 45.0916 24.0876 45.4117 26.8127C45.7943 30.0702 44.9989 33.3457 43.3786 36.4349L44.1136 37.0728C45.1966 36.2926 46.3897 35.2658 47.2595 33.8338C47.915 32.7546 48.3782 31.4597 48.4855 29.8919C50.3151 32.8057 50.9817 35.7125 50.6679 38.4041C50.3064 41.5063 48.6357 44.3841 45.8202 46.7071L44.7468 47.5928H46.1384C46.7889 47.5928 47.5832 47.3626 48.3899 47.0301C49.2089 46.6925 50.0896 46.2285 50.9289 45.7161C51.7687 45.2034 52.5764 44.6367 53.2485 44.0894C53.4097 43.9582 53.565 43.8265 53.7122 43.6957C53.6113 44.2216 53.4681 44.741 53.2871 45.2525C48.3658 51.8725 40.4887 56.1623 31.6071 56.1623C24.7303 56.1623 18.4582 53.5881 13.6909 49.3543C11.3806 46.76 10.0314 43.7644 10.1046 40.6107C10.8417 41.5482 11.8349 42.1418 12.8397 42.6474C13.1439 42.8005 13.4467 42.9451 13.7455 43.0877C14.9107 43.644 16.0154 44.1714 16.9075 45.0635L17.677 44.4324C16.4952 42.6615 15.6523 40.9535 15.4863 39.2145C15.3767 38.0669 15.5596 36.8772 16.1772 35.6179C16.1849 36.2619 16.2872 36.8554 16.4595 37.378C16.8207 38.4738 17.5268 39.3446 18.398 39.5846L19.1287 39.7859L19.0262 39.0349C18.7962 37.3503 19.2253 36.1696 19.9252 35.197C20.4918 34.4095 21.2228 33.7685 21.986 33.0992C22.2029 32.909 22.4223 32.7166 22.6413 32.5179C23.5986 31.6492 24.5332 30.6668 24.8667 29.3064C25.1468 28.1639 24.9864 26.8349 24.2198 25.1847C24.6089 25.3308 24.9285 25.4954 25.1985 25.6737C25.5861 25.9296 25.8859 26.2232 26.1482 26.5556C25.485 27.7113 25.1332 29.0216 25.1303 30.358V30.3591C25.1303 32.3943 25.9387 34.3461 27.3778 35.7852C28.8169 37.2243 30.7687 38.0327 32.8039 38.0327C34.839 38.0327 36.7909 37.2243 38.2299 35.7852C39.669 34.3461 40.4775 32.3943 40.4775 30.3591C40.4775 28.3239 39.669 26.3721 38.2299 24.9331C36.7909 23.494 34.839 22.6855 32.8039 22.6855L32.8031 22.6855C31.5445 22.6875 30.3123 22.9989 29.2119 23.5842C29.4714 22.5045 29.8255 21.5695 30.1933 20.6943C30.3092 20.4186 30.4281 20.1455 30.5464 19.8736C30.921 19.0127 31.29 18.1649 31.5395 17.2906C31.8755 16.1137 32.0069 14.8613 31.7088 13.3511C31.4777 12.1804 30.9916 10.87 30.1634 9.33156C33.1798 10.8598 35.7563 13.1882 37.6194 15.4141C38.6903 16.6936 39.5151 17.927 40.047 18.9363C40.3133 19.4416 40.501 19.881 40.6108 20.2349C40.7262 20.6068 40.7354 20.8216 40.717 20.9105L41.6916 21.1333ZM30.6224 28.1764C31.2013 27.5975 31.9864 27.2723 32.8051 27.2723C33.6237 27.2723 34.4089 27.5975 34.9878 28.1764C35.5667 28.7553 35.8919 29.5404 35.8919 30.3591C35.8919 31.1778 35.5667 31.9629 34.9878 32.5418C34.4089 33.1207 33.6237 33.4459 32.8051 33.4459C31.9864 33.4459 31.2013 33.1207 30.6224 32.5418C30.0435 31.9629 29.7183 31.1778 29.7183 30.3591C29.7183 29.5404 30.0435 28.7553 30.6224 28.1764Z" stroke="url(#paint2_linear_4_17832)"/>
</g>
<path d="M28.3398 9.3699L27.3359 8.96577L27.6788 9.99217L27.6812 9.99935L27.6994 10.0537L27.7293 10.1025C29.0075 12.1851 29.6615 13.8008 29.9268 15.1451C30.1901 16.4787 30.0758 17.5696 29.777 18.6164C29.5473 19.421 29.2154 20.1843 28.848 21.0288C28.7253 21.311 28.5986 21.6022 28.4704 21.9071C27.966 23.1074 27.4667 24.4633 27.1989 26.1553L27.0053 27.3787L27.994 26.6325C29.149 25.7607 30.5561 25.288 32.0032 25.2856C33.7731 25.2856 35.4705 25.9887 36.722 27.2402C37.9736 28.4918 38.6767 30.1893 38.6767 31.9593C38.6767 33.7292 37.9736 35.4267 36.722 36.6783C35.4704 37.9298 33.773 38.6329 32.003 38.6329C30.233 38.6329 28.5355 37.9298 27.284 36.6783C26.0325 35.4268 25.3294 33.7294 25.3293 31.9595C25.3322 30.697 25.6932 29.4612 26.3704 28.3957L26.5493 28.1141L26.358 27.8408C25.997 27.325 25.5639 26.8458 24.9485 26.4395C24.3357 26.0349 23.5651 25.7176 22.5457 25.4931L21.4447 25.2506L22.004 26.2295C23.1657 28.2625 23.3471 29.6379 23.0945 30.6685C22.8381 31.7144 22.1102 32.5229 21.1683 33.3775C20.9785 33.5498 20.7787 33.7247 20.574 33.9039C19.7984 34.583 18.9528 35.3234 18.3125 36.2132C17.634 37.1562 17.1713 38.2781 17.163 39.713C16.9518 39.4581 16.7549 39.1101 16.6083 38.6653C16.3095 37.7587 16.2537 36.5284 16.7102 35.1432L15.8468 34.672C14.0938 36.8365 13.498 38.8977 13.6903 40.9099C13.8085 42.1472 14.2227 43.3412 14.8109 44.5045C14.3068 44.2262 13.7953 43.983 13.3049 43.7498C13.024 43.6162 12.7499 43.4859 12.4882 43.3542C11.0892 42.6502 9.96491 41.8867 9.43476 40.3953L8.79558 38.5971L8.47093 40.4777C7.68474 45.0317 9.68306 49.2869 13.1331 52.6442L13.1389 52.6499L13.1449 52.6554C18.1196 57.1922 24.738 59.9596 32.0018 59.9596C35.8478 59.9596 39.5137 59.183 42.8508 57.7792L42.8647 57.7733L42.8782 57.7667C48.6085 54.9384 53.8592 49.8401 54.0785 43.8692L54.1427 42.1205L53.1643 43.5713C52.9283 43.9212 52.4582 44.3927 51.8162 44.9154C51.1831 45.4308 50.413 45.9719 49.607 46.4639C48.8004 46.9563 47.967 47.394 47.208 47.7068C47.1689 47.7229 47.1302 47.7386 47.0918 47.754C49.2238 45.5438 50.5327 42.9349 50.8607 40.1212C51.2569 36.7212 50.2138 33.0836 47.5679 29.5629L46.522 28.1711L46.67 29.9058C46.8524 32.0423 46.3691 33.6566 45.6042 34.9159C45.2589 35.4845 44.8529 35.9859 44.4171 36.4331C45.461 33.8109 45.9291 31.0613 45.6044 28.2973C45.1925 24.7906 43.5098 21.3068 40.1947 18.0703L39.3713 18.5868C39.4174 18.7247 39.4621 18.8588 39.5051 18.9896C38.9905 18.1707 38.3452 17.2796 37.5868 16.3734C35.374 13.7293 32.1575 10.9068 28.3398 9.3699Z" fill="url(#paint3_linear_4_17832)" stroke="url(#paint4_linear_4_17832)"/>
<path d="M35.9152 39.4772C36.1325 38.97 36.4741 38.494 36.923 38.076C36.705 38.7945 36.5895 39.492 36.5725 40.1332C36.544 41.2082 36.7928 42.203 37.3965 42.8313C40.0659 45.9784 40.4023 49.3607 39.318 51.9604C38.2292 54.5707 35.6865 56.4542 32.4522 56.5671H32.2349C26.8239 56.5671 22.9453 52.0645 22.9453 46.3066C22.9453 42.9933 24.8782 40.4344 27.2281 37.9514C28.5818 39.0345 30.2671 39.6304 32.0104 39.633L32.0128 39.633C32.5404 39.6312 33.0659 39.575 33.5809 39.4657C33.6411 40.8633 34.0489 42.1747 35.3049 43.1173L36.0523 42.4938C35.5193 41.428 35.5256 40.3862 35.9152 39.4772Z" fill="#232323" stroke="url(#paint5_linear_4_17832)"/>
<path opacity="0.5" d="M35.0916 31.9599C35.0916 33.6647 33.7096 35.0467 32.0048 35.0467C30.3 35.0467 28.918 33.6647 28.918 31.9599C28.918 30.2551 30.3 28.8731 32.0048 28.8731C33.7096 28.8731 35.0916 30.2551 35.0916 31.9599Z" fill="#232323" stroke="url(#paint6_linear_4_17832)"/>
<defs>
<filter id="filter0_f_4_17832" x="3.26249" y="3.26252" width="57.475" height="57.4754" filterUnits="userSpaceOnUse" color-interpolation-filters="sRGB">
<feFlood flood-opacity="0" result="BackgroundImageFix"/>
<feBlend mode="normal" in="SourceGraphic" in2="BackgroundImageFix" result="shape"/>
<feGaussianBlur stdDeviation="0.618754" result="effect1_foregroundBlur_4_17832"/>
</filter>
<filter id="filter1_f_4_17832" x="7.27135" y="5.90191" width="49.4378" height="53.0907" filterUnits="userSpaceOnUse" color-interpolation-filters="sRGB">
<feFlood flood-opacity="0" result="BackgroundImageFix"/>
<feBlend mode="normal" in="SourceGraphic" in2="BackgroundImageFix" result="shape"/>
<feGaussianBlur stdDeviation="1.1651" result="effect1_foregroundBlur_4_17832"/>
</filter>
<linearGradient id="paint0_linear_4_17832" x1="4.5" y1="32.0002" x2="59.5004" y2="32.0002" gradientUnits="userSpaceOnUse">
<stop stop-color="#FDFC47"/>
<stop offset="1" stop-color="#24FE41"/>
</linearGradient>
<linearGradient id="paint1_linear_4_17832" x1="4.5" y1="32.0004" x2="59.5008" y2="32.0004" gradientUnits="userSpaceOnUse">
<stop stop-color="#FDFC47"/>
<stop offset="1" stop-color="#24FE41"/>
</linearGradient>
<linearGradient id="paint2_linear_4_17832" x1="9.60156" y1="32.4472" x2="54.3797" y2="32.4472" gradientUnits="userSpaceOnUse">
<stop stop-color="#FDFC47"/>
<stop offset="1" stop-color="#24FE41"/>
</linearGradient>
<linearGradient id="paint3_linear_4_17832" x1="8.80078" y1="34.6461" x2="53.5788" y2="34.6461" gradientUnits="userSpaceOnUse">
<stop stop-color="#FDFC47"/>
<stop offset="1" stop-color="#24FE41"/>
</linearGradient>
<linearGradient id="paint4_linear_4_17832" x1="8.80078" y1="34.6461" x2="53.5788" y2="34.6461" gradientUnits="userSpaceOnUse">
<stop stop-color="#FDFC47"/>
<stop offset="1" stop-color="#24FE41"/>
</linearGradient>
<linearGradient id="paint5_linear_4_17832" x1="22.4453" y1="46.9034" x2="40.3957" y2="46.9034" gradientUnits="userSpaceOnUse">
<stop stop-color="#FDFC47"/>
<stop offset="1" stop-color="#24FE41"/>
</linearGradient>
<linearGradient id="paint6_linear_4_17832" x1="28.418" y1="31.9599" x2="35.5916" y2="31.9599" gradientUnits="userSpaceOnUse">
<stop stop-color="#FDFC47"/>
<stop offset="1" stop-color="#24FE41"/>
</linearGradient>
</defs>
</svg>
