<svg width="64" height="64" viewBox="0 0 64 64" fill="none" xmlns="http://www.w3.org/2000/svg">
<g opacity="0.3" filter="url(#filter0_f_4_17761)">
<path d="M46.4983 4.49982H17.5021C10.3212 4.49982 4.5 10.3211 4.5 17.5019V46.4981C4.5 53.679 10.3212 59.5002 17.5021 59.5002H46.4983C53.6792 59.5002 59.5004 53.679 59.5004 46.4981V17.5019C59.5004 10.3211 53.6792 4.49982 46.4983 4.49982Z" fill="url(#paint0_linear_4_17761)"/>
</g>
<path d="M17.5022 4.99976H46.4986C53.4033 4.99976 59.0008 10.5972 59.0008 17.502V46.4983C59.0008 53.4031 53.4033 59.0005 46.4986 59.0005H17.5022C10.5974 59.0005 5 53.4031 5 46.4983V17.502C5 10.5972 10.5974 4.99976 17.5022 4.99976Z" fill="#232323" stroke="url(#paint1_linear_4_17761)"/>
<path d="M46.8105 16.2271H17.1905C12.1147 16.2271 8 20.3418 8 25.4176V47.0362C8 52.1119 12.1147 56.2266 17.1905 56.2266H46.8105C51.8862 56.2266 56.0009 52.1119 56.0009 47.0362V25.4176C56.0009 20.3418 51.8862 16.2271 46.8105 16.2271Z" fill="url(#paint2_linear_4_17761)"/>
<path d="M15.2032 13.2672C16.3078 13.2672 17.2032 12.3717 17.2032 11.2671C17.2032 10.1625 16.3078 9.26709 15.2032 9.26709C14.0986 9.26709 13.2031 10.1625 13.2031 11.2671C13.2031 12.3717 14.0986 13.2672 15.2032 13.2672Z" fill="#FFD34F"/>
<path d="M21.2032 13.2672C22.3078 13.2672 23.2032 12.3717 23.2032 11.2671C23.2032 10.1625 22.3078 9.26709 21.2032 9.26709C20.0986 9.26709 19.2031 10.1625 19.2031 11.2671C19.2031 12.3717 20.0986 13.2672 21.2032 13.2672Z" fill="#3BCF32"/>
<path d="M27.2032 13.2672C28.3078 13.2672 29.2032 12.3717 29.2032 11.2671C29.2032 10.1625 28.3078 9.26709 27.2032 9.26709C26.0986 9.26709 25.2031 10.1625 25.2031 11.2671C25.2031 12.3717 26.0986 13.2672 27.2032 13.2672Z" fill="#FD4605"/>
<path d="M30.5172 29.4077L30.9267 29.4077L31.0074 29.0062C31.3206 27.4481 32.6891 26.2826 34.3438 26.2826C35.9985 26.2826 37.367 27.4481 37.6802 29.0061L37.7609 29.4076L38.1704 29.4076L44 29.4076L44 29.9701L38.1704 29.9701L37.761 29.9701L37.6803 30.3715C37.367 31.9297 35.9985 33.0952 34.3438 33.0952C32.6891 33.0952 31.3206 31.9296 31.0074 30.3716L30.9267 29.9701L30.5172 29.9701L20.0016 29.9702L20.0016 29.4077L30.5172 29.4077ZM27.2329 43.0462L26.8234 43.0462L26.7427 43.4476C26.4295 45.0057 25.061 46.1712 23.4063 46.1712C21.5183 46.1712 20 44.6529 20 42.7649C20.0001 40.877 21.5184 39.3586 23.4063 39.3586C25.061 39.3586 26.4295 40.5243 26.7427 42.0823L26.8234 42.4837H27.2329H43.9993L43.9993 43.0462L27.2329 43.0462ZM26.2501 42.765C26.2501 41.1903 24.981 39.9212 23.4063 39.9212C21.8316 39.9212 20.5626 41.1905 20.5625 42.765C20.5625 44.3396 21.8317 45.6088 23.4063 45.6088C24.981 45.6088 26.2501 44.3395 26.2501 42.765Z" fill="#232323" stroke="#232323"/>
<defs>
<filter id="filter0_f_4_17761" x="2.29998" y="2.2998" width="59.4" height="59.4004" filterUnits="userSpaceOnUse" color-interpolation-filters="sRGB">
<feFlood flood-opacity="0" result="BackgroundImageFix"/>
<feBlend mode="normal" in="SourceGraphic" in2="BackgroundImageFix" result="shape"/>
<feGaussianBlur stdDeviation="1.10001" result="effect1_foregroundBlur_4_17761"/>
</filter>
<linearGradient id="paint0_linear_4_17761" x1="4.5" y1="32" x2="59.5004" y2="32" gradientUnits="userSpaceOnUse">
<stop stop-color="#FDFC47"/>
<stop offset="1" stop-color="#24FE41"/>
</linearGradient>
<linearGradient id="paint1_linear_4_17761" x1="4.5" y1="32.0001" x2="59.5008" y2="32.0001" gradientUnits="userSpaceOnUse">
<stop stop-color="#FDFC47"/>
<stop offset="1" stop-color="#24FE41"/>
</linearGradient>
<linearGradient id="paint2_linear_4_17761" x1="8" y1="36.2269" x2="56.0009" y2="36.2269" gradientUnits="userSpaceOnUse">
<stop stop-color="#FDFC47"/>
<stop offset="1" stop-color="#24FE41"/>
</linearGradient>
</defs>
</svg>
