<svg width="64" height="64" viewBox="0 0 64 64" fill="none" xmlns="http://www.w3.org/2000/svg">
<g opacity="0.3" filter="url(#filter0_f_4_17706)">
<path d="M44.5 4.49979H19.5C11.2157 4.49979 4.5 11.2155 4.5 19.4998V44.4998C4.5 52.7841 11.2157 59.4998 19.5 59.4998H44.5C52.7843 59.4998 59.5 52.7841 59.5 44.4998V19.4998C59.5 11.2155 52.7843 4.49979 44.5 4.49979Z" fill="url(#paint0_linear_4_17706)"/>
</g>
<path d="M19.5 4.9996H44.501C52.5091 4.9996 59.001 11.4915 59.001 19.4996V44.5006C59.001 52.5087 52.5091 59.0006 44.501 59.0006H19.5C11.4919 59.0006 5 52.5087 5 44.5006V19.4996C5 11.4915 11.4919 4.9996 19.5 4.9996Z" fill="#232323" stroke="url(#paint1_linear_4_17706)"/>
<path d="M32.4956 13V19.9474L24.0156 28.5H32.4956V35.5H40.3956L32.4956 45.0526V51" stroke="url(#paint2_linear_4_17706)" stroke-width="3"/>
<defs>
<filter id="filter0_f_4_17706" x="3.2625" y="3.26229" width="57.475" height="57.475" filterUnits="userSpaceOnUse" color-interpolation-filters="sRGB">
<feFlood flood-opacity="0" result="BackgroundImageFix"/>
<feBlend mode="normal" in="SourceGraphic" in2="BackgroundImageFix" result="shape"/>
<feGaussianBlur stdDeviation="0.61875" result="effect1_foregroundBlur_4_17706"/>
</filter>
<linearGradient id="paint0_linear_4_17706" x1="4.5" y1="31.9998" x2="59.5" y2="31.9998" gradientUnits="userSpaceOnUse">
<stop stop-color="#FDFC47"/>
<stop offset="1" stop-color="#24FE41"/>
</linearGradient>
<linearGradient id="paint1_linear_4_17706" x1="4.5" y1="32.0001" x2="59.501" y2="32.0001" gradientUnits="userSpaceOnUse">
<stop stop-color="#FDFC47"/>
<stop offset="1" stop-color="#24FE41"/>
</linearGradient>
<linearGradient id="paint2_linear_4_17706" x1="24.0156" y1="32" x2="40.3956" y2="32" gradientUnits="userSpaceOnUse">
<stop stop-color="#FDFC47"/>
<stop offset="1" stop-color="#24FE41"/>
</linearGradient>
</defs>
</svg>
