<svg width="64" height="64" viewBox="0 0 64 64" fill="none" xmlns="http://www.w3.org/2000/svg">
<g opacity="0.3" filter="url(#filter0_f_4_17598)">
<path d="M44.5 4.5H19.5C11.2157 4.5 4.5 11.2157 4.5 19.5V44.5C4.5 52.7843 11.2157 59.5 19.5 59.5H44.5C52.7843 59.5 59.5 52.7843 59.5 44.5V19.5C59.5 11.2157 52.7843 4.5 44.5 4.5Z" fill="url(#paint0_linear_4_17598)"/>
</g>
<path d="M19.5 5H44.5C52.5081 5 59 11.4919 59 19.5V44.5C59 52.5081 52.5081 59 44.5 59H19.5C11.4919 59 5 52.5081 5 44.5V19.5C5 11.4919 11.4919 5 19.5 5Z" fill="#232323" stroke="url(#paint1_linear_4_17598)"/>
<path d="M17.5022 47.2992V45.3505L24.8207 37.3391C25.6796 36.4008 26.3869 35.5852 26.9427 34.8923C27.4984 34.1923 27.9098 33.5355 28.1768 32.922C28.4511 32.3013 28.5882 31.6517 28.5882 30.9733C28.5882 30.1938 28.4006 29.5189 28.0253 28.9488C27.6572 28.3786 27.152 27.9383 26.5096 27.628C25.8672 27.3176 25.1455 27.1624 24.3444 27.1624C23.4927 27.1624 22.7493 27.3393 22.1142 27.6929C21.4862 28.0393 20.9991 28.5265 20.6526 29.1544C20.3134 29.7824 20.1438 30.5186 20.1438 31.363H17.5888C17.5888 30.0639 17.8883 28.9235 18.4874 27.9419C19.0864 26.9603 19.902 26.1953 20.9341 25.6468C21.9734 25.0982 23.139 24.824 24.431 24.824C25.7301 24.824 26.8813 25.0982 27.8845 25.6468C28.8878 26.1953 29.6745 26.9351 30.2446 27.8661C30.8148 28.7972 31.0999 29.8329 31.0999 30.9733C31.0999 31.7888 30.952 32.5864 30.656 33.3659C30.3673 34.1381 29.8621 35.0006 29.1404 35.9533C28.4258 36.8988 27.4334 38.0536 26.1632 39.4177L21.1831 44.7442V44.9174H31.4897V47.2992H17.5022ZM36.6538 47.2992L46.5706 27.6821V27.5089H35.1381V25.1271H49.3421V27.6388L39.4686 47.2992H36.6538Z" fill="url(#paint2_linear_4_17598)"/>
<path d="M15.2238 20.1474L13.9773 15.5888H14.5382L15.4909 19.3015H15.5354L16.5059 15.5888H17.1292L18.0996 19.3015H18.1442L19.0968 15.5888H19.6578L18.4113 20.1474H17.8414L16.8353 16.5147H16.7997L15.7936 20.1474H15.2238ZM21.3895 20.2186C21.0601 20.2186 20.7759 20.1459 20.537 20.0005C20.2996 19.8536 20.1163 19.6488 19.9872 19.3861C19.8596 19.122 19.7958 18.8148 19.7958 18.4646C19.7958 18.1144 19.8596 17.8057 19.9872 17.5386C20.1163 17.27 20.2958 17.0608 20.5259 16.9109C20.7573 16.7596 21.0274 16.6839 21.3361 16.6839C21.5141 16.6839 21.69 16.7136 21.8636 16.7729C22.0372 16.8323 22.1953 16.9287 22.3377 17.0623C22.4802 17.1944 22.5937 17.3695 22.6783 17.5876C22.7629 17.8057 22.8052 18.0743 22.8052 18.3934V18.616H20.1697V18.1619H22.2709C22.2709 17.969 22.2324 17.7968 22.1552 17.6455C22.0795 17.4941 21.9712 17.3747 21.8302 17.2871C21.6907 17.1996 21.526 17.1558 21.3361 17.1558C21.1268 17.1558 20.9458 17.2077 20.793 17.3116C20.6416 17.414 20.5251 17.5475 20.4435 17.7123C20.3619 17.877 20.3211 18.0536 20.3211 18.242V18.5447C20.3211 18.8029 20.3656 19.0218 20.4546 19.2014C20.5451 19.3794 20.6705 19.5152 20.8308 19.6087C20.9911 19.7007 21.1773 19.7467 21.3895 19.7467C21.5275 19.7467 21.6522 19.7274 21.7634 19.6888C21.8762 19.6488 21.9734 19.5894 22.055 19.5108C22.1367 19.4306 22.1997 19.3312 22.2442 19.2125L22.7517 19.355C22.6983 19.5271 22.6085 19.6784 22.4824 19.809C22.3563 19.9381 22.2005 20.039 22.015 20.1118C21.8295 20.183 21.621 20.2186 21.3895 20.2186ZM24.8953 20.2186C24.6104 20.2186 24.3588 20.1466 24.1407 20.0027C23.9226 19.8573 23.7519 19.6525 23.6287 19.3883C23.5056 19.1227 23.444 18.8089 23.444 18.4468C23.444 18.0877 23.5056 17.7761 23.6287 17.5119C23.7519 17.2478 23.9233 17.0437 24.1429 16.8998C24.3625 16.7559 24.6163 16.6839 24.9042 16.6839C25.1268 16.6839 25.3026 16.721 25.4317 16.7952C25.5623 16.8679 25.6617 16.951 25.73 17.0445C25.7997 17.1365 25.8539 17.2122 25.8925 17.2715H25.937V15.5888H26.4623V20.1474H25.9548V19.6221H25.8925C25.8539 19.6844 25.799 19.763 25.7277 19.858C25.6565 19.9515 25.5549 20.0353 25.4228 20.1095C25.2907 20.1822 25.1149 20.2186 24.8953 20.2186ZM24.9665 19.7467C25.1772 19.7467 25.3553 19.6918 25.5007 19.582C25.6461 19.4707 25.7567 19.3171 25.8324 19.1212C25.908 18.9239 25.9459 18.6961 25.9459 18.4379C25.9459 18.1827 25.9088 17.9593 25.8346 17.7679C25.7604 17.575 25.6506 17.4251 25.5052 17.3183C25.3597 17.2099 25.1802 17.1558 24.9665 17.1558C24.7439 17.1558 24.5584 17.2129 24.41 17.3272C24.2631 17.44 24.1526 17.5935 24.0784 17.7879C24.0057 17.9808 23.9693 18.1975 23.9693 18.4379C23.9693 18.6813 24.0064 18.9024 24.0806 19.1012C24.1563 19.2986 24.2676 19.4559 24.4145 19.5731C24.5629 19.6888 24.7469 19.7467 24.9665 19.7467ZM28.0226 18.0907V20.1474H27.4973V16.7284H28.0048V17.2626H28.0493C28.1295 17.089 28.2512 16.9495 28.4144 16.8442C28.5776 16.7373 28.7883 16.6839 29.0465 16.6839C29.278 16.6839 29.4806 16.7314 29.6542 16.8264C29.8278 16.9198 29.9629 17.0623 30.0593 17.2537C30.1558 17.4437 30.204 17.6841 30.204 17.9749V20.1474H29.6787V18.0105C29.6787 17.7419 29.6089 17.5327 29.4695 17.3828C29.33 17.2315 29.1385 17.1558 28.8952 17.1558C28.7275 17.1558 28.5776 17.1921 28.4455 17.2648C28.315 17.3376 28.2118 17.4437 28.1362 17.5832C28.0605 17.7226 28.0226 17.8918 28.0226 18.0907ZM32.5974 20.2186C32.2679 20.2186 31.9838 20.1459 31.7449 20.0005C31.5074 19.8536 31.3242 19.6488 31.1951 19.3861C31.0675 19.122 31.0036 18.8148 31.0036 18.4646C31.0036 18.1144 31.0675 17.8057 31.1951 17.5386C31.3242 17.27 31.5037 17.0608 31.7337 16.9109C31.9652 16.7596 32.2353 16.6839 32.544 16.6839C32.722 16.6839 32.8979 16.7136 33.0715 16.7729C33.2451 16.8323 33.4031 16.9287 33.5456 17.0623C33.6881 17.1944 33.8016 17.3695 33.8862 17.5876C33.9707 17.8057 34.013 18.0743 34.013 18.3934V18.616H31.3776V18.1619H33.4788C33.4788 17.969 33.4402 17.7968 33.3631 17.6455C33.2874 17.4941 33.1791 17.3747 33.0381 17.2871C32.8986 17.1996 32.7339 17.1558 32.544 17.1558C32.3347 17.1558 32.1537 17.2077 32.0008 17.3116C31.8495 17.414 31.733 17.5475 31.6514 17.7123C31.5698 17.877 31.529 18.0536 31.529 18.242V18.5447C31.529 18.8029 31.5735 19.0218 31.6625 19.2014C31.753 19.3794 31.8784 19.5152 32.0387 19.6087C32.1989 19.7007 32.3852 19.7467 32.5974 19.7467C32.7354 19.7467 32.86 19.7274 32.9713 19.6888C33.0841 19.6488 33.1813 19.5894 33.2629 19.5108C33.3445 19.4306 33.4076 19.3312 33.4521 19.2125L33.9596 19.355C33.9062 19.5271 33.8164 19.6784 33.6903 19.809C33.5642 19.9381 33.4083 20.039 33.2229 20.1118C33.0374 20.183 32.8289 20.2186 32.5974 20.2186ZM37.2339 17.4941L36.762 17.6277C36.7323 17.549 36.6886 17.4726 36.6307 17.3984C36.5743 17.3227 36.4971 17.2604 36.3992 17.2114C36.3013 17.1625 36.1759 17.138 36.023 17.138C35.8138 17.138 35.6394 17.1862 35.4999 17.2827C35.3619 17.3776 35.2929 17.4986 35.2929 17.6455C35.2929 17.7761 35.3404 17.8792 35.4354 17.9549C35.5304 18.0306 35.6787 18.0936 35.8806 18.1441L36.3881 18.2687C36.6937 18.3429 36.9215 18.4564 37.0714 18.6093C37.2213 18.7606 37.2962 18.9558 37.2962 19.1947C37.2962 19.3906 37.2398 19.5657 37.1271 19.72C37.0158 19.8743 36.8599 19.996 36.6596 20.085C36.4593 20.1741 36.2263 20.2186 35.9607 20.2186C35.612 20.2186 35.3233 20.1429 35.0948 19.9916C34.8663 19.8402 34.7216 19.6191 34.6608 19.3282L35.1594 19.2036C35.2069 19.3876 35.2966 19.5256 35.4287 19.6176C35.5623 19.7096 35.7366 19.7556 35.9518 19.7556C36.1966 19.7556 36.391 19.7037 36.535 19.5998C36.6804 19.4944 36.7531 19.3683 36.7531 19.2214C36.7531 19.1027 36.7116 19.0033 36.6285 18.9231C36.5454 18.8415 36.4177 18.7807 36.2456 18.7406L35.6758 18.6071C35.3627 18.5329 35.1327 18.4179 34.9858 18.262C34.8403 18.1047 34.7676 17.9081 34.7676 17.6722C34.7676 17.4793 34.8218 17.3086 34.9301 17.1602C35.0399 17.0118 35.1891 16.8954 35.3775 16.8108C35.5675 16.7262 35.7826 16.6839 36.023 16.6839C36.3613 16.6839 36.627 16.7581 36.8199 16.9065C37.0143 17.0549 37.1523 17.2508 37.2339 17.4941ZM39.378 20.2186C39.0931 20.2186 38.8415 20.1466 38.6234 20.0027C38.4053 19.8573 38.2346 19.6525 38.1115 19.3883C37.9883 19.1227 37.9267 18.8089 37.9267 18.4468C37.9267 18.0877 37.9883 17.7761 38.1115 17.5119C38.2346 17.2478 38.406 17.0437 38.6256 16.8998C38.8452 16.7559 39.099 16.6839 39.3869 16.6839C39.6095 16.6839 39.7853 16.721 39.9144 16.7952C40.045 16.8679 40.1444 16.951 40.2127 17.0445C40.2824 17.1365 40.3366 17.2122 40.3752 17.2715H40.4197V15.5888H40.945V20.1474H40.4375V19.6221H40.3752C40.3366 19.6844 40.2817 19.763 40.2105 19.858C40.1392 19.9515 40.0376 20.0353 39.9055 20.1095C39.7734 20.1822 39.5976 20.2186 39.378 20.2186ZM39.4492 19.7467C39.6599 19.7467 39.838 19.6918 39.9834 19.582C40.1288 19.4707 40.2394 19.3171 40.3151 19.1212C40.3908 18.9239 40.4286 18.6961 40.4286 18.4379C40.4286 18.1827 40.3915 17.9593 40.3173 17.7679C40.2431 17.575 40.1333 17.4251 39.9879 17.3183C39.8424 17.2099 39.6629 17.1558 39.4492 17.1558C39.2266 17.1558 39.0411 17.2129 38.8927 17.3272C38.7458 17.44 38.6353 17.5935 38.5611 17.7879C38.4884 17.9808 38.452 18.1975 38.452 18.4379C38.452 18.6813 38.4891 18.9024 38.5633 19.1012C38.639 19.2986 38.7503 19.4559 38.8972 19.5731C39.0456 19.6888 39.2296 19.7467 39.4492 19.7467ZM42.9861 20.2275C42.7695 20.2275 42.5729 20.1867 42.3963 20.1051C42.2197 20.022 42.0795 19.9025 41.9756 19.7467C41.8717 19.5894 41.8198 19.3995 41.8198 19.1769C41.8198 18.981 41.8584 18.8222 41.9355 18.7005C42.0127 18.5774 42.1158 18.4809 42.2449 18.4112C42.374 18.3414 42.5165 18.2895 42.6723 18.2554C42.8296 18.2198 42.9876 18.1916 43.1464 18.1708C43.3541 18.1441 43.5226 18.124 43.6517 18.1107C43.7823 18.0958 43.8772 18.0714 43.9366 18.0372C43.9974 18.0031 44.0278 17.9437 44.0278 17.8592V17.8414C44.0278 17.6217 43.9678 17.4511 43.8476 17.3294C43.7288 17.2077 43.5485 17.1469 43.3067 17.1469C43.0559 17.1469 42.8593 17.2018 42.7168 17.3116C42.5743 17.4214 42.4742 17.5386 42.4163 17.6633L41.9177 17.4852C42.0067 17.2775 42.1255 17.1157 42.2739 17C42.4237 16.8827 42.587 16.8011 42.7635 16.7551C42.9416 16.7076 43.1167 16.6839 43.2889 16.6839C43.3987 16.6839 43.5248 16.6972 43.6673 16.724C43.8112 16.7492 43.9499 16.8019 44.0835 16.882C44.2185 16.9621 44.3306 17.0831 44.4196 17.2448C44.5086 17.4066 44.5532 17.6232 44.5532 17.8948V20.1474H44.0278V19.6844H44.0011C43.9655 19.7586 43.9062 19.838 43.8231 19.9226C43.74 20.0071 43.6294 20.0791 43.4914 20.1385C43.3534 20.1978 43.185 20.2275 42.9861 20.2275ZM43.0663 19.7556C43.274 19.7556 43.4491 19.7148 43.5916 19.6332C43.7355 19.5516 43.8438 19.4462 43.9166 19.3171C43.9908 19.188 44.0278 19.0522 44.0278 18.9098V18.429C44.0056 18.4557 43.9566 18.4802 43.8809 18.5024C43.8067 18.5232 43.7207 18.5418 43.6227 18.5581C43.5263 18.5729 43.4321 18.5863 43.3401 18.5982C43.2495 18.6085 43.1761 18.6174 43.1197 18.6249C42.9832 18.6427 42.8556 18.6716 42.7368 18.7117C42.6196 18.7503 42.5246 18.8089 42.4519 18.8875C42.3807 18.9647 42.3451 19.07 42.3451 19.2036C42.3451 19.3861 42.4126 19.5241 42.5476 19.6176C42.6842 19.7096 42.857 19.7556 43.0663 19.7556ZM45.7279 21.4295C45.6388 21.4295 45.5594 21.4221 45.4897 21.4072C45.42 21.3939 45.3717 21.3805 45.345 21.3672L45.4786 20.9042C45.6062 20.9368 45.719 20.9487 45.8169 20.9398C45.9148 20.9309 46.0017 20.8871 46.0773 20.8085C46.1545 20.7313 46.225 20.6059 46.2888 20.4323L46.3867 20.1652L45.1224 16.7284H45.6923L46.636 19.4529H46.6716L47.6154 16.7284H48.1852L46.734 20.646C46.6687 20.8226 46.5878 20.9687 46.4913 21.0845C46.3949 21.2017 46.2829 21.2885 46.1552 21.3449C46.0291 21.4013 45.8866 21.4295 45.7279 21.4295Z" fill="url(#paint3_linear_4_17598)"/>
<defs>
<filter id="filter0_f_4_17598" x="3.2625" y="3.2625" width="57.475" height="57.475" filterUnits="userSpaceOnUse" color-interpolation-filters="sRGB">
<feFlood flood-opacity="0" result="BackgroundImageFix"/>
<feBlend mode="normal" in="SourceGraphic" in2="BackgroundImageFix" result="shape"/>
<feGaussianBlur stdDeviation="0.61875" result="effect1_foregroundBlur_4_17598"/>
</filter>
<linearGradient id="paint0_linear_4_17598" x1="4.5" y1="32" x2="59.5" y2="32" gradientUnits="userSpaceOnUse">
<stop stop-color="#FDFC47"/>
<stop offset="1" stop-color="#24FE41"/>
</linearGradient>
<linearGradient id="paint1_linear_4_17598" x1="4.5" y1="32" x2="59.5" y2="32" gradientUnits="userSpaceOnUse">
<stop stop-color="#FDFC47"/>
<stop offset="1" stop-color="#24FE41"/>
</linearGradient>
<linearGradient id="paint2_linear_4_17598" x1="15.207" y1="35.7992" x2="51.207" y2="35.7992" gradientUnits="userSpaceOnUse">
<stop stop-color="#FDFC47"/>
<stop offset="1" stop-color="#24FE41"/>
</linearGradient>
<linearGradient id="paint3_linear_4_17598" x1="13.8438" y1="18.1474" x2="48.8438" y2="18.1474" gradientUnits="userSpaceOnUse">
<stop stop-color="#FDFC47"/>
<stop offset="1" stop-color="#24FE41"/>
</linearGradient>
</defs>
</svg>
