<svg width="64" height="64" viewBox="0 0 64 64" fill="none" xmlns="http://www.w3.org/2000/svg">
<g clip-path="url(#clip0_4_17493)">
<g opacity="0.3" filter="url(#filter0_f_4_17493)">
<path d="M44.5 4.5H19.5C11.2157 4.5 4.5 11.2157 4.5 19.5V44.5C4.5 52.7843 11.2157 59.5 19.5 59.5H44.5C52.7843 59.5 59.5 52.7843 59.5 44.5V19.5C59.5 11.2157 52.7843 4.5 44.5 4.5Z" fill="url(#paint0_linear_4_17493)"/>
</g>
<path d="M19.5 5H44.5C52.5081 5 59 11.4919 59 19.5V44.5C59 52.5081 52.5081 59 44.5 59H19.5C11.4919 59 5 52.5081 5 44.5V19.5C5 11.4919 11.4919 5 19.5 5Z" fill="#232323" stroke="url(#paint1_linear_4_17493)"/>
<path opacity="0.15" d="M31.9987 45.612C39.5164 45.612 45.6107 39.5177 45.6107 32C45.6107 24.4823 39.5164 18.388 31.9987 18.388C24.481 18.388 18.3867 24.4823 18.3867 32C18.3867 39.5177 24.481 45.612 31.9987 45.612Z" fill="url(#paint2_linear_4_17493)"/>
<path d="M31.5177 16C30.625 16.0332 30.1344 16.3329 29.8146 16.9766C29.6094 17.3896 29.4417 18.0777 29.4415 18.5059C29.4409 20.0767 27.8549 21.5098 26.1153 21.5098C25.2618 21.5098 24.7929 21.2748 23.0645 19.9805C22.2778 19.3913 21.7812 19.5446 20.5606 20.7461C19.401 21.8878 19.3717 22.4345 20.3985 23.7969C20.8228 24.3601 21.2528 25.1107 21.3536 25.4668C21.6029 26.3474 21.1947 27.9593 20.5391 28.6758C20.0018 29.2631 18.6674 29.7207 17.5039 29.7207C16.3975 29.7207 16 30.3506 16 32.0937C16 33.4511 16.0521 33.6364 16.5176 33.9453C16.802 34.1342 17.6238 34.3731 18.3457 34.4766C19.0676 34.5799 19.901 34.8242 20.1953 35.0195C20.8166 35.4319 21.5368 36.9079 21.543 37.7832C21.548 38.4187 21.0588 39.5421 20.5547 40.0527C20.0052 40.6093 19.6033 41.6221 19.748 42.0839C19.9335 42.6757 21.1894 43.9409 21.8398 44.1913C22.2124 44.3349 22.483 44.293 22.8437 44.0371C23.901 43.287 25.7099 42.4726 26.3203 42.4726C27.2405 42.4726 28.7668 43.2846 29.1015 43.9531C29.2591 44.2679 29.4556 45.0018 29.539 45.582C29.7413 46.9891 30.0611 47.6513 30.5976 47.7656C30.8415 47.8173 31.234 47.905 31.4687 47.9589C31.7034 48.0143 32.2318 48.0143 32.6425 47.9589C33.7138 47.8151 34.2848 47.0163 34.4648 45.4101C34.6293 43.9415 34.7642 43.7052 35.8457 43.0136C36.9439 42.3114 37.8035 42.1743 38.6484 42.5663C39.3489 42.8915 39.6321 43.06 40.7812 43.8261C41.6231 44.3876 42.1478 44.2948 43.121 43.4043C44.5844 42.0652 44.6139 41.4829 43.3026 39.9531C42.0545 38.4972 42.0403 36.706 43.2674 35.3303C43.7374 34.8034 44.1587 34.6201 45.5506 34.342C47.6522 33.9221 47.9937 33.5789 47.9998 31.8732C48.0058 30.1696 47.7349 29.8912 45.7615 29.5822C43.8838 29.2882 43.2826 28.8639 42.6228 27.3771C42.0743 26.1408 42.2256 25.4163 43.3963 23.7189C43.9966 22.8485 44.2954 22.2133 44.2264 21.9455C44.0721 21.3478 42.127 19.5646 41.6287 19.5646C41.3979 19.5646 40.7835 19.8969 40.2635 20.299C38.8289 21.4083 37.9745 21.659 36.7479 21.3302C35.3066 20.9441 34.7936 20.3353 34.4295 18.5763C34.0114 16.5561 33.7419 16.1924 32.5525 16.0567C32.1562 16.0112 31.8149 15.9929 31.5173 16.004L31.5177 16ZM32.0001 26C33.5914 26 35.1176 26.6322 36.2428 27.7574C37.368 28.8826 38.0002 30.4088 38.0002 32.0001C38.0002 32.788 37.845 33.5683 37.5435 34.2962C37.2419 35.0242 36.8 35.6857 36.2428 36.2428C35.6856 36.8 35.0242 37.2419 34.2962 37.5435C33.5683 37.845 32.788 38.0002 32.0001 38.0002C31.2121 38.0002 30.4319 37.845 29.704 37.5435C28.976 37.2419 28.3145 36.8 27.7574 36.2428C27.2002 35.6857 26.7583 35.0242 26.4567 34.2962C26.1552 33.5683 26 32.788 26 32.0001C26 30.4088 26.6321 28.8826 27.7574 27.7574C28.8826 26.6322 30.4088 26 32.0001 26Z" fill="url(#paint3_linear_4_17493)"/>
</g>
<defs>
<filter id="filter0_f_4_17493" x="3.2625" y="3.2625" width="57.475" height="57.475" filterUnits="userSpaceOnUse" color-interpolation-filters="sRGB">
<feFlood flood-opacity="0" result="BackgroundImageFix"/>
<feBlend mode="normal" in="SourceGraphic" in2="BackgroundImageFix" result="shape"/>
<feGaussianBlur stdDeviation="0.61875" result="effect1_foregroundBlur_4_17493"/>
</filter>
<linearGradient id="paint0_linear_4_17493" x1="4.5" y1="32" x2="59.5" y2="32" gradientUnits="userSpaceOnUse">
<stop stop-color="#FDFC47"/>
<stop offset="1" stop-color="#24FE41"/>
</linearGradient>
<linearGradient id="paint1_linear_4_17493" x1="4.5" y1="32" x2="59.5" y2="32" gradientUnits="userSpaceOnUse">
<stop stop-color="#FDFC47"/>
<stop offset="1" stop-color="#24FE41"/>
</linearGradient>
<linearGradient id="paint2_linear_4_17493" x1="18.3867" y1="32" x2="45.6107" y2="32" gradientUnits="userSpaceOnUse">
<stop stop-color="#FDFC47"/>
<stop offset="1" stop-color="#24FE41"/>
</linearGradient>
<linearGradient id="paint3_linear_4_17493" x1="16" y1="32.0002" x2="47.9999" y2="32.0002" gradientUnits="userSpaceOnUse">
<stop stop-color="#FDFC47"/>
<stop offset="1" stop-color="#24FE41"/>
</linearGradient>
<clipPath id="clip0_4_17493">
<rect width="64" height="64" fill="white"/>
</clipPath>
</defs>
</svg>
