<svg width="64" height="64" viewBox="0 0 64 64" fill="none" xmlns="http://www.w3.org/2000/svg">
<g clip-path="url(#clip0_4_17389)">
<g opacity="0.3" filter="url(#filter0_f_4_17389)">
<path d="M44.5 4.5H19.5C11.2157 4.5 4.5 11.2157 4.5 19.5V44.5C4.5 52.7843 11.2157 59.5 19.5 59.5H44.5C52.7843 59.5 59.5 52.7843 59.5 44.5V19.5C59.5 11.2157 52.7843 4.5 44.5 4.5Z" fill="url(#paint0_linear_4_17389)"/>
</g>
<path d="M19.5 5H44.5C52.5081 5 59 11.4919 59 19.5V44.5C59 52.5081 52.5081 59 44.5 59H19.5C11.4919 59 5 52.5081 5 44.5V19.5C5 11.4919 11.4919 5 19.5 5Z" fill="#232323" stroke="url(#paint1_linear_4_17389)"/>
<g opacity="0.15" filter="url(#filter1_f_4_17389)">
<path d="M31.9964 22C28.8948 22.0304 25.7725 22.7389 23.0708 24.27C21.994 24.9714 20.7013 25.8773 19.7272 26.79C18.1944 28.2908 16.8825 30.0411 15.9961 32.0027C18.4259 37.3629 23.7678 41.2915 29.6441 41.8719C33.4987 42.3082 37.5329 41.6422 40.9211 39.7348C41.9979 39.0334 43.2906 38.1275 44.2647 37.2148C45.7975 35.7108 47.1094 33.9605 47.9958 32.0021C45.567 26.6422 40.2232 22.7127 34.3478 22.1335C33.567 22.0407 32.7798 21.9991 31.9958 21.9991L31.9964 22ZM31.9964 26.0009C35.2104 25.9297 38.0568 28.8051 37.9963 32.0021C38.0993 35.5355 34.5784 38.585 31.0979 37.9252C27.5828 37.5125 25.1137 33.5688 26.2698 30.2284C27.009 27.7708 29.4217 25.9725 31.9977 26.0013L31.9964 26.0009ZM31.9964 30.0018C31.7335 30.0018 31.4732 30.0536 31.2304 30.1543C30.9875 30.255 30.7669 30.4026 30.5812 30.5887C30.3954 30.7747 30.2482 30.9956 30.1478 31.2386C30.0475 31.4816 29.996 31.7421 29.9964 32.005C29.9965 32.5355 30.2073 33.0442 30.5823 33.4192C30.9574 33.7943 31.466 34.005 31.9964 34.005C32.5268 34.005 33.0354 33.7943 33.4105 33.4192C33.7855 33.0442 33.9963 32.5355 33.9964 32.005C33.9963 31.4745 33.7855 30.9658 33.4105 30.5907C33.0354 30.2157 32.5268 30.005 31.9964 30.005V30.0018Z" fill="url(#paint2_linear_4_17389)"/>
</g>
<path d="M31.9964 22C28.8948 22.0304 25.7725 22.7389 23.0708 24.27C21.994 24.9714 20.7013 25.8773 19.7272 26.79C18.1944 28.2908 16.8825 30.0411 15.9961 32.0027C18.4259 37.3629 23.7678 41.2915 29.6441 41.8719C33.4987 42.3082 37.5329 41.6422 40.9211 39.7348C41.9979 39.0334 43.2906 38.1275 44.2647 37.2148C45.7975 35.7108 47.1094 33.9605 47.9958 32.0021C45.567 26.6422 40.2232 22.7127 34.3478 22.1335C33.567 22.0407 32.7798 21.9991 31.9958 21.9991L31.9964 22ZM31.9964 26.0009C35.2104 25.9297 38.0568 28.8051 37.9963 32.0021C38.0993 35.5355 34.5784 38.585 31.0979 37.9252C27.5828 37.5125 25.1137 33.5688 26.2698 30.2284C27.009 27.7708 29.4217 25.9725 31.9977 26.0013L31.9964 26.0009ZM31.9964 30.0018C31.7335 30.0018 31.4732 30.0536 31.2304 30.1543C30.9875 30.255 30.7669 30.4026 30.5812 30.5887C30.3954 30.7747 30.2482 30.9956 30.1478 31.2386C30.0475 31.4816 29.996 31.7421 29.9964 32.005C29.9965 32.5355 30.2073 33.0442 30.5823 33.4192C30.9574 33.7943 31.466 34.005 31.9964 34.005C32.5268 34.005 33.0354 33.7943 33.4105 33.4192C33.7855 33.0442 33.9963 32.5355 33.9964 32.005C33.9963 31.4745 33.7855 30.9658 33.4105 30.5907C33.0354 30.2157 32.5268 30.005 31.9964 30.005V30.0018Z" fill="url(#paint3_linear_4_17389)"/>
<path d="M18.8183 4.5352C15.8398 4.66785 13.0947 5.6512 10.8203 7.2637V23.6837L14.8203 19.6817L18.8183 23.6797V4.5352Z" fill="url(#paint4_linear_4_17389)"/>
</g>
<defs>
<filter id="filter0_f_4_17389" x="3.2625" y="3.2625" width="57.475" height="57.475" filterUnits="userSpaceOnUse" color-interpolation-filters="sRGB">
<feFlood flood-opacity="0" result="BackgroundImageFix"/>
<feBlend mode="normal" in="SourceGraphic" in2="BackgroundImageFix" result="shape"/>
<feGaussianBlur stdDeviation="0.61875" result="effect1_foregroundBlur_4_17389"/>
</filter>
<filter id="filter1_f_4_17389" x="14.6961" y="20.6991" width="34.6001" height="22.6013" filterUnits="userSpaceOnUse" color-interpolation-filters="sRGB">
<feFlood flood-opacity="0" result="BackgroundImageFix"/>
<feBlend mode="normal" in="SourceGraphic" in2="BackgroundImageFix" result="shape"/>
<feGaussianBlur stdDeviation="0.650016" result="effect1_foregroundBlur_4_17389"/>
</filter>
<linearGradient id="paint0_linear_4_17389" x1="4.5" y1="32" x2="59.5" y2="32" gradientUnits="userSpaceOnUse">
<stop stop-color="#FDFC47"/>
<stop offset="1" stop-color="#24FE41"/>
</linearGradient>
<linearGradient id="paint1_linear_4_17389" x1="4.5" y1="32" x2="59.5" y2="32" gradientUnits="userSpaceOnUse">
<stop stop-color="#FDFC47"/>
<stop offset="1" stop-color="#24FE41"/>
</linearGradient>
<linearGradient id="paint2_linear_4_17389" x1="15.9961" y1="31.9997" x2="47.9958" y2="31.9997" gradientUnits="userSpaceOnUse">
<stop stop-color="#FDFC47"/>
<stop offset="1" stop-color="#24FE41"/>
</linearGradient>
<linearGradient id="paint3_linear_4_17389" x1="15.9961" y1="31.9997" x2="47.9958" y2="31.9997" gradientUnits="userSpaceOnUse">
<stop stop-color="#FDFC47"/>
<stop offset="1" stop-color="#24FE41"/>
</linearGradient>
<linearGradient id="paint4_linear_4_17389" x1="10.8203" y1="14.1092" x2="18.8183" y2="14.1092" gradientUnits="userSpaceOnUse">
<stop stop-color="#FDFC47"/>
<stop offset="1" stop-color="#24FE41"/>
</linearGradient>
<clipPath id="clip0_4_17389">
<rect width="64" height="64" fill="white"/>
</clipPath>
</defs>
</svg>
