<svg width="64" height="64" viewBox="0 0 64 64" fill="none" xmlns="http://www.w3.org/2000/svg">
<g opacity="0.3" filter="url(#filter0_f_4_17239)">
<path d="M44.5003 4.50003H19.5001C11.2158 4.50003 4.5 11.2158 4.5 19.5001V44.5003C4.5 52.7846 11.2158 59.5004 19.5001 59.5004H44.5003C52.7846 59.5004 59.5004 52.7846 59.5004 44.5003V19.5001C59.5004 11.2158 52.7846 4.50003 44.5003 4.50003Z" fill="#232323"/>
<path d="M19.5001 5.00003H44.5003C52.5085 5.00003 59.0004 11.4919 59.0004 19.5001V44.5003C59.0004 52.5085 52.5085 59.0004 44.5003 59.0004H19.5001C11.4919 59.0004 5 52.5085 5 44.5003V19.5001C5 11.4919 11.4919 5.00003 19.5001 5.00003Z" stroke="url(#paint0_linear_4_17239)"/>
</g>
<path d="M19.5005 5.0015H44.5003C52.5087 5.0015 59.0008 11.4936 59.0008 19.502V44.5018C59.0008 52.5102 52.5087 59.0023 44.5003 59.0023H19.5005C11.4921 59.0023 5 52.5102 5 44.5018V19.502C5 11.4936 11.4921 5.0015 19.5005 5.0015Z" fill="#232323" stroke="url(#paint1_linear_4_17239)"/>
<path d="M58.9961 19.1289H5.00466C5.20115 11.2687 11.5908 5.0015 19.5001 5.0015H44.5003C52.4096 5.0015 58.7996 11.2687 58.9961 19.1289Z" fill="#232323" stroke="url(#paint2_linear_4_17239)"/>
<g opacity="0.6">
<mask id="path-5-inside-1_4_17239" fill="white">
<path d="M14.3446 39.7274C14.3215 39.8772 14.3073 40.0335 14.2852 40.1871H49.714C49.6932 40.0335 49.6777 39.8771 49.6523 39.7274H14.3446Z"/>
</mask>
<path d="M14.3446 39.7274C14.3215 39.8772 14.3073 40.0335 14.2852 40.1871H49.714C49.6932 40.0335 49.6777 39.8771 49.6523 39.7274H14.3446Z" fill="#232323"/>
<path d="M14.3446 39.7274V38.7274H13.4867L13.3562 39.5753L14.3446 39.7274ZM14.2852 40.1871L13.2954 40.0446L13.1309 41.1871H14.2852V40.1871ZM49.714 40.1871V41.1871H50.8585L50.705 40.053L49.714 40.1871ZM49.6523 39.7274L50.6382 39.5599L50.4968 38.7274H49.6523V39.7274ZM13.3562 39.5753C13.3418 39.6689 13.3307 39.7609 13.3216 39.8371C13.3119 39.9184 13.3043 39.9823 13.2954 40.0446L15.275 40.3296C15.2881 40.2383 15.2987 40.1473 15.3074 40.0746C15.3167 39.9968 15.3243 39.9357 15.3329 39.8794L13.3562 39.5753ZM14.2852 41.1871H49.714V39.1871H14.2852V41.1871ZM50.705 40.053C50.6912 39.9516 50.6667 39.728 50.6382 39.5599L48.6664 39.8949C48.6887 40.0263 48.6952 40.1155 48.723 40.3212L50.705 40.053ZM49.6523 38.7274H14.3446V40.7274H49.6523V38.7274Z" fill="url(#paint3_linear_4_17239)" mask="url(#path-5-inside-1_4_17239)"/>
</g>
<g opacity="0.6">
<mask id="path-7-inside-2_4_17239" fill="white">
<path d="M14.3446 46.9993C14.3215 47.1492 14.3073 47.3055 14.2852 47.459H49.714C49.6932 47.3055 49.6777 47.1491 49.6523 46.9993H14.3446Z"/>
</mask>
<path d="M14.3446 46.9993C14.3215 47.1492 14.3073 47.3055 14.2852 47.459H49.714C49.6932 47.3055 49.6777 47.1491 49.6523 46.9993H14.3446Z" fill="#232323"/>
<path d="M14.3446 46.9993V45.9993H13.4867L13.3562 46.8473L14.3446 46.9993ZM14.2852 47.459L13.2954 47.3166L13.1309 48.459H14.2852V47.459ZM49.714 47.459V48.459H50.8585L50.705 47.3249L49.714 47.459ZM49.6523 46.9993L50.6382 46.8319L50.4968 45.9993H49.6523V46.9993ZM13.3562 46.8473C13.3418 46.9409 13.3307 47.0329 13.3216 47.1091C13.3119 47.1904 13.3043 47.2543 13.2954 47.3166L15.275 47.6015C15.2881 47.5102 15.2987 47.4192 15.3074 47.3465C15.3167 47.2687 15.3243 47.2076 15.3329 47.1514L13.3562 46.8473ZM14.2852 48.459H49.714V46.459H14.2852V48.459ZM50.705 47.3249C50.6913 47.2236 50.6667 47 50.6382 46.8319L48.6664 47.1668C48.6887 47.2982 48.6952 47.3874 48.723 47.5932L50.705 47.3249ZM49.6523 45.9993H14.3446V47.9993H49.6523V45.9993Z" fill="url(#paint4_linear_4_17239)" mask="url(#path-7-inside-2_4_17239)"/>
</g>
<g opacity="0.6">
<mask id="path-9-inside-3_4_17239" fill="white">
<path d="M14.3228 54.2713C14.3082 54.4212 14.2992 54.5775 14.2852 54.731H36.7473C36.7341 54.5775 36.7243 54.421 36.7082 54.2713H14.3228Z"/>
</mask>
<path d="M14.3228 54.2713C14.3082 54.4212 14.2992 54.5775 14.2852 54.731H36.7473C36.7341 54.5775 36.7243 54.421 36.7082 54.2713H14.3228Z" fill="#232323"/>
<path d="M14.3228 54.2713V53.2713H13.4157L13.3276 54.1742L14.3228 54.2713ZM14.2852 54.731L13.2893 54.6398L13.1894 55.731H14.2852V54.731ZM36.7473 54.731V55.731H37.8372L37.7436 54.6452L36.7473 54.731ZM36.7082 54.2713L37.7024 54.1644L37.6064 53.2713H36.7082V54.2713ZM13.3276 54.1742C13.3179 54.2737 13.2942 54.5862 13.2893 54.6398L15.281 54.8222C15.3042 54.5687 15.2986 54.5687 15.3181 54.3684L13.3276 54.1742ZM14.2852 55.731H36.7473V53.731H14.2852V55.731ZM37.7436 54.6452C37.7334 54.5259 37.7198 54.3255 37.7024 54.1644L35.7139 54.3782C35.7288 54.5166 35.7348 54.629 35.751 54.8168L37.7436 54.6452ZM36.7082 53.2713H14.3228V55.2713H36.7082V53.2713Z" fill="url(#paint5_linear_4_17239)" mask="url(#path-9-inside-3_4_17239)"/>
</g>
<path d="M39.4659 23.994C40.4509 23.994 41.1855 24.0324 41.7428 24.1448C42.2927 24.2556 42.6233 24.4295 42.8452 24.6669C43.0707 24.9082 43.2389 25.2737 43.3452 25.8773C43.4519 26.4835 43.4878 27.2782 43.4878 28.3334V31.725C43.4878 32.7802 43.4519 33.5749 43.3452 34.1811C43.2389 34.7847 43.0707 35.1502 42.8452 35.3915C42.6233 35.6289 42.2927 35.8028 41.7428 35.9137C41.1855 36.026 40.4509 36.0644 39.4659 36.0644H18.1508C17.1658 36.0644 16.4312 36.026 15.8739 35.9137C15.324 35.8028 14.9934 35.629 14.7715 35.3915C14.546 35.1502 14.3778 34.7848 14.2715 34.1812C14.1648 33.5749 14.1289 32.7803 14.1289 31.725V28.3334C14.1289 27.2782 14.1648 26.4836 14.2715 25.8773C14.3778 25.2737 14.546 24.9082 14.7715 24.667C14.9934 24.4295 15.324 24.2556 15.8739 24.1448C16.4312 24.0324 17.1659 23.994 18.1508 23.994H39.4659Z" fill="#232323" stroke="url(#paint6_linear_4_17239)"/>
<path d="M36.3091 25.0258C37.141 25.0258 37.8092 25.694 37.8092 26.5259V33.5261C37.8092 34.358 37.141 35.0262 36.3091 35.0262H21.3086C20.4768 35.0262 19.8086 34.358 19.8086 33.5261V26.5259C19.8086 25.694 20.4768 25.0258 21.3086 25.0258H36.3091ZM36.3091 25.0258L21.3086 25.0259C20.4785 25.0259 19.8086 25.6957 19.8086 26.5259V33.5261C19.8086 34.3562 20.4785 35.0261 21.3086 35.0261H36.3091C37.1393 35.0261 37.8091 34.3562 37.8091 33.5261V26.5259C37.8091 25.6957 37.1393 25.0259 36.3091 25.0258ZM27.5159 27.0259H28.8089V33.0261H27.8088V29.3541V28.147L26.9552 29.0006L25.3087 30.6471L23.6622 29.0006L22.8087 28.147V29.3541V33.0261H21.8086V27.0259H23.1016L24.9552 28.8795L25.3087 29.233L25.6623 28.8795L27.5159 27.0259ZM32.8088 31.0258V30.5258V27.0259H33.8088V30.5258V31.0258H34.3088H35.1018L33.3088 32.8188L31.5159 31.0258H32.3088H32.8088Z" fill="#232323" stroke="url(#paint7_linear_4_17239)"/>
<g opacity="0.5" filter="url(#filter1_f_4_17239)">
<path d="M25.9471 53.0118C25.9471 53.0118 25.2266 52.5443 25.2266 52.3025C25.2266 52.0607 27.2016 45.4339 27.4149 45.0691C27.6281 44.7043 50.2163 23.1319 50.2163 23.1319C50.2163 23.1319 51.2476 22.3509 51.8843 22.8346C52.521 23.3182 54.6644 25.5093 54.6644 25.5093L25.9471 53.0118Z" fill="#232323"/>
<path d="M50.4968 23.5554L50.537 23.517C50.5399 23.5149 50.5432 23.5127 50.5467 23.5102C50.5697 23.4943 50.6049 23.4707 50.6495 23.4432C50.7402 23.3874 50.8627 23.3198 50.997 23.2662C51.3033 23.1439 51.4878 23.1613 51.5818 23.2327L51.5819 23.2327C51.8681 23.4502 52.5363 24.0909 53.1616 24.7089C53.4619 25.0057 53.7433 25.2881 53.9522 25.499L25.9037 52.361C25.9035 52.3609 25.9033 52.3607 25.9031 52.3605C25.8433 52.3118 25.7922 52.2661 25.7533 52.2268C25.7646 52.1818 25.7785 52.1279 25.7951 52.0655C25.8484 51.8648 25.9254 51.5881 26.0193 51.2587C26.207 50.6006 26.4599 49.7405 26.7196 48.8758C26.9794 48.0109 27.2454 47.1436 27.4595 46.4708C27.5666 46.134 27.6599 45.8485 27.7325 45.6372C27.7689 45.5312 27.799 45.4471 27.8223 45.386C27.8295 45.3672 27.8353 45.3526 27.8397 45.3415C27.846 45.3349 27.8531 45.3273 27.8613 45.3186C27.9064 45.2712 27.9728 45.2034 28.0605 45.1153C28.2353 44.9396 28.4871 44.691 28.8057 44.379C29.4424 43.7555 30.3413 42.8839 31.4149 41.8472C33.5618 39.7742 36.4048 37.0439 39.2415 34.3247C42.0782 31.6055 44.9082 28.8977 47.0291 26.8697C48.0895 25.8557 48.9727 25.0116 49.5907 24.4211L50.3079 23.7358L50.4968 23.5554ZM25.7219 52.3636C25.7219 52.3637 25.7221 52.3618 25.7229 52.3576C25.7224 52.3614 25.722 52.3635 25.7219 52.3636ZM27.8121 45.3718C27.8093 45.3754 27.8075 45.3774 27.8073 45.3776C27.8071 45.3778 27.8085 45.376 27.8121 45.3718Z" stroke="url(#paint8_linear_4_17239)"/>
</g>
<g opacity="0.5" filter="url(#filter2_f_4_17239)">
<path d="M25.9453 53.0118C25.9453 53.0118 26.4312 53.705 26.6825 53.705C26.9339 53.705 33.8217 51.8048 34.2009 51.5996C34.5801 51.3944 57.0023 29.6625 57.0023 29.6625C57.0023 29.6625 57.8141 28.6702 57.3114 28.0577C56.8087 27.4451 54.5313 25.3829 54.5313 25.3829L25.9453 53.0118Z" fill="#232323"/>
<path d="M26.6196 53.0555L54.5412 26.0687C54.5465 26.0735 54.5518 26.0784 54.5571 26.0833C54.7777 26.2854 55.0767 26.5611 55.3911 26.8555C56.0337 27.4574 56.6994 28.1 56.9249 28.3748L57.3114 28.0577L56.9249 28.3748C56.9854 28.4486 57.0119 28.6005 56.8863 28.8917C56.8317 29.0181 56.7626 29.1343 56.705 29.2209C56.6767 29.2635 56.6524 29.297 56.636 29.3189C56.6337 29.322 56.6316 29.3248 56.6296 29.3274L56.59 29.3658L56.4025 29.5475L55.6902 30.2375C55.0764 30.8321 54.1991 31.6818 53.1452 32.7021C51.0372 34.7426 48.2228 37.4653 45.3965 40.1944C42.5701 42.9236 39.7323 45.6589 37.5776 47.7244C36.5001 48.7574 35.5941 49.6221 34.9461 50.2348C34.6218 50.5413 34.3634 50.7835 34.1807 50.9517C34.0891 51.036 34.0186 51.0999 33.9693 51.1433C33.9592 51.1523 33.9503 51.16 33.9428 51.1665C33.9304 51.1712 33.9132 51.1775 33.8903 51.1856C33.8261 51.2083 33.7381 51.2374 33.6278 51.2725C33.4077 51.3425 33.1105 51.4324 32.7603 51.5355C32.0606 51.7415 31.1589 51.9975 30.2598 52.2475C29.3609 52.4975 28.4667 52.7408 27.7824 52.9214C27.4399 53.0118 27.1519 53.086 26.9429 53.1374C26.8649 53.1565 26.7996 53.1721 26.7474 53.184C26.7099 53.1509 26.6664 53.1071 26.6196 53.0555ZM26.6289 53.2086C26.629 53.2086 26.631 53.2082 26.6344 53.2078C26.6306 53.2084 26.6288 53.2087 26.6289 53.2086ZM33.908 51.1954C33.9081 51.1952 33.9101 51.1936 33.9136 51.1911C33.9095 51.1943 33.9078 51.1956 33.908 51.1954Z" stroke="url(#paint9_linear_4_17239)"/>
</g>
<path d="M25.4944 52.8918C25.4944 52.8918 24.7656 52.4002 24.7656 52.146C24.7656 51.8918 26.7636 44.9243 26.9793 44.5407C27.195 44.1572 50.0447 21.4753 50.0447 21.4753C50.0447 21.4753 51.088 20.6541 51.732 21.1626C52.3761 21.6711 54.5443 23.975 54.5443 23.975L25.4944 52.8918Z" fill="url(#paint10_linear_4_17239)"/>
<path d="M25.4961 52.8918C25.4961 52.8918 25.9876 53.6206 26.2418 53.6206C26.4961 53.6206 33.4635 51.6226 33.8472 51.4069C34.2307 51.1912 56.9126 28.3415 56.9126 28.3415C56.9126 28.3415 57.7337 27.2982 57.2252 26.6542C56.7167 26.0101 54.4129 23.8419 54.4129 23.8419L25.4961 52.8918Z" fill="url(#paint11_linear_4_17239)"/>
<defs>
<filter id="filter0_f_4_17239" x="3.26249" y="3.26252" width="57.475" height="57.4754" filterUnits="userSpaceOnUse" color-interpolation-filters="sRGB">
<feFlood flood-opacity="0" result="BackgroundImageFix"/>
<feBlend mode="normal" in="SourceGraphic" in2="BackgroundImageFix" result="shape"/>
<feGaussianBlur stdDeviation="0.618754" result="effect1_foregroundBlur_4_17239"/>
</filter>
<filter id="filter1_f_4_17239" x="23.0118" y="20.4618" width="33.867" height="34.7648" filterUnits="userSpaceOnUse" color-interpolation-filters="sRGB">
<feFlood flood-opacity="0" result="BackgroundImageFix"/>
<feBlend mode="normal" in="SourceGraphic" in2="BackgroundImageFix" result="shape"/>
<feGaussianBlur stdDeviation="1.10739" result="effect1_foregroundBlur_4_17239"/>
</filter>
<filter id="filter2_f_4_17239" x="23.7305" y="23.1682" width="35.9608" height="32.7516" filterUnits="userSpaceOnUse" color-interpolation-filters="sRGB">
<feFlood flood-opacity="0" result="BackgroundImageFix"/>
<feBlend mode="normal" in="SourceGraphic" in2="BackgroundImageFix" result="shape"/>
<feGaussianBlur stdDeviation="1.10739" result="effect1_foregroundBlur_4_17239"/>
</filter>
<linearGradient id="paint0_linear_4_17239" x1="4.5" y1="32.0002" x2="59.5004" y2="32.0002" gradientUnits="userSpaceOnUse">
<stop stop-color="#FDFC47"/>
<stop offset="1" stop-color="#24FE41"/>
</linearGradient>
<linearGradient id="paint1_linear_4_17239" x1="4.5" y1="32.0019" x2="59.5008" y2="32.0019" gradientUnits="userSpaceOnUse">
<stop stop-color="#FDFC47"/>
<stop offset="1" stop-color="#24FE41"/>
</linearGradient>
<linearGradient id="paint2_linear_4_17239" x1="4.5" y1="12.0652" x2="59.5008" y2="12.0652" gradientUnits="userSpaceOnUse">
<stop stop-color="#FDFC47"/>
<stop offset="1" stop-color="#24FE41"/>
</linearGradient>
<linearGradient id="paint3_linear_4_17239" x1="14.2852" y1="39.9572" x2="49.714" y2="39.9572" gradientUnits="userSpaceOnUse">
<stop stop-color="#FDFC47"/>
<stop offset="1" stop-color="#24FE41"/>
</linearGradient>
<linearGradient id="paint4_linear_4_17239" x1="14.2852" y1="47.2292" x2="49.714" y2="47.2292" gradientUnits="userSpaceOnUse">
<stop stop-color="#FDFC47"/>
<stop offset="1" stop-color="#24FE41"/>
</linearGradient>
<linearGradient id="paint5_linear_4_17239" x1="14.2852" y1="54.5012" x2="36.7473" y2="54.5012" gradientUnits="userSpaceOnUse">
<stop stop-color="#FDFC47"/>
<stop offset="1" stop-color="#24FE41"/>
</linearGradient>
<linearGradient id="paint6_linear_4_17239" x1="13.6289" y1="30.0292" x2="43.9878" y2="30.0292" gradientUnits="userSpaceOnUse">
<stop stop-color="#FDFC47"/>
<stop offset="1" stop-color="#24FE41"/>
</linearGradient>
<linearGradient id="paint7_linear_4_17239" x1="19.3086" y1="30.026" x2="38.3092" y2="30.026" gradientUnits="userSpaceOnUse">
<stop stop-color="#FDFC47"/>
<stop offset="1" stop-color="#24FE41"/>
</linearGradient>
<linearGradient id="paint8_linear_4_17239" x1="25.2266" y1="37.8442" x2="54.6644" y2="37.8442" gradientUnits="userSpaceOnUse">
<stop stop-color="#FDFC47"/>
<stop offset="1" stop-color="#24FE41"/>
</linearGradient>
<linearGradient id="paint9_linear_4_17239" x1="25.9453" y1="39.544" x2="57.4756" y2="39.544" gradientUnits="userSpaceOnUse">
<stop stop-color="#FDFC47"/>
<stop offset="1" stop-color="#24FE41"/>
</linearGradient>
<linearGradient id="paint10_linear_4_17239" x1="24.7656" y1="36.9441" x2="54.5443" y2="36.9441" gradientUnits="userSpaceOnUse">
<stop stop-color="#FDFC47"/>
<stop offset="1" stop-color="#24FE41"/>
</linearGradient>
<linearGradient id="paint11_linear_4_17239" x1="25.4961" y1="38.7312" x2="57.3913" y2="38.7312" gradientUnits="userSpaceOnUse">
<stop stop-color="#FDFC47"/>
<stop offset="1" stop-color="#24FE41"/>
</linearGradient>
</defs>
</svg>
