<svg width="64" height="64" viewBox="0 0 64 64" fill="none" xmlns="http://www.w3.org/2000/svg">
<g opacity="0.3" filter="url(#filter0_f_4_17294)">
<path d="M44.5003 4.50003H19.5001C11.2158 4.50003 4.5 11.2158 4.5 19.5001V44.5003C4.5 52.7846 11.2158 59.5004 19.5001 59.5004H44.5003C52.7846 59.5004 59.5004 52.7846 59.5004 44.5003V19.5001C59.5004 11.2158 52.7846 4.50003 44.5003 4.50003Z" fill="#232323"/>
<path d="M19.5001 5.00003H44.5003C52.5085 5.00003 59.0004 11.4919 59.0004 19.5001V44.5003C59.0004 52.5085 52.5085 59.0004 44.5003 59.0004H19.5001C11.4919 59.0004 5 52.5085 5 44.5003V19.5001C5 11.4919 11.4919 5.00003 19.5001 5.00003Z" stroke="url(#paint0_linear_4_17294)"/>
</g>
<path d="M19.5001 5.0015H44.5007C52.5089 5.0015 59.0008 11.4934 59.0008 19.5016V44.5022C59.0008 52.5103 52.5089 59.0023 44.5007 59.0023H19.5001C11.4919 59.0023 5 52.5103 5 44.5022V19.5016C5 11.4934 11.4919 5.0015 19.5001 5.0015Z" fill="#232323" stroke="url(#paint1_linear_4_17294)"/>
<g filter="url(#filter1_f_4_17294)">
<path d="M32.0019 12.0437C21.2731 12.0437 12.5766 20.7417 12.5781 31.4705C12.5781 42.1981 21.2746 50.8942 32.0019 50.8942C37.3644 50.8942 36.3582 46.4347 37.7125 44.7376C38.7295 43.4596 40.1327 42.1353 41.7589 41.9639C43.657 41.76 44.6305 42.6166 46.1289 42.5758C48.4294 42.5187 50.0718 40.7185 50.9585 38.312C51.5186 36.7974 51.8302 32.9465 51.8302 31.6059C51.8317 20.8782 42.7295 12.0452 32.0019 12.0437ZM44.6874 32.985C48.6752 32.9818 48.6752 38.9586 44.6874 38.962C40.7059 38.9589 40.7059 32.9819 44.6874 32.985Z" fill="#232323"/>
<path d="M46.1289 42.5758C45.467 42.5938 44.9074 42.4367 44.3254 42.2732C43.5899 42.0667 42.8185 41.8501 41.7589 41.9639M46.1289 42.5758L32.0019 12.5437C42.4623 12.5452 51.3317 21.1632 51.3302 31.6058V31.6059C51.3302 32.2513 51.2542 33.5294 51.1075 34.838C50.9593 36.1608 50.7459 37.4455 50.4895 38.1386L50.4893 38.1391C49.6334 40.4621 48.1167 42.0263 46.1165 42.0759L46.1153 42.076C45.5336 42.0918 45.0487 41.9562 44.4611 41.7918C44.3847 41.7705 44.3066 41.7486 44.2263 41.7265C43.5369 41.5371 42.7476 41.3549 41.706 41.4667C41.7062 41.4667 41.7064 41.4667 41.7065 41.4667L41.7589 41.9639M46.1289 42.5758C48.4294 42.5187 50.0718 40.7185 50.9585 38.312L46.1289 42.5758ZM41.7589 41.9639C40.1327 42.1353 38.7295 43.4596 37.7125 44.7376L41.7055 41.4668M41.7589 41.9639L41.7055 41.4668M41.7055 41.4668C39.8615 41.6616 38.3464 43.1379 37.3212 44.4263C36.91 44.942 36.6979 45.6367 36.5208 46.2834C36.4897 46.3966 36.4596 46.5094 36.4296 46.6215C36.2788 47.1848 36.132 47.7333 35.9032 48.2498C35.6352 48.8544 35.2695 49.3756 34.6927 49.7522C34.1138 50.1302 33.2736 50.3942 32.0019 50.3942C21.5507 50.3942 13.0781 41.922 13.0781 31.4705V31.4704M41.7055 41.4668L13.0781 31.4704M13.0781 31.4704C13.0767 21.0178 21.5492 12.5437 32.0018 12.5437L13.0781 31.4704ZM44.6873 32.485C43.5563 32.4842 42.6713 32.913 42.0741 33.585C41.485 34.2478 41.2013 35.1176 41.2013 35.9712C41.2013 36.8247 41.485 37.6948 42.0738 38.3583C42.6709 39.0309 43.5558 39.4611 44.687 39.462H44.6878C45.8203 39.4611 46.7063 39.031 47.3042 38.3584C47.894 37.695 48.1783 36.8248 48.1783 35.971C48.1783 35.1173 47.894 34.2473 47.304 33.5846C46.7059 32.9127 45.8197 32.4842 44.6873 32.485ZM44.6873 32.485C44.6875 32.485 44.6876 32.485 44.6877 32.485L44.6874 32.985L44.687 32.485C44.6871 32.485 44.6872 32.485 44.6873 32.485Z" stroke="url(#paint2_linear_4_17294)"/>
</g>
<path d="M12.8789 31.4727V31.4727C12.8789 41.9246 21.3515 50.3969 31.803 50.3969C33.0748 50.3969 33.915 50.1329 34.4938 49.7549C35.0706 49.3783 35.4364 48.8571 35.7043 48.2524C35.9332 47.7359 36.08 47.1875 36.2307 46.6241C36.2607 46.512 36.2909 46.3993 36.3219 46.2861C36.4991 45.6393 36.7111 44.9446 37.1224 44.4289C38.1477 43.1404 39.6629 41.6639 41.5072 41.4693C42.5487 41.3575 43.338 41.5397 44.0275 41.7291C44.1078 41.7512 44.1859 41.773 44.2623 41.7944C44.8499 41.9588 45.3348 42.0944 45.9165 42.0785L45.9176 42.0785C47.9179 42.0288 49.4345 40.4647 50.2905 38.1417L50.2907 38.1411C50.547 37.448 50.7604 36.1633 50.9087 34.8405C51.0554 33.5319 51.1314 32.2539 51.1314 31.6084V31.6084C51.1329 21.1654 42.2638 12.5471 31.803 12.5456L12.8789 31.4727ZM12.8789 31.4727C12.8774 21.0197 21.35 12.5456 31.803 12.5456L12.8789 31.4727ZM44.4889 32.4872C43.3579 32.4865 42.4728 32.9153 41.8756 33.5873C41.2865 34.2501 41.0028 35.1199 41.0028 35.9734C41.0028 36.827 41.2865 37.697 41.8754 38.3605C42.4724 39.0332 43.3573 39.4634 44.4885 39.4643H44.4893C45.6218 39.4633 46.5079 39.0333 47.1058 38.3607C47.6955 37.6972 47.9798 36.8271 47.9798 35.9733C47.9798 35.1195 47.6955 34.2496 47.1055 33.5869C46.5074 32.915 45.6212 32.4864 44.4889 32.4872ZM44.4889 32.4872C44.489 32.4872 44.4891 32.4872 44.4893 32.4872L44.4889 32.9872L44.4885 32.4872C44.4886 32.4872 44.4887 32.4872 44.4889 32.4872Z" fill="#232323" stroke="url(#paint3_linear_4_17294)"/>
<path d="M20.2096 38.0337C22.5431 38.0337 24.4348 36.1421 24.4348 33.8085C24.4348 31.475 22.5431 29.5833 20.2096 29.5833C17.8761 29.5833 15.9844 31.475 15.9844 33.8085C15.9844 36.1421 17.8761 38.0337 20.2096 38.0337Z" fill="url(#paint4_radial_4_17294)"/>
<path d="M32.4166 23.5768C34.7501 23.5768 36.6418 21.6851 36.6418 19.3516C36.6418 17.018 34.7501 15.1263 32.4166 15.1263C30.0831 15.1263 28.1914 17.018 28.1914 19.3516C28.1914 21.6851 30.0831 23.5768 32.4166 23.5768Z" fill="url(#paint5_radial_4_17294)"/>
<path d="M22.9523 27.0909C24.49 27.0909 25.7365 25.8443 25.7365 24.3066C25.7365 22.7689 24.49 21.5223 22.9523 21.5223C21.4145 21.5223 20.168 22.7689 20.168 24.3066C20.168 25.8443 21.4145 27.0909 22.9523 27.0909Z" fill="url(#paint6_radial_4_17294)"/>
<path d="M42.4601 26.7356C43.9978 26.7356 45.2443 25.4891 45.2443 23.9513C45.2443 22.4136 43.9978 21.1671 42.4601 21.1671C40.9223 21.1671 39.6758 22.4136 39.6758 23.9513C39.6758 25.4891 40.9223 26.7356 42.4601 26.7356Z" fill="url(#paint7_radial_4_17294)"/>
<path d="M24.4874 45.4975C26.0251 45.4975 27.2717 44.251 27.2717 42.7133C27.2717 41.1756 26.0251 39.929 24.4874 39.929C22.9497 39.929 21.7031 41.1756 21.7031 42.7133C21.7031 44.251 22.9497 45.4975 24.4874 45.4975Z" fill="url(#paint8_radial_4_17294)"/>
<defs>
<filter id="filter0_f_4_17294" x="3.26249" y="3.26252" width="57.475" height="57.4754" filterUnits="userSpaceOnUse" color-interpolation-filters="sRGB">
<feFlood flood-opacity="0" result="BackgroundImageFix"/>
<feBlend mode="normal" in="SourceGraphic" in2="BackgroundImageFix" result="shape"/>
<feGaussianBlur stdDeviation="0.618754" result="effect1_foregroundBlur_4_17294"/>
</filter>
<filter id="filter1_f_4_17294" x="9.84454" y="9.31011" width="44.7211" height="44.3177" filterUnits="userSpaceOnUse" color-interpolation-filters="sRGB">
<feFlood flood-opacity="0" result="BackgroundImageFix"/>
<feBlend mode="normal" in="SourceGraphic" in2="BackgroundImageFix" result="shape"/>
<feGaussianBlur stdDeviation="1.36679" result="effect1_foregroundBlur_4_17294"/>
</filter>
<linearGradient id="paint0_linear_4_17294" x1="4.5" y1="32.0002" x2="59.5004" y2="32.0002" gradientUnits="userSpaceOnUse">
<stop stop-color="#FDFC47"/>
<stop offset="1" stop-color="#24FE41"/>
</linearGradient>
<linearGradient id="paint1_linear_4_17294" x1="4.5" y1="32.0019" x2="59.5008" y2="32.0019" gradientUnits="userSpaceOnUse">
<stop stop-color="#FDFC47"/>
<stop offset="1" stop-color="#24FE41"/>
</linearGradient>
<linearGradient id="paint2_linear_4_17294" x1="12.5781" y1="31.469" x2="51.8302" y2="31.469" gradientUnits="userSpaceOnUse">
<stop stop-color="#FDFC47"/>
<stop offset="1" stop-color="#24FE41"/>
</linearGradient>
<linearGradient id="paint3_linear_4_17294" x1="12.3789" y1="31.4712" x2="51.6314" y2="31.4712" gradientUnits="userSpaceOnUse">
<stop stop-color="#FDFC47"/>
<stop offset="1" stop-color="#24FE41"/>
</linearGradient>
<radialGradient id="paint4_radial_4_17294" cx="0" cy="0" r="1" gradientUnits="userSpaceOnUse" gradientTransform="translate(20.2096 33.8085) scale(4.22522)">
<stop stop-color="#FDFC47"/>
<stop offset="1" stop-color="#24FE41"/>
</radialGradient>
<radialGradient id="paint5_radial_4_17294" cx="0" cy="0" r="1" gradientUnits="userSpaceOnUse" gradientTransform="translate(32.4166 19.3516) scale(4.22522)">
<stop stop-color="#FDFC47"/>
<stop offset="1" stop-color="#24FE41"/>
</radialGradient>
<radialGradient id="paint6_radial_4_17294" cx="0" cy="0" r="1" gradientUnits="userSpaceOnUse" gradientTransform="translate(22.9523 24.3066) scale(2.78428)">
<stop stop-color="#FDFC47"/>
<stop offset="1" stop-color="#24FE41"/>
</radialGradient>
<radialGradient id="paint7_radial_4_17294" cx="0" cy="0" r="1" gradientUnits="userSpaceOnUse" gradientTransform="translate(42.4601 23.9513) scale(2.78428)">
<stop stop-color="#FDFC47"/>
<stop offset="1" stop-color="#24FE41"/>
</radialGradient>
<radialGradient id="paint8_radial_4_17294" cx="0" cy="0" r="1" gradientUnits="userSpaceOnUse" gradientTransform="translate(24.4874 42.7133) scale(2.78428)">
<stop stop-color="#FDFC47"/>
<stop offset="1" stop-color="#24FE41"/>
</radialGradient>
</defs>
</svg>
