<svg width="64" height="64" viewBox="0 0 64 64" fill="none" xmlns="http://www.w3.org/2000/svg">
<g clip-path="url(#clip0_4_17086)">
<g opacity="0.3" filter="url(#filter0_f_4_17086)">
<path d="M44.5003 4.50003H19.5001C11.2158 4.50003 4.5 11.2158 4.5 19.5001V44.5003C4.5 52.7846 11.2158 59.5004 19.5001 59.5004H44.5003C52.7846 59.5004 59.5004 52.7846 59.5004 44.5003V19.5001C59.5004 11.2158 52.7846 4.50003 44.5003 4.50003Z" fill="url(#paint0_linear_4_17086)"/>
</g>
<path d="M19.5001 5H44.5007C52.5089 5 59.0008 11.4919 59.0008 19.5001V44.5007C59.0008 52.5089 52.5089 59.0008 44.5007 59.0008H19.5001C11.4919 59.0008 5 52.5089 5 44.5007V19.5001C5 11.4919 11.4919 5 19.5001 5Z" fill="#232323" stroke="url(#paint1_linear_4_17086)"/>
<path d="M29.0231 16.2186V16.2225C23.8087 16.1958 19.6746 25.1106 21.818 30.4803C27.7403 24.7096 33.387 25.732 32.2342 18.4608C32.8591 19.213 33.7274 20.5051 33.9119 22.2578C34.1854 24.8541 32.9698 28.4533 26.4589 32.5527C26.1888 32.5235 25.9149 32.5097 25.6367 32.5097C21.4202 32.5097 18 35.9292 18 40.1445C18 44.361 21.4214 47.7812 25.6367 47.7812C27.8194 47.7812 29.7716 46.8626 31.164 45.3964C30.0796 43.92 29.455 42.1134 29.455 40.1443C29.455 38.1753 30.0796 36.3707 31.164 34.8944C30.3395 34.0262 29.3151 33.3567 28.1659 32.9491C34.0481 28.9257 35.4912 25.0732 35.1797 22.1152C34.9366 19.8141 33.9844 19.202 33.2501 18.3887C35.2292 18.689 37.0155 19.1385 37.8555 20.2305C38.9233 21.619 39.3093 23.5367 39.3106 25.5234C39.3106 28.3123 38.564 31.076 38.1113 32.5214C34.0135 32.6557 30.7268 36.013 30.7268 40.1444C30.7268 44.3598 34.1469 47.7811 38.3634 47.7811C42.5788 47.7811 46.0001 44.361 46.0001 40.1444C46.0001 36.2889 43.1367 33.1087 39.4221 32.5917C39.9053 31.0126 40.5889 28.346 40.5881 25.5212C40.5881 23.3715 40.1789 21.1671 38.8616 19.4526C36.5057 17.0344 33.8797 16.7338 30.8809 16.6167C30.2535 16.3519 29.6301 16.2225 29.0231 16.2186Z" fill="url(#paint2_linear_4_17086)"/>
</g>
<defs>
<filter id="filter0_f_4_17086" x="3.26249" y="3.26252" width="57.475" height="57.4754" filterUnits="userSpaceOnUse" color-interpolation-filters="sRGB">
<feFlood flood-opacity="0" result="BackgroundImageFix"/>
<feBlend mode="normal" in="SourceGraphic" in2="BackgroundImageFix" result="shape"/>
<feGaussianBlur stdDeviation="0.618754" result="effect1_foregroundBlur_4_17086"/>
</filter>
<linearGradient id="paint0_linear_4_17086" x1="4.5" y1="32.0002" x2="59.5004" y2="32.0002" gradientUnits="userSpaceOnUse">
<stop stop-color="#FDFC47"/>
<stop offset="1" stop-color="#24FE41"/>
</linearGradient>
<linearGradient id="paint1_linear_4_17086" x1="4.5" y1="32.0004" x2="59.5008" y2="32.0004" gradientUnits="userSpaceOnUse">
<stop stop-color="#FDFC47"/>
<stop offset="1" stop-color="#24FE41"/>
</linearGradient>
<linearGradient id="paint2_linear_4_17086" x1="18" y1="31.9997" x2="46.0001" y2="31.9997" gradientUnits="userSpaceOnUse">
<stop stop-color="#FDFC47"/>
<stop offset="1" stop-color="#24FE41"/>
</linearGradient>
<clipPath id="clip0_4_17086">
<rect width="64" height="64" fill="white"/>
</clipPath>
</defs>
</svg>
