<svg width="64" height="64" viewBox="0 0 64 64" fill="none" xmlns="http://www.w3.org/2000/svg">
<g opacity="0.3" filter="url(#filter0_f_4_17008)">
<path d="M44.5003 4.50003H19.5001C11.2158 4.50003 4.5 11.2158 4.5 19.5001V44.5003C4.5 52.7846 11.2158 59.5004 19.5001 59.5004H44.5003C52.7846 59.5004 59.5004 52.7846 59.5004 44.5003V19.5001C59.5004 11.2158 52.7846 4.50003 44.5003 4.50003Z" fill="#232323"/>
<path d="M19.5001 5.00003H44.5003C52.5085 5.00003 59.0004 11.4919 59.0004 19.5001V44.5003C59.0004 52.5085 52.5085 59.0004 44.5003 59.0004H19.5001C11.4919 59.0004 5 52.5085 5 44.5003V19.5001C5 11.4919 11.4919 5.00003 19.5001 5.00003Z" stroke="url(#paint0_linear_4_17008)"/>
</g>
<path d="M19.5001 5H44.5007C52.5089 5 59.0008 11.4919 59.0008 19.5001V44.5007C59.0008 52.5089 52.5089 59.0008 44.5007 59.0008H19.5001C11.4919 59.0008 5 52.5089 5 44.5007V19.5001C5 11.4919 11.4919 5 19.5001 5Z" fill="#232323" stroke="url(#paint1_linear_4_17008)"/>
<path d="M32.0025 15.4045L15.4062 43.4904H48.5983M32.0021 26.8942C34.1213 26.8942 35.832 28.1605 35.832 29.727V36.8288C35.832 38.3953 34.1213 39.6617 32.0021 39.6617C29.8829 39.6617 28.1722 38.3953 28.1722 36.8288V29.727C28.1722 28.1605 29.8829 26.8942 32.0021 26.8942Z" fill="url(#paint2_linear_4_17008)"/>
<path d="M24.3423 38.3838H24.3474C25.7542 38.3838 26.9006 39.3961 26.9006 40.6434V46.3332C26.9006 47.5843 25.7542 48.5967 24.3474 48.5967H24.3423C22.9316 48.5967 21.7891 47.5843 21.7891 46.3332V40.6434C21.7891 39.3961 22.9316 38.3838 24.3423 38.3838Z" fill="url(#paint3_linear_4_17008)"/>
<path d="M39.6575 38.3838H39.6626C41.0733 38.3838 42.2158 39.3961 42.2158 40.6434V46.3332C42.2158 47.5843 41.0733 48.5967 39.6626 48.5967H39.6575C38.2507 48.5967 37.1094 47.5843 37.1094 46.3332V40.6434C37.1094 39.3961 38.2519 38.3838 39.6575 38.3838Z" fill="url(#paint4_linear_4_17008)"/>
<path d="M32.0025 28.1713H32.0076C33.4144 28.1713 34.5557 29.1837 34.5557 30.4347V36.1246C34.5557 37.3718 33.4131 38.388 32.0076 38.388H32.0025C30.5918 38.388 29.4492 37.3705 29.4492 36.1246V30.4347C29.4492 29.1837 30.5918 28.1713 32.0025 28.1713Z" fill="url(#paint5_linear_4_17008)"/>
<path d="M21.1493 24.3407H21.1544C22.2064 24.3407 23.0642 25.353 23.0642 26.6041V37.4006C23.0642 38.6478 22.2064 39.6601 21.1544 39.6601H21.1493C20.0923 39.6601 19.2344 38.6478 19.2344 37.4006V26.6041C19.2344 25.353 20.0923 24.3407 21.1493 24.3407Z" fill="url(#paint6_linear_4_17008)"/>
<path d="M42.8524 24.3407H42.8575C43.9146 24.3407 44.7674 25.353 44.7674 26.6041V37.4006C44.7674 38.6478 43.9146 39.6601 42.8575 39.6601H42.8524C41.7954 39.6601 40.9375 38.6478 40.9375 37.4006V26.6041C40.9375 25.353 41.7954 24.3407 42.8524 24.3407Z" fill="url(#paint7_linear_4_17008)"/>
<defs>
<filter id="filter0_f_4_17008" x="3.26249" y="3.26252" width="57.475" height="57.4754" filterUnits="userSpaceOnUse" color-interpolation-filters="sRGB">
<feFlood flood-opacity="0" result="BackgroundImageFix"/>
<feBlend mode="normal" in="SourceGraphic" in2="BackgroundImageFix" result="shape"/>
<feGaussianBlur stdDeviation="0.618754" result="effect1_foregroundBlur_4_17008"/>
</filter>
<linearGradient id="paint0_linear_4_17008" x1="4.5" y1="32.0002" x2="59.5004" y2="32.0002" gradientUnits="userSpaceOnUse">
<stop stop-color="#FDFC47"/>
<stop offset="1" stop-color="#24FE41"/>
</linearGradient>
<linearGradient id="paint1_linear_4_17008" x1="4.5" y1="32.0004" x2="59.5008" y2="32.0004" gradientUnits="userSpaceOnUse">
<stop stop-color="#FDFC47"/>
<stop offset="1" stop-color="#24FE41"/>
</linearGradient>
<linearGradient id="paint2_linear_4_17008" x1="15.4062" y1="29.4475" x2="48.5983" y2="29.4475" gradientUnits="userSpaceOnUse">
<stop stop-color="#FDFC47"/>
<stop offset="1" stop-color="#24FE41"/>
</linearGradient>
<linearGradient id="paint3_linear_4_17008" x1="21.7891" y1="43.4902" x2="26.9006" y2="43.4902" gradientUnits="userSpaceOnUse">
<stop stop-color="#FDFC47"/>
<stop offset="1" stop-color="#24FE41"/>
</linearGradient>
<linearGradient id="paint4_linear_4_17008" x1="37.1094" y1="43.4902" x2="42.2158" y2="43.4902" gradientUnits="userSpaceOnUse">
<stop stop-color="#FDFC47"/>
<stop offset="1" stop-color="#24FE41"/>
</linearGradient>
<linearGradient id="paint5_linear_4_17008" x1="29.4492" y1="33.2797" x2="34.5557" y2="33.2797" gradientUnits="userSpaceOnUse">
<stop stop-color="#FDFC47"/>
<stop offset="1" stop-color="#24FE41"/>
</linearGradient>
<linearGradient id="paint6_linear_4_17008" x1="19.2344" y1="32.0004" x2="23.0642" y2="32.0004" gradientUnits="userSpaceOnUse">
<stop stop-color="#FDFC47"/>
<stop offset="1" stop-color="#24FE41"/>
</linearGradient>
<linearGradient id="paint7_linear_4_17008" x1="40.9375" y1="32.0004" x2="44.7674" y2="32.0004" gradientUnits="userSpaceOnUse">
<stop stop-color="#FDFC47"/>
<stop offset="1" stop-color="#24FE41"/>
</linearGradient>
</defs>
</svg>
