<svg width="64" height="64" viewBox="0 0 64 64" fill="none" xmlns="http://www.w3.org/2000/svg">
<g clip-path="url(#clip0_4_17049)">
<g opacity="0.3" filter="url(#filter0_f_4_17049)">
<path d="M44.5003 4.49982H19.5001C11.2158 4.49982 4.5 11.2156 4.5 19.4999V44.5001C4.5 52.7844 11.2158 59.5002 19.5001 59.5002H44.5003C52.7846 59.5002 59.5004 52.7844 59.5004 44.5001V19.4999C59.5004 11.2156 52.7846 4.49982 44.5003 4.49982Z" fill="url(#paint0_linear_4_17049)"/>
</g>
<path d="M19.5001 4.9996H44.5007C52.5089 4.9996 59.0008 11.4915 59.0008 19.4997V44.5003C59.0008 52.5085 52.5089 59.0004 44.5007 59.0004H19.5001C11.4919 59.0004 5 52.5085 5 44.5003V19.4997C5 11.4915 11.4919 4.9996 19.5001 4.9996Z" fill="#232323" stroke="url(#paint1_linear_4_17049)"/>
<path d="M21.4837 25.2273C23.6838 25.2273 25.4674 23.4439 25.4674 21.2439C25.4674 19.044 23.6838 17.2606 21.4837 17.2606C19.2836 17.2606 17.5 19.044 17.5 21.2439C17.5 23.4439 19.2836 25.2273 21.4837 25.2273Z" fill="url(#paint2_diamond_4_17049)"/>
<path d="M32.1595 25.2273C34.3596 25.2273 36.1432 23.4439 36.1432 21.2439C36.1432 19.044 34.3596 17.2606 32.1595 17.2606C29.9593 17.2606 28.1758 19.044 28.1758 21.2439C28.1758 23.4439 29.9593 25.2273 32.1595 25.2273Z" fill="url(#paint3_diamond_4_17049)"/>
<path d="M42.5189 25.2273C44.719 25.2273 46.5026 23.4439 46.5026 21.2439C46.5026 19.044 44.719 17.2606 42.5189 17.2606C40.3187 17.2606 38.5352 19.044 38.5352 21.2439C38.5352 23.4439 40.3187 25.2273 42.5189 25.2273Z" fill="url(#paint4_diamond_4_17049)"/>
<path d="M21.4837 36.2224C23.6838 36.2224 25.4674 34.439 25.4674 32.239C25.4674 30.039 23.6838 28.2556 21.4837 28.2556C19.2836 28.2556 17.5 30.039 17.5 32.239C17.5 34.439 19.2836 36.2224 21.4837 36.2224Z" fill="url(#paint5_diamond_4_17049)"/>
<path d="M21.4837 46.7394C23.6838 46.7394 25.4674 44.956 25.4674 42.756C25.4674 40.5561 23.6838 38.7726 21.4837 38.7726C19.2836 38.7726 17.5 40.5561 17.5 42.756C17.5 44.956 19.2836 46.7394 21.4837 46.7394Z" fill="url(#paint6_diamond_4_17049)"/>
<path d="M42.5189 35.9037C44.719 35.9037 46.5026 34.1203 46.5026 31.9203C46.5026 29.7204 44.719 27.937 42.5189 27.937C40.3187 27.937 38.5352 29.7204 38.5352 31.9203C38.5352 34.1203 40.3187 35.9037 42.5189 35.9037Z" fill="url(#paint7_diamond_4_17049)"/>
<path d="M42.5189 46.4207C44.719 46.4207 46.5026 44.6373 46.5026 42.4374C46.5026 40.2374 44.719 38.454 42.5189 38.454C40.3187 38.454 38.5352 40.2374 38.5352 42.4374C38.5352 44.6373 40.3187 46.4207 42.5189 46.4207Z" fill="url(#paint8_diamond_4_17049)"/>
<path d="M32.1595 46.7394C34.3596 46.7394 36.1432 44.956 36.1432 42.756C36.1432 40.5561 34.3596 38.7726 32.1595 38.7726C29.9593 38.7726 28.1758 40.5561 28.1758 42.756C28.1758 44.956 29.9593 46.7394 32.1595 46.7394Z" fill="url(#paint9_diamond_4_17049)"/>
<path d="M32.1595 36.063C34.3596 36.063 36.1432 34.2796 36.1432 32.0796C36.1432 29.8797 34.3596 28.0963 32.1595 28.0963C29.9593 28.0963 28.1758 29.8797 28.1758 32.0796C28.1758 34.2796 29.9593 36.063 32.1595 36.063Z" fill="url(#paint10_diamond_4_17049)"/>
</g>
<defs>
<filter id="filter0_f_4_17049" x="3.2625" y="3.26232" width="57.475" height="57.4754" filterUnits="userSpaceOnUse" color-interpolation-filters="sRGB">
<feFlood flood-opacity="0" result="BackgroundImageFix"/>
<feBlend mode="normal" in="SourceGraphic" in2="BackgroundImageFix" result="shape"/>
<feGaussianBlur stdDeviation="0.61875" result="effect1_foregroundBlur_4_17049"/>
</filter>
<linearGradient id="paint0_linear_4_17049" x1="4.5" y1="32" x2="59.5004" y2="32" gradientUnits="userSpaceOnUse">
<stop stop-color="#FDFC47"/>
<stop offset="1" stop-color="#24FE41"/>
</linearGradient>
<linearGradient id="paint1_linear_4_17049" x1="4.5" y1="32" x2="59.5008" y2="32" gradientUnits="userSpaceOnUse">
<stop stop-color="#FDFC47"/>
<stop offset="1" stop-color="#24FE41"/>
</linearGradient>
<radialGradient id="paint2_diamond_4_17049" cx="0" cy="0" r="1" gradientUnits="userSpaceOnUse" gradientTransform="translate(21.4837 21.2439) scale(3.9837 3.98338)">
<stop stop-color="#FDFC47"/>
<stop offset="1" stop-color="#24FE41"/>
</radialGradient>
<radialGradient id="paint3_diamond_4_17049" cx="0" cy="0" r="1" gradientUnits="userSpaceOnUse" gradientTransform="translate(32.1595 21.2439) scale(3.9837 3.98338)">
<stop stop-color="#FDFC47"/>
<stop offset="1" stop-color="#24FE41"/>
</radialGradient>
<radialGradient id="paint4_diamond_4_17049" cx="0" cy="0" r="1" gradientUnits="userSpaceOnUse" gradientTransform="translate(42.5189 21.2439) scale(3.9837 3.98338)">
<stop stop-color="#FDFC47"/>
<stop offset="1" stop-color="#24FE41"/>
</radialGradient>
<radialGradient id="paint5_diamond_4_17049" cx="0" cy="0" r="1" gradientUnits="userSpaceOnUse" gradientTransform="translate(21.4837 32.239) scale(3.9837 3.98338)">
<stop stop-color="#FDFC47"/>
<stop offset="1" stop-color="#24FE41"/>
</radialGradient>
<radialGradient id="paint6_diamond_4_17049" cx="0" cy="0" r="1" gradientUnits="userSpaceOnUse" gradientTransform="translate(21.4837 42.756) scale(3.9837 3.98338)">
<stop stop-color="#FDFC47"/>
<stop offset="1" stop-color="#24FE41"/>
</radialGradient>
<radialGradient id="paint7_diamond_4_17049" cx="0" cy="0" r="1" gradientUnits="userSpaceOnUse" gradientTransform="translate(42.5189 31.9203) scale(3.9837 3.98338)">
<stop stop-color="#FDFC47"/>
<stop offset="1" stop-color="#24FE41"/>
</radialGradient>
<radialGradient id="paint8_diamond_4_17049" cx="0" cy="0" r="1" gradientUnits="userSpaceOnUse" gradientTransform="translate(42.5189 42.4374) scale(3.9837 3.98338)">
<stop stop-color="#FDFC47"/>
<stop offset="1" stop-color="#24FE41"/>
</radialGradient>
<radialGradient id="paint9_diamond_4_17049" cx="0" cy="0" r="1" gradientUnits="userSpaceOnUse" gradientTransform="translate(32.1595 42.756) scale(3.9837 3.98338)">
<stop stop-color="#FDFC47"/>
<stop offset="1" stop-color="#24FE41"/>
</radialGradient>
<radialGradient id="paint10_diamond_4_17049" cx="0" cy="0" r="1" gradientUnits="userSpaceOnUse" gradientTransform="translate(32.1595 32.0796) scale(3.9837 3.98338)">
<stop stop-color="#FDFC47"/>
<stop offset="1" stop-color="#24FE41"/>
</radialGradient>
<clipPath id="clip0_4_17049">
<rect width="64" height="64" fill="white"/>
</clipPath>
</defs>
</svg>
