<svg width="64" height="64" viewBox="0 0 64 64" fill="none" xmlns="http://www.w3.org/2000/svg">
<g opacity="0.3" filter="url(#filter0_f_4_17045)">
<path d="M44.4994 4.49771H19.4973C11.2124 4.49771 4.49609 11.214 4.49609 19.499V44.501C4.49609 52.786 11.2124 59.5023 19.4973 59.5023H44.4994C52.7844 59.5023 59.5006 52.786 59.5006 44.501V19.499C59.5006 11.214 52.7844 4.49771 44.4994 4.49771Z" fill="url(#paint0_linear_4_17045)"/>
</g>
<path d="M19.497 4.99734H44.496C52.5046 4.99734 58.9969 11.4896 58.9969 19.4982V44.4972C58.9969 52.5059 52.5046 58.9981 44.496 58.9981H19.497C11.4884 58.9981 4.99609 52.5059 4.99609 44.4972V19.4982C4.99609 11.4896 11.4884 4.99734 19.497 4.99734Z" fill="#232323" stroke="url(#paint1_linear_4_17045)"/>
<path d="M31.9999 11.9998C31.936 12.0007 31.8721 12.0046 31.8085 12.0116C20.8753 12.1161 12 21.0425 12 32C12 43.0221 20.9781 52.0001 32.0001 52.0001C42.9549 52.0001 51.8797 43.129 51.9886 32.1992C51.9958 32.133 51.9997 32.0665 52.0003 32C52.0003 31.4695 51.7896 30.9608 51.4145 30.5857C51.0394 30.2107 50.5307 29.9999 50.0003 29.9999C49.4698 29.9999 48.9611 30.2107 48.586 30.5857C48.211 30.9608 48.0003 31.4695 48.0003 32C48.0003 40.8601 40.8606 48.0001 32.0001 48.0001C23.1399 48.0001 16.0003 40.8605 16.0003 32C16.0003 23.1398 23.1399 16.0001 32.0001 16.0001C32.5305 16.0001 33.0392 15.7894 33.4143 15.4144C33.7894 15.0393 34.0001 14.5306 34.0001 14.0002C34.0001 13.4697 33.7894 12.961 33.4143 12.5859C33.0392 12.2109 32.5304 11.9998 31.9999 11.9998ZM31.9999 19.9998C31.936 19.9993 31.8722 20.0019 31.8085 20.0075C25.2932 20.1117 19.9999 25.4607 19.9999 31.9998C19.9999 38.6036 25.396 43.9997 31.9998 43.9997C38.5362 43.9997 43.8798 38.7105 43.9879 32.199C43.9951 32.1329 43.999 32.0664 43.9996 31.9998C43.9996 31.4694 43.7889 30.9607 43.4138 30.5856C43.0388 30.2105 42.53 29.9998 41.9996 29.9998C41.4692 29.9998 40.9605 30.2105 40.5854 30.5856C40.2103 30.9607 39.9996 31.4694 39.9996 31.9998C39.9996 36.4416 36.4416 39.9997 31.9997 39.9997C27.5579 39.9997 23.9998 36.4417 23.9998 31.9998C23.9998 27.558 27.5578 23.9999 31.9997 23.9999C32.5301 23.9999 33.0388 23.7892 33.4139 23.4141C33.789 23.0391 33.9997 22.5303 33.9997 21.9999C33.9997 21.4695 33.789 20.9608 33.4139 20.5857C33.0388 20.2106 32.5304 19.9998 31.9999 19.9998ZM31.9999 27.9997C30.9391 27.9997 29.9217 28.4211 29.1715 29.1712C28.4214 29.9214 28 30.9388 28 31.9996C28 33.0605 28.4214 34.0779 29.1715 34.828C29.9217 35.5781 30.9391 35.9996 31.9999 35.9996C33.0608 35.9996 34.0782 35.5781 34.8283 34.828C35.5784 34.0779 35.9999 33.0605 35.9999 31.9996C35.9999 30.9388 35.5784 29.9214 34.8283 29.1712C34.0782 28.4211 33.0608 27.9997 31.9999 27.9997Z" fill="url(#paint2_linear_4_17045)"/>
<defs>
<filter id="filter0_f_4_17045" x="3.25849" y="3.26011" width="57.4791" height="57.4798" filterUnits="userSpaceOnUse" color-interpolation-filters="sRGB">
<feFlood flood-opacity="0" result="BackgroundImageFix"/>
<feBlend mode="normal" in="SourceGraphic" in2="BackgroundImageFix" result="shape"/>
<feGaussianBlur stdDeviation="0.618801" result="effect1_foregroundBlur_4_17045"/>
</filter>
<linearGradient id="paint0_linear_4_17045" x1="4.49609" y1="32" x2="59.5006" y2="32" gradientUnits="userSpaceOnUse">
<stop stop-color="#FDFC47"/>
<stop offset="1" stop-color="#24FE41"/>
</linearGradient>
<linearGradient id="paint1_linear_4_17045" x1="4.49609" y1="31.9977" x2="59.4969" y2="31.9977" gradientUnits="userSpaceOnUse">
<stop stop-color="#FDFC47"/>
<stop offset="1" stop-color="#24FE41"/>
</linearGradient>
<linearGradient id="paint2_linear_4_17045" x1="12" y1="32" x2="52.0003" y2="32" gradientUnits="userSpaceOnUse">
<stop stop-color="#FDFC47"/>
<stop offset="1" stop-color="#24FE41"/>
</linearGradient>
</defs>
</svg>
