<svg width="64" height="64" viewBox="0 0 64 64" fill="none" xmlns="http://www.w3.org/2000/svg">
<g opacity="0.3" filter="url(#filter0_f_4_17035)">
<path d="M44.5003 4.5H19.5001C11.2158 4.5 4.5 11.2158 4.5 19.5001V44.5003C4.5 52.7846 11.2158 59.5004 19.5001 59.5004H44.5003C52.7846 59.5004 59.5004 52.7846 59.5004 44.5003V19.5001C59.5004 11.2158 52.7846 4.5 44.5003 4.5Z" fill="#232323"/>
<path d="M19.5001 5H44.5003C52.5085 5 59.0004 11.4919 59.0004 19.5001V44.5003C59.0004 52.5085 52.5085 59.0004 44.5003 59.0004H19.5001C11.4919 59.0004 5 52.5085 5 44.5003V19.5001C5 11.4919 11.4919 5 19.5001 5Z" stroke="url(#paint0_linear_4_17035)"/>
</g>
<path d="M19.5001 5H44.5007C52.5089 5 59.0008 11.4919 59.0008 19.5001V44.5007C59.0008 52.5089 52.5089 59.0008 44.5007 59.0008H19.5001C11.4919 59.0008 5 52.5089 5 44.5007V19.5001C5 11.4919 11.4919 5 19.5001 5Z" fill="#232323" stroke="url(#paint1_linear_4_17035)"/>
<path d="M21.0867 37.5374L21.2008 37.7088L21.4026 37.75L43.5167 42.2712L35.3507 59.0008H23.5278C21.0235 59.0008 18.8862 58.9301 17.0012 58.772C11.1711 57.7657 6.55472 53.3144 5.32659 47.5668C5.08479 45.2445 5 42.4665 5 39.1371V24.8634C5 21.4067 5.11138 18.5951 5.38037 16.2288C5.50404 15.6886 5.65429 15.1605 5.8329 14.6472L21.0867 37.5374Z" fill="#232323" stroke="url(#paint2_linear_4_17035)"/>
<path d="M44.6998 42.0221L44.7977 41.8206L44.7126 41.6135L34.4961 16.7561L58.7065 16.7561C58.9245 19.0132 59.0025 21.6825 59.0025 24.8637V39.1374C59.0025 42.4668 58.9178 45.2446 58.6759 47.5671C57.4478 53.315 52.8314 57.766 47.0013 58.7723C45.1163 58.9304 42.9789 59.0011 40.4747 59.0011H36.4474L44.6998 42.0221Z" fill="#232323" stroke="url(#paint3_linear_4_17035)"/>
<path d="M33.2825 16.4401L43.4297 41.1299L21.7994 36.8048L6.27877 13.5305C8.22697 9.20264 12.2363 6.0305 17.0703 5.21922C18.9339 5.06413 21.0617 5.00001 23.5299 5.00001L40.4757 4.99976C42.8972 4.99976 44.9988 5.05701 46.8381 5.20363C52.5102 6.11638 57.0583 10.2834 58.5085 15.7501H33.745H32.9989L33.2825 16.4401Z" fill="#232323" stroke="url(#paint4_linear_4_17035)"/>
<path d="M31.999 15.6487C34.1475 15.644 36.2757 16.0636 38.2616 16.8835C40.2475 17.7033 42.0519 18.9073 43.5713 20.4263C45.0907 21.9453 46.2952 23.7493 47.1157 25.735C47.9361 27.7206 48.3564 29.8487 48.3523 31.9972L48.3523 31.9992C48.357 34.1481 47.9372 36.2767 47.1171 38.2629C46.2969 40.2491 45.0925 42.0537 43.573 43.5732C42.0535 45.0927 40.2489 46.2971 38.2627 47.1172C36.2765 47.9374 34.1479 48.3572 31.999 48.3525L31.997 48.3525C29.8485 48.3566 27.7204 47.9363 25.7348 47.1159C23.7491 46.2954 21.9451 45.0909 20.4261 43.5715C18.9071 42.0521 17.7032 40.2477 16.8833 38.2618C16.0634 36.2759 15.6438 34.1477 15.6485 31.9992L15.6485 31.9972C15.6444 29.8491 16.0645 27.7214 16.8847 25.7361C17.7048 23.7507 18.9089 21.9469 20.4278 20.428C21.9467 18.9091 23.7506 17.705 25.7359 16.8849C27.7212 16.0647 29.8489 15.6446 31.997 15.6487L31.999 15.6487Z" fill="#232323" stroke="url(#paint5_linear_4_17035)"/>
<path d="M31.994 19.5375C33.6319 19.5335 35.2544 19.853 36.7685 20.4777C38.2825 21.1024 39.6582 22.0199 40.8166 23.1776C41.975 24.3353 42.8932 25.7103 43.5187 27.2237C44.1441 28.7372 44.4643 30.3592 44.461 31.9967L44.461 31.999C44.465 33.6369 44.1452 35.2595 43.5201 36.7735C42.895 38.2875 41.9769 39.6632 40.8184 40.8214C39.66 41.9796 38.284 42.8976 36.7697 43.5226C35.2553 44.1476 33.6323 44.4673 31.994 44.4633L31.992 44.4633C30.3545 44.4659 28.7327 44.1452 27.2195 43.5196C25.7063 42.8941 24.3316 41.9759 23.1742 40.8178C22.0168 39.6597 21.0996 38.2845 20.4751 36.7712C19.8506 35.2578 19.5312 33.636 19.5352 31.999L19.5352 31.9967C19.5319 30.3601 19.8518 28.7389 20.4766 27.2261C21.1013 25.7133 22.0187 24.3387 23.176 23.1812C24.3333 22.0236 25.7078 21.1059 27.2207 20.4806C28.7335 19.8554 30.355 19.5348 31.992 19.5375L31.994 19.5375Z" fill="url(#paint6_linear_4_17035)" stroke="url(#paint7_linear_4_17035)"/>
<defs>
<filter id="filter0_f_4_17035" x="3.26249" y="3.26249" width="57.475" height="57.4754" filterUnits="userSpaceOnUse" color-interpolation-filters="sRGB">
<feFlood flood-opacity="0" result="BackgroundImageFix"/>
<feBlend mode="normal" in="SourceGraphic" in2="BackgroundImageFix" result="shape"/>
<feGaussianBlur stdDeviation="0.618754" result="effect1_foregroundBlur_4_17035"/>
</filter>
<linearGradient id="paint0_linear_4_17035" x1="4.5" y1="32.0002" x2="59.5004" y2="32.0002" gradientUnits="userSpaceOnUse">
<stop stop-color="#FDFC47"/>
<stop offset="1" stop-color="#24FE41"/>
</linearGradient>
<linearGradient id="paint1_linear_4_17035" x1="4.5" y1="32.0004" x2="59.5008" y2="32.0004" gradientUnits="userSpaceOnUse">
<stop stop-color="#FDFC47"/>
<stop offset="1" stop-color="#24FE41"/>
</linearGradient>
<linearGradient id="paint2_linear_4_17035" x1="4.5" y1="36.5346" x2="44.2491" y2="36.5346" gradientUnits="userSpaceOnUse">
<stop stop-color="#FDFC47"/>
<stop offset="1" stop-color="#24FE41"/>
</linearGradient>
<linearGradient id="paint3_linear_4_17035" x1="33.75" y1="37.8786" x2="59.5025" y2="37.8786" gradientUnits="userSpaceOnUse">
<stop stop-color="#FDFC47"/>
<stop offset="1" stop-color="#24FE41"/>
</linearGradient>
<linearGradient id="paint4_linear_4_17035" x1="5.71094" y1="23.1515" x2="59.1439" y2="23.1515" gradientUnits="userSpaceOnUse">
<stop stop-color="#FDFC47"/>
<stop offset="1" stop-color="#24FE41"/>
</linearGradient>
<linearGradient id="paint5_linear_4_17035" x1="15.1484" y1="32.0006" x2="48.8524" y2="32.0006" gradientUnits="userSpaceOnUse">
<stop stop-color="#FDFC47"/>
<stop offset="1" stop-color="#24FE41"/>
</linearGradient>
<linearGradient id="paint6_linear_4_17035" x1="19.0352" y1="32.0004" x2="44.961" y2="32.0004" gradientUnits="userSpaceOnUse">
<stop stop-color="#FDFC47"/>
<stop offset="1" stop-color="#24FE41"/>
</linearGradient>
<linearGradient id="paint7_linear_4_17035" x1="19.0352" y1="32.0004" x2="44.961" y2="32.0004" gradientUnits="userSpaceOnUse">
<stop stop-color="#FDFC47"/>
<stop offset="1" stop-color="#24FE41"/>
</linearGradient>
</defs>
</svg>
