<svg width="64" height="64" viewBox="0 0 64 64" fill="none" xmlns="http://www.w3.org/2000/svg">
<g clip-path="url(#clip0_4_16912)">
<g opacity="0.3" filter="url(#filter0_f_4_16912)">
<path d="M46.498 4.5H17.502C10.3212 4.5 4.5 10.3212 4.5 17.502V46.498C4.5 53.6788 10.3212 59.5 17.502 59.5H46.498C53.6788 59.5 59.5 53.6788 59.5 46.498V17.502C59.5 10.3212 53.6788 4.5 46.498 4.5Z" fill="url(#paint0_linear_4_16912)"/>
</g>
<path d="M17.502 5H46.498C53.4027 5 59 10.5973 59 17.502V46.498C59 53.4027 53.4027 59 46.498 59H17.502C10.5973 59 5 53.4027 5 46.498V17.502C5 10.5973 10.5973 5 17.502 5Z" fill="#232323" stroke="url(#paint1_linear_4_16912)"/>
<path d="M35.1626 45.2999L46.4749 20.5016C47.9832 16.8196 42.8372 14.6902 41.0628 18.0617L37.1146 26.9784L32.1016 38.69L27 26.9784L23.0518 18.0617C21.0999 14.3796 15.8652 17.2632 17.5953 20.7678L29.3068 45.2999C30.9926 48.7602 34.1423 48.0947 35.1626 45.2999Z" fill="url(#paint2_linear_4_16912)"/>
</g>
<defs>
<filter id="filter0_f_4_16912" x="2.3" y="2.3" width="59.4" height="59.4" filterUnits="userSpaceOnUse" color-interpolation-filters="sRGB">
<feFlood flood-opacity="0" result="BackgroundImageFix"/>
<feBlend mode="normal" in="SourceGraphic" in2="BackgroundImageFix" result="shape"/>
<feGaussianBlur stdDeviation="1.1" result="effect1_foregroundBlur_4_16912"/>
</filter>
<linearGradient id="paint0_linear_4_16912" x1="4.5" y1="32" x2="59.5" y2="32" gradientUnits="userSpaceOnUse">
<stop stop-color="#FDFC47"/>
<stop offset="1" stop-color="#24FE41"/>
</linearGradient>
<linearGradient id="paint1_linear_4_16912" x1="4.5" y1="32" x2="59.5" y2="32" gradientUnits="userSpaceOnUse">
<stop stop-color="#FDFC47"/>
<stop offset="1" stop-color="#24FE41"/>
</linearGradient>
<linearGradient id="paint2_linear_4_16912" x1="17.25" y1="32" x2="46.7482" y2="32" gradientUnits="userSpaceOnUse">
<stop stop-color="#FDFC47"/>
<stop offset="1" stop-color="#24FE41"/>
</linearGradient>
<clipPath id="clip0_4_16912">
<rect width="64" height="64" fill="white"/>
</clipPath>
</defs>
</svg>
