<svg width="64" height="64" viewBox="0 0 64 64" fill="none" xmlns="http://www.w3.org/2000/svg">
<g clip-path="url(#clip0_4_16894)">
<g opacity="0.3" filter="url(#filter0_f_4_16894)">
<path d="M44.5 4.5H19.5C11.2157 4.5 4.5 11.2157 4.5 19.5V44.5C4.5 52.7843 11.2157 59.5 19.5 59.5H44.5C52.7843 59.5 59.5 52.7843 59.5 44.5V19.5C59.5 11.2157 52.7843 4.5 44.5 4.5Z" fill="url(#paint0_linear_4_16894)"/>
</g>
<path d="M19.5 5H44.5C52.5081 5 59 11.4919 59 19.5V44.5C59 52.5081 52.5081 59 44.5 59H19.5C11.4919 59 5 52.5081 5 44.5V19.5C5 11.4919 11.4919 5 19.5 5Z" fill="#232323" stroke="url(#paint1_linear_4_16894)"/>
<g filter="url(#filter1_f_4_16894)">
<path d="M47.4723 16.7196H16.5272C14.0269 16.7196 12 18.7465 12 21.2468V42.1922C12 44.6925 14.0269 46.7194 16.5272 46.7194H47.4723C49.9726 46.7194 51.9995 44.6925 51.9995 42.1922V21.2468C51.9995 18.7465 49.9726 16.7196 47.4723 16.7196Z" fill="url(#paint2_linear_4_16894)"/>
<path d="M16.5254 16.7196C15.182 16.7196 13.9918 17.3099 13.1641 18.2332L30.6855 32.993C30.717 33.0193 30.7496 33.0447 30.7832 33.0691C30.8295 33.103 30.8777 33.135 30.9277 33.1648C30.9781 33.195 31.0303 33.223 31.084 33.2488C31.1379 33.2746 31.1933 33.298 31.25 33.3191C31.3075 33.3398 31.3661 33.3581 31.4258 33.3738C31.4841 33.3906 31.5435 33.405 31.6035 33.4168C31.6642 33.4272 31.7255 33.435 31.7871 33.4402C31.848 33.4467 31.9093 33.4506 31.9707 33.4519C32.0326 33.4526 32.0945 33.4506 32.1562 33.4461C32.2178 33.4415 32.2791 33.4343 32.3398 33.4246C32.4011 33.4148 32.4617 33.4024 32.5215 33.3875C32.581 33.373 32.6397 33.3561 32.6973 33.3367C32.7545 33.3169 32.8106 33.2948 32.8652 33.2703C32.9195 33.2458 32.9723 33.2191 33.0234 33.1902C33.0753 33.1618 33.1255 33.1311 33.1738 33.0984C33.2214 33.0652 33.2671 33.03 33.3105 32.993L50.832 18.2332C50.0043 17.3098 48.814 16.7196 47.4707 16.7196L16.5254 16.7196Z" fill="url(#paint3_linear_4_16894)"/>
<path d="M50.836 18.2333L17.0195 46.7198H47.4744C49.9825 46.7198 52.0016 44.7005 52.0016 42.1926V21.2472C52.0016 20.0824 51.5536 19.0339 50.836 18.2333Z" fill="url(#paint4_linear_4_16894)"/>
</g>
<path d="M47.4723 16.7196H16.5272C14.0269 16.7196 12 18.7465 12 21.2468V42.1922C12 44.6925 14.0269 46.7194 16.5272 46.7194H47.4723C49.9726 46.7194 51.9995 44.6925 51.9995 42.1922V21.2468C51.9995 18.7465 49.9726 16.7196 47.4723 16.7196Z" fill="black" fill-opacity="0.2"/>
<path d="M16.5254 16.7196C15.182 16.7196 13.9918 17.3099 13.1641 18.2332L30.6855 32.993C30.717 33.0193 30.7496 33.0447 30.7832 33.0691C30.8295 33.103 30.8777 33.135 30.9277 33.1648C30.9781 33.195 31.0303 33.223 31.084 33.2488C31.1379 33.2746 31.1933 33.298 31.25 33.3191C31.3075 33.3398 31.3661 33.3581 31.4258 33.3738C31.4841 33.3906 31.5435 33.405 31.6035 33.4168C31.6642 33.4272 31.7255 33.435 31.7871 33.4402C31.848 33.4467 31.9093 33.4506 31.9707 33.4519C32.0326 33.4526 32.0945 33.4506 32.1562 33.4461C32.2178 33.4415 32.2791 33.4343 32.3398 33.4246C32.4011 33.4148 32.4617 33.4024 32.5215 33.3875C32.581 33.373 32.6397 33.3561 32.6973 33.3367C32.7545 33.3169 32.8106 33.2948 32.8652 33.2703C32.9195 33.2458 32.9723 33.2191 33.0234 33.1902C33.0753 33.1618 33.1255 33.1311 33.1738 33.0984C33.2214 33.0652 33.2671 33.03 33.3105 32.993L50.832 18.2332C50.0043 17.3098 48.814 16.7196 47.4707 16.7196L16.5254 16.7196Z" fill="url(#paint5_linear_4_16894)"/>
<path d="M50.836 18.2333L17.0195 46.7198H47.4744C49.9825 46.7198 52.0016 44.7005 52.0016 42.1926V21.2472C52.0016 20.0824 51.5536 19.0339 50.836 18.2333Z" fill="url(#paint6_linear_4_16894)"/>
</g>
<defs>
<filter id="filter0_f_4_16894" x="3.2625" y="3.2625" width="57.475" height="57.475" filterUnits="userSpaceOnUse" color-interpolation-filters="sRGB">
<feFlood flood-opacity="0" result="BackgroundImageFix"/>
<feBlend mode="normal" in="SourceGraphic" in2="BackgroundImageFix" result="shape"/>
<feGaussianBlur stdDeviation="0.61875" result="effect1_foregroundBlur_4_16894"/>
</filter>
<filter id="filter1_f_4_16894" x="9.55" y="14.2696" width="44.9" height="34.9002" filterUnits="userSpaceOnUse" color-interpolation-filters="sRGB">
<feFlood flood-opacity="0" result="BackgroundImageFix"/>
<feBlend mode="normal" in="SourceGraphic" in2="BackgroundImageFix" result="shape"/>
<feGaussianBlur stdDeviation="1.225" result="effect1_foregroundBlur_4_16894"/>
</filter>
<linearGradient id="paint0_linear_4_16894" x1="4.5" y1="32" x2="59.5" y2="32" gradientUnits="userSpaceOnUse">
<stop stop-color="#FDFC47"/>
<stop offset="1" stop-color="#24FE41"/>
</linearGradient>
<linearGradient id="paint1_linear_4_16894" x1="4.5" y1="32" x2="59.5" y2="32" gradientUnits="userSpaceOnUse">
<stop stop-color="#FDFC47"/>
<stop offset="1" stop-color="#24FE41"/>
</linearGradient>
<linearGradient id="paint2_linear_4_16894" x1="12" y1="31.7195" x2="51.9995" y2="31.7195" gradientUnits="userSpaceOnUse">
<stop stop-color="#FDFC47"/>
<stop offset="1" stop-color="#24FE41"/>
</linearGradient>
<linearGradient id="paint3_linear_4_16894" x1="13.1641" y1="25.0858" x2="50.832" y2="25.0858" gradientUnits="userSpaceOnUse">
<stop stop-color="#FDFC47"/>
<stop offset="1" stop-color="#24FE41"/>
</linearGradient>
<linearGradient id="paint4_linear_4_16894" x1="17.0195" y1="32.4765" x2="52.0016" y2="32.4765" gradientUnits="userSpaceOnUse">
<stop stop-color="#FDFC47"/>
<stop offset="1" stop-color="#24FE41"/>
</linearGradient>
<linearGradient id="paint5_linear_4_16894" x1="13.1641" y1="25.0858" x2="50.832" y2="25.0858" gradientUnits="userSpaceOnUse">
<stop stop-color="#FDFC47"/>
<stop offset="1" stop-color="#24FE41"/>
</linearGradient>
<linearGradient id="paint6_linear_4_16894" x1="17.0195" y1="32.4765" x2="52.0016" y2="32.4765" gradientUnits="userSpaceOnUse">
<stop stop-color="#FDFC47"/>
<stop offset="1" stop-color="#24FE41"/>
</linearGradient>
<clipPath id="clip0_4_16894">
<rect width="64" height="64" fill="white"/>
</clipPath>
</defs>
</svg>
