<svg width="64" height="64" viewBox="0 0 64 64" fill="none" xmlns="http://www.w3.org/2000/svg">
<g clip-path="url(#clip0_4_16881)">
<path opacity="0.01" d="M16.5144 2C8.52359 2 2 8.74092 2 16.9982V49.002C2 57.2589 8.52359 64.0002 16.5144 64.0002H47.486C55.4768 64.0002 62.0004 57.2593 62.0004 49.002V16.9982C62.0004 8.74129 55.4768 2 47.486 2H16.5144ZM17.4859 3.96876H46.5163C53.487 3.96876 59.0989 9.76742 59.0989 16.9706V46.9685C59.0989 54.1717 53.4874 59.9703 46.5163 59.9703H17.4859C10.5152 59.9703 4.90326 54.1717 4.90326 46.9685V16.9706C4.90326 9.76742 10.5148 3.96876 17.4859 3.96876Z" fill="url(#paint0_linear_4_16881)"/>
<path opacity="0.01" d="M16.474 2.99997C9.0403 2.99997 3.00391 9.24689 3.00391 16.9376V49.0627C3.00391 56.7534 9.0403 63.0004 16.474 63.0004H47.528C54.9617 63.0004 61 56.7534 61 49.0627V16.9376C61 9.24689 54.9617 2.99997 47.528 2.99997H16.474ZM17.5029 3.96872H46.4992C53.462 3.96872 59.0668 9.76738 59.0668 16.9705V46.9685C59.0668 54.1716 53.4616 59.9703 46.4992 59.9703H17.5029C10.5401 59.9703 4.93536 54.1716 4.93536 46.9685V16.9705C4.93536 9.76738 10.5405 3.96872 17.5029 3.96872Z" fill="url(#paint1_linear_4_16881)"/>
<path opacity="0.03" d="M16.2878 3.99994C9.23618 3.99994 3.53125 9.8141 3.53125 16.998V49.0017C3.53125 56.1856 9.46522 61.9998 16.5168 61.9998H47.508C54.5596 61.9998 60.4622 56.1856 60.4622 49.0017V16.998C60.4622 9.8141 54.755 3.99994 47.7038 3.99994H47.3376C54.1182 4.32693 59.4845 9.97889 59.4845 16.9708V46.9687C59.4845 54.1719 53.7928 59.9705 46.7223 59.9705H17.2774C10.2069 59.9705 4.51516 54.1719 4.51516 46.9687V16.9708C4.51516 9.97927 9.88181 4.32763 16.662 3.99994H16.2878Z" fill="url(#paint2_linear_4_16881)"/>
<path opacity="0.03" d="M4 46.9693V49.0005C4 55.6485 9.89574 61.0006 16.5441 61.0006H47.5053C54.1532 61.0006 60.0004 55.6485 60.0004 49.0005V47.0083C59.9792 54.1932 54.1903 59.9714 47.0003 59.9714H17.0021C9.79884 59.9714 4 54.1726 4 46.9693Z" fill="url(#paint3_linear_4_16881)"/>
<path opacity="0.05" d="M4 44.9999V47.2387C4 54.5659 9.94493 60.4647 16.5929 60.4647H47.4355C54.0835 60.4647 60.0001 54.5655 60.0001 47.2387V45.043C59.9789 52.962 54.1901 59.3302 47.0001 59.3302H17.0022C9.79904 59.3302 4 52.939 4 44.9999Z" fill="url(#paint4_linear_4_16881)"/>
<path d="M17.002 4.4686H47C53.9047 4.4686 59.502 10.0659 59.502 16.9706V46.9686C59.502 53.8733 53.9047 59.4706 47 59.4706H17.002C10.0973 59.4706 4.5 53.8733 4.5 46.9686V16.9706C4.5 10.0659 10.0973 4.4686 17.002 4.4686Z" fill="#232323" stroke="url(#paint5_linear_4_16881)"/>
<g opacity="0.15" filter="url(#filter0_f_4_16881)">
<path d="M31.9994 56.0652C45.2539 56.0652 55.9988 45.3203 55.9988 32.0658C55.9988 18.8113 45.2539 8.06641 31.9994 8.06641C18.7449 8.06641 8 18.8113 8 32.0658C8 45.3203 18.7449 56.0652 31.9994 56.0652Z" fill="url(#paint6_linear_4_16881)"/>
</g>
<path d="M31.9994 56.0652C45.2539 56.0652 55.9988 45.3203 55.9988 32.0658C55.9988 18.8113 45.2539 8.06641 31.9994 8.06641C18.7449 8.06641 8 18.8113 8 32.0658C8 45.3203 18.7449 56.0652 31.9994 56.0652Z" fill="url(#paint7_linear_4_16881)"/>
<path opacity="0.25" d="M31.9994 10.7329C27.9995 10.7329 25.3329 13.3995 25.3329 13.3995C25.3329 13.3995 26.9236 18.802 27.9995 21.3993C29.1408 24.1539 31.9994 29.3991 31.9994 29.3991C31.9994 29.3991 34.858 24.1539 35.9993 21.3993C37.0753 18.802 38.6659 13.3995 38.6659 13.3995C38.6659 13.3995 35.9993 10.7329 31.9994 10.7329ZM23.5156 14.1514C23.5156 14.1514 19.7424 14.1515 16.9145 16.9794C14.0865 19.8073 14.0865 23.5806 14.0865 23.5806C14.0865 23.5806 19.0331 26.2738 21.6304 27.3511C24.385 28.4925 30.1141 30.179 30.1141 30.179C30.1141 30.179 28.4275 24.4499 27.2862 21.6953C26.2102 19.098 23.5156 14.1514 23.5156 14.1514ZM40.4846 14.1514C40.4846 14.1514 37.7913 19.098 36.714 21.6953C35.5727 24.4499 33.8861 30.179 33.8861 30.179C33.8861 30.179 39.6152 28.4925 42.3698 27.3511C44.9671 26.2752 49.9137 23.5806 49.9137 23.5806C49.9137 23.5806 49.9137 19.8073 47.0857 16.9794C44.2578 14.1515 40.4846 14.1514 40.4846 14.1514ZM13.3346 25.3992C13.3346 25.3992 10.668 28.0658 10.668 32.0657C10.668 36.0656 13.3346 38.7322 13.3346 38.7322C13.3346 38.7322 18.7371 37.1416 21.3344 36.0656C24.089 34.9243 29.3342 32.0657 29.3342 32.0657C29.3342 32.0657 24.089 29.2071 21.3344 28.0658C18.7371 26.9898 13.3346 25.3992 13.3346 25.3992ZM50.667 25.3992C50.667 25.3992 45.2644 26.9898 42.6672 28.0658C39.9126 29.2071 34.6674 32.0657 34.6674 32.0657C34.6674 32.0657 39.9126 34.9243 42.6672 36.0656C45.2644 37.1416 50.667 38.7322 50.667 38.7322C50.667 38.7322 53.3336 36.0656 53.3336 32.0657C53.3336 28.0658 50.667 25.3992 50.667 25.3992ZM30.1155 33.9509C30.1155 33.9509 24.3863 35.6377 21.6317 36.779C19.0344 37.8549 14.0879 40.5494 14.0879 40.5494C14.0879 40.5494 14.0879 44.3227 16.9158 47.1506C19.7437 49.9785 23.517 49.9785 23.517 49.9785C23.517 49.9785 26.2102 45.032 27.2876 42.4348C28.4289 39.6802 30.1155 33.9509 30.1155 33.9509ZM33.8861 33.9509C33.8861 33.9509 35.5727 39.6802 36.714 42.4348C37.79 45.032 40.4846 49.9785 40.4846 49.9785C40.4846 49.9785 44.2578 49.9785 47.0857 47.1506C49.9137 44.3227 49.9137 40.5494 49.9137 40.5494C49.9137 40.5494 44.9671 37.8563 42.3698 36.779C39.6152 35.6377 33.8861 33.9509 33.8861 33.9509ZM32.0008 34.7323C32.0008 34.7323 29.1422 39.9775 28.0009 42.7321C26.9249 45.3294 25.3343 50.7319 25.3343 50.7319C25.3343 50.7319 28.0009 53.3985 32.0008 53.3985C36.0007 53.3985 38.6673 50.7319 38.6673 50.7319C38.6673 50.7319 37.0766 45.3294 36.0007 42.7321C34.8594 39.9775 32.0008 34.7323 32.0008 34.7323Z" fill="#232323"/>
</g>
<defs>
<filter id="filter0_f_4_16881" x="5.60006" y="5.66647" width="52.7999" height="52.7987" filterUnits="userSpaceOnUse" color-interpolation-filters="sRGB">
<feFlood flood-opacity="0" result="BackgroundImageFix"/>
<feBlend mode="normal" in="SourceGraphic" in2="BackgroundImageFix" result="shape"/>
<feGaussianBlur stdDeviation="1.19997" result="effect1_foregroundBlur_4_16881"/>
</filter>
<linearGradient id="paint0_linear_4_16881" x1="2" y1="33.0001" x2="62.0004" y2="33.0001" gradientUnits="userSpaceOnUse">
<stop stop-color="#FDFC47"/>
<stop offset="1" stop-color="#24FE41"/>
</linearGradient>
<linearGradient id="paint1_linear_4_16881" x1="3.00391" y1="33.0002" x2="61" y2="33.0002" gradientUnits="userSpaceOnUse">
<stop stop-color="#FDFC47"/>
<stop offset="1" stop-color="#24FE41"/>
</linearGradient>
<linearGradient id="paint2_linear_4_16881" x1="3.53125" y1="32.9999" x2="60.4622" y2="32.9999" gradientUnits="userSpaceOnUse">
<stop stop-color="#FDFC47"/>
<stop offset="1" stop-color="#24FE41"/>
</linearGradient>
<linearGradient id="paint3_linear_4_16881" x1="4" y1="53.9849" x2="60.0004" y2="53.9849" gradientUnits="userSpaceOnUse">
<stop stop-color="#FDFC47"/>
<stop offset="1" stop-color="#24FE41"/>
</linearGradient>
<linearGradient id="paint4_linear_4_16881" x1="4" y1="52.7323" x2="60.0001" y2="52.7323" gradientUnits="userSpaceOnUse">
<stop stop-color="#FDFC47"/>
<stop offset="1" stop-color="#24FE41"/>
</linearGradient>
<linearGradient id="paint5_linear_4_16881" x1="4" y1="31.9696" x2="60.002" y2="31.9696" gradientUnits="userSpaceOnUse">
<stop stop-color="#FDFC47"/>
<stop offset="1" stop-color="#24FE41"/>
</linearGradient>
<linearGradient id="paint6_linear_4_16881" x1="8" y1="32.0658" x2="55.9988" y2="32.0658" gradientUnits="userSpaceOnUse">
<stop stop-color="#FDFC47"/>
<stop offset="1" stop-color="#24FE41"/>
</linearGradient>
<linearGradient id="paint7_linear_4_16881" x1="8" y1="32.0658" x2="55.9988" y2="32.0658" gradientUnits="userSpaceOnUse">
<stop stop-color="#FDFC47"/>
<stop offset="1" stop-color="#24FE41"/>
</linearGradient>
<clipPath id="clip0_4_16881">
<rect width="64" height="64" fill="white"/>
</clipPath>
</defs>
</svg>
