<svg width="64" height="64" viewBox="0 0 64 64" fill="none" xmlns="http://www.w3.org/2000/svg">
<g opacity="0.3" filter="url(#filter0_f_4_16365)">
<path d="M44.5003 4.50003H19.5001C11.2158 4.50003 4.5 11.2158 4.5 19.5001V44.5003C4.5 52.7846 11.2158 59.5004 19.5001 59.5004H44.5003C52.7846 59.5004 59.5004 52.7846 59.5004 44.5003V19.5001C59.5004 11.2158 52.7846 4.50003 44.5003 4.50003Z" fill="#232323"/>
<path d="M19.5001 5.00003H44.5003C52.5085 5.00003 59.0004 11.4919 59.0004 19.5001V44.5003C59.0004 52.5085 52.5085 59.0004 44.5003 59.0004H19.5001C11.4919 59.0004 5 52.5085 5 44.5003V19.5001C5 11.4919 11.4919 5.00003 19.5001 5.00003Z" stroke="url(#paint0_linear_4_16365)"/>
</g>
<path d="M19.5001 5.00018H44.5007C52.5089 5.00018 59.0008 11.4921 59.0008 19.5003V44.5008C59.0008 52.509 52.5089 59.001 44.5007 59.001H19.5001C11.4919 59.001 5 52.509 5 44.5008V19.5003C5 11.4921 11.4919 5.00018 19.5001 5.00018Z" fill="#232323" stroke="url(#paint1_linear_4_16365)"/>
<path d="M35.2608 43.5501C32.6358 44.6001 29.8358 44.7751 27.0359 44.6001C25.8109 44.4251 24.5859 44.2501 23.3609 43.9001C23.1859 43.9001 23.0109 43.9001 22.8359 44.0751C21.2609 44.7751 19.6859 45.6501 18.286 46.3501C17.7609 46.7001 17.2359 46.7001 16.711 46.3501C16.186 46.0001 16.186 45.4751 16.186 44.7751C16.536 43.5501 16.536 42.3251 16.711 41.1001C16.711 40.9251 16.536 40.7501 16.536 40.5751C14.7859 38.8251 13.386 37.0751 12.3359 34.8001C10.5859 30.6001 10.936 26.4 13.386 22.5504C15.836 18.3504 19.6859 16.0754 24.2361 15.0253C28.786 13.9753 33.1607 14.5003 37.3608 16.6003C41.2108 18.5254 44.0108 21.5004 45.2358 25.7003C45.7608 27.2753 45.9358 28.8503 45.7608 30.4253C44.8858 29.5503 43.8358 29.3753 42.7858 29.9003C42.7858 28.8503 42.7858 27.8003 42.4358 26.7503C41.7358 24.3003 40.3359 22.3753 38.5858 20.8003C35.6109 18.3503 31.9358 17.3002 28.0856 17.3002C24.0606 17.6503 20.5605 19.0503 17.7607 21.8502C15.4857 24.1252 14.2607 26.9253 14.4357 30.2504C14.6107 33.0504 15.8357 35.3254 17.5857 37.2503L18.9857 38.6503C19.6857 39.1753 19.8607 39.7003 19.5107 40.4003C19.3357 41.1003 19.1607 41.9753 18.9857 42.6753C18.9857 42.8503 18.8107 43.0253 18.9857 43.0253C19.1607 43.2003 19.3357 43.0253 19.3357 43.0253C20.2107 42.5003 21.2607 41.9753 22.1357 41.2753C22.6607 40.9253 23.1857 40.9253 23.8857 41.1003C26.8607 41.9753 30.0107 41.9753 32.9857 41.1003C33.1607 41.1003 33.3357 40.9253 33.3357 41.2753C33.6857 42.3253 34.2108 43.0251 35.2608 43.5501Z" fill="url(#paint2_linear_4_16365)"/>
<path d="M52.7594 40.0498C52.7594 41.2748 51.8844 42.1498 50.8344 42.3248C49.0844 42.6748 47.6844 43.3748 46.4594 44.5998C46.1094 44.9498 45.9344 44.9498 45.5844 44.7748C45.4094 44.5998 45.4094 44.2498 45.5844 43.8998C46.8093 42.6748 47.5094 41.0998 47.8594 39.5248C48.0344 38.2998 49.2593 37.5997 50.4844 37.5997C51.8844 37.7747 52.7594 38.8248 52.7594 40.0498Z" fill="url(#paint3_linear_4_16365)"/>
<path d="M43.8358 49.4997C42.6108 49.4997 41.5608 48.6247 41.3858 47.5746C41.2108 45.8246 40.3357 44.4246 39.1108 43.3746C38.9358 43.1996 38.7608 43.0246 38.9358 42.6746C39.1108 42.1496 39.4608 42.1496 39.8108 42.3246C40.1608 42.4996 40.3358 42.8496 40.5108 43.0246C41.5608 43.8996 42.7858 44.4246 44.0108 44.5996C45.2358 44.7746 46.1108 45.9996 45.9358 47.2246C46.1108 48.4496 45.0607 49.4997 43.8358 49.4997Z" fill="url(#paint4_linear_4_16365)"/>
<path d="M34.5625 40.3997C34.5625 39.1747 35.2625 38.2997 36.4875 37.9497C38.2375 37.5997 39.6375 36.8997 40.8626 35.6747C41.2126 35.3247 41.5626 35.3247 41.7376 35.6747C41.9126 35.8497 41.9126 36.1997 41.5626 36.5497C40.5125 37.5997 39.8126 38.8247 39.4626 40.3997C39.4626 40.5747 39.4626 40.9247 39.2876 41.0997C38.9376 42.3247 37.8876 43.0247 36.6626 42.8497C35.4376 42.6747 34.5625 41.6247 34.5625 40.3997Z" fill="url(#paint5_linear_4_16365)"/>
<path d="M46.6377 34.2749C47.1627 35.3249 47.6878 36.1999 48.3877 36.8999C48.7377 37.2499 48.7377 37.5999 48.5627 37.7749C48.3877 38.1249 48.0377 38.1249 47.6877 37.7749C46.8127 36.7249 45.5878 36.0249 44.3627 35.6749C44.0127 35.4999 43.6627 35.4999 43.3127 35.4999C42.6127 35.3249 41.9127 34.9749 41.7377 34.0999C41.3877 33.2249 41.3877 32.3499 42.0877 31.6499C42.7877 30.7749 43.6627 30.5999 44.5377 30.7749C45.4127 31.1249 46.1127 31.6499 46.2877 32.6999C46.2877 33.2249 46.4627 33.7499 46.6377 34.2749Z" fill="url(#paint6_linear_4_16365)"/>
<defs>
<filter id="filter0_f_4_16365" x="3.26249" y="3.26252" width="57.475" height="57.4754" filterUnits="userSpaceOnUse" color-interpolation-filters="sRGB">
<feFlood flood-opacity="0" result="BackgroundImageFix"/>
<feBlend mode="normal" in="SourceGraphic" in2="BackgroundImageFix" result="shape"/>
<feGaussianBlur stdDeviation="0.618754" result="effect1_foregroundBlur_4_16365"/>
</filter>
<linearGradient id="paint0_linear_4_16365" x1="4.5" y1="32.0002" x2="59.5004" y2="32.0002" gradientUnits="userSpaceOnUse">
<stop stop-color="#FDFC47"/>
<stop offset="1" stop-color="#24FE41"/>
</linearGradient>
<linearGradient id="paint1_linear_4_16365" x1="4.5" y1="32.0006" x2="59.5008" y2="32.0006" gradientUnits="userSpaceOnUse">
<stop stop-color="#FDFC47"/>
<stop offset="1" stop-color="#24FE41"/>
</linearGradient>
<linearGradient id="paint2_linear_4_16365" x1="11.2422" y1="30.5565" x2="45.8264" y2="30.5565" gradientUnits="userSpaceOnUse">
<stop stop-color="#FDFC47"/>
<stop offset="1" stop-color="#24FE41"/>
</linearGradient>
<linearGradient id="paint3_linear_4_16365" x1="45.4531" y1="41.2447" x2="52.7594" y2="41.2447" gradientUnits="userSpaceOnUse">
<stop stop-color="#FDFC47"/>
<stop offset="1" stop-color="#24FE41"/>
</linearGradient>
<linearGradient id="paint4_linear_4_16365" x1="38.8633" y1="45.8598" x2="45.9581" y2="45.8598" gradientUnits="userSpaceOnUse">
<stop stop-color="#FDFC47"/>
<stop offset="1" stop-color="#24FE41"/>
</linearGradient>
<linearGradient id="paint5_linear_4_16365" x1="34.5625" y1="39.1443" x2="41.8525" y2="39.1443" gradientUnits="userSpaceOnUse">
<stop stop-color="#FDFC47"/>
<stop offset="1" stop-color="#24FE41"/>
</linearGradient>
<linearGradient id="paint6_linear_4_16365" x1="41.5078" y1="34.3757" x2="48.6777" y2="34.3757" gradientUnits="userSpaceOnUse">
<stop stop-color="#FDFC47"/>
<stop offset="1" stop-color="#24FE41"/>
</linearGradient>
</defs>
</svg>
