<svg width="64" height="64" viewBox="0 0 64 64" fill="none" xmlns="http://www.w3.org/2000/svg">
<g opacity="0.3" filter="url(#filter0_f_4_16650)">
<path d="M44.5003 4.50003H19.5001C11.2158 4.50003 4.5 11.2158 4.5 19.5001V44.5003C4.5 52.7846 11.2158 59.5004 19.5001 59.5004H44.5003C52.7846 59.5004 59.5004 52.7846 59.5004 44.5003V19.5001C59.5004 11.2158 52.7846 4.50003 44.5003 4.50003Z" fill="url(#paint0_linear_4_16650)"/>
</g>
<path d="M19.5001 5H44.5007C52.5089 5 59.0008 11.4919 59.0008 19.5001V44.5007C59.0008 52.5089 52.5089 59.0008 44.5007 59.0008H19.5001C11.4919 59.0008 5 52.5089 5 44.5007V19.5001C5 11.4919 11.4919 5 19.5001 5Z" fill="#232323" stroke="url(#paint1_linear_4_16650)"/>
<path fill-rule="evenodd" clip-rule="evenodd" d="M39.9088 40.1205C38.9389 40.1345 38.0065 40.1477 37.0281 40.1619C37.8216 35.7428 38.6119 31.3422 39.4036 26.9337C39.4855 26.9244 39.5528 26.911 39.6203 26.9101C41.4776 26.8833 43.3348 26.8421 45.1918 26.8409C45.7169 26.8404 46.2539 26.9082 46.7652 27.0298C48.4281 27.4255 49.4277 28.6398 49.4683 30.3449C49.5166 32.3499 48.8073 34.0373 47.2352 35.3317C46.2166 36.1699 45.0134 36.4758 43.7351 36.5367C42.7676 36.5826 41.7975 36.5825 40.8285 36.5915C40.622 36.5934 40.5297 36.6413 40.4919 36.8683C40.3119 37.9461 40.1086 39.02 39.9088 40.1205ZM40.9128 34.5467C41.9162 34.4933 42.8507 34.4898 43.7733 34.3816C44.9784 34.2407 45.827 33.5764 46.165 32.3899C46.3268 31.8215 46.4251 31.2195 46.4432 30.6292C46.4719 29.6957 46.0717 29.1724 45.1439 29.0587C44.088 28.9294 43.0141 28.9463 41.9267 28.899C41.5846 30.8041 41.2564 32.6344 40.9128 34.5467ZM17.4071 40.4391C16.4382 40.4531 15.4958 40.4667 14.5273 40.4805C15.3195 36.0667 16.1084 31.6718 16.9005 27.2583C16.9959 27.2495 17.0842 27.2342 17.1731 27.2329C18.9955 27.2062 20.8182 27.167 22.6407 27.1643C23.1542 27.1634 23.6797 27.2223 24.1809 27.3371C25.828 27.714 26.7899 28.7398 26.939 30.4154C27.2296 33.6856 25.0725 36.0266 22.9138 36.5871C22.3378 36.7364 21.7365 36.8235 21.1419 36.8586C20.1986 36.9147 19.2514 36.9073 18.3054 36.9159C18.1104 36.9177 18.0277 36.9694 17.9922 37.1779C17.8102 38.2562 17.6082 39.3311 17.4071 40.4391ZM18.4101 34.8699C19.4065 34.817 20.3416 34.8141 21.2641 34.7063C22.5002 34.5615 23.3509 33.8722 23.6814 32.6533C23.8306 32.1041 23.9253 31.5256 23.9416 30.9578C23.968 30.0244 23.569 29.4965 22.6448 29.3833C21.5883 29.2535 20.5139 29.2704 19.4241 29.2221C19.082 31.1272 18.7532 32.9581 18.4101 34.8699ZM28.8528 23.5579C29.8242 23.5439 30.7551 23.5305 31.7101 23.5168C31.5009 24.6919 31.2955 25.8455 31.0845 27.0317C31.8615 27.0206 32.6105 26.9838 33.358 27.0065C34.1154 27.0296 34.8861 27.037 35.6248 27.1829C37.1859 27.4915 37.8554 28.493 37.5993 30.0868C37.3087 31.8943 36.9681 33.6934 36.6495 35.4962C36.593 35.8141 36.5476 36.1338 36.4721 36.4469C36.4521 36.5297 36.34 36.6488 36.2675 36.6514C35.3708 36.6778 34.4733 36.6862 33.5379 36.6996C33.6933 35.8238 33.8423 34.9875 33.9903 34.1513C34.2044 32.9381 34.433 31.7271 34.625 30.5107C34.7658 29.6206 34.4164 29.1856 33.5114 29.1591C32.5909 29.1318 31.6684 29.1766 30.6955 29.1905C30.2455 31.6933 29.7935 34.2038 29.3374 36.7365C28.395 36.7501 27.456 36.7636 26.4791 36.7776C27.2713 32.3668 28.0597 27.9736 28.8528 23.5579Z" fill="url(#paint2_linear_4_16650)"/>
<defs>
<filter id="filter0_f_4_16650" x="3.26249" y="3.26252" width="57.475" height="57.4754" filterUnits="userSpaceOnUse" color-interpolation-filters="sRGB">
<feFlood flood-opacity="0" result="BackgroundImageFix"/>
<feBlend mode="normal" in="SourceGraphic" in2="BackgroundImageFix" result="shape"/>
<feGaussianBlur stdDeviation="0.618754" result="effect1_foregroundBlur_4_16650"/>
</filter>
<linearGradient id="paint0_linear_4_16650" x1="4.5" y1="32.0002" x2="59.5004" y2="32.0002" gradientUnits="userSpaceOnUse">
<stop stop-color="#FDFC47"/>
<stop offset="1" stop-color="#24FE41"/>
</linearGradient>
<linearGradient id="paint1_linear_4_16650" x1="4.5" y1="32.0004" x2="59.5008" y2="32.0004" gradientUnits="userSpaceOnUse">
<stop stop-color="#FDFC47"/>
<stop offset="1" stop-color="#24FE41"/>
</linearGradient>
<linearGradient id="paint2_linear_4_16650" x1="14.5273" y1="31.9987" x2="49.4706" y2="31.9987" gradientUnits="userSpaceOnUse">
<stop stop-color="#FDFC47"/>
<stop offset="1" stop-color="#24FE41"/>
</linearGradient>
</defs>
</svg>
