<svg width="64" height="64" viewBox="0 0 64 64" fill="none" xmlns="http://www.w3.org/2000/svg">
<g clip-path="url(#clip0_4_16404)">
<g opacity="0.3" filter="url(#filter0_f_4_16404)">
<path d="M44.5003 4.49982H19.5001C11.2158 4.49982 4.5 11.2156 4.5 19.4999V44.5001C4.5 52.7844 11.2158 59.5002 19.5001 59.5002H44.5003C52.7846 59.5002 59.5004 52.7844 59.5004 44.5001V19.4999C59.5004 11.2156 52.7846 4.49982 44.5003 4.49982Z" fill="url(#paint0_linear_4_16404)"/>
</g>
<path d="M19.5001 4.99991H44.5007C52.5089 4.99991 59.0008 11.4918 59.0008 19.5V44.5006C59.0008 52.5088 52.5089 59.0007 44.5007 59.0007H19.5001C11.4919 59.0007 5 52.5088 5 44.5006V19.5C5 11.4918 11.4919 4.99991 19.5001 4.99991Z" fill="#232323" stroke="url(#paint1_linear_4_16404)"/>
<path d="M31.877 17.233C29.8993 17.233 28.308 18.8243 28.308 20.802V21.0469C28.308 21.4998 28.3978 21.9281 28.5504 22.3256L23.7618 26.3154C23.0609 26.0071 22.3037 25.8474 21.538 25.8465C20.0692 25.8465 18.6606 26.43 17.622 27.4686C16.5835 28.5071 16 29.9157 16 31.3845C16 32.8533 16.5835 34.2619 17.622 35.3005C18.6606 36.3391 20.0692 36.9225 21.538 36.9225C22.3492 36.9201 23.15 36.7394 23.8837 36.3933L28.7609 40.4582C28.4803 41.0194 28.3068 41.6458 28.3068 42.319V42.6021C28.3068 44.9096 30.1651 46.7679 32.4726 46.7679H42.6006C44.9081 46.7679 46.7664 44.9096 46.7664 42.6021V42.319C46.7664 40.0115 44.9081 38.1532 42.6006 38.1532H32.4726C31.5557 38.1532 30.7164 38.4535 30.0309 38.9507L26.2047 34.3578C26.5131 33.8735 26.7444 33.3441 26.8902 32.7887L29.7368 32.529C30.1589 33.6575 31.2358 34.4612 32.5157 34.4612H45.0247C46.6726 34.4612 48.0005 33.1333 48.0005 31.4854V31.2836C48.0005 29.6357 46.6726 28.3078 45.0247 28.3078H32.5157C31.237 28.3078 30.159 29.1102 29.7368 30.2375L26.8927 29.9803C26.7381 29.3883 26.4865 28.8261 26.1481 28.3164L29.7971 23.9364C30.3841 24.3585 31.0979 24.6145 31.8782 24.6145H43.1992C45.1769 24.6145 46.7682 23.0232 46.7682 21.0455V20.8006C46.7682 18.8229 45.1769 17.2316 43.1992 17.2316H31.8782L31.877 17.233Z" fill="url(#paint2_linear_4_16404)"/>
<path d="M43.158 18.464H31.9192C30.6047 18.464 29.5391 19.5296 29.5391 20.8441V21.0066C29.5391 22.3211 30.6047 23.3867 31.9192 23.3867H43.158C44.4725 23.3867 45.5381 22.3211 45.5381 21.0066V20.8441C45.5381 19.5296 44.4725 18.464 43.158 18.464Z" fill="#232323"/>
<path d="M44.984 29.54H32.554C31.5685 29.54 30.7695 30.339 30.7695 31.3245V31.4475C30.7695 32.4331 31.5685 33.232 32.554 33.232H44.984C45.9696 33.232 46.7685 32.4331 46.7685 31.4475V31.3245C46.7685 30.339 45.9696 29.54 44.984 29.54Z" fill="#232323"/>
<path d="M42.5636 39.385H32.5136C30.8708 39.385 29.5391 40.7167 29.5391 42.3595V42.5639C29.5391 44.2067 30.8708 45.5384 32.5136 45.5384H42.5636C44.2063 45.5384 45.5381 44.2067 45.5381 42.5639V42.3595C45.5381 40.7167 44.2063 39.385 42.5636 39.385Z" fill="#232323"/>
<path d="M21.5379 35.6934C23.9168 35.6934 25.8453 33.7649 25.8453 31.386C25.8453 29.0071 23.9168 27.0786 21.5379 27.0786C19.159 27.0786 17.2305 29.0071 17.2305 31.386C17.2305 33.7649 19.159 35.6934 21.5379 35.6934Z" fill="#232323"/>
</g>
<defs>
<filter id="filter0_f_4_16404" x="3.2625" y="3.26232" width="57.475" height="57.4754" filterUnits="userSpaceOnUse" color-interpolation-filters="sRGB">
<feFlood flood-opacity="0" result="BackgroundImageFix"/>
<feBlend mode="normal" in="SourceGraphic" in2="BackgroundImageFix" result="shape"/>
<feGaussianBlur stdDeviation="0.61875" result="effect1_foregroundBlur_4_16404"/>
</filter>
<linearGradient id="paint0_linear_4_16404" x1="4.5" y1="32" x2="59.5004" y2="32" gradientUnits="userSpaceOnUse">
<stop stop-color="#FDFC47"/>
<stop offset="1" stop-color="#24FE41"/>
</linearGradient>
<linearGradient id="paint1_linear_4_16404" x1="4.5" y1="32.0003" x2="59.5008" y2="32.0003" gradientUnits="userSpaceOnUse">
<stop stop-color="#FDFC47"/>
<stop offset="1" stop-color="#24FE41"/>
</linearGradient>
<linearGradient id="paint2_linear_4_16404" x1="16" y1="31.9997" x2="48.0005" y2="31.9997" gradientUnits="userSpaceOnUse">
<stop stop-color="#FDFC47"/>
<stop offset="1" stop-color="#24FE41"/>
</linearGradient>
<clipPath id="clip0_4_16404">
<rect width="64" height="64" fill="white"/>
</clipPath>
</defs>
</svg>
