<svg width="64" height="64" viewBox="0 0 64 64" fill="none" xmlns="http://www.w3.org/2000/svg">
<g opacity="0.3" filter="url(#filter0_f_4_16606)">
<path d="M44.5003 4.49979H19.5001C11.2158 4.49979 4.5 11.2156 4.5 19.4999V44.5001C4.5 52.7844 11.2158 59.5002 19.5001 59.5002H44.5003C52.7846 59.5002 59.5004 52.7844 59.5004 44.5001V19.4999C59.5004 11.2156 52.7846 4.49979 44.5003 4.49979Z" fill="#232323"/>
<path d="M19.5001 4.99979H44.5003C52.5085 4.99979 59.0004 11.4917 59.0004 19.4999V44.5001C59.0004 52.5083 52.5085 59.0002 44.5003 59.0002H19.5001C11.4919 59.0002 5 52.5083 5 44.5001V19.4999C5 11.4917 11.4919 4.99979 19.5001 4.99979Z" stroke="url(#paint0_linear_4_16606)"/>
</g>
<path d="M19.5001 4.99976H44.5007C52.5088 4.99976 59.0008 11.4917 59.0008 19.4999V44.5004C59.0008 52.5086 52.5088 59.0005 44.5007 59.0005H19.5001C11.4919 59.0005 5 52.5086 5 44.5004V19.4999C5 11.4917 11.4919 4.99976 19.5001 4.99976Z" fill="#232323" stroke="url(#paint1_linear_4_16606)"/>
<path d="M34.5 13.25C22.8315 13.25 14.5 22.6883 14.5 33.25H17C17 23.585 24.835 15.75 34.5 15.75C35.1903 15.75 35.75 15.1904 35.75 14.5C35.75 13.8097 35.1903 13.25 34.5 13.25Z" fill="url(#paint2_linear_4_16606)"/>
<path opacity="0.1" d="M34.5 18.25C26.2158 18.25 19.5 24.9658 19.5 33.25C19.5 40.8439 25.6561 47 33.25 47C40.1535 47 45.75 41.4035 45.75 34.5C45.75 28.2867 40.7133 23.25 34.5 23.25C28.9771 23.25 24.5 27.7271 24.5 33.25C24.5 38.0825 28.4175 42 33.25 42C37.3921 42 40.75 38.6421 40.75 34.5C40.75 31.0483 37.9518 28.25 34.5 28.25C31.7386 28.25 29.5 30.4886 29.5 33.25C29.5 35.3211 31.1789 37 33.25 37C34.6308 37 35.75 35.8807 35.75 34.5C35.75 33.1193 34.6307 32 33.25 32C33.9404 32 34.5 32.5597 34.5 33.25C34.5 33.9403 33.9404 34.5 33.25 34.5C32.5597 34.5 32 33.9403 32 33.25C32 31.8693 33.1193 30.75 34.5 30.75C36.5711 30.75 38.25 32.4289 38.25 34.5C38.25 37.2614 36.0114 39.5 33.25 39.5C29.7983 39.5 27 36.7017 27 33.25C27 29.1079 30.3579 25.75 34.5 25.75C39.3325 25.75 43.25 29.6675 43.25 34.5C43.25 40.0229 38.7729 44.5 33.25 44.5C27.0368 44.5 22 39.4632 22 33.25C22 26.3465 27.5965 20.75 34.5 20.75C42.0939 20.75 48.25 26.9061 48.25 34.5C48.25 42.7843 41.5343 49.5 33.25 49.5C24.2754 49.5 17 42.2246 17 33.25H14.5C14.5 43.6054 22.8946 52 33.25 52C42.915 52 50.75 44.165 50.75 34.5C50.75 25.5254 43.4746 18.25 34.5 18.25Z" fill="url(#paint3_linear_4_16606)"/>
<path d="M33.25 17C24.9658 17 18.25 23.7158 18.25 32C18.25 39.5939 24.4061 45.75 32 45.75C38.9035 45.75 44.5 40.1535 44.5 33.25C44.5 27.0367 39.4633 22 33.25 22C27.7271 22 23.25 26.4771 23.25 32C23.25 36.8325 27.1675 40.75 32 40.75C36.1421 40.75 39.5 37.3921 39.5 33.25C39.5 29.7983 36.7018 27 33.25 27C30.4886 27 28.25 29.2386 28.25 32C28.25 34.0711 29.9289 35.75 32 35.75C33.3808 35.75 34.5 34.6307 34.5 33.25C34.5 31.8693 33.3807 30.75 32 30.75C32.6904 30.75 33.25 31.3097 33.25 32C33.25 32.6903 32.6904 33.25 32 33.25C31.3097 33.25 30.75 32.6903 30.75 32C30.75 30.6193 31.8693 29.5 33.25 29.5C35.3211 29.5 37 31.1789 37 33.25C37 36.0114 34.7614 38.25 32 38.25C28.5483 38.25 25.75 35.4517 25.75 32C25.75 27.8579 29.1079 24.5 33.25 24.5C38.0825 24.5 42 28.4175 42 33.25C42 38.7729 37.5229 43.25 32 43.25C25.7868 43.25 20.75 38.2132 20.75 32C20.75 25.0965 26.3465 19.5 33.25 19.5C40.8439 19.5 47 25.6561 47 33.25C47 41.5343 40.2843 48.25 32 48.25C23.0254 48.25 15.75 40.9746 15.75 32H13.25C13.25 42.3554 21.6446 50.75 32 50.75C41.665 50.75 49.5 42.915 49.5 33.25C49.5 24.2754 42.2246 17 33.25 17Z" fill="url(#paint4_linear_4_16606)"/>
<path d="M33.25 12C21.5815 12 13.25 21.4383 13.25 32H15.75C15.75 22.335 23.585 14.5 33.25 14.5C33.9403 14.5 34.5 13.9404 34.5 13.25C34.5 12.5597 33.9403 12 33.25 12Z" fill="url(#paint5_linear_4_16606)"/>
<defs>
<filter id="filter0_f_4_16606" x="3.26249" y="3.26228" width="57.475" height="57.4754" filterUnits="userSpaceOnUse" color-interpolation-filters="sRGB">
<feFlood flood-opacity="0" result="BackgroundImageFix"/>
<feBlend mode="normal" in="SourceGraphic" in2="BackgroundImageFix" result="shape"/>
<feGaussianBlur stdDeviation="0.618754" result="effect1_foregroundBlur_4_16606"/>
</filter>
<linearGradient id="paint0_linear_4_16606" x1="4.5" y1="32" x2="59.5004" y2="32" gradientUnits="userSpaceOnUse">
<stop stop-color="#FDFC47"/>
<stop offset="1" stop-color="#24FE41"/>
</linearGradient>
<linearGradient id="paint1_linear_4_16606" x1="4.5" y1="32.0001" x2="59.5008" y2="32.0001" gradientUnits="userSpaceOnUse">
<stop stop-color="#FDFC47"/>
<stop offset="1" stop-color="#24FE41"/>
</linearGradient>
<linearGradient id="paint2_linear_4_16606" x1="15.75" y1="32" x2="34.5" y2="14.5" gradientUnits="userSpaceOnUse">
<stop stop-opacity="0.098039"/>
<stop offset="1" stop-opacity="0"/>
</linearGradient>
<linearGradient id="paint3_linear_4_16606" x1="14.5" y1="35.125" x2="50.75" y2="35.125" gradientUnits="userSpaceOnUse">
<stop stop-color="#FDFC47"/>
<stop offset="1" stop-color="#24FE41"/>
</linearGradient>
<linearGradient id="paint4_linear_4_16606" x1="13.25" y1="33.875" x2="49.5" y2="33.875" gradientUnits="userSpaceOnUse">
<stop stop-color="#FDFC47"/>
<stop offset="1" stop-color="#24FE41"/>
</linearGradient>
<linearGradient id="paint5_linear_4_16606" x1="13.25" y1="22" x2="34.5" y2="22" gradientUnits="userSpaceOnUse">
<stop stop-color="#FDFC47"/>
<stop offset="1" stop-color="#24FE41"/>
</linearGradient>
</defs>
</svg>
