<svg width="64" height="64" viewBox="0 0 64 64" fill="none" xmlns="http://www.w3.org/2000/svg">
<g opacity="0.3" filter="url(#filter0_f_4_16615)">
<path d="M44.5003 4.50003H19.5001C11.2158 4.50003 4.5 11.2158 4.5 19.5001V44.5003C4.5 52.7846 11.2158 59.5004 19.5001 59.5004H44.5003C52.7846 59.5004 59.5004 52.7846 59.5004 44.5003V19.5001C59.5004 11.2158 52.7846 4.50003 44.5003 4.50003Z" fill="url(#paint0_linear_4_16615)"/>
</g>
<path d="M19.395 5H44.6057C52.5559 5 59.0008 11.4449 59.0008 19.395V44.6057C59.0008 52.5559 52.5559 59.0008 44.6057 59.0008H19.395C11.4449 59.0008 5 52.5559 5 44.6057V19.395C5 11.4449 11.4449 5 19.395 5Z" fill="#232323" stroke="url(#paint1_linear_4_16615)"/>
<g opacity="0.5">
<path d="M19.4509 19.9733C19.1318 19.9657 18.8144 20.022 18.5174 20.1388C18.2204 20.2557 17.9498 20.4307 17.7215 20.6537C17.4931 20.8767 17.3117 21.1431 17.1878 21.4372C17.0639 21.7313 17 22.0472 17 22.3664V41.6286C16.9995 42.0491 17.1097 42.4623 17.3195 42.8266C17.5294 43.1909 17.8315 43.4935 18.1955 43.704C18.5594 43.9145 18.9724 44.0254 19.3928 44.0256C19.8133 44.0258 20.2264 43.9153 20.5905 43.7051L37.2714 34.0729C37.6349 33.8627 37.9368 33.5605 38.1466 33.1968C38.3564 32.833 38.4669 32.4205 38.4669 32.0006C38.4669 31.5806 38.3564 31.1681 38.1466 30.8043C37.9368 30.4406 37.6349 30.1384 37.2714 29.9282L20.5905 20.2982C20.2439 20.096 19.852 19.9844 19.4509 19.9733Z" fill="url(#paint2_linear_4_16615)"/>
<path d="M27.9821 19.9733C27.663 19.9657 27.3457 20.022 27.0487 20.1388C26.7517 20.2557 26.4811 20.4307 26.2527 20.6537C26.0244 20.8767 25.8429 21.1431 25.719 21.4372C25.5951 21.7313 25.5313 22.0472 25.5313 22.3664V41.6286C25.5307 42.0491 25.6409 42.4623 25.8508 42.8266C26.0606 43.1909 26.3628 43.4935 26.7267 43.704C27.0907 43.9145 27.5037 44.0254 27.9241 44.0256C28.3445 44.0258 28.7576 43.9153 29.1218 43.7051L45.8027 34.0729C46.1662 33.8627 46.468 33.5605 46.6778 33.1968C46.8877 32.833 46.9981 32.4205 46.9981 32.0006C46.9981 31.5806 46.8877 31.1681 46.6778 30.8043C46.468 30.4406 46.1662 30.1384 45.8027 29.9282L29.1218 20.2982C28.7751 20.096 28.3832 19.9844 27.9821 19.9733Z" fill="url(#paint3_linear_4_16615)"/>
<path d="M19.4509 19.9733C19.1318 19.9657 18.8144 20.022 18.5174 20.1388C18.2204 20.2557 17.9498 20.4308 17.7215 20.6537C17.4931 20.8767 17.3117 21.1431 17.1878 21.4372C17.0639 21.7313 17 22.0473 17 22.3664V41.6287C16.9995 42.0491 17.1097 42.4623 17.3195 42.8266C17.5294 43.1909 17.8315 43.4935 18.1955 43.704C18.5594 43.9145 18.9724 44.0254 19.3928 44.0256C19.8133 44.0258 20.2264 43.9153 20.5905 43.7051L25.5301 40.8535V41.6286C25.5295 42.0491 25.6397 42.4622 25.8496 42.8266C26.0595 43.1909 26.3616 43.4935 26.7255 43.704C27.0895 43.9145 27.5025 44.0254 27.9229 44.0256C28.3434 44.0258 28.7564 43.9152 29.1206 43.7051L45.8015 34.0729C46.165 33.8627 46.4668 33.5605 46.6767 33.1968C46.8865 32.833 46.997 32.4205 46.997 32.0005C46.997 31.5806 46.8865 31.1681 46.6767 30.8043C46.4668 30.4406 46.165 30.1384 45.8015 29.9282L29.1206 20.2981C28.7739 20.096 28.382 19.9843 27.9809 19.9732C27.6619 19.9656 27.3445 20.0219 27.0475 20.1388C26.7505 20.2556 26.4799 20.4307 26.2515 20.6536C26.0232 20.8766 25.8417 21.143 25.7178 21.4371C25.5939 21.7312 25.5301 22.0472 25.5301 22.3663V23.1498L20.5905 20.2981C20.2439 20.096 19.852 19.9844 19.4509 19.9733Z" fill="url(#paint4_linear_4_16615)"/>
<path d="M19.4509 19.9733C19.1318 19.9657 18.8144 20.022 18.5174 20.1388C18.2204 20.2557 17.9498 20.4308 17.7215 20.6537C17.4931 20.8767 17.3117 21.1431 17.1878 21.4372C17.0639 21.7313 17 22.0473 17 22.3664V41.6287C16.9995 42.0491 17.1097 42.4623 17.3195 42.8266C17.5294 43.1909 17.8315 43.4936 18.1955 43.704C18.5594 43.9145 18.9724 44.0254 19.3928 44.0256C19.8133 44.0258 20.2264 43.9153 20.5905 43.7051L25.5301 40.8535V41.6286C25.5295 42.0491 25.6397 42.4622 25.8496 42.8266C26.0595 43.1909 26.3616 43.4935 26.7255 43.704C27.0895 43.9145 27.5025 44.0254 27.9229 44.0256C28.3434 44.0258 28.7564 43.9152 29.1206 43.7051L45.8015 34.0729C46.165 33.8627 46.4668 33.5605 46.6767 33.1968C46.8865 32.833 46.997 32.4205 46.997 32.0005C46.997 31.5806 46.8865 31.1681 46.6767 30.8043C46.4668 30.4406 46.165 30.1384 45.8015 29.9282L29.1206 20.2981C28.7739 20.096 28.382 19.9843 27.9809 19.9732C27.6619 19.9656 27.3445 20.0219 27.0475 20.1388C26.7505 20.2556 26.4799 20.4307 26.2515 20.6536C26.0232 20.8766 25.8417 21.143 25.7178 21.4371C25.5939 21.7312 25.5301 22.0472 25.5301 22.3663V23.1498L20.5905 20.2981C20.2439 20.096 19.852 19.9844 19.4509 19.9733Z" fill="url(#paint5_linear_4_16615)"/>
</g>
<defs>
<filter id="filter0_f_4_16615" x="3.26249" y="3.26252" width="57.475" height="57.4754" filterUnits="userSpaceOnUse" color-interpolation-filters="sRGB">
<feFlood flood-opacity="0" result="BackgroundImageFix"/>
<feBlend mode="normal" in="SourceGraphic" in2="BackgroundImageFix" result="shape"/>
<feGaussianBlur stdDeviation="0.618754" result="effect1_foregroundBlur_4_16615"/>
</filter>
<linearGradient id="paint0_linear_4_16615" x1="4.5" y1="32.0002" x2="59.5004" y2="32.0002" gradientUnits="userSpaceOnUse">
<stop stop-color="#FDFC47"/>
<stop offset="1" stop-color="#24FE41"/>
</linearGradient>
<linearGradient id="paint1_linear_4_16615" x1="4.5" y1="32.0004" x2="59.5008" y2="32.0004" gradientUnits="userSpaceOnUse">
<stop stop-color="#FDFC47"/>
<stop offset="1" stop-color="#24FE41"/>
</linearGradient>
<linearGradient id="paint2_linear_4_16615" x1="17" y1="31.9991" x2="38.4669" y2="31.9991" gradientUnits="userSpaceOnUse">
<stop stop-color="#FDFC47"/>
<stop offset="1" stop-color="#24FE41"/>
</linearGradient>
<linearGradient id="paint3_linear_4_16615" x1="25.5312" y1="31.9991" x2="46.9981" y2="31.9991" gradientUnits="userSpaceOnUse">
<stop stop-color="#FDFC47"/>
<stop offset="1" stop-color="#24FE41"/>
</linearGradient>
<linearGradient id="paint4_linear_4_16615" x1="17" y1="31.9991" x2="46.997" y2="31.9991" gradientUnits="userSpaceOnUse">
<stop stop-color="#FDFC47"/>
<stop offset="1" stop-color="#24FE41"/>
</linearGradient>
<linearGradient id="paint5_linear_4_16615" x1="17" y1="31.9991" x2="46.997" y2="31.9991" gradientUnits="userSpaceOnUse">
<stop stop-color="#FDFC47"/>
<stop offset="1" stop-color="#24FE41"/>
</linearGradient>
</defs>
</svg>
