<svg width="64" height="64" viewBox="0 0 64 64" fill="none" xmlns="http://www.w3.org/2000/svg">
<g opacity="0.3" filter="url(#filter0_f_4_16623)">
<path d="M44.5003 4.49982H19.5001C11.2158 4.49982 4.5 11.2156 4.5 19.4999V44.5001C4.5 52.7844 11.2158 59.5002 19.5001 59.5002H44.5003C52.7846 59.5002 59.5004 52.7844 59.5004 44.5001V19.4999C59.5004 11.2156 52.7846 4.49982 44.5003 4.49982Z" fill="url(#paint0_linear_4_16623)"/>
</g>
<path d="M19.5001 4.9996H44.5007C52.5089 4.9996 59.0008 11.4915 59.0008 19.4997V44.5003C59.0008 52.5085 52.5089 59.0004 44.5007 59.0004H19.5001C11.4919 59.0004 5 52.5085 5 44.5003V19.4997C5 11.4915 11.4919 4.9996 19.5001 4.9996Z" fill="#232323" stroke="url(#paint1_linear_4_16623)"/>
<path d="M36.1673 17.7467C33.0157 17.6698 29.7208 19.2719 27.3752 22.9286C26.5324 22.4054 25.6825 21.8289 24.7804 21.8289C23.5129 21.8289 22.3063 22.2743 21.2852 22.9549C19.5745 24.0954 18.5602 26.009 18.6387 27.9814C16.7272 28.2218 15.1237 29.0623 14.1572 30.4141C13.0394 31.9774 12.6159 33.9795 12.8183 35.958C13.2231 39.9152 16.3429 43.9258 21.8058 43.9084C23.0138 43.9046 24.5409 43.9005 26.5451 43.9005C26.6816 43.9092 26.8184 43.8899 26.9471 43.8437C27.0758 43.7976 27.1936 43.7255 27.2934 43.6319C27.3931 43.5384 27.4726 43.4254 27.527 43.2999C27.5813 43.1744 27.6094 43.0391 27.6094 42.9024C27.6094 42.7657 27.5813 42.6304 27.527 42.5049C27.4726 42.3794 27.3931 42.2664 27.2934 42.1729C27.1936 42.0793 27.0758 42.0072 26.9471 41.9611C26.8184 41.9149 26.6816 41.8956 26.5451 41.9043C24.5408 41.9043 23.0153 41.9042 21.8017 41.9085C17.2843 41.9229 15.1258 38.8664 14.8075 35.7549C14.6484 34.1992 15.0023 32.6665 15.7812 31.577C16.5601 30.4876 17.7111 29.7869 19.4834 29.7869H20.8712L20.4327 28.4685C20.0447 27.3047 20.9054 25.6104 22.3927 24.619C23.1363 24.1232 23.9891 23.8289 24.7804 23.8289C25.5717 23.8289 26.3083 24.0794 27.0138 24.785L27.9514 25.7225L28.593 24.5643C31.3371 19.6248 35.4031 18.9886 38.6842 20.2567C41.9652 21.5245 44.2477 24.7495 43.2469 28.1073L42.8817 29.329L44.158 29.3915C45.9277 29.4763 47.1525 30.249 48.0049 31.414C48.8573 32.579 49.2887 34.1706 49.2227 35.7549C49.1568 37.3392 48.5989 38.8924 47.584 40.0217C46.5691 41.151 45.1175 41.9045 43.0145 41.9045C42.8813 41.9016 42.7489 41.9253 42.6249 41.9742C42.501 42.0231 42.3881 42.0963 42.2929 42.1895C42.1977 42.2826 42.122 42.3939 42.0703 42.5167C42.0187 42.6395 41.992 42.7714 41.992 42.9046C41.992 43.0378 42.0187 43.1697 42.0703 43.2925C42.122 43.4153 42.1977 43.5265 42.2929 43.6197C42.3881 43.7128 42.501 43.786 42.6249 43.8349C42.7489 43.8839 42.8813 43.9076 43.0145 43.9046C45.6174 43.9046 47.6959 42.8878 49.0713 41.3577C50.4465 39.8276 51.1397 37.8303 51.2227 35.8361C51.3058 33.8418 50.7826 31.8263 49.6172 30.2336C48.6357 28.892 47.0787 28.019 45.2401 27.6642C45.8707 23.5765 43.1688 19.8457 39.4078 18.3924C38.3889 17.9987 37.2907 17.7742 36.1673 17.7467ZM31.2501 24.2575C30.0616 24.2575 29.0733 25.2429 29.0733 26.4314V44.0783C29.0733 45.2668 30.0616 46.2561 31.2501 46.2561H38.3077C39.4962 46.2561 40.4855 45.2668 40.4855 44.0783V26.4314C40.4855 25.2429 39.4962 24.2575 38.3077 24.2575H31.2501ZM31.2501 26.2575H38.3077C38.4227 26.2575 38.4845 26.3163 38.4845 26.4314V44.0783C38.4845 44.1934 38.4228 44.2551 38.3077 44.2551H31.2501C31.135 44.2551 31.0733 44.1934 31.0733 44.0783V26.4314C31.0733 26.3163 31.135 26.2575 31.2501 26.2575ZM31.2501 31.7285V32.9014H34.7794V31.7285H31.2501ZM31.2501 34.0792V35.2569H37.13V34.0792H31.2501ZM31.2501 36.4337V37.6076H37.13V36.4337H31.2501ZM31.2501 38.7853V39.9631H37.13V38.7853H31.2501Z" fill="url(#paint2_linear_4_16623)"/>
<defs>
<filter id="filter0_f_4_16623" x="3.26249" y="3.26231" width="57.475" height="57.4754" filterUnits="userSpaceOnUse" color-interpolation-filters="sRGB">
<feFlood flood-opacity="0" result="BackgroundImageFix"/>
<feBlend mode="normal" in="SourceGraphic" in2="BackgroundImageFix" result="shape"/>
<feGaussianBlur stdDeviation="0.618754" result="effect1_foregroundBlur_4_16623"/>
</filter>
<linearGradient id="paint0_linear_4_16623" x1="4.5" y1="32" x2="59.5004" y2="32" gradientUnits="userSpaceOnUse">
<stop stop-color="#FDFC47"/>
<stop offset="1" stop-color="#24FE41"/>
</linearGradient>
<linearGradient id="paint1_linear_4_16623" x1="4.5" y1="32" x2="59.5008" y2="32" gradientUnits="userSpaceOnUse">
<stop stop-color="#FDFC47"/>
<stop offset="1" stop-color="#24FE41"/>
</linearGradient>
<linearGradient id="paint2_linear_4_16623" x1="12.7695" y1="32.0001" x2="51.2312" y2="32.0001" gradientUnits="userSpaceOnUse">
<stop stop-color="#FDFC47"/>
<stop offset="1" stop-color="#24FE41"/>
</linearGradient>
</defs>
</svg>
