<svg width="64" height="64" viewBox="0 0 64 64" fill="none" xmlns="http://www.w3.org/2000/svg">
<g opacity="0.3" filter="url(#filter0_f_4_16340)">
<path d="M44.5 4.49979H19.5C11.2157 4.49979 4.5 11.2155 4.5 19.4998V44.4998C4.5 52.7841 11.2157 59.4998 19.5 59.4998H44.5C52.7843 59.4998 59.5 52.7841 59.5 44.4998V19.4998C59.5 11.2155 52.7843 4.49979 44.5 4.49979Z" fill="url(#paint0_linear_4_16340)"/>
</g>
<path d="M19.5 4.99979H44.501C52.5091 4.99979 59.001 11.4917 59.001 19.4998V44.5008C59.001 52.5089 52.5091 59.0008 44.501 59.0008H19.5C11.4919 59.0008 5 52.5089 5 44.5008V19.4998C5 11.4917 11.4919 4.99979 19.5 4.99979Z" fill="#232323" stroke="url(#paint1_linear_4_16340)"/>
<path d="M43.1725 43.6744C41.9289 44.3196 40.6326 44.8065 39.2835 45.1349C37.9343 45.4634 36.5267 45.6277 35.0602 45.6277C30.6844 45.6277 27.2177 44.4076 24.6604 41.9675C22.1029 39.5157 20.8242 36.1957 20.8242 32.0077C20.8242 27.808 22.1029 24.488 24.6604 22.0479C27.2177 19.596 30.6844 18.3701 35.0602 18.3701C36.5265 18.3702 37.9344 18.5344 39.2835 18.8629C40.6325 19.1914 41.9288 19.6782 43.1725 20.3234V25.7609C41.9172 24.9046 40.6795 24.277 39.4595 23.8781C38.2394 23.4792 36.9548 23.2798 35.6057 23.2798C33.1891 23.2798 31.2886 24.054 29.9043 25.6026C28.52 27.1511 27.8278 29.2863 27.8279 32.0079C27.8279 34.7179 28.52 36.847 29.9043 38.3956C31.2886 39.9441 33.1891 40.7184 35.6057 40.7184C36.9548 40.7184 38.2395 40.519 39.4595 40.1201C40.6795 39.7213 41.9172 39.0936 43.1725 38.2372V43.6744Z" fill="url(#paint2_linear_4_16340)"/>
<defs>
<filter id="filter0_f_4_16340" x="3.2625" y="3.26229" width="57.475" height="57.475" filterUnits="userSpaceOnUse" color-interpolation-filters="sRGB">
<feFlood flood-opacity="0" result="BackgroundImageFix"/>
<feBlend mode="normal" in="SourceGraphic" in2="BackgroundImageFix" result="shape"/>
<feGaussianBlur stdDeviation="0.61875" result="effect1_foregroundBlur_4_16340"/>
</filter>
<linearGradient id="paint0_linear_4_16340" x1="4.5" y1="31.9998" x2="59.5" y2="31.9998" gradientUnits="userSpaceOnUse">
<stop stop-color="#FDFC47"/>
<stop offset="1" stop-color="#24FE41"/>
</linearGradient>
<linearGradient id="paint1_linear_4_16340" x1="4.5" y1="32.0003" x2="59.501" y2="32.0003" gradientUnits="userSpaceOnUse">
<stop stop-color="#FDFC47"/>
<stop offset="1" stop-color="#24FE41"/>
</linearGradient>
<linearGradient id="paint2_linear_4_16340" x1="20.8242" y1="31.9989" x2="43.1725" y2="31.9989" gradientUnits="userSpaceOnUse">
<stop stop-color="#FDFC47"/>
<stop offset="1" stop-color="#24FE41"/>
</linearGradient>
</defs>
</svg>
