<svg width="64" height="64" viewBox="0 0 64 64" fill="none" xmlns="http://www.w3.org/2000/svg">
<g opacity="0.3" filter="url(#filter0_f_4_16263)">
<path d="M44.5003 4.50003H19.5001C11.2158 4.50003 4.5 11.2158 4.5 19.5001V44.5003C4.5 52.7846 11.2158 59.5004 19.5001 59.5004H44.5003C52.7846 59.5004 59.5004 52.7846 59.5004 44.5003V19.5001C59.5004 11.2158 52.7846 4.50003 44.5003 4.50003Z" fill="#232323"/>
<path d="M19.5001 5.00003H44.5003C52.5085 5.00003 59.0004 11.4919 59.0004 19.5001V44.5003C59.0004 52.5085 52.5085 59.0004 44.5003 59.0004H19.5001C11.4919 59.0004 5 52.5085 5 44.5003V19.5001C5 11.4919 11.4919 5.00003 19.5001 5.00003Z" stroke="url(#paint0_linear_4_16263)"/>
</g>
<path d="M19.5001 4.99771H44.5007C52.5089 4.99771 59.0008 11.4896 59.0008 19.4978V44.4984C59.0008 52.5066 52.5089 58.9985 44.5007 58.9985H19.5001C11.4919 58.9985 5 52.5066 5 44.4984V19.4978C5 11.4896 11.4919 4.99771 19.5001 4.99771Z" fill="#232323" stroke="url(#paint1_linear_4_16263)"/>
<path d="M14.334 58.0498C12.2439 57.2558 10.3925 55.9911 8.89624 54.3853V51.3145V50.8145H8.39624H6.4484C6.3902 50.6973 6.33367 50.5807 6.27934 50.464L10.8184 47.4375L11.041 47.289V47.0215V44.8769V43.9425L10.2636 44.4609L5.36928 47.7244C5.36715 47.7151 5.36504 47.7058 5.36294 47.6964C5.29162 47.0677 5.22736 46.4215 5.17987 45.7277L15.0096 37.8651L47.8911 37.8648L49.8892 39.8647L50.0357 40.0114H50.2429H52.1464L58.5311 48.1361C57.1138 53.6567 52.5508 57.8756 46.8431 58.7962C45.0034 58.944 42.8988 59.0001 40.475 59.0001H23.5295C21.6962 59.0001 20.0465 58.9678 18.5529 58.889V48.3297L24.8108 43.1141L25.8715 42.23H24.4907H21.2718H21.0908L20.9517 42.3459L14.5139 47.7115L14.334 47.8614V48.0955V58.0498Z" fill="#232323" stroke="url(#paint2_linear_4_16263)"/>
<path d="M6.60336 17.3303L6.75002 17.1838V16.9766V12.5806C8.83966 8.72215 12.6298 5.94351 17.1293 5.20735C18.9794 5.05778 21.0884 4.99771 23.53 4.99771L40.4735 4.9979C42.9453 4.9979 45.0688 5.06346 46.9352 5.21714C48.7212 5.51713 50.3907 6.1384 51.8879 7.02403V10.3471L43.43 19.8634L42.6904 20.6956H43.8037H47.0225H47.2471L47.3962 20.5277L55.1067 11.8524V14.83V15.33H55.6067H58.3871C58.394 15.3541 58.4008 15.3782 58.4076 15.4023H55.6067H55.3798L55.2304 15.5731L47.8698 23.9866H7.52944L5.036 21.4931C5.05907 20.5344 5.0969 19.6402 5.14617 18.7858L6.60336 17.3303Z" fill="#232323" stroke="url(#paint3_linear_4_16263)"/>
<path d="M54.5 53.5003C54.5 54.0526 54.0523 54.5003 53.5 54.5003C52.9477 54.5003 52.5 54.0525 52.5 53.5003C52.5 52.948 52.9477 52.5002 53.5 52.5002C54.0523 52.5002 54.5 52.948 54.5 53.5003Z" fill="url(#paint4_linear_4_16263)" stroke="url(#paint5_linear_4_16263)"/>
<path d="M53.5 53.5003L53.5 53.5003L53.5 53.5003L53.5 53.5003L53.5 53.5003Z" fill="url(#paint6_linear_4_16263)" stroke="url(#paint7_linear_4_16263)"/>
<path d="M54.5 10.4997C54.5 11.052 54.0523 11.4997 53.5 11.4997C52.9477 11.4997 52.5 11.052 52.5 10.4997C52.5 9.94745 52.9477 9.49973 53.5 9.49973C54.0523 9.49973 54.5 9.94744 54.5 10.4997Z" fill="url(#paint8_linear_4_16263)" stroke="url(#paint9_linear_4_16263)"/>
<path d="M53.5 10.4997L53.5 10.4997L53.5 10.4997L53.5 10.4997L53.5 10.4997Z" fill="url(#paint10_linear_4_16263)" stroke="url(#paint11_linear_4_16263)"/>
<path d="M11.5 53.5003C11.5 54.0526 11.0523 54.5003 10.5 54.5003C9.94772 54.5003 9.5 54.0526 9.5 53.5003C9.5 52.948 9.94772 52.5002 10.5 52.5002C11.0523 52.5002 11.5 52.948 11.5 53.5003Z" fill="url(#paint12_linear_4_16263)" stroke="url(#paint13_linear_4_16263)"/>
<path d="M10.5 53.5003L10.5 53.5003L10.5 53.5003L10.5 53.5003L10.5 53.5003Z" fill="url(#paint14_linear_4_16263)" stroke="url(#paint15_linear_4_16263)"/>
<path d="M21.5 22.4973H22.5001V41.4978H21.5V22.4973ZM25.5 22.4973H26.5V41.4978H25.5V22.4973ZM29.4999 22.4973H30.5V41.4978H29.4999V22.4973ZM33.4999 22.4973H34.4999V41.4978H33.4999V22.4973ZM37.4998 22.4973H38.4999V41.4978H37.4998V22.4973ZM41.4998 22.4973H42.4998V41.4978H41.4998V22.4973Z" fill="#232323" stroke="url(#paint16_linear_4_16263)"/>
<path d="M19 24.5005H45.0004C45.2766 24.5005 45.5004 24.7243 45.5004 25.0005V39.0006C45.5004 39.2768 45.2766 39.5006 45.0004 39.5006H19C18.7239 39.5006 18.5 39.2768 18.5 39.0006V25.0005C18.5 24.7243 18.7239 24.5005 19 24.5005Z" fill="url(#paint17_linear_4_16263)" stroke="url(#paint18_linear_4_16263)"/>
<path d="M11 13.498H26.0003C26.2764 13.498 26.5003 13.7219 26.5003 13.9981V17.9982C26.5003 18.2743 26.2764 18.4982 26.0003 18.4982H11C10.7239 18.4982 10.5 18.2743 10.5 17.9982V13.9981C10.5 13.7219 10.7239 13.498 11 13.498Z" fill="url(#paint19_linear_4_16263)" stroke="url(#paint20_linear_4_16263)"/>
<path d="M38 44.4984H53.0003C53.2764 44.4984 53.5003 44.7222 53.5003 44.9984V48.9985C53.5003 49.2746 53.2764 49.4985 53.0003 49.4985H38C37.7239 49.4985 37.5 49.2746 37.5 48.9985V44.9984C37.5 44.7222 37.7239 44.4984 38 44.4984Z" fill="url(#paint21_linear_4_16263)" stroke="url(#paint22_linear_4_16263)"/>
<path d="M38.5 45.4999V45.4999H46.5L38.5 45.4999Z" fill="#232323" stroke="#232323"/>
<path d="M38.5 47.4994H42.5V47.4994H38.5V47.4994Z" fill="#232323" stroke="#232323"/>
<path d="M52.0658 48.4988H49.9343L51 46.9001L52.0658 48.4988Z" fill="#232323" stroke="#232323"/>
<path d="M11.5 10.4997C11.5 11.052 11.0523 11.4997 10.5 11.4997C9.94772 11.4997 9.5 11.052 9.5 10.4997C9.5 9.94744 9.94772 9.49973 10.5 9.49973C11.0523 9.49973 11.5 9.94744 11.5 10.4997Z" fill="#232323" stroke="url(#paint23_linear_4_16263)"/>
<path d="M10.5 10.4997L10.5 10.4997L10.5 10.4997L10.5 10.4997L10.5 10.4997Z" fill="url(#paint24_linear_4_16263)" stroke="url(#paint25_linear_4_16263)"/>
<path opacity="0.5" d="M11.5 14.4996V14.4996H14.5V14.4996H11.5Z" fill="#232323" stroke="#232323"/>
<path opacity="0.5" d="M11.5 16.4991V16.4991H18.5003V16.4991H11.5Z" fill="#232323" stroke="#232323"/>
<path opacity="0.5" d="M22.5 17.4991V16.4991H24.5001V17.4991H22.5Z" fill="#232323" stroke="#232323"/>
<path opacity="0.75" d="M36.6002 26.4999L32.8541 31.5411L32.6328 31.8389L32.8536 32.137L36.8269 37.5001H35.7464L32.4034 32.9882L32.0016 32.4459L31.5999 32.9882L28.2568 37.5001H27.1774L31.2457 32.0195L31.4674 31.7208L31.2451 31.4226L27.576 26.4999H28.6536L31.6858 30.5735L32.0869 31.1124L32.488 30.5735L35.5202 26.4999H36.6002Z" fill="#232323" stroke="#232323"/>
<defs>
<filter id="filter0_f_4_16263" x="3.26249" y="3.26252" width="57.475" height="57.4754" filterUnits="userSpaceOnUse" color-interpolation-filters="sRGB">
<feFlood flood-opacity="0" result="BackgroundImageFix"/>
<feBlend mode="normal" in="SourceGraphic" in2="BackgroundImageFix" result="shape"/>
<feGaussianBlur stdDeviation="0.618754" result="effect1_foregroundBlur_4_16263"/>
</filter>
<linearGradient id="paint0_linear_4_16263" x1="4.5" y1="32.0002" x2="59.5004" y2="32.0002" gradientUnits="userSpaceOnUse">
<stop stop-color="#FDFC47"/>
<stop offset="1" stop-color="#24FE41"/>
</linearGradient>
<linearGradient id="paint1_linear_4_16263" x1="4.5" y1="31.9981" x2="59.5008" y2="31.9981" gradientUnits="userSpaceOnUse">
<stop stop-color="#FDFC47"/>
<stop offset="1" stop-color="#24FE41"/>
</linearGradient>
<linearGradient id="paint2_linear_4_16263" x1="4.66406" y1="48.4325" x2="59.0751" y2="48.4325" gradientUnits="userSpaceOnUse">
<stop stop-color="#FDFC47"/>
<stop offset="1" stop-color="#24FE41"/>
</linearGradient>
<linearGradient id="paint3_linear_4_16263" x1="4.53125" y1="14.4921" x2="59.0541" y2="14.4921" gradientUnits="userSpaceOnUse">
<stop stop-color="#FDFC47"/>
<stop offset="1" stop-color="#24FE41"/>
</linearGradient>
<linearGradient id="paint4_linear_4_16263" x1="52" y1="53.5003" x2="55" y2="53.5003" gradientUnits="userSpaceOnUse">
<stop stop-color="#FDFC47"/>
<stop offset="1" stop-color="#24FE41"/>
</linearGradient>
<linearGradient id="paint5_linear_4_16263" x1="52" y1="53.5003" x2="55" y2="53.5003" gradientUnits="userSpaceOnUse">
<stop stop-color="#FDFC47"/>
<stop offset="1" stop-color="#24FE41"/>
</linearGradient>
<linearGradient id="paint6_linear_4_16263" x1="53" y1="53.5003" x2="54" y2="53.5003" gradientUnits="userSpaceOnUse">
<stop stop-color="#FDFC47"/>
<stop offset="1" stop-color="#24FE41"/>
</linearGradient>
<linearGradient id="paint7_linear_4_16263" x1="53" y1="53.5003" x2="54" y2="53.5003" gradientUnits="userSpaceOnUse">
<stop stop-color="#FDFC47"/>
<stop offset="1" stop-color="#24FE41"/>
</linearGradient>
<linearGradient id="paint8_linear_4_16263" x1="52" y1="10.4997" x2="55" y2="10.4997" gradientUnits="userSpaceOnUse">
<stop stop-color="#FDFC47"/>
<stop offset="1" stop-color="#24FE41"/>
</linearGradient>
<linearGradient id="paint9_linear_4_16263" x1="52" y1="10.4997" x2="55" y2="10.4997" gradientUnits="userSpaceOnUse">
<stop stop-color="#FDFC47"/>
<stop offset="1" stop-color="#24FE41"/>
</linearGradient>
<linearGradient id="paint10_linear_4_16263" x1="53" y1="10.4997" x2="54" y2="10.4997" gradientUnits="userSpaceOnUse">
<stop stop-color="#FDFC47"/>
<stop offset="1" stop-color="#24FE41"/>
</linearGradient>
<linearGradient id="paint11_linear_4_16263" x1="53" y1="10.4997" x2="54" y2="10.4997" gradientUnits="userSpaceOnUse">
<stop stop-color="#FDFC47"/>
<stop offset="1" stop-color="#24FE41"/>
</linearGradient>
<linearGradient id="paint12_linear_4_16263" x1="9" y1="53.5003" x2="12" y2="53.5003" gradientUnits="userSpaceOnUse">
<stop stop-color="#FDFC47"/>
<stop offset="1" stop-color="#24FE41"/>
</linearGradient>
<linearGradient id="paint13_linear_4_16263" x1="9" y1="53.5003" x2="12" y2="53.5003" gradientUnits="userSpaceOnUse">
<stop stop-color="#FDFC47"/>
<stop offset="1" stop-color="#24FE41"/>
</linearGradient>
<linearGradient id="paint14_linear_4_16263" x1="10" y1="53.5003" x2="11" y2="53.5003" gradientUnits="userSpaceOnUse">
<stop stop-color="#FDFC47"/>
<stop offset="1" stop-color="#24FE41"/>
</linearGradient>
<linearGradient id="paint15_linear_4_16263" x1="10" y1="53.5003" x2="11" y2="53.5003" gradientUnits="userSpaceOnUse">
<stop stop-color="#FDFC47"/>
<stop offset="1" stop-color="#24FE41"/>
</linearGradient>
<linearGradient id="paint16_linear_4_16263" x1="21" y1="31.9975" x2="42.9998" y2="31.9975" gradientUnits="userSpaceOnUse">
<stop stop-color="#FDFC47"/>
<stop offset="1" stop-color="#24FE41"/>
</linearGradient>
<linearGradient id="paint17_linear_4_16263" x1="18" y1="32.0006" x2="46.0004" y2="32.0006" gradientUnits="userSpaceOnUse">
<stop stop-color="#FDFC47"/>
<stop offset="1" stop-color="#24FE41"/>
</linearGradient>
<linearGradient id="paint18_linear_4_16263" x1="18" y1="32.0006" x2="46.0004" y2="32.0006" gradientUnits="userSpaceOnUse">
<stop stop-color="#FDFC47"/>
<stop offset="1" stop-color="#24FE41"/>
</linearGradient>
<linearGradient id="paint19_linear_4_16263" x1="10" y1="15.9981" x2="27.0003" y2="15.9981" gradientUnits="userSpaceOnUse">
<stop stop-color="#FDFC47"/>
<stop offset="1" stop-color="#24FE41"/>
</linearGradient>
<linearGradient id="paint20_linear_4_16263" x1="10" y1="15.9981" x2="27.0003" y2="15.9981" gradientUnits="userSpaceOnUse">
<stop stop-color="#FDFC47"/>
<stop offset="1" stop-color="#24FE41"/>
</linearGradient>
<linearGradient id="paint21_linear_4_16263" x1="37" y1="46.9984" x2="54.0003" y2="46.9984" gradientUnits="userSpaceOnUse">
<stop stop-color="#FDFC47"/>
<stop offset="1" stop-color="#24FE41"/>
</linearGradient>
<linearGradient id="paint22_linear_4_16263" x1="37" y1="46.9984" x2="54.0003" y2="46.9984" gradientUnits="userSpaceOnUse">
<stop stop-color="#FDFC47"/>
<stop offset="1" stop-color="#24FE41"/>
</linearGradient>
<linearGradient id="paint23_linear_4_16263" x1="9" y1="10.4997" x2="12" y2="10.4997" gradientUnits="userSpaceOnUse">
<stop stop-color="#FDFC47"/>
<stop offset="1" stop-color="#24FE41"/>
</linearGradient>
<linearGradient id="paint24_linear_4_16263" x1="10" y1="10.4997" x2="11" y2="10.4997" gradientUnits="userSpaceOnUse">
<stop stop-color="#FDFC47"/>
<stop offset="1" stop-color="#24FE41"/>
</linearGradient>
<linearGradient id="paint25_linear_4_16263" x1="10" y1="10.4997" x2="11" y2="10.4997" gradientUnits="userSpaceOnUse">
<stop stop-color="#FDFC47"/>
<stop offset="1" stop-color="#24FE41"/>
</linearGradient>
</defs>
</svg>
