<svg width="64" height="64" viewBox="0 0 64 64" fill="none" xmlns="http://www.w3.org/2000/svg">
<g clip-path="url(#clip0_4_16240)">
<g opacity="0.3" filter="url(#filter0_f_4_16240)">
<path d="M44.5 4.5H19.5C11.2157 4.5 4.5 11.2157 4.5 19.5V44.5C4.5 52.7843 11.2157 59.5 19.5 59.5H44.5C52.7843 59.5 59.5 52.7843 59.5 44.5V19.5C59.5 11.2157 52.7843 4.5 44.5 4.5Z" fill="url(#paint0_linear_4_16240)"/>
</g>
<path d="M19.5 5H44.5C52.5081 5 59 11.4919 59 19.5V44.5C59 52.5081 52.5081 59 44.5 59H19.5C11.4919 59 5 52.5081 5 44.5V19.5C5 11.4919 11.4919 5 19.5 5Z" fill="#232323" stroke="url(#paint1_linear_4_16240)"/>
<path opacity="0.5" d="M19.3751 23.5467C17.7837 23.5467 16.2576 24.1788 15.1323 25.3041C14.0071 26.4293 13.3749 27.9555 13.3749 29.5468C13.3761 30.1161 13.4584 30.6823 13.6191 31.2284C12.6839 31.5002 11.862 32.0682 11.2771 32.8469C10.6921 33.6256 10.3756 34.5731 10.375 35.547C10.375 36.7405 10.8491 37.8851 11.693 38.729C12.5369 39.5729 13.6815 40.047 14.875 40.047H30.625C31.6195 40.047 32.5734 39.6519 33.2767 38.9486C33.9799 38.2454 34.375 37.2915 34.375 36.297C34.3738 35.3855 34.0406 34.5056 33.4378 33.8219C32.835 33.1382 32.0038 32.6975 31.0996 32.5821C31.28 32.0903 31.3732 31.5708 31.375 31.0469C31.375 29.8535 30.9009 28.7089 30.0569 27.865C29.213 27.021 28.0684 26.5469 26.875 26.5469C26.1607 26.5483 25.4571 26.7197 24.8223 27.0469C24.3441 26.0037 23.5768 25.1195 22.6113 24.4991C21.6458 23.8788 20.5227 23.5481 19.3751 23.5467Z" fill="url(#paint2_linear_4_16240)"/>
<g filter="url(#filter1_f_4_16240)">
<path d="M40.0077 20.9996C38.4776 21.0012 36.9799 21.4417 35.6925 22.2687C34.405 23.0957 33.3818 24.2746 32.7441 25.6656C31.8977 25.2296 30.9598 25.0013 30.0078 24.9995C28.4164 24.9995 26.8903 25.6317 25.765 26.7569C24.6398 27.8822 24.0077 29.4083 24.0077 30.9997C24.0094 31.698 24.1329 32.3907 24.3729 33.0465C23.1677 33.2008 22.0599 33.7887 21.2566 34.7003C20.4533 35.6118 20.0094 36.7847 20.0078 37.9997C20.0078 39.3258 20.5346 40.5976 21.4723 41.5353C22.41 42.473 23.6818 42.9998 25.0079 42.9998H46.0077C47.599 42.9998 49.1252 42.3676 50.2504 41.2424C51.3757 40.1171 52.0078 38.591 52.0078 36.9996C52.0069 35.701 51.5848 34.4377 50.8047 33.3995C50.0246 32.3612 48.9288 31.6041 47.6817 31.2418C47.8962 30.5137 48.0061 29.7587 48.0079 28.9996C48.0079 26.8779 47.165 24.8431 45.6647 23.3428C44.1645 21.8426 42.1294 20.9996 40.0077 20.9996Z" fill="url(#paint3_linear_4_16240)"/>
</g>
<path d="M40.3749 20.0468C38.8447 20.0484 37.3471 20.4888 36.0597 21.3158C34.7722 22.1428 33.749 23.3217 33.1113 24.7127C32.2649 24.2767 31.327 24.0484 30.375 24.0467C28.7836 24.0467 27.2575 24.6788 26.1322 25.8041C25.007 26.9293 24.3748 28.4554 24.3748 30.0468C24.3765 30.7451 24.5001 31.4378 24.7401 32.0937C23.5349 32.248 22.4271 32.8359 21.6238 33.7474C20.8205 34.659 20.3766 35.8319 20.375 37.0469C20.375 37.7035 20.5043 38.3537 20.7556 38.9603C21.0069 39.5669 21.3752 40.1181 21.8395 40.5824C22.3038 41.0467 22.855 41.415 23.4616 41.6663C24.0682 41.9176 24.7184 42.0469 25.375 42.0469H46.3753C47.1632 42.0469 47.9434 41.8917 48.6714 41.5902C49.3994 41.2886 50.0608 40.8467 50.618 40.2895C51.1752 39.7323 51.6171 39.0709 51.9187 38.3429C52.2202 37.615 52.3754 36.8347 52.3754 36.0468C52.3745 34.7481 51.9523 33.4848 51.1723 32.4466C50.3922 31.4084 49.2963 30.6512 48.0492 30.2889C48.2638 29.5608 48.3736 28.8058 48.3754 28.0467C48.3754 25.925 47.5326 23.8902 46.0323 22.3899C44.532 20.8897 42.4966 20.0468 40.3749 20.0468Z" fill="url(#paint4_linear_4_16240)"/>
</g>
<defs>
<filter id="filter0_f_4_16240" x="3.2625" y="3.2625" width="57.475" height="57.475" filterUnits="userSpaceOnUse" color-interpolation-filters="sRGB">
<feFlood flood-opacity="0" result="BackgroundImageFix"/>
<feBlend mode="normal" in="SourceGraphic" in2="BackgroundImageFix" result="shape"/>
<feGaussianBlur stdDeviation="0.61875" result="effect1_foregroundBlur_4_16240"/>
</filter>
<filter id="filter1_f_4_16240" x="18.6578" y="19.6496" width="34.7" height="24.7001" filterUnits="userSpaceOnUse" color-interpolation-filters="sRGB">
<feFlood flood-opacity="0" result="BackgroundImageFix"/>
<feBlend mode="normal" in="SourceGraphic" in2="BackgroundImageFix" result="shape"/>
<feGaussianBlur stdDeviation="0.675" result="effect1_foregroundBlur_4_16240"/>
</filter>
<linearGradient id="paint0_linear_4_16240" x1="4.5" y1="32" x2="59.5" y2="32" gradientUnits="userSpaceOnUse">
<stop stop-color="#FDFC47"/>
<stop offset="1" stop-color="#24FE41"/>
</linearGradient>
<linearGradient id="paint1_linear_4_16240" x1="4.5" y1="32" x2="59.5" y2="32" gradientUnits="userSpaceOnUse">
<stop stop-color="#FDFC47"/>
<stop offset="1" stop-color="#24FE41"/>
</linearGradient>
<linearGradient id="paint2_linear_4_16240" x1="10.375" y1="31.7968" x2="34.375" y2="31.7968" gradientUnits="userSpaceOnUse">
<stop stop-color="#FDFC47"/>
<stop offset="1" stop-color="#24FE41"/>
</linearGradient>
<linearGradient id="paint3_linear_4_16240" x1="20.0078" y1="31.9997" x2="52.0078" y2="31.9997" gradientUnits="userSpaceOnUse">
<stop stop-color="#FDFC47"/>
<stop offset="1" stop-color="#24FE41"/>
</linearGradient>
<linearGradient id="paint4_linear_4_16240" x1="20.375" y1="31.0468" x2="52.3754" y2="31.0468" gradientUnits="userSpaceOnUse">
<stop stop-color="#FDFC47"/>
<stop offset="1" stop-color="#24FE41"/>
</linearGradient>
<clipPath id="clip0_4_16240">
<rect width="64" height="64" fill="white"/>
</clipPath>
</defs>
</svg>
