<svg width="64" height="64" viewBox="0 0 64 64" fill="none" xmlns="http://www.w3.org/2000/svg">
<g opacity="0.3" filter="url(#filter0_f_4_16193)">
<path d="M44.5003 4.50003H19.5001C11.2158 4.50003 4.5 11.2158 4.5 19.5001V44.5003C4.5 52.7846 11.2158 59.5004 19.5001 59.5004H44.5003C52.7846 59.5004 59.5004 52.7846 59.5004 44.5003V19.5001C59.5004 11.2158 52.7846 4.50003 44.5003 4.50003Z" fill="url(#paint0_linear_4_16193)"/>
</g>
<path d="M19.5005 5.0015H44.5003C52.5087 5.0015 59.0008 11.4936 59.0008 19.502V44.5018C59.0008 52.5102 52.5087 59.0023 44.5003 59.0023H19.5005C11.4921 59.0023 5 52.5102 5 44.5018V19.502C5 11.4936 11.4921 5.0015 19.5005 5.0015Z" fill="#232323" stroke="url(#paint1_linear_4_16193)"/>
<path d="M48.4857 25.9659C48.6062 27.0506 48.3969 28.1798 48.5175 29.2836C48.6443 30.4825 48.4794 31.7449 48.2637 32.9248C48.2384 31.9669 48.2129 30.9964 48.1622 30.0575C48.1115 29.0679 47.7182 28.0529 47.4517 27.0887C47.7372 29.1187 47.8641 31.1741 47.9148 33.2102C47.9529 34.7834 47.9592 36.42 47.6991 37.9551C47.4454 39.4522 46.6651 40.9556 46.1767 42.3447C45.4535 44.4 45.6819 47.1467 45.5106 49.405C45.5106 49.405 45.3393 49.7983 45.0475 47.8825C44.6542 45.2943 45.0729 42.4588 45.1236 39.8263V39.7629C45.1236 39.7311 45.1173 39.6741 45.1173 39.6741C45.1173 39.6741 45.0349 39.9151 45.0222 39.9849C45.0159 40.0102 45.0031 40.0801 45.0031 40.0991V40.1055C44.9968 40.1373 44.9904 40.1753 44.9841 40.2197C44.9778 40.245 44.9778 40.2641 44.9714 40.2895C44.9651 40.3339 44.9523 40.391 44.946 40.4417C44.9397 40.467 44.9333 40.4988 44.9333 40.5242C44.8953 40.7335 44.8445 40.9936 44.7811 41.3044C44.4702 42.7952 44.2482 44.305 44.0389 45.8086C44.0326 45.8403 44.0326 45.8657 44.0262 45.8974C43.8549 46.9378 43.5314 47.3818 42.8907 48.1114C42.2119 48.8853 41.3936 49.8559 40.4738 50.4014C40.4484 50.4203 40.4103 50.4395 40.3723 50.4648C39.1416 51.3022 37.9997 52.3616 36.712 53.0594C36.6232 53.1101 36.5915 53.1101 36.6486 53.0465C36.693 52.9958 36.7374 52.9514 36.7818 52.9006C37.1116 52.5454 37.4288 52.1521 37.6445 51.7524L37.6635 51.7144C38.374 50.268 39.0147 48.7519 39.6554 47.2612C39.6554 47.2612 39.4778 47.5277 39.2558 47.8448C38.9766 48.2382 38.6087 48.7203 38.4564 48.9042C37.2512 50.3633 36.4011 52.482 35.1387 53.8714C34.682 54.3725 33.9017 54.5628 33.3879 55.0513C32.9058 55.508 32.2144 55.8062 31.5863 55.914C30.5714 56.0853 29.4929 56.707 28.4589 57.0876C28.4589 57.0876 29.0679 56.3581 29.512 55.7808C30.4381 54.5628 31.2945 53.2814 32.0748 51.9555C32.0558 51.9683 31.5293 52.3995 31.1867 53.1417C30.5904 54.4549 29.0997 55.4381 28.0657 56.4532C27.3044 57.2017 26.2324 57.6394 25.1984 57.8614C23.4538 57.7917 21.6777 57.6014 19.984 57.1827C18.5757 56.8274 16.0067 56.0091 15.4927 55.0385C15.4229 54.899 15.3912 54.3407 15.683 53.8079C16.1905 52.8817 17.2118 52.1141 17.8335 51.2133C19.0007 49.5069 20.6691 46.9185 22.3501 45.9102C23.2826 45.3519 24.5323 45.0157 25.6235 44.5716C26.1246 44.4003 26.3657 44.3116 26.8604 44.1276C25.6298 44.4004 24.4435 44.8634 23.2699 45.3075C23.2699 45.3075 23.2762 45.3203 23.9043 44.4828C24.6021 43.5567 25.5219 42.7891 26.3339 41.9771C27.7612 40.5498 31.2376 38.2407 31.2376 38.2407C31.2376 38.2407 29.3916 39.3445 28.4273 39.3572C27.8437 39.3636 27.2728 39.7061 26.7907 40.0106C27.387 39.3381 28.0277 38.6848 28.6431 38.0377C29.8864 36.7182 31.5928 35.773 33.1155 34.7834C32.3606 34.942 31.5232 34.8659 30.7683 34.7517C32.202 33.8509 33.5976 32.8296 34.7966 31.656C37.7464 28.757 39.1991 24.5069 41.4827 21.151C42.5294 19.6158 43.9758 18.2773 45.3651 17.0214C45.3651 17.0214 46.2913 17.1609 46.4309 17.6938C46.7734 19.0196 47.357 20.3391 47.8074 21.6586C48.2769 23.0098 48.3271 24.545 48.4857 25.9659Z" fill="url(#paint2_linear_4_16193)"/>
<path d="M43.9108 32.1757C43.7458 32.2392 44.6593 35.7535 44.9511 37.3459C45.0907 38.1071 45.1922 38.9 45.1224 39.674C45.1224 39.674 45.04 39.915 45.0273 39.9848C45.021 40.0101 45.0082 40.08 45.0082 40.099V40.1054C45.0019 40.1435 44.9955 40.1752 44.9892 40.2196C44.9829 40.2449 44.9829 40.264 44.9765 40.2894C44.9702 40.3338 44.9575 40.3909 44.9511 40.4416C44.9448 40.4669 44.9385 40.4987 44.9385 40.5241C44.9004 40.7334 44.8496 40.9935 44.7862 41.3043C44.4754 42.7951 44.2534 44.3049 44.044 45.8085C44.0377 45.8402 44.0377 45.8656 44.0313 45.8973C43.86 46.9377 43.5365 47.3817 42.8958 48.1113C42.217 48.8852 41.3987 49.8558 40.4789 50.4013C40.4535 50.4202 40.4155 50.4394 40.3774 50.4647C39.1467 51.3021 38.0049 52.3615 36.7171 53.0593C36.6283 53.11 36.5966 53.11 36.6537 53.0464C36.6981 52.9957 36.7425 52.9513 36.7869 52.9005C37.1168 52.5453 37.434 52.152 37.6496 51.7523L37.6686 51.7143C38.3791 50.2679 39.0199 48.7518 39.6605 47.2612C39.6922 47.204 39.7049 47.1723 39.7303 47.1153C39.7937 46.9884 39.8382 46.8488 39.8699 46.6966C40.2378 44.7745 40.6311 42.5417 40.2061 40.6194C39.8255 38.913 39.8001 39.3316 39.8001 39.3316C39.7049 40.1563 39.5527 40.9873 39.3243 41.7803C39.1467 42.3829 38.8232 42.9094 38.7788 43.2203C38.6582 44.0386 38.9881 44.876 39.0071 44.9267C38.9881 44.8949 38.7026 44.4128 38.6392 43.696C38.5694 42.9157 39.0389 42.072 39.2101 41.3552C39.4892 40.1944 38.931 38.5196 39.1784 37.6759C39.8191 35.4493 42.3312 32.0111 43.3526 28.928C43.8854 30.5774 44.2978 32.3726 44.8687 33.9077C44.9195 34.0472 44.9385 34.0916 44.8877 34.0282C44.6213 33.4129 43.9108 32.1757 43.9108 32.1757Z" fill="#232323" fill-opacity="0.5"/>
<path d="M46.375 20.5043C46.375 20.5043 47.6437 22.8705 47.796 24.1456C47.8911 24.9702 48.1005 26.6323 48.1005 26.6323C48.1005 26.6323 47.6945 24.1393 47.3139 22.953C47.0538 22.1283 46.375 20.5043 46.375 20.5043Z" fill="url(#paint3_linear_4_16193)"/>
<path d="M46.1094 22.1069C46.1094 22.1069 46.8326 23.8514 47.0038 24.7712C47.1307 25.4627 47.3654 26.8646 47.3654 26.8646C47.3654 26.8646 46.9531 25.063 46.6993 24.1813C46.4963 23.4898 46.1094 22.1069 46.1094 22.1069Z" fill="url(#paint4_linear_4_16193)"/>
<path d="M44.6422 25.38C45.2829 27.41 45.968 29.5161 46.1837 31.616C46.3359 33.1258 46.1075 36.2214 46.1075 36.2214C46.1075 36.2214 46.171 32.3708 45.8031 30.5313C45.5683 29.3577 45.2829 28.1905 44.934 27.0423C44.528 25.7038 44.547 25.6974 44.547 25.6974L44.6422 25.38Z" fill="url(#paint5_linear_4_16193)"/>
<path d="M45.9953 38.1891C45.9953 38.1891 45.9762 39.5466 45.9001 40.2127C45.824 40.8978 45.6717 41.5893 45.5829 42.2807C45.5005 42.9214 45.3292 43.6192 45.3799 44.2345C45.4053 44.5454 45.3292 44.317 45.3736 43.4796C45.4244 42.433 45.7098 41.3672 45.8177 40.3268C45.8811 39.6164 45.9953 38.1891 45.9953 38.1891Z" fill="url(#paint6_linear_4_16193)"/>
<path d="M46.2109 26.8843C46.2109 26.8843 46.4901 27.5377 46.7121 28.356C46.9024 29.0602 47.0293 29.7706 47.1054 30.5001C47.1688 31.1345 47.3211 32.1939 47.3211 32.1939C47.2513 31.2423 47.1815 30.2718 47.0356 29.3329C47.0039 29.1109 46.9087 28.8001 46.8326 28.5336C46.7375 28.1847 46.6233 27.8422 46.4837 27.5186C46.3695 27.2712 46.3124 27.1381 46.2109 26.8843Z" fill="url(#paint7_linear_4_16193)"/>
<path d="M42.9297 32.1569C42.9297 32.1569 43.0947 32.8293 43.2406 33.6159C43.3547 34.2566 43.4055 34.9227 43.507 35.5571C43.6465 36.4452 44.2745 38.215 44.2745 38.215C44.2745 38.215 43.8876 36.5657 43.71 35.7854C43.564 35.1384 43.5133 34.4152 43.4055 33.7428C43.3547 33.4129 43.2659 33.083 43.1517 32.7722C43.0629 32.5248 43.0185 32.4042 42.9297 32.1569Z" fill="url(#paint8_linear_4_16193)"/>
<path d="M41.8199 33.1925C41.8199 33.1925 43.8879 40.9762 42.8793 44.3192C42.2513 46.4063 39.625 50.1236 39.625 50.1236C39.6187 50.1172 42.6256 45.6194 42.8032 43.1521C42.9998 40.4624 42.5748 37.8425 42.1498 35.159C42.0419 34.5056 41.8199 33.1925 41.8199 33.1925Z" fill="url(#paint9_linear_4_16193)"/>
<path d="M41.1737 36.9721C41.1737 36.9721 41.3894 37.5938 41.4655 38.3614C41.5416 39.1543 41.548 39.979 41.5289 40.7783C41.4972 42.0216 40.9961 44.521 40.9961 44.521C40.9961 44.521 41.6114 41.8123 41.6558 40.5245C41.6748 39.8901 41.5797 39.1923 41.5289 38.5326C41.5036 38.209 41.4465 37.8855 41.3577 37.581C41.2815 37.34 41.2435 37.2195 41.1737 36.9721Z" fill="url(#paint10_linear_4_16193)"/>
<path d="M36.833 41.1788C37.2834 44.0461 36.9536 47.0655 35.8878 49.6602C34.9807 51.8805 31.2695 55.3315 31.2695 55.3315C31.2695 55.3315 33.1409 53.7075 33.9021 52.7496C34.6951 51.7537 35.2533 50.5294 35.7671 49.3558C36.6235 47.4083 36.89 44.9216 36.5665 42.8345C36.2493 40.7665 36.484 41.5277 36.484 41.5277L36.833 41.1788Z" fill="url(#paint11_linear_4_16193)"/>
<path d="M37.7665 45.0075C37.7665 45.0646 37.7728 45.1217 37.7665 45.1852C37.7665 45.3247 37.7665 45.6673 37.8109 46.2192C37.8362 46.5237 37.8933 46.9233 37.8743 47.3293C37.8553 47.6846 37.7538 48.0969 37.665 48.3697C37.4239 49.1246 36.8086 50.6154 36.8086 50.6154C36.8086 50.6154 37.5635 49.0485 37.7855 48.2682C37.8299 48.1096 37.9441 47.7797 37.9758 47.3611C38.0075 46.9424 37.9251 46.4983 37.9187 46.3778C37.8997 45.6546 37.8172 44.9061 37.7157 44.1766C37.7411 44.5128 37.7538 44.6776 37.7665 45.0075Z" fill="url(#paint12_linear_4_16193)"/>
<path d="M34.0743 47.3735C33.7889 48.9721 32.6914 52.163 32.6914 52.163C32.6914 52.163 33.7508 49.7017 34.0172 48.4584C34.1821 47.6718 34.5755 46.5743 34.3534 45.775C34.3471 45.775 34.1695 46.8343 34.0743 47.3735Z" fill="url(#paint13_linear_4_16193)"/>
<path d="M21.8509 55.186C21.6479 55.7379 21.2229 56.2771 20.8359 56.7592C20.8359 56.7592 21.6987 55.7633 21.7875 55.5476C21.8256 55.4524 22.1237 54.7229 22.0095 54.6658C22.0158 54.6658 21.9143 55.0147 21.8509 55.186Z" fill="url(#paint14_linear_4_16193)"/>
<path d="M25.3382 53.8782C25.2303 54.9503 24.2344 57.0755 24.2344 57.0755C24.2344 57.0755 25.2113 55.4071 25.3762 54.5634C25.4143 54.3858 25.5983 52.9267 25.3952 52.8696C25.4016 52.8696 25.3763 53.5421 25.3382 53.8782Z" fill="url(#paint15_linear_4_16193)"/>
<path d="M29.9503 50.5031C29.7854 51.9811 28.6562 54.9437 28.6562 54.9437C28.6562 54.9437 29.7727 52.6346 29.9757 51.4611C30.0899 50.795 30.3944 49.7102 30.0899 49.0632C30.0962 49.0632 30.0074 50.0146 29.9503 50.5031Z" fill="url(#paint16_linear_4_16193)"/>
<path d="M44.789 18.675C44.0595 19.0176 43.3236 19.5124 42.8542 20.1785C42.4038 20.8255 41.6172 22.2148 41.6172 22.2148C41.6235 22.2148 42.7527 20.6162 43.3934 20.0008C43.4949 19.9057 44.0405 19.3665 44.1102 19.3221C44.2371 19.2459 44.789 18.675 44.789 18.675Z" fill="url(#paint17_linear_4_16193)"/>
<path d="M43.9065 22.1485C43.786 22.1296 43.6718 22.1232 43.5576 22.1356C43.3419 22.161 42.9423 22.2308 42.4538 22.4274C41.7116 22.7319 41.0328 23.2775 40.3984 23.7913C40.3984 23.7913 41.0265 23.417 41.2041 23.3282C41.3436 23.2584 41.7687 23.011 42.181 22.8207C42.3142 22.7573 42.6314 22.6304 42.9422 22.5353C43.602 22.3323 44.3251 22.2117 44.3251 22.2117C44.1539 22.1928 44.0714 22.1739 43.9065 22.1485Z" fill="url(#paint18_linear_4_16193)"/>
<path d="M42.7226 23.8153C42.7226 23.8153 42.6718 24.1769 41.4665 24.0373C40.7878 23.9612 40.0773 24.3418 39.6903 24.8937C39.6142 25.0142 39.5761 25.0713 39.5 25.1918C39.6396 25.0649 39.7093 25.0015 39.8489 24.8683C39.8489 24.8683 40.2866 24.5067 40.534 24.3988C40.7624 24.2974 41.1557 24.3037 41.4095 24.4242C41.5427 24.4876 41.771 24.4939 41.9614 24.4813C42.2722 24.4684 42.545 24.2339 42.7099 23.8215C42.7162 23.828 42.7162 23.8217 42.7226 23.8153Z" fill="url(#paint19_linear_4_16193)"/>
<path d="M42.2436 25.7429C42.2119 25.6858 39.0718 27.7221 37.9741 29.0225C36.7625 30.4562 34.0664 33.1332 34.0664 33.1332C34.0664 33.1396 35.5825 32.2958 36.2169 31.7757C37.1875 30.9891 37.8535 29.733 38.8114 28.9337C39.395 28.4453 39.8835 27.7919 40.4798 27.3034C41.0824 26.815 42.2436 25.7429 42.2436 25.7429Z" fill="url(#paint20_linear_4_16193)"/>
<path d="M41.6686 30.8869C38.6617 32.549 35.3566 33.989 32.5847 36.0189C31.6648 36.6913 30.726 37.3383 29.7871 37.9854C29.489 38.1947 29.1782 38.3914 28.861 38.569C28.6516 38.6895 28.5438 38.7529 28.3281 38.8671C29.0957 38.6261 29.895 38.3469 30.5864 37.96C31.132 37.6555 31.6522 37.2114 32.147 36.8245C32.8003 36.317 33.5108 35.8539 34.234 35.4352C34.5702 35.2449 34.7352 35.1497 35.065 34.9467C35.5218 34.674 35.9912 34.4393 36.4733 34.2553C38.0592 33.6273 39.6198 32.9548 41.1612 32.2317C41.3768 31.6988 41.4783 31.4325 41.6686 30.8869Z" fill="url(#paint21_linear_4_16193)"/>
<path d="M34.6339 36.4278C34.6783 36.4089 34.7163 36.3898 34.7608 36.3771C34.8622 36.339 35.1096 36.2438 35.4839 36.0345C35.6933 35.914 35.9534 35.73 36.2388 35.6285C37.2411 35.2669 39.2901 34.5691 39.2901 34.5691C39.2901 34.5691 37.2348 35.1971 36.2261 35.5143C35.928 35.6095 35.6425 35.8379 35.5601 35.8759C35.3888 35.952 34.2406 36.561 34.0312 36.7006C34.2787 36.5864 34.3928 36.5357 34.6339 36.4278Z" fill="url(#paint22_linear_4_16193)"/>
<path d="M37.6189 37.7885C37.6189 37.782 33.7176 38.518 32.1888 39.4695C31.2246 40.0722 30.0764 40.402 29.1121 40.9603C28.4904 41.3219 27.2852 42.2227 27.2852 42.2227C27.2852 42.2291 29.074 41.2965 30.0129 40.9666C31.104 40.586 32.0936 39.9136 33.1721 39.5456C34.6565 39.0509 37.6189 37.7885 37.6189 37.7885Z" fill="url(#paint23_linear_4_16193)"/>
<path d="M28.5861 42.3958C28.5861 42.3958 28.1103 42.3324 27.0129 42.8652C26.3214 43.2014 25.6299 43.5757 24.9766 44.0007C25.4143 43.7787 25.6299 43.6709 26.055 43.4361C26.1755 43.379 26.6703 43.0936 27.1271 42.8842C27.4569 42.732 27.9708 42.5798 28.3133 42.4782C28.4212 42.4465 28.4782 42.4339 28.5861 42.3958Z" fill="url(#paint24_linear_4_16193)"/>
<path d="M33.956 43.5297C32.4525 43.5486 30.8032 43.4853 29.3694 43.8849C28.735 44.0625 28.088 44.2973 27.4727 44.5574C28.088 44.3924 28.3925 44.3099 28.9951 44.1323C29.4392 43.9991 29.8896 43.9167 30.34 43.8786C31.5453 43.7771 32.7507 43.6629 33.956 43.5297Z" fill="url(#paint25_linear_4_16193)"/>
<path d="M29.6794 45.9033C29.394 45.8904 29.1085 45.8969 28.8231 45.9161C27.3513 46.0177 25.7718 46.0937 24.3888 46.5378C23.4309 46.8486 21.5469 47.7304 21.5469 47.7304C21.5469 47.7304 23.9955 46.7408 25.2642 46.5315C27.0151 46.2397 28.8103 45.9987 30.5991 45.9288C30.2312 45.9224 30.0474 45.9158 29.6794 45.9033Z" fill="url(#paint26_linear_4_16193)"/>
<path d="M24.6438 47.7175C23.5083 47.9141 22.2903 48.1552 21.2817 48.7071C20.1271 49.3351 20.3492 49.297 20.3492 49.297C20.7678 49.1257 20.9772 49.037 21.3895 48.8467C22.0049 48.5612 22.6646 48.3138 23.318 48.1298C23.8572 47.9712 24.1173 47.8888 24.6438 47.7175Z" fill="url(#paint27_linear_4_16193)"/>
<path d="M26.5145 49.4561C25.1189 49.6083 23.7233 49.7669 22.3339 49.9128C21.2681 50.0207 20.1898 50.3315 19.2255 50.8136C19.1684 50.8454 19.143 50.858 19.0859 50.8834C19.6632 50.7311 20.2468 50.5662 20.8114 50.3759C21.56 50.1475 22.3212 50.0334 23.0951 49.9445C24.2433 49.8113 25.379 49.6527 26.5145 49.4561Z" fill="url(#paint28_linear_4_16193)"/>
<path d="M22.3579 51.8221C22.3579 51.8157 20.0678 51.3083 19.0783 51.746C17.8856 52.2662 17.7461 52.558 17.7461 52.558C18.1965 52.3423 18.4185 52.2345 18.8435 51.9997L19.148 51.8475C19.5413 51.6826 20.0361 51.6255 20.5119 51.6508C21.1272 51.6889 22.3579 51.8221 22.3579 51.8221Z" fill="url(#paint29_linear_4_16193)"/>
<path d="M45.6556 6.14185C46.6515 9.82114 46.6706 13.602 46.4993 17.3574C46.309 21.4428 44.7675 25.7311 43.4353 29.5879C42.0334 33.6539 39.7877 37.0922 37.6752 40.7781C35.734 44.1593 32.6574 47.0141 29.6314 49.4183C26.9925 51.5117 24.0743 53.1103 20.9342 54.2649C19.9573 54.6201 18.8662 54.747 17.8322 54.7787C17.0709 54.7976 16.5254 54.7534 16.5 54.7534C18.7457 54.284 21.023 53.6052 23.0149 52.457C28.5403 49.2661 33.7418 44.9016 36.9836 39.3319C39.0452 35.7985 40.9926 32.3287 42.3502 28.4463C43.5999 24.8558 44.9638 21.0942 45.3381 17.3006C45.6235 14.4016 45.6108 11.4328 45.0907 8.55274C45.2683 7.95008 45.3444 7.6456 45.4776 7.04294C45.5537 6.675 45.5921 6.49709 45.6556 6.14185Z" fill="#232323" fill-opacity="0.5"/>
<path d="M45.654 6.14185C46.6499 9.82114 46.6689 13.602 46.4976 17.3574C46.3073 21.4428 44.7658 25.7311 43.4337 29.5879C42.0317 33.6539 39.7861 37.0922 37.6736 40.7781C35.7324 44.1593 32.6558 47.0141 29.6298 49.4183C26.9908 51.5117 24.0727 53.1103 20.9326 54.2649C19.9557 54.6201 18.8709 54.747 17.8305 54.7787H17.8242C20.2665 54.2712 22.8231 53.529 24.9163 52.1461C30.3717 48.5429 35.6178 44.1847 38.6755 38.2727C40.5786 34.5934 42.2914 30.9777 43.5728 27.0129C44.759 23.3463 46.0151 19.4767 46.2054 15.6132C46.3513 12.7459 46.161 9.83421 45.4759 7.03655C45.552 6.67496 45.5905 6.49709 45.654 6.14185Z" fill="#232323" fill-opacity="0.5"/>
<defs>
<filter id="filter0_f_4_16193" x="3.26249" y="3.26252" width="57.475" height="57.4754" filterUnits="userSpaceOnUse" color-interpolation-filters="sRGB">
<feFlood flood-opacity="0" result="BackgroundImageFix"/>
<feBlend mode="normal" in="SourceGraphic" in2="BackgroundImageFix" result="shape"/>
<feGaussianBlur stdDeviation="0.618754" result="effect1_foregroundBlur_4_16193"/>
</filter>
<linearGradient id="paint0_linear_4_16193" x1="4.5" y1="32.0002" x2="59.5004" y2="32.0002" gradientUnits="userSpaceOnUse">
<stop stop-color="#FDFC47"/>
<stop offset="1" stop-color="#24FE41"/>
</linearGradient>
<linearGradient id="paint1_linear_4_16193" x1="4.5" y1="32.0019" x2="59.5008" y2="32.0019" gradientUnits="userSpaceOnUse">
<stop stop-color="#FDFC47"/>
<stop offset="1" stop-color="#24FE41"/>
</linearGradient>
<linearGradient id="paint2_linear_4_16193" x1="15.4453" y1="37.4414" x2="48.5617" y2="37.4414" gradientUnits="userSpaceOnUse">
<stop stop-color="#FDFC47"/>
<stop offset="1" stop-color="#24FE41"/>
</linearGradient>
<linearGradient id="paint3_linear_4_16193" x1="46.375" y1="23.5683" x2="48.1005" y2="23.5683" gradientUnits="userSpaceOnUse">
<stop stop-color="#FDFC47"/>
<stop offset="1" stop-color="#24FE41"/>
</linearGradient>
<linearGradient id="paint4_linear_4_16193" x1="46.1094" y1="24.4858" x2="47.3654" y2="24.4858" gradientUnits="userSpaceOnUse">
<stop stop-color="#FDFC47"/>
<stop offset="1" stop-color="#24FE41"/>
</linearGradient>
<linearGradient id="paint5_linear_4_16193" x1="44.5469" y1="30.8007" x2="46.236" y2="30.8007" gradientUnits="userSpaceOnUse">
<stop stop-color="#FDFC47"/>
<stop offset="1" stop-color="#24FE41"/>
</linearGradient>
<linearGradient id="paint6_linear_4_16193" x1="45.3594" y1="41.2782" x2="45.9953" y2="41.2782" gradientUnits="userSpaceOnUse">
<stop stop-color="#FDFC47"/>
<stop offset="1" stop-color="#24FE41"/>
</linearGradient>
<linearGradient id="paint7_linear_4_16193" x1="46.2109" y1="29.5391" x2="47.3211" y2="29.5391" gradientUnits="userSpaceOnUse">
<stop stop-color="#FDFC47"/>
<stop offset="1" stop-color="#24FE41"/>
</linearGradient>
<linearGradient id="paint8_linear_4_16193" x1="42.9297" y1="35.1859" x2="44.2745" y2="35.1859" gradientUnits="userSpaceOnUse">
<stop stop-color="#FDFC47"/>
<stop offset="1" stop-color="#24FE41"/>
</linearGradient>
<linearGradient id="paint9_linear_4_16193" x1="39.625" y1="41.658" x2="43.1565" y2="41.658" gradientUnits="userSpaceOnUse">
<stop stop-color="#FDFC47"/>
<stop offset="1" stop-color="#24FE41"/>
</linearGradient>
<linearGradient id="paint10_linear_4_16193" x1="40.9961" y1="40.7465" x2="41.6583" y2="40.7465" gradientUnits="userSpaceOnUse">
<stop stop-color="#FDFC47"/>
<stop offset="1" stop-color="#24FE41"/>
</linearGradient>
<linearGradient id="paint11_linear_4_16193" x1="31.2695" y1="48.2551" x2="37.0291" y2="48.2551" gradientUnits="userSpaceOnUse">
<stop stop-color="#FDFC47"/>
<stop offset="1" stop-color="#24FE41"/>
</linearGradient>
<linearGradient id="paint12_linear_4_16193" x1="36.8086" y1="47.396" x2="37.983" y2="47.396" gradientUnits="userSpaceOnUse">
<stop stop-color="#FDFC47"/>
<stop offset="1" stop-color="#24FE41"/>
</linearGradient>
<linearGradient id="paint13_linear_4_16193" x1="32.6914" y1="48.969" x2="34.4197" y2="48.969" gradientUnits="userSpaceOnUse">
<stop stop-color="#FDFC47"/>
<stop offset="1" stop-color="#24FE41"/>
</linearGradient>
<linearGradient id="paint14_linear_4_16193" x1="20.8359" y1="55.7125" x2="22.0354" y2="55.7125" gradientUnits="userSpaceOnUse">
<stop stop-color="#FDFC47"/>
<stop offset="1" stop-color="#24FE41"/>
</linearGradient>
<linearGradient id="paint15_linear_4_16193" x1="24.2344" y1="54.9725" x2="25.4891" y2="54.9725" gradientUnits="userSpaceOnUse">
<stop stop-color="#FDFC47"/>
<stop offset="1" stop-color="#24FE41"/>
</linearGradient>
<linearGradient id="paint16_linear_4_16193" x1="28.6562" y1="52.0034" x2="30.2213" y2="52.0034" gradientUnits="userSpaceOnUse">
<stop stop-color="#FDFC47"/>
<stop offset="1" stop-color="#24FE41"/>
</linearGradient>
<linearGradient id="paint17_linear_4_16193" x1="41.6172" y1="20.4449" x2="44.789" y2="20.4449" gradientUnits="userSpaceOnUse">
<stop stop-color="#FDFC47"/>
<stop offset="1" stop-color="#24FE41"/>
</linearGradient>
<linearGradient id="paint18_linear_4_16193" x1="40.3984" y1="22.9603" x2="44.3251" y2="22.9603" gradientUnits="userSpaceOnUse">
<stop stop-color="#FDFC47"/>
<stop offset="1" stop-color="#24FE41"/>
</linearGradient>
<linearGradient id="paint19_linear_4_16193" x1="39.5" y1="24.5035" x2="42.7226" y2="24.5035" gradientUnits="userSpaceOnUse">
<stop stop-color="#FDFC47"/>
<stop offset="1" stop-color="#24FE41"/>
</linearGradient>
<linearGradient id="paint20_linear_4_16193" x1="34.0664" y1="29.4375" x2="42.2436" y2="29.4375" gradientUnits="userSpaceOnUse">
<stop stop-color="#FDFC47"/>
<stop offset="1" stop-color="#24FE41"/>
</linearGradient>
<linearGradient id="paint21_linear_4_16193" x1="28.3281" y1="34.877" x2="41.6686" y2="34.877" gradientUnits="userSpaceOnUse">
<stop stop-color="#FDFC47"/>
<stop offset="1" stop-color="#24FE41"/>
</linearGradient>
<linearGradient id="paint22_linear_4_16193" x1="34.0312" y1="35.6349" x2="39.2901" y2="35.6349" gradientUnits="userSpaceOnUse">
<stop stop-color="#FDFC47"/>
<stop offset="1" stop-color="#24FE41"/>
</linearGradient>
<linearGradient id="paint23_linear_4_16193" x1="27.2852" y1="40.0056" x2="37.6189" y2="40.0056" gradientUnits="userSpaceOnUse">
<stop stop-color="#FDFC47"/>
<stop offset="1" stop-color="#24FE41"/>
</linearGradient>
<linearGradient id="paint24_linear_4_16193" x1="24.9766" y1="43.1971" x2="28.5861" y2="43.1971" gradientUnits="userSpaceOnUse">
<stop stop-color="#FDFC47"/>
<stop offset="1" stop-color="#24FE41"/>
</linearGradient>
<linearGradient id="paint25_linear_4_16193" x1="27.4727" y1="44.0435" x2="33.956" y2="44.0435" gradientUnits="userSpaceOnUse">
<stop stop-color="#FDFC47"/>
<stop offset="1" stop-color="#24FE41"/>
</linearGradient>
<linearGradient id="paint26_linear_4_16193" x1="21.5469" y1="46.8135" x2="30.5991" y2="46.8135" gradientUnits="userSpaceOnUse">
<stop stop-color="#FDFC47"/>
<stop offset="1" stop-color="#24FE41"/>
</linearGradient>
<linearGradient id="paint27_linear_4_16193" x1="20.332" y1="48.5075" x2="24.6438" y2="48.5075" gradientUnits="userSpaceOnUse">
<stop stop-color="#FDFC47"/>
<stop offset="1" stop-color="#24FE41"/>
</linearGradient>
<linearGradient id="paint28_linear_4_16193" x1="19.0859" y1="50.1697" x2="26.5145" y2="50.1697" gradientUnits="userSpaceOnUse">
<stop stop-color="#FDFC47"/>
<stop offset="1" stop-color="#24FE41"/>
</linearGradient>
<linearGradient id="paint29_linear_4_16193" x1="17.7461" y1="52.0631" x2="22.3579" y2="52.0631" gradientUnits="userSpaceOnUse">
<stop stop-color="#FDFC47"/>
<stop offset="1" stop-color="#24FE41"/>
</linearGradient>
</defs>
</svg>
