<svg width="64" height="64" viewBox="0 0 64 64" fill="none" xmlns="http://www.w3.org/2000/svg">
<g clip-path="url(#clip0_4_16100)">
<g opacity="0.3" filter="url(#filter0_f_4_16100)">
<path d="M44.5 4.5H19.5C11.2157 4.5 4.5 11.2157 4.5 19.5V44.5C4.5 52.7843 11.2157 59.5 19.5 59.5H44.5C52.7843 59.5 59.5 52.7843 59.5 44.5V19.5C59.5 11.2157 52.7843 4.5 44.5 4.5Z" fill="url(#paint0_linear_4_16100)"/>
</g>
<path d="M19.5 5H44.5C52.5081 5 59 11.4919 59 19.5V44.5C59 52.5081 52.5081 59 44.5 59H19.5C11.4919 59 5 52.5081 5 44.5V19.5C5 11.4919 11.4919 5 19.5 5Z" fill="#232323" stroke="url(#paint1_linear_4_16100)"/>
<path d="M37.8178 23.7108C37.7735 23.7122 37.7292 23.7141 37.685 23.7166V25.3572C37.7073 25.3844 37.7679 25.3806 37.7885 25.408C38.2071 25.9649 38.3859 26.6016 38.3862 27.2615C38.386 27.9214 38.2071 28.5582 37.7885 29.115C37.5769 29.3966 37.093 29.4562 36.7319 29.6541C36.6045 30.1194 36.5712 30.5579 36.3276 31.0408C36.2825 31.1307 36.2295 31.2185 36.1714 31.3006L35.3237 32.4881L43.6498 37.693C43.7409 37.7499 43.8268 37.8136 43.9076 37.8844C45.6214 39.3942 46.3686 41.3249 46.1967 42.9819H46.3822C47.5774 42.9819 49.2779 41.1257 47.0307 38.8784L39.6578 34.2692L41.1304 32.195C41.3562 31.6869 41.4644 31.2098 41.5035 30.777H41.9156C42.0419 30.7652 42.16 30.6881 42.2463 30.5649C42.3326 30.4416 42.3805 30.2794 42.3805 30.111C42.3805 29.9426 42.3326 29.7804 42.2463 29.6572C42.16 29.5339 42.0419 29.4588 41.9156 29.4469V26.7438H41.9077C41.8785 25.9322 41.435 25.1612 40.6713 24.5947C39.9076 24.0283 38.8837 23.7113 37.8178 23.7108ZM33.3666 35.9801L28.7279 38.8785C26.2132 41.0938 28.1586 42.982 29.3763 42.982H41.7375C41.875 42.8913 42.1728 42.7337 42.2395 42.5797C42.3357 42.3576 42.5101 42.0313 41.2942 40.9332L33.3666 35.9801Z" fill="url(#paint2_linear_4_16100)"/>
<path d="M30.0014 18.4069C28.5271 18.408 27.1114 18.8471 26.0555 19.6309C24.9996 20.4147 24.3867 21.4814 24.3471 22.6041H24.3354V26.3404C24.3302 26.3404 24.325 26.3404 24.3198 26.3404C24.1365 26.3405 23.9606 26.4375 23.831 26.61C23.7013 26.7824 23.6285 27.0164 23.6284 27.2604C23.6285 27.5043 23.7013 27.7383 23.831 27.9108C23.9606 28.0832 24.1365 28.1802 24.3198 28.1803C24.325 28.1803 24.3302 28.1803 24.3354 28.1803H24.9057C24.9637 28.7815 25.1275 29.4427 25.48 30.1412L27.5542 33.0592L17.4313 39.3874C13.9532 42.4513 16.6435 45.0613 18.3278 45.0613H41.8478C43.501 45.0613 45.8523 42.4956 42.7443 39.3874L32.5451 33.0104L34.5842 30.1413C34.8965 29.4386 35.0457 28.7789 35.0998 28.1804H35.6682C35.6675 28.1804 35.6688 28.1804 35.6682 28.1804C35.8426 28.1639 36.008 28.058 36.1272 27.8876C36.2464 27.7173 36.3127 27.4932 36.3127 27.2604C36.3127 27.0272 36.2461 26.8027 36.1265 26.6323C36.0068 26.4619 35.843 26.3583 35.6682 26.3424V22.6042H35.6584C35.6189 21.4812 35.0057 20.4144 33.9494 19.6305C32.8931 18.8466 31.4761 18.4076 30.0014 18.4069Z" fill="url(#paint3_linear_4_16100)"/>
</g>
<defs>
<filter id="filter0_f_4_16100" x="3.2625" y="3.2625" width="57.475" height="57.475" filterUnits="userSpaceOnUse" color-interpolation-filters="sRGB">
<feFlood flood-opacity="0" result="BackgroundImageFix"/>
<feBlend mode="normal" in="SourceGraphic" in2="BackgroundImageFix" result="shape"/>
<feGaussianBlur stdDeviation="0.61875" result="effect1_foregroundBlur_4_16100"/>
</filter>
<linearGradient id="paint0_linear_4_16100" x1="4.5" y1="32" x2="59.5" y2="32" gradientUnits="userSpaceOnUse">
<stop stop-color="#FDFC47"/>
<stop offset="1" stop-color="#24FE41"/>
</linearGradient>
<linearGradient id="paint1_linear_4_16100" x1="4.5" y1="32" x2="59.5" y2="32" gradientUnits="userSpaceOnUse">
<stop stop-color="#FDFC47"/>
<stop offset="1" stop-color="#24FE41"/>
</linearGradient>
<linearGradient id="paint2_linear_4_16100" x1="27.5039" y1="33.3463" x2="48.1307" y2="33.3463" gradientUnits="userSpaceOnUse">
<stop stop-color="#FDFC47"/>
<stop offset="1" stop-color="#24FE41"/>
</linearGradient>
<linearGradient id="paint3_linear_4_16100" x1="15.7383" y1="31.7341" x2="44.2658" y2="31.7341" gradientUnits="userSpaceOnUse">
<stop stop-color="#FDFC47"/>
<stop offset="1" stop-color="#24FE41"/>
</linearGradient>
<clipPath id="clip0_4_16100">
<rect width="64" height="64" fill="white"/>
</clipPath>
</defs>
</svg>
