<svg width="64" height="64" viewBox="0 0 64 64" fill="none" xmlns="http://www.w3.org/2000/svg">
<g opacity="0.3" filter="url(#filter0_f_4_16056)">
<path d="M46.4983 4.50003H17.5021C10.3212 4.50003 4.5 10.3213 4.5 17.5021V46.4983C4.5 53.6792 10.3212 59.5004 17.5021 59.5004H46.4983C53.6792 59.5004 59.5004 53.6792 59.5004 46.4983V17.5021C59.5004 10.3213 53.6792 4.50003 46.4983 4.50003Z" fill="#232323"/>
<path d="M17.5021 5.00003H46.4983C53.403 5.00003 59.0004 10.5974 59.0004 17.5021V46.4983C59.0004 53.403 53.403 59.0004 46.4983 59.0004H17.5021C10.5974 59.0004 5 53.403 5 46.4983V17.5021C5 10.5974 10.5974 5.00003 17.5021 5.00003Z" stroke="url(#paint0_linear_4_16056)"/>
</g>
<path d="M17.5022 4.99887H46.4986C53.4033 4.99887 59.0008 10.5963 59.0008 17.5011V46.4974C59.0008 53.4022 53.4033 58.9996 46.4986 58.9996H17.5022C10.5974 58.9996 5 53.4022 5 46.4974V17.5011C5 10.5963 10.5974 4.99887 17.5022 4.99887Z" fill="#232323" stroke="url(#paint1_linear_4_16056)"/>
<path d="M11 20.6673C11 15.3114 15.3109 11.0009 20.6664 11.0009L43.3349 11.0013C48.6908 11.0013 53.0013 15.3122 53.0013 20.6676V39.358L39.4104 53.0022H20.6664C15.3105 53.0022 11 48.6913 11 43.3358V20.6673Z" fill="#232323" stroke="url(#paint2_linear_4_16056)"/>
<g opacity="0.6">
<mask id="path-5-inside-1_4_16056" fill="white">
<path d="M17.8047 42.3025C17.8218 42.456 17.838 42.6093 17.857 42.7622H46.1492C46.1669 42.597 46.1821 42.4655 46.1977 42.3025H17.8047Z"/>
</mask>
<path d="M17.8047 42.3025C17.8218 42.456 17.838 42.6093 17.857 42.7622H46.1492C46.1669 42.597 46.1821 42.4655 46.1977 42.3025H17.8047Z" fill="#232323"/>
<path d="M17.8047 42.3025V41.3025H16.6873L16.8108 42.413L17.8047 42.3025ZM17.857 42.7622L16.8646 42.8852L16.9733 43.7622H17.857V42.7622ZM46.1492 42.7622V43.7622H47.0474L47.1434 42.8691L46.1492 42.7622ZM46.1977 42.3025L47.1931 42.398L47.2983 41.3025H46.1977V42.3025ZM16.8108 42.413C16.8271 42.5597 16.8446 42.724 16.8646 42.8852L18.8494 42.6392C18.8315 42.4945 18.8164 42.3523 18.7986 42.1919L16.8108 42.413ZM17.857 43.7622H46.1492V41.7622H17.857V43.7622ZM47.1434 42.8691C47.1604 42.7118 47.1768 42.5686 47.1931 42.398L45.2023 42.2069C45.1874 42.3624 45.1735 42.4821 45.1549 42.6553L47.1434 42.8691ZM46.1977 41.3025H17.8047V43.3025H46.1977V41.3025Z" fill="url(#paint3_linear_4_16056)" mask="url(#path-5-inside-1_4_16056)"/>
</g>
<path d="M49.7836 40.0638H52.2966L40.1172 52.291V49.7301C40.1172 44.3743 44.4281 40.0638 49.7836 40.0638Z" fill="#232323" stroke="url(#paint4_linear_4_16056)"/>
<g opacity="0.6">
<mask id="path-8-inside-2_4_16056" fill="white">
<path d="M17.8047 32.6115C17.8218 32.7651 17.838 32.9184 17.857 33.0713H46.1492C46.1669 32.906 46.1821 32.7746 46.1977 32.6115H17.8047Z"/>
</mask>
<path d="M17.8047 32.6115C17.8218 32.7651 17.838 32.9184 17.857 33.0713H46.1492C46.1669 32.906 46.1821 32.7746 46.1977 32.6115H17.8047Z" fill="#232323"/>
<path d="M17.8047 32.6115V31.6115H16.6873L16.8108 32.7221L17.8047 32.6115ZM17.857 33.0713L16.8646 33.1942L16.9733 34.0713H17.857V33.0713ZM46.1492 33.0713V34.0713H47.0474L47.1434 33.1782L46.1492 33.0713ZM46.1977 32.6115L47.1931 32.7071L47.2983 31.6115H46.1977V32.6115ZM16.8108 32.7221C16.8271 32.8688 16.8446 33.0331 16.8646 33.1942L18.8494 32.9483C18.8315 32.8036 18.8164 32.6614 18.7986 32.501L16.8108 32.7221ZM17.857 34.0713H46.1492V32.0713H17.857V34.0713ZM47.1434 33.1782C47.1604 33.0209 47.1768 32.8777 47.1931 32.7071L45.2023 32.516C45.1874 32.6715 45.1735 32.7912 45.1549 32.9643L47.1434 33.1782ZM46.1977 31.6115H17.8047V33.6115H46.1977V31.6115Z" fill="url(#paint5_linear_4_16056)" mask="url(#path-8-inside-2_4_16056)"/>
</g>
<g opacity="0.6">
<mask id="path-10-inside-3_4_16056" fill="white">
<path d="M17.3009 47.1479C17.2887 47.2977 17.2812 47.4541 17.2695 47.6076H35.9464C35.9354 47.4541 35.9273 47.2977 35.9139 47.1479H17.3009Z"/>
</mask>
<path d="M17.3009 47.1479C17.2887 47.2977 17.2812 47.4541 17.2695 47.6076H35.9464C35.9354 47.4541 35.9273 47.2977 35.9139 47.1479H17.3009Z" fill="#232323"/>
<path d="M17.3009 47.1479V46.1479H16.3786L16.3041 47.0672L17.3009 47.1479ZM17.2695 47.6076L16.2724 47.5318L16.1906 48.6076H17.2695V47.6076ZM35.9464 47.6076V48.6076H37.0206L36.9439 47.5362L35.9464 47.6076ZM35.9139 47.1479L36.9099 47.0584L36.8281 46.1479H35.9139V47.1479ZM16.3041 47.0672C16.2954 47.1748 16.2778 47.4614 16.2724 47.5318L18.2667 47.6835C18.2847 47.4468 18.282 47.4207 18.2976 47.2286L16.3041 47.0672ZM17.2695 48.6076H35.9464V46.6076H17.2695V48.6076ZM36.9439 47.5362C36.935 47.4121 36.9242 47.2179 36.9099 47.0584L34.9179 47.2374C34.9305 47.3775 34.9359 47.4961 34.949 47.6791L36.9439 47.5362ZM35.9139 46.1479H17.3009V48.1479H35.9139V46.1479Z" fill="url(#paint6_linear_4_16056)" mask="url(#path-10-inside-3_4_16056)"/>
</g>
<path d="M20.9156 15.9333H43.499C45.2711 15.9333 46.7076 17.3698 46.7076 19.1418V24.725C46.7076 26.497 45.2711 27.9336 43.499 27.9336H20.9156C19.1436 27.9336 17.707 26.497 17.707 24.725V19.1418C17.707 17.3698 19.1436 15.9333 20.9156 15.9333Z" fill="#232323" stroke="url(#paint7_linear_4_16056)"/>
<path d="M39.5005 16.9311C40.3324 16.9311 41.0006 17.5992 41.0006 18.4311V25.4313C41.0006 26.2632 40.3324 26.9314 39.5005 26.9314H24.5001C23.6682 26.9314 23 26.2632 23 25.4313V18.4311C23 17.5992 23.6682 16.9311 24.5001 16.9311H39.5005ZM39.5005 16.9311L24.5001 16.9311C23.6699 16.9311 23 17.6009 23 18.4311V25.4313C23 26.2614 23.6699 26.9313 24.5001 26.9313H39.5005C40.3307 26.9313 41.0005 26.2614 41.0005 25.4313V18.4311C41.0005 17.6009 40.3307 16.9311 39.5005 16.9311ZM30.7073 18.9311H32.0003V24.9313H31.0002V21.2594V20.0522L30.1467 20.9058L28.5002 22.5523L26.8537 20.9058L26.0001 20.0522V21.2594V24.9313H25.0001V18.9311H26.293L28.1466 20.7847L28.5002 21.1382L28.8537 20.7847L30.7073 18.9311ZM36.0002 22.931V22.431V18.9311H37.0002V22.431V22.931H37.5002H38.2932L36.5002 24.724L34.7073 22.931H35.5002H36.0002Z" fill="#232323" stroke="url(#paint8_linear_4_16056)"/>
<g opacity="0.6">
<mask id="path-14-inside-4_4_16056" fill="white">
<path d="M17.8047 37.457C17.8218 37.6105 17.838 37.7638 17.857 37.9167H46.1492C46.1669 37.7515 46.1821 37.6201 46.1977 37.457H17.8047Z"/>
</mask>
<path d="M17.8047 37.457C17.8218 37.6105 17.838 37.7638 17.857 37.9167H46.1492C46.1669 37.7515 46.1821 37.6201 46.1977 37.457H17.8047Z" fill="#232323"/>
<path d="M17.8047 37.457V36.457H16.6872L16.8108 37.5676L17.8047 37.457ZM17.857 37.9167L16.8646 38.0397L16.9733 38.9167H17.857V37.9167ZM46.1492 37.9167V38.9167H47.0474L47.1434 38.0236L46.1492 37.9167ZM46.1977 37.457L47.1931 37.5525L47.2983 36.457H46.1977V37.457ZM16.8108 37.5676C16.8271 37.7142 16.8446 37.8786 16.8646 38.0397L18.8494 37.7937C18.8315 37.6491 18.8164 37.5069 18.7986 37.3464L16.8108 37.5676ZM17.857 38.9167H46.1492V36.9167H17.857V38.9167ZM47.1434 38.0236C47.1604 37.8664 47.1768 37.7232 47.1931 37.5525L45.2023 37.3615C45.1874 37.5169 45.1735 37.6366 45.1549 37.8098L47.1434 38.0236ZM46.1977 36.457H17.8047V38.457H46.1977V36.457Z" fill="url(#paint9_linear_4_16056)" mask="url(#path-14-inside-4_4_16056)"/>
</g>
<defs>
<filter id="filter0_f_4_16056" x="2.29998" y="2.30001" width="59.4" height="59.4004" filterUnits="userSpaceOnUse" color-interpolation-filters="sRGB">
<feFlood flood-opacity="0" result="BackgroundImageFix"/>
<feBlend mode="normal" in="SourceGraphic" in2="BackgroundImageFix" result="shape"/>
<feGaussianBlur stdDeviation="1.10001" result="effect1_foregroundBlur_4_16056"/>
</filter>
<linearGradient id="paint0_linear_4_16056" x1="4.5" y1="32.0002" x2="59.5004" y2="32.0002" gradientUnits="userSpaceOnUse">
<stop stop-color="#FDFC47"/>
<stop offset="1" stop-color="#24FE41"/>
</linearGradient>
<linearGradient id="paint1_linear_4_16056" x1="4.5" y1="31.9993" x2="59.5008" y2="31.9993" gradientUnits="userSpaceOnUse">
<stop stop-color="#FDFC47"/>
<stop offset="1" stop-color="#24FE41"/>
</linearGradient>
<linearGradient id="paint2_linear_4_16056" x1="10.5" y1="32.0015" x2="53.5013" y2="32.0015" gradientUnits="userSpaceOnUse">
<stop stop-color="#FDFC47"/>
<stop offset="1" stop-color="#24FE41"/>
</linearGradient>
<linearGradient id="paint3_linear_4_16056" x1="17.8047" y1="42.5323" x2="46.1977" y2="42.5323" gradientUnits="userSpaceOnUse">
<stop stop-color="#FDFC47"/>
<stop offset="1" stop-color="#24FE41"/>
</linearGradient>
<linearGradient id="paint4_linear_4_16056" x1="39.6172" y1="46.5326" x2="53.5004" y2="46.5326" gradientUnits="userSpaceOnUse">
<stop stop-color="#FDFC47"/>
<stop offset="1" stop-color="#24FE41"/>
</linearGradient>
<linearGradient id="paint5_linear_4_16056" x1="17.8047" y1="32.8414" x2="46.1977" y2="32.8414" gradientUnits="userSpaceOnUse">
<stop stop-color="#FDFC47"/>
<stop offset="1" stop-color="#24FE41"/>
</linearGradient>
<linearGradient id="paint6_linear_4_16056" x1="17.2695" y1="47.3778" x2="35.9464" y2="47.3778" gradientUnits="userSpaceOnUse">
<stop stop-color="#FDFC47"/>
<stop offset="1" stop-color="#24FE41"/>
</linearGradient>
<linearGradient id="paint7_linear_4_16056" x1="17.207" y1="21.9334" x2="47.2076" y2="21.9334" gradientUnits="userSpaceOnUse">
<stop stop-color="#FDFC47"/>
<stop offset="1" stop-color="#24FE41"/>
</linearGradient>
<linearGradient id="paint8_linear_4_16056" x1="22.5" y1="21.9312" x2="41.5006" y2="21.9312" gradientUnits="userSpaceOnUse">
<stop stop-color="#FDFC47"/>
<stop offset="1" stop-color="#24FE41"/>
</linearGradient>
<linearGradient id="paint9_linear_4_16056" x1="17.8047" y1="37.6869" x2="46.1977" y2="37.6869" gradientUnits="userSpaceOnUse">
<stop stop-color="#FDFC47"/>
<stop offset="1" stop-color="#24FE41"/>
</linearGradient>
</defs>
</svg>
