<svg width="64" height="64" viewBox="0 0 64 64" fill="none" xmlns="http://www.w3.org/2000/svg">
<g clip-path="url(#clip0_4_15993)">
<g opacity="0.3" filter="url(#filter0_f_4_15993)">
<path d="M44.5 4.5H19.5C11.2157 4.5 4.5 11.2157 4.5 19.5V44.5C4.5 52.7843 11.2157 59.5 19.5 59.5H44.5C52.7843 59.5 59.5 52.7843 59.5 44.5V19.5C59.5 11.2157 52.7843 4.5 44.5 4.5Z" fill="url(#paint0_linear_4_15993)"/>
</g>
<path d="M19.5 5H44.5C52.5081 5 59 11.4919 59 19.5V44.5C59 52.5081 52.5081 59 44.5 59H19.5C11.4919 59 5 52.5081 5 44.5V19.5C5 11.4919 11.4919 5 19.5 5Z" fill="#232323" stroke="url(#paint1_linear_4_15993)"/>
<path opacity="0.75" d="M17 22.0007C17 19.2393 19.2386 17.0007 22 17.0007H41.9995C44.7609 17.0007 46.9995 19.2393 46.9995 22.0007V42.0002C46.9995 44.7616 44.7609 47.0002 41.9995 47.0002H22C19.2386 47.0002 17 44.7616 17 42.0002V22.0007Z" fill="url(#paint2_linear_4_15993)"/>
<path d="M20.2589 20.2614H25.3365C28.3733 20.2614 30.8231 22.6291 30.8231 26.6886V26.7473C30.8231 30.8464 27.8781 33.1258 25.6049 33.1528L23.7795 33.1741H20.2578L20.2589 20.2614ZM24.9545 30.8264C26.3675 30.8264 28.4761 29.6723 28.4761 26.7471V26.6884C28.4761 23.803 26.3678 22.6091 24.9545 22.6091H22.6066V30.8262L24.9545 30.8264Z" fill="#232323"/>
<path d="M38.4567 20.2614C36.5936 20.2614 34.9355 20.8754 33.7749 22.0359C32.6139 23.1957 32 24.8545 32 26.7173C32 28.5804 32.614 30.2385 33.7746 31.3991C34.9344 32.5601 36.5931 33.174 38.4559 33.174C40.1608 33.174 41.4391 32.6405 42.2665 32.0826C43.094 31.5248 43.5436 30.8652 43.5436 30.8652L43.7385 30.5717V26.1308H37.8689V28.4786H41.3906V29.7466C41.3177 29.8366 41.2958 29.9066 40.955 30.1364C40.462 30.4686 39.686 30.8266 38.4557 30.8266C37.0905 30.8266 36.1079 30.4134 35.4341 29.7396C34.7603 29.0657 34.3471 28.0832 34.3471 26.7179C34.3471 25.3527 34.7603 24.3701 35.4341 23.6963C36.108 23.0225 37.0905 22.6093 38.4557 22.6093C39.8209 22.6093 40.8041 23.0224 41.4776 23.696L43.1376 22.036C41.9778 20.875 40.3195 20.2614 38.4567 20.2614Z" fill="#232323"/>
<path d="M19.0859 41.3929H30.825V43.7407H19.0859V41.3929Z" fill="#232323"/>
</g>
<defs>
<filter id="filter0_f_4_15993" x="3.2625" y="3.2625" width="57.475" height="57.475" filterUnits="userSpaceOnUse" color-interpolation-filters="sRGB">
<feFlood flood-opacity="0" result="BackgroundImageFix"/>
<feBlend mode="normal" in="SourceGraphic" in2="BackgroundImageFix" result="shape"/>
<feGaussianBlur stdDeviation="0.61875" result="effect1_foregroundBlur_4_15993"/>
</filter>
<linearGradient id="paint0_linear_4_15993" x1="4.5" y1="32" x2="59.5" y2="32" gradientUnits="userSpaceOnUse">
<stop stop-color="#FDFC47"/>
<stop offset="1" stop-color="#24FE41"/>
</linearGradient>
<linearGradient id="paint1_linear_4_15993" x1="4.5" y1="32" x2="59.5" y2="32" gradientUnits="userSpaceOnUse">
<stop stop-color="#FDFC47"/>
<stop offset="1" stop-color="#24FE41"/>
</linearGradient>
<linearGradient id="paint2_linear_4_15993" x1="17" y1="32.0004" x2="46.9995" y2="32.0004" gradientUnits="userSpaceOnUse">
<stop stop-color="#FDFC47"/>
<stop offset="1" stop-color="#24FE41"/>
</linearGradient>
<clipPath id="clip0_4_15993">
<rect width="64" height="64" fill="white"/>
</clipPath>
</defs>
</svg>
