<svg width="64" height="64" viewBox="0 0 64 64" fill="none" xmlns="http://www.w3.org/2000/svg">
<g opacity="0.3" filter="url(#filter0_f_4_15957)">
<path d="M44.5003 4.50003H19.5001C11.2158 4.50003 4.5 11.2158 4.5 19.5001V44.5003C4.5 52.7846 11.2158 59.5004 19.5001 59.5004H44.5003C52.7846 59.5004 59.5004 52.7846 59.5004 44.5003V19.5001C59.5004 11.2158 52.7846 4.50003 44.5003 4.50003Z" fill="#232323"/>
<path d="M19.5001 5.00003H44.5003C52.5085 5.00003 59.0004 11.4919 59.0004 19.5001V44.5003C59.0004 52.5085 52.5085 59.0004 44.5003 59.0004H19.5001C11.4919 59.0004 5 52.5085 5 44.5003V19.5001C5 11.4919 11.4919 5.00003 19.5001 5.00003Z" stroke="url(#paint0_linear_4_15957)"/>
</g>
<path d="M19.5001 5.00037H44.5007C52.5089 5.00037 59.0008 11.4923 59.0008 19.5005V44.501C59.0008 52.5092 52.5089 59.0011 44.5007 59.0011H19.5001C11.4919 59.0011 5 52.5092 5 44.501V19.5005C5 11.4923 11.4919 5.00037 19.5001 5.00037Z" fill="#232323" stroke="url(#paint1_linear_4_15957)"/>
<path d="M43.0213 14.2582L42.1562 16.569C42.0999 16.7206 42.1576 16.9218 42.285 17.0197L43.303 17.7989C43.4277 17.8941 43.641 17.8995 43.7724 17.8056L45.7788 16.3732C45.9103 16.2794 46.1101 16.2955 46.2241 16.4108L47.065 17.2517C47.1817 17.3684 47.1965 17.5656 47.1025 17.697L45.6701 19.7021C45.5762 19.8336 45.5802 20.0441 45.678 20.1716L46.4586 21.1896C46.5538 21.3143 46.759 21.3747 46.9092 21.3183L49.2174 20.4533C49.369 20.3969 49.5568 20.4639 49.6372 20.6048L50.2313 21.6335C50.3145 21.777 50.277 21.9702 50.1522 22.0734L48.2478 23.6413C48.123 23.7446 48.0721 23.9484 48.1338 24.0959L48.6233 25.2802C48.6837 25.425 48.8647 25.5364 49.0256 25.5216L51.4814 25.2829C51.6423 25.2667 51.8073 25.3808 51.8489 25.5377L52.156 26.6858C52.1989 26.8454 52.1131 27.0224 51.9655 27.0895L49.7193 28.1115C49.5718 28.1786 49.4699 28.3623 49.4913 28.5219L49.659 29.792C49.679 29.9476 49.8266 30.1019 49.9862 30.1287L52.4191 30.5337C52.5787 30.5605 52.7074 30.7134 52.7074 30.8744V32.0627C52.7074 32.2277 52.5787 32.3779 52.4191 32.4033L49.9888 32.8083C49.8292 32.8352 49.6831 32.9854 49.6629 33.145L49.4966 34.4165C49.4765 34.5721 49.5784 34.7598 49.7246 34.8269L51.967 35.8476C52.1132 35.9146 52.199 36.0957 52.1575 36.2513L51.8504 37.3994C51.8074 37.559 51.6438 37.6703 51.4829 37.6542L49.0299 37.4168C48.8689 37.4006 48.6892 37.5093 48.6275 37.6582L48.1353 38.8425C48.075 38.9873 48.1247 39.1952 48.2493 39.2971L50.1538 40.865C50.2785 40.9683 50.3147 41.1641 50.2329 41.3049L49.6388 42.3336C49.5556 42.4771 49.3692 42.5415 49.2176 42.4852L46.9068 41.6201C46.7552 41.5638 46.5541 41.6214 46.4562 41.7488L45.6769 42.7668C45.5817 42.8916 45.5763 43.1048 45.6701 43.2363L47.1025 45.2427C47.1964 45.3741 47.1803 45.574 47.0651 45.688L46.2242 46.5289C46.1075 46.6456 45.9104 46.6603 45.7789 46.5663L43.7738 45.1339C43.6423 45.0401 43.4318 45.0441 43.3044 45.1419L42.2864 45.9224C42.1617 46.0176 42.1013 46.2228 42.1576 46.3731L43.0227 48.6813C43.079 48.8328 43.0121 49.0206 42.8712 49.1011L41.8425 49.6952C41.699 49.7784 41.5058 49.7408 41.4025 49.6161L39.8347 47.7116C39.7314 47.5869 39.5276 47.5359 39.38 47.5976L38.1958 48.0872C38.0509 48.1475 37.9396 48.3286 37.9544 48.4895L38.1931 50.9452C38.2094 51.1062 38.0952 51.2711 37.9383 51.3127L36.7902 51.6199C36.6306 51.6628 36.4535 51.5769 36.3865 51.4294L35.3644 49.1831C35.2974 49.0356 35.1136 48.9337 34.954 48.9551L33.6839 49.1228C33.5283 49.1428 33.3741 49.2904 33.3472 49.45L32.9422 51.8829C32.9154 52.0425 32.7625 52.1713 32.6015 52.1713H31.4132C31.2482 52.1713 31.098 52.0425 31.0726 51.8829L30.6675 49.4527C30.6407 49.293 30.4905 49.1469 30.3309 49.1267L29.0595 48.9603C28.9039 48.9403 28.7161 49.0421 28.6491 49.1883L27.6284 51.4308C27.5613 51.5769 27.3803 51.6628 27.2247 51.6212L26.0766 51.3141C25.917 51.2711 25.8057 51.1076 25.8218 50.9466L26.0591 48.4936C26.0754 48.3327 25.9666 48.1529 25.8177 48.0912L24.6335 47.599C24.4886 47.5387 24.2807 47.5884 24.1788 47.713L22.611 49.6175C22.5077 49.7422 22.3119 49.7784 22.1711 49.6966L21.1424 49.1025C20.9989 49.0193 20.9345 48.8329 20.9908 48.6814L21.8558 46.3705C21.9122 46.2189 21.8545 46.0178 21.7271 45.9199L20.7091 45.1407C20.5843 45.0455 20.3711 45.0401 20.2396 45.1339L18.2332 46.5663C18.1018 46.6601 17.902 46.6441 17.788 46.5288L16.947 45.6878C16.8304 45.5711 16.8156 45.3739 16.9096 45.2425L18.3419 43.2374C18.4358 43.1059 18.4317 42.8954 18.3339 42.7679L17.5534 41.7499C17.4582 41.6252 17.253 41.5649 17.1027 41.6212L14.7945 42.4862C14.643 42.5426 14.4552 42.4757 14.3747 42.3347L13.7805 41.3061C13.6974 41.1626 13.7349 40.9694 13.8597 40.8662L15.7641 39.2983C15.8889 39.195 15.9398 38.9912 15.8781 38.8437L15.3886 37.6594C15.3282 37.5146 15.1472 37.4032 14.9863 37.418L12.5305 37.6567C12.3696 37.673 12.2046 37.5588 12.1631 37.4019L11.8559 36.2538C11.813 36.0942 11.8988 35.9171 12.0464 35.8501L14.2929 34.8281C14.4404 34.761 14.5423 34.5773 14.5209 34.4177L14.3532 33.1476C14.3332 32.992 14.1855 32.8378 14.026 32.8109L11.593 32.4059C11.4334 32.3791 11.3047 32.2262 11.3047 32.0652V30.8769C11.3047 30.712 11.4335 30.5618 11.593 30.5363L14.0233 30.1313C14.1829 30.1045 14.3291 29.9542 14.3492 29.7946L14.5156 28.5231C14.5356 28.3675 14.4338 28.1798 14.2875 28.1127L12.045 27.0921C11.8989 27.025 11.813 26.8439 11.8546 26.6883L12.1617 25.5403C12.2047 25.3807 12.3682 25.2693 12.5292 25.2854L14.9822 25.5228C15.1432 25.539 15.3229 25.4303 15.3846 25.2814L15.8768 24.0971C15.9371 23.9523 15.8874 23.7444 15.7628 23.6425L13.8583 22.0746C13.7336 21.9714 13.6973 21.7755 13.7791 21.6347L14.3733 20.606C14.4564 20.4625 14.6429 20.3981 14.7944 20.4545L17.1053 21.3195C17.2568 21.3759 17.458 21.3182 17.5559 21.1908L18.3351 20.1728C18.4303 20.048 18.4357 19.8348 18.3419 19.7034L16.9096 17.6969C16.8157 17.5655 16.8317 17.3657 16.947 17.2517L17.7878 16.4108C17.9045 16.2941 18.1016 16.2793 18.2331 16.3732L20.2382 17.8056C20.3697 17.8995 20.5802 17.8954 20.7076 17.7975L21.7256 17.017C21.8504 16.9218 21.9107 16.7165 21.8544 16.5663L20.9893 14.2581C20.933 14.1065 20.9999 13.9188 21.1409 13.8383L22.1696 13.2442C22.3131 13.161 22.5063 13.1986 22.6095 13.3233L24.1774 15.2278C24.2807 15.3525 24.4845 15.4035 24.632 15.3418L25.8163 14.8523C25.9611 14.7919 26.0725 14.6109 26.0577 14.4499L25.819 11.9942C25.8027 11.8333 25.9169 11.6683 26.0738 11.6267L27.2219 11.3196C27.3815 11.2767 27.5585 11.3625 27.6256 11.51L28.6477 13.7565C28.7148 13.904 28.8985 14.006 29.0581 13.9845L30.3283 13.8169C30.4838 13.7968 30.6381 13.6492 30.6649 13.4896L31.0699 11.0567C31.0968 10.8971 31.2497 10.7684 31.4106 10.7684H32.5989C32.7639 10.7684 32.9141 10.8971 32.9396 11.0567L33.3446 13.487C33.3714 13.6466 33.5216 13.7928 33.6812 13.8129L34.9527 13.9792C35.1083 13.9992 35.2961 13.8974 35.3631 13.7512L36.3838 11.5087C36.4508 11.3625 36.6319 11.2767 36.7875 11.3183L37.9356 11.6254C38.0952 11.6683 38.2065 11.832 38.1904 11.9929L37.953 14.4459C37.9368 14.6068 38.0456 14.7866 38.1944 14.8482L39.3787 15.3405C39.5235 15.4008 39.7315 15.3511 39.8333 15.2265L41.4012 13.322C41.5045 13.1973 41.7002 13.1611 41.8411 13.2429L42.8698 13.837C43.0132 13.9202 43.0776 14.1066 43.0213 14.2582ZM39.0837 19.1815C35.7496 17.2556 31.958 16.8371 28.499 17.7142C27.8324 17.8832 28.224 17.7907 28.224 17.7907C27.2959 18.1072 26.9257 19.0634 27.3938 19.9165C27.3938 19.9165 27.1243 19.4242 27.415 19.954C28.8018 22.4848 31.5779 27.5491 31.5779 27.5491C32.2055 28.6945 33.7733 29.6011 35.081 29.5744C35.081 29.5744 41.2316 29.447 44.3082 29.3826C45.255 29.3626 45.8707 28.5659 45.6641 27.6739C44.704 24.2163 42.4378 21.1182 39.0837 19.1815ZM38.8517 43.882C42.2194 42.015 44.5302 38.9813 45.5601 35.5642C45.7586 34.9057 45.6366 35.2893 45.6366 35.2893C45.8431 34.3303 45.2141 33.5216 44.2417 33.4826C44.2417 33.4826 44.8023 33.5057 44.1988 33.4813C41.3153 33.3673 35.5458 33.138 35.5458 33.138C34.2408 33.0857 32.6555 33.9627 32.0051 35.0974C32.0051 35.0974 28.9471 40.435 27.417 43.1056C26.9463 43.9278 27.3137 44.8653 28.1841 45.1483C31.6431 46.1059 35.4652 45.7597 38.8517 43.882ZM22.0616 41.6221C22.7416 42.235 23.738 42.0834 24.2142 41.264C25.762 38.6044 28.8548 33.2871 28.8548 33.2871C29.512 32.1565 29.4798 30.3458 28.7824 29.2407C28.7824 29.2407 25.6989 24.3574 24.158 21.9181C23.8348 21.4071 24.135 21.8819 24.135 21.8819C23.6161 21.0597 22.6008 20.9189 21.8739 21.5774C21.8739 21.5774 22.1448 21.2797 21.674 21.7813C19.2304 24.3818 17.758 27.8993 17.8249 31.7507C17.8919 35.6225 19.5027 39.1052 22.0616 41.6221Z" fill="url(#paint2_linear_4_15957)"/>
<defs>
<filter id="filter0_f_4_15957" x="3.26249" y="3.26252" width="57.475" height="57.4754" filterUnits="userSpaceOnUse" color-interpolation-filters="sRGB">
<feFlood flood-opacity="0" result="BackgroundImageFix"/>
<feBlend mode="normal" in="SourceGraphic" in2="BackgroundImageFix" result="shape"/>
<feGaussianBlur stdDeviation="0.618754" result="effect1_foregroundBlur_4_15957"/>
</filter>
<linearGradient id="paint0_linear_4_15957" x1="4.5" y1="32.0002" x2="59.5004" y2="32.0002" gradientUnits="userSpaceOnUse">
<stop stop-color="#FDFC47"/>
<stop offset="1" stop-color="#24FE41"/>
</linearGradient>
<linearGradient id="paint1_linear_4_15957" x1="4.5" y1="32.0008" x2="59.5008" y2="32.0008" gradientUnits="userSpaceOnUse">
<stop stop-color="#FDFC47"/>
<stop offset="1" stop-color="#24FE41"/>
</linearGradient>
<linearGradient id="paint2_linear_4_15957" x1="11.3047" y1="31.4698" x2="52.7074" y2="31.4698" gradientUnits="userSpaceOnUse">
<stop stop-color="#FDFC47"/>
<stop offset="1" stop-color="#24FE41"/>
</linearGradient>
</defs>
</svg>
