<svg width="64" height="64" viewBox="0 0 64 64" fill="none" xmlns="http://www.w3.org/2000/svg">
<g clip-path="url(#clip0_4_15727)">
<g opacity="0.3" filter="url(#filter0_f_4_15727)">
<path d="M44.5 4.49979H19.5C11.2157 4.49979 4.5 11.2155 4.5 19.4998V44.4998C4.5 52.7841 11.2157 59.4998 19.5 59.4998H44.5C52.7843 59.4998 59.5 52.7841 59.5 44.4998V19.4998C59.5 11.2155 52.7843 4.49979 44.5 4.49979Z" fill="url(#paint0_linear_4_15727)"/>
</g>
<path d="M19.4961 4.99979H44.4971C52.5052 4.99979 58.9971 11.4917 58.9971 19.4998V44.5008C58.9971 52.5089 52.5052 59.0008 44.4971 59.0008H19.4961C11.488 59.0008 4.99609 52.5089 4.99609 44.5008V19.4998C4.99609 11.4917 11.488 4.99979 19.4961 4.99979Z" fill="#232323" stroke="url(#paint1_linear_4_15727)"/>
<path d="M50.2439 30.39C50.2439 29.001 50.4215 28.9739 51.2783 28.4443C52.2578 27.839 52.2669 27.6071 51.1217 27.2143C50.4395 26.9804 50.1213 26.7779 49.6406 25.1128L50.2439 30.39Z" fill="url(#paint2_linear_4_15727)"/>
<path d="M38.2641 17.3572C36.2431 17.2871 33.9317 17.618 32.5697 18.2544C26.983 20.5826 24.1685 30.3997 18.2628 29.8247C16.208 29.5813 14.614 28.5073 13.3937 26.5435C11.4756 27.1586 11.7419 31.8644 12.9317 34.3102C17.7179 44.1488 26.602 48.3985 36.6381 45.9953C44.3964 43.675 49.5717 37.7955 50.2432 30.3904C50.554 28.0118 50.5034 27.5037 49.6399 25.1131C47.0023 19.8098 42.5062 17.5296 38.2641 17.3572ZM41.1864 22.7309C42.1377 22.7309 42.9089 23.5021 42.9089 24.4534C42.9089 25.4046 42.1377 26.1758 41.1864 26.1758C40.2352 26.1758 39.464 25.4046 39.464 24.4534C39.464 23.5021 40.2352 22.7309 41.1864 22.7309ZM41.7718 23.4172C41.4547 23.4172 41.1977 23.6743 41.1977 23.9914C41.1977 24.3084 41.4547 24.5655 41.7718 24.5655C42.0889 24.5655 42.346 24.3084 42.346 23.9914C42.346 23.6743 42.0889 23.4172 41.7718 23.4172Z" fill="url(#paint3_linear_4_15727)"/>
<path d="M26.5774 36.7607C25.2748 36.6372 22.2815 36.0155 21.4322 35.6921L20.6914 35.41L22.741 34.4126C24.4542 33.5789 24.98 33.1692 25.9446 31.9155C27.22 30.2582 28.3613 29.704 29.9039 29.9934C31.1057 30.2189 32.375 31.5916 32.5215 32.8243C32.6643 34.0266 31.8395 35.5845 30.7299 36.2084C29.938 36.6536 28.0694 36.9022 26.5774 36.7607Z" fill="#232323"/>
</g>
<defs>
<filter id="filter0_f_4_15727" x="3.2625" y="3.26229" width="57.475" height="57.475" filterUnits="userSpaceOnUse" color-interpolation-filters="sRGB">
<feFlood flood-opacity="0" result="BackgroundImageFix"/>
<feBlend mode="normal" in="SourceGraphic" in2="BackgroundImageFix" result="shape"/>
<feGaussianBlur stdDeviation="0.61875" result="effect1_foregroundBlur_4_15727"/>
</filter>
<linearGradient id="paint0_linear_4_15727" x1="4.5" y1="31.9998" x2="59.5" y2="31.9998" gradientUnits="userSpaceOnUse">
<stop stop-color="#FDFC47"/>
<stop offset="1" stop-color="#24FE41"/>
</linearGradient>
<linearGradient id="paint1_linear_4_15727" x1="4.49609" y1="32.0003" x2="59.4971" y2="32.0003" gradientUnits="userSpaceOnUse">
<stop stop-color="#FDFC47"/>
<stop offset="1" stop-color="#24FE41"/>
</linearGradient>
<linearGradient id="paint2_linear_4_15727" x1="49.6406" y1="27.7514" x2="51.9977" y2="27.7514" gradientUnits="userSpaceOnUse">
<stop stop-color="#FDFC47"/>
<stop offset="1" stop-color="#24FE41"/>
</linearGradient>
<linearGradient id="paint3_linear_4_15727" x1="11.9961" y1="32.0004" x2="50.4174" y2="32.0004" gradientUnits="userSpaceOnUse">
<stop stop-color="#FDFC47"/>
<stop offset="1" stop-color="#24FE41"/>
</linearGradient>
<clipPath id="clip0_4_15727">
<rect width="64" height="64" fill="white"/>
</clipPath>
</defs>
</svg>
