<svg width="64" height="64" viewBox="0 0 64 64" fill="none" xmlns="http://www.w3.org/2000/svg">
<g clip-path="url(#clip0_4_15503)">
<path opacity="0.01" d="M16.5144 2C8.52359 2 2 8.74092 2 16.9982V49.002C2 57.2589 8.52359 64.0002 16.5144 64.0002H47.486C55.4768 64.0002 62.0004 57.2593 62.0004 49.002V16.9982C62.0004 8.74129 55.4768 2 47.486 2H16.5144ZM17.4859 3.96876H46.5163C53.487 3.96876 59.0989 9.76742 59.0989 16.9706V46.9685C59.0989 54.1717 53.4874 59.9703 46.5163 59.9703H17.4859C10.5152 59.9703 4.90326 54.1717 4.90326 46.9685V16.9706C4.90326 9.76742 10.5148 3.96876 17.4859 3.96876Z" fill="url(#paint0_linear_4_15503)"/>
<path opacity="0.01" d="M16.474 2.99997C9.0403 2.99997 3.00391 9.24689 3.00391 16.9376V49.0627C3.00391 56.7534 9.0403 63.0004 16.474 63.0004H47.528C54.9617 63.0004 61 56.7534 61 49.0627V16.9376C61 9.24689 54.9617 2.99997 47.528 2.99997H16.474ZM17.5029 3.96872H46.4992C53.462 3.96872 59.0668 9.76738 59.0668 16.9705V46.9685C59.0668 54.1716 53.4616 59.9703 46.4992 59.9703H17.5029C10.5401 59.9703 4.93536 54.1716 4.93536 46.9685V16.9705C4.93536 9.76738 10.5405 3.96872 17.5029 3.96872Z" fill="url(#paint1_linear_4_15503)"/>
<path opacity="0.03" d="M16.2878 3.99994C9.23618 3.99994 3.53125 9.8141 3.53125 16.998V49.0017C3.53125 56.1856 9.46522 61.9998 16.5168 61.9998H47.508C54.5596 61.9998 60.4622 56.1856 60.4622 49.0017V16.998C60.4622 9.8141 54.755 3.99994 47.7038 3.99994H47.3376C54.1182 4.32693 59.4845 9.97889 59.4845 16.9708V46.9687C59.4845 54.1719 53.7928 59.9705 46.7223 59.9705H17.2774C10.2069 59.9705 4.51516 54.1719 4.51516 46.9687V16.9708C4.51516 9.97927 9.88181 4.32763 16.662 3.99994H16.2878Z" fill="url(#paint2_linear_4_15503)"/>
<path opacity="0.03" d="M4 46.9693V49.0005C4 55.6485 9.89574 61.0006 16.5441 61.0006H47.5053C54.1532 61.0006 60.0004 55.6485 60.0004 49.0005V47.0083C59.9792 54.1932 54.1903 59.9714 47.0003 59.9714H17.0021C9.79884 59.9714 4 54.1726 4 46.9693Z" fill="url(#paint3_linear_4_15503)"/>
<path opacity="0.05" d="M4 44.9999V47.2387C4 54.5659 9.94493 60.4647 16.5929 60.4647H47.4355C54.0835 60.4647 60.0001 54.5655 60.0001 47.2387V45.043C59.9789 52.962 54.1901 59.3302 47.0001 59.3302H17.0022C9.79904 59.3302 4 52.939 4 44.9999Z" fill="url(#paint4_linear_4_15503)"/>
<path d="M17.002 4.5H46.998C53.9027 4.5 59.5 10.0973 59.5 17.002V46.998C59.5 53.9027 53.9027 59.5 46.998 59.5H17.002C10.0973 59.5 4.5 53.9027 4.5 46.998V17.002C4.5 10.0973 10.0973 4.5 17.002 4.5Z" fill="#232323" stroke="url(#paint5_linear_4_15503)"/>
<g opacity="0.35" filter="url(#filter0_f_4_15503)">
<path d="M36.0956 17.243C32.7884 17.6697 29.2345 19.2793 26.3434 24.0414C19.733 34.9234 20.2024 38.7104 19.1489 39.9344C18.0914 41.1533 15.2416 41.8147 15.6537 43.2002C16.0658 44.5804 16.4818 44.4031 16.4818 44.4031C16.4818 44.4031 20.6438 50.4307 32.7138 48.8678C44.7828 47.3049 46.4558 44.7578 46.3468 43.4936C46.2375 42.2281 43.6904 41.3053 43.6904 41.3053C43.6904 41.3053 41.8048 34.6589 42.2888 31.9305C42.7729 29.2007 44.6118 25.2228 46.4294 24.3666C48.2417 23.5025 49.1485 27.2577 50.086 26.3309C51.0182 25.4041 48.5124 18.2496 45.7413 18.1936C44.1891 18.1629 40.3285 16.6987 36.0945 17.2508M36.1052 26.3829L37.0267 29.1073L39.8245 29.8994L37.4601 31.5823L37.5641 34.4427L35.1997 32.7598L32.4126 33.7333L33.3087 31.0395L31.5111 28.7791L34.4489 28.7524M26.661 34.3893L26.7597 36.3629L28.5253 37.4204L26.6183 38.1085L26.1396 40.0621L24.8421 38.5405L22.8111 38.6712L23.8993 37.0256L23.1232 35.176L25.0928 35.6868M34.5369 34.8013L36.4279 37.3324L39.6217 37.2071L37.7667 39.7702L38.8549 42.688L35.7918 41.7398L33.2754 43.6828L33.254 40.537L30.6029 38.8074L33.6394 37.8126" fill="url(#paint6_linear_4_15503)"/>
</g>
<path d="M35.1464 16.116C31.8392 16.5427 28.2853 18.1523 25.3942 22.9144C18.7838 33.7964 19.2532 37.5834 18.1997 38.8074C17.1422 40.0263 14.2924 40.6877 14.7045 42.0732C15.1165 43.4534 15.5326 43.2761 15.5326 43.2761C15.5326 43.2761 19.6946 49.3037 31.7646 47.7408C43.8336 46.1779 45.5066 43.6308 45.3976 42.3666C45.2883 41.1011 42.7412 40.1783 42.7412 40.1783C42.7412 40.1783 40.8556 33.5319 41.3396 30.8035C41.8237 28.0737 43.6626 24.0958 45.4802 23.2396C47.2925 22.3755 48.1993 26.1307 49.1368 25.2039C50.069 24.2771 47.5632 17.1226 44.7921 17.0666C43.2399 17.0359 39.3793 15.5717 35.1453 16.1238M35.156 25.2559L36.0775 27.9803L38.8753 28.7724L36.5109 30.4553L36.6149 33.3157L34.2505 31.6328L31.4634 32.6063L32.3595 29.9125L30.5619 27.6521L33.4997 27.6254M25.7118 33.2623L25.8105 35.2359L27.5761 36.2934L25.6691 36.9816L25.1904 38.9352L23.8929 37.4136L21.8619 37.5442L22.9501 35.8986L22.1739 34.049L24.1435 34.5598M33.5876 33.6743L35.4786 36.2054L38.6724 36.0801L36.8174 38.6432L37.9056 41.561L34.8425 40.6128L32.3261 42.5558L32.3048 39.41L29.6537 37.6804L32.6902 36.6856" fill="url(#paint7_linear_4_15503)"/>
</g>
<defs>
<filter id="filter0_f_4_15503" x="12.6131" y="14.1263" width="40.6722" height="38.0004" filterUnits="userSpaceOnUse" color-interpolation-filters="sRGB">
<feFlood flood-opacity="0" result="BackgroundImageFix"/>
<feBlend mode="normal" in="SourceGraphic" in2="BackgroundImageFix" result="shape"/>
<feGaussianBlur stdDeviation="1.50009" result="effect1_foregroundBlur_4_15503"/>
</filter>
<linearGradient id="paint0_linear_4_15503" x1="2" y1="33.0001" x2="62.0004" y2="33.0001" gradientUnits="userSpaceOnUse">
<stop stop-color="#FDFC47"/>
<stop offset="1" stop-color="#24FE41"/>
</linearGradient>
<linearGradient id="paint1_linear_4_15503" x1="3.00391" y1="33.0002" x2="61" y2="33.0002" gradientUnits="userSpaceOnUse">
<stop stop-color="#FDFC47"/>
<stop offset="1" stop-color="#24FE41"/>
</linearGradient>
<linearGradient id="paint2_linear_4_15503" x1="3.53125" y1="32.9999" x2="60.4622" y2="32.9999" gradientUnits="userSpaceOnUse">
<stop stop-color="#FDFC47"/>
<stop offset="1" stop-color="#24FE41"/>
</linearGradient>
<linearGradient id="paint3_linear_4_15503" x1="4" y1="53.9849" x2="60.0004" y2="53.9849" gradientUnits="userSpaceOnUse">
<stop stop-color="#FDFC47"/>
<stop offset="1" stop-color="#24FE41"/>
</linearGradient>
<linearGradient id="paint4_linear_4_15503" x1="4" y1="52.7323" x2="60.0001" y2="52.7323" gradientUnits="userSpaceOnUse">
<stop stop-color="#FDFC47"/>
<stop offset="1" stop-color="#24FE41"/>
</linearGradient>
<linearGradient id="paint5_linear_4_15503" x1="4" y1="32" x2="60" y2="32" gradientUnits="userSpaceOnUse">
<stop stop-color="#FDFC47"/>
<stop offset="1" stop-color="#24FE41"/>
</linearGradient>
<linearGradient id="paint6_linear_4_15503" x1="15.6133" y1="33.1265" x2="50.2843" y2="33.1265" gradientUnits="userSpaceOnUse">
<stop stop-color="#FDFC47"/>
<stop offset="1" stop-color="#24FE41"/>
</linearGradient>
<linearGradient id="paint7_linear_4_15503" x1="14.6641" y1="31.9995" x2="49.3351" y2="31.9995" gradientUnits="userSpaceOnUse">
<stop stop-color="#FDFC47"/>
<stop offset="1" stop-color="#24FE41"/>
</linearGradient>
<clipPath id="clip0_4_15503">
<rect width="64" height="64" fill="white"/>
</clipPath>
</defs>
</svg>
