<svg width="64" height="64" viewBox="0 0 64 64" fill="none" xmlns="http://www.w3.org/2000/svg">
<g opacity="0.3" filter="url(#filter0_f_4_15178)">
<path d="M44.5 4.50009H19.5C11.2157 4.50009 4.5 11.2158 4.5 19.5001V44.5001C4.5 52.7844 11.2157 59.5001 19.5 59.5001H44.5C52.7843 59.5001 59.5 52.7844 59.5 44.5001V19.5001C59.5 11.2158 52.7843 4.50009 44.5 4.50009Z" fill="#232323"/>
<path d="M19.5 5.00009H44.5C52.5081 5.00009 59 11.492 59 19.5001V44.5001C59 52.5082 52.5081 59.0001 44.5 59.0001H19.5C11.4919 59.0001 5 52.5082 5 44.5001V19.5001C5 11.492 11.4919 5.00009 19.5 5.00009Z" stroke="url(#paint0_linear_4_15178)"/>
</g>
<path d="M19.5 5.00009H44.5C52.5081 5.00009 59 11.492 59 19.5001V44.5001C59 52.5082 52.5081 59.0001 44.5 59.0001H19.5C11.4919 59.0001 5 52.5082 5 44.5001V19.5001C5 11.492 11.4919 5.00009 19.5 5.00009Z" fill="#232323" stroke="url(#paint1_linear_4_15178)"/>
<path d="M34.5334 37.1428C37.3737 37.1428 39.6762 34.8403 39.6762 32C39.6762 29.1597 37.3737 26.8572 34.5334 26.8572C31.6931 26.8572 29.3906 29.1597 29.3906 32C29.3906 34.8403 31.6931 37.1428 34.5334 37.1428Z" fill="#232323" stroke="url(#paint2_linear_4_15178)" stroke-width="2" stroke-linecap="round"/>
<path d="M25.9727 23.589C27.6425 21.8901 29.7801 20.7267 32.1134 20.2467C34.4466 19.7668 36.8699 19.9922 39.0747 20.8942C41.2795 21.7962 43.166 23.3341 44.4939 25.3119C45.8217 27.2897 46.5309 29.618 46.531 32.0002C46.5311 34.3826 45.822 36.7111 44.4941 38.6891C43.1663 40.6671 41.2797 42.2051 39.0747 43.1072C36.8698 44.0091 34.4465 44.2343 32.1132 43.7543C29.7799 43.2742 27.6423 42.1105 25.9727 40.4115" fill="#232323"/>
<path d="M25.9727 23.589C27.6425 21.8901 29.7801 20.7267 32.1134 20.2467C34.4466 19.7668 36.8699 19.9922 39.0747 20.8942C41.2795 21.7962 43.166 23.3341 44.4939 25.3119C45.8217 27.2897 46.5309 29.618 46.531 32.0002C46.5311 34.3826 45.822 36.7111 44.4941 38.6891C43.1663 40.6671 41.2797 42.2051 39.0747 43.1072C36.8698 44.0091 34.4465 44.2343 32.1132 43.7543C29.7799 43.2742 27.6423 42.1105 25.9727 40.4115" stroke="url(#paint3_linear_4_15178)" stroke-width="2" stroke-linecap="round"/>
<path d="M16.4062 37.199C15.4323 33.8025 15.4323 30.2006 16.4062 26.804V37.199Z" fill="#232323"/>
<path d="M16.4062 37.199C15.4323 33.8025 15.4323 30.2006 16.4062 26.804" stroke="url(#paint4_linear_4_15178)" stroke-width="2" stroke-linecap="round"/>
<path d="M38.7734 13.6264C42.4348 14.4716 45.7601 16.3914 48.3228 19.1395L38.7734 13.6264Z" fill="#232323"/>
<path d="M38.7734 13.6264C42.4348 14.4716 45.7601 16.3914 48.3228 19.1395" stroke="url(#paint5_linear_4_15178)" stroke-width="2" stroke-linecap="round"/>
<path d="M48.3228 44.861C45.7601 47.6091 42.4348 49.5289 38.7734 50.3741L48.3228 44.861Z" fill="#232323"/>
<path d="M48.3228 44.861C45.7601 47.6091 42.4348 49.5289 38.7734 50.3741" stroke="url(#paint6_linear_4_15178)" stroke-width="2" stroke-linecap="round"/>
<path d="M23.0558 35.508C22.3774 33.2896 22.3566 30.9221 22.9958 28.692L23.0558 35.508Z" fill="#232323"/>
<path d="M23.0558 35.508C22.3774 33.2896 22.3566 30.9221 22.9958 28.692" stroke="url(#paint7_linear_4_15178)" stroke-width="2" stroke-linecap="round"/>
<defs>
<filter id="filter0_f_4_15178" x="3.2625" y="3.26259" width="57.475" height="57.475" filterUnits="userSpaceOnUse" color-interpolation-filters="sRGB">
<feFlood flood-opacity="0" result="BackgroundImageFix"/>
<feBlend mode="normal" in="SourceGraphic" in2="BackgroundImageFix" result="shape"/>
<feGaussianBlur stdDeviation="0.61875" result="effect1_foregroundBlur_4_15178"/>
</filter>
<linearGradient id="paint0_linear_4_15178" x1="4.5" y1="32.0001" x2="59.5" y2="32.0001" gradientUnits="userSpaceOnUse">
<stop stop-color="#FDFC47"/>
<stop offset="1" stop-color="#24FE41"/>
</linearGradient>
<linearGradient id="paint1_linear_4_15178" x1="4.5" y1="32.0001" x2="59.5" y2="32.0001" gradientUnits="userSpaceOnUse">
<stop stop-color="#FDFC47"/>
<stop offset="1" stop-color="#24FE41"/>
</linearGradient>
<linearGradient id="paint2_linear_4_15178" x1="29.3906" y1="32" x2="39.6762" y2="32" gradientUnits="userSpaceOnUse">
<stop stop-color="#FDFC47"/>
<stop offset="1" stop-color="#24FE41"/>
</linearGradient>
<linearGradient id="paint3_linear_4_15178" x1="25.9727" y1="32.0006" x2="46.531" y2="32.0006" gradientUnits="userSpaceOnUse">
<stop stop-color="#FDFC47"/>
<stop offset="1" stop-color="#24FE41"/>
</linearGradient>
<linearGradient id="paint4_linear_4_15178" x1="15.6758" y1="32.0015" x2="16.4062" y2="32.0015" gradientUnits="userSpaceOnUse">
<stop stop-color="#FDFC47"/>
<stop offset="1" stop-color="#24FE41"/>
</linearGradient>
<linearGradient id="paint5_linear_4_15178" x1="38.7734" y1="16.383" x2="48.3228" y2="16.383" gradientUnits="userSpaceOnUse">
<stop stop-color="#FDFC47"/>
<stop offset="1" stop-color="#24FE41"/>
</linearGradient>
<linearGradient id="paint6_linear_4_15178" x1="38.7734" y1="47.6175" x2="48.3228" y2="47.6175" gradientUnits="userSpaceOnUse">
<stop stop-color="#FDFC47"/>
<stop offset="1" stop-color="#24FE41"/>
</linearGradient>
<linearGradient id="paint7_linear_4_15178" x1="22.5312" y1="32.1" x2="23.0558" y2="32.1" gradientUnits="userSpaceOnUse">
<stop stop-color="#FDFC47"/>
<stop offset="1" stop-color="#24FE41"/>
</linearGradient>
</defs>
</svg>
