<svg width="64" height="64" viewBox="0 0 64 64" fill="none" xmlns="http://www.w3.org/2000/svg">
<g clip-path="url(#clip0_4_15297)">
<g opacity="0.3" filter="url(#filter0_f_4_15297)">
<path d="M44.5 4.5H19.5C11.2157 4.5 4.5 11.2157 4.5 19.5V44.5C4.5 52.7843 11.2157 59.5 19.5 59.5H44.5C52.7843 59.5 59.5 52.7843 59.5 44.5V19.5C59.5 11.2157 52.7843 4.5 44.5 4.5Z" fill="url(#paint0_linear_4_15297)"/>
</g>
<path d="M19.5 5H44.5C52.5081 5 59 11.4919 59 19.5V44.5C59 52.5081 52.5081 59 44.5 59H19.5C11.4919 59 5 52.5081 5 44.5V19.5C5 11.4919 11.4919 5 19.5 5Z" fill="#232323" stroke="url(#paint1_linear_4_15297)"/>
<path fill-rule="evenodd" clip-rule="evenodd" d="M32.0021 14.5C27.4819 14.502 23.1382 16.2544 19.882 19.3896C16.6258 22.5247 14.7103 26.799 14.5372 31.3159C20.3368 27.2235 30.2039 20.5063 32.651 20.3285C33.4612 19.2992 36.2556 18.4683 36.7599 18.489L35.2925 20.3285C35.2925 20.3285 35.2677 22.1887 34.7262 22.5483C39.7817 25.9255 42.1957 38.0497 43.2292 45.4076L42.7951 45.7549C44.8839 44.1223 46.5732 42.0353 47.735 39.6524C48.8967 37.2694 49.5003 34.6531 49.5 32.0021C49.5005 29.7039 49.0483 27.4281 48.1692 25.3046C47.2901 23.1812 46.0013 21.2518 44.3764 19.6265C42.7515 18.0012 40.8224 16.712 38.6992 15.8323C36.576 14.9527 34.3003 14.5 32.0021 14.5ZM31.754 28.877C30.3899 28.9183 27.6286 32.9818 24.4787 37.3304C22.9658 39.4221 21.0064 42.2826 19.5596 44.2667L18.5262 43.13C21.4859 38.277 25.1773 32.3534 24.9996 32.1343C24.9582 32.1137 24.9128 32.0806 24.8549 32.093C23.8545 32.2418 19.82 37.2643 16.9389 40.8771C18.4812 43.5018 20.6823 45.6782 23.3244 47.1906C25.9664 48.703 28.9577 49.4991 32.0021 49.5C35.9001 49.5 39.484 48.2103 42.3942 46.0566C40.2405 39.4717 36.0779 28.9514 31.8946 28.9266C31.8532 28.9183 31.7954 28.877 31.754 28.877ZM21.5975 30.5801C20.3574 30.5718 17.1745 31.6962 14.5372 32.7089C14.6405 35.3214 15.3102 37.781 16.4387 39.9718C16.9678 39.1699 17.8855 37.8554 18.4353 37.0493C20.531 33.9656 22.5938 31.2373 22.1142 30.6752C22.0316 30.5801 21.8414 30.5801 21.5975 30.5801ZM14.5165 31.6838C14.5165 31.7913 14.5 31.8905 14.5 32.0021C14.5 32.1467 14.5207 32.2914 14.5248 32.4361L14.5165 31.6838ZM16.4718 40.0421C16.5792 40.2529 16.695 40.4596 16.8107 40.6663L16.4718 40.0421Z" fill="url(#paint2_linear_4_15297)"/>
</g>
<defs>
<filter id="filter0_f_4_15297" x="3.2625" y="3.2625" width="57.475" height="57.475" filterUnits="userSpaceOnUse" color-interpolation-filters="sRGB">
<feFlood flood-opacity="0" result="BackgroundImageFix"/>
<feBlend mode="normal" in="SourceGraphic" in2="BackgroundImageFix" result="shape"/>
<feGaussianBlur stdDeviation="0.61875" result="effect1_foregroundBlur_4_15297"/>
</filter>
<linearGradient id="paint0_linear_4_15297" x1="4.5" y1="32" x2="59.5" y2="32" gradientUnits="userSpaceOnUse">
<stop stop-color="#FDFC47"/>
<stop offset="1" stop-color="#24FE41"/>
</linearGradient>
<linearGradient id="paint1_linear_4_15297" x1="4.5" y1="32" x2="59.5" y2="32" gradientUnits="userSpaceOnUse">
<stop stop-color="#FDFC47"/>
<stop offset="1" stop-color="#24FE41"/>
</linearGradient>
<linearGradient id="paint2_linear_4_15297" x1="14.5" y1="32" x2="49.5" y2="32" gradientUnits="userSpaceOnUse">
<stop stop-color="#FDFC47"/>
<stop offset="1" stop-color="#24FE41"/>
</linearGradient>
<clipPath id="clip0_4_15297">
<rect width="64" height="64" fill="white"/>
</clipPath>
</defs>
</svg>
