<svg width="64" height="64" viewBox="0 0 64 64" fill="none" xmlns="http://www.w3.org/2000/svg">
<g opacity="0.3" filter="url(#filter0_f_4_15165)">
<path d="M44.5003 4.50003H19.5001C11.2158 4.50003 4.5 11.2158 4.5 19.5001V44.5003C4.5 52.7846 11.2158 59.5004 19.5001 59.5004H44.5003C52.7846 59.5004 59.5004 52.7846 59.5004 44.5003V19.5001C59.5004 11.2158 52.7846 4.50003 44.5003 4.50003Z" fill="#232323"/>
<path d="M19.5001 5.00003H44.5003C52.5085 5.00003 59.0004 11.4919 59.0004 19.5001V44.5003C59.0004 52.5085 52.5085 59.0004 44.5003 59.0004H19.5001C11.4919 59.0004 5 52.5085 5 44.5003V19.5001C5 11.4919 11.4919 5.00003 19.5001 5.00003Z" stroke="url(#paint0_linear_4_15165)"/>
</g>
<path d="M19.4962 5.0015H44.4968C52.5049 5.0015 58.9969 11.4934 58.9969 19.5016V44.5022C58.9969 52.5103 52.5049 59.0023 44.4968 59.0023H19.4962C11.488 59.0023 4.99609 52.5103 4.99609 44.5022V19.5016C4.99609 11.4934 11.488 5.0015 19.4962 5.0015Z" fill="#232323" stroke="url(#paint1_linear_4_15165)"/>
<path d="M40.4008 15.9499C40.4079 15.9507 40.4151 15.9516 40.4223 15.9526C40.4428 15.9552 40.4634 15.9579 40.4839 15.9575C40.5555 15.9515 40.5565 15.9526 40.5649 15.9626C40.5671 15.9653 40.5699 15.9686 40.5746 15.9726M40.4008 15.9499C40.3748 15.9668 40.3533 15.9828 40.3372 15.9953L40.3917 16.0316L40.4008 15.9499ZM40.4008 15.9499L40.4829 16.0762L40.4861 16.0725L40.4929 16.0649L40.5746 15.9726M40.5746 15.9726L40.4933 16.0702L40.4863 16.0786L40.4852 16.0799L40.4863 16.0815L40.4954 16.0955L40.5014 16.1048L40.6807 16.2243L40.6827 16.2257L40.74 16.2639C40.7448 16.2553 40.751 16.2436 40.7575 16.2295L40.7576 16.2294C40.7605 16.2231 40.7672 16.2087 40.7745 16.188C40.7685 16.1806 40.7624 16.1731 40.756 16.1654C40.7016 16.0957 40.6408 16.0312 40.5746 15.9726ZM39.3576 27.1073C39.5504 26.9712 39.6751 26.7256 39.7356 26.3665C39.7517 26.2712 39.7892 26.1807 39.8452 26.1019C40.62 23.014 41.1756 19.7749 40.9677 16.6038C40.9674 16.5924 40.9674 16.5811 40.9677 16.5698L39.3576 27.1073ZM40.4781 16.788C40.6525 19.8094 40.1265 22.909 39.3796 25.9026C39.3119 26.02 39.2654 26.1487 39.2426 26.2829L39.2425 26.2835C39.219 26.4228 39.1877 26.5169 39.1572 26.5803C38.9827 25.8148 39.0098 25.0101 39.1158 24.1525C39.1667 23.7412 39.2342 23.3278 39.3036 22.9028C39.3121 22.8504 39.3207 22.7978 39.3293 22.745C39.4068 22.2687 39.4839 21.779 39.5338 21.2881L39.5346 21.2798L39.5352 21.2714C39.5368 21.2474 39.5377 21.2234 39.5378 21.1994C39.6542 20.6719 39.7417 20.1045 39.826 19.5577C39.8787 19.2162 39.9301 18.8828 39.9865 18.5721C40.1043 17.9242 40.2499 17.3247 40.4781 16.788ZM47.6087 17.9542C47.6113 17.9528 47.6138 17.9514 47.6163 17.9501L47.6087 17.9542ZM46.2638 19.2636C46.619 18.7685 46.9806 18.361 47.4022 18.0793C46.1071 21.3651 44.5455 24.7114 42.4986 27.5236L42.4985 27.5236L42.4932 27.5312C42.4861 27.5413 42.4793 27.5515 42.4725 27.5618C42.4423 27.6061 42.4203 27.6519 42.4047 27.6968C42.3816 27.7145 42.3564 27.7293 42.3295 27.741C42.2904 27.758 42.2487 27.7679 42.2064 27.7704C42.2048 27.7687 42.2031 27.7667 42.2013 27.7644C42.1915 27.7516 42.1684 27.7143 42.1637 27.6335C42.2409 26.5415 42.6183 25.5081 43.1353 24.4768C43.4753 23.7987 43.8579 23.1528 44.2477 22.4947C44.4649 22.128 44.6843 21.7575 44.8999 21.3756C44.9386 21.3104 44.9705 21.2415 44.995 21.1699C45.2162 20.8617 45.4232 20.5401 45.6219 20.2301L45.6442 20.1952C45.8531 19.8694 46.0532 19.5572 46.2638 19.2636Z" fill="url(#paint2_linear_4_15165)" stroke="url(#paint3_linear_4_15165)"/>
<path d="M26.1837 19.2074L26.1837 19.2074L26.1909 19.2046C26.2944 19.1638 26.4182 19.1035 26.5202 19.0538C26.5528 19.0379 26.5832 19.0231 26.61 19.0104C26.7451 18.9461 26.8197 18.9185 26.8534 18.9113C27.015 18.8883 27.1791 18.8887 27.3406 18.9126L27.3628 18.9159L27.3853 18.9172C27.6257 18.931 27.8608 18.9935 28.0762 19.101C28.2917 19.2085 28.483 19.3586 28.6386 19.5424L28.6387 19.5425C29.1936 20.1974 29.4879 21.2094 29.6868 22.3863C29.8544 23.4914 29.947 24.6065 29.964 25.724V26.9418L29.9631 26.9478C29.9617 26.9564 29.9596 26.9703 29.9577 26.986C29.952 27.0336 29.9325 27.1979 30.0279 27.367C30.0888 27.4761 30.1725 27.5415 30.2326 27.5784C30.2913 27.6143 30.3463 27.6342 30.3722 27.6433C30.3787 27.6455 30.3849 27.6476 30.3905 27.6494C30.4186 27.6678 30.4582 27.6903 30.509 27.7087C30.532 27.717 30.5543 27.7234 30.5756 27.7283C30.6219 27.7448 30.7527 27.7901 30.897 27.8149C31.1483 27.8626 31.4658 27.8946 31.791 27.9274L31.7962 27.928L31.8081 27.9291C32.1426 27.9629 32.5029 27.9992 32.8723 28.0547C34.7725 28.3754 36.6561 28.7879 38.5164 29.2908L38.5199 29.2917C40.5985 29.8376 42.6454 30.5807 44.2707 31.6351C45.8905 32.687 47.0201 33.9919 47.2567 35.6953L47.2568 35.6961C47.3184 36.1341 47.1888 36.6085 46.8683 37.1274C46.5468 37.6478 46.0545 38.1771 45.4568 38.7015L45.4562 38.702C44.2689 39.7468 42.6966 40.7389 40.9729 41.689C39.2522 42.6299 37.4608 43.4901 36.0272 44.1616C35.6792 44.3247 35.3491 44.4626 35.0387 44.5916L34.9917 44.6111C34.7084 44.7288 34.4348 44.8424 34.193 44.958C31.7525 45.9429 29.0038 46.8195 26.1097 47.4049C26.0613 47.4081 26.0156 47.4145 25.9812 47.4198C25.9271 47.4281 25.8695 47.4388 25.8197 47.4482L25.794 47.4531C25.752 47.461 25.7157 47.4679 25.6822 47.4736C25.6628 47.4769 25.6472 47.4794 25.635 47.481C25.6246 47.4824 25.6195 47.4829 25.6186 47.483L25.6186 47.4828L25.6056 47.4839C21.949 47.8013 19.7419 46.9028 18.4223 45.4897C17.0853 44.0581 16.565 42.0004 16.5026 39.8128C16.4404 37.6333 16.8352 35.3988 17.2514 33.6976C17.4589 32.8496 17.6703 32.1398 17.8294 31.643C17.909 31.3947 17.9754 31.1999 18.0216 31.068C18.0448 31.002 18.0628 30.9518 18.075 30.9184L18.0886 30.8813L18.0893 30.8793L18.0893 30.8793L18.1019 30.8494C18.1128 30.8236 18.1284 30.7863 18.1475 30.7401C18.1858 30.6477 18.2384 30.5188 18.2959 30.3729C18.4089 30.0861 18.5481 29.7152 18.6308 29.4255L18.6352 29.4102L18.6386 29.3946C18.6844 29.1843 18.7133 28.9707 18.7249 28.7558L18.7277 28.7046L18.72 28.6539C18.7051 28.5553 18.6721 28.4357 18.6447 28.3381C18.6373 28.3116 18.6298 28.2851 18.6222 28.2585C18.5986 28.175 18.5747 28.0906 18.5518 28.002C18.5045 27.8093 18.4516 27.6147 18.3967 27.4132C18.2722 26.9558 18.1381 26.4628 18.0385 25.8756C17.8969 25.0224 17.8175 24.106 17.9912 23.3444L17.9913 23.3444L17.9925 23.3386C18.0756 22.953 18.24 22.5897 18.4747 22.2727C18.7084 21.9571 19.0064 21.6947 19.3491 21.5029C19.5699 21.3865 19.8229 21.3469 20.0683 21.3899C20.3604 21.4903 20.6273 21.653 20.8504 21.8669L20.8504 21.8669L20.8527 21.869C21.4474 22.4321 21.9424 23.092 22.3164 23.8206L22.3163 23.8207L22.3205 23.8285C22.7353 24.6023 23.1176 25.393 23.4665 26.1986L23.467 26.1998C23.5379 26.3623 23.5946 26.5091 23.65 26.6525L23.654 26.6629C23.7091 26.8055 23.7663 26.9534 23.8316 27.0928L23.8316 27.0928L23.8341 27.0979C23.8436 27.1176 23.8558 27.1513 23.8765 27.2148C23.8776 27.2183 23.8788 27.222 23.8801 27.2259C23.8881 27.2506 23.8981 27.2815 23.908 27.3096C23.9089 27.312 23.9098 27.3146 23.9108 27.3173C23.9253 27.417 23.9718 27.5372 24.0836 27.6331C24.101 27.6479 24.1213 27.6632 24.1445 27.6777C24.1578 27.6868 24.1703 27.6947 24.1816 27.7014C24.2328 27.7318 24.2804 27.7501 24.3034 27.7588C24.3081 27.7605 24.3128 27.7623 24.3171 27.7638C24.3242 27.7664 24.3303 27.7686 24.3339 27.7698L24.3416 27.7726C24.3424 27.7729 24.343 27.7731 24.3433 27.7733L24.3402 27.7719C24.338 27.771 24.3344 27.7694 24.3299 27.7673C24.3213 27.7632 24.3057 27.7553 24.2867 27.7426L24.2891 27.7396C24.3364 27.7515 24.3889 27.7574 24.4463 27.7535C24.5451 27.7468 24.6291 27.713 24.6966 27.6665L24.6594 27.8115C24.5733 27.8287 24.5056 27.8184 24.488 27.8157L24.4874 27.8156C24.456 27.8109 24.4321 27.8041 24.4212 27.8008C24.399 27.7942 24.383 27.7876 24.3797 27.7862L24.3795 27.7861C24.3789 27.7859 24.3784 27.7857 24.3779 27.7855C24.3736 27.7837 24.3724 27.7832 24.4043 27.7982L24.4062 27.7991C24.4442 27.817 24.5405 27.8624 24.644 27.8875C24.6683 27.8938 24.693 27.9011 24.7249 27.9107L24.7329 27.9132C24.7626 27.9222 24.8014 27.9339 24.8409 27.9443C24.9323 27.9683 25.052 27.9921 25.1951 27.9846L25.1951 27.9847L25.2033 27.9841C25.3667 27.9728 25.5228 27.914 25.6527 27.8156C25.7291 27.7641 25.7864 27.6949 25.8232 27.62C25.8403 27.5853 25.8518 27.5519 25.8595 27.5215C25.878 27.4922 25.8954 27.4587 25.91 27.4204C25.9424 27.3349 25.9485 27.2567 25.9485 27.2018V27.0431V26.973L25.9293 26.9057C25.905 26.8208 25.8705 26.7184 25.8326 26.6057C25.8174 26.5605 25.8016 26.5136 25.7857 26.4656C25.7267 26.2873 25.6537 26.0573 25.5676 25.7457C25.3711 25.0326 25.1897 24.0883 25.0593 23.1647C24.9324 22.235 24.8804 21.3945 25.0505 20.6579C25.2232 19.9529 25.5856 19.432 26.1837 19.2074ZM24.6705 27.8091L24.7047 27.6608C24.7544 27.6251 24.7947 27.5827 24.8249 27.5396C24.8449 27.5109 24.8608 27.4821 24.8733 27.4539C24.8757 27.4652 24.8781 27.4747 24.88 27.4821C24.8859 27.5043 24.8921 27.5225 24.8946 27.53C24.8996 27.5444 24.8967 27.5358 24.8965 27.5352C24.8961 27.5341 24.8871 27.5077 24.8813 27.471C24.8801 27.4639 24.8788 27.4547 24.8777 27.4437C24.8788 27.441 24.8799 27.4383 24.881 27.4356C24.9339 27.4516 24.9843 27.4667 25.0361 27.4761C25.0133 27.5463 24.9739 27.6151 24.9151 27.6741C24.8361 27.7535 24.7492 27.7883 24.6916 27.8039C24.6845 27.8058 24.6774 27.8076 24.6705 27.8091ZM30.4201 27.6591C30.4215 27.6596 30.4211 27.6595 30.4192 27.6588L30.4201 27.6591ZM25.8408 27.2063C25.8407 27.2059 25.8407 27.2061 25.8409 27.2067L25.8408 27.2063Z" fill="url(#paint4_linear_4_15165)" stroke="url(#paint5_linear_4_15165)"/>
<defs>
<filter id="filter0_f_4_15165" x="3.26249" y="3.26252" width="57.475" height="57.4754" filterUnits="userSpaceOnUse" color-interpolation-filters="sRGB">
<feFlood flood-opacity="0" result="BackgroundImageFix"/>
<feBlend mode="normal" in="SourceGraphic" in2="BackgroundImageFix" result="shape"/>
<feGaussianBlur stdDeviation="0.618754" result="effect1_foregroundBlur_4_15165"/>
</filter>
<linearGradient id="paint0_linear_4_15165" x1="4.5" y1="32.0002" x2="59.5004" y2="32.0002" gradientUnits="userSpaceOnUse">
<stop stop-color="#FDFC47"/>
<stop offset="1" stop-color="#24FE41"/>
</linearGradient>
<linearGradient id="paint1_linear_4_15165" x1="4.49609" y1="32.0019" x2="59.4969" y2="32.0019" gradientUnits="userSpaceOnUse">
<stop stop-color="#FDFC47"/>
<stop offset="1" stop-color="#24FE41"/>
</linearGradient>
<linearGradient id="paint2_linear_4_15165" x1="38.5312" y1="22.1105" x2="47.9975" y2="22.1105" gradientUnits="userSpaceOnUse">
<stop stop-color="#FDFC47"/>
<stop offset="1" stop-color="#24FE41"/>
</linearGradient>
<linearGradient id="paint3_linear_4_15165" x1="38.5312" y1="22.1105" x2="47.9975" y2="22.1105" gradientUnits="userSpaceOnUse">
<stop stop-color="#FDFC47"/>
<stop offset="1" stop-color="#24FE41"/>
</linearGradient>
<linearGradient id="paint4_linear_4_15165" x1="15.9961" y1="33.221" x2="47.7717" y2="33.221" gradientUnits="userSpaceOnUse">
<stop stop-color="#FDFC47"/>
<stop offset="1" stop-color="#24FE41"/>
</linearGradient>
<linearGradient id="paint5_linear_4_15165" x1="15.9961" y1="33.221" x2="47.7717" y2="33.221" gradientUnits="userSpaceOnUse">
<stop stop-color="#FDFC47"/>
<stop offset="1" stop-color="#24FE41"/>
</linearGradient>
</defs>
</svg>
