<svg width="64" height="64" viewBox="0 0 64 64" fill="none" xmlns="http://www.w3.org/2000/svg">
<g opacity="0.3" filter="url(#filter0_f_4_15171)">
<path d="M44.5 4.5H19.5C11.2157 4.5 4.5 11.2157 4.5 19.5V44.5C4.5 52.7843 11.2157 59.5 19.5 59.5H44.5C52.7843 59.5 59.5 52.7843 59.5 44.5V19.5C59.5 11.2157 52.7843 4.5 44.5 4.5Z" fill="url(#paint0_linear_4_15171)"/>
</g>
<path d="M19.5 5H44.5C52.5081 5 59 11.4919 59 19.5V44.5C59 52.5081 52.5081 59 44.5 59H19.5C11.4919 59 5 52.5081 5 44.5V19.5C5 11.4919 11.4919 5 19.5 5Z" fill="#232323" stroke="url(#paint1_linear_4_15171)"/>
<path d="M32.0006 14C28.2009 14.0061 24.5007 15.2144 21.4297 17.4519L25.4726 21.4949C27.4317 20.2751 29.6929 19.6274 32.0007 19.625C35.2828 19.625 38.4304 20.9288 40.7512 23.2495C43.0719 25.5703 44.3757 28.7179 44.3757 32C44.3701 34.3062 43.7202 36.5649 42.4992 38.5214L46.5444 42.5666C48.7826 39.4973 49.9925 35.7985 50.0007 31.9998C50.0007 27.2259 48.1043 22.6476 44.7286 19.2719C41.353 15.8963 36.7745 14 32.0006 14Z" fill="url(#paint2_linear_4_15171)"/>
<path d="M17.4563 21.4332C15.2181 24.5025 14.0082 28.2012 14 32C14 36.7738 15.8964 41.3522 19.2721 44.7279C22.6477 48.1035 27.2261 49.9999 32 49.9999C35.7996 49.9938 39.4999 48.7855 42.5708 46.548L38.5279 42.5051C36.5688 43.7249 34.3076 44.3726 31.9998 44.3749C28.7177 44.3749 25.5701 43.0711 23.2494 40.7504C20.9286 38.4296 19.6248 35.282 19.6248 32C19.6304 29.6938 20.2804 27.435 21.5013 25.4785L17.4563 21.4332Z" fill="url(#paint3_linear_4_15171)"/>
<path d="M31.9986 38.5454C35.6135 38.5454 38.544 35.6149 38.544 32C38.544 28.385 35.6135 25.4545 31.9986 25.4545C28.3836 25.4545 25.4531 28.385 25.4531 32C25.4531 35.6149 28.3836 38.5454 31.9986 38.5454Z" fill="url(#paint4_linear_4_15171)"/>
<defs>
<filter id="filter0_f_4_15171" x="3.2625" y="3.2625" width="57.475" height="57.475" filterUnits="userSpaceOnUse" color-interpolation-filters="sRGB">
<feFlood flood-opacity="0" result="BackgroundImageFix"/>
<feBlend mode="normal" in="SourceGraphic" in2="BackgroundImageFix" result="shape"/>
<feGaussianBlur stdDeviation="0.61875" result="effect1_foregroundBlur_4_15171"/>
</filter>
<linearGradient id="paint0_linear_4_15171" x1="4.5" y1="32" x2="59.5" y2="32" gradientUnits="userSpaceOnUse">
<stop stop-color="#FDFC47"/>
<stop offset="1" stop-color="#24FE41"/>
</linearGradient>
<linearGradient id="paint1_linear_4_15171" x1="4.5" y1="32" x2="59.5" y2="32" gradientUnits="userSpaceOnUse">
<stop stop-color="#FDFC47"/>
<stop offset="1" stop-color="#24FE41"/>
</linearGradient>
<linearGradient id="paint2_linear_4_15171" x1="21.4297" y1="28.2832" x2="50.0007" y2="28.2832" gradientUnits="userSpaceOnUse">
<stop stop-color="#FDFC47"/>
<stop offset="1" stop-color="#24FE41"/>
</linearGradient>
<linearGradient id="paint3_linear_4_15171" x1="14" y1="35.7165" x2="42.5708" y2="35.7165" gradientUnits="userSpaceOnUse">
<stop stop-color="#FDFC47"/>
<stop offset="1" stop-color="#24FE41"/>
</linearGradient>
<linearGradient id="paint4_linear_4_15171" x1="25.4531" y1="32" x2="38.544" y2="32" gradientUnits="userSpaceOnUse">
<stop stop-color="#FDFC47"/>
<stop offset="1" stop-color="#24FE41"/>
</linearGradient>
</defs>
</svg>
