<svg width="64" height="64" viewBox="0 0 64 64" fill="none" xmlns="http://www.w3.org/2000/svg">
<g clip-path="url(#clip0_4_15454)">
<g opacity="0.3" filter="url(#filter0_f_4_15454)">
<path d="M44.5 4.5H19.5C11.2157 4.5 4.5 11.2157 4.5 19.5V44.5C4.5 52.7843 11.2157 59.5 19.5 59.5H44.5C52.7843 59.5 59.5 52.7843 59.5 44.5V19.5C59.5 11.2157 52.7843 4.5 44.5 4.5Z" fill="url(#paint0_linear_4_15454)"/>
</g>
<path d="M19.5 5H44.5C52.5081 5 59 11.4919 59 19.5V44.5C59 52.5081 52.5081 59 44.5 59H19.5C11.4919 59 5 52.5081 5 44.5V19.5C5 11.4919 11.4919 5 19.5 5Z" fill="#232323" stroke="url(#paint1_linear_4_15454)"/>
<path d="M32.0051 14.5C29.7066 14.4993 27.4304 14.9515 25.3066 15.8306C23.1828 16.7098 21.253 17.9987 19.6275 19.6238C18.0019 21.2489 16.7124 23.1783 15.8326 25.3019C14.9528 27.4254 14.5 29.7014 14.5 32C14.5 34.2986 14.9528 36.5746 15.8326 38.6981C16.7124 40.8217 18.0019 42.7511 19.6275 44.3762C21.253 46.0013 23.1828 47.2902 25.3066 48.1694C27.4304 49.0485 29.7066 49.5007 32.0051 49.5C36.6455 49.4986 41.0954 47.6543 44.3762 44.3726C47.657 41.0908 49.5 36.6404 49.5 32C49.5 27.3596 47.657 22.9092 44.3762 19.6275C41.0954 16.3457 36.6455 14.5014 32.0051 14.5ZM32.0051 15.9592C35.4996 15.9597 38.8983 17.1009 41.685 19.2094C44.4717 21.3179 46.4939 24.2784 47.4445 27.641C45.8006 31.0259 43.4873 34.0423 40.6446 36.5078C39.2805 37.6859 37.7965 38.74 36.1554 39.4799C34.5102 40.2199 32.7037 40.6374 30.9056 40.534C29.5492 40.4588 28.2271 40.0802 27.0364 39.4262C30.1838 37.7259 32.9917 35.4616 35.3204 32.7461C36.8416 30.9686 38.1726 28.9431 38.6811 26.6572C38.9491 25.5132 38.9703 24.3253 38.7431 23.1725C38.512 22.0176 37.9687 20.9481 37.1723 20.0805C36.3766 19.2496 35.3688 18.652 34.258 18.3526C33.1476 18.0567 31.9849 18.0144 30.856 18.2286C28.6031 18.642 26.5983 19.9482 24.9861 21.5728C22.1421 24.4333 20.3853 28.476 20.7078 32.494C20.8731 34.503 21.5428 36.4789 22.7002 38.1323C22.9565 38.5002 23.2376 38.8516 23.5435 39.1864C21.8608 39.7749 20.1226 40.1905 18.3557 40.4265C16.8537 37.9965 16.028 35.2094 15.9639 32.3533C15.8999 29.4973 16.5998 26.6759 17.9914 24.181C19.383 21.6861 21.4157 19.6081 23.8794 18.162C26.3431 16.7158 29.1484 15.9539 32.0051 15.9551V15.9592ZM32.1044 19.2C33.2329 19.2 34.3696 19.5431 35.2666 20.221C36.081 20.8328 36.6804 21.7092 37.0193 22.6599C37.3624 23.6189 37.4492 24.6606 37.3335 25.6692C37.0979 27.6865 36.081 29.5384 34.8533 31.1547C32.4127 34.3118 29.2132 36.8003 25.5524 38.3886C24.8497 37.7748 24.2558 37.0467 23.7956 36.235C22.8407 34.5402 22.5266 32.527 22.7126 30.5925C22.8945 28.6579 23.56 26.7895 24.4529 25.0616C25.4863 23.0568 26.9 21.1594 28.8759 20.0722C29.8598 19.5266 30.98 19.1959 32.1044 19.2ZM47.8992 29.8525C48.3684 33.3083 47.6985 36.8228 45.991 39.8636C44.2834 42.9044 41.6313 45.3058 38.4364 46.7039C35.2415 48.1021 31.6779 48.4208 28.2857 47.6118C24.8934 46.8027 21.8572 44.9101 19.6371 42.2206C21.456 41.8072 23.2334 41.2161 24.9324 40.4596C25.6765 41.0301 26.5032 41.493 27.3713 41.8279C29.8928 42.7951 32.7451 42.6546 35.2956 41.77C37.8419 40.8895 40.1031 39.3063 42.0748 37.4668C44.4244 35.2677 46.3939 32.6948 47.9033 29.8525L47.8992 29.8525Z" fill="url(#paint2_linear_4_15454)"/>
</g>
<defs>
<filter id="filter0_f_4_15454" x="3.2625" y="3.2625" width="57.475" height="57.475" filterUnits="userSpaceOnUse" color-interpolation-filters="sRGB">
<feFlood flood-opacity="0" result="BackgroundImageFix"/>
<feBlend mode="normal" in="SourceGraphic" in2="BackgroundImageFix" result="shape"/>
<feGaussianBlur stdDeviation="0.61875" result="effect1_foregroundBlur_4_15454"/>
</filter>
<linearGradient id="paint0_linear_4_15454" x1="4.5" y1="32" x2="59.5" y2="32" gradientUnits="userSpaceOnUse">
<stop stop-color="#FDFC47"/>
<stop offset="1" stop-color="#24FE41"/>
</linearGradient>
<linearGradient id="paint1_linear_4_15454" x1="4.5" y1="32" x2="59.5" y2="32" gradientUnits="userSpaceOnUse">
<stop stop-color="#FDFC47"/>
<stop offset="1" stop-color="#24FE41"/>
</linearGradient>
<linearGradient id="paint2_linear_4_15454" x1="14.5" y1="32" x2="49.5" y2="32" gradientUnits="userSpaceOnUse">
<stop stop-color="#FDFC47"/>
<stop offset="1" stop-color="#24FE41"/>
</linearGradient>
<clipPath id="clip0_4_15454">
<rect width="64" height="64" fill="white"/>
</clipPath>
</defs>
</svg>
