<svg width="64" height="64" viewBox="0 0 64 64" fill="none" xmlns="http://www.w3.org/2000/svg">
<g clip-path="url(#clip0_4_15321)">
<g opacity="0.3" filter="url(#filter0_f_4_15321)">
<path d="M44.5 4.5H19.5C11.2157 4.5 4.5 11.2157 4.5 19.5V44.5C4.5 52.7843 11.2157 59.5 19.5 59.5H44.5C52.7843 59.5 59.5 52.7843 59.5 44.5V19.5C59.5 11.2157 52.7843 4.5 44.5 4.5Z" fill="url(#paint0_linear_4_15321)"/>
</g>
<path d="M19.5 5H44.5C52.5081 5 59 11.4919 59 19.5V44.5C59 52.5081 52.5081 59 44.5 59H19.5C11.4919 59 5 52.5081 5 44.5V19.5C5 11.4919 11.4919 5 19.5 5Z" fill="#232323" stroke="url(#paint1_linear_4_15321)"/>
<path fill-rule="evenodd" clip-rule="evenodd" d="M16 17.6564V26.8257H19.7758V28.6664L19.7796 35.8854C19.7796 41.8307 24.9425 46.3436 30.8916 46.3436H48.0019V28.1939C48.0019 22.2411 42.8427 17.7358 36.8899 17.7358L31.9121 17.7244L16 17.6564ZM18.4303 20.0942L31.9046 20.1547V20.1661H36.8899C41.69 20.1661 45.5829 23.7605 45.5829 28.1977V41.4755C45.5829 42.9495 44.2525 43.9133 42.7369 43.9133H30.8954C26.0991 43.9133 22.2099 40.3189 22.2099 35.8816L22.1985 26.7804C22.1939 26.1719 21.9583 25.5879 21.5394 25.1465C21.1205 24.7052 20.5495 24.4394 19.9421 24.403H18.4303V20.0942ZM24.5343 22.7929V35.9837C24.5343 37.3821 25.0446 38.6105 26.0424 39.6008C26.8928 40.4436 27.9171 40.9879 29.0661 41.1126H32.3203V38.5236L29.5234 38.5122C28.1703 38.5122 27.0062 37.1894 27.0062 35.4923V22.7929H24.5343ZM33.8624 24.9624C32.7361 24.9624 31.7383 25.3781 30.9332 26.1907C30.5416 26.5777 30.2317 27.0394 30.022 27.5484C29.8122 28.0574 29.707 28.6034 29.7124 29.154V34.9216H32.3279V29.154C32.3279 28.7155 32.4715 28.3716 32.7814 28.0579C32.9182 27.9082 33.0854 27.7895 33.2719 27.71C33.4584 27.6304 33.6597 27.5918 33.8624 27.5968C34.3008 27.5968 34.6297 27.7404 34.9434 28.0579C35.2571 28.3716 35.3969 28.7155 35.3969 29.154V34.9216H38.0162V29.154C38.0162 28.7155 38.1598 28.3716 38.4697 28.0579C38.6063 27.908 38.7735 27.7892 38.96 27.7097C39.1465 27.6301 39.348 27.5916 39.5507 27.5968C39.9816 27.5968 40.3142 27.7404 40.6279 28.0579C40.9416 28.3716 41.0814 28.7155 41.0814 29.154L41.1003 34.8914H43.7083L43.7007 29.154C43.7007 28.0125 43.285 26.9996 42.4799 26.1907C42.1009 25.7975 41.6456 25.4857 41.142 25.2745C40.6383 25.0633 40.0968 24.9571 39.5507 24.9624C38.4471 24.9624 37.4833 25.3706 36.7047 26.1227C36.3308 25.7514 35.8872 25.4578 35.3994 25.2586C34.9116 25.0595 34.3893 24.9588 33.8624 24.9624Z" fill="url(#paint2_linear_4_15321)"/>
</g>
<defs>
<filter id="filter0_f_4_15321" x="3.2625" y="3.2625" width="57.475" height="57.475" filterUnits="userSpaceOnUse" color-interpolation-filters="sRGB">
<feFlood flood-opacity="0" result="BackgroundImageFix"/>
<feBlend mode="normal" in="SourceGraphic" in2="BackgroundImageFix" result="shape"/>
<feGaussianBlur stdDeviation="0.61875" result="effect1_foregroundBlur_4_15321"/>
</filter>
<linearGradient id="paint0_linear_4_15321" x1="4.5" y1="32" x2="59.5" y2="32" gradientUnits="userSpaceOnUse">
<stop stop-color="#FDFC47"/>
<stop offset="1" stop-color="#24FE41"/>
</linearGradient>
<linearGradient id="paint1_linear_4_15321" x1="4.5" y1="32" x2="59.5" y2="32" gradientUnits="userSpaceOnUse">
<stop stop-color="#FDFC47"/>
<stop offset="1" stop-color="#24FE41"/>
</linearGradient>
<linearGradient id="paint2_linear_4_15321" x1="16" y1="32" x2="48.0019" y2="32" gradientUnits="userSpaceOnUse">
<stop stop-color="#FDFC47"/>
<stop offset="1" stop-color="#24FE41"/>
</linearGradient>
<clipPath id="clip0_4_15321">
<rect width="64" height="64" fill="white"/>
</clipPath>
</defs>
</svg>
