<svg width="64" height="64" viewBox="0 0 64 64" fill="none" xmlns="http://www.w3.org/2000/svg">
<g clip-path="url(#clip0_4_15189)">
<g opacity="0.3" filter="url(#filter0_f_4_15189)">
<path d="M44.5 4.5H19.5C11.2157 4.5 4.5 11.2157 4.5 19.5V44.5C4.5 52.7843 11.2157 59.5 19.5 59.5H44.5C52.7843 59.5 59.5 52.7843 59.5 44.5V19.5C59.5 11.2157 52.7843 4.5 44.5 4.5Z" fill="url(#paint0_linear_4_15189)"/>
</g>
<path d="M19.5 5H44.5C52.5081 5 59 11.4919 59 19.5V44.5C59 52.5081 52.5081 59 44.5 59H19.5C11.4919 59 5 52.5081 5 44.5V19.5C5 11.4919 11.4919 5 19.5 5Z" fill="#232323" stroke="url(#paint1_linear_4_15189)"/>
<path d="M36.0012 15.9991V25.5992L44.0026 20.7991L36.0012 15.9991ZM32.7998 17.6016C29.884 17.6027 27.0371 18.4889 24.6359 20.143C22.2346 21.7972 20.3921 24.1413 19.352 26.8654L20.758 27.7083C21.6433 25.2218 23.2755 23.0697 25.4311 21.5466C27.5867 20.0236 30.1605 19.2041 32.7998 19.2004C33.3359 19.2046 33.8711 19.2425 34.4024 19.3138V17.7074C33.8706 17.6424 33.3356 17.607 32.7998 17.6016ZM32.7998 22.4017C30.7087 22.4021 28.6749 23.0853 27.0075 24.3474C25.3402 25.6095 24.1306 27.3815 23.5625 29.394L24.9987 30.2519C25.3962 28.4784 26.3857 26.893 27.8043 25.7568C29.2229 24.6205 30.9861 24.0011 32.8036 24.0005C33.3419 24.0006 33.8788 24.0551 34.4062 24.163V22.5378C33.8767 22.4477 33.3369 22.4022 32.7998 22.4017ZM43.8401 22.7608L42.4416 23.6036C44.4736 25.9301 45.5958 28.9129 45.6013 32.0019C45.5988 35.0912 44.4793 38.0754 42.4492 40.4039L43.8325 41.2355C46.0032 38.6478 47.1952 35.3794 47.2001 32.0019C47.1991 28.6227 46.0097 25.3515 43.8401 22.7608ZM39.6447 25.278L38.2236 26.1322C39.0347 26.88 39.6824 27.7875 40.126 28.7976C40.5696 29.8077 40.7995 30.8987 40.8013 32.0019C40.7994 33.1042 40.5699 34.1943 40.1269 35.2037C39.684 36.2131 39.0373 37.1201 38.2273 37.8678L39.6485 38.7258C41.412 36.9306 42.4001 34.5146 42.4 31.9981C42.3971 29.4837 41.4078 27.0708 39.6447 25.278ZM16.8008 27.2018V36.802L24.8022 32.0019L16.8008 27.2018ZM25.0025 33.7443L23.5663 34.6023C24.1328 36.6155 25.3413 38.3888 27.008 39.6523C28.6746 40.9158 30.7084 41.6004 32.7998 41.6021C33.3371 41.5991 33.8732 41.5511 34.4024 41.4585V39.8332C33.8752 39.9424 33.3383 39.9982 32.7998 39.9995C30.9831 39.997 29.2213 39.3762 27.8041 38.2394C26.387 37.1025 25.399 35.5173 25.0025 33.7443ZM20.7542 36.2955L19.3634 37.127C20.4009 39.8514 22.2409 42.1967 24.6401 43.8529C27.0392 45.509 29.8846 46.3979 32.7998 46.4022C33.3354 46.3992 33.8704 46.3664 34.4024 46.3039V44.6862C33.8711 44.7575 33.3359 44.7954 32.7998 44.7996C30.1603 44.7969 27.586 43.9784 25.4297 42.456C23.2734 40.9336 21.6403 38.7819 20.7542 36.2955ZM36.0012 38.4008V48.0009L44.0026 43.2009L36.0012 38.4008Z" fill="url(#paint2_linear_4_15189)"/>
</g>
<defs>
<filter id="filter0_f_4_15189" x="3.2625" y="3.2625" width="57.475" height="57.475" filterUnits="userSpaceOnUse" color-interpolation-filters="sRGB">
<feFlood flood-opacity="0" result="BackgroundImageFix"/>
<feBlend mode="normal" in="SourceGraphic" in2="BackgroundImageFix" result="shape"/>
<feGaussianBlur stdDeviation="0.61875" result="effect1_foregroundBlur_4_15189"/>
</filter>
<linearGradient id="paint0_linear_4_15189" x1="4.5" y1="32" x2="59.5" y2="32" gradientUnits="userSpaceOnUse">
<stop stop-color="#FDFC47"/>
<stop offset="1" stop-color="#24FE41"/>
</linearGradient>
<linearGradient id="paint1_linear_4_15189" x1="4.5" y1="32" x2="59.5" y2="32" gradientUnits="userSpaceOnUse">
<stop stop-color="#FDFC47"/>
<stop offset="1" stop-color="#24FE41"/>
</linearGradient>
<linearGradient id="paint2_linear_4_15189" x1="16.8008" y1="32" x2="47.2001" y2="32" gradientUnits="userSpaceOnUse">
<stop stop-color="#FDFC47"/>
<stop offset="1" stop-color="#24FE41"/>
</linearGradient>
<clipPath id="clip0_4_15189">
<rect width="64" height="64" fill="white"/>
</clipPath>
</defs>
</svg>
