<svg width="64" height="64" viewBox="0 0 64 64" fill="none" xmlns="http://www.w3.org/2000/svg">
<g clip-path="url(#clip0_4_15409)">
<g opacity="0.3" filter="url(#filter0_f_4_15409)">
<path d="M44.5 4.5H19.5C11.2157 4.5 4.5 11.2157 4.5 19.5V44.5C4.5 52.7843 11.2157 59.5 19.5 59.5H44.5C52.7843 59.5 59.5 52.7843 59.5 44.5V19.5C59.5 11.2157 52.7843 4.5 44.5 4.5Z" fill="url(#paint0_linear_4_15409)"/>
</g>
<path d="M19.5 5H44.5C52.5081 5 59 11.4919 59 19.5V44.5C59 52.5081 52.5081 59 44.5 59H19.5C11.4919 59 5 52.5081 5 44.5V19.5C5 11.4919 11.4919 5 19.5 5Z" fill="#232323" stroke="url(#paint1_linear_4_15409)"/>
<path d="M29.5499 14.2378C30.3965 16.5017 31.4019 19.0794 32.9024 21.041C31.2507 20.2247 29.4138 19.6804 27.9776 18.5163C28.1552 18.9698 28.0909 19.4574 28.0758 19.8391C26.8334 19.481 25.6284 19.0038 24.4776 18.4142C24.78 18.9812 24.8292 19.5859 24.7536 20.115C23.5214 20.2284 22.1872 19.8429 21.0495 19.6388C21.5711 20.1113 21.8168 20.7349 22.0285 21.3623C20.8114 21.574 19.5566 21.797 18.3245 21.9141C18.846 22.2656 19.2316 22.7759 19.5301 23.2635C18.5739 24.0647 17.3644 24.7866 16.378 25.3914C17.0005 25.3153 17.6282 25.4847 18.1279 25.8638C17.4805 27.0109 16.7701 28.1213 16 29.1899C16.6199 29.0425 17.1792 28.914 17.852 28.914C17.6177 30.2444 17.4514 31.6353 16.9525 32.8901C17.5081 32.4857 18.109 32.2816 18.7289 32.0661C19.3223 33.0753 19.3827 34.7232 19.602 35.6114C19.6828 35.3727 19.8108 35.1527 19.9783 34.9645C20.1459 34.7762 20.3495 34.6234 20.5771 34.5153C27.3048 41.1221 38.379 39.9655 39.3504 49.7622C39.6528 45.9448 37.8461 43.2462 35.7522 41.3904C34.0136 39.8483 26.0953 36.1821 25.7249 35.9402C18.9179 31.4274 19.8363 25.3309 24.6288 23.7888C26.6644 23.1279 28.8552 23.1171 30.8972 23.7578C32.9393 24.3985 34.7312 25.659 36.0243 27.3643C36.6895 28.2072 37.6382 29.7492 38.5264 30.4145C40.2084 31.6768 46.2217 34.606 43.8519 38.087C45.9118 37.5579 47.4841 36.0839 48.0019 34.0164C46.388 33.3248 43.9577 31.862 44.1505 29.8135C44.3848 29.7152 44.6418 29.7379 44.9026 29.7379C39.4751 20.2889 38.0275 23.5772 32.5773 14.7896C33.2577 17.2236 34.7393 20.2247 36.5232 21.8915C33.5638 20.115 31.6438 16.9288 29.5499 14.2378ZM40.6997 26.1624C41.3158 27.0204 41.8336 27.9766 42.5744 28.7136C41.8563 28.4642 39.0027 26.5857 40.6997 26.1624Z" fill="url(#paint2_linear_4_15409)"/>
</g>
<defs>
<filter id="filter0_f_4_15409" x="3.2625" y="3.2625" width="57.475" height="57.475" filterUnits="userSpaceOnUse" color-interpolation-filters="sRGB">
<feFlood flood-opacity="0" result="BackgroundImageFix"/>
<feBlend mode="normal" in="SourceGraphic" in2="BackgroundImageFix" result="shape"/>
<feGaussianBlur stdDeviation="0.61875" result="effect1_foregroundBlur_4_15409"/>
</filter>
<linearGradient id="paint0_linear_4_15409" x1="4.5" y1="32" x2="59.5" y2="32" gradientUnits="userSpaceOnUse">
<stop stop-color="#FDFC47"/>
<stop offset="1" stop-color="#24FE41"/>
</linearGradient>
<linearGradient id="paint1_linear_4_15409" x1="4.5" y1="32" x2="59.5" y2="32" gradientUnits="userSpaceOnUse">
<stop stop-color="#FDFC47"/>
<stop offset="1" stop-color="#24FE41"/>
</linearGradient>
<linearGradient id="paint2_linear_4_15409" x1="16" y1="32" x2="48.0019" y2="32" gradientUnits="userSpaceOnUse">
<stop stop-color="#FDFC47"/>
<stop offset="1" stop-color="#24FE41"/>
</linearGradient>
<clipPath id="clip0_4_15409">
<rect width="64" height="64" fill="white"/>
</clipPath>
</defs>
</svg>
