<svg width="64" height="64" viewBox="0 0 64 64" fill="none" xmlns="http://www.w3.org/2000/svg">
<g opacity="0.3" filter="url(#filter0_f_4_14193)">
<path d="M44.5003 4.50003H19.5001C11.2158 4.50003 4.5 11.2158 4.5 19.5001V44.5003C4.5 52.7846 11.2158 59.5004 19.5001 59.5004H44.5003C52.7846 59.5004 59.5004 52.7846 59.5004 44.5003V19.5001C59.5004 11.2158 52.7846 4.50003 44.5003 4.50003Z" fill="#232323"/>
<path d="M19.5001 5.00003H44.5003C52.5085 5.00003 59.0004 11.4919 59.0004 19.5001V44.5003C59.0004 52.5085 52.5085 59.0004 44.5003 59.0004H19.5001C11.4919 59.0004 5 52.5085 5 44.5003V19.5001C5 11.4919 11.4919 5.00003 19.5001 5.00003Z" stroke="url(#paint0_linear_4_14193)"/>
</g>
<path d="M19.5001 5.00113H44.5007C52.5089 5.00113 59.0008 11.493 59.0008 19.5012V44.5018C59.0008 52.51 52.5089 59.0019 44.5007 59.0019H19.5001C11.4919 59.0019 5 52.51 5 44.5018V19.5012C5 11.493 11.4919 5.00113 19.5001 5.00113Z" fill="#232323" stroke="url(#paint1_linear_4_14193)"/>
<g opacity="0.1" filter="url(#filter1_f_4_14193)">
<mask id="path-4-inside-1_4_14193" fill="white">
<path d="M36.0462 19.322L31.1018 19.406L30.0988 20.1606L30.1828 20.2446L26.9157 20.3286L27.1641 19.9915L19.7121 19.8223L19.6282 20.3286L19.5442 21.0833L20.0457 22.0071L19.7973 23.9376L19.375 25.6197L19.6282 27.2131L19.7121 28.474L20.2137 30.1514L20.0445 30.9948L20.1285 31.9187L20.714 32.5893L20.8831 33.6812L19.7961 34.1035L19.9605 37.4593L20.6312 37.9656L20.2137 40.9039L19.8765 41.0731L19.6282 46.6978L19.9233 46.6606L20.636 46.8057C20.636 46.8057 21.4938 47.1057 21.6714 47.1669C21.849 47.2233 22.1117 46.8945 22.1117 46.8945H22.8244L23.4195 46.7769L23.7435 46.9269L24.0434 46.8945L24.7837 46.8381L25.1352 46.6882L25.2852 47.0445L25.4028 46.9557L25.7303 46.8057L26.4094 46.7493L26.5546 46.9557C26.5546 46.9557 27.3836 47.0445 27.68 47.0445C27.9799 47.0445 27.9188 46.8057 27.9188 46.8057C27.9188 46.8057 28.0075 46.7817 28.1527 46.9281C28.3027 47.0781 28.5091 46.8669 28.5091 46.8669L28.8042 46.717L29.0154 46.9281L29.2217 47.0781L29.7844 46.9557H30.7035L30.9098 46.8945L31.7725 48.1135L31.8289 47.4944H33.2207C33.3382 47.4944 33.2818 47.9072 33.2818 47.9072L34.1961 47.612L34.67 48.0859L35.649 47.462L36.183 47.3732L37.2184 47.3169H38.6989L40.3858 47.4344L40.831 47.2569L41.1549 46.9569L42.0452 47.4632L42.6966 47.1957C42.6966 47.1957 43.4093 47.4632 43.5257 47.4956C43.6433 47.5232 44.7399 47.3732 44.7399 47.3732L45.419 47.1957L44.9787 46.8717L45.2738 46.7493L46.5156 46.8057L48.1749 47.2317L48.1473 36.3855V35.7016L47.7298 35.7628L47.1959 35.8516V35.5276L47.4958 35.2553L47.7298 34.899L47.791 33.6236L47.7022 32.6961L47.3183 31.5707L46.9619 31.0932L46.9007 30.6481L46.9895 30.3529L47.0219 30.2641L47.4059 30.1142L47.4622 29.9642L47.1671 29.4627L47.4346 29.3079L47.857 29.0547L48.0214 27.5454L48.1053 26.5376V23.009L47.857 22.0011L48.0214 20.9093L48.1053 20.4918L47.3507 20.1547L44.5059 19.6483L44.0836 20.2386L43.9192 19.5632L38.4734 19.484L38.3042 20.4078L36.964 20.577L36.7996 19.9915L35.6238 19.8175M25.4016 24.0588L44.8887 37.3045L43.3469 42.8296L39.672 42.9472L22.678 24.7823M40.855 24.3047L42.9918 25.4338L42.3967 29.5911L41.9792 29.7134L36.2945 25.3786M24.8689 36.2487L30.6711 42.0701L27.1749 43.3119L25.3428 43.1943L23.0884 41.2915"/>
</mask>
<path d="M36.0462 19.322L31.1018 19.406L30.0988 20.1606L30.1828 20.2446L26.9157 20.3286L27.1641 19.9915L19.7121 19.8223L19.6282 20.3286L19.5442 21.0833L20.0457 22.0071L19.7973 23.9376L19.375 25.6197L19.6282 27.2131L19.7121 28.474L20.2137 30.1514L20.0445 30.9948L20.1285 31.9187L20.714 32.5893L20.8831 33.6812L19.7961 34.1035L19.9605 37.4593L20.6312 37.9656L20.2137 40.9039L19.8765 41.0731L19.6282 46.6978L19.9233 46.6606L20.636 46.8057C20.636 46.8057 21.4938 47.1057 21.6714 47.1669C21.849 47.2233 22.1117 46.8945 22.1117 46.8945H22.8244L23.4195 46.7769L23.7435 46.9269L24.0434 46.8945L24.7837 46.8381L25.1352 46.6882L25.2852 47.0445L25.4028 46.9557L25.7303 46.8057L26.4094 46.7493L26.5546 46.9557C26.5546 46.9557 27.3836 47.0445 27.68 47.0445C27.9799 47.0445 27.9188 46.8057 27.9188 46.8057C27.9188 46.8057 28.0075 46.7817 28.1527 46.9281C28.3027 47.0781 28.5091 46.8669 28.5091 46.8669L28.8042 46.717L29.0154 46.9281L29.2217 47.0781L29.7844 46.9557H30.7035L30.9098 46.8945L31.7725 48.1135L31.8289 47.4944H33.2207C33.3382 47.4944 33.2818 47.9072 33.2818 47.9072L34.1961 47.612L34.67 48.0859L35.649 47.462L36.183 47.3732L37.2184 47.3169H38.6989L40.3858 47.4344L40.831 47.2569L41.1549 46.9569L42.0452 47.4632L42.6966 47.1957C42.6966 47.1957 43.4093 47.4632 43.5257 47.4956C43.6433 47.5232 44.7399 47.3732 44.7399 47.3732L45.419 47.1957L44.9787 46.8717L45.2738 46.7493L46.5156 46.8057L48.1749 47.2317L48.1473 36.3855V35.7016L47.7298 35.7628L47.1959 35.8516V35.5276L47.4958 35.2553L47.7298 34.899L47.791 33.6236L47.7022 32.6961L47.3183 31.5707L46.9619 31.0932L46.9007 30.6481L46.9895 30.3529L47.0219 30.2641L47.4059 30.1142L47.4622 29.9642L47.1671 29.4627L47.4346 29.3079L47.857 29.0547L48.0214 27.5454L48.1053 26.5376V23.009L47.857 22.0011L48.0214 20.9093L48.1053 20.4918L47.3507 20.1547L44.5059 19.6483L44.0836 20.2386L43.9192 19.5632L38.4734 19.484L38.3042 20.4078L36.964 20.577L36.7996 19.9915L35.6238 19.8175M25.4016 24.0588L44.8887 37.3045L43.3469 42.8296L39.672 42.9472L22.678 24.7823M40.855 24.3047L42.9918 25.4338L42.3967 29.5911L41.9792 29.7134L36.2945 25.3786M24.8689 36.2487L30.6711 42.0701L27.1749 43.3119L25.3428 43.1943L23.0884 41.2915" fill="#232323"/>
<path d="M31.1018 19.406L31.0848 18.4061L30.7601 18.4116L30.5006 18.6069L31.1018 19.406ZM30.0988 20.1606L29.4976 19.3616L28.5776 20.0537L29.3917 20.8678L30.0988 20.1606ZM30.1828 20.2446L30.2085 21.2443L32.5368 21.1845L30.8899 19.5375L30.1828 20.2446ZM26.9157 20.3286L26.1106 19.7355L24.8986 21.3808L26.9414 21.3283L26.9157 20.3286ZM27.1641 19.9915L27.9692 20.5846L29.1104 19.0354L27.1868 18.9917L27.1641 19.9915ZM19.7121 19.8223L19.7348 18.8226L18.8676 18.8029L18.7256 19.6587L19.7121 19.8223ZM19.6282 20.3286L18.6416 20.165L18.6373 20.1914L18.6343 20.218L19.6282 20.3286ZM19.5442 21.0833L18.5503 20.9727L18.5156 21.2846L18.6653 21.5604L19.5442 21.0833ZM20.0457 22.0071L21.0375 22.1347L21.0788 21.8141L20.9245 21.53L20.0457 22.0071ZM19.7973 23.9376L20.7672 24.1811L20.7816 24.1238L20.7892 24.0652L19.7973 23.9376ZM19.375 25.6197L18.4051 25.3762L18.3553 25.5746L18.3874 25.7766L19.375 25.6197ZM19.6282 27.2131L20.6259 27.1466L20.6229 27.1011L20.6158 27.0561L19.6282 27.2131ZM19.7121 28.474L18.7144 28.5405L18.7218 28.6527L18.7541 28.7605L19.7121 28.474ZM20.2137 30.1514L21.1941 30.348L21.2431 30.1037L21.1717 29.8649L20.2137 30.1514ZM20.0445 30.9948L19.064 30.7982L19.0354 30.9406L19.0486 31.0853L20.0445 30.9948ZM20.1285 31.9187L19.1326 32.0092L19.1619 32.3321L19.3751 32.5763L20.1285 31.9187ZM20.714 32.5893L21.7022 32.4362L21.6578 32.1499L21.4673 31.9317L20.714 32.5893ZM20.8831 33.6812L21.2453 34.6133L21.9944 34.3222L21.8714 33.528L20.8831 33.6812ZM19.7961 34.1035L19.434 33.1714L18.7621 33.4324L18.7973 34.1524L19.7961 34.1035ZM19.9605 37.4593L18.9617 37.5082L18.9846 37.9755L19.358 38.2574L19.9605 37.4593ZM20.6312 37.9656L21.6212 38.1063L21.7042 37.5227L21.2337 37.1675L20.6312 37.9656ZM20.2137 40.9039L20.6621 41.7977L21.1301 41.5629L21.2037 41.0446L20.2137 40.9039ZM19.8765 41.0731L19.428 40.1793L18.9034 40.4426L18.8775 41.029L19.8765 41.0731ZM19.6282 46.6978L18.6291 46.6536L18.5768 47.8382L19.7532 47.6899L19.6282 46.6978ZM19.9233 46.6606L20.1229 45.6807L19.9616 45.6478L19.7983 45.6684L19.9233 46.6606ZM20.636 46.8057L20.966 45.8618L20.902 45.8394L20.8356 45.8259L20.636 46.8057ZM21.6714 47.1669L21.3456 48.1123L21.3571 48.1163L21.3687 48.12L21.6714 47.1669ZM22.1117 46.8945V45.8945H21.6308L21.3306 46.2702L22.1117 46.8945ZM22.8244 46.8945V47.8945H22.9223L23.0182 47.8756L22.8244 46.8945ZM23.4195 46.7769L23.8396 45.8695L23.5446 45.7329L23.2257 45.7959L23.4195 46.7769ZM23.7435 46.9269L23.3233 47.8344L23.5751 47.9509L23.8508 47.9211L23.7435 46.9269ZM24.0434 46.8945L23.9675 45.8974L23.9517 45.8986L23.936 45.9003L24.0434 46.8945ZM24.7837 46.8381L24.8596 47.8352L25.0242 47.8227L25.1761 47.7579L24.7837 46.8381ZM25.1352 46.6882L26.0569 46.3002L25.6671 45.374L24.7428 45.7684L25.1352 46.6882ZM25.2852 47.0445L24.3635 47.4324L24.8621 48.617L25.8878 47.8425L25.2852 47.0445ZM25.4028 46.9557L24.9865 46.0465L24.8873 46.0919L24.8002 46.1577L25.4028 46.9557ZM25.7303 46.8057L25.6476 45.8092L25.4731 45.8237L25.314 45.8965L25.7303 46.8057ZM26.4094 46.7493L27.2273 46.174L26.8976 45.7054L26.3267 45.7528L26.4094 46.7493ZM26.5546 46.9557L25.7367 47.5311L25.9975 47.9018L26.4481 47.95L26.5546 46.9557ZM27.9188 46.8057L27.6578 45.8404L26.705 46.0979L26.9501 47.054L27.9188 46.8057ZM28.1527 46.9281L27.4427 47.6323L27.4456 47.6352L28.1527 46.9281ZM28.5091 46.8669L28.056 45.9754L27.9091 46.0501L27.7939 46.168L28.5091 46.8669ZM28.8042 46.717L29.5113 46.0098L28.9982 45.4967L28.3512 45.8254L28.8042 46.717ZM29.0154 46.9281L28.3083 47.6352L28.3639 47.6908L28.4275 47.7371L29.0154 46.9281ZM29.2217 47.0781L28.6338 47.887L28.9963 48.1505L29.4342 48.0552L29.2217 47.0781ZM29.7844 46.9557V45.9557H29.677L29.5719 45.9786L29.7844 46.9557ZM30.7035 46.9557V47.9557H30.8486L30.9878 47.9145L30.7035 46.9557ZM30.9098 46.8945L31.7261 46.3169L31.3123 45.7321L30.6256 45.9358L30.9098 46.8945ZM31.7725 48.1135L30.9562 48.6912L32.5224 50.9044L32.7684 48.2042L31.7725 48.1135ZM31.8289 47.4944V46.4944H30.9158L30.833 47.4037L31.8289 47.4944ZM33.2818 47.9072L32.291 47.7718L32.0758 49.3473L33.5891 48.8588L33.2818 47.9072ZM34.1961 47.612L34.9032 46.9049L34.4708 46.4725L33.8889 46.6604L34.1961 47.612ZM34.67 48.0859L33.9629 48.793L34.5305 49.3606L35.2074 48.9292L34.67 48.0859ZM35.649 47.462L35.485 46.4756L35.2837 46.509L35.1116 46.6187L35.649 47.462ZM36.183 47.3732L36.1286 46.3747L36.0734 46.3777L36.0189 46.3868L36.183 47.3732ZM37.2184 47.3169V46.3169H37.1912L37.164 46.3183L37.2184 47.3169ZM38.6989 47.3169L38.7685 46.3193L38.7337 46.3169H38.6989V47.3169ZM40.3858 47.4344L40.3163 48.432L40.5442 48.4479L40.7564 48.3633L40.3858 47.4344ZM40.831 47.2569L41.2015 48.1857L41.3741 48.1168L41.5104 47.9906L40.831 47.2569ZM41.1549 46.9569L41.6493 46.0877L41.0128 45.7257L40.4755 46.2232L41.1549 46.9569ZM42.0452 47.4632L41.5508 48.3325L41.9743 48.5734L42.4251 48.3883L42.0452 47.4632ZM42.6966 47.1957L43.0481 46.2595L42.6802 46.1214L42.3168 46.2706L42.6966 47.1957ZM43.5257 47.4956L43.2576 48.459L43.2773 48.4645L43.2972 48.4692L43.5257 47.4956ZM44.7399 47.3732L44.8754 48.364L44.9348 48.3559L44.9929 48.3407L44.7399 47.3732ZM45.419 47.1957L45.672 48.1631L47.7005 47.6327L46.0116 46.3902L45.419 47.1957ZM44.9787 46.8717L44.5956 45.948L42.9583 46.6269L44.3861 47.6772L44.9787 46.8717ZM45.2738 46.7493L45.3192 45.7504L45.0966 45.7403L44.8908 45.8256L45.2738 46.7493ZM46.5156 46.8057L46.7642 45.8371L46.6642 45.8115L46.561 45.8068L46.5156 46.8057ZM48.1749 47.2317L47.9263 48.2003L49.1782 48.5216L49.1749 47.2291L48.1749 47.2317ZM48.1473 36.3855H47.1473L47.1473 36.388L48.1473 36.3855ZM48.1473 35.7016H49.1473V34.5444L48.0023 34.7122L48.1473 35.7016ZM47.7298 35.7628L47.5848 34.7734L47.5753 34.7748L47.5658 34.7764L47.7298 35.7628ZM47.1959 35.8516H46.1959V37.0316L47.3599 36.838L47.1959 35.8516ZM47.1959 35.5276L46.5237 34.7873L46.1959 35.0849V35.5276H47.1959ZM47.4958 35.2553L48.1681 35.9956L48.2621 35.9103L48.3318 35.8041L47.4958 35.2553ZM47.7298 34.899L48.5657 35.4478L48.7156 35.2196L48.7287 34.9469L47.7298 34.899ZM47.791 33.6236L48.7898 33.6715L48.7933 33.5998L48.7864 33.5283L47.791 33.6236ZM47.7022 32.6961L48.6976 32.6008L48.6865 32.4842L48.6486 32.3732L47.7022 32.6961ZM47.3183 31.5707L48.2647 31.2478L48.2139 31.0988L48.1197 30.9726L47.3183 31.5707ZM46.9619 31.0932L45.9712 31.2294L46.0063 31.4847L46.1605 31.6913L46.9619 31.0932ZM46.9007 30.6481L45.9431 30.36L45.8804 30.5685L45.9101 30.7843L46.9007 30.6481ZM46.9895 30.3529L46.0501 30.0102L46.0402 30.0372L46.0319 30.0649L46.9895 30.3529ZM47.0219 30.2641L46.6581 29.3327L46.2373 29.497L46.0825 29.9214L47.0219 30.2641ZM47.4059 30.1142L47.7697 31.0456L48.185 30.8834L48.3419 30.4661L47.4059 30.1142ZM47.4622 29.9642L48.3983 30.3161L48.5664 29.8688L48.3241 29.457L47.4622 29.9642ZM47.1671 29.4627L46.6664 28.5971L45.7943 29.1016L46.3053 29.9699L47.1671 29.4627ZM47.4346 29.3079L47.9354 30.1735L47.9421 30.1696L47.9488 30.1656L47.4346 29.3079ZM47.857 29.0547L48.3711 29.9124L48.7973 29.657L48.8511 29.163L47.857 29.0547ZM48.0214 27.5454L49.0155 27.6537L49.0168 27.6411L49.0179 27.6284L48.0214 27.5454ZM48.1053 26.5376L49.1019 26.6206L49.1053 26.5792V26.5376H48.1053ZM48.1053 23.009H49.1053V22.8876L49.0763 22.7697L48.1053 23.009ZM47.857 22.0011L46.8681 21.8523L46.8386 22.0481L46.886 22.2404L47.857 22.0011ZM48.0214 20.9093L47.041 20.7121L47.0361 20.7362L47.0325 20.7604L48.0214 20.9093ZM48.1053 20.4918L49.0857 20.689L49.2434 19.905L48.5132 19.5788L48.1053 20.4918ZM47.3507 20.1547L47.7585 19.2416L47.6466 19.1916L47.5259 19.1701L47.3507 20.1547ZM44.5059 19.6483L44.6812 18.6638L44.0599 18.5532L43.6927 19.0665L44.5059 19.6483ZM44.0836 20.2386L43.112 20.4751L43.6277 22.5945L44.8969 20.8205L44.0836 20.2386ZM43.9192 19.5632L44.8909 19.3267L44.7078 18.5745L43.9338 18.5633L43.9192 19.5632ZM38.4734 19.484L38.4879 18.4841L37.6421 18.4718L37.4897 19.3038L38.4734 19.484ZM38.3042 20.4078L38.4294 21.3999L39.1559 21.3082L39.2878 20.5879L38.3042 20.4078ZM36.964 20.577L36.0012 20.8473L36.2342 21.677L37.0893 21.5691L36.964 20.577ZM36.7996 19.9915L37.7624 19.7212L37.5872 19.0971L36.946 19.0022L36.7996 19.9915ZM44.8887 37.3045L45.8519 37.5733L46.045 36.8814L45.4508 36.4775L44.8887 37.3045ZM43.3469 42.8296L43.3789 43.8291L44.1128 43.8056L44.3101 43.0984L43.3469 42.8296ZM39.672 42.9472L38.9417 43.6304L39.2512 43.9612L39.7039 43.9467L39.672 42.9472ZM42.9918 25.4338L43.9817 25.5755L44.0815 24.8785L43.459 24.5496L42.9918 25.4338ZM42.3967 29.5911L42.678 30.5507L43.2954 30.3697L43.3866 29.7328L42.3967 29.5911ZM41.9792 29.7134L41.3728 30.5086L41.775 30.8153L42.2604 30.6731L41.9792 29.7134ZM30.6711 42.0701L31.0058 43.0125L32.495 42.4835L31.3794 41.3642L30.6711 42.0701ZM27.1749 43.3119L27.1108 44.3099L27.3159 44.323L27.5096 44.2543L27.1749 43.3119ZM25.3428 43.1943L24.6978 43.9585L24.9497 44.1712L25.2787 44.1923L25.3428 43.1943ZM36.0292 18.3221L31.0848 18.4061L31.1188 20.4058L36.0632 20.3218L36.0292 18.3221ZM30.5006 18.6069L29.4976 19.3616L30.7 20.9597L31.703 20.2051L30.5006 18.6069ZM29.3917 20.8678L29.4757 20.9517L30.8899 19.5375L30.8059 19.4535L29.3917 20.8678ZM30.1571 19.245L26.89 19.329L26.9414 21.3283L30.2085 21.2443L30.1571 19.245ZM27.7208 20.9217L27.9692 20.5846L26.359 19.3984L26.1106 19.7355L27.7208 20.9217ZM27.1868 18.9917L19.7348 18.8226L19.6894 20.822L27.1414 20.9912L27.1868 18.9917ZM18.7256 19.6587L18.6416 20.165L20.6147 20.4923L20.6987 19.9859L18.7256 19.6587ZM18.6343 20.218L18.5503 20.9727L20.538 21.1939L20.622 20.4392L18.6343 20.218ZM18.6653 21.5604L19.1668 22.4842L20.9245 21.53L20.423 20.6062L18.6653 21.5604ZM19.0539 21.8795L18.8055 23.81L20.7892 24.0652L21.0375 22.1347L19.0539 21.8795ZM18.8274 23.6941L18.4051 25.3762L20.3449 25.8632L20.7672 24.1811L18.8274 23.6941ZM18.3874 25.7766L18.6405 27.37L20.6158 27.0561L20.3626 25.4628L18.3874 25.7766ZM18.6304 27.2795L18.7144 28.5405L20.7099 28.4076L20.6259 27.1466L18.6304 27.2795ZM18.7541 28.7605L19.2556 30.4378L21.1717 29.8649L20.6702 28.1876L18.7541 28.7605ZM19.2332 29.9547L19.064 30.7982L21.025 31.1915L21.1941 30.348L19.2332 29.9547ZM19.0486 31.0853L19.1326 32.0092L21.1244 31.8281L21.0404 30.9043L19.0486 31.0853ZM19.3751 32.5763L19.9606 33.247L21.4673 31.9317L20.8818 31.261L19.3751 32.5763ZM19.7258 32.7425L19.8949 33.8343L21.8714 33.528L21.7022 32.4362L19.7258 32.7425ZM20.521 32.749L19.434 33.1714L20.1583 35.0356L21.2453 34.6133L20.521 32.749ZM18.7973 34.1524L18.9617 37.5082L20.9593 37.4104L20.7949 34.0546L18.7973 34.1524ZM19.358 38.2574L20.0287 38.7637L21.2337 37.1675L20.563 36.6612L19.358 38.2574ZM19.6411 37.8249L19.2236 40.7633L21.2037 41.0446L21.6212 38.1063L19.6411 37.8249ZM19.7652 40.0101L19.428 40.1793L20.325 41.9669L20.6621 41.7977L19.7652 40.0101ZM18.8775 41.029L18.6291 46.6536L20.6272 46.7419L20.8755 41.1172L18.8775 41.029ZM19.7532 47.6899L20.0483 47.6527L19.7983 45.6684L19.5031 45.7056L19.7532 47.6899ZM19.7237 47.6404L20.4364 47.7856L20.8356 45.8259L20.1229 45.6807L19.7237 47.6404ZM20.636 46.8057C20.3059 47.7497 20.3059 47.7497 20.3059 47.7497C20.3059 47.7497 20.306 47.7497 20.306 47.7497C20.306 47.7497 20.306 47.7497 20.3061 47.7498C20.3062 47.7498 20.3064 47.7498 20.3066 47.7499C20.307 47.7501 20.3076 47.7503 20.3084 47.7506C20.31 47.7511 20.3125 47.752 20.3156 47.7531C20.322 47.7553 20.3313 47.7586 20.3432 47.7627C20.367 47.7711 20.4013 47.783 20.4429 47.7976C20.5261 47.8267 20.639 47.8661 20.7575 47.9075C20.993 47.9897 21.2544 48.0809 21.3456 48.1123L21.9972 46.2214C21.9109 46.1917 21.6545 46.1023 21.4168 46.0193C21.2985 45.978 21.1859 45.9386 21.1027 45.9095C21.0611 45.895 21.027 45.8831 21.0032 45.8748C20.9913 45.8706 20.982 45.8674 20.9757 45.8652C20.9725 45.864 20.9701 45.8632 20.9685 45.8626C20.9677 45.8624 20.9671 45.8621 20.9667 45.862C20.9665 45.8619 20.9663 45.8619 20.9662 45.8618C20.9661 45.8618 20.9661 45.8618 20.9661 45.8618C20.9661 45.8618 20.9661 45.8618 20.966 45.8618C20.966 45.8618 20.966 45.8618 20.636 46.8057ZM21.3687 48.12C21.754 48.2423 22.0805 48.127 22.2341 48.0561C22.4011 47.979 22.53 47.8786 22.608 47.8119C22.6925 47.7397 22.7606 47.6692 22.8055 47.6202C22.8288 47.5947 22.8482 47.5725 22.8627 47.5554C22.87 47.5468 22.8762 47.5393 22.8813 47.5332C22.8838 47.5301 22.886 47.5274 22.888 47.525C22.8889 47.5238 22.8898 47.5227 22.8906 47.5217C22.8911 47.5211 22.8914 47.5207 22.8918 47.5202C22.892 47.52 22.8922 47.5197 22.8924 47.5195C22.8925 47.5194 22.8926 47.5192 22.8926 47.5192C22.8928 47.519 22.8929 47.5189 22.1117 46.8945C21.3306 46.2702 21.3307 46.27 21.3308 46.2699C21.3309 46.2698 21.331 46.2697 21.3311 46.2696C21.3312 46.2694 21.3314 46.2692 21.3316 46.269C21.3319 46.2686 21.3322 46.2682 21.3324 46.2679C21.333 46.2672 21.3335 46.2665 21.334 46.2659C21.3349 46.2648 21.3357 46.2639 21.3362 46.2632C21.3373 46.2619 21.3377 46.2614 21.3375 46.2617C21.337 46.2623 21.3344 46.2653 21.3303 46.2698C21.3204 46.2806 21.3118 46.2888 21.3083 46.2918C21.2984 46.3002 21.3283 46.2714 21.3961 46.2401C21.4506 46.215 21.6776 46.1196 21.9741 46.2138L21.3687 48.12ZM22.1117 47.8945H22.8244V45.8945H22.1117V47.8945ZM23.0182 47.8756L23.6133 47.758L23.2257 45.7959L22.6306 45.9135L23.0182 47.8756ZM22.9994 47.6844L23.3233 47.8344L24.1636 46.0194L23.8396 45.8695L22.9994 47.6844ZM23.8508 47.9211L24.1508 47.8887L23.936 45.9003L23.6361 45.9327L23.8508 47.9211ZM24.1194 47.8916L24.8596 47.8352L24.7077 45.841L23.9675 45.8974L24.1194 47.8916ZM25.1761 47.7579L25.5276 47.6079L24.7428 45.7684L24.3913 45.9183L25.1761 47.7579ZM24.2135 47.0761L24.3635 47.4324L26.2069 46.6566L26.0569 46.3002L24.2135 47.0761ZM25.8878 47.8425L26.0054 47.7538L24.8002 46.1577L24.6826 46.2464L25.8878 47.8425ZM25.8191 47.8649L26.1466 47.715L25.314 45.8965L24.9865 46.0465L25.8191 47.8649ZM25.8131 47.8023L26.4922 47.7459L26.3267 45.7528L25.6476 45.8092L25.8131 47.8023ZM25.5915 47.3247L25.7367 47.5311L27.3725 46.3803L27.2273 46.174L25.5915 47.3247ZM26.5546 46.9557C26.4481 47.95 26.4481 47.95 26.4482 47.95C26.4482 47.95 26.4482 47.95 26.4482 47.95C26.4483 47.95 26.4483 47.9501 26.4484 47.9501C26.4486 47.9501 26.4488 47.9501 26.449 47.9501C26.4495 47.9502 26.4502 47.9503 26.4511 47.9503C26.4529 47.9505 26.4554 47.9508 26.4587 47.9512C26.4653 47.9519 26.4748 47.9529 26.4869 47.9541C26.5111 47.9566 26.5458 47.9602 26.5882 47.9645C26.6728 47.9731 26.7892 47.9845 26.9157 47.996C27.1491 48.0172 27.4779 48.0445 27.68 48.0445V46.0445C27.5858 46.0445 27.3518 46.0274 27.0966 46.0042C26.9788 45.9935 26.8694 45.9827 26.7893 45.9747C26.7494 45.9706 26.7169 45.9673 26.6946 45.9649C26.6835 45.9638 26.6749 45.9629 26.6692 45.9623C26.6664 45.962 26.6642 45.9617 26.6628 45.9616C26.6622 45.9615 26.6617 45.9615 26.6614 45.9614C26.6612 45.9614 26.6611 45.9614 26.6611 45.9614C26.661 45.9614 26.661 45.9614 26.661 45.9614L26.661 45.9614C26.661 45.9614 26.6611 45.9614 26.5546 46.9557ZM27.68 48.0445C27.8829 48.0445 28.131 48.0043 28.3672 47.8593C28.6162 47.7064 28.7698 47.4871 28.8491 47.2737C28.9222 47.0772 28.9275 46.9023 28.9225 46.7962C28.9199 46.7394 28.9136 46.6904 28.9072 46.6517C28.9039 46.6321 28.9005 46.6144 28.8971 46.5988C28.8955 46.591 28.8938 46.5836 28.8922 46.5767C28.8914 46.5733 28.8906 46.57 28.8898 46.5668C28.8894 46.5651 28.889 46.5636 28.8886 46.562C28.8884 46.5613 28.8882 46.5605 28.888 46.5597C28.8879 46.5594 28.8878 46.5588 28.8877 46.5586C28.8876 46.558 28.8874 46.5575 27.9188 46.8057C26.9501 47.054 26.9499 47.0534 26.9498 47.0529C26.9497 47.0527 26.9496 47.0521 26.9495 47.0518C26.9493 47.051 26.9491 47.0503 26.9489 47.0495C26.9486 47.048 26.9482 47.0466 26.9478 47.0451C26.9471 47.0421 26.9464 47.0391 26.9457 47.0361C26.9443 47.0302 26.9429 47.0241 26.9416 47.0181C26.939 47.0059 26.9366 46.9934 26.9344 46.9803C26.9301 46.9547 26.9263 46.9243 26.9247 46.8899C26.9219 46.8286 26.9237 46.7134 26.9746 46.5766C27.0317 46.4229 27.1444 46.2632 27.3205 46.1551C27.4838 46.0548 27.6271 46.0445 27.68 46.0445V48.0445ZM27.9188 46.8057C28.1797 47.7711 28.1788 47.7713 28.1779 47.7716C28.1776 47.7717 28.1766 47.7719 28.176 47.7721C28.1748 47.7724 28.1736 47.7727 28.1723 47.7731C28.1699 47.7737 28.1674 47.7743 28.1649 47.775C28.16 47.7762 28.155 47.7774 28.15 47.7786C28.1401 47.781 28.13 47.7832 28.1199 47.7853C28.0996 47.7894 28.079 47.7929 28.0582 47.7958C28.0164 47.8015 27.974 47.8044 27.9314 47.8043C27.8448 47.804 27.7634 47.791 27.6897 47.7686C27.5404 47.7231 27.461 47.6507 27.4427 47.6323L28.8627 46.2239C28.6993 46.0591 28.5029 45.9256 28.2729 45.8555C28.1589 45.8207 28.0462 45.8047 27.9384 45.8043C27.8852 45.8041 27.8347 45.8077 27.7875 45.8142C27.764 45.8174 27.7413 45.8213 27.7197 45.8257C27.7089 45.8279 27.6983 45.8303 27.688 45.8327C27.6828 45.834 27.6777 45.8352 27.6727 45.8365C27.6702 45.8371 27.6677 45.8378 27.6652 45.8384C27.664 45.8387 27.6627 45.8391 27.6615 45.8394C27.6609 45.8396 27.66 45.8398 27.6597 45.8399C27.6587 45.8401 27.6578 45.8404 27.9188 46.8057ZM27.4456 47.6352C27.6662 47.8559 27.9501 47.972 28.2397 47.9813C28.4979 47.9896 28.7029 47.9119 28.8228 47.8539C28.9481 47.7932 29.0434 47.7233 29.1014 47.6767C29.1324 47.6517 29.1583 47.6289 29.1783 47.6104C29.1884 47.601 29.1973 47.5926 29.2049 47.5851C29.2088 47.5814 29.2123 47.5779 29.2155 47.5747C29.2171 47.5731 29.2186 47.5716 29.2201 47.5701C29.2208 47.5693 29.2215 47.5686 29.2222 47.5679C29.2226 47.5676 29.2229 47.5672 29.2232 47.5669C29.2234 47.5667 29.2237 47.5665 29.2237 47.5664C29.224 47.5661 29.2242 47.5659 28.5091 46.8669C27.7939 46.168 27.7941 46.1677 27.7944 46.1675C27.7944 46.1674 27.7947 46.1672 27.7948 46.167C27.7952 46.1667 27.7955 46.1663 27.7958 46.166C27.7964 46.1654 27.7971 46.1647 27.7977 46.1641C27.799 46.1628 27.8002 46.1616 27.8014 46.1604C27.8038 46.1579 27.8062 46.1556 27.8085 46.1534C27.813 46.149 27.8173 46.1449 27.8215 46.141C27.8296 46.1335 27.8382 46.126 27.8476 46.1185C27.8621 46.1068 27.8965 46.0802 27.9515 46.0536C28.0011 46.0296 28.1263 45.9767 28.3036 45.9823C28.5123 45.989 28.7142 46.0754 28.8598 46.221L27.4456 47.6352ZM28.9621 47.7584L29.2572 47.6085L28.3512 45.8254L28.056 45.9754L28.9621 47.7584ZM28.0971 47.4241L28.3083 47.6352L29.7225 46.221L29.5113 46.0098L28.0971 47.4241ZM28.4275 47.7371L28.6338 47.887L29.8096 46.2692L29.6033 46.1192L28.4275 47.7371ZM29.4342 48.0552L29.9969 47.9329L29.5719 45.9786L29.0092 46.1009L29.4342 48.0552ZM29.7844 47.9557H30.7035V45.9557H29.7844V47.9557ZM30.9878 47.9145L31.1941 47.8533L30.6256 45.9358L30.4192 45.997L30.9878 47.9145ZM30.0936 47.4722L30.9562 48.6912L32.5888 47.5359L31.7261 46.3169L30.0936 47.4722ZM32.7684 48.2042L32.8248 47.5851L30.833 47.4037L30.7766 48.0228L32.7684 48.2042ZM31.8289 48.4944H33.2207V46.4944H31.8289V48.4944ZM33.2207 48.4944C33.0759 48.4944 32.9291 48.4613 32.7935 48.3935C32.6616 48.3275 32.5654 48.2415 32.499 48.1644C32.377 48.0225 32.3333 47.8852 32.3196 47.8381C32.3025 47.7794 32.2979 47.7373 32.2967 47.7253C32.2952 47.7099 32.2953 47.7029 32.2954 47.7066C32.2954 47.7151 32.2947 47.7326 32.2928 47.7539C32.292 47.763 32.2912 47.7701 32.2907 47.7739C32.2905 47.7758 32.2904 47.7767 32.2904 47.7764C32.2905 47.7763 32.2905 47.7758 32.2906 47.7751C32.2907 47.7747 32.2907 47.7742 32.2908 47.7737C32.2908 47.7734 32.2909 47.7731 32.2909 47.7728C32.2909 47.7726 32.291 47.7725 32.291 47.7723C32.291 47.7722 32.291 47.7721 32.291 47.772C32.291 47.7719 32.291 47.7718 33.2818 47.9072C34.2726 48.0425 34.2727 48.0424 34.2727 48.0422C34.2727 48.0422 34.2727 48.0421 34.2727 48.042C34.2727 48.0418 34.2728 48.0416 34.2728 48.0414C34.2729 48.0409 34.2729 48.0405 34.273 48.04C34.2731 48.0391 34.2732 48.038 34.2734 48.0369C34.2737 48.0345 34.2741 48.0318 34.2745 48.0286C34.2753 48.0223 34.2762 48.0143 34.2773 48.0049C34.2795 47.9862 34.2822 47.9611 34.2849 47.9315C34.2899 47.8753 34.2959 47.7896 34.2953 47.695C34.2949 47.6193 34.291 47.4551 34.2401 47.2798C34.2151 47.1939 34.1566 47.0244 34.0151 46.8599C33.8486 46.6665 33.574 46.4944 33.2207 46.4944V48.4944ZM33.5891 48.8588L34.5033 48.5636L33.8889 46.6604L32.9746 46.9555L33.5891 48.8588ZM33.489 48.3191L33.9629 48.793L35.3771 47.3788L34.9032 46.9049L33.489 48.3191ZM35.2074 48.9292L36.1865 48.3053L35.1116 46.6187L34.1326 47.2426L35.2074 48.9292ZM35.8131 48.4485L36.347 48.3597L36.0189 46.3868L35.485 46.4756L35.8131 48.4485ZM36.2373 48.3718L37.2728 48.3154L37.164 46.3183L36.1286 46.3747L36.2373 48.3718ZM37.2184 48.3169H38.6989V46.3169H37.2184V48.3169ZM38.6294 48.3144L40.3163 48.432L40.4554 46.4368L38.7685 46.3193L38.6294 48.3144ZM40.7564 48.3633L41.2015 48.1857L40.4604 46.328L40.0153 46.5056L40.7564 48.3633ZM41.5104 47.9906L41.8343 47.6907L40.4755 46.2232L40.1516 46.5231L41.5104 47.9906ZM40.6605 47.8262L41.5508 48.3325L42.5395 46.594L41.6493 46.0877L40.6605 47.8262ZM42.4251 48.3883L43.0765 48.1207L42.3168 46.2706L41.6653 46.5382L42.4251 48.3883ZM42.6966 47.1957C42.3452 48.1319 42.3452 48.1319 42.3452 48.1319C42.3452 48.1319 42.3452 48.1319 42.3452 48.1319C42.3453 48.1319 42.3453 48.1319 42.3454 48.1319C42.3455 48.132 42.3456 48.132 42.3458 48.1321C42.3462 48.1322 42.3467 48.1324 42.3474 48.1327C42.3489 48.1332 42.3509 48.134 42.3536 48.135C42.359 48.1371 42.3669 48.14 42.3769 48.1438C42.397 48.1513 42.4257 48.162 42.4605 48.175C42.5299 48.2009 42.624 48.2358 42.7221 48.2719C42.8884 48.3331 43.1489 48.4287 43.2576 48.459L43.7939 46.5322C43.8065 46.5358 43.7778 46.527 43.6827 46.4931C43.6043 46.4652 43.5081 46.4301 43.413 46.3951C43.3183 46.3602 43.227 46.3263 43.1592 46.301C43.1253 46.2884 43.0974 46.2779 43.0781 46.2707C43.0684 46.2671 43.0608 46.2642 43.0557 46.2623C43.0532 46.2614 43.0512 46.2606 43.05 46.2602C43.0493 46.2599 43.0488 46.2597 43.0485 46.2596C43.0484 46.2596 43.0483 46.2595 43.0482 46.2595C43.0482 46.2595 43.0481 46.2595 43.0481 46.2595C43.0481 46.2595 43.0481 46.2595 43.0481 46.2595C43.0481 46.2595 43.0481 46.2595 42.6966 47.1957ZM43.2972 48.4692C43.4652 48.5086 43.6332 48.4981 43.647 48.4977C43.7122 48.4953 43.7834 48.4902 43.85 48.4845C43.9854 48.473 44.146 48.4553 44.2939 48.4379C44.4438 48.4202 44.5888 48.4018 44.6959 48.3879C44.7496 48.3809 44.7941 48.375 44.8253 48.3708C44.8409 48.3687 44.8533 48.367 44.8618 48.3659C44.866 48.3653 44.8693 48.3648 44.8716 48.3645C44.8728 48.3644 44.8737 48.3643 44.8743 48.3642C44.8746 48.3641 44.8749 48.3641 44.875 48.3641C44.8751 48.3641 44.8752 48.364 44.8753 48.364C44.8753 48.364 44.8753 48.364 44.8754 48.364C44.8754 48.364 44.8754 48.364 44.7399 47.3732C44.6044 46.3825 44.6044 46.3825 44.6044 46.3825C44.6044 46.3825 44.6044 46.3825 44.6044 46.3825C44.6044 46.3825 44.6044 46.3825 44.6044 46.3825C44.6043 46.3825 44.6041 46.3825 44.6039 46.3825C44.6035 46.3826 44.6028 46.3827 44.6019 46.3828C44.6 46.3831 44.5972 46.3835 44.5934 46.384C44.5857 46.385 44.5744 46.3865 44.5598 46.3885C44.5306 46.3924 44.4885 46.398 44.4376 46.4046C44.3353 46.4179 44.1989 46.4353 44.0599 46.4517C43.919 46.4683 43.7834 46.4829 43.68 46.4918C43.6273 46.4963 43.5935 46.4983 43.5763 46.4989C43.5672 46.4992 43.5726 46.4988 43.5875 46.4992C43.5952 46.4994 43.6118 46.5001 43.6343 46.5022C43.6533 46.504 43.6975 46.5088 43.7542 46.5221L43.2972 48.4692ZM44.9929 48.3407L45.672 48.1631L45.166 46.2282L44.4869 46.4058L44.9929 48.3407ZM46.0116 46.3902L45.5713 46.0662L44.3861 47.6772L44.8264 48.0012L46.0116 46.3902ZM45.3617 47.7955L45.6568 47.6731L44.8908 45.8256L44.5956 45.948L45.3617 47.7955ZM45.2284 47.7483L46.4702 47.8047L46.561 45.8068L45.3192 45.7504L45.2284 47.7483ZM46.267 47.7743L47.9263 48.2003L48.4235 46.2631L46.7642 45.8371L46.267 47.7743ZM49.1749 47.2291L49.1473 36.383L47.1473 36.388L47.1749 47.2342L49.1749 47.2291ZM49.1473 36.3855V35.7016H47.1473V36.3855H49.1473ZM48.0023 34.7122L47.5848 34.7734L47.8748 36.7522L48.2923 36.691L48.0023 34.7122ZM47.5658 34.7764L47.0318 34.8651L47.3599 36.838L47.8938 36.7493L47.5658 34.7764ZM48.1959 35.8516V35.5276H46.1959V35.8516H48.1959ZM47.8681 36.268L48.1681 35.9956L46.8236 34.5149L46.5237 34.7873L47.8681 36.268ZM48.3318 35.8041L48.5657 35.4478L46.8939 34.3501L46.6599 34.7064L48.3318 35.8041ZM48.7287 34.9469L48.7898 33.6715L46.7921 33.5756L46.7309 34.851L48.7287 34.9469ZM48.7864 33.5283L48.6976 32.6008L46.7068 32.7914L46.7955 33.7189L48.7864 33.5283ZM48.6486 32.3732L48.2647 31.2478L46.3718 31.8936L46.7558 33.019L48.6486 32.3732ZM48.1197 30.9726L47.7634 30.4951L46.1605 31.6913L46.5168 32.1688L48.1197 30.9726ZM47.9526 30.957L47.8914 30.5119L45.9101 30.7843L45.9712 31.2294L47.9526 30.957ZM47.8583 30.9361L47.9471 30.641L46.0319 30.0649L45.9431 30.36L47.8583 30.9361ZM47.9289 30.6957L47.9613 30.6069L46.0825 29.9214L46.0501 30.0102L47.9289 30.6957ZM47.3858 31.1956L47.7697 31.0456L47.042 29.1827L46.6581 29.3327L47.3858 31.1956ZM48.3419 30.4661L48.3983 30.3161L46.5262 29.6123L46.4698 29.7622L48.3419 30.4661ZM48.3241 29.457L48.0289 28.9555L46.3053 29.9699L46.6004 30.4714L48.3241 29.457ZM47.6678 30.3283L47.9354 30.1735L46.9339 28.4423L46.6664 28.5971L47.6678 30.3283ZM47.9488 30.1656L48.3711 29.9124L47.3428 28.197L46.9205 28.4502L47.9488 30.1656ZM48.8511 29.163L49.0155 27.6537L47.0272 27.4371L46.8629 28.9465L48.8511 29.163ZM49.0179 27.6284L49.1019 26.6206L47.1088 26.4545L47.0248 27.4624L49.0179 27.6284ZM49.1053 26.5376V23.009H47.1053V26.5376H49.1053ZM49.0763 22.7697L48.8279 21.7619L46.886 22.2404L47.1344 23.2482L49.0763 22.7697ZM48.8458 22.15L49.0102 21.0582L47.0325 20.7604L46.8681 21.8523L48.8458 22.15ZM49.0017 21.1065L49.0857 20.689L47.125 20.2946L47.041 20.7121L49.0017 21.1065ZM48.5132 19.5788L47.7585 19.2416L46.9428 21.0677L47.6974 21.4048L48.5132 19.5788ZM47.5259 19.1701L44.6812 18.6638L44.3307 20.6329L47.1754 21.1392L47.5259 19.1701ZM43.6927 19.0665L43.2703 19.6568L44.8969 20.8205L45.3192 20.2302L43.6927 19.0665ZM45.0553 20.0022L44.8909 19.3267L42.9476 19.7996L43.112 20.4751L45.0553 20.0022ZM43.9338 18.5633L38.4879 18.4841L38.4588 20.4839L43.9047 20.563L43.9338 18.5633ZM37.4897 19.3038L37.3206 20.2277L39.2878 20.5879L39.457 19.6641L37.4897 19.3038ZM38.179 19.4157L36.8388 19.5849L37.0893 21.5691L38.4294 21.3999L38.179 19.4157ZM37.9268 20.3067L37.7624 19.7212L35.8369 20.2618L36.0012 20.8473L37.9268 20.3067ZM36.946 19.0022L35.7702 18.8283L35.4775 20.8067L36.6533 20.9807L36.946 19.0022ZM24.8394 24.8858L44.3265 38.1316L45.4508 36.4775L25.9637 23.2318L24.8394 24.8858ZM43.9255 37.0358L42.3837 42.5608L44.3101 43.0984L45.8519 37.5733L43.9255 37.0358ZM43.315 41.8301L39.64 41.9477L39.7039 43.9467L43.3789 43.8291L43.315 41.8301ZM40.4022 42.264L23.4083 24.0991L21.9478 25.4654L38.9417 43.6304L40.4022 42.264ZM40.3878 25.1889L42.5246 26.3179L43.459 24.5496L41.3221 23.4206L40.3878 25.1889ZM42.0019 25.2921L41.4068 29.4494L43.3866 29.7328L43.9817 25.5755L42.0019 25.2921ZM42.1154 28.6314L41.6979 28.7538L42.2604 30.6731L42.678 30.5507L42.1154 28.6314ZM42.5855 28.9182L36.9009 24.5834L35.6882 26.1737L41.3728 30.5086L42.5855 28.9182ZM24.1606 36.9547L29.9628 42.7761L31.3794 41.3642L25.5771 35.5428L24.1606 36.9547ZM30.3364 41.1278L26.8402 42.3696L27.5096 44.2543L31.0058 43.0125L30.3364 41.1278ZM27.2389 42.314L25.4068 42.1964L25.2787 44.1923L27.1108 44.3099L27.2389 42.314ZM25.9878 42.4302L23.7334 40.5273L22.4434 42.0556L24.6978 43.9585L25.9878 42.4302Z" fill="url(#paint2_linear_4_14193)" mask="url(#path-4-inside-1_4_14193)"/>
</g>
<mask id="path-6-inside-2_4_14193" fill="white">
<path d="M34.2728 17.605L29.3283 17.689L28.3253 18.4437L28.4093 18.5277L25.1422 18.6116L25.3906 18.2745L17.9387 18.1053L17.8547 18.6116L17.7707 19.3663L18.2723 20.2902L18.0239 22.2207L17.6016 23.9028L17.8547 25.4961L17.9387 26.7571L18.4402 28.4344L18.271 29.2779L18.355 30.2017L18.9405 30.8724L19.1097 31.9642L18.0227 32.3866L18.1871 35.7424L18.8577 36.2488L18.4402 39.1871L18.1031 39.3563L17.8547 44.9811L18.1499 44.944L18.8625 45.0892C18.8625 45.0892 19.7204 45.3892 19.898 45.4504C20.0755 45.5068 20.3383 45.178 20.3383 45.178H21.051L21.6461 45.0604L21.97 45.2104L22.27 45.1779L23.0102 45.1215L23.3618 44.9715L23.5118 45.3279L23.6293 45.2391L23.9569 45.0891L24.636 45.0327L24.7811 45.2391C24.7811 45.2391 25.6102 45.3279 25.9066 45.3279C26.2065 45.3279 26.1453 45.0891 26.1453 45.0891C26.1453 45.0891 26.2341 45.0649 26.3793 45.2115C26.5292 45.3615 26.7356 45.1503 26.7356 45.1503L27.0308 45.0003L27.2419 45.2115L27.4483 45.3615L28.011 45.2391H28.93L29.1364 45.1779L29.9991 46.3969L30.0555 45.7778H31.4472C31.5648 45.7778 31.5084 46.1905 31.5084 46.1905L32.4227 45.8954L32.8966 46.3693L33.8756 45.7454L34.4095 45.6566L35.445 45.6002H36.9255L38.6124 45.7178L39.0575 45.5402L39.3815 45.2403L40.2717 45.7466L40.9232 45.479C40.9232 45.479 41.6359 45.7466 41.7523 45.779C41.8699 45.8066 42.9665 45.6566 42.9665 45.6566L43.6455 45.479L43.2052 45.1551L43.5004 45.0327L44.7422 45.0891L46.4015 45.515L46.3739 34.6687V33.9848L45.9564 34.046L45.4225 34.1348V33.8109L45.7224 33.5385L45.9564 33.1822L46.0176 31.9068L45.9288 30.9793L45.5448 29.8539L45.1885 29.3764L45.1273 28.9313L45.2161 28.6361L45.2486 28.5473L45.6325 28.3974L45.6889 28.2474L45.3938 27.7459L45.6613 27.5911L46.0837 27.3379L46.248 25.8286L46.332 24.8208V21.2921L46.0837 20.2843L46.248 19.1925L46.332 18.7749L45.5773 18.4378L42.7326 17.9315L42.3103 18.5218L42.1459 17.8463L36.6999 17.7671L36.5307 18.691L35.1905 18.8601L35.0261 18.2746L33.8503 18.1007M23.628 22.3421L43.1153 35.5881L41.5735 41.1132L37.8985 41.2307L20.9043 23.0656M39.0815 22.5881L41.2184 23.7171L40.6233 27.8743L40.2058 27.9966L34.5213 23.6618M23.0955 34.532L28.898 40.3533L25.4017 41.5951L23.5696 41.4775L21.3151 39.5746"/>
</mask>
<path d="M34.2728 17.605L29.3283 17.689L28.3253 18.4437L28.4093 18.5277L25.1422 18.6116L25.3906 18.2745L17.9387 18.1053L17.8547 18.6116L17.7707 19.3663L18.2723 20.2902L18.0239 22.2207L17.6016 23.9028L17.8547 25.4961L17.9387 26.7571L18.4402 28.4344L18.271 29.2779L18.355 30.2017L18.9405 30.8724L19.1097 31.9642L18.0227 32.3866L18.1871 35.7424L18.8577 36.2488L18.4402 39.1871L18.1031 39.3563L17.8547 44.9811L18.1499 44.944L18.8625 45.0892C18.8625 45.0892 19.7204 45.3892 19.898 45.4504C20.0755 45.5068 20.3383 45.178 20.3383 45.178H21.051L21.6461 45.0604L21.97 45.2104L22.27 45.1779L23.0102 45.1215L23.3618 44.9715L23.5118 45.3279L23.6293 45.2391L23.9569 45.0891L24.636 45.0327L24.7811 45.2391C24.7811 45.2391 25.6102 45.3279 25.9066 45.3279C26.2065 45.3279 26.1453 45.0891 26.1453 45.0891C26.1453 45.0891 26.2341 45.0649 26.3793 45.2115C26.5292 45.3615 26.7356 45.1503 26.7356 45.1503L27.0308 45.0003L27.2419 45.2115L27.4483 45.3615L28.011 45.2391H28.93L29.1364 45.1779L29.9991 46.3969L30.0555 45.7778H31.4472C31.5648 45.7778 31.5084 46.1905 31.5084 46.1905L32.4227 45.8954L32.8966 46.3693L33.8756 45.7454L34.4095 45.6566L35.445 45.6002H36.9255L38.6124 45.7178L39.0575 45.5402L39.3815 45.2403L40.2717 45.7466L40.9232 45.479C40.9232 45.479 41.6359 45.7466 41.7523 45.779C41.8699 45.8066 42.9665 45.6566 42.9665 45.6566L43.6455 45.479L43.2052 45.1551L43.5004 45.0327L44.7422 45.0891L46.4015 45.515L46.3739 34.6687V33.9848L45.9564 34.046L45.4225 34.1348V33.8109L45.7224 33.5385L45.9564 33.1822L46.0176 31.9068L45.9288 30.9793L45.5448 29.8539L45.1885 29.3764L45.1273 28.9313L45.2161 28.6361L45.2486 28.5473L45.6325 28.3974L45.6889 28.2474L45.3938 27.7459L45.6613 27.5911L46.0837 27.3379L46.248 25.8286L46.332 24.8208V21.2921L46.0837 20.2843L46.248 19.1925L46.332 18.7749L45.5773 18.4378L42.7326 17.9315L42.3103 18.5218L42.1459 17.8463L36.6999 17.7671L36.5307 18.691L35.1905 18.8601L35.0261 18.2746L33.8503 18.1007M23.628 22.3421L43.1153 35.5881L41.5735 41.1132L37.8985 41.2307L20.9043 23.0656M39.0815 22.5881L41.2184 23.7171L40.6233 27.8743L40.2058 27.9966L34.5213 23.6618M23.0955 34.532L28.898 40.3533L25.4017 41.5951L23.5696 41.4775L21.3151 39.5746" fill="url(#paint3_linear_4_14193)"/>
<path d="M29.3283 17.689L29.3114 16.6891L28.9866 16.6947L28.7271 16.8899L29.3283 17.689ZM28.3253 18.4437L27.7241 17.6446L26.8042 18.3367L27.6182 19.1508L28.3253 18.4437ZM28.4093 18.5277L28.435 19.5273L30.7633 19.4675L29.1164 17.8205L28.4093 18.5277ZM25.1422 18.6116L24.3371 18.0185L23.1251 19.6638L25.1679 19.6113L25.1422 18.6116ZM25.3906 18.2745L26.1957 18.8676L27.3369 17.3184L25.4133 17.2747L25.3906 18.2745ZM17.9387 18.1053L17.9614 17.1056L17.0941 17.0859L16.9522 17.9417L17.9387 18.1053ZM17.8547 18.6116L16.8682 18.448L16.8638 18.4744L16.8608 18.501L17.8547 18.6116ZM17.7707 19.3663L16.7769 19.2557L16.7422 19.5676L16.8919 19.8434L17.7707 19.3663ZM18.2723 20.2902L19.2641 20.4177L19.3053 20.0971L19.1511 19.8131L18.2723 20.2902ZM18.0239 22.2207L18.9938 22.4642L19.0082 22.4069L19.0157 22.3483L18.0239 22.2207ZM17.6016 23.9028L16.6317 23.6593L16.5819 23.8577L16.614 24.0597L17.6016 23.9028ZM17.8547 25.4961L18.8525 25.4297L18.8495 25.3842L18.8423 25.3392L17.8547 25.4961ZM17.9387 26.7571L16.9409 26.8236L16.9484 26.9358L16.9806 27.0436L17.9387 26.7571ZM18.4402 28.4344L19.4207 28.6311L19.4697 28.3867L19.3983 28.148L18.4402 28.4344ZM18.271 29.2779L17.2906 29.0812L17.262 29.2237L17.2751 29.3684L18.271 29.2779ZM18.355 30.2017L17.3591 30.2923L17.3885 30.6151L17.6017 30.8594L18.355 30.2017ZM18.9405 30.8724L19.9287 30.7193L19.8844 30.433L19.6939 30.2148L18.9405 30.8724ZM19.1097 31.9642L19.4718 32.8964L20.221 32.6053L20.0979 31.8111L19.1097 31.9642ZM18.0227 32.3866L17.6605 31.4545L16.9886 31.7155L17.0239 32.4355L18.0227 32.3866ZM18.1871 35.7424L17.1883 35.7914L17.2111 36.2587L17.5845 36.5406L18.1871 35.7424ZM18.8577 36.2488L19.8478 36.3895L19.9307 35.8058L19.4603 35.4507L18.8577 36.2488ZM18.4402 39.1871L18.8887 40.0809L19.3566 39.8461L19.4303 39.3278L18.4402 39.1871ZM18.1031 39.3563L17.6546 38.4625L17.1299 38.7257L17.104 39.3122L18.1031 39.3563ZM17.8547 44.9811L16.8557 44.937L16.8034 46.1209L17.9792 45.9733L17.8547 44.9811ZM18.1499 44.944L18.3495 43.9642L18.1884 43.9314L18.0253 43.9518L18.1499 44.944ZM18.8625 45.0892L19.1926 44.1453L19.1286 44.1229L19.0622 44.1093L18.8625 45.0892ZM19.898 45.4504L19.5722 46.3958L19.5837 46.3998L19.5953 46.4034L19.898 45.4504ZM20.3383 45.178V44.178H19.8574L19.5571 44.5537L20.3383 45.178ZM21.051 45.178V46.178H21.1488L21.2448 46.159L21.051 45.178ZM21.6461 45.0604L22.0662 44.1529L21.7712 44.0164L21.4522 44.0794L21.6461 45.0604ZM21.97 45.2104L21.5499 46.1179L21.8018 46.2345L22.0778 46.2046L21.97 45.2104ZM22.27 45.1779L22.194 44.1808L22.1781 44.182L22.1622 44.1837L22.27 45.1779ZM23.0102 45.1215L23.0862 46.1186L23.2508 46.1061L23.4027 46.0413L23.0102 45.1215ZM23.3618 44.9715L24.2835 44.5836L23.8937 43.6574L22.9694 44.0517L23.3618 44.9715ZM23.5118 45.3279L22.5901 45.7158L23.0886 46.9004L24.1143 46.1259L23.5118 45.3279ZM23.6293 45.2391L23.213 44.3299L23.1138 44.3753L23.0268 44.441L23.6293 45.2391ZM23.9569 45.0891L23.8741 44.0925L23.6997 44.107L23.5406 44.1799L23.9569 45.0891ZM24.636 45.0327L25.4539 44.4573L25.1242 43.9887L24.5532 44.0361L24.636 45.0327ZM24.7811 45.2391L23.9632 45.8145L24.224 46.1851L24.6747 46.2334L24.7811 45.2391ZM26.1453 45.0891L25.8824 44.1243L24.9321 44.3832L25.1766 45.3374L26.1453 45.0891ZM26.3793 45.2115L25.6688 45.9152L25.6722 45.9186L26.3793 45.2115ZM26.7356 45.1503L26.2826 44.2588L26.1356 44.3335L26.0204 44.4514L26.7356 45.1503ZM27.0308 45.0003L27.7379 44.2932L27.2247 43.7801L26.5777 44.1088L27.0308 45.0003ZM27.2419 45.2115L26.5348 45.9186L26.5904 45.9742L26.654 46.0204L27.2419 45.2115ZM27.4483 45.3615L26.8604 46.1704L27.2229 46.4339L27.6608 46.3386L27.4483 45.3615ZM28.011 45.2391V44.2391H27.9035L27.7985 44.2619L28.011 45.2391ZM28.93 45.2391V46.2391H29.0752L29.2143 46.1978L28.93 45.2391ZM29.1364 45.1779L29.9527 44.6002L29.5389 44.0155L28.8521 44.2191L29.1364 45.1779ZM29.9991 46.3969L29.1828 46.9745L30.749 49.1877L30.9949 46.4876L29.9991 46.3969ZM30.0555 45.7778V44.7778H29.1424L29.0596 45.6871L30.0555 45.7778ZM31.5084 46.1905L30.5176 46.0551L30.3023 47.6307L31.8156 47.1422L31.5084 46.1905ZM32.4227 45.8954L33.1298 45.1883L32.6974 44.7559L32.1154 44.9437L32.4227 45.8954ZM32.8966 46.3693L32.1895 47.0764L32.7571 47.644L33.434 47.2126L32.8966 46.3693ZM33.8756 45.7454L33.7116 44.7589L33.5103 44.7924L33.3382 44.9021L33.8756 45.7454ZM34.4095 45.6566L34.3551 44.6581L34.3 44.6611L34.2455 44.6702L34.4095 45.6566ZM35.445 45.6002V44.6002H35.4177L35.3906 44.6017L35.445 45.6002ZM36.9255 45.6002L36.995 44.6026L36.9603 44.6002H36.9255V45.6002ZM38.6124 45.7178L38.5429 46.7154L38.7708 46.7313L38.9829 46.6466L38.6124 45.7178ZM39.0575 45.5402L39.428 46.4691L39.6006 46.4002L39.7369 46.274L39.0575 45.5402ZM39.3815 45.2403L39.8759 44.371L39.2394 44.009L38.7021 44.5065L39.3815 45.2403ZM40.2717 45.7466L39.7774 46.6159L40.2009 46.8567L40.6516 46.6716L40.2717 45.7466ZM40.9232 45.479L41.2747 44.5428L40.9068 44.4047L40.5433 44.554L40.9232 45.479ZM41.7523 45.779L41.4841 46.7424L41.5039 46.7479L41.5238 46.7526L41.7523 45.779ZM42.9665 45.6566L43.102 46.6474L43.1614 46.6393L43.2194 46.6241L42.9665 45.6566ZM43.6455 45.479L43.8985 46.4465L45.9271 45.9161L44.2382 44.6735L43.6455 45.479ZM43.2052 45.1551L42.8222 44.2314L41.185 44.9103L42.6126 45.9606L43.2052 45.1551ZM43.5004 45.0327L43.5457 44.0337L43.3232 44.0236L43.1173 44.109L43.5004 45.0327ZM44.7422 45.0891L44.9908 44.1205L44.8907 44.0948L44.7875 44.0901L44.7422 45.0891ZM46.4015 45.515L46.1529 46.4836L47.4048 46.805L47.4015 45.5125L46.4015 45.515ZM46.3739 34.6687H45.3739L45.3739 34.6712L46.3739 34.6687ZM46.3739 33.9848H47.3739V32.8276L46.2289 32.9954L46.3739 33.9848ZM45.9564 34.046L45.8114 33.0566L45.8018 33.058L45.7923 33.0596L45.9564 34.046ZM45.4225 34.1348H44.4225V35.3148L45.5865 35.1212L45.4225 34.1348ZM45.4225 33.8109L44.7502 33.0705L44.4225 33.3681V33.8109H45.4225ZM45.7224 33.5385L46.3946 34.2788L46.4886 34.1935L46.5583 34.0873L45.7224 33.5385ZM45.9564 33.1822L46.7923 33.731L46.9421 33.5028L46.9552 33.2301L45.9564 33.1822ZM46.0176 31.9068L47.0164 31.9547L47.0198 31.883L47.013 31.8115L46.0176 31.9068ZM45.9288 30.9793L46.9242 30.884L46.913 30.7674L46.8752 30.6564L45.9288 30.9793ZM45.5448 29.8539L46.4913 29.531L46.4404 29.382L46.3463 29.2558L45.5448 29.8539ZM45.1885 29.3764L44.1978 29.5126L44.2329 29.7679L44.3871 29.9745L45.1885 29.3764ZM45.1273 28.9313L44.1697 28.6432L44.107 28.8517L44.1366 29.0675L45.1273 28.9313ZM45.2161 28.6361L44.277 28.2923L44.2669 28.3199L44.2585 28.3481L45.2161 28.6361ZM45.2486 28.5473L44.8847 27.6159L44.4646 27.78L44.3095 28.2035L45.2486 28.5473ZM45.6325 28.3974L45.9964 29.3288L46.4116 29.1666L46.5685 28.7493L45.6325 28.3974ZM45.6889 28.2474L46.6249 28.5993L46.7931 28.152L46.5507 27.7402L45.6889 28.2474ZM45.3938 27.7459L44.893 26.8803L44.0209 27.3848L44.5319 28.2531L45.3938 27.7459ZM45.6613 27.5911L46.1621 28.4567L46.1688 28.4528L46.1755 28.4488L45.6613 27.5911ZM46.0837 27.3379L46.5978 28.1956L47.024 27.9402L47.0778 27.4462L46.0837 27.3379ZM46.248 25.8286L47.2422 25.9369L47.2435 25.9243L47.2446 25.9116L46.248 25.8286ZM46.332 24.8208L47.3286 24.9038L47.332 24.8624V24.8208H46.332ZM46.332 21.2921H47.332V21.1707L47.303 21.0529L46.332 21.2921ZM46.0837 20.2843L45.0948 20.1354L45.0653 20.3313L45.1127 20.5236L46.0837 20.2843ZM46.248 19.1925L45.2677 18.9953L45.2628 19.0193L45.2592 19.0436L46.248 19.1925ZM46.332 18.7749L47.3124 18.9721L47.4701 18.1881L46.7399 17.8619L46.332 18.7749ZM45.5773 18.4378L45.9852 17.5248L45.8733 17.4748L45.7526 17.4533L45.5773 18.4378ZM42.7326 17.9315L42.9078 16.947L42.2865 16.8364L41.9193 17.3496L42.7326 17.9315ZM42.3103 18.5218L41.3386 18.7582L41.8544 20.8776L43.1235 19.1037L42.3103 18.5218ZM42.1459 17.8463L43.1175 17.6099L42.9345 16.8577L42.1604 16.8464L42.1459 17.8463ZM36.6999 17.7671L36.7144 16.7672L35.8686 16.7549L35.7162 17.587L36.6999 17.7671ZM36.5307 18.691L36.6559 19.6831L37.3824 19.5914L37.5143 18.8711L36.5307 18.691ZM35.1905 18.8601L34.2277 19.1304L34.4607 19.9602L35.3157 19.8523L35.1905 18.8601ZM35.0261 18.2746L35.9889 18.0044L35.8137 17.3803L35.1725 17.2854L35.0261 18.2746ZM43.1153 35.5881L44.0785 35.8569L44.2716 35.1649L43.6774 34.7611L43.1153 35.5881ZM41.5735 41.1132L41.6055 42.1126L42.3394 42.0892L42.5367 41.3819L41.5735 41.1132ZM37.8985 41.2307L37.1683 41.9139L37.4777 42.2447L37.9305 42.2302L37.8985 41.2307ZM41.2184 23.7171L42.2083 23.8588L42.3081 23.1618L41.6856 22.8329L41.2184 23.7171ZM40.6233 27.8743L40.9046 28.8339L41.522 28.6529L41.6132 28.016L40.6233 27.8743ZM40.2058 27.9966L39.5994 28.7918L40.0016 29.0986L40.487 28.9563L40.2058 27.9966ZM28.898 40.3533L29.2327 41.2956L30.7219 40.7667L29.6062 39.6473L28.898 40.3533ZM25.4017 41.5951L25.3377 42.593L25.5428 42.6062L25.7364 42.5374L25.4017 41.5951ZM23.5696 41.4775L22.9246 42.2417L23.1765 42.4543L23.5055 42.4755L23.5696 41.4775ZM34.2558 16.6052L29.3114 16.6891L29.3453 18.6888L34.2898 18.6049L34.2558 16.6052ZM28.7271 16.8899L27.7241 17.6446L28.9265 19.2427L29.9296 18.4881L28.7271 16.8899ZM27.6182 19.1508L27.7022 19.2348L29.1164 17.8205L29.0324 17.7366L27.6182 19.1508ZM28.3836 17.528L25.1165 17.612L25.1679 19.6113L28.435 19.5273L28.3836 17.528ZM25.9473 19.2047L26.1957 18.8676L24.5854 17.6814L24.3371 18.0185L25.9473 19.2047ZM25.4133 17.2747L17.9614 17.1056L17.916 19.1051L25.3679 19.2742L25.4133 17.2747ZM16.9522 17.9417L16.8682 18.448L18.8412 18.7753L18.9252 18.269L16.9522 17.9417ZM16.8608 18.501L16.7769 19.2557L18.7646 19.4769L18.8486 18.7222L16.8608 18.501ZM16.8919 19.8434L17.3934 20.7672L19.1511 19.8131L18.6496 18.8892L16.8919 19.8434ZM17.2804 20.1626L17.0321 22.0931L19.0157 22.3483L19.2641 20.4177L17.2804 20.1626ZM17.054 21.9772L16.6317 23.6593L18.5715 24.1463L18.9938 22.4642L17.054 21.9772ZM16.614 24.0597L16.8671 25.6531L18.8423 25.3392L18.5892 23.7459L16.614 24.0597ZM16.8569 25.5626L16.9409 26.8236L18.9365 26.6907L18.8525 25.4297L16.8569 25.5626ZM16.9806 27.0436L17.4821 28.7209L19.3983 28.148L18.8968 26.4707L16.9806 27.0436ZM17.4597 28.2378L17.2906 29.0812L19.2515 29.4746L19.4207 28.6311L17.4597 28.2378ZM17.2751 29.3684L17.3591 30.2923L19.3509 30.1112L19.2669 29.1874L17.2751 29.3684ZM17.6017 30.8594L18.1872 31.5301L19.6939 30.2148L19.1083 29.5441L17.6017 30.8594ZM17.9523 31.0256L18.1215 32.1174L20.0979 31.8111L19.9287 30.7193L17.9523 31.0256ZM18.7475 31.0321L17.6605 31.4545L18.3848 33.3187L19.4718 32.8964L18.7475 31.0321ZM17.0239 32.4355L17.1883 35.7914L19.1859 35.6935L19.0215 32.3377L17.0239 32.4355ZM17.5845 36.5406L18.2552 37.0469L19.4603 35.4507L18.7896 34.9443L17.5845 36.5406ZM17.8677 36.1081L17.4502 39.0464L19.4303 39.3278L19.8478 36.3895L17.8677 36.1081ZM17.9917 38.2933L17.6546 38.4625L18.5516 40.2501L18.8887 40.0809L17.9917 38.2933ZM17.104 39.3122L16.8557 44.937L18.8537 45.0252L19.1021 39.4004L17.104 39.3122ZM17.9792 45.9733L18.2744 45.9363L18.0253 43.9518L17.7302 43.9889L17.9792 45.9733ZM17.9503 45.9239L18.6629 46.0691L19.0622 44.1093L18.3495 43.9642L17.9503 45.9239ZM18.8625 45.0892C18.5325 46.0332 18.5325 46.0332 18.5325 46.0332C18.5325 46.0332 18.5325 46.0332 18.5325 46.0332C18.5326 46.0332 18.5326 46.0332 18.5327 46.0332C18.5328 46.0333 18.5329 46.0333 18.5331 46.0334C18.5335 46.0335 18.5342 46.0338 18.535 46.034C18.5366 46.0346 18.539 46.0355 18.5422 46.0366C18.5485 46.0388 18.5578 46.042 18.5698 46.0462C18.5936 46.0545 18.6278 46.0665 18.6694 46.081C18.7527 46.1101 18.8656 46.1496 18.984 46.1909C19.2196 46.2732 19.4809 46.3644 19.5722 46.3958L20.2238 44.5049C20.1374 44.4752 19.8811 44.3858 19.6433 44.3027C19.5251 44.2615 19.4124 44.2221 19.3293 44.193C19.2877 44.1785 19.2535 44.1666 19.2298 44.1582C19.2179 44.1541 19.2086 44.1508 19.2023 44.1486C19.1991 44.1475 19.1967 44.1467 19.1951 44.1461C19.1942 44.1458 19.1936 44.1456 19.1932 44.1455C19.193 44.1454 19.1929 44.1453 19.1928 44.1453C19.1927 44.1453 19.1927 44.1453 19.1926 44.1453C19.1926 44.1453 19.1926 44.1453 19.1926 44.1453C19.1926 44.1453 19.1926 44.1453 18.8625 45.0892ZM19.5953 46.4034C19.9806 46.5258 20.307 46.4105 20.4607 46.3396C20.6277 46.2625 20.7566 46.1621 20.8346 46.0954C20.919 46.0232 20.9872 45.9527 21.0321 45.9037C21.0554 45.8782 21.0747 45.856 21.0893 45.8389C21.0966 45.8303 21.1028 45.8228 21.1078 45.8167C21.1103 45.8136 21.1126 45.8109 21.1145 45.8085C21.1155 45.8073 21.1164 45.8062 21.1172 45.8051C21.1176 45.8046 21.118 45.8041 21.1184 45.8037C21.1186 45.8034 21.1188 45.8032 21.1189 45.803C21.119 45.8029 21.1191 45.8027 21.1192 45.8027C21.1193 45.8025 21.1194 45.8023 20.3383 45.178C19.5571 44.5537 19.5573 44.5535 19.5574 44.5533C19.5574 44.5533 19.5576 44.5531 19.5576 44.553C19.5578 44.5528 19.558 44.5526 19.5581 44.5525C19.5584 44.5521 19.5587 44.5517 19.559 44.5513C19.5596 44.5506 19.5601 44.55 19.5605 44.5494C19.5615 44.5483 19.5622 44.5474 19.5628 44.5467C19.5639 44.5454 19.5643 44.5449 19.5641 44.5452C19.5635 44.5458 19.5609 44.5488 19.5569 44.5533C19.5469 44.5641 19.5383 44.5723 19.5349 44.5753C19.525 44.5837 19.5549 44.5549 19.6227 44.5236C19.6771 44.4985 19.9042 44.4031 20.2007 44.4973L19.5953 46.4034ZM20.3383 46.178H21.051V44.178H20.3383V46.178ZM21.2448 46.159L21.8399 46.0414L21.4522 44.0794L20.8571 44.197L21.2448 46.159ZM21.226 45.9679L21.5499 46.1179L22.3901 44.3029L22.0662 44.1529L21.226 45.9679ZM22.0778 46.2046L22.3777 46.1721L22.1622 44.1837L21.8623 44.2162L22.0778 46.2046ZM22.3459 46.175L23.0862 46.1186L22.9343 44.1244L22.194 44.1808L22.3459 46.175ZM23.4027 46.0413L23.7542 45.8913L22.9694 44.0517L22.6178 44.2017L23.4027 46.0413ZM22.4401 45.3594L22.5901 45.7158L24.4335 44.9399L24.2835 44.5836L22.4401 45.3594ZM24.1143 46.1259L24.2319 46.0371L23.0268 44.441L22.9092 44.5298L24.1143 46.1259ZM24.0457 46.1483L24.3732 45.9983L23.5406 44.1799L23.213 44.3299L24.0457 46.1483ZM24.0396 46.0857L24.7187 46.0293L24.5532 44.0361L23.8741 44.0925L24.0396 46.0857ZM23.8181 45.6081L23.9632 45.8145L25.599 44.6637L25.4539 44.4573L23.8181 45.6081ZM24.7811 45.2391C24.6747 46.2334 24.6747 46.2334 24.6747 46.2334C24.6747 46.2334 24.6747 46.2334 24.6748 46.2334C24.6748 46.2334 24.6749 46.2334 24.675 46.2334C24.6751 46.2334 24.6753 46.2335 24.6756 46.2335C24.6761 46.2335 24.6768 46.2336 24.6776 46.2337C24.6794 46.2339 24.682 46.2342 24.6853 46.2345C24.6919 46.2352 24.7014 46.2362 24.7135 46.2375C24.7377 46.24 24.7723 46.2436 24.8148 46.2479C24.8994 46.2564 25.0158 46.2679 25.1422 46.2794C25.3757 46.3006 25.7044 46.3279 25.9066 46.3279V44.3279C25.8123 44.3279 25.5784 44.3108 25.3232 44.2876C25.2053 44.2769 25.0959 44.2661 25.0159 44.258C24.9759 44.254 24.9435 44.2506 24.9212 44.2483C24.9101 44.2471 24.9015 44.2462 24.8958 44.2456C24.8929 44.2453 24.8908 44.2451 24.8894 44.245C24.8887 44.2449 24.8882 44.2448 24.8879 44.2448C24.8878 44.2448 24.8877 44.2448 24.8876 44.2448C24.8876 44.2448 24.8876 44.2448 24.8876 44.2448C24.8876 44.2448 24.8876 44.2448 24.8876 44.2448C24.8876 44.2448 24.8876 44.2448 24.7811 45.2391ZM25.9066 46.3279C26.1095 46.3279 26.3576 46.2877 26.5938 46.1427C26.8428 45.9897 26.9964 45.7704 27.0757 45.557C27.1488 45.3605 27.1541 45.1856 27.1491 45.0795C27.1464 45.0227 27.1402 44.9737 27.1338 44.9351C27.1305 44.9155 27.127 44.8977 27.1237 44.8821C27.122 44.8743 27.1204 44.8669 27.1187 44.8601C27.1179 44.8566 27.1171 44.8533 27.1163 44.8501C27.1159 44.8485 27.1155 44.8469 27.1152 44.8454C27.115 44.8446 27.1148 44.8438 27.1146 44.8431C27.1145 44.8427 27.1143 44.8421 27.1143 44.8419C27.1141 44.8414 27.114 44.8408 26.1453 45.0891C25.1766 45.3374 25.1765 45.3368 25.1763 45.3363C25.1763 45.3361 25.1761 45.3355 25.1761 45.3352C25.1759 45.3344 25.1757 45.3337 25.1755 45.3329C25.1751 45.3314 25.1747 45.33 25.1744 45.3285C25.1736 45.3255 25.1729 45.3225 25.1722 45.3195C25.1708 45.3135 25.1695 45.3075 25.1681 45.3014C25.1656 45.2893 25.1631 45.2767 25.1609 45.2637C25.1567 45.2381 25.1529 45.2077 25.1513 45.1733C25.1484 45.112 25.1502 44.9967 25.2011 44.86C25.2583 44.7062 25.3709 44.5466 25.547 44.4384C25.7103 44.3382 25.8536 44.3279 25.9066 44.3279V46.3279ZM26.1453 45.0891C26.4082 46.0539 26.4073 46.0542 26.4064 46.0544C26.4061 46.0545 26.4051 46.0548 26.4045 46.0549C26.4033 46.0553 26.4021 46.0556 26.4008 46.0559C26.3984 46.0566 26.3959 46.0572 26.3934 46.0578C26.3885 46.0591 26.3835 46.0603 26.3785 46.0615C26.3685 46.0639 26.3585 46.0662 26.3483 46.0683C26.328 46.0725 26.3074 46.076 26.2865 46.0789C26.2446 46.0847 26.2022 46.0877 26.1594 46.0876C26.0725 46.0874 25.9908 46.0745 25.9168 46.052C25.7669 46.0064 25.6871 45.9337 25.6688 45.9152L27.0898 44.5078C26.9262 44.3427 26.7295 44.2088 26.4989 44.1386C26.3846 44.1039 26.2716 44.0878 26.1635 44.0876C26.1102 44.0875 26.0596 44.0913 26.0123 44.0978C25.9887 44.1011 25.9661 44.105 25.9444 44.1095C25.9335 44.1117 25.923 44.1141 25.9126 44.1166C25.9075 44.1178 25.9024 44.1191 25.8973 44.1203C25.8948 44.121 25.8923 44.1216 25.8898 44.1223C25.8886 44.1226 25.8873 44.123 25.8861 44.1233C25.8855 44.1235 25.8846 44.1237 25.8843 44.1238C25.8833 44.124 25.8824 44.1243 26.1453 45.0891ZM25.6722 45.9186C25.8928 46.1392 26.1767 46.2554 26.4662 46.2647C26.7245 46.2729 26.9294 46.1953 27.0493 46.1372C27.1746 46.0766 27.27 46.0067 27.3279 45.96C27.359 45.9351 27.3848 45.9122 27.4049 45.8938C27.415 45.8844 27.4239 45.8759 27.4315 45.8685C27.4353 45.8648 27.4388 45.8613 27.4421 45.8581C27.4437 45.8565 27.4452 45.8549 27.4467 45.8535C27.4474 45.8527 27.4481 45.852 27.4488 45.8513C27.4491 45.8509 27.4495 45.8506 27.4498 45.8502C27.45 45.8501 27.4502 45.8498 27.4503 45.8497C27.4506 45.8495 27.4508 45.8492 26.7356 45.1503C26.0204 44.4514 26.0207 44.4511 26.0209 44.4509C26.021 44.4508 26.0212 44.4505 26.0214 44.4504C26.0217 44.45 26.022 44.4497 26.0224 44.4494C26.023 44.4487 26.0236 44.4481 26.0243 44.4474C26.0255 44.4462 26.0268 44.4449 26.028 44.4437C26.0304 44.4413 26.0327 44.439 26.035 44.4368C26.0395 44.4324 26.0439 44.4283 26.048 44.4244C26.0562 44.4169 26.0648 44.4094 26.0741 44.4019C26.0887 44.3901 26.1231 44.3636 26.178 44.337C26.2276 44.313 26.3528 44.26 26.5302 44.2657C26.7389 44.2724 26.9407 44.3587 27.0864 44.5044L25.6722 45.9186ZM27.1886 46.0418L27.4838 45.8918L26.5777 44.1088L26.2826 44.2588L27.1886 46.0418ZM26.3236 45.7074L26.5348 45.9186L27.949 44.5044L27.7379 44.2932L26.3236 45.7074ZM26.654 46.0204L26.8604 46.1704L28.0362 44.5525L27.8298 44.4025L26.654 46.0204ZM27.6608 46.3386L28.2235 46.2162L27.7985 44.2619L27.2358 44.3843L27.6608 46.3386ZM28.011 46.2391H28.93V44.2391H28.011V46.2391ZM29.2143 46.1978L29.4207 46.1366L28.8521 44.2191L28.6458 44.2803L29.2143 46.1978ZM28.3201 45.7555L29.1828 46.9745L30.8153 45.8192L29.9527 44.6002L28.3201 45.7555ZM30.9949 46.4876L31.0513 45.8685L29.0596 45.6871L29.0032 46.3062L30.9949 46.4876ZM30.0555 46.7778H31.4472V44.7778H30.0555V46.7778ZM31.4472 46.7778C31.3024 46.7778 31.1556 46.7446 31.0201 46.6769C30.8882 46.6109 30.7919 46.5249 30.7256 46.4478C30.6035 46.3059 30.5598 46.1686 30.5461 46.1214C30.5291 46.0628 30.5245 46.0207 30.5233 46.0086C30.5217 45.9932 30.5219 45.9862 30.5219 45.99C30.522 45.9985 30.5212 46.016 30.5193 46.0372C30.5185 46.0463 30.5177 46.0534 30.5173 46.0573C30.5171 46.0591 30.517 46.06 30.517 46.0598C30.517 46.0596 30.5171 46.0592 30.5172 46.0584C30.5172 46.058 30.5173 46.0576 30.5174 46.057C30.5174 46.0568 30.5174 46.0565 30.5175 46.0562C30.5175 46.056 30.5175 46.0558 30.5175 46.0557C30.5176 46.0556 30.5176 46.0554 30.5176 46.0554C30.5176 46.0553 30.5176 46.0551 31.5084 46.1905C32.4992 46.3259 32.4992 46.3258 32.4992 46.3256C32.4993 46.3256 32.4993 46.3254 32.4993 46.3253C32.4993 46.3251 32.4993 46.3249 32.4994 46.3247C32.4994 46.3243 32.4995 46.3239 32.4995 46.3234C32.4997 46.3224 32.4998 46.3214 32.5 46.3202C32.5003 46.3179 32.5006 46.3152 32.501 46.312C32.5018 46.3057 32.5028 46.2977 32.5039 46.2883C32.5061 46.2696 32.5088 46.2444 32.5114 46.2148C32.5164 46.1587 32.5224 46.073 32.5219 45.9783C32.5215 45.9027 32.5176 45.7385 32.4666 45.5631C32.4417 45.4773 32.3831 45.3077 32.2416 45.1433C32.0752 44.9498 31.8005 44.7778 31.4472 44.7778V46.7778ZM31.8156 47.1422L32.7299 46.847L32.1154 44.9437L31.2012 45.2389L31.8156 47.1422ZM31.7156 46.6025L32.1895 47.0764L33.6037 45.6622L33.1298 45.1883L31.7156 46.6025ZM33.434 47.2126L34.413 46.5887L33.3382 44.9021L32.3592 45.526L33.434 47.2126ZM34.0397 46.7318L34.5736 46.6431L34.2455 44.6702L33.7116 44.7589L34.0397 46.7318ZM34.4639 46.6551L35.4993 46.5987L35.3906 44.6017L34.3551 44.6581L34.4639 46.6551ZM35.445 46.6002H36.9255V44.6002H35.445V46.6002ZM36.856 46.5978L38.5429 46.7154L38.6819 44.7202L36.995 44.6026L36.856 46.5978ZM38.9829 46.6466L39.428 46.4691L38.687 44.6114L38.2419 44.789L38.9829 46.6466ZM39.7369 46.274L40.0609 45.9741L38.7021 44.5065L38.3781 44.8065L39.7369 46.274ZM38.8871 46.1095L39.7774 46.6159L40.7661 44.8774L39.8759 44.371L38.8871 46.1095ZM40.6516 46.6716L41.3031 46.4041L40.5433 44.554L39.8918 44.8216L40.6516 46.6716ZM40.9232 45.479C40.5717 46.4152 40.5717 46.4152 40.5718 46.4152C40.5718 46.4153 40.5718 46.4153 40.5718 46.4153C40.5718 46.4153 40.5719 46.4153 40.5719 46.4153C40.572 46.4153 40.5722 46.4154 40.5724 46.4155C40.5727 46.4156 40.5733 46.4158 40.574 46.4161C40.5754 46.4166 40.5775 46.4174 40.5802 46.4184C40.5856 46.4204 40.5935 46.4234 40.6035 46.4271C40.6236 46.4347 40.6523 46.4454 40.687 46.4583C40.7565 46.4842 40.8506 46.5192 40.9487 46.5553C41.1149 46.6165 41.3754 46.7121 41.4841 46.7424L42.0204 44.8156C42.033 44.8191 42.0044 44.8104 41.9093 44.7765C41.8309 44.7485 41.7346 44.7134 41.6395 44.6784C41.5449 44.6436 41.4536 44.6097 41.3857 44.5844C41.3519 44.5717 41.324 44.5613 41.3046 44.5541C41.2949 44.5504 41.2874 44.5476 41.2823 44.5457C41.2797 44.5447 41.2778 44.544 41.2765 44.5435C41.2759 44.5433 41.2754 44.5431 41.2751 44.543C41.2749 44.5429 41.2748 44.5429 41.2748 44.5429C41.2747 44.5429 41.2747 44.5429 41.2747 44.5428C41.2747 44.5428 41.2747 44.5428 41.2747 44.5428C41.2747 44.5428 41.2747 44.5428 40.9232 45.479ZM41.5238 46.7526C41.6918 46.792 41.8598 46.7815 41.8736 46.781C41.9388 46.7787 42.01 46.7736 42.0766 46.7679C42.212 46.7563 42.3725 46.7387 42.5205 46.7213C42.6703 46.7036 42.8154 46.6852 42.9224 46.6712C42.9761 46.6642 43.0206 46.6583 43.0519 46.6541C43.0675 46.6521 43.0798 46.6504 43.0883 46.6492C43.0926 46.6487 43.0959 46.6482 43.0982 46.6479C43.0993 46.6477 43.1002 46.6476 43.1009 46.6475C43.1012 46.6475 43.1014 46.6475 43.1016 46.6474C43.1017 46.6474 43.1018 46.6474 43.1018 46.6474C43.1019 46.6474 43.1019 46.6474 43.1019 46.6474C43.1019 46.6474 43.102 46.6474 42.9665 45.6566C42.831 44.6658 42.831 44.6658 42.831 44.6658C42.831 44.6658 42.831 44.6658 42.831 44.6658C42.831 44.6658 42.831 44.6658 42.8309 44.6658C42.8308 44.6658 42.8307 44.6659 42.8305 44.6659C42.83 44.666 42.8294 44.666 42.8284 44.6662C42.8266 44.6664 42.8237 44.6668 42.8199 44.6673C42.8123 44.6684 42.8009 44.6699 42.7864 44.6719C42.7572 44.6758 42.7151 44.6814 42.6641 44.688C42.5619 44.7013 42.4254 44.7186 42.2864 44.735C42.1455 44.7516 42.0099 44.7663 41.9066 44.7751C41.8538 44.7796 41.8201 44.7817 41.8028 44.7823C41.7938 44.7826 41.7992 44.7822 41.8141 44.7826C41.8218 44.7828 41.8383 44.7834 41.8608 44.7856C41.8798 44.7874 41.9241 44.7921 41.9807 44.8054L41.5238 46.7526ZM43.2194 46.6241L43.8985 46.4465L43.3926 44.5116L42.7135 44.6891L43.2194 46.6241ZM44.2382 44.6735L43.7978 44.3496L42.6126 45.9606L43.0529 46.2845L44.2382 44.6735ZM43.5883 46.0788L43.8834 45.9564L43.1173 44.109L42.8222 44.2314L43.5883 46.0788ZM43.455 46.0317L44.6968 46.0881L44.7875 44.0901L43.5457 44.0337L43.455 46.0317ZM44.4935 46.0577L46.1529 46.4836L46.6501 44.5464L44.9908 44.1205L44.4935 46.0577ZM47.4015 45.5125L47.3739 34.6662L45.3739 34.6712L45.4015 45.5176L47.4015 45.5125ZM47.3739 34.6687V33.9848H45.3739V34.6687H47.3739ZM46.2289 32.9954L45.8114 33.0566L46.1014 35.0354L46.5189 34.9743L46.2289 32.9954ZM45.7923 33.0596L45.2584 33.1483L45.5865 35.1212L46.1204 35.0325L45.7923 33.0596ZM46.4225 34.1348V33.8109H44.4225V34.1348H46.4225ZM46.0947 34.5512L46.3946 34.2788L45.0502 32.7982L44.7502 33.0705L46.0947 34.5512ZM46.5583 34.0873L46.7923 33.731L45.1204 32.6333L44.8865 32.9897L46.5583 34.0873ZM46.9552 33.2301L47.0164 31.9547L45.0187 31.8588L44.9575 33.1342L46.9552 33.2301ZM47.013 31.8115L46.9242 30.884L44.9333 31.0746L45.0221 32.0021L47.013 31.8115ZM46.8752 30.6564L46.4913 29.531L44.5984 30.1768L44.9823 31.3022L46.8752 30.6564ZM46.3463 29.2558L45.9899 28.7783L44.3871 29.9745L44.7434 30.452L46.3463 29.2558ZM46.1792 29.2402L46.118 28.7951L44.1366 29.0675L44.1978 29.5126L46.1792 29.2402ZM46.0849 29.2193L46.1737 28.9242L44.2585 28.3481L44.1697 28.6432L46.0849 29.2193ZM46.1551 28.9799L46.1876 28.8911L44.3095 28.2035L44.277 28.2923L46.1551 28.9799ZM45.6125 29.4788L45.9964 29.3288L45.2687 27.4659L44.8847 27.6159L45.6125 29.4788ZM46.5685 28.7493L46.6249 28.5993L44.7529 27.8954L44.6965 28.0454L46.5685 28.7493ZM46.5507 27.7402L46.2556 27.2387L44.5319 28.2531L44.8271 28.7546L46.5507 27.7402ZM45.8945 28.6115L46.1621 28.4567L45.1606 26.7255L44.893 26.8803L45.8945 28.6115ZM46.1755 28.4488L46.5978 28.1956L45.5695 26.4802L45.1472 26.7334L46.1755 28.4488ZM47.0778 27.4462L47.2422 25.9369L45.2539 25.7203L45.0895 27.2297L47.0778 27.4462ZM47.2446 25.9116L47.3286 24.9038L45.3355 24.7377L45.2515 25.7455L47.2446 25.9116ZM47.332 24.8208V21.2921H45.332V24.8208H47.332ZM47.303 21.0529L47.0546 20.045L45.1127 20.5236L45.3611 21.5314L47.303 21.0529ZM47.0725 20.4332L47.2369 19.3414L45.2592 19.0436L45.0948 20.1354L47.0725 20.4332ZM47.2284 19.3897L47.3124 18.9721L45.3517 18.5778L45.2677 18.9953L47.2284 19.3897ZM46.7399 17.8619L45.9852 17.5248L45.1695 19.3508L45.9241 19.688L46.7399 17.8619ZM45.7526 17.4533L42.9078 16.947L42.5574 18.916L45.4021 19.4223L45.7526 17.4533ZM41.9193 17.3496L41.497 17.9399L43.1235 19.1037L43.5459 18.5134L41.9193 17.3496ZM43.2819 18.2853L43.1175 17.6099L41.1742 18.0827L41.3386 18.7582L43.2819 18.2853ZM42.1604 16.8464L36.7144 16.7672L36.6853 18.767L42.1313 18.8462L42.1604 16.8464ZM35.7162 17.587L35.547 18.5108L37.5143 18.8711L37.6835 17.9472L35.7162 17.587ZM36.4054 17.6988L35.0653 17.868L35.3157 19.8523L36.6559 19.6831L36.4054 17.6988ZM36.1533 18.5899L35.9889 18.0044L34.0633 18.5449L34.2277 19.1304L36.1533 18.5899ZM35.1725 17.2854L33.9967 17.1114L33.704 19.0899L34.8798 19.2639L35.1725 17.2854ZM23.0659 23.1692L42.5531 36.4152L43.6774 34.7611L24.1902 21.5151L23.0659 23.1692ZM42.1521 35.3194L40.6103 40.8444L42.5367 41.3819L44.0785 35.8569L42.1521 35.3194ZM41.5416 40.1137L37.8665 40.2312L37.9305 42.2302L41.6055 42.1126L41.5416 40.1137ZM38.6288 40.5476L21.6345 22.3824L20.174 23.7488L37.1683 41.9139L38.6288 40.5476ZM38.6144 23.4723L40.7512 24.6013L41.6856 22.8329L39.5487 21.7039L38.6144 23.4723ZM40.2285 23.5754L39.6334 27.7326L41.6132 28.016L42.2083 23.8588L40.2285 23.5754ZM40.342 26.9146L39.9245 27.037L40.487 28.9563L40.9046 28.8339L40.342 26.9146ZM40.8121 27.2015L35.1276 22.8666L33.9149 24.457L39.5994 28.7918L40.8121 27.2015ZM22.3873 35.2379L28.1897 41.0593L29.6062 39.6473L23.8038 33.826L22.3873 35.2379ZM28.5633 39.411L25.067 40.6528L25.7364 42.5374L29.2327 41.2956L28.5633 39.411ZM25.4658 40.5971L23.6336 40.4796L23.5055 42.4755L25.3377 42.593L25.4658 40.5971ZM24.2146 40.7133L21.9601 38.8104L20.6701 40.3388L22.9246 42.2417L24.2146 40.7133Z" fill="url(#paint4_linear_4_14193)" mask="url(#path-6-inside-2_4_14193)"/>
<defs>
<filter id="filter0_f_4_14193" x="3.26249" y="3.26252" width="57.475" height="57.4754" filterUnits="userSpaceOnUse" color-interpolation-filters="sRGB">
<feFlood flood-opacity="0" result="BackgroundImageFix"/>
<feBlend mode="normal" in="SourceGraphic" in2="BackgroundImageFix" result="shape"/>
<feGaussianBlur stdDeviation="0.618754" result="effect1_foregroundBlur_4_14193"/>
</filter>
<filter id="filter1_f_4_14193" x="18.2232" y="18.1702" width="31.1044" height="31.0952" filterUnits="userSpaceOnUse" color-interpolation-filters="sRGB">
<feFlood flood-opacity="0" result="BackgroundImageFix"/>
<feBlend mode="normal" in="SourceGraphic" in2="BackgroundImageFix" result="shape"/>
<feGaussianBlur stdDeviation="0.575915" result="effect1_foregroundBlur_4_14193"/>
</filter>
<linearGradient id="paint0_linear_4_14193" x1="4.5" y1="32.0002" x2="59.5004" y2="32.0002" gradientUnits="userSpaceOnUse">
<stop stop-color="#FDFC47"/>
<stop offset="1" stop-color="#24FE41"/>
</linearGradient>
<linearGradient id="paint1_linear_4_14193" x1="4.5" y1="32.0015" x2="59.5008" y2="32.0015" gradientUnits="userSpaceOnUse">
<stop stop-color="#FDFC47"/>
<stop offset="1" stop-color="#24FE41"/>
</linearGradient>
<linearGradient id="paint2_linear_4_14193" x1="19.375" y1="33.7178" x2="48.1749" y2="33.7178" gradientUnits="userSpaceOnUse">
<stop stop-color="#FDFC47"/>
<stop offset="1" stop-color="#24FE41"/>
</linearGradient>
<linearGradient id="paint3_linear_4_14193" x1="17.6016" y1="32.0009" x2="46.4015" y2="32.0009" gradientUnits="userSpaceOnUse">
<stop stop-color="#FDFC47"/>
<stop offset="1" stop-color="#24FE41"/>
</linearGradient>
<linearGradient id="paint4_linear_4_14193" x1="17.6016" y1="32.0009" x2="46.4015" y2="32.0009" gradientUnits="userSpaceOnUse">
<stop stop-color="#FDFC47"/>
<stop offset="1" stop-color="#24FE41"/>
</linearGradient>
</defs>
</svg>
