<svg width="64" height="64" viewBox="0 0 64 64" fill="none" xmlns="http://www.w3.org/2000/svg">
<g opacity="0.3" filter="url(#filter0_f_4_14168)">
<path d="M44.5 4.5H19.5C11.2157 4.5 4.5 11.2157 4.5 19.5V44.5C4.5 52.7843 11.2157 59.5 19.5 59.5H44.5C52.7843 59.5 59.5 52.7843 59.5 44.5V19.5C59.5 11.2157 52.7843 4.5 44.5 4.5Z" fill="url(#paint0_linear_4_14168)"/>
</g>
<path d="M19.5001 4.9996H44.5007C52.5089 4.9996 59.0008 11.4915 59.0008 19.4997V44.5003C59.0008 52.5085 52.5089 59.0004 44.5007 59.0004H19.5001C11.4919 59.0004 5 52.5085 5 44.5003V19.4997C5 11.4915 11.4919 4.9996 19.5001 4.9996Z" fill="#232323" stroke="url(#paint1_linear_4_14168)"/>
<path opacity="0.25" d="M50.8228 32.1435C50.8228 42.3965 42.3958 50.8235 31.9993 50.8235C21.6028 50.8235 13.1758 42.3965 13.1758 32.1435C13.1758 21.6047 21.6028 13.1765 31.9993 13.1765C42.3958 13.1765 50.8228 21.6047 50.8228 32.1435Z" fill="url(#paint2_linear_4_14168)"/>
<path d="M38.9407 48.4334L38.9405 48.4335C36.7442 49.3616 34.3832 49.8372 31.9989 49.8318C29.5921 49.8316 27.2556 49.3621 25.0594 48.4335L25.0592 48.4334C22.9406 47.5366 21.0158 46.2379 19.3913 44.609C17.7317 42.9557 16.4157 40.9905 15.5189 38.8265C14.6221 36.6625 14.1622 34.3425 14.1659 32M38.9407 48.4334L14.6659 32M38.9407 48.4334C41.0592 47.537 42.984 46.2387 44.6087 44.6102M38.9407 48.4334L32.0006 14.1682M14.1659 32C14.1659 31.9998 14.1659 31.9995 14.1659 31.9992L14.6659 32M14.1659 32C14.1659 32.0003 14.1659 32.0005 14.1659 32.0008L14.6659 32M14.1659 32C14.1625 29.6577 14.6223 27.3378 15.5188 25.1739C16.4154 23.0099 17.731 21.0447 19.39 19.3912M14.6659 32C14.6625 29.7234 15.1093 27.4685 15.9808 25.3652C16.8522 23.262 18.131 21.3518 19.7435 19.7447C21.3219 18.1598 23.1935 16.8972 25.2541 16.0271M19.39 19.3912C19.3897 19.3914 19.3895 19.3916 19.3892 19.3919L19.7435 19.7446L19.3906 19.3906C19.3904 19.3908 19.3902 19.391 19.39 19.3912ZM19.39 19.3912C21.0139 17.7607 22.9395 16.4617 25.0594 15.5665M25.0594 15.5665L25.2541 16.0271M25.0594 15.5665C27.2555 14.638 29.6164 14.1625 32.0006 14.1682M25.0594 15.5665C25.0595 15.5665 25.0595 15.5665 25.0596 15.5664L25.2541 16.0271M25.2541 16.0271L32.0006 14.1682M32.0006 14.1682C32.0004 14.1682 32.0002 14.1682 32 14.1682V14.6682L32.0012 14.1682C32.001 14.1682 32.0008 14.1682 32.0006 14.1682ZM32.0006 14.1682C34.4079 14.1683 36.7445 14.6403 38.9406 15.5689M38.9406 15.5689C38.9405 15.5688 38.9404 15.5688 38.9403 15.5688L38.7459 16.0293L38.9406 15.5689ZM38.9406 15.5689C41.06 16.4634 42.9851 17.7616 44.6089 19.3912C46.268 21.0446 47.5838 23.0098 48.4806 25.1737C49.3774 27.3376 49.8374 29.6575 49.8341 31.9999M49.8341 31.9999C49.8341 32.0002 49.8341 32.0005 49.8341 32.0007L49.3341 32L49.8341 31.9992C49.8341 31.9994 49.8341 31.9997 49.8341 31.9999ZM49.8341 31.9999C49.8379 34.3425 49.3783 36.6627 48.4817 38.8269C47.585 40.9913 46.2679 42.9567 44.6087 44.6102M44.6087 44.6102C44.6089 44.61 44.6091 44.6098 44.6093 44.6096L44.2555 44.2566L44.6082 44.6107C44.6084 44.6105 44.6085 44.6104 44.6087 44.6102ZM12.5 32C12.5 21.2291 21.2314 12.5 32 12.5C42.7686 12.5 51.5 21.2291 51.5 32C51.5 42.7686 42.7686 51.5 32 51.5C21.2314 51.5 12.5 42.7686 12.5 32Z" fill="url(#paint3_linear_4_14168)" stroke="url(#paint4_linear_4_14168)"/>
<path d="M32.0005 46.1177C39.7974 46.1177 46.1181 39.797 46.1181 32C46.1181 24.203 39.7974 17.8824 32.0005 17.8824C24.2035 17.8824 17.8828 24.203 17.8828 32C17.8828 39.797 24.2035 46.1177 32.0005 46.1177Z" fill="url(#paint5_linear_4_14168)"/>
<path d="M22.0174 22.0176C19.3701 24.6652 17.8828 28.2559 17.8828 32C17.8828 35.7441 19.3701 39.3348 22.0174 41.9823C24.665 44.6297 28.2557 46.117 31.9998 46.117C35.7439 46.117 39.3346 44.6297 41.9822 41.9823L22.0174 22.0176Z" fill="#232323" fill-opacity="0.5"/>
<path d="M32.0005 17.8824C30.1465 17.8824 28.3107 18.2475 26.5979 18.957C24.885 19.6665 23.3287 20.7064 22.0178 22.0173C20.7068 23.3283 19.6669 24.8846 18.9575 26.5974C18.248 28.3102 17.8828 30.146 17.8828 32C17.8828 33.854 18.248 35.6898 18.9575 37.4026C19.6669 39.1154 20.7068 40.6717 22.0178 41.9827C23.3287 43.2936 24.885 44.3335 26.5979 45.043C28.3107 45.7525 30.1465 46.1176 32.0005 46.1176V17.8824Z" fill="url(#paint6_linear_4_14168)"/>
<path d="M32.0014 34.3529C33.3009 34.3529 34.3543 33.2995 34.3543 32C34.3543 30.7005 33.3009 29.6471 32.0014 29.6471C30.7019 29.6471 29.6484 30.7005 29.6484 32C29.6484 33.2995 30.7019 34.3529 32.0014 34.3529Z" fill="#232323"/>
<defs>
<filter id="filter0_f_4_14168" x="3.2625" y="3.2625" width="57.475" height="57.475" filterUnits="userSpaceOnUse" color-interpolation-filters="sRGB">
<feFlood flood-opacity="0" result="BackgroundImageFix"/>
<feBlend mode="normal" in="SourceGraphic" in2="BackgroundImageFix" result="shape"/>
<feGaussianBlur stdDeviation="0.61875" result="effect1_foregroundBlur_4_14168"/>
</filter>
<linearGradient id="paint0_linear_4_14168" x1="4.5" y1="32" x2="59.5" y2="32" gradientUnits="userSpaceOnUse">
<stop stop-color="#FDFC47"/>
<stop offset="1" stop-color="#24FE41"/>
</linearGradient>
<linearGradient id="paint1_linear_4_14168" x1="4.5" y1="32" x2="59.5008" y2="32" gradientUnits="userSpaceOnUse">
<stop stop-color="#FDFC47"/>
<stop offset="1" stop-color="#24FE41"/>
</linearGradient>
<linearGradient id="paint2_linear_4_14168" x1="13.1758" y1="32" x2="50.8228" y2="32" gradientUnits="userSpaceOnUse">
<stop stop-color="#FDFC47"/>
<stop offset="1" stop-color="#24FE41"/>
</linearGradient>
<linearGradient id="paint3_linear_4_14168" x1="12" y1="32" x2="52" y2="32" gradientUnits="userSpaceOnUse">
<stop stop-color="#FDFC47"/>
<stop offset="1" stop-color="#24FE41"/>
</linearGradient>
<linearGradient id="paint4_linear_4_14168" x1="12" y1="32" x2="52" y2="32" gradientUnits="userSpaceOnUse">
<stop stop-color="#FDFC47"/>
<stop offset="1" stop-color="#24FE41"/>
</linearGradient>
<linearGradient id="paint5_linear_4_14168" x1="17.8828" y1="32" x2="46.1181" y2="32" gradientUnits="userSpaceOnUse">
<stop stop-color="#FDFC47"/>
<stop offset="1" stop-color="#24FE41"/>
</linearGradient>
<linearGradient id="paint6_linear_4_14168" x1="17.8828" y1="32" x2="32.0005" y2="32" gradientUnits="userSpaceOnUse">
<stop stop-color="#FDFC47"/>
<stop offset="1" stop-color="#24FE41"/>
</linearGradient>
</defs>
</svg>
