<svg width="64" height="64" viewBox="0 0 64 64" fill="none" xmlns="http://www.w3.org/2000/svg">
<g opacity="0.3" filter="url(#filter0_f_4_14156)">
<path d="M44.5 4.5H19.5C11.2157 4.5 4.5 11.2157 4.5 19.5V44.5C4.5 52.7843 11.2157 59.5 19.5 59.5H44.5C52.7843 59.5 59.5 52.7843 59.5 44.5V19.5C59.5 11.2157 52.7843 4.5 44.5 4.5Z" fill="url(#paint0_linear_4_14156)"/>
</g>
<path d="M19.5 5H44.5C52.5081 5 59 11.4919 59 19.5V44.5C59 52.5081 52.5081 59 44.5 59H19.5C11.4919 59 5 52.5081 5 44.5V19.5C5 11.4919 11.4919 5 19.5 5Z" fill="#232323" stroke="url(#paint1_linear_4_14156)"/>
<path opacity="0.75" d="M21 13C21 12.4477 20.5523 12 20 12C19.4477 12 19 12.4477 19 13V51C19 51.5523 19.4477 52 20 52C20.5523 52 21 51.5523 21 51V13Z" fill="url(#paint2_linear_4_14156)"/>
<path opacity="0.75" d="M33 13C33 12.4477 32.5523 12 32 12C31.4477 12 31 12.4477 31 13V51C31 51.5523 31.4477 52 32 52C32.5523 52 33 51.5523 33 51V13Z" fill="url(#paint3_linear_4_14156)"/>
<path opacity="0.75" d="M45 13C45 12.4477 44.5523 12 44 12C43.4477 12 43 12.4477 43 13V51C43 51.5523 43.4477 52 44 52C44.5523 52 45 51.5523 45 51V13Z" fill="url(#paint4_linear_4_14156)"/>
<g opacity="0.15" filter="url(#filter1_f_4_14156)">
<path d="M31.9492 18C31.1624 18.0133 30.4123 18.3353 29.8606 18.8964C29.309 19.4576 28.9999 20.2131 29 21C29 21.7956 29.3161 22.5587 29.8787 23.1213C30.4413 23.6839 31.2044 24 32 24C32.7956 24 33.5587 23.6839 34.1213 23.1213C34.6839 22.5587 35 21.7956 35 21C35 20.2043 34.6839 19.4413 34.1213 18.8787C33.5587 18.3161 32.7956 18 32 18C31.9831 17.9998 31.9661 17.9998 31.9492 18ZM19.9492 36C19.1624 36.0133 18.4123 36.3353 17.8606 36.8964C17.309 37.4576 16.9999 38.2131 17 39C17 39.7956 17.3161 40.5587 17.8787 41.1213C18.4413 41.6839 19.2044 42 20 42C20.7956 42 21.5587 41.6839 22.1213 41.1213C22.6839 40.5587 23 39.7956 23 39C23 38.2043 22.6839 37.4413 22.1213 36.8787C21.5587 36.3161 20.7956 36 20 36C19.9831 35.9998 19.9661 35.9998 19.9492 36ZM43.9492 44C43.1624 44.0133 42.4123 44.3353 41.8606 44.8964C41.309 45.4576 40.9999 46.2131 41 47C41 47.7956 41.3161 48.5587 41.8787 49.1213C42.4413 49.6839 43.2044 50 44 50C44.7956 50 45.5587 49.6839 46.1213 49.1213C46.6839 48.5587 47 47.7956 47 47C47 46.2043 46.6839 45.4413 46.1213 44.8787C45.5587 44.3161 44.7956 44 44 44C43.9831 43.9998 43.9661 43.9998 43.9492 44Z" fill="url(#paint5_linear_4_14156)"/>
</g>
<path d="M32 23C33.6569 23 35 21.6569 35 20C35 18.3431 33.6569 17 32 17C30.3431 17 29 18.3431 29 20C29 21.6569 30.3431 23 32 23Z" fill="url(#paint6_linear_4_14156)"/>
<path d="M44 49C45.6569 49 47 47.6569 47 46C47 44.3431 45.6569 43 44 43C42.3431 43 41 44.3431 41 46C41 47.6569 42.3431 49 44 49Z" fill="url(#paint7_linear_4_14156)"/>
<path d="M20 41C21.6569 41 23 39.6569 23 38C23 36.3431 21.6569 35 20 35C18.3431 35 17 36.3431 17 38C17 39.6569 18.3431 41 20 41Z" fill="url(#paint8_linear_4_14156)"/>
<defs>
<filter id="filter0_f_4_14156" x="3.2625" y="3.2625" width="57.475" height="57.475" filterUnits="userSpaceOnUse" color-interpolation-filters="sRGB">
<feFlood flood-opacity="0" result="BackgroundImageFix"/>
<feBlend mode="normal" in="SourceGraphic" in2="BackgroundImageFix" result="shape"/>
<feGaussianBlur stdDeviation="0.61875" result="effect1_foregroundBlur_4_14156"/>
</filter>
<filter id="filter1_f_4_14156" x="14.21" y="15.2099" width="35.58" height="37.5801" filterUnits="userSpaceOnUse" color-interpolation-filters="sRGB">
<feFlood flood-opacity="0" result="BackgroundImageFix"/>
<feBlend mode="normal" in="SourceGraphic" in2="BackgroundImageFix" result="shape"/>
<feGaussianBlur stdDeviation="1.395" result="effect1_foregroundBlur_4_14156"/>
</filter>
<linearGradient id="paint0_linear_4_14156" x1="4.5" y1="32" x2="59.5" y2="32" gradientUnits="userSpaceOnUse">
<stop stop-color="#FDFC47"/>
<stop offset="1" stop-color="#24FE41"/>
</linearGradient>
<linearGradient id="paint1_linear_4_14156" x1="4.5" y1="32" x2="59.5" y2="32" gradientUnits="userSpaceOnUse">
<stop stop-color="#FDFC47"/>
<stop offset="1" stop-color="#24FE41"/>
</linearGradient>
<linearGradient id="paint2_linear_4_14156" x1="19" y1="32" x2="21" y2="32" gradientUnits="userSpaceOnUse">
<stop stop-color="#FDFC47"/>
<stop offset="1" stop-color="#24FE41"/>
</linearGradient>
<linearGradient id="paint3_linear_4_14156" x1="31" y1="32" x2="33" y2="32" gradientUnits="userSpaceOnUse">
<stop stop-color="#FDFC47"/>
<stop offset="1" stop-color="#24FE41"/>
</linearGradient>
<linearGradient id="paint4_linear_4_14156" x1="43" y1="32" x2="45" y2="32" gradientUnits="userSpaceOnUse">
<stop stop-color="#FDFC47"/>
<stop offset="1" stop-color="#24FE41"/>
</linearGradient>
<linearGradient id="paint5_linear_4_14156" x1="17" y1="33.9999" x2="47" y2="33.9999" gradientUnits="userSpaceOnUse">
<stop stop-color="#FDFC47"/>
<stop offset="1" stop-color="#24FE41"/>
</linearGradient>
<linearGradient id="paint6_linear_4_14156" x1="29" y1="20" x2="35" y2="20" gradientUnits="userSpaceOnUse">
<stop stop-color="#FDFC47"/>
<stop offset="1" stop-color="#24FE41"/>
</linearGradient>
<linearGradient id="paint7_linear_4_14156" x1="41" y1="46" x2="47" y2="46" gradientUnits="userSpaceOnUse">
<stop stop-color="#FDFC47"/>
<stop offset="1" stop-color="#24FE41"/>
</linearGradient>
<linearGradient id="paint8_linear_4_14156" x1="17" y1="38" x2="23" y2="38" gradientUnits="userSpaceOnUse">
<stop stop-color="#FDFC47"/>
<stop offset="1" stop-color="#24FE41"/>
</linearGradient>
</defs>
</svg>
