<svg width="64" height="64" viewBox="0 0 64 64" fill="none" xmlns="http://www.w3.org/2000/svg">
<g clip-path="url(#clip0_4_14076)">
<g opacity="0.3" filter="url(#filter0_f_4_14076)">
<path d="M44.5 4.5H19.5C11.2157 4.5 4.5 11.2157 4.5 19.5V44.5C4.5 52.7843 11.2157 59.5 19.5 59.5H44.5C52.7843 59.5 59.5 52.7843 59.5 44.5V19.5C59.5 11.2157 52.7843 4.5 44.5 4.5Z" fill="url(#paint0_linear_4_14076)"/>
</g>
<path d="M19.5 5H44.5C52.5081 5 59 11.4919 59 19.5V44.5C59 52.5081 52.5081 59 44.5 59H19.5C11.4919 59 5 52.5081 5 44.5V19.5C5 11.4919 11.4919 5 19.5 5Z" fill="#232323" stroke="url(#paint1_linear_4_14076)"/>
<path d="M32 56C45.2548 56 56 45.2548 56 32C56 18.7452 45.2548 8 32 8C18.7452 8 8 18.7452 8 32C8 45.2548 18.7452 56 32 56Z" fill="url(#paint2_linear_4_14076)"/>
<path d="M25.1989 14.67C24.7656 14.6578 24.3568 14.6978 24.0856 14.7891C22.7552 15.2453 21.9206 16.2264 21.4586 17.8653C21.0594 19.2937 21.0712 21.8653 21.4879 24.1036C21.561 24.4925 21.6344 24.8454 21.6519 24.9025C21.6739 24.9829 21.5325 25.0346 20.9039 25.1779C17.8308 25.8796 15.5858 26.9237 14.2379 28.2834C13.6326 28.8886 13.2976 29.42 13.1031 30.0881C12.9656 30.5515 12.9656 31.4703 13.1031 31.9279C13.4803 33.1852 14.5419 34.367 16.2203 35.4123C17.3855 36.1316 17.7337 36.2113 18.1109 35.8341C18.2878 35.6572 18.3277 35.5715 18.3277 35.3595C18.3277 34.9487 18.2021 34.7832 17.6538 34.4689C14.2167 32.5332 13.6104 30.5925 15.9058 28.8673C17.071 27.993 18.6992 27.3023 20.8921 26.7657C21.8527 26.5318 22.0698 26.5013 22.0698 26.627C22.0698 26.7981 22.7766 29.0606 23.1421 30.0372L23.5191 31.0587L23.023 32.0177C21.0362 35.8554 19.7605 39.7679 19.607 42.6287C19.4813 44.8334 19.8823 46.4099 20.8531 47.3865C21.9145 48.4494 23.4115 48.6773 25.3355 48.0603C26.0606 47.8264 27.5002 47.0949 28.3394 46.5232C28.9447 46.1183 29.0754 45.9989 29.1558 45.7869C29.2362 45.5749 29.2362 45.5052 29.1558 45.283C29.0359 44.9511 28.785 44.7693 28.4429 44.7693C28.2207 44.7693 28.0673 44.8375 27.4957 45.2264C26.1989 46.1065 24.9825 46.655 23.9723 46.826C22.5732 47.0657 21.6761 46.4481 21.2653 44.9862C21.0884 44.3517 21.1001 42.3206 21.2946 41.2694C21.5913 39.5969 22.1105 37.8606 22.8532 36.0331C23.2932 34.9483 24.1317 33.1315 24.2458 33.0116C24.3028 32.9487 24.3775 33.052 24.5661 33.4862C25.5266 35.6441 26.9947 38.276 28.4274 40.4061C31.8484 45.485 35.5937 48.7918 38.4784 49.2655L38.4471 49.2714C39.7146 49.4761 40.7837 49.1614 41.6112 48.3339C42.2852 47.6482 42.7308 46.6838 42.9823 45.3417C43.1358 44.5025 43.1358 42.1534 42.9823 41.0058C42.5145 37.5848 41.2692 33.6622 39.4022 29.7558C39.1113 29.1447 38.9474 28.996 38.5702 28.996C38.1477 28.9902 37.8046 29.3157 37.8046 29.7265C37.8046 29.8698 37.9476 30.2568 38.1874 30.7656C40.4886 35.6706 41.7233 40.4168 41.5976 43.8496C41.5201 45.8949 41.0078 47.124 40.0429 47.5976C39.5356 47.8476 38.8957 47.8432 38.0507 47.5683C34.172 46.2554 28.9171 39.6874 25.5307 31.9203L25.1947 31.1449L25.685 30.3051C26.2391 29.3518 27.6399 27.2223 28.2846 26.3481L28.7182 25.766H29.8588C36.7988 25.766 43.6708 27.3356 47.3138 29.7406C48.0565 30.2319 48.951 31.1298 49.22 31.6547C49.4144 32.0202 49.4329 32.1166 49.4329 32.602C49.4329 33.0771 49.4145 33.19 49.2551 33.4809C48.8092 34.3376 47.6335 35.2292 46.1203 35.8637C45.4186 36.1605 45.2297 36.3552 45.2297 36.7602C45.2297 37.1023 45.454 37.3883 45.7903 37.4906C46.0081 37.5535 46.0811 37.5426 46.4699 37.3891C48.9143 36.4227 50.5868 34.9198 50.9289 33.4008C51.0254 32.99 51.0196 32.2179 50.923 31.8188C50.7403 31.0352 50.0896 30.0318 49.341 29.3579C46.0062 26.3652 38.931 24.4351 30.536 24.2349L29.9364 24.2173L30.6376 23.4282C31.0148 22.9882 31.6893 22.2574 32.1513 21.7895C34.5387 19.3626 36.7547 17.776 38.6904 17.1137C39.3074 16.8974 39.4329 16.8735 40.0732 16.8735C40.6682 16.8735 40.81 16.8904 41.0673 17.022C41.4168 17.1872 41.8104 17.592 42.0107 17.9751C42.404 18.7572 42.5352 20.1303 42.3466 21.5923C42.2838 22.0952 42.2314 22.6772 42.2314 22.8775C42.2314 23.2152 42.244 23.265 42.4384 23.4302C42.5978 23.5793 42.705 23.6197 42.9111 23.6197C43.243 23.6197 43.5514 23.4415 43.6435 23.2017C43.9169 22.4941 44.0587 19.9872 43.8818 18.9302C43.607 17.3074 42.9119 16.2109 41.8037 15.6802C39.8446 14.7328 37.0013 15.6581 33.6826 18.3189C31.9472 19.7122 29.6629 22.0763 28.0869 24.0982L27.9326 24.2818L27.001 24.3326C26.2188 24.3779 24.9454 24.5033 23.4658 24.6802L23.1455 24.7193L23.0087 23.938C22.7412 22.3795 22.7177 22.146 22.7177 20.6548C22.7177 19.3463 22.7346 19.0937 22.8603 18.5689C23.1688 17.2443 23.7813 16.4216 24.5869 16.2505C25.6951 16.0166 27.0711 16.5717 29.001 18.0044C29.618 18.4679 30.3665 18.0733 30.2744 17.3423C30.2349 17.0236 29.9443 16.7488 28.9619 16.0923C28.1388 15.5382 27.2143 15.0801 26.4599 14.8579C26.0886 14.7468 25.6321 14.6822 25.1989 14.67ZM26.2028 25.914C26.4847 25.8959 26.6715 25.8924 26.6715 25.914C26.6715 25.9432 26.4096 26.3485 26.0836 26.8281C25.7576 27.3017 25.296 27.9978 25.0563 28.3926V28.3946C24.8224 28.7776 24.5919 29.1246 24.5466 29.1758C24.4837 29.2431 24.3922 29.0603 24.113 28.1699C23.7138 26.9418 23.5423 26.2797 23.5934 26.2226C23.657 26.1579 25.3571 25.9684 26.2028 25.914ZM32.7497 30.3183C31.5392 30.3183 30.5583 31.305 30.5583 32.5156C30.5583 33.7262 31.5391 34.709 32.7497 34.709C33.9602 34.709 34.9431 33.7262 34.9431 32.5156C34.9431 31.305 33.9602 30.3183 32.7497 30.3183Z" fill="#232323"/>
<path opacity="0.1" d="M31.789 8C25.4604 8.05564 19.41 10.6087 14.9547 15.1036C10.4993 19.5985 7.99976 25.6712 8 32C8.00013 32.1706 8.00209 32.3412 8.00586 32.5117C8.13356 26.2325 10.7176 20.2536 15.2034 15.8579C19.6892 11.4622 25.7194 8.99999 31.9999 8.99972C38.2763 8.99986 44.3029 11.4587 48.7881 15.8493C53.2732 20.2398 55.86 26.2127 55.9939 32.4877C55.9975 32.325 55.9995 32.1622 55.9998 31.9994C55.9998 25.6342 53.4712 19.5297 48.9703 15.0289C44.4695 10.528 38.365 7.99944 31.9998 7.99944C31.9294 7.99913 31.8593 7.99969 31.789 8Z" fill="url(#paint3_linear_4_14076)"/>
</g>
<defs>
<filter id="filter0_f_4_14076" x="3.2625" y="3.2625" width="57.475" height="57.475" filterUnits="userSpaceOnUse" color-interpolation-filters="sRGB">
<feFlood flood-opacity="0" result="BackgroundImageFix"/>
<feBlend mode="normal" in="SourceGraphic" in2="BackgroundImageFix" result="shape"/>
<feGaussianBlur stdDeviation="0.61875" result="effect1_foregroundBlur_4_14076"/>
</filter>
<linearGradient id="paint0_linear_4_14076" x1="4.5" y1="32" x2="59.5" y2="32" gradientUnits="userSpaceOnUse">
<stop stop-color="#FDFC47"/>
<stop offset="1" stop-color="#24FE41"/>
</linearGradient>
<linearGradient id="paint1_linear_4_14076" x1="4.5" y1="32" x2="59.5" y2="32" gradientUnits="userSpaceOnUse">
<stop stop-color="#FDFC47"/>
<stop offset="1" stop-color="#24FE41"/>
</linearGradient>
<linearGradient id="paint2_linear_4_14076" x1="8" y1="32" x2="56" y2="32" gradientUnits="userSpaceOnUse">
<stop stop-color="#FDFC47"/>
<stop offset="1" stop-color="#24FE41"/>
</linearGradient>
<linearGradient id="paint3_linear_4_14076" x1="8" y1="20.2555" x2="55.9998" y2="20.2555" gradientUnits="userSpaceOnUse">
<stop stop-color="#FDFC47"/>
<stop offset="1" stop-color="#24FE41"/>
</linearGradient>
<clipPath id="clip0_4_14076">
<rect width="64" height="64" fill="white"/>
</clipPath>
</defs>
</svg>
