<svg width="64" height="64" viewBox="0 0 64 64" fill="none" xmlns="http://www.w3.org/2000/svg">
<g clip-path="url(#clip0_4_13928)">
<g opacity="0.3" filter="url(#filter0_f_4_13928)">
<path d="M44.5 4.5H19.5C11.2157 4.5 4.5 11.2157 4.5 19.5V44.5C4.5 52.7843 11.2157 59.5 19.5 59.5H44.5C52.7843 59.5 59.5 52.7843 59.5 44.5V19.5C59.5 11.2157 52.7843 4.5 44.5 4.5Z" fill="url(#paint0_linear_4_13928)"/>
</g>
<path d="M19.5 5H44.5C52.5081 5 59 11.4919 59 19.5V44.5C59 52.5081 52.5081 59 44.5 59H19.5C11.4919 59 5 52.5081 5 44.5V19.5C5 11.4919 11.4919 5 19.5 5Z" fill="#232323" stroke="url(#paint1_linear_4_13928)"/>
<path d="M26.2121 48.0009C26.2121 48.0009 27.9857 48.0293 30.2423 47.695C31.1556 47.5561 34.6202 47.0018 37.1888 46.2646C37.1888 46.2646 40.3217 45.3761 41.9757 44.631C43.7086 43.8532 44.6377 43.221 45.0137 42.3833C45.1492 42.1022 45.3106 41.2103 44.0665 40.8265C42.0954 40.2473 39.6603 40.5171 34.8307 40.9958C29.4716 41.1121 27.6279 40.2903 26.6278 39.6027C25.6648 38.8994 25.9719 36.7871 29.7313 34.7266C31.6211 33.6349 39.1761 31.3872 39.1761 31.3872C36.4938 30.2154 31.5005 28.172 30.4732 27.7272C29.5712 27.3388 28.1318 26.7563 27.7728 25.9739C27.3754 25.2243 28.4784 24.4961 29.1049 24.2692C31.1303 23.5365 34.0237 22.9856 36.68 22.7891C38.0156 22.6932 38.2267 22.5893 38.2267 22.5893C40.0476 22.1682 41.1676 20.7965 40.5139 18.7644C39.9065 16.6871 37.4251 15.5864 35.1775 16.1463C33.0652 16.6724 28.0099 18.516 28.0099 18.516C34.3917 18.0927 35.4666 18.1423 35.9939 18.8028C36.3055 19.1922 35.9363 19.7748 34.2542 20.1586C32.4208 20.5786 28.5957 21.1746 28.5957 21.1746C24.9143 21.6127 22.3122 21.7786 21.6526 23.5296C21.2247 24.6733 22.3481 25.5979 22.8561 26.1883C24.9695 28.3164 27.8777 29.3641 29.7584 30.1486C30.4662 30.4444 32.5153 30.9626 32.5153 30.9626C26.6006 30.966 22.4857 33.0748 20.1477 35.3666C17.5217 38.2205 19.0007 41.3546 24.9164 42.9983C28.2795 43.8033 30.2146 44.0279 35.1977 43.6565C38.1826 43.3179 38.6624 43.3912 38.7098 43.6429C38.7787 43.9974 35.4709 45.0778 34.57 45.4052C32.2794 46.235 26.2423 47.993 26.2121 48.0009Z" fill="url(#paint2_linear_4_13928)"/>
</g>
<defs>
<filter id="filter0_f_4_13928" x="3.2625" y="3.2625" width="57.475" height="57.475" filterUnits="userSpaceOnUse" color-interpolation-filters="sRGB">
<feFlood flood-opacity="0" result="BackgroundImageFix"/>
<feBlend mode="normal" in="SourceGraphic" in2="BackgroundImageFix" result="shape"/>
<feGaussianBlur stdDeviation="0.61875" result="effect1_foregroundBlur_4_13928"/>
</filter>
<linearGradient id="paint0_linear_4_13928" x1="4.5" y1="32" x2="59.5" y2="32" gradientUnits="userSpaceOnUse">
<stop stop-color="#FDFC47"/>
<stop offset="1" stop-color="#24FE41"/>
</linearGradient>
<linearGradient id="paint1_linear_4_13928" x1="4.5" y1="32" x2="59.5" y2="32" gradientUnits="userSpaceOnUse">
<stop stop-color="#FDFC47"/>
<stop offset="1" stop-color="#24FE41"/>
</linearGradient>
<linearGradient id="paint2_linear_4_13928" x1="18.8984" y1="32.0014" x2="45.1049" y2="32.0014" gradientUnits="userSpaceOnUse">
<stop stop-color="#FDFC47"/>
<stop offset="1" stop-color="#24FE41"/>
</linearGradient>
<clipPath id="clip0_4_13928">
<rect width="64" height="64" fill="white"/>
</clipPath>
</defs>
</svg>
