<svg width="64" height="64" viewBox="0 0 64 64" fill="none" xmlns="http://www.w3.org/2000/svg">
<g opacity="0.3" filter="url(#filter0_f_4_13875)">
<path d="M44.5003 4.50006H19.5001C11.2158 4.50006 4.5 11.2158 4.5 19.5002V44.5003C4.5 52.7847 11.2158 59.5004 19.5001 59.5004H44.5003C52.7846 59.5004 59.5004 52.7847 59.5004 44.5003V19.5002C59.5004 11.2158 52.7846 4.50006 44.5003 4.50006Z" fill="#232323"/>
<path d="M19.5001 5.00006H44.5003C52.5085 5.00006 59.0004 11.492 59.0004 19.5002V44.5003C59.0004 52.5085 52.5085 59.0004 44.5003 59.0004H19.5001C11.4919 59.0004 5 52.5085 5 44.5003V19.5002C5 11.492 11.4919 5.00006 19.5001 5.00006Z" stroke="url(#paint0_linear_4_13875)"/>
</g>
<path d="M17.0184 58.7744C11.1762 57.7728 6.54824 53.3112 5.32272 47.5521C5.08213 45.2329 5 42.4598 5 39.1376V24.864C5 21.5381 5.08233 18.7626 5.32352 16.4419C6.55031 10.6848 11.1773 6.22824 17.0184 5.22716C18.8994 5.07005 21.031 5.00021 23.5277 5.00021H40.4732C42.9698 5.00021 45.1015 5.07005 46.9825 5.22716C52.8236 6.22847 57.4507 10.6848 58.6774 16.4419C58.9185 18.7626 59.0009 21.5382 59.0009 24.864V39.1376C59.0009 42.4599 58.9187 45.2367 58.6782 47.5559C57.4526 53.3148 52.8249 57.7731 46.9825 58.7744C45.1015 58.9315 42.9698 59.0013 40.4732 59.0013H23.5277C21.0311 59.0013 18.8994 58.9314 17.0184 58.7744ZM58.6838 47.7367C58.6851 47.7425 58.6865 47.7485 58.6879 47.7544C58.6873 47.7522 58.6867 47.7502 58.6862 47.7484C58.6855 47.745 58.6847 47.741 58.6838 47.7367ZM58.7232 47.8522C58.7186 47.8419 58.7135 47.829 58.7085 47.8155C58.7155 47.8319 58.724 47.8504 58.7325 47.8677C58.7289 47.862 58.7257 47.8568 58.7232 47.8522ZM58.875 48.035C58.8533 48.0164 58.8284 47.9903 58.8049 47.9629C58.8362 47.9935 58.8749 48.027 58.9115 48.054C58.8978 48.0477 58.8855 48.0414 58.875 48.035ZM59.0321 47.1543C59.0408 47.1525 59.0507 47.1511 59.0613 47.1499C59.0166 47.164 58.9662 47.1849 58.926 47.2046C58.9616 47.1849 59.0014 47.1654 59.0321 47.1543ZM58.85 47.2522C58.8514 47.2511 58.853 47.2499 58.8545 47.2488C58.8421 47.2599 58.8282 47.2731 58.8158 47.2856C58.8277 47.2733 58.8402 47.261 58.85 47.2522ZM5.27941 47.845C5.26705 47.8656 5.24316 47.8923 5.21132 47.921C5.24884 47.8772 5.27824 47.836 5.29357 47.8079C5.28891 47.8212 5.28408 47.834 5.27941 47.845ZM5.32009 47.7189C5.31916 47.7234 5.31766 47.7295 5.31573 47.7368C5.31804 47.7266 5.32005 47.7172 5.32153 47.7096C5.32104 47.713 5.32055 47.7161 5.32009 47.7189ZM5.2181 47.3174C5.22211 47.3229 5.22628 47.329 5.2305 47.3353C5.21238 47.3164 5.18218 47.2921 5.14459 47.2668C5.17677 47.2841 5.2022 47.3015 5.2181 47.3174Z" fill="#232323" stroke="url(#paint1_linear_4_13875)"/>
<path d="M11.4751 33.6316C13.3679 32.3145 15.0839 31.2295 16.6346 30.336L16.6346 30.336C18.185 29.4425 19.5691 28.7418 20.7994 28.1934L20.8176 28.1853L20.8351 28.1757C21.7989 27.6504 23.1732 27.2236 24.5917 26.9272C25.7286 26.6896 26.8665 26.5413 27.8023 26.4896C27.0085 27.1604 26.3737 27.841 25.8872 28.5302C25.1805 29.5313 24.7878 30.549 24.6756 31.5748C24.5635 32.5992 24.7328 33.606 25.1177 34.5805C25.5015 35.552 26.0985 36.4923 26.8434 37.3965C27.5887 38.3011 28.4897 39.1785 29.4894 40.0197C30.4895 40.8613 31.5926 41.6708 32.7483 42.4435C35.059 43.9886 37.5898 45.3915 39.9321 46.5974C42.2446 47.7881 44.3112 49.0645 46.1109 50.3102C47.9106 51.5558 49.4432 52.7707 50.6853 53.8354C51.7653 54.7611 52.5734 55.5236 53.1804 56.1274C51.3559 57.4869 49.195 58.4177 46.8414 58.797C45.0581 58.9396 43.0268 58.9976 40.6875 59.0008H23.3585C20.9497 58.9981 18.8774 58.9312 17.0491 58.7797C11.202 57.7896 6.56816 53.3364 5.33241 47.5803C5.0896 45.2554 5.00391 42.4725 5.00391 39.1373V38.5581C5.02485 38.5372 5.04434 38.5174 5.06241 38.499C5.06729 38.494 5.07207 38.4892 5.07675 38.4844C5.1429 38.4172 5.19415 38.3665 5.25717 38.3157C7.51359 36.4966 9.58239 34.9487 11.4751 33.6316ZM11.4751 33.6316L11.1895 33.2212M11.4751 33.6316L11.1895 33.2212M11.1895 33.2212C9.28631 34.5456 7.2081 36.1006 4.94336 37.9264C4.85076 38.0011 4.77926 38.0738 4.70777 38.1465C4.64466 38.2107 4.58154 38.2749 4.50391 38.3405L28.4438 25.9691C26.3111 25.9803 22.6474 26.6184 20.5958 27.7367C19.3483 28.2928 17.9489 29.0015 16.385 29.9028C14.8208 30.804 13.0929 31.8968 11.1895 33.2212Z" fill="url(#paint2_linear_4_13875)" stroke="url(#paint3_linear_4_13875)"/>
<path d="M32.7587 41.2405C33.83 41.9838 35.0877 42.8234 36.3714 43.6021C37.6772 44.3583 39.1971 45.142 40.4763 45.8006L40.4806 45.8028C42.9549 47.1069 45.2388 48.5287 47.286 49.9584L47.2867 49.9589C48.6852 50.9391 50.0908 52.0144 51.448 53.176L51.448 53.176C52.3155 53.9185 53.1448 54.7064 53.946 55.5143C56.4665 53.3521 58.2204 50.3341 58.7886 46.9017C58.9613 44.8942 58.9755 42.917 58.9875 41.2374C58.9899 40.9005 58.9923 40.5755 58.9958 40.2646C58.6696 40.1103 58.3386 39.9546 58.0039 39.7971C55.9216 38.8173 53.6981 37.771 51.6351 36.6083L51.8806 36.1727L51.6351 36.6083C51.1421 36.3304 50.4619 35.9305 49.6411 35.4481C47.4257 34.1458 44.1867 32.2417 40.8437 30.5111L40.8437 30.5111C38.5606 29.3292 36.2499 28.2375 34.208 27.4854C32.525 26.9487 31.0782 26.6751 29.3901 26.5153C28.179 27.3881 27.3046 28.2536 26.7061 29.0998L26.7049 29.099L26.7005 29.1052C26.6949 29.1131 26.6894 29.121 26.6839 29.1289M32.7587 41.2405L29.251 26.0005C27.9282 26.9333 26.9614 27.8729 26.2978 28.8111M32.7587 41.2405C31.9368 40.6702 31.6728 40.4708 31.3136 40.1994C31.2179 40.1272 31.1155 40.0498 30.9941 39.959M32.7587 41.2405L30.6904 40.3563M26.6839 29.1289C26.6783 29.1357 26.6731 29.1416 26.6685 29.1468C26.6574 29.159 26.6477 29.1685 26.6412 29.1748C26.6346 29.1811 26.6291 29.1859 26.6261 29.1886L26.626 29.1886M26.6839 29.1289C26.6851 29.1274 26.6863 29.1259 26.6875 29.1244C26.6945 29.1158 26.7023 29.1054 26.7105 29.0934L26.7092 29.0925L26.7131 29.0865C26.7118 29.0885 26.7105 29.0905 26.7092 29.0925L26.5174 28.9613L26.2978 28.8111M26.6839 29.1289C26.105 29.9569 25.8125 30.7745 25.7069 31.5812M26.626 29.1886C26.629 29.186 26.6346 29.181 26.6413 29.1744C26.648 29.1679 26.6581 29.1578 26.6695 29.1447C26.6754 29.1379 26.6821 29.1298 26.6893 29.1204C26.6928 29.1158 26.6966 29.1108 26.7005 29.1052C26.7019 29.1032 26.7034 29.1011 26.7048 29.099L26.4416 28.9127L26.2978 28.8111M26.626 29.1886L26.6236 29.1907C26.6243 29.1901 26.6252 29.1894 26.626 29.1886ZM26.2978 28.8111C26.2972 28.812 26.2961 28.813 26.2949 28.814C26.2938 28.815 26.2926 28.816 26.2919 28.817C25.653 29.7225 25.3259 30.6279 25.2099 31.5261M25.7069 31.5812C25.7073 31.5777 25.7076 31.5743 25.7079 31.5709L25.2099 31.5261M25.7069 31.5812C25.7 31.6557 25.6887 31.7474 25.6782 31.8332C25.6721 31.8827 25.6663 31.9303 25.6617 31.9715C25.6464 32.1072 25.6383 32.2164 25.6412 32.2971L25.6416 32.3092L25.6415 32.3092C25.6472 32.7902 25.74 33.2798 25.8929 33.7816M25.7069 31.5812C25.7065 31.5842 25.7062 31.5871 25.7058 31.5901L25.2099 31.5261M25.2099 31.5261C25.2036 31.5959 25.1939 31.6746 25.1837 31.7572C25.1608 31.9432 25.1355 32.1487 25.1415 32.3151C25.1479 32.8563 25.2522 33.3946 25.415 33.9285M28.1122 38.0985C28.6304 38.6337 29.1956 39.1206 29.8076 39.6356C30.0829 39.8673 30.3997 40.1292 30.6904 40.3563M28.1122 38.0985L28.4814 37.7612C28.4797 37.7594 28.4781 37.7576 28.4764 37.7558M28.1122 38.0985L28.4715 37.7507C28.4731 37.7524 28.4748 37.7541 28.4764 37.7558M28.1122 38.0985C28.0024 37.9782 27.8931 37.8613 27.7857 37.7465C27.4535 37.3912 27.1405 37.0564 26.8896 36.7059C26.6353 36.3669 26.3814 35.9876 26.1786 35.6433M28.4764 37.7558C28.9739 38.269 29.5201 38.7402 30.1295 39.253L30.1295 39.253C30.4017 39.4821 30.7115 39.7381 30.9941 39.959M28.4764 37.7558C28.3573 37.6255 28.2428 37.5029 28.1332 37.3857C27.8081 37.0379 27.5264 36.7365 27.2962 36.4149L27.2963 36.4148L27.2896 36.4058C27.0467 36.082 26.8041 35.7198 26.6118 35.3935M30.9941 39.959C30.9926 39.958 30.9912 39.9569 30.9897 39.9558L30.6904 40.3563M30.9941 39.959C30.9954 39.9601 30.9968 39.9612 30.9982 39.9623L30.6904 40.3563M26.6118 35.3935C26.6125 35.3948 26.6133 35.3962 26.614 35.3975L26.1786 35.6433M26.6118 35.3935C26.611 35.3922 26.6102 35.3909 26.6095 35.3896L26.1786 35.6433M26.6118 35.3935C26.298 34.8372 26.0439 34.2689 25.8929 33.7816M26.1786 35.6433C25.8505 35.0622 25.5792 34.4588 25.415 33.9285M25.8929 33.7816C25.893 33.7819 25.8931 33.7823 25.8932 33.7826L25.415 33.9285M25.8929 33.7816C25.8928 33.7812 25.8927 33.7809 25.8926 33.7805L25.415 33.9285" fill="url(#paint4_linear_4_13875)" stroke="url(#paint5_linear_4_13875)"/>
<path d="M50.8049 15.8073C50.8049 17.7889 49.1985 19.3953 47.2169 19.3953C45.2353 19.3953 43.6289 17.7889 43.6289 15.8073C43.6289 13.8257 45.2353 12.2193 47.2169 12.2193C49.1985 12.2193 50.8049 13.8257 50.8049 15.8073Z" fill="url(#paint6_linear_4_13875)" stroke="url(#paint7_linear_4_13875)"/>
<g opacity="0.3" filter="url(#filter1_f_4_13875)">
<path d="M44.801 60.5615C53.6376 60.5615 60.8012 53.3979 60.8012 44.5613C60.8012 35.7246 53.6376 28.5611 44.801 28.5611C35.9643 28.5611 28.8008 35.7246 28.8008 44.5613C28.8008 53.3979 35.9643 60.5615 44.801 60.5615Z" fill="url(#paint8_linear_4_13875)"/>
</g>
<path d="M60.3012 44.5615C60.3012 53.122 53.3615 60.0617 44.801 60.0617C36.2405 60.0617 29.3008 53.122 29.3008 44.5615C29.3008 36.001 36.2405 29.0613 44.801 29.0613C53.3615 29.0613 60.3012 36.001 60.3012 44.5615Z" fill="url(#paint9_linear_4_13875)" stroke="#232323"/>
<path d="M44.7995 57.611C52.0065 57.611 57.8489 51.7685 57.8489 44.5615C57.8489 37.3545 52.0065 31.5121 44.7995 31.5121C37.5924 31.5121 31.75 37.3545 31.75 44.5615C31.75 51.7685 37.5924 57.611 44.7995 57.611Z" fill="url(#paint10_linear_4_13875)" stroke="#232323" stroke-width="0.371187" stroke-linecap="round"/>
<path d="M45.4931 51.0247C45.4931 51.0247 38.5296 54.2122 32.2773 48.0585" stroke="#232323" stroke-width="0.371187" stroke-linecap="round"/>
<path d="M51.2617 41.9725C51.2617 41.9725 56.1431 47.8739 51.8172 55.5057" stroke="#232323" stroke-width="0.371187" stroke-linecap="round"/>
<path d="M40.5664 38.9564C40.5664 38.9564 45.0033 32.714 53.4949 34.9171" stroke="#232323" stroke-width="0.371187" stroke-linecap="round"/>
<path d="M44.7675 51.2412C48.6194 51.2412 51.742 48.1186 51.742 44.2667C51.742 40.4148 48.6194 37.2922 44.7675 37.2922C40.9156 37.2922 37.793 40.4148 37.793 44.2667C37.793 48.1186 40.9156 51.2412 44.7675 51.2412Z" fill="url(#paint11_linear_4_13875)" stroke="#232323" stroke-width="0.414736"/>
<path d="M44.6082 49.8866C47.712 49.8866 50.2281 47.3705 50.2281 44.2667C50.2281 41.1629 47.712 38.6468 44.6082 38.6468C41.5044 38.6468 38.9883 41.1629 38.9883 44.2667C38.9883 47.3705 41.5044 49.8866 44.6082 49.8866Z" fill="url(#paint12_linear_4_13875)" stroke="#232323" stroke-width="0.390962"/>
<path d="M44.6058 48.7788C47.0978 48.7788 49.1179 46.7587 49.1179 44.2667C49.1179 41.7747 47.0978 39.7546 44.6058 39.7546C42.1139 39.7546 40.0938 41.7747 40.0938 44.2667C40.0938 46.7587 42.1139 48.7788 44.6058 48.7788Z" fill="url(#paint13_linear_4_13875)" stroke="#232323" stroke-width="0.313915"/>
<path d="M45.1613 44.2327C45.1613 44.4317 44.9999 44.593 44.8009 44.593C44.6019 44.593 44.4406 44.4317 44.4406 44.2327C44.4406 44.0337 44.6019 43.8723 44.8009 43.8723C44.9999 43.8723 45.1613 44.0337 45.1613 44.2327Z" fill="url(#paint14_linear_4_13875)" stroke="#232323" stroke-width="3.7796"/>
<mask id="path-17-inside-1_4_13875" fill="white">
<path d="M44.7985 46.0976C45.8284 46.0976 46.6634 45.2626 46.6634 44.2327C46.6634 43.2027 45.8284 42.3678 44.7985 42.3678C43.7685 42.3678 42.9336 43.2027 42.9336 44.2327C42.9336 45.2626 43.7685 46.0976 44.7985 46.0976Z"/>
</mask>
<path d="M44.7985 46.0976C45.8284 46.0976 46.6634 45.2626 46.6634 44.2327C46.6634 43.2027 45.8284 42.3678 44.7985 42.3678C43.7685 42.3678 42.9336 43.2027 42.9336 44.2327C42.9336 45.2626 43.7685 46.0976 44.7985 46.0976Z" fill="#232323"/>
<path d="M42.8838 44.2327C42.8838 43.1752 43.741 42.318 44.7985 42.318V49.8772C47.9159 49.8772 50.443 47.3501 50.443 44.2327H42.8838ZM44.7985 42.318C45.856 42.318 46.7132 43.1752 46.7132 44.2327H39.154C39.154 47.3501 41.6811 49.8772 44.7985 49.8772V42.318ZM46.7132 44.2327C46.7132 45.2902 45.856 46.1474 44.7985 46.1474V38.5882C41.6811 38.5882 39.154 41.1153 39.154 44.2327H46.7132ZM44.7985 46.1474C43.741 46.1474 42.8838 45.2902 42.8838 44.2327H50.443C50.443 41.1153 47.9159 38.5882 44.7985 38.5882V46.1474Z" fill="url(#paint15_linear_4_13875)" mask="url(#path-17-inside-1_4_13875)"/>
<path opacity="0.15" d="M43.9708 44.2327C43.9708 43.775 44.3418 43.404 44.7994 43.404C45.2571 43.404 45.6281 43.775 45.6281 44.2327C45.6281 44.6903 45.2571 45.0613 44.7994 45.0613C44.3418 45.0613 43.9708 44.6903 43.9708 44.2327Z" fill="url(#paint16_linear_4_13875)" stroke="url(#paint17_linear_4_13875)" stroke-width="3.7796"/>
<defs>
<filter id="filter0_f_4_13875" x="3.26249" y="3.26255" width="57.475" height="57.4754" filterUnits="userSpaceOnUse" color-interpolation-filters="sRGB">
<feFlood flood-opacity="0" result="BackgroundImageFix"/>
<feBlend mode="normal" in="SourceGraphic" in2="BackgroundImageFix" result="shape"/>
<feGaussianBlur stdDeviation="0.618754" result="effect1_foregroundBlur_4_13875"/>
</filter>
<filter id="filter1_f_4_13875" x="28.0808" y="27.8411" width="33.44" height="33.4404" filterUnits="userSpaceOnUse" color-interpolation-filters="sRGB">
<feFlood flood-opacity="0" result="BackgroundImageFix"/>
<feBlend mode="normal" in="SourceGraphic" in2="BackgroundImageFix" result="shape"/>
<feGaussianBlur stdDeviation="0.36" result="effect1_foregroundBlur_4_13875"/>
</filter>
<linearGradient id="paint0_linear_4_13875" x1="4.5" y1="32.0003" x2="59.5004" y2="32.0003" gradientUnits="userSpaceOnUse">
<stop stop-color="#FDFC47"/>
<stop offset="1" stop-color="#24FE41"/>
</linearGradient>
<linearGradient id="paint1_linear_4_13875" x1="4.5" y1="32.0008" x2="59.5009" y2="32.0008" gradientUnits="userSpaceOnUse">
<stop stop-color="#FDFC47"/>
<stop offset="1" stop-color="#24FE41"/>
</linearGradient>
<linearGradient id="paint2_linear_4_13875" x1="4.50391" y1="42.7348" x2="53.9327" y2="42.7348" gradientUnits="userSpaceOnUse">
<stop stop-color="#FDFC47"/>
<stop offset="1" stop-color="#24FE41"/>
</linearGradient>
<linearGradient id="paint3_linear_4_13875" x1="4.50391" y1="42.7348" x2="53.9327" y2="42.7348" gradientUnits="userSpaceOnUse">
<stop stop-color="#FDFC47"/>
<stop offset="1" stop-color="#24FE41"/>
</linearGradient>
<linearGradient id="paint4_linear_4_13875" x1="25.1406" y1="41.0966" x2="59.4999" y2="41.0966" gradientUnits="userSpaceOnUse">
<stop stop-color="#FDFC47"/>
<stop offset="1" stop-color="#24FE41"/>
</linearGradient>
<linearGradient id="paint5_linear_4_13875" x1="25.1406" y1="41.0966" x2="59.4999" y2="41.0966" gradientUnits="userSpaceOnUse">
<stop stop-color="#FDFC47"/>
<stop offset="1" stop-color="#24FE41"/>
</linearGradient>
<linearGradient id="paint6_linear_4_13875" x1="43.1289" y1="15.8073" x2="51.3049" y2="15.8073" gradientUnits="userSpaceOnUse">
<stop stop-color="#FDFC47"/>
<stop offset="1" stop-color="#24FE41"/>
</linearGradient>
<linearGradient id="paint7_linear_4_13875" x1="43.1289" y1="15.8073" x2="51.3049" y2="15.8073" gradientUnits="userSpaceOnUse">
<stop stop-color="#FDFC47"/>
<stop offset="1" stop-color="#24FE41"/>
</linearGradient>
<linearGradient id="paint8_linear_4_13875" x1="28.8008" y1="44.5613" x2="60.8012" y2="44.5613" gradientUnits="userSpaceOnUse">
<stop stop-color="#FDFC47"/>
<stop offset="1" stop-color="#24FE41"/>
</linearGradient>
<linearGradient id="paint9_linear_4_13875" x1="28.8008" y1="44.5615" x2="60.8012" y2="44.5615" gradientUnits="userSpaceOnUse">
<stop stop-color="#FDFC47"/>
<stop offset="1" stop-color="#24FE41"/>
</linearGradient>
<linearGradient id="paint10_linear_4_13875" x1="31.75" y1="44.5615" x2="57.8489" y2="44.5615" gradientUnits="userSpaceOnUse">
<stop stop-color="#FDFC47"/>
<stop offset="1" stop-color="#24FE41"/>
</linearGradient>
<linearGradient id="paint11_linear_4_13875" x1="37.793" y1="44.2667" x2="51.742" y2="44.2667" gradientUnits="userSpaceOnUse">
<stop stop-color="#FDFC47"/>
<stop offset="1" stop-color="#24FE41"/>
</linearGradient>
<linearGradient id="paint12_linear_4_13875" x1="38.9883" y1="44.2667" x2="50.2281" y2="44.2667" gradientUnits="userSpaceOnUse">
<stop stop-color="#FDFC47"/>
<stop offset="1" stop-color="#24FE41"/>
</linearGradient>
<linearGradient id="paint13_linear_4_13875" x1="40.0938" y1="44.2667" x2="49.1179" y2="44.2667" gradientUnits="userSpaceOnUse">
<stop stop-color="#FDFC47"/>
<stop offset="1" stop-color="#24FE41"/>
</linearGradient>
<linearGradient id="paint14_linear_4_13875" x1="42.5508" y1="44.2327" x2="47.0511" y2="44.2327" gradientUnits="userSpaceOnUse">
<stop stop-color="#FDFC47"/>
<stop offset="1" stop-color="#24FE41"/>
</linearGradient>
<linearGradient id="paint15_linear_4_13875" x1="42.9336" y1="44.2327" x2="46.6634" y2="44.2327" gradientUnits="userSpaceOnUse">
<stop stop-color="#FDFC47"/>
<stop offset="1" stop-color="#24FE41"/>
</linearGradient>
<linearGradient id="paint16_linear_4_13875" x1="43.7383" y1="44.2327" x2="45.8606" y2="44.2327" gradientUnits="userSpaceOnUse">
<stop stop-color="#FDFC47"/>
<stop offset="1" stop-color="#24FE41"/>
</linearGradient>
<linearGradient id="paint17_linear_4_13875" x1="43.7383" y1="44.2327" x2="45.8606" y2="44.2327" gradientUnits="userSpaceOnUse">
<stop stop-color="#FDFC47"/>
<stop offset="1" stop-color="#24FE41"/>
</linearGradient>
</defs>
</svg>
