<svg width="64" height="64" viewBox="0 0 64 64" fill="none" xmlns="http://www.w3.org/2000/svg">
<g clip-path="url(#clip0_4_13817)">
<g opacity="0.3" filter="url(#filter0_f_4_13817)">
<path d="M44.5 4.5H19.5C11.2157 4.5 4.5 11.2157 4.5 19.5V44.5C4.5 52.7843 11.2157 59.5 19.5 59.5H44.5C52.7843 59.5 59.5 52.7843 59.5 44.5V19.5C59.5 11.2157 52.7843 4.5 44.5 4.5Z" fill="url(#paint0_linear_4_13817)"/>
</g>
<path d="M19.5 5H44.5C52.5081 5 59 11.4919 59 19.5V44.5C59 52.5081 52.5081 59 44.5 59H19.5C11.4919 59 5 52.5081 5 44.5V19.5C5 11.4919 11.4919 5 19.5 5Z" fill="#232323" stroke="url(#paint1_linear_4_13817)"/>
<path d="M20.1552 21.2747H23.4784C23.6682 21.2747 23.8203 21.1226 23.8203 20.9328C23.8203 20.9328 23.7786 18.1197 23.7786 17.3363V17.3255C23.7786 16.6835 23.9159 16.1209 24.1568 15.6538L24.2672 15.4438C24.2564 15.4438 24.2403 15.4492 24.2309 15.4654L17.7741 21.7902C17.7633 21.801 17.7579 21.8171 17.7526 21.832C17.8845 21.7633 18.0675 21.6745 18.0944 21.6637C18.6571 21.4107 19.3355 21.2747 20.1552 21.2747ZM45.9984 20.5856C45.7359 19.1871 44.9 18.5033 44.1368 18.2301C43.3171 17.9353 41.6548 17.6365 39.5726 17.3942C37.8901 17.195 35.9182 17.2098 34.7243 17.2475C34.5829 16.2797 33.8938 15.3967 33.1252 15.0871C31.0753 14.2769 27.9095 14.472 27.0951 14.6982C26.4531 14.8718 25.733 15.2392 25.3386 15.8019C25.0708 16.1801 24.8971 16.6647 24.8971 17.3377C24.8971 17.7159 24.9079 18.615 24.9187 19.4145C24.9294 20.2248 24.9402 20.9342 24.9402 20.9342C24.9402 21.6489 24.356 22.2277 23.6305 22.2438H20.3073C19.5979 22.2438 19.0555 22.3596 18.6463 22.544C18.2304 22.7338 17.937 22.9801 17.7162 23.2803C17.2693 23.8698 17.1953 24.5953 17.1953 25.3356C17.1953 25.3356 17.2007 25.9292 17.3474 27.1069C17.4739 28.0222 18.4673 34.3632 19.4135 36.2813C19.781 37.0337 20.0233 37.3433 20.7434 37.6744C22.3465 38.3528 26.017 39.1092 27.7305 39.3259C29.4493 39.5413 30.5221 39.9989 31.1641 38.6798C31.1695 38.6798 31.296 38.3487 31.4696 37.8655C32.0269 36.1992 32.1009 34.7159 32.1009 33.6431C32.1009 33.5381 32.2638 33.5327 32.2638 33.6431C32.2638 34.4009 32.1171 37.0767 34.1616 37.7969C34.9719 38.0809 36.6437 38.3326 38.3464 38.5277C39.8875 38.7014 41.002 39.3003 41.002 43.2078C41.002 45.5848 40.4973 45.8998 37.8631 45.8998C35.723 45.8998 34.9087 45.9577 34.9087 44.2752C34.9087 42.913 36.2708 43.0665 37.2749 43.0665C37.7218 43.0665 37.3961 42.7353 37.3961 41.8995C37.3961 41.069 37.9224 40.5844 37.423 40.575C33.9476 40.4808 31.8977 40.5696 31.8977 44.8701C31.8977 48.7762 33.4119 49.5017 38.349 49.5017C42.2188 49.5017 43.5863 49.3698 45.184 44.4703C45.499 43.5026 46.2676 40.5481 46.7292 35.584C47.0186 32.4505 46.4506 22.9868 45.9984 20.5882M39.2549 31.0507C38.7771 31.0292 38.3141 31.0669 37.8779 31.1355C38.0099 30.1677 38.4096 28.9846 39.8229 29.0371C41.4058 29.0896 41.6266 30.5675 41.6319 31.5662C40.9643 31.2715 40.1486 31.083 39.2495 31.0507" fill="url(#paint2_linear_4_13817)"/>
</g>
<defs>
<filter id="filter0_f_4_13817" x="3.2625" y="3.2625" width="57.475" height="57.475" filterUnits="userSpaceOnUse" color-interpolation-filters="sRGB">
<feFlood flood-opacity="0" result="BackgroundImageFix"/>
<feBlend mode="normal" in="SourceGraphic" in2="BackgroundImageFix" result="shape"/>
<feGaussianBlur stdDeviation="0.61875" result="effect1_foregroundBlur_4_13817"/>
</filter>
<linearGradient id="paint0_linear_4_13817" x1="4.5" y1="32" x2="59.5" y2="32" gradientUnits="userSpaceOnUse">
<stop stop-color="#FDFC47"/>
<stop offset="1" stop-color="#24FE41"/>
</linearGradient>
<linearGradient id="paint1_linear_4_13817" x1="4.5" y1="32" x2="59.5" y2="32" gradientUnits="userSpaceOnUse">
<stop stop-color="#FDFC47"/>
<stop offset="1" stop-color="#24FE41"/>
</linearGradient>
<linearGradient id="paint2_linear_4_13817" x1="17.1953" y1="32.0011" x2="46.808" y2="32.0011" gradientUnits="userSpaceOnUse">
<stop stop-color="#FDFC47"/>
<stop offset="1" stop-color="#24FE41"/>
</linearGradient>
<clipPath id="clip0_4_13817">
<rect width="64" height="64" fill="white"/>
</clipPath>
</defs>
</svg>
