<svg width="64" height="64" viewBox="0 0 64 64" fill="none" xmlns="http://www.w3.org/2000/svg">
<g clip-path="url(#clip0_4_13731)">
<g opacity="0.3" filter="url(#filter0_f_4_13731)">
<path d="M46.498 4.5H17.502C10.3212 4.5 4.5 10.3212 4.5 17.502V46.498C4.5 53.6788 10.3212 59.5 17.502 59.5H46.498C53.6788 59.5 59.5 53.6788 59.5 46.498V17.502C59.5 10.3212 53.6788 4.5 46.498 4.5Z" fill="url(#paint0_linear_4_13731)"/>
</g>
<path d="M5 17.502C5 10.575 10.575 5 17.502 5H46.498C53.425 5 59 10.575 59 17.502V46.4981C59 53.425 53.425 59 46.498 59H17.502C10.575 59 5 53.425 5 46.4981V17.502Z" fill="#232323" stroke="url(#paint1_linear_4_13731)"/>
<g filter="url(#filter1_f_4_13731)">
<path d="M45.694 22.0653L43.8385 17.1522C43.8385 17.1522 28.0772 16.2374 19.3962 23.0042C19.3962 23.0042 15.2371 26.47 16.1614 30.365C17.0856 34.2598 19.0661 34.854 21.9377 35.3491C24.8095 35.8442 31.081 35.4481 33.4576 35.0849C37.16 34.7882 39.9933 35.283 39.6301 36.7353C39.2669 38.1877 35.2068 40.3002 32.4673 40.8282C29.7276 41.3564 26.1626 42.1486 20.3201 41.2574L22.295 46.3622C22.295 46.3622 39.2635 48.2761 48.3194 39.6401C48.3194 39.6401 53.081 35.2826 48.3194 30.3975C43.5579 25.5124 25.5681 31.7178 27.2187 25.8752C27.2187 25.8752 28.7839 21.5229 45.694 22.0653Z" fill="url(#paint2_linear_4_13731)"/>
</g>
<path d="M45.694 22.0653L43.8385 17.1522C43.8385 17.1522 28.0772 16.2374 19.3962 23.0042C19.3962 23.0042 15.2371 26.47 16.1614 30.365C17.0856 34.2598 19.0661 34.854 21.9377 35.3491C24.8095 35.8442 31.081 35.4481 33.4576 35.0849C37.16 34.7882 39.9933 35.283 39.63 36.7353C39.2669 38.1877 35.2068 40.3002 32.4673 40.8282C29.7276 41.3564 26.1626 42.1486 20.3201 41.2574L22.295 46.3622C22.295 46.3622 39.2635 48.2761 48.3194 39.6401C48.3194 39.6401 53.081 35.2826 48.3194 30.3975C43.5579 25.5124 25.5681 31.7178 27.2187 25.8752C27.2187 25.8752 28.7839 21.5229 45.694 22.0653Z" fill="url(#paint3_linear_4_13731)"/>
</g>
<defs>
<filter id="filter0_f_4_13731" x="2.3" y="2.3" width="59.4" height="59.4" filterUnits="userSpaceOnUse" color-interpolation-filters="sRGB">
<feFlood flood-opacity="0" result="BackgroundImageFix"/>
<feBlend mode="normal" in="SourceGraphic" in2="BackgroundImageFix" result="shape"/>
<feGaussianBlur stdDeviation="1.1" result="effect1_foregroundBlur_4_13731"/>
</filter>
<filter id="filter1_f_4_13731" x="14.4313" y="15.5147" width="37.6022" height="32.624" filterUnits="userSpaceOnUse" color-interpolation-filters="sRGB">
<feFlood flood-opacity="0" result="BackgroundImageFix"/>
<feBlend mode="normal" in="SourceGraphic" in2="BackgroundImageFix" result="shape"/>
<feGaussianBlur stdDeviation="0.798015" result="effect1_foregroundBlur_4_13731"/>
</filter>
<linearGradient id="paint0_linear_4_13731" x1="4.5" y1="32" x2="59.5" y2="32" gradientUnits="userSpaceOnUse">
<stop stop-color="#FDFC47"/>
<stop offset="1" stop-color="#24FE41"/>
</linearGradient>
<linearGradient id="paint1_linear_4_13731" x1="4.5" y1="32" x2="59.5" y2="32" gradientUnits="userSpaceOnUse">
<stop stop-color="#FDFC47"/>
<stop offset="1" stop-color="#24FE41"/>
</linearGradient>
<linearGradient id="paint2_linear_4_13731" x1="16.0273" y1="31.8267" x2="50.4357" y2="31.8267" gradientUnits="userSpaceOnUse">
<stop stop-color="#FDFC47"/>
<stop offset="1" stop-color="#24FE41"/>
</linearGradient>
<linearGradient id="paint3_linear_4_13731" x1="16.0273" y1="31.8267" x2="50.4357" y2="31.8267" gradientUnits="userSpaceOnUse">
<stop stop-color="#FDFC47"/>
<stop offset="1" stop-color="#24FE41"/>
</linearGradient>
<clipPath id="clip0_4_13731">
<rect width="64" height="64" fill="white"/>
</clipPath>
</defs>
</svg>
