<svg width="64" height="64" viewBox="0 0 64 64" fill="none" xmlns="http://www.w3.org/2000/svg">
<g clip-path="url(#clip0_4_13745)">
<g opacity="0.3" filter="url(#filter0_f_4_13745)">
<path d="M44.5 4.5H19.5C11.2157 4.5 4.5 11.2157 4.5 19.5V44.5C4.5 52.7843 11.2157 59.5 19.5 59.5H44.5C52.7843 59.5 59.5 52.7843 59.5 44.5V19.5C59.5 11.2157 52.7843 4.5 44.5 4.5Z" fill="url(#paint0_linear_4_13745)"/>
</g>
<path d="M19.5 5H44.5C52.5081 5 59 11.4919 59 19.5V44.5C59 52.5081 52.5081 59 44.5 59H19.5C11.4919 59 5 52.5081 5 44.5V19.5C5 11.4919 11.4919 5 19.5 5Z" fill="#232323" stroke="url(#paint1_linear_4_13745)"/>
<path d="M26.7586 35.1775L28.4358 29.9824C29.6472 26.1325 30.7652 22.468 31.8368 18.4787H32.0231C33.1413 22.4214 34.2128 26.1322 35.4707 29.9824L37.1013 35.1775H26.7586ZM41.4338 49.0002H45.9996L34.3991 14.9998H29.6005L18 49.0002H22.3794L25.6873 38.61H38.1727L41.4338 49.0002Z" fill="url(#paint2_linear_4_13745)"/>
</g>
<defs>
<filter id="filter0_f_4_13745" x="3.2625" y="3.2625" width="57.475" height="57.475" filterUnits="userSpaceOnUse" color-interpolation-filters="sRGB">
<feFlood flood-opacity="0" result="BackgroundImageFix"/>
<feBlend mode="normal" in="SourceGraphic" in2="BackgroundImageFix" result="shape"/>
<feGaussianBlur stdDeviation="0.61875" result="effect1_foregroundBlur_4_13745"/>
</filter>
<linearGradient id="paint0_linear_4_13745" x1="4.5" y1="32" x2="59.5" y2="32" gradientUnits="userSpaceOnUse">
<stop stop-color="#FDFC47"/>
<stop offset="1" stop-color="#24FE41"/>
</linearGradient>
<linearGradient id="paint1_linear_4_13745" x1="4.5" y1="32" x2="59.5" y2="32" gradientUnits="userSpaceOnUse">
<stop stop-color="#FDFC47"/>
<stop offset="1" stop-color="#24FE41"/>
</linearGradient>
<linearGradient id="paint2_linear_4_13745" x1="18" y1="32" x2="45.9996" y2="32" gradientUnits="userSpaceOnUse">
<stop stop-color="#FDFC47"/>
<stop offset="1" stop-color="#24FE41"/>
</linearGradient>
<clipPath id="clip0_4_13745">
<rect width="64" height="64" fill="white"/>
</clipPath>
</defs>
</svg>
