<svg width="64" height="64" viewBox="0 0 64 64" fill="none" xmlns="http://www.w3.org/2000/svg">
<g opacity="0.3" filter="url(#filter0_f_4_13038)">
<path d="M46.4983 4.50003H17.5021C10.3212 4.50003 4.5 10.3213 4.5 17.5021V46.4983C4.5 53.6792 10.3212 59.5004 17.5021 59.5004H46.4983C53.6792 59.5004 59.5004 53.6792 59.5004 46.4983V17.5021C59.5004 10.3213 53.6792 4.50003 46.4983 4.50003Z" fill="#232323"/>
<path d="M17.5021 5.00003H46.4983C53.403 5.00003 59.0004 10.5974 59.0004 17.5021V46.4983C59.0004 53.403 53.403 59.0004 46.4983 59.0004H17.5021C10.5974 59.0004 5 53.403 5 46.4983V17.5021C5 10.5974 10.5974 5.00003 17.5021 5.00003Z" stroke="url(#paint0_linear_4_13038)"/>
</g>
<path d="M5 17.5024C5 10.5754 10.5752 5.00021 17.5022 5.00021H46.4989C53.426 5.00021 59.0011 10.5754 59.0011 17.5024V46.4991C59.0011 53.4262 53.426 59.0014 46.4989 59.0014H17.5022C10.5752 59.0014 5 53.4262 5 46.4991V17.5024Z" fill="#232323" stroke="url(#paint1_linear_4_13038)"/>
<path d="M11 18.3385C11 14.2726 14.2723 11.0003 18.3381 11.0003H45.6628C49.7287 11.0003 53.0009 14.2726 53.0009 18.3385V45.6631C53.0009 49.729 49.7286 53.0012 45.6628 53.0012H18.3381C14.2722 53.0012 11 49.729 11 45.6631V18.3385Z" fill="#232323" stroke="url(#paint2_linear_4_13038)"/>
<g opacity="0.6">
<mask id="path-5-inside-1_4_13038" fill="white">
<path d="M15.5709 25.9666C15.5495 26.1165 15.5362 26.2728 15.5156 26.4263H48.479C48.4598 26.2728 48.4454 26.1164 48.4216 25.9666H15.5709Z"/>
</mask>
<path d="M15.5709 25.9666C15.5495 26.1165 15.5362 26.2728 15.5156 26.4263H48.479C48.4598 26.2728 48.4454 26.1164 48.4216 25.9666H15.5709Z" fill="#232323"/>
<path d="M15.5709 25.9666V24.9666H14.7037L14.581 25.8251L15.5709 25.9666ZM15.5156 26.4263L14.5245 26.2935L14.3727 27.4263H15.5156V26.4263ZM48.479 26.4263V27.4263H49.6124L49.4713 26.3018L48.479 26.4263ZM48.4216 25.9666L49.4092 25.8096L49.2751 24.9666H48.4216V25.9666ZM14.581 25.8251C14.5678 25.9174 14.5576 26.0083 14.5491 26.0845C14.5401 26.1655 14.533 26.2303 14.5245 26.2935L16.5068 26.5592C16.5189 26.4688 16.5287 26.3787 16.5368 26.3057C16.5455 26.2279 16.5526 26.1657 16.5608 26.1082L14.581 25.8251ZM15.5156 27.4263H48.479V25.4263H15.5156V27.4263ZM49.4713 26.3018C49.458 26.1965 49.4359 25.9778 49.4092 25.8096L47.434 26.1237C47.4549 26.2549 47.4615 26.3491 47.4868 26.5509L49.4713 26.3018ZM48.4216 24.9666H15.5709V26.9666H48.4216V24.9666Z" fill="url(#paint3_linear_4_13038)" mask="url(#path-5-inside-1_4_13038)"/>
</g>
<g opacity="0.6">
<mask id="path-7-inside-2_4_13038" fill="white">
<path d="M16.1133 15.9794C16.1324 16.133 16.1506 16.2862 16.1718 16.4391H47.8305C47.8501 16.2739 47.8672 16.1424 47.8848 15.9794H16.1133Z"/>
</mask>
<path d="M16.1133 15.9794C16.1324 16.133 16.1506 16.2862 16.1718 16.4391H47.8305C47.8501 16.2739 47.8672 16.1424 47.8848 15.9794H16.1133Z" fill="#232323"/>
<path d="M16.1133 15.9794V14.9794H14.9813L15.1209 16.1028L16.1133 15.9794ZM16.1718 16.4391L15.1813 16.5765L15.3009 17.4391H16.1718V16.4391ZM47.8305 16.4391V17.4391H48.7186L48.8235 16.5573L47.8305 16.4391ZM47.8848 15.9794L48.879 16.087L48.9989 14.9794H47.8848V15.9794ZM15.1209 16.1028C15.1391 16.2491 15.1588 16.4143 15.1813 16.5765L17.1623 16.3017C17.1424 16.1581 17.1256 16.0168 17.1056 15.856L15.1209 16.1028ZM16.1718 17.4391H47.8305V15.4391H16.1718V17.4391ZM48.8235 16.5573C48.8418 16.4037 48.8606 16.2567 48.879 16.087L46.8906 15.8718C46.8737 16.0281 46.8585 16.1441 46.8375 16.321L48.8235 16.5573ZM47.8848 14.9794H16.1133V16.9794H47.8848V14.9794Z" fill="url(#paint4_linear_4_13038)" mask="url(#path-7-inside-2_4_13038)"/>
</g>
<g opacity="0.6">
<mask id="path-9-inside-3_4_13038" fill="white">
<path d="M15.5709 35.9538C15.5495 36.1037 15.5362 36.26 15.5156 36.4135H48.479C48.4598 36.26 48.4454 36.1036 48.4216 35.9538H15.5709Z"/>
</mask>
<path d="M15.5709 35.9538C15.5495 36.1037 15.5362 36.26 15.5156 36.4135H48.479C48.4598 36.26 48.4454 36.1036 48.4216 35.9538H15.5709Z" fill="#232323"/>
<path d="M15.5709 35.9538V34.9538H14.7037L14.581 35.8123L15.5709 35.9538ZM15.5156 36.4135L14.5245 36.2807L14.3727 37.4135H15.5156V36.4135ZM48.479 36.4135V37.4135H49.6124L49.4713 36.289L48.479 36.4135ZM48.4216 35.9538L49.4092 35.7968L49.2751 34.9538H48.4216V35.9538ZM14.581 35.8123C14.5678 35.9046 14.5576 35.9955 14.5491 36.0717C14.5401 36.1527 14.533 36.2175 14.5245 36.2807L16.5068 36.5464C16.5189 36.456 16.5287 36.3659 16.5368 36.2929C16.5455 36.2151 16.5526 36.1529 16.5608 36.0954L14.581 35.8123ZM15.5156 37.4135H48.479V35.4135H15.5156V37.4135ZM49.4713 36.289C49.458 36.1837 49.4359 35.965 49.4092 35.7968L47.434 36.1109C47.4549 36.2421 47.4615 36.3363 47.4868 36.5381L49.4713 36.289ZM48.4216 34.9538H15.5709V36.9538H48.4216V34.9538Z" fill="url(#paint5_linear_4_13038)" mask="url(#path-9-inside-3_4_13038)"/>
</g>
<g opacity="0.6">
<mask id="path-11-inside-4_4_13038" fill="white">
<path d="M15.5709 45.9395C15.5495 46.0894 15.5362 46.2457 15.5156 46.3993H48.479C48.4598 46.2457 48.4454 46.0893 48.4216 45.9395H15.5709Z"/>
</mask>
<path d="M15.5709 45.9395C15.5495 46.0894 15.5362 46.2457 15.5156 46.3993H48.479C48.4598 46.2457 48.4454 46.0893 48.4216 45.9395H15.5709Z" fill="#232323"/>
<path d="M15.5709 45.9395V44.9395H14.7037L14.581 45.798L15.5709 45.9395ZM15.5156 46.3993L14.5245 46.2664L14.3727 47.3993H15.5156V46.3993ZM48.479 46.3993V47.3993H49.6124L49.4713 46.2747L48.479 46.3993ZM48.4216 45.9395L49.4092 45.7825L49.2751 44.9395H48.4216V45.9395ZM14.581 45.798C14.5678 45.8903 14.5576 45.9812 14.5491 46.0574C14.5401 46.1384 14.533 46.2032 14.5245 46.2664L16.5068 46.5321C16.5189 46.4417 16.5287 46.3516 16.5368 46.2786C16.5455 46.2008 16.5526 46.1386 16.5608 46.0811L14.581 45.798ZM15.5156 47.3993H48.479V45.3993H15.5156V47.3993ZM49.4713 46.2747C49.458 46.1694 49.4359 45.9507 49.4092 45.7825L47.434 46.0966C47.4549 46.2278 47.4615 46.322 47.4868 46.5238L49.4713 46.2747ZM48.4216 44.9395H15.5709V46.9395H48.4216V44.9395Z" fill="url(#paint6_linear_4_13038)" mask="url(#path-11-inside-4_4_13038)"/>
</g>
<path opacity="0.8" d="M5.58809 13.891L5.58809 13.8909C7.13918 8.74563 11.8413 5.00021 17.4982 5.00021L22.0804 5.00026H24.4632C24.8808 5.00026 25.5123 5.20346 25.8554 5.63413L25.8553 5.63423L25.8636 5.64406L25.8636 5.64408C25.8638 5.64436 25.8667 5.64791 25.8722 5.65587C25.8781 5.66435 25.8858 5.67607 25.8953 5.69158C25.9145 5.72295 25.9377 5.76456 25.9651 5.81749C26.0199 5.92365 26.0842 6.06208 26.1568 6.23005C26.302 6.56561 26.4714 6.9974 26.6538 7.48087C26.8543 8.01232 27.0606 8.57909 27.2646 9.13982C27.4391 9.6192 27.6119 10.0942 27.7782 10.5389L27.778 10.5389L27.7826 10.5503C28.2222 11.6435 28.7022 12.6172 29.2938 13.4281C29.8885 14.2431 30.5985 14.8986 31.4888 15.3458L31.4888 15.3458C32.3783 15.7926 33.42 16.0182 34.6625 16.0182H56.9852C58.1034 16.0182 59.0028 16.9177 59.0028 18.0358V28.2722C59.0018 28.279 59.0001 28.291 58.9987 28.3028C58.9967 28.3192 58.9944 28.3418 58.9934 28.3682L58.993 28.3778V28.3875V32.2998V32.7998H59.0009V46.499C59.0009 52.9822 54.1178 58.2789 47.8143 58.9317L47.8142 58.9317C47.3809 58.9766 46.9418 59.0013 46.4986 59.0013H46.4948H17.5101C17.5086 59.0011 17.5066 59.001 17.5044 59.0008C17.4994 59.0003 17.4928 58.9998 17.486 58.9993C17.4739 58.9985 17.4575 58.9976 17.4384 58.9975C17.0128 58.9954 16.5933 58.9745 16.1828 58.9318L16.1311 59.4291L16.1828 58.9318C10.2074 58.3112 5.51865 53.5136 5.04927 47.4917L5.04935 47.4917L5.04851 47.4829C5.01703 47.154 4.99609 46.8281 4.99609 46.4993V17.5026C4.99609 16.2505 5.23636 15.0576 5.58809 13.891ZM17.4983 59.0013C17.4997 59.0013 17.501 59.0013 17.5022 59.0013H17.4983Z" fill="#232323" stroke="url(#paint7_linear_4_13038)"/>
<path d="M36.4048 26.0384C36.4048 28.4715 34.4324 30.444 31.9993 30.444C29.5662 30.444 27.5938 28.4715 27.5938 26.0384C27.5938 23.6053 29.5662 21.6329 31.9993 21.6329C34.4324 21.6329 36.4048 23.6053 36.4048 26.0384Z" fill="#232323" stroke="url(#paint8_linear_4_13038)"/>
<path d="M34.1965 26.0384C34.1965 27.2512 33.2134 28.2343 32.0006 28.2343C30.7878 28.2343 29.8047 27.2512 29.8047 26.0384C29.8047 24.8256 30.7878 23.8425 32.0006 23.8425C33.2134 23.8425 34.1965 24.8256 34.1965 26.0384Z" fill="#232323" stroke="url(#paint9_linear_4_13038)"/>
<path d="M32.615 26.0384C32.615 26.3776 32.3401 26.6526 32.0009 26.6526C31.6617 26.6526 31.3867 26.3776 31.3867 26.0384C31.3867 25.6992 31.6617 25.4243 32.0009 25.4243C32.3401 25.4243 32.615 25.6992 32.615 26.0384Z" fill="url(#paint10_linear_4_13038)" stroke="url(#paint11_linear_4_13038)"/>
<defs>
<filter id="filter0_f_4_13038" x="2.29998" y="2.30001" width="59.4" height="59.4004" filterUnits="userSpaceOnUse" color-interpolation-filters="sRGB">
<feFlood flood-opacity="0" result="BackgroundImageFix"/>
<feBlend mode="normal" in="SourceGraphic" in2="BackgroundImageFix" result="shape"/>
<feGaussianBlur stdDeviation="1.10001" result="effect1_foregroundBlur_4_13038"/>
</filter>
<linearGradient id="paint0_linear_4_13038" x1="4.5" y1="32.0002" x2="59.5004" y2="32.0002" gradientUnits="userSpaceOnUse">
<stop stop-color="#FDFC47"/>
<stop offset="1" stop-color="#24FE41"/>
</linearGradient>
<linearGradient id="paint1_linear_4_13038" x1="4.5" y1="32.0008" x2="59.5011" y2="32.0008" gradientUnits="userSpaceOnUse">
<stop stop-color="#FDFC47"/>
<stop offset="1" stop-color="#24FE41"/>
</linearGradient>
<linearGradient id="paint2_linear_4_13038" x1="10.5" y1="32.0008" x2="53.5009" y2="32.0008" gradientUnits="userSpaceOnUse">
<stop stop-color="#FDFC47"/>
<stop offset="1" stop-color="#24FE41"/>
</linearGradient>
<linearGradient id="paint3_linear_4_13038" x1="15.5156" y1="26.1965" x2="48.479" y2="26.1965" gradientUnits="userSpaceOnUse">
<stop stop-color="#FDFC47"/>
<stop offset="1" stop-color="#24FE41"/>
</linearGradient>
<linearGradient id="paint4_linear_4_13038" x1="16.1133" y1="16.2093" x2="47.8848" y2="16.2093" gradientUnits="userSpaceOnUse">
<stop stop-color="#FDFC47"/>
<stop offset="1" stop-color="#24FE41"/>
</linearGradient>
<linearGradient id="paint5_linear_4_13038" x1="15.5156" y1="36.1837" x2="48.479" y2="36.1837" gradientUnits="userSpaceOnUse">
<stop stop-color="#FDFC47"/>
<stop offset="1" stop-color="#24FE41"/>
</linearGradient>
<linearGradient id="paint6_linear_4_13038" x1="15.5156" y1="46.1694" x2="48.479" y2="46.1694" gradientUnits="userSpaceOnUse">
<stop stop-color="#FDFC47"/>
<stop offset="1" stop-color="#24FE41"/>
</linearGradient>
<linearGradient id="paint7_linear_4_13038" x1="4.49609" y1="32.0007" x2="59.5028" y2="32.0007" gradientUnits="userSpaceOnUse">
<stop stop-color="#FDFC47"/>
<stop offset="1" stop-color="#24FE41"/>
</linearGradient>
<linearGradient id="paint8_linear_4_13038" x1="27.0938" y1="26.0384" x2="36.9048" y2="26.0384" gradientUnits="userSpaceOnUse">
<stop stop-color="#FDFC47"/>
<stop offset="1" stop-color="#24FE41"/>
</linearGradient>
<linearGradient id="paint9_linear_4_13038" x1="29.3047" y1="26.0384" x2="34.6965" y2="26.0384" gradientUnits="userSpaceOnUse">
<stop stop-color="#FDFC47"/>
<stop offset="1" stop-color="#24FE41"/>
</linearGradient>
<linearGradient id="paint10_linear_4_13038" x1="30.8867" y1="26.0384" x2="33.115" y2="26.0384" gradientUnits="userSpaceOnUse">
<stop stop-color="#FDFC47"/>
<stop offset="1" stop-color="#24FE41"/>
</linearGradient>
<linearGradient id="paint11_linear_4_13038" x1="30.8867" y1="26.0384" x2="33.115" y2="26.0384" gradientUnits="userSpaceOnUse">
<stop stop-color="#FDFC47"/>
<stop offset="1" stop-color="#24FE41"/>
</linearGradient>
</defs>
</svg>
