<svg width="64" height="64" viewBox="0 0 64 64" fill="none" xmlns="http://www.w3.org/2000/svg">
<g opacity="0.3" filter="url(#filter0_f_4_12994)">
<path d="M44.5 4.5H19.5C11.2157 4.5 4.5 11.2157 4.5 19.5V44.5C4.5 52.7843 11.2157 59.5 19.5 59.5H44.5C52.7843 59.5 59.5 52.7843 59.5 44.5V19.5C59.5 11.2157 52.7843 4.5 44.5 4.5Z" fill="#232323"/>
<path d="M19.5 5H44.5C52.5081 5 59 11.4919 59 19.5V44.5C59 52.5081 52.5081 59 44.5 59H19.5C11.4919 59 5 52.5081 5 44.5V19.5C5 11.4919 11.4919 5 19.5 5Z" stroke="url(#paint0_linear_4_12994)"/>
</g>
<path d="M19.5 5H44.5C52.5081 5 59 11.4919 59 19.5V44.5C59 52.5081 52.5081 59 44.5 59H19.5C11.4919 59 5 52.5081 5 44.5V19.5C5 11.4919 11.4919 5 19.5 5Z" fill="#232323" stroke="url(#paint1_linear_4_12994)"/>
<path d="M20.1281 10H43.8719C49.4655 10 54 14.5345 54 20.1281V43.8719C54 49.4655 49.4655 54 43.8719 54H20.1281C14.5345 54 10 49.4655 10 43.8719V20.1281C10 14.5345 14.5345 10 20.1281 10Z" fill="#232323" stroke="url(#paint2_linear_4_12994)"/>
<mask id="path-5-inside-1_4_12994" fill="white">
<path d="M15.5437 26.7771C15.5222 26.927 15.5089 27.0833 15.4883 27.2368H48.5135C48.494 27.0833 48.4797 26.9269 48.4559 26.7771H15.5437Z"/>
</mask>
<path d="M15.5437 26.7771C15.5222 26.927 15.5089 27.0833 15.4883 27.2368H48.5135C48.494 27.0833 48.4797 26.9269 48.4559 26.7771H15.5437Z" fill="#232323"/>
<path d="M15.5437 26.7771V25.7771H14.6768L14.5538 26.6352L15.5437 26.7771ZM15.4883 27.2368L14.4972 27.1038L14.3451 28.2368H15.4883V27.2368ZM48.5135 27.2368V28.2368H49.6482L49.5055 27.1111L48.5135 27.2368ZM48.4559 26.7771L49.4436 26.6204L49.3098 25.7771H48.4559V26.7771ZM14.5538 26.6352C14.5405 26.7276 14.5303 26.8186 14.5218 26.8948C14.5128 26.9758 14.5056 27.0406 14.4972 27.1038L16.4794 27.3698C16.4915 27.2795 16.5013 27.1894 16.5095 27.1164C16.5182 27.0386 16.5253 26.9765 16.5335 26.919L14.5538 26.6352ZM15.4883 28.2368H48.5135V26.2368H15.4883V28.2368ZM49.5055 27.1111C49.4926 27.0088 49.4699 26.7865 49.4436 26.6204L47.4683 26.9338C47.4895 27.0672 47.4955 27.1578 47.5214 27.3626L49.5055 27.1111ZM48.4559 25.7771H15.5437V27.7771H48.4559V25.7771Z" fill="url(#paint3_linear_4_12994)" mask="url(#path-5-inside-1_4_12994)"/>
<mask id="path-7-inside-2_4_12994" fill="white">
<path d="M16.0859 16.79C16.1051 16.9436 16.1233 17.0968 16.1446 17.2497H47.8624C47.8823 17.0845 47.8991 16.9531 47.9168 16.79H16.0859Z"/>
</mask>
<path d="M16.0859 16.79C16.1051 16.9436 16.1233 17.0968 16.1446 17.2497H47.8624C47.8823 17.0845 47.8991 16.9531 47.9168 16.79H16.0859Z" fill="#232323"/>
<path d="M16.0859 16.79V15.79H14.9536L15.0936 16.9137L16.0859 16.79ZM16.1446 17.2497L15.1541 17.3874L15.274 18.2497H16.1446V17.2497ZM47.8624 17.2497V18.2497H48.7496L48.8553 17.3689L47.8624 17.2497ZM47.9168 16.79L48.911 16.8979L49.0313 15.79H47.9168V16.79ZM15.0936 16.9137C15.1118 17.0597 15.1315 17.2252 15.1541 17.3874L17.135 17.112C17.1151 16.9684 17.0983 16.8274 17.0783 16.6664L15.0936 16.9137ZM16.1446 18.2497H47.8624V16.2497H16.1446V18.2497ZM48.8553 17.3689C48.874 17.2128 48.8925 17.0685 48.911 16.8979L46.9227 16.6821C46.9058 16.8377 46.8905 16.9563 46.8696 17.1305L48.8553 17.3689ZM47.9168 15.79H16.0859V17.79H47.9168V15.79Z" fill="url(#paint4_linear_4_12994)" mask="url(#path-7-inside-2_4_12994)"/>
<mask id="path-9-inside-3_4_12994" fill="white">
<path d="M15.5437 36.7642C15.5222 36.914 15.5089 37.0703 15.4883 37.2239H48.5135C48.494 37.0703 48.4797 36.9139 48.4559 36.7642H15.5437Z"/>
</mask>
<path d="M15.5437 36.7642C15.5222 36.914 15.5089 37.0703 15.4883 37.2239H48.5135C48.494 37.0703 48.4797 36.9139 48.4559 36.7642H15.5437Z" fill="#232323"/>
<path d="M15.5437 36.7642V35.7642H14.6768L14.5538 36.6223L15.5437 36.7642ZM15.4883 37.2239L14.4972 37.0909L14.3451 38.2239H15.4883V37.2239ZM48.5135 37.2239V38.2239H49.6482L49.5055 37.0981L48.5135 37.2239ZM48.4559 36.7642L49.4436 36.6075L49.3098 35.7642H48.4559V36.7642ZM14.5538 36.6223C14.5405 36.7146 14.5303 36.8056 14.5218 36.8818C14.5128 36.9628 14.5056 37.0277 14.4972 37.0909L16.4794 37.3569C16.4915 37.2665 16.5013 37.1764 16.5095 37.1034C16.5182 37.0256 16.5253 36.9635 16.5335 36.9061L14.5538 36.6223ZM15.4883 38.2239H48.5135V36.2239H15.4883V38.2239ZM49.5055 37.0981C49.4926 36.9958 49.4699 36.7736 49.4436 36.6075L47.4683 36.9209C47.4895 37.0542 47.4955 37.1448 47.5214 37.3496L49.5055 37.0981ZM48.4559 35.7642H15.5437V37.7642H48.4559V35.7642Z" fill="url(#paint5_linear_4_12994)" mask="url(#path-9-inside-3_4_12994)"/>
<mask id="path-11-inside-4_4_12994" fill="white">
<path d="M15.5437 46.7502C15.5222 46.9001 15.5089 47.0564 15.4883 47.21H48.5135C48.494 47.0564 48.4797 46.9 48.4559 46.7502H15.5437Z"/>
</mask>
<path d="M15.5437 46.7502C15.5222 46.9001 15.5089 47.0564 15.4883 47.21H48.5135C48.494 47.0564 48.4797 46.9 48.4559 46.7502H15.5437Z" fill="#232323"/>
<path d="M15.5437 46.7502V45.7502H14.6768L14.5538 46.6083L15.5437 46.7502ZM15.4883 47.21L14.4972 47.077L14.3451 48.21H15.4883V47.21ZM48.5135 47.21V48.21H49.6482L49.5056 47.0842L48.5135 47.21ZM48.4559 46.7502L49.4436 46.5936L49.3098 45.7502H48.4559V46.7502ZM14.5538 46.6083C14.5405 46.7007 14.5303 46.7917 14.5218 46.8679C14.5128 46.9489 14.5056 47.0138 14.4972 47.077L16.4794 47.343C16.4915 47.2526 16.5013 47.1625 16.5095 47.0895C16.5182 47.0117 16.5253 46.9496 16.5335 46.8921L14.5538 46.6083ZM15.4883 48.21H48.5135V46.21H15.4883V48.21ZM49.5056 47.0842C49.4926 46.9819 49.47 46.7597 49.4436 46.5936L47.4683 46.9069C47.4894 47.0403 47.4955 47.1309 47.5214 47.3357L49.5056 47.0842ZM48.4559 45.7502H15.5437V47.7502H48.4559V45.7502Z" fill="url(#paint6_linear_4_12994)" mask="url(#path-11-inside-4_4_12994)"/>
<path opacity="0.8" d="M59 32.7988V44.5C59 52.5339 52.5339 59 44.5 59H19.5C11.4661 59 5 52.5339 5 44.5V19.5C5 11.4661 11.4661 5 19.5 5H22.082H24.4648C24.8824 5 25.5139 5.20318 25.857 5.63384L25.8569 5.63394L25.8652 5.64382C25.8649 5.64347 25.8678 5.64691 25.8738 5.6556C25.8797 5.66407 25.8874 5.67579 25.8969 5.6913C25.916 5.72267 25.9393 5.76427 25.9666 5.8172C26.0215 5.92335 26.0857 6.06177 26.1584 6.22973C26.3036 6.56527 26.473 6.99704 26.6554 7.48049C26.8559 8.012 27.0622 8.57889 27.2663 9.13974C27.4407 9.61899 27.6135 10.0938 27.7797 10.5384L27.7796 10.5384L27.7841 10.5498C28.2237 11.643 28.7036 12.6166 29.2953 13.4275C29.8897 14.2422 30.5978 14.8978 31.4884 15.3452L31.4885 15.3452C32.3779 15.792 33.4196 16.0176 34.6621 16.0176H42.6699H43.0781H54.6621H56.9844C57.783 16.0176 58.4679 16.4782 58.7952 17.1511C58.9211 17.923 59 18.7036 59 19.5V28.2814L58.9995 28.2852C58.9977 28.2995 58.9937 28.3311 58.9924 28.3679L58.992 28.3773V28.3867V28.7305V32.2988V32.7988H59Z" fill="#232323" stroke="url(#paint7_linear_4_12994)"/>
<path d="M36.4048 26.9212C36.4048 29.3543 34.4324 31.3267 31.9993 31.3267C29.5662 31.3267 27.5938 29.3543 27.5938 26.9212C27.5938 24.4881 29.5662 22.5156 31.9993 22.5156C34.4324 22.5156 36.4048 24.4881 36.4048 26.9212Z" fill="#232323" stroke="url(#paint8_linear_4_12994)"/>
<path d="M34.1965 26.9212C34.1965 28.1339 33.2133 29.117 32.0006 29.117C30.7878 29.117 29.8047 28.1339 29.8047 26.9212C29.8047 25.7084 30.7878 24.7253 32.0006 24.7253C33.2133 24.7253 34.1965 25.7084 34.1965 26.9212Z" fill="#232323" stroke="url(#paint9_linear_4_12994)"/>
<path d="M32.6149 26.9212C32.6149 27.2603 32.34 27.5353 32.0008 27.5353C31.6617 27.5353 31.3867 27.2603 31.3867 26.9212C31.3867 26.582 31.6617 26.3071 32.0008 26.3071C32.34 26.3071 32.6149 26.582 32.6149 26.9212Z" fill="url(#paint10_linear_4_12994)" stroke="url(#paint11_linear_4_12994)"/>
<defs>
<filter id="filter0_f_4_12994" x="3.2625" y="3.2625" width="57.475" height="57.475" filterUnits="userSpaceOnUse" color-interpolation-filters="sRGB">
<feFlood flood-opacity="0" result="BackgroundImageFix"/>
<feBlend mode="normal" in="SourceGraphic" in2="BackgroundImageFix" result="shape"/>
<feGaussianBlur stdDeviation="0.61875" result="effect1_foregroundBlur_4_12994"/>
</filter>
<linearGradient id="paint0_linear_4_12994" x1="4.5" y1="32" x2="59.5" y2="32" gradientUnits="userSpaceOnUse">
<stop stop-color="#FDFC47"/>
<stop offset="1" stop-color="#24FE41"/>
</linearGradient>
<linearGradient id="paint1_linear_4_12994" x1="4.5" y1="32" x2="59.5" y2="32" gradientUnits="userSpaceOnUse">
<stop stop-color="#FDFC47"/>
<stop offset="1" stop-color="#24FE41"/>
</linearGradient>
<linearGradient id="paint2_linear_4_12994" x1="9.5" y1="32" x2="54.5" y2="32" gradientUnits="userSpaceOnUse">
<stop stop-color="#FDFC47"/>
<stop offset="1" stop-color="#24FE41"/>
</linearGradient>
<linearGradient id="paint3_linear_4_12994" x1="15.4883" y1="27.007" x2="48.5135" y2="27.007" gradientUnits="userSpaceOnUse">
<stop stop-color="#FDFC47"/>
<stop offset="1" stop-color="#24FE41"/>
</linearGradient>
<linearGradient id="paint4_linear_4_12994" x1="16.0859" y1="17.0199" x2="47.9168" y2="17.0199" gradientUnits="userSpaceOnUse">
<stop stop-color="#FDFC47"/>
<stop offset="1" stop-color="#24FE41"/>
</linearGradient>
<linearGradient id="paint5_linear_4_12994" x1="15.4883" y1="36.994" x2="48.5135" y2="36.994" gradientUnits="userSpaceOnUse">
<stop stop-color="#FDFC47"/>
<stop offset="1" stop-color="#24FE41"/>
</linearGradient>
<linearGradient id="paint6_linear_4_12994" x1="15.4883" y1="46.9801" x2="48.5135" y2="46.9801" gradientUnits="userSpaceOnUse">
<stop stop-color="#FDFC47"/>
<stop offset="1" stop-color="#24FE41"/>
</linearGradient>
<linearGradient id="paint7_linear_4_12994" x1="4.5" y1="32" x2="59.5" y2="32" gradientUnits="userSpaceOnUse">
<stop stop-color="#FDFC47"/>
<stop offset="1" stop-color="#24FE41"/>
</linearGradient>
<linearGradient id="paint8_linear_4_12994" x1="27.0938" y1="26.9212" x2="36.9048" y2="26.9212" gradientUnits="userSpaceOnUse">
<stop stop-color="#FDFC47"/>
<stop offset="1" stop-color="#24FE41"/>
</linearGradient>
<linearGradient id="paint9_linear_4_12994" x1="29.3047" y1="26.9212" x2="34.6965" y2="26.9212" gradientUnits="userSpaceOnUse">
<stop stop-color="#FDFC47"/>
<stop offset="1" stop-color="#24FE41"/>
</linearGradient>
<linearGradient id="paint10_linear_4_12994" x1="30.8867" y1="26.9212" x2="33.1149" y2="26.9212" gradientUnits="userSpaceOnUse">
<stop stop-color="#FDFC47"/>
<stop offset="1" stop-color="#24FE41"/>
</linearGradient>
<linearGradient id="paint11_linear_4_12994" x1="30.8867" y1="26.9212" x2="33.1149" y2="26.9212" gradientUnits="userSpaceOnUse">
<stop stop-color="#FDFC47"/>
<stop offset="1" stop-color="#24FE41"/>
</linearGradient>
</defs>
</svg>
