<svg width="64" height="64" viewBox="0 0 64 64" fill="none" xmlns="http://www.w3.org/2000/svg">
<g clip-path="url(#clip0_4_12558)">
<g opacity="0.3" filter="url(#filter0_f_4_12558)">
<path d="M44.5 4.5H19.5C11.2157 4.5 4.5 11.2157 4.5 19.5V44.5C4.5 52.7843 11.2157 59.5 19.5 59.5H44.5C52.7843 59.5 59.5 52.7843 59.5 44.5V19.5C59.5 11.2157 52.7843 4.5 44.5 4.5Z" fill="url(#paint0_linear_4_12558)"/>
</g>
<path d="M19.5 5H44.5C52.5081 5 59 11.4919 59 19.5V44.5C59 52.5081 52.5081 59 44.5 59H19.5C11.4919 59 5 52.5081 5 44.5V19.5C5 11.4919 11.4919 5 19.5 5Z" fill="#232323" stroke="url(#paint1_linear_4_12558)"/>
<path d="M34.1561 28.028C51.5501 24.6705 52.2191 17.084 52.2191 17.084C52.2191 17.084 50.8493 40.594 38.1371 41.838C22.0281 43.4143 19.6211 51.0138 19.6211 51.0138C19.6211 51.0138 23.9291 30.002 34.1561 28.028Z" fill="url(#paint2_linear_4_12558)"/>
<path d="M23.6602 26.991C38.3992 20.7489 37.0492 10.566 37.0492 10.566C37.0492 10.566 45.1866 31.339 32.9876 36.182C19.3596 41.5921 19.9666 50.833 19.9666 50.833C19.9666 50.833 15.0041 30.656 23.6604 26.99L23.6602 26.991Z" fill="url(#paint3_linear_4_12558)"/>
<path d="M14.9785 32.513C23.2593 21.594 21.3966 13.935 21.3966 13.935C21.3966 13.935 32.0056 27.238 24.7866 35.478C16.7218 44.6826 20.2341 51.086 20.2341 51.086C20.2341 51.086 10.2291 38.775 14.9784 32.512L14.9785 32.513Z" fill="url(#paint4_linear_4_12558)"/>
</g>
<defs>
<filter id="filter0_f_4_12558" x="3.2625" y="3.2625" width="57.475" height="57.475" filterUnits="userSpaceOnUse" color-interpolation-filters="sRGB">
<feFlood flood-opacity="0" result="BackgroundImageFix"/>
<feBlend mode="normal" in="SourceGraphic" in2="BackgroundImageFix" result="shape"/>
<feGaussianBlur stdDeviation="0.61875" result="effect1_foregroundBlur_4_12558"/>
</filter>
<linearGradient id="paint0_linear_4_12558" x1="4.5" y1="32" x2="59.5" y2="32" gradientUnits="userSpaceOnUse">
<stop stop-color="#FDFC47"/>
<stop offset="1" stop-color="#24FE41"/>
</linearGradient>
<linearGradient id="paint1_linear_4_12558" x1="4.5" y1="32" x2="59.5" y2="32" gradientUnits="userSpaceOnUse">
<stop stop-color="#FDFC47"/>
<stop offset="1" stop-color="#24FE41"/>
</linearGradient>
<linearGradient id="paint2_linear_4_12558" x1="19.6211" y1="34.0489" x2="52.2191" y2="34.0489" gradientUnits="userSpaceOnUse">
<stop stop-color="#FDFC47"/>
<stop offset="1" stop-color="#24FE41"/>
</linearGradient>
<linearGradient id="paint3_linear_4_12558" x1="18.5508" y1="30.6995" x2="39.7076" y2="30.6995" gradientUnits="userSpaceOnUse">
<stop stop-color="#FDFC47"/>
<stop offset="1" stop-color="#24FE41"/>
</linearGradient>
<linearGradient id="paint4_linear_4_12558" x1="13.6992" y1="32.5105" x2="27.303" y2="32.5105" gradientUnits="userSpaceOnUse">
<stop stop-color="#FDFC47"/>
<stop offset="1" stop-color="#24FE41"/>
</linearGradient>
<clipPath id="clip0_4_12558">
<rect width="64" height="64" fill="white"/>
</clipPath>
</defs>
</svg>
