<svg width="64" height="64" viewBox="0 0 64 64" fill="none" xmlns="http://www.w3.org/2000/svg">
<g clip-path="url(#clip0_4_12495)">
<g opacity="0.3" filter="url(#filter0_f_4_12495)">
<path d="M44.5 4.49979H19.5C11.2157 4.49979 4.5 11.2155 4.5 19.4998V44.4998C4.5 52.7841 11.2157 59.4998 19.5 59.4998H44.5C52.7843 59.4998 59.5 52.7841 59.5 44.4998V19.4998C59.5 11.2155 52.7843 4.49979 44.5 4.49979Z" fill="url(#paint0_linear_4_12495)"/>
</g>
<path d="M19.5 4.9996H44.501C52.5091 4.9996 59.001 11.4915 59.001 19.4996V44.5006C59.001 52.5087 52.5091 59.0006 44.501 59.0006H19.5C11.4919 59.0006 5 52.5087 5 44.5006V19.4996C5 11.4915 11.4919 4.9996 19.5 4.9996Z" fill="#232323" stroke="url(#paint1_linear_4_12495)"/>
<path d="M32 23.5C29.7457 23.5 27.5837 24.3955 25.9896 25.9896C24.3955 27.5837 23.5 29.7457 23.5 32C23.5 34.2543 24.3955 36.4163 25.9896 38.0104C27.5837 39.6045 29.7457 40.5 32 40.5C34.2543 40.5 36.4163 39.6045 38.0104 38.0104C39.6045 36.4163 40.5 34.2543 40.5 32C40.5 29.7457 39.6045 27.5837 38.0104 25.9896C36.4163 24.3955 34.2543 23.5 32 23.5ZM32 26.3333C33.5029 26.3333 34.9442 26.9303 36.007 27.993C37.0697 29.0558 37.6667 30.4971 37.6667 32C37.6667 33.5029 37.0697 34.9442 36.007 36.007C34.9442 37.0697 33.5029 37.6667 32 37.6667C30.4971 37.6667 29.0558 37.0697 27.993 36.007C26.9303 34.9442 26.3333 33.5029 26.3333 32C26.3333 30.4971 26.9303 29.0558 27.993 27.993C29.0558 26.9303 30.4971 26.3333 32 26.3333Z" fill="url(#paint2_linear_4_12495)"/>
<path d="M26.3431 26.3431C27.8434 24.8429 29.8783 24 32 24C34.1217 24 36.1566 24.8429 37.6569 26.3431C39.1571 27.8434 40 29.8783 40 32C40 34.1217 39.1571 36.1566 37.6569 37.6569C36.1566 39.1571 34.1217 40 32 40C29.8783 40 27.8434 39.1571 26.3431 37.6569C24.8429 36.1566 24 34.1217 24 32C24 29.8783 24.8429 27.8434 26.3431 26.3431ZM36.3605 27.6395C35.204 26.483 33.6355 25.8333 32 25.8333C30.3645 25.8333 28.796 26.483 27.6395 27.6395C26.483 28.796 25.8333 30.3645 25.8333 32C25.8333 33.6355 26.483 35.204 27.6395 36.3605C28.796 37.517 30.3645 38.1667 32 38.1667C33.6355 38.1667 35.204 37.517 36.3605 36.3605C37.517 35.204 38.1667 33.6355 38.1667 32C38.1667 30.3645 37.517 28.796 36.3605 27.6395Z" stroke="url(#paint3_linear_4_12495)" stroke-opacity="0.1"/>
<path d="M32 15C27.4913 15 23.1673 16.7911 19.9792 19.9792C16.7911 23.1673 15 27.4913 15 32C15 36.5087 16.7911 40.8327 19.9792 44.0208C23.1673 47.2089 27.4913 49 32 49H49.143L52.0004 46H41.6414C43.9108 44.4375 45.7664 42.3468 47.0484 39.908C48.3304 37.4692 49.0005 34.7553 49.0008 32C49.0008 27.4913 47.2097 23.1673 44.0216 19.9792C40.8335 16.7911 36.5087 15 32 15ZM32 24.916C32.9303 24.9159 33.8515 25.0991 34.711 25.455C35.5705 25.811 36.3515 26.3328 37.0093 26.9907C37.6672 27.6485 38.189 28.4294 38.5449 29.289C38.9009 30.1485 39.0841 31.0697 39.084 32C39.0841 32.9303 38.9009 33.8515 38.5449 34.711C38.189 35.5705 37.6672 36.3515 37.0093 37.0093C36.3515 37.6672 35.5705 38.189 34.711 38.5449C33.8515 38.9009 32.9303 39.0841 32 39.084C31.0697 39.0841 30.1485 38.9009 29.289 38.5449C28.4294 38.189 27.6485 37.6672 26.9907 37.0093C26.3328 36.3515 25.811 35.5705 25.455 34.711C25.0991 33.8515 24.9159 32.9303 24.916 32C24.9159 31.0697 25.0991 30.1485 25.455 29.289C25.811 28.4294 26.3328 27.6485 26.9907 26.9907C27.6485 26.3328 28.4294 25.811 29.289 25.455C30.1485 25.0991 31.0697 24.9159 32 24.916Z" fill="url(#paint4_linear_4_12495)"/>
<path d="M50.8337 46.5L48.9287 48.5H32C27.6239 48.5 23.4271 46.7616 20.3327 43.6673C17.2384 40.5729 15.5 36.3761 15.5 32C15.5 27.6239 17.2384 23.4271 20.3327 20.3327C23.4271 17.2384 27.6239 15.5 32 15.5C36.3761 15.5 40.5737 17.2384 43.6681 20.3327C46.7624 23.4271 48.5008 27.6239 48.5008 31.9999L50.8337 46.5ZM50.8337 46.5H41.6414H40.0335L41.3579 45.5882C43.5605 44.0716 45.3615 42.0424 46.6058 39.6753C47.8501 37.3083 48.5005 34.6742 48.5008 32L50.8337 46.5ZM34.9024 24.9931C33.9822 24.612 32.996 24.4159 32 24.416L39.584 32C39.5841 31.004 39.388 30.0178 39.0069 29.0976C38.6258 28.1775 38.0672 27.3414 37.3629 26.6371C36.6586 25.9328 35.8225 25.3742 34.9024 24.9931ZM32 24.416C31.004 24.4159 30.0178 24.612 29.0976 24.9931C28.1775 25.3742 27.3414 25.9328 26.6371 26.6371C25.9328 27.3414 25.3742 28.1775 24.9931 29.0976C24.612 30.0178 24.4159 31.004 24.416 32L32 24.416ZM39.0069 34.9024C39.388 33.9822 39.5841 32.996 39.584 32L32 39.584C32.996 39.5841 33.9822 39.388 34.9024 39.0069C35.8225 38.6258 36.6586 38.0672 37.3629 37.3629C38.0672 36.6586 38.6258 35.8225 39.0069 34.9024ZM29.0976 39.0069C30.0178 39.388 31.004 39.5841 32 39.584L24.416 32C24.4159 32.996 24.612 33.9822 24.9931 34.9024C25.3742 35.8225 25.9328 36.6586 26.6371 37.3629C27.3414 38.0672 28.1775 38.6258 29.0976 39.0069Z" stroke="url(#paint5_linear_4_12495)" stroke-opacity="0.1"/>
</g>
<defs>
<filter id="filter0_f_4_12495" x="3.2625" y="3.26229" width="57.475" height="57.475" filterUnits="userSpaceOnUse" color-interpolation-filters="sRGB">
<feFlood flood-opacity="0" result="BackgroundImageFix"/>
<feBlend mode="normal" in="SourceGraphic" in2="BackgroundImageFix" result="shape"/>
<feGaussianBlur stdDeviation="0.61875" result="effect1_foregroundBlur_4_12495"/>
</filter>
<linearGradient id="paint0_linear_4_12495" x1="4.5" y1="31.9998" x2="59.5" y2="31.9998" gradientUnits="userSpaceOnUse">
<stop stop-color="#FDFC47"/>
<stop offset="1" stop-color="#24FE41"/>
</linearGradient>
<linearGradient id="paint1_linear_4_12495" x1="4.5" y1="32.0001" x2="59.501" y2="32.0001" gradientUnits="userSpaceOnUse">
<stop stop-color="#FDFC47"/>
<stop offset="1" stop-color="#24FE41"/>
</linearGradient>
<linearGradient id="paint2_linear_4_12495" x1="23.5" y1="32" x2="40.5" y2="32" gradientUnits="userSpaceOnUse">
<stop stop-color="#FDFC47"/>
<stop offset="1" stop-color="#24FE41"/>
</linearGradient>
<linearGradient id="paint3_linear_4_12495" x1="23.5" y1="32" x2="40.5" y2="32" gradientUnits="userSpaceOnUse">
<stop stop-color="#FDFC47"/>
<stop offset="1" stop-color="#24FE41"/>
</linearGradient>
<linearGradient id="paint4_linear_4_12495" x1="15" y1="32" x2="52.0004" y2="32" gradientUnits="userSpaceOnUse">
<stop stop-color="#FDFC47"/>
<stop offset="1" stop-color="#24FE41"/>
</linearGradient>
<linearGradient id="paint5_linear_4_12495" x1="15" y1="32" x2="52.0004" y2="32" gradientUnits="userSpaceOnUse">
<stop stop-color="#FDFC47"/>
<stop offset="1" stop-color="#24FE41"/>
</linearGradient>
<clipPath id="clip0_4_12495">
<rect width="64" height="64" fill="white"/>
</clipPath>
</defs>
</svg>
