<svg width="64" height="64" viewBox="0 0 64 64" fill="none" xmlns="http://www.w3.org/2000/svg">
<g clip-path="url(#clip0_4_12391)">
<g opacity="0.3" filter="url(#filter0_f_4_12391)">
<path d="M44.5 4.5H19.5C11.2157 4.5 4.5 11.2157 4.5 19.5V44.5C4.5 52.7843 11.2157 59.5 19.5 59.5H44.5C52.7843 59.5 59.5 52.7843 59.5 44.5V19.5C59.5 11.2157 52.7843 4.5 44.5 4.5Z" fill="url(#paint0_linear_4_12391)"/>
</g>
<path d="M19.5 5H44.5C52.5081 5 59 11.4919 59 19.5V44.5C59 52.5081 52.5081 59 44.5 59H19.5C11.4919 59 5 52.5081 5 44.5V19.5C5 11.4919 11.4919 5 19.5 5Z" fill="#232323" stroke="url(#paint1_linear_4_12391)"/>
<path fill-rule="evenodd" clip-rule="evenodd" d="M45.8443 18.846L44.4594 19.5364C44.4594 19.5364 45.7757 25.3692 43.6094 27.4417C43.0175 28.0079 42.5926 28.52 42.2887 28.9718C42.3734 29.0496 42.4642 29.1262 42.5478 29.204C44.1688 30.7069 45.6863 32.1662 47.0447 32.658C47.3814 32.7792 47.6776 32.8428 47.9507 32.884C47.4277 26.3267 45.8443 18.846 45.8443 18.846ZM18.1543 18.8502C18.1543 18.8502 16.5709 26.3289 16.0479 32.8862C16.3211 32.845 16.6172 32.7814 16.9539 32.6602C18.3123 32.1684 19.8298 30.7091 21.4508 29.2062C21.5345 29.1284 21.6253 29.0518 21.71 28.974C21.4061 28.5222 20.9812 28.0101 20.3893 27.4439C18.223 25.3702 19.5392 19.5407 19.5392 19.5407L18.1543 18.8502ZM36.0963 26.8156C34.4127 26.9081 31.9995 28.0471 31.9995 28.0471C31.9995 28.0471 28.8477 26.5607 27.2352 26.8467V26.8488C23.2393 27.5591 20.3521 32.5675 17.1762 33.7113C15.1677 34.4342 14 33.3796 14 33.3796C14 33.3796 15.0586 35.9946 17.1762 37.1384C20.0349 38.6825 23.5835 39.0174 26.707 38.2808C28.7176 37.8073 32 35.428 32 35.428C32 35.428 35.2824 37.7803 37.293 38.2538C40.4154 38.9904 43.965 38.6804 46.8238 37.1363C48.9414 35.9925 50 33.3774 50 33.3774C50 33.3774 48.8323 34.432 46.8238 33.7091C43.6474 32.5653 40.7602 27.5569 36.7648 26.8466C36.5632 26.8107 36.3368 26.8024 36.0963 26.8156ZM48.0773 37.4206C47.7872 37.6436 47.478 37.8564 47.136 38.0405C44.9856 39.2014 42.7366 39.6939 40.3067 39.6162C41.1167 41.5641 41.6672 43.2037 40.3067 45.1539C40.3067 45.1539 43.3048 44.7613 44.6315 44.2272C46.2027 43.5947 47.2829 42.666 47.7911 40.1657C47.9563 39.3524 48.0455 38.4226 48.0773 37.4206ZM15.9233 37.4227C15.9551 38.4238 16.0444 39.353 16.2094 40.1656C16.7176 42.6659 17.7957 43.5946 19.367 44.2271C20.6937 44.7612 23.6939 45.1538 23.6939 45.1538C22.3334 43.2037 22.8839 41.564 23.6939 39.6161C21.264 39.6939 19.0129 39.2035 16.8625 38.0425C16.5214 37.8589 16.2128 37.6451 15.9233 37.4227Z" fill="url(#paint2_linear_4_12391)"/>
</g>
<defs>
<filter id="filter0_f_4_12391" x="3.2625" y="3.2625" width="57.475" height="57.475" filterUnits="userSpaceOnUse" color-interpolation-filters="sRGB">
<feFlood flood-opacity="0" result="BackgroundImageFix"/>
<feBlend mode="normal" in="SourceGraphic" in2="BackgroundImageFix" result="shape"/>
<feGaussianBlur stdDeviation="0.61875" result="effect1_foregroundBlur_4_12391"/>
</filter>
<linearGradient id="paint0_linear_4_12391" x1="4.5" y1="32" x2="59.5" y2="32" gradientUnits="userSpaceOnUse">
<stop stop-color="#FDFC47"/>
<stop offset="1" stop-color="#24FE41"/>
</linearGradient>
<linearGradient id="paint1_linear_4_12391" x1="4.5" y1="32" x2="59.5" y2="32" gradientUnits="userSpaceOnUse">
<stop stop-color="#FDFC47"/>
<stop offset="1" stop-color="#24FE41"/>
</linearGradient>
<linearGradient id="paint2_linear_4_12391" x1="14" y1="31.9999" x2="50" y2="31.9999" gradientUnits="userSpaceOnUse">
<stop stop-color="#FDFC47"/>
<stop offset="1" stop-color="#24FE41"/>
</linearGradient>
<clipPath id="clip0_4_12391">
<rect width="64" height="64" fill="white"/>
</clipPath>
</defs>
</svg>
