<svg width="64" height="64" viewBox="0 0 64 64" fill="none" xmlns="http://www.w3.org/2000/svg">
<g opacity="0.3" filter="url(#filter0_f_4_12348)">
<path d="M44.5 4.5H19.5C11.2157 4.5 4.5 11.2157 4.5 19.5V44.5C4.5 52.7843 11.2157 59.5 19.5 59.5H44.5C52.7843 59.5 59.5 52.7843 59.5 44.5V19.5C59.5 11.2157 52.7843 4.5 44.5 4.5Z" fill="url(#paint0_linear_4_12348)"/>
</g>
<path d="M19.5 5H44.5C52.5081 5 59 11.4919 59 19.5V44.5C59 52.5081 52.5081 59 44.5 59H19.5C11.4919 59 5 52.5081 5 44.5V19.5C5 11.4919 11.4919 5 19.5 5Z" fill="#232323" stroke="url(#paint1_linear_4_12348)"/>
<path d="M59.0439 25.2387C58.9857 25.2386 58.9276 25.2422 58.8698 25.2495C58.8698 25.2495 56.9302 25.4246 54.6379 25.9535C52.3456 26.4825 49.6593 27.267 47.9116 29.0148C47.4437 29.4827 46.995 29.868 46.5458 30.2567C44.9027 29.087 43.3004 28.318 41.7312 27.9733C41.6359 27.9523 41.5387 27.9417 41.4411 27.9417H40.9955L39.8143 30.6417H41.2223C42.135 30.8519 43.1619 31.2932 44.2756 31.9944C43.1602 32.6962 42.1306 33.1348 41.2171 33.3444H38.6305L37.4492 36.0444H41.4412C41.5387 36.0444 41.636 36.0338 41.7312 36.0128C43.301 35.668 44.9048 34.9024 46.5486 33.7321C46.9971 34.1205 47.4445 34.5041 47.9118 34.9714C49.6595 36.7191 52.3457 37.5036 54.638 38.0327C56.9303 38.5617 58.87 38.7367 58.87 38.7367C59.2266 38.7687 59.5813 38.6578 59.8562 38.4284C60.131 38.199 60.3035 37.8698 60.3356 37.5132C60.3678 37.1566 60.257 36.8018 60.0277 36.5269C59.7983 36.252 59.4692 36.0795 59.1126 36.0472C59.1126 36.0472 57.3398 35.8847 55.2446 35.4012C53.1494 34.9177 50.7731 34.0147 49.8208 33.0625C49.4432 32.6849 49.0705 32.3322 48.6976 31.9946C49.0705 31.657 49.4432 31.3017 49.8208 30.9241C50.7731 29.9718 53.1494 29.0662 55.2446 28.5826C57.3398 28.0991 59.1126 27.9366 59.1126 27.9366C59.4607 27.914 59.7866 27.7575 60.0219 27.5C60.2572 27.2424 60.3837 26.9038 60.3748 26.555C60.3659 26.2063 60.2224 25.8745 59.9743 25.6292C59.7262 25.3839 59.3927 25.2436 59.0439 25.2387Z" fill="url(#paint2_linear_4_12348)"/>
<path d="M4.96029 25.2414C4.61371 25.2443 4.28148 25.3802 4.0324 25.6212C3.78332 25.8623 3.63646 26.1898 3.62223 26.5361C3.60801 26.8824 3.7275 27.2209 3.95598 27.4815C4.18445 27.7422 4.50441 27.905 4.84959 27.9362C4.84959 27.9362 6.62241 28.0987 8.71761 28.5822C10.8128 29.0657 13.1918 29.9713 14.1439 30.9236C14.5215 31.3012 14.8969 31.6565 15.2698 31.9941C14.8969 32.3317 14.5215 32.6844 14.1439 33.062C13.1917 34.0143 10.8128 34.9173 8.71761 35.4007C6.62241 35.8843 4.84959 36.0467 4.84959 36.0467C4.49294 36.0793 4.16382 36.2521 3.93463 36.5273C3.70544 36.8025 3.59494 37.1574 3.62746 37.5141C3.65998 37.8707 3.83284 38.1998 4.10802 38.429C4.3832 38.6582 4.73816 38.7687 5.0948 38.7362C5.0948 38.7362 7.03448 38.5612 9.32678 38.0322C11.6191 37.5032 14.3053 36.7187 16.053 34.9709C16.5204 34.5036 16.9703 34.1201 17.4188 33.7317C19.0626 34.9021 20.6637 35.6677 22.2335 36.0124C22.3287 36.0334 22.426 36.0439 22.5235 36.044H22.948L24.1293 33.344H22.745C21.8314 33.1343 20.8065 32.6957 19.6917 31.994C20.8048 31.2929 21.8271 30.8515 22.7397 30.6413H25.3105L26.4918 27.9413H22.5236C22.426 27.9413 22.3288 27.9519 22.2335 27.9729C20.6637 28.3176 19.0626 29.0859 17.4189 30.2562C16.9698 29.8675 16.521 29.4823 16.0531 29.0144C14.3054 27.2666 11.6192 26.4822 9.32685 25.9531C7.03455 25.4241 5.09487 25.2491 5.09487 25.2491C5.05021 25.2442 5.00522 25.2419 4.96029 25.2414Z" fill="url(#paint3_linear_4_12348)"/>
<path d="M21.1906 15.7753C20.9564 15.7704 20.7249 15.8266 20.519 15.9383C20.313 16.05 20.1397 16.2133 20.016 16.4123C19.8923 16.6112 19.8225 16.839 19.8135 17.0731C19.8045 17.3071 19.8565 17.5396 19.9645 17.7475L24.3863 26.591H26.4904C26.6767 26.592 26.8607 26.6315 27.0309 26.7071L27.234 26.2456L22.3798 16.5398C22.2716 16.3149 22.1032 16.1244 21.8933 15.9894C21.6833 15.8544 21.4401 15.7803 21.1906 15.7753ZM42.7744 15.7753C42.5092 15.7757 42.25 15.8541 42.0292 16.0009C41.8083 16.1477 41.6356 16.3562 41.5325 16.6005L32.0825 38.2005C31.9404 38.5286 31.934 38.8996 32.0649 39.2323C32.1957 39.565 32.4531 39.8323 32.7806 39.9757C33.1081 40.1191 33.4791 40.1268 33.8123 39.9972C34.1455 39.8676 34.4138 39.6112 34.5584 39.2842L44.0084 17.6842C44.1021 17.4782 44.1425 17.2519 44.1258 17.0262C44.1092 16.8004 44.0361 16.5825 43.9132 16.3924C43.7904 16.2023 43.6217 16.0462 43.4227 15.9383C43.2237 15.8305 43.0007 15.7744 42.7744 15.7753ZM30.6244 23.8753C30.3592 23.8757 30.1 23.9541 29.8792 24.1009C29.6583 24.2477 29.4856 24.4562 29.3825 24.7005L19.9325 46.3005C19.7904 46.6286 19.784 46.9996 19.9149 47.3323C20.0457 47.665 20.3031 47.9324 20.6306 48.0757C20.9581 48.2191 21.3291 48.2268 21.6623 48.0972C21.9955 47.9676 22.2638 47.7112 22.4084 47.3842L31.8584 25.7842C31.9521 25.5782 31.9925 25.3519 31.9759 25.1262C31.9592 24.9004 31.8861 24.6825 31.7632 24.4924C31.6404 24.3023 31.4717 24.1462 31.2727 24.0383C31.0737 23.9305 30.8507 23.8744 30.6244 23.8753ZM34.6296 23.8753C34.3648 23.8845 34.1087 23.9715 33.893 24.1253C33.6774 24.279 33.5117 24.4929 33.4167 24.7401L28.0167 38.2401C27.9488 38.4051 27.9144 38.5819 27.9152 38.7603C27.9161 38.9387 27.9523 39.1151 28.0218 39.2794C28.0912 39.4438 28.1925 39.5927 28.3199 39.7176C28.4472 39.8426 28.598 39.9411 28.7636 40.0074C28.9292 40.0738 29.1063 40.1066 29.2847 40.1042C29.463 40.1017 29.6391 40.0639 29.8028 39.993C29.9665 39.9221 30.1146 39.8194 30.2384 39.691C30.3622 39.5626 30.4593 39.4109 30.5241 39.2447L35.9241 25.7447C36.0114 25.5357 36.0447 25.3081 36.021 25.0829C35.9972 24.8576 35.9172 24.642 35.7882 24.4558C35.6593 24.2696 35.4856 24.1188 35.2831 24.0174C35.0806 23.9159 34.8559 23.8671 34.6296 23.8753ZM36.9077 37.2776L36.47 38.2822L41.5905 47.4976C41.6737 47.6577 41.7882 47.7995 41.9272 47.9146C42.0661 48.0297 42.2267 48.1158 42.3995 48.1678C42.5723 48.2198 42.7537 48.2366 42.9331 48.2173C43.1125 48.1979 43.2862 48.1429 43.444 48.0553C43.6017 47.9677 43.7403 47.8493 43.8515 47.7073C43.9628 47.5652 44.0444 47.4023 44.0916 47.2281C44.1388 47.054 44.1506 46.8721 44.1264 46.6933C44.1021 46.5145 44.0422 46.3424 43.9503 46.1872L39.0645 37.3937H37.4482C37.2619 37.3927 37.0779 37.3532 36.9077 37.2776Z" fill="url(#paint4_linear_4_12348)"/>
<defs>
<filter id="filter0_f_4_12348" x="3.2625" y="3.2625" width="57.475" height="57.475" filterUnits="userSpaceOnUse" color-interpolation-filters="sRGB">
<feFlood flood-opacity="0" result="BackgroundImageFix"/>
<feBlend mode="normal" in="SourceGraphic" in2="BackgroundImageFix" result="shape"/>
<feGaussianBlur stdDeviation="0.61875" result="effect1_foregroundBlur_4_12348"/>
</filter>
<linearGradient id="paint0_linear_4_12348" x1="4.5" y1="32" x2="59.5" y2="32" gradientUnits="userSpaceOnUse">
<stop stop-color="#FDFC47"/>
<stop offset="1" stop-color="#24FE41"/>
</linearGradient>
<linearGradient id="paint1_linear_4_12348" x1="4.5" y1="32" x2="59.5" y2="32" gradientUnits="userSpaceOnUse">
<stop stop-color="#FDFC47"/>
<stop offset="1" stop-color="#24FE41"/>
</linearGradient>
<linearGradient id="paint2_linear_4_12348" x1="37.4492" y1="31.9904" x2="60.3752" y2="31.9904" gradientUnits="userSpaceOnUse">
<stop stop-color="#FDFC47"/>
<stop offset="1" stop-color="#24FE41"/>
</linearGradient>
<linearGradient id="paint3_linear_4_12348" x1="3.62109" y1="31.9914" x2="26.4918" y2="31.9914" gradientUnits="userSpaceOnUse">
<stop stop-color="#FDFC47"/>
<stop offset="1" stop-color="#24FE41"/>
</linearGradient>
<linearGradient id="paint4_linear_4_12348" x1="19.8125" y1="32" x2="44.1386" y2="32" gradientUnits="userSpaceOnUse">
<stop stop-color="#FDFC47"/>
<stop offset="1" stop-color="#24FE41"/>
</linearGradient>
</defs>
</svg>
