<svg width="64" height="64" viewBox="0 0 64 64" fill="none" xmlns="http://www.w3.org/2000/svg">
<g opacity="0.3" filter="url(#filter0_f_4_12314)">
<path d="M44.5 4.5H19.5C11.2157 4.5 4.5 11.2157 4.5 19.5V44.5C4.5 52.7843 11.2157 59.5 19.5 59.5H44.5C52.7843 59.5 59.5 52.7843 59.5 44.5V19.5C59.5 11.2157 52.7843 4.5 44.5 4.5Z" fill="url(#paint0_linear_4_12314)"/>
</g>
<path d="M19.5 5H44.5C52.5081 5 59 11.4919 59 19.5V44.5C59 52.5081 52.5081 59 44.5 59H19.5C11.4919 59 5 52.5081 5 44.5V19.5C5 11.4919 11.4919 5 19.5 5Z" fill="#232323" stroke="url(#paint1_linear_4_12314)"/>
<path d="M18.0113 17C17.46 17 17 17.5712 17 18.1275V37.0023C17 37.5886 17.6637 38.2377 18.25 38.2377H27.6349L23.255 47H25.7549L30.1349 38.2377H30.755V47H33.25V38.2377H33.8994L38.2781 47H40.7781L36.3994 38.2377H45.7493C46.3405 38.2377 46.9993 37.5873 46.9993 37.0023V18.1275C46.9993 17.5362 46.4618 17 45.8768 17H18.0113Z" fill="url(#paint2_linear_4_12314)"/>
<path d="M43.2538 19.5001H20.7539C20.0635 19.5001 19.5039 20.0597 19.5039 20.7501V34.5001C19.5039 35.1905 20.0635 35.7501 20.7539 35.7501H43.2538C43.9441 35.7501 44.5038 35.1905 44.5038 34.5001V20.7501C44.5038 20.0597 43.9441 19.5001 43.2538 19.5001Z" fill="#43953B"/>
<path d="M26.1119 22.0875C25.5093 22.2082 25.7751 22.6666 25.7295 23.0513C25.6632 23.4158 25.2493 24.0232 25.3833 24.1556C25.2332 24.7811 25.1384 25.6503 24.9039 26.3468C24.6701 26.95 24.4952 27.5564 24.3295 28.1801C24.1626 28.7537 24.0306 29.3399 23.9198 29.9262C24.1389 30.498 23.7387 30.8377 23.795 31.3893C24.3152 31.0726 24.1432 31.8115 23.7528 31.8267C24.5793 31.7984 24.3792 30.7539 24.4031 30.2365C24.753 29.9697 24.7469 29.2601 24.9498 28.8259C24.5578 29.0985 25.1975 28.4666 25.0841 28.2499C25.2732 27.3739 26.3153 27.7403 26.9493 27.5783C27.2569 27.8377 27.1623 28.4925 27.585 28.4887C27.3346 29.0788 27.8725 29.3816 27.9449 29.8959C27.9152 30.446 28.2346 31.581 28.9342 31.2893C29.0247 31.603 28.5655 31.6599 28.4528 31.4881C28.5961 32.5848 29.7412 31.2628 29.0242 31.1594C28.7845 30.7991 28.7 30.1833 28.5898 29.7079C28.2152 29.2017 28.3804 28.7921 28.0784 28.1833C27.7619 27.5714 28.6299 27.3669 27.9113 27.0292C27.1985 27.157 27.9552 26.1666 27.3534 25.9419C27.4723 25.6349 26.7749 25.1884 27.2716 25.53C27.0114 24.9412 27.0789 23.5827 26.3137 23.6093C26.3289 23.4068 26.7393 23.2155 26.4322 23.0115C26.1301 22.7347 26.471 22.2267 26.1119 22.0875ZM28.2287 27.3585C28.1799 27.4308 28.2681 27.3715 28.2287 27.3585V27.3585ZM28.8317 31.3306C28.7158 31.3505 28.8951 31.4269 28.8317 31.3306V31.3306ZM24.7862 29.3872C24.8347 29.2354 24.9371 29.4887 24.7862 29.3872V29.3872ZM26.2242 22.2999C26.0511 22.3851 26.3933 22.3981 26.2242 22.2999V22.2999ZM26.1754 22.6344C26.0486 22.7154 26.3116 22.7393 26.1754 22.6344V22.6344ZM30.53 23.0177C30.3223 23.1201 30.7297 23.1625 30.53 23.0177V23.0177ZM25.6574 23.0568C25.5714 23.1235 25.7295 23.1867 25.6574 23.0568V23.0568ZM29.9243 23.0885C29.5292 23.2815 29.4604 23.592 29.7961 23.9376C29.8197 24.8357 29.8098 25.7472 29.9746 26.6353C29.8886 27.3871 30.2321 28.0928 30.1243 28.8446C30.1912 29.4451 30.1537 29.8202 30.1858 30.3665C30.2385 30.7888 29.5085 31.5512 30.0523 31.7723C30.8747 31.7638 31.8379 31.9134 32.5123 31.6993C32.8912 31.4346 33.6735 31.6525 33.9429 30.9376C34.3753 30.8784 33.758 30.128 34.2005 30.5138C34.6382 30.7581 34.4997 29.7826 34.6756 29.8305C34.1569 29.6107 35.0368 29.8061 34.7086 29.3235C34.8759 28.5178 33.8799 27.9688 33.7716 27.3626C33.3803 27.2307 32.2338 27.2053 32.4996 26.7723C32.1872 26.4404 32.8046 26.6294 32.7515 26.1817C33.1441 26.5951 32.9479 25.5687 33.3476 25.4997C33.4681 24.7678 33.3423 23.9027 32.7141 23.4267C31.9644 23.1058 31.0605 23.0559 30.31 23.1743C30.1841 23.1396 30.0594 23.0678 29.9243 23.0885ZM29.8608 23.3156C29.6678 23.4014 30.0262 23.4473 29.8608 23.3156V23.3156ZM31.1205 23.3327C30.9907 23.4284 31.2505 23.4519 31.1205 23.3327V23.3327ZM30.6664 23.3937C30.5235 23.4696 30.7915 23.5512 30.6664 23.3937V23.3937ZM31.7456 23.3986C31.5872 23.5031 31.9149 23.5497 31.7456 23.3986V23.3986ZM25.7159 23.4401C25.5506 23.525 25.8776 23.5482 25.7159 23.4401V23.4401ZM31.9846 23.4426C31.8239 23.5469 32.1565 23.5941 31.9846 23.4426V23.4426ZM30.4783 23.4474C30.363 23.5475 30.6312 23.5086 30.4783 23.4474V23.4474ZM31.1838 23.5134C31.8281 23.5266 32.7637 23.6497 32.7348 24.5324C33.0714 24.6697 32.7378 25.3931 32.4481 25.7668C32.0754 26.2413 31.7929 26.637 31.2662 26.7519C30.8133 26.83 30.1701 27.1602 30.448 26.5239C30.2858 25.7327 30.4001 24.9109 30.2275 24.0932C30.1678 23.4255 30.8216 23.6087 31.1838 23.5134ZM32.8684 24.7267C32.8206 24.7466 32.8244 24.6177 32.8684 24.7267V24.7267ZM32.2997 23.5405C32.0597 23.786 32.6389 23.6378 32.2997 23.5405V23.5405ZM25.9674 23.5527C26.4561 23.9799 26.2316 24.8426 26.5593 25.4596C26.6314 26.0111 26.9074 26.7391 26.8462 27.135C26.3491 27.1109 25.3561 27.4286 25.1153 27.1685C25.4436 27.2548 25.4419 26.575 25.5106 26.4204C25.0722 26.2121 25.6678 25.4954 25.6439 25.0714C25.7677 24.5849 25.7879 23.9843 25.9674 23.5527ZM25.6085 23.5942C25.3068 23.7685 25.7979 23.593 25.6085 23.5942V23.5942ZM26.2115 23.6162C26.0513 23.7186 26.3798 23.759 26.2115 23.6162V23.6162ZM32.0677 23.6357C32.0875 23.7599 32.1845 23.6222 32.0677 23.6357V23.6357ZM32.7782 23.6455C32.9193 23.6053 32.9361 23.8766 32.7782 23.6455V23.6455ZM26.4238 23.6821C26.2979 23.7647 26.5588 23.7853 26.4238 23.6821V23.6821ZM26.7216 23.8359C26.5433 23.9446 26.9008 23.9955 26.7216 23.8359V23.8359ZM25.4399 23.8994C25.2848 23.9961 25.5818 24.0277 25.4399 23.8994V23.8994ZM39.1311 24.0346C38.4919 24.0804 37.9893 24.3257 37.4985 24.6204C37.0938 24.6289 37.6419 25.4236 36.9924 25.1479C36.2201 25.3204 36.3909 26.2086 35.8884 26.7066C35.6548 27.2553 35.7922 27.8625 35.469 28.3901C35.712 29.0616 35.6887 29.9095 36.3259 30.4189C36.3642 30.728 37.1486 31.2387 37.6356 31.358C38.1884 31.4924 38.7968 31.3716 39.3101 31.6729C39.7224 31.6945 40.896 31.8056 40.325 31.1317C40.497 30.6993 39.8176 31.0146 39.6792 30.8188C38.7977 30.9605 37.8674 30.6851 37.1889 30.1143C36.6856 29.7714 36.4171 29.0985 36.3715 28.5039C36.4883 27.9945 36.61 27.482 36.7905 26.9982C36.9062 26.6312 37.1685 26.3576 36.7193 26.1377C36.9073 26.1402 37.0328 25.5526 37.1624 26.0752C37.6417 25.5173 38.1817 24.9715 38.921 24.7932C39.3828 24.4804 40.2003 24.6181 40.5276 24.4105C40.3131 23.8961 39.5683 24.0636 39.1311 24.0346ZM32.771 23.9555C32.608 24.0677 32.9291 24.0892 32.771 23.9555V23.9555ZM26.4195 23.958C26.29 24.0785 26.5688 24.0789 26.4195 23.958V23.958ZM39.0755 24.1298C38.8438 24.3433 39.3511 24.2393 39.0755 24.1298V24.1298ZM26.7104 24.0581C26.5811 24.0963 26.7989 24.1742 26.7104 24.0581V24.0581ZM26.0512 24.0996C25.868 24.2459 26.2703 24.1643 26.0512 24.0996V24.0996ZM26.5298 24.0996C26.3341 24.1769 26.6955 24.2178 26.5298 24.0996V24.0996ZM39.6249 24.2568C39.4356 24.4767 39.9181 24.3794 39.6249 24.2568V24.2568ZM40.3085 24.2616C40.1254 24.4634 40.591 24.3657 40.3085 24.2616V24.2616ZM29.9251 24.146C29.7646 24.2475 30.0955 24.2889 29.9251 24.146V24.146ZM25.7657 24.2314C25.6261 24.3017 25.8831 24.375 25.7657 24.2314V24.2314ZM25.6632 24.2632C25.5028 24.3524 25.8188 24.3703 25.6632 24.2632V24.2632ZM26.4762 24.2998C26.2189 24.4756 26.768 24.3794 26.4762 24.2998V24.2998ZM32.8817 24.312C32.7275 24.3987 33.0469 24.3806 32.8817 24.312V24.312ZM30.2084 24.3657C30.0451 24.4773 30.365 24.4989 30.2084 24.3657V24.3657ZM38.0527 24.5253C37.8175 24.6301 38.2718 24.7146 38.0527 24.5253V24.5253ZM26.579 24.4128C26.4184 24.5106 26.7493 24.5517 26.579 24.4128V24.4128ZM33.2703 24.469C33.1011 24.5538 33.4289 24.6252 33.2703 24.469V24.469ZM26.3814 24.4715C26.2339 24.5591 26.5119 24.6055 26.3814 24.4715V24.4715ZM37.8506 24.5994C37.6354 24.8132 38.1078 24.7107 37.8506 24.5994V24.5994ZM38.5342 24.5994C38.3131 24.8156 38.8192 24.709 38.5342 24.5994V24.5994ZM37.5259 24.6727C37.3124 24.8375 37.769 24.8246 37.5259 24.6727V24.6727ZM38.1314 24.7313C38.025 24.9627 38.3602 24.8322 38.1314 24.7313V24.7313ZM26.7793 24.6083C26.6246 24.7029 26.9219 24.7381 26.7793 24.6083V24.6083ZM33.1727 24.6132C33.0632 24.6723 33.2882 24.7057 33.1727 24.6132V24.6132ZM38.2827 24.7704C38.4335 25.0957 38.5378 24.7874 38.2827 24.7704V24.7704ZM26.58 24.6479C26.4343 24.7518 26.7295 24.7614 26.58 24.6479V24.6479ZM33.2371 24.6674C33.0781 24.7432 33.3863 24.784 33.2371 24.6674V24.6674ZM26.6899 24.7163C26.5579 24.8084 26.8344 24.8116 26.6899 24.7163V24.7163ZM37.2363 24.8539C36.9978 25.1439 37.561 25.0368 37.2363 24.8539V24.8539ZM30.2585 24.7724C30.0948 24.8807 30.4317 24.9272 30.2585 24.7724V24.7724ZM37.7539 24.9736C37.2923 25.0996 37.8446 25.4237 37.7539 24.9736V24.9736ZM26.6778 25.0288C26.509 25.2666 26.835 25.0972 26.6778 25.0288V25.0288ZM36.9043 25.1884C36.6518 25.3642 37.1333 25.3532 36.9043 25.1884V25.1884ZM25.2399 25.0801C25.1025 25.1839 25.3857 25.2188 25.2399 25.0801V25.0801ZM33.1932 25.1484C33.0878 25.2945 33.3215 25.1732 33.1932 25.1484V25.1484ZM25.0813 25.1777C24.9166 25.2555 25.2365 25.2696 25.0813 25.1777V25.1777ZM26.8977 25.2192C26.7037 25.3041 27.0603 25.3495 26.8977 25.2192V25.2192ZM26.6462 25.2266C26.5142 25.301 26.7669 25.3571 26.6462 25.2266V25.2266ZM26.9514 25.4023C26.7827 25.4941 27.1091 25.5563 26.9514 25.4023V25.4023ZM37.4269 25.5303C37.234 25.7287 37.6889 25.6569 37.4269 25.5303V25.5303ZM36.7214 25.5864C36.6417 25.8948 36.9729 25.7762 36.7214 25.5864V25.5864ZM33.1812 25.483C33.1438 25.6102 33.2932 25.46 33.1812 25.483V25.483ZM36.5456 25.6597C36.3577 25.7222 36.7294 25.7067 36.5456 25.6597V25.6597ZM32.9395 25.6954C32.7485 25.7877 33.1044 25.8298 32.9395 25.6954V25.6954ZM32.6367 25.7003C32.4341 25.8713 32.8613 25.7787 32.6367 25.7003V25.7003ZM33.2031 25.7393C33.0563 25.881 33.3611 25.8413 33.2031 25.7393V25.7393ZM36.6164 25.8716C36.3962 26.0079 36.8561 26.022 36.6164 25.8716V25.8716ZM27.3248 25.795C27.125 25.8356 27.2685 25.9838 27.3248 25.795V25.795ZM29.9926 25.8756C29.8379 25.9663 30.1329 26.0049 29.9926 25.8756V25.8756ZM25.3398 25.8853C25.1645 25.9799 25.5119 26.0363 25.3398 25.8853V25.8853ZM32.8999 25.9097C32.8561 26.0278 33.0497 26.0659 32.8999 25.9097V25.9097ZM36.174 26.062C36.1664 26.0817 36.1881 26.056 36.174 26.062V26.062ZM36.174 26.0694C35.9383 26.265 36.2348 26.2968 36.174 26.0694V26.0694ZM27.1075 26.0172C26.9002 26.1101 27.2803 26.1723 27.1075 26.0172V26.0172ZM30.0242 26.0465C29.8051 26.2117 30.2439 26.1542 30.0242 26.0465V26.0465ZM27.0416 26.127C26.7588 26.2363 26.9783 26.5398 27.0416 26.127V26.127ZM32.2824 26.1344C32.1268 26.2228 32.4202 26.2575 32.2824 26.1344V26.1344ZM36.9018 26.3355C36.7166 26.5123 37.1865 26.4813 36.9018 26.3355V26.3355ZM30.3832 26.2272C30.2379 26.3351 30.5463 26.3632 30.3832 26.2272V26.2272ZM25.4378 26.2711C25.2844 26.3902 25.5975 26.3698 25.4378 26.2711V26.2711ZM32.1484 26.3419C32.0243 26.5518 32.4102 26.4582 32.1484 26.3419V26.3419ZM35.9815 26.7213C35.732 26.9172 36.2213 26.8688 35.9815 26.7213V26.7213ZM25.3204 26.6276C25.065 26.5989 25.3793 27.07 25.3204 26.6276V26.6276ZM27.4664 26.7301C27.3214 26.8088 27.5699 26.9012 27.4664 26.7301V26.7301ZM31.9506 26.7399C31.8095 26.8744 32.1094 26.8789 31.9506 26.7399V26.7399ZM36.238 26.8653C36.1204 26.9558 36.3823 26.902 36.238 26.8653V26.8653ZM36.0744 26.9019C35.6496 26.9129 35.9736 27.3521 36.0744 26.9019V26.9019ZM24.8273 26.779C24.655 26.8763 24.9985 26.9268 24.8273 26.779V26.779ZM25.2057 26.8303C25.0538 26.8032 25.2199 26.9788 25.2057 26.8303V26.8303ZM27.6545 26.8328C27.5126 27.0058 27.8564 26.8765 27.6545 26.8328V26.8328ZM32.0702 26.8377C31.771 27.0129 32.2983 26.885 32.0702 26.8377V26.8377ZM32.29 26.8548C32.1254 26.9367 32.4523 26.9649 32.29 26.8548V26.8548ZM27.2174 26.8889C27.0916 26.9716 27.3524 26.9921 27.2174 26.8889V26.8889ZM30.0243 26.9207C29.8139 27.0734 30.2374 27.0175 30.0243 26.9207V26.9207ZM27.0123 26.9255C26.8814 27.0065 27.131 27.0612 27.0123 26.9255V26.9255ZM30.3612 26.9255C30.155 26.9969 30.3843 27.3287 30.3612 26.9255V26.9255ZM30.3099 27.0427C30.3124 27.008 30.3365 27.0491 30.3099 27.0427V27.0427ZM36.2473 27.0534C35.9986 27.2602 36.5043 27.1893 36.2473 27.0534V27.0534ZM30.6906 26.9377C30.5184 27.106 30.8892 27.0163 30.6906 26.9377V26.9377ZM27.3783 26.9816C27.2318 27.0342 27.4954 27.1033 27.3783 26.9816V26.9816ZM27.5834 27.0158C27.4282 27.0928 27.727 27.1314 27.5834 27.0158V27.0158ZM25.1957 27.0524C25.0498 27.1263 25.3183 27.2176 25.1957 27.0524V27.0524ZM27.4613 27.0524C27.3006 27.1568 27.6332 27.2039 27.4613 27.0524V27.0524ZM25.0687 27.0962C24.8519 27.1636 25.1835 27.2793 25.0687 27.0962V27.0962ZM31.7233 27.1084C31.5621 27.1947 31.8796 27.2177 31.7233 27.1084V27.1084ZM30.6052 27.1621C30.8132 27.961 31.5061 27.2889 32.0334 27.5873C32.9187 27.5075 33.3951 28.2253 33.9889 28.71C34.3163 28.9829 33.8562 29.2814 34.1116 29.5528C34.0089 29.9326 33.6514 30.4082 33.3712 30.585C33.234 30.9995 32.1813 30.6497 32.0456 31.0513C31.6885 30.5758 31.4755 31.3461 31.301 31.3589C31.2057 31.3075 31.6237 30.7952 31.0739 30.8764C30.6949 30.9972 30.6434 31.0977 30.7389 30.6692C30.5734 30.0297 30.5922 30.2045 30.5881 29.7159C30.7469 29.3568 30.3439 28.8669 30.7319 28.4828C30.4967 28.0975 30.3293 27.5229 30.6052 27.1621ZM30.6027 29.9429C30.6237 30.108 30.654 29.9502 30.6027 29.9429V29.9429ZM33.9889 28.71C33.8624 28.9354 34.1796 28.8382 33.9889 28.71V28.71ZM28.0813 27.1646C27.9058 27.2726 28.3104 27.326 28.0813 27.1646V27.1646ZM27.7224 27.1695C27.5255 27.247 27.8895 27.2887 27.7224 27.1695V27.1695ZM32.2162 27.1817C32.0427 27.28 32.3867 27.3295 32.2162 27.1817V27.1817ZM36.4179 27.3169C36.2211 27.5282 36.6949 27.446 36.4179 27.3169V27.3169ZM27.7268 27.2745C27.5682 27.4599 28.0127 27.3969 27.7268 27.2745V27.2745ZM30.0967 27.277C29.8465 27.3435 30.2873 27.4546 30.0967 27.277V27.277ZM24.6067 27.2916C24.458 27.4013 24.7728 27.4346 24.6067 27.2916V27.2916ZM35.7194 27.4537C35.5494 27.5942 35.7811 27.6127 35.7194 27.4537V27.4537ZM31.0441 27.3796C30.8552 27.4827 31.2089 27.5288 31.0441 27.3796V27.3796ZM28.0418 27.3991C27.8789 27.4667 28.1969 27.5133 28.0418 27.3991V27.3991ZM26.8968 27.4089C26.7288 27.4649 27.0369 27.5186 26.8968 27.4089V27.4089ZM27.1678 27.4162C27.0192 27.4662 27.297 27.5576 27.1678 27.4162V27.4162ZM26.3816 27.4382C26.2341 27.5258 26.5121 27.5722 26.3816 27.4382V27.4382ZM27.8416 27.4382C27.702 27.5084 27.959 27.5818 27.8416 27.4382V27.4382ZM33.5392 27.5041C33.3711 27.633 33.7341 27.5674 33.5392 27.5041V27.5041ZM25.8446 27.5285C25.639 27.6765 26.0536 27.6294 25.8446 27.5285V27.5285ZM27.5219 27.5359C27.3621 27.641 27.6762 27.6578 27.5219 27.5359V27.5359ZM32.8287 27.5433C32.6741 27.6378 32.9713 27.673 32.8287 27.5433V27.5433ZM24.9293 27.575C24.7569 27.6723 25.1005 27.7229 24.9293 27.575V27.575ZM33.3636 27.575C33.1532 27.7278 33.5767 27.6718 33.3636 27.575V27.575ZM32.7142 27.5799C32.4628 27.6422 32.904 27.7608 32.7142 27.5799V27.5799ZM36.6449 27.7371C36.4291 27.9436 36.9248 27.8456 36.6449 27.7371V27.7371ZM24.8388 27.6287C24.679 27.7006 24.9891 27.7487 24.8388 27.6287V27.6287ZM35.9052 27.7761C35.724 27.8686 36.1212 27.8132 35.9052 27.7761V27.7761ZM33.5247 27.6775C33.2675 27.5924 33.5199 27.9636 33.5247 27.6775V27.6775ZM27.217 27.6849C27.0912 27.7675 27.352 27.7881 27.217 27.6849V27.6849ZM24.7585 27.7996C24.685 28.0153 24.9691 27.8829 24.7585 27.7996V27.7996ZM25.1394 27.8582C24.9659 27.9565 25.3098 28.006 25.1394 27.8582V27.8582ZM24.9904 27.868C24.8493 27.9368 25.1109 28.0126 24.9904 27.868V27.868ZM27.4172 27.9021C27.0628 27.9883 27.5592 28.2483 27.4172 27.9021V27.9021ZM27.9787 27.9583C27.7543 28.1931 27.9809 28.3058 27.9787 27.9583V27.9583ZM33.4271 27.9705C33.2093 28.0442 33.6124 28.1411 33.4271 27.9705V27.9705ZM35.649 28.1277C35.4425 28.2928 35.917 28.2792 35.649 28.1277V28.1277ZM27.7931 28.0365C27.6318 28.1227 27.9493 28.1458 27.7931 28.0365V28.0365ZM33.9301 28.0658C33.7659 28.1783 34.0896 28.2004 33.9301 28.0658V28.0658ZM33.9839 28.2074C33.749 28.2778 34.1345 28.3442 33.9839 28.2074V28.2074ZM24.766 28.2196C24.6675 28.34 24.9681 28.2176 24.766 28.2196V28.2196ZM27.7006 28.2343C27.4994 28.263 27.8463 28.3114 27.7006 28.2343V28.2343ZM30.6369 28.2807C30.4349 28.2519 30.712 28.4936 30.6369 28.2807V28.2807ZM24.7686 28.3075C24.6103 28.4121 24.938 28.4586 24.7686 28.3075V28.3075ZM24.6197 28.3124C24.453 28.353 24.7444 28.4108 24.6197 28.3124V28.3124ZM34.3821 28.4003C34.2477 28.5374 34.5375 28.5371 34.3821 28.4003V28.4003ZM33.8768 28.4174C33.721 28.5207 34.0442 28.5651 33.8768 28.4174V28.4174ZM27.7811 28.4296C27.6061 28.5266 27.9535 28.5779 27.7811 28.4296V28.4296ZM28.0253 28.4687C27.8532 28.5709 28.1958 28.6132 28.0253 28.4687V28.4687ZM27.6591 28.4736C27.493 28.6576 27.8678 28.5366 27.6591 28.4736V28.4736ZM24.7098 28.5248C24.5473 28.7958 25.0032 28.5197 24.7098 28.5248V28.5248ZM27.4222 28.5712C27.3042 28.7165 27.5631 28.641 27.4222 28.5712V28.5712ZM34.2672 28.581C34.0495 28.6571 34.4514 28.7499 34.2672 28.581V28.581ZM28.1937 28.6294C28.0152 28.7259 28.3682 28.7387 28.1937 28.6294V28.6294ZM35.803 28.7841C35.5818 28.9185 35.9321 28.8706 35.803 28.7841V28.7841ZM24.7024 28.749C24.564 28.7808 24.6562 28.8298 24.7024 28.749V28.749ZM34.6209 28.7637C34.454 28.8591 34.777 28.9143 34.6209 28.7637V28.7637ZM27.7224 28.7759C27.5259 28.8528 27.8869 28.8934 27.7224 28.7759V28.7759ZM24.3825 28.8467C24.3363 29.0847 24.5764 28.85 24.3825 28.8467V28.8467ZM35.7371 29.0137C35.5785 29.23 35.997 29.0796 35.7371 29.0137V29.0137ZM27.8763 28.8979C27.7353 29.0322 28.0336 29.0371 27.8763 28.8979V28.8979ZM28.2474 29.0078C28.0836 29.078 28.4004 29.12 28.2474 29.0078V29.0078ZM35.9029 29.1381C35.7805 29.283 36.1092 29.2037 35.9029 29.1381V29.1381ZM24.4679 29.0347C24.1967 28.9926 24.4633 29.1963 24.4679 29.0347V29.0347ZM24.6974 29.1885C24.5453 29.2312 24.8345 29.2975 24.6974 29.1885V29.1885ZM24.253 29.274C24.0878 29.3618 24.4082 29.3704 24.253 29.274V29.274ZM34.5451 29.3253C34.3843 29.4301 34.7185 29.4764 34.5451 29.3253V29.3253ZM28.0418 29.3301C27.8861 29.4053 28.1891 29.4493 28.0418 29.3301V29.3301ZM24.2943 29.3546C23.9908 29.5097 24.5194 29.4824 24.2943 29.3546V29.3546ZM24.6165 29.3668C24.4424 29.4618 24.7904 29.5163 24.6165 29.3668V29.3668ZM28.5521 29.3668C28.3834 29.5067 28.7109 29.4718 28.5521 29.3668V29.3668ZM30.3164 29.4425C30.1532 29.554 30.4731 29.5757 30.3164 29.4425V29.4425ZM24.414 29.5646C24.2487 29.6495 24.5757 29.6727 24.414 29.5646V29.5646ZM24.204 29.5671C24.0442 29.639 24.3544 29.687 24.204 29.5671V29.5671ZM28.6717 29.5696C28.5142 29.6783 28.8311 29.6564 28.6717 29.5696V29.5696ZM34.1544 29.5769C33.9951 29.677 34.3256 29.7233 34.1544 29.5769V29.5769ZM28.1735 29.6111C27.8945 29.7737 28.3289 29.8668 28.1735 29.6111V29.6111ZM28.3517 29.7088C28.1971 29.8033 28.4943 29.8385 28.3517 29.7088V29.7088ZM28.4494 29.76C28.4371 29.8681 28.599 29.7851 28.4494 29.76V29.76ZM24.4675 29.7991C24.2991 29.8878 24.6285 29.9045 24.4675 29.7991V29.7991ZM27.8195 29.8114C27.7819 29.9449 27.9889 29.7595 27.8195 29.8114V29.8114ZM24.36 29.8358C24.1874 29.9186 24.5308 29.9628 24.36 29.8358V29.8358ZM36.7251 30.0027C36.5089 30.2094 36.9917 30.1415 36.7251 30.0027V30.0027ZM28.4566 29.8846C28.299 29.9629 28.6067 29.9997 28.4566 29.8846V29.8846ZM28.1856 29.9335C28.0267 30.0385 28.3543 30.0734 28.1856 29.9335V29.9335ZM28.2881 29.9335C28.1293 30.0385 28.4568 30.0734 28.2881 29.9335V29.9335ZM34.43 29.9579C34.2814 30.0788 34.7112 29.9609 34.43 29.9579V29.9579ZM34.6473 29.9579C34.5314 30.2395 34.9967 30.1076 34.6473 29.9579V29.9579ZM36.2002 30.0907C36.095 30.2112 36.3373 30.149 36.2002 30.0907V30.0907ZM24.3965 29.9848C24.1977 30.2468 24.4848 30.2147 24.3965 29.9848V29.9848ZM33.998 30.0263C33.9827 30.1973 34.1986 30.2044 33.998 30.0263V30.0263ZM28.5567 30.036C28.4017 30.1327 28.6987 30.1643 28.5567 30.036V30.036ZM28.2393 30.0751C28.0658 30.1734 28.4098 30.2229 28.2393 30.0751V30.0751ZM33.7587 30.1093C33.5774 30.2741 33.9626 30.1901 33.7587 30.1093V30.1093ZM34.4911 30.119C34.2379 30.1842 34.68 30.2977 34.4911 30.119V30.119ZM28.4297 30.1556C28.1676 30.3231 28.5615 30.212 28.4297 30.1556V30.1556ZM24.0521 30.2313C23.8752 30.2802 24.1823 30.3707 24.0521 30.2313V30.2313ZM24.2523 30.2704C24.0801 30.3578 24.4211 30.3662 24.2523 30.2704V30.2704ZM24.1962 30.3632C24.0221 30.4582 24.37 30.5127 24.1962 30.3632V30.3632ZM24.3549 30.4535C24.1892 30.5394 24.5164 30.5606 24.3549 30.4535V30.4535ZM30.6187 30.4877C30.4625 30.5641 30.764 30.6052 30.6187 30.4877V30.4877ZM24.1577 30.5114C23.862 30.758 24.4303 30.5752 24.1577 30.5114V30.5114ZM33.9032 30.5456C33.7531 30.6324 34.0355 30.6818 33.9032 30.5456V30.5456ZM33.6908 30.57C33.5486 30.6821 33.8199 30.7165 33.6908 30.57V30.57ZM32.9345 30.5888C32.7244 30.7333 33.1342 30.7655 32.9345 30.5888V30.5888ZM28.4552 30.5985C28.2946 30.7001 28.6255 30.7414 28.4552 30.5985V30.5985ZM24.3171 30.6082C24.2892 30.7504 24.4424 30.5949 24.3171 30.6082V30.6082ZM28.3015 30.6302C28.144 30.6586 28.3384 30.7399 28.3015 30.6302V30.6302ZM30.3247 30.6302C30.1542 30.7299 30.4795 30.778 30.3247 30.6302V30.6302ZM33.9209 30.6595C33.7617 30.8928 34.0855 30.8747 33.9209 30.6595V30.6595ZM40.4935 30.8094C40.3194 31.3743 41.0811 30.9169 40.4935 30.8094V30.8094ZM23.6736 30.7006C23.4847 30.7738 23.8551 30.8138 23.6736 30.7006V30.7006ZM28.5956 30.708C28.4426 30.8283 28.7232 30.8735 28.5956 30.708V30.708ZM30.526 30.7129C30.381 30.8758 30.8259 30.83 30.526 30.7129V30.7129ZM28.8666 30.7178C28.8901 31.0055 29.0871 30.6784 28.8666 30.7178V30.7178ZM28.3906 30.7275C28.0424 30.7549 28.3521 30.9759 28.3906 30.7275V30.7275ZM24.4062 30.7372C24.2896 30.8039 24.4647 30.9094 24.4062 30.7372V30.7372ZM24.1924 30.741C24.1546 30.9479 24.3335 30.8488 24.1924 30.741V30.741ZM33.6961 30.7435C33.5559 30.814 33.8056 30.8871 33.6961 30.7435V30.7435ZM33.1101 30.7899C32.9356 30.8893 33.2791 30.9291 33.1101 30.7899V30.7899ZM32.0359 30.8167C31.868 30.9528 32.246 30.8989 32.0359 30.8167V30.8167ZM33.4276 30.8167C33.2099 30.8928 33.6118 30.9856 33.4276 30.8167V30.8167ZM34.2039 30.8167C34.0483 30.9592 34.4062 30.8904 34.2039 30.8167V30.8167ZM37.5024 30.947C37.3275 31.1957 37.6519 31.1829 37.5024 30.947V30.947ZM28.4576 30.8314C28.294 30.9032 28.613 30.9421 28.4576 30.8314V30.8314ZM23.6921 30.8339C23.5636 30.9812 23.8166 30.9672 23.6921 30.8339V30.8339ZM30.4759 30.8925C30.2973 31.0121 30.6621 30.966 30.4759 30.8925V30.8925ZM31.7235 30.8973C31.5633 30.9833 31.8782 31.0047 31.7235 30.8973V30.8973ZM40.2198 31.035C40.0043 31.251 40.4242 31.3776 40.2198 31.035V31.035ZM32.7784 30.9975C32.5665 31.1125 32.9862 31.0956 32.7784 30.9975V30.9975ZM31.1109 31.0072C30.9622 31.1163 31.2501 31.09 31.1109 31.0072V31.0072ZM37.9374 31.1352C37.7466 31.3212 38.2057 31.2813 37.9374 31.1352V31.1352ZM28.7803 31.0488C28.6201 31.1347 28.935 31.1561 28.7803 31.0488V31.0488ZM32.007 31.0559C31.8969 31.181 32.107 31.2322 32.007 31.0559V31.0559ZM24.2589 31.0974C24.0985 31.1866 24.4146 31.2045 24.2589 31.0974V31.0974ZM31.6996 31.1096C31.5409 31.2171 31.8463 31.2493 31.6996 31.1096V31.1096ZM32.2074 31.1096C32.029 31.2183 32.3865 31.2693 32.2074 31.1096V31.1096ZM31.7972 31.1145C31.599 31.2853 32.0245 31.2016 31.7972 31.1145V31.1145ZM32.5834 31.1242C32.3916 31.2199 32.7499 31.2712 32.5834 31.1242V31.1242ZM31.5873 31.1779C31.3695 31.2516 31.7725 31.3485 31.5873 31.1779V31.1779ZM28.7609 31.1828C28.6035 31.2933 28.9279 31.3361 28.7609 31.1828V31.1828ZM28.8683 31.1828C28.7121 31.2938 29.0355 31.3356 28.8683 31.1828V31.1828ZM24.0903 31.1926C23.9561 31.3293 24.244 31.3284 24.0903 31.1926V31.1926ZM32.6466 31.2487C32.4924 31.3491 32.8227 31.3152 32.6466 31.2487V31.2487ZM33.3693 31.2487C33.203 31.3785 33.5624 31.3053 33.3693 31.2487V31.2487ZM40.2907 31.3766C40.1207 31.4865 40.4711 31.4723 40.2907 31.3766V31.3766ZM39.8561 31.3986C39.7214 31.5619 40.0856 31.494 39.8561 31.3986V31.3986ZM33.1029 31.2952C32.9955 31.6094 33.2957 31.4263 33.1029 31.2952V31.2952ZM40.0831 31.4232C39.8346 31.6067 40.3345 31.5568 40.0831 31.4232V31.4232ZM39.7267 31.4257C39.6139 31.4995 39.8157 31.4957 39.7267 31.4257V31.4257ZM40.3395 31.4769C40.08 31.6081 40.5861 31.6553 40.3395 31.4769V31.4769ZM31.1256 31.354C30.9938 31.3828 31.2166 31.4712 31.1256 31.354V31.354ZM32.5562 31.3614C32.1797 31.4109 32.787 31.6461 32.5562 31.3614V31.3614ZM23.9778 31.3882C23.7942 31.5553 24.194 31.467 23.9778 31.3882V31.3882ZM29.8364 31.4078C29.5544 31.4596 29.9618 31.787 29.8364 31.4078V31.4078ZM31.162 31.4078C31.0193 31.5408 31.3511 31.4564 31.162 31.4078V31.4078ZM30.6688 31.4103C30.5262 31.4645 30.7902 31.5399 30.6688 31.4103V31.4103ZM23.5775 31.4371C23.3009 31.419 23.6475 31.758 23.5775 31.4371V31.4371ZM31.5969 31.4591C31.3854 31.5174 31.7584 31.6075 31.5969 31.4591V31.4591ZM31.3674 31.5006C31.2066 31.6054 31.5408 31.6518 31.3674 31.5006V31.5006ZM32.5198 31.5226C32.3498 31.7063 32.7176 31.6066 32.5198 31.5226V31.5226ZM30.0247 31.5251C29.8056 31.6903 30.2444 31.6328 30.0247 31.5251V31.5251ZM23.9415 31.6203C23.8631 31.5509 23.9176 31.6905 23.9415 31.6203V31.6203ZM30.3663 31.6203C30.1889 31.7246 30.546 31.7815 30.3663 31.6203V31.6203ZM30.9498 31.63C30.6267 31.8535 31.3135 31.6699 30.9498 31.63V31.63ZM28.9217 31.7521C28.7646 31.8739 29.0855 31.9239 28.9217 31.7521V31.7521Z" fill="#232323"/>
<defs>
<filter id="filter0_f_4_12314" x="3.2625" y="3.2625" width="57.475" height="57.475" filterUnits="userSpaceOnUse" color-interpolation-filters="sRGB">
<feFlood flood-opacity="0" result="BackgroundImageFix"/>
<feBlend mode="normal" in="SourceGraphic" in2="BackgroundImageFix" result="shape"/>
<feGaussianBlur stdDeviation="0.61875" result="effect1_foregroundBlur_4_12314"/>
</filter>
<linearGradient id="paint0_linear_4_12314" x1="4.5" y1="32" x2="59.5" y2="32" gradientUnits="userSpaceOnUse">
<stop stop-color="#FDFC47"/>
<stop offset="1" stop-color="#24FE41"/>
</linearGradient>
<linearGradient id="paint1_linear_4_12314" x1="4.5" y1="32" x2="59.5" y2="32" gradientUnits="userSpaceOnUse">
<stop stop-color="#FDFC47"/>
<stop offset="1" stop-color="#24FE41"/>
</linearGradient>
<linearGradient id="paint2_linear_4_12314" x1="17" y1="32" x2="46.9993" y2="32" gradientUnits="userSpaceOnUse">
<stop stop-color="#FDFC47"/>
<stop offset="1" stop-color="#24FE41"/>
</linearGradient>
</defs>
</svg>
