<svg width="64" height="64" viewBox="0 0 64 64" fill="none" xmlns="http://www.w3.org/2000/svg">
<g clip-path="url(#clip0_4_12283)">
<g opacity="0.3" filter="url(#filter0_f_4_12283)">
<path d="M44.5 4.5H19.5C11.2157 4.5 4.5 11.2157 4.5 19.5V44.5C4.5 52.7843 11.2157 59.5 19.5 59.5H44.5C52.7843 59.5 59.5 52.7843 59.5 44.5V19.5C59.5 11.2157 52.7843 4.5 44.5 4.5Z" fill="url(#paint0_linear_4_12283)"/>
</g>
<path d="M19.5 5H44.5C52.5081 5 59 11.4919 59 19.5V44.5C59 52.5081 52.5081 59 44.5 59H19.5C11.4919 59 5 52.5081 5 44.5V19.5C5 11.4919 11.4919 5 19.5 5Z" fill="#232323" stroke="url(#paint1_linear_4_12283)"/>
<path opacity="0.3" fill-rule="evenodd" clip-rule="evenodd" d="M49.9993 43.4742C50.0008 47.2932 41.9415 50.3894 31.9997 50.3894C22.0578 50.3894 13.9983 47.2932 14 43.4742C13.9985 39.6552 22.0578 36.559 31.9997 36.559C41.9415 36.559 50.001 39.6552 49.9993 43.4742Z" fill="url(#paint2_linear_4_12283)"/>
<path d="M47.4495 41.2891C47.4495 44.6977 40.5259 47.4641 31.9952 47.4641C23.4639 47.4641 16.5409 44.6977 16.5409 41.2891C16.5409 31.412 14.6519 35.2427 31.9952 35.1142C49.7357 34.9815 47.4495 30.5618 47.4495 41.2891Z" fill="url(#paint3_linear_4_12283)" stroke="#232323" stroke-width="0.83591"/>
<path d="M47.4638 35.3433C47.4638 38.8057 40.5402 41.6126 31.9995 41.6126C23.459 41.6126 16.5352 38.8057 16.5352 35.3433C16.5352 31.8809 23.4587 29.074 31.9995 29.074C40.54 29.074 47.4638 31.8809 47.4638 35.3433Z" fill="url(#paint4_linear_4_12283)" stroke="url(#paint5_linear_4_12283)" stroke-width="0.83591"/>
<path d="M47.4495 33.7659C47.4495 37.1745 40.5259 39.9409 31.9952 39.9409C23.4639 39.9409 16.5409 37.1745 16.5409 33.7659C16.5409 22.8397 14.6519 27.7195 31.9952 27.591C49.7357 27.4583 47.4495 22.8341 47.4495 33.7659Z" fill="url(#paint6_linear_4_12283)" stroke="#232323" stroke-width="0.83591"/>
<path d="M47.4638 27.8201C47.4638 31.2825 40.5402 34.0894 31.9995 34.0894C23.459 34.0894 16.5352 31.2825 16.5352 27.8201C16.5352 24.3577 23.4587 21.5508 31.9995 21.5508C40.54 21.5508 47.4638 24.3577 47.4638 27.8201Z" fill="url(#paint7_linear_4_12283)" stroke="#232323" stroke-width="0.83591"/>
<path d="M47.4495 26.2427C47.4495 29.6513 40.5259 32.4177 31.9952 32.4177C23.4639 32.4177 16.5409 29.6513 16.5409 26.2427C16.5409 14.581 14.6519 20.1964 31.9952 20.0678C49.7357 19.9352 47.4495 15.436 47.4495 26.2427Z" fill="url(#paint8_linear_4_12283)" stroke="#232323" stroke-width="0.83591"/>
<path d="M47.4638 20.2969C47.4638 23.7593 40.5402 26.5662 31.9995 26.5662C23.459 26.5662 16.5352 23.7593 16.5352 20.2969C16.5352 16.8345 23.4587 14.0276 31.9995 14.0276C40.54 14.0276 47.4638 16.8345 47.4638 20.2969Z" fill="url(#paint9_linear_4_12283)" stroke="#232323" stroke-width="0.83591"/>
<path opacity="0.5" d="M46.6279 20.7149C46.6279 17.4832 40.0786 14.8635 31.9995 14.8635C23.9205 14.8635 17.3711 17.4832 17.3711 20.7149V40.7767C17.3711 44.0083 23.9205 46.6281 31.9995 46.6281C40.0786 46.6281 46.6279 44.0083 46.6279 40.7767V20.7149Z" stroke="#232323" stroke-width="0.83591"/>
<g opacity="0.5" filter="url(#filter1_f_4_12283)">
<path fill-rule="evenodd" clip-rule="evenodd" d="M55.9313 40.779C55.8965 40.4697 55.5359 40.2373 55.2241 40.2373C54.216 40.2373 53.3214 39.6454 52.9463 38.73C52.5631 37.7924 52.8102 36.699 53.5615 36.0099C53.798 35.7938 53.8267 35.4319 53.6284 35.1805C53.1124 34.5253 52.526 33.9335 51.8857 33.4206C51.635 33.2194 51.2671 33.2474 51.0497 33.4881C50.394 34.2142 49.2162 34.4841 48.3061 34.1044C47.359 33.706 46.7618 32.7463 46.8202 31.7162C46.8394 31.3926 46.6029 31.1113 46.2803 31.0737C45.4586 30.9787 44.6297 30.9757 43.8056 31.0672C43.4867 31.1024 43.2502 31.3771 43.261 31.6966C43.2968 32.7166 42.6924 33.6595 41.7547 34.0436C40.8554 34.4109 39.686 34.1433 39.0316 33.4236C38.8153 33.1865 38.4534 33.1574 38.2015 33.3538C37.5421 33.871 36.9426 34.4634 36.4219 35.1131C36.2188 35.3657 36.2486 35.7318 36.4875 35.9491C37.2531 36.6425 37.5003 37.7453 37.1026 38.6937C36.7229 39.5979 35.7839 40.1806 34.709 40.1806C34.3602 40.1694 34.1118 40.4035 34.0736 40.7206C33.9768 41.547 33.9757 42.3891 34.0689 43.2222C34.1034 43.5328 34.475 43.7631 34.7902 43.7631C35.7481 43.7387 36.6678 44.3317 37.0536 45.2705C37.4382 46.2081 37.191 47.3009 36.4385 47.9906C36.2032 48.2068 36.1733 48.5681 36.3716 48.8195C36.8828 49.4705 37.4692 50.0629 38.1118 50.5801C38.3639 50.7832 38.7306 50.7545 38.9491 50.5138C39.6072 49.7858 40.7849 49.5164 41.6914 49.8969C42.6408 50.2941 43.2381 51.2537 43.1796 52.2844C43.1605 52.6082 43.3981 52.89 43.7194 52.927C44.1398 52.976 44.5627 53.0005 44.9867 53.0005C45.3892 53.0005 45.7918 52.9784 46.1943 52.9336C46.5133 52.8985 46.7496 52.6237 46.7389 52.3037C46.702 51.2843 47.3075 50.3413 48.2439 49.958C49.1492 49.5883 50.3138 49.8589 50.9682 50.5778C51.1857 50.8144 51.5451 50.8429 51.7984 50.6472C52.4565 50.1312 53.0548 49.5394 53.578 48.8878C53.781 48.6358 53.7524 48.2691 53.5123 48.0518C52.7467 47.3585 52.4982 46.2554 52.896 45.3076C53.2699 44.4155 54.174 43.8164 55.1464 43.8164L55.2825 43.82C55.5979 43.8457 55.888 43.6027 55.9263 43.2808C56.0232 42.4536 56.0246 41.6121 55.9313 40.779ZM45.0173 45.6928C42.9939 45.6928 41.3481 44.047 41.3481 42.0237C41.3481 40.0004 42.9939 38.3545 45.0173 38.3545C47.0406 38.3545 48.6865 40.0004 48.6865 42.0237C48.6865 44.047 47.0407 45.6928 45.0173 45.6928Z" fill="url(#paint10_linear_4_12283)"/>
</g>
<path fill-rule="evenodd" clip-rule="evenodd" d="M55.9313 40.779C55.8965 40.4697 55.5359 40.2373 55.2241 40.2373C54.216 40.2373 53.3214 39.6454 52.9463 38.73C52.5631 37.7924 52.8102 36.699 53.5615 36.0099C53.798 35.7938 53.8267 35.4319 53.6284 35.1805C53.1124 34.5253 52.526 33.9335 51.8857 33.4206C51.635 33.2194 51.2671 33.2474 51.0497 33.4881C50.394 34.2142 49.2162 34.4841 48.3061 34.1044C47.359 33.706 46.7618 32.7463 46.8202 31.7162C46.8394 31.3926 46.6029 31.1113 46.2803 31.0737C45.4586 30.9787 44.6297 30.9757 43.8056 31.0672C43.4867 31.1024 43.2502 31.3771 43.261 31.6966C43.2968 32.7166 42.6924 33.6595 41.7547 34.0436C40.8554 34.4109 39.686 34.1433 39.0316 33.4236C38.8153 33.1865 38.4534 33.1574 38.2015 33.3538C37.5421 33.871 36.9426 34.4634 36.4219 35.1131C36.2188 35.3657 36.2486 35.7318 36.4875 35.9491C37.2531 36.6425 37.5003 37.7453 37.1026 38.6937C36.7229 39.5979 35.7839 40.1806 34.709 40.1806C34.3602 40.1694 34.1118 40.4035 34.0736 40.7206C33.9768 41.547 33.9757 42.3891 34.0689 43.2222C34.1034 43.5328 34.475 43.7631 34.7902 43.7631C35.7481 43.7387 36.6678 44.3317 37.0536 45.2705C37.4382 46.2081 37.191 47.3009 36.4385 47.9906C36.2032 48.2068 36.1733 48.5681 36.3716 48.8195C36.8828 49.4705 37.4692 50.0629 38.1118 50.5801C38.3639 50.7832 38.7306 50.7545 38.9491 50.5138C39.6072 49.7858 40.7849 49.5164 41.6914 49.8969C42.6408 50.2941 43.2381 51.2537 43.1796 52.2844C43.1605 52.6082 43.3981 52.89 43.7194 52.927C44.1398 52.976 44.5627 53.0005 44.9867 53.0005C45.3892 53.0005 45.7918 52.9784 46.1943 52.9336C46.5133 52.8985 46.7496 52.6237 46.7389 52.3037C46.702 51.2843 47.3075 50.3413 48.2439 49.958C49.1492 49.5883 50.3138 49.8589 50.9682 50.5778C51.1857 50.8144 51.5451 50.8429 51.7984 50.6472C52.4565 50.1312 53.0548 49.5394 53.578 48.8878C53.781 48.6358 53.7524 48.2691 53.5123 48.0518C52.7467 47.3585 52.4982 46.2554 52.896 45.3076C53.2699 44.4155 54.174 43.8164 55.1464 43.8164L55.2825 43.82C55.5979 43.8457 55.888 43.6027 55.9263 43.2808C56.0232 42.4536 56.0246 41.6121 55.9313 40.779ZM45.0173 45.6928C42.9939 45.6928 41.3481 44.047 41.3481 42.0237C41.3481 40.0004 42.9939 38.3545 45.0173 38.3545C47.0406 38.3545 48.6865 40.0004 48.6865 42.0237C48.6865 44.047 47.0407 45.6928 45.0173 45.6928Z" fill="url(#paint11_linear_4_12283)"/>
</g>
<defs>
<filter id="filter0_f_4_12283" x="3.2625" y="3.2625" width="57.475" height="57.475" filterUnits="userSpaceOnUse" color-interpolation-filters="sRGB">
<feFlood flood-opacity="0" result="BackgroundImageFix"/>
<feBlend mode="normal" in="SourceGraphic" in2="BackgroundImageFix" result="shape"/>
<feGaussianBlur stdDeviation="0.61875" result="effect1_foregroundBlur_4_12283"/>
</filter>
<filter id="filter1_f_4_12283" x="32.9" y="29.9005" width="24.2" height="24.2001" filterUnits="userSpaceOnUse" color-interpolation-filters="sRGB">
<feFlood flood-opacity="0" result="BackgroundImageFix"/>
<feBlend mode="normal" in="SourceGraphic" in2="BackgroundImageFix" result="shape"/>
<feGaussianBlur stdDeviation="0.550001" result="effect1_foregroundBlur_4_12283"/>
</filter>
<linearGradient id="paint0_linear_4_12283" x1="4.5" y1="32" x2="59.5" y2="32" gradientUnits="userSpaceOnUse">
<stop stop-color="#FDFC47"/>
<stop offset="1" stop-color="#24FE41"/>
</linearGradient>
<linearGradient id="paint1_linear_4_12283" x1="4.5" y1="32" x2="59.5" y2="32" gradientUnits="userSpaceOnUse">
<stop stop-color="#FDFC47"/>
<stop offset="1" stop-color="#24FE41"/>
</linearGradient>
<linearGradient id="paint2_linear_4_12283" x1="14" y1="43.4742" x2="49.9993" y2="43.4742" gradientUnits="userSpaceOnUse">
<stop stop-color="#FDFC47"/>
<stop offset="1" stop-color="#24FE41"/>
</linearGradient>
<linearGradient id="paint3_linear_4_12283" x1="16.4805" y1="40.7826" x2="47.5455" y2="40.7826" gradientUnits="userSpaceOnUse">
<stop stop-color="#FDFC47"/>
<stop offset="1" stop-color="#24FE41"/>
</linearGradient>
<linearGradient id="paint4_linear_4_12283" x1="16.5352" y1="35.3433" x2="47.4638" y2="35.3433" gradientUnits="userSpaceOnUse">
<stop stop-color="#FDFC47"/>
<stop offset="1" stop-color="#24FE41"/>
</linearGradient>
<linearGradient id="paint5_linear_4_12283" x1="16.5352" y1="35.3433" x2="47.4638" y2="35.3433" gradientUnits="userSpaceOnUse">
<stop stop-color="#FDFC47"/>
<stop offset="1" stop-color="#24FE41"/>
</linearGradient>
<linearGradient id="paint6_linear_4_12283" x1="16.4805" y1="33.2244" x2="47.5455" y2="33.2244" gradientUnits="userSpaceOnUse">
<stop stop-color="#FDFC47"/>
<stop offset="1" stop-color="#24FE41"/>
</linearGradient>
<linearGradient id="paint7_linear_4_12283" x1="16.5352" y1="27.8201" x2="47.4638" y2="27.8201" gradientUnits="userSpaceOnUse">
<stop stop-color="#FDFC47"/>
<stop offset="1" stop-color="#24FE41"/>
</linearGradient>
<linearGradient id="paint8_linear_4_12283" x1="16.4805" y1="25.6227" x2="47.5455" y2="25.6227" gradientUnits="userSpaceOnUse">
<stop stop-color="#FDFC47"/>
<stop offset="1" stop-color="#24FE41"/>
</linearGradient>
<linearGradient id="paint9_linear_4_12283" x1="16.5352" y1="20.2969" x2="47.4638" y2="20.2969" gradientUnits="userSpaceOnUse">
<stop stop-color="#FDFC47"/>
<stop offset="1" stop-color="#24FE41"/>
</linearGradient>
<linearGradient id="paint10_linear_4_12283" x1="34" y1="42.0005" x2="56" y2="42.0005" gradientUnits="userSpaceOnUse">
<stop stop-color="#FDFC47"/>
<stop offset="1" stop-color="#24FE41"/>
</linearGradient>
<linearGradient id="paint11_linear_4_12283" x1="34" y1="42.0005" x2="56" y2="42.0005" gradientUnits="userSpaceOnUse">
<stop stop-color="#FDFC47"/>
<stop offset="1" stop-color="#24FE41"/>
</linearGradient>
<clipPath id="clip0_4_12283">
<rect width="64" height="64" fill="white"/>
</clipPath>
</defs>
</svg>
