<svg width="64" height="64" viewBox="0 0 64 64" fill="none" xmlns="http://www.w3.org/2000/svg">
<g opacity="0.3" filter="url(#filter0_f_4_12150)">
<path d="M44.5 4.5H19.5C11.2157 4.5 4.5 11.2157 4.5 19.5V44.5C4.5 52.7843 11.2157 59.5 19.5 59.5H44.5C52.7843 59.5 59.5 52.7843 59.5 44.5V19.5C59.5 11.2157 52.7843 4.5 44.5 4.5Z" fill="#232323"/>
<path d="M19.5 5H44.5C52.5081 5 59 11.4919 59 19.5V44.5C59 52.5081 52.5081 59 44.5 59H19.5C11.4919 59 5 52.5081 5 44.5V19.5C5 11.4919 11.4919 5 19.5 5Z" stroke="url(#paint0_linear_4_12150)"/>
</g>
<path d="M19.5 5H44.5C52.5081 5 59 11.4919 59 19.5V44.5C59 52.5081 52.5081 59 44.5 59H19.5C11.4919 59 5 52.5081 5 44.5V19.5C5 11.4919 11.4919 5 19.5 5Z" fill="#232323" stroke="url(#paint1_linear_4_12150)"/>
<path d="M23.6308 14.5C23.5258 14.5074 23.424 14.5395 23.3339 14.5937C16.5426 18.5147 13.2289 26.5167 15.2583 34.0917C16.8253 39.9396 21.3324 44.5467 27.1443 46.2427C27.2435 46.2718 27.3482 46.2774 27.45 46.259C27.5517 46.2407 27.6478 46.1989 27.7307 46.137C27.8136 46.0752 27.8809 45.9948 27.9273 45.9024C27.9738 45.8101 27.9981 45.7081 27.9984 45.6047V39.4666C28.4324 39.6468 28.8778 39.7982 29.3317 39.9197V47.9927C26.2705 47.5468 23.3403 46.4308 20.8524 44.5787C14.2349 39.652 11.6375 30.9747 14.4591 23.2207C14.4991 23.1163 14.5122 23.0034 14.4971 22.8926C14.4821 22.7818 14.4394 22.6765 14.373 22.5865C14.3066 22.4965 14.2186 22.4247 14.1172 22.3776C14.0157 22.3305 13.9041 22.3097 13.7925 22.3171C13.6616 22.3258 13.5361 22.373 13.4319 22.4526C13.3277 22.5323 13.2493 22.641 13.2065 22.765C10.1854 31.0659 12.9727 40.373 20.0582 45.648C22.9429 47.7956 26.3537 49.1246 29.9307 49.497C30.0234 49.5064 30.1169 49.4964 30.2054 49.4675C30.2939 49.4385 30.3754 49.3914 30.4446 49.3291C30.5138 49.2668 30.5691 49.1907 30.6071 49.1057C30.6451 49.0207 30.6648 48.9286 30.6651 48.8355V40.1766C31.108 40.2358 31.5542 40.2671 32.0011 40.2704C32.448 40.2663 32.8942 40.2341 33.3371 40.174V48.8356C33.3373 48.929 33.3571 49.0212 33.3953 49.1064C33.4334 49.1916 33.489 49.2679 33.5585 49.3302C33.628 49.3926 33.7098 49.4397 33.7986 49.4684C33.8874 49.4971 33.9813 49.5069 34.0741 49.4971C37.6504 49.1244 41.0599 47.7953 43.9439 45.6481C51.0293 40.3731 53.8141 31.0651 50.7929 22.7651C50.7453 22.6272 50.6538 22.5087 50.5325 22.4278C50.4111 22.3469 50.2666 22.308 50.121 22.3172C50.0167 22.3237 49.9153 22.3548 49.8252 22.4077C49.735 22.4607 49.6586 22.5341 49.6021 22.6221C49.5456 22.7101 49.5105 22.8101 49.4998 22.9141C49.489 23.0181 49.5029 23.1232 49.5403 23.2208C52.3619 30.9736 49.7644 39.6518 43.147 44.5788C40.659 46.4311 37.7319 47.5496 34.6704 47.9955V39.9121C35.1248 39.7958 35.5711 39.6497 36.0064 39.4746V45.6049C36.0068 45.708 36.0311 45.8097 36.0774 45.9018C36.1237 45.9939 36.1908 46.0741 36.2733 46.1359C36.3558 46.1978 36.4516 46.2396 36.553 46.2582C36.6545 46.2767 36.7588 46.2715 36.8579 46.2429C42.6692 44.5462 47.1769 39.9394 48.7439 34.0919C50.7735 26.5172 47.4595 18.5159 40.6683 14.5939C40.5531 14.5248 40.4196 14.4922 40.2855 14.5002C40.1418 14.5092 40.0048 14.5644 39.8951 14.6577C39.7854 14.751 39.7089 14.8773 39.6769 15.0177C39.645 15.1581 39.6593 15.3051 39.7179 15.4367C39.7764 15.5682 39.876 15.6773 40.0016 15.7476C46.2758 19.37 49.3325 26.7466 47.4574 33.7456C46.0925 38.8397 42.2688 42.8294 37.3404 44.5896V38.8682C38.0918 38.7136 38.7668 38.3045 39.2517 37.7101C39.7365 37.1157 40.0015 36.3722 40.0019 35.6051C40.0013 34.9455 39.8049 34.301 39.4378 33.753C39.0707 33.2051 38.5492 32.7784 37.9394 32.5269C39.056 27.2332 41.3353 29.0673 41.3353 27.0528V26.321C41.3353 24.428 35.6088 14.938 32.0019 14.938C28.3949 14.938 22.6685 24.428 22.6685 26.321V27.0528C22.6685 29.067 24.9476 27.2332 26.0644 32.5242C25.4543 32.7758 24.9325 33.2029 24.5653 33.7513C24.1982 34.2998 24.002 34.9449 24.0018 35.6049C24.003 36.3719 24.2686 37.115 24.7539 37.7089C25.2392 38.3029 25.9145 38.7113 26.6658 38.8653V44.5919C21.7353 42.8325 17.9112 38.8408 16.5458 33.7449C14.6707 26.7468 17.7274 19.3699 24.0016 15.7469C24.1339 15.6731 24.237 15.5564 24.2941 15.4162C24.3513 15.2759 24.3589 15.1204 24.3159 14.9752C24.2728 14.83 24.1817 14.7038 24.0573 14.6174C23.933 14.5309 23.7829 14.4893 23.6319 14.4995L23.6308 14.5ZM27.3339 33.604C27.8643 33.604 28.373 33.8147 28.7481 34.1898C29.1231 34.5648 29.3339 35.0736 29.3339 35.604C29.3339 36.1344 29.1231 36.6431 28.7481 37.0182C28.373 37.3933 27.8643 37.604 27.3339 37.604C26.8034 37.604 26.2947 37.3933 25.9196 37.0182C25.5446 36.6431 25.3339 36.1344 25.3339 35.604C25.3339 35.0736 25.5446 34.5648 25.9196 34.1898C26.2947 33.8147 26.8034 33.604 27.3339 33.604ZM36.6673 33.604C37.1977 33.604 37.7064 33.8147 38.0815 34.1898C38.4565 34.5648 38.6673 35.0736 38.6673 35.604C38.6673 36.1344 38.4565 36.6431 38.0815 37.0182C37.7064 37.3933 37.1977 37.604 36.6673 37.604C36.1368 37.604 35.6281 37.3933 35.253 37.0182C34.878 36.6431 34.6673 36.1344 34.6673 35.604C34.6673 35.0736 34.878 34.5648 35.253 34.1898C35.6281 33.8147 36.1368 33.604 36.6673 33.604Z" fill="url(#paint2_linear_4_12150)"/>
<defs>
<filter id="filter0_f_4_12150" x="3.2625" y="3.2625" width="57.475" height="57.475" filterUnits="userSpaceOnUse" color-interpolation-filters="sRGB">
<feFlood flood-opacity="0" result="BackgroundImageFix"/>
<feBlend mode="normal" in="SourceGraphic" in2="BackgroundImageFix" result="shape"/>
<feGaussianBlur stdDeviation="0.61875" result="effect1_foregroundBlur_4_12150"/>
</filter>
<linearGradient id="paint0_linear_4_12150" x1="4.5" y1="32" x2="59.5" y2="32" gradientUnits="userSpaceOnUse">
<stop stop-color="#FDFC47"/>
<stop offset="1" stop-color="#24FE41"/>
</linearGradient>
<linearGradient id="paint1_linear_4_12150" x1="4.5" y1="32" x2="59.5" y2="32" gradientUnits="userSpaceOnUse">
<stop stop-color="#FDFC47"/>
<stop offset="1" stop-color="#24FE41"/>
</linearGradient>
<linearGradient id="paint2_linear_4_12150" x1="12" y1="31.9994" x2="51.9999" y2="31.9994" gradientUnits="userSpaceOnUse">
<stop stop-color="#FDFC47"/>
<stop offset="1" stop-color="#24FE41"/>
</linearGradient>
</defs>
</svg>
