<svg width="64" height="64" viewBox="0 0 64 64" fill="none" xmlns="http://www.w3.org/2000/svg">
<g clip-path="url(#clip0_4_12061)">
<g opacity="0.3" filter="url(#filter0_f_4_12061)">
<path d="M44.5 4.5H19.5C11.2157 4.5 4.5 11.2157 4.5 19.5V44.5C4.5 52.7843 11.2157 59.5 19.5 59.5H44.5C52.7843 59.5 59.5 52.7843 59.5 44.5V19.5C59.5 11.2157 52.7843 4.5 44.5 4.5Z" fill="url(#paint0_linear_4_12061)"/>
</g>
<path d="M19.5 5H44.5C52.5081 5 59 11.4919 59 19.5V44.5C59 52.5081 52.5081 59 44.5 59H19.5C11.4919 59 5 52.5081 5 44.5V19.5C5 11.4919 11.4919 5 19.5 5Z" fill="#232323" stroke="url(#paint1_linear_4_12061)"/>
<path d="M27.3105 24.3401H41.7928C44.8453 24.3401 47.3182 26.8142 47.3182 29.8654V34.1397C47.3182 37.187 44.844 39.6599 41.7928 39.6599H27.3105C24.258 39.6599 21.7852 37.1857 21.7852 34.1397V29.8654C21.7852 26.813 24.2593 24.3401 27.3105 24.3401Z" fill="url(#paint2_linear_4_12061)"/>
<path d="M34.5528 32C34.5528 36.9368 30.553 40.9365 25.6162 40.9365C20.6794 40.9365 16.6797 36.9368 16.6797 32C16.6797 27.0632 20.6794 23.0634 25.6162 23.0634C30.553 23.0634 34.5528 27.0632 34.5528 32Z" fill="url(#paint3_linear_4_12061)"/>
<path opacity="0.5" d="M30.721 32C30.721 34.8227 28.4371 37.1066 25.6144 37.1066C22.7917 37.1066 20.5078 34.8227 20.5078 32C20.5078 29.1773 22.7917 26.8934 25.6144 26.8934C28.4371 26.8934 30.721 29.1773 30.721 32Z" fill="#232323"/>
</g>
<defs>
<filter id="filter0_f_4_12061" x="3.2625" y="3.2625" width="57.475" height="57.475" filterUnits="userSpaceOnUse" color-interpolation-filters="sRGB">
<feFlood flood-opacity="0" result="BackgroundImageFix"/>
<feBlend mode="normal" in="SourceGraphic" in2="BackgroundImageFix" result="shape"/>
<feGaussianBlur stdDeviation="0.61875" result="effect1_foregroundBlur_4_12061"/>
</filter>
<linearGradient id="paint0_linear_4_12061" x1="4.5" y1="32" x2="59.5" y2="32" gradientUnits="userSpaceOnUse">
<stop stop-color="#FDFC47"/>
<stop offset="1" stop-color="#24FE41"/>
</linearGradient>
<linearGradient id="paint1_linear_4_12061" x1="4.5" y1="32" x2="59.5" y2="32" gradientUnits="userSpaceOnUse">
<stop stop-color="#FDFC47"/>
<stop offset="1" stop-color="#24FE41"/>
</linearGradient>
<linearGradient id="paint2_linear_4_12061" x1="21.7852" y1="32" x2="47.3182" y2="32" gradientUnits="userSpaceOnUse">
<stop stop-color="#FDFC47"/>
<stop offset="1" stop-color="#24FE41"/>
</linearGradient>
<linearGradient id="paint3_linear_4_12061" x1="16.6797" y1="32" x2="34.5528" y2="32" gradientUnits="userSpaceOnUse">
<stop stop-color="#FDFC47"/>
<stop offset="1" stop-color="#24FE41"/>
</linearGradient>
<clipPath id="clip0_4_12061">
<rect width="64" height="64" fill="white"/>
</clipPath>
</defs>
</svg>
