<svg width="64" height="64" viewBox="0 0 64 64" fill="none" xmlns="http://www.w3.org/2000/svg">
<g clip-path="url(#clip0_4_10989)">
<g opacity="0.3" filter="url(#filter0_f_4_10989)">
<path d="M44.5 4.5H19.5C11.2157 4.5 4.5 11.2157 4.5 19.5V44.5C4.5 52.7843 11.2157 59.5 19.5 59.5H44.5C52.7843 59.5 59.5 52.7843 59.5 44.5V19.5C59.5 11.2157 52.7843 4.5 44.5 4.5Z" fill="url(#paint0_linear_4_10989)"/>
</g>
<path d="M19.5 5H44.5C52.5081 5 59 11.4919 59 19.5V44.5C59 52.5081 52.5081 59 44.5 59H19.5C11.4919 59 5 52.5081 5 44.5V19.5C5 11.4919 11.4919 5 19.5 5Z" fill="#232323" stroke="url(#paint1_linear_4_10989)"/>
<path opacity="0.2" d="M32.004 46.9158C40.6745 46.9158 47.7034 39.887 47.7034 31.2165C47.7034 22.546 40.6745 15.5172 32.004 15.5172C23.3335 15.5172 16.3047 22.546 16.3047 31.2165C16.3047 39.887 23.3335 46.9158 32.004 46.9158Z" stroke="url(#paint2_linear_4_10989)" stroke-width="8.99999"/>
<path d="M42.5094 42.827C39.6262 45.4233 35.8838 46.8599 32.004 46.8599C27.8403 46.8599 23.8471 45.2058 20.9029 42.2617C17.9587 39.3175 16.3047 35.3243 16.3047 31.1605C16.3047 26.9968 17.9587 23.0036 20.9029 20.0594C23.8471 17.1152 27.8403 15.4612 32.004 15.4612C35.8839 15.4613 39.6263 16.8981 42.5094 19.4944" stroke="url(#paint3_linear_4_10989)" stroke-width="8.99999"/>
<path d="M32.0053 38.7012C36.1546 38.7012 39.5184 35.3375 39.5184 31.1881C39.5184 27.0388 36.1546 23.675 32.0053 23.675C27.8559 23.675 24.4922 27.0388 24.4922 31.1881C24.4922 35.3375 27.8559 38.7012 32.0053 38.7012Z" fill="url(#paint4_linear_4_10989)"/>
<path d="M28.2999 32.4619L29.6841 29.7237V29.6995H28.0883V29.3671H30.071V29.7177L28.6928 32.4619H28.2999ZM31.5772 32.5043C31.3496 32.5043 31.1556 32.4423 30.9954 32.3184C30.8353 32.1935 30.7129 32.0126 30.6282 31.7759C30.5436 31.5381 30.5013 31.251 30.5013 30.9145C30.5013 30.58 30.5436 30.2944 30.6282 30.0577C30.7139 29.8199 30.8368 29.6386 30.997 29.5137C31.1581 29.3877 31.3516 29.3248 31.5772 29.3248C31.8029 29.3248 31.9958 29.3877 32.156 29.5137C32.3172 29.6386 32.4401 29.8199 32.5247 30.0577C32.6104 30.2944 32.6532 30.58 32.6532 30.9145C32.6532 31.251 32.6109 31.5381 32.5263 31.7759C32.4416 32.0126 32.3192 32.1935 32.159 32.3184C31.9989 32.4423 31.8049 32.5043 31.5772 32.5043ZM31.5772 32.1718C31.8029 32.1718 31.9782 32.063 32.1031 31.8454C32.2281 31.6278 32.2905 31.3175 32.2905 30.9145C32.2905 30.6465 32.2618 30.4183 32.2044 30.2299C32.148 30.0416 32.0664 29.898 31.9596 29.7993C31.8538 29.7005 31.7263 29.6512 31.5772 29.6512C31.3536 29.6512 31.1788 29.7615 31.0529 29.9821C30.9269 30.2017 30.864 30.5125 30.864 30.9145C30.864 31.1825 30.8922 31.4102 30.9486 31.5976C31.005 31.7849 31.0861 31.9275 31.1919 32.0252C31.2987 32.1229 31.4271 32.1718 31.5772 32.1718ZM34.8051 31.8817V31.7184C34.8051 31.6056 34.8283 31.5024 34.8746 31.4087C34.922 31.314 34.9905 31.2384 35.0801 31.182C35.1708 31.1246 35.2806 31.0958 35.4096 31.0958C35.5405 31.0958 35.6504 31.1246 35.739 31.182C35.8277 31.2384 35.8947 31.314 35.94 31.4087C35.9853 31.5024 36.008 31.6056 36.008 31.7184V31.8817C36.008 31.9945 35.9848 32.0983 35.9385 32.193C35.8931 32.2866 35.8256 32.3622 35.736 32.4196C35.6473 32.476 35.5385 32.5043 35.4096 32.5043C35.2786 32.5043 35.1683 32.476 35.0786 32.4196C34.989 32.3622 34.921 32.2866 34.8746 32.193C34.8283 32.0983 34.8051 31.9945 34.8051 31.8817ZM35.1134 31.7184V31.8817C35.1134 31.9753 35.1355 32.0595 35.1799 32.134C35.2242 32.2076 35.3008 32.2443 35.4096 32.2443C35.5154 32.2443 35.5899 32.2076 35.6332 32.134C35.6776 32.0595 35.6997 31.9753 35.6997 31.8817V31.7184C35.6997 31.6248 35.6786 31.5411 35.6362 31.4676C35.5939 31.393 35.5184 31.3558 35.4096 31.3558C35.3038 31.3558 35.2277 31.393 35.1814 31.4676C35.136 31.5411 35.1134 31.6248 35.1134 31.7184ZM33.2637 30.1106V29.9474C33.2637 29.8345 33.2869 29.7313 33.3332 29.6376C33.3806 29.5429 33.4491 29.4673 33.5387 29.4109C33.6294 29.3535 33.7392 29.3248 33.8682 29.3248C33.9991 29.3248 34.109 29.3535 34.1976 29.4109C34.2863 29.4673 34.3533 29.5429 34.3986 29.6376C34.4439 29.7313 34.4666 29.8345 34.4666 29.9474V30.1106C34.4666 30.2234 34.4434 30.3272 34.3971 30.4219C34.3518 30.5156 34.2843 30.5911 34.1946 30.6485C34.1059 30.705 33.9971 30.7332 33.8682 30.7332C33.7372 30.7332 33.6269 30.705 33.5372 30.6485C33.4476 30.5911 33.3796 30.5156 33.3332 30.4219C33.2869 30.3272 33.2637 30.2234 33.2637 30.1106ZM33.572 29.9474V30.1106C33.572 30.2043 33.5942 30.2884 33.6385 30.3629C33.6828 30.4365 33.7594 30.4732 33.8682 30.4732C33.974 30.4732 34.0485 30.4365 34.0918 30.3629C34.1362 30.2884 34.1583 30.2043 34.1583 30.1106V29.9474C34.1583 29.8537 34.1372 29.77 34.0949 29.6965C34.0525 29.622 33.977 29.5847 33.8682 29.5847C33.7624 29.5847 33.6863 29.622 33.64 29.6965C33.5947 29.77 33.572 29.8537 33.572 29.9474ZM33.3786 32.4619L35.5063 29.3671H35.8508L33.7231 32.4619H33.3786Z" fill="#232323"/>
</g>
<defs>
<filter id="filter0_f_4_10989" x="3.2625" y="3.2625" width="57.475" height="57.475" filterUnits="userSpaceOnUse" color-interpolation-filters="sRGB">
<feFlood flood-opacity="0" result="BackgroundImageFix"/>
<feBlend mode="normal" in="SourceGraphic" in2="BackgroundImageFix" result="shape"/>
<feGaussianBlur stdDeviation="0.61875" result="effect1_foregroundBlur_4_10989"/>
</filter>
<linearGradient id="paint0_linear_4_10989" x1="4.5" y1="32" x2="59.5" y2="32" gradientUnits="userSpaceOnUse">
<stop stop-color="#FDFC47"/>
<stop offset="1" stop-color="#24FE41"/>
</linearGradient>
<linearGradient id="paint1_linear_4_10989" x1="4.5" y1="32" x2="59.5" y2="32" gradientUnits="userSpaceOnUse">
<stop stop-color="#FDFC47"/>
<stop offset="1" stop-color="#24FE41"/>
</linearGradient>
<linearGradient id="paint2_linear_4_10989" x1="16.3047" y1="31.2165" x2="47.7034" y2="31.2165" gradientUnits="userSpaceOnUse">
<stop stop-color="#FDFC47"/>
<stop offset="1" stop-color="#24FE41"/>
</linearGradient>
<linearGradient id="paint3_linear_4_10989" x1="16.3047" y1="31.1605" x2="42.5094" y2="31.1605" gradientUnits="userSpaceOnUse">
<stop stop-color="#FDFC47"/>
<stop offset="1" stop-color="#24FE41"/>
</linearGradient>
<linearGradient id="paint4_linear_4_10989" x1="24.4922" y1="31.1881" x2="39.5184" y2="31.1881" gradientUnits="userSpaceOnUse">
<stop stop-color="#FDFC47"/>
<stop offset="1" stop-color="#24FE41"/>
</linearGradient>
<clipPath id="clip0_4_10989">
<rect width="64" height="64" fill="white"/>
</clipPath>
</defs>
</svg>
