<svg width="64" height="64" viewBox="0 0 64 64" fill="none" xmlns="http://www.w3.org/2000/svg">
<g clip-path="url(#clip0_4_11024)">
<path opacity="0.01" d="M16.5144 2C8.52359 2 2 8.74092 2 16.9982V49.002C2 57.2589 8.52359 64.0002 16.5144 64.0002H47.486C55.4768 64.0002 62.0004 57.2593 62.0004 49.002V16.9982C62.0004 8.74129 55.4768 2 47.486 2H16.5144ZM17.4859 3.96876H46.5163C53.487 3.96876 59.0989 9.76742 59.0989 16.9706V46.9685C59.0989 54.1717 53.4874 59.9703 46.5163 59.9703H17.4859C10.5152 59.9703 4.90326 54.1717 4.90326 46.9685V16.9706C4.90326 9.76742 10.5148 3.96876 17.4859 3.96876Z" fill="url(#paint0_linear_4_11024)"/>
<path opacity="0.01" d="M16.474 2.99997C9.0403 2.99997 3.00391 9.24689 3.00391 16.9376V49.0627C3.00391 56.7534 9.0403 63.0004 16.474 63.0004H47.528C54.9617 63.0004 61 56.7534 61 49.0627V16.9376C61 9.24689 54.9617 2.99997 47.528 2.99997H16.474ZM17.5029 3.96872H46.4992C53.462 3.96872 59.0668 9.76738 59.0668 16.9705V46.9685C59.0668 54.1716 53.4616 59.9703 46.4992 59.9703H17.5029C10.5401 59.9703 4.93536 54.1716 4.93536 46.9685V16.9705C4.93536 9.76738 10.5405 3.96872 17.5029 3.96872Z" fill="url(#paint1_linear_4_11024)"/>
<path opacity="0.03" d="M16.2878 3.99994C9.23618 3.99994 3.53125 9.8141 3.53125 16.998V49.0017C3.53125 56.1856 9.46522 61.9998 16.5168 61.9998H47.508C54.5596 61.9998 60.4622 56.1856 60.4622 49.0017V16.998C60.4622 9.8141 54.755 3.99994 47.7038 3.99994H47.3376C54.1182 4.32693 59.4845 9.97889 59.4845 16.9708V46.9687C59.4845 54.1719 53.7928 59.9705 46.7223 59.9705H17.2774C10.2069 59.9705 4.51516 54.1719 4.51516 46.9687V16.9708C4.51516 9.97927 9.88181 4.32763 16.662 3.99994H16.2878Z" fill="url(#paint2_linear_4_11024)"/>
<path opacity="0.03" d="M4 46.9693V49.0005C4 55.6485 9.89574 61.0006 16.5441 61.0006H47.5053C54.1532 61.0006 60.0004 55.6485 60.0004 49.0005V47.0083C59.9792 54.1932 54.1903 59.9714 47.0003 59.9714H17.0021C9.79884 59.9714 4 54.1726 4 46.9693Z" fill="url(#paint3_linear_4_11024)"/>
<path opacity="0.05" d="M4 44.9999V47.2387C4 54.5659 9.94493 60.4647 16.5929 60.4647H47.4355C54.0835 60.4647 60.0001 54.5655 60.0001 47.2387V45.043C59.9789 52.962 54.1901 59.3302 47.0001 59.3302H17.0022C9.79904 59.3302 4 52.939 4 44.9999Z" fill="url(#paint4_linear_4_11024)"/>
<path d="M17.002 4.5H46.998C53.9027 4.5 59.5 10.0973 59.5 17.002V46.998C59.5 53.9027 53.9027 59.5 46.998 59.5H17.002C10.0973 59.5 4.5 53.9027 4.5 46.998V17.002C4.5 10.0973 10.0973 4.5 17.002 4.5Z" fill="#232323" stroke="url(#paint5_linear_4_11024)"/>
<g opacity="0.5" filter="url(#filter0_f_4_11024)">
<path d="M18.9566 16.3479L17.6523 17.6522L32.0003 32.0002L46.3433 17.6522L45.0389 16.3479" fill="url(#paint6_linear_4_11024)"/>
<path d="M45.0428 47.6519L46.3473 46.3476L32.0042 32.0046L17.6562 46.3476L18.9605 47.6519" fill="url(#paint7_linear_4_11024)"/>
<path d="M16.3477 45.0379L17.652 46.3422L32 31.9992L17.652 17.6512L16.3477 18.9555" fill="url(#paint8_linear_4_11024)"/>
<path d="M47.6512 18.9569L46.3469 17.6526L32.0039 32.0006L46.3469 46.3436L47.6512 45.0393" fill="url(#paint9_linear_4_11024)"/>
</g>
<path d="M18.9566 16.3479L17.6523 17.6522L32.0003 32.0002L46.3433 17.6522L45.0389 16.3479" fill="url(#paint10_linear_4_11024)"/>
<path d="M45.0428 47.6519L46.3473 46.3476L32.0042 32.0046L17.6562 46.3476L18.9605 47.6519" fill="url(#paint11_linear_4_11024)"/>
<path d="M16.3477 45.0379L17.652 46.3422L32 31.9992L17.652 17.6512L16.3477 18.9555" fill="url(#paint12_linear_4_11024)"/>
<path d="M47.6512 18.9569L46.3469 17.6526L32.0039 32.0006L46.3469 46.3436L47.6512 45.0393" fill="url(#paint13_linear_4_11024)"/>
</g>
<defs>
<filter id="filter0_f_4_11024" x="14.7824" y="14.7827" width="34.4351" height="34.4345" filterUnits="userSpaceOnUse" color-interpolation-filters="sRGB">
<feFlood flood-opacity="0" result="BackgroundImageFix"/>
<feBlend mode="normal" in="SourceGraphic" in2="BackgroundImageFix" result="shape"/>
<feGaussianBlur stdDeviation="0.782609" result="effect1_foregroundBlur_4_11024"/>
</filter>
<linearGradient id="paint0_linear_4_11024" x1="2" y1="33.0001" x2="62.0004" y2="33.0001" gradientUnits="userSpaceOnUse">
<stop stop-color="#FDFC47"/>
<stop offset="1" stop-color="#24FE41"/>
</linearGradient>
<linearGradient id="paint1_linear_4_11024" x1="3.00391" y1="33.0002" x2="61" y2="33.0002" gradientUnits="userSpaceOnUse">
<stop stop-color="#FDFC47"/>
<stop offset="1" stop-color="#24FE41"/>
</linearGradient>
<linearGradient id="paint2_linear_4_11024" x1="3.53125" y1="32.9999" x2="60.4622" y2="32.9999" gradientUnits="userSpaceOnUse">
<stop stop-color="#FDFC47"/>
<stop offset="1" stop-color="#24FE41"/>
</linearGradient>
<linearGradient id="paint3_linear_4_11024" x1="4" y1="53.9849" x2="60.0004" y2="53.9849" gradientUnits="userSpaceOnUse">
<stop stop-color="#FDFC47"/>
<stop offset="1" stop-color="#24FE41"/>
</linearGradient>
<linearGradient id="paint4_linear_4_11024" x1="4" y1="52.7323" x2="60.0001" y2="52.7323" gradientUnits="userSpaceOnUse">
<stop stop-color="#FDFC47"/>
<stop offset="1" stop-color="#24FE41"/>
</linearGradient>
<linearGradient id="paint5_linear_4_11024" x1="4" y1="32" x2="60" y2="32" gradientUnits="userSpaceOnUse">
<stop stop-color="#FDFC47"/>
<stop offset="1" stop-color="#24FE41"/>
</linearGradient>
<linearGradient id="paint6_linear_4_11024" x1="17.6523" y1="24.174" x2="46.3433" y2="24.174" gradientUnits="userSpaceOnUse">
<stop stop-color="#FDFC47"/>
<stop offset="1" stop-color="#24FE41"/>
</linearGradient>
<linearGradient id="paint7_linear_4_11024" x1="17.6562" y1="39.8283" x2="46.3473" y2="39.8283" gradientUnits="userSpaceOnUse">
<stop stop-color="#FDFC47"/>
<stop offset="1" stop-color="#24FE41"/>
</linearGradient>
<linearGradient id="paint8_linear_4_11024" x1="16.3477" y1="31.9967" x2="32" y2="31.9967" gradientUnits="userSpaceOnUse">
<stop stop-color="#FDFC47"/>
<stop offset="1" stop-color="#24FE41"/>
</linearGradient>
<linearGradient id="paint9_linear_4_11024" x1="32.0039" y1="31.9981" x2="47.6512" y2="31.9981" gradientUnits="userSpaceOnUse">
<stop stop-color="#FDFC47"/>
<stop offset="1" stop-color="#24FE41"/>
</linearGradient>
<linearGradient id="paint10_linear_4_11024" x1="17.6523" y1="24.174" x2="46.3433" y2="24.174" gradientUnits="userSpaceOnUse">
<stop stop-color="#FDFC47"/>
<stop offset="1" stop-color="#24FE41"/>
</linearGradient>
<linearGradient id="paint11_linear_4_11024" x1="17.6562" y1="39.8283" x2="46.3473" y2="39.8283" gradientUnits="userSpaceOnUse">
<stop stop-color="#FDFC47"/>
<stop offset="1" stop-color="#24FE41"/>
</linearGradient>
<linearGradient id="paint12_linear_4_11024" x1="16.3477" y1="31.9967" x2="32" y2="31.9967" gradientUnits="userSpaceOnUse">
<stop stop-color="#FDFC47"/>
<stop offset="1" stop-color="#24FE41"/>
</linearGradient>
<linearGradient id="paint13_linear_4_11024" x1="32.0039" y1="31.9981" x2="47.6512" y2="31.9981" gradientUnits="userSpaceOnUse">
<stop stop-color="#FDFC47"/>
<stop offset="1" stop-color="#24FE41"/>
</linearGradient>
<clipPath id="clip0_4_11024">
<rect width="64" height="64" fill="white"/>
</clipPath>
</defs>
</svg>
