<svg width="64" height="64" viewBox="0 0 64 64" fill="none" xmlns="http://www.w3.org/2000/svg">
<g clip-path="url(#clip0_4_11230)">
<path opacity="0.01" d="M16.5144 2C8.52359 2 2 8.74092 2 16.9982V49.002C2 57.2589 8.52359 64.0002 16.5144 64.0002H47.486C55.4768 64.0002 62.0004 57.2593 62.0004 49.002V16.9982C62.0004 8.74129 55.4768 2 47.486 2H16.5144ZM17.4859 3.96876H46.5163C53.487 3.96876 59.0989 9.76742 59.0989 16.9706V46.9685C59.0989 54.1717 53.4874 59.9703 46.5163 59.9703H17.4859C10.5152 59.9703 4.90326 54.1717 4.90326 46.9685V16.9706C4.90326 9.76742 10.5148 3.96876 17.4859 3.96876Z" fill="url(#paint0_linear_4_11230)"/>
<path opacity="0.01" d="M16.474 2.99997C9.0403 2.99997 3.00391 9.24689 3.00391 16.9376V49.0627C3.00391 56.7534 9.0403 63.0004 16.474 63.0004H47.528C54.9617 63.0004 61 56.7534 61 49.0627V16.9376C61 9.24689 54.9617 2.99997 47.528 2.99997H16.474ZM17.5029 3.96872H46.4992C53.462 3.96872 59.0668 9.76738 59.0668 16.9705V46.9685C59.0668 54.1716 53.4616 59.9703 46.4992 59.9703H17.5029C10.5401 59.9703 4.93536 54.1716 4.93536 46.9685V16.9705C4.93536 9.76738 10.5405 3.96872 17.5029 3.96872Z" fill="url(#paint1_linear_4_11230)"/>
<path opacity="0.03" d="M16.2878 3.99994C9.23618 3.99994 3.53125 9.8141 3.53125 16.998V49.0017C3.53125 56.1856 9.46522 61.9998 16.5168 61.9998H47.508C54.5596 61.9998 60.4622 56.1856 60.4622 49.0017V16.998C60.4622 9.8141 54.755 3.99994 47.7038 3.99994H47.3376C54.1182 4.32693 59.4845 9.97889 59.4845 16.9708V46.9687C59.4845 54.1719 53.7928 59.9705 46.7223 59.9705H17.2774C10.2069 59.9705 4.51516 54.1719 4.51516 46.9687V16.9708C4.51516 9.97927 9.88181 4.32763 16.662 3.99994H16.2878Z" fill="url(#paint2_linear_4_11230)"/>
<path opacity="0.03" d="M4 46.9693V49.0005C4 55.6485 9.89574 61.0006 16.5441 61.0006H47.5053C54.1532 61.0006 60.0004 55.6485 60.0004 49.0005V47.0083C59.9792 54.1932 54.1903 59.9714 47.0003 59.9714H17.0021C9.79884 59.9714 4 54.1726 4 46.9693Z" fill="url(#paint3_linear_4_11230)"/>
<path opacity="0.05" d="M4 44.9999V47.2387C4 54.5659 9.94493 60.4647 16.5929 60.4647H47.4355C54.0835 60.4647 60.0001 54.5655 60.0001 47.2387V45.043C59.9789 52.962 54.1901 59.3302 47.0001 59.3302H17.0022C9.79904 59.3302 4 52.939 4 44.9999Z" fill="url(#paint4_linear_4_11230)"/>
<path d="M17.002 4.5H46.998C53.9027 4.5 59.5 10.0973 59.5 17.002V46.998C59.5 53.9027 53.9027 59.5 46.998 59.5H17.002C10.0973 59.5 4.5 53.9027 4.5 46.998V17.002C4.5 10.0973 10.0973 4.5 17.002 4.5Z" fill="#232323" stroke="url(#paint5_linear_4_11230)"/>
<g opacity="0.5" filter="url(#filter0_f_4_11230)">
<path d="M43 14H21C19.8954 14 19 14.8954 19 16V48C19 49.1046 19.8954 50 21 50H43C44.1046 50 45 49.1046 45 48V16C45 14.8954 44.1046 14 43 14Z" fill="url(#paint6_linear_4_11230)"/>
</g>
<path d="M43 14H21C19.8954 14 19 14.8954 19 16V48C19 49.1046 19.8954 50 21 50H43C44.1046 50 45 49.1046 45 48V16C45 14.8954 44.1046 14 43 14Z" fill="url(#paint7_linear_4_11230)"/>
<path d="M29.0201 20.525C28.8113 20.6785 28.759 20.9086 28.759 21.1773C28.759 21.6762 28.9678 22.2901 29.0723 22.5204C29.0723 22.5204 29.2289 25.2066 29.2811 25.5136C28.8112 25.552 27.9759 25.5904 27.6627 25.6671H27.245C26.3575 25.7056 25.5222 25.7439 25.1566 26.0125L25 26.1276L25.1566 26.2811C25.4177 26.5113 25.5221 27.1637 25.6265 27.8545C25.8875 29.2743 26.2008 31.0395 27.7671 31.7304L28.0804 31.8455V31.5769C28.0804 31.5769 28.1327 31.4618 28.1327 31.3083C28.1327 31.1931 28.0804 31.0013 28.0283 30.7326C28.446 30.771 29.3335 30.8478 29.6467 30.8478C29.699 31.1548 31.0564 43.6658 31.0564 43.6658H31.5786C31.5786 43.6658 32.1529 31.3098 32.1529 30.9258C32.5183 30.9258 34.1368 30.9641 34.6067 31.0025C34.5024 31.2328 34.0847 32.1922 34.0847 32.1922L34.8155 31.6934C35.0243 31.5781 39.5663 28.5467 38.941 26.5511C38.731 25.8987 38.0007 25.4382 36.7992 25.2081H36.6945C36.0158 25.2081 33.9274 25.2465 32.3611 25.3232C32.4135 24.3255 32.4135 23.7882 32.4135 23.5195V23.1741C32.4135 22.9822 32.6745 22.7136 32.8834 22.5217C33.0922 22.2915 33.3532 22.0996 33.3532 21.8694C33.3532 21.7926 33.3009 21.7159 33.2489 21.6391C32.9365 21.2936 30.6393 20.4109 29.6474 20.3342C29.3341 20.3725 29.1252 20.411 29.0207 20.526L29.0201 20.525ZM29.0724 26.8185H29.3334C29.3334 27.1639 29.4901 29.5814 29.5422 29.9267C29.1246 29.8882 28.1328 29.8114 27.8195 29.8114C27.6627 29.3126 27.6106 28.7752 27.5584 28.2381C27.5061 27.7776 27.4541 27.317 27.3496 26.8949C27.8194 26.8949 29.0724 26.8185 29.0724 26.8185ZM32.2572 28.0079C32.2572 28.0079 32.3094 27.0869 32.3094 26.7799C32.9881 26.8567 33.8756 26.895 34.7109 26.895H35.6506C35.6506 27.0485 35.5983 27.2404 35.5983 27.2404C35.4939 28.0846 35.3373 29.0823 34.8674 30.0801C34.5541 30.0801 32.6225 30.0033 32.2048 29.965C32.2048 29.6964 32.2572 28.0079 32.2572 28.0079Z" fill="#232323"/>
</g>
<defs>
<filter id="filter0_f_4_11230" x="17.45" y="12.45" width="29.1" height="39.1" filterUnits="userSpaceOnUse" color-interpolation-filters="sRGB">
<feFlood flood-opacity="0" result="BackgroundImageFix"/>
<feBlend mode="normal" in="SourceGraphic" in2="BackgroundImageFix" result="shape"/>
<feGaussianBlur stdDeviation="0.775" result="effect1_foregroundBlur_4_11230"/>
</filter>
<linearGradient id="paint0_linear_4_11230" x1="2" y1="33.0001" x2="62.0004" y2="33.0001" gradientUnits="userSpaceOnUse">
<stop stop-color="#FDFC47"/>
<stop offset="1" stop-color="#24FE41"/>
</linearGradient>
<linearGradient id="paint1_linear_4_11230" x1="3.00391" y1="33.0002" x2="61" y2="33.0002" gradientUnits="userSpaceOnUse">
<stop stop-color="#FDFC47"/>
<stop offset="1" stop-color="#24FE41"/>
</linearGradient>
<linearGradient id="paint2_linear_4_11230" x1="3.53125" y1="32.9999" x2="60.4622" y2="32.9999" gradientUnits="userSpaceOnUse">
<stop stop-color="#FDFC47"/>
<stop offset="1" stop-color="#24FE41"/>
</linearGradient>
<linearGradient id="paint3_linear_4_11230" x1="4" y1="53.9849" x2="60.0004" y2="53.9849" gradientUnits="userSpaceOnUse">
<stop stop-color="#FDFC47"/>
<stop offset="1" stop-color="#24FE41"/>
</linearGradient>
<linearGradient id="paint4_linear_4_11230" x1="4" y1="52.7323" x2="60.0001" y2="52.7323" gradientUnits="userSpaceOnUse">
<stop stop-color="#FDFC47"/>
<stop offset="1" stop-color="#24FE41"/>
</linearGradient>
<linearGradient id="paint5_linear_4_11230" x1="4" y1="32" x2="60" y2="32" gradientUnits="userSpaceOnUse">
<stop stop-color="#FDFC47"/>
<stop offset="1" stop-color="#24FE41"/>
</linearGradient>
<linearGradient id="paint6_linear_4_11230" x1="19" y1="32" x2="45" y2="32" gradientUnits="userSpaceOnUse">
<stop stop-color="#FDFC47"/>
<stop offset="1" stop-color="#24FE41"/>
</linearGradient>
<linearGradient id="paint7_linear_4_11230" x1="19" y1="32" x2="45" y2="32" gradientUnits="userSpaceOnUse">
<stop stop-color="#FDFC47"/>
<stop offset="1" stop-color="#24FE41"/>
</linearGradient>
<clipPath id="clip0_4_11230">
<rect width="64" height="64" fill="white"/>
</clipPath>
</defs>
</svg>
