<svg width="64" height="64" viewBox="0 0 64 64" fill="none" xmlns="http://www.w3.org/2000/svg">
<g clip-path="url(#clip0_4_10963)">
<g opacity="0.3" filter="url(#filter0_f_4_10963)">
<path d="M44.5 4.5H19.5C11.2157 4.5 4.5 11.2157 4.5 19.5V44.5C4.5 52.7843 11.2157 59.5 19.5 59.5H44.5C52.7843 59.5 59.5 52.7843 59.5 44.5V19.5C59.5 11.2157 52.7843 4.5 44.5 4.5Z" fill="url(#paint0_linear_4_10963)"/>
</g>
<path d="M19.5 5H44.5C52.5081 5 59 11.4919 59 19.5V44.5C59 52.5081 52.5081 59 44.5 59H19.5C11.4919 59 5 52.5081 5 44.5V19.5C5 11.4919 11.4919 5 19.5 5Z" fill="#232323" stroke="url(#paint1_linear_4_10963)"/>
<g opacity="0.15" filter="url(#filter1_f_4_10963)">
<path d="M39.5444 13.7045C39.5444 13.7045 31.403 13.7045 31.403 21.846V29.9875H25.2969V38.1289H31.403V59.467H39.5444V38.1289H46.6682L47.6859 29.9875H39.5444V23.8814C39.5444 21.846 41.5798 21.846 41.5798 21.846H47.6859V13.7045H39.5444Z" fill="url(#paint2_linear_4_10963)"/>
</g>
<path d="M40.8569 12.4836C40.8569 12.4836 32.7155 12.4836 32.7155 20.6251V28.7666H26.6094V36.908H32.7155V59.4968H40.8569V36.908H47.9807L48.9984 28.7666H40.8569V22.6604C40.8569 20.6251 42.8923 20.6251 42.8923 20.6251H48.9984V12.4836H40.8569Z" fill="url(#paint3_linear_4_10963)"/>
</g>
<defs>
<filter id="filter0_f_4_10963" x="3.2625" y="3.2625" width="57.475" height="57.475" filterUnits="userSpaceOnUse" color-interpolation-filters="sRGB">
<feFlood flood-opacity="0" result="BackgroundImageFix"/>
<feBlend mode="normal" in="SourceGraphic" in2="BackgroundImageFix" result="shape"/>
<feGaussianBlur stdDeviation="0.61875" result="effect1_foregroundBlur_4_10963"/>
</filter>
<filter id="filter1_f_4_10963" x="23.9942" y="12.4019" width="24.9959" height="48.3678" filterUnits="userSpaceOnUse" color-interpolation-filters="sRGB">
<feFlood flood-opacity="0" result="BackgroundImageFix"/>
<feBlend mode="normal" in="SourceGraphic" in2="BackgroundImageFix" result="shape"/>
<feGaussianBlur stdDeviation="0.651318" result="effect1_foregroundBlur_4_10963"/>
</filter>
<linearGradient id="paint0_linear_4_10963" x1="4.5" y1="32" x2="59.5" y2="32" gradientUnits="userSpaceOnUse">
<stop stop-color="#FDFC47"/>
<stop offset="1" stop-color="#24FE41"/>
</linearGradient>
<linearGradient id="paint1_linear_4_10963" x1="4.5" y1="32" x2="59.5" y2="32" gradientUnits="userSpaceOnUse">
<stop stop-color="#FDFC47"/>
<stop offset="1" stop-color="#24FE41"/>
</linearGradient>
<linearGradient id="paint2_linear_4_10963" x1="25.2969" y1="36.5858" x2="47.6859" y2="36.5858" gradientUnits="userSpaceOnUse">
<stop stop-color="#FDFC47"/>
<stop offset="1" stop-color="#24FE41"/>
</linearGradient>
<linearGradient id="paint3_linear_4_10963" x1="26.6094" y1="35.9902" x2="48.9984" y2="35.9902" gradientUnits="userSpaceOnUse">
<stop stop-color="#FDFC47"/>
<stop offset="1" stop-color="#24FE41"/>
</linearGradient>
<clipPath id="clip0_4_10963">
<rect width="64" height="64" fill="white"/>
</clipPath>
</defs>
</svg>
