<svg width="64" height="64" viewBox="0 0 64 64" fill="none" xmlns="http://www.w3.org/2000/svg">
<g clip-path="url(#clip0_4_10885)">
<g opacity="0.3" filter="url(#filter0_f_4_10885)">
<path d="M44.5 4.5H19.5C11.2157 4.5 4.5 11.2157 4.5 19.5V44.5C4.5 52.7843 11.2157 59.5 19.5 59.5H44.5C52.7843 59.5 59.5 52.7843 59.5 44.5V19.5C59.5 11.2157 52.7843 4.5 44.5 4.5Z" fill="url(#paint0_linear_4_10885)"/>
</g>
<path d="M19.5 5H44.5C52.5081 5 59 11.4919 59 19.5V44.5C59 52.5081 52.5081 59 44.5 59H19.5C11.4919 59 5 52.5081 5 44.5V19.5C5 11.4919 11.4919 5 19.5 5Z" fill="#232323" stroke="url(#paint1_linear_4_10885)"/>
<path fill-rule="evenodd" clip-rule="evenodd" d="M34.5366 20.8503C31.1108 20.8538 28.0075 22.9293 26.6158 26.1478C25.4723 25.5972 24.2258 25.3097 22.9632 25.3055C18.1704 25.3055 14.2852 29.3001 14.2852 34.2276C14.2852 39.1551 18.1704 43.1497 22.9632 43.1497H22.9662H43.2152C46.8072 43.1486 49.7184 40.1541 49.7179 36.4609C49.7167 32.7689 46.806 29.7763 43.2152 29.7752V29.7723V29.7685C43.2122 24.8431 39.3278 20.852 34.5372 20.852L34.5366 20.8503Z" fill="url(#paint2_linear_4_10885)"/>
</g>
<defs>
<filter id="filter0_f_4_10885" x="3.2625" y="3.2625" width="57.475" height="57.475" filterUnits="userSpaceOnUse" color-interpolation-filters="sRGB">
<feFlood flood-opacity="0" result="BackgroundImageFix"/>
<feBlend mode="normal" in="SourceGraphic" in2="BackgroundImageFix" result="shape"/>
<feGaussianBlur stdDeviation="0.61875" result="effect1_foregroundBlur_4_10885"/>
</filter>
<linearGradient id="paint0_linear_4_10885" x1="4.5" y1="32" x2="59.5" y2="32" gradientUnits="userSpaceOnUse">
<stop stop-color="#FDFC47"/>
<stop offset="1" stop-color="#24FE41"/>
</linearGradient>
<linearGradient id="paint1_linear_4_10885" x1="4.5" y1="32" x2="59.5" y2="32" gradientUnits="userSpaceOnUse">
<stop stop-color="#FDFC47"/>
<stop offset="1" stop-color="#24FE41"/>
</linearGradient>
<linearGradient id="paint2_linear_4_10885" x1="14.2852" y1="32" x2="49.718" y2="32" gradientUnits="userSpaceOnUse">
<stop stop-color="#FDFC47"/>
<stop offset="1" stop-color="#24FE41"/>
</linearGradient>
<clipPath id="clip0_4_10885">
<rect width="64" height="64" fill="white"/>
</clipPath>
</defs>
</svg>
