<svg width="64" height="64" viewBox="0 0 64 64" fill="none" xmlns="http://www.w3.org/2000/svg">
<g clip-path="url(#clip0_4_10932)">
<g opacity="0.3" filter="url(#filter0_f_4_10932)">
<path d="M44.5 4.5H19.5C11.2157 4.5 4.5 11.2157 4.5 19.5V44.5C4.5 52.7843 11.2157 59.5 19.5 59.5H44.5C52.7843 59.5 59.5 52.7843 59.5 44.5V19.5C59.5 11.2157 52.7843 4.5 44.5 4.5Z" fill="url(#paint0_linear_4_10932)"/>
</g>
<path d="M19.5 5H44.5C52.5081 5 59 11.4919 59 19.5V44.5C59 52.5081 52.5081 59 44.5 59H19.5C11.4919 59 5 52.5081 5 44.5V19.5C5 11.4919 11.4919 5 19.5 5Z" fill="#232323" stroke="url(#paint1_linear_4_10932)"/>
<path d="M41.1782 18.3254L40.257 22.7734C40.1517 23.2472 39.7043 23.6683 39.1516 23.6683H31.1505C30.2556 23.6683 29.5186 24.4053 29.5186 25.3001V26.2739C29.5186 27.1688 30.2556 27.9058 31.1505 27.9058H37.9145C38.5462 27.9058 39.0726 28.5111 38.941 29.1691C38.8094 29.8534 38.0988 33.3275 38.0198 33.6961C37.9672 34.0909 37.546 34.591 36.9144 34.591H31.3873C30.2293 34.6173 29.9924 34.6436 29.308 35.4858C28.6237 36.3281 22.5701 43.9081 22.5701 43.9081C22.5175 43.9871 22.4648 43.9607 22.4648 43.8818V18.1147C22.4648 17.5093 22.9649 17.0093 23.5703 17.0093H40.178C40.757 17.0093 41.3361 17.5885 41.1782 18.3254ZM42.3888 12.7718H21.8851C19.0688 12.7718 18.2266 14.9037 18.2266 16.2459V48.8287C18.2266 50.4342 19.0425 50.908 19.4899 51.0922C19.9373 51.2764 21.1217 51.408 21.964 50.5658C21.964 50.5658 31.7022 39.2221 31.8602 39.0378C32.0181 38.8535 32.0971 38.8535 32.2024 38.8535H38.3611C40.9932 38.8535 41.4931 37.0375 41.7827 35.9321C42.0195 35.0109 44.7305 21.8511 45.5727 17.6926C46.2044 14.4817 45.3885 12.7709 42.388 12.7709" fill="url(#paint2_linear_4_10932)"/>
</g>
<defs>
<filter id="filter0_f_4_10932" x="3.2625" y="3.2625" width="57.475" height="57.475" filterUnits="userSpaceOnUse" color-interpolation-filters="sRGB">
<feFlood flood-opacity="0" result="BackgroundImageFix"/>
<feBlend mode="normal" in="SourceGraphic" in2="BackgroundImageFix" result="shape"/>
<feGaussianBlur stdDeviation="0.61875" result="effect1_foregroundBlur_4_10932"/>
</filter>
<linearGradient id="paint0_linear_4_10932" x1="4.5" y1="32" x2="59.5" y2="32" gradientUnits="userSpaceOnUse">
<stop stop-color="#FDFC47"/>
<stop offset="1" stop-color="#24FE41"/>
</linearGradient>
<linearGradient id="paint1_linear_4_10932" x1="4.5" y1="32" x2="59.5" y2="32" gradientUnits="userSpaceOnUse">
<stop stop-color="#FDFC47"/>
<stop offset="1" stop-color="#24FE41"/>
</linearGradient>
<linearGradient id="paint2_linear_4_10932" x1="18.2266" y1="32" x2="45.7724" y2="32" gradientUnits="userSpaceOnUse">
<stop stop-color="#FDFC47"/>
<stop offset="1" stop-color="#24FE41"/>
</linearGradient>
<clipPath id="clip0_4_10932">
<rect width="64" height="64" fill="white"/>
</clipPath>
</defs>
</svg>
