<svg width="64" height="64" viewBox="0 0 64 64" fill="none" xmlns="http://www.w3.org/2000/svg">
<g opacity="0.3" filter="url(#filter0_f_4_10831)">
<path d="M44.5003 4.50003H19.5001C11.2158 4.50003 4.5 11.2158 4.5 19.5001V44.5003C4.5 52.7846 11.2158 59.5004 19.5001 59.5004H44.5003C52.7846 59.5004 59.5004 52.7846 59.5004 44.5003V19.5001C59.5004 11.2158 52.7846 4.50003 44.5003 4.50003Z" fill="#232323"/>
<path d="M19.5001 5.00003H44.5003C52.5085 5.00003 59.0004 11.4919 59.0004 19.5001V44.5003C59.0004 52.5085 52.5085 59.0004 44.5003 59.0004H19.5001C11.4919 59.0004 5 52.5085 5 44.5003V19.5001C5 11.4919 11.4919 5.00003 19.5001 5.00003Z" stroke="#232323"/>
</g>
<path d="M19.5005 5H44.5003C52.5087 5 59.0008 11.4921 59.0008 19.5005V44.5003C59.0008 52.5087 52.5087 59.0008 44.5003 59.0008H19.5005C11.4921 59.0008 5 52.5087 5 44.5003V19.5005C5 11.4921 11.4921 5 19.5005 5Z" fill="#232323" stroke="#232323"/>
<path d="M5.32659 16.434C6.55476 10.6861 11.1711 6.23515 17.0011 5.22884C18.8862 5.07076 21.0239 5 23.5278 5H40.4733C42.9776 5 45.115 5.07069 47 5.22884C52.83 6.23511 57.4464 10.6865 58.6746 16.434C58.9164 18.7563 59.0011 21.5343 59.0011 24.8637V39.1374C59.0011 42.4668 58.9164 45.2446 58.6746 47.567C57.4464 53.315 52.83 57.7659 47 58.7722C45.115 58.9304 42.9776 59.0011 40.4733 59.0011H23.5278C21.0235 59.0011 18.8862 58.9304 17.0012 58.7722C11.1711 57.766 6.55472 53.3147 5.32659 47.567C5.08479 45.2448 5 42.4668 5 39.1374V24.8637C5 21.5343 5.08479 18.7565 5.32659 16.434Z" fill="url(#paint0_linear_4_10831)" stroke="#232323"/>
<path d="M35.0294 59.003L45.6016 41.2311L45.6243 41.1928L45.6399 41.1512L45.1719 40.9754C45.6399 41.1512 45.64 41.1509 45.6402 41.1506L45.6406 41.1494L45.642 41.1457L45.6469 41.1324L45.6648 41.0831C45.6802 41.0403 45.7022 40.9778 45.7299 40.8968C45.7852 40.7349 45.8628 40.4989 45.9537 40.199C46.1353 39.5992 46.3701 38.7422 46.5848 37.7071C47.0133 35.6413 47.3663 32.8462 47.0442 29.9656C46.7219 27.0824 45.7196 24.0872 43.4136 21.6652C41.1043 19.2399 37.537 17.4413 32.1845 16.8626C30.0783 16.635 28.6757 16.333 27.8308 15.9917C27.4069 15.8204 27.1655 15.6556 27.0415 15.5212C26.9333 15.4037 26.927 15.3275 26.9368 15.2647C26.9514 15.1716 27.0215 15.015 27.23 14.7952C27.4336 14.5806 27.7344 14.3424 28.1346 14.085C28.9344 13.5708 30.0656 13.0215 31.4339 12.4567C36.8496 10.2214 45.6424 7.87739 50.9908 6.54126C54.852 8.47026 57.7217 12.0574 58.6624 16.3904C58.9096 18.7249 59.0005 21.5075 59.0005 24.8657V39.1393C59.0005 42.4688 58.9158 45.2465 58.6739 47.569C57.4458 53.317 52.8294 57.7679 46.9994 58.7742C45.1143 58.9323 42.9769 59.003 40.4727 59.003H35.0294Z" fill="url(#paint1_linear_4_10831)" stroke="#232323"/>
<path d="M25.1156 19.2874L24.7734 18.9229L24.7732 18.9231L24.7725 18.9238L24.7696 18.9264L24.7585 18.9369L24.7152 18.9776L24.55 19.1331C24.4072 19.2676 24.2022 19.4612 23.9529 19.6973C23.4544 20.1695 22.7787 20.8124 22.0699 21.4948C20.6647 22.8478 19.0937 24.3905 18.5477 25.0457L18.5477 25.0457C18.423 25.1954 18.3394 25.388 18.2782 25.5701C18.2138 25.7614 18.1596 25.9861 18.1127 26.2324C18.019 26.7252 17.9477 27.3442 17.893 28.0347C17.7835 29.418 17.7376 31.1348 17.7244 32.8023C17.7112 34.4719 17.7309 36.101 17.7539 37.312C17.7545 37.343 17.7551 37.3738 17.7557 37.4042L5.32553 16.4927C5.33072 16.4538 5.33649 16.4104 5.34176 16.3642C6.60315 10.6021 11.272 6.15761 17.1483 5.20577C18.9916 5.0578 21.0968 5 23.5261 5L40.4716 5.00004C42.8926 5.00004 44.9976 5.05602 46.8356 5.20389C52.2562 6.07895 56.6988 10.8669 58.3242 16.153L31.7533 16.3283L30.5212 16.3365L31.1696 16.9582L24.9726 18.8083L24.8595 18.8421L24.7734 18.9228L25.1156 19.2874Z" fill="url(#paint2_linear_4_10831)" stroke="#232323"/>
<g opacity="0.2" filter="url(#filter1_f_4_10831)">
<path d="M32.0364 48.8494C40.9514 48.8494 48.1784 41.6224 48.1784 32.7075C48.1784 23.7926 40.9514 16.5656 32.0364 16.5656C23.1215 16.5656 15.8945 23.7926 15.8945 32.7075C15.8945 41.6224 23.1215 48.8494 32.0364 48.8494Z" fill="#232323"/>
<path d="M47.6784 32.7075C47.6784 41.3463 40.6752 48.3494 32.0364 48.3494C23.3977 48.3494 16.3945 41.3463 16.3945 32.7075C16.3945 24.0687 23.3977 17.0656 32.0364 17.0656C40.6752 17.0656 47.6784 24.0687 47.6784 32.7075Z" stroke="#232323"/>
</g>
<path d="M47.6784 31.9626C47.6784 40.6014 40.6753 47.6045 32.0365 47.6045C23.3977 47.6045 16.3945 40.6014 16.3945 31.9626C16.3945 23.3238 23.3977 16.3207 32.0365 16.3207C40.6753 16.3207 47.6784 23.3238 47.6784 31.9626Z" fill="#232323" stroke="#232323"/>
<path d="M44.3227 31.9626C44.3227 38.7492 38.821 44.2509 32.0344 44.2509C25.2477 44.2509 19.7461 38.7492 19.7461 31.9626C19.7461 25.176 25.2477 19.6743 32.0344 19.6743C38.821 19.6743 44.3227 25.176 44.3227 31.9626Z" fill="url(#paint3_radial_4_10831)" stroke="#232323"/>
<defs>
<filter id="filter0_f_4_10831" x="3.26249" y="3.26252" width="57.475" height="57.4754" filterUnits="userSpaceOnUse" color-interpolation-filters="sRGB">
<feFlood flood-opacity="0" result="BackgroundImageFix"/>
<feBlend mode="normal" in="SourceGraphic" in2="BackgroundImageFix" result="shape"/>
<feGaussianBlur stdDeviation="0.618754" result="effect1_foregroundBlur_4_10831"/>
</filter>
<filter id="filter1_f_4_10831" x="14.926" y="15.5971" width="34.2222" height="34.2209" filterUnits="userSpaceOnUse" color-interpolation-filters="sRGB">
<feFlood flood-opacity="0" result="BackgroundImageFix"/>
<feBlend mode="normal" in="SourceGraphic" in2="BackgroundImageFix" result="shape"/>
<feGaussianBlur stdDeviation="0.484263" result="effect1_foregroundBlur_4_10831"/>
</filter>
<linearGradient id="paint0_linear_4_10831" x1="33" y1="4.5" x2="32" y2="59.5" gradientUnits="userSpaceOnUse">
<stop stop-color="#FDFC47"/>
<stop offset="1" stop-color="#24FE41"/>
</linearGradient>
<linearGradient id="paint1_linear_4_10831" x1="3.5" y1="59" x2="60" y2="5" gradientUnits="userSpaceOnUse">
<stop stop-color="#FDFC47"/>
<stop offset="1" stop-color="#24FE41"/>
</linearGradient>
<linearGradient id="paint2_linear_4_10831" x1="3" y1="4.5" x2="59.5" y2="59" gradientUnits="userSpaceOnUse">
<stop stop-color="#FDFC47"/>
<stop offset="1" stop-color="#24FE41"/>
</linearGradient>
<radialGradient id="paint3_radial_4_10831" cx="0" cy="0" r="1" gradientUnits="userSpaceOnUse" gradientTransform="translate(32.0344 31.9626) rotate(0.0794689) scale(26.9656 26.9656)">
<stop stop-color="#FDFC47"/>
<stop offset="1" stop-color="#24FE41"/>
</radialGradient>
</defs>
</svg>
