<svg width="64" height="64" viewBox="0 0 64 64" fill="none" xmlns="http://www.w3.org/2000/svg">
<g opacity="0.3" filter="url(#filter0_f_4_10813)">
<path d="M44.5003 4.50003H19.5001C11.2158 4.50003 4.5 11.2158 4.5 19.5001V44.5003C4.5 52.7846 11.2158 59.5004 19.5001 59.5004H44.5003C52.7846 59.5004 59.5004 52.7846 59.5004 44.5003V19.5001C59.5004 11.2158 52.7846 4.50003 44.5003 4.50003Z" fill="#232323"/>
<path d="M19.5001 5.00003H44.5003C52.5085 5.00003 59.0004 11.4919 59.0004 19.5001V44.5003C59.0004 52.5085 52.5085 59.0004 44.5003 59.0004H19.5001C11.4919 59.0004 5 52.5085 5 44.5003V19.5001C5 11.4919 11.4919 5.00003 19.5001 5.00003Z" stroke="#232323"/>
</g>
<path d="M19.5001 5H44.5007C52.5088 5 59.0008 11.4919 59.0008 19.5001V44.5007C59.0008 52.5089 52.5088 59.0008 44.5007 59.0008H19.5001C11.4919 59.0008 5 52.5089 5 44.5007V19.5001C5 11.4919 11.4919 5 19.5001 5Z" fill="#232323" stroke="#232323"/>
<path d="M5.32659 16.4336C6.55438 10.6861 11.1707 6.23516 17.0008 5.22885C18.8854 5.07075 21.0232 5 23.5271 5H40.4726C42.9765 5 45.1139 5.0707 46.9989 5.22885C52.8285 6.23512 57.4449 10.6861 58.673 16.4336C58.9149 18.7563 58.9996 21.534 58.9996 24.8633V39.1366C58.9996 42.4661 58.9149 45.2439 58.6731 47.5663C57.4453 53.3139 52.8289 57.7648 46.9989 58.7711C45.1142 58.9293 42.9767 59 40.4726 59H23.5271C21.0231 59 18.8857 58.9293 17.0008 58.7711C11.1711 57.7648 6.55472 53.3139 5.32659 47.5663C5.08478 45.2436 5 42.4659 5 39.1366V24.8633C5 21.5339 5.08479 18.7561 5.32659 16.4336Z" fill="url(#paint0_linear_4_10813)" stroke="#232323"/>
<path d="M35.0296 58.9996L45.6014 41.228L45.6241 41.1898L45.6398 41.1482L45.1717 40.9724C45.6398 41.1482 45.6399 41.1479 45.64 41.1475L45.6405 41.1464L45.6418 41.1426L45.6468 41.1294L45.6646 41.0801C45.68 41.0373 45.7021 40.9747 45.7297 40.8938C45.785 40.7318 45.8627 40.4959 45.9535 40.1959C46.1351 39.5962 46.3699 38.7391 46.5846 37.7042C47.0131 35.6384 47.366 32.8433 47.044 29.9628C46.7216 27.0796 45.7193 24.0844 43.4133 21.6625C41.104 19.2372 37.5367 17.4386 32.1843 16.8599L32.1843 16.8599C30.0782 16.6323 28.6757 16.3304 27.8308 15.9891C27.4068 15.8178 27.1655 15.653 27.0415 15.5185C26.9333 15.4011 26.927 15.3249 26.9368 15.2621C26.9514 15.169 27.0215 15.0124 27.23 14.7926C27.4336 14.578 27.7343 14.3398 28.1346 14.0825C28.9343 13.5682 30.0656 13.019 31.4339 12.4542C36.8494 10.219 45.6421 7.87506 50.9902 6.53897C54.8514 8.46796 57.7208 12.0547 58.6615 16.3877C58.9087 18.7226 58.9996 21.5049 58.9996 24.863V39.1363C58.9996 42.4657 58.9148 45.2435 58.673 47.566C57.4452 53.3135 52.8289 57.7645 46.9988 58.7708C45.1142 58.9289 42.9767 58.9996 40.4725 58.9996H35.0296Z" fill="url(#paint1_linear_4_10813)" stroke="#232323"/>
<path d="M58.3271 15.1701L30.4833 16.1019L30.3744 16.1055L30.2769 16.1542L24.8921 18.8396L24.8265 18.8723L24.7731 18.9225L25.1153 19.287L24.773 18.9225L24.7728 18.9227L24.7721 18.9234L24.7693 18.926L24.7581 18.9365L24.7148 18.9772L24.5496 19.1327C24.4069 19.2673 24.2019 19.4608 23.9526 19.6969C23.4542 20.169 22.7784 20.8119 22.0697 21.4943C20.6646 22.8472 19.0937 24.3897 18.5477 25.0449L18.5476 25.045C18.423 25.1947 18.3394 25.3873 18.2782 25.5694C18.2138 25.7607 18.1596 25.9855 18.1127 26.2317C18.019 26.7246 17.9477 27.3436 17.893 28.0341C17.7835 29.4175 17.7376 31.1342 17.7244 32.8017C17.7112 34.4713 17.7309 36.1003 17.7539 37.3113C17.7545 37.3423 17.7551 37.3731 17.7557 37.4035L5.32553 16.4927C5.33072 16.4538 5.33649 16.4104 5.34176 16.3642C6.60315 10.6021 11.2721 6.15757 17.1479 5.20577C18.9912 5.05781 21.0961 4.99999 23.5253 4.99999L40.4708 4.99976C42.8919 4.99976 44.997 5.05573 46.8349 5.20359C52.3022 6.08402 56.7177 9.99086 58.3271 15.1701Z" fill="url(#paint2_linear_4_10813)" stroke="#232323"/>
<g opacity="0.2" filter="url(#filter1_f_4_10813)">
<path d="M32.0364 48.849C40.9514 48.849 48.1784 41.622 48.1784 32.7071C48.1784 23.7922 40.9514 16.5652 32.0364 16.5652C23.1215 16.5652 15.8945 23.7922 15.8945 32.7071C15.8945 41.622 23.1215 48.849 32.0364 48.849Z" fill="#232323"/>
<path d="M47.6784 32.7071C47.6784 41.3459 40.6752 48.349 32.0364 48.349C23.3977 48.349 16.3945 41.3459 16.3945 32.7071C16.3945 24.0683 23.3977 17.0652 32.0364 17.0652C40.6752 17.0652 47.6784 24.0683 47.6784 32.7071Z" stroke="#232323"/>
</g>
<path d="M47.6776 31.963C47.6776 40.6015 40.6747 47.6045 32.0361 47.6045C23.3975 47.6045 16.3945 40.6015 16.3945 31.963C16.3945 23.3244 23.3975 16.3214 32.0361 16.3214C40.6747 16.3214 47.6776 23.3244 47.6776 31.963Z" fill="#232323" stroke="#232323"/>
<path d="M44.3266 31.963C44.3266 38.7496 38.8249 44.2512 32.0383 44.2512C25.2516 44.2512 19.75 38.7496 19.75 31.963C19.75 25.1763 25.2516 19.6747 32.0383 19.6747C38.8249 19.6747 44.3266 25.1763 44.3266 31.963Z" fill="url(#paint3_linear_4_10813)" stroke="#232323"/>
<path d="M5.32854 47.5652C5.20025 46.3312 5.12635 44.9202 5.07769 43.3973H58.9258C58.8772 44.9201 58.8033 46.3311 58.675 47.5652C57.4472 53.3128 52.8309 57.7637 47.0008 58.77C45.1161 58.9281 42.9787 58.9988 40.4745 58.9988H23.529C21.0251 58.9988 18.8877 58.9281 17.0027 58.77C11.173 57.7637 6.55668 53.3128 5.32854 47.5652Z" fill="url(#paint4_linear_4_10813)" stroke="#232323"/>
<path d="M21.287 51.3561V53.9207H22.8061C23.3156 53.9207 23.6922 53.816 23.936 53.6066C24.1829 53.3941 24.3064 53.0706 24.3064 52.6361C24.3064 52.1985 24.1829 51.8765 23.936 51.6702C23.6922 51.4608 23.3155 51.3561 22.8061 51.3561H21.287ZM21.287 48.4773V50.5871H22.6889C23.1515 50.5871 23.4953 50.5012 23.7204 50.3292C23.9485 50.1542 24.0626 49.8885 24.0626 49.5322C24.0626 49.179 23.9485 48.9148 23.7204 48.7398C23.4953 48.5648 23.1515 48.4773 22.6889 48.4773L21.287 48.4773ZM20.3399 47.699H22.7592C23.4812 47.699 24.0376 47.849 24.4283 48.1491C24.819 48.4492 25.0143 48.8759 25.0143 49.4291C25.0143 49.8573 24.9143 50.1981 24.7143 50.4512C24.5142 50.7044 24.2204 50.8623 23.8328 50.9248C24.2986 51.0248 24.6596 51.2342 24.9159 51.553C25.1754 51.8687 25.3051 52.2641 25.3051 52.7392C25.3051 53.3644 25.0925 53.8473 24.6674 54.188C24.2423 54.5287 23.6375 54.6991 22.8529 54.6991H20.3398L20.3399 47.699Z" fill="#232323" stroke="#232323"/>
<path d="M26.926 47.6974H31.352V48.4945H27.8731V50.5668H31.2067V51.3638H27.8731V53.9003H31.4364V54.6973H26.9258L26.926 47.6974Z" fill="#232323" stroke="#232323"/>
<path d="M32.0235 47.6974H37.945V48.4945H35.4601V54.6976H34.5083V48.4945H32.0234L32.0235 47.6974Z" fill="#232323" stroke="#232323"/>
<path d="M40.453 48.631L39.1683 52.1146H41.7423L40.453 48.631ZM39.9185 47.698H40.9922L43.66 54.6978H42.6754L42.0378 52.9021H38.8824L38.2447 54.6978H37.2461L39.9185 47.698Z" fill="#232323" stroke="#232323"/>
<defs>
<filter id="filter0_f_4_10813" x="3.26249" y="3.26252" width="57.475" height="57.4754" filterUnits="userSpaceOnUse" color-interpolation-filters="sRGB">
<feFlood flood-opacity="0" result="BackgroundImageFix"/>
<feBlend mode="normal" in="SourceGraphic" in2="BackgroundImageFix" result="shape"/>
<feGaussianBlur stdDeviation="0.618754" result="effect1_foregroundBlur_4_10813"/>
</filter>
<filter id="filter1_f_4_10813" x="14.926" y="15.5967" width="34.2222" height="34.2209" filterUnits="userSpaceOnUse" color-interpolation-filters="sRGB">
<feFlood flood-opacity="0" result="BackgroundImageFix"/>
<feBlend mode="normal" in="SourceGraphic" in2="BackgroundImageFix" result="shape"/>
<feGaussianBlur stdDeviation="0.484263" result="effect1_foregroundBlur_4_10813"/>
</filter>
<linearGradient id="paint0_linear_4_10813" x1="31" y1="5.5" x2="30.5" y2="59" gradientUnits="userSpaceOnUse">
<stop stop-color="#FDFC47"/>
<stop offset="1" stop-color="#24FE41"/>
</linearGradient>
<linearGradient id="paint1_linear_4_10813" x1="4" y1="59" x2="60" y2="6" gradientUnits="userSpaceOnUse">
<stop stop-color="#FDFC47"/>
<stop offset="1" stop-color="#24FE41"/>
</linearGradient>
<linearGradient id="paint2_linear_4_10813" x1="2.5" y1="5" x2="59" y2="59.5" gradientUnits="userSpaceOnUse">
<stop stop-color="#FDFC47"/>
<stop offset="1" stop-color="#24FE41"/>
</linearGradient>
<linearGradient id="paint3_linear_4_10813" x1="19.25" y1="31.963" x2="44.8266" y2="31.963" gradientUnits="userSpaceOnUse">
<stop stop-color="#FDFC47"/>
<stop offset="1" stop-color="#24FE41"/>
</linearGradient>
<linearGradient id="paint4_linear_4_10813" x1="4.5625" y1="51.1981" x2="59.441" y2="51.1981" gradientUnits="userSpaceOnUse">
<stop stop-color="#FDFC47"/>
<stop offset="1" stop-color="#24FE41"/>
</linearGradient>
</defs>
</svg>
