<svg width="64" height="64" viewBox="0 0 64 64" fill="none" xmlns="http://www.w3.org/2000/svg">
<g clip-path="url(#clip0_4_10739)">
<g opacity="0.3" filter="url(#filter0_f_4_10739)">
<path d="M44.5 4.5H19.5C11.2157 4.5 4.5 11.2157 4.5 19.5V44.5C4.5 52.7843 11.2157 59.5 19.5 59.5H44.5C52.7843 59.5 59.5 52.7843 59.5 44.5V19.5C59.5 11.2157 52.7843 4.5 44.5 4.5Z" fill="url(#paint0_linear_4_10739)"/>
</g>
<path d="M19.5 5H44.5C52.5081 5 59 11.4919 59 19.5V44.5C59 52.5081 52.5081 59 44.5 59H19.5C11.4919 59 5 52.5081 5 44.5V19.5C5 11.4919 11.4919 5 19.5 5Z" fill="#232323" stroke="url(#paint1_linear_4_10739)"/>
<path d="M28.3407 46.17C32.5308 46.17 35.9275 42.7733 35.9275 38.5832C35.9275 34.3931 32.5308 30.9964 28.3407 30.9964C24.1506 30.9964 20.7539 34.3931 20.7539 38.5832C20.7539 42.7733 24.1506 46.17 28.3407 46.17Z" stroke="url(#paint2_linear_4_10739)" stroke-width="5.39992"/>
<g filter="url(#filter1_f_4_10739)">
<path d="M33.0977 14.2201V36.7515H38.0856V22.3946C38.0856 22.3946 39.6802 23.1674 40.0072 23.2487C40.3343 23.3301 46.7124 25.7703 43.4825 32.847L43.6258 32.9293C43.6258 32.9293 48.7686 26.6027 45.3862 21.771C42.0037 16.9398 39.3983 17.7119 33.0977 14.2201Z" fill="url(#paint3_linear_4_10739)"/>
</g>
<path d="M33.2344 14.3476V38.8311H38.626V23.2305C38.626 23.2305 40.3496 24.0701 40.7031 24.1585C41.0567 24.2469 47.9509 26.8986 44.4596 34.5884L44.6146 34.6778C44.6146 34.6778 50.1736 27.8031 46.5174 22.5528C42.8612 17.303 40.0449 18.142 33.2344 14.3476Z" fill="url(#paint4_linear_4_10739)"/>
</g>
<defs>
<filter id="filter0_f_4_10739" x="3.2625" y="3.2625" width="57.475" height="57.475" filterUnits="userSpaceOnUse" color-interpolation-filters="sRGB">
<feFlood flood-opacity="0" result="BackgroundImageFix"/>
<feBlend mode="normal" in="SourceGraphic" in2="BackgroundImageFix" result="shape"/>
<feGaussianBlur stdDeviation="0.61875" result="effect1_foregroundBlur_4_10739"/>
</filter>
<filter id="filter1_f_4_10739" x="31.3115" y="12.4339" width="17.0137" height="26.1037" filterUnits="userSpaceOnUse" color-interpolation-filters="sRGB">
<feFlood flood-opacity="0" result="BackgroundImageFix"/>
<feBlend mode="normal" in="SourceGraphic" in2="BackgroundImageFix" result="shape"/>
<feGaussianBlur stdDeviation="0.893077" result="effect1_foregroundBlur_4_10739"/>
</filter>
<linearGradient id="paint0_linear_4_10739" x1="4.5" y1="32" x2="59.5" y2="32" gradientUnits="userSpaceOnUse">
<stop stop-color="#FDFC47"/>
<stop offset="1" stop-color="#24FE41"/>
</linearGradient>
<linearGradient id="paint1_linear_4_10739" x1="4.5" y1="32" x2="59.5" y2="32" gradientUnits="userSpaceOnUse">
<stop stop-color="#FDFC47"/>
<stop offset="1" stop-color="#24FE41"/>
</linearGradient>
<linearGradient id="paint2_linear_4_10739" x1="20.7539" y1="38.5832" x2="35.9275" y2="38.5832" gradientUnits="userSpaceOnUse">
<stop stop-color="#FDFC47"/>
<stop offset="1" stop-color="#24FE41"/>
</linearGradient>
<linearGradient id="paint3_linear_4_10739" x1="33.0977" y1="25.4856" x2="46.5382" y2="25.4856" gradientUnits="userSpaceOnUse">
<stop stop-color="#FDFC47"/>
<stop offset="1" stop-color="#24FE41"/>
</linearGradient>
<linearGradient id="paint4_linear_4_10739" x1="33.2344" y1="26.5892" x2="47.7627" y2="26.5892" gradientUnits="userSpaceOnUse">
<stop stop-color="#FDFC47"/>
<stop offset="1" stop-color="#24FE41"/>
</linearGradient>
<clipPath id="clip0_4_10739">
<rect width="64" height="64" fill="white"/>
</clipPath>
</defs>
</svg>
