<svg width="64" height="64" viewBox="0 0 64 64" fill="none" xmlns="http://www.w3.org/2000/svg">
<g clip-path="url(#clip0_4_10618)">
<g opacity="0.3" filter="url(#filter0_f_4_10618)">
<path d="M44.5 4.5H19.5C11.2157 4.5 4.5 11.2157 4.5 19.5V44.5C4.5 52.7843 11.2157 59.5 19.5 59.5H44.5C52.7843 59.5 59.5 52.7843 59.5 44.5V19.5C59.5 11.2157 52.7843 4.5 44.5 4.5Z" fill="url(#paint0_linear_4_10618)"/>
</g>
<path d="M19.5 5H44.5C52.5081 5 59 11.4919 59 19.5V44.5C59 52.5081 52.5081 59 44.5 59H19.5C11.4919 59 5 52.5081 5 44.5V19.5C5 11.4919 11.4919 5 19.5 5Z" fill="#232323" stroke="url(#paint1_linear_4_10618)"/>
<path d="M32.0011 16.6801C26.7525 16.6823 21.7064 18.1998 17.9096 20.9176C14.1129 23.6355 11.8567 27.3452 11.6091 31.2773C11.5858 31.5179 11.5741 31.7591 11.5742 32.0004C11.5742 33.3416 11.9375 34.6697 12.6432 35.9088C13.3489 37.1479 14.3833 38.2738 15.6874 39.2222C16.9914 40.1706 18.5395 40.9229 20.2433 41.4361C21.9471 41.9494 23.7732 42.2136 25.6174 42.2136C29.3418 42.2136 32.9138 41.1375 35.5474 39.2222C38.181 37.3069 39.6605 34.7091 39.6605 32.0004C39.6605 29.2917 38.181 26.6939 35.5474 24.7786C32.9138 22.8632 29.3418 21.7872 25.6174 21.7872C22.1016 21.7888 18.7145 22.7495 16.1254 24.4794C13.5364 26.2093 11.9338 28.5826 11.6342 31.1302C11.9317 27.905 13.8698 24.8835 17.0575 22.6756C20.2451 20.4676 24.4448 19.2376 28.809 19.2339C33.3799 19.2339 37.7637 20.5789 40.9958 22.9731C44.228 25.3673 46.0438 28.6145 46.0438 32.0004C46.0438 35.3863 44.228 38.6335 40.9958 41.0277C37.7637 43.4218 33.3799 44.7669 28.809 44.7669C24.4514 44.7668 20.2556 43.544 17.0662 41.3446C13.8767 39.1452 11.9304 36.1325 11.6189 32.9129C11.9291 36.8099 14.2112 40.4712 17.9992 43.1488C21.7872 45.8264 26.7953 47.3183 32.0006 47.3199C34.6831 47.3199 37.3392 46.9237 39.8175 46.1538C42.2957 45.3839 44.5475 44.2554 46.4443 42.8329C48.341 41.4103 49.8456 39.7214 50.8722 37.8628C51.8987 36.0041 52.427 34.0119 52.427 32.0001C52.427 29.9883 51.8987 27.9962 50.8722 26.1375C49.8456 24.2788 48.341 22.59 46.4443 21.1674C44.5475 19.7448 42.2957 18.6164 39.8175 17.8465C37.3392 17.0766 34.6835 16.6801 32.0011 16.6801ZM23.0645 24.34C25.7732 24.34 28.371 25.147 30.2863 26.5835C32.2017 28.02 33.2777 29.9683 33.2777 31.9999C33.2777 34.0314 32.2017 35.9797 30.2863 37.4162C28.371 38.8527 25.7732 39.6598 23.0645 39.6598C20.3558 39.6598 17.758 38.8527 15.8427 37.4162C13.9273 35.9797 12.8513 34.0314 12.8513 31.9999C12.8513 29.9683 13.9273 28.02 15.8427 26.5835C17.758 25.147 20.3558 24.34 23.0645 24.34Z" fill="url(#paint2_linear_4_10618)"/>
</g>
<defs>
<filter id="filter0_f_4_10618" x="3.2625" y="3.2625" width="57.475" height="57.475" filterUnits="userSpaceOnUse" color-interpolation-filters="sRGB">
<feFlood flood-opacity="0" result="BackgroundImageFix"/>
<feBlend mode="normal" in="SourceGraphic" in2="BackgroundImageFix" result="shape"/>
<feGaussianBlur stdDeviation="0.61875" result="effect1_foregroundBlur_4_10618"/>
</filter>
<linearGradient id="paint0_linear_4_10618" x1="4.5" y1="32" x2="59.5" y2="32" gradientUnits="userSpaceOnUse">
<stop stop-color="#FDFC47"/>
<stop offset="1" stop-color="#24FE41"/>
</linearGradient>
<linearGradient id="paint1_linear_4_10618" x1="4.5" y1="32" x2="59.5" y2="32" gradientUnits="userSpaceOnUse">
<stop stop-color="#FDFC47"/>
<stop offset="1" stop-color="#24FE41"/>
</linearGradient>
<linearGradient id="paint2_linear_4_10618" x1="11.5742" y1="32" x2="52.427" y2="32" gradientUnits="userSpaceOnUse">
<stop stop-color="#FDFC47"/>
<stop offset="1" stop-color="#24FE41"/>
</linearGradient>
<clipPath id="clip0_4_10618">
<rect width="64" height="64" fill="white"/>
</clipPath>
</defs>
</svg>
