<svg width="64" height="64" viewBox="0 0 64 64" fill="none" xmlns="http://www.w3.org/2000/svg">
<g clip-path="url(#clip0_4_10543)">
<g opacity="0.3" filter="url(#filter0_f_4_10543)">
<path d="M44.5003 4.50003H19.5001C11.2158 4.50003 4.5 11.2158 4.5 19.5001V44.5003C4.5 52.7846 11.2158 59.5004 19.5001 59.5004H44.5003C52.7846 59.5004 59.5004 52.7846 59.5004 44.5003V19.5001C59.5004 11.2158 52.7846 4.50003 44.5003 4.50003Z" fill="url(#paint0_linear_4_10543)"/>
</g>
<path d="M19.5001 5H44.5007C52.5089 5 59.0008 11.4919 59.0008 19.5001V44.5007C59.0008 52.5089 52.5089 59.0008 44.5007 59.0008H19.5001C11.4919 59.0008 5 52.5089 5 44.5007V19.5001C5 11.4919 11.4919 5 19.5001 5Z" fill="#232323" stroke="url(#paint1_linear_4_10543)"/>
<path d="M18.2734 17.4381C16.0987 17.4324 14.3435 19.1775 14.3379 21.3523L14.2813 42.5554C14.2756 44.7301 16.0226 46.4853 18.1973 46.4909L45.7265 46.5632C47.9012 46.5689 49.6564 44.8238 49.662 42.6491L49.7187 21.4459C49.7243 19.2712 47.9773 17.516 45.8026 17.5104L18.2734 17.4381ZM36.9906 23.5964C38.8419 23.5878 40.3492 25.083 40.3578 26.9343C40.3661 28.7856 38.8732 30.2927 37.0219 30.3015L35.3461 30.3093L35.3597 33.661L37.0374 33.6531V33.6551C38.8888 33.647 40.396 35.1397 40.4047 36.991C40.413 38.8423 38.9182 40.3491 37.0667 40.3582C35.2154 40.3668 33.7081 38.8736 33.6995 37.0223C33.6995 37.0201 33.6995 37.0201 33.6995 37.0184L33.6917 35.3446L30.3401 35.3602L30.3479 37.0379C30.3562 38.8893 28.8616 40.3961 27.01 40.4052C25.1587 40.4137 23.6513 38.9186 23.6427 37.0672C23.6344 35.2159 25.1274 33.7088 26.9787 33.7L28.6564 33.6922L28.6408 30.3406L26.963 30.3484C25.1117 30.357 23.6044 28.8618 23.5958 27.0105C23.5875 25.1592 25.0823 23.652 26.9337 23.6432C28.7851 23.6347 30.2924 25.1279 30.301 26.9792L30.3088 28.6569L33.6604 28.6413L33.6526 26.9635C33.6442 25.1122 35.139 23.6052 36.9906 23.5964ZM36.9984 25.2722C36.0727 25.2764 35.326 26.0301 35.3304 26.9558L35.3382 28.6316L37.014 28.6257C37.9397 28.6215 38.6865 27.8658 38.682 26.9402C38.6777 26.0146 37.924 25.2678 36.9984 25.2722ZM26.9413 25.3191C26.0157 25.3233 25.267 26.077 25.2714 27.0027C25.2757 27.9282 26.0313 28.6751 26.9569 28.6707L28.6327 28.6629L28.6249 26.9871C28.6206 26.0614 27.867 25.3147 26.9413 25.3191ZM33.668 30.3171L30.3163 30.3327L30.332 33.6843L33.6836 33.6687L33.668 30.3171ZM37.045 35.3308L35.3673 35.3367L35.3751 37.0144C35.3793 37.9401 36.135 38.6869 37.0606 38.6824C37.9863 38.6781 38.7331 37.9245 38.7286 36.9988C38.7243 36.0731 37.9706 35.3264 37.045 35.3308ZM28.664 35.3699L26.9863 35.3757C26.0607 35.38 25.3139 36.1337 25.3183 37.0594C25.3226 37.985 26.0762 38.7337 27.0019 38.7293C27.9276 38.725 28.6762 37.9713 28.6718 37.0457L28.664 35.3699Z" fill="url(#paint2_linear_4_10543)"/>
</g>
<defs>
<filter id="filter0_f_4_10543" x="3.26249" y="3.26252" width="57.475" height="57.4754" filterUnits="userSpaceOnUse" color-interpolation-filters="sRGB">
<feFlood flood-opacity="0" result="BackgroundImageFix"/>
<feBlend mode="normal" in="SourceGraphic" in2="BackgroundImageFix" result="shape"/>
<feGaussianBlur stdDeviation="0.618754" result="effect1_foregroundBlur_4_10543"/>
</filter>
<linearGradient id="paint0_linear_4_10543" x1="4.5" y1="32.0002" x2="59.5004" y2="32.0002" gradientUnits="userSpaceOnUse">
<stop stop-color="#FDFC47"/>
<stop offset="1" stop-color="#24FE41"/>
</linearGradient>
<linearGradient id="paint1_linear_4_10543" x1="4.5" y1="32.0004" x2="59.5008" y2="32.0004" gradientUnits="userSpaceOnUse">
<stop stop-color="#FDFC47"/>
<stop offset="1" stop-color="#24FE41"/>
</linearGradient>
<linearGradient id="paint2_linear_4_10543" x1="14.2812" y1="32.0007" x2="49.7187" y2="32.0007" gradientUnits="userSpaceOnUse">
<stop stop-color="#FDFC47"/>
<stop offset="1" stop-color="#24FE41"/>
</linearGradient>
<clipPath id="clip0_4_10543">
<rect width="64" height="64" fill="white"/>
</clipPath>
</defs>
</svg>
