<svg width="64" height="64" viewBox="0 0 64 64" fill="none" xmlns="http://www.w3.org/2000/svg">
<g opacity="0.3" filter="url(#filter0_f_4_10458)">
<path d="M46.498 4.5H17.502C10.3212 4.5 4.5 10.3212 4.5 17.502V46.498C4.5 53.6788 10.3212 59.5 17.502 59.5H46.498C53.6788 59.5 59.5 53.6788 59.5 46.498V17.502C59.5 10.3212 53.6788 4.5 46.498 4.5Z" fill="#232323"/>
<path d="M17.502 5H46.498C53.4027 5 59 10.5973 59 17.502V46.498C59 53.4027 53.4027 59 46.498 59H17.502C10.5973 59 5 53.4027 5 46.498V17.502C5 10.5973 10.5973 5 17.502 5Z" stroke="url(#paint0_linear_4_10458)"/>
</g>
<path d="M17.502 5.00201H46.499C53.4037 5.00201 59.001 10.5993 59.001 17.504V46.501C59.001 53.4057 53.4037 59.003 46.499 59.003H17.502C10.5973 59.003 5 53.4057 5 46.501V17.504C5 10.5993 10.5973 5.00201 17.502 5.00201Z" fill="#232323" stroke="url(#paint1_linear_4_10458)"/>
<path d="M32.696 17.237C24.5615 17.237 17.925 23.858 17.925 31.993C17.925 40.1275 24.5613 46.764 32.696 46.764C40.8305 46.764 47.436 40.1277 47.436 31.993C47.436 23.8585 40.8303 17.237 32.696 17.237ZM17.191 19.5459C16.9916 19.5579 16.7981 19.6184 16.6276 19.7224C16.457 19.8264 16.3144 19.9705 16.2124 20.1422C13.8874 23.9176 12.2352 27.3689 12.0227 31.2282C11.8102 35.0873 13.0801 39.2153 16.2276 44.2562C16.3061 44.4056 16.4146 44.5372 16.5463 44.6426C16.678 44.748 16.8301 44.8251 16.9931 44.8689C17.156 44.9127 17.3263 44.9223 17.4931 44.8972C17.66 44.872 17.8198 44.8126 17.9626 44.7227C18.1054 44.6328 18.228 44.5143 18.3228 44.3748C18.4176 44.2352 18.4825 44.0775 18.5134 43.9116C18.5443 43.7457 18.5406 43.5753 18.5025 43.4109C18.4643 43.2465 18.3926 43.0918 18.2918 42.9565C15.3038 38.1713 14.2908 34.6054 14.4691 31.3665C14.6475 28.1273 16.06 25.0763 18.3071 21.4275C18.4296 21.2365 18.4966 21.0152 18.5005 20.7883C18.5044 20.5614 18.4452 20.3379 18.3294 20.1427C18.2135 19.9476 18.0457 19.7885 17.8447 19.6832C17.6436 19.578 17.4174 19.5299 17.191 19.5459ZM46.641 19.5459C46.4289 19.5601 46.2241 19.6294 46.0469 19.7469C45.8697 19.8644 45.7262 20.026 45.6305 20.2159C45.5348 20.4057 45.4903 20.6173 45.5012 20.8296C45.5122 21.0419 45.5783 21.2477 45.693 21.4267C47.94 25.0754 49.3526 28.1264 49.531 31.3657C49.7094 34.6049 48.681 38.1709 45.693 42.9557C45.6076 43.0922 45.55 43.2443 45.5234 43.4031C45.4968 43.5619 45.5018 43.7244 45.538 43.8813C45.5742 44.0381 45.641 44.1864 45.7345 44.3175C45.8279 44.4486 45.9463 44.56 46.0829 44.6453C46.2194 44.7306 46.3714 44.7883 46.5302 44.8148C46.6891 44.8414 46.8515 44.8365 47.0084 44.8003C47.1653 44.7641 47.3136 44.6973 47.4447 44.6038C47.5757 44.5103 47.6871 44.3919 47.7725 44.2554C50.92 39.2148 52.1899 35.0868 51.9774 31.2274C51.7649 27.3683 50.0975 23.917 47.7725 20.1414C47.6573 19.9473 47.4906 19.7888 47.2909 19.6836C47.0912 19.5783 46.8663 19.5312 46.641 19.5459ZM32.696 20.0199C39.3232 20.0199 44.653 25.3653 44.653 31.9929C44.653 38.6201 39.3229 43.9659 32.696 43.9659C26.0688 43.9659 20.723 38.6205 20.723 31.9929C20.723 25.3657 26.0684 20.0199 32.696 20.0199ZM32.6806 23.0627C32.083 23.0627 31.6192 23.3061 31.2891 23.7967C30.968 24.2872 30.7998 25.0595 30.7998 26.1209C30.7998 26.3706 30.8126 26.6076 30.8304 26.8395C30.8482 27.0714 30.8712 27.3174 30.9069 27.5582C30.9425 27.799 30.9782 28.0399 31.0139 28.3074C31.0496 28.575 31.0916 28.8668 31.1362 29.179L32.0078 35.4635H33.3075L34.1791 29.2096C34.2148 28.9063 34.2504 28.6209 34.2861 28.3533C34.3307 28.0857 34.3664 27.8296 34.3932 27.5888C34.4199 27.339 34.4365 27.102 34.4543 26.8701C34.4721 26.6382 34.4849 26.4012 34.4849 26.1514C34.4849 25.5717 34.4429 25.076 34.3626 24.6835C34.2912 24.2822 34.1714 23.9611 34.0109 23.7202C33.8592 23.4794 33.6681 23.3138 33.4451 23.2156C33.2221 23.1086 32.975 23.0627 32.6806 23.0627ZM32.696 36.7627C32.4016 36.7627 32.129 36.8086 31.8703 36.9156C31.6116 37.0227 31.3848 37.1717 31.1975 37.359C31.0102 37.5463 30.87 37.7732 30.7541 38.0318C30.647 38.2816 30.5859 38.5415 30.5859 38.827C30.5859 39.1213 30.647 39.394 30.7541 39.6526C30.87 39.9113 31.0102 40.1381 31.1975 40.3254C31.3848 40.5127 31.6116 40.6682 31.8703 40.7842C32.129 40.8912 32.4016 40.9371 32.696 40.9371C32.9814 40.9371 33.2567 40.8912 33.5064 40.7842C33.7651 40.6682 33.9919 40.5127 34.1792 40.3254C34.3665 40.1381 34.5156 39.9113 34.6226 39.6526C34.7297 39.394 34.7755 39.1213 34.7755 38.827C34.7755 38.5415 34.7296 38.2816 34.6226 38.0318C34.5156 37.7732 34.3665 37.5463 34.1792 37.359C33.9919 37.1717 33.7651 37.0227 33.5064 36.9156C33.2567 36.8086 32.9814 36.7627 32.696 36.7627Z" fill="url(#paint2_linear_4_10458)"/>
<defs>
<filter id="filter0_f_4_10458" x="2.3" y="2.3" width="59.4" height="59.4" filterUnits="userSpaceOnUse" color-interpolation-filters="sRGB">
<feFlood flood-opacity="0" result="BackgroundImageFix"/>
<feBlend mode="normal" in="SourceGraphic" in2="BackgroundImageFix" result="shape"/>
<feGaussianBlur stdDeviation="1.1" result="effect1_foregroundBlur_4_10458"/>
</filter>
<linearGradient id="paint0_linear_4_10458" x1="4.5" y1="32" x2="59.5" y2="32" gradientUnits="userSpaceOnUse">
<stop stop-color="#FDFC47"/>
<stop offset="1" stop-color="#24FE41"/>
</linearGradient>
<linearGradient id="paint1_linear_4_10458" x1="4.5" y1="32.0025" x2="59.501" y2="32.0025" gradientUnits="userSpaceOnUse">
<stop stop-color="#FDFC47"/>
<stop offset="1" stop-color="#24FE41"/>
</linearGradient>
<linearGradient id="paint2_linear_4_10458" x1="12" y1="32.0005" x2="52.0001" y2="32.0005" gradientUnits="userSpaceOnUse">
<stop stop-color="#FDFC47"/>
<stop offset="1" stop-color="#24FE41"/>
</linearGradient>
</defs>
</svg>
