<svg width="64" height="64" viewBox="0 0 64 64" fill="none" xmlns="http://www.w3.org/2000/svg">
<g clip-path="url(#clip0_4_10432)">
<g opacity="0.3" filter="url(#filter0_f_4_10432)">
<path d="M44.5 4.5H19.5C11.2157 4.5 4.5 11.2157 4.5 19.5V44.5C4.5 52.7843 11.2157 59.5 19.5 59.5H44.5C52.7843 59.5 59.5 52.7843 59.5 44.5V19.5C59.5 11.2157 52.7843 4.5 44.5 4.5Z" fill="url(#paint0_linear_4_10432)"/>
</g>
<path d="M19.5 5H44.5C52.5081 5 59 11.4919 59 19.5V44.5C59 52.5081 52.5081 59 44.5 59H19.5C11.4919 59 5 52.5081 5 44.5V19.5C5 11.4919 11.4919 5 19.5 5Z" fill="#232323" stroke="url(#paint1_linear_4_10432)"/>
<g opacity="0.25" filter="url(#filter1_f_4_10432)">
<path d="M31.9985 16.562C30.1212 16.562 28.2477 16.5945 26.7518 16.6626C26.0044 16.698 25.3556 16.7402 24.818 16.7967C24.5506 16.8255 24.313 16.8581 24.0782 16.9022C23.8443 16.9462 23.668 16.9347 23.1984 17.1992C22.7289 17.4618 22.6484 17.6171 22.4912 17.7924C22.3289 17.9758 22.1744 18.166 22.0284 18.3626C21.6509 18.8707 21.2889 19.39 20.9426 19.9199C20.0045 21.3524 19.0993 22.8062 18.2277 24.2801C17.3504 25.7481 16.5068 27.2361 15.6978 28.7429C15.3978 29.2987 15.1147 29.8634 14.8488 30.4363C14.7405 30.6758 14.6485 30.8905 14.5718 31.1099C14.4942 31.3294 14.3945 31.4741 14.3945 32.0002C14.3945 32.5263 14.4942 32.671 14.5718 32.8905C14.6485 33.1099 14.7405 33.3246 14.8488 33.5641C15.0663 34.0433 15.3538 34.6116 15.6969 35.2575C16.383 36.5493 17.2896 38.142 18.2277 39.7193C18.8051 40.6879 19.3951 41.6488 19.9977 42.6019L17.5521 50.4178L23.6872 47.0187C23.8367 47.0628 23.9507 47.0733 24.0801 47.0982C24.313 47.1433 24.5516 47.1749 24.8189 47.2037C25.3556 47.2602 26.0044 47.3024 26.7528 47.3369C28.2477 47.4059 30.1212 47.4394 31.9985 47.4394C33.8758 47.4394 35.7484 47.4059 37.2433 47.3378C37.8894 47.3117 38.5346 47.267 39.1781 47.2037C39.4455 47.1749 39.6841 47.1423 39.9179 47.0982C40.1527 47.0542 40.33 47.0657 40.7996 46.8012C41.2691 46.5386 41.3487 46.3833 41.5058 46.208C41.6679 46.0244 41.8223 45.8342 41.9687 45.6378C42.2868 45.2161 42.65 44.6919 43.0544 44.0805C43.9926 42.648 44.8978 41.1942 45.7693 39.7203C46.6467 38.2523 47.4902 36.7643 48.2992 35.2575C48.599 34.7019 48.8815 34.1372 49.1464 33.5641C49.249 33.3437 49.342 33.1189 49.4252 32.8905C49.5029 32.671 49.6025 32.5263 49.6025 32.0002C49.6025 31.4741 49.5029 31.3294 49.4252 31.1099C49.3424 30.8815 49.2496 30.6567 49.1473 30.4363C48.8821 29.8634 48.5996 29.2987 48.3002 28.7429C47.4909 27.2365 46.647 25.7488 45.7693 24.2811C44.8978 22.8071 43.9926 21.3533 43.0544 19.9208C42.7082 19.3907 42.3461 18.871 41.9687 18.3626C41.8226 18.166 41.6682 17.9758 41.5058 17.7924C41.3487 17.6171 41.2691 17.4618 40.7986 17.1983C40.329 16.9347 40.1527 16.9462 39.9189 16.9012C39.6735 16.8565 39.4264 16.822 39.1781 16.7977C38.5349 16.7344 37.89 16.6896 37.2443 16.6635C35.7493 16.5945 33.8758 16.561 31.9985 16.561V16.562ZM31.9985 20.0732C33.8308 20.0732 35.6669 20.1077 37.0727 20.1719C37.2759 20.1815 37.3851 20.1968 37.5682 20.2073L31.9669 28.5455L26.2966 20.215C26.5218 20.2006 26.6665 20.1843 26.9243 20.1719C28.3302 20.1077 30.1663 20.0732 31.9985 20.0732ZM40.8552 23.1397C41.4621 24.0974 42.0556 25.0635 42.6357 26.0376C43.485 27.457 44.302 28.8955 45.0861 30.3519C45.408 30.9604 45.6706 31.4846 45.8364 31.8507C45.8671 31.9187 45.8747 31.9437 45.8987 32.0002C45.8757 32.0567 45.8671 32.0807 45.8364 32.1497C45.6706 32.5158 45.408 33.0409 45.0861 33.6485C44.302 35.1049 43.485 36.5434 42.6357 37.9628C41.9786 39.0668 41.3036 40.1601 40.6108 41.2421L34.6137 32.4305L40.8552 23.1397ZM23.0777 23.2404L29.345 32.4487L23.4121 41.2814C22.7102 40.1866 22.0265 39.0802 21.3614 37.9628C20.512 36.5434 19.695 35.1049 18.911 33.6485C18.6464 33.1563 18.3962 32.6565 18.1607 32.1497C18.13 32.0817 18.1223 32.0567 18.0984 32.0002C18.1214 31.9437 18.13 31.9197 18.1607 31.8507C18.3264 31.4846 18.589 30.9595 18.911 30.3519C19.5569 29.1378 20.4443 27.5776 21.3614 26.0376C21.9211 25.0977 22.4933 24.1652 23.0777 23.2404ZM31.9918 36.3327L37.0929 43.8266L37.0737 43.8285C35.6669 43.8927 33.8308 43.9263 31.9985 43.9263C30.1787 43.9263 28.3579 43.8927 26.955 43.8304L31.9918 36.3327Z" fill="url(#paint2_linear_4_10432)"/>
</g>
<path d="M32.002 16.5605V16.5625C30.1247 16.5625 28.2517 16.5941 26.7559 16.6621C26.0084 16.6976 25.3598 16.7403 24.8223 16.7969C24.5549 16.8256 24.3168 16.8583 24.082 16.9023C23.8482 16.9464 23.6707 16.9347 23.2012 17.1992C22.7316 17.4618 22.6513 17.6176 22.4941 17.793C22.3318 17.9764 22.1773 18.1667 22.0312 18.3633C21.6538 18.8712 21.2916 19.3903 20.9453 19.9199C20.0072 21.3528 19.102 22.8069 18.2305 24.2812C17.3533 25.7493 16.51 27.2373 15.7012 28.7441C15.401 29.2993 15.1177 29.8633 14.8516 30.4355C14.7433 30.6751 14.6528 30.8899 14.5762 31.1094C14.4986 31.3288 14.3984 31.4739 14.3984 32C14.3984 32.5261 14.4985 32.6711 14.5762 32.8906C14.6528 33.1101 14.7433 33.3249 14.8516 33.5645C15.0691 34.0436 15.3581 34.612 15.7012 35.2578C16.3873 36.5496 17.2922 38.1414 18.2305 39.7188C18.8083 40.6874 19.3988 41.6484 20.002 42.6016L17.5547 50.418L23.6914 47.0195C23.8409 47.0636 23.9546 47.0727 24.084 47.0977C24.3169 47.1427 24.5549 47.1744 24.8223 47.2031C25.3589 47.2597 26.0075 47.3034 26.7559 47.3379C28.2508 47.4069 30.1246 47.4395 32.002 47.4395C33.8793 47.4395 35.7511 47.4059 37.2461 47.3379C37.8924 47.3116 38.5379 47.2667 39.1816 47.2031C39.449 47.1744 39.688 47.1417 39.9219 47.0977C40.1567 47.0536 40.3332 47.0653 40.8027 46.8008C41.2723 46.5382 41.3526 46.3844 41.5098 46.209C41.6719 46.0254 41.8263 45.8351 41.9727 45.6387C42.2908 45.217 42.6541 44.6916 43.0586 44.0801C43.9967 42.6479 44.9019 41.1944 45.7734 39.7207C46.6506 38.2526 47.4939 36.7646 48.3027 35.2578C48.6026 34.7022 48.8853 34.1375 49.1504 33.5645C49.2532 33.344 49.3463 33.1192 49.4297 32.8906C49.5073 32.6712 49.6055 32.5261 49.6055 32C49.6055 31.4739 49.5073 31.3289 49.4297 31.1094C49.3463 30.8808 49.2532 30.656 49.1504 30.4355C48.885 29.8633 48.6023 29.2993 48.3027 28.7441C47.4939 27.2373 46.6506 25.7493 45.7734 24.2812C44.9019 22.8076 43.9967 21.3541 43.0586 19.9219C42.7123 19.3916 42.3502 18.8718 41.9727 18.3633C41.8266 18.1667 41.6721 17.9764 41.5098 17.793C41.3526 17.6176 41.2733 17.4628 40.8027 17.1992C40.3332 16.9357 40.1557 16.9474 39.9219 16.9023C39.6767 16.8577 39.4297 16.8231 39.1816 16.7988C38.5385 16.7353 37.8937 16.6904 37.248 16.6641C35.7531 16.5951 33.8792 16.5605 32.002 16.5605ZM32.002 20.0742C33.8342 20.0742 35.6703 20.1077 37.0762 20.1719C37.2793 20.1815 37.3892 20.1965 37.5723 20.207L31.9707 28.5449L26.3008 20.2148C26.526 20.2005 26.67 20.1843 26.9277 20.1719C28.3335 20.1077 30.1697 20.0742 32.002 20.0742ZM40.8574 23.1406C41.4646 24.0978 42.0584 25.0634 42.6387 26.0371C43.4883 27.4565 44.3056 28.895 45.0898 30.3516C45.4118 30.9601 45.6741 31.4855 45.8398 31.8516C45.8705 31.9196 45.8784 31.9435 45.9023 32C45.8793 32.0565 45.8705 32.0814 45.8398 32.1504C45.6741 32.5165 45.4118 33.0409 45.0898 33.6484C44.3056 35.105 43.4883 36.5435 42.6387 37.9629C41.9815 39.067 41.3062 40.1602 40.6133 41.2422L34.6172 32.4316L40.8574 23.1406ZM23.0801 23.2402L29.3477 32.4492L23.416 41.2812C22.7141 40.1866 22.0304 39.0803 21.3652 37.9629C20.5156 36.5435 19.6983 35.105 18.9141 33.6484C18.6496 33.1565 18.3995 32.6569 18.1641 32.1504C18.1334 32.0824 18.1255 32.0565 18.1016 32C18.1246 31.9435 18.1334 31.9206 18.1641 31.8516C18.3298 31.4855 18.5921 30.9591 18.9141 30.3516C19.56 29.1374 20.4481 27.5771 21.3652 26.0371C21.9245 25.0973 22.4961 24.1649 23.0801 23.2402ZM31.9941 36.332L37.0957 43.8262L37.0762 43.8281C35.6694 43.8923 33.8342 43.9258 32.002 43.9258C30.1822 43.9258 28.36 43.8924 26.957 43.8301L31.9941 36.332Z" fill="url(#paint3_linear_4_10432)"/>
</g>
<defs>
<filter id="filter0_f_4_10432" x="3.2625" y="3.2625" width="57.475" height="57.475" filterUnits="userSpaceOnUse" color-interpolation-filters="sRGB">
<feFlood flood-opacity="0" result="BackgroundImageFix"/>
<feBlend mode="normal" in="SourceGraphic" in2="BackgroundImageFix" result="shape"/>
<feGaussianBlur stdDeviation="0.61875" result="effect1_foregroundBlur_4_10432"/>
</filter>
<filter id="filter1_f_4_10432" x="12.6679" y="14.8344" width="38.6603" height="37.31" filterUnits="userSpaceOnUse" color-interpolation-filters="sRGB">
<feFlood flood-opacity="0" result="BackgroundImageFix"/>
<feBlend mode="normal" in="SourceGraphic" in2="BackgroundImageFix" result="shape"/>
<feGaussianBlur stdDeviation="0.86331" result="effect1_foregroundBlur_4_10432"/>
</filter>
<linearGradient id="paint0_linear_4_10432" x1="4.5" y1="32" x2="59.5" y2="32" gradientUnits="userSpaceOnUse">
<stop stop-color="#FDFC47"/>
<stop offset="1" stop-color="#24FE41"/>
</linearGradient>
<linearGradient id="paint1_linear_4_10432" x1="4.5" y1="32" x2="59.5" y2="32" gradientUnits="userSpaceOnUse">
<stop stop-color="#FDFC47"/>
<stop offset="1" stop-color="#24FE41"/>
</linearGradient>
<linearGradient id="paint2_linear_4_10432" x1="14.3945" y1="33.4894" x2="49.6025" y2="33.4894" gradientUnits="userSpaceOnUse">
<stop stop-color="#FDFC47"/>
<stop offset="1" stop-color="#24FE41"/>
</linearGradient>
<linearGradient id="paint3_linear_4_10432" x1="14.3984" y1="33.4893" x2="49.6055" y2="33.4893" gradientUnits="userSpaceOnUse">
<stop stop-color="#FDFC47"/>
<stop offset="1" stop-color="#24FE41"/>
</linearGradient>
<clipPath id="clip0_4_10432">
<rect width="64" height="64" fill="white"/>
</clipPath>
</defs>
</svg>
