<svg width="64" height="64" viewBox="0 0 64 64" fill="none" xmlns="http://www.w3.org/2000/svg">
<g clip-path="url(#clip0_4_9726)">
<g opacity="0.3" filter="url(#filter0_f_4_9726)">
<path d="M44.5 4.5H19.5C11.2157 4.5 4.5 11.2157 4.5 19.5V44.5C4.5 52.7843 11.2157 59.5 19.5 59.5H44.5C52.7843 59.5 59.5 52.7843 59.5 44.5V19.5C59.5 11.2157 52.7843 4.5 44.5 4.5Z" fill="url(#paint0_linear_4_9726)"/>
</g>
<path d="M19.5 5H44.5C52.5081 5 59 11.4919 59 19.5V44.5C59 52.5081 52.5081 59 44.5 59H19.5C11.4919 59 5 52.5081 5 44.5V19.5C5 11.4919 11.4919 5 19.5 5Z" fill="#232323" stroke="url(#paint1_linear_4_9726)"/>
<path d="M19.5 4.5C18.6459 4.5 17.8143 4.58683 17 4.72266V10.1719L21 14.1719V4.5H19.5ZM23 4.5V16.1719L26.5 19.6719L27.1719 19H26V4.5H23ZM28 4.5V18.1719L31.1719 15H31V4.5H28ZM33 4.5V13.1719L36 10.1719V4.5H33ZM38 4.5V11L27.9141 21.0859L29 22.1719L41 10.1719V4.5H38ZM43 4.5V11L29.5645 24.4355L29 23.8711L28.4355 24.4355L26.5 22.5L24.5645 24.4355L24 23.8711L23.4355 24.4355L10 11V7.87695C8.40813 9.17795 7.10026 10.8052 6.1543 12.6523V16.9238L4.54883 18.5273C4.52822 18.8506 4.5 19.1714 4.5 19.5V21.7305L7.23047 24.4609H16.8184L9.34961 16.9922C8.97974 16.9549 8.63688 16.7816 8.38752 16.5059C8.13816 16.2302 8.00006 15.8717 8 15.5C8 15.1022 8.15804 14.7206 8.43934 14.4393C8.72064 14.158 9.10218 14 9.5 14C9.89782 14 10.2794 14.158 10.5607 14.4393C10.842 14.7206 11 15.1022 11 15.5C11.0001 15.5964 10.991 15.6925 10.9727 15.7871L19.6465 24.4609H48.1543L55.6914 15.8457H59.0371C58.9466 15.482 58.8488 15.122 58.7324 14.7695H55.6914V10.4609L47.0762 20.1543H43.8457L52.4609 10.4609V6.78906C51.1047 5.94028 49.6045 5.3052 48 4.92383V11L34.5625 24.4355L33.1484 23.0215L46 10.1719V4.57617C45.5064 4.52755 45.0068 4.5 44.5 4.5H43ZM15 5.18164C13.9418 5.51183 12.9419 5.96652 12 6.50977V10.1719L24 22.1719L25.0859 21.0859L23 19H21V17L15 11V5.18164ZM14.7695 37.3828V37.3848L4.55469 45.5566C4.62554 46.5792 4.79452 47.5725 5.05859 48.5273L10.4609 44.9238V47.0762L5.65234 50.2832C5.80899 50.6597 5.98622 51.0247 6.17188 51.3848H8.30859V54.4844C10.034 56.4183 12.2481 57.8996 14.7695 58.7324V48.1543L21.2305 42.7695H24.4609L18 48.1543V59.4238C18.4936 59.4725 18.9932 59.5 19.5 59.5H22V54.8711L35.4355 41.4336L36 41.998L36.5645 41.4336L38.5 43.3691L40.4355 41.4336L41 41.998L41.5645 41.4336L55 54.8711V55.2227C55.4258 54.8057 55.8256 54.3636 56.1992 53.8984L45.1504 42.8477L46.5645 41.4336L57.3555 52.2246C58.138 50.9212 58.7273 49.4913 59.0859 47.9668L52.4609 39.5371H50.3086L48.1543 37.3828H35.1992L35.4355 37.6191L22.9727 50.082C22.991 50.1766 23.0001 50.2728 23 50.3691C23 50.767 22.842 51.1485 22.5607 51.4298C22.2794 51.7111 21.8978 51.8691 21.5 51.8691C21.1022 51.8691 20.7206 51.7111 20.4393 51.4298C20.158 51.1485 20 50.767 20 50.3691C20.0001 49.9974 20.1382 49.6389 20.3875 49.3632C20.6369 49.0875 20.9797 48.9142 21.3496 48.877L32.8438 37.3828H14.7695ZM36 43.6992L24 55.6992V59.5H27V54.8711L33 48.8711V46.8711H35L37.0859 44.7852L36 43.6992ZM41 43.6992L39.9141 44.7852L50 54.8711V58.4512C51.0644 58.0333 52.0717 57.5068 53 56.8691V55.6992L41 43.6992ZM38.5 46.1992L35 49.6992V59.5H38V46.8691H39.1719L38.5 46.1992ZM40 47.6992V59.5H43V50.8711H43.1719L40 47.6992ZM33 51.6992L29 55.6992V59.5H33V51.6992ZM45 52.6992V59.4746C46.0305 59.4409 47.0333 59.306 48 59.0762V55.6992L45 52.6992Z" fill="url(#paint2_linear_4_9726)"/>
<path d="M20 12.9569L19.5 14.9569H19V18.9237H15V19.457L13 19.957L15 20.457V20.9238H19V22.9238H15V23.457L13 23.957L15 24.457V24.9238H19V26.9238H15V27.457L13 27.957L15 28.457V28.9238H19V30.9238H15V31.457L13 31.957L15 32.457V32.9238H19V34.9239H15V35.4571L13 35.9571L15 36.4571V36.9239H19V38.9239H15V39.4571L13 39.9571L15 40.4571V40.9239H19V42.9239H15V43.4571L13 43.9571L15 44.4571V44.9239H19V48.9571H19.5L20 50.9572L20.5 48.9571H21.0001V44.9239H23.0001V48.9571H23.5001L24.0001 50.9572L24.5001 48.9571H25.0001V44.9239H27.0001V48.9571H27.5001L28.0001 50.9572L28.5001 48.9571H29.0001V44.9239H31.0001V48.9571H31.5001L32.0001 50.9572L32.5001 48.9571H33.0001V44.9239H35.0001V48.9571H35.5001L36.0002 50.9572L36.5002 48.9571H37.0002V44.9239H39.0002V48.9571H39.5002L40.0002 50.9572L40.5002 48.9571H41.0002V44.9239H43.0002V48.9571H43.5002L44.0002 50.9572L44.5002 48.9571H45.0002V44.9239H49.0002V44.4571L51.0002 43.9571L49.0002 43.4571V42.9239H45.0002V40.9239H49.0002V40.4571L51.0002 39.9571L49.0002 39.4571V38.9239H45.0002V36.9239H49.0002V36.4571L51.0002 35.9571L49.0002 35.4571V34.9239H45.0002V32.9238H49.0002V32.457L51.0002 31.957L49.0002 31.457V30.9238H45.0002V28.9238H49.0002V28.457L51.0002 27.957L49.0002 27.457V26.9238H45.0002V24.9238H49.0002V24.457L51.0002 23.957L49.0002 23.457V22.9238H45.0002V20.9238H49.0002V20.457L51.0002 19.957L49.0002 19.457V18.9237H45.0002V14.9569H44.5002L44.0002 12.9569L43.5002 14.9569H43.0002V18.9237H41.0002V14.9569H40.5002L40.0002 12.9569L39.5002 14.9569H39.0002V18.9237H37.0002V14.9569H36.5002L36.0002 12.9569L35.5001 14.9569H35.0001V18.9237H33.0001V14.9569H32.5001L32.0001 12.9569L31.5001 14.9569H31.0001V18.9237H29.0001V14.9569H28.5001L28.0001 12.9569L27.5001 14.9569H27.0001V18.9237H25.0001V14.9569H24.5001L24.0001 12.9569L23.5001 14.9569H23.0001V18.9237H21.0001V14.9569H20.5L20 12.9569ZM21.0001 20.9238H23.0001V22.9238H21.0001V20.9238ZM25.0001 20.9238H27.0001V22.9238H25.0001V20.9238ZM29.0001 20.9238H31.0001V22.9238H29.0001V20.9238ZM33.0001 20.9238H35.0001V22.9238H33.0001V20.9238ZM37.0002 20.9238H39.0002V22.9238H37.0002V20.9238ZM41.0002 20.9238H43.0002V22.9238H41.0002V20.9238ZM21.0001 24.9238H23.0001V26.9238H21.0001V24.9238ZM25.0001 24.9238H27.0001V26.9238H25.0001V24.9238ZM29.0001 24.9238H31.0001V26.9238H29.0001V24.9238ZM33.0001 24.9238H35.0001V26.9238H33.0001V24.9238ZM37.0002 24.9238H39.0002V26.9238H37.0002V24.9238ZM41.0002 24.9238H43.0002V26.9238H41.0002V24.9238ZM21.0001 28.9238H23.0001V30.9238H21.0001V28.9238ZM25.0001 28.9238H27.0001V30.9238H25.0001V28.9238ZM29.0001 28.9238H31.0001V30.9238H29.0001V28.9238ZM33.0001 28.9238H35.0001V30.9238H33.0001V28.9238ZM37.0002 28.9238H39.0002V30.9238H37.0002V28.9238ZM41.0002 28.9238H43.0002V30.9238H41.0002V28.9238ZM21.0001 32.9238H23.0001V34.9239H21.0001V32.9238ZM25.0001 32.9238H27.0001V34.9239H25.0001V32.9238ZM29.0001 32.9238H31.0001V34.9239H29.0001V32.9238ZM33.0001 32.9238H35.0001V34.9239H33.0001V32.9238ZM37.0002 32.9238H39.0002V34.9239H37.0002V32.9238ZM41.0002 32.9238H43.0002V34.9239H41.0002V32.9238ZM21.0001 36.9239H23.0001V38.9239H21.0001V36.9239ZM25.0001 36.9239H27.0001V38.9239H25.0001V36.9239ZM29.0001 36.9239H31.0001V38.9239H29.0001V36.9239ZM33.0001 36.9239H35.0001V38.9239H33.0001V36.9239ZM37.0002 36.9239H39.0002V38.9239H37.0002V36.9239ZM41.0002 36.9239H43.0002V38.9239H41.0002V36.9239ZM21.0001 40.9239H23.0001V42.9239H21.0001V40.9239ZM25.0001 40.9239H27.0001V42.9239H25.0001V40.9239ZM29.0001 40.9239H31.0001V42.9239H29.0001V40.9239ZM33.0001 40.9239H35.0001V42.9239H33.0001V40.9239ZM37.0002 40.9239H39.0002V42.9239H37.0002V40.9239ZM41.0002 40.9239H43.0002V42.9239H41.0002V40.9239Z" fill="url(#paint3_linear_4_9726)"/>
<g opacity="0.5" filter="url(#filter1_f_4_9726)">
<path fill-rule="evenodd" clip-rule="evenodd" d="M20.0001 17.9099H44.0005C45.1085 17.9099 46.0006 18.802 46.0006 19.91V43.9103C46.0006 45.0183 45.1085 45.9104 44.0005 45.9104H20.0001C18.892 45.9104 18 45.0183 18 43.9103V19.91C18 18.802 18.892 17.9099 20.0001 17.9099Z" fill="url(#paint4_linear_4_9726)"/>
</g>
<path fill-rule="evenodd" clip-rule="evenodd" d="M20.0001 17.9099H44.0005C45.1085 17.9099 46.0006 18.802 46.0006 19.91V43.9103C46.0006 45.0183 45.1085 45.9104 44.0005 45.9104H20.0001C18.892 45.9104 18 45.0183 18 43.9103V19.91C18 18.802 18.892 17.9099 20.0001 17.9099Z" fill="url(#paint5_linear_4_9726)"/>
<path opacity="0.35" fill-rule="evenodd" clip-rule="evenodd" d="M21 20.438C21 20.5706 20.9473 20.6979 20.8536 20.7917C20.7598 20.8854 20.6326 20.938 20.5 20.938C20.4343 20.938 20.3693 20.9251 20.3087 20.9C20.248 20.8748 20.1929 20.8381 20.1464 20.7917C20.1 20.7452 20.0632 20.69 20.0381 20.6294C20.0129 20.5687 20 20.5037 20 20.438C20 20.3723 20.0129 20.3073 20.0381 20.2466C20.0632 20.186 20.1 20.1309 20.1464 20.0845C20.1929 20.038 20.248 20.0012 20.3087 19.9761C20.3693 19.9509 20.4343 19.938 20.5 19.938C20.6326 19.938 20.7598 19.9907 20.8536 20.0845C20.9473 20.1782 21 20.3054 21 20.438Z" fill="url(#paint6_linear_4_9726)"/>
<path opacity="0.35" fill-rule="evenodd" clip-rule="evenodd" d="M43.9961 20.438C43.9961 20.5706 43.9434 20.6979 43.8497 20.7917C43.7559 20.8854 43.6287 20.938 43.4961 20.938C43.3635 20.938 43.2363 20.8854 43.1425 20.7917C43.0488 20.6979 42.9961 20.5706 42.9961 20.438C42.9961 20.3054 43.0488 20.1782 43.1425 20.0845C43.2363 19.9907 43.3635 19.938 43.4961 19.938C43.6287 19.938 43.7559 19.9907 43.8497 20.0845C43.9434 20.1782 43.9961 20.3054 43.9961 20.438Z" fill="url(#paint7_linear_4_9726)"/>
<path opacity="0.35" fill-rule="evenodd" clip-rule="evenodd" d="M21 43.4557C21 43.5883 20.9473 43.7156 20.8536 43.8094C20.7598 43.9031 20.6326 43.9557 20.5 43.9557C20.4343 43.9557 20.3693 43.9428 20.3087 43.9177C20.248 43.8925 20.1929 43.8558 20.1464 43.8094C20.1 43.7629 20.0632 43.7077 20.0381 43.6471C20.0129 43.5864 20 43.5214 20 43.4557C20 43.3901 20.0129 43.3251 20.0381 43.2645C20.0632 43.2038 20.1 43.1486 20.1464 43.1022C20.1929 43.0558 20.248 43.019 20.3087 42.9939C20.3693 42.9687 20.4343 42.9558 20.5 42.9558C20.5657 42.9558 20.6307 42.9687 20.6913 42.9939C20.752 43.019 20.8071 43.0558 20.8536 43.1022C20.9 43.1486 20.9368 43.2038 20.9619 43.2645C20.9871 43.3251 21 43.3901 21 43.4557Z" fill="url(#paint8_linear_4_9726)"/>
<path opacity="0.35" fill-rule="evenodd" clip-rule="evenodd" d="M43.9961 43.4557C43.9961 43.5883 43.9434 43.7156 43.8497 43.8094C43.7559 43.9031 43.6287 43.9557 43.4961 43.9557C43.3635 43.9557 43.2363 43.9031 43.1425 43.8094C43.0488 43.7156 42.9961 43.5883 42.9961 43.4557C42.9961 43.3901 43.009 43.3251 43.0342 43.2645C43.0593 43.2038 43.0961 43.1486 43.1425 43.1022C43.189 43.0558 43.2441 43.019 43.3048 42.9939C43.3654 42.9687 43.4304 42.9558 43.4961 42.9558C43.5618 42.9558 43.6268 42.9687 43.6874 42.9939C43.7481 43.019 43.8032 43.0558 43.8497 43.1022C43.8961 43.1486 43.9329 43.2038 43.958 43.2645C43.9832 43.3251 43.9961 43.3901 43.9961 43.4557Z" fill="url(#paint9_linear_4_9726)"/>
<path opacity="0.5" d="M34.6987 25.756C31.9764 25.7909 28.9369 26.5471 26.4877 27.9865V28.3517C32.0788 25.5753 40.0117 25.593 40.7337 29.5705C40.9404 30.6902 40.414 31.8441 39.4095 32.6506V28.4514H38.3001V33.1174C38.3001 33.509 38.4528 33.8565 38.8372 34.0549V34.0784C38.8439 34.0761 38.8501 34.071 38.8567 34.0686C39.0065 34.1416 39.1837 34.1965 39.4095 34.217V33.8186C40.8527 33.0453 42.1237 31.3367 41.6907 29.2893C41.1727 26.8606 38.1989 25.7111 34.6987 25.756ZM25.0756 28.5919V29.5861H26.185V28.5919H25.0756ZM31.558 29.0353V33.0822C31.558 33.6644 31.9371 34.256 32.8373 34.256H33.4877V33.3888H33.0404C32.7781 33.3888 32.6557 33.2578 32.6557 33.0196V30.9962H33.4877V30.1564H32.6557V29.0353L31.558 29.0353ZM24.3587 29.3243C22.7381 30.6966 21.8582 32.433 22.3665 34.4825C23.0147 37.1125 26.469 38.6012 31.7436 38.1055C33.832 37.9116 36.5658 37.261 38.4624 36.2539V34.8242C36.7387 35.8173 33.887 36.6381 31.5112 36.8496C27.6478 37.1936 23.6216 36.6524 23.058 33.7363C22.7781 32.3006 23.4597 30.7758 24.3588 29.8301L24.3587 29.3243ZM35.8057 30.0861C34.6471 30.0861 33.7666 30.8496 33.7666 32.2013C33.7666 33.7819 34.7755 34.3243 35.8291 34.3243C36.6365 34.3243 37.0923 34.0783 37.5283 33.6739L36.8506 33.0606C36.568 33.3231 36.3255 33.4512 35.8369 33.4512C35.2151 33.4512 34.8603 33.0606 34.8603 32.5293H37.6533V32.1543C37.6533 30.9802 36.9805 30.0861 35.8057 30.0861ZM25.0757 30.1564V33.2033C25.0757 33.7515 25.3535 34.2293 26.1851 34.3049V30.1565L25.0757 30.1564ZM27.1655 30.1564V34.2599H28.2651V30.9943L29.1772 30.9963C29.5001 30.9963 29.6323 31.145 29.6323 31.3888V34.2599H30.7358V31.3849C30.7358 30.8007 30.4037 30.1564 29.4389 30.1564L27.1655 30.1564ZM35.7574 30.9454C36.3226 30.9454 36.5359 31.3742 36.5601 31.8224H34.8609C34.8729 31.6389 34.8977 31.5244 34.9703 31.3751C35.0915 31.1274 35.382 30.9454 35.7574 30.9454Z" fill="#232323"/>
</g>
<defs>
<filter id="filter0_f_4_9726" x="3.2625" y="3.2625" width="57.475" height="57.475" filterUnits="userSpaceOnUse" color-interpolation-filters="sRGB">
<feFlood flood-opacity="0" result="BackgroundImageFix"/>
<feBlend mode="normal" in="SourceGraphic" in2="BackgroundImageFix" result="shape"/>
<feGaussianBlur stdDeviation="0.61875" result="effect1_foregroundBlur_4_9726"/>
</filter>
<filter id="filter1_f_4_9726" x="16.6" y="16.5099" width="30.8001" height="30.8006" filterUnits="userSpaceOnUse" color-interpolation-filters="sRGB">
<feFlood flood-opacity="0" result="BackgroundImageFix"/>
<feBlend mode="normal" in="SourceGraphic" in2="BackgroundImageFix" result="shape"/>
<feGaussianBlur stdDeviation="0.700013" result="effect1_foregroundBlur_4_9726"/>
</filter>
<linearGradient id="paint0_linear_4_9726" x1="4.5" y1="32" x2="59.5" y2="32" gradientUnits="userSpaceOnUse">
<stop stop-color="#FDFC47"/>
<stop offset="1" stop-color="#24FE41"/>
</linearGradient>
<linearGradient id="paint1_linear_4_9726" x1="4.5" y1="32" x2="59.5" y2="32" gradientUnits="userSpaceOnUse">
<stop stop-color="#FDFC47"/>
<stop offset="1" stop-color="#24FE41"/>
</linearGradient>
<linearGradient id="paint2_linear_4_9726" x1="4.5" y1="32" x2="59.0859" y2="32" gradientUnits="userSpaceOnUse">
<stop stop-color="#FDFC47"/>
<stop offset="1" stop-color="#24FE41"/>
</linearGradient>
<linearGradient id="paint3_linear_4_9726" x1="32.0001" y1="12.9569" x2="32.0001" y2="50.9572" gradientUnits="userSpaceOnUse">
<stop stop-color="#32FF11"/>
<stop offset="1" stop-color="#D70CB6" stop-opacity="0.34"/>
</linearGradient>
<linearGradient id="paint4_linear_4_9726" x1="18" y1="31.9102" x2="46.0006" y2="31.9102" gradientUnits="userSpaceOnUse">
<stop stop-color="#FDFC47"/>
<stop offset="1" stop-color="#24FE41"/>
</linearGradient>
<linearGradient id="paint5_linear_4_9726" x1="18" y1="31.9102" x2="46.0006" y2="31.9102" gradientUnits="userSpaceOnUse">
<stop stop-color="#FDFC47"/>
<stop offset="1" stop-color="#24FE41"/>
</linearGradient>
<linearGradient id="paint6_linear_4_9726" x1="20" y1="20.438" x2="21" y2="20.438" gradientUnits="userSpaceOnUse">
<stop stop-color="#FDFC47"/>
<stop offset="1" stop-color="#24FE41"/>
</linearGradient>
<linearGradient id="paint7_linear_4_9726" x1="42.9961" y1="20.438" x2="43.9961" y2="20.438" gradientUnits="userSpaceOnUse">
<stop stop-color="#FDFC47"/>
<stop offset="1" stop-color="#24FE41"/>
</linearGradient>
<linearGradient id="paint8_linear_4_9726" x1="20" y1="43.4558" x2="21" y2="43.4558" gradientUnits="userSpaceOnUse">
<stop stop-color="#FDFC47"/>
<stop offset="1" stop-color="#24FE41"/>
</linearGradient>
<linearGradient id="paint9_linear_4_9726" x1="42.9961" y1="43.4558" x2="43.9961" y2="43.4558" gradientUnits="userSpaceOnUse">
<stop stop-color="#FDFC47"/>
<stop offset="1" stop-color="#24FE41"/>
</linearGradient>
<clipPath id="clip0_4_9726">
<rect width="64" height="64" fill="white"/>
</clipPath>
</defs>
</svg>
