<svg width="64" height="64" viewBox="0 0 64 64" fill="none" xmlns="http://www.w3.org/2000/svg">
<g opacity="0.3" filter="url(#filter0_f_4_9710)">
<path d="M44.5 4.5H19.5C11.2157 4.5 4.5 11.2157 4.5 19.5V44.5C4.5 52.7843 11.2157 59.5 19.5 59.5H44.5C52.7843 59.5 59.5 52.7843 59.5 44.5V19.5C59.5 11.2157 52.7843 4.5 44.5 4.5Z" fill="url(#paint0_linear_4_9710)"/>
</g>
<path d="M19.5 5H44.5C52.5081 5 59 11.4919 59 19.5V44.5C59 52.5081 52.5081 59 44.5 59H19.5C11.4919 59 5 52.5081 5 44.5V19.5C5 11.4919 11.4919 5 19.5 5Z" fill="#232323" stroke="url(#paint1_linear_4_9710)"/>
<g opacity="0.25" filter="url(#filter1_f_4_9710)">
<path d="M31.9996 23.9996C31.9996 28.4168 28.4157 31.9994 23.9998 31.9994C19.5826 31.9994 16 28.4155 16 23.9996C16 19.5824 19.5839 15.9998 23.9998 15.9998C28.417 15.9998 31.9996 19.5837 31.9996 23.9996Z" fill="url(#paint2_linear_4_9710)"/>
</g>
<g opacity="0.25" filter="url(#filter2_f_4_9710)">
<path d="M47.9996 39.9992C47.9996 44.4164 44.4157 47.999 39.9998 47.999C35.5826 47.999 32 44.4151 32 39.9992C32 35.582 35.5839 31.9994 39.9998 31.9994C44.417 31.9994 47.9996 35.5833 47.9996 39.9992Z" fill="url(#paint3_linear_4_9710)"/>
</g>
<g opacity="0.25" filter="url(#filter3_f_4_9710)">
<path d="M31.9996 39.9992C31.9996 44.4164 28.4157 47.999 23.9998 47.999C19.5826 47.999 16 44.4151 16 39.9992C16 35.582 19.5839 31.9994 23.9998 31.9994C28.417 31.9994 31.9996 35.5833 31.9996 39.9992Z" fill="url(#paint4_linear_4_9710)"/>
</g>
<g opacity="0.25" filter="url(#filter4_f_4_9710)">
<path d="M47.9996 23.9996C47.9996 28.4168 44.4157 31.9994 39.9998 31.9994C35.5826 31.9994 32 28.4155 32 23.9996C32 19.5824 35.5839 15.9998 39.9998 15.9998C44.417 15.9998 47.9996 19.5837 47.9996 23.9996Z" fill="url(#paint5_linear_4_9710)"/>
</g>
<path d="M31.9996 23.9996C31.9996 28.4168 28.4157 31.9994 23.9998 31.9994C19.5826 31.9994 16 28.4155 16 23.9996C16 19.5824 19.5839 15.9998 23.9998 15.9998C28.417 15.9998 31.9996 19.5837 31.9996 23.9996Z" fill="url(#paint6_linear_4_9710)"/>
<path d="M47.9996 39.9992C47.9996 44.4164 44.4157 47.999 39.9998 47.999C35.5826 47.999 32 44.4151 32 39.9992C32 35.582 35.5839 31.9994 39.9998 31.9994C44.417 31.9994 47.9996 35.5833 47.9996 39.9992Z" fill="url(#paint7_linear_4_9710)"/>
<path d="M31.9996 39.9992C31.9996 44.4164 28.4157 47.999 23.9998 47.999C19.5826 47.999 16 44.4151 16 39.9992C16 35.582 19.5839 31.9994 23.9998 31.9994C28.417 31.9994 31.9996 35.5833 31.9996 39.9992Z" fill="url(#paint8_linear_4_9710)"/>
<g opacity="0.25" filter="url(#filter5_f_4_9710)">
<path d="M27.4046 45.3324L23.962 43.4885L20.4928 45.2751L21.1861 41.4312L18.4102 38.6859L22.2794 38.1553L24.034 34.666L25.7366 38.1819L29.5965 38.7752L26.7739 41.4778" fill="url(#paint9_linear_4_9710)"/>
</g>
<path d="M27.4046 45.3324L23.962 43.4885L20.4928 45.2751L21.1861 41.4312L18.4102 38.6859L22.2794 38.1553L24.034 34.666L25.7366 38.1819L29.5965 38.7752L26.7739 41.4778" fill="#232323"/>
<path d="M47.9996 23.9996C47.9996 28.4168 44.4157 31.9994 39.9998 31.9994C35.5826 31.9994 32 28.4155 32 23.9996C32 19.5824 35.5839 15.9998 39.9998 15.9998C44.417 15.9998 47.9996 19.5837 47.9996 23.9996Z" fill="url(#paint10_linear_4_9710)"/>
<g opacity="0.25" filter="url(#filter6_f_4_9710)">
<path d="M43.4046 29.3328L39.962 27.4889L36.4928 29.2755L37.1861 25.4316L34.4102 22.6863L38.2794 22.1557L40.034 18.6664L41.7366 22.1823L45.5965 22.7756L42.7739 25.4782" fill="url(#paint11_linear_4_9710)"/>
</g>
<path d="M43.4046 29.3328L39.962 27.4889L36.4928 29.2755L37.1861 25.4316L34.4102 22.6863L38.2794 22.1557L40.034 18.6664L41.7366 22.1823L45.5965 22.7756L42.7739 25.4782" fill="#232323"/>
<defs>
<filter id="filter0_f_4_9710" x="3.2625" y="3.2625" width="57.475" height="57.475" filterUnits="userSpaceOnUse" color-interpolation-filters="sRGB">
<feFlood flood-opacity="0" result="BackgroundImageFix"/>
<feBlend mode="normal" in="SourceGraphic" in2="BackgroundImageFix" result="shape"/>
<feGaussianBlur stdDeviation="0.61875" result="effect1_foregroundBlur_4_9710"/>
</filter>
<filter id="filter1_f_4_9710" x="14.4" y="14.3999" width="19.1999" height="19.1995" filterUnits="userSpaceOnUse" color-interpolation-filters="sRGB">
<feFlood flood-opacity="0" result="BackgroundImageFix"/>
<feBlend mode="normal" in="SourceGraphic" in2="BackgroundImageFix" result="shape"/>
<feGaussianBlur stdDeviation="0.79998" result="effect1_foregroundBlur_4_9710"/>
</filter>
<filter id="filter2_f_4_9710" x="30.4" y="30.3995" width="19.1999" height="19.1995" filterUnits="userSpaceOnUse" color-interpolation-filters="sRGB">
<feFlood flood-opacity="0" result="BackgroundImageFix"/>
<feBlend mode="normal" in="SourceGraphic" in2="BackgroundImageFix" result="shape"/>
<feGaussianBlur stdDeviation="0.79998" result="effect1_foregroundBlur_4_9710"/>
</filter>
<filter id="filter3_f_4_9710" x="14.4" y="30.3995" width="19.1999" height="19.1995" filterUnits="userSpaceOnUse" color-interpolation-filters="sRGB">
<feFlood flood-opacity="0" result="BackgroundImageFix"/>
<feBlend mode="normal" in="SourceGraphic" in2="BackgroundImageFix" result="shape"/>
<feGaussianBlur stdDeviation="0.79998" result="effect1_foregroundBlur_4_9710"/>
</filter>
<filter id="filter4_f_4_9710" x="30.4" y="14.3999" width="19.1999" height="19.1995" filterUnits="userSpaceOnUse" color-interpolation-filters="sRGB">
<feFlood flood-opacity="0" result="BackgroundImageFix"/>
<feBlend mode="normal" in="SourceGraphic" in2="BackgroundImageFix" result="shape"/>
<feGaussianBlur stdDeviation="0.79998" result="effect1_foregroundBlur_4_9710"/>
</filter>
<filter id="filter5_f_4_9710" x="17.0639" y="33.3197" width="13.8801" height="13.359" filterUnits="userSpaceOnUse" color-interpolation-filters="sRGB">
<feFlood flood-opacity="0" result="BackgroundImageFix"/>
<feBlend mode="normal" in="SourceGraphic" in2="BackgroundImageFix" result="shape"/>
<feGaussianBlur stdDeviation="0.67315" result="effect1_foregroundBlur_4_9710"/>
</filter>
<filter id="filter6_f_4_9710" x="33.0639" y="17.3201" width="13.8801" height="13.359" filterUnits="userSpaceOnUse" color-interpolation-filters="sRGB">
<feFlood flood-opacity="0" result="BackgroundImageFix"/>
<feBlend mode="normal" in="SourceGraphic" in2="BackgroundImageFix" result="shape"/>
<feGaussianBlur stdDeviation="0.67315" result="effect1_foregroundBlur_4_9710"/>
</filter>
<linearGradient id="paint0_linear_4_9710" x1="4.5" y1="32" x2="59.5" y2="32" gradientUnits="userSpaceOnUse">
<stop stop-color="#FDFC47"/>
<stop offset="1" stop-color="#24FE41"/>
</linearGradient>
<linearGradient id="paint1_linear_4_9710" x1="4.5" y1="32" x2="59.5" y2="32" gradientUnits="userSpaceOnUse">
<stop stop-color="#FDFC47"/>
<stop offset="1" stop-color="#24FE41"/>
</linearGradient>
<linearGradient id="paint2_linear_4_9710" x1="16" y1="23.9996" x2="31.9996" y2="23.9996" gradientUnits="userSpaceOnUse">
<stop stop-color="#FDFC47"/>
<stop offset="1" stop-color="#24FE41"/>
</linearGradient>
<linearGradient id="paint3_linear_4_9710" x1="32" y1="39.9992" x2="47.9996" y2="39.9992" gradientUnits="userSpaceOnUse">
<stop stop-color="#FDFC47"/>
<stop offset="1" stop-color="#24FE41"/>
</linearGradient>
<linearGradient id="paint4_linear_4_9710" x1="16" y1="39.9992" x2="31.9996" y2="39.9992" gradientUnits="userSpaceOnUse">
<stop stop-color="#FDFC47"/>
<stop offset="1" stop-color="#24FE41"/>
</linearGradient>
<linearGradient id="paint5_linear_4_9710" x1="32" y1="23.9996" x2="47.9996" y2="23.9996" gradientUnits="userSpaceOnUse">
<stop stop-color="#FDFC47"/>
<stop offset="1" stop-color="#24FE41"/>
</linearGradient>
<linearGradient id="paint6_linear_4_9710" x1="16" y1="23.9996" x2="31.9996" y2="23.9996" gradientUnits="userSpaceOnUse">
<stop stop-color="#FDFC47"/>
<stop offset="1" stop-color="#24FE41"/>
</linearGradient>
<linearGradient id="paint7_linear_4_9710" x1="32" y1="39.9992" x2="47.9996" y2="39.9992" gradientUnits="userSpaceOnUse">
<stop stop-color="#FDFC47"/>
<stop offset="1" stop-color="#24FE41"/>
</linearGradient>
<linearGradient id="paint8_linear_4_9710" x1="16" y1="39.9992" x2="31.9996" y2="39.9992" gradientUnits="userSpaceOnUse">
<stop stop-color="#FDFC47"/>
<stop offset="1" stop-color="#24FE41"/>
</linearGradient>
<linearGradient id="paint9_linear_4_9710" x1="18.4102" y1="39.9992" x2="29.5965" y2="39.9992" gradientUnits="userSpaceOnUse">
<stop stop-color="#FDFC47"/>
<stop offset="1" stop-color="#24FE41"/>
</linearGradient>
<linearGradient id="paint10_linear_4_9710" x1="32" y1="23.9996" x2="47.9996" y2="23.9996" gradientUnits="userSpaceOnUse">
<stop stop-color="#FDFC47"/>
<stop offset="1" stop-color="#24FE41"/>
</linearGradient>
<linearGradient id="paint11_linear_4_9710" x1="34.4102" y1="23.9996" x2="45.5965" y2="23.9996" gradientUnits="userSpaceOnUse">
<stop stop-color="#FDFC47"/>
<stop offset="1" stop-color="#24FE41"/>
</linearGradient>
</defs>
</svg>
