<svg width="64" height="64" viewBox="0 0 64 64" fill="none" xmlns="http://www.w3.org/2000/svg">
<g clip-path="url(#clip0_4_9692)">
<g opacity="0.3" filter="url(#filter0_f_4_9692)">
<path d="M44.5 4.5H19.5C11.2157 4.5 4.5 11.2157 4.5 19.5V44.5C4.5 52.7843 11.2157 59.5 19.5 59.5H44.5C52.7843 59.5 59.5 52.7843 59.5 44.5V19.5C59.5 11.2157 52.7843 4.5 44.5 4.5Z" fill="url(#paint0_linear_4_9692)"/>
</g>
<path d="M19.5 5H44.5C52.5081 5 59 11.4919 59 19.5V44.5C59 52.5081 52.5081 59 44.5 59H19.5C11.4919 59 5 52.5081 5 44.5V19.5C5 11.4919 11.4919 5 19.5 5Z" fill="#232323" stroke="url(#paint1_linear_4_9692)"/>
<path fill-rule="evenodd" clip-rule="evenodd" d="M25.3216 17L18.6367 26.0234L20.5264 29.7698H40.5574C40.3684 34.5744 40.3354 35.7366 39.3102 38.2216C38.7055 39.6861 37.9402 40.6027 36.4095 41.3207C34.8741 42.0388 32.4175 42.4734 28.6853 42.2325L28.383 46.919C32.5876 47.193 35.8285 46.7773 38.399 45.582C40.7924 44.4562 42.671 42.4662 43.6572 40.012C45.5564 35.4105 45.0461 33.1145 45.3627 27.554L45.2635 25.069H25.1894L29.0964 19.8014L25.3216 17Z" fill="url(#paint2_linear_4_9692)"/>
</g>
<defs>
<filter id="filter0_f_4_9692" x="3.2625" y="3.2625" width="57.475" height="57.475" filterUnits="userSpaceOnUse" color-interpolation-filters="sRGB">
<feFlood flood-opacity="0" result="BackgroundImageFix"/>
<feBlend mode="normal" in="SourceGraphic" in2="BackgroundImageFix" result="shape"/>
<feGaussianBlur stdDeviation="0.61875" result="effect1_foregroundBlur_4_9692"/>
</filter>
<linearGradient id="paint0_linear_4_9692" x1="4.5" y1="32" x2="59.5" y2="32" gradientUnits="userSpaceOnUse">
<stop stop-color="#FDFC47"/>
<stop offset="1" stop-color="#24FE41"/>
</linearGradient>
<linearGradient id="paint1_linear_4_9692" x1="4.5" y1="32" x2="59.5" y2="32" gradientUnits="userSpaceOnUse">
<stop stop-color="#FDFC47"/>
<stop offset="1" stop-color="#24FE41"/>
</linearGradient>
<linearGradient id="paint2_linear_4_9692" x1="18.6367" y1="32" x2="45.3627" y2="32" gradientUnits="userSpaceOnUse">
<stop stop-color="#FDFC47"/>
<stop offset="1" stop-color="#24FE41"/>
</linearGradient>
<clipPath id="clip0_4_9692">
<rect width="64" height="64" fill="white"/>
</clipPath>
</defs>
</svg>
