<svg width="64" height="64" viewBox="0 0 64 64" fill="none" xmlns="http://www.w3.org/2000/svg">
<g opacity="0.3" filter="url(#filter0_f_4_9588)">
<path d="M44.5003 4.50003H19.5001C11.2158 4.50003 4.5 11.2158 4.5 19.5001V44.5003C4.5 52.7846 11.2158 59.5004 19.5001 59.5004H44.5003C52.7846 59.5004 59.5004 52.7846 59.5004 44.5003V19.5001C59.5004 11.2158 52.7846 4.50003 44.5003 4.50003Z" fill="url(#paint0_linear_4_9588)"/>
</g>
<path d="M4.99609 19.5001C4.99609 11.466 11.4625 5 19.4962 5H44.4964C52.5304 5 58.9965 11.4664 58.9965 19.5001V44.5003C58.9965 52.5343 52.5301 59.0004 44.4964 59.0004H19.4962C11.4621 59.0004 4.99609 52.534 4.99609 44.5003V19.5001Z" fill="#232323" stroke="url(#paint1_linear_4_9588)"/>
<path opacity="0.15" d="M19.2404 4.51361C19.0696 4.51647 18.902 4.53051 18.7326 4.53901C18.437 4.55368 18.1551 4.57337 17.8713 4.59174C11.3099 5.29335 6.0415 10.1878 4.78516 16.5625C4.62838 18.14 4.53495 19.8985 4.49609 21.9004V41.9414C4.53801 44.1026 4.64667 45.9738 4.82813 47.6425C6.0311 53.3259 10.4333 57.7893 16.0762 59.0978C17.0574 59.2019 18.0911 59.2863 19.2403 59.3341L19.2404 4.51361Z" fill="url(#paint2_linear_4_9588)"/>
<path d="M11.8538 35.6088C13.7751 35.6088 15.3326 34.0513 15.3326 32.13C15.3326 30.2088 13.7751 28.6512 11.8538 28.6512C9.93251 28.6512 8.375 30.2088 8.375 32.13C8.375 34.0513 9.93251 35.6088 11.8538 35.6088Z" fill="url(#paint3_linear_4_9588)"/>
<path d="M11.8538 26.3337C13.7751 26.3337 15.3326 24.7762 15.3326 22.8549C15.3326 20.9336 13.7751 19.3761 11.8538 19.3761C9.93251 19.3761 8.375 20.9336 8.375 22.8549C8.375 24.7762 9.93251 26.3337 11.8538 26.3337Z" fill="url(#paint4_linear_4_9588)"/>
<path d="M11.8538 17.0623C13.7751 17.0623 15.3326 15.5048 15.3326 13.5835C15.3326 11.6622 13.7751 10.1047 11.8538 10.1047C9.93251 10.1047 8.375 11.6622 8.375 13.5835C8.375 15.5048 9.93251 17.0623 11.8538 17.0623Z" fill="url(#paint5_linear_4_9588)"/>
<defs>
<filter id="filter0_f_4_9588" x="3.26249" y="3.26252" width="57.475" height="57.4754" filterUnits="userSpaceOnUse" color-interpolation-filters="sRGB">
<feFlood flood-opacity="0" result="BackgroundImageFix"/>
<feBlend mode="normal" in="SourceGraphic" in2="BackgroundImageFix" result="shape"/>
<feGaussianBlur stdDeviation="0.618754" result="effect1_foregroundBlur_4_9588"/>
</filter>
<linearGradient id="paint0_linear_4_9588" x1="4.5" y1="32.0002" x2="59.5004" y2="32.0002" gradientUnits="userSpaceOnUse">
<stop stop-color="#FDFC47"/>
<stop offset="1" stop-color="#24FE41"/>
</linearGradient>
<linearGradient id="paint1_linear_4_9588" x1="4.49609" y1="32.0002" x2="59.4965" y2="32.0002" gradientUnits="userSpaceOnUse">
<stop stop-color="#FDFC47"/>
<stop offset="1" stop-color="#24FE41"/>
</linearGradient>
<linearGradient id="paint2_linear_4_9588" x1="4.49609" y1="31.9239" x2="19.2404" y2="31.9239" gradientUnits="userSpaceOnUse">
<stop stop-color="#FDFC47"/>
<stop offset="1" stop-color="#24FE41"/>
</linearGradient>
<linearGradient id="paint3_linear_4_9588" x1="8.375" y1="32.13" x2="15.3326" y2="32.13" gradientUnits="userSpaceOnUse">
<stop stop-color="#FDFC47"/>
<stop offset="1" stop-color="#24FE41"/>
</linearGradient>
<linearGradient id="paint4_linear_4_9588" x1="8.375" y1="22.8549" x2="15.3326" y2="22.8549" gradientUnits="userSpaceOnUse">
<stop stop-color="#FDFC47"/>
<stop offset="1" stop-color="#24FE41"/>
</linearGradient>
<linearGradient id="paint5_linear_4_9588" x1="8.375" y1="13.5835" x2="15.3326" y2="13.5835" gradientUnits="userSpaceOnUse">
<stop stop-color="#FDFC47"/>
<stop offset="1" stop-color="#24FE41"/>
</linearGradient>
</defs>
</svg>
