<svg width="64" height="64" viewBox="0 0 64 64" fill="none" xmlns="http://www.w3.org/2000/svg">
<g clip-path="url(#clip0_4_9549)">
<g opacity="0.3" filter="url(#filter0_f_4_9549)">
<path d="M44.5 4.5H19.5C11.2157 4.5 4.5 11.2157 4.5 19.5V44.5C4.5 52.7843 11.2157 59.5 19.5 59.5H44.5C52.7843 59.5 59.5 52.7843 59.5 44.5V19.5C59.5 11.2157 52.7843 4.5 44.5 4.5Z" fill="url(#paint0_linear_4_9549)"/>
</g>
<path d="M19.5 5H44.5C52.5081 5 59 11.4919 59 19.5V44.5C59 52.5081 52.5081 59 44.5 59H19.5C11.4919 59 5 52.5081 5 44.5V19.5C5 11.4919 11.4919 5 19.5 5Z" fill="#232323" stroke="url(#paint1_linear_4_9549)"/>
<path d="M42.2459 17.953C38.9081 17.9545 37.4022 22.0311 37.4022 22.0311L26.4412 23.8827C26.4412 23.8827 24.135 18.1586 18.5193 23.2714C12.9036 28.3842 11.6221 41.8604 12.0877 44.3884C12.5533 46.9169 19.9193 47.5038 22.9647 39.1775L40.8747 36.4002C40.8747 36.4002 42.4029 40.7091 45.9216 40.8631C49.4403 41.0171 52.9964 39.3521 51.7439 33.3436C50.4914 27.335 49.064 20.5396 44.2908 18.4216C43.545 18.0906 42.864 17.9527 42.2459 17.953ZM31.8789 24.6425L37.2539 30.6054L34.4004 30.9765V34.7499L29.1738 35.7069V32.1249L26.5156 32.2695L31.8789 24.6425Z" fill="url(#paint2_linear_4_9549)"/>
</g>
<defs>
<filter id="filter0_f_4_9549" x="3.2625" y="3.2625" width="57.475" height="57.475" filterUnits="userSpaceOnUse" color-interpolation-filters="sRGB">
<feFlood flood-opacity="0" result="BackgroundImageFix"/>
<feBlend mode="normal" in="SourceGraphic" in2="BackgroundImageFix" result="shape"/>
<feGaussianBlur stdDeviation="0.61875" result="effect1_foregroundBlur_4_9549"/>
</filter>
<linearGradient id="paint0_linear_4_9549" x1="4.5" y1="32" x2="59.5" y2="32" gradientUnits="userSpaceOnUse">
<stop stop-color="#FDFC47"/>
<stop offset="1" stop-color="#24FE41"/>
</linearGradient>
<linearGradient id="paint1_linear_4_9549" x1="4.5" y1="32" x2="59.5" y2="32" gradientUnits="userSpaceOnUse">
<stop stop-color="#FDFC47"/>
<stop offset="1" stop-color="#24FE41"/>
</linearGradient>
<linearGradient id="paint2_linear_4_9549" x1="12" y1="32.0002" x2="52.0005" y2="32.0002" gradientUnits="userSpaceOnUse">
<stop stop-color="#FDFC47"/>
<stop offset="1" stop-color="#24FE41"/>
</linearGradient>
<clipPath id="clip0_4_9549">
<rect width="64" height="64" fill="white"/>
</clipPath>
</defs>
</svg>
