<svg width="64" height="64" viewBox="0 0 64 64" fill="none" xmlns="http://www.w3.org/2000/svg">
<g clip-path="url(#clip0_4_9477)">
<g opacity="0.3" filter="url(#filter0_f_4_9477)">
<path d="M44.5 4.5H19.5C11.2157 4.5 4.5 11.2157 4.5 19.5V44.5C4.5 52.7843 11.2157 59.5 19.5 59.5H44.5C52.7843 59.5 59.5 52.7843 59.5 44.5V19.5C59.5 11.2157 52.7843 4.5 44.5 4.5Z" fill="url(#paint0_linear_4_9477)"/>
</g>
<path d="M19.5 5H44.5C52.5081 5 59 11.4919 59 19.5V44.5C59 52.5081 52.5081 59 44.5 59H19.5C11.4919 59 5 52.5081 5 44.5V19.5C5 11.4919 11.4919 5 19.5 5Z" fill="#232323" stroke="url(#paint1_linear_4_9477)"/>
<g opacity="0.5" filter="url(#filter1_f_4_9477)">
<path d="M43.998 14.9998H19.998C17.2366 14.9998 14.998 17.2384 14.998 19.9998V43.9998C14.998 46.7612 17.2366 48.9998 19.998 48.9998H43.998C46.7595 48.9998 48.998 46.7612 48.998 43.9998V19.9998C48.998 17.2384 46.7595 14.9998 43.998 14.9998Z" fill="url(#paint2_linear_4_9477)"/>
</g>
<path opacity="0.5" fill-rule="evenodd" clip-rule="evenodd" d="M20 14.9995H44C46.77 14.9995 49 17.2295 49 19.9995V43.9995C49 46.7695 46.77 48.9995 44 48.9995H20C17.23 48.9995 15 46.7695 15 43.9995V19.9995C15 17.2295 17.23 14.9995 20 14.9995Z" fill="url(#paint3_linear_4_9477)"/>
<path d="M20 41.6515H31.739V43.9993H20V41.6515Z" fill="#232323"/>
<path d="M23.8241 33.5876C26.5797 33.5876 27.793 31.6119 27.793 29.2029V20.5026H25.2281V28.9946C25.2281 30.7624 24.6388 31.369 23.5123 31.369C22.7844 31.369 22.1085 30.9704 21.6059 30.0345L19.8555 31.3343C20.7047 32.8248 21.9522 33.5876 23.8241 33.5876Z" fill="#232323"/>
<path d="M25.1642 20.4406V28.9965C25.1642 29.8737 25.0187 30.4492 24.7435 30.8051C24.4682 31.1611 24.0631 31.3071 23.5107 31.3071C22.8048 31.3071 22.1531 30.9301 21.6578 30.0079L21.6283 29.9414L19.7754 31.3145L19.8049 31.3661C20.6624 32.871 21.9326 33.6472 23.8207 33.6472C25.213 33.6472 26.2326 33.1496 26.8917 32.3406C27.5508 31.5316 27.8513 30.4179 27.8513 29.2032V20.4406L25.1642 20.4406ZM25.2897 20.5661H27.7332V29.2033C27.7332 30.3976 27.432 31.4783 26.7956 32.2594C26.1592 33.0405 25.1841 33.5291 23.8207 33.5291C21.9873 33.5291 20.7924 32.7783 19.9526 31.3367L21.6136 30.1039C22.1193 30.9956 22.7827 31.4326 23.5108 31.4326C24.0849 31.4326 24.5385 31.2683 24.8395 30.879C25.1405 30.4897 25.2898 29.8872 25.2898 28.9966L25.2897 20.5661Z" fill="#232323"/>
<path d="M32.0705 33.5872H36.7322C39.6106 33.5872 41.8003 32.3688 41.8003 29.7377C41.8003 27.9719 40.7584 26.983 39.3457 26.6474V26.5592C40.4582 26.1706 41.1293 24.9346 41.1293 23.7337C41.1293 21.2969 39.0809 20.5022 36.3968 20.5022H32.0703L32.0705 33.5872ZM34.6839 25.8349V22.5151H36.2379C37.8095 22.5151 38.5865 22.9742 38.5865 24.122C38.5865 25.1639 37.8625 25.8349 36.2026 25.8349H34.6839ZM34.6839 31.5738V27.7595H36.5028C38.304 27.7595 39.2576 28.3069 39.2576 29.5783C39.2576 30.938 38.2863 31.5738 36.5028 31.5738L34.6839 31.5738Z" fill="#232323"/>
<path d="M32.0079 20.4406V33.6469H32.0743H36.7323C38.18 33.6469 39.4576 33.3455 40.379 32.702C41.3004 32.0586 41.8628 31.0668 41.8628 29.7345C41.8628 28.8396 41.5936 28.1371 41.1467 27.6158C40.7106 27.107 40.0992 26.7857 39.4046 26.6119V26.5602C40.5058 26.1351 41.191 24.9312 41.191 23.7329C41.191 22.4975 40.666 21.6615 39.8032 21.1492C38.9404 20.6369 37.7481 20.4405 36.4001 20.4405L32.0079 20.4406ZM32.1334 20.5661H36.4001C37.7362 20.5661 38.9044 20.7584 39.7368 21.2527C40.5692 21.7469 41.073 22.5315 41.073 23.733C41.073 24.9113 40.4054 26.1235 39.3234 26.5013L39.2865 26.5161V26.6932L39.3308 26.708C40.0274 26.8734 40.6309 27.1987 41.0582 27.6972C41.4855 28.1957 41.7374 28.8636 41.7374 29.7346C41.7374 31.0334 41.2057 31.9753 40.3126 32.5988C39.4196 33.2224 38.163 33.529 36.7323 33.529H32.1333L32.1334 20.5661ZM34.6211 22.4559V25.896H34.6875H36.2008C37.0389 25.896 37.6502 25.7257 38.0537 25.4162C38.4572 25.1067 38.6516 24.6593 38.6516 24.1243C38.6516 23.5368 38.446 23.1089 38.0389 22.8398C37.6319 22.5708 37.0294 22.456 36.2377 22.456L34.6211 22.4559ZM34.7466 22.5741H36.2377C37.0177 22.5741 37.5982 22.6883 37.9725 22.9358C38.3468 23.1832 38.5261 23.564 38.5261 24.1243C38.5261 24.6312 38.3534 25.0337 37.9799 25.3202C37.6064 25.6067 37.0226 25.7778 36.2008 25.7778H34.7465L34.7466 22.5741ZM34.6211 27.6973V31.6319H34.6875H36.5035C37.4024 31.6319 38.1041 31.4771 38.5852 31.1373C39.0664 30.7975 39.3161 30.2739 39.3161 29.5797C39.3161 28.9288 39.0719 28.446 38.5926 28.1402C38.1133 27.8343 37.4102 27.6972 36.5035 27.6972L34.6211 27.6973ZM34.7466 27.8228H36.5035C37.398 27.8228 38.0784 27.9579 38.5262 28.2436C38.9739 28.5293 39.198 28.9591 39.198 29.5797C39.198 30.2452 38.9691 30.716 38.5188 31.034C38.0685 31.352 37.3881 31.5138 36.5035 31.5138H34.7466L34.7466 27.8228Z" fill="#232323"/>
</g>
<defs>
<filter id="filter0_f_4_9477" x="3.2625" y="3.2625" width="57.475" height="57.475" filterUnits="userSpaceOnUse" color-interpolation-filters="sRGB">
<feFlood flood-opacity="0" result="BackgroundImageFix"/>
<feBlend mode="normal" in="SourceGraphic" in2="BackgroundImageFix" result="shape"/>
<feGaussianBlur stdDeviation="0.61875" result="effect1_foregroundBlur_4_9477"/>
</filter>
<filter id="filter1_f_4_9477" x="13.298" y="13.2998" width="37.4" height="37.4" filterUnits="userSpaceOnUse" color-interpolation-filters="sRGB">
<feFlood flood-opacity="0" result="BackgroundImageFix"/>
<feBlend mode="normal" in="SourceGraphic" in2="BackgroundImageFix" result="shape"/>
<feGaussianBlur stdDeviation="0.85" result="effect1_foregroundBlur_4_9477"/>
</filter>
<linearGradient id="paint0_linear_4_9477" x1="4.5" y1="32" x2="59.5" y2="32" gradientUnits="userSpaceOnUse">
<stop stop-color="#FDFC47"/>
<stop offset="1" stop-color="#24FE41"/>
</linearGradient>
<linearGradient id="paint1_linear_4_9477" x1="4.5" y1="32" x2="59.5" y2="32" gradientUnits="userSpaceOnUse">
<stop stop-color="#FDFC47"/>
<stop offset="1" stop-color="#24FE41"/>
</linearGradient>
<linearGradient id="paint2_linear_4_9477" x1="14.998" y1="31.9998" x2="48.998" y2="31.9998" gradientUnits="userSpaceOnUse">
<stop stop-color="#FDFC47"/>
<stop offset="1" stop-color="#24FE41"/>
</linearGradient>
<linearGradient id="paint3_linear_4_9477" x1="15" y1="31.9995" x2="49" y2="31.9995" gradientUnits="userSpaceOnUse">
<stop stop-color="#FDFC47"/>
<stop offset="1" stop-color="#24FE41"/>
</linearGradient>
<clipPath id="clip0_4_9477">
<rect width="64" height="64" fill="white"/>
</clipPath>
</defs>
</svg>
