<svg width="64" height="64" viewBox="0 0 64 64" fill="none" xmlns="http://www.w3.org/2000/svg">
<g opacity="0.3" filter="url(#filter0_f_4_9370)">
<path d="M46.4983 4.50003H17.5021C10.3212 4.50003 4.5 10.3213 4.5 17.5021V46.4983C4.5 53.6792 10.3212 59.5004 17.5021 59.5004H46.4983C53.6792 59.5004 59.5004 53.6792 59.5004 46.4983V17.5021C59.5004 10.3213 53.6792 4.50003 46.4983 4.50003Z" fill="#232323"/>
<path d="M17.5021 5.00003H46.4983C53.403 5.00003 59.0004 10.5974 59.0004 17.5021V46.4983C59.0004 53.403 53.403 59.0004 46.4983 59.0004H17.5021C10.5974 59.0004 5 53.403 5 46.4983V17.5021C5 10.5974 10.5974 5.00003 17.5021 5.00003Z" stroke="url(#paint0_linear_4_9370)"/>
</g>
<path d="M17.5038 4.9996H46.5009C53.4055 4.9996 59.0027 10.5969 59.0027 17.5014V46.4985C59.0027 53.4031 53.4055 59.0004 46.5009 59.0004H17.5038C10.5992 59.0004 5.00195 53.4031 5.00195 46.4985V17.5014C5.00195 10.5969 10.5992 4.9996 17.5038 4.9996Z" fill="#232323" stroke="url(#paint1_linear_4_9370)"/>
<g opacity="0.6">
<mask id="path-4-inside-1_4_9370" fill="white">
<path d="M9.97451 25.964C9.94578 26.1139 9.92794 26.2701 9.90039 26.4237H54.1066C54.0805 26.2701 54.0614 26.1137 54.0296 25.964H9.97451Z"/>
</mask>
<path d="M9.97451 25.964C9.94578 26.1139 9.92794 26.2701 9.90039 26.4237H54.1066C54.0805 26.2701 54.0614 26.1137 54.0296 25.964H9.97451Z" fill="#232323"/>
<path d="M9.97451 25.964V24.964H9.14798L8.99239 25.7757L9.97451 25.964ZM9.90039 26.4237L8.91611 26.2471L8.705 27.4237H9.90039V26.4237ZM54.1066 26.4237V27.4237H55.2908L55.0925 26.2563L54.1066 26.4237ZM54.0296 25.964L55.0078 25.7563L54.8396 24.964H54.0296V25.964ZM8.99239 25.7757C8.97367 25.8734 8.95932 25.9688 8.94797 26.0448C8.93569 26.127 8.92671 26.188 8.91611 26.2471L10.8847 26.6003C10.9016 26.5059 10.9153 26.4119 10.9261 26.3401C10.9377 26.2621 10.9466 26.2044 10.9566 26.1522L8.99239 25.7757ZM9.90039 27.4237H54.1066V25.4237H9.90039V27.4237ZM55.0925 26.2563C55.0779 26.1704 55.044 25.9271 55.0078 25.7563L53.0514 26.1716C53.0787 26.3003 53.0832 26.3699 53.1207 26.5911L55.0925 26.2563ZM54.0296 24.964H9.97451V26.964H54.0296V24.964Z" fill="url(#paint2_linear_4_9370)" mask="url(#path-4-inside-1_4_9370)"/>
</g>
<g opacity="0.6">
<mask id="path-6-inside-2_4_9370" fill="white">
<path d="M10.6992 15.9783C10.7249 16.1318 10.7492 16.2851 10.7777 16.438H53.234C53.2604 16.2728 53.2831 16.1413 53.3068 15.9783H10.6992Z"/>
</mask>
<path d="M10.6992 15.9783C10.7249 16.1318 10.7492 16.2851 10.7777 16.438H53.234C53.2604 16.2728 53.2831 16.1413 53.3068 15.9783H10.6992Z" fill="#232323"/>
<path d="M10.6992 15.9783V14.9783H9.51795L9.71294 16.1433L10.6992 15.9783ZM10.7777 16.438L9.79457 16.621L9.94666 17.438H10.7777V16.438ZM53.234 16.438V17.438H54.0865L54.2214 16.5961L53.234 16.438ZM53.3068 15.9783L54.2964 16.1221L54.4627 14.9783H53.3068V15.9783ZM9.71294 16.1433C9.73675 16.2856 9.76389 16.4562 9.79457 16.621L11.7608 16.255C11.7346 16.114 11.7131 15.978 11.6855 15.8132L9.71294 16.1433ZM10.7777 17.438H53.234V15.438H10.7777V17.438ZM54.2214 16.5961C54.2456 16.4446 54.2714 16.2945 54.2964 16.1221L52.3172 15.8344C52.2949 15.9882 52.2752 16.101 52.2465 16.2799L54.2214 16.5961ZM53.3068 14.9783H10.6992V16.9783H53.3068V14.9783Z" fill="url(#paint3_linear_4_9370)" mask="url(#path-6-inside-2_4_9370)"/>
</g>
<g opacity="0.6">
<mask id="path-8-inside-3_4_9370" fill="white">
<path d="M9.97451 35.9535C9.94578 36.1033 9.92794 36.2596 9.90039 36.4132H54.1066C54.0805 36.2596 54.0614 36.1032 54.0296 35.9535H9.97451Z"/>
</mask>
<path d="M9.97451 35.9535C9.94578 36.1033 9.92794 36.2596 9.90039 36.4132H54.1066C54.0805 36.2596 54.0614 36.1032 54.0296 35.9535H9.97451Z" fill="#232323"/>
<path d="M9.97451 35.9535V34.9535H9.14798L8.99239 35.7652L9.97451 35.9535ZM9.90039 36.4132L8.91611 36.2366L8.705 37.4132H9.90039V36.4132ZM54.1066 36.4132V37.4132H55.2908L55.0925 36.2457L54.1066 36.4132ZM54.0296 35.9535L55.0078 35.7458L54.8396 34.9535H54.0296V35.9535ZM8.99239 35.7652C8.97367 35.8629 8.95932 35.9583 8.94797 36.0343C8.93569 36.1165 8.92671 36.1775 8.91611 36.2366L10.8847 36.5898C10.9016 36.4953 10.9153 36.4013 10.9261 36.3296C10.9377 36.2516 10.9466 36.1939 10.9566 36.1417L8.99239 35.7652ZM9.90039 37.4132H54.1066V35.4132H9.90039V37.4132ZM55.0925 36.2457C55.0779 36.1599 55.044 35.9166 55.0078 35.7458L53.0514 36.1611C53.0787 36.2898 53.0832 36.3593 53.1207 36.5806L55.0925 36.2457ZM54.0296 34.9535H9.97451V36.9535H54.0296V34.9535Z" fill="url(#paint4_linear_4_9370)" mask="url(#path-8-inside-3_4_9370)"/>
</g>
<g opacity="0.6">
<mask id="path-10-inside-4_4_9370" fill="white">
<path d="M9.97451 45.9392C9.94578 46.089 9.92794 46.2453 9.90039 46.3989H54.1066C54.0805 46.2453 54.0614 46.0889 54.0296 45.9392H9.97451Z"/>
</mask>
<path d="M9.97451 45.9392C9.94578 46.089 9.92794 46.2453 9.90039 46.3989H54.1066C54.0805 46.2453 54.0614 46.0889 54.0296 45.9392H9.97451Z" fill="#232323"/>
<path d="M9.97451 45.9392V44.9392H9.14798L8.99239 45.7509L9.97451 45.9392ZM9.90039 46.3989L8.91611 46.2223L8.705 47.3989H9.90039V46.3989ZM54.1066 46.3989V47.3989H55.2908L55.0925 46.2315L54.1066 46.3989ZM54.0296 45.9392L55.0078 45.7315L54.8396 44.9392H54.0296V45.9392ZM8.99239 45.7509C8.97367 45.8486 8.95932 45.944 8.94797 46.02C8.93569 46.1022 8.92671 46.1632 8.91611 46.2223L10.8847 46.5755C10.9016 46.481 10.9153 46.3871 10.9261 46.3153C10.9377 46.2373 10.9466 46.1796 10.9566 46.1274L8.99239 45.7509ZM9.90039 47.3989H54.1066V45.3989H9.90039V47.3989ZM55.0925 46.2315C55.0779 46.1456 55.044 45.9023 55.0078 45.7315L53.0514 46.1468C53.0787 46.2755 53.0832 46.345 53.1207 46.5663L55.0925 46.2315ZM54.0296 44.9392H9.97451V46.9392H54.0296V44.9392Z" fill="url(#paint5_linear_4_9370)" mask="url(#path-10-inside-4_4_9370)"/>
</g>
<g opacity="0.5" filter="url(#filter1_f_4_9370)">
<path d="M16.8709 45.1941C16.8709 45.1941 16.1504 44.7266 16.1504 44.4848C16.1504 44.243 18.1254 37.6164 18.3386 37.2516C18.5519 36.8868 41.1396 15.3149 41.1396 15.3149C41.1396 15.3149 42.1709 14.5339 42.8076 15.0175C43.4443 15.5011 45.5876 17.6922 45.5876 17.6922L16.8709 45.1941Z" fill="#232323"/>
<path d="M41.4201 15.7383L41.4604 15.6999C41.4633 15.6979 41.4665 15.6956 41.47 15.6932C41.493 15.6772 41.5282 15.6536 41.5728 15.6262C41.6635 15.5703 41.7861 15.5028 41.9203 15.4492C42.2266 15.3268 42.4111 15.3443 42.5051 15.4157L42.5052 15.4157C42.7914 15.6331 43.4596 16.2738 44.0849 16.8918C44.3851 17.1886 44.6666 17.471 44.8755 17.6819L16.8275 44.5433C16.8273 44.5432 16.8271 44.543 16.8269 44.5429C16.7672 44.4941 16.7161 44.4484 16.6772 44.4091C16.6884 44.3641 16.7024 44.3103 16.7189 44.2478C16.7722 44.0472 16.8492 43.7704 16.9431 43.4411C17.1308 42.783 17.3837 41.9229 17.6434 41.0582C17.9032 40.1933 18.1692 39.3261 18.3832 38.6532C18.4904 38.3165 18.5837 38.0309 18.6563 37.8197C18.6927 37.7137 18.7228 37.6296 18.7461 37.5684C18.7533 37.5497 18.7591 37.5351 18.7635 37.524C18.7697 37.5174 18.7769 37.5097 18.7851 37.5011C18.8302 37.4537 18.8966 37.3859 18.9843 37.2978C19.1591 37.1221 19.4108 36.8735 19.7294 36.5615C20.3662 35.938 21.265 35.0664 22.3386 34.0298C24.4855 31.9568 27.3284 29.2266 30.1651 26.5074C33.0017 23.7883 35.8316 21.0806 37.9525 19.0526C39.0129 18.0386 39.896 17.1945 40.514 16.604L41.2312 15.9188L41.4201 15.7383ZM16.6458 44.5459C16.6457 44.5461 16.646 44.5442 16.6468 44.5399C16.6462 44.5437 16.6458 44.5458 16.6458 44.5459ZM18.7359 37.5543C18.733 37.558 18.7312 37.56 18.7311 37.5601C18.731 37.5601 18.7324 37.5583 18.7359 37.5543Z" stroke="url(#paint6_linear_4_9370)"/>
</g>
<g opacity="0.5" filter="url(#filter2_f_4_9370)">
<path d="M16.8711 45.1941C16.8711 45.1941 17.357 45.8872 17.6083 45.8872C17.8596 45.8872 24.7473 43.9871 25.1265 43.7819C25.5057 43.5768 47.9275 21.8453 47.9275 21.8453C47.9275 21.8453 48.7392 20.853 48.2365 20.2405C47.7339 19.6279 45.4565 17.5658 45.4565 17.5658L16.8711 45.1941Z" fill="#232323"/>
<path d="M47.5548 21.5102L47.5152 21.5485L47.3276 21.7303L46.6154 22.4203C46.0016 23.0149 45.1243 23.8645 44.0704 24.8848C41.9625 26.9252 39.1481 29.6479 36.3219 32.377C33.4955 35.1061 30.6578 37.8413 28.5031 39.9068C27.4257 40.9397 26.5197 41.8045 25.8716 42.4171C25.5474 42.7236 25.289 42.9658 25.1063 43.134C25.0147 43.2184 24.9443 43.2822 24.8949 43.3257C24.8848 43.3346 24.876 43.3423 24.8684 43.3488C24.856 43.3535 24.8389 43.3598 24.8159 43.3679C24.7517 43.3906 24.6637 43.4197 24.5534 43.4548C24.3333 43.5248 24.0361 43.6147 23.6859 43.7178C22.9863 43.9238 22.0846 44.1798 21.1855 44.4298C20.2866 44.6797 19.3924 44.9231 18.7081 45.1037C18.3656 45.1941 18.0777 45.2683 17.8687 45.3196C17.7907 45.3388 17.7253 45.3544 17.6732 45.3663C17.6357 45.3332 17.5921 45.2894 17.5454 45.2378L45.4664 18.2516C45.4717 18.2564 45.477 18.2613 45.4823 18.2662C45.7028 18.4683 46.0018 18.7439 46.3162 19.0384C46.9588 19.6402 47.6245 20.2828 47.85 20.5576L47.85 20.5576C47.9105 20.6314 47.9371 20.7833 47.8114 21.0744C47.7568 21.2009 47.6877 21.3171 47.6301 21.4037C47.6019 21.4462 47.5776 21.4798 47.5611 21.5017C47.5589 21.5048 47.5567 21.5076 47.5548 21.5102ZM17.5547 45.3909C17.5548 45.3908 17.5567 45.3905 17.5602 45.3901C17.5563 45.3907 17.5546 45.3909 17.5547 45.3909ZM24.8336 43.3777C24.8337 43.3775 24.8357 43.376 24.8392 43.3734C24.8352 43.3766 24.8334 43.3779 24.8336 43.3777Z" stroke="url(#paint7_linear_4_9370)"/>
</g>
<path d="M41.2587 14.0775L41.3 14.0364C41.3031 14.0342 41.3066 14.0316 41.3104 14.0289C41.3338 14.0121 41.3694 13.9872 41.4146 13.9583C41.5065 13.8995 41.6304 13.8286 41.7659 13.7723C42.0749 13.644 42.256 13.6635 42.3495 13.7373L42.3495 13.7373C42.6397 13.9665 43.3163 14.6409 43.9487 15.2905C44.2583 15.6086 44.5482 15.911 44.7607 16.1341C44.7648 16.1385 44.7689 16.1428 44.773 16.147L16.378 44.4121C16.3125 44.3563 16.257 44.3041 16.2163 44.26C16.2287 44.2082 16.2446 44.1439 16.2641 44.0675C16.3181 43.8562 16.396 43.565 16.4911 43.2186C16.681 42.5264 16.9368 41.6219 17.1996 40.7126C17.4624 39.8031 17.7316 38.891 17.9482 38.1833C18.0566 37.8291 18.1511 37.5285 18.2246 37.306C18.2615 37.1944 18.2921 37.1055 18.3159 37.0406C18.3244 37.0176 18.3311 37.0003 18.336 36.9878C18.343 36.98 18.3513 36.9708 18.361 36.9602C18.4067 36.9102 18.474 36.8388 18.5627 36.7461C18.7396 36.5613 18.9943 36.2998 19.3166 35.9718C19.9608 35.3162 20.8701 34.3997 21.9561 33.3098C24.1279 31.1301 27.0037 28.2595 29.8733 25.4004C32.7427 22.5415 35.6055 19.6945 37.7509 17.5622C38.8236 16.496 39.7169 15.6086 40.3421 14.9877L41.0676 14.2672L41.2587 14.0775ZM16.1894 44.3843C16.1893 44.3845 16.1895 44.3827 16.1902 44.3788C16.1898 44.3823 16.1894 44.3842 16.1894 44.3843ZM18.3104 37.0171C18.3077 37.0206 18.306 37.0226 18.3059 37.0227C18.3057 37.0228 18.3071 37.021 18.3104 37.0171Z" fill="url(#paint8_linear_4_9370)" stroke="url(#paint9_linear_4_9370)"/>
<path d="M17.0834 45.1178L45.3485 16.7228C45.3528 16.7269 45.3571 16.731 45.3614 16.7351C45.5845 16.9476 45.887 17.2375 46.205 17.5471C46.8547 18.1795 47.5291 18.8561 47.7582 19.1463L47.7582 19.1463C47.832 19.2399 47.8515 19.4209 47.7232 19.73C47.6669 19.8655 47.596 19.9894 47.5372 20.0812C47.5083 20.1264 47.4834 20.1621 47.4666 20.1855C47.4639 20.1892 47.4614 20.1927 47.4591 20.1958L47.4181 20.2371L47.2283 20.4282L46.5079 21.1537C45.8869 21.7789 44.9995 22.6722 43.9334 23.7449C41.8011 25.8904 38.954 28.7531 36.0951 31.6225C33.236 34.4921 30.3654 37.368 28.1857 39.5397C27.0958 40.6258 26.1793 41.535 25.5237 42.1792C25.1957 42.5015 24.9342 42.7562 24.7494 42.9331C24.6567 43.0218 24.5853 43.0891 24.5353 43.1348C24.5247 43.1445 24.5155 43.1529 24.5077 43.1599C24.4952 43.1648 24.478 43.1714 24.4549 43.1799C24.39 43.2037 24.3011 43.2343 24.1895 43.2712C23.967 43.3447 23.6664 43.4392 23.3122 43.5476C22.6045 43.7642 21.6924 44.0334 20.7829 44.2962C19.8736 44.559 18.9691 44.8148 18.277 45.0047C17.9305 45.0998 17.6393 45.1778 17.428 45.2317C17.3516 45.2512 17.2874 45.2672 17.2356 45.2795C17.1914 45.2388 17.1392 45.1833 17.0834 45.1178ZM17.1112 45.3065C17.1113 45.3064 17.1132 45.3061 17.1167 45.3056C17.1128 45.3063 17.1111 45.3065 17.1112 45.3065ZM24.4728 43.19C24.473 43.1897 24.475 43.1881 24.4784 43.1855C24.4744 43.1888 24.4726 43.1902 24.4728 43.19Z" fill="url(#paint10_linear_4_9370)" stroke="url(#paint11_linear_4_9370)"/>
<defs>
<filter id="filter0_f_4_9370" x="2.29998" y="2.30001" width="59.4" height="59.4004" filterUnits="userSpaceOnUse" color-interpolation-filters="sRGB">
<feFlood flood-opacity="0" result="BackgroundImageFix"/>
<feBlend mode="normal" in="SourceGraphic" in2="BackgroundImageFix" result="shape"/>
<feGaussianBlur stdDeviation="1.10001" result="effect1_foregroundBlur_4_9370"/>
</filter>
<filter id="filter1_f_4_9370" x="13.9357" y="12.6448" width="33.867" height="34.764" filterUnits="userSpaceOnUse" color-interpolation-filters="sRGB">
<feFlood flood-opacity="0" result="BackgroundImageFix"/>
<feBlend mode="normal" in="SourceGraphic" in2="BackgroundImageFix" result="shape"/>
<feGaussianBlur stdDeviation="1.10736" result="effect1_foregroundBlur_4_9370"/>
</filter>
<filter id="filter2_f_4_9370" x="14.6564" y="15.3511" width="35.9588" height="32.7509" filterUnits="userSpaceOnUse" color-interpolation-filters="sRGB">
<feFlood flood-opacity="0" result="BackgroundImageFix"/>
<feBlend mode="normal" in="SourceGraphic" in2="BackgroundImageFix" result="shape"/>
<feGaussianBlur stdDeviation="1.10736" result="effect1_foregroundBlur_4_9370"/>
</filter>
<linearGradient id="paint0_linear_4_9370" x1="4.5" y1="32.0002" x2="59.5004" y2="32.0002" gradientUnits="userSpaceOnUse">
<stop stop-color="#FDFC47"/>
<stop offset="1" stop-color="#24FE41"/>
</linearGradient>
<linearGradient id="paint1_linear_4_9370" x1="4.50195" y1="32" x2="59.5027" y2="32" gradientUnits="userSpaceOnUse">
<stop stop-color="#FDFC47"/>
<stop offset="1" stop-color="#24FE41"/>
</linearGradient>
<linearGradient id="paint2_linear_4_9370" x1="9.90039" y1="26.1938" x2="54.1066" y2="26.1938" gradientUnits="userSpaceOnUse">
<stop stop-color="#FDFC47"/>
<stop offset="1" stop-color="#24FE41"/>
</linearGradient>
<linearGradient id="paint3_linear_4_9370" x1="10.6992" y1="16.2081" x2="53.3068" y2="16.2081" gradientUnits="userSpaceOnUse">
<stop stop-color="#FDFC47"/>
<stop offset="1" stop-color="#24FE41"/>
</linearGradient>
<linearGradient id="paint4_linear_4_9370" x1="9.90039" y1="36.1833" x2="54.1066" y2="36.1833" gradientUnits="userSpaceOnUse">
<stop stop-color="#FDFC47"/>
<stop offset="1" stop-color="#24FE41"/>
</linearGradient>
<linearGradient id="paint5_linear_4_9370" x1="9.90039" y1="46.169" x2="54.1066" y2="46.169" gradientUnits="userSpaceOnUse">
<stop stop-color="#FDFC47"/>
<stop offset="1" stop-color="#24FE41"/>
</linearGradient>
<linearGradient id="paint6_linear_4_9370" x1="16.1504" y1="30.0268" x2="45.5876" y2="30.0268" gradientUnits="userSpaceOnUse">
<stop stop-color="#FDFC47"/>
<stop offset="1" stop-color="#24FE41"/>
</linearGradient>
<linearGradient id="paint7_linear_4_9370" x1="16.8711" y1="31.7265" x2="48.4007" y2="31.7265" gradientUnits="userSpaceOnUse">
<stop stop-color="#FDFC47"/>
<stop offset="1" stop-color="#24FE41"/>
</linearGradient>
<linearGradient id="paint8_linear_4_9370" x1="15.6934" y1="29.1262" x2="45.4716" y2="29.1262" gradientUnits="userSpaceOnUse">
<stop stop-color="#FDFC47"/>
<stop offset="1" stop-color="#24FE41"/>
</linearGradient>
<linearGradient id="paint9_linear_4_9370" x1="15.6934" y1="29.1262" x2="45.4716" y2="29.1262" gradientUnits="userSpaceOnUse">
<stop stop-color="#FDFC47"/>
<stop offset="1" stop-color="#24FE41"/>
</linearGradient>
<linearGradient id="paint10_linear_4_9370" x1="16.4219" y1="30.9134" x2="48.3167" y2="30.9134" gradientUnits="userSpaceOnUse">
<stop stop-color="#FDFC47"/>
<stop offset="1" stop-color="#24FE41"/>
</linearGradient>
<linearGradient id="paint11_linear_4_9370" x1="16.4219" y1="30.9134" x2="48.3167" y2="30.9134" gradientUnits="userSpaceOnUse">
<stop stop-color="#FDFC47"/>
<stop offset="1" stop-color="#24FE41"/>
</linearGradient>
</defs>
</svg>
