<svg width="64" height="64" viewBox="0 0 64 64" fill="none" xmlns="http://www.w3.org/2000/svg">
<g opacity="0.3" filter="url(#filter0_f_4_9318)">
<path d="M44.5014 4.49893H19.4993C11.2143 4.49893 4.49805 11.2152 4.49805 19.5002V44.5022C4.49805 52.7872 11.2143 59.5035 19.4993 59.5035H44.5014C52.7863 59.5035 59.5026 52.7872 59.5026 44.5022V19.5002C59.5026 11.2152 52.7863 4.49893 44.5014 4.49893Z" fill="url(#paint0_linear_4_9318)"/>
</g>
<path d="M19.5009 4.99847H44.4999C52.5085 4.99847 59.0008 11.4907 59.0008 19.4993V44.4984C59.0008 52.507 52.5085 58.9992 44.4999 58.9992H19.5009C11.4923 58.9992 5 52.507 5 44.4984V19.4993C5 11.4907 11.4923 4.99847 19.5009 4.99847Z" fill="#232323" stroke="url(#paint1_linear_4_9318)"/>
<path d="M17.791 12.2354L21.8595 15.7787V48.5843L17.791 52.1275V12.2354Z" fill="url(#paint2_linear_4_9318)"/>
<path d="M13.8771 21.0111L9.80859 24.75V40.2413L13.8771 43.7124V21.0111Z" fill="url(#paint3_linear_4_9318)"/>
<path d="M25.8462 9.00122L25.8359 29.5807H39.741L50.968 20.6197L48.4239 17.437L38.3196 25.5122H29.9148V9.00122H25.8462Z" fill="url(#paint4_linear_4_9318)"/>
<path d="M33.7969 9.56772V22.175L37.1238 22.1956L45.7964 15.0576L42.418 12.565L37.8654 16.3142V10.608L33.7969 9.56772Z" fill="url(#paint5_linear_4_9318)"/>
<path d="M25.8359 34.4217V55.0012H29.9045V38.4902H38.3196L48.4342 46.5655L50.968 43.3828L39.741 34.4217H25.8359Z" fill="url(#paint6_linear_4_9318)"/>
<path d="M51.5861 25.1311L43.2637 32.0012L51.5964 38.8817L54.192 35.7299L49.66 32.0012L54.1817 28.2726L51.5861 25.1311Z" fill="url(#paint7_linear_4_9318)"/>
<path d="M33.8086 42.3834V54.9907L37.8771 53.9504V48.2442L42.4297 51.9934L45.8081 49.501L37.1355 42.3631L33.8086 42.3834Z" fill="url(#paint8_linear_4_9318)"/>
<defs>
<filter id="filter0_f_4_9318" x="3.26044" y="3.26133" width="57.4791" height="57.4798" filterUnits="userSpaceOnUse" color-interpolation-filters="sRGB">
<feFlood flood-opacity="0" result="BackgroundImageFix"/>
<feBlend mode="normal" in="SourceGraphic" in2="BackgroundImageFix" result="shape"/>
<feGaussianBlur stdDeviation="0.618801" result="effect1_foregroundBlur_4_9318"/>
</filter>
<linearGradient id="paint0_linear_4_9318" x1="4.49805" y1="32.0012" x2="59.5026" y2="32.0012" gradientUnits="userSpaceOnUse">
<stop stop-color="#FDFC47"/>
<stop offset="1" stop-color="#24FE41"/>
</linearGradient>
<linearGradient id="paint1_linear_4_9318" x1="4.5" y1="31.9989" x2="59.5008" y2="31.9989" gradientUnits="userSpaceOnUse">
<stop stop-color="#FDFC47"/>
<stop offset="1" stop-color="#24FE41"/>
</linearGradient>
<linearGradient id="paint2_linear_4_9318" x1="17.791" y1="32.1815" x2="21.8595" y2="32.1815" gradientUnits="userSpaceOnUse">
<stop stop-color="#FDFC47"/>
<stop offset="1" stop-color="#24FE41"/>
</linearGradient>
<linearGradient id="paint3_linear_4_9318" x1="9.80859" y1="32.3617" x2="13.8771" y2="32.3617" gradientUnits="userSpaceOnUse">
<stop stop-color="#FDFC47"/>
<stop offset="1" stop-color="#24FE41"/>
</linearGradient>
<linearGradient id="paint4_linear_4_9318" x1="25.8359" y1="19.291" x2="50.968" y2="19.291" gradientUnits="userSpaceOnUse">
<stop stop-color="#FDFC47"/>
<stop offset="1" stop-color="#24FE41"/>
</linearGradient>
<linearGradient id="paint5_linear_4_9318" x1="33.7969" y1="15.8816" x2="45.7964" y2="15.8816" gradientUnits="userSpaceOnUse">
<stop stop-color="#FDFC47"/>
<stop offset="1" stop-color="#24FE41"/>
</linearGradient>
<linearGradient id="paint6_linear_4_9318" x1="25.8359" y1="44.7115" x2="50.968" y2="44.7115" gradientUnits="userSpaceOnUse">
<stop stop-color="#FDFC47"/>
<stop offset="1" stop-color="#24FE41"/>
</linearGradient>
<linearGradient id="paint7_linear_4_9318" x1="43.2637" y1="32.0064" x2="54.192" y2="32.0064" gradientUnits="userSpaceOnUse">
<stop stop-color="#FDFC47"/>
<stop offset="1" stop-color="#24FE41"/>
</linearGradient>
<linearGradient id="paint8_linear_4_9318" x1="33.8086" y1="48.6769" x2="45.8081" y2="48.6769" gradientUnits="userSpaceOnUse">
<stop stop-color="#FDFC47"/>
<stop offset="1" stop-color="#24FE41"/>
</linearGradient>
</defs>
</svg>
