<svg width="64" height="64" viewBox="0 0 64 64" fill="none" xmlns="http://www.w3.org/2000/svg">
<g opacity="0.3" filter="url(#filter0_f_4_9268)">
<path d="M44.5003 4.50003H19.5001C11.2158 4.50003 4.5 11.2158 4.5 19.5001V44.5003C4.5 52.7846 11.2158 59.5004 19.5001 59.5004H44.5003C52.7846 59.5004 59.5004 52.7846 59.5004 44.5003V19.5001C59.5004 11.2158 52.7846 4.50003 44.5003 4.50003Z" fill="#232323"/>
<path d="M19.5001 5.00003H44.5003C52.5085 5.00003 59.0004 11.4919 59.0004 19.5001V44.5003C59.0004 52.5085 52.5085 59.0004 44.5003 59.0004H19.5001C11.4919 59.0004 5 52.5085 5 44.5003V19.5001C5 11.4919 11.4919 5.00003 19.5001 5.00003Z" stroke="url(#paint0_linear_4_9268)"/>
</g>
<path d="M19.5001 5H44.5007C52.5089 5 59.0008 11.4919 59.0008 19.5001V44.5007C59.0008 52.5089 52.5089 59.0008 44.5007 59.0008H19.5001C11.4919 59.0008 5 52.5089 5 44.5007V19.5001C5 11.4919 11.4919 5 19.5001 5Z" fill="#232323" stroke="url(#paint1_linear_4_9268)"/>
<path d="M4.99805 19.5001C4.99805 11.466 11.4645 5 19.4982 5L44.4979 5.00012C52.532 5.00012 58.9981 11.4665 58.9981 19.5002V22.0899L32.187 47.1655L4.99805 22.08V19.5001Z" fill="#232323" stroke="url(#paint2_linear_4_9268)"/>
<path d="M20.8887 35.3553C20.4627 35.7814 20.4627 36.4721 20.8887 36.8982L31.1499 47.1594C31.576 47.5855 32.2668 47.5855 32.6928 47.1594C33.1189 46.7333 33.1189 46.0426 32.6928 45.6165L22.4316 35.3553C22.0055 34.9292 21.3148 34.9292 20.8887 35.3553Z" fill="url(#paint3_linear_4_9268)" stroke="url(#paint4_linear_4_9268)"/>
<g filter="url(#filter1_f_4_9268)">
<path d="M30.5156 16.9084C29.6342 16.9084 28.9258 17.6188 28.9258 18.5002V46.3869C28.9258 46.4695 28.9371 46.5479 28.9492 46.6271C28.9523 46.6471 28.9512 46.6676 28.9553 46.6876C28.973 46.7799 29.0026 46.8675 29.0354 46.9533C29.0391 46.9635 29.041 46.9744 29.0452 46.9846C29.2062 47.3819 29.5209 47.6987 29.9182 47.8596C29.9318 47.8653 29.9454 47.8683 29.9592 47.8732C30.042 47.9042 30.1264 47.9305 30.2151 47.9475C30.3153 47.9671 30.4162 47.9769 30.5179 47.9769C30.6213 47.9768 30.7228 47.9664 30.8206 47.9475C30.82 47.9476 30.8212 47.9473 30.8206 47.9475C30.8958 47.9327 30.9684 47.9077 31.0394 47.883C31.0662 47.8736 31.0953 47.8702 31.1214 47.8596C31.2083 47.8241 31.2891 47.7784 31.3675 47.7287C31.3762 47.7231 31.386 47.7189 31.3947 47.7132C31.4838 47.6542 31.5675 47.5855 31.6427 47.5101L41.9044 37.2485C42.5276 36.6252 42.5276 35.6218 41.9044 34.9985C41.2811 34.3752 40.2776 34.3752 39.6544 34.9985L32.1076 42.5452V18.5002C32.1076 17.6188 31.397 16.9084 30.5156 16.9084Z" fill="#232323"/>
<path d="M30.981 47.5131C31.0522 47.5793 31.1367 47.6926 31.1917 47.8281C31.2066 47.8209 31.2213 47.8135 31.2358 47.8058C31.232 47.7434 31.2202 47.6804 31.1978 47.619C31.13 47.5634 31.0437 47.5195 30.9716 47.49M30.981 47.5131L30.9716 47.49M30.981 47.5131C30.9803 47.5126 30.9797 47.512 30.9791 47.5114M30.981 47.5131L31.1214 47.8596L30.9791 47.5114M30.9716 47.49C30.9711 47.4898 30.9706 47.4896 30.9701 47.4894M30.9716 47.49L30.9336 47.3962C30.948 47.3904 30.9589 47.3871 30.9635 47.3857C30.9655 47.3852 30.967 47.3848 30.9672 47.3847C30.9674 47.3847 30.9664 47.3849 30.9633 47.3857C30.9616 47.3861 30.9571 47.3872 30.9514 47.3886C30.9449 47.3914 30.9385 47.3942 30.9322 47.3967L30.9701 47.4894M30.9701 47.4894C30.9581 47.4845 30.9465 47.48 30.9354 47.476C30.949 47.4854 30.9637 47.4973 30.9791 47.5114M30.9701 47.4894L30.9791 47.5114M30.7588 47.4513L30.7665 47.4504L30.7696 47.4501L30.7588 47.4513ZM30.7588 47.4513L30.7568 47.4515L30.7471 47.4529L30.7588 47.4513ZM29.0354 46.9533C29.0026 46.8675 28.973 46.7799 28.9553 46.6876L29.0354 46.9533ZM29.0354 46.9533C29.0371 46.958 29.0384 46.9628 29.0398 46.9676C29.0413 46.9734 29.0429 46.9791 29.0452 46.9846L29.0354 46.9533ZM29.4499 46.6107L29.4494 46.6034C29.4484 46.591 29.4467 46.5723 29.4433 46.5503L28.9492 46.6271C28.9371 46.5479 28.9258 46.4695 28.9258 46.3869V18.5002C28.9258 17.6188 29.6342 16.9084 30.5156 16.9084C31.397 16.9084 32.1076 17.6188 32.1076 18.5002L29.4499 46.6107ZM30.7244 47.4568L30.725 47.4567L30.7258 47.4565C30.7255 47.4566 30.7252 47.4566 30.7249 47.4567C30.7247 47.4567 30.7246 47.4568 30.7244 47.4568ZM32.6076 42.5452V42.0452L32.1076 42.5452H32.6076ZM31.0394 47.883L30.8928 47.4614C30.8921 47.4612 30.8914 47.461 30.8907 47.4608L31.0394 47.883ZM30.805 47.4479C30.815 47.448 30.8301 47.4483 30.846 47.4491C30.8418 47.4483 30.8383 47.4478 30.8356 47.4476C30.8267 47.4475 30.8151 47.4477 30.805 47.4479ZM30.7913 47.4484C30.7889 47.4485 30.7868 47.4486 30.7852 47.4487L30.7771 47.4494C30.7813 47.4491 30.7866 47.4487 30.7913 47.4484ZM31.0984 47.3073C31.0971 47.3082 31.0957 47.309 31.0943 47.31L31.3675 47.7287L31.0996 47.3065C31.0992 47.3068 31.0988 47.307 31.0984 47.3073ZM31.1325 47.287C31.1279 47.2902 31.1232 47.2933 31.1185 47.2964L31.3947 47.7132L31.1216 47.2944C31.1318 47.2878 31.1399 47.2831 31.1438 47.2809C31.1472 47.279 31.1498 47.2777 31.1467 47.2793C31.1459 47.2797 31.1438 47.2809 31.1408 47.2825C31.1384 47.2837 31.1356 47.2853 31.1325 47.287ZM30.5173 47.5632L30.5174 47.5994C30.5175 47.5991 30.5177 47.5988 30.5179 47.5985V47.5628C30.5177 47.5629 30.5175 47.5631 30.5173 47.5632ZM29.5175 46.8195C29.517 46.8181 29.5166 46.8165 29.516 46.8148C29.5135 46.8089 29.511 46.8029 29.5086 46.7969C29.514 46.8104 29.5176 46.8212 29.5196 46.8275C29.5214 46.8334 29.5226 46.8377 29.522 46.8356L29.5215 46.8338L29.5206 46.8306L29.5175 46.8195ZM30.106 47.3962C30.1022 47.3947 30.0984 47.3931 30.0946 47.3915L30.0884 47.3896L30.0843 47.3884C30.0826 47.3879 30.0852 47.3886 30.0894 47.3901C30.0931 47.3913 30.0988 47.3933 30.106 47.3962Z" stroke="url(#paint5_linear_4_9268)"/>
</g>
<path d="M30.8561 46.6106L30.8556 46.6031C30.8547 46.591 30.853 46.5729 30.8497 46.5516L30.8561 46.6106ZM30.8561 46.6106C30.8663 46.6559 30.8828 46.7069 30.9078 46.7725C30.9147 46.7902 30.9196 46.8054 30.9228 46.8161C31.034 47.0762 31.2417 47.283 31.5008 47.3915L31.5032 47.3922C31.5102 47.3944 31.5208 47.3978 31.5332 47.4022L31.5408 47.4049L31.5408 47.405C31.6064 47.4295 31.6625 47.4463 31.7153 47.4564L31.7176 47.4568C31.7863 47.4703 31.8549 47.4769 31.9241 47.4769V47.5495C31.9254 47.5486 31.9268 47.5476 31.9282 47.5466M30.8561 46.6106L30.8497 46.5515C30.8374 46.4709 30.832 46.427 30.832 46.3869V18.5002C30.832 17.8942 31.3174 17.4084 31.9219 17.4084C32.5273 17.4084 33.0139 17.895 33.0139 18.5002V42.5452V43.7523L33.8675 42.8988L41.4142 35.3521C41.8422 34.9241 42.5291 34.9241 42.9571 35.3521C43.3851 35.7801 43.3851 36.467 42.9571 36.8949L32.6955 47.1566L32.6952 47.1568C32.6473 47.2048 32.5944 47.2488 32.5388 47.287C32.538 47.2875 32.5371 47.2879 32.5362 47.2884C32.5285 47.2927 32.5174 47.2992 32.5045 47.3074C32.4486 47.3429 32.4013 47.3692 32.3576 47.3886C32.3522 47.3899 32.3456 47.3916 32.3392 47.3932C32.3246 47.3971 32.3036 47.4029 32.2796 47.4114L32.2939 47.452C32.2929 47.4518 32.2921 47.4517 32.2912 47.4516C32.2871 47.4511 32.2819 47.4506 32.2766 47.4501M31.9282 47.5466C31.9269 47.5477 31.9255 47.5489 31.9241 47.5501V47.9769M31.9282 47.5466C31.9437 47.5358 31.9639 47.523 31.98 47.5133M31.9282 47.5466C31.9286 47.5463 31.929 47.546 31.9294 47.5457C31.9431 47.536 31.9637 47.5231 31.98 47.5133M31.9241 47.9769L31.9236 47.5506C31.9148 47.5583 31.9036 47.5693 31.8913 47.5823M31.9241 47.9769C32.0276 47.9768 32.129 47.9664 32.2269 47.9475M31.9241 47.9769C31.8698 47.9769 31.8157 47.9741 31.7618 47.9685C31.7552 47.8883 31.758 47.81 31.7714 47.7523M31.8913 47.5823C31.9032 47.5688 31.9137 47.5581 31.9219 47.5511C31.9224 47.5507 31.923 47.5503 31.9236 47.5499L31.9235 47.4769C31.9932 47.4769 32.0626 47.4699 32.1306 47.4568C32.1308 47.4568 32.1309 47.4567 32.1311 47.4567C32.1663 47.4498 32.2066 47.4368 32.2814 47.4108L32.2959 47.4523C32.3015 47.4533 32.3086 47.4546 32.3165 47.4562M31.8913 47.5823C31.8549 47.6234 31.8055 47.6901 31.7714 47.7523M31.8913 47.5823C31.8542 47.6213 31.8065 47.6792 31.7788 47.7258C31.7761 47.734 31.7736 47.7429 31.7714 47.7523M32.3165 47.4562C32.3095 47.455 32.3025 47.4539 32.2961 47.4529L32.4457 47.883M32.3165 47.4562C32.3274 47.4582 32.3382 47.4602 32.3468 47.4622C32.3498 47.463 32.3532 47.4641 32.357 47.4654M32.3165 47.4562C32.3289 47.4588 32.3434 47.462 32.357 47.4654M32.4457 47.883L32.2941 47.4526C32.2873 47.4515 32.2813 47.4507 32.2766 47.4501M32.4457 47.883C32.4579 47.8787 32.4705 47.8757 32.4832 47.8726C32.4983 47.869 32.5134 47.8654 32.5277 47.8596M32.4457 47.883C32.3747 47.9077 32.3021 47.9327 32.2269 47.9475M32.2766 47.4501C32.2752 47.4499 32.2739 47.4497 32.2728 47.4496C32.2703 47.4494 32.2674 47.4492 32.2643 47.449M32.2766 47.4501C32.2725 47.4497 32.2683 47.4493 32.2643 47.449M32.5277 47.8596C32.5742 47.8406 32.6189 47.8187 32.6625 47.7948L32.5277 47.8596ZM32.5277 47.8596L32.3683 47.4695C32.3642 47.468 32.3604 47.4666 32.357 47.4654M32.5277 47.8596L32.357 47.4654M32.5277 47.8596L30.4416 46.9533C30.4437 46.9584 30.4451 46.9637 30.4465 46.969C30.4479 46.9743 30.4493 46.9795 30.4514 46.9846C30.6124 47.3819 30.9272 47.6987 31.3245 47.8596C31.3325 47.863 31.3406 47.8654 31.3486 47.8678C31.3542 47.8695 31.3598 47.8712 31.3655 47.8732C31.4483 47.9042 31.5326 47.9305 31.6214 47.9475C31.6668 47.9564 31.7124 47.9633 31.7581 47.9681C31.7469 47.9042 31.7434 47.843 31.751 47.7934C31.7568 47.7802 31.7637 47.7663 31.7714 47.7523M32.2643 47.449C32.2544 47.4484 32.2427 47.4478 32.2369 47.4476L32.2161 47.4476L32.2233 47.4474C32.2287 47.4474 32.241 47.4476 32.2479 47.4479C32.2517 47.4481 32.2577 47.4485 32.2643 47.449ZM32.2269 47.9475L32.1422 47.4547L32.1408 47.4549L32.1381 47.4554L32.1352 47.4559L32.1335 47.4562L32.2269 47.9475ZM32.2269 47.9475L32.132 47.4565M32.2269 47.9475L32.1307 47.4568L32.1318 47.4566L32.132 47.4565M32.132 47.4565C32.1319 47.4566 32.1318 47.4566 32.1317 47.4566L32.1318 47.4566L32.132 47.4565ZM31.98 47.5133C31.9878 47.5087 31.9946 47.5048 31.9992 47.5023C32.0094 47.4973 32.0273 47.4891 32.035 47.4858C32.0409 47.4834 32.0515 47.4792 32.0562 47.4775C32.0667 47.4737 32.0752 47.471 32.0802 47.4695M31.98 47.5133C31.9884 47.5083 31.9957 47.5041 32.0007 47.5015C32.0116 47.4961 32.0307 47.4875 32.0387 47.4842C32.0424 47.4827 32.0479 47.4806 32.0527 47.4788C32.0559 47.4776 32.0587 47.4765 32.0606 47.4759L32.0748 47.4711L32.0802 47.4695M32.0802 47.4695L32.0846 47.4681L32.0929 47.4657L32.0802 47.4695ZM32.5433 47.5606C32.5507 47.5686 32.5581 47.5777 32.5654 47.5878C32.5246 47.5548 32.4774 47.5232 32.439 47.5008C32.4755 47.5187 32.5144 47.5402 32.5433 47.5606ZM30.9295 46.8396L30.9295 46.8398L30.9295 46.8396Z" fill="url(#paint6_linear_4_9268)" stroke="url(#paint7_linear_4_9268)"/>
<defs>
<filter id="filter0_f_4_9268" x="3.26249" y="3.26252" width="57.475" height="57.4754" filterUnits="userSpaceOnUse" color-interpolation-filters="sRGB">
<feFlood flood-opacity="0" result="BackgroundImageFix"/>
<feBlend mode="normal" in="SourceGraphic" in2="BackgroundImageFix" result="shape"/>
<feGaussianBlur stdDeviation="0.618754" result="effect1_foregroundBlur_4_9268"/>
</filter>
<filter id="filter1_f_4_9268" x="25.5872" y="13.5698" width="20.1225" height="37.7457" filterUnits="userSpaceOnUse" color-interpolation-filters="sRGB">
<feFlood flood-opacity="0" result="BackgroundImageFix"/>
<feBlend mode="normal" in="SourceGraphic" in2="BackgroundImageFix" result="shape"/>
<feGaussianBlur stdDeviation="1.66929" result="effect1_foregroundBlur_4_9268"/>
</filter>
<linearGradient id="paint0_linear_4_9268" x1="4.5" y1="32.0002" x2="59.5004" y2="32.0002" gradientUnits="userSpaceOnUse">
<stop stop-color="#FDFC47"/>
<stop offset="1" stop-color="#24FE41"/>
</linearGradient>
<linearGradient id="paint1_linear_4_9268" x1="4.5" y1="32.0004" x2="59.5008" y2="32.0004" gradientUnits="userSpaceOnUse">
<stop stop-color="#FDFC47"/>
<stop offset="1" stop-color="#24FE41"/>
</linearGradient>
<linearGradient id="paint2_linear_4_9268" x1="4.49805" y1="26.174" x2="59.4981" y2="26.174" gradientUnits="userSpaceOnUse">
<stop stop-color="#FDFC47"/>
<stop offset="1" stop-color="#24FE41"/>
</linearGradient>
<linearGradient id="paint3_linear_4_9268" x1="27.9158" y1="40.1323" x2="25.6658" y2="42.3824" gradientUnits="userSpaceOnUse">
<stop stop-color="#FDFC47"/>
<stop offset="1" stop-color="#24FE41"/>
</linearGradient>
<linearGradient id="paint4_linear_4_9268" x1="27.9158" y1="40.1323" x2="25.6658" y2="42.3824" gradientUnits="userSpaceOnUse">
<stop stop-color="#FDFC47"/>
<stop offset="1" stop-color="#24FE41"/>
</linearGradient>
<linearGradient id="paint5_linear_4_9268" x1="28.9258" y1="32.4427" x2="42.3718" y2="32.4427" gradientUnits="userSpaceOnUse">
<stop stop-color="#FDFC47"/>
<stop offset="1" stop-color="#24FE41"/>
</linearGradient>
<linearGradient id="paint6_linear_4_9268" x1="30.332" y1="32.4427" x2="43.7781" y2="32.4427" gradientUnits="userSpaceOnUse">
<stop stop-color="#FDFC47"/>
<stop offset="1" stop-color="#24FE41"/>
</linearGradient>
<linearGradient id="paint7_linear_4_9268" x1="30.332" y1="32.4427" x2="43.7781" y2="32.4427" gradientUnits="userSpaceOnUse">
<stop stop-color="#FDFC47"/>
<stop offset="1" stop-color="#24FE41"/>
</linearGradient>
</defs>
</svg>
