<svg width="64" height="64" viewBox="0 0 64 64" fill="none" xmlns="http://www.w3.org/2000/svg">
<g clip-path="url(#clip0_4_9239)">
<g opacity="0.3" filter="url(#filter0_f_4_9239)">
<path d="M44.5 4.5H19.5C11.2157 4.5 4.5 11.2157 4.5 19.5V44.5C4.5 52.7843 11.2157 59.5 19.5 59.5H44.5C52.7843 59.5 59.5 52.7843 59.5 44.5V19.5C59.5 11.2157 52.7843 4.5 44.5 4.5Z" fill="url(#paint0_linear_4_9239)"/>
</g>
<path d="M19.5 5H44.5C52.5081 5 59 11.4919 59 19.5V44.5C59 52.5081 52.5081 59 44.5 59H19.5C11.4919 59 5 52.5081 5 44.5V19.5C5 11.4919 11.4919 5 19.5 5Z" fill="#232323" stroke="url(#paint1_linear_4_9239)"/>
<g opacity="0.25" filter="url(#filter1_f_4_9239)">
<path d="M32.0008 12.17C31.2778 12.17 30.5548 12.4461 30.0008 13.0001L23.9246 19.0763V35.2303L40.0766 19.0763L34.0004 13.0001C33.4464 12.4461 32.7238 12.17 32.0008 12.17ZM44.9248 23.924L36.8467 32.0002L44.9248 40.0764L51.001 34.0002C52.109 32.8922 52.109 31.1082 51.001 30.0002L44.9248 23.924ZM17.4618 25.5392L13.0009 30.0001C11.8929 31.1081 11.8929 32.8921 13.0009 34.0001L17.4618 38.461V25.5392ZM32.0008 36.8462L23.9246 44.9243L30.0008 51.0005C31.1088 52.1085 32.8928 52.1085 34.0008 51.0005L40.077 44.9243L32.0008 36.8462Z" fill="url(#paint2_linear_4_9239)"/>
</g>
<path d="M32.0008 12.17C31.2778 12.17 30.5548 12.4461 30.0008 13.0001L23.9246 19.0763V35.2303L40.0766 19.0763L34.0004 13.0001C33.4464 12.4461 32.7238 12.17 32.0008 12.17ZM44.9248 23.924L36.8467 32.0002L44.9248 40.0764L51.001 34.0002C52.109 32.8922 52.109 31.1082 51.001 30.0002L44.9248 23.924ZM17.4618 25.5392L13.0009 30.0001C11.8929 31.1081 11.8929 32.8921 13.0009 34.0001L17.4618 38.461V25.5392ZM32.0008 36.8462L23.9246 44.9243L30.0008 51.0005C31.1088 52.1085 32.8928 52.1085 34.0008 51.0005L40.077 44.9243L32.0008 36.8462Z" fill="url(#paint3_linear_4_9239)"/>
</g>
<defs>
<filter id="filter0_f_4_9239" x="3.2625" y="3.2625" width="57.475" height="57.475" filterUnits="userSpaceOnUse" color-interpolation-filters="sRGB">
<feFlood flood-opacity="0" result="BackgroundImageFix"/>
<feBlend mode="normal" in="SourceGraphic" in2="BackgroundImageFix" result="shape"/>
<feGaussianBlur stdDeviation="0.61875" result="effect1_foregroundBlur_4_9239"/>
</filter>
<filter id="filter1_f_4_9239" x="10.1868" y="10.1869" width="43.6283" height="43.6277" filterUnits="userSpaceOnUse" color-interpolation-filters="sRGB">
<feFlood flood-opacity="0" result="BackgroundImageFix"/>
<feBlend mode="normal" in="SourceGraphic" in2="BackgroundImageFix" result="shape"/>
<feGaussianBlur stdDeviation="0.991538" result="effect1_foregroundBlur_4_9239"/>
</filter>
<linearGradient id="paint0_linear_4_9239" x1="4.5" y1="32" x2="59.5" y2="32" gradientUnits="userSpaceOnUse">
<stop stop-color="#FDFC47"/>
<stop offset="1" stop-color="#24FE41"/>
</linearGradient>
<linearGradient id="paint1_linear_4_9239" x1="4.5" y1="32" x2="59.5" y2="32" gradientUnits="userSpaceOnUse">
<stop stop-color="#FDFC47"/>
<stop offset="1" stop-color="#24FE41"/>
</linearGradient>
<linearGradient id="paint2_linear_4_9239" x1="12.1699" y1="32.0008" x2="51.832" y2="32.0008" gradientUnits="userSpaceOnUse">
<stop stop-color="#FDFC47"/>
<stop offset="1" stop-color="#24FE41"/>
</linearGradient>
<linearGradient id="paint3_linear_4_9239" x1="12.1699" y1="32.0008" x2="51.832" y2="32.0008" gradientUnits="userSpaceOnUse">
<stop stop-color="#FDFC47"/>
<stop offset="1" stop-color="#24FE41"/>
</linearGradient>
<clipPath id="clip0_4_9239">
<rect width="64" height="64" fill="white"/>
</clipPath>
</defs>
</svg>
