<svg width="64" height="64" viewBox="0 0 64 64" fill="none" xmlns="http://www.w3.org/2000/svg">
<g opacity="0.3" filter="url(#filter0_f_4_9182)">
<path d="M44.5003 4.50003H19.5001C11.2158 4.50003 4.5 11.2158 4.5 19.5001V44.5003C4.5 52.7846 11.2158 59.5004 19.5001 59.5004H44.5003C52.7846 59.5004 59.5004 52.7846 59.5004 44.5003V19.5001C59.5004 11.2158 52.7846 4.50003 44.5003 4.50003Z" fill="#232323"/>
<path d="M19.5001 5.00003H44.5003C52.5085 5.00003 59.0004 11.4919 59.0004 19.5001V44.5003C59.0004 52.5085 52.5085 59.0004 44.5003 59.0004H19.5001C11.4919 59.0004 5 52.5085 5 44.5003V19.5001C5 11.4919 11.4919 5.00003 19.5001 5.00003Z" stroke="url(#paint0_linear_4_9182)"/>
</g>
<path d="M19.5001 5.0015H44.5007C52.5089 5.0015 59.0008 11.4934 59.0008 19.5016V44.5022C59.0008 52.5103 52.5089 59.0023 44.5007 59.0023H19.5001C11.4919 59.0023 5 52.5103 5 44.5022V19.5016C5 11.4934 11.4919 5.0015 19.5001 5.0015Z" fill="#232323" stroke="url(#paint1_linear_4_9182)"/>
<g filter="url(#filter1_f_4_9182)">
<path d="M32.0019 12.0437C21.2731 12.0437 12.5766 20.7417 12.5781 31.4705C12.5781 42.1981 21.2746 50.8942 32.0019 50.8942C37.3644 50.8942 36.3582 46.4347 37.7125 44.7376C38.7295 43.4596 40.1327 42.1353 41.7589 41.9639C43.657 41.76 44.6305 42.6166 46.1289 42.5758C48.4294 42.5187 50.0718 40.7185 50.9585 38.312C51.5186 36.7974 51.8302 32.9465 51.8302 31.6059C51.8317 20.8782 42.7295 12.0452 32.0019 12.0437ZM44.6874 32.985C48.6752 32.9818 48.6752 38.9586 44.6874 38.962C40.7059 38.9589 40.7059 32.9819 44.6874 32.985Z" fill="#232323"/>
<path d="M46.1289 42.5758C45.467 42.5938 44.9074 42.4367 44.3254 42.2732C43.5899 42.0667 42.8185 41.8501 41.7589 41.9639M46.1289 42.5758L32.0019 12.5437C42.4623 12.5452 51.3317 21.1632 51.3302 31.6058V31.6059C51.3302 32.2513 51.2542 33.5294 51.1075 34.838C50.9593 36.1608 50.7459 37.4455 50.4895 38.1386L50.4893 38.1391C49.6334 40.4621 48.1167 42.0263 46.1165 42.0759L46.1153 42.076C45.5336 42.0918 45.0487 41.9562 44.4611 41.7918C44.3847 41.7705 44.3066 41.7486 44.2263 41.7265C43.5369 41.5371 42.7476 41.3549 41.706 41.4667C41.7062 41.4667 41.7064 41.4667 41.7065 41.4667L41.7589 41.9639M46.1289 42.5758C48.4294 42.5187 50.0718 40.7185 50.9585 38.312L46.1289 42.5758ZM41.7589 41.9639C40.1327 42.1353 38.7295 43.4596 37.7125 44.7376L41.7055 41.4668M41.7589 41.9639L41.7055 41.4668M41.7055 41.4668C39.8615 41.6616 38.3464 43.1379 37.3212 44.4263C36.91 44.942 36.6979 45.6367 36.5208 46.2834C36.4897 46.3966 36.4596 46.5094 36.4296 46.6215C36.2788 47.1848 36.132 47.7333 35.9032 48.2498C35.6352 48.8544 35.2695 49.3756 34.6927 49.7522C34.1138 50.1302 33.2736 50.3942 32.0019 50.3942C21.5507 50.3942 13.0781 41.922 13.0781 31.4705V31.4704M41.7055 41.4668L13.0781 31.4704M13.0781 31.4704C13.0767 21.0178 21.5492 12.5437 32.0018 12.5437L13.0781 31.4704ZM44.6873 32.485C43.5563 32.4842 42.6713 32.913 42.0741 33.585C41.485 34.2478 41.2013 35.1176 41.2013 35.9712C41.2013 36.8247 41.485 37.6948 42.0738 38.3583C42.6709 39.0309 43.5558 39.4611 44.687 39.462H44.6878C45.8203 39.4611 46.7063 39.031 47.3042 38.3584C47.894 37.695 48.1783 36.8248 48.1783 35.971C48.1783 35.1173 47.894 34.2473 47.304 33.5846C46.7059 32.9127 45.8197 32.4842 44.6873 32.485ZM44.6873 32.485C44.6875 32.485 44.6876 32.485 44.6877 32.485L44.6874 32.985L44.687 32.485C44.6871 32.485 44.6872 32.485 44.6873 32.485Z" stroke="url(#paint2_linear_4_9182)"/>
</g>
<path d="M12.877 31.4727V31.4727C12.877 41.9246 21.3496 50.3969 31.8011 50.3969C33.0728 50.3969 33.913 50.1329 34.4919 49.7549C35.0687 49.3783 35.4344 48.8571 35.7024 48.2524C35.9312 47.7359 36.078 47.1875 36.2288 46.6241C36.2588 46.512 36.2889 46.3993 36.32 46.2861C36.4971 45.6393 36.7092 44.9446 37.1204 44.4289C38.1458 43.1404 39.661 41.6639 41.5052 41.4693C42.5468 41.3575 43.3361 41.5397 44.0255 41.7291C44.1058 41.7512 44.1839 41.773 44.2603 41.7944C44.848 41.9588 45.3329 42.0944 45.9145 42.0785L45.9157 42.0785C47.916 42.0288 49.4326 40.4647 50.2885 38.1417L50.2887 38.1411C50.5451 37.448 50.7585 36.1633 50.9068 34.8405C51.0535 33.5319 51.1295 32.2539 51.1295 31.6084V31.6084C51.1309 21.1654 42.2619 12.5471 31.8011 12.5456L12.877 31.4727ZM12.877 31.4727C12.8755 21.0197 21.3481 12.5456 31.801 12.5456L12.877 31.4727ZM44.4869 32.4872C43.3559 32.4865 42.4709 32.9153 41.8737 33.5873C41.2846 34.2501 41.0009 35.1199 41.0009 35.9734C41.0009 36.827 41.2846 37.697 41.8734 38.3605C42.4705 39.0332 43.3554 39.4634 44.4865 39.4643H44.4874C45.6199 39.4633 46.5059 39.0333 47.1038 38.3607C47.6936 37.6972 47.9778 36.8271 47.9778 35.9733C47.9778 35.1195 47.6936 34.2496 47.1036 33.5869C46.5054 32.915 45.6192 32.4864 44.4869 32.4872ZM44.4869 32.4872C44.487 32.4872 44.4872 32.4872 44.4873 32.4872L44.4869 32.9872L44.4865 32.4872C44.4867 32.4872 44.4868 32.4872 44.4869 32.4872Z" fill="#232323" stroke="url(#paint3_linear_4_9182)"/>
<path d="M23.9368 33.8085C23.9368 35.8659 22.2689 37.5337 20.2115 37.5337C18.1542 37.5337 16.4863 35.8659 16.4863 33.8085C16.4863 31.7512 18.1542 30.0833 20.2115 30.0833C22.2689 30.0833 23.9368 31.7512 23.9368 33.8085Z" fill="#232323" stroke="url(#paint4_linear_4_9182)"/>
<path d="M36.1418 19.3516C36.1418 21.4089 34.474 23.0768 32.4166 23.0768C30.3592 23.0768 28.6914 21.4089 28.6914 19.3516C28.6914 17.2942 30.3592 15.6263 32.4166 15.6263C34.474 15.6263 36.1418 17.2942 36.1418 19.3516Z" fill="#232323" stroke="url(#paint5_linear_4_9182)"/>
<path d="M25.2365 24.3066C25.2365 25.5682 24.2138 26.5909 22.9523 26.5909C21.6907 26.5909 20.668 25.5682 20.668 24.3066C20.668 23.045 21.6907 22.0223 22.9523 22.0223C24.2138 22.0223 25.2365 23.045 25.2365 24.3066Z" fill="#232323" stroke="url(#paint6_linear_4_9182)"/>
<path d="M44.7463 23.9513C44.7463 25.2129 43.7236 26.2356 42.462 26.2356C41.2004 26.2356 40.1777 25.2129 40.1777 23.9513C40.1777 22.6898 41.2004 21.6671 42.462 21.6671C43.7236 21.6671 44.7463 22.6898 44.7463 23.9513Z" fill="#232323" stroke="url(#paint7_linear_4_9182)"/>
<path d="M26.7697 42.7133C26.7697 43.9748 25.747 44.9975 24.4855 44.9975C23.2239 44.9975 22.2012 43.9748 22.2012 42.7133C22.2012 41.4517 23.2239 40.429 24.4855 40.429C25.747 40.429 26.7697 41.4517 26.7697 42.7133Z" fill="#232323" stroke="url(#paint8_linear_4_9182)"/>
<defs>
<filter id="filter0_f_4_9182" x="3.26249" y="3.26252" width="57.475" height="57.4754" filterUnits="userSpaceOnUse" color-interpolation-filters="sRGB">
<feFlood flood-opacity="0" result="BackgroundImageFix"/>
<feBlend mode="normal" in="SourceGraphic" in2="BackgroundImageFix" result="shape"/>
<feGaussianBlur stdDeviation="0.618754" result="effect1_foregroundBlur_4_9182"/>
</filter>
<filter id="filter1_f_4_9182" x="9.84454" y="9.31011" width="44.7191" height="44.3177" filterUnits="userSpaceOnUse" color-interpolation-filters="sRGB">
<feFlood flood-opacity="0" result="BackgroundImageFix"/>
<feBlend mode="normal" in="SourceGraphic" in2="BackgroundImageFix" result="shape"/>
<feGaussianBlur stdDeviation="1.36679" result="effect1_foregroundBlur_4_9182"/>
</filter>
<linearGradient id="paint0_linear_4_9182" x1="4.5" y1="32.0002" x2="59.5004" y2="32.0002" gradientUnits="userSpaceOnUse">
<stop stop-color="#FDFC47"/>
<stop offset="1" stop-color="#24FE41"/>
</linearGradient>
<linearGradient id="paint1_linear_4_9182" x1="4.5" y1="32.0019" x2="59.5008" y2="32.0019" gradientUnits="userSpaceOnUse">
<stop stop-color="#FDFC47"/>
<stop offset="1" stop-color="#24FE41"/>
</linearGradient>
<linearGradient id="paint2_linear_4_9182" x1="12.5781" y1="31.469" x2="51.8302" y2="31.469" gradientUnits="userSpaceOnUse">
<stop stop-color="#FDFC47"/>
<stop offset="1" stop-color="#24FE41"/>
</linearGradient>
<linearGradient id="paint3_linear_4_9182" x1="12.377" y1="31.4712" x2="51.6295" y2="31.4712" gradientUnits="userSpaceOnUse">
<stop stop-color="#FDFC47"/>
<stop offset="1" stop-color="#24FE41"/>
</linearGradient>
<linearGradient id="paint4_linear_4_9182" x1="15.9863" y1="33.8085" x2="24.4368" y2="33.8085" gradientUnits="userSpaceOnUse">
<stop stop-color="#FDFC47"/>
<stop offset="1" stop-color="#24FE41"/>
</linearGradient>
<linearGradient id="paint5_linear_4_9182" x1="28.1914" y1="19.3516" x2="36.6418" y2="19.3516" gradientUnits="userSpaceOnUse">
<stop stop-color="#FDFC47"/>
<stop offset="1" stop-color="#24FE41"/>
</linearGradient>
<linearGradient id="paint6_linear_4_9182" x1="20.168" y1="24.3066" x2="25.7365" y2="24.3066" gradientUnits="userSpaceOnUse">
<stop stop-color="#FDFC47"/>
<stop offset="1" stop-color="#24FE41"/>
</linearGradient>
<linearGradient id="paint7_linear_4_9182" x1="39.6777" y1="23.9513" x2="45.2463" y2="23.9513" gradientUnits="userSpaceOnUse">
<stop stop-color="#FDFC47"/>
<stop offset="1" stop-color="#24FE41"/>
</linearGradient>
<linearGradient id="paint8_linear_4_9182" x1="21.7012" y1="42.7133" x2="27.2697" y2="42.7133" gradientUnits="userSpaceOnUse">
<stop stop-color="#FDFC47"/>
<stop offset="1" stop-color="#24FE41"/>
</linearGradient>
</defs>
</svg>
