<svg width="64" height="64" viewBox="0 0 64 64" fill="none" xmlns="http://www.w3.org/2000/svg">
<g clip-path="url(#clip0_4_9170)">
<g opacity="0.3" filter="url(#filter0_f_4_9170)">
<path d="M44.5 4.5H19.5C11.2157 4.5 4.5 11.2157 4.5 19.5V44.5C4.5 52.7843 11.2157 59.5 19.5 59.5H44.5C52.7843 59.5 59.5 52.7843 59.5 44.5V19.5C59.5 11.2157 52.7843 4.5 44.5 4.5Z" fill="url(#paint0_linear_4_9170)"/>
</g>
<path d="M19.5 5H44.5C52.5081 5 59 11.4919 59 19.5V44.5C59 52.5081 52.5081 59 44.5 59H19.5C11.4919 59 5 52.5081 5 44.5V19.5C5 11.4919 11.4919 5 19.5 5Z" fill="#232323" stroke="url(#paint1_linear_4_9170)"/>
<path d="M42.7142 21.2855H21.2852V42.7145H42.7142V21.2855Z" fill="url(#paint2_linear_4_9170)"/>
<g opacity="0.25" filter="url(#filter1_f_4_9170)">
<path d="M35.8853 28.6719C35.8853 29.5127 35.636 30.1842 35.1375 30.6863C34.6512 31.1768 34.0007 31.5038 33.1861 31.6672V31.7373C34.2196 31.8541 34.9916 32.1694 35.5023 32.6832C36.0251 33.197 36.2865 33.8685 36.2865 34.6976C36.2865 35.4333 36.1102 36.0814 35.7576 36.6419C35.405 37.2024 34.8579 37.6403 34.1162 37.9556C33.3867 38.2709 32.4445 38.4286 31.2894 38.4286C30.6085 38.4286 29.9763 38.376 29.3927 38.2709C28.8091 38.1775 28.2498 38.0023 27.7148 37.7454V36.3091C28.262 36.5777 28.8517 36.782 29.4839 36.9222C30.1161 37.0623 30.724 37.1324 31.3077 37.1324C32.4749 37.1324 33.3138 36.9163 33.8244 36.4843C34.3473 36.0405 34.6087 35.4333 34.6087 34.6625C34.6087 33.8801 34.2865 33.3196 33.6421 32.981C33.0098 32.6306 32.1162 32.4555 30.9611 32.4555H29.7027V31.1417H30.9794C32.0493 31.1417 32.8578 30.9257 33.405 30.4936C33.9643 30.0616 34.2439 29.4894 34.2439 28.777C34.2439 28.1698 34.0311 27.7027 33.6056 27.3757C33.18 27.0371 32.6025 26.8677 31.873 26.8677C31.1678 26.8677 30.566 26.967 30.0675 27.1655C29.569 27.364 29.0766 27.6151 28.5902 27.9187L27.7878 26.8677C28.2498 26.5174 28.8213 26.2138 29.5021 25.9569C30.1952 25.7 30.9794 25.5715 31.8548 25.5715C33.2165 25.5715 34.2257 25.8635 34.8822 26.4474C35.5509 27.0312 35.8853 27.7728 35.8853 28.6719Z" fill="url(#paint3_linear_4_9170)"/>
</g>
<path d="M35.8853 28.6719C35.8853 29.5127 35.636 30.1842 35.1375 30.6863C34.6512 31.1768 34.0007 31.5038 33.1861 31.6672V31.7373C34.2196 31.8541 34.9916 32.1694 35.5023 32.6832C36.0251 33.197 36.2865 33.8685 36.2865 34.6976C36.2865 35.4333 36.1102 36.0814 35.7576 36.6419C35.405 37.2024 34.8579 37.6403 34.1162 37.9556C33.3867 38.2709 32.4445 38.4286 31.2894 38.4286C30.6085 38.4286 29.9763 38.376 29.3927 38.2709C28.8091 38.1775 28.2498 38.0023 27.7148 37.7454V36.3091C28.262 36.5777 28.8517 36.782 29.4839 36.9222C30.1161 37.0623 30.724 37.1324 31.3077 37.1324C32.4749 37.1324 33.3138 36.9163 33.8244 36.4843C34.3473 36.0405 34.6087 35.4333 34.6087 34.6625C34.6087 33.8801 34.2865 33.3196 33.6421 32.981C33.0098 32.6306 32.1162 32.4555 30.9611 32.4555H29.7027V31.1417H30.9794C32.0493 31.1417 32.8578 30.9257 33.405 30.4936C33.9643 30.0616 34.2439 29.4894 34.2439 28.777C34.2439 28.1698 34.0311 27.7027 33.6056 27.3757C33.18 27.0371 32.6025 26.8677 31.873 26.8677C31.1678 26.8677 30.566 26.967 30.0675 27.1655C29.569 27.364 29.0766 27.6151 28.5902 27.9187L27.7878 26.8677C28.2498 26.5174 28.8213 26.2138 29.5021 25.9569C30.1952 25.7 30.9794 25.5715 31.8548 25.5715C33.2165 25.5715 34.2257 25.8635 34.8822 26.4474C35.5509 27.0312 35.8853 27.7728 35.8853 28.6719Z" fill="#232323"/>
<path d="M5 19.5C5 11.4661 11.4661 5 19.5 5H20.9766V20.9785H5V19.5ZM59 20.9785H43.0234V5H44.5C52.5339 5 59 11.4661 59 19.5V20.9785ZM5 44.5V43.0234H20.9785V59H19.5C11.4661 59 5 52.5339 5 44.5ZM44.5 59H43.0234V43.0234H59V44.5C59 52.5339 52.5339 59 44.5 59Z" fill="#232323" stroke="url(#paint4_linear_4_9170)"/>
</g>
<defs>
<filter id="filter0_f_4_9170" x="3.2625" y="3.2625" width="57.475" height="57.475" filterUnits="userSpaceOnUse" color-interpolation-filters="sRGB">
<feFlood flood-opacity="0" result="BackgroundImageFix"/>
<feBlend mode="normal" in="SourceGraphic" in2="BackgroundImageFix" result="shape"/>
<feGaussianBlur stdDeviation="0.61875" result="effect1_foregroundBlur_4_9170"/>
</filter>
<filter id="filter1_f_4_9170" x="26.6434" y="24.5001" width="10.7151" height="14.9999" filterUnits="userSpaceOnUse" color-interpolation-filters="sRGB">
<feFlood flood-opacity="0" result="BackgroundImageFix"/>
<feBlend mode="normal" in="SourceGraphic" in2="BackgroundImageFix" result="shape"/>
<feGaussianBlur stdDeviation="0.53572" result="effect1_foregroundBlur_4_9170"/>
</filter>
<linearGradient id="paint0_linear_4_9170" x1="4.5" y1="32" x2="59.5" y2="32" gradientUnits="userSpaceOnUse">
<stop stop-color="#FDFC47"/>
<stop offset="1" stop-color="#24FE41"/>
</linearGradient>
<linearGradient id="paint1_linear_4_9170" x1="4.5" y1="32" x2="59.5" y2="32" gradientUnits="userSpaceOnUse">
<stop stop-color="#FDFC47"/>
<stop offset="1" stop-color="#24FE41"/>
</linearGradient>
<linearGradient id="paint2_linear_4_9170" x1="21.2852" y1="32" x2="42.7142" y2="32" gradientUnits="userSpaceOnUse">
<stop stop-color="#FDFC47"/>
<stop offset="1" stop-color="#24FE41"/>
</linearGradient>
<linearGradient id="paint3_linear_4_9170" x1="27.7148" y1="32.0001" x2="36.2865" y2="32.0001" gradientUnits="userSpaceOnUse">
<stop stop-color="#FDFC47"/>
<stop offset="1" stop-color="#24FE41"/>
</linearGradient>
<linearGradient id="paint4_linear_4_9170" x1="4.5" y1="32" x2="59.5" y2="32" gradientUnits="userSpaceOnUse">
<stop stop-color="#FDFC47"/>
<stop offset="1" stop-color="#24FE41"/>
</linearGradient>
<clipPath id="clip0_4_9170">
<rect width="64" height="64" fill="white"/>
</clipPath>
</defs>
</svg>
