<svg width="64" height="64" viewBox="0 0 64 64" fill="none" xmlns="http://www.w3.org/2000/svg">
<g opacity="0.3" filter="url(#filter0_f_4_9099)">
<path d="M44.5003 4.50003H19.5001C11.2158 4.50003 4.5 11.2158 4.5 19.5001V44.5003C4.5 52.7846 11.2158 59.5004 19.5001 59.5004H44.5003C52.7846 59.5004 59.5004 52.7846 59.5004 44.5003V19.5001C59.5004 11.2158 52.7846 4.50003 44.5003 4.50003Z" fill="#232323"/>
<path d="M19.5001 5.00003H44.5003C52.5085 5.00003 59.0004 11.4919 59.0004 19.5001V44.5003C59.0004 52.5085 52.5085 59.0004 44.5003 59.0004H19.5001C11.4919 59.0004 5 52.5085 5 44.5003V19.5001C5 11.4919 11.4919 5.00003 19.5001 5.00003Z" stroke="url(#paint0_linear_4_9099)"/>
</g>
<path d="M19.4982 5.0015H44.4987C52.5069 5.0015 58.9988 11.4934 58.9988 19.5016V44.5022C58.9988 52.5103 52.5069 59.0023 44.4987 59.0023H19.4982C11.49 59.0023 4.99805 52.5103 4.99805 44.5022V19.5016C4.99805 11.4934 11.49 5.0015 19.4982 5.0015Z" fill="#232323" stroke="url(#paint1_linear_4_9099)"/>
<path opacity="0.74898" d="M5 19.5016C5 11.4675 11.4664 5.0015 19.5001 5.0015L44.4999 5.00161C52.534 5.00161 59 11.468 59 19.5017V22.0914L32.1889 47.167L5 22.0814V19.5016Z" fill="#232323" stroke="url(#paint2_linear_4_9099)"/>
<path d="M20.8894 36.8956C20.4614 36.4676 20.4614 35.7807 20.8894 35.3527C21.3173 34.9247 22.0043 34.9247 22.4322 35.3527L32.6935 45.6139C33.1215 46.0419 33.1215 46.7288 32.6935 47.1568C32.2655 47.5848 31.5786 47.5848 31.1506 47.1568L20.8894 36.8956Z" fill="url(#paint3_linear_4_9099)" stroke="url(#paint4_linear_4_9099)"/>
<g opacity="0.7" filter="url(#filter1_f_4_9099)">
<path d="M30.5195 16.9101C29.6381 16.9101 28.9297 17.6205 28.9297 18.5019V46.3891C28.9297 46.4718 28.9411 46.5502 28.9531 46.6294C28.9562 46.6494 28.9551 46.6699 28.959 46.6899C28.9766 46.7822 29.0064 46.8697 29.0391 46.9555C29.0431 46.9657 29.0447 46.9766 29.0489 46.9868C29.2099 47.3841 29.5247 47.7008 29.922 47.8618C29.9355 47.8675 29.9494 47.8706 29.963 47.8755C30.0457 47.9065 30.1301 47.9327 30.2188 47.9497C30.319 47.9693 30.4199 47.979 30.5216 47.979C30.6251 47.9789 30.7265 47.9686 30.8243 47.9497H30.8263C30.9015 47.9349 30.9721 47.9099 31.0431 47.8852C31.0699 47.8758 31.099 47.8724 31.1252 47.8618C31.2121 47.8263 31.2929 47.7806 31.3712 47.7309C31.38 47.7252 31.3899 47.7209 31.3986 47.7153C31.4877 47.6562 31.5714 47.5875 31.6466 47.5122L41.9087 37.2501C42.532 36.6268 42.532 35.6234 41.9087 35.0001C41.2854 34.3768 40.282 34.3768 39.6587 35.0001L32.1117 42.547V18.5019C32.1117 17.6205 31.4009 16.9101 30.5195 16.9101Z" fill="#232323"/>
<path d="M30.0988 47.3939L30.1009 47.3945C30.1078 47.3967 30.1186 47.4001 30.1313 47.4046L30.1383 47.4072L30.1383 47.4072C30.2038 47.4317 30.26 47.4485 30.3128 47.4586L30.3151 47.459C30.3832 47.4724 30.4518 47.479 30.5216 47.479V47.979M30.0988 47.3939L29.4475 46.5543C29.4351 46.4728 29.4297 46.4292 29.4297 46.3891V18.5019C29.4297 17.8958 29.9151 17.4101 30.5195 17.4101C31.125 17.4101 31.6117 17.8968 31.6117 18.5019V42.547V43.7542L32.4653 42.9006L40.0122 35.3537C40.0122 35.3537 40.0122 35.3536 40.0122 35.3536C40.4403 34.9256 41.1272 34.9256 41.5551 35.3536C41.9832 35.7817 41.9832 36.4686 41.5552 36.8966L31.2931 47.1586L31.2928 47.1589C31.2447 47.2071 31.1917 47.2512 31.136 47.2894C31.1348 47.29 31.1336 47.2907 31.1325 47.2913C31.1245 47.2958 31.1128 47.3026 31.0994 47.3113L31.3712 47.7309M30.0988 47.3939C29.8393 47.2854 29.6313 47.0782 29.52 46.8176C29.517 46.8075 29.5125 46.7935 29.5063 46.7773C29.4807 46.7102 29.4639 46.6591 29.4539 46.6141L30.0988 47.3939ZM30.5216 47.979L30.521 47.479C30.5918 47.4789 30.6616 47.4719 30.7295 47.4588L30.7459 47.4556C30.776 47.4484 30.8119 47.4363 30.8789 47.413C30.9022 47.4048 30.9226 47.3992 30.9367 47.3955C30.943 47.3938 30.9496 47.3922 30.955 47.3908C30.9991 47.3712 31.0468 47.3446 31.1034 47.3087L31.3712 47.7309M30.5216 47.979C30.4199 47.979 30.319 47.9693 30.2188 47.9497H30.8243C30.7265 47.9686 30.6251 47.9789 30.5216 47.979ZM31.3712 47.7309C31.2929 47.7806 31.2121 47.8263 31.1252 47.8618L39.6587 35.0001C40.282 34.3768 41.2854 34.3768 41.9087 35.0001C42.532 35.6234 42.532 36.6268 41.9087 37.2501L31.6466 47.5122C31.5714 47.5875 31.4877 47.6562 31.3986 47.7153C31.3943 47.7181 31.3897 47.7206 31.3851 47.723C31.3804 47.7255 31.3757 47.7281 31.3712 47.7309Z" stroke="url(#paint5_linear_4_9099)"/>
</g>
<path d="M30.8542 46.6122L30.8537 46.6046C30.8527 46.5925 30.851 46.5744 30.8478 46.5531L30.8542 46.6122ZM30.8542 46.6122C30.8643 46.6574 30.8809 46.7084 30.9058 46.7741C30.9128 46.7918 30.9176 46.8069 30.9209 46.8176C31.0321 47.0778 31.2398 47.2846 31.4989 47.393L31.5013 47.3938C31.5082 47.3959 31.5189 47.3993 31.5313 47.4037L31.5389 47.4064L31.5389 47.4065C31.6044 47.431 31.6605 47.4478 31.7133 47.4579L31.7157 47.4583C31.7843 47.4718 31.853 47.4785 31.9222 47.4785V47.551C31.9235 47.5501 31.9249 47.5491 31.9263 47.5481M30.8542 46.6122L30.8478 46.553C30.8355 46.4724 30.8301 46.4285 30.8301 46.3884V18.5017C30.8301 17.8957 31.3155 17.4099 31.9199 17.4099C32.5253 17.4099 33.012 17.8966 33.012 18.5017V42.5468V43.7539L33.8655 42.9003L41.4123 35.3536C41.8403 34.9256 42.5272 34.9256 42.9551 35.3536C43.3831 35.7816 43.3831 36.4685 42.9551 36.8965L32.6935 47.1581L32.6933 47.1584C32.6453 47.2064 32.5925 47.2504 32.5368 47.2885C32.536 47.289 32.5352 47.2895 32.5343 47.2899C32.5266 47.2943 32.5154 47.3007 32.5025 47.309C32.4466 47.3444 32.3993 47.3707 32.3557 47.3901C32.3502 47.3914 32.3436 47.3931 32.3372 47.3948C32.3227 47.3986 32.3017 47.4045 32.2776 47.4129L32.2919 47.4535C32.291 47.4534 32.2901 47.4532 32.2893 47.4531C32.2851 47.4526 32.28 47.4521 32.2746 47.4516M31.9263 47.5481C31.925 47.5492 31.9236 47.5504 31.9222 47.5516V47.9785M31.9263 47.5481C31.9418 47.5373 31.962 47.5245 31.9781 47.5149M31.9263 47.5481C31.9267 47.5478 31.927 47.5475 31.9274 47.5472C31.9412 47.5375 31.9618 47.5246 31.9781 47.5149M31.9222 47.9785L31.9216 47.5521C31.9128 47.5598 31.9017 47.5708 31.8893 47.5838M31.9222 47.9785C32.0256 47.9783 32.127 47.9679 32.2249 47.949M31.9222 47.9785C31.8678 47.9785 31.8137 47.9757 31.7599 47.97C31.7533 47.8898 31.756 47.8115 31.7695 47.7538M31.8893 47.5838C31.9012 47.5703 31.9118 47.5596 31.9199 47.5526C31.9205 47.5522 31.921 47.5518 31.9216 47.5514L31.9215 47.4785C31.9912 47.4784 32.0606 47.4714 32.1286 47.4583C32.1288 47.4583 32.129 47.4583 32.1292 47.4582C32.1643 47.4513 32.2046 47.4383 32.2795 47.4123L32.2939 47.4538C32.2995 47.4548 32.3066 47.4561 32.3145 47.4578M31.8893 47.5838C31.8529 47.6249 31.8035 47.6916 31.7695 47.7538M31.8893 47.5838C31.8523 47.6229 31.8046 47.6807 31.7769 47.7274C31.7741 47.7356 31.7716 47.7444 31.7695 47.7538M32.3145 47.4578C32.3076 47.4565 32.3006 47.4554 32.2941 47.4544L32.4437 47.8845M32.3145 47.4578C32.3254 47.4597 32.3363 47.4618 32.3449 47.4637C32.3479 47.4645 32.3513 47.4656 32.355 47.4669M32.3145 47.4578C32.327 47.4603 32.3414 47.4636 32.355 47.4669M32.4437 47.8845L32.2921 47.4541C32.2854 47.453 32.2793 47.4522 32.2746 47.4516M32.4437 47.8845C32.4559 47.8802 32.4686 47.8772 32.4812 47.8742C32.4964 47.8705 32.5115 47.8669 32.5257 47.8611M32.4437 47.8845C32.3727 47.9092 32.3001 47.9342 32.2249 47.949M32.2746 47.4516C32.2732 47.4514 32.272 47.4513 32.2708 47.4512C32.2684 47.4509 32.2654 47.4507 32.2623 47.4505M32.2746 47.4516C32.2705 47.4512 32.2663 47.4509 32.2623 47.4505M32.5257 47.8611C32.5722 47.8421 32.617 47.8202 32.6605 47.7964L32.5257 47.8611ZM32.5257 47.8611L32.3663 47.4711C32.3623 47.4695 32.3585 47.4681 32.355 47.4669M32.5257 47.8611L32.355 47.4669M32.5257 47.8611L30.4396 46.9548C30.4417 46.9599 30.4431 46.9652 30.4446 46.9705C30.446 46.9758 30.4474 46.9811 30.4495 46.9862C30.6104 47.3834 30.9252 47.7002 31.3225 47.8611C31.3306 47.8645 31.3386 47.8669 31.3467 47.8694C31.3523 47.871 31.3579 47.8727 31.3635 47.8748C31.4463 47.9057 31.5307 47.932 31.6194 47.949C31.6649 47.9579 31.7104 47.9648 31.7562 47.9697C31.745 47.9058 31.7415 47.8445 31.749 47.7949C31.7548 47.7817 31.7617 47.7679 31.7695 47.7538M32.2623 47.4505C32.2525 47.4499 32.2407 47.4493 32.2349 47.4491L32.2141 47.4491L32.2214 47.449C32.2268 47.449 32.2391 47.4491 32.246 47.4494C32.2498 47.4496 32.2557 47.45 32.2623 47.4505ZM32.2249 47.949L32.1402 47.4562L32.1388 47.4564L32.1361 47.4569L32.1333 47.4575L32.1316 47.4578L32.2249 47.949ZM32.2249 47.949L32.1301 47.4581M32.2249 47.949L32.1287 47.4583L32.1299 47.4581L32.1301 47.4581M32.1301 47.4581C32.13 47.4581 32.1299 47.4581 32.1298 47.4581L32.1299 47.4581L32.1301 47.4581ZM31.9781 47.5149C31.9858 47.5102 31.9926 47.5063 31.9973 47.5039C32.0074 47.4988 32.0253 47.4906 32.033 47.4873C32.0389 47.4849 32.0496 47.4808 32.0543 47.479C32.0647 47.4752 32.0732 47.4725 32.0782 47.471M31.9781 47.5149C31.9865 47.5098 31.9937 47.5056 31.9987 47.503C32.0096 47.4976 32.0287 47.489 32.0368 47.4857C32.0405 47.4842 32.0459 47.4821 32.0508 47.4803C32.0539 47.4791 32.0568 47.4781 32.0587 47.4774L32.0728 47.4726L32.0782 47.471M32.0782 47.471L32.0827 47.4696L32.091 47.4673L32.0782 47.471ZM32.5414 47.5621C32.5488 47.5701 32.5562 47.5792 32.5635 47.5893C32.5227 47.5564 32.4755 47.5248 32.4371 47.5024C32.4735 47.5202 32.5124 47.5417 32.5414 47.5621ZM30.9275 46.8412L30.9276 46.8413L30.9275 46.8412Z" fill="url(#paint6_linear_4_9099)" stroke="url(#paint7_linear_4_9099)"/>
<defs>
<filter id="filter0_f_4_9099" x="3.26249" y="3.26252" width="57.475" height="57.4754" filterUnits="userSpaceOnUse" color-interpolation-filters="sRGB">
<feFlood flood-opacity="0" result="BackgroundImageFix"/>
<feBlend mode="normal" in="SourceGraphic" in2="BackgroundImageFix" result="shape"/>
<feGaussianBlur stdDeviation="0.618754" result="effect1_foregroundBlur_4_9099"/>
</filter>
<filter id="filter1_f_4_9099" x="26.9265" y="14.907" width="17.4536" height="35.0752" filterUnits="userSpaceOnUse" color-interpolation-filters="sRGB">
<feFlood flood-opacity="0" result="BackgroundImageFix"/>
<feBlend mode="normal" in="SourceGraphic" in2="BackgroundImageFix" result="shape"/>
<feGaussianBlur stdDeviation="1.00158" result="effect1_foregroundBlur_4_9099"/>
</filter>
<linearGradient id="paint0_linear_4_9099" x1="4.5" y1="32.0002" x2="59.5004" y2="32.0002" gradientUnits="userSpaceOnUse">
<stop stop-color="#FDFC47"/>
<stop offset="1" stop-color="#24FE41"/>
</linearGradient>
<linearGradient id="paint1_linear_4_9099" x1="4.49805" y1="32.0019" x2="59.4988" y2="32.0019" gradientUnits="userSpaceOnUse">
<stop stop-color="#FDFC47"/>
<stop offset="1" stop-color="#24FE41"/>
</linearGradient>
<linearGradient id="paint2_linear_4_9099" x1="4.5" y1="26.1755" x2="59.5" y2="26.1755" gradientUnits="userSpaceOnUse">
<stop stop-color="#FDFC47"/>
<stop offset="1" stop-color="#24FE41"/>
</linearGradient>
<linearGradient id="paint3_linear_4_9099" x1="20.0684" y1="41.2547" x2="33.5145" y2="41.2547" gradientUnits="userSpaceOnUse">
<stop stop-color="#FDFC47"/>
<stop offset="1" stop-color="#24FE41"/>
</linearGradient>
<linearGradient id="paint4_linear_4_9099" x1="20.0684" y1="41.2547" x2="33.5145" y2="41.2547" gradientUnits="userSpaceOnUse">
<stop stop-color="#FDFC47"/>
<stop offset="1" stop-color="#24FE41"/>
</linearGradient>
<linearGradient id="paint5_linear_4_9099" x1="28.9297" y1="32.4445" x2="42.3762" y2="32.4445" gradientUnits="userSpaceOnUse">
<stop stop-color="#FDFC47"/>
<stop offset="1" stop-color="#24FE41"/>
</linearGradient>
<linearGradient id="paint6_linear_4_9099" x1="30.3301" y1="32.4442" x2="43.7761" y2="32.4442" gradientUnits="userSpaceOnUse">
<stop stop-color="#FDFC47"/>
<stop offset="1" stop-color="#24FE41"/>
</linearGradient>
<linearGradient id="paint7_linear_4_9099" x1="30.3301" y1="32.4442" x2="43.7761" y2="32.4442" gradientUnits="userSpaceOnUse">
<stop stop-color="#FDFC47"/>
<stop offset="1" stop-color="#24FE41"/>
</linearGradient>
</defs>
</svg>
