<svg width="64" height="64" viewBox="0 0 64 64" fill="none" xmlns="http://www.w3.org/2000/svg">
<g clip-path="url(#clip0_4_8690)">
<g opacity="0.3" filter="url(#filter0_f_4_8690)">
<path d="M44.5 4.5H19.5C11.2157 4.5 4.5 11.2157 4.5 19.5V44.5C4.5 52.7843 11.2157 59.5 19.5 59.5H44.5C52.7843 59.5 59.5 52.7843 59.5 44.5V19.5C59.5 11.2157 52.7843 4.5 44.5 4.5Z" fill="url(#paint0_linear_4_8690)"/>
</g>
<path d="M5 19.5C5 11.4661 11.4661 5 19.5 5H44.5C52.5339 5 59 11.4661 59 19.5V44.5C59 52.5339 52.5339 59 44.5 59H19.5C11.4661 59 5 52.5339 5 44.5V19.5Z" fill="#232323" stroke="url(#paint1_linear_4_8690)"/>
<path d="M17.4155 35.5298V42.6894H13.0195V21.3112H17.4155V30.6901L25.7633 21.3112H30.9611L22.4271 30.5182L31.8633 42.6894H26.6225L19.6061 33.2531L17.4155 35.5298Z" fill="url(#paint2_linear_4_8690)"/>
<path d="M43.6465 42.6887H39.9236L32.707 21.3106H37.1317L41.8857 37.4048L46.5536 21.3106H50.9782L43.6465 42.6887Z" fill="url(#paint3_linear_4_8690)"/>
</g>
<defs>
<filter id="filter0_f_4_8690" x="3.2625" y="3.2625" width="57.475" height="57.475" filterUnits="userSpaceOnUse" color-interpolation-filters="sRGB">
<feFlood flood-opacity="0" result="BackgroundImageFix"/>
<feBlend mode="normal" in="SourceGraphic" in2="BackgroundImageFix" result="shape"/>
<feGaussianBlur stdDeviation="0.61875" result="effect1_foregroundBlur_4_8690"/>
</filter>
<linearGradient id="paint0_linear_4_8690" x1="4.5" y1="32" x2="59.5" y2="32" gradientUnits="userSpaceOnUse">
<stop stop-color="#FDFC47"/>
<stop offset="1" stop-color="#24FE41"/>
</linearGradient>
<linearGradient id="paint1_linear_4_8690" x1="4.5" y1="32" x2="59.5" y2="32" gradientUnits="userSpaceOnUse">
<stop stop-color="#FDFC47"/>
<stop offset="1" stop-color="#24FE41"/>
</linearGradient>
<linearGradient id="paint2_linear_4_8690" x1="13.0195" y1="32.0003" x2="31.8633" y2="32.0003" gradientUnits="userSpaceOnUse">
<stop stop-color="#FDFC47"/>
<stop offset="1" stop-color="#24FE41"/>
</linearGradient>
<linearGradient id="paint3_linear_4_8690" x1="32.707" y1="31.9996" x2="50.9782" y2="31.9996" gradientUnits="userSpaceOnUse">
<stop stop-color="#FDFC47"/>
<stop offset="1" stop-color="#24FE41"/>
</linearGradient>
<clipPath id="clip0_4_8690">
<rect width="64" height="64" fill="white"/>
</clipPath>
</defs>
</svg>
