<svg width="64" height="64" viewBox="0 0 64 64" fill="none" xmlns="http://www.w3.org/2000/svg">
<g clip-path="url(#clip0_4_8619)">
<g opacity="0.3" filter="url(#filter0_f_4_8619)">
<path d="M44.5 4.5H19.5C11.2157 4.5 4.5 11.2157 4.5 19.5V44.5C4.5 52.7843 11.2157 59.5 19.5 59.5H44.5C52.7843 59.5 59.5 52.7843 59.5 44.5V19.5C59.5 11.2157 52.7843 4.5 44.5 4.5Z" fill="url(#paint0_linear_4_8619)"/>
</g>
<path d="M19.5 5H44.5C52.5081 5 59 11.4919 59 19.5V44.5C59 52.5081 52.5081 59 44.5 59H19.5C11.4919 59 5 52.5081 5 44.5V19.5C5 11.4919 11.4919 5 19.5 5Z" fill="#232323" stroke="url(#paint1_linear_4_8619)"/>
<path fill-rule="evenodd" clip-rule="evenodd" d="M12.4492 23H33.7822V31H12.4492V23Z" fill="url(#paint2_linear_4_8619)"/>
<path d="M35.0183 47L46.0003 46.9297L47.2432 34.4987C47.5038 31.9786 44.3801 30.9294 43.5144 33.2558C43.5247 30.4614 40.6513 30.1117 39.7839 32.0112C39.8937 29.7036 36.9603 28.8104 36.0551 30.7683V25.7966C36.0551 22.0678 32.3263 22.0678 32.3263 25.7966V36.9846C26.11 30.7683 24.5859 35.2359 24.5859 35.2359C28.8102 38.087 31.3923 47.024 35.0183 47Z" fill="url(#paint3_linear_4_8619)"/>
</g>
<defs>
<filter id="filter0_f_4_8619" x="3.2625" y="3.2625" width="57.475" height="57.475" filterUnits="userSpaceOnUse" color-interpolation-filters="sRGB">
<feFlood flood-opacity="0" result="BackgroundImageFix"/>
<feBlend mode="normal" in="SourceGraphic" in2="BackgroundImageFix" result="shape"/>
<feGaussianBlur stdDeviation="0.61875" result="effect1_foregroundBlur_4_8619"/>
</filter>
<linearGradient id="paint0_linear_4_8619" x1="4.5" y1="32" x2="59.5" y2="32" gradientUnits="userSpaceOnUse">
<stop stop-color="#FDFC47"/>
<stop offset="1" stop-color="#24FE41"/>
</linearGradient>
<linearGradient id="paint1_linear_4_8619" x1="4.5" y1="32" x2="59.5" y2="32" gradientUnits="userSpaceOnUse">
<stop stop-color="#FDFC47"/>
<stop offset="1" stop-color="#24FE41"/>
</linearGradient>
<linearGradient id="paint2_linear_4_8619" x1="12.4492" y1="27" x2="33.7822" y2="27" gradientUnits="userSpaceOnUse">
<stop stop-color="#FDFC47" stop-opacity="0"/>
<stop offset="1" stop-color="#24FE41"/>
</linearGradient>
<linearGradient id="paint3_linear_4_8619" x1="24.5859" y1="35" x2="47.2586" y2="35" gradientUnits="userSpaceOnUse">
<stop stop-color="#FDFC47"/>
<stop offset="1" stop-color="#24FE41"/>
</linearGradient>
<clipPath id="clip0_4_8619">
<rect width="64" height="64" fill="white"/>
</clipPath>
</defs>
</svg>
