<svg width="64" height="64" viewBox="0 0 64 64" fill="none" xmlns="http://www.w3.org/2000/svg">
<g opacity="0.3" filter="url(#filter0_f_4_8445)">
<path d="M44.5003 4.49979H19.5001C11.2158 4.49979 4.5 11.2156 4.5 19.4999V44.5001C4.5 52.7844 11.2158 59.5002 19.5001 59.5002H44.5003C52.7846 59.5002 59.5004 52.7844 59.5004 44.5001V19.4999C59.5004 11.2156 52.7846 4.49979 44.5003 4.49979Z" fill="#232323"/>
<path d="M19.5001 4.99979H44.5003C52.5085 4.99979 59.0004 11.4917 59.0004 19.4999V44.5001C59.0004 52.5083 52.5085 59.0002 44.5003 59.0002H19.5001C11.4919 59.0002 5 52.5083 5 44.5001V19.4999C5 11.4917 11.4919 4.99979 19.5001 4.99979Z" stroke="url(#paint0_linear_4_8445)"/>
</g>
<path d="M19.5001 4.99976H44.5007C52.5088 4.99976 59.0008 11.4917 59.0008 19.4999V44.5004C59.0008 52.5086 52.5088 59.0005 44.5007 59.0005H19.5001C11.4919 59.0005 5 52.5086 5 44.5004V19.4999C5 11.4917 11.4919 4.99976 19.5001 4.99976Z" fill="#232323" stroke="url(#paint1_linear_4_8445)"/>
<path d="M22.5769 14.5C20.4348 14.5 18.3804 15.351 16.8657 16.8657C15.351 18.3804 14.5 20.4348 14.5 22.5769C14.5 24.7191 15.351 26.7735 16.8657 28.2882C18.3804 29.8029 20.4348 30.6538 22.5769 30.6538C22.6128 30.6523 22.6487 30.6505 22.6846 30.6484C22.9772 28.6396 23.9107 26.7789 25.3462 25.3435C26.7816 23.908 28.6423 22.9745 30.6512 22.6819C30.6523 22.6469 30.6532 22.6119 30.6539 22.5769C30.6539 20.4348 29.8029 18.3804 28.2882 16.8657C26.7735 15.351 24.7191 14.5 22.5769 14.5ZM41.4231 14.5C40.3624 14.5 39.3121 14.7089 38.3322 15.1148C37.3522 15.5207 36.4618 16.1157 35.7118 16.8657C34.9618 17.6157 34.3669 18.5061 33.961 19.486C33.5551 20.466 33.3462 21.5162 33.3462 22.5769C33.3477 22.6128 33.3495 22.6487 33.3516 22.6846C35.3604 22.9772 37.2211 23.9107 38.6565 25.3462C40.092 26.7816 41.0255 28.6423 41.3181 30.6512C41.3531 30.6523 41.3881 30.6532 41.4231 30.6539C43.5652 30.6539 45.6196 29.8029 47.1343 28.2882C48.6491 26.7735 49.5 24.7191 49.5 22.5769C49.5 21.5163 49.2911 20.466 48.8852 19.486C48.4793 18.5061 47.8844 17.6157 47.1343 16.8657C46.3843 16.1157 45.4939 15.5207 44.514 15.1148C43.5341 14.7089 42.4838 14.5 41.4231 14.5ZM30.6538 24.0388C29.0021 24.3197 27.4786 25.1073 26.2944 26.2925C25.1101 27.4777 24.3238 29.0019 24.0442 30.6538H30.6538V24.0442M33.3462 24.0496V30.6539H39.9612C39.6803 29.0021 38.8927 27.4786 37.7075 26.2944C36.5223 25.1101 34.9981 24.3238 33.3462 24.0442M22.5769 33.3462C20.4348 33.3462 18.3804 34.1971 16.8657 35.7118C15.351 37.2265 14.5 39.2809 14.5 41.4231C14.5 43.5652 15.351 45.6196 16.8657 47.1343C18.3804 48.649 20.4348 49.5 22.5769 49.5C24.7191 49.5 26.7735 48.649 28.2882 47.1343C29.8029 45.6196 30.6538 43.5652 30.6538 41.4231C30.6523 41.3872 30.6505 41.3513 30.6484 41.3154C28.6397 41.0221 26.7794 40.088 25.3444 38.652C23.9094 37.2161 22.9765 35.3551 22.6846 33.3462C22.6487 33.3459 22.6128 33.3459 22.5769 33.3462ZM24.0388 33.3462C24.3197 34.9979 25.1073 36.5214 26.2925 37.7056C27.4777 38.8899 29.0019 39.6762 30.6538 39.9558V33.3462H24.0442M33.3461 33.3462V39.9612C34.9979 39.6803 36.5214 38.8927 37.7056 37.7075C38.8899 36.5223 39.6762 34.9981 39.9558 33.3462H33.3461ZM41.4231 33.3462C41.3872 33.3459 41.3513 33.3459 41.3154 33.3462C41.0237 35.3564 40.0903 37.2185 38.6542 38.6551C37.2181 40.0917 35.3563 41.0257 33.3461 41.3181C33.3459 41.3531 33.3459 41.3881 33.3461 41.4231C33.3461 42.4838 33.5551 43.534 33.961 44.514C34.3669 45.4939 34.9618 46.3843 35.7118 47.1343C36.4618 47.8843 37.3522 48.4793 38.3322 48.8852C39.3121 49.2911 40.3624 49.5 41.4231 49.5C43.5652 49.5 45.6196 48.649 47.1343 47.1343C48.649 45.6196 49.5 43.5652 49.5 41.4231C49.5 39.2809 48.649 37.2265 47.1343 35.7118C45.6196 34.1971 43.5652 33.3462 41.4231 33.3462Z" fill="url(#paint2_linear_4_8445)"/>
<defs>
<filter id="filter0_f_4_8445" x="3.2625" y="3.26229" width="57.475" height="57.4754" filterUnits="userSpaceOnUse" color-interpolation-filters="sRGB">
<feFlood flood-opacity="0" result="BackgroundImageFix"/>
<feBlend mode="normal" in="SourceGraphic" in2="BackgroundImageFix" result="shape"/>
<feGaussianBlur stdDeviation="0.61875" result="effect1_foregroundBlur_4_8445"/>
</filter>
<linearGradient id="paint0_linear_4_8445" x1="4.5" y1="32" x2="59.5004" y2="32" gradientUnits="userSpaceOnUse">
<stop stop-color="#FDFC47"/>
<stop offset="1" stop-color="#24FE41"/>
</linearGradient>
<linearGradient id="paint1_linear_4_8445" x1="4.5" y1="32.0001" x2="59.5008" y2="32.0001" gradientUnits="userSpaceOnUse">
<stop stop-color="#FDFC47"/>
<stop offset="1" stop-color="#24FE41"/>
</linearGradient>
<linearGradient id="paint2_linear_4_8445" x1="14.5" y1="32" x2="49.5" y2="32" gradientUnits="userSpaceOnUse">
<stop stop-color="#FDFC47"/>
<stop offset="1" stop-color="#24FE41"/>
</linearGradient>
</defs>
</svg>
