<svg width="64" height="64" viewBox="0 0 64 64" fill="none" xmlns="http://www.w3.org/2000/svg">
<g clip-path="url(#clip0_4_8416)">
<g opacity="0.3" filter="url(#filter0_f_4_8416)">
<path d="M44.5 4.5H19.5C11.2157 4.5 4.5 11.2157 4.5 19.5V44.5C4.5 52.7843 11.2157 59.5 19.5 59.5H44.5C52.7843 59.5 59.5 52.7843 59.5 44.5V19.5C59.5 11.2157 52.7843 4.5 44.5 4.5Z" fill="url(#paint0_linear_4_8416)"/>
</g>
<path d="M19.5 5H44.5C52.5081 5 59 11.4919 59 19.5V44.5C59 52.5081 52.5081 59 44.5 59H19.5C11.4919 59 5 52.5081 5 44.5V19.5C5 11.4919 11.4919 5 19.5 5Z" fill="#232323" stroke="url(#paint1_linear_4_8416)"/>
<path opacity="0.15" d="M15.1276 13.2495H48.8724C51.9838 13.2495 54.5 15.7727 54.5 18.8771V45.1229C54.5 48.2414 51.9838 50.7505 48.8724 50.7505H15.1276C14.3883 50.7514 13.6561 50.6065 12.9729 50.324C12.2897 50.0415 11.6689 49.627 11.1462 49.1043C10.6234 48.5815 10.2089 47.9608 9.92647 47.2776C9.64399 46.5944 9.49907 45.8622 9.5 45.1229V18.8771C9.5 15.7727 12.0231 13.2495 15.1276 13.2495Z" fill="url(#paint2_linear_4_8416)"/>
<g opacity="0.1">
<path d="M25.251 35.3789C25.251 36.2744 24.8952 37.1332 24.262 37.7664C23.6288 38.3996 22.77 38.7554 21.8745 38.7554C20.979 38.7554 20.1202 38.3996 19.487 37.7664C18.8538 37.1332 18.498 36.2744 18.498 35.3789C18.498 34.4834 18.8538 33.6246 19.487 32.9914C20.1202 32.3582 20.979 32.0024 21.8745 32.0024C22.77 32.0024 23.6288 32.3582 24.262 32.9914C24.8952 33.6246 25.251 34.4834 25.251 35.3789ZM34.2492 35.3789C34.2492 36.2744 33.8935 37.1332 33.2603 37.7664C32.6271 38.3996 31.7682 38.7554 30.8727 38.7554C29.9773 38.7554 29.1184 38.3996 28.4852 37.7664C27.852 37.1332 27.4963 36.2744 27.4963 35.3789C27.4963 34.4834 27.852 33.6246 28.4852 32.9914C29.1184 32.3582 29.9773 32.0024 30.8727 32.0024C31.7682 32.0024 32.6271 32.3582 33.2603 32.9914C33.8935 33.6246 34.2492 34.4834 34.2492 35.3789ZM43.256 35.3789C43.256 36.2744 42.9002 37.1332 42.267 37.7664C41.6338 38.3996 40.775 38.7554 39.8795 38.7554C38.984 38.7554 38.1252 38.3996 37.492 37.7664C36.8588 37.1332 36.503 36.2744 36.503 35.3789C36.503 34.4834 36.8588 33.6246 37.492 32.9914C38.1252 32.3582 38.984 32.0024 39.8795 32.0024C40.775 32.0024 41.6338 32.3582 42.267 32.9914C42.9002 33.6246 43.256 34.4834 43.256 35.3789Z" fill="url(#paint3_linear_4_8416)"/>
</g>
<path d="M16.2519 27.5023H47.755C48.9967 27.5023 50.0003 28.5058 50.0003 29.7476V36.5005C49.9981 37.0953 49.7608 37.6651 49.3402 38.0857C48.9196 38.5063 48.3498 38.7436 47.755 38.7458H16.2519C15.6556 38.7458 15.0836 38.5095 14.6612 38.0887C14.2387 37.6679 14.0003 37.0968 13.998 36.5005V29.7476C13.998 28.5059 15.0101 27.5023 16.2519 27.5023Z" fill="url(#paint4_linear_4_8416)"/>
<path d="M22.9971 33.1256C22.9971 34.0211 22.6413 34.8799 22.0081 35.5131C21.3749 36.1463 20.5161 36.502 19.6206 36.502C18.7251 36.502 17.8663 36.1463 17.2331 35.5131C16.5999 34.8799 16.2441 34.0211 16.2441 33.1256C16.2441 32.2301 16.5999 31.3713 17.2331 30.7381C17.8663 30.1049 18.7251 29.7491 19.6206 29.7491C20.5161 29.7491 21.3749 30.1049 22.0081 30.7381C22.6413 31.3713 22.9971 32.2301 22.9971 33.1256ZM32.0038 33.1256C32.0038 34.0211 31.6481 34.8799 31.0149 35.5131C30.3817 36.1463 29.5229 36.502 28.6274 36.502C27.7319 36.502 26.873 36.1463 26.2398 35.5131C25.6066 34.8799 25.2509 34.0211 25.2509 33.1256C25.2509 32.2301 25.6066 31.3713 26.2398 30.7381C26.873 30.1049 27.7319 29.7491 28.6274 29.7491C29.5229 29.7491 30.3817 30.1049 31.0149 30.7381C31.6481 31.3713 32.0038 32.2301 32.0038 33.1256ZM41.002 33.1256C41.002 33.569 40.9147 34.008 40.745 34.4177C40.5753 34.8273 40.3266 35.1996 40.0131 35.5131C39.6995 35.8266 39.3273 36.0753 38.9177 36.245C38.508 36.4147 38.069 36.502 37.6256 36.502C37.1822 36.502 36.7431 36.4147 36.3334 36.245C35.9238 36.0753 35.5516 35.8266 35.238 35.5131C34.9245 35.1996 34.6758 34.8273 34.5061 34.4177C34.3364 34.008 34.2491 33.569 34.2491 33.1256C34.2491 32.2301 34.6048 31.3713 35.238 30.7381C35.8712 30.1049 36.7301 29.7491 37.6256 29.7491C38.5211 29.7491 39.3799 30.1049 40.0131 30.7381C40.6463 31.3713 41.002 32.2301 41.002 33.1256Z" fill="#2D2D2D"/>
<path d="M14.5424 20.7493H31.4672C31.7649 20.7493 32.0115 20.9875 32.0115 21.2852V22.4503C32.0115 22.5947 31.9542 22.7331 31.8521 22.8352C31.75 22.9373 31.6116 22.9946 31.4672 22.9946H14.5424C14.4709 22.9947 14.4001 22.9806 14.3341 22.9532C14.268 22.9259 14.208 22.8858 14.1575 22.8352C14.1069 22.7847 14.0668 22.7247 14.0395 22.6586C14.0121 22.5926 13.998 22.5218 13.998 22.4503V21.2852C13.998 20.9875 14.2447 20.7493 14.5424 20.7493Z" fill="url(#paint5_linear_4_8416)"/>
</g>
<defs>
<filter id="filter0_f_4_8416" x="3.2625" y="3.2625" width="57.475" height="57.475" filterUnits="userSpaceOnUse" color-interpolation-filters="sRGB">
<feFlood flood-opacity="0" result="BackgroundImageFix"/>
<feBlend mode="normal" in="SourceGraphic" in2="BackgroundImageFix" result="shape"/>
<feGaussianBlur stdDeviation="0.61875" result="effect1_foregroundBlur_4_8416"/>
</filter>
<linearGradient id="paint0_linear_4_8416" x1="4.5" y1="32" x2="59.5" y2="32" gradientUnits="userSpaceOnUse">
<stop stop-color="#FDFC47"/>
<stop offset="1" stop-color="#24FE41"/>
</linearGradient>
<linearGradient id="paint1_linear_4_8416" x1="4.5" y1="32" x2="59.5" y2="32" gradientUnits="userSpaceOnUse">
<stop stop-color="#FDFC47"/>
<stop offset="1" stop-color="#24FE41"/>
</linearGradient>
<linearGradient id="paint2_linear_4_8416" x1="9.5" y1="32" x2="54.5" y2="32" gradientUnits="userSpaceOnUse">
<stop stop-color="#FDFC47"/>
<stop offset="1" stop-color="#24FE41"/>
</linearGradient>
<linearGradient id="paint3_linear_4_8416" x1="18.498" y1="35.3789" x2="43.256" y2="35.3789" gradientUnits="userSpaceOnUse">
<stop stop-color="#FDFC47"/>
<stop offset="1" stop-color="#24FE41"/>
</linearGradient>
<linearGradient id="paint4_linear_4_8416" x1="13.998" y1="33.124" x2="50.0003" y2="33.124" gradientUnits="userSpaceOnUse">
<stop stop-color="#FDFC47"/>
<stop offset="1" stop-color="#24FE41"/>
</linearGradient>
<linearGradient id="paint5_linear_4_8416" x1="13.998" y1="21.872" x2="32.0115" y2="21.872" gradientUnits="userSpaceOnUse">
<stop stop-color="#FDFC47"/>
<stop offset="1" stop-color="#24FE41"/>
</linearGradient>
<clipPath id="clip0_4_8416">
<rect width="64" height="64" fill="white"/>
</clipPath>
</defs>
</svg>
