<svg width="64" height="64" viewBox="0 0 64 64" fill="none" xmlns="http://www.w3.org/2000/svg">
<g clip-path="url(#clip0_4_8377)">
<g opacity="0.3" filter="url(#filter0_f_4_8377)">
<path d="M44.5003 4.50003H19.5001C11.2158 4.50003 4.5 11.2158 4.5 19.5001V44.5003C4.5 52.7846 11.2158 59.5004 19.5001 59.5004H44.5003C52.7846 59.5004 59.5004 52.7846 59.5004 44.5003V19.5001C59.5004 11.2158 52.7846 4.50003 44.5003 4.50003Z" fill="url(#paint0_linear_4_8377)"/>
</g>
<path d="M44.5007 4.5H19.5001C11.2158 4.5 4.5 11.2158 4.5 19.5001V44.5007C4.5 52.785 11.2158 59.5008 19.5001 59.5008H44.5007C52.785 59.5008 59.5008 52.785 59.5008 44.5007V19.5001C59.5008 11.2158 52.785 4.5 44.5007 4.5Z" fill="#232323"/>
<path d="M32.6639 17.4493C31.5965 17.4493 30.6706 17.524 29.8885 17.6719V28.2148H31.5858V23.7284H32.6483C33.219 23.7284 33.6512 23.8758 33.9471 24.1717C34.2536 24.4571 34.4808 24.9589 34.6288 25.6776C34.9247 27.0515 35.1569 27.8977 35.326 28.2147H37.1014C37.0063 28.035 36.8861 27.6654 36.7381 27.1053C36.643 26.7671 36.4885 26.1532 36.2772 25.2655C36.0024 24.124 35.5006 23.4152 34.7713 23.1405V23.1092C35.3315 22.9084 35.7859 22.5863 36.1346 22.1424C36.5256 21.6457 36.7225 21.0692 36.7225 20.4139C36.7225 19.5156 36.4256 18.8138 35.8338 18.3065C35.168 17.7358 34.1118 17.4493 32.6639 17.4493ZM52.9861 17.5177V28.2033H54.572V24.1448C54.572 22.3165 54.535 20.8058 54.4607 19.6116L54.5075 19.5959C54.9831 20.6845 55.6173 21.8983 56.4099 23.2405L57.488 25.053V21.8361L54.8884 17.518L52.9861 17.5177ZM22.7829 17.5294L19.3435 28.2151H21.1189L22.07 25.0764H25.5407L26.5407 28.2151H28.363L24.9079 17.5294H22.7829ZM38.5877 17.5294V28.2151H40.1736V24.1565C40.1736 22.3282 40.1362 20.8175 40.0623 19.6233L40.1111 19.6057C40.5866 20.6943 41.2208 21.9099 42.0135 23.2522L44.9607 28.2152H46.7205V17.5295H45.1189V21.5079C45.1189 23.2622 45.1784 24.7425 45.2947 25.9474L45.2615 25.963C44.7332 24.7476 44.1262 23.5693 43.4392 22.4279L40.49 17.5295L38.5877 17.5294ZM48.9918 17.5294V28.2151H50.7028V17.5294H48.9918ZM6.66027 17.5313L9.25988 28.2147H11.0841L12.4142 23.0155C12.763 21.6523 13.0123 20.5112 13.1603 19.5917H13.1915C13.3078 20.5322 13.5198 21.6733 13.8263 23.0155L14.9981 28.2147H16.8067L19.6915 17.5313H17.9474L16.7423 22.5567L16.6798 22.8262C16.3944 24.0416 16.1622 25.1877 15.9825 26.2657H15.9493C15.8119 25.2193 15.5847 24.0036 15.2677 22.6192L14.1427 17.5314H12.3673L11.1309 22.5723C10.7294 24.1999 10.4598 25.4409 10.3223 26.2969H10.2911C10.0692 25.0076 9.8299 23.7716 9.57625 22.5879L8.4825 17.5312L6.66027 17.5313ZM32.8223 18.7501C34.2807 18.7607 35.0098 19.3746 35.0098 20.5899C35.0098 21.15 34.8079 21.6044 34.4063 21.9532C34.0047 22.2913 33.4674 22.459 32.791 22.459H31.5859V18.8614C31.8607 18.7874 32.2727 18.7501 32.8223 18.7501ZM23.7656 18.9551H23.7988C24.063 20.012 24.2428 20.6834 24.3379 20.9688L25.2402 23.7598H22.3711L23.2598 20.9688C23.4922 20.081 23.6599 19.4096 23.7656 18.9551ZM6.51173 35.6776V39.8397L6.7422 39.117C6.97468 38.2293 7.14435 37.5578 7.25003 37.1034H7.28128C7.54552 38.1602 7.72524 38.8317 7.82033 39.117L8.72267 41.9061H6.51172V43.2225H9.02538L10.0234 46.3611H11.8476L8.3906 35.6777L6.51173 35.6776ZM11.0155 35.6893L14.328 41.9041V46.3727H16.0409V41.855L19.5272 35.6889H17.5936L16.246 38.4936C15.8338 39.3603 15.5167 40.0842 15.2948 40.6655H15.2636C15.0205 40.0737 14.6983 39.3497 14.2968 38.4936L12.9647 35.6889L11.0155 35.6893ZM38.8731 35.8866C37.7422 35.8866 36.8113 36.1461 36.0821 36.6639L36.4785 37.9159C37.1126 37.4826 37.7942 37.2655 38.5234 37.2655C39.073 37.2655 39.492 37.3978 39.7774 37.662C40.0627 37.9156 40.2051 38.2479 40.2051 38.66C40.2051 39.1673 39.9659 39.5692 39.4903 39.8651C39.0887 40.1082 38.6191 40.2303 38.0801 40.2303H37.2871V41.4823H38.0957C38.7827 41.4823 39.3441 41.6367 39.7774 41.9432C40.2847 42.2814 40.5371 42.756 40.5371 43.369C40.5477 43.8551 40.3902 44.257 40.0625 44.5741C39.6715 44.9651 39.1152 45.16 38.3965 45.16C37.5722 45.16 36.8128 44.955 36.1153 44.5429L35.7188 45.8417C36.4164 46.3067 37.3302 46.5389 38.461 46.5389C39.6553 46.5389 40.6064 46.2339 41.3145 45.621C41.9803 45.0503 42.3125 44.3212 42.3125 43.4335C42.3125 42.7465 42.1025 42.17 41.6797 41.7049C41.257 41.24 40.7228 40.9482 40.0782 40.8319V40.8005C41.3253 40.3355 41.9492 39.5267 41.9492 38.3747C41.9492 37.6772 41.6948 37.1026 41.1875 36.6482C40.6274 36.1409 39.8559 35.8866 38.8731 35.8866ZM49.8709 35.9022C49.6173 35.9022 49.2901 35.9224 48.8885 35.9647C47.4618 36.1232 46.3087 36.6301 45.4315 37.4862C44.2584 38.6382 43.6717 40.1881 43.6717 42.1328C43.6717 43.4433 44.0059 44.5046 44.6717 45.3184C45.3375 46.1322 46.2463 46.5391 47.3983 46.5391C48.4445 46.5391 49.2938 46.1695 49.949 45.4297C50.5831 44.7322 50.9002 43.881 50.9002 42.8769C50.9002 41.873 50.6104 41.0692 50.0291 40.4668C49.4584 39.8538 48.7243 39.5488 47.826 39.5488C46.8325 39.5488 46.049 39.9013 45.4783 40.6094H45.4315C45.5689 39.7744 45.9081 39.0777 46.4471 38.5176C47.0601 37.8729 47.8669 37.4811 48.8709 37.3438C49.2302 37.2907 49.5644 37.2705 49.8709 37.2813L49.8709 35.9022ZM24.1598 36.0663V37.494H29.0094L24.6988 46.3708H26.4898L30.8178 37.1773V36.066L24.1598 36.0663ZM33.4565 38.8143C33.1395 38.8143 32.88 38.9244 32.6792 39.1463C32.4784 39.3683 32.3784 39.6379 32.3784 39.955C32.3784 40.2826 32.4733 40.5572 32.6635 40.7792C32.8643 40.9906 33.1238 41.0956 33.4409 41.0956C33.7685 41.0956 34.0331 40.9905 34.2338 40.7792C34.4346 40.5678 34.5346 40.2932 34.5346 39.955C34.5346 39.6273 34.4346 39.3577 34.2338 39.1463C34.0436 38.9244 33.7842 38.8143 33.4565 38.8143ZM47.2865 40.8163C47.8572 40.8163 48.3116 41.0112 48.6497 41.4022C48.9879 41.7932 49.1576 42.3173 49.1576 42.9725C49.1576 43.6172 49.0082 44.1443 48.7122 44.5565C48.3952 45.011 47.963 45.2382 47.4134 45.2382C46.7476 45.2382 46.2337 44.9705 45.8744 44.4315C45.5576 43.9453 45.395 43.3213 45.3842 42.5604C45.3736 42.3385 45.4159 42.1315 45.5111 41.9413C45.881 41.1909 46.4727 40.8163 47.2865 40.8163ZM33.4406 44.2674C33.1236 44.2674 32.8641 44.3775 32.6633 44.5994C32.4625 44.8214 32.3625 45.091 32.3625 45.4081C32.3625 45.7357 32.4574 46.0103 32.6477 46.2323C32.8485 46.4437 33.1079 46.5506 33.425 46.5506C33.7526 46.5506 34.0172 46.4437 34.218 46.2323C34.4188 46.0209 34.5188 45.7463 34.5188 45.4081C34.5188 45.0804 34.4188 44.8108 34.218 44.5994C34.0278 44.3775 33.7683 44.2674 33.4406 44.2674Z" fill="url(#paint1_linear_4_8377)"/>
<path d="M5 19.5001C5 11.4662 11.4662 5.00003 19.5001 5.00003H44.5003C52.5342 5.00003 59.0004 11.4662 59.0004 19.5001V44.5003C59.0004 52.5342 52.5342 59.0004 44.5003 59.0004H19.5001C11.4662 59.0004 5 52.5342 5 44.5003V19.5001ZM44.4122 6.81055H19.588C12.5102 6.81055 6.81091 12.5094 6.81091 19.5876V44.4118C6.81091 51.4896 12.5098 57.1889 19.588 57.1889H44.4122C51.49 57.1889 57.1893 51.49 57.1893 44.4118V19.5876C57.1893 12.5099 51.4904 6.81055 44.4122 6.81055Z" fill="#232323" stroke="url(#paint2_linear_4_8377)"/>
</g>
<defs>
<filter id="filter0_f_4_8377" x="3.26249" y="3.26252" width="57.475" height="57.4754" filterUnits="userSpaceOnUse" color-interpolation-filters="sRGB">
<feFlood flood-opacity="0" result="BackgroundImageFix"/>
<feBlend mode="normal" in="SourceGraphic" in2="BackgroundImageFix" result="shape"/>
<feGaussianBlur stdDeviation="0.618754" result="effect1_foregroundBlur_4_8377"/>
</filter>
<linearGradient id="paint0_linear_4_8377" x1="4.5" y1="32.0002" x2="59.5004" y2="32.0002" gradientUnits="userSpaceOnUse">
<stop stop-color="#FDFC47"/>
<stop offset="1" stop-color="#24FE41"/>
</linearGradient>
<linearGradient id="paint1_linear_4_8377" x1="6.51172" y1="31.9998" x2="57.488" y2="31.9998" gradientUnits="userSpaceOnUse">
<stop stop-color="#FDFC47"/>
<stop offset="1" stop-color="#24FE41"/>
</linearGradient>
<linearGradient id="paint2_linear_4_8377" x1="4.5" y1="32.0002" x2="59.5004" y2="32.0002" gradientUnits="userSpaceOnUse">
<stop stop-color="#FDFC47"/>
<stop offset="1" stop-color="#24FE41"/>
</linearGradient>
<clipPath id="clip0_4_8377">
<rect width="64" height="64" fill="white"/>
</clipPath>
</defs>
</svg>
