<svg width="64" height="64" viewBox="0 0 64 64" fill="none" xmlns="http://www.w3.org/2000/svg">
<g clip-path="url(#clip0_4_7601)">
<g opacity="0.3" filter="url(#filter0_f_4_7601)">
<path d="M44.5 4.5H19.5C11.2157 4.5 4.5 11.2157 4.5 19.5V44.5C4.5 52.7843 11.2157 59.5 19.5 59.5H44.5C52.7843 59.5 59.5 52.7843 59.5 44.5V19.5C59.5 11.2157 52.7843 4.5 44.5 4.5Z" fill="url(#paint0_linear_4_7601)"/>
</g>
<path d="M19.5 5H44.5C52.5081 5 59 11.4919 59 19.5V44.5C59 52.5081 52.5081 59 44.5 59H19.5C11.4919 59 5 52.5081 5 44.5V19.5C5 11.4919 11.4919 5 19.5 5Z" fill="#232323" stroke="url(#paint1_linear_4_7601)"/>
<g opacity="0.1">
<g filter="url(#filter1_f_4_7601)">
<path d="M39.8009 16.4223C39.2208 16.8853 37.5132 20.1248 35.8056 23.9866C35.1139 25.5607 34.1348 27.6196 33.6405 28.566C32.1726 31.3697 28.5873 36.4707 26.9273 38.0979L25.3791 39.6298L26.5338 40.8907C27.2419 41.6669 28.1774 43.2792 28.9536 45.0821C30.4269 48.5176 30.6829 49.0133 30.9648 49.0133C31.0982 49.0133 31.8526 48.5871 32.6942 48.0506C34.5719 46.8319 36.3272 45.1937 38.7156 42.4063C42.4439 38.0611 45.2422 37.1406 48.6887 39.1355C49.6201 39.6775 50.3854 40.0179 50.3854 39.8913C50.3854 39.7578 49.9115 38.4492 49.3423 36.9759C48.7731 35.5025 47.2194 31.3425 45.9013 27.7313C44.9604 26.1462 41.8856 15.3166 39.8009 16.4332M32.3701 25.321C32.3537 25.321 32.3333 25.321 32.3115 25.3319C29.1578 26.7467 28.0194 27.3908 27.088 28.2896C26.4766 28.8901 25.9769 29.5287 25.9769 29.7153C25.9769 30.2953 28.4606 31.8436 28.8705 31.5182C29.0679 31.3588 29.8441 30.2205 30.5944 28.9813C31.9193 26.774 32.6043 25.3537 32.3701 25.321ZM23.5422 31.5713C23.0043 31.5713 15.3828 34.5234 15.0206 34.8747C14.9144 34.9755 15.0261 35.1621 15.2712 35.301C15.5163 35.4439 16.9093 36.3971 18.3881 37.4239C19.8615 38.4506 21.1428 39.2853 21.2341 39.2908C21.3239 39.2908 22.0007 38.9285 22.7238 38.4819C24.2448 37.545 27.1806 34.6473 27.1656 34.0931C27.1547 33.5988 24.2298 31.5672 23.5381 31.5672" fill="url(#paint2_linear_4_7601)"/>
</g>
</g>
<path d="M38.8399 14.9925C38.7024 14.9748 38.5689 14.9966 38.4382 15.0674V15.0565C37.8581 15.5195 36.1505 18.759 34.4429 22.6208C33.7512 24.1949 32.7694 26.2538 32.2751 27.2002C30.8072 30.0039 27.2218 35.1049 25.5619 36.7321L24.0137 38.264L25.1684 39.525C25.8765 40.3011 26.812 41.9134 27.5881 43.7163C29.0615 47.1519 29.3175 47.6475 29.5994 47.6475C29.7328 47.6475 30.4886 47.2213 31.3301 46.6848C33.2079 45.4661 34.9631 43.8279 37.3515 41.0405C41.0799 36.6953 43.8782 35.7748 47.3246 37.7697C48.2561 38.3117 49.0213 38.6521 49.0213 38.5255C49.0213 38.392 48.5447 37.0834 47.9755 35.6101C47.4063 34.1367 45.8554 29.9767 44.5372 26.3655C43.6549 24.8799 40.8974 15.269 38.8372 14.9925H38.8399Z" fill="url(#paint3_linear_4_7601)"/>
<path d="M31.0077 23.9607C30.9914 23.9607 30.971 23.9607 30.9492 23.9716C27.7955 25.3864 26.6571 26.0305 25.7257 26.9292C25.1143 27.5297 24.6145 28.1684 24.6145 28.3549C24.6145 28.935 27.0983 30.4832 27.5082 30.1578C27.7056 29.9985 28.4818 28.8601 29.2321 27.6209C30.557 25.4136 31.2433 23.9947 31.0091 23.9607L31.0077 23.9607ZM22.1757 30.2055L22.1784 30.2109C21.6406 30.2109 14.0191 33.163 13.6569 33.5144C13.5507 33.6151 13.6651 33.8003 13.9102 33.9406C14.1553 34.0835 15.5483 35.0367 17.0271 36.0635C18.5005 37.0902 19.7818 37.9249 19.8731 37.9304C19.9629 37.9304 20.6397 37.5681 21.3628 37.1215C22.8838 36.1846 25.8196 33.2869 25.8046 32.7327C25.7937 32.2384 22.8688 30.2068 22.1771 30.2068L22.1757 30.2055Z" fill="url(#paint4_linear_4_7601)"/>
</g>
<defs>
<filter id="filter0_f_4_7601" x="3.2625" y="3.2625" width="57.475" height="57.475" filterUnits="userSpaceOnUse" color-interpolation-filters="sRGB">
<feFlood flood-opacity="0" result="BackgroundImageFix"/>
<feBlend mode="normal" in="SourceGraphic" in2="BackgroundImageFix" result="shape"/>
<feGaussianBlur stdDeviation="0.61875" result="effect1_foregroundBlur_4_7601"/>
</filter>
<filter id="filter1_f_4_7601" x="13.6192" y="14.9913" width="38.1269" height="35.3833" filterUnits="userSpaceOnUse" color-interpolation-filters="sRGB">
<feFlood flood-opacity="0" result="BackgroundImageFix"/>
<feBlend mode="normal" in="SourceGraphic" in2="BackgroundImageFix" result="shape"/>
<feGaussianBlur stdDeviation="0.680656" result="effect1_foregroundBlur_4_7601"/>
</filter>
<linearGradient id="paint0_linear_4_7601" x1="4.5" y1="32" x2="59.5" y2="32" gradientUnits="userSpaceOnUse">
<stop stop-color="#FDFC47"/>
<stop offset="1" stop-color="#24FE41"/>
</linearGradient>
<linearGradient id="paint1_linear_4_7601" x1="4.5" y1="32" x2="59.5" y2="32" gradientUnits="userSpaceOnUse">
<stop stop-color="#FDFC47"/>
<stop offset="1" stop-color="#24FE41"/>
</linearGradient>
<linearGradient id="paint2_linear_4_7601" x1="14.9805" y1="32.683" x2="50.3854" y2="32.683" gradientUnits="userSpaceOnUse">
<stop stop-color="#FDFC47"/>
<stop offset="1" stop-color="#24FE41"/>
</linearGradient>
<linearGradient id="paint3_linear_4_7601" x1="24.0137" y1="31.3171" x2="49.0213" y2="31.3171" gradientUnits="userSpaceOnUse">
<stop stop-color="#FDFC47"/>
<stop offset="1" stop-color="#24FE41"/>
</linearGradient>
<linearGradient id="paint4_linear_4_7601" x1="13.6172" y1="30.9455" x2="31.0544" y2="30.9455" gradientUnits="userSpaceOnUse">
<stop stop-color="#FDFC47"/>
<stop offset="1" stop-color="#24FE41"/>
</linearGradient>
<clipPath id="clip0_4_7601">
<rect width="64" height="64" fill="white"/>
</clipPath>
</defs>
</svg>
