<svg width="64" height="64" viewBox="0 0 64 64" fill="none" xmlns="http://www.w3.org/2000/svg">
<g clip-path="url(#clip0_4_7459)">
<g opacity="0.3" filter="url(#filter0_f_4_7459)">
<path d="M44.5 4.5H19.5C11.2157 4.5 4.5 11.2157 4.5 19.5V44.5C4.5 52.7843 11.2157 59.5 19.5 59.5H44.5C52.7843 59.5 59.5 52.7843 59.5 44.5V19.5C59.5 11.2157 52.7843 4.5 44.5 4.5Z" fill="url(#paint0_linear_4_7459)"/>
</g>
<path d="M19.5 5H44.5C52.5081 5 59 11.4919 59 19.5V44.5C59 52.5081 52.5081 59 44.5 59H19.5C11.4919 59 5 52.5081 5 44.5V19.5C5 11.4919 11.4919 5 19.5 5Z" fill="#232323" stroke="url(#paint1_linear_4_7459)"/>
<g opacity="0.2">
<path d="M17 21.1209V42.9391H25.1818V29.3028H38.8182V42.9391H47V27.9391C47 22.4375 41.2219 21.1209 38.8182 21.1209H17Z" fill="url(#paint2_linear_4_7459)"/>
<path d="M29.2734 33.3937V40.2119H34.728V33.3937H29.2734Z" fill="url(#paint3_linear_4_7459)"/>
</g>
<path d="M17 21.0609V42.8791H25.1818V29.2427H38.8182V42.8791H47V27.8791C47 22.3775 41.2219 21.0609 38.8182 21.0609H17Z" fill="url(#paint4_linear_4_7459)"/>
<path d="M29.2734 33.3336V40.1518H34.728V33.3336H29.2734Z" fill="url(#paint5_linear_4_7459)"/>
</g>
<defs>
<filter id="filter0_f_4_7459" x="3.2625" y="3.2625" width="57.475" height="57.475" filterUnits="userSpaceOnUse" color-interpolation-filters="sRGB">
<feFlood flood-opacity="0" result="BackgroundImageFix"/>
<feBlend mode="normal" in="SourceGraphic" in2="BackgroundImageFix" result="shape"/>
<feGaussianBlur stdDeviation="0.61875" result="effect1_foregroundBlur_4_7459"/>
</filter>
<linearGradient id="paint0_linear_4_7459" x1="4.5" y1="32" x2="59.5" y2="32" gradientUnits="userSpaceOnUse">
<stop stop-color="#FDFC47"/>
<stop offset="1" stop-color="#24FE41"/>
</linearGradient>
<linearGradient id="paint1_linear_4_7459" x1="4.5" y1="32" x2="59.5" y2="32" gradientUnits="userSpaceOnUse">
<stop stop-color="#FDFC47"/>
<stop offset="1" stop-color="#24FE41"/>
</linearGradient>
<linearGradient id="paint2_linear_4_7459" x1="17" y1="32.03" x2="47" y2="32.03" gradientUnits="userSpaceOnUse">
<stop stop-color="#FDFC47"/>
<stop offset="1" stop-color="#24FE41"/>
</linearGradient>
<linearGradient id="paint3_linear_4_7459" x1="29.2734" y1="36.8028" x2="34.728" y2="36.8028" gradientUnits="userSpaceOnUse">
<stop stop-color="#FDFC47"/>
<stop offset="1" stop-color="#24FE41"/>
</linearGradient>
<linearGradient id="paint4_linear_4_7459" x1="17" y1="31.97" x2="47" y2="31.97" gradientUnits="userSpaceOnUse">
<stop stop-color="#FDFC47"/>
<stop offset="1" stop-color="#24FE41"/>
</linearGradient>
<linearGradient id="paint5_linear_4_7459" x1="29.2734" y1="36.7427" x2="34.728" y2="36.7427" gradientUnits="userSpaceOnUse">
<stop stop-color="#FDFC47"/>
<stop offset="1" stop-color="#24FE41"/>
</linearGradient>
<clipPath id="clip0_4_7459">
<rect width="64" height="64" fill="white"/>
</clipPath>
</defs>
</svg>
