<svg width="64" height="64" viewBox="0 0 64 64" fill="none" xmlns="http://www.w3.org/2000/svg">
<g opacity="0.3" filter="url(#filter0_f_4_7446)">
<path d="M44.5 4.5H19.5C11.2157 4.5 4.5 11.2157 4.5 19.5V44.5C4.5 52.7843 11.2157 59.5 19.5 59.5H44.5C52.7843 59.5 59.5 52.7843 59.5 44.5V19.5C59.5 11.2157 52.7843 4.5 44.5 4.5Z" fill="url(#paint0_linear_4_7446)"/>
</g>
<path d="M19.5 5H44.5C52.5081 5 59 11.4919 59 19.5V44.5C59 52.5081 52.5081 59 44.5 59H19.5C11.4919 59 5 52.5081 5 44.5V19.5C5 11.4919 11.4919 5 19.5 5Z" fill="#232323" stroke="url(#paint1_linear_4_7446)"/>
<path d="M28.3387 46.7009C32.5288 46.7009 35.9255 43.3041 35.9255 39.1141C35.9255 34.924 32.5288 31.5273 28.3387 31.5273C24.1487 31.5273 20.752 34.924 20.752 39.1141C20.752 43.3041 24.1487 46.7009 28.3387 46.7009Z" stroke="url(#paint2_linear_4_7446)" stroke-width="5.39991"/>
<g filter="url(#filter1_f_4_7446)">
<path d="M33.0977 14.7509V37.2824H38.0856V22.9255C38.0856 22.9255 39.6801 23.6983 40.0072 23.7796C40.3343 23.861 46.7123 26.3012 43.4825 33.3778L43.6258 33.4602C43.6258 33.4602 48.7686 27.1336 45.3862 22.3019C42.0037 17.4706 39.3983 18.2428 33.0977 14.7509Z" fill="url(#paint3_linear_4_7446)"/>
</g>
<path d="M33.2305 14.8785V39.362H38.6221V23.7613C38.6221 23.7613 40.3457 24.601 40.6992 24.6894C41.0528 24.7778 47.947 27.4294 44.4557 35.1192L44.6107 35.2087C44.6107 35.2087 50.1697 28.334 46.5135 23.0837C42.8573 17.8339 40.041 18.6729 33.2305 14.8785Z" fill="url(#paint4_linear_4_7446)"/>
<defs>
<filter id="filter0_f_4_7446" x="3.2625" y="3.2625" width="57.475" height="57.475" filterUnits="userSpaceOnUse" color-interpolation-filters="sRGB">
<feFlood flood-opacity="0" result="BackgroundImageFix"/>
<feBlend mode="normal" in="SourceGraphic" in2="BackgroundImageFix" result="shape"/>
<feGaussianBlur stdDeviation="0.61875" result="effect1_foregroundBlur_4_7446"/>
</filter>
<filter id="filter1_f_4_7446" x="31.3115" y="12.9648" width="17.0137" height="26.1037" filterUnits="userSpaceOnUse" color-interpolation-filters="sRGB">
<feFlood flood-opacity="0" result="BackgroundImageFix"/>
<feBlend mode="normal" in="SourceGraphic" in2="BackgroundImageFix" result="shape"/>
<feGaussianBlur stdDeviation="0.893077" result="effect1_foregroundBlur_4_7446"/>
</filter>
<linearGradient id="paint0_linear_4_7446" x1="4.5" y1="32" x2="59.5" y2="32" gradientUnits="userSpaceOnUse">
<stop stop-color="#FDFC47"/>
<stop offset="1" stop-color="#24FE41"/>
</linearGradient>
<linearGradient id="paint1_linear_4_7446" x1="4.5" y1="32" x2="59.5" y2="32" gradientUnits="userSpaceOnUse">
<stop stop-color="#FDFC47"/>
<stop offset="1" stop-color="#24FE41"/>
</linearGradient>
<linearGradient id="paint2_linear_4_7446" x1="20.752" y1="39.1141" x2="35.9255" y2="39.1141" gradientUnits="userSpaceOnUse">
<stop stop-color="#FDFC47"/>
<stop offset="1" stop-color="#24FE41"/>
</linearGradient>
<linearGradient id="paint3_linear_4_7446" x1="33.0977" y1="26.0165" x2="46.5382" y2="26.0165" gradientUnits="userSpaceOnUse">
<stop stop-color="#FDFC47"/>
<stop offset="1" stop-color="#24FE41"/>
</linearGradient>
<linearGradient id="paint4_linear_4_7446" x1="33.2305" y1="27.1201" x2="47.7587" y2="27.1201" gradientUnits="userSpaceOnUse">
<stop stop-color="#FDFC47"/>
<stop offset="1" stop-color="#24FE41"/>
</linearGradient>
</defs>
</svg>
