<svg width="64" height="64" viewBox="0 0 64 64" fill="none" xmlns="http://www.w3.org/2000/svg">
<g clip-path="url(#clip0_4_7356)">
<g opacity="0.3" filter="url(#filter0_f_4_7356)">
<path d="M44.5 4.5H19.5C11.2157 4.5 4.5 11.2157 4.5 19.5V44.5C4.5 52.7843 11.2157 59.5 19.5 59.5H44.5C52.7843 59.5 59.5 52.7843 59.5 44.5V19.5C59.5 11.2157 52.7843 4.5 44.5 4.5Z" fill="url(#paint0_linear_4_7356)"/>
</g>
<path d="M19.5 5H44.5C52.5081 5 59 11.4919 59 19.5V44.5C59 52.5081 52.5081 59 44.5 59H19.5C11.4919 59 5 52.5081 5 44.5V19.5C5 11.4919 11.4919 5 19.5 5Z" fill="#232323" stroke="url(#paint1_linear_4_7356)"/>
<path opacity="0.92" d="M32 52C43.0457 52 52 43.0457 52 32C52 20.9543 43.0457 12 32 12C20.9543 12 12 20.9543 12 32C12 43.0457 20.9543 52 32 52Z" fill="url(#paint2_linear_4_7356)"/>
<path opacity="0.9" fill-rule="evenodd" clip-rule="evenodd" d="M43.4448 30.3592L28.0347 20.6499C27.5791 20.3787 27.0134 20.4239 26.5861 20.4239C24.8772 20.4239 24.8848 21.7433 24.8848 22.0776V41.9224C24.8848 42.205 24.8773 43.5762 26.5861 43.5762C27.0134 43.5762 27.5792 43.6211 28.0347 43.35L43.4447 33.6408C44.7096 32.8882 44.491 32 44.491 32C44.491 32 44.7097 31.1118 43.4448 30.3592Z" fill="#232323"/>
</g>
<defs>
<filter id="filter0_f_4_7356" x="3.2625" y="3.2625" width="57.475" height="57.475" filterUnits="userSpaceOnUse" color-interpolation-filters="sRGB">
<feFlood flood-opacity="0" result="BackgroundImageFix"/>
<feBlend mode="normal" in="SourceGraphic" in2="BackgroundImageFix" result="shape"/>
<feGaussianBlur stdDeviation="0.61875" result="effect1_foregroundBlur_4_7356"/>
</filter>
<linearGradient id="paint0_linear_4_7356" x1="4.5" y1="32" x2="59.5" y2="32" gradientUnits="userSpaceOnUse">
<stop stop-color="#FDFC47"/>
<stop offset="1" stop-color="#24FE41"/>
</linearGradient>
<linearGradient id="paint1_linear_4_7356" x1="4.5" y1="32" x2="59.5" y2="32" gradientUnits="userSpaceOnUse">
<stop stop-color="#FDFC47"/>
<stop offset="1" stop-color="#24FE41"/>
</linearGradient>
<linearGradient id="paint2_linear_4_7356" x1="12" y1="32" x2="52" y2="32" gradientUnits="userSpaceOnUse">
<stop stop-color="#FDFC47"/>
<stop offset="1" stop-color="#24FE41"/>
</linearGradient>
<clipPath id="clip0_4_7356">
<rect width="64" height="64" fill="white"/>
</clipPath>
</defs>
</svg>
