<svg width="64" height="64" viewBox="0 0 64 64" fill="none" xmlns="http://www.w3.org/2000/svg">
<g clip-path="url(#clip0_4_7340)">
<g opacity="0.3" filter="url(#filter0_f_4_7340)">
<path d="M44.5 4.5H19.5C11.2157 4.5 4.5 11.2157 4.5 19.5V44.5C4.5 52.7843 11.2157 59.5 19.5 59.5H44.5C52.7843 59.5 59.5 52.7843 59.5 44.5V19.5C59.5 11.2157 52.7843 4.5 44.5 4.5Z" fill="url(#paint0_linear_4_7340)"/>
</g>
<path d="M19.5 5H44.5C52.5081 5 59 11.4919 59 19.5V44.5C59 52.5081 52.5081 59 44.5 59H19.5C11.4919 59 5 52.5081 5 44.5V19.5C5 11.4919 11.4919 5 19.5 5Z" fill="#232323" stroke="url(#paint1_linear_4_7340)"/>
<path d="M23.5385 20.4615C20.5646 20.4615 18.1538 22.8723 18.1538 25.8462V32.7692C18.1538 35.8462 16.5692 35.8462 15.8462 35.8462C13.7215 35.8462 12 37.5677 12 39.6923C12 41.8169 13.7215 43.5385 15.8462 43.5385C17.9708 43.5385 19.6923 41.8169 19.6923 39.6923C19.6923 37.3846 18.58 37.3846 19.2292 35.3831C19.5908 34.2692 21.2308 32.7692 23.5385 32.7692C25.8462 32.7692 28.1538 34.3077 28.1538 35.8462C28.1538 37.3846 27.3846 37.3846 27.3846 39.6923C27.3846 41.8169 29.4508 43.5385 32 43.5385C34.5492 43.5385 36.6154 41.8169 36.6154 39.6923C36.6154 37.3846 35.6923 37.3846 35.6923 35.8462C35.6923 34.3077 38.1538 32.7692 40.4615 32.7692C42.7692 32.7692 44.4523 34.2554 44.7708 35.3831C45.4554 37.8092 44.3077 37.3846 44.3077 39.6923C44.3077 41.8169 46.0292 43.5385 48.1538 43.5385C50.2785 43.5385 52 41.8169 52 39.6923C52 37.5677 50.2785 35.8462 48.1538 35.8462C47.4308 35.8462 45.8462 35.8462 45.8462 32.7692V25.8462C45.8462 22.8723 43.4354 20.4615 40.4615 20.4615C35.0769 20.4615 35.6692 23.5385 32 23.5385C28.3308 23.5385 28.9231 20.4615 23.5385 20.4615ZM32 25.0769C33.2241 25.0769 34.398 25.5632 35.2636 26.4287C36.1291 27.2943 36.6154 28.4682 36.6154 29.6923C36.6154 30.9164 36.1291 32.0903 35.2636 32.9559C34.398 33.8214 33.2241 34.3077 32 34.3077C31.3939 34.3077 30.7937 34.1883 30.2338 33.9564C29.6738 33.7244 29.165 33.3845 28.7364 32.9559C28.3079 32.5273 27.9679 32.0185 27.7359 31.4585C27.504 30.8986 27.3846 30.2984 27.3846 29.6923C27.3846 28.4682 27.8709 27.2943 28.7364 26.4287C29.602 25.5632 30.7759 25.0769 32 25.0769Z" fill="url(#paint2_linear_4_7340)"/>
</g>
<defs>
<filter id="filter0_f_4_7340" x="3.2625" y="3.2625" width="57.475" height="57.475" filterUnits="userSpaceOnUse" color-interpolation-filters="sRGB">
<feFlood flood-opacity="0" result="BackgroundImageFix"/>
<feBlend mode="normal" in="SourceGraphic" in2="BackgroundImageFix" result="shape"/>
<feGaussianBlur stdDeviation="0.61875" result="effect1_foregroundBlur_4_7340"/>
</filter>
<linearGradient id="paint0_linear_4_7340" x1="4.5" y1="32" x2="59.5" y2="32" gradientUnits="userSpaceOnUse">
<stop stop-color="#FDFC47"/>
<stop offset="1" stop-color="#24FE41"/>
</linearGradient>
<linearGradient id="paint1_linear_4_7340" x1="4.5" y1="32" x2="59.5" y2="32" gradientUnits="userSpaceOnUse">
<stop stop-color="#FDFC47"/>
<stop offset="1" stop-color="#24FE41"/>
</linearGradient>
<linearGradient id="paint2_linear_4_7340" x1="12" y1="32" x2="52" y2="32" gradientUnits="userSpaceOnUse">
<stop stop-color="#FDFC47"/>
<stop offset="1" stop-color="#24FE41"/>
</linearGradient>
<clipPath id="clip0_4_7340">
<rect width="64" height="64" fill="white"/>
</clipPath>
</defs>
</svg>
