<svg width="64" height="64" viewBox="0 0 64 64" fill="none" xmlns="http://www.w3.org/2000/svg">
<g opacity="0.3" filter="url(#filter0_f_4_6993)">
<path d="M44.5 4.5H19.5C11.2157 4.5 4.5 11.2157 4.5 19.5V44.5C4.5 52.7843 11.2157 59.5 19.5 59.5H44.5C52.7843 59.5 59.5 52.7843 59.5 44.5V19.5C59.5 11.2157 52.7843 4.5 44.5 4.5Z" fill="#232323"/>
<path d="M19.5 5H44.5C52.5081 5 59 11.4919 59 19.5V44.5C59 52.5081 52.5081 59 44.5 59H19.5C11.4919 59 5 52.5081 5 44.5V19.5C5 11.4919 11.4919 5 19.5 5Z" stroke="url(#paint0_linear_4_6993)"/>
</g>
<path d="M19.5 5H44.5C52.5081 5 59 11.4919 59 19.5V44.5C59 52.5081 52.5081 59 44.5 59H19.5C11.4919 59 5 52.5081 5 44.5V19.5C5 11.4919 11.4919 5 19.5 5Z" fill="#232323" stroke="url(#paint1_linear_4_6993)"/>
<path d="M44.4182 37.5617L44.4182 37.5617C44.4594 37.5429 44.5068 37.5217 44.5596 37.498C45.1521 37.2322 46.4372 36.6557 47.5894 35.7916C48.8252 34.8648 50.0572 33.4943 49.9289 31.6959L49.9289 31.6959C49.8995 31.2841 49.883 30.8204 49.8764 30.3266C49.9229 30.8508 49.9697 31.3839 50.016 31.919C50.2137 34.2013 50.4033 36.5171 50.5279 38.3333C50.5902 39.2419 50.636 40.0219 50.6585 40.6087C50.6697 40.9025 50.6749 41.1434 50.6738 41.3259C50.6732 41.4171 50.671 41.4899 50.6677 41.545C50.664 41.6051 50.6599 41.6271 50.6602 41.6255L50.6552 41.6486L50.6524 41.6721L50.6514 41.6809C50.5871 42.2211 50.4859 43.0707 49.9764 43.8887C49.4769 44.6905 48.5505 45.513 46.7267 45.9069C44.963 46.2876 43.6474 45.6924 42.7547 44.9914C42.3051 44.6383 41.9656 44.2595 41.7388 43.9688C41.6257 43.8239 41.5417 43.7022 41.487 43.6186C41.4597 43.5769 41.4398 43.5447 41.4273 43.524L41.4141 43.5019L41.4125 43.4992L41.4119 43.4982L41.4118 43.4979L41.4117 43.4978L41.4116 43.4976L41.4078 43.4907L41.3908 43.4607C41.3762 43.4352 41.3552 43.3988 41.3279 43.3531C41.2734 43.2617 41.1941 43.1328 41.0927 42.9787C40.8904 42.6715 40.597 42.2597 40.2338 41.8454C39.8722 41.433 39.4302 41.0053 38.9286 40.6778C38.4277 40.3508 37.8401 40.1061 37.1979 40.1061L26.1936 40.1064C26.3465 39.8454 26.5369 39.5411 26.753 39.2385C27.0374 38.8401 27.3539 38.4621 27.6754 38.1886C28.0066 37.9069 28.2801 37.7895 28.487 37.7895C28.7601 37.7895 29.3792 37.7982 30.2246 37.8101C31.8009 37.8322 34.1637 37.8653 36.5348 37.8738C38.3416 37.8802 40.1377 37.872 41.5485 37.8326C42.2532 37.813 42.868 37.7854 43.3423 37.7473C43.5791 37.7283 43.7875 37.7062 43.9578 37.6799C44.1125 37.6561 44.2852 37.6221 44.4182 37.5617Z" fill="url(#paint2_linear_4_6993)" stroke="url(#paint3_linear_4_6993)"/>
<path d="M41.6823 15.8235C49.2634 16.0344 49.7018 22.0124 49.6988 22.7943C49.701 23.3783 49.7007 26.443 49.7005 29.3742C49.7004 30.3261 49.7003 31.2639 49.7003 32.0981C49.7003 35.5009 47.1368 37.8858 44.7449 37.8858H28.6509C27.4134 37.8858 26.257 39.4815 24.9366 41.3036C23.056 43.8985 20.8427 46.9525 17.5884 46.5109C12.365 45.8022 12.8435 41.7758 12.8435 41.7758L13.9634 23.9172C14.807 15.7923 22.6822 15.8235 22.6822 15.8235H41.6823ZM41.6823 15.8235L41.6684 16.3233C41.6707 16.3234 41.673 16.3235 41.6753 16.3235M41.6823 15.8235V16.3235H41.6753M41.6753 16.3235C45.3064 16.4263 47.1541 17.8951 48.1159 19.3682C49.1002 20.8757 49.2001 22.4571 49.1988 22.7923L49.1988 22.7962C49.201 23.3791 49.2007 26.4409 49.2005 29.3713C49.2004 30.324 49.2003 31.2629 49.2003 32.0981C49.2003 35.2648 46.8222 37.3858 44.7449 37.3858H28.6509C28.1409 37.3858 27.6748 37.5858 27.2562 37.8766C26.8392 38.1664 26.4411 38.5657 26.0565 39.0134C25.5597 39.5919 25.0425 40.3053 24.5132 41.0353C24.236 41.4177 23.9555 41.8046 23.6729 42.1791C22.8292 43.297 21.9373 44.3485 20.9377 45.0761C19.9495 45.7955 18.8802 46.1816 17.6557 46.0154C15.1935 45.6814 14.16 44.5895 13.7067 43.6587C13.4726 43.1778 13.3808 42.7138 13.3481 42.3689C13.3319 42.1971 13.3305 42.0573 13.333 41.9631C13.3342 41.9161 13.3363 41.8807 13.338 41.8586C13.3388 41.8476 13.3395 41.84 13.3399 41.8359L13.3401 41.8342L13.3401 41.8337L13.3402 41.833L13.3402 41.833L13.3403 41.8326L13.3415 41.8219L13.3424 41.809C13.6621 37.0127 13.9421 32.5471 14.1422 29.2807C14.2423 27.6474 14.3224 26.3139 14.3775 25.3886C14.405 24.926 14.4263 24.5655 14.4407 24.3205L14.457 24.0415L14.4612 23.9703L14.4619 23.9577C14.8661 20.0995 16.917 18.2162 18.8577 17.2732C19.8401 16.7959 20.8018 16.5575 21.52 16.4389C21.8782 16.3798 22.1733 16.3509 22.3767 16.3369C22.4783 16.3298 22.5569 16.3265 22.6087 16.3249C22.6346 16.3241 22.6539 16.3238 22.6659 16.3236L22.6786 16.3235L22.6802 16.3235M41.6753 16.3235H22.6822H22.6802M22.6802 16.3235L22.6808 16.3235L22.6807 16.3235C22.6805 16.3235 22.6802 16.3235 22.6822 15.8236L22.6802 16.3235Z" fill="#232323" stroke="url(#paint4_linear_4_6993)"/>
<path d="M23.939 22.0999C24.5859 22.0999 25.1103 22.6243 25.1103 23.2713V29.6009C25.1103 30.2478 24.5859 30.7723 23.939 30.7723C23.292 30.7723 22.7676 30.2478 22.7676 29.6009V23.2713C22.7676 22.6243 23.292 22.0999 23.939 22.0999Z" fill="url(#paint5_linear_4_6993)" stroke="url(#paint6_linear_4_6993)"/>
<path d="M19.6035 26.4359C19.6035 25.7889 20.128 25.2645 20.7749 25.2645H27.1045C27.7515 25.2645 28.2759 25.7889 28.2759 26.4359C28.2759 27.0828 27.7515 27.6072 27.1045 27.6072H20.7749C20.128 27.6072 19.6035 27.0828 19.6035 26.4359Z" fill="url(#paint7_linear_4_6993)" stroke="url(#paint8_linear_4_6993)"/>
<path d="M41.7861 23.5248C41.7861 24.1334 41.2927 24.6268 40.6841 24.6268C40.0754 24.6268 39.582 24.1334 39.582 23.5248C39.582 22.9161 40.0754 22.4227 40.6841 22.4227C41.2927 22.4227 41.7861 22.9161 41.7861 23.5248Z" fill="url(#paint9_linear_4_6993)" stroke="url(#paint10_linear_4_6993)"/>
<path d="M41.7861 29.3472C41.7861 29.9559 41.2927 30.4492 40.6841 30.4492C40.0754 30.4492 39.582 29.9559 39.582 29.3472C39.582 28.7386 40.0754 28.2452 40.6841 28.2452C41.2927 28.2452 41.7861 28.7386 41.7861 29.3472Z" fill="url(#paint11_linear_4_6993)" stroke="url(#paint12_linear_4_6993)"/>
<path d="M37.7739 25.3338C38.3825 25.3338 38.8759 25.8272 38.8759 26.4358C38.8759 27.0444 38.3825 27.5378 37.7739 27.5378C37.1653 27.5378 36.6719 27.0444 36.6719 26.4358C36.6719 25.8272 37.1653 25.3338 37.7739 25.3338Z" fill="url(#paint13_linear_4_6993)" stroke="url(#paint14_linear_4_6993)"/>
<path d="M43.5962 25.3338C44.2048 25.3338 44.6982 25.8272 44.6982 26.4358C44.6982 27.0444 44.2048 27.5378 43.5962 27.5378C42.9875 27.5378 42.4941 27.0444 42.4941 26.4358C42.4941 25.8272 42.9875 25.3338 43.5962 25.3338Z" fill="url(#paint15_linear_4_6993)" stroke="url(#paint16_linear_4_6993)"/>
<defs>
<filter id="filter0_f_4_6993" x="3.2625" y="3.2625" width="57.475" height="57.475" filterUnits="userSpaceOnUse" color-interpolation-filters="sRGB">
<feFlood flood-opacity="0" result="BackgroundImageFix"/>
<feBlend mode="normal" in="SourceGraphic" in2="BackgroundImageFix" result="shape"/>
<feGaussianBlur stdDeviation="0.61875" result="effect1_foregroundBlur_4_6993"/>
</filter>
<linearGradient id="paint0_linear_4_6993" x1="4.5" y1="32" x2="59.5" y2="32" gradientUnits="userSpaceOnUse">
<stop stop-color="#FDFC47"/>
<stop offset="1" stop-color="#24FE41"/>
</linearGradient>
<linearGradient id="paint1_linear_4_6993" x1="4.5" y1="32" x2="59.5" y2="32" gradientUnits="userSpaceOnUse">
<stop stop-color="#FDFC47"/>
<stop offset="1" stop-color="#24FE41"/>
</linearGradient>
<linearGradient id="paint2_linear_4_6993" x1="25.3535" y1="34.7068" x2="51.1739" y2="34.7068" gradientUnits="userSpaceOnUse">
<stop stop-color="#FDFC47"/>
<stop offset="1" stop-color="#24FE41"/>
</linearGradient>
<linearGradient id="paint3_linear_4_6993" x1="25.3535" y1="34.7068" x2="51.1739" y2="34.7068" gradientUnits="userSpaceOnUse">
<stop stop-color="#FDFC47"/>
<stop offset="1" stop-color="#24FE41"/>
</linearGradient>
<linearGradient id="paint4_linear_4_6993" x1="12.832" y1="31.1885" x2="49.7007" y2="31.1885" gradientUnits="userSpaceOnUse">
<stop stop-color="#FDFC47"/>
<stop offset="1" stop-color="#24FE41"/>
</linearGradient>
<linearGradient id="paint5_linear_4_6993" x1="22.2676" y1="26.4361" x2="25.6103" y2="26.4361" gradientUnits="userSpaceOnUse">
<stop stop-color="#FDFC47"/>
<stop offset="1" stop-color="#24FE41"/>
</linearGradient>
<linearGradient id="paint6_linear_4_6993" x1="22.2676" y1="26.4361" x2="25.6103" y2="26.4361" gradientUnits="userSpaceOnUse">
<stop stop-color="#FDFC47"/>
<stop offset="1" stop-color="#24FE41"/>
</linearGradient>
<linearGradient id="paint7_linear_4_6993" x1="23.9397" y1="28.1072" x2="23.9397" y2="24.7645" gradientUnits="userSpaceOnUse">
<stop stop-color="#FDFC47"/>
<stop offset="1" stop-color="#24FE41"/>
</linearGradient>
<linearGradient id="paint8_linear_4_6993" x1="23.9397" y1="28.1072" x2="23.9397" y2="24.7645" gradientUnits="userSpaceOnUse">
<stop stop-color="#FDFC47"/>
<stop offset="1" stop-color="#24FE41"/>
</linearGradient>
<linearGradient id="paint9_linear_4_6993" x1="39.082" y1="23.5248" x2="42.2861" y2="23.5248" gradientUnits="userSpaceOnUse">
<stop stop-color="#FDFC47"/>
<stop offset="1" stop-color="#24FE41"/>
</linearGradient>
<linearGradient id="paint10_linear_4_6993" x1="39.082" y1="23.5248" x2="42.2861" y2="23.5248" gradientUnits="userSpaceOnUse">
<stop stop-color="#FDFC47"/>
<stop offset="1" stop-color="#24FE41"/>
</linearGradient>
<linearGradient id="paint11_linear_4_6993" x1="39.082" y1="29.3472" x2="42.2861" y2="29.3472" gradientUnits="userSpaceOnUse">
<stop stop-color="#FDFC47"/>
<stop offset="1" stop-color="#24FE41"/>
</linearGradient>
<linearGradient id="paint12_linear_4_6993" x1="39.082" y1="29.3472" x2="42.2861" y2="29.3472" gradientUnits="userSpaceOnUse">
<stop stop-color="#FDFC47"/>
<stop offset="1" stop-color="#24FE41"/>
</linearGradient>
<linearGradient id="paint13_linear_4_6993" x1="37.7739" y1="28.0378" x2="37.7739" y2="24.8338" gradientUnits="userSpaceOnUse">
<stop stop-color="#FDFC47"/>
<stop offset="1" stop-color="#24FE41"/>
</linearGradient>
<linearGradient id="paint14_linear_4_6993" x1="37.7739" y1="28.0378" x2="37.7739" y2="24.8338" gradientUnits="userSpaceOnUse">
<stop stop-color="#FDFC47"/>
<stop offset="1" stop-color="#24FE41"/>
</linearGradient>
<linearGradient id="paint15_linear_4_6993" x1="43.5962" y1="28.0378" x2="43.5962" y2="24.8338" gradientUnits="userSpaceOnUse">
<stop stop-color="#FDFC47"/>
<stop offset="1" stop-color="#24FE41"/>
</linearGradient>
<linearGradient id="paint16_linear_4_6993" x1="43.5962" y1="28.0378" x2="43.5962" y2="24.8338" gradientUnits="userSpaceOnUse">
<stop stop-color="#FDFC47"/>
<stop offset="1" stop-color="#24FE41"/>
</linearGradient>
</defs>
</svg>
