<svg width="64" height="64" viewBox="0 0 64 64" fill="none" xmlns="http://www.w3.org/2000/svg">
<g clip-path="url(#clip0_4_6863)">
<g opacity="0.3" filter="url(#filter0_f_4_6863)">
<path d="M44.5003 4.49979H19.5001C11.2158 4.49979 4.5 11.2156 4.5 19.4999V44.5001C4.5 52.7844 11.2158 59.5002 19.5001 59.5002H44.5003C52.7846 59.5002 59.5004 52.7844 59.5004 44.5001V19.4999C59.5004 11.2156 52.7846 4.49979 44.5003 4.49979Z" fill="url(#paint0_linear_4_6863)"/>
</g>
<path d="M19.5001 4.99976H44.5007C52.5088 4.99976 59.0008 11.4917 59.0008 19.4999V44.5004C59.0008 52.5086 52.5088 59.0005 44.5007 59.0005H19.5001C11.4919 59.0005 5 52.5086 5 44.5004V19.4999C5 11.4917 11.4919 4.99976 19.5001 4.99976Z" fill="#232323" stroke="url(#paint1_linear_4_6863)"/>
<path opacity="0.15" d="M32.0047 45.7208C39.5958 45.7208 45.7496 39.567 45.7496 31.9759C45.7496 24.3849 39.5958 18.231 32.0047 18.231C24.4136 18.231 18.2598 24.3849 18.2598 31.9759C18.2598 39.567 24.4136 45.7208 32.0047 45.7208Z" fill="url(#paint2_linear_4_6863)"/>
<path d="M32.0045 39.4766C36.147 39.4766 39.5052 36.1184 39.5052 31.976C39.5052 27.8335 36.147 24.4753 32.0045 24.4753C27.8621 24.4753 24.5039 27.8335 24.5039 31.976C24.5039 36.1184 27.8621 39.4766 32.0045 39.4766Z" fill="url(#paint3_linear_4_6863)"/>
<path d="M28.3691 28.371L50.9455 13.0522L35.6267 35.6286L28.3691 28.371Z" fill="url(#paint4_linear_4_6863)"/>
<path d="M28.3695 28.371L13.0508 50.9473L35.6271 35.6286L28.3695 28.371Z" fill="url(#paint5_linear_4_6863)"/>
</g>
<defs>
<filter id="filter0_f_4_6863" x="3.26249" y="3.26228" width="57.475" height="57.4754" filterUnits="userSpaceOnUse" color-interpolation-filters="sRGB">
<feFlood flood-opacity="0" result="BackgroundImageFix"/>
<feBlend mode="normal" in="SourceGraphic" in2="BackgroundImageFix" result="shape"/>
<feGaussianBlur stdDeviation="0.618754" result="effect1_foregroundBlur_4_6863"/>
</filter>
<linearGradient id="paint0_linear_4_6863" x1="4.5" y1="32" x2="59.5004" y2="32" gradientUnits="userSpaceOnUse">
<stop stop-color="#FDFC47"/>
<stop offset="1" stop-color="#24FE41"/>
</linearGradient>
<linearGradient id="paint1_linear_4_6863" x1="4.5" y1="32.0001" x2="59.5008" y2="32.0001" gradientUnits="userSpaceOnUse">
<stop stop-color="#FDFC47"/>
<stop offset="1" stop-color="#24FE41"/>
</linearGradient>
<linearGradient id="paint2_linear_4_6863" x1="18.2598" y1="31.9759" x2="45.7496" y2="31.9759" gradientUnits="userSpaceOnUse">
<stop stop-color="#FDFC47"/>
<stop offset="1" stop-color="#24FE41"/>
</linearGradient>
<linearGradient id="paint3_linear_4_6863" x1="24.5039" y1="31.976" x2="39.5052" y2="31.976" gradientUnits="userSpaceOnUse">
<stop stop-color="#FDFC47"/>
<stop offset="1" stop-color="#24FE41"/>
</linearGradient>
<linearGradient id="paint4_linear_4_6863" x1="28.3691" y1="24.3404" x2="50.9455" y2="24.3404" gradientUnits="userSpaceOnUse">
<stop stop-color="#FDFC47"/>
<stop offset="1" stop-color="#24FE41"/>
</linearGradient>
<linearGradient id="paint5_linear_4_6863" x1="13.0508" y1="39.6591" x2="35.6271" y2="39.6591" gradientUnits="userSpaceOnUse">
<stop stop-color="#FDFC47"/>
<stop offset="1" stop-color="#24FE41"/>
</linearGradient>
<clipPath id="clip0_4_6863">
<rect width="64" height="64" fill="white"/>
</clipPath>
</defs>
</svg>
