<svg width="64" height="64" viewBox="0 0 64 64" fill="none" xmlns="http://www.w3.org/2000/svg">
<g opacity="0.3" filter="url(#filter0_f_4_6723)">
<path d="M44.5 4.5H19.5C11.2157 4.5 4.5 11.2157 4.5 19.5V44.5C4.5 52.7843 11.2157 59.5 19.5 59.5H44.5C52.7843 59.5 59.5 52.7843 59.5 44.5V19.5C59.5 11.2157 52.7843 4.5 44.5 4.5Z" fill="url(#paint0_linear_4_6723)"/>
</g>
<path d="M19.5 5H44.5C52.5081 5 59 11.4919 59 19.5V44.5C59 52.5081 52.5081 59 44.5 59H19.5C11.4919 59 5 52.5081 5 44.5V19.5C5 11.4919 11.4919 5 19.5 5Z" fill="#232323" stroke="url(#paint1_linear_4_6723)"/>
<g opacity="0.086483" filter="url(#filter1_f_4_6723)">
<path d="M31.9997 18.469C29.7346 18.469 27.722 19.31 26.1049 20.9435C24.4886 22.5762 23.6399 24.6145 23.6399 26.9147V38.5417H28.9137V26.9147C28.9137 26.0331 29.2014 25.3437 29.8309 24.7078C30.4625 24.0699 31.1313 23.7811 31.9997 23.7811C32.8863 23.7811 33.5451 24.0684 34.178 24.7078C34.8075 25.3437 35.0952 26.0331 35.0952 26.9147V38.5417H40.369V26.9147C40.369 26.0331 40.6567 25.3437 41.2862 24.7078C41.9192 24.0684 42.5779 23.7811 43.4645 23.7811C44.3329 23.7811 45.0017 24.0699 45.6333 24.7078C46.2628 25.3437 46.5505 26.0331 46.5505 26.9147L46.5791 40.5007C46.5791 43.3988 43.8192 45.8414 40.2734 45.8414L23.2674 45.7745C20.5312 45.7745 18.1942 43.1112 18.1942 39.6886V14.1046H13.207V40.6726C13.207 43.4915 14.2385 45.9635 16.2452 47.9624C17.9604 49.6554 20.0231 50.7528 22.3407 51.0006L41.2767 51.0006C44.1865 51.0006 46.7429 49.9186 48.8053 47.819H48.8149C50.5689 46.0169 51.5943 43.8576 51.8435 41.4274L51.8245 26.9144C51.8245 24.6141 50.9758 22.5759 49.3595 20.9432C47.7424 19.3096 45.7298 18.4687 43.4647 18.4687C41.2413 18.4687 39.2958 19.2955 37.7227 20.8094C36.1542 19.2979 34.2222 18.469 31.9997 18.469Z" fill="black" fill-opacity="0.80428"/>
</g>
<path d="M32.0178 19.209C29.8716 19.209 27.9646 20.0058 26.4324 21.5536C24.9009 23.1006 24.0968 25.0319 24.0968 27.2114V38.2284H29.0938V27.2114C29.0938 26.376 29.3664 25.7228 29.9629 25.1203C30.5613 24.5159 31.195 24.2422 32.0178 24.2422C32.8578 24.2422 33.482 24.5145 34.0818 25.1203C34.6782 25.7228 34.9508 26.376 34.9508 27.2114V38.2284H39.9478V27.2114C39.9478 26.376 40.2204 25.7228 40.8169 25.1203C41.4166 24.5145 42.0408 24.2422 42.8809 24.2422C43.7037 24.2422 44.3374 24.5159 44.9358 25.1203C45.5322 25.7228 45.8048 26.376 45.8048 27.2114L45.8319 40.0844C45.8319 42.8304 43.2168 45.1447 39.8572 45.1447L23.7432 45.0814C21.1506 45.0814 18.9363 42.5578 18.9363 39.3148V15.0739H14.2109V40.2479C14.2109 42.9188 15.1883 45.261 17.0896 47.155C18.7147 48.7591 20.6692 49.7989 22.8651 50.0338L40.8071 50.0337C43.5642 50.0337 45.9864 49.0085 47.9405 47.0191H47.9496C49.6116 45.3116 50.5831 43.2656 50.8193 40.963L50.8013 27.212C50.8013 25.0325 49.9972 23.1012 48.4657 21.5542C46.9335 20.0064 45.0265 19.2096 42.8803 19.2096C40.7736 19.2096 38.9303 19.993 37.4397 21.4275C35.9535 19.9954 34.1236 19.209 32.0178 19.209Z" fill="url(#paint2_linear_4_6723)"/>
<defs>
<filter id="filter0_f_4_6723" x="3.2625" y="3.2625" width="57.475" height="57.475" filterUnits="userSpaceOnUse" color-interpolation-filters="sRGB">
<feFlood flood-opacity="0" result="BackgroundImageFix"/>
<feBlend mode="normal" in="SourceGraphic" in2="BackgroundImageFix" result="shape"/>
<feGaussianBlur stdDeviation="0.61875" result="effect1_foregroundBlur_4_6723"/>
</filter>
<filter id="filter1_f_4_6723" x="10.8486" y="11.7462" width="43.3536" height="41.6129" filterUnits="userSpaceOnUse" color-interpolation-filters="sRGB">
<feFlood flood-opacity="0" result="BackgroundImageFix"/>
<feBlend mode="normal" in="SourceGraphic" in2="BackgroundImageFix" result="shape"/>
<feGaussianBlur stdDeviation="1.17922" result="effect1_foregroundBlur_4_6723"/>
</filter>
<linearGradient id="paint0_linear_4_6723" x1="4.5" y1="32" x2="59.5" y2="32" gradientUnits="userSpaceOnUse">
<stop stop-color="#FDFC47"/>
<stop offset="1" stop-color="#24FE41"/>
</linearGradient>
<linearGradient id="paint1_linear_4_6723" x1="4.5" y1="32" x2="59.5" y2="32" gradientUnits="userSpaceOnUse">
<stop stop-color="#FDFC47"/>
<stop offset="1" stop-color="#24FE41"/>
</linearGradient>
<linearGradient id="paint2_linear_4_6723" x1="14.2109" y1="32.5538" x2="50.8193" y2="32.5538" gradientUnits="userSpaceOnUse">
<stop stop-color="#FDFC47"/>
<stop offset="1" stop-color="#24FE41"/>
</linearGradient>
</defs>
</svg>
