<svg width="64" height="64" viewBox="0 0 64 64" fill="none" xmlns="http://www.w3.org/2000/svg">
<g clip-path="url(#clip0_4_5929)">
<g opacity="0.3" filter="url(#filter0_f_4_5929)">
<path d="M44.5 4.5H19.5C11.2157 4.5 4.5 11.2157 4.5 19.5V44.5C4.5 52.7843 11.2157 59.5 19.5 59.5H44.5C52.7843 59.5 59.5 52.7843 59.5 44.5V19.5C59.5 11.2157 52.7843 4.5 44.5 4.5Z" fill="url(#paint0_linear_4_5929)"/>
</g>
<path d="M44.5 4.5H19.5C11.2157 4.5 4.5 11.2157 4.5 19.5V44.5C4.5 52.7843 11.2157 59.5 19.5 59.5H44.5C52.7843 59.5 59.5 52.7843 59.5 44.5V19.5C59.5 11.2157 52.7843 4.5 44.5 4.5Z" fill="url(#paint1_linear_4_5929)"/>
<path fill-rule="evenodd" clip-rule="evenodd" d="M25.3203 4.5V59.5H44.5003C52.8103 59.5 59.5003 52.81 59.5003 44.5V19.5C59.5003 11.19 52.8103 4.5 44.5003 4.5H25.3203Z" fill="url(#paint2_linear_4_5929)"/>
<path opacity="0.15" d="M5 19.5C5 11.4661 11.4661 5 19.5 5H44.5C52.5339 5 59 11.4661 59 19.5V44.5C59 52.5339 52.5339 59 44.5 59H19.5C11.4661 59 5 52.5339 5 44.5V19.5Z" fill="#232323" stroke="url(#paint3_linear_4_5929)"/>
<path d="M47.2185 61.125C55.727 61.125 62.6245 54.2275 62.6245 45.719C62.6245 37.2105 55.727 30.313 47.2185 30.313C38.71 30.313 31.8125 37.2105 31.8125 45.719C31.8125 54.2275 38.71 61.125 47.2185 61.125Z" fill="url(#paint4_linear_4_5929)"/>
<path d="M38.7188 51.759C38.7188 51.759 42.3656 50.7561 42.4112 50.5738C42.4568 50.3915 42.548 40.5448 42.548 40.5448L49.7051 38.8581V53.4911L39.2661 52.0323L49.8421 55.8616L55.7188 54.0175L55.6772 37.3535L49.7054 35.5756L38.8554 39.6784L38.7188 51.759Z" fill="#232323"/>
</g>
<defs>
<filter id="filter0_f_4_5929" x="3.2625" y="3.2625" width="57.475" height="57.475" filterUnits="userSpaceOnUse" color-interpolation-filters="sRGB">
<feFlood flood-opacity="0" result="BackgroundImageFix"/>
<feBlend mode="normal" in="SourceGraphic" in2="BackgroundImageFix" result="shape"/>
<feGaussianBlur stdDeviation="0.61875" result="effect1_foregroundBlur_4_5929"/>
</filter>
<linearGradient id="paint0_linear_4_5929" x1="4.5" y1="32" x2="59.5" y2="32" gradientUnits="userSpaceOnUse">
<stop stop-color="#FDFC47"/>
<stop offset="1" stop-color="#24FE41"/>
</linearGradient>
<linearGradient id="paint1_linear_4_5929" x1="34.072" y1="59.587" x2="34.072" y2="4.5798" gradientUnits="userSpaceOnUse">
<stop stop-color="#5F2F2F"/>
<stop offset="0.23921" stop-color="#782323"/>
<stop offset="0.52437" stop-color="#CE2121"/>
<stop offset="0.76649" stop-color="#DF3A3A"/>
<stop offset="1" stop-color="#FA4B5A"/>
</linearGradient>
<linearGradient id="paint2_linear_4_5929" x1="33.4928" y1="3.15167" x2="33.4928" y2="61.7762" gradientUnits="userSpaceOnUse">
<stop stop-color="#E65555"/>
<stop offset="0.22539" stop-color="#DC4141"/>
<stop offset="1" stop-color="#D22D2D"/>
</linearGradient>
<linearGradient id="paint3_linear_4_5929" x1="4.5" y1="32" x2="59.5" y2="32" gradientUnits="userSpaceOnUse">
<stop stop-color="#FDFC47"/>
<stop offset="1" stop-color="#24FE41"/>
</linearGradient>
<linearGradient id="paint4_linear_4_5929" x1="32.3331" y1="60.7947" x2="61.7653" y2="31.3605" gradientUnits="userSpaceOnUse">
<stop stop-color="#F02828"/>
<stop offset="1" stop-color="#F06464"/>
</linearGradient>
<clipPath id="clip0_4_5929">
<rect width="64" height="64" fill="white"/>
</clipPath>
</defs>
</svg>
