<svg width="64" height="64" viewBox="0 0 64 64" fill="none" xmlns="http://www.w3.org/2000/svg">
<g clip-path="url(#clip0_4_5797)">
<g opacity="0.3" filter="url(#filter0_f_4_5797)">
<path d="M44.5 4.42999H19.5C11.2157 4.42999 4.5 11.1457 4.5 19.43V44.43C4.5 52.7143 11.2157 59.43 19.5 59.43H44.5C52.7843 59.43 59.5 52.7143 59.5 44.43V19.43C59.5 11.1457 52.7843 4.42999 44.5 4.42999Z" fill="url(#paint0_linear_4_5797)"/>
</g>
<path d="M19.5 4.92999H44.5C52.5081 4.92999 59 11.4219 59 19.43V44.43C59 52.4381 52.5081 58.93 44.5 58.93H19.5C11.4919 58.93 5 52.4381 5 44.43V19.43C5 11.4219 11.4919 4.92999 19.5 4.92999Z" fill="url(#paint1_linear_4_5797)" stroke="url(#paint2_linear_4_5797)"/>
<path d="M4.50391 25.736V39.314C4.50391 42.5541 4.58764 45.2769 4.81641 47.5835C6.23111 54.4041 12.2478 59.4995 19.5004 59.4995H44.5004C48.0912 59.4995 51.3767 58.2469 53.9535 56.1577L4.50391 25.736Z" fill="#2396E6"/>
<path d="M59.4995 25.496L9.97852 56.037C12.565 58.1586 15.8784 59.4296 19.5 59.4296H44.5C51.7998 59.4296 57.846 54.2668 59.209 47.3786C59.4089 45.2637 59.4906 42.789 59.5 39.9079L59.4995 25.496Z" fill="url(#paint3_linear_4_5797)"/>
<path opacity="0.1" d="M21.6008 36.26L4.4668 45.139C6.2737 47.8651 7.5045 53.8985 9.9789 56.037L31.6669 42.624L31.4658 42.3317L21.6016 36.2583L21.6008 36.26Z" fill="url(#paint4_linear_4_5797)"/>
<path d="M47.2185 61.125C55.727 61.125 62.6245 54.2275 62.6245 45.719C62.6245 37.2105 55.727 30.313 47.2185 30.313C38.71 30.313 31.8125 37.2105 31.8125 45.719C31.8125 54.2275 38.71 61.125 47.2185 61.125Z" fill="url(#paint5_linear_4_5797)"/>
<path d="M47.4091 36.539C44.8314 36.539 42.637 37.4746 41.1069 39.1245C39.5767 40.7745 38.7188 43.1208 38.7188 45.8928C38.7188 48.5739 39.5127 50.8294 40.9606 52.4162C42.4086 54.003 44.5033 54.898 46.9924 54.898C49.5711 54.898 51.7733 53.9519 53.3117 52.2938C54.8501 50.6356 55.7186 48.2814 55.7186 45.5085C55.7186 42.8264 54.9136 40.5763 53.4563 38.9987C51.999 37.4211 49.8971 36.539 47.4091 36.539ZM47.0264 39.8474C48.5277 39.8474 49.7579 40.4467 50.6428 41.4957C51.5277 42.5447 52.0597 44.0612 52.0597 45.8928C52.0597 47.6597 51.5772 49.0873 50.7635 50.0636C49.9499 51.04 48.8111 51.5877 47.3751 51.5877C45.8722 51.5877 44.6513 50.9965 43.7758 49.953C42.9002 48.9095 42.3759 47.395 42.3759 45.544C42.3759 43.7576 42.8524 42.3286 43.6568 41.3578C44.4612 40.387 45.5887 39.8474 47.0264 39.8474Z" fill="#232323"/>
</g>
<defs>
<filter id="filter0_f_4_5797" x="3.2625" y="3.19249" width="57.475" height="57.475" filterUnits="userSpaceOnUse" color-interpolation-filters="sRGB">
<feFlood flood-opacity="0" result="BackgroundImageFix"/>
<feBlend mode="normal" in="SourceGraphic" in2="BackgroundImageFix" result="shape"/>
<feGaussianBlur stdDeviation="0.61875" result="effect1_foregroundBlur_4_5797"/>
</filter>
<linearGradient id="paint0_linear_4_5797" x1="4.5" y1="31.93" x2="59.5" y2="31.93" gradientUnits="userSpaceOnUse">
<stop stop-color="#FDFC47"/>
<stop offset="1" stop-color="#24FE41"/>
</linearGradient>
<linearGradient id="paint1_linear_4_5797" x1="43.5" y1="29.5" x2="25.7072" y2="4.75567" gradientUnits="userSpaceOnUse">
<stop stop-color="#176F9E"/>
<stop offset="1" stop-color="#1EA5F0"/>
</linearGradient>
<linearGradient id="paint2_linear_4_5797" x1="68.531" y1="33.3111" x2="-1.83708" y2="47.5642" gradientUnits="userSpaceOnUse">
<stop stop-color="#0F87C8"/>
<stop offset="1" stop-color="#1EA5F0"/>
</linearGradient>
<linearGradient id="paint3_linear_4_5797" x1="67.6315" y1="43.3149" x2="6.97334" y2="61.2451" gradientUnits="userSpaceOnUse">
<stop stop-color="#0F87C8"/>
<stop offset="1" stop-color="#1EA5F0"/>
</linearGradient>
<linearGradient id="paint4_linear_4_5797" x1="15.5419" y1="52.9375" x2="13.5964" y2="49.8463" gradientUnits="userSpaceOnUse">
<stop/>
<stop offset="1" stop-opacity="0"/>
</linearGradient>
<linearGradient id="paint5_linear_4_5797" x1="32.3331" y1="60.7947" x2="61.7653" y2="31.3605" gradientUnits="userSpaceOnUse">
<stop stop-color="#0564D2"/>
<stop offset="1" stop-color="#0041A0"/>
</linearGradient>
<clipPath id="clip0_4_5797">
<rect width="64" height="64" fill="white"/>
</clipPath>
</defs>
</svg>
