<svg width="64" height="64" viewBox="0 0 64 64" fill="none" xmlns="http://www.w3.org/2000/svg">
<g clip-path="url(#clip0_4_5697)">
<g opacity="0.3" filter="url(#filter0_f_4_5697)">
<path d="M44.5 4.5H19.5C11.2157 4.5 4.5 11.2157 4.5 19.5V44.5C4.5 52.7843 11.2157 59.5 19.5 59.5H44.5C52.7843 59.5 59.5 52.7843 59.5 44.5V19.5C59.5 11.2157 52.7843 4.5 44.5 4.5Z" fill="#232323"/>
</g>
<path d="M44.5 4.5H19.5C11.2157 4.5 4.5 11.2157 4.5 19.5V44.5C4.5 52.7843 11.2157 59.5 19.5 59.5H44.5C52.7843 59.5 59.5 52.7843 59.5 44.5V19.5C59.5 11.2157 52.7843 4.5 44.5 4.5Z" fill="url(#paint0_linear_4_5697)"/>
<path opacity="0.15" d="M5 19.5C5 11.4661 11.4661 5 19.5 5H44.5C52.5339 5 59 11.4661 59 19.5V44.5C59 52.5339 52.5339 59 44.5 59H19.5C11.4661 59 5 52.5339 5 44.5V19.5Z" fill="#232323" stroke="#232323"/>
<path d="M47.2185 61.125C55.727 61.125 62.6245 54.2275 62.6245 45.719C62.6245 37.2105 55.727 30.313 47.2185 30.313C38.71 30.313 31.8125 37.2105 31.8125 45.719C31.8125 54.2275 38.71 61.125 47.2185 61.125Z" fill="url(#paint1_linear_4_5697)"/>
<path d="M37.7188 37.728H41.6869L43.3969 47.0893L45.5892 37.728H48.852L50.9823 47.177L52.8239 37.728H56.7188L53.35 53.71H49.3108L47.2371 45.0283L45.2822 53.71H41.1387L37.7188 37.728Z" fill="#232323"/>
</g>
<defs>
<filter id="filter0_f_4_5697" x="3.2625" y="3.2625" width="57.475" height="57.475" filterUnits="userSpaceOnUse" color-interpolation-filters="sRGB">
<feFlood flood-opacity="0" result="BackgroundImageFix"/>
<feBlend mode="normal" in="SourceGraphic" in2="BackgroundImageFix" result="shape"/>
<feGaussianBlur stdDeviation="0.61875" result="effect1_foregroundBlur_4_5697"/>
</filter>
<linearGradient id="paint0_linear_4_5697" x1="32.447" y1="4.4232" x2="32.447" y2="59.495" gradientUnits="userSpaceOnUse">
<stop stop-color="#5AB9FF"/>
<stop offset="0.24059" stop-color="#4691E6"/>
<stop offset="0.48137" stop-color="#376EC3"/>
<stop offset="0.7644" stop-color="#284B96"/>
<stop offset="1" stop-color="#27468E"/>
</linearGradient>
<linearGradient id="paint1_linear_4_5697" x1="32.3331" y1="60.7947" x2="61.7653" y2="31.3605" gradientUnits="userSpaceOnUse">
<stop stop-color="#2D5FAA"/>
<stop offset="1" stop-color="#5A87D2"/>
</linearGradient>
<clipPath id="clip0_4_5697">
<rect width="64" height="64" fill="white"/>
</clipPath>
</defs>
</svg>
