<svg width="64" height="64" viewBox="0 0 64 64" fill="none" xmlns="http://www.w3.org/2000/svg">
<g clip-path="url(#clip0_4_5655)">
<g opacity="0.3" filter="url(#filter0_f_4_5655)">
<path d="M44.5 4.5H19.5C11.2157 4.5 4.5 11.2157 4.5 19.5V44.5C4.5 52.7843 11.2157 59.5 19.5 59.5H44.5C52.7843 59.5 59.5 52.7843 59.5 44.5V19.5C59.5 11.2157 52.7843 4.5 44.5 4.5Z" fill="url(#paint0_linear_4_5655)"/>
</g>
<path d="M19.5 5H44.5C52.5081 5 59 11.4919 59 19.5V44.5C59 52.5081 52.5081 59 44.5 59H19.5C11.4919 59 5 52.5081 5 44.5V19.5C5 11.4919 11.4919 5 19.5 5Z" fill="#232323" stroke="url(#paint1_linear_4_5655)"/>
<path fill-rule="evenodd" clip-rule="evenodd" d="M12.8553 29.1177L14.5268 26.7981C14.5268 26.8154 14.4223 30.139 14.4223 30.139L14.8925 27.629C16.2854 30.4332 19.698 34.3107 22.8147 36.3879C23.1455 36.613 23.4241 36.8553 23.6157 37.0976C24.0161 37.2534 24.4166 37.34 24.817 37.4092C25.026 37.4438 25.2523 37.4611 25.4613 37.4785C25.6702 37.4958 25.8966 37.4958 26.1055 37.4958C26.3144 37.4958 26.5234 37.4785 26.7323 37.4611C26.9413 37.4438 27.1502 37.4092 27.3591 37.3746C27.5681 37.34 27.777 37.3054 27.9685 37.2361C28.1775 37.1842 28.369 37.1323 28.5779 37.063C28.7695 37.0111 28.9784 36.9245 29.1699 36.8553C29.3615 36.7687 29.553 36.6995 29.7445 36.5956C29.9361 36.4918 30.1276 36.4052 30.3017 36.3014C30.4932 36.2148 30.6673 36.0937 30.8589 35.9898C31.0504 35.8859 31.2245 35.7648 31.416 35.6609C31.6076 35.557 31.7817 35.4359 31.9558 35.332C32.1299 35.2108 32.3214 35.107 32.4955 34.9858C32.6697 34.8646 32.8612 34.7608 33.0527 34.6396L33.2268 34.5357L33.3139 34.5877L34.5675 35.4186L33.2965 35.0897C33.1746 35.2281 33.0527 35.3666 32.9134 35.5051C32.7567 35.6609 32.5826 35.8167 32.4259 35.9725C32.2518 36.111 32.0777 36.2667 31.8861 36.3879C31.6946 36.5264 31.5205 36.6476 31.3116 36.7687C30.9285 37.0111 30.5106 37.2188 30.0753 37.3919C29.8664 37.4785 29.6401 37.565 29.4311 37.6343C29.2048 37.7035 28.9958 37.7727 28.7695 37.8247C28.5431 37.8766 28.3168 37.9285 28.0904 37.9631C27.8641 37.9978 27.6377 38.0151 27.4114 38.0497C26.9587 38.067 26.4886 38.067 26.0359 37.9978C25.8095 37.9631 25.5832 37.9285 25.3568 37.8766C25.1305 37.8247 24.9215 37.7554 24.7126 37.6862C24.3469 37.5477 23.9813 37.3746 23.6505 37.1669C23.6505 37.1669 22.4491 37.34 22.9366 38.2401C23.4241 39.1402 24.1554 39.0537 23.8072 40.1096C23.5634 40.6808 23.2152 41.2348 22.8321 41.7541C22.0312 42.8273 20.7776 43.7793 20.8994 44.3506C26.593 51.3265 39.4254 50.3572 44.3006 44.1255C44.2309 43.2254 42.8032 42.7927 41.8107 40.5943C42.0893 40.6808 42.5072 40.802 42.5072 40.7847C42.5072 40.7674 41.3232 38.8633 41.271 38.6729L42.0371 38.7248C42.0371 38.7248 41.0272 37.4785 40.9924 37.3573L42.0197 37.2188C42.0197 37.2188 40.7312 35.7474 40.7138 35.6263L42.0197 35.834L40.5919 34.1203H41.271L40.47 32.9605C40.3308 32.9086 40.1915 32.874 40.0522 32.8393C39.8781 32.7874 39.7039 32.7355 39.5298 32.6836C37.5797 32.0777 35.7341 31.5238 33.9581 30.4159C31.4683 28.8753 29.2396 26.9885 27.5681 25.5172L24.2076 23.89C20.9865 23.6477 17.9569 23.7342 16.1113 24.0977L17.2953 22.0898L15.4844 24.2535C15.3626 24.2189 15.3277 24.1497 15.3277 24.1497L15.4496 21.4839L14.875 23.89C14.7009 23.8035 14.492 23.7689 14.2831 23.7689C13.4821 23.7689 12.8379 24.4093 12.8379 25.2056C12.8379 25.9326 13.3776 26.5385 14.0915 26.625L12.8553 29.1177Z" fill="url(#paint2_linear_4_5655)"/>
<path fill-rule="evenodd" clip-rule="evenodd" d="M14.8752 23.8554C14.7011 23.7862 14.4922 23.7343 14.3006 23.7343C13.4997 23.7343 12.8555 24.3747 12.8555 25.171C12.8555 25.8634 13.3604 26.4519 14.022 26.5904C14.0395 26.5904 14.0395 26.5904 14.0569 26.5904C14.4922 26.4519 15.3627 25.2922 15.2234 24.5651C15.1712 24.3055 15.0493 24.0631 14.8752 23.8554Z" fill="#FFCC86"/>
<path fill-rule="evenodd" clip-rule="evenodd" d="M27.5674 22.0032C27.3062 21.2935 27.3759 20.3761 27.7415 19.5106C28.2639 18.3162 29.2563 17.5199 30.1965 17.5199C30.3881 17.5199 30.5622 17.5545 30.7363 17.6238C31.2761 17.1391 31.9029 16.741 32.5993 16.464C36.4473 14.9407 42.0712 17.6584 43.5164 21.4147C44.2128 23.2322 44.0039 25.2229 43.4119 27.0405C42.9244 28.5291 41.1484 30.6756 41.81 32.3027C41.5489 32.2335 36.0468 30.5371 34.5146 29.5677C32.0596 28.0445 29.8483 26.175 28.1942 24.7209L28.142 24.669L22.5529 22.0378C22.4832 22.0032 22.4136 21.9686 22.3613 21.934C23.1623 21.934 26.2093 22.2975 27.5674 22.0032Z" fill="url(#paint3_linear_4_5655)"/>
<path d="M29.2215 22.6264C29.0648 22.6264 28.9255 22.5918 28.8211 22.5399C28.5425 22.4187 28.3335 22.1937 28.1943 21.8475C27.9505 21.2589 28.0201 20.4453 28.351 19.6837C28.7862 18.697 29.6046 18.0046 30.3533 18.0046C30.4926 18.0046 30.6319 18.0392 30.7712 18.0912C31.1368 18.2469 31.398 18.6105 31.485 19.1298C31.5895 19.6837 31.5025 20.3242 31.2239 20.93C30.7886 21.9167 29.9528 22.6264 29.2215 22.6264Z" fill="url(#paint4_linear_4_5655)"/>
<path d="M30.3356 18.2816C30.44 18.2816 30.5445 18.2989 30.649 18.3508C30.9276 18.472 31.1365 18.7836 31.2061 19.199C31.2932 19.701 31.2236 20.2895 30.9624 20.8435C30.5793 21.7263 29.8306 22.3668 29.2038 22.3668C29.0993 22.3668 28.9949 22.3494 28.9078 22.3148C28.6466 22.211 28.5073 21.9686 28.4377 21.7782C28.2288 21.2589 28.281 20.4973 28.577 19.8049C28.9775 18.922 29.7087 18.2816 30.3356 18.2816ZM30.3356 17.7623C29.4998 17.7623 28.577 18.5239 28.0895 19.6144C27.7238 20.428 27.6716 21.3108 27.9328 21.9859C28.0895 22.3841 28.3506 22.661 28.6815 22.8168C28.8382 22.8861 29.0123 22.9207 29.2038 22.9207C30.0396 22.9207 30.9624 22.159 31.4325 21.0685C31.7285 20.4107 31.8155 19.7183 31.7111 19.1125C31.6066 18.5066 31.2932 18.0738 30.8405 17.8834C30.7012 17.7969 30.5271 17.7623 30.3356 17.7623Z" fill="#1D2A3A"/>
</g>
<defs>
<filter id="filter0_f_4_5655" x="3.2625" y="3.2625" width="57.475" height="57.475" filterUnits="userSpaceOnUse" color-interpolation-filters="sRGB">
<feFlood flood-opacity="0" result="BackgroundImageFix"/>
<feBlend mode="normal" in="SourceGraphic" in2="BackgroundImageFix" result="shape"/>
<feGaussianBlur stdDeviation="0.61875" result="effect1_foregroundBlur_4_5655"/>
</filter>
<linearGradient id="paint0_linear_4_5655" x1="4.5" y1="32" x2="59.5" y2="32" gradientUnits="userSpaceOnUse">
<stop stop-color="#FDFC47"/>
<stop offset="1" stop-color="#24FE41"/>
</linearGradient>
<linearGradient id="paint1_linear_4_5655" x1="4.5" y1="32" x2="59.5" y2="32" gradientUnits="userSpaceOnUse">
<stop stop-color="#FDFC47"/>
<stop offset="1" stop-color="#24FE41"/>
</linearGradient>
<linearGradient id="paint2_linear_4_5655" x1="12.8379" y1="35.3425" x2="44.3006" y2="35.3425" gradientUnits="userSpaceOnUse">
<stop stop-color="#FDFC47"/>
<stop offset="1" stop-color="#24FE41"/>
</linearGradient>
<linearGradient id="paint3_linear_4_5655" x1="22.3613" y1="24.1678" x2="43.9544" y2="24.1678" gradientUnits="userSpaceOnUse">
<stop stop-color="#FDFC47"/>
<stop offset="1" stop-color="#24FE41"/>
</linearGradient>
<linearGradient id="paint4_linear_4_5655" x1="28.0488" y1="20.3155" x2="31.5278" y2="20.3155" gradientUnits="userSpaceOnUse">
<stop stop-color="#FDFC47"/>
<stop offset="1" stop-color="#24FE41"/>
</linearGradient>
<clipPath id="clip0_4_5655">
<rect width="64" height="64" fill="white"/>
</clipPath>
</defs>
</svg>
