<svg width="64" height="64" viewBox="0 0 64 64" fill="none" xmlns="http://www.w3.org/2000/svg">
<g clip-path="url(#clip0_4_5505)">
<g opacity="0.3" filter="url(#filter0_f_4_5505)">
<path d="M44.5 4.5H19.5C11.2157 4.5 4.5 11.2157 4.5 19.5V44.5C4.5 52.7843 11.2157 59.5 19.5 59.5H44.5C52.7843 59.5 59.5 52.7843 59.5 44.5V19.5C59.5 11.2157 52.7843 4.5 44.5 4.5Z" fill="url(#paint0_linear_4_5505)"/>
</g>
<path d="M19.5 5H44.5C52.5081 5 59 11.4919 59 19.5V44.5C59 52.5081 52.5081 59 44.5 59H19.5C11.4919 59 5 52.5081 5 44.5V19.5C5 11.4919 11.4919 5 19.5 5Z" fill="#232323" stroke="url(#paint1_linear_4_5505)"/>
<path d="M32.0013 35.5882C33.4452 35.5882 34.6158 34.4177 34.6158 32.9737C34.6158 31.5297 33.4452 30.3591 32.0013 30.3591C30.5573 30.3591 29.3867 31.5297 29.3867 32.9737C29.3867 34.4177 30.5573 35.5882 32.0013 35.5882Z" fill="white" fill-opacity="0.846774"/>
<path d="M28.7317 40.1637C25.9864 38.9872 24.1562 36.2419 24.1562 32.9737C24.1562 28.6597 27.6859 25.13 31.9999 25.13C36.3139 25.13 39.8436 28.6597 39.8436 32.9737C39.8436 36.1111 38.0134 38.7257 35.3988 40.033" stroke="url(#paint2_linear_4_5505)" stroke-width="2.61455" stroke-miterlimit="10"/>
<path d="M26.1184 46.0464C21.1507 43.8241 17.6211 38.8564 17.6211 32.9737C17.6211 24.9993 24.0267 18.5937 32.0011 18.5937C39.9755 18.5937 46.3812 24.9993 46.3812 32.9737C46.3812 38.595 43.113 43.5626 38.276 45.9157" stroke="url(#paint3_linear_4_5505)" stroke-width="2.61455" stroke-miterlimit="10"/>
<path d="M23.3724 52.0599C16.1824 48.7917 11.084 41.471 11.084 32.9737C11.084 21.4697 20.4964 12.0573 32.0004 12.0573C43.5044 12.0573 52.9168 21.4697 52.9168 32.9737C52.9168 41.2095 48.0799 48.3995 41.1513 51.7985" stroke="url(#paint4_linear_4_5505)" stroke-width="2.61455" stroke-miterlimit="10"/>
</g>
<defs>
<filter id="filter0_f_4_5505" x="3.2625" y="3.2625" width="57.475" height="57.475" filterUnits="userSpaceOnUse" color-interpolation-filters="sRGB">
<feFlood flood-opacity="0" result="BackgroundImageFix"/>
<feBlend mode="normal" in="SourceGraphic" in2="BackgroundImageFix" result="shape"/>
<feGaussianBlur stdDeviation="0.61875" result="effect1_foregroundBlur_4_5505"/>
</filter>
<linearGradient id="paint0_linear_4_5505" x1="4.5" y1="32" x2="59.5" y2="32" gradientUnits="userSpaceOnUse">
<stop stop-color="#FDFC47"/>
<stop offset="1" stop-color="#24FE41"/>
</linearGradient>
<linearGradient id="paint1_linear_4_5505" x1="4.5" y1="32" x2="59.5" y2="32" gradientUnits="userSpaceOnUse">
<stop stop-color="#FDFC47"/>
<stop offset="1" stop-color="#24FE41"/>
</linearGradient>
<linearGradient id="paint2_linear_4_5505" x1="24.1562" y1="32.6469" x2="39.8436" y2="32.6469" gradientUnits="userSpaceOnUse">
<stop stop-color="#FDFC47"/>
<stop offset="1" stop-color="#24FE41"/>
</linearGradient>
<linearGradient id="paint3_linear_4_5505" x1="17.6211" y1="32.3201" x2="46.3812" y2="32.3201" gradientUnits="userSpaceOnUse">
<stop stop-color="#FDFC47"/>
<stop offset="1" stop-color="#24FE41"/>
</linearGradient>
<linearGradient id="paint4_linear_4_5505" x1="11.084" y1="32.0586" x2="52.9168" y2="32.0586" gradientUnits="userSpaceOnUse">
<stop stop-color="#FDFC47"/>
<stop offset="1" stop-color="#24FE41"/>
</linearGradient>
<clipPath id="clip0_4_5505">
<rect width="64" height="64" fill="white"/>
</clipPath>
</defs>
</svg>
