<svg width="64" height="64" viewBox="0 0 64 64" fill="none" xmlns="http://www.w3.org/2000/svg">
<g clip-path="url(#clip0_4_5469)">
<g opacity="0.3" filter="url(#filter0_f_4_5469)">
<path d="M44.5 4.5H19.5C11.2157 4.5 4.5 11.2157 4.5 19.5V44.5C4.5 52.7843 11.2157 59.5 19.5 59.5H44.5C52.7843 59.5 59.5 52.7843 59.5 44.5V19.5C59.5 11.2157 52.7843 4.5 44.5 4.5Z" fill="url(#paint0_linear_4_5469)"/>
</g>
<path d="M5 19.5C5 11.4661 11.4661 5 19.5 5H44.5C52.5339 5 59 11.4661 59 19.5V44.5C59 52.5339 52.5339 59 44.5 59H19.5C11.4661 59 5 52.5339 5 44.5V19.5Z" fill="#232323" stroke="url(#paint1_linear_4_5469)"/>
<path d="M31.8711 11.1309C26.3587 11.165 21.0836 13.3788 17.1978 17.2888C13.3119 21.1988 11.1309 26.4875 11.1309 32C11.131 37.5348 13.3297 42.8429 17.2434 46.7566C21.1571 50.6703 26.4652 52.869 32 52.8691C37.5348 52.869 42.8429 50.6703 46.7566 46.7566C50.6703 42.8429 52.869 37.5348 52.8691 32C52.869 26.4652 50.6703 21.1571 46.7566 17.2434C42.8429 13.3297 37.5348 11.131 32 11.1309C31.957 11.1307 31.9141 11.1307 31.8711 11.1309ZM31.0508 19.4785H31.0625L31.4492 19.4902C32.1093 19.4616 32.5294 19.9871 32.7441 20.4824L32.8125 20.6582C32.8683 20.8198 32.8873 20.88 32.916 21.0879C33.125 22.6041 32.3359 27.0879 32.3359 27.0879C32.2983 27.2553 32.2565 27.4189 32.209 27.6055C32.938 29.6032 34.1082 31.4216 35.5098 32.7305C36.0309 33.2174 36.6958 33.6206 37.3398 33.9922C38.7781 33.7909 40.1451 33.6899 41.2812 33.7031C42.9596 33.7252 44.0613 33.9846 44.5586 34.4746V34.4766C44.7356 34.6495 44.8994 34.9026 44.9258 35.1074C45.0141 35.7977 44.9482 36.4715 44.623 36.9609C44.4578 37.2097 44.1867 37.3935 43.8652 37.4785C43.6567 37.5336 43.3992 37.5625 43.1016 37.5625C41.4252 37.5625 38.7708 36.7179 36.6113 35.502C33.7777 35.9258 30.5429 36.6927 27.7031 37.6172C25.2435 41.9096 23.4578 43.8262 21.9199 43.8262C21.6329 43.8262 21.3535 43.7581 21.0879 43.625L20.4746 43.3184C20.0904 43.0987 20.0357 42.6245 20.1113 42.2539C20.3487 41.0925 21.7782 39.6272 23.9375 38.3379C24.192 38.1839 25.278 37.6103 25.3242 37.5859L25.957 37.252C26.5703 36.2027 27.2466 34.963 27.9922 33.5039L28.084 33.3242C28.7927 31.936 29.5973 30.3613 30.2383 28.7988L30.4668 28.2422C29.5716 24.8224 29.0779 22.1829 29.5566 20.418C29.7141 19.8552 30.3147 19.4785 31.0508 19.4785ZM31.3105 20.2715C31.0836 20.2715 31.1035 22.041 31.1035 22.041C31.1035 22.9667 31.2388 24.3811 31.5195 25.2793C31.8585 24.6726 32.1327 23.8538 32.1094 22.6856C32.086 21.5173 31.8049 20.2715 31.3105 20.2715ZM31.3555 30.1738C30.9357 31.2593 30.371 32.5817 29.4785 34.2695C29.1124 34.959 28.7545 35.6082 28.4102 36.2246C30.3016 35.4976 32.4499 34.9 34.9355 34.4082C34.7659 34.2788 34.6036 34.1485 34.4512 34.0195C33.2289 32.9849 32.1904 31.6928 31.3555 30.1738ZM41.2852 35.0859C40.7918 35.0859 40.2425 35.1079 39.6426 35.1524C41.2041 35.8218 42.3185 36.2344 43.2188 36.2344C43.4977 36.2344 43.9306 36.1787 44.082 36.084C44.2334 35.9893 44.2228 35.5319 43.3398 35.3066C42.4569 35.0809 42.1881 35.0859 41.2852 35.0859ZM25.2109 38.4883C24.9782 38.7095 24.7243 38.9476 24.6211 39.0313C22.9797 40.3764 21.8683 41.8914 21.5879 42.6582C22.3441 42.316 23.4945 41.2259 25.2109 38.4883Z" fill="url(#paint2_linear_4_5469)"/>
</g>
<defs>
<filter id="filter0_f_4_5469" x="3.2625" y="3.2625" width="57.475" height="57.475" filterUnits="userSpaceOnUse" color-interpolation-filters="sRGB">
<feFlood flood-opacity="0" result="BackgroundImageFix"/>
<feBlend mode="normal" in="SourceGraphic" in2="BackgroundImageFix" result="shape"/>
<feGaussianBlur stdDeviation="0.61875" result="effect1_foregroundBlur_4_5469"/>
</filter>
<linearGradient id="paint0_linear_4_5469" x1="4.5" y1="32" x2="59.5" y2="32" gradientUnits="userSpaceOnUse">
<stop stop-color="#FDFC47"/>
<stop offset="1" stop-color="#24FE41"/>
</linearGradient>
<linearGradient id="paint1_linear_4_5469" x1="4.5" y1="32" x2="59.5" y2="32" gradientUnits="userSpaceOnUse">
<stop stop-color="#FDFC47"/>
<stop offset="1" stop-color="#24FE41"/>
</linearGradient>
<linearGradient id="paint2_linear_4_5469" x1="11.1309" y1="32" x2="52.8691" y2="32" gradientUnits="userSpaceOnUse">
<stop stop-color="#FDFC47"/>
<stop offset="1" stop-color="#24FE41"/>
</linearGradient>
<clipPath id="clip0_4_5469">
<rect width="64" height="64" fill="white"/>
</clipPath>
</defs>
</svg>
