<svg width="64" height="64" viewBox="0 0 64 64" fill="none" xmlns="http://www.w3.org/2000/svg">
<g clip-path="url(#clip0_4_5344)">
<g opacity="0.3" filter="url(#filter0_f_4_5344)">
<path d="M44.5 4.5H19.5C11.2157 4.5 4.5 11.2157 4.5 19.5V44.5C4.5 52.7843 11.2157 59.5 19.5 59.5H44.5C52.7843 59.5 59.5 52.7843 59.5 44.5V19.5C59.5 11.2157 52.7843 4.5 44.5 4.5Z" fill="url(#paint0_linear_4_5344)"/>
</g>
<path d="M19.5 5H44.5C52.5081 5 59 11.4919 59 19.5V44.5C59 52.5081 52.5081 59 44.5 59H19.5C11.4919 59 5 52.5081 5 44.5V19.5C5 11.4919 11.4919 5 19.5 5Z" fill="#232323" stroke="url(#paint1_linear_4_5344)"/>
<path d="M35.4944 33.1547C35.4793 33.9536 35.1477 34.7138 34.5724 35.2684C33.9971 35.8229 33.2253 36.1265 32.4263 36.1123C30.5475 36.1123 29.513 34.4633 29.345 32.938C29.0267 30.0203 30.6094 28.4331 31.9887 27.6198C32.5501 27.2883 33.169 27.0318 33.8101 26.8417C33.8101 26.8417 35.3043 31.4127 35.4193 32.1203C35.5475 32.9028 35.49 33.1548 35.49 33.1548M42.8198 23.9904C41.0777 22.9451 39.0987 22.3594 37.0684 22.2884L36.5997 20.6482L36.6175 20.6671L36.5644 20.5212L36.4318 20.0349C36.1135 18.6291 36.6882 17.9615 36.9844 17.7228L37.1436 17.6124C38.5052 16.7415 40.4327 18.1341 40.5433 18.2181C41.4009 19.0138 42.9703 19.2127 43.8147 18.395C44.6724 17.5727 44.469 16.0298 43.6158 15.2075C42.2851 13.9254 38.1913 11.8653 34.7122 14.1023C31.5866 16.1094 31.5203 18.9341 32.0375 20.5658L32.6609 22.7762C31.6232 23.0604 30.6274 23.4795 29.6989 24.0229C26.2727 26.0432 24.5575 29.4606 24.9861 33.3774C25.4282 37.405 28.5538 40.3315 32.4221 40.3315C36.5335 40.3315 39.8759 37.1131 39.8759 33.1563C39.8184 32.2147 39.8316 32.2235 39.699 31.3791C39.5664 30.5568 38.3064 26.6841 38.3064 26.6841C39.0845 26.861 39.8095 27.1394 40.4329 27.5284C47.4973 31.9494 44.5575 38.992 44.4249 39.297C42.4797 43.7932 38.2358 46.4809 32.7844 46.6623C31.0285 46.7236 29.2778 46.4372 27.6329 45.8196C25.9881 45.202 24.4815 44.2654 23.1998 43.0637C21.8338 41.7995 20.742 40.2682 19.9922 38.5647C19.2424 36.8612 18.8505 35.0219 18.8407 33.1607C18.8407 27.5594 22.4924 22.4754 27.9345 20.5127C29.0706 20.1016 29.9813 18.9344 29.358 17.5816C28.8628 16.5206 27.5277 16.1492 26.396 16.5648C19.2518 19.1422 14.4551 25.8135 14.4551 33.1565C14.4551 38.0152 16.5329 42.7321 20.1581 46.1009C21.8691 47.7007 23.8795 48.9465 26.0737 49.7667C28.2678 50.5868 30.6025 50.9651 32.9434 50.8798C40.0789 50.6409 45.8832 46.9188 48.4696 40.9417C50.0832 37.3122 50.9851 29.0938 42.824 23.9921" fill="url(#paint2_linear_4_5344)"/>
</g>
<defs>
<filter id="filter0_f_4_5344" x="3.2625" y="3.2625" width="57.475" height="57.475" filterUnits="userSpaceOnUse" color-interpolation-filters="sRGB">
<feFlood flood-opacity="0" result="BackgroundImageFix"/>
<feBlend mode="normal" in="SourceGraphic" in2="BackgroundImageFix" result="shape"/>
<feGaussianBlur stdDeviation="0.61875" result="effect1_foregroundBlur_4_5344"/>
</filter>
<linearGradient id="paint0_linear_4_5344" x1="4.5" y1="32" x2="59.5" y2="32" gradientUnits="userSpaceOnUse">
<stop stop-color="#FDFC47"/>
<stop offset="1" stop-color="#24FE41"/>
</linearGradient>
<linearGradient id="paint1_linear_4_5344" x1="4.5" y1="32" x2="59.5" y2="32" gradientUnits="userSpaceOnUse">
<stop stop-color="#FDFC47"/>
<stop offset="1" stop-color="#24FE41"/>
</linearGradient>
<linearGradient id="paint2_linear_4_5344" x1="14.4551" y1="32.0001" x2="49.546" y2="32.0001" gradientUnits="userSpaceOnUse">
<stop stop-color="#FDFC47"/>
<stop offset="1" stop-color="#24FE41"/>
</linearGradient>
<clipPath id="clip0_4_5344">
<rect width="64" height="64" fill="white"/>
</clipPath>
</defs>
</svg>
