<svg width="64" height="64" viewBox="0 0 64 64" fill="none" xmlns="http://www.w3.org/2000/svg">
<g clip-path="url(#clip0_4_5325)">
<g opacity="0.3" filter="url(#filter0_f_4_5325)">
<path d="M44.5 4.5H19.5C11.2157 4.5 4.5 11.2157 4.5 19.5V44.5C4.5 52.7843 11.2157 59.5 19.5 59.5H44.5C52.7843 59.5 59.5 52.7843 59.5 44.5V19.5C59.5 11.2157 52.7843 4.5 44.5 4.5Z" fill="url(#paint0_linear_4_5325)"/>
</g>
<path d="M5 19.5C5 11.4661 11.4661 5 19.5 5H44.5C52.5339 5 59 11.4661 59 19.5V44.5C59 52.5339 52.5339 59 44.5 59H19.5C11.4661 59 5 52.5339 5 44.5V19.5Z" fill="#232323" stroke="url(#paint1_linear_4_5325)"/>
<path d="M21.0859 12.0288L21.2218 51.8919L28.7914 51.3159L28.8439 12.0864L21.0859 12.0288Z" fill="url(#paint2_linear_4_5325)"/>
<path d="M35.29 12.2049L34.9609 51.3982L42.979 52L43.0078 12.3201" fill="url(#paint3_linear_4_5325)"/>
<path d="M21.0859 12.0288L21.2218 51.8919L28.7914 51.3159L28.8439 12.0864L21.0859 12.0288Z" fill="url(#paint4_linear_4_5325)"/>
<path d="M42.979 52L43.0078 12.3201L35.29 12.2049L34.9609 51.3982L42.979 52Z" fill="url(#paint5_linear_4_5325)"/>
<path d="M20.9922 12L34.9616 51.3982L42.9797 52L28.8431 12.0864L20.9922 12Z" fill="url(#paint6_linear_4_5325)"/>
</g>
<defs>
<filter id="filter0_f_4_5325" x="3.2625" y="3.2625" width="57.475" height="57.475" filterUnits="userSpaceOnUse" color-interpolation-filters="sRGB">
<feFlood flood-opacity="0" result="BackgroundImageFix"/>
<feBlend mode="normal" in="SourceGraphic" in2="BackgroundImageFix" result="shape"/>
<feGaussianBlur stdDeviation="0.61875" result="effect1_foregroundBlur_4_5325"/>
</filter>
<linearGradient id="paint0_linear_4_5325" x1="4.5" y1="32" x2="59.5" y2="32" gradientUnits="userSpaceOnUse">
<stop stop-color="#FDFC47"/>
<stop offset="1" stop-color="#24FE41"/>
</linearGradient>
<linearGradient id="paint1_linear_4_5325" x1="4.5" y1="32" x2="59.5" y2="32" gradientUnits="userSpaceOnUse">
<stop stop-color="#FDFC47"/>
<stop offset="1" stop-color="#24FE41"/>
</linearGradient>
<linearGradient id="paint2_linear_4_5325" x1="21.0859" y1="31.9603" x2="28.8439" y2="31.9603" gradientUnits="userSpaceOnUse">
<stop stop-color="#FDFC47"/>
<stop offset="1" stop-color="#24FE41"/>
</linearGradient>
<linearGradient id="paint3_linear_4_5325" x1="34.9609" y1="32.1024" x2="43.0078" y2="32.1024" gradientUnits="userSpaceOnUse">
<stop stop-color="#FDFC47"/>
<stop offset="1" stop-color="#24FE41"/>
</linearGradient>
<linearGradient id="paint4_linear_4_5325" x1="21.0859" y1="31.9603" x2="28.8439" y2="31.9603" gradientUnits="userSpaceOnUse">
<stop stop-color="#FDFC47"/>
<stop offset="1" stop-color="#24FE41"/>
</linearGradient>
<linearGradient id="paint5_linear_4_5325" x1="34.9609" y1="32.1024" x2="43.0078" y2="32.1024" gradientUnits="userSpaceOnUse">
<stop stop-color="#FDFC47"/>
<stop offset="1" stop-color="#24FE41"/>
</linearGradient>
<linearGradient id="paint6_linear_4_5325" x1="20.9922" y1="32" x2="42.9797" y2="32" gradientUnits="userSpaceOnUse">
<stop stop-color="#FDFC47"/>
<stop offset="1" stop-color="#24FE41"/>
</linearGradient>
<clipPath id="clip0_4_5325">
<rect width="64" height="64" fill="white"/>
</clipPath>
</defs>
</svg>
