<svg width="64" height="64" viewBox="0 0 64 64" fill="none" xmlns="http://www.w3.org/2000/svg">
<g clip-path="url(#clip0_4_5299)">
<g opacity="0.3" filter="url(#filter0_f_4_5299)">
<path d="M44.5 4.5H19.5C11.2157 4.5 4.5 11.2157 4.5 19.5V44.5C4.5 52.7843 11.2157 59.5 19.5 59.5H44.5C52.7843 59.5 59.5 52.7843 59.5 44.5V19.5C59.5 11.2157 52.7843 4.5 44.5 4.5Z" fill="url(#paint0_linear_4_5299)"/>
</g>
<path d="M19.5 5H44.5C52.5081 5 59 11.4919 59 19.5V44.5C59 52.5081 52.5081 59 44.5 59H19.5C11.4919 59 5 52.5081 5 44.5V19.5C5 11.4919 11.4919 5 19.5 5Z" fill="#232323" stroke="url(#paint1_linear_4_5299)"/>
<g filter="url(#filter1_f_4_5299)">
<path d="M32.0031 48.1518C41.2167 48.1518 48.6859 40.6826 48.6859 31.469C48.6859 22.2553 41.2167 14.7862 32.0031 14.7862C22.7894 14.7862 15.3203 22.2553 15.3203 31.469C15.3203 40.6826 22.7894 48.1518 32.0031 48.1518Z" fill="url(#paint2_linear_4_5299)"/>
</g>
<path opacity="0.55" d="M48.4082 28.6562C48.1875 29.0605 47.949 29.4684 47.6934 29.8789C47.3701 30.3907 47.0207 30.9057 46.6465 31.4218C46.2719 31.9376 45.8729 32.4539 45.4512 32.9687C45.0297 33.4844 44.5857 33.9981 44.1211 34.5078C43.6569 35.0169 43.1725 35.5214 42.67 36.0195C42.1667 36.5175 41.6459 37.0083 41.1094 37.4902C40.5736 37.9723 40.0228 38.4449 39.459 38.9062C39.0593 39.2327 38.6535 39.5532 38.2422 39.8672C37.6618 40.3109 37.0712 40.7411 36.4727 41.1562C35.8737 41.5715 35.2675 41.9711 34.6562 42.3535C34.0451 42.7355 33.4297 43.0999 32.8125 43.4453C32.1956 43.7906 31.5777 44.1166 30.9609 44.4219C30.3443 44.7277 29.7296 45.0126 29.1191 45.2754C28.5079 45.5384 27.9017 45.7789 27.3027 45.9961C26.795 46.1774 26.2933 46.3416 25.7988 46.4883C27.7431 47.2589 29.8149 47.6571 31.9063 47.6621C36.3308 47.6618 40.5739 45.9039 43.7023 42.7752C46.8307 39.6464 48.5881 35.4031 48.5879 30.9786C48.5822 30.2012 48.5221 29.4251 48.4082 28.6562Z" fill="url(#paint3_linear_4_5299)"/>
<g opacity="0.25" filter="url(#filter2_f_4_5299)">
<path d="M33.3638 16.3813C29.2442 16.3811 25.2933 18.0411 22.3802 20.9961C19.4671 23.9512 17.8304 27.9592 17.8301 32.1384C17.8363 33.3396 17.9778 34.5361 18.252 35.7046C18.8219 38.1879 19.9773 40.4938 21.6189 42.4244C23.2606 44.355 25.3395 45.8527 27.6772 46.7888C28.1376 46.6503 28.6048 46.4952 29.0775 46.3239C29.6351 46.1187 30.1996 45.8915 30.7687 45.6432C31.3371 45.3949 31.9094 45.1258 32.4836 44.837C33.0578 44.5486 33.6332 44.2407 34.2075 43.9145C34.7822 43.5882 35.3551 43.244 35.9242 42.8832C36.4933 42.5219 37.0577 42.1445 37.6154 41.7523C38.1727 41.3602 38.7226 40.9538 39.263 40.5347C39.6459 40.2381 40.0238 39.9353 40.3959 39.627C40.9209 39.1912 41.4337 38.7448 41.9326 38.2894C42.4321 37.8343 42.917 37.3706 43.3856 36.9002C43.8535 36.4298 44.3045 35.9532 44.7368 35.4723C45.1693 34.9908 45.5827 34.5056 45.9752 34.0185C46.3678 33.5322 46.7393 33.0445 47.0881 32.5574C47.4365 32.0698 47.7618 31.5834 48.0628 31.0999C48.3008 30.7122 48.5229 30.3269 48.7284 29.945C48.4077 27.6441 47.5895 25.4437 46.3322 23.5013C45.075 21.5589 43.4099 19.9227 41.4561 18.7098C39.021 17.1934 36.221 16.3875 33.3638 16.3813Z" fill="url(#paint4_linear_4_5299)"/>
</g>
<path d="M31.9062 14.2967C27.4817 14.2965 23.2384 16.0539 20.1096 19.1823C16.9808 22.3107 15.223 26.5539 15.2227 30.9784C15.2293 32.25 15.3813 33.5167 15.6758 34.7538C16.2879 37.3828 17.5288 39.824 19.292 41.8678C21.0551 43.9117 23.2879 45.4972 25.7987 46.4883C26.2932 46.3416 26.7949 46.1774 27.3026 45.9961C27.9015 45.7789 28.5078 45.5384 29.119 45.2754C29.7295 45.0126 30.3442 44.7278 30.9608 44.4219C31.5776 44.1166 32.1955 43.7907 32.8124 43.4454C33.4296 43.1 34.0449 42.7356 34.6561 42.3535C35.2673 41.9711 35.8736 41.5715 36.4725 41.1563C37.0711 40.7411 37.6617 40.3109 38.2421 39.8672C38.6533 39.5532 39.0592 39.2327 39.4589 38.9063C40.0226 38.445 40.5735 37.9724 41.1093 37.4903C41.6458 37.0084 42.1666 36.5175 42.6698 36.0195C43.1724 35.5215 43.6567 35.0169 44.121 34.5078C44.5856 33.9981 45.0295 33.4844 45.4511 32.9688C45.8728 32.4539 46.2717 31.9376 46.6464 31.4219C47.0206 30.9057 47.37 30.3907 47.6933 29.8789C47.9489 29.4685 48.1874 29.0606 48.4081 28.6562C48.0637 26.2204 47.1849 23.8909 45.8346 21.8345C44.4843 19.7782 42.6959 18.0459 40.5975 16.7618C37.9822 15.1564 34.9749 14.3033 31.9062 14.2967Z" fill="url(#paint5_linear_4_5299)"/>
<path opacity="0.55" d="M48.3749 28.6543C49.5276 26.5801 50.2032 24.6202 50.3598 22.8963C50.5163 21.1724 50.1505 19.7212 49.285 18.6327C47.7126 16.6794 44.6048 16.0129 40.5605 16.7616C40.8079 16.905 41.0514 17.0548 41.291 17.2108C41.7503 17.5244 42.1935 17.8607 42.6191 18.2186C43.0447 18.5769 43.4522 18.9563 43.8398 19.3553C44.2271 19.7547 44.594 20.1732 44.9394 20.6093C45.2854 21.0446 45.6094 21.497 45.9102 21.9647C46.2108 22.433 46.4879 22.916 46.7402 23.412C46.9927 23.9075 47.2202 24.4153 47.4219 24.9335C47.6233 25.4518 47.7986 25.9798 47.9473 26.5155C48.0961 27.0514 48.218 27.5944 48.3125 28.1425C48.336 28.3127 48.3567 28.4834 48.3749 28.6543Z" fill="url(#paint6_linear_4_5299)"/>
<path opacity="0.55" d="M15.7433 34.7538C14.4747 36.9195 13.7129 38.9754 13.5088 40.7843C13.3047 42.5932 13.663 44.1136 14.5597 45.2441C15.5008 46.4174 17.0035 47.1377 18.9589 47.3529C20.9143 47.5681 23.2737 47.2727 25.8664 46.4882C25.7356 46.4423 25.6054 46.3948 25.4758 46.3457C24.9633 46.1287 24.462 45.8862 23.9738 45.6191C23.4863 45.3526 23.0124 45.0619 22.5539 44.748C22.0946 44.4338 21.6513 44.0968 21.2257 43.7383C20.8001 43.38 20.3927 43.0006 20.005 42.6016C19.6179 42.2028 19.2509 41.785 18.9054 41.3496C18.5594 40.9136 18.2355 40.4606 17.9347 39.9922C17.6341 39.5245 17.3571 39.0422 17.1047 38.5469C16.8522 38.0507 16.6247 37.5423 16.423 37.0234C16.2216 36.5052 16.0463 35.9772 15.8976 35.4414C15.8413 35.2133 15.7899 34.984 15.7433 34.7538Z" fill="url(#paint7_linear_4_5299)"/>
</g>
<defs>
<filter id="filter0_f_4_5299" x="3.2625" y="3.2625" width="57.475" height="57.475" filterUnits="userSpaceOnUse" color-interpolation-filters="sRGB">
<feFlood flood-opacity="0" result="BackgroundImageFix"/>
<feBlend mode="normal" in="SourceGraphic" in2="BackgroundImageFix" result="shape"/>
<feGaussianBlur stdDeviation="0.61875" result="effect1_foregroundBlur_4_5299"/>
</filter>
<filter id="filter1_f_4_5299" x="12.9847" y="12.4506" width="38.0365" height="38.0368" filterUnits="userSpaceOnUse" color-interpolation-filters="sRGB">
<feFlood flood-opacity="0" result="BackgroundImageFix"/>
<feBlend mode="normal" in="SourceGraphic" in2="BackgroundImageFix" result="shape"/>
<feGaussianBlur stdDeviation="1.1678" result="effect1_foregroundBlur_4_5299"/>
</filter>
<filter id="filter2_f_4_5299" x="16.2974" y="14.8486" width="33.9637" height="33.4728" filterUnits="userSpaceOnUse" color-interpolation-filters="sRGB">
<feFlood flood-opacity="0" result="BackgroundImageFix"/>
<feBlend mode="normal" in="SourceGraphic" in2="BackgroundImageFix" result="shape"/>
<feGaussianBlur stdDeviation="0.766322" result="effect1_foregroundBlur_4_5299"/>
</filter>
<linearGradient id="paint0_linear_4_5299" x1="4.5" y1="32" x2="59.5" y2="32" gradientUnits="userSpaceOnUse">
<stop stop-color="#FDFC47"/>
<stop offset="1" stop-color="#24FE41"/>
</linearGradient>
<linearGradient id="paint1_linear_4_5299" x1="4.5" y1="32" x2="59.5" y2="32" gradientUnits="userSpaceOnUse">
<stop stop-color="#FDFC47"/>
<stop offset="1" stop-color="#24FE41"/>
</linearGradient>
<linearGradient id="paint2_linear_4_5299" x1="15.3203" y1="31.469" x2="48.6859" y2="31.469" gradientUnits="userSpaceOnUse">
<stop stop-color="#FDFC47"/>
<stop offset="1" stop-color="#24FE41"/>
</linearGradient>
<linearGradient id="paint3_linear_4_5299" x1="25.7988" y1="38.1591" x2="48.5879" y2="38.1591" gradientUnits="userSpaceOnUse">
<stop stop-color="#FDFC47"/>
<stop offset="1" stop-color="#24FE41"/>
</linearGradient>
<linearGradient id="paint4_linear_4_5299" x1="17.8301" y1="31.5851" x2="48.7284" y2="31.5851" gradientUnits="userSpaceOnUse">
<stop stop-color="#FDFC47"/>
<stop offset="1" stop-color="#24FE41"/>
</linearGradient>
<linearGradient id="paint5_linear_4_5299" x1="15.2227" y1="30.3925" x2="48.4081" y2="30.3925" gradientUnits="userSpaceOnUse">
<stop stop-color="#FDFC47"/>
<stop offset="1" stop-color="#24FE41"/>
</linearGradient>
<linearGradient id="paint6_linear_4_5299" x1="40.5605" y1="22.5582" x2="50.395" y2="22.5582" gradientUnits="userSpaceOnUse">
<stop stop-color="#FDFC47"/>
<stop offset="1" stop-color="#24FE41"/>
</linearGradient>
<linearGradient id="paint7_linear_4_5299" x1="13.4531" y1="41.0875" x2="25.8664" y2="41.0875" gradientUnits="userSpaceOnUse">
<stop stop-color="#FDFC47"/>
<stop offset="1" stop-color="#24FE41"/>
</linearGradient>
<clipPath id="clip0_4_5299">
<rect width="64" height="64" fill="white"/>
</clipPath>
</defs>
</svg>
