<svg width="64" height="64" viewBox="0 0 64 64" fill="none" xmlns="http://www.w3.org/2000/svg">
<g opacity="0.3" filter="url(#filter0_f_4_5251)">
<path d="M44.7812 4.59384H19.7812C11.497 4.59384 4.78125 11.3096 4.78125 19.5938V44.5938C4.78125 52.8781 11.497 59.5938 19.7812 59.5938H44.7812C53.0655 59.5938 59.7812 52.8781 59.7812 44.5938V19.5938C59.7812 11.3096 53.0655 4.59384 44.7812 4.59384Z" fill="#232323"/>
<path d="M19.7812 5.09384H44.7812C52.7894 5.09384 59.2812 11.5857 59.2812 19.5938V44.5938C59.2812 52.602 52.7894 59.0938 44.7812 59.0938H19.7812C11.7731 59.0938 5.28125 52.602 5.28125 44.5938V19.5938C5.28125 11.5857 11.7731 5.09384 19.7812 5.09384Z" stroke="url(#paint0_linear_4_5251)"/>
</g>
<path d="M19.7812 5.09384H44.7812C52.7894 5.09384 59.2812 11.5857 59.2812 19.5938V44.5938C59.2812 52.602 52.7894 59.0938 44.7812 59.0938H19.7812C11.7731 59.0938 5.28125 52.602 5.28125 44.5938V19.5938C5.28125 11.5857 11.7731 5.09384 19.7812 5.09384Z" fill="#232323" stroke="url(#paint1_linear_4_5251)"/>
<path d="M49.153 11.2384C49.1864 11.7997 49.052 12.3582 48.767 12.8429C48.482 13.3275 48.0592 13.7164 47.5524 13.96C47.0457 14.2036 46.4779 14.2909 45.9214 14.2108C45.3649 14.1306 44.8448 13.8867 44.4273 13.5101C44.0099 13.1334 43.714 12.6411 43.5772 12.0957C43.4405 11.5503 43.4691 10.9766 43.6595 10.4475C43.8499 9.9185 44.1934 9.45808 44.6463 9.12488C45.0992 8.79169 45.641 8.6008 46.2027 8.57652C46.5712 8.55619 46.94 8.60888 47.2879 8.73158C47.6359 8.85428 47.9562 9.04455 48.2304 9.29147C48.5045 9.53839 48.7272 9.83707 48.8855 10.1703C49.0439 10.5036 49.1348 10.8649 49.153 11.2334V11.2384Z" fill="url(#paint2_linear_4_5251)"/>
<path d="M32.629 43.9643C25.1075 43.9643 18.498 41.2655 15.0801 37.2794C16.4063 40.8653 18.7991 43.9589 21.9366 46.1437C25.0742 48.3286 28.8057 49.4998 32.629 49.4998C36.4523 49.4998 40.1838 48.3286 43.3213 46.1437C46.4588 43.9589 48.8517 40.8653 50.1779 37.2794C46.7684 41.2639 40.184 43.9643 32.629 43.9643Z" fill="url(#paint3_linear_4_5251)"/>
<path d="M32.629 18.0441C40.1504 18.0441 46.76 20.7429 50.1779 24.7291C48.8517 21.1432 46.4588 18.0496 43.3213 15.8647C40.1838 13.6799 36.4523 12.5086 32.629 12.5086C28.8057 12.5086 25.0742 13.6799 21.9366 15.8647C18.7991 18.0496 16.4063 21.1432 15.0801 24.7291C18.498 20.7345 25.0757 18.0441 32.629 18.0441Z" fill="url(#paint4_linear_4_5251)"/>
<path d="M22.2774 51.7221C22.3196 52.5986 22.0345 53.4595 21.4773 54.1374C20.9201 54.8152 20.1307 55.2617 19.2626 55.3898C18.3945 55.518 17.5098 55.3188 16.7805 54.8309C16.0511 54.3429 15.5293 53.6012 15.3165 52.7499C15.1037 51.8986 15.2151 50.9986 15.629 50.2249C16.0429 49.4512 16.7298 48.859 17.556 48.5636C18.3823 48.2682 19.2889 48.2906 20.0996 48.6265C20.9102 48.9625 21.567 49.5879 21.9421 50.3811C22.1402 50.802 22.2541 51.2575 22.2774 51.7221Z" fill="url(#paint5_linear_4_5251)"/>
<path d="M15.9346 17.1356C15.5295 17.1465 15.1303 17.0374 14.787 16.822C14.4438 16.6066 14.1719 16.2946 14.0055 15.9251C13.8391 15.5556 13.7856 15.1452 13.8518 14.7455C13.918 14.3457 14.1009 13.9744 14.3776 13.6783C14.6542 13.3822 15.0122 13.1745 15.4065 13.0812C15.8008 12.988 16.2139 13.0134 16.5939 13.1543C16.9738 13.2952 17.3036 13.5453 17.5418 13.8731C17.78 14.2009 17.916 14.5918 17.9327 14.9966C17.9486 15.5445 17.7476 16.0765 17.3735 16.477C16.9993 16.8775 16.4822 17.1142 15.9346 17.1356Z" fill="url(#paint6_linear_4_5251)"/>
<g filter="url(#filter1_d_4_5251)">
<path d="M10.6314 33.4783C10.6314 35.1774 10.4956 35.7308 10.146 36.1386C9.75699 36.4888 9.25202 36.6826 8.72852 36.6823L8.86447 37.6532C9.67602 37.6641 10.4635 37.3775 11.0781 36.8473C11.4088 36.4441 11.6548 35.9783 11.8016 35.4779C11.9484 34.9775 11.9929 34.4526 11.9324 33.9347V27.5074H10.6314V33.4395V33.4783Z" fill="url(#paint7_linear_4_5251)"/>
</g>
<g filter="url(#filter2_d_4_5251)">
<path d="M40.5719 25.5226V27.5614H42.4361V28.5322H40.5719V32.3576C40.5719 33.2314 40.8244 33.7363 41.5428 33.7363C41.798 33.7404 42.0526 33.711 42.3001 33.6489L42.3584 34.6197C41.9872 34.7483 41.5956 34.8075 41.203 34.7945C40.943 34.8107 40.6826 34.7706 40.4396 34.6767C40.1966 34.5829 39.9768 34.4376 39.7953 34.2508C39.3998 33.7218 39.2194 33.0628 39.2904 32.4061V28.5226H38.1836V27.5516H39.3098V25.8235L40.5719 25.5226Z" fill="url(#paint8_linear_4_5251)"/>
</g>
<g filter="url(#filter3_d_4_5251)">
<path d="M20.334 32.7125C20.334 33.4407 20.334 34.0912 20.3923 34.6543H19.237L19.1593 33.499C18.9176 33.9077 18.572 34.2452 18.1576 34.4772C17.7432 34.7091 17.2748 34.8272 16.8 34.8194C15.6738 34.8194 14.334 34.2077 14.334 31.7125V27.5669H15.635V31.4504C15.635 32.7999 16.0524 33.7028 17.2272 33.7028C17.4689 33.7055 17.7087 33.6597 17.9325 33.5685C18.1563 33.4772 18.3596 33.3421 18.5305 33.1712C18.7014 33.0003 18.8365 32.7969 18.9278 32.5731C19.0191 32.3493 19.0648 32.1096 19.0622 31.8679V27.5183H20.3631V32.6737L20.334 32.7125Z" fill="url(#paint9_linear_4_5251)"/>
</g>
<g filter="url(#filter4_d_4_5251)">
<path d="M22.8005 29.8765C22.8005 28.9736 22.8005 28.2358 22.7422 27.5658H23.9073L23.9656 28.7794C24.2251 28.341 24.5988 27.9812 25.0468 27.7384C25.4948 27.4956 26.0002 27.3789 26.5093 27.4008C28.2375 27.4008 29.5384 28.8474 29.5384 31.0028C29.5384 33.5465 27.9753 34.8087 26.2859 34.8087C25.8535 34.8279 25.4235 34.7353 25.0374 34.5397C24.6513 34.3442 24.3223 34.0522 24.082 33.6922V37.5757H22.8005V29.9057V29.8765ZM24.082 31.7698C24.0855 31.946 24.105 32.1215 24.1403 32.2941C24.2505 32.7252 24.5012 33.1072 24.8529 33.3798C25.2046 33.6524 25.6371 33.7998 26.082 33.7989C27.451 33.7989 28.2569 32.6825 28.2569 31.0611C28.2569 29.6436 27.4996 28.43 26.1306 28.43C25.5889 28.4743 25.0819 28.7147 24.7048 29.1062C24.3276 29.4976 24.1062 30.0132 24.082 30.5562V31.7698Z" fill="url(#paint10_linear_4_5251)"/>
</g>
<g filter="url(#filter5_d_4_5251)">
<path d="M31.8569 27.5592L33.42 31.7438C33.5851 32.2098 33.7598 32.773 33.8763 33.1904C34.0122 32.7633 34.1579 32.2195 34.3326 31.7147L35.7501 27.5592H37.1191L35.1773 32.6079C34.2064 35.0351 33.6142 36.2876 32.7209 37.0449C32.2711 37.4558 31.7226 37.7434 31.1287 37.8798L30.8083 36.7924C31.2236 36.656 31.609 36.4418 31.9443 36.1613C32.4179 35.7753 32.7938 35.2831 33.0413 34.7245C33.0943 34.6277 33.1304 34.5226 33.1481 34.4138C33.1371 34.2966 33.1076 34.1819 33.0607 34.074L30.4199 27.5398H31.8374L31.8569 27.5592Z" fill="url(#paint11_linear_4_5251)"/>
</g>
<g filter="url(#filter6_d_4_5251)">
<path d="M44.8325 31.3339C44.8062 31.6631 44.8517 31.9942 44.9658 32.3042C45.0799 32.6142 45.26 32.8957 45.4936 33.1293C45.7272 33.3628 46.0086 33.5429 46.3186 33.657C46.6286 33.7711 46.9596 33.8166 47.2889 33.7902C47.9549 33.8052 48.6166 33.6795 49.2307 33.4213L49.454 34.3922C48.7004 34.7026 47.89 34.8514 47.0753 34.8291C46.6003 34.8616 46.124 34.791 45.6789 34.6221C45.2338 34.4533 44.8305 34.1901 44.4966 33.8507C44.1627 33.5113 43.9063 33.1037 43.7447 32.6559C43.5832 32.2081 43.5204 31.7306 43.5607 31.2563C43.5607 29.1203 44.8325 27.4309 46.9103 27.4309C49.2404 27.4309 49.8229 29.4698 49.8229 30.7708C49.8354 30.9713 49.8354 31.1723 49.8229 31.3728H44.8034L44.8325 31.3339ZM48.6385 30.3631C48.6759 30.1035 48.6573 29.8389 48.5839 29.5871C48.5104 29.3353 48.3839 29.1022 48.2127 28.9035C48.0417 28.7048 47.8299 28.545 47.5918 28.435C47.3538 28.3251 47.0948 28.2674 46.8326 28.2659C46.2991 28.3045 45.7994 28.541 45.4312 28.9289C45.063 29.3168 44.8529 29.8283 44.8423 30.3631H48.6385Z" fill="url(#paint12_linear_4_5251)"/>
</g>
<g filter="url(#filter7_d_4_5251)">
<path d="M51.7965 29.7671C51.7965 28.9321 51.7965 28.2136 51.7383 27.5534H52.9034V28.9418H52.9616C53.0839 28.5133 53.3366 28.1335 53.6845 27.8551C54.0325 27.5767 54.4585 27.4137 54.9034 27.3884C55.0259 27.3724 55.1499 27.3724 55.2723 27.3884V28.602C55.1239 28.5848 54.9741 28.5848 54.8257 28.602C54.385 28.6191 53.9656 28.796 53.6457 29.0997C53.3259 29.4035 53.1276 29.8133 53.0878 30.2525C53.0515 30.4512 53.032 30.6525 53.0296 30.8544V34.6312H51.748V29.7768L51.7965 29.7671Z" fill="url(#paint13_linear_4_5251)"/>
</g>
<defs>
<filter id="filter0_f_4_5251" x="3.54375" y="3.35634" width="57.475" height="57.475" filterUnits="userSpaceOnUse" color-interpolation-filters="sRGB">
<feFlood flood-opacity="0" result="BackgroundImageFix"/>
<feBlend mode="normal" in="SourceGraphic" in2="BackgroundImageFix" result="shape"/>
<feGaussianBlur stdDeviation="0.61875" result="effect1_foregroundBlur_4_5251"/>
</filter>
<filter id="filter1_d_4_5251" x="7.2345" y="26.3121" width="6.21849" height="13.1341" filterUnits="userSpaceOnUse" color-interpolation-filters="sRGB">
<feFlood flood-opacity="0" result="BackgroundImageFix"/>
<feColorMatrix in="SourceAlpha" type="matrix" values="0 0 0 0 0 0 0 0 0 0 0 0 0 0 0 0 0 0 127 0" result="hardAlpha"/>
<feOffset dy="0.298802"/>
<feGaussianBlur stdDeviation="0.747006"/>
<feColorMatrix type="matrix" values="0 0 0 0 0 0 0 0 0 0 0 0 0 0 0 0 0 0 0.25 0"/>
<feBlend mode="normal" in2="BackgroundImageFix" result="effect1_dropShadow_4_5251"/>
<feBlend mode="normal" in="SourceGraphic" in2="effect1_dropShadow_4_5251" result="shape"/>
</filter>
<filter id="filter2_d_4_5251" x="36.6896" y="24.3273" width="7.23998" height="12.2635" filterUnits="userSpaceOnUse" color-interpolation-filters="sRGB">
<feFlood flood-opacity="0" result="BackgroundImageFix"/>
<feColorMatrix in="SourceAlpha" type="matrix" values="0 0 0 0 0 0 0 0 0 0 0 0 0 0 0 0 0 0 127 0" result="hardAlpha"/>
<feOffset dy="0.298802"/>
<feGaussianBlur stdDeviation="0.747006"/>
<feColorMatrix type="matrix" values="0 0 0 0 0 0 0 0 0 0 0 0 0 0 0 0 0 0 0.25 0"/>
<feBlend mode="normal" in2="BackgroundImageFix" result="effect1_dropShadow_4_5251"/>
<feBlend mode="normal" in="SourceGraphic" in2="effect1_dropShadow_4_5251" result="shape"/>
</filter>
<filter id="filter3_d_4_5251" x="12.84" y="26.3231" width="9.04662" height="10.2895" filterUnits="userSpaceOnUse" color-interpolation-filters="sRGB">
<feFlood flood-opacity="0" result="BackgroundImageFix"/>
<feColorMatrix in="SourceAlpha" type="matrix" values="0 0 0 0 0 0 0 0 0 0 0 0 0 0 0 0 0 0 127 0" result="hardAlpha"/>
<feOffset dy="0.298802"/>
<feGaussianBlur stdDeviation="0.747006"/>
<feColorMatrix type="matrix" values="0 0 0 0 0 0 0 0 0 0 0 0 0 0 0 0 0 0 0.25 0"/>
<feBlend mode="normal" in2="BackgroundImageFix" result="effect1_dropShadow_4_5251"/>
<feBlend mode="normal" in="SourceGraphic" in2="effect1_dropShadow_4_5251" result="shape"/>
</filter>
<filter id="filter4_d_4_5251" x="21.2482" y="26.203" width="9.7849" height="13.1655" filterUnits="userSpaceOnUse" color-interpolation-filters="sRGB">
<feFlood flood-opacity="0" result="BackgroundImageFix"/>
<feColorMatrix in="SourceAlpha" type="matrix" values="0 0 0 0 0 0 0 0 0 0 0 0 0 0 0 0 0 0 127 0" result="hardAlpha"/>
<feOffset dy="0.298802"/>
<feGaussianBlur stdDeviation="0.747006"/>
<feColorMatrix type="matrix" values="0 0 0 0 0 0 0 0 0 0 0 0 0 0 0 0 0 0 0.25 0"/>
<feBlend mode="normal" in2="BackgroundImageFix" result="effect1_dropShadow_4_5251"/>
<feBlend mode="normal" in="SourceGraphic" in2="effect1_dropShadow_4_5251" result="shape"/>
</filter>
<filter id="filter5_d_4_5251" x="28.9259" y="26.3446" width="9.68724" height="13.328" filterUnits="userSpaceOnUse" color-interpolation-filters="sRGB">
<feFlood flood-opacity="0" result="BackgroundImageFix"/>
<feColorMatrix in="SourceAlpha" type="matrix" values="0 0 0 0 0 0 0 0 0 0 0 0 0 0 0 0 0 0 127 0" result="hardAlpha"/>
<feOffset dy="0.298802"/>
<feGaussianBlur stdDeviation="0.747006"/>
<feColorMatrix type="matrix" values="0 0 0 0 0 0 0 0 0 0 0 0 0 0 0 0 0 0 0.25 0"/>
<feBlend mode="normal" in2="BackgroundImageFix" result="effect1_dropShadow_4_5251"/>
<feBlend mode="normal" in="SourceGraphic" in2="effect1_dropShadow_4_5251" result="shape"/>
</filter>
<filter id="filter6_d_4_5251" x="42.0548" y="26.2357" width="9.27123" height="10.3939" filterUnits="userSpaceOnUse" color-interpolation-filters="sRGB">
<feFlood flood-opacity="0" result="BackgroundImageFix"/>
<feColorMatrix in="SourceAlpha" type="matrix" values="0 0 0 0 0 0 0 0 0 0 0 0 0 0 0 0 0 0 127 0" result="hardAlpha"/>
<feOffset dy="0.298802"/>
<feGaussianBlur stdDeviation="0.747006"/>
<feColorMatrix type="matrix" values="0 0 0 0 0 0 0 0 0 0 0 0 0 0 0 0 0 0 0.25 0"/>
<feBlend mode="normal" in2="BackgroundImageFix" result="effect1_dropShadow_4_5251"/>
<feBlend mode="normal" in="SourceGraphic" in2="effect1_dropShadow_4_5251" result="shape"/>
</filter>
<filter id="filter7_d_4_5251" x="50.2443" y="26.1812" width="6.52123" height="10.2429" filterUnits="userSpaceOnUse" color-interpolation-filters="sRGB">
<feFlood flood-opacity="0" result="BackgroundImageFix"/>
<feColorMatrix in="SourceAlpha" type="matrix" values="0 0 0 0 0 0 0 0 0 0 0 0 0 0 0 0 0 0 127 0" result="hardAlpha"/>
<feOffset dy="0.298802"/>
<feGaussianBlur stdDeviation="0.747006"/>
<feColorMatrix type="matrix" values="0 0 0 0 0 0 0 0 0 0 0 0 0 0 0 0 0 0 0.25 0"/>
<feBlend mode="normal" in2="BackgroundImageFix" result="effect1_dropShadow_4_5251"/>
<feBlend mode="normal" in="SourceGraphic" in2="effect1_dropShadow_4_5251" result="shape"/>
</filter>
<linearGradient id="paint0_linear_4_5251" x1="4.78125" y1="32.0938" x2="59.7812" y2="32.0938" gradientUnits="userSpaceOnUse">
<stop stop-color="#FDFC47"/>
<stop offset="1" stop-color="#24FE41"/>
</linearGradient>
<linearGradient id="paint1_linear_4_5251" x1="4.78125" y1="32.0938" x2="59.7812" y2="32.0938" gradientUnits="userSpaceOnUse">
<stop stop-color="#FDFC47"/>
<stop offset="1" stop-color="#24FE41"/>
</linearGradient>
<linearGradient id="paint2_linear_4_5251" x1="43.4922" y1="11.406" x2="49.158" y2="11.406" gradientUnits="userSpaceOnUse">
<stop stop-color="#FDFC47"/>
<stop offset="1" stop-color="#24FE41"/>
</linearGradient>
<linearGradient id="paint3_linear_4_5251" x1="15.0801" y1="43.3896" x2="50.1779" y2="43.3896" gradientUnits="userSpaceOnUse">
<stop stop-color="#FDFC47"/>
<stop offset="1" stop-color="#24FE41"/>
</linearGradient>
<linearGradient id="paint4_linear_4_5251" x1="15.0801" y1="18.6189" x2="50.1779" y2="18.6189" gradientUnits="userSpaceOnUse">
<stop stop-color="#FDFC47"/>
<stop offset="1" stop-color="#24FE41"/>
</linearGradient>
<linearGradient id="paint5_linear_4_5251" x1="15.2109" y1="51.8925" x2="22.2815" y2="51.8925" gradientUnits="userSpaceOnUse">
<stop stop-color="#FDFC47"/>
<stop offset="1" stop-color="#24FE41"/>
</linearGradient>
<linearGradient id="paint6_linear_4_5251" x1="13.8242" y1="15.0812" x2="17.9336" y2="15.0812" gradientUnits="userSpaceOnUse">
<stop stop-color="#FDFC47"/>
<stop offset="1" stop-color="#24FE41"/>
</linearGradient>
<linearGradient id="paint7_linear_4_5251" x1="8.72852" y1="32.5804" x2="11.9586" y2="32.5804" gradientUnits="userSpaceOnUse">
<stop stop-color="#FDFC47"/>
<stop offset="1" stop-color="#24FE41"/>
</linearGradient>
<linearGradient id="paint8_linear_4_5251" x1="38.1836" y1="30.1603" x2="42.4361" y2="30.1603" gradientUnits="userSpaceOnUse">
<stop stop-color="#FDFC47"/>
<stop offset="1" stop-color="#24FE41"/>
</linearGradient>
<linearGradient id="paint9_linear_4_5251" x1="14.334" y1="31.169" x2="20.3923" y2="31.169" gradientUnits="userSpaceOnUse">
<stop stop-color="#FDFC47"/>
<stop offset="1" stop-color="#24FE41"/>
</linearGradient>
<linearGradient id="paint10_linear_4_5251" x1="22.7422" y1="32.487" x2="29.5384" y2="32.487" gradientUnits="userSpaceOnUse">
<stop stop-color="#FDFC47"/>
<stop offset="1" stop-color="#24FE41"/>
</linearGradient>
<linearGradient id="paint11_linear_4_5251" x1="30.4199" y1="32.7098" x2="37.1191" y2="32.7098" gradientUnits="userSpaceOnUse">
<stop stop-color="#FDFC47"/>
<stop offset="1" stop-color="#24FE41"/>
</linearGradient>
<linearGradient id="paint12_linear_4_5251" x1="43.5488" y1="31.1339" x2="49.8323" y2="31.1339" gradientUnits="userSpaceOnUse">
<stop stop-color="#FDFC47"/>
<stop offset="1" stop-color="#24FE41"/>
</linearGradient>
<linearGradient id="paint13_linear_4_5251" x1="51.7383" y1="31.0038" x2="55.2723" y2="31.0038" gradientUnits="userSpaceOnUse">
<stop stop-color="#FDFC47"/>
<stop offset="1" stop-color="#24FE41"/>
</linearGradient>
</defs>
</svg>
