<svg width="64" height="64" viewBox="0 0 64 64" fill="none" xmlns="http://www.w3.org/2000/svg">
<g clip-path="url(#clip0_4_5237)">
<g opacity="0.3" filter="url(#filter0_f_4_5237)">
<path d="M44.5 4.5H19.5C11.2157 4.5 4.5 11.2157 4.5 19.5V44.5C4.5 52.7843 11.2157 59.5 19.5 59.5H44.5C52.7843 59.5 59.5 52.7843 59.5 44.5V19.5C59.5 11.2157 52.7843 4.5 44.5 4.5Z" fill="url(#paint0_linear_4_5237)"/>
</g>
<path d="M19.5 5H44.5C52.5081 5 59 11.4919 59 19.5V44.5C59 52.5081 52.5081 59 44.5 59H19.5C11.4919 59 5 52.5081 5 44.5V19.5C5 11.4919 11.4919 5 19.5 5Z" fill="#232323" stroke="url(#paint1_linear_4_5237)"/>
<path d="M16.2109 47.155V46.0025C17.7731 45.8232 18.7847 45.5671 19.2457 45.2342C19.9372 44.722 20.2829 43.7488 20.2829 42.3146V20.4566C19.0793 18.9968 18.1829 18.0492 17.5938 17.6139C17.1585 17.3066 16.7487 17.1529 16.3645 17.1529V16.0004H26.0836L42.0646 35.6694L42.1799 21.7244C42.1799 20.1365 41.9366 19.0225 41.45 18.3823C40.8354 17.5628 39.6445 17.153 37.8774 17.153V16.0005H47.7886V17.153C46.2264 17.3323 45.2276 17.678 44.7922 18.1902C44.408 18.728 44.216 19.6116 44.216 20.8409V48.0009H42.9099L22.3959 22.9929L22.319 41.4319C22.319 43.0966 22.6008 44.2362 23.1642 44.8509C23.7532 45.4399 24.9313 45.8241 26.6984 46.0034V47.1559L16.2109 47.155Z" fill="url(#paint2_linear_4_5237)"/>
</g>
<defs>
<filter id="filter0_f_4_5237" x="3.2625" y="3.2625" width="57.475" height="57.475" filterUnits="userSpaceOnUse" color-interpolation-filters="sRGB">
<feFlood flood-opacity="0" result="BackgroundImageFix"/>
<feBlend mode="normal" in="SourceGraphic" in2="BackgroundImageFix" result="shape"/>
<feGaussianBlur stdDeviation="0.61875" result="effect1_foregroundBlur_4_5237"/>
</filter>
<linearGradient id="paint0_linear_4_5237" x1="4.5" y1="32" x2="59.5" y2="32" gradientUnits="userSpaceOnUse">
<stop stop-color="#FDFC47"/>
<stop offset="1" stop-color="#24FE41"/>
</linearGradient>
<linearGradient id="paint1_linear_4_5237" x1="4.5" y1="32" x2="59.5" y2="32" gradientUnits="userSpaceOnUse">
<stop stop-color="#FDFC47"/>
<stop offset="1" stop-color="#24FE41"/>
</linearGradient>
<linearGradient id="paint2_linear_4_5237" x1="16.2109" y1="32.0006" x2="47.7886" y2="32.0006" gradientUnits="userSpaceOnUse">
<stop stop-color="#FDFC47"/>
<stop offset="1" stop-color="#24FE41"/>
</linearGradient>
<clipPath id="clip0_4_5237">
<rect width="64" height="64" fill="white"/>
</clipPath>
</defs>
</svg>
