<svg width="64" height="64" viewBox="0 0 64 64" fill="none" xmlns="http://www.w3.org/2000/svg">
<g clip-path="url(#clip0_4_5202)">
<g opacity="0.3" filter="url(#filter0_f_4_5202)">
<path d="M44.5 4.5H19.5C11.2157 4.5 4.5 11.2157 4.5 19.5V44.5C4.5 52.7843 11.2157 59.5 19.5 59.5H44.5C52.7843 59.5 59.5 52.7843 59.5 44.5V19.5C59.5 11.2157 52.7843 4.5 44.5 4.5Z" fill="url(#paint0_linear_4_5202)"/>
</g>
<path d="M19.5 5H44.5C52.5081 5 59 11.4919 59 19.5V44.5C59 52.5081 52.5081 59 44.5 59H19.5C11.4919 59 5 52.5081 5 44.5V19.5C5 11.4919 11.4919 5 19.5 5Z" fill="#232323" stroke="url(#paint1_linear_4_5202)"/>
<path d="M59.4998 29.625C45.1768 30.0566 32.2148 37.3164 32.2148 37.3164C32.2148 37.3164 32.7684 44.7415 36.7031 52.9334H43.6035C40.7718 46.4237 40.5254 40.4684 40.5254 40.4684C40.5254 40.4684 47.9912 34.072 59.5004 33.7047L59.4998 29.625ZM59.4998 38.957C51.971 39.3911 46.7578 42.7324 46.7578 42.7324C46.7578 42.7324 46.7551 47.7039 49.2422 52.9334H55.1406C53.3659 49.1023 53.3222 45.3279 53.3222 45.3279C53.3222 45.3279 56.0777 43.4376 59.4999 43.0213L59.4998 38.957Z" fill="url(#paint2_linear_4_5202)"/>
<path d="M6.50977 52C9.09697 56.486 13.9289 59.5 19.4998 59.5H44.4998C50.071 59.5 54.9028 56.486 57.4898 52C40.4958 51.9999 23.5028 52.0003 6.50977 52Z" fill="url(#paint3_linear_4_5202)"/>
</g>
<defs>
<filter id="filter0_f_4_5202" x="3.2625" y="3.2625" width="57.475" height="57.475" filterUnits="userSpaceOnUse" color-interpolation-filters="sRGB">
<feFlood flood-opacity="0" result="BackgroundImageFix"/>
<feBlend mode="normal" in="SourceGraphic" in2="BackgroundImageFix" result="shape"/>
<feGaussianBlur stdDeviation="0.61875" result="effect1_foregroundBlur_4_5202"/>
</filter>
<linearGradient id="paint0_linear_4_5202" x1="4.5" y1="32" x2="59.5" y2="32" gradientUnits="userSpaceOnUse">
<stop stop-color="#FDFC47"/>
<stop offset="1" stop-color="#24FE41"/>
</linearGradient>
<linearGradient id="paint1_linear_4_5202" x1="4.5" y1="32" x2="59.5" y2="32" gradientUnits="userSpaceOnUse">
<stop stop-color="#FDFC47"/>
<stop offset="1" stop-color="#24FE41"/>
</linearGradient>
<linearGradient id="paint2_linear_4_5202" x1="32.2148" y1="41.279" x2="59.5004" y2="41.279" gradientUnits="userSpaceOnUse">
<stop stop-color="#FDFC47"/>
<stop offset="1" stop-color="#24FE41"/>
</linearGradient>
<linearGradient id="paint3_linear_4_5202" x1="6.50977" y1="55.75" x2="57.4898" y2="55.75" gradientUnits="userSpaceOnUse">
<stop stop-color="#FDFC47"/>
<stop offset="1" stop-color="#24FE41"/>
</linearGradient>
<clipPath id="clip0_4_5202">
<rect width="64" height="64" fill="white"/>
</clipPath>
</defs>
</svg>
