<svg width="64" height="64" viewBox="0 0 64 64" fill="none" xmlns="http://www.w3.org/2000/svg">
<g clip-path="url(#clip0_4_5076)">
<g opacity="0.3" filter="url(#filter0_f_4_5076)">
<path d="M46.498 4.5H17.502C10.3212 4.5 4.5 10.3212 4.5 17.502V46.498C4.5 53.6788 10.3212 59.5 17.502 59.5H46.498C53.6788 59.5 59.5 53.6788 59.5 46.498V17.502C59.5 10.3212 53.6788 4.5 46.498 4.5Z" fill="url(#paint0_linear_4_5076)"/>
</g>
<path d="M5 17.502C5 10.575 10.575 5 17.502 5H46.498C53.425 5 59 10.575 59 17.502V46.498C59 53.425 53.425 59 46.498 59H17.502C10.575 59 5 53.425 5 46.498V17.502Z" fill="#232323" stroke="url(#paint1_linear_4_5076)"/>
<path d="M21.7056 15.5298C17.7136 15.5298 14.5 18.7436 14.5 22.7355C14.5 26.7275 17.7138 29.9412 21.7056 29.9412C25.6976 29.9412 28.9113 26.7275 28.9113 22.7355C28.9113 18.7435 25.6976 15.5298 21.7056 15.5298ZM16.5586 34.0587V48.4701H26.8525V34.0587H16.5586Z" fill="url(#paint2_linear_4_5076)"/>
<path d="M49.4994 48.2984L34.1009 48.2498L41.8419 34.9386L49.4994 48.2984Z" fill="url(#paint3_linear_4_5076)"/>
<path d="M35.4688 15.8187H49.2438V29.5938H35.4688V15.8187Z" fill="url(#paint4_linear_4_5076)"/>
</g>
<defs>
<filter id="filter0_f_4_5076" x="2.3" y="2.3" width="59.4" height="59.4" filterUnits="userSpaceOnUse" color-interpolation-filters="sRGB">
<feFlood flood-opacity="0" result="BackgroundImageFix"/>
<feBlend mode="normal" in="SourceGraphic" in2="BackgroundImageFix" result="shape"/>
<feGaussianBlur stdDeviation="1.1" result="effect1_foregroundBlur_4_5076"/>
</filter>
<linearGradient id="paint0_linear_4_5076" x1="4.5" y1="32" x2="59.5" y2="32" gradientUnits="userSpaceOnUse">
<stop stop-color="#FDFC47"/>
<stop offset="1" stop-color="#24FE41"/>
</linearGradient>
<linearGradient id="paint1_linear_4_5076" x1="4.5" y1="32" x2="59.5" y2="32" gradientUnits="userSpaceOnUse">
<stop stop-color="#FDFC47"/>
<stop offset="1" stop-color="#24FE41"/>
</linearGradient>
<linearGradient id="paint2_linear_4_5076" x1="14.5" y1="32" x2="28.9113" y2="32" gradientUnits="userSpaceOnUse">
<stop stop-color="#FDFC47"/>
<stop offset="1" stop-color="#24FE41"/>
</linearGradient>
<linearGradient id="paint3_linear_4_5076" x1="35.0429" y1="49.5173" x2="46.4024" y2="41.0746" gradientUnits="userSpaceOnUse">
<stop stop-color="#FDFC47"/>
<stop offset="1" stop-color="#24FE41"/>
</linearGradient>
<linearGradient id="paint4_linear_4_5076" x1="35.4688" y1="22.7063" x2="49.2438" y2="22.7063" gradientUnits="userSpaceOnUse">
<stop stop-color="#FDFC47"/>
<stop offset="1" stop-color="#24FE41"/>
</linearGradient>
<clipPath id="clip0_4_5076">
<rect width="64" height="64" fill="white"/>
</clipPath>
</defs>
</svg>
