<svg width="64" height="64" viewBox="0 0 64 64" fill="none" xmlns="http://www.w3.org/2000/svg">
<g clip-path="url(#clip0_4_4690)">
<g opacity="0.3" filter="url(#filter0_f_4_4690)">
<path d="M44.5 4.5H19.5C11.2157 4.5 4.5 11.2157 4.5 19.5V44.5C4.5 52.7843 11.2157 59.5 19.5 59.5H44.5C52.7843 59.5 59.5 52.7843 59.5 44.5V19.5C59.5 11.2157 52.7843 4.5 44.5 4.5Z" fill="url(#paint0_linear_4_4690)"/>
</g>
<path d="M19.5 5H44.5C52.5081 5 59 11.4919 59 19.5V44.5C59 52.5081 52.5081 59 44.5 59H19.5C11.4919 59 5 52.5081 5 44.5V19.5C5 11.4919 11.4919 5 19.5 5Z" fill="#232323" stroke="url(#paint1_linear_4_4690)"/>
<path opacity="0.2" d="M32.0021 47.4467C40.6726 47.4467 47.7014 40.4178 47.7014 31.7473C47.7014 23.0768 40.6726 16.048 32.0021 16.048C23.3316 16.048 16.3027 23.0768 16.3027 31.7473C16.3027 40.4178 23.3316 47.4467 32.0021 47.4467Z" stroke="url(#paint2_linear_4_4690)" stroke-width="8.99999"/>
<path d="M42.5055 43.3579C39.6223 45.9541 35.8799 47.3907 32.0001 47.3907C27.8364 47.3907 23.8432 45.7367 20.899 42.7925C17.9548 39.8483 16.3008 35.8551 16.3008 31.6914C16.3008 27.5277 17.9548 23.5345 20.899 20.5903C23.8432 17.6461 27.8364 15.9921 32.0001 15.9921C35.88 15.9922 39.6224 17.4289 42.5055 20.0253" stroke="url(#paint3_linear_4_4690)" stroke-width="8.99999"/>
<path d="M32.0014 39.2321C36.1507 39.2321 39.5145 35.8684 39.5145 31.719C39.5145 27.5696 36.1507 24.2059 32.0014 24.2059C27.852 24.2059 24.4883 27.5696 24.4883 31.719C24.4883 35.8684 27.852 39.2321 32.0014 39.2321Z" fill="url(#paint4_linear_4_4690)"/>
<path d="M28.294 32.9928L29.6783 30.2546V30.2304H28.0825V29.8979H30.0651V30.2485L28.6869 32.9928H28.294ZM31.5714 33.0351C31.3437 33.0351 31.1498 32.9732 30.9896 32.8492C30.8294 32.7243 30.707 32.5435 30.6224 32.3067C30.5377 32.069 30.4954 31.7818 30.4954 31.4454C30.4954 31.1109 30.5377 30.8253 30.6224 30.5885C30.708 30.3508 30.8309 30.1694 30.9911 30.0445C31.1523 29.9186 31.3457 29.8556 31.5714 29.8556C31.7971 29.8556 31.99 29.9186 32.1502 30.0445C32.3114 30.1694 32.4343 30.3508 32.5189 30.5885C32.6045 30.8253 32.6473 31.1109 32.6473 31.4454C32.6473 31.7818 32.605 32.069 32.5204 32.3067C32.4358 32.5435 32.3134 32.7243 32.1532 32.8492C31.993 32.9732 31.7991 33.0351 31.5714 33.0351ZM31.5714 32.7027C31.7971 32.7027 31.9723 32.5938 32.0973 32.3762C32.2222 32.1586 32.2847 31.8483 32.2847 31.4454C32.2847 31.1774 32.2559 30.9492 32.1985 30.7608C32.1421 30.5724 32.0605 30.4288 31.9537 30.3301C31.8479 30.2314 31.7205 30.182 31.5714 30.182C31.3477 30.182 31.1729 30.2923 31.047 30.513C30.9211 30.7326 30.8581 31.0434 30.8581 31.4454C30.8581 31.7133 30.8863 31.941 30.9427 32.1284C30.9992 32.3158 31.0803 32.4583 31.186 32.5561C31.2928 32.6538 31.4213 32.7027 31.5714 32.7027ZM34.7992 32.4125V32.2493C34.7992 32.1365 34.8224 32.0332 34.8688 31.9395C34.9161 31.8448 34.9846 31.7693 35.0743 31.7128C35.1649 31.6554 35.2748 31.6267 35.4037 31.6267C35.5347 31.6267 35.6445 31.6554 35.7331 31.7128C35.8218 31.7693 35.8888 31.8448 35.9341 31.9395C35.9795 32.0332 36.0021 32.1365 36.0021 32.2493V32.4125C36.0021 32.5253 35.979 32.6291 35.9326 32.7238C35.8873 32.8175 35.8198 32.8931 35.7301 32.9505C35.6415 33.0069 35.5327 33.0351 35.4037 33.0351C35.2727 33.0351 35.1624 33.0069 35.0728 32.9505C34.9831 32.8931 34.9151 32.8175 34.8688 32.7238C34.8224 32.6291 34.7992 32.5253 34.7992 32.4125ZM35.1075 32.2493V32.4125C35.1075 32.5062 35.1297 32.5903 35.174 32.6649C35.2183 32.7384 35.2949 32.7752 35.4037 32.7752C35.5095 32.7752 35.584 32.7384 35.6274 32.6649C35.6717 32.5903 35.6939 32.5062 35.6939 32.4125V32.2493C35.6939 32.1556 35.6727 32.072 35.6304 31.9984C35.5881 31.9239 35.5125 31.8866 35.4037 31.8866C35.2979 31.8866 35.2219 31.9239 35.1755 31.9984C35.1302 32.072 35.1075 32.1556 35.1075 32.2493ZM33.2579 30.6414V30.4782C33.2579 30.3654 33.281 30.2621 33.3274 30.1684C33.3747 30.0737 33.4432 29.9982 33.5329 29.9417C33.6236 29.8843 33.7334 29.8556 33.8623 29.8556C33.9933 29.8556 34.1031 29.8843 34.1918 29.9417C34.2804 29.9982 34.3474 30.0737 34.3927 30.1684C34.4381 30.2621 34.4607 30.3654 34.4607 30.4782V30.6414C34.4607 30.7543 34.4376 30.858 34.3912 30.9527C34.3459 31.0464 34.2784 31.122 34.1887 31.1794C34.1001 31.2358 33.9913 31.264 33.8623 31.264C33.7314 31.264 33.621 31.2358 33.5314 31.1794C33.4417 31.122 33.3737 31.0464 33.3274 30.9527C33.281 30.858 33.2579 30.7543 33.2579 30.6414ZM33.5661 30.4782V30.6414C33.5661 30.7351 33.5883 30.8192 33.6326 30.8938C33.6769 30.9673 33.7535 31.0041 33.8623 31.0041C33.9681 31.0041 34.0427 30.9673 34.086 30.8938C34.1303 30.8192 34.1525 30.7351 34.1525 30.6414V30.4782C34.1525 30.3845 34.1313 30.3009 34.089 30.2274C34.0467 30.1528 33.9711 30.1155 33.8623 30.1155C33.7565 30.1155 33.6805 30.1528 33.6341 30.2274C33.5888 30.3009 33.5661 30.3845 33.5661 30.4782ZM33.3727 32.9928L35.5004 29.8979H35.845L33.7172 32.9928H33.3727Z" fill="#32C3FF"/>
</g>
<defs>
<filter id="filter0_f_4_4690" x="3.2625" y="3.2625" width="57.475" height="57.475" filterUnits="userSpaceOnUse" color-interpolation-filters="sRGB">
<feFlood flood-opacity="0" result="BackgroundImageFix"/>
<feBlend mode="normal" in="SourceGraphic" in2="BackgroundImageFix" result="shape"/>
<feGaussianBlur stdDeviation="0.61875" result="effect1_foregroundBlur_4_4690"/>
</filter>
<linearGradient id="paint0_linear_4_4690" x1="4.5" y1="32" x2="59.5" y2="32" gradientUnits="userSpaceOnUse">
<stop stop-color="#FDFC47"/>
<stop offset="1" stop-color="#24FE41"/>
</linearGradient>
<linearGradient id="paint1_linear_4_4690" x1="4.5" y1="32" x2="59.5" y2="32" gradientUnits="userSpaceOnUse">
<stop stop-color="#FDFC47"/>
<stop offset="1" stop-color="#24FE41"/>
</linearGradient>
<linearGradient id="paint2_linear_4_4690" x1="16.3027" y1="31.7473" x2="47.7014" y2="31.7473" gradientUnits="userSpaceOnUse">
<stop stop-color="#FDFC47"/>
<stop offset="1" stop-color="#24FE41"/>
</linearGradient>
<linearGradient id="paint3_linear_4_4690" x1="16.3008" y1="31.6914" x2="42.5055" y2="31.6914" gradientUnits="userSpaceOnUse">
<stop stop-color="#FDFC47"/>
<stop offset="1" stop-color="#24FE41"/>
</linearGradient>
<linearGradient id="paint4_linear_4_4690" x1="24.4883" y1="31.719" x2="39.5145" y2="31.719" gradientUnits="userSpaceOnUse">
<stop stop-color="#FDFC47"/>
<stop offset="1" stop-color="#24FE41"/>
</linearGradient>
<clipPath id="clip0_4_4690">
<rect width="64" height="64" fill="white"/>
</clipPath>
</defs>
</svg>
