<svg width="64" height="64" viewBox="0 0 64 64" fill="none" xmlns="http://www.w3.org/2000/svg">
<g opacity="0.3" filter="url(#filter0_f_4_4803)">
<path d="M44.5 4.5H19.5C11.2157 4.5 4.5 11.2157 4.5 19.5V44.5C4.5 52.7843 11.2157 59.5 19.5 59.5H44.5C52.7843 59.5 59.5 52.7843 59.5 44.5V19.5C59.5 11.2157 52.7843 4.5 44.5 4.5Z" fill="url(#paint0_linear_4_4803)"/>
</g>
<path d="M19.5 5H44.5C52.5081 5 59 11.4919 59 19.5V44.5C59 52.5081 52.5081 59 44.5 59H19.5C11.4919 59 5 52.5081 5 44.5V19.5C5 11.4919 11.4919 5 19.5 5Z" fill="#232323" stroke="url(#paint1_linear_4_4803)"/>
<path d="M16 28.7995H35.2V47.9995L16 28.7995Z" fill="url(#paint2_linear_4_4803)"/>
<path opacity="0.75" d="M47.9992 16.0005H35.1992V28.8005L47.9992 16.0005Z" fill="url(#paint3_linear_4_4803)"/>
<path opacity="0.5" d="M35.1992 28.7995H44.7992V38.3995L35.1992 28.7995Z" fill="url(#paint4_linear_4_4803)"/>
<defs>
<filter id="filter0_f_4_4803" x="3.2625" y="3.2625" width="57.475" height="57.475" filterUnits="userSpaceOnUse" color-interpolation-filters="sRGB">
<feFlood flood-opacity="0" result="BackgroundImageFix"/>
<feBlend mode="normal" in="SourceGraphic" in2="BackgroundImageFix" result="shape"/>
<feGaussianBlur stdDeviation="0.61875" result="effect1_foregroundBlur_4_4803"/>
</filter>
<linearGradient id="paint0_linear_4_4803" x1="4.5" y1="32" x2="59.5" y2="32" gradientUnits="userSpaceOnUse">
<stop stop-color="#FDFC47"/>
<stop offset="1" stop-color="#24FE41"/>
</linearGradient>
<linearGradient id="paint1_linear_4_4803" x1="4.5" y1="32" x2="59.5" y2="32" gradientUnits="userSpaceOnUse">
<stop stop-color="#FDFC47"/>
<stop offset="1" stop-color="#24FE41"/>
</linearGradient>
<linearGradient id="paint2_linear_4_4803" x1="16" y1="38.3995" x2="35.2" y2="38.3995" gradientUnits="userSpaceOnUse">
<stop stop-color="#FDFC47"/>
<stop offset="1" stop-color="#24FE41"/>
</linearGradient>
<linearGradient id="paint3_linear_4_4803" x1="35.1992" y1="22.4005" x2="47.9992" y2="22.4005" gradientUnits="userSpaceOnUse">
<stop stop-color="#FDFC47"/>
<stop offset="1" stop-color="#24FE41"/>
</linearGradient>
<linearGradient id="paint4_linear_4_4803" x1="35.1992" y1="33.5995" x2="44.7992" y2="33.5995" gradientUnits="userSpaceOnUse">
<stop stop-color="#FDFC47"/>
<stop offset="1" stop-color="#24FE41"/>
</linearGradient>
</defs>
</svg>
