<svg width="64" height="64" viewBox="0 0 64 64" fill="none" xmlns="http://www.w3.org/2000/svg">
<g clip-path="url(#clip0_4_4859)">
<g opacity="0.3" filter="url(#filter0_f_4_4859)">
<path d="M44.5 4.5H19.5C11.2157 4.5 4.5 11.2157 4.5 19.5V44.5C4.5 52.7843 11.2157 59.5 19.5 59.5H44.5C52.7843 59.5 59.5 52.7843 59.5 44.5V19.5C59.5 11.2157 52.7843 4.5 44.5 4.5Z" fill="url(#paint0_linear_4_4859)"/>
</g>
<path d="M19.5 5H44.5C52.5081 5 59 11.4919 59 19.5V44.5C59 52.5081 52.5081 59 44.5 59H19.5C11.4919 59 5 52.5081 5 44.5V19.5C5 11.4919 11.4919 5 19.5 5Z" fill="#232323" stroke="url(#paint1_linear_4_4859)"/>
<path d="M44.5 7.5H19.5C12.8726 7.5 7.5 12.8726 7.5 19.5V44.5C7.5 51.1274 12.8726 56.5 19.5 56.5H44.5C51.1274 56.5 56.5 51.1274 56.5 44.5V19.5C56.5 12.8726 51.1274 7.5 44.5 7.5Z" fill="#232323"/>
<path opacity="0.15" d="M30 15V31H52V15H30ZM30 32V34H45V32H30ZM12 36V44H22V42H52V36H12ZM12 46V52H46V50H52V46H12Z" fill="url(#paint2_linear_4_4859)"/>
<path opacity="0.35" d="M47 11H28V13H47V11Z" fill="url(#paint3_linear_4_4859)"/>
<path d="M28.4769 5C22.5581 5.37564 15.6669 4.267 10.7629 7.6024C10.11 8.02818 9.82785 8.25545 9.72797 8.43403C9.59196 8.67731 9.59189 8.68316 9.72147 8.96734C9.89573 9.3496 10.3032 9.7286 10.8636 10.0306C11.389 10.3138 11.4903 10.5068 11.3867 11.0372C11.3225 11.3658 11.3843 11.8365 11.5134 11.9922C11.5581 12.0461 11.7613 12.2053 11.965 12.3455C12.2584 12.5473 12.337 12.6385 12.3387 12.7855C12.3466 13.4377 12.9794 14.0998 13.705 14.2154C13.9823 14.2596 14.0523 14.4658 13.8837 14.737C13.6649 15.089 13.8235 15.9959 14.1664 16.3569C14.2561 16.4514 14.3512 16.6131 14.3776 16.7169C14.4039 16.8208 14.5295 16.9982 14.657 17.1102C14.857 17.286 14.8889 17.3552 14.8844 17.6102C14.8816 17.7728 14.933 18.0448 14.9982 18.2152C15.0634 18.3856 15.1428 18.6644 15.1752 18.8352C15.2458 19.2066 15.4425 19.7236 15.57 19.8735C15.6206 19.9329 15.6619 20.0297 15.6626 20.0901C15.6649 20.283 15.9262 20.7889 16.1451 21.0234C16.276 21.1637 16.4462 21.2646 16.5903 21.2867C16.7185 21.3064 16.8238 21.3505 16.8242 21.3851C16.8246 21.4197 16.8928 21.5402 16.9753 21.6517C17.0778 21.7904 17.1841 21.8534 17.3099 21.8517C17.4834 21.8494 17.5003 21.8774 17.6105 22.3484C17.6748 22.6234 17.7839 22.9098 17.8526 22.985C17.9212 23.0602 18.0008 23.2301 18.0296 23.3616C18.0585 23.4932 18.1077 23.6487 18.1385 23.7066C18.1693 23.7645 18.2131 23.8968 18.236 24.0016C18.2834 24.2189 18.7806 24.5689 19.136 24.6349C19.3359 24.6721 19.3525 24.6955 19.3423 24.9266C19.3322 25.1561 19.3511 25.1833 19.5681 25.2549C19.8191 25.3377 19.8254 25.3622 19.7403 25.8498C19.7029 26.0644 19.7146 26.1094 19.8053 26.1082C19.8691 26.1074 19.9165 26.1623 19.9174 26.2398C19.9183 26.3134 20.0144 26.5279 20.1319 26.7165C20.334 27.041 20.3397 27.0684 20.2391 27.2198C20.0636 27.4837 20.1079 27.7775 20.3593 28.0147C20.4812 28.1298 20.6421 28.2571 20.7167 28.2981V28.2998C20.7914 28.3407 20.8935 28.3749 20.9442 28.3748C20.9472 28.3748 21.0418 28.3354 21.0579 28.3298L21.8377 28.2481L22.0586 28.3881L22.0391 28.5948L21.222 28.8881L21.1716 28.8864L18.7591 28.8347L13.8074 28.5547C11.5778 28.3687 11.6228 28.2679 11.3656 28.1931C11.1767 28.1381 10.8554 28.1825 10.641 28.3231C10.3122 28.5387 10.3055 28.6658 10.5939 29.143C10.8865 29.6271 10.8726 29.757 10.4981 30.038C10.117 30.3239 10.1055 30.4432 10.4152 30.9613C10.7271 31.483 10.7148 31.5889 10.3161 31.8212C9.79143 32.127 9.7071 33.0246 10.1862 33.2045C10.4093 33.2883 10.3278 33.5064 9.92622 33.9028C9.23802 34.5821 9.21163 34.8645 9.73777 35.8994C9.95387 36.3245 10.0808 36.7226 10.0205 36.7844C9.96015 36.8463 10.0706 37.2117 10.2658 37.5977C10.6806 38.4179 12.4902 38.9426 13.8886 38.9643C13.7451 39.4609 14.1045 39.094 14.5075 38.851C14.9118 38.7498 14.8704 38.5933 15.1834 38.9143C14.8546 40.2858 16.876 40.3572 17.9094 40.0143C18.0356 40.1844 18.1705 40.3204 19.3423 40.6209L21.2268 39.341C22.0495 38.474 22.2653 38.2775 23.0788 37.4844C24.2762 36.3172 24.3336 35.928 25.7529 35.0745C26.1446 34.9177 27.328 34.8374 27.5676 34.8129L29.7397 35.9279L30.5715 37.2078L32.2351 38.0611L33.4828 38.9144L34.6736 39.1977L34.6719 39.2244L35.2632 39.3843L35.3396 39.851L36.0511 39.9327L36.0966 40.3893L36.7286 40.4343L36.7091 40.8026L37.4401 40.971L37.6237 41.4359L38.0835 41.3693L38.4409 41.9476L39.0257 41.9193L39.3035 42.4142L40.1678 42.4726L40.275 42.9259L41.1621 42.7126L41.8736 43.2709L42.3578 43.0025L42.387 43.4192L43.071 43.6325L43.573 43.4275L44.0636 43.8008L44.6858 43.5175L45.4948 43.7225L45.8896 43.5425L46.2714 43.9408L47.1032 43.8959L47.6312 43.5359L48.0406 43.5742L48.8642 43.4342L49.2233 43.0692L50.055 43.1959L50.9307 42.5943L51.4164 42.7776L53.322 42.3493L52.8249 41.7643L55.6452 40.6477L55.2862 40.3044L54.8736 40.4011L57.806 37.8728L59.3867 35.3979L60.5028 33.3698L60.8228 32.4465L60.8732 31.9848L60.5336 32.2748L59.4403 34.293L59.5329 33.778L59.1284 34.063L57.7459 35.9096L55.9117 37.2179L53.842 37.2829L51.5124 36.6563L49.0999 35.528L47.7028 34.7463L47.0448 34.608L46.0652 33.9397L42.9103 31.3265L40.8243 30.1166L40.6277 29.9599L40.6716 29.47L40.2151 29.0867C40.297 29.0176 40.5145 28.8333 40.8666 28.5317L41.6106 27.8934L41.9696 27.6784C42.167 27.56 42.4913 27.3657 42.691 27.2467L43.0549 27.0317L43.6641 26.8084C44.2606 26.5903 44.2788 26.5844 44.5723 26.5168L44.8728 26.4468L45.1165 26.5018C45.3978 26.5649 45.7632 26.6062 45.9515 26.5968C46.0196 26.593 46.0791 26.5955 46.0831 26.6001C46.0871 26.6046 46.1143 26.6605 46.1432 26.725L46.1952 26.8417L46.2472 26.7284C46.2947 26.6247 46.302 26.5961 46.3447 26.3684L46.3918 26.1201L46.3512 25.7434L46.3089 25.3668L46.0912 24.6868L45.8882 24.4185C45.6935 24.161 45.6821 24.148 45.6104 24.1052C45.5692 24.0806 45.4292 23.9977 45.3001 23.9202L45.0661 23.7785L44.3042 23.7085L44.093 23.5902C43.9172 23.4922 43.8097 23.4441 43.4415 23.3002L43.0013 23.1286L42.4733 23.0719L41.9469 23.0152L41.5278 23.1319L40.7659 23.5535L40.1761 23.6919V23.6936L38.8894 23.9819H37.7587L36.81 23.5552L35.0749 22.2753H35.0732C35.0612 22.2493 34.862 22.0456 34.6264 21.8503C34.3896 21.654 34.0696 21.2289 33.8986 20.9971C33.2508 20.1186 32.3639 18.1026 31.5153 15.5857C31.2535 14.8091 30.9258 13.8805 30.7875 13.5208C30.2364 12.0873 29.7262 10.5139 29.4927 9.52596C29.2928 8.68026 28.864 6.17766 28.6642 5.56866L28.4769 5Z" fill="url(#paint4_linear_4_4859)"/>
</g>
<defs>
<filter id="filter0_f_4_4859" x="3.2625" y="3.2625" width="57.475" height="57.475" filterUnits="userSpaceOnUse" color-interpolation-filters="sRGB">
<feFlood flood-opacity="0" result="BackgroundImageFix"/>
<feBlend mode="normal" in="SourceGraphic" in2="BackgroundImageFix" result="shape"/>
<feGaussianBlur stdDeviation="0.61875" result="effect1_foregroundBlur_4_4859"/>
</filter>
<linearGradient id="paint0_linear_4_4859" x1="4.5" y1="32" x2="59.5" y2="32" gradientUnits="userSpaceOnUse">
<stop stop-color="#FDFC47"/>
<stop offset="1" stop-color="#24FE41"/>
</linearGradient>
<linearGradient id="paint1_linear_4_4859" x1="4.5" y1="32" x2="59.5" y2="32" gradientUnits="userSpaceOnUse">
<stop stop-color="#FDFC47"/>
<stop offset="1" stop-color="#24FE41"/>
</linearGradient>
<linearGradient id="paint2_linear_4_4859" x1="12" y1="33.5" x2="52" y2="33.5" gradientUnits="userSpaceOnUse">
<stop stop-color="#FDFC47"/>
<stop offset="1" stop-color="#24FE41"/>
</linearGradient>
<linearGradient id="paint3_linear_4_4859" x1="28" y1="12" x2="47" y2="12" gradientUnits="userSpaceOnUse">
<stop stop-color="#FDFC47"/>
<stop offset="1" stop-color="#24FE41"/>
</linearGradient>
<linearGradient id="paint4_linear_4_4859" x1="9.37305" y1="24.4704" x2="60.8732" y2="24.4704" gradientUnits="userSpaceOnUse">
<stop stop-color="#FDFC47"/>
<stop offset="1" stop-color="#24FE41"/>
</linearGradient>
<clipPath id="clip0_4_4859">
<rect width="64" height="64" fill="white"/>
</clipPath>
</defs>
</svg>
