<svg width="64" height="64" viewBox="0 0 64 64" fill="none" xmlns="http://www.w3.org/2000/svg">
<g clip-path="url(#clip0_4_4810)">
<g opacity="0.3" filter="url(#filter0_f_4_4810)">
<path d="M44.5 4.5H19.5C11.2157 4.5 4.5 11.2157 4.5 19.5V44.5C4.5 52.7843 11.2157 59.5 19.5 59.5H44.5C52.7843 59.5 59.5 52.7843 59.5 44.5V19.5C59.5 11.2157 52.7843 4.5 44.5 4.5Z" fill="url(#paint0_linear_4_4810)"/>
</g>
<path d="M19.5 5H44.5C52.5081 5 59 11.4919 59 19.5V44.5C59 52.5081 52.5081 59 44.5 59H19.5C11.4919 59 5 52.5081 5 44.5V19.5C5 11.4919 11.4919 5 19.5 5Z" fill="#232323" stroke="url(#paint1_linear_4_4810)"/>
<path d="M29.4315 13.25C28.8021 13.25 28.2921 13.7335 28.2921 14.3334V18.669C28.2921 21.1307 26.1435 24.5676 24.0686 27.8218C21.8744 31.2586 17.4912 34.8138 17.0637 38.1178C17.0116 38.5211 16.9964 38.9143 17.0007 39.3015C30.6847 39.7569 42.8057 32.0908 42.9367 32.0065L43.9785 31.3364C43.2927 30.1607 41.5828 28.8797 40.4449 27.5964C37.6946 24.4949 35.8348 21.0866 35.8348 18.6685V14.3329C35.8348 13.733 35.3226 13.2495 34.6932 13.2495L29.4315 13.25ZM45.2525 33.213L44.4234 33.7407C37.5586 38.1125 27.0494 41.5794 17.2704 41.3888C18.6551 46.4166 24.1699 49.8113 24.452 49.9778C24.6364 50.0861 25.9322 50.7502 31.8724 50.7502C37.8104 50.7502 39.308 50.0861 39.4903 49.9778C39.8332 49.7771 47.8287 44.9078 46.9302 38.0458C46.724 36.4789 46.0902 34.8562 45.2525 33.213Z" fill="url(#paint2_linear_4_4810)"/>
</g>
<defs>
<filter id="filter0_f_4_4810" x="3.2625" y="3.2625" width="57.475" height="57.475" filterUnits="userSpaceOnUse" color-interpolation-filters="sRGB">
<feFlood flood-opacity="0" result="BackgroundImageFix"/>
<feBlend mode="normal" in="SourceGraphic" in2="BackgroundImageFix" result="shape"/>
<feGaussianBlur stdDeviation="0.61875" result="effect1_foregroundBlur_4_4810"/>
</filter>
<linearGradient id="paint0_linear_4_4810" x1="4.5" y1="32" x2="59.5" y2="32" gradientUnits="userSpaceOnUse">
<stop stop-color="#FDFC47"/>
<stop offset="1" stop-color="#24FE41"/>
</linearGradient>
<linearGradient id="paint1_linear_4_4810" x1="4.5" y1="32" x2="59.5" y2="32" gradientUnits="userSpaceOnUse">
<stop stop-color="#FDFC47"/>
<stop offset="1" stop-color="#24FE41"/>
</linearGradient>
<linearGradient id="paint2_linear_4_4810" x1="17" y1="31.9998" x2="47.0006" y2="31.9998" gradientUnits="userSpaceOnUse">
<stop stop-color="#FDFC47"/>
<stop offset="1" stop-color="#24FE41"/>
</linearGradient>
<clipPath id="clip0_4_4810">
<rect width="64" height="64" fill="white"/>
</clipPath>
</defs>
</svg>
