<svg width="64" height="64" viewBox="0 0 64 64" fill="none" xmlns="http://www.w3.org/2000/svg">
<g clip-path="url(#clip0_4_4536)">
<g opacity="0.3" filter="url(#filter0_f_4_4536)">
<path d="M44.5 4.5H19.5C11.2157 4.5 4.5 11.2157 4.5 19.5V44.5C4.5 52.7843 11.2157 59.5 19.5 59.5H44.5C52.7843 59.5 59.5 52.7843 59.5 44.5V19.5C59.5 11.2157 52.7843 4.5 44.5 4.5Z" fill="url(#paint0_linear_4_4536)"/>
</g>
<path d="M19.5 5H44.5C52.5081 5 59 11.4919 59 19.5V44.5C59 52.5081 52.5081 59 44.5 59H19.5C11.4919 59 5 52.5081 5 44.5V19.5C5 11.4919 11.4919 5 19.5 5Z" fill="#232323" stroke="url(#paint1_linear_4_4536)"/>
<path d="M32 11.9955C30.6185 11.9955 29.5 13.1139 29.5 14.4955V16.9955C29.5 18.377 30.6185 19.4955 32 19.4955C33.3769 19.4955 34.5 18.377 34.5 16.9955V14.4955C34.5 13.1139 33.3769 11.9955 32 11.9955ZM14.5 29.4955C13.1185 29.4955 12 30.6139 12 31.9955C12 33.377 13.1185 34.4955 14.5 34.4955H17C18.3769 34.4955 19.5 33.377 19.5 31.9955C19.5 30.6139 18.3769 29.4955 17 29.4955H14.5ZM47 29.4955C45.6185 29.4955 44.5 30.6139 44.5 31.9955C44.5 33.377 45.6185 34.4955 47 34.4955H49.5C50.8769 34.4955 52 33.377 52 31.9955C52 30.6139 50.8769 29.4955 49.5 29.4955H47ZM32 44.5045C30.6185 44.5045 29.5 45.623 29.5 47.0045V49.5045C29.5 50.8861 30.6185 52.0045 32 52.0045C33.3769 52.0045 34.5 50.8861 34.5 49.5045V47.0045C34.5 45.623 33.3769 44.5045 32 44.5045Z" fill="url(#paint2_linear_4_4536)"/>
<path d="M31.9998 16.6108C27.9196 16.6108 24.0065 18.2317 21.1213 21.1169C18.2361 24.0021 16.6152 27.9152 16.6152 31.9955C16.6152 36.0757 18.2361 39.9888 21.1213 42.874C24.0065 45.7592 27.9196 47.3801 31.9998 47.3801C36.0801 47.3801 39.9932 45.7592 42.8784 42.874C45.7636 39.9888 47.3845 36.0757 47.3845 31.9955C47.3845 27.9152 45.7636 24.0021 42.8784 21.1169C39.9932 18.2317 36.0801 16.6108 31.9998 16.6108ZM31.9998 19.6878C33.6161 19.6878 35.2166 20.0061 36.7098 20.6246C38.203 21.2431 39.5598 22.1497 40.7027 23.2926C41.8456 24.4355 42.7522 25.7923 43.3707 27.2855C43.9892 28.7787 44.3075 30.3792 44.3075 31.9955C44.3075 35.2597 43.0108 38.3902 40.7027 40.6983C38.3946 43.0064 35.2641 44.3031 31.9998 44.3031C30.3836 44.3031 28.7831 43.9848 27.2899 43.3663C25.7967 42.7478 24.4399 41.8412 23.297 40.6983C22.1541 39.5554 21.2475 38.1986 20.629 36.7054C20.0105 35.2122 19.6922 33.6117 19.6922 31.9955C19.6922 30.3792 20.0105 28.7787 20.629 27.2855C21.2475 25.7923 22.1541 24.4355 23.297 23.2926C24.4399 22.1497 25.7967 21.2431 27.2899 20.6246C28.7831 20.0061 30.3836 19.6878 31.9998 19.6878ZM31.9998 27.3801C31.3937 27.3801 30.7936 27.4995 30.2336 27.7314C29.6737 27.9633 29.1649 28.3033 28.7363 28.7319C28.3077 29.1605 27.9677 29.6693 27.7358 30.2292C27.5038 30.7892 27.3845 31.3894 27.3845 31.9955C27.3845 32.6016 27.5038 33.2017 27.7358 33.7617C27.9677 34.3217 28.3077 34.8305 28.7363 35.259C29.1649 35.6876 29.6737 36.0276 30.2336 36.2595C30.7936 36.4915 31.3937 36.6108 31.9998 36.6108C33.2239 36.6108 34.3979 36.1246 35.2634 35.259C36.129 34.3935 36.6152 33.2195 36.6152 31.9955C36.6152 31.3894 36.4959 30.7892 36.2639 30.2292C36.032 29.6693 35.692 29.1605 35.2634 28.7319C34.8348 28.3033 34.326 27.9633 33.7661 27.7314C33.2061 27.4995 32.6059 27.3801 31.9998 27.3801Z" fill="url(#paint3_linear_4_4536)"/>
<path d="M32.0003 22.7647C30.7881 22.7647 29.5878 23.0034 28.4678 23.4673C27.3479 23.9312 26.3303 24.6112 25.4732 25.4683C24.616 26.3255 23.9361 27.3431 23.4722 28.463C23.0083 29.5829 22.7695 30.7832 22.7695 31.9954C22.7695 33.2077 23.0083 34.408 23.4722 35.5279C23.9361 36.6478 24.616 37.6654 25.4732 38.5226C26.3303 39.3797 27.3479 40.0597 28.4678 40.5236C29.5878 40.9875 30.7881 41.2262 32.0003 41.2262C33.2125 41.2262 34.4128 40.9875 35.5328 40.5236C36.6527 40.0597 37.6703 39.3797 38.5274 38.5226C39.3846 37.6654 40.0645 36.6478 40.5284 35.5279C40.9923 34.408 41.2311 33.2077 41.2311 31.9954C41.2311 30.7832 40.9923 29.5829 40.5284 28.463C40.0645 27.3431 39.3846 26.3255 38.5274 25.4683C37.6703 24.6112 36.6527 23.9312 35.5328 23.4673C34.4128 23.0034 33.2125 22.7647 32.0003 22.7647ZM32.0003 24.3031C33.0105 24.3031 34.0107 24.5021 34.944 24.8887C35.8773 25.2753 36.7253 25.8419 37.4396 26.5562C38.1539 27.2705 38.7205 28.1185 39.1071 29.0517C39.4936 29.985 39.6926 30.9853 39.6926 31.9954C39.6926 34.0356 38.8822 35.9921 37.4396 37.4347C35.997 38.8773 34.0404 39.6878 32.0003 39.6878C29.9602 39.6878 28.0036 38.8773 26.561 37.4347C25.1184 35.9921 24.308 34.0356 24.308 31.9954C24.308 29.9553 25.1184 27.9988 26.561 26.5562C28.0036 25.1136 29.9602 24.3031 32.0003 24.3031Z" fill="url(#paint4_linear_4_4536)"/>
</g>
<defs>
<filter id="filter0_f_4_4536" x="3.2625" y="3.2625" width="57.475" height="57.475" filterUnits="userSpaceOnUse" color-interpolation-filters="sRGB">
<feFlood flood-opacity="0" result="BackgroundImageFix"/>
<feBlend mode="normal" in="SourceGraphic" in2="BackgroundImageFix" result="shape"/>
<feGaussianBlur stdDeviation="0.61875" result="effect1_foregroundBlur_4_4536"/>
</filter>
<linearGradient id="paint0_linear_4_4536" x1="4.5" y1="32" x2="59.5" y2="32" gradientUnits="userSpaceOnUse">
<stop stop-color="#FDFC47"/>
<stop offset="1" stop-color="#24FE41"/>
</linearGradient>
<linearGradient id="paint1_linear_4_4536" x1="4.5" y1="32" x2="59.5" y2="32" gradientUnits="userSpaceOnUse">
<stop stop-color="#FDFC47"/>
<stop offset="1" stop-color="#24FE41"/>
</linearGradient>
<linearGradient id="paint2_linear_4_4536" x1="12" y1="32" x2="52" y2="32" gradientUnits="userSpaceOnUse">
<stop stop-color="#FDFC47"/>
<stop offset="1" stop-color="#24FE41"/>
</linearGradient>
<linearGradient id="paint3_linear_4_4536" x1="16.6152" y1="31.9955" x2="47.3845" y2="31.9955" gradientUnits="userSpaceOnUse">
<stop stop-color="#FDFC47"/>
<stop offset="1" stop-color="#24FE41"/>
</linearGradient>
<linearGradient id="paint4_linear_4_4536" x1="22.7695" y1="31.9954" x2="41.2311" y2="31.9954" gradientUnits="userSpaceOnUse">
<stop stop-color="#FDFC47"/>
<stop offset="1" stop-color="#24FE41"/>
</linearGradient>
<clipPath id="clip0_4_4536">
<rect width="64" height="64" fill="white"/>
</clipPath>
</defs>
</svg>
