<svg width="64" height="64" viewBox="0 0 64 64" fill="none" xmlns="http://www.w3.org/2000/svg">
<g opacity="0.3" filter="url(#filter0_f_4_4511)">
<path d="M44.7812 4.59384H19.7812C11.497 4.59384 4.78125 11.3096 4.78125 19.5938V44.5938C4.78125 52.8781 11.497 59.5938 19.7812 59.5938H44.7812C53.0655 59.5938 59.7812 52.8781 59.7812 44.5938V19.5938C59.7812 11.3096 53.0655 4.59384 44.7812 4.59384Z" fill="url(#paint0_linear_4_4511)"/>
</g>
<path d="M19.7812 5.09384H44.7812C52.7894 5.09384 59.2812 11.5857 59.2812 19.5938V44.5938C59.2812 52.602 52.7894 59.0938 44.7812 59.0938H19.7812C11.7731 59.0938 5.28125 52.602 5.28125 44.5938V19.5938C5.28125 11.5857 11.7731 5.09384 19.7812 5.09384Z" fill="#232323" stroke="url(#paint1_linear_4_4511)"/>
<path d="M47.7754 24.2354V26.3197L49.9951 26.7858V24.6831C49.9951 24.3873 49.9688 24.1291 49.9152 23.9018C49.8599 23.6761 49.7831 23.4825 49.6843 23.3178C49.5851 23.1525 49.4651 23.0178 49.3264 22.9191C49.1864 22.8169 49.0324 22.7482 48.8637 22.707C48.5093 22.6229 48.2389 22.705 48.0551 22.9602C47.8682 23.2148 47.7754 23.6389 47.7754 24.2354Z" fill="url(#paint2_linear_4_4511)"/>
<path d="M54.7954 22.1497L49.1681 20.805C49.3454 20.8827 49.5195 20.9818 49.6879 21.1099C49.9562 21.3139 50.1936 21.5831 50.4013 21.9177C50.6064 22.2477 50.7689 22.6453 50.8901 23.1056C51.0112 23.5647 51.0714 24.0891 51.0714 24.6815V27.0117L53.3611 27.4928V29.4235L46.6341 28.1111V23.7518C46.6341 23.1299 46.689 22.6057 46.7978 22.1784C46.9065 21.7512 47.0578 21.4117 47.2556 21.164C47.4504 20.9145 47.6832 20.7532 47.9533 20.6779C48.1031 20.6366 48.2625 20.6213 48.429 20.6285L44.8555 19.7746V40.5038L49.606 41.0904C49.252 41.0144 48.921 40.8936 48.6163 40.722C48.1817 40.4771 47.8097 40.133 47.4999 39.6933C47.1916 39.2492 46.9507 38.7069 46.783 38.0671C46.6135 37.4226 46.5298 36.6814 46.5298 35.8406C46.5298 35.229 46.5725 34.6909 46.66 34.2298C46.7464 33.7664 46.8693 33.371 47.0297 33.0416C47.1896 32.7113 47.3813 32.4456 47.6058 32.2449C47.8283 32.0424 48.0772 31.8935 48.352 31.8L48.7525 33.7109C48.6082 33.7713 48.4733 33.8576 48.3439 33.9742C48.215 34.091 48.1017 34.2435 48.0049 34.4302C47.9087 34.6183 47.8305 34.8398 47.7731 35.0994C47.7163 35.3567 47.687 35.6561 47.687 35.9994C47.687 36.4987 47.7442 36.941 47.8564 37.3185C47.9703 37.6966 48.1312 38.017 48.3413 38.2779C48.5498 38.5394 48.7998 38.7428 49.0883 38.8883C49.3777 39.0358 49.6986 39.1284 50.0526 39.1696C50.4017 39.2094 50.7202 39.1896 51.0097 39.1112C51.2967 39.0302 51.5432 38.8847 51.7485 38.6786C51.953 38.4721 52.111 38.2003 52.2256 37.8627C52.3391 37.5242 52.3953 37.1166 52.3953 36.6388C52.3953 36.3559 52.3801 36.0863 52.3498 35.8206C52.3193 35.5563 52.2785 35.31 52.2286 35.0807C52.1762 34.8503 52.1193 34.6414 52.0512 34.4528C51.9849 34.2641 51.9176 34.1077 51.8455 33.9806L50.9346 33.837V36.1308L49.8992 35.9867V31.8588L52.331 32.2754C52.4818 32.5122 52.6248 32.7909 52.7608 33.1116C52.8958 33.4328 53.015 33.7862 53.1168 34.1732C53.2173 34.5597 53.2995 34.9784 53.3603 35.4258C53.4203 35.8733 53.4503 36.3427 53.4503 36.8348C53.4503 37.6495 53.3684 38.3415 53.2023 38.9105C53.0368 39.4808 52.8065 39.9405 52.508 40.29C52.2098 40.64 51.8519 40.8851 51.4365 41.0251C51.0877 41.1441 50.7079 41.1912 50.3009 41.1769L54.7946 41.7323V22.1497H54.7954Z" fill="url(#paint3_linear_4_4511)"/>
<path d="M16.1017 32.3868C16.1017 33.0847 16.0371 33.7719 15.9067 34.4444C15.7782 35.1178 15.581 35.7293 15.3165 36.2771C15.053 36.8139 14.7202 37.271 14.3202 37.6293C13.9233 37.98 13.4571 38.2064 12.9233 38.2924L10.8707 38.626V44.0468L9.20703 44.2254V29.0901L12.8512 28.1174C13.3923 27.9707 13.8663 27.9644 14.2709 28.0968C14.6788 28.241 15.0193 28.5019 15.2907 28.88C15.5643 29.2554 15.7679 29.7531 15.9009 30.3399C16.0345 30.9412 16.1017 31.6256 16.1017 32.3868ZM14.2403 32.843C14.2403 32.0194 14.106 31.4421 13.8384 31.0681C13.5729 30.701 13.1767 30.5906 12.6542 30.7236L10.8707 31.1471V36.1445L12.7022 35.7931C12.9647 35.7483 13.192 35.6434 13.3834 35.4739C13.5749 35.3086 13.735 35.1055 13.8631 34.8473C13.9914 34.5894 14.0868 34.2791 14.1474 33.9475C14.2098 33.6086 14.2403 33.2372 14.2403 32.843Z" fill="#3D3732"/>
<path d="M35.2647 33.3049C35.6707 33.0855 36.0481 32.7834 36.3977 32.4072C36.7483 32.02 37.0536 31.5712 37.3118 31.0441C37.5717 30.5233 37.7753 29.9412 37.9232 29.2954C38.0712 28.6488 38.1461 27.9604 38.1461 27.2198C38.1461 26.3111 38.0429 25.5175 37.8382 24.8422C37.6345 24.1675 37.326 23.6308 36.916 23.2251C36.5084 22.8278 36.0037 22.5708 35.4054 22.46C34.8123 22.3465 34.1267 22.3944 33.3508 22.6039L27.4902 24.1814V42.2682L29.8743 42.0082V34.9962L32.8012 34.4991L35.7099 41.3793L38.8135 41.0476L35.2647 33.3049ZM34.8458 30.2122C34.6634 30.5074 34.4308 30.7484 34.1491 30.9487C33.8681 31.1465 33.5353 31.2762 33.1503 31.3558L29.8743 31.9935V26.5409L33.0802 25.764C33.8107 25.5821 34.3797 25.6747 34.7824 26.0323C35.1881 26.3954 35.3916 27.0493 35.3916 27.9931C35.3916 28.4235 35.3465 28.8244 35.2556 29.2004C35.1655 29.5789 35.0283 29.9151 34.8458 30.2122Z" fill="#3D3732"/>
<path d="M40.8926 23.9088L43.8874 23.1915V19.7746L40.8926 20.5784V23.9088Z" fill="#3D3732"/>
<path d="M43.8874 40.5038V24.1857L40.8926 24.903V40.8241L43.8874 40.5038Z" fill="#3D3732"/>
<path d="M21.6479 25.7682C21.4835 25.7991 21.2852 25.8575 21.2852 25.8575C21.6479 29.8782 22.5799 37.3019 24.5465 42.5853L25.5969 42.4771C23.3139 36.5913 22.0203 29.6131 21.6479 25.7682Z" fill="url(#paint4_linear_4_4511)"/>
<path d="M21.1494 25.8971L20.7734 26.0062C20.8952 30.2388 21.111 38.1175 21.683 42.8924L22.5295 42.8087C21.7843 38.172 21.2955 30.1746 21.1494 25.8971Z" fill="url(#paint5_linear_4_4511)"/>
<path d="M20.6509 26.044L20.2832 26.1436C20.1393 30.454 19.6679 38.5038 18.9609 43.1902L19.762 43.0969C20.3266 38.2969 20.5618 30.333 20.6509 26.044Z" fill="url(#paint6_linear_4_4511)"/>
<path d="M20.1499 26.1828L19.7974 26.2774C19.4405 30.2231 18.2393 37.4246 16.2461 43.4769L17.1394 43.3814C18.8557 37.921 19.7959 30.3241 20.1499 26.1828Z" fill="url(#paint7_linear_4_4511)"/>
<defs>
<filter id="filter0_f_4_4511" x="3.54375" y="3.35634" width="57.475" height="57.475" filterUnits="userSpaceOnUse" color-interpolation-filters="sRGB">
<feFlood flood-opacity="0" result="BackgroundImageFix"/>
<feBlend mode="normal" in="SourceGraphic" in2="BackgroundImageFix" result="shape"/>
<feGaussianBlur stdDeviation="0.61875" result="effect1_foregroundBlur_4_4511"/>
</filter>
<linearGradient id="paint0_linear_4_4511" x1="4.78125" y1="32.0938" x2="59.7812" y2="32.0938" gradientUnits="userSpaceOnUse">
<stop stop-color="#FDFC47"/>
<stop offset="1" stop-color="#24FE41"/>
</linearGradient>
<linearGradient id="paint1_linear_4_4511" x1="4.78125" y1="32.0938" x2="59.7812" y2="32.0938" gradientUnits="userSpaceOnUse">
<stop stop-color="#FDFC47"/>
<stop offset="1" stop-color="#24FE41"/>
</linearGradient>
<linearGradient id="paint2_linear_4_4511" x1="47.7754" y1="24.7305" x2="49.9951" y2="24.7305" gradientUnits="userSpaceOnUse">
<stop stop-color="#FDFC47"/>
<stop offset="1" stop-color="#24FE41"/>
</linearGradient>
<linearGradient id="paint3_linear_4_4511" x1="44.8555" y1="30.7534" x2="54.7954" y2="30.7534" gradientUnits="userSpaceOnUse">
<stop stop-color="#FDFC47"/>
<stop offset="1" stop-color="#24FE41"/>
</linearGradient>
<linearGradient id="paint4_linear_4_4511" x1="21.2852" y1="34.1768" x2="25.5969" y2="34.1768" gradientUnits="userSpaceOnUse">
<stop stop-color="#FDFC47"/>
<stop offset="1" stop-color="#24FE41"/>
</linearGradient>
<linearGradient id="paint5_linear_4_4511" x1="20.7734" y1="34.3947" x2="22.5295" y2="34.3947" gradientUnits="userSpaceOnUse">
<stop stop-color="#FDFC47"/>
<stop offset="1" stop-color="#24FE41"/>
</linearGradient>
<linearGradient id="paint6_linear_4_4511" x1="18.9609" y1="34.6171" x2="20.6509" y2="34.6171" gradientUnits="userSpaceOnUse">
<stop stop-color="#FDFC47"/>
<stop offset="1" stop-color="#24FE41"/>
</linearGradient>
<linearGradient id="paint7_linear_4_4511" x1="16.2461" y1="34.8298" x2="20.1499" y2="34.8298" gradientUnits="userSpaceOnUse">
<stop stop-color="#FDFC47"/>
<stop offset="1" stop-color="#24FE41"/>
</linearGradient>
</defs>
</svg>
