<svg width="64" height="64" viewBox="0 0 64 64" fill="none" xmlns="http://www.w3.org/2000/svg">
<g clip-path="url(#clip0_4_4493)">
<g opacity="0.3" filter="url(#filter0_f_4_4493)">
<path d="M44.5 4.5H19.5C11.2157 4.5 4.5 11.2157 4.5 19.5V44.5C4.5 52.7843 11.2157 59.5 19.5 59.5H44.5C52.7843 59.5 59.5 52.7843 59.5 44.5V19.5C59.5 11.2157 52.7843 4.5 44.5 4.5Z" fill="url(#paint0_linear_4_4493)"/>
</g>
<path d="M19.5 5H44.5C52.5081 5 59 11.4919 59 19.5V44.5C59 52.5081 52.5081 59 44.5 59H19.5C11.4919 59 5 52.5081 5 44.5V19.5C5 11.4919 11.4919 5 19.5 5Z" fill="#232323" stroke="url(#paint1_linear_4_4493)"/>
<path opacity="0.5" d="M21.2559 15.264C17.9796 15.2673 14.8333 16.5464 12.4841 18.8303C10.1349 21.1141 8.76757 24.223 8.6719 27.498C6.92149 28.1045 5.32634 29.0895 4 30.3828V39.2832C5.1722 39.0388 6.3505 38.8336 7.541 38.7012C7.64679 34.0933 11.4185 30.4119 16.0351 30.4082C16.0416 30.4089 16.0481 30.4095 16.0546 30.4102C16.1287 23.7648 21.5443 18.4162 28.2006 18.4142C28.6987 18.4147 29.1928 18.4566 29.685 18.5177C27.374 16.4283 24.3714 15.2693 21.2559 15.264ZM54.9099 28.93C55.0241 29.6561 55.1012 30.3945 55.1013 31.1527C55.0958 33.098 54.6917 35.0216 53.9138 36.805C56.0212 37.5242 58.0545 38.4375 60.0017 39.514V30.4925C58.496 29.4802 56.7242 28.9365 54.9099 28.93Z" fill="url(#paint2_linear_4_4493)"/>
<g opacity="0.05" filter="url(#filter1_f_4_4493)">
<path d="M40.8239 14.896C37.9814 14.9006 35.2049 15.752 32.8499 17.3413C31.3765 16.7304 29.7971 16.4152 28.2017 16.4135C25.003 16.4144 21.9337 17.6744 19.6597 19.9202C17.3856 22.166 16.0903 25.2163 16.0547 28.4095C16.0482 28.4089 16.0417 28.4082 16.0351 28.4075C13.8153 28.4093 11.6843 29.2778 10.0974 30.8275C8.51046 32.3771 7.5936 34.485 7.54273 36.7006C5.98923 36.8734 4.44795 37.1421 2.92773 37.5052C4.58545 43.9501 8.34221 49.6619 13.607 53.7421C18.8718 57.8222 25.3459 60.0392 32.0107 60.0442C38.5798 60.0373 44.9656 57.8815 50.1907 53.9068C55.4159 49.9321 59.1926 44.3575 60.9427 38.0362C58.7171 36.722 56.3624 35.6388 53.9156 34.8038C54.6936 33.0203 55.0977 31.0968 55.1031 29.1515C55.1029 25.3707 53.5984 21.7448 50.9206 19.0713C48.2428 16.3979 44.6108 14.8963 40.8239 14.896Z" fill="url(#paint3_linear_4_4493)"/>
</g>
<path d="M40.8223 16.8965C37.9798 16.9011 35.2046 17.7525 32.8496 19.3418C31.3762 18.7309 29.7965 18.4157 28.2012 18.4141C21.5444 18.4159 16.1287 23.7649 16.0547 30.4102C16.0482 30.4095 16.0417 30.4089 16.0352 30.4082C11.4185 30.4119 7.64682 34.0933 7.54102 38.7012C6.51921 38.8149 5.50769 38.9898 4.5 39.1895V44.5C4.5 52.81 11.19 59.5 19.5 59.5H44.5C52.81 59.5 59.5 52.81 59.5 44.5V39.25C57.705 38.2905 55.8424 37.4628 53.9141 36.8047C54.692 35.0212 55.0961 33.0975 55.1016 31.1523C55.101 23.2792 48.7078 16.8975 40.8223 16.8965Z" fill="url(#paint4_linear_4_4493)"/>
<path d="M32 23C23.1773 23 16 30.1773 16 39C16 47.8227 23.1773 55 32 55C40.8227 55 48 47.8227 48 39C48 30.1773 40.8227 23 32 23ZM32 25.666C39.352 25.666 45.334 31.648 45.334 39C45.334 46.352 39.352 52.334 32 52.334C24.648 52.334 18.666 46.352 18.666 39C18.666 31.648 24.648 25.666 32 25.666ZM27.334 31C26.2287 31 25.334 31.896 25.334 33V46.334C25.334 47.438 26.2287 48.334 27.334 48.334C28.4393 48.334 29.334 47.438 29.334 46.334V43H34C37.308 43 40 40.308 40 37C40 33.692 37.308 31 34 31H27.334ZM29.334 35H34C35.1027 35 36 35.8973 36 37C36 38.1027 35.1027 39 34 39H29.334V35Z" fill="#232323"/>
<g opacity="0.15" filter="url(#filter2_f_4_4493)">
<path d="M32 23C23.1773 23 16 30.1773 16 39C16 39.1689 16.0202 39.3324 16.0254 39.5C16.2929 30.91 23.3462 24 32.0004 24C40.6542 24 47.7074 30.91 47.9754 39.5C47.9806 39.3324 48.0008 39.1689 48.0008 39C48.0008 30.1773 40.8227 23 32 23ZM27.334 31C26.2287 31 25.334 31.896 25.334 33V34C25.334 32.896 26.2287 32 27.334 32H34C37.1394 32 39.7194 34.4253 39.9746 37.5C39.9883 37.3349 40 37.1686 40 37C40 33.692 37.308 31 34 31H27.334ZM35.9278 37.5C35.704 38.3598 34.9289 39 34.0001 39H29.3341V40H34.0001C35.1028 40 36.0001 39.1027 36.0001 38C36.0001 37.8262 35.9697 37.6609 35.9278 37.5ZM18.6918 39.5C18.6856 39.6673 18.6664 39.8312 18.6664 40C18.6664 47.352 24.6484 53.334 32.0004 53.334C39.3524 53.334 45.3344 47.352 45.3344 40C45.3344 39.8312 45.3153 39.6673 45.309 39.5C45.0431 46.6194 39.1836 52.334 32 52.334C24.8168 52.334 18.9578 46.6194 18.6918 39.5Z" fill="#232323"/>
</g>
</g>
<defs>
<filter id="filter0_f_4_4493" x="3.2625" y="3.2625" width="57.475" height="57.475" filterUnits="userSpaceOnUse" color-interpolation-filters="sRGB">
<feFlood flood-opacity="0" result="BackgroundImageFix"/>
<feBlend mode="normal" in="SourceGraphic" in2="BackgroundImageFix" result="shape"/>
<feGaussianBlur stdDeviation="0.61875" result="effect1_foregroundBlur_4_4493"/>
</filter>
<filter id="filter1_f_4_4493" x="1.38029" y="13.3485" width="61.1105" height="48.2432" filterUnits="userSpaceOnUse" color-interpolation-filters="sRGB">
<feFlood flood-opacity="0" result="BackgroundImageFix"/>
<feBlend mode="normal" in="SourceGraphic" in2="BackgroundImageFix" result="shape"/>
<feGaussianBlur stdDeviation="0.773724" result="effect1_foregroundBlur_4_4493"/>
</filter>
<filter id="filter2_f_4_4493" x="14.7533" y="21.7533" width="34.4934" height="32.8273" filterUnits="userSpaceOnUse" color-interpolation-filters="sRGB">
<feFlood flood-opacity="0" result="BackgroundImageFix"/>
<feBlend mode="normal" in="SourceGraphic" in2="BackgroundImageFix" result="shape"/>
<feGaussianBlur stdDeviation="0.62334" result="effect1_foregroundBlur_4_4493"/>
</filter>
<linearGradient id="paint0_linear_4_4493" x1="4.5" y1="32" x2="59.5" y2="32" gradientUnits="userSpaceOnUse">
<stop stop-color="#FDFC47"/>
<stop offset="1" stop-color="#24FE41"/>
</linearGradient>
<linearGradient id="paint1_linear_4_4493" x1="4.5" y1="32" x2="59.5" y2="32" gradientUnits="userSpaceOnUse">
<stop stop-color="#FDFC47"/>
<stop offset="1" stop-color="#24FE41"/>
</linearGradient>
<linearGradient id="paint2_linear_4_4493" x1="4" y1="27.3889" x2="60.0017" y2="27.3889" gradientUnits="userSpaceOnUse">
<stop stop-color="#FDFC47"/>
<stop offset="1" stop-color="#24FE41"/>
</linearGradient>
<linearGradient id="paint3_linear_4_4493" x1="2.92773" y1="37.4699" x2="60.9427" y2="37.4699" gradientUnits="userSpaceOnUse">
<stop stop-color="#FDFC47"/>
<stop offset="1" stop-color="#24FE41"/>
</linearGradient>
<linearGradient id="paint4_linear_4_4493" x1="4.5" y1="38.1982" x2="59.5" y2="38.1982" gradientUnits="userSpaceOnUse">
<stop stop-color="#FDFC47"/>
<stop offset="1" stop-color="#24FE41"/>
</linearGradient>
<clipPath id="clip0_4_4493">
<rect width="64" height="64" fill="white"/>
</clipPath>
</defs>
</svg>
