<svg width="64" height="64" viewBox="0 0 64 64" fill="none" xmlns="http://www.w3.org/2000/svg">
<g clip-path="url(#clip0_4_4479)">
<g opacity="0.3" filter="url(#filter0_f_4_4479)">
<path d="M44.5 4.5H19.5C11.2157 4.5 4.5 11.2157 4.5 19.5V44.5C4.5 52.7843 11.2157 59.5 19.5 59.5H44.5C52.7843 59.5 59.5 52.7843 59.5 44.5V19.5C59.5 11.2157 52.7843 4.5 44.5 4.5Z" fill="url(#paint0_linear_4_4479)"/>
</g>
<path d="M19.5 4.99951H44.501C52.5091 4.99951 59.001 11.4914 59.001 19.4995V44.5005C59.001 52.5086 52.5091 59.0005 44.501 59.0005H19.5C11.4919 59.0005 5 52.5086 5 44.5005V19.4995C5 11.4914 11.4919 4.99951 19.5 4.99951Z" fill="#232323" stroke="url(#paint1_linear_4_4479)"/>
<path d="M21.7129 14.0002L43.5698 18.5002L21.7129 23.0001V14.0002Z" fill="url(#paint2_linear_4_4479)"/>
<path d="M21.7129 26.8572L43.5698 31.3572L21.7129 35.8571V26.8572Z" fill="url(#paint3_linear_4_4479)"/>
<path opacity="0.5" d="M25.5703 21.7144L42.2844 24.9287L25.5703 28.1429V21.7144Z" fill="url(#paint4_linear_4_4479)"/>
<path opacity="0.5" d="M29.4276 37.1428L24.9277 49.9998L20.4277 37.1428H29.4276Z" fill="url(#paint5_linear_4_4479)"/>
<path opacity="0.5" d="M40.9999 37.1428L36.4999 49.9998L32 37.1428H40.9999Z" fill="url(#paint6_linear_4_4479)"/>
</g>
<defs>
<filter id="filter0_f_4_4479" x="3.2625" y="3.2625" width="57.475" height="57.475" filterUnits="userSpaceOnUse" color-interpolation-filters="sRGB">
<feFlood flood-opacity="0" result="BackgroundImageFix"/>
<feBlend mode="normal" in="SourceGraphic" in2="BackgroundImageFix" result="shape"/>
<feGaussianBlur stdDeviation="0.61875" result="effect1_foregroundBlur_4_4479"/>
</filter>
<linearGradient id="paint0_linear_4_4479" x1="4.5" y1="32" x2="59.5" y2="32" gradientUnits="userSpaceOnUse">
<stop stop-color="#FDFC47"/>
<stop offset="1" stop-color="#24FE41"/>
</linearGradient>
<linearGradient id="paint1_linear_4_4479" x1="4.5" y1="32" x2="59.501" y2="32" gradientUnits="userSpaceOnUse">
<stop stop-color="#FDFC47"/>
<stop offset="1" stop-color="#24FE41"/>
</linearGradient>
<linearGradient id="paint2_linear_4_4479" x1="21.7129" y1="18.5002" x2="43.5698" y2="18.5002" gradientUnits="userSpaceOnUse">
<stop stop-color="#FDFC47"/>
<stop offset="1" stop-color="#24FE41"/>
</linearGradient>
<linearGradient id="paint3_linear_4_4479" x1="21.7129" y1="31.3572" x2="43.5698" y2="31.3572" gradientUnits="userSpaceOnUse">
<stop stop-color="#FDFC47"/>
<stop offset="1" stop-color="#24FE41"/>
</linearGradient>
<linearGradient id="paint4_linear_4_4479" x1="25.5703" y1="24.9287" x2="42.2844" y2="24.9287" gradientUnits="userSpaceOnUse">
<stop stop-color="#FDFC47"/>
<stop offset="1" stop-color="#24FE41"/>
</linearGradient>
<linearGradient id="paint5_linear_4_4479" x1="20.4277" y1="43.5713" x2="29.4276" y2="43.5713" gradientUnits="userSpaceOnUse">
<stop stop-color="#FDFC47"/>
<stop offset="1" stop-color="#24FE41"/>
</linearGradient>
<linearGradient id="paint6_linear_4_4479" x1="32" y1="43.5713" x2="40.9999" y2="43.5713" gradientUnits="userSpaceOnUse">
<stop stop-color="#FDFC47"/>
<stop offset="1" stop-color="#24FE41"/>
</linearGradient>
<clipPath id="clip0_4_4479">
<rect width="64" height="64" fill="white"/>
</clipPath>
</defs>
</svg>
