<svg width="64" height="64" viewBox="0 0 64 64" fill="none" xmlns="http://www.w3.org/2000/svg">
<g clip-path="url(#clip0_4_4441)">
<path opacity="0.01" d="M16.5144 2C8.52359 2 2 8.74092 2 16.9982V49.002C2 57.2589 8.52359 64.0002 16.5144 64.0002H47.486C55.4768 64.0002 62.0004 57.2593 62.0004 49.002V16.9982C62.0004 8.7413 55.4768 2 47.486 2H16.5144ZM17.4859 3.96876H46.5163C53.487 3.96876 59.099 9.76742 59.099 16.9706V46.9685C59.099 54.1717 53.4874 59.9704 46.5163 59.9704H17.4859C10.5152 59.9704 4.90326 54.1717 4.90326 46.9685V16.9706C4.90326 9.76742 10.5148 3.96876 17.4859 3.96876Z" fill="url(#paint0_linear_4_4441)"/>
<path opacity="0.01" d="M16.474 2.99997C9.04031 2.99997 3.00391 9.2469 3.00391 16.9376V49.0627C3.00391 56.7535 9.04031 63.0004 16.474 63.0004H47.528C54.9617 63.0004 61 56.7535 61 49.0627V16.9376C61 9.2469 54.9617 2.99997 47.528 2.99997H16.474ZM17.5029 3.96872H46.4993C53.462 3.96872 59.0668 9.76738 59.0668 16.9705V46.9685C59.0668 54.1717 53.4617 59.9703 46.4993 59.9703H17.5029C10.5401 59.9703 4.93536 54.1717 4.93536 46.9685V16.9705C4.93536 9.76738 10.5405 3.96872 17.5029 3.96872Z" fill="url(#paint1_linear_4_4441)"/>
<path opacity="0.03" d="M16.2897 3.99994C9.23813 3.99994 3.5332 9.8141 3.5332 16.998V49.0018C3.5332 56.1857 9.46718 61.9998 16.5188 61.9998H47.51C54.5616 61.9998 60.4642 56.1857 60.4642 49.0018V16.998C60.4642 9.8141 54.757 3.99994 47.7058 3.99994H47.3396C54.1202 4.32693 59.4865 9.97889 59.4865 16.9708V46.9687C59.4865 54.1719 53.7948 59.9706 46.7243 59.9706H17.2793C10.2088 59.9706 4.51711 54.1719 4.51711 46.9687V16.9708C4.51711 9.97927 9.88377 4.32763 16.664 3.99994H16.2897Z" fill="url(#paint2_linear_4_4441)"/>
<path opacity="0.03" d="M4 46.9693V49.0005C4 55.6485 9.89574 61.0006 16.5441 61.0006H47.5053C54.1533 61.0006 60.0004 55.6485 60.0004 49.0005V47.0083C59.9792 54.1933 54.1904 59.9714 47.0003 59.9714H17.0021C9.79884 59.9714 4 54.1727 4 46.9693Z" fill="url(#paint3_linear_4_4441)"/>
<path opacity="0.05" d="M4 44.9999V47.2387C4 54.5659 9.94494 60.4647 16.5929 60.4647H47.4356C54.0835 60.4647 60.0001 54.5655 60.0001 47.2387V45.043C59.9789 52.962 54.1901 59.3302 47.0002 59.3302H17.0022C9.79904 59.3302 4 52.939 4 44.9999Z" fill="url(#paint4_linear_4_4441)"/>
<path d="M17.0015 4.49994H46.9971C53.9015 4.49994 59.4986 10.097 59.4986 17.0014V46.9971C59.4986 53.9014 53.9015 59.4985 46.9971 59.4985H17.0015C10.0971 59.4985 4.5 53.9014 4.5 46.9971V17.0014C4.5 10.097 10.0971 4.49994 17.0015 4.49994Z" fill="#232323" stroke="url(#paint5_linear_4_4441)"/>
<g opacity="0.5" filter="url(#filter0_f_4_4441)">
<path d="M44.0002 15.0001H20C17.2386 15.0001 15 17.2387 15 20.0001V44.0003C15 46.7617 17.2386 49.0003 20 49.0003H44.0002C46.7616 49.0003 49.0002 46.7617 49.0002 44.0003V20.0001C49.0002 17.2387 46.7616 15.0001 44.0002 15.0001Z" fill="url(#paint6_linear_4_4441)"/>
</g>
<path d="M44.0001 15.0001H20C17.2386 15.0001 15 17.2387 15 20.0001V44.0002C15 46.7617 17.2386 49.0003 20 49.0003H44.0001C46.7616 49.0003 49.0002 46.7617 49.0002 44.0002V20.0001C49.0002 17.2387 46.7616 15.0001 44.0001 15.0001Z" fill="url(#paint7_linear_4_4441)" fill-opacity="0.75"/>
<path d="M20 41.6512H31.7391V43.999H20V41.6512Z" fill="#232323"/>
<path d="M22.3477 20.5183V33.4313H24.6955V28.7359H27.0433C29.8694 28.7359 31.7387 27.5836 31.7387 24.6868V24.6272C31.7387 22.0131 30.464 20.5184 27.4262 20.5184L22.3477 20.5183ZM38.812 20.5206C36.2685 20.5206 34.0614 21.7979 34.0614 24.1294V24.2005C34.0614 25.8365 35.7022 27.2904 38.2458 27.9263C40.3653 28.4915 41.1599 29.0036 41.1599 29.71V29.7811C41.1599 30.5583 39.9425 31.0857 38.8121 31.0857C37.3991 31.0857 36.4208 30.5575 35.2904 29.639L33.7565 31.3012C35.2402 32.6436 36.9045 33.3629 38.8118 33.4335C41.4965 33.4335 43.4569 31.7549 43.4569 29.57V29.4989C43.4569 27.5642 41.9421 26.7571 39.3987 26.0506C37.2792 25.4854 36.4639 25.0894 36.4639 24.2416V24.0215C36.4639 23.3856 37.752 22.8682 38.8118 22.8682C39.8716 22.8682 40.6665 22.9439 41.7969 23.7211L43.1038 21.9396C41.7687 21.1331 40.6489 20.5206 38.812 20.5206ZM24.6952 22.8661H27.043C28.456 22.8661 29.3908 23.3552 29.3908 24.627V24.6866C29.3908 25.7464 28.456 26.3878 27.043 26.3878H24.6952V22.8661Z" fill="#232323"/>
</g>
<defs>
<filter id="filter0_f_4_4441" x="13.3" y="13.3001" width="37.4" height="37.4003" filterUnits="userSpaceOnUse" color-interpolation-filters="sRGB">
<feFlood flood-opacity="0" result="BackgroundImageFix"/>
<feBlend mode="normal" in="SourceGraphic" in2="BackgroundImageFix" result="shape"/>
<feGaussianBlur stdDeviation="0.850006" result="effect1_foregroundBlur_4_4441"/>
</filter>
<linearGradient id="paint0_linear_4_4441" x1="2" y1="33.0001" x2="62.0004" y2="33.0001" gradientUnits="userSpaceOnUse">
<stop stop-color="#FDFC47"/>
<stop offset="1" stop-color="#24FE41"/>
</linearGradient>
<linearGradient id="paint1_linear_4_4441" x1="3.00391" y1="33.0002" x2="61" y2="33.0002" gradientUnits="userSpaceOnUse">
<stop stop-color="#FDFC47"/>
<stop offset="1" stop-color="#24FE41"/>
</linearGradient>
<linearGradient id="paint2_linear_4_4441" x1="3.5332" y1="32.9999" x2="60.4642" y2="32.9999" gradientUnits="userSpaceOnUse">
<stop stop-color="#FDFC47"/>
<stop offset="1" stop-color="#24FE41"/>
</linearGradient>
<linearGradient id="paint3_linear_4_4441" x1="4" y1="53.985" x2="60.0004" y2="53.985" gradientUnits="userSpaceOnUse">
<stop stop-color="#FDFC47"/>
<stop offset="1" stop-color="#24FE41"/>
</linearGradient>
<linearGradient id="paint4_linear_4_4441" x1="4" y1="52.7323" x2="60.0001" y2="52.7323" gradientUnits="userSpaceOnUse">
<stop stop-color="#FDFC47"/>
<stop offset="1" stop-color="#24FE41"/>
</linearGradient>
<linearGradient id="paint5_linear_4_4441" x1="4" y1="31.9992" x2="59.9986" y2="31.9992" gradientUnits="userSpaceOnUse">
<stop stop-color="#FDFC47"/>
<stop offset="1" stop-color="#24FE41"/>
</linearGradient>
<linearGradient id="paint6_linear_4_4441" x1="15" y1="32.0002" x2="49.0002" y2="32.0002" gradientUnits="userSpaceOnUse">
<stop stop-color="#FDFC47"/>
<stop offset="1" stop-color="#24FE41"/>
</linearGradient>
<linearGradient id="paint7_linear_4_4441" x1="15" y1="32.0002" x2="49.0002" y2="32.0002" gradientUnits="userSpaceOnUse">
<stop stop-color="#FDFC47"/>
<stop offset="1" stop-color="#24FE41"/>
</linearGradient>
<clipPath id="clip0_4_4441">
<rect width="64" height="64" fill="white"/>
</clipPath>
</defs>
</svg>
