<svg width="64" height="64" viewBox="0 0 64 64" fill="none" xmlns="http://www.w3.org/2000/svg">
<g opacity="0.3" filter="url(#filter0_f_4_3702)">
<path d="M46.498 4.5H17.502C10.3212 4.5 4.5 10.3212 4.5 17.502V46.498C4.5 53.6788 10.3212 59.5 17.502 59.5H46.498C53.6788 59.5 59.5 53.6788 59.5 46.498V17.502C59.5 10.3212 53.6788 4.5 46.498 4.5Z" fill="url(#paint0_linear_4_3702)"/>
</g>
<rect x="59.0059" y="4.99701" width="54.001" height="54.001" rx="14.5" transform="rotate(90 59.0059 4.99701)" fill="#232323" stroke="url(#paint1_linear_4_3702)"/>
<path opacity="0.251767" d="M32.0005 54.0356C44.1704 54.0356 54.0361 44.1699 54.0361 32C54.0361 19.83 44.1704 9.96436 32.0005 9.96436C19.8305 9.96436 9.96484 19.83 9.96484 32C9.96484 44.1699 19.8305 54.0356 32.0005 54.0356Z" fill="url(#paint2_radial_4_3702)"/>
<path d="M25.0952 51.2423C29.0977 52.3164 31.837 46.8188 32.4793 40.6943C34.1054 47.9202 38.6315 53.8991 43.4213 48.5303C45.2002 46.5317 45.6116 44.9142 45.3416 43.6188C46.6616 43.7356 48.2246 43.1375 50.0057 41.1446C54.2296 36.4128 48.3062 32.4541 41.2765 31.3956C48.2271 29.6643 53.7174 25.2627 48.4899 20.6164C46.4848 18.8391 44.8632 18.4252 43.5655 18.6934C43.6816 17.376 43.0826 15.8157 41.0843 14.0367C36.4433 9.90887 32.5532 15.4734 31.3978 22.2832C29.4563 15.6511 24.943 10.569 20.8141 15.1998C19.0365 17.1955 18.6215 18.8132 18.8903 20.1085C17.5699 19.9903 16.0081 20.5877 14.2243 22.5823C9.5664 27.8033 15.5592 31.5485 22.6787 32.4663C15.8063 34.3172 10.357 38.9257 15.1111 43.1481C17.1121 44.9249 18.7356 45.3398 20.0332 45.0726C19.9161 46.3903 20.5129 47.949 22.5139 49.7312C23.4208 50.5372 24.2845 51.0247 25.0952 51.2423ZM32.0942 32.057C32.0874 32.0104 32.0859 31.9636 32.0726 31.9173C32.0851 31.9195 32.0995 31.9193 32.1122 31.9216C32.1039 31.9655 32.1017 32.013 32.0942 32.057Z" fill="url(#paint3_linear_4_3702)"/>
<path d="M25.0952 51.2423C29.0977 52.3164 31.837 46.8188 32.4793 40.6943C34.1054 47.9202 38.6315 53.8991 43.4213 48.5303C45.2002 46.5317 45.6116 44.9142 45.3416 43.6188C46.6616 43.7356 48.2246 43.1375 50.0057 41.1446C54.2296 36.4128 48.3062 32.4541 41.2765 31.3956C48.2271 29.6643 53.7174 25.2627 48.4899 20.6164C46.4848 18.8391 44.8632 18.4252 43.5655 18.6934C43.6816 17.376 43.0826 15.8157 41.0843 14.0367C36.4433 9.90887 32.5532 15.4734 31.3978 22.2832C29.4563 15.6511 24.943 10.569 20.8141 15.1998C19.0365 17.1955 18.6215 18.8132 18.8903 20.1085C17.5699 19.9903 16.0081 20.5877 14.2243 22.5823C9.5664 27.8033 15.5592 31.5485 22.6787 32.4663C15.8063 34.3172 10.357 38.9257 15.1111 43.1481C17.1121 44.9249 18.7356 45.3398 20.0332 45.0726C19.9161 46.3903 20.5129 47.949 22.5139 49.7312C23.4208 50.5372 24.2845 51.0247 25.0952 51.2423ZM32.0942 32.057C32.0874 32.0104 32.0859 31.9636 32.0726 31.9173C32.0851 31.9195 32.0995 31.9193 32.1122 31.9216C32.1039 31.9655 32.1017 32.013 32.0942 32.057Z" fill="url(#paint4_linear_4_3702)"/>
<path d="M25.0952 51.2423C29.0977 52.3164 31.837 46.8188 32.4793 40.6943C34.1054 47.9202 38.6315 53.8991 43.4213 48.5303C45.2002 46.5317 45.6116 44.9142 45.3416 43.6188C46.6616 43.7356 48.2246 43.1375 50.0057 41.1446C54.2296 36.4128 48.3062 32.4541 41.2765 31.3956C48.2271 29.6643 53.7174 25.2627 48.4899 20.6164C46.4848 18.8391 44.8632 18.4252 43.5655 18.6934C43.6816 17.376 43.0826 15.8157 41.0843 14.0367C36.4433 9.90887 32.5532 15.4734 31.3978 22.2832C29.4563 15.6511 24.943 10.569 20.8141 15.1998C19.0365 17.1955 18.6215 18.8132 18.8903 20.1085C17.5699 19.9903 16.0081 20.5877 14.2243 22.5823C9.5664 27.8033 15.5592 31.5485 22.6787 32.4663C15.8063 34.3172 10.357 38.9257 15.1111 43.1481C17.1121 44.9249 18.7356 45.3398 20.0332 45.0726C19.9161 46.3903 20.5129 47.949 22.5139 49.7312C23.4208 50.5372 24.2845 51.0247 25.0952 51.2423ZM32.0942 32.057C32.0874 32.0104 32.0859 31.9636 32.0726 31.9173C32.0851 31.9195 32.0995 31.9193 32.1122 31.9216C32.1039 31.9655 32.1017 32.013 32.0942 32.057Z" fill="url(#paint5_linear_4_3702)"/>
<path d="M25.0952 51.2423C29.0977 52.3164 31.837 46.8188 32.4793 40.6943C34.1054 47.9202 38.6315 53.8991 43.4213 48.5303C45.2002 46.5317 45.6116 44.9142 45.3416 43.6188C46.6616 43.7356 48.2246 43.1375 50.0057 41.1446C54.2296 36.4128 48.3062 32.4541 41.2765 31.3956C48.2271 29.6643 53.7174 25.2627 48.4899 20.6164C46.4848 18.8391 44.8632 18.4252 43.5655 18.6934C43.6816 17.376 43.0826 15.8157 41.0843 14.0367C36.4433 9.90887 32.5532 15.4734 31.3978 22.2832C29.4563 15.6511 24.943 10.569 20.8141 15.1998C19.0365 17.1955 18.6215 18.8132 18.8903 20.1085C17.5699 19.9903 16.0081 20.5877 14.2243 22.5823C9.5664 27.8033 15.5592 31.5485 22.6787 32.4663C15.8063 34.3172 10.357 38.9257 15.1111 43.1481C17.1121 44.9249 18.7356 45.3398 20.0332 45.0726C19.9161 46.3903 20.5129 47.949 22.5139 49.7312C23.4208 50.5372 24.2845 51.0247 25.0952 51.2423ZM32.0942 32.057C32.0874 32.0104 32.0859 31.9636 32.0726 31.9173C32.0851 31.9195 32.0995 31.9193 32.1122 31.9216C32.1039 31.9655 32.1017 32.013 32.0942 32.057Z" fill="url(#paint6_linear_4_3702)"/>
<defs>
<filter id="filter0_f_4_3702" x="2.3" y="2.3" width="59.4" height="59.4" filterUnits="userSpaceOnUse" color-interpolation-filters="sRGB">
<feFlood flood-opacity="0" result="BackgroundImageFix"/>
<feBlend mode="normal" in="SourceGraphic" in2="BackgroundImageFix" result="shape"/>
<feGaussianBlur stdDeviation="1.1" result="effect1_foregroundBlur_4_3702"/>
</filter>
<linearGradient id="paint0_linear_4_3702" x1="4.5" y1="32" x2="59.5" y2="32" gradientUnits="userSpaceOnUse">
<stop stop-color="#FDFC47"/>
<stop offset="1" stop-color="#24FE41"/>
</linearGradient>
<linearGradient id="paint1_linear_4_3702" x1="59.5059" y1="31.9975" x2="114.507" y2="31.9975" gradientUnits="userSpaceOnUse">
<stop stop-color="#FDFC47"/>
<stop offset="1" stop-color="#24FE41"/>
</linearGradient>
<radialGradient id="paint2_radial_4_3702" cx="0" cy="0" r="1" gradientUnits="userSpaceOnUse" gradientTransform="translate(32.0005 32) scale(22.0356)">
<stop/>
<stop offset="0.348669" stop-opacity="0.929412"/>
<stop offset="0.456138" stop-opacity="0.862745"/>
<stop offset="0.620385" stop-opacity="0.807843"/>
<stop offset="0.744482" stop-opacity="0.670588"/>
<stop offset="0.962625" stop-opacity="0.0745098"/>
<stop offset="1" stop-opacity="0"/>
</radialGradient>
<linearGradient id="paint3_linear_4_3702" x1="51.4199" y1="32" x2="12.5786" y2="32" gradientUnits="userSpaceOnUse">
<stop stop-color="#FDFC47"/>
<stop offset="1" stop-color="#24FE41"/>
</linearGradient>
<linearGradient id="paint4_linear_4_3702" x1="51.4199" y1="32" x2="12.5786" y2="32" gradientUnits="userSpaceOnUse">
<stop stop-color="#FDFC47"/>
<stop offset="1" stop-color="#24FE41"/>
</linearGradient>
<linearGradient id="paint5_linear_4_3702" x1="51.4199" y1="32" x2="12.5786" y2="32" gradientUnits="userSpaceOnUse">
<stop stop-color="#FDFC47"/>
<stop offset="1" stop-color="#24FE41"/>
</linearGradient>
<linearGradient id="paint6_linear_4_3702" x1="51.4199" y1="32" x2="12.5786" y2="32" gradientUnits="userSpaceOnUse">
<stop stop-color="#FDFC47"/>
<stop offset="1" stop-color="#24FE41"/>
</linearGradient>
</defs>
</svg>
