<svg width="64" height="64" viewBox="0 0 64 64" fill="none" xmlns="http://www.w3.org/2000/svg">
<g clip-path="url(#clip0_4_3685)">
<g opacity="0.3" filter="url(#filter0_f_4_3685)">
<path d="M44.5 4.5H19.5C11.2157 4.5 4.5 11.2157 4.5 19.5V44.5C4.5 52.7843 11.2157 59.5 19.5 59.5H44.5C52.7843 59.5 59.5 52.7843 59.5 44.5V19.5C59.5 11.2157 52.7843 4.5 44.5 4.5Z" fill="url(#paint0_linear_4_3685)"/>
</g>
<path d="M19.5 5H44.5C52.5081 5 59 11.4919 59 19.5V44.5C59 52.5081 52.5081 59 44.5 59H19.5C11.4919 59 5 52.5081 5 44.5V19.5C5 11.4919 11.4919 5 19.5 5Z" fill="#232323" stroke="url(#paint1_linear_4_3685)"/>
<path opacity="0.1" d="M43.5277 12.1881C43.1908 12.1813 42.7692 12.2424 42.2406 12.3619L33.3753 14.1607L33.182 14.1998L25.135 15.7877C23.6563 16.1038 23.3696 16.9285 23.4045 18.233V18.7311C23.3719 17.4339 23.6611 16.6125 25.135 16.2974L33.182 14.7095L33.3753 14.6705L42.2406 12.8717C42.7692 12.7522 43.1908 12.691 43.5277 12.6978V12.6998C44.5384 12.72 44.7771 13.3394 44.7777 14.733V14.2232C44.7771 12.8296 44.5385 12.2102 43.5277 12.19V12.1881ZM25.5706 26.3072C25.5621 26.5387 25.5738 26.7987 25.5725 27.0962V26.5865C25.573 26.482 25.572 26.4032 25.5706 26.3072ZM42.6237 34.8228C42.5563 36.2462 42.4123 36.8999 40.7702 37.1626C34.9436 38.0299 33.7971 39.9662 33.8326 42.5318C33.8334 42.5864 33.8476 42.6359 33.8502 42.69C33.9294 40.3019 35.2168 38.497 40.7702 37.6704C42.4166 37.407 42.5565 36.7519 42.6237 35.3208L42.6237 34.8228ZM23.4286 38.6021C23.3612 40.0291 23.2033 40.8138 21.5595 41.0768C15.7328 41.944 14.602 43.7474 14.6375 46.3131C14.6383 46.3686 14.6524 46.4202 14.6551 46.4752C14.733 44.0985 16.0062 42.4131 21.5594 41.5865C23.2059 41.3231 23.3614 40.5371 23.4286 39.106L23.4286 38.6021ZM25.5966 42.7838V43.2935C25.6169 43.6339 25.6197 43.9684 25.622 44.3013C25.633 43.8089 25.6275 43.3004 25.5966 42.7838Z" fill="url(#paint2_linear_4_3685)"/>
<path d="M31.3301 11.131C29.5818 11.131 27.8401 12.4344 25.4785 15.0431C28.5555 13.5196 34.0681 13.4635 37.2165 15.0431C34.8322 12.4344 33.0784 11.131 31.3301 11.131ZM32.0001 16.3458V16.3478C27.8004 16.3478 23.9606 17.8924 20.9961 20.4298L18.9766 18.3497L17.2246 20.1895L19.2266 22.1915C16.63 25.1719 15.043 29.0528 15.043 33.3045C15.043 42.6554 22.6505 50.2595 32 50.2595C41.2543 50.2595 48.769 42.8041 48.926 33.5875C48.9462 33.4938 48.956 33.3981 48.9553 33.3023C48.9563 33.2052 48.9465 33.1082 48.926 33.0132C48.7668 23.8045 41.2521 16.3458 32.0001 16.3458ZM32.0001 18.9552C39.941 18.9552 46.3481 25.3672 46.3481 33.3032C46.3481 41.2454 39.9439 47.6512 32.0001 47.6512C24.0579 47.6512 17.6521 41.247 17.6521 33.3032C17.6521 25.3662 24.0589 18.9552 32.0001 18.9552ZM31.9805 23.7286C31.6348 23.7336 31.3052 23.8758 31.0642 24.1237C30.8232 24.3717 30.6905 24.7052 30.6953 25.0509V33.4513L38.1055 40.9806C38.2257 41.1027 38.3687 41.1999 38.5265 41.2667C38.6842 41.3335 38.8536 41.3686 39.0249 41.37C39.1962 41.3714 39.3661 41.339 39.5249 41.2747C39.6836 41.2104 39.8282 41.1154 39.9503 40.9953C40.0724 40.8751 40.1696 40.7321 40.2364 40.5743C40.3032 40.4166 40.3383 40.2472 40.3397 40.0759C40.341 39.9046 40.3086 39.7347 40.2443 39.5759C40.18 39.4172 40.0851 39.2726 39.9649 39.1505L33.3047 32.3829V25.0509C33.3072 24.8764 33.2746 24.7032 33.2088 24.5416C33.1431 24.3799 33.0457 24.2331 32.9222 24.1098C32.7987 23.9865 32.6517 23.8892 32.49 23.8238C32.3283 23.7583 32.155 23.7259 31.9805 23.7286Z" fill="url(#paint3_linear_4_3685)"/>
</g>
<defs>
<filter id="filter0_f_4_3685" x="3.2625" y="3.2625" width="57.475" height="57.475" filterUnits="userSpaceOnUse" color-interpolation-filters="sRGB">
<feFlood flood-opacity="0" result="BackgroundImageFix"/>
<feBlend mode="normal" in="SourceGraphic" in2="BackgroundImageFix" result="shape"/>
<feGaussianBlur stdDeviation="0.61875" result="effect1_foregroundBlur_4_3685"/>
</filter>
<linearGradient id="paint0_linear_4_3685" x1="4.5" y1="32" x2="59.5" y2="32" gradientUnits="userSpaceOnUse">
<stop stop-color="#FDFC47"/>
<stop offset="1" stop-color="#24FE41"/>
</linearGradient>
<linearGradient id="paint1_linear_4_3685" x1="4.5" y1="32" x2="59.5" y2="32" gradientUnits="userSpaceOnUse">
<stop stop-color="#FDFC47"/>
<stop offset="1" stop-color="#24FE41"/>
</linearGradient>
<linearGradient id="paint2_linear_4_3685" x1="14.6367" y1="29.3314" x2="44.7777" y2="29.3314" gradientUnits="userSpaceOnUse">
<stop stop-color="#FDFC47"/>
<stop offset="1" stop-color="#24FE41"/>
</linearGradient>
<linearGradient id="paint3_linear_4_3685" x1="15.043" y1="30.6952" x2="48.9553" y2="30.6952" gradientUnits="userSpaceOnUse">
<stop stop-color="#FDFC47"/>
<stop offset="1" stop-color="#24FE41"/>
</linearGradient>
<clipPath id="clip0_4_3685">
<rect width="64" height="64" fill="white"/>
</clipPath>
</defs>
</svg>
