<svg width="64" height="64" viewBox="0 0 64 64" fill="none" xmlns="http://www.w3.org/2000/svg">
<g clip-path="url(#clip0_4_2851)">
<g opacity="0.3" filter="url(#filter0_f_4_2851)">
<path d="M44.5 4.5H19.5C11.2157 4.5 4.5 11.2157 4.5 19.5V44.5C4.5 52.7843 11.2157 59.5 19.5 59.5H44.5C52.7843 59.5 59.5 52.7843 59.5 44.5V19.5C59.5 11.2157 52.7843 4.5 44.5 4.5Z" fill="url(#paint0_linear_4_2851)"/>
</g>
<path d="M19.5 5H44.5C52.5081 5 59 11.4919 59 19.5V44.5C59 52.5081 52.5081 59 44.5 59H19.5C11.4919 59 5 52.5081 5 44.5V19.5C5 11.4919 11.4919 5 19.5 5Z" fill="#232323" stroke="url(#paint1_linear_4_2851)"/>
<path opacity="0.6" d="M32 21C30.3431 21 29 19.6569 29 18C29 16.3431 30.3431 15 32 15C33.6569 15 35 16.3431 35 18C35 19.6569 33.6569 21 32 21Z" fill="url(#paint2_linear_4_2851)"/>
<path d="M32 49C30.3431 49 29 47.6569 29 46C29 44.3431 30.3431 43 32 43C33.6569 43 35 44.3431 35 46C35 47.6569 33.6569 49 32 49Z" fill="url(#paint3_linear_4_2851)"/>
<path opacity="0.4" d="M43 32C43 30.3431 44.3431 29 46 29C47.6569 29 49 30.3431 49 32C49 33.6569 47.6569 35 46 35C44.3431 35 43 33.6569 43 32Z" fill="url(#paint4_linear_4_2851)"/>
<path opacity="0.8" d="M15 32C15 30.3431 16.3431 29 18 29C19.6569 29 21 30.3431 21 32C21 33.6569 19.6569 35 18 35C16.3431 35 15 33.6569 15 32Z" fill="url(#paint5_linear_4_2851)"/>
<path opacity="0.3" d="M39.7771 39.7777C40.9487 38.6062 42.8482 38.6062 44.0198 39.7777C45.1913 40.9493 45.1913 42.8488 44.0198 44.0204C42.8482 45.1919 40.9487 45.1919 39.7771 44.0204C38.6055 42.8488 38.6055 40.9493 39.7771 39.7777Z" fill="url(#paint6_linear_4_2851)"/>
<path opacity="0.7" d="M19.9783 19.9788C21.1499 18.8072 23.0494 18.8072 24.2209 19.9788C25.3925 21.1503 25.3925 23.0498 24.2209 24.2214C23.0494 25.393 21.1499 25.393 19.9783 24.2214C18.8067 23.0498 18.8067 21.1503 19.9783 19.9788Z" fill="url(#paint7_linear_4_2851)"/>
<path opacity="0.9" d="M24.2209 39.7777C23.0494 38.6062 21.1499 38.6062 19.9783 39.7777C18.8067 40.9493 18.8067 42.8488 19.9783 44.0204C21.1499 45.1919 23.0494 45.1919 24.2209 44.0204C25.3925 42.8488 25.3925 40.9493 24.2209 39.7777Z" fill="url(#paint8_linear_4_2851)"/>
<path opacity="0.5" d="M44.0198 19.9788C42.8482 18.8072 40.9487 18.8072 39.7771 19.9788C38.6055 21.1503 38.6055 23.0498 39.7771 24.2214C40.9487 25.393 42.8482 25.393 44.0198 24.2214C45.1913 23.0498 45.1913 21.1503 44.0198 19.9788Z" fill="url(#paint9_linear_4_2851)"/>
</g>
<defs>
<filter id="filter0_f_4_2851" x="3.2625" y="3.2625" width="57.475" height="57.475" filterUnits="userSpaceOnUse" color-interpolation-filters="sRGB">
<feFlood flood-opacity="0" result="BackgroundImageFix"/>
<feBlend mode="normal" in="SourceGraphic" in2="BackgroundImageFix" result="shape"/>
<feGaussianBlur stdDeviation="0.61875" result="effect1_foregroundBlur_4_2851"/>
</filter>
<linearGradient id="paint0_linear_4_2851" x1="4.5" y1="32" x2="59.5" y2="32" gradientUnits="userSpaceOnUse">
<stop stop-color="#FDFC47"/>
<stop offset="1" stop-color="#24FE41"/>
</linearGradient>
<linearGradient id="paint1_linear_4_2851" x1="4.5" y1="32" x2="59.5" y2="32" gradientUnits="userSpaceOnUse">
<stop stop-color="#FDFC47"/>
<stop offset="1" stop-color="#24FE41"/>
</linearGradient>
<linearGradient id="paint2_linear_4_2851" x1="35" y1="18" x2="29" y2="18" gradientUnits="userSpaceOnUse">
<stop stop-color="#FDFC47"/>
<stop offset="1" stop-color="#24FE41"/>
</linearGradient>
<linearGradient id="paint3_linear_4_2851" x1="35" y1="46" x2="29" y2="46" gradientUnits="userSpaceOnUse">
<stop stop-color="#FDFC47"/>
<stop offset="1" stop-color="#24FE41"/>
</linearGradient>
<linearGradient id="paint4_linear_4_2851" x1="46" y1="35" x2="46" y2="29" gradientUnits="userSpaceOnUse">
<stop stop-color="#FDFC47"/>
<stop offset="1" stop-color="#24FE41"/>
</linearGradient>
<linearGradient id="paint5_linear_4_2851" x1="18" y1="35" x2="18" y2="29" gradientUnits="userSpaceOnUse">
<stop stop-color="#FDFC47"/>
<stop offset="1" stop-color="#24FE41"/>
</linearGradient>
<linearGradient id="paint6_linear_4_2851" x1="39.7771" y1="44.0204" x2="44.0198" y2="39.7777" gradientUnits="userSpaceOnUse">
<stop stop-color="#FDFC47"/>
<stop offset="1" stop-color="#24FE41"/>
</linearGradient>
<linearGradient id="paint7_linear_4_2851" x1="19.9783" y1="24.2214" x2="24.2209" y2="19.9788" gradientUnits="userSpaceOnUse">
<stop stop-color="#FDFC47"/>
<stop offset="1" stop-color="#24FE41"/>
</linearGradient>
<linearGradient id="paint8_linear_4_2851" x1="24.2209" y1="44.0204" x2="19.9783" y2="39.7777" gradientUnits="userSpaceOnUse">
<stop stop-color="#FDFC47"/>
<stop offset="1" stop-color="#24FE41"/>
</linearGradient>
<linearGradient id="paint9_linear_4_2851" x1="44.0198" y1="24.2214" x2="39.7771" y2="19.9788" gradientUnits="userSpaceOnUse">
<stop stop-color="#FDFC47"/>
<stop offset="1" stop-color="#24FE41"/>
</linearGradient>
<clipPath id="clip0_4_2851">
<rect width="64" height="64" fill="white"/>
</clipPath>
</defs>
</svg>
