<svg width="64" height="64" viewBox="0 0 64 64" fill="none" xmlns="http://www.w3.org/2000/svg">
<g clip-path="url(#clip0_4_3049)">
<g opacity="0.3" filter="url(#filter0_f_4_3049)">
<path d="M44.5 4.5H19.5C11.2157 4.5 4.5 11.2157 4.5 19.5V44.5C4.5 52.7843 11.2157 59.5 19.5 59.5H44.5C52.7843 59.5 59.5 52.7843 59.5 44.5V19.5C59.5 11.2157 52.7843 4.5 44.5 4.5Z" fill="url(#paint0_linear_4_3049)"/>
</g>
<path d="M19.5 5H44.5C52.5081 5 59 11.4919 59 19.5V44.5C59 52.5081 52.5081 59 44.5 59H19.5C11.4919 59 5 52.5081 5 44.5V19.5C5 11.4919 11.4919 5 19.5 5Z" fill="#232323" stroke="url(#paint1_linear_4_3049)"/>
<g filter="url(#filter1_f_4_3049)">
<path d="M32.0036 13.7952C26.803 13.8016 22.5888 18.0159 22.582 23.2167V29.0144C22.582 29.4147 22.9065 29.7391 23.3068 29.7391H26.2057C26.6059 29.7391 26.9304 29.4147 26.9304 29.0144V23.2167C26.9303 20.4149 29.2016 18.1437 32.0034 18.1437C34.8051 18.1437 37.0764 20.4149 37.0764 23.2167V29.0144C37.0764 29.4147 37.4009 29.7391 37.8011 29.7391H40.7C41.1002 29.7391 41.4247 29.4147 41.4247 29.0144V23.2167C41.4183 18.0161 37.2039 13.802 32.0032 13.7952H32.0036Z" fill="url(#paint2_linear_4_3049)"/>
<path d="M23.3072 28.2892H40.7003C42.7016 28.2892 44.3239 29.9116 44.3239 31.9128V44.9577C44.3239 46.959 42.7016 48.5813 40.7003 48.5813H23.3072C21.3059 48.5813 19.6836 46.959 19.6836 44.9578V31.9129C19.6836 29.9116 21.3059 28.2892 23.3072 28.2892Z" fill="url(#paint3_linear_4_3049)"/>
<path d="M35.628 36.2616C35.6364 34.2604 34.021 32.6312 32.0197 32.6227C30.0185 32.6143 28.3893 34.2298 28.3809 36.231C28.375 37.6143 29.1573 38.8802 30.397 39.4938L29.8375 43.4073C29.7815 43.8036 30.0573 44.1703 30.4536 44.2263C30.4872 44.2311 30.5211 44.2334 30.555 44.2334H33.4539C33.8541 44.2375 34.1819 43.9164 34.1859 43.5161C34.1862 43.4792 34.1838 43.4423 34.1785 43.4058L33.619 39.4924C34.8436 38.8795 35.6201 37.6308 35.628 36.2616Z" fill="url(#paint4_linear_4_3049)"/>
</g>
<path d="M32.0036 13.7952C26.803 13.8016 22.5888 18.0159 22.582 23.2167V29.0144C22.582 29.4147 22.9065 29.7391 23.3068 29.7391H26.2057C26.6059 29.7391 26.9304 29.4147 26.9304 29.0144V23.2167C26.9303 20.4149 29.2016 18.1437 32.0034 18.1437C34.8051 18.1437 37.0764 20.4149 37.0764 23.2167V29.0144C37.0764 29.4147 37.4009 29.7391 37.8011 29.7391H40.7C41.1002 29.7391 41.4247 29.4147 41.4247 29.0144V23.2167C41.4183 18.0161 37.2039 13.802 32.0032 13.7952H32.0036Z" fill="url(#paint5_linear_4_3049)"/>
<path d="M23.3072 28.2892H40.7003C42.7016 28.2892 44.3239 29.9116 44.3239 31.9128V44.9577C44.3239 46.959 42.7016 48.5813 40.7003 48.5813H23.3072C21.3059 48.5813 19.6836 46.959 19.6836 44.9578V31.9129C19.6836 29.9116 21.3059 28.2892 23.3072 28.2892Z" fill="url(#paint6_linear_4_3049)"/>
<path d="M35.628 36.2616C35.6364 34.2604 34.021 32.6312 32.0197 32.6227C30.0185 32.6143 28.3893 34.2298 28.3809 36.231C28.375 37.6143 29.1573 38.8802 30.397 39.4938L29.8375 43.4073C29.7815 43.8036 30.0573 44.1703 30.4536 44.2263C30.4872 44.2311 30.5211 44.2334 30.555 44.2334H33.4539C33.8541 44.2375 34.1819 43.9164 34.1859 43.5161C34.1862 43.4792 34.1838 43.4423 34.1785 43.4058L33.619 39.4924C34.8436 38.8795 35.6201 37.6308 35.628 36.2616Z" fill="#232323"/>
</g>
<defs>
<filter id="filter0_f_4_3049" x="3.2625" y="3.2625" width="57.475" height="57.475" filterUnits="userSpaceOnUse" color-interpolation-filters="sRGB">
<feFlood flood-opacity="0" result="BackgroundImageFix"/>
<feBlend mode="normal" in="SourceGraphic" in2="BackgroundImageFix" result="shape"/>
<feGaussianBlur stdDeviation="0.61875" result="effect1_foregroundBlur_4_3049"/>
</filter>
<filter id="filter1_f_4_3049" x="17.6037" y="11.7152" width="28.8005" height="38.946" filterUnits="userSpaceOnUse" color-interpolation-filters="sRGB">
<feFlood flood-opacity="0" result="BackgroundImageFix"/>
<feBlend mode="normal" in="SourceGraphic" in2="BackgroundImageFix" result="shape"/>
<feGaussianBlur stdDeviation="1.03997" result="effect1_foregroundBlur_4_3049"/>
</filter>
<linearGradient id="paint0_linear_4_3049" x1="4.5" y1="32" x2="59.5" y2="32" gradientUnits="userSpaceOnUse">
<stop stop-color="#FDFC47"/>
<stop offset="1" stop-color="#24FE41"/>
</linearGradient>
<linearGradient id="paint1_linear_4_3049" x1="4.5" y1="32" x2="59.5" y2="32" gradientUnits="userSpaceOnUse">
<stop stop-color="#FDFC47"/>
<stop offset="1" stop-color="#24FE41"/>
</linearGradient>
<linearGradient id="paint2_linear_4_3049" x1="22.582" y1="21.7672" x2="41.4247" y2="21.7672" gradientUnits="userSpaceOnUse">
<stop stop-color="#FDFC47"/>
<stop offset="1" stop-color="#24FE41"/>
</linearGradient>
<linearGradient id="paint3_linear_4_3049" x1="19.6836" y1="38.4353" x2="44.3239" y2="38.4353" gradientUnits="userSpaceOnUse">
<stop stop-color="#FDFC47"/>
<stop offset="1" stop-color="#24FE41"/>
</linearGradient>
<linearGradient id="paint4_linear_4_3049" x1="28.3809" y1="38.4281" x2="35.628" y2="38.4281" gradientUnits="userSpaceOnUse">
<stop stop-color="#FDFC47"/>
<stop offset="1" stop-color="#24FE41"/>
</linearGradient>
<linearGradient id="paint5_linear_4_3049" x1="22.582" y1="21.7672" x2="41.4247" y2="21.7672" gradientUnits="userSpaceOnUse">
<stop stop-color="#FDFC47"/>
<stop offset="1" stop-color="#24FE41"/>
</linearGradient>
<linearGradient id="paint6_linear_4_3049" x1="19.6836" y1="38.4353" x2="44.3239" y2="38.4353" gradientUnits="userSpaceOnUse">
<stop stop-color="#FDFC47"/>
<stop offset="1" stop-color="#24FE41"/>
</linearGradient>
<clipPath id="clip0_4_3049">
<rect width="64" height="64" fill="white"/>
</clipPath>
</defs>
</svg>
