<svg width="64" height="64" viewBox="0 0 64 64" fill="none" xmlns="http://www.w3.org/2000/svg">
<path opacity="0.01" d="M16.5179 1.99899C8.52711 1.99899 2.00391 8.73989 2.00391 16.997V49.001C2.00391 57.2579 8.52751 63.999 16.5179 63.999H47.4899C55.4807 63.999 62.0039 57.2581 62.0039 49.001V16.997C62.0039 8.74009 55.4803 1.99899 47.4899 1.99899H16.5179ZM17.4894 3.9678H46.5194C53.4901 3.9678 59.1024 9.7665 59.1024 16.9698V46.9678C59.1024 54.171 53.4908 59.9698 46.5194 59.9698H17.4894C10.5187 59.9698 4.90641 54.1711 4.90641 46.9678V16.9698C4.90641 9.7666 10.518 3.9678 17.4894 3.9678Z" fill="url(#paint0_linear_4_3374)"/>
<path opacity="0.01" d="M16.4778 2.99899C9.04411 2.99899 3.00781 9.2459 3.00781 16.937V49.062C3.00781 56.7527 9.04421 63 16.4778 63H47.5318C54.9655 63 61.0038 56.7531 61.0038 49.062V16.937C61.0038 9.2463 54.9655 2.99899 47.5318 2.99899H16.4778ZM17.5067 3.96774H46.5027C53.4655 3.96774 59.0707 9.76645 59.0707 16.9697V46.9677C59.0707 54.1709 53.4655 59.9697 46.5027 59.9697H17.5067C10.5439 59.9697 4.93871 54.171 4.93871 46.9677V16.9697C4.93871 9.76655 10.5439 3.96774 17.5067 3.96774Z" fill="url(#paint1_linear_4_3374)"/>
<path opacity="0.03" d="M16.2882 3.99899C9.23665 3.99899 3.53125 9.81319 3.53125 16.997V49.001C3.53125 56.1849 9.46525 61.999 16.5173 61.999H47.5082C54.5598 61.999 60.4622 56.1848 60.4622 49.001V16.997C60.4622 9.81309 54.755 3.99899 47.7042 3.99899H47.3381C54.1187 4.32598 59.4851 9.97799 59.4851 16.97V46.968C59.4851 54.1712 53.7934 59.97 46.7231 59.97H17.2781C10.2076 59.97 4.51608 54.1713 4.51608 46.968V16.97C4.51608 9.97849 9.88278 4.32699 16.6631 3.99899H16.2882Z" fill="url(#paint2_linear_4_3374)"/>
<path opacity="0.03" d="M4 46.969V49.0002C4 55.6481 9.8957 61.0002 16.544 61.0002H47.505C54.153 61.0002 60 55.6481 60 49.0002V47.008C59.9788 54.193 54.19 59.971 47 59.971H17.002C9.7988 59.971 4 54.1723 4 46.969Z" fill="url(#paint3_linear_4_3374)"/>
<path opacity="0.05" d="M4 44.999V47.2378C4 54.5649 9.9449 60.4638 16.593 60.4638H47.436C54.0839 60.4638 60.001 54.5646 60.001 47.2378V45.042C59.9798 52.961 54.191 59.329 47.001 59.329H17.003C9.79981 59.329 4 52.9377 4 44.999Z" fill="url(#paint4_linear_4_3374)"/>
<path d="M17.002 4.49899H46.998C53.9027 4.49899 59.5 10.0963 59.5 17.001V46.997C59.5 53.9017 53.9027 59.499 46.998 59.499H17.002C10.0973 59.499 4.5 53.9017 4.5 46.997V17.001C4.5 10.0963 10.0973 4.49899 17.002 4.49899Z" fill="#232323" stroke="url(#paint5_linear_4_3374)"/>
<path d="M49.4976 43.649C49.4985 43.719 49.472 43.7865 49.4238 43.8372C49.4001 43.8621 49.3716 43.8819 49.3401 43.8955C49.3085 43.9091 49.2746 43.9163 49.2402 43.9165H44.3192C44.2846 43.9165 44.2504 43.9094 44.2186 43.8958C44.1868 43.8822 44.1581 43.8622 44.1342 43.8372C44.086 43.7863 44.059 43.719 44.0587 43.649V20.425C44.0587 20.2772 44.1753 20.1574 44.3192 20.1574H49.2402C49.3826 20.1574 49.4977 20.2764 49.4977 20.425L49.4976 43.649ZM29.8086 43.649C29.8093 43.7191 29.7824 43.7866 29.7339 43.8372C29.7104 43.8619 29.6822 43.8816 29.6509 43.8952C29.6197 43.9088 29.586 43.9161 29.5519 43.9165H24.6271C24.5578 43.9154 24.4918 43.8869 24.4435 43.8372C24.3957 43.7864 24.3697 43.7188 24.3711 43.649V29.678C24.3711 29.5318 24.4854 29.4105 24.627 29.4105H29.5519C29.6934 29.4105 29.8086 29.5318 29.8086 29.678L29.8086 43.649ZM39.754 43.649V27.005C39.754 23.2227 36.8171 20.1575 33.1935 20.1575H14.7555C14.6861 20.1587 14.6201 20.1874 14.5718 20.2373C14.5236 20.2871 14.497 20.3541 14.4981 20.4235V43.6495C14.4981 43.7988 14.6132 43.917 14.7555 43.917H19.6812C19.7156 43.9163 19.7496 43.9088 19.7811 43.895C19.8126 43.8812 19.8411 43.8613 19.865 43.8364C19.8888 43.8116 19.9075 43.7823 19.92 43.7502C19.9325 43.7181 19.9386 43.6839 19.9379 43.6495V25.4185C19.9379 25.2707 20.053 25.1502 20.1945 25.1502H30.7875C32.7755 25.1502 34.3886 26.8333 34.3886 28.91V43.649C34.3886 43.7983 34.503 43.9173 34.6453 43.9173H39.4971C39.5667 43.9158 39.6329 43.8869 39.6811 43.8367C39.7294 43.7866 39.7553 43.7186 39.754 43.649Z" fill="url(#paint6_linear_4_3374)"/>
<defs>
<linearGradient id="paint0_linear_4_3374" x1="2.00391" y1="32.999" x2="62.0039" y2="32.999" gradientUnits="userSpaceOnUse">
<stop stop-color="#FDFC47"/>
<stop offset="1" stop-color="#24FE41"/>
</linearGradient>
<linearGradient id="paint1_linear_4_3374" x1="3.00781" y1="32.9995" x2="61.0038" y2="32.9995" gradientUnits="userSpaceOnUse">
<stop stop-color="#FDFC47"/>
<stop offset="1" stop-color="#24FE41"/>
</linearGradient>
<linearGradient id="paint2_linear_4_3374" x1="3.53125" y1="32.999" x2="60.4622" y2="32.999" gradientUnits="userSpaceOnUse">
<stop stop-color="#FDFC47"/>
<stop offset="1" stop-color="#24FE41"/>
</linearGradient>
<linearGradient id="paint3_linear_4_3374" x1="4" y1="53.9846" x2="60" y2="53.9846" gradientUnits="userSpaceOnUse">
<stop stop-color="#FDFC47"/>
<stop offset="1" stop-color="#24FE41"/>
</linearGradient>
<linearGradient id="paint4_linear_4_3374" x1="4" y1="52.7314" x2="60.001" y2="52.7314" gradientUnits="userSpaceOnUse">
<stop stop-color="#FDFC47"/>
<stop offset="1" stop-color="#24FE41"/>
</linearGradient>
<linearGradient id="paint5_linear_4_3374" x1="4" y1="31.999" x2="60" y2="31.999" gradientUnits="userSpaceOnUse">
<stop stop-color="#FDFC47"/>
<stop offset="1" stop-color="#24FE41"/>
</linearGradient>
<linearGradient id="paint6_linear_4_3374" x1="14.498" y1="32.0374" x2="49.4977" y2="32.0374" gradientUnits="userSpaceOnUse">
<stop stop-color="#FDFC47"/>
<stop offset="1" stop-color="#24FE41"/>
</linearGradient>
</defs>
</svg>
