<svg width="64" height="64" viewBox="0 0 64 64" fill="none" xmlns="http://www.w3.org/2000/svg">
<g opacity="0.3" filter="url(#filter0_f_4_3228)">
<path d="M44.5003 4.50003H19.5001C11.2158 4.50003 4.5 11.2158 4.5 19.5001V44.5003C4.5 52.7846 11.2158 59.5004 19.5001 59.5004H44.5003C52.7846 59.5004 59.5004 52.7846 59.5004 44.5003V19.5001C59.5004 11.2158 52.7846 4.50003 44.5003 4.50003Z" fill="url(#paint0_linear_4_3228)"/>
</g>
<path d="M19.5005 5H44.5003C52.5087 5 59.0008 11.4921 59.0008 19.5005V44.5003C59.0008 52.5087 52.5087 59.0008 44.5003 59.0008H19.5005C11.4921 59.0008 5 52.5087 5 44.5003V19.5005C5 11.4921 11.4921 5 19.5005 5Z" fill="#232323" stroke="url(#paint1_linear_4_3228)"/>
<path opacity="0.9" d="M37.6533 49.0434C37.4107 49.3206 37.0967 49.5798 36.8006 49.8187C34.888 47.8421 32.6423 45.6514 30.5083 45.6514C29.185 45.6514 28.232 46.6587 27.1201 47.3694C25.5771 48.3557 23.4605 48.9111 21.6465 48.1872C20.6709 47.8168 19.7257 47.2712 19.0193 46.3848C20.4469 47.3694 22.5848 47.5017 24.1966 46.8331C25.978 46.094 27.7912 45.1127 29.8214 45.1127C32.8141 45.1127 35.6581 47.1369 37.6533 49.0434ZM15.5347 42.8267C17.5161 45.0821 20.7479 44.3565 23.3929 44.9198C23.7611 44.9982 24.1069 45.1204 24.5022 45.0598C24.1877 44.8604 23.7709 44.8379 23.4076 44.7011C21.3553 43.9279 21.0353 41.7315 19.9122 40.2196C21.3467 41.1733 22.5353 42.479 23.8766 43.7061C24.8103 44.5601 25.9735 44.9254 27.1799 45.1709C26.89 45.2769 26.5108 45.2519 26.1985 45.3293C24.0315 45.8669 21.629 46.7155 19.323 45.9545C17.835 45.4634 16.2869 44.3008 15.5347 42.8267ZM12.3586 37.6063C13.5946 40.4045 16.6999 40.6237 18.7643 42.3402C19.1569 42.6666 19.546 42.967 19.9773 43.1682L19.9996 43.1455C19.5231 42.7146 19.0075 42.2008 18.6386 41.6646C17.4585 39.95 17.8512 37.6065 16.9413 35.7885C17.768 36.7783 18.5433 37.7976 19.0193 38.9308C19.7853 40.7545 20.0455 42.8351 21.7635 44.2207C19.9041 43.6073 17.7593 43.7294 16.085 42.6327C14.325 41.4799 12.6939 39.6609 12.3586 37.6063ZM11.0347 31.9452C11.2134 34.4105 13.8381 35.7274 15.0895 37.7541C15.3568 38.1869 15.6318 38.6337 16.02 38.9832C15.9595 38.7207 15.7435 38.4882 15.6246 38.2307C15.2232 37.3611 15.0416 36.3548 15.1417 35.3202C15.2636 34.0613 15.7885 32.8922 15.5871 31.5678C16.6658 33.8963 16.3178 36.8071 16.9413 39.3247C17.0792 39.8817 17.4184 40.369 17.6273 40.8965C16.5675 40.0903 15.1785 39.3745 14.0151 38.4575C12.89 37.5707 11.9134 36.5312 11.4057 35.1788C11.0399 34.2042 10.9449 33.0417 11.0347 31.9452ZM11.108 27.4029C11.2347 26.8527 11.3315 26.2832 11.5709 25.7784C11.1177 28.1041 12.6649 29.7841 13.193 31.7959C13.3921 32.5542 13.4602 33.3598 13.7668 34.0673C13.7954 34.0828 13.8202 34.053 13.8379 34.0299C13.0745 31.8887 14.1935 29.9098 15.2836 28.2218C15.5701 27.7781 15.708 27.2616 15.8418 26.7392C15.9596 27.7086 15.7533 28.8307 15.574 29.831C15.3431 31.1188 14.903 32.3258 14.5531 33.5683C14.3228 34.3445 14.3835 35.2205 14.5017 36.0338L14.3906 35.9451C13.579 34.4469 11.9779 33.2765 11.4943 31.6413C11.1079 30.3344 10.8405 28.8246 11.108 27.4029ZM11.964 24.9012C11.964 23.1413 12.6493 21.7056 13.6772 20.3951C13.707 20.3803 13.7282 20.3503 13.7668 20.3573C12.6352 22.0786 13.6651 24.2514 13.5197 26.2036L13.3705 28.2074C13.3926 28.2219 13.3926 28.2821 13.4452 28.2591C13.512 28.0357 13.5323 27.7981 13.5712 27.5674C13.8436 25.952 15.2621 24.8276 16.4651 23.6872C16.7496 23.4175 16.958 23.0985 17.0921 22.7557C16.9921 23.5603 16.7676 24.3853 16.4064 25.1164C15.4805 26.991 13.6921 28.5042 13.3704 30.6347C13.2144 28.593 11.964 27.075 11.964 24.9012ZM14.9467 18.9645C15.5157 18.3336 16.1534 17.8422 16.9126 17.6478C15.4384 18.6616 15.5184 20.4733 15.0671 21.9883C14.902 22.5422 14.6594 23.0612 14.5305 23.6337L14.5678 23.6635C14.8131 23.0163 15.2339 22.3941 15.7822 21.8769C16.8191 20.8985 18.3781 20.3064 18.8913 18.8753C18.8678 20.864 17.1726 22.3757 15.6244 23.5454C14.93 24.0699 14.3398 24.7742 13.9797 25.5125C14.0399 24.963 14.0672 24.5059 14.0181 23.9696C13.8592 22.2323 13.7562 20.2843 14.9467 18.9645ZM20.9306 15.6211C19.8365 16.5812 19.1063 17.8169 18.2658 18.9278C17.5667 19.8518 16.6075 20.4242 15.7825 21.1996C16.2278 20.2757 16.3101 19.217 16.8756 18.3233C17.8426 16.795 19.4407 16.2016 20.9306 15.6211Z" fill="url(#paint2_linear_4_3228)"/>
<path opacity="0.81" d="M26.3498 49.0434C26.5924 49.3206 26.9064 49.5798 27.2025 49.8187C29.1151 47.8421 31.3608 45.6514 33.4948 45.6514C34.818 45.6514 35.7711 46.6587 36.883 47.3694C38.426 48.3557 40.5426 48.9111 42.3566 48.1872C43.3322 47.8168 44.2774 47.2712 44.9838 46.3848C43.5562 47.3694 41.4183 47.5017 39.8065 46.8331C38.0251 46.094 36.2119 45.1127 34.1817 45.1127C31.189 45.1127 28.345 47.1369 26.3498 49.0434ZM48.4684 42.8267C46.487 45.0821 43.2552 44.3565 40.6102 44.9198C40.242 44.9982 39.8962 45.1204 39.5009 45.0598C39.8154 44.8604 40.2322 44.8379 40.5955 44.7011C42.6478 43.9279 42.9678 41.7315 44.0909 40.2196C42.6564 41.1733 41.4678 42.479 40.1265 43.7061C39.1928 44.5601 38.0296 44.9254 36.8232 45.1709C37.1131 45.2769 37.4923 45.2519 37.8046 45.3293C39.9716 45.8669 42.3741 46.7155 44.68 45.9546C46.1681 45.4635 47.7162 44.3008 48.4684 42.8267ZM51.6444 37.6063C50.4085 40.4045 47.3032 40.6237 45.2388 42.3402C44.8462 42.6666 44.457 42.967 44.0258 43.1682L44.0035 43.1455C44.4799 42.7144 44.9955 42.2007 45.3645 41.6645C46.5446 39.9499 46.1519 37.6063 47.0617 35.7883C46.235 36.7781 45.4597 37.7974 44.9837 38.9306C44.2177 40.7543 43.9575 42.8349 42.2395 44.2206C44.0989 43.6071 46.2437 43.7292 47.918 42.6325C49.678 41.4797 51.3092 39.6609 51.6444 37.6063ZM52.9684 31.9452C52.7897 34.4105 50.165 35.7274 48.9136 37.7541C48.6463 38.1869 48.3712 38.6337 47.9831 38.9832C48.0436 38.7207 48.2595 38.4882 48.3784 38.2307C48.7798 37.3611 48.9615 36.3548 48.8613 35.3202C48.7394 34.0613 48.2146 32.8922 48.416 31.5678C47.3373 33.8963 47.6852 36.8071 47.0618 39.3247C46.9239 39.8817 46.5847 40.369 46.3757 40.8965C47.4356 40.0903 48.8246 39.3745 49.988 38.4575C51.1131 37.5707 52.0896 36.5312 52.5973 35.1788C52.9631 34.2042 53.0581 33.0417 52.9684 31.9452ZM52.895 27.4029C52.7684 26.8527 52.6716 26.2832 52.4322 25.7784C52.8854 28.1041 51.3382 29.7841 50.8101 31.7959C50.611 32.5542 50.5429 33.3598 50.2363 34.0673C50.2076 34.0828 50.1829 34.053 50.1652 34.0299C50.9286 31.8886 49.8096 29.9098 48.7195 28.2218C48.433 27.7781 48.2951 27.2616 48.1613 26.7392C48.0435 27.7086 48.2498 28.8307 48.4291 29.831C48.6599 31.1188 49.1001 32.3258 49.4499 33.5683C49.6803 34.3445 49.6196 35.2205 49.5014 36.0338L49.6125 35.9451C50.424 34.4469 52.0252 33.2765 52.5087 31.6413C52.8952 30.3344 53.1626 28.8246 52.895 27.4029ZM52.039 24.9012C52.039 23.1413 51.3538 21.7056 50.3259 20.3951C50.296 20.3803 50.2748 20.3503 50.2363 20.3573C51.3679 22.0786 50.338 24.2514 50.4834 26.2036L50.6326 28.2074C50.6103 28.2219 50.6103 28.2821 50.5579 28.2591C50.491 28.0357 50.4707 27.7981 50.4318 27.5674C50.1594 25.9519 48.7409 24.8276 47.538 23.6872C47.2534 23.4175 47.0451 23.0985 46.9109 22.7557C47.011 23.5603 47.2354 24.3853 47.5966 25.1164C48.5225 26.991 50.3109 28.5042 50.6326 30.6347C50.7886 28.593 52.039 27.075 52.039 24.9012ZM49.0564 18.9645C48.4873 18.3336 47.8497 17.8422 47.0904 17.6478C48.5647 18.6616 48.4847 20.4733 48.936 21.9883C49.1011 22.5422 49.3437 23.0612 49.4726 23.6337L49.4352 23.6635C49.19 23.0163 48.7692 22.3941 48.2209 21.8769C47.1839 20.8985 45.6249 20.3064 45.1118 18.8753C45.1353 20.864 46.8305 22.3757 48.3787 23.5454C49.0731 24.0699 49.6633 24.7742 50.0234 25.5125C49.9632 24.963 49.9359 24.5059 49.9849 23.9696C50.1439 22.2323 50.2469 20.2843 49.0564 18.9645ZM43.0725 15.6211C44.1666 16.5812 44.8967 17.8169 45.7373 18.9278C46.4363 19.8518 47.3956 20.4242 48.2205 21.1996C47.7752 20.2757 47.693 19.217 47.1275 18.3233C46.1605 16.795 44.5624 16.2016 43.0725 15.6211Z" fill="url(#paint3_linear_4_3228)"/>
<path opacity="0.9" d="M45.364 35.501L45.0408 35.3247C44.3556 36.7377 43.4484 38.0236 42.3631 39.1357L40.475 37.2477C41.4 36.2946 42.1458 35.2127 42.6952 34.0434L42.3735 33.8676C41.8303 35.027 41.0996 36.0819 40.2184 36.9909L38.5081 35.2806C39.2423 34.5173 39.8249 33.6464 40.2454 32.7052L39.9262 32.5311C39.5144 33.4586 38.9463 34.3022 38.2521 35.0252L36.3621 33.1351C36.8877 32.5781 37.2935 31.9372 37.5697 31.2437L37.2504 31.0695C36.9865 31.7458 36.5964 32.3597 36.1077 32.8805L34.3923 31.1653C34.881 30.6199 35.1644 29.9357 35.2045 29.2046H37.6327C37.6119 29.8607 37.4776 30.4883 37.2504 31.0695L37.5697 31.2437C37.8252 30.6011 37.9696 29.9139 37.9903 29.2046H40.667C40.6428 30.3863 40.3795 31.51 39.9262 32.5311L40.2454 32.7052C40.7321 31.6152 41.001 30.4307 41.0248 29.2045H43.4485C43.4232 30.8687 43.0392 32.4466 42.3735 33.8676L42.6952 34.0434C43.3989 32.5459 43.7812 30.9047 43.8065 29.2046H46.483C46.4562 31.3953 45.9404 33.4697 45.0408 35.3247L45.364 35.501C46.3317 33.5078 46.8454 31.3065 46.8454 29.0255C46.8454 27.0858 46.4738 25.204 45.7677 23.4582L45.4361 23.6007C46.1011 25.2481 46.4615 27.0198 46.4837 28.8464H43.8068C43.7852 27.3891 43.4987 25.9759 42.9748 24.6586L42.6456 24.7997C43.1509 26.0733 43.4275 27.4386 43.4489 28.8465H41.025C41.0042 27.7733 40.795 26.732 40.4173 25.7577L40.0881 25.8991C40.4473 26.8289 40.6466 27.8226 40.6675 28.8465H37.9905C37.9716 28.1922 37.8476 27.5559 37.6277 26.9565L37.2986 27.0977C37.5005 27.6529 37.614 28.2413 37.633 28.8465H35.2047C35.1646 28.1154 34.8812 27.4313 34.3925 26.8859L36.1097 25.169C36.64 25.733 37.041 26.3878 37.2986 27.0977L37.6277 26.9565C37.352 26.2056 36.9255 25.5128 36.3624 24.916L38.2552 23.0234C39.063 23.8641 39.6795 24.8402 40.0881 25.8991L40.4173 25.7577C39.9907 24.6578 39.3485 23.6437 38.5082 22.7704L40.2221 21.0562C41.2836 22.1509 42.0991 23.421 42.6456 24.7997L42.9748 24.6586C42.4101 23.2388 41.5691 21.9306 40.4751 20.8035L42.3677 18.9105C43.7062 20.2817 44.7388 21.8729 45.4361 23.6007L45.7677 23.4582C45.031 21.635 43.9296 19.9604 42.4972 18.528C41.0595 17.0902 39.3777 15.9864 37.5466 15.2495L37.4148 15.5852C39.1464 16.2827 40.741 17.3164 42.1147 18.6574L40.2221 20.5503C39.1141 19.4765 37.8304 18.6442 36.4368 18.0803L36.3062 18.4132C37.6537 18.9599 38.8959 19.7649 39.9692 20.8061L38.2554 22.52C37.4222 21.7185 36.4615 21.096 35.4201 20.67L35.2892 21.0028C36.2857 21.4112 37.2047 22.0068 38.0025 22.773L36.1099 24.6656C35.5775 24.1638 34.9687 23.77 34.311 23.4953L34.1801 23.8284C34.793 24.0853 35.3599 24.4518 35.8569 24.9187L34.14 26.6357C33.5942 26.1469 32.9103 25.8635 32.179 25.8237V23.3955C32.8768 23.417 33.5525 23.5651 34.1801 23.8284L34.311 23.4953C33.6422 23.2159 32.9221 23.0595 32.179 23.0377V20.3608C33.2629 20.3826 34.3129 20.6027 35.2892 21.0028L35.4201 20.67C34.4027 20.2537 33.3082 20.0251 32.179 20.0033V17.5783C33.6163 17.6003 35.0098 17.8877 36.3062 18.4132L36.4368 18.0803C35.0994 17.5385 33.6621 17.2426 32.1792 17.2207V14.5435C34.0024 14.5656 35.7705 14.9231 37.4148 15.5852L37.5466 15.2495C35.8068 14.549 33.9324 14.1817 32.0004 14.1817C29.6137 14.1817 27.3586 14.7511 25.3589 15.756L25.522 16.0682C27.4571 15.0986 29.5979 14.5704 31.8215 14.5435V17.2207C30.008 17.2477 28.2945 17.6877 26.7662 18.4466L26.9288 18.7579C28.4343 18.0126 30.0962 17.6044 31.8211 17.5781V20.002C30.4727 20.0286 29.1968 20.3529 28.0548 20.9102L28.2184 21.223C29.3301 20.6834 30.5525 20.3852 31.8212 20.3596V23.0367C30.9799 23.0616 30.182 23.2609 29.4615 23.5989L29.6259 23.9129C30.3074 23.5961 31.051 23.4181 31.8212 23.3943V25.8228C31.4445 25.8437 31.0852 25.9296 30.7541 26.0693L30.9182 26.3832C31.2569 26.2445 31.6228 26.1714 32 26.1714C32.7627 26.1714 33.4796 26.4684 34.019 27.0077C34.5584 27.547 34.8553 28.2642 34.8553 29.027C34.8553 30.6014 33.5747 31.8827 32 31.8827C31.2371 31.8827 30.52 31.5856 29.9806 31.0463C29.4413 30.5067 29.1443 29.7898 29.1443 29.0269C29.1443 28.2641 29.4413 27.5469 29.9806 27.0076C30.2535 26.7349 30.5717 26.525 30.9182 26.3832L30.7541 26.0693C30.425 26.2083 30.1238 26.4003 29.8613 26.6354L28.1433 24.9175C28.5872 24.5004 29.0871 24.1633 29.6259 23.9129L29.4615 23.5989C28.8821 23.8709 28.3527 24.2322 27.8921 24.6664L25.9975 22.7718C26.6619 22.1335 27.4113 21.615 28.2184 21.223L28.0548 20.9102C27.2025 21.3261 26.4243 21.8711 25.7476 22.5217L24.0307 20.8049C24.8973 19.9641 25.8755 19.2791 26.9288 18.7579L26.7662 18.4466C25.6637 18.9942 24.6564 19.7067 23.7815 20.5559L21.8849 18.6592C22.9722 17.5978 24.1997 16.731 25.522 16.0682L25.3589 15.756C22.4684 17.2086 20.1147 19.5757 18.6815 22.4777L18.9925 22.6455C19.6608 21.2864 20.5446 20.0262 21.6319 18.9121L23.5287 20.8088C22.6463 21.7178 21.9092 22.768 21.354 23.9217L21.6639 24.089C22.1927 22.9843 22.9017 21.9612 23.7775 21.0579L25.4946 22.7748C24.8025 23.4947 24.2299 24.3294 23.8055 25.2462L24.116 25.4138C24.5158 24.5422 25.0621 23.7351 25.7446 23.0248L27.6392 24.9194C27.1549 25.4332 26.7604 26.0324 26.4804 26.6916L26.7935 26.8609C27.0508 26.2426 27.4196 25.6708 27.89 25.1704L29.608 26.8881C29.1364 27.4153 28.8369 28.0969 28.7953 28.8479H26.3666C26.3881 28.1554 26.5342 27.4846 26.7935 26.8609L26.4804 26.6916C26.1976 27.3575 26.0317 28.085 26.009 28.8479H23.3322C23.3563 27.6433 23.6266 26.4802 24.116 25.4138L23.8055 25.2462C23.2961 26.346 23 27.564 22.975 28.848H20.5506C20.576 27.1739 20.9601 25.5592 21.6639 24.089L21.354 23.9217C20.6339 25.417 20.2198 27.0859 20.1935 28.8478H17.5162C17.5425 26.6614 18.0536 24.555 18.9925 22.6455L18.6815 22.4777C17.7055 24.4546 17.1543 26.6767 17.1543 29.0265C17.1543 30.4639 17.3596 31.8687 17.7517 33.2105L18.1023 33.1223C17.7336 31.8648 17.5324 30.5503 17.5162 29.2055H20.1931C20.2096 30.3268 20.3824 31.4225 20.6995 32.4685L21.0466 32.381C20.7361 31.3634 20.5674 30.2969 20.5506 29.2055H22.9745C22.992 30.0945 23.1386 30.9619 23.4026 31.7874L23.7503 31.6996C23.4929 30.9028 23.3497 30.0645 23.3323 29.2055H26.009C26.0277 29.8412 26.1453 30.4599 26.3535 31.0442L26.7014 30.9564C26.4996 30.4007 26.3854 29.8113 26.3666 29.2055H28.7951C28.8352 29.9366 29.1184 30.6208 29.6071 31.1662L27.89 32.8833C27.3603 32.3195 26.9594 31.6655 26.7014 30.9564L26.3535 31.0442C26.6283 31.8147 27.0613 32.5258 27.6371 33.1361L25.7445 35.0289C24.8239 34.0704 24.1493 32.9338 23.7503 31.6996L23.4026 31.7874C23.817 33.0833 24.5243 34.2761 25.4924 35.2823L23.7782 36.9965C22.4964 35.6747 21.5697 34.0972 21.0466 32.381L20.6995 32.4685C21.2385 34.2464 22.1972 35.8812 23.5253 37.2496L21.6325 39.1424C19.9574 37.426 18.7601 35.3649 18.1023 33.1223L17.7517 33.2105C18.4417 35.5716 19.7154 37.7369 21.5033 39.5247C22.7141 40.7357 24.098 41.7105 25.5981 42.4288L25.7758 42.1137C24.3558 41.437 23.0424 40.5251 21.8855 39.3953L23.7781 37.5028C24.7617 38.4576 25.8834 39.2189 27.0963 39.7736L27.2729 39.4603C26.0877 38.9224 24.9916 38.181 24.0312 37.25L25.7452 35.5359C26.5485 36.3087 27.4709 36.9146 28.4697 37.339L28.6462 37.0263C27.676 36.6191 26.7788 36.0336 25.9987 35.2841L27.8916 33.3913C28.4998 33.9651 29.2078 34.3972 29.9754 34.6722L30.1543 34.3554C29.4134 34.0988 28.7301 33.6886 28.1446 33.1385L29.8616 31.4212C30.407 31.9104 31.0908 32.1935 31.8222 32.2336V34.6621C31.2463 34.6443 30.6854 34.539 30.1543 34.3554L29.9754 34.6722C30.5621 34.8826 31.1832 35.0008 31.8223 35.0196V37.6962C30.7146 37.6739 29.6406 37.4434 28.6462 37.0263L28.4697 37.339C29.5184 37.7847 30.6518 38.0314 31.8223 38.054V40.478C30.2273 40.4534 28.6859 40.1016 27.2729 39.4603L27.0963 39.7736C28.5633 40.4439 30.1651 40.8109 31.8225 40.8356V43.5121C29.6964 43.4864 27.6433 43.0033 25.7758 42.1137L25.5981 42.4288C27.5717 43.3735 29.7486 43.8742 32.0013 43.8742C34.3645 43.8742 36.6415 43.322 38.6908 42.2851L38.5215 41.9569C36.6105 42.9248 34.4592 43.4841 32.1801 43.5121V40.8356C33.9871 40.8088 35.7264 40.3758 37.2981 39.5853L37.131 39.2614C35.6372 40.0137 33.9582 40.4501 32.1801 40.4777V38.0537C33.5358 38.0276 34.8407 37.7023 36.0229 37.1128L35.8568 36.7904C34.7447 37.3451 33.4989 37.6691 32.1803 37.696V35.0195C33.0437 34.9941 33.8749 34.7864 34.6314 34.4161L34.4664 34.0956C33.7716 34.4348 32.998 34.6359 32.1802 34.6618V32.2336C32.9114 32.1935 33.5955 31.9104 34.1412 31.4213L35.8564 33.1367C35.4457 33.5222 34.9775 33.846 34.4664 34.0956L34.6314 34.4161C35.1673 34.1537 35.6662 33.811 36.1111 33.3914L38.0008 35.2812C37.3699 35.8873 36.647 36.3965 35.8568 36.7904L36.0229 37.1128C36.8334 36.7087 37.5868 36.1815 38.2567 35.5372L39.967 37.2473C39.1338 38.0553 38.1775 38.735 37.131 39.2614L37.2981 39.5853C38.3608 39.0509 39.3472 38.3549 40.2236 37.504L42.1116 39.392C41.0583 40.4201 39.847 41.2859 38.5215 41.9569L38.6908 42.2851C40.0798 41.5823 41.3658 40.659 42.4986 39.526C43.6897 38.3352 44.6493 36.9728 45.364 35.501Z" fill="url(#paint4_linear_4_3228)"/>
<path opacity="0.9" d="M32.7598 25.593L32.764 25.7004L32.8543 25.6961L32.8494 25.5894L32.7598 25.593Z" fill="url(#paint5_linear_4_3228)"/>
<path opacity="0.9" d="M32.7485 25.4465H32.6289V25.5377H32.7485V25.4465Z" fill="url(#paint6_linear_4_3228)"/>
<path opacity="0.9" d="M32.5173 25.4304L32.53 25.3401L32.4248 25.3251L32.4121 25.4146L32.5173 25.4304Z" fill="url(#paint7_linear_4_3228)"/>
<path opacity="0.9" d="M32.2177 25.3691L32.3223 25.3842L32.335 25.2938L32.2304 25.2787L32.2177 25.3691Z" fill="url(#paint8_linear_4_3228)"/>
<path opacity="0.9" d="M31.5806 25.264H31.4609V25.3553H31.5806V25.264Z" fill="url(#paint9_linear_4_3228)"/>
<path opacity="0.9" d="M31.3056 25.4605L31.3183 25.3702L31.2139 25.3552L31.2012 25.4454L31.3056 25.4605Z" fill="url(#paint10_linear_4_3228)"/>
<path opacity="0.9" d="M31.0909 25.5524L31.2109 25.5829L31.2328 25.4944L31.1128 25.4639L31.0909 25.5524Z" fill="url(#paint11_linear_4_3228)"/>
<path opacity="0.9" d="M30.9812 25.6041L30.9961 25.6953L31.0848 25.6804L31.0699 25.5892L30.9812 25.6041Z" fill="url(#paint12_linear_4_3228)"/>
<path opacity="0.9" d="M19.1959 34.8682H19.1211V35.0201H19.2411V35.2177H19.3314L19.3159 34.99L19.1959 34.9441V34.8682Z" fill="url(#paint13_linear_4_3228)"/>
<path opacity="0.9" d="M20.3187 36.2964L20.1543 36.1445L20.0343 35.9777L19.9743 35.8409L19.8691 35.5673L20.0936 35.6733L20.1691 35.886L20.2735 35.9626L20.3787 36.1904L20.3187 36.2964Z" fill="url(#paint14_linear_4_3228)"/>
<path opacity="0.9" d="M23.4051 40.2328L23.2852 40.0502L23.4651 40.081L23.6592 40.2479L23.7347 40.4455L23.6296 40.5064L23.5696 40.4155L23.42 40.3696L23.4051 40.2328Z" fill="url(#paint15_linear_4_3228)"/>
<path opacity="0.9" d="M31.5366 26.571H31.3719L31.3419 26.2367L31.4317 26.1757V26.0086H30.9076L30.8927 25.8415L30.9678 25.7959L30.8478 25.7503L30.7579 25.8718L30.7282 26.0086L30.5783 26.0391V26.1149H30.4736V26.3125L30.0542 26.662L29.2157 26.6318C29.1556 26.7684 29.0058 26.6164 29.0058 26.6164C28.9761 26.5253 28.7665 26.6164 28.7665 26.6164C28.7665 26.7838 28.482 26.5405 28.482 26.5405L27.9578 26.1605C27.6584 25.887 27.2092 26.2366 27.1943 26.3125C27.2092 26.5253 26.8499 26.3581 26.8499 26.3581C26.8499 26.3581 26.5504 26.267 26.5054 26.3886C26.4606 26.5101 26.2656 26.4799 26.2656 26.4799L26.2356 26.5406L26.0858 26.5709L26.0561 26.6621L25.8762 26.6926L26.3254 26.6773C26.4453 26.6621 26.2803 26.9357 26.2057 26.9205L25.9962 26.9357L25.9211 27.0116H25.7265L25.6367 27.1334L25.3524 27.1181C25.3524 27.1181 25.1875 27.2549 25.2026 27.3004C25.2176 27.346 25.1726 27.4829 25.1276 27.4829C25.0827 27.4829 24.9928 27.6196 25.0228 27.6651C25.0529 27.7108 24.933 27.8627 24.933 27.8627L24.9032 28.0149L24.8134 28.0451V28.4555L24.6336 28.5772V28.7595L24.3639 29.0482L24.394 29.2913L24.1695 29.5345L24.1992 29.7777L24.0645 29.8233L24.0347 29.9296L23.9749 30.2487L24.1245 30.264C24.1992 30.2335 24.1844 30.4616 24.1245 30.4918C24.0644 30.5223 23.8997 30.583 23.9897 30.6437C24.0797 30.7047 23.7501 30.6894 23.7501 30.5982C23.7501 30.5072 23.5703 30.4311 23.5256 30.4616C23.4806 30.4918 23.4056 30.3248 23.4056 30.3248C23.241 30.1577 22.7318 30.3399 22.7318 30.3399L22.6567 30.5831C22.4922 30.6136 22.3874 30.8871 22.3874 30.8871C22.2526 30.9327 22.1478 31.0997 22.1928 31.1454C22.2376 31.191 22.1177 31.2061 22.1177 31.2061V31.5406L22.0429 31.647L22.0578 32.0116C22.1477 32.0116 22.1328 32.1789 22.1328 32.1789C21.983 32.194 22.0128 32.3917 22.0128 32.3917L21.6985 32.498L21.6386 32.5891L21.2494 32.5739L21.1446 32.6804L21.0395 32.5739H20.2908L20.2611 32.4979L20.1113 32.4674L20.0962 32.3003L19.8717 32.3154L19.8268 32.4066L19.5871 32.4217C19.602 32.5738 19.3475 32.8019 19.3178 32.7412C19.2874 32.6803 19.1228 32.5129 19.1979 32.4828C19.2728 32.4523 19.4676 32.4217 19.4676 32.4217V32.3155L18.9133 32.3003L18.8536 32.3916L18.6287 32.4066V32.6499L18.524 32.6803C18.449 32.7257 18.5388 32.8931 18.5388 32.8931C18.6436 32.9993 18.524 33.1664 18.524 33.1664C18.4341 33.2577 18.5987 33.4251 18.5987 33.4251C18.7187 33.4553 18.524 33.5465 18.524 33.5465C18.5537 33.6984 18.6437 33.744 18.6437 33.744C18.5537 33.8959 18.7038 33.9717 18.7038 33.9717L18.7187 34.2304L18.8235 34.2913V34.4581L18.8833 34.5646H19.1229L19.1079 34.1847C18.8982 33.9414 19.2875 33.8806 19.3027 33.9717C19.3178 34.0629 19.4825 34.1086 19.4825 34.1086C19.5125 34.3366 19.7671 34.4732 19.8418 34.2455C19.9167 34.0172 19.9766 34.1542 20.0215 34.2606C20.0665 34.3671 20.3507 34.6255 20.3507 34.6255H20.5754L20.6055 34.8383C20.86 34.8232 20.9347 34.8538 21.0395 35.2029C21.1446 35.5523 21.4289 35.6436 21.4289 35.6436L21.6387 35.6284C21.6387 35.4464 21.8484 35.6591 21.8484 35.7504C21.8484 35.8412 22.2526 36.1908 22.2526 36.1908L22.6567 36.2819L23.0315 36.5862L23.3158 36.556H23.4358C23.5104 36.2973 23.87 36.5711 23.8997 36.6622C23.9299 36.7534 24.1695 36.9054 24.1992 36.8293C24.2293 36.7534 24.3939 36.799 24.424 37.0268C24.4539 37.255 24.5585 37.2093 24.5585 37.2093L25.4122 37.1942L25.7117 36.9356L26.4755 36.9205C26.8647 36.9053 26.6252 36.3733 26.5505 36.3733C26.4157 36.267 26.5952 35.8263 26.5952 35.8263L25.5021 34.8079C25.2476 34.8079 25.4721 34.443 25.4721 34.443C25.6668 34.3213 25.4271 34.124 25.4271 34.124C25.4572 33.9414 25.3223 33.7287 25.3223 33.7287C25.053 33.5463 25.1277 33.1966 25.1277 33.1966V32.9534C24.9032 32.7409 25.2176 32.7102 25.2176 32.7102C25.3222 32.5282 25.1426 32.3913 25.1426 32.3913L25.1277 32.1937L24.888 32.1632L24.8583 31.4489L24.3193 30.674C24.2142 30.6434 24.2891 30.4612 24.2891 30.4612C24.4239 30.3851 24.259 30.203 24.259 30.203L24.2441 29.8686L24.5584 29.838L24.6335 29.7166H24.7832L24.7683 29.3214C24.843 29.1238 25.0227 29.2301 25.0227 29.2301L25.2323 29.2454L25.3523 29.0174L25.382 28.835L25.2175 28.8199C25.0377 28.7134 25.1275 28.3184 25.1275 28.3184C25.4121 27.8927 25.7413 28.1359 25.7413 28.1359L25.9512 28.1208C26.2655 28.3335 25.9809 28.7286 25.9809 28.7286C25.921 28.8199 25.9512 29.1086 25.9512 29.1086L26.0259 29.5947L25.8313 29.7621C25.6666 29.8533 25.6666 30.066 25.8464 30.1116C25.9661 30.1267 25.9211 30.4155 25.7414 30.2179C25.4721 30.2179 25.8914 30.4611 25.7715 30.4001C26.0411 30.5369 25.9809 30.2786 25.9809 30.2786L26.3407 29.9898C26.4755 29.8835 26.7151 30.2179 26.7151 30.2635C26.7151 30.3091 27.314 30.2786 27.314 30.2786C27.4787 30.3849 27.5385 30.6586 27.5385 30.6586C27.7034 30.4457 28.0477 30.6432 27.7932 30.7649C28.0326 30.9169 28.0326 31.0536 28.0326 31.0536C28.2275 30.9929 28.2275 31.1448 28.2275 31.1904C28.2275 31.2361 28.2873 30.9625 28.2873 30.9625C28.0627 30.7953 28.5868 30.7345 28.4372 31.0385L28.3472 31.1754L28.497 31.2969L28.5118 31.6465C28.8414 31.616 28.7515 31.2056 28.7515 31.2056L28.9012 31.1754C28.9012 31.0385 29.0059 31.1145 29.0059 31.1145C28.9012 30.5977 29.2456 30.5067 29.2456 30.5067C29.4403 30.4611 29.4551 30.0505 29.4551 30.0505C29.3206 29.9898 29.3952 29.7771 29.5451 29.9596C29.6947 30.1417 29.4551 29.5946 29.4551 29.5946L29.3355 29.4883L29.1708 29.4731L29.1557 29.3059H28.8864L28.8414 29.5188L28.7366 29.5492L28.7064 29.4883L28.6616 29.6555H28.3922L28.3773 29.4731L28.5419 29.4276L28.6018 29.3364L28.6467 29.0932H28.8414L29.0959 29.0173C29.1108 28.7589 29.2457 28.8198 29.2457 28.8198L29.3355 28.8957L29.4703 29.0021L29.4853 29.0931L29.3953 29.1387L29.3805 29.2604L29.4255 29.4275H29.5452C29.59 29.1844 29.9047 29.1844 29.9945 29.3363L30.0844 29.1236C29.8748 29.0173 30.0805 28.8499 30.1403 28.926C30.2002 29.0021 30.3389 28.7285 30.3389 28.7285C30.3389 28.7285 30.4437 28.8653 30.3389 28.6828C30.2341 28.5004 30.4136 28.4093 30.4136 28.4093C30.3838 28.227 30.6084 28.2573 30.6084 28.2573L30.6235 28.0143L30.4136 27.9989C30.369 28.2117 30.1892 28.0294 30.279 27.9839C30.369 27.9382 30.4586 27.847 30.4586 27.847V27.695L30.5485 27.6647L30.5634 27.5127H30.7881L30.9828 27.4216L31.0278 27.3455L31.2373 27.3304L31.5367 27.0567L31.507 26.9352C31.3273 26.9352 31.507 26.7984 31.507 26.7984L31.5366 26.571Z" fill="url(#paint16_linear_4_3228)"/>
<path opacity="0.9" d="M25.5024 29.5795L25.2328 29.5492L25.2479 29.6555H25.3226C25.4423 29.8684 25.3377 30.385 25.3377 30.385C25.3377 30.385 25.1581 30.4 25.128 30.3091C25.0983 30.2179 25.0232 30.5067 25.0831 30.5523C25.1429 30.5976 25.3527 30.5523 25.3676 30.7196C25.3824 30.8866 25.5024 30.613 25.5024 30.613L25.5024 29.5795Z" fill="url(#paint17_linear_4_3228)"/>
<path opacity="0.9" d="M25.3801 30.9017L25.2305 30.8107V31.1753L25.4704 31.494L25.56 31.2813L25.5904 31.1445L25.4852 31.0994L25.5001 30.8716L25.5904 30.8559L25.6052 30.7491L25.3801 30.9017Z" fill="url(#paint18_linear_4_3228)"/>
<path opacity="0.9" d="M25.62 31.6767L25.5155 31.6917L25.5 31.8135L25.62 31.8285V31.6767Z" fill="url(#paint19_linear_4_3228)"/>
<path opacity="0.9" d="M25.4845 32.4516L25.3574 32.4667V32.5734L25.4845 32.5583V32.4516Z" fill="url(#paint20_linear_4_3228)"/>
<path opacity="0.9" d="M25.6631 32.0911C25.6982 32.0911 25.7264 32.0624 25.7264 32.0269C25.7264 31.9911 25.6982 31.9622 25.6631 31.9622C25.628 31.9622 25.5996 31.991 25.5996 32.0269C25.5996 32.0624 25.628 32.0911 25.6631 32.0911Z" fill="url(#paint21_linear_4_3228)"/>
<path opacity="0.9" d="M25.7666 32.4103C25.8017 32.4103 25.8302 32.3814 25.8302 32.3458C25.8302 32.3102 25.8017 32.2814 25.7666 32.2814C25.7316 32.2814 25.7031 32.3102 25.7031 32.3458C25.7031 32.3814 25.7316 32.4103 25.7666 32.4103Z" fill="url(#paint22_linear_4_3228)"/>
<path opacity="0.9" d="M25.7705 30.6743C25.8056 30.6743 25.8341 30.6455 25.8341 30.6099C25.8341 30.5743 25.8056 30.5454 25.7705 30.5454C25.7355 30.5454 25.707 30.5743 25.707 30.6099C25.707 30.6455 25.7355 30.6743 25.7705 30.6743Z" fill="url(#paint23_linear_4_3228)"/>
<path opacity="0.9" d="M30.1573 29.6855L30.2476 29.5795L30.2772 29.4578L30.4269 29.3668L30.6068 29.336L30.6816 29.2451L30.712 29.0631L30.7226 28.9263L30.7868 28.8347L30.966 28.7587V28.4701H30.8764L30.8616 28.3634L30.6964 28.3483L30.6668 28.4242H30.592L30.5765 28.546H30.6668L30.6816 28.637L30.6216 28.6979L30.592 28.7738L30.472 28.8046L30.2024 29.0631L30.1876 29.1842L30.1128 29.2909L30.0232 29.5187L29.7084 29.5337L29.6484 29.8073L29.6929 30.0351L29.9625 30.1418L29.9928 29.9899L30.0825 29.9441L30.098 29.7923L30.1573 29.6855Z" fill="url(#paint24_linear_4_3228)"/>
<path opacity="0.9" d="M31.2812 29.3977V29.1849L31.2511 28.9873L31.0268 28.881L30.8621 29.033L30.832 29.2458V29.3825L30.6823 29.413L30.6522 29.8233L30.5326 29.869L30.5475 30.021L30.3829 30.0665L30.2182 30.1121L30.1882 30.3097L30.0686 30.3856L30.0083 30.568L29.9336 31.0087C29.9336 31.0087 30.0685 31.2671 30.1433 31.1454C30.2182 31.024 30.3379 31.0087 30.3379 31.0087L30.3829 30.9023L30.7872 30.9175C30.8172 30.7502 31.0118 30.8112 31.0118 30.8871C31.0118 30.9631 31.1616 30.9022 31.1616 30.9022L31.2664 30.7351H31.4309L31.4459 30.5529L31.5209 30.5072V30.2336C31.7606 30.1576 31.7304 29.9297 31.7304 29.9297L31.7906 29.8538L31.7606 29.7475C31.6406 29.7017 31.7004 29.5952 31.7754 29.6257C31.8505 29.656 31.6706 29.4889 31.6706 29.4889C31.5808 29.565 31.5061 29.3978 31.5061 29.3978L31.2812 29.3977Z" fill="url(#paint25_linear_4_3228)"/>
<path opacity="0.9" d="M31.5208 31.2361C31.506 31.4184 31.2812 31.4793 31.2812 31.4793L31.1165 31.4338L31.0268 31.3578L31.0117 31.1449L31.1464 31.1299L31.1764 31.2211L31.5208 31.2361Z" fill="url(#paint26_linear_4_3228)"/>
<path opacity="0.9" d="M32.3289 30.2644C32.3613 30.3969 32.3586 30.0514 32.4185 30.0668C32.4784 30.0819 32.4336 29.8541 32.4336 29.8541L32.1641 30.0514C32.2988 30.0668 32.3137 30.2036 32.3289 30.2644Z" fill="url(#paint27_linear_4_3228)"/>
<path opacity="0.9" d="M33.1231 29.4733C33.1829 29.6102 33.1681 29.8078 33.3924 29.9598C33.4682 30.011 33.3475 30.1118 33.2725 30.0661C33.1977 30.0206 32.9883 29.6861 32.9883 29.6861V29.4885C33.0332 29.3671 33.0971 29.4145 33.1231 29.4733Z" fill="url(#paint28_linear_4_3228)"/>
<path opacity="0.9" d="M33.2275 34.0166L33.123 34.0933L33.1675 34.1384L33.212 34.2143L33.3171 34.0474L33.2275 34.0166Z" fill="url(#paint29_linear_4_3228)"/>
<path opacity="0.9" d="M35.0344 33.5539L34.9865 33.4773L34.8672 33.5525L34.9145 33.6299L35.0344 33.5539Z" fill="url(#paint30_linear_4_3228)"/>
<path opacity="0.9" d="M39.2481 36.7974L39.3831 36.858L39.3978 37.1164C39.5776 37.2988 40.1616 37.147 40.1616 37.1013C40.1616 37.0556 40.1314 36.539 40.1314 36.539L40.0564 36.4629L40.0416 36.0828C40.1015 35.8852 39.757 35.5964 39.7272 35.6575C39.6973 35.7181 39.5025 35.6723 39.5025 35.7334C39.5025 35.794 39.3829 36.098 39.4427 36.2045C39.5025 36.3109 39.3977 36.3109 39.3829 36.4172C39.3681 36.5236 39.2181 36.7062 39.2481 36.7974Z" fill="url(#paint31_linear_4_3228)"/>
<path opacity="0.9" d="M38.9206 36.1889C38.8923 36.3041 38.7861 36.3713 38.7263 36.3256C38.666 36.2799 38.8007 36.4015 38.8309 36.4625C38.8608 36.5231 38.9505 36.5231 38.9807 36.4625C39.0105 36.4014 38.9954 36.265 39.0257 36.2042C39.0555 36.1433 38.9357 36.128 38.9206 36.1889Z" fill="url(#paint32_linear_4_3228)"/>
<path opacity="0.9" d="M38.3254 33.4034H38.2207V33.6922H38.3254V33.4034Z" fill="url(#paint33_linear_4_3228)"/>
<path opacity="0.9" d="M39.7734 30.4768C39.7081 30.3883 40.0728 30.2337 40.1327 30.4161C40.1925 30.5982 40.1327 30.5681 40.0729 30.5529C40.0128 30.5375 39.8633 30.5983 39.7734 30.4768Z" fill="url(#paint34_linear_4_3228)"/>
<path opacity="0.9" d="M40.0781 28.5303L40.2426 28.5603L40.2588 28.4708L40.0937 28.4407L40.0781 28.5303Z" fill="url(#paint35_linear_4_3228)"/>
<path opacity="0.9" d="M39.6741 28.5976L39.5626 28.6606L39.4653 28.599L39.418 28.6756L39.5379 28.7516L39.5605 28.7659L39.5831 28.753L39.6734 28.7021L39.6847 28.7301L39.768 28.6964L39.7377 28.6205L39.7186 28.5725L39.6741 28.5976Z" fill="url(#paint36_linear_4_3228)"/>
<path opacity="0.9" d="M40.2352 25.0055H40.0104C40.0104 25.0055 40.0854 25.0358 39.8759 24.8382C39.6659 24.6407 39.5314 24.8839 39.5314 24.8839L39.2918 24.9142V25.1574L39.1719 25.2029L39.187 25.355L39.3516 25.3399C39.3516 25.3399 39.3516 25.5222 39.3966 25.4462C39.4416 25.3702 39.816 25.4613 39.7859 25.6438C39.7738 25.7187 40.1604 25.9172 40.1155 26.1603C40.3101 26.1908 40.2652 26.3885 40.2652 26.3885L40.5196 26.4188L40.5947 26.2668L40.6694 26.2821V26.1908L40.5044 26.1453L40.4746 25.6589L40.3698 25.5829L40.3996 25.4613L40.2799 25.4157L40.3398 25.2181L40.2352 25.0055Z" fill="url(#paint37_linear_4_3228)"/>
<path opacity="0.9" d="M40.8965 26.5555L40.7768 26.5405L40.5069 26.586L40.3575 26.8747C40.3575 26.8747 40.4322 26.9204 40.492 27.0267C40.5518 27.1332 40.5819 27.7561 40.4022 27.8627C40.2227 27.9691 40.4173 27.9081 40.4173 27.9081L40.3871 28.2425C40.4321 28.3945 40.5068 28.3186 40.5517 28.2425C40.5971 28.1667 40.642 28.1515 40.7019 28.0755C40.7617 27.9993 40.8515 27.8627 40.8665 27.7562C40.8813 27.6499 40.9563 27.4828 40.9113 27.4371C40.8665 27.3915 40.9564 27.1789 40.9564 27.1789C40.9564 27.1789 41.0162 27.0571 40.9564 26.9356C40.8965 26.8139 40.9711 26.6772 41.0162 26.6163L40.8965 26.5555Z" fill="url(#paint38_linear_4_3228)"/>
<path opacity="0.9" d="M41.0895 27.0537L41.0742 27.1753L41.1635 27.1869L41.1788 27.0653L41.0895 27.0537Z" fill="url(#paint39_linear_4_3228)"/>
<path opacity="0.9" d="M40.9882 27.5545L41.0684 27.5952L41.1133 27.5041L41.0332 27.4634L40.9882 27.5545Z" fill="url(#paint40_linear_4_3228)"/>
<path opacity="0.9" d="M40.9365 26.3888L40.8764 26.2519C40.8764 26.2519 40.8764 26.1305 40.9062 26.0695C40.9365 26.0088 40.8464 25.9481 40.8016 25.9329C40.7566 25.9176 40.7717 25.7961 40.7566 25.7352C40.7419 25.6745 40.637 25.6289 40.637 25.6289C40.637 25.6289 40.6068 25.401 40.6068 25.3554C40.6068 25.3098 40.472 25.2491 40.517 25.2034C40.562 25.1578 40.592 25.0971 40.637 25.0666C40.6819 25.0362 40.592 24.8234 40.6668 24.8689C40.7419 24.9146 40.7419 24.9906 40.7718 25.0514C40.8017 25.1121 40.7567 25.325 40.8317 25.3706C40.9064 25.4161 40.8166 25.568 40.9365 25.568C41.0562 25.568 40.9815 25.8569 40.9815 25.8569C40.9815 25.8569 40.9512 26.0695 41.0261 26.0848C41.1011 26.1 41.0563 26.4647 41.0563 26.4647L40.9365 26.3888Z" fill="url(#paint41_linear_4_3228)"/>
<path opacity="0.9" d="M39.9668 23.926C40.0115 23.9867 40.1014 24.0323 40.1014 24.0933C40.1014 24.1541 40.0716 24.1996 40.1616 24.2148C40.2512 24.2299 40.3112 24.1995 40.3411 24.2755C40.3709 24.3515 40.371 24.4731 40.3562 24.5339C40.3411 24.5948 40.3709 24.6859 40.4458 24.6859C40.5208 24.6859 40.5357 24.7011 40.5357 24.7468C40.5357 24.7922 40.6257 24.5794 40.6257 24.5794C40.5506 24.5187 40.4907 24.3818 40.4907 24.3818C40.4907 24.3818 40.416 24.1691 40.416 24.1387C40.416 24.1084 40.3113 24.0779 40.2664 24.0627C40.2214 24.0475 40.1464 23.9108 40.1464 23.9108L39.9668 23.926Z" fill="url(#paint42_linear_4_3228)"/>
<path opacity="0.9" d="M40.1175 23.79C40.0725 23.729 40.0275 23.6835 39.9677 23.6532C39.908 23.6227 39.863 23.5924 39.8029 23.5924C39.7431 23.5924 39.6833 23.5315 39.713 23.4556C39.7432 23.3796 39.668 23.3492 39.668 23.2883C39.668 23.2276 39.713 23.2276 39.7879 23.2732C39.863 23.3188 39.8478 23.3339 39.908 23.4101C39.9677 23.486 39.9975 23.562 40.0573 23.5467C40.1175 23.5315 40.1624 23.6835 40.2222 23.6379C40.2821 23.5924 40.2673 23.7443 40.2673 23.7443L40.1175 23.79Z" fill="url(#paint43_linear_4_3228)"/>
<path opacity="0.9" d="M38.3632 25.507C38.4458 25.591 37.9141 25.5677 37.9141 25.507C37.9141 25.4463 37.9591 25.2337 38.0936 25.2789C38.2284 25.3247 38.2432 25.0055 38.2432 25.0055C38.2432 25.0055 38.1236 25.0206 38.2285 24.9599C38.3333 24.8992 38.2285 24.8079 38.1835 24.7624C38.1386 24.7167 38.0937 24.6407 38.0937 24.6407H38.3035C38.3934 24.5799 38.4231 24.2912 38.4231 24.2912C38.6027 24.352 38.6926 24.2303 38.6926 24.2303C38.6926 24.2303 38.7228 24.3215 38.7828 24.3977C38.8426 24.4735 38.6327 24.504 38.7077 24.5496C38.7828 24.5953 38.8125 24.7319 38.7828 24.7774C38.7525 24.823 38.5877 24.7927 38.5877 24.7319C38.5877 24.6711 38.5279 24.8079 38.5877 24.8839C38.6475 24.9599 38.513 25.0662 38.4829 25.0662C38.453 25.0662 38.2585 25.0967 38.4231 25.1878C38.5877 25.2789 38.7677 25.2336 38.7677 25.2336C38.7677 25.2336 38.9024 25.2182 38.9473 25.2943C38.9923 25.3703 38.9325 25.3855 38.8575 25.3855C38.7828 25.3855 38.4231 25.355 38.4231 25.355C38.4231 25.355 38.3183 25.4614 38.3632 25.507Z" fill="url(#paint44_linear_4_3228)"/>
<path opacity="0.9" d="M37.4041 25.6438C37.4792 25.6287 37.6585 25.6133 37.6887 25.659C37.7189 25.7045 37.5839 25.7653 37.5839 25.7653L37.4041 25.7958C37.3443 25.7197 37.3294 25.659 37.4041 25.6438Z" fill="url(#paint45_linear_4_3228)"/>
<path opacity="0.9" d="M39.3379 24.3675C39.4576 24.3068 39.7121 24.3068 39.6972 24.2155C39.6824 24.1243 39.8469 24.094 39.8469 24.094L39.8918 24.2762L40.0266 24.3674L40.0417 24.5346C40.0417 24.5346 40.0865 24.5043 39.922 24.5499C39.757 24.5955 39.8622 24.6714 39.8622 24.6714L39.5026 24.6865L39.4577 24.5346L39.3379 24.3675Z" fill="url(#paint46_linear_4_3228)"/>
<path opacity="0.9" d="M38.7532 23.5469C38.8443 23.5469 38.7233 23.8965 38.9627 23.8661C39.2024 23.8356 38.9779 23.9725 39.1575 23.9876C39.3373 24.003 39.2923 23.8508 39.3522 23.7445C39.4123 23.6382 39.3824 23.5773 39.2774 23.5469C39.1724 23.5166 39.1724 23.5166 39.1427 23.3948C39.1128 23.2733 38.9929 23.2428 38.9929 23.2428L38.9479 23.0606L38.7532 23.1821L38.5586 23.4404C38.5586 23.6382 38.6633 23.5469 38.7532 23.5469Z" fill="url(#paint47_linear_4_3228)"/>
<path opacity="0.9" d="M39.1954 24.7404L39.1504 24.8316L39.2309 24.8725L39.2759 24.7813L39.1954 24.7404Z" fill="url(#paint48_linear_4_3228)"/>
<path opacity="0.9" d="M39.0801 24.6865H38.9902V24.7929H39.0801V24.6865Z" fill="url(#paint49_linear_4_3228)"/>
<path opacity="0.9" d="M39.0854 22.7981L39.0703 22.6615L38.981 22.6716L38.9961 22.8083L39.0854 22.7981Z" fill="url(#paint50_linear_4_3228)"/>
<path opacity="0.9" d="M38.9024 24.0783H38.8125V24.1545H38.9024V24.0783Z" fill="url(#paint51_linear_4_3228)"/>
<path opacity="0.9" d="M38.5693 23.9862L38.5781 24.0771L38.7279 24.0621L38.719 23.9713L38.5693 23.9862Z" fill="url(#paint52_linear_4_3228)"/>
<path opacity="0.9" d="M37.2595 25.5022L37.3418 25.5381L37.3868 25.4317L37.3045 25.3959L37.2595 25.5022Z" fill="url(#paint53_linear_4_3228)"/>
<path opacity="0.9" d="M36.8642 25.1712L36.873 25.2618L37.023 25.2468L37.0142 25.1562L36.8642 25.1712Z" fill="url(#paint54_linear_4_3228)"/>
<path opacity="0.9" d="M33.9453 25.2485L33.9495 25.3394L34.2784 25.3244L34.2742 25.2334L33.9453 25.2485Z" fill="url(#paint55_linear_4_3228)"/>
<path opacity="0.9" d="M33.6948 25.2288L33.7246 25.3654L33.8125 25.3457L33.7826 25.209L33.6948 25.2288Z" fill="url(#paint56_linear_4_3228)"/>
<path opacity="0.9" d="M33.6337 25.3737L33.6621 25.4602L33.707 25.445L33.6786 25.3585L33.6337 25.3737Z" fill="url(#paint57_linear_4_3228)"/>
<path opacity="0.9" d="M34.4093 25.2035L34.3945 25.3099L34.559 25.3251C34.559 25.3251 34.6337 25.386 34.6337 25.4314C34.6337 25.4771 34.7388 25.5226 34.7987 25.5226C34.8585 25.5226 35.0232 25.401 35.0232 25.401C35.0232 25.401 35.0982 25.1882 35.0383 25.2034C34.9782 25.2185 34.8585 25.3097 34.8437 25.2185C34.8285 25.1273 34.649 25.1729 34.649 25.1729L34.4093 25.2035Z" fill="url(#paint58_linear_4_3228)"/>
<path opacity="0.9" d="M35.1591 25.0361C35.1591 25.0816 35.1292 25.1424 35.2189 25.1577C35.3092 25.1727 35.4738 25.097 35.4886 25.188C35.5037 25.2792 35.5037 25.3402 35.6234 25.3858C35.7431 25.4313 35.8182 25.4465 35.908 25.4465C35.9976 25.4465 36.1926 25.416 36.1926 25.416C36.1926 25.416 36.4044 25.4491 36.447 25.4921C36.6116 25.6592 36.7165 25.7047 36.7613 25.6288C36.8063 25.5528 36.7466 25.3857 36.7315 25.3249C36.7163 25.264 36.5067 24.9753 36.4318 25.0361C36.3571 25.097 36.3421 25.0361 36.2073 25.0815C36.0725 25.1272 35.7879 25.0969 35.7731 25.0361C35.7584 24.9752 35.5486 24.945 35.5486 24.8841C35.5486 24.8232 35.3989 24.7473 35.4138 24.8385C35.4285 24.9296 35.309 24.9752 35.2786 24.945C35.2488 24.9145 35.1591 25.0361 35.1591 25.0361Z" fill="url(#paint59_linear_4_3228)"/>
<path opacity="0.9" d="M38.6006 23.0903L38.7055 22.7562C38.556 22.7257 38.5857 22.5587 38.5857 22.5587C38.5709 22.4218 38.3612 22.2699 38.2862 22.3155C38.2115 22.3609 38.2412 21.9962 38.2412 21.9962C38.2412 21.9962 38.3762 21.9052 38.436 21.9507C38.4959 21.9962 37.927 21.1909 37.8071 21.2668C37.6874 21.3428 37.418 21.1909 37.4329 21.054C37.4476 20.9173 36.8938 20.4613 36.8938 20.4613C36.8938 20.4613 36.714 20.3399 36.6841 20.4311C36.6543 20.5222 36.5943 20.583 36.6841 20.6285C36.7738 20.6741 36.7589 20.5525 36.8636 20.6588C36.9684 20.7652 37.1633 20.902 37.0884 20.9932C37.0134 21.0845 36.9235 21.1149 36.9235 21.1149L37.0285 21.2365H37.1932L37.223 21.4947C37.223 21.4947 37.4026 21.586 37.4476 21.6923C37.4925 21.7986 37.4925 21.8595 37.4476 21.9204C37.4026 21.9811 37.3131 22.0875 37.3279 22.1938C37.3426 22.3001 37.4627 22.3458 37.4627 22.3458L37.5823 22.361L37.6723 22.4067V22.6044C37.7919 22.5739 37.9866 22.7409 37.9717 22.8474C37.957 22.9538 38.0016 22.893 38.1512 22.9994C38.3012 23.1058 38.2563 23.121 38.361 23.197C38.4659 23.2728 38.556 23.2273 38.6006 23.0903Z" fill="url(#paint60_linear_4_3228)"/>
<path opacity="0.9" d="M36.134 21.0237C36.1193 20.9628 36.089 20.7499 36.179 20.7651C36.2688 20.7805 36.2088 20.7651 36.3138 20.8108C36.4186 20.8565 36.4335 20.7349 36.4335 20.7349H36.5983L36.8079 20.9019L36.778 21.0388L36.6283 21.0538C36.5535 20.9324 36.4037 20.978 36.4336 21.0844C36.4635 21.1907 36.3589 21.3883 36.2991 21.4034C36.2392 21.4187 36.0442 21.4187 36.0594 21.3275C36.0742 21.2364 36.134 21.0237 36.134 21.0237Z" fill="url(#paint61_linear_4_3228)"/>
<path opacity="0.9" d="M36.0118 20.6128V20.4913C36.0118 20.4913 35.9966 20.3698 35.9218 20.3698C35.8472 20.3698 35.7123 20.2787 35.742 20.2178C35.7722 20.1569 35.4876 20.0962 35.4876 20.0962C35.4876 20.0962 35.2332 19.853 35.323 19.8835C35.4129 19.9139 35.368 19.777 35.368 19.777C35.368 19.777 35.1881 19.8074 35.1432 19.7923C35.0982 19.777 35.113 19.6403 35.113 19.6403C35.113 19.6403 34.9336 19.5947 34.9336 19.6403C34.9336 19.6859 34.9934 19.6859 35.0232 19.777C35.0534 19.8681 35.0383 20.0202 35.1733 20.0505C35.3081 20.081 35.3378 20.1112 35.3531 20.1721C35.3678 20.233 35.5326 20.2481 35.5326 20.2481L35.6525 20.3088L36.0118 20.6128Z" fill="url(#paint62_linear_4_3228)"/>
<path opacity="0.9" d="M34.3504 18.9413L34.2305 18.9112V19.048L34.3949 19.0631L34.3504 18.9413Z" fill="url(#paint63_linear_4_3228)"/>
<path opacity="0.9" d="M34.3495 18.4248C34.1929 18.306 34.559 18.5161 34.559 18.5161C34.6787 18.5161 34.7536 18.6072 34.7536 18.6529C34.7536 18.6985 34.9183 18.6833 34.9183 18.6833L34.9334 18.5768L34.8134 18.4248L34.7087 18.349C34.7087 18.349 34.5441 18.3338 34.5441 18.2881C34.544 18.2427 34.4094 18.4705 34.3495 18.4248Z" fill="url(#paint64_linear_4_3228)"/>
<path opacity="0.9" d="M37.1035 18.5159C37.0598 18.6489 37.0437 18.8351 36.9688 18.8351C36.894 18.8351 36.9238 19.0329 36.9238 19.0329C36.9238 19.0329 37.1188 19.0329 37.1787 19.0479C37.2384 19.063 37.2384 19.215 37.2384 19.215C37.4632 19.1999 37.5531 19.5038 37.5229 19.5798C37.4931 19.6557 37.6128 19.6557 37.6128 19.6557C37.6128 19.6557 37.6129 19.899 37.5826 19.9596C37.5528 20.0205 37.7774 20.0661 37.8372 20.1572C37.8971 20.2485 37.807 20.5524 37.7624 20.5676C37.7175 20.5829 37.882 20.6283 37.8672 20.7043C37.8521 20.7805 37.9121 20.7043 37.927 20.826C37.9418 20.9475 37.972 21.2058 37.972 21.2058L38.1815 21.2212C38.2117 21.0236 38.5977 21.016 38.6607 21.0387C38.9153 21.1299 39.1102 21.5251 39.1102 21.6162C39.1102 21.7073 38.9453 21.7227 38.9453 21.7227L38.9755 22.1632C39.2299 22.2393 39.4396 22.6042 39.4097 22.6649C39.3799 22.7256 39.5892 22.7106 39.5892 22.7106C39.6194 22.4369 39.8738 22.5281 39.8886 22.6194C39.9041 22.7106 39.9485 22.9081 39.9485 22.9081L40.0235 23.0447L40.1283 23.1512L40.2929 23.136L40.3379 23.2272L40.5326 23.2577C40.5326 23.2577 40.6975 23.4399 40.7124 23.4856C40.7275 23.5311 40.952 23.516 41.0118 23.5311C41.0716 23.5464 41.1616 23.592 41.1764 23.6679C41.1915 23.744 41.2815 23.8655 41.2815 23.8655C41.2815 23.8655 41.461 23.9112 41.4761 23.9719C41.4909 24.0326 41.5661 24.1694 41.5661 24.1694L41.7155 24.291L41.7306 24.4279L41.8952 24.4431L41.9402 24.6253L42.2095 24.6102L42.3596 24.5039C42.5542 24.3976 42.689 24.2607 42.704 24.1998C42.7188 24.1391 42.7489 23.9112 42.8987 23.9568C43.0483 24.0024 42.9436 23.6224 42.9436 23.6224C42.9436 23.6224 42.734 23.4704 42.7489 23.3942C42.764 23.3184 42.5394 23.1665 42.5542 23.1056C42.569 23.0447 42.3596 22.9233 42.3745 22.8625C42.3892 22.8016 42.2697 22.6344 42.2697 22.6344L42.0449 22.4217L42.015 22.2849L41.8355 22.2698L41.4762 21.829L41.4909 21.7073L41.3861 21.6922V21.5251L41.2815 21.4642L41.1165 21.4491L40.7873 21.0844L40.7574 20.9172H40.5928L40.6226 20.5979C40.7276 20.4611 40.6675 20.2028 40.6675 20.2028C40.6675 20.2028 40.4577 20.3091 40.3532 20.2635C40.2482 20.2181 40.3979 20.1115 40.3979 20.1115V19.9901L40.3082 19.8989C40.3082 19.8989 40.0535 19.9294 40.0387 19.8839C40.0236 19.8382 39.9788 19.6406 39.9788 19.6406L39.9637 19.3822L39.8591 19.3368L39.8439 19.2455L39.6795 19.2606V19.0783L39.5895 19.0479L39.4997 19.0023L39.4846 18.8199L39.1552 18.8048L39.0503 18.6529L38.9306 18.4704L38.5563 18.4401L38.4664 18.349L38.3167 18.3185L38.2119 18.2729L38.1669 18.3491L37.8823 18.3641L37.8676 18.4553C37.7179 18.5313 37.1188 18.4704 37.1035 18.5159Z" fill="url(#paint65_linear_4_3228)"/>
<path opacity="0.9" d="M38.677 18.1213C38.6532 18.0013 38.9768 17.8933 39.0515 17.9844C39.1265 18.0756 39.336 18.0911 39.366 18.547C39.3766 18.7102 39.0965 18.3798 39.0965 18.3798L38.8717 18.3038C38.752 18.2733 38.6919 18.1975 38.677 18.1213Z" fill="url(#paint66_linear_4_3228)"/>
<path opacity="0.9" d="M34.2033 18.27L34.2852 18.307L34.3452 18.1702L34.2634 18.1332L34.2033 18.27Z" fill="url(#paint67_linear_4_3228)"/>
<path opacity="0.9" d="M33.5121 16.8143L33.317 16.6167V16.4495L33.2572 16.3886L33.1973 16.1759L33.0027 16.1152L32.808 16.1911L32.5984 16.3279L32.3739 16.3584L32.2539 16.4951L32.7332 16.5405L32.8229 16.6927L33.1676 16.7231L33.392 16.951C33.587 17.0118 33.6318 16.9206 33.5121 16.8143Z" fill="url(#paint68_linear_4_3228)"/>
<path opacity="0.9" d="M33.4813 16.0694C33.4483 15.9358 33.2565 16.2365 33.4516 16.2971C33.6462 16.3582 33.8406 16.2971 33.8406 16.2971L33.8856 16.206L34.6341 16.2213C34.6944 16.1604 34.724 16.0693 34.724 16.0693C34.724 16.0693 34.9039 16.0084 34.9785 16.0388C35.0535 16.0693 34.9936 15.8261 34.9187 15.8565C34.8439 15.8868 34.6942 15.8717 34.6942 15.8717H34.4246C34.4098 15.7654 34.1701 15.8108 34.1551 15.8717C34.14 15.9324 34.0505 15.9476 34.0505 15.9476L33.706 15.9781C33.6759 16.0694 33.4965 16.1301 33.4813 16.0694Z" fill="url(#paint69_linear_4_3228)"/>
<path opacity="0.9" d="M31.9985 18.6338C32.2288 18.7069 32.3128 18.6528 32.3281 18.592C32.343 18.5312 32.3578 18.5159 32.4478 18.5009C32.5375 18.4856 32.4327 18.3033 32.343 18.3184C32.253 18.3336 32.1632 18.2881 32.1483 18.2121C32.133 18.1362 31.9834 17.9385 31.9685 18.0906C31.9536 18.2426 31.8637 18.2426 31.8786 18.3489C31.8937 18.4551 31.9387 18.6146 31.9985 18.6338Z" fill="url(#paint70_linear_4_3228)"/>
<path opacity="0.9" d="M30.2776 18.805C30.2668 18.7513 30.5771 18.7443 30.6221 18.7897C30.6671 18.8354 30.637 18.9113 30.7718 18.9113C30.9064 18.9113 30.8466 19.0026 30.8316 19.0482C30.8167 19.0937 30.6671 19.0785 30.6518 19.0331C30.637 18.9875 30.4122 18.9721 30.4122 18.9721C30.4122 18.9721 30.2925 18.8808 30.2776 18.805Z" fill="url(#paint71_linear_4_3228)"/>
<path opacity="0.9" d="M35.253 15.6432L35.1768 15.5658L35.1133 15.6302L35.2177 15.7365L35.2467 15.7655L35.2777 15.7401L35.428 15.6184L35.3716 15.5472L35.253 15.6432Z" fill="url(#paint72_linear_4_3228)"/>
<path opacity="0.9" d="M34.4496 15.2099L34.4023 15.2872L34.5223 15.363L34.5456 15.3784L34.5696 15.363L34.7347 15.2565L34.6868 15.1797L34.5456 15.2705L34.4496 15.2099Z" fill="url(#paint73_linear_4_3228)"/>
<path opacity="0.9" d="M34.0416 18.3948L33.892 18.3791L33.8828 18.4701L34.0113 18.4829L34.1044 18.6312L34.1799 18.5825L34.0755 18.4156L34.0635 18.397L34.0416 18.3948Z" fill="url(#paint74_linear_4_3228)"/>
<path opacity="0.9" d="M29.1102 22.6345L29.1256 22.8018H29.3499C29.4398 22.8018 29.2752 22.6954 29.2752 22.6954C29.2752 22.6954 29.0954 22.7107 29.1102 22.6345Z" fill="url(#paint75_linear_4_3228)"/>
<path opacity="0.9" d="M29.4519 22.5683L29.3945 22.6385L29.4844 22.7142L29.5418 22.644L29.4519 22.5683Z" fill="url(#paint76_linear_4_3228)"/>
<path opacity="0.9" d="M26.7296 19.7306L26.666 19.795L26.7558 19.8862L26.8194 19.8218L26.7296 19.7306Z" fill="url(#paint77_linear_4_3228)"/>
<path opacity="0.9" d="M30.8664 39.2802L30.8262 39.3619L30.92 39.4091L30.889 39.4406L30.9532 39.5051L31.028 39.4292L31.0718 39.3848L31.016 39.3561L30.8664 39.2802Z" fill="url(#paint78_linear_4_3228)"/>
<path opacity="0.9" d="M29.8008 38.1916L29.7105 38.2675L29.666 38.3054L29.7133 38.3398L29.8185 38.4157L29.8707 38.342L29.8128 38.2997L29.858 38.2618L29.8008 38.1916Z" fill="url(#paint79_linear_4_3228)"/>
<path opacity="0.9" d="M40.9954 35.3801C40.9757 35.3026 40.8882 35.2709 40.8783 35.2676L40.8496 35.3543C40.8568 35.357 40.867 35.3621 40.8776 35.3689L40.8961 35.4477C40.8893 35.4579 40.8821 35.4673 40.8764 35.4741L40.9424 35.5358C40.9904 35.4823 41.0079 35.4302 40.9954 35.3801Z" fill="url(#paint80_linear_4_3228)"/>
<path opacity="0.9" d="M40.9844 35.081L40.9957 34.9442L41.1418 34.9671L41.1305 35.0917L40.9844 35.081Z" fill="url(#paint81_linear_4_3228)"/>
<path opacity="0.9" d="M44.6004 33.9061C44.6644 33.8656 44.7463 33.7919 44.7351 33.9631C44.7238 34.134 44.6564 34.0772 44.6004 34.134C44.5443 34.1911 44.5105 33.9632 44.6004 33.9061Z" fill="url(#paint82_linear_4_3228)"/>
<path opacity="0.9" d="M45.3638 33.2635C45.3625 33.2605 45.3618 33.2499 45.3611 33.2424C45.3591 33.2174 45.3558 33.1832 45.3381 33.1472L45.2578 33.188C45.2676 33.2084 45.2699 33.2298 45.2714 33.2504C45.2737 33.2773 45.2767 33.3075 45.302 33.3268C45.3183 33.3389 45.3383 33.3427 45.3627 33.3377L45.3457 33.2495C45.3525 33.2506 45.3615 33.2567 45.3638 33.2635Z" fill="url(#paint83_linear_4_3228)"/>
<path opacity="0.9" d="M45.1641 33.3353C45.1867 33.4277 45.2202 33.5188 45.2217 33.5226L45.3059 33.4904C45.3053 33.4896 45.2726 33.4005 45.2511 33.313L45.1641 33.3353Z" fill="url(#paint84_linear_4_3228)"/>
<path opacity="0.9" d="M44.839 33.6944L44.7495 33.6853C44.7424 33.757 44.7597 33.8456 44.8304 33.86L44.8478 33.7706C44.8476 33.7706 44.8484 33.7706 44.8478 33.7706C44.8406 33.7642 44.8356 33.7281 44.839 33.6944Z" fill="url(#paint85_linear_4_3228)"/>
<path opacity="0.9" d="M44.4428 31.8821C44.4382 31.8529 44.4205 31.8302 44.3936 31.8182C44.3271 31.789 44.2151 31.8373 44.1602 31.8746L44.2098 31.9505C44.2667 31.912 44.3414 31.8934 44.358 31.9019C44.3565 31.9014 44.3545 31.8987 44.3539 31.8969L44.4428 31.8821Z" fill="url(#paint86_linear_4_3228)"/>
<path opacity="0.9" d="M40.2959 27.0268C40.2361 27.0877 40.1013 27.1181 40.1013 27.1181L40.0563 27.2852L39.9816 27.346C39.9816 27.346 39.9964 27.3915 39.9816 27.498C39.9665 27.6043 39.8318 27.6651 39.8318 27.6651L39.772 27.7411C39.772 27.7411 39.411 27.7607 39.3677 27.7411C39.2329 27.6804 39.3228 27.498 39.4127 27.5131C39.5024 27.5284 39.3975 27.2547 39.3975 27.2547L39.5175 27.2396C39.5175 27.2396 39.5323 26.9659 39.5773 26.9659C39.6223 26.9659 39.5626 26.8748 39.5023 26.8292C39.4425 26.7838 39.3677 26.6318 39.3076 26.6469C39.2477 26.662 39.0081 26.6469 39.0081 26.6469L38.9632 26.7382L38.7984 26.7685C38.7984 26.7685 38.8128 26.886 38.7837 26.9205C38.6935 27.0268 38.3493 27.2548 38.4988 26.8749L38.5437 26.7839V26.647L38.2744 26.632C38.2744 26.632 38.1397 26.5863 38.1397 26.5255C38.1397 26.4646 38.1245 26.3888 38.1245 26.3888L37.81 26.0393L37.4358 25.9937L37.4056 25.9176L37.1812 25.8872C36.9115 25.7506 36.6719 25.872 36.7169 26.1C36.7618 26.3281 36.8365 26.4193 36.687 26.4193C36.537 26.4193 36.5072 26.2977 36.5072 26.2977C36.5072 26.2977 36.3876 26.252 36.3876 26.3127C36.3876 26.3736 36.3425 26.4952 36.3876 26.5559C36.4323 26.6166 36.3274 26.7079 36.2825 26.6623C36.2379 26.6167 36.118 26.4801 36.148 26.4345C36.1778 26.3889 35.9381 26.1 36.1778 26.0545C36.4175 26.0089 36.1627 25.872 36.2528 25.8418L36.3725 25.7809H36.4922L36.5671 25.7201L36.3725 25.6898L36.2528 25.6746L36.0281 25.6594C35.8036 25.8114 35.7588 25.9938 35.7588 25.9938C35.6387 26.2217 35.3545 25.9025 35.4594 25.781C35.564 25.6594 35.1298 25.7657 35.0548 25.8265C34.9798 25.8873 34.7553 25.8569 34.7553 25.8569C34.7104 25.9938 34.5008 25.8418 34.5606 25.7506C34.6205 25.6594 34.6205 25.5986 34.6205 25.5986L34.5458 25.5833L34.456 25.7505C34.2464 25.7505 34.1863 25.872 34.2312 25.9481C34.276 26.0239 34.1713 25.9329 34.1413 26.0392C34.1114 26.1456 34.1564 26.1456 34.2463 26.1912C34.3362 26.2368 34.2013 26.2368 34.2611 26.3127C34.3209 26.3888 34.5007 26.3127 34.3959 26.4192C34.2911 26.5255 34.0812 26.4801 34.0812 26.4801C34.0665 26.6166 33.7818 26.5864 33.7521 26.5408C33.722 26.4952 33.4975 26.2216 33.4975 26.2216L33.2126 26.2064C33.1829 25.9937 33.3476 26.1 33.4074 25.9329C33.4676 25.7656 33.4975 25.4922 33.4975 25.4922C33.4975 25.4922 33.2577 25.477 33.2428 25.553C33.2279 25.629 33.0781 25.6746 33.0781 25.6746C33.0781 25.6746 32.9582 25.7201 33.0032 25.781C33.0481 25.8418 32.9133 25.872 32.9133 25.872C32.9133 25.872 32.9366 25.9702 32.8984 26.0088C32.7787 26.1306 32.479 26.0239 32.4343 25.9784L32.2544 25.9025L32.0747 25.7809L31.8652 25.8719L31.8053 25.9328H31.5806L31.5657 26.115L31.9701 26.1605L32.0001 26.5367L31.8351 26.4799H31.7303L31.6855 26.3886L31.5956 26.3734V26.7076L31.6855 26.7838L31.7605 26.8595L31.9103 26.8748L31.9403 27.0571L32.3145 27.0725L32.3594 27.1483L32.5842 27.1636L33.0184 27.6042L32.9884 27.741L32.9134 27.7867C32.9435 27.893 32.719 27.8323 32.719 27.8323V27.9233L32.8235 27.9385L32.9286 27.9992L33.0782 27.741C33.2428 27.6346 33.3176 27.7866 33.3328 27.8778C33.3476 27.969 33.2577 27.9537 33.2577 27.9537V28.1666L33.3476 28.1969C33.4976 28.3793 33.2878 28.4857 33.2878 28.4857L33.2428 28.6376C33.1981 28.7745 33.0334 28.7439 33.0334 28.7439L32.9737 28.8352L32.7937 28.8808L33.1493 28.9264C33.1831 28.8048 33.2727 28.7744 33.3177 28.8352C33.3627 28.8961 33.3627 29.0024 33.3627 29.0024L33.4529 29.0176L33.4377 29.1847L33.5276 29.2152V29.7015L33.6324 29.823C33.8121 29.7473 33.8121 29.8687 33.7221 29.9294C33.6324 29.9901 33.6921 30.2638 33.6921 30.2638L33.6173 30.3397V30.4614L33.5275 30.5221V30.6892C33.3777 30.6133 33.1979 30.6435 33.1529 30.6892C33.0184 30.5979 32.7338 30.6285 32.7338 30.7045C32.8235 30.8261 32.6292 30.8565 32.6292 30.8565L32.5241 30.9781C32.5991 31.1301 32.4494 31.1452 32.4494 31.1452V31.434L32.2696 31.6012L32.2848 31.9964C32.2848 32.1027 32.5093 32.1178 32.554 32.0571C32.599 31.9964 32.7789 32.1788 32.7789 32.1788H32.9134L32.9435 31.9051L32.8535 31.8595V31.4187L33.0033 31.2514C33.1831 31.1907 33.1232 31.6468 33.1232 31.6924C33.1381 31.8595 33.2128 31.8444 33.2879 31.8138C33.4376 31.7531 33.3176 31.9812 33.198 31.9658C33.0783 31.9508 33.153 32.1178 33.153 32.1178L33.228 32.1483L33.0931 32.2547L32.9736 32.3916L32.8235 32.3459L32.644 32.3308L32.5841 32.2242L32.4791 32.209L32.4642 32.4217L32.3895 32.5129L32.2097 32.6955C32.4494 32.6955 32.1796 32.8623 32.1198 32.8623C32.2546 32.908 32.1049 33.0449 31.7605 32.9386V33.0448L31.6406 33.06L31.7457 33.1814L31.8653 33.1965L31.8203 33.4548C31.8203 33.6523 31.3262 33.5154 31.2812 33.4699L31.2663 33.7435L31.1764 33.7587L31.1913 33.9412L31.1764 34.1996L31.341 34.169V34.2754L31.7456 34.2906L32.3296 33.6673L32.6739 33.5914C32.7037 33.4392 32.8534 33.622 32.8534 33.622C33.0032 33.6065 33.0332 33.7131 33.0332 33.7131L33.228 33.7437C33.3925 33.7894 33.293 33.8054 33.3027 33.8655C33.3175 33.9565 33.3925 33.9261 33.3925 33.9261L33.4226 33.7285L33.5125 33.7436L33.4226 33.6372L33.2576 33.5611L33.0781 33.4852C32.9582 33.3181 33.108 33.3486 33.2279 33.3638H33.4226C33.4226 33.3638 33.6473 33.6676 33.6473 33.7436C33.6473 33.8198 33.7521 33.835 33.7521 33.835L33.8866 33.8198L33.9317 33.9261H34.0664L34.1114 34.0171H34.381L34.3961 33.8805L34.1413 33.8352L34.1265 33.683L33.947 33.6373C33.8869 33.3792 33.9918 33.3031 34.0666 33.4248L34.1565 33.4395L34.1266 33.2116L34.2314 33.1809L34.2015 32.8617L34.1117 32.8316V32.7251L34.4859 32.7405C34.4561 32.5427 34.501 32.4516 34.501 32.4516H34.6058L34.6206 32.5278L35.0787 32.571L35.4027 32.1994C35.3864 32.171 35.4352 32.1537 35.3996 32.1172C35.3546 32.0717 35.2945 32.1172 35.2194 32.0717C35.1447 32.0263 35.2194 31.7678 35.2046 31.707C35.1899 31.6463 35.4595 31.5548 35.4145 31.6918C35.3696 31.8287 35.4145 31.8895 35.4145 31.8895C35.6092 31.707 35.7739 31.9045 35.759 31.9502C35.7439 31.9957 35.8636 32.0414 35.9384 31.9957C36.0134 31.9502 36.1032 32.1326 36.0732 32.2236C36.043 32.3148 35.7738 32.2997 35.7589 32.2085C35.7438 32.1172 35.6987 32.1477 35.669 32.1933C35.6388 32.239 35.5044 32.2692 35.4294 32.2236C35.4142 32.2144 35.4072 32.2067 35.4027 32.1994L35.0787 32.571L35.0998 32.5731C35.2793 32.6796 35.1897 32.8163 35.13 32.8467C35.0699 32.8771 34.9651 32.8771 34.9651 32.8771L34.9352 32.938L34.5458 32.9682L34.5156 33.1204C34.3209 33.0897 34.2463 33.3026 34.2911 33.4088C34.3362 33.5151 34.2911 33.6064 34.2911 33.6064L34.4559 33.6825L34.6653 33.6219C34.6956 33.4697 34.83 33.4393 34.9499 33.3483C35.0695 33.2571 35.2645 33.5151 35.2043 33.6369C35.1445 33.7583 35.1445 33.804 35.1445 33.804L35.1592 33.9408L35.0096 34.0015L34.8899 34.0624L34.8748 34.1385H34.4707L34.396 34.2143L34.2013 34.2298L34.1411 34.3209L34.0066 34.336C34.0066 34.336 33.7818 34.4424 33.8718 34.564C33.9616 34.6857 33.4976 34.6704 33.3925 34.5031C33.3625 34.6549 33.1978 34.5182 33.1978 34.5182L33.0332 34.4725L33.0183 34.2448C32.9883 34.0927 32.7038 34.0927 32.7189 34.1992C32.7338 34.3056 32.1795 34.2448 32.1795 34.2448L32 34.332L31.8351 34.4272L31.8203 34.503L31.5505 34.5336L31.4309 34.5945L31.386 34.5033H31.2663L31.1464 34.6706C30.832 34.6857 30.5326 34.8682 30.5624 34.9442C30.5925 35.0201 30.4428 35.0964 30.4428 35.0964L30.3079 35.1415L30.2183 35.2784L30.0385 35.3393L30.0084 35.6586L29.9188 35.7192V35.8561L29.8138 35.8863V35.9625L29.6641 35.9776L29.7537 36.2056L29.8739 36.2665C30.0835 36.2968 29.9935 36.5553 29.9935 36.5553L30.1132 36.5704L30.1733 36.7375L30.2929 36.9807C30.338 37.1634 30.4728 37.1177 30.5326 37.1025C30.5924 37.0874 30.6522 37.2848 30.6522 37.2848L31.2511 37.2999C31.2511 37.2999 31.2214 37.3608 31.3262 37.3912C31.4308 37.4214 32.1197 37.452 32.1498 37.4063C32.1197 37.2693 32.5239 37.2389 32.6889 37.3606C32.8534 37.482 33.0782 37.4063 33.0782 37.4063L33.3027 37.6795L33.4528 38.014L33.7072 38.0899L33.8867 38.1356L33.9468 38.3939L34.0813 38.409L34.1264 38.5764C34.2912 38.6978 34.0813 38.9562 34.0813 38.9562V39.2904L34.2012 39.3513L34.1861 39.4731L34.381 39.6703L34.6055 39.6858L35.1747 40.2936L35.6238 40.4303L35.6985 40.6735L35.8185 40.6584L35.9083 40.5825L36.2676 40.5674L36.4474 40.4L36.6421 40.3698L38.3043 38.9563L38.1543 38.8651V38.5309C38.4238 38.3334 38.4388 37.9836 38.1841 37.9532C37.991 37.9302 38.0795 37.7252 38.2592 37.6949L38.3639 37.6495V37.5126L38.7083 37.1936V36.9504L37.9599 36.3271C37.6304 36.2057 37.9599 35.476 38.1843 35.4913C38.4091 35.5064 38.1696 34.3667 38.1696 34.3667L38.0496 34.3061L38.0798 33.9411H37.9152L37.6455 34.2909L37.5708 34.5338C37.5409 34.8533 36.6123 34.7922 36.5673 34.7465C36.5224 34.7009 36.208 34.5642 36.208 34.5642C36.208 34.5642 35.9684 34.3667 35.9235 34.4276C35.8785 34.4885 35.669 34.3514 35.669 34.397C35.669 34.4426 35.4744 34.2907 35.4744 34.2907L35.175 34.1842L35.3998 34.1385L35.3547 33.9563L35.7437 34.1538C35.7887 34.2144 35.9834 34.1995 35.9834 34.1995L36.0432 34.2755C36.0432 34.2755 36.1632 34.2601 36.2383 34.3514C36.313 34.4426 36.7022 34.3665 36.7022 34.3665L36.807 34.4576L36.9717 34.5185L37.436 34.5336L37.4508 34.245L37.5407 34.1538L37.5256 33.9712L37.6304 33.8802V33.7283L37.7203 33.6977L37.7351 33.3635L37.8098 33.3484V32.6199L37.5852 32.407C37.5705 32.4831 37.3308 32.4831 37.3308 32.4831C37.3308 32.4831 37.271 32.5893 37.226 32.5893C37.1812 32.5893 37.2859 32.726 37.2559 32.8173C37.226 32.9084 37.1061 32.9084 37.1061 32.9084L36.8814 32.9693L36.8215 33.0454H36.5819L36.552 32.8478L36.8213 32.7717L36.971 32.6959L37.0461 32.5437C37.0608 32.392 37.2407 32.407 37.2407 32.407C37.2407 32.407 37.5851 32.1182 37.6 31.9817C37.6151 31.8448 37.7349 31.4649 37.9445 31.4649H38.3339C38.4835 31.4039 38.4386 31.2064 38.4386 31.2064L38.6333 31.1762L38.6632 31.2826C38.6632 31.2826 38.9328 31.3129 38.9626 31.2673C38.9928 31.2219 39.0525 31.1153 39.1275 31.1609C39.2023 31.2065 39.4419 31.0545 39.4419 31.0545C39.4567 30.9481 39.8312 30.9937 39.8312 30.9937L39.8762 30.857C39.8762 30.857 39.6217 30.5075 39.5768 30.5075C39.5318 30.5075 39.2923 30.2945 39.2622 30.3706C39.0228 30.3099 39.0377 29.9755 39.0377 29.9755L38.9478 29.7628C38.9478 29.641 38.7234 29.3828 38.6782 29.4133C38.4534 29.2461 38.6184 29.0485 38.6782 29.0333C38.738 29.0182 38.888 28.8053 38.888 28.8053L38.9627 28.5925L39.2173 28.5168L39.2472 28.3192L39.1126 28.3039C39.1126 28.3039 39.2621 28.0303 39.3371 28.0303C39.4121 28.0303 39.9063 28.0303 39.9509 27.9998C39.9958 27.9695 40.0856 27.7264 40.0856 27.6808C40.0856 27.6351 40.2057 27.6199 40.2503 27.6046C40.2953 27.5896 40.4001 27.468 40.4301 27.4071C40.46 27.3459 40.356 26.966 40.2959 27.0268Z" fill="url(#paint87_linear_4_3228)"/>
<path opacity="0.9" d="M32.0001 32.5053C32.0225 32.4828 32.0451 32.5738 32.09 32.5624C32.1346 32.551 32.1573 32.6423 32.1125 32.6423C32.0675 32.6423 32.0675 32.6994 32.0675 32.7221C32.0675 32.745 32.0675 32.8018 32.0337 32.836C32 32.8703 31.9662 32.8474 31.9212 32.8246C31.8764 32.8019 31.8542 32.8019 31.7978 32.8019C31.7417 32.8019 31.7864 32.8931 31.7864 32.8931C31.7864 32.8931 31.5505 32.8817 31.5956 32.8474C31.6405 32.8135 31.6855 32.8018 31.6519 32.7789C31.6181 32.7561 31.6519 32.7335 31.6519 32.6879C31.6519 32.6422 31.7642 32.6651 31.7303 32.6308C31.6968 32.5966 31.731 32.4644 31.7864 32.5396L31.8202 32.4596C31.7864 32.4255 31.8091 32.414 31.7417 32.3916C31.6744 32.3688 31.7303 32.2319 31.7303 32.2319L31.7417 32.1407C31.7642 32.027 31.9886 32.0154 32 32.1178C32.0111 32.2205 32 32.2889 32 32.2889L32.0675 32.3116C32.0675 32.3116 32.0561 32.3803 32 32.3803C31.9436 32.3803 32 32.4141 31.9662 32.4485L32.0001 32.5053Z" fill="url(#paint88_linear_4_3228)"/>
<path opacity="0.9" d="M31.2598 32.6199C31.2936 32.5514 31.372 32.2551 31.462 32.3463C31.5516 32.4375 31.6079 32.3463 31.6079 32.3463C31.6079 32.3463 31.6529 32.392 31.6303 32.4832C31.6079 32.5742 31.5853 32.6656 31.529 32.677C31.473 32.6883 31.428 32.7226 31.361 32.734C31.2936 32.7454 31.2598 32.6199 31.2598 32.6199Z" fill="url(#paint89_linear_4_3228)"/>
<defs>
<filter id="filter0_f_4_3228" x="3.26249" y="3.26252" width="57.475" height="57.4754" filterUnits="userSpaceOnUse" color-interpolation-filters="sRGB">
<feFlood flood-opacity="0" result="BackgroundImageFix"/>
<feBlend mode="normal" in="SourceGraphic" in2="BackgroundImageFix" result="shape"/>
<feGaussianBlur stdDeviation="0.618754" result="effect1_foregroundBlur_4_3228"/>
</filter>
<linearGradient id="paint0_linear_4_3228" x1="4.5" y1="32.0002" x2="59.5004" y2="32.0002" gradientUnits="userSpaceOnUse">
<stop stop-color="#FDFC47"/>
<stop offset="1" stop-color="#24FE41"/>
</linearGradient>
<linearGradient id="paint1_linear_4_3228" x1="4.5" y1="32.0004" x2="59.5008" y2="32.0004" gradientUnits="userSpaceOnUse">
<stop stop-color="#FDFC47"/>
<stop offset="1" stop-color="#24FE41"/>
</linearGradient>
<linearGradient id="paint2_linear_4_3228" x1="11" y1="32.7199" x2="37.6535" y2="32.7199" gradientUnits="userSpaceOnUse">
<stop stop-color="#FDFC47"/>
<stop offset="1" stop-color="#24FE41"/>
</linearGradient>
<linearGradient id="paint3_linear_4_3228" x1="26.3496" y1="32.7199" x2="53.0031" y2="32.7199" gradientUnits="userSpaceOnUse">
<stop stop-color="#FDFC47"/>
<stop offset="1" stop-color="#24FE41"/>
</linearGradient>
<linearGradient id="paint4_linear_4_3228" x1="17.1543" y1="29.0279" x2="46.8454" y2="29.0279" gradientUnits="userSpaceOnUse">
<stop stop-color="#FDFC47"/>
<stop offset="1" stop-color="#24FE41"/>
</linearGradient>
<linearGradient id="paint5_linear_4_3228" x1="32.7598" y1="25.6449" x2="32.8543" y2="25.6449" gradientUnits="userSpaceOnUse">
<stop stop-color="#FDFC47"/>
<stop offset="1" stop-color="#24FE41"/>
</linearGradient>
<linearGradient id="paint6_linear_4_3228" x1="32.6289" y1="25.4921" x2="32.7485" y2="25.4921" gradientUnits="userSpaceOnUse">
<stop stop-color="#FDFC47"/>
<stop offset="1" stop-color="#24FE41"/>
</linearGradient>
<linearGradient id="paint7_linear_4_3228" x1="32.4121" y1="25.3777" x2="32.53" y2="25.3777" gradientUnits="userSpaceOnUse">
<stop stop-color="#FDFC47"/>
<stop offset="1" stop-color="#24FE41"/>
</linearGradient>
<linearGradient id="paint8_linear_4_3228" x1="32.3286" y1="25.339" x2="32.224" y2="25.3244" gradientUnits="userSpaceOnUse">
<stop stop-color="#FDFC47"/>
<stop offset="1" stop-color="#24FE41"/>
</linearGradient>
<linearGradient id="paint9_linear_4_3228" x1="31.4609" y1="25.3096" x2="31.5806" y2="25.3096" gradientUnits="userSpaceOnUse">
<stop stop-color="#FDFC47"/>
<stop offset="1" stop-color="#24FE41"/>
</linearGradient>
<linearGradient id="paint10_linear_4_3228" x1="31.2012" y1="25.4078" x2="31.3183" y2="25.4078" gradientUnits="userSpaceOnUse">
<stop stop-color="#FDFC47"/>
<stop offset="1" stop-color="#24FE41"/>
</linearGradient>
<linearGradient id="paint11_linear_4_3228" x1="31.2218" y1="25.5386" x2="31.1016" y2="25.509" gradientUnits="userSpaceOnUse">
<stop stop-color="#FDFC47"/>
<stop offset="1" stop-color="#24FE41"/>
</linearGradient>
<linearGradient id="paint12_linear_4_3228" x1="31.0404" y1="25.6879" x2="31.0251" y2="25.5967" gradientUnits="userSpaceOnUse">
<stop stop-color="#FDFC47"/>
<stop offset="1" stop-color="#24FE41"/>
</linearGradient>
<linearGradient id="paint13_linear_4_3228" x1="19.1211" y1="35.043" x2="19.3314" y2="35.043" gradientUnits="userSpaceOnUse">
<stop stop-color="#FDFC47"/>
<stop offset="1" stop-color="#24FE41"/>
</linearGradient>
<linearGradient id="paint14_linear_4_3228" x1="19.8691" y1="35.9318" x2="20.3787" y2="35.9318" gradientUnits="userSpaceOnUse">
<stop stop-color="#FDFC47"/>
<stop offset="1" stop-color="#24FE41"/>
</linearGradient>
<linearGradient id="paint15_linear_4_3228" x1="23.2852" y1="40.2783" x2="23.7347" y2="40.2783" gradientUnits="userSpaceOnUse">
<stop stop-color="#FDFC47"/>
<stop offset="1" stop-color="#24FE41"/>
</linearGradient>
<linearGradient id="paint16_linear_4_3228" x1="18.4941" y1="31.4817" x2="31.5367" y2="31.4817" gradientUnits="userSpaceOnUse">
<stop stop-color="#FDFC47"/>
<stop offset="1" stop-color="#24FE41"/>
</linearGradient>
<linearGradient id="paint17_linear_4_3228" x1="25.0605" y1="30.1614" x2="25.5024" y2="30.1614" gradientUnits="userSpaceOnUse">
<stop stop-color="#FDFC47"/>
<stop offset="1" stop-color="#24FE41"/>
</linearGradient>
<linearGradient id="paint18_linear_4_3228" x1="25.2305" y1="31.1216" x2="25.6052" y2="31.1216" gradientUnits="userSpaceOnUse">
<stop stop-color="#FDFC47"/>
<stop offset="1" stop-color="#24FE41"/>
</linearGradient>
<linearGradient id="paint19_linear_4_3228" x1="25.5" y1="31.7526" x2="25.62" y2="31.7526" gradientUnits="userSpaceOnUse">
<stop stop-color="#FDFC47"/>
<stop offset="1" stop-color="#24FE41"/>
</linearGradient>
<linearGradient id="paint20_linear_4_3228" x1="25.3574" y1="32.5125" x2="25.4845" y2="32.5125" gradientUnits="userSpaceOnUse">
<stop stop-color="#FDFC47"/>
<stop offset="1" stop-color="#24FE41"/>
</linearGradient>
<linearGradient id="paint21_linear_4_3228" x1="25.5996" y1="32.0267" x2="25.7264" y2="32.0267" gradientUnits="userSpaceOnUse">
<stop stop-color="#FDFC47"/>
<stop offset="1" stop-color="#24FE41"/>
</linearGradient>
<linearGradient id="paint22_linear_4_3228" x1="25.7031" y1="32.3458" x2="25.8302" y2="32.3458" gradientUnits="userSpaceOnUse">
<stop stop-color="#FDFC47"/>
<stop offset="1" stop-color="#24FE41"/>
</linearGradient>
<linearGradient id="paint23_linear_4_3228" x1="25.707" y1="30.6099" x2="25.8341" y2="30.6099" gradientUnits="userSpaceOnUse">
<stop stop-color="#FDFC47"/>
<stop offset="1" stop-color="#24FE41"/>
</linearGradient>
<linearGradient id="paint24_linear_4_3228" x1="29.6484" y1="29.2451" x2="30.966" y2="29.2451" gradientUnits="userSpaceOnUse">
<stop stop-color="#FDFC47"/>
<stop offset="1" stop-color="#24FE41"/>
</linearGradient>
<linearGradient id="paint25_linear_4_3228" x1="29.9336" y1="30.0295" x2="31.7937" y2="30.0295" gradientUnits="userSpaceOnUse">
<stop stop-color="#FDFC47"/>
<stop offset="1" stop-color="#24FE41"/>
</linearGradient>
<linearGradient id="paint26_linear_4_3228" x1="31.0117" y1="31.3046" x2="31.5209" y2="31.3046" gradientUnits="userSpaceOnUse">
<stop stop-color="#FDFC47"/>
<stop offset="1" stop-color="#24FE41"/>
</linearGradient>
<linearGradient id="paint27_linear_4_3228" x1="32.1641" y1="30.0744" x2="32.4497" y2="30.0744" gradientUnits="userSpaceOnUse">
<stop stop-color="#FDFC47"/>
<stop offset="1" stop-color="#24FE41"/>
</linearGradient>
<linearGradient id="paint28_linear_4_3228" x1="32.9883" y1="29.7452" x2="33.4165" y2="29.7452" gradientUnits="userSpaceOnUse">
<stop stop-color="#FDFC47"/>
<stop offset="1" stop-color="#24FE41"/>
</linearGradient>
<linearGradient id="paint29_linear_4_3228" x1="33.123" y1="34.1155" x2="33.3171" y2="34.1155" gradientUnits="userSpaceOnUse">
<stop stop-color="#FDFC47"/>
<stop offset="1" stop-color="#24FE41"/>
</linearGradient>
<linearGradient id="paint30_linear_4_3228" x1="34.8672" y1="33.5536" x2="35.0344" y2="33.5536" gradientUnits="userSpaceOnUse">
<stop stop-color="#FDFC47"/>
<stop offset="1" stop-color="#24FE41"/>
</linearGradient>
<linearGradient id="paint31_linear_4_3228" x1="39.2441" y1="36.4266" x2="40.1616" y2="36.4266" gradientUnits="userSpaceOnUse">
<stop stop-color="#FDFC47"/>
<stop offset="1" stop-color="#24FE41"/>
</linearGradient>
<linearGradient id="paint32_linear_4_3228" x1="38.7109" y1="36.3291" x2="39.0304" y2="36.3291" gradientUnits="userSpaceOnUse">
<stop stop-color="#FDFC47"/>
<stop offset="1" stop-color="#24FE41"/>
</linearGradient>
<linearGradient id="paint33_linear_4_3228" x1="38.2207" y1="33.5478" x2="38.3254" y2="33.5478" gradientUnits="userSpaceOnUse">
<stop stop-color="#FDFC47"/>
<stop offset="1" stop-color="#24FE41"/>
</linearGradient>
<linearGradient id="paint34_linear_4_3228" x1="39.7656" y1="30.4478" x2="40.1575" y2="30.4478" gradientUnits="userSpaceOnUse">
<stop stop-color="#FDFC47"/>
<stop offset="1" stop-color="#24FE41"/>
</linearGradient>
<linearGradient id="paint35_linear_4_3228" x1="40.0781" y1="28.5005" x2="40.2588" y2="28.5005" gradientUnits="userSpaceOnUse">
<stop stop-color="#FDFC47"/>
<stop offset="1" stop-color="#24FE41"/>
</linearGradient>
<linearGradient id="paint36_linear_4_3228" x1="39.418" y1="28.6692" x2="39.768" y2="28.6692" gradientUnits="userSpaceOnUse">
<stop stop-color="#FDFC47"/>
<stop offset="1" stop-color="#24FE41"/>
</linearGradient>
<linearGradient id="paint37_linear_4_3228" x1="39.1719" y1="25.5898" x2="40.6694" y2="25.5898" gradientUnits="userSpaceOnUse">
<stop stop-color="#FDFC47"/>
<stop offset="1" stop-color="#24FE41"/>
</linearGradient>
<linearGradient id="paint38_linear_4_3228" x1="40.3262" y1="27.4354" x2="41.0162" y2="27.4354" gradientUnits="userSpaceOnUse">
<stop stop-color="#FDFC47"/>
<stop offset="1" stop-color="#24FE41"/>
</linearGradient>
<linearGradient id="paint39_linear_4_3228" x1="41.1189" y1="27.1811" x2="41.1346" y2="27.0595" gradientUnits="userSpaceOnUse">
<stop stop-color="#FDFC47"/>
<stop offset="1" stop-color="#24FE41"/>
</linearGradient>
<linearGradient id="paint40_linear_4_3228" x1="41.0908" y1="27.5497" x2="41.0102" y2="27.5099" gradientUnits="userSpaceOnUse">
<stop stop-color="#FDFC47"/>
<stop offset="1" stop-color="#24FE41"/>
</linearGradient>
<linearGradient id="paint41_linear_4_3228" x1="40.5078" y1="25.6637" x2="41.0696" y2="25.6637" gradientUnits="userSpaceOnUse">
<stop stop-color="#FDFC47"/>
<stop offset="1" stop-color="#24FE41"/>
</linearGradient>
<linearGradient id="paint42_linear_4_3228" x1="39.9668" y1="24.332" x2="40.6257" y2="24.332" gradientUnits="userSpaceOnUse">
<stop stop-color="#FDFC47"/>
<stop offset="1" stop-color="#24FE41"/>
</linearGradient>
<linearGradient id="paint43_linear_4_3228" x1="39.668" y1="23.5153" x2="40.2689" y2="23.5153" gradientUnits="userSpaceOnUse">
<stop stop-color="#FDFC47"/>
<stop offset="1" stop-color="#24FE41"/>
</linearGradient>
<linearGradient id="paint44_linear_4_3228" x1="37.9141" y1="24.896" x2="38.9628" y2="24.896" gradientUnits="userSpaceOnUse">
<stop stop-color="#FDFC47"/>
<stop offset="1" stop-color="#24FE41"/>
</linearGradient>
<linearGradient id="paint45_linear_4_3228" x1="37.3535" y1="25.7122" x2="37.6931" y2="25.7122" gradientUnits="userSpaceOnUse">
<stop stop-color="#FDFC47"/>
<stop offset="1" stop-color="#24FE41"/>
</linearGradient>
<linearGradient id="paint46_linear_4_3228" x1="39.3379" y1="24.3903" x2="40.0473" y2="24.3903" gradientUnits="userSpaceOnUse">
<stop stop-color="#FDFC47"/>
<stop offset="1" stop-color="#24FE41"/>
</linearGradient>
<linearGradient id="paint47_linear_4_3228" x1="38.5586" y1="23.5246" x2="39.3829" y2="23.5246" gradientUnits="userSpaceOnUse">
<stop stop-color="#FDFC47"/>
<stop offset="1" stop-color="#24FE41"/>
</linearGradient>
<linearGradient id="paint48_linear_4_3228" x1="39.1907" y1="24.852" x2="39.2367" y2="24.7614" gradientUnits="userSpaceOnUse">
<stop stop-color="#FDFC47"/>
<stop offset="1" stop-color="#24FE41"/>
</linearGradient>
<linearGradient id="paint49_linear_4_3228" x1="38.9902" y1="24.7397" x2="39.0801" y2="24.7397" gradientUnits="userSpaceOnUse">
<stop stop-color="#FDFC47"/>
<stop offset="1" stop-color="#24FE41"/>
</linearGradient>
<linearGradient id="paint50_linear_4_3228" x1="39.0257" y1="22.6665" x2="39.0412" y2="22.8032" gradientUnits="userSpaceOnUse">
<stop stop-color="#FDFC47"/>
<stop offset="1" stop-color="#24FE41"/>
</linearGradient>
<linearGradient id="paint51_linear_4_3228" x1="38.8125" y1="24.1164" x2="38.9024" y2="24.1164" gradientUnits="userSpaceOnUse">
<stop stop-color="#FDFC47"/>
<stop offset="1" stop-color="#24FE41"/>
</linearGradient>
<linearGradient id="paint52_linear_4_3228" x1="38.653" y1="24.0696" x2="38.6439" y2="23.9788" gradientUnits="userSpaceOnUse">
<stop stop-color="#FDFC47"/>
<stop offset="1" stop-color="#24FE41"/>
</linearGradient>
<linearGradient id="paint53_linear_4_3228" x1="37.3643" y1="25.4849" x2="37.2816" y2="25.4499" gradientUnits="userSpaceOnUse">
<stop stop-color="#FDFC47"/>
<stop offset="1" stop-color="#24FE41"/>
</linearGradient>
<linearGradient id="paint54_linear_4_3228" x1="36.948" y1="25.2543" x2="36.9389" y2="25.1638" gradientUnits="userSpaceOnUse">
<stop stop-color="#FDFC47"/>
<stop offset="1" stop-color="#24FE41"/>
</linearGradient>
<linearGradient id="paint55_linear_4_3228" x1="33.9453" y1="25.2864" x2="34.2784" y2="25.2864" gradientUnits="userSpaceOnUse">
<stop stop-color="#FDFC47"/>
<stop offset="1" stop-color="#24FE41"/>
</linearGradient>
<linearGradient id="paint56_linear_4_3228" x1="33.7685" y1="25.3555" x2="33.7379" y2="25.2191" gradientUnits="userSpaceOnUse">
<stop stop-color="#FDFC47"/>
<stop offset="1" stop-color="#24FE41"/>
</linearGradient>
<linearGradient id="paint57_linear_4_3228" x1="33.6845" y1="25.4526" x2="33.6554" y2="25.3664" gradientUnits="userSpaceOnUse">
<stop stop-color="#FDFC47"/>
<stop offset="1" stop-color="#24FE41"/>
</linearGradient>
<linearGradient id="paint58_linear_4_3228" x1="34.3945" y1="25.3421" x2="35.0615" y2="25.3421" gradientUnits="userSpaceOnUse">
<stop stop-color="#FDFC47"/>
<stop offset="1" stop-color="#24FE41"/>
</linearGradient>
<linearGradient id="paint59_linear_4_3228" x1="35.1543" y1="25.2303" x2="36.7778" y2="25.2303" gradientUnits="userSpaceOnUse">
<stop stop-color="#FDFC47"/>
<stop offset="1" stop-color="#24FE41"/>
</linearGradient>
<linearGradient id="paint60_linear_4_3228" x1="36.6367" y1="21.8153" x2="38.7055" y2="21.8153" gradientUnits="userSpaceOnUse">
<stop stop-color="#FDFC47"/>
<stop offset="1" stop-color="#24FE41"/>
</linearGradient>
<linearGradient id="paint61_linear_4_3228" x1="36.0586" y1="21.0729" x2="36.8079" y2="21.0729" gradientUnits="userSpaceOnUse">
<stop stop-color="#FDFC47"/>
<stop offset="1" stop-color="#24FE41"/>
</linearGradient>
<linearGradient id="paint62_linear_4_3228" x1="34.9336" y1="20.1164" x2="36.0118" y2="20.1164" gradientUnits="userSpaceOnUse">
<stop stop-color="#FDFC47"/>
<stop offset="1" stop-color="#24FE41"/>
</linearGradient>
<linearGradient id="paint63_linear_4_3228" x1="34.2305" y1="18.9871" x2="34.3949" y2="18.9871" gradientUnits="userSpaceOnUse">
<stop stop-color="#FDFC47"/>
<stop offset="1" stop-color="#24FE41"/>
</linearGradient>
<linearGradient id="paint64_linear_4_3228" x1="34.3105" y1="18.4839" x2="34.9334" y2="18.4839" gradientUnits="userSpaceOnUse">
<stop stop-color="#FDFC47"/>
<stop offset="1" stop-color="#24FE41"/>
</linearGradient>
<linearGradient id="paint65_linear_4_3228" x1="36.918" y1="21.4491" x2="42.9792" y2="21.4491" gradientUnits="userSpaceOnUse">
<stop stop-color="#FDFC47"/>
<stop offset="1" stop-color="#24FE41"/>
</linearGradient>
<linearGradient id="paint66_linear_4_3228" x1="38.6758" y1="18.2714" x2="39.3663" y2="18.2714" gradientUnits="userSpaceOnUse">
<stop stop-color="#FDFC47"/>
<stop offset="1" stop-color="#24FE41"/>
</linearGradient>
<linearGradient id="paint67_linear_4_3228" x1="34.3152" y1="18.2386" x2="34.2329" y2="18.2025" gradientUnits="userSpaceOnUse">
<stop stop-color="#FDFC47"/>
<stop offset="1" stop-color="#24FE41"/>
</linearGradient>
<linearGradient id="paint68_linear_4_3228" x1="32.2539" y1="16.5429" x2="33.5781" y2="16.5429" gradientUnits="userSpaceOnUse">
<stop stop-color="#FDFC47"/>
<stop offset="1" stop-color="#24FE41"/>
</linearGradient>
<linearGradient id="paint69_linear_4_3228" x1="33.3652" y1="16.0661" x2="35.013" y2="16.0661" gradientUnits="userSpaceOnUse">
<stop stop-color="#FDFC47"/>
<stop offset="1" stop-color="#24FE41"/>
</linearGradient>
<linearGradient id="paint70_linear_4_3228" x1="31.877" y1="18.3518" x2="32.4821" y2="18.3518" gradientUnits="userSpaceOnUse">
<stop stop-color="#FDFC47"/>
<stop offset="1" stop-color="#24FE41"/>
</linearGradient>
<linearGradient id="paint71_linear_4_3228" x1="30.2773" y1="18.9177" x2="30.8578" y2="18.9177" gradientUnits="userSpaceOnUse">
<stop stop-color="#FDFC47"/>
<stop offset="1" stop-color="#24FE41"/>
</linearGradient>
<linearGradient id="paint72_linear_4_3228" x1="35.1133" y1="15.6564" x2="35.428" y2="15.6564" gradientUnits="userSpaceOnUse">
<stop stop-color="#FDFC47"/>
<stop offset="1" stop-color="#24FE41"/>
</linearGradient>
<linearGradient id="paint73_linear_4_3228" x1="34.4023" y1="15.279" x2="34.7347" y2="15.279" gradientUnits="userSpaceOnUse">
<stop stop-color="#FDFC47"/>
<stop offset="1" stop-color="#24FE41"/>
</linearGradient>
<linearGradient id="paint74_linear_4_3228" x1="33.8828" y1="18.5051" x2="34.1799" y2="18.5051" gradientUnits="userSpaceOnUse">
<stop stop-color="#FDFC47"/>
<stop offset="1" stop-color="#24FE41"/>
</linearGradient>
<linearGradient id="paint75_linear_4_3228" x1="29.1094" y1="22.7181" x2="29.3768" y2="22.7181" gradientUnits="userSpaceOnUse">
<stop stop-color="#FDFC47"/>
<stop offset="1" stop-color="#24FE41"/>
</linearGradient>
<linearGradient id="paint76_linear_4_3228" x1="29.4395" y1="22.6763" x2="29.4979" y2="22.607" gradientUnits="userSpaceOnUse">
<stop stop-color="#FDFC47"/>
<stop offset="1" stop-color="#24FE41"/>
</linearGradient>
<linearGradient id="paint77_linear_4_3228" x1="26.7109" y1="19.8406" x2="26.7755" y2="19.7771" gradientUnits="userSpaceOnUse">
<stop stop-color="#FDFC47"/>
<stop offset="1" stop-color="#24FE41"/>
</linearGradient>
<linearGradient id="paint78_linear_4_3228" x1="30.8262" y1="39.3927" x2="31.0718" y2="39.3927" gradientUnits="userSpaceOnUse">
<stop stop-color="#FDFC47"/>
<stop offset="1" stop-color="#24FE41"/>
</linearGradient>
<linearGradient id="paint79_linear_4_3228" x1="29.666" y1="38.3036" x2="29.8707" y2="38.3036" gradientUnits="userSpaceOnUse">
<stop stop-color="#FDFC47"/>
<stop offset="1" stop-color="#24FE41"/>
</linearGradient>
<linearGradient id="paint80_linear_4_3228" x1="40.8496" y1="35.4017" x2="40.9995" y2="35.4017" gradientUnits="userSpaceOnUse">
<stop stop-color="#FDFC47"/>
<stop offset="1" stop-color="#24FE41"/>
</linearGradient>
<linearGradient id="paint81_linear_4_3228" x1="40.9844" y1="35.0179" x2="41.1418" y2="35.0179" gradientUnits="userSpaceOnUse">
<stop stop-color="#FDFC47"/>
<stop offset="1" stop-color="#24FE41"/>
</linearGradient>
<linearGradient id="paint82_linear_4_3228" x1="44.5449" y1="33.9991" x2="44.7362" y2="33.9991" gradientUnits="userSpaceOnUse">
<stop stop-color="#FDFC47"/>
<stop offset="1" stop-color="#24FE41"/>
</linearGradient>
<linearGradient id="paint83_linear_4_3228" x1="45.2578" y1="33.2435" x2="45.3638" y2="33.2435" gradientUnits="userSpaceOnUse">
<stop stop-color="#FDFC47"/>
<stop offset="1" stop-color="#24FE41"/>
</linearGradient>
<linearGradient id="paint84_linear_4_3228" x1="45.1641" y1="33.4178" x2="45.3059" y2="33.4178" gradientUnits="userSpaceOnUse">
<stop stop-color="#FDFC47"/>
<stop offset="1" stop-color="#24FE41"/>
</linearGradient>
<linearGradient id="paint85_linear_4_3228" x1="44.748" y1="33.7727" x2="44.8495" y2="33.7727" gradientUnits="userSpaceOnUse">
<stop stop-color="#FDFC47"/>
<stop offset="1" stop-color="#24FE41"/>
</linearGradient>
<linearGradient id="paint86_linear_4_3228" x1="44.1602" y1="31.8799" x2="44.4428" y2="31.8799" gradientUnits="userSpaceOnUse">
<stop stop-color="#FDFC47"/>
<stop offset="1" stop-color="#24FE41"/>
</linearGradient>
<linearGradient id="paint87_linear_4_3228" x1="29.6641" y1="33.0823" x2="40.4354" y2="33.0823" gradientUnits="userSpaceOnUse">
<stop stop-color="#FDFC47"/>
<stop offset="1" stop-color="#24FE41"/>
</linearGradient>
<linearGradient id="paint88_linear_4_3228" x1="31.5898" y1="32.4704" x2="32.1368" y2="32.4704" gradientUnits="userSpaceOnUse">
<stop stop-color="#FDFC47"/>
<stop offset="1" stop-color="#24FE41"/>
</linearGradient>
<linearGradient id="paint89_linear_4_3228" x1="31.2598" y1="32.5319" x2="31.6367" y2="32.5319" gradientUnits="userSpaceOnUse">
<stop stop-color="#FDFC47"/>
<stop offset="1" stop-color="#24FE41"/>
</linearGradient>
</defs>
</svg>
