<svg width="64" height="64" viewBox="0 0 64 64" fill="none" xmlns="http://www.w3.org/2000/svg">
<g clip-path="url(#clip0_4_2918)">
<g opacity="0.3" filter="url(#filter0_f_4_2918)">
<path d="M44.5 4.5H19.5C11.2157 4.5 4.5 11.2157 4.5 19.5V44.5C4.5 52.7843 11.2157 59.5 19.5 59.5H44.5C52.7843 59.5 59.5 52.7843 59.5 44.5V19.5C59.5 11.2157 52.7843 4.5 44.5 4.5Z" fill="url(#paint0_linear_4_2918)"/>
</g>
<path d="M19.5 5H44.5C52.5081 5 59 11.4919 59 19.5V44.5C59 52.5081 52.5081 59 44.5 59H19.5C11.4919 59 5 52.5081 5 44.5V19.5C5 11.4919 11.4919 5 19.5 5Z" fill="#232323" stroke="url(#paint1_linear_4_2918)"/>
<path d="M46.2243 18H17.7757C15.1382 18 13 20.1382 13 22.7757V41.2243C13 43.8618 15.1382 46 17.7757 46H46.2243C48.8618 46 51 43.8618 51 41.2243V22.7757C51 20.1382 48.8618 18 46.2243 18Z" fill="url(#paint2_linear_4_2918)"/>
<path opacity="0.15" d="M17.8125 17.998C15.1521 17.998 13.0107 20.1352 13 22.793V34.9531C17.2429 34.9523 21.3117 33.2663 24.3115 30.2657C27.3113 27.2652 28.9963 23.196 28.9961 18.9531C28.9932 18.6345 28.9809 18.316 28.959 17.998H17.8125Z" fill="#232323"/>
<path opacity="0.15" d="M17.8125 17.998C15.1521 17.998 13.0107 20.1352 13 22.793V29.9531C14.4444 29.953 15.8747 29.6685 17.2091 29.1156C18.5436 28.5628 19.756 27.7525 20.7773 26.731C21.7986 25.7096 22.6087 24.4969 23.1613 23.1624C23.7139 21.8279 23.9982 20.3976 23.998 18.9531C23.9943 18.6342 23.9767 18.3155 23.9453 17.998H17.8125Z" fill="#232323"/>
<path opacity="0.15" d="M17.8125 17.998C15.1521 17.998 13.0107 20.1352 13 22.793V24.9531C13.7878 24.9531 14.5679 24.7979 15.2958 24.4963C16.0236 24.1948 16.6849 23.7528 17.2419 23.1956C17.7989 22.6384 18.2407 21.977 18.542 21.2491C18.8433 20.5211 18.9983 19.741 18.998 18.9531C18.9969 18.6331 18.9701 18.3138 18.918 17.998H17.8125Z" fill="#232323"/>
<path opacity="0.15" d="M46.1855 45.9977C48.8459 45.9977 50.9873 43.8605 50.998 41.2028V29.0426C46.7552 29.0434 42.6864 30.7295 39.6866 33.73C36.6868 36.7305 35.0017 40.7997 35.002 45.0426C35.0048 45.3613 35.0172 45.6798 35.0391 45.9977H46.1855Z" fill="#232323"/>
<path opacity="0.15" d="M46.1855 45.9977C48.8459 45.9977 50.9873 43.8605 50.998 41.2028V34.0426C49.5536 34.0427 48.1234 34.3273 46.7889 34.8801C45.4545 35.433 44.242 36.2433 43.2207 37.2647C42.1995 38.2862 41.3894 39.4988 40.8368 40.8333C40.2842 42.1679 39.9998 43.5982 40 45.0426C40.0037 45.3616 40.0213 45.6802 40.0527 45.9977H46.1855Z" fill="#232323"/>
<path opacity="0.15" d="M46.1855 45.9977C48.8459 45.9977 50.9873 43.8605 50.998 41.2028V39.0426C50.2102 39.0426 49.4301 39.1979 48.7023 39.4994C47.9744 39.801 47.3131 40.243 46.7561 40.8001C46.1992 41.3573 45.7574 42.0187 45.4561 42.7467C45.1547 43.4746 44.9998 44.2548 45 45.0426C45.0012 45.3626 45.028 45.682 45.0801 45.9977H46.1855Z" fill="#232323"/>
</g>
<defs>
<filter id="filter0_f_4_2918" x="3.2625" y="3.2625" width="57.475" height="57.475" filterUnits="userSpaceOnUse" color-interpolation-filters="sRGB">
<feFlood flood-opacity="0" result="BackgroundImageFix"/>
<feBlend mode="normal" in="SourceGraphic" in2="BackgroundImageFix" result="shape"/>
<feGaussianBlur stdDeviation="0.61875" result="effect1_foregroundBlur_4_2918"/>
</filter>
<linearGradient id="paint0_linear_4_2918" x1="4.5" y1="32" x2="59.5" y2="32" gradientUnits="userSpaceOnUse">
<stop stop-color="#FDFC47"/>
<stop offset="1" stop-color="#24FE41"/>
</linearGradient>
<linearGradient id="paint1_linear_4_2918" x1="4.5" y1="32" x2="59.5" y2="32" gradientUnits="userSpaceOnUse">
<stop stop-color="#FDFC47"/>
<stop offset="1" stop-color="#24FE41"/>
</linearGradient>
<linearGradient id="paint2_linear_4_2918" x1="13" y1="32" x2="51" y2="32" gradientUnits="userSpaceOnUse">
<stop stop-color="#FDFC47"/>
<stop offset="1" stop-color="#24FE41"/>
</linearGradient>
<clipPath id="clip0_4_2918">
<rect width="64" height="64" fill="white"/>
</clipPath>
</defs>
</svg>
