<svg width="64" height="64" viewBox="0 0 64 64" fill="none" xmlns="http://www.w3.org/2000/svg">
<g clip-path="url(#clip0_4_2934)">
<g opacity="0.3" filter="url(#filter0_f_4_2934)">
<path d="M44.5 4.5H19.5C11.2157 4.5 4.5 11.2157 4.5 19.5V44.5C4.5 52.7843 11.2157 59.5 19.5 59.5H44.5C52.7843 59.5 59.5 52.7843 59.5 44.5V19.5C59.5 11.2157 52.7843 4.5 44.5 4.5Z" fill="url(#paint0_linear_4_2934)"/>
</g>
<path d="M19.5 5H44.5C52.5081 5 59 11.4919 59 19.5V44.5C59 52.5081 52.5081 59 44.5 59H19.5C11.4919 59 5 52.5081 5 44.5V19.5C5 11.4919 11.4919 5 19.5 5Z" fill="#232323" stroke="url(#paint1_linear_4_2934)"/>
<path opacity="0.5" d="M32.0046 41.4478C37.516 41.4478 41.9838 36.98 41.9838 31.4686C41.9838 25.9573 37.516 21.4894 32.0046 21.4894C26.4932 21.4894 22.0254 25.9573 22.0254 31.4686C22.0254 36.98 26.4932 41.4478 32.0046 41.4478Z" stroke="url(#paint2_linear_4_2934)" stroke-width="1.90079"/>
<path d="M31.9013 11.4953C30.9574 11.5911 30.9725 12.3903 30.6669 14.3596C30.0215 14.4094 29.3795 14.4955 28.7439 14.6176C27.8587 12.5844 27.5568 11.8802 26.7652 12.1636C25.8668 12.4853 26.0832 13.2607 26.2603 15.271C25.6633 15.4787 25.0783 15.7191 24.5079 15.9912C23.2368 14.4549 22.8437 13.76 21.9835 14.1609C21.2227 14.5154 21.5 15.2288 22.2972 17.2887C21.7645 17.6501 21.2526 18.0411 20.7639 18.4599C19.1541 17.3155 18.5921 16.7517 17.8682 17.3592C17.2312 17.8938 17.6763 18.5099 18.9522 20.255C18.539 20.7368 18.1529 21.2412 17.7957 21.7659C15.9292 21.1217 15.2302 20.7397 14.7069 21.5264C14.2525 22.2098 14.8431 22.6789 16.5075 23.9544C16.2165 24.5638 15.9617 25.1898 15.7445 25.8293C13.8116 25.6146 13.0476 25.4034 12.7133 26.2803C12.4155 27.0613 13.1094 27.3803 15.0967 28.2943C14.9706 28.9525 14.8832 29.6175 14.8349 30.2861C12.9311 30.5461 12.1448 30.5341 12.0357 31.461C11.9376 32.2944 12.6893 32.4308 14.8591 32.8347C14.9094 33.4462 14.9924 34.0547 15.1078 34.6575C13.2749 35.5414 12.4944 35.7483 12.678 36.6882C12.8382 37.5081 13.5958 37.412 15.7631 37.1374C15.9759 37.7504 16.2231 38.3509 16.5038 38.9362C14.9295 40.2684 14.2198 40.6615 14.6345 41.5312C14.9977 42.2929 15.7082 42.0022 17.7864 41.1767L17.5934 40.8333C17.9954 41.4473 18.4362 42.035 18.9132 42.593C17.8004 44.2517 17.2441 44.8296 17.8736 45.5408C18.4187 46.1565 19.0242 45.7055 20.6914 44.4178C21.1878 44.8474 21.7084 45.2484 22.2506 45.6188C21.4674 47.7125 21.1904 48.4286 21.9592 48.7763C22.8222 49.1667 23.2115 48.4681 24.4596 46.9238C25.0552 47.2117 25.6669 47.4652 26.2916 47.683C26.006 49.8002 25.9116 50.5528 26.7223 50.718C27.6533 50.9077 27.8741 50.1382 28.7549 48.3439C29.3874 48.4681 30.0264 48.5567 30.6687 48.6093C30.9836 50.758 31.0966 51.5111 31.9272 51.4457C32.8703 51.3714 32.8744 50.5731 33.221 48.6242C33.8876 48.5768 34.5508 48.4906 35.2071 48.3662C36.0176 50.2952 36.3232 50.9843 37.0986 50.718C37.9818 50.4148 37.803 49.6469 37.6536 47.7295C38.249 47.5271 38.8327 47.2923 39.4022 47.026C40.8049 48.6658 41.3015 49.2397 41.9675 48.743C42.7113 48.1882 42.3166 47.5133 41.5981 45.7582C42.1608 45.382 42.7007 44.9729 43.2149 44.533C44.9691 45.775 45.5909 46.2103 46.1144 45.5669C46.7009 44.846 46.1509 44.2866 45.021 42.7547C45.4652 42.2371 45.878 41.6935 46.2573 41.1268C48.1725 41.9213 48.8738 42.1925 49.2366 41.4609C49.6518 40.6236 48.9839 40.2048 47.5271 38.9439C47.8037 38.3616 48.0472 37.7642 48.2566 37.1545C50.3687 37.3828 51.1222 37.4531 51.2655 36.6403C51.4283 35.7172 50.667 35.5056 48.9025 34.7005C49.0248 34.0594 49.1103 33.4118 49.1587 32.7608C51.298 32.4279 52.0492 32.307 51.9764 31.4781C51.8938 30.5367 51.0972 30.5387 49.1494 30.2103C49.0985 29.5643 49.0111 28.9216 48.8877 28.2853C50.8541 27.3802 51.5435 27.058 51.2469 26.2806C50.9136 25.4071 50.1524 25.6132 48.2361 25.8276C48.0177 25.2042 47.7636 24.5937 47.475 23.9993C49.2018 22.6636 49.8062 22.1958 49.3405 21.5026C48.8045 20.7047 48.106 21.1131 46.1682 21.7866C45.8046 21.2571 45.4117 20.7484 44.9913 20.2626C46.257 18.4413 46.697 17.8156 46.0401 17.2907C45.3034 16.7021 44.7555 17.2752 43.1815 18.4528C42.6816 18.028 42.1579 17.632 41.613 17.2667C42.4089 15.2289 42.687 14.517 41.9322 14.1612H41.9303C41.0722 13.7593 40.6746 14.4533 39.3984 15.9858C38.8177 15.7115 38.2222 15.4699 37.6146 15.2619C37.9004 13.0888 38.0005 12.3299 37.1802 12.1657C36.2371 11.9768 36.0296 12.7609 35.1272 14.6067C34.5005 14.4876 33.8678 14.4033 33.232 14.3543C32.861 12.1666 32.7381 11.4104 31.9013 11.4953ZM36.1372 17.5411C36.7391 17.4587 37.6945 17.8338 38.6951 18.3894C40.3627 19.3153 42.1529 20.7425 42.6303 21.3872C44.9154 23.8336 46.5827 26.8682 46.6788 31.7447C46.6968 32.6529 46.6115 33.4758 46.3985 34.1485C46.1669 34.8514 45.6976 35.5536 44.9599 35.8952C44.3483 36.1524 43.6689 36.3353 43.0369 36.0437C41.0679 35.1403 38.5915 33.5794 36.605 32.4036C36.2708 32.2057 36.0278 31.8844 35.9924 31.7224C35.6157 31.0073 35.6872 29.964 35.159 29.3538C34.3867 28.2566 33.722 28.4201 33.5496 27.3453C33.4688 24.9556 33.452 22.5387 33.5143 20.1839C33.5178 18.5499 34.6926 17.5896 36.1372 17.5411ZM27.6672 17.6228C28.1677 17.595 28.6906 17.6769 29.1503 17.9235C29.2379 17.9704 29.3222 18.0237 29.4046 18.0831C29.9288 18.4898 30.4213 18.9913 30.4775 19.685C30.6566 21.844 30.5122 24.7673 30.4626 27.0747C30.4544 27.4631 30.2932 27.8331 30.1694 27.9435C29.7312 28.6226 28.7879 29.0715 28.5155 29.8312C27.9385 31.0426 28.4077 31.5407 27.5558 32.2184C25.5132 33.4617 23.4141 34.6626 21.3318 35.7638C19.9063 36.5627 18.4931 36.0111 17.7419 34.7762C16.7627 33.4857 17.3829 28.4023 17.9071 27.2306C18.9172 24.039 20.7421 21.0964 24.9441 18.6195C25.7267 18.1582 26.4865 17.8304 27.1772 17.6858C27.336 17.6545 27.5004 17.632 27.6672 17.6228ZM32.0053 29.6472C32.4881 29.6475 32.9512 29.8394 33.2926 30.1808C33.6341 30.5223 33.826 30.9853 33.8262 31.4682C33.8264 31.7074 33.7794 31.9444 33.6879 32.1655C33.5965 32.3865 33.4624 32.5875 33.2933 32.7567C33.1242 32.926 32.9234 33.0603 32.7024 33.152C32.4814 33.2437 32.2445 33.2909 32.0053 33.291C31.7659 33.2911 31.5288 33.2441 31.3076 33.1525C31.0863 33.061 30.8853 32.9267 30.716 32.7574C30.5467 32.5881 30.4125 32.3871 30.3209 32.1659C30.2294 31.9447 30.1823 31.7076 30.1824 31.4682C30.1825 31.2289 30.2298 30.992 30.3215 30.771C30.4131 30.55 30.5474 30.3492 30.7167 30.1802C30.886 30.0111 31.0869 29.877 31.308 29.7855C31.5291 29.6941 31.766 29.6471 32.0053 29.6472ZM34.2142 34.8614C34.396 34.8545 34.5977 34.8879 34.8509 34.9876C35.8998 35.5613 36.9465 36.1526 37.9805 36.7566C39.0146 37.3606 40.0347 37.9772 41.0322 38.6036C42.4368 39.4386 42.6652 40.9386 41.9714 42.2065C41.3434 43.6998 36.6324 45.7053 35.3558 45.8373C32.0868 46.5583 28.626 46.4484 24.3797 44.0479C23.5889 43.6009 22.9235 43.1073 22.4529 42.5814C21.9659 42.0241 21.601 41.2631 21.6826 40.4542C21.7726 39.7969 21.9619 39.1196 22.5346 38.7242C24.3148 37.4895 26.9193 36.1541 28.9424 35.0433C29.2828 34.8563 29.6834 34.8112 29.8408 34.8632C30.6481 34.9031 31.5099 35.4935 32.304 35.3496C33.3072 35.27 33.6687 34.8819 34.2142 34.8614Z" fill="url(#paint3_linear_4_2934)"/>
</g>
<defs>
<filter id="filter0_f_4_2934" x="3.2625" y="3.2625" width="57.475" height="57.475" filterUnits="userSpaceOnUse" color-interpolation-filters="sRGB">
<feFlood flood-opacity="0" result="BackgroundImageFix"/>
<feBlend mode="normal" in="SourceGraphic" in2="BackgroundImageFix" result="shape"/>
<feGaussianBlur stdDeviation="0.61875" result="effect1_foregroundBlur_4_2934"/>
</filter>
<linearGradient id="paint0_linear_4_2934" x1="4.5" y1="32" x2="59.5" y2="32" gradientUnits="userSpaceOnUse">
<stop stop-color="#FDFC47"/>
<stop offset="1" stop-color="#24FE41"/>
</linearGradient>
<linearGradient id="paint1_linear_4_2934" x1="4.5" y1="32" x2="59.5" y2="32" gradientUnits="userSpaceOnUse">
<stop stop-color="#FDFC47"/>
<stop offset="1" stop-color="#24FE41"/>
</linearGradient>
<linearGradient id="paint2_linear_4_2934" x1="22.0254" y1="31.4686" x2="41.9838" y2="31.4686" gradientUnits="userSpaceOnUse">
<stop stop-color="#FDFC47"/>
<stop offset="1" stop-color="#24FE41"/>
</linearGradient>
<linearGradient id="paint3_linear_4_2934" x1="12.0273" y1="31.4694" x2="51.9812" y2="31.4694" gradientUnits="userSpaceOnUse">
<stop stop-color="#FDFC47"/>
<stop offset="1" stop-color="#24FE41"/>
</linearGradient>
<clipPath id="clip0_4_2934">
<rect width="64" height="64" fill="white"/>
</clipPath>
</defs>
</svg>
