<svg width="64" height="64" viewBox="0 0 64 64" fill="none" xmlns="http://www.w3.org/2000/svg">
<g opacity="0.3" filter="url(#filter0_f_4_3490)">
<path d="M4.5 19.498V44.498C4.5 52.7823 11.2157 59.498 19.5 59.498H44.5C52.7843 59.498 59.5 52.7823 59.5 44.498V19.498C59.5 11.2137 52.7843 4.49799 44.5 4.49799H19.5C11.2157 4.49799 4.5 11.2137 4.5 19.498Z" fill="url(#paint0_linear_4_3490)"/>
</g>
<path d="M5 19.5C5 11.466 11.466 5 19.5 5H44.5C52.534 5 59 11.466 59 19.5V44.5C59 52.534 52.534 59 44.5 59H19.5C11.466 59 5 52.534 5 44.5V19.5Z" fill="#232323" stroke="url(#paint1_linear_4_3490)"/>
<path opacity="0.3" d="M4.5 44.501C4.5 52.8111 11.19 59.501 19.5 59.501H44.5C52.8101 59.501 59.5 52.811 59.5 44.501V32.003H4.5V44.501Z" fill="url(#paint2_linear_4_3490)"/>
<path d="M25.5957 11.001V27.001H35.6757L38.3957 24.281V11.001H25.5957ZM26.2357 11.641H37.7557V23.801H35.1957V26.361H26.2357V11.641ZM28.1557 13.561V14.2009H35.8358V13.561H28.1557ZM28.1557 15.481V16.1209H35.8358V15.481H28.1557ZM28.1557 17.401V18.0409H35.8358V17.401H28.1557ZM28.1557 19.321V19.9609H31.9957V19.321H28.1557Z" fill="url(#paint3_linear_4_3490)" stroke="url(#paint4_linear_4_3490)"/>
<path d="M31.9961 37C31.4804 37.0005 30.966 37.0509 30.4601 37.1504L30.4057 37.16C30.1401 37.208 29.8793 37.2704 29.6217 37.3504C29.0877 37.5203 28.5733 37.7467 28.0873 38.0256C27.8326 38.1666 27.5868 38.3232 27.3513 38.4944C27.1961 38.6064 27.0425 38.7184 26.8969 38.84C26.8329 38.8942 26.7699 38.9497 26.7081 39.0064C26.5545 39.1424 26.4009 39.2784 26.2601 39.4256C25.9177 39.7776 25.6153 40.1632 25.3433 40.5712C25.3125 40.6136 25.2821 40.6562 25.2521 40.6992C25.1043 40.932 24.9686 41.1723 24.8457 41.4192C24.7168 41.6773 24.602 41.9423 24.5017 42.2128C24.4505 42.3504 24.3897 42.4848 24.3465 42.6256C24.3241 42.696 24.3129 42.7696 24.2921 42.84C24.2308 43.0615 24.1801 43.2857 24.1401 43.512C24.0994 43.7314 24.0679 43.9524 24.0457 44.1744V44.1808C24.0152 44.4528 23.9986 44.7263 23.9961 45C23.9962 45.5341 24.0498 46.0669 24.1561 46.5904C24.2041 46.856 24.2665 47.1168 24.3465 47.3744C24.5164 47.9084 24.7427 48.4228 25.0217 48.9088C25.1627 49.1635 25.3193 49.4093 25.4905 49.6448C25.6491 49.8685 25.82 50.0832 26.0025 50.288C26.1385 50.4416 26.2745 50.5952 26.4217 50.736C26.7737 51.0784 27.1593 51.3808 27.5689 51.6528C27.6105 51.6848 27.6537 51.7136 27.6969 51.744C27.8873 51.8656 28.0825 51.976 28.2841 52.08L28.4153 52.1504C28.6734 52.2793 28.9384 52.3941 29.2089 52.4944C29.3465 52.5456 29.4809 52.6064 29.6217 52.6496C29.6921 52.672 29.7657 52.6832 29.8377 52.7024C30.0587 52.7638 30.2824 52.8151 30.5081 52.856C30.7217 52.8951 30.9368 52.9256 31.1529 52.9472L31.1705 52.9504H31.1765C31.4485 52.9809 31.722 52.9975 31.9957 53C32.5113 52.9995 33.0257 52.9491 33.5317 52.8496L33.5861 52.84C33.8517 52.792 34.1125 52.7296 34.3701 52.6496C34.8146 52.5064 35.2456 52.3244 35.6581 52.1056L35.8213 52.0256C36.2449 51.7925 36.6466 51.5216 37.0213 51.216C37.0533 51.1888 37.0901 51.1648 37.1237 51.136C37.4542 50.8558 37.7613 50.5492 38.0421 50.2192C38.1061 50.144 38.1749 50.0752 38.2357 50C38.4856 49.6841 38.7113 49.3499 38.9109 49C38.9733 48.8944 39.0357 48.7904 39.0933 48.68C39.275 48.3267 39.4301 47.9603 39.5573 47.584C39.5829 47.512 39.6229 47.448 39.6453 47.376C39.6677 47.304 39.6789 47.232 39.6981 47.16L39.7041 47.1408L39.7201 47.0752C39.8263 46.671 39.9007 46.259 39.9425 45.8432L39.9455 45.8256V45.8192C39.976 45.5472 39.9926 45.2737 39.9951 45C39.995 44.4659 39.9414 43.9331 39.8351 43.4096C39.7871 43.144 39.7231 42.8816 39.6447 42.6256C39.6255 42.5648 39.5903 42.5104 39.5695 42.4496C39.2816 41.5959 38.8515 40.7969 38.2975 40.0864C38.2511 40.0288 38.2175 39.9584 38.1695 39.9008C38.0863 39.7984 37.9887 39.7088 37.8975 39.616C37.4945 39.1739 37.0431 38.7783 36.5519 38.4368C36.4879 38.3936 36.4303 38.3488 36.3663 38.3056C36.3186 38.2752 36.2706 38.2454 36.2223 38.216C35.8721 37.9881 35.5033 37.7901 35.1199 37.624C35.0479 37.5952 34.9695 37.5728 34.8959 37.544C34.7199 37.4752 34.5455 37.4048 34.3695 37.3504C34.2991 37.328 34.2255 37.3168 34.1551 37.2976L34.1359 37.2912C33.7114 37.173 33.2771 37.0932 32.8383 37.0528L32.8207 37.0496H32.8147C32.5429 37.0191 32.2696 37.0025 31.9961 37ZM31.9961 38.6C33.1947 38.6033 34.3683 38.9431 35.3833 39.5808C35.3803 39.5888 35.3733 39.5888 35.3705 39.6C35.3993 39.6592 35.4745 39.664 35.5433 39.6784L35.6489 39.7504C35.6889 39.8048 35.7209 39.8624 35.7449 39.9264C35.7592 40.0004 35.7592 40.0764 35.7449 40.1504C35.7001 40.2656 35.5801 40.2528 35.4457 40.2496C35.4089 40.2496 35.3801 40.2528 35.3465 40.2496C35.1209 40.2352 34.8985 40.1632 34.7961 40.3248C34.8021 40.448 34.8233 40.5168 34.7961 40.6256C34.7753 40.704 34.6921 40.7568 34.6953 40.8256C34.6973 40.8592 34.7625 40.9264 34.7705 40.9744C34.7765 41.0016 34.7593 41.0512 34.7705 41.0752C34.8089 41.1456 34.9033 41.064 34.9705 41.0752C35.0345 41.0848 35.0953 41.1792 35.0953 41.2512C35.0954 41.3202 35.0789 41.3883 35.0473 41.4496C34.9833 41.5456 34.8633 41.5232 34.7705 41.5744C34.6953 41.6192 34.6665 41.7248 34.6217 41.8C34.5737 41.88 34.5257 41.9088 34.5465 42.024C34.4925 42.1474 34.3944 42.2461 34.2713 42.3008C34.1843 42.3418 34.1077 42.402 34.0473 42.4768C33.9945 42.5312 33.9241 42.5568 33.8969 42.6C33.8761 42.632 33.8939 42.7056 33.8713 42.7504C33.8393 42.8112 33.7865 42.8624 33.7465 42.9264C33.7273 42.9536 33.6921 42.9872 33.6713 43.0256C33.6233 43.1088 33.5625 43.176 33.5705 43.2496C33.5765 43.3216 33.6665 43.3376 33.6713 43.4C33.6743 43.4352 33.6441 43.4624 33.6457 43.5008C33.6477 43.5552 33.6665 43.5808 33.6713 43.6256C33.6813 43.7328 33.6169 43.776 33.5961 43.8496C33.5861 43.8848 33.6041 43.9232 33.5961 43.9504C33.5801 44.0032 33.4969 44.0368 33.4969 44.1008C33.4949 44.1456 33.5673 44.1856 33.5705 44.2496C33.5735 44.2928 33.5385 44.3344 33.5465 44.3744C33.5625 44.4544 33.7097 44.5632 33.7705 44.6256C33.8537 44.7072 33.9353 44.7632 33.9705 44.8496C34.0025 44.9248 34.0137 45.0448 34.0713 45.1008C34.1129 45.1408 34.1929 45.1584 34.2473 45.2C34.2969 45.24 34.3673 45.2576 34.4217 45.3008C34.5097 45.3696 34.6297 45.5088 34.7705 45.5008C34.8457 45.4944 34.9145 45.464 34.9961 45.4496C35.0825 45.4352 35.1833 45.392 35.2713 45.4C35.3385 45.408 35.4009 45.4544 35.4713 45.4496C35.5579 45.4378 35.6421 45.4124 35.7209 45.3744C35.8649 45.312 36.0873 45.1952 36.2969 45.2256C36.4569 45.248 36.4585 45.4288 36.5705 45.5008C36.6985 45.512 36.7945 45.4752 36.8969 45.5008C36.9737 45.5184 37.0633 45.664 37.0713 45.7248C37.0793 45.7888 37.0297 45.8368 37.0217 45.8752C37.0009 45.96 36.9865 46.072 36.9721 46.1248C36.9609 46.168 36.9449 46.208 36.9465 46.2496C36.9465 46.288 37.0073 46.376 37.0457 46.4256C37.0937 46.4864 37.1625 46.5328 37.2217 46.6C37.3273 46.7216 37.3721 46.888 37.4457 47.0496C37.4649 47.0912 37.4297 47.0992 37.4457 47.1504C37.4137 47.3936 37.3321 47.5552 37.1721 47.8256C37.0953 47.912 37.0201 48.016 37.0217 48.1248C37.0157 48.3872 37.1577 48.5216 37.1465 48.7744V48.784C36.361 49.855 35.2618 50.6551 34.0012 51.0734C32.7407 51.4916 31.3812 51.5074 30.1113 51.1184C30.1113 51.1104 30.1213 51.1088 30.1213 51.0992C30.1183 51.0576 30.0797 51.0384 30.0461 51C30.0189 50.968 30.0401 50.9296 30.0221 50.8992C29.9869 50.8496 29.9357 50.824 29.9213 50.7504C30.0269 50.7296 30.1709 50.8672 30.3213 50.8256C30.3933 50.8048 30.5133 50.6656 30.5453 50.6C30.5565 50.5792 30.5353 50.4992 30.5453 50.4752C30.5597 50.448 30.5933 50.44 30.5965 50.4256C30.6065 50.3856 30.5885 50.3744 30.5965 50.3504C30.6221 50.2752 30.7037 50.2288 30.7469 50.1744C30.7789 50.1344 30.8157 50.0928 30.8461 50.0496C30.8813 50.0048 30.8989 49.9888 30.9213 49.9504C30.9437 49.8176 30.8397 49.7168 30.8717 49.6C30.9069 49.4688 31.0957 49.384 31.2221 49.3248C31.2653 49.304 31.3101 49.2624 31.3469 49.2496C31.4333 49.2192 31.5389 49.2288 31.6221 49.2C31.7581 49.152 31.8045 49 31.8717 48.8752C31.9037 48.8176 31.9405 48.7664 31.9469 48.7248C31.9519 48.688 31.9389 48.6448 31.9469 48.6C31.9549 48.5568 31.9597 48.5232 31.9709 48.4752C31.9877 48.393 31.9962 48.3094 31.9965 48.2256C31.9965 48.1664 31.9725 48.152 31.9709 48.0992C31.9609 47.9104 32.0269 47.9024 32.0973 47.8C32.1309 47.7488 32.1469 47.6608 32.1709 47.624C32.2893 47.4512 32.4861 47.3648 32.4717 47.0992C32.4657 47.0128 32.4349 46.8272 32.3709 46.8C32.3357 46.784 32.2509 46.7952 32.1965 46.7744C32.0253 46.7104 31.9005 46.5152 31.7213 46.4992H31.6221C31.5517 46.4992 31.4749 46.4336 31.3981 46.4256C31.3469 46.4192 31.2509 46.44 31.2221 46.4256C31.1773 46.4032 31.1837 46.3248 31.1469 46.2992C31.1181 46.28 31.0669 46.2672 31.0221 46.2512C30.9589 46.2226 30.8912 46.2053 30.8221 46.2C30.7949 46.1984 30.7261 46.2048 30.6973 46.2C30.6509 46.192 30.6141 46.152 30.5725 46.1248C30.5197 46.0928 30.4925 46.0704 30.4717 46.0256C30.5197 45.8672 30.3533 45.8416 30.3213 45.7504C30.3069 45.7072 30.3373 45.6384 30.3213 45.6C30.3037 45.5456 30.2573 45.52 30.1965 45.4752C30.0994 45.3836 29.9776 45.3224 29.8461 45.2992C29.7805 45.2912 29.7021 45.304 29.6221 45.2992C29.5264 45.2895 29.4377 45.2451 29.3725 45.1744C29.3101 45.104 29.3005 45.0336 29.2461 45C29.1965 44.968 29.1069 44.9584 29.0717 44.9248C29.0557 44.9104 29.0605 44.8832 29.0477 44.8496C29.0205 44.7968 28.9645 44.7888 28.9965 44.7248C28.9389 44.696 28.9597 44.7616 28.8973 44.7504C28.8397 44.6704 28.8013 44.6256 28.6733 44.6496C28.6141 44.6608 28.5645 44.7488 28.4973 44.7504C28.4397 44.7504 28.3965 44.6608 28.3213 44.6496C28.2653 44.6416 28.1869 44.7088 28.1469 44.6992C28.0845 44.688 28.0781 44.6128 28.0221 44.5744C27.9805 44.5472 27.8941 44.4736 27.8717 44.4752C27.7997 44.4752 27.7469 44.6288 27.6477 44.5744C27.5981 44.512 27.7309 44.5088 27.6717 44.4496C27.6285 44.4064 27.6077 44.4512 27.5725 44.4752C27.5309 44.5024 27.4925 44.5344 27.4477 44.5504C27.3469 44.5872 27.2749 44.584 27.1965 44.6256C27.1245 44.6624 27.1149 44.7264 27.0717 44.8C27.0397 44.8608 26.9725 44.9472 26.9229 44.9504C26.8605 44.9536 26.8029 44.8736 26.7469 44.8496C26.5805 44.7776 26.4861 44.8976 26.3469 44.8992C26.2189 44.9008 26.0429 44.696 26.0477 44.5744C26.0507 44.5008 26.0893 44.392 26.0957 44.2992C26.1057 44.2272 26.1709 44.1664 26.1725 44.0992C26.1725 44.0112 26.0301 43.9344 25.9725 43.9248C25.8893 43.9088 25.7933 43.9248 25.6941 43.9344C25.8019 43.2927 26.0069 42.6711 26.3021 42.0912C26.3081 42.0912 26.3181 42.0992 26.3229 42.1008C26.3693 42.1008 26.3789 42.0432 26.4221 42.0496C26.4653 42.0576 26.5405 42.1472 26.5469 42.2C26.5529 42.264 26.5037 42.328 26.5229 42.4C26.5901 42.4704 26.7245 42.5088 26.8221 42.5504C26.8861 42.4976 26.8321 42.3744 26.8221 42.3008C26.8201 42.2672 26.8251 42.2304 26.8221 42.2C26.8141 42.1472 26.7965 42.0944 26.7965 42.0496C26.7965 41.8416 26.9565 41.7568 27.0973 41.6752C27.1565 41.64 27.2205 41.576 27.2733 41.5504C27.3469 41.5136 27.3853 41.5104 27.4477 41.4752C27.5581 41.4112 27.6621 41.3472 27.7469 41.2752C27.7869 41.1792 27.7439 41.0672 27.7469 40.9744C27.7869 40.9504 27.8045 40.9776 27.8477 40.9744C27.9133 40.96 27.9341 40.8624 27.9725 40.8256C27.9933 40.8032 28.0701 40.7968 28.0973 40.7744C28.1645 40.7232 28.1645 40.648 28.2221 40.6256C28.2429 40.6176 28.2893 40.6096 28.3213 40.6C28.3661 40.5888 28.4269 40.5488 28.4973 40.5248C28.5421 40.5088 28.6541 40.5168 28.6733 40.5008C28.6941 40.4784 28.6653 40.384 28.6733 40.3504C28.7069 40.1856 28.9501 40.1808 29.0973 40.1264C29.1981 40.0864 29.3085 40.0032 29.4221 40.0256C29.3997 40.104 29.3037 40.08 29.3213 40.1744C29.3469 40.3072 29.5005 40.1424 29.5469 40.1264C29.6365 40.088 29.8061 40.0672 29.9213 40.0256C30.0237 39.9888 30.1933 39.9184 30.0973 39.8C30.0173 39.7952 29.9917 39.8704 29.9213 39.9008C29.8733 39.9088 29.8621 39.8784 29.8221 39.8752C29.7821 39.8736 29.7613 39.9072 29.7213 39.9008C29.6829 39.8928 29.6285 39.8208 29.6221 39.7744C29.6061 39.6528 29.7469 39.6144 29.7981 39.5248C29.7629 39.4144 29.6157 39.5184 29.5213 39.4752C29.5313 39.4096 29.5693 39.3376 29.6477 39.3248C29.7338 39.3196 29.8197 39.3367 29.8973 39.3744C29.9181 39.3936 29.8893 39.4448 29.9213 39.4752C29.9597 39.5072 30.0221 39.4832 30.0717 39.4752C30.0893 39.392 29.9581 39.4288 29.9725 39.3744C30.0701 39.3104 30.2509 39.3424 30.3725 39.3264C30.4413 39.3152 30.5101 39.2592 30.5725 39.2256C30.6301 39.192 30.6845 39.1456 30.7469 39.2C30.7629 39.2592 30.7053 39.296 30.6717 39.3248C30.5597 39.424 30.4589 39.5344 30.3725 39.6496C30.4253 39.7024 30.5069 39.6656 30.5965 39.6752C30.6317 39.68 30.6861 39.6944 30.7213 39.7008C30.7661 39.7088 30.8125 39.6928 30.8461 39.7008C30.9085 39.7152 30.9101 39.8 30.9725 39.8C31.0701 39.8 31.0781 39.7168 31.0205 39.6496C31.0397 39.5808 31.0717 39.5216 31.0461 39.4736C31.0013 39.3856 30.8301 39.4896 30.8221 39.3744C30.8161 39.3024 30.8957 39.28 30.9213 39.2256C30.9101 39.0848 31.0365 39.0768 31.0221 38.9504C31.0141 38.8976 30.9581 38.8992 30.9213 38.8496C30.9021 38.824 30.8925 38.7696 30.8717 38.7504C30.8525 38.7344 30.8269 38.728 30.8029 38.7184C31.1962 38.6417 31.5954 38.602 31.9961 38.6ZM36.3241 40.296C36.5858 40.5353 36.8272 40.7959 37.0457 41.0752C36.9929 41.0752 36.9417 41.1008 36.8969 41.1008C36.8329 41.1008 36.7017 41.0688 36.6217 41.0752C36.5737 41.0784 36.5417 41.0976 36.4969 41.1008C36.3689 41.1104 36.2953 41.0928 36.1961 41.1008C36.1014 41.1128 36.0089 41.1375 35.9209 41.1744C35.8889 41.1904 35.8649 41.2288 35.8217 41.2496C35.8009 41.2592 35.7737 41.2624 35.7465 41.2752C35.7049 41.2944 35.6345 41.3392 35.5961 41.3504C35.5401 41.3648 35.4745 41.3456 35.3721 41.3504C35.2969 41.3536 35.1721 41.3392 35.1705 41.2496C35.1705 41.1152 35.4185 41.1728 35.5465 41.1504C35.5945 41.1408 35.6137 41.0832 35.6713 41.0496C35.6985 41.0336 35.7193 41.0176 35.7465 41C35.7897 40.968 35.8633 40.9104 35.8713 40.8752C35.8763 40.8432 35.8425 40.7984 35.8457 40.7744C35.8517 40.744 35.9065 40.7136 35.9465 40.6752C36.0073 40.6144 36.0457 40.5392 36.1225 40.4992C36.1721 40.472 36.2729 40.4656 36.2969 40.4256C36.3029 40.3776 36.2949 40.3664 36.2969 40.3248L36.3241 40.2976V40.296ZM25.6201 44.4624C25.6601 44.5184 25.7017 44.5744 25.7465 44.6C25.7495 44.648 25.7305 44.6896 25.7465 44.7248C25.7833 44.776 25.8585 44.792 25.9225 44.8256C25.9945 44.8656 26.0265 44.968 26.0953 45C26.1209 45.0096 26.1593 44.9888 26.1961 45C26.2921 45.0288 26.3129 45.176 26.3961 45.1504C26.4505 45.1344 26.4617 45.0528 26.4713 45C26.5081 44.9616 26.5385 44.9008 26.5961 44.9008C26.6857 44.8992 26.7129 45.0128 26.7465 45.1008C26.7641 45.1488 26.8073 45.1968 26.8217 45.2496C26.8421 45.3821 26.8421 45.517 26.8217 45.6496C26.7977 45.7168 26.7017 45.752 26.6457 45.8256C26.6201 45.8592 26.5913 45.9024 26.5705 45.9248C26.5369 45.968 26.4969 45.9856 26.4713 46.0256C26.4553 46.0464 26.4601 46.0944 26.4457 46.1248C26.4025 46.2176 26.3337 46.288 26.3705 46.4C26.3865 46.4448 26.4457 46.496 26.4457 46.5504C26.4457 46.6144 26.3065 46.6304 26.2969 46.7008C26.2889 46.7504 26.3545 46.856 26.3705 46.9248C26.3817 46.976 26.4665 47.016 26.4953 47.0496C26.5465 47.1072 26.5993 47.1776 26.6457 47.2496C26.7385 47.3904 26.7817 47.5616 26.8697 47.7008C26.9177 47.7712 27.0137 47.824 27.0457 47.9008C27.0617 47.9376 27.0313 48.016 27.0457 48.0496C27.0985 48.168 27.3529 48.2912 27.4713 48.3504C27.5257 48.3776 27.5705 48.3968 27.6217 48.4256C27.6985 48.4688 27.8569 48.5568 27.8953 48.6256C27.9305 48.6864 27.9529 48.8272 27.9705 48.9248C27.9929 49.0528 27.9645 49.1616 27.9705 49.3008C27.9735 49.376 27.9961 49.424 27.9961 49.5008V49.6C27.9941 49.6896 28.0041 49.784 27.9961 49.8752V49.9872C27.178 49.3313 26.5336 48.4844 26.1196 47.521C25.7056 46.5577 25.5346 45.5073 25.6217 44.4624H25.6201Z" fill="url(#paint5_linear_4_3490)"/>
<defs>
<filter id="filter0_f_4_3490" x="3.2625" y="3.26049" width="57.475" height="57.475" filterUnits="userSpaceOnUse" color-interpolation-filters="sRGB">
<feFlood flood-opacity="0" result="BackgroundImageFix"/>
<feBlend mode="normal" in="SourceGraphic" in2="BackgroundImageFix" result="shape"/>
<feGaussianBlur stdDeviation="0.61875" result="effect1_foregroundBlur_4_3490"/>
</filter>
<linearGradient id="paint0_linear_4_3490" x1="32" y1="59.498" x2="32" y2="4.49799" gradientUnits="userSpaceOnUse">
<stop stop-color="#FDFC47"/>
<stop offset="1" stop-color="#24FE41"/>
</linearGradient>
<linearGradient id="paint1_linear_4_3490" x1="4.5" y1="32" x2="59.5" y2="32" gradientUnits="userSpaceOnUse">
<stop stop-color="#FDFC47"/>
<stop offset="1" stop-color="#24FE41"/>
</linearGradient>
<linearGradient id="paint2_linear_4_3490" x1="35.8456" y1="32.005" x2="35.8456" y2="57.457" gradientUnits="userSpaceOnUse">
<stop/>
<stop offset="1" stop-opacity="0"/>
</linearGradient>
<linearGradient id="paint3_linear_4_3490" x1="25.5957" y1="19.001" x2="38.3957" y2="19.001" gradientUnits="userSpaceOnUse">
<stop stop-color="#FDFC47"/>
<stop offset="1" stop-color="#24FE41"/>
</linearGradient>
<linearGradient id="paint4_linear_4_3490" x1="25.5957" y1="19.001" x2="38.3957" y2="19.001" gradientUnits="userSpaceOnUse">
<stop stop-color="#FDFC47"/>
<stop offset="1" stop-color="#24FE41"/>
</linearGradient>
<linearGradient id="paint5_linear_4_3490" x1="23.9961" y1="45" x2="39.9951" y2="45" gradientUnits="userSpaceOnUse">
<stop stop-color="#FDFC47"/>
<stop offset="1" stop-color="#24FE41"/>
</linearGradient>
</defs>
</svg>
