<svg width="64" height="64" viewBox="0 0 64 64" fill="none" xmlns="http://www.w3.org/2000/svg">
<g clip-path="url(#clip0_4_2585)">
<g opacity="0.3" filter="url(#filter0_f_4_2585)">
<path d="M44.5 4.5H19.5C11.2157 4.5 4.5 11.2157 4.5 19.5V44.5C4.5 52.7843 11.2157 59.5 19.5 59.5H44.5C52.7843 59.5 59.5 52.7843 59.5 44.5V19.5C59.5 11.2157 52.7843 4.5 44.5 4.5Z" fill="url(#paint0_linear_4_2585)"/>
</g>
<path d="M19.5 5H44.5C52.5081 5 59 11.4919 59 19.5V44.5C59 52.5081 52.5081 59 44.5 59H19.5C11.4919 59 5 52.5081 5 44.5V19.5C5 11.4919 11.4919 5 19.5 5Z" fill="#232323" stroke="url(#paint1_linear_4_2585)"/>
<path fill-rule="evenodd" clip-rule="evenodd" d="M32 12C26.6957 12 21.6086 14.1071 17.8579 17.8579C14.1071 21.6086 12 26.6957 12 32C12 37.3043 14.1071 42.3914 17.8579 46.1421C21.6086 49.8929 26.6957 52 32 52C37.3043 52 42.3914 49.8929 46.1421 46.1421C49.8929 42.3914 52 37.3043 52 32C52 26.6957 49.8929 21.6086 46.1421 17.8579C42.3914 14.1071 37.3043 12 32 12ZM33.2 18.8H35.6V26.0953C37.008 25.2532 38.6832 24.8012 40.4 24.8C42.6278 24.8 44.7644 25.5586 46.3397 26.9088C47.915 28.2591 48.8 30.0904 48.8 32C48.8 33.9096 47.915 35.7409 46.3397 37.0912C44.7644 38.4414 42.6278 39.2 40.4 39.2C38.6822 39.1965 37.0069 38.7417 35.6 37.8969V40.4H33.2V18.8ZM28.4 23.6H30.8V45.2H28.4V37.9047C26.992 38.7468 25.3168 39.1988 23.6 39.2C22.4969 39.2 21.4046 39.0138 20.3855 38.6519C19.3663 38.2901 18.4403 37.7597 17.6603 37.0912C16.085 35.7409 15.2 33.9096 15.2 32C15.2 30.0904 16.085 28.2591 17.6603 26.9088C19.2356 25.5586 21.3722 24.8 23.6 24.8C25.3178 24.8035 26.9931 25.2583 28.4 26.1031V23.6ZM23.6 27.2C22.0087 27.2 20.4826 27.7057 19.3574 28.6059C18.2321 29.5061 17.6 30.727 17.6 32C17.6 33.273 18.2321 34.4939 19.3574 35.3941C20.4826 36.2943 22.0087 36.8 23.6 36.8C24.5327 36.7987 25.4521 36.6235 26.2853 36.2882C27.1185 35.953 27.8426 35.4669 28.4 34.8687V29.1297C27.8424 28.5318 27.1182 28.046 26.285 27.7111C25.4518 27.3761 24.5325 27.2011 23.6 27.2ZM40.4 27.2C39.4673 27.2013 38.5479 27.3765 37.7147 27.7118C36.8815 28.047 36.1574 28.5331 35.6 29.1313V34.8719C36.1578 35.4696 36.882 35.955 37.7152 36.2897C38.5484 36.6244 39.4677 36.7991 40.4 36.8001C41.9913 36.8001 43.5174 36.2944 44.6426 35.3942C45.7679 34.494 46.4 33.2731 46.4 32.0001C46.4 30.727 45.7679 29.5061 44.6426 28.606C43.5174 27.7058 41.9913 27.2 40.4 27.2Z" fill="url(#paint2_linear_4_2585)"/>
</g>
<defs>
<filter id="filter0_f_4_2585" x="3.2625" y="3.2625" width="57.475" height="57.475" filterUnits="userSpaceOnUse" color-interpolation-filters="sRGB">
<feFlood flood-opacity="0" result="BackgroundImageFix"/>
<feBlend mode="normal" in="SourceGraphic" in2="BackgroundImageFix" result="shape"/>
<feGaussianBlur stdDeviation="0.61875" result="effect1_foregroundBlur_4_2585"/>
</filter>
<linearGradient id="paint0_linear_4_2585" x1="4.5" y1="32" x2="59.5" y2="32" gradientUnits="userSpaceOnUse">
<stop stop-color="#FDFC47"/>
<stop offset="1" stop-color="#24FE41"/>
</linearGradient>
<linearGradient id="paint1_linear_4_2585" x1="4.5" y1="32" x2="59.5" y2="32" gradientUnits="userSpaceOnUse">
<stop stop-color="#FDFC47"/>
<stop offset="1" stop-color="#24FE41"/>
</linearGradient>
<linearGradient id="paint2_linear_4_2585" x1="12" y1="32" x2="52" y2="32" gradientUnits="userSpaceOnUse">
<stop stop-color="#FDFC47"/>
<stop offset="1" stop-color="#24FE41"/>
</linearGradient>
<clipPath id="clip0_4_2585">
<rect width="64" height="64" fill="white"/>
</clipPath>
</defs>
</svg>
