<svg width="64" height="64" viewBox="0 0 64 64" fill="none" xmlns="http://www.w3.org/2000/svg">
<g clip-path="url(#clip0_4_2542)">
<g opacity="0.3" filter="url(#filter0_f_4_2542)">
<path d="M44.5 4.5H19.5C11.2157 4.5 4.5 11.2157 4.5 19.5V44.5C4.5 52.7843 11.2157 59.5 19.5 59.5H44.5C52.7843 59.5 59.5 52.7843 59.5 44.5V19.5C59.5 11.2157 52.7843 4.5 44.5 4.5Z" fill="url(#paint0_linear_4_2542)"/>
</g>
<path d="M19.5 5H44.5C52.5081 5 59 11.4919 59 19.5V44.5C59 52.5081 52.5081 59 44.5 59H19.5C11.4919 59 5 52.5081 5 44.5V19.5C5 11.4919 11.4919 5 19.5 5Z" fill="#232323" stroke="url(#paint1_linear_4_2542)"/>
<path d="M45.5697 48.9564C45.3302 50.8495 42.2408 52.0148 38.6723 51.5617C35.105 51.1066 32.4064 49.2032 32.6489 47.3091C32.8895 45.416 35.9779 44.2497 39.5453 44.7048C43.1147 45.1589 45.8102 47.0634 45.5697 48.9564Z" fill="url(#paint2_linear_4_2542)"/>
<path d="M18.6432 48.7724C18.9241 50.6707 22.1328 51.8857 25.8142 51.4886C29.4946 51.0895 32.2492 49.2275 31.9683 47.3282C31.6883 45.431 28.4755 44.2149 24.7962 44.6141C21.1158 45.0122 18.3591 46.8741 18.6432 48.7724Z" fill="url(#paint3_linear_4_2542)"/>
<path d="M45.2515 24.092C45.2515 31.1667 39.4717 36.9039 32.339 36.9039C25.2105 36.9039 19.4297 31.1667 19.4297 24.092C19.4297 17.0143 25.2105 11.2791 32.339 11.2791C39.4717 11.2791 45.2515 17.0143 45.2515 24.092Z" fill="url(#paint4_linear_4_2542)"/>
<path d="M18.5299 48.3953C18.8108 50.2935 22.0195 51.5086 25.7009 51.1115C29.3813 50.7124 32.1359 48.8504 31.855 46.9511C31.5751 45.0539 28.3622 43.8378 24.6829 44.237C21.0025 44.6351 18.2458 46.497 18.5299 48.3953Z" fill="url(#paint5_linear_4_2542)"/>
<path d="M45.7162 48.4977C45.4767 50.3908 42.3873 51.556 38.8188 51.103C35.2514 50.6479 32.5528 48.7444 32.7954 46.8503C33.036 44.9573 36.1244 43.7909 39.6918 44.2461C43.2612 44.7001 45.9567 46.6046 45.7162 48.4977Z" fill="url(#paint6_linear_4_2542)"/>
<path d="M44.606 38.2807C44.606 44.0128 39.0273 48.6594 32.1486 48.6594C25.2699 48.6594 19.6934 44.0128 19.6934 38.2807C19.6934 32.5486 25.2699 27.902 32.1486 27.902C39.0273 27.902 44.606 32.5486 44.606 38.2807Z" fill="url(#paint7_linear_4_2542)"/>
<path d="M21.7312 36.2189C19.9024 39.8692 17.0338 42.1801 16.1816 41.727C15.0546 41.1257 14.782 37.4381 16.6118 33.7888C18.4437 30.1406 21.3963 27.8027 22.8104 28.5108C24.2214 29.221 23.561 32.5696 21.7312 36.2189Z" fill="url(#paint8_linear_4_2542)"/>
<path d="M42.7618 36.679C44.4351 39.9955 46.8455 42.5697 47.876 42.3426C48.7075 42.1602 49.3015 38.2818 47.7786 34.5672C46.2307 30.7903 43.4233 28.0783 42.0081 28.7874C40.5951 29.4965 40.9227 33.0349 42.7618 36.679Z" fill="url(#paint9_linear_4_2542)"/>
<path d="M23.0106 31.761C22.2414 33.3389 21.8008 35.1324 21.8008 37.0379C21.8008 43.3288 26.5397 48.4285 32.3858 48.4285C38.2319 48.4285 42.9698 43.3288 42.9698 37.0379C42.9698 35.1843 42.5499 33.4395 41.82 31.8927C36.4332 34.6389 26.5692 32.6267 23.0106 31.761Z" fill="url(#paint10_linear_4_2542)"/>
<path d="M31.4505 21.1377C31.4505 22.8463 30.3195 24.2313 28.923 24.2313C27.5276 24.2313 26.3965 22.8463 26.3965 21.1377C26.3965 19.4292 27.5276 18.0441 28.923 18.0441C30.3195 18.0441 31.4505 19.4292 31.4505 21.1377Z" fill="url(#paint11_linear_4_2542)"/>
<path d="M38.7064 21.155C38.7064 22.8635 37.5753 24.2486 36.1789 24.2486C34.7845 24.2486 33.6523 22.8635 33.6523 21.155C33.6523 19.4464 34.7845 18.0614 36.1789 18.0614C37.5753 18.0614 38.7064 19.4464 38.7064 21.155Z" fill="url(#paint12_linear_4_2542)"/>
<path d="M32.7803 25.0948C29.2617 25.0948 26.1888 25.9169 24.4834 27.1434C24.9105 28.15 26.2013 28.9338 27.4671 29.6616C28.9963 30.5407 31.5083 31.1358 32.7721 31.1358C33.9384 31.1358 36.8257 30.35 38.3849 29.3309C39.4818 28.6155 40.6388 27.9842 41.0597 27.1309C39.3511 25.9117 36.2876 25.0948 32.7803 25.0948Z" fill="url(#paint13_linear_4_2542)"/>
<path d="M31.0594 21.155C31.0594 22.2363 30.3513 23.1134 29.4795 23.1134C28.6065 23.1134 27.8984 22.2363 27.8984 21.155C27.8984 20.0737 28.6065 19.1966 29.4795 19.1966C30.3513 19.1966 31.0594 20.0737 31.0594 21.155Z" fill="url(#paint14_linear_4_2542)"/>
<path d="M30.4704 20.7094C30.4704 21.1459 30.1739 21.5004 29.808 21.5004C29.442 21.5004 29.1455 21.1459 29.1455 20.7094C29.1455 20.274 29.442 19.9205 29.808 19.9205C30.1739 19.9205 30.4704 20.274 30.4704 20.7094Z" fill="url(#paint15_linear_4_2542)"/>
<path d="M34.943 21.6637C34.7948 21.6637 34.6641 21.557 34.6372 21.4066C34.6206 21.3123 34.6123 21.2138 34.6123 21.1132C34.6123 20.2859 35.1991 19.6131 35.9196 19.6131C36.6401 19.6131 37.2269 20.2859 37.2269 21.1132C37.2269 21.1858 37.2228 21.2563 37.2145 21.3258C37.1927 21.4958 37.0351 21.6161 36.8662 21.5953C36.6961 21.5736 36.5759 21.418 36.5966 21.248C36.6028 21.2045 36.6059 21.1589 36.6059 21.1132C36.6059 20.6291 36.298 20.2351 35.9196 20.2351C35.5412 20.2351 35.2333 20.6291 35.2333 21.1132C35.2333 21.1765 35.2395 21.2387 35.2499 21.2978C35.28 21.4678 35.167 21.6285 34.998 21.6586C34.9793 21.6617 34.9617 21.6637 34.943 21.6637Z" fill="url(#paint16_linear_4_2542)"/>
<path d="M25.7285 26.6318C25.7285 26.6318 27.6713 28.2957 29.4587 28.7923C31.5487 29.3729 34.5687 29.0992 35.7133 28.7156C37.794 28.0168 40.0053 26.5115 40.0053 26.5115C40.0053 26.5115 38.0511 28.0065 36.0357 29.3242C35.0228 29.9856 33.9135 30.928 31.5788 30.422C30.9868 30.2945 29.9273 29.5771 29.5903 29.3822C27.8652 28.3838 26.1328 27.034 25.7285 26.6318Z" fill="url(#paint17_linear_4_2542)"/>
<path d="M27.8733 35.4997V41.1343C27.8733 41.1343 25.5448 42.2364 23.4589 40.2458C22.6595 39.4838 23.887 34.0607 23.887 34.0607L27.8733 35.4997Z" fill="url(#paint18_linear_4_2542)"/>
<path d="M23.5713 34.4111L27.8395 37.8292C27.8395 37.8292 27.911 35.6925 27.8188 35.084C27.7255 34.4764 23.5713 34.1094 23.5713 34.1094" fill="url(#paint19_linear_4_2542)"/>
<path d="M32.7794 36.4613C27.406 36.4613 22.3405 34.5516 18.3403 31.0516C18.2429 30.9666 18.2729 30.695 18.2729 30.695C18.2729 30.695 18.4264 30.0999 18.6814 28.6744C18.8597 27.6781 19.264 26.4558 19.4786 26.4558C19.6155 26.5688 19.7803 26.7191 19.9431 26.8715C20.2365 27.1462 20.5206 27.4293 20.6139 27.5174C23.9252 30.6162 28.2152 32.3143 32.7789 32.3143C37.3197 32.3143 41.6242 30.6162 44.9355 27.5246C44.9625 27.4998 45.681 28.4308 46.0034 29.3773C46.3486 30.3912 46.698 31.4943 46.3797 31.7462C42.5179 34.8004 37.7647 36.4613 32.7794 36.4613Z" fill="url(#paint20_linear_4_2542)"/>
</g>
<defs>
<filter id="filter0_f_4_2542" x="3.2625" y="3.2625" width="57.475" height="57.475" filterUnits="userSpaceOnUse" color-interpolation-filters="sRGB">
<feFlood flood-opacity="0" result="BackgroundImageFix"/>
<feBlend mode="normal" in="SourceGraphic" in2="BackgroundImageFix" result="shape"/>
<feGaussianBlur stdDeviation="0.61875" result="effect1_foregroundBlur_4_2542"/>
</filter>
<linearGradient id="paint0_linear_4_2542" x1="4.5" y1="32" x2="59.5" y2="32" gradientUnits="userSpaceOnUse">
<stop stop-color="#FDFC47"/>
<stop offset="1" stop-color="#24FE41"/>
</linearGradient>
<linearGradient id="paint1_linear_4_2542" x1="4.5" y1="32" x2="59.5" y2="32" gradientUnits="userSpaceOnUse">
<stop stop-color="#FDFC47"/>
<stop offset="1" stop-color="#24FE41"/>
</linearGradient>
<linearGradient id="paint2_linear_4_2542" x1="32.6338" y1="48.1329" x2="45.5846" y2="48.1329" gradientUnits="userSpaceOnUse">
<stop stop-color="#FDFC47"/>
<stop offset="1" stop-color="#24FE41"/>
</linearGradient>
<linearGradient id="paint3_linear_4_2542" x1="18.623" y1="48.051" x2="31.988" y2="48.051" gradientUnits="userSpaceOnUse">
<stop stop-color="#FDFC47"/>
<stop offset="1" stop-color="#24FE41"/>
</linearGradient>
<linearGradient id="paint4_linear_4_2542" x1="19.4297" y1="24.0915" x2="45.2515" y2="24.0915" gradientUnits="userSpaceOnUse">
<stop stop-color="#FDFC47"/>
<stop offset="1" stop-color="#24FE41"/>
</linearGradient>
<linearGradient id="paint5_linear_4_2542" x1="18.5098" y1="47.6739" x2="31.8747" y2="47.6739" gradientUnits="userSpaceOnUse">
<stop stop-color="#FDFC47"/>
<stop offset="1" stop-color="#24FE41"/>
</linearGradient>
<linearGradient id="paint6_linear_4_2542" x1="32.7803" y1="47.6742" x2="45.7311" y2="47.6742" gradientUnits="userSpaceOnUse">
<stop stop-color="#FDFC47"/>
<stop offset="1" stop-color="#24FE41"/>
</linearGradient>
<linearGradient id="paint7_linear_4_2542" x1="19.6934" y1="38.2807" x2="44.606" y2="38.2807" gradientUnits="userSpaceOnUse">
<stop stop-color="#FDFC47"/>
<stop offset="1" stop-color="#24FE41"/>
</linearGradient>
<linearGradient id="paint8_linear_4_2542" x1="15.2871" y1="35.084" x2="23.5716" y2="35.084" gradientUnits="userSpaceOnUse">
<stop stop-color="#FDFC47"/>
<stop offset="1" stop-color="#24FE41"/>
</linearGradient>
<linearGradient id="paint9_linear_4_2542" x1="41.1318" y1="35.5155" x2="48.7198" y2="35.5155" gradientUnits="userSpaceOnUse">
<stop stop-color="#FDFC47"/>
<stop offset="1" stop-color="#24FE41"/>
</linearGradient>
<linearGradient id="paint10_linear_4_2542" x1="21.8008" y1="40.0947" x2="42.9698" y2="40.0947" gradientUnits="userSpaceOnUse">
<stop stop-color="#FDFC47"/>
<stop offset="1" stop-color="#24FE41"/>
</linearGradient>
<linearGradient id="paint11_linear_4_2542" x1="26.3965" y1="21.1377" x2="31.4505" y2="21.1377" gradientUnits="userSpaceOnUse">
<stop stop-color="#FDFC47"/>
<stop offset="1" stop-color="#24FE41"/>
</linearGradient>
<linearGradient id="paint12_linear_4_2542" x1="33.6523" y1="21.155" x2="38.7064" y2="21.155" gradientUnits="userSpaceOnUse">
<stop stop-color="#FDFC47"/>
<stop offset="1" stop-color="#24FE41"/>
</linearGradient>
<linearGradient id="paint13_linear_4_2542" x1="24.4834" y1="28.1153" x2="41.0597" y2="28.1153" gradientUnits="userSpaceOnUse">
<stop stop-color="#FDFC47"/>
<stop offset="1" stop-color="#24FE41"/>
</linearGradient>
<linearGradient id="paint14_linear_4_2542" x1="27.8984" y1="21.155" x2="31.0594" y2="21.155" gradientUnits="userSpaceOnUse">
<stop stop-color="#FDFC47"/>
<stop offset="1" stop-color="#24FE41"/>
</linearGradient>
<linearGradient id="paint15_linear_4_2542" x1="29.1455" y1="20.7105" x2="30.4704" y2="20.7105" gradientUnits="userSpaceOnUse">
<stop stop-color="#FDFC47"/>
<stop offset="1" stop-color="#24FE41"/>
</linearGradient>
<linearGradient id="paint16_linear_4_2542" x1="34.6123" y1="20.6384" x2="37.2269" y2="20.6384" gradientUnits="userSpaceOnUse">
<stop stop-color="#FDFC47"/>
<stop offset="1" stop-color="#24FE41"/>
</linearGradient>
<linearGradient id="paint17_linear_4_2542" x1="25.7285" y1="28.5386" x2="40.0053" y2="28.5386" gradientUnits="userSpaceOnUse">
<stop stop-color="#FDFC47"/>
<stop offset="1" stop-color="#24FE41"/>
</linearGradient>
<linearGradient id="paint18_linear_4_2542" x1="23.1885" y1="37.7496" x2="27.8733" y2="37.7496" gradientUnits="userSpaceOnUse">
<stop stop-color="#FDFC47"/>
<stop offset="1" stop-color="#24FE41"/>
</linearGradient>
<linearGradient id="paint19_linear_4_2542" x1="23.5713" y1="35.9693" x2="27.8659" y2="35.9693" gradientUnits="userSpaceOnUse">
<stop stop-color="#FDFC47"/>
<stop offset="1" stop-color="#24FE41"/>
</linearGradient>
<linearGradient id="paint20_linear_4_2542" x1="18.2686" y1="31.4585" x2="46.5048" y2="31.4585" gradientUnits="userSpaceOnUse">
<stop stop-color="#FDFC47"/>
<stop offset="1" stop-color="#24FE41"/>
</linearGradient>
<clipPath id="clip0_4_2542">
<rect width="64" height="64" fill="white"/>
</clipPath>
</defs>
</svg>
