<svg width="64" height="64" viewBox="0 0 64 64" fill="none" xmlns="http://www.w3.org/2000/svg">
<g opacity="0.3" filter="url(#filter0_f_4_2440)">
<path d="M44.5 4.5H19.5C11.2157 4.5 4.5 11.2157 4.5 19.5V44.5C4.5 52.7843 11.2157 59.5 19.5 59.5H44.5C52.7843 59.5 59.5 52.7843 59.5 44.5V19.5C59.5 11.2157 52.7843 4.5 44.5 4.5Z" fill="url(#paint0_linear_4_2440)"/>
</g>
<path d="M19.5 5H44.5C52.5081 5 59 11.4919 59 19.5V44.5C59 52.5081 52.5081 59 44.5 59H19.5C11.4919 59 5 52.5081 5 44.5V19.5C5 11.4919 11.4919 5 19.5 5Z" fill="#232323" stroke="url(#paint1_linear_4_2440)"/>
<path d="M25.9593 10.997L25.9028 53.003H26.0754L26.1396 10.997H25.9593ZM31.9371 10.997L31.879 53.003H32.0593L32.1159 10.997H31.9371ZM37.9836 10.997L37.9271 53.003H38.0997L38.1578 10.997H37.9836ZM20.1156 11.0397C20.0558 11.0473 19.9948 11.0473 19.9353 11.0511L19.8787 52.9401C19.9362 52.9477 19.9937 52.9514 20.0514 52.959L20.1156 11.0397ZM44.0476 11.0426L43.9895 52.9606C44.0472 52.953 44.1063 52.953 44.1637 52.9493L44.2264 11.0593C44.167 11.0517 44.1073 11.0479 44.0476 11.0404L44.0476 11.0426ZM49.9795 13.7366L49.9306 50.3076C49.9879 50.254 50.0489 50.2037 50.1048 50.1489L50.1583 13.8989C50.1014 13.8422 50.0377 13.7922 49.9795 13.7366ZM14.0685 13.7918C14.0107 13.8477 13.9522 13.9025 13.8958 13.9596L13.8408 49.9786C13.8987 50.0383 13.9556 50.0988 14.015 50.1574L14.0685 13.7918Z" fill="url(#paint2_linear_4_2440)"/>
<path d="M13.8856 13.911C13.8302 13.9666 13.7809 14.0282 13.7267 14.0853H50.2737C50.2195 14.0282 50.1702 13.9666 50.1148 13.911H13.8856ZM11.048 19.9116C11.0422 19.9691 11.0436 20.028 11.0388 20.0858H52.9628C52.9578 20.0284 52.9588 19.9691 52.9538 19.9116H11.048ZM10.9961 25.9245V26.0972H53.0041V25.9245H10.9961ZM10.9961 31.9068V32.0856H53.0041V31.9068H10.9961ZM10.9961 37.9075V38.0818H53.0041V37.9075H10.9961ZM11.0389 43.9021C11.0438 43.9618 11.0422 44.0231 11.0481 44.0824H52.9531C52.9591 44.0231 52.9571 43.9618 52.9621 43.9021H11.0389ZM13.7283 49.915C13.7819 49.9713 13.8307 50.0326 13.8857 50.0877H50.1147C50.1697 50.0326 50.2184 49.9717 50.2721 49.915H13.7283Z" fill="url(#paint3_linear_4_2440)"/>
<path opacity="0.25" d="M30.1199 19.105C30.041 19.1163 29.9778 19.2195 29.8942 19.4391C29.7324 19.8638 29.6952 20.4751 29.4828 26.179C29.3707 29.1895 29.1265 31.8871 28.9163 32.439C28.6442 33.1534 28.1906 32.9299 27.0506 31.5207C26.4639 30.7954 25.7998 30.0574 25.5746 29.8805C25.187 29.5762 25.1431 29.5736 24.7496 29.831C24.521 29.9807 24.2229 30.3712 24.0875 30.6993C23.7379 31.5466 23.2589 32.0055 22.5926 32.1303C22.2752 32.1897 20.6379 32.1455 18.9546 32.0287L16.0332 31.8287C16.0337 31.9916 16.0344 32.1545 16.0343 32.3176L17.5653 32.4502C18.4829 32.53 20.1159 32.5957 21.1944 32.5957C23.4813 32.5957 23.8725 32.4351 24.3804 31.289C24.5536 30.8982 24.7674 30.5342 24.8552 30.4801C25.1923 30.2722 25.6594 30.6173 26.618 31.7829C27.1645 32.4475 27.7922 33.1096 28.0128 33.2539C28.5497 33.605 29.0577 33.4224 29.3248 32.7827C29.5967 32.1318 29.8666 29.4103 29.9796 26.1788C30.0773 23.3861 30.1619 22.7347 30.3821 23.0904C30.5094 23.2961 30.635 24.447 30.7896 26.8285C30.8215 27.32 30.9651 29.0376 31.1087 30.6459C31.5909 36.0449 31.764 37.0089 32.225 36.8565C32.4678 36.776 32.7882 35.4376 32.8087 34.4179C32.8173 33.9906 32.9308 33.3878 33.0606 33.0779C33.3284 32.438 33.4584 32.4135 35.0408 32.7045C36.4775 32.9687 36.7826 32.802 37.3996 31.4172C38.2281 29.5576 38.2593 29.5123 38.7377 29.4569C39.1106 29.4138 39.3326 29.5665 40.0319 30.3503C42.5996 33.2269 42.8917 33.342 44.2847 32.0271C44.758 31.5803 45.2152 31.2147 45.3015 31.2147C45.3877 31.2147 45.8446 31.5435 46.3166 31.9455C47.0178 32.5429 47.2915 32.6768 47.8148 32.6768H47.9671V32.1896H47.9126C47.5081 32.1896 47.1571 32.0056 46.5144 31.4583C45.3596 30.4745 44.977 30.4867 44.0055 31.5392C42.9075 32.7288 42.855 32.7109 40.8045 30.4278C38.6981 28.0825 38.2109 28.1121 37.2255 30.6458C37.017 31.1819 36.6754 31.7997 36.4667 32.019C36.0997 32.4046 36.0559 32.4114 35.138 32.2224C33.7487 31.9359 33.2129 31.9729 32.8326 32.3807C32.6511 32.5754 32.4602 32.8675 32.4084 33.0305C32.289 33.4058 32.0587 33.4121 31.9464 33.0419C31.8163 32.6137 31.5418 30.1747 31.4483 28.6146C31.3297 26.6353 30.7299 20.3299 30.6105 19.8068C30.555 19.5637 30.4093 19.2816 30.2864 19.1798C30.22 19.1246 30.1672 19.0986 30.1199 19.105Z" fill="url(#paint4_linear_4_2440)"/>
<path d="M30.1199 18.93C30.041 18.9414 29.9778 19.0445 29.8942 19.2641C29.7324 19.6888 29.6952 20.3001 29.4828 26.004C29.3707 29.0145 29.1265 31.7121 28.9163 32.2639C28.6442 32.9784 28.1906 32.7549 27.0506 31.3456C26.4639 30.6204 25.7998 29.8823 25.5746 29.7055C25.187 29.4012 25.1431 29.3986 24.7496 29.6559C24.521 29.8056 24.2229 30.1962 24.0875 30.5243C23.7379 31.3716 23.2589 31.8306 22.5926 31.9553C22.2752 32.0146 20.6379 31.9704 18.9546 31.8536L16.0332 31.6537C16.0337 31.8166 16.0344 31.9795 16.0343 32.1425L17.5653 32.2751C18.4829 32.3549 20.1159 32.4207 21.1944 32.4207C23.4813 32.4207 23.8725 32.26 24.3804 31.114C24.5536 30.7231 24.7674 30.3591 24.8552 30.305C25.1923 30.0971 25.6594 30.4422 26.618 31.6078C27.1645 32.2724 27.7922 32.9345 28.0128 33.0787C28.5497 33.4298 29.0577 33.2473 29.3248 32.6076C29.5967 31.9566 29.8666 29.2352 29.9796 26.0037C30.0773 23.211 30.1619 22.5596 30.3821 22.9153C30.5094 23.1209 30.635 24.2719 30.7896 26.6534C30.8215 27.1449 30.9651 28.8626 31.1087 30.4709C31.5909 35.8699 31.764 36.8339 32.225 36.6815C32.4678 36.601 32.7882 35.2626 32.8087 34.2429C32.8173 33.8156 32.9308 33.2128 33.0606 32.9029C33.3284 32.263 33.4584 32.2385 35.0408 32.5295C36.4775 32.7937 36.7826 32.627 37.3996 31.2422C38.2281 29.3826 38.2593 29.3373 38.7377 29.2819C39.1106 29.2388 39.3326 29.3915 40.0319 30.1752C42.5996 33.0518 42.8917 33.1669 44.2847 31.852C44.758 31.4053 45.2152 31.0397 45.3015 31.0397C45.3877 31.0397 45.8446 31.3685 46.3166 31.7704C47.0178 32.3679 47.2915 32.5017 47.8148 32.5017H47.9671V32.0146H47.9126C47.5081 32.0146 47.1571 31.8305 46.5144 31.2833C45.3596 30.2995 44.977 30.3117 44.0055 31.3642C42.9075 32.5538 42.855 32.5359 40.8045 30.2528C38.6981 27.9075 38.2109 27.9372 37.2255 30.4709C37.017 31.007 36.6754 31.6248 36.4667 31.8442C36.0997 32.2298 36.0559 32.2365 35.138 32.0475C33.7487 31.761 33.2129 31.7981 32.8326 32.2059C32.6511 32.4005 32.4602 32.6926 32.4084 32.8556C32.289 33.2309 32.0587 33.2372 31.9464 32.867C31.8163 32.4388 31.5418 29.9998 31.4483 28.4397C31.3297 26.4604 30.7299 20.1549 30.6105 19.6318C30.555 19.3888 30.4093 19.1067 30.2864 19.0049C30.22 18.9501 30.1672 18.9232 30.1199 18.93Z" fill="url(#paint5_linear_4_2440)"/>
<defs>
<filter id="filter0_f_4_2440" x="3.2625" y="3.2625" width="57.475" height="57.475" filterUnits="userSpaceOnUse" color-interpolation-filters="sRGB">
<feFlood flood-opacity="0" result="BackgroundImageFix"/>
<feBlend mode="normal" in="SourceGraphic" in2="BackgroundImageFix" result="shape"/>
<feGaussianBlur stdDeviation="0.61875" result="effect1_foregroundBlur_4_2440"/>
</filter>
<linearGradient id="paint0_linear_4_2440" x1="4.5" y1="32" x2="59.5" y2="32" gradientUnits="userSpaceOnUse">
<stop stop-color="#FDFC47"/>
<stop offset="1" stop-color="#24FE41"/>
</linearGradient>
<linearGradient id="paint1_linear_4_2440" x1="4.5" y1="32" x2="59.5" y2="32" gradientUnits="userSpaceOnUse">
<stop stop-color="#FDFC47"/>
<stop offset="1" stop-color="#24FE41"/>
</linearGradient>
<linearGradient id="paint2_linear_4_2440" x1="13.8408" y1="32" x2="50.1583" y2="32" gradientUnits="userSpaceOnUse">
<stop stop-color="#FDFC47"/>
<stop offset="1" stop-color="#24FE41"/>
</linearGradient>
<linearGradient id="paint3_linear_4_2440" x1="10.9961" y1="31.9994" x2="53.0041" y2="31.9994" gradientUnits="userSpaceOnUse">
<stop stop-color="#FDFC47"/>
<stop offset="1" stop-color="#24FE41"/>
</linearGradient>
<linearGradient id="paint4_linear_4_2440" x1="16.0332" y1="27.9872" x2="47.9671" y2="27.9872" gradientUnits="userSpaceOnUse">
<stop stop-color="#FDFC47"/>
<stop offset="1" stop-color="#24FE41"/>
</linearGradient>
<linearGradient id="paint5_linear_4_2440" x1="16.0332" y1="27.8124" x2="47.9671" y2="27.8124" gradientUnits="userSpaceOnUse">
<stop stop-color="#FDFC47"/>
<stop offset="1" stop-color="#24FE41"/>
</linearGradient>
</defs>
</svg>
