<svg width="64" height="64" viewBox="0 0 64 64" fill="none" xmlns="http://www.w3.org/2000/svg">
<g clip-path="url(#clip0_4_2322)">
<g opacity="0.3" filter="url(#filter0_f_4_2322)">
<path d="M44.4951 4.95578H19.4951C11.2108 4.95578 4.49512 11.6715 4.49512 19.9558V44.9558C4.49512 53.2401 11.2108 59.9558 19.4951 59.9558H44.4951C52.7794 59.9558 59.4951 53.2401 59.4951 44.9558V19.9558C59.4951 11.6715 52.7794 4.95578 44.4951 4.95578Z" fill="url(#paint0_linear_4_2322)"/>
</g>
<path d="M19.4951 5.45578H44.4951C52.5032 5.45578 58.9951 11.9477 58.9951 19.9558V44.9558C58.9951 52.9639 52.5032 59.4558 44.4951 59.4558H19.4951C11.487 59.4558 4.99512 52.9639 4.99512 44.9558V19.9558C4.99512 11.9477 11.487 5.45578 19.4951 5.45578Z" fill="#232323" stroke="url(#paint1_linear_4_2322)"/>
<g opacity="0.75" filter="url(#filter1_f_4_2322)">
<path d="M47.6415 15.001L12.349 15.001C11.604 15.001 11 15.5871 11 16.3101L10.9999 41.5111C10.9999 42.2342 11.6039 42.8203 12.349 42.8203L47.6415 42.8203C48.3865 42.8203 48.9905 42.2342 48.9905 41.5112L48.9905 16.3102C48.9905 15.5871 48.3866 15.001 47.6415 15.001Z" fill="url(#paint2_linear_4_2322)"/>
</g>
<path d="M12.349 15.4048L47.6415 15.4048C48.174 15.4048 48.5861 15.8208 48.5861 16.3102L48.586 41.5112C48.586 42.0005 48.174 42.4166 47.6415 42.4166L12.349 42.4165C11.8164 42.4165 11.4044 42.0005 11.4044 41.5111L11.4045 16.3101C11.4045 15.8208 11.8165 15.4048 12.349 15.4048Z" fill="#232323" stroke="url(#paint3_linear_4_2322)" stroke-width="0.808281"/>
<path d="M22.498 20.002C23.3265 20.002 23.998 19.3304 23.998 18.502C23.998 17.6736 23.3265 17.002 22.498 17.002C21.6696 17.002 20.998 17.6736 20.998 18.502C20.998 19.3304 21.6696 20.002 22.498 20.002Z" fill="url(#paint4_linear_4_2322)"/>
<path d="M18.499 20.002C19.3274 20.002 19.999 19.3304 19.999 18.502C19.999 17.6735 19.3274 17.002 18.499 17.002C17.6706 17.002 16.999 17.6735 16.999 18.502C16.999 19.3304 17.6706 20.002 18.499 20.002Z" fill="url(#paint5_linear_4_2322)"/>
<path d="M14.5 20.002C15.3284 20.002 16 19.3304 16 18.502C16 17.6736 15.3284 17.002 14.5 17.002C13.6716 17.002 13 17.6736 13 18.502C13 19.3304 13.6716 20.002 14.5 20.002Z" fill="url(#paint6_linear_4_2322)"/>
<g opacity="0.75" filter="url(#filter2_f_4_2322)">
<path d="M52.6415 22.001L17.349 22.001C16.604 22.001 16 22.5871 16 23.3101L15.9999 48.5111C15.9999 49.2342 16.6039 49.8203 17.349 49.8203L52.6415 49.8203C53.3865 49.8203 53.9905 49.2342 53.9905 48.5112L53.9905 23.3102C53.9905 22.5871 53.3866 22.001 52.6415 22.001Z" fill="url(#paint7_linear_4_2322)"/>
</g>
<path d="M17.349 22.5005L52.6415 22.5006C53.1236 22.5006 53.4901 22.8762 53.4901 23.3102L53.4901 48.5112C53.4901 48.9451 53.1236 49.3208 52.6415 49.3208L17.349 49.3207C16.8669 49.3207 16.5004 48.9451 16.5004 48.5111L16.5004 23.3101C16.5004 22.8762 16.8669 22.5005 17.349 22.5005Z" fill="#232323" stroke="url(#paint8_linear_4_2322)"/>
<path d="M27.498 27.002C28.3265 27.002 28.998 26.3304 28.998 25.502C28.998 24.6736 28.3265 24.002 27.498 24.002C26.6696 24.002 25.998 24.6736 25.998 25.502C25.998 26.3304 26.6696 27.002 27.498 27.002Z" fill="url(#paint9_linear_4_2322)"/>
<path d="M23.499 27.002C24.3274 27.002 24.999 26.3304 24.999 25.502C24.999 24.6735 24.3274 24.002 23.499 24.002C22.6706 24.002 21.999 24.6735 21.999 25.502C21.999 26.3304 22.6706 27.002 23.499 27.002Z" fill="url(#paint10_linear_4_2322)"/>
<path d="M19.5 27.002C20.3284 27.002 21 26.3304 21 25.502C21 24.6736 20.3284 24.002 19.5 24.002C18.6716 24.002 18 24.6736 18 25.502C18 26.3304 18.6716 27.002 19.5 27.002Z" fill="url(#paint11_linear_4_2322)"/>
<g opacity="0.25" filter="url(#filter3_f_4_2322)">
<path d="M47.003 59.9764C53.6068 60.5375 59.4167 55.6389 59.9798 49.0351C60.543 42.4313 55.646 36.623 49.0422 36.0619C42.4384 35.5008 36.6285 40.3993 36.0653 47.0032C35.5022 53.607 40.3992 59.4153 47.003 59.9764Z" fill="url(#paint12_linear_4_2322)"/>
</g>
<path d="M47.003 59.9764C53.6068 60.5375 59.4167 55.6389 59.9798 49.0351C60.543 42.4313 55.646 36.623 49.0422 36.0619C42.4384 35.5008 36.6285 40.3993 36.0653 47.0032C35.5022 53.607 40.3992 59.4153 47.003 59.9764Z" fill="url(#paint13_linear_4_2322)"/>
<path d="M50.9638 53.3982C50.6786 53.3982 50.3941 53.2759 50.1872 53.0357C49.6566 52.4181 48.9009 52.0652 48.113 52.0652C47.3119 52.0652 46.5758 52.4078 46.0403 53.0305C45.6516 53.4837 44.9889 53.5183 44.559 53.1071C44.1297 52.6967 44.0969 51.9981 44.4863 51.5463C45.4105 50.4712 46.7324 49.8544 48.1131 49.8544C49.4917 49.8544 50.8136 50.4726 51.7405 51.55C52.1299 52.0025 52.097 52.7011 51.6678 53.1115C51.4679 53.3038 51.2155 53.3982 50.9638 53.3982ZM53.2903 50.6326C53.0226 50.6326 52.7548 50.525 52.5507 50.3106C51.3637 49.0659 49.788 48.3807 48.113 48.3807C46.4346 48.3807 44.8582 49.0645 43.6732 50.3062C43.2629 50.7366 42.5988 50.7344 42.1905 50.3018C41.7823 49.8693 41.7837 49.1692 42.1949 48.7389C43.7748 47.0824 45.877 46.17 48.1133 46.17C50.3461 46.17 52.4475 47.0838 54.0301 48.7433C54.4412 49.1736 54.4426 49.8737 54.0346 50.307C53.8297 50.5229 53.5599 50.6327 53.2908 50.6327L53.2903 50.6326ZM55.6119 47.8714C55.3512 47.8714 55.0898 47.769 54.8863 47.5641C53.0554 45.7145 50.6507 44.6961 48.113 44.6961C45.5705 44.6961 43.1643 45.713 41.3384 47.5611C40.921 47.9834 40.2569 47.9694 39.8557 47.5287C39.4544 47.088 39.4684 46.388 39.8857 45.9658C42.1045 43.7211 45.0259 42.4854 48.113 42.4854C51.1938 42.4854 54.1144 43.7227 56.3379 45.968C56.7559 46.3903 56.7699 47.0903 56.3694 47.5309C56.1631 47.7572 55.8877 47.8714 55.6123 47.8714L55.6119 47.8714ZM47.9817 56.0723C48.6812 56.0723 49.2484 55.5051 49.2484 54.8054C49.2484 54.1058 48.6813 53.5386 47.9817 53.5386C47.2821 53.5386 46.7149 54.1058 46.7149 54.8054C46.7149 55.5051 47.2821 56.0723 47.9817 56.0723Z" fill="#232323"/>
</g>
<defs>
<filter id="filter0_f_4_2322" x="3.25762" y="3.71828" width="57.475" height="57.475" filterUnits="userSpaceOnUse" color-interpolation-filters="sRGB">
<feFlood flood-opacity="0" result="BackgroundImageFix"/>
<feBlend mode="normal" in="SourceGraphic" in2="BackgroundImageFix" result="shape"/>
<feGaussianBlur stdDeviation="0.61875" result="effect1_foregroundBlur_4_2322"/>
</filter>
<filter id="filter1_f_4_2322" x="10.0128" y="14.0138" width="39.9646" height="29.7937" filterUnits="userSpaceOnUse" color-interpolation-filters="sRGB">
<feFlood flood-opacity="0" result="BackgroundImageFix"/>
<feBlend mode="normal" in="SourceGraphic" in2="BackgroundImageFix" result="shape"/>
<feGaussianBlur stdDeviation="0.493584" result="effect1_foregroundBlur_4_2322"/>
</filter>
<filter id="filter2_f_4_2322" x="15.0128" y="21.0138" width="39.9646" height="29.7937" filterUnits="userSpaceOnUse" color-interpolation-filters="sRGB">
<feFlood flood-opacity="0" result="BackgroundImageFix"/>
<feBlend mode="normal" in="SourceGraphic" in2="BackgroundImageFix" result="shape"/>
<feGaussianBlur stdDeviation="0.493584" result="effect1_foregroundBlur_4_2322"/>
</filter>
<filter id="filter3_f_4_2322" x="34.8214" y="34.8181" width="26.403" height="26.4021" filterUnits="userSpaceOnUse" color-interpolation-filters="sRGB">
<feFlood flood-opacity="0" result="BackgroundImageFix"/>
<feBlend mode="normal" in="SourceGraphic" in2="BackgroundImageFix" result="shape"/>
<feGaussianBlur stdDeviation="0.600023" result="effect1_foregroundBlur_4_2322"/>
</filter>
<linearGradient id="paint0_linear_4_2322" x1="4.49512" y1="32.4558" x2="59.4951" y2="32.4558" gradientUnits="userSpaceOnUse">
<stop stop-color="#FDFC47"/>
<stop offset="1" stop-color="#24FE41"/>
</linearGradient>
<linearGradient id="paint1_linear_4_2322" x1="4.49512" y1="32.4558" x2="59.4951" y2="32.4558" gradientUnits="userSpaceOnUse">
<stop stop-color="#FDFC47"/>
<stop offset="1" stop-color="#24FE41"/>
</linearGradient>
<linearGradient id="paint2_linear_4_2322" x1="11" y1="28.9106" x2="48.9905" y2="28.9107" gradientUnits="userSpaceOnUse">
<stop stop-color="#FDFC47"/>
<stop offset="1" stop-color="#24FE41"/>
</linearGradient>
<linearGradient id="paint3_linear_4_2322" x1="11" y1="28.9106" x2="48.9905" y2="28.9107" gradientUnits="userSpaceOnUse">
<stop stop-color="#FDFC47"/>
<stop offset="1" stop-color="#24FE41"/>
</linearGradient>
<linearGradient id="paint4_linear_4_2322" x1="20.998" y1="18.502" x2="23.998" y2="18.502" gradientUnits="userSpaceOnUse">
<stop stop-color="#FDFC47"/>
<stop offset="1" stop-color="#24FE41"/>
</linearGradient>
<linearGradient id="paint5_linear_4_2322" x1="16.999" y1="18.502" x2="19.999" y2="18.502" gradientUnits="userSpaceOnUse">
<stop stop-color="#FDFC47"/>
<stop offset="1" stop-color="#24FE41"/>
</linearGradient>
<linearGradient id="paint6_linear_4_2322" x1="13" y1="18.502" x2="16" y2="18.502" gradientUnits="userSpaceOnUse">
<stop stop-color="#FDFC47"/>
<stop offset="1" stop-color="#24FE41"/>
</linearGradient>
<linearGradient id="paint7_linear_4_2322" x1="16" y1="35.9106" x2="53.9905" y2="35.9107" gradientUnits="userSpaceOnUse">
<stop stop-color="#FDFC47"/>
<stop offset="1" stop-color="#24FE41"/>
</linearGradient>
<linearGradient id="paint8_linear_4_2322" x1="16" y1="35.9106" x2="53.9905" y2="35.9107" gradientUnits="userSpaceOnUse">
<stop stop-color="#FDFC47"/>
<stop offset="1" stop-color="#24FE41"/>
</linearGradient>
<linearGradient id="paint9_linear_4_2322" x1="25.998" y1="25.502" x2="28.998" y2="25.502" gradientUnits="userSpaceOnUse">
<stop stop-color="#FDFC47"/>
<stop offset="1" stop-color="#24FE41"/>
</linearGradient>
<linearGradient id="paint10_linear_4_2322" x1="21.999" y1="25.502" x2="24.999" y2="25.502" gradientUnits="userSpaceOnUse">
<stop stop-color="#FDFC47"/>
<stop offset="1" stop-color="#24FE41"/>
</linearGradient>
<linearGradient id="paint11_linear_4_2322" x1="18" y1="25.502" x2="21" y2="25.502" gradientUnits="userSpaceOnUse">
<stop stop-color="#FDFC47"/>
<stop offset="1" stop-color="#24FE41"/>
</linearGradient>
<linearGradient id="paint12_linear_4_2322" x1="36.0653" y1="47.0032" x2="59.9792" y2="49.0423" gradientUnits="userSpaceOnUse">
<stop stop-color="#FDFC47"/>
<stop offset="1" stop-color="#24FE41"/>
</linearGradient>
<linearGradient id="paint13_linear_4_2322" x1="36.0653" y1="47.0032" x2="59.9792" y2="49.0423" gradientUnits="userSpaceOnUse">
<stop stop-color="#FDFC47"/>
<stop offset="1" stop-color="#24FE41"/>
</linearGradient>
<clipPath id="clip0_4_2322">
<rect width="64" height="64" fill="white"/>
</clipPath>
</defs>
</svg>
