<svg width="64" height="64" viewBox="0 0 64 64" fill="none" xmlns="http://www.w3.org/2000/svg">
<g opacity="0.3" filter="url(#filter0_f_4_2299)">
<path d="M44.499 4.49857H19.499C11.2148 4.49857 4.49902 11.2143 4.49902 19.4986V44.4986C4.49902 52.7828 11.2148 59.4986 19.499 59.4986H44.499C52.7833 59.4986 59.499 52.7828 59.499 44.4986V19.4986C59.499 11.2143 52.7833 4.49857 44.499 4.49857Z" fill="url(#paint0_linear_4_2299)"/>
</g>
<path d="M19.5 4.9996H44.501C52.5091 4.9996 59.001 11.4915 59.001 19.4996V44.5006C59.001 52.5087 52.5091 59.0006 44.501 59.0006H19.5C11.4919 59.0006 5 52.5087 5 44.5006V19.4996C5 11.4915 11.4919 4.9996 19.5 4.9996Z" fill="#232323" stroke="url(#paint1_linear_4_2299)"/>
<path d="M32 14.5C27.3587 14.5 22.9075 16.3437 19.6256 19.6256C16.3437 22.9075 14.5 27.3587 14.5 32C14.5 36.6413 16.3437 41.0925 19.6256 44.3744C22.9075 47.6563 27.3587 49.5 32 49.5C36.6413 49.5 41.0925 47.6563 44.3744 44.3744C47.6563 41.0925 49.5 36.6413 49.5 32C49.5 27.3587 47.6563 22.9075 44.3744 19.6256C41.0925 16.3437 36.6413 14.5 32 14.5ZM32 23.8333C34.1659 23.8333 36.2432 24.6937 37.7747 26.2253C39.3063 27.7568 40.1667 29.8341 40.1667 32C40.1667 34.1659 39.3063 36.2432 37.7747 37.7747C36.2432 39.3063 34.1659 40.1667 32 40.1667C29.8341 40.1667 27.7568 39.3063 26.2253 37.7747C24.6937 36.2432 23.8333 34.1659 23.8333 32C23.8333 29.8341 24.6937 27.7568 26.2253 26.2253C27.7568 24.6937 29.8341 23.8333 32 23.8333Z" fill="url(#paint2_linear_4_2299)"/>
<path d="M31.999 16.833C31.3802 16.833 30.7867 17.0788 30.3491 17.5164C29.9115 17.954 29.6657 18.5475 29.6657 19.1663C29.6657 19.4727 29.7261 19.7761 29.8433 20.0592C29.9606 20.3423 30.1324 20.5995 30.3491 20.8162C30.5658 21.0329 30.823 21.2047 31.1061 21.322C31.3892 21.4393 31.6926 21.4996 31.999 21.4996C32.3054 21.4996 32.6088 21.4393 32.8919 21.322C33.175 21.2047 33.4322 21.0329 33.6489 20.8162C33.8656 20.5995 34.0374 20.3423 34.1547 20.0592C34.272 19.7761 34.3323 19.4727 34.3323 19.1663C34.3323 18.8599 34.272 18.5565 34.1547 18.2734C34.0374 17.9903 33.8656 17.7331 33.6489 17.5164C33.4322 17.2997 33.175 17.1279 32.8919 17.0106C32.6088 16.8934 32.3054 16.833 31.999 16.833ZM25.5823 18.5534C24.9635 18.5534 24.37 18.7992 23.9324 19.2368C23.4948 19.6744 23.249 20.2679 23.249 20.8867C23.249 21.5055 23.4948 22.099 23.9324 22.5366C24.37 22.9742 24.9635 23.22 25.5823 23.22C26.2011 23.22 26.7946 22.9742 27.2322 22.5366C27.6698 22.099 27.9156 21.5055 27.9156 20.8867C27.9156 20.2679 27.6698 19.6744 27.2322 19.2368C26.7946 18.7992 26.2011 18.5534 25.5823 18.5534ZM38.4153 18.5534C37.7965 18.5534 37.203 18.7992 36.7654 19.2368C36.3278 19.6744 36.082 20.2679 36.082 20.8867C36.082 21.5055 36.3278 22.099 36.7654 22.5366C37.203 22.9742 37.7965 23.22 38.4153 23.22C39.0341 23.22 39.6276 22.9742 40.0652 22.5366C40.5028 22.099 40.7486 21.5055 40.7486 20.8867C40.7486 20.2679 40.5028 19.6744 40.0652 19.2368C39.6276 18.7992 39.0341 18.5534 38.4153 18.5534ZM20.8863 23.2497C20.2675 23.2497 19.674 23.4955 19.2364 23.9331C18.7988 24.3707 18.553 24.9642 18.553 25.583C18.553 26.2018 18.7988 26.7953 19.2364 27.2329C19.674 27.6705 20.2675 27.9163 20.8863 27.9163C21.5051 27.9163 22.0986 27.6705 22.5362 27.2329C22.9738 26.7953 23.2196 26.2018 23.2196 25.583C23.2196 24.9642 22.9738 24.3707 22.5362 23.9331C22.0986 23.4955 21.5051 23.2497 20.8863 23.2497ZM43.1123 23.2497C42.4935 23.2497 41.9 23.4955 41.4624 23.9331C41.0248 24.3707 40.779 24.9642 40.779 25.583C40.779 26.2018 41.0248 26.7953 41.4624 27.2329C41.9 27.6705 42.4935 27.9163 43.1123 27.9163C43.7311 27.9163 44.3246 27.6705 44.7622 27.2329C45.1998 26.7953 45.4456 26.2018 45.4456 25.583C45.4456 24.9642 45.1998 24.3707 44.7622 23.9331C44.3246 23.4955 43.7311 23.2497 43.1123 23.2497ZM19.1663 29.6664C18.5475 29.6664 17.954 29.9122 17.5164 30.3498C17.0788 30.7874 16.833 31.3809 16.833 31.9997C16.833 32.6185 17.0788 33.212 17.5164 33.6496C17.954 34.0872 18.5475 34.333 19.1663 34.333C19.4727 34.333 19.7761 34.2727 20.0592 34.1554C20.3423 34.0381 20.5995 33.8663 20.8162 33.6496C21.0329 33.4329 21.2047 33.1757 21.322 32.8926C21.4393 32.6095 21.4996 32.3061 21.4996 31.9997C21.4996 31.3809 21.2538 30.7874 20.8162 30.3498C20.3786 29.9122 19.7851 29.6664 19.1663 29.6664ZM44.8333 29.6664C44.5269 29.6664 44.2235 29.7268 43.9404 29.844C43.6573 29.9613 43.4001 30.1331 43.1834 30.3498C42.9667 30.5665 42.7949 30.8237 42.6776 31.1068C42.5604 31.3899 42.5 31.6933 42.5 31.9997C42.5 32.3061 42.5604 32.6095 42.6776 32.8926C42.7949 33.1757 42.9667 33.4329 43.1834 33.6496C43.4001 33.8663 43.6573 34.0381 43.9404 34.1554C44.2235 34.2727 44.5269 34.333 44.8333 34.333C45.1397 34.333 45.4431 34.2727 45.7262 34.1554C46.0093 34.0381 46.2665 33.8663 46.4832 33.6496C46.6999 33.4329 46.8717 33.1757 46.989 32.8926C47.1063 32.6095 47.1666 32.3061 47.1666 31.9997C47.1666 31.3809 46.9208 30.7874 46.4832 30.3498C46.0456 29.9122 45.4521 29.6664 44.8333 29.6664ZM20.8873 36.0831C20.2685 36.0831 19.675 36.3289 19.2374 36.7665C18.7998 37.2041 18.554 37.7976 18.554 38.4164C18.554 38.7228 18.6144 39.0262 18.7316 39.3093C18.8489 39.5924 19.0207 39.8496 19.2374 40.0663C19.4541 40.283 19.7113 40.4548 19.9944 40.5721C20.2775 40.6894 20.5809 40.7497 20.8873 40.7497C21.1937 40.7497 21.4971 40.6894 21.7802 40.5721C22.0633 40.4548 22.3205 40.283 22.5372 40.0663C22.7539 39.8496 22.9257 39.5924 23.043 39.3093C23.1603 39.0262 23.2206 38.7228 23.2206 38.4164C23.2206 37.7976 22.9748 37.2041 22.5372 36.7665C22.0996 36.3289 21.5061 36.0831 20.8873 36.0831ZM43.1133 36.0831C42.4945 36.0831 41.901 36.3289 41.4634 36.7665C41.0258 37.2041 40.78 37.7976 40.78 38.4164C40.78 38.7228 40.8404 39.0262 40.9576 39.3093C41.0749 39.5924 41.2467 39.8496 41.4634 40.0663C41.6801 40.283 41.9373 40.4548 42.2204 40.5721C42.5035 40.6894 42.8069 40.7497 43.1133 40.7497C43.4197 40.7497 43.7231 40.6894 44.0062 40.5721C44.2893 40.4548 44.5465 40.283 44.7632 40.0663C44.9799 39.8496 45.1517 39.5924 45.269 39.3093C45.3863 39.0262 45.4466 38.7228 45.4466 38.4164C45.4466 37.7976 45.2008 37.2041 44.7632 36.7665C44.3256 36.3289 43.7321 36.0831 43.1133 36.0831ZM25.5843 40.7794C24.9655 40.7794 24.372 41.0252 23.9344 41.4628C23.4968 41.9004 23.251 42.4939 23.251 43.1127C23.251 43.7315 23.4968 44.325 23.9344 44.7626C24.372 45.2002 24.9655 45.446 25.5843 45.446C26.2031 45.446 26.7966 45.2002 27.2342 44.7626C27.6718 44.325 27.9176 43.7315 27.9176 43.1127C27.9176 42.4939 27.6718 41.9004 27.2342 41.4628C26.7966 41.0252 26.2031 40.7794 25.5843 40.7794ZM38.4173 40.7794C37.7985 40.7794 37.205 41.0252 36.7674 41.4628C36.3298 41.9004 36.084 42.4939 36.084 43.1127C36.084 43.7315 36.3298 44.325 36.7674 44.7626C37.205 45.2002 37.7985 45.446 38.4173 45.446C39.0361 45.446 39.6296 45.2002 40.0672 44.7626C40.5048 44.325 40.7506 43.7315 40.7506 43.1127C40.7506 42.4939 40.5048 41.9004 40.0672 41.4628C39.6296 41.0252 39.0361 40.7794 38.4173 40.7794ZM32.0006 42.4998C31.3818 42.4998 30.7883 42.7456 30.3507 43.1832C29.9131 43.6208 29.6673 44.2143 29.6673 44.8331C29.6673 45.4519 29.9131 46.0454 30.3507 46.483C30.7883 46.9206 31.3818 47.1664 32.0006 47.1664C32.307 47.1664 32.6104 47.1061 32.8935 46.9888C33.1766 46.8715 33.4338 46.6997 33.6505 46.483C33.8672 46.2663 34.039 46.0091 34.1563 45.726C34.2736 45.4429 34.3339 45.1395 34.3339 44.8331C34.3339 44.5267 34.2736 44.2233 34.1563 43.9402C34.039 43.6571 33.8672 43.3999 33.6505 43.1832C33.4338 42.9665 33.1766 42.7947 32.8935 42.6774C32.6104 42.5602 32.307 42.4998 32.0006 42.4998Z" fill="#232323"/>
<defs>
<filter id="filter0_f_4_2299" x="3.26152" y="3.26107" width="57.475" height="57.475" filterUnits="userSpaceOnUse" color-interpolation-filters="sRGB">
<feFlood flood-opacity="0" result="BackgroundImageFix"/>
<feBlend mode="normal" in="SourceGraphic" in2="BackgroundImageFix" result="shape"/>
<feGaussianBlur stdDeviation="0.61875" result="effect1_foregroundBlur_4_2299"/>
</filter>
<linearGradient id="paint0_linear_4_2299" x1="4.49902" y1="31.9986" x2="59.499" y2="31.9986" gradientUnits="userSpaceOnUse">
<stop stop-color="#FDFC47"/>
<stop offset="1" stop-color="#24FE41"/>
</linearGradient>
<linearGradient id="paint1_linear_4_2299" x1="4.5" y1="32.0001" x2="59.501" y2="32.0001" gradientUnits="userSpaceOnUse">
<stop stop-color="#FDFC47"/>
<stop offset="1" stop-color="#24FE41"/>
</linearGradient>
<linearGradient id="paint2_linear_4_2299" x1="14.5" y1="32" x2="49.5" y2="32" gradientUnits="userSpaceOnUse">
<stop stop-color="#FDFC47"/>
<stop offset="1" stop-color="#24FE41"/>
</linearGradient>
</defs>
</svg>
