<svg width="64" height="64" viewBox="0 0 64 64" fill="none" xmlns="http://www.w3.org/2000/svg">
<g clip-path="url(#clip0_4_2236)">
<g opacity="0.3" filter="url(#filter0_f_4_2236)">
<path d="M44.5003 4.49982H19.5001C11.2158 4.49982 4.5 11.2156 4.5 19.4999V44.5001C4.5 52.7844 11.2158 59.5002 19.5001 59.5002H44.5003C52.7846 59.5002 59.5004 52.7844 59.5004 44.5001V19.4999C59.5004 11.2156 52.7846 4.49982 44.5003 4.49982Z" fill="url(#paint0_linear_4_2236)"/>
</g>
<path d="M19.5001 4.9996H44.5007C52.5089 4.9996 59.0008 11.4915 59.0008 19.4997V44.5003C59.0008 52.5085 52.5089 59.0004 44.5007 59.0004H19.5001C11.4919 59.0004 5 52.5085 5 44.5003V19.4997C5 11.4915 11.4919 4.9996 19.5001 4.9996Z" fill="#232323" stroke="url(#paint1_linear_4_2236)"/>
<g opacity="0.5" filter="url(#filter1_f_4_2236)">
<path d="M44.0002 15.0001H20C17.2386 15.0001 15 17.2387 15 20.0001V44.0003C15 46.7617 17.2386 49.0003 20 49.0003H44.0002C46.7616 49.0003 49.0002 46.7617 49.0002 44.0003V20.0001C49.0002 17.2387 46.7616 15.0001 44.0002 15.0001Z" fill="url(#paint2_linear_4_2236)"/>
</g>
<path opacity="0.5" d="M44.0001 15.0001H20C17.2386 15.0001 15 17.2387 15 20.0001V44.0002C15 46.7617 17.2386 49.0003 20 49.0003H44.0001C46.7616 49.0003 49.0002 46.7617 49.0002 44.0002V20.0001C49.0002 17.2387 46.7616 15.0001 44.0001 15.0001Z" fill="url(#paint3_linear_4_2236)"/>
<path d="M19 41.6512H30.7391V43.999H19V41.6512Z" fill="#232323"/>
<path d="M21.3477 20.5202V33.4332H23.6955V28.7374L25.5733 28.7351L28.3911 33.4331H30.7389L27.8042 28.5404C29.615 28.1119 30.7389 26.9242 30.7389 24.6864V24.629C30.7389 22.0149 29.4642 20.5202 26.426 20.5202L21.3477 20.5202ZM31.9128 20.5202V33.4332H35.4345L37.2596 33.4128C39.5328 33.3857 42.4781 31.1059 42.4781 27.0067V26.9469C42.4781 22.8876 40.0283 20.5201 36.9912 20.5201L31.9128 20.5202ZM23.6955 22.868H26.0434C27.4564 22.868 28.3912 23.3273 28.3912 24.5991V24.6587C28.3912 25.7185 27.4564 26.3911 26.0434 26.3897L23.6955 26.3897V22.868ZM34.2607 22.8681H36.6085C38.0219 22.8681 40.1302 24.0615 40.1302 26.947V27.0066C40.1302 29.9318 38.0215 31.0856 36.6085 31.0856H34.2607V22.8681Z" fill="url(#paint4_linear_4_2236)"/>
</g>
<defs>
<filter id="filter0_f_4_2236" x="3.26249" y="3.26231" width="57.475" height="57.4754" filterUnits="userSpaceOnUse" color-interpolation-filters="sRGB">
<feFlood flood-opacity="0" result="BackgroundImageFix"/>
<feBlend mode="normal" in="SourceGraphic" in2="BackgroundImageFix" result="shape"/>
<feGaussianBlur stdDeviation="0.618754" result="effect1_foregroundBlur_4_2236"/>
</filter>
<filter id="filter1_f_4_2236" x="13.3" y="13.3001" width="37.4" height="37.4003" filterUnits="userSpaceOnUse" color-interpolation-filters="sRGB">
<feFlood flood-opacity="0" result="BackgroundImageFix"/>
<feBlend mode="normal" in="SourceGraphic" in2="BackgroundImageFix" result="shape"/>
<feGaussianBlur stdDeviation="0.850006" result="effect1_foregroundBlur_4_2236"/>
</filter>
<linearGradient id="paint0_linear_4_2236" x1="4.5" y1="32" x2="59.5004" y2="32" gradientUnits="userSpaceOnUse">
<stop stop-color="#FDFC47"/>
<stop offset="1" stop-color="#24FE41"/>
</linearGradient>
<linearGradient id="paint1_linear_4_2236" x1="4.5" y1="32" x2="59.5008" y2="32" gradientUnits="userSpaceOnUse">
<stop stop-color="#FDFC47"/>
<stop offset="1" stop-color="#24FE41"/>
</linearGradient>
<linearGradient id="paint2_linear_4_2236" x1="15" y1="32.0002" x2="49.0002" y2="32.0002" gradientUnits="userSpaceOnUse">
<stop stop-color="#FDFC47"/>
<stop offset="1" stop-color="#24FE41"/>
</linearGradient>
<linearGradient id="paint3_linear_4_2236" x1="15" y1="32.0002" x2="49.0002" y2="32.0002" gradientUnits="userSpaceOnUse">
<stop stop-color="#FDFC47"/>
<stop offset="1" stop-color="#24FE41"/>
</linearGradient>
<linearGradient id="paint4_linear_4_2236" x1="21.3477" y1="26.9766" x2="42.4781" y2="26.9766" gradientUnits="userSpaceOnUse">
<stop stop-color="#FDFC47"/>
<stop offset="1" stop-color="#24FE41"/>
</linearGradient>
<clipPath id="clip0_4_2236">
<rect width="64" height="64" fill="white"/>
</clipPath>
</defs>
</svg>
