<svg width="64" height="64" viewBox="0 0 64 64" fill="none" xmlns="http://www.w3.org/2000/svg">
<g opacity="0.3" filter="url(#filter0_f_4_2121)">
<path d="M44.5 4.5H19.5C11.2157 4.5 4.5 11.2157 4.5 19.5V44.5C4.5 52.7843 11.2157 59.5 19.5 59.5H44.5C52.7843 59.5 59.5 52.7843 59.5 44.5V19.5C59.5 11.2157 52.7843 4.5 44.5 4.5Z" fill="url(#paint0_linear_4_2121)"/>
</g>
<path d="M19.5 5H44.5C52.5081 5 59 11.4919 59 19.5V44.5C59 52.5081 52.5081 59 44.5 59H19.5C11.4919 59 5 52.5081 5 44.5V19.5C5 11.4919 11.4919 5 19.5 5Z" fill="#232323" stroke="url(#paint1_linear_4_2121)"/>
<path d="M46.7384 14.5H17.2616C16.3572 14.5 15.624 15.2332 15.624 16.1376V47.8624C15.624 48.7668 16.3572 49.5 17.2616 49.5H46.7384C47.6428 49.5 48.376 48.7668 48.376 47.8624V16.1376C48.376 15.2332 47.6428 14.5 46.7384 14.5Z" fill="url(#paint2_linear_4_2121)"/>
<path d="M48.376 37.384H15.624V38.7302H48.376V37.384Z" fill="#232323"/>
<path d="M48.376 25.269H15.624V26.6152H48.376V25.269Z" fill="#232323"/>
<path d="M20.6392 45.4612C21.3827 45.4612 21.9854 44.8585 21.9854 44.115C21.9854 43.3715 21.3827 42.7688 20.6392 42.7688C19.8957 42.7688 19.293 43.3715 19.293 44.115C19.293 44.8585 19.8957 45.4612 20.6392 45.4612Z" fill="#16F434"/>
<path d="M26.0239 45.4612C26.7674 45.4612 27.3701 44.8585 27.3701 44.115C27.3701 43.3715 26.7674 42.7688 26.0239 42.7688C25.2805 42.7688 24.6777 43.3715 24.6777 44.115C24.6777 44.8585 25.2805 45.4612 26.0239 45.4612Z" fill="#16F434"/>
<path d="M31.4077 45.4612C32.1512 45.4612 32.7539 44.8585 32.7539 44.115C32.7539 43.3715 32.1512 42.7688 31.4077 42.7688C30.6642 42.7688 30.0615 43.3715 30.0615 44.115C30.0615 44.8585 30.6642 45.4612 31.4077 45.4612Z" fill="#16F434"/>
<path d="M20.6392 33.3462C21.3827 33.3462 21.9854 32.7435 21.9854 32C21.9854 31.2565 21.3827 30.6538 20.6392 30.6538C19.8957 30.6538 19.293 31.2565 19.293 32C19.293 32.7435 19.8957 33.3462 20.6392 33.3462Z" fill="#16F434"/>
<path d="M26.0239 33.3462C26.7674 33.3462 27.3701 32.7435 27.3701 32C27.3701 31.2565 26.7674 30.6538 26.0239 30.6538C25.2805 30.6538 24.6777 31.2565 24.6777 32C24.6777 32.7435 25.2805 33.3462 26.0239 33.3462Z" fill="#16F434"/>
<path d="M20.6392 21.2302C21.3827 21.2302 21.9854 20.6275 21.9854 19.884C21.9854 19.1405 21.3827 18.5378 20.6392 18.5378C19.8957 18.5378 19.293 19.1405 19.293 19.884C19.293 20.6275 19.8957 21.2302 20.6392 21.2302Z" fill="#16F434"/>
<defs>
<filter id="filter0_f_4_2121" x="3.2625" y="3.2625" width="57.475" height="57.475" filterUnits="userSpaceOnUse" color-interpolation-filters="sRGB">
<feFlood flood-opacity="0" result="BackgroundImageFix"/>
<feBlend mode="normal" in="SourceGraphic" in2="BackgroundImageFix" result="shape"/>
<feGaussianBlur stdDeviation="0.61875" result="effect1_foregroundBlur_4_2121"/>
</filter>
<linearGradient id="paint0_linear_4_2121" x1="4.5" y1="32" x2="59.5" y2="32" gradientUnits="userSpaceOnUse">
<stop stop-color="#FDFC47"/>
<stop offset="1" stop-color="#24FE41"/>
</linearGradient>
<linearGradient id="paint1_linear_4_2121" x1="4.5" y1="32" x2="59.5" y2="32" gradientUnits="userSpaceOnUse">
<stop stop-color="#FDFC47"/>
<stop offset="1" stop-color="#24FE41"/>
</linearGradient>
<linearGradient id="paint2_linear_4_2121" x1="15.624" y1="32" x2="48.376" y2="32" gradientUnits="userSpaceOnUse">
<stop stop-color="#FDFC47"/>
<stop offset="1" stop-color="#24FE41"/>
</linearGradient>
</defs>
</svg>
