<svg width="64" height="64" viewBox="0 0 64 64" fill="none" xmlns="http://www.w3.org/2000/svg">
<g opacity="0.3" filter="url(#filter0_f_4_2049)">
<path d="M44.5 4.5H19.5C11.2157 4.5 4.5 11.2157 4.5 19.5V44.5C4.5 52.7843 11.2157 59.5 19.5 59.5H44.5C52.7843 59.5 59.5 52.7843 59.5 44.5V19.5C59.5 11.2157 52.7843 4.5 44.5 4.5Z" fill="url(#paint0_linear_4_2049)"/>
</g>
<path d="M19.5 5H44.5C52.5081 5 59 11.4919 59 19.5V44.5C59 52.5081 52.5081 59 44.5 59H19.5C11.4919 59 5 52.5081 5 44.5V19.5C5 11.4919 11.4919 5 19.5 5Z" fill="#232323" stroke="url(#paint1_linear_4_2049)"/>
<g opacity="0.15" filter="url(#filter1_f_4_2049)">
<path d="M27.4748 17.652C26.8487 17.652 26.237 17.8555 25.6409 18.2637C25.0448 18.672 24.6417 19.1703 24.4135 19.7259L23.5161 22.8642H19.5639C18.3156 22.8642 17.2656 23.3077 16.3839 24.1685C15.4969 25.0346 15.0391 26.0898 15.0391 27.3068V41.9398C15.0391 43.1581 15.4982 44.1768 16.3839 45.0376C17.2656 45.8985 18.3143 46.3367 19.5639 46.3367H44.4249C45.6732 46.3367 46.7636 45.8932 47.6453 45.0376C48.527 44.1715 48.9496 43.1528 48.9496 41.9398V27.3068C48.9496 26.0885 48.527 25.0346 47.6453 24.1685C46.7636 23.3024 45.6731 22.8642 44.4249 22.8642H40.4727L39.5753 19.7259C39.3561 19.1651 38.9492 18.6707 38.3518 18.2585C37.7557 17.8503 37.1388 17.6468 36.5179 17.6468M31.4179 25.4729C35.7027 25.1572 39.8244 29.0038 39.8153 33.2938C39.8153 37.396 36.0862 41.1199 31.9944 41.1199C27.8922 41.1199 24.1683 37.3908 24.1683 33.2938C24.1578 29.3808 27.5205 25.7534 31.4244 25.4729" fill="url(#paint2_linear_4_2049)"/>
</g>
<mask id="path-4-inside-1_4_2049" fill="white">
<path d="M27.4748 17.652C26.8487 17.652 26.237 17.8555 25.6409 18.2637C25.0448 18.672 24.6417 19.1703 24.4135 19.7259L23.5161 22.8642H19.5639C18.3156 22.8642 17.2656 23.3077 16.3839 24.1685C15.4969 25.0346 15.0391 26.0898 15.0391 27.3068V41.9398C15.0391 43.1581 15.4982 44.1768 16.3839 45.0376C17.2656 45.8985 18.3143 46.3367 19.5639 46.3367H44.4249C45.6732 46.3367 46.7636 45.8932 47.6453 45.0376C48.527 44.1715 48.9496 43.1528 48.9496 41.9398V27.3068C48.9496 26.0885 48.527 25.0346 47.6453 24.1685C46.7636 23.3024 45.6731 22.8642 44.4249 22.8642H40.4727L39.5753 19.7259C39.3561 19.1651 38.9492 18.6707 38.3518 18.2585C37.7557 17.8503 37.1388 17.6468 36.5179 17.6468M31.4179 25.4729C35.7027 25.1572 39.8244 29.0038 39.8153 33.2938C39.8153 37.396 36.0862 41.1199 31.9944 41.1199C27.8922 41.1199 24.1683 37.3908 24.1683 33.2938C24.1578 29.3808 27.5205 25.7534 31.4244 25.4729"/>
</mask>
<path d="M27.4748 17.652C26.8487 17.652 26.237 17.8555 25.6409 18.2637C25.0448 18.672 24.6417 19.1703 24.4135 19.7259L23.5161 22.8642H19.5639C18.3156 22.8642 17.2656 23.3077 16.3839 24.1685C15.4969 25.0346 15.0391 26.0898 15.0391 27.3068V41.9398C15.0391 43.1581 15.4982 44.1768 16.3839 45.0376C17.2656 45.8985 18.3143 46.3367 19.5639 46.3367H44.4249C45.6732 46.3367 46.7636 45.8932 47.6453 45.0376C48.527 44.1715 48.9496 43.1528 48.9496 41.9398V27.3068C48.9496 26.0885 48.527 25.0346 47.6453 24.1685C46.7636 23.3024 45.6731 22.8642 44.4249 22.8642H40.4727L39.5753 19.7259C39.3561 19.1651 38.9492 18.6707 38.3518 18.2585C37.7557 17.8503 37.1388 17.6468 36.5179 17.6468M31.4179 25.4729C35.7027 25.1572 39.8244 29.0038 39.8153 33.2938C39.8153 37.396 36.0862 41.1199 31.9944 41.1199C27.8922 41.1199 24.1683 37.3908 24.1683 33.2938C24.1578 29.3808 27.5205 25.7534 31.4244 25.4729" fill="#232323"/>
<path d="M24.4135 19.7259L22.5635 18.966L22.5211 19.069L22.4905 19.1761L24.4135 19.7259ZM23.5161 22.8642V24.8642H25.0243L25.439 23.4141L23.5161 22.8642ZM16.3839 24.1685L14.9867 22.7375L14.9866 22.7376L16.3839 24.1685ZM16.3839 45.0376L17.781 43.6066L17.7778 43.6034L16.3839 45.0376ZM47.6453 45.0376L49.0381 46.4729L49.0468 46.4644L47.6453 45.0376ZM40.4727 22.8642L38.5497 23.4141L38.9644 24.8642H40.4727V22.8642ZM39.5753 19.7259L41.4982 19.1761L41.4724 19.0857L41.4381 18.9981L39.5753 19.7259ZM38.3518 18.2585L39.4876 16.6123L39.4819 16.6084L38.3518 18.2585ZM39.8153 33.2938L37.8153 33.2895V33.2938H39.8153ZM24.1683 33.2938H26.1683L26.1683 33.2885L24.1683 33.2938ZM27.4748 15.652C26.3874 15.652 25.3884 16.0125 24.5107 16.6136L26.771 19.9138C27.0855 19.6984 27.31 19.652 27.4748 19.652V15.652ZM24.5107 16.6136C23.6253 17.2201 22.954 18.0153 22.5635 18.966L26.2634 20.4859C26.3294 20.3252 26.4642 20.1239 26.771 19.9138L24.5107 16.6136ZM22.4905 19.1761L21.5931 22.3144L25.439 23.4141L26.3364 20.2758L22.4905 19.1761ZM23.5161 20.8642H19.5639V24.8642H23.5161V20.8642ZM19.5639 20.8642C17.7788 20.8642 16.2314 21.5222 14.9867 22.7375L17.781 25.5996C18.2997 25.0932 18.8523 24.8642 19.5639 24.8642V20.8642ZM14.9866 22.7376C13.7295 23.9651 13.0391 25.5301 13.0391 27.3068H17.0391C17.0391 26.6495 17.2643 26.1042 17.7811 25.5995L14.9866 22.7376ZM13.0391 27.3068V41.9398H17.0391V27.3068H13.0391ZM13.0391 41.9398C13.0391 43.736 13.7446 45.2615 14.9899 46.4718L17.7778 43.6034C17.2518 43.0922 17.0391 42.5802 17.0391 41.9398H13.0391ZM14.9867 46.4687C16.2356 47.688 17.7832 48.3367 19.5639 48.3367V44.3367C18.8453 44.3367 18.2956 44.109 17.781 43.6066L14.9867 46.4687ZM19.5639 48.3367H44.4249V44.3367H19.5639V48.3367ZM44.4249 48.3367C46.1902 48.3367 47.781 47.6928 49.0381 46.4729L46.2524 43.6023C45.7461 44.0937 45.1561 44.3367 44.4249 44.3367V48.3367ZM49.0468 46.4644C50.3113 45.2224 50.9496 43.6895 50.9496 41.9398H46.9496C46.9496 42.6161 46.7427 43.1207 46.2438 43.6108L49.0468 46.4644ZM50.9496 41.9398V27.3068H46.9496V41.9398H50.9496ZM50.9496 27.3068C50.9496 25.5706 50.3244 23.9968 49.0468 22.7418L46.2437 25.5953C46.7295 26.0725 46.9496 26.6065 46.9496 27.3068H50.9496ZM49.0468 22.7418C47.7827 21.5 46.1854 20.8642 44.4249 20.8642V24.8642C45.1607 24.8642 45.7444 25.1048 46.2437 25.5953L49.0468 22.7418ZM44.4249 20.8642H40.4727V24.8642H44.4249V20.8642ZM42.3956 22.3144L41.4982 19.1761L37.6523 20.2758L38.5497 23.4141L42.3956 22.3144ZM41.4381 18.9981C41.0505 18.006 40.3568 17.2121 39.4876 16.6124L37.2159 19.9047C37.5415 20.1293 37.6617 20.3241 37.7124 20.4537L41.4381 18.9981ZM39.4819 16.6084C38.6027 16.0063 37.5984 15.6468 36.5179 15.6468V19.6468C36.6791 19.6468 36.9087 19.6943 37.2216 19.9086L39.4819 16.6084ZM31.5648 27.4675C33.0637 27.3571 34.6365 27.9761 35.8632 29.1193C37.0901 30.2627 37.8185 31.7886 37.8153 33.2895L41.8153 33.298C41.8212 30.5089 40.4933 27.9666 38.5904 26.1931C36.6873 24.4195 34.0568 23.2731 31.2709 23.4783L31.5648 27.4675ZM37.8153 33.2938C37.8153 36.2914 34.9816 39.1199 31.9944 39.1199V43.1199C37.1907 43.1199 41.8153 38.5006 41.8153 33.2938H37.8153ZM31.9944 39.1199C28.9976 39.1199 26.1683 36.2871 26.1683 33.2938H22.1683C22.1683 38.4945 26.7868 43.1199 31.9944 43.1199V39.1199ZM26.1683 33.2885C26.1606 30.4251 28.7135 27.6728 31.5677 27.4677L31.281 23.478C26.3275 23.834 22.155 28.3365 22.1683 33.2991L26.1683 33.2885Z" fill="url(#paint3_linear_4_2049)" mask="url(#path-4-inside-1_4_2049)"/>
<g opacity="0.15" filter="url(#filter2_f_4_2049)">
<path d="M37.217 33.33C37.217 36.2139 34.8783 38.5474 31.9996 38.5474C29.1157 38.5474 26.7822 36.2139 26.7822 33.33C26.7822 30.4461 29.1157 28.1126 31.9996 28.1126C34.8783 28.1126 37.217 30.4461 37.217 33.33Z" fill="url(#paint4_linear_4_2049)"/>
</g>
<path d="M37.217 33.33C37.217 36.2139 34.8783 38.5474 31.9996 38.5474C29.1157 38.5474 26.7822 36.2139 26.7822 33.33C26.7822 30.4461 29.1157 28.1126 31.9996 28.1126C34.8783 28.1126 37.217 30.4461 37.217 33.33Z" fill="url(#paint5_linear_4_2049)"/>
<defs>
<filter id="filter0_f_4_2049" x="3.2625" y="3.2625" width="57.475" height="57.475" filterUnits="userSpaceOnUse" color-interpolation-filters="sRGB">
<feFlood flood-opacity="0" result="BackgroundImageFix"/>
<feBlend mode="normal" in="SourceGraphic" in2="BackgroundImageFix" result="shape"/>
<feGaussianBlur stdDeviation="0.61875" result="effect1_foregroundBlur_4_2049"/>
</filter>
<filter id="filter1_f_4_2049" x="12.222" y="14.8298" width="39.5442" height="34.324" filterUnits="userSpaceOnUse" color-interpolation-filters="sRGB">
<feFlood flood-opacity="0" result="BackgroundImageFix"/>
<feBlend mode="normal" in="SourceGraphic" in2="BackgroundImageFix" result="shape"/>
<feGaussianBlur stdDeviation="1.40851" result="effect1_foregroundBlur_4_2049"/>
</filter>
<filter id="filter2_f_4_2049" x="26.2605" y="27.5909" width="11.478" height="11.4783" filterUnits="userSpaceOnUse" color-interpolation-filters="sRGB">
<feFlood flood-opacity="0" result="BackgroundImageFix"/>
<feBlend mode="normal" in="SourceGraphic" in2="BackgroundImageFix" result="shape"/>
<feGaussianBlur stdDeviation="0.26087" result="effect1_foregroundBlur_4_2049"/>
</filter>
<linearGradient id="paint0_linear_4_2049" x1="4.5" y1="32" x2="59.5" y2="32" gradientUnits="userSpaceOnUse">
<stop stop-color="#FDFC47"/>
<stop offset="1" stop-color="#24FE41"/>
</linearGradient>
<linearGradient id="paint1_linear_4_2049" x1="4.5" y1="32" x2="59.5" y2="32" gradientUnits="userSpaceOnUse">
<stop stop-color="#FDFC47"/>
<stop offset="1" stop-color="#24FE41"/>
</linearGradient>
<linearGradient id="paint2_linear_4_2049" x1="15.0391" y1="31.9918" x2="48.9496" y2="31.9918" gradientUnits="userSpaceOnUse">
<stop stop-color="#FDFC47"/>
<stop offset="1" stop-color="#24FE41"/>
</linearGradient>
<linearGradient id="paint3_linear_4_2049" x1="15.0391" y1="31.9918" x2="48.9496" y2="31.9918" gradientUnits="userSpaceOnUse">
<stop stop-color="#FDFC47"/>
<stop offset="1" stop-color="#24FE41"/>
</linearGradient>
<linearGradient id="paint4_linear_4_2049" x1="26.7822" y1="33.33" x2="37.217" y2="33.33" gradientUnits="userSpaceOnUse">
<stop stop-color="#FDFC47"/>
<stop offset="1" stop-color="#24FE41"/>
</linearGradient>
<linearGradient id="paint5_linear_4_2049" x1="26.7822" y1="33.33" x2="37.217" y2="33.33" gradientUnits="userSpaceOnUse">
<stop stop-color="#FDFC47"/>
<stop offset="1" stop-color="#24FE41"/>
</linearGradient>
</defs>
</svg>
