<svg width="64" height="64" viewBox="0 0 64 64" fill="none" xmlns="http://www.w3.org/2000/svg">
<g opacity="0.3" filter="url(#filter0_f_4_2021)">
<path d="M44.5 4.5H19.5C11.2157 4.5 4.5 11.2157 4.5 19.5V44.5C4.5 52.7843 11.2157 59.5 19.5 59.5H44.5C52.7843 59.5 59.5 52.7843 59.5 44.5V19.5C59.5 11.2157 52.7843 4.5 44.5 4.5Z" fill="url(#paint0_linear_4_2021)"/>
</g>
<path d="M19.5 5H44.5C52.5081 5 59 11.4919 59 19.5V44.5C59 52.5081 52.5081 59 44.5 59H19.5C11.4919 59 5 52.5081 5 44.5V19.5C5 11.4919 11.4919 5 19.5 5Z" fill="#232323" stroke="url(#paint1_linear_4_2021)"/>
<path d="M50.7719 34.484C51.3527 35.3057 51.7951 36.1974 52.1043 37.1744C52.4118 38.1481 52.5672 39.1559 52.5672 40.1997C52.5672 41.6944 52.2649 43.0985 51.667 44.414C51.0674 45.7259 50.2423 46.8824 49.1901 47.8868C48.1379 48.881 46.913 49.6617 45.5054 50.2288C44.0978 50.7959 42.6168 51.0744 41.0417 51.0744C38.7988 51.0744 36.7866 50.5448 35.0015 49.4875C34.5061 49.5558 34.0073 49.6053 33.5034 49.6429C32.9978 49.6769 32.4973 49.6907 31.9968 49.6907C29.3764 49.6907 26.9166 49.221 24.6152 48.2848C22.3194 47.3436 20.3087 46.0658 18.5765 44.4379C16.8495 42.8168 15.488 40.9053 14.5074 38.7171C13.5183 36.5289 13.0247 34.1903 13.0247 31.7048C13.0247 31.2231 13.0486 30.7653 13.0999 30.3416C13.146 29.918 13.2092 29.4858 13.2741 29.0536C12.0442 27.3471 11.4326 25.514 11.4326 23.5479C11.4326 22.0857 11.735 20.7037 12.3346 19.4039C12.9324 18.1056 13.7524 16.9765 14.8047 16.0182C15.8569 15.0582 17.0886 14.3031 18.4877 13.7497C19.8902 13.1963 21.378 12.9264 22.9529 12.9264C24.0872 12.9264 25.1514 13.0596 26.1627 13.3312C27.174 13.6062 28.1203 13.9889 28.9932 14.4894C29.4869 14.4194 29.9925 14.3698 30.4913 14.3306C30.9969 14.2998 31.5026 14.281 31.9962 14.281C34.6251 14.281 37.0934 14.7388 39.4012 15.6493C41.7039 16.553 43.7194 17.8051 45.4516 19.3937C47.1838 20.9892 48.5486 22.8358 49.5392 24.9369C50.5266 27.0414 51.0202 29.2997 51.0202 31.7047C51.0219 32.5913 50.9399 33.5188 50.7708 34.484L50.7719 34.484ZM41.0417 39.9535C41.8514 38.8876 42.2511 37.6355 42.2511 36.1971C42.2511 35.0645 42.0256 34.1131 41.5815 33.341C41.1186 32.5723 40.466 31.9283 39.6239 31.4141C38.8501 30.9153 37.8439 30.4729 36.6123 30.0765C35.3738 29.7656 34.0602 29.4616 32.6713 29.1507L31.1493 28.8039C30.741 28.7168 30.4165 28.6433 30.1722 28.5767C29.9006 28.5101 29.6495 28.4366 29.4104 28.3495C29.1849 28.2692 28.9457 28.1753 28.7066 28.0728C28.242 27.878 27.8525 27.6132 27.5433 27.3024C27.3041 27.0342 27.1846 26.6737 27.1846 26.2262C27.1846 25.5719 27.5741 24.9877 28.3479 24.4701C29.2242 23.9866 30.2953 23.7543 31.5679 23.7697C33.0387 23.7697 34.0722 23.9866 34.6546 24.4222C35.3583 24.9381 35.9101 25.5735 36.3047 26.3235C36.648 26.8736 36.9965 27.2835 37.3569 27.5534C37.7002 27.8165 38.1768 27.9582 38.7764 27.9771C39.4511 27.9771 40.0097 27.7533 40.4795 27.3023C40.939 26.8821 41.1593 26.4089 41.1474 25.876C41.1474 25.2594 40.9731 24.6529 40.6315 24.0687C40.2932 23.5204 39.7244 22.9361 38.9404 22.3161C38.5441 22.0497 38.1085 21.8054 37.6387 21.5816C37.1672 21.3561 36.6377 21.158 36.062 20.9906C35.459 20.8266 34.8252 20.7002 34.1573 20.6148C33.4877 20.5311 32.7565 20.4918 31.9468 20.4918C29.9072 20.4918 28.187 20.7412 26.7861 21.24C25.2812 21.7593 24.1418 22.4733 23.3696 23.3992C22.5975 24.2806 22.2114 25.3397 22.2114 26.5765C22.2114 27.8782 22.5855 28.9372 23.3234 29.7538C24.0664 30.6369 25.0726 31.3049 26.3453 31.7576C27.5547 32.241 29.1007 32.6646 30.9969 33.0302C31.7058 33.1976 32.3259 33.3394 32.8742 33.447C33.414 33.5529 33.9043 33.6742 34.333 33.8057C35.141 34.0261 35.7969 34.3951 36.2974 34.9194C36.8321 35.3738 37.1002 35.958 37.1002 36.6789C37.1002 37.6748 36.6117 38.4811 35.6465 39.096C34.7343 39.7263 33.501 40.0373 31.9481 40.0151C30.7045 40.0151 29.8043 39.8716 29.2337 39.5812C28.5248 39.2583 28.0021 38.8483 27.6587 38.3598C27.2231 37.8029 26.8747 37.1845 26.5945 36.5166C26.3503 35.8828 26.0206 35.4046 25.5901 35.0817C25.1887 34.7554 24.7189 34.5931 24.1672 34.5931C23.4635 34.5931 22.8826 34.7896 22.4231 35.1756C21.9636 35.6146 21.7433 36.1289 21.7535 36.7062C21.7535 37.7123 22.1259 38.7185 22.8638 39.7263C23.5967 40.7632 24.5379 41.5729 25.6841 42.1554C27.3633 43.0232 29.4728 43.4622 32.0078 43.4793C34.0765 43.4793 35.9197 43.1719 37.5234 42.5586C39.0984 41.8599 40.2736 40.9939 41.0406 39.9535L41.0417 39.9535Z" fill="url(#paint2_linear_4_2021)"/>
<defs>
<filter id="filter0_f_4_2021" x="3.2625" y="3.2625" width="57.475" height="57.475" filterUnits="userSpaceOnUse" color-interpolation-filters="sRGB">
<feFlood flood-opacity="0" result="BackgroundImageFix"/>
<feBlend mode="normal" in="SourceGraphic" in2="BackgroundImageFix" result="shape"/>
<feGaussianBlur stdDeviation="0.61875" result="effect1_foregroundBlur_4_2021"/>
</filter>
<linearGradient id="paint0_linear_4_2021" x1="4.5" y1="32" x2="59.5" y2="32" gradientUnits="userSpaceOnUse">
<stop stop-color="#FDFC47"/>
<stop offset="1" stop-color="#24FE41"/>
</linearGradient>
<linearGradient id="paint1_linear_4_2021" x1="4.5" y1="32" x2="59.5" y2="32" gradientUnits="userSpaceOnUse">
<stop stop-color="#FDFC47"/>
<stop offset="1" stop-color="#24FE41"/>
</linearGradient>
<linearGradient id="paint2_linear_4_2021" x1="11.4326" y1="32.0004" x2="52.5672" y2="32.0004" gradientUnits="userSpaceOnUse">
<stop stop-color="#FDFC47"/>
<stop offset="1" stop-color="#24FE41"/>
</linearGradient>
</defs>
</svg>
