<svg width="64" height="64" viewBox="0 0 64 64" fill="none" xmlns="http://www.w3.org/2000/svg">
<g opacity="0.3" filter="url(#filter0_f_4_2012)">
<path d="M44.5 4.5H19.5C11.2157 4.5 4.5 11.2157 4.5 19.5V44.5C4.5 52.7843 11.2157 59.5 19.5 59.5H44.5C52.7843 59.5 59.5 52.7843 59.5 44.5V19.5C59.5 11.2157 52.7843 4.5 44.5 4.5Z" fill="url(#paint0_linear_4_2012)"/>
</g>
<path d="M19.5 5H44.5C52.5081 5 59 11.4919 59 19.5V44.5C59 52.5081 52.5081 59 44.5 59H19.5C11.4919 59 5 52.5081 5 44.5V19.5C5 11.4919 11.4919 5 19.5 5Z" fill="#232323" stroke="url(#paint1_linear_4_2012)"/>
<path d="M36.5646 15.043C35.6998 15.043 34.8703 15.3866 34.2588 15.9981C33.6473 16.6096 33.3037 17.4391 33.3037 18.3039V27.4343C33.3037 28.2991 33.6473 29.1286 34.2588 29.7401C34.8703 30.3516 35.6998 30.6952 36.5646 30.6952C37.4295 30.6952 38.2589 30.3516 38.8704 29.7401C39.482 29.1286 39.8255 28.2991 39.8255 27.4343V18.3039C39.8255 17.4391 39.482 16.6096 38.8704 15.9981C38.2589 15.3866 37.4295 15.043 36.5646 15.043ZM45.695 24.1734C44.8302 24.1734 44.0007 24.517 43.3892 25.1285C42.7777 25.74 42.4341 26.5695 42.4341 27.4343V30.6952H45.695C46.5599 30.6952 47.3893 30.3516 48.0008 29.7401C48.6124 29.1286 48.9559 28.2991 48.9559 27.4343C48.9559 26.5695 48.6124 25.74 48.0008 25.1285C47.3893 24.517 46.5599 24.1734 45.695 24.1734Z" fill="url(#paint2_linear_4_2012)"/>
<path d="M48.9569 36.565C48.9569 35.7002 48.6133 34.8707 48.0018 34.2592C47.3903 33.6477 46.5608 33.3041 45.696 33.3041H36.5656C35.7007 33.3041 34.8713 33.6477 34.2598 34.2592C33.6482 34.8707 33.3047 35.7002 33.3047 36.565C33.3047 37.4299 33.6482 38.2593 34.2598 38.8708C34.8713 39.4823 35.7007 39.8259 36.5656 39.8259H45.696C46.5608 39.8259 47.3903 39.4823 48.0018 38.8708C48.6133 38.2593 48.9569 37.4299 48.9569 36.565ZM39.8265 45.6954C39.8265 44.8306 39.4829 44.0011 38.8714 43.3896C38.2599 42.7781 37.4304 42.4345 36.5656 42.4345H33.3047V45.6954C33.3047 46.5603 33.6482 47.3897 34.2598 48.0012C34.8713 48.6128 35.7007 48.9563 36.5656 48.9563C37.4304 48.9563 38.2599 48.6128 38.8714 48.0012C39.4829 47.3897 39.8265 46.5603 39.8265 45.6954Z" fill="url(#paint3_linear_4_2012)"/>
<path d="M27.4352 48.957C28.3001 48.957 29.1295 48.6135 29.741 48.0019C30.3526 47.3904 30.6961 46.561 30.6961 45.6961V36.5657C30.6961 35.7009 30.3526 34.8714 29.741 34.2599C29.1295 33.6484 28.3001 33.3048 27.4352 33.3048C26.5704 33.3048 25.741 33.6484 25.1294 34.2599C24.5179 34.8714 24.1743 35.7009 24.1743 36.5657V45.6961C24.1743 46.561 24.5179 47.3904 25.1294 48.0019C25.741 48.6135 26.5704 48.957 27.4352 48.957ZM18.3048 39.8266C19.1697 39.8266 19.9991 39.4831 20.6107 38.8715C21.2222 38.26 21.5657 37.4306 21.5657 36.5657V33.3048H18.3048C17.44 33.3048 16.6106 33.6484 15.999 34.2599C15.3875 34.8714 15.0439 35.7009 15.0439 36.5657C15.0439 37.4306 15.3875 38.26 15.999 38.8715C16.6106 39.4831 17.44 39.8266 18.3048 39.8266Z" fill="url(#paint4_linear_4_2012)"/>
<path d="M15.043 27.435C15.043 28.2998 15.3865 29.1293 15.9981 29.7408C16.6096 30.3523 17.439 30.6959 18.3039 30.6959H27.4343C28.2991 30.6959 29.1285 30.3523 29.7401 29.7408C30.3516 29.1293 30.6952 28.2998 30.6952 27.435C30.6952 26.5702 30.3516 25.7407 29.7401 25.1292C29.1285 24.5177 28.2991 24.1741 27.4343 24.1741H18.3039C17.439 24.1741 16.6096 24.5177 15.9981 25.1292C15.3865 25.7407 15.043 26.5702 15.043 27.435ZM24.1734 18.3046C24.1734 19.1694 24.5169 19.9989 25.1285 20.6104C25.74 21.2219 26.5694 21.5655 27.4343 21.5655H30.6952V18.3046C30.6952 17.4398 30.3516 16.6103 29.7401 15.9988C29.1285 15.3873 28.2991 15.0437 27.4343 15.0437C26.5694 15.0437 25.74 15.3873 25.1285 15.9988C24.5169 16.6103 24.1734 17.4398 24.1734 18.3046Z" fill="url(#paint5_linear_4_2012)"/>
<defs>
<filter id="filter0_f_4_2012" x="3.2625" y="3.2625" width="57.475" height="57.475" filterUnits="userSpaceOnUse" color-interpolation-filters="sRGB">
<feFlood flood-opacity="0" result="BackgroundImageFix"/>
<feBlend mode="normal" in="SourceGraphic" in2="BackgroundImageFix" result="shape"/>
<feGaussianBlur stdDeviation="0.61875" result="effect1_foregroundBlur_4_2012"/>
</filter>
<linearGradient id="paint0_linear_4_2012" x1="4.5" y1="32" x2="59.5" y2="32" gradientUnits="userSpaceOnUse">
<stop stop-color="#FDFC47"/>
<stop offset="1" stop-color="#24FE41"/>
</linearGradient>
<linearGradient id="paint1_linear_4_2012" x1="4.5" y1="32" x2="59.5" y2="32" gradientUnits="userSpaceOnUse">
<stop stop-color="#FDFC47"/>
<stop offset="1" stop-color="#24FE41"/>
</linearGradient>
<linearGradient id="paint2_linear_4_2012" x1="33.3037" y1="22.8691" x2="48.9559" y2="22.8691" gradientUnits="userSpaceOnUse">
<stop stop-color="#FDFC47"/>
<stop offset="1" stop-color="#24FE41"/>
</linearGradient>
<linearGradient id="paint3_linear_4_2012" x1="33.3047" y1="41.1302" x2="48.9569" y2="41.1302" gradientUnits="userSpaceOnUse">
<stop stop-color="#FDFC47"/>
<stop offset="1" stop-color="#24FE41"/>
</linearGradient>
<linearGradient id="paint4_linear_4_2012" x1="15.0439" y1="41.1309" x2="30.6961" y2="41.1309" gradientUnits="userSpaceOnUse">
<stop stop-color="#FDFC47"/>
<stop offset="1" stop-color="#24FE41"/>
</linearGradient>
<linearGradient id="paint5_linear_4_2012" x1="15.043" y1="22.8698" x2="30.6952" y2="22.8698" gradientUnits="userSpaceOnUse">
<stop stop-color="#FDFC47"/>
<stop offset="1" stop-color="#24FE41"/>
</linearGradient>
</defs>
</svg>
