<svg width="64" height="64" viewBox="0 0 64 64" fill="none" xmlns="http://www.w3.org/2000/svg">
<g opacity="0.3" filter="url(#filter0_f_4_2000)">
<path d="M44.5 4.5H19.5C11.2157 4.5 4.5 11.2157 4.5 19.5V44.5C4.5 52.7843 11.2157 59.5 19.5 59.5H44.5C52.7843 59.5 59.5 52.7843 59.5 44.5V19.5C59.5 11.2157 52.7843 4.5 44.5 4.5Z" fill="url(#paint0_linear_4_2000)"/>
</g>
<path d="M5 17.502C5 10.5749 10.575 5 17.502 5H46.498C53.4251 5 59 10.575 59 17.502V46.498C59 53.4251 53.425 59 46.498 59H17.502C10.5749 59 5 53.425 5 46.498V17.502Z" fill="#232323" stroke="url(#paint1_linear_4_2000)"/>
<path d="M22.625 17C19.5188 17 17 19.5125 17 22.625C17 25.7312 19.5125 28.25 22.625 28.25H27.82L19.89 36.1412C17.6938 38.3374 17.6938 41.9137 19.89 44.11C22.0862 46.3063 25.6625 46.3062 27.8588 44.11L35.75 36.18V41.375C35.75 44.4812 38.2625 47 41.375 47C44.4812 47 47 44.4875 47 41.375V22.625C47 19.5188 44.4875 17 41.375 17H22.625Z" fill="url(#paint2_linear_4_2000)"/>
<defs>
<filter id="filter0_f_4_2000" x="3.2625" y="3.2625" width="57.475" height="57.475" filterUnits="userSpaceOnUse" color-interpolation-filters="sRGB">
<feFlood flood-opacity="0" result="BackgroundImageFix"/>
<feBlend mode="normal" in="SourceGraphic" in2="BackgroundImageFix" result="shape"/>
<feGaussianBlur stdDeviation="0.61875" result="effect1_foregroundBlur_4_2000"/>
</filter>
<linearGradient id="paint0_linear_4_2000" x1="4.5" y1="32" x2="59.5" y2="32" gradientUnits="userSpaceOnUse">
<stop stop-color="#FDFC47"/>
<stop offset="1" stop-color="#24FE41"/>
</linearGradient>
<linearGradient id="paint1_linear_4_2000" x1="4.5" y1="32" x2="59.5" y2="32" gradientUnits="userSpaceOnUse">
<stop stop-color="#FDFC47"/>
<stop offset="1" stop-color="#24FE41"/>
</linearGradient>
<linearGradient id="paint2_linear_4_2000" x1="17" y1="32" x2="47" y2="32" gradientUnits="userSpaceOnUse">
<stop stop-color="#FDFC47"/>
<stop offset="1" stop-color="#24FE41"/>
</linearGradient>
</defs>
</svg>
