<svg width="64" height="64" viewBox="0 0 64 64" fill="none" xmlns="http://www.w3.org/2000/svg">
<g clip-path="url(#clip0_4_1965)">
<g opacity="0.3" filter="url(#filter0_f_4_1965)">
<path d="M44.5 4.50003H19.5C11.2157 4.50003 4.5 11.2158 4.5 19.5V44.5C4.5 52.7843 11.2157 59.5 19.5 59.5H44.5C52.7843 59.5 59.5 52.7843 59.5 44.5V19.5C59.5 11.2158 52.7843 4.50003 44.5 4.50003Z" fill="url(#paint0_linear_4_1965)"/>
</g>
<path d="M19.395 5.00003H44.605C52.5551 5.00003 59 11.4449 59 19.395V44.605C59 52.5552 52.5551 59 44.605 59H19.395C11.4449 59 5 52.5552 5 44.605V19.395C5 11.4449 11.4449 5.00003 19.395 5.00003Z" fill="#232323" stroke="url(#paint1_linear_4_1965)"/>
<path d="M44.4927 10.2415C44.4995 10.4081 44.5029 10.5748 44.5029 10.7415C44.5029 14.0567 43.186 17.2361 40.8418 19.5803C38.4976 21.9245 35.3181 23.2415 32.0029 23.2415C28.6877 23.2415 25.5083 21.9245 23.1641 19.5803C20.8199 17.2361 19.5029 14.0567 19.5029 10.7415C19.5029 10.5745 19.5061 10.4076 19.5127 10.2408" stroke="url(#paint2_linear_4_1965)" stroke-width="2"/>
<path d="M22.7455 36.443C22.7025 36.0804 22.5283 35.7988 22.2229 35.5984C21.9176 35.398 21.543 35.2978 21.0992 35.2978C20.7747 35.2978 20.4908 35.3503 20.2474 35.4553C20.0065 35.5603 19.818 35.7046 19.682 35.8883C19.5484 36.072 19.4816 36.2808 19.4816 36.5146C19.4816 36.7103 19.5281 36.8785 19.6211 37.0192C19.7166 37.1576 19.8382 37.2733 19.9862 37.3664C20.1341 37.457 20.2892 37.5322 20.4514 37.5918C20.6137 37.6491 20.7628 37.6956 20.8988 37.7314L21.6432 37.9318C21.834 37.9819 22.0464 38.0511 22.2802 38.1394C22.5164 38.2277 22.7419 38.3482 22.9566 38.5009C23.1737 38.6512 23.3527 38.8444 23.4934 39.0806C23.6342 39.3168 23.7046 39.6067 23.7046 39.9503C23.7046 40.3463 23.6008 40.7042 23.3932 41.0239C23.188 41.3437 22.8874 41.5977 22.4914 41.7862C22.0977 41.9747 21.6193 42.069 21.0562 42.069C20.5313 42.069 20.0768 41.9843 19.6927 41.8149C19.311 41.6455 19.0103 41.4093 18.7908 41.1063C18.5737 40.8032 18.4509 40.4513 18.4222 40.0505H19.3384C19.3623 40.3273 19.4553 40.5563 19.6176 40.7376C19.7822 40.9166 19.9898 41.0502 20.2403 41.1385C20.4932 41.2244 20.7652 41.2673 21.0562 41.2673C21.395 41.2673 21.6992 41.2124 21.9688 41.1027C22.2385 40.9905 22.452 40.8355 22.6095 40.6374C22.7669 40.437 22.8457 40.2032 22.8457 39.936C22.8457 39.6926 22.7777 39.4946 22.6417 39.3419C22.5057 39.1892 22.3267 39.0651 22.1048 38.9697C21.883 38.8743 21.6432 38.7907 21.3855 38.7192L20.4836 38.4615C19.911 38.2969 19.4577 38.0619 19.1237 37.7565C18.7897 37.4511 18.6226 37.0514 18.6226 36.5576C18.6226 36.1472 18.7336 35.7893 18.9555 35.4839C19.1797 35.1761 19.4804 34.9375 19.8573 34.7681C20.2367 34.5964 20.6602 34.5105 21.1278 34.5105C21.6002 34.5105 22.0201 34.5952 22.3876 34.7646C22.755 34.9316 23.0461 35.1606 23.2608 35.4517C23.4779 35.7428 23.5924 36.0732 23.6044 36.443H22.7455ZM25.1639 41.9401V34.6107H26.0514V37.8746H29.9595V34.6107H30.847V41.9401H29.9595V38.6619H26.0514V41.9401H25.1639ZM38.8082 38.2754C38.8082 39.0484 38.6686 39.7165 38.3894 40.2795C38.1103 40.8426 37.7274 41.2768 37.2406 41.5822C36.7539 41.8876 36.198 42.0403 35.5729 42.0403C34.9478 42.0403 34.3919 41.8876 33.9052 41.5822C33.4184 41.2768 33.0355 40.8426 32.7564 40.2795C32.4772 39.7165 32.3376 39.0484 32.3376 38.2754C32.3376 37.5024 32.4772 36.8343 32.7564 36.2712C33.0355 35.7082 33.4184 35.2739 33.9052 34.9686C34.3919 34.6632 34.9478 34.5105 35.5729 34.5105C36.198 34.5105 36.7539 34.6632 37.2406 34.9686C37.7274 35.2739 38.1103 35.7082 38.3894 36.2712C38.6686 36.8343 38.8082 37.5024 38.8082 38.2754ZM37.9492 38.2754C37.9492 37.6408 37.8431 37.1051 37.6307 36.6685C37.4208 36.2319 37.1357 35.9014 36.7754 35.6772C36.4175 35.4529 36.0167 35.3408 35.5729 35.3408C35.1291 35.3408 34.7271 35.4529 34.3668 35.6772C34.0089 35.9014 33.7238 36.2319 33.5115 36.6685C33.3015 37.1051 33.1966 37.6408 33.1966 38.2754C33.1966 38.91 33.3015 39.4457 33.5115 39.8823C33.7238 40.3189 34.0089 40.6494 34.3668 40.8736C34.7271 41.0979 35.1291 41.21 35.5729 41.21C36.0167 41.21 36.4175 41.0979 36.7754 40.8736C37.1357 40.6494 37.4208 40.3189 37.6307 39.8823C37.8431 39.4457 37.9492 38.91 37.9492 38.2754ZM40.3005 41.9401V34.6107H42.7771C43.3521 34.6107 43.8221 34.7145 44.1872 34.922C44.5546 35.1272 44.8266 35.4052 45.0031 35.7559C45.1797 36.1066 45.268 36.4979 45.268 36.9298C45.268 37.3616 45.1797 37.7541 45.0031 38.1072C44.829 38.4603 44.5594 38.7418 44.1943 38.9518C43.8293 39.1594 43.3616 39.2632 42.7914 39.2632H41.0163V38.4758H42.7628C43.1564 38.4758 43.4726 38.4078 43.7112 38.2718C43.9498 38.1358 44.1227 37.9521 44.2301 37.7207C44.3399 37.4869 44.3947 37.2232 44.3947 36.9298C44.3947 36.6363 44.3399 36.3738 44.2301 36.1424C44.1227 35.911 43.9486 35.7297 43.7076 35.5984C43.4666 35.4648 43.1469 35.398 42.7485 35.398H41.1881V41.9401H40.3005Z" fill="url(#paint3_linear_4_1965)"/>
<path d="M63.5 48C63.5 56.5604 56.5604 63.5 48 63.5C39.4396 63.5 32.5 56.5604 32.5 48C32.5 39.4396 39.4396 32.5 48 32.5C56.5604 32.5 63.5 39.4396 63.5 48Z" fill="#232323" stroke="url(#paint4_linear_4_1965)"/>
<path opacity="0.5" d="M48.0003 54.9925C51.8627 54.9925 54.9938 51.8614 54.9938 47.999C54.9938 44.1366 51.8627 41.0055 48.0003 41.0055C44.1379 41.0055 41.0068 44.1366 41.0068 47.999C41.0068 51.8614 44.1379 54.9925 48.0003 54.9925Z" stroke="url(#paint5_linear_4_1965)" stroke-width="1.3321"/>
<path d="M47.9279 34.002C47.2663 34.0691 47.2769 34.6292 47.0628 36.0093C46.6105 36.0442 46.1605 36.1046 45.7151 36.1901C45.0947 34.7652 44.8831 34.2718 44.3284 34.4704C43.6988 34.6958 43.8505 35.2392 43.9745 36.648C43.5562 36.7936 43.1462 36.9621 42.7466 37.1528C41.8557 36.0761 41.5802 35.5892 40.9773 35.8701C40.4442 36.1185 40.6385 36.6184 41.1972 38.0621C40.8239 38.3153 40.4652 38.5894 40.1227 38.8829C38.9945 38.0808 38.6007 37.6857 38.0933 38.1115C37.6469 38.4861 37.9589 38.9179 38.853 40.1409C38.5634 40.4786 38.2929 40.8321 38.0426 41.1998C36.7345 40.7483 36.2447 40.4806 35.878 41.032C35.5595 41.5109 35.9733 41.8396 37.1398 42.7335C36.9358 43.1605 36.7573 43.5992 36.6051 44.0474C35.2505 43.8969 34.7151 43.7489 34.4807 44.3635C34.272 44.9108 34.7583 45.1344 36.151 45.7749C36.0627 46.2361 36.0014 46.7022 35.9676 47.1707C34.6334 47.353 34.0824 47.3445 34.0059 47.9941C33.9371 48.5781 34.4639 48.6738 35.9845 48.9568C36.0197 49.3854 36.0779 49.8118 36.1588 50.2343C34.8743 50.8537 34.3273 50.9987 34.456 51.6574C34.5682 52.232 35.0992 52.1646 36.6181 51.9722C36.7672 52.4018 36.9405 52.8226 37.1371 53.2328C36.0339 54.1664 35.5365 54.4419 35.8271 55.0514C36.0817 55.5852 36.5796 55.3814 38.036 54.8029L37.9008 54.5623C38.1825 54.9925 38.4914 55.4044 38.8257 55.7955C38.0458 56.9579 37.656 57.3629 38.0972 57.8613C38.4792 58.2927 38.9035 57.9766 40.0719 57.0743C40.4198 57.3753 40.7846 57.6564 41.1646 57.9159C40.6157 59.3832 40.4216 59.885 40.9603 60.1287C41.5652 60.4023 41.838 59.9127 42.7126 58.8304C43.1301 59.0322 43.5587 59.2099 43.9965 59.3625C43.7963 60.8463 43.7302 61.3737 44.2983 61.4895C44.9508 61.6224 45.1055 61.0832 45.7228 59.8257C46.1661 59.9127 46.6139 59.9748 47.064 60.0117C47.2847 61.5175 47.3639 62.0453 47.946 61.9994C48.6069 61.9473 48.6098 61.3879 48.8527 60.022C49.3199 59.9888 49.7846 59.9284 50.2446 59.8412C50.8126 61.1931 51.0267 61.676 51.5702 61.4894C52.1891 61.2769 52.0639 60.7388 51.9592 59.395C52.3764 59.2532 52.7855 59.0886 53.1846 58.902C54.1676 60.0512 54.5156 60.4534 54.9824 60.1053C55.5036 59.7165 55.227 59.2435 54.7235 58.0135C55.1178 57.7498 55.4962 57.4631 55.8566 57.1549C57.0859 58.0253 57.5217 58.3304 57.8886 57.8795C58.2997 57.3742 57.9143 56.9822 57.1224 55.9087C57.4336 55.5459 57.7229 55.1649 57.9888 54.7678C59.331 55.3246 59.8224 55.5147 60.0767 55.0019C60.3676 54.4152 59.8996 54.1216 58.8786 53.2379C59.0724 52.8299 59.2431 52.4112 59.3898 51.9839C60.87 52.1439 61.3981 52.1932 61.4985 51.6236C61.6126 50.9767 61.0791 50.8284 59.8425 50.2642C59.9282 49.8149 59.9881 49.361 60.022 48.9048C61.5213 48.6715 62.0477 48.5868 61.9967 48.0059C61.9388 47.3461 61.3806 47.3475 60.0155 47.1174C59.9799 46.6647 59.9186 46.2143 59.8321 45.7684C61.2102 45.134 61.6934 44.9082 61.4855 44.3634C61.2519 43.7513 60.7185 43.8957 59.3755 44.0459C59.2225 43.609 59.0444 43.1812 58.8422 42.7646C60.0523 41.8286 60.476 41.5007 60.1496 41.0149C59.7739 40.4558 59.2843 40.742 57.9263 41.214C57.6716 40.8429 57.3962 40.4864 57.1016 40.146C57.9886 38.8696 58.297 38.4311 57.8366 38.0633C57.3203 37.6507 56.9363 38.0524 55.8333 38.8776C55.483 38.5799 55.116 38.3024 54.7341 38.0464C55.2918 36.6183 55.4868 36.1194 54.9578 35.87C54.3565 35.5884 54.0768 36.0748 53.1824 37.1487C52.7755 36.9565 52.3581 36.7871 51.9323 36.6414C52.1326 35.1185 52.2028 34.5866 51.6279 34.4716C50.9669 34.3392 50.8215 34.8887 50.1891 36.1823C49.7499 36.0988 49.3065 36.0397 48.8609 36.0054C48.6009 34.4723 48.5143 33.9424 47.9279 34.002ZM50.8965 38.2389C51.3182 38.1811 51.9879 38.444 52.6891 38.8334C53.8577 39.4823 55.1124 40.4825 55.4469 40.9343C57.0483 42.6487 58.2168 44.7754 58.2841 48.1929C58.2966 48.8294 58.2369 49.4061 58.0876 49.8775C57.9253 50.3701 57.5964 50.8622 57.0794 51.1016C56.6508 51.2819 56.1747 51.41 55.7317 51.2057C54.3518 50.5725 52.6163 49.4785 51.2242 48.6546C50.9901 48.5159 50.8198 48.2908 50.795 48.1772C50.531 47.6761 50.5811 46.9449 50.2109 46.5173C49.6696 45.7484 49.2038 45.863 49.083 45.1097C49.0263 43.4349 49.0146 41.7412 49.0584 40.0909C49.0604 38.9458 49.884 38.2729 50.8965 38.2389ZM44.9606 38.2961C45.3113 38.2767 45.6778 38.3341 46 38.5069C46.0614 38.5398 46.1204 38.5771 46.1782 38.6188C46.5455 38.9037 46.8907 39.2552 46.9301 39.7414C47.0556 41.2545 46.9543 43.3031 46.9195 44.9202C46.9135 45.1923 46.8007 45.4516 46.7139 45.529C46.4068 46.0049 45.7458 46.3195 45.5548 46.852C45.1505 47.7009 45.4792 48.05 44.8823 48.5249C43.4508 49.3962 41.9798 50.2378 40.5205 51.0096C39.5215 51.5694 38.5311 51.1829 38.0046 50.3175C37.3183 49.4131 37.753 45.8506 38.1203 45.0294C38.8282 42.7928 40.1071 40.7305 43.0519 38.9947C43.6004 38.6714 44.1328 38.4417 44.6168 38.3403C44.7282 38.3184 44.8436 38.3026 44.9606 38.2961ZM48.0008 46.7229C48.3391 46.7231 48.6636 46.8576 48.9029 47.0969C49.1422 47.3362 49.2767 47.6607 49.2769 47.999C49.277 48.1667 49.244 48.3328 49.1799 48.4877C49.1159 48.6426 49.0219 48.7835 48.9034 48.9021C48.7849 49.0207 48.6442 49.1148 48.4893 49.1791C48.3344 49.2433 48.1684 49.2764 48.0008 49.2765C47.833 49.2766 47.6668 49.2437 47.5118 49.1795C47.3567 49.1153 47.2159 49.0212 47.0972 48.9026C46.9786 48.7839 46.8845 48.6431 46.8203 48.488C46.7561 48.333 46.7232 48.1668 46.7233 47.999C46.7234 47.8314 46.7565 47.6654 46.8207 47.5105C46.885 47.3556 46.9791 47.2149 47.0977 47.0964C47.2163 46.9779 47.3572 46.8839 47.5121 46.8199C47.667 46.7558 47.8331 46.7228 48.0008 46.7229ZM49.5488 50.377C49.6762 50.3721 49.8175 50.3956 49.995 50.4655C50.7301 50.8675 51.4636 51.2819 52.1883 51.7052C52.9129 52.1285 53.6279 52.5606 54.3269 52.9996C55.3112 53.5848 55.4714 54.636 54.9851 55.5246C54.545 56.5711 51.2435 57.9766 50.3488 58.0691C48.0579 58.5743 45.6325 58.4974 42.6566 56.8151C42.1024 56.5018 41.6361 56.1559 41.3063 55.7874C40.965 55.3968 40.7093 54.8634 40.7664 54.2966C40.8295 53.8359 40.9622 53.3613 41.3635 53.0842C42.6111 52.2189 44.4363 51.2831 45.8541 50.5046C46.0927 50.3736 46.3734 50.3419 46.4837 50.3784C47.0495 50.4064 47.6534 50.8201 48.21 50.7193C48.9131 50.6635 49.1665 50.3914 49.5488 50.377Z" fill="url(#paint6_linear_4_1965)"/>
</g>
<defs>
<filter id="filter0_f_4_1965" x="3.2625" y="3.26253" width="57.475" height="57.475" filterUnits="userSpaceOnUse" color-interpolation-filters="sRGB">
<feFlood flood-opacity="0" result="BackgroundImageFix"/>
<feBlend mode="normal" in="SourceGraphic" in2="BackgroundImageFix" result="shape"/>
<feGaussianBlur stdDeviation="0.61875" result="effect1_foregroundBlur_4_1965"/>
</filter>
<linearGradient id="paint0_linear_4_1965" x1="4.5" y1="32" x2="59.5" y2="32" gradientUnits="userSpaceOnUse">
<stop stop-color="#FDFC47"/>
<stop offset="1" stop-color="#24FE41"/>
</linearGradient>
<linearGradient id="paint1_linear_4_1965" x1="4.5" y1="32" x2="59.5" y2="32" gradientUnits="userSpaceOnUse">
<stop stop-color="#FDFC47"/>
<stop offset="1" stop-color="#24FE41"/>
</linearGradient>
<linearGradient id="paint2_linear_4_1965" x1="19.5029" y1="16.7411" x2="44.5029" y2="16.7411" gradientUnits="userSpaceOnUse">
<stop stop-color="#FDFC47"/>
<stop offset="1" stop-color="#24FE41"/>
</linearGradient>
<linearGradient id="paint3_linear_4_1965" x1="17.8496" y1="37.9401" x2="45.8496" y2="37.9401" gradientUnits="userSpaceOnUse">
<stop stop-color="#FDFC47"/>
<stop offset="1" stop-color="#24FE41"/>
</linearGradient>
<linearGradient id="paint4_linear_4_1965" x1="32" y1="48" x2="64" y2="48" gradientUnits="userSpaceOnUse">
<stop stop-color="#FDFC47"/>
<stop offset="1" stop-color="#24FE41"/>
</linearGradient>
<linearGradient id="paint5_linear_4_1965" x1="41.0068" y1="47.999" x2="54.9938" y2="47.999" gradientUnits="userSpaceOnUse">
<stop stop-color="#FDFC47"/>
<stop offset="1" stop-color="#24FE41"/>
</linearGradient>
<linearGradient id="paint6_linear_4_1965" x1="34" y1="47.9999" x2="62.0001" y2="47.9999" gradientUnits="userSpaceOnUse">
<stop stop-color="#FDFC47"/>
<stop offset="1" stop-color="#24FE41"/>
</linearGradient>
<clipPath id="clip0_4_1965">
<rect width="64" height="64" fill="white"/>
</clipPath>
</defs>
</svg>
