<svg width="64" height="64" viewBox="0 0 64 64" fill="none" xmlns="http://www.w3.org/2000/svg">
<g opacity="0.3" filter="url(#filter0_f_4_1960)">
<path d="M44.5 4.5H19.5C11.2157 4.5 4.5 11.2157 4.5 19.5V44.5C4.5 52.7843 11.2157 59.5 19.5 59.5H44.5C52.7843 59.5 59.5 52.7843 59.5 44.5V19.5C59.5 11.2157 52.7843 4.5 44.5 4.5Z" fill="url(#paint0_linear_4_1960)"/>
</g>
<path d="M19.3949 5H44.6051C52.5552 5 59 11.4448 59 19.3949V44.6051C59 52.5552 52.5552 59 44.6051 59H19.3949C11.4448 59 5 52.5552 5 44.6051V19.3949C5 11.4448 11.4448 5 19.3949 5Z" fill="#232323" stroke="url(#paint1_linear_4_1960)"/>
<path d="M44.4935 10.2416C44.5002 10.4082 44.5036 10.5749 44.5037 10.7416C44.5037 14.0567 43.1868 17.2361 40.8426 19.5803C38.4984 21.9245 35.319 23.2415 32.0038 23.2415C28.6886 23.2415 25.5092 21.9245 23.165 19.5803C20.8209 17.2361 19.5039 14.0567 19.5039 10.7416C19.5038 10.5746 19.5071 10.4077 19.5137 10.2409" stroke="url(#paint2_linear_4_1960)" stroke-width="2.00001"/>
<path d="M22.7456 36.4426C22.7027 36.0799 22.5285 35.7983 22.2231 35.5979C21.9177 35.3975 21.5431 35.2973 21.0993 35.2973C20.7748 35.2973 20.4909 35.3498 20.2475 35.4548C20.0065 35.5598 19.818 35.7041 19.682 35.8878C19.5484 36.0715 19.4816 36.2803 19.4816 36.5141C19.4816 36.7098 19.5281 36.878 19.6212 37.0188C19.7166 37.1572 19.8383 37.2729 19.9862 37.3659C20.1342 37.4566 20.2893 37.5318 20.4515 37.5914C20.6137 37.6487 20.7629 37.6952 20.8989 37.731L21.6433 37.9314C21.8342 37.9815 22.0465 38.0507 22.2803 38.139C22.5166 38.2273 22.742 38.3478 22.9568 38.5005C23.1739 38.6508 23.3528 38.844 23.4936 39.0802C23.6344 39.3165 23.7048 39.6063 23.7048 39.9499C23.7048 40.346 23.601 40.7039 23.3934 41.0236C23.1882 41.3433 22.8876 41.5974 22.4915 41.7859C22.0978 41.9744 21.6194 42.0687 21.0563 42.0687C20.5314 42.0687 20.0769 41.984 19.6928 41.8146C19.311 41.6452 19.0104 41.4089 18.7909 41.1059C18.5737 40.8029 18.4509 40.451 18.4222 40.0501H19.3385C19.3623 40.3269 19.4554 40.556 19.6176 40.7373C19.7822 40.9162 19.9898 41.0499 20.2403 41.1381C20.4933 41.224 20.7653 41.267 21.0563 41.267C21.3952 41.267 21.6994 41.2121 21.969 41.1023C22.2386 40.9902 22.4521 40.8351 22.6096 40.6371C22.7671 40.4367 22.8458 40.2028 22.8458 39.9356C22.8458 39.6922 22.7778 39.4942 22.6418 39.3415C22.5058 39.1888 22.3269 39.0647 22.105 38.9693C21.8831 38.8739 21.6433 38.7903 21.3856 38.7188L20.4837 38.4611C19.9111 38.2965 19.4577 38.0614 19.1237 37.756C18.7897 37.4506 18.6227 37.051 18.6227 36.5571C18.6227 36.1467 18.7336 35.7888 18.9555 35.4834C19.1798 35.1756 19.4804 34.937 19.8574 34.7676C20.2368 34.5958 20.6603 34.5099 21.1279 34.5099C21.6003 34.5099 22.0203 34.5946 22.3877 34.764C22.7552 34.9311 23.0462 35.1601 23.261 35.4512C23.4781 35.7423 23.5926 36.0727 23.6046 36.4426H22.7456ZM25.1641 41.9398V34.6101H26.0517V37.8741H29.9599V34.6101H30.8474V41.9398H29.9599V38.6615H26.0517V41.9398H25.1641ZM38.8088 38.275C38.8088 39.048 38.6692 39.7161 38.3901 40.2792C38.1109 40.8423 37.728 41.2765 37.2412 41.5819C36.7545 41.8873 36.1986 42.04 35.5734 42.04C34.9483 42.04 34.3924 41.8873 33.9057 41.5819C33.4189 41.2765 33.036 40.8423 32.7568 40.2792C32.4777 39.7161 32.3381 39.048 32.3381 38.275C32.3381 37.5019 32.4777 36.8339 32.7568 36.2708C33.036 35.7077 33.4189 35.2734 33.9057 34.968C34.3924 34.6626 34.9483 34.5099 35.5734 34.5099C36.1986 34.5099 36.7545 34.6626 37.2412 34.968C37.728 35.2734 38.1109 35.7077 38.3901 36.2708C38.6692 36.8339 38.8088 37.5019 38.8088 38.275ZM37.9499 38.275C37.9499 37.6403 37.8437 37.1047 37.6313 36.668C37.4214 36.2314 37.1362 35.9009 36.776 35.6767C36.4181 35.4524 36.0172 35.3402 35.5734 35.3402C35.1297 35.3402 34.7276 35.4524 34.3673 35.6767C34.0094 35.9009 33.7243 36.2314 33.512 36.668C33.302 37.1047 33.197 37.6403 33.197 38.275C33.197 38.9096 33.302 39.4453 33.512 39.8819C33.7243 40.3186 34.0094 40.649 34.3673 40.8733C34.7276 41.0976 35.1297 41.2097 35.5734 41.2097C36.0172 41.2097 36.4181 41.0976 36.776 40.8733C37.1362 40.649 37.4214 40.3186 37.6313 39.8819C37.8437 39.4453 37.9499 38.9096 37.9499 38.275ZM40.3012 41.9398V34.6101H42.7779C43.3529 34.6101 43.8229 34.7139 44.188 34.9215C44.5554 35.1267 44.8274 35.4047 45.004 35.7554C45.1805 36.1061 45.2688 36.4974 45.2688 36.9293C45.2688 37.3612 45.1805 37.7536 45.004 38.1068C44.8298 38.4599 44.5602 38.7414 44.1951 38.9514C43.8301 39.159 43.3624 39.2628 42.7922 39.2628H41.017V38.4754H42.7635C43.1572 38.4754 43.4734 38.4074 43.712 38.2714C43.9506 38.1354 44.1235 37.9517 44.2309 37.7202C44.3407 37.4864 44.3955 37.2228 44.3955 36.9293C44.3955 36.6358 44.3407 36.3734 44.2309 36.1419C44.1235 35.9105 43.9494 35.7292 43.7084 35.5979C43.4674 35.4643 43.1477 35.3975 42.7492 35.3975H41.1888V41.9398H40.3012Z" fill="url(#paint3_linear_4_1960)"/>
<defs>
<filter id="filter0_f_4_1960" x="3.2625" y="3.2625" width="57.475" height="57.475" filterUnits="userSpaceOnUse" color-interpolation-filters="sRGB">
<feFlood flood-opacity="0" result="BackgroundImageFix"/>
<feBlend mode="normal" in="SourceGraphic" in2="BackgroundImageFix" result="shape"/>
<feGaussianBlur stdDeviation="0.61875" result="effect1_foregroundBlur_4_1960"/>
</filter>
<linearGradient id="paint0_linear_4_1960" x1="4.5" y1="32" x2="59.5" y2="32" gradientUnits="userSpaceOnUse">
<stop stop-color="#FDFC47"/>
<stop offset="1" stop-color="#24FE41"/>
</linearGradient>
<linearGradient id="paint1_linear_4_1960" x1="4.5" y1="32" x2="59.5" y2="32" gradientUnits="userSpaceOnUse">
<stop stop-color="#FDFC47"/>
<stop offset="1" stop-color="#24FE41"/>
</linearGradient>
<linearGradient id="paint2_linear_4_1960" x1="19.5039" y1="16.7412" x2="44.5037" y2="16.7412" gradientUnits="userSpaceOnUse">
<stop stop-color="#FDFC47"/>
<stop offset="1" stop-color="#24FE41"/>
</linearGradient>
<linearGradient id="paint3_linear_4_1960" x1="17.8496" y1="37.9398" x2="45.8496" y2="37.9398" gradientUnits="userSpaceOnUse">
<stop stop-color="#FDFC47"/>
<stop offset="1" stop-color="#24FE41"/>
</linearGradient>
</defs>
</svg>
