<svg width="64" height="64" viewBox="0 0 64 64" fill="none" xmlns="http://www.w3.org/2000/svg">
<g opacity="0.3" filter="url(#filter0_f_4_1861)">
<path d="M44.5 4.49982H19.5C11.2157 4.49982 4.5 11.2155 4.5 19.4998V44.4998C4.5 52.7841 11.2157 59.4998 19.5 59.4998H44.5C52.7843 59.4998 59.5 52.7841 59.5 44.4998V19.4998C59.5 11.2155 52.7843 4.49982 44.5 4.49982Z" fill="url(#paint0_linear_4_1861)"/>
</g>
<path d="M19.499 4.9996H44.5C52.5082 4.9996 59 11.4915 59 19.4996V44.5006C59 52.5087 52.5082 59.0006 44.5 59.0006H19.499C11.4909 59.0006 4.99902 52.5087 4.99902 44.5006V19.4996C4.99902 11.4915 11.4909 4.9996 19.499 4.9996Z" fill="#232323" stroke="url(#paint1_linear_4_1861)"/>
<path d="M27 13V23H37V13H27ZM41 13V23H51V17C51 14.784 49.216 13 47 13H41ZM13 27V37H23V27H13ZM27 27V37H37V27H27ZM41 27V37H51V27H41ZM13 41V47C13 49.216 14.784 51 17 51H23V41H13ZM27 41V51H37V41H27Z" fill="url(#paint2_linear_4_1861)"/>
<defs>
<filter id="filter0_f_4_1861" x="3.2625" y="3.26232" width="57.475" height="57.475" filterUnits="userSpaceOnUse" color-interpolation-filters="sRGB">
<feFlood flood-opacity="0" result="BackgroundImageFix"/>
<feBlend mode="normal" in="SourceGraphic" in2="BackgroundImageFix" result="shape"/>
<feGaussianBlur stdDeviation="0.61875" result="effect1_foregroundBlur_4_1861"/>
</filter>
<linearGradient id="paint0_linear_4_1861" x1="4.5" y1="31.9998" x2="59.5" y2="31.9998" gradientUnits="userSpaceOnUse">
<stop stop-color="#FDFC47"/>
<stop offset="1" stop-color="#24FE41"/>
</linearGradient>
<linearGradient id="paint1_linear_4_1861" x1="4.49902" y1="32.0001" x2="59.5" y2="32.0001" gradientUnits="userSpaceOnUse">
<stop stop-color="#FDFC47"/>
<stop offset="1" stop-color="#24FE41"/>
</linearGradient>
<linearGradient id="paint2_linear_4_1861" x1="13" y1="32" x2="51" y2="32" gradientUnits="userSpaceOnUse">
<stop stop-color="#FDFC47"/>
<stop offset="1" stop-color="#24FE41"/>
</linearGradient>
</defs>
</svg>
