<svg width="64" height="64" viewBox="0 0 64 64" fill="none" xmlns="http://www.w3.org/2000/svg">
<g opacity="0.3" filter="url(#filter0_f_4_1840)">
<path d="M44.5 4.5H19.5C11.2157 4.5 4.5 11.2157 4.5 19.5V44.5C4.5 52.7843 11.2157 59.5 19.5 59.5H44.5C52.7843 59.5 59.5 52.7843 59.5 44.5V19.5C59.5 11.2157 52.7843 4.5 44.5 4.5Z" fill="url(#paint0_linear_4_1840)"/>
</g>
<path d="M19.5 5H44.5C52.5081 5 59 11.4919 59 19.5V44.5C59 52.5081 52.5081 59 44.5 59H19.5C11.4919 59 5 52.5081 5 44.5V19.5C5 11.4919 11.4919 5 19.5 5Z" fill="#232323" stroke="url(#paint1_linear_4_1840)"/>
<path d="M32.0029 51.9995C43.0486 51.9995 52.0029 43.0452 52.0029 31.9995C52.0029 20.9538 43.0486 11.9995 32.0029 11.9995C20.9572 11.9995 12.0029 20.9538 12.0029 31.9995C12.0029 43.0452 20.9572 51.9995 32.0029 51.9995Z" fill="url(#paint2_linear_4_1840)"/>
<path opacity="0.25" d="M32.0033 16.0005C28.2851 16.0039 24.6842 17.3022 21.8193 19.6724V22.4185C19.3741 25.0105 18.0093 28.4373 18.0029 32.0006C18.0063 35.568 19.3713 38.9996 21.8193 41.5945V44.3308C24.6845 46.7003 28.2854 47.9979 32.0033 48.0007C36.2462 48.0005 40.3152 46.3149 43.3153 43.3147C46.3155 40.3146 48.0011 36.2456 48.0013 32.0027C48.0017 29.9015 47.5882 27.8208 46.7844 25.8795C45.9806 23.9381 44.8023 22.1741 43.3167 20.6881C41.8312 19.2022 40.0674 18.0234 38.1263 17.2191C36.1851 16.4149 34.1045 16.0007 32.0033 16.0005Z" fill="url(#paint3_linear_4_1840)"/>
<path d="M36.5532 24.6895V26.7513C35.7508 26.3675 34.9937 26.0815 34.282 25.8931C33.5702 25.7047 32.883 25.6105 32.2202 25.6105C31.0689 25.6105 30.1793 25.8338 29.5513 26.2803C28.9303 26.7268 28.6198 27.3618 28.6198 28.1851C28.6198 28.8758 28.8256 29.3991 29.2373 29.755C29.6559 30.1039 30.4444 30.3865 31.6027 30.6028L32.8796 30.8644C34.4565 31.1644 35.6183 31.6947 36.3648 32.4553C37.1184 33.2089 37.4952 34.2206 37.4952 35.4905C37.4952 37.0046 36.9859 38.1524 35.9672 38.9339C34.9555 39.7154 33.4692 40.1061 31.5084 40.1061C30.7688 40.1061 29.9803 40.0224 29.143 39.8549C28.3127 39.6875 27.4509 39.4398 26.5578 39.1118V36.9348C27.416 37.4163 28.2568 37.7791 29.0802 38.0233C29.9035 38.2675 30.7129 38.3896 31.5084 38.3896C32.7155 38.3896 33.647 38.1524 34.3029 37.6779C34.9588 37.2035 35.2867 36.5267 35.2867 35.6475C35.2867 34.88 35.0495 34.2799 34.575 33.8473C34.1075 33.4147 33.3365 33.0903 32.262 32.874L30.9747 32.6228C29.3978 32.3088 28.2569 31.8169 27.5522 31.1471C26.8475 30.4772 26.4951 29.5457 26.4951 28.3526C26.4951 26.971 26.9801 25.8825 27.9499 25.0871C28.9268 24.2917 30.2699 23.894 31.9793 23.894C32.712 23.894 33.4586 23.9603 34.2191 24.0928C34.9796 24.2254 35.7577 24.4244 36.5532 24.6895Z" fill="#232323"/>
<defs>
<filter id="filter0_f_4_1840" x="3.2625" y="3.2625" width="57.475" height="57.475" filterUnits="userSpaceOnUse" color-interpolation-filters="sRGB">
<feFlood flood-opacity="0" result="BackgroundImageFix"/>
<feBlend mode="normal" in="SourceGraphic" in2="BackgroundImageFix" result="shape"/>
<feGaussianBlur stdDeviation="0.61875" result="effect1_foregroundBlur_4_1840"/>
</filter>
<linearGradient id="paint0_linear_4_1840" x1="4.5" y1="32" x2="59.5" y2="32" gradientUnits="userSpaceOnUse">
<stop stop-color="#FDFC47"/>
<stop offset="1" stop-color="#24FE41"/>
</linearGradient>
<linearGradient id="paint1_linear_4_1840" x1="4.5" y1="32" x2="59.5" y2="32" gradientUnits="userSpaceOnUse">
<stop stop-color="#FDFC47"/>
<stop offset="1" stop-color="#24FE41"/>
</linearGradient>
<linearGradient id="paint2_linear_4_1840" x1="12.0029" y1="31.9995" x2="52.0029" y2="31.9995" gradientUnits="userSpaceOnUse">
<stop stop-color="#FDFC47"/>
<stop offset="1" stop-color="#24FE41"/>
</linearGradient>
<linearGradient id="paint3_linear_4_1840" x1="18.0029" y1="32.0006" x2="48.0013" y2="32.0006" gradientUnits="userSpaceOnUse">
<stop stop-color="#FDFC47"/>
<stop offset="1" stop-color="#24FE41"/>
</linearGradient>
</defs>
</svg>
