<svg width="64" height="64" viewBox="0 0 64 64" fill="none" xmlns="http://www.w3.org/2000/svg">
<g opacity="0.3" filter="url(#filter0_f_4_1769)">
<path d="M44.5 4.5H19.5C11.2157 4.5 4.5 11.2157 4.5 19.5V44.5C4.5 52.7843 11.2157 59.5 19.5 59.5H44.5C52.7843 59.5 59.5 52.7843 59.5 44.5V19.5C59.5 11.2157 52.7843 4.5 44.5 4.5Z" fill="url(#paint0_linear_4_1769)"/>
</g>
<path d="M19.5 5H44.5C52.5081 5 59 11.4919 59 19.5V44.5C59 52.5081 52.5081 59 44.5 59H19.5C11.4919 59 5 52.5081 5 44.5V19.5C5 11.4919 11.4919 5 19.5 5Z" fill="#232323" stroke="url(#paint1_linear_4_1769)"/>
<path opacity="0.1" d="M32.6147 18.2001C26.6149 18.2001 23.7382 23.868 23.9102 27.9687C23.9006 28.6479 23.9383 29.3141 24.0415 29.9561C24.0415 29.9609 24.0462 29.9652 24.0462 29.9748C23.4186 31.386 23.0285 32.9471 23.0009 34.6294C22.9439 37.9271 24.2096 40.9559 26.2423 43.0269C25.9542 43.2785 25.7208 43.574 25.5766 43.9152C25.0408 45.1837 25.8786 46.5213 27.4445 46.9011C28.8525 47.2384 30.3671 46.6865 31.0491 45.6472C31.4986 45.7305 31.9541 45.7919 32.4225 45.7996C33.0203 45.8101 33.6037 45.7477 34.1733 45.6355C34.8503 46.6805 36.3694 47.2401 37.7826 46.9011C39.3533 46.5216 40.1869 45.1801 39.6529 43.9152C39.5013 43.5548 39.2484 43.2445 38.938 42.9848C40.8892 40.9913 42.1351 38.1235 42.1986 34.9575C42.2358 32.7351 41.9985 30.6484 41.0145 28.9084C41.0289 28.6828 41.0097 28.4824 41.0145 28.2569C41.0145 22.1306 37.4147 18.2001 32.6147 18.2001Z" fill="url(#paint2_linear_4_1769)"/>
<path d="M31.3995 17.0002C25.3996 17.0002 22.5229 22.668 22.695 26.7687C22.6854 27.4479 22.7231 28.1141 22.8263 28.7561C22.8263 28.7609 22.8309 28.7652 22.8309 28.7749C22.2033 30.186 21.8273 31.7471 21.7997 33.4295C21.6965 39.4054 25.9106 44.5132 31.2073 44.5996C36.504 44.6932 40.8794 39.743 40.9994 33.7575C41.0366 31.5352 40.7834 29.4484 39.7994 27.7085C39.8138 27.4829 39.7946 27.2825 39.7994 27.0569C39.7994 20.9307 36.1994 17.0002 31.3995 17.0002Z" fill="url(#paint3_linear_4_1769)"/>
<path d="M28.7437 20.1573C26.5992 20.144 25.6677 22.0252 25.6289 23.68C25.5964 25.0719 26.2239 26.2916 27.1899 26.9096C25.8221 27.8989 24.7338 29.379 24.0985 31.1447C24.3994 31.6734 24.7368 32.2358 25.1297 32.7782C26.2537 34.3346 27.5644 36.9538 25.5516 35.9938C24.7364 35.6045 24.031 35.1229 23.4891 34.5759C23.4305 39.5002 26.6428 43.3999 30.8834 43.3999C35.5811 43.3999 38.599 39.9986 38.599 35.0001C38.599 34.7763 38.5757 34.5548 38.5638 34.3321C37.9338 34.9458 37.1511 35.4876 36.2693 35.9352C33.8274 37.1771 35.4203 33.7702 36.7943 31.7446C37.1074 31.2872 37.3968 30.8103 37.6662 30.343C36.948 28.6427 35.8439 27.2222 34.4037 26.422C35.894 26.248 37.0418 25.2271 37.031 24.0103C37.0191 22.6795 36.2561 21.7932 34.159 21.8001C33.1606 21.8034 32.12 22.2791 31.399 23.0001C31.0198 21.5985 30.0653 20.1655 28.7437 20.1573ZM31.3758 25.2783L31.3782 25.2807C31.4622 25.3887 31.554 25.4776 31.6524 25.576C31.5444 25.5664 31.4462 25.5574 31.343 25.5526C31.3154 25.5526 31.2771 25.5456 31.2399 25.5408C31.2867 25.452 31.3386 25.3719 31.3758 25.2783Z" fill="#232323"/>
<path d="M31.09 24.236C31.1464 24.8552 30.8416 25.3892 30.4108 25.4264C29.9752 25.4636 29.5816 24.9908 29.5252 24.3668C29.4736 23.7392 29.7784 23.2088 30.2092 23.1716C30.64 23.1392 31.0384 23.612 31.09 24.236Z" fill="url(#paint4_linear_4_1769)"/>
<path d="M33.1951 24.1269C33.2515 24.5485 33.1435 24.9594 32.9143 25.199C32.6851 25.4373 32.3707 25.4661 32.1031 25.2696C31.8355 25.0732 31.6531 24.6899 31.6339 24.2682C31.5775 23.8514 31.6855 23.4405 31.9147 23.2009C32.1439 22.9625 32.4583 22.9338 32.7259 23.1254C32.9983 23.3219 33.1759 23.71 33.1951 24.1269Z" fill="url(#paint5_linear_4_1769)"/>
<path d="M28.2255 26.708C28.2255 26.708 30.0963 25.6628 31.4271 25.7936C32.753 25.9196 33.9026 26.9228 33.9026 26.9228C33.9026 26.9228 32.8154 30.4051 30.7899 30.1099C28.7643 29.8099 28.2207 26.7068 28.2207 26.7068" fill="#FFB30A"/>
<path d="M24.3621 42.7157C23.8263 43.9842 24.664 45.3201 26.2299 45.6999C27.7958 46.0751 29.5023 45.3557 30.0381 44.0826C30.5739 42.8141 29.7362 41.4782 28.1704 41.0984C26.6044 40.7232 24.8979 41.4472 24.3621 42.7157Z" fill="#FFB30A"/>
<path d="M35.2224 41.0093C35.0249 41.0234 34.8276 41.0531 34.6318 41.1007C33.0658 41.4751 32.2275 42.8193 32.7615 44.0842C33.2955 45.3542 35.0018 46.077 36.5677 45.7015C38.1385 45.322 38.972 43.9804 38.438 42.7155C37.9708 41.6043 36.6054 40.9106 35.2224 41.0093Z" fill="#FFB30A"/>
<defs>
<filter id="filter0_f_4_1769" x="3.2625" y="3.2625" width="57.475" height="57.475" filterUnits="userSpaceOnUse" color-interpolation-filters="sRGB">
<feFlood flood-opacity="0" result="BackgroundImageFix"/>
<feBlend mode="normal" in="SourceGraphic" in2="BackgroundImageFix" result="shape"/>
<feGaussianBlur stdDeviation="0.61875" result="effect1_foregroundBlur_4_1769"/>
</filter>
<linearGradient id="paint0_linear_4_1769" x1="4.5" y1="32" x2="59.5" y2="32" gradientUnits="userSpaceOnUse">
<stop stop-color="#FDFC47"/>
<stop offset="1" stop-color="#24FE41"/>
</linearGradient>
<linearGradient id="paint1_linear_4_1769" x1="4.5" y1="32" x2="59.5" y2="32" gradientUnits="userSpaceOnUse">
<stop stop-color="#FDFC47"/>
<stop offset="1" stop-color="#24FE41"/>
</linearGradient>
<linearGradient id="paint2_linear_4_1769" x1="22.999" y1="32.6" x2="42.2023" y2="32.6" gradientUnits="userSpaceOnUse">
<stop stop-color="#FDFC47"/>
<stop offset="1" stop-color="#24FE41"/>
</linearGradient>
<linearGradient id="paint3_linear_4_1769" x1="21.7979" y1="30.8004" x2="41.0028" y2="30.8004" gradientUnits="userSpaceOnUse">
<stop stop-color="#FDFC47"/>
<stop offset="1" stop-color="#24FE41"/>
</linearGradient>
<linearGradient id="paint4_linear_4_1769" x1="29.5195" y1="24.2993" x2="31.0967" y2="24.2993" gradientUnits="userSpaceOnUse">
<stop stop-color="#FDFC47"/>
<stop offset="1" stop-color="#24FE41"/>
</linearGradient>
<linearGradient id="paint5_linear_4_1769" x1="31.6191" y1="24.1995" x2="33.2098" y2="24.1995" gradientUnits="userSpaceOnUse">
<stop stop-color="#FDFC47"/>
<stop offset="1" stop-color="#24FE41"/>
</linearGradient>
</defs>
</svg>
