<svg width="64" height="64" viewBox="0 0 64 64" fill="none" xmlns="http://www.w3.org/2000/svg">
<g opacity="0.3" filter="url(#filter0_f_4_1748)">
<path d="M44.5 4.5H19.5C11.2157 4.5 4.5 11.2157 4.5 19.5V44.5C4.5 52.7843 11.2157 59.5 19.5 59.5H44.5C52.7843 59.5 59.5 52.7843 59.5 44.5V19.5C59.5 11.2157 52.7843 4.5 44.5 4.5Z" fill="url(#paint0_linear_4_1748)"/>
</g>
<path d="M19.5 5H44.5C52.5081 5 59 11.4919 59 19.5V44.5C59 52.5081 52.5081 59 44.5 59H19.5C11.4919 59 5 52.5081 5 44.5V19.5C5 11.4919 11.4919 5 19.5 5Z" fill="#232323" stroke="url(#paint1_linear_4_1748)"/>
<path opacity="0.1" d="M20.1709 44.6059C20.6309 46.3309 22.3931 47.3506 24.112 46.889L26.1477 46.3442C26.6565 46.2072 27.0947 45.9453 27.4606 45.6129C28.6851 45.7577 30.1841 45.8885 32.0007 45.8885C33.9842 45.8885 35.8602 45.6765 37.3654 45.4523C37.7642 45.8645 38.2707 46.1858 38.8716 46.3442L40.9334 46.8889C42.6705 47.3506 44.4605 46.3309 44.9266 44.6059L46.3329 39.3864C46.799 37.6658 45.7697 35.894 44.0281 35.4323L43.7352 35.3542L44.1497 33.6874C44.4605 32.4346 43.7714 31.1474 42.611 30.8119L42.14 30.6752C42.1391 30.0437 42.0978 29.4192 41.9751 28.8217C42.0406 28.6573 42.105 28.4959 42.1617 28.3226C43.5984 24.0558 41.8657 19.6114 38.29 18.4047L20.1709 44.6059Z" fill="url(#paint2_linear_4_1748)"/>
<path d="M42.9177 34.321L40.8551 33.7769C39.118 33.3152 37.319 34.3389 36.8529 36.0595L35.4412 41.2782C34.9886 42.9989 36.0086 44.7719 37.7593 45.2335L39.8218 45.7777C41.559 46.2393 43.3489 45.2201 43.815 43.495L45.2223 38.2763C45.6884 36.5557 44.6593 34.7826 42.9177 34.321Z" fill="url(#paint3_linear_4_1748)"/>
<path d="M41.5017 29.7009L40.126 29.3023C38.9656 28.9668 37.7765 29.7135 37.4657 30.9616L36.5207 34.7554C36.2099 36.0083 36.9015 37.2965 38.0619 37.632L39.4333 38.0305C40.5937 38.366 41.787 37.624 42.0978 36.3712L43.0386 32.5774C43.3494 31.3246 42.6621 30.0363 41.5017 29.7009Z" fill="url(#paint4_linear_4_1748)"/>
<path d="M23.6895 28.5897L25.1307 28.1912C26.3463 27.8557 27.5963 28.6023 27.9219 29.8505L28.9075 33.6443C29.233 34.8971 28.513 36.1854 27.2974 36.5209L25.8563 36.9194C24.6407 37.2549 23.3906 36.5128 23.065 35.2601L22.0794 31.4663C21.7539 30.2134 22.4706 28.9252 23.6895 28.5897Z" fill="url(#paint5_linear_4_1748)"/>
<path d="M35.8124 17.0215C32.6223 16.7481 29.3621 19.1049 28.1032 22.8373C27.9254 23.3628 27.791 23.9006 27.7043 24.4262V24.444C26.8665 25.3907 26.1765 26.5185 25.7375 27.8252C24.1664 32.4821 26.2109 37.3745 30.2911 38.7501C34.3712 40.1257 38.9414 37.4745 40.5081 32.8165C41.0937 31.0842 41.1937 29.3186 40.8637 27.7119C40.9292 27.5474 40.9937 27.3863 41.0504 27.213C42.4871 22.9462 40.7548 18.5015 37.1791 17.2948C36.7324 17.1426 36.2679 17.0604 35.8124 17.0215Z" fill="url(#paint6_linear_4_1748)"/>
<path d="M33.6814 19.2616C32.6136 19.2871 31.5593 19.8811 31.1248 21.1312C30.7515 22.2168 30.9385 23.3236 31.5285 24.0436C30.2157 24.4858 28.9963 25.3889 28.0605 26.6305C28.1383 27.0317 28.2316 27.4493 28.3513 27.8589C28.7769 29.3345 29.0633 31.6829 27.8521 30.4762C27.4046 30.0286 27.0377 29.5421 26.7822 29.0417C25.4511 32.9146 26.9865 36.952 30.2134 38.0698C33.4468 39.1943 37.158 36.9585 38.5036 33.0783C38.5994 32.8014 38.6667 32.5223 38.7336 32.2449C37.9846 32.7538 37.2534 33.3241 36.2036 33.4998C34.008 33.8687 36.0297 31.7728 37.6533 30.3487C38.1502 29.9128 38.6686 29.2219 38.6686 29.2219C38.435 27.9015 38.0696 26.3395 37.2318 25.4392C38.4297 25.6737 39.3486 25.1567 39.6442 24.2022C39.9653 23.1599 39.3763 22.0057 38.0695 21.5979C37.2928 21.359 36.5193 21.4394 35.947 21.765C36.0037 20.5716 35.426 19.7235 34.4148 19.3723C34.1715 19.2857 33.9323 19.256 33.6856 19.2638L33.6814 19.2616ZM35.1701 23.8157C35.209 23.9157 35.2568 24.0109 35.309 24.1109C35.2357 24.0809 35.1567 24.0454 35.079 24.0154C35.0534 24.0065 35.0264 23.9928 35.0008 23.985C35.0575 23.9283 35.1179 23.8766 35.1701 23.8244V23.8157Z" fill="#232323"/>
<path d="M35.2179 22.9106C35.1523 23.2451 34.9657 23.5362 34.7312 23.6617C34.4968 23.7917 34.249 23.7351 34.089 23.5184C33.9323 23.3017 33.8845 22.9628 33.9723 22.6284C34.0856 22.1295 34.4545 21.7861 34.7968 21.8639C35.1446 21.9417 35.3301 22.4073 35.2179 22.9106Z" fill="url(#paint7_linear_4_1748)"/>
<path d="M36.8531 23.4062C36.7876 23.7451 36.6009 24.0318 36.3664 24.1618C36.132 24.2873 35.8842 24.2351 35.7286 24.0184C35.5675 23.8017 35.5242 23.4628 35.612 23.1284C35.7209 22.6295 36.0898 22.2861 36.4364 22.3606C36.7798 22.4384 36.9665 22.9073 36.8531 23.4062Z" fill="url(#paint8_linear_4_1748)"/>
<path d="M32.3833 24.1307C32.3833 24.1307 34.0933 23.7751 35.0923 24.2007C36.0868 24.6307 36.729 25.6985 36.729 25.6985C36.729 25.6985 35.0189 28.1552 33.5255 27.4263C32.0322 26.693 32.3888 24.1318 32.3888 24.1318" fill="#FFB30A"/>
<path d="M19.9406 34.321L21.9762 33.7769C23.6907 33.3152 25.4575 34.3389 25.9175 36.0595L27.3109 41.2782C27.7709 42.9989 26.7508 44.7719 25.0363 45.2335L23.0007 45.7777C21.2817 46.2393 19.5194 45.2201 19.0594 43.495L17.666 38.2763C17.206 36.5557 18.2261 34.7826 19.9406 34.321Z" fill="url(#paint9_linear_4_1748)"/>
<path d="M28.6677 37.5556C28.6677 39.7015 26.9281 41.4446 24.7765 41.4446C22.6304 41.4446 20.8896 39.7015 20.8896 37.5556C20.8896 35.4057 22.6293 33.6666 24.7765 33.6666C26.9269 33.6666 28.6677 35.4057 28.6677 37.5556Z" fill="#FFB30A"/>
<path d="M32.0013 28.1108C30.8225 28.1108 29.692 28.5791 28.8584 29.4126C28.0249 30.2461 27.5566 31.3766 27.5566 32.5554C27.5566 33.7342 28.0249 34.8647 28.8584 35.6982C29.692 36.5318 30.8225 37 32.0013 37C33.18 37 34.3105 36.5318 35.1441 35.6982C35.9776 34.8647 36.4459 33.7342 36.4459 32.5554C36.4459 31.3766 35.9776 30.2461 35.1441 29.4126C34.3105 28.5791 33.18 28.1108 32.0013 28.1108ZM32.0013 29.222C32.4391 29.222 32.8726 29.3101 33.2771 29.4813C33.6816 29.6526 34.0491 29.9036 34.3586 30.22C34.6682 30.5364 34.9137 30.912 35.0812 31.3254C35.2487 31.7387 35.3348 32.1818 35.3347 32.6292C35.3344 33.5324 34.983 34.3985 34.3579 35.0371C33.7328 35.6756 32.8851 36.0343 32.0013 36.0343C31.1174 36.0343 30.2697 35.6756 29.6446 35.0371C29.0195 34.3985 28.6681 33.5324 28.6678 32.6292C28.6677 32.1818 28.7538 31.7387 28.9213 31.3254C29.0888 30.912 29.3343 30.5364 29.6439 30.22C29.9534 29.9036 30.3209 29.6526 30.7254 29.4813C31.1299 29.3101 31.5634 29.222 32.0013 29.222ZM32.0013 30.3331C31.4119 30.3331 30.8466 30.5673 30.4298 30.984C30.0131 31.4008 29.7789 31.966 29.7789 32.5554C29.7789 33.1448 30.0131 33.7101 30.4298 34.1268C30.8466 34.5436 31.4119 34.7777 32.0013 34.7777C32.5906 34.7777 33.1559 34.5436 33.5727 34.1268C33.9894 33.7101 34.2236 33.1448 34.2236 32.5554C34.2236 31.966 33.9894 31.4008 33.5727 30.984C33.1559 30.5673 32.5906 30.3331 32.0013 30.3331Z" fill="url(#paint10_linear_4_1748)"/>
<path d="M40.8904 37.5556C40.8904 39.7055 39.1508 41.4446 37.0036 41.4446C34.8575 41.4446 33.1123 39.7055 33.1123 37.5556C33.1123 35.4097 34.8563 33.6666 37.0036 33.6666C39.1496 33.6666 40.8904 35.4097 40.8904 37.5556Z" fill="#FFB30A"/>
<path d="M39.2209 31.422L36.4452 31.4437L35.5728 32.9716L34.4985 31.8995C34.4985 31.8995 33.8314 31.4437 31.7489 31.4437C29.9378 31.4437 28.4045 31.7411 28.4045 31.7411L27.1306 32.9412L26.4448 31.4437H24.1704C23.3398 31.4437 23.1113 31.6754 23.1113 32.5549H25.6114C26.1361 32.5549 26.6266 33.0904 26.7399 33.2515C25.2554 34.4493 23.1113 36.9385 23.1113 38.5186C23.1113 40.7909 23.5497 44.0657 23.5497 44.0657C23.5497 44.0657 26.5448 44.7775 30.8894 44.7775C35.234 44.7775 39.2925 43.7879 39.2925 43.7879C39.2925 43.7879 39.7787 41.4437 39.7787 40.1159C39.7787 36.9991 38.1079 34.9938 35.9764 33.2841C36.0764 33.1229 36.3545 32.5549 37.1222 32.5549H39.7785C39.7785 32.5549 39.7776 31.4442 39.2209 31.422Z" fill="#E25136"/>
<path d="M34.7788 37H28.1119C26.5777 37 25.334 38.2437 25.334 39.7779V40.8891C25.334 42.4232 26.5777 43.667 28.1119 43.667H34.7788C36.313 43.667 37.5567 42.4232 37.5567 40.8891V39.7779C37.5567 38.2437 36.313 37 34.7788 37Z" fill="#693D36"/>
<defs>
<filter id="filter0_f_4_1748" x="3.2625" y="3.2625" width="57.475" height="57.475" filterUnits="userSpaceOnUse" color-interpolation-filters="sRGB">
<feFlood flood-opacity="0" result="BackgroundImageFix"/>
<feBlend mode="normal" in="SourceGraphic" in2="BackgroundImageFix" result="shape"/>
<feGaussianBlur stdDeviation="0.61875" result="effect1_foregroundBlur_4_1748"/>
</filter>
<linearGradient id="paint0_linear_4_1748" x1="4.5" y1="32" x2="59.5" y2="32" gradientUnits="userSpaceOnUse">
<stop stop-color="#FDFC47"/>
<stop offset="1" stop-color="#24FE41"/>
</linearGradient>
<linearGradient id="paint1_linear_4_1748" x1="4.5" y1="32" x2="59.5" y2="32" gradientUnits="userSpaceOnUse">
<stop stop-color="#FDFC47"/>
<stop offset="1" stop-color="#24FE41"/>
</linearGradient>
<linearGradient id="paint2_linear_4_1748" x1="20.1709" y1="32.7023" x2="46.445" y2="32.7023" gradientUnits="userSpaceOnUse">
<stop stop-color="#FDFC47"/>
<stop offset="1" stop-color="#24FE41"/>
</linearGradient>
<linearGradient id="paint3_linear_4_1748" x1="35.334" y1="39.7774" x2="45.3345" y2="39.7774" gradientUnits="userSpaceOnUse">
<stop stop-color="#FDFC47"/>
<stop offset="1" stop-color="#24FE41"/>
</linearGradient>
<linearGradient id="paint4_linear_4_1748" x1="36.4463" y1="33.6666" x2="43.1133" y2="33.6666" gradientUnits="userSpaceOnUse">
<stop stop-color="#FDFC47"/>
<stop offset="1" stop-color="#24FE41"/>
</linearGradient>
<linearGradient id="paint5_linear_4_1748" x1="22.001" y1="32.5554" x2="28.9857" y2="32.5554" gradientUnits="userSpaceOnUse">
<stop stop-color="#FDFC47"/>
<stop offset="1" stop-color="#24FE41"/>
</linearGradient>
<linearGradient id="paint6_linear_4_1748" x1="25.208" y1="28.0567" x2="41.5555" y2="28.0567" gradientUnits="userSpaceOnUse">
<stop stop-color="#FDFC47"/>
<stop offset="1" stop-color="#24FE41"/>
</linearGradient>
<linearGradient id="paint7_linear_4_1748" x1="33.9287" y1="22.7919" x2="35.2506" y2="22.7919" gradientUnits="userSpaceOnUse">
<stop stop-color="#FDFC47"/>
<stop offset="1" stop-color="#24FE41"/>
</linearGradient>
<linearGradient id="paint8_linear_4_1748" x1="35.5674" y1="23.2896" x2="36.8863" y2="23.2896" gradientUnits="userSpaceOnUse">
<stop stop-color="#FDFC47"/>
<stop offset="1" stop-color="#24FE41"/>
</linearGradient>
<linearGradient id="paint9_linear_4_1748" x1="17.5557" y1="39.7774" x2="27.4212" y2="39.7774" gradientUnits="userSpaceOnUse">
<stop stop-color="#FDFC47"/>
<stop offset="1" stop-color="#24FE41"/>
</linearGradient>
<linearGradient id="paint10_linear_4_1748" x1="27.5566" y1="32.5554" x2="36.4459" y2="32.5554" gradientUnits="userSpaceOnUse">
<stop stop-color="#FDFC47"/>
<stop offset="1" stop-color="#24FE41"/>
</linearGradient>
</defs>
</svg>
