<svg width="64" height="64" viewBox="0 0 64 64" fill="none" xmlns="http://www.w3.org/2000/svg">
<g opacity="0.3" filter="url(#filter0_f_4_1715)">
<path d="M44.5 4.5H19.5C11.2157 4.5 4.5 11.2157 4.5 19.5V44.5C4.5 52.7843 11.2157 59.5 19.5 59.5H44.5C52.7843 59.5 59.5 52.7843 59.5 44.5V19.5C59.5 11.2157 52.7843 4.5 44.5 4.5Z" fill="url(#paint0_linear_4_1715)"/>
</g>
<path d="M19.395 5H44.605C52.5551 5 59 11.4449 59 19.395V44.605C59 52.5551 52.5551 59 44.605 59H19.395C11.4449 59 5 52.5551 5 44.605V19.395C5 11.4449 11.4449 5 19.395 5Z" fill="#232323" stroke="url(#paint1_linear_4_1715)"/>
<path d="M20.7552 17.002C19.5054 17.002 19.5054 17.5819 19.193 18.2555L17.0059 27.004L31.9989 30.7496L47.0019 27.004L44.8148 18.2555C44.5023 17.6556 44.4973 17.002 43.2476 17.002H20.7552Z" fill="url(#paint2_linear_4_1715)"/>
<path d="M17.005 27.004L17 45.888C16.9998 46.5029 17.4937 46.9966 18.1086 46.9966H45.8916C46.5065 46.9966 47.0002 46.5029 47.0002 45.888L46.9952 27L17.005 27.004Z" fill="url(#paint3_linear_4_1715)"/>
<path d="M28.8779 17.006L28.248 33.25L32.0049 29.5044L35.7543 33.2538L35.2544 17.0068L28.8779 17.006Z" fill="#232323"/>
<defs>
<filter id="filter0_f_4_1715" x="3.2625" y="3.2625" width="57.475" height="57.475" filterUnits="userSpaceOnUse" color-interpolation-filters="sRGB">
<feFlood flood-opacity="0" result="BackgroundImageFix"/>
<feBlend mode="normal" in="SourceGraphic" in2="BackgroundImageFix" result="shape"/>
<feGaussianBlur stdDeviation="0.61875" result="effect1_foregroundBlur_4_1715"/>
</filter>
<linearGradient id="paint0_linear_4_1715" x1="4.5" y1="32" x2="59.5" y2="32" gradientUnits="userSpaceOnUse">
<stop stop-color="#FDFC47"/>
<stop offset="1" stop-color="#24FE41"/>
</linearGradient>
<linearGradient id="paint1_linear_4_1715" x1="4.5" y1="32" x2="59.5" y2="32" gradientUnits="userSpaceOnUse">
<stop stop-color="#FDFC47"/>
<stop offset="1" stop-color="#24FE41"/>
</linearGradient>
<linearGradient id="paint2_linear_4_1715" x1="17.0059" y1="23.8758" x2="47.0019" y2="23.8758" gradientUnits="userSpaceOnUse">
<stop stop-color="#FDFC47"/>
<stop offset="1" stop-color="#24FE41"/>
</linearGradient>
<linearGradient id="paint3_linear_4_1715" x1="17" y1="36.9983" x2="47.0002" y2="36.9983" gradientUnits="userSpaceOnUse">
<stop stop-color="#FDFC47"/>
<stop offset="1" stop-color="#24FE41"/>
</linearGradient>
</defs>
</svg>
