<svg width="64" height="64" viewBox="0 0 64 64" fill="none" xmlns="http://www.w3.org/2000/svg">
<g opacity="0.3" filter="url(#filter0_f_4_1673)">
<path d="M44.5 4.49979H19.5C11.2157 4.49979 4.5 11.2155 4.5 19.4998V44.4998C4.5 52.7841 11.2157 59.4998 19.5 59.4998H44.5C52.7843 59.4998 59.5 52.7841 59.5 44.4998V19.4998C59.5 11.2155 52.7843 4.49979 44.5 4.49979Z" fill="url(#paint0_linear_4_1673)"/>
</g>
<path d="M19.395 4.99979H44.605C52.5551 4.99979 59 11.4446 59 19.3948V44.6048C59 52.5549 52.5551 58.9998 44.605 58.9998H19.395C11.4449 58.9998 5 52.5549 5 44.6048V19.3948C5 11.4446 11.4449 4.99979 19.395 4.99979Z" fill="#232323" stroke="url(#paint1_linear_4_1673)"/>
<path d="M44.4976 10.2418C44.5043 10.4083 44.5078 10.575 44.5078 10.7417C44.5078 14.0569 43.1909 17.2364 40.8466 19.5806C38.5024 21.9248 35.323 23.2417 32.0078 23.2417C28.6926 23.2417 25.5132 21.9248 23.169 19.5806C20.8248 17.2364 19.5078 14.0569 19.5078 10.7417C19.5078 10.5748 19.5111 10.4079 19.5178 10.2411" stroke="url(#paint2_linear_4_1673)" stroke-width="2"/>
<path d="M22.7464 36.4431C22.7035 36.0804 22.5293 35.7989 22.2239 35.5985C21.9185 35.398 21.5439 35.2978 21.1002 35.2978C20.7757 35.2978 20.4918 35.3503 20.2484 35.4553C20.0074 35.5603 19.8189 35.7046 19.6829 35.8883C19.5493 36.0721 19.4825 36.2808 19.4825 36.5146C19.4825 36.7103 19.5291 36.8785 19.6221 37.0193C19.7175 37.1576 19.8392 37.2734 19.9872 37.3664C20.1351 37.4571 20.2902 37.5322 20.4524 37.5919C20.6146 37.6491 20.7638 37.6957 20.8998 37.7314L21.6442 37.9319C21.835 37.982 22.0474 38.0512 22.2812 38.1394C22.5174 38.2277 22.7429 38.3482 22.9576 38.5009C23.1747 38.6512 23.3536 38.8445 23.4944 39.0807C23.6352 39.3169 23.7056 39.6068 23.7056 39.9503C23.7056 40.3464 23.6018 40.7043 23.3942 41.024C23.189 41.3437 22.8884 41.5978 22.4923 41.7863C22.0987 41.9748 21.6203 42.069 21.0572 42.069C20.5323 42.069 20.0778 41.9843 19.6937 41.8149C19.3119 41.6455 19.0113 41.4093 18.7918 41.1063C18.5747 40.8033 18.4518 40.4514 18.4232 40.0505H19.3394C19.3632 40.3273 19.4563 40.5563 19.6185 40.7377C19.7832 40.9166 19.9907 41.0502 20.2412 41.1385C20.4942 41.2244 20.7661 41.2673 21.0572 41.2673C21.396 41.2673 21.7002 41.2125 21.9698 41.1027C22.2394 40.9906 22.453 40.8355 22.6104 40.6375C22.7679 40.437 22.8466 40.2032 22.8466 39.936C22.8466 39.6926 22.7786 39.4946 22.6426 39.3419C22.5067 39.1892 22.3277 39.0652 22.1058 38.9697C21.8839 38.8743 21.6442 38.7908 21.3865 38.7192L20.4846 38.4615C19.912 38.2969 19.4587 38.0619 19.1247 37.7565C18.7906 37.4511 18.6236 37.0515 18.6236 36.5576C18.6236 36.1472 18.7346 35.7893 18.9564 35.4839C19.1807 35.1762 19.4813 34.9376 19.8583 34.7682C20.2377 34.5964 20.6612 34.5105 21.1288 34.5105C21.6012 34.5105 22.0211 34.5952 22.3885 34.7646C22.756 34.9316 23.0471 35.1606 23.2618 35.4517C23.4789 35.7428 23.5934 36.0733 23.6054 36.4431H22.7464ZM25.1648 41.9402V34.6107H26.0524V37.8746H29.9605V34.6107H30.848V41.9402H29.9605V38.6619H26.0524V41.9402H25.1648ZM38.8091 38.2754C38.8091 39.0485 38.6696 39.7165 38.3904 40.2796C38.1113 40.8426 37.7283 41.2769 37.2416 41.5823C36.7549 41.8877 36.199 42.0404 35.5739 42.0404C34.9488 42.0404 34.3929 41.8877 33.9061 41.5823C33.4194 41.2769 33.0365 40.8426 32.7573 40.2796C32.4782 39.7165 32.3386 39.0485 32.3386 38.2754C32.3386 37.5024 32.4782 36.8344 32.7573 36.2713C33.0365 35.7082 33.4194 35.274 33.9061 34.9686C34.3929 34.6632 34.9488 34.5105 35.5739 34.5105C36.199 34.5105 36.7549 34.6632 37.2416 34.9686C37.7283 35.274 38.1113 35.7082 38.3904 36.2713C38.6696 36.8344 38.8091 37.5024 38.8091 38.2754ZM37.9502 38.2754C37.9502 37.6408 37.844 37.1051 37.6317 36.6685C37.4217 36.2319 37.1366 35.9015 36.7764 35.6772C36.4185 35.4529 36.0176 35.3408 35.5739 35.3408C35.1301 35.3408 34.7281 35.4529 34.3678 35.6772C34.0099 35.9015 33.7248 36.2319 33.5125 36.6685C33.3025 37.1051 33.1975 37.6408 33.1975 38.2754C33.1975 38.9101 33.3025 39.4457 33.5125 39.8823C33.7248 40.3189 34.0099 40.6494 34.3678 40.8737C34.7281 41.0979 35.1301 41.2101 35.5739 41.2101C36.0176 41.2101 36.4185 41.0979 36.7764 40.8737C37.1366 40.6494 37.4217 40.3189 37.6317 39.8823C37.844 39.4457 37.9502 38.9101 37.9502 38.2754ZM40.3015 41.9402V34.6107H42.7781C43.3531 34.6107 43.8231 34.7145 44.1881 34.9221C44.5556 35.1272 44.8275 35.4052 45.0041 35.7559C45.1807 36.1067 45.2689 36.4979 45.2689 36.9298C45.2689 37.3616 45.1807 37.7541 45.0041 38.1072C44.8299 38.4603 44.5603 38.7419 44.1953 38.9518C43.8302 39.1594 43.3626 39.2632 42.7924 39.2632H41.0173V38.4758H42.7638C43.1574 38.4758 43.4736 38.4078 43.7121 38.2718C43.9507 38.1359 44.1237 37.9521 44.2311 37.7207C44.3408 37.4869 44.3957 37.2233 44.3957 36.9298C44.3957 36.6363 44.3408 36.3739 44.2311 36.1424C44.1237 35.911 43.9495 35.7297 43.7086 35.5985C43.4676 35.4648 43.1479 35.398 42.7494 35.398H41.1891V41.9402H40.3015Z" fill="url(#paint3_linear_4_1673)"/>
<defs>
<filter id="filter0_f_4_1673" x="3.2625" y="3.26229" width="57.475" height="57.475" filterUnits="userSpaceOnUse" color-interpolation-filters="sRGB">
<feFlood flood-opacity="0" result="BackgroundImageFix"/>
<feBlend mode="normal" in="SourceGraphic" in2="BackgroundImageFix" result="shape"/>
<feGaussianBlur stdDeviation="0.61875" result="effect1_foregroundBlur_4_1673"/>
</filter>
<linearGradient id="paint0_linear_4_1673" x1="4.5" y1="31.9998" x2="59.5" y2="31.9998" gradientUnits="userSpaceOnUse">
<stop stop-color="#FDFC47"/>
<stop offset="1" stop-color="#24FE41"/>
</linearGradient>
<linearGradient id="paint1_linear_4_1673" x1="4.5" y1="31.9998" x2="59.5" y2="31.9998" gradientUnits="userSpaceOnUse">
<stop stop-color="#FDFC47"/>
<stop offset="1" stop-color="#24FE41"/>
</linearGradient>
<linearGradient id="paint2_linear_4_1673" x1="19.5078" y1="16.7414" x2="44.5078" y2="16.7414" gradientUnits="userSpaceOnUse">
<stop stop-color="#FDFC47"/>
<stop offset="1" stop-color="#24FE41"/>
</linearGradient>
<linearGradient id="paint3_linear_4_1673" x1="17.8506" y1="37.9402" x2="45.8506" y2="37.9402" gradientUnits="userSpaceOnUse">
<stop stop-color="#FDFC47"/>
<stop offset="1" stop-color="#24FE41"/>
</linearGradient>
</defs>
</svg>
