<svg width="64" height="64" viewBox="0 0 64 64" fill="none" xmlns="http://www.w3.org/2000/svg">
<g opacity="0.3" filter="url(#filter0_f_4_1537)">
<path d="M46.497 4.49857H17.501C10.3202 4.49857 4.49902 10.3198 4.49902 17.5006V46.4966C4.49902 53.6774 10.3202 59.4986 17.501 59.4986H46.497C53.6778 59.4986 59.499 53.6774 59.499 46.4966V17.5006C59.499 10.3198 53.6778 4.49857 46.497 4.49857Z" fill="url(#paint0_linear_4_1537)"/>
</g>
<path d="M19.5 5H44.5C52.5081 5 59 11.4919 59 19.5V44.5C59 52.5081 52.5081 59 44.5 59H19.5C11.4919 59 5 52.5081 5 44.5V19.5C5 11.4919 11.4919 5 19.5 5Z" fill="#232323" stroke="url(#paint1_linear_4_1537)"/>
<path d="M44.5 7.5H19.5C12.8726 7.5 7.5 12.8726 7.5 19.5V44.5C7.5 51.1274 12.8726 56.5 19.5 56.5H44.5C51.1274 56.5 56.5 51.1274 56.5 44.5V19.5C56.5 12.8726 51.1274 7.5 44.5 7.5Z" fill="#262626"/>
<path d="M49.5352 31.998L36.4242 25.936L37.4775 29.8202H26.5235L27.5768 25.936L14.4658 32.0024L27.5858 38.0644L26.5325 34.1802H37.4865L36.4332 38.0644L49.5352 32.0024" fill="url(#paint2_linear_4_1537)"/>
<defs>
<filter id="filter0_f_4_1537" x="2.29902" y="2.29857" width="59.4" height="59.4" filterUnits="userSpaceOnUse" color-interpolation-filters="sRGB">
<feFlood flood-opacity="0" result="BackgroundImageFix"/>
<feBlend mode="normal" in="SourceGraphic" in2="BackgroundImageFix" result="shape"/>
<feGaussianBlur stdDeviation="1.1" result="effect1_foregroundBlur_4_1537"/>
</filter>
<linearGradient id="paint0_linear_4_1537" x1="4.49902" y1="31.9986" x2="59.499" y2="31.9986" gradientUnits="userSpaceOnUse">
<stop stop-color="#FDFC47"/>
<stop offset="1" stop-color="#24FE41"/>
</linearGradient>
<linearGradient id="paint1_linear_4_1537" x1="4.5" y1="32" x2="59.5" y2="32" gradientUnits="userSpaceOnUse">
<stop stop-color="#FDFC47"/>
<stop offset="1" stop-color="#24FE41"/>
</linearGradient>
<linearGradient id="paint2_linear_4_1537" x1="14.4658" y1="32.0002" x2="49.5352" y2="32.0002" gradientUnits="userSpaceOnUse">
<stop stop-color="#FDFC47"/>
<stop offset="1" stop-color="#24FE41"/>
</linearGradient>
</defs>
</svg>
