<svg width="64" height="64" viewBox="0 0 64 64" fill="none" xmlns="http://www.w3.org/2000/svg">
<g clip-path="url(#clip0_4_1606)">
<g opacity="0.3" filter="url(#filter0_f_4_1606)">
<path d="M44.5 4.5H19.5C11.2157 4.5 4.5 11.2157 4.5 19.5V44.5C4.5 52.7843 11.2157 59.5 19.5 59.5H44.5C52.7843 59.5 59.5 52.7843 59.5 44.5V19.5C59.5 11.2157 52.7843 4.5 44.5 4.5Z" fill="url(#paint0_linear_4_1606)"/>
</g>
<path d="M19.5 5H44.5C52.5081 5 59 11.4919 59 19.5V44.5C59 52.5081 52.5081 59 44.5 59H19.5C11.4919 59 5 52.5081 5 44.5V19.5C5 11.4919 11.4919 5 19.5 5Z" fill="#232323" stroke="url(#paint1_linear_4_1606)"/>
<path fill-rule="evenodd" clip-rule="evenodd" d="M26.167 17.4094C27.2816 18.4077 30.1752 20.9202 31.3652 26.0768C31.5696 26.651 31.4054 27.3402 31.3339 27.9254C31.1749 28.3133 30.7785 28.9223 30.7785 28.9223C30.6705 29.0652 30.5649 29.3154 30.8041 29.6173C32.0526 31.2185 33.5306 32.6759 34.0312 34.3227C34.3335 35.3171 33.3968 35.4617 32.5843 35.8067C31.9864 35.9555 31.1379 36.3049 31.7241 37.0458C31.7294 37.0624 31.7492 37.0771 31.7583 37.0885C31.8035 37.1395 31.8837 37.2422 32.0033 37.4303C32.117 37.6694 32.2151 38.0576 31.8665 38.3304C31.6842 38.4499 31.0834 38.7178 31.3795 39.0196L31.3624 38.9969C31.699 39.35 31.5689 39.8597 31.3481 40.176C31.1024 40.4519 31.2011 40.7774 31.2228 41.0505C31.2985 42.0036 31.1416 42.7729 30.8981 43.6567C39.503 43.6594 43.6671 36.3678 43.6671 30.5344C43.6671 22.7248 36.1235 17.4094 26.167 17.4094Z" fill="url(#paint2_linear_4_1606)"/>
<path fill-rule="evenodd" clip-rule="evenodd" d="M27.625 18.8677C29.0833 20.326 30.721 23.0181 31.4327 26.626C33.4583 26.7573 35.7742 29.3415 35.7173 31.7871C35.6502 34.6527 33.8054 37.4425 31.7638 38.7915C31.7244 38.8148 31.6777 38.8352 31.6267 38.8658C31.5348 38.981 31.491 39.1269 31.5975 39.2815C31.6602 39.2931 31.7331 39.264 31.8163 39.2362C32.9363 38.8658 33.9833 38.3277 34.8817 37.7415C37.5169 36.0177 39.3398 34.6133 40.2994 31.9169C40.7806 30.5635 40.9294 28.8733 40.4787 27.326C38.8206 21.6167 32.3267 19.295 27.625 18.8692" fill="#232323"/>
<path fill-rule="evenodd" clip-rule="evenodd" d="M32.35 33.8156C31.3875 32.42 30.4702 31.1556 29.6608 29.6521C29.5179 29.3954 29.3356 29.1169 29.3823 28.78C29.445 28.3527 29.849 28.1369 30.0313 27.8233C30.4527 27.0767 30.1625 26.0908 29.9 25.3048C28.7308 21.8619 26.342 18.2918 23.25 17.4094V25.0189C23.3521 25.121 23.7983 25.2581 23.9004 25.3383C26.9323 27.6177 27.9254 31.4254 27.9794 34.1467C28.0508 37.7677 26.7544 41.3377 24.1571 43.5806C24.1002 43.6317 23.9748 43.6769 23.9923 43.7804C25.7525 44.1333 29.5515 44.5927 29.9802 42.9317C30.374 41.4033 29.384 40.5568 30.2296 39.4856C30.5677 39.0573 30.3029 39.0965 30.1669 39C30.0208 38.8963 29.8927 38.7944 29.8927 38.5844C29.8927 38.1235 30.6117 38.1002 30.616 37.7473C30.6219 37.2894 30.3681 36.8533 30.2223 36.4537C30.1712 36.1635 30.1596 35.8267 30.6204 35.5758C31.3204 35.3702 32.0729 35.1572 32.5804 34.7679C32.7991 34.6001 32.4958 34.0387 32.3413 33.8171" fill="url(#paint3_linear_4_1606)"/>
<path d="M27.5772 14.5073C25.1448 14.5114 23.6412 14.8889 21.792 15.3808C20.408 15.7031 19.5184 16.4162 19.3143 17.4123L17.417 26.6319L21.792 26.1623V16.7517C23.6747 16.2296 25.6434 15.952 27.6253 15.951C38.0962 15.9461 46.5837 23.1363 46.5837 31.9956C46.5837 40.855 38.0962 48.0358 27.6253 48.0373C24.4476 48.0376 21.3224 47.3635 18.5341 46.0744L17.7816 47.1506C21.792 48.9878 24.0833 49.4927 27.6253 49.4927C37.072 49.4927 49.5003 45.4317 49.5003 31.9927C49.5003 19.98 36.1405 14.4927 27.5772 14.5073Z" fill="url(#paint4_linear_4_1606)"/>
<path d="M24.7083 29.8052C24.7083 32.6242 22.4231 34.9094 19.6042 34.9094C16.7852 34.9094 14.5 32.6242 14.5 29.8052C14.5 26.9863 16.7852 24.701 19.6042 24.701C22.4231 24.701 24.7083 26.9863 24.7083 29.8052Z" fill="url(#paint5_linear_4_1606)"/>
<path d="M21.7913 30.5344C21.7913 32.1452 20.4855 33.451 18.8747 33.451C17.2638 33.451 15.958 32.1452 15.958 30.5344C15.958 28.9235 17.2638 27.6177 18.8747 27.6177C20.4855 27.6177 21.7913 28.9235 21.7913 30.5344Z" fill="#4CBA36"/>
</g>
<defs>
<filter id="filter0_f_4_1606" x="3.2625" y="3.2625" width="57.475" height="57.475" filterUnits="userSpaceOnUse" color-interpolation-filters="sRGB">
<feFlood flood-opacity="0" result="BackgroundImageFix"/>
<feBlend mode="normal" in="SourceGraphic" in2="BackgroundImageFix" result="shape"/>
<feGaussianBlur stdDeviation="0.61875" result="effect1_foregroundBlur_4_1606"/>
</filter>
<linearGradient id="paint0_linear_4_1606" x1="4.5" y1="32" x2="59.5" y2="32" gradientUnits="userSpaceOnUse">
<stop stop-color="#FDFC47"/>
<stop offset="1" stop-color="#24FE41"/>
</linearGradient>
<linearGradient id="paint1_linear_4_1606" x1="4.5" y1="32" x2="59.5" y2="32" gradientUnits="userSpaceOnUse">
<stop stop-color="#FDFC47"/>
<stop offset="1" stop-color="#24FE41"/>
</linearGradient>
<linearGradient id="paint2_linear_4_1606" x1="26.167" y1="30.533" x2="43.6671" y2="30.533" gradientUnits="userSpaceOnUse">
<stop stop-color="#FDFC47"/>
<stop offset="1" stop-color="#24FE41"/>
</linearGradient>
<linearGradient id="paint3_linear_4_1606" x1="23.25" y1="30.764" x2="32.6571" y2="30.764" gradientUnits="userSpaceOnUse">
<stop stop-color="#FDFC47"/>
<stop offset="1" stop-color="#24FE41"/>
</linearGradient>
<linearGradient id="paint4_linear_4_1606" x1="17.417" y1="32" x2="49.5003" y2="32" gradientUnits="userSpaceOnUse">
<stop stop-color="#FDFC47"/>
<stop offset="1" stop-color="#24FE41"/>
</linearGradient>
<linearGradient id="paint5_linear_4_1606" x1="14.5" y1="29.8052" x2="24.7083" y2="29.8052" gradientUnits="userSpaceOnUse">
<stop stop-color="#FDFC47"/>
<stop offset="1" stop-color="#24FE41"/>
</linearGradient>
<clipPath id="clip0_4_1606">
<rect width="64" height="64" fill="white"/>
</clipPath>
</defs>
</svg>
