<svg width="64" height="64" viewBox="0 0 64 64" fill="none" xmlns="http://www.w3.org/2000/svg">
<g clip-path="url(#clip0_4_1516)">
<g opacity="0.3" filter="url(#filter0_f_4_1516)">
<path d="M44.5 4.5H19.5C11.2157 4.5 4.5 11.2157 4.5 19.5V44.5C4.5 52.7843 11.2157 59.5 19.5 59.5H44.5C52.7843 59.5 59.5 52.7843 59.5 44.5V19.5C59.5 11.2157 52.7843 4.5 44.5 4.5Z" fill="url(#paint0_linear_4_1516)"/>
</g>
<path d="M19.5 5H44.5C52.5081 5 59 11.4919 59 19.5V44.5C59 52.5081 52.5081 59 44.5 59H19.5C11.4919 59 5 52.5081 5 44.5V19.5C5 11.4919 11.4919 5 19.5 5Z" fill="#232323" stroke="url(#paint1_linear_4_1516)"/>
<g opacity="0.3" filter="url(#filter1_f_4_1516)">
<path d="M28.0693 43.5188C27.1375 43.5188 27.2958 43.1673 26.9744 42.2807L24.2344 33.2693L45.3266 20.7656" fill="url(#paint2_linear_4_1516)"/>
<path d="M28.0693 43.5188C28.7884 43.5188 29.1061 43.1902 29.5074 42.8003L33.3424 39.0741L28.5588 36.1916" fill="url(#paint3_linear_4_1516)"/>
<path d="M28.5579 36.1923L40.149 44.7497C41.4717 45.4789 42.4264 45.1013 42.7558 43.5225L47.474 21.3052C47.9571 19.3699 46.7358 18.4922 45.4704 19.0662L17.7653 29.7413C15.8742 30.4993 16.1057 31.9945 17.6411 32.4642L24.7509 34.6817L40.9902 23.8641C41.7672 23.3933 42.4803 23.6464 41.895 24.1655" fill="url(#paint4_linear_4_1516)"/>
</g>
<path d="M28.2228 43.2374C27.3145 43.2374 27.4688 42.8944 27.1555 42.0295L24.4844 33.2385L45.0455 21.0406" fill="url(#paint5_linear_4_1516)"/>
<path d="M28.2227 43.2374C28.9236 43.2374 29.2333 42.9168 29.6246 42.5365L33.363 38.9014L28.6998 36.0894" fill="url(#paint6_linear_4_1516)"/>
<path d="M28.6995 36.0899L39.9988 44.4382C41.2882 45.1496 42.2188 44.7813 42.54 43.2411L47.1394 21.5668C47.6103 19.6789 46.4197 18.8226 45.1862 19.3826L18.1785 29.7969C16.3349 30.5363 16.3457 31.5648 17.8424 32.0232L24.773 34.1864L40.8188 24.0634C41.5763 23.6041 42.2715 23.8511 41.7009 24.3575" fill="url(#paint7_linear_4_1516)"/>
</g>
<defs>
<filter id="filter0_f_4_1516" x="3.2625" y="3.2625" width="57.475" height="57.475" filterUnits="userSpaceOnUse" color-interpolation-filters="sRGB">
<feFlood flood-opacity="0" result="BackgroundImageFix"/>
<feBlend mode="normal" in="SourceGraphic" in2="BackgroundImageFix" result="shape"/>
<feGaussianBlur stdDeviation="0.61875" result="effect1_foregroundBlur_4_1516"/>
</filter>
<filter id="filter1_f_4_1516" x="14.9835" y="17.4584" width="34.033" height="29.0828" filterUnits="userSpaceOnUse" color-interpolation-filters="sRGB">
<feFlood flood-opacity="0" result="BackgroundImageFix"/>
<feBlend mode="normal" in="SourceGraphic" in2="BackgroundImageFix" result="shape"/>
<feGaussianBlur stdDeviation="0.717223" result="effect1_foregroundBlur_4_1516"/>
</filter>
<linearGradient id="paint0_linear_4_1516" x1="4.5" y1="32" x2="59.5" y2="32" gradientUnits="userSpaceOnUse">
<stop stop-color="#FDFC47"/>
<stop offset="1" stop-color="#24FE41"/>
</linearGradient>
<linearGradient id="paint1_linear_4_1516" x1="4.5" y1="32" x2="59.5" y2="32" gradientUnits="userSpaceOnUse">
<stop stop-color="#FDFC47"/>
<stop offset="1" stop-color="#24FE41"/>
</linearGradient>
<linearGradient id="paint2_linear_4_1516" x1="24.2344" y1="32.1422" x2="45.3266" y2="32.1422" gradientUnits="userSpaceOnUse">
<stop stop-color="#FDFC47"/>
<stop offset="1" stop-color="#24FE41"/>
</linearGradient>
<linearGradient id="paint3_linear_4_1516" x1="28.0693" y1="39.8552" x2="33.3424" y2="39.8552" gradientUnits="userSpaceOnUse">
<stop stop-color="#FDFC47"/>
<stop offset="1" stop-color="#24FE41"/>
</linearGradient>
<linearGradient id="paint4_linear_4_1516" x1="16.418" y1="31.9998" x2="47.582" y2="31.9998" gradientUnits="userSpaceOnUse">
<stop stop-color="#FDFC47"/>
<stop offset="1" stop-color="#24FE41"/>
</linearGradient>
<linearGradient id="paint5_linear_4_1516" x1="24.4844" y1="32.139" x2="45.0455" y2="32.139" gradientUnits="userSpaceOnUse">
<stop stop-color="#FDFC47"/>
<stop offset="1" stop-color="#24FE41"/>
</linearGradient>
<linearGradient id="paint6_linear_4_1516" x1="28.2227" y1="39.6634" x2="33.363" y2="39.6634" gradientUnits="userSpaceOnUse">
<stop stop-color="#FDFC47"/>
<stop offset="1" stop-color="#24FE41"/>
</linearGradient>
<linearGradient id="paint7_linear_4_1516" x1="16.7549" y1="32" x2="47.2447" y2="32" gradientUnits="userSpaceOnUse">
<stop stop-color="#FDFC47"/>
<stop offset="1" stop-color="#24FE41"/>
</linearGradient>
<clipPath id="clip0_4_1516">
<rect width="64" height="64" fill="white"/>
</clipPath>
</defs>
</svg>
