<svg width="64" height="64" viewBox="0 0 64 64" fill="none" xmlns="http://www.w3.org/2000/svg">
<g opacity="0.3" filter="url(#filter0_f_4_1390)">
<path d="M44.5 4.49979H19.5C11.2157 4.49979 4.5 11.2155 4.5 19.4998V44.4998C4.5 52.7841 11.2157 59.4998 19.5 59.4998H44.5C52.7843 59.4998 59.5 52.7841 59.5 44.4998V19.4998C59.5 11.2155 52.7843 4.49979 44.5 4.49979Z" fill="url(#paint0_linear_4_1390)"/>
</g>
<path d="M19.5 4.9996H44.501C52.5091 4.9996 59.001 11.4915 59.001 19.4996V44.5006C59.001 52.5087 52.5091 59.0006 44.501 59.0006H19.5C11.4919 59.0006 5 52.5087 5 44.5006V19.4996C5 11.4915 11.4919 4.9996 19.5 4.9996Z" fill="#232323" stroke="url(#paint1_linear_4_1390)"/>
<path fill-rule="evenodd" clip-rule="evenodd" d="M42.0639 18.781C39.8326 17.3236 36.9791 16.8517 35.4044 16.6869C33.7188 16.5107 32.2551 16.5417 30.9675 16.7307C30.8583 16.7292 30.7499 16.7251 30.6403 16.7251C30.5566 16.7251 30.474 16.7287 30.3898 16.7297C30.4244 16.6874 30.4484 16.6612 30.4484 16.6612C30.4484 16.6612 30.3806 16.6719 30.2478 16.7321C29.8298 16.7389 29.4136 16.7534 29.0039 16.7815C29.5748 16.1557 30.0426 15.8275 30.0426 15.8275C30.0426 15.8275 29.4874 15.9088 28.4744 16.827C27.9925 16.8713 27.517 16.9301 27.0499 17.0032C28.1145 15.5628 29.228 14.9561 29.228 14.9561C29.228 14.9561 27.8783 14.6814 25.7647 16.805C25.5878 16.9828 25.424 17.1675 25.2652 17.3546C19.1051 18.8448 14.6969 22.8227 14.6969 27.4973C14.6969 28.414 14.4155 29.4222 14.719 30.4292C14.5977 32.0375 14.8559 36.4264 14.8559 36.4264C14.8559 36.4264 16.5234 45.4506 22.9356 47.0197C23.0375 47.0441 21.5958 44.7702 20.9582 42.0277C22.1997 43.2905 23.6793 44.2895 25.3401 44.4625C25.5438 44.4836 24.3914 43.133 23.382 41.5031L37.9532 46.4124C45.5742 43.139 44.6871 43.4341 46.3233 41.6616C49.9282 37.7593 50.4329 35.5453 49.5246 29.0081C48.9106 24.5952 45.6534 20.2246 42.0639 18.781Z" fill="url(#paint2_linear_4_1390)"/>
<path fill-rule="evenodd" clip-rule="evenodd" d="M14.3154 35.2739L15.5218 39.0123L39.606 47.0207L44.0726 28.0285L16.4914 22.9021L14.3154 35.2739Z" fill="#858585"/>
<path opacity="0.15" fill-rule="evenodd" clip-rule="evenodd" d="M16.5586 23.3231C16.6794 23.583 16.6438 23.6445 16.5685 23.6445C16.5346 23.6445 16.4928 23.6321 16.4536 23.6196C16.4144 23.6072 16.3776 23.5946 16.3539 23.5946C16.2873 23.5946 16.3248 23.6931 16.7021 24.167C17.2357 24.8448 25.0722 36.6754 25.5006 36.6754C25.5028 36.6754 25.505 36.6752 25.5067 36.6744C29.155 35.3744 44.6702 30.0491 44.6702 30.0491L43.0826 27.7367L16.5586 23.3231Z" fill="url(#paint3_linear_4_1390)"/>
<path fill-rule="evenodd" clip-rule="evenodd" d="M16.7861 23.0325C16.7861 23.0325 16.903 23.6375 17.4449 24.3071C17.9834 24.9828 25.2169 35.9354 25.5799 35.8387C30.3182 34.5808 47.5103 27.8876 47.5103 27.8876L16.7861 23.0325Z" fill="#858585"/>
<path opacity="0.15" fill-rule="evenodd" clip-rule="evenodd" d="M38.7458 46.733L15.8574 39.1242L15.9382 39.6592L39.0006 47.3271L38.7458 46.733Z" fill="url(#paint4_linear_4_1390)"/>
<path fill-rule="evenodd" clip-rule="evenodd" d="M21.8791 22.5206C21.8791 22.5206 13.5512 24.9596 17.3725 33.4504C17.3725 33.4504 15.6203 31.8461 14.5771 29.7948C14.5301 29.7031 16.3161 23.3586 16.3161 23.3586L21.8791 22.5206Z" fill="url(#paint5_linear_4_1390)"/>
<path fill-rule="evenodd" clip-rule="evenodd" d="M17.3723 33.4504C16.6483 33.4378 15.4844 32.8403 15.1072 32.1169C14.6355 39.9796 17.8433 44.5709 22.936 47.0195C21.2718 46.8288 13 42.4638 13 31.9596C13 23.0279 20.0875 15.0446 31.1786 14.6787C31.2466 15.1794 25.6801 16.435 25.5019 17.0255C25.2255 17.9444 24.5902 18.9446 24.0547 19.7466C23.3287 20.8329 25.0636 21.762 23.7887 22.0548C21.8704 22.495 19.3115 22.2513 17.4245 24.7043C14.5879 28.3914 16.4805 32.6099 17.3723 33.4504Z" fill="url(#paint6_linear_4_1390)"/>
<path fill-rule="evenodd" clip-rule="evenodd" d="M34.087 14.9664C26.9044 14.4151 23.2073 17.2894 20.8343 20.6312C19.9701 21.8478 20.0645 22.9648 20.3622 24.3142C20.49 24.8902 20.6192 25.1664 20.4636 25.7537C20.3777 26.0777 20.392 26.3802 20.2852 26.5714C20.1378 26.8357 19.9498 27.1244 19.8869 27.5987C19.7296 28.7833 20.149 29.1606 20.4111 29.5592C20.7845 29.1885 21.5136 28.316 22.8282 27.795C24.143 27.2739 25.0082 26.4906 26.656 25.6499C28.9074 24.5015 31.5463 26.2437 36.5498 24.6042C38.0895 24.0996 41.6278 18.858 42.4679 18.6567C40.1287 16.0701 36.1491 15.1243 34.087 14.9664Z" fill="url(#paint7_linear_4_1390)"/>
<path fill-rule="evenodd" clip-rule="evenodd" d="M29.3421 13.3249C29.3421 13.3249 28.0595 13.9444 27.5012 15.0637C28.7908 14.4136 29.5394 14.0584 29.8932 14.016C29.8932 14.016 29.5541 14.1801 29.1338 15.0731C29.877 14.8352 30.1328 14.685 30.3368 14.6828C30.3368 14.6828 30.2775 14.7767 30.2233 15.6677C29.082 15.298 26.8854 15.7287 25.7169 16.4605C25.3207 14.3476 29.3421 13.3249 29.3421 13.3249Z" fill="#3F6499"/>
<path fill-rule="evenodd" clip-rule="evenodd" d="M34.4461 14.6479C32.2444 14.3626 30.4038 14.4187 28.8392 14.7203C29.3312 14.2486 29.9006 14.0163 29.9006 14.0163C29.1627 14.0814 28.2419 14.5632 27.4515 15.0731C27.0531 15.2001 26.6737 15.3437 26.3143 15.5036C26.5343 15.2137 26.7903 14.9037 27.0406 14.6658C27.9696 13.7822 29.3495 13.3248 29.3495 13.3248C28.172 13.2384 24.2307 14.2474 21.859 19.0506C21.4703 19.5243 21.1075 20.0099 20.762 20.4969C19.8699 21.7531 19.9677 22.9063 20.2753 24.2997C20.4065 24.8948 20.4307 25.8446 20.3012 26.4584C20.2753 26.5813 19.9377 26.8988 19.851 27.755C19.7584 28.6635 20.0826 29.1098 20.4023 29.4788C21.5381 27.8182 22.6583 27.4891 22.6583 27.4891C24.2478 26.8378 24.9095 26.1423 26.6109 25.2742C28.9356 24.0882 37.0647 27.9593 42.2305 26.2664C43.8203 25.7456 41.6185 18.9791 42.4863 18.7715C40.0706 16.1008 36.563 14.9221 34.4461 14.6479Z" fill="url(#paint8_linear_4_1390)"/>
<path fill-rule="evenodd" clip-rule="evenodd" d="M50.5715 29.2129C49.2981 22.5603 43.171 16.5078 38.2441 16.1723C36.0573 16.0234 36.7289 17.1444 35.3606 17.5715C29.4641 19.4115 29.374 20.4858 29.374 20.4858C41.8762 21.0734 42.0657 33.4207 38.7175 36.5444C39.6597 36.3247 40.6812 35.1727 41.6194 33.3644C41.5069 34.1231 41.4101 35.0539 41.2695 36.0923C40.8406 39.261 41.396 45.8808 32.2902 50.3105C32.2902 50.3105 37.2715 49.9035 39.7414 47.1227C38.7368 49.4327 35.9805 50.6804 35.9805 50.6804C38.009 50.3837 43.3369 48.8114 46.731 44.5669C50.5723 39.7622 51.7277 35.255 50.5711 29.2127L50.5715 29.2129Z" fill="url(#paint9_linear_4_1390)"/>
<path fill-rule="evenodd" clip-rule="evenodd" d="M38.3876 41.3583C38.3876 41.3583 42.4493 40.2228 43.7579 38.0295C43.5991 40.5868 41.2795 43.2091 41.2795 43.2091C41.2795 43.2091 44.6705 42.5227 46.1164 40.1366C45.9281 42.29 43.3173 45.2001 43.3173 45.2001C45.9864 44.7212 52.6927 40.4849 50.5712 29.2128C49.3183 22.5558 43.1707 16.5077 38.2435 16.1722C36.0567 16.0233 36.7283 17.1443 35.36 17.5714C29.4641 19.4117 29.374 20.4859 29.374 20.4859C41.8762 21.0735 45.1984 27.6169 38.7175 36.37C39.6597 36.1503 40.0374 35.6324 40.7453 34.7852C40.7453 34.7852 41.0659 38.1365 38.3874 41.3586L38.3876 41.3583Z" fill="url(#paint10_linear_4_1390)"/>
<path fill-rule="evenodd" clip-rule="evenodd" d="M22.3258 26.486C22.3258 26.486 21.5998 26.994 21.0739 26.8645C20.4515 26.7118 20.3462 26.1087 20.3462 26.1087C20.3324 26.2322 20.3167 26.3515 20.2937 26.4584C20.2678 26.5814 19.9302 26.8989 19.8436 27.7551C19.7509 28.6636 20.0921 29.1899 20.4118 29.559C21.5475 27.8984 22.6509 27.4891 22.6509 27.4891C22.2184 27.3381 22.3258 26.486 22.3258 26.486Z" fill="#232323"/>
<g opacity="0.6">
<g opacity="0.2">
<path fill-rule="evenodd" clip-rule="evenodd" d="M38.1595 16.1563C38.3296 16.1123 39.0244 16.1878 39.4803 16.3923C39.9363 16.5968 40.7226 16.9583 40.0936 17.1156C39.4646 17.2729 39.1028 17.0212 38.7885 16.7541C38.4741 16.4869 37.735 16.2664 38.1595 16.1563Z" fill="url(#paint11_linear_4_1390)"/>
</g>
</g>
<path fill-rule="evenodd" clip-rule="evenodd" d="M22.3934 26.3869C22.3934 26.3869 26.377 19.8225 29.9781 18.0512C30.3126 17.883 24.9921 19.4655 22.8509 21.8287C21.5782 23.2332 22.2519 25.9835 22.3935 26.3872L22.3934 26.3869Z" fill="#232323"/>
<path opacity="0.1" fill-rule="evenodd" clip-rule="evenodd" d="M22.3936 26.3869C22.3972 26.3845 22.4013 26.3823 22.4052 26.3799C23.4351 25.7434 25.2003 25.377 25.7693 24.2234C27.9599 19.7814 29.9783 18.0511 29.9783 18.0511C26.3771 19.8223 22.3936 26.3869 22.3936 26.3869Z" fill="#F2F2F2"/>
<path fill-rule="evenodd" clip-rule="evenodd" d="M22.7729 25.1862C22.7729 25.1862 22.0551 24.0849 23.0887 23.0803C23.6342 22.551 24.4611 22.8451 24.5567 22.9402C24.9635 23.3436 24.7077 24.1952 24.3416 24.677C24.1347 24.9483 23.5323 25.3709 22.7729 25.1862Z" fill="#2F4282"/>
<path fill-rule="evenodd" clip-rule="evenodd" d="M23.1842 25.1177C23.1842 25.1177 22.6881 24.3561 23.403 23.6623C23.7793 23.2966 24.3509 23.4999 24.4172 23.5653C24.6982 23.844 24.5213 24.4326 24.2684 24.7653C24.1256 24.9536 23.7091 25.2455 23.1842 25.1177Z" fill="url(#paint12_linear_4_1390)"/>
<path fill-rule="evenodd" clip-rule="evenodd" d="M24.1746 24.3054C24.1635 24.6096 23.906 24.8472 23.5994 24.8368C23.2923 24.8262 23.0517 24.5713 23.0629 24.2669C23.0738 23.9627 23.3313 23.7251 23.6386 23.7357C23.945 23.7461 24.185 24.0012 24.1746 24.3054Z" fill="url(#paint13_linear_4_1390)"/>
<path d="M23.2668 24.4477C23.4395 24.4477 23.5795 24.3077 23.5795 24.135C23.5795 23.9623 23.4395 23.8223 23.2668 23.8223C23.0941 23.8223 22.9541 23.9623 22.9541 24.135C22.9541 24.3077 23.0941 24.4477 23.2668 24.4477Z" fill="url(#paint14_linear_4_1390)"/>
<path fill-rule="evenodd" clip-rule="evenodd" d="M48.1609 23.323C45.4342 19.1721 43.2737 18.1175 43.2737 18.1175C43.2737 18.1175 43.3729 21.1411 44.8869 22.5994C45.0599 22.7659 43.0752 21.302 43.0752 21.302C43.0752 21.302 42.6508 22.6986 43.6234 24.3041C43.3409 23.9287 43.1539 23.7867 43.1539 23.7867C43.1539 23.7867 41.3217 24.6315 40.7808 25.8038C40.5015 25.2767 40.2919 24.966 40.2919 24.966C40.2919 24.966 39.0245 27.4952 39.184 30.4275C39.4432 35.1956 38.291 36.9522 38.291 36.9522C38.291 36.9522 41.3773 35.7681 42.8571 31.9562C43.4684 33.577 42.8384 35.2828 42.8384 35.2828C42.8384 35.2828 45.3321 33.4196 45.8683 30.0236C46.4627 30.9821 46.288 32.8954 46.288 32.8954C46.288 32.8954 47.8797 30.6794 47.9184 28.2662C48.656 28.7805 48.724 30.7896 48.724 30.7896C48.724 30.7896 51.0841 27.7724 48.1609 23.323Z" fill="url(#paint15_linear_4_1390)"/>
<path fill-rule="evenodd" clip-rule="evenodd" d="M45.5096 20.4225C44.7969 19.0947 43.5397 18.2484 42.4344 17.5635C39.6787 15.8547 37.9065 15.6149 37.9065 15.6149C37.9065 15.6149 35.3635 16.0877 35.8001 16.7954C35.8226 16.8317 35.8749 16.8776 35.9492 16.9304C33.7184 15.9028 32.4528 18.2655 32.4528 18.2655C31.1782 18.1881 29.6259 18.8156 29.1734 20.4966C29.1265 20.6711 29.7443 20.5728 30.0623 20.642C31.9209 21.0462 33.6706 21.9222 34.4745 22.3552C36.3447 23.3626 37.4541 25.0402 38.0951 26.2987C38.87 27.8212 39.1865 30.4999 39.1865 30.4999C39.1865 30.4999 41.2256 27.6986 40.7385 26.2605C41.5461 26.7622 41.7056 28.5519 41.7056 28.5519C41.7056 28.5519 43.0649 26.4227 42.6632 24.568C43.7118 25.2072 43.7469 26.507 43.7469 26.507C43.7469 26.507 44.8146 25.0252 44.332 22.5944C45.3872 23.4334 45.6081 24.5203 45.6081 24.5203C45.6081 24.5203 46.4704 22.2129 45.5096 20.4225Z" fill="url(#paint16_linear_4_1390)"/>
<defs>
<filter id="filter0_f_4_1390" x="3.2625" y="3.26229" width="57.475" height="57.475" filterUnits="userSpaceOnUse" color-interpolation-filters="sRGB">
<feFlood flood-opacity="0" result="BackgroundImageFix"/>
<feBlend mode="normal" in="SourceGraphic" in2="BackgroundImageFix" result="shape"/>
<feGaussianBlur stdDeviation="0.61875" result="effect1_foregroundBlur_4_1390"/>
</filter>
<linearGradient id="paint0_linear_4_1390" x1="4.5" y1="31.9998" x2="59.5" y2="31.9998" gradientUnits="userSpaceOnUse">
<stop stop-color="#FDFC47"/>
<stop offset="1" stop-color="#24FE41"/>
</linearGradient>
<linearGradient id="paint1_linear_4_1390" x1="4.5" y1="32.0001" x2="59.501" y2="32.0001" gradientUnits="userSpaceOnUse">
<stop stop-color="#FDFC47"/>
<stop offset="1" stop-color="#24FE41"/>
</linearGradient>
<linearGradient id="paint2_linear_4_1390" x1="14.5781" y1="30.9822" x2="49.9183" y2="30.9822" gradientUnits="userSpaceOnUse">
<stop stop-color="#FDFC47"/>
<stop offset="1" stop-color="#24FE41"/>
</linearGradient>
<linearGradient id="paint3_linear_4_1390" x1="16.3271" y1="29.9992" x2="44.6702" y2="29.9992" gradientUnits="userSpaceOnUse">
<stop stop-color="#FDFC47"/>
<stop offset="1" stop-color="#24FE41"/>
</linearGradient>
<linearGradient id="paint4_linear_4_1390" x1="15.8574" y1="43.2257" x2="39.0006" y2="43.2257" gradientUnits="userSpaceOnUse">
<stop stop-color="#FDFC47"/>
<stop offset="1" stop-color="#24FE41"/>
</linearGradient>
<linearGradient id="paint5_linear_4_1390" x1="14.5762" y1="27.9855" x2="21.8791" y2="27.9855" gradientUnits="userSpaceOnUse">
<stop stop-color="#FDFC47"/>
<stop offset="1" stop-color="#24FE41"/>
</linearGradient>
<linearGradient id="paint6_linear_4_1390" x1="13" y1="30.8491" x2="31.1792" y2="30.8491" gradientUnits="userSpaceOnUse">
<stop stop-color="#FDFC47"/>
<stop offset="1" stop-color="#24FE41"/>
</linearGradient>
<linearGradient id="paint7_linear_4_1390" x1="19.8526" y1="22.2286" x2="42.468" y2="22.2286" gradientUnits="userSpaceOnUse">
<stop stop-color="#2061BD"/>
<stop offset="0.1846" stop-color="#2B51AC"/>
<stop offset="0.6826" stop-color="#442C84"/>
<stop offset="0.9409" stop-color="#4E1D75"/>
</linearGradient>
<linearGradient id="paint8_linear_4_1390" x1="19.835" y1="21.3994" x2="42.8248" y2="21.3994" gradientUnits="userSpaceOnUse">
<stop stop-color="#FDFC47"/>
<stop offset="1" stop-color="#24FE41"/>
</linearGradient>
<linearGradient id="paint9_linear_4_1390" x1="29.374" y1="33.4196" x2="50.9993" y2="33.4196" gradientUnits="userSpaceOnUse">
<stop stop-color="#FDFC47"/>
<stop offset="1" stop-color="#24FE41"/>
</linearGradient>
<linearGradient id="paint10_linear_4_1390" x1="29.374" y1="30.6794" x2="50.9795" y2="30.6794" gradientUnits="userSpaceOnUse">
<stop stop-color="#FDFC47"/>
<stop offset="1" stop-color="#24FE41"/>
</linearGradient>
<linearGradient id="paint11_linear_4_1390" x1="40.1139" y1="16.8721" x2="39.0615" y2="15.7451" gradientUnits="userSpaceOnUse">
<stop stop-color="#3092B9"/>
<stop offset="0.2199" stop-color="#258DB6"/>
<stop offset="0.6564" stop-color="#1685B1"/>
<stop offset="1" stop-color="#1082AF"/>
</linearGradient>
<linearGradient id="paint12_linear_4_1390" x1="24.2015" y1="24.581" x2="23.3315" y2="24.1494" gradientUnits="userSpaceOnUse">
<stop stop-color="#F9C21B"/>
<stop offset="0.1479" stop-color="#F3BA1B"/>
<stop offset="0.3787" stop-color="#E3A41B"/>
<stop offset="0.6634" stop-color="#C9801C"/>
<stop offset="0.9884" stop-color="#A44E1C"/>
<stop offset="1" stop-color="#A34C1C"/>
</linearGradient>
<linearGradient id="paint13_linear_4_1390" x1="23.0625" y1="24.2863" x2="24.175" y2="24.2863" gradientUnits="userSpaceOnUse">
<stop stop-color="#FDFC47"/>
<stop offset="1" stop-color="#24FE41"/>
</linearGradient>
<linearGradient id="paint14_linear_4_1390" x1="22.9541" y1="24.135" x2="23.5795" y2="24.135" gradientUnits="userSpaceOnUse">
<stop stop-color="#FDFC47"/>
<stop offset="1" stop-color="#24FE41"/>
</linearGradient>
<linearGradient id="paint15_linear_4_1390" x1="38.291" y1="27.5349" x2="49.6239" y2="27.5349" gradientUnits="userSpaceOnUse">
<stop stop-color="#FDFC47"/>
<stop offset="1" stop-color="#24FE41"/>
</linearGradient>
<linearGradient id="paint16_linear_4_1390" x1="29.1709" y1="23.0574" x2="45.9638" y2="23.0574" gradientUnits="userSpaceOnUse">
<stop stop-color="#FDFC47"/>
<stop offset="1" stop-color="#24FE41"/>
</linearGradient>
</defs>
</svg>
