<svg width="64" height="64" viewBox="0 0 64 64" fill="none" xmlns="http://www.w3.org/2000/svg">
<g clip-path="url(#clip0_4_1329)">
<g opacity="0.3" filter="url(#filter0_f_4_1329)">
<path d="M44.5 4.5H19.5C11.2157 4.5 4.5 11.2157 4.5 19.5V44.5C4.5 52.7843 11.2157 59.5 19.5 59.5H44.5C52.7843 59.5 59.5 52.7843 59.5 44.5V19.5C59.5 11.2157 52.7843 4.5 44.5 4.5Z" fill="url(#paint0_linear_4_1329)"/>
</g>
<path d="M19.5 5H44.5C52.5081 5 59 11.4919 59 19.5V44.5C59 52.5081 52.5081 59 44.5 59H19.5C11.4919 59 5 52.5081 5 44.5V19.5C5 11.4919 11.4919 5 19.5 5Z" fill="#232323" stroke="url(#paint1_linear_4_1329)"/>
<path d="M49.1485 29.089L44.5914 20.5187C44.585 20.5085 44.5785 20.4996 44.5702 20.4905C44.5381 20.4512 44.5025 20.4159 44.4625 20.3877C44.3 20.2718 44.0792 20.2476 43.8882 20.3453C43.7762 20.4029 43.6938 20.4936 43.6457 20.5984C43.6393 20.6073 43.6352 20.6186 43.631 20.6297L41.1676 26.4299L36.2796 28.9348C36.2479 28.951 36.2149 28.968 36.1843 28.985L34.5218 29.8372L33.0732 30.5793L32.6943 29.8673C32.4796 29.4639 31.974 29.3077 31.563 29.5185C31.1533 29.7282 30.9931 30.2254 31.2075 30.6288L31.5867 31.3405L30.1875 32.0575L28.9795 29.7858L31.148 28.6745C31.7048 28.3882 31.9207 27.7134 31.6299 27.1669C31.5837 27.0783 31.5251 26.9986 31.4583 26.929L31.3596 26.8353C31.0165 26.5479 30.5173 26.4772 30.094 26.6941L23.6897 29.9754C23.1321 30.2617 22.9161 30.9362 23.207 31.4839C23.2532 31.5695 23.3077 31.6472 23.3724 31.7157C23.4053 31.7531 23.4423 31.7873 23.4802 31.8177C23.8234 32.103 24.3215 32.1737 24.7439 31.9568L26.9113 30.8466L28.1195 33.1183L26.5755 33.9099L26.1965 33.1982C25.9817 32.7957 25.4741 32.6393 25.0652 32.8491C24.9575 32.9045 24.867 32.9792 24.7951 33.068C24.5968 33.315 24.5517 33.662 24.7097 33.9594L25.0889 34.6714L22.7374 35.8763C22.7056 35.891 22.6726 35.9084 22.6409 35.9246L17.0388 38.7936L15.1281 38.3862C15.1239 38.3841 15.1175 38.3841 15.1134 38.3832C15.0599 38.373 15.0037 38.3811 14.9522 38.4062C14.8382 38.4645 14.7888 38.5968 14.834 38.7117L16.9298 42.6514C16.934 42.6582 16.9404 42.6662 16.9468 42.6726L16.98 42.704C17.0538 42.7644 17.1607 42.7774 17.2532 42.7312C17.3048 42.704 17.3426 42.6634 17.3652 42.6141C17.3671 42.6099 17.3694 42.6062 17.3716 42.6012L18.1391 40.7962L20.3806 39.6468C20.3893 40.272 20.5429 40.9043 20.8573 41.4961C21.933 43.518 24.4756 44.3015 26.5363 43.2457C26.5681 43.2294 26.6011 43.2124 26.632 43.1952L28.9835 41.9902L29.4231 42.8171C29.6367 43.2193 30.1453 43.3758 30.5541 43.166C30.9641 42.9562 31.1243 42.4581 30.9097 42.0556L30.47 41.2299L32.0139 40.4383L33.296 42.8494C33.5949 43.4111 34.2986 43.6277 34.8709 43.3343C35.0311 43.2527 35.1636 43.1397 35.2634 43.0077C35.5253 42.6659 35.5798 42.1938 35.365 41.7895L34.0828 39.3785L35.4821 38.6616L35.9217 39.4876C36.1355 39.8898 36.6429 40.0471 37.0527 39.8364C37.4637 39.6257 37.622 39.1275 37.4082 38.7261L36.9686 37.8994L40.2127 36.2366C40.4366 36.1186 40.6452 35.9844 40.8384 35.8342C42.3948 34.628 42.9083 32.4701 41.9582 30.6834C41.6437 30.0925 41.2031 29.6074 40.6864 29.2414L42.2161 28.4579L48.5083 29.796C48.5211 29.799 48.531 29.8021 48.5423 29.8028C48.6583 29.824 48.7817 29.8096 48.8926 29.7524C49.1391 29.6272 49.2461 29.3402 49.1485 29.089ZM25.5062 41.2066C25.4911 41.2152 25.4786 41.2213 25.463 41.2296C24.5363 41.7046 23.3951 41.3526 22.9123 40.443C22.4293 39.5346 22.7869 38.4143 23.7115 37.9402L26.1617 36.685L27.911 39.9744L25.5062 41.2066ZM29.3966 39.2131L27.6473 35.9237L27.7499 35.8723L29.1923 35.1331L30.9416 38.4225L30.6129 38.591L29.3966 39.2131ZM33.0107 37.3616L31.2611 34.0723L32.6604 33.3553L34.41 36.6447L33.0107 37.3616ZM38.8139 34.3839C38.7928 34.3968 38.7731 34.4089 38.7514 34.4191L35.8955 35.8833L34.1459 32.5939L36.2754 31.5018L36.9575 31.153C36.9934 31.1345 37.0305 31.1178 37.0673 31.1006C37.9715 30.7053 39.044 31.0654 39.5083 31.9386C39.9183 32.707 39.7239 33.6275 39.0942 34.1802C39.0101 34.2558 38.9165 34.3244 38.8139 34.3839Z" fill="url(#paint2_linear_4_1329)"/>
</g>
<defs>
<filter id="filter0_f_4_1329" x="3.2625" y="3.2625" width="57.475" height="57.475" filterUnits="userSpaceOnUse" color-interpolation-filters="sRGB">
<feFlood flood-opacity="0" result="BackgroundImageFix"/>
<feBlend mode="normal" in="SourceGraphic" in2="BackgroundImageFix" result="shape"/>
<feGaussianBlur stdDeviation="0.61875" result="effect1_foregroundBlur_4_1329"/>
</filter>
<linearGradient id="paint0_linear_4_1329" x1="4.5" y1="32" x2="59.5" y2="32" gradientUnits="userSpaceOnUse">
<stop stop-color="#FDFC47"/>
<stop offset="1" stop-color="#24FE41"/>
</linearGradient>
<linearGradient id="paint1_linear_4_1329" x1="4.5" y1="32" x2="59.5" y2="32" gradientUnits="userSpaceOnUse">
<stop stop-color="#FDFC47"/>
<stop offset="1" stop-color="#24FE41"/>
</linearGradient>
<linearGradient id="paint2_linear_4_1329" x1="14.8174" y1="32" x2="49.1834" y2="32" gradientUnits="userSpaceOnUse">
<stop stop-color="#FDFC47"/>
<stop offset="1" stop-color="#24FE41"/>
</linearGradient>
<clipPath id="clip0_4_1329">
<rect width="64" height="64" fill="white"/>
</clipPath>
</defs>
</svg>
