<svg width="64" height="64" viewBox="0 0 64 64" fill="none" xmlns="http://www.w3.org/2000/svg">
<g opacity="0.3" filter="url(#filter0_f_4_1265)">
<path d="M44.5 4.5H19.5C11.2157 4.5 4.5 11.2157 4.5 19.5V44.5C4.5 52.7843 11.2157 59.5 19.5 59.5H44.5C52.7843 59.5 59.5 52.7843 59.5 44.5V19.5C59.5 11.2157 52.7843 4.5 44.5 4.5Z" fill="url(#paint0_linear_4_1265)"/>
</g>
<path d="M19.395 5H44.605C52.5551 5 59 11.4449 59 19.395V44.605C59 52.5551 52.5551 59 44.605 59H19.395C11.4449 59 5 52.5551 5 44.605V19.395C5 11.4449 11.4449 5 19.395 5Z" fill="#232323" stroke="url(#paint1_linear_4_1265)"/>
<path d="M35.9098 16.964H28.0858C27.3642 16.964 26.7793 17.5489 26.7793 18.2705V31.3105C26.7793 32.032 27.3642 32.617 28.0858 32.617H35.9098C36.6314 32.617 37.2163 32.032 37.2163 31.3105V18.2705C37.2163 17.5489 36.6314 16.964 35.9098 16.964Z" fill="url(#paint2_linear_4_1265)"/>
<path d="M16.3467 31.311H47.6537L32.0007 46.964L16.3467 31.311Z" fill="url(#paint3_linear_4_1265)"/>
<defs>
<filter id="filter0_f_4_1265" x="3.2625" y="3.2625" width="57.475" height="57.475" filterUnits="userSpaceOnUse" color-interpolation-filters="sRGB">
<feFlood flood-opacity="0" result="BackgroundImageFix"/>
<feBlend mode="normal" in="SourceGraphic" in2="BackgroundImageFix" result="shape"/>
<feGaussianBlur stdDeviation="0.61875" result="effect1_foregroundBlur_4_1265"/>
</filter>
<linearGradient id="paint0_linear_4_1265" x1="4.5" y1="32" x2="59.5" y2="32" gradientUnits="userSpaceOnUse">
<stop stop-color="#FDFC47"/>
<stop offset="1" stop-color="#24FE41"/>
</linearGradient>
<linearGradient id="paint1_linear_4_1265" x1="4.5" y1="32" x2="59.5" y2="32" gradientUnits="userSpaceOnUse">
<stop stop-color="#FDFC47"/>
<stop offset="1" stop-color="#24FE41"/>
</linearGradient>
<linearGradient id="paint2_linear_4_1265" x1="26.7793" y1="24.7905" x2="37.2163" y2="24.7905" gradientUnits="userSpaceOnUse">
<stop stop-color="#FDFC47"/>
<stop offset="1" stop-color="#24FE41"/>
</linearGradient>
<linearGradient id="paint3_linear_4_1265" x1="16.3467" y1="39.1375" x2="47.6537" y2="39.1375" gradientUnits="userSpaceOnUse">
<stop stop-color="#FDFC47"/>
<stop offset="1" stop-color="#24FE41"/>
</linearGradient>
</defs>
</svg>
