<svg width="64" height="64" viewBox="0 0 64 64" fill="none" xmlns="http://www.w3.org/2000/svg">
<g clip-path="url(#clip0_4_1138)">
<g opacity="0.3" filter="url(#filter0_f_4_1138)">
<path d="M44.5 4.5H19.5C11.2157 4.5 4.5 11.2157 4.5 19.5V44.5C4.5 52.7843 11.2157 59.5 19.5 59.5H44.5C52.7843 59.5 59.5 52.7843 59.5 44.5V19.5C59.5 11.2157 52.7843 4.5 44.5 4.5Z" fill="url(#paint0_linear_4_1138)"/>
</g>
<path d="M19.5 5H44.5C52.5081 5 59 11.4919 59 19.5V44.5C59 52.5081 52.5081 59 44.5 59H19.5C11.4919 59 5 52.5081 5 44.5V19.5C5 11.4919 11.4919 5 19.5 5Z" fill="#232323" stroke="url(#paint1_linear_4_1138)"/>
<path d="M32.2461 14.5C32.0466 14.5004 31.8621 14.5872 31.7699 14.7299L28.3218 20.0695C28.2362 20.2025 28.2417 20.3647 28.3382 20.4931C28.4351 20.6219 28.6084 20.6997 28.7947 20.7L30.5319 20.7033L30.4991 36.0193L25.1233 33.09L25.1263 30.7945C25.9606 30.3511 26.5135 29.5876 26.5154 28.7223C26.5184 27.3493 25.1403 26.2349 23.4351 26.2331C21.7331 26.2299 20.3517 27.3427 20.3482 28.7157C20.3452 29.5816 20.8949 30.3421 21.7274 30.7879L21.7214 33.8157C21.7204 34.2721 22.0002 34.6971 22.4701 34.9519L30.4927 39.3195L30.4827 44.0418C29.3513 44.5305 28.5738 45.4827 28.5715 46.5901C28.5695 48.1952 30.1791 49.4963 32.1707 49.4997C34.1646 49.5024 35.7829 48.2057 35.7863 46.6C35.7893 45.4929 35.011 44.5409 33.8816 44.0484L33.9013 35.0669L41.5495 30.9357C41.6413 30.886 41.7256 30.8299 41.8023 30.7682C42.1183 30.5145 42.3009 30.1665 42.3015 29.7995L42.3085 26.1773H42.9686C43.1481 26.1772 43.3177 26.1217 43.4447 26.0196C43.5717 25.9177 43.6444 25.7802 43.6451 25.6354L43.6511 21.8359C43.6521 21.5347 43.3514 21.291 42.9778 21.2908L38.2655 21.2843C38.0859 21.2844 37.9129 21.3432 37.786 21.4452C37.6591 21.5472 37.5864 21.6847 37.5857 21.8294L37.5797 25.6256C37.5777 25.9265 37.8828 26.1709 38.2562 26.1707L38.913 26.174L38.907 29.0671L33.9089 31.7665L33.9319 20.7065L35.6724 20.7098C35.8587 20.7101 36.029 20.6309 36.1255 20.5029C36.2229 20.3743 36.2308 20.2162 36.1452 20.0826L32.7201 14.7298C32.6283 14.5875 32.4465 14.5005 32.2473 14.4999L32.2461 14.5Z" fill="url(#paint2_linear_4_1138)"/>
<path d="M62.1103 50.1848C62.1103 56.7473 56.7117 62.1103 49.9988 62.1103C43.2859 62.1103 37.8873 56.7473 37.8873 50.1848C37.8873 43.6223 43.2859 38.2593 49.9988 38.2593C56.7117 38.2593 62.1103 43.6223 62.1103 50.1848Z" fill="#232323" stroke="url(#paint3_linear_4_1138)" stroke-width="3.77953"/>
<path fill-rule="evenodd" clip-rule="evenodd" d="M47.0716 42.8853C46.7403 42.8853 46.4728 43.1518 46.4728 43.4831V48.5201L43.8954 48.5375C43.7169 48.5387 43.5423 48.5906 43.3922 48.6871C43.242 48.7837 43.1223 48.9209 43.0471 49.0828C42.9719 49.2447 42.9443 49.4247 42.9674 49.6017C42.9905 49.7788 43.0635 49.9456 43.1778 50.0827L49.3452 57.5131C49.4344 57.6209 49.5466 57.7076 49.6734 57.7666C49.8003 57.8257 49.9388 57.8558 50.0788 57.8547C50.2187 57.8536 50.3567 57.8213 50.4826 57.7602C50.6085 57.699 50.7193 57.6106 50.8067 57.5014L56.831 49.9836C56.9423 49.8444 57.0119 49.6766 57.0316 49.4996C57.0514 49.3225 57.0205 49.1435 56.9426 48.9832C56.8648 48.823 56.7431 48.6881 56.5916 48.5943C56.4402 48.5004 56.2653 48.4514 56.0871 48.4529L53.5234 48.4703V43.483C53.5234 43.1517 53.2568 42.8851 52.9255 42.8851L47.0716 42.8853Z" fill="url(#paint4_linear_4_1138)"/>
</g>
<defs>
<filter id="filter0_f_4_1138" x="3.2625" y="3.2625" width="57.475" height="57.475" filterUnits="userSpaceOnUse" color-interpolation-filters="sRGB">
<feFlood flood-opacity="0" result="BackgroundImageFix"/>
<feBlend mode="normal" in="SourceGraphic" in2="BackgroundImageFix" result="shape"/>
<feGaussianBlur stdDeviation="0.61875" result="effect1_foregroundBlur_4_1138"/>
</filter>
<linearGradient id="paint0_linear_4_1138" x1="4.5" y1="32" x2="59.5" y2="32" gradientUnits="userSpaceOnUse">
<stop stop-color="#FDFC47"/>
<stop offset="1" stop-color="#24FE41"/>
</linearGradient>
<linearGradient id="paint1_linear_4_1138" x1="4.5" y1="32" x2="59.5" y2="32" gradientUnits="userSpaceOnUse">
<stop stop-color="#FDFC47"/>
<stop offset="1" stop-color="#24FE41"/>
</linearGradient>
<linearGradient id="paint2_linear_4_1138" x1="20.3481" y1="31.9998" x2="43.6511" y2="31.9998" gradientUnits="userSpaceOnUse">
<stop stop-color="#FDFC47"/>
<stop offset="1" stop-color="#24FE41"/>
</linearGradient>
<linearGradient id="paint3_linear_4_1138" x1="35.9976" y1="50.1848" x2="64.0001" y2="50.1848" gradientUnits="userSpaceOnUse">
<stop stop-color="#FDFC47"/>
<stop offset="1" stop-color="#24FE41"/>
</linearGradient>
<linearGradient id="paint4_linear_4_1138" x1="42.9595" y1="50.3699" x2="57.0374" y2="50.3699" gradientUnits="userSpaceOnUse">
<stop stop-color="#FDFC47"/>
<stop offset="1" stop-color="#24FE41"/>
</linearGradient>
<clipPath id="clip0_4_1138">
<rect width="64" height="64" fill="white"/>
</clipPath>
</defs>
</svg>
