<svg width="64" height="64" viewBox="0 0 64 64" fill="none" xmlns="http://www.w3.org/2000/svg">
<g clip-path="url(#clip0_4_1107)">
<g opacity="0.3" filter="url(#filter0_f_4_1107)">
<path d="M44.5 4.5H19.5C11.2157 4.5 4.5 11.2157 4.5 19.5V44.5C4.5 52.7843 11.2157 59.5 19.5 59.5H44.5C52.7843 59.5 59.5 52.7843 59.5 44.5V19.5C59.5 11.2157 52.7843 4.5 44.5 4.5Z" fill="url(#paint0_linear_4_1107)"/>
</g>
<path d="M19.5 5H44.5C52.5081 5 59 11.4919 59 19.5V44.5C59 52.5081 52.5081 59 44.5 59H19.5C11.4919 59 5 52.5081 5 44.5V19.5C5 11.4919 11.4919 5 19.5 5Z" fill="#232323" stroke="url(#paint1_linear_4_1107)"/>
<path d="M37.8847 23.9767C37.8404 23.9781 37.7961 23.9801 37.7519 23.9826V25.6232C37.7742 25.6503 37.8348 25.6466 37.8554 25.674C38.274 26.2308 38.4528 26.8676 38.4531 27.5275C38.4529 28.1874 38.274 28.8242 37.8554 29.381C37.6438 29.6626 37.1599 29.7221 36.7988 29.9201C36.6714 30.3854 36.6381 30.8239 36.3945 31.3068C36.3494 31.3967 36.2964 31.4845 36.2383 31.5666L35.3906 32.7541L43.7167 37.959C43.8078 38.0159 43.8937 38.0796 43.9745 38.1504C45.6883 39.6601 46.4355 41.5909 46.2636 43.2479H46.4491C47.6443 43.2479 49.3448 41.3916 47.0975 39.1444L39.7247 34.5352L41.1973 32.461C41.4231 31.9529 41.5313 31.4758 41.5704 31.043H41.9825V31.041C42.1088 31.0292 42.2269 30.954 42.3132 30.8308C42.3995 30.7076 42.4474 30.5454 42.4474 30.3769C42.4474 30.2085 42.3995 30.0463 42.3132 29.9231C42.2269 29.7999 42.1088 29.7247 41.9825 29.7129V27.0097H41.9746C41.9455 26.1981 41.5019 25.4271 40.7382 24.8607C39.9745 24.2942 38.9506 23.9772 37.8847 23.9767ZM33.4335 36.246L28.7948 39.1445C26.2801 41.3598 28.2255 43.248 29.4432 43.248H41.8044C41.9419 43.1572 42.2397 42.9997 42.3064 42.8456C42.4026 42.6235 42.577 42.2972 41.3611 41.1992L33.4335 36.246Z" fill="url(#paint2_linear_4_1107)"/>
<path d="M30.0659 18.6728C28.5915 18.6739 27.1759 19.113 26.12 19.8969C25.064 20.6807 24.4511 21.7473 24.4116 22.87H24.3999V26.6064C24.3947 26.6063 24.3895 26.6063 24.3842 26.6064C24.2009 26.6064 24.0251 26.7034 23.8954 26.8759C23.7658 27.0484 23.6929 27.2823 23.6928 27.5263C23.6929 27.7703 23.7658 28.0042 23.8954 28.1767C24.0251 28.3492 24.2009 28.4461 24.3842 28.4462C24.3895 28.4463 24.3947 28.4463 24.3999 28.4462H24.9702C25.0282 29.0474 25.192 29.7086 25.5444 30.4071L27.6186 33.3251L17.4957 39.6533C14.0177 42.7172 16.708 45.3272 18.3922 45.3272H41.9123C43.5654 45.3272 45.9168 42.7615 42.8088 39.6533L32.6095 33.2763L34.6486 30.4072C34.9609 29.7045 35.1102 29.0448 35.1642 28.4463H35.7326V28.4443C35.7333 28.4443 35.7339 28.4443 35.7346 28.4443C35.9091 28.4278 36.0724 28.3239 36.1916 28.1536C36.3109 27.9832 36.3772 27.7591 36.3772 27.5263C36.3771 27.2931 36.3106 27.0686 36.1909 26.8982C36.0713 26.7278 35.9075 26.6242 35.7326 26.6083V22.8701H35.7228C35.6833 21.7472 35.0701 20.6803 34.0138 19.8964C32.9575 19.1126 31.5406 18.6735 30.0659 18.6728Z" fill="url(#paint3_linear_4_1107)"/>
</g>
<defs>
<filter id="filter0_f_4_1107" x="3.2625" y="3.2625" width="57.475" height="57.475" filterUnits="userSpaceOnUse" color-interpolation-filters="sRGB">
<feFlood flood-opacity="0" result="BackgroundImageFix"/>
<feBlend mode="normal" in="SourceGraphic" in2="BackgroundImageFix" result="shape"/>
<feGaussianBlur stdDeviation="0.61875" result="effect1_foregroundBlur_4_1107"/>
</filter>
<linearGradient id="paint0_linear_4_1107" x1="4.5" y1="32" x2="59.5" y2="32" gradientUnits="userSpaceOnUse">
<stop stop-color="#FDFC47"/>
<stop offset="1" stop-color="#24FE41"/>
</linearGradient>
<linearGradient id="paint1_linear_4_1107" x1="4.5" y1="32" x2="59.5" y2="32" gradientUnits="userSpaceOnUse">
<stop stop-color="#FDFC47"/>
<stop offset="1" stop-color="#24FE41"/>
</linearGradient>
<linearGradient id="paint2_linear_4_1107" x1="27.5708" y1="33.6123" x2="48.1976" y2="33.6123" gradientUnits="userSpaceOnUse">
<stop stop-color="#FDFC47"/>
<stop offset="1" stop-color="#24FE41"/>
</linearGradient>
<linearGradient id="paint3_linear_4_1107" x1="15.8027" y1="32" x2="44.3302" y2="32" gradientUnits="userSpaceOnUse">
<stop stop-color="#FDFC47"/>
<stop offset="1" stop-color="#24FE41"/>
</linearGradient>
<clipPath id="clip0_4_1107">
<rect width="64" height="64" fill="white"/>
</clipPath>
</defs>
</svg>
