<svg width="64" height="64" viewBox="0 0 64 64" fill="none" xmlns="http://www.w3.org/2000/svg">
<g opacity="0.3" filter="url(#filter0_f_4_1055)">
<path d="M44.5 4.5H19.5C11.2157 4.5 4.5 11.2157 4.5 19.5V44.5C4.5 52.7843 11.2157 59.5 19.5 59.5H44.5C52.7843 59.5 59.5 52.7843 59.5 44.5V19.5C59.5 11.2157 52.7843 4.5 44.5 4.5Z" fill="url(#paint0_linear_4_1055)"/>
</g>
<path d="M19.5 5H44.5C52.5081 5 59 11.4919 59 19.5V44.5C59 52.5081 52.5081 59 44.5 59H19.5C11.4919 59 5 52.5081 5 44.5V19.5C5 11.4919 11.4919 5 19.5 5Z" fill="#232323" stroke="url(#paint1_linear_4_1055)"/>
<path opacity="0.1" d="M45.8207 14.8567C45.4838 14.8499 45.0622 14.911 44.5336 15.0305L35.6683 16.8293L35.4749 16.8684L27.428 18.4563C25.9493 18.7724 25.6626 19.5971 25.6975 20.9016V21.3997C25.6648 20.1026 25.9541 19.2812 27.428 18.9661L35.4749 17.3781L35.6683 17.3391L44.5336 15.5403C45.0622 15.4208 45.4838 15.3596 45.8207 15.3664V15.3684C46.8314 15.3886 47.0701 16.008 47.0707 17.4016V16.8919C47.0701 15.4983 46.8314 14.8789 45.8207 14.8587V14.8567ZM27.8636 28.9758C27.8552 29.2073 27.8668 29.4673 27.8656 29.7648V29.2551C27.866 29.1506 27.865 29.0719 27.8636 28.9758ZM44.9167 37.4914C44.8493 38.9148 44.7053 39.5685 43.0632 39.8312C37.2365 40.6985 36.0901 42.6348 36.1256 45.2004C36.1264 45.255 36.1406 45.3045 36.1432 45.3586C36.2224 42.9705 37.5098 41.1657 43.0631 40.3391C44.7096 40.0756 44.8494 39.4205 44.9166 37.9894L44.9167 37.4914ZM25.7215 41.2708C25.6542 42.6978 25.4963 43.4824 23.8524 43.7454C18.0258 44.6127 16.895 46.416 16.9305 48.9817C16.9312 49.0373 16.9454 49.0888 16.9481 49.1438C17.026 46.7671 18.2992 45.0817 23.8524 44.2551C25.4988 43.9917 25.6543 43.2057 25.7215 41.7746L25.7215 41.2708ZM27.8896 45.4524V45.9622C27.9099 46.3025 27.9127 46.6371 27.9149 46.97C27.926 46.4775 27.9204 45.969 27.8896 45.4524Z" fill="url(#paint2_linear_4_1055)"/>
<path d="M31.9975 11.8448C25.3093 11.8448 19.8708 17.1171 19.8708 23.5999V26.9599H17.2693C16.7902 26.9599 16.4038 27.3352 16.4038 27.7999V48.7951C16.4038 50.6479 17.9592 52.1552 19.8708 52.1552H44.1293C46.0408 52.1552 47.5962 50.6479 47.5962 48.7951V27.7999C47.5962 27.3352 47.2048 26.9599 46.7257 26.9599H44.1293V23.5999C44.1293 17.1171 38.6868 11.8448 31.9975 11.8448ZM31.9975 14.1103C36.8377 14.1103 40.7692 17.7642 40.7692 22.261C40.7692 26.7577 35.4478 32.3258 30.6076 32.3258C29.701 32.3258 34.6594 28.3915 34.0033 28.0443C32.8563 28.8768 31.4544 29.3832 29.9254 29.3832C26.0975 29.3832 22.9915 26.2997 22.9915 22.5053C22.9915 21.2996 23.3317 20.1868 23.8825 19.2013C25.1858 16.2199 28.3233 14.1103 31.9975 14.1103ZM31.9975 33.68C33.9091 33.68 35.4644 35.1861 35.4644 37.0401C35.4644 38.1255 34.9365 39.1166 34.0491 39.7434C34.0854 40.0604 34.266 41.6457 34.5939 44.5034C34.5595 44.8205 34.4842 45.0414 34.375 45.1602C34.2104 45.3379 33.9796 45.4402 33.7335 45.4402H30.2665C30.0203 45.4402 29.7845 45.3379 29.62 45.1602C29.4566 44.9825 29.3786 44.7412 29.4062 44.5034C29.4604 44.0279 29.8956 40.2189 29.9509 39.7434C29.0636 39.1166 28.5356 38.1255 28.5356 37.0401C28.5356 35.1873 30.0859 33.68 31.9975 33.68Z" fill="#232323" stroke="url(#paint3_linear_4_1055)"/>
<defs>
<filter id="filter0_f_4_1055" x="3.2625" y="3.2625" width="57.475" height="57.475" filterUnits="userSpaceOnUse" color-interpolation-filters="sRGB">
<feFlood flood-opacity="0" result="BackgroundImageFix"/>
<feBlend mode="normal" in="SourceGraphic" in2="BackgroundImageFix" result="shape"/>
<feGaussianBlur stdDeviation="0.61875" result="effect1_foregroundBlur_4_1055"/>
</filter>
<linearGradient id="paint0_linear_4_1055" x1="4.5" y1="32" x2="59.5" y2="32" gradientUnits="userSpaceOnUse">
<stop stop-color="#FDFC47"/>
<stop offset="1" stop-color="#24FE41"/>
</linearGradient>
<linearGradient id="paint1_linear_4_1055" x1="4.5" y1="32" x2="59.5" y2="32" gradientUnits="userSpaceOnUse">
<stop stop-color="#FDFC47"/>
<stop offset="1" stop-color="#24FE41"/>
</linearGradient>
<linearGradient id="paint2_linear_4_1055" x1="16.9297" y1="32" x2="47.0707" y2="32" gradientUnits="userSpaceOnUse">
<stop stop-color="#FDFC47"/>
<stop offset="1" stop-color="#24FE41"/>
</linearGradient>
<linearGradient id="paint3_linear_4_1055" x1="16.4038" y1="32" x2="47.5962" y2="32" gradientUnits="userSpaceOnUse">
<stop stop-color="#FDFC47"/>
<stop offset="1" stop-color="#24FE41"/>
</linearGradient>
</defs>
</svg>
