<svg width="64" height="64" viewBox="0 0 64 64" fill="none" xmlns="http://www.w3.org/2000/svg">
<g opacity="0.3" filter="url(#filter0_f_4_1049)">
<path d="M44.5003 4.49878H19.4992C11.2146 4.49878 4.49854 11.2148 4.49854 19.4995V44.5006C4.49854 52.7852 11.2146 59.5012 19.4992 59.5012H44.5003C52.785 59.5012 59.501 52.7852 59.501 44.5006V19.4995C59.501 11.2148 52.785 4.49878 44.5003 4.49878Z" fill="url(#paint0_linear_4_1049)"/>
</g>
<path d="M19.5005 4.99882H44.5003C52.5087 4.99882 59.0008 11.4909 59.0008 19.4993V44.4991C59.0008 52.5075 52.5087 58.9996 44.5003 58.9996H19.5005C11.4921 58.9996 5.00001 52.5075 5.00001 44.4991V19.4993C5.00001 11.4909 11.4921 4.99882 19.5005 4.99882Z" fill="#232323" stroke="url(#paint1_linear_4_1049)"/>
<path d="M32.0018 17.3762C28.3662 17.3762 25.3053 20.3267 25.3053 24.1237C25.3053 25.8852 26.0916 27.4525 27.1603 28.6257H20.5065C19.3996 28.6257 18.4985 29.4307 18.4985 30.4131V44.8679C18.4985 45.8458 19.3996 46.6238 20.5065 46.6238H43.4972C44.5996 46.6238 45.5006 45.8469 45.5006 44.8679V30.4131C45.5006 29.4307 44.5996 28.6257 43.4972 28.6257H36.8344C37.9031 27.4547 38.7006 25.8874 38.7006 24.1237C38.7006 20.3244 35.6364 17.3762 32.0018 17.3762ZM32.0018 19.6216C34.5812 19.6216 36.5543 21.7199 36.5543 24.1237C36.5543 26.5251 34.5823 28.6257 32.0018 28.6257C29.4224 28.6257 27.4516 26.5274 27.4516 24.1237C27.4516 21.7222 29.4213 19.6216 32.0018 19.6216ZM30.8769 30.8711H33.1267C36.5014 30.8711 36.5014 33.706 36.5014 33.706V36.4948C36.5014 37.6175 34.2516 39.3195 34.2516 39.3195V41.0036L37.6263 42.1263V44.3672H26.3773V42.1263L29.752 41.0036V39.3195C29.752 39.3195 27.5022 37.622 27.5022 36.4948V33.706C27.5022 33.706 27.5022 30.8711 30.8769 30.8711Z" fill="url(#paint2_linear_4_1049)"/>
<defs>
<filter id="filter0_f_4_1049" x="3.261" y="3.26125" width="57.4775" height="57.4775" filterUnits="userSpaceOnUse" color-interpolation-filters="sRGB">
<feFlood flood-opacity="0" result="BackgroundImageFix"/>
<feBlend mode="normal" in="SourceGraphic" in2="BackgroundImageFix" result="shape"/>
<feGaussianBlur stdDeviation="0.618766" result="effect1_foregroundBlur_4_1049"/>
</filter>
<linearGradient id="paint0_linear_4_1049" x1="4.49854" y1="32" x2="59.501" y2="32" gradientUnits="userSpaceOnUse">
<stop stop-color="#FDFC47"/>
<stop offset="1" stop-color="#24FE41"/>
</linearGradient>
<linearGradient id="paint1_linear_4_1049" x1="4.5" y1="31.9992" x2="59.5008" y2="31.9992" gradientUnits="userSpaceOnUse">
<stop stop-color="#FDFC47"/>
<stop offset="1" stop-color="#24FE41"/>
</linearGradient>
<linearGradient id="paint2_linear_4_1049" x1="18.4985" y1="32" x2="45.5006" y2="32" gradientUnits="userSpaceOnUse">
<stop stop-color="#FDFC47"/>
<stop offset="1" stop-color="#24FE41"/>
</linearGradient>
</defs>
</svg>
