<svg width="64" height="64" viewBox="0 0 64 64" fill="none" xmlns="http://www.w3.org/2000/svg">
<g clip-path="url(#clip0_4_1006)">
<path opacity="0.01" d="M16.5144 2C8.52359 2 2 8.74092 2 16.9982V49.002C2 57.2589 8.52359 64.0002 16.5144 64.0002H47.486C55.4768 64.0002 62.0004 57.2593 62.0004 49.002V16.9982C62.0004 8.74129 55.4768 2 47.486 2H16.5144ZM17.4859 3.96876H46.5163C53.487 3.96876 59.0989 9.76742 59.0989 16.9706V46.9685C59.0989 54.1717 53.4874 59.9703 46.5163 59.9703H17.4859C10.5152 59.9703 4.90326 54.1717 4.90326 46.9685V16.9706C4.90326 9.76742 10.5148 3.96876 17.4859 3.96876Z" fill="url(#paint0_linear_4_1006)"/>
<path opacity="0.01" d="M16.4745 2.99997C9.04079 2.99997 3.00439 9.24689 3.00439 16.9376V49.0627C3.00439 56.7534 9.04079 63.0004 16.4745 63.0004H47.5285C54.9622 63.0004 61.0005 56.7534 61.0005 49.0627V16.9376C61.0005 9.24689 54.9622 2.99997 47.5285 2.99997H16.4745ZM17.5034 3.96872H46.4997C53.4625 3.96872 59.0673 9.76738 59.0673 16.9705V46.9685C59.0673 54.1716 53.4621 59.9703 46.4997 59.9703H17.5034C10.5406 59.9703 4.93585 54.1716 4.93585 46.9685V16.9705C4.93585 9.76738 10.541 3.96872 17.5034 3.96872Z" fill="url(#paint1_linear_4_1006)"/>
<path opacity="0.03" d="M16.2892 3.99994C9.23764 3.99994 3.53271 9.8141 3.53271 16.998V49.0017C3.53271 56.1856 9.46669 61.9998 16.5183 61.9998H47.5095C54.5611 61.9998 60.4637 56.1856 60.4637 49.0017V16.998C60.4637 9.8141 54.7565 3.99994 47.7053 3.99994H47.3391C54.1197 4.32693 59.486 9.97889 59.486 16.9708V46.9687C59.486 54.1719 53.7943 59.9705 46.7238 59.9705H17.2788C10.2083 59.9705 4.51662 54.1719 4.51662 46.9687V16.9708C4.51662 9.97927 9.88327 4.32763 16.6635 3.99994H16.2892Z" fill="url(#paint2_linear_4_1006)"/>
<path opacity="0.03" d="M4.00049 46.9693V49.0005C4.00049 55.6485 9.89623 61.0006 16.5446 61.0006H47.5058C54.1537 61.0006 60.0009 55.6485 60.0009 49.0005V47.0083C59.9797 54.1932 54.1908 59.9714 47.0008 59.9714H17.0026C9.79933 59.9714 4.00049 54.1726 4.00049 46.9693Z" fill="url(#paint3_linear_4_1006)"/>
<path opacity="0.05" d="M4.00049 44.9999V47.2387C4.00049 54.5659 9.94542 60.4647 16.5934 60.4647H47.436C54.084 60.4647 60.0006 54.5655 60.0006 47.2387V45.043C59.9794 52.962 54.1906 59.3302 47.0006 59.3302H17.0027C9.79953 59.3302 4.00049 52.939 4.00049 44.9999Z" fill="url(#paint4_linear_4_1006)"/>
<path d="M17.002 4.5H46.998C53.9027 4.5 59.5 10.0973 59.5 17.002V46.998C59.5 53.9027 53.9027 59.5 46.998 59.5H17.002C10.0973 59.5 4.5 53.9027 4.5 46.998V17.002C4.5 10.0973 10.0973 4.5 17.002 4.5Z" fill="#232323" stroke="url(#paint5_linear_4_1006)"/>
<g opacity="0.15" filter="url(#filter0_f_4_1006)">
<path d="M34.3539 19.2908C33.7518 19.2908 33.2521 19.7717 33.2464 20.3545C33.2429 20.94 33.7426 21.4323 34.3491 21.4353C36.9662 21.455 39.1181 22.2821 40.8533 23.9134C42.5681 25.5295 43.462 27.7685 43.4847 30.6903C43.4908 31.2715 43.9909 31.7541 44.5947 31.7541C44.5947 31.7541 44.606 31.7518 44.607 31.7516C45.2121 31.746 45.7146 31.2582 45.7097 30.6732C45.6954 28.9702 45.4186 27.4021 44.877 26.0241C44.3289 24.6318 43.4957 23.3998 42.4087 22.3752C40.2619 20.3563 37.5195 19.3134 34.3636 19.2911L34.3539 19.2908ZM23.1127 21.8102C22.6904 21.7384 22.233 21.8169 21.7762 22.0366H21.74L21.6889 22.0658C20.8424 22.5469 20.0489 23.192 19.3058 24.001L19.2474 24.0642V24.1227C18.7331 24.7638 18.3933 25.409 18.315 26.0554C18.2901 26.165 18.2905 26.2638 18.2905 26.3695C18.2905 26.6635 18.3339 26.9624 18.4244 27.2555L18.4489 27.3383L18.5 27.3675C18.7936 28.3747 19.4597 29.942 20.9173 32.5961C21.888 34.3553 22.88 35.8248 23.8651 37.063C24.384 37.7137 24.9719 38.3912 25.6542 39.0737C25.6622 39.0818 25.6909 39.1112 25.7223 39.1394C25.7332 39.1501 25.7482 39.1727 25.7856 39.21L25.8537 39.2782H25.8584C25.8825 39.3021 25.8985 39.3196 25.9022 39.3244L25.9145 39.339L25.9267 39.3513C26.6091 40.0262 27.282 40.6176 27.9398 41.1332C29.176 42.1184 30.6452 43.1182 32.4041 44.0907C35.0613 45.5566 36.6434 46.2192 37.645 46.5079L37.6817 46.5518L37.7426 46.5735C38.0263 46.6681 38.3216 46.7118 38.614 46.7073C38.7326 46.7141 38.8376 46.7055 38.9377 46.683C39.6238 46.6028 40.3031 46.278 40.9752 45.7142L40.9827 45.7042L40.9901 45.6993C41.0005 45.689 40.9943 45.6942 41.0002 45.687C41.0063 45.6819 41.0086 45.6751 41.0147 45.6699C41.8102 44.9439 42.4523 44.1542 42.9353 43.3087L42.9667 43.2552V43.2044C43.4109 42.2805 43.2353 41.3373 42.5145 40.7361C42.497 40.7209 42.1506 40.4315 41.721 40.0813C41.2805 39.7237 40.7594 39.3029 40.4076 39.0448C39.742 38.5523 38.7131 37.9154 38.1267 37.5891C37.0003 36.958 35.8209 37.3246 35.3029 37.9953L34.395 39.1321C34.0288 39.5935 33.2971 39.5495 33.2777 39.5484C27.119 37.9639 25.4635 31.7714 25.4518 31.7273C25.4507 31.708 25.4066 30.975 25.868 30.6027L26.9999 29.6972C27.6723 29.1823 28.0503 28.0055 27.4162 26.8759C27.0854 26.292 26.4457 25.2555 25.9605 24.595C25.7004 24.2445 25.2784 23.7203 24.921 23.2806C24.7423 23.0607 24.5797 22.8594 24.4609 22.7158C24.4015 22.644 24.3538 22.586 24.3197 22.5454C24.3028 22.5251 24.2882 22.5109 24.2783 22.4992C24.2731 22.4933 24.2703 22.4895 24.266 22.4846C23.9523 22.1121 23.553 21.8851 23.1127 21.8102ZM34.4197 24.2786C33.8258 24.2367 33.2921 24.6817 33.2488 25.2547C33.2055 25.8283 33.6682 26.3399 34.2614 26.3817C35.7285 26.4854 36.7184 26.9167 37.4625 27.7034C38.2219 28.5048 38.5674 29.4225 38.5384 30.6733V30.6781C38.5258 31.2537 39.0083 31.7414 39.6046 31.754H39.6315C40.2191 31.754 40.709 31.2902 40.722 30.7219C40.762 29.0029 40.2023 27.4688 39.074 26.2793C37.9406 25.0839 36.3346 24.4146 34.4197 24.2786Z" fill="url(#paint6_linear_4_1006)"/>
</g>
<path d="M34.3539 19.2908C33.7518 19.2908 33.2521 19.7717 33.2463 20.3545C33.2428 20.94 33.7426 21.4323 34.3491 21.4353C36.9662 21.455 39.1181 22.2821 40.8533 23.9134C42.5681 25.5295 43.462 27.7685 43.4847 30.6903V30.6928C43.4909 31.274 43.9909 31.7541 44.5947 31.7541C44.5947 31.7541 44.606 31.7519 44.607 31.7516C45.212 31.746 45.7146 31.2582 45.7097 30.6732V30.6707C45.6954 28.9677 45.4186 27.4021 44.877 26.0241C44.3289 24.6318 43.4957 23.3998 42.4087 22.3752C40.2619 20.3563 37.5195 19.3134 34.3635 19.2911L34.3539 19.2908ZM23.1127 21.8102C22.6904 21.7384 22.233 21.817 21.7762 22.0366H21.74L21.6889 22.0658C20.8424 22.5469 20.0489 23.192 19.3058 24.001L19.2473 24.0642V24.1227C18.7331 24.7638 18.3932 25.409 18.315 26.0554C18.2901 26.165 18.2905 26.2638 18.2905 26.3695C18.2905 26.6636 18.3339 26.9624 18.4244 27.2555L18.4489 27.3383L18.5 27.3675C18.7936 28.3747 19.4597 29.942 20.9173 32.5961C21.888 34.3553 22.88 35.8248 23.8651 37.063C24.384 37.7137 24.9719 38.3912 25.6542 39.0737C25.6622 39.0818 25.6909 39.1112 25.7223 39.1394C25.7332 39.1501 25.7482 39.1727 25.7856 39.21L25.8537 39.2782H25.8584C25.8825 39.3021 25.8985 39.3196 25.9022 39.3244L25.9145 39.339L25.9267 39.3513C26.6091 40.0262 27.282 40.6176 27.9398 41.1332C29.176 42.1184 30.6452 43.1182 32.4041 44.0907C35.0613 45.5566 36.6434 46.2192 37.645 46.5079L37.6817 46.5518L37.7426 46.5734C38.0263 46.668 38.3216 46.7118 38.614 46.7073C38.7326 46.7141 38.8376 46.7054 38.9377 46.683C39.6238 46.6028 40.3031 46.278 40.9752 45.7142L40.9827 45.7042L40.9902 45.6993C41.0006 45.6889 40.9944 45.6942 41.0003 45.687C41.0065 45.6819 41.0087 45.675 41.0148 45.6698C41.8103 44.9438 42.4524 44.1542 42.9354 43.3087L42.9669 43.2551V43.2044C43.4111 42.2805 43.2354 41.3372 42.5146 40.736C42.4971 40.7208 42.1507 40.4314 41.7211 40.0812C41.2806 39.7237 40.7595 39.3029 40.4077 39.0447C39.7421 38.5523 38.7132 37.9154 38.1268 37.589H38.1243C36.998 36.958 35.821 37.3246 35.303 37.9953L34.3951 39.1321C34.0289 39.5935 33.2972 39.5495 33.2778 39.5483C27.1191 37.9639 25.4636 31.7713 25.4519 31.7273C25.4508 31.7079 25.4067 30.9749 25.8681 30.6027L27 29.6972C27.6724 29.1822 28.0504 28.0054 27.4163 26.8759C27.0855 26.292 26.4458 25.2554 25.9606 24.595H25.9581C25.698 24.2445 25.2784 23.7203 24.9211 23.2805C24.7424 23.0606 24.5798 22.8594 24.461 22.7158C24.4016 22.644 24.3539 22.586 24.3198 22.5454C24.3029 22.5251 24.2882 22.5108 24.2784 22.4991C24.2733 22.4933 24.2704 22.4894 24.2661 22.4845C23.9524 22.112 23.553 21.8851 23.1127 21.8102ZM34.4197 24.2786C33.8258 24.2367 33.2921 24.6817 33.2488 25.2547C33.2055 25.8283 33.6682 26.3399 34.2614 26.3817C35.7285 26.4854 36.7184 26.9167 37.4625 27.7034V27.7059C38.2219 28.5073 38.5673 29.4225 38.5384 30.6733V30.6782C38.5258 31.2537 39.0083 31.7415 39.6046 31.7541H39.6315C40.2191 31.7541 40.7089 31.2902 40.722 30.722C40.762 29.0029 40.2022 27.4689 39.074 26.2794C37.9406 25.084 36.3346 24.4146 34.4197 24.2786Z" fill="url(#paint7_linear_4_1006)"/>
</g>
<defs>
<filter id="filter0_f_4_1006" x="16.9196" y="17.9198" width="30.1613" height="30.1607" filterUnits="userSpaceOnUse" color-interpolation-filters="sRGB">
<feFlood flood-opacity="0" result="BackgroundImageFix"/>
<feBlend mode="normal" in="SourceGraphic" in2="BackgroundImageFix" result="shape"/>
<feGaussianBlur stdDeviation="0.685473" result="effect1_foregroundBlur_4_1006"/>
</filter>
<linearGradient id="paint0_linear_4_1006" x1="2" y1="33.0001" x2="62.0004" y2="33.0001" gradientUnits="userSpaceOnUse">
<stop stop-color="#FDFC47"/>
<stop offset="1" stop-color="#24FE41"/>
</linearGradient>
<linearGradient id="paint1_linear_4_1006" x1="3.00439" y1="33.0002" x2="61.0005" y2="33.0002" gradientUnits="userSpaceOnUse">
<stop stop-color="#FDFC47"/>
<stop offset="1" stop-color="#24FE41"/>
</linearGradient>
<linearGradient id="paint2_linear_4_1006" x1="3.53271" y1="32.9999" x2="60.4637" y2="32.9999" gradientUnits="userSpaceOnUse">
<stop stop-color="#FDFC47"/>
<stop offset="1" stop-color="#24FE41"/>
</linearGradient>
<linearGradient id="paint3_linear_4_1006" x1="4.00049" y1="53.9849" x2="60.0009" y2="53.9849" gradientUnits="userSpaceOnUse">
<stop stop-color="#FDFC47"/>
<stop offset="1" stop-color="#24FE41"/>
</linearGradient>
<linearGradient id="paint4_linear_4_1006" x1="4.00049" y1="52.7323" x2="60.0006" y2="52.7323" gradientUnits="userSpaceOnUse">
<stop stop-color="#FDFC47"/>
<stop offset="1" stop-color="#24FE41"/>
</linearGradient>
<linearGradient id="paint5_linear_4_1006" x1="4" y1="32" x2="60" y2="32" gradientUnits="userSpaceOnUse">
<stop stop-color="#FDFC47"/>
<stop offset="1" stop-color="#24FE41"/>
</linearGradient>
<linearGradient id="paint6_linear_4_1006" x1="18.2905" y1="33.0002" x2="45.7097" y2="33.0002" gradientUnits="userSpaceOnUse">
<stop stop-color="#FDFC47"/>
<stop offset="1" stop-color="#24FE41"/>
</linearGradient>
<linearGradient id="paint7_linear_4_1006" x1="18.2905" y1="33.0002" x2="45.7097" y2="33.0002" gradientUnits="userSpaceOnUse">
<stop stop-color="#FDFC47"/>
<stop offset="1" stop-color="#24FE41"/>
</linearGradient>
<clipPath id="clip0_4_1006">
<rect width="64" height="64" fill="white"/>
</clipPath>
</defs>
</svg>
