<svg width="64" height="64" viewBox="0 0 64 64" fill="none" xmlns="http://www.w3.org/2000/svg">
<g opacity="0.3" filter="url(#filter0_f_4_891)">
<path d="M44.5 4.5H19.5C11.2157 4.5 4.5 11.2157 4.5 19.5V44.5C4.5 52.7843 11.2157 59.5 19.5 59.5H44.5C52.7843 59.5 59.5 52.7843 59.5 44.5V19.5C59.5 11.2157 52.7843 4.5 44.5 4.5Z" fill="url(#paint0_linear_4_891)"/>
</g>
<path d="M19.5 5H44.5C52.5081 5 59 11.4919 59 19.5V44.5C59 52.5081 52.5081 59 44.5 59H19.5C11.4919 59 5 52.5081 5 44.5V19.5C5 11.4919 11.4919 5 19.5 5Z" fill="#232323" stroke="url(#paint1_linear_4_891)"/>
<g opacity="0.15" filter="url(#filter1_f_4_891)">
<path d="M27.4752 17.652C26.8492 17.652 26.2374 17.8555 25.6413 18.2637C25.0452 18.672 24.6422 19.1703 24.4139 19.7259L23.5166 22.8642H19.5644C18.3161 22.8642 17.266 23.3077 16.3843 24.1685C15.4974 25.0346 15.0396 26.0898 15.0396 27.3068V41.9398C15.0396 43.1581 15.4987 44.1768 16.3843 45.0376C17.2661 45.8985 18.3148 46.3367 19.5644 46.3367H44.4254C45.6737 46.3367 46.7641 45.8932 47.6458 45.0376C48.5275 44.1715 48.9501 43.1528 48.9501 41.9398V27.3068C48.9501 26.0885 48.5274 25.0346 47.6458 24.1685C46.7641 23.3024 45.6735 22.8642 44.4254 22.8642H40.4732L39.5758 19.7259C39.3566 19.1651 38.9497 18.6707 38.3523 18.2585C37.7562 17.8503 37.1393 17.6468 36.5184 17.6468M31.4184 25.4729C35.7032 25.1572 39.8249 29.0038 39.8158 33.2938C39.8158 37.396 36.0867 41.1199 31.9949 41.1199C27.8927 41.1199 24.1688 37.3908 24.1688 33.2938C24.1583 29.3808 27.521 25.7534 31.4249 25.4729" fill="url(#paint2_linear_4_891)"/>
</g>
<mask id="path-4-inside-1_4_891" fill="white">
<path d="M27.4752 17.652C26.8492 17.652 26.2374 17.8555 25.6413 18.2637C25.0452 18.672 24.6422 19.1703 24.4139 19.7259L23.5166 22.8642H19.5644C18.3161 22.8642 17.266 23.3077 16.3843 24.1685C15.4974 25.0346 15.0396 26.0898 15.0396 27.3068V41.9398C15.0396 43.1581 15.4987 44.1768 16.3843 45.0376C17.2661 45.8985 18.3148 46.3367 19.5644 46.3367H44.4254C45.6737 46.3367 46.7641 45.8932 47.6458 45.0376C48.5275 44.1715 48.9501 43.1528 48.9501 41.9398V27.3068C48.9501 26.0885 48.5274 25.0346 47.6458 24.1685C46.7641 23.3024 45.6735 22.8642 44.4254 22.8642H40.4732L39.5758 19.7259C39.3566 19.1651 38.9497 18.6707 38.3523 18.2585C37.7562 17.8503 37.1393 17.6468 36.5184 17.6468M31.4184 25.4729C35.7032 25.1572 39.8249 29.0038 39.8158 33.2938C39.8158 37.396 36.0867 41.1199 31.9949 41.1199C27.8927 41.1199 24.1688 37.3908 24.1688 33.2938C24.1583 29.3808 27.521 25.7534 31.4249 25.4729"/>
</mask>
<path d="M27.4752 17.652C26.8492 17.652 26.2374 17.8555 25.6413 18.2637C25.0452 18.672 24.6422 19.1703 24.4139 19.7259L23.5166 22.8642H19.5644C18.3161 22.8642 17.266 23.3077 16.3843 24.1685C15.4974 25.0346 15.0396 26.0898 15.0396 27.3068V41.9398C15.0396 43.1581 15.4987 44.1768 16.3843 45.0376C17.2661 45.8985 18.3148 46.3367 19.5644 46.3367H44.4254C45.6737 46.3367 46.7641 45.8932 47.6458 45.0376C48.5275 44.1715 48.9501 43.1528 48.9501 41.9398V27.3068C48.9501 26.0885 48.5274 25.0346 47.6458 24.1685C46.7641 23.3024 45.6735 22.8642 44.4254 22.8642H40.4732L39.5758 19.7259C39.3566 19.1651 38.9497 18.6707 38.3523 18.2585C37.7562 17.8503 37.1393 17.6468 36.5184 17.6468M31.4184 25.4729C35.7032 25.1572 39.8249 29.0038 39.8158 33.2938C39.8158 37.396 36.0867 41.1199 31.9949 41.1199C27.8927 41.1199 24.1688 37.3908 24.1688 33.2938C24.1583 29.3808 27.521 25.7534 31.4249 25.4729" fill="#232323"/>
<path d="M24.4139 19.7259L22.564 18.966L22.5216 19.069L22.491 19.1761L24.4139 19.7259ZM23.5166 22.8642V24.8642H25.0248L25.4395 23.4141L23.5166 22.8642ZM16.3843 24.1685L14.9872 22.7375L14.9871 22.7376L16.3843 24.1685ZM16.3843 45.0376L17.7815 43.6066L17.7783 43.6034L16.3843 45.0376ZM47.6458 45.0376L49.0386 46.4729L49.0472 46.4644L47.6458 45.0376ZM40.4732 22.8642L38.5502 23.4141L38.9649 24.8642H40.4732V22.8642ZM39.5758 19.7259L41.4987 19.1761L41.4728 19.0857L41.4386 18.9981L39.5758 19.7259ZM38.3523 18.2585L39.4881 16.6123L39.4824 16.6084L38.3523 18.2585ZM39.8158 33.2938L37.8158 33.2895V33.2938H39.8158ZM24.1688 33.2938H26.1688L26.1688 33.2885L24.1688 33.2938ZM27.4752 15.652C26.3878 15.652 25.3889 16.0125 24.5112 16.6136L26.7715 19.9138C27.086 19.6984 27.3105 19.652 27.4752 19.652V15.652ZM24.5112 16.6136C23.6258 17.2201 22.9545 18.0153 22.564 18.966L26.2639 20.4859C26.3299 20.3252 26.4647 20.1239 26.7715 19.9138L24.5112 16.6136ZM22.491 19.1761L21.5936 22.3144L25.4395 23.4141L26.3369 20.2758L22.491 19.1761ZM23.5166 20.8642H19.5644V24.8642H23.5166V20.8642ZM19.5644 20.8642C17.7793 20.8642 16.2319 21.5222 14.9872 22.7375L17.7815 25.5996C18.3002 25.0932 18.8528 24.8642 19.5644 24.8642V20.8642ZM14.9871 22.7376C13.73 23.9651 13.0396 25.5301 13.0396 27.3068H17.0396C17.0396 26.6495 17.2648 26.1042 17.7816 25.5995L14.9871 22.7376ZM13.0396 27.3068V41.9398H17.0396V27.3068H13.0396ZM13.0396 41.9398C13.0396 43.736 13.7451 45.2615 14.9904 46.4718L17.7783 43.6034C17.2523 43.0922 17.0396 42.5802 17.0396 41.9398H13.0396ZM14.9872 46.4687C16.2361 47.688 17.7837 48.3367 19.5644 48.3367V44.3367C18.8458 44.3367 18.2961 44.109 17.7815 43.6066L14.9872 46.4687ZM19.5644 48.3367H44.4254V44.3367H19.5644V48.3367ZM44.4254 48.3367C46.1907 48.3367 47.7815 47.6928 49.0386 46.4729L46.2529 43.6023C45.7466 44.0937 45.1566 44.3367 44.4254 44.3367V48.3367ZM49.0472 46.4644C50.3118 45.2224 50.9501 43.6895 50.9501 41.9398H46.9501C46.9501 42.6161 46.7432 43.1207 46.2443 43.6108L49.0472 46.4644ZM50.9501 41.9398V27.3068H46.9501V41.9398H50.9501ZM50.9501 27.3068C50.9501 25.5706 50.3249 23.9968 49.0473 22.7418L46.2442 25.5953C46.73 26.0725 46.9501 26.6065 46.9501 27.3068H50.9501ZM49.0473 22.7418C47.7832 21.5 46.1859 20.8642 44.4254 20.8642V24.8642C45.1612 24.8642 45.7449 25.1048 46.2442 25.5953L49.0473 22.7418ZM44.4254 20.8642H40.4732V24.8642H44.4254V20.8642ZM42.3961 22.3144L41.4987 19.1761L37.6528 20.2758L38.5502 23.4141L42.3961 22.3144ZM41.4386 18.9981C41.051 18.006 40.3573 17.2121 39.4881 16.6124L37.2164 19.9047C37.542 20.1293 37.6622 20.3241 37.7129 20.4537L41.4386 18.9981ZM39.4824 16.6084C38.6032 16.0063 37.5989 15.6468 36.5184 15.6468V19.6468C36.6796 19.6468 36.9092 19.6943 37.2221 19.9086L39.4824 16.6084ZM31.5653 27.4675C33.0642 27.3571 34.637 27.9761 35.8637 29.1193C37.0906 30.2627 37.819 31.7886 37.8158 33.2895L41.8158 33.298C41.8217 30.5089 40.4938 27.9666 38.5908 26.1931C36.6877 24.4195 34.0573 23.2731 31.2714 23.4783L31.5653 27.4675ZM37.8158 33.2938C37.8158 36.2914 34.9821 39.1199 31.9949 39.1199V43.1199C37.1912 43.1199 41.8158 38.5006 41.8158 33.2938H37.8158ZM31.9949 39.1199C28.9981 39.1199 26.1688 36.2871 26.1688 33.2938H22.1688C22.1688 38.4945 26.7872 43.1199 31.9949 43.1199V39.1199ZM26.1688 33.2885C26.1611 30.4251 28.714 27.6728 31.5682 27.4677L31.2815 23.478C26.328 23.834 22.1555 28.3365 22.1688 33.2991L26.1688 33.2885Z" fill="url(#paint3_linear_4_891)" mask="url(#path-4-inside-1_4_891)"/>
<g opacity="0.15" filter="url(#filter2_f_4_891)">
<path d="M37.217 33.33C37.217 36.2139 34.8783 38.5474 31.9996 38.5474C29.1157 38.5474 26.7822 36.2139 26.7822 33.33C26.7822 30.4461 29.1157 28.1126 31.9996 28.1126C34.8783 28.1126 37.217 30.4461 37.217 33.33Z" fill="url(#paint4_linear_4_891)"/>
</g>
<path d="M37.217 33.33C37.217 36.2139 34.8783 38.5474 31.9996 38.5474C29.1157 38.5474 26.7822 36.2139 26.7822 33.33C26.7822 30.4461 29.1157 28.1126 31.9996 28.1126C34.8783 28.1126 37.217 30.4461 37.217 33.33Z" fill="url(#paint5_linear_4_891)"/>
<defs>
<filter id="filter0_f_4_891" x="3.2625" y="3.2625" width="57.475" height="57.475" filterUnits="userSpaceOnUse" color-interpolation-filters="sRGB">
<feFlood flood-opacity="0" result="BackgroundImageFix"/>
<feBlend mode="normal" in="SourceGraphic" in2="BackgroundImageFix" result="shape"/>
<feGaussianBlur stdDeviation="0.61875" result="effect1_foregroundBlur_4_891"/>
</filter>
<filter id="filter1_f_4_891" x="12.2225" y="14.8298" width="39.5447" height="34.324" filterUnits="userSpaceOnUse" color-interpolation-filters="sRGB">
<feFlood flood-opacity="0" result="BackgroundImageFix"/>
<feBlend mode="normal" in="SourceGraphic" in2="BackgroundImageFix" result="shape"/>
<feGaussianBlur stdDeviation="1.40851" result="effect1_foregroundBlur_4_891"/>
</filter>
<filter id="filter2_f_4_891" x="26.2605" y="27.5909" width="11.478" height="11.4783" filterUnits="userSpaceOnUse" color-interpolation-filters="sRGB">
<feFlood flood-opacity="0" result="BackgroundImageFix"/>
<feBlend mode="normal" in="SourceGraphic" in2="BackgroundImageFix" result="shape"/>
<feGaussianBlur stdDeviation="0.26087" result="effect1_foregroundBlur_4_891"/>
</filter>
<linearGradient id="paint0_linear_4_891" x1="4.5" y1="32" x2="59.5" y2="32" gradientUnits="userSpaceOnUse">
<stop stop-color="#FDFC47"/>
<stop offset="1" stop-color="#24FE41"/>
</linearGradient>
<linearGradient id="paint1_linear_4_891" x1="4.5" y1="32" x2="59.5" y2="32" gradientUnits="userSpaceOnUse">
<stop stop-color="#FDFC47"/>
<stop offset="1" stop-color="#24FE41"/>
</linearGradient>
<linearGradient id="paint2_linear_4_891" x1="15.0396" y1="31.9918" x2="48.9501" y2="31.9918" gradientUnits="userSpaceOnUse">
<stop stop-color="#FDFC47"/>
<stop offset="1" stop-color="#24FE41"/>
</linearGradient>
<linearGradient id="paint3_linear_4_891" x1="15.0396" y1="31.9918" x2="48.9501" y2="31.9918" gradientUnits="userSpaceOnUse">
<stop stop-color="#FDFC47"/>
<stop offset="1" stop-color="#24FE41"/>
</linearGradient>
<linearGradient id="paint4_linear_4_891" x1="26.7822" y1="33.33" x2="37.217" y2="33.33" gradientUnits="userSpaceOnUse">
<stop stop-color="#FDFC47"/>
<stop offset="1" stop-color="#24FE41"/>
</linearGradient>
<linearGradient id="paint5_linear_4_891" x1="26.7822" y1="33.33" x2="37.217" y2="33.33" gradientUnits="userSpaceOnUse">
<stop stop-color="#FDFC47"/>
<stop offset="1" stop-color="#24FE41"/>
</linearGradient>
</defs>
</svg>
