<svg width="64" height="64" viewBox="0 0 64 64" fill="none" xmlns="http://www.w3.org/2000/svg">
<g opacity="0.3" filter="url(#filter0_f_4_887)">
<path d="M44.5 4.5H19.5C11.2157 4.5 4.5 11.2157 4.5 19.5V44.5C4.5 52.7843 11.2157 59.5 19.5 59.5H44.5C52.7843 59.5 59.5 52.7843 59.5 44.5V19.5C59.5 11.2157 52.7843 4.5 44.5 4.5Z" fill="url(#paint0_linear_4_887)"/>
</g>
<path d="M19.5 5H44.5C52.5081 5 59 11.4919 59 19.5V44.5C59 52.5081 52.5081 59 44.5 59H19.5C11.4919 59 5 52.5081 5 44.5V19.5C5 11.4919 11.4919 5 19.5 5Z" fill="#232323" stroke="url(#paint1_linear_4_887)"/>
<path d="M32.3901 51.9112C31.9678 51.7953 31.6003 51.5244 31.3431 51.1392C30.9636 50.5708 30.8372 50.1588 30.3744 47.9815C30.1814 47.0735 29.8971 46.4693 29.4177 45.9486C28.5812 45.0399 27.6152 44.7173 25.3272 44.5824C22.7676 44.4315 21.8592 44.2052 21.0041 43.5056C20.0319 42.7102 19.6262 41.8114 19.0457 39.1658C18.6868 37.5306 18.4817 36.8708 18.0588 35.9906C17.2827 34.375 16.2159 33.1194 14.6711 32.0028C13.6754 31.2831 13.3786 30.8455 13.5425 30.3389C13.6756 29.9287 14.0998 29.6646 14.6264 29.6646C15.0502 29.6646 15.3082 29.7698 15.6447 30.0798C15.9673 30.3769 16.158 30.6579 16.6037 31.4931C17.0109 32.256 17.4019 32.8119 17.5317 32.8119C17.6102 32.8119 17.6228 32.4901 17.6228 30.4987C17.6228 29.1151 17.648 28.0923 17.6859 27.9535C17.7616 27.6747 18.0629 27.3986 18.2906 27.3989C18.6689 27.3995 18.9929 27.7637 19.1584 28.3743C19.1962 28.5128 19.3546 29.9007 19.5108 31.4586C19.6672 33.0165 19.8183 34.3161 19.8466 34.3466C19.9335 34.4406 20.3307 33.9406 20.5895 33.4099C20.8436 32.8891 21.0153 32.2247 21.0171 31.755C21.0178 31.6064 20.947 31.1337 20.8604 30.7045C20.7315 30.0669 20.7145 29.8792 20.7679 29.6785C20.9362 29.0411 21.6315 28.9362 22.0876 29.4794C22.4178 29.8726 22.5317 30.3179 22.5292 31.2069C22.5292 32.17 22.4465 32.5285 21.7488 34.6945C21.146 36.566 20.9561 37.3955 20.9578 38.1487C20.9578 40.85 23.1819 42.609 26.9 42.8611C27.2312 42.8835 27.502 42.8811 27.502 42.8554C27.502 42.8299 27.2948 42.422 27.0414 41.949C26.1686 40.3193 25.8145 39.1809 25.8145 38.0046C25.8145 37.1193 25.942 36.5787 26.5032 35.1036C27.2697 33.0856 27.3449 32.7578 27.3456 31.4269C27.3461 30.7338 27.3148 30.3025 27.2376 29.9377C26.8202 27.9516 25.7924 26.2462 24.3421 25.1321C23.7673 24.6905 23.5955 24.5953 22.1253 23.9035C20.7111 23.238 20.343 23.0064 19.7773 22.4268C19.1698 21.8043 18.9121 21.2953 18.8706 20.6364C18.8454 20.2292 18.8552 20.165 18.9575 20.1105C19.1914 19.9849 19.6878 19.962 20.1312 20.0563C20.9541 20.2312 21.6914 20.7071 22.8707 21.8245C24.1272 23.015 24.8349 23.4546 25.6996 23.5816C26.1206 23.6435 26.1634 23.6393 26.2427 23.5288C26.3716 23.3494 26.352 22.6815 26.2063 22.2865C25.9378 21.5586 25.3621 21.0181 24.0751 20.2857C23.2481 19.815 22.6905 19.4122 22.4413 19.1057C21.8322 18.3562 21.7085 17.2574 22.1702 16.698C22.6076 16.1682 23.3487 16.1083 24.2031 16.5338C24.6187 16.7407 24.8046 16.8926 25.4351 17.5403C27.2748 19.4297 28.3824 21.9085 28.87 25.2269C29.0004 26.1127 28.9836 29.4502 28.842 30.6086C28.7075 31.7132 28.4948 33.0241 28.244 34.2849C28.027 35.3768 28.01 35.8776 28.1767 36.2537C28.3001 36.5296 28.5549 36.7142 28.8134 36.7142C29.1055 36.7142 29.623 36.3743 30.2193 35.7909C31.1932 34.838 31.7389 33.915 32.051 32.6932C32.1869 32.1606 32.2111 31.8978 32.2509 30.5092C32.2929 29.0415 32.3056 28.9096 32.4385 28.6309C32.6315 28.2244 32.9877 27.9649 33.3528 27.9649C33.5895 27.9649 33.6617 27.9986 33.8617 28.2024C34.3828 28.7337 34.3649 29.4311 33.7664 31.9117C33.3395 33.6798 32.7695 35.0422 32.0467 36.0218C31.8294 36.316 31.1914 37.0043 30.6287 37.5514C29.953 38.2081 29.5021 38.7036 29.301 39.0101C28.1241 40.8038 28.7515 42.5613 30.6848 42.8868C31.4935 43.0229 32.3896 42.7586 33.0019 42.2032C33.8548 41.4296 34.6517 39.7058 35.21 37.4258C36.0396 34.0382 36.3059 30.3532 35.8733 28.2438C35.482 26.3361 34.6964 24.7367 33.5928 23.6015C33.2916 23.2918 32.6392 22.7537 31.9772 22.2692C30.1319 20.9186 29.3899 20.0462 29.1331 18.9253C29.0055 18.369 29.0378 17.8029 29.2032 17.6761C29.4167 17.5127 29.9543 17.4324 30.3256 17.5084C31.245 17.6967 32.052 18.4283 32.9027 19.8451C33.5713 20.9586 33.8772 21.3739 34.3361 21.7908C34.6763 22.1 34.8493 22.1851 34.8493 22.0434C34.8493 22.0061 34.6858 21.6591 34.4863 21.2723C33.035 18.4598 31.9929 16.339 31.8527 15.9127C31.5365 14.951 31.7168 14.2693 32.3666 13.9766C33.1039 13.6442 33.924 14.1829 34.3178 15.2582C34.4019 15.4876 34.9458 17.3571 35.5267 19.4125C36.7808 23.8502 36.6958 23.5712 36.7848 23.5417C36.8941 23.5054 37.3021 22.4897 37.5082 21.7414C37.7785 20.7598 37.8957 19.7362 37.8545 18.7122C37.8139 17.7088 37.7096 17.06 37.3433 15.5462C37.1462 14.7316 37.0722 14.2985 37.0722 13.9591C37.0722 13.1582 37.3849 12.5059 37.9232 12.1833C38.52 11.8257 39.4209 12.0054 40.0245 12.6024C40.6173 13.189 40.8094 13.8246 40.7578 15.03C40.7031 16.3191 40.4946 17.1013 39.326 20.4118C38.2842 23.3632 37.9714 24.4634 37.7834 25.8367C37.6601 26.7368 37.6629 28.1575 37.7834 28.9139C37.8927 29.5748 38.1136 30.3069 38.2119 30.3382C38.2469 30.3497 38.5497 29.5723 38.8841 28.6111C39.703 26.2581 39.8134 25.993 40.069 25.7642C40.5758 25.3106 41.3278 25.6988 41.3278 26.4141C41.3278 27.0118 40.0636 30.789 36.842 39.8171C35.9427 42.3373 35.2155 44.4433 35.2263 44.497C35.2403 44.5605 36.5265 43.4061 38.8888 41.2141C43.9372 36.5295 44.0131 36.4499 44.3397 35.4931C44.4701 35.1092 44.4879 34.9705 44.4602 34.5111C44.4168 33.7765 44.1769 33.142 43.4484 31.8323C42.5864 30.2827 42.3118 29.6242 42.222 28.8915C42.0394 27.4016 43.3472 26.4324 44.2703 27.3735C44.7828 27.8959 45.4928 29.6944 45.8029 31.2562C45.8884 31.6876 45.9588 32.0991 45.9588 32.1706C45.9588 32.5324 46.1499 32.2321 46.9211 30.6585C48.0368 28.3821 48.2431 28.0703 48.8425 27.7543C49.3685 27.4771 50.0113 27.7658 50.3618 28.437C50.5513 28.7998 50.5456 29.4836 50.3479 30.0951C49.8261 31.7106 47.7687 35.1515 45.5531 38.1147C45.4298 38.2791 45.3623 38.4137 45.4022 38.4137C45.4428 38.4137 45.6325 38.3204 45.825 38.2063C47.0175 37.4999 47.8614 37.4539 48.6932 38.0501C48.9476 38.2325 49.2305 38.773 49.2297 39.0745C49.2287 39.4155 49.0419 39.8107 48.7906 40.0041C48.331 40.3578 47.8491 40.4723 46.4844 40.5519C44.2381 40.6829 42.5322 41.2989 40.8955 42.57C39.6055 43.5718 38.8512 44.5822 37.5609 47.0371C36.5105 49.0356 36.0181 49.7599 35.0361 50.7512C34.3249 51.4691 33.794 51.8108 33.1893 51.9399C32.7945 52.0242 32.7969 52.0242 32.3841 51.911L32.3901 51.9112Z" fill="url(#paint2_linear_4_887)"/>
<defs>
<filter id="filter0_f_4_887" x="3.2625" y="3.2625" width="57.475" height="57.475" filterUnits="userSpaceOnUse" color-interpolation-filters="sRGB">
<feFlood flood-opacity="0" result="BackgroundImageFix"/>
<feBlend mode="normal" in="SourceGraphic" in2="BackgroundImageFix" result="shape"/>
<feGaussianBlur stdDeviation="0.61875" result="effect1_foregroundBlur_4_887"/>
</filter>
<linearGradient id="paint0_linear_4_887" x1="4.5" y1="32" x2="59.5" y2="32" gradientUnits="userSpaceOnUse">
<stop stop-color="#FDFC47"/>
<stop offset="1" stop-color="#24FE41"/>
</linearGradient>
<linearGradient id="paint1_linear_4_887" x1="4.5" y1="32" x2="59.5" y2="32" gradientUnits="userSpaceOnUse">
<stop stop-color="#FDFC47"/>
<stop offset="1" stop-color="#24FE41"/>
</linearGradient>
<linearGradient id="paint2_linear_4_887" x1="13.5" y1="32" x2="50.5002" y2="32" gradientUnits="userSpaceOnUse">
<stop stop-color="#FDFC47"/>
<stop offset="1" stop-color="#24FE41"/>
</linearGradient>
</defs>
</svg>
