<svg width="64" height="64" viewBox="0 0 64 64" fill="none" xmlns="http://www.w3.org/2000/svg">
<g clip-path="url(#clip0_4_879)">
<g opacity="0.3" filter="url(#filter0_f_4_879)">
<path d="M44.5 4.5H19.5C11.2157 4.5 4.5 11.2157 4.5 19.5V44.5C4.5 52.7843 11.2157 59.5 19.5 59.5H44.5C52.7843 59.5 59.5 52.7843 59.5 44.5V19.5C59.5 11.2157 52.7843 4.5 44.5 4.5Z" fill="url(#paint0_linear_4_879)"/>
</g>
<path d="M19.5 5H44.5C52.5081 5 59 11.4919 59 19.5V44.5C59 52.5081 52.5081 59 44.5 59H19.5C11.4919 59 5 52.5081 5 44.5V19.5C5 11.4919 11.4919 5 19.5 5Z" fill="#232323" stroke="url(#paint1_linear_4_879)"/>
<path opacity="0.35" d="M29.6186 26.1135L27.5259 23.4225L28.041 23.0236L30.1318 25.7099L29.6186 26.1135ZM39.8541 37.7072L40.3177 37.2436L42.8013 39.7273L42.3378 40.1908L39.8541 37.7072ZM31.2126 40.444L30.6166 40.18L31.1768 38.9172L31.7696 39.1898L31.2126 40.444Z" fill="#232323" stroke="url(#paint2_linear_4_879)" stroke-width="1.3043"/>
<path d="M15.9688 32.9958C15.7956 32.7038 15.6961 32.3629 15.6961 31.9988C15.6961 31.9853 15.6962 31.9717 15.6965 31.9582C15.6963 31.9718 15.6961 31.9853 15.6961 31.9989C15.6961 32.363 15.7956 32.7038 15.9688 32.9958ZM15.9688 32.9958C16.3041 33.5611 16.9159 33.943 17.6177 33.9551C16.9158 33.9428 16.3041 33.5609 15.9688 32.9958ZM42.2378 21.4192L42.5263 21.0588L42.2821 20.6669C41.9672 20.1614 41.7822 19.5779 41.7821 18.9559C41.782 17.1729 43.251 15.7102 45.0483 15.6951C46.8285 15.6802 48.3037 17.1516 48.3037 18.956C48.3037 20.7568 46.8438 22.2168 45.0429 22.2168C44.6829 22.2168 44.3317 22.1448 43.9835 22.0237L43.5481 21.8722L43.2601 22.2321L39.0898 27.4416L38.7571 27.8573L39.0978 28.2665C39.9511 29.2912 40.4778 30.5795 40.4778 31.9989C40.4778 35.2404 37.8499 37.8684 34.6085 37.8683C31.8198 37.8681 29.4162 35.9053 28.8584 33.1728L28.7519 32.651H28.2195H19.9096H19.5331L19.3916 32.8962C19.5305 32.6274 19.609 32.3223 19.609 31.9989C19.609 31.6754 19.5305 31.3702 19.3915 31.1014L19.5331 31.3467H19.9096H28.2195H28.7519L28.8584 30.825C29.4161 28.0925 31.8196 26.1297 34.6085 26.1295C35.5612 26.1295 36.4537 26.3801 37.2659 26.7965L37.7399 27.0395L38.0726 26.6237L42.2378 21.4192ZM17.662 30.0424C18.1831 30.0349 18.6823 30.2519 19.0466 30.6262C18.6926 30.2667 18.2006 30.0435 17.6565 30.0425C17.6583 30.0424 17.6601 30.0424 17.6619 30.0424H17.662ZM23.5219 20.2601C23.5217 19.1991 24.4047 18.3168 25.4862 18.3037C26.5431 18.291 27.4348 19.1745 27.4348 20.2602C27.4348 21.3407 26.5589 22.2167 25.4784 22.2167C24.3999 22.2167 23.5221 21.3306 23.5219 20.2601ZM46.9993 18.9559C46.9993 17.8754 46.1234 16.9995 45.0429 16.9995C43.9624 16.9995 43.0864 17.8754 43.0864 18.9559C43.0864 20.0364 43.9624 20.9124 45.0429 20.9124C46.1234 20.9124 46.9993 20.0364 46.9993 18.9559ZM37.8692 31.9989C37.8692 30.1986 36.413 28.7382 34.6085 28.7382C32.8019 28.7382 31.3474 30.2133 31.3477 31.999C31.348 33.7849 32.8054 35.2597 34.6085 35.2597C36.4093 35.2597 37.8692 33.7998 37.8692 31.9989ZM43.0864 43.0855C43.0864 41.6448 44.2543 40.4769 45.695 40.4769C47.1357 40.4769 48.3036 41.6448 48.3036 43.0855C48.3036 44.5261 47.1357 45.6941 45.695 45.6941C44.2543 45.6941 43.0864 44.5261 43.0864 43.0855ZM27.4348 43.7375C27.4346 42.6765 28.3176 41.7941 29.3991 41.7811C30.456 41.7684 31.3477 42.6519 31.3477 43.7376C31.3477 44.8181 30.4718 45.6941 29.3913 45.6941C28.3128 45.6941 27.435 44.808 27.4348 43.7375Z" fill="#232323" stroke="url(#paint3_linear_4_879)" stroke-width="1.3043"/>
</g>
<defs>
<filter id="filter0_f_4_879" x="3.2625" y="3.2625" width="57.475" height="57.475" filterUnits="userSpaceOnUse" color-interpolation-filters="sRGB">
<feFlood flood-opacity="0" result="BackgroundImageFix"/>
<feBlend mode="normal" in="SourceGraphic" in2="BackgroundImageFix" result="shape"/>
<feGaussianBlur stdDeviation="0.61875" result="effect1_foregroundBlur_4_879"/>
</filter>
<linearGradient id="paint0_linear_4_879" x1="4.5" y1="32" x2="59.5" y2="32" gradientUnits="userSpaceOnUse">
<stop stop-color="#FDFC47"/>
<stop offset="1" stop-color="#24FE41"/>
</linearGradient>
<linearGradient id="paint1_linear_4_879" x1="4.5" y1="32" x2="59.5" y2="32" gradientUnits="userSpaceOnUse">
<stop stop-color="#FDFC47"/>
<stop offset="1" stop-color="#24FE41"/>
</linearGradient>
<linearGradient id="paint2_linear_4_879" x1="26.6099" y1="31.707" x2="43.7236" y2="31.707" gradientUnits="userSpaceOnUse">
<stop stop-color="#FDFC47"/>
<stop offset="1" stop-color="#24FE41"/>
</linearGradient>
<linearGradient id="paint3_linear_4_879" x1="15.0439" y1="30.6946" x2="48.9558" y2="30.6946" gradientUnits="userSpaceOnUse">
<stop stop-color="#FDFC47"/>
<stop offset="1" stop-color="#24FE41"/>
</linearGradient>
<clipPath id="clip0_4_879">
<rect width="64" height="64" fill="white"/>
</clipPath>
</defs>
</svg>
