<svg width="64" height="64" viewBox="0 0 64 64" fill="none" xmlns="http://www.w3.org/2000/svg">
<g opacity="0.3" filter="url(#filter0_f_4_777)">
<path d="M44.5018 4.49997H19.5007C11.216 4.49997 4.5 11.216 4.5 19.5006V44.5018C4.5 52.7864 11.216 59.5024 19.5007 59.5024H44.5018C52.7864 59.5024 59.5025 52.7864 59.5025 44.5018V19.5006C59.5025 11.216 52.7864 4.49997 44.5018 4.49997Z" fill="#232323"/>
<path d="M19.5007 4.99997H44.5018C52.5103 4.99997 59.0025 11.4921 59.0025 19.5006V44.5018C59.0025 52.5103 52.5103 59.0024 44.5018 59.0024H19.5007C11.4922 59.0024 5 52.5103 5 44.5018V19.5006C5 11.4921 11.4922 4.99997 19.5007 4.99997Z" stroke="url(#paint0_linear_4_777)"/>
</g>
<path d="M19.502 5H44.5018C52.5101 5 59.0022 11.4921 59.0022 19.5005V44.5003C59.0022 52.5087 52.5101 59.0008 44.5018 59.0008H19.502C11.4936 59.0008 5.00146 52.5087 5.00146 44.5003V19.5005C5.00146 11.4921 11.4936 5 19.502 5Z" fill="#232323" stroke="url(#paint1_linear_4_777)"/>
<path fill-rule="evenodd" clip-rule="evenodd" d="M29.751 24.087C29.5121 23.4772 29.3326 23.4548 28.9696 23.4323C28.8442 23.427 28.7056 23.4218 28.5605 23.4218C28.0879 23.4218 27.6048 23.5723 27.3105 23.8917C26.9528 24.2863 26.0605 25.2037 26.0605 27.0938C26.0605 28.984 27.3363 30.8103 27.5161 31.0635C27.696 31.3235 30.0179 35.2528 33.6206 36.858C36.4362 38.1107 37.2731 38.0029 37.9161 37.8522C38.8474 37.6309 40.0236 36.8912 40.3184 35.9938C40.6169 35.0979 40.6169 34.3305 40.5276 34.1688C40.4383 34.0125 40.1985 33.9144 39.8451 33.7208C39.4866 33.5314 37.7324 32.6022 37.4032 32.4737C37.0741 32.3437 36.7705 32.3866 36.5217 32.7599C36.1734 33.2784 35.8392 33.8079 35.5597 34.1205C35.3454 34.3694 34.9972 34.4067 34.6922 34.2656C34.298 34.0873 33.1868 33.6656 31.8218 32.359C30.7603 31.3441 30.0421 30.0845 29.8329 29.7016C29.6237 29.3186 29.8125 29.0919 29.9771 28.8803C30.1569 28.6425 30.3253 28.4697 30.5052 28.2484C30.6851 28.0217 30.7846 27.9028 30.9045 27.6428C31.0244 27.3884 30.9441 27.1244 30.8548 26.9349C30.7655 26.74 30.0472 24.8498 29.7538 24.0826" fill="url(#paint2_linear_4_777)"/>
<path d="M32.6617 15.502C23.9297 15.502 16.8199 22.6092 16.8225 31.3412C16.8233 34.1966 17.6875 36.9558 19.1453 39.4001L15.501 48.4995L24.301 44.6613C26.8143 46.2391 29.6828 47.179 32.6615 47.18C41.3935 47.1825 48.5007 40.0728 48.5007 31.3408C48.5007 22.6088 41.3937 15.502 32.6617 15.502ZM32.6617 18.1419C39.9669 18.1419 45.8608 24.0358 45.8608 31.341C45.8608 38.6455 39.9684 44.5417 32.6643 44.5401C29.9488 44.5397 27.3003 43.6957 25.0798 42.1324L24.4714 41.7044L20.3622 43.5012L22.0586 39.214L21.6745 38.6391C20.2345 36.4763 19.4654 33.9366 19.4625 31.3385C19.464 24.0344 25.3572 18.1419 32.6617 18.1419Z" fill="url(#paint3_linear_4_777)"/>
<defs>
<filter id="filter0_f_4_777" x="3.26244" y="3.26241" width="57.4776" height="57.4776" filterUnits="userSpaceOnUse" color-interpolation-filters="sRGB">
<feFlood flood-opacity="0" result="BackgroundImageFix"/>
<feBlend mode="normal" in="SourceGraphic" in2="BackgroundImageFix" result="shape"/>
<feGaussianBlur stdDeviation="0.618778" result="effect1_foregroundBlur_4_777"/>
</filter>
<linearGradient id="paint0_linear_4_777" x1="4.5" y1="32.0012" x2="59.5025" y2="32.0012" gradientUnits="userSpaceOnUse">
<stop stop-color="#FDFC47"/>
<stop offset="1" stop-color="#24FE41"/>
</linearGradient>
<linearGradient id="paint1_linear_4_777" x1="4.50146" y1="32.0004" x2="59.5022" y2="32.0004" gradientUnits="userSpaceOnUse">
<stop stop-color="#FDFC47"/>
<stop offset="1" stop-color="#24FE41"/>
</linearGradient>
<linearGradient id="paint2_linear_4_777" x1="26.0605" y1="30.6813" x2="40.5796" y2="30.6813" gradientUnits="userSpaceOnUse">
<stop stop-color="#FDFC47"/>
<stop offset="1" stop-color="#24FE41"/>
</linearGradient>
<linearGradient id="paint3_linear_4_777" x1="15.501" y1="32.0005" x2="48.5007" y2="32.0005" gradientUnits="userSpaceOnUse">
<stop stop-color="#FDFC47"/>
<stop offset="1" stop-color="#24FE41"/>
</linearGradient>
</defs>
</svg>
