<svg width="64" height="64" viewBox="0 0 64 64" fill="none" xmlns="http://www.w3.org/2000/svg">
<g clip-path="url(#clip0_4_784)">
<g opacity="0.3" filter="url(#filter0_f_4_784)">
<path d="M46.5003 4.4996H17.4995C10.3198 4.4996 4.49951 10.3199 4.49951 17.4995V46.5004C4.49951 53.6801 10.3198 59.5004 17.4995 59.5004H46.5003C53.68 59.5004 59.5003 53.6801 59.5003 46.5004V17.4995C59.5003 10.3199 53.68 4.4996 46.5003 4.4996Z" fill="url(#paint0_linear_4_784)"/>
</g>
<path d="M17.5 5H46.5C53.4036 5 59 10.5964 59 17.5V46.5C59 53.4036 53.4036 59 46.5 59H17.5C10.5964 59 5 53.4036 5 46.5V17.5C5 10.5964 10.5964 5 17.5 5Z" fill="#232323" stroke="url(#paint1_linear_4_784)"/>
<g filter="url(#filter1_f_4_784)">
<g opacity="0.1">
<path d="M35.5922 19.9371C32.9833 20.9094 31.3343 23.4139 31.521 26.1528L31.5821 27.2118L30.5399 27.0818C26.742 26.5873 23.4219 24.9028 20.6052 22.0772L19.2252 20.6705L18.874 21.7083C18.1185 24.0172 18.6007 26.4562 20.1674 28.0973C21.0008 29.0007 20.8141 29.1307 19.3729 28.5918C18.874 28.4185 18.4307 28.2885 18.3918 28.3529C18.244 28.5051 18.7429 30.4707 19.1429 31.2441C19.6852 32.3252 20.7919 33.3841 22.003 34.0086L23.023 34.503L21.8163 34.5253C20.6441 34.5253 20.6052 34.5475 20.7274 34.9986C21.1485 36.4053 22.7975 37.8931 24.642 38.5409L25.9353 38.9965L24.7986 39.6821C23.1319 40.6765 21.1696 41.2354 19.2096 41.2799C18.2674 41.3021 17.4951 41.3888 17.4951 41.4532C17.4951 41.6699 20.043 42.8766 21.523 43.3499C25.9675 44.7566 31.2499 44.1488 35.2166 41.7565C38.0334 40.051 40.8546 36.6609 42.1701 33.3841C42.8779 31.6352 43.5891 28.4407 43.5891 26.9084C43.5891 25.9184 43.6502 25.7862 44.8213 24.5995C45.5069 23.9095 46.1536 23.1539 46.2802 22.9417C46.4891 22.5294 46.4669 22.5294 45.4036 22.8983C43.628 23.5406 43.3768 23.4583 44.258 22.4861C44.9047 21.7961 45.6724 20.546 45.6724 20.1772C45.6724 20.1116 45.3602 20.2205 45.008 20.416C44.6302 20.6283 43.7968 20.9538 43.1724 21.1494L42.0435 21.5139L41.019 20.8016C40.4457 20.4149 39.6556 19.9816 39.2356 19.8516C38.1723 19.5516 36.5445 19.596 35.5855 19.9383" fill="#0A1496"/>
</g>
</g>
<path d="M35.0971 19.5074C32.4881 20.4797 30.8392 22.9842 31.0259 25.7231L31.087 26.782L30.0448 26.652C26.2469 26.1576 22.9268 24.4731 20.1101 21.6475L18.73 20.2408L18.3789 21.2786C17.6233 23.5875 18.1056 26.0265 19.6723 27.6676C20.5056 28.571 20.319 28.701 18.8778 28.1621C18.3789 27.9887 17.9356 27.8587 17.8967 27.9232C17.7489 28.0754 18.2478 30.041 18.6478 30.8144C19.1901 31.8955 20.2967 32.9544 21.5079 33.5789L22.5279 34.0733L21.3212 34.0955C20.149 34.0955 20.1101 34.1178 20.2323 34.5689C20.6534 35.9756 22.3023 37.4634 24.1468 38.1112L25.4402 38.5668L24.3035 39.2523C22.6368 40.2468 20.6745 40.8057 18.7145 40.8501C17.7722 40.8724 17 40.959 17 41.0235C17 41.2402 19.5478 42.4469 21.0279 42.9202C25.4724 44.3269 30.7548 43.7191 34.7215 41.3268C37.5383 39.6212 40.3594 36.2312 41.675 32.9544C42.3828 31.2055 43.0939 28.011 43.0939 26.4787C43.0939 25.4887 43.1551 25.3565 44.3262 24.1698C45.0118 23.4797 45.6585 22.7242 45.7851 22.5119C45.994 22.0997 45.9718 22.0997 44.9084 22.4686C43.1328 23.1108 42.8817 23.0286 43.7629 22.0564C44.4095 21.3664 45.1773 20.1163 45.1773 19.7474C45.1773 19.6819 44.8651 19.7908 44.5129 19.9863C44.1351 20.1986 43.3017 20.5241 42.6773 20.7197L41.5484 21.0841L40.5239 20.3719C39.9505 19.9852 39.1605 19.5519 38.7405 19.4219C37.6772 19.1219 36.0493 19.1663 35.0904 19.5085" fill="url(#paint2_linear_4_784)"/>
</g>
<defs>
<filter id="filter0_f_4_784" x="3.26199" y="3.26209" width="57.476" height="57.4758" filterUnits="userSpaceOnUse" color-interpolation-filters="sRGB">
<feFlood flood-opacity="0" result="BackgroundImageFix"/>
<feBlend mode="normal" in="SourceGraphic" in2="BackgroundImageFix" result="shape"/>
<feGaussianBlur stdDeviation="0.618759" result="effect1_foregroundBlur_4_784"/>
</filter>
<filter id="filter1_f_4_784" x="17.2284" y="19.3849" width="29.422" height="24.9785" filterUnits="userSpaceOnUse" color-interpolation-filters="sRGB">
<feFlood flood-opacity="0" result="BackgroundImageFix"/>
<feBlend mode="normal" in="SourceGraphic" in2="BackgroundImageFix" result="shape"/>
<feGaussianBlur stdDeviation="0.133335" result="effect1_foregroundBlur_4_784"/>
</filter>
<linearGradient id="paint0_linear_4_784" x1="4.49951" y1="32" x2="59.5003" y2="32" gradientUnits="userSpaceOnUse">
<stop stop-color="#FDFC47"/>
<stop offset="1" stop-color="#24FE41"/>
</linearGradient>
<linearGradient id="paint1_linear_4_784" x1="4.5" y1="32" x2="59.5" y2="32" gradientUnits="userSpaceOnUse">
<stop stop-color="#FDFC47"/>
<stop offset="1" stop-color="#24FE41"/>
</linearGradient>
<linearGradient id="paint2_linear_4_784" x1="17" y1="31.4444" x2="45.8889" y2="31.4444" gradientUnits="userSpaceOnUse">
<stop stop-color="#FDFC47"/>
<stop offset="1" stop-color="#24FE41"/>
</linearGradient>
<clipPath id="clip0_4_784">
<rect width="64" height="64" fill="white"/>
</clipPath>
</defs>
</svg>
