<svg width="64" height="64" viewBox="0 0 64 64" fill="none" xmlns="http://www.w3.org/2000/svg">
<g clip-path="url(#clip0_4_743)">
<g opacity="0.3" filter="url(#filter0_f_4_743)">
<path d="M44.5 4.49991H19.5C11.2157 4.49991 4.5 11.2156 4.5 19.4999V44.4999C4.5 52.7842 11.2157 59.4999 19.5 59.4999H44.5C52.7843 59.4999 59.5 52.7842 59.5 44.4999V19.4999C59.5 11.2156 52.7843 4.49991 44.5 4.49991Z" fill="#232323"/>
<path d="M19.5 4.99991H44.5C52.5081 4.99991 59 11.4918 59 19.4999V44.4999C59 52.508 52.5081 58.9999 44.5 58.9999H19.5C11.4919 58.9999 5 52.508 5 44.4999V19.4999C5 11.4918 11.4919 4.99991 19.5 4.99991Z" stroke="url(#paint0_linear_4_743)"/>
</g>
<path d="M19.5 4.99991H44.5C52.5081 4.99991 59 11.4918 59 19.4999V44.4999C59 52.508 52.5081 58.9999 44.5 58.9999H19.5C11.4919 58.9999 5 52.508 5 44.4999V19.4999C5 11.4918 11.4919 4.99991 19.5 4.99991Z" fill="#232323" stroke="url(#paint1_linear_4_743)"/>
<path d="M18.839 42.4235V33.4967H28.766V43.9166L18.839 42.4235ZM28.7656 30.4996L18.8384 30.5L18.8281 21.6796L28.7656 20.1996V30.4996ZM31.591 30.5008V19.7555L45.169 17.587V30.5008H31.591ZM31.5912 33.5001L45.1728 33.5L45.1693 46.417L31.5912 44.3223V33.5001Z" fill="url(#paint2_linear_4_743)" stroke="url(#paint3_linear_4_743)"/>
<path d="M63.501 48C63.501 56.5604 56.5614 63.5 48.001 63.5C39.4406 63.5 32.501 56.5604 32.501 48C32.501 39.4396 39.4406 32.5 48.001 32.5C56.5614 32.5 63.501 39.4396 63.501 48Z" fill="#232323" stroke="url(#paint4_linear_4_743)"/>
<path opacity="0.5" d="M48.0008 54.9925C51.8632 54.9925 54.9943 51.8614 54.9943 47.999C54.9943 44.1366 51.8632 41.0055 48.0008 41.0055C44.1384 41.0055 41.0073 44.1366 41.0073 47.999C41.0073 51.8614 44.1384 54.9925 48.0008 54.9925Z" stroke="url(#paint5_linear_4_743)" stroke-width="1.3321"/>
<path d="M47.9308 34.002C47.2693 34.0691 47.2799 34.6292 47.0658 36.0093C46.6134 36.0442 46.1635 36.1046 45.7181 36.1901C45.0977 34.7652 44.8861 34.2718 44.3314 34.4704C43.7018 34.6958 43.8534 35.2392 43.9775 36.648C43.5592 36.7936 43.1492 36.9621 42.7495 37.1527C41.8587 36.076 41.5832 35.5891 40.9803 35.87C40.4471 36.1185 40.6415 36.6184 41.2002 38.062C40.8268 38.3153 40.4681 38.5894 40.1257 38.8829C38.9975 38.0808 38.6037 37.6857 38.0963 38.1115C37.6499 38.4861 37.9618 38.9179 38.8559 40.1409C38.5664 40.4786 38.2958 40.8321 38.0455 41.1998C36.7374 40.7483 36.2476 40.4806 35.8809 41.032C35.5624 41.5109 35.9763 41.8396 37.1427 42.7335C36.9388 43.1605 36.7602 43.5992 36.608 44.0474C35.2534 43.8969 34.718 43.7489 34.4836 44.3635C34.275 44.9108 34.7612 45.1343 36.1539 45.7749C36.0656 46.2361 36.0043 46.7022 35.9705 47.1707C34.6363 47.3529 34.0853 47.3445 34.0088 47.9941C33.94 48.5781 34.4668 48.6737 35.9874 48.9567C36.0227 49.3853 36.0809 49.8118 36.1617 50.2342C34.8772 50.8537 34.3302 50.9987 34.4589 51.6573C34.5712 52.2319 35.1021 52.1646 36.621 51.9721C36.7701 52.4017 36.9434 52.8226 37.1401 53.2327C36.0369 54.1664 35.5395 54.4418 35.8301 55.0513C36.0846 55.5851 36.5825 55.3814 38.039 54.8029L37.9037 54.5622C38.1854 54.9925 38.4944 55.4044 38.8286 55.7954C38.0488 56.9578 37.6589 57.3628 38.1001 57.8612C38.4821 58.2927 38.9064 57.9766 40.0748 57.0742C40.4227 57.3753 40.7876 57.6563 41.1675 57.9159C40.6187 59.3832 40.4245 59.885 40.9633 60.1287C41.5681 60.4023 41.8409 59.9127 42.7156 58.8304C43.133 59.0322 43.5617 59.2098 43.9995 59.3625C43.7993 60.8463 43.7332 61.3737 44.3013 61.4895C44.9537 61.6224 45.1085 61.0831 45.7258 59.8257C46.1691 59.9127 46.6168 59.9748 47.067 60.0117C47.2876 61.5175 47.3668 62.0453 47.9489 61.9994C48.6098 61.9473 48.6127 61.3878 48.8556 60.022C49.3228 59.9888 49.7875 59.9284 50.2475 59.8412C50.8155 61.1931 51.0297 61.676 51.5731 61.4894C52.1921 61.2769 52.0668 60.7387 51.9621 59.395C52.3793 59.2531 52.7884 59.0885 53.1875 58.9019C54.1705 60.0511 54.5185 60.4533 54.9853 60.1052C55.5066 59.7165 55.23 59.2435 54.7264 58.0134C55.1208 57.7498 55.4991 57.4631 55.8595 57.1548C57.0888 58.0252 57.5246 58.3303 57.8915 57.8794C58.3026 57.3742 57.9171 56.9822 57.1253 55.9086C57.4366 55.5459 57.7259 55.1649 57.9917 54.7677C59.3339 55.3245 59.8253 55.5146 60.0796 55.0019C60.3705 54.4151 59.9025 54.1216 58.8815 53.2379C59.0754 52.8298 59.246 52.4112 59.3927 51.9839C60.8729 52.1439 61.401 52.1932 61.5014 51.6235C61.6155 50.9767 61.082 50.8284 59.8454 50.2641C59.9311 49.8148 59.991 49.361 60.025 48.9047C61.5243 48.6715 62.0507 48.5868 61.9997 48.0058C61.9418 47.3461 61.3835 47.3475 60.0185 47.1173C59.9828 46.6646 59.9216 46.2143 59.835 45.7683C61.2131 45.134 61.6963 44.9082 61.4884 44.3633C61.2549 43.7512 60.7214 43.8957 59.3784 44.0459C59.2254 43.609 59.0473 43.1812 58.8451 42.7646C60.0552 41.8286 60.4789 41.5007 60.1525 41.0149C59.7768 40.4558 59.2873 40.742 57.9293 41.214C57.6745 40.8429 57.3991 40.4864 57.1045 40.146C57.9915 38.8696 58.2999 38.4311 57.8395 38.0633C57.3232 37.6507 56.9392 38.0523 55.8362 38.8776C55.4859 38.5799 55.1189 38.3024 54.737 38.0464C55.2948 36.6183 55.4897 36.1194 54.9608 35.87H54.9597C54.3584 35.5883 54.0797 36.0748 53.1853 37.1487C52.7784 36.9565 52.361 36.7871 51.9353 36.6414C52.1356 35.1185 52.2057 34.5866 51.6308 34.4716C50.9699 34.3392 50.8245 34.8887 50.192 36.1823C49.7529 36.0988 49.3095 36.0397 48.8638 36.0054C48.6039 34.4723 48.5172 33.9424 47.9308 34.002ZM50.8994 38.2389C51.3212 38.1811 51.9908 38.444 52.692 38.8334C53.8606 39.4822 55.1153 40.4825 55.4498 40.9343C57.0512 42.6487 58.2197 44.7754 58.287 48.1929C58.2996 48.8294 58.2398 49.4061 58.0906 49.8775C57.9282 50.3701 57.5993 50.8622 57.0824 51.1016C56.6538 51.2818 56.1776 51.41 55.7347 51.2057C54.3548 50.5725 52.6193 49.4786 51.2272 48.6547C50.993 48.5159 50.8227 48.2908 50.7979 48.1772C50.5339 47.6761 50.584 46.9449 50.2138 46.5173C49.6726 45.7484 49.2067 45.863 49.0859 45.1097C49.0293 43.4349 49.0175 41.7412 49.0612 40.0909C49.0632 38.9458 49.887 38.2729 50.8994 38.2389ZM44.9635 38.2961C45.3143 38.2767 45.6807 38.3341 46.0029 38.5069C46.0643 38.5398 46.1234 38.5771 46.1811 38.6187C46.5485 38.9037 46.8937 39.2552 46.933 39.7413C47.0586 41.2544 46.9573 43.303 46.9226 44.9201C46.9166 45.1923 46.8039 45.4516 46.7171 45.529C46.41 46.0049 45.7489 46.3195 45.5581 46.852C45.1538 47.7009 45.4825 48.05 44.8855 48.5249C43.454 49.3962 41.983 50.2378 40.5237 51.0096C39.5247 51.5694 38.5343 51.1829 38.0078 50.3175C37.3216 49.413 37.7563 45.8506 38.1236 45.0294C38.8315 42.7928 40.1104 40.7305 43.0552 38.9947C43.6036 38.6714 44.1361 38.4417 44.6201 38.3403C44.7314 38.3184 44.8466 38.3026 44.9635 38.2961ZM48.0037 46.7229C48.3421 46.7231 48.6666 46.8576 48.9058 47.0969C49.1451 47.3362 49.2796 47.6606 49.2798 47.999C49.2799 48.1667 49.247 48.3327 49.1829 48.4877C49.1188 48.6426 49.0248 48.7834 48.9063 48.9021C48.7878 49.0207 48.6471 49.1148 48.4923 49.1791C48.3374 49.2433 48.1714 49.2764 48.0037 49.2765C47.8359 49.2766 47.6698 49.2436 47.5147 49.1795C47.3597 49.1153 47.2188 49.0212 47.1002 48.9026C46.9815 48.7839 46.8874 48.643 46.8233 48.488C46.7591 48.333 46.7261 48.1668 46.7262 47.999C46.7263 47.8314 46.7594 47.6653 46.8237 47.5105C46.8879 47.3556 46.982 47.2149 47.1007 47.0964C47.2193 46.9779 47.3601 46.8839 47.5151 46.8198C47.67 46.7558 47.836 46.7228 48.0037 46.7229ZM49.5517 50.377C49.6791 50.3722 49.8205 50.3956 49.9979 50.4655C50.733 50.8675 51.4665 51.2819 52.1912 51.7052C52.9159 52.1285 53.6308 52.5606 54.3298 52.9996C55.3142 53.5848 55.4743 54.636 54.988 55.5246C54.5479 56.5711 51.2465 57.9766 50.3518 58.0691C48.0609 58.5744 45.6355 58.4974 42.6596 56.8151C42.1053 56.5018 41.6391 56.1559 41.3093 55.7874C40.9679 55.3968 40.7122 54.8634 40.7694 54.2966C40.8325 53.8359 40.9651 53.3613 41.3665 53.0842C42.6141 52.2189 44.4393 51.2831 45.8571 50.5046C46.0957 50.3736 46.3764 50.3419 46.4867 50.3784C47.0524 50.4064 47.6564 50.8201 48.2129 50.7192C48.9159 50.6635 49.1694 50.3914 49.5517 50.377Z" fill="url(#paint6_linear_4_743)"/>
</g>
<defs>
<filter id="filter0_f_4_743" x="3.2625" y="3.26241" width="57.475" height="57.475" filterUnits="userSpaceOnUse" color-interpolation-filters="sRGB">
<feFlood flood-opacity="0" result="BackgroundImageFix"/>
<feBlend mode="normal" in="SourceGraphic" in2="BackgroundImageFix" result="shape"/>
<feGaussianBlur stdDeviation="0.61875" result="effect1_foregroundBlur_4_743"/>
</filter>
<linearGradient id="paint0_linear_4_743" x1="4.5" y1="31.9999" x2="59.5" y2="31.9999" gradientUnits="userSpaceOnUse">
<stop stop-color="#FDFC47"/>
<stop offset="1" stop-color="#24FE41"/>
</linearGradient>
<linearGradient id="paint1_linear_4_743" x1="4.5" y1="31.9999" x2="59.5" y2="31.9999" gradientUnits="userSpaceOnUse">
<stop stop-color="#FDFC47"/>
<stop offset="1" stop-color="#24FE41"/>
</linearGradient>
<linearGradient id="paint2_linear_4_743" x1="18.3276" y1="32.0004" x2="45.673" y2="32.0004" gradientUnits="userSpaceOnUse">
<stop stop-color="#FDFC47"/>
<stop offset="1" stop-color="#24FE41"/>
</linearGradient>
<linearGradient id="paint3_linear_4_743" x1="18.3276" y1="32.0004" x2="45.673" y2="32.0004" gradientUnits="userSpaceOnUse">
<stop stop-color="#FDFC47"/>
<stop offset="1" stop-color="#24FE41"/>
</linearGradient>
<linearGradient id="paint4_linear_4_743" x1="32.001" y1="48" x2="64.001" y2="48" gradientUnits="userSpaceOnUse">
<stop stop-color="#FDFC47"/>
<stop offset="1" stop-color="#24FE41"/>
</linearGradient>
<linearGradient id="paint5_linear_4_743" x1="41.0073" y1="47.999" x2="54.9943" y2="47.999" gradientUnits="userSpaceOnUse">
<stop stop-color="#FDFC47"/>
<stop offset="1" stop-color="#24FE41"/>
</linearGradient>
<linearGradient id="paint6_linear_4_743" x1="34.0029" y1="47.9999" x2="62.003" y2="47.9999" gradientUnits="userSpaceOnUse">
<stop stop-color="#FDFC47"/>
<stop offset="1" stop-color="#24FE41"/>
</linearGradient>
<clipPath id="clip0_4_743">
<rect width="64" height="64" fill="white"/>
</clipPath>
</defs>
</svg>
