<svg width="64" height="64" viewBox="0 0 64 64" fill="none" xmlns="http://www.w3.org/2000/svg">
<g opacity="0.3" filter="url(#filter0_f_4_732)">
<path d="M46.498 4.49979H17.502C10.3212 4.49979 4.5 10.321 4.5 17.5018V46.4978C4.5 53.6786 10.3212 59.4998 17.502 59.4998H46.498C53.6788 59.4998 59.5 53.6786 59.5 46.4978V17.5018C59.5 10.321 53.6788 4.49979 46.498 4.49979Z" fill="url(#paint0_linear_4_732)"/>
</g>
<path d="M17.502 4.99979H46.499C53.4037 4.99979 59.001 10.5971 59.001 17.5018V46.4988C59.001 53.4034 53.4037 59.0008 46.499 59.0008H17.502C10.5973 59.0008 5 53.4034 5 46.4988V17.5018C5 10.5971 10.5973 4.99979 17.502 4.99979Z" fill="#232323" stroke="url(#paint1_linear_4_732)"/>
<path d="M44.3875 8.49969H19.6105C13.4741 8.49969 8.49951 13.4743 8.49951 19.6107V44.3877C8.49951 50.5241 13.4741 55.4987 19.6105 55.4987H44.3875C50.5239 55.4987 55.4985 50.5241 55.4985 44.3877V19.6107C55.4985 13.4743 50.5239 8.49969 44.3875 8.49969Z" fill="url(#paint2_linear_4_732)"/>
<path opacity="0.6" d="M9.97013 26.497C9.94137 26.6469 9.92358 26.8032 9.896 26.9567H54.104C54.0779 26.8032 54.0588 26.6468 54.027 26.497H9.97013Z" fill="#232323"/>
<path opacity="0.6" d="M10.6953 16.51C10.7209 16.6636 10.7453 16.8168 10.7738 16.9697H53.2318C53.2582 16.8045 53.2809 16.6731 53.3046 16.51H10.6953Z" fill="#232323"/>
<path opacity="0.6" d="M9.97013 36.484C9.94137 36.6339 9.92358 36.7902 9.896 36.9437H54.104C54.0779 36.7902 54.0588 36.6338 54.027 36.484H9.97013Z" fill="#232323"/>
<path opacity="0.6" d="M9.97013 46.47C9.94137 46.6199 9.92358 46.7762 9.896 46.9297H54.104C54.0779 46.7762 54.0588 46.6198 54.027 46.47H9.97013Z" fill="#232323"/>
<path d="M5.30902 49.2463C5.3699 49.5198 5.43891 49.7891 5.51686 50.0539L5.51831 50.0589C5.53726 50.1258 5.55692 50.1888 5.57867 50.2585C5.58919 50.2922 5.60019 50.3274 5.61184 50.3654C5.7246 50.7146 5.84236 51.0512 5.97841 51.3739L5.51833 51.5679L5.97841 51.3739C6.13587 51.7474 6.31188 52.1118 6.50415 52.4666L6.06456 52.7048L6.50416 52.4666C6.69603 52.8207 6.90515 53.1649 7.12949 53.4976C7.35449 53.8312 7.59332 54.1536 7.84682 54.4611C8.10103 54.7694 8.36983 55.0648 8.65248 55.3475C8.93437 55.6294 9.23172 55.8982 9.54086 56.1532C9.84896 56.4072 10.1695 56.646 10.5023 56.8705L10.2228 57.285L10.5023 56.8705C10.8349 57.0948 11.1791 57.3039 11.5333 57.4958C11.8881 57.6881 12.2525 57.8641 12.626 58.0215C12.9998 58.1791 13.3829 58.3188 13.775 58.4402C14.1661 58.5613 14.5664 58.6631 14.9748 58.7462C15.3832 58.8294 15.7975 58.8935 16.2183 58.936C16.6393 58.9785 17.0682 58.9999 17.5021 58.9999H46.4981C46.9319 58.9999 47.3607 58.9785 47.7818 58.936C48.2025 58.8935 48.6169 58.8294 49.0253 58.7462C49.4338 58.6631 49.8341 58.5613 50.2251 58.4402C50.6172 58.3188 51.0003 58.1791 51.3741 58.0215C51.7476 57.8641 52.112 57.6881 52.4668 57.4958C52.8209 57.3039 53.1651 57.0948 53.4978 56.8705C53.8306 56.646 54.1511 56.4072 54.4593 56.1532C54.7684 55.8982 55.0657 55.6294 55.3476 55.3475C55.6303 55.0648 55.8991 54.7694 56.1533 54.4611L56.5391 54.7791L56.1533 54.461C56.4068 54.1536 56.6456 53.8312 56.8706 53.4976C57.095 53.1649 57.3041 52.8207 57.4959 52.4666C57.6882 52.1118 57.8642 51.7474 58.0217 51.3739C58.1599 51.046 58.281 50.7053 58.394 50.354C58.3944 50.3528 58.3947 50.3517 58.3951 50.3506L58.401 50.3311C58.4305 50.2344 58.4581 50.1437 58.4837 50.0533L58.4851 50.0482C58.5659 49.7733 58.6362 49.4922 58.6991 49.2053L5.30902 49.2463ZM5.30902 49.2463C5.08322 47.3831 5.00206 45.1705 5.00205 42.5174V30.8124C5.00205 30.0733 5.0012 29.5507 5.0001 28.8765L5.0001 28.8729V28.8725V24.7427C5.00728 22.3043 5.04277 20.4423 5.16958 19.0142C5.2972 17.577 5.51351 16.6378 5.84639 16.0109C6.16087 15.4187 6.59028 15.0844 7.24095 14.8825C7.9275 14.6695 8.84912 14.6076 10.1317 14.5992C10.6006 14.5961 11.1002 14.5998 11.6445 14.6039C12.1044 14.6073 12.5962 14.6109 13.1284 14.6109H23.7284H23.7524L23.7744 14.6088L23.7748 14.6088L23.7754 14.6087L23.7758 14.6087L23.7762 14.6086L23.7766 14.6086L23.7924 14.6075C23.8079 14.6065 23.8331 14.6052 23.8669 14.6043C23.9345 14.6025 24.036 14.6023 24.1626 14.6099C24.417 14.625 24.7661 14.6707 25.1438 14.7915C25.8892 15.0301 26.7462 15.5581 27.234 16.7582L27.2412 16.7758L27.2496 16.7928C27.8231 17.9444 28.2986 18.8983 28.7502 19.671C29.2024 20.4447 29.6477 21.0676 30.1737 21.5458C31.2584 22.5318 32.586 22.8121 34.6738 22.8121H54.6738C54.8222 22.8121 54.9652 22.8119 55.1031 22.8117C55.9971 22.8104 56.6745 22.8094 57.2114 22.8675C57.8254 22.9338 58.148 23.0689 58.3549 23.2787C58.5689 23.4958 58.7415 23.8759 58.8498 24.6292C58.9572 25.3766 58.9909 26.4043 59 27.8369V42.8402C58.9935 45.3254 58.9117 47.4289 58.6995 49.2035C58.6994 49.204 58.6992 49.2046 58.6991 49.2051L5.30902 49.2463Z" fill="#232323" stroke="url(#paint3_linear_4_732)"/>
<path d="M41.1109 29.744L31.3924 31.2967V39.0781H41.1109V29.744ZM30.1749 31.4904L22.8833 32.576L22.8899 39.0784L30.1751 39.0768L30.1749 31.4904ZM22.8897 40.408V46.9803L30.1783 48.0773L30.1751 48.0741V40.4079L22.8897 40.408ZM31.3923 40.4112V48.2448L41.1108 49.7438L41.1139 40.4112H31.3923Z" fill="url(#paint4_linear_4_732)"/>
<defs>
<filter id="filter0_f_4_732" x="2.3" y="2.29979" width="59.4" height="59.4" filterUnits="userSpaceOnUse" color-interpolation-filters="sRGB">
<feFlood flood-opacity="0" result="BackgroundImageFix"/>
<feBlend mode="normal" in="SourceGraphic" in2="BackgroundImageFix" result="shape"/>
<feGaussianBlur stdDeviation="1.1" result="effect1_foregroundBlur_4_732"/>
</filter>
<linearGradient id="paint0_linear_4_732" x1="4.5" y1="31.9998" x2="59.5" y2="31.9998" gradientUnits="userSpaceOnUse">
<stop stop-color="#FDFC47"/>
<stop offset="1" stop-color="#24FE41"/>
</linearGradient>
<linearGradient id="paint1_linear_4_732" x1="4.5" y1="32.0003" x2="59.501" y2="32.0003" gradientUnits="userSpaceOnUse">
<stop stop-color="#FDFC47"/>
<stop offset="1" stop-color="#24FE41"/>
</linearGradient>
<linearGradient id="paint2_linear_4_732" x1="8.49951" y1="31.9992" x2="55.4985" y2="31.9992" gradientUnits="userSpaceOnUse">
<stop stop-color="#FDFC47"/>
<stop offset="1" stop-color="#24FE41"/>
</linearGradient>
<linearGradient id="paint3_linear_4_732" x1="4.49951" y1="36.799" x2="59.5" y2="36.799" gradientUnits="userSpaceOnUse">
<stop stop-color="#FDFC47"/>
<stop offset="1" stop-color="#24FE41"/>
</linearGradient>
<linearGradient id="paint4_linear_4_732" x1="22.8833" y1="39.7439" x2="41.1139" y2="39.7439" gradientUnits="userSpaceOnUse">
<stop stop-color="#FDFC47"/>
<stop offset="1" stop-color="#24FE41"/>
</linearGradient>
</defs>
</svg>
