<svg width="64" height="64" viewBox="0 0 64 64" fill="none" xmlns="http://www.w3.org/2000/svg">
<g clip-path="url(#clip0_4_691)">
<g opacity="0.3" filter="url(#filter0_f_4_691)">
<path d="M44.5 4.5H19.5C11.2157 4.5 4.5 11.2157 4.5 19.5V44.5C4.5 52.7843 11.2157 59.5 19.5 59.5H44.5C52.7843 59.5 59.5 52.7843 59.5 44.5V19.5C59.5 11.2157 52.7843 4.5 44.5 4.5Z" fill="url(#paint0_linear_4_691)"/>
</g>
<path d="M19.5 5H44.5C52.5081 5 59 11.4919 59 19.5V44.5C59 52.5081 52.5081 59 44.5 59H19.5C11.4919 59 5 52.5081 5 44.5V19.5C5 11.4919 11.4919 5 19.5 5Z" fill="#232323" stroke="url(#paint1_linear_4_691)"/>
<path d="M28.5186 9.56528C29.6231 9.56528 30.5186 10.4607 30.5186 11.5653C30.5186 12.6698 29.6231 13.5653 28.5186 13.5653C27.414 13.5653 26.5186 12.6698 26.5186 11.5653C26.5186 10.4607 27.414 9.56528 28.5186 9.56528Z" fill="url(#paint2_linear_4_691)"/>
<path d="M16.9565 13.5653C18.0611 13.5653 18.9565 12.6698 18.9565 11.5653C18.9565 10.4607 18.0611 9.56528 16.9565 9.56528C15.852 9.56528 14.9565 10.4607 14.9565 11.5653C14.9565 12.6698 15.852 13.5653 16.9565 13.5653Z" fill="url(#paint3_linear_4_691)"/>
<path d="M22.7373 9.56528C23.8419 9.56528 24.7373 10.4607 24.7373 11.5653C24.7373 12.6698 23.8419 13.5653 22.7373 13.5653C21.6327 13.5653 20.7373 12.6698 20.7373 11.5653C20.7373 10.4607 21.6327 9.56528 22.7373 9.56528Z" fill="url(#paint4_linear_4_691)"/>
<path d="M19.5511 17.3997H44.4489C51.1261 17.3997 56.5 22.7737 56.5 29.4509V44.3486C56.5 51.0258 51.1261 56.3997 44.4489 56.3997H19.5511C12.8739 56.3997 7.5 51.0258 7.5 44.3486V29.4509C7.5 22.7737 12.8739 17.3997 19.5511 17.3997Z" fill="#232323" stroke="url(#paint5_linear_4_691)"/>
<path d="M29.4877 23.7631H18.2728C16.3747 23.7631 14.8359 25.3019 14.8359 27.2V46.3739C14.8359 48.2721 16.3747 49.8108 18.2728 49.8108H29.4877C31.3859 49.8108 32.9246 48.2721 32.9246 46.3739V27.2C32.9246 25.3019 31.3859 23.7631 29.4877 23.7631Z" fill="url(#paint6_linear_4_691)"/>
<path opacity="0.5" d="M28.8592 26.4712H18.2174C17.4828 26.4712 16.8872 27.0667 16.8872 27.8014C16.8872 28.536 17.4828 29.1316 18.2174 29.1316H28.8592C29.5939 29.1316 30.1894 28.536 30.1894 27.8014C30.1894 27.0667 29.5939 26.4712 28.8592 26.4712Z" fill="#232323"/>
<path opacity="0.5" d="M28.8592 32.3037H18.2174C17.4828 32.3037 16.8872 32.8992 16.8872 33.6339C16.8872 34.3686 17.4828 34.9641 18.2174 34.9641H28.8592C29.5939 34.9641 30.1894 34.3686 30.1894 33.6339C30.1894 32.8992 29.5939 32.3037 28.8592 32.3037Z" fill="#232323"/>
</g>
<defs>
<filter id="filter0_f_4_691" x="3.2625" y="3.2625" width="57.475" height="57.475" filterUnits="userSpaceOnUse" color-interpolation-filters="sRGB">
<feFlood flood-opacity="0" result="BackgroundImageFix"/>
<feBlend mode="normal" in="SourceGraphic" in2="BackgroundImageFix" result="shape"/>
<feGaussianBlur stdDeviation="0.61875" result="effect1_foregroundBlur_4_691"/>
</filter>
<linearGradient id="paint0_linear_4_691" x1="4.5" y1="32" x2="59.5" y2="32" gradientUnits="userSpaceOnUse">
<stop stop-color="#FDFC47"/>
<stop offset="1" stop-color="#24FE41"/>
</linearGradient>
<linearGradient id="paint1_linear_4_691" x1="4.5" y1="32" x2="59.5" y2="32" gradientUnits="userSpaceOnUse">
<stop stop-color="#FDFC47"/>
<stop offset="1" stop-color="#24FE41"/>
</linearGradient>
<linearGradient id="paint2_linear_4_691" x1="28.552" y1="13.4787" x2="28.552" y2="9.65001" gradientUnits="userSpaceOnUse">
<stop stop-color="#FF5032"/>
<stop offset="1" stop-color="#E63214"/>
</linearGradient>
<linearGradient id="paint3_linear_4_691" x1="16.99" y1="9.65183" x2="16.99" y2="13.4805" gradientUnits="userSpaceOnUse">
<stop stop-color="#FF8214"/>
<stop offset="1" stop-color="#FFBE14"/>
</linearGradient>
<linearGradient id="paint4_linear_4_691" x1="22.7708" y1="13.4787" x2="22.7708" y2="9.65001" gradientUnits="userSpaceOnUse">
<stop stop-color="#3CD23C"/>
<stop offset="1" stop-color="#1EAA1E"/>
</linearGradient>
<linearGradient id="paint5_linear_4_691" x1="7" y1="36.8997" x2="57" y2="36.8997" gradientUnits="userSpaceOnUse">
<stop stop-color="#FDFC47"/>
<stop offset="1" stop-color="#24FE41"/>
</linearGradient>
<linearGradient id="paint6_linear_4_691" x1="14.8359" y1="36.787" x2="32.9246" y2="36.787" gradientUnits="userSpaceOnUse">
<stop stop-color="#FDFC47"/>
<stop offset="1" stop-color="#24FE41"/>
</linearGradient>
<clipPath id="clip0_4_691">
<rect width="64" height="64" fill="white"/>
</clipPath>
</defs>
</svg>
