<svg width="64" height="64" viewBox="0 0 64 64" fill="none" xmlns="http://www.w3.org/2000/svg">
<g opacity="0.3" filter="url(#filter0_f_4_634)">
<path d="M44.5003 4.50003H19.5001C11.2158 4.50003 4.5 11.2158 4.5 19.5001V44.5003C4.5 52.7846 11.2158 59.5004 19.5001 59.5004H44.5003C52.7846 59.5004 59.5004 52.7846 59.5004 44.5003V19.5001C59.5004 11.2158 52.7846 4.50003 44.5003 4.50003Z" fill="url(#paint0_linear_4_634)"/>
</g>
<path d="M19.5005 5H44.5003C52.5087 5 59.0008 11.4921 59.0008 19.5005V44.5003C59.0008 52.5087 52.5087 59.0008 44.5003 59.0008H19.5005C11.4921 59.0008 5 52.5087 5 44.5003V19.5005C5 11.4921 11.4921 5 19.5005 5Z" fill="#232323" stroke="url(#paint1_linear_4_634)"/>
<path d="M32.7115 37.5447H6.30982C5.30467 37.5447 4.50049 38.3489 4.50049 39.354V44.5023C4.50049 52.7866 11.2162 59.5024 19.5005 59.5024H32.6911C33.6962 59.5024 34.5004 58.6982 34.5004 57.693V39.354C34.5227 38.3489 33.6943 37.5447 32.7115 37.5447Z" fill="url(#paint2_linear_4_634)"/>
<path d="M32.7103 41.9895H6.30859V47.6034C6.30859 53.1263 10.7857 57.6034 16.3086 57.6034H32.7103V41.9895Z" fill="url(#paint3_linear_4_634)"/>
<path d="M32.133 40.4688C32.4538 40.4688 32.7138 40.2088 32.7138 39.888C32.7138 39.5673 32.4538 39.3073 32.133 39.3073C31.8123 39.3073 31.5522 39.5673 31.5522 39.888C31.5522 40.2088 31.8123 40.4688 32.133 40.4688Z" fill="url(#paint4_linear_4_634)"/>
<path d="M30.0998 40.4688C30.4206 40.4688 30.6806 40.2088 30.6806 39.888C30.6806 39.5673 30.4206 39.3073 30.0998 39.3073C29.7791 39.3073 29.519 39.5673 29.519 39.888C29.519 40.2088 29.7791 40.4688 30.0998 40.4688Z" fill="url(#paint5_linear_4_634)"/>
<path d="M28.0661 40.4688C28.3869 40.4688 28.6469 40.2088 28.6469 39.888C28.6469 39.5673 28.3869 39.3073 28.0661 39.3073C27.7454 39.3073 27.4854 39.5673 27.4854 39.888C27.4854 40.2088 27.7454 40.4688 28.0661 40.4688Z" fill="url(#paint6_linear_4_634)"/>
<defs>
<filter id="filter0_f_4_634" x="3.26249" y="3.26252" width="57.4755" height="57.4754" filterUnits="userSpaceOnUse" color-interpolation-filters="sRGB">
<feFlood flood-opacity="0" result="BackgroundImageFix"/>
<feBlend mode="normal" in="SourceGraphic" in2="BackgroundImageFix" result="shape"/>
<feGaussianBlur stdDeviation="0.618754" result="effect1_foregroundBlur_4_634"/>
</filter>
<linearGradient id="paint0_linear_4_634" x1="4.5" y1="32.0002" x2="59.5004" y2="32.0002" gradientUnits="userSpaceOnUse">
<stop stop-color="#FDFC47"/>
<stop offset="1" stop-color="#24FE41"/>
</linearGradient>
<linearGradient id="paint1_linear_4_634" x1="4.5" y1="32.0004" x2="59.5008" y2="32.0004" gradientUnits="userSpaceOnUse">
<stop stop-color="#FDFC47"/>
<stop offset="1" stop-color="#24FE41"/>
</linearGradient>
<linearGradient id="paint2_linear_4_634" x1="4.50049" y1="48.5235" x2="34.5008" y2="48.5235" gradientUnits="userSpaceOnUse">
<stop stop-color="#FDFC47"/>
<stop offset="1" stop-color="#24FE41"/>
</linearGradient>
<linearGradient id="paint3_linear_4_634" x1="6.30859" y1="49.7965" x2="32.7103" y2="49.7965" gradientUnits="userSpaceOnUse">
<stop stop-color="#FDFC47"/>
<stop offset="1" stop-color="#24FE41"/>
</linearGradient>
<linearGradient id="paint4_linear_4_634" x1="31.5522" y1="39.888" x2="32.7138" y2="39.888" gradientUnits="userSpaceOnUse">
<stop stop-color="#FDFC47"/>
<stop offset="1" stop-color="#24FE41"/>
</linearGradient>
<linearGradient id="paint5_linear_4_634" x1="29.519" y1="39.888" x2="30.6806" y2="39.888" gradientUnits="userSpaceOnUse">
<stop stop-color="#FDFC47"/>
<stop offset="1" stop-color="#24FE41"/>
</linearGradient>
<linearGradient id="paint6_linear_4_634" x1="27.4854" y1="39.888" x2="28.6469" y2="39.888" gradientUnits="userSpaceOnUse">
<stop stop-color="#FDFC47"/>
<stop offset="1" stop-color="#24FE41"/>
</linearGradient>
</defs>
</svg>
