<svg width="64" height="64" viewBox="0 0 64 64" fill="none" xmlns="http://www.w3.org/2000/svg">
<g opacity="0.3" filter="url(#filter0_f_4_616)">
<path d="M44.5003 4.50003H19.5001C11.2158 4.50003 4.5 11.2158 4.5 19.5001V44.5003C4.5 52.7846 11.2158 59.5004 19.5001 59.5004H44.5003C52.7846 59.5004 59.5004 52.7846 59.5004 44.5003V19.5001C59.5004 11.2158 52.7846 4.50003 44.5003 4.50003Z" fill="url(#paint0_linear_4_616)"/>
</g>
<path d="M19.5005 5H44.5003C52.5087 5 59.0008 11.4921 59.0008 19.5005V44.5003C59.0008 52.5087 52.5087 59.0008 44.5003 59.0008H19.5005C11.4921 59.0008 5 52.5087 5 44.5003V19.5005C5 11.4921 11.4921 5 19.5005 5Z" fill="#232323" stroke="url(#paint1_linear_4_616)"/>
<path d="M59.5014 19.5015C59.5014 11.2172 52.7857 4.5015 44.5014 4.5015H31.3108C30.3057 4.5015 29.5015 5.30568 29.5015 6.31083V24.6498C29.5015 25.655 30.3057 26.4592 31.3108 26.4592H57.692C58.6972 26.4592 59.5014 25.655 59.5014 24.6498V19.5015Z" fill="url(#paint2_linear_4_616)"/>
<path d="M48 8H31V25H58V18C58 12.4772 53.5228 8 48 8Z" fill="url(#paint3_linear_4_616)"/>
<path d="M52.134 11.4256C52.4547 11.4256 52.7148 11.1656 52.7148 10.8448C52.7148 10.5241 52.4547 10.2641 52.134 10.2641C51.8132 10.2641 51.5532 10.5241 51.5532 10.8448C51.5532 11.1656 51.8132 11.4256 52.134 11.4256Z" fill="url(#paint4_linear_4_616)"/>
<path d="M50.1008 11.4256C50.4215 11.4256 50.6816 11.1656 50.6816 10.8448C50.6816 10.5241 50.4215 10.2641 50.1008 10.2641C49.78 10.2641 49.52 10.5241 49.52 10.8448C49.52 11.1656 49.78 11.4256 50.1008 11.4256Z" fill="url(#paint5_linear_4_616)"/>
<path d="M48.0671 11.4256C48.3879 11.4256 48.6479 11.1656 48.6479 10.8448C48.6479 10.5241 48.3879 10.2641 48.0671 10.2641C47.7463 10.2641 47.4863 10.5241 47.4863 10.8448C47.4863 11.1656 47.7463 11.4256 48.0671 11.4256Z" fill="url(#paint6_linear_4_616)"/>
<defs>
<filter id="filter0_f_4_616" x="3.26249" y="3.26252" width="57.4755" height="57.4754" filterUnits="userSpaceOnUse" color-interpolation-filters="sRGB">
<feFlood flood-opacity="0" result="BackgroundImageFix"/>
<feBlend mode="normal" in="SourceGraphic" in2="BackgroundImageFix" result="shape"/>
<feGaussianBlur stdDeviation="0.618754" result="effect1_foregroundBlur_4_616"/>
</filter>
<linearGradient id="paint0_linear_4_616" x1="4.5" y1="32.0002" x2="59.5004" y2="32.0002" gradientUnits="userSpaceOnUse">
<stop stop-color="#FDFC47"/>
<stop offset="1" stop-color="#24FE41"/>
</linearGradient>
<linearGradient id="paint1_linear_4_616" x1="4.5" y1="32.0004" x2="59.5008" y2="32.0004" gradientUnits="userSpaceOnUse">
<stop stop-color="#FDFC47"/>
<stop offset="1" stop-color="#24FE41"/>
</linearGradient>
<linearGradient id="paint2_linear_4_616" x1="29.5015" y1="15.4803" x2="59.5014" y2="15.4803" gradientUnits="userSpaceOnUse">
<stop stop-color="#FDFC47"/>
<stop offset="1" stop-color="#24FE41"/>
</linearGradient>
<linearGradient id="paint3_linear_4_616" x1="31" y1="16.5" x2="58" y2="16.5" gradientUnits="userSpaceOnUse">
<stop stop-color="#FDFC47"/>
<stop offset="1" stop-color="#24FE41"/>
</linearGradient>
<linearGradient id="paint4_linear_4_616" x1="51.5532" y1="10.8448" x2="52.7148" y2="10.8448" gradientUnits="userSpaceOnUse">
<stop stop-color="#FDFC47"/>
<stop offset="1" stop-color="#24FE41"/>
</linearGradient>
<linearGradient id="paint5_linear_4_616" x1="49.52" y1="10.8448" x2="50.6816" y2="10.8448" gradientUnits="userSpaceOnUse">
<stop stop-color="#FDFC47"/>
<stop offset="1" stop-color="#24FE41"/>
</linearGradient>
<linearGradient id="paint6_linear_4_616" x1="47.4863" y1="10.8448" x2="48.6479" y2="10.8448" gradientUnits="userSpaceOnUse">
<stop stop-color="#FDFC47"/>
<stop offset="1" stop-color="#24FE41"/>
</linearGradient>
</defs>
</svg>
