<svg width="64" height="64" viewBox="0 0 64 64" fill="none" xmlns="http://www.w3.org/2000/svg">
<g opacity="0.3" filter="url(#filter0_f_4_588)">
<path d="M44.5 4.49982H19.4999C11.2155 4.49982 4.49976 11.2156 4.49976 19.4999V44.5001C4.49976 52.7844 11.2155 59.5002 19.4999 59.5002H44.5C52.7844 59.5002 59.5001 52.7844 59.5001 44.5001V19.4999C59.5001 11.2156 52.7844 4.49982 44.5 4.49982Z" fill="#232323"/>
<path d="M19.4999 4.99982H44.5C52.5082 4.99982 59.0001 11.4917 59.0001 19.4999V44.5001C59.0001 52.5083 52.5082 59.0002 44.5 59.0002H19.4999C11.4917 59.0002 4.99976 52.5083 4.99976 44.5001V19.4999C4.99976 11.4917 11.4917 4.99982 19.4999 4.99982Z" stroke="url(#paint0_linear_4_588)"/>
</g>
<path d="M19.5001 5H44.5007C52.5089 5 59.0008 11.4919 59.0008 19.5001V44.5007C59.0008 52.5089 52.5089 59.0008 44.5007 59.0008H19.5001C11.4919 59.0008 5 52.5089 5 44.5007V19.5001C5 11.4919 11.4919 5 19.5001 5Z" fill="#232323" stroke="url(#paint1_linear_4_588)"/>
<path d="M17.8945 43.2991V31.9944H40.4663C40.4663 31.9944 46.1055 31.9944 46.1055 26.3514C46.1055 20.7085 40.4663 20.7047 40.4663 20.7047H17.8945" fill="#232323"/>
<path d="M17.8945 43.2991V31.9944H40.4663C40.4663 31.9944 46.1055 31.9944 46.1055 26.3514C46.1055 20.7085 40.4663 20.7047 40.4663 20.7047H17.8945" stroke="url(#paint2_linear_4_588)" stroke-width="3" stroke-linecap="round"/>
<defs>
<filter id="filter0_f_4_588" x="3.26225" y="3.26231" width="57.4755" height="57.4754" filterUnits="userSpaceOnUse" color-interpolation-filters="sRGB">
<feFlood flood-opacity="0" result="BackgroundImageFix"/>
<feBlend mode="normal" in="SourceGraphic" in2="BackgroundImageFix" result="shape"/>
<feGaussianBlur stdDeviation="0.618754" result="effect1_foregroundBlur_4_588"/>
</filter>
<linearGradient id="paint0_linear_4_588" x1="4.49976" y1="32" x2="59.5001" y2="32" gradientUnits="userSpaceOnUse">
<stop stop-color="#FDFC47"/>
<stop offset="1" stop-color="#24FE41"/>
</linearGradient>
<linearGradient id="paint1_linear_4_588" x1="4.5" y1="32.0004" x2="59.5008" y2="32.0004" gradientUnits="userSpaceOnUse">
<stop stop-color="#FDFC47"/>
<stop offset="1" stop-color="#24FE41"/>
</linearGradient>
<linearGradient id="paint2_linear_4_588" x1="17.8945" y1="32.0019" x2="46.1055" y2="32.0019" gradientUnits="userSpaceOnUse">
<stop stop-color="#FDFC47"/>
<stop offset="1" stop-color="#24FE41"/>
</linearGradient>
</defs>
</svg>
