<svg width="64" height="64" viewBox="0 0 64 64" fill="none" xmlns="http://www.w3.org/2000/svg">
<g clip-path="url(#clip0_4_427)">
<g opacity="0.3" filter="url(#filter0_f_4_427)">
<path d="M44.5003 4.50003H19.5001C11.2158 4.50003 4.5 11.2158 4.5 19.5001V44.5003C4.5 52.7846 11.2158 59.5004 19.5001 59.5004H44.5003C52.7846 59.5004 59.5004 52.7846 59.5004 44.5003V19.5001C59.5004 11.2158 52.7846 4.50003 44.5003 4.50003Z" fill="#232323"/>
<path d="M19.5001 5.00003H44.5003C52.5085 5.00003 59.0004 11.4919 59.0004 19.5001V44.5003C59.0004 52.5085 52.5085 59.0004 44.5003 59.0004H19.5001C11.4919 59.0004 5 52.5085 5 44.5003V19.5001C5 11.4919 11.4919 5.00003 19.5001 5.00003Z" stroke="url(#paint0_linear_4_427)"/>
</g>
<path d="M19.5001 5H44.5007C52.5089 5 59.0008 11.4919 59.0008 19.5001V44.5007C59.0008 52.5089 52.5089 59.0008 44.5007 59.0008H19.5001C11.4919 59.0008 5 52.5089 5 44.5007V19.5001C5 11.4919 11.4919 5 19.5001 5Z" fill="#232323" stroke="url(#paint1_linear_4_427)"/>
<path d="M15 0.5H49C57.0081 0.5 63.5 6.99187 63.5 15V49C63.5 57.0081 57.0081 63.5 49 63.5H15C6.99187 63.5 0.5 57.0081 0.5 49V15C0.5 6.99187 6.99187 0.5 15 0.5Z" fill="#232323" stroke="url(#paint2_linear_4_427)"/>
<path d="M43.1699 19.7327C45.5174 19.7327 46.844 19.7358 47.5772 19.7623C47.3065 20.0912 46.93 20.5478 46.4747 21.0993C45.5589 22.2085 44.3247 23.7011 42.9934 25.3091C40.8074 27.9488 39.5941 29.4272 38.9541 30.275C38.6397 30.6914 38.4375 30.989 38.332 31.2117C38.2791 31.3232 38.2282 31.4607 38.2248 31.6121C38.2208 31.7921 38.2843 31.9449 38.3839 32.0617L38.3846 32.0624C38.3841 32.0619 38.3868 32.065 38.3946 32.0746L38.4233 32.1099L38.5216 32.232C38.6041 32.3349 38.7191 32.4787 38.8621 32.6578C39.148 33.0159 39.545 33.5143 40.0163 34.1065C40.9589 35.291 42.1984 36.8505 43.4404 38.4145C45.3072 40.765 47.1734 43.1177 48.05 44.2267C48.0191 44.228 47.987 44.2292 47.9538 44.2304C47.1618 44.2593 45.8085 44.269 43.6257 44.269H38.3865L33.3071 37.8839L33.3071 37.8838C31.8692 36.077 30.5621 34.4186 29.615 33.2023C29.1412 32.5939 28.7585 32.0975 28.4948 31.7489C28.4159 31.6447 28.3484 31.5546 28.2927 31.4793C28.343 31.4137 28.4028 31.3366 28.4718 31.2485C28.7237 30.9268 29.0895 30.4691 29.5427 29.9084C30.4487 28.7875 31.699 27.2607 33.0746 25.5991L33.0747 25.599L37.9289 19.7325L43.1699 19.7327ZM25.4413 32.2406C25.4629 32.2118 25.4837 32.1839 25.5037 32.157L27.7779 35.0198L27.7779 35.0198C28.9245 36.463 29.9397 37.7464 30.3274 38.2385C30.2537 38.3627 30.1383 38.5369 29.9733 38.7686C29.5858 39.3129 28.9621 40.1226 28.0723 41.2383C28.0722 41.2383 28.0722 41.2384 28.0722 41.2384L25.6547 44.2684H15.9454C16.5854 43.4612 18.703 40.7997 21.0335 37.8732L21.0335 37.8731C22.3549 36.2133 23.5523 34.6919 24.4171 33.5772C24.8493 33.0202 25.1997 32.5631 25.4413 32.2406ZM25.5537 30.7295C25.5293 30.6949 25.5036 30.6586 25.4766 30.6207C25.2389 30.2865 24.8906 29.8093 24.4696 29.2384C23.6269 28.0958 22.4865 26.5694 21.3411 25.0429C20.1954 23.516 19.044 21.988 18.179 20.8418C18.0455 20.6648 17.9187 20.4969 17.7999 20.3395L30.1522 25.1544C30.0505 25.2809 29.9318 25.4278 29.7982 25.5921C29.3163 26.185 28.6466 26.9996 27.9051 27.8931L27.905 27.8933L25.5537 30.7295Z" fill="url(#paint3_linear_4_427)" stroke="url(#paint4_linear_4_427)"/>
</g>
<defs>
<filter id="filter0_f_4_427" x="3.26249" y="3.26252" width="57.4755" height="57.4754" filterUnits="userSpaceOnUse" color-interpolation-filters="sRGB">
<feFlood flood-opacity="0" result="BackgroundImageFix"/>
<feBlend mode="normal" in="SourceGraphic" in2="BackgroundImageFix" result="shape"/>
<feGaussianBlur stdDeviation="0.618754" result="effect1_foregroundBlur_4_427"/>
</filter>
<linearGradient id="paint0_linear_4_427" x1="4.5" y1="32.0002" x2="59.5004" y2="32.0002" gradientUnits="userSpaceOnUse">
<stop stop-color="#FDFC47"/>
<stop offset="1" stop-color="#24FE41"/>
</linearGradient>
<linearGradient id="paint1_linear_4_427" x1="4.5" y1="32.0004" x2="59.5008" y2="32.0004" gradientUnits="userSpaceOnUse">
<stop stop-color="#FDFC47"/>
<stop offset="1" stop-color="#24FE41"/>
</linearGradient>
<linearGradient id="paint2_linear_4_427" x1="0" y1="32" x2="64" y2="32" gradientUnits="userSpaceOnUse">
<stop stop-color="#FDFC47"/>
<stop offset="1" stop-color="#24FE41"/>
</linearGradient>
<linearGradient id="paint3_linear_4_427" x1="14.9187" y1="32.0008" x2="48.9672" y2="32.0008" gradientUnits="userSpaceOnUse">
<stop stop-color="#FDFC47"/>
<stop offset="1" stop-color="#24FE41"/>
</linearGradient>
<linearGradient id="paint4_linear_4_427" x1="14.9187" y1="32.0008" x2="48.9672" y2="32.0008" gradientUnits="userSpaceOnUse">
<stop stop-color="#FDFC47"/>
<stop offset="1" stop-color="#24FE41"/>
</linearGradient>
<clipPath id="clip0_4_427">
<rect width="64" height="64" rx="15" fill="white"/>
</clipPath>
</defs>
</svg>
