<svg width="64" height="64" viewBox="0 0 64 64" fill="none" xmlns="http://www.w3.org/2000/svg">
<g opacity="0.3" filter="url(#filter0_f_4_379)">
<path d="M44.5 4.5H19.5C11.2157 4.5 4.5 11.2157 4.5 19.5V44.5C4.5 52.7843 11.2157 59.5 19.5 59.5H44.5C52.7843 59.5 59.5 52.7843 59.5 44.5V19.5C59.5 11.2157 52.7843 4.5 44.5 4.5Z" fill="#232323"/>
<path d="M19.5 5H44.5C52.5081 5 59 11.4919 59 19.5V44.5C59 52.5081 52.5081 59 44.5 59H19.5C11.4919 59 5 52.5081 5 44.5V19.5C5 11.4919 11.4919 5 19.5 5Z" stroke="url(#paint0_linear_4_379)"/>
</g>
<path d="M19.5 5H44.5C52.5081 5 59 11.4919 59 19.5V44.5C59 52.5081 52.5081 59 44.5 59H19.5C11.4919 59 5 52.5081 5 44.5V19.5C5 11.4919 11.4919 5 19.5 5Z" fill="#232323" stroke="url(#paint1_linear_4_379)"/>
<path d="M22.2466 19.1205L22.2466 19.1204L22.2394 19.1124C21.6636 18.4811 21.6381 18.0797 21.7085 17.8599C21.7887 17.6095 22.0677 17.342 22.5946 17.1455C23.104 16.9556 23.7479 16.8725 24.3625 16.9169C24.9645 16.9605 25.4732 17.1214 25.7901 17.357L44.1707 38.3151C44.8064 39.0818 44.8826 39.5638 44.8212 39.8379C44.7597 40.1126 44.5159 40.3742 44.0395 40.5928C43.5739 40.8063 42.9805 40.932 42.4233 40.9844C41.9646 41.0275 41.5764 41.017 41.3409 40.985L22.2466 19.1205Z" fill="url(#paint2_linear_4_379)" stroke="#232323"/>
<mask id="path-5-inside-1_4_379" fill="white">
<path d="M37.6166 19.4907L30.0486 28.0946L19.6994 43.0425C16.2874 50.8598 22.282 47.6518 23.4074 45.3652L32.2673 30.8186L42.9872 19.704C45.0659 16.4387 41.6379 13.4281 37.6006 19.4907"/>
</mask>
<path d="M37.6166 19.4907L30.0486 28.0946L19.6994 43.0425C16.2874 50.8598 22.282 47.6518 23.4074 45.3652L32.2673 30.8186L42.9872 19.704C45.0659 16.4387 41.6379 13.4281 37.6006 19.4907" fill="url(#paint3_linear_4_379)"/>
<path d="M30.0486 28.0946L29.2978 27.4342L29.2595 27.4777L29.2265 27.5254L30.0486 28.0946ZM19.6994 43.0425L18.8772 42.4733L18.8218 42.5533L18.7829 42.6425L19.6994 43.0425ZM23.4074 45.3652L22.5533 44.845L22.5299 44.8834L22.5101 44.9236L23.4074 45.3652ZM32.2673 30.8186L31.5475 30.1244L31.4708 30.204L31.4132 30.2984L32.2673 30.8186ZM42.9872 19.704L43.707 20.3982L43.7768 20.3259L43.8308 20.241L42.9872 19.704ZM36.8657 18.8302L29.2978 27.4342L30.7995 28.7551L38.3675 20.1511L36.8657 18.8302ZM29.2265 27.5254L18.8772 42.4733L20.5215 43.6118L30.8708 28.6639L29.2265 27.5254ZM18.7829 42.6425C17.9218 44.6154 17.5516 46.1002 17.6895 47.1546C17.7634 47.7195 17.9973 48.2558 18.4759 48.6153C18.9427 48.9659 19.4864 49.0304 19.9427 48.9887C20.8193 48.9087 21.7466 48.4114 22.4734 47.8663C23.2113 47.3129 23.9287 46.5705 24.3046 45.8068L22.5101 44.9236C22.3233 45.3032 21.8694 45.8193 21.2735 46.2662C20.6664 46.7215 20.0973 46.9663 19.761 46.997C19.611 47.0107 19.6191 46.9726 19.677 47.0161C19.7468 47.0685 19.6985 47.0933 19.6726 46.8952C19.611 46.424 19.771 45.3783 20.6159 43.4426L18.7829 42.6425ZM24.2614 45.8854L33.1214 31.3388L31.4132 30.2984L22.5533 44.845L24.2614 45.8854ZM32.9871 31.5128L43.707 20.3982L42.2675 19.0098L31.5475 30.1244L32.9871 31.5128ZM43.8308 20.241C44.4497 19.2689 44.7129 18.2309 44.5802 17.2995C44.4456 16.3547 43.8869 15.5099 42.9309 15.1602C42.0008 14.8201 40.936 15.0358 39.9194 15.652C38.8975 16.2715 37.8284 17.3445 36.7683 18.9364L38.4329 20.045C39.3915 18.6056 40.2649 17.7814 40.9562 17.3623C41.6529 16.94 42.0721 16.9757 42.2439 17.0385C42.3897 17.0919 42.5506 17.2331 42.6002 17.5816C42.6518 17.9437 42.5641 18.5065 42.1436 19.167L43.8308 20.241Z" fill="#232323" mask="url(#path-5-inside-1_4_379)"/>
<mask id="path-7-inside-2_4_379" fill="white">
<path d="M22.0766 45.2305C23.6339 45.5278 24.1859 45.6478 25.1499 45.0532C25.0513 45.6265 24.9526 46.1932 24.8526 46.7665C23.9099 47.0638 22.9619 47.4172 22.0193 46.5892"/>
</mask>
<path d="M22.0766 45.2305C23.6339 45.5278 24.1859 45.6478 25.1499 45.0532C25.0513 45.6265 24.9526 46.1932 24.8526 46.7665C23.9099 47.0638 22.9619 47.4172 22.0193 46.5892" fill="url(#paint4_linear_4_379)"/>
<path d="M25.1499 45.0532L26.1355 45.2228L26.5114 43.0384L24.6249 44.2021L25.1499 45.0532ZM24.8526 46.7665L25.1534 47.7202L25.7333 47.5373L25.8377 46.9383L24.8526 46.7665ZM21.8891 46.2128C22.621 46.3525 23.2705 46.4854 23.8516 46.4762C24.5183 46.4657 25.071 46.2768 25.6749 45.9043L24.6249 44.2021C24.2649 44.4242 24.0596 44.4727 23.82 44.4765C23.4947 44.4816 23.0896 44.4059 22.2641 44.2483L21.8891 46.2128ZM24.1644 44.8836C24.066 45.4557 23.9674 46.0214 23.8675 46.5947L25.8377 46.9383C25.9377 46.3649 26.0366 45.7973 26.1355 45.2228L24.1644 44.8836ZM24.5518 45.8128C24.0275 45.9782 23.701 46.0864 23.3894 46.1009C23.1526 46.1119 22.9395 46.0665 22.6792 45.8379L21.3594 47.3405C22.0417 47.9399 22.7739 48.1317 23.4824 48.0988C24.1162 48.0693 24.7351 47.8521 25.1534 47.7202L24.5518 45.8128Z" fill="#232323" mask="url(#path-7-inside-2_4_379)"/>
<path d="M44.7752 30.1207C44.8094 30.2304 44.8246 30.3152 44.831 30.3754L29.686 44.4373H29.6697L29.6121 44.4948L24.821 45.909L26.5279 41.2798L41.8591 27.2108C42.1836 27.2876 42.8115 27.5493 43.6503 28.4362C44.3937 29.2272 44.6722 29.791 44.7752 30.1207Z" fill="url(#paint5_linear_4_379)" stroke="#232323"/>
<defs>
<filter id="filter0_f_4_379" x="3.2625" y="3.2625" width="57.475" height="57.475" filterUnits="userSpaceOnUse" color-interpolation-filters="sRGB">
<feFlood flood-opacity="0" result="BackgroundImageFix"/>
<feBlend mode="normal" in="SourceGraphic" in2="BackgroundImageFix" result="shape"/>
<feGaussianBlur stdDeviation="0.61875" result="effect1_foregroundBlur_4_379"/>
</filter>
<linearGradient id="paint0_linear_4_379" x1="4.5" y1="32" x2="59.5" y2="32" gradientUnits="userSpaceOnUse">
<stop stop-color="#FDFC47"/>
<stop offset="1" stop-color="#24FE41"/>
</linearGradient>
<linearGradient id="paint1_linear_4_379" x1="4.5" y1="32" x2="59.5" y2="32" gradientUnits="userSpaceOnUse">
<stop stop-color="#FDFC47"/>
<stop offset="1" stop-color="#24FE41"/>
</linearGradient>
<linearGradient id="paint2_linear_4_379" x1="21.1799" y1="28.9591" x2="45.339" y2="28.9591" gradientUnits="userSpaceOnUse">
<stop stop-color="#FDFC47"/>
<stop offset="1" stop-color="#24FE41"/>
</linearGradient>
<linearGradient id="paint3_linear_4_379" x1="18.6611" y1="32" x2="43.6137" y2="32" gradientUnits="userSpaceOnUse">
<stop stop-color="#FDFC47"/>
<stop offset="1" stop-color="#24FE41"/>
</linearGradient>
<linearGradient id="paint4_linear_4_379" x1="22.0193" y1="46.0778" x2="25.1499" y2="46.0778" gradientUnits="userSpaceOnUse">
<stop stop-color="#FDFC47"/>
<stop offset="1" stop-color="#24FE41"/>
</linearGradient>
<linearGradient id="paint5_linear_4_379" x1="24.0073" y1="36.6759" x2="45.3352" y2="36.6759" gradientUnits="userSpaceOnUse">
<stop stop-color="#FDFC47"/>
<stop offset="1" stop-color="#24FE41"/>
</linearGradient>
</defs>
</svg>
