<svg width="64" height="64" viewBox="0 0 64 64" fill="none" xmlns="http://www.w3.org/2000/svg">
<g clip-path="url(#clip0_4_351)">
<g opacity="0.3" filter="url(#filter0_f_4_351)">
<path d="M44.5 4.5H19.5C11.2157 4.5 4.5 11.2157 4.5 19.5V44.5C4.5 52.7843 11.2157 59.5 19.5 59.5H44.5C52.7843 59.5 59.5 52.7843 59.5 44.5V19.5C59.5 11.2157 52.7843 4.5 44.5 4.5Z" fill="url(#paint0_linear_4_351)"/>
</g>
<path d="M19.5 5H44.5C52.5081 5 59 11.4919 59 19.5V44.5C59 52.5081 52.5081 59 44.5 59H19.5C11.4919 59 5 52.5081 5 44.5V19.5C5 11.4919 11.4919 5 19.5 5Z" fill="#232323" stroke="url(#paint1_linear_4_351)"/>
<path d="M22.4262 29.799L23.3074 31.0865C21.6574 35.354 25.8786 40.1464 31.8248 41.7214C36.181 42.7364 37.496 45.5551 38.0172 46.8988C38.5372 48.2425 36.2735 35.9252 33.911 30.5115C32.536 27.3628 28.8611 25.8816 25.9524 25.9253C23.9774 25.9553 22.1899 27.4228 22.3887 28.2716C22.5249 28.8453 22.4474 29.3641 22.4274 29.7965L22.4262 29.799Z" fill="#F4BE2D"/>
<path d="M21.2799 28.8315C13.9575 31.7015 12 32.524 12 32.524C12 32.524 20.3986 30.464 21.7674 30.954C22.9198 31.3678 22.8936 28.1991 21.2799 28.8315Z" fill="#F4BE2D"/>
<path d="M32.3484 28.8928C31.2872 33.5527 33.6434 36.6252 35.9946 36.0665C37.5758 35.6915 38.4621 35.2402 39.6183 34.884L38.6346 34.4965L40.0671 34.754C40.8321 34.5502 41.747 34.3902 43.037 34.3152L41.0983 33.4352L45.2795 34.204C46.0457 34.129 46.8045 34.0015 47.5182 33.849L45.397 32.8852L48.8644 33.524C50.6207 33.049 51.8694 32.5253 51.8694 32.5253C51.8694 32.5253 53.1931 32.9965 47.4107 30.729C41.6283 28.4616 32.3484 28.8928 32.3484 28.8928Z" fill="url(#paint2_linear_4_351)"/>
<path d="M21.7186 30.8615L22.9511 32.0428C22.6186 37.1277 28.1135 41.2814 34.326 41.4776C38.8346 41.4701 40.9371 44.2126 41.8384 45.5463C42.7383 46.8813 36.9084 34.0052 33.026 28.7003C30.7673 25.6129 26.7761 24.9379 23.9824 25.7304C22.0836 26.2691 20.7887 28.3316 21.2336 29.2066C21.5349 29.799 21.6136 30.3853 21.7211 30.8628L21.7186 30.8615Z" fill="url(#paint3_linear_4_351)"/>
<path d="M48.887 17.0367C47.7333 17.183 44.8096 17.8704 38.6097 20.9242C29.1873 25.5641 30.2335 32.469 30.2335 32.469C33.0547 35.1577 37.5909 33.9265 39.2909 31.3778C40.4309 29.6678 40.4909 28.3591 41.0046 27.2053L38.6697 27.7191L41.2359 26.7553C41.4996 26.3091 41.8684 25.8828 42.4396 25.4603C43.2633 24.8503 43.6108 24.3554 44.0346 23.6691L41.5996 23.9204L44.5771 22.7904C44.9721 22.1716 45.5071 21.4004 46.377 20.3642L44.2333 20.4167L47.0345 19.6067C47.6933 18.8654 48.5045 18.0079 49.5208 17.0055C49.5208 17.0055 49.3383 16.9792 48.887 17.0367Z" fill="url(#paint4_linear_4_351)"/>
<path d="M22.9324 32.024L22.9511 32.0402C22.6536 36.5977 27.0348 40.4051 32.4172 41.2876C30.7585 35.4827 26.5623 33.0215 24.6523 32.3727C24.0899 32.1815 23.4899 32.0777 22.9324 32.024Z" fill="url(#paint5_linear_4_351)"/>
<path d="M24.8936 29.7103C25.5053 29.7103 26.0011 29.3023 26.0011 28.7991C26.0011 28.2958 25.5053 27.8878 24.8936 27.8878C24.282 27.8878 23.7861 28.2958 23.7861 28.7991C23.7861 29.3023 24.282 29.7103 24.8936 29.7103Z" fill="#3695B2"/>
<path d="M24.6804 28.9227C24.9592 28.8825 25.164 28.706 25.1379 28.5284C25.1118 28.3508 24.8646 28.2394 24.5858 28.2796C24.3071 28.3198 24.1022 28.4963 24.1284 28.6739C24.1545 28.8515 24.4017 28.9629 24.6804 28.9227Z" fill="#BFF9F9"/>
</g>
<defs>
<filter id="filter0_f_4_351" x="3.2625" y="3.2625" width="57.475" height="57.475" filterUnits="userSpaceOnUse" color-interpolation-filters="sRGB">
<feFlood flood-opacity="0" result="BackgroundImageFix"/>
<feBlend mode="normal" in="SourceGraphic" in2="BackgroundImageFix" result="shape"/>
<feGaussianBlur stdDeviation="0.61875" result="effect1_foregroundBlur_4_351"/>
</filter>
<linearGradient id="paint0_linear_4_351" x1="4.5" y1="32" x2="59.5" y2="32" gradientUnits="userSpaceOnUse">
<stop stop-color="#FDFC47"/>
<stop offset="1" stop-color="#24FE41"/>
</linearGradient>
<linearGradient id="paint1_linear_4_351" x1="4.5" y1="32" x2="59.5" y2="32" gradientUnits="userSpaceOnUse">
<stop stop-color="#FDFC47"/>
<stop offset="1" stop-color="#24FE41"/>
</linearGradient>
<linearGradient id="paint2_linear_4_351" x1="32.0867" y1="32.4955" x2="52" y2="32.4955" gradientUnits="userSpaceOnUse">
<stop stop-color="#FDFC47"/>
<stop offset="1" stop-color="#24FE41"/>
</linearGradient>
<linearGradient id="paint3_linear_4_351" x1="21.1458" y1="35.5343" x2="41.9314" y2="35.5343" gradientUnits="userSpaceOnUse">
<stop stop-color="#FDFC47"/>
<stop offset="1" stop-color="#24FE41"/>
</linearGradient>
<linearGradient id="paint4_linear_4_351" x1="30.199" y1="25.4901" x2="49.5208" y2="25.4901" gradientUnits="userSpaceOnUse">
<stop stop-color="#FDFC47"/>
<stop offset="1" stop-color="#24FE41"/>
</linearGradient>
<linearGradient id="paint5_linear_4_351" x1="22.9324" y1="36.6558" x2="32.4172" y2="36.6558" gradientUnits="userSpaceOnUse">
<stop stop-color="#FDFC47"/>
<stop offset="1" stop-color="#24FE41"/>
</linearGradient>
<clipPath id="clip0_4_351">
<rect width="64" height="64" fill="white"/>
</clipPath>
</defs>
</svg>
