<svg width="64" height="64" viewBox="0 0 64 64" fill="none" xmlns="http://www.w3.org/2000/svg">
<g clip-path="url(#clip0_4_321)">
<g opacity="0.3" filter="url(#filter0_f_4_321)">
<path d="M44.5 4.5H19.5C11.2157 4.5 4.5 11.2157 4.5 19.5V44.5C4.5 52.7843 11.2157 59.5 19.5 59.5H44.5C52.7843 59.5 59.5 52.7843 59.5 44.5V19.5C59.5 11.2157 52.7843 4.5 44.5 4.5Z" fill="url(#paint0_linear_4_321)"/>
</g>
<path d="M5 19.5C5 11.4661 11.4661 5 19.5 5H44.5C52.5339 5 59 11.4661 59 19.5V44.5C59 52.5339 52.5339 59 44.5 59H19.5C11.4661 59 5 52.5339 5 44.5V19.5Z" fill="#232323" stroke="url(#paint1_linear_4_321)"/>
<path d="M47.583 15H16.417C15.6344 15 15 15.6438 15 16.438V36.562C15 37.3562 15.6344 38 16.417 38H47.583C48.3656 38 49 37.3562 49 36.562V16.438C49 15.6438 48.3656 15 47.583 15Z" fill="url(#paint2_linear_4_321)" fill-opacity="0.5"/>
<path d="M18 19C18 18.4477 18.4477 18 19 18H45C45.5523 18 46 18.4477 46 19V21.502C46 21.8834 45.7831 22.2315 45.4408 22.3996L32.4408 28.7835C32.1628 28.9201 31.8372 28.9201 31.5592 28.7835L18.5592 22.3996C18.2169 22.2315 18 21.8834 18 21.502V19Z" fill="url(#paint3_linear_4_321)"/>
<path d="M17.4103 42.473C17.4103 42.4732 17.4104 42.4729 17.4103 42.473C17.4099 42.473 17.4093 42.4733 17.409 42.4732L17.4097 42.4745C17.0444 43.1545 15.7023 45.3478 14.8473 46.7536C13.9799 45.3169 12.9531 43.6587 12.2842 42.4732C11.7536 42.5863 11.5307 42.5935 11.0012 42.4732L11.0042 42.4764C11.0032 42.4753 11.0022 42.4743 11.0012 42.4732C12.052 44.0566 13.7348 47.0724 14.3077 48.0625L14.2308 52.19C14.2308 52.19 14.6013 52.1279 14.8482 52.1279C15.122 52.1279 15.4624 52.19 15.4624 52.19L15.4614 52.1887L15.4644 52.19L15.3875 48.0621L15.3845 48.0612C16.4523 46.1879 18.2131 43.1344 18.6998 42.4755L18.7028 42.4728C18.7027 42.473 18.7019 42.4728 18.7016 42.473C18.2413 42.5772 17.8261 42.5809 17.4138 42.4735L17.4103 42.473ZM52.3278 42.5742C52.02 42.5742 51.7149 42.7547 51.7149 43.2161C51.5324 45.5311 51.3424 47.8524 51.0299 50.0614L51.0289 50.0629C51.0294 50.0628 51.0299 50.0628 51.0299 50.0627C51.0299 50.0629 51.03 50.0626 51.0299 50.0627L51.0349 50.0622C51.2224 50.0308 51.368 50.0797 51.5095 50.1368L51.5089 50.1358C51.8638 47.8921 52.7067 44.5309 52.9225 43.5796C52.9535 43.4459 52.9997 43.2878 52.9997 43.1754C52.9997 42.836 52.7846 42.6388 52.4625 42.5849C52.4625 42.5849 52.3817 42.5742 52.3278 42.5742ZM45.3625 42.9315C42.6542 42.9315 40.5841 44.4693 40.5841 47.3286C40.5841 49.6843 41.9613 51.7575 45.3853 51.7575C48.284 51.7575 50.1766 50.1639 50.1766 47.3701C50.1766 44.7356 48.4106 42.9315 45.3625 42.9315ZM35.974 43.3948C33.2544 43.3948 31.8277 45.1191 31.8277 47.3544C31.8277 49.801 33.3853 51.2932 35.97 51.2932C38.7644 51.2932 40.1291 49.6115 40.1291 47.38C40.1291 44.892 38.4992 43.3948 35.974 43.3948ZM45.3658 43.4099C47.3995 43.4099 48.8975 44.6454 48.8975 47.3703C48.8975 50.3324 47.0854 51.293 45.3689 51.293C43.535 51.293 41.8644 50.2168 41.8644 47.3118C41.8644 44.3008 43.7162 43.4099 45.3658 43.4099ZM20.1371 43.4953C19.1047 46.0862 17.9153 49.0099 16.8456 51.1902L16.8454 51.1913L16.8494 51.1895C16.8484 51.1897 16.8476 51.19 16.8456 51.1902L16.8544 51.1874L16.8494 51.1895C17.3386 51.068 17.8065 51.1054 18.1152 51.1889C18.1132 51.1883 18.1122 51.1874 18.1112 51.1867L18.1152 51.1889C18.3882 50.4993 18.6978 49.7186 19.0086 48.9326L19.0096 48.9339C20.0602 48.904 21.1107 48.9 22.1612 48.9339C22.4601 49.6857 22.7595 50.4383 23.0518 51.1912C23.0524 51.1908 23.0528 51.1905 23.0528 51.1902C23.5212 51.0679 23.987 51.1019 24.3314 51.1888C23.5608 49.7497 22.0138 45.984 21.0308 43.4961L21.0228 43.4993L21.0288 43.4957C20.7095 43.6072 20.4492 43.6008 20.1356 43.4959L20.1371 43.4953ZM24.7939 43.4985C24.9055 46.0667 24.8959 48.6304 24.7939 51.1902C25.2102 51.0899 25.6364 51.0856 26.074 51.1903C26.0109 49.9969 25.98 48.8045 25.976 47.6131C27.4086 47.5931 28.8414 47.5922 30.274 47.6116C30.269 48.8036 30.238 49.9964 30.1749 51.1905C30.6124 51.0858 31.0397 51.0901 31.4559 51.1903C31.4557 51.1902 31.456 51.1904 31.4559 51.1903C31.3539 48.6306 31.3446 46.067 31.4562 43.4988C31.4561 43.4988 31.4563 43.4988 31.4562 43.4988C31.0213 43.6029 30.5942 43.5999 30.1744 43.4987C30.2365 44.6942 30.2686 45.8909 30.2731 47.0884C28.8392 47.1218 27.4064 47.1245 25.9753 47.0884C25.9803 45.8909 26.0122 44.6943 26.0743 43.4988C25.6545 43.6001 25.2271 43.6027 24.7922 43.4987L24.7939 43.4985ZM35.9074 43.861C35.9311 43.8605 35.9552 43.861 35.9789 43.861C37.642 43.861 38.8633 44.9937 38.8633 47.3607C38.8633 49.7247 37.6435 50.8573 35.982 50.8573C34.1692 50.8573 33.104 49.5582 33.104 47.3671C33.104 44.889 34.4165 43.8915 35.9074 43.861ZM20.5829 44.8253C21.0076 46.0087 21.4747 47.2013 21.9491 48.3973C21.04 48.4288 20.1305 48.429 19.2214 48.3971L19.2204 48.3979C19.776 46.9887 20.3042 45.6272 20.5829 44.8253ZM50.99 50.9916C50.5867 50.9916 50.3855 51.2993 50.3855 51.6301C50.3855 52.0201 50.6972 52.22 51.0823 52.22C51.3609 52.22 51.6648 52.0506 51.6648 51.5912C51.6648 51.2225 51.376 50.9916 50.99 50.9916Z" fill="url(#paint4_linear_4_321)"/>
</g>
<defs>
<filter id="filter0_f_4_321" x="3.2625" y="3.2625" width="57.475" height="57.475" filterUnits="userSpaceOnUse" color-interpolation-filters="sRGB">
<feFlood flood-opacity="0" result="BackgroundImageFix"/>
<feBlend mode="normal" in="SourceGraphic" in2="BackgroundImageFix" result="shape"/>
<feGaussianBlur stdDeviation="0.61875" result="effect1_foregroundBlur_4_321"/>
</filter>
<linearGradient id="paint0_linear_4_321" x1="4.5" y1="32" x2="59.5" y2="32" gradientUnits="userSpaceOnUse">
<stop stop-color="#FDFC47"/>
<stop offset="1" stop-color="#24FE41"/>
</linearGradient>
<linearGradient id="paint1_linear_4_321" x1="4.5" y1="32" x2="59.5" y2="32" gradientUnits="userSpaceOnUse">
<stop stop-color="#FDFC47"/>
<stop offset="1" stop-color="#24FE41"/>
</linearGradient>
<linearGradient id="paint2_linear_4_321" x1="15" y1="26.5" x2="49" y2="26.5" gradientUnits="userSpaceOnUse">
<stop stop-color="#FDFC47"/>
<stop offset="1" stop-color="#24FE41"/>
</linearGradient>
<linearGradient id="paint3_linear_4_321" x1="18" y1="23.5" x2="46" y2="23.5" gradientUnits="userSpaceOnUse">
<stop stop-color="#FDFC47"/>
<stop offset="1" stop-color="#24FE41"/>
</linearGradient>
<linearGradient id="paint4_linear_4_321" x1="11.0002" y1="47.3463" x2="52.9997" y2="47.3463" gradientUnits="userSpaceOnUse">
<stop stop-color="#FDFC47"/>
<stop offset="1" stop-color="#24FE41"/>
</linearGradient>
<clipPath id="clip0_4_321">
<rect width="64" height="64" fill="white"/>
</clipPath>
</defs>
</svg>
