<svg width="64" height="64" viewBox="0 0 64 64" fill="none" xmlns="http://www.w3.org/2000/svg">
<g clip-path="url(#clip0_4_243)">
<g opacity="0.3" filter="url(#filter0_f_4_243)">
<path d="M44.5 4.5H19.5C11.2157 4.5 4.5 11.2157 4.5 19.5V44.5C4.5 52.7843 11.2157 59.5 19.5 59.5H44.5C52.7843 59.5 59.5 52.7843 59.5 44.5V19.5C59.5 11.2157 52.7843 4.5 44.5 4.5Z" fill="#232323"/>
<path d="M19.5 5H44.5C52.5081 5 59 11.4919 59 19.5V44.5C59 52.5081 52.5081 59 44.5 59H19.5C11.4919 59 5 52.5081 5 44.5V19.5C5 11.4919 11.4919 5 19.5 5Z" stroke="url(#paint0_linear_4_243)"/>
</g>
<path d="M19.5 5H44.5C52.5081 5 59 11.4919 59 19.5V44.5C59 52.5081 52.5081 59 44.5 59H19.5C11.4919 59 5 52.5081 5 44.5V19.5C5 11.4919 11.4919 5 19.5 5Z" fill="#232323" stroke="url(#paint1_linear_4_243)"/>
<mask id="path-4-inside-1_4_243" fill="white">
<path d="M20.7934 18.1155C21.8329 18.1362 22.2768 18.6558 23.0202 19.5419C23.6065 20.2857 23.8512 20.1764 24.8904 19.8933C27.5114 19.1816 29.9728 18.883 32.2733 18.8908C40.0014 18.9169 45.4301 20.4761 49.7739 24.3496C51.6718 25.9282 53.0059 28.1999 53.5654 30.1864C54.5016 33.4001 54.1792 37.0884 51.8912 39.2701C50.1191 41.0994 47.9585 41.9976 45.6606 41.5732C42.4323 40.9769 40.9629 38.7134 40.8966 36.2723C40.8463 34.4184 42.1236 31.8382 44.7435 31.0195C46.0861 30.5999 47.0641 30.8227 48.028 31.349C48.992 31.8752 49.5511 32.7448 49.6922 33.6506C49.8921 34.9324 49.5723 35.2968 49.3356 35.8105C48.8479 36.7373 47.1899 38.0617 46.2683 37.0783C45.368 36.203 48.2733 34.9415 46.7512 33.9713C46.5728 33.8739 46.1053 33.7313 45.1703 33.8775C44.3239 34.0099 43.6869 34.9753 43.7117 36.1815C43.7367 37.3876 44.2367 38.5009 46.1991 38.8634C47.1136 39.0323 48.7312 38.5245 49.8713 37.3476C51.1647 35.8653 51.9419 33.2082 49.8808 30.6794C48.5912 29.4778 47.8235 29.4495 46.1951 29.4508C39.6222 30.2456 38.9673 33.9057 38.3021 36.4038C37.8517 38.1682 35.4746 37.916 35.4675 36.4077C35.4524 35.71 35.6496 35.1658 35.5338 34.5446C35.2511 33.0439 34.6807 32.1243 32.574 31.9612C31.4186 31.9012 30.3252 32.0896 29.3048 32.5693C28.1321 33.0426 27.5932 33.9312 26.8278 34.9409L25.5232 36.6619C24.5982 37.9138 23.3966 37.5732 23.0127 36.8489C22.7561 36.1877 23.687 33.8156 23.3866 32.6559C22.8077 30.4173 17.4325 31.7995 14.3059 31.5341C12.8287 31.3993 11.7877 31.0079 10.6422 29.9114C10.2873 29.4804 10.0685 29.1076 9.98956 28.5329C9.84923 27.3634 10.0556 26.2398 10.2998 24.7502C10.8591 22.3206 12.0107 21.0405 13.837 20.1959C15.218 19.6539 16.6159 19.0692 18.0859 18.6459C19.3318 18.2704 20.1697 18.1031 20.7934 18.1155ZM14.8889 21.6221C13.5538 21.6221 12.4715 22.7045 12.4716 24.0396C12.4716 25.3746 13.5539 26.4569 14.8889 26.4569C16.224 26.457 17.3064 25.3748 17.3064 24.0396C17.3066 22.7044 16.2241 21.6219 14.8889 21.6221ZM14.8889 22.1698C15.9216 22.1698 16.7587 23.0069 16.7587 24.0396C16.7587 25.0723 15.9216 25.9095 14.8889 25.9095C13.8563 25.9093 13.0193 25.0722 13.0193 24.0396C13.0193 23.0071 13.8563 22.1699 14.8889 22.1698ZM14.8889 23.2784C14.4685 23.2785 14.1279 23.6193 14.1279 24.0396C14.128 24.4599 14.4686 24.8005 14.8889 24.8006C15.3092 24.8006 15.65 24.46 15.6501 24.0396C15.6502 23.6192 15.3093 23.2783 14.8889 23.2784Z"/>
</mask>
<path d="M20.7934 18.1155C21.8329 18.1362 22.2768 18.6558 23.0202 19.5419C23.6065 20.2857 23.8512 20.1764 24.8904 19.8933C27.5114 19.1816 29.9728 18.883 32.2733 18.8908C40.0014 18.9169 45.4301 20.4761 49.7739 24.3496C51.6718 25.9282 53.0059 28.1999 53.5654 30.1864C54.5016 33.4001 54.1792 37.0884 51.8912 39.2701C50.1191 41.0994 47.9585 41.9976 45.6606 41.5732C42.4323 40.9769 40.9629 38.7134 40.8966 36.2723C40.8463 34.4184 42.1236 31.8382 44.7435 31.0195C46.0861 30.5999 47.0641 30.8227 48.028 31.349C48.992 31.8752 49.5511 32.7448 49.6922 33.6506C49.8921 34.9324 49.5723 35.2968 49.3356 35.8105C48.8479 36.7373 47.1899 38.0617 46.2683 37.0783C45.368 36.203 48.2733 34.9415 46.7512 33.9713C46.5728 33.8739 46.1053 33.7313 45.1703 33.8775C44.3239 34.0099 43.6869 34.9753 43.7117 36.1815C43.7367 37.3876 44.2367 38.5009 46.1991 38.8634C47.1136 39.0323 48.7312 38.5245 49.8713 37.3476C51.1647 35.8653 51.9419 33.2082 49.8808 30.6794C48.5912 29.4778 47.8235 29.4495 46.1951 29.4508C39.6222 30.2456 38.9673 33.9057 38.3021 36.4038C37.8517 38.1682 35.4746 37.916 35.4675 36.4077C35.4524 35.71 35.6496 35.1658 35.5338 34.5446C35.2511 33.0439 34.6807 32.1243 32.574 31.9612C31.4186 31.9012 30.3252 32.0896 29.3048 32.5693C28.1321 33.0426 27.5932 33.9312 26.8278 34.9409L25.5232 36.6619C24.5982 37.9138 23.3966 37.5732 23.0127 36.8489C22.7561 36.1877 23.687 33.8156 23.3866 32.6559C22.8077 30.4173 17.4325 31.7995 14.3059 31.5341C12.8287 31.3993 11.7877 31.0079 10.6422 29.9114C10.2873 29.4804 10.0685 29.1076 9.98956 28.5329C9.84923 27.3634 10.0556 26.2398 10.2998 24.7502C10.8591 22.3206 12.0107 21.0405 13.837 20.1959C15.218 19.6539 16.6159 19.0692 18.0859 18.6459C19.3318 18.2704 20.1697 18.1031 20.7934 18.1155ZM14.8889 21.6221C13.5538 21.6221 12.4715 22.7045 12.4716 24.0396C12.4716 25.3746 13.5539 26.4569 14.8889 26.4569C16.224 26.457 17.3064 25.3748 17.3064 24.0396C17.3066 22.7044 16.2241 21.6219 14.8889 21.6221ZM14.8889 22.1698C15.9216 22.1698 16.7587 23.0069 16.7587 24.0396C16.7587 25.0723 15.9216 25.9095 14.8889 25.9095C13.8563 25.9093 13.0193 25.0722 13.0193 24.0396C13.0193 23.0071 13.8563 22.1699 14.8889 22.1698ZM14.8889 23.2784C14.4685 23.2785 14.1279 23.6193 14.1279 24.0396C14.128 24.4599 14.4686 24.8005 14.8889 24.8006C15.3092 24.8006 15.65 24.46 15.6501 24.0396C15.6502 23.6192 15.3093 23.2783 14.8889 23.2784Z" fill="url(#paint2_linear_4_243)"/>
<path d="M20.7934 18.1155L20.8133 17.1157L20.8133 17.1157L20.7934 18.1155ZM23.0202 19.5419L23.8056 18.9228L23.7961 18.9109L23.7863 18.8992L23.0202 19.5419ZM24.8904 19.8933L24.6283 18.9283L24.6276 18.9285L24.8904 19.8933ZM32.2733 18.8908L32.2699 19.8908H32.2699L32.2733 18.8908ZM49.7739 24.3496L49.1083 25.0959L49.1212 25.1074L49.1344 25.1184L49.7739 24.3496ZM53.5654 30.1864L52.6028 30.4575L52.6053 30.466L53.5654 30.1864ZM51.8912 39.2701L51.2011 38.5463L51.1867 38.56L51.1729 38.5743L51.8912 39.2701ZM45.6606 41.5732L45.4789 42.5566H45.4789L45.6606 41.5732ZM40.8966 36.2723L41.8962 36.2452L41.8962 36.2452L40.8966 36.2723ZM44.7435 31.0195L45.0418 31.974L44.7435 31.0195ZM48.028 31.349L48.5072 30.4713L48.5072 30.4713L48.028 31.349ZM49.6922 33.6506L48.7042 33.8046L48.7042 33.8046L49.6922 33.6506ZM49.3356 35.8105L50.2205 36.2761L50.2327 36.2529L50.2437 36.229L49.3356 35.8105ZM46.2683 37.0783L46.998 36.3945L46.9821 36.3775L46.9654 36.3612L46.2683 37.0783ZM46.7512 33.9713L47.2887 33.128L47.2601 33.1098L47.2304 33.0936L46.7512 33.9713ZM45.1703 33.8775L45.0158 32.8895L45.0157 32.8895L45.1703 33.8775ZM43.7117 36.1815L42.7119 36.2021L42.7119 36.2021L43.7117 36.1815ZM46.1991 38.8634L46.0175 39.8467L46.1991 38.8634ZM49.8713 37.3476L50.5896 38.0434L50.6077 38.0247L50.6248 38.0051L49.8713 37.3476ZM49.8808 30.6794L50.6559 30.0477L50.6126 29.9946L50.5625 29.9479L49.8808 30.6794ZM46.1951 29.4508L46.1943 28.4508L46.1344 28.4508L46.075 28.458L46.1951 29.4508ZM38.3021 36.4038L37.3357 36.1464L37.3332 36.1564L38.3021 36.4038ZM35.4675 36.4077L36.4675 36.403L36.4675 36.3945L36.4673 36.3861L35.4675 36.4077ZM35.5338 34.5446L36.5169 34.3613L36.5165 34.3595L35.5338 34.5446ZM32.574 31.9612L32.6512 30.9642L32.6385 30.9632L32.6258 30.9625L32.574 31.9612ZM29.3048 32.5693L29.679 33.4967L29.7049 33.4862L29.7302 33.4743L29.3048 32.5693ZM26.8278 34.9409L27.6247 35.545H27.6247L26.8278 34.9409ZM25.5232 36.6619L24.7262 36.0578L24.7189 36.0677L25.5232 36.6619ZM23.0127 36.8489L22.0805 37.2107L22.1017 37.2654L22.1291 37.3172L23.0127 36.8489ZM23.3866 32.6559L22.4185 32.9062L22.4186 32.9066L23.3866 32.6559ZM14.3059 31.5341L14.215 32.53L14.2213 32.5305L14.3059 31.5341ZM10.6422 29.9114L9.87019 30.5471L9.90786 30.5928L9.95067 30.6338L10.6422 29.9114ZM9.98956 28.5329L8.99669 28.6521L8.99771 28.6606L8.99887 28.6691L9.98956 28.5329ZM10.2998 24.7502L9.32527 24.5259L9.31812 24.557L9.31296 24.5884L10.2998 24.7502ZM13.837 20.1959L13.4717 19.265L13.4442 19.2758L13.4173 19.2882L13.837 20.1959ZM18.0859 18.6459L18.3626 19.6069L18.3744 19.6034L18.0859 18.6459ZM14.8889 21.6221L14.8889 22.6221H14.889L14.8889 21.6221ZM12.4716 24.0396L13.4716 24.0396V24.0395L12.4716 24.0396ZM14.8889 26.4569L14.889 25.4569H14.8889L14.8889 26.4569ZM17.3064 24.0396L16.3064 24.0395V24.0396L17.3064 24.0396ZM14.8889 22.1698L14.8889 21.1698H14.8887L14.8889 22.1698ZM16.7587 24.0396L15.7587 24.0396V24.0397L16.7587 24.0396ZM14.8889 25.9095L14.8887 26.9095H14.8889L14.8889 25.9095ZM13.0193 24.0396L14.0193 24.0397V24.0396L13.0193 24.0396ZM14.8889 23.2784L14.8888 22.2784H14.8886L14.8889 23.2784ZM14.1279 24.0396L13.1279 24.0397V24.0399L14.1279 24.0396ZM14.8889 24.8006L14.8886 25.8006H14.8888L14.8889 24.8006ZM15.6501 24.0396L16.6501 24.0399V24.0397L15.6501 24.0396ZM20.7735 19.1153C21.0992 19.1218 21.2691 19.1959 21.4289 19.3124C21.6442 19.4692 21.86 19.7149 22.2542 20.1847L23.7863 18.8992C23.437 18.4828 23.0592 18.0257 22.6068 17.696C22.0989 17.3259 21.5272 17.1299 20.8133 17.1157L20.7735 19.1153ZM22.2349 20.161C22.5613 20.575 22.9875 21.0178 23.6717 21.0962C23.9647 21.1297 24.2363 21.0867 24.4529 21.04C24.6654 20.9942 24.9151 20.923 25.1532 20.8582L24.6276 18.9285C24.346 19.0052 24.1754 19.0539 24.0314 19.0849C23.8916 19.115 23.8706 19.1059 23.8992 19.1092C23.9192 19.1115 23.9457 19.1174 23.9728 19.1284C23.9987 19.139 24.0111 19.1485 24.0082 19.1463C23.9923 19.1346 23.9317 19.0829 23.8056 18.9228L22.2349 20.161ZM25.1524 20.8584C27.6876 20.17 30.0598 19.8833 32.2699 19.8908L32.2767 17.8908C29.8858 17.8827 27.3351 18.1933 24.6283 18.9283L25.1524 20.8584ZM32.2699 19.8908C39.8606 19.9164 45.0134 21.4444 49.1083 25.0959L50.4394 23.6032C45.8468 19.5079 40.1422 17.9174 32.2767 17.8908L32.2699 19.8908ZM49.1344 25.1184C50.8641 26.557 52.0935 28.6492 52.6029 30.4575L54.528 29.9152C53.9182 27.7505 52.4796 25.2993 50.4133 23.5807L49.1344 25.1184ZM52.6053 30.466C53.4881 33.4966 53.108 36.728 51.2011 38.5463L52.5813 39.9938C55.2504 37.4487 55.515 33.3036 54.5255 29.9067L52.6053 30.466ZM51.1729 38.5743C49.5728 40.2261 47.7331 40.9391 45.8422 40.5898L45.4789 42.5566C48.1838 43.0562 50.6654 41.9726 52.6094 39.9658L51.1729 38.5743ZM45.8422 40.5898C44.4327 40.3295 43.4776 39.7225 42.8646 38.9786C42.2459 38.2279 41.9242 37.2747 41.8962 36.2452L39.897 36.2994C39.9353 37.711 40.3814 39.1102 41.3211 40.2505C42.2664 41.3977 43.6602 42.2206 45.4789 42.5566L45.8422 40.5898ZM41.8962 36.2452C41.8561 34.768 42.9127 32.6393 45.0418 31.974L44.4452 30.065C41.3346 31.0371 39.8364 34.0687 39.897 36.2995L41.8962 36.2452ZM45.0418 31.974C46.0849 31.648 46.7828 31.8085 47.5489 32.2267L48.5072 30.4713C47.3453 29.8369 46.0872 29.5519 44.4452 30.065L45.0418 31.974ZM47.5489 32.2267C48.2381 32.603 48.6106 33.204 48.7042 33.8046L50.6803 33.4966C50.4916 32.2857 49.746 31.1475 48.5072 30.4713L47.5489 32.2267ZM48.7042 33.8046C48.789 34.3489 48.7508 34.6138 48.7117 34.7598C48.6562 34.9667 48.6074 35.0013 48.4274 35.3919L50.2437 36.229C50.3005 36.106 50.5299 35.7016 50.6435 35.2774C50.7735 34.7923 50.7953 34.2341 50.6803 33.4965L48.7042 33.8046ZM48.4506 35.3448C48.3028 35.6258 47.9111 36.0495 47.4837 36.284C47.2778 36.3969 47.1362 36.4253 47.0666 36.4254C47.0314 36.4254 47.0262 36.4245 46.998 36.3945L45.5387 37.7621C45.9713 38.2237 46.5189 38.426 47.069 38.4254C47.5847 38.4248 48.0609 38.2485 48.4456 38.0374C49.1995 37.6239 49.8807 36.922 50.2205 36.2761L48.4506 35.3448ZM46.9654 36.3612C47.0051 36.3999 47.0777 36.5032 47.0898 36.6528C47.0994 36.7727 47.0617 36.8303 47.0811 36.7894C47.1421 36.6611 47.2638 36.5204 47.5331 36.1732C47.7238 35.9274 48.0864 35.461 48.178 34.9057C48.2312 34.5826 48.1966 34.2255 48.0153 33.8813C47.8426 33.5537 47.5758 33.311 47.2887 33.128L46.2137 34.8146C46.3071 34.8741 46.2825 34.8831 46.2458 34.8136C46.2005 34.7275 46.1956 34.635 46.2046 34.5802C46.2077 34.5617 46.1856 34.6473 45.9528 34.9475C45.7985 35.1463 45.4579 35.5458 45.2749 35.9305C45.1723 36.1462 45.0672 36.4535 45.0962 36.8137C45.1277 37.2036 45.3065 37.5379 45.5713 37.7953L46.9654 36.3612ZM47.2304 33.0936C46.7937 32.8552 46.0819 32.7228 45.0158 32.8895L45.3248 34.8655C46.1288 34.7398 46.3518 34.8926 46.272 34.849L47.2304 33.0936ZM45.0157 32.8895C43.4687 33.1315 42.6818 34.7372 42.7119 36.2021L44.7115 36.1609C44.692 35.2135 45.1791 34.8883 45.3248 34.8655L45.0157 32.8895ZM42.7119 36.2021C42.727 36.9278 42.8866 37.7503 43.4431 38.4573C44.0072 39.174 44.8703 39.6349 46.0175 39.8467L46.3807 37.88C45.5654 37.7294 45.1973 37.4524 45.0146 37.2203C44.8243 36.9784 44.7215 36.6413 44.7115 36.1608L42.7119 36.2021ZM46.0175 39.8467C46.7168 39.9759 47.5445 39.8362 48.3079 39.5442C49.0918 39.2443 49.9083 38.7466 50.5896 38.0434L49.1531 36.6518C48.6942 37.1255 48.1319 37.4702 47.5933 37.6762C47.0342 37.89 46.5958 37.9197 46.3807 37.88L46.0175 39.8467ZM50.6248 38.0051C52.1583 36.2477 53.096 33.0414 50.6559 30.0477L49.1056 31.3112C50.7877 33.375 50.1712 35.4829 49.1178 36.6901L50.6248 38.0051ZM50.5625 29.9479C49.8439 29.2782 49.194 28.8654 48.4366 28.6516C47.7229 28.4502 46.9805 28.4502 46.1943 28.4508L46.1959 30.4508C47.0381 30.4501 47.4938 30.4636 47.8934 30.5764C48.2493 30.6769 48.6281 30.879 49.199 31.411L50.5625 29.9479ZM46.075 28.458C42.5995 28.8783 40.5258 30.0828 39.2544 31.6613C38.0251 33.1877 37.6507 34.9639 37.3358 36.1464L39.2684 36.6611C39.6187 35.3456 39.9044 34.0427 40.812 32.9158C41.6776 31.8411 43.2178 30.8181 46.3151 30.4436L46.075 28.458ZM37.3332 36.1564C37.277 36.3763 37.1781 36.4845 37.0957 36.5423C37.0035 36.607 36.886 36.6399 36.7661 36.6342C36.6427 36.6283 36.559 36.5843 36.5197 36.5489C36.4955 36.527 36.4679 36.4953 36.4675 36.403L34.4675 36.4124C34.4742 37.8277 35.6274 38.5822 36.671 38.6319C37.7536 38.6835 38.918 38.034 39.271 36.6511L37.3332 36.1564ZM36.4673 36.3861C36.4615 36.1212 36.4948 35.9002 36.5325 35.5563C36.5673 35.2377 36.6031 34.8239 36.5169 34.3613L34.5507 34.7279C34.5803 34.8864 34.5754 35.0553 34.5444 35.3386C34.5161 35.5965 34.4584 35.9965 34.4677 36.4294L36.4673 36.3861ZM36.5165 34.3595C36.3641 33.5503 36.1031 32.6972 35.4423 32.0414C34.7679 31.3723 33.8306 31.0555 32.6512 30.9642L32.4968 32.9582C33.4241 33.03 33.8254 33.2546 34.0335 33.4611C34.2552 33.6811 34.4208 34.0382 34.5511 34.7297L36.5165 34.3595ZM32.6258 30.9625C31.3247 30.895 30.0647 31.1071 28.8793 31.6644L29.7302 33.4743C30.5857 33.0721 31.5125 32.9075 32.5221 32.9599L32.6258 30.9625ZM28.9305 31.642C27.4397 32.2437 26.7185 33.4297 26.0309 34.3368L27.6247 35.545C28.4679 34.4327 28.8246 33.8415 29.679 33.4967L28.9305 31.642ZM26.0309 34.3368L24.7262 36.0578L26.3201 37.266L27.6247 35.545L26.0309 34.3368ZM24.7189 36.0677C24.4127 36.4822 24.1754 36.5002 24.1064 36.4974C23.9981 36.4929 23.922 36.4292 23.8963 36.3806L22.1291 37.3172C22.4873 37.9929 23.204 38.4617 24.0237 38.4956C24.8827 38.5312 25.7087 38.0936 26.3274 37.2562L24.7189 36.0677ZM23.9449 36.4871C23.9787 36.574 23.9672 36.609 23.9674 36.5288C23.9676 36.4624 23.9753 36.361 23.9955 36.216C24.0369 35.9195 24.1112 35.5655 24.1969 35.1343C24.2784 34.7241 24.3672 34.2573 24.4135 33.8104C24.4582 33.3791 24.4752 32.8704 24.3547 32.4051L22.4186 32.9066C22.4483 33.0212 22.4615 33.2439 22.4242 33.6042C22.3884 33.9489 22.3168 34.334 22.2352 34.7444C22.1579 35.1338 22.0663 35.5693 22.0147 35.9398C21.9884 36.1283 21.9679 36.3297 21.9674 36.5241C21.967 36.7047 21.9826 36.9585 22.0805 37.2107L23.9449 36.4871ZM24.3548 32.4055C24.0874 31.3717 23.2594 30.8572 22.4493 30.6153C21.6593 30.3794 20.7056 30.3386 19.7836 30.3552C18.8521 30.372 17.8273 30.4527 16.9023 30.5083C15.9491 30.5657 15.0921 30.5973 14.3904 30.5377L14.2213 32.5305C15.0829 32.6037 16.0703 32.562 17.0224 32.5047C18.0027 32.4458 18.9442 32.3706 19.8196 32.3549C20.7047 32.3389 21.3987 32.3889 21.8771 32.5317C22.3354 32.6685 22.3964 32.8207 22.4185 32.9062L24.3548 32.4055ZM14.3968 30.5383C13.1119 30.421 12.2932 30.1075 11.3336 29.189L9.95067 30.6338C11.2822 31.9084 12.5456 32.3776 14.215 32.53L14.3968 30.5383ZM11.4141 29.2757C11.1302 28.9309 11.0256 28.7266 10.9803 28.3968L8.99887 28.6691C9.1115 29.4887 9.44433 30.0299 9.87019 30.5471L11.4141 29.2757ZM10.9824 28.4138C10.8628 27.4164 11.0341 26.4518 11.2866 24.912L9.31296 24.5884C9.07697 26.0277 8.8357 27.3105 8.99669 28.6521L10.9824 28.4138ZM11.2743 24.9746C11.5286 23.8699 11.9023 23.0905 12.3727 22.5051C12.8413 21.9221 13.4497 21.4767 14.2568 21.1035L13.4173 19.2882C12.398 19.7596 11.5175 20.3766 10.8138 21.2522C10.112 22.1255 9.63026 23.201 9.32527 24.5259L11.2743 24.9746ZM14.2024 21.1268C15.6125 20.5734 16.9505 20.0135 18.3626 19.6069L17.8092 17.6849C16.2814 18.1249 14.8236 18.7344 13.4717 19.265L14.2024 21.1268ZM18.3744 19.6034C19.6089 19.2314 20.318 19.1063 20.7736 19.1153L20.8133 17.1157C20.0215 17.1 19.0547 17.3095 17.7973 17.6884L18.3744 19.6034ZM14.8889 20.6221C13.0014 20.6221 11.4714 22.1523 11.4716 24.0397L13.4716 24.0395C13.4715 23.2567 14.1061 22.6221 14.8889 22.6221L14.8889 20.6221ZM11.4716 24.0397C11.4716 25.9269 13.0016 27.4569 14.8889 27.4569L14.8889 25.4569C14.1062 25.4569 13.4716 24.8224 13.4716 24.0396L11.4716 24.0397ZM14.8888 27.4569C16.7762 27.4571 18.3064 25.9271 18.3064 24.0397L16.3064 24.0396C16.3064 24.8224 15.6718 25.457 14.889 25.4569L14.8888 27.4569ZM18.3064 24.0397C18.3066 22.1521 16.7764 20.6219 14.8888 20.6221L14.889 22.6221C15.6718 22.622 16.3065 23.2567 16.3064 24.0395L18.3064 24.0397ZM14.8889 23.1698C15.3693 23.1698 15.7587 23.5592 15.7587 24.0396L17.7587 24.0397C17.7587 22.4547 16.4738 21.1698 14.8889 21.1698L14.8889 23.1698ZM15.7587 24.0397C15.7587 24.52 15.3693 24.9095 14.8889 24.9095L14.8889 26.9095C16.4738 26.9095 17.7587 25.6246 17.7587 24.0396L15.7587 24.0397ZM14.889 24.9095C14.4087 24.9094 14.0193 24.52 14.0193 24.0397L12.0193 24.0396C12.0193 25.6244 13.3039 26.9093 14.8887 26.9095L14.889 24.9095ZM14.0193 24.0396C14.0193 23.5593 14.4087 23.1699 14.889 23.1698L14.8887 21.1698C13.3039 21.17 12.0193 22.4548 12.0193 24.0397L14.0193 24.0396ZM14.8886 22.2784C13.916 22.2787 13.1278 23.0672 13.1279 24.0397L15.1279 24.0395C15.1279 24.1714 15.021 24.2783 14.8892 24.2784L14.8886 22.2784ZM13.1279 24.0399C13.1282 25.0122 13.9163 25.8003 14.8886 25.8006L14.8892 23.8006C15.021 23.8006 15.1279 23.9075 15.1279 24.0394L13.1279 24.0399ZM14.8888 25.8006C15.8613 25.8007 16.6499 25.0125 16.6501 24.0399L14.6501 24.0394C14.6502 23.9075 14.7571 23.8006 14.889 23.8006L14.8888 25.8006ZM16.6501 24.0397C16.6502 23.0669 15.8616 22.2783 14.8888 22.2784L14.889 24.2784C14.7571 24.2784 14.6501 24.1715 14.6501 24.0395L16.6501 24.0397Z" fill="url(#paint3_linear_4_243)" mask="url(#path-4-inside-1_4_243)"/>
<path d="M63 50.7717C63 57.5252 57.5252 63 50.7717 63C44.0182 63 38.5433 57.5252 38.5433 50.7717C38.5433 44.0181 44.0182 38.5433 50.7717 38.5433C57.5252 38.5433 63 44.0181 63 50.7717Z" fill="#232323" stroke="url(#paint4_linear_4_243)" stroke-width="2"/>
<path d="M47.8448 43.787H47.8448L53.6987 43.7869C53.7539 43.7869 53.7966 43.8296 53.7966 43.8847V48.872V49.3754L54.3 49.372L56.8637 49.3546L56.8646 49.3546C56.9482 49.3539 57.0303 49.3769 57.1014 49.421C57.1725 49.465 57.2296 49.5283 57.2661 49.6035C57.3027 49.6787 57.3172 49.7627 57.3079 49.8458C57.2986 49.9288 57.2661 50.0075 57.2139 50.0728C57.2139 50.0729 57.2138 50.0729 57.2138 50.073L51.1898 57.5904L51.1896 57.5906C51.1486 57.6419 51.0966 57.6834 51.0375 57.7121C50.9784 57.7408 50.9136 57.7559 50.8479 57.7564C50.7823 57.757 50.7173 57.7428 50.6577 57.7151L50.4466 58.1684L50.6577 57.7151C50.5982 57.6874 50.5455 57.6467 50.5037 57.5961L50.5031 57.5955L44.3357 50.1651L44.3351 50.1644C44.2815 50.1001 44.2472 50.0218 44.2364 49.9387C44.2255 49.8556 44.2385 49.7711 44.2738 49.6951C44.3091 49.6191 44.3653 49.5547 44.4357 49.5094C44.5062 49.4641 44.5881 49.4398 44.6719 49.4392L44.672 49.4392L47.2493 49.4218L47.746 49.4185V48.9218V43.8849C47.746 43.8307 47.7886 43.787 47.8448 43.787Z" fill="url(#paint5_linear_4_243)" stroke="url(#paint6_linear_4_243)"/>
</g>
<defs>
<filter id="filter0_f_4_243" x="3.2625" y="3.2625" width="57.475" height="57.475" filterUnits="userSpaceOnUse" color-interpolation-filters="sRGB">
<feFlood flood-opacity="0" result="BackgroundImageFix"/>
<feBlend mode="normal" in="SourceGraphic" in2="BackgroundImageFix" result="shape"/>
<feGaussianBlur stdDeviation="0.61875" result="effect1_foregroundBlur_4_243"/>
</filter>
<linearGradient id="paint0_linear_4_243" x1="4.5" y1="32" x2="59.5" y2="32" gradientUnits="userSpaceOnUse">
<stop stop-color="#FDFC47"/>
<stop offset="1" stop-color="#24FE41"/>
</linearGradient>
<linearGradient id="paint1_linear_4_243" x1="4.5" y1="32" x2="59.5" y2="32" gradientUnits="userSpaceOnUse">
<stop stop-color="#FDFC47"/>
<stop offset="1" stop-color="#24FE41"/>
</linearGradient>
<linearGradient id="paint2_linear_4_243" x1="9.94397" y1="29.8959" x2="54.056" y2="29.8959" gradientUnits="userSpaceOnUse">
<stop stop-color="#FDFC47"/>
<stop offset="1" stop-color="#24FE41"/>
</linearGradient>
<linearGradient id="paint3_linear_4_243" x1="9.94397" y1="29.8959" x2="54.056" y2="29.8959" gradientUnits="userSpaceOnUse">
<stop stop-color="#FDFC47"/>
<stop offset="1" stop-color="#24FE41"/>
</linearGradient>
<linearGradient id="paint4_linear_4_243" x1="37.5433" y1="50.7717" x2="64" y2="50.7717" gradientUnits="userSpaceOnUse">
<stop stop-color="#FDFC47"/>
<stop offset="1" stop-color="#24FE41"/>
</linearGradient>
<linearGradient id="paint5_linear_4_243" x1="43.7327" y1="50.7717" x2="57.8106" y2="50.7717" gradientUnits="userSpaceOnUse">
<stop stop-color="#FDFC47"/>
<stop offset="1" stop-color="#24FE41"/>
</linearGradient>
<linearGradient id="paint6_linear_4_243" x1="43.7327" y1="50.7717" x2="57.8106" y2="50.7717" gradientUnits="userSpaceOnUse">
<stop stop-color="#FDFC47"/>
<stop offset="1" stop-color="#24FE41"/>
</linearGradient>
<clipPath id="clip0_4_243">
<rect width="64" height="64" fill="white"/>
</clipPath>
</defs>
</svg>
