<svg width="64" height="64" viewBox="0 0 64 64" fill="none" xmlns="http://www.w3.org/2000/svg">
<g clip-path="url(#clip0_4_2)">
<g opacity="0.3" filter="url(#filter0_f_4_2)">
<path d="M44.5037 4.49771H19.5016C11.2167 4.49771 4.50037 11.214 4.50037 19.499V44.501C4.50037 52.786 11.2167 59.5023 19.5016 59.5023H44.5037C52.7886 59.5023 59.5049 52.786 59.5049 44.501V19.499C59.5049 11.214 52.7886 4.49771 44.5037 4.49771Z" fill="#232323"/>
<path d="M19.5016 4.99771H44.5037C52.5125 4.99771 59.0049 11.4901 59.0049 19.499V44.501C59.0049 52.5098 52.5125 59.0023 44.5037 59.0023H19.5016C11.4928 59.0023 5.00037 52.5098 5.00037 44.501V19.499C5.00037 11.4901 11.4928 4.99771 19.5016 4.99771Z" stroke="url(#paint0_linear_4_2)"/>
</g>
<g filter="url(#filter1_d_4_2)">
<path d="M44.4976 4.49734H19.4986C11.2138 4.49734 4.49771 11.2135 4.49771 19.4982V44.4972C4.49771 52.782 11.2138 59.4981 19.4986 59.4981H44.4976C52.7824 59.4981 59.4985 52.782 59.4985 44.4972V19.4982C59.4985 11.2135 52.7824 4.49734 44.4976 4.49734Z" fill="#232323"/>
<path d="M19.4986 4.99734H44.4976C52.5062 4.99734 58.9985 11.4896 58.9985 19.4982V44.4972C58.9985 52.5059 52.5062 58.9981 44.4976 58.9981H19.4986C11.49 58.9981 4.99771 52.5059 4.99771 44.4972V19.4982C4.99771 11.4896 11.49 4.99734 19.4986 4.99734Z" stroke="url(#paint1_linear_4_2)"/>
</g>
<g filter="url(#filter2_f_4_2)">
<path d="M32.0019 48.6816C41.2155 48.6816 48.6847 41.2125 48.6847 31.9989C48.6847 22.7852 41.2155 15.3161 32.0019 15.3161C22.7882 15.3161 15.3191 22.7852 15.3191 31.9989C15.3191 41.2125 22.7882 48.6816 32.0019 48.6816Z" fill="#232323"/>
<path d="M48.1847 31.9989C48.1847 40.9364 40.9394 48.1816 32.0019 48.1816C23.0644 48.1816 15.8191 40.9364 15.8191 31.9989C15.8191 23.0614 23.0644 15.8161 32.0019 15.8161C40.9394 15.8161 48.1847 23.0614 48.1847 31.9989Z" stroke="url(#paint2_linear_4_2)"/>
</g>
<path opacity="0.55" d="M48.0621 30.7574C47.7474 31.2519 47.4092 31.7485 47.0488 32.2457L47.0485 32.246C46.668 32.7699 46.2631 33.2938 45.8356 33.8157L48.0621 30.7574ZM48.0621 30.7574C48.0757 31.0082 48.0834 31.2594 48.0853 31.5108C48.085 35.8021 46.3803 39.9176 43.346 42.9522C40.3114 45.9872 36.1955 47.6924 31.9037 47.6928C30.3659 47.6891 28.839 47.4662 27.3687 47.0329C27.4018 47.0212 27.4348 47.0095 27.4679 46.9977L27.4702 46.9968C28.0787 46.7762 28.694 46.532 29.3138 46.2654L29.3139 46.2653C29.9328 45.9989 30.5556 45.7103 31.1799 45.4007L48.0621 30.7574ZM44.488 35.375L44.488 35.3751C44.0179 35.8906 43.5277 36.4013 43.0193 36.9051L43.019 36.9054C42.51 37.4091 41.9833 37.9054 41.441 38.3926C40.8993 38.8799 40.3426 39.3576 39.7729 39.8238L39.7726 39.824C39.3687 40.1539 38.9586 40.4777 38.5431 40.7949C37.9566 41.2433 37.3598 41.6781 36.7548 42.0977L36.7547 42.0977C36.1494 42.5174 35.5366 42.9213 34.9186 43.308L34.9184 43.3081C34.3005 43.6943 33.6782 44.0629 33.0538 44.4123M44.488 35.375L31.18 45.4006C31.8044 45.0915 32.4298 44.7616 33.0538 44.4123M44.488 35.375C44.9584 34.859 45.4081 34.3387 45.8354 33.8159L44.488 35.375ZM33.0538 44.4123L32.8096 43.976L33.0539 44.4123C33.0538 44.4123 33.0538 44.4123 33.0538 44.4123Z" fill="#232323" stroke="url(#paint3_linear_4_2)"/>
<g opacity="0.25" filter="url(#filter3_f_4_2)">
<path d="M33.3608 16.9112C29.2411 16.911 25.2901 18.5711 22.377 21.5262C19.4638 24.4813 17.827 28.4893 17.8267 32.6687C17.8329 33.8699 17.9745 35.0664 18.2486 36.235C18.8186 38.7183 19.974 41.0243 21.6157 42.9549C23.2573 44.8855 25.3363 46.3832 27.6741 47.3194C28.1345 47.1808 28.6016 47.0257 29.0744 46.8545C29.632 46.6493 30.1965 46.4221 30.7656 46.1737C31.334 45.9255 31.9064 45.6564 32.4805 45.3675C33.0548 45.0791 33.6301 44.7712 34.2045 44.445C34.7792 44.1188 35.3522 43.7746 35.9212 43.4137C36.4903 43.0524 37.0548 42.675 37.6125 42.2828C38.1698 41.8906 38.7197 41.4842 39.2601 41.0651C39.643 40.7685 40.0209 40.4658 40.3931 40.1574C40.918 39.7217 41.4309 39.2753 41.9297 38.8198C42.4293 38.3647 42.9142 37.901 43.3828 37.4306C43.8507 36.9601 44.3017 36.4835 44.734 36.0026C45.1666 35.5211 45.5799 35.0359 45.9724 34.5488C46.3651 34.0625 46.7365 33.5748 47.0854 33.0876C47.4338 32.6001 47.7591 32.1136 48.0601 31.6301C48.2981 31.2425 48.5202 30.8572 48.7257 30.4752C48.405 28.1743 47.5868 25.9738 46.3295 24.0314C45.0722 22.089 43.407 20.4527 41.4533 19.2398C39.0181 17.7233 36.2181 16.9174 33.3608 16.9112Z" fill="url(#paint4_linear_4_2)"/>
<path d="M44.734 36.0026C45.1666 35.5211 45.5799 35.0359 45.9724 34.5488C46.3651 34.0625 46.7365 33.5748 47.0854 33.0876M44.734 36.0026L44.3621 35.6684C44.3621 35.6684 44.3621 35.6684 44.3621 35.6684M44.734 36.0026L44.3621 35.6684M44.734 36.0026C44.3017 36.4835 43.8507 36.9601 43.3828 37.4306M44.3621 35.6684C44.7889 35.1934 45.1964 34.715 45.5831 34.2351L45.5834 34.2347C45.9702 33.7557 46.3356 33.2758 46.6786 32.7969M44.3621 35.6684C43.9357 36.1428 43.4906 36.6132 43.0285 37.0777M46.6786 32.7969L47.0854 33.0876M46.6786 32.7969C46.6786 32.7968 46.6787 32.7967 46.6788 32.7966L47.0854 33.0876M46.6786 32.7969C47.0208 32.318 47.3399 31.8408 47.6348 31.3672M47.0854 33.0876C47.4338 32.6001 47.7591 32.1136 48.0601 31.6301M48.0601 31.6301L47.634 31.3685C47.6343 31.3681 47.6345 31.3677 47.6348 31.3672M48.0601 31.6301C48.2981 31.2425 48.5202 30.8572 48.7257 30.4752M48.0601 31.6301L47.6356 31.3659C47.6353 31.3663 47.6351 31.3668 47.6348 31.3672M47.6348 31.3672C47.8378 31.0366 48.0286 30.7081 48.2071 30.3825M48.7257 30.4752L48.2305 30.5442C48.2229 30.4903 48.2151 30.4364 48.2071 30.3825M48.7257 30.4752C48.405 28.1743 47.5868 25.9738 46.3295 24.0314C45.0722 22.089 43.407 20.4527 41.4533 19.2398C39.0181 17.7233 36.2181 16.9174 33.3608 16.9112M48.7257 30.4752L48.2854 30.2383C48.2595 30.2863 48.2334 30.3344 48.2071 30.3825M48.2071 30.3825C47.8812 28.2122 47.0977 26.1385 45.9097 24.3031C44.6923 22.4222 43.0803 20.8383 41.1896 19.6645L41.189 19.6642C38.8326 18.1968 36.1238 17.4173 33.3602 17.4112M33.3608 16.9112L33.3607 17.4112C33.3606 17.4112 33.3604 17.4112 33.3602 17.4112M33.3608 16.9112C29.2411 16.911 25.2901 18.5711 22.377 21.5262C19.4638 24.4813 17.827 28.4893 17.8267 32.6687M33.3608 16.9112L33.3597 17.4112C33.3599 17.4112 33.36 17.4112 33.3602 17.4112M33.3602 17.4112C29.3757 17.4112 25.5529 19.0168 22.733 21.8772C19.9131 24.7377 18.3273 28.6188 18.3267 32.6674M17.8267 32.6687L18.3267 32.6661C18.3267 32.6666 18.3267 32.667 18.3267 32.6674M17.8267 32.6687C17.8329 33.8699 17.9745 35.0664 18.2486 36.235C18.8186 38.7183 19.974 41.0243 21.6157 42.9549C23.2573 44.8855 25.3363 46.3832 27.6741 47.3194M17.8267 32.6687L18.3267 32.6687C18.3267 32.6683 18.3267 32.6679 18.3267 32.6674M18.3267 32.6674C18.3328 33.8306 18.47 34.9893 18.7354 36.1208L18.736 36.1231C19.2881 38.5287 20.4071 40.7618 21.9966 42.631C23.548 44.4555 25.5021 45.8799 27.6982 46.7893M27.6982 46.7893C27.642 46.8067 27.5859 46.8238 27.53 46.8406L27.6741 47.3194M27.6982 46.7893C27.7519 46.8116 27.8059 46.8336 27.86 46.8552L27.6741 47.3194M27.6982 46.7893C28.0945 46.667 28.4964 46.532 28.9028 46.3848M27.6741 47.3194C28.1345 47.1808 28.6016 47.0257 29.0744 46.8545M29.0744 46.8545L28.9017 46.3852C28.9021 46.3851 28.9024 46.385 28.9028 46.3848M29.0744 46.8545C29.632 46.6493 30.1965 46.4221 30.7656 46.1737M29.0744 46.8545L28.9041 46.3844C28.9036 46.3845 28.9032 46.3847 28.9028 46.3848M28.9028 46.3848C29.4505 46.1833 30.0054 45.9599 30.5656 45.7155M30.7656 46.1737L30.5655 45.7155C30.5655 45.7155 30.5656 45.7155 30.5656 45.7155M30.7656 46.1737C31.334 45.9255 31.9064 45.6564 32.4805 45.3675C33.0548 45.0791 33.6301 44.7712 34.2045 44.445C34.7792 44.1188 35.3522 43.7746 35.9212 43.4137M30.7656 46.1737L30.5656 45.7155M30.5656 45.7155C31.1254 45.471 31.6895 45.2058 32.2558 44.9208L32.2561 44.9207C32.8226 44.6362 33.3904 44.3324 33.9576 44.0103L33.9576 44.0102C34.5251 43.6881 35.091 43.3481 35.6533 42.9916M35.6533 42.9916L35.9212 43.4137M35.6533 42.9916C35.6533 42.9915 35.6534 42.9915 35.6535 42.9914L35.9212 43.4137M35.6533 42.9916C36.2156 42.6346 36.7735 42.2615 37.3248 41.8738M35.9212 43.4137C36.4903 43.0524 37.0548 42.675 37.6125 42.2828M37.6125 42.2828L37.3248 41.8738C37.3248 41.8738 37.3248 41.8738 37.3248 41.8738M37.6125 42.2828C38.1698 41.8906 38.7197 41.4842 39.2601 41.0651C39.643 40.7685 40.0209 40.4658 40.3931 40.1574M37.6125 42.2828L37.3248 41.8738M37.3248 41.8738C37.8758 41.4861 38.4194 41.0844 38.9536 40.67L38.9539 40.6698C39.3324 40.3767 39.7059 40.0774 40.0737 39.7727M40.0737 39.7727L40.3931 40.1574M40.0737 39.7727C40.5927 39.3419 41.0996 38.9006 41.5926 38.4506L41.593 38.4503C42.0866 38.0004 42.5658 37.5423 43.0285 37.0777M40.0737 39.7727C40.0738 39.7726 40.0739 39.7725 40.074 39.7724L40.3931 40.1574M40.3931 40.1574L43.0285 37.0777M43.0285 37.0777L43.3828 37.4306M43.0285 37.0777C43.0284 37.0778 43.0284 37.0779 43.0283 37.078L43.3828 37.4306M43.0285 37.0777L41.9297 38.8198C42.4293 38.3647 42.9142 37.901 43.3828 37.4306" stroke="url(#paint5_linear_4_2)"/>
</g>
<path d="M16.1598 35.1708L16.1592 35.1684C15.8737 33.9688 15.7263 32.7405 15.7197 31.5074C15.7203 27.2159 17.4255 23.1003 20.4603 20.0659C23.4952 17.0313 27.6113 15.3266 31.903 15.3266C34.8796 15.3331 37.7971 16.1607 40.3339 17.7179L40.3345 17.7182C42.37 18.9639 44.1048 20.6443 45.4146 22.6391C46.6941 24.5877 47.5372 26.7892 47.8869 29.0927C47.694 29.4401 47.4875 29.7905 47.2678 30.1433C46.9508 30.6452 46.6077 31.1509 46.2398 31.6584C45.871 32.166 45.478 32.6746 45.0622 33.1823L45.0618 33.1827C44.6462 33.6912 44.2082 34.1981 43.7494 34.7014C43.291 35.204 42.8126 35.7024 42.3159 36.1946C41.8185 36.6869 41.3035 37.1722 40.7729 37.6488L40.7726 37.6491C40.2428 38.1259 39.698 38.5933 39.1403 39.0496C38.7449 39.3726 38.3433 39.6897 37.9363 40.0004L37.9361 40.0006C37.3618 40.4396 36.7775 40.8653 36.1852 41.276C35.5927 41.6868 34.9931 42.082 34.3887 42.4602C33.7842 42.8381 33.1758 43.1983 32.5658 43.5397L32.5657 43.5398C31.956 43.8811 31.3455 44.2031 30.7365 44.5046L30.7362 44.5047C30.1273 44.8067 29.5208 45.0877 28.9189 45.3469C28.3166 45.606 27.7199 45.8427 27.1309 46.0564C26.6885 46.2143 26.2512 46.3589 25.8198 46.4899C23.4493 45.5249 21.3406 44.0111 19.6677 42.0718C17.9573 40.0892 16.7536 37.721 16.1598 35.1708Z" fill="url(#paint6_linear_4_2)" stroke="url(#paint7_linear_4_2)"/>
<path opacity="0.55" d="M48.6079 27.6259C49.3242 26.0903 49.7428 24.657 49.8587 23.3812C50.0065 21.753 49.6578 20.4395 48.8915 19.475C47.6512 17.9356 45.2547 17.214 41.9417 17.589C42.2831 17.8356 42.6154 18.0947 42.9378 18.3658L42.938 18.366C43.3764 18.7351 43.796 19.1259 44.1954 19.5368L44.1957 19.5372C44.5944 19.9485 44.9723 20.3794 45.328 20.8284C45.6843 21.2767 46.0179 21.7426 46.3277 22.2243L46.3279 22.2246C46.6375 22.7069 46.9228 23.2043 47.1827 23.7151L48.6079 27.6259ZM48.6079 27.6259C48.5524 27.3867 48.4918 27.1486 48.4261 26.9119M48.6079 27.6259L47.1829 23.7153C47.4428 24.2256 47.6771 24.7485 47.8848 25.2822L47.8849 25.2825C48.0923 25.8163 48.2729 26.3601 48.4261 26.9119M48.4261 26.9119C48.4261 26.9119 48.4261 26.9119 48.4261 26.912L47.9443 27.0457L48.4261 26.9119Z" fill="#232323" stroke="url(#paint8_linear_4_2)"/>
<path opacity="0.55" d="M15.5665 36.6335C15.6825 37.0048 15.8111 37.3722 15.952 37.735L15.9521 37.735C16.1598 38.2694 16.3941 38.7931 16.6541 39.3042L16.6543 39.3044C16.9143 39.8146 17.1996 40.3114 17.5092 40.7931C17.8189 41.2754 18.1526 41.742 18.5089 42.191C18.5089 42.191 18.5089 42.191 18.5089 42.191L15.5665 36.6335ZM15.5665 36.6335C14.6863 38.3473 14.1608 39.9512 14.0006 41.3708C13.8073 43.084 14.1517 44.4615 14.9455 45.463C15.7806 46.5033 17.1434 47.1814 19.0087 47.3866C20.5371 47.5548 22.3471 47.398 24.3518 46.9128C24.1421 46.8089 23.9345 46.7008 23.7291 46.5885M15.5665 36.6335L23.7291 46.5885M23.7291 46.5885C23.227 46.314 22.739 46.0145 22.2668 45.6913L23.7291 46.5885ZM20.8989 44.6514C21.3372 45.0206 21.7937 45.3677 22.2667 45.6913L20.8989 44.6514Z" fill="#232323" stroke="url(#paint9_linear_4_2)"/>
</g>
<defs>
<filter id="filter0_f_4_2" x="3.26276" y="3.26011" width="57.4798" height="57.4798" filterUnits="userSpaceOnUse" color-interpolation-filters="sRGB">
<feFlood flood-opacity="0" result="BackgroundImageFix"/>
<feBlend mode="normal" in="SourceGraphic" in2="BackgroundImageFix" result="shape"/>
<feGaussianBlur stdDeviation="0.618801" result="effect1_foregroundBlur_4_2"/>
</filter>
<filter id="filter1_d_4_2" x="0.497711" y="4.49734" width="63.0008" height="63.0008" filterUnits="userSpaceOnUse" color-interpolation-filters="sRGB">
<feFlood flood-opacity="0" result="BackgroundImageFix"/>
<feColorMatrix in="SourceAlpha" type="matrix" values="0 0 0 0 0 0 0 0 0 0 0 0 0 0 0 0 0 0 127 0" result="hardAlpha"/>
<feOffset dy="4"/>
<feGaussianBlur stdDeviation="2"/>
<feComposite in2="hardAlpha" operator="out"/>
<feColorMatrix type="matrix" values="0 0 0 0 0 0 0 0 0 0 0 0 0 0 0 0 0 0 0.25 0"/>
<feBlend mode="normal" in2="BackgroundImageFix" result="effect1_dropShadow_4_2"/>
<feBlend mode="normal" in="SourceGraphic" in2="effect1_dropShadow_4_2" result="shape"/>
</filter>
<filter id="filter2_f_4_2" x="12.9835" y="12.9805" width="38.0368" height="38.0368" filterUnits="userSpaceOnUse" color-interpolation-filters="sRGB">
<feFlood flood-opacity="0" result="BackgroundImageFix"/>
<feBlend mode="normal" in="SourceGraphic" in2="BackgroundImageFix" result="shape"/>
<feGaussianBlur stdDeviation="1.1678" result="effect1_foregroundBlur_4_2"/>
</filter>
<filter id="filter3_f_4_2" x="16.294" y="15.3785" width="33.9643" height="33.4735" filterUnits="userSpaceOnUse" color-interpolation-filters="sRGB">
<feFlood flood-opacity="0" result="BackgroundImageFix"/>
<feBlend mode="normal" in="SourceGraphic" in2="BackgroundImageFix" result="shape"/>
<feGaussianBlur stdDeviation="0.766338" result="effect1_foregroundBlur_4_2"/>
</filter>
<linearGradient id="paint0_linear_4_2" x1="4.50037" y1="32" x2="59.5049" y2="32" gradientUnits="userSpaceOnUse">
<stop stop-color="#FDFC47"/>
<stop offset="1" stop-color="#24FE41"/>
</linearGradient>
<linearGradient id="paint1_linear_4_2" x1="4.49771" y1="31.9977" x2="59.4985" y2="31.9977" gradientUnits="userSpaceOnUse">
<stop stop-color="#FDFC47"/>
<stop offset="1" stop-color="#24FE41"/>
</linearGradient>
<linearGradient id="paint2_linear_4_2" x1="15.3191" y1="31.9989" x2="48.6847" y2="31.9989" gradientUnits="userSpaceOnUse">
<stop stop-color="#FDFC47"/>
<stop offset="1" stop-color="#24FE41"/>
</linearGradient>
<linearGradient id="paint3_linear_4_2" x1="25.7958" y1="38.6896" x2="48.5853" y2="38.6896" gradientUnits="userSpaceOnUse">
<stop stop-color="#FDFC47"/>
<stop offset="1" stop-color="#24FE41"/>
</linearGradient>
<linearGradient id="paint4_linear_4_2" x1="17.8267" y1="32.1153" x2="48.7257" y2="32.1153" gradientUnits="userSpaceOnUse">
<stop stop-color="#FDFC47"/>
<stop offset="1" stop-color="#24FE41"/>
</linearGradient>
<linearGradient id="paint5_linear_4_2" x1="17.8267" y1="32.1153" x2="48.7257" y2="32.1153" gradientUnits="userSpaceOnUse">
<stop stop-color="#FDFC47"/>
<stop offset="1" stop-color="#24FE41"/>
</linearGradient>
<linearGradient id="paint6_linear_4_2" x1="15.2197" y1="30.9228" x2="48.406" y2="30.9228" gradientUnits="userSpaceOnUse">
<stop stop-color="#FDFC47"/>
<stop offset="1" stop-color="#24FE41"/>
</linearGradient>
<linearGradient id="paint7_linear_4_2" x1="15.2197" y1="30.9228" x2="48.406" y2="30.9228" gradientUnits="userSpaceOnUse">
<stop stop-color="#FDFC47"/>
<stop offset="1" stop-color="#24FE41"/>
</linearGradient>
<linearGradient id="paint8_linear_4_2" x1="40.5574" y1="23.0883" x2="50.3919" y2="23.0883" gradientUnits="userSpaceOnUse">
<stop stop-color="#FDFC47"/>
<stop offset="1" stop-color="#24FE41"/>
</linearGradient>
<linearGradient id="paint9_linear_4_2" x1="13.448" y1="41.618" x2="25.8617" y2="41.618" gradientUnits="userSpaceOnUse">
<stop stop-color="#FDFC47"/>
<stop offset="1" stop-color="#24FE41"/>
</linearGradient>
<clipPath id="clip0_4_2">
<rect width="64" height="64" fill="white"/>
</clipPath>
</defs>
</svg>
