<svg width="64" height="64" viewBox="0 0 64 64" fill="none" xmlns="http://www.w3.org/2000/svg">
<g clip-path="url(#clip0_4_76)">
<g opacity="0.3" filter="url(#filter0_f_4_76)">
<path d="M44.5003 4.50003H19.5001C11.2158 4.50003 4.5 11.2158 4.5 19.5001V44.5003C4.5 52.7846 11.2158 59.5004 19.5001 59.5004H44.5003C52.7846 59.5004 59.5004 52.7846 59.5004 44.5003V19.5001C59.5004 11.2158 52.7846 4.50003 44.5003 4.50003Z" fill="#232323"/>
<path d="M19.5001 5.00003H44.5003C52.5085 5.00003 59.0004 11.4919 59.0004 19.5001V44.5003C59.0004 52.5085 52.5085 59.0004 44.5003 59.0004H19.5001C11.4919 59.0004 5 52.5085 5 44.5003V19.5001C5 11.4919 11.4919 5.00003 19.5001 5.00003Z" stroke="url(#paint0_linear_4_76)"/>
</g>
<path d="M19.5016 5H44.5021C52.5103 5 59.0022 11.4919 59.0022 19.5001V44.5007C59.0022 52.5089 52.5103 59.0008 44.5021 59.0008H19.5016C11.4934 59.0008 5.00146 52.5089 5.00146 44.5007V19.5001C5.00146 11.4919 11.4934 5 19.5016 5Z" fill="#232323" stroke="url(#paint1_linear_4_76)"/>
<path d="M20.2761 22.3088L17.1316 19.1643L16.7779 18.8106L16.4244 19.1644L13.2781 22.3122V6.4081C15.1645 5.51195 17.2697 5.00002 19.5026 5C19.5027 5 19.5027 5 19.5027 5L20.2761 5.00021V22.3088Z" fill="url(#paint2_linear_4_76)" stroke="url(#paint3_linear_4_76)"/>
<path d="M29.9144 40.8783L29.9068 40.8774L29.8993 40.8766C24.9186 40.352 20.3171 36.8544 18.0947 31.998C18.8628 30.3259 19.9464 28.8114 21.2125 27.4874C22.0527 26.6495 23.1885 25.7957 24.1769 25.1078C26.5272 23.6944 29.2628 23.027 32.0071 22.9977C32.7045 22.9979 33.4016 23.0368 34.0856 23.1219L34.095 23.1231L34.1045 23.1241C39.0856 23.6483 43.6867 27.142 45.909 31.9977C45.1406 33.6711 44.0568 35.1898 42.7912 36.5132C41.9513 37.3508 40.8162 38.2042 39.828 38.892C36.8676 40.6599 33.3216 41.2897 29.9144 40.8783ZM30.9412 30.9371C31.1938 30.6844 31.5274 30.5312 31.881 30.5026H32.0019C32.3992 30.5026 32.7803 30.6603 33.0615 30.941C33.3425 31.2214 33.5009 31.6018 33.5019 31.9988C33.5018 32.1955 33.463 32.3902 33.3877 32.5719C33.3123 32.7539 33.2019 32.9192 33.0626 33.0585C32.9233 33.1978 32.7579 33.3083 32.5759 33.3837C32.3939 33.4591 32.1988 33.4979 32.0019 33.4979C31.8049 33.4979 31.6098 33.4591 31.4278 33.3837C31.2458 33.3083 31.0804 33.1978 30.9412 33.0585C30.8019 32.9192 30.6914 32.7539 30.616 32.5719C30.5406 32.3899 30.5018 32.1948 30.5018 31.9978C30.5018 31.6 30.6598 31.2184 30.9412 30.9371ZM38.0021 31.9878C38.0489 28.7801 35.2353 25.9361 32.0016 25.9976C29.4196 25.9751 27.0352 27.7591 26.2893 30.2107C25.1385 33.5781 27.5732 37.4747 31.1079 37.9134C32.8899 38.2391 34.6333 37.6176 35.9017 36.525C37.1722 35.4306 38.0466 33.7946 38.0021 31.9878Z" fill="#232323" stroke="url(#paint4_linear_4_76)" stroke-width="2"/>
</g>
<defs>
<filter id="filter0_f_4_76" x="3.26249" y="3.26252" width="57.4754" height="57.4754" filterUnits="userSpaceOnUse" color-interpolation-filters="sRGB">
<feFlood flood-opacity="0" result="BackgroundImageFix"/>
<feBlend mode="normal" in="SourceGraphic" in2="BackgroundImageFix" result="shape"/>
<feGaussianBlur stdDeviation="0.618754" result="effect1_foregroundBlur_4_76"/>
</filter>
<linearGradient id="paint0_linear_4_76" x1="4.5" y1="32.0002" x2="59.5004" y2="32.0002" gradientUnits="userSpaceOnUse">
<stop stop-color="#FDFC47"/>
<stop offset="1" stop-color="#24FE41"/>
</linearGradient>
<linearGradient id="paint1_linear_4_76" x1="4.50146" y1="32.0004" x2="59.5022" y2="32.0004" gradientUnits="userSpaceOnUse">
<stop stop-color="#FDFC47"/>
<stop offset="1" stop-color="#24FE41"/>
</linearGradient>
<linearGradient id="paint2_linear_4_76" x1="12.7781" y1="14.0098" x2="20.7761" y2="14.0098" gradientUnits="userSpaceOnUse">
<stop stop-color="#FDFC47"/>
<stop offset="1" stop-color="#24FE41"/>
</linearGradient>
<linearGradient id="paint3_linear_4_76" x1="12.7781" y1="14.0098" x2="20.7761" y2="14.0098" gradientUnits="userSpaceOnUse">
<stop stop-color="#FDFC47"/>
<stop offset="1" stop-color="#24FE41"/>
</linearGradient>
<linearGradient id="paint4_linear_4_76" x1="17.0017" y1="31.9985" x2="47.002" y2="31.9985" gradientUnits="userSpaceOnUse">
<stop stop-color="#FDFC47"/>
<stop offset="1" stop-color="#24FE41"/>
</linearGradient>
<clipPath id="clip0_4_76">
<rect width="64" height="64" fill="white"/>
</clipPath>
</defs>
</svg>
