<svg width="64" height="64" viewBox="0 0 64 64" fill="none" xmlns="http://www.w3.org/2000/svg">
<g opacity="0.3" filter="url(#filter0_f_4_61)">
<path d="M44.5 4.5H19.5C11.2157 4.5 4.5 11.2157 4.5 19.5V44.5C4.5 52.7843 11.2157 59.5 19.5 59.5H44.5C52.7843 59.5 59.5 52.7843 59.5 44.5V19.5C59.5 11.2157 52.7843 4.5 44.5 4.5Z" fill="#232323"/>
<path d="M19.5 5H44.5C52.5081 5 59 11.4919 59 19.5V44.5C59 52.5081 52.5081 59 44.5 59H19.5C11.4919 59 5 52.5081 5 44.5V19.5C5 11.4919 11.4919 5 19.5 5Z" stroke="url(#paint0_linear_4_61)"/>
</g>
<path d="M19.5 5H44.5C52.5081 5 59 11.4919 59 19.5V44.5C59 52.5081 52.5081 59 44.5 59H19.5C11.4919 59 5 52.5081 5 44.5V19.5C5 11.4919 11.4919 5 19.5 5Z" fill="#232323" stroke="url(#paint1_linear_4_61)"/>
<path d="M19.5 4.99999H19.5001L20.2734 4.99981V22.3086L17.1289 19.1641L16.7753 18.8105L16.4217 19.1642L13.2754 22.3122V6.40808C15.1618 5.51192 17.2671 4.99999 19.5 4.99999Z" fill="url(#paint2_linear_4_61)" stroke="url(#paint3_linear_4_61)"/>
<path d="M34.2856 23.929H34.273C30.93 23.929 28.8151 23.9879 27.4785 24.181L27.4783 24.181C26.8144 24.2767 26.3817 24.4077 26.0708 24.5838L34.2856 23.929ZM34.2856 23.929L34.2878 23.9289M34.2856 23.929L34.2878 23.9289M34.2878 23.9289H41.5508C36.4299 27.6392 32.0029 30.9422 26.8007 35.0297L26.8006 35.0296L26.7906 35.0379C26.7343 35.0845 26.6789 35.1304 26.6243 35.1756C25.925 35.7545 25.3648 36.2182 25.0738 36.5397L24.5427 37.1261L25.3003 37.3541C25.5614 37.4327 25.9593 37.5247 26.3584 37.6089L26.4095 37.6196H26.4224C27.2788 37.7974 28.4021 37.978 29.6087 38.142M34.2878 23.9289L37.528 40.0383C39.5436 40.1437 40.8039 39.9839 41.6526 39.5309L41.6527 39.5309C42.2821 39.1952 42.9334 38.4934 43.511 37.6783M29.6087 38.142C29.6087 38.142 29.6086 38.142 29.6086 38.142L29.6761 37.6466L29.6087 38.142ZM29.6087 38.142C32.0705 38.4773 34.9492 38.738 36.8161 38.738C38.8871 38.738 40.3216 38.5993 41.3297 38.2169L41.3299 38.2168C42.3751 37.8197 42.9868 37.213 43.5896 36.1986M43.5896 36.1986C43.6493 36.1156 43.7069 36.0264 43.7593 35.9451L43.7703 35.928C43.8255 35.8423 43.8774 35.7616 43.9329 35.682C44.0461 35.5196 44.1548 35.3907 44.2722 35.2992M43.5896 36.1986C43.5937 36.1918 43.5977 36.1851 43.6017 36.1783L43.1713 35.9239M43.5896 36.1986C43.5847 36.2055 43.5797 36.2124 43.5747 36.2192L43.1713 35.9239M44.2722 35.2992C44.278 35.2966 44.2882 35.2925 44.3029 35.2885C44.3282 35.2817 44.3516 35.2793 44.3669 35.2797L44.3671 35.2798C44.3756 35.28 44.3798 35.2807 44.3809 35.281L44.3828 35.2815C44.3846 35.2821 44.393 35.2853 44.422 35.3038M44.2722 35.2992C44.2785 35.2943 44.2848 35.2895 44.2911 35.2849L43.9939 34.8828M44.2722 35.2992C44.2696 35.3004 44.2679 35.3012 44.2671 35.3016C44.2665 35.3019 44.2664 35.302 44.2669 35.3017L43.9939 34.8828M44.422 35.3038C44.4525 35.3234 44.4606 35.3307 44.4636 35.3335C44.4648 35.3347 44.4659 35.3359 44.4674 35.3379C44.469 35.34 44.4723 35.3447 44.4771 35.3534L44.4775 35.3542C44.4831 35.3644 44.4913 35.3858 44.4972 35.4175C44.4999 35.4319 44.5016 35.4454 44.5025 35.4565C44.5035 35.4678 44.5035 35.4744 44.5035 35.4742L44.5035 35.4755C44.5051 36.105 44.1043 36.8385 43.511 37.6783M44.422 35.3038C44.4223 35.3039 44.4225 35.3041 44.4227 35.3042L44.6917 34.8828M44.422 35.3038C44.4218 35.3036 44.4216 35.3035 44.4213 35.3033L44.6917 34.8828M43.511 37.6783L43.9193 37.9668M43.511 37.6783C43.5111 37.6782 43.5112 37.678 43.5113 37.6778L43.9193 37.9668M43.9193 37.9668C44.5063 37.136 45.0055 36.282 45.0035 35.4742M43.9193 37.9668C43.3295 38.7993 42.6229 39.5801 41.888 39.972L45.0035 35.4742M45.0035 35.4742C45.0035 35.417 44.9929 35.2546 44.9162 35.1143M45.0035 35.4742L44.9162 35.1143M44.9162 35.1143C44.8508 34.9942 44.7743 34.9358 44.6917 34.8828M44.9162 35.1143L44.3803 34.7799M44.6917 34.8828C44.6092 34.8301 44.5203 34.7836 44.3803 34.7799M44.3803 34.7799C44.2424 34.7762 44.0924 34.8186 43.9939 34.8828M44.3803 34.7799L41.1524 37.7494C42.0719 37.4001 42.6058 36.8806 43.1713 35.9239M43.9939 34.8828C43.7166 35.0877 43.5215 35.3908 43.3509 35.6558C43.2887 35.7524 43.2297 35.844 43.1713 35.9239M25.7477 25.4555L25.7479 25.4557C25.8142 25.491 25.8904 25.504 25.9926 25.5002L25.9934 25.5001C26.206 25.4925 26.4595 25.424 26.8006 25.2901L25.7477 25.4555ZM25.7477 25.4555C25.6679 25.4131 25.6265 25.3581 25.6265 25.2413C25.6265 24.9975 25.7781 24.7497 26.0707 24.5839L25.7477 25.4555ZM28.9487 24.9367L28.949 24.9367C30.0117 24.8224 31.3398 24.7208 32.657 24.6645C32.6571 24.6645 32.6572 24.6645 32.6573 24.6645L35.8843 24.523L37.2189 24.4645L36.2507 25.3849L35.6151 25.9891L35.6123 25.9918L35.6123 25.9918C34.6096 26.9302 31.3707 29.4048 28.2131 31.7119L28.9487 24.9367ZM28.9487 24.9367C28.416 24.9944 27.9443 25.0593 27.5748 25.1207L28.9487 24.9367ZM20.8791 36.7545L20.8791 36.7545C20.4586 36.9672 20.042 37.1858 19.6218 37.4063C19.6073 37.4139 19.5928 37.4215 19.5783 37.4291C19.5947 37.4997 19.6103 37.5696 19.6252 37.6371C19.9989 37.6508 20.3728 37.6606 20.7497 37.6705C20.9336 37.6753 21.1182 37.6801 21.3038 37.6855C21.7473 37.6975 22.9459 37.835 24.3797 38.0507C25.8243 38.2679 27.571 38.5601 29.2691 38.8763C32.8579 39.5439 35.5316 39.9336 37.5279 40.0383L20.8791 36.7545ZM20.8791 36.7545L20.8831 36.7525M20.8791 36.7545L20.8831 36.7525M20.8831 36.7525C21.3451 36.5136 22.4392 35.8049 23.7405 34.9077M20.8831 36.7525L23.7405 34.9077M27.0936 25.2127C27.2199 25.185 27.3863 25.152 27.5747 25.1208L27.0936 25.2127ZM27.0936 25.2127C26.9895 25.2355 26.8667 25.2642 26.8009 25.29L27.0936 25.2127ZM23.7405 34.9077C25.0537 34.0025 26.6291 32.8695 28.2131 31.712L23.7405 34.9077Z" fill="url(#paint4_linear_4_61)" stroke="url(#paint5_linear_4_61)"/>
<defs>
<filter id="filter0_f_4_61" x="3.2625" y="3.2625" width="57.475" height="57.475" filterUnits="userSpaceOnUse" color-interpolation-filters="sRGB">
<feFlood flood-opacity="0" result="BackgroundImageFix"/>
<feBlend mode="normal" in="SourceGraphic" in2="BackgroundImageFix" result="shape"/>
<feGaussianBlur stdDeviation="0.61875" result="effect1_foregroundBlur_4_61"/>
</filter>
<linearGradient id="paint0_linear_4_61" x1="4.5" y1="32" x2="59.5" y2="32" gradientUnits="userSpaceOnUse">
<stop stop-color="#FDFC47"/>
<stop offset="1" stop-color="#24FE41"/>
</linearGradient>
<linearGradient id="paint1_linear_4_61" x1="4.5" y1="32" x2="59.5" y2="32" gradientUnits="userSpaceOnUse">
<stop stop-color="#FDFC47"/>
<stop offset="1" stop-color="#24FE41"/>
</linearGradient>
<linearGradient id="paint2_linear_4_61" x1="12.7754" y1="14.0097" x2="20.7734" y2="14.0097" gradientUnits="userSpaceOnUse">
<stop stop-color="#FDFC47"/>
<stop offset="1" stop-color="#24FE41"/>
</linearGradient>
<linearGradient id="paint3_linear_4_61" x1="12.7754" y1="14.0097" x2="20.7734" y2="14.0097" gradientUnits="userSpaceOnUse">
<stop stop-color="#FDFC47"/>
<stop offset="1" stop-color="#24FE41"/>
</linearGradient>
<linearGradient id="paint4_linear_4_61" x1="18.9962" y1="31.9993" x2="45.0035" y2="31.9993" gradientUnits="userSpaceOnUse">
<stop stop-color="#FDFC47"/>
<stop offset="1" stop-color="#24FE41"/>
</linearGradient>
<linearGradient id="paint5_linear_4_61" x1="18.9962" y1="31.9993" x2="45.0035" y2="31.9993" gradientUnits="userSpaceOnUse">
<stop stop-color="#FDFC47"/>
<stop offset="1" stop-color="#24FE41"/>
</linearGradient>
</defs>
</svg>
