<svg width="64" height="64" viewBox="0 0 64 64" fill="none" xmlns="http://www.w3.org/2000/svg">
<g opacity="0.3" filter="url(#filter0_f_4_51)">
<path d="M44.5003 4.50003H19.5002C11.2158 4.50003 4.50006 11.2158 4.50006 19.5001V44.5003C4.50006 52.7846 11.2158 59.5004 19.5002 59.5004H44.5003C52.7847 59.5004 59.5004 52.7846 59.5004 44.5003V19.5001C59.5004 11.2158 52.7847 4.50003 44.5003 4.50003Z" fill="#232323"/>
<path d="M19.5002 5.00003H44.5003C52.5085 5.00003 59.0004 11.4919 59.0004 19.5001V44.5003C59.0004 52.5085 52.5085 59.0004 44.5003 59.0004H19.5002C11.492 59.0004 5.00006 52.5085 5.00006 44.5003V19.5001C5.00006 11.4919 11.492 5.00003 19.5002 5.00003Z" stroke="url(#paint0_linear_4_51)"/>
</g>
<path d="M19.4978 5.0015H44.4984C52.5066 5.0015 58.9985 11.4934 58.9985 19.5016V44.5022C58.9985 52.5103 52.5066 59.0023 44.4984 59.0023H19.4978C11.4897 59.0023 4.99774 52.5103 4.99774 44.5022V19.5016C4.99774 11.4934 11.4897 5.0015 19.4978 5.0015Z" fill="#232323" stroke="url(#paint1_linear_4_51)"/>
<g opacity="0.15" filter="url(#filter1_f_4_51)">
<path d="M16.6671 23.0002C15.4668 23.0002 14.5011 23.9556 14.5011 25.1428V37.2859C14.5011 40.4515 17.0776 43.0007 20.2784 43.0007H38.3356C39.5359 43.0007 40.5016 42.0452 40.5016 40.8581V28.715C40.5016 25.5494 37.9251 23.0002 34.7242 23.0002H20.2791H16.6671ZM48.2313 23.0041C47.8065 22.9726 47.3229 23.1797 46.8622 23.6388C45.2421 25.2532 43.3426 26.6155 42.0145 28.5451C41.4676 29.3397 41.5051 30.3917 41.5008 31.381C41.4988 31.9238 41.5038 32.4645 41.5008 33.0001C41.5038 33.5358 41.4988 34.0764 41.5008 34.6192C41.5048 35.6086 41.4676 36.6605 42.0145 37.4551C43.3425 39.3847 45.2421 40.7469 46.8622 42.3614C47.3229 42.8204 47.8065 43.0276 48.2313 42.9961C48.9394 42.9437 49.4834 42.2251 49.4834 40.8926C49.4834 38.284 49.5216 35.6444 49.4834 33C49.5216 30.3556 49.4834 27.7159 49.4834 25.1073C49.4834 23.7748 48.9395 23.0565 48.2313 23.0041Z" fill="#232323"/>
<path d="M47.2152 23.993L47.2152 23.993C47.6131 23.5964 47.9625 23.4855 48.1945 23.5027C48.3719 23.5158 48.5505 23.6075 48.7011 23.8441C48.859 24.0922 48.9834 24.5024 48.9834 25.1073C48.9834 25.9796 48.9876 26.8527 48.9918 27.727C49.0003 29.4773 49.0088 31.232 48.9834 32.9927L48.9833 33L48.9834 33.0072C49.0088 34.768 49.0003 36.5226 48.9918 38.273C48.9876 39.1472 48.9834 40.0203 48.9834 40.8926C48.9834 41.4975 48.859 41.9078 48.701 42.156C48.5504 42.3927 48.3718 42.4844 48.1945 42.4975C47.9626 42.5146 47.6131 42.4037 47.2152 42.0072L46.8622 42.3614L47.2152 42.0072C46.6929 41.4868 46.1306 40.9818 45.579 40.4863C45.2693 40.2083 44.9631 39.9332 44.6691 39.6601C43.8351 38.8853 43.0595 38.0916 42.4264 37.1717C42.2154 36.8651 42.1045 36.4911 42.0504 36.0494C42.0026 35.6599 42.002 35.2529 42.0013 34.8179C42.0012 34.7517 42.0011 34.6848 42.0008 34.6172C41.9999 34.3749 42.0005 34.1213 42.0011 33.8666C42.0017 33.5739 42.0024 33.2798 42.0008 33.0001C42.0024 32.7205 42.0017 32.4264 42.0011 32.1336C42.0005 31.879 41.9999 31.6254 42.0008 31.3832C42.0011 31.3145 42.0012 31.2466 42.0014 31.1794C42.0021 30.7454 42.0029 30.3395 42.0505 29.9508C42.1046 29.509 42.2154 29.1351 42.4264 28.8286C43.0595 27.9087 43.8352 27.1149 44.6692 26.3401C44.9631 26.067 45.2694 25.7919 45.5791 25.5138C46.1306 25.0184 46.6929 24.5134 47.2152 23.993ZM15.0011 25.1428C15.0011 24.2368 15.7378 23.5002 16.6671 23.5002H20.2791H34.7242C37.654 23.5002 40.0016 25.8306 40.0016 28.715V40.8581C40.0016 41.764 39.2648 42.5007 38.3356 42.5007H20.2784C17.3487 42.5007 15.0011 40.1703 15.0011 37.2859V25.1428Z" stroke="url(#paint2_linear_4_51)"/>
</g>
<path d="M42.5014 33.6159C42.5017 33.6863 42.5018 33.755 42.5019 33.8223C42.5028 34.2594 42.5035 34.6326 42.5473 34.9894C42.596 35.387 42.6902 35.6732 42.8388 35.889L42.8388 35.889C43.441 36.7641 44.1854 37.5286 45.01 38.2947C45.2905 38.5553 45.5905 38.8248 45.8974 39.1005C46.4565 39.6028 47.0387 40.1258 47.5687 40.6539C47.9038 40.9879 48.1192 41.0027 48.1581 40.9998L48.1583 40.9998C48.1614 41.0002 48.2052 41.0055 48.2797 40.8885C48.3711 40.7449 48.4839 40.4372 48.4839 39.8936C48.4839 39.0161 48.4881 38.1403 48.4924 37.2649C48.5009 35.5175 48.5093 33.7715 48.484 32.0154L48.4838 32.001L48.484 31.9865C48.5093 30.2304 48.5009 28.4845 48.4924 26.7371C48.4881 25.8617 48.4839 24.986 48.4839 24.1084C48.4839 23.5648 48.3711 23.257 48.2797 23.1134C48.2053 22.9965 48.1615 23.0017 48.1582 23.0021L42.5014 33.6159ZM42.5014 33.6159C42.5005 33.3849 42.5011 33.131 42.5016 32.8742C42.5023 32.5766 42.5029 32.2751 42.5014 32.001C42.5029 31.7269 42.5023 31.4254 42.5016 31.1277C42.5011 30.871 42.5005 30.6171 42.5014 30.3862C42.5017 30.3152 42.5018 30.246 42.502 30.1782C42.5029 29.7417 42.5037 29.369 42.5473 29.0124C42.596 28.6148 42.6903 28.3287 42.8388 28.1129L42.0151 27.5459L42.8388 28.1129C43.4411 27.2378 44.1855 26.4733 45.0101 25.7072C45.2906 25.4465 45.5906 25.177 45.8975 24.9013C46.4566 24.399 47.0388 23.876 47.5686 23.348L47.5687 23.3479C47.9033 23.0144 48.1186 22.9993 48.1581 23.0021L42.5014 33.6159ZM15.502 24.1437C15.502 23.519 16.0098 23.0011 16.668 23.0011H20.2802H34.7251C37.3836 23.0011 39.5022 25.1127 39.5022 27.7158V39.8589C39.5022 40.4836 38.9944 41.0015 38.3362 41.0015H20.2791C17.6206 41.0015 15.502 38.8899 15.502 36.2868V24.1437Z" fill="url(#paint3_linear_4_51)" stroke="url(#paint4_linear_4_51)" stroke-width="2"/>
<defs>
<filter id="filter0_f_4_51" x="3.26255" y="3.26252" width="57.4754" height="57.4754" filterUnits="userSpaceOnUse" color-interpolation-filters="sRGB">
<feFlood flood-opacity="0" result="BackgroundImageFix"/>
<feBlend mode="normal" in="SourceGraphic" in2="BackgroundImageFix" result="shape"/>
<feGaussianBlur stdDeviation="0.618754" result="effect1_foregroundBlur_4_51"/>
</filter>
<filter id="filter1_f_4_51" x="12.0261" y="20.5252" width="39.9492" height="24.9505" filterUnits="userSpaceOnUse" color-interpolation-filters="sRGB">
<feFlood flood-opacity="0" result="BackgroundImageFix"/>
<feBlend mode="normal" in="SourceGraphic" in2="BackgroundImageFix" result="shape"/>
<feGaussianBlur stdDeviation="1.23749" result="effect1_foregroundBlur_4_51"/>
</filter>
<linearGradient id="paint0_linear_4_51" x1="4.50006" y1="32.0002" x2="59.5005" y2="32.0002" gradientUnits="userSpaceOnUse">
<stop stop-color="#FDFC47"/>
<stop offset="1" stop-color="#24FE41"/>
</linearGradient>
<linearGradient id="paint1_linear_4_51" x1="4.49774" y1="32.0019" x2="59.4985" y2="32.0019" gradientUnits="userSpaceOnUse">
<stop stop-color="#FDFC47"/>
<stop offset="1" stop-color="#24FE41"/>
</linearGradient>
<linearGradient id="paint2_linear_4_51" x1="14.5011" y1="33.0004" x2="49.5003" y2="33.0004" gradientUnits="userSpaceOnUse">
<stop stop-color="#FDFC47"/>
<stop offset="1" stop-color="#24FE41"/>
</linearGradient>
<linearGradient id="paint3_linear_4_51" x1="14.502" y1="32.0013" x2="49.5008" y2="32.0013" gradientUnits="userSpaceOnUse">
<stop stop-color="#FDFC47"/>
<stop offset="1" stop-color="#24FE41"/>
</linearGradient>
<linearGradient id="paint4_linear_4_51" x1="14.502" y1="32.0013" x2="49.5008" y2="32.0013" gradientUnits="userSpaceOnUse">
<stop stop-color="#FDFC47"/>
<stop offset="1" stop-color="#24FE41"/>
</linearGradient>
</defs>
</svg>
