<svg width="64" height="64" viewBox="0 0 64 64" fill="none" xmlns="http://www.w3.org/2000/svg">
<g opacity="0.3" filter="url(#filter0_f_4_20)">
<path d="M44.5 4.5H19.5C11.2157 4.5 4.5 11.2157 4.5 19.5V44.5C4.5 52.7843 11.2157 59.5 19.5 59.5H44.5C52.7843 59.5 59.5 52.7843 59.5 44.5V19.5C59.5 11.2157 52.7843 4.5 44.5 4.5Z" fill="#232323"/>
<path d="M19.5 5H44.5C52.5081 5 59 11.4919 59 19.5V44.5C59 52.5081 52.5081 59 44.5 59H19.5C11.4919 59 5 52.5081 5 44.5V19.5C5 11.4919 11.4919 5 19.5 5Z" stroke="url(#paint0_linear_4_20)"/>
</g>
<path d="M19.5 5H44.5C52.5081 5 59 11.4919 59 19.5V44.5C59 52.5081 52.5081 59 44.5 59H19.5C11.4919 59 5 52.5081 5 44.5V19.5C5 11.4919 11.4919 5 19.5 5Z" fill="#232323" stroke="url(#paint1_linear_4_20)"/>
<path d="M42.1826 40.7466L42.1798 40.5914L42.0896 40.465C41.329 39.4001 38.1891 36.901 32 36.901C25.8109 36.901 22.6711 39.4002 21.9104 40.465L21.8202 40.5913L21.8174 40.7466C21.8024 41.5786 21.8765 42.6163 22.1126 43.622C22.3471 44.6203 22.7524 45.6349 23.4341 46.3729L23.8014 46.0336L23.4341 46.3729C24.3435 47.3574 25.7598 47.9166 27.2657 48.237C28.7847 48.5602 30.4712 48.656 32 48.656C33.5288 48.656 35.2153 48.5602 36.7343 48.237C38.2402 47.9166 39.6565 47.3574 40.5659 46.3729L40.1986 46.0336L40.5659 46.3729C41.2476 45.6349 41.6529 44.6203 41.8874 43.622C42.1236 42.6163 42.1976 41.5786 42.1826 40.7466ZM15.6079 35.7606L15.7952 36.5123L16.403 36.032C17.822 34.9108 18.8752 32.8246 19.3963 30.5278C19.9203 28.218 19.929 25.6002 19.1631 23.3506L18.8212 22.3465L18.2642 23.2491C16.2468 26.5185 15.2722 30.2147 15.2722 32.7935C15.2722 33.9119 15.3917 34.8929 15.6079 35.7606ZM21.9273 42.8982L21.9004 42.5814L21.6022 42.4714C20.1443 41.9336 18.4825 41.0539 17.1865 39.5517C15.899 38.0594 14.9425 35.9185 14.9425 32.7955C14.9425 29.6735 16.2418 25.2051 19.0413 21.5239C21.8285 17.859 26.0804 14.9995 32.0005 14.9995C37.9204 14.9995 42.1723 17.859 44.9595 21.5239C47.7591 25.2052 49.0585 29.6735 49.0585 32.7955C49.0585 35.9183 48.102 38.059 46.8145 39.5514C45.5185 41.0535 43.8567 41.9333 42.3988 42.4714L42.1006 42.5815L42.0737 42.8982C41.8841 45.13 40.9446 46.6163 39.3185 47.5717C37.6538 48.5497 35.2199 49.0002 32.0009 49.0002C28.7819 49.0002 26.3479 48.5497 24.683 47.5717C23.0567 46.6163 22.117 45.13 21.9273 42.8982ZM45.7356 23.2499L45.1786 22.3473L44.8368 23.3514C44.0709 25.601 44.0797 28.2187 44.6039 30.5284C45.125 32.8252 46.1782 34.9114 47.5967 36.0327L48.2047 36.5134L48.392 35.7613C48.6081 34.8937 48.7277 33.9126 48.7277 32.7943C48.7277 30.2155 47.7532 26.5194 45.7356 23.2499ZM28.2769 44.1906L28.2748 44.1906C28.257 44.1907 28.238 44.1908 28.1957 44.1377C28.1372 44.0642 28.0681 43.9217 28.0087 43.6816C27.8907 43.2041 27.8528 42.5218 27.8528 41.7486C27.8528 40.9708 27.8867 40.3135 28.0057 39.8605C28.0651 39.6348 28.134 39.5073 28.1909 39.4431C28.2317 39.397 28.2639 39.382 28.3241 39.382C28.3767 39.382 28.3964 39.3926 28.4277 39.4314C28.4778 39.4936 28.5398 39.6223 28.5899 39.8568C28.6904 40.3269 28.701 40.9959 28.701 41.7863C28.701 42.5599 28.663 43.2316 28.5455 43.6984C28.4866 43.9328 28.4183 44.0696 28.3616 44.1392C28.3199 44.1904 28.3006 44.1906 28.2769 44.1906ZM36.1472 41.7486C36.1472 42.5217 36.1093 43.204 35.9912 43.6816C35.9319 43.9217 35.8628 44.0642 35.8042 44.1377C35.762 44.1908 35.743 44.1907 35.7253 44.1906L35.7231 44.1906C35.6994 44.1906 35.6801 44.1904 35.6384 44.1392C35.5817 44.0696 35.5134 43.9328 35.4545 43.6984C35.337 43.2316 35.299 42.5599 35.299 41.7863C35.299 40.9959 35.3096 40.3269 35.4101 39.8568C35.4603 39.6223 35.5222 39.4936 35.5723 39.4314C35.6036 39.3926 35.6233 39.382 35.676 39.382C35.7361 39.382 35.7684 39.397 35.8092 39.4431C35.866 39.5073 35.935 39.6348 35.9943 39.8605C36.1134 40.3135 36.1472 40.9708 36.1472 41.7486ZM32.0001 16.5916C27.1674 16.5916 23.2231 20.3932 23.2231 25.1152C23.2231 29.8372 27.1674 33.6389 32.0001 33.6389C36.8328 33.6389 40.7771 29.8373 40.7771 25.1152C40.7771 20.3932 36.8327 16.5916 32.0001 16.5916Z" fill="url(#paint2_linear_4_20)" stroke="url(#paint3_linear_4_20)"/>
<defs>
<filter id="filter0_f_4_20" x="3.2625" y="3.2625" width="57.475" height="57.475" filterUnits="userSpaceOnUse" color-interpolation-filters="sRGB">
<feFlood flood-opacity="0" result="BackgroundImageFix"/>
<feBlend mode="normal" in="SourceGraphic" in2="BackgroundImageFix" result="shape"/>
<feGaussianBlur stdDeviation="0.61875" result="effect1_foregroundBlur_4_20"/>
</filter>
<linearGradient id="paint0_linear_4_20" x1="4.5" y1="32" x2="59.5" y2="32" gradientUnits="userSpaceOnUse">
<stop stop-color="#FDFC47"/>
<stop offset="1" stop-color="#24FE41"/>
</linearGradient>
<linearGradient id="paint1_linear_4_20" x1="4.5" y1="32" x2="59.5" y2="32" gradientUnits="userSpaceOnUse">
<stop stop-color="#FDFC47"/>
<stop offset="1" stop-color="#24FE41"/>
</linearGradient>
<linearGradient id="paint2_linear_4_20" x1="14.4425" y1="31.9999" x2="49.5585" y2="31.9999" gradientUnits="userSpaceOnUse">
<stop stop-color="#FDFC47"/>
<stop offset="1" stop-color="#24FE41"/>
</linearGradient>
<linearGradient id="paint3_linear_4_20" x1="14.4425" y1="31.9999" x2="49.5585" y2="31.9999" gradientUnits="userSpaceOnUse">
<stop stop-color="#FDFC47"/>
<stop offset="1" stop-color="#24FE41"/>
</linearGradient>
</defs>
</svg>
