<svg width="16" height="16" viewBox="0 0 16 16" fill="none" xmlns="http://www.w3.org/2000/svg">
<path fill-rule="evenodd" clip-rule="evenodd" d="M8.00003 1.34253C7.12573 1.34245 6.25998 1.5146 5.45222 1.84914C4.64446 2.18368 3.91051 2.67407 3.29229 3.29229C2.67407 3.91051 2.18368 4.64446 1.84914 5.45222C1.5146 6.25998 1.34245 7.12573 1.34253 8.00003C1.34245 8.87433 1.5146 9.74008 1.84914 10.5478C2.18368 11.3556 2.67407 12.0895 3.29229 12.7078C3.91051 13.326 4.64446 13.8164 5.45222 14.1509C6.25998 14.4855 7.12573 14.6576 8.00003 14.6575C8.87433 14.6576 9.74008 14.4855 10.5478 14.1509C11.3556 13.8164 12.0895 13.326 12.7078 12.7078C13.326 12.0895 13.8164 11.3556 14.1509 10.5478C14.4855 9.74008 14.6576 8.87433 14.6575 8.00003C14.6576 7.12573 14.4855 6.25998 14.1509 5.45222C13.8164 4.64446 13.326 3.91051 12.7078 3.29229C12.0895 2.67407 11.3556 2.18368 10.5478 1.84914C9.74008 1.5146 8.87433 1.34245 8.00003 1.34253ZM10.2922 5.46173C10.4045 5.46173 10.4989 5.50198 10.5775 5.58059L11.1497 6.15279C11.2282 6.23139 11.2686 6.3258 11.2685 6.43804C11.2685 6.55033 11.2282 6.64638 11.1497 6.72499L8.10188 9.77279L7.52968 10.3467C7.45108 10.4252 7.35497 10.4638 7.24273 10.4638C7.13044 10.4638 7.03603 10.4253 6.95748 10.3467L4.86058 8.24979C4.78198 8.17124 4.74172 8.07508 4.74172 7.96284C4.74172 7.85055 4.78197 7.7545 4.86058 7.67589L5.43278 7.10369C5.51138 7.02509 5.60744 6.98653 5.71973 6.98653C5.83197 6.98653 5.92638 7.02509 6.00498 7.10369L7.24278 8.34659L10.0053 5.58069C10.0838 5.50209 10.1799 5.46173 10.2922 5.46173Z" fill="url(#paint0_linear_9_1383)" stroke="url(#paint1_linear_9_1383)" stroke-width="0.68491" stroke-linecap="round"/>
<defs>
<linearGradient id="paint0_linear_9_1383" x1="1.34253" y1="8.00003" x2="14.6575" y2="8.00003" gradientUnits="userSpaceOnUse">
<stop stop-color="#FDFC47"/>
<stop offset="1" stop-color="#24FE41"/>
</linearGradient>
<linearGradient id="paint1_linear_9_1383" x1="1.34253" y1="8.00003" x2="14.6575" y2="8.00003" gradientUnits="userSpaceOnUse">
<stop stop-color="#FDFC47"/>
<stop offset="1" stop-color="#24FE41"/>
</linearGradient>
</defs>
</svg>
