<svg width="16" height="16" viewBox="0 0 16 16" fill="none" xmlns="http://www.w3.org/2000/svg">
<path d="M7.87104 2.30308L2.62584 9.01668C1.64235 10.2755 1.91768 12.5178 3.17647 13.5013C4.43527 14.4848 6.67757 14.2095 7.66097 12.9506L13.5619 5.39784C14.2175 4.55864 14.034 3.06384 13.1948 2.40804C12.3556 1.75238 10.8608 1.93592 10.2051 2.77513L4.9599 9.48873C4.63206 9.90833 4.72386 10.6558 5.14345 10.9835C5.56305 11.3113 6.31054 11.2196 6.63824 10.8L11.2278 4.92558L12.067 5.58124L7.47744 11.4556C6.82178 12.2949 5.32694 12.4784 4.48774 11.8227C3.64854 11.1671 3.46505 9.67213 4.12065 8.83293L9.36584 2.11933C10.3493 0.860532 12.5915 0.585232 13.8503 1.56869C15.1091 2.55217 15.3845 4.79449 14.401 6.05329L13.7453 6.8925L8.50013 13.6061C7.18883 15.2845 4.19913 15.6517 2.52073 14.3403C0.842335 13.0289 0.475235 10.0393 1.78655 8.36089L7.03175 1.64729L7.87104 2.30308Z" fill="url(#paint0_linear_9_1390)"/>
<defs>
<linearGradient id="paint0_linear_9_1390" x1="0.994751" y1="8.05349" x2="14.9949" y2="8.05349" gradientUnits="userSpaceOnUse">
<stop stop-color="#FDFC47"/>
<stop offset="1" stop-color="#24FE41"/>
</linearGradient>
</defs>
</svg>
