<svg width="16" height="16" viewBox="0 0 16 16" fill="none" xmlns="http://www.w3.org/2000/svg">
<g clip-path="url(#clip0_9_1395)">
<path d="M4 6H1C0.447715 6 0 6.44772 0 7V9C0 9.55228 0.447715 10 1 10H4C4.55228 10 5 9.55228 5 9V7C5 6.44772 4.55228 6 4 6Z" fill="url(#paint0_linear_9_1395)"/>
<path d="M6 3L3 6V10L6 13V3Z" fill="url(#paint1_linear_9_1395)"/>
<path fill-rule="evenodd" clip-rule="evenodd" d="M13.1391 1.42771C12.5936 0.999976 12.0004 1.65232 12.4555 2.16013C14.0757 3.67053 14.9971 5.78503 15.0004 7.99993C14.9978 10.2204 14.0724 12.34 12.4457 13.8515C12.0004 14.3232 12.6263 14.9999 13.1234 14.58C14.9538 12.8808 15.9959 10.4975 16.0004 7.99995C15.9978 5.50745 14.9618 3.12781 13.1391 1.42771Z" fill="url(#paint2_linear_9_1395)"/>
<path fill-rule="evenodd" clip-rule="evenodd" d="M10.775 2.88868C10.1875 2.3538 9.57615 3.11386 10.0914 3.6211C11.3061 4.7537 11.997 6.3392 11.9996 8C11.9977 9.6654 11.3036 11.2551 10.0836 12.3887C9.61521 12.8349 10.257 13.5354 10.7633 13.1172C12.1863 11.7956 12.9963 9.94212 12.9996 8.00002C12.9977 6.06172 12.1922 4.21098 10.775 2.88868Z" fill="url(#paint3_linear_9_1395)"/>
<path fill-rule="evenodd" clip-rule="evenodd" d="M8.41021 4.34956C7.88926 3.85587 7.25511 4.56959 7.72662 5.08003C8.53707 5.83504 8.99812 6.89233 9.00002 7.99993C8.99874 9.11023 8.53606 10.17 7.72272 10.9257C7.25013 11.3557 7.86229 12.0779 8.40241 11.6562C9.41921 10.712 9.99791 9.3876 10.0001 8C9.99839 6.6156 9.42263 5.29376 8.41021 4.34956Z" fill="url(#paint4_linear_9_1395)"/>
</g>
<defs>
<linearGradient id="paint0_linear_9_1395" x1="0" y1="8" x2="5" y2="8" gradientUnits="userSpaceOnUse">
<stop stop-color="#FDFC47"/>
<stop offset="1" stop-color="#24FE41"/>
</linearGradient>
<linearGradient id="paint1_linear_9_1395" x1="3" y1="8" x2="6" y2="8" gradientUnits="userSpaceOnUse">
<stop stop-color="#FDFC47"/>
<stop offset="1" stop-color="#24FE41"/>
</linearGradient>
<linearGradient id="paint2_linear_9_1395" x1="12.2936" y1="8.00043" x2="16.0004" y2="8.00043" gradientUnits="userSpaceOnUse">
<stop stop-color="#FDFC47"/>
<stop offset="1" stop-color="#24FE41"/>
</linearGradient>
<linearGradient id="paint3_linear_9_1395" x1="9.89771" y1="7.9757" x2="12.9996" y2="7.9757" gradientUnits="userSpaceOnUse">
<stop stop-color="#FDFC47"/>
<stop offset="1" stop-color="#24FE41"/>
</linearGradient>
<linearGradient id="paint4_linear_9_1395" x1="7.55359" y1="7.98355" x2="10.0001" y2="7.98355" gradientUnits="userSpaceOnUse">
<stop stop-color="#FDFC47"/>
<stop offset="1" stop-color="#24FE41"/>
</linearGradient>
<clipPath id="clip0_9_1395">
<rect width="16" height="16" fill="white"/>
</clipPath>
</defs>
</svg>
