<svg width="16" height="16" viewBox="0 0 16 16" fill="none" xmlns="http://www.w3.org/2000/svg">
<g clip-path="url(#clip0_9_1419)">
<path opacity="0.5" fill-rule="evenodd" clip-rule="evenodd" d="M12.7381 1.29097C12.3624 1.3178 12.1135 1.77925 12.4549 2.16011C14.0751 3.67051 14.9965 5.78501 14.9998 7.99991C14.9972 10.2204 14.0718 12.34 12.4451 13.8515C11.9997 14.3232 12.6257 14.9999 13.1228 14.58C14.9532 12.8808 15.9953 10.4975 15.9998 7.99993C15.9972 5.50743 14.9612 3.12773 13.1385 1.42763C13.0021 1.3207 12.8633 1.28203 12.7381 1.29097ZM10.3475 2.70697C9.95184 2.71886 9.70519 3.2406 10.0916 3.62103C11.3063 4.75363 11.9972 6.33913 11.9998 7.99993C11.9979 9.66533 11.3038 11.255 10.0838 12.3886C9.61545 12.8349 10.2573 13.5353 10.7635 13.1172C12.1865 11.7956 12.9965 9.94205 12.9998 7.99995C12.9979 6.06165 12.1924 4.21095 10.7752 2.88865C10.6283 2.75493 10.4793 2.70301 10.3475 2.70697ZM5.99976 2.99994L2.99976 5.99994H0.999756C0.445756 5.99994 -0.000244141 6.44594 -0.000244141 6.99994V8.99994C-0.000244141 9.55394 0.445756 9.99994 0.999756 9.99994H2.99976L5.99976 12.9999V2.99994ZM8.01736 4.18354C7.64133 4.19993 7.37271 4.69719 7.72634 5.08002C8.53679 5.83503 8.99784 6.89232 8.99974 7.99992C8.99846 9.11022 8.53574 10.17 7.72244 10.9257C7.24985 11.3557 7.86201 12.0779 8.40213 11.6562C9.41893 10.7119 9.99763 9.38759 9.99983 7.99999C9.99811 6.61559 9.42241 5.29379 8.41003 4.34959C8.27979 4.22617 8.1427 4.17808 8.01736 4.18354Z" fill="url(#paint0_linear_9_1419)"/>
</g>
<defs>
<linearGradient id="paint0_linear_9_1419" x1="-0.000244141" y1="8.00073" x2="15.9998" y2="8.00073" gradientUnits="userSpaceOnUse">
<stop stop-color="#FDFC47"/>
<stop offset="1" stop-color="#24FE41"/>
</linearGradient>
<clipPath id="clip0_9_1419">
<rect width="16" height="16" fill="white"/>
</clipPath>
</defs>
</svg>
