<svg width="16" height="17" viewBox="0 0 16 17" fill="none" xmlns="http://www.w3.org/2000/svg">
<g clip-path="url(#clip0_9_1491)">
<path d="M13 9.05896C11.892 9.05896 11 9.96996 11 11.09V12.06H10V16.06H16V12.06H15V11.09C15 9.96996 14.108 9.05996 13 9.05996V9.05896ZM13 10.059C13.554 10.059 14 10.502 14 11.059V12.059H12V11.059C12 10.502 12.446 10.059 13 10.059Z" fill="url(#paint0_linear_9_1491)"/>
<path d="M7.50005 1.05945C7.22305 1.05945 7.00005 1.28245 7.00005 1.55945V6.43445L5.28125 4.93445C4.96925 4.66145 4.52495 4.7142 4.25195 5.0282C4.1192 5.17718 4.05102 5.37276 4.06237 5.57198C4.07372 5.7712 4.16368 5.95776 4.31249 6.0907L6.56249 8.0595L4.31249 10.0283C4.16341 10.161 4.07308 10.3474 4.06136 10.5466C4.04964 10.7458 4.11749 10.9416 4.24999 11.0908C4.52399 11.4038 4.96924 11.4575 5.28119 11.1845L7.00189 9.68455V14.5595C7.00189 14.8365 7.22389 15.0595 7.50189 15.0595C7.78389 15.0595 7.93819 15.04 8.15619 14.872L8.99994 14.1181V12.1005L7.99994 12.997V9.30952L10.0136 11.0536C10.0217 10.4764 10.1986 9.93682 10.4883 9.47552L8.87495 8.05952L11.6875 5.59072C11.7944 5.48894 11.8702 5.3589 11.9062 5.21572C11.9521 5.0735 11.9521 4.92044 11.9062 4.77822C11.8702 4.63504 11.7944 4.505 11.6875 4.40322L8.15625 1.24702C7.95725 1.08702 7.72905 1.05945 7.50005 1.05945ZM8.00005 3.12195L10.0938 4.99695L8.00005 6.80945V3.12195Z" fill="url(#paint1_linear_9_1491)"/>
</g>
<defs>
<linearGradient id="paint0_linear_9_1491" x1="10" y1="12.5595" x2="16" y2="12.5595" gradientUnits="userSpaceOnUse">
<stop stop-color="#FDFC47"/>
<stop offset="1" stop-color="#24FE41"/>
</linearGradient>
<linearGradient id="paint1_linear_9_1491" x1="4.06006" y1="8.0595" x2="11.9406" y2="8.0595" gradientUnits="userSpaceOnUse">
<stop stop-color="#FDFC47"/>
<stop offset="1" stop-color="#24FE41"/>
</linearGradient>
<clipPath id="clip0_9_1491">
<rect width="16" height="16.02" fill="white" transform="translate(0 0.039978)"/>
</clipPath>
</defs>
</svg>
