<svg width="16" height="17" viewBox="0 0 16 17" fill="none" xmlns="http://www.w3.org/2000/svg">
<path opacity="0.35" d="M7.50001 1.04004C7.22301 1.04004 7.00001 1.26304 7.00001 1.54004V6.41504L5.28101 4.91504C4.96901 4.64204 4.52401 4.69504 4.25101 5.00904C4.1186 5.15818 4.05076 5.35376 4.06239 5.55286C4.07401 5.75196 4.16415 5.93832 4.31301 6.07104L6.56301 8.04004L4.31301 10.009C4.164 10.1416 4.07368 10.3279 4.06187 10.527C4.05006 10.7261 4.11772 10.9218 4.25001 11.071C4.52401 11.384 4.96901 11.438 5.28101 11.165L7.00101 9.66504V14.54C7.00101 14.817 7.22301 15.04 7.50101 15.04C7.78301 15.04 7.93801 15.02 8.15601 14.852L11.688 11.696C11.7947 11.5942 11.8703 11.4641 11.906 11.321C11.9345 11.2303 11.9454 11.1349 11.938 11.04C11.9331 10.987 11.9224 10.9347 11.906 10.884C11.8703 10.7409 11.7947 10.6109 11.688 10.509L8.87501 8.03904L11.688 5.57104C11.7947 5.46916 11.8703 5.33914 11.906 5.19604C11.9518 5.05397 11.9518 4.9011 11.906 4.75904C11.8703 4.61594 11.7947 4.48591 11.688 4.38404L8.15601 1.22704C7.95701 1.06704 7.72901 1.04004 7.50001 1.04004ZM8.00001 3.10304L10.094 4.97804L8.00001 6.79004V3.10304ZM8.00001 9.29004L10.094 11.103L8.00001 12.978V9.29004Z" fill="url(#paint0_linear_9_1489)"/>
<defs>
<linearGradient id="paint0_linear_9_1489" x1="4.06055" y1="8.04004" x2="11.9404" y2="8.04004" gradientUnits="userSpaceOnUse">
<stop stop-color="#FDFC47"/>
<stop offset="1" stop-color="#24FE41"/>
</linearGradient>
</defs>
</svg>
