<svg width="22" height="23" viewBox="0 0 22 23" fill="none" xmlns="http://www.w3.org/2000/svg">
<path fill-rule="evenodd" clip-rule="evenodd" d="M11 3.14978C8.90214 3.14991 6.89023 3.98334 5.40682 5.46676C3.92341 6.95017 3.08998 8.96207 3.08984 11.0599C3.08998 13.1578 3.92341 15.1697 5.40682 16.6531C6.89023 18.1365 8.90214 18.97 11 18.9701C13.0979 18.97 15.1098 18.1365 16.5932 16.6531C18.0766 15.1697 18.91 13.1578 18.9102 11.0599C18.91 8.96207 18.0766 6.95017 16.5932 5.46676C15.1098 3.98334 13.0979 3.14991 11 3.14978ZM11 4.02294C11.414 4.02294 11.75 4.35894 11.75 4.77294C11.75 5.18594 11.414 5.52294 11 5.52294C10.586 5.52294 10.25 5.18594 10.25 4.77294C10.25 4.35894 10.586 4.02294 11 4.02294ZM10.998 6.05994C13.755 6.05994 16 8.30394 16 11.0599C16 13.8169 13.755 16.0599 10.998 16.0599C8.241 16.0599 6 13.8169 6 11.0599C6 8.30394 8.241 6.05994 10.998 6.05994ZM11 7.55994C9.07 7.55994 7.5 9.12994 7.5 11.0599C7.5 12.9899 9.07 14.5599 11 14.5599C12.93 14.5599 14.5 12.9899 14.5 11.0599C14.5 9.12994 12.93 7.55994 11 7.55994ZM9.781 9.05994C9.871 9.05994 9.947 9.08994 10.01 9.15994L11 10.1499L11.99 9.15994C12.05 9.08994 12.13 9.05994 12.219 9.05994C12.309 9.05994 12.384 9.08994 12.447 9.15994L12.906 9.61494C12.969 9.67794 13 9.75294 13 9.84294C13 9.93294 12.969 10.0089 12.906 10.0699L11.916 11.0599L12.906 12.0519C12.969 12.1199 13 12.1899 13 12.2809C13 12.3709 12.969 12.4479 12.906 12.5109L12.447 12.9679C12.384 13.0309 12.309 13.0599 12.219 13.0599C12.13 13.0599 12.05 13.0309 11.99 12.9679L11 11.9779L10.01 12.9679C9.947 13.0309 9.871 13.0599 9.781 13.0599C9.691 13.0599 9.616 13.0309 9.553 12.9679L9.09 12.5109C9.03 12.4479 9 12.3709 9 12.2809C9 12.1899 9.03 12.1199 9.09 12.0519L10.08 11.0599L9.09 10.0699C9.03 10.0089 9 9.93294 9 9.84294C9 9.75294 9.03 9.67794 9.09 9.61494L9.553 9.15994C9.616 9.08994 9.691 9.05994 9.781 9.05994Z" fill="url(#paint0_linear_9_1506)" stroke="url(#paint1_linear_9_1506)" stroke-width="0.179" stroke-linecap="round"/>
<defs>
<linearGradient id="paint0_linear_9_1506" x1="3.08984" y1="11.0599" x2="18.9102" y2="11.0599" gradientUnits="userSpaceOnUse">
<stop stop-color="#FDFC47"/>
<stop offset="1" stop-color="#24FE41"/>
</linearGradient>
<linearGradient id="paint1_linear_9_1506" x1="3.08984" y1="11.0599" x2="18.9102" y2="11.0599" gradientUnits="userSpaceOnUse">
<stop stop-color="#FDFC47"/>
<stop offset="1" stop-color="#24FE41"/>
</linearGradient>
</defs>
</svg>
