<svg width="16" height="16" viewBox="0 0 16 16" fill="none" xmlns="http://www.w3.org/2000/svg">
<path d="M8 1C5.784 1 4 2.784 4 5V7H6V5C6 3.892 6.892 3 8 3C9.108 3 10 3.892 10 5V7H12V5C12 2.784 10.216 1 8 1Z" fill="url(#paint0_linear_9_1515)"/>
<path d="M14 8V14C14 14.5523 13.5523 15 13 15H3C2.44771 15 2 14.5523 2 14V8C2 7.44772 2.44771 7 3 7H13C13.5523 7 14 7.44772 14 8Z" fill="url(#paint1_linear_9_1515)"/>
<defs>
<linearGradient id="paint0_linear_9_1515" x1="4" y1="4" x2="12" y2="4" gradientUnits="userSpaceOnUse">
<stop stop-color="#FDFC47"/>
<stop offset="1" stop-color="#24FE41"/>
</linearGradient>
<linearGradient id="paint1_linear_9_1515" x1="8" y1="15" x2="8" y2="7" gradientUnits="userSpaceOnUse">
<stop stop-color="#FDFC47"/>
<stop offset="1" stop-color="#24FE41"/>
</linearGradient>
</defs>
</svg>
