<svg width="16" height="17" viewBox="0 0 16 17" fill="none" xmlns="http://www.w3.org/2000/svg">
<g clip-path="url(#clip0_9_1526)">
<path d="M2 0.0599365C0.892 0.0599365 0 0.951936 0 2.05994V14.0599C0 15.1679 0.892 16.0599 2 16.0599H14C15.108 16.0599 16 15.1679 16 14.0599V2.05994C16 0.951936 15.108 0.0599365 14 0.0599365H2ZM5 2.05994H7V3.05994H5V2.05994ZM11 3.05994H12V6.05994H14V7.05994H12V11.0599H11V3.05994ZM3 4.05994H9V5.05994H3V4.05994ZM6 6.05994C7.597 6.05994 9 7.11794 9 8.55994C9 10.0019 7.597 11.0599 6 11.0599C4.403 11.0599 3 10.0019 3 8.55994C3 7.11794 4.403 6.05994 6 6.05994ZM6 7.05994C4.835 7.05994 4 7.79294 4 8.55994C4 9.32694 4.835 10.0599 6 10.0599C7.165 10.0599 8 9.32694 8 8.55994C8 7.79294 7.165 7.05994 6 7.05994ZM5 12.0599H6V13.0599H13V14.0599H5V12.0599Z" fill="url(#paint0_linear_9_1526)"/>
</g>
<defs>
<linearGradient id="paint0_linear_9_1526" x1="0" y1="8.05994" x2="16" y2="8.05994" gradientUnits="userSpaceOnUse">
<stop stop-color="#FDFC47"/>
<stop offset="1" stop-color="#24FE41"/>
</linearGradient>
<clipPath id="clip0_9_1526">
<rect width="16" height="16" fill="white" transform="translate(0 0.0599365)"/>
</clipPath>
</defs>
</svg>
