<svg width="16" height="17" viewBox="0 0 16 17" fill="none" xmlns="http://www.w3.org/2000/svg">
<g clip-path="url(#clip0_9_1530)">
<path d="M2 0.0599365C0.892 0.0599365 0 0.951936 0 2.05994V14.0599C0 15.1679 0.892 16.0599 2 16.0599H14C15.108 16.0599 16 15.1679 16 14.0599V2.05994C16 0.951936 15.108 0.0599365 14 0.0599365H2ZM2 4.05994H3V8.35294L5.293 6.05994H6V4.05994H7V8.35294L9.293 6.05994H10.707L7.707 9.05994L10.707 12.0599H9.293L7 9.76694V12.0599H5.293L3 9.76694V12.0599H2V4.05994ZM12 6.05994C12.583 6.05994 13.111 6.21394 13.479 6.58094C13.846 6.94894 14 7.47694 14 8.05994H13C13 7.64294 12.904 7.41994 12.771 7.28894C12.639 7.15594 12.417 7.05994 12 7.05994C11.583 7.05994 11.361 7.15594 11.229 7.28894C11.096 7.41994 11 7.64294 11 8.05994V10.0599C11 10.4769 11.096 10.6989 11.229 10.8309C11.361 10.9639 11.583 11.0599 12 11.0599C12.417 11.0599 12.639 10.9639 12.771 10.8309C12.904 10.6989 13 10.4769 13 10.0599H14C14 10.6429 13.846 11.1709 13.479 11.5389C13.111 11.9059 12.583 12.0599 12 12.0599C11.417 12.0599 10.889 11.9059 10.521 11.5389C10.154 11.1709 10 10.6429 10 10.0599V8.05994C10 7.47694 10.154 6.94994 10.521 6.58094C10.889 6.21394 11.417 6.05994 12 6.05994ZM6 6.76694L3.707 9.05994L6 11.3529V6.76694Z" fill="url(#paint0_linear_9_1530)"/>
</g>
<defs>
<linearGradient id="paint0_linear_9_1530" x1="0" y1="8.05994" x2="16" y2="8.05994" gradientUnits="userSpaceOnUse">
<stop stop-color="#FDFC47"/>
<stop offset="1" stop-color="#24FE41"/>
</linearGradient>
<clipPath id="clip0_9_1530">
<rect width="16" height="16" fill="white" transform="translate(0 0.0599365)"/>
</clipPath>
</defs>
</svg>
