<svg width="16" height="17" viewBox="0 0 16 17" fill="none" xmlns="http://www.w3.org/2000/svg">
<g clip-path="url(#clip0_9_1528)">
<path d="M2 0.0599365C0.892 0.0599365 0 0.951936 0 2.05994V14.0599C0 15.1679 0.892 16.0599 2 16.0599H14C15.108 16.0599 16 15.1679 16 14.0599V2.05994C16 0.951936 15.108 0.0599365 14 0.0599365H2ZM7.898 2.56194C9.23091 2.53602 10.5278 2.99556 11.547 3.85494L10.256 5.38494C9.6093 4.83523 8.78434 4.54019 7.93571 4.5551C7.08707 4.57001 6.27299 4.89385 5.646 5.46594C5.01587 6.0349 4.61475 6.81405 4.51774 7.65748C4.42073 8.5009 4.6345 9.35077 5.119 10.0479C5.59918 10.7477 6.31803 11.2484 7.14087 11.4563C7.96372 11.6641 8.83411 11.5648 9.589 11.1769C10.0087 10.9627 10.3802 10.6649 10.6806 10.3019C10.981 9.9389 11.204 9.51829 11.336 9.06594H8V7.06594L13.398 7.05994C13.832 9.41494 12.689 11.8409 10.5 12.9579C9.31276 13.5617 7.94703 13.7149 6.65551 13.3893C5.364 13.0637 4.23413 12.2813 3.475 11.1869C2.71967 10.0894 2.3871 8.75558 2.53875 7.43191C2.6904 6.10824 3.31601 4.8842 4.3 3.98594C5.2865 3.09055 6.56594 2.58444 7.898 2.56194Z" fill="url(#paint0_linear_9_1528)"/>
</g>
<defs>
<linearGradient id="paint0_linear_9_1528" x1="0" y1="8.05994" x2="16" y2="8.05994" gradientUnits="userSpaceOnUse">
<stop stop-color="#FDFC47"/>
<stop offset="1" stop-color="#24FE41"/>
</linearGradient>
<clipPath id="clip0_9_1528">
<rect width="16" height="16" fill="white" transform="translate(0 0.0599365)"/>
</clipPath>
</defs>
</svg>
