<svg width="16" height="17" viewBox="0 0 16 17" fill="none" xmlns="http://www.w3.org/2000/svg">
<g clip-path="url(#clip0_9_1522)">
<path d="M2 0.0599365C0.892 0.0599365 0 0.951936 0 2.05994V14.0599C0 15.1679 0.892 16.0599 2 16.0599H14C15.108 16.0599 16 15.1679 16 14.0599V2.05994C16 0.951936 15.108 0.0599365 14 0.0599365H2ZM2 2.05994H8V3.05994H6V6.05994H8L7.6 5.75994C7.6 5.75994 9 3.80994 9 2.05994H10C10 2.76894 9.835 3.44894 9.617 4.05994H11V2.05994H12V4.05994H14V5.05994H12V7.05994H14V8.05994H9V7.05994H11V5.05994H9.197C8.8 5.84994 8.4 6.35994 8.4 6.35994L8 6.05994V14.0599H2V6.05994H3V3.05994H2V2.05994ZM4 3.05994V6.05994H5V3.05994H4ZM4 7.05994V10.0599H3V11.0599H6V12.0599H3V13.0599H7V7.05994H6V10.0599H5V7.05994H4ZM9 9.05994H14V14.0599H9V9.05994ZM10 10.0599V13.0599H13V10.0599H10Z" fill="url(#paint0_linear_9_1522)"/>
</g>
<defs>
<linearGradient id="paint0_linear_9_1522" x1="0" y1="8.05994" x2="16" y2="8.05994" gradientUnits="userSpaceOnUse">
<stop stop-color="#FDFC47"/>
<stop offset="1" stop-color="#24FE41"/>
</linearGradient>
<clipPath id="clip0_9_1522">
<rect width="16" height="16" fill="white" transform="translate(0 0.0599365)"/>
</clipPath>
</defs>
</svg>
