<svg width="16" height="17" viewBox="0 0 16 17" fill="none" xmlns="http://www.w3.org/2000/svg">
<g clip-path="url(#clip0_9_1544)">
<path d="M2 0.0599365C0.892 0.0599365 0 0.951936 0 2.05994V14.0599C0 15.1679 0.892 16.0599 2 16.0599H14C15.108 16.0599 16 15.1679 16 14.0599V2.05994C16 0.951936 15.108 0.0599365 14 0.0599365H2ZM3 3.05994H4V4.55994C4 5.25394 4.127 5.63694 4.266 5.80994C4.404 5.98294 4.583 6.05994 5 6.05994C5.417 6.05994 5.596 5.98294 5.734 5.80994C5.873 5.63694 6 5.25394 6 4.55994V3.05994H7V4.55994C7 5.36594 6.877 5.98294 6.516 6.43494C6.154 6.88694 5.583 7.05994 5 7.05994C4.417 7.05994 3.846 6.88694 3.484 6.43494C3.123 5.98294 3 5.36494 3 4.55994V3.05994ZM11 3.05994H12V7.05994H11V3.05994ZM6 10.0599H7L9 12.5599V10.0599H10V14.0599H9L7 11.5599V14.0599H6V10.0599Z" fill="url(#paint0_linear_9_1544)"/>
</g>
<defs>
<linearGradient id="paint0_linear_9_1544" x1="0" y1="8.05994" x2="16" y2="8.05994" gradientUnits="userSpaceOnUse">
<stop stop-color="#FDFC47"/>
<stop offset="1" stop-color="#24FE41"/>
</linearGradient>
<clipPath id="clip0_9_1544">
<rect width="16" height="16" fill="white" transform="translate(0 0.0599365)"/>
</clipPath>
</defs>
</svg>
