<svg width="16" height="17" viewBox="0 0 16 17" fill="none" xmlns="http://www.w3.org/2000/svg">
<g clip-path="url(#clip0_9_1542)">
<path d="M8 0.0599365C5.87827 0.0599365 3.84344 0.902791 2.34315 2.40308C0.842855 3.90337 0 5.9382 0 8.05994C0.00352695 10.0035 0.71446 11.8793 2 13.3369V13.0599H4V9.11994L2.223 10.0099L1.777 9.10994L4 7.99994V5.05994H2V4.05994H4V2.05994H5V4.05994H6V5.05994H5V7.49994L5.777 7.10994L6.223 8.00994L6.117 8.05994H8V5.05994H7V4.05994H8.375L7.1 2.35994L7.9 1.75994L9.4 3.75994L9.002 4.05994H10.998L10.6 3.75994L12.1 1.75994L12.9 2.35994L11.625 4.05994H14V5.05994H12V8.05994H14V9.05994H12V14.0599H11V9.05994H8.959C8.863 10.1799 8.482 11.0909 8.033 11.8709C7.413 12.9409 6.342 13.9249 6.342 13.9249L5.658 13.1969C5.658 13.1969 6.671 12.2309 7.168 11.3709C7.569 10.6709 7.872 9.95994 7.961 9.05994H6V8.11994L5 8.61994V14.0599H2.719C4.17769 15.3464 6.05508 16.0574 8 16.0599C10.1217 16.0599 12.1566 15.2171 13.6569 13.7168C15.1571 12.2165 16 10.1817 16 8.05994C16 5.9382 15.1571 3.90337 13.6569 2.40308C12.1566 0.902791 10.1217 0.0599365 8 0.0599365ZM9 5.05994V8.05994H11V5.05994H9Z" fill="url(#paint0_linear_9_1542)"/>
</g>
<defs>
<linearGradient id="paint0_linear_9_1542" x1="0" y1="8.05994" x2="16" y2="8.05994" gradientUnits="userSpaceOnUse">
<stop stop-color="#FDFC47"/>
<stop offset="1" stop-color="#24FE41"/>
</linearGradient>
<clipPath id="clip0_9_1542">
<rect width="16" height="16" fill="white" transform="translate(0 0.0599365)"/>
</clipPath>
</defs>
</svg>
