<svg width="16" height="17" viewBox="0 0 16 17" fill="none" xmlns="http://www.w3.org/2000/svg">
<g clip-path="url(#clip0_9_1536)">
<path d="M2 0.0599365C0.892 0.0599365 0 0.951936 0 2.05994V14.0599C0 15.1679 0.892 16.0599 2 16.0599H14C15.108 16.0599 16 15.1679 16 14.0599V2.05994C16 0.951936 15.108 0.0599365 14 0.0599365H2ZM10.799 2.11694L11.672 2.81394C11.64 2.86694 11.613 2.91394 11.592 2.95694C11.5509 3.15711 11.5851 3.3654 11.688 3.54194C12.2 3.93494 12.504 4.40294 12.832 4.90794C12.919 5.09394 13.018 5.27794 13.033 5.47394C13.068 5.92694 12.886 6.30994 12.59 6.61694C12.294 6.92294 11.469 7.07594 10.719 7.07594C10.518 7.07594 10.222 7.04794 10 6.99594V10.6989C10.19 10.6459 10.461 10.5779 10.641 10.4939C10.831 10.4089 11.026 10.3139 11.227 10.2079L11.639 11.2709C11.3849 11.3872 11.126 11.4926 10.863 11.5869C10.61 11.6719 10.264 11.7469 10 11.8099V15.0599H9V11.9989C8.694 12.0419 7.173 12.1109 6.898 12.1109C5.915 12.1109 5.059 11.9679 4.33 11.6829C3.6 11.3869 3.03 10.9529 2.617 10.3819C2.216 9.81194 2 8.99794 2 8.14194C2.02277 7.61933 2.21316 7.11794 2.543 6.71194C3.146 5.94794 3.862 5.57994 4.68 5.27494C5.029 5.17994 5.435 5.15494 5.9 5.12294C6.46982 5.07724 7.04136 5.05622 7.613 5.05994H9C8.968 4.56294 8.785 3.75994 8.5 3.52694C8.225 3.29394 7.87 3.17894 7.437 3.17894C7.025 3.17894 6.713 3.25894 6.502 3.41694C6.40084 3.48429 6.31866 3.57648 6.26333 3.68469C6.208 3.7929 6.18138 3.91349 6.186 4.03494C6.186 4.03494 6.201 4.24094 6.201 4.27294L5.074 4.41594C5.054 4.31994 5.043 3.92294 5.043 3.92294C5.043 3.34194 5.25 2.89794 5.663 2.59094C6.074 2.28494 6.639 2.13194 7.357 2.13194C8.457 2.13194 9.217 2.57594 9.641 3.46394C9.94827 2.95284 10.3398 2.49741 10.799 2.11694ZM10.703 3.73394C10.439 4.05094 10.185 4.36294 10.111 4.66894C10.037 4.97594 10 4.90894 10 5.26894V5.96594C10.17 5.99994 10.44 6.02894 10.656 6.02894C11.005 6.02894 11.548 5.97094 11.686 5.85494C11.818 5.66994 11.855 5.51794 11.844 5.37794C11.794 5.10294 11.682 4.87794 11.539 4.66594C11.321 4.27594 10.976 4.00794 10.703 3.73394ZM7.725 6.05994C6.985 6.05994 6.391 6.07994 5.947 6.12294C5.58624 6.15102 5.2299 6.22047 4.885 6.32994C4.63561 6.41001 4.39634 6.51874 4.172 6.65394C3.585 7.12494 3.324 7.53994 3.27 7.99194C3.248 8.29494 3.186 8.55394 3.23 8.77894C3.432 9.79194 4.01 10.1379 4.775 10.6049C5.335 10.8589 6.085 10.9839 7.025 10.9839C7.311 10.9839 8.735 10.9369 9 10.9059V6.05994H7.725Z" fill="url(#paint0_linear_9_1536)"/>
</g>
<defs>
<linearGradient id="paint0_linear_9_1536" x1="0" y1="8.05994" x2="16" y2="8.05994" gradientUnits="userSpaceOnUse">
<stop stop-color="#FDFC47"/>
<stop offset="1" stop-color="#24FE41"/>
</linearGradient>
<clipPath id="clip0_9_1536">
<rect width="16" height="16" fill="white" transform="translate(0 0.0599365)"/>
</clipPath>
</defs>
</svg>
