<svg width="16" height="17" viewBox="0 0 16 17" fill="none" xmlns="http://www.w3.org/2000/svg">
<g clip-path="url(#clip0_9_1534)">
<path d="M2 0.0599365C0.892 0.0599365 0 0.951936 0 2.05994V14.0599C0 15.1679 0.892 16.0599 2 16.0599H14C15.108 16.0599 16 15.1679 16 14.0599V2.05994C16 0.951936 15.108 0.0599365 14 0.0599365H2ZM7 2.05994H8V9.04194C9.811 8.96094 10.721 8.43594 11.262 7.54994C11.852 6.58494 12 5.03994 12 3.05994H13C13 5.07994 12.898 6.78494 12.113 8.06994C11.387 9.25894 10.05 9.94394 8 10.0399V13.0599H13V14.0599H2V13.0599H7V10.0399C4.95 9.94394 3.613 9.25994 2.887 8.06994C2.102 6.78494 2 5.07994 2 3.05994H3C3 5.03994 3.148 6.58494 3.738 7.54994C4.28 8.43594 5.19 8.95994 7 9.04194V2.05994Z" fill="url(#paint0_linear_9_1534)"/>
</g>
<defs>
<linearGradient id="paint0_linear_9_1534" x1="0" y1="8.05994" x2="16" y2="8.05994" gradientUnits="userSpaceOnUse">
<stop stop-color="#FDFC47"/>
<stop offset="1" stop-color="#24FE41"/>
</linearGradient>
<clipPath id="clip0_9_1534">
<rect width="16" height="16" fill="white" transform="translate(0 0.0599365)"/>
</clipPath>
</defs>
</svg>
