<svg width="16" height="17" viewBox="0 0 16 17" fill="none" xmlns="http://www.w3.org/2000/svg">
<g clip-path="url(#clip0_9_1540)">
<path d="M2 0.0599365C0.892 0.0599365 0 0.951936 0 2.05994V14.0599C0 15.1679 0.892 16.0599 2 16.0599H14C15.108 16.0599 16 15.1679 16 14.0599V2.05994C16 0.951936 15.108 0.0599365 14 0.0599365H2ZM2 2.05994H7.549L7.498 2.60994C7.498 2.60994 7.17 6.12994 6.273 8.73994C6.856 9.60994 7.413 10.5089 8.111 11.7489L7.242 12.2399C6.79056 11.4366 6.31637 10.6463 5.82 9.86994C4.426 12.9909 2.455 14.3529 2.455 14.3529L1.898 13.5209C1.898 13.5209 3.869 12.2109 5.162 8.87094C4.397 7.76094 3.527 6.64094 2.109 4.87094L2.891 4.24894C4.071 5.71894 4.864 6.74094 5.559 7.70094C6.109 5.80094 6.357 3.69994 6.428 3.05994H2V2.05994ZM8 2.05994H14V2.55994C14 4.70994 13.167 7.52994 12.293 9.46994C12.182 9.71994 12.051 9.92994 11.926 10.1599C12.55 11.2499 13.386 12.2799 14.77 13.3919L14.143 14.1709C12.861 13.1369 11.996 12.1309 11.34 11.1109C9.947 13.0949 8.236 14.1439 8.236 14.1439L7.719 13.2889C7.719 13.2889 9.499 12.1899 10.787 10.1499C10.4539 9.50049 10.1578 8.83276 9.9 8.14994C9.142 6.19994 8.692 3.64994 8.59 3.05994H8V2.05994ZM9.607 3.05994C9.747 3.82994 10.176 6.08994 10.834 7.78994C11.007 8.23994 11.185 8.65994 11.373 9.06994C12.13 7.38994 12.815 4.90994 12.924 3.05994H9.607Z" fill="url(#paint0_linear_9_1540)"/>
</g>
<defs>
<linearGradient id="paint0_linear_9_1540" x1="0" y1="8.05994" x2="16" y2="8.05994" gradientUnits="userSpaceOnUse">
<stop stop-color="#FDFC47"/>
<stop offset="1" stop-color="#24FE41"/>
</linearGradient>
<clipPath id="clip0_9_1540">
<rect width="16" height="16" fill="white" transform="translate(0 0.0599365)"/>
</clipPath>
</defs>
</svg>
