<svg width="24" height="25" viewBox="0 0 24 25" fill="none" xmlns="http://www.w3.org/2000/svg">
<path d="M11.4376 13.2599H10.2376V10.8599H11.4376C12.763 10.8599 13.8376 9.78534 13.8376 8.45994C13.8376 7.13454 12.763 6.05994 11.4376 6.05994C10.1121 6.05994 9.03765 7.13454 9.03765 8.45994V9.65994H6.63765V8.45994C6.63765 7.13454 5.56305 6.05994 4.23765 6.05994C2.91225 6.05994 1.83765 7.13454 1.83765 8.45994C1.83765 9.78534 2.91225 10.8599 4.23765 10.8599H5.43765V13.2599H4.23765C2.91225 13.2599 1.83765 14.3345 1.83765 15.6599C1.83765 16.9853 2.91225 18.0599 4.23765 18.0599C5.5632 18.0599 6.63765 16.9853 6.63765 15.6599V14.4599H9.03765V15.6569C9.03765 15.6581 9.0375 15.659 9.0375 15.6599C9.0375 16.9853 10.1121 18.0599 11.4375 18.0599C12.7629 18.0599 13.8375 16.9853 13.8375 15.6599C13.8375 14.3345 12.763 13.2602 11.4376 13.2599ZM11.4376 7.25994C12.1003 7.25994 12.6376 7.79724 12.6376 8.45994C12.6376 9.12264 12.1003 9.65994 11.4376 9.65994H10.2376V8.45994C10.2376 7.79724 10.7749 7.25994 11.4376 7.25994ZM3.03765 8.45994C3.03765 7.79724 3.57495 7.25994 4.23765 7.25994C4.90035 7.25994 5.43765 7.79724 5.43765 8.45994V9.65994H4.23765C3.57495 9.65994 3.03765 9.12249 3.03765 8.45994ZM4.23765 16.8599C3.57495 16.8599 3.03765 16.3226 3.03765 15.6599C3.03765 14.9972 3.57495 14.4599 4.23765 14.4599H5.43765V15.6599C5.43765 16.3226 4.90035 16.8599 4.23765 16.8599ZM6.63765 13.2599V10.8599H9.03765V13.2599H6.63765ZM11.4376 16.8599C10.7749 16.8599 10.2376 16.3226 10.2376 15.6599V14.4599H11.4375C12.1002 14.4599 12.6375 14.9972 12.6375 15.6599C12.6375 16.3226 12.1003 16.8599 11.4376 16.8599Z" fill="url(#paint0_linear_9_1573)"/>
<path fill-rule="evenodd" clip-rule="evenodd" d="M17.2977 7.22583V7.59222H16.3011C16.0441 7.59222 15.8345 7.80114 15.8345 8.05927V17.1123C15.8345 17.37 16.0442 17.5789 16.3011 17.5789H21.6953C21.9535 17.5789 22.162 17.37 22.162 17.1123V8.05927C22.162 7.80115 21.9531 7.59261 21.6953 7.59261H20.7381V7.22624C20.7381 6.96812 20.5303 6.75958 20.2715 6.75958H17.7648C17.5067 6.75918 17.2977 6.96771 17.2977 7.22583Z" fill="url(#paint1_linear_9_1573)"/>
<defs>
<linearGradient id="paint0_linear_9_1573" x1="1.83765" y1="12.0599" x2="13.8376" y2="12.0599" gradientUnits="userSpaceOnUse">
<stop stop-color="#FDFC47"/>
<stop offset="1" stop-color="#24FE41"/>
</linearGradient>
<linearGradient id="paint1_linear_9_1573" x1="15.8345" y1="12.1693" x2="22.162" y2="12.1693" gradientUnits="userSpaceOnUse">
<stop stop-color="#FDFC47"/>
<stop offset="1" stop-color="#24FE41"/>
</linearGradient>
</defs>
</svg>
