<svg width="16" height="17" viewBox="0 0 16 17" fill="none" xmlns="http://www.w3.org/2000/svg">
<path opacity="0.35" d="M7.74998 2.05994V4.55994H8.24998V2.05994H7.74998ZM3.85348 3.55994L3.49996 3.91346L5.26756 5.68106L5.62108 5.32754L3.85348 3.55994ZM12 3.55994L10.2324 5.32754L10.5859 5.68106L12.3535 3.91346L12 3.55994ZM7.99998 5.05994C7.20433 5.05994 6.44127 5.37601 5.87866 5.93862C5.31605 6.50123 4.99998 7.26429 4.99998 8.05994C4.99998 8.85559 5.31605 9.61865 5.87866 10.1813C6.44127 10.7439 7.20433 11.0599 7.99998 11.0599C8.79563 11.0599 9.55869 10.7439 10.1213 10.1813C10.6839 9.61865 11 8.85559 11 8.05994C11 7.26429 10.6839 6.50123 10.1213 5.93862C9.55869 5.37601 8.79563 5.05994 7.99998 5.05994ZM8.0117 6.04236C8.27819 6.04234 8.54208 6.09482 8.78829 6.1968C9.03451 6.29878 9.25822 6.44825 9.44666 6.6367C9.6351 6.82514 9.78458 7.04885 9.88656 7.29506C9.98853 7.54127 10.041 7.80516 10.041 8.07166C10.041 8.33815 9.98853 8.60204 9.88656 8.84825C9.78458 9.09446 9.6351 9.31818 9.44666 9.50662C9.25822 9.69506 9.03451 9.84454 8.78829 9.94651C8.54208 10.0485 8.27819 10.101 8.0117 10.101C7.7452 10.101 7.48132 10.0485 7.23511 9.94651C6.98889 9.84454 6.76518 9.69506 6.57674 9.50662C6.3883 9.31818 6.23882 9.09446 6.13684 8.84825C6.03487 8.60204 5.98239 8.33815 5.9824 8.07166C5.98239 7.80516 6.03487 7.54127 6.13684 7.29506C6.23882 7.04885 6.3883 6.82514 6.57674 6.6367C6.76518 6.44825 6.98889 6.29878 7.23511 6.1968C7.48132 6.09482 7.7452 6.04234 8.0117 6.04236ZM2 7.80996V8.30996H4.5V7.80996H2ZM11.5 7.80996V8.30996H14V7.80996H11.5ZM5.2676 10.4389L3.5 12.2065L3.85352 12.56L5.62112 10.7924L5.2676 10.4389ZM10.7324 10.4389L10.3789 10.7924L12.1465 12.56L12.5 12.2065L10.7324 10.4389ZM7.75 11.56V14.06H8.25V11.56H7.75Z" fill="url(#paint0_linear_9_1555)"/>
<defs>
<linearGradient id="paint0_linear_9_1555" x1="2" y1="8.05995" x2="14" y2="8.05995" gradientUnits="userSpaceOnUse">
<stop stop-color="#FDFC47"/>
<stop offset="1" stop-color="#24FE41"/>
</linearGradient>
</defs>
</svg>
