<svg width="16" height="17" viewBox="0 0 16 17" fill="none" xmlns="http://www.w3.org/2000/svg">
<g clip-path="url(#clip0_9_1607)">
<path fill-rule="evenodd" clip-rule="evenodd" d="M7.98317 0.06009C6.93347 0.084036 5.75127 0.14569 4.75887 0.80609C4.73215 0.822457 4.70771 0.842043 4.68615 0.864371C3.65525 2.02167 3.8424 3.55677 3.68005 4.73427C3.67572 4.7419 3.67168 4.74967 3.66794 4.75758C3.48149 7.77508 3.4918 10.8348 3.97098 13.8495V13.8611C4.12684 14.6593 4.64362 15.5064 5.59528 15.7261C5.60454 15.7283 5.61017 15.7357 5.61952 15.7378V15.7261C7.06342 16.1518 8.62262 16.1519 10.0681 15.831C10.8168 15.6646 11.5925 15.2186 11.8621 14.4089C11.8633 14.4056 11.8609 14.4007 11.8621 14.3973C12.214 13.43 12.2072 12.4342 12.3106 11.5299C12.3147 11.5261 12.3188 11.5222 12.3227 11.5183C12.5154 8.61725 12.5022 5.68845 12.1167 2.78765C12.0633 2.37627 11.9767 1.92347 11.7651 1.50545C11.5559 1.09197 11.2136 0.717974 10.7105 0.514674C10.7082 0.513904 10.7128 0.50393 10.7105 0.503036C10.707 0.501556 10.702 0.504516 10.6984 0.503036C9.81894 0.123396 8.85813 0.092626 8.00743 0.060096C7.99935 0.0598427 7.99125 0.0598367 7.98317 0.06009Z" fill="url(#paint0_linear_9_1607)"/>
</g>
<defs>
<linearGradient id="paint0_linear_9_1607" x1="3.55554" y1="8.05992" x2="12.4445" y2="8.05992" gradientUnits="userSpaceOnUse">
<stop stop-color="#FDFC47"/>
<stop offset="1" stop-color="#24FE41"/>
</linearGradient>
<clipPath id="clip0_9_1607">
<rect width="16" height="16" fill="white" transform="translate(0 0.0599365)"/>
</clipPath>
</defs>
</svg>
