<svg width="16" height="17" viewBox="0 0 16 17" fill="none" xmlns="http://www.w3.org/2000/svg">
<path d="M7.75 2.05994V4.05994H8.25V2.05994H7.75ZM3.8535 3.55994L3.49998 3.91346L5.26758 5.68106L5.6211 5.32754L3.8535 3.55994ZM12 3.55994L10.2324 5.32754L10.5859 5.68106L12.3535 3.91346L12 3.55994ZM6.5 5.46614C6.04457 5.72908 5.66626 6.10712 5.40299 6.56236C5.13972 7.0176 5.00075 7.53405 5 8.05994C5.00075 8.58582 5.13972 9.10227 5.40299 9.55751C5.66626 10.0128 6.04457 10.3908 6.5 10.6537V10.06C6.50025 9.88438 6.54673 9.71193 6.63477 9.55999C6.63412 9.55934 6.63347 9.55868 6.63282 9.55803C6.428 9.36835 6.26453 9.13845 6.15262 8.88271C6.04071 8.62697 5.98277 8.35089 5.98243 8.07173C5.98345 7.57359 6.16767 7.09322 6.50001 6.72213L6.5 5.46614ZM9.5 5.46614V6.69464C9.8472 7.0692 10.0404 7.56091 10.041 8.07164C10.0406 8.35474 9.98098 8.63463 9.86594 8.8933C9.7509 9.15198 9.58301 9.38372 9.37305 9.57364C9.45608 9.7223 9.49977 9.88969 9.5 10.06V10.6537C9.95543 10.3908 10.3337 10.0127 10.597 9.55749C10.8603 9.10225 10.9993 8.5858 11 8.05992C10.9993 7.53403 10.8603 7.01758 10.597 6.56234C10.3337 6.1071 9.95543 5.72908 9.5 5.46614ZM2 7.80994V8.30994H4.5V7.80994H2ZM11.5 7.80994V8.30994H14V7.80994H11.5ZM5.2676 10.4388L3.5 12.2064L3.85352 12.56L5.62112 10.7924L5.2676 10.4388ZM10.7324 10.4388L10.3789 10.7924L12.1465 12.56L12.5 12.2064L10.7324 10.4388ZM7.75 12.0599V14.0599H8.25V12.0599H7.75Z" fill="url(#paint0_linear_9_1557)"/>
<path d="M7.5 5.05994V9.05994H8.5V5.05994H7.5ZM7.5 10.0599V11.0599H8.5V10.0599H7.5Z" fill="url(#paint1_linear_9_1557)"/>
<defs>
<linearGradient id="paint0_linear_9_1557" x1="2" y1="8.05994" x2="14" y2="8.05994" gradientUnits="userSpaceOnUse">
<stop stop-color="#FDFC47"/>
<stop offset="1" stop-color="#24FE41"/>
</linearGradient>
<linearGradient id="paint1_linear_9_1557" x1="7.5" y1="5.05994" x2="10.3493" y2="6.12843" gradientUnits="userSpaceOnUse">
<stop stop-color="#FF0500"/>
<stop offset="1" stop-color="#FD3632"/>
</linearGradient>
</defs>
</svg>
