<svg width="16" height="17" viewBox="0 0 16 17" fill="none" xmlns="http://www.w3.org/2000/svg">
<g clip-path="url(#clip0_9_1662)">
<path d="M0.115451 8.44078L3.11373 11.893C3.30445 12.1127 3.6148 12.114 3.80681 11.8959C3.99884 11.6779 3.99996 11.3232 3.80932 11.1037L1.15641 8.04894L3.82857 5.01639C4.0206 4.79836 4.02172 4.44363 3.83108 4.22411C3.64043 4.0045 3.3301 4.00321 3.13799 4.22124L0.117957 7.64861C0.0219415 7.75763 -0.0262921 7.90069 -0.0267454 8.04401C-0.0271989 8.18741 0.0202212 8.33096 0.115529 8.44073L0.115451 8.44078Z" fill="url(#paint0_linear_9_1662)"/>
<path d="M15.8845 7.67909L12.8863 4.22686C12.6956 4.00714 12.3852 4.00586 12.1932 4.22399C12.0012 4.44193 12 4.7967 12.1907 5.0162L14.8436 8.07094L12.1714 11.1035C11.9794 11.3215 11.9783 11.6762 12.1689 11.8958C12.3596 12.1154 12.6699 12.1167 12.862 11.8986L15.882 8.47127C15.9781 8.36224 16.0263 8.21919 16.0267 8.07586C16.0272 7.93247 15.9798 7.78891 15.8845 7.67915L15.8845 7.67909Z" fill="url(#paint1_linear_9_1662)"/>
<path d="M10 7.05994H6C5.44772 7.05994 5 7.50765 5 8.05994V10.0599C5 10.6122 5.44772 11.0599 6 11.0599H10C10.5523 11.0599 11 10.6122 11 10.0599V8.05994C11 7.50765 10.5523 7.05994 10 7.05994Z" fill="url(#paint2_linear_9_1662)"/>
<path fill-rule="evenodd" clip-rule="evenodd" d="M8 5.05994C6.892 5.05994 6 5.95194 6 7.05994V9.05994C6 10.1679 6.892 11.0599 8 11.0599C7.446 11.0599 7 10.6139 7 10.0599V7.05994C7 6.50594 7.446 6.05994 8 6.05994C8.554 6.05994 9 6.50594 9 7.05994V10.0599C9 10.6139 8.554 11.0599 8 11.0599C9.108 11.0599 10 10.1679 10 9.05994V7.05994C10 5.95194 9.108 5.05994 8 5.05994Z" fill="url(#paint3_linear_9_1662)"/>
</g>
<defs>
<linearGradient id="paint0_linear_9_1662" x1="3.96245" y1="8.06063" x2="-0.0267581" y2="8.04801" gradientUnits="userSpaceOnUse">
<stop stop-color="#FDFC47"/>
<stop offset="1" stop-color="#24FE41"/>
</linearGradient>
<linearGradient id="paint1_linear_9_1662" x1="12.0376" y1="8.05925" x2="16.0268" y2="8.07186" gradientUnits="userSpaceOnUse">
<stop stop-color="#FDFC47"/>
<stop offset="1" stop-color="#24FE41"/>
</linearGradient>
<linearGradient id="paint2_linear_9_1662" x1="5" y1="7.05994" x2="6.57377" y2="12.3714" gradientUnits="userSpaceOnUse">
<stop stop-color="#FF0500"/>
<stop offset="1" stop-color="#FD3632"/>
</linearGradient>
<linearGradient id="paint3_linear_9_1662" x1="6" y1="5.05994" x2="10" y2="11.0599" gradientUnits="userSpaceOnUse">
<stop stop-color="#FF0500"/>
<stop offset="1" stop-color="#FD3632"/>
</linearGradient>
<clipPath id="clip0_9_1662">
<rect width="16" height="16" fill="white" transform="translate(0 0.0599365)"/>
</clipPath>
</defs>
</svg>
