<svg width="16" height="17" viewBox="0 0 16 17" fill="none" xmlns="http://www.w3.org/2000/svg">
<path d="M11 4.06094C11 2.40409 9.65685 1.06094 8 1.06094C6.34315 1.06094 5 2.40409 5 4.06094V8.06094C5 9.7178 6.34315 11.0609 8 11.0609C9.65685 11.0609 11 9.7178 11 8.06094V4.06094Z" fill="url(#paint0_linear_9_1688)"/>
<path d="M3.5 6.06094C3.223 6.06094 3 6.28394 3 6.56094V8.06094C3 10.6617 4.967 12.7857 7.5 13.0355V14.0609H5.5C5.223 14.0609 5 14.2839 5 14.5609C5 14.8379 5.223 15.0609 5.5 15.0609H10.5C10.777 15.0609 11 14.8379 11 14.5609C11 14.2839 10.777 14.0609 10.5 14.0609H8.5V13.0355C11.033 12.7857 13 10.6617 13 8.06094V6.56094C13 6.28394 12.777 6.06094 12.5 6.06094C12.223 6.06094 12 6.28394 12 6.56094V8.06094C12 10.2769 10.216 12.0609 8 12.0609C5.784 12.0609 4 10.2769 4 8.06094V6.56094C4 6.28394 3.777 6.06094 3.5 6.06094Z" fill="url(#paint1_linear_9_1688)"/>
<defs>
<linearGradient id="paint0_linear_9_1688" x1="5" y1="6.06094" x2="11" y2="6.06094" gradientUnits="userSpaceOnUse">
<stop stop-color="#FDFC47"/>
<stop offset="1" stop-color="#24FE41"/>
</linearGradient>
<linearGradient id="paint1_linear_9_1688" x1="3" y1="10.5609" x2="13" y2="10.5609" gradientUnits="userSpaceOnUse">
<stop stop-color="#FDFC47"/>
<stop offset="1" stop-color="#24FE41"/>
</linearGradient>
</defs>
</svg>
