<svg width="16" height="17" viewBox="0 0 16 17" fill="none" xmlns="http://www.w3.org/2000/svg">
<path d="M8 1.05993C6.14348 1.05993 4.36301 1.79742 3.05025 3.11018C1.7375 4.42293 1 6.20341 1 8.05993C1 9.91644 1.7375 11.6969 3.05025 13.0097C4.36301 14.3224 6.14348 15.0599 8 15.0599C9.43558 15.0588 10.8361 14.6162 12.0117 13.7923C12.0042 13.7151 12.0003 13.6375 12 13.5599C12.0002 12.9291 12.2389 12.3218 12.6681 11.8596C13.0974 11.3974 13.6854 11.1145 14.3145 11.0677C14.7638 10.1286 14.998 9.10101 15 8.05991C15 7.14065 14.819 6.2304 14.4672 5.38112C14.1154 4.53184 13.5998 3.76017 12.9498 3.11016C12.2998 2.46015 11.5281 1.94453 10.6788 1.59275C9.82954 1.24097 8.91925 1.05993 8 1.05993ZM7 4.05993H9V6.05993H7V4.05993ZM7 7.05993H9V12.0599H7V7.05993Z" fill="url(#paint0_linear_9_1710)"/>
<path d="M14.5 15.0599C15.3284 15.0599 16 14.3884 16 13.5599C16 12.7315 15.3284 12.0599 14.5 12.0599C13.6716 12.0599 13 12.7315 13 13.5599C13 14.3884 13.6716 15.0599 14.5 15.0599Z" fill="url(#paint1_linear_9_1710)"/>
<defs>
<linearGradient id="paint0_linear_9_1710" x1="1" y1="8.05992" x2="15" y2="8.05992" gradientUnits="userSpaceOnUse">
<stop stop-color="#FDFC47"/>
<stop offset="1" stop-color="#24FE41"/>
</linearGradient>
<linearGradient id="paint1_linear_9_1710" x1="13" y1="13.5599" x2="16" y2="13.5599" gradientUnits="userSpaceOnUse">
<stop stop-color="#FDFC47"/>
<stop offset="1" stop-color="#24FE41"/>
</linearGradient>
</defs>
</svg>
