<svg width="16" height="17" viewBox="0 0 16 17" fill="none" xmlns="http://www.w3.org/2000/svg">
<g clip-path="url(#clip0_9_1713)">
<path fill-rule="evenodd" clip-rule="evenodd" d="M0 15.0599C0 15.6139 0.446 16.0599 1 16.0599H7C7.554 16.0599 8 15.6139 8 15.0599V3.05994C8 2.50594 7.554 2.05994 7 2.05994H1C0.446 2.05994 0 2.50594 0 3.05994L0 15.0599ZM1 15.0599L1 3.05994H7L7 15.0599H1Z" fill="url(#paint0_linear_9_1713)"/>
<path fill-rule="evenodd" clip-rule="evenodd" d="M2.58789 1.05994L5.41209 1.05994C5.30881 0.767825 5.11762 0.514861 4.86477 0.335801C4.61192 0.156742 4.30982 0.0603732 3.99999 0.0599365C3.69016 0.0603732 3.38807 0.156742 3.13522 0.335801C2.88237 0.514861 2.69117 0.767825 2.58789 1.05994Z" fill="url(#paint1_linear_9_1713)"/>
<path d="M2 12.0599V14.0599H6V12.0599H2Z" fill="url(#paint2_linear_9_1713)"/>
<path fill-rule="evenodd" clip-rule="evenodd" d="M12.486 3.05984C11.6594 3.0778 10.7284 3.12312 9.9469 3.61843C9.92585 3.63071 9.90724 3.64661 9.89026 3.66336C9.0784 4.53136 9.22513 5.68256 9.09729 6.56566C9.09388 6.57139 9.09047 6.5773 9.08752 6.58324C8.94069 8.84644 8.95041 11.1405 9.32776 13.4016V13.4114C9.4505 14.0101 9.85569 14.6451 10.6051 14.8098C10.6124 14.8114 10.6172 14.8161 10.6246 14.8176V14.8098C11.7617 15.1291 12.9902 15.1286 14.1285 14.888C14.7181 14.7631 15.3283 14.4288 15.5406 13.8216C15.5415 13.8191 15.5397 13.8163 15.5406 13.8138C15.8177 13.0883 15.8127 12.3398 15.8941 11.6615C15.8973 11.6587 15.9009 11.6567 15.9039 11.6537C16.0557 9.47777 16.0454 7.28036 15.7418 5.10476C15.6997 4.79619 15.631 4.45734 15.4644 4.14382C15.2996 3.83371 15.0305 3.55411 14.6344 3.40163C14.6325 3.40106 14.6363 3.39253 14.6344 3.39186C14.6315 3.39075 14.6274 3.39297 14.6246 3.39186C13.932 3.10712 13.1754 3.08423 12.5055 3.05983C12.4991 3.05964 12.4924 3.05965 12.486 3.05984ZM12.4997 5.05984C12.7767 5.05984 12.9997 5.28284 12.9997 5.55984V6.55984C12.9997 6.83684 12.7767 7.05984 12.4997 7.05984C12.2227 7.05984 11.9997 6.83684 11.9997 6.55984V5.55984C11.9997 5.28284 12.2227 5.05984 12.4997 5.05984Z" fill="url(#paint3_linear_9_1713)"/>
</g>
<defs>
<linearGradient id="paint0_linear_9_1713" x1="0" y1="16.0599" x2="10.8554" y2="13.303" gradientUnits="userSpaceOnUse">
<stop stop-color="#FF0500"/>
<stop offset="1" stop-color="#FD3632"/>
</linearGradient>
<linearGradient id="paint1_linear_9_1713" x1="2.58789" y1="1.05994" x2="4.1718" y2="-0.928186" gradientUnits="userSpaceOnUse">
<stop stop-color="#FF0500"/>
<stop offset="1" stop-color="#FD3632"/>
</linearGradient>
<linearGradient id="paint2_linear_9_1713" x1="2" y1="14.0599" x2="5.22759" y2="11.191" gradientUnits="userSpaceOnUse">
<stop stop-color="#FF0500"/>
<stop offset="1" stop-color="#FD3632"/>
</linearGradient>
<linearGradient id="paint3_linear_9_1713" x1="8.99951" y1="9.05979" x2="15.9998" y2="9.05979" gradientUnits="userSpaceOnUse">
<stop stop-color="#FDFC47"/>
<stop offset="1" stop-color="#24FE41"/>
</linearGradient>
<clipPath id="clip0_9_1713">
<rect width="16" height="16" fill="white" transform="translate(0 0.0599365)"/>
</clipPath>
</defs>
</svg>
