<svg width="16" height="17" viewBox="0 0 16 17" fill="none" xmlns="http://www.w3.org/2000/svg">
<g clip-path="url(#clip0_9_1756)">
<path opacity="0.35" d="M13.5 0.0599365C13.223 0.0599365 13 0.282937 13 0.559937V10.0599H15V0.559937C15 0.282937 14.777 0.0599365 14.5 0.0599365H13.5ZM10.5 3.05994C10.223 3.05994 10 3.28294 10 3.55994V10.0599H12V3.55994C12 3.28294 11.777 3.05994 11.5 3.05994H10.5ZM7.5 6.05994C7.223 6.05994 7 6.28294 7 6.55994V14.5599C7 14.8369 7.223 15.0599 7.5 15.0599H8.5C8.777 15.0599 9 14.8369 9 14.5599V6.55994C9 6.28294 8.777 6.05994 8.5 6.05994H7.5ZM4.5 9.05994C4.223 9.05994 4 9.28294 4 9.55994V14.5599C4 14.8369 4.223 15.0599 4.5 15.0599H5.5C5.777 15.0599 6 14.8369 6 14.5599V9.55994C6 9.28294 5.777 9.05994 5.5 9.05994H4.5ZM1.5 12.0599C1.223 12.0599 1 12.2829 1 12.5599V14.5599C1 14.8369 1.223 15.0599 1.5 15.0599H2.5C2.777 15.0599 3 14.8369 3 14.5599V12.5599C3 12.2829 2.777 12.0599 2.5 12.0599H1.5Z" fill="url(#paint0_linear_9_1756)"/>
<path d="M11 11.0599V12.0599C11 12.3369 11.1 12.5979 11.281 12.7799L12.062 13.5599L11.282 14.3419C11.0972 14.5348 10.9958 14.7928 11 15.0599V16.0599H12C12.276 16.0599 12.538 15.9599 12.719 15.7779L13.5 14.9979L14.281 15.7779C14.462 15.9589 14.724 16.0599 15 16.0599H16V15.0599C16 14.7829 15.9 14.5219 15.719 14.3399L14.937 13.5599L15.719 12.7779C15.899 12.5979 16 12.3359 16 12.0599V11.0599H15C14.724 11.0599 14.462 11.1599 14.281 11.3399L13.5 12.1219C13.5 12.1219 13.027 11.5419 12.719 11.3409C12.503 11.1999 12.276 11.0599 12 11.0599H11Z" fill="url(#paint1_linear_9_1756)"/>
</g>
<defs>
<linearGradient id="paint0_linear_9_1756" x1="1" y1="7.55994" x2="15" y2="7.55994" gradientUnits="userSpaceOnUse">
<stop stop-color="#FDFC47"/>
<stop offset="1" stop-color="#24FE41"/>
</linearGradient>
<linearGradient id="paint1_linear_9_1756" x1="10.9999" y1="13.5599" x2="16" y2="13.5599" gradientUnits="userSpaceOnUse">
<stop stop-color="#FDFC47"/>
<stop offset="1" stop-color="#24FE41"/>
</linearGradient>
<clipPath id="clip0_9_1756">
<rect width="16" height="16.001" fill="white" transform="translate(0 0.0599365)"/>
</clipPath>
</defs>
</svg>
