<svg width="16" height="17" viewBox="0 0 16 17" fill="none" xmlns="http://www.w3.org/2000/svg">
<g clip-path="url(#clip0_9_1790)">
<path opacity="0.35" d="M13.5 0.0830078C13.223 0.0830078 13 0.306008 13 0.583008V14.583C13 14.86 13.223 15.083 13.5 15.083H14.5C14.777 15.083 15 14.86 15 14.583V0.583008C15 0.306008 14.777 0.0830078 14.5 0.0830078H13.5ZM10.5 3.08301C10.223 3.08301 10 3.30601 10 3.58301V14.583C10 14.86 10.223 15.083 10.5 15.083H11.5C11.777 15.083 12 14.86 12 14.583V3.58301C12 3.30601 11.777 3.08301 11.5 3.08301H10.5ZM7.5 6.08301C7.223 6.08301 7 6.30601 7 6.58301V14.583C7 14.86 7.223 15.083 7.5 15.083H8.5C8.777 15.083 9 14.86 9 14.583V6.58301C9 6.30601 8.777 6.08301 8.5 6.08301H7.5ZM4.5 9.08301C4.223 9.08301 4 9.30601 4 9.58301V14.583C4 14.86 4.223 15.083 4.5 15.083H5.5C5.777 15.083 6 14.86 6 14.583V9.58301C6 9.30601 5.777 9.08301 5.5 9.08301H4.5ZM1.5 12.083C1.223 12.083 1 12.306 1 12.583V14.583C1 14.86 1.223 15.083 1.5 15.083H2.5C2.777 15.083 3 14.86 3 14.583V12.583C3 12.306 2.777 12.083 2.5 12.083H1.5Z" fill="url(#paint0_linear_9_1790)"/>
</g>
<defs>
<linearGradient id="paint0_linear_9_1790" x1="1" y1="7.58301" x2="15" y2="7.58301" gradientUnits="userSpaceOnUse">
<stop stop-color="#FDFC47"/>
<stop offset="1" stop-color="#24FE41"/>
</linearGradient>
<clipPath id="clip0_9_1790">
<rect width="16" height="16.001" fill="white" transform="translate(0 0.0830078)"/>
</clipPath>
</defs>
</svg>
