<svg width="16" height="17" viewBox="0 0 16 17" fill="none" xmlns="http://www.w3.org/2000/svg">
<g clip-path="url(#clip0_9_1792)">
<path opacity="0.35" d="M13.5 0.0839844C13.223 0.0839844 13 0.306984 13 0.583984V14.584C13 14.861 13.223 15.084 13.5 15.084H14.5C14.777 15.084 15 14.861 15 14.584V0.583984C15 0.306984 14.777 0.0839844 14.5 0.0839844H13.5ZM10.5 3.08398C10.223 3.08398 10 3.30698 10 3.58398V14.584C10 14.861 10.223 15.084 10.5 15.084H11.5C11.777 15.084 12 14.861 12 14.584V3.58398C12 3.30698 11.777 3.08398 11.5 3.08398H10.5Z" fill="url(#paint0_linear_9_1792)"/>
<path d="M7.5 6.08398C7.223 6.08398 7 6.30698 7 6.58398V14.584C7 14.861 7.223 15.084 7.5 15.084H8.5C8.777 15.084 9 14.861 9 14.584V6.58398C9 6.30698 8.777 6.08398 8.5 6.08398H7.5ZM4.5 9.08398C4.223 9.08398 4 9.30698 4 9.58398V14.584C4 14.861 4.223 15.084 4.5 15.084H5.5C5.777 15.084 6 14.861 6 14.584V9.58398C6 9.30698 5.777 9.08398 5.5 9.08398H4.5ZM1.5 12.084C1.223 12.084 1 12.307 1 12.584V14.584C1 14.861 1.223 15.084 1.5 15.084H2.5C2.777 15.084 3 14.861 3 14.584V12.584C3 12.307 2.777 12.084 2.5 12.084H1.5Z" fill="url(#paint1_linear_9_1792)"/>
</g>
<defs>
<linearGradient id="paint0_linear_9_1792" x1="10" y1="7.58398" x2="15" y2="7.58398" gradientUnits="userSpaceOnUse">
<stop stop-color="#FDFC47"/>
<stop offset="1" stop-color="#24FE41"/>
</linearGradient>
<linearGradient id="paint1_linear_9_1792" x1="1" y1="10.584" x2="9" y2="10.584" gradientUnits="userSpaceOnUse">
<stop stop-color="#FDFC47"/>
<stop offset="1" stop-color="#24FE41"/>
</linearGradient>
<clipPath id="clip0_9_1792">
<rect width="16" height="16.001" fill="white" transform="translate(0 0.0839844)"/>
</clipPath>
</defs>
</svg>
