<svg width="16" height="17" viewBox="0 0 16 17" fill="none" xmlns="http://www.w3.org/2000/svg">
<g clip-path="url(#clip0_9_1752)">
<path opacity="0.35" d="M13.5 0.0599365C13.223 0.0599365 13 0.282937 13 0.559937V14.5599C13 14.8369 13.223 15.0599 13.5 15.0599H14.5C14.777 15.0599 15 14.8369 15 14.5599V0.559937C15 0.282937 14.777 0.0599365 14.5 0.0599365H13.5ZM10.5 3.05994C10.223 3.05994 10 3.28294 10 3.55994V4.59094C10.5751 4.91846 11.0593 5.38445 11.4085 5.94661C11.7578 6.50876 11.9611 7.14926 12 7.80994V3.55994C12 3.28294 11.777 3.05994 11.5 3.05994H10.5ZM12 7.87294C12 8.66294 11.89 9.35494 11.531 9.96594C11.173 10.5769 10.641 11.0119 10 11.4969V14.5599C10 14.8369 10.223 15.0599 10.5 15.0599H11.5C11.777 15.0599 12 14.8369 12 14.5599V7.87194V7.87294ZM4.5 9.05994C4.223 9.05994 4 9.28294 4 9.55994V14.5599C4 14.8369 4.223 15.0599 4.5 15.0599H5.5C5.777 15.0599 6 14.8369 6 14.5599V9.55994C6 9.28294 5.777 9.05994 5.5 9.05994H4.5ZM1.5 12.0599C1.223 12.0599 1 12.2829 1 12.5599V14.5599C1 14.8369 1.223 15.0599 1.5 15.0599H2.5C2.777 15.0599 3 14.8369 3 14.5599V12.5599C3 12.2829 2.777 12.0599 2.5 12.0599H1.5Z" fill="url(#paint0_linear_9_1752)"/>
<path d="M7.81297 5.05993C9.45497 4.96793 10.908 6.22993 11 7.87293C11 9.27293 10.622 9.79393 9.40597 10.7159C9.21597 10.8599 9.08097 10.9659 9.03097 11.0289C8.98097 11.0909 9.00097 11.0619 9.00097 11.0599C9.00697 11.5879 8.52797 12.0599 8.00097 12.0599C7.47097 12.0599 6.99297 11.5879 7.00097 11.0599C7.00097 10.5579 7.22397 10.1169 7.46897 9.80993C7.67761 9.55023 7.91933 9.31894 8.18797 9.12193C8.39197 8.96193 8.64797 8.73793 8.87497 8.46593C8.96897 8.35393 9.00497 8.15893 8.99997 8.02893V7.99693C8.99353 7.86506 8.96074 7.73582 8.90351 7.61684C8.84629 7.49786 8.7658 7.39156 8.6668 7.30421C8.5678 7.21686 8.45229 7.15024 8.32711 7.10829C8.20193 7.06633 8.06961 7.04989 7.93797 7.05993C7.37397 7.09193 6.96797 7.49693 6.99997 8.05993H4.99997C4.90797 6.41793 6.16997 5.15193 7.81297 5.05993ZM7.99997 13.0599C8.26518 13.0599 8.51954 13.1653 8.70707 13.3528C8.89461 13.5404 8.99997 13.7947 8.99997 14.0599C8.99997 14.3252 8.89461 14.5795 8.70707 14.767C8.51954 14.9546 8.26518 15.0599 7.99997 15.0599C7.73475 15.0599 7.4804 14.9546 7.29286 14.767C7.10532 14.5795 6.99997 14.3252 6.99997 14.0599C6.99997 13.7947 7.10532 13.5404 7.29286 13.3528C7.4804 13.1653 7.73475 13.0599 7.99997 13.0599Z" fill="url(#paint1_linear_9_1752)"/>
</g>
<defs>
<linearGradient id="paint0_linear_9_1752" x1="1" y1="7.55994" x2="15" y2="7.55994" gradientUnits="userSpaceOnUse">
<stop stop-color="#FDFC47"/>
<stop offset="1" stop-color="#24FE41"/>
</linearGradient>
<linearGradient id="paint1_linear_9_1752" x1="4.99524" y1="10.0576" x2="11" y2="10.0576" gradientUnits="userSpaceOnUse">
<stop stop-color="#FDFC47"/>
<stop offset="1" stop-color="#24FE41"/>
</linearGradient>
<clipPath id="clip0_9_1752">
<rect width="16" height="16" fill="white" transform="translate(0 0.0599365)"/>
</clipPath>
</defs>
</svg>
