<svg width="16" height="17" viewBox="0 0 16 17" fill="none" xmlns="http://www.w3.org/2000/svg">
<g clip-path="url(#clip0_9_1780)">
<path d="M13.5 0.0609131C13.223 0.0609131 13 0.283913 13 0.560913V14.5609C13 14.8379 13.223 15.0609 13.5 15.0609H14.5C14.777 15.0609 15 14.8379 15 14.5609V0.560913C15 0.283913 14.777 0.0609131 14.5 0.0609131H13.5ZM10.5 3.06091C10.223 3.06091 10 3.28391 10 3.56091V14.5609C10 14.8379 10.223 15.0609 10.5 15.0609H11.5C11.777 15.0609 12 14.8379 12 14.5609V3.56091C12 3.28391 11.777 3.06091 11.5 3.06091H10.5ZM7.5 6.06091C7.223 6.06091 7 6.28391 7 6.56091V14.5609C7 14.8379 7.223 15.0609 7.5 15.0609H8.5C8.777 15.0609 9 14.8379 9 14.5609V6.56091C9 6.28391 8.777 6.06091 8.5 6.06091H7.5ZM4.5 9.06091C4.223 9.06091 4 9.28391 4 9.56091V14.5609C4 14.8379 4.223 15.0609 4.5 15.0609H5.5C5.777 15.0609 6 14.8379 6 14.5609V9.56091C6 9.28391 5.777 9.06091 5.5 9.06091H4.5ZM1.5 12.0609C1.223 12.0609 1 12.2839 1 12.5609V14.5609C1 14.8379 1.223 15.0609 1.5 15.0609H2.5C2.777 15.0609 3 14.8379 3 14.5609V12.5609C3 12.2839 2.777 12.0609 2.5 12.0609H1.5Z" fill="url(#paint0_linear_9_1780)"/>
</g>
<defs>
<linearGradient id="paint0_linear_9_1780" x1="1" y1="7.56091" x2="15" y2="7.56091" gradientUnits="userSpaceOnUse">
<stop stop-color="#FDFC47"/>
<stop offset="1" stop-color="#24FE41"/>
</linearGradient>
<clipPath id="clip0_9_1780">
<rect width="16" height="16.001" fill="white" transform="translate(0 0.0609131)"/>
</clipPath>
</defs>
</svg>
