<svg width="16" height="17" viewBox="0 0 16 17" fill="none" xmlns="http://www.w3.org/2000/svg">
<path fill-rule="evenodd" clip-rule="evenodd" d="M7.99015 3.08496C5.15355 3.08729 2.56505 4.09396 0.513553 5.74316C0.478868 5.76332 0.446736 5.78759 0.41785 5.81543C0.369301 5.86189 0.330615 5.91766 0.304104 5.9794C0.277592 6.04115 0.2638 6.10761 0.26355 6.17481C0.26355 6.30742 0.316228 6.43459 0.409996 6.52836C0.503765 6.62213 0.630942 6.67481 0.76355 6.67481C0.8796 6.67514 0.992152 6.63509 1.08191 6.56153C2.31891 5.55493 3.77541 4.81103 5.36901 4.41313C5.52795 4.20579 5.70429 4.00941 5.90417 3.83305C6.29858 3.48464 6.6611 3.29137 7.17957 3.18657C7.46508 3.13599 7.7592 3.08523 7.99015 3.08496ZM7.99992 3.08496C8.8517 3.08628 9.67862 3.37401 10.2811 3.94238C10.4369 4.08769 10.5744 4.25133 10.6932 4.42676C12.2626 4.82854 13.6968 5.56796 14.9178 6.56156C15.0076 6.63512 15.1201 6.67517 15.2362 6.67484C15.3688 6.67484 15.496 6.62216 15.5897 6.52839C15.6835 6.43463 15.7362 6.30745 15.7362 6.17484C15.7359 6.10764 15.7221 6.04119 15.6956 5.97944C15.6691 5.91769 15.6304 5.86192 15.5819 5.81546C15.553 5.78762 15.5209 5.76336 15.4862 5.7432C13.4323 4.0921 10.8403 3.08496 7.99992 3.08496ZM7.99992 6.08496C7.94138 6.08496 7.88434 6.09164 7.82609 6.09277C7.79182 6.12545 7.72916 6.19992 7.66398 6.3955C7.48047 6.94729 6.86669 7.22677 6.32998 7.00292L5.39639 6.6123C5.34591 6.59112 5.31057 6.55252 5.26553 6.52441C4.26043 6.85164 3.33013 7.34652 2.51163 7.98141C2.47479 8.00178 2.44066 8.02672 2.41007 8.05563C2.36093 8.10215 2.32174 8.15816 2.29489 8.22027C2.26803 8.28238 2.25406 8.34929 2.25382 8.41696C2.25382 8.54957 2.3065 8.67675 2.40026 8.77051C2.49403 8.86428 2.62121 8.91696 2.75382 8.91696C2.87078 8.9172 2.98412 8.87642 3.07413 8.80173C4.26543 7.86462 5.72163 7.25123 7.31823 7.11423C7.44449 6.97728 7.57351 6.8405 7.72643 6.70017C7.91218 6.52818 8.04086 6.39906 8.07995 6.35642L8.0819 6.35447C8.08733 6.34858 8.12641 6.30257 8.1737 6.20799C8.17626 6.20276 8.17886 6.19755 8.18151 6.19236C8.20172 6.15364 8.19714 6.15177 8.19714 6.14549C8.19714 6.06198 8.1953 6.08838 8.19128 6.09275C8.12718 6.09138 8.06437 6.08496 7.99992 6.08496ZM11.1483 6.66894C11.0949 6.91976 11.0175 7.16517 10.9003 7.39355C10.8624 7.4673 10.8243 7.52906 10.787 7.59667C11.5632 7.88979 12.2839 8.2969 12.9257 8.80177C13.0157 8.87646 13.129 8.91724 13.246 8.917C13.3786 8.917 13.5058 8.86432 13.5996 8.77055C13.6933 8.67679 13.746 8.54961 13.746 8.417C13.7458 8.34933 13.7318 8.28242 13.7049 8.22031C13.6781 8.1582 13.6389 8.10219 13.5897 8.05567C13.5592 8.02675 13.525 8.00182 13.4882 7.98145C12.7832 7.43457 11.9949 6.99164 11.1483 6.66894ZM9.49402 9.30174V9.61424C9.49367 9.84591 9.4129 10.0703 9.2655 10.249C9.27233 10.2572 9.27633 10.268 9.28308 10.2764C9.87719 10.4432 10.4312 10.7065 10.9179 11.0635C11.0097 11.1473 11.1295 11.194 11.2538 11.1943C11.53 11.1943 11.7538 10.9705 11.7538 10.6943C11.7538 10.5487 11.6962 10.4045 11.5858 10.3096C10.9691 9.84476 10.2585 9.50717 9.49402 9.30174ZM6.47452 9.30955C5.72204 9.51624 5.02232 9.85106 4.41402 10.3096C4.30368 10.4045 4.24607 10.5487 4.24605 10.6943C4.24605 10.9705 4.46991 11.1943 4.74605 11.1943C4.87041 11.194 4.99018 11.1473 5.08199 11.0635C5.55165 10.719 6.08399 10.4623 6.65429 10.2939C6.66846 10.2756 6.67477 10.2511 6.68944 10.2334C6.55032 10.057 6.47464 9.8389 6.4746 9.61425L6.47452 9.30955ZM9.21282 10.1201C9.21588 10.1231 9.21564 10.1287 9.21868 10.1318C9.22175 10.135 9.22736 10.1345 9.2304 10.1377L9.21282 10.1201ZM8.95305 12.7822C8.66317 12.9746 8.30918 13.0849 7.9843 13.0849C7.66671 13.0849 7.32585 12.9807 7.04094 12.8037C7.01395 12.895 7.00013 12.9897 6.99992 13.0849C6.99992 13.3501 7.10528 13.6045 7.29282 13.792C7.48035 13.9796 7.73471 14.0849 7.99992 14.0849C8.13124 14.0849 8.26128 14.0591 8.38261 14.0088C8.50393 13.9586 8.61417 13.8849 8.70703 13.792C8.79989 13.6992 8.87355 13.5889 8.9238 13.4676C8.97406 13.3463 8.99992 13.2163 8.99992 13.0849C8.99994 12.9822 8.98413 12.8801 8.95305 12.7822Z" fill="url(#paint0_linear_9_1908)"/>
<path opacity="0.35" d="M7.99476 4.08496C8.65239 4.08496 9.18696 4.28065 9.59886 4.6709C10.0108 5.05392 10.2161 5.54504 10.2161 6.1449C10.2161 6.40506 10.1476 6.66918 10.0103 6.93657C9.87301 7.20396 9.75153 7.39387 9.64313 7.50949C9.54196 7.61789 9.39613 7.76053 9.20823 7.93397L9.15615 7.98866C8.71532 8.38613 8.49468 8.78129 8.49468 9.17876V9.61366H7.47388V9.10324C7.47388 8.77804 7.54231 8.50116 7.67961 8.2699C7.81692 8.03142 8.05929 7.75194 8.40617 7.43396C8.60129 7.25329 8.73813 7.11964 8.81763 7.03292C8.90435 6.93897 8.98814 6.81431 9.06763 6.65532C9.15435 6.48911 9.19784 6.31834 9.19784 6.1449C9.19784 5.81247 9.08912 5.54516 8.87232 5.34281C8.66275 5.14046 8.3705 5.03811 7.99471 5.03811C7.37321 5.03811 6.94731 5.38601 6.71611 6.07981L5.78381 5.68918C5.93557 5.27726 6.19649 4.9076 6.56507 4.58238C6.94086 4.24995 7.41661 4.08496 7.99476 4.08496ZM7.98436 10.611C8.19393 10.611 8.36788 10.6826 8.50519 10.8271C8.64972 10.9717 8.72134 11.1456 8.72134 11.3479C8.72134 11.5503 8.64973 11.7242 8.50519 11.8688C8.36788 12.0133 8.19392 12.0849 7.98435 12.0849C7.77478 12.0849 7.59763 12.0133 7.45309 11.8688C7.31578 11.7242 7.24736 11.5503 7.24736 11.3479C7.24736 11.1456 7.31579 10.9716 7.45309 10.8271C7.59762 10.6826 7.77478 10.611 7.98436 10.611Z" fill="url(#paint1_linear_9_1908)"/>
<defs>
<linearGradient id="paint0_linear_9_1908" x1="0.26355" y1="8.58495" x2="15.7362" y2="8.58495" gradientUnits="userSpaceOnUse">
<stop stop-color="#FDFC47"/>
<stop offset="1" stop-color="#24FE41"/>
</linearGradient>
<linearGradient id="paint1_linear_9_1908" x1="5.78381" y1="8.08494" x2="10.2161" y2="8.08494" gradientUnits="userSpaceOnUse">
<stop stop-color="#FDFC47"/>
<stop offset="1" stop-color="#24FE41"/>
</linearGradient>
</defs>
</svg>
