<svg width="16" height="17" viewBox="0 0 16 17" fill="none" xmlns="http://www.w3.org/2000/svg">
<g clip-path="url(#clip0_9_1772)">
<path opacity="0.35" d="M13.5 0.0749512C13.223 0.0749512 13 0.297951 13 0.574951V8.07895C13.774 8.07895 14.47 8.38895 15 8.87895V0.574951C15 0.297951 14.777 0.0749512 14.5 0.0749512H13.5ZM10.5 3.07495C10.223 3.07495 10 3.29795 10 3.57495V11.079H10.014C10.0221 10.4642 10.2162 9.86635 10.5707 9.36405C10.9252 8.86176 11.4235 8.47858 12 8.26495V3.57495C12 3.29795 11.777 3.07495 11.5 3.07495H10.5ZM7.5 6.07495C7.223 6.07495 7 6.29795 7 6.57495V14.575C7 14.852 7.223 15.075 7.5 15.075H8.5C8.777 15.075 9 14.852 9 14.575V6.57495C9 6.29795 8.777 6.07495 8.5 6.07495H7.5ZM4.5 9.07495C4.223 9.07495 4 9.29795 4 9.57495V14.575C4 14.852 4.223 15.075 4.5 15.075H5.5C5.777 15.075 6 14.852 6 14.575V9.57495C6 9.29795 5.777 9.07495 5.5 9.07495H4.5ZM1.5 12.075C1.223 12.075 1 12.298 1 12.575V14.575C1 14.852 1.223 15.075 1.5 15.075H2.5C2.777 15.075 3 14.852 3 14.575V12.575C3 12.298 2.777 12.075 2.5 12.075H1.5ZM11 13.079V15.075H11.5C11.777 15.075 12 14.852 12 14.575V13.079H11ZM13 13.079V14.575C13 14.852 13.223 15.075 13.5 15.075H14.5C14.777 15.075 15 14.852 15 14.575V13.079H13Z" fill="url(#paint0_linear_9_1772)"/>
<path d="M13 9.07898C11.892 9.07898 11 9.98898 11 11.11V12.079H10V16.079H16V12.079H15V11.11C15 9.98998 14.108 9.07898 13 9.07898ZM13 10.079C13.554 10.079 14 10.521 14 11.079V12.079H12V11.079C12 10.521 12.446 10.079 13 10.079Z" fill="url(#paint1_linear_9_1772)"/>
</g>
<defs>
<linearGradient id="paint0_linear_9_1772" x1="1" y1="7.57495" x2="15" y2="7.57495" gradientUnits="userSpaceOnUse">
<stop stop-color="#FDFC47"/>
<stop offset="1" stop-color="#24FE41"/>
</linearGradient>
<linearGradient id="paint1_linear_9_1772" x1="10" y1="12.579" x2="16" y2="12.579" gradientUnits="userSpaceOnUse">
<stop stop-color="#FDFC47"/>
<stop offset="1" stop-color="#24FE41"/>
</linearGradient>
<clipPath id="clip0_9_1772">
<rect width="16" height="16.004" fill="white" transform="translate(0 0.0749512)"/>
</clipPath>
</defs>
</svg>
