<svg width="16" height="17" viewBox="0 0 16 17" fill="none" xmlns="http://www.w3.org/2000/svg">
<g clip-path="url(#clip0_9_1796)">
<path d="M7.11108 4.08301V7.63861L7.3333 9.41641H8.6666L8.88882 7.63861V4.08301H7.11108ZM7.11108 10.3052V12.083H8.88888V10.3052H7.11108Z" fill="url(#paint0_linear_9_1796)"/>
<path d="M0.115451 8.46387L3.11373 11.9161C3.30445 12.1358 3.6148 12.1371 3.80681 11.919C3.99884 11.701 3.99996 11.3463 3.80932 11.1268L1.15641 8.07203L3.82857 5.03948C4.0206 4.82145 4.02172 4.46672 3.83108 4.2472C3.64043 4.02759 3.3301 4.02631 3.13799 4.24434L0.117957 7.6717C0.0219415 7.78072 -0.0262921 7.92378 -0.0267454 8.0671C-0.0271989 8.2105 0.0202212 8.35406 0.115529 8.46382L0.115451 8.46387Z" fill="url(#paint1_linear_9_1796)"/>
<path d="M15.8845 7.70214L12.8863 4.24991C12.6956 4.03019 12.3852 4.02891 12.1932 4.24704C12.0012 4.46498 12 4.81975 12.1907 5.03925L14.8436 8.09399L12.1714 11.1265C11.9794 11.3446 11.9783 11.6993 12.1689 11.9188C12.3596 12.1384 12.6699 12.1397 12.862 11.9217L15.882 8.49432C15.9781 8.38529 16.0263 8.24224 16.0267 8.09891C16.0272 7.95552 15.9798 7.81196 15.8845 7.7022L15.8845 7.70214Z" fill="url(#paint2_linear_9_1796)"/>
</g>
<defs>
<linearGradient id="paint0_linear_9_1796" x1="7.11108" y1="4.08301" x2="11.7333" y2="6.39416" gradientUnits="userSpaceOnUse">
<stop stop-color="#FF0500"/>
<stop offset="1" stop-color="#FD3632"/>
</linearGradient>
<linearGradient id="paint1_linear_9_1796" x1="3.96245" y1="8.08372" x2="-0.0267581" y2="8.0711" gradientUnits="userSpaceOnUse">
<stop stop-color="#FDFC47"/>
<stop offset="1" stop-color="#24FE41"/>
</linearGradient>
<linearGradient id="paint2_linear_9_1796" x1="12.0376" y1="8.08229" x2="16.0268" y2="8.09491" gradientUnits="userSpaceOnUse">
<stop stop-color="#FDFC47"/>
<stop offset="1" stop-color="#24FE41"/>
</linearGradient>
<clipPath id="clip0_9_1796">
<rect width="16" height="16" fill="white" transform="translate(0 0.0830078)"/>
</clipPath>
</defs>
</svg>
