<svg width="16" height="17" viewBox="0 0 16 17" fill="none" xmlns="http://www.w3.org/2000/svg">
<g clip-path="url(#clip0_9_1920)">
<path d="M4.66667 7.41821C4.11439 7.41821 4 7.71669 4 8.08488C4 8.45307 4.11438 8.75155 4.66667 8.75155C4.70192 8.75135 4.73712 8.74988 4.77214 8.74722C4.79809 8.74816 4.82257 8.75155 4.84896 8.75155H11.1511C11.1766 8.75155 11.2002 8.74809 11.2253 8.74722C11.2612 8.74996 11.2972 8.75142 11.3334 8.75155C11.8856 8.75155 12 8.45307 12 8.08488C12 7.71669 11.8856 7.41821 11.3334 7.41821C11.2981 7.41842 11.2629 7.41988 11.2279 7.42254C11.2019 7.4216 11.1775 7.41821 11.1511 7.41821H4.84896C4.82346 7.41821 4.79984 7.42167 4.77474 7.42254C4.73886 7.41979 4.70278 7.41835 4.66667 7.41821Z" fill="url(#paint0_linear_9_1920)"/>
<path d="M0.115451 8.46583L3.11373 11.9181C3.30445 12.1378 3.6148 12.1391 3.80681 11.9209C3.99884 11.703 3.99996 11.3482 3.80932 11.1287L1.15641 8.07398L3.82857 5.04143C4.0206 4.8234 4.02172 4.46868 3.83108 4.24915C3.64043 4.02954 3.3301 4.02826 3.13799 4.24629L0.117957 7.67365C0.0219415 7.78268 -0.0262921 7.92573 -0.0267454 8.06906C-0.0271989 8.21245 0.0202212 8.35601 0.115529 8.46577L0.115451 8.46583Z" fill="url(#paint1_linear_9_1920)"/>
<path d="M15.8845 7.7041L12.8863 4.25186C12.6956 4.03214 12.3852 4.03086 12.1932 4.24899C12.0012 4.46694 12 4.8217 12.1907 5.0412L14.8436 8.09594L12.1714 11.1285C11.9794 11.3465 11.9783 11.7012 12.1689 11.9208C12.3596 12.1404 12.6699 12.1417 12.862 11.9236L15.882 8.49627C15.9781 8.38725 16.0263 8.24419 16.0267 8.10086C16.0272 7.95747 15.9798 7.81391 15.8845 7.70415L15.8845 7.7041Z" fill="url(#paint2_linear_9_1920)"/>
</g>
<defs>
<linearGradient id="paint0_linear_9_1920" x1="4" y1="8.08488" x2="12" y2="8.08488" gradientUnits="userSpaceOnUse">
<stop stop-color="#FDFC47"/>
<stop offset="1" stop-color="#24FE41"/>
</linearGradient>
<linearGradient id="paint1_linear_9_1920" x1="3.96245" y1="8.08567" x2="-0.0267581" y2="8.07306" gradientUnits="userSpaceOnUse">
<stop stop-color="#FDFC47"/>
<stop offset="1" stop-color="#24FE41"/>
</linearGradient>
<linearGradient id="paint2_linear_9_1920" x1="12.0376" y1="8.08425" x2="16.0268" y2="8.09686" gradientUnits="userSpaceOnUse">
<stop stop-color="#FDFC47"/>
<stop offset="1" stop-color="#24FE41"/>
</linearGradient>
<clipPath id="clip0_9_1920">
<rect width="16" height="16" fill="white" transform="translate(0 0.0849609)"/>
</clipPath>
</defs>
</svg>
