<svg width="16" height="17" viewBox="0 0 16 17" fill="none" xmlns="http://www.w3.org/2000/svg">
<g clip-path="url(#clip0_9_1932)">
<g opacity="0.35">
<path fill-rule="evenodd" clip-rule="evenodd" d="M7.99997 3.08496C5.15947 3.08496 2.56757 4.09206 0.513675 5.74316C0.47899 5.76332 0.446858 5.78759 0.417972 5.81543C0.369423 5.86189 0.330737 5.91766 0.304226 5.9794C0.277714 6.04115 0.263922 6.10761 0.263672 6.17481C0.263672 6.30742 0.31635 6.43459 0.410118 6.52836C0.503887 6.62213 0.631064 6.67481 0.763672 6.67481C0.879722 6.67514 0.992274 6.63509 1.08203 6.56153C2.97303 5.02273 5.37183 4.08493 8.00003 4.08493C10.6282 4.08493 13.0269 5.02269 14.918 6.56153C15.0078 6.63509 15.1203 6.67514 15.2364 6.67481C15.369 6.67481 15.4962 6.62213 15.5899 6.52836C15.6837 6.43459 15.7364 6.30742 15.7364 6.17481C15.7361 6.10761 15.7224 6.04115 15.6958 5.9794C15.6693 5.91766 15.6306 5.86189 15.5821 5.81543C15.5532 5.78759 15.5211 5.76332 15.4864 5.74316C13.4325 4.09206 10.8404 3.08496 7.99997 3.08496Z" fill="url(#paint0_linear_9_1932)"/>
<path d="M7.99996 9.08497C6.64746 9.08497 5.41676 9.55388 4.41406 10.3096C4.30372 10.4045 4.24611 10.5488 4.24609 10.6943C4.24609 10.9705 4.46995 11.1943 4.74609 11.1943C4.87045 11.194 4.99022 11.1474 5.08203 11.0635C5.90418 10.4604 6.90193 10.085 8.00003 10.085C8.92549 10.085 9.77193 10.3627 10.5098 10.8076C10.6535 10.4979 10.8385 10.2163 11.0606 9.97168C10.1634 9.42462 9.12836 9.08497 7.99996 9.08497Z" fill="url(#paint1_linear_9_1932)"/>
<path fill-rule="evenodd" clip-rule="evenodd" d="M8.00002 6.08496C5.92692 6.08496 4.03192 6.80222 2.51172 7.98146C2.47487 8.00183 2.44075 8.02676 2.41016 8.05568C2.36102 8.1022 2.32183 8.15821 2.29497 8.22032C2.26812 8.28243 2.25415 8.34934 2.25391 8.41701C2.25391 8.54962 2.30658 8.67679 2.40035 8.77056C2.49412 8.86433 2.6213 8.91701 2.75391 8.91701C2.87087 8.91725 2.98421 8.87647 3.07422 8.80178C4.43302 7.73298 6.13692 7.08498 8.00002 7.08498C9.86312 7.08498 11.567 7.73294 12.9258 8.80178C13.0158 8.87647 13.1292 8.91725 13.2461 8.91701C13.3787 8.91701 13.5059 8.86433 13.5997 8.77056C13.6934 8.67679 13.7461 8.54962 13.7461 8.41701C13.7459 8.34934 13.7319 8.28243 13.7051 8.22032C13.6782 8.15821 13.639 8.1022 13.5899 8.05568C13.5593 8.02676 13.5252 8.00183 13.4883 7.98146C11.9681 6.80226 10.0731 6.08496 8.00002 6.08496Z" fill="url(#paint2_linear_9_1932)"/>
<path d="M8 14.085C8.55228 14.085 9 13.6372 9 13.085C9 12.5327 8.55228 12.085 8 12.085C7.44772 12.085 7 12.5327 7 13.085C7 13.6372 7.44772 14.085 8 14.085Z" fill="url(#paint3_linear_9_1932)"/>
</g>
<path opacity="0.35" fill-rule="evenodd" clip-rule="evenodd" d="M13 10.085C11.892 10.085 11 10.977 11 12.085C10.446 12.085 10 12.531 10 13.085V15.085C10 15.639 10.446 16.085 11 16.085H15C15.554 16.085 16 15.639 16 15.085V13.085C16 12.531 15.554 12.085 15 12.085C15 10.977 14.108 10.085 13 10.085ZM13 11.085C13.554 11.085 14 11.531 14 12.085H12C12 11.531 12.446 11.085 13 11.085Z" fill="url(#paint4_linear_9_1932)"/>
</g>
<defs>
<linearGradient id="paint0_linear_9_1932" x1="0.263672" y1="4.87988" x2="15.7364" y2="4.87988" gradientUnits="userSpaceOnUse">
<stop stop-color="#FDFC47"/>
<stop offset="1" stop-color="#24FE41"/>
</linearGradient>
<linearGradient id="paint1_linear_9_1932" x1="4.24609" y1="10.1397" x2="11.0606" y2="10.1397" gradientUnits="userSpaceOnUse">
<stop stop-color="#FDFC47"/>
<stop offset="1" stop-color="#24FE41"/>
</linearGradient>
<linearGradient id="paint2_linear_9_1932" x1="2.25391" y1="7.50099" x2="13.7461" y2="7.50099" gradientUnits="userSpaceOnUse">
<stop stop-color="#FDFC47"/>
<stop offset="1" stop-color="#24FE41"/>
</linearGradient>
<linearGradient id="paint3_linear_9_1932" x1="7" y1="13.085" x2="9" y2="13.085" gradientUnits="userSpaceOnUse">
<stop stop-color="#FDFC47"/>
<stop offset="1" stop-color="#24FE41"/>
</linearGradient>
<linearGradient id="paint4_linear_9_1932" x1="10" y1="13.085" x2="16" y2="13.085" gradientUnits="userSpaceOnUse">
<stop stop-color="#FDFC47"/>
<stop offset="1" stop-color="#24FE41"/>
</linearGradient>
<clipPath id="clip0_9_1932">
<rect width="16" height="16" fill="white" transform="translate(0 0.0849609)"/>
</clipPath>
</defs>
</svg>
