<svg width="16" height="17" viewBox="0 0 16 17" fill="none" xmlns="http://www.w3.org/2000/svg">
<g clip-path="url(#clip0_9_2031)">
<path d="M16 3.08691V13.0829C16 14.7408 14.6569 16.085 13 16.085H3C1.34315 16.085 0 14.7408 0 13.0829V3.08691C0 1.42896 1.34315 0.0849609 3 0.0849609H13C14.6569 0.0849609 16 1.42896 16 3.08691Z" fill="url(#paint0_linear_9_2031)"/>
<path d="M14.998 3.08493V13.0809C14.998 14.1855 14.1035 15.0809 13 15.0809H3.00005C1.89658 15.0809 1.00205 14.1855 1.00205 13.0809V3.08493C1.00205 1.98036 1.89658 1.08493 3.00005 1.08493H13C14.1035 1.08493 14.998 1.98036 14.998 3.08493Z" fill="#232323"/>
</g>
<defs>
<linearGradient id="paint0_linear_9_2031" x1="8" y1="16.085" x2="8" y2="0.0849609" gradientUnits="userSpaceOnUse">
<stop stop-color="#FDFC47"/>
<stop offset="1" stop-color="#24FE41"/>
</linearGradient>
<clipPath id="clip0_9_2031">
<rect width="16" height="16" fill="white" transform="translate(0 0.0849609)"/>
</clipPath>
</defs>
</svg>
