<svg width="16" height="17" viewBox="0 0 16 17" fill="none" xmlns="http://www.w3.org/2000/svg">
<g clip-path="url(#clip0_9_2027)">
<path d="M13 0.0849609H3C1.34315 0.0849609 0 1.42811 0 3.08496V13.085C0 14.7418 1.34315 16.085 3 16.085H13C14.6569 16.085 16 14.7418 16 13.085V3.08496C16 1.42811 14.6569 0.0849609 13 0.0849609Z" fill="url(#paint0_linear_9_2027)"/>
<path d="M12.375 1.08496H3.625C2.17525 1.08496 1 2.26021 1 3.70996V12.46C1 13.9097 2.17525 15.085 3.625 15.085H12.375C13.8247 15.085 15 13.9097 15 12.46V3.70996C15 2.26021 13.8247 1.08496 12.375 1.08496Z" fill="#232323"/>
<path d="M7 3.08496H9V10.085H7V3.08496ZM7 11.085H9V13.085H7V11.085Z" fill="url(#paint1_linear_9_2027)"/>
</g>
<defs>
<linearGradient id="paint0_linear_9_2027" x1="0" y1="8.08496" x2="16" y2="8.08496" gradientUnits="userSpaceOnUse">
<stop stop-color="#FDFC47"/>
<stop offset="1" stop-color="#24FE41"/>
</linearGradient>
<linearGradient id="paint1_linear_9_2027" x1="7" y1="8.08496" x2="9" y2="8.08496" gradientUnits="userSpaceOnUse">
<stop stop-color="#FDFC47"/>
<stop offset="1" stop-color="#24FE41"/>
</linearGradient>
<clipPath id="clip0_9_2027">
<rect width="16" height="16" fill="white" transform="translate(0 0.0849609)"/>
</clipPath>
</defs>
</svg>
