<svg width="16" height="17" viewBox="0 0 16 17" fill="none" xmlns="http://www.w3.org/2000/svg">
<g clip-path="url(#clip0_9_2047)">
<path d="M16 3.08691V13.0829C16 14.7408 14.6569 16.085 13 16.085H3C1.34315 16.085 0 14.7408 0 13.0829V3.08691C0 1.42896 1.34315 0.0849609 3 0.0849609H13C14.6569 0.0849609 16 1.42896 16 3.08691Z" fill="url(#paint0_linear_9_2047)"/>
<path d="M15 3.08691V13.0829C15 14.1886 14.1046 15.085 13 15.085H3C1.89543 15.085 1 14.1886 1 13.0829V3.08691C1 1.98124 1.89543 1.08496 3 1.08496H13C14.1046 1.08496 15 1.98124 15 3.08691Z" fill="#232323"/>
<path d="M3.05005 4.48499L6.58605 8.0199L3.05005 11.5559L4.46405 12.97L8.00005 9.43396L11.536 12.97L12.95 11.5559L9.41405 8.0199L12.95 4.48499L11.536 3.06995L8.00005 6.60596L4.46405 3.07092L3.05005 4.48499Z" fill="url(#paint1_linear_9_2047)"/>
</g>
<defs>
<linearGradient id="paint0_linear_9_2047" x1="8" y1="16.085" x2="8" y2="0.0849609" gradientUnits="userSpaceOnUse">
<stop stop-color="#FDFC47"/>
<stop offset="1" stop-color="#24FE41"/>
</linearGradient>
<linearGradient id="paint1_linear_9_2047" x1="3.05005" y1="8.01996" x2="12.95" y2="8.01996" gradientUnits="userSpaceOnUse">
<stop stop-color="#FDFC47"/>
<stop offset="1" stop-color="#24FE41"/>
</linearGradient>
<clipPath id="clip0_9_2047">
<rect width="16" height="16" fill="white" transform="translate(0 0.0849609)"/>
</clipPath>
</defs>
</svg>
