<svg width="16" height="17" viewBox="0 0 16 17" fill="none" xmlns="http://www.w3.org/2000/svg">
<g clip-path="url(#clip0_9_2148)">
<path d="M13 4.08496C14.1046 4.08496 15 3.18953 15 2.08496C15 0.980391 14.1046 0.0849609 13 0.0849609C11.8954 0.0849609 11 0.980391 11 2.08496C11 3.18953 11.8954 4.08496 13 4.08496Z" fill="url(#paint0_linear_9_2148)"/>
<path d="M5.5 0.0849609C5.10218 0.0849609 4.72064 0.242996 4.43934 0.524301C4.15804 0.805605 4 1.18714 4 1.58496C4 1.98279 4.15804 2.36432 4.43934 2.64562C4.72064 2.92693 5.10218 3.08496 5.5 3.08496H7V1.58496C7 1.18714 6.84196 0.805605 6.56066 0.524301C6.27936 0.242996 5.89782 0.0849609 5.5 0.0849609ZM9.5 0.0849609C9.10218 0.0849609 8.72064 0.242996 8.43934 0.524301C8.15804 0.805605 8 1.18714 8 1.58496V5.58496C8 5.98279 8.15804 6.36432 8.43934 6.64562C8.72064 6.92693 9.10218 7.08496 9.5 7.08496C9.89782 7.08496 10.2794 6.92693 10.5607 6.64562C10.842 6.36432 11 5.98279 11 5.58496V4.31736C10.6859 4.03638 10.4344 3.69236 10.2621 3.30771C10.0898 2.92307 10.0005 2.50643 10 2.08496C10.001 1.50669 10.169 0.941026 10.484 0.456051C10.2115 0.21766 9.86203 0.0858566 9.5 0.0849609ZM1.5 4.08496C1.10218 4.08496 0.720644 4.243 0.43934 4.5243C0.158035 4.80561 0 5.18714 0 5.58496C0 5.98279 0.158035 6.36432 0.43934 6.64562C0.720644 6.92693 1.10218 7.08496 1.5 7.08496H5.5C5.89782 7.08496 6.27936 6.92693 6.56066 6.64562C6.84196 6.36432 7 5.98279 7 5.58496C7 5.18714 6.84196 4.80561 6.56066 4.5243C6.27936 4.243 5.89782 4.08496 5.5 4.08496H1.5ZM14.631 4.60056C14.1455 4.91604 13.579 5.08427 13 5.08496C12.709 5.08451 12.4197 5.04173 12.141 4.95796C12.0493 5.15432 12.0012 5.36823 12 5.58496V7.08496H13.5C13.8978 7.08496 14.2794 6.92693 14.5607 6.64562C14.842 6.36432 15 5.98279 15 5.58496C14.9998 5.22306 14.8687 4.87344 14.631 4.60056ZM1.5 8.08496C1.10218 8.08496 0.720644 8.243 0.43934 8.5243C0.158035 8.80561 0 9.18714 0 9.58496C0 9.98279 0.158035 10.3643 0.43934 10.6456C0.720644 10.9269 1.10218 11.085 1.5 11.085C1.89782 11.085 2.27936 10.9269 2.56066 10.6456C2.84196 10.3643 3 9.98279 3 9.58496V8.08496H1.5ZM5.5 8.08496C5.10218 8.08496 4.72064 8.243 4.43934 8.5243C4.15804 8.80561 4 9.18714 4 9.58496V13.585C4 13.9828 4.15804 14.3643 4.43934 14.6456C4.72064 14.9269 5.10218 15.085 5.5 15.085C5.89782 15.085 6.27936 14.9269 6.56066 14.6456C6.84196 14.3643 7 13.9828 7 13.585V9.58496C7 9.18714 6.84196 8.80561 6.56066 8.5243C6.27936 8.243 5.89782 8.08496 5.5 8.08496ZM9.5 8.08496C9.10218 8.08496 8.72064 8.243 8.43934 8.5243C8.15804 8.80561 8 9.18714 8 9.58496C8 9.98279 8.15804 10.3643 8.43934 10.6456C8.72064 10.9269 9.10218 11.085 9.5 11.085H13.5C13.8978 11.085 14.2794 10.9269 14.5607 10.6456C14.842 10.3643 15 9.98279 15 9.58496C15 9.18714 14.842 8.80561 14.5607 8.5243C14.2794 8.243 13.8978 8.08496 13.5 8.08496H9.5ZM8 12.085V13.585C8 13.9828 8.15804 14.3643 8.43934 14.6456C8.72064 14.9269 9.10218 15.085 9.5 15.085C9.89782 15.085 10.2794 14.9269 10.5607 14.6456C10.842 14.3643 11 13.9828 11 13.585C11 13.1871 10.842 12.8056 10.5607 12.5243C10.2794 12.243 9.89782 12.085 9.5 12.085H8Z" fill="url(#paint1_linear_9_2148)"/>
</g>
<defs>
<linearGradient id="paint0_linear_9_2148" x1="11" y1="2.08496" x2="15" y2="2.08496" gradientUnits="userSpaceOnUse">
<stop stop-color="#FDFC47"/>
<stop offset="1" stop-color="#24FE41"/>
</linearGradient>
<linearGradient id="paint1_linear_9_2148" x1="0" y1="7.58496" x2="15" y2="7.58496" gradientUnits="userSpaceOnUse">
<stop stop-color="#FDFC47"/>
<stop offset="1" stop-color="#24FE41"/>
</linearGradient>
<clipPath id="clip0_9_2148">
<rect width="16" height="16" fill="white" transform="translate(0 0.0849609)"/>
</clipPath>
</defs>
</svg>
