<svg width="16" height="17" viewBox="0 0 16 17" fill="none" xmlns="http://www.w3.org/2000/svg">
<g clip-path="url(#clip0_9_2159)">
<path d="M15.375 1.34399C15.2298 1.32983 15.0669 1.35461 14.9076 1.43252L0.74658 6.92482C-0.22369 7.31434 -0.21306 7.85967 0.57307 8.09692L4.20627 9.24072L12.62 3.90072C13.0201 3.65638 13.3778 3.7874 13.0839 4.05653L6.26726 10.2428L6.0725 11.854L5.08453 8.68823L4.20987 9.24418C4.63834 10.604 5.0562 11.9638 5.49177 13.3236C5.62633 13.6883 5.9769 13.7875 6.28498 13.7945C6.74887 13.8087 7.52788 13.1607 7.52788 13.1607L8.77788 12.1054L12.1986 14.6479C12.8749 15.0233 13.3636 14.8285 13.5336 14.014L15.9451 2.58303C16.1292 1.8394 15.8247 1.39673 15.3891 1.34723M7.20203 10.933L7.95983 11.4925L7.03914 12.2716L7.19849 10.9331" fill="url(#paint0_linear_9_2159)"/>
</g>
<defs>
<linearGradient id="paint0_linear_9_2159" x1="-0.000244141" y1="8.08586" x2="15.9998" y2="8.08586" gradientUnits="userSpaceOnUse">
<stop stop-color="#FDFC47"/>
<stop offset="1" stop-color="#24FE41"/>
</linearGradient>
<clipPath id="clip0_9_2159">
<rect width="16" height="16" fill="white" transform="translate(0 0.0859375)"/>
</clipPath>
</defs>
</svg>
