<svg width="16" height="17" viewBox="0 0 16 17" fill="none" xmlns="http://www.w3.org/2000/svg">
<path d="M6.625 1.08594C6.625 1.08594 4.298 1.10294 4 3.71094V10.0859H2V4.08594H1V9.83594C1 11.5859 2.75 11.0859 2.75 11.0859H4V12.4609C4 15.0859 6.625 15.0859 6.625 15.0859H11.375C14 15.0859 14 12.4609 14 12.4609V7.08594H11V9.08594H12L9 13.0859L6 9.08594H7V4.08594H11V5.08594H14V3.71094C14 3.71094 14 1.08594 11.375 1.08594H6.625Z" fill="url(#paint0_linear_9_2161)"/>
<defs>
<linearGradient id="paint0_linear_9_2161" x1="1" y1="8.08594" x2="14" y2="8.08594" gradientUnits="userSpaceOnUse">
<stop stop-color="#FDFC47"/>
<stop offset="1" stop-color="#24FE41"/>
</linearGradient>
</defs>
</svg>
