<svg width="16" height="17" viewBox="0 0 16 17" fill="none" xmlns="http://www.w3.org/2000/svg">
<path opacity="0.5" d="M8 2.08594C6.1636 2.08594 4.6333 3.28774 4.0625 4.92974C2.3394 5.1481 1 6.60424 1 8.38674C1 9.00718 1.17582 9.58064 1.45898 10.0859H14.807C14.9266 9.77443 15.0003 9.43956 15.0003 9.08594C15.0003 7.53954 13.7459 6.28514 12.1995 6.28514C12.1995 3.96564 10.3195 2.08594 8 2.08594Z" fill="url(#paint0_linear_9_2192)"/>
<path opacity="0.5" d="M1.58334 11.0859H7.41664C7.49325 11.0859 7.5691 11.0989 7.63987 11.124C7.71065 11.1491 7.77495 11.186 7.82912 11.2324C7.88329 11.2788 7.92626 11.3339 7.95558 11.3946C7.98489 11.4553 7.99998 11.5203 7.99998 11.5859C7.99998 11.6516 7.98489 11.7166 7.95558 11.7773C7.92626 11.8379 7.88329 11.8931 7.82912 11.9395C7.77495 11.9859 7.71065 12.0228 7.63987 12.0479C7.5691 12.073 7.49325 12.0859 7.41664 12.0859H1.58334C1.50674 12.0859 1.43088 12.073 1.36011 12.0479C1.28933 12.0228 1.22503 11.9859 1.17086 11.9395C1.11669 11.8931 1.07372 11.8379 1.0444 11.7773C1.01509 11.7166 1 11.6516 1 11.5859C1 11.5203 1.01509 11.4553 1.0444 11.3946C1.07372 11.3339 1.11669 11.2788 1.17086 11.2324C1.22503 11.186 1.28933 11.1491 1.36011 11.124C1.43088 11.0989 1.50674 11.0859 1.58334 11.0859Z" fill="url(#paint1_linear_9_2192)"/>
<path opacity="0.5" d="M10.5711 11.0859H13.4282C13.5032 11.0859 13.5775 11.0989 13.6468 11.124C13.7162 11.1491 13.7792 11.186 13.8322 11.2324C13.8853 11.2788 13.9274 11.3339 13.9561 11.3946C13.9848 11.4553 13.9996 11.5203 13.9996 11.5859C13.9996 11.6516 13.9848 11.7166 13.9561 11.7773C13.9274 11.8379 13.8853 11.8931 13.8322 11.9395C13.7792 11.9859 13.7162 12.0228 13.6468 12.0479C13.5775 12.073 13.5032 12.0859 13.4282 12.0859H10.5711C10.496 12.0859 10.4217 12.073 10.3524 12.0479C10.2831 12.0228 10.2201 11.9859 10.167 11.9395C10.1139 11.8931 10.0718 11.8379 10.0431 11.7773C10.0144 11.7166 9.99963 11.6516 9.99963 11.5859C9.99963 11.5203 10.0144 11.4553 10.0431 11.3946C10.0718 11.3339 10.1139 11.2788 10.167 11.2324C10.2201 11.186 10.2831 11.1491 10.3524 11.124C10.4217 11.0989 10.496 11.0859 10.5711 11.0859Z" fill="url(#paint2_linear_9_2192)"/>
<path opacity="0.5" d="M2.49012 13.0859H3.49672C3.6302 13.0859 3.75821 13.1386 3.8526 13.2324C3.94698 13.3262 4.00001 13.4533 4.00001 13.5859C4.00001 13.7185 3.94698 13.8457 3.8526 13.9395C3.75821 14.0333 3.6302 14.0859 3.49672 14.0859H2.49012C2.42402 14.0859 2.35858 14.073 2.29751 14.0479C2.23645 14.0228 2.18097 13.9859 2.13423 13.9395C2.08749 13.8931 2.05042 13.8379 2.02513 13.7773C1.99983 13.7166 1.98682 13.6516 1.98682 13.5859C1.98682 13.5203 1.99983 13.4553 2.02513 13.3946C2.05042 13.3339 2.08749 13.2788 2.13423 13.2324C2.18097 13.186 2.23645 13.1491 2.29751 13.124C2.35858 13.0989 2.42402 13.0859 2.49012 13.0859Z" fill="url(#paint3_linear_9_2192)"/>
<path opacity="0.5" d="M5.6 13.0859H13.4C13.4788 13.0859 13.5568 13.0989 13.6296 13.124C13.7024 13.1491 13.7686 13.186 13.8243 13.2324C13.88 13.2788 13.9242 13.3339 13.9543 13.3946C13.9845 13.4553 14 13.5203 14 13.5859C14 13.6516 13.9845 13.7166 13.9543 13.7773C13.9242 13.8379 13.88 13.8931 13.8243 13.9395C13.7686 13.9859 13.7024 14.0228 13.6296 14.0479C13.5568 14.073 13.4788 14.0859 13.4 14.0859H5.6C5.44087 14.0859 5.28826 14.0333 5.17574 13.9395C5.06321 13.8457 5 13.7185 5 13.5859C5 13.4533 5.06321 13.3262 5.17574 13.2324C5.28826 13.1386 5.44087 13.0859 5.6 13.0859Z" fill="url(#paint4_linear_9_2192)"/>
<defs>
<linearGradient id="paint0_linear_9_2192" x1="1" y1="6.08594" x2="15.0003" y2="6.08594" gradientUnits="userSpaceOnUse">
<stop stop-color="#FDFC47"/>
<stop offset="1" stop-color="#24FE41"/>
</linearGradient>
<linearGradient id="paint1_linear_9_2192" x1="1" y1="11.5859" x2="7.99998" y2="11.5859" gradientUnits="userSpaceOnUse">
<stop stop-color="#FDFC47"/>
<stop offset="1" stop-color="#24FE41"/>
</linearGradient>
<linearGradient id="paint2_linear_9_2192" x1="9.99963" y1="11.5859" x2="13.9996" y2="11.5859" gradientUnits="userSpaceOnUse">
<stop stop-color="#FDFC47"/>
<stop offset="1" stop-color="#24FE41"/>
</linearGradient>
<linearGradient id="paint3_linear_9_2192" x1="1.98682" y1="13.5859" x2="4.00001" y2="13.5859" gradientUnits="userSpaceOnUse">
<stop stop-color="#FDFC47"/>
<stop offset="1" stop-color="#24FE41"/>
</linearGradient>
<linearGradient id="paint4_linear_9_2192" x1="5" y1="13.5859" x2="14" y2="13.5859" gradientUnits="userSpaceOnUse">
<stop stop-color="#FDFC47"/>
<stop offset="1" stop-color="#24FE41"/>
</linearGradient>
</defs>
</svg>
