<svg width="16" height="17" viewBox="0 0 16 17" fill="none" xmlns="http://www.w3.org/2000/svg">
<path d="M8 1.08594C6.1637 1.08594 4.6332 2.28784 4.0625 3.92964C2.3393 4.14799 1 5.60394 1 7.38634C1 9.01994 2.123 10.3818 3.6364 10.7678C3.70231 9.70576 4.15304 8.70411 4.90423 7.9504C5.65541 7.19669 6.65555 6.7426 7.7174 6.67314C8.87529 6.59821 10.0155 6.98631 10.8873 7.75208C11.759 8.51784 12.2909 9.59854 12.3658 10.7564C12.3671 10.7944 12.3678 10.8324 12.3681 10.8704C13.8346 10.7817 15 9.57468 15 8.08588C15 6.53948 13.746 5.28778 12.1995 5.28778C12.1995 2.96818 10.3195 1.08594 8 1.08594Z" fill="url(#paint0_linear_9_2211)"/>
<path d="M11.488 10.9263C11.3636 8.9973 9.69898 7.5344 7.77 7.65881C5.84102 7.78321 4.37813 9.4478 4.50253 11.3768C4.62693 13.3058 6.29153 14.7687 8.22051 14.6443C10.1495 14.5199 11.6124 12.8553 11.488 10.9263Z" fill="url(#paint1_linear_9_2211)"/>
<path d="M7.99422 9.0863C7.8185 9.0863 7.67749 9.22735 7.67749 9.40305V11.6327C7.67749 11.8085 7.8185 11.9494 7.99422 11.9494H7.99655C8.17227 11.9494 8.31328 11.8085 8.31328 11.6327V9.40305C8.31328 9.22735 8.17227 9.0863 7.99655 9.0863H7.99422ZM7.9954 12.5863C7.81912 12.5863 7.67753 12.7279 7.67753 12.9042C7.67753 13.0804 7.81912 13.2221 7.9954 13.2221C8.17167 13.2221 8.31326 13.0804 8.31326 12.9042C8.31326 12.7279 8.17167 12.5863 7.9954 12.5863Z" fill="url(#paint2_linear_9_2211)"/>
<defs>
<linearGradient id="paint0_linear_9_2211" x1="1" y1="5.97816" x2="15" y2="5.97816" gradientUnits="userSpaceOnUse">
<stop stop-color="#FDFC47"/>
<stop offset="1" stop-color="#24FE41"/>
</linearGradient>
<linearGradient id="paint1_linear_9_2211" x1="8.22051" y1="14.6443" x2="7.77" y2="7.65881" gradientUnits="userSpaceOnUse">
<stop stop-color="#FDFC47"/>
<stop offset="1" stop-color="#24FE41"/>
</linearGradient>
<linearGradient id="paint2_linear_9_2211" x1="7.67749" y1="11.1542" x2="8.31328" y2="11.1542" gradientUnits="userSpaceOnUse">
<stop stop-color="#FDFC47"/>
<stop offset="1" stop-color="#24FE41"/>
</linearGradient>
</defs>
</svg>
