<svg width="16" height="17" viewBox="0 0 16 17" fill="none" xmlns="http://www.w3.org/2000/svg">
<path d="M8 2.08594C6.1636 2.08594 4.6333 3.28774 4.0625 4.92974C2.3394 5.1481 1 6.60424 1 8.38674C1 10.1665 2.3334 11.62 4.0527 11.8418L4.55661 9.93564V9.93368C4.71731 9.31673 5.24532 8.87758 5.83981 8.79498C6.04287 8.76679 6.25087 8.78022 6.44723 8.83209C6.73514 8.90814 6.91603 9.13436 7.10739 9.3399C7.35212 9.0614 7.65608 8.84571 8.02145 8.79498C8.22451 8.76679 8.43251 8.78022 8.62887 8.83209C8.91678 8.90814 9.09767 9.13436 9.28903 9.3399C9.53376 9.0614 9.83772 8.84571 10.2031 8.79498C10.4061 8.76679 10.6141 8.78022 10.8105 8.83209C11.6262 9.04754 12.1237 9.90269 11.9082 10.7188V10.7207L11.5938 11.8867H12.1992C13.7456 11.8867 15 10.6323 15 9.08595C15 7.53955 13.7456 6.28515 12.1992 6.28515C12.1992 3.96565 10.3195 2.08594 8 2.08594Z" fill="url(#paint0_linear_9_2222)"/>
<path d="M5.97659 9.78509C5.76668 9.81424 5.58269 9.96457 5.52542 10.1855L4.82815 12.8203C4.74087 13.1094 4.9086 13.4099 5.20315 13.4863C5.49224 13.5627 5.7928 13.3922 5.86917 13.0976L6.57815 10.4628C6.65452 10.1737 6.48052 9.87513 6.19143 9.79877C6.11915 9.77968 6.04656 9.77538 5.97659 9.78509ZM8.15819 9.78509C7.94828 9.81424 7.76429 9.96457 7.70702 10.1855L6.57222 14.3964C6.49585 14.6909 6.6718 14.979 6.96089 15.0663C7.25544 15.1427 7.55445 14.9796 7.63081 14.6796L8.75971 10.4628C8.83608 10.1737 8.66208 9.87508 8.37299 9.79872C8.30071 9.77963 8.22816 9.77538 8.15819 9.78509ZM10.3398 9.78509C10.1299 9.81424 9.94589 9.96457 9.88862 10.1855L9.19135 12.8203C9.10407 13.1094 9.27375 13.4099 9.5683 13.4863C9.85739 13.5627 10.156 13.3922 10.2324 13.0976L10.9413 10.4628C11.0177 10.1737 10.8437 9.87513 10.5546 9.79877C10.4823 9.77968 10.4098 9.77538 10.3398 9.78509Z" fill="url(#paint1_linear_9_2222)"/>
<defs>
<linearGradient id="paint0_linear_9_2222" x1="1" y1="6.98634" x2="15" y2="6.98634" gradientUnits="userSpaceOnUse">
<stop stop-color="#FDFC47"/>
<stop offset="1" stop-color="#24FE41"/>
</linearGradient>
<linearGradient id="paint1_linear_9_2222" x1="4.80505" y1="12.4325" x2="10.9593" y2="12.4325" gradientUnits="userSpaceOnUse">
<stop stop-color="#FDFC47"/>
<stop offset="1" stop-color="#24FE41"/>
</linearGradient>
</defs>
</svg>
