<svg width="16" height="17" viewBox="0 0 16 17" fill="none" xmlns="http://www.w3.org/2000/svg">
<path d="M8 3.18555C6.1637 3.18555 4.6332 4.38755 4.0625 6.02935C2.3393 6.2477 1 7.70375 1 9.48635C1 11.4192 2.5671 12.9863 4.5 12.9863H6.3438V12.6524C6.3438 12.2073 6.39255 11.8009 6.59185 11.3907C6.79801 10.9394 7.10444 10.6268 7.49615 10.2911C7.78403 10.0443 7.92243 9.85822 7.91217 9.88287C7.92075 9.86187 7.93308 9.78418 7.93951 9.6817C7.92205 9.68117 7.92702 9.6817 7.89069 9.6817C7.74851 9.6817 7.41361 9.74958 6.9571 9.95709L6.03913 10.3731L4.94343 7.90831L5.81843 7.48839C6.51955 7.15185 7.20483 6.95323 7.89073 6.95323C8.63906 6.95323 9.37493 7.19225 9.90633 7.70323C10.4452 8.18323 10.7501 8.91043 10.7501 9.62903C10.7501 10.0882 10.666 10.5414 10.461 10.9513C10.2367 11.3999 9.91036 11.735 9.48446 12.1095C9.17845 12.3951 9.02853 12.5739 9.00204 12.5998C9.00526 12.5989 9.00008 12.5965 9.00008 12.7267V12.9865H12.1993C13.7457 12.9865 15.0001 11.7321 15.0001 10.1857C15.0001 8.63928 13.7457 7.38688 12.1993 7.38688C12.1993 5.06728 10.3196 3.18555 8 3.18555Z" fill="url(#paint0_linear_9_2205)"/>
<path d="M7.34407 12.7989V12.6532C7.34407 12.2888 7.39266 12.0094 7.48983 11.815C7.58701 11.5964 7.80565 11.3413 8.14575 11.0498C8.48586 10.7583 8.7045 10.5275 8.80167 10.3574C8.89885 10.1631 8.94743 9.92015 8.94743 9.62863C8.94743 9.33711 8.85026 9.10633 8.65591 8.93627C8.48586 8.76622 8.23078 8.68119 7.89067 8.68119C7.52627 8.68119 7.07684 8.80266 6.54237 9.04559L6.25085 8.38967C6.85819 8.09815 7.40479 7.95239 7.89065 7.95239C8.4737 7.95239 8.92313 8.1103 9.23895 8.42611C9.57906 8.71763 9.74911 9.11847 9.74911 9.62861C9.74911 9.96872 9.68838 10.2602 9.56691 10.5032C9.44545 10.7461 9.19037 11.0376 8.80167 11.3778C8.43727 11.7179 8.20649 11.9608 8.10931 12.1066C8.03643 12.2523 7.99999 12.4588 7.99999 12.726V12.7989L7.34407 12.7989ZM8.29152 14.1836C8.29152 14.4023 8.24294 14.5723 8.14576 14.6938C8.04859 14.791 7.90283 14.8395 7.70848 14.8395C7.51414 14.8395 7.36838 14.791 7.2712 14.6938C7.17403 14.5723 7.12544 14.4023 7.12544 14.1836C7.12544 13.965 7.17403 13.8071 7.2712 13.7099C7.36838 13.6127 7.51414 13.5641 7.70848 13.5641C7.90283 13.5641 8.04859 13.6127 8.14576 13.7099C8.24294 13.8071 8.29152 13.965 8.29152 14.1836Z" fill="url(#paint1_linear_9_2205)"/>
<defs>
<linearGradient id="paint0_linear_9_2205" x1="1" y1="8.08601" x2="15.0001" y2="8.08601" gradientUnits="userSpaceOnUse">
<stop stop-color="#FDFC47"/>
<stop offset="1" stop-color="#24FE41"/>
</linearGradient>
<linearGradient id="paint1_linear_9_2205" x1="6.25085" y1="11.396" x2="9.74911" y2="11.396" gradientUnits="userSpaceOnUse">
<stop stop-color="#FDFC47"/>
<stop offset="1" stop-color="#24FE41"/>
</linearGradient>
</defs>
</svg>
