<svg width="16" height="17" viewBox="0 0 16 17" fill="none" xmlns="http://www.w3.org/2000/svg">
<path d="M7.75004 1.11792C4.98704 1.21992 2.44104 2.92292 1.43804 5.68092C0.933208 7.06721 0.877579 8.57724 1.27904 9.99692C1.68304 8.67892 2.76404 7.66292 4.11704 7.31392C4.28704 7.02392 4.48904 6.75392 4.70704 6.50092C4.71704 5.79092 4.83704 5.07192 5.09404 4.36792C5.60804 2.95592 6.56804 1.85992 7.75004 1.11792ZM5.20704 9.09792L4.80104 9.15892C4.32766 9.22416 3.89413 9.45924 3.5812 9.82038C3.26827 10.1815 3.09726 10.6441 3.10004 11.1219C3.10004 12.2379 3.98304 13.1219 5.10004 13.1219H11.475C11.661 13.1219 11.835 13.0839 12 13.0279C10.979 13.1686 9.93909 13.0602 8.96904 12.7119C8.1253 12.4042 7.35498 11.924 6.70724 11.3019C6.0595 10.6798 5.54856 9.92854 5.20704 9.09792Z" fill="url(#paint0_linear_9_2172)"/>
<path d="M8.099 5.87195C6.546 5.87195 5.223 6.82295 4.654 8.16895C3.94454 8.27244 3.29601 8.62773 2.8269 9.16992C2.35778 9.71211 2.09941 10.405 2.099 11.1219C2.099 11.9176 2.41507 12.6807 2.97768 13.2433C3.54029 13.8059 4.30335 14.1219 5.099 14.1219H11.474C12.1702 14.1219 12.8379 13.8454 13.3302 13.3531C13.8224 12.8608 14.099 12.1931 14.099 11.4969C14.099 10.8542 13.8626 10.2339 13.4347 9.75427C13.0069 9.27462 12.4176 8.96911 11.779 8.89595C11.6092 8.04444 11.1499 7.27796 10.4791 6.72671C9.80825 6.17546 8.96727 5.87344 8.099 5.87195Z" fill="url(#paint1_linear_9_2172)"/>
<defs>
<linearGradient id="paint0_linear_9_2172" x1="1.01392" y1="7.11992" x2="12" y2="7.11992" gradientUnits="userSpaceOnUse">
<stop stop-color="#FDFC47"/>
<stop offset="1" stop-color="#24FE41"/>
</linearGradient>
<linearGradient id="paint1_linear_9_2172" x1="2.099" y1="9.99695" x2="14.099" y2="9.99695" gradientUnits="userSpaceOnUse">
<stop stop-color="#FDFC47"/>
<stop offset="1" stop-color="#24FE41"/>
</linearGradient>
</defs>
</svg>
