<svg width="16" height="17" viewBox="0 0 16 17" fill="none" xmlns="http://www.w3.org/2000/svg">
<path d="M8 2.08594C6.1636 2.08594 4.6333 3.28774 4.0625 4.92974C2.3394 5.1481 1 6.60424 1 8.38674C1 10.1665 2.3334 11.62 4.0527 11.8418L4.55661 9.93564V9.93369C4.71731 9.31674 5.24532 8.87759 5.83981 8.79499C6.04287 8.76679 6.25087 8.78022 6.44723 8.8321C6.73514 8.90814 6.91603 9.13437 7.10739 9.33991C7.35212 9.06141 7.65608 8.84572 8.02145 8.79499C8.22451 8.76679 8.43251 8.78022 8.62887 8.8321C8.91678 8.90814 9.09767 9.13437 9.28903 9.33991C9.53376 9.06141 9.83772 8.84572 10.2031 8.79499C10.4061 8.76679 10.6141 8.78022 10.8105 8.83209C11.6262 9.04754 12.1237 9.90269 11.9082 10.7188V10.7208L11.5938 11.8868H12.1992C13.7456 11.8868 15 10.6324 15 9.08599C15 7.53959 13.7456 6.28519 12.1992 6.28519C12.1992 3.96569 10.3195 2.08594 8 2.08594Z" fill="url(#paint0_linear_9_2225)"/>
<path d="M5.97659 9.78509C5.76668 9.81424 5.58269 9.96457 5.52542 10.1855L4.82815 12.8203C4.74087 13.1094 4.9086 13.4099 5.20315 13.4863C5.49224 13.5627 5.7928 13.3922 5.86917 13.0976L6.57815 10.4628C6.65452 10.1737 6.48052 9.87513 6.19143 9.79877C6.11915 9.77968 6.04656 9.77538 5.97659 9.78509ZM8.15819 9.78509C7.94828 9.81424 7.76429 9.96457 7.70702 10.1855L6.57222 14.3964C6.49585 14.6909 6.6718 14.979 6.96089 15.0663C7.25544 15.1427 7.55445 14.9796 7.63081 14.6796L8.75971 10.4628C8.83608 10.1737 8.66208 9.87508 8.37299 9.79872C8.30071 9.77963 8.22816 9.77538 8.15819 9.78509ZM10.3398 9.78509C10.1299 9.81424 9.94589 9.96457 9.88862 10.1855L9.19135 12.8203C9.10407 13.1094 9.27375 13.4099 9.5683 13.4863C9.85739 13.5627 10.156 13.3922 10.2324 13.0976L10.9413 10.4628C11.0177 10.1737 10.8437 9.87513 10.5546 9.79877C10.4823 9.77968 10.4098 9.77538 10.3398 9.78509Z" fill="url(#paint1_linear_9_2225)"/>
<path opacity="0.5" d="M0.93268 13.528L1.58937 13.357L1.1066 12.8713C0.98965 12.7573 0.98965 12.5654 1.1066 12.4455C1.22355 12.3285 1.41845 12.3285 1.5324 12.4455L2.01817 12.9282L2.18909 12.2715C2.23106 12.1096 2.39599 12.0167 2.55492 12.0586C2.71685 12.1006 2.8098 12.2655 2.76782 12.4275L2.5909 13.0842L3.24759 12.9072C3.40952 12.8653 3.57443 12.9582 3.61642 13.1201C3.65839 13.2791 3.56545 13.444 3.40352 13.486L2.74683 13.6569L3.2296 14.1427C3.34655 14.2566 3.34655 14.4515 3.2296 14.5685C3.11265 14.6854 2.91775 14.6854 2.8038 14.5685L2.31803 14.0857L2.14711 14.7424C2.10512 14.9043 1.94021 14.9973 1.78128 14.9553C1.61935 14.9133 1.5264 14.7484 1.56838 14.5865L1.7453 13.9298L1.08861 14.1067C0.92668 14.1487 0.76177 14.0557 0.71978 13.8938C0.67779 13.7349 0.77075 13.5699 0.93268 13.528Z" fill="url(#paint2_linear_9_2225)"/>
<path opacity="0.5" d="M11.612 13.9569L12.2687 13.786L11.7859 13.3002C11.669 13.1863 11.669 12.9944 11.7859 12.8744C11.9029 12.7575 12.0978 12.7575 12.2117 12.8744L12.6975 13.3572L12.8684 12.7005C12.9104 12.5386 13.0753 12.4456 13.2342 12.4876C13.3962 12.5296 13.4891 12.6945 13.4471 12.8564L13.2702 13.5131L13.9269 13.3362C14.0888 13.2942 14.2538 13.3872 14.2957 13.5491C14.3377 13.708 14.2448 13.8729 14.0828 13.9149L13.4262 14.0858L13.9089 14.5716C14.0259 14.6856 14.0259 14.8805 13.9089 14.9974C13.792 15.1144 13.5971 15.1144 13.4831 14.9974L12.9974 14.5146L12.8264 15.1713C12.7844 15.3333 12.6195 15.4262 12.4606 15.3842C12.2987 15.3422 12.2057 15.1773 12.2477 15.0154L12.4246 14.3587L11.7679 14.5356C11.606 14.5776 11.4411 14.4847 11.3991 14.3227C11.3571 14.1638 11.4501 13.9989 11.612 13.9569Z" fill="url(#paint3_linear_9_2225)"/>
<defs>
<linearGradient id="paint0_linear_9_2225" x1="1" y1="6.98637" x2="15" y2="6.98637" gradientUnits="userSpaceOnUse">
<stop stop-color="#FDFC47"/>
<stop offset="1" stop-color="#24FE41"/>
</linearGradient>
<linearGradient id="paint1_linear_9_2225" x1="4.80505" y1="12.4325" x2="10.9593" y2="12.4325" gradientUnits="userSpaceOnUse">
<stop stop-color="#FDFC47"/>
<stop offset="1" stop-color="#24FE41"/>
</linearGradient>
<linearGradient id="paint2_linear_9_2225" x1="0.709717" y1="13.507" x2="3.62648" y2="13.507" gradientUnits="userSpaceOnUse">
<stop stop-color="#FDFC47"/>
<stop offset="1" stop-color="#24FE41"/>
</linearGradient>
<linearGradient id="paint3_linear_9_2225" x1="11.389" y1="13.9359" x2="14.3058" y2="13.9359" gradientUnits="userSpaceOnUse">
<stop stop-color="#FDFC47"/>
<stop offset="1" stop-color="#24FE41"/>
</linearGradient>
</defs>
</svg>
