<svg width="16" height="17" viewBox="0 0 16 17" fill="none" xmlns="http://www.w3.org/2000/svg">
<path d="M9 5.87C7.447 5.87 6.124 6.821 5.555 8.167C4.84555 8.27048 4.19701 8.62578 3.7279 9.16797C3.25878 9.71016 3.00042 10.403 3 11.12C3 11.9156 3.31607 12.6787 3.87868 13.2413C4.44129 13.8039 5.20435 14.12 6 14.12H12.375C13.0712 14.12 13.7389 13.8434 14.2312 13.3512C14.7234 12.8589 15 12.1912 15 11.495C15 10.8523 14.7636 10.232 14.3357 9.75232C13.9079 9.27267 13.3186 8.96716 12.68 8.89399C12.5102 8.04248 12.0509 7.276 11.3801 6.72475C10.7092 6.17351 9.86827 5.87148 9 5.87Z" fill="url(#paint0_linear_9_2176)"/>
<path opacity="0.5" d="M5.99994 1.22888C5.80208 1.22888 5.6428 1.38817 5.6428 1.58602V3.01462C5.6428 3.21248 5.80209 3.37176 5.99994 3.37176C6.1978 3.37176 6.35708 3.21247 6.35708 3.01462V1.58602C6.35708 1.38816 6.19779 1.22888 5.99994 1.22888ZM2.71734 2.58908C2.62605 2.58908 2.53478 2.62376 2.46483 2.69371C2.32492 2.83362 2.32492 3.05883 2.46483 3.19873L3.47483 4.20873C3.61474 4.34864 3.83995 4.34864 3.97985 4.20873C4.11976 4.06882 4.11976 3.84361 3.97985 3.70371L2.96985 2.69371C2.8999 2.62376 2.80863 2.58908 2.71734 2.58908ZM9.28264 2.58908C9.19135 2.58908 9.10008 2.62376 9.03013 2.69371L8.02013 3.70371C7.88022 3.84362 7.88022 4.06883 8.02013 4.20873C8.16004 4.34864 8.38525 4.34864 8.52515 4.20873L9.53515 3.19873C9.67506 3.05882 9.67506 2.83361 9.53515 2.69371C9.4652 2.62376 9.37393 2.58908 9.28264 2.58908ZM6.00004 4.08598C5.43171 4.08598 4.88665 4.31175 4.48478 4.71362C4.08291 5.11549 3.85714 5.66055 3.85714 6.22888C3.85714 6.79721 4.08291 7.34227 4.48478 7.74414C4.88665 8.14601 5.43171 8.37178 6.00004 8.37178C6.28145 8.37178 6.5601 8.31635 6.82009 8.20866C7.08008 8.10097 7.31631 7.94313 7.5153 7.74414C7.71429 7.54515 7.87213 7.30892 7.97982 7.04893C8.08751 6.78895 8.14294 6.51029 8.14294 6.22888C8.14294 5.66055 7.91717 5.11549 7.5153 4.71362C7.11343 4.31175 6.56837 4.08598 6.00004 4.08598ZM1.35714 5.87168C1.15928 5.87168 1 6.03097 1 6.22882C1 6.42668 1.15929 6.58596 1.35714 6.58596H2.78574C2.9836 6.58596 3.14288 6.42667 3.14288 6.22882C3.14288 6.03096 2.98359 5.87168 2.78574 5.87168H1.35714ZM9.21424 5.87168C9.01638 5.87168 8.8571 6.03097 8.8571 6.22882C8.8571 6.42668 9.01639 6.58596 9.21424 6.58596H10.6428C10.8407 6.58596 11 6.42667 11 6.22882C11 6.03096 10.8407 5.87168 10.6428 5.87168H9.21424ZM3.72734 8.14428C3.63605 8.14428 3.54478 8.17896 3.47483 8.24891L2.46483 9.25891C2.32492 9.39882 2.32492 9.62403 2.46483 9.76393C2.60474 9.90383 2.82995 9.90384 2.96985 9.76393L3.97985 8.75393C4.11976 8.61403 4.11976 8.38881 3.97985 8.24891C3.9099 8.17896 3.81863 8.14428 3.72734 8.14428ZM8.27254 8.14428C8.18125 8.14428 8.08998 8.17896 8.02003 8.24891C7.88012 8.38882 7.88012 8.61403 8.02003 8.75393L9.03003 9.76393C9.16994 9.90384 9.39515 9.90384 9.53505 9.76393C9.67496 9.62402 9.67496 9.39881 9.53505 9.25891L8.52505 8.24891C8.4551 8.17896 8.36383 8.14428 8.27254 8.14428ZM5.99994 9.08596C5.80208 9.08596 5.6428 9.24525 5.6428 9.4431V10.8717C5.6428 11.0696 5.80209 11.2288 5.99994 11.2288C6.1978 11.2288 6.35708 11.0696 6.35708 10.8717V9.4431C6.35708 9.24524 6.19779 9.08596 5.99994 9.08596Z" fill="url(#paint1_linear_9_2176)"/>
<defs>
<linearGradient id="paint0_linear_9_2176" x1="3" y1="9.995" x2="15" y2="9.995" gradientUnits="userSpaceOnUse">
<stop stop-color="#FDFC47"/>
<stop offset="1" stop-color="#24FE41"/>
</linearGradient>
<linearGradient id="paint1_linear_9_2176" x1="1" y1="6.22886" x2="11" y2="6.22886" gradientUnits="userSpaceOnUse">
<stop stop-color="#FDFC47"/>
<stop offset="1" stop-color="#24FE41"/>
</linearGradient>
</defs>
</svg>
