<svg width="16" height="17" viewBox="0 0 16 17" fill="none" xmlns="http://www.w3.org/2000/svg">
<g clip-path="url(#clip0_9_2179)">
<g opacity="0.5">
<path d="M3.67999 2.08594C4.75899 2.08694 5.67595 2.75144 6.11395 3.70194L6.14447 3.76694L6.21399 3.77194C7.21099 3.84394 8 4.70694 8 5.75594C8 6.85244 7.14199 7.75194 6.08099 7.75194H1.43896C0.642965 7.75194 0 7.07694 0 6.25794C0 5.66189 0.353566 5.12279 0.902466 4.89044L0.971008 4.86144L0.975952 4.78694C1.04345 3.29044 2.21948 2.08694 3.67798 2.08594H3.67999Z" fill="url(#paint0_linear_9_2179)"/>
</g>
<path d="M9.59993 3.08643C7.71168 3.08818 6.107 4.25105 5.3405 5.91443L5.28709 6.02818L5.16544 6.03693C3.42069 6.16293 2.03992 7.67318 2.03992 9.50893C2.03992 11.4278 3.54143 13.0019 5.39818 13.0019H13.5217C14.9147 13.0019 16.0399 11.8207 16.0399 10.3874C16.0399 9.34434 15.4212 8.40091 14.4606 7.9943L14.3407 7.94355L14.332 7.81318C14.2139 5.1943 12.1558 3.08818 9.60345 3.08643H9.59993Z" fill="url(#paint1_linear_9_2179)"/>
</g>
<defs>
<linearGradient id="paint0_linear_9_2179" x1="8" y1="4.91894" x2="0" y2="4.91894" gradientUnits="userSpaceOnUse">
<stop stop-color="#FDFC47"/>
<stop offset="1" stop-color="#24FE41"/>
</linearGradient>
<linearGradient id="paint1_linear_9_2179" x1="2.03992" y1="8.04418" x2="16.0399" y2="8.04418" gradientUnits="userSpaceOnUse">
<stop stop-color="#FDFC47"/>
<stop offset="1" stop-color="#24FE41"/>
</linearGradient>
<clipPath id="clip0_9_2179">
<rect width="16" height="16" fill="white" transform="translate(0 0.0859375)"/>
</clipPath>
</defs>
</svg>
