<svg width="16" height="17" viewBox="0 0 16 17" fill="none" xmlns="http://www.w3.org/2000/svg">
<path d="M8 3.08595C6.1636 3.08595 4.6333 4.28775 4.0625 5.92975C2.3394 6.14811 1 7.60425 1 9.38675C1 11.3197 2.567 12.8867 4.5 12.8867H4.63672C4.62748 12.7981 4.61561 12.7094 4.61914 12.6231C4.64083 12.0926 4.84117 11.6426 5.0918 11.2481L6.7734 8.33398L7.45504 9.51368L9.10734 6.65628L10.787 9.56448C11.0604 9.98719 11.2733 10.4495 11.2831 10.9961C11.2929 11.5393 11.0333 12.093 10.662 12.4727C10.4696 12.6716 10.2464 12.7949 10.0234 12.8867H12.1992C13.7456 12.8867 15 11.6323 15 10.0859C15 8.53954 13.7456 7.28514 12.1992 7.28514C12.1992 4.96564 10.3195 3.08595 8 3.08595ZM9.1074 10.6523C8.98851 10.8438 8.95266 10.9904 8.95115 11.0273C8.9496 11.0652 8.91689 11.0118 8.98045 11.0762L8.98631 11.082L8.99412 11.0898C8.99516 11.0909 8.90336 11.0762 9.1074 11.0762C9.31144 11.0762 9.22159 11.0909 9.22263 11.0898L9.22849 11.082L9.2363 11.0762C9.33103 10.9802 9.28324 11.0368 9.28318 11.0332C9.28311 11.0297 9.26239 10.8931 9.1074 10.6523ZM6.7734 12.332C6.65455 12.5235 6.61866 12.6681 6.61715 12.7051C6.6156 12.7429 6.58289 12.6876 6.64645 12.752L6.65426 12.7598L6.66012 12.7656C6.66116 12.7667 6.56936 12.752 6.7734 12.752C6.97744 12.752 6.88759 12.7667 6.88863 12.7656L6.89449 12.7598L6.9023 12.752C6.99703 12.656 6.94924 12.7126 6.94918 12.709C6.94911 12.7054 6.92839 12.5728 6.7734 12.332Z" fill="url(#paint0_linear_9_2199)"/>
<path d="M7.61307 11.7849L6.77449 10.3337L5.93592 11.7849C5.559 12.3781 5.46607 12.9803 5.93592 13.4561C6.17976 13.7118 6.47712 13.7534 6.77449 13.7534C7.07186 13.7534 7.36923 13.7118 7.61307 13.4561C8.08291 12.9803 8.04349 12.4506 7.61307 11.7849Z" fill="url(#paint1_linear_9_2199)"/>
<path d="M9.94644 10.1071L9.10787 8.65601L8.26929 10.1071C7.89238 10.7004 7.79945 11.3025 8.26929 11.7783C8.51313 12.0341 8.8105 12.0757 9.10787 12.0757C9.40523 12.0757 9.7026 12.0341 9.94644 11.7783C10.4163 11.3025 10.3769 10.7728 9.94644 10.1071Z" fill="url(#paint2_linear_9_2199)"/>
<defs>
<linearGradient id="paint0_linear_9_2199" x1="1" y1="7.98634" x2="15" y2="7.98634" gradientUnits="userSpaceOnUse">
<stop stop-color="#FDFC47"/>
<stop offset="1" stop-color="#24FE41"/>
</linearGradient>
<linearGradient id="paint1_linear_9_2199" x1="5.61743" y1="12.0436" x2="7.95083" y2="12.0436" gradientUnits="userSpaceOnUse">
<stop stop-color="#FDFC47"/>
<stop offset="1" stop-color="#24FE41"/>
</linearGradient>
<linearGradient id="paint2_linear_9_2199" x1="7.95081" y1="10.3659" x2="10.2842" y2="10.3659" gradientUnits="userSpaceOnUse">
<stop stop-color="#FDFC47"/>
<stop offset="1" stop-color="#24FE41"/>
</linearGradient>
</defs>
</svg>
