<svg width="16" height="17" viewBox="0 0 16 17" fill="none" xmlns="http://www.w3.org/2000/svg">
<g clip-path="url(#clip0_9_2184)">
<path d="M7.30015 1.11842C4.72139 1.21308 2.34517 2.80232 1.4082 5.37594C0.228547 8.6161 1.7523 12.2108 4.84996 13.5993C4.76297 13.2844 4.71286 12.9396 4.73329 12.6078C4.75915 11.6735 5.27835 10.8466 6.01666 10.3041C4.5542 8.68679 4.02336 6.34149 4.82079 4.15113C5.30069 2.83287 6.19715 1.81051 7.30015 1.11842ZM7.47515 11.4997C7.08588 11.66 6.76769 11.9537 6.65845 12.3745C6.41095 13.1444 6.97169 14.0118 7.76683 14.1242C9.44314 14.0552 11.0331 13.3678 12.2004 12.1705V12.0247C11.0049 12.3742 9.69737 12.3955 8.4378 11.9372C8.09992 11.8143 7.77617 11.6734 7.47515 11.4997Z" fill="url(#paint0_linear_9_2184)"/>
<path d="M10.3335 8.55444C9.10921 8.55444 8.08893 9.35549 7.70847 10.4499C6.55965 10.5954 5.66675 11.5655 5.66675 12.7536C5.66675 14.042 6.71146 15.0866 8.00015 15.0866H13.1337C14.1647 15.0866 15.0005 14.251 15.0005 13.2203C15.0005 12.1896 14.1647 11.3541 13.1337 11.3541C13.1337 9.80795 11.88 8.55444 10.3335 8.55444Z" fill="url(#paint1_linear_9_2184)"/>
</g>
<defs>
<linearGradient id="paint0_linear_9_2184" x1="1.00952" y1="7.62133" x2="12.2004" y2="7.62133" gradientUnits="userSpaceOnUse">
<stop stop-color="#FDFC47"/>
<stop offset="1" stop-color="#24FE41"/>
</linearGradient>
<linearGradient id="paint1_linear_9_2184" x1="5.66675" y1="11.8205" x2="15.0005" y2="11.8205" gradientUnits="userSpaceOnUse">
<stop stop-color="#FDFC47"/>
<stop offset="1" stop-color="#24FE41"/>
</linearGradient>
<clipPath id="clip0_9_2184">
<rect width="16" height="16" fill="white" transform="translate(0 0.0859375)"/>
</clipPath>
</defs>
</svg>
