<svg width="16" height="16" viewBox="0 0 16 16" fill="none" xmlns="http://www.w3.org/2000/svg">
<path d="M2 2.52344V13.5234C2 13.5234 2 15.0234 3.5 15.0234H13.5C15 15.0234 15 13.5234 15 13.5234V2.52344C15 2.52344 15 1.02344 13.5 1.02344H3.5C2 1.02344 2 2.52344 2 2.52344ZM3.5 2.02344H13.5C13.5 2.02344 14 2.02344 14 2.52344V4.52344C14 5.02344 13.5 5.02344 13.5 5.02344H3.5C3 5.02344 3 4.52344 3 4.52344V2.52344C3 2.52344 3 2.02344 3.5 2.02344ZM3.186 6.02344H4.811C4.921 6.02344 4.998 6.10344 4.998 6.21344V7.83844C4.998 7.93844 4.921 8.01844 4.81 8.01844H3.185C3.15995 8.0193 3.135 8.01495 3.11172 8.00567C3.08845 7.99639 3.06735 7.98237 3.04977 7.96451C3.03219 7.94665 3.01851 7.92533 3.0096 7.90191C3.00069 7.87849 2.99674 7.85347 2.998 7.82844V6.20344C2.998 6.10344 3.075 6.02344 3.186 6.02344ZM6.186 6.02344H7.811C7.921 6.02344 7.998 6.10344 7.998 6.21344V7.83844C7.998 7.93844 7.921 8.01844 7.81 8.01844H6.185C6.15995 8.0193 6.135 8.01495 6.11172 8.00567C6.08845 7.99639 6.06735 7.98237 6.04977 7.96451C6.03219 7.94665 6.01851 7.92533 6.0096 7.90191C6.00069 7.87849 5.99674 7.85347 5.998 7.82844V6.20344C5.998 6.10344 6.075 6.02344 6.186 6.02344ZM9.186 6.02344H10.811C10.921 6.02344 10.998 6.10344 10.998 6.21344V7.83844C10.998 7.93844 10.921 8.01844 10.81 8.01844H9.185C9.15995 8.0193 9.135 8.01495 9.11172 8.00567C9.08845 7.99639 9.06735 7.98237 9.04977 7.96451C9.03219 7.94665 9.01851 7.92533 9.0096 7.90191C9.00069 7.87849 8.99674 7.85347 8.998 7.82844V6.20344C8.998 6.10344 9.075 6.02344 9.186 6.02344ZM12.186 6.02344H13.811C13.921 6.02344 13.998 6.10344 13.998 6.21344V7.83844C13.998 7.93844 13.921 8.01844 13.81 8.01844H12.185C12.16 8.0193 12.135 8.01495 12.1117 8.00567C12.0884 7.99639 12.0673 7.98237 12.0498 7.96451C12.0322 7.94665 12.0185 7.92533 12.0096 7.90191C12.0007 7.87849 11.9967 7.85347 11.998 7.82844V6.20344C11.998 6.10344 12.075 6.02344 12.186 6.02344ZM3.186 9.02344H4.811C4.921 9.02344 4.998 9.10344 4.998 9.21344V10.8384C4.998 10.9384 4.921 11.0184 4.81 11.0184H3.185C3.15995 11.0193 3.135 11.015 3.11172 11.0057C3.08845 10.9964 3.06735 10.9824 3.04977 10.9645C3.03219 10.9466 3.01851 10.9253 3.0096 10.9019C3.00069 10.8785 2.99674 10.8535 2.998 10.8284V9.20344C2.998 9.10344 3.075 9.02344 3.186 9.02344ZM6.186 9.02344H7.811C7.921 9.02344 7.998 9.10344 7.998 9.21344V10.8384C7.998 10.9384 7.921 11.0184 7.81 11.0184H6.185C6.15995 11.0193 6.135 11.015 6.11172 11.0057C6.08845 10.9964 6.06735 10.9824 6.04977 10.9645C6.03219 10.9466 6.01851 10.9253 6.0096 10.9019C6.00069 10.8785 5.99674 10.8535 5.998 10.8284V9.20344C5.998 9.10344 6.075 9.02344 6.186 9.02344ZM9.186 9.02344H10.811C10.921 9.02344 10.998 9.10344 10.998 9.21344V10.8384C10.998 10.9384 10.921 11.0184 10.81 11.0184H9.185C9.15995 11.0193 9.135 11.015 9.11172 11.0057C9.08845 10.9964 9.06735 10.9824 9.04977 10.9645C9.03219 10.9466 9.01851 10.9253 9.0096 10.9019C9.00069 10.8785 8.99674 10.8535 8.998 10.8284V9.20344C8.998 9.10344 9.075 9.02344 9.186 9.02344ZM12.186 9.02344H13.811C13.921 9.02344 13.998 9.10344 13.998 9.21344V10.8384C13.998 10.9384 13.921 11.0184 13.81 11.0184H12.185C12.16 11.0193 12.135 11.015 12.1117 11.0057C12.0884 10.9964 12.0673 10.9824 12.0498 10.9645C12.0322 10.9466 12.0185 10.9253 12.0096 10.9019C12.0007 10.8785 11.9967 10.8535 11.998 10.8284V9.20344C11.998 9.10344 12.075 9.02344 12.186 9.02344ZM3.186 12.0234H4.811C4.921 12.0234 4.998 12.1034 4.998 12.2134V13.8384C4.998 13.9384 4.921 14.0184 4.81 14.0184H3.185C3.15995 14.0193 3.135 14.015 3.11172 14.0057C3.08845 13.9964 3.06735 13.9824 3.04977 13.9645C3.03219 13.9466 3.01851 13.9253 3.0096 13.9019C3.00069 13.8785 2.99674 13.8535 2.998 13.8284V12.2034C2.998 12.1034 3.075 12.0234 3.186 12.0234ZM6.186 12.0234H7.811C7.921 12.0234 7.998 12.1034 7.998 12.2134V13.8384C7.998 13.9384 7.921 14.0184 7.81 14.0184H6.185C6.15995 14.0193 6.135 14.015 6.11172 14.0057C6.08845 13.9964 6.06735 13.9824 6.04977 13.9645C6.03219 13.9466 6.01851 13.9253 6.0096 13.9019C6.00069 13.8785 5.99674 13.8535 5.998 13.8284V12.2034C5.998 12.1034 6.075 12.0234 6.186 12.0234ZM9.186 12.0234H10.811C10.921 12.0234 10.998 12.1034 10.998 12.2134V13.8384C10.998 13.9384 10.921 14.0184 10.81 14.0184H9.185C9.15995 14.0193 9.135 14.015 9.11172 14.0057C9.08845 13.9964 9.06735 13.9824 9.04977 13.9645C9.03219 13.9466 9.01851 13.9253 9.0096 13.9019C9.00069 13.8785 8.99674 13.8535 8.998 13.8284V12.2034C8.998 12.1034 9.075 12.0234 9.186 12.0234ZM12.186 12.0234H13.811C13.921 12.0234 13.998 12.1034 13.998 12.2134V13.8384C13.998 13.9384 13.921 14.0184 13.81 14.0184H12.185C12.16 14.0193 12.135 14.015 12.1117 14.0057C12.0884 13.9964 12.0673 13.9824 12.0498 13.9645C12.0322 13.9466 12.0185 13.9253 12.0096 13.9019C12.0007 13.8785 11.9967 13.8535 11.998 13.8284V12.2034C11.998 12.1034 12.075 12.0234 12.186 12.0234Z" fill="url(#paint0_linear_9_175)"/>
<defs>
<linearGradient id="paint0_linear_9_175" x1="2" y1="8.02344" x2="15" y2="8.02344" gradientUnits="userSpaceOnUse">
<stop stop-color="#FDFC47"/>
<stop offset="1" stop-color="#24FE41"/>
</linearGradient>
</defs>
</svg>
