<svg width="17" height="16" viewBox="0 0 17 16" fill="none" xmlns="http://www.w3.org/2000/svg">
<g clip-path="url(#clip0_9_199)">
<path d="M8.33802 1.00044C7.82694 1.00495 7.31864 1.07622 6.82602 1.21244C5.51602 1.57044 4.57602 2.37644 4.28902 3.77344C4.2737 3.83718 4.27175 3.90341 4.28328 3.96795C4.29481 4.03249 4.31958 4.09394 4.35602 4.14844C4.39554 4.20118 4.44588 4.24489 4.50365 4.27662C4.56142 4.30835 4.6253 4.32738 4.69102 4.33244L5.52502 4.41744C5.60302 4.42744 5.67802 4.43544 5.75502 4.44144L6.29302 4.49744C6.43602 4.51244 6.56802 4.49444 6.67202 4.41744C6.77602 4.34044 6.83202 4.22044 6.86702 4.07644C6.88802 3.98944 6.91902 3.91544 6.95102 3.84144C7.02002 3.71444 7.09802 3.59644 7.19302 3.49444C7.29602 3.39644 7.42302 3.31744 7.57302 3.25744L7.58002 3.25344C7.61502 3.23744 7.65502 3.22944 7.69202 3.21644C7.93489 3.14141 8.19255 3.12767 8.44202 3.17644C8.49202 3.18644 8.54402 3.19644 8.59202 3.21444L8.61902 3.22444C8.84742 3.30688 9.03468 3.47513 9.14102 3.69344C9.17851 3.77991 9.20407 3.87108 9.21702 3.96444C9.25902 4.20944 9.25502 4.47044 9.25402 4.74244C9.24502 4.75844 9.24602 4.78044 9.23302 4.79444C9.00802 4.83244 8.76902 4.86344 8.53502 4.89444C7.82002 4.96744 7.10202 5.05244 6.39902 5.26744H6.39702C5.67702 5.49144 5.04002 5.86244 4.58002 6.49244C4.50102 6.60044 4.45302 6.71644 4.39002 6.82844C4.37502 6.85744 4.35702 6.88444 4.34202 6.91444C3.96902 7.63744 3.90102 8.42444 4.07402 9.23444C4.26402 10.1144 4.79602 10.7694 5.65602 11.0764C5.83502 11.1394 6.01302 11.1784 6.19202 11.2124C6.90102 11.3504 7.61402 11.2804 8.31102 11.0424C8.80902 10.8744 9.20302 10.5584 9.56802 10.2184C9.62202 10.1754 9.68202 10.1384 9.73402 10.0934C9.74402 10.1034 9.75602 10.1204 9.76602 10.1304C9.98802 10.4614 10.24 10.7764 10.561 11.0374C10.694 11.1464 10.822 11.2174 10.967 11.2184C11.111 11.2184 11.24 11.1464 11.373 11.0354C11.785 10.6884 12.191 10.3414 12.602 9.99544H12.604C12.712 9.90344 12.791 9.80044 12.811 9.67344C12.831 9.54744 12.785 9.42144 12.705 9.30044C12.6631 9.23817 12.6181 9.17809 12.57 9.12044C12.552 9.09744 12.54 9.07444 12.522 9.05144C12.3669 8.8595 12.2446 8.64325 12.16 8.41144L12.158 8.40944C12.155 8.38944 12.148 8.37344 12.147 8.35444C12.095 8.03627 12.0609 7.71543 12.045 7.39344C12.06 6.91044 12.053 6.43144 12.053 5.95544V5.82344C12.051 5.25344 12.055 4.68244 12.049 4.11344C12.042 3.63044 11.994 3.13344 11.769 2.66644C11.379 1.85144 10.67 1.43544 9.85802 1.20744C9.36425 1.06751 8.85323 0.99783 8.34002 1.00044H8.33802ZM9.25402 6.48844C9.25802 6.69444 9.25602 6.92044 9.24602 7.14644C9.24602 7.19144 9.24002 7.23444 9.23802 7.27944C9.20402 7.77344 9.10502 8.27044 8.83802 8.64944C8.7489 8.77334 8.6421 8.88351 8.52102 8.97644C8.45602 9.02544 8.38002 9.06644 8.30202 9.10544C8.25502 9.12844 8.21202 9.15544 8.16002 9.17344C8.01703 9.22518 7.8646 9.24564 7.71302 9.23344C7.60902 9.22544 7.52102 9.18144 7.43102 9.14044C7.35908 9.1038 7.29191 9.05846 7.23102 9.00544C7.18402 8.96544 7.13902 8.92644 7.10102 8.87644C6.95733 8.69308 6.8871 8.46277 6.90402 8.23044C6.84218 7.93811 6.88949 7.63327 7.03702 7.37344C7.0816 7.29355 7.13384 7.2182 7.19302 7.14844C7.20902 7.12944 7.22802 7.11144 7.24602 7.09344C7.29802 7.03744 7.35102 6.98144 7.41202 6.93344L7.43302 6.91844C7.69702 6.72944 8.01002 6.64044 8.33902 6.58444C8.63802 6.53744 8.95002 6.50044 9.25402 6.48844ZM15.054 10.6784C14.9586 10.6788 14.8632 10.6821 14.768 10.6884C14.208 10.7184 13.663 10.8434 13.176 11.1664H13.174C13.143 11.1874 13.098 11.2164 13.057 11.2714C13.0334 11.306 13.0185 11.3459 13.0136 11.3875C13.0087 11.4291 13.014 11.4713 13.029 11.5104C13.0468 11.5458 13.0727 11.5765 13.1047 11.5998C13.1368 11.6231 13.1739 11.6384 13.213 11.6444C13.275 11.6524 13.319 11.6424 13.348 11.6404H13.35C13.724 11.6004 14.09 11.5534 14.453 11.5564H14.455C14.675 11.5564 14.879 11.5464 15.072 11.5994H15.074V11.6014C15.164 11.6244 15.206 11.6504 15.224 11.6744C15.244 11.6984 15.257 11.7374 15.256 11.8264C15.253 11.8864 15.248 11.9444 15.238 11.9964V11.9984C15.148 12.4924 14.956 12.9604 14.764 13.4394C14.751 13.4684 14.73 13.5074 14.723 13.5644C14.715 13.6244 14.738 13.7154 14.801 13.7674C14.8308 13.7913 14.8656 13.8083 14.9028 13.8169C14.94 13.8256 14.9787 13.8257 15.016 13.8174C15.077 13.8004 15.12 13.7694 15.154 13.7444H15.156C15.1871 13.7219 15.2165 13.6972 15.244 13.6704C15.924 13.0044 16.242 12.1764 16.262 11.2424C16.2667 11.1395 16.2356 11.0381 16.174 10.9554C16.1093 10.8779 16.0219 10.8226 15.924 10.7974C15.6416 10.7146 15.3484 10.6742 15.054 10.6774V10.6784ZM0.301021 10.9764C0.270518 10.9711 0.239262 10.9718 0.209021 10.9784C0.142105 10.9929 0.0833634 11.0327 0.0450206 11.0894C0.00742656 11.1444 -0.00728008 11.2118 0.00402057 11.2774C0.014672 11.3249 0.0358622 11.3693 0.0660206 11.4074C0.103021 11.4584 0.143021 11.4924 0.176021 11.5214V11.5234C0.552021 11.8564 0.950021 12.1604 1.36602 12.4374C3.40502 13.7984 5.66602 14.4444 8.17602 14.4614H8.17802C8.99902 14.4544 9.88302 14.3604 10.754 14.1614C12.07 13.8694 13.317 13.3924 14.457 12.6524C14.53 12.6044 14.61 12.5584 14.686 12.4944V12.4924H14.688C14.7478 12.4438 14.7956 12.3823 14.828 12.3124C14.8465 12.2686 14.8559 12.2214 14.8556 12.1738C14.8553 12.1262 14.8454 12.0792 14.8264 12.0355C14.8075 11.9919 14.7798 11.9525 14.7452 11.9198C14.7106 11.8872 14.6697 11.8619 14.625 11.8454C14.5465 11.8217 14.4632 11.8183 14.383 11.8354L14.381 11.8374H14.377C14.2799 11.8615 14.1852 11.8943 14.094 11.9354C12.3787 12.6279 10.5532 13.0075 8.70402 13.0564C7.40375 13.0903 6.10418 12.9657 4.83402 12.6854C3.43273 12.382 2.07929 11.8892 0.811021 11.2204V11.2184C0.673021 11.1484 0.535021 11.0724 0.387021 11.0014H0.385021C0.35837 10.9891 0.330078 10.9807 0.301021 10.9764ZM13.338 11.3754V11.3794H13.33L13.338 11.3754ZM15.014 13.5174L15.018 13.5194L15.012 13.5234C15.012 13.5214 15.012 13.5194 15.014 13.5174Z" fill="url(#paint0_linear_9_199)"/>
</g>
<defs>
<linearGradient id="paint0_linear_9_199" x1="0.000305176" y1="7.7309" x2="16.2625" y2="7.7309" gradientUnits="userSpaceOnUse">
<stop stop-color="#FDFC47"/>
<stop offset="1" stop-color="#24FE41"/>
</linearGradient>
<clipPath id="clip0_9_199">
<rect width="16.262" height="16" fill="white" transform="translate(0 0.000488281)"/>
</clipPath>
</defs>
</svg>
