<svg width="17" height="16" viewBox="0 0 17 16" fill="none" xmlns="http://www.w3.org/2000/svg">
<g clip-path="url(#clip0_9_221)">
<path d="M3.26196 1.00049V2.00049H4.25596C2.99796 2.01549 2.07696 1.97049 1.32496 2.38549C0.935578 2.60761 0.638377 2.96155 0.486963 3.38349C0.321963 3.82249 0.261963 4.34349 0.261963 5.00049V11.0005C0.261963 11.6585 0.321963 12.1795 0.486963 12.6175C0.650963 13.0565 0.947963 13.4075 1.32496 13.6155C2.07696 14.0315 2.99796 13.9855 4.25596 14.0005H12.268C13.526 13.9865 14.447 14.0305 15.2 13.6155C15.5893 13.3934 15.8865 13.0394 16.038 12.6175C16.202 12.1795 16.262 11.6575 16.262 11.0005V5.00049C16.262 4.34249 16.202 3.82249 16.037 3.38349C15.8858 2.96171 15.589 2.60779 15.2 2.38549C14.447 1.96949 13.526 2.01549 12.268 2.00049H5.26196V1.00049H3.26196ZM4.26196 3.00049H12.262C13.521 3.01549 14.349 3.06049 14.715 3.26249C14.899 3.36349 15.005 3.47549 15.102 3.73449C15.199 3.99449 15.262 4.40849 15.262 5.00049V11.0005C15.262 11.5925 15.199 12.0065 15.102 12.2665C15.004 12.5265 14.899 12.6375 14.715 12.7385C14.349 12.9405 13.521 12.9855 12.262 13.0005H4.26196C3.00296 12.9855 2.17196 12.9405 1.80696 12.7385C1.62396 12.6385 1.51996 12.5265 1.42196 12.2665C1.32496 12.0065 1.26196 11.5925 1.26196 11.0005V5.00049C1.26196 4.40849 1.32496 3.99449 1.42196 3.73449C1.51996 3.47449 1.62396 3.36349 1.80696 3.26249C2.17296 3.06049 3.00196 3.01549 4.26196 3.00049ZM8.26196 4.00049C7.2011 4.00049 6.18368 4.42192 5.43354 5.17206C4.68339 5.92221 4.26196 6.93962 4.26196 8.00049C4.26196 9.06135 4.68339 10.0788 5.43354 10.8289C6.18368 11.5791 7.2011 12.0005 8.26196 12.0005C9.32283 12.0005 10.3402 11.5791 11.0904 10.8289C11.8405 10.0788 12.262 9.06135 12.262 8.00049C12.262 6.93962 11.8405 5.92221 11.0904 5.17206C10.3402 4.42192 9.32283 4.00049 8.26196 4.00049ZM13.762 4.00049C13.6294 4.00049 13.5022 4.05317 13.4084 4.14693C13.3146 4.2407 13.262 4.36788 13.262 4.50049C13.262 4.6331 13.3146 4.76027 13.4084 4.85404C13.5022 4.94781 13.6294 5.00049 13.762 5.00049C13.8946 5.00049 14.0217 4.94781 14.1155 4.85404C14.2093 4.76027 14.262 4.6331 14.262 4.50049C14.262 4.36788 14.2093 4.2407 14.1155 4.14693C14.0217 4.05317 13.8946 4.00049 13.762 4.00049ZM8.26196 5.00049C9.05761 5.00049 9.82067 5.31656 10.3833 5.87917C10.9459 6.44178 11.262 7.20484 11.262 8.00049C11.262 8.79614 10.9459 9.5592 10.3833 10.1218C9.82067 10.6844 9.05761 11.0005 8.26196 11.0005C7.46631 11.0005 6.70325 10.6844 6.14064 10.1218C5.57803 9.5592 5.26196 8.79614 5.26196 8.00049C5.26196 7.20484 5.57803 6.44178 6.14064 5.87917C6.70325 5.31656 7.46631 5.00049 8.26196 5.00049ZM8.17796 6.00449C7.66291 6.02614 7.17612 6.24583 6.81913 6.61772C6.46214 6.98961 6.26254 7.48499 6.26196 8.00049C6.26196 8.53092 6.47268 9.03963 6.84775 9.4147C7.22282 9.78977 7.73153 10.0005 8.26196 10.0005C8.7924 10.0005 9.3011 9.78977 9.67618 9.4147C10.0512 9.03963 10.262 8.53092 10.262 8.00049C10.2611 7.48797 10.0634 6.99536 9.7099 6.62431C9.35634 6.25327 8.87384 6.03211 8.36196 6.00649C8.60845 6.03126 8.83698 6.14665 9.00325 6.33029C9.16953 6.51393 9.26172 6.75275 9.26196 7.00049C9.26196 7.2657 9.15661 7.52006 8.96907 7.70759C8.78153 7.89513 8.52718 8.00049 8.26196 8.00049C7.99675 8.00049 7.74239 7.89513 7.55486 7.70759C7.36732 7.52006 7.26196 7.2657 7.26196 7.00049C7.26208 6.74989 7.35628 6.50848 7.52591 6.32403C7.69555 6.13958 7.92825 6.02554 8.17796 6.00449Z" fill="url(#paint0_linear_9_221)"/>
</g>
<defs>
<linearGradient id="paint0_linear_9_221" x1="0.261963" y1="7.50049" x2="16.262" y2="7.50049" gradientUnits="userSpaceOnUse">
<stop stop-color="#FDFC47"/>
<stop offset="1" stop-color="#24FE41"/>
</linearGradient>
<clipPath id="clip0_9_221">
<rect width="16" height="16" fill="white" transform="translate(0.261963 0.000488281)"/>
</clipPath>
</defs>
</svg>
