<svg width="17" height="16" viewBox="0 0 17 16" fill="none" xmlns="http://www.w3.org/2000/svg">
<g clip-path="url(#clip0_9_231)">
<path d="M10.7369 7.52588L9.67645 7.8794L8.94403 8.12159C8.21433 7.85667 7.39753 8.03779 6.84833 8.58643C6.06757 9.36743 6.06757 10.6335 6.84833 11.4145C7.62933 12.1953 8.89543 12.1953 9.67643 11.4145C10.2251 10.8653 10.4062 10.0485 10.1413 9.31883L10.3835 8.58641L10.7369 7.52588ZM8.26235 9.00048C8.52756 9.00048 8.78192 9.10584 8.96945 9.29337C9.15699 9.48091 9.26235 9.73526 9.26235 10.0005C9.26235 10.2657 9.15699 10.52 8.96945 10.7076C8.78192 10.8951 8.52756 11.0005 8.26235 11.0005C7.99713 11.0005 7.74278 10.8951 7.55524 10.7076C7.3677 10.52 7.26235 10.2657 7.26235 10.0005C7.26235 9.73526 7.3677 9.48091 7.55524 9.29337C7.74278 9.10584 7.99713 9.00048 8.26235 9.00048Z" fill="url(#paint0_linear_9_231)"/>
<path d="M8.26196 0.000488281C6.59996 0.000488281 5.26196 1.33849 5.26196 3.00049V4.80519C4.34997 5.33173 3.59263 6.08902 3.06602 7.00097C2.53942 7.91292 2.26211 8.94741 2.26196 10.0005C2.26196 11.5918 2.8941 13.1179 4.01932 14.2431C5.14454 15.3683 6.67066 16.0005 8.26196 16.0005C9.85326 16.0005 11.3794 15.3683 12.5046 14.2431C13.6298 13.1179 14.262 11.5918 14.262 10.0005C14.2618 8.94741 13.9845 7.91292 13.4579 7.00097C12.9313 6.08902 12.174 5.33173 11.262 4.80519V3.00049C11.262 1.33849 9.92396 0.000488281 8.26196 0.000488281ZM8.26196 1.00049C9.36996 1.00049 10.262 1.89249 10.262 3.00049V4.34429C9.61965 4.11698 8.94331 4.00073 8.26196 4.00054C7.58061 4.00073 6.90428 4.11698 6.26196 4.34429V3.00049C6.26196 1.89249 7.15396 1.00049 8.26196 1.00049ZM8.26196 5.00049C9.58805 5.00049 10.8598 5.52727 11.7975 6.46495C12.7352 7.40264 13.262 8.67441 13.262 10.0005C13.262 11.3266 12.7352 12.5983 11.7975 13.536C10.8598 14.4737 9.58805 15.0005 8.26196 15.0005C6.93588 15.0005 5.66411 14.4737 4.72643 13.536C3.78875 12.5983 3.26196 11.3266 3.26196 10.0005C3.26196 8.67441 3.78875 7.40264 4.72643 6.46495C5.66411 5.52727 6.93588 5.00049 8.26196 5.00049Z" fill="url(#paint1_linear_9_231)"/>
</g>
<defs>
<linearGradient id="paint0_linear_9_231" x1="6.26276" y1="9.76299" x2="10.737" y2="9.76299" gradientUnits="userSpaceOnUse">
<stop stop-color="#FDFC47"/>
<stop offset="1" stop-color="#24FE41"/>
</linearGradient>
<linearGradient id="paint1_linear_9_231" x1="2.26196" y1="8.00049" x2="14.262" y2="8.00049" gradientUnits="userSpaceOnUse">
<stop stop-color="#FDFC47"/>
<stop offset="1" stop-color="#24FE41"/>
</linearGradient>
<clipPath id="clip0_9_231">
<rect width="16" height="16" fill="white" transform="translate(0.261963 0.000488281)"/>
</clipPath>
</defs>
</svg>
