<svg width="17" height="16" viewBox="0 0 17 16" fill="none" xmlns="http://www.w3.org/2000/svg">
<g clip-path="url(#clip0_9_246)">
<path d="M8.26196 5.00049C7.46631 5.00049 6.70325 5.31656 6.14064 5.87917C5.57803 6.44178 5.26196 7.20484 5.26196 8.00049C5.26196 8.79614 5.57803 9.5592 6.14064 10.1218C6.70325 10.6844 7.46631 11.0005 8.26196 11.0005C9.05761 11.0005 9.82067 10.6844 10.3833 10.1218C10.9459 9.5592 11.262 8.79614 11.262 8.00049C11.262 7.20484 10.9459 6.44178 10.3833 5.87917C9.82067 5.31656 9.05761 5.00049 8.26196 5.00049ZM8.26196 6.50049C8.65979 6.50049 9.04132 6.65852 9.32262 6.93983C9.60393 7.22113 9.76196 7.60266 9.76196 8.00049C9.76196 8.39831 9.60393 8.77984 9.32262 9.06115C9.04132 9.34245 8.65979 9.50049 8.26196 9.50049C7.86414 9.50049 7.48261 9.34245 7.2013 9.06115C6.92 8.77984 6.76196 8.39831 6.76196 8.00049C6.76196 7.60266 6.92 7.22113 7.2013 6.93983C7.48261 6.65852 7.86414 6.50049 8.26196 6.50049Z" fill="url(#paint0_linear_9_246)"/>
<path d="M8.26196 0.000488281C6.14023 0.000488281 4.1054 0.843343 2.60511 2.34363C1.10482 3.84393 0.261963 5.87876 0.261963 8.00049C0.261963 10.1222 1.10482 12.1571 2.60511 13.6573C4.1054 15.1576 6.14023 16.0005 8.26196 16.0005C10.3837 16.0005 12.4185 15.1576 13.9188 13.6573C15.4191 12.1571 16.262 10.1222 16.262 8.00049C16.262 5.87876 15.4191 3.84393 13.9188 2.34363C12.4185 0.843343 10.3837 0.000488281 8.26196 0.000488281ZM8.26196 1.00049C10.1185 1.00049 11.899 1.73799 13.2117 3.05074C14.5245 4.3635 15.262 6.14397 15.262 8.00049C15.262 9.857 14.5245 11.6375 13.2117 12.9502C11.899 14.263 10.1185 15.0005 8.26196 15.0005C6.40545 15.0005 4.62497 14.263 3.31222 12.9502C1.99946 11.6375 1.26196 9.857 1.26196 8.00049C1.26196 6.14397 1.99946 4.3635 3.31222 3.05074C4.62497 1.73799 6.40545 1.00049 8.26196 1.00049Z" fill="url(#paint1_linear_9_246)"/>
<path d="M12.765 11.0015C12.754 11.0015 12.751 11.0205 12.744 11.0295L2.89399 14.0285C1.90799 14.5285 2.25399 15.5245 2.73599 15.8425C3.33199 16.2105 3.99899 15.8385 4.60299 15.7035L12.962 11.9405C13.295 11.8465 13.393 11.2285 13.039 11.0885C12.9563 11.0372 12.8621 11.0066 12.765 11.0015Z" fill="url(#paint2_linear_9_246)"/>
</g>
<defs>
<linearGradient id="paint0_linear_9_246" x1="5.26196" y1="8.00049" x2="11.262" y2="8.00049" gradientUnits="userSpaceOnUse">
<stop stop-color="#FDFC47"/>
<stop offset="1" stop-color="#24FE41"/>
</linearGradient>
<linearGradient id="paint1_linear_9_246" x1="0.261963" y1="8.00049" x2="16.262" y2="8.00049" gradientUnits="userSpaceOnUse">
<stop stop-color="#FDFC47"/>
<stop offset="1" stop-color="#24FE41"/>
</linearGradient>
<linearGradient id="paint2_linear_9_246" x1="2.26227" y1="13.501" x2="13.2622" y2="13.501" gradientUnits="userSpaceOnUse">
<stop stop-color="#FDFC47"/>
<stop offset="1" stop-color="#24FE41"/>
</linearGradient>
<clipPath id="clip0_9_246">
<rect width="16" height="16" fill="white" transform="translate(0.261963 0.000488281)"/>
</clipPath>
</defs>
</svg>
