<svg width="17" height="16" viewBox="0 0 17 16" fill="none" xmlns="http://www.w3.org/2000/svg">
<g clip-path="url(#clip0_9_269)">
<path d="M8.26196 0.000488281C6.14023 0.000488281 4.1054 0.843343 2.60511 2.34363C1.10482 3.84393 0.261963 5.87876 0.261963 8.00049C0.261963 10.1222 1.10482 12.1571 2.60511 13.6573C4.1054 15.1576 6.14023 16.0005 8.26196 16.0005C10.3837 16.0005 12.4185 15.1576 13.9188 13.6573C15.4191 12.1571 16.262 10.1222 16.262 8.00049C16.262 5.87876 15.4191 3.84393 13.9188 2.34363C12.4185 0.843343 10.3837 0.000488281 8.26196 0.000488281ZM8.26196 1.00049C10.1185 1.00049 11.899 1.73799 13.2117 3.05074C14.5245 4.3635 15.262 6.14397 15.262 8.00049C15.262 9.857 14.5245 11.6375 13.2117 12.9502C11.899 14.263 10.1185 15.0005 8.26196 15.0005C6.40545 15.0005 4.62497 14.263 3.31222 12.9502C1.99946 11.6375 1.26196 9.857 1.26196 8.00049C1.26196 6.14397 1.99946 4.3635 3.31222 3.05074C4.62497 1.73799 6.40545 1.00049 8.26196 1.00049Z" fill="url(#paint0_linear_9_269)"/>
<path d="M8.96999 5.66349C8.96999 6.45682 8.94165 7.17915 8.88499 7.83049C8.82832 8.47249 8.75766 9.11449 8.67299 9.75649H7.85099C7.76632 9.11449 7.69565 8.47249 7.63899 7.83049C7.58232 7.17915 7.55399 6.45682 7.55399 5.66349V3.00049H8.96999V5.66349ZM9.21099 12.0515C9.21099 12.3062 9.12599 12.5282 8.95599 12.7175C8.78666 12.9062 8.55532 13.0005 8.26199 13.0005C7.96865 13.0005 7.73732 12.9062 7.56799 12.7175C7.39799 12.5282 7.31299 12.3062 7.31299 12.0515C7.31299 11.7968 7.39799 11.5748 7.56799 11.3855C7.73799 11.1968 7.96932 11.1025 8.26199 11.1025C8.55532 11.1025 8.78666 11.1968 8.95599 11.3855C9.12599 11.5748 9.21099 11.7968 9.21099 12.0515Z" fill="url(#paint1_linear_9_269)"/>
</g>
<defs>
<linearGradient id="paint0_linear_9_269" x1="0.261963" y1="8.00049" x2="16.262" y2="8.00049" gradientUnits="userSpaceOnUse">
<stop stop-color="#FDFC47"/>
<stop offset="1" stop-color="#24FE41"/>
</linearGradient>
<linearGradient id="paint1_linear_9_269" x1="7.31299" y1="8.00049" x2="9.21099" y2="8.00049" gradientUnits="userSpaceOnUse">
<stop stop-color="#FDFC47"/>
<stop offset="1" stop-color="#24FE41"/>
</linearGradient>
<clipPath id="clip0_9_269">
<rect width="16" height="16" fill="white" transform="translate(0.261963 0.000488281)"/>
</clipPath>
</defs>
</svg>
