<svg width="17" height="16" viewBox="0 0 17 16" fill="none" xmlns="http://www.w3.org/2000/svg">
<g clip-path="url(#clip0_9_280)">
<path d="M8.26196 0.000488281V1.00049H9.26196V2.00049H8.26196V3.00049H9.26196V4.00049H8.26196V5.00049C9.36696 5.00049 10.262 5.90049 10.262 7.00049V11.0005C10.262 12.1005 9.36696 13.0005 8.26196 13.0005C7.15696 13.0005 6.26196 12.1005 6.26196 11.0005V7.00049C6.26196 5.90049 7.15696 5.00049 8.26196 5.00049C7.70996 5.00049 7.26196 4.50049 7.26196 4.00049H8.26196V3.00049H7.26196V2.00049H8.26196V1.00049H7.26196V0.000488281H8.26196ZM8.26196 6.00049C7.70996 6.00049 7.26196 6.40049 7.26196 7.00049C7.26196 7.50049 7.70996 8.00049 8.26196 8.00049C8.81396 8.00049 9.26196 7.50049 9.26196 7.00049C9.26196 6.40049 8.81396 6.00049 8.26196 6.00049ZM8.26196 9.00049C7.70996 9.00049 7.26196 9.40049 7.26196 10.0005V11.0005C7.26196 11.5005 7.70996 12.0005 8.26196 12.0005C8.81396 12.0005 9.26196 11.5005 9.26196 11.0005V10.0005C9.26196 9.40049 8.81396 9.00049 8.26196 9.00049Z" fill="url(#paint0_linear_9_280)"/>
<path d="M3.26196 0.000488281C2.15396 0.000488281 1.26196 0.892488 1.26196 2.00049V14.0005C1.26196 15.1085 2.15396 16.0005 3.26196 16.0005H13.262C14.37 16.0005 15.262 15.1085 15.262 14.0005V2.00049C15.262 0.892488 14.37 0.000488281 13.262 0.000488281H3.26196ZM3.26196 1.00049H13.262C13.816 1.00049 14.262 1.44649 14.262 2.00049V14.0005C14.262 14.5545 13.816 15.0005 13.262 15.0005H3.26196C2.70796 15.0005 2.26196 14.5545 2.26196 14.0005V2.00049C2.26196 1.44649 2.70796 1.00049 3.26196 1.00049Z" fill="url(#paint1_linear_9_280)"/>
</g>
<defs>
<linearGradient id="paint0_linear_9_280" x1="6.26196" y1="6.50049" x2="10.262" y2="6.50049" gradientUnits="userSpaceOnUse">
<stop stop-color="#FDFC47"/>
<stop offset="1" stop-color="#24FE41"/>
</linearGradient>
<linearGradient id="paint1_linear_9_280" x1="1.26196" y1="8.00049" x2="15.262" y2="8.00049" gradientUnits="userSpaceOnUse">
<stop stop-color="#FDFC47"/>
<stop offset="1" stop-color="#24FE41"/>
</linearGradient>
<clipPath id="clip0_9_280">
<rect width="16" height="16" fill="white" transform="translate(0.261963 0.000488281)"/>
</clipPath>
</defs>
</svg>
