<svg width="17" height="16" viewBox="0 0 17 16" fill="none" xmlns="http://www.w3.org/2000/svg">
<g clip-path="url(#clip0_9_285)">
<path d="M15.6859 5.36646C15.3559 4.56694 14.7968 3.88291 14.0789 3.40045C14.472 4.13696 14.7457 4.93117 14.8899 5.75345V5.77045C13.9899 3.58545 12.4489 2.70445 11.1899 0.786455L11.0009 0.486455C10.9659 0.427455 10.9379 0.374455 10.9129 0.325455C10.8609 0.228714 10.8209 0.125944 10.7939 0.019455C10.7937 0.0153963 10.7924 0.0114725 10.7901 0.00811879C10.7878 0.00476505 10.7846 0.00211238 10.7809 0.000454954C10.7748 -0.00194202 10.768 -0.00194202 10.7619 0.000454954L10.7559 0.000454954C9.9892 0.450033 9.33985 1.07478 8.86099 1.82356C8.38214 2.57234 8.08741 3.42387 8.00092 4.30845C8.09492 4.30245 8.18792 4.29446 8.28292 4.29446C8.98982 4.29161 9.68528 4.47299 10.3008 4.82071C10.9162 5.16843 11.4305 5.6705 11.7929 6.27745C11.2247 5.89913 10.5391 5.7383 9.86192 5.82445C10.5289 6.1712 11.0525 6.74168 11.3409 7.43587C11.6294 8.13005 11.6642 8.90362 11.4393 9.62092C11.2145 10.3382 10.7443 10.9535 10.1112 11.3588C9.47805 11.7641 8.72247 11.9335 7.97692 11.8375C7.6217 11.8219 7.27066 11.7545 6.93492 11.6375C6.85692 11.6095 6.77792 11.5785 6.69992 11.5445C6.65392 11.5245 6.60892 11.5045 6.56492 11.4825C6.06266 11.2533 5.62633 10.9011 5.29631 10.4585C4.96629 10.0159 4.75326 9.49723 4.67692 8.95045C4.67692 8.95045 5.04592 7.61646 7.32392 7.61646C7.7349 7.45122 8.07568 7.14826 8.28792 6.75945C7.60938 6.44443 6.95988 6.07032 6.34692 5.64145C6.05692 5.36445 5.91892 5.23046 5.79592 5.13046C5.72992 5.07646 5.66792 5.03046 5.58892 4.97846C5.40666 4.36129 5.39904 3.70569 5.56692 3.08446C4.83183 3.42775 4.17522 3.91858 3.63792 4.52645C3.39045 3.91091 3.29575 3.24458 3.36192 2.58446C3.26868 2.62176 3.17927 2.66797 3.09492 2.72245C2.81531 2.91531 2.55329 3.13249 2.31192 3.37145C2.03895 3.63955 1.78875 3.92988 1.56392 4.23945C1.0491 4.94119 0.681713 5.7399 0.483916 6.58745C0.483916 6.59645 0.407916 6.91245 0.352916 7.30245L0.327916 7.48446C0.308916 7.60146 0.294916 7.72945 0.279916 7.92845V7.95146C0.274916 8.02746 0.268916 8.11145 0.263916 8.20945V8.24945C0.298905 10.3391 1.16217 12.3294 2.66398 13.7828C4.16579 15.2362 6.18324 16.0339 8.27292 16.0005C10.136 16.0244 11.9482 15.3924 13.3924 14.2151C14.8366 13.0378 15.8209 11.3902 16.1729 9.56046L16.2089 9.26046C16.3731 7.93907 16.193 6.59768 15.6859 5.36646Z" fill="url(#paint0_linear_9_285)"/>
</g>
<defs>
<linearGradient id="paint0_linear_9_285" x1="0.263916" y1="8.00006" x2="16.2679" y2="8.00006" gradientUnits="userSpaceOnUse">
<stop stop-color="#FDFC47"/>
<stop offset="1" stop-color="#24FE41"/>
</linearGradient>
<clipPath id="clip0_9_285">
<rect width="16" height="16" fill="white" transform="translate(0.261963 0.000488281)"/>
</clipPath>
</defs>
</svg>
