<svg width="17" height="16" viewBox="0 0 17 16" fill="none" xmlns="http://www.w3.org/2000/svg">
<path d="M11.262 14.0005L8.26196 9.09139H11.262L5.26196 5.00049V12.3641L7.13696 9.50049L9.01196 14.0005H11.262Z" fill="url(#paint0_linear_9_287)"/>
<path d="M3.26196 1.00049C2.15396 1.00049 1.26196 1.89249 1.26196 3.00049V13.0005C1.26196 14.1085 2.15396 15.0005 3.26196 15.0005H13.262C14.37 15.0005 15.262 14.1085 15.262 13.0005V3.00049C15.262 1.89249 14.37 1.00049 13.262 1.00049H3.26196ZM3.26196 2.00049H13.262C13.816 2.00049 14.262 2.44649 14.262 3.00049V13.0005C14.262 13.5545 13.816 14.0005 13.262 14.0005H3.26196C2.70796 14.0005 2.26196 13.5545 2.26196 13.0005V3.00049C2.26196 2.44649 2.70796 2.00049 3.26196 2.00049Z" fill="url(#paint1_linear_9_287)"/>
<defs>
<linearGradient id="paint0_linear_9_287" x1="5.26196" y1="9.50049" x2="11.262" y2="9.50049" gradientUnits="userSpaceOnUse">
<stop stop-color="#FDFC47"/>
<stop offset="1" stop-color="#24FE41"/>
</linearGradient>
<linearGradient id="paint1_linear_9_287" x1="1.26196" y1="8.00049" x2="15.262" y2="8.00049" gradientUnits="userSpaceOnUse">
<stop stop-color="#FDFC47"/>
<stop offset="1" stop-color="#24FE41"/>
</linearGradient>
</defs>
</svg>
