<svg width="17" height="16" viewBox="0 0 17 16" fill="none" xmlns="http://www.w3.org/2000/svg">
<g clip-path="url(#clip0_9_290)">
<path d="M4.25596 2.00049C2.99796 2.01549 2.07696 1.97049 1.32496 2.38549C0.935578 2.60761 0.638377 2.96155 0.486963 3.38349C0.321963 3.82249 0.261963 4.34349 0.261963 5.00049V12.0005C0.261963 12.6585 0.321963 13.1795 0.486963 13.6175C0.650963 14.0565 0.947963 14.4075 1.32496 14.6155C2.07696 15.0315 2.99796 14.9855 4.25596 15.0005H12.268C13.526 14.9865 14.447 15.0305 15.2 14.6155C15.5893 14.3934 15.8865 14.0394 16.038 13.6175C16.202 13.1795 16.262 12.6575 16.262 12.0005V5.00049C16.262 4.34249 16.202 3.82249 16.037 3.38349C15.8858 2.96171 15.589 2.60779 15.2 2.38549C14.447 1.96949 13.526 2.01549 12.268 2.00049H4.25996H4.25596ZM4.26196 3.00049H12.262C13.521 3.01549 14.349 3.06049 14.715 3.26249C14.899 3.36349 15.005 3.47549 15.102 3.73449C15.199 3.99449 15.262 4.40849 15.262 5.00049V12.0005H1.26196V5.00049C1.26196 4.40849 1.32496 3.99449 1.42196 3.73449C1.51996 3.47449 1.62396 3.36349 1.80696 3.26249C2.17196 3.06049 3.00196 3.01549 4.26196 3.00049Z" fill="url(#paint0_linear_9_290)"/>
</g>
<defs>
<linearGradient id="paint0_linear_9_290" x1="0.261963" y1="8.50049" x2="16.262" y2="8.50049" gradientUnits="userSpaceOnUse">
<stop stop-color="#FDFC47"/>
<stop offset="1" stop-color="#24FE41"/>
</linearGradient>
<clipPath id="clip0_9_290">
<rect width="16" height="16" fill="white" transform="translate(0.261963 0.000488281)"/>
</clipPath>
</defs>
</svg>
