<svg width="17" height="16" viewBox="0 0 17 16" fill="none" xmlns="http://www.w3.org/2000/svg">
<g clip-path="url(#clip0_9_306)">
<path d="M5.25596 0.000488281C3.99796 0.0154883 3.07696 -0.0285117 2.32496 0.387488C1.93565 0.608768 1.6384 0.962068 1.48696 1.38349C1.32196 1.82149 1.26196 2.34349 1.26196 3.00049V13.0005C1.26196 13.6585 1.32196 14.1795 1.48696 14.6175C1.65096 15.0565 1.94796 15.4075 2.32496 15.6155C3.07696 16.0305 3.99796 15.9855 5.25596 16.0005H10.268C11.526 15.9855 12.447 16.0305 13.2 15.6155C13.5893 15.3934 13.8866 15.0394 14.038 14.6175C14.202 14.1795 14.262 13.6575 14.262 13.0005V3.00049C14.262 2.34249 14.202 1.82349 14.038 1.38549C13.8866 0.963548 13.5893 0.609608 13.2 0.387488C12.447 -0.0275117 11.526 0.0154883 10.268 0.000488281H5.25796H5.25596ZM5.26196 1.00049H10.262C11.521 1.01549 12.349 1.06049 12.715 1.26249C12.899 1.36249 13.005 1.47549 13.102 1.73449C13.2 1.99449 13.262 2.40849 13.262 3.00049V13.0005C13.262 13.5925 13.2 14.0065 13.102 14.2665C13.004 14.5265 12.899 14.6395 12.715 14.7405C12.349 14.9425 11.521 14.9855 10.262 15.0005H5.26196C4.00296 14.9855 3.17196 14.9405 2.80696 14.7385C2.62396 14.6385 2.51996 14.5255 2.42196 14.2665C2.32496 14.0065 2.26196 13.5925 2.26196 13.0005V3.00049C2.26196 2.40849 2.32496 1.99449 2.42196 1.73449C2.51996 1.47449 2.62396 1.36349 2.80696 1.26249C3.17296 1.06049 4.00396 1.01549 5.26196 1.00049ZM4.51396 3.16449C3.84729 3.16449 3.84729 4.16449 4.51396 4.16449H7.01396V5.16449H4.51396C4.23696 5.16449 4.01396 5.38749 4.01396 5.66449V9.66449C4.01396 9.94149 4.23696 10.1645 4.51396 10.1645H6.13896L4.77796 12.1645C4.43796 12.6645 4.79596 13.1645 5.07296 13.1645C5.51396 13.1645 5.82496 12.8945 5.97896 12.6645L7.01396 11.1115V12.6645C7.01396 13.3312 8.01396 13.3312 8.01396 12.6645V11.1115L9.04896 12.6645C9.20296 12.8945 9.51396 13.1645 9.95496 13.1645C10.232 13.1645 10.59 12.6645 10.25 12.1645L8.88896 10.1645H10.514C10.791 10.1645 11.014 9.94149 11.014 9.66449V5.66449C11.014 5.38749 10.791 5.16449 10.514 5.16449H8.01396V4.16449H10.514C11.1806 4.16449 11.1806 3.16449 10.514 3.16449H7.51396H4.51396ZM5.26396 6.16449H7.01396V7.16449H5.26396C5.12589 7.16449 5.01396 7.05256 5.01396 6.91449V6.41449C5.01396 6.27642 5.12589 6.16449 5.26396 6.16449ZM8.01396 6.16449H9.76396C9.90203 6.16449 10.014 6.27642 10.014 6.41449V6.91449C10.014 7.05256 9.90203 7.16449 9.76396 7.16449H8.01396V6.16449ZM5.26396 8.16449H7.01396V9.16449H5.26396C5.12589 9.16449 5.01396 9.05256 5.01396 8.91449V8.41449C5.01396 8.27642 5.12589 8.16449 5.26396 8.16449ZM8.01396 8.16449H9.76396C9.90203 8.16449 10.014 8.27642 10.014 8.41449V8.91449C10.014 9.05256 9.90203 9.16449 9.76396 9.16449H8.01396V8.16449Z" fill="url(#paint0_linear_9_306)"/>
</g>
<defs>
<linearGradient id="paint0_linear_9_306" x1="1.26196" y1="8.00049" x2="14.262" y2="8.00049" gradientUnits="userSpaceOnUse">
<stop stop-color="#FDFC47"/>
<stop offset="1" stop-color="#24FE41"/>
</linearGradient>
<clipPath id="clip0_9_306">
<rect width="16" height="16" fill="white" transform="translate(0.261963 0.000488281)"/>
</clipPath>
</defs>
</svg>
