<svg width="17" height="16" viewBox="0 0 17 16" fill="none" xmlns="http://www.w3.org/2000/svg">
<path d="M10.262 1.00049V2.00049H6.26196V1.00049H10.262ZM12.262 3.00049C13.262 3.00049 13.262 4.00049 13.262 4.00049V8.06349C14.403 8.29549 15.262 9.28849 15.262 10.5005V11.0005H14.262V13.0005H13.262V11.0005H12.262V13.0005H11.262V11.0005H10.262V10.5005C10.262 9.28849 11.121 8.29549 12.262 8.06249V4.00049H4.26196V14.0005H13.262C13.262 15.0005 12.262 15.0005 12.262 15.0005H4.26196C3.26196 15.0005 3.26196 14.0005 3.26196 14.0005V4.00049C3.26196 4.00049 3.26196 3.00049 4.26196 3.00049H6.26196H12.262ZM11.262 5.00049V7.56349C10.142 8.14449 9.26196 9.15549 9.26196 10.5005V12.0005H10.262V13.0005H5.26196V5.00049H7.26196H11.262Z" fill="url(#paint0_linear_9_310)"/>
<defs>
<linearGradient id="paint0_linear_9_310" x1="3.26196" y1="8.00049" x2="15.262" y2="8.00049" gradientUnits="userSpaceOnUse">
<stop stop-color="#FDFC47"/>
<stop offset="1" stop-color="#24FE41"/>
</linearGradient>
</defs>
</svg>
