<svg width="17" height="16" viewBox="0 0 17 16" fill="none" xmlns="http://www.w3.org/2000/svg">
<g clip-path="url(#clip0_9_315)">
<path d="M7.26185 3.0005C8.24223 3.00063 9.20093 3.28897 10.0187 3.82965C10.8365 4.37034 11.4773 5.13951 11.8615 6.0415C11.9932 6.0144 12.1273 6.00066 12.2618 6.00049C12.7923 6.00049 13.301 6.2112 13.6761 6.58627C14.0511 6.96135 14.2618 7.47006 14.2618 8.00049C14.2614 8.01742 14.2607 8.03435 14.2598 8.05127C15.4048 8.28075 16.2618 9.28597 16.2618 10.5005C16.2618 11.8855 15.1468 13.0005 13.7618 13.0005H2.76184C1.37684 13.0005 0.261841 11.8855 0.261841 10.5005C0.261841 9.28597 1.11878 8.28077 2.26384 8.05127C2.26309 8.03435 2.26242 8.01742 2.26184 8.00049C2.26184 6.67441 2.78863 5.40264 3.72631 4.46495C4.66399 3.52727 5.93577 3.0005 7.26185 3.0005ZM7.32826 4.0005C7.30612 4.00032 7.28399 4.00032 7.26185 4.0005C6.20098 4.0005 5.18357 4.42193 4.43342 5.17208C3.68328 5.92222 3.26185 6.93964 3.26185 8.0005C3.26374 8.33811 3.30837 8.67411 3.39466 9.0005H2.76185C1.93085 9.0005 1.26185 9.6695 1.26185 10.5005C1.26185 11.3315 1.93085 12.0005 2.76185 12.0005H13.7619C14.5929 12.0005 15.2619 11.3315 15.2619 10.5005C15.2619 9.6695 14.5929 9.0005 13.7619 9.0005H13.2619V8.0005C13.2619 7.73529 13.1565 7.48093 12.969 7.2934C12.7814 7.10586 12.5271 7.0005 12.2619 7.0005H11.1291C10.9106 6.15373 10.4206 5.40188 9.73415 4.86007C9.04771 4.31825 8.20262 4.01632 7.32826 4.0005Z" fill="url(#paint0_linear_9_315)"/>
</g>
<defs>
<linearGradient id="paint0_linear_9_315" x1="0.261841" y1="8.00048" x2="16.2618" y2="8.00048" gradientUnits="userSpaceOnUse">
<stop stop-color="#FDFC47"/>
<stop offset="1" stop-color="#24FE41"/>
</linearGradient>
<clipPath id="clip0_9_315">
<rect width="16" height="16" fill="white" transform="translate(0.261963 0.000488281)"/>
</clipPath>
</defs>
</svg>
