<svg width="17" height="16" viewBox="0 0 17 16" fill="none" xmlns="http://www.w3.org/2000/svg">
<path d="M8.26196 5.00049C9.36196 5.00049 10.262 5.90049 10.262 7.00049C10.262 8.10049 9.36196 9.00049 8.26196 9.00049V10.0005H7.26196V8.00049H8.26196C8.81196 8.00049 9.26196 7.55049 9.26196 7.00049C9.26196 6.45049 8.81196 6.00049 8.26196 6.00049C7.71196 6.00049 7.26196 6.45049 7.26196 7.00049H6.26196C6.26196 5.90049 7.16196 5.00049 8.26196 5.00049ZM7.26196 11.0005H8.26196V12.0005H7.26196V11.0005Z" fill="url(#paint0_linear_9_322)"/>
<path d="M4.26196 1.00049C3.15396 1.00049 2.26196 1.89249 2.26196 3.00049V14.0005C2.26196 15.1085 3.15396 16.0005 4.26196 16.0005H12.262C13.37 16.0005 14.262 15.1085 14.262 14.0005V3.00049C14.262 1.89249 13.37 1.00049 12.262 1.00049H4.26196ZM4.26196 2.00049H12.262C12.816 2.00049 13.262 2.44649 13.262 3.00049V14.0005C13.262 14.5545 12.816 15.0005 12.262 15.0005H4.26196C3.70796 15.0005 3.26196 14.5545 3.26196 14.0005V3.00049C3.26196 2.44649 3.70796 2.00049 4.26196 2.00049Z" fill="url(#paint1_linear_9_322)"/>
<defs>
<linearGradient id="paint0_linear_9_322" x1="6.26196" y1="8.50049" x2="10.262" y2="8.50049" gradientUnits="userSpaceOnUse">
<stop stop-color="#FDFC47"/>
<stop offset="1" stop-color="#24FE41"/>
</linearGradient>
<linearGradient id="paint1_linear_9_322" x1="2.26196" y1="8.50049" x2="14.262" y2="8.50049" gradientUnits="userSpaceOnUse">
<stop stop-color="#FDFC47"/>
<stop offset="1" stop-color="#24FE41"/>
</linearGradient>
</defs>
</svg>
