<svg width="17" height="16" viewBox="0 0 17 16" fill="none" xmlns="http://www.w3.org/2000/svg">
<g clip-path="url(#clip0_9_334)">
<path d="M8.262 0.000488281C7.812 0.000488281 7.362 0.170488 7.022 0.530488L0.832002 6.91049C0.492002 7.26049 0.312002 7.72049 0.302002 8.18049V8.21049C0.302002 9.58049 3.952 8.25049 4.282 9.92049C4.462 10.8305 2.292 10.4105 2.292 11.3205C2.292 12.3905 5.362 11.6605 6.242 12.5305C6.602 13.4105 5.062 13.2705 5.342 14.0905C5.852 14.6205 7.012 14.3205 7.232 15.1805C7.492 16.1605 9.152 15.9905 10.122 15.2705C10.642 14.7405 9.332 14.5005 9.842 13.9605C10.362 13.4305 12.902 13.5405 12.922 12.3805C12.682 11.6505 11.722 11.5305 11.712 10.6705C11.662 9.94049 12.492 10.1505 15.132 9.43049C16.182 8.93049 16.222 8.67049 16.222 8.21049V8.18049C16.212 7.72049 16.002 7.26049 15.662 6.91049L9.502 0.530488C9.152 0.170488 8.712 0.000488281 8.262 0.000488281ZM8.382 1.34049C8.852 1.34049 10.132 2.92049 11.272 4.11049C11.602 4.54049 11.152 4.98049 11.152 4.98049L8.762 3.67049L7.702 5.10049L6.772 3.70049L6.212 5.88049L4.562 4.89049L5.002 4.33049L7.582 1.68049C7.772 1.48049 7.932 1.34049 8.382 1.34049ZM15.472 10.9205C15.342 10.9105 15.222 10.9205 15.132 10.9505C14.962 11.0005 14.162 11.0305 14.232 11.6305C14.952 11.9405 16.052 12.1805 16.182 11.5705C16.282 11.1205 15.852 10.9305 15.472 10.9205ZM3.132 12.9405C3.062 12.9505 3.012 12.9705 2.952 13.0005C2.402 13.2105 2.032 13.6505 2.542 13.8405C3.052 14.0305 3.402 13.8305 3.852 13.5905C4.302 13.3505 4.282 13.3105 4.252 13.2205C4.192 13.2305 3.782 12.9805 3.352 12.9405C3.27901 12.9305 3.20499 12.9305 3.132 12.9405Z" fill="url(#paint0_linear_9_334)"/>
</g>
<defs>
<linearGradient id="paint0_linear_9_334" x1="0.302002" y1="7.93191" x2="16.222" y2="7.93191" gradientUnits="userSpaceOnUse">
<stop stop-color="#FDFC47"/>
<stop offset="1" stop-color="#24FE41"/>
</linearGradient>
<clipPath id="clip0_9_334">
<rect width="16" height="16" fill="white" transform="translate(0.261963 0.000488281)"/>
</clipPath>
</defs>
</svg>
