<svg width="17" height="16" viewBox="0 0 17 16" fill="none" xmlns="http://www.w3.org/2000/svg">
<g clip-path="url(#clip0_9_336)">
<path d="M10.262 5.0005C8.67066 5.0005 7.14454 5.52728 6.01932 6.46496C4.8941 7.40265 4.26196 8.67442 4.26196 10.0005C4.26196 11.3266 4.8941 12.5983 6.01932 13.536C7.14454 14.4737 8.67066 15.0005 10.262 15.0005C10.6601 15.0002 11.0572 14.9668 11.4475 14.9009C12.0467 15.3776 12.9355 15.8492 14.262 16.0005C13.7455 15.3813 13.489 14.8025 13.3635 14.2798C14.2478 13.8348 14.9793 13.207 15.4871 12.4573C15.9949 11.7076 16.2618 10.8614 16.2619 10.0005C16.2619 8.67441 15.6298 7.40264 14.5046 6.46495C13.3793 5.52727 11.8533 5.0005 10.262 5.0005ZM10.262 6.0005C11.588 6.0005 12.8598 6.42193 13.7975 7.17207C14.7352 7.92222 15.262 8.93963 15.262 10.0005C15.262 11.0614 14.7352 12.0788 13.7975 12.8289C12.8598 13.5791 11.588 14.0005 10.262 14.0005C8.93588 14.0005 7.66411 13.5791 6.72643 12.8289C5.78875 12.0788 5.26196 11.0614 5.26196 10.0005C5.26196 8.93963 5.78875 7.92222 6.72643 7.17207C7.66411 6.42193 8.93588 6.0005 10.262 6.0005Z" fill="url(#paint0_linear_9_336)"/>
<path d="M6.26196 0.000518281C4.67066 0.000518281 3.14454 0.527303 2.01932 1.46498C0.894104 2.40267 0.261963 3.67444 0.261963 5.00052C0.262134 5.86139 0.529029 6.70765 1.03681 7.45735C1.54459 8.20705 2.27604 8.8348 3.16036 9.27982C3.0349 9.80248 2.77834 10.3813 2.26192 11.0005C2.7088 10.9496 3.09037 10.8543 3.44352 10.7427C3.32307 10.3354 3.26213 9.91865 3.26188 9.50051C3.26201 9.09578 3.319 8.69231 3.4318 8.29741C2.76286 7.92998 2.21575 7.43782 1.8377 6.86342C1.45966 6.28903 1.26204 5.64966 1.2619 5.00051C1.2619 3.93964 1.78869 2.92223 2.72637 2.17208C3.66405 1.42194 4.93582 1.00051 6.2619 1.00051C7.37932 1.00063 8.46449 1.30019 9.34421 1.85139C10.2239 2.40259 10.8475 3.17364 11.1154 4.04151C11.4773 4.07681 11.8352 4.13428 12.1857 4.21339C11.961 3.03876 11.2412 1.96936 10.1555 1.19721C9.06973 0.42507 7.68931 0.000793935 6.26196 0.000518281Z" fill="url(#paint1_linear_9_336)"/>
</g>
<defs>
<linearGradient id="paint0_linear_9_336" x1="4.26196" y1="10.5005" x2="16.2619" y2="10.5005" gradientUnits="userSpaceOnUse">
<stop stop-color="#FDFC47"/>
<stop offset="1" stop-color="#24FE41"/>
</linearGradient>
<linearGradient id="paint1_linear_9_336" x1="0.261963" y1="5.5005" x2="12.1857" y2="5.5005" gradientUnits="userSpaceOnUse">
<stop stop-color="#FDFC47"/>
<stop offset="1" stop-color="#24FE41"/>
</linearGradient>
<clipPath id="clip0_9_336">
<rect width="16" height="16" fill="white" transform="translate(0.261963 0.000488281)"/>
</clipPath>
</defs>
</svg>
