<svg width="17" height="16" viewBox="0 0 17 16" fill="none" xmlns="http://www.w3.org/2000/svg">
<path d="M4.26196 4.02344H4.92796C8.97846 4.02344 12.262 7.30694 12.262 11.3574V12.0234H10.928V11.3574C10.928 8.04374 8.24166 5.35744 4.92796 5.35744C4.56396 5.35744 4.26196 5.37544 4.26196 5.35744V4.02344ZM4.26196 6.69044H4.92796C7.50576 6.69099 9.59536 8.78064 9.59596 11.3584V12.0244H8.26196V11.3584C8.26196 9.51714 6.76926 8.02444 4.92796 8.02444H4.26196V6.69044ZM5.59596 9.35844C6.78366 9.35933 7.37706 10.7956 6.53678 11.6346C5.69645 12.4737 4.26108 11.8781 4.26198 10.6904C4.26198 9.95441 4.85996 9.35844 5.59596 9.35844Z" fill="url(#paint0_linear_9_341)"/>
<path d="M3.26196 1.00049C2.15396 1.00049 1.26196 1.89249 1.26196 3.00049V13.0005C1.26196 14.1085 2.15396 15.0005 3.26196 15.0005H13.262C14.37 15.0005 15.262 14.1085 15.262 13.0005V3.00049C15.262 1.89249 14.37 1.00049 13.262 1.00049H3.26196ZM3.26196 2.00049H13.262C13.816 2.00049 14.262 2.44649 14.262 3.00049V13.0005C14.262 13.5545 13.816 14.0005 13.262 14.0005H3.26196C2.70796 14.0005 2.26196 13.5545 2.26196 13.0005V3.00049C2.26196 2.44649 2.70796 2.00049 3.26196 2.00049Z" fill="url(#paint1_linear_9_341)"/>
<defs>
<linearGradient id="paint0_linear_9_341" x1="4.26196" y1="8.02524" x2="12.262" y2="8.02524" gradientUnits="userSpaceOnUse">
<stop stop-color="#FDFC47"/>
<stop offset="1" stop-color="#24FE41"/>
</linearGradient>
<linearGradient id="paint1_linear_9_341" x1="1.26196" y1="8.00049" x2="15.262" y2="8.00049" gradientUnits="userSpaceOnUse">
<stop stop-color="#FDFC47"/>
<stop offset="1" stop-color="#24FE41"/>
</linearGradient>
</defs>
</svg>
