<svg width="17" height="16" viewBox="0 0 17 16" fill="none" xmlns="http://www.w3.org/2000/svg">
<g clip-path="url(#clip0_9_344)">
<path d="M8.26196 0.000488281C6.14023 0.000488281 4.1054 0.843343 2.60511 2.34363C1.10482 3.84393 0.261963 5.87876 0.261963 8.00049C0.261963 12.4185 3.49196 15.0725 7.27396 15.9005L7.29396 15.0455C6.18096 14.9325 6.05396 14.7295 5.10596 14.2505C5.15696 14.2105 5.23096 14.1565 5.23096 14.1565L5.16796 14.0315L5.38696 13.8135L5.44896 13.5935L5.79296 13.5005L6.04296 12.8135L5.98096 12.6565L6.13696 12.3765L6.54296 12.2815L6.73096 11.8135L6.69896 11.1885L7.01196 10.7505L7.04296 10.3135C6.61696 10.0975 6.21596 9.87949 5.79296 9.65649L5.57396 9.21949L5.19896 9.12549L4.98096 8.56349L4.48096 8.62549L4.01096 8.28149L3.54296 8.71949V8.78149C3.40196 8.74049 3.23196 8.73549 3.10596 8.65649L3.01196 8.34449V8.03149L2.69896 8.06349C2.72496 7.85349 2.76696 7.61649 2.79296 7.40649H2.60596L2.41796 7.65649L2.23096 7.75049L1.98096 7.59449L1.94896 7.28149L1.98096 6.90649L2.38696 6.62649H2.69896L2.76196 6.43849L3.13696 6.53149L3.41796 6.87549L3.48096 6.28149L3.98096 5.87549L4.13696 5.40649L4.51196 5.25049L4.73096 4.96949L5.19896 4.87549L5.41896 4.50049H4.73096L5.16796 4.31349H5.48096L5.88696 4.15649L5.94896 4.56349L6.13696 4.28149L5.91796 4.12549L5.98096 3.96949L5.82396 3.81349L5.63696 3.78149L5.69896 3.59449L5.54296 3.31349L5.23096 3.43849L5.29296 3.18849L4.91796 2.96849L4.63696 3.50049L4.66796 3.65649L4.38696 3.78149L4.19896 4.18849L4.13696 3.81349L3.63696 3.62549L3.54296 3.34449L4.19896 2.96949L4.48096 2.68849L4.51096 2.34449L4.35596 2.25049H4.29296C4.52096 2.09249 4.73496 1.94349 4.98096 1.81349V1.90649L4.76096 2.09449L4.60596 2.46949H4.91796L5.01196 2.21949L5.04296 2.15649C5.16896 2.06649 5.28996 1.96249 5.41796 1.87649L5.73096 1.96949C5.92496 2.10449 6.09896 2.24149 6.29296 2.37549L6.60596 2.09449L6.26196 1.96949L6.13696 1.65649L5.57396 1.59449V1.53149C5.58396 1.52749 5.59596 1.53549 5.60496 1.53149L5.79296 1.59449L5.94896 1.43849L6.22996 1.37549C6.30096 1.34049 6.37796 1.31049 6.44996 1.28149L6.26196 1.46949L6.91796 1.93849V2.21949L6.66796 2.50049L7.01196 3.18849L7.26196 3.06349L7.54296 2.59449C7.96296 2.46249 8.36596 2.30849 8.76196 2.12549L8.73096 2.31349L8.91796 2.43849L9.26196 2.18849L9.10596 2.00049L8.85596 2.12549L8.82396 2.09449L9.16796 1.15749L8.82396 1.03249C10.0479 1.12773 11.2241 1.54822 12.231 2.25049L11.949 2.18849L11.606 2.06349L11.106 2.18849L10.793 2.40749V2.59449L10.262 2.93849L10.387 3.43849L10.668 3.21949L10.856 3.43849L11.074 3.56349L11.199 3.18849L11.137 2.96949L11.199 2.81349L11.512 2.53249H11.637L11.512 2.84449V3.12549C11.635 3.09149 11.761 3.07949 11.887 3.06349L11.543 3.31349L11.512 3.46949L11.106 3.81349L10.699 3.71949V3.46949L10.512 3.59449L10.606 3.81349H10.293L10.137 4.09449L9.94896 4.31349L9.57396 4.37549L9.79396 4.59549L9.85596 4.81349L9.60796 4.78049L10.045 5.18649L10.262 5.06349L10.293 4.93849L10.699 4.84449L10.918 5.09449L11.168 5.21949L11.012 5.50049L11.231 5.43849L11.356 5.15749L11.074 4.84449H11.199L11.449 5.06349L11.512 5.37549L11.731 5.65749L11.793 5.25049L11.918 5.18849C12.05 5.32849 12.15 5.49849 12.262 5.65749L12.699 5.68749L12.918 5.84449L12.824 6.00049L12.574 6.22049H12.231L11.761 6.06349L11.543 6.09449L11.356 6.28249L10.856 5.78249L10.52 5.69049L13.799 8.96749C13.799 8.96749 13.967 8.83149 14.324 8.65749V8.43749C14.164 8.45849 14.013 8.48949 13.856 8.50049L14.168 8.15749L14.606 7.84449L14.856 7.56349V7.28249C14.802 7.17849 14.753 7.04149 14.699 6.93849L14.481 7.21949L14.324 7.00049L14.074 6.81349V6.43849L14.356 6.75049L14.668 6.72049C14.808 6.84949 14.951 6.94649 15.074 7.09449L15.168 6.96949C15.218 7.30749 15.262 7.64949 15.262 8.00049C15.149 9.12449 15.298 9.15549 14.783 10.0965L15.455 10.8865C16.153 9.74349 16.249 9.51649 16.262 8.00049C16.262 5.87876 15.4191 3.84393 13.9188 2.34363C12.4185 0.843343 10.3837 0.000488281 8.26196 0.000488281ZM10.52 5.69049L10.485 5.65449L10.512 5.68749L10.52 5.69049ZM5.01196 2.21949L5.29296 2.43749H5.54296V2.18749L5.26196 2.06249L5.01196 2.21949ZM4.07396 2.40649L4.01196 2.56349C4.01196 2.56349 3.90896 2.57749 3.82396 2.59349C3.90496 2.52749 3.99096 2.46949 4.07396 2.40649ZM12.512 2.43749C12.577 2.48749 12.636 2.54249 12.699 2.59449L12.449 2.87449L12.106 2.50049H12.449L12.512 2.43749ZM9.48096 2.84449V3.03149L9.60596 3.18749V3.46949L9.54296 3.87549L9.85596 3.81249L10.106 3.59449L9.88596 3.37449C9.82203 3.19436 9.74927 3.01748 9.66796 2.84449H9.48096ZM9.19896 3.25049L9.01196 3.31249L9.04296 3.68749L9.32396 3.53149L9.19896 3.25049ZM8.26196 4.84249V15.2225L10.606 12.9345L11.946 15.6685C12.274 16.4085 13.979 15.8135 13.494 14.8245L12.168 11.9865H15.128L8.26196 4.84249ZM12.856 6.59449L13.136 6.93749L13.512 7.71949L13.731 7.96949L13.606 8.24949L13.824 8.49949C13.734 8.50649 13.637 8.49949 13.544 8.49949C13.3768 8.13341 13.2306 7.75814 13.106 7.37549L12.886 7.12549L12.762 6.65649L12.856 6.59449ZM1.29296 7.50049C1.33496 7.60049 1.51196 7.90649 1.51196 7.90649L2.04296 8.21949L2.60596 8.37549L2.82396 8.68849L3.19896 8.96849L3.38696 8.90649L3.54296 9.00049V9.03149L3.35596 9.62549L3.19896 9.84449L3.23096 9.96949L3.10596 10.4375L3.57396 11.2815L4.04396 11.7195L4.26196 11.9995L4.23096 12.6565L4.38696 13.0005L4.23096 13.6875C4.23096 13.6875 4.23296 13.7115 4.23096 13.7195C3.31446 13.0732 2.56641 12.2164 2.04961 11.2211C1.53281 10.2257 1.26236 9.12097 1.26096 7.99949C1.26096 7.83249 1.28096 7.66649 1.29296 7.50049Z" fill="url(#paint0_linear_9_344)"/>
</g>
<defs>
<linearGradient id="paint0_linear_9_344" x1="0.261963" y1="8.00017" x2="16.262" y2="8.00017" gradientUnits="userSpaceOnUse">
<stop stop-color="#FDFC47"/>
<stop offset="1" stop-color="#24FE41"/>
</linearGradient>
<clipPath id="clip0_9_344">
<rect width="16" height="16" fill="white" transform="translate(0.261963 0.000488281)"/>
</clipPath>
</defs>
</svg>
