<svg width="17" height="16" viewBox="0 0 17 16" fill="none" xmlns="http://www.w3.org/2000/svg">
<g clip-path="url(#clip0_9_346)">
<path d="M4.76196 4.00049C4.48496 4.00049 4.26196 4.22349 4.26196 4.50049V11.5005C4.26196 11.7775 4.48496 12.0005 4.76196 12.0005H11.762C12.039 12.0005 12.262 11.7775 12.262 11.5005V4.50049C12.262 4.22349 12.039 4.00049 11.762 4.00049H4.76196ZM5.26196 5.00049H11.262V11.0005H5.26196V5.00049Z" fill="url(#paint0_linear_9_346)"/>
<path d="M5.76196 0.000488281H4.76196C4.48582 0.000488281 4.26196 0.224346 4.26196 0.500488V2.50049C4.26196 2.77663 4.48582 3.00049 4.76196 3.00049H5.76196C6.03811 3.00049 6.26196 2.77663 6.26196 2.50049V0.500488C6.26196 0.224346 6.03811 0.000488281 5.76196 0.000488281Z" fill="url(#paint1_linear_9_346)"/>
<path d="M8.76196 0.000488281H7.76196C7.48582 0.000488281 7.26196 0.224346 7.26196 0.500488V2.50049C7.26196 2.77663 7.48582 3.00049 7.76196 3.00049H8.76196C9.03811 3.00049 9.26196 2.77663 9.26196 2.50049V0.500488C9.26196 0.224346 9.03811 0.000488281 8.76196 0.000488281Z" fill="url(#paint2_linear_9_346)"/>
<path d="M11.762 0.000488281H10.762C10.4858 0.000488281 10.262 0.224346 10.262 0.500488V2.50049C10.262 2.77663 10.4858 3.00049 10.762 3.00049H11.762C12.0381 3.00049 12.262 2.77663 12.262 2.50049V0.500488C12.262 0.224346 12.0381 0.000488281 11.762 0.000488281Z" fill="url(#paint3_linear_9_346)"/>
<path d="M5.76196 13.0005H4.76196C4.48582 13.0005 4.26196 13.2243 4.26196 13.5005V15.5005C4.26196 15.7766 4.48582 16.0005 4.76196 16.0005H5.76196C6.03811 16.0005 6.26196 15.7766 6.26196 15.5005V13.5005C6.26196 13.2243 6.03811 13.0005 5.76196 13.0005Z" fill="url(#paint4_linear_9_346)"/>
<path d="M8.76196 13.0005H7.76196C7.48582 13.0005 7.26196 13.2243 7.26196 13.5005V15.5005C7.26196 15.7766 7.48582 16.0005 7.76196 16.0005H8.76196C9.03811 16.0005 9.26196 15.7766 9.26196 15.5005V13.5005C9.26196 13.2243 9.03811 13.0005 8.76196 13.0005Z" fill="url(#paint5_linear_9_346)"/>
<path d="M11.762 13.0005H10.762C10.4858 13.0005 10.262 13.2243 10.262 13.5005V15.5005C10.262 15.7766 10.4858 16.0005 10.762 16.0005H11.762C12.0381 16.0005 12.262 15.7766 12.262 15.5005V13.5005C12.262 13.2243 12.0381 13.0005 11.762 13.0005Z" fill="url(#paint6_linear_9_346)"/>
<path d="M13.262 4.50049V5.50049C13.262 5.77663 13.4858 6.00049 13.762 6.00049H15.762C16.0381 6.00049 16.262 5.77663 16.262 5.50049V4.50049C16.262 4.22435 16.0381 4.00049 15.762 4.00049H13.762C13.4858 4.00049 13.262 4.22435 13.262 4.50049Z" fill="url(#paint7_linear_9_346)"/>
<path d="M13.262 7.50049V8.50049C13.262 8.77663 13.4858 9.00049 13.762 9.00049H15.762C16.0381 9.00049 16.262 8.77663 16.262 8.50049V7.50049C16.262 7.22435 16.0381 7.00049 15.762 7.00049H13.762C13.4858 7.00049 13.262 7.22435 13.262 7.50049Z" fill="url(#paint8_linear_9_346)"/>
<path d="M13.262 10.5005V11.5005C13.262 11.7766 13.4858 12.0005 13.762 12.0005H15.762C16.0381 12.0005 16.262 11.7766 16.262 11.5005V10.5005C16.262 10.2243 16.0381 10.0005 15.762 10.0005H13.762C13.4858 10.0005 13.262 10.2243 13.262 10.5005Z" fill="url(#paint9_linear_9_346)"/>
<path d="M0.261963 4.50049L0.261963 5.50049C0.261963 5.77663 0.485821 6.00049 0.761963 6.00049H2.76196C3.03811 6.00049 3.26196 5.77663 3.26196 5.50049V4.50049C3.26196 4.22435 3.03811 4.00049 2.76196 4.00049H0.761963C0.485821 4.00049 0.261963 4.22435 0.261963 4.50049Z" fill="url(#paint10_linear_9_346)"/>
<path d="M0.261963 7.50049L0.261963 8.50049C0.261963 8.77663 0.485821 9.00049 0.761963 9.00049H2.76196C3.03811 9.00049 3.26196 8.77663 3.26196 8.50049V7.50049C3.26196 7.22435 3.03811 7.00049 2.76196 7.00049H0.761963C0.485821 7.00049 0.261963 7.22435 0.261963 7.50049Z" fill="url(#paint11_linear_9_346)"/>
<path d="M0.261963 10.5005L0.261963 11.5005C0.261963 11.7766 0.485821 12.0005 0.761963 12.0005H2.76196C3.03811 12.0005 3.26196 11.7766 3.26196 11.5005V10.5005C3.26196 10.2243 3.03811 10.0005 2.76196 10.0005H0.761963C0.485821 10.0005 0.261963 10.2243 0.261963 10.5005Z" fill="url(#paint12_linear_9_346)"/>
<path d="M4.26196 2.00049C3.15396 2.00049 2.26196 2.89249 2.26196 4.00049V12.0005C2.26196 13.1085 3.15396 14.0005 4.26196 14.0005H12.262C13.37 14.0005 14.262 13.1085 14.262 12.0005V4.00049C14.262 2.89249 13.37 2.00049 12.262 2.00049H4.26196ZM4.76196 3.00049H11.762C12.593 3.00049 13.262 3.66949 13.262 4.50049V11.5005C13.262 12.3315 12.593 13.0005 11.762 13.0005H4.76196C3.93096 13.0005 3.26196 12.3315 3.26196 11.5005V4.50049C3.26196 3.66949 3.93096 3.00049 4.76196 3.00049Z" fill="url(#paint13_linear_9_346)"/>
</g>
<defs>
<linearGradient id="paint0_linear_9_346" x1="4.26196" y1="8.00049" x2="12.262" y2="8.00049" gradientUnits="userSpaceOnUse">
<stop stop-color="#FDFC47"/>
<stop offset="1" stop-color="#24FE41"/>
</linearGradient>
<linearGradient id="paint1_linear_9_346" x1="4.26196" y1="1.50049" x2="6.26196" y2="1.50049" gradientUnits="userSpaceOnUse">
<stop stop-color="#FDFC47"/>
<stop offset="1" stop-color="#24FE41"/>
</linearGradient>
<linearGradient id="paint2_linear_9_346" x1="7.26196" y1="1.50049" x2="9.26196" y2="1.50049" gradientUnits="userSpaceOnUse">
<stop stop-color="#FDFC47"/>
<stop offset="1" stop-color="#24FE41"/>
</linearGradient>
<linearGradient id="paint3_linear_9_346" x1="10.262" y1="1.50049" x2="12.262" y2="1.50049" gradientUnits="userSpaceOnUse">
<stop stop-color="#FDFC47"/>
<stop offset="1" stop-color="#24FE41"/>
</linearGradient>
<linearGradient id="paint4_linear_9_346" x1="4.26196" y1="14.5005" x2="6.26196" y2="14.5005" gradientUnits="userSpaceOnUse">
<stop stop-color="#FDFC47"/>
<stop offset="1" stop-color="#24FE41"/>
</linearGradient>
<linearGradient id="paint5_linear_9_346" x1="7.26196" y1="14.5005" x2="9.26196" y2="14.5005" gradientUnits="userSpaceOnUse">
<stop stop-color="#FDFC47"/>
<stop offset="1" stop-color="#24FE41"/>
</linearGradient>
<linearGradient id="paint6_linear_9_346" x1="10.262" y1="14.5005" x2="12.262" y2="14.5005" gradientUnits="userSpaceOnUse">
<stop stop-color="#FDFC47"/>
<stop offset="1" stop-color="#24FE41"/>
</linearGradient>
<linearGradient id="paint7_linear_9_346" x1="14.762" y1="6.00049" x2="14.762" y2="4.00049" gradientUnits="userSpaceOnUse">
<stop stop-color="#FDFC47"/>
<stop offset="1" stop-color="#24FE41"/>
</linearGradient>
<linearGradient id="paint8_linear_9_346" x1="14.762" y1="9.00049" x2="14.762" y2="7.00049" gradientUnits="userSpaceOnUse">
<stop stop-color="#FDFC47"/>
<stop offset="1" stop-color="#24FE41"/>
</linearGradient>
<linearGradient id="paint9_linear_9_346" x1="14.762" y1="12.0005" x2="14.762" y2="10.0005" gradientUnits="userSpaceOnUse">
<stop stop-color="#FDFC47"/>
<stop offset="1" stop-color="#24FE41"/>
</linearGradient>
<linearGradient id="paint10_linear_9_346" x1="1.76196" y1="6.00049" x2="1.76196" y2="4.00049" gradientUnits="userSpaceOnUse">
<stop stop-color="#FDFC47"/>
<stop offset="1" stop-color="#24FE41"/>
</linearGradient>
<linearGradient id="paint11_linear_9_346" x1="1.76196" y1="9.00049" x2="1.76196" y2="7.00049" gradientUnits="userSpaceOnUse">
<stop stop-color="#FDFC47"/>
<stop offset="1" stop-color="#24FE41"/>
</linearGradient>
<linearGradient id="paint12_linear_9_346" x1="1.76196" y1="12.0005" x2="1.76196" y2="10.0005" gradientUnits="userSpaceOnUse">
<stop stop-color="#FDFC47"/>
<stop offset="1" stop-color="#24FE41"/>
</linearGradient>
<linearGradient id="paint13_linear_9_346" x1="2.26196" y1="8.00049" x2="14.262" y2="8.00049" gradientUnits="userSpaceOnUse">
<stop stop-color="#FDFC47"/>
<stop offset="1" stop-color="#24FE41"/>
</linearGradient>
<clipPath id="clip0_9_346">
<rect width="16" height="16" fill="white" transform="translate(0.261963 0.000488281)"/>
</clipPath>
</defs>
</svg>
