<svg width="17" height="16" viewBox="0 0 17 16" fill="none" xmlns="http://www.w3.org/2000/svg">
<g clip-path="url(#clip0_9_361)">
<path d="M11.088 0.000488281L15.2618 4.17429V1.00049C15.2618 0.446488 14.8158 0.000488281 14.2618 0.000488281H11.088Z" fill="url(#paint0_linear_9_361)"/>
<path d="M5.26196 8.72046V9.67046C7.36196 10.7605 9.26196 9.67046 9.26196 9.67046V8.72046C9.26196 8.72046 7.20196 9.77046 5.26196 8.72046Z" fill="url(#paint1_linear_9_361)"/>
<path d="M7.26196 8.00049C8.36653 8.00049 9.26196 7.55277 9.26196 7.00049C9.26196 6.4482 8.36653 6.00049 7.26196 6.00049C6.15739 6.00049 5.26196 6.4482 5.26196 7.00049C5.26196 7.55277 6.15739 8.00049 7.26196 8.00049Z" fill="url(#paint2_linear_9_361)"/>
<path d="M5.26196 10.7205V11.6705C7.36196 12.7605 9.26196 11.6705 9.26196 11.6705V10.7205C9.26196 10.7205 7.20196 11.7705 5.26196 10.7205Z" fill="url(#paint3_linear_9_361)"/>
<path d="M3.26196 0.000488281C2.17126 0.000488281 1.26196 0.909788 1.26196 2.00049V14.0005C1.26196 15.0912 2.17126 16.0005 3.26196 16.0005H13.262C14.3527 16.0005 15.262 15.0912 15.262 14.0005V6.00049C15.2619 5.73529 15.1565 5.48097 14.969 5.29346L9.96899 0.293458C9.78148 0.105922 9.52716 0.00053999 9.26196 0.000488281L3.26196 0.000488281ZM3.26196 1.00049H9.26196L14.262 6.00049V14.0005C14.262 14.5545 13.816 15.0005 13.262 15.0005H3.26196C2.70796 15.0005 2.26196 14.5545 2.26196 14.0005V2.00049C2.26196 1.44649 2.70796 1.00049 3.26196 1.00049Z" fill="url(#paint4_linear_9_361)"/>
</g>
<defs>
<linearGradient id="paint0_linear_9_361" x1="11.088" y1="2.08739" x2="15.2618" y2="2.08739" gradientUnits="userSpaceOnUse">
<stop stop-color="#FDFC47"/>
<stop offset="1" stop-color="#24FE41"/>
</linearGradient>
<linearGradient id="paint1_linear_9_361" x1="5.26196" y1="9.43768" x2="9.26196" y2="9.43768" gradientUnits="userSpaceOnUse">
<stop stop-color="#FDFC47"/>
<stop offset="1" stop-color="#24FE41"/>
</linearGradient>
<linearGradient id="paint2_linear_9_361" x1="5.26196" y1="7.00049" x2="9.26196" y2="7.00049" gradientUnits="userSpaceOnUse">
<stop stop-color="#FDFC47"/>
<stop offset="1" stop-color="#24FE41"/>
</linearGradient>
<linearGradient id="paint3_linear_9_361" x1="5.26196" y1="11.4377" x2="9.26196" y2="11.4377" gradientUnits="userSpaceOnUse">
<stop stop-color="#FDFC47"/>
<stop offset="1" stop-color="#24FE41"/>
</linearGradient>
<linearGradient id="paint4_linear_9_361" x1="1.26196" y1="8.00049" x2="15.262" y2="8.00049" gradientUnits="userSpaceOnUse">
<stop stop-color="#FDFC47"/>
<stop offset="1" stop-color="#24FE41"/>
</linearGradient>
<clipPath id="clip0_9_361">
<rect width="16" height="16" fill="white" transform="translate(0.261963 0.000488281)"/>
</clipPath>
</defs>
</svg>
