<svg width="17" height="16" viewBox="0 0 17 16" fill="none" xmlns="http://www.w3.org/2000/svg">
<g clip-path="url(#clip0_9_373)">
<path d="M9.26196 8.00049L6.26196 12.0005H12.262L9.26196 8.00049ZM8.26196 6.00049C8.26196 6.53092 8.05125 7.03963 7.67618 7.4147C7.3011 7.78977 6.7924 8.00049 6.26196 8.00049C5.73153 8.00049 5.22282 7.78977 4.84775 7.4147C4.47268 7.03963 4.26196 6.53092 4.26196 6.00049C4.26196 5.47006 4.47268 4.96135 4.84775 4.58627C5.22282 4.2112 5.73153 4.00049 6.26196 4.00049C6.7924 4.00049 7.3011 4.2112 7.67618 4.58627C8.05125 4.96135 8.26196 5.47006 8.26196 6.00049Z" fill="url(#paint0_linear_9_373)"/>
<path d="M11.088 0.000488281L15.2618 4.17429V1.00049C15.2618 0.446488 14.8158 0.000488281 14.2618 0.000488281H11.088Z" fill="url(#paint1_linear_9_373)"/>
<path d="M3.26196 0.000488281C2.17126 0.000488281 1.26196 0.909788 1.26196 2.00049V14.0005C1.26196 15.0912 2.17126 16.0005 3.26196 16.0005H13.262C14.3527 16.0005 15.262 15.0912 15.262 14.0005V6.00049C15.2619 5.73529 15.1565 5.48097 14.969 5.29346L9.96899 0.293458C9.78148 0.105922 9.52716 0.00053999 9.26196 0.000488281L3.26196 0.000488281ZM3.26196 1.00049H9.26196L14.262 6.00049V14.0005C14.262 14.5545 13.816 15.0005 13.262 15.0005H3.26196C2.70796 15.0005 2.26196 14.5545 2.26196 14.0005V2.00049C2.26196 1.44649 2.70796 1.00049 3.26196 1.00049Z" fill="url(#paint2_linear_9_373)"/>
</g>
<defs>
<linearGradient id="paint0_linear_9_373" x1="4.26196" y1="8.00049" x2="12.262" y2="8.00049" gradientUnits="userSpaceOnUse">
<stop stop-color="#FDFC47"/>
<stop offset="1" stop-color="#24FE41"/>
</linearGradient>
<linearGradient id="paint1_linear_9_373" x1="11.088" y1="2.08739" x2="15.2618" y2="2.08739" gradientUnits="userSpaceOnUse">
<stop stop-color="#FDFC47"/>
<stop offset="1" stop-color="#24FE41"/>
</linearGradient>
<linearGradient id="paint2_linear_9_373" x1="1.26196" y1="8.00049" x2="15.262" y2="8.00049" gradientUnits="userSpaceOnUse">
<stop stop-color="#FDFC47"/>
<stop offset="1" stop-color="#24FE41"/>
</linearGradient>
<clipPath id="clip0_9_373">
<rect width="16" height="16" fill="white" transform="translate(0.261963 0.000488281)"/>
</clipPath>
</defs>
</svg>
