<svg width="17" height="16" viewBox="0 0 17 16" fill="none" xmlns="http://www.w3.org/2000/svg">
<g clip-path="url(#clip0_9_396)">
<path d="M5.26194 0.000488281C4.00394 0.0154883 3.08294 -0.0295117 2.33094 0.385488C1.94155 0.607608 1.64435 0.961548 1.49294 1.38349C1.32794 1.82049 1.26794 2.34349 1.26794 3.00049V13.0005C1.26794 13.6585 1.32794 14.1785 1.49294 14.6175C1.65694 15.0565 1.95394 15.4065 2.33094 15.6135C3.01094 15.9895 3.86494 15.9845 4.94594 15.9935C4.5037 15.6972 4.10285 15.3435 3.75394 14.9415C3.32394 14.9035 3.00194 14.8425 2.81294 14.7385C2.62994 14.6375 2.52594 14.5255 2.42794 14.2665C2.33094 14.0065 2.26794 13.5925 2.26794 13.0005V3.00049C2.26794 2.40849 2.33094 1.99449 2.42794 1.73449C2.52594 1.47449 2.62994 1.36349 2.81294 1.26249C3.17794 1.06049 4.00794 1.01549 5.26794 1.00049H10.2679C11.5269 1.01549 12.3579 1.06049 12.7229 1.26249C12.9069 1.36249 13.0099 1.47549 13.1079 1.73449C13.2049 1.99449 13.2679 2.40849 13.2679 3.00049V4.53549C13.6491 4.876 13.9851 5.2638 14.2679 5.68949V3.00049C14.2679 2.34249 14.2079 1.82149 14.0429 1.38349C13.8918 0.962228 13.5949 0.608948 13.2059 0.387488C12.4529 -0.0275117 11.5319 0.0154883 10.2739 0.000488281H5.26594L5.26194 0.000488281ZM3.51794 2.00049C3.37987 2.00049 3.26794 2.11242 3.26794 2.25049V2.75049C3.26794 2.88949 3.37994 3.00049 3.51794 3.00049H4.01794C4.15601 3.00049 4.26794 2.88856 4.26794 2.75049V2.25049C4.26794 2.11242 4.15601 2.00049 4.01794 2.00049H3.51794ZM11.5179 2.00049C11.3799 2.00049 11.2679 2.11242 11.2679 2.25049V2.75049C11.2679 2.88949 11.3799 3.00049 11.5179 3.00049H12.0179C12.156 3.00049 12.2679 2.88856 12.2679 2.75049V2.25049C12.2679 2.11242 12.156 2.00049 12.0179 2.00049H11.5179ZM3.51794 4.00049C3.37987 4.00049 3.26794 4.11242 3.26794 4.25049V4.75049C3.26794 4.88949 3.37994 5.00049 3.51794 5.00049H4.01794C4.15601 5.00049 4.26794 4.88856 4.26794 4.75049V4.25049C4.26794 4.11242 4.15601 4.00049 4.01794 4.00049H3.51794ZM11.5179 4.00049C11.3799 4.00049 11.2679 4.11242 11.2679 4.25049V4.75049C11.2679 4.88949 11.3799 5.00049 11.5179 5.00049H12.0179C12.156 5.00049 12.2679 4.88856 12.2679 4.75049V4.25049C12.2679 4.11242 12.156 4.00049 12.0179 4.00049H11.5179ZM3.51794 6.00049C3.37987 6.00049 3.26794 6.11242 3.26794 6.25049V6.75049C3.26794 6.88949 3.37994 7.00049 3.51794 7.00049H4.01794C4.15601 7.00049 4.26794 6.88856 4.26794 6.75049V6.25049C4.26794 6.11242 4.15601 6.00049 4.01794 6.00049H3.51794Z" fill="url(#paint0_linear_9_396)"/>
<path d="M7.12498 8.00049C6.86098 8.29349 6.65798 8.63049 6.53398 9.00049H12.151C12.0218 8.63167 11.8214 8.29188 11.561 8.00049H7.12498ZM6.38898 10.0005C6.37998 10.3465 6.42898 10.6845 6.54898 11.0005H12.116C12.239 10.6835 12.31 10.3475 12.306 10.0005H6.38898ZM7.18198 12.0005C7.71398 12.5605 8.45298 12.9295 9.23698 12.9405C10.085 12.9885 10.897 12.6045 11.475 12.0005H7.18198Z" fill="url(#paint1_linear_9_396)"/>
<path d="M9.26794 5.00049C6.51294 5.00049 4.26794 7.24549 4.26794 10.0005C4.26794 12.7555 6.51294 15.0005 9.26794 15.0005C12.0229 15.0005 14.2679 12.7555 14.2679 10.0005C14.2679 7.24549 12.0229 5.00049 9.26794 5.00049ZM9.26794 6.04049C9.7882 6.0397 10.3035 6.14159 10.7843 6.34032C11.2651 6.53905 11.702 6.83071 12.0698 7.19858C12.4377 7.56646 12.7294 8.00332 12.9281 8.48413C13.1268 8.96493 13.2287 9.48023 13.2279 10.0005C13.2287 10.5207 13.1268 11.036 12.9281 11.5168C12.7294 11.9977 12.4377 12.4345 12.0698 12.8024C11.702 13.1703 11.2651 13.4619 10.7843 13.6607C10.3035 13.8594 9.7882 13.9613 9.26794 13.9605C8.7477 13.9614 8.23239 13.8596 7.75158 13.6609C7.27077 13.4622 6.83392 13.1705 6.4661 12.8026C6.09827 12.4347 5.80671 11.9978 5.60814 11.5169C5.40957 11.0361 5.30789 10.5207 5.30894 10.0005C5.30789 9.48024 5.40957 8.96491 5.60814 8.48405C5.80671 8.00319 6.09827 7.56627 6.4661 7.19835C6.83392 6.83043 7.27077 6.53876 7.75158 6.34007C8.23239 6.14137 8.7477 6.03957 9.26794 6.04049Z" fill="url(#paint2_linear_9_396)"/>
<path fill-rule="evenodd" clip-rule="evenodd" d="M12.6209 12.6465L11.9139 13.3545L14.4139 15.8545L15.1209 15.1465L12.6209 12.6465Z" fill="url(#paint3_linear_9_396)"/>
</g>
<defs>
<linearGradient id="paint0_linear_9_396" x1="1.26794" y1="7.99699" x2="14.2679" y2="7.99699" gradientUnits="userSpaceOnUse">
<stop stop-color="#FDFC47"/>
<stop offset="1" stop-color="#24FE41"/>
</linearGradient>
<linearGradient id="paint1_linear_9_396" x1="6.38794" y1="10.4725" x2="12.3061" y2="10.4725" gradientUnits="userSpaceOnUse">
<stop stop-color="#FDFC47"/>
<stop offset="1" stop-color="#24FE41"/>
</linearGradient>
<linearGradient id="paint2_linear_9_396" x1="4.26794" y1="10.0005" x2="14.2679" y2="10.0005" gradientUnits="userSpaceOnUse">
<stop stop-color="#FDFC47"/>
<stop offset="1" stop-color="#24FE41"/>
</linearGradient>
<linearGradient id="paint3_linear_9_396" x1="11.9139" y1="14.2505" x2="15.1209" y2="14.2505" gradientUnits="userSpaceOnUse">
<stop stop-color="#FDFC47"/>
<stop offset="1" stop-color="#24FE41"/>
</linearGradient>
<clipPath id="clip0_9_396">
<rect width="16" height="16" fill="white" transform="translate(0.261963 0.000488281)"/>
</clipPath>
</defs>
</svg>
