<svg width="17" height="16" viewBox="0 0 17 16" fill="none" xmlns="http://www.w3.org/2000/svg">
<g clip-path="url(#clip0_9_421)">
<path d="M10.762 6.00049C9.83371 6.00049 8.94347 6.36924 8.28709 7.02561C7.63071 7.68199 7.26196 8.57223 7.26196 9.50049C7.26196 10.4287 7.63071 11.319 8.28709 11.9754C8.94347 12.6317 9.83371 13.0005 10.762 13.0005C11.6902 13.0005 12.5805 12.6317 13.2368 11.9754C13.8932 11.319 14.262 10.4287 14.262 9.50049C14.262 8.57223 13.8932 7.68199 13.2368 7.02561C12.5805 6.36924 11.6902 6.00049 10.762 6.00049ZM10.762 7.00049C11.425 7.00049 12.0609 7.26388 12.5297 7.73272C12.9986 8.20156 13.262 8.83745 13.262 9.50049C13.262 9.82879 13.1973 10.1539 13.0717 10.4572C12.946 10.7605 12.7619 11.0361 12.5297 11.2683C12.2976 11.5004 12.022 11.6846 11.7187 11.8102C11.4154 11.9358 11.0903 12.0005 10.762 12.0005C10.0989 12.0005 9.46304 11.7371 8.9942 11.2683C8.52535 10.7994 8.26196 10.1635 8.26196 9.50049C8.26196 8.83745 8.52535 8.20156 8.9942 7.73272C9.46304 7.26388 10.0989 7.00049 10.762 7.00049Z" fill="url(#paint0_linear_9_421)"/>
<path d="M2.26196 4.00049C1.15396 4.00049 0.261963 4.89249 0.261963 6.00049V13.0005C0.261963 14.1085 1.15396 15.0005 2.26196 15.0005H14.262C15.37 15.0005 16.262 14.1085 16.262 13.0005V6.00049C16.262 4.89249 15.37 4.00049 14.262 4.00049H2.26196ZM2.26196 5.00049H14.262C14.816 5.00049 15.262 5.44649 15.262 6.00049V13.0005C15.262 13.5545 14.816 14.0005 14.262 14.0005H2.26196C1.70796 14.0005 1.26196 13.5545 1.26196 13.0005V6.00049C1.26196 5.44649 1.70796 5.00049 2.26196 5.00049Z" fill="url(#paint1_linear_9_421)"/>
<path d="M13.262 2.00049H7.26196V3.00049H13.262V2.00049Z" fill="url(#paint2_linear_9_421)"/>
<path d="M4.26196 6.00049H2.26196V7.00049H4.26196V6.00049Z" fill="url(#paint3_linear_9_421)"/>
</g>
<defs>
<linearGradient id="paint0_linear_9_421" x1="7.26196" y1="9.50049" x2="14.262" y2="9.50049" gradientUnits="userSpaceOnUse">
<stop stop-color="#FDFC47"/>
<stop offset="1" stop-color="#24FE41"/>
</linearGradient>
<linearGradient id="paint1_linear_9_421" x1="0.261963" y1="9.50049" x2="16.262" y2="9.50049" gradientUnits="userSpaceOnUse">
<stop stop-color="#FDFC47"/>
<stop offset="1" stop-color="#24FE41"/>
</linearGradient>
<linearGradient id="paint2_linear_9_421" x1="7.26196" y1="2.50049" x2="13.262" y2="2.50049" gradientUnits="userSpaceOnUse">
<stop stop-color="#FDFC47"/>
<stop offset="1" stop-color="#24FE41"/>
</linearGradient>
<linearGradient id="paint3_linear_9_421" x1="2.26196" y1="6.50049" x2="4.26196" y2="6.50049" gradientUnits="userSpaceOnUse">
<stop stop-color="#FDFC47"/>
<stop offset="1" stop-color="#24FE41"/>
</linearGradient>
<clipPath id="clip0_9_421">
<rect width="16" height="16" fill="white" transform="translate(0.261963 0.000488281)"/>
</clipPath>
</defs>
</svg>
