<svg width="17" height="16" viewBox="0 0 17 16" fill="none" xmlns="http://www.w3.org/2000/svg">
<path d="M8.26196 1.00452C4.94696 1.00452 2.26196 3.68952 2.26196 7.00452V12.0045H3.26196V7.00452C3.26196 4.22552 5.48396 2.00452 8.26196 2.00452C11.041 2.00452 13.262 4.22552 13.262 7.00452V12.0045H14.262V7.00452C14.262 3.68952 11.578 1.00452 8.26196 1.00452ZM4.26196 9.00452V15.0045H5.26196C5.26196 15.0045 6.26196 15.0045 6.26196 14.0045V10.0045C6.26196 9.00452 5.26196 9.00452 5.26196 9.00452H4.26196ZM11.262 9.00452C11.262 9.00452 10.262 9.00452 10.262 10.0045V14.0045C10.262 15.0045 11.262 15.0045 11.262 15.0045H12.262V9.00452H11.262Z" fill="url(#paint0_linear_9_416)"/>
<defs>
<linearGradient id="paint0_linear_9_416" x1="2.26196" y1="8.00452" x2="14.262" y2="8.00452" gradientUnits="userSpaceOnUse">
<stop stop-color="#FDFC47"/>
<stop offset="1" stop-color="#24FE41"/>
</linearGradient>
</defs>
</svg>
