<svg width="17" height="16" viewBox="0 0 17 16" fill="none" xmlns="http://www.w3.org/2000/svg">
<g clip-path="url(#clip0_9_427)">
<path d="M2.26196 1.00049C1.15396 1.00049 0.261963 1.89249 0.261963 3.00049V12.0005C0.261963 13.1085 1.15396 14.0005 2.26196 14.0005H14.262C15.37 14.0005 16.262 13.1085 16.262 12.0005V3.00049C16.262 1.89249 15.37 1.00049 14.262 1.00049H2.26196ZM2.26196 2.00049H14.262C14.816 2.00049 15.262 2.44649 15.262 3.00049V12.0005L10.262 7.00049L6.78256 11.0005L4.26196 9.00049L1.26196 12.0005V3.00049C1.26196 2.44649 1.70796 2.00049 2.26196 2.00049ZM4.76196 4.00049C3.93353 4.00049 3.26196 4.67206 3.26196 5.50049C3.26196 6.32892 3.93353 7.00049 4.76196 7.00049C5.59039 7.00049 6.26196 6.32892 6.26196 5.50049C6.26196 4.67206 5.59039 4.00049 4.76196 4.00049Z" fill="url(#paint0_linear_9_427)"/>
</g>
<defs>
<linearGradient id="paint0_linear_9_427" x1="0.261963" y1="7.50049" x2="16.262" y2="7.50049" gradientUnits="userSpaceOnUse">
<stop stop-color="#FDFC47"/>
<stop offset="1" stop-color="#24FE41"/>
</linearGradient>
<clipPath id="clip0_9_427">
<rect width="16" height="16" fill="white" transform="translate(0.261963 0.000488281)"/>
</clipPath>
</defs>
</svg>
