<svg width="17" height="16" viewBox="0 0 17 16" fill="none" xmlns="http://www.w3.org/2000/svg">
<g clip-path="url(#clip0_9_441)">
<path d="M5.25596 0.000488281C3.99796 0.0154883 3.07696 -0.0295117 2.32496 0.385488C2.13496 0.489488 1.96696 0.631488 1.82496 0.801488L1.76196 0.889488C1.65196 1.03749 1.55496 1.20049 1.48696 1.38349C1.32196 1.82049 1.26196 2.34349 1.26196 3.00049V12.0005C1.26196 12.6585 1.32196 13.1795 1.48696 13.6175C1.65096 14.0565 1.94796 14.4065 2.32496 14.6135C3.07696 15.0285 3.99796 14.9855 5.25596 15.0005H10.268C11.526 14.9865 12.447 15.0305 13.2 14.6155C13.5893 14.3934 13.8866 14.0394 14.038 13.6175C14.202 13.1795 14.262 12.6575 14.262 12.0005V3.00049C14.262 2.34249 14.202 1.82149 14.037 1.38349C13.9692 1.20694 13.8766 1.04094 13.762 0.890488L13.7 0.800488C13.5602 0.632908 13.3907 0.492558 13.2 0.386488C12.447 -0.0275117 11.526 0.0154883 10.268 0.000488281H5.25996L5.25596 0.000488281ZM2.26196 3.00049H13.262V12.0005C13.262 12.5925 13.199 13.0065 13.102 13.2665C13.004 13.5265 12.9 13.6375 12.717 13.7385C12.351 13.9405 11.521 13.9855 10.262 14.0005H5.26196C4.00296 13.9855 3.17196 13.9405 2.80696 13.7385C2.62296 13.6385 2.51996 13.5255 2.42196 13.2665C2.32396 13.0065 2.26196 12.5925 2.26196 12.0005V3.00049Z" fill="url(#paint0_linear_9_441)"/>
<path d="M5.26196 4.00049H12.262V5.00049H5.26196V4.00049ZM5.26196 6.00049H12.262V7.00049H5.26196V6.00049ZM5.26196 8.00049H12.262V9.00049H5.26196V8.00049ZM5.26196 10.0005H9.26196V11.0005H5.26196V10.0005ZM3.26196 3.00049H4.26196V14.0005H3.26196V3.00049Z" fill="url(#paint1_linear_9_441)"/>
</g>
<defs>
<linearGradient id="paint0_linear_9_441" x1="1.26196" y1="7.50049" x2="14.262" y2="7.50049" gradientUnits="userSpaceOnUse">
<stop stop-color="#FDFC47"/>
<stop offset="1" stop-color="#24FE41"/>
</linearGradient>
<linearGradient id="paint1_linear_9_441" x1="3.26196" y1="8.50049" x2="12.262" y2="8.50049" gradientUnits="userSpaceOnUse">
<stop stop-color="#FDFC47"/>
<stop offset="1" stop-color="#24FE41"/>
</linearGradient>
<clipPath id="clip0_9_441">
<rect width="16" height="16" fill="white" transform="translate(0.261963 0.000488281)"/>
</clipPath>
</defs>
</svg>
