<svg width="17" height="16" viewBox="0 0 17 16" fill="none" xmlns="http://www.w3.org/2000/svg">
<g clip-path="url(#clip0_9_498)">
<path d="M8.26196 0.000488281C6.67066 0.000488281 5.14454 0.632629 4.01932 1.75785C2.8941 2.88307 2.26196 4.40919 2.26196 6.00049C2.26331 6.84312 2.4421 7.67602 2.78669 8.44497C3.13128 9.21392 3.63394 9.90169 4.26196 10.4635V11.7485C4.26196 12.1645 4.28896 12.5185 4.40996 12.8635C4.53196 13.2085 4.79896 13.5375 5.12096 13.7135C5.76696 14.0645 6.38696 13.9945 7.26196 13.9945H9.26196C10.137 13.9945 10.757 14.0645 11.402 13.7135C11.725 13.5375 11.992 13.2085 12.114 12.8635C12.235 12.5185 12.262 12.1635 12.262 11.7485V10.4655C12.8903 9.9035 13.3931 9.21543 13.7377 8.4461C14.0823 7.67677 14.261 6.84347 14.262 6.00049C14.262 4.40919 13.6298 2.88307 12.5046 1.75785C11.3794 0.632629 9.85326 0.000488281 8.26196 0.000488281ZM8.26196 1.00049C8.91857 1.00049 9.56875 1.12982 10.1754 1.38109C10.782 1.63236 11.3332 2.00066 11.7975 2.46495C12.2618 2.92925 12.6301 3.48044 12.8814 4.08707C13.1326 4.6937 13.262 5.34388 13.262 6.00049C13.2598 7.08328 12.9061 8.13608 12.254 9.00049H12.262L11.262 10.0005V11.7465C11.262 11.9895 11.222 12.2245 11.098 12.4345C10.972 12.6349 10.7831 12.7879 10.561 12.8695C10.157 13.0205 9.76196 12.9945 9.26196 12.9945H7.26196C6.76196 12.9945 6.36496 13.0205 5.96196 12.8695C5.73996 12.788 5.55138 12.635 5.42596 12.4345C5.30096 12.2245 5.29396 11.9875 5.26196 11.7465V10.0005L4.26196 9.00049H4.26996C3.618 8.13601 3.26427 7.08325 3.26196 6.00049C3.26196 4.67441 3.78875 3.40264 4.72643 2.46495C5.66411 1.52727 6.93588 1.00049 8.26196 1.00049ZM5.26196 15.0005V16.0005H11.262V15.0005H5.26196Z" fill="url(#paint0_linear_9_498)"/>
</g>
<defs>
<linearGradient id="paint0_linear_9_498" x1="2.26196" y1="8.00049" x2="14.262" y2="8.00049" gradientUnits="userSpaceOnUse">
<stop stop-color="#FDFC47"/>
<stop offset="1" stop-color="#24FE41"/>
</linearGradient>
<clipPath id="clip0_9_498">
<rect width="16" height="16" fill="white" transform="translate(0.261963 0.000488281)"/>
</clipPath>
</defs>
</svg>
