<svg width="17" height="16" viewBox="0 0 17 16" fill="none" xmlns="http://www.w3.org/2000/svg">
<g clip-path="url(#clip0_9_481)">
<path d="M2.26196 2.00049C1.15396 2.00049 0.261963 2.89249 0.261963 4.00049V13.0005C0.261963 14.1085 1.15396 15.0005 2.26196 15.0005H14.262C15.37 15.0005 16.262 14.1085 16.262 13.0005V4.00049C16.262 2.89249 15.37 2.00049 14.262 2.00049H2.26196ZM2.24079 3.49554H14.2408C14.7948 3.49554 14.7608 3.53052 14.7608 4.08452V13.0845C14.7608 13.6385 14.816 13.5033 14.262 13.5033H2.26196C1.70796 13.5033 1.76407 13.6385 1.76407 13.0845V4.08452C1.76407 3.53052 1.68679 3.49554 2.24079 3.49554Z" fill="url(#paint0_linear_9_481)"/>
<path d="M8.736 7.38546L5.25082 4.82464C4.96047 4.6113 4.55215 4.67373 4.33881 4.96408C4.12547 5.25443 4.1879 5.66275 4.47825 5.87609L7.96342 8.4369C8.25377 8.65024 8.66209 8.58781 8.87543 8.29747C9.08877 8.00712 9.02634 7.5988 8.736 7.38546Z" fill="url(#paint1_linear_9_481)"/>
<path d="M7.94844 7.40751L4.56993 10.1075C4.28847 10.3324 4.24265 10.7429 4.46758 11.0244C4.69252 11.3059 5.10303 11.3517 5.38449 11.1268L8.763 8.42677C9.04446 8.20184 9.09029 7.79132 8.86536 7.50986C8.64042 7.2284 8.22991 7.18258 7.94844 7.40751Z" fill="url(#paint2_linear_9_481)"/>
<path d="M11.8098 10.2964L9.00793 10.2892C8.72983 10.2885 8.50395 10.5134 8.50341 10.7915C8.50286 11.0696 8.72786 11.2956 9.00595 11.2963L11.8078 11.3035C12.0859 11.3042 12.3118 11.0793 12.3123 10.8012C12.3129 10.5231 12.0879 10.2971 11.8098 10.2964Z" fill="url(#paint3_linear_9_481)"/>
</g>
<defs>
<linearGradient id="paint0_linear_9_481" x1="0.261963" y1="8.50049" x2="16.262" y2="8.50049" gradientUnits="userSpaceOnUse">
<stop stop-color="#FDFC47"/>
<stop offset="1" stop-color="#24FE41"/>
</linearGradient>
<linearGradient id="paint1_linear_9_481" x1="4.33881" y1="4.96408" x2="8.87543" y2="8.29747" gradientUnits="userSpaceOnUse">
<stop stop-color="#FDFC47"/>
<stop offset="1" stop-color="#24FE41"/>
</linearGradient>
<linearGradient id="paint2_linear_9_481" x1="4.46758" y1="11.0244" x2="8.86536" y2="7.50986" gradientUnits="userSpaceOnUse">
<stop stop-color="#FDFC47"/>
<stop offset="1" stop-color="#24FE41"/>
</linearGradient>
<linearGradient id="paint3_linear_9_481" x1="8.50341" y1="10.7915" x2="12.3123" y2="10.799" gradientUnits="userSpaceOnUse">
<stop stop-color="#FDFC47"/>
<stop offset="1" stop-color="#24FE41"/>
</linearGradient>
<clipPath id="clip0_9_481">
<rect width="16" height="16" fill="white" transform="translate(0.261963 0.000488281)"/>
</clipPath>
</defs>
</svg>
