<svg width="17" height="16" viewBox="0 0 17 16" fill="none" xmlns="http://www.w3.org/2000/svg">
<g clip-path="url(#clip0_9_542)">
<path d="M7.76195 0.988533C6.77664 0.987126 5.80076 1.1804 4.89036 1.55726C3.97996 1.93412 3.15299 2.48713 2.45695 3.18453C-0.469049 6.10953 -0.469049 10.8675 2.45695 13.7935L3.16395 13.0865C2.55926 12.4833 2.07951 11.7667 1.75218 10.9778C1.42484 10.1889 1.25635 9.34316 1.25635 8.48903C1.25635 7.63491 1.42484 6.78917 1.75218 6.00026C2.07951 5.21135 2.55926 4.49476 3.16395 3.89153C3.7672 3.2867 4.48385 2.80682 5.27285 2.47939C6.06186 2.15197 6.90771 1.98343 7.76195 1.98343C8.6162 1.98343 9.46205 2.15197 10.2511 2.47939C11.0401 2.80682 11.7567 3.2867 12.36 3.89153C12.9646 4.49476 13.4444 5.21135 13.7717 6.00026C14.0991 6.78917 14.2676 7.63491 14.2676 8.48903C14.2676 9.34316 14.0991 10.1889 13.7717 10.9778C13.4444 11.7667 12.9646 12.4833 12.36 13.0865L13.067 13.7935C15.993 10.8675 15.993 6.10953 13.067 3.18353C12.3707 2.48649 11.5437 1.93385 10.6333 1.55734C9.72292 1.18083 8.74712 0.987864 7.76195 0.989533V0.988533Z" fill="url(#paint0_linear_9_542)"/>
<path d="M7.76204 3.99257C6.56994 3.98967 5.42519 4.45886 4.57804 5.29757C4.16079 5.71127 3.82961 6.20351 3.6036 6.74587C3.37759 7.28824 3.26123 7.86999 3.26123 8.45757C3.26123 9.04514 3.37759 9.62689 3.6036 10.1693C3.82961 10.7116 4.16079 11.2039 4.57804 11.6176L5.28304 10.9076C4.95709 10.5882 4.69815 10.207 4.52137 9.78632C4.34459 9.36563 4.25354 8.91389 4.25354 8.45757C4.25354 8.00124 4.34459 7.5495 4.52137 7.12881C4.69815 6.70812 4.95709 6.32693 5.28304 6.00757C5.94272 5.35427 6.83361 4.98778 7.76204 4.98778C8.69046 4.98778 9.58136 5.35427 10.241 6.00757C10.567 6.32693 10.8259 6.70812 11.0027 7.12881C11.1795 7.5495 11.2705 8.00124 11.2705 8.45757C11.2705 8.91389 11.1795 9.36563 11.0027 9.78632C10.8259 10.207 10.567 10.5882 10.241 10.9076L10.946 11.6176C11.3633 11.2039 11.6945 10.7116 11.9205 10.1693C12.1465 9.62689 12.2628 9.04514 12.2628 8.45757C12.2628 7.86999 12.1465 7.28824 11.9205 6.74587C11.6945 6.20351 11.3633 5.71127 10.946 5.29757C10.0989 4.45886 8.95413 3.98967 7.76204 3.99257Z" fill="url(#paint1_linear_9_542)"/>
<path d="M7.76196 7.00049C7.36414 7.00049 6.98261 7.15852 6.7013 7.43983C6.42 7.72113 6.26196 8.10266 6.26196 8.50049C6.26242 8.8103 6.3588 9.11237 6.53786 9.3652C6.71691 9.61803 6.96987 9.80922 7.26196 9.91249V16.0005H8.26196V9.91249C8.55406 9.80922 8.80701 9.61803 8.98607 9.3652C9.16513 9.11237 9.26151 8.8103 9.26196 8.50049C9.26196 8.10266 9.10393 7.72113 8.82262 7.43983C8.54132 7.15852 8.15979 7.00049 7.76196 7.00049Z" fill="url(#paint2_linear_9_542)"/>
</g>
<defs>
<linearGradient id="paint0_linear_9_542" x1="0.262451" y1="7.39103" x2="15.2615" y2="7.39103" gradientUnits="userSpaceOnUse">
<stop stop-color="#FDFC47"/>
<stop offset="1" stop-color="#24FE41"/>
</linearGradient>
<linearGradient id="paint1_linear_9_542" x1="3.26123" y1="7.80506" x2="12.2628" y2="7.80506" gradientUnits="userSpaceOnUse">
<stop stop-color="#FDFC47"/>
<stop offset="1" stop-color="#24FE41"/>
</linearGradient>
<linearGradient id="paint2_linear_9_542" x1="6.26196" y1="11.5005" x2="9.26196" y2="11.5005" gradientUnits="userSpaceOnUse">
<stop stop-color="#FDFC47"/>
<stop offset="1" stop-color="#24FE41"/>
</linearGradient>
<clipPath id="clip0_9_542">
<rect width="16" height="16" fill="white" transform="translate(0.261963 0.000488281)"/>
</clipPath>
</defs>
</svg>
