<svg width="17" height="16" viewBox="0 0 17 16" fill="none" xmlns="http://www.w3.org/2000/svg">
<g clip-path="url(#clip0_9_547)">
<path d="M4.25183 2.00049C2.99383 2.01549 2.07282 1.9705 1.31982 2.3855C0.930815 2.6078 0.634012 2.96171 0.482849 3.38348C0.317849 3.82148 0.257812 4.34349 0.257812 5.00049V12.0005C0.257812 12.6585 0.317849 13.1795 0.482849 13.6175C0.646849 14.0565 0.943824 14.4065 1.31982 14.6135C2.07282 15.0285 2.99383 14.9855 4.25183 15.0005H12.2639C13.5219 14.9855 14.4429 15.0305 15.1959 14.6155C15.5852 14.3934 15.8824 14.0394 16.0338 13.6175C16.1978 13.1795 16.2578 12.6575 16.2578 12.0005V5.00049C16.2578 4.34249 16.1978 3.82148 16.0328 3.38348C15.8817 2.96223 15.5848 2.60894 15.1959 2.38748C14.4429 1.97248 13.5219 2.01549 12.2639 2.00049H4.25586H4.25183ZM4.25781 3.00049H12.2578C13.5168 3.01549 14.3478 3.06048 14.7128 3.26248C14.8968 3.36248 14.9998 3.4755 15.0978 3.7345C15.1948 3.9945 15.2578 4.40849 15.2578 5.00049V12.0005C15.2578 12.5925 15.1948 13.0065 15.0978 13.2665C14.9998 13.5265 14.8958 13.6375 14.7128 13.7385C14.3468 13.9405 13.5168 13.9855 12.2578 14.0005H4.25781C2.99881 13.9855 2.16786 13.9405 1.80286 13.7385C1.61986 13.6385 1.51585 13.5255 1.41785 13.2665C1.32085 13.0065 1.25781 12.5925 1.25781 12.0005V5.00049C1.25781 4.40849 1.32085 3.9945 1.41785 3.7345C1.51585 3.4745 1.62087 3.36348 1.80487 3.26248C2.17087 3.06048 2.99881 3.01549 4.25781 3.00049Z" fill="url(#paint0_linear_9_547)"/>
<path d="M12.6918 5.00049C12.2958 5.00483 11.9169 5.16255 11.6348 5.44049C11.3618 5.70549 11.1738 6.04249 11.0248 6.41449C10.7288 7.15749 10.5818 8.0145 10.4518 8.8985C10.3218 9.7805 10.2129 10.6475 10.0549 11.2385C9.97587 11.5355 9.87982 11.7575 9.80682 11.8625C9.73482 11.9665 9.74382 11.9485 9.71582 11.9485C9.67082 11.9485 9.62785 11.9385 9.53485 11.8485C9.40099 11.7022 9.29037 11.5363 9.20685 11.3565C8.97685 10.8985 8.75881 10.2215 8.55981 9.53348C8.36181 8.84448 8.17785 7.9675 7.96985 7.4035C7.60985 6.7955 7.44986 6.40848 6.37286 6.13348C5.54086 6.15148 5.07982 6.57048 4.71582 8.02548C4.65182 8.37848 4.58883 9.7155 4.52283 9.9075C4.50283 9.9675 4.49286 9.97649 4.47986 10.0005L2.25781 10.5005L4.59485 11.0525C4.83085 11.1085 5.06987 10.9125 5.20087 10.7565C5.31736 10.6121 5.40523 10.4468 5.45984 10.2695C5.37684 7.7125 6.15986 6.16148 7.03986 7.78348C7.21786 8.26348 7.40186 9.13448 7.60486 9.83948C7.80886 10.5445 8.02883 11.2625 8.32483 11.8495C8.47183 12.1435 8.63986 12.4095 8.85986 12.6225C9.08086 12.8365 9.38082 13.0005 9.71582 13.0005C10.0878 13.0005 10.4198 12.7625 10.6118 12.4845C10.8048 12.2075 10.9199 11.8845 11.0159 11.5245C11.2079 10.8055 11.3109 9.9245 11.4379 9.0585C11.5659 8.1935 11.7178 7.39149 11.9448 6.82349C12.0578 6.53949 12.1888 6.33248 12.3098 6.21548C12.4298 6.09848 12.5469 6.00948 12.7139 6.00848L14.2578 6.00049V5.00049H12.6918Z" fill="url(#paint1_linear_9_547)"/>
<path d="M14.2617 6.00049C14.5379 6.00049 14.7617 5.77663 14.7617 5.50049C14.7617 5.22435 14.5379 5.00049 14.2617 5.00049C13.9856 5.00049 13.7617 5.22435 13.7617 5.50049C13.7617 5.77663 13.9856 6.00049 14.2617 6.00049Z" fill="url(#paint2_linear_9_547)"/>
</g>
<defs>
<linearGradient id="paint0_linear_9_547" x1="0.257812" y1="8.50049" x2="16.2578" y2="8.50049" gradientUnits="userSpaceOnUse">
<stop stop-color="#FDFC47"/>
<stop offset="1" stop-color="#24FE41"/>
</linearGradient>
<linearGradient id="paint1_linear_9_547" x1="2.25781" y1="9.00049" x2="14.2578" y2="9.00049" gradientUnits="userSpaceOnUse">
<stop stop-color="#FDFC47"/>
<stop offset="1" stop-color="#24FE41"/>
</linearGradient>
<linearGradient id="paint2_linear_9_547" x1="13.7617" y1="5.50049" x2="14.7617" y2="5.50049" gradientUnits="userSpaceOnUse">
<stop stop-color="#FDFC47"/>
<stop offset="1" stop-color="#24FE41"/>
</linearGradient>
<clipPath id="clip0_9_547">
<rect width="16" height="16" fill="white" transform="translate(0.261963 0.000488281)"/>
</clipPath>
</defs>
</svg>
