<svg width="17" height="16" viewBox="0 0 17 16" fill="none" xmlns="http://www.w3.org/2000/svg">
<g clip-path="url(#clip0_9_554)">
<path d="M8.26196 0.000488281C5.50596 0.000488281 3.26196 2.24449 3.26196 5.00049C3.26196 5.45949 3.34498 5.8945 3.46198 6.3165C1.59498 7.0435 0.261963 8.84849 0.261963 10.9665C0.261963 13.7225 2.50596 15.9665 5.26196 15.9665C6.34752 15.9624 7.40163 15.6015 8.26196 14.9395C9.12217 15.6019 10.1763 15.9631 11.262 15.9675C14.018 15.9675 16.262 13.7225 16.262 10.9675C16.262 8.8485 14.9299 7.04347 13.0649 6.31747C13.1809 5.89447 13.262 5.45849 13.262 5.00049C13.262 2.24449 11.018 0.000488281 8.26196 0.000488281ZM8.26196 1.00049C10.477 1.00049 12.262 2.78549 12.262 5.00049C12.262 5.36449 12.2 5.7105 12.11 6.0455C11.8301 5.99532 11.5463 5.96922 11.262 5.9675C10.1764 5.97161 9.1223 6.33244 8.26196 6.99448C7.40163 6.33244 6.34752 5.97161 5.26196 5.9675C4.97296 5.9675 4.69195 5.99649 4.41595 6.04349C4.31867 5.70417 4.26689 5.35344 4.26196 5.00049C4.26196 2.78549 6.04696 1.00049 8.26196 1.00049ZM5.26196 6.9675C6.10596 6.9675 6.88698 7.22849 7.53198 7.67249C7.25098 7.98949 7.01398 8.34247 6.82098 8.72247C5.97929 8.39541 5.27396 7.79167 4.82098 7.0105C4.96798 6.9935 5.11096 6.9675 5.26196 6.9675ZM11.262 6.9675C11.413 6.9675 11.5569 6.9945 11.7029 7.0105C11.2508 7.79186 10.5462 8.39599 9.70496 8.72348C9.51286 8.34461 9.27325 7.99178 8.99194 7.67349C9.65905 7.21246 10.4511 6.96615 11.262 6.9675ZM3.82098 7.24448C4.37519 8.34382 5.31502 9.2004 6.46094 9.65048C6.33554 10.0785 6.26862 10.5215 6.26196 10.9675C6.26196 12.2345 6.75198 13.3795 7.53198 14.2625C6.86457 14.7228 6.0727 14.9687 5.26196 14.9675C3.04696 14.9675 1.26196 13.1825 1.26196 10.9675C1.26158 10.1609 1.50603 9.3731 1.96295 8.70834C2.41987 8.04359 3.06776 7.53313 3.82098 7.24448ZM12.705 7.24448C13.458 7.53321 14.1056 8.04375 14.5622 8.70853C15.0188 9.37331 15.2628 10.161 15.262 10.9675C15.262 13.1825 13.477 14.9675 11.262 14.9675C10.4509 14.9686 9.65893 14.7219 8.99194 14.2605C9.77194 13.3785 10.262 12.2335 10.262 10.9675C10.2562 10.5216 10.1899 10.0786 10.0649 9.65048C11.2107 9.20007 12.1504 8.34359 12.705 7.24448ZM9.10999 9.92249C9.19999 10.2575 9.26196 10.6025 9.26196 10.9675C9.25986 11.9352 8.90422 12.8687 8.26196 13.5925C7.6197 12.8687 7.26407 11.9352 7.26196 10.9675C7.26196 10.6035 7.32595 10.2585 7.41595 9.9245C7.69195 9.9715 7.97296 10.0005 8.26196 10.0005C8.55196 10.0005 8.83299 9.97049 9.10999 9.92249Z" fill="url(#paint0_linear_9_554)"/>
<path opacity="0.3" d="M11.262 15.4705C8.77668 15.4705 6.76196 13.4557 6.76196 10.9705C6.76196 8.48518 8.77668 6.47046 11.262 6.47046C13.7472 6.47046 15.762 8.48518 15.762 10.9705C15.762 13.4557 13.7472 15.4705 11.262 15.4705Z" fill="url(#paint1_linear_9_554)"/>
<path opacity="0.15" d="M5.26196 15.4705C2.77668 15.4705 0.761963 13.4557 0.761963 10.9705C0.761963 8.48518 2.77668 6.47046 5.26196 6.47046C7.74724 6.47046 9.76196 8.48518 9.76196 10.9705C9.76196 13.4557 7.74724 15.4705 5.26196 15.4705Z" fill="url(#paint2_linear_9_554)"/>
</g>
<defs>
<linearGradient id="paint0_linear_9_554" x1="0.261963" y1="7.98399" x2="16.262" y2="7.98399" gradientUnits="userSpaceOnUse">
<stop stop-color="#FDFC47"/>
<stop offset="1" stop-color="#24FE41"/>
</linearGradient>
<linearGradient id="paint1_linear_9_554" x1="15.762" y1="10.9705" x2="6.76196" y2="10.9705" gradientUnits="userSpaceOnUse">
<stop stop-color="#FDFC47"/>
<stop offset="1" stop-color="#24FE41"/>
</linearGradient>
<linearGradient id="paint2_linear_9_554" x1="9.76196" y1="10.9705" x2="0.761963" y2="10.9705" gradientUnits="userSpaceOnUse">
<stop stop-color="#FDFC47"/>
<stop offset="1" stop-color="#24FE41"/>
</linearGradient>
<clipPath id="clip0_9_554">
<rect width="16.034" height="16" fill="white" transform="translate(0.261963 0.000488281)"/>
</clipPath>
</defs>
</svg>
