<svg width="17" height="16" viewBox="0 0 17 16" fill="none" xmlns="http://www.w3.org/2000/svg">
<path d="M3.30396 2.00049V6.00049H2.30396C1.30396 6.00049 1.30396 7.00049 1.30396 7.00049V12.0005H3.30396V14.0005H6.30396V13.0005H4.30396V12.0005H6.30396V6.00049H4.30396V3.00049H11.304V5.00049H12.304V2.00049H3.30396ZM3.30396 8.00049H4.30396V9.00049H3.30396V8.00049Z" fill="url(#paint0_linear_9_607)"/>
<path d="M8.30596 6.00049C8.17443 6.0001 8.04412 6.02568 7.9225 6.07577C7.80089 6.12586 7.69036 6.19947 7.59726 6.29238C7.50416 6.38529 7.43033 6.49567 7.38 6.61719C7.32967 6.73871 7.30382 6.86897 7.30396 7.00049V11.0005C7.30396 11.5545 7.75096 12.0005 8.30596 12.0005H14.304C14.4355 12.0009 14.5658 11.9753 14.6874 11.9252C14.809 11.8751 14.9196 11.8015 15.0127 11.7086C15.1057 11.6157 15.1796 11.5053 15.2299 11.3838C15.2802 11.2623 15.3061 11.132 15.306 11.0005V7.00049C15.306 6.44649 14.859 6.00049 14.304 6.00049H8.30596ZM8.30396 7.00049H14.306V11.0005H8.30396V7.00049Z" fill="url(#paint1_linear_9_607)"/>
<path d="M13.304 13.0005H9.30396V14.0005H13.304V13.0005Z" fill="url(#paint2_linear_9_607)"/>
<defs>
<linearGradient id="paint0_linear_9_607" x1="1.30396" y1="8.00049" x2="12.304" y2="8.00049" gradientUnits="userSpaceOnUse">
<stop stop-color="#FDFC47"/>
<stop offset="1" stop-color="#24FE41"/>
</linearGradient>
<linearGradient id="paint1_linear_9_607" x1="7.30396" y1="9.00049" x2="15.306" y2="9.00049" gradientUnits="userSpaceOnUse">
<stop stop-color="#FDFC47"/>
<stop offset="1" stop-color="#24FE41"/>
</linearGradient>
<linearGradient id="paint2_linear_9_607" x1="9.30396" y1="13.5005" x2="13.304" y2="13.5005" gradientUnits="userSpaceOnUse">
<stop stop-color="#FDFC47"/>
<stop offset="1" stop-color="#24FE41"/>
</linearGradient>
</defs>
</svg>
