<svg width="17" height="16" viewBox="0 0 17 16" fill="none" xmlns="http://www.w3.org/2000/svg">
<path d="M6.80591 1.00049C3.77991 1.00049 1.30591 3.47449 1.30591 6.50049C1.30591 9.52649 3.77991 12.0005 6.80591 12.0005C7.91834 12.0001 9.00412 11.6599 9.91791 11.0255L13.5989 14.7075C13.6912 14.803 13.8015 14.8792 13.9235 14.9316C14.0455 14.984 14.1767 15.0116 14.3095 15.0127C14.4423 15.0139 14.574 14.9886 14.6969 14.9383C14.8198 14.888 14.9314 14.8138 15.0253 14.7199C15.1192 14.626 15.1934 14.5143 15.2437 14.3914C15.294 14.2685 15.3193 14.1369 15.3182 14.0041C15.317 13.8713 15.2894 13.7401 15.237 13.6181C15.1846 13.4961 15.1084 13.3857 15.0129 13.2935L11.3319 9.61149C11.9658 8.69787 12.3056 7.61248 12.3059 6.50049C12.3059 3.47449 9.83191 1.00049 6.80591 1.00049ZM6.80591 2.25049C7.93308 2.25049 9.01408 2.69825 9.81111 3.49528C10.6081 4.29231 11.0559 5.37332 11.0559 6.50049C11.0559 7.62766 10.6081 8.70866 9.81111 9.50569C9.01408 10.3027 7.93308 10.7505 6.80591 10.7505C5.67874 10.7505 4.59773 10.3027 3.8007 9.50569C3.00367 8.70866 2.55591 7.62766 2.55591 6.50049C2.55591 5.37332 3.00367 4.29231 3.8007 3.49528C4.59773 2.69825 5.67874 2.25049 6.80591 2.25049Z" fill="url(#paint0_linear_9_627)"/>
<defs>
<linearGradient id="paint0_linear_9_627" x1="1.30591" y1="8.00663" x2="15.3182" y2="8.00663" gradientUnits="userSpaceOnUse">
<stop stop-color="#FDFC47"/>
<stop offset="1" stop-color="#24FE41"/>
</linearGradient>
</defs>
</svg>
