<svg width="17" height="16" viewBox="0 0 17 16" fill="none" xmlns="http://www.w3.org/2000/svg">
<g clip-path="url(#clip0_9_580)">
<path d="M7.30396 0.000488281C6.19596 0.000488281 5.30396 0.892488 5.30396 2.00049V9.00049C5.30396 10.1085 6.19596 11.0005 7.30396 11.0005H14.304C15.412 11.0005 16.304 10.1085 16.304 9.00049V2.00049C16.304 0.892488 15.412 0.000488281 14.304 0.000488281H7.30396ZM7.30396 1.00049H14.304C14.858 1.00049 15.304 1.44649 15.304 2.00049V9.00049C15.304 9.55449 14.858 10.0005 14.304 10.0005H7.30396C6.74996 10.0005 6.30396 9.55449 6.30396 9.00049V2.00049C6.30396 1.44649 6.74996 1.00049 7.30396 1.00049Z" fill="url(#paint0_linear_9_580)"/>
<path d="M12.4849 9.00049L12.008 7.34109H9.60473L9.12312 9.00049H7.63062L9.89562 2.00049H11.7028L13.9773 9.00049H12.4849ZM11.6647 6.10129L11.2165 4.57539C11.1974 4.51817 11.1688 4.42439 11.1306 4.29405C11.0925 4.16371 11.0512 4.02066 11.0067 3.86489C10.9653 3.70594 10.9256 3.54699 10.8875 3.38805C10.8493 3.2291 10.8223 3.094 10.8064 2.98274C10.7937 3.05267 10.7762 3.13533 10.7539 3.2307C10.7349 3.32607 10.711 3.42779 10.6824 3.53588C10.657 3.64078 10.63 3.74728 10.6014 3.85536C10.5727 3.96344 10.5457 4.06516 10.5203 4.16054C10.4949 4.25591 10.471 4.34015 10.4488 4.41326C10.4297 4.48637 10.4154 4.54042 10.4058 4.57539L9.96239 6.10129H11.6647Z" fill="url(#paint1_linear_9_580)"/>
<path opacity="0.35" d="M2.30396 5.00049C1.19596 5.00049 0.303955 5.89249 0.303955 7.00049V14.0005C0.303955 15.1085 1.19596 16.0005 2.30396 16.0005H9.30396C10.412 16.0005 11.304 15.1085 11.304 14.0005V12.0005H10.304V14.0005C10.304 14.5545 9.85796 15.0005 9.30396 15.0005H2.30396C1.74996 15.0005 1.30396 14.5545 1.30396 14.0005V7.00049C1.30396 6.44649 1.74996 6.00049 2.30396 6.00049H3.30396V5.00049H2.30396ZM2.41529 7.72319V12.7388H2.86841V11.9927H3.99141V10.8931C3.81145 10.6732 3.65037 10.4363 3.53829 10.1704V11.4614H2.86837V8.25444H3.30392V7.72319H2.41529ZM4.70238 11.5318C4.44048 12.3269 4.10888 13.1933 3.84692 13.731L4.34692 14.0005C4.61056 13.3622 4.91443 12.526 5.15942 11.7739C4.99863 11.7078 4.84757 11.6236 4.70238 11.5318ZM5.75899 11.9458C5.69994 12.2976 5.64017 12.6832 5.58516 12.9536H8.11635C8.07789 13.1844 8.0236 13.3316 7.96206 13.3931C7.88513 13.4854 7.80779 13.5005 7.68472 13.5005C7.54626 13.5005 7.1925 13.4922 6.81558 13.4615C6.90019 13.5999 6.95437 13.7997 6.96206 13.9458C7.3236 13.9612 7.68393 13.969 7.88393 13.9536C8.10701 13.9306 8.25328 13.8688 8.39174 13.6919C8.49174 13.5688 8.56079 13.3536 8.63002 12.9536H9.06948V12.4693H8.69252C8.70746 12.3438 8.71859 12.1485 8.73159 12.0005H8.2394C8.2264 12.1482 8.21527 12.3498 8.20034 12.4693H6.18474C6.20582 12.3277 6.23374 12.1523 6.257 11.9966C6.08673 11.994 5.9211 11.9755 5.75899 11.9458ZM7.16518 12.0005C7.33275 12.154 7.47974 12.3073 7.56949 12.4322L7.87612 12.1314C7.84582 12.0926 7.78674 12.0432 7.74722 12.0005H7.16518Z" fill="url(#paint2_linear_9_580)"/>
</g>
<defs>
<linearGradient id="paint0_linear_9_580" x1="5.30396" y1="5.50049" x2="16.304" y2="5.50049" gradientUnits="userSpaceOnUse">
<stop stop-color="#FDFC47"/>
<stop offset="1" stop-color="#24FE41"/>
</linearGradient>
<linearGradient id="paint1_linear_9_580" x1="7.63062" y1="5.50049" x2="13.9773" y2="5.50049" gradientUnits="userSpaceOnUse">
<stop stop-color="#FDFC47"/>
<stop offset="1" stop-color="#24FE41"/>
</linearGradient>
<linearGradient id="paint2_linear_9_580" x1="0.303955" y1="10.5005" x2="11.304" y2="10.5005" gradientUnits="userSpaceOnUse">
<stop stop-color="#FDFC47"/>
<stop offset="1" stop-color="#24FE41"/>
</linearGradient>
<clipPath id="clip0_9_580">
<rect width="16" height="16" fill="white" transform="translate(0.303955 0.000488281)"/>
</clipPath>
</defs>
</svg>
