<svg width="17" height="16" viewBox="0 0 17 16" fill="none" xmlns="http://www.w3.org/2000/svg">
<path fill-rule="evenodd" clip-rule="evenodd" d="M3.80396 1.00049C2.42326 1.00049 1.30396 2.11979 1.30396 3.50049C1.30396 4.88119 2.42326 6.00049 3.80396 6.00049H5.30396V10.0005H3.80396C2.42326 10.0005 1.30396 11.1198 1.30396 12.5005C1.30396 13.8812 2.42326 15.0005 3.80396 15.0005C5.18466 15.0005 6.30396 13.8812 6.30396 12.5005V11.0005H10.304V12.5005C10.304 13.8812 11.4233 15.0005 12.804 15.0005C14.1847 15.0005 15.304 13.8812 15.304 12.5005C15.304 11.1198 14.1847 10.0005 12.804 10.0005H11.304V6.00049H12.804C14.1847 6.00049 15.304 4.88119 15.304 3.50049C15.304 2.11979 14.1847 1.00049 12.804 1.00049C11.4233 1.00049 10.304 2.11979 10.304 3.50049V5.00049H6.30396V3.50049C6.30396 2.11979 5.18466 1.00049 3.80396 1.00049ZM3.80396 2.00049C4.63239 2.00049 5.30396 2.67206 5.30396 3.50049V5.00049H3.80396C2.97553 5.00049 2.30396 4.32892 2.30396 3.50049C2.30396 2.67206 2.97553 2.00049 3.80396 2.00049ZM12.804 2.00049C13.6324 2.00049 14.304 2.67206 14.304 3.50049C14.304 4.32892 13.6324 5.00049 12.804 5.00049H11.304V3.50049C11.304 2.67206 11.9755 2.00049 12.804 2.00049ZM6.30396 6.00049H10.304V10.0005H6.30396V6.00049ZM3.80396 11.0005H5.30396V12.5005C5.30396 13.3289 4.63239 14.0005 3.80396 14.0005C2.97553 14.0005 2.30396 13.3289 2.30396 12.5005C2.30396 11.6721 2.97553 11.0005 3.80396 11.0005ZM11.304 11.0005H12.804C13.6324 11.0005 14.304 11.6721 14.304 12.5005C14.304 13.3289 13.6324 14.0005 12.804 14.0005C11.9755 14.0005 11.304 13.3289 11.304 12.5005V11.0005Z" fill="url(#paint0_linear_9_575)"/>
<defs>
<linearGradient id="paint0_linear_9_575" x1="1.30396" y1="8.00049" x2="15.304" y2="8.00049" gradientUnits="userSpaceOnUse">
<stop stop-color="#FDFC47"/>
<stop offset="1" stop-color="#24FE41"/>
</linearGradient>
</defs>
</svg>
