<svg width="17" height="16" viewBox="0 0 17 16" fill="none" xmlns="http://www.w3.org/2000/svg">
<g clip-path="url(#clip0_9_636)">
<path d="M4.30591 9.00049H2.30591V11.0005H4.30591V9.00049Z" fill="url(#paint0_linear_9_636)"/>
<path d="M4.30591 6.00049H2.30591V8.00049H4.30591V6.00049Z" fill="url(#paint1_linear_9_636)"/>
<path d="M4.30591 4.00049H2.30591V5.00049H4.30591V4.00049Z" fill="url(#paint2_linear_9_636)"/>
<path d="M4.80591 14.0005H11.8059C12.0829 14.0005 12.3059 14.2235 12.3059 14.5005C12.3059 14.7775 12.0829 15.0005 11.8059 15.0005H4.80591C4.52891 15.0005 4.30591 14.7775 4.30591 14.5005C4.30591 14.2235 4.52891 14.0005 4.80591 14.0005Z" fill="url(#paint3_linear_9_636)"/>
<path d="M2.30591 2.00049C1.19791 2.00049 0.305908 2.89249 0.305908 4.00049V11.0005C0.305908 12.1085 1.19791 13.0005 2.30591 13.0005H14.3059C15.4139 13.0005 16.3059 12.1085 16.3059 11.0005V4.00049C16.3059 2.89249 15.4139 2.00049 14.3059 2.00049H2.30591ZM2.30591 3.00049H14.3059C14.8599 3.00049 15.3059 3.44649 15.3059 4.00049V11.0005C15.3059 11.5545 14.8599 12.0005 14.3059 12.0005H2.30591C1.75191 12.0005 1.30591 11.5545 1.30591 11.0005V4.00049C1.30591 3.44649 1.75191 3.00049 2.30591 3.00049Z" fill="url(#paint4_linear_9_636)"/>
</g>
<defs>
<linearGradient id="paint0_linear_9_636" x1="2.30591" y1="10.0005" x2="4.30591" y2="10.0005" gradientUnits="userSpaceOnUse">
<stop stop-color="#FDFC47"/>
<stop offset="1" stop-color="#24FE41"/>
</linearGradient>
<linearGradient id="paint1_linear_9_636" x1="2.30591" y1="7.00049" x2="4.30591" y2="7.00049" gradientUnits="userSpaceOnUse">
<stop stop-color="#FDFC47"/>
<stop offset="1" stop-color="#24FE41"/>
</linearGradient>
<linearGradient id="paint2_linear_9_636" x1="2.30591" y1="4.50049" x2="4.30591" y2="4.50049" gradientUnits="userSpaceOnUse">
<stop stop-color="#FDFC47"/>
<stop offset="1" stop-color="#24FE41"/>
</linearGradient>
<linearGradient id="paint3_linear_9_636" x1="4.30591" y1="14.5005" x2="12.3059" y2="14.5005" gradientUnits="userSpaceOnUse">
<stop stop-color="#FDFC47"/>
<stop offset="1" stop-color="#24FE41"/>
</linearGradient>
<linearGradient id="paint4_linear_9_636" x1="0.305908" y1="7.50049" x2="16.3059" y2="7.50049" gradientUnits="userSpaceOnUse">
<stop stop-color="#FDFC47"/>
<stop offset="1" stop-color="#24FE41"/>
</linearGradient>
<clipPath id="clip0_9_636">
<rect width="16" height="16" fill="white" transform="translate(0.305908 0.000488281)"/>
</clipPath>
</defs>
</svg>
