<svg width="17" height="16" viewBox="0 0 17 16" fill="none" xmlns="http://www.w3.org/2000/svg">
<g clip-path="url(#clip0_9_629)">
<path d="M6.43283 0.260246C6.36848 0.251364 6.30245 0.255995 6.23556 0.273918C5.968 0.345611 5.81035 0.617688 5.88204 0.885248L6.01876 1.39502C5.61272 1.53512 5.22043 1.7123 4.84686 1.92432C4.8334 1.93059 4.81897 1.93042 4.80585 1.93799C4.79243 1.94574 4.78506 1.95854 4.77265 1.96729C4.40215 2.18407 4.05237 2.43448 3.72775 2.71534L3.35666 2.34425C3.16079 2.14838 2.8455 2.14838 2.64963 2.34425C2.45376 2.54012 2.45376 2.85541 2.64963 3.05128L3.01877 3.42042C2.72662 3.75503 2.46698 4.1167 2.24338 4.50052C2.02243 4.88582 1.83866 5.29129 1.69455 5.71142L1.19064 5.57665C0.923076 5.50495 0.650996 5.6626 0.579306 5.93017C0.507616 6.19773 0.66526 6.46981 0.932826 6.5415L1.43869 6.67822C1.26976 7.55223 1.2691 8.45045 1.43674 9.32472L0.932826 9.45949C0.665266 9.53118 0.507616 9.80326 0.579306 10.0708C0.650999 10.3384 0.923076 10.496 1.19064 10.4243L1.70041 10.2876C1.99096 11.1282 2.43906 11.9058 3.02071 12.5786L2.64962 12.9497C2.45375 13.1456 2.45375 13.4609 2.64962 13.6567C2.84549 13.8526 3.16078 13.8526 3.35665 13.6567L3.72579 13.2876C4.0604 13.5797 4.42207 13.8394 4.80589 14.063C5.19119 14.2839 5.59665 14.4677 6.01679 14.6118L5.88202 15.1157C5.81032 15.3833 5.96797 15.6554 6.23554 15.7271C6.5031 15.7987 6.77518 15.6411 6.84687 15.3735L6.98359 14.8677C7.8576 15.0366 8.75582 15.0373 9.63009 14.8697L9.76486 15.3736C9.83655 15.6411 10.1086 15.7988 10.3762 15.7271C10.6437 15.6554 10.8014 15.3833 10.7297 15.1158L10.593 14.606C11.4336 14.3155 12.2111 13.8674 12.884 13.2857L13.2551 13.6568C13.4509 13.8527 13.7662 13.8527 13.9621 13.6568C14.158 13.4609 14.158 13.1456 13.9621 12.9498L13.593 12.5806C13.8851 12.246 14.1447 11.8844 14.3684 11.5005C14.5893 11.1152 14.7731 10.7098 14.9172 10.2896L15.4211 10.4244C15.6887 10.4961 15.9607 10.3385 16.0324 10.0709C16.1041 9.80333 15.9465 9.53126 15.6789 9.45956L15.173 9.32284C15.2555 8.89608 15.298 8.46258 15.3 8.02794C15.3005 8.01836 15.3059 8.01031 15.3059 8.00059C15.3059 7.98807 15.299 7.97772 15.2981 7.96544C15.297 7.53286 15.2558 7.10131 15.175 6.67634L15.679 6.54157C15.9465 6.46987 16.1042 6.1978 16.0325 5.93024C15.9608 5.66268 15.6887 5.50503 15.4211 5.57672L14.9114 5.71344C14.6208 4.87283 14.1727 4.09529 13.5911 3.42244L13.9622 3.05135C14.158 2.85548 14.158 2.54019 13.9622 2.34432C13.7663 2.14845 13.451 2.14845 13.2551 2.34432L12.886 2.71346C12.5514 2.42131 12.1897 2.16167 11.8059 1.93807C11.4206 1.71712 11.0151 1.53335 10.595 1.38924L10.7298 0.885327C10.8015 0.617767 10.6438 0.345687 10.3763 0.273997C10.1086 0.202257 9.83657 0.359904 9.76487 0.627467L9.62815 1.13333C8.75413 0.964405 7.85591 0.963743 6.98165 1.13138L6.84688 0.627467C6.79311 0.426797 6.62588 0.286896 6.43283 0.260246ZM8.02263 2.00635C9.17096 1.9526 10.3106 2.22987 11.3058 2.80518C12.1432 3.29008 12.8509 3.97034 13.3686 4.78792C13.8862 5.60549 14.1984 6.53614 14.2785 7.50048H10.2394C10.1287 7.07164 9.87878 6.69169 9.52883 6.42022C9.17889 6.14875 8.74873 6.00112 8.30583 6.00048C8.12557 6.00107 7.94621 6.02604 7.77263 6.0747L5.75113 2.57469C6.46363 2.2379 7.23549 2.04478 8.02263 2.00635ZM4.88593 3.07865L6.90543 6.57475C6.71583 6.76069 6.56516 6.98254 6.46222 7.22733C6.35927 7.47213 6.3061 7.73498 6.30582 8.00055C6.30585 8.26597 6.35871 8.52874 6.46132 8.77353C6.56393 9.01832 6.71424 9.24024 6.90348 9.42635L4.88398 12.9243C3.64921 12.0661 2.78172 10.7755 2.4533 9.308C2.12487 7.84055 2.35945 6.30327 3.11058 5.00055C3.5538 4.23711 4.15996 3.58087 4.88593 3.07865ZM8.30583 7.00055C8.57105 7.00055 8.8254 7.1059 9.01294 7.29344C9.20048 7.48098 9.30583 7.73533 9.30583 8.00055C9.30583 8.26576 9.20048 8.52012 9.01294 8.70765C8.8254 8.89519 8.57105 9.00055 8.30583 9.00055C8.04062 9.00055 7.78626 8.89519 7.59873 8.70765C7.41119 8.52012 7.30583 8.26576 7.30583 8.00055C7.30583 7.73533 7.41119 7.48098 7.59873 7.29344C7.78626 7.1059 8.04062 7.00055 8.30583 7.00055ZM10.2413 8.50055H14.2784C14.2065 9.38094 13.9411 10.2346 13.5011 11.0005C12.7481 12.3023 11.5337 13.2738 10.0984 13.7227C8.66313 14.1715 7.11161 14.0651 5.75109 13.4243L7.77059 9.92825C7.94489 9.97642 8.12492 10.0007 8.30575 10.0005C8.74898 10.0003 9.17957 9.85285 9.5299 9.58135C9.88023 9.30984 10.1305 8.92969 10.2413 8.50055Z" fill="url(#paint0_linear_9_629)"/>
</g>
<defs>
<linearGradient id="paint0_linear_9_629" x1="0.562012" y1="8.00013" x2="16.0498" y2="8.00013" gradientUnits="userSpaceOnUse">
<stop stop-color="#FDFC47"/>
<stop offset="1" stop-color="#24FE41"/>
</linearGradient>
<clipPath id="clip0_9_629">
<rect width="16" height="16" fill="white" transform="translate(0.305908 0.000488281)"/>
</clipPath>
</defs>
</svg>
