<svg width="17" height="16" viewBox="0 0 17 16" fill="none" xmlns="http://www.w3.org/2000/svg">
<g clip-path="url(#clip0_9_647)">
<path d="M5.30591 2.00049H6.30591L4.30591 7.00049H3.30591L5.30591 2.00049Z" fill="url(#paint0_linear_9_647)"/>
<path d="M6.30591 2.00049H5.30591L7.30591 7.00049H8.30591L6.30591 2.00049Z" fill="url(#paint1_linear_9_647)"/>
<path d="M4.80591 5.50049H6.80591V5.00049H4.80591V5.50049ZM3.30591 6.50049H4.80591V7.00049H3.30591V6.50049ZM6.80591 6.50049H8.30591V7.00049H6.80591V6.50049Z" fill="url(#paint2_linear_9_647)"/>
<path opacity="0.5" d="M3.30591 10.0005H12.3059V11.0005H3.30591V10.0005ZM3.30591 12.0005H12.3059V13.0005H3.30591V12.0005Z" fill="url(#paint3_linear_9_647)"/>
<path d="M5.29991 0.000488281C4.04191 0.0154883 3.12091 -0.0295117 2.36891 0.385488C1.97952 0.607606 1.68232 0.961551 1.53091 1.38349C1.36591 1.82049 1.30591 2.34349 1.30591 3.00049V13.0005C1.30591 13.6585 1.36591 14.1795 1.53091 14.6175C1.69491 15.0565 1.99191 15.4065 2.36891 15.6135C3.12091 16.0285 4.04191 15.9855 5.29991 16.0005H10.3119C11.5699 15.9855 12.4909 16.0305 13.2439 15.6155C13.6333 15.3934 13.9305 15.0394 14.0819 14.6175C14.2459 14.1795 14.3059 13.6575 14.3059 13.0005V3.00049C14.3059 2.34249 14.2459 1.82149 14.0809 1.38349C13.9297 0.962233 13.6328 0.608951 13.2439 0.387488C12.4909 -0.0275117 11.5699 0.0154883 10.3119 0.000488281H5.30391H5.29991ZM5.30591 1.00049H10.3059C11.5649 1.01549 12.3959 1.06049 12.7609 1.26249C12.9449 1.36249 13.0479 1.47549 13.1459 1.73449C13.2429 1.99449 13.3059 2.40849 13.3059 3.00049V8.00049H2.30591V3.00049C2.30591 2.40849 2.36891 1.99449 2.46591 1.73449C2.56391 1.47449 2.66791 1.36349 2.85091 1.26249C3.21591 1.06049 4.04591 1.01549 5.30591 1.00049ZM2.30591 9.00049H13.3059V13.0005C13.3059 13.5925 13.2439 14.0065 13.1459 14.2665C13.0479 14.5265 12.9449 14.6375 12.7609 14.7385C12.3949 14.9405 11.5649 14.9855 10.3059 15.0005H5.30591C4.04691 14.9855 3.21591 14.9405 2.85091 14.7385C2.66691 14.6385 2.56391 14.5255 2.46591 14.2665C2.36791 14.0065 2.30591 13.5925 2.30591 13.0005V9.00049Z" fill="url(#paint4_linear_9_647)"/>
</g>
<defs>
<linearGradient id="paint0_linear_9_647" x1="3.30591" y1="4.50049" x2="6.30591" y2="4.50049" gradientUnits="userSpaceOnUse">
<stop stop-color="#FDFC47"/>
<stop offset="1" stop-color="#24FE41"/>
</linearGradient>
<linearGradient id="paint1_linear_9_647" x1="5.30591" y1="4.50049" x2="8.30591" y2="4.50049" gradientUnits="userSpaceOnUse">
<stop stop-color="#FDFC47"/>
<stop offset="1" stop-color="#24FE41"/>
</linearGradient>
<linearGradient id="paint2_linear_9_647" x1="3.30591" y1="6.00049" x2="8.30591" y2="6.00049" gradientUnits="userSpaceOnUse">
<stop stop-color="#FDFC47"/>
<stop offset="1" stop-color="#24FE41"/>
</linearGradient>
<linearGradient id="paint3_linear_9_647" x1="3.30591" y1="11.5005" x2="12.3059" y2="11.5005" gradientUnits="userSpaceOnUse">
<stop stop-color="#FDFC47"/>
<stop offset="1" stop-color="#24FE41"/>
</linearGradient>
<linearGradient id="paint4_linear_9_647" x1="1.30591" y1="8.00049" x2="14.3059" y2="8.00049" gradientUnits="userSpaceOnUse">
<stop stop-color="#FDFC47"/>
<stop offset="1" stop-color="#24FE41"/>
</linearGradient>
<clipPath id="clip0_9_647">
<rect width="16" height="16" fill="white" transform="translate(0.305908 0.000488281)"/>
</clipPath>
</defs>
</svg>
