<svg width="17" height="16" viewBox="0 0 17 16" fill="none" xmlns="http://www.w3.org/2000/svg">
<g clip-path="url(#clip0_9_685)">
<path d="M8.30591 0.000488281C6.18418 0.000488281 4.14935 0.843343 2.64905 2.34363C1.14876 3.84392 0.305908 5.87876 0.305908 8.00049C0.306506 9.88982 0.975761 11.718 2.19513 13.1611C3.4145 14.6043 5.10528 15.5693 6.96801 15.8853C7.23057 15.9304 7.49523 15.9623 7.76098 15.981C7.94234 15.9937 8.12409 16.0002 8.3059 16.0005C8.83985 16.0003 9.37244 15.9467 9.8957 15.8404C10.1566 15.7875 10.4148 15.7217 10.6691 15.6431C11.7204 15.3173 12.6932 14.778 13.5265 14.0591C13.6421 13.9601 13.7547 13.8579 13.8644 13.7524C13.8631 13.7498 13.8618 13.7472 13.8605 13.7446C14.6323 13 15.2465 12.1078 15.6666 11.121C16.0867 10.1342 16.3041 9.07302 16.3058 8.00055C16.3058 5.87882 15.463 3.84398 13.9627 2.34369C12.4624 0.843403 10.4276 0.000488281 8.30591 0.000488281ZM8.30591 1.00049C10.1624 1.00049 11.9429 1.73799 13.2557 3.05074C14.5684 4.3635 15.3059 6.14397 15.3059 8.00049C15.3024 9.79156 14.6125 11.5132 13.3782 12.811C12.8391 11.9521 12.0912 11.2438 11.2041 10.7523C10.3171 10.2608 9.31999 10.0021 8.30591 10.0005C7.29079 10.0019 6.29262 10.2608 5.40483 10.7531C4.51704 11.2453 3.76865 11.9548 3.22971 12.815C1.99585 11.5155 1.30731 9.7924 1.30591 8.00049C1.30591 6.14397 2.04341 4.3635 3.35616 3.05074C4.66892 1.73799 6.44939 1.00049 8.30591 1.00049ZM8.30591 4.00049C7.77548 4.00049 7.26677 4.2112 6.89169 4.58628C6.51662 4.96135 6.30591 5.47006 6.30591 6.00049C6.30591 6.26313 6.35764 6.5232 6.45815 6.76586C6.55866 7.00851 6.70598 7.22898 6.89169 7.4147C7.26677 7.78977 7.77548 8.00049 8.30591 8.00049C8.83634 8.00049 9.34505 7.78977 9.72012 7.4147C10.0952 7.03963 10.3059 6.53092 10.3059 6.00049C10.3059 5.47006 10.0952 4.96135 9.72012 4.58628C9.34505 4.2112 8.83634 4.00049 8.30591 4.00049Z" fill="url(#paint0_linear_9_685)"/>
</g>
<defs>
<linearGradient id="paint0_linear_9_685" x1="0.305908" y1="8.0005" x2="16.3058" y2="8.0005" gradientUnits="userSpaceOnUse">
<stop stop-color="#FDFC47"/>
<stop offset="1" stop-color="#24FE41"/>
</linearGradient>
<clipPath id="clip0_9_685">
<rect width="16" height="16" fill="white" transform="translate(0.305908 0.000488281)"/>
</clipPath>
</defs>
</svg>
