<svg width="17" height="16" viewBox="0 0 17 16" fill="none" xmlns="http://www.w3.org/2000/svg">
<g clip-path="url(#clip0_9_683)">
<path d="M8.36691 1.00235C8.27132 1.00981 8.17595 1.03894 8.08774 1.09028L7.59919 1.37165C7.28554 1.55416 7.18255 1.9524 7.36364 2.26852L11.6035 9.67212L13.1564 8.62572L8.97764 1.33642C8.86446 1.13884 8.6721 1.01703 8.46292 1.00229C8.43154 1.00005 8.39877 0.999797 8.36691 1.00235ZM6.86641 3.52585C6.65723 3.54059 6.45614 3.65361 6.34296 3.85118L5.91548 4.58978L7.52948 5.53061L7.95696 4.79201C8.13804 4.47589 8.03506 4.07765 7.72141 3.89514L7.24158 3.61377C7.12396 3.54532 6.99192 3.517 6.86641 3.52585ZM5.64501 5.07335L1.98961 11.4657L3.60361 12.3978L7.25901 6.01419L5.64501 5.07335ZM0.305908 7.93985V9.82155H2.46961L3.54271 7.93985H0.305908ZM6.62221 7.93985L5.54911 9.82155H11.2284L10.1466 7.93985H6.62221ZM13.2262 7.93985L14.308 9.82155H16.306V7.93985H13.2262ZM13.4357 9.10935L11.8828 10.1556L12.6593 11.5097L14.2122 10.4634L13.4357 9.10935ZM14.4913 10.9558L12.9384 12.0021C12.9847 13.8729 14.4022 13.64 14.9449 14.807C15.9783 13.6981 15.6659 11.9931 14.4913 10.9558ZM1.71033 11.9494L0.864088 15.0005L3.32429 12.8902L1.71033 11.9494Z" fill="url(#paint0_linear_9_683)"/>
</g>
<defs>
<linearGradient id="paint0_linear_9_683" x1="0.305908" y1="8.00051" x2="16.306" y2="8.00051" gradientUnits="userSpaceOnUse">
<stop stop-color="#FDFC47"/>
<stop offset="1" stop-color="#24FE41"/>
</linearGradient>
<clipPath id="clip0_9_683">
<rect width="16" height="16" fill="white" transform="translate(0.305908 0.000488281)"/>
</clipPath>
</defs>
</svg>
