<svg width="17" height="16" viewBox="0 0 17 16" fill="none" xmlns="http://www.w3.org/2000/svg">
<g clip-path="url(#clip0_9_689)">
<path d="M8.30591 3.00049L5.30591 6.00049H7.30591V10.0005H5.30591L8.30591 13.0005L11.3059 10.0005H9.30591V6.00049H11.3059L8.30591 3.00049Z" fill="url(#paint0_linear_9_689)"/>
<path d="M3.30591 0.000488281C2.19791 0.000488281 1.30591 0.892488 1.30591 2.00049V14.0005C1.30591 15.1085 2.19791 16.0005 3.30591 16.0005H13.3059C14.4139 16.0005 15.3059 15.1085 15.3059 14.0005V2.00049C15.3059 0.892488 14.4139 0.000488281 13.3059 0.000488281H3.30591ZM3.30591 1.00049H13.3059C13.8599 1.00049 14.3059 1.44649 14.3059 2.00049V14.0005C14.3059 14.5545 13.8599 15.0005 13.3059 15.0005H3.30591C2.75191 15.0005 2.30591 14.5545 2.30591 14.0005V2.00049C2.30591 1.44649 2.75191 1.00049 3.30591 1.00049Z" fill="url(#paint1_linear_9_689)"/>
</g>
<defs>
<linearGradient id="paint0_linear_9_689" x1="5.30591" y1="8.00049" x2="11.3059" y2="8.00049" gradientUnits="userSpaceOnUse">
<stop stop-color="#FDFC47"/>
<stop offset="1" stop-color="#24FE41"/>
</linearGradient>
<linearGradient id="paint1_linear_9_689" x1="1.30591" y1="8.00049" x2="15.3059" y2="8.00049" gradientUnits="userSpaceOnUse">
<stop stop-color="#FDFC47"/>
<stop offset="1" stop-color="#24FE41"/>
</linearGradient>
<clipPath id="clip0_9_689">
<rect width="16" height="16" fill="white" transform="translate(0.305908 0.000488281)"/>
</clipPath>
</defs>
</svg>
