<svg width="17" height="16" viewBox="0 0 17 16" fill="none" xmlns="http://www.w3.org/2000/svg">
<g clip-path="url(#clip0_9_701)">
<path d="M5.30591 4.00049C4.64791 4.00049 4.12691 4.06049 3.68891 4.22549C3.26697 4.3769 2.91303 4.6741 2.69091 5.06349C2.27491 5.81549 2.32091 6.73649 2.30591 7.99449V12.0065C2.32091 13.2645 2.27591 14.1855 2.69091 14.9385C2.89791 15.3145 3.25091 15.6115 3.68891 15.7765C4.12691 15.9405 4.64891 16.0005 5.30591 16.0005H9.98391C9.62981 15.7153 9.32097 15.3782 9.06791 15.0005H5.30591C4.71391 15.0005 4.29991 14.9375 4.03991 14.8405C3.77991 14.7425 3.66891 14.6375 3.56791 14.4535C3.36591 14.0875 3.32091 13.2605 3.30591 12.0005V8.00049C3.32091 6.74149 3.36591 5.91349 3.56791 5.54749C3.66791 5.36349 3.77991 5.25749 4.03991 5.16049C4.29991 5.06349 4.71391 5.00049 5.30591 5.00049H10.3059C10.8979 5.00049 11.3119 5.06349 11.5719 5.16049C11.8319 5.25849 11.9429 5.36349 12.0439 5.54749C12.2459 5.91349 12.2909 6.74149 12.3059 8.00049V8.03349C12.4718 8.01321 12.6388 8.00219 12.8059 8.00049C12.973 8.00153 13.1399 8.01188 13.3059 8.03149V7.99449C13.2909 6.73649 13.3359 5.81549 12.9209 5.06249C12.6988 4.6731 12.3448 4.3759 11.9229 4.22449C11.4859 4.06049 10.9629 4.00049 10.3059 4.00049H5.30591ZM12.8059 9.00049C11.8777 9.00049 10.9874 9.36924 10.331 10.0256C9.67466 10.682 9.30591 11.5722 9.30591 12.5005C9.30591 13.4287 9.67466 14.319 10.331 14.9754C10.9874 15.6317 11.8777 16.0005 12.8059 16.0005C13.7342 16.0005 14.6244 15.6317 15.2808 14.9754C15.9372 14.319 16.3059 13.4287 16.3059 12.5005C16.3059 11.5722 15.9372 10.682 15.2808 10.0256C14.6244 9.36924 13.7342 9.00049 12.8059 9.00049ZM12.3059 10.0005H13.3059V10.6685C13.3059 11.0165 13.2899 11.3355 13.2589 11.6255C13.2289 11.9155 13.1899 12.2065 13.1439 12.5005H14.3059L12.8059 15.0005L11.3059 12.5005H12.4779C12.4263 12.2103 12.3846 11.9185 12.3529 11.6255C12.3205 11.3075 12.3048 10.9881 12.3059 10.6685V10.0005Z" fill="url(#paint0_linear_9_701)"/>
<path fill-rule="evenodd" clip-rule="evenodd" d="M4.30591 0.000488281V3.00049H5.30591V1.00049H10.3059V3.00049H11.3059V0.000488281H4.30591ZM6.30591 2.00049V3.00049H7.30591V2.00049H6.30591ZM8.30591 2.00049V3.00049H9.30591V2.00049H8.30591Z" fill="url(#paint1_linear_9_701)"/>
</g>
<defs>
<linearGradient id="paint0_linear_9_701" x1="2.30591" y1="10.0005" x2="16.3059" y2="10.0005" gradientUnits="userSpaceOnUse">
<stop stop-color="#FDFC47"/>
<stop offset="1" stop-color="#24FE41"/>
</linearGradient>
<linearGradient id="paint1_linear_9_701" x1="4.30591" y1="1.50049" x2="11.3059" y2="1.50049" gradientUnits="userSpaceOnUse">
<stop stop-color="#FDFC47"/>
<stop offset="1" stop-color="#24FE41"/>
</linearGradient>
<clipPath id="clip0_9_701">
<rect width="16" height="16" fill="white" transform="translate(0.305908 0.000488281)"/>
</clipPath>
</defs>
</svg>
