<svg width="17" height="16" viewBox="0 0 17 16" fill="none" xmlns="http://www.w3.org/2000/svg">
<g clip-path="url(#clip0_9_722)">
<path d="M12.549 3.75793L6.89212 6.58633L4.06372 12.2432L9.72062 9.41483L12.549 3.75793ZM9.01352 7.29343C9.20105 7.48097 9.30641 7.73532 9.30641 8.00053C9.30641 8.26575 9.20105 8.5201 9.01352 8.70763C8.82599 8.89517 8.57163 9.00052 8.30642 9.00052C8.04121 9.00052 7.78686 8.89517 7.59932 8.70763C7.41179 8.5201 7.30643 8.26575 7.30643 8.00053C7.30643 7.73532 7.41179 7.48097 7.59932 7.29343C7.78686 7.1059 8.04121 7.00055 8.30642 7.00055C8.57163 7.00055 8.82599 7.1059 9.01352 7.29343Z" fill="url(#paint0_linear_9_722)"/>
<path fill-rule="evenodd" clip-rule="evenodd" d="M8.30591 0.000488281C6.18418 0.000488281 4.14935 0.843343 2.64905 2.34363C1.14876 3.84393 0.305908 5.87876 0.305908 8.00049C0.305908 10.1222 1.14876 12.1571 2.64905 13.6573C4.14935 15.1576 6.18418 16.0005 8.30591 16.0005C10.4276 16.0005 12.4625 15.1576 13.9628 13.6573C15.4631 12.1571 16.3059 10.1222 16.3059 8.00049C16.3059 5.87876 15.4631 3.84393 13.9628 2.34363C12.4625 0.843343 10.4276 0.000488281 8.30591 0.000488281ZM8.30591 1.00049C10.1624 1.00049 11.9429 1.73799 13.2557 3.05074C14.5684 4.3635 15.3059 6.14397 15.3059 8.00049C15.3059 9.857 14.5684 11.6375 13.2557 12.9502C11.9429 14.263 10.1624 15.0005 8.30591 15.0005C6.44939 15.0005 4.66892 14.263 3.35616 12.9502C2.04341 11.6375 1.30591 9.857 1.30591 8.00049C1.30591 6.14397 2.04341 4.3635 3.35616 3.05074C4.66892 1.73799 6.44939 1.00049 8.30591 1.00049Z" fill="url(#paint1_linear_9_722)"/>
</g>
<defs>
<linearGradient id="paint0_linear_9_722" x1="4.06372" y1="8.00058" x2="12.549" y2="8.00058" gradientUnits="userSpaceOnUse">
<stop stop-color="#FDFC47"/>
<stop offset="1" stop-color="#24FE41"/>
</linearGradient>
<linearGradient id="paint1_linear_9_722" x1="0.305908" y1="8.00049" x2="16.3059" y2="8.00049" gradientUnits="userSpaceOnUse">
<stop stop-color="#FDFC47"/>
<stop offset="1" stop-color="#24FE41"/>
</linearGradient>
<clipPath id="clip0_9_722">
<rect width="16" height="16" fill="white" transform="translate(0.305908 0.000488281)"/>
</clipPath>
</defs>
</svg>
