<svg width="16" height="16" viewBox="0 0 16 16" fill="none" xmlns="http://www.w3.org/2000/svg">
<path d="M8 2C6.89543 2 6 2.89543 6 4C6 4.93198 6.6373 5.71554 7.5 5.9375V8H5V9H7.5V10V12.9688C6.31236 12.8926 4.93638 12.39 3.9375 11.8438L4.4375 11.1875L3.59375 10.625L2 12.7812C2 12.7812 2.84332 13.3083 2.84375 13.3125L3.3125 12.6875C4.61708 13.4294 6.40602 14 8 14C9.59878 14 11.352 13.4013 12.6562 12.6562L13.1562 13.3125L14 12.75L12.375 10.5938L11.5625 11.1875L12.0312 11.8125C11.0307 12.3656 9.70162 12.8917 8.5 12.9688V10V9H11V8H8.5V5.9375C9.3627 5.71554 10 4.93198 10 4C10 2.89543 9.10457 2 8 2ZM8 3C8.55228 3 9 3.44772 9 4C9 4.55228 8.55228 5 8 5C7.44772 5 7 4.55228 7 4C7 3.44772 7.44772 3 8 3Z" fill="url(#paint0_linear_10_8992)"/>
<defs>
<linearGradient id="paint0_linear_10_8992" x1="2" y1="8" x2="14" y2="8" gradientUnits="userSpaceOnUse">
<stop stop-color="#FDFC47"/>
<stop offset="1" stop-color="#24FE41"/>
</linearGradient>
</defs>
</svg>
