<svg width="16" height="16" viewBox="0 0 16 16" fill="none" xmlns="http://www.w3.org/2000/svg">
<path d="M7 2V3H8V4H9V3H8V2H7ZM8 4H7V5H8V4ZM8 5V6H9V5H8ZM8 6H7V8H9V7H8V6Z" fill="url(#paint0_linear_10_9021)"/>
<path d="M3 1.00001C1.892 1.00001 1 1.89201 1 3.00001V13C1 14.108 1.892 15 3 15H8.7617C8.55479 14.6887 8.38749 14.3527 8.26365 14H2.99995C2.44595 14 1.99995 13.554 1.99995 13V3.00001C1.99995 2.44601 2.44595 2.00001 2.99995 2.00001H13C13.554 2.00001 14 2.44601 14 3.00001V8.26371C14.3526 8.38693 14.6885 8.55357 15 8.7598V3C15 1.892 14.108 1 13 1L3 1.00001Z" fill="url(#paint1_linear_10_9021)"/>
<path d="M12.5 16C11.5717 16 10.6815 15.6313 10.0251 14.9749C9.36875 14.3185 9 13.4283 9 12.5C9 11.5717 9.36875 10.6815 10.0251 10.0251C10.6815 9.36875 11.5717 9 12.5 9C13.4283 9 14.3185 9.36875 14.9749 10.0251C15.6313 10.6815 16 11.5717 16 12.5C16 13.4283 15.6313 14.3185 14.9749 14.9749C14.3185 15.6313 13.4283 16 12.5 16ZM12.5 14.9141L15 12.4141L14.293 11.7071L13 13.0001V10.0001H12V13.0001L10.707 11.7071L9.99994 12.4141L12.5 14.9141Z" fill="url(#paint2_linear_10_9021)"/>
<defs>
<linearGradient id="paint0_linear_10_9021" x1="7" y1="5" x2="9" y2="5" gradientUnits="userSpaceOnUse">
<stop stop-color="#FDFC47"/>
<stop offset="1" stop-color="#24FE41"/>
</linearGradient>
<linearGradient id="paint1_linear_10_9021" x1="1" y1="8" x2="15" y2="8" gradientUnits="userSpaceOnUse">
<stop stop-color="#FDFC47"/>
<stop offset="1" stop-color="#24FE41"/>
</linearGradient>
<linearGradient id="paint2_linear_10_9021" x1="9" y1="12.5" x2="16" y2="12.5" gradientUnits="userSpaceOnUse">
<stop stop-color="#FDFC47"/>
<stop offset="1" stop-color="#24FE41"/>
</linearGradient>
</defs>
</svg>
