<svg width="16" height="16" viewBox="0 0 16 16" fill="none" xmlns="http://www.w3.org/2000/svg">
<path d="M8.00001 2C7.79752 2 7.59773 2.01165 7.4004 2.03125C6.58127 2.11259 5.81168 2.35907 5.12305 2.73633C4.95093 2.83062 4.78245 2.93281 4.6211 3.04297C4.57769 3.07494 4.53472 3.1075 4.49219 3.14062C4.37934 3.22221 4.26692 3.30352 4.16016 3.39258C4.10187 3.44355 4.04457 3.49564 3.98829 3.54883C3.89609 3.63197 3.80368 3.71409 3.7168 3.80273C3.71422 3.80537 3.71156 3.80791 3.70899 3.81055C3.70443 3.81445 3.69987 3.81835 3.69532 3.82227C3.69532 3.82292 3.69532 3.82357 3.69532 3.82422C3.65023 3.87296 3.60595 3.92245 3.56251 3.97266C3.48267 4.06058 3.4027 4.14767 3.32813 4.24023C3.32609 4.24277 3.32431 4.24551 3.32227 4.24805C3.31509 4.25584 3.30793 4.26365 3.30079 4.27148C3.27835 4.30252 3.25622 4.33377 3.23438 4.36523C3.22851 4.37238 3.22265 4.37954 3.2168 4.38672C3.13427 4.49582 3.05359 4.60596 2.97852 4.7207C2.94169 4.77932 2.90588 4.83858 2.8711 4.89844C2.80517 5.00723 2.74071 5.1173 2.68165 5.23047C2.65064 5.2918 2.62069 5.35366 2.5918 5.41602C2.53309 5.53864 2.47624 5.662 2.42579 5.78906C2.42374 5.79421 2.42196 5.79953 2.41993 5.80469C2.416 5.81249 2.4121 5.8203 2.40821 5.82812C2.40092 5.85022 2.39376 5.87235 2.38672 5.89453C2.38411 5.90169 2.3815 5.90885 2.37891 5.91602C2.32845 6.052 2.28092 6.18965 2.24024 6.33008C2.23294 6.35347 2.22577 6.37691 2.21876 6.40039C2.21133 6.43223 2.20417 6.46413 2.19727 6.49609C2.19531 6.50325 2.19335 6.51041 2.19141 6.51758C2.15675 6.65362 2.1248 6.79012 2.09962 6.92969C2.09896 6.93164 2.09831 6.93359 2.09766 6.93555C2.09434 6.95116 2.09109 6.96678 2.0879 6.98242C2.0879 6.98307 2.0879 6.98372 2.0879 6.98438C2.08656 6.99544 2.08526 7.00651 2.08399 7.01758C2.07913 7.05204 2.07458 7.08655 2.07032 7.12109C2.05195 7.24588 2.03596 7.37088 2.0254 7.49805C2.02196 7.52472 2.01871 7.55141 2.01563 7.57812C2.01563 7.57878 2.01563 7.57943 2.01563 7.58008C2.01493 7.59375 2.01428 7.60742 2.01368 7.62109C2.00545 7.74202 2.00089 7.86317 2.00001 7.98438C1.99999 7.98963 2.00001 7.99474 2.00001 8V8.00195C2.00001 8.00326 2.00001 8.00456 2.00001 8.00586C1.99989 8.20479 2.00967 8.4036 2.0293 8.60156C2.02995 8.60547 2.0306 8.60938 2.03126 8.61328C2.05108 8.80796 2.08041 9.00155 2.11915 9.19336C2.11915 9.19466 2.11915 9.19596 2.11915 9.19727C2.11915 9.19792 2.11915 9.19857 2.11915 9.19922C2.14745 9.33869 2.18682 9.47359 2.22462 9.60938C2.23815 9.66492 2.25247 9.72026 2.26758 9.77539C2.26823 9.77734 2.26889 9.7793 2.26954 9.78125C2.26954 9.78125 2.26954 9.7832 2.26954 9.7832C2.2987 9.87695 2.33753 9.96688 2.3711 10.0586C2.37689 10.0749 2.38275 10.0912 2.38868 10.1074C2.41708 10.183 2.43938 10.2619 2.47071 10.3359C2.47136 10.3366 2.47201 10.3372 2.47266 10.3379C2.47266 10.3392 2.47266 10.3405 2.47266 10.3418C2.54795 10.5193 2.63322 10.6911 2.72462 10.8594C2.72786 10.8659 2.73111 10.8724 2.73438 10.8789C2.73438 10.8796 2.73438 10.8802 2.73438 10.8809C3.00728 11.3777 3.34922 11.8334 3.75001 12.2344C3.75261 12.237 3.75717 12.2415 3.75977 12.2441C3.7798 12.2651 3.79999 12.286 3.82032 12.3066C4.06583 12.5436 4.33112 12.7593 4.61329 12.9512C4.62718 12.9607 4.64033 12.9711 4.6543 12.9805C4.79381 13.0737 4.93716 13.161 5.08399 13.2422C5.11071 13.2571 5.1371 13.2726 5.16407 13.2871C5.28944 13.3535 5.41712 13.4154 5.54688 13.4727C5.60299 13.4979 5.65784 13.5253 5.71485 13.5488C5.85163 13.6041 5.99039 13.6542 6.13087 13.6992C6.17136 13.7125 6.21109 13.7278 6.25196 13.7402C6.39951 13.7844 6.54871 13.8228 6.69922 13.8555C6.74484 13.8656 6.78995 13.8757 6.83594 13.8848C7.00147 13.9172 7.16828 13.9426 7.33594 13.9609C7.36016 13.9636 7.3839 13.9683 7.40821 13.9707C7.60478 13.9922 7.80228 14.0039 8.00001 14.0059C8.88531 14.005 9.75946 13.8083 10.5598 13.4297C11.36 13.0512 12.0667 12.5003 12.6289 11.8164C12.6319 11.8128 12.6337 11.8083 12.6367 11.8047C12.6577 11.7808 12.6786 11.7567 12.6992 11.7324C12.7633 11.6488 12.8252 11.5635 12.8848 11.4766C12.9225 11.4237 12.9621 11.3725 12.9981 11.3184C13.0152 11.2944 13.0321 11.2703 13.0488 11.2461C13.0488 11.2454 13.0488 11.2448 13.0488 11.2441C13.0997 11.1614 13.1485 11.0773 13.1953 10.9922C13.2294 10.9331 13.2648 10.8748 13.2969 10.8145C13.3464 10.7187 13.3933 10.6217 13.4375 10.5234C13.4799 10.4323 13.5227 10.3416 13.5606 10.248C13.5711 10.224 13.5815 10.1999 13.5918 10.1758C13.6122 10.1181 13.6318 10.0602 13.6504 10.002C13.687 9.89858 13.7248 9.79534 13.7559 9.68945C13.7645 9.66282 13.773 9.63613 13.7813 9.60938C13.7813 9.60872 13.7813 9.60807 13.7813 9.60742C13.788 9.57882 13.7945 9.55018 13.8008 9.52148C13.8068 9.49418 13.8127 9.46684 13.8184 9.43945C13.8192 9.43623 13.8195 9.43292 13.8203 9.42969C13.847 9.32086 13.8739 9.21263 13.8945 9.10156C13.9006 9.07491 13.9064 9.04822 13.9121 9.02148C13.9209 8.96041 13.9287 8.89921 13.9356 8.83789C13.9502 8.73354 13.9635 8.62943 13.9727 8.52344C13.9728 8.52215 13.9726 8.52082 13.9727 8.51953C13.9747 8.50717 13.9766 8.4948 13.9785 8.48242C13.9806 8.46485 13.9825 8.44727 13.9844 8.42969C13.9844 8.42839 13.9844 8.42708 13.9844 8.42578C13.9945 8.28603 13.9997 8.14597 14 8.00586C14 8.00454 14 8.00327 14 8.00195C14 8.0013 14 8.00065 14 8C14 7.99605 14 7.99223 14 7.98828C13.9997 7.79391 13.9899 7.59967 13.9707 7.40625C13.9707 7.40495 13.9707 7.40365 13.9707 7.40234C13.9701 7.40039 13.9694 7.39844 13.9688 7.39648C13.9688 7.39388 13.9688 7.39128 13.9688 7.38867C13.9688 7.38802 13.9688 7.38737 13.9688 7.38672C13.9489 7.19159 13.9189 6.99969 13.8809 6.81055C13.841 6.61258 13.7912 6.41891 13.7324 6.22852C13.6133 5.84273 13.4562 5.47321 13.2656 5.125C13.1694 4.94917 13.0639 4.77787 12.9512 4.61328C12.8437 4.45641 12.7289 4.30582 12.6074 4.16016C12.559 4.10456 12.5095 4.04986 12.459 3.99609C12.3754 3.90306 12.2923 3.8103 12.2031 3.72266C12.1531 3.67556 12.1024 3.62933 12.0508 3.58398C11.9568 3.49774 11.863 3.41221 11.7637 3.33203C11.7148 3.29416 11.6653 3.25705 11.6152 3.2207C11.5047 3.13698 11.3937 3.05457 11.2773 2.97852C11.2277 2.94718 11.1775 2.91658 11.127 2.88672C11.0076 2.81357 10.8864 2.74258 10.7617 2.67773C10.7164 2.65502 10.6709 2.63289 10.625 2.61133C10.4849 2.54292 10.3433 2.47747 10.1973 2.41992C10.1687 2.40929 10.1401 2.39887 10.1113 2.38867C9.96166 2.3323 9.8094 2.28081 9.6543 2.23633C9.60369 2.22264 9.55291 2.20962 9.50196 2.19727C9.3539 2.159 9.205 2.12466 9.05274 2.09766C9.01958 2.09217 8.98638 2.08696 8.95313 2.08203C8.79846 2.05727 8.64275 2.03809 8.48438 2.02539C8.37259 2.01639 8.26057 2.01053 8.14844 2.00781C8.09861 2.00659 8.05013 2 8.00001 2ZM8.00001 3.00586C8.12649 3.00692 8.25288 3.01279 8.37891 3.02344C8.41894 3.0271 8.45931 3.02707 8.50001 3.03125C8.50317 3.03184 8.50657 3.03092 8.50977 3.03125C8.64664 3.04645 8.78283 3.0673 8.91797 3.09375C9.00698 3.1138 9.09493 3.13335 9.18751 3.15625C9.44401 3.21925 9.69826 3.305 9.93751 3.40625C10.0695 3.46175 10.1865 3.527 10.3125 3.59375C10.3125 3.60275 10.3133 3.61375 10.3125 3.625C10.3418 3.63775 10.3575 3.69175 10.4063 3.71875C10.4243 3.7285 10.4203 3.741 10.4375 3.75C10.4668 3.76575 10.506 3.784 10.5 3.8125C10.4918 3.85225 10.434 3.84425 10.4063 3.875C10.41 3.93275 10.3588 3.92975 10.3438 3.96875C10.3528 3.9935 10.4025 4.00125 10.4063 4.03125C10.401 4.0635 10.3318 4.06075 10.3438 4.09375C10.3978 4.13575 10.449 4.1035 10.5 4.09375C10.6118 4.0795 10.7123 4.086 10.7813 4.03125C10.7723 3.978 10.881 3.9855 10.875 3.9375C10.9035 3.9585 10.9403 3.979 10.9688 4C10.9583 4.0105 10.9495 4.02525 10.9375 4.03125C10.9165 4.041 10.8938 4.0505 10.875 4.0625C10.8473 4.0805 10.8135 4.104 10.7813 4.125C10.758 4.14075 10.7115 4.21875 10.6875 4.21875C10.6583 4.21875 10.6148 4.1815 10.5938 4.1875C10.5638 4.19725 10.565 4.238 10.5313 4.25C10.4653 4.274 10.3358 4.21155 10.3125 4.31055C10.3403 4.36755 10.4498 4.34155 10.5 4.37305C10.5308 4.3933 10.5855 4.46355 10.5938 4.49805C10.602 4.5258 10.6058 4.65555 10.5938 4.68555C10.563 4.7658 10.4673 4.74955 10.375 4.74805H10.3125C10.1573 4.7383 10.0073 4.6683 9.93751 4.7793C9.94276 4.86405 9.95626 4.92575 9.93751 5C9.92326 5.054 9.84076 5.1078 9.84376 5.1543C9.84526 5.1783 9.90026 5.2143 9.90626 5.24805C9.91001 5.26605 9.89801 5.29405 9.90626 5.31055C9.93251 5.3593 9.98476 5.3008 10.0313 5.31055C10.0755 5.3203 10.125 5.38605 10.125 5.43555C10.125 5.4708 10.1163 5.528 10.0938 5.5625C10.0495 5.6285 9.96926 5.62025 9.90626 5.65625C9.85451 5.68625 9.84326 5.7588 9.81251 5.81055C9.77951 5.8668 9.73651 5.8873 9.75001 5.9668C9.70501 6.05605 9.65551 6.11155 9.56251 6.1543C9.53551 6.1663 9.49351 6.16755 9.46876 6.18555C9.44851 6.1998 9.43401 6.24705 9.40626 6.2793C9.37101 6.3183 9.33126 6.34305 9.31251 6.37305C9.29826 6.3963 9.29626 6.43455 9.28126 6.4668C9.25951 6.5088 9.21526 6.51855 9.18751 6.56055C9.17476 6.5808 9.17051 6.62805 9.15626 6.6543C9.12401 6.71205 9.08776 6.75955 9.09376 6.81055C9.09901 6.85855 9.15326 6.86005 9.15626 6.9043C9.15926 6.9283 9.12426 6.9398 9.12501 6.9668C9.12651 7.00505 9.15326 7.03055 9.15626 7.06055C9.16301 7.1348 9.10726 7.16655 9.09376 7.2168C9.08701 7.2408 9.09976 7.2598 9.09376 7.2793C9.08176 7.31605 9.03201 7.36005 9.03126 7.4043C9.02976 7.43505 9.09076 7.4538 9.09376 7.49805C9.09601 7.5273 9.05651 7.56405 9.06251 7.5918C9.07376 7.6458 9.17676 7.70605 9.21876 7.74805C9.27576 7.80505 9.35026 7.8443 9.37501 7.9043C9.39601 7.9553 9.39851 8.05355 9.43751 8.0918C9.46676 8.11955 9.52501 8.1243 9.56251 8.1543C9.59776 8.1813 9.61951 8.1868 9.65626 8.2168C9.71701 8.2648 9.80951 8.37859 9.90626 8.37109C9.95726 8.36134 10.0055 8.3203 10.0625 8.31055C10.1218 8.3008 10.19 8.27284 10.25 8.27734C10.2958 8.28709 10.3563 8.31355 10.4043 8.31055C10.4546 8.3008 10.5036 8.30134 10.5606 8.27734C10.6596 8.23459 10.8228 8.16259 10.9668 8.18359C11.0771 8.19934 11.0771 8.32234 11.1543 8.37109C11.2421 8.38084 11.3045 8.35384 11.375 8.37109C11.4283 8.38384 11.4948 8.45605 11.5 8.49805C11.5053 8.5408 11.4435 8.5953 11.4375 8.62305C11.4233 8.6808 11.4472 8.74255 11.4375 8.7793C11.4292 8.80855 11.4055 8.8438 11.4063 8.87305C11.4063 8.8993 11.4418 8.96355 11.4688 8.99805C11.5018 9.04005 11.5533 9.0773 11.5938 9.12305C11.6665 9.20705 11.699 9.2933 11.75 9.4043C11.7628 9.43205 11.738 9.46205 11.75 9.49805C11.7283 9.66605 11.6728 9.7808 11.5625 9.9668C11.5108 10.0268 11.4348 10.0793 11.4356 10.1543C11.4318 10.3343 11.5376 10.449 11.5293 10.623C11.5113 10.857 11.5473 10.8728 11.5293 10.998C11.6081 11.0378 11.5526 11.1655 11.5293 11.248C11.4956 11.347 11.4543 11.3695 11.4356 11.4355C11.4888 11.4588 11.5638 11.449 11.6231 11.4355C11.5931 11.467 11.5601 11.4985 11.5293 11.5293C11.3063 11.7523 11.0528 11.9669 10.791 12.1445C10.7869 12.1474 10.7835 12.1515 10.7793 12.1543C10.7767 12.1556 10.7741 12.1569 10.7715 12.1582C10.5558 12.3035 10.3255 12.4244 10.0898 12.5371C10.012 12.575 9.93321 12.6108 9.85352 12.6445C9.66532 12.7226 9.4676 12.7823 9.26758 12.8359C8.98658 12.9096 8.69968 12.9586 8.41016 12.9824C8.27429 12.9899 8.13746 12.998 7.99805 12.998C7.80755 12.998 7.62005 12.9866 7.43555 12.9648C7.38637 12.9593 7.3382 12.9513 7.28907 12.9453C7.16128 12.9274 7.03423 12.9046 6.90821 12.877C6.65895 12.8142 6.4201 12.7153 6.18555 12.623C6.17655 12.6058 6.15205 12.5808 6.1543 12.5605C6.20605 12.5388 6.30355 12.6348 6.3418 12.5605C6.36055 12.5253 6.31705 12.4388 6.3418 12.4043C6.3598 12.3803 6.4613 12.3805 6.49805 12.373C6.5513 12.3632 6.6243 12.356 6.6543 12.3418C6.6873 12.3208 6.7228 12.247 6.7168 12.1855C6.7138 12.1563 6.6768 12.1485 6.6543 12.123C6.63555 12.1013 6.66705 12.0815 6.6543 12.0605C6.6303 12.0253 6.5703 12.0178 6.56055 11.9668C6.63255 11.9525 6.73755 12.0265 6.8418 11.998C6.89055 11.9838 6.97555 11.8875 6.99805 11.8418C7.0048 11.8275 6.9898 11.7973 6.99805 11.7793C7.00705 11.7613 7.0263 11.7265 7.0293 11.7168C7.03605 11.6898 7.0233 11.7035 7.0293 11.6855C7.0473 11.6345 7.09305 11.5973 7.12305 11.5605C7.1463 11.5328 7.1958 11.496 7.2168 11.4668C7.2408 11.436 7.23155 11.432 7.24805 11.4043C7.26305 11.3135 7.19505 11.2338 7.2168 11.1543C7.2408 11.0643 7.3798 11.008 7.4668 10.9668C7.4968 10.9525 7.5358 10.9445 7.56055 10.9355C7.62055 10.9145 7.6918 10.8925 7.74805 10.873C7.8418 10.8393 7.85855 10.7718 7.9043 10.6855C7.92605 10.6458 7.96305 10.5898 7.9668 10.5605C7.97055 10.5343 7.96155 10.5288 7.9668 10.498C7.97205 10.4688 7.95855 10.438 7.9668 10.4043C7.97805 10.3615 7.99805 10.2648 7.99805 10.2168C7.99805 10.177 7.9683 10.159 7.9668 10.123C7.96005 9.9933 8.01255 10.0068 8.06055 9.93555C8.08455 9.9003 8.10655 9.83605 8.12305 9.81055C8.20405 9.69055 8.35155 9.6483 8.3418 9.4668C8.33805 9.4068 8.2923 9.26755 8.24805 9.24805C8.2233 9.2368 8.19105 9.2303 8.1543 9.2168C8.03655 9.17255 7.93355 9.03905 7.81055 9.0293H7.74805C7.70005 9.0293 7.6458 9.00555 7.5918 8.99805C7.55805 8.9883 7.48705 9.0078 7.4668 8.99805C7.43605 8.98305 7.42905 8.92155 7.4043 8.9043C7.38405 8.89005 7.3413 8.8843 7.31055 8.87305C7.2618 8.85505 7.24255 8.8143 7.18555 8.81055C7.16755 8.81055 7.14255 8.8203 7.12305 8.81055C7.0923 8.8008 7.05855 8.7973 7.0293 8.7793C6.9933 8.75755 6.95055 8.74755 6.93555 8.7168C6.96855 8.6088 6.86355 8.5923 6.8418 8.5293C6.83205 8.50005 6.85155 8.43055 6.8418 8.4043C6.82905 8.36755 6.7893 8.3413 6.74805 8.31055C6.67605 8.2543 6.6328 8.22955 6.5293 8.2168C6.48355 8.20705 6.4278 8.22655 6.37305 8.2168C6.3153 8.20705 6.2298 8.1733 6.18555 8.12305C6.14355 8.0743 6.12855 8.0213 6.0918 7.99805C6.05655 7.9763 6.02205 7.95805 5.99805 7.93555C5.9868 7.9258 5.9773 7.92755 5.9668 7.9043C5.9488 7.86755 5.9138 7.85555 5.93555 7.81055C5.8958 7.7903 5.9158 7.84855 5.87305 7.8418C5.83405 7.78705 5.80455 7.7323 5.7168 7.74805C5.67705 7.7578 5.63905 7.84105 5.5918 7.8418C5.5528 7.8418 5.5178 7.7563 5.4668 7.74805C5.4278 7.7383 5.3688 7.7838 5.3418 7.7793C5.29905 7.76955 5.28705 7.7423 5.24805 7.7168C5.2188 7.69805 5.17005 7.6528 5.1543 7.6543C5.10405 7.6543 5.06705 7.75355 4.99805 7.7168C4.9643 7.67405 5.06905 7.6628 5.0293 7.62305C4.9993 7.5938 4.9908 7.64005 4.9668 7.6543C4.93905 7.6723 4.9038 7.6743 4.87305 7.68555C4.80405 7.7118 4.73955 7.71955 4.68555 7.74805C4.6353 7.7743 4.62105 7.7908 4.5918 7.8418C4.56855 7.8838 4.5333 7.96455 4.49805 7.9668C4.45605 7.9668 4.44255 7.92275 4.4043 7.90625C4.28955 7.856 4.2183 7.93525 4.12305 7.9375C4.0353 7.9375 3.90055 7.802 3.9043 7.71875C3.9073 7.66775 3.92955 7.59425 3.93555 7.53125C3.9408 7.481 3.9973 7.42 3.99805 7.375C3.9988 7.31275 3.88155 7.288 3.8418 7.28125C3.74805 7.264 3.63655 7.32325 3.5293 7.28125C3.50905 7.2475 3.54855 7.22125 3.56055 7.1875C3.5673 7.1695 3.5538 7.146 3.56055 7.125C3.57255 7.09275 3.6393 7.065 3.6543 7.03125C3.66555 7.005 3.64305 6.9705 3.6543 6.9375C3.66705 6.9015 3.7138 6.87 3.7168 6.84375C3.72055 6.81 3.6813 6.77175 3.6543 6.75C3.57105 6.75975 3.5148 6.75725 3.4668 6.78125C3.3588 6.83 3.38805 6.9655 3.2793 7C3.24255 7.012 3.1963 7.02375 3.1543 7.03125C3.13743 7.04039 3.1151 7.03229 3.09571 7.03125C3.09636 7.02865 3.09701 7.02604 3.09766 7.02344C3.09831 7.01953 3.09896 7.01562 3.09962 7.01172C3.09961 7.01042 3.09961 7.00911 3.09962 7.00781C3.10408 6.99086 3.10864 6.97393 3.11329 6.95703C3.11712 6.95071 3.12141 6.94453 3.12305 6.9375C3.1943 6.61275 3.3043 6.29775 3.43555 6H3.4668C3.50505 6.00975 3.52755 6.0595 3.56055 6.0625C3.6528 6.07225 3.6723 5.978 3.74805 5.9375C3.82605 5.94875 3.8643 5.92775 3.93555 5.9375C3.98355 5.94725 4.0543 5.99625 4.0918 6C4.12405 6 4.1243 5.965 4.1543 5.96875C4.1843 5.9785 4.2428 6.0265 4.24805 6.0625C4.2533 6.1075 4.20405 6.16925 4.2168 6.21875C4.26405 6.26675 4.36805 6.28475 4.43555 6.3125C4.4798 6.27575 4.4423 6.208 4.43555 6.15625C4.4348 6.133 4.43855 6.0835 4.43555 6.0625C4.4303 6.0265 4.4043 5.9995 4.4043 5.96875C4.4043 5.8255 4.52705 5.77425 4.62305 5.71875C4.6643 5.69475 4.71205 5.643 4.74805 5.625C4.79905 5.60025 4.83105 5.61775 4.87305 5.59375C4.9488 5.551 5.0013 5.48625 5.06055 5.4375C5.08755 5.37225 5.05755 5.28325 5.06055 5.21875C5.08755 5.2015 5.12505 5.21875 5.1543 5.21875C5.20005 5.209 5.2218 5.15125 5.24805 5.125C5.26305 5.11 5.29255 5.10875 5.31055 5.09375C5.3563 5.05775 5.36455 5.01575 5.4043 5C5.41855 4.99025 5.44505 4.9743 5.4668 4.9668C5.4968 4.95705 5.5438 4.95355 5.5918 4.93555C5.62255 4.9243 5.7048 4.9178 5.7168 4.9043C5.7318 4.8893 5.71305 4.8338 5.7168 4.81055C5.7408 4.6973 5.8968 4.6918 5.99805 4.6543C6.0678 4.62805 6.14076 4.5463 6.21876 4.56055C6.20376 4.61455 6.14276 4.6203 6.15626 4.68555C6.17351 4.7763 6.28101 4.6678 6.31251 4.6543C6.37326 4.62805 6.48105 4.59055 6.56055 4.56055C6.6303 4.5358 6.75351 4.51655 6.68751 4.43555C6.63276 4.4258 6.60855 4.47855 6.56055 4.49805C6.52755 4.5078 6.52776 4.4698 6.50001 4.4668C6.47301 4.4668 6.46451 4.50255 6.43751 4.49805C6.41051 4.4883 6.37876 4.4373 6.37501 4.4043C6.36376 4.3203 6.43501 4.30955 6.46876 4.24805C6.44551 4.1723 6.34501 4.21555 6.28126 4.18555C6.28801 4.14055 6.32176 4.10155 6.37501 4.0918C6.41776 4.08205 6.53626 4.0998 6.56251 4.12305C6.57751 4.1358 6.53926 4.16455 6.56251 4.18555C6.58876 4.2088 6.62251 4.1953 6.65626 4.18555C6.66826 4.12855 6.58326 4.1598 6.59376 4.12305C6.66201 4.0788 6.79176 4.10305 6.87501 4.0918C6.92301 4.08205 6.98851 4.0518 7.03126 4.0293C7.07101 4.00605 7.08301 3.96055 7.12501 3.99805C7.13701 4.0393 7.11701 4.07005 7.09376 4.0918C7.01651 4.16005 6.93501 4.2318 6.87501 4.31055C6.91176 4.34655 6.9678 4.33625 7.0293 4.34375C7.0533 4.3535 7.0983 4.33625 7.12305 4.34375C7.15305 4.3535 7.1928 4.334 7.2168 4.34375C7.2588 4.3535 7.26855 4.4375 7.31055 4.4375C7.3788 4.4375 7.34955 4.3563 7.31055 4.31055C7.32255 4.2633 7.36026 4.2193 7.34376 4.18555C7.31301 4.1233 7.19351 4.20405 7.18751 4.12305C7.18376 4.0728 7.23201 4.06755 7.25001 4.0293C7.24176 3.9333 7.32105 3.9288 7.31055 3.8418C7.3053 3.8058 7.27476 3.815 7.25001 3.78125C7.23726 3.76325 7.2318 3.70175 7.2168 3.6875C7.16505 3.64325 7.06851 3.67775 7.06251 3.59375C7.05951 3.5435 7.06926 3.49075 7.06251 3.4375C7.05576 3.3865 7.01301 3.22925 6.96876 3.21875C6.91251 3.20675 6.87926 3.31225 6.81251 3.34375C6.77651 3.361 6.69301 3.381 6.65626 3.375C6.63226 3.36525 6.59676 3.359 6.59376 3.3125C6.59001 3.26975 6.64051 3.251 6.65626 3.21875C6.65977 3.21102 6.65505 3.20007 6.65626 3.18945C6.79608 3.15143 6.93749 3.11949 7.08008 3.09375C7.0846 3.09347 7.08938 3.09484 7.09376 3.09375C7.18366 3.07708 7.27548 3.06379 7.36719 3.05078C7.43474 3.04158 7.50246 3.03377 7.57032 3.02734C7.64671 3.01988 7.72409 3.01613 7.80079 3.01172C7.86715 3.00844 7.93357 3.00649 8.00001 3.00586ZM5.97071 3.4668V3.46875C5.93921 3.651 5.76651 3.724 5.56251 3.71875C5.51676 3.763 5.55676 3.8455 5.53126 3.90625C5.51026 3.95725 5.42601 4.00375 5.37501 4C5.33826 4 5.28126 3.9415 5.28126 3.90625C5.28126 3.8635 5.35121 3.862 5.31446 3.8125C5.31596 3.80275 5.33521 3.79175 5.34571 3.78125C5.36596 3.7685 5.38796 3.7608 5.40821 3.74805C5.58971 3.6363 5.77496 3.55455 5.97071 3.4668ZM10.1563 3.6543V3.65625C10.1375 3.666 10.1415 3.677 10.125 3.6875C10.0868 3.71075 10.0605 3.7395 10.0313 3.75C9.99001 3.765 9.94351 3.77575 9.93751 3.8125C9.93226 3.84325 9.96951 3.8465 9.96876 3.875C9.95376 3.91175 9.94576 3.92375 9.93751 3.96875C9.98851 4.052 10.0933 3.94905 10.1563 3.93555C10.184 3.9258 10.2038 3.9283 10.2188 3.9043C10.236 3.8773 10.2365 3.8488 10.25 3.81055C10.2643 3.76855 10.3178 3.75355 10.3125 3.7168C10.3088 3.68005 10.2178 3.64905 10.1563 3.6543ZM4.68751 4.28125C4.73476 4.3195 4.80126 4.40225 4.71876 4.4375C4.70901 4.44725 4.58846 4.4725 4.56446 4.46875C4.55471 4.46875 4.54026 4.445 4.53126 4.4375C4.58301 4.38725 4.63426 4.32925 4.68751 4.28125ZM4.87501 4.46875C4.89901 4.46875 4.90976 4.52975 4.93751 4.53125C4.96451 4.53125 4.98426 4.4943 5.00001 4.49805C5.04201 4.5093 5.07101 4.5935 5.03126 4.625C4.99826 4.63475 4.99276 4.58805 4.96876 4.5918C4.90051 4.6038 4.86351 4.75255 4.81251 4.74805C4.76451 4.7383 4.73251 4.6263 4.78126 4.5918C4.78201 4.5618 4.77901 4.562 4.78126 4.53125C4.79626 4.51325 4.83526 4.46575 4.87501 4.46875ZM4.62501 4.5C4.63926 4.5 4.65296 4.49025 4.65821 4.5C4.65146 4.55325 4.63621 4.569 4.59571 4.59375C4.52446 4.6365 4.46196 4.68975 4.43946 4.78125C4.43271 4.80825 4.34896 4.88175 4.31446 4.875C4.23571 4.85775 4.35896 4.71075 4.37696 4.6875C4.39721 4.66275 4.41501 4.6535 4.43751 4.625C4.46076 4.59725 4.47826 4.547 4.50001 4.53125C4.52401 4.514 4.58301 4.4985 4.62501 4.5ZM11.4043 4.65625H11.4063C11.485 4.6465 11.5265 4.73325 11.5625 4.78125C11.5925 4.82025 11.6681 4.8785 11.7168 4.90625C11.7446 4.92125 11.7798 4.95525 11.8106 4.96875C11.8758 4.998 11.9951 5.0925 11.9981 5.15625C11.9996 5.1885 11.9623 5.22 11.9668 5.25H11.9688C12.0169 5.25765 12.0598 5.17397 12.0606 5.125C12.1528 5.25475 12.2311 5.3925 12.3106 5.53125C12.3481 5.5965 12.4011 5.65125 12.4356 5.71875C12.3913 5.7315 12.3798 5.7385 12.3731 5.78125C12.3633 5.8375 12.3965 5.92775 12.3125 5.9375C12.2593 5.94725 12.1978 5.8915 12.125 5.875C12.095 5.86525 12.0553 5.88475 12.0313 5.875C11.9765 5.857 11.9848 5.78375 11.9375 5.75C11.9105 5.73125 11.824 5.692 11.7813 5.6875C11.7543 5.6875 11.7465 5.69725 11.7188 5.6875C11.685 5.67775 11.6223 5.70175 11.5938 5.6875C11.5668 5.67025 11.5068 5.617 11.5 5.59375C11.4888 5.557 11.5915 5.5315 11.5938 5.5C11.596 5.476 11.5678 5.443 11.5625 5.40625C11.5588 5.3845 11.5678 5.35875 11.5625 5.34375C11.5558 5.3175 11.51 5.314 11.4688 5.3125H11.375C11.3308 5.3125 11.2423 5.305 11.1875 5.3125H11.0938C11.0068 5.32225 10.9413 5.30275 10.8731 5.3125C10.8243 5.3125 10.7313 5.354 10.6856 5.375C10.6623 5.38625 10.655 5.39125 10.625 5.40625C10.6108 5.416 10.5805 5.42925 10.5625 5.4375C10.5348 5.45025 10.4958 5.4925 10.4688 5.5C10.4298 5.50975 10.383 5.49025 10.3125 5.5C10.2615 5.5 10.189 5.467 10.1875 5.40625C10.186 5.31325 10.3498 5.36025 10.4375 5.34375C10.4705 5.334 10.4915 5.30525 10.5313 5.28125C10.55 5.27 10.5445 5.262 10.5625 5.25C10.5925 5.229 10.651 5.18025 10.6563 5.15625C10.6601 5.1345 10.6533 5.11025 10.6563 5.09375C10.66 5.07275 10.6918 5.059 10.7188 5.03125C10.7608 4.98925 10.7913 4.934 10.8438 4.90625C10.879 4.88825 10.9218 4.87225 10.9375 4.84375C10.9413 4.8115 10.936 4.81125 10.9375 4.78125C10.9593 4.761 10.982 4.7545 11 4.75C11.054 4.738 11.0913 4.75 11.1543 4.75C11.1813 4.75 11.2188 4.76275 11.2481 4.75C11.2721 4.73425 11.2866 4.6995 11.3106 4.6875C11.3368 4.67325 11.3721 4.6585 11.4043 4.65625ZM11.9668 5.25H11.8438C11.7995 5.25 11.7431 5.22675 11.7168 5.25C11.7536 5.31 11.8211 5.32875 11.9043 5.34375C11.9343 5.322 11.9533 5.28825 11.9668 5.25ZM5.12305 4.6875H5.2168C5.24155 4.6875 5.26955 4.67775 5.2793 4.6875C5.26355 4.7535 5.11305 4.74275 5.06055 4.71875C5.06355 4.694 5.09155 4.692 5.12305 4.6875ZM4.9043 4.8125C4.8608 4.844 4.81705 4.8845 4.74805 4.90625C4.7098 4.91825 4.66105 4.917 4.6543 4.875C4.64605 4.82325 4.7143 4.849 4.74805 4.84375C4.7923 4.834 4.8533 4.81475 4.9043 4.8125ZM11.4043 4.8125C11.3713 4.82375 11.3556 4.8965 11.4043 4.90625C11.4276 4.892 11.4416 4.85525 11.4356 4.8125C11.4228 4.79825 11.4148 4.80275 11.4043 4.8125ZM11.3418 4.9668V4.96875C11.3433 5.025 11.3531 5.077 11.3418 5.125C11.3741 5.18725 11.4503 5.13575 11.4668 5.09375C11.4856 4.9895 11.4523 4.95405 11.4043 4.9668C11.3886 4.97655 11.3583 4.95405 11.3418 4.9668ZM3.06251 7.31055C3.11876 7.36155 3.15126 7.4338 3.21876 7.4668C3.24351 7.47955 3.28026 7.4898 3.31251 7.49805C3.33876 7.5078 3.35026 7.4898 3.37501 7.49805C3.42826 7.51605 3.48926 7.5418 3.53126 7.56055C3.59501 7.5883 3.66401 7.6853 3.71876 7.7168C3.72176 7.74905 3.70901 7.78655 3.71876 7.81055C3.74501 7.8458 3.77051 7.8803 3.81251 7.9043C3.86351 7.93205 3.88951 7.97555 3.93751 7.99805C3.95476 8.0078 3.97451 7.9883 4.00001 7.99805C4.06601 8.0183 4.09926 8.1083 4.15626 8.0918C4.19301 8.08055 4.18151 8.03405 4.18751 7.99805C4.21226 7.97105 4.24226 7.93555 4.28126 7.93555C4.34351 7.93555 4.35176 8.0318 4.37501 8.0918C4.38776 8.12555 4.42851 8.14955 4.43751 8.18555C4.45251 8.2478 4.45026 8.43005 4.43751 8.4668C4.42176 8.51255 4.3488 8.5103 4.31055 8.56055C4.29255 8.58455 4.29355 8.63705 4.2793 8.6543C4.2553 8.68355 4.2348 8.68905 4.2168 8.7168C4.20705 8.7318 4.19455 8.7583 4.18555 8.7793C4.15555 8.84305 4.09755 8.88955 4.12305 8.9668C4.1328 8.99755 4.18555 9.0238 4.18555 9.06055C4.18555 9.1048 4.09855 9.1368 4.0918 9.18555C4.08655 9.2208 4.1118 9.2633 4.12305 9.31055C4.1313 9.3458 4.1958 9.38105 4.2168 9.4043C4.25205 9.4433 4.2783 9.51105 4.31055 9.56055C4.37355 9.6573 4.4053 9.7778 4.4668 9.87305C4.4998 9.9218 4.5693 9.9463 4.5918 9.99805C4.60305 10.0243 4.58205 10.0678 4.5918 10.0918C4.6278 10.1728 4.79205 10.27 4.87305 10.3105C4.9113 10.3293 4.96476 10.3235 5.00001 10.3438C5.05326 10.3737 5.16051 10.4515 5.18751 10.498C5.21151 10.54 5.20676 10.652 5.21876 10.7188C5.23376 10.8065 5.21501 10.8723 5.21876 10.9668C5.22176 11.0185 5.25001 11.042 5.25001 11.0938C5.25001 11.1117 5.25076 11.1687 5.25001 11.1875C5.24926 11.2497 5.25526 11.312 5.25001 11.375C5.24701 11.4088 5.24776 11.4395 5.25001 11.4688C5.25301 11.4995 5.27901 11.5015 5.28126 11.5293C5.28351 11.5585 5.24701 11.5998 5.25001 11.623C5.25676 11.686 5.30051 11.7215 5.31251 11.7793C5.32226 11.825 5.34976 11.9425 5.34376 11.998C5.34001 12.0273 5.31701 12.0588 5.31251 12.0918C5.30951 12.118 5.31626 12.1303 5.31251 12.1543C5.30979 12.1754 5.31561 12.1937 5.31251 12.2109C5.28105 12.1924 5.2498 12.1735 5.21876 12.1543C4.95251 11.9743 4.69526 11.755 4.46876 11.5293C4.43801 11.4985 4.40501 11.467 4.37501 11.4355C4.19426 11.245 4.02426 11.0292 3.87501 10.8125C3.86151 10.793 3.8553 10.7695 3.8418 10.75C3.66855 10.4905 3.52851 10.2278 3.40626 9.9375C3.39726 9.9165 3.38205 9.896 3.37305 9.875C3.2673 9.61625 3.18576 9.34075 3.12501 9.0625C3.11376 9.01 3.10155 8.95875 3.0918 8.90625C3.06705 8.77275 3.04476 8.63725 3.03126 8.5C3.01583 8.34973 3.00454 8.20483 3.00196 8.05273C3.00123 8.03711 3.00058 8.02149 3.00001 8.00586C3.00001 8.00456 3.00001 8.00326 3.00001 8.00195C3.00119 7.98241 3.0025 7.96288 3.00391 7.94336C3.00838 7.72757 3.03165 7.52238 3.06055 7.3125L3.06251 7.31055ZM4.99805 7.84375C5.04605 7.822 5.03705 7.8995 4.99805 7.90625C4.9613 7.916 4.96205 7.86175 4.99805 7.84375Z" fill="url(#paint0_linear_10_9035)"/>
<defs>
<linearGradient id="paint0_linear_10_9035" x1="2" y1="8.00293" x2="14" y2="8.00293" gradientUnits="userSpaceOnUse">
<stop stop-color="#FDFC47"/>
<stop offset="1" stop-color="#24FE41"/>
</linearGradient>
</defs>
</svg>
