<svg width="16" height="16" viewBox="0 0 16 16" fill="none" xmlns="http://www.w3.org/2000/svg">
<path d="M2 2.00003C0.892 2.00003 0 2.89203 0 4.00003V13C0 14.108 0.892 15 2 15H9V13C9.00005 12.7348 9.10543 12.4805 9.29297 12.293L11.793 9.793L9.99997 8L6.52147 12L3.99997 10L0.99997 13V4C0.99997 3.446 1.44597 3 1.99997 3H14C14.554 3 15 3.446 15 4V8.5859L16 9.5859V4C16 2.892 15.108 2 14 2L2 2.00003ZM4.5 5.00003C3.67157 5.00003 3 5.6716 3 6.50003C3 7.32846 3.67157 8.00003 4.5 8.00003C5.32843 8.00003 6 7.32846 6 6.50003C6 5.6716 5.32843 5.00003 4.5 5.00003Z" fill="url(#paint0_linear_10_9043)"/>
<path d="M14 9L10 13V15H12L16 11L14 9ZM13.6875 10.6875L14.2812 11.2812L11.3125 14.2812L10.7187 13.6875L13.6875 10.6875Z" fill="url(#paint1_linear_10_9043)"/>
<defs>
<linearGradient id="paint0_linear_10_9043" x1="0" y1="8.50002" x2="16" y2="8.50002" gradientUnits="userSpaceOnUse">
<stop stop-color="#FDFC47"/>
<stop offset="1" stop-color="#24FE41"/>
</linearGradient>
<linearGradient id="paint1_linear_10_9043" x1="10" y1="12" x2="16" y2="12" gradientUnits="userSpaceOnUse">
<stop stop-color="#FDFC47"/>
<stop offset="1" stop-color="#24FE41"/>
</linearGradient>
</defs>
</svg>
