<svg width="16" height="16" viewBox="0 0 16 16" fill="none" xmlns="http://www.w3.org/2000/svg">
<g clip-path="url(#clip0_10_9062)">
<path fill-rule="evenodd" clip-rule="evenodd" d="M3.5 5C2.57174 5 1.6815 5.36875 1.02513 6.02513C0.368749 6.6815 0 7.57174 0 8.5C0 9.42826 0.368749 10.3185 1.02513 10.9749C1.6815 11.6313 2.57174 12 3.5 12C4.42826 12 5.3185 11.6313 5.97487 10.9749C6.63125 10.3185 7 9.42826 7 8.5C7 7.57174 6.63125 6.6815 5.97487 6.02513C5.3185 5.36875 4.42826 5 3.5 5ZM3.5 6C3.8283 6 4.15339 6.06466 4.45671 6.1903C4.76002 6.31594 5.03562 6.50009 5.26777 6.73223C5.49991 6.96438 5.68406 7.23998 5.8097 7.54329C5.93534 7.84661 6 8.1717 6 8.5C6 8.8283 5.93534 9.15339 5.8097 9.45671C5.68406 9.76002 5.49991 10.0356 5.26777 10.2678C5.03562 10.4999 4.76002 10.6841 4.45671 10.8097C4.15339 10.9353 3.8283 11 3.5 11C2.83696 11 2.20107 10.7366 1.73223 10.2678C1.26339 9.79893 1 9.16304 1 8.5C1 7.83696 1.26339 7.20107 1.73223 6.73223C2.20107 6.26339 2.83696 6 3.5 6Z" fill="url(#paint0_linear_10_9062)"/>
<path fill-rule="evenodd" clip-rule="evenodd" d="M12.5 5C11.5717 5 10.6815 5.36875 10.0251 6.02513C9.36875 6.6815 9 7.57174 9 8.5C9 9.42826 9.36875 10.3185 10.0251 10.9749C10.6815 11.6313 11.5717 12 12.5 12C13.4283 12 14.3185 11.6313 14.9749 10.9749C15.6313 10.3185 16 9.42826 16 8.5C16 7.57174 15.6313 6.6815 14.9749 6.02513C14.3185 5.36875 13.4283 5 12.5 5ZM12.5 6C13.163 6 13.7989 6.26339 14.2678 6.73223C14.7366 7.20107 15 7.83696 15 8.5C15 9.16304 14.7366 9.79893 14.2678 10.2678C13.7989 10.7366 13.163 11 12.5 11C11.837 11 11.2011 10.7366 10.7322 10.2678C10.2634 9.79893 10 9.16304 10 8.5C10 7.83696 10.2634 7.20107 10.7322 6.73223C11.2011 6.26339 11.837 6 12.5 6Z" fill="url(#paint1_linear_10_9062)"/>
<path fill-rule="evenodd" clip-rule="evenodd" d="M3.5 11H12.5V12H3.5V11Z" fill="url(#paint2_linear_10_9062)"/>
</g>
<defs>
<linearGradient id="paint0_linear_10_9062" x1="0" y1="8.5" x2="7" y2="8.5" gradientUnits="userSpaceOnUse">
<stop stop-color="#FDFC47"/>
<stop offset="1" stop-color="#24FE41"/>
</linearGradient>
<linearGradient id="paint1_linear_10_9062" x1="9" y1="8.5" x2="16" y2="8.5" gradientUnits="userSpaceOnUse">
<stop stop-color="#FDFC47"/>
<stop offset="1" stop-color="#24FE41"/>
</linearGradient>
<linearGradient id="paint2_linear_10_9062" x1="3.5" y1="11.5" x2="12.5" y2="11.5" gradientUnits="userSpaceOnUse">
<stop stop-color="#FDFC47"/>
<stop offset="1" stop-color="#24FE41"/>
</linearGradient>
<clipPath id="clip0_10_9062">
<rect width="16" height="16" fill="white"/>
</clipPath>
</defs>
</svg>
