<svg width="16" height="16" viewBox="0 0 16 16" fill="none" xmlns="http://www.w3.org/2000/svg">
<path d="M2 1C0.892 1 0 1.892 0 3V13C0 14.108 0.892 15 2 15H6.1055C6.04283 14.7578 6.00003 14.5084 6.00003 14.2461V14H2.00003C1.44603 14 1.00003 13.554 1.00003 13V5C1.00003 4.446 1.44603 4 2.00003 4H13C13.554 4 14 4.446 14 5V7H15V3C15 1.892 14.108 1 13 1H2Z" fill="url(#paint0_linear_10_9078)"/>
<path d="M9 8C7.892 8 7 8.892 7 10V14C7 15.108 7.892 16 9 16H14C15.108 16 16 15.108 16 14V10C16 8.892 15.108 8 14 8H9ZM9 10H14C14.554 10 15 10.446 15 11V14C15 14.554 14.554 15 14 15H9C8.446 15 8 14.554 8 14V11C8 10.446 8.446 10 9 10Z" fill="url(#paint1_linear_10_9078)"/>
<defs>
<linearGradient id="paint0_linear_10_9078" x1="0" y1="8" x2="15" y2="8" gradientUnits="userSpaceOnUse">
<stop stop-color="#FDFC47"/>
<stop offset="1" stop-color="#24FE41"/>
</linearGradient>
<linearGradient id="paint1_linear_10_9078" x1="7" y1="12" x2="16" y2="12" gradientUnits="userSpaceOnUse">
<stop stop-color="#FDFC47"/>
<stop offset="1" stop-color="#24FE41"/>
</linearGradient>
</defs>
</svg>
