<svg width="16" height="16" viewBox="0 0 16 16" fill="none" xmlns="http://www.w3.org/2000/svg">
<path d="M6.5 3C4.01475 3 2 5.01472 2 7.5V8V9H3V8V7.5C3 5.567 4.567 4 6.5 4C8.433 4 10 5.567 10 7.5V8V8.8125V10V11.0938L7.71875 8.78125L7 9.5L10.2812 12.7812L10.5 13L10.7188 12.7812L14 9.5L13.2812 8.78125L11 11.0938V10V8.8125V8V7.5C11 5.01472 8.98525 3 6.5 3Z" fill="url(#paint0_linear_10_9087)"/>
<defs>
<linearGradient id="paint0_linear_10_9087" x1="2" y1="8" x2="14" y2="8" gradientUnits="userSpaceOnUse">
<stop stop-color="#FDFC47"/>
<stop offset="1" stop-color="#24FE41"/>
</linearGradient>
</defs>
</svg>
