<svg width="16" height="16" viewBox="0 0 16 16" fill="none" xmlns="http://www.w3.org/2000/svg">
<path d="M4 2C3.46957 2 2.96086 2.21071 2.58579 2.58579C2.21071 2.96086 2 3.46957 2 4C2 4.53043 2.21071 5.03914 2.58579 5.41421C2.96086 5.78929 3.46957 6 4 6V7H3H2V12V13H4V14H14V11H4V12H3V8H4V10H14V4H6C6 3.46957 5.78929 2.96086 5.41421 2.58579C5.03914 2.21071 4.53043 2 4 2ZM4 3C4.13132 3 4.26136 3.02587 4.38268 3.07612C4.50401 3.12638 4.61425 3.20003 4.70711 3.29289C4.79997 3.38575 4.87362 3.49599 4.92388 3.61732C4.97413 3.73864 5 3.86868 5 4C5 4.13132 4.97413 4.26136 4.92388 4.38268C4.87362 4.50401 4.79997 4.61425 4.70711 4.70711C4.61425 4.79997 4.50401 4.87362 4.38268 4.92388C4.26136 4.97413 4.13132 5 4 5C3.86868 5 3.73864 4.97413 3.61732 4.92388C3.49599 4.87362 3.38575 4.79997 3.29289 4.70711C3.20003 4.61425 3.12638 4.50401 3.07612 4.38268C3.02587 4.26136 3 4.13132 3 4C3 3.86868 3.02587 3.73864 3.07612 3.61732C3.12638 3.49599 3.20003 3.38575 3.29289 3.29289C3.38575 3.20003 3.49599 3.12638 3.61732 3.07612C3.73864 3.02587 3.86868 3 4 3ZM5 5H13V9H5V5Z" fill="url(#paint0_linear_10_9097)"/>
<defs>
<linearGradient id="paint0_linear_10_9097" x1="2" y1="8" x2="14" y2="8" gradientUnits="userSpaceOnUse">
<stop stop-color="#FDFC47"/>
<stop offset="1" stop-color="#24FE41"/>
</linearGradient>
</defs>
</svg>
