<svg width="16" height="16" viewBox="0 0 16 16" fill="none" xmlns="http://www.w3.org/2000/svg">
<path d="M6 2C4.89548 2 4 2.89548 4 4V6V7C4 7.27615 3.77614 7.5 3.5 7.5H3V8.5H3.5C3.77614 8.5 4 8.72385 4 9V10V11V12C4 13.1046 4.89543 14 6 14H7V13H6C5.44772 13 5 12.5523 5 12V11V10V9C5 8.6175 4.86072 8.26497 4.625 8C4.86072 7.73503 5 7.3825 5 7V6V5.71875V4C5 3.4477 5.44778 3 6 3H7V2H6ZM9 2V3H10C10.5522 3 11 3.4477 11 4V5.71875V6V7C11 7.3825 11.1393 7.73503 11.375 8C11.1393 8.26497 11 8.6175 11 9V10V11V12C11 12.5523 10.5523 13 10 13H9V14H10C11.1046 14 12 13.1046 12 12V11V10V9C12 8.72385 12.2239 8.5 12.5 8.5H13V7.5H12.5C12.2239 7.5 12 7.27615 12 7V6V4C12 2.89548 11.1045 2 10 2H9Z" fill="url(#paint0_linear_10_9093)"/>
<defs>
<linearGradient id="paint0_linear_10_9093" x1="3" y1="8" x2="13" y2="8" gradientUnits="userSpaceOnUse">
<stop stop-color="#FDFC47"/>
<stop offset="1" stop-color="#24FE41"/>
</linearGradient>
</defs>
</svg>
