<svg width="16" height="16" viewBox="0 0 16 16" fill="none" xmlns="http://www.w3.org/2000/svg">
<path d="M5.99997 2C5.43754 3.96274 4.29718 5.67472 3.18095 7.3578C2.53868 8.36496 1.8087 9.51131 2.04612 10.7632C2.30516 12.5247 3.9379 13.8946 5.69228 13.9889C7.49021 14.1559 9.34735 12.9845 9.84827 11.2267C10.1123 10.4059 10.0144 9.54278 9.63184 8.77555C8.86417 7.22857 7.74136 5.88993 6.96264 4.34759C6.57208 3.59672 6.24333 2.81082 5.99997 2ZM8.76755 8.22461C9.16347 8.89048 9.50933 9.63772 9.41772 10.4334C9.31628 12.0154 7.90777 13.3201 6.35059 13.4382C5.51784 13.5238 4.65893 13.2972 3.97653 12.8125C5.8014 13.2584 7.87627 12.2562 8.57942 10.4972C8.88209 9.78186 8.92358 8.98055 8.76755 8.22461Z" fill="url(#paint0_linear_10_9130)"/>
<path d="M10 1C9.834 1.569 9.61114 2.12492 9.36914 2.66992C8.86297 3.77922 8.25019 4.72103 7.67773 5.5918C7.77523 5.74926 7.86552 5.8837 7.96289 6.03516C7.97617 6.01449 7.99073 5.99126 8.00391 5.9707C8.66191 4.9747 9.42 3.83084 10 2.46484C10.58 3.83084 11.3381 4.9747 11.9961 5.9707C12.4421 6.6647 12.9462 7.42453 13.2832 8.26953C13.3732 8.56453 13.4267 8.87064 13.4277 9.18164C13.4277 10.9886 11.894 12.4551 10 12.4551C9.74733 12.4551 9.50269 12.4245 9.26563 12.375C9.14708 12.5355 9.01743 12.6872 8.875 12.8281C9.23402 12.9291 9.60674 13 10 13C12.209 13 14 11.2896 14 9.18164C14 9.12364 13.9884 9.06486 13.9844 9.00586L14 9C13.996 8.975 13.9835 8.94688 13.9785 8.92188C13.7925 7.21788 11.8639 5.36992 10.6309 2.66992C10.3889 2.12492 10.166 1.569 10 1Z" fill="url(#paint1_linear_10_9130)"/>
<defs>
<linearGradient id="paint0_linear_10_9130" x1="2.00024" y1="8.00236" x2="9.9967" y2="8.00236" gradientUnits="userSpaceOnUse">
<stop stop-color="#FDFC47"/>
<stop offset="1" stop-color="#24FE41"/>
</linearGradient>
<linearGradient id="paint1_linear_10_9130" x1="7.67773" y1="7" x2="14" y2="7" gradientUnits="userSpaceOnUse">
<stop stop-color="#FDFC47"/>
<stop offset="1" stop-color="#24FE41"/>
</linearGradient>
</defs>
</svg>
