<svg width="16" height="16" viewBox="0 0 16 16" fill="none" xmlns="http://www.w3.org/2000/svg">
<path d="M8 2C6.9282 5.8182 4 8.07294 4 10.1816C4 12.2903 5.79086 14 8 14C10.2091 14 12 12.2903 12 10.1816C12 8.07294 9.0718 5.8182 8 2ZM10.75 8.23242C11.1892 8.79592 11.4268 9.47932 11.4277 10.1816C11.4279 11.0496 11.0669 11.8821 10.4241 12.496C9.78127 13.1099 8.9093 13.4549 8 13.4551C7.26597 13.4533 6.55192 13.2267 5.96289 12.8086C6.25619 12.8738 6.55627 12.9072 6.85742 12.9082C7.91797 12.9082 8.9351 12.5062 9.68519 11.7905C10.4353 11.0748 10.8569 10.1041 10.8574 9.0918C10.8559 8.80238 10.8198 8.51407 10.75 8.23242Z" fill="url(#paint0_linear_10_9196)"/>
<defs>
<linearGradient id="paint0_linear_10_9196" x1="4" y1="8" x2="12" y2="8" gradientUnits="userSpaceOnUse">
<stop stop-color="#FDFC47"/>
<stop offset="1" stop-color="#24FE41"/>
</linearGradient>
</defs>
</svg>
