<svg width="16" height="16" viewBox="0 0 16 16" fill="none" xmlns="http://www.w3.org/2000/svg">
<path d="M7 2V7.04102C6.16859 7.16198 5.40842 7.57797 4.85835 8.21303C4.30828 8.84809 4.005 9.65983 4.00391 10.5C4.00391 11.4283 4.37265 12.3185 5.02903 12.9749C5.68541 13.6313 6.57565 14 7.50391 14C8.43216 14 9.3224 13.6313 9.97878 12.9749C10.6352 12.3185 11.0039 11.4283 11.0039 10.5C11.003 9.65833 10.6988 8.84517 10.1471 8.20954C9.59545 7.5739 8.83317 7.15836 8 7.03906V2H7ZM7.50391 8C8.16695 8 8.80283 8.26339 9.27167 8.73223C9.74051 9.20107 10.0039 9.83696 10.0039 10.5C10.0039 11.163 9.74051 11.7989 9.27167 12.2678C8.80283 12.7366 8.16695 13 7.50391 13C6.84087 13 6.20498 12.7366 5.73614 12.2678C5.2673 11.7989 5.00391 11.163 5.00391 10.5C5.00391 9.83696 5.2673 9.20107 5.73614 8.73223C6.20498 8.26339 6.84087 8 7.50391 8Z" fill="url(#paint0_linear_10_9216)"/>
<path d="M10 10.5C10 11.163 9.73661 11.7989 9.26777 12.2678C8.79893 12.7366 8.16304 13 7.5 13C6.83696 13 6.20107 12.7366 5.73223 12.2678C5.26339 11.7989 5 11.163 5 10.5C5 9.83696 5.26339 9.20107 5.73223 8.73223C6.20107 8.26339 6.83696 8 7.5 8C8.16304 8 8.79893 8.26339 9.26777 8.73223C9.73661 9.20107 10 9.83696 10 10.5Z" fill="url(#paint1_linear_10_9216)" fill-opacity="0.5"/>
<defs>
<linearGradient id="paint0_linear_10_9216" x1="4.00391" y1="8" x2="11.0039" y2="8" gradientUnits="userSpaceOnUse">
<stop stop-color="#FDFC47"/>
<stop offset="1" stop-color="#24FE41"/>
</linearGradient>
<linearGradient id="paint1_linear_10_9216" x1="5" y1="10.5" x2="10" y2="10.5" gradientUnits="userSpaceOnUse">
<stop stop-color="#FDFC47"/>
<stop offset="1" stop-color="#24FE41"/>
</linearGradient>
</defs>
</svg>
