<svg width="16" height="16" viewBox="0 0 16 16" fill="none" xmlns="http://www.w3.org/2000/svg">
<path d="M7 3V4.03125C5.98703 4.14566 5.04292 4.60061 4.32226 5.32162C3.6016 6.04264 3.14711 6.98697 3.0332 8H2V9H3.03125C3.14566 10.013 3.60061 10.9571 4.32162 11.6777C5.04264 12.3984 5.98697 12.8529 7 12.9668V14H8V12.9688C9.01297 12.8543 9.95708 12.3994 10.6777 11.6784C11.3984 10.9574 11.8529 10.013 11.9668 9H13V8H11.9688C11.8543 6.98703 11.3994 6.04292 10.6784 5.32226C9.95737 4.6016 9.01303 4.14711 8 4.0332V3H7ZM7 5.03906V8H4.04102C4.14931 7.2535 4.49587 6.56197 5.02907 6.02842C5.56227 5.49486 6.25358 5.14785 7 5.03906ZM8 5.04102C8.7465 5.14931 9.43803 5.49587 9.97158 6.02907C10.5051 6.56227 10.8522 7.25358 10.9609 8H8V5.04102ZM4.03906 9H7V11.959C6.2535 11.8507 5.56197 11.5041 5.02842 10.9709C4.49486 10.4377 4.14785 9.74642 4.03906 9ZM8 9H10.959C10.8507 9.7465 10.5041 10.438 9.97093 10.9716C9.43773 11.5051 8.74642 11.8522 8 11.9609V9Z" fill="url(#paint0_linear_10_9221)"/>
<defs>
<linearGradient id="paint0_linear_10_9221" x1="2" y1="8.5" x2="13" y2="8.5" gradientUnits="userSpaceOnUse">
<stop stop-color="#FDFC47"/>
<stop offset="1" stop-color="#24FE41"/>
</linearGradient>
</defs>
</svg>
