<svg width="16" height="16" viewBox="0 0 16 16" fill="none" xmlns="http://www.w3.org/2000/svg">
<path d="M2 2V14H14V2H11V5H13V13H3V5H5V2H3H2ZM6.42969 6C5.36369 6 4.91602 6.35191 4.91602 7.25391C4.91602 7.25391 4.89177 7.841 4.88477 8C4.83877 8.369 4.70964 8.67773 4.30664 8.67773H4.00195V9.32227H4.30664C4.89564 9.32227 4.91602 9.96644 4.91602 10.5234C4.91102 10.6974 4.92959 10.893 4.93359 11.002C5.01659 11.714 5.47169 12.002 6.42969 12.002V11.4082C5.97969 11.4082 5.82377 11.292 5.75977 11.002C5.72577 10.886 5.72298 10.4879 5.70898 10.2969C5.70898 9.88188 5.58533 9.26186 4.98633 9.00586C5.45933 8.80286 5.63059 8.37786 5.68359 8.00586C5.70759 7.90186 5.70103 7.78217 5.70703 7.70117C5.70703 6.83517 5.71869 6.59766 6.42969 6.59766V6ZM7.5 6V7H8.5V6H7.5ZM9.58008 6V6.59766C10.2911 6.59766 10.3027 6.83517 10.3027 7.70117C10.3087 7.78217 10.3022 7.90186 10.3262 8.00586C10.3792 8.37786 10.5504 8.80286 11.0234 9.00586C10.4244 9.26186 10.3008 9.88188 10.3008 10.2969C10.2868 10.4879 10.284 10.886 10.25 11.002C10.186 11.292 10.0301 11.4082 9.58008 11.4082V12.002C10.5381 12.002 10.9932 11.714 11.0762 11.002C11.0802 10.893 11.0987 10.6974 11.0938 10.5234C11.0938 9.96644 11.1141 9.32227 11.7031 9.32227H12.0078V8.67773H11.7031C11.3001 8.67773 11.171 8.369 11.125 8C11.118 7.841 11.0938 7.25391 11.0938 7.25391C11.0938 6.35191 10.6461 6 9.58008 6ZM7.5 8V12H8.5V8H7.5Z" fill="url(#paint0_linear_10_9242)"/>
<path d="M10 2L8 5L6 2H10Z" fill="url(#paint1_linear_10_9242)"/>
<defs>
<linearGradient id="paint0_linear_10_9242" x1="2" y1="8" x2="14" y2="8" gradientUnits="userSpaceOnUse">
<stop stop-color="#FDFC47"/>
<stop offset="1" stop-color="#24FE41"/>
</linearGradient>
<linearGradient id="paint1_linear_10_9242" x1="6" y1="3.5" x2="10" y2="3.5" gradientUnits="userSpaceOnUse">
<stop stop-color="#FDFC47"/>
<stop offset="1" stop-color="#24FE41"/>
</linearGradient>
</defs>
</svg>
