<svg width="16" height="16" viewBox="0 0 16 16" fill="none" xmlns="http://www.w3.org/2000/svg">
<path d="M2 2V14H14V5H13V13H3V5H10V2H3H2ZM7 6C5.934 6 5.48633 6.35191 5.48633 7.25391C5.48633 7.25391 5.46208 7.841 5.45508 8C5.40908 8.369 5.27995 8.67773 4.87695 8.67773H4.57227V9.32227H4.87695C5.46595 9.32227 5.48633 9.96644 5.48633 10.5234C5.48133 10.6974 5.49991 10.893 5.50391 11.002C5.58691 11.714 6.042 12.002 7 12.002V11.4082C6.55 11.4082 6.39408 11.292 6.33008 11.002C6.29608 10.886 6.2933 10.4879 6.2793 10.2969C6.2793 9.88188 6.15564 9.26186 5.55664 9.00586C6.02964 8.80286 6.20091 8.37786 6.25391 8.00586C6.27791 7.90186 6.27134 7.78217 6.27734 7.70117C6.27734 6.83517 6.28705 6.59766 6.99805 6.59766L7 6ZM9 6L9.00195 6.59766C9.71295 6.59766 9.72266 6.83517 9.72266 7.70117C9.72866 7.78217 9.72209 7.90186 9.74609 8.00586C9.79909 8.37786 9.97036 8.80286 10.4434 9.00586C9.84436 9.26186 9.7207 9.88188 9.7207 10.2969C9.7067 10.4879 9.70392 10.886 9.66992 11.002C9.60592 11.292 9.45 11.4082 9 11.4082V12.002C9.958 12.002 10.4131 11.714 10.4961 11.002C10.5001 10.893 10.5187 10.6974 10.5137 10.5234C10.5137 9.96644 10.534 9.32227 11.123 9.32227H11.4277V8.67773H11.123C10.72 8.67773 10.5909 8.369 10.5449 8C10.5379 7.841 10.5137 7.25391 10.5137 7.25391C10.5137 6.35191 10.066 6 9 6Z" fill="url(#paint0_linear_10_9248)"/>
<path d="M11 5L14 3.5L11 2V5Z" fill="url(#paint1_linear_10_9248)"/>
<defs>
<linearGradient id="paint0_linear_10_9248" x1="2" y1="8" x2="14" y2="8" gradientUnits="userSpaceOnUse">
<stop stop-color="#FDFC47"/>
<stop offset="1" stop-color="#24FE41"/>
</linearGradient>
<linearGradient id="paint1_linear_10_9248" x1="11" y1="3.5" x2="14" y2="3.5" gradientUnits="userSpaceOnUse">
<stop stop-color="#FDFC47"/>
<stop offset="1" stop-color="#24FE41"/>
</linearGradient>
</defs>
</svg>
