<svg width="16" height="16" viewBox="0 0 16 16" fill="none" xmlns="http://www.w3.org/2000/svg">
<path d="M8 2C4.686 2 2 4.686 2 8C2 11.314 4.686 14 8 14C9.775 14 11.364 13.225 12.463 12H10.963C10.132 12.618 9.116 13 8 13C5.239 13 3 10.761 3 8C3 5.239 5.239 3 8 3C10.761 3 13 5.239 13 8C13 8.342 12.966 8.677 12.9 9H13.91C13.965 8.674 14 8.342 14 8C14 4.686 11.314 2 8 2ZM7 4V9H12V8H8V4H7Z" fill="url(#paint0_linear_10_9254)"/>
<path d="M10 10V11H12C12.2652 11 12.5196 11.1054 12.7071 11.2929C12.8946 11.4804 13 11.7348 13 12C13 12.2652 12.8946 12.5196 12.7071 12.7071C12.5196 12.8946 12.2652 13 12 13V14C12.5304 14 13.0391 13.7893 13.4142 13.4142C13.7893 13.0391 14 12.5304 14 12C14 11.4696 13.7893 10.9609 13.4142 10.5858C13.0391 10.2107 12.5304 10 12 10H10Z" fill="url(#paint1_linear_10_9254)"/>
<defs>
<linearGradient id="paint0_linear_10_9254" x1="2" y1="8" x2="14" y2="8" gradientUnits="userSpaceOnUse">
<stop stop-color="#FDFC47"/>
<stop offset="1" stop-color="#24FE41"/>
</linearGradient>
<linearGradient id="paint1_linear_10_9254" x1="10" y1="12" x2="14" y2="12" gradientUnits="userSpaceOnUse">
<stop stop-color="#FDFC47"/>
<stop offset="1" stop-color="#24FE41"/>
</linearGradient>
</defs>
</svg>
