<svg width="16" height="16" viewBox="0 0 16 16" fill="none" xmlns="http://www.w3.org/2000/svg">
<path d="M8 2C6.93913 2 5.92172 2.42143 5.17157 3.17157C4.42143 3.92172 4 4.93913 4 6V10C4 11.0609 4.42143 12.0783 5.17157 12.8284C5.92172 13.5786 6.93913 14 8 14H9C10.0609 14 11.0783 13.5786 11.8284 12.8284C12.5786 12.0783 13 11.0609 13 10V6C13 4.93913 12.5786 3.92172 11.8284 3.17157C11.0783 2.42143 10.0609 2 9 2H8ZM8 3H9C9.79565 3 10.5587 3.31607 11.1213 3.87868C11.6839 4.44129 12 5.20435 12 6V10C12 10.7956 11.6839 11.5587 11.1213 12.1213C10.5587 12.6839 9.79565 13 9 13H8C7.20435 13 6.44129 12.6839 5.87868 12.1213C5.31607 11.5587 5 10.7956 5 10V6C5 5.20435 5.31607 4.44129 5.87868 3.87868C6.44129 3.31607 7.20435 3 8 3ZM8 4V7H9V4H8Z" fill="url(#paint0_linear_10_9272)"/>
<defs>
<linearGradient id="paint0_linear_10_9272" x1="4" y1="8" x2="13" y2="8" gradientUnits="userSpaceOnUse">
<stop stop-color="#FDFC47"/>
<stop offset="1" stop-color="#24FE41"/>
</linearGradient>
</defs>
</svg>
