<svg width="16" height="16" viewBox="0 0 16 16" fill="none" xmlns="http://www.w3.org/2000/svg">
<path d="M4 1.00002C2.892 1.00002 2 1.89202 2 3.00002V10L7 15H8H8.76172C8.55481 14.6887 8.38751 14.3527 8.26367 14H8V12.5V10V9.00002H3V3.00002C3 2.44602 3.446 2.00002 4 2.00002H12C12.554 2.00002 13 2.44602 13 3.00002V8.03122C13.3411 8.07029 13.6766 8.14827 14 8.26364V2.99994C14 1.89194 13.108 0.999939 12 0.999939L4 1.00002ZM3.41406 10H6.99996V13.5859L3.41406 10Z" fill="url(#paint0_linear_10_9403)"/>
<path d="M12.5 9C11.5717 9 10.6815 9.36875 10.0251 10.0251C9.36875 10.6815 9 11.5717 9 12.5C9 13.4283 9.36875 14.3185 10.0251 14.9749C10.6815 15.6313 11.5717 16 12.5 16C13.4283 16 14.3185 15.6313 14.9749 14.9749C15.6313 14.3185 16 13.4283 16 12.5C16 11.5717 15.6313 10.6815 14.9749 10.0251C14.3185 9.36875 13.4283 9 12.5 9ZM12 10.5L14 12.5L12 14.5V10.5Z" fill="url(#paint1_linear_10_9403)"/>
<defs>
<linearGradient id="paint0_linear_10_9403" x1="2" y1="7.99998" x2="14" y2="7.99998" gradientUnits="userSpaceOnUse">
<stop stop-color="#FDFC47"/>
<stop offset="1" stop-color="#24FE41"/>
</linearGradient>
<linearGradient id="paint1_linear_10_9403" x1="9" y1="12.5" x2="16" y2="12.5" gradientUnits="userSpaceOnUse">
<stop stop-color="#FDFC47"/>
<stop offset="1" stop-color="#24FE41"/>
</linearGradient>
</defs>
</svg>
