<svg width="16" height="16" viewBox="0 0 16 16" fill="none" xmlns="http://www.w3.org/2000/svg">
<path d="M8 5C6.338 5 5 6.338 5 8C5 9.662 6.338 11 8 11C8.64939 11 9.26 10.7855 9.75 10.4375L12.2812 13L13 12.2812L10.4375 9.75005C10.7855 9.26015 11 8.64945 11 8.00005C11 6.33805 9.662 5 8 5ZM8 6C9.108 6 10 6.892 10 8C10 9.108 9.108 10 8 10C6.892 10 6 9.108 6 8C6 6.892 6.892 6 8 6Z" fill="url(#paint0_linear_10_9373)"/>
<path d="M4 1C2.892 1 2 1.892 2 3V13C2 14.108 2.892 15 4 15H9V14H4C3.446 14 3 13.554 3 13V3C3 2.446 3.446 2 4 2H12C12.554 2 13 2.446 13 3V9H14V3C14 1.892 13.108 1 12 1H4Z" fill="url(#paint1_linear_10_9373)"/>
<defs>
<linearGradient id="paint0_linear_10_9373" x1="5" y1="9" x2="13" y2="9" gradientUnits="userSpaceOnUse">
<stop stop-color="#FDFC47"/>
<stop offset="1" stop-color="#24FE41"/>
</linearGradient>
<linearGradient id="paint1_linear_10_9373" x1="2" y1="8" x2="14" y2="8" gradientUnits="userSpaceOnUse">
<stop stop-color="#FDFC47"/>
<stop offset="1" stop-color="#24FE41"/>
</linearGradient>
</defs>
</svg>
