<svg width="16" height="16" viewBox="0 0 16 16" fill="none" xmlns="http://www.w3.org/2000/svg">
<g clip-path="url(#clip0_10_9385)">
<path d="M2 3C0.892 3 0 3.892 0 5V11C0 12.108 0.892 13 2 13H4V12H2C1.446 12 1 11.554 1 11V5C1 4.446 1.446 4 2 4H14C14.554 4 15 4.446 15 5V11C15 11.554 14.554 12 14 12H12V13H14C15.108 13 16 12.108 16 11V5C16 3.892 15.108 3 14 3H2Z" fill="url(#paint0_linear_10_9385)"/>
<path d="M5.00007 0C3.89207 0 2.96347 0.8926 3.00007 2V4H4.00007V2C4.00007 1.446 4.44607 1 5.00007 1H11.0001C11.5541 1 12.0419 1.44758 12.0001 2V4H13.0001V2C13.0001 0.892 12.1081 0 11.0001 0H5.00007Z" fill="url(#paint1_linear_10_9385)"/>
<path d="M11 10H5V11H11V10Z" fill="url(#paint2_linear_10_9385)"/>
<path d="M11 12H5V13H11V12Z" fill="url(#paint3_linear_10_9385)"/>
<path d="M5 7C3.892 7 3 7.892 3 9V14C3 15.108 3.892 16 5 16H11C12.108 16 13 15.108 13 14V9C13 7.892 12.108 7 11 7H5ZM5 8H11C11.554 8 12 8.446 12 9V14C12 14.554 11.554 15 11 15H5C4.446 15 4 14.554 4 14V9C4 8.446 4.446 8 5 8Z" fill="url(#paint4_linear_10_9385)"/>
<path d="M13.5 6C13.7761 6 14 5.77614 14 5.5C14 5.22386 13.7761 5 13.5 5C13.2239 5 13 5.22386 13 5.5C13 5.77614 13.2239 6 13.5 6Z" fill="url(#paint5_linear_10_9385)"/>
</g>
<defs>
<linearGradient id="paint0_linear_10_9385" x1="0" y1="8" x2="16" y2="8" gradientUnits="userSpaceOnUse">
<stop stop-color="#FDFC47"/>
<stop offset="1" stop-color="#24FE41"/>
</linearGradient>
<linearGradient id="paint1_linear_10_9385" x1="2.99902" y1="2" x2="13.0001" y2="2" gradientUnits="userSpaceOnUse">
<stop stop-color="#FDFC47"/>
<stop offset="1" stop-color="#24FE41"/>
</linearGradient>
<linearGradient id="paint2_linear_10_9385" x1="5" y1="10.5" x2="11" y2="10.5" gradientUnits="userSpaceOnUse">
<stop stop-color="#FDFC47"/>
<stop offset="1" stop-color="#24FE41"/>
</linearGradient>
<linearGradient id="paint3_linear_10_9385" x1="5" y1="12.5" x2="11" y2="12.5" gradientUnits="userSpaceOnUse">
<stop stop-color="#FDFC47"/>
<stop offset="1" stop-color="#24FE41"/>
</linearGradient>
<linearGradient id="paint4_linear_10_9385" x1="3" y1="11.5" x2="13" y2="11.5" gradientUnits="userSpaceOnUse">
<stop stop-color="#FDFC47"/>
<stop offset="1" stop-color="#24FE41"/>
</linearGradient>
<linearGradient id="paint5_linear_10_9385" x1="13" y1="5.5" x2="14" y2="5.5" gradientUnits="userSpaceOnUse">
<stop stop-color="#FDFC47"/>
<stop offset="1" stop-color="#24FE41"/>
</linearGradient>
<clipPath id="clip0_10_9385">
<rect width="16" height="16" fill="white"/>
</clipPath>
</defs>
</svg>
