<svg width="16" height="16" viewBox="0 0 16 16" fill="none" xmlns="http://www.w3.org/2000/svg">
<path d="M12 1.00002C13.108 1.00002 14 1.89202 14 3.00002V10L8.99998 15H7.23828C7.44519 14.6887 7.61249 14.3527 7.73633 14H8V9.00002H13V3.00002C13 2.44602 12.554 2.00002 12 2.00002H4C3.446 2.00002 3 2.44602 3 3.00002V8.03122C2.65889 8.07029 2.32338 8.14827 2 8.26364V2.99994C2 1.89194 2.892 0.999939 4 0.999939L12 1.00002ZM12.5859 10H9.00002V13.5859L12.5859 10Z" fill="url(#paint0_linear_10_9406)"/>
<path d="M3.5 9C4.42826 9 5.3185 9.36875 5.97487 10.0251C6.63125 10.6815 7 11.5717 7 12.5C7 13.4283 6.63125 14.3185 5.97487 14.9749C5.3185 15.6313 4.42826 16 3.5 16C2.57174 16 1.6815 15.6313 1.02513 14.9749C0.368749 14.3185 0 13.4283 0 12.5C0 11.5717 0.368749 10.6815 1.02513 10.0251C1.6815 9.36875 2.57174 9 3.5 9ZM4 10.5L2 12.5L4 14.5V10.5Z" fill="url(#paint1_linear_10_9406)"/>
<defs>
<linearGradient id="paint0_linear_10_9406" x1="2" y1="7.99998" x2="14" y2="7.99998" gradientUnits="userSpaceOnUse">
<stop stop-color="#FDFC47"/>
<stop offset="1" stop-color="#24FE41"/>
</linearGradient>
<linearGradient id="paint1_linear_10_9406" x1="0" y1="12.5" x2="7" y2="12.5" gradientUnits="userSpaceOnUse">
<stop stop-color="#FDFC47"/>
<stop offset="1" stop-color="#24FE41"/>
</linearGradient>
</defs>
</svg>
