<svg width="16" height="16" viewBox="0 0 16 16" fill="none" xmlns="http://www.w3.org/2000/svg">
<path d="M3 1C1.892 1 1 1.892 1 3V13C1 14.108 1.892 15 3 15H13C14.108 15 15 14.108 15 13V6.4141V6.00004V5.00004L11 1.00004H10H6H5L3 1ZM3 2H5V5C5 6.108 5.892 7 7 7H9C10.108 7 11 6.108 11 5V2.4141L14 5.4141V13C14 13.554 13.554 14 13 14V12C13 10.892 12.108 10 11 10H5C3.892 10 3 10.892 3 12V14C2.446 14 2 13.554 2 13V3C2 2.446 2.446 2 3 2ZM6 2H8V6H7C6.446 6 6 5.554 6 5V2ZM5 11H11C11.554 11 12 11.446 12 12V14H4V12C4 11.446 4.446 11 5 11Z" fill="url(#paint0_linear_10_9415)"/>
<defs>
<linearGradient id="paint0_linear_10_9415" x1="1" y1="8" x2="15" y2="8" gradientUnits="userSpaceOnUse">
<stop stop-color="#FDFC47"/>
<stop offset="1" stop-color="#24FE41"/>
</linearGradient>
</defs>
</svg>
