<svg width="16" height="16" viewBox="0 0 16 16" fill="none" xmlns="http://www.w3.org/2000/svg">
<path d="M3 1C1.892 1 1 1.892 1 3V13C1 14.108 1.892 15 3 15H13C14.108 15 15 14.108 15 13V3C15 1.892 14.108 1 13 1H3ZM3 4H13C13.554 4 14 4.446 14 5V13C14 13.554 13.554 14 13 14H3C2.446 14 2 13.554 2 13V5C2 4.446 2.446 4 3 4Z" fill="url(#paint0_linear_10_9393)"/>
<path d="M3.5 7C3.223 7 3 7.223 3 7.5V11.5C3 11.777 3.223 12 3.5 12H5.5C5.777 12 6 11.777 6 11.5V7.5C6 7.223 5.777 7 5.5 7H3.5ZM4 8H5V11H4V8Z" fill="url(#paint1_linear_10_9393)"/>
<path d="M12.5 7H7.5C7.22386 7 7 7.22386 7 7.5C7 7.77614 7.22386 8 7.5 8H12.5C12.7761 8 13 7.77614 13 7.5C13 7.22386 12.7761 7 12.5 7Z" fill="url(#paint2_linear_10_9393)"/>
<path d="M12.5 9H7.5C7.22386 9 7 9.22386 7 9.5C7 9.77614 7.22386 10 7.5 10H12.5C12.7761 10 13 9.77614 13 9.5C13 9.22386 12.7761 9 12.5 9Z" fill="url(#paint3_linear_10_9393)"/>
<path d="M12.5 11H7.5C7.22386 11 7 11.2239 7 11.5C7 11.7761 7.22386 12 7.5 12H12.5C12.7761 12 13 11.7761 13 11.5C13 11.2239 12.7761 11 12.5 11Z" fill="url(#paint4_linear_10_9393)"/>
<defs>
<linearGradient id="paint0_linear_10_9393" x1="1" y1="8" x2="15" y2="8" gradientUnits="userSpaceOnUse">
<stop stop-color="#FDFC47"/>
<stop offset="1" stop-color="#24FE41"/>
</linearGradient>
<linearGradient id="paint1_linear_10_9393" x1="3" y1="9.5" x2="6" y2="9.5" gradientUnits="userSpaceOnUse">
<stop stop-color="#FDFC47"/>
<stop offset="1" stop-color="#24FE41"/>
</linearGradient>
<linearGradient id="paint2_linear_10_9393" x1="7" y1="7.5" x2="13" y2="7.5" gradientUnits="userSpaceOnUse">
<stop stop-color="#FDFC47"/>
<stop offset="1" stop-color="#24FE41"/>
</linearGradient>
<linearGradient id="paint3_linear_10_9393" x1="7" y1="9.5" x2="13" y2="9.5" gradientUnits="userSpaceOnUse">
<stop stop-color="#FDFC47"/>
<stop offset="1" stop-color="#24FE41"/>
</linearGradient>
<linearGradient id="paint4_linear_10_9393" x1="7" y1="11.5" x2="13" y2="11.5" gradientUnits="userSpaceOnUse">
<stop stop-color="#FDFC47"/>
<stop offset="1" stop-color="#24FE41"/>
</linearGradient>
</defs>
</svg>
