<svg width="16" height="16" viewBox="0 0 16 16" fill="none" xmlns="http://www.w3.org/2000/svg">
<path d="M13 9L9 13V15H11L15 11L13 9ZM12.6895 10.6895L13.2812 11.2813L10.3125 14.2813L9.7187 13.6875L12.6895 10.6895Z" fill="url(#paint0_linear_10_9346)"/>
<path d="M4 1C2.892 1 2 1.892 2 3V13C2 14.108 2.892 15 4 15H8V14H4C3.446 14 3 13.554 3 13V3C3 2.446 3.446 2 4 2H8V7H13V8H14V6L9 1H8H4ZM9 2.4141L12.5859 6H9V2.4141Z" fill="url(#paint1_linear_10_9346)"/>
<defs>
<linearGradient id="paint0_linear_10_9346" x1="9" y1="12" x2="15" y2="12" gradientUnits="userSpaceOnUse">
<stop stop-color="#FDFC47"/>
<stop offset="1" stop-color="#24FE41"/>
</linearGradient>
<linearGradient id="paint1_linear_10_9346" x1="2" y1="8" x2="14" y2="8" gradientUnits="userSpaceOnUse">
<stop stop-color="#FDFC47"/>
<stop offset="1" stop-color="#24FE41"/>
</linearGradient>
</defs>
</svg>
