<svg width="16" height="16" viewBox="0 0 16 16" fill="none" xmlns="http://www.w3.org/2000/svg">
<path d="M4 1C2.892 1 2 1.892 2 3H3C3 2.446 3.446 2 4 2H10.5859L14 5.4141V12C14 12.554 13.554 13 13 13C13 13.3474 12.9438 13.679 12.8613 14H13C14.108 14 15 13.108 15 12V5L11 1H5H4Z" fill="url(#paint0_linear_10_9409)"/>
<path d="M2 3C0.892 3 0 3.892 0 5V14C0 15.108 0.892 16 2 16H11C12.108 16 13 15.108 13 14V7L9 3H2ZM2 4H3V7C3 8.108 3.892 9 5 9H7C8.108 9 9 8.108 9 7V4.4141L12 7.4141V14C12 14.554 11.554 15 11 15V13C11 11.892 10.108 11 9 11H4C2.892 11 2 11.892 2 13V15C1.446 15 1 14.554 1 14V5C1 4.446 1.446 4 2 4ZM4 4H6V8H5C4.446 8 4 7.554 4 7V4ZM4 12H9C9.554 12 10 12.446 10 13V15H3V13C3 12.446 3.446 12 4 12Z" fill="url(#paint1_linear_10_9409)"/>
<defs>
<linearGradient id="paint0_linear_10_9409" x1="2" y1="7.5" x2="15" y2="7.5" gradientUnits="userSpaceOnUse">
<stop stop-color="#FDFC47"/>
<stop offset="1" stop-color="#24FE41"/>
</linearGradient>
<linearGradient id="paint1_linear_10_9409" x1="0" y1="9.5" x2="13" y2="9.5" gradientUnits="userSpaceOnUse">
<stop stop-color="#FDFC47"/>
<stop offset="1" stop-color="#24FE41"/>
</linearGradient>
</defs>
</svg>
