<svg width="16" height="16" viewBox="0 0 16 16" fill="none" xmlns="http://www.w3.org/2000/svg">
<path d="M4 0.999989C2.892 0.999989 2 1.89199 2 2.99999V13C2 14.108 2.892 15 4 15H8.7617C8.55479 14.6886 8.38749 14.3527 8.26365 14H3.99995C3.44595 14 2.99995 13.554 2.99995 13V2.99999C2.99995 2.44599 3.44595 1.99999 3.99995 1.99999H7.99995V5.99999V6.99999H13V8.03119C13.3411 8.07026 13.6766 8.14824 14 8.26361V7.414V6.99994V5.99994L8.99995 0.999939H7.99995L4 0.999989ZM9 2.41409L12.5859 5.99999H9V2.41409Z" fill="url(#paint0_linear_10_9363)"/>
<path d="M12.5 9C10.567 9 9 10.567 9 12.5C9 14.433 10.567 16 12.5 16C14.433 16 16 14.433 16 12.5C16 10.567 14.433 9 12.5 9ZM12 10H13V12H15V13H13V15H12V13H10V12H12V10Z" fill="url(#paint1_linear_10_9363)"/>
<defs>
<linearGradient id="paint0_linear_10_9363" x1="2" y1="7.99996" x2="14" y2="7.99996" gradientUnits="userSpaceOnUse">
<stop stop-color="#FDFC47"/>
<stop offset="1" stop-color="#24FE41"/>
</linearGradient>
<linearGradient id="paint1_linear_10_9363" x1="9" y1="12.5" x2="16" y2="12.5" gradientUnits="userSpaceOnUse">
<stop stop-color="#FDFC47"/>
<stop offset="1" stop-color="#24FE41"/>
</linearGradient>
</defs>
</svg>
