<svg width="16" height="16" viewBox="0 0 16 16" fill="none" xmlns="http://www.w3.org/2000/svg">
<path d="M3 4C1.892 4 1 4.892 1 6V13C1 14.108 1.892 15 3 15H12C13.108 15 14 14.108 14 13V6C14 4.892 13.108 4 12 4H10V5H12C12.554 5 13 5.446 13 6V13C13 13.554 12.554 14 12 14H3C2.446 14 2 13.554 2 13V6C2 5.446 2.446 5 3 5H5V4H3Z" fill="url(#paint0_linear_10_9419)"/>
<path d="M7.50006 0.0859985L10.0001 2.586L9.29303 3.29303L8.00003 2.00003V10H7.00003V2.00003L5.70703 3.29303L5 2.586L7.50006 0.0859985Z" fill="url(#paint1_linear_10_9419)"/>
<defs>
<linearGradient id="paint0_linear_10_9419" x1="1" y1="9.5" x2="14" y2="9.5" gradientUnits="userSpaceOnUse">
<stop stop-color="#FDFC47"/>
<stop offset="1" stop-color="#24FE41"/>
</linearGradient>
<linearGradient id="paint1_linear_10_9419" x1="5" y1="5.04301" x2="10.0001" y2="5.04301" gradientUnits="userSpaceOnUse">
<stop stop-color="#FDFC47"/>
<stop offset="1" stop-color="#24FE41"/>
</linearGradient>
</defs>
</svg>
