<svg width="16" height="16" viewBox="0 0 16 16" fill="none" xmlns="http://www.w3.org/2000/svg">
<path d="M9 5H11V7H13V8H14V6L12 4H8L9 5ZM6 14H9V13H7V12H6V14ZM10.707 9.03L10 9.737L11.793 11.53L10 13.323L10.707 14.03L12.5 12.237L14.293 14.03L15 13.323L13.207 11.53L15 9.737L14.293 9.03L12.5 10.823L10.707 9.03Z" fill="url(#paint0_linear_10_9400)"/>
<path d="M9 5L6 2H1V12H9V5ZM8 11H2V3H5V6H8V11Z" fill="url(#paint1_linear_10_9400)"/>
<defs>
<linearGradient id="paint0_linear_10_9400" x1="6" y1="9.015" x2="15" y2="9.015" gradientUnits="userSpaceOnUse">
<stop stop-color="#FDFC47"/>
<stop offset="1" stop-color="#24FE41"/>
</linearGradient>
<linearGradient id="paint1_linear_10_9400" x1="1" y1="7" x2="9" y2="7" gradientUnits="userSpaceOnUse">
<stop stop-color="#FDFC47"/>
<stop offset="1" stop-color="#24FE41"/>
</linearGradient>
</defs>
</svg>
