<svg width="16" height="16" viewBox="0 0 16 16" fill="none" xmlns="http://www.w3.org/2000/svg">
<path d="M10.1719 1.67188L9.46487 2.37891L11.086 4.00001H7.00007V5.00001H11.086L9.46487 6.62111L10.1719 7.32813L13 4.50004L11.1211 2.62113L10.1719 1.67188ZM5.8281 3.67188L3 6.49998L5.8281 9.32808L6.53513 8.62105L4.91403 6.99994H8.99993V5.99994H4.91403L6.53513 4.37884L5.8281 3.67188Z" fill="url(#paint0_linear_10_9422)"/>
<path d="M4.00012 1C2.89212 1 2.00012 1.892 2.00012 3V6.5156C1.99807 6.38166 2.02294 6.24868 2.07327 6.12454C2.12359 6.0004 2.19835 5.88764 2.29309 5.79294L3.00012 5.08591V3.00001C3.00012 2.44601 3.44612 2.00001 4.00012 2.00001H8.54112C8.59096 1.87737 8.66465 1.76584 8.75792 1.67189L9.4298 1.00001L4.00012 1ZM2.00012 6.5156V13C2.00012 14.108 2.89212 15 4.00012 15H8.00012H9.00012L14.0001 10V4.4844C14.0022 4.61834 13.9773 4.75132 13.927 4.87546C13.8766 4.9996 13.8019 5.11236 13.7071 5.20706L13.0001 5.91409V8.99999H8.00012V14H4.00012C3.44612 14 3.00012 13.554 3.00012 13V7.91409L2.29309 7.20706C2.10933 7.02339 2.00426 6.77538 2.00012 6.5156ZM14.0001 4.4844V3C14.0001 1.892 13.1081 1 12.0001 1H10.9142L11.8283 1.91406L11.9142 2H12.0002C12.5542 2 13.0002 2.446 13.0002 3V3.08594L13.7072 3.79297C13.8909 3.97663 13.996 4.22462 14.0001 4.4844ZM9.00012 10H12.586L9.00012 13.5859V10Z" fill="url(#paint1_linear_10_9422)"/>
<defs>
<linearGradient id="paint0_linear_10_9422" x1="3" y1="5.49998" x2="13" y2="5.49998" gradientUnits="userSpaceOnUse">
<stop stop-color="#FDFC47"/>
<stop offset="1" stop-color="#24FE41"/>
</linearGradient>
<linearGradient id="paint1_linear_10_9422" x1="2" y1="8" x2="14.0002" y2="8" gradientUnits="userSpaceOnUse">
<stop stop-color="#FDFC47"/>
<stop offset="1" stop-color="#24FE41"/>
</linearGradient>
</defs>
</svg>
