<svg width="16" height="16" viewBox="0 0 16 16" fill="none" xmlns="http://www.w3.org/2000/svg">
<path d="M6.13173 4.00232C3.85208 4.00232 2.01685 5.78778 2.01685 8.0056C2.01685 10.2234 3.85208 12.0089 6.13173 12.0089H9.87253C12.1522 12.0089 13.9874 10.2234 13.9874 8.0056C13.9874 5.78778 12.1522 4.00232 9.87253 4.00232H6.13173ZM6.13173 4.73019H9.87253C11.7377 4.73019 13.2393 6.19102 13.2393 8.0056C13.2393 9.82017 11.7377 11.281 9.87253 11.281H6.13173C4.26657 11.281 2.76501 9.82017 2.76501 8.0056C2.76501 6.19102 4.26657 4.73019 6.13173 4.73019Z" fill="url(#paint0_linear_10_9486)"/>
<path d="M5.28498 11.2968C4.45019 11.1629 3.74431 10.7763 3.16769 10.1374C2.75505 9.68015 2.44657 9.03748 2.3413 8.41575C2.28854 8.10411 2.28782 7.53495 2.33981 7.23478C2.56078 5.9591 3.47968 4.89566 4.71324 4.48802C5.2438 4.3127 5.16075 4.31727 7.81369 4.31727C10.0269 4.31727 10.2302 4.3209 10.4467 4.36418C11.8357 4.64187 12.8939 5.64067 13.2394 7.00032C13.3318 7.36398 13.3545 8.00246 13.2888 8.39212C13.0471 9.8263 11.9851 10.928 10.5118 11.2728C10.3332 11.3147 10.1086 11.3191 7.90492 11.3245C6.03224 11.329 5.44694 11.3229 5.28498 11.2968Z" fill="url(#paint1_linear_10_9486)" fill-opacity="0.5"/>
<defs>
<linearGradient id="paint0_linear_10_9486" x1="2.01685" y1="8.0056" x2="13.9874" y2="8.0056" gradientUnits="userSpaceOnUse">
<stop stop-color="#FDFC47"/>
<stop offset="1" stop-color="#24FE41"/>
</linearGradient>
<linearGradient id="paint1_linear_10_9486" x1="2.30127" y1="7.82155" x2="13.3264" y2="7.82155" gradientUnits="userSpaceOnUse">
<stop stop-color="#FDFC47"/>
<stop offset="1" stop-color="#24FE41"/>
</linearGradient>
</defs>
</svg>
