<svg width="16" height="16" viewBox="0 0 16 16" fill="none" xmlns="http://www.w3.org/2000/svg">
<path d="M13.4277 2.00587C12.9253 2.06145 12.1274 2.46552 11.1562 3.15621C10.1851 3.8469 9.09428 4.78613 8.05078 5.83009C7.01489 6.86692 6.08252 7.95012 5.39453 8.91603C6.20151 9.17313 6.83089 9.80209 7.08789 10.6094C8.05371 9.92023 9.13616 8.98722 10.1719 7.95118C11.4374 6.68514 12.5392 5.3593 13.2351 4.26526C13.931 3.17122 14.164 2.39856 13.8828 2.1172C13.8228 2.05677 13.7398 2.01952 13.6348 2.00587C13.5732 1.99772 13.5041 1.99772 13.4277 2.00587ZM12 8.00001C11.6108 9.27688 10.6387 10.3712 10.2188 11.25C10.0718 11.5113 10 11.808 10 12.125C10 13.1638 10.892 14 12 14C13.108 14 14 13.1638 14 12.125C14 11.808 13.897 11.5113 13.75 11.25C13.3301 10.3712 12.3892 9.27688 12 8.00001ZM5 9.99611V10C2.00008 10.8042 4.24994 12.7027 2 14C4.99992 14 6.5 12.4993 6.5 11.4981C6.5 10.999 6.55095 10.0791 5 9.99611Z" fill="url(#paint0_linear_10_9509)"/>
<defs>
<linearGradient id="paint0_linear_10_9509" x1="2" y1="7.99988" x2="14" y2="7.99988" gradientUnits="userSpaceOnUse">
<stop stop-color="#FDFC47"/>
<stop offset="1" stop-color="#24FE41"/>
</linearGradient>
</defs>
</svg>
