<svg width="16" height="16" viewBox="0 0 16 16" fill="none" xmlns="http://www.w3.org/2000/svg">
<path d="M2 2V5H3V10V10.1113L2 11.125V12.5V14C2.56696 14.01 2.9083 14.0027 3.5 14C4.03007 13.9975 4.84375 14 4.84375 14C4.84767 14.0002 5.63266 13.1944 5.82617 13H6H11V14H14V11H13H12H11V12H6.81055C9.22005 9.55666 13.8438 4.84375 13.8438 4.84375L11 2L4 9.09766V5H5V4V3V2H2ZM3 3H4V4H3V3ZM10.2812 4.15625L11.6875 5.5625L6.27344 11.123L4.86523 9.72656L10.2812 4.15625ZM13.9688 9C13.9617 9.00003 13.9391 9.00586 13.9316 9.00586H14C13.9879 9.00386 13.9812 9.002 13.9688 9ZM12 12H13V13H12V12Z" fill="url(#paint0_linear_10_9478)"/>
<defs>
<linearGradient id="paint0_linear_10_9478" x1="2" y1="8.00255" x2="14" y2="8.00255" gradientUnits="userSpaceOnUse">
<stop stop-color="#FDFC47"/>
<stop offset="1" stop-color="#24FE41"/>
</linearGradient>
</defs>
</svg>
