<svg width="16" height="16" viewBox="0 0 16 16" fill="none" xmlns="http://www.w3.org/2000/svg">
<path d="M12.5 2C12.1902 2.00043 11.8881 2.0968 11.6352 2.27586C11.3824 2.45492 11.1912 2.70789 11.0879 3H2V4C3.85517 4.95878 5.16505 6.47949 5.35742 7.30273C5.61892 8.42181 5.21553 9.73388 4.17188 11.1602C3.96342 11.0552 3.73337 11.0004 3.5 11C3.30302 11 3.10796 11.0388 2.92597 11.1142C2.74398 11.1896 2.57862 11.3001 2.43933 11.4393C2.30005 11.5786 2.18956 11.744 2.11418 11.926C2.0388 12.108 2 12.303 2 12.5C2 12.697 2.0388 12.892 2.11418 13.074C2.18956 13.256 2.30005 13.4214 2.43933 13.5607C2.57862 13.6999 2.74398 13.8104 2.92597 13.8858C3.10796 13.9612 3.30302 14 3.5 14C3.80983 13.9996 4.11193 13.9032 4.36478 13.7241C4.61763 13.5451 4.80883 13.2921 4.91211 13H9V14H12V11H9V12H4.91211C4.90084 11.9677 4.88846 11.9358 4.875 11.9043C6.17895 10.2246 6.77354 8.65429 6.42578 7.14062C6.13202 5.86199 5.24135 4.8645 3.96875 4H11.0879C11.1912 4.29211 11.3824 4.54508 11.6352 4.72414C11.8881 4.9032 12.1902 4.99957 12.5 5C12.8978 5 13.2794 4.84196 13.5607 4.56066C13.842 4.27936 14 3.89782 14 3.5C14 3.10218 13.842 2.72064 13.5607 2.43934C13.2794 2.15804 12.8978 2 12.5 2ZM12.5 3C12.6326 3 12.7598 3.05268 12.8536 3.14645C12.9473 3.24021 13 3.36739 13 3.5C13 3.63261 12.9473 3.75979 12.8536 3.85355C12.7598 3.94732 12.6326 4 12.5 4C12.3674 4 12.2402 3.94732 12.1464 3.85355C12.0527 3.75979 12 3.63261 12 3.5C12 3.36739 12.0527 3.24021 12.1464 3.14645C12.2402 3.05268 12.3674 3 12.5 3ZM3.5 12C3.62115 12.0004 3.73804 12.0448 3.82893 12.1249C3.91981 12.205 3.97852 12.3154 3.99414 12.4355C3.99573 12.4453 3.99703 12.455 3.99805 12.4648C3.99883 12.4713 3.99948 12.4779 4 12.4844C4.00008 12.4896 4.00008 12.4948 4 12.5C4 12.6326 3.94732 12.7598 3.85355 12.8536C3.75979 12.9473 3.63261 13 3.5 13C3.38236 12.9999 3.26851 12.9583 3.17849 12.8826C3.08847 12.8069 3.02803 12.7018 3.00781 12.5859C3.00781 12.5853 3.00781 12.5846 3.00781 12.584C3.00285 12.5563 3.00023 12.5282 3 12.5C2.99979 12.4831 3.00044 12.4661 3.00195 12.4492C3.01454 12.3259 3.07246 12.2117 3.16448 12.1287C3.25651 12.0457 3.37607 11.9998 3.5 12ZM10 12H11V13H10V12Z" fill="url(#paint0_linear_10_9432)"/>
<defs>
<linearGradient id="paint0_linear_10_9432" x1="2" y1="8" x2="14" y2="8" gradientUnits="userSpaceOnUse">
<stop stop-color="#FDFC47"/>
<stop offset="1" stop-color="#24FE41"/>
</linearGradient>
</defs>
</svg>
