<svg width="16" height="16" viewBox="0 0 16 16" fill="none" xmlns="http://www.w3.org/2000/svg">
<path d="M6.98438 2L2 5.83789L3.93555 12L6.22656 11.9883L5.91406 13.8496L9.00391 12.1523L12.0957 13.8438L11.4922 10.2793L14 7.75781L11.5117 7.39258L12 5.79102L6.98438 2ZM6.98633 3L8.81641 4.38281L7.46094 7.25195L4 7.76562L6.51172 10.2832L6.39258 10.9922L4.54883 11L3 6.07031L6.98633 3ZM9.38086 4.80859L11 6.0332L10.625 7.26172L10.5391 7.25L9.38086 4.80859ZM8.99805 5.5L10.0781 7.77539L12.5 8.13086L10.7441 9.89648L11.166 12.3906L9.00195 11.207L6.83984 12.3945L7.25781 9.89844L5.5 8.13477L7.92188 7.77539L8.99805 5.5Z" fill="url(#paint0_linear_10_9480)"/>
<defs>
<linearGradient id="paint0_linear_10_9480" x1="2" y1="7.9248" x2="14" y2="7.9248" gradientUnits="userSpaceOnUse">
<stop stop-color="#FDFC47"/>
<stop offset="1" stop-color="#24FE41"/>
</linearGradient>
</defs>
</svg>
