<svg width="16" height="16" viewBox="0 0 16 16" fill="none" xmlns="http://www.w3.org/2000/svg">
<path d="M2 2V5H3V3H5V2H3H2ZM11 2V3H13V4V5H14V3V2H11ZM7 5L4 8H9L12 5H7ZM7 9L4 12H9L12 9H7ZM2 11V12V13V14H5V13H3V12V11H2ZM13 11V12V13H12H11V14H12H13H14V12V11H13Z" fill="url(#paint0_linear_10_9588)"/>
<defs>
<linearGradient id="paint0_linear_10_9588" x1="2" y1="8" x2="14" y2="8" gradientUnits="userSpaceOnUse">
<stop stop-color="#FDFC47"/>
<stop offset="1" stop-color="#24FE41"/>
</linearGradient>
</defs>
</svg>
