<svg width="16" height="16" viewBox="0 0 16 16" fill="none" xmlns="http://www.w3.org/2000/svg">
<path d="M2 2V14H3H9H10H13H14V2H2ZM3 3H6V5H7V3H9V5H10V3H11H12H13V5V6H11.6562H11V7H11.6562H13V9H12H11V10H12H13V13H12H11H10V11H9V13H7V11H6V13H3V10H5V9H3V7H5V6H3V5V3ZM7 6L5 8L7 10V6ZM9 6V10L11 8L9 6Z" fill="url(#paint0_linear_10_9609)"/>
<defs>
<linearGradient id="paint0_linear_10_9609" x1="2" y1="8" x2="14" y2="8" gradientUnits="userSpaceOnUse">
<stop stop-color="#FDFC47"/>
<stop offset="1" stop-color="#24FE41"/>
</linearGradient>
</defs>
</svg>
