<svg width="16" height="16" viewBox="0 0 16 16" fill="none" xmlns="http://www.w3.org/2000/svg">
<path d="M2 2V5H3V3H6V5H7V3H9V5H10V3H13V5H14V2H9H2ZM10 6L12 10L14 6H10ZM2 10V14H14V10H13V13H10V10H9V13H7V10H6V13H3V10H2Z" fill="url(#paint0_linear_10_9630)"/>
<path d="M2 5V6H3.281L2 7.281V8.719L4.719 6H7.282L4.282 9H2.001V10H9.001V8.281L8.282 9H5.719L8.719 6H9V5H3H2Z" fill="url(#paint1_linear_10_9630)"/>
<defs>
<linearGradient id="paint0_linear_10_9630" x1="2" y1="8" x2="14" y2="8" gradientUnits="userSpaceOnUse">
<stop stop-color="#FDFC47"/>
<stop offset="1" stop-color="#24FE41"/>
</linearGradient>
<linearGradient id="paint1_linear_10_9630" x1="2" y1="7.5" x2="9.001" y2="7.5" gradientUnits="userSpaceOnUse">
<stop stop-color="#FDFC47"/>
<stop offset="1" stop-color="#24FE41"/>
</linearGradient>
</defs>
</svg>
