<svg width="16" height="16" viewBox="0 0 16 16" fill="none" xmlns="http://www.w3.org/2000/svg">
<path d="M14 2C13.011 2.203 12.0938 2.78219 11.5508 3.61719C11.3628 3.53319 11.219 3.5 11 3.5C10.844 3.5 10.6957 3.53022 10.5547 3.57422C9.70169 3.05422 8.702 2.75 7.625 2.75C4.509 2.75 2 5.259 2 8.375C2 11.491 4.509 14 7.625 14C10.741 14 13.25 11.491 13.25 8.375C13.25 7.299 12.9468 6.29831 12.4258 5.44531C12.4698 5.30331 12.5 5.156 12.5 5C12.5 4.664 12.4907 4.5283 12.3047 4.2793C12.7067 3.6253 13.242 3.197 14 3V2Z" fill="url(#paint0_linear_10_9511)"/>
<defs>
<linearGradient id="paint0_linear_10_9511" x1="2" y1="8" x2="14" y2="8" gradientUnits="userSpaceOnUse">
<stop stop-color="#FDFC47"/>
<stop offset="1" stop-color="#24FE41"/>
</linearGradient>
</defs>
</svg>
