<svg width="16" height="16" viewBox="0 0 16 16" fill="none" xmlns="http://www.w3.org/2000/svg">
<path d="M2 2V5H3V3H5V2H2ZM6 2V3H10V2H6ZM11 2V3H13V5H14V2H11ZM8 4C7.60218 4 7.22064 4.15804 6.93934 4.43934C6.65804 4.72064 6.5 5.10218 6.5 5.5C6.5 5.89782 6.65804 6.27936 6.93934 6.56066C7.22064 6.84196 7.60218 7 8 7C8.39782 7 8.77936 6.84196 9.06066 6.56066C9.34196 6.27936 9.5 5.89782 9.5 5.5C9.5 5.10218 9.34196 4.72064 9.06066 4.43934C8.77936 4.15804 8.39782 4 8 4ZM2 6V10H3V6H2ZM13 6V9H14V6H13ZM8 8C7.20435 8 6.44129 8.31607 5.87868 8.87868C5.31607 9.44129 5 10.2044 5 11V12H8V11H6C6 10.4696 6.21071 9.96086 6.58579 9.58579C6.96086 9.21071 7.46957 9 8 9H10.2324C9.95144 8.68585 9.60741 8.43443 9.22276 8.26213C8.83811 8.08983 8.42148 8.00051 8 8ZM11 9V11H9V12H11V14H12V12H14V11H12V9H11ZM2 11V14H5V13H3V11H2ZM6 13V14H9V13H6Z" fill="url(#paint0_linear_10_9558)"/>
<defs>
<linearGradient id="paint0_linear_10_9558" x1="2" y1="8" x2="14" y2="8" gradientUnits="userSpaceOnUse">
<stop stop-color="#FDFC47"/>
<stop offset="1" stop-color="#24FE41"/>
</linearGradient>
</defs>
</svg>
