<svg width="16" height="16" viewBox="0 0 16 16" fill="none" xmlns="http://www.w3.org/2000/svg">
<path d="M8 2C5.79086 2.00001 4.00001 3.79086 4 6C4.00157 6.47637 4.08821 6.94863 4.25586 7.39453C4.37719 7.72987 4.62188 8.10117 4.77539 8.35742L8 14L11.2246 8.35938C11.4778 8.04397 11.5875 7.71015 11.7461 7.39453C11.9131 6.94851 11.9991 6.47625 12 6C12 3.79086 10.2091 2.00001 8 2ZM8 3C8.9153 3.00002 9.78053 3.41788 10.3496 4.13477C10.4742 4.29149 10.5828 4.4603 10.6738 4.63867C10.8557 4.99634 10.9639 5.38686 10.9922 5.78711C10.9973 5.85796 10.9999 5.92897 11 6C10.9998 6.30066 10.9543 6.59957 10.8652 6.88672C10.8158 7.04256 10.7538 7.19411 10.6797 7.33984C10.6714 7.35816 10.6629 7.37639 10.6543 7.39453C10.1364 8.38109 9.11426 8.9993 8 9C6.88574 8.9993 5.86366 8.38109 5.3457 7.39453C5.30122 7.30992 5.26081 7.22323 5.22461 7.13477L5.21875 7.12109C5.18573 7.03845 5.1564 6.95439 5.13086 6.86914C5.12688 6.85745 5.12297 6.84573 5.11914 6.83398C5.09692 6.75407 5.07802 6.67327 5.0625 6.5918C5.05845 6.5749 5.05454 6.55798 5.05078 6.54102C5.03545 6.45692 5.02372 6.37221 5.01562 6.28711C5.01422 6.2728 5.01292 6.25847 5.01172 6.24414C5.0045 6.16295 5.00059 6.08151 5 6C5.00023 5.90019 5.00545 5.80046 5.01562 5.70117C5.09623 4.89444 5.49993 4.15468 6.13477 3.65039C6.29149 3.52577 6.4603 3.41716 6.63867 3.32617C7.06038 3.11162 7.52685 2.99985 8 3Z" fill="url(#paint0_linear_10_9577)"/>
<defs>
<linearGradient id="paint0_linear_10_9577" x1="4" y1="8" x2="12" y2="8" gradientUnits="userSpaceOnUse">
<stop stop-color="#FDFC47"/>
<stop offset="1" stop-color="#24FE41"/>
</linearGradient>
</defs>
</svg>
