<svg width="16" height="16" viewBox="0 0 16 16" fill="none" xmlns="http://www.w3.org/2000/svg">
<path d="M2 2V5H3V3H5V2H2ZM6 2V3H10V2H6ZM11 2V3H13V5H14V2H11ZM6 5C5.73478 5 5.48043 5.10536 5.29289 5.29289C5.10536 5.48043 5 5.73478 5 6C5 6.26522 5.10536 6.51957 5.29289 6.70711C5.48043 6.89464 5.73478 7 6 7C6.26522 7 6.51957 6.89464 6.70711 6.70711C6.89464 6.51957 7 6.26522 7 6C7 5.73478 6.89464 5.48043 6.70711 5.29289C6.51957 5.10536 6.26522 5 6 5ZM10 5C9.73478 5 9.48043 5.10536 9.29289 5.29289C9.10536 5.48043 9 5.73478 9 6C9 6.26522 9.10536 6.51957 9.29289 6.70711C9.48043 6.89464 9.73478 7 10 7C10.2652 7 10.5196 6.89464 10.7071 6.70711C10.8946 6.51957 11 6.26522 11 6C11 5.73478 10.8946 5.48043 10.7071 5.29289C10.5196 5.10536 10.2652 5 10 5ZM2 6V10H3V6H2ZM13 6V10H14V6H13ZM4 9C4 9.79565 4.42143 10.5587 5.17157 11.1213C5.92172 11.6839 6.93913 12 8 12C9.06087 12 10.0783 11.6839 10.8284 11.1213C11.5786 10.5587 12 9.79565 12 9H11C11 9.53043 10.6839 10.0391 10.1213 10.4142C9.55871 10.7893 8.79565 11 8 11C7.20435 11 6.44129 10.7893 5.87868 10.4142C5.31607 10.0391 5 9.53043 5 9H4ZM2 11V14H5V13H3V11H2ZM13 11V13H11V14H14V11H13ZM6 13V14H10V13H6Z" fill="url(#paint0_linear_10_9560)"/>
<defs>
<linearGradient id="paint0_linear_10_9560" x1="2" y1="8" x2="14" y2="8" gradientUnits="userSpaceOnUse">
<stop stop-color="#FDFC47"/>
<stop offset="1" stop-color="#24FE41"/>
</linearGradient>
</defs>
</svg>
