<svg width="16" height="16" viewBox="0 0 16 16" fill="none" xmlns="http://www.w3.org/2000/svg">
<path d="M8 0C6.8954 0 6 0.89543 6 2H4V2.00586C2.887 2.03844 2 2.93931 2 4.06056V12.9395C2 14.0815 2.91853 15 4.0605 15H11.9394C13.0814 15 13.9999 14.0814 13.9999 12.9395V4.06056C13.9999 2.91856 13.0814 2.00006 11.9394 2.00006H10C10 1.86206 9.99475 1.72381 9.96875 1.59381C9.7726 0.66345 8.9509 -0.0018 8 0ZM7.98828 1C7.99219 0.999977 7.99609 0.999977 8 1C8.414 1 8.75425 1.266 8.90625 1.625C8.96314 1.74216 8.99507 1.86986 9 2C8.99994 2.88813 7.9284 3.3352 7.2969 2.71094C6.66533 2.08668 7.10021 1.0104 7.98828 1ZM3.99998 3H5.99998V4C5.99998 4 4.99998 4 4.99998 5H11C11 4.25 10.4372 4.047 10.1562 4H9.99998V3H12C12.554 3 13 3.446 13 4V13C13 13.554 12.554 14 12 14H3.99998C3.44598 14 2.99998 13.554 2.99998 13V4C2.99998 3.446 3.44598 3 3.99998 3Z" fill="url(#paint0_linear_10_9581)"/>
<defs>
<linearGradient id="paint0_linear_10_9581" x1="2" y1="7.49998" x2="13.9999" y2="7.49998" gradientUnits="userSpaceOnUse">
<stop stop-color="#FDFC47"/>
<stop offset="1" stop-color="#24FE41"/>
</linearGradient>
</defs>
</svg>
