<svg width="16" height="16" viewBox="0 0 16 16" fill="none" xmlns="http://www.w3.org/2000/svg">
<path d="M2 2V14H14V2H2ZM2.99975 2.99975H12.9995V12.9995H2.99975V2.99975Z" fill="url(#paint0_linear_10_9644)"/>
<path d="M7.00024 9.005H9.00049V14.0075H7.00024V9.005Z" fill="url(#paint1_linear_10_9644)"/>
<path d="M8.00001 6.005C6.89526 6.005 5.99976 6.9005 5.99976 8.00525C5.99976 9.11 6.89526 10.0055 8.00001 10.0055C9.10476 10.0055 10.0003 9.11 10.0003 8.00525C10.0003 6.9005 9.10476 6.005 8.00001 6.005ZM8.00001 7.00475C8.55201 7.00475 8.99976 7.45251 8.99976 8.00451C8.99976 8.55651 8.55201 9.00425 8.00001 9.00425C7.44801 9.00425 7.00026 8.55651 7.00026 8.00451C7.00026 7.45251 7.44801 7.00475 8.00001 7.00475Z" fill="url(#paint2_linear_10_9644)"/>
<defs>
<linearGradient id="paint0_linear_10_9644" x1="2" y1="8" x2="14" y2="8" gradientUnits="userSpaceOnUse">
<stop stop-color="#FDFC47"/>
<stop offset="1" stop-color="#24FE41"/>
</linearGradient>
<linearGradient id="paint1_linear_10_9644" x1="7.00024" y1="11.5063" x2="9.00049" y2="11.5063" gradientUnits="userSpaceOnUse">
<stop stop-color="#FDFC47"/>
<stop offset="1" stop-color="#24FE41"/>
</linearGradient>
<linearGradient id="paint2_linear_10_9644" x1="5.99976" y1="8.00525" x2="10.0003" y2="8.00525" gradientUnits="userSpaceOnUse">
<stop stop-color="#FDFC47"/>
<stop offset="1" stop-color="#24FE41"/>
</linearGradient>
</defs>
</svg>
