<svg width="16" height="16" viewBox="0 0 16 16" fill="none" xmlns="http://www.w3.org/2000/svg">
<path d="M2 2V4C7.523 4 12 8.477 12 14H14C14 7.373 8.627 2 2 2ZM2 6V8C5.314 8 8 10.686 8 14H10C10 9.582 6.418 6 2 6ZM3.5 11C2.672 11 2 11.672 2 12.5C2 13.328 2.672 14 3.5 14C4.328 14 5 13.328 5 12.5C5 11.672 4.328 11 3.5 11Z" fill="url(#paint0_linear_10_9678)"/>
<defs>
<linearGradient id="paint0_linear_10_9678" x1="2" y1="8" x2="14" y2="8" gradientUnits="userSpaceOnUse">
<stop stop-color="#FDFC47"/>
<stop offset="1" stop-color="#24FE41"/>
</linearGradient>
</defs>
</svg>
