<svg width="16" height="16" viewBox="0 0 16 16" fill="none" xmlns="http://www.w3.org/2000/svg">
<path d="M5 2V3V10.2812C4.70546 10.1105 4.36497 10 4 10C2.89543 10 2 10.8954 2 12C2 13.1046 2.89543 14 4 14C5.10457 14 6 13.1046 6 12V5H13V9.28125C12.7055 9.11049 12.365 9 12 9C10.8954 9 10 9.89544 10 11C10 12.1046 10.8954 13 12 13C13.1046 13 14 12.1046 14 11V3V2H5ZM6 3H13V4H6V3Z" fill="url(#paint0_linear_10_9692)"/>
<defs>
<linearGradient id="paint0_linear_10_9692" x1="2" y1="8" x2="14" y2="8" gradientUnits="userSpaceOnUse">
<stop stop-color="#FDFC47"/>
<stop offset="1" stop-color="#24FE41"/>
</linearGradient>
</defs>
</svg>
