<svg width="16" height="16" viewBox="0 0 16 16" fill="none" xmlns="http://www.w3.org/2000/svg">
<path d="M6 3C4.892 3 4 3.892 4 5V13C4 14.108 4.892 15 6 15H8V14H6C5.446 14 5 13.554 5 13V5C5 4.446 5.446 4 6 4H13C13.554 4 14 4.446 14 5V7H15V5C15 3.892 14.108 3 13 3H6Z" fill="url(#paint0_linear_10_9694)"/>
<path d="M3 1C1.892 1 1 1.892 1 3V11C1 12.108 1.892 13 3 13H4V12H3C2.446 12 2 11.554 2 11V3C2 2.446 2.446 2 3 2H10C10.554 2 11 2.446 11 3H12C12 1.892 11.108 1 10 1H3Z" fill="url(#paint1_linear_10_9694)"/>
<path d="M12.5 8C11.5717 8 10.6815 8.36875 10.0251 9.02513C9.36875 9.6815 9 10.5717 9 11.5C9 12.4283 9.36875 13.3185 10.0251 13.9749C10.6815 14.6313 11.5717 15 12.5 15C13.4283 15 14.3185 14.6313 14.9749 13.9749C15.6313 13.3185 16 12.4283 16 11.5C16 10.5717 15.6313 9.6815 14.9749 9.02513C14.3185 8.36875 13.4283 8 12.5 8ZM11 10H12V12H14V13H11V12V10Z" fill="url(#paint2_linear_10_9694)"/>
<defs>
<linearGradient id="paint0_linear_10_9694" x1="4" y1="9" x2="15" y2="9" gradientUnits="userSpaceOnUse">
<stop stop-color="#FDFC47"/>
<stop offset="1" stop-color="#24FE41"/>
</linearGradient>
<linearGradient id="paint1_linear_10_9694" x1="1" y1="7" x2="12" y2="7" gradientUnits="userSpaceOnUse">
<stop stop-color="#FDFC47"/>
<stop offset="1" stop-color="#24FE41"/>
</linearGradient>
<linearGradient id="paint2_linear_10_9694" x1="9" y1="11.5" x2="16" y2="11.5" gradientUnits="userSpaceOnUse">
<stop stop-color="#FDFC47"/>
<stop offset="1" stop-color="#24FE41"/>
</linearGradient>
</defs>
</svg>
