<svg width="16" height="16" viewBox="0 0 16 16" fill="none" xmlns="http://www.w3.org/2000/svg">
<path d="M10 9V10H9V11H10V13H9V14H10V15H11V14H13V15H14V14H15V13H14V11H15V10H14V9H13V10H11V9H10ZM11 11H13V13H11V11Z" fill="url(#paint0_linear_10_9699)"/>
<path d="M6 3C4.892 3 4 3.892 4 5V13C4 14.108 4.892 15 6 15H8V14H6C5.446 14 5 13.554 5 13V5C5 4.446 5.446 4 6 4H13C13.554 4 14 4.446 14 5V8H15V5C15 3.892 14.108 3 13 3H6Z" fill="url(#paint1_linear_10_9699)"/>
<path d="M3 1C1.892 1 1 1.892 1 3V11C1 12.108 1.892 13 3 13H4V12H3C2.446 12 2 11.554 2 11V3C2 2.446 2.446 2 3 2H10C10.554 2 11 2.446 11 3H12C12 1.892 11.108 1 10 1H3Z" fill="url(#paint2_linear_10_9699)"/>
<defs>
<linearGradient id="paint0_linear_10_9699" x1="9" y1="12" x2="15" y2="12" gradientUnits="userSpaceOnUse">
<stop stop-color="#FDFC47"/>
<stop offset="1" stop-color="#24FE41"/>
</linearGradient>
<linearGradient id="paint1_linear_10_9699" x1="4" y1="9" x2="15" y2="9" gradientUnits="userSpaceOnUse">
<stop stop-color="#FDFC47"/>
<stop offset="1" stop-color="#24FE41"/>
</linearGradient>
<linearGradient id="paint2_linear_10_9699" x1="1" y1="7" x2="12" y2="7" gradientUnits="userSpaceOnUse">
<stop stop-color="#FDFC47"/>
<stop offset="1" stop-color="#24FE41"/>
</linearGradient>
</defs>
</svg>
