<svg width="16" height="16" viewBox="0 0 16 16" fill="none" xmlns="http://www.w3.org/2000/svg">
<path d="M4.5 2C3.11929 2 2 3.11929 2 4.5V10.5C2 11.8807 3.11929 13 4.5 13H10V12H4.5C3.67157 12 3 11.3284 3 10.5C3 9.67157 3.67157 9 4.5 9H5V5H12V10H13V4H5V2H4.5ZM4 3.08789V8.05078C3.63721 8.12586 3.29564 8.28063 3 8.50391V4.5C3.00089 3.8651 3.40141 3.29952 4 3.08789Z" fill="url(#paint0_linear_10_9732)"/>
<path d="M8.5 6C7.11929 6 6 7.11929 6 8.5C6 9.88071 7.11929 11 8.5 11C8.98983 10.9992 9.46864 10.8546 9.87695 10.584L12.293 13L13 12.293L10.584 9.87695C10.8546 9.46864 10.9992 8.98983 11 8.5C11 7.11929 9.88071 6 8.5 6ZM8.5 7C9.32843 7 10 7.67157 10 8.5C10 9.32843 9.32843 10 8.5 10C7.67157 10 7 9.32843 7 8.5C7 7.67157 7.67157 7 8.5 7Z" fill="url(#paint1_linear_10_9732)"/>
<defs>
<linearGradient id="paint0_linear_10_9732" x1="2" y1="7.5" x2="13" y2="7.5" gradientUnits="userSpaceOnUse">
<stop stop-color="#FDFC47"/>
<stop offset="1" stop-color="#24FE41"/>
</linearGradient>
<linearGradient id="paint1_linear_10_9732" x1="6" y1="9.5" x2="13" y2="9.5" gradientUnits="userSpaceOnUse">
<stop stop-color="#FDFC47"/>
<stop offset="1" stop-color="#24FE41"/>
</linearGradient>
</defs>
</svg>
