<svg width="16" height="16" viewBox="0 0 16 16" fill="none" xmlns="http://www.w3.org/2000/svg">
<g clip-path="url(#clip0_10_9771)">
<path d="M12 9V10H11V15H16V10H15V9H12ZM12 11H15V14H12V11Z" fill="url(#paint0_linear_10_9771)"/>
<path d="M2 2C0.892 2 0 2.892 0 4V13C0 14.108 0.892 15 2 15H10V14H2C1.446 14 1 13.554 1 13V7H15L15 8H16L16 5C16 3.892 15.108 3 14 3H6.3711C5.79125 2.9771 5.7664 3.07688 5.332 2.64258C4.89819 2.20877 4.719 2.00045 4 2H2ZM2 3H4C4.31116 3 4.52033 3.00014 4.99805 3.4707C5.47682 3.94231 5.63685 4 5.99805 4H14C14.554 4 15 4.446 15 5V6H1.00005V4C1.00005 3.446 1.446 3 2 3Z" fill="url(#paint1_linear_10_9771)"/>
</g>
<defs>
<linearGradient id="paint0_linear_10_9771" x1="11" y1="12" x2="16" y2="12" gradientUnits="userSpaceOnUse">
<stop stop-color="#FDFC47"/>
<stop offset="1" stop-color="#24FE41"/>
</linearGradient>
<linearGradient id="paint1_linear_10_9771" x1="0" y1="8.5" x2="16" y2="8.5" gradientUnits="userSpaceOnUse">
<stop stop-color="#FDFC47"/>
<stop offset="1" stop-color="#24FE41"/>
</linearGradient>
<clipPath id="clip0_10_9771">
<rect width="16" height="16" fill="white"/>
</clipPath>
</defs>
</svg>
