<svg width="16" height="16" viewBox="0 0 16 16" fill="none" xmlns="http://www.w3.org/2000/svg">
<path d="M6.3828 2L2 13H3.3574L4.5469 10H9.3418C9.57796 9.50144 9.92863 9.06576 10.3652 8.7285L7.6855 2H6.3828ZM7.00585 3.3281L9.12695 9H4.94135L7.00585 3.3281Z" fill="url(#paint0_linear_10_9777)"/>
<path d="M15 11.5C15 10.837 14.7366 10.2011 14.2678 9.73223C13.7989 9.26339 13.163 9 12.5 9C11.837 9 11.2011 9.26339 10.7322 9.73223C10.2634 10.2011 10 10.837 10 11.5C10 12.163 10.2634 12.7989 10.7322 13.2678C11.2011 13.7366 11.837 14 12.5 14C13.163 14 13.7989 13.7366 14.2678 13.2678C14.7366 12.7989 15 12.163 15 11.5ZM14 11.5C13.9991 11.7232 13.9484 11.9434 13.8516 12.1445L11.855 10.148C12.0563 10.0513 12.2766 10.0007 12.5 10C12.8978 10 13.2793 10.1581 13.5606 10.4394C13.8419 10.7207 14 11.1022 14 11.5ZM13.1445 12.8516C12.9434 12.9484 12.7232 12.9992 12.5 13.0001C12.1021 13.0001 11.7206 12.842 11.4393 12.5607C11.158 12.2794 11 11.8979 11 11.5001C11.0009 11.2769 11.0516 11.0567 11.1484 10.8555L13.1445 12.8516Z" fill="url(#paint1_linear_10_9777)"/>
<defs>
<linearGradient id="paint0_linear_10_9777" x1="2" y1="7.5" x2="10.3652" y2="7.5" gradientUnits="userSpaceOnUse">
<stop stop-color="#FDFC47"/>
<stop offset="1" stop-color="#24FE41"/>
</linearGradient>
<linearGradient id="paint1_linear_10_9777" x1="10" y1="11.5" x2="15" y2="11.5" gradientUnits="userSpaceOnUse">
<stop stop-color="#FDFC47"/>
<stop offset="1" stop-color="#24FE41"/>
</linearGradient>
</defs>
</svg>
