<svg width="16" height="16" viewBox="0 0 16 16" fill="none" xmlns="http://www.w3.org/2000/svg">
<path d="M5 2C4.448 2 4 2.448 4 3V5H2V8H3V6H13V8H14V5H12V3C12 2.448 11.552 2 11 2H5ZM5 3H11V5H5V3ZM4.00391 9C3.73869 9 3.48434 9.10536 3.2968 9.29289C3.10926 9.48043 3.00391 9.73478 3.00391 10C3.00391 10.2652 3.10926 10.5196 3.2968 10.7071C3.48434 10.8946 3.73869 11 4.00391 11C4.26912 11 4.52348 10.8946 4.71101 10.7071C4.89855 10.5196 5.00391 10.2652 5.00391 10C5.00391 9.73478 4.89855 9.48043 4.71101 9.29289C4.52348 9.10536 4.26912 9 4.00391 9ZM2.68359 12C2.47031 12.1874 2.29939 12.4182 2.1822 12.6768C2.06501 12.9354 2.00423 13.2161 2.00391 13.5V14H6.00391V13.5C6.00359 13.2161 5.94281 12.9354 5.82561 12.6768C5.70842 12.4182 5.5375 12.1874 5.32422 12H2.68359Z" fill="url(#paint0_linear_10_9785)"/>
<path d="M11 8C9.338 8 8 9.338 8 11C8 12.662 9.338 14 11 14C12.662 14 14 12.662 14 11C14 9.338 12.662 8 11 8ZM11 9C12.108 9 13 9.892 13 11C13 12.108 12.108 13 11 13C9.892 13 9 12.108 9 11C9 9.892 9.892 9 11 9ZM10 10V12H12V11H11V10H10Z" fill="url(#paint1_linear_10_9785)"/>
<defs>
<linearGradient id="paint0_linear_10_9785" x1="2" y1="8" x2="14" y2="8" gradientUnits="userSpaceOnUse">
<stop stop-color="#FDFC47"/>
<stop offset="1" stop-color="#24FE41"/>
</linearGradient>
<linearGradient id="paint1_linear_10_9785" x1="8" y1="11" x2="14" y2="11" gradientUnits="userSpaceOnUse">
<stop stop-color="#FDFC47"/>
<stop offset="1" stop-color="#24FE41"/>
</linearGradient>
</defs>
</svg>
