<svg width="16" height="16" viewBox="0 0 16 16" fill="none" xmlns="http://www.w3.org/2000/svg">
<path d="M3.82617 5.99805L0.996094 13.998H2.14062L3.11328 11.7129H5.83789L6.71094 13.998H7.85352L5.26367 5.99805H3.82617ZM8.71094 6V14H12.7109C13.317 13.9999 13.8981 13.759 14.3266 13.3305C14.7551 12.902 14.9959 12.3209 14.9961 11.7148C14.9953 11.2412 14.8473 10.7794 14.5726 10.3935C14.298 10.0076 13.9102 9.7165 13.4629 9.56055C13.717 9.18371 13.853 8.73967 13.8535 8.28516C13.8534 7.98492 13.7942 7.68764 13.6792 7.4103C13.5642 7.13296 13.3957 6.88099 13.1834 6.66878C12.971 6.45657 12.7189 6.28829 12.4414 6.17354C12.164 6.05878 11.8666 5.99982 11.5664 6H9.28125H8.71094ZM9.85352 7.14258H11.5664C11.8694 7.14265 12.16 7.26305 12.3742 7.47731C12.5885 7.69157 12.7089 7.98215 12.709 8.28516C12.7089 8.58816 12.5885 8.87874 12.3742 9.093C12.16 9.30726 11.8694 9.42766 11.5664 9.42773H9.85352V7.14258ZM4.54297 7.23828L5.61523 10.5703H3.35938L4.54297 7.23828ZM9.85352 10.5723H12.7109C13.0139 10.5723 13.3045 10.6927 13.5188 10.907C13.733 11.1213 13.8534 11.4118 13.8535 11.7148C13.8534 12.0179 13.733 12.3084 13.5188 12.5227C13.3045 12.7369 13.0139 12.8573 12.7109 12.8574H9.85352V10.5723Z" fill="url(#paint0_linear_10_9940)"/>
<path d="M8.70996 5H13.71L11.21 2L8.70996 5Z" fill="url(#paint1_linear_10_9940)"/>
<defs>
<linearGradient id="paint0_linear_10_9940" x1="0.996094" y1="9.99902" x2="14.9961" y2="9.99902" gradientUnits="userSpaceOnUse">
<stop stop-color="#FDFC47"/>
<stop offset="1" stop-color="#24FE41"/>
</linearGradient>
<linearGradient id="paint1_linear_10_9940" x1="8.70996" y1="3.5" x2="13.71" y2="3.5" gradientUnits="userSpaceOnUse">
<stop stop-color="#FDFC47"/>
<stop offset="1" stop-color="#24FE41"/>
</linearGradient>
</defs>
</svg>
