<svg width="16" height="16" viewBox="0 0 16 16" fill="none" xmlns="http://www.w3.org/2000/svg">
<path d="M15 1H9V2H14V7H9V8H14V13H9V14H15V2V1ZM8 1H2V14H8V13H3V8H8V7H3V2H8V1Z" fill="url(#paint0_linear_10_9827)"/>
<path d="M14 13H9V8H14V13ZM14 7H9V2H14V7ZM8 13H3V8H8V13ZM8 7H3V2H8V7Z" fill="url(#paint1_linear_10_9827)" fill-opacity="0.5"/>
<defs>
<linearGradient id="paint0_linear_10_9827" x1="2" y1="7.5" x2="15" y2="7.5" gradientUnits="userSpaceOnUse">
<stop stop-color="#FDFC47"/>
<stop offset="1" stop-color="#24FE41"/>
</linearGradient>
<linearGradient id="paint1_linear_10_9827" x1="3" y1="7.5" x2="14" y2="7.5" gradientUnits="userSpaceOnUse">
<stop stop-color="#FDFC47"/>
<stop offset="1" stop-color="#24FE41"/>
</linearGradient>
</defs>
</svg>
