<svg width="16" height="16" viewBox="0 0 16 16" fill="none" xmlns="http://www.w3.org/2000/svg">
<path d="M4.5 2C3.11929 2 2 3.11929 2 4.5C2 5.88071 3.11929 7 4.5 7C5.88071 7 7 5.88071 7 4.5C7 3.11929 5.88071 2 4.5 2ZM11.4062 2L3.78125 13.4375L4.59375 14L12.2188 2.5625L11.4062 2ZM4.5 3C5.32843 3 6 3.67157 6 4.5C6 5.32843 5.32843 6 4.5 6C3.67157 6 3 5.32843 3 4.5C3 3.67157 3.67157 3 4.5 3ZM11.5 9C10.1193 9 9 10.1193 9 11.5C9 12.8807 10.1193 14 11.5 14C12.8807 14 14 12.8807 14 11.5C14 10.1193 12.8807 9 11.5 9ZM11.5 10C12.3284 10 13 10.6715 13 11.5C13 12.3284 12.3284 13 11.5 13C10.6716 13 10 12.3284 10 11.5C10 10.6715 10.6716 10 11.5 10Z" fill="url(#paint0_linear_10_9892)"/>
<defs>
<linearGradient id="paint0_linear_10_9892" x1="2" y1="8" x2="14" y2="8" gradientUnits="userSpaceOnUse">
<stop stop-color="#FDFC47"/>
<stop offset="1" stop-color="#24FE41"/>
</linearGradient>
</defs>
</svg>
