<svg width="16" height="16" viewBox="0 0 16 16" fill="none" xmlns="http://www.w3.org/2000/svg">
<path d="M14 14V11H11V11.9998H5V11H2V14H5V13.0002H11V14H14ZM13.0002 13.0002H12.0005V12.0005H13.0002V13.0002ZM4.00025 13.0002H3.0005V12.0005H4.00025V13.0002ZM14 5V2H11V2.99975H8.99975V3.9995H11V4.99925L14 5ZM5 5V4.00025H7.00025V3.0005H5V2.00075H2V5.00075L5 5ZM13.0002 4.00025H12.0005V3.0005H13.0002V4.00025ZM4.00025 4.00025H3.0005V3.0005H4.00025V4.00025Z" fill="url(#paint0_linear_10_9859)"/>
<path d="M5.99976 7.00244L8.00001 10.0024L10.0003 7.00244H5.99976Z" fill="url(#paint1_linear_10_9859)"/>
<defs>
<linearGradient id="paint0_linear_10_9859" x1="2" y1="8" x2="14" y2="8" gradientUnits="userSpaceOnUse">
<stop stop-color="#FDFC47"/>
<stop offset="1" stop-color="#24FE41"/>
</linearGradient>
<linearGradient id="paint1_linear_10_9859" x1="5.99976" y1="8.50244" x2="10.0003" y2="8.50244" gradientUnits="userSpaceOnUse">
<stop stop-color="#FDFC47"/>
<stop offset="1" stop-color="#24FE41"/>
</linearGradient>
</defs>
</svg>
