<svg width="16" height="16" viewBox="0 0 16 16" fill="none" xmlns="http://www.w3.org/2000/svg">
<path d="M8 2C4.686 2 2 4.686 2 8C2 11.314 4.686 14 8 14C11.314 14 14 11.314 14 8C14 4.686 11.314 2 8 2ZM8 3C9.713 3 11.222 3.865 12.123 5.178L7.461 9.668L4.691 7L4 7.666L7.461 11L8.154 10.334L12.603 6.047C12.858 6.647 12.999 7.307 12.999 8C12.999 10.761 10.76 13 7.999 13C5.238 13 2.999 10.761 2.999 8C2.999 5.239 5.239 3 8 3Z" fill="url(#paint0_linear_10_9957)"/>
<defs>
<linearGradient id="paint0_linear_10_9957" x1="2" y1="8" x2="14" y2="8" gradientUnits="userSpaceOnUse">
<stop stop-color="#FDFC47"/>
<stop offset="1" stop-color="#24FE41"/>
</linearGradient>
</defs>
</svg>
