<svg width="16" height="16" viewBox="0 0 16 16" fill="none" xmlns="http://www.w3.org/2000/svg">
<path d="M8 2V2.00195C6.0003 2.00195 5 3.49153 5 5.30078C5 7.25034 7 11 7 11H9C9 11 11 7.24839 11 5.29883C11 3.48961 10.0003 2 8 2ZM8 3C9.33353 3 10 4.15924 10 5.56641C10 7.08274 8.66602 10 8.66602 10H7.33398C7.33398 10 6 7.08273 6 5.56641C6 4.15921 6.66687 3.00195 8 3.00195V3ZM7 12V13C7 13.1313 7.02586 13.2614 7.07612 13.3827C7.12637 13.504 7.20003 13.6143 7.29289 13.7071C7.38575 13.8 7.49599 13.8736 7.61731 13.9239C7.73864 13.9741 7.86868 14 8 14C8.13132 14 8.26136 13.9741 8.38269 13.9239C8.50401 13.8736 8.61425 13.8 8.70711 13.7071C8.79997 13.6143 8.87363 13.504 8.92388 13.3827C8.97414 13.2614 9 13.1313 9 13V12H8H7Z" fill="url(#paint0_linear_10_9955)"/>
<defs>
<linearGradient id="paint0_linear_10_9955" x1="5" y1="8" x2="11" y2="8" gradientUnits="userSpaceOnUse">
<stop stop-color="#FDFC47"/>
<stop offset="1" stop-color="#24FE41"/>
</linearGradient>
</defs>
</svg>
