<svg width="16" height="16" viewBox="0 0 16 16" fill="none" xmlns="http://www.w3.org/2000/svg">
<path d="M7 2C5.89543 2 5 2.89543 5 4V5V6V7H3V8H5V9V11V14H6V9V8H8V7H6V5V4C6 3.44772 6.44772 3 7 3H8H9V2H8H7ZM9.46484 9.75781L8.75781 10.4648L10.1719 11.8789L8.75781 13.293L9.46484 14L10.8789 12.5859L12.293 14L13 13.293L11.5859 11.8789L13 10.4648L12.293 9.75781L10.8789 11.1719L9.46484 9.75781Z" fill="url(#paint0_linear_10_9976)"/>
<defs>
<linearGradient id="paint0_linear_10_9976" x1="3" y1="8" x2="13" y2="8" gradientUnits="userSpaceOnUse">
<stop stop-color="#FDFC47"/>
<stop offset="1" stop-color="#24FE41"/>
</linearGradient>
</defs>
</svg>
