<svg width="16" height="16" viewBox="0 0 16 16" fill="none" xmlns="http://www.w3.org/2000/svg">
<path d="M2 3V6V7V9V12V13H6V12H3V11V9V7V6V4H13V6H14V3H13H3H2ZM10 6C7.79086 6 6 7.79087 6 10C6 12.2091 7.79086 14 10 14C12.2091 14 14 12.2091 14 10C14 7.79087 12.2091 6 10 6ZM10 6.66602C10.1151 6.66602 10.2219 6.67617 10.334 6.6875H10.416C10.4511 6.69417 10.4868 6.7017 10.5215 6.70703C10.6173 6.72236 10.6982 6.74815 10.791 6.77148C10.9621 6.81348 11.1315 6.86997 11.291 6.9375C11.379 6.97483 11.4571 7.0181 11.541 7.0625C11.541 7.06917 11.5415 7.0747 11.541 7.08203C11.5603 7.0907 11.5709 7.12848 11.6035 7.14648C11.6155 7.15315 11.6137 7.16002 11.625 7.16602C11.6443 7.17668 11.67 7.18836 11.666 7.20703C11.6607 7.2337 11.6222 7.22805 11.6035 7.24805C11.6062 7.28671 11.5725 7.2865 11.5625 7.3125C11.5685 7.32917 11.6008 7.33418 11.6035 7.35352C11.6002 7.37485 11.5545 7.3732 11.5625 7.39453C11.5985 7.42253 11.632 7.4012 11.666 7.39453C11.7407 7.3852 11.8075 7.38818 11.8535 7.35352C11.8475 7.31818 11.92 7.32302 11.916 7.29102C11.9351 7.30502 11.9596 7.31803 11.9785 7.33203C11.9713 7.3387 11.967 7.34823 11.959 7.35156C11.945 7.35823 11.9287 7.36505 11.916 7.37305C11.8973 7.38505 11.8748 7.40073 11.8535 7.41406C11.8382 7.42473 11.807 7.47656 11.791 7.47656C11.7717 7.47656 11.7425 7.45303 11.7285 7.45703C11.7085 7.4637 11.7101 7.49071 11.6875 7.49805C11.6435 7.51405 11.5563 7.47373 11.541 7.53906C11.5597 7.57706 11.6327 7.55941 11.666 7.58008C11.6867 7.59341 11.7232 7.6414 11.7285 7.66406C11.7338 7.68273 11.7365 7.76906 11.7285 7.78906C11.7078 7.8424 11.6453 7.83074 11.584 7.83008H11.541C11.4377 7.82341 11.3377 7.77756 11.291 7.85156C11.2943 7.90823 11.3037 7.94676 11.291 7.99609C11.2817 8.03209 11.2265 8.0705 11.2285 8.10156C11.2292 8.11756 11.2675 8.1414 11.2715 8.16406C11.2742 8.17606 11.2662 8.19374 11.2715 8.20508C11.2888 8.23774 11.3228 8.19841 11.3535 8.20508C11.3828 8.21174 11.416 8.25444 11.416 8.28711C11.416 8.31044 11.4113 8.34843 11.3965 8.37109C11.3672 8.41509 11.3135 8.40959 11.2715 8.43359C11.2368 8.45359 11.2297 8.50466 11.209 8.53906C11.187 8.5764 11.1573 8.58904 11.166 8.64258C11.136 8.70191 11.103 8.73891 11.041 8.76758C11.023 8.77558 10.9951 8.77511 10.9785 8.78711C10.9652 8.79644 10.9562 8.83023 10.9375 8.85156C10.9142 8.87756 10.8877 8.89406 10.875 8.91406C10.8657 8.9294 10.8634 8.95523 10.8535 8.97656C10.8388 9.00456 10.8096 9.01106 10.791 9.03906C10.7823 9.0524 10.7808 9.08423 10.7715 9.10156C10.7502 9.14023 10.7245 9.17108 10.7285 9.20508C10.7318 9.23708 10.7695 9.23824 10.7715 9.26758C10.7735 9.28358 10.7493 9.29126 10.75 9.30859C10.7507 9.33393 10.7696 9.35305 10.7715 9.37305C10.7762 9.42238 10.7378 9.44283 10.7285 9.47656C10.7238 9.49256 10.7325 9.50491 10.7285 9.51758C10.7205 9.54224 10.6882 9.57223 10.6875 9.60156C10.6868 9.62223 10.7265 9.63473 10.7285 9.66406C10.7298 9.6834 10.705 9.7079 10.709 9.72656C10.7163 9.76256 10.7845 9.80208 10.8125 9.83008C10.8505 9.86808 10.8994 9.89535 10.916 9.93555C10.93 9.96955 10.933 10.0351 10.959 10.0605C10.9783 10.0792 11.0163 10.0822 11.041 10.1016C11.0643 10.1196 11.0789 10.1232 11.1035 10.1426C11.1442 10.1746 11.2068 10.2508 11.2715 10.2461C11.3055 10.2394 11.337 10.2111 11.375 10.2051C11.4143 10.1984 11.46 10.1803 11.5 10.1836C11.5307 10.1903 11.5715 10.2071 11.6035 10.2051C11.6368 10.1984 11.671 10.1976 11.709 10.1836C11.775 10.1549 11.8825 10.1074 11.9785 10.1211C12.0518 10.1318 12.0522 10.2134 12.1035 10.2461C12.1622 10.2528 12.2033 10.2348 12.25 10.2461C12.2853 10.2548 12.3307 10.3021 12.334 10.3301C12.3373 10.3587 12.295 10.3961 12.291 10.4141C12.2817 10.4527 12.2977 10.4929 12.291 10.5176C12.2857 10.5369 12.2708 10.5607 12.2715 10.5801C12.2715 10.5974 12.2945 10.6414 12.3125 10.6641C12.3345 10.6921 12.3698 10.7161 12.3965 10.7461C12.4452 10.8021 12.466 10.8596 12.5 10.9336C12.5087 10.9523 12.492 10.974 12.5 10.998C12.4853 11.11 12.4483 11.1866 12.375 11.3105C12.3403 11.3505 12.2903 11.3856 12.291 11.4355C12.2883 11.5555 12.3589 11.632 12.3535 11.748C12.3415 11.904 12.3655 11.9148 12.3535 11.998C12.4062 12.0247 12.3688 12.1087 12.3535 12.1641C12.3308 12.2301 12.3037 12.2451 12.291 12.2891C12.3264 12.3044 12.3767 12.2984 12.416 12.2891C12.3961 12.3097 12.3738 12.3309 12.3535 12.3516C12.2027 12.5024 12.0308 12.6477 11.8535 12.7676C11.5095 13 11.1281 13.1765 10.709 13.2676C10.48 13.3176 10.2439 13.3301 10 13.3301C9.87311 13.3301 9.74791 13.3245 9.625 13.3105C9.52709 13.2992 9.42912 13.2889 9.33398 13.2695C9.1452 13.2309 8.9667 13.1511 8.79102 13.082C8.78502 13.0707 8.77002 13.0524 8.77148 13.0391C8.80615 13.0244 8.87116 13.0884 8.89648 13.0391C8.90915 13.0157 8.87982 12.9589 8.89648 12.9355C8.90848 12.9195 8.97534 12.9207 9 12.916C9.03533 12.9093 9.08547 12.9039 9.10547 12.8945C9.12747 12.8805 9.15048 12.8319 9.14648 12.791C9.14448 12.7717 9.12074 12.7654 9.10547 12.748C9.0928 12.7334 9.11414 12.7204 9.10547 12.707C9.08947 12.6837 9.04957 12.6785 9.04297 12.6445C9.09097 12.6352 9.16114 12.6853 9.23047 12.666C9.26314 12.6567 9.31865 12.5932 9.33398 12.5625C9.33865 12.5532 9.32865 12.5315 9.33398 12.5195C9.33998 12.5075 9.35347 12.4845 9.35547 12.4785C9.36014 12.4605 9.35147 12.471 9.35547 12.459C9.36747 12.425 9.39602 12.399 9.41602 12.375C9.43135 12.3563 9.46452 12.3318 9.47852 12.3125C9.49452 12.2918 9.4894 12.2902 9.5 12.2715C9.51 12.2108 9.46385 12.1568 9.47852 12.1035C9.49452 12.0435 9.58849 12.0058 9.64648 11.9785C9.66648 11.9692 9.69238 11.965 9.70898 11.959C9.74898 11.945 9.79665 11.9306 9.83398 11.918C9.89665 11.8953 9.90683 11.8502 9.9375 11.793C9.95217 11.7663 9.97585 11.7283 9.97852 11.709C9.98118 11.6917 9.97518 11.688 9.97852 11.668C9.98185 11.6486 9.97318 11.6281 9.97852 11.6055C9.98585 11.5768 10 11.5124 10 11.4805C10 11.4538 9.97912 11.442 9.97852 11.418C9.97385 11.3313 10.0091 11.3403 10.041 11.293C10.057 11.2696 10.0727 11.2257 10.084 11.209C10.138 11.129 10.2352 11.1018 10.2285 10.9805C10.2258 10.9405 10.1953 10.8467 10.166 10.834C10.1493 10.8267 10.1281 10.8212 10.1035 10.8125C10.0249 10.7832 9.95699 10.6942 9.875 10.6875H9.83398C9.80198 10.6875 9.76451 10.6726 9.72852 10.668C9.70585 10.6613 9.65982 10.6746 9.64648 10.668C9.62582 10.658 9.62018 10.6168 9.60352 10.6055C9.59018 10.5961 9.56162 10.5913 9.54102 10.584C9.50835 10.572 9.49698 10.545 9.45898 10.543C9.44698 10.543 9.42935 10.5496 9.41602 10.543C9.39535 10.5363 9.37474 10.5335 9.35547 10.5215C9.33147 10.5068 9.3029 10.5011 9.29297 10.4805C9.31497 10.4085 9.24507 10.3975 9.23047 10.3555C9.2238 10.3361 9.23714 10.2908 9.23047 10.2734C9.2218 10.2488 9.19524 10.2297 9.16797 10.209C9.11997 10.1717 9.09014 10.1552 9.02148 10.1465C8.99082 10.1398 8.95463 10.1532 8.91797 10.1465C8.8793 10.1398 8.8223 10.1173 8.79297 10.084C8.76497 10.0513 8.75507 10.0174 8.73047 10.002C8.70714 9.98729 8.68397 9.97365 8.66797 9.95898C8.66064 9.95232 8.65315 9.95345 8.64648 9.93945C8.63448 9.91479 8.61033 9.90695 8.625 9.87695C8.59833 9.86362 8.61265 9.90115 8.58398 9.89648C8.55798 9.85982 8.5391 9.82345 8.48047 9.83398C8.4538 9.84065 8.42782 9.89582 8.39648 9.89648C8.37048 9.89648 8.3465 9.83932 8.3125 9.83398C8.2865 9.82732 8.24847 9.8588 8.23047 9.85547C8.2018 9.8488 8.1939 9.83179 8.16797 9.81445C8.14864 9.80179 8.11614 9.77277 8.10547 9.77344C8.07214 9.77344 8.04597 9.83912 8 9.81445C7.97733 9.78579 8.04822 9.77862 8.02148 9.75195C8.00148 9.73262 7.99647 9.76215 7.98047 9.77148C7.9618 9.78348 7.93857 9.78564 7.91797 9.79297C7.87197 9.8103 7.82896 9.81532 7.79297 9.83398C7.75964 9.85132 7.74974 9.86248 7.73047 9.89648C7.71514 9.92448 7.69124 9.97914 7.66797 9.98047C7.63997 9.98047 7.6308 9.95079 7.60547 9.93945C7.52881 9.90612 7.4813 9.95765 7.41797 9.95898C7.3593 9.95898 7.26882 9.86783 7.27148 9.8125C7.27348 9.7785 7.28904 9.7295 7.29297 9.6875C7.2963 9.65417 7.33338 9.61438 7.33398 9.58398C7.33465 9.54265 7.25714 9.52615 7.23047 9.52148C7.1678 9.51015 7.09281 9.54948 7.02148 9.52148C7.00815 9.49882 7.03504 9.48165 7.04297 9.45898C7.04764 9.44698 7.0383 9.4313 7.04297 9.41797C7.05097 9.39664 7.09554 9.37814 7.10547 9.35547C7.1128 9.33814 7.09814 9.31497 7.10547 9.29297C7.11414 9.26897 7.14448 9.2478 7.14648 9.23047C7.14915 9.2078 7.1234 9.18068 7.10547 9.16602C7.05014 9.17268 7.01247 9.1735 6.98047 9.1875C6.90848 9.22017 6.92814 9.31132 6.85547 9.33398C6.8308 9.34198 6.79948 9.34885 6.77148 9.35352C6.75928 9.36018 6.74414 9.35352 6.73047 9.35352C6.7318 9.34685 6.72914 9.34065 6.73047 9.33398C6.7338 9.31865 6.74673 9.30764 6.75 9.29297C6.79753 9.0763 6.87158 8.86657 6.95898 8.66797H6.98047C7.0058 8.67464 7.02097 8.70765 7.04297 8.70898C7.1043 8.71565 7.1173 8.65167 7.16797 8.625C7.21997 8.63233 7.24564 8.61833 7.29297 8.625C7.32497 8.63167 7.37116 8.66335 7.39648 8.66602C7.41782 8.66602 7.4175 8.64382 7.4375 8.64648C7.4575 8.65315 7.49673 8.68498 7.5 8.70898C7.50333 8.73898 7.47174 8.77943 7.48047 8.8125C7.5118 8.8445 7.58033 8.85633 7.625 8.875C7.65433 8.85033 7.62967 8.80615 7.625 8.77148C7.62433 8.75615 7.627 8.72298 7.625 8.70898C7.62167 8.68498 7.60547 8.66715 7.60547 8.64648C7.60547 8.55115 7.68601 8.51578 7.75 8.47852C7.77733 8.46252 7.80998 8.42802 7.83398 8.41602C7.86798 8.39935 7.88997 8.41048 7.91797 8.39648C7.96864 8.36782 8.00364 8.32348 8.04297 8.29102C8.06097 8.24768 8.04097 8.18915 8.04297 8.14648C8.06097 8.13515 8.0862 8.14648 8.10547 8.14648C8.13614 8.13982 8.15064 8.10132 8.16797 8.08398C8.17797 8.07398 8.19698 8.0725 8.20898 8.0625C8.23965 8.0385 8.24482 8.01067 8.27148 8C8.28082 7.99333 8.29783 7.98318 8.3125 7.97852C8.3325 7.97185 8.36448 7.97098 8.39648 7.95898C8.41715 7.95165 8.47247 7.94617 8.48047 7.9375C8.49047 7.9275 8.4778 7.89033 8.48047 7.875C8.49647 7.79973 8.60064 7.79688 8.66797 7.77148C8.71464 7.75415 8.7605 7.69978 8.8125 7.70898C8.8025 7.74498 8.76282 7.74768 8.77148 7.79102C8.78282 7.85168 8.85367 7.78015 8.875 7.77148C8.91567 7.75415 8.98964 7.72898 9.04297 7.70898C9.08964 7.69232 9.16899 7.679 9.125 7.625C9.08833 7.61833 9.07497 7.65335 9.04297 7.66602C9.02097 7.67268 9.01867 7.64848 9 7.64648C8.982 7.64648 8.97698 7.66935 8.95898 7.66602C8.94098 7.65935 8.92064 7.62552 8.91797 7.60352C8.91064 7.54752 8.95787 7.54153 8.98047 7.5C8.96514 7.44933 8.89813 7.47832 8.85547 7.45898C8.86014 7.42898 8.8827 7.4012 8.91797 7.39453C8.94664 7.38786 9.02564 7.40202 9.04297 7.41602C9.05297 7.42468 9.0277 7.4437 9.04297 7.45703C9.0603 7.47236 9.08287 7.4637 9.10547 7.45703C9.11347 7.41903 9.05583 7.44068 9.0625 7.41602C9.10783 7.38668 9.19467 7.40186 9.25 7.39453C9.282 7.38786 9.3268 7.36885 9.35547 7.35352C9.38214 7.33818 9.38997 7.30865 9.41797 7.33398C9.42597 7.36132 9.41195 7.38182 9.39648 7.39648C9.34515 7.44182 9.28999 7.48842 9.25 7.54102C9.27467 7.56502 9.3141 7.55783 9.35547 7.5625C9.37147 7.56917 9.40137 7.5625 9.41797 7.5625C9.43797 7.56917 9.46252 7.55583 9.47852 7.5625C9.50652 7.56917 9.51308 7.625 9.54102 7.625C9.58635 7.625 9.56702 7.57102 9.54102 7.54102C9.54902 7.50968 9.5739 7.48098 9.5625 7.45898C9.54183 7.41765 9.46298 7.4713 9.45898 7.41797C9.45632 7.38464 9.488 7.3808 9.5 7.35547C9.49467 7.29147 9.54768 7.28847 9.54102 7.23047C9.53768 7.20647 9.51667 7.21017 9.5 7.1875C9.49133 7.1755 9.48845 7.13433 9.47852 7.125C9.44385 7.09567 9.379 7.1185 9.375 7.0625C9.373 7.02917 9.37967 6.99472 9.375 6.95898C9.37033 6.92498 9.34177 6.81917 9.3125 6.8125C9.27517 6.8045 9.25368 6.87582 9.20898 6.89648C9.18498 6.90782 9.12818 6.92002 9.10352 6.91602C9.08752 6.90935 9.0645 6.90633 9.0625 6.875C9.05983 6.847 9.09312 6.8345 9.10352 6.8125C9.10618 6.80583 9.10218 6.8003 9.10352 6.79297C9.15192 6.77964 9.20081 6.76133 9.25 6.75C9.27793 6.74333 9.30578 6.7358 9.33398 6.73047C9.35392 6.7238 9.37648 6.73714 9.39648 6.73047C9.48552 6.7138 9.57465 6.69812 9.66602 6.68945C9.77684 6.67812 9.88593 6.66797 10 6.66797V6.66602ZM8.64648 6.97852C8.62528 7.10018 8.51067 7.14995 8.375 7.14648C8.34433 7.17582 8.37032 7.23082 8.35352 7.27148C8.33952 7.30548 8.28399 7.33665 8.25 7.33398C8.22533 7.33398 8.1875 7.29482 8.1875 7.27148C8.1875 7.24282 8.23372 7.24165 8.20898 7.20898C8.21032 7.20232 8.22158 7.19417 8.22852 7.1875C8.24198 7.17883 8.25788 7.17402 8.27148 7.16602C8.39228 7.09168 8.51612 7.03718 8.64648 6.97852ZM11.4375 7.10352C11.4252 7.11018 11.4268 7.11833 11.416 7.125C11.3907 7.14033 11.3728 7.15935 11.3535 7.16602C11.3262 7.17602 11.2949 7.18236 11.291 7.20703C11.2877 7.2277 11.3132 7.22938 11.3125 7.24805C11.3025 7.27271 11.2963 7.2825 11.291 7.3125C11.325 7.36783 11.3955 7.29968 11.4375 7.29102C11.4562 7.28435 11.4685 7.28353 11.4785 7.26953C11.4898 7.25153 11.4914 7.23236 11.5 7.20703C11.5093 7.17903 11.5443 7.1692 11.541 7.14453C11.5383 7.11986 11.4788 7.10018 11.4375 7.10352ZM7.79102 7.52148C7.82262 7.54682 7.86774 7.60127 7.8125 7.625C7.80583 7.63167 7.72498 7.64915 7.70898 7.64648C7.70232 7.64648 7.6931 7.62967 7.6875 7.625C7.72197 7.59167 7.75516 7.55348 7.79102 7.52148ZM7.91602 7.64648C7.93202 7.64648 7.94032 7.68683 7.95898 7.6875C7.97698 7.6875 7.98933 7.66335 8 7.66602C8.028 7.67335 8.04822 7.72933 8.02148 7.75C7.99948 7.75667 7.99452 7.72585 7.97852 7.72852C7.93318 7.73652 7.909 7.83665 7.875 7.83398C7.843 7.82732 7.82078 7.75185 7.85352 7.72852C7.85418 7.70852 7.85218 7.70817 7.85352 7.6875C7.86352 7.6755 7.88935 7.64448 7.91602 7.64648ZM7.75 7.66602C7.75933 7.66602 7.76822 7.65935 7.77148 7.66602C7.76682 7.70135 7.75585 7.71185 7.72852 7.72852C7.68118 7.75718 7.64033 7.79252 7.625 7.85352C7.62033 7.87152 7.56368 7.92028 7.54102 7.91602C7.48835 7.90468 7.57198 7.80628 7.58398 7.79102C7.59732 7.77435 7.60967 7.76867 7.625 7.75C7.64033 7.73133 7.65135 7.69817 7.66602 7.6875C7.68202 7.67617 7.722 7.66664 7.75 7.66797V7.66602ZM12.2715 7.77148C12.3242 7.76482 12.351 7.82152 12.375 7.85352C12.395 7.87952 12.4458 7.9195 12.4785 7.9375C12.4972 7.9475 12.5203 7.96985 12.541 7.97852C12.5843 7.99785 12.664 8.06085 12.666 8.10352C12.6667 8.12485 12.6431 8.14602 12.6465 8.16602C12.6792 8.17268 12.7083 8.11665 12.709 8.08398C12.7703 8.17065 12.8221 8.26112 12.875 8.35352C12.9 8.39685 12.9359 8.43352 12.959 8.47852C12.9296 8.48718 12.9207 8.49153 12.916 8.51953C12.9093 8.55686 12.931 8.6184 12.875 8.625C12.8397 8.63167 12.7987 8.59532 12.75 8.58398C12.73 8.57732 12.7035 8.59065 12.6875 8.58398C12.6508 8.57198 12.6563 8.522 12.625 8.5C12.607 8.48733 12.5502 8.46165 12.5215 8.45898C12.5035 8.45898 12.4972 8.46565 12.4785 8.45898C12.4558 8.45232 12.4152 8.46832 12.3965 8.45898C12.3785 8.44765 12.3387 8.41182 12.334 8.39648C12.3267 8.37182 12.3952 8.35532 12.3965 8.33398C12.3978 8.31798 12.3783 8.2942 12.375 8.26953C12.3723 8.25486 12.3783 8.23852 12.375 8.22852C12.3703 8.21118 12.3398 8.20965 12.3125 8.20898H12.25H12.125H12.0625C12.0045 8.21565 11.9613 8.20232 11.916 8.20898C11.8833 8.20898 11.8217 8.23667 11.791 8.25C11.7757 8.25733 11.77 8.25953 11.75 8.26953C11.7407 8.2762 11.721 8.28568 11.709 8.29102C11.6903 8.29968 11.6644 8.3267 11.6465 8.33203C11.6205 8.3387 11.5883 8.32536 11.541 8.33203C11.507 8.33203 11.4597 8.3102 11.459 8.26953C11.4583 8.20753 11.5663 8.23985 11.625 8.22852C11.647 8.22185 11.6608 8.2035 11.6875 8.1875C11.7002 8.18017 11.6971 8.17402 11.709 8.16602C11.729 8.15202 11.7682 8.11952 11.7715 8.10352C11.7742 8.08885 11.7695 8.07383 11.7715 8.0625C11.7742 8.0485 11.7945 8.04015 11.8125 8.02148C11.8405 7.99348 11.8618 7.9555 11.8965 7.9375C11.9198 7.9255 11.9483 7.91515 11.959 7.89648C11.9617 7.87515 11.9583 7.87547 11.959 7.85547C11.9737 7.84214 11.988 7.83665 12 7.83398C12.036 7.82598 12.0615 7.83398 12.1035 7.83398C12.1215 7.83398 12.1467 7.84265 12.166 7.83398C12.182 7.82332 12.193 7.8003 12.209 7.79297C12.2263 7.78364 12.2502 7.77282 12.2715 7.77148ZM12.6465 8.16602H12.5625C12.5332 8.16602 12.4958 8.15068 12.4785 8.16602C12.5032 8.20602 12.5482 8.21852 12.6035 8.22852C12.6235 8.21385 12.6372 8.19202 12.6465 8.16602ZM8.08398 7.79102H8.14648C8.16315 7.79102 8.18083 7.78435 8.1875 7.79102C8.17683 7.83502 8.07568 7.8285 8.04102 7.8125C8.04302 7.79583 8.06265 7.79368 8.08398 7.79102ZM7.9375 7.875C7.90837 7.89633 7.88022 7.92283 7.83398 7.9375C7.80865 7.9455 7.77615 7.94402 7.77148 7.91602C7.76615 7.88135 7.81132 7.89982 7.83398 7.89648C7.86332 7.88982 7.9035 7.87633 7.9375 7.875ZM12.2715 7.875C12.2495 7.88233 12.2388 7.93083 12.2715 7.9375C12.2868 7.92817 12.2951 7.90367 12.291 7.875C12.2823 7.86567 12.2781 7.86833 12.2715 7.875ZM12.2285 7.97852C12.2292 8.01585 12.2358 8.05158 12.2285 8.08398C12.2498 8.12532 12.3018 8.0905 12.3125 8.0625C12.3252 7.99317 12.3035 7.96985 12.2715 7.97852C12.2608 7.98518 12.2398 7.96985 12.2285 7.97852ZM6.70898 9.54102C6.74658 9.57502 6.76753 9.62422 6.8125 9.64648C6.82917 9.65515 6.85373 9.66068 6.875 9.66602C6.89233 9.67268 6.89935 9.65935 6.91602 9.66602C6.95135 9.67802 6.99349 9.69436 7.02148 9.70703C7.06415 9.7257 7.10982 9.79117 7.14648 9.8125C7.14848 9.83383 7.13982 9.859 7.14648 9.875C7.16382 9.89833 7.18098 9.9215 7.20898 9.9375C7.24298 9.95617 7.25902 9.98533 7.29102 10C7.30235 10.0067 7.31665 9.99333 7.33398 10C7.37798 10.0133 7.39947 10.0736 7.4375 10.0625C7.46217 10.0552 7.45505 10.024 7.45898 10C7.47565 9.982 7.49548 9.95898 7.52148 9.95898C7.56282 9.95898 7.56865 10.0223 7.58398 10.0625C7.59265 10.0852 7.619 10.101 7.625 10.125C7.635 10.1663 7.63367 10.2878 7.625 10.3125C7.61433 10.3432 7.56635 10.341 7.54102 10.375C7.52902 10.391 7.53075 10.4262 7.52148 10.4375C7.50548 10.4568 7.49052 10.4625 7.47852 10.4805C7.47185 10.4905 7.46492 10.5082 7.45898 10.5215C7.43898 10.5642 7.39935 10.5952 7.41602 10.6465C7.42268 10.6672 7.45898 10.6843 7.45898 10.709C7.45898 10.7383 7.40115 10.761 7.39648 10.793C7.39315 10.8163 7.40875 10.8437 7.41602 10.875C7.42135 10.8983 7.46452 10.9222 7.47852 10.9375C7.50185 10.9635 7.51975 11.01 7.54102 11.043C7.58302 11.1076 7.60518 11.1867 7.64648 11.25C7.66848 11.2827 7.71385 11.2993 7.72852 11.334C7.73585 11.3513 7.72185 11.3805 7.72852 11.3965C7.75252 11.4505 7.86202 11.5164 7.91602 11.543C7.94135 11.5556 7.97667 11.5492 8 11.5625C8.03533 11.5825 8.10701 11.6369 8.125 11.668C8.141 11.696 8.13855 11.7679 8.14648 11.8125C8.15648 11.8712 8.14382 11.9171 8.14648 11.9805C8.14848 12.0151 8.16602 12.0278 8.16602 12.0625C8.16602 12.0745 8.16668 12.1123 8.16602 12.125C8.16535 12.1663 8.16935 12.208 8.16602 12.25C8.16402 12.2727 8.16468 12.2932 8.16602 12.3125C8.16802 12.3332 8.18623 12.3375 8.1875 12.3555C8.18883 12.3748 8.16395 12.4026 8.16602 12.418C8.17068 12.46 8.20098 12.4826 8.20898 12.5215C8.21565 12.5522 8.23252 12.6313 8.22852 12.668C8.22585 12.6873 8.21165 12.7085 8.20898 12.7305C8.20698 12.7478 8.21165 12.7562 8.20898 12.7715C8.20698 12.7868 8.21298 12.7998 8.20898 12.8125C8.18772 12.7992 8.16735 12.7855 8.14648 12.7715C7.96915 12.6516 7.79729 12.5063 7.64648 12.3555C7.62608 12.3348 7.60385 12.3123 7.58398 12.291C7.4636 12.1643 7.34943 12.0195 7.25 11.875C7.241 11.8617 7.23732 11.8467 7.22852 11.834C7.11315 11.6611 7.01937 11.4866 6.9375 11.293C6.9315 11.279 6.92168 11.264 6.91602 11.25C6.84576 11.0773 6.79071 10.8947 6.75 10.709C6.74233 10.6737 6.73505 10.6409 6.72852 10.6055C6.71198 10.5164 6.69677 10.4254 6.6875 10.334C6.6761 10.221 6.66602 10.1151 6.66602 10C6.66602 9.8416 6.68758 9.69355 6.70898 9.54102Z" fill="url(#paint0_linear_10_9983)"/>
<defs>
<linearGradient id="paint0_linear_10_9983" x1="2" y1="8.5" x2="14" y2="8.5" gradientUnits="userSpaceOnUse">
<stop stop-color="#FDFC47"/>
<stop offset="1" stop-color="#24FE41"/>
</linearGradient>
</defs>
</svg>
