<svg width="16" height="16" viewBox="0 0 16 16" fill="none" xmlns="http://www.w3.org/2000/svg">
<path d="M3 2L2 3V4V4.3125L6 9.96875V10V12L7 12.5V11V10V9.625L3 4V3H7.25H9H13V4L10.875 7H12.0938L14 4.3125V3L13 2H9H7.25H3Z" fill="url(#paint0_linear_10_9965)"/>
<path d="M8.99023 8L8 8.99023L10.0098 11L8 13.0098L8.99023 14L11 11.9902L13.0098 14L14 13.0098L11.9902 11L14 8.99023L13.0098 8L11 10.0098L8.99023 8Z" fill="url(#paint1_linear_10_9965)"/>
<defs>
<linearGradient id="paint0_linear_10_9965" x1="2" y1="7.25" x2="14" y2="7.25" gradientUnits="userSpaceOnUse">
<stop stop-color="#FDFC47"/>
<stop offset="1" stop-color="#24FE41"/>
</linearGradient>
<linearGradient id="paint1_linear_10_9965" x1="8" y1="8" x2="11.2165" y2="15.2371" gradientUnits="userSpaceOnUse">
<stop stop-color="#FF0500"/>
<stop offset="1" stop-color="#FD3632"/>
</linearGradient>
</defs>
</svg>
