<svg width="16" height="16" viewBox="0 0 16 16" fill="none" xmlns="http://www.w3.org/2000/svg">
<path d="M4 2V3H3V4H4V6H3V7H4V8H5V7H7V8H8V7H9V6H8V4H9V3H8V2H7V3H5V2H4ZM10 2V3H12V7H13V2H10ZM5 4H7V6H5V4ZM9 8V9H8V10H9V12H8V13H9V14H10V13H12V14H13V13H14V12H13V10H14V9H13V8H12V9H10V8H9ZM3 9V14H7V13H4V9H3ZM10 10H12V12H10V10Z" fill="url(#paint0_linear_10_9987)"/>
<defs>
<linearGradient id="paint0_linear_10_9987" x1="3" y1="8" x2="14" y2="8" gradientUnits="userSpaceOnUse">
<stop stop-color="#FDFC47"/>
<stop offset="1" stop-color="#24FE41"/>
</linearGradient>
</defs>
</svg>
