<svg width="16" height="16" viewBox="0 0 16 16" fill="none" xmlns="http://www.w3.org/2000/svg">
<path d="M0 2V14H1H10L15.293 8.70703L16 8L15.293 7.29297L10 2H1H0ZM4 4H5V5H4C3.44778 5 3 5.44771 3 6V7C3 7.38251 2.86072 7.73504 2.625 8C2.86072 8.26497 3 8.6175 3 9V10C3 10.5522 3.44771 11 4 11H5V12H4C2.89549 12 2 11.1045 2 10V9C2 8.72385 1.77614 8.5 1.5 8.5H1V7.5H1.5C1.77614 7.5 2 7.27616 2 7V6C2 4.89549 2.89548 4 4 4ZM6 4H7C8.10452 4 9 4.89549 9 6V7C9 7.27616 9.22386 7.5 9.5 7.5H10V8.5H9.5C9.22386 8.5 9 8.72385 9 9V10C9 11.1045 8.10451 12 7 12H6V11H7C7.55229 11 8 10.5522 8 10V9C8 8.6175 8.13928 8.26497 8.375 8C8.13928 7.73504 8 7.38251 8 7V6C8 5.44771 7.55222 5 7 5H6V4Z" fill="url(#paint0_linear_10_10011)"/>
<defs>
<linearGradient id="paint0_linear_10_10011" x1="0" y1="8" x2="16" y2="8" gradientUnits="userSpaceOnUse">
<stop stop-color="#FDFC47"/>
<stop offset="1" stop-color="#24FE41"/>
</linearGradient>
</defs>
</svg>
