<svg width="16" height="16" viewBox="0 0 16 16" fill="none" xmlns="http://www.w3.org/2000/svg">
<path d="M6 2L0.707031 7.29297L0 8L0.707031 8.70703L6 14H15H16V2H15H6ZM9 4H10V5H9C8.44778 5 8 5.44771 8 6V7C8 7.38251 7.86072 7.73504 7.625 8C7.86072 8.26497 8 8.6175 8 9V10C8 10.5522 8.44771 11 9 11H10V12H9C7.89549 12 7 11.1045 7 10V9C7 8.72385 6.77614 8.5 6.5 8.5H6V7.5H6.5C6.77614 7.5 7 7.27616 7 7V6C7 4.89549 7.89548 4 9 4ZM11 4H12C13.1045 4 14 4.89549 14 6V7C14 7.27616 14.2239 7.5 14.5 7.5H15V8.5H14.5C14.2239 8.5 14 8.72385 14 9V10C14 11.1045 13.1045 12 12 12H11V11H12C12.5523 11 13 10.5522 13 10V9C13 8.6175 13.1393 8.26497 13.375 8C13.1393 7.73504 13 7.38251 13 7V6C13 5.44771 12.5522 5 12 5H11V4Z" fill="url(#paint0_linear_10_10024)"/>
<defs>
<linearGradient id="paint0_linear_10_10024" x1="0" y1="8" x2="16" y2="8" gradientUnits="userSpaceOnUse">
<stop stop-color="#FDFC47"/>
<stop offset="1" stop-color="#24FE41"/>
</linearGradient>
</defs>
</svg>
