<svg width="16" height="16" viewBox="0 0 16 16" fill="none" xmlns="http://www.w3.org/2000/svg">
<path d="M3 2V3H2V4H3V6H2V7H3V9H2V10H3V12H2V13H3V14H4V13H6V14H7V13H9V14H10V13H12V14H13V13H14V12H13V10H14V9H13V7H14V6H13V4H14V3H13V2H12V3H10V2H9V3H7V2H6V3H4V2H3ZM4 4H6V6H4V4ZM7 4H9V6H7V4ZM10 4H12V6H10V4ZM4 7H6V9H4V7ZM7 7H9V9H7V7ZM10 7H12V9H10V7ZM4 10H6V12H4V10ZM7 10H9V12H7V10ZM10 10H12V12H10V10Z" fill="url(#paint0_linear_10_10044)"/>
<defs>
<linearGradient id="paint0_linear_10_10044" x1="2" y1="8" x2="14" y2="8" gradientUnits="userSpaceOnUse">
<stop stop-color="#FDFC47"/>
<stop offset="1" stop-color="#24FE41"/>
</linearGradient>
</defs>
</svg>
