<svg width="16" height="16" viewBox="0 0 16 16" fill="none" xmlns="http://www.w3.org/2000/svg">
<path d="M6.39008 3L2.00708 14H3.36408L4.55308 11H9.48108L10.6331 14H12.0061L7.75408 3H6.39008ZM7.07008 4.328C7.18308 4.704 7.78108 6.41 8.86708 9.443L9.09208 10H4.94908L7.07008 4.328Z" fill="url(#paint0_linear_10_10050)"/>
<path fill-rule="evenodd" clip-rule="evenodd" d="M13 2C12.7348 2 12.4804 2.10536 12.2929 2.29289C12.1054 2.48043 12 2.73478 12 3C12 3.26522 12.1054 3.51957 12.2929 3.70711C12.4804 3.89464 12.7348 4 13 4C13.2652 4 13.5196 3.89464 13.7071 3.70711C13.8946 3.51957 14 3.26522 14 3C14 2.73478 13.8946 2.48043 13.7071 2.29289C13.5196 2.10536 13.2652 2 13 2ZM13 5C12.7348 5 12.4804 5.10536 12.2929 5.29289C12.1054 5.48043 12 5.73478 12 6C12 6.26522 12.1054 6.51957 12.2929 6.70711C12.4804 6.89464 12.7348 7 13 7C13.2652 7 13.5196 6.89464 13.7071 6.70711C13.8946 6.51957 14 6.26522 14 6C14 5.73478 13.8946 5.48043 13.7071 5.29289C13.5196 5.10536 13.2652 5 13 5ZM13 8C12.7348 8 12.4804 8.10536 12.2929 8.29289C12.1054 8.48043 12 8.73478 12 9C12 9.26522 12.1054 9.51957 12.2929 9.70711C12.4804 9.89464 12.7348 10 13 10C13.2652 10 13.5196 9.89464 13.7071 9.70711C13.8946 9.51957 14 9.26522 14 9C14 8.73478 13.8946 8.48043 13.7071 8.29289C13.5196 8.10536 13.2652 8 13 8Z" fill="url(#paint1_linear_10_10050)"/>
<defs>
<linearGradient id="paint0_linear_10_10050" x1="2.00708" y1="8.5" x2="12.0061" y2="8.5" gradientUnits="userSpaceOnUse">
<stop stop-color="#FDFC47"/>
<stop offset="1" stop-color="#24FE41"/>
</linearGradient>
<linearGradient id="paint1_linear_10_10050" x1="12" y1="6" x2="14" y2="6" gradientUnits="userSpaceOnUse">
<stop stop-color="#FDFC47"/>
<stop offset="1" stop-color="#24FE41"/>
</linearGradient>
</defs>
</svg>
