<svg width="16" height="16" viewBox="0 0 16 16" fill="none" xmlns="http://www.w3.org/2000/svg">
<path d="M4 6H12V7H4V6ZM4 9H12V10H4V9Z" fill="url(#paint0_linear_10_10090)"/>
<path d="M4.36011 10.944C4.36011 11.9573 4.72811 12.7467 5.46411 13.312C6.20011 13.8773 7.19211 14.16 8.44011 14.16C9.08011 14.16 9.67211 14.112 10.2161 14.016C10.7601 13.92 11.2134 13.7867 11.5761 13.616V12.24C11.1921 12.4107 10.7174 12.5653 10.1521 12.704C9.57611 12.8427 8.98411 12.912 8.37611 12.912C7.53344 12.912 6.89344 12.7467 6.45611 12.416C6.01877 12.0853 5.80011 11.6373 5.80011 11.072C5.80011 10.6987 5.88011 10.384 6.04011 10.128C6.20011 9.87202 6.47744 9.63735 6.87211 9.42402C7.26677 9.21068 7.80544 8.97602 8.48811 8.72002C9.46944 8.36802 10.2054 7.93602 10.6961 7.42402C11.1868 6.91202 11.4321 6.21335 11.4321 5.32802C11.4321 4.73068 11.2774 4.21335 10.9681 3.77602C10.6588 3.33868 10.2321 3.00268 9.68811 2.76802C9.14411 2.53335 8.50944 2.41602 7.78411 2.41602C7.16544 2.41602 6.59477 2.47468 6.07211 2.59202C5.54944 2.70935 5.06944 2.86402 4.63211 3.05602L5.08011 4.28802C5.47477 4.11735 5.90677 3.97335 6.37611 3.85602C6.84544 3.73868 7.32544 3.68002 7.81611 3.68002C8.53077 3.68002 9.06944 3.83468 9.43211 4.14402C9.79477 4.44268 9.97611 4.84268 9.97611 5.34402C9.97611 5.72802 9.89611 6.04802 9.73611 6.30402C9.57611 6.56002 9.31477 6.79468 8.95211 7.00802C8.58944 7.21068 8.09877 7.42402 7.48011 7.64802C6.80811 7.89335 6.24277 8.16002 5.78411 8.44802C5.31477 8.72535 4.96277 9.06135 4.72811 9.45602C4.48277 9.85068 4.36011 10.3467 4.36011 10.944Z" fill="url(#paint1_linear_10_10090)"/>
<defs>
<linearGradient id="paint0_linear_10_10090" x1="4" y1="8" x2="12" y2="8" gradientUnits="userSpaceOnUse">
<stop stop-color="#FDFC47"/>
<stop offset="1" stop-color="#24FE41"/>
</linearGradient>
<linearGradient id="paint1_linear_10_10090" x1="4.36011" y1="8.28802" x2="11.5761" y2="8.28802" gradientUnits="userSpaceOnUse">
<stop stop-color="#FDFC47"/>
<stop offset="1" stop-color="#24FE41"/>
</linearGradient>
</defs>
</svg>
