<svg width="16" height="16" viewBox="0 0 16 16" fill="none" xmlns="http://www.w3.org/2000/svg">
<g clip-path="url(#clip0_10_10062)">
<path d="M12 4V12H13V9H16V8H13V5H16V4H12ZM6 4V12H7V9H10V12H11V4H10V8H7V4H6ZM3 4C2.20435 4 1.44129 4.31607 0.87868 4.87868C0.31607 5.44129 0 6.20435 0 7L0 9C0 9.79565 0.31607 10.5587 0.87868 11.1213C1.44129 11.6839 2.20435 12 3 12C3.51429 11.9993 4.01976 11.8664 4.46789 11.614C4.91601 11.3617 5.29174 10.9984 5.559 10.559L4.822 9.822C4.66383 10.1728 4.4078 10.4706 4.08462 10.6795C3.76144 10.8885 3.38484 10.9998 3 11C2.46957 11 1.96086 10.7893 1.58579 10.4142C1.21071 10.0391 1 9.53043 1 9V7C1 6.46957 1.21071 5.96086 1.58579 5.58579C1.96086 5.21071 2.46957 5 3 5C3.38472 5.0008 3.76105 5.11255 4.08386 5.32185C4.40667 5.53114 4.66226 5.8291 4.82 6.18L5.559 5.441C5.29174 5.00161 4.91601 4.6383 4.46789 4.38595C4.01976 4.13361 3.51429 4.0007 3 4Z" fill="url(#paint0_linear_10_10062)"/>
</g>
<defs>
<linearGradient id="paint0_linear_10_10062" x1="0" y1="8" x2="16" y2="8" gradientUnits="userSpaceOnUse">
<stop stop-color="#FDFC47"/>
<stop offset="1" stop-color="#24FE41"/>
</linearGradient>
<clipPath id="clip0_10_10062">
<rect width="16" height="16" fill="white"/>
</clipPath>
</defs>
</svg>
