<svg width="16" height="16" viewBox="0 0 16 16" fill="none" xmlns="http://www.w3.org/2000/svg">
<path d="M8 1.00001C7.44242 1.00001 7.17322 1.29855 7.00195 1.49415C6.83069 1.68975 6.71887 1.88234 6.60742 2.08985C6.38451 2.50488 6.18776 2.98424 5.99804 3.46875C5.80832 3.95326 5.62904 4.43974 5.47851 4.81055C5.40325 4.99596 5.33476 5.15207 5.28515 5.25196C5.28013 5.26207 5.2767 5.2624 5.27148 5.27149C5.26239 5.27671 5.26206 5.28014 5.25195 5.28516C5.15207 5.33477 4.99595 5.40326 4.81054 5.47852C4.43973 5.62905 3.95326 5.80833 3.46874 5.99805C2.98422 6.18777 2.50487 6.38452 2.08984 6.60743C1.88232 6.71888 1.68973 6.8307 1.49414 7.00196C1.29854 7.17322 1 7.44242 1 8.00001C1 8.5576 1.29854 8.82679 1.49414 8.99806C1.68974 9.16932 1.88233 9.28114 2.08984 9.39259C2.50487 9.6155 2.98423 9.81225 3.46874 10.002C3.95326 10.1917 4.43973 10.371 4.81054 10.5215C4.99595 10.5968 5.15206 10.6652 5.25195 10.7149C5.26276 10.7203 5.2638 10.723 5.27343 10.7285C5.27836 10.7371 5.28041 10.7385 5.28515 10.7481C5.33476 10.8479 5.40325 11.0041 5.47851 11.1895C5.62904 11.5603 5.80832 12.0467 5.99804 12.5313C6.18776 13.0158 6.38451 13.4951 6.60742 13.9102C6.71887 14.1177 6.83069 14.3103 7.00195 14.5059C7.17321 14.7015 7.44241 15 8 15C8.55759 15 8.82678 14.7015 8.99805 14.5059C9.16931 14.3103 9.28113 14.1177 9.39258 13.9102C9.61549 13.4951 9.81224 13.0158 10.002 12.5313C10.1917 12.0467 10.371 11.5603 10.5215 11.1895C10.5967 11.0041 10.6652 10.8479 10.7148 10.7481C10.7202 10.7372 10.7229 10.7362 10.7285 10.7266C10.7371 10.7217 10.7385 10.7196 10.748 10.7148C10.8479 10.6652 11.004 10.5967 11.1895 10.5215C11.5603 10.3709 12.0467 10.1917 12.5313 10.002C13.0158 9.81223 13.4951 9.61548 13.9102 9.39258C14.1177 9.28113 14.3103 9.16931 14.5059 8.99805C14.7015 8.82679 15 8.55759 15 8C15 7.44241 14.7015 7.17322 14.5059 7.00195C14.3103 6.83069 14.1177 6.71887 13.9102 6.60742C13.4951 6.38451 13.0158 6.18776 12.5313 5.99804C12.0467 5.80832 11.5603 5.62904 11.1895 5.47851C11.0041 5.40325 10.8479 5.33476 10.748 5.28515C10.7379 5.28013 10.7376 5.2767 10.7285 5.27148C10.7233 5.26239 10.7198 5.26206 10.7148 5.25195C10.6652 5.15207 10.5967 4.99595 10.5215 4.81054C10.371 4.43974 10.1917 3.95327 10.002 3.46874C9.81223 2.98421 9.61548 2.50487 9.39258 2.08984C9.28113 1.88232 9.16931 1.68973 8.99805 1.49414C8.82679 1.29854 8.55759 1.00001 8 1.00001ZM8 2.00001C8.61714 2.00001 9.5687 5.55791 10.0059 5.99411C10.4422 6.43125 14 7.38281 14 8.00001C14 8.61721 10.4421 9.56871 10.0059 10.0059C9.56876 10.4422 8.6172 14 8 14C7.3828 14 6.4313 10.4421 5.9941 10.0059C5.55781 9.56877 2 8.61721 2 8.00001C2 7.38281 5.5579 6.43131 5.9941 5.99411C6.43124 5.55782 7.3828 2.00001 8 2.00001Z" fill="url(#paint0_linear_10_10056)"/>
<defs>
<linearGradient id="paint0_linear_10_10056" x1="1" y1="8" x2="15" y2="8" gradientUnits="userSpaceOnUse">
<stop stop-color="#FDFC47"/>
<stop offset="1" stop-color="#24FE41"/>
</linearGradient>
</defs>
</svg>
