<svg width="16" height="16" viewBox="0 0 16 16" fill="none" xmlns="http://www.w3.org/2000/svg">
<path d="M3.7832 4L1 11H2.26367L3 9H5.43164L6.20312 11H7.5L4.75 4H3.7832ZM14 4V11H15V4H14ZM4.2207 5.49219C4.3116 5.82897 4.41292 6.14504 4.52148 6.44336L5.21094 8.33008H3.22656L3.91211 6.47656C4.02653 6.16868 4.12974 5.84182 4.2207 5.49219ZM10.5 6C9.83696 6 9.20107 6.26339 8.73223 6.73223C8.26339 7.20107 8 7.83696 8 8.5C8 9.16304 8.26339 9.79893 8.73223 10.2678C9.20107 10.7366 9.83696 11 10.5 11C11.163 11 11.7989 10.7366 12.2678 10.2678C12.7366 9.79893 13 9.16304 13 8.5C13 7.83696 12.7366 7.20107 12.2678 6.73223C11.7989 6.26339 11.163 6 10.5 6ZM10.5 7C10.8978 7 11.2794 7.15804 11.5607 7.43934C11.842 7.72064 12 8.10218 12 8.5C12 8.89782 11.842 9.27936 11.5607 9.56066C11.2794 9.84196 10.8978 10 10.5 10C10.1022 10 9.72064 9.84196 9.43934 9.56066C9.15804 9.27936 9 8.89782 9 8.5C9 8.10218 9.15804 7.72064 9.43934 7.43934C9.72064 7.15804 10.1022 7 10.5 7Z" fill="url(#paint0_linear_10_10102)"/>
<defs>
<linearGradient id="paint0_linear_10_10102" x1="1" y1="7.5" x2="15" y2="7.5" gradientUnits="userSpaceOnUse">
<stop stop-color="#FDFC47"/>
<stop offset="1" stop-color="#24FE41"/>
</linearGradient>
</defs>
</svg>
