<svg width="16" height="16" viewBox="0 0 16 16" fill="none" xmlns="http://www.w3.org/2000/svg">
<path d="M8 2C7.21207 2 6.43185 2.15519 5.70389 2.45672C4.97594 2.75825 4.3145 3.20021 3.75735 3.75736C3.2002 4.31451 2.75824 4.97595 2.45671 5.7039C2.15519 6.43186 2 7.21207 2 8C2 8.78793 2.15519 9.56815 2.45671 10.2961C2.75824 11.0241 3.2002 11.6855 3.75735 12.2426C4.3145 12.7998 4.97594 13.2417 5.70389 13.5433C6.43185 13.8448 7.21207 14 8 14C8.78793 14 9.56815 13.8448 10.2961 13.5433C11.0241 13.2417 11.6855 12.7998 12.2427 12.2426C12.7998 11.6855 13.2418 11.0241 13.5433 10.2961C13.8448 9.56815 14 8.78793 14 8C14 7.21207 13.8448 6.43186 13.5433 5.7039C13.2418 4.97595 12.7998 4.31451 12.2427 3.75736C11.6855 3.20021 11.0241 2.75825 10.2961 2.45672C9.56815 2.15519 8.78793 2 8 2ZM8 3C8.65661 3 9.30679 3.12933 9.91342 3.3806C10.5201 3.63188 11.0712 4.00017 11.5355 4.46447C11.9998 4.92876 12.3681 5.47996 12.6194 6.08658C12.8707 6.69321 13 7.34339 13 8C13 8.65661 12.8707 9.30679 12.6194 9.91341C12.3681 10.52 11.9998 11.0712 11.5355 11.5355C11.0712 11.9998 10.5201 12.3681 9.91342 12.6194C9.30679 12.8707 8.65661 13 8 13C7.34339 13 6.69321 12.8707 6.08658 12.6194C5.47995 12.3681 4.92875 11.9998 4.46446 11.5355C4.00016 11.0712 3.63187 10.52 3.3806 9.91341C3.12932 9.30679 3 8.65661 3 8C3 7.34339 3.12932 6.69321 3.3806 6.08658C3.63187 5.47996 4.00016 4.92876 4.46446 4.46447C4.92875 4.00017 5.47995 3.63188 6.08658 3.3806C6.69321 3.12933 7.34339 3 8 3ZM5.54883 4.8418C5.28507 5.0477 5.0482 5.28589 4.84375 5.55078L7.293 8L4.842 10.451C5.04783 10.7148 5.28595 10.9517 5.55078 11.1562L8 8.707L10.451 11.158C10.7148 10.9522 10.9517 10.714 11.1562 10.4492L8.707 8L11.158 5.549C10.9522 5.2852 10.714 5.04826 10.4492 4.84375L8 7.293L5.54883 4.8418Z" fill="url(#paint0_linear_10_10104)"/>
<defs>
<linearGradient id="paint0_linear_10_10104" x1="2" y1="8" x2="14" y2="8" gradientUnits="userSpaceOnUse">
<stop stop-color="#FDFC47"/>
<stop offset="1" stop-color="#24FE41"/>
</linearGradient>
</defs>
</svg>
