<svg width="16" height="16" viewBox="0 0 16 16" fill="none" xmlns="http://www.w3.org/2000/svg">
<path d="M8 2C7.80302 2 7.60796 2.0582 7.42597 2.17127C7.24399 2.28434 7.07863 2.45008 6.93934 2.65901C6.80005 2.86794 6.68956 3.11598 6.61418 3.38896C6.5388 3.66194 6.5 3.95453 6.5 4.25C6.50035 4.29627 6.50165 4.34252 6.50391 4.38867C6.47271 4.35484 6.44079 4.32162 6.4082 4.28906C5.98653 3.86745 5.47053 3.57468 4.97358 3.47506C4.47662 3.37545 4.03934 3.47715 3.75781 3.75781C3.61829 3.89699 3.5213 4.07602 3.4724 4.28467C3.42349 4.49331 3.42361 4.72749 3.47277 4.9738C3.52192 5.22012 3.61914 5.47375 3.75887 5.72021C3.8986 5.96667 4.0781 6.20111 4.28711 6.41016C4.3197 6.4421 4.35291 6.47336 4.38672 6.50391C4.34122 6.50168 4.29562 6.50038 4.25 6.5C3.95453 6.5 3.66194 6.5388 3.38896 6.61418C3.11598 6.68956 2.86794 6.80005 2.65901 6.93934C2.45008 7.07863 2.28434 7.24399 2.17127 7.42597C2.0582 7.60796 2 7.80302 2 8C2 8.19698 2.0582 8.39204 2.17127 8.57403C2.28434 8.75601 2.45008 8.92137 2.65901 9.06066C2.86794 9.19995 3.11598 9.31044 3.38896 9.38582C3.66194 9.4612 3.95453 9.5 4.25 9.5C4.29627 9.49965 4.34252 9.49835 4.38867 9.49609C4.35419 9.52726 4.32032 9.55918 4.28711 9.5918C3.86558 10.0137 3.57305 10.5299 3.4738 11.0269C3.37455 11.5239 3.4767 11.961 3.75781 12.2422C4.03901 12.5233 4.47613 12.6254 4.97311 12.5262C5.4701 12.4269 5.98627 12.1344 6.4082 11.7129C6.44079 11.6803 6.47271 11.6471 6.50391 11.6133C6.50168 11.6588 6.50038 11.7044 6.5 11.75C6.5 12.0455 6.5388 12.3381 6.61418 12.611C6.68956 12.884 6.80005 13.1321 6.93934 13.341C7.07863 13.5499 7.24399 13.7157 7.42597 13.8287C7.60796 13.9418 7.80302 14 8 14C8.19698 14 8.39204 13.9418 8.57403 13.8287C8.75601 13.7157 8.92137 13.5499 9.06066 13.341C9.19995 13.1321 9.31044 12.884 9.38582 12.611C9.4612 12.3381 9.5 12.0455 9.5 11.75C9.49965 11.7037 9.49835 11.6575 9.49609 11.6113C9.52726 11.6458 9.55918 11.6797 9.5918 11.7129C10.0137 12.1344 10.5299 12.427 11.0269 12.5262C11.5239 12.6255 11.961 12.5233 12.2422 12.2422C12.5233 11.961 12.6255 11.5239 12.5262 11.0269C12.427 10.5299 12.1344 10.0137 11.7129 9.5918C11.6803 9.55921 11.6471 9.52729 11.6133 9.49609C11.6588 9.49832 11.7044 9.49962 11.75 9.5C12.0455 9.5 12.3381 9.4612 12.611 9.38582C12.884 9.31044 13.1321 9.19995 13.341 9.06066C13.5499 8.92137 13.7157 8.75601 13.8287 8.57403C13.9418 8.39204 14 8.19698 14 8C14 7.80302 13.9418 7.60796 13.8287 7.42597C13.7157 7.24399 13.5499 7.07863 13.341 6.93934C13.1321 6.80005 12.884 6.68956 12.611 6.61418C12.3381 6.5388 12.0455 6.5 11.75 6.5C11.7037 6.50035 11.6575 6.50165 11.6113 6.50391C11.6458 6.47339 11.6797 6.44213 11.7129 6.41016C11.9219 6.20111 12.1014 5.96667 12.2411 5.72021C12.3809 5.47375 12.4781 5.22012 12.5272 4.9738C12.5764 4.72749 12.5765 4.49331 12.5276 4.28467C12.4787 4.07602 12.3817 3.89699 12.2422 3.75781C11.9607 3.47715 11.5234 3.37545 11.0264 3.47506C10.5295 3.57468 10.0135 3.86745 9.5918 4.28906C9.55921 4.32162 9.52729 4.35484 9.49609 4.38867C9.49835 4.34252 9.49965 4.29627 9.5 4.25C9.5 3.95453 9.4612 3.66194 9.38582 3.38896C9.31044 3.11598 9.19995 2.86794 9.06066 2.65901C8.92137 2.45008 8.75601 2.28434 8.57403 2.17127C8.39204 2.0582 8.19698 2 8 2ZM8.74609 6.19727C8.76732 6.49725 8.87575 6.75316 9.06055 6.93945C9.24641 7.1239 9.50161 7.23232 9.80078 7.25391C9.60452 7.48083 9.50082 7.73806 9.5 8C9.50142 8.26206 9.60579 8.5193 9.80273 8.74609C9.50275 8.76732 9.24684 8.87575 9.06055 9.06055C8.8761 9.24641 8.76768 9.50161 8.74609 9.80078C8.51917 9.60452 8.26194 9.50082 8 9.5C7.73806 9.50082 7.48083 9.60452 7.25391 9.80078C7.23232 9.50161 7.1239 9.24641 6.93945 9.06055C6.75359 8.8761 6.49839 8.76768 6.19922 8.74609C6.39548 8.51917 6.49918 8.26194 6.5 8C6.49918 7.73806 6.39548 7.48083 6.19922 7.25391C6.49839 7.23232 6.75359 7.1239 6.93945 6.93945C7.1239 6.75359 7.23232 6.49839 7.25391 6.19922C7.48083 6.39548 7.73806 6.49918 8 6.5C8.26206 6.49858 8.5193 6.39421 8.74609 6.19727ZM8 7.25C7.5845 7.25 7.25 7.5845 7.25 8C7.25 8.4155 7.5845 8.75 8 8.75C8.4155 8.75 8.75 8.4155 8.75 8C8.75 7.5845 8.4155 7.25 8 7.25Z" fill="url(#paint0_linear_10_10108)"/>
<defs>
<linearGradient id="paint0_linear_10_10108" x1="2" y1="8" x2="14" y2="8" gradientUnits="userSpaceOnUse">
<stop stop-color="#FDFC47"/>
<stop offset="1" stop-color="#24FE41"/>
</linearGradient>
</defs>
</svg>
