<svg width="16" height="16" viewBox="0 0 16 16" fill="none" xmlns="http://www.w3.org/2000/svg">
<path d="M8 2C7.21207 2 6.43185 2.15519 5.7039 2.45672C4.97594 2.75825 4.31451 3.20021 3.75735 3.75736C3.2002 4.31451 2.75825 4.97595 2.45672 5.7039C2.15519 6.43185 2 7.21207 2 8C2 8.78793 2.15519 9.56815 2.45672 10.2961C2.75825 11.0241 3.2002 11.6855 3.75735 12.2426C4.31451 12.7998 4.97594 13.2417 5.7039 13.5433C6.43185 13.8448 7.21207 14 8 14C9.41868 14.0003 10.7916 13.4979 11.875 12.582L13.293 14C13.275 14.0029 14 13.293 14 13.293L12.5762 11.8691C13.4929 10.7881 13.9973 9.41741 14 8C14 7.21207 13.8448 6.43185 13.5433 5.7039C13.2418 4.97595 12.7998 4.31451 12.2426 3.75736C11.6855 3.20021 11.0241 2.75825 10.2961 2.45672C9.56815 2.15519 8.78793 2 8 2ZM8 3C9.32608 3 10.5979 3.52678 11.5355 4.46447C12.4732 5.40215 13 6.67392 13 8C12.9989 9.15289 12.5994 10.27 11.8691 11.1621L10.707 10C10.707 10 9.99667 10.6997 10 10.707L11.1621 11.8691C10.27 12.5994 9.15289 12.9989 8 13C6.67392 13 5.40215 12.4732 4.46447 11.5355C3.52678 10.5979 3 9.32608 3 8C3 6.67392 3.52678 5.40215 4.46447 4.46447C5.40215 3.52678 6.67392 3 8 3Z" fill="url(#paint0_linear_10_10119)"/>
<defs>
<linearGradient id="paint0_linear_10_10119" x1="2" y1="8" x2="14" y2="8" gradientUnits="userSpaceOnUse">
<stop stop-color="#FDFC47"/>
<stop offset="1" stop-color="#24FE41"/>
</linearGradient>
</defs>
</svg>
