<svg width="16" height="16" viewBox="0 0 16 16" fill="none" xmlns="http://www.w3.org/2000/svg">
<path d="M10.3086 3C8.94901 3 7.8457 4.13115 7.8457 5.52539C7.8457 5.72322 7.86823 5.91486 7.91016 6.09961C5.86415 5.99436 4.05011 4.99022 2.83594 3.46289C2.62398 3.83571 2.50195 4.26783 2.50195 4.73047C2.50195 5.60637 2.93705 6.37932 3.59766 6.83203C3.19409 6.81919 2.81433 6.70663 2.48242 6.51758C2.4822 6.52835 2.48242 6.53806 2.48242 6.54883C2.48242 7.77201 3.33087 8.79143 4.45703 9.02344C4.2505 9.08121 4.03314 9.11328 3.80859 9.11328C3.64998 9.11328 3.49604 9.09564 3.3457 9.06641C3.659 10.0693 4.56723 10.8 5.64453 10.8203C4.80198 11.4975 3.74133 11.9004 2.58789 11.9004C2.38917 11.9004 2.19256 11.8885 2 11.8652C3.08948 12.5815 4.38316 13 5.77344 13C10.3017 13 12.7773 9.15262 12.7773 5.81641C12.7773 5.70698 12.7752 5.59851 12.7715 5.49023C13.2525 5.13428 13.67 4.68989 14 4.18359C13.5586 4.38436 13.0839 4.52099 12.5859 4.58203C13.0941 4.26959 13.4841 3.77509 13.668 3.18555C13.1923 3.47489 12.6663 3.68371 12.1055 3.79688C11.6565 3.30625 11.0167 3 10.3086 3Z" fill="url(#paint0_linear_10_10123)"/>
<defs>
<linearGradient id="paint0_linear_10_10123" x1="2" y1="8" x2="14" y2="8" gradientUnits="userSpaceOnUse">
<stop stop-color="#FDFC47"/>
<stop offset="1" stop-color="#24FE41"/>
</linearGradient>
</defs>
</svg>
