<svg width="16" height="16" viewBox="0 0 16 16" fill="none" xmlns="http://www.w3.org/2000/svg">
<path d="M1 2L1.01172 2.87109L2.91992 3.20312C3.44253 3.80997 6.34597 8.30166 6.78906 9.45508L6.83594 12.6719C6.55192 13.1718 4.81445 13.0684 4.81445 13.0684L4.66602 14C4.66602 14 11.1751 13.8248 11.209 13.9258C11.1927 13.8099 11.2207 13.0547 11.2207 13.0547L9.10742 12.9805C9.10742 12.9805 8.97195 10.6868 9.07422 9.35156C10.4603 7.30279 12.9336 4.98828 12.9336 4.98828L14.6113 4.60742L15 3.70898L9.2793 3.66211L9.42773 4.59375C9.42773 4.59375 10.9917 4.76114 11.1621 4.94336C11.1394 5.39864 8.45703 8.26758 8.45703 8.26758L5.52148 2.99219L7.57812 2.77734L8 2H1Z" fill="url(#paint0_linear_10_10143)"/>
<defs>
<linearGradient id="paint0_linear_10_10143" x1="1" y1="8" x2="15" y2="8" gradientUnits="userSpaceOnUse">
<stop stop-color="#FDFC47"/>
<stop offset="1" stop-color="#24FE41"/>
</linearGradient>
</defs>
</svg>
