<svg width="16" height="16" viewBox="0 0 16 16" fill="none" xmlns="http://www.w3.org/2000/svg">
<path d="M2 2V9V10V11V12H4V14H11V13H5V12H11V11V9V5H13V7H14V4H11V2H3H2ZM3 3H10V10V11H3V10V9V3ZM4 4V5H9V4H4ZM4 6V7H7V6H4Z" fill="url(#paint0_linear_10_10159)"/>
<path d="M13 8V9H14V8H13ZM4 9V10H8V9H4ZM13 10V14H14V10H13Z" fill="url(#paint1_linear_10_10159)"/>
<defs>
<linearGradient id="paint0_linear_10_10159" x1="2" y1="8" x2="14" y2="8" gradientUnits="userSpaceOnUse">
<stop stop-color="#FDFC47"/>
<stop offset="1" stop-color="#24FE41"/>
</linearGradient>
<linearGradient id="paint1_linear_10_10159" x1="4" y1="11" x2="14" y2="11" gradientUnits="userSpaceOnUse">
<stop stop-color="#FDFC47"/>
<stop offset="1" stop-color="#24FE41"/>
</linearGradient>
</defs>
</svg>
