<svg width="16" height="16" viewBox="0 0 16 16" fill="none" xmlns="http://www.w3.org/2000/svg">
<path d="M4 2V4H2V5H4V11H2V12H4V14H5V12H11V14H12V12H14V11H12V5H14.3105V4H12V2H11V4H5V2H4ZM5 5H11V11H5V5Z" fill="url(#paint0_linear_10_10191)"/>
<path d="M10.5 7C12.439 7 14 8.561 14 10.5C14 12.439 12.439 14 10.5 14C8.561 14 7 12.439 7 10.5C7 8.561 8.561 7 10.5 7Z" fill="url(#paint1_linear_10_10191)"/>
<defs>
<linearGradient id="paint0_linear_10_10191" x1="2" y1="8" x2="14.3105" y2="8" gradientUnits="userSpaceOnUse">
<stop stop-color="#FDFC47"/>
<stop offset="1" stop-color="#24FE41"/>
</linearGradient>
<linearGradient id="paint1_linear_10_10191" x1="7" y1="10.5" x2="14" y2="10.5" gradientUnits="userSpaceOnUse">
<stop stop-color="#FDFC47"/>
<stop offset="1" stop-color="#24FE41"/>
</linearGradient>
</defs>
</svg>
