<svg width="16" height="16" viewBox="0 0 16 16" fill="none" xmlns="http://www.w3.org/2000/svg">
<path d="M2 2V14H9V13H3V7H13V9H14V4H9.008L7.008 2L7 2.008V2H3H2ZM3 3H6.592L7.592 4H6.998V4.008L6.99 4L4.99 6H2.998L3 3Z" fill="url(#paint0_linear_10_10215)"/>
<path d="M11.5 9C10.837 9 10.2011 9.26339 9.73223 9.73223C9.26339 10.2011 9 10.837 9 11.5C9.00078 11.9898 9.14544 12.4686 9.41602 12.877L10.148 12.145C10.0513 11.9437 10.0007 11.7233 10 11.5C10 11.1022 10.158 10.7206 10.4393 10.4393C10.7206 10.158 11.1022 10 11.5 10C11.7232 10.0009 11.9434 10.0516 12.1445 10.1484L12.877 9.416C12.4687 9.14543 11.9898 9.00077 11.5 9ZM13.584 10.123L12.852 10.855C12.9487 11.0563 12.9993 11.2767 13 11.5C13 11.8978 12.842 12.2794 12.5607 12.5607C12.2794 12.842 11.8978 13 11.5 13C11.2768 12.9991 11.0566 12.9484 10.8555 12.8516L10.123 13.584C10.5313 13.8546 11.0102 13.9992 11.5 14C12.163 14 12.7989 13.7366 13.2678 13.2678C13.7366 12.7989 14 12.163 14 11.5C13.9992 11.0102 13.8546 10.5313 13.584 10.123Z" fill="url(#paint1_linear_10_10215)"/>
<defs>
<linearGradient id="paint0_linear_10_10215" x1="2" y1="8" x2="14" y2="8" gradientUnits="userSpaceOnUse">
<stop stop-color="#FDFC47"/>
<stop offset="1" stop-color="#24FE41"/>
</linearGradient>
<linearGradient id="paint1_linear_10_10215" x1="9" y1="11.5" x2="14" y2="11.5" gradientUnits="userSpaceOnUse">
<stop stop-color="#FDFC47"/>
<stop offset="1" stop-color="#24FE41"/>
</linearGradient>
</defs>
</svg>
