<svg width="16" height="16" viewBox="0 0 16 16" fill="none" xmlns="http://www.w3.org/2000/svg">
<g clip-path="url(#clip0_10_10276)">
<path d="M9.41429 6.58582C9.29311 6.46464 9.16275 6.35917 9.02482 6.26819L8.29009 7.00292C8.43943 7.07534 8.58179 7.16754 8.70718 7.29293C9.3009 7.88665 9.3009 8.82053 8.70718 9.41423L6.58588 11.5355C5.99216 12.1292 5.05828 12.1292 4.46458 11.5355C3.87086 10.9418 3.87086 10.0079 4.46458 9.41423L5.06949 8.80932C4.933 8.4184 4.85844 8.01113 4.86371 7.60092L3.75751 8.70712C2.78428 9.68035 2.78428 11.2694 3.75751 12.2426C4.73074 13.2158 6.31981 13.2158 7.29301 12.2426L9.41431 10.1213C10.3875 9.14809 10.3875 7.55902 9.41429 6.58582Z" fill="url(#paint0_linear_10_10276)"/>
<path d="M6.58585 9.41424C6.70703 9.53542 6.83739 9.64089 6.97533 9.73187L7.71006 8.99714C7.56072 8.92473 7.4184 8.83248 7.29301 8.70708C6.69929 8.11336 6.69929 7.17948 7.29301 6.58578L9.41431 4.46448C10.008 3.87076 10.9419 3.87076 11.5356 4.46448C12.1293 5.0582 12.1293 5.99208 11.5356 6.58578L10.9307 7.19069C11.0672 7.58161 11.1417 7.98888 11.1365 8.39909L12.2427 7.29289C13.2159 6.31966 13.2159 4.73059 12.2427 3.75739C11.2694 2.78416 9.68038 2.78416 8.70718 3.75739L6.58588 5.87869C5.61265 6.85192 5.61262 8.44104 6.58585 9.41424Z" fill="url(#paint1_linear_10_10276)"/>
<path d="M8 0C5.87827 0 3.84344 0.842855 2.34315 2.34315C0.842855 3.84344 0 5.87827 0 8C0 10.1217 0.842855 12.1566 2.34315 13.6569C3.84344 15.1571 5.87827 16 8 16C10.1217 16 12.1566 15.1571 13.6569 13.6569C15.1571 12.1566 16 10.1217 16 8C16 5.87827 15.1571 3.84344 13.6569 2.34315C12.1566 0.842855 10.1217 0 8 0ZM8 1C9.85652 1 11.637 1.7375 12.9497 3.05025C14.2625 4.36301 15 6.14348 15 8C15 9.85652 14.2625 11.637 12.9497 12.9497C11.637 14.2625 9.85652 15 8 15C6.14348 15 4.36301 14.2625 3.05025 12.9497C1.7375 11.637 1 9.85652 1 8C1 6.14348 1.7375 4.36301 3.05025 3.05025C4.36301 1.7375 6.14348 1 8 1Z" fill="url(#paint2_linear_10_10276)"/>
</g>
<defs>
<linearGradient id="paint0_linear_10_10276" x1="3.02759" y1="9.62036" x2="10.1442" y2="9.62036" gradientUnits="userSpaceOnUse">
<stop stop-color="#FDFC47"/>
<stop offset="1" stop-color="#24FE41"/>
</linearGradient>
<linearGradient id="paint1_linear_10_10276" x1="5.85596" y1="6.37967" x2="12.9726" y2="6.37967" gradientUnits="userSpaceOnUse">
<stop stop-color="#FDFC47"/>
<stop offset="1" stop-color="#24FE41"/>
</linearGradient>
<linearGradient id="paint2_linear_10_10276" x1="0" y1="8" x2="16" y2="8" gradientUnits="userSpaceOnUse">
<stop stop-color="#FDFC47"/>
<stop offset="1" stop-color="#24FE41"/>
</linearGradient>
<clipPath id="clip0_10_10276">
<rect width="16" height="16" fill="white"/>
</clipPath>
</defs>
</svg>
