<svg width="16" height="16" viewBox="0 0 16 16" fill="none" xmlns="http://www.w3.org/2000/svg">
<g clip-path="url(#clip0_10_10352)">
<path d="M1 7V8H4V7H1ZM2 9V10H4V9H2Z" fill="url(#paint0_linear_10_10352)"/>
<path d="M5 2.00006V3.00006H14C14.4889 3.00006 14.8745 3.35412 14.9629 3.81647L8.53909 8.93167C8.2335 9.17502 7.76653 9.17502 7.46099 8.93167L5.00009 6.97267V9.02927L5.49814 8.63279L6.66804 9.56443C7.39891 10.1464 8.60124 10.1464 9.33214 9.56443L10.502 8.63279L14.9629 12.1836C14.8745 12.6459 14.4889 13 14 13H5.00005V14H14C15.108 14 16 13.108 16 12V4C16 2.892 15.108 2 14 2L5 2.00006ZM15 5.04886V10.9512L11.2949 7.99996L15 5.04886Z" fill="url(#paint1_linear_10_10352)"/>
<path d="M4 5H0V6H4V5Z" fill="url(#paint2_linear_10_10352)"/>
</g>
<defs>
<linearGradient id="paint0_linear_10_10352" x1="1" y1="8.5" x2="4" y2="8.5" gradientUnits="userSpaceOnUse">
<stop stop-color="#FDFC47"/>
<stop offset="1" stop-color="#24FE41"/>
</linearGradient>
<linearGradient id="paint1_linear_10_10352" x1="5" y1="8" x2="16" y2="8" gradientUnits="userSpaceOnUse">
<stop stop-color="#FDFC47"/>
<stop offset="1" stop-color="#24FE41"/>
</linearGradient>
<linearGradient id="paint2_linear_10_10352" x1="0" y1="5.5" x2="4" y2="5.5" gradientUnits="userSpaceOnUse">
<stop stop-color="#FDFC47"/>
<stop offset="1" stop-color="#24FE41"/>
</linearGradient>
<clipPath id="clip0_10_10352">
<rect width="16" height="16" fill="white"/>
</clipPath>
</defs>
</svg>
