<svg width="16" height="16" viewBox="0 0 16 16" fill="none" xmlns="http://www.w3.org/2000/svg">
<path d="M7 2C5.343 2 4 3.343 4 5C4 6.657 5.343 8 7 8C8.657 8 10 6.657 10 5C10 3.343 8.657 2 7 2ZM7 3C8.105 3 9 3.895 9 5C9 6.105 8.105 7 7 7C5.895 7 5 6.105 5 5C5 3.895 5.895 3 7 3ZM7 9C4.239 9 2 11.01 2 13.5C2.001 13.667 2.012 13.834 2.033 14H11.963C11.986 13.834 11.998 13.667 12 13.5C12 11.015 9.761 9 7 9ZM7 10C8.987 10.002 10.671 11.279 10.955 13H3.045C3.329 11.279 5.013 10.002 7 10Z" fill="url(#paint0_linear_10_10326)"/>
<path d="M13 2V6H14V2H13ZM13 7V8H14V7H13Z" fill="url(#paint1_linear_10_10326)"/>
<defs>
<linearGradient id="paint0_linear_10_10326" x1="2" y1="8" x2="12" y2="8" gradientUnits="userSpaceOnUse">
<stop stop-color="#FDFC47"/>
<stop offset="1" stop-color="#24FE41"/>
</linearGradient>
<linearGradient id="paint1_linear_10_10326" x1="13" y1="5" x2="14" y2="5" gradientUnits="userSpaceOnUse">
<stop stop-color="#FDFC47"/>
<stop offset="1" stop-color="#24FE41"/>
</linearGradient>
</defs>
</svg>
