<svg width="16" height="16" viewBox="0 0 16 16" fill="none" xmlns="http://www.w3.org/2000/svg">
<path d="M12.5 8C11.5717 8 10.6815 8.36875 10.0251 9.02513C9.36875 9.6815 9 10.5717 9 11.5C9 12.4283 9.36875 13.3185 10.0251 13.9749C10.6815 14.6313 11.5717 15 12.5 15C13.4283 15 14.3185 14.6313 14.9749 13.9749C15.6313 13.3185 16 12.4283 16 11.5C16 10.5717 15.6313 9.6815 14.9749 9.02513C14.3185 8.36875 13.4283 8 12.5 8ZM14.4902 9.3789L15.1972 10.0859L11.662 13.6211L9.54093 11.5L10.248 10.793L11.6621 12.2071L14.4902 9.3789Z" fill="url(#paint0_linear_10_10365)"/>
<path d="M2 2.00004C0.892 2.00004 0 2.89204 0 4.00004V12C0 13.108 0.892 14 2 14H8.7617C8.55479 13.6887 8.38749 13.3528 8.26365 13H1.99995C1.51107 13 1.12547 12.646 1.03706 12.1836L5.49796 8.63283L6.66786 9.56447C7.10145 9.90975 7.70086 10.0449 8.26946 9.98049C8.49854 9.33833 8.87053 8.75662 9.35736 8.27929L8.539 8.93163C8.23341 9.17498 7.76644 9.17498 7.4609 8.93163L1.0371 3.81643C1.12551 3.35408 1.51111 3.00002 1.99999 3.00002H14C14.4889 3.00002 14.8745 3.35408 14.9629 3.81643L10.0723 7.71093C10.7969 7.24669 11.6394 6.99996 12.5 6.99999C12.5156 7.00056 12.5312 7.00121 12.5469 7.00194L15 5.04884V7.75974C15.3775 8.01221 15.7147 8.32039 16 8.6738V4C16 2.892 15.108 2 14 2L2 2.00004ZM1 5.04884L4.7051 8.00004L1 10.9512V5.04884Z" fill="url(#paint1_linear_10_10365)"/>
<defs>
<linearGradient id="paint0_linear_10_10365" x1="9" y1="11.5" x2="16" y2="11.5" gradientUnits="userSpaceOnUse">
<stop stop-color="#FDFC47"/>
<stop offset="1" stop-color="#24FE41"/>
</linearGradient>
<linearGradient id="paint1_linear_10_10365" x1="0" y1="8.00002" x2="16" y2="8.00002" gradientUnits="userSpaceOnUse">
<stop stop-color="#FDFC47"/>
<stop offset="1" stop-color="#24FE41"/>
</linearGradient>
</defs>
</svg>
