<svg width="16" height="16" viewBox="0 0 16 16" fill="none" xmlns="http://www.w3.org/2000/svg">
<path d="M3 2V3H4V5H3V6H6V5H5V3H6V2H3ZM8 2V3H14V2H8ZM8 4V5H12V4H8ZM2 8V9H3V11H2V12H7V11H6V9H7V8H2ZM4 9H5V11H4V9ZM12 13V14H14V13H12Z" fill="url(#paint0_linear_10_10423)"/>
<path d="M14 11H9L11.5 8L14 11Z" fill="url(#paint1_linear_10_10423)"/>
<defs>
<linearGradient id="paint0_linear_10_10423" x1="2" y1="8" x2="14" y2="8" gradientUnits="userSpaceOnUse">
<stop stop-color="#FDFC47"/>
<stop offset="1" stop-color="#24FE41"/>
</linearGradient>
<linearGradient id="paint1_linear_10_10423" x1="9" y1="9.5" x2="14" y2="9.5" gradientUnits="userSpaceOnUse">
<stop stop-color="#FDFC47"/>
<stop offset="1" stop-color="#24FE41"/>
</linearGradient>
</defs>
</svg>
