<svg width="16" height="16" viewBox="0 0 16 16" fill="none" xmlns="http://www.w3.org/2000/svg">
<path d="M3 2C2.73478 2 2.48043 2.10536 2.29289 2.29289C2.10536 2.48043 2 2.73478 2 3C2 3.26522 2.10536 3.51957 2.29289 3.70711C2.48043 3.89464 2.73478 4 3 4C3.26522 4 3.51957 3.89464 3.70711 3.70711C3.89464 3.51957 4 3.26522 4 3C4 2.73478 3.89464 2.48043 3.70711 2.29289C3.51957 2.10536 3.26522 2 3 2ZM5 2V3H7H13V2H7H5ZM5 4V5H7H11V4H7H5ZM10 7V10H7V11H10V14H11V11H14V10H11V7H10ZM3 8C2.73478 8 2.48043 8.10536 2.29289 8.29289C2.10536 8.48043 2 8.73478 2 9C2 9.26522 2.10536 9.51957 2.29289 9.70711C2.48043 9.89464 2.73478 10 3 10C3.26522 10 3.51957 9.89464 3.70711 9.70711C3.89464 9.51957 4 9.26522 4 9C4 8.73478 3.89464 8.48043 3.70711 8.29289C3.51957 8.10536 3.26522 8 3 8Z" fill="url(#paint0_linear_10_10389)"/>
<defs>
<linearGradient id="paint0_linear_10_10389" x1="2" y1="8" x2="14" y2="8" gradientUnits="userSpaceOnUse">
<stop stop-color="#FDFC47"/>
<stop offset="1" stop-color="#24FE41"/>
</linearGradient>
</defs>
</svg>
