<svg width="16" height="16" viewBox="0 0 16 16" fill="none" xmlns="http://www.w3.org/2000/svg">
<path d="M1 2V14H4V13H3V3H13V6H14V2H1ZM12 7V8H10C8.892 8 8 8.892 8 10V11C8 11.554 7.554 12 7 12H5V13H7C8.108 13 9 12.108 9 11V10C9 9.446 9.446 9 10 9H12V10L14 8.5L12 7ZM5 8V9H7V8H5ZM12 11V12H10V13H12V14L14 12.5L12 11Z" fill="url(#paint0_linear_10_10397)"/>
<defs>
<linearGradient id="paint0_linear_10_10397" x1="1" y1="8" x2="14" y2="8" gradientUnits="userSpaceOnUse">
<stop stop-color="#FDFC47"/>
<stop offset="1" stop-color="#24FE41"/>
</linearGradient>
</defs>
</svg>
