<svg width="16" height="16" viewBox="0 0 16 16" fill="none" xmlns="http://www.w3.org/2000/svg">
<path d="M11 3.5V5H5C3.338 5 2 6.338 2 8H3C3 6.892 3.892 6 5 6H11V7.5L14 5.5L11 3.5ZM5 8.5L2 10.5L5 12.5V11H7V10H5V8.5Z" fill="url(#paint0_linear_10_10405)"/>
<path d="M8.99 8L8 8.99L10.01 11L8 13.01L8.99 14L11 11.99L13.01 14L14 13.01L11.99 11L14 8.99L13.01 8L11 10.01L8.99 8Z" fill="url(#paint1_linear_10_10405)"/>
<defs>
<linearGradient id="paint0_linear_10_10405" x1="2" y1="8" x2="14" y2="8" gradientUnits="userSpaceOnUse">
<stop stop-color="#FDFC47"/>
<stop offset="1" stop-color="#24FE41"/>
</linearGradient>
<linearGradient id="paint1_linear_10_10405" x1="8" y1="11" x2="14" y2="11" gradientUnits="userSpaceOnUse">
<stop stop-color="#FDFC47"/>
<stop offset="1" stop-color="#24FE41"/>
</linearGradient>
</defs>
</svg>
