<svg width="16" height="16" viewBox="0 0 16 16" fill="none" xmlns="http://www.w3.org/2000/svg">
<path d="M8 2C4.68629 2 2 4.68629 2 8C2 11.3137 4.68629 14 8 14V13C5.23858 13 3 10.7614 3 8C3 5.23858 5.23858 3 8 3C10.419 3 12.4372 4.7177 12.9004 7H13.9102C13.4331 4.1635 10.9721 2 8 2ZM7 4V8V9H8H9V8H8V7V4H7ZM10 8V14L15 11L10 8Z" fill="url(#paint0_linear_10_10391)"/>
<defs>
<linearGradient id="paint0_linear_10_10391" x1="2" y1="8" x2="15" y2="8" gradientUnits="userSpaceOnUse">
<stop stop-color="#FDFC47"/>
<stop offset="1" stop-color="#24FE41"/>
</linearGradient>
</defs>
</svg>
