<svg width="16" height="16" viewBox="0 0 16 16" fill="none" xmlns="http://www.w3.org/2000/svg">
<path d="M7 2C5.343 2 4 3.343 4 5C4 6.657 5.343 8 7 8C8.657 8 10 6.657 10 5C10 3.343 8.657 2 7 2ZM7 3C8.105 3 9 3.895 9 5C9 6.105 8.105 7 7 7C5.895 7 5 6.105 5 5C5 3.895 5.895 3 7 3ZM7 9C4.239 9 2 11.01 2 13.5C2.001 13.667 2.012 13.834 2.033 14H11.963C11.986 13.834 11.998 13.667 12 13.5C12 11.015 9.761 9 7 9ZM7 10C8.987 10.002 10.671 11.279 10.955 13H3.045C3.329 11.279 5.013 10.002 7 10Z" fill="url(#paint0_linear_10_10434)"/>
<path d="M13 2C12.7348 2 12.4804 2.10536 12.2929 2.29289C12.1054 2.48043 12 2.73478 12 3C12 3.26522 12.1054 3.51957 12.2929 3.70711C12.4804 3.89464 12.7348 4 13 4C13.2652 4 13.5196 3.89464 13.7071 3.70711C13.8946 3.51957 14 3.26522 14 3C14 2.73478 13.8946 2.48043 13.7071 2.29289C13.5196 2.10536 13.2652 2 13 2ZM13 5C12.7348 5 12.4804 5.10536 12.2929 5.29289C12.1054 5.48043 12 5.73478 12 6C12 6.26522 12.1054 6.51957 12.2929 6.70711C12.4804 6.89464 12.7348 7 13 7C13.2652 7 13.5196 6.89464 13.7071 6.70711C13.8946 6.51957 14 6.26522 14 6C14 5.73478 13.8946 5.48043 13.7071 5.29289C13.5196 5.10536 13.2652 5 13 5ZM13 8C12.7348 8 12.4804 8.10536 12.2929 8.29289C12.1054 8.48043 12 8.73478 12 9C12 9.26522 12.1054 9.51957 12.2929 9.70711C12.4804 9.89464 12.7348 10 13 10C13.2652 10 13.5196 9.89464 13.7071 9.70711C13.8946 9.51957 14 9.26522 14 9C14 8.73478 13.8946 8.48043 13.7071 8.29289C13.5196 8.10536 13.2652 8 13 8Z" fill="url(#paint1_linear_10_10434)"/>
<defs>
<linearGradient id="paint0_linear_10_10434" x1="2" y1="8" x2="12" y2="8" gradientUnits="userSpaceOnUse">
<stop stop-color="#FDFC47"/>
<stop offset="1" stop-color="#24FE41"/>
</linearGradient>
<linearGradient id="paint1_linear_10_10434" x1="12" y1="6" x2="14" y2="6" gradientUnits="userSpaceOnUse">
<stop stop-color="#FDFC47"/>
<stop offset="1" stop-color="#24FE41"/>
</linearGradient>
</defs>
</svg>
