<svg width="16" height="16" viewBox="0 0 16 16" fill="none" xmlns="http://www.w3.org/2000/svg">
<path d="M2 2V14H14V13V10V9V3V2H2ZM3 3H5V5H3V3ZM6 3H9V5H6V3ZM10 3H13V5H10V3ZM3 6H5V9H3V6ZM6 6H9H10H13V9H6V6ZM3 10H5V11V12V13H3V12V11V10ZM6 10H13V13H10H9H6V10Z" fill="url(#paint0_linear_10_10439)"/>
<defs>
<linearGradient id="paint0_linear_10_10439" x1="2" y1="8" x2="14" y2="8" gradientUnits="userSpaceOnUse">
<stop stop-color="#FDFC47"/>
<stop offset="1" stop-color="#24FE41"/>
</linearGradient>
</defs>
</svg>
