<svg width="16" height="16" viewBox="0 0 16 16" fill="none" xmlns="http://www.w3.org/2000/svg">
<path d="M11 2V4H2V5H11V6.6523C10.8837 6.58958 10.7614 6.53857 10.635 6.5L10.627 6.498C10.1201 6.34529 9.57338 6.40001 9.10682 6.65013C8.64027 6.90026 8.29207 7.32533 8.1387 7.832C8.12261 7.88738 8.10894 7.94343 8.0977 8H7V6H6V8H2V9H6V10.654C5.88367 10.5907 5.76134 10.5391 5.6348 10.5L5.627 10.498C5.12013 10.3453 4.57338 10.4 4.10682 10.6501C3.64027 10.9003 3.29207 11.3253 3.1387 11.832C3.12261 11.8874 3.10894 11.9434 3.0977 12H2V13H3.1445C3.24072 13.3119 3.41191 13.5956 3.64311 13.826C3.8743 14.0565 4.15846 14.2268 4.4707 14.322C4.97623 14.4758 5.52209 14.423 5.9888 14.1752C6.45551 13.9275 6.80505 13.5049 6.9609 13H7H14V12H7.0039C7.00263 11.994 7.00133 11.988 7 11.982V9H8.1445C8.24091 9.31217 8.41241 9.59592 8.64397 9.8264C8.87553 10.0569 9.16009 10.2271 9.4727 10.322C9.97798 10.4752 10.5234 10.4221 10.9896 10.1744C11.4559 9.92669 11.8051 9.50446 11.961 9H12H14V8H12.004C12.0027 7.99413 12.0014 7.98826 12 7.9824V5H14V4H12V2H11ZM10.057 7.457C10.1432 7.45747 10.2289 7.4693 10.312 7.4922L10.338 7.5C10.5853 7.57572 10.7926 7.74612 10.9147 7.97406C11.0368 8.202 11.0639 8.46899 10.99 8.7168C10.916 8.96465 10.7469 9.17316 10.5197 9.29684C10.2925 9.42052 10.0257 9.44934 9.7773 9.377C9.52887 9.30454 9.31919 9.13674 9.19406 8.91022C9.06892 8.6837 9.03849 8.41688 9.1094 8.168C9.16807 7.96229 9.29245 7.78143 9.46356 7.65305C9.63467 7.52466 9.84309 7.45581 10.057 7.457ZM5.0566 11.457C5.14307 11.4573 5.22912 11.4691 5.3125 11.492L5.3379 11.5C5.58527 11.5757 5.79268 11.7461 5.91488 11.9741C6.03708 12.202 6.06416 12.4691 5.9902 12.717C5.91612 12.9649 5.74702 13.1734 5.51979 13.297C5.29256 13.4206 5.02565 13.4494 4.7773 13.377C4.52887 13.3045 4.31919 13.1367 4.19406 12.9102C4.06892 12.6837 4.03849 12.4169 4.1094 12.168C4.16805 11.9624 4.29238 11.7815 4.4634 11.6532C4.63443 11.5248 4.84276 11.4559 5.0566 11.457Z" fill="url(#paint0_linear_10_10459)"/>
<defs>
<linearGradient id="paint0_linear_10_10459" x1="2" y1="8.20424" x2="14" y2="8.20424" gradientUnits="userSpaceOnUse">
<stop stop-color="#FDFC47"/>
<stop offset="1" stop-color="#24FE41"/>
</linearGradient>
</defs>
</svg>
