<svg width="16" height="16" viewBox="0 0 16 16" fill="none" xmlns="http://www.w3.org/2000/svg">
<path d="M9.0132 2.00857V2.78591C8.8969 2.72251 8.7745 2.67081 8.648 2.63161L8.6402 2.62966C7.5848 2.3117 6.4713 2.90866 6.1519 3.96366C6.14782 3.97859 6.14391 3.99356 6.14018 4.00858H2.01318V5.00858H6.12448C6.28942 5.69723 6.8066 6.24708 7.48388 6.45388C7.58483 6.48412 7.68802 6.50633 7.79247 6.52029C7.01943 6.62605 6.37867 7.17219 6.15187 7.91869C6.14336 7.94845 6.13555 7.97841 6.12844 8.00853H2.01324V9.00853H6.13434C6.31187 9.67684 6.82237 10.2058 7.48394 10.4069C7.58425 10.4371 7.68678 10.4593 7.79058 10.4733C7.01828 10.5798 6.37848 11.1258 6.15188 11.8717C6.13855 11.9169 6.12682 11.9625 6.11672 12.0085H2.01322V13.0085H6.14602C6.33462 13.6567 6.83788 14.1659 7.48392 14.362C8.53942 14.6828 9.65512 14.0873 9.97612 13.0319L9.98202 13.0084H10.0133H14.0133V12.0084H10.0133V9.00842H14.0133V8.00842H10.0133V5.00842H14.0133V4.00842H10.0133V2.00842L9.0132 2.00857ZM8.0699 3.56127C8.15645 3.56228 8.24249 3.57476 8.32576 3.59838L8.35115 3.60424C8.86595 3.76164 9.15725 4.30504 9.00345 4.82104C8.85015 5.33784 8.30815 5.63364 7.79055 5.48314C7.27335 5.33234 6.97495 4.79224 7.12255 4.27414C7.24235 3.85074 7.6298 3.55917 8.0699 3.56127ZM9.01326 6.29757V6.73898C8.89686 6.67558 8.77446 6.62388 8.64796 6.58468L8.64016 6.58273C8.54166 6.55353 8.44116 6.53203 8.33936 6.51823C8.57536 6.48543 8.80366 6.41077 9.01326 6.29757ZM8.0699 7.51637C8.15636 7.51675 8.2424 7.52857 8.32576 7.55153L8.35115 7.55934C8.86595 7.71674 9.15725 8.26014 9.00345 8.77604C8.84925 9.29214 8.30755 9.58694 7.79055 9.43624C7.27335 9.28544 6.97495 8.74534 7.12255 8.22724C7.24315 7.80464 7.6304 7.51407 8.0699 7.51637ZM9.01326 10.2527V10.6941C8.89686 10.6311 8.77446 10.5791 8.64796 10.5401L8.64016 10.5382C8.54107 10.5089 8.43985 10.4874 8.33743 10.4737C8.57407 10.4412 8.80301 10.3661 9.01326 10.2527ZM8.0699 11.4715C8.15636 11.4718 8.2424 11.4837 8.32576 11.5066L8.35115 11.5125C8.86699 11.67 9.15857 12.2147 9.00349 12.7313C8.84929 13.2463 8.30759 13.5413 7.79059 13.3903C7.27339 13.2403 6.97499 12.7003 7.12259 12.1813C7.24319 11.7593 7.6304 11.4685 8.0699 11.4715Z" fill="url(#paint0_linear_10_10450)"/>
<defs>
<linearGradient id="paint0_linear_10_10450" x1="2.01318" y1="8.22862" x2="14.0133" y2="8.22862" gradientUnits="userSpaceOnUse">
<stop stop-color="#FDFC47"/>
<stop offset="1" stop-color="#24FE41"/>
</linearGradient>
</defs>
</svg>
