<svg width="16" height="16" viewBox="0 0 16 16" fill="none" xmlns="http://www.w3.org/2000/svg">
<path d="M8.3164 2.90035C7.6982 2.88975 7.0688 3.29625 6.5059 3.99995H2V4.99995H5.8691C5.4451 5.81285 5.1053 6.82775 4.8945 7.99995H2V8.99995H4.7422C4.714 9.27265 4.6884 9.54595 4.6719 9.82415C4.6825 9.72615 4.6946 9.62815 4.707 9.53115C4.7546 9.35525 4.8142 9.17745 4.8652 8.99995H9.1445C9.24094 9.31215 9.41248 9.59593 9.6441 9.82641C9.87571 10.0569 10.1603 10.227 10.473 10.3219C10.9782 10.4751 11.5235 10.4219 11.9897 10.1742C12.4559 9.92652 12.8051 9.50434 12.961 8.99995H14V7.99995H13.004C12.9307 7.65037 12.7651 7.32683 12.5243 7.06301C12.2835 6.7992 11.9764 6.60476 11.635 6.49995L11.627 6.49795C11.363 6.41922 11.0855 6.39597 10.812 6.42965C10.662 5.89185 10.515 5.42595 10.361 4.99995H14V3.99995H9.9023C9.7236 3.70085 9.5294 3.43835 9.2852 3.25775L9.2031 3.19915C8.9147 3.00605 8.6157 2.90455 8.3164 2.90035ZM8.1074 3.63865C8.199 3.62885 8.2925 3.63025 8.3867 3.64445C8.6205 3.67965 8.8627 3.81085 9.1113 3.99995H7.3184C7.5705 3.79955 7.8327 3.66795 8.1074 3.63865ZM6.4707 4.99995H9.998C10.259 5.38745 10.525 5.84675 10.799 6.42965C10.4164 6.4782 10.0561 6.63644 9.76148 6.88527C9.46686 7.13411 9.25057 7.46289 9.1387 7.83195C9.12261 7.88733 9.10894 7.94338 9.0977 7.99995H5.1641C5.5328 6.87235 5.9694 5.80255 6.4707 4.99995ZM11.057 7.45695C11.1432 7.45742 11.2289 7.46925 11.312 7.49215L11.338 7.49995C11.5853 7.57566 11.7926 7.74607 11.9147 7.97401C12.0368 8.20195 12.0639 8.46894 11.99 8.71675C11.916 8.96466 11.7469 9.17323 11.5196 9.29692C11.2923 9.42061 11.0254 9.44938 10.777 9.37695C10.5286 9.30451 10.3189 9.13671 10.1937 8.9102C10.0685 8.68368 10.0381 8.41684 10.109 8.16795C10.1677 7.96217 10.2921 7.78127 10.4633 7.65288C10.6345 7.52449 10.843 7.45567 11.057 7.45695ZM5.0977 10.4139C4.66105 10.4037 4.23306 10.5367 3.87926 10.7928C3.52545 11.0489 3.26532 11.4139 3.1387 11.8319C3.12261 11.8873 3.10894 11.9434 3.0977 11.9999H2V12.9999H3.1445C3.24072 13.3119 3.41191 13.5955 3.64311 13.826C3.8743 14.0564 4.15846 14.2267 4.4707 14.3219C4.97623 14.4757 5.52209 14.423 5.9888 14.1752C6.45551 13.9274 6.80505 13.5048 6.9609 12.9999H14V11.9999H7.0039C6.93063 11.6504 6.76497 11.3268 6.52418 11.063C6.28339 10.7992 5.97626 10.6047 5.6348 10.4999L5.627 10.4979C5.45514 10.4463 5.27711 10.418 5.0977 10.4139ZM5.0566 11.4569C5.14307 11.4573 5.22912 11.469 5.3125 11.4919L5.3379 11.4999C5.58527 11.5756 5.79268 11.746 5.91488 11.974C6.03708 12.202 6.06416 12.4691 5.9902 12.7169C5.91612 12.9648 5.74702 13.1733 5.51979 13.2969C5.29256 13.4206 5.02565 13.4494 4.7773 13.3769C4.52887 13.3045 4.31919 13.1367 4.19406 12.9102C4.06892 12.6837 4.03849 12.4168 4.1094 12.1679C4.16805 11.9623 4.29238 11.7815 4.4634 11.6531C4.63443 11.5247 4.84276 11.4558 5.0566 11.4569Z" fill="url(#paint0_linear_10_10453)"/>
<defs>
<linearGradient id="paint0_linear_10_10453" x1="2" y1="8.65428" x2="14" y2="8.65428" gradientUnits="userSpaceOnUse">
<stop stop-color="#FDFC47"/>
<stop offset="1" stop-color="#24FE41"/>
</linearGradient>
</defs>
</svg>
