<svg width="16" height="16" viewBox="0 0 16 16" fill="none" xmlns="http://www.w3.org/2000/svg">
<path d="M2 2V3H7V2H2ZM9 2V3H14V2H9ZM2 5V6H7V5H2ZM9 5V6H14V5H9Z" fill="url(#paint0_linear_10_10474)"/>
<path d="M6 7L4 8.5L6 10V9H8C8.554 9 9 9.446 9 10V11C9 12.108 9.892 13 11 13H13V12H11C10.446 12 10 11.554 10 11V10C10 8.892 9.108 8 8 8H6V7ZM12 7V8H11V9H12V10L14 8.5L12 7ZM5 12V13H8V12H5Z" fill="url(#paint1_linear_10_10474)"/>
<defs>
<linearGradient id="paint0_linear_10_10474" x1="2" y1="4" x2="14" y2="4" gradientUnits="userSpaceOnUse">
<stop stop-color="#FDFC47"/>
<stop offset="1" stop-color="#24FE41"/>
</linearGradient>
<linearGradient id="paint1_linear_10_10474" x1="4" y1="10" x2="14" y2="10" gradientUnits="userSpaceOnUse">
<stop stop-color="#FDFC47"/>
<stop offset="1" stop-color="#24FE41"/>
</linearGradient>
</defs>
</svg>
