<svg width="16" height="16" viewBox="0 0 16 16" fill="none" xmlns="http://www.w3.org/2000/svg">
<path d="M2 2V3H7V2H2ZM9 2V3H14V2H9ZM2 5V6H7V5H2ZM9 5V6H14V5H9ZM7 7L5 8.5L7 10V9H12C12.554 9 13 9.446 13 10H14C14 8.892 13.108 8 12 8H7V7Z" fill="url(#paint0_linear_10_10462)"/>
<path d="M12 11L14 12.5L12 14V13H7C5.892 13 5 12.108 5 11H6C6 11.554 6.446 12 7 12H12V11Z" fill="url(#paint1_linear_10_10462)"/>
<defs>
<linearGradient id="paint0_linear_10_10462" x1="2" y1="6" x2="14" y2="6" gradientUnits="userSpaceOnUse">
<stop stop-color="#FDFC47"/>
<stop offset="1" stop-color="#24FE41"/>
</linearGradient>
<linearGradient id="paint1_linear_10_10462" x1="5" y1="12.5" x2="14" y2="12.5" gradientUnits="userSpaceOnUse">
<stop stop-color="#FDFC47"/>
<stop offset="1" stop-color="#24FE41"/>
</linearGradient>
</defs>
</svg>
