<svg width="16" height="16" viewBox="0 0 16 16" fill="none" xmlns="http://www.w3.org/2000/svg">
<path d="M13.3008 2L10.6504 4.65039L9.58594 3.58594L6.58594 6.58594L9.41406 9.41406L12.4141 6.41406L11.3496 5.34961L14 2.69922L13.3008 2ZM5.58594 7.58594L3.58594 9.58594L4.65039 10.6504L2 13.3008L2.69922 14L5.34961 11.3496L6.41406 12.4141L8.41406 10.4141L5.58594 7.58594Z" fill="url(#paint0_linear_10_10479)"/>
<path d="M9 9.82995L10.667 11.4969L9 13.1639L9.833 13.9969L11.5 12.3299L13.167 13.9969L14 13.1639L12.333 11.4969L14 9.82995L13.167 8.99695L11.5 10.6639L9.833 8.99695L9 9.82995Z" fill="url(#paint1_linear_10_10479)"/>
<defs>
<linearGradient id="paint0_linear_10_10479" x1="2" y1="8" x2="14" y2="8" gradientUnits="userSpaceOnUse">
<stop stop-color="#FDFC47"/>
<stop offset="1" stop-color="#24FE41"/>
</linearGradient>
<linearGradient id="paint1_linear_10_10479" x1="9" y1="11.4969" x2="14" y2="11.4969" gradientUnits="userSpaceOnUse">
<stop stop-color="#FDFC47"/>
<stop offset="1" stop-color="#24FE41"/>
</linearGradient>
</defs>
</svg>
