<svg width="16" height="16" viewBox="0 0 16 16" fill="none" xmlns="http://www.w3.org/2000/svg">
<path d="M5 2V10.281C4.705 10.11 4.365 10 4 10C2.895 10 2 10.895 2 12C2 13.105 2.895 14 4 14C5.105 14 6 13.105 6 12V5H13V9.281C12.705 9.11 12.365 9 12 9C10.895 9 10 9.895 10 11C10 12.105 10.895 13 12 13C13.105 13 14 12.105 14 11V2H5ZM6 3H13V4H6V3Z" fill="url(#paint0_linear_10_10482)"/>
<defs>
<linearGradient id="paint0_linear_10_10482" x1="2" y1="8" x2="14" y2="8" gradientUnits="userSpaceOnUse">
<stop stop-color="#FDFC47"/>
<stop offset="1" stop-color="#24FE41"/>
</linearGradient>
</defs>
</svg>
