<svg width="16" height="16" viewBox="0 0 16 16" fill="none" xmlns="http://www.w3.org/2000/svg">
<path d="M1.00391 2C1.00564 4.1626 1.61296 6.25209 2.71476 7.88613C3.81655 9.52017 5.33914 10.5895 7.00391 10.8984V9.87891C5.60698 9.56408 4.33868 8.60032 3.42356 7.15829C2.50843 5.71626 2.00554 3.88898 2.00391 2H1.00391ZM14.0039 2C14.0037 3.89032 13.5014 5.71947 12.5861 7.16312C11.6709 8.60677 10.4018 9.57166 9.00391 9.88672V10.8965C10.6682 10.5876 12.1903 9.51888 13.2921 7.88565C14.3938 6.25243 15.0014 4.16388 15.0039 2.00195L14.0039 2ZM3.50391 10C3.10608 10 2.72455 10.158 2.44325 10.4393C2.16194 10.7206 2.00391 11.1022 2.00391 11.5C2.00391 11.8978 2.16194 12.2794 2.44325 12.5607C2.72455 12.842 3.10608 13 3.50391 13C3.81407 13 4.1166 12.9038 4.36984 12.7247C4.62308 12.5456 4.81458 12.2924 4.91797 12H7V11H4.91797C4.81458 10.7076 4.62308 10.4544 4.36984 10.2753C4.1166 10.0962 3.81407 10 3.50391 10ZM13.5039 10C13.1941 10.0004 12.892 10.0968 12.6391 10.2759C12.3863 10.4549 12.1951 10.7079 12.0918 11H11V12H12.0918C12.1951 12.2921 12.3863 12.5451 12.6391 12.7241C12.892 12.9032 13.1941 12.9996 13.5039 13C13.9017 13 14.2833 12.842 14.5646 12.5607C14.8459 12.2794 15.0039 11.8978 15.0039 11.5C15.0039 11.1022 14.8459 10.7206 14.5646 10.4393C14.2833 10.158 13.9017 10 13.5039 10ZM3.50391 11C3.62629 11.0001 3.74438 11.0451 3.83581 11.1265C3.92724 11.2078 3.98566 11.3199 4 11.4414V11.5625C3.98478 11.6833 3.92598 11.7945 3.83463 11.875C3.74329 11.9556 3.62569 12 3.50391 12C3.3713 12 3.24412 11.9473 3.15035 11.8536C3.05658 11.7598 3.00391 11.6326 3.00391 11.5C3.00391 11.3674 3.05658 11.2402 3.15035 11.1464C3.24412 11.0527 3.3713 11 3.50391 11ZM13.5039 11C13.6365 11 13.7637 11.0527 13.8575 11.1464C13.9512 11.2402 14.0039 11.3674 14.0039 11.5C14.0039 11.6326 13.9512 11.7598 13.8575 11.8536C13.7637 11.9473 13.6365 12 13.5039 12C13.3713 12 13.2441 11.9473 13.1504 11.8536C13.0566 11.7598 13.0039 11.6326 13.0039 11.5C13.0039 11.3674 13.0566 11.2402 13.1504 11.1464C13.2441 11.0527 13.3713 11 13.5039 11Z" fill="url(#paint0_linear_10_10503)"/>
<path d="M6 9V13H10V9H6ZM7 10H9V12H7V10Z" fill="url(#paint1_linear_10_10503)"/>
<defs>
<linearGradient id="paint0_linear_10_10503" x1="1.00391" y1="7.5" x2="15.0039" y2="7.5" gradientUnits="userSpaceOnUse">
<stop stop-color="#FDFC47"/>
<stop offset="1" stop-color="#24FE41"/>
</linearGradient>
<linearGradient id="paint1_linear_10_10503" x1="6" y1="11" x2="10" y2="11" gradientUnits="userSpaceOnUse">
<stop stop-color="#FDFC47"/>
<stop offset="1" stop-color="#24FE41"/>
</linearGradient>
</defs>
</svg>
