<svg width="16" height="16" viewBox="0 0 16 16" fill="none" xmlns="http://www.w3.org/2000/svg">
<path d="M2 2V14H14V2H3H2ZM3 3H13V13H3V5V3ZM6 4C4.895 4 4 4.895 4 6C4 7.105 4.895 8 6 8C7.105 8 8 7.105 8 6C8 4.895 7.105 4 6 4ZM9 4V8H12V4H9ZM5 9V12H7V9H5ZM10.5 9L9 12H12L10.5 9Z" fill="url(#paint0_linear_10_10524)"/>
<defs>
<linearGradient id="paint0_linear_10_10524" x1="2" y1="8" x2="14" y2="8" gradientUnits="userSpaceOnUse">
<stop stop-color="#FDFC47"/>
<stop offset="1" stop-color="#24FE41"/>
</linearGradient>
</defs>
</svg>
