<svg width="16" height="16" viewBox="0 0 16 16" fill="none" xmlns="http://www.w3.org/2000/svg">
<path d="M4 2V7H6V9H4V14H12V9H10V7H12V2H4ZM5 3H11V6H5V3ZM2 4V5H3V4H2ZM13 4V5H14V4H13ZM7 7H9V9H7V7ZM5 10H11V13H5V10ZM2 11V12H3V11H2ZM6 11V12H10V11H6ZM13 11V12H14V11H13Z" fill="url(#paint0_linear_10_10522)"/>
<defs>
<linearGradient id="paint0_linear_10_10522" x1="2" y1="8" x2="14" y2="8" gradientUnits="userSpaceOnUse">
<stop stop-color="#FDFC47"/>
<stop offset="1" stop-color="#24FE41"/>
</linearGradient>
</defs>
</svg>
