<svg width="16" height="16" viewBox="0 0 16 16" fill="none" xmlns="http://www.w3.org/2000/svg">
<path d="M7.5 2C7.223 2 7 2.22299 7 2.5C7 2.77701 7.223 3 7.5 3C7.777 3 8 2.77701 8 2.5C8 2.22299 7.777 2 7.5 2ZM2.5 3C2.22299 3 2 3.22299 2 3.5C2 3.77701 2.22299 4 2.5 4C2.77701 4 3 3.77701 3 3.5C3 3.22299 2.77701 3 2.5 3ZM7 3C5.09856 3 3.41221 3.87831 2.31445 5.25L5.44336 7.75391C5.80929 7.2971 6.36652 7 7 7V6.5V4.5V3ZM7 4.5C7 4.77701 7.223 5 7.5 5C7.777 5 8 4.77701 8 4.5C8 4.22299 7.777 4 7.5 4C7.223 4 7 4.22299 7 4.5ZM7 6.5C7 6.77701 7.223 7 7.5 7C7.777 7 8 6.77701 8 6.5C8 6.22299 7.777 6 7.5 6C7.223 6 7 6.22299 7 6.5ZM10.709 3.06445L8.05859 7.30664C8.57805 7.6315 8.92888 8.18791 8.98242 8.83398L13.9707 8.41797C13.7852 6.15217 12.531 4.20224 10.709 3.06445ZM3.5 8C3.22299 8 3 8.22299 3 8.5C3 8.77701 3.22299 9 3.5 9C3.77701 9 4 8.77701 4 8.5C4 8.22299 3.77701 8 3.5 8ZM5.5 8C5.22299 8 5 8.22299 5 8.5C5 8.77701 5.22299 9 5.5 9C5.77701 9 6 8.77701 6 8.5C6 8.22299 5.77701 8 5.5 8ZM7.5 8C7.223 8 7 8.22299 7 8.5C7 8.77701 7.223 9 7.5 9C7.777 9 8 8.77701 8 8.5C8 8.22299 7.777 8 7.5 8ZM7.5 10C7.223 10 7 10.223 7 10.5C7 10.777 7.223 11 7.5 11C7.777 11 8 10.777 8 10.5C8 10.223 7.777 10 7.5 10ZM9.5 10C9.223 10 9 10.223 9 10.5C9 10.777 9.223 11 9.5 11C9.777 11 10 10.777 10 10.5C10 10.223 9.777 10 9.5 10ZM5.58398 10.416L3.46094 12.5391C4.36469 13.4428 5.615 14 7 14V12.5V11C6.446 11 5.94548 10.7775 5.58398 10.416ZM7 12.5C7 12.777 7.223 13 7.5 13C7.777 13 8 12.777 8 12.5C8 12.223 7.777 12 7.5 12C7.223 12 7 12.223 7 12.5ZM11.5 12C11.223 12 11 12.223 11 12.5C11 12.777 11.223 13 11.5 13C11.777 13 12 12.777 12 12.5C12 12.223 11.777 12 11.5 12Z" fill="url(#paint0_linear_10_10576)"/>
<defs>
<linearGradient id="paint0_linear_10_10576" x1="2" y1="8" x2="13.9707" y2="8" gradientUnits="userSpaceOnUse">
<stop stop-color="#FDFC47"/>
<stop offset="1" stop-color="#24FE41"/>
</linearGradient>
</defs>
</svg>
