<svg width="16" height="16" viewBox="0 0 16 16" fill="none" xmlns="http://www.w3.org/2000/svg">
<path d="M8 2C7.70962 2.00242 7.41979 2.02592 7.13281 2.07031C6.94499 2.09791 6.75858 2.13441 6.57422 2.17969C6.54096 2.18657 6.50775 2.19373 6.47461 2.20117C6.44896 2.20788 6.42375 2.21523 6.39844 2.22266C6.26485 2.26037 6.13261 2.30272 6.00195 2.34961C5.95357 2.36527 5.90539 2.38155 5.85742 2.39844C5.82377 2.41129 5.79076 2.42526 5.75781 2.43945C5.66301 2.47871 5.56923 2.52039 5.47656 2.56445C5.41557 2.59079 5.35501 2.61814 5.29492 2.64648C5.27092 2.65862 5.24787 2.67225 5.22461 2.68555C5.12676 2.73755 5.03037 2.79226 4.93555 2.84961C4.87573 2.88245 4.81648 2.91631 4.75781 2.95117C4.73228 2.9692 4.70689 2.98743 4.68164 3.00586C4.59951 3.06114 4.51875 3.11845 4.43945 3.17773C4.3821 3.21776 4.32545 3.25878 4.26953 3.30078C4.24857 3.31887 4.22774 3.3371 4.20703 3.35547C4.11755 3.43038 4.03027 3.50789 3.94531 3.58789C3.89408 3.63293 3.84165 3.67664 3.79297 3.72461C3.78185 3.73628 3.77079 3.748 3.75977 3.75977C3.66177 3.85994 3.56731 3.96352 3.47656 4.07031C3.44074 4.11003 3.40313 4.14814 3.36914 4.18945C3.36523 4.19466 3.36132 4.19986 3.35742 4.20508C2.48091 5.2757 2.00137 6.61635 2 8C2 9.5913 2.63215 11.1174 3.75736 12.2426C4.88258 13.3679 6.4087 14 8 14C9.5913 14 11.1174 13.3679 12.2426 12.2426C13.3679 11.1174 14 9.5913 14 8C13.9979 7.23123 13.848 6.47003 13.5586 5.75781C13.1118 4.64896 12.344 3.69883 11.3537 3.02929C10.3633 2.35976 9.19547 2.00134 8 2ZM8 3C8.93645 3.00234 9.85343 3.26762 10.6465 3.76562L9.05859 6.30664C9.57805 6.6315 9.92888 7.18791 9.98242 7.83398L12.9805 7.58398C12.9928 7.72232 12.9993 7.86112 13 8C13 9.32608 12.4732 10.5979 11.5355 11.5355C10.5979 12.4732 9.32608 13 8 13V11.5V10C7.446 10 6.94548 9.77752 6.58398 9.41602L4.4668 11.5332C3.52883 10.5965 3.00124 9.32561 3 8C3.00166 6.86498 3.38945 5.76431 4.09961 4.87891L6.44336 6.75391C6.80929 6.2971 7.36652 6 8 6V5.5V3.5V3ZM4.56445 11.625C4.74571 11.7968 4.93702 11.9584 5.14258 12.1016C4.93822 11.9574 4.74497 11.7981 4.56445 11.625ZM5.29883 12.2012C5.51253 12.3385 5.73614 12.4624 5.9707 12.5664C5.73775 12.462 5.51313 12.3399 5.29883 12.2012ZM6.12891 12.6328C6.39372 12.7394 6.66781 12.8263 6.95312 12.8867C6.67159 12.826 6.39582 12.741 6.12891 12.6328Z" fill="url(#paint0_linear_10_10574)"/>
<defs>
<linearGradient id="paint0_linear_10_10574" x1="2" y1="8" x2="14" y2="8" gradientUnits="userSpaceOnUse">
<stop stop-color="#FDFC47"/>
<stop offset="1" stop-color="#24FE41"/>
</linearGradient>
</defs>
</svg>
