<svg width="16" height="16" viewBox="0 0 16 16" fill="none" xmlns="http://www.w3.org/2000/svg">
<path d="M8 2C4.676 2 2 4.676 2 8C2 11.324 4.676 14 8 14C11.324 14 14 11.324 14 8C14 7.11822 13.8075 6.28397 13.4688 5.53125L12.6875 6.3125C12.8772 6.84177 13 7.40386 13 8C13 10.77 10.77 13 8 13C5.23 13 3 10.77 3 8C3 5.23 5.23 3 8 3C9.64157 3 11.0797 3.79514 11.9902 5.00977L12.7129 4.28711C11.616 2.89471 9.91806 2 8 2ZM8 4C6.892 4 5.89292 4.44692 5.16992 5.16992L5.87695 5.87695C6.4192 5.3347 7.169 5 8 5C9.662 5 11 6.338 11 8C11 9.662 9.662 11 8 11C6.338 11 5 9.662 5 8C5 7.69815 5.0565 7.41307 5.13867 7.13867L4.35742 6.35742C4.13183 6.859 4 7.41251 4 8C4 10.216 5.784 12 8 12C10.216 12 12 10.216 12 8C12 5.784 10.216 4 8 4ZM8 6C7.46957 6 6.96086 6.21071 6.58579 6.58579C6.21071 6.96086 6 7.46957 6 8C6 8.53043 6.21071 9.03914 6.58579 9.41421C6.96086 9.78929 7.46957 10 8 10C8.44323 9.99979 8.87383 9.85235 9.22417 9.58085C9.57451 9.30935 9.82474 8.92916 9.93555 8.5H8.86328C8.77575 8.65162 8.64994 8.7776 8.49844 8.86534C8.34695 8.95308 8.17507 8.99952 8 9C7.73478 9 7.48043 8.89464 7.29289 8.70711C7.10536 8.51957 7 8.26522 7 8C7 7.73478 7.10536 7.48043 7.29289 7.29289C7.48043 7.10536 7.73478 7 8 7C8.1754 7.00014 8.34768 7.04641 8.49955 7.13417C8.65142 7.22193 8.77753 7.3481 8.86523 7.5H9.93359C9.82287 7.07117 9.57294 6.69122 9.22299 6.41975C8.87305 6.14828 8.4429 6.00064 8 6Z" fill="url(#paint0_linear_10_10578)"/>
<defs>
<linearGradient id="paint0_linear_10_10578" x1="2" y1="8" x2="14" y2="8" gradientUnits="userSpaceOnUse">
<stop stop-color="#FDFC47"/>
<stop offset="1" stop-color="#24FE41"/>
</linearGradient>
</defs>
</svg>
