<svg width="16" height="16" viewBox="0 0 16 16" fill="none" xmlns="http://www.w3.org/2000/svg">
<path d="M13 2.00002V2.59602H12.99C12.99 2.59602 13.041 3.52002 12.896 4.40502C12.824 4.84702 12.697 5.26902 12.539 5.52802C12.381 5.78702 12.255 5.88902 11.994 5.88702C11.807 5.88602 11.688 5.79602 11.502 5.49602C11.316 5.19602 11.135 4.72202 10.951 4.22602C10.767 3.73002 10.584 3.21202 10.297 2.77302C10.009 2.33302 9.52302 1.94702 8.94502 2.00702C8.40802 2.06402 8.03402 2.52602 7.85102 2.97802C7.66802 3.43002 7.58802 3.92702 7.50502 4.39402C7.42202 4.86202 7.33602 5.30102 7.22802 5.56802C7.12002 5.83502 7.07802 5.87502 6.94702 5.88802C6.77002 5.90702 6.68702 5.84802 6.50602 5.55802C6.32402 5.26802 6.14102 4.78302 5.95702 4.27502C5.77302 3.76702 5.58902 3.23202 5.30302 2.78102C5.01602 2.33002 4.52102 1.93002 3.93602 2.01002C3.35602 2.08902 2.95502 2.56302 2.70402 3.07302C2.45302 3.58202 2.30502 4.17502 2.20402 4.74902C2.00302 5.89702 2.00102 6.99302 2.00102 6.99302L3.00102 6.99902C3.00102 6.99902 3.00802 5.98102 3.18702 4.96202C3.27602 4.45202 3.41102 3.94802 3.58002 3.60702C3.74802 3.26602 3.90102 3.13502 4.06002 3.11302C4.23702 3.08902 4.30802 3.13902 4.48802 3.42202C4.66702 3.70402 4.84902 4.18402 5.03302 4.69202C5.21702 5.20002 5.40202 5.73902 5.68702 6.19402C5.97202 6.64902 6.45702 7.05902 7.04402 6.99702C7.58102 6.94002 7.95702 6.47802 8.14002 6.02602C8.32302 5.57402 8.40302 5.07702 8.48602 4.61002C8.56902 4.14202 8.65502 3.70302 8.76302 3.43602C8.87102 3.16902 8.91102 3.12902 9.04202 3.11602C9.22902 3.09602 9.30902 3.15302 9.48702 3.42502C9.66502 3.69702 9.84702 4.15802 10.03 4.65202C10.213 5.14602 10.397 5.67302 10.678 6.12702C10.959 6.58102 11.409 6.99702 11.991 7.00002C12.591 7.00302 13.081 6.62202 13.366 6.15402C13.651 5.68702 13.793 5.13602 13.88 4.60702C13.989 3.94002 14.001 3.39402 13.997 3.00302H14.001V2.00302L13 2.00002ZM5.00002 8.00002C4.58302 8.00002 4.22502 8.17102 3.86102 8.37902C3.49702 8.58702 3.13702 8.84902 2.81202 9.10902C2.49202 9.36502 2.20902 9.61902 1.99902 9.81202V11.207L2.35302 10.853C2.35302 10.853 2.83702 10.37 3.43702 9.89002C3.73702 9.65002 4.06402 9.41302 4.35702 9.24502C4.64902 9.07802 4.91602 8.99902 5.00002 8.99902C5.75002 8.99902 6.41202 9.60602 7.16802 10.354C7.92402 11.103 8.77102 11.999 10 11.999C11.167 11.999 12.235 11.443 13.03 10.915C13.439 10.643 13.769 10.378 14.003 10.177V8.79202L13.649 9.14602C13.649 9.14602 13.183 9.61202 12.475 10.083C11.768 10.555 10.836 10.999 10.002 10.999C9.28702 10.999 8.63302 10.395 7.87502 9.64402C7.11702 8.89302 6.25202 7.99902 5.00202 7.99902M2.00202 12.999V13.999H14.002V12.999H2.00202Z" fill="url(#paint0_linear_10_10659)"/>
<defs>
<linearGradient id="paint0_linear_10_10659" x1="1.99902" y1="7.99939" x2="14.003" y2="7.99939" gradientUnits="userSpaceOnUse">
<stop stop-color="#FDFC47"/>
<stop offset="1" stop-color="#24FE41"/>
</linearGradient>
</defs>
</svg>
