<svg width="16" height="16" viewBox="0 0 16 16" fill="none" xmlns="http://www.w3.org/2000/svg">
<path d="M14.0039 2C11.0864 2.00374 8.27017 3.07024 6.08203 5H7.00391V5.52539C8.97299 3.89593 11.448 3.003 14.0039 3V2ZM5.00391 6.08594C3.07592 8.27205 2.00955 11.0852 2.00391 14H3.00391C3.00581 11.4446 3.89733 8.96962 5.52539 7H5.00391V6.08594ZM14.0039 8C12.4126 8 10.8865 8.63214 9.76127 9.75736C8.63605 10.8826 8.00391 12.4087 8.00391 14H9.00391C9.00391 12.6739 9.53069 11.4021 10.4684 10.4645C11.4061 9.52678 12.6778 9 14.0039 9V8Z" fill="url(#paint0_linear_10_10650)"/>
<path d="M4 4V8H8V4H4ZM5 5H7V7H5V5Z" fill="url(#paint1_linear_10_10650)"/>
<defs>
<linearGradient id="paint0_linear_10_10650" x1="2.00391" y1="8" x2="14.0039" y2="8" gradientUnits="userSpaceOnUse">
<stop stop-color="#FDFC47"/>
<stop offset="1" stop-color="#24FE41"/>
</linearGradient>
<linearGradient id="paint1_linear_10_10650" x1="4" y1="6" x2="8" y2="6" gradientUnits="userSpaceOnUse">
<stop stop-color="#FDFC47"/>
<stop offset="1" stop-color="#24FE41"/>
</linearGradient>
</defs>
</svg>
