<svg width="16" height="16" viewBox="0 0 16 16" fill="none" xmlns="http://www.w3.org/2000/svg">
<path d="M9 2.03125C8.55142 2.08125 8.11292 2.19844 7.69922 2.37891L8.203 3.252C8.45934 3.14985 8.72687 3.07838 9 3.03906V2.03125ZM10 2.033V3.041C10.273 3.07968 10.5405 3.15049 10.7969 3.25195L11.299 2.383C10.886 2.20197 10.4481 2.08385 10 2.033ZM6.83398 2.88086C6.47022 3.14891 6.14891 3.47022 5.88086 3.83398L6.754 4.336C6.92357 4.1185 7.11824 3.9218 7.33398 3.75L6.83398 2.88086ZM12.166 2.881L11.664 3.754C11.8815 3.92357 12.0782 4.11824 12.25 4.33398L13.12 3.834C12.8517 3.47017 12.5301 3.14899 12.166 2.881ZM13.621 4.699L12.748 5.203C12.8501 5.45934 12.9216 5.72687 12.9609 6H13.969C13.9189 5.55141 13.8016 5.11269 13.621 4.699ZM5.38281 4.70117C5.20186 5.11415 5.08401 5.55199 5.0332 6H2V14H10V10.969C10.4486 10.9189 10.8871 10.8016 11.3008 10.6211L10.797 9.748C10.5258 9.85515 10.2424 9.92799 9.95312 9.96484C9.86755 9.97714 9.78156 9.98626 9.69531 9.99219C9.63029 9.99661 9.56516 9.99921 9.5 10C9.33257 9.99831 9.16547 9.9846 9 9.95898C8.2535 9.85069 7.56197 9.50413 7.02842 8.97093C6.49486 8.43773 6.14784 7.74642 6.03906 7C6.0141 6.83448 6.00105 6.66739 6 6.5C6.0017 6.33257 6.0154 6.16547 6.04102 6C6.0797 5.72699 6.1505 5.45951 6.25195 5.20312L5.38281 4.70117ZM3 7H5.03C5.14446 8.01316 5.5996 8.95742 6.32086 9.6781C7.04212 10.3988 7.98675 10.8532 9 10.9668V13H3V7ZM12.959 7C12.9203 7.27301 12.8495 7.54049 12.748 7.79688L13.617 8.299C13.798 7.88597 13.9159 7.44808 13.9668 7H12.959ZM12.2461 8.66406C12.0765 8.88155 11.8818 9.07822 11.666 9.25L12.166 10.119C12.5298 9.85099 12.8511 9.52973 13.1191 9.16602L12.2461 8.66406Z" fill="url(#paint0_linear_10_10623)"/>
<path d="M3 7V13H9V9.959C8.2535 9.85071 7.56197 9.50415 7.02842 8.97095C6.49486 8.43775 6.14785 7.74644 6.03906 7.00002L3 7Z" fill="url(#paint1_linear_10_10623)" fill-opacity="0.5"/>
<defs>
<linearGradient id="paint0_linear_10_10623" x1="2" y1="8.01562" x2="13.969" y2="8.01562" gradientUnits="userSpaceOnUse">
<stop stop-color="#FDFC47"/>
<stop offset="1" stop-color="#24FE41"/>
</linearGradient>
<linearGradient id="paint1_linear_10_10623" x1="3" y1="10" x2="9" y2="10" gradientUnits="userSpaceOnUse">
<stop stop-color="#FDFC47"/>
<stop offset="1" stop-color="#24FE41"/>
</linearGradient>
</defs>
</svg>
