<svg width="16" height="16" viewBox="0 0 16 16" fill="none" xmlns="http://www.w3.org/2000/svg">
<path d="M9.5 3C8.57174 3 7.6815 3.36875 7.02513 4.02513C6.36875 4.6815 6 5.57174 6 6.5C6.00105 6.66739 6.0141 6.83448 6.03906 7H3V13H9V9.95898C9.16547 9.9846 9.33257 9.99831 9.5 10C10.4283 10 11.3185 9.63125 11.9749 8.97487C12.6313 8.3185 13 7.42826 13 6.5C13 5.57174 12.6313 4.6815 11.9749 4.02513C11.3185 3.36875 10.4283 3 9.5 3Z" fill="url(#paint0_linear_10_10615)" fill-opacity="0.5"/>
<path d="M9.50391 2C8.39793 2.00131 7.33117 2.40987 6.50726 3.14768C5.68334 3.88548 5.16 4.90087 5.03711 6H2V14H10V10.9707C11.1005 10.8486 12.1174 10.3251 12.8561 9.50029C13.5948 8.67547 14.0034 7.60725 14.0039 6.5C14.0039 5.30653 13.5298 4.16193 12.6859 3.31802C11.842 2.47411 10.6974 2 9.50391 2ZM9.50391 3C10.4322 3 11.3224 3.36875 11.9788 4.02513C12.6352 4.6815 13.0039 5.57174 13.0039 6.5C13.003 7.34167 12.6988 8.15483 12.1471 8.79046C11.5954 9.4261 10.8332 9.84164 10 9.96094V6H6.04492C6.16503 5.16787 6.58066 4.40679 7.2158 3.85592C7.85095 3.30506 8.66316 3.00123 9.50391 3ZM3 7H5.03516C5.14939 8.01238 5.60379 8.95604 6.32401 9.67662C7.04424 10.3972 7.98767 10.8521 9 10.9668V13H3V7ZM6.04297 7H9V9.95898C8.25421 9.84992 7.56356 9.50301 7.03077 8.96988C6.49799 8.43674 6.15154 7.74586 6.04297 7Z" fill="url(#paint1_linear_10_10615)"/>
<defs>
<linearGradient id="paint0_linear_10_10615" x1="3" y1="8" x2="13" y2="8" gradientUnits="userSpaceOnUse">
<stop stop-color="#FDFC47"/>
<stop offset="1" stop-color="#24FE41"/>
</linearGradient>
<linearGradient id="paint1_linear_10_10615" x1="2" y1="8" x2="14.0039" y2="8" gradientUnits="userSpaceOnUse">
<stop stop-color="#FDFC47"/>
<stop offset="1" stop-color="#24FE41"/>
</linearGradient>
</defs>
</svg>
