<svg width="16" height="16" viewBox="0 0 16 16" fill="none" xmlns="http://www.w3.org/2000/svg">
<path d="M9.5 2C8.39402 2.00131 7.32726 2.40987 6.50335 3.14768C5.67944 3.88548 5.15609 4.90087 5.0332 6H2V14H10V10.9688C11.0995 10.8458 12.1151 10.3222 12.853 9.49788C13.5908 8.67356 13.9992 7.60631 14 6.5C14 5.30653 13.5259 4.16193 12.682 3.31802C11.8381 2.47411 10.6935 2 9.5 2ZM9.5 3C10.4283 3 11.3185 3.36875 11.9749 4.02513C12.6313 4.6815 13 5.57174 13 6.5C13 7.42826 12.6313 8.3185 11.9749 8.97487C11.3185 9.63125 10.4283 10 9.5 10C8.57174 10 7.6815 9.63125 7.02513 8.97487C6.36875 8.3185 6 7.42826 6 6.5C6 5.57174 6.36875 4.6815 7.02513 4.02513C7.6815 3.36875 8.57174 3 9.5 3ZM3 7H5.03125C5.14566 8.01297 5.60061 8.95708 6.32162 9.67774C7.04264 10.3984 7.98697 10.8529 9 10.9668V13H3V7Z" fill="url(#paint0_linear_10_10661)"/>
<path d="M9.5 3C8.57174 3 7.6815 3.36875 7.02513 4.02513C6.36875 4.6815 6 5.57174 6 6.5C6.00105 6.66739 6.0141 6.83448 6.03906 7H3V13H9V9.95898C9.16547 9.9846 9.33257 9.99831 9.5 10C10.4283 10 11.3185 9.63125 11.9749 8.97487C12.6313 8.3185 13 7.42826 13 6.5C13 5.57174 12.6313 4.6815 11.9749 4.02513C11.3185 3.36875 10.4283 3 9.5 3Z" fill="url(#paint1_linear_10_10661)" fill-opacity="0.5"/>
<defs>
<linearGradient id="paint0_linear_10_10661" x1="2" y1="8" x2="14" y2="8" gradientUnits="userSpaceOnUse">
<stop stop-color="#FDFC47"/>
<stop offset="1" stop-color="#24FE41"/>
</linearGradient>
<linearGradient id="paint1_linear_10_10661" x1="3" y1="8" x2="13" y2="8" gradientUnits="userSpaceOnUse">
<stop stop-color="#FDFC47"/>
<stop offset="1" stop-color="#24FE41"/>
</linearGradient>
</defs>
</svg>
