<svg width="16" height="16" viewBox="0 0 16 16" fill="none" xmlns="http://www.w3.org/2000/svg">
<path d="M8 2C6.75498 2.00181 5.54135 2.39088 4.52734 3.11328L5.24609 3.83203C6.06273 3.29089 7.02034 3.00157 8 3C9.32608 3 10.5979 3.52678 11.5355 4.46447C12.4732 5.40215 13 6.67392 13 8C12.9984 8.97966 12.7091 9.93727 12.168 10.7539L12.8848 11.4707C13.6075 10.4575 13.9972 9.24457 14 8C14 7.21207 13.8448 6.43185 13.5433 5.7039C13.2418 4.97595 12.7998 4.31451 12.2426 3.75736C11.6855 3.20021 11.0241 2.75825 10.2961 2.45672C9.56815 2.15519 8.78793 2 8 2ZM3.11523 4.5293C2.39252 5.54253 2.00278 6.75543 2 8C2 8.78793 2.15519 9.56815 2.45672 10.2961C2.75825 11.0241 3.2002 11.6855 3.75735 12.2426C4.31451 12.7998 4.97594 13.2417 5.7039 13.5433C6.43185 13.8448 7.21207 14 8 14C9.24502 13.9982 10.4586 13.6091 11.4727 12.8867L10.7539 12.168C9.93727 12.7091 8.97966 12.9984 8 13C6.67392 13 5.40215 12.4732 4.46447 11.5355C3.52678 10.5979 3 9.32608 3 8C3.00157 7.02034 3.29089 6.06273 3.83203 5.24609L3.11523 4.5293ZM5 7V9H11V7H5Z" fill="url(#paint0_linear_10_10726)"/>
<defs>
<linearGradient id="paint0_linear_10_10726" x1="2" y1="8" x2="14" y2="8" gradientUnits="userSpaceOnUse">
<stop stop-color="#FDFC47"/>
<stop offset="1" stop-color="#24FE41"/>
</linearGradient>
</defs>
</svg>
