<svg width="16" height="16" viewBox="0 0 16 16" fill="none" xmlns="http://www.w3.org/2000/svg">
<path d="M7.24805 1.99805L3 2L2 3V4.3125L6 9.96875V12L7 12.5V9.625L3 4V3H13V4L10.8672 7H12.0996L13.998 4.3125V2.99805L12.998 1.99805H7.24805Z" fill="url(#paint0_linear_10_10758)"/>
<path d="M8.99 8L8 8.99L10.01 11L8 13.01L8.99 14L11 11.99L13.01 14L14 13.01L11.99 11L14 8.99L13.01 8L11 10.01L8.99 8Z" fill="url(#paint1_linear_10_10758)"/>
<defs>
<linearGradient id="paint0_linear_10_10758" x1="2" y1="7.24902" x2="13.998" y2="7.24902" gradientUnits="userSpaceOnUse">
<stop stop-color="#FDFC47"/>
<stop offset="1" stop-color="#24FE41"/>
</linearGradient>
<linearGradient id="paint1_linear_10_10758" x1="8" y1="11" x2="14" y2="11" gradientUnits="userSpaceOnUse">
<stop stop-color="#FDFC47"/>
<stop offset="1" stop-color="#24FE41"/>
</linearGradient>
</defs>
</svg>
