<svg width="16" height="16" viewBox="0 0 16 16" fill="none" xmlns="http://www.w3.org/2000/svg">
<path d="M11.5 2C10.837 2 10.2011 2.26339 9.73223 2.73223C9.26339 3.20107 9 3.83696 9 4.5C9 5.16304 9.26339 5.79893 9.73223 6.26777C10.2011 6.73661 10.837 7 11.5 7C11.8283 7 12.1534 6.93534 12.4567 6.8097C12.76 6.68406 13.0356 6.49991 13.2678 6.26777C13.4999 6.03562 13.6841 5.76002 13.8097 5.45671C13.9353 5.15339 14 4.8283 14 4.5C14 3.83696 13.7366 3.20107 13.2678 2.73223C12.7989 2.26339 12.163 2 11.5 2ZM5.5 4C4.83696 4 4.20107 4.26339 3.73223 4.73223C3.26339 5.20107 3 5.83696 3 6.5C3 7.16304 3.26339 7.79893 3.73223 8.26777C4.20107 8.73661 4.83696 9 5.5 9C6.16304 9 6.79893 8.73661 7.26777 8.26777C7.73661 7.79893 8 7.16304 8 6.5C8 5.83696 7.73661 5.20107 7.26777 4.73223C6.79893 4.26339 6.16304 4 5.5 4ZM11 8.07227C10.4602 8.18851 9.95186 8.44834 9.51619 8.83074C9.08052 9.21313 8.72973 9.70736 8.49219 10.2734C8.71311 10.4931 8.91395 10.7365 9.0918 11H9.29297C9.42855 10.5423 9.65473 10.1309 9.95207 9.80121C10.2494 9.47154 10.609 9.23346 11 9.10742V8.07227ZM12 9V11H10V12H12V14H13V12H15V11H13V9H12ZM5.5 10C5.04037 10 4.58525 10.1035 4.16061 10.3045C3.73597 10.5055 3.35013 10.8001 3.02513 11.1716C2.70012 11.543 2.44231 11.984 2.26642 12.4693C2.09053 12.9546 2 13.4747 2 14H3H8H9C9 13.4747 8.90947 12.9546 8.73358 12.4693C8.55769 11.984 8.29988 11.543 7.97487 11.1716C7.64987 10.8001 7.26403 10.5055 6.83939 10.3045C6.41475 10.1035 5.95963 10 5.5 10ZM5.5 11C6.01639 11.0009 6.51988 11.1936 6.9413 11.5517C7.36272 11.9098 7.68139 12.4158 7.85352 13H3.14648C3.31861 12.4158 3.63728 11.9098 4.0587 11.5517C4.48012 11.1936 4.98361 11.0009 5.5 11Z" fill="url(#paint0_linear_10_10775)"/>
<defs>
<linearGradient id="paint0_linear_10_10775" x1="2" y1="8" x2="15" y2="8" gradientUnits="userSpaceOnUse">
<stop stop-color="#FDFC47"/>
<stop offset="1" stop-color="#24FE41"/>
</linearGradient>
</defs>
</svg>
