<svg width="16" height="16" viewBox="0 0 16 16" fill="none" xmlns="http://www.w3.org/2000/svg">
<path d="M2 1C0.892 1 0 1.892 0 3V13C0 14.108 0.892 15 2 15H6.1055C6.04283 14.7578 6.00003 14.5084 6.00003 14.2461V14H2.00003C1.44603 14 1.00003 13.554 1.00003 13V5C1.00003 4.446 1.44603 4 2.00003 4H13C13.554 4 14 4.446 14 5V7H15V3C15 1.892 14.108 1 13 1H2ZM5.5 5C5.223 5 5 5.223 5 5.5V6.5C5 6.777 5.223 7 5.5 7H6.5C6.777 7 7 6.777 7 6.5V5.5C7 5.223 6.777 5 6.5 5H5.5ZM8.5 5C8.223 5 8 5.223 8 5.5V6.5C8 6.777 8.223 7 8.5 7H9.5C9.777 7 10 6.777 10 6.5V5.5C10 5.223 9.777 5 9.5 5H8.5ZM11.5 5C11.223 5 11 5.223 11 5.5V6.5C11 6.777 11.223 7 11.5 7H12.5C12.777 7 13 6.777 13 6.5V5.5C13 5.223 12.777 5 12.5 5H11.5ZM2.5 8C2.223 8 2 8.223 2 8.5V9.5C2 9.777 2.223 10 2.5 10H3.5C3.777 10 4 9.777 4 9.5V8.5C4 8.223 3.777 8 3.5 8H2.5ZM5.5 8C5.223 8 5 8.223 5 8.5V9.5C5 9.777 5.223 10 5.5 10H6C6 9.25483 6.28002 8.5841 6.72656 8.0605C6.65781 8.02502 6.58298 7.99995 6.5 7.99995L5.5 8ZM2.5 11C2.223 11 2 11.223 2 11.5V12.5C2 12.777 2.223 13 2.5 13H3.5C3.777 13 4 12.777 4 12.5V11.5C4 11.223 3.777 11 3.5 11H2.5ZM5.5 11C5.223 11 5 11.223 5 11.5V12.5C5 12.777 5.223 13 5.5 13H6V11H5.5Z" fill="url(#paint0_linear_10_10765)"/>
<path d="M9 8C7.892 8 7 8.892 7 10V14C7 15.108 7.892 16 9 16H14C15.108 16 16 15.108 16 14V10C16 8.892 15.108 8 14 8H9ZM9 10H14C14.554 10 15 10.446 15 11V14C15 14.554 14.554 15 14 15H9C8.446 15 8 14.554 8 14V11C8 10.446 8.446 10 9 10Z" fill="url(#paint1_linear_10_10765)"/>
<path d="M11 11H12V12H13V13H12V14H11V13H10V12H11V11Z" fill="url(#paint2_linear_10_10765)"/>
<defs>
<linearGradient id="paint0_linear_10_10765" x1="0" y1="8" x2="15" y2="8" gradientUnits="userSpaceOnUse">
<stop stop-color="#FDFC47"/>
<stop offset="1" stop-color="#24FE41"/>
</linearGradient>
<linearGradient id="paint1_linear_10_10765" x1="7" y1="12" x2="16" y2="12" gradientUnits="userSpaceOnUse">
<stop stop-color="#FDFC47"/>
<stop offset="1" stop-color="#24FE41"/>
</linearGradient>
<linearGradient id="paint2_linear_10_10765" x1="10" y1="12.5" x2="13" y2="12.5" gradientUnits="userSpaceOnUse">
<stop stop-color="#FDFC47"/>
<stop offset="1" stop-color="#24FE41"/>
</linearGradient>
</defs>
</svg>
