<svg width="16" height="16" viewBox="0 0 16 16" fill="none" xmlns="http://www.w3.org/2000/svg">
<path d="M5 2L2 5H9V4H4.41602L5.41406 3H11.584L10.5859 4H12L14 2H10H5ZM5 11L2 14H11L14 11H5Z" fill="url(#paint0_linear_10_10809)"/>
<path d="M11 5V9.03L9.656 7.593L9 8.28L11.313 10.78L11.501 10.999L11.689 10.78L14.002 8.28L13.346 7.593L12.002 9.03C12.002 9.007 12.002 6.122 12.002 5H11Z" fill="url(#paint1_linear_10_10809)"/>
<defs>
<linearGradient id="paint0_linear_10_10809" x1="2" y1="8" x2="14" y2="8" gradientUnits="userSpaceOnUse">
<stop stop-color="#FDFC47"/>
<stop offset="1" stop-color="#24FE41"/>
</linearGradient>
<linearGradient id="paint1_linear_10_10809" x1="9" y1="7.9995" x2="14.002" y2="7.9995" gradientUnits="userSpaceOnUse">
<stop stop-color="#FDFC47"/>
<stop offset="1" stop-color="#24FE41"/>
</linearGradient>
</defs>
</svg>
