<svg width="16" height="16" viewBox="0 0 16 16" fill="none" xmlns="http://www.w3.org/2000/svg">
<path d="M4 3V4H5V3H4ZM4 5V6H5V5H4ZM4 7V8H5V7H4ZM4 9V10H5V9H4ZM2 11V12H3V11H2ZM4 11V12H5V11H4ZM6 11V12H7V11H6ZM8 11V12H9V11H8ZM10 11V12H11V11H10ZM12 11V12H13V11H12ZM4 13V14H5V13H4Z" fill="url(#paint0_linear_10_10816)"/>
<defs>
<linearGradient id="paint0_linear_10_10816" x1="2" y1="8.5" x2="13" y2="8.5" gradientUnits="userSpaceOnUse">
<stop stop-color="#FDFC47"/>
<stop offset="1" stop-color="#24FE41"/>
</linearGradient>
</defs>
</svg>
