<svg width="16" height="16" viewBox="0 0 16 16" fill="none" xmlns="http://www.w3.org/2000/svg">
<path d="M11 2V5H14V2H11ZM12 3H13V4H12V3ZM2 11V14H5V11H2ZM3 12H4V13H3V12Z" fill="url(#paint0_linear_10_10823)"/>
<path d="M11 3C8.87827 3 6.84344 3.84285 5.34315 5.34315C3.84285 6.84344 3 8.87827 3 11H4C4 9.14348 4.7375 7.36301 6.05025 6.05025C7.36301 4.7375 9.14348 4 11 4V3Z" fill="url(#paint1_linear_10_10823)"/>
<defs>
<linearGradient id="paint0_linear_10_10823" x1="2" y1="8" x2="14" y2="8" gradientUnits="userSpaceOnUse">
<stop stop-color="#FDFC47"/>
<stop offset="1" stop-color="#24FE41"/>
</linearGradient>
<linearGradient id="paint1_linear_10_10823" x1="3" y1="7" x2="11" y2="7" gradientUnits="userSpaceOnUse">
<stop stop-color="#FDFC47"/>
<stop offset="1" stop-color="#24FE41"/>
</linearGradient>
</defs>
</svg>
