<svg width="16" height="16" viewBox="0 0 16 16" fill="none" xmlns="http://www.w3.org/2000/svg">
<path d="M2 2V5H5V2H2ZM6 2V3H10.8789L11.8789 2H6ZM13.3145 2L2 13.2949L2.71484 14L14 2.69727L13.3145 2ZM6 4V5H8.87891L9.87891 4H6ZM14 4.12109L13.1211 5H14V4.12109ZM2 7V10H3.87891L5 8.87891V7H2ZM6 7V7.87891L6.87891 7H6ZM11.1211 7L10.1211 8H14V7H11.1211ZM9.12109 9L8.12109 10H14V9H9.12109ZM6.12109 12L5.12109 13H14V12H6.12109Z" fill="url(#paint0_linear_10_10818)"/>
<defs>
<linearGradient id="paint0_linear_10_10818" x1="2" y1="8" x2="14" y2="8" gradientUnits="userSpaceOnUse">
<stop stop-color="#FDFC47"/>
<stop offset="1" stop-color="#24FE41"/>
</linearGradient>
</defs>
</svg>
