<svg width="16" height="16" viewBox="0 0 16 16" fill="none" xmlns="http://www.w3.org/2000/svg">
<path d="M5.5 4C4.83696 4 4.20107 4.26339 3.73223 4.73223C3.26339 5.20107 3 5.83696 3 6.5C3 7.16304 3.26339 7.79893 3.73223 8.26777C4.20107 8.73661 4.83696 9 5.5 9C6.16304 9 6.79893 8.73661 7.26777 8.26777C7.73661 7.79893 8 7.16304 8 6.5C8 5.83696 7.73661 5.20107 7.26777 4.73223C6.79893 4.26339 6.16304 4 5.5 4ZM5.5 10C5.04037 10 4.58525 10.1035 4.16061 10.3045C3.73597 10.5055 3.35013 10.8001 3.02513 11.1716C2.70012 11.543 2.44231 11.984 2.26642 12.4693C2.09053 12.9546 2 13.4747 2 14H9C9 13.4747 8.90947 12.9546 8.73358 12.4693C8.55769 11.984 8.29988 11.543 7.97487 11.1716C7.64987 10.8001 7.26403 10.5055 6.83939 10.3045C6.41475 10.1035 5.95963 10 5.5 10ZM5.5 11C6.01639 11.0009 6.51988 11.1936 6.9413 11.5517C7.36272 11.9098 7.68139 12.4158 7.85352 13H3.14648C3.31861 12.4158 3.63728 11.9098 4.0587 11.5517C4.48012 11.1936 4.98361 11.0009 5.5 11Z" fill="url(#paint0_linear_10_10826)"/>
<path d="M11.5 2C10.837 2 10.2011 2.26339 9.73223 2.73223C9.26339 3.20107 9 3.83696 9 4.5C9 5.16304 9.26339 5.79893 9.73223 6.26777C10.2011 6.73661 10.837 7 11.5 7C11.8283 7 12.1534 6.93534 12.4567 6.8097C12.76 6.68406 13.0356 6.49991 13.2678 6.26777C13.4999 6.03562 13.6841 5.76002 13.8097 5.45671C13.9353 5.15339 14 4.8283 14 4.5C14 3.83696 13.7366 3.20107 13.2678 2.73223C12.7989 2.26339 12.163 2 11.5 2ZM11.6465 8C10.9867 8.00062 10.3404 8.21438 9.78234 8.61662C9.22424 9.01887 8.77699 9.59323 8.49219 10.2734C8.97452 10.7524 9.35824 11.3413 9.61719 12H15.1504C15.1504 11.4743 15.0597 10.9538 14.8836 10.4682C14.7075 9.98264 14.4493 9.54149 14.1239 9.16999C13.7985 8.7985 13.4122 8.50395 12.9871 8.3032C12.562 8.10244 12.1064 7.99941 11.6465 8ZM11.6465 9C12.1629 9.00087 12.6664 9.1936 13.0878 9.55172C13.5092 9.90984 13.8279 10.4158 14 11H9.29297C9.4651 10.4158 9.78376 9.90984 10.2052 9.55172C10.6266 9.19361 11.1301 9.00087 11.6465 9Z" fill="url(#paint1_linear_10_10826)"/>
<defs>
<linearGradient id="paint0_linear_10_10826" x1="2" y1="9" x2="9" y2="9" gradientUnits="userSpaceOnUse">
<stop stop-color="#FDFC47"/>
<stop offset="1" stop-color="#24FE41"/>
</linearGradient>
<linearGradient id="paint1_linear_10_10826" x1="8.49219" y1="7" x2="15.1504" y2="7" gradientUnits="userSpaceOnUse">
<stop stop-color="#FDFC47"/>
<stop offset="1" stop-color="#24FE41"/>
</linearGradient>
</defs>
</svg>
