<svg width="16" height="16" viewBox="0 0 16 16" fill="none" xmlns="http://www.w3.org/2000/svg">
<path d="M2 2V5H5V2H2ZM11 2V5H14V2H11ZM3 3H4V4H3V3ZM6 3V4H7V3H6ZM9 3V4H10V3H9ZM12 3H13V4H12V3ZM3 6V7H4V6H3ZM12 6V7H13V6H12ZM3 9V10H4V9H3ZM12 9V10H13V9H12ZM2 11V14H5V11H2ZM11 11V14H14V11H11ZM3 12H4V13H3V12ZM12 12H13V13H12V12Z" fill="url(#paint0_linear_10_10843)"/>
<path d="M8.00391 7C7.47347 7 6.96477 7.21071 6.58969 7.58579C6.21462 7.96086 6.00391 8.46957 6.00391 9C6.00391 9.52976 6.21408 10.0379 6.58831 10.4128C6.96254 10.7878 7.47024 10.999 8 11C7.46957 11 6.96086 11.2107 6.58579 11.5858C6.21071 11.9609 6 12.4696 6 13C6 13.5304 6.21071 14.0391 6.58579 14.4142C6.96086 14.7893 7.46957 15 8 15C8.53043 15 9.03914 14.7893 9.41421 14.4142C9.78929 14.0391 10 13.5304 10 13C10 12.4702 9.78982 11.9621 9.4156 11.5872C9.04137 11.2122 8.53366 11.001 8.00391 11C8.53434 11 9.04305 10.7893 9.41812 10.4142C9.79319 10.0391 10.0039 9.53043 10.0039 9C10.0039 8.46957 9.79319 7.96086 9.41812 7.58579C9.04305 7.21071 8.53434 7 8.00391 7ZM8.00391 8C8.26912 8 8.52348 8.10536 8.71101 8.29289C8.89855 8.48043 9.00391 8.73478 9.00391 9C9.00391 9.26522 8.89855 9.51957 8.71101 9.70711C8.52348 9.89464 8.26912 10 8.00391 10C7.73869 10 7.48434 9.89464 7.2968 9.70711C7.10926 9.51957 7.00391 9.26522 7.00391 9C7.00391 8.73478 7.10926 8.48043 7.2968 8.29289C7.48434 8.10536 7.73869 8 8.00391 8ZM8 12C8.26522 12 8.51957 12.1054 8.70711 12.2929C8.89464 12.4804 9 12.7348 9 13C9 13.2652 8.89464 13.5196 8.70711 13.7071C8.51957 13.8946 8.26522 14 8 14C7.73478 14 7.48043 13.8946 7.29289 13.7071C7.10536 13.5196 7 13.2652 7 13C7 12.7348 7.10536 12.4804 7.29289 12.2929C7.48043 12.1054 7.73478 12 8 12Z" fill="url(#paint1_linear_10_10843)"/>
<defs>
<linearGradient id="paint0_linear_10_10843" x1="2" y1="8" x2="14" y2="8" gradientUnits="userSpaceOnUse">
<stop stop-color="#FDFC47"/>
<stop offset="1" stop-color="#24FE41"/>
</linearGradient>
<linearGradient id="paint1_linear_10_10843" x1="6" y1="11" x2="10.0039" y2="11" gradientUnits="userSpaceOnUse">
<stop stop-color="#FDFC47"/>
<stop offset="1" stop-color="#24FE41"/>
</linearGradient>
</defs>
</svg>
