<svg width="16" height="16" viewBox="0 0 16 16" fill="none" xmlns="http://www.w3.org/2000/svg">
<path d="M2 2V5H5V2H2ZM11 2V5H14V2H11ZM3 3H4V4H3V3ZM6 3V4H7V3H6ZM9 3V4H10V3H9ZM12 3H13V4H12V3ZM3 6V7H4V6H3ZM12 6V7H13V6H12ZM3 9V10H4V9H3ZM12 9V10H13V9H12ZM2 11V14H5V11H2ZM11 11V14H14V11H11ZM3 12H4V13H3V12ZM6 12V13H7V12H6ZM9 12V13H10V12H9ZM12 12H13V13H12V12Z" fill="url(#paint0_linear_10_10836)"/>
<path d="M8 6C7.46957 6 6.96086 6.21071 6.58579 6.58579C6.21071 6.96086 6 7.46957 6 8C6 8.53043 6.21071 9.03914 6.58579 9.41421C6.96086 9.78929 7.46957 10 8 10C8.53043 10 9.03914 9.78929 9.41421 9.41421C9.78929 9.03914 10 8.53043 10 8C10 7.46957 9.78929 6.96086 9.41421 6.58579C9.03914 6.21071 8.53043 6 8 6ZM8 7C8.26522 7 8.51957 7.10536 8.70711 7.29289C8.89464 7.48043 9 7.73478 9 8C9 8.26522 8.89464 8.51957 8.70711 8.70711C8.51957 8.89464 8.26522 9 8 9C7.73478 9 7.48043 8.89464 7.29289 8.70711C7.10536 8.51957 7 8.26522 7 8C7 7.73478 7.10536 7.48043 7.29289 7.29289C7.48043 7.10536 7.73478 7 8 7Z" fill="url(#paint1_linear_10_10836)"/>
<defs>
<linearGradient id="paint0_linear_10_10836" x1="2" y1="8" x2="14" y2="8" gradientUnits="userSpaceOnUse">
<stop stop-color="#FDFC47"/>
<stop offset="1" stop-color="#24FE41"/>
</linearGradient>
<linearGradient id="paint1_linear_10_10836" x1="6" y1="8" x2="10" y2="8" gradientUnits="userSpaceOnUse">
<stop stop-color="#FDFC47"/>
<stop offset="1" stop-color="#24FE41"/>
</linearGradient>
</defs>
</svg>
