<svg width="16" height="16" viewBox="0 0 16 16" fill="none" xmlns="http://www.w3.org/2000/svg">
<path d="M5 3V4H11V3H5ZM3 5V11H4V5H3ZM12 5V11H13V5H12ZM5 12V13H11V12H5Z" fill="url(#paint0_linear_10_10864)"/>
<path d="M2 2V5H5V2H2ZM11 2V5H14V2H11ZM3 3H4V4H3V3ZM12 3H13V4H12V3ZM2 11V14H5V11H2ZM11 11V14H14V11H11ZM3 12H4V13H3V12ZM12 12H13V13H12V12Z" fill="url(#paint1_linear_10_10864)"/>
<defs>
<linearGradient id="paint0_linear_10_10864" x1="3" y1="8" x2="13" y2="8" gradientUnits="userSpaceOnUse">
<stop stop-color="#FDFC47"/>
<stop offset="1" stop-color="#24FE41"/>
</linearGradient>
<linearGradient id="paint1_linear_10_10864" x1="2" y1="8" x2="14" y2="8" gradientUnits="userSpaceOnUse">
<stop stop-color="#FDFC47"/>
<stop offset="1" stop-color="#24FE41"/>
</linearGradient>
</defs>
</svg>
