<svg width="16" height="16" viewBox="0 0 16 16" fill="none" xmlns="http://www.w3.org/2000/svg">
<path d="M8 2.02539C6.72061 2.14321 5.52284 2.70522 4.61452 3.61389C3.7062 4.52257 3.14466 5.72056 3.02734 7H4H4.03125C4.14566 5.98703 4.60061 5.04292 5.32162 4.32226C6.04264 3.6016 6.98697 3.14711 8 3.0332V3V2.02539ZM9 2.02734V3V3.03125C10.013 3.14566 10.9571 3.60061 11.6777 4.32162C12.3984 5.04264 12.8529 5.98697 12.9668 7H13H13.9746C13.8568 5.72061 13.2948 4.52283 12.3861 3.61452C11.4774 2.7062 10.2794 2.14466 9 2.02734ZM3.0293 8C3.14698 9.27879 3.70843 10.4761 4.61631 11.3843C5.52419 12.2926 6.72126 12.8545 8 12.9727V12V11.9688C6.98703 11.8543 6.04292 11.3994 5.32226 10.6784C4.6016 9.95737 4.14711 9.01303 4.0332 8H4H3.0293ZM12.9688 8C12.8543 9.01297 12.3994 9.95708 11.6784 10.6777C10.9574 11.3984 10.013 11.8529 9 11.9668V12V12.9746C10.2794 12.8568 11.4772 12.2948 12.3855 11.3861C13.2938 10.4774 13.8553 9.27944 13.9727 8H13H12.9688Z" fill="url(#paint0_linear_10_10879)"/>
<path d="M7 1V4H10V1H7ZM8 2H9V3H8V2ZM2 6V9H5V6H2ZM12 6V9H15V6H12ZM3 7H4V8H3V7ZM13 7H14V8H13V7ZM7 11V14H10V11H7ZM8 12H9V13H8V12Z" fill="url(#paint1_linear_10_10879)"/>
<defs>
<linearGradient id="paint0_linear_10_10879" x1="3.02734" y1="7.5" x2="13.9746" y2="7.5" gradientUnits="userSpaceOnUse">
<stop stop-color="#FDFC47"/>
<stop offset="1" stop-color="#24FE41"/>
</linearGradient>
<linearGradient id="paint1_linear_10_10879" x1="2" y1="7.5" x2="15" y2="7.5" gradientUnits="userSpaceOnUse">
<stop stop-color="#FDFC47"/>
<stop offset="1" stop-color="#24FE41"/>
</linearGradient>
</defs>
</svg>
