<svg width="16" height="16" viewBox="0 0 16 16" fill="none" xmlns="http://www.w3.org/2000/svg">
<path d="M3.5 2C3.30302 2 3.10796 2.0388 2.92598 2.11418C2.74399 2.18956 2.57863 2.30005 2.43934 2.43934C2.30005 2.57863 2.18956 2.74399 2.11418 2.92597C2.0388 3.10796 2 3.30302 2 3.5C2.00043 3.80983 2.0968 4.11193 2.27586 4.36478C2.45492 4.61763 2.70789 4.80883 3 4.91211V9V11.0879C2.70789 11.1912 2.45492 11.3824 2.27586 11.6352C2.0968 11.8881 2.00043 12.1902 2 12.5C2 12.697 2.0388 12.892 2.11418 13.074C2.18956 13.256 2.30005 13.4214 2.43934 13.5607C2.57863 13.6999 2.74399 13.8104 2.92598 13.8858C3.10796 13.9612 3.30302 14 3.5 14C3.69698 14 3.89204 13.9612 4.07403 13.8858C4.25601 13.8104 4.42137 13.6999 4.56066 13.5607C4.69995 13.4214 4.81044 13.256 4.88582 13.074C4.9612 12.892 5 12.697 5 12.5C4.99957 12.1902 4.9032 11.8881 4.72414 11.6352C4.54508 11.3824 4.29211 11.1912 4 11.0879V9C4 8.73478 4.10536 8.48043 4.29289 8.29289C4.48043 8.10536 4.73478 8 5 8H11C11.5304 8 12.0391 7.78929 12.4142 7.41421C12.7893 7.03914 13 6.53043 13 6V4.91211C13.2921 4.80883 13.5451 4.61763 13.7241 4.36478C13.9032 4.11193 13.9996 3.80983 14 3.5C14 3.30302 13.9612 3.10796 13.8858 2.92597C13.8104 2.74399 13.6999 2.57863 13.5607 2.43934C13.4214 2.30005 13.256 2.18956 13.074 2.11418C12.892 2.0388 12.697 2 12.5 2C12.303 2 12.108 2.0388 11.926 2.11418C11.744 2.18956 11.5786 2.30005 11.4393 2.43934C11.3001 2.57863 11.1896 2.74399 11.1142 2.92597C11.0388 3.10796 11 3.30302 11 3.5C11.0004 3.80983 11.0968 4.11193 11.2759 4.36478C11.4549 4.61763 11.7079 4.80883 12 4.91211V6C12 6.26522 11.8946 6.51957 11.7071 6.70711C11.5196 6.89464 11.2652 7 11 7H5C4.64878 7.00048 4.30389 7.09344 4 7.26953V4.91211C4.29211 4.80883 4.54508 4.61763 4.72414 4.36478C4.9032 4.11193 4.99957 3.80983 5 3.5C5 3.30302 4.9612 3.10796 4.88582 2.92597C4.81044 2.74399 4.69995 2.57863 4.56066 2.43934C4.42137 2.30005 4.25601 2.18956 4.07403 2.11418C3.89204 2.0388 3.69698 2 3.5 2ZM3.5 3C3.63261 3 3.75979 3.05268 3.85355 3.14645C3.94732 3.24021 4 3.36739 4 3.5C4 3.63261 3.94732 3.75979 3.85355 3.85355C3.75979 3.94732 3.63261 4 3.5 4C3.36739 4 3.24021 3.94732 3.14645 3.85355C3.05268 3.75979 3 3.63261 3 3.5C3 3.36739 3.05268 3.24021 3.14645 3.14645C3.24021 3.05268 3.36739 3 3.5 3ZM12.5 3C12.6326 3 12.7598 3.05268 12.8536 3.14645C12.9473 3.24021 13 3.36739 13 3.5C13 3.63261 12.9473 3.75979 12.8536 3.85355C12.7598 3.94732 12.6326 4 12.5 4C12.3674 4 12.2402 3.94732 12.1464 3.85355C12.0527 3.75979 12 3.63261 12 3.5C12 3.36739 12.0527 3.24021 12.1464 3.14645C12.2402 3.05268 12.3674 3 12.5 3ZM11 9V11H9V12H11V14H12V12H14V11H12V9H11ZM3.5 12C3.63261 12 3.75979 12.0527 3.85355 12.1464C3.94732 12.2402 4 12.3674 4 12.5C4 12.6326 3.94732 12.7598 3.85355 12.8536C3.75979 12.9473 3.63261 13 3.5 13C3.36739 13 3.24021 12.9473 3.14645 12.8536C3.05268 12.7598 3 12.6326 3 12.5C3 12.3674 3.05268 12.2402 3.14645 12.1464C3.24021 12.0527 3.36739 12 3.5 12Z" fill="url(#paint0_linear_10_10908)"/>
<defs>
<linearGradient id="paint0_linear_10_10908" x1="2" y1="8" x2="14" y2="8" gradientUnits="userSpaceOnUse">
<stop stop-color="#FDFC47"/>
<stop offset="1" stop-color="#24FE41"/>
</linearGradient>
</defs>
</svg>
