<svg width="16" height="16" viewBox="0 0 16 16" fill="none" xmlns="http://www.w3.org/2000/svg">
<path d="M8 2C4.686 2 2 4.686 2 8C2 11.314 4.686 14 8 14C11.314 14 14 11.314 14 8C14 4.686 11.314 2 8 2ZM6 5C6.552 5 7 5.448 7 6C7 6.552 6.552 7 6 7C5.448 7 5 6.552 5 6C5 5.448 5.448 5 6 5ZM10 5C10.552 5 11 5.448 11 6C11 6.552 10.552 7 10 7C9.448 7 9 6.552 9 6C9 5.448 9.448 5 10 5ZM5 9H11C11 10.657 9.657 12 8 12C6.343 12 5 10.657 5 9Z" fill="url(#paint0_linear_10_10936)"/>
<defs>
<linearGradient id="paint0_linear_10_10936" x1="2" y1="8" x2="14" y2="8" gradientUnits="userSpaceOnUse">
<stop stop-color="#FDFC47"/>
<stop offset="1" stop-color="#24FE41"/>
</linearGradient>
</defs>
</svg>
