<svg width="16" height="16" viewBox="0 0 16 16" fill="none" xmlns="http://www.w3.org/2000/svg">
<path d="M2 2V14H14V2H2ZM3 3H6V5H3V3ZM7 3H9V5H7V3ZM10 3H13V5H10V3ZM3 6H6V9H3V6ZM7 6H9V9H7V6ZM10 6H13V9H10V6ZM3 10H6V13H3V10ZM7 10H9V13H7V10ZM10 10H13V13H10V10Z" fill="url(#paint0_linear_10_10951)"/>
<path d="M3 3H6V5H3V3Z" fill="url(#paint1_linear_10_10951)"/>
<defs>
<linearGradient id="paint0_linear_10_10951" x1="2" y1="8" x2="14" y2="8" gradientUnits="userSpaceOnUse">
<stop stop-color="#FDFC47"/>
<stop offset="1" stop-color="#24FE41"/>
</linearGradient>
<linearGradient id="paint1_linear_10_10951" x1="3" y1="4" x2="6" y2="4" gradientUnits="userSpaceOnUse">
<stop stop-color="#2193B0"/>
<stop offset="1" stop-color="#6DD5ED"/>
</linearGradient>
</defs>
</svg>
