<svg width="16" height="16" viewBox="0 0 16 16" fill="none" xmlns="http://www.w3.org/2000/svg">
<path d="M7.9942 1L2.0254 1.03125C1.4777 1.0345 1.03451 1.4777 1.03126 2.02539L1.00001 7.99419C0.998643 8.27526 1.11561 8.54393 1.32228 8.73442L7.82228 14.7344C8.07602 14.9685 8.41666 15.03 8.73048 14.9551C8.4757 14.5641 8.28329 14.1358 8.16017 13.6856L1.99997 8.00012L2.03122 2.03132L8.00002 2.00007L13.6914 8.16607C14.1394 8.28854 14.5656 8.4796 14.9551 8.73248C15.0308 8.41816 14.969 8.07659 14.7344 7.82232L8.73442 1.32232C8.54393 1.11565 8.27527 0.99863 7.9942 1ZM5.5001 4C4.6721 4 4.0001 4.672 4.0001 5.5C4.0001 6.328 4.6721 7 5.5001 7C6.3281 7 7.0001 6.328 7.0001 5.5C7.0001 4.672 6.3281 4 5.5001 4Z" fill="url(#paint0_linear_10_10954)"/>
<path d="M12.5 9C10.567 9 9 10.567 9 12.5C9 14.433 10.567 16 12.5 16C14.433 16 16 14.433 16 12.5C16 10.567 14.433 9 12.5 9ZM12 10H13V12H15V13H13V15H12V13H10V12H12V10Z" fill="url(#paint1_linear_10_10954)"/>
<defs>
<linearGradient id="paint0_linear_10_10954" x1="1" y1="7.99262" x2="14.9856" y2="7.99262" gradientUnits="userSpaceOnUse">
<stop stop-color="#FDFC47"/>
<stop offset="1" stop-color="#24FE41"/>
</linearGradient>
<linearGradient id="paint1_linear_10_10954" x1="9" y1="12.5" x2="16" y2="12.5" gradientUnits="userSpaceOnUse">
<stop stop-color="#FDFC47"/>
<stop offset="1" stop-color="#24FE41"/>
</linearGradient>
</defs>
</svg>
