<svg width="16" height="16" viewBox="0 0 16 16" fill="none" xmlns="http://www.w3.org/2000/svg">
<path d="M7.9942 1L2.0254 1.03125C1.4777 1.03451 1.03451 1.4777 1.03126 2.02539L1.00001 7.99419C0.998642 8.27526 1.11561 8.54393 1.32228 8.73442L7.82228 14.7344C8.21652 15.0981 8.82748 15.0861 9.20708 14.7071L14.7071 9.20708C15.0861 8.82751 15.0981 8.21655 14.7344 7.82228L8.73442 1.32228C8.54393 1.11561 8.27527 0.998632 7.9942 1ZM8.00006 2L14.0001 8.5L8.50006 14L2.00006 8L2.03131 2.0312L8.00006 2ZM5.50006 4C4.67206 4 4.00006 4.672 4.00006 5.5C4.00006 6.328 4.67206 7 5.50006 7C6.32806 7 7.00006 6.328 7.00006 5.5C7.00006 4.672 6.32806 4 5.50006 4Z" fill="url(#paint0_linear_10_10957)"/>
<defs>
<linearGradient id="paint0_linear_10_10957" x1="1" y1="7.99973" x2="14.9995" y2="7.99973" gradientUnits="userSpaceOnUse">
<stop stop-color="#FDFC47"/>
<stop offset="1" stop-color="#24FE41"/>
</linearGradient>
</defs>
</svg>
