<svg width="16" height="16" viewBox="0 0 16 16" fill="none" xmlns="http://www.w3.org/2000/svg">
<path d="M10.3359 6.5L7.18751 10.1094L5.66211 8.5567L5 9.23248L7.2266 11.5001L11 7.17778L10.3359 6.5Z" fill="url(#paint0_linear_10_10959)"/>
<path d="M2 1.00001C0.892 1.00001 0 1.89201 0 3.00001V13C0 14.108 0.892 15 2 15H8.7617C8.55479 14.6887 8.38749 14.3527 8.26365 14H1.99995C1.44595 14 0.99995 13.554 0.99995 13V5.00001C0.99995 4.44601 1.44595 4.00001 1.99995 4.00001H13C13.554 4.00001 14 4.44601 14 5.00001V8.26371C14.3526 8.38693 14.6885 8.55357 15 8.7598V3C15 1.892 14.108 1 13 1L2 1.00001Z" fill="url(#paint1_linear_10_10959)"/>
<path d="M12.5 9C10.567 9 9 10.567 9 12.5C9 14.433 10.567 16 12.5 16C14.433 16 16 14.433 16 12.5C16 10.567 14.433 9 12.5 9ZM12 10H13V12H15V13H13V15H12V13H10V12H12V10Z" fill="url(#paint2_linear_10_10959)"/>
<defs>
<linearGradient id="paint0_linear_10_10959" x1="5" y1="9.00004" x2="11" y2="9.00004" gradientUnits="userSpaceOnUse">
<stop stop-color="#FDFC47"/>
<stop offset="1" stop-color="#24FE41"/>
</linearGradient>
<linearGradient id="paint1_linear_10_10959" x1="0" y1="8" x2="15" y2="8" gradientUnits="userSpaceOnUse">
<stop stop-color="#FDFC47"/>
<stop offset="1" stop-color="#24FE41"/>
</linearGradient>
<linearGradient id="paint2_linear_10_10959" x1="9" y1="12.5" x2="16" y2="12.5" gradientUnits="userSpaceOnUse">
<stop stop-color="#FDFC47"/>
<stop offset="1" stop-color="#24FE41"/>
</linearGradient>
</defs>
</svg>
