<svg width="16" height="16" viewBox="0 0 16 16" fill="none" xmlns="http://www.w3.org/2000/svg">
<path d="M7.5 2V3.125C6.65711 3.20317 5.99289 3.41586 5.5 3.8125C4.95761 4.2447 4.6875 4.88402 4.6875 5.71875C4.6875 6.88402 5.38454 7.63984 6.8125 8L7.5 8.1875V11.875C6.61283 11.7957 5.78126 11.6016 5 11.2188L4.65625 12.125C4.97403 12.3199 5.40785 12.5037 5.9375 12.6562C6.40232 12.7854 6.92598 12.8422 7.5 12.875V14H7.75H8.34375H8.5V12.875C9.34981 12.8066 10.0334 12.5478 10.5312 12.0938C11.0652 11.6107 11.3437 10.911 11.3438 10C11.3437 9.26271 11.1441 8.7108 10.75 8.3125C10.3559 7.90995 9.7627 7.61971 9 7.4375L8.5 7.3125V4.0625C8.88555 4.09144 9.28709 4.1456 9.65625 4.25C10.08 4.36442 10.3978 4.51219 10.6562 4.65625L10.9688 3.75C10.3285 3.35135 9.50761 3.11292 8.5 3.0625V2H8.34375H7.75H7.5ZM7.28125 4.09375C7.34671 4.08277 7.4302 4.10169 7.5 4.09375V7.0625L7.21875 7C6.74841 6.8856 6.39353 6.71611 6.15625 6.5C5.9232 6.27967 5.81249 5.98518 5.8125 5.625C5.81249 4.76855 6.29502 4.25922 7.28125 4.09375ZM8.5 8.40625L8.6875 8.46875C9.26376 8.61282 9.65889 8.80827 9.875 9.0625C10.0953 9.31251 10.1875 9.65573 10.1875 10.0625C10.1875 11.1956 9.62456 11.7973 8.5 11.9062V8.40625Z" fill="url(#paint0_linear_10_10964)"/>
<defs>
<linearGradient id="paint0_linear_10_10964" x1="4.65625" y1="8" x2="11.3438" y2="8" gradientUnits="userSpaceOnUse">
<stop stop-color="#FDFC47"/>
<stop offset="1" stop-color="#24FE41"/>
</linearGradient>
</defs>
</svg>
