<svg width="16" height="16" viewBox="0 0 16 16" fill="none" xmlns="http://www.w3.org/2000/svg">
<path d="M12.3379 1.96485C12.2811 1.96699 12.2244 1.97155 12.168 1.97852V1.98048C11.6424 2.04862 11.1653 2.32264 10.8415 2.74232C10.5178 3.16201 10.3739 3.69304 10.4414 4.21876C10.5091 4.74475 10.7829 5.22234 11.2027 5.54648C11.6224 5.87063 12.1537 6.01479 12.6797 5.94727C12.9404 5.91351 13.1919 5.82869 13.4198 5.69765C13.6477 5.56661 13.8475 5.39193 14.0078 5.1836L13.2149 4.57423C13.0533 4.78379 12.8152 4.92075 12.5528 4.95509C12.4225 4.97209 12.2901 4.96324 12.1632 4.92904C12.0363 4.89485 11.9174 4.83598 11.8133 4.7558C11.7092 4.67563 11.6219 4.57572 11.5564 4.46179C11.4909 4.34785 11.4485 4.22213 11.4317 4.0918C11.4147 3.9615 11.4235 3.82912 11.4577 3.70224C11.4919 3.57535 11.5508 3.45645 11.631 3.35233C11.7111 3.24822 11.811 3.16092 11.925 3.09544C12.0389 3.02996 12.1646 2.98757 12.295 2.97071C12.4255 2.95387 12.5581 2.96298 12.6851 2.9975C12.8122 3.03202 12.9311 3.09128 13.0352 3.17188L13.6446 2.37891C13.2714 2.09129 12.8086 1.94466 12.3379 1.96485ZM3.03324 3.72071L2.36918 4.47071L7.60746 9.11329L8.27152 8.36524L8.06839 8.18555C8.40139 8.07455 8.70063 7.87824 8.93363 7.61524C9.66663 6.78824 9.59071 5.52498 8.76371 4.79298C7.93671 4.05998 6.67344 4.1359 5.94144 4.9629C5.70944 5.2269 5.5495 5.54663 5.4805 5.89063L3.03324 3.72071ZM7.37894 5.29298C7.63444 5.2776 7.8946 5.35998 8.1016 5.54298C8.5146 5.90898 8.55353 6.53913 8.18753 6.95313C7.82153 7.36613 7.18943 7.40507 6.77543 7.03907C6.36243 6.67307 6.32349 6.04096 6.68949 5.62696C6.87249 5.42046 7.12344 5.30835 7.37894 5.29298ZM2.89066 9.4004L2.51957 10.3281L2.77152 10.4297C2.4954 10.6464 2.2812 10.9321 2.15043 11.2578C2.05293 11.5017 2.00444 11.7625 2.00772 12.0251C2.01101 12.2878 2.066 12.5472 2.16956 12.7886C2.27313 13.03 2.42323 13.2487 2.6113 13.4321C2.79937 13.6154 3.02172 13.76 3.26566 13.8574C3.5097 13.9549 3.77054 14.0033 4.03329 13.9999C4.29604 13.9964 4.55554 13.9413 4.79697 13.8375C5.03839 13.7338 5.257 13.5835 5.4403 13.3952C5.62361 13.2069 5.76801 12.9844 5.86527 12.7402C5.99471 12.4136 6.03581 12.0586 5.98441 11.7109L6.23441 11.8106L6.6055 10.8828L4.74613 10.1406L2.89066 9.4004ZM4.01566 10.9981C4.13954 10.9996 4.26206 11.0241 4.37699 11.0703C4.62325 11.1685 4.82044 11.3605 4.92518 11.6041C5.02993 11.8476 5.03367 12.1228 4.93558 12.3691C4.83737 12.6154 4.64537 12.8126 4.40181 12.9173C4.15826 13.0221 3.88307 13.0258 3.63675 12.9277C3.39049 12.8295 3.19331 12.6375 3.08856 12.394C2.98381 12.1504 2.98007 11.8752 3.07816 11.6289C3.15259 11.4415 3.28195 11.281 3.44926 11.1684C3.61657 11.0558 3.81401 10.9964 4.01566 10.9981Z" fill="url(#paint0_linear_10_10994)"/>
<path d="M14 7C12.1435 7 10.363 7.7375 9.05025 9.05025C7.7375 10.363 7 12.1435 7 14H8C8 12.4087 8.63214 10.8826 9.75736 9.75736C10.8826 8.63214 12.4087 8 14 8V7Z" fill="url(#paint1_linear_10_10994)"/>
<defs>
<linearGradient id="paint0_linear_10_10994" x1="2.00757" y1="7.98152" x2="14.0078" y2="7.98152" gradientUnits="userSpaceOnUse">
<stop stop-color="#FDFC47"/>
<stop offset="1" stop-color="#24FE41"/>
</linearGradient>
<linearGradient id="paint1_linear_10_10994" x1="7" y1="10.5" x2="14" y2="10.5" gradientUnits="userSpaceOnUse">
<stop stop-color="#FDFC47"/>
<stop offset="1" stop-color="#24FE41"/>
</linearGradient>
</defs>
</svg>
