<svg width="16" height="16" viewBox="0 0 16 16" fill="none" xmlns="http://www.w3.org/2000/svg">
<path d="M9 4V10H10V9.23047C10.5492 9.72446 11.2613 9.99846 12 10C12.7956 10 13.5587 9.68393 14.1213 9.12132C14.6839 8.55871 15 7.79565 15 7C15 6.20435 14.6839 5.44129 14.1213 4.87868C13.5587 4.31607 12.7956 4 12 4C11.2616 4.001 10.5495 4.2743 10 4.76758V4H9ZM12 5C12.5304 5 13.0391 5.21071 13.4142 5.58579C13.7893 5.96086 14 6.46957 14 7C14 7.53043 13.7893 8.03914 13.4142 8.41421C13.0391 8.78929 12.5304 9 12 9C11.4696 9 10.9609 8.78929 10.5858 8.41421C10.2107 8.03914 10 7.53043 10 7C10 6.46957 10.2107 5.96086 10.5858 5.58579C10.9609 5.21071 11.4696 5 12 5ZM4.00391 8C3.20826 8 2.4452 8.31607 1.88259 8.87868C1.31998 9.44129 1.00391 10.2044 1.00391 11C1.00391 11.7956 1.31998 12.5587 1.88259 13.1213C2.4452 13.6839 3.20826 14 4.00391 14C4.74232 13.999 5.45442 13.7257 6.00391 13.2324V14.002H7.00391V8.00195H6.00391V8.77148C5.45471 8.2775 4.74258 8.00349 4.00391 8.00195V8ZM4.00391 9.00195C4.53434 9.00195 5.04305 9.21267 5.41812 9.58774C5.79319 9.96281 6.00391 10.4715 6.00391 11.002C6.00391 11.5324 5.79319 12.0411 5.41812 12.4162C5.04305 12.7912 4.53434 13.002 4.00391 13.002C3.47347 13.002 2.96477 12.7912 2.58969 12.4162C2.21462 12.0411 2.00391 11.5324 2.00391 11.002C2.00391 10.4715 2.21462 9.96281 2.58969 9.58774C2.96477 9.21267 3.47347 9.00195 4.00391 9.00195Z" fill="url(#paint0_linear_10_10977)"/>
<path d="M7.5 2V14H8.5V12H15V11H8.5V2H7.5Z" fill="url(#paint1_linear_10_10977)"/>
<defs>
<linearGradient id="paint0_linear_10_10977" x1="1.00391" y1="9.00098" x2="15" y2="9.00098" gradientUnits="userSpaceOnUse">
<stop stop-color="#FDFC47"/>
<stop offset="1" stop-color="#24FE41"/>
</linearGradient>
<linearGradient id="paint1_linear_10_10977" x1="7.5" y1="8" x2="15" y2="8" gradientUnits="userSpaceOnUse">
<stop stop-color="#2193B0"/>
<stop offset="1" stop-color="#6DD5ED"/>
</linearGradient>
</defs>
</svg>
