<svg width="16" height="16" viewBox="0 0 16 16" fill="none" xmlns="http://www.w3.org/2000/svg">
<path d="M10.5605 4.66016L9.00781 10.4551L9.97266 10.7148L10.1719 9.97266C10.5747 10.5915 11.1915 11.04 11.9043 11.2324C12.6727 11.4382 13.4915 11.3304 14.1804 10.9326C14.8694 10.5349 15.3721 9.87973 15.5781 9.11133C15.7839 8.34288 15.6761 7.52414 15.2783 6.83519C14.8806 6.14624 14.2254 5.64348 13.457 5.4375C12.7433 5.24752 11.9846 5.32749 11.3262 5.66211L11.5254 4.91992L10.5605 4.66016ZM4.00391 5C3.20826 5 2.4452 5.31607 1.88259 5.87868C1.31998 6.44129 1.00391 7.20435 1.00391 8C1.00391 8.79565 1.31998 9.55871 1.88259 10.1213C2.4452 10.6839 3.20826 11 4.00391 11C4.74232 10.999 5.45442 10.7257 6.00391 10.2324V11.002H7.00391V5.00195H6.00391V5.77148C5.45471 5.2775 4.74258 5.00349 4.00391 5.00195V5ZM4.00391 6.00195C4.53434 6.00195 5.04305 6.21267 5.41812 6.58774C5.79319 6.96281 6.00391 7.47152 6.00391 8.00195C6.00391 8.53239 5.79319 9.04109 5.41812 9.41617C5.04305 9.79124 4.53434 10.002 4.00391 10.002C3.47347 10.002 2.96477 9.79124 2.58969 9.41617C2.21462 9.04109 2.00391 8.53239 2.00391 8.00195C2.00391 7.47152 2.21462 6.96281 2.58969 6.58774C2.96477 6.21267 3.47347 6.00195 4.00391 6.00195ZM12.6641 6.33398C12.8447 6.3325 13.0247 6.35549 13.1992 6.40234C13.7115 6.53967 14.1482 6.87483 14.4134 7.33414C14.6786 7.79344 14.7505 8.33926 14.6133 8.85156C14.476 9.36383 14.1408 9.80059 13.6815 10.0658C13.2222 10.3309 12.6764 10.4028 12.1641 10.2656C11.6518 10.1283 11.215 9.79313 10.9499 9.33383C10.6847 8.87453 10.6128 8.32871 10.75 7.81641C10.8631 7.39406 11.1116 7.02042 11.4572 6.75268C11.8029 6.48495 12.2268 6.33788 12.6641 6.33398Z" fill="url(#paint0_linear_10_10974)"/>
<path d="M7.5 2V14H8.5V12.3887L14.502 13.998L14.7617 13.0312L8.5 11.3555V2H7.5Z" fill="url(#paint1_linear_10_10974)"/>
<defs>
<linearGradient id="paint0_linear_10_10974" x1="1.00391" y1="7.99736" x2="15.6803" y2="7.99736" gradientUnits="userSpaceOnUse">
<stop stop-color="#FDFC47"/>
<stop offset="1" stop-color="#24FE41"/>
</linearGradient>
<linearGradient id="paint1_linear_10_10974" x1="7.5" y1="8" x2="14.7617" y2="8" gradientUnits="userSpaceOnUse">
<stop stop-color="#2193B0"/>
<stop offset="1" stop-color="#6DD5ED"/>
</linearGradient>
</defs>
</svg>
