<svg width="16" height="16" viewBox="0 0 16 16" fill="none" xmlns="http://www.w3.org/2000/svg">
<path d="M2 2V7H3H4.5C5.32843 7 6 6.32843 6 5.5C6 4.9667 5.7318 4.48473 5.3125 4.21875C5.42796 4.00621 5.5 3.75888 5.5 3.5C5.5 2.67157 4.82843 2 4 2H3H2.5H2ZM10 2V7H11H12.5C13.3284 7 14 6.32843 14 5.5V3.5C14 2.67157 13.3284 2 12.5 2H11H10ZM3 3H4C4.27614 3 4.5 3.22386 4.5 3.5C4.5 3.77614 4.27614 4 4 4H3V3ZM11 3H12.5C12.7761 3 13 3.22386 13 3.5V4.09375V4.90625V5.5C13 5.77614 12.7761 6 12.5 6H11V3ZM7 4V5H9V4H7ZM3 5H4.5C4.77614 5 5 5.22386 5 5.5C5 5.77614 4.77614 6 4.5 6H3V5ZM2 9V10H5V9H2ZM7 9V10H9V9H7ZM11 9V10H14V9H11ZM6 11L2 12.5L6 14V11ZM10 11V14L14 12.5L10 11ZM8 12C7.72386 12 7.5 12.2239 7.5 12.5C7.5 12.7761 7.72386 13 8 13C8.27614 13 8.5 12.7761 8.5 12.5C8.5 12.2239 8.27614 12 8 12Z" fill="url(#paint0_linear_10_10969)"/>
<defs>
<linearGradient id="paint0_linear_10_10969" x1="2" y1="8" x2="14" y2="8" gradientUnits="userSpaceOnUse">
<stop stop-color="#FDFC47"/>
<stop offset="1" stop-color="#24FE41"/>
</linearGradient>
</defs>
</svg>
