<svg width="16" height="16" viewBox="0 0 16 16" fill="none" xmlns="http://www.w3.org/2000/svg">
<path d="M8 2C6.4087 2 4.88258 2.63214 3.75736 3.75736C2.63214 4.88258 2 6.4087 2 8C2.00048 9.41758 2.50286 10.7892 3.41808 11.8717C4.3333 12.9543 5.60225 13.6778 7 13.9141V12.898C5.87097 12.6675 4.8562 12.0542 4.12733 11.1617C3.39845 10.2692 3.00023 9.15231 3 8C3 6.67392 3.52678 5.40215 4.46447 4.46447C5.40215 3.52678 6.67392 3 8 3C9.32608 3 10.5979 3.52678 11.5355 4.46447C12.4732 5.40215 13 6.67392 13 8H14C14 6.4087 13.3679 4.88258 12.2426 3.75736C11.1174 2.63214 9.5913 2 8 2ZM8.5 8C7.669 8 7 8.669 7 9.5C7 10.154 7.418 10.702 8 10.908V14H12V11C12.554 11 13 10.554 13 10C13 9.446 12.554 9 12 9C11.446 9 11 9.446 11 10H9.908C9.964 9.843 10 9.677 10 9.5C10 8.669 9.331 8 8.5 8ZM12 12L14 14V10L12 12ZM9 11H11V13H9V11Z" fill="url(#paint0_linear_10_11038)"/>
<defs>
<linearGradient id="paint0_linear_10_11038" x1="2" y1="8" x2="14" y2="8" gradientUnits="userSpaceOnUse">
<stop stop-color="#FDFC47"/>
<stop offset="1" stop-color="#24FE41"/>
</linearGradient>
</defs>
</svg>
