<svg width="16" height="16" viewBox="0 0 16 16" fill="none" xmlns="http://www.w3.org/2000/svg">
<path d="M8 2C6.4087 2 4.88258 2.63214 3.75736 3.75736C2.63214 4.88258 2 6.4087 2 8C2 9.5913 2.63214 11.1174 3.75736 12.2426C4.88258 13.3679 6.4087 14 8 14V13C6.67392 13 5.40215 12.4732 4.46447 11.5355C3.52678 10.5979 3 9.32608 3 8C3 6.67392 3.52678 5.40215 4.46447 4.46447C5.40215 3.52678 6.67392 3 8 3C8.97113 3.002 9.92066 3.28677 10.7326 3.81952C11.5446 4.35227 12.1838 5.10994 12.5723 6H13.6445C13.2316 4.83217 12.4674 3.82076 11.4568 3.10457C10.4462 2.38839 9.23866 2.00254 8 2ZM8 4C5.79086 4 4 5.79086 4 8H6C6 6.89543 6.89543 6 8 6V4ZM8 7C7.73478 7 7.48043 7.10536 7.29289 7.29289C7.10536 7.48043 7 7.73478 7 8C7 8.26522 7.10536 8.51957 7.29289 8.70711C7.48043 8.89464 7.73478 9 8 9C8.26522 9 8.51957 8.89464 8.70711 8.70711C8.89464 8.51957 9 8.26522 9 8C9 7.73478 8.89464 7.48043 8.70711 7.29289C8.51957 7.10536 8.26522 7 8 7ZM12 7V10.2695C11.6961 10.0934 11.3512 10.0005 11 10C10.7374 10 10.4773 10.0517 10.2346 10.1522C9.99198 10.2527 9.7715 10.4001 9.58578 10.5858C9.40007 10.7715 9.25275 10.992 9.15224 11.2346C9.05173 11.4773 9 11.7374 9 12C9 12.2626 9.05173 12.5227 9.15224 12.7654C9.25275 13.008 9.40007 13.2285 9.58578 13.4142C9.7715 13.5999 9.99198 13.7473 10.2346 13.8478C10.4773 13.9483 10.7374 14 11 14C11.2626 14 11.5227 13.9483 11.7654 13.8478C12.008 13.7473 12.2285 13.5999 12.4142 13.4142C12.5999 13.2285 12.7473 13.008 12.8478 12.7654C12.9483 12.5227 13 12.2626 13 12V8H14L13 7H12Z" fill="url(#paint0_linear_10_11034)"/>
<defs>
<linearGradient id="paint0_linear_10_11034" x1="2" y1="8" x2="14" y2="8" gradientUnits="userSpaceOnUse">
<stop stop-color="#FDFC47"/>
<stop offset="1" stop-color="#24FE41"/>
</linearGradient>
</defs>
</svg>
