<svg width="16" height="16" viewBox="0 0 16 16" fill="none" xmlns="http://www.w3.org/2000/svg">
<g clip-path="url(#clip0_10_11028)">
<path d="M8 0C5.87827 0 3.84344 0.842855 2.34315 2.34315C0.842855 3.84344 0 5.87827 0 8C0 10.1217 0.842855 12.1566 2.34315 13.6569C3.84344 15.1571 5.87827 16 8 16C10.1217 16 12.1566 15.1571 13.6569 13.6569C15.1571 12.1566 16 10.1217 16 8C16 5.87827 15.1571 3.84344 13.6569 2.34315C12.1566 0.842855 10.1217 0 8 0ZM8 1C9.85652 1 11.637 1.7375 12.9497 3.05025C14.2625 4.36301 15 6.14348 15 8C15 9.85652 14.2625 11.637 12.9497 12.9497C11.637 14.2625 9.85652 15 8 15C6.14348 15 4.36301 14.2625 3.05025 12.9497C1.7375 11.637 1 9.85652 1 8C1 6.14348 1.7375 4.36301 3.05025 3.05025C4.36301 1.7375 6.14348 1 8 1Z" fill="url(#paint0_linear_10_11028)"/>
<path d="M5 7C5.55228 7 6 6.55228 6 6C6 5.44772 5.55228 5 5 5C4.44772 5 4 5.44772 4 6C4 6.55228 4.44772 7 5 7Z" fill="url(#paint1_linear_10_11028)"/>
<path d="M11 7C11.5523 7 12 6.55228 12 6C12 5.44772 11.5523 5 11 5C10.4477 5 10 5.44772 10 6C10 6.55228 10.4477 7 11 7Z" fill="url(#paint2_linear_10_11028)"/>
<path d="M8.00003 9C7.02823 9.00124 6.07785 9.28565 5.26512 9.81844C4.4524 10.3512 3.81255 11.1093 3.42383 12H4.54103C4.89167 11.3927 5.39582 10.8882 6.00292 10.5372C6.61002 10.1861 7.29875 10.0009 8.00003 10C8.70131 10.0009 9.39003 10.1861 9.99714 10.5372C10.6042 10.8882 11.1084 11.3927 11.459 12H12.5801C12.1911 11.1087 11.5507 10.3502 10.7372 9.81738C9.92371 9.28454 8.97249 9.00048 8.00003 9Z" fill="url(#paint3_linear_10_11028)"/>
</g>
<defs>
<linearGradient id="paint0_linear_10_11028" x1="0" y1="8" x2="16" y2="8" gradientUnits="userSpaceOnUse">
<stop stop-color="#FDFC47"/>
<stop offset="1" stop-color="#24FE41"/>
</linearGradient>
<linearGradient id="paint1_linear_10_11028" x1="4" y1="6" x2="6" y2="6" gradientUnits="userSpaceOnUse">
<stop stop-color="#FDFC47"/>
<stop offset="1" stop-color="#24FE41"/>
</linearGradient>
<linearGradient id="paint2_linear_10_11028" x1="10" y1="6" x2="12" y2="6" gradientUnits="userSpaceOnUse">
<stop stop-color="#FDFC47"/>
<stop offset="1" stop-color="#24FE41"/>
</linearGradient>
<linearGradient id="paint3_linear_10_11028" x1="3.42383" y1="10.5" x2="12.5801" y2="10.5" gradientUnits="userSpaceOnUse">
<stop stop-color="#FDFC47"/>
<stop offset="1" stop-color="#24FE41"/>
</linearGradient>
<clipPath id="clip0_10_11028">
<rect width="16" height="16" fill="white"/>
</clipPath>
</defs>
</svg>
