<svg width="16" height="16" viewBox="0 0 16 16" fill="none" xmlns="http://www.w3.org/2000/svg">
<path d="M8 2L6 5H10L8 2ZM5 6L2 8L5 10V6ZM11 6V10L14 8L11 6ZM8 7C7.44772 7 7 7.44772 7 8C7 8.55228 7.44772 9 8 9C8.55228 9 9 8.55228 9 8C9 7.44772 8.55228 7 8 7ZM6 11L8 14L10 11H6Z" fill="url(#paint0_linear_10_11066)"/>
<defs>
<linearGradient id="paint0_linear_10_11066" x1="2" y1="8" x2="14" y2="8" gradientUnits="userSpaceOnUse">
<stop stop-color="#FDFC47"/>
<stop offset="1" stop-color="#24FE41"/>
</linearGradient>
</defs>
</svg>
