<svg width="16" height="16" viewBox="0 0 16 16" fill="none" xmlns="http://www.w3.org/2000/svg">
<path d="M2 2V4L3 3L5 5L7 3L9 5L11 3L13 5L11 7L13 9L11 11H14V2H2ZM11 11L9 9V11H11ZM9 9L11 7L9 5L7 7H9V9ZM7 7L5 5L3 7H7ZM3 7L2 6V7H3Z" fill="url(#paint0_linear_10_11049)"/>
<path d="M5.17006 14.33L4.46306 13.623L6.08406 12.002H2.00806V11.002H6.08406L4.46306 9.38095L5.17006 8.67395L7.99806 11.502L7.29106 12.209L5.17006 14.33Z" fill="url(#paint1_linear_10_11049)"/>
<defs>
<linearGradient id="paint0_linear_10_11049" x1="2" y1="6.5" x2="14" y2="6.5" gradientUnits="userSpaceOnUse">
<stop stop-color="#FDFC47"/>
<stop offset="1" stop-color="#24FE41"/>
</linearGradient>
<linearGradient id="paint1_linear_10_11049" x1="2.00806" y1="11.502" x2="7.99806" y2="11.502" gradientUnits="userSpaceOnUse">
<stop stop-color="#FDFC47"/>
<stop offset="1" stop-color="#24FE41"/>
</linearGradient>
</defs>
</svg>
