<svg width="16" height="16" viewBox="0 0 16 16" fill="none" xmlns="http://www.w3.org/2000/svg">
<g clip-path="url(#clip0_10_11082)">
<path d="M6 0C5.446 0 5 0.446 5 1V2H0.5C0.223 2 0 2.223 0 2.5C0 2.777 0.223 3 0.5 3H0.99805L1.54493 14.061C1.60613 15.0765 2.45108 16.0005 3.54293 16.0005H11.457C12.5489 16.0005 13.3938 15.0766 13.455 14.061L14.0019 3H14.5C14.777 3 15 2.777 15 2.5C15 2.223 14.777 2 14.5 2H9.99996V1C9.99996 0.446 9.55396 0 8.99996 0L6 0ZM6 1H9V2H6V1ZM2 3H13L12.457 14C12.4237 14.553 12.011 15 11.457 15H3.54293C2.98893 15 2.57626 14.553 2.54293 14L2 3ZM4.5 5C4.223 5 4 5.223 4 5.5V12.5C4 12.777 4.223 13 4.5 13C4.777 13 5 12.777 5 12.5V5.5C5 5.223 4.777 5 4.5 5ZM7.5 5C7.223 5 7 5.223 7 5.5V12.5C7 12.777 7.223 13 7.5 13C7.777 13 8 12.777 8 12.5V5.5C8 5.223 7.777 5 7.5 5ZM10.5 5C10.223 5 10 5.223 10 5.5V12.5C10 12.777 10.223 13 10.5 13C10.777 13 11 12.777 11 12.5V5.5C11 5.223 10.777 5 10.5 5Z" fill="url(#paint0_linear_10_11082)"/>
</g>
<defs>
<linearGradient id="paint0_linear_10_11082" x1="0" y1="8.00025" x2="15" y2="8.00025" gradientUnits="userSpaceOnUse">
<stop stop-color="#FDFC47"/>
<stop offset="1" stop-color="#24FE41"/>
</linearGradient>
<clipPath id="clip0_10_11082">
<rect width="16" height="16" fill="white"/>
</clipPath>
</defs>
</svg>
