<svg width="16" height="16" viewBox="0 0 16 16" fill="none" xmlns="http://www.w3.org/2000/svg">
<g clip-path="url(#clip0_10_11104)">
<path d="M2 2C0.892 2 0 2.892 0 4V13C0 14.108 0.892 15 2 15H8.7617C8.26607 14.2604 8.00098 13.3903 7.99998 12.5C8.00033 11.666 8.23247 10.8484 8.67048 10.1386C9.10849 9.42888 9.73514 8.8548 10.4805 8.4805L10 8.00003L6.52151 12L4.00001 10L1.00001 13V4.00003C1.00001 3.44603 1.44601 3.00003 2.00001 3.00003H14C14.554 3.00003 15 3.44603 15 4.00003V8.75983C15.3776 9.01231 15.7147 9.32048 16 9.67389V4.00009C16 2.89209 15.108 2.00009 14 2.00009L2 2ZM4.5 5C3.67157 5 3 5.67157 3 6.5C3 7.32843 3.67157 8 4.5 8C5.32843 8 6 7.32843 6 6.5C6 5.67157 5.32843 5 4.5 5Z" fill="url(#paint0_linear_10_11104)"/>
<path d="M12.5 9C11.5717 9 10.6815 9.36875 10.0251 10.0251C9.36875 10.6815 9 11.5717 9 12.5C9 13.4283 9.36875 14.3185 10.0251 14.9749C10.6815 15.6313 11.5717 16 12.5 16C13.4283 16 14.3185 15.6313 14.9749 14.9749C15.6313 14.3185 16 13.4283 16 12.5C16 11.5717 15.6313 10.6815 14.9749 10.0251C14.3185 9.36875 13.4283 9 12.5 9ZM12.5 10.0859L15 12.5859L14.293 13.2929L13 11.9999V14.9999H12V11.9999L10.707 13.2929L9.99994 12.5859L12.5 10.0859Z" fill="url(#paint1_linear_10_11104)"/>
</g>
<defs>
<linearGradient id="paint0_linear_10_11104" x1="0" y1="8.5" x2="16" y2="8.5" gradientUnits="userSpaceOnUse">
<stop stop-color="#FDFC47"/>
<stop offset="1" stop-color="#24FE41"/>
</linearGradient>
<linearGradient id="paint1_linear_10_11104" x1="9" y1="12.5" x2="16" y2="12.5" gradientUnits="userSpaceOnUse">
<stop stop-color="#FDFC47"/>
<stop offset="1" stop-color="#24FE41"/>
</linearGradient>
<clipPath id="clip0_10_11104">
<rect width="16" height="16" fill="white"/>
</clipPath>
</defs>
</svg>
