<svg width="16" height="16" viewBox="0 0 16 16" fill="none" xmlns="http://www.w3.org/2000/svg">
<path d="M11.5 2C10.1193 2 9 3.11929 9 4.5C9 5.88071 10.1193 7 11.5 7C12.8807 7 14 5.88071 14 4.5C14 3.11929 12.8807 2 11.5 2ZM5.5 4C4.11929 4 3 5.11929 3 6.5C3 7.88071 4.11929 9 5.5 9C6.88071 9 8 7.88071 8 6.5C8 5.11929 6.88071 4 5.5 4ZM11 8.07227C9.90517 8.30802 8.97394 9.12538 8.49219 10.2734C8.71311 10.4931 8.91395 10.7365 9.0918 11H9.29297C9.56818 10.0708 10.2064 9.36327 11 9.10742V8.07227ZM12 9V10H13V9H12ZM5.5 10C3.567 10 2 11.7909 2 14H9C9 11.7909 7.433 10 5.5 10ZM5.5 11C6.55817 11.0018 7.50079 11.8028 7.85352 13H3.14648C3.49921 11.8028 4.44183 11.0018 5.5 11ZM12 11V12H13V11H12ZM12 13V14H13V13H12Z" fill="url(#paint0_linear_10_11114)"/>
<defs>
<linearGradient id="paint0_linear_10_11114" x1="2" y1="8" x2="14" y2="8" gradientUnits="userSpaceOnUse">
<stop stop-color="#FDFC47"/>
<stop offset="1" stop-color="#24FE41"/>
</linearGradient>
</defs>
</svg>
