<svg width="22" height="22" viewBox="0 0 22 22" fill="none" xmlns="http://www.w3.org/2000/svg">
<path d="M11 3C6.58172 3 3 4.34315 3 6V16C3 17.6569 6.58172 19 11 19C12.8947 19 14.7281 18.7483 16.1738 18.2891L15.4395 17.5449C15.4252 17.5482 15.4109 17.5514 15.3965 17.5547C14.9441 17.7443 14.5212 18 14 18C13.7059 18 13.421 17.9634 13.1445 17.9023C12.4518 17.9666 11.7283 17.9995 11 18C7.13401 18 4 17.1046 4 16V12.4512C5.23857 13.2884 7.46848 13.8537 10.002 13.9727C10.0044 13.6297 10.0638 13.3023 10.1484 12.9844C6.63906 12.8615 4.00136 12.0102 4 11V7.45117C5.40812 8.40658 8.08901 8.99976 11 9C13.9143 8.99858 16.596 8.40298 18 7.44531V15.8887L18.7891 16.668C18.9259 16.449 18.9967 16.2249 19 16V6C19 4.34315 15.4183 3 11 3ZM11 4C14.866 4 18 4.89543 18 6C18 7.10457 14.866 8 11 8C7.13401 8 4 7.10457 4 6C4 4.89543 7.13401 4 11 4ZM14 11C12.338 11 11 12.338 11 14C11 15.662 12.338 17 14 17C14.6494 17 15.26 16.7855 15.75 16.4375L18.2812 19L19 18.2812L16.4375 15.75C16.7856 15.2601 17 14.6494 17 14C17 12.338 15.662 11 14 11ZM14 12C15.1 12 16 12.892 16 14C16 15.108 15.1 16 14 16C12.9 16 12 15.108 12 14C12 12.892 12.892 12 14 12Z" fill="url(#paint0_linear_10_11123)"/>
<defs>
<linearGradient id="paint0_linear_10_11123" x1="3" y1="11" x2="19" y2="11" gradientUnits="userSpaceOnUse">
<stop stop-color="#FDFC47"/>
<stop offset="1" stop-color="#24FE41"/>
</linearGradient>
</defs>
</svg>
