<svg width="22" height="22" viewBox="0 0 22 22" fill="none" xmlns="http://www.w3.org/2000/svg">
<path d="M11 3C6.58172 3 3 4.34315 3 6V16C3 17.6569 6.58172 19 11 19C12.5512 18.9995 14.0685 18.8298 15.3672 18.5117L15.8789 18H10.8789L10.877 17.998C7.0618 17.9789 4 17.0902 4 16V12.4512C4.59334 12.8507 5.4224 13.1941 6.42383 13.4551L7.20117 12.6777C5.2076 12.3097 4.00253 11.6781 4 11V7.45117C5.40812 8.40658 8.08901 8.99976 11 9C13.9143 8.99858 16.596 8.40298 18 7.44531V11C18 11.3428 17.6883 11.6798 17.0996 11.9785L17.7344 12.6133C17.8278 12.5584 17.9163 12.5024 18 12.4453V12.8789L19 13.8789V6C19 4.34315 15.4183 3 11 3ZM11 4C14.866 4 18 4.89543 18 6C18 7.10457 14.866 8 11 8C7.13401 8 4 7.10457 4 6C4 4.89543 7.13401 4 11 4ZM11.293 10L7.79297 13.5L11.293 17L12 16.293L9.70703 14H15V13H9.70703L12 10.707L11.293 10ZM16.707 13L16 13.707L18.293 16H13V17H18.293L16 19.293L16.707 20L20.207 16.5L16.707 13Z" fill="url(#paint0_linear_10_11118)"/>
<defs>
<linearGradient id="paint0_linear_10_11118" x1="3" y1="11.5" x2="20.207" y2="11.5" gradientUnits="userSpaceOnUse">
<stop stop-color="#FDFC47"/>
<stop offset="1" stop-color="#24FE41"/>
</linearGradient>
</defs>
</svg>
