<svg width="16" height="16" viewBox="0 0 16 16" fill="none" xmlns="http://www.w3.org/2000/svg">
<g clip-path="url(#clip0_10_11337)">
<path opacity="0.35" d="M7.99796 2.03894C4.22816 2.04352 0.927865 4.40574 -0.00983546 7.76944C-0.0536877 7.92639 -0.0536877 8.09101 -0.00983546 8.24796C0.935835 11.6041 4.23606 13.9586 7.99996 13.9609C8.00063 13.9609 8.0013 13.9609 8.00196 13.9609C11.7718 13.9563 15.0721 11.5941 16.0098 8.23036C16.054 8.07279 16.054 7.90746 16.0098 7.74989C15.0641 4.39379 11.7639 2.04129 7.99996 2.03899C7.9993 2.03899 7.99863 2.03894 7.99796 2.03894ZM7.99996 2.99988C11.2947 3.00192 14.1723 5.05428 15 7.99208C14.1791 10.9365 11.2999 12.9959 7.99996 12.9999C4.70516 12.9979 1.82776 10.9455 0.999964 8.00768C1.82081 5.06328 4.70006 3.00388 7.99996 2.99988ZM7.99996 4.99988C7.20432 4.99988 6.44125 5.31595 5.87864 5.87856C5.31603 6.44117 4.99996 7.20423 4.99996 7.99988C4.99996 8.79553 5.31603 9.55859 5.87864 10.1212C6.44125 10.6838 7.20432 10.9999 7.99996 10.9999C8.39393 10.9999 8.78404 10.9223 9.14802 10.7715C9.51199 10.6208 9.84271 10.3998 10.1213 10.1212C10.3999 9.84262 10.6208 9.51191 10.7716 9.14793C10.9224 8.78395 11 8.39385 11 7.99988C11 7.20423 10.6839 6.44117 10.1213 5.87856C9.55868 5.31595 8.79561 4.99988 7.99996 4.99988ZM7.95113 5.99988C7.96741 5.99968 7.98369 5.99968 7.99996 5.99988C8.26261 5.99988 8.52268 6.05161 8.76533 6.15212C9.00798 6.25263 9.22846 6.39995 9.41418 6.58567C9.5999 6.77138 9.74721 6.99186 9.84772 7.23451C9.94823 7.47716 9.99996 7.73724 9.99996 7.99988C9.99996 8.53031 9.78925 9.03902 9.41418 9.41409C9.03911 9.78917 8.5304 9.99988 7.99996 9.99988C7.46953 9.99988 6.96082 9.78917 6.58575 9.41409C6.21068 9.03902 5.99996 8.53031 5.99996 7.99988C5.99981 7.4778 6.20381 6.97635 6.56839 6.60264C6.93298 6.22894 7.4292 6.01262 7.95113 5.99988Z" fill="url(#paint0_linear_10_11337)"/>
<path d="M4.43292 0.821777L3.56689 1.32178L11.5669 15.1782L12.4329 14.6782L4.43292 0.821777Z" fill="url(#paint1_linear_10_11337)"/>
</g>
<defs>
<linearGradient id="paint0_linear_10_11337" x1="-0.0427246" y1="7.9999" x2="16.0429" y2="7.9999" gradientUnits="userSpaceOnUse">
<stop stop-color="#FDFC47"/>
<stop offset="1" stop-color="#24FE41"/>
</linearGradient>
<linearGradient id="paint1_linear_10_11337" x1="7.56689" y1="8.24998" x2="8.43292" y2="7.74998" gradientUnits="userSpaceOnUse">
<stop stop-color="#FDFC47"/>
<stop offset="1" stop-color="#24FE41"/>
</linearGradient>
<clipPath id="clip0_10_11337">
<rect width="16" height="16" fill="white"/>
</clipPath>
</defs>
</svg>
