<svg width="16" height="16" viewBox="0 0 16 16" fill="none" xmlns="http://www.w3.org/2000/svg">
<path d="M14 4C13.446 4 13 4.446 13 5V12L14.5 14L16 12V5C16 4.446 15.554 4 15 4H14ZM14.5 5C14.777 5 15 5.223 15 5.5V6V11V11.5C15 11.777 14.777 12 14.5 12C14.223 12 14 11.777 14 11.5V11V6V5.5C14 5.223 14.223 5 14.5 5Z" fill="url(#paint0_linear_10_11137)"/>
<path d="M2 1C0.892 1 0 1.892 0 3V13C0 14.108 0.892 15 2 15H10C11.108 15 12 14.108 12 13V3C12 1.892 11.108 1 10 1H2ZM3 2H10C10.554 2 11 2.446 11 3V13C11 13.554 10.554 14 10 14H3C2.446 14 2 13.554 2 13V3C2 2.446 2.446 2 3 2ZM9.5 4C9.223 4 9 4.223 9 4.5V11.5C9 11.777 9.223 12 9.5 12C9.777 12 10 11.777 10 11.5V4.5C10 4.223 9.777 4 9.5 4Z" fill="url(#paint1_linear_10_11137)"/>
<defs>
<linearGradient id="paint0_linear_10_11137" x1="13" y1="9" x2="16" y2="9" gradientUnits="userSpaceOnUse">
<stop stop-color="#FDFC47"/>
<stop offset="1" stop-color="#24FE41"/>
</linearGradient>
<linearGradient id="paint1_linear_10_11137" x1="0" y1="8" x2="12" y2="8" gradientUnits="userSpaceOnUse">
<stop stop-color="#FDFC47"/>
<stop offset="1" stop-color="#24FE41"/>
</linearGradient>
</defs>
</svg>
