<svg width="16" height="16" viewBox="0 0 16 16" fill="none" xmlns="http://www.w3.org/2000/svg">
<path d="M9.38477 3.89844L8.61523 4.53906L11 7.40039V9H9V10H11V12H12V10H14V9H12V7.40039L14.3848 4.53906L13.6152 3.89844L11.5 6.4375L9.38477 3.89844ZM5.5 4C4.115 4 3 5.115 3 6.5V7H2V8H3V9H2V10H3.05078C3.28098 11.1441 4.28614 12 5.5 12H7V11H5.5C5.0845 11 4.70862 10.8336 4.4375 10.5625C4.28132 10.4063 4.16473 10.2132 4.08984 10H7V9H4V8H7V7H4V6.5C4 6.0845 4.16638 5.70862 4.4375 5.4375C4.70862 5.16638 5.0845 5 5.5 5H7V4H5.5Z" fill="url(#paint0_linear_10_11227)"/>
<defs>
<linearGradient id="paint0_linear_10_11227" x1="2" y1="7.94922" x2="14.3848" y2="7.94922" gradientUnits="userSpaceOnUse">
<stop stop-color="#FDFC47"/>
<stop offset="1" stop-color="#24FE41"/>
</linearGradient>
</defs>
</svg>
