<svg width="16" height="16" viewBox="0 0 16 16" fill="none" xmlns="http://www.w3.org/2000/svg">
<path d="M2 2.99988V3.99989H5V2.99988H2Z" fill="url(#paint0_linear_10_11449)"/>
<path d="M2 13V12H11V13H2Z" fill="url(#paint1_linear_10_11449)"/>
<path d="M2 6V7.00002H7V6H2Z" fill="url(#paint2_linear_10_11449)"/>
<path d="M2 8.99988V9.99989H9V8.99988H2Z" fill="url(#paint3_linear_10_11449)"/>
<path d="M10.5 1.99988L7 5.49993L7.70703 6.20698L10 3.91398V7.99985H11V3.91398L13.293 6.20698L14 5.49993L10.5 1.99988Z" fill="url(#paint4_linear_10_11449)"/>
<defs>
<linearGradient id="paint0_linear_10_11449" x1="2" y1="3.49989" x2="5" y2="3.49989" gradientUnits="userSpaceOnUse">
<stop stop-color="#FDFC47"/>
<stop offset="1" stop-color="#24FE41"/>
</linearGradient>
<linearGradient id="paint1_linear_10_11449" x1="2" y1="12.5" x2="11" y2="12.5" gradientUnits="userSpaceOnUse">
<stop stop-color="#FDFC47"/>
<stop offset="1" stop-color="#24FE41"/>
</linearGradient>
<linearGradient id="paint2_linear_10_11449" x1="2" y1="6.50001" x2="7" y2="6.50001" gradientUnits="userSpaceOnUse">
<stop stop-color="#FDFC47"/>
<stop offset="1" stop-color="#24FE41"/>
</linearGradient>
<linearGradient id="paint3_linear_10_11449" x1="2" y1="9.49989" x2="9" y2="9.49989" gradientUnits="userSpaceOnUse">
<stop stop-color="#FDFC47"/>
<stop offset="1" stop-color="#24FE41"/>
</linearGradient>
<linearGradient id="paint4_linear_10_11449" x1="7" y1="4.99987" x2="14" y2="4.99987" gradientUnits="userSpaceOnUse">
<stop stop-color="#FDFC47"/>
<stop offset="1" stop-color="#24FE41"/>
</linearGradient>
</defs>
</svg>
