<svg width="16" height="16" viewBox="0 0 16 16" fill="none" xmlns="http://www.w3.org/2000/svg">
<path d="M2 2C1.446 2 1 2.446 1 3V5C1 5.554 1.446 6 2 6H4C4.554 6 5 5.554 5 5V3C5 2.446 4.554 2 4 2H2ZM2 3H4V5H2V3Z" fill="url(#paint0_linear_10_11355)"/>
<path d="M7 2C6.446 2 6 2.446 6 3V5C6 5.554 6.446 6 7 6H9C9.554 6 10 5.554 10 5V3C10 2.446 9.554 2 9 2H7ZM7 3H9V5H7V3Z" fill="url(#paint1_linear_10_11355)"/>
<path d="M12 2C11.446 2 11 2.446 11 3V5C11 5.554 11.446 6 12 6H14C14.554 6 15 5.554 15 5V3C15 2.446 14.554 2 14 2H12ZM12 3H14V5H12V3Z" fill="url(#paint2_linear_10_11355)"/>
<path d="M2 11C1.446 11 1 11.446 1 12V14C1 14.554 1.446 15 2 15H4C4.554 15 5 14.554 5 14V12C5 11.446 4.554 11 4 11H2ZM2 12H4V14H2V12Z" fill="url(#paint3_linear_10_11355)"/>
<path d="M7 11C6.446 11 6 11.446 6 12V14C6 14.554 6.446 15 7 15H9C9.554 15 10 14.554 10 14V12C10 11.446 9.554 11 9 11H7ZM7 12H9V14H7V12Z" fill="url(#paint4_linear_10_11355)"/>
<path d="M12 11C11.446 11 11 11.446 11 12V14C11 14.554 11.446 15 12 15H14C14.554 15 15 14.554 15 14V12C15 11.446 14.554 11 14 11H12ZM12 12H14V14H12V12Z" fill="url(#paint5_linear_10_11355)"/>
<path d="M14.5 8H1.5C1.22386 8 1 8.22386 1 8.5C1 8.77614 1.22386 9 1.5 9H14.5C14.7761 9 15 8.77614 15 8.5C15 8.22386 14.7761 8 14.5 8Z" fill="url(#paint6_linear_10_11355)"/>
<defs>
<linearGradient id="paint0_linear_10_11355" x1="1" y1="4" x2="5" y2="4" gradientUnits="userSpaceOnUse">
<stop stop-color="#FDFC47"/>
<stop offset="1" stop-color="#24FE41"/>
</linearGradient>
<linearGradient id="paint1_linear_10_11355" x1="6" y1="4" x2="10" y2="4" gradientUnits="userSpaceOnUse">
<stop stop-color="#FDFC47"/>
<stop offset="1" stop-color="#24FE41"/>
</linearGradient>
<linearGradient id="paint2_linear_10_11355" x1="11" y1="4" x2="15" y2="4" gradientUnits="userSpaceOnUse">
<stop stop-color="#FDFC47"/>
<stop offset="1" stop-color="#24FE41"/>
</linearGradient>
<linearGradient id="paint3_linear_10_11355" x1="1" y1="13" x2="5" y2="13" gradientUnits="userSpaceOnUse">
<stop stop-color="#FDFC47"/>
<stop offset="1" stop-color="#24FE41"/>
</linearGradient>
<linearGradient id="paint4_linear_10_11355" x1="6" y1="13" x2="10" y2="13" gradientUnits="userSpaceOnUse">
<stop stop-color="#FDFC47"/>
<stop offset="1" stop-color="#24FE41"/>
</linearGradient>
<linearGradient id="paint5_linear_10_11355" x1="11" y1="13" x2="15" y2="13" gradientUnits="userSpaceOnUse">
<stop stop-color="#FDFC47"/>
<stop offset="1" stop-color="#24FE41"/>
</linearGradient>
<linearGradient id="paint6_linear_10_11355" x1="1" y1="8.5" x2="15" y2="8.5" gradientUnits="userSpaceOnUse">
<stop stop-color="#FDFC47"/>
<stop offset="1" stop-color="#24FE41"/>
</linearGradient>
</defs>
</svg>
