<svg width="16" height="16" viewBox="0 0 16 16" fill="none" xmlns="http://www.w3.org/2000/svg">
<path d="M3 2V14H8.36523C8.21747 13.6914 8.15171 13.3513 8.09961 13H4V3H12V9.09961C12.3513 9.15171 12.6914 9.21747 13 9.36523V2H3ZM5 4V5H9V4H5ZM5 6V7H9V6H5ZM5 8V9H9V8H5ZM11.5 10C10.115 10 9 11.115 9 12.5C9 13.885 10.115 15 11.5 15C12.885 15 14 13.885 14 12.5C14 11.115 12.885 10 11.5 10ZM11.5 11C11.9155 11 12.2914 11.1664 12.5625 11.4375C12.8336 11.7086 13 12.0845 13 12.5H11.5V14C11.0845 14 10.7086 13.8336 10.4375 13.5625C10.1664 13.2914 10 12.9155 10 12.5C10 12.0845 10.1664 11.7086 10.4375 11.4375C10.7086 11.1664 11.0845 11 11.5 11Z" fill="url(#paint0_linear_10_11295)"/>
<path d="M10 4V5H11V4H10ZM10 6V7H11V6H10ZM10 8V9H11V8H10Z" fill="url(#paint1_linear_10_11295)"/>
<defs>
<linearGradient id="paint0_linear_10_11295" x1="3" y1="8.5" x2="14" y2="8.5" gradientUnits="userSpaceOnUse">
<stop stop-color="#FDFC47"/>
<stop offset="1" stop-color="#24FE41"/>
</linearGradient>
<linearGradient id="paint1_linear_10_11295" x1="10" y1="6.5" x2="11" y2="6.5" gradientUnits="userSpaceOnUse">
<stop stop-color="#FDFC47"/>
<stop offset="1" stop-color="#24FE41"/>
</linearGradient>
</defs>
</svg>
