<svg width="16" height="16" viewBox="0 0 16 16" fill="none" xmlns="http://www.w3.org/2000/svg">
<path d="M12 13.9999H11V1.00009H12V13.9999Z" fill="url(#paint0_linear_10_11465)"/>
<path d="M2 1C1.44599 1 1 1.44599 1 2V3.99999C1 4.55399 1.44599 4.99998 2 4.99998H5.9999C6.55391 4.99998 6.9999 4.55399 6.9999 3.99999V2C6.9999 1.44599 6.55391 1 5.9999 1H2ZM2 2H5.9999V3.99999H2V2Z" fill="url(#paint1_linear_10_11465)"/>
<path d="M2 6C1.44599 6 1 6.44599 1 7V8.99999C1 9.55399 1.44599 9.99998 2 9.99998H5.9999C6.55391 9.99998 6.9999 9.55399 6.9999 8.99999V7C6.9999 6.44599 6.55391 6 5.9999 6H2ZM2 7H5.9999V8.99999H2V7Z" fill="url(#paint2_linear_10_11465)"/>
<path d="M2 11C1.44599 11 1 11.446 1 12V14C1 14.554 1.44599 15 2 15H5.9999C6.55391 15 6.9999 14.554 6.9999 14V12C6.9999 11.446 6.55391 11 5.9999 11H2ZM2 12H5.9999V14H2V12Z" fill="url(#paint3_linear_10_11465)"/>
<path d="M11.5 15.207L8 11.707L8.70704 11L11 13.293V9.20691H12V13.293L14.293 11L15 11.707L11.5 15.207Z" fill="url(#paint4_linear_10_11465)"/>
<defs>
<linearGradient id="paint0_linear_10_11465" x1="11" y1="7.49998" x2="12" y2="7.49998" gradientUnits="userSpaceOnUse">
<stop stop-color="#FDFC47"/>
<stop offset="1" stop-color="#24FE41"/>
</linearGradient>
<linearGradient id="paint1_linear_10_11465" x1="1" y1="2.99999" x2="6.9999" y2="2.99999" gradientUnits="userSpaceOnUse">
<stop stop-color="#FDFC47"/>
<stop offset="1" stop-color="#24FE41"/>
</linearGradient>
<linearGradient id="paint2_linear_10_11465" x1="1" y1="7.99999" x2="6.9999" y2="7.99999" gradientUnits="userSpaceOnUse">
<stop stop-color="#FDFC47"/>
<stop offset="1" stop-color="#24FE41"/>
</linearGradient>
<linearGradient id="paint3_linear_10_11465" x1="1" y1="13" x2="6.9999" y2="13" gradientUnits="userSpaceOnUse">
<stop stop-color="#FDFC47"/>
<stop offset="1" stop-color="#24FE41"/>
</linearGradient>
<linearGradient id="paint4_linear_10_11465" x1="8" y1="12.207" x2="15" y2="12.207" gradientUnits="userSpaceOnUse">
<stop stop-color="#FDFC47"/>
<stop offset="1" stop-color="#24FE41"/>
</linearGradient>
</defs>
</svg>
