<svg width="16" height="16" viewBox="0 0 16 16" fill="none" xmlns="http://www.w3.org/2000/svg">
<path d="M11.5 2C10.1193 2 9 3.11929 9 4.5C9 5.88071 10.1193 7 11.5 7C12.8807 7 14 5.88071 14 4.5C14 3.11929 12.8807 2 11.5 2ZM1 6V7H6V8H7V12H6V13H1V14H8V6H1ZM2 8C1.63409 8 1.29506 8.10576 1 8.27734V10C1 9.44772 1.44772 9 2 9C2.55228 9 3 9.44772 3 10C3 10.5523 2.55228 11 2 11C1.44772 11 1 10.5523 1 10V11.7227C1.29506 11.8942 1.63409 12 2 12C3.10457 12 4 11.1046 4 10C4 8.89543 3.10457 8 2 8ZM11.6465 8C10.6137 8.00097 9.65457 8.52379 9 9.39258V12H15.1465C15.1465 9.79086 13.5795 8 11.6465 8ZM11.6465 9C12.7047 9.00178 13.6473 9.80282 14 11H9.29297C9.64569 9.80282 10.5883 9.00178 11.6465 9Z" fill="url(#paint0_linear_10_11278)"/>
<defs>
<linearGradient id="paint0_linear_10_11278" x1="1" y1="8" x2="15.1465" y2="8" gradientUnits="userSpaceOnUse">
<stop stop-color="#FDFC47"/>
<stop offset="1" stop-color="#24FE41"/>
</linearGradient>
</defs>
</svg>
