<svg width="16" height="16" viewBox="0 0 16 16" fill="none" xmlns="http://www.w3.org/2000/svg">
<path d="M10.1101 6.5L6.96167 10.1094L5.43628 8.5567L4.77417 9.23248L7.00076 11.5001L10.7742 7.1778L10.1101 6.5Z" fill="url(#paint0_linear_10_11405)"/>
<path d="M2 1.00001C0.892 1.00001 0 1.89201 0 3.00001V13C0 14.108 0.892 15 2 15H8.7617C8.55479 14.6887 8.38749 14.3527 8.26365 14H1.99995C1.44595 14 0.99995 13.554 0.99995 13V5.00001C0.99995 4.44601 1.44595 4.00001 1.99995 4.00001H13C13.554 4.00001 14 4.44601 14 5.00001V8.26371C14.3526 8.38693 14.6885 8.55357 15 8.7598V3C15 1.892 14.108 1 13 1L2 1.00001Z" fill="url(#paint1_linear_10_11405)"/>
<path d="M12.5 9C11.5717 9 10.6815 9.36875 10.0251 10.0251C9.36875 10.6815 9 11.5717 9 12.5C9 13.4283 9.36875 14.3185 10.0251 14.9749C10.6815 15.6313 11.5717 16 12.5 16C13.4283 16 14.3185 15.6313 14.9749 14.9749C15.6313 14.3185 16 13.4283 16 12.5C16 11.5717 15.6313 10.6815 14.9749 10.0251C14.3185 9.36875 13.4283 9 12.5 9ZM12 10H13V13H12V10ZM12 14H13V15H12V14Z" fill="url(#paint2_linear_10_11405)"/>
<defs>
<linearGradient id="paint0_linear_10_11405" x1="4.77417" y1="9.00006" x2="10.7742" y2="9.00006" gradientUnits="userSpaceOnUse">
<stop stop-color="#FDFC47"/>
<stop offset="1" stop-color="#24FE41"/>
</linearGradient>
<linearGradient id="paint1_linear_10_11405" x1="0" y1="8" x2="15" y2="8" gradientUnits="userSpaceOnUse">
<stop stop-color="#FDFC47"/>
<stop offset="1" stop-color="#24FE41"/>
</linearGradient>
<linearGradient id="paint2_linear_10_11405" x1="9" y1="12.5" x2="16" y2="12.5" gradientUnits="userSpaceOnUse">
<stop stop-color="#FDFC47"/>
<stop offset="1" stop-color="#24FE41"/>
</linearGradient>
</defs>
</svg>
