<svg width="16" height="16" viewBox="0 0 16 16" fill="none" xmlns="http://www.w3.org/2000/svg">
<path d="M2 1C0.892 1 0 1.892 0 3V13C0 14.108 0.892 15 2 15H13C14.108 15 15 14.108 15 13V3C15 1.892 14.108 1 13 1H2ZM2 4H13C13.554 4 14 4.446 14 5V13C14 13.554 13.554 14 13 14H2C1.446 14 1 13.554 1 13V5C1 4.446 1.446 4 2 4Z" fill="url(#paint0_linear_10_11207)"/>
<path d="M6.5 5H5.5C5.22386 5 5 5.22386 5 5.5V6.5C5 6.77614 5.22386 7 5.5 7H6.5C6.77614 7 7 6.77614 7 6.5V5.5C7 5.22386 6.77614 5 6.5 5Z" fill="url(#paint1_linear_10_11207)"/>
<path d="M9.5 5H8.5C8.22386 5 8 5.22386 8 5.5V6.5C8 6.77614 8.22386 7 8.5 7H9.5C9.77614 7 10 6.77614 10 6.5V5.5C10 5.22386 9.77614 5 9.5 5Z" fill="url(#paint2_linear_10_11207)"/>
<path d="M12.5 5H11.5C11.2239 5 11 5.22386 11 5.5V6.5C11 6.77614 11.2239 7 11.5 7H12.5C12.7761 7 13 6.77614 13 6.5V5.5C13 5.22386 12.7761 5 12.5 5Z" fill="url(#paint3_linear_10_11207)"/>
<path d="M6.5 8H5.5C5.22386 8 5 8.22386 5 8.5V9.5C5 9.77614 5.22386 10 5.5 10H6.5C6.77614 10 7 9.77614 7 9.5V8.5C7 8.22386 6.77614 8 6.5 8Z" fill="url(#paint4_linear_10_11207)"/>
<path d="M9.5 8H8.5C8.22386 8 8 8.22386 8 8.5V9.5C8 9.77614 8.22386 10 8.5 10H9.5C9.77614 10 10 9.77614 10 9.5V8.5C10 8.22386 9.77614 8 9.5 8Z" fill="url(#paint5_linear_10_11207)"/>
<path d="M12.5 8H11.5C11.2239 8 11 8.22386 11 8.5V9.5C11 9.77614 11.2239 10 11.5 10H12.5C12.7761 10 13 9.77614 13 9.5V8.5C13 8.22386 12.7761 8 12.5 8Z" fill="url(#paint6_linear_10_11207)"/>
<path d="M3.5 8H2.5C2.22386 8 2 8.22386 2 8.5V9.5C2 9.77614 2.22386 10 2.5 10H3.5C3.77614 10 4 9.77614 4 9.5V8.5C4 8.22386 3.77614 8 3.5 8Z" fill="url(#paint7_linear_10_11207)"/>
<path d="M3.5 11H2.5C2.22386 11 2 11.2239 2 11.5V12.5C2 12.7761 2.22386 13 2.5 13H3.5C3.77614 13 4 12.7761 4 12.5V11.5C4 11.2239 3.77614 11 3.5 11Z" fill="url(#paint8_linear_10_11207)"/>
<path d="M6.5 11H5.5C5.22386 11 5 11.2239 5 11.5V12.5C5 12.7761 5.22386 13 5.5 13H6.5C6.77614 13 7 12.7761 7 12.5V11.5C7 11.2239 6.77614 11 6.5 11Z" fill="url(#paint9_linear_10_11207)"/>
<path d="M9.5 11H8.5C8.22386 11 8 11.2239 8 11.5V12.5C8 12.7761 8.22386 13 8.5 13H9.5C9.77614 13 10 12.7761 10 12.5V11.5C10 11.2239 9.77614 11 9.5 11Z" fill="url(#paint10_linear_10_11207)"/>
<defs>
<linearGradient id="paint0_linear_10_11207" x1="0" y1="8" x2="15" y2="8" gradientUnits="userSpaceOnUse">
<stop stop-color="#FDFC47"/>
<stop offset="1" stop-color="#24FE41"/>
</linearGradient>
<linearGradient id="paint1_linear_10_11207" x1="5" y1="6" x2="7" y2="6" gradientUnits="userSpaceOnUse">
<stop stop-color="#FDFC47"/>
<stop offset="1" stop-color="#24FE41"/>
</linearGradient>
<linearGradient id="paint2_linear_10_11207" x1="8" y1="6" x2="10" y2="6" gradientUnits="userSpaceOnUse">
<stop stop-color="#FDFC47"/>
<stop offset="1" stop-color="#24FE41"/>
</linearGradient>
<linearGradient id="paint3_linear_10_11207" x1="11" y1="6" x2="13" y2="6" gradientUnits="userSpaceOnUse">
<stop stop-color="#FDFC47"/>
<stop offset="1" stop-color="#24FE41"/>
</linearGradient>
<linearGradient id="paint4_linear_10_11207" x1="5" y1="9" x2="7" y2="9" gradientUnits="userSpaceOnUse">
<stop stop-color="#FDFC47"/>
<stop offset="1" stop-color="#24FE41"/>
</linearGradient>
<linearGradient id="paint5_linear_10_11207" x1="8" y1="9" x2="10" y2="9" gradientUnits="userSpaceOnUse">
<stop stop-color="#FDFC47"/>
<stop offset="1" stop-color="#24FE41"/>
</linearGradient>
<linearGradient id="paint6_linear_10_11207" x1="11" y1="9" x2="13" y2="9" gradientUnits="userSpaceOnUse">
<stop stop-color="#FDFC47"/>
<stop offset="1" stop-color="#24FE41"/>
</linearGradient>
<linearGradient id="paint7_linear_10_11207" x1="2" y1="9" x2="4" y2="9" gradientUnits="userSpaceOnUse">
<stop stop-color="#FDFC47"/>
<stop offset="1" stop-color="#24FE41"/>
</linearGradient>
<linearGradient id="paint8_linear_10_11207" x1="2" y1="12" x2="4" y2="12" gradientUnits="userSpaceOnUse">
<stop stop-color="#FDFC47"/>
<stop offset="1" stop-color="#24FE41"/>
</linearGradient>
<linearGradient id="paint9_linear_10_11207" x1="5" y1="12" x2="7" y2="12" gradientUnits="userSpaceOnUse">
<stop stop-color="#FDFC47"/>
<stop offset="1" stop-color="#24FE41"/>
</linearGradient>
<linearGradient id="paint10_linear_10_11207" x1="8" y1="12" x2="10" y2="12" gradientUnits="userSpaceOnUse">
<stop stop-color="#FDFC47"/>
<stop offset="1" stop-color="#24FE41"/>
</linearGradient>
</defs>
</svg>
