<svg width="16" height="16" viewBox="0 0 16 16" fill="none" xmlns="http://www.w3.org/2000/svg">
<path d="M2 2V3H13V5H14V2H2ZM2 4V14H6V13H3V5H12V4H2ZM4 6V7H6V6H4ZM7 6V14H14V6H7ZM8 7H13V13H8V7ZM9 8V10H12V8H9ZM4 9V10H5V9H4ZM4 11V12H6V11H4ZM9 11V12H10V11H9ZM11 11V12H12V11H11Z" fill="url(#paint0_linear_10_11311)"/>
<defs>
<linearGradient id="paint0_linear_10_11311" x1="2" y1="8" x2="14" y2="8" gradientUnits="userSpaceOnUse">
<stop stop-color="#FDFC47"/>
<stop offset="1" stop-color="#24FE41"/>
</linearGradient>
</defs>
</svg>
