<svg width="16" height="16" viewBox="0 0 16 16" fill="none" xmlns="http://www.w3.org/2000/svg">
<path d="M3 2V14H13V2H3ZM4 3H12V10H4V3ZM5 4V5H9V4H5ZM10 4V5H11V4H10ZM5 6V7H9V6H5ZM5 8V9H9V8H5ZM10 8V9H11V8H10ZM4 11H12V13H4V11Z" fill="url(#paint0_linear_10_11313)"/>
<path d="M5 6V7H9V6H5ZM10 6V7H11V6H10Z" fill="url(#paint1_linear_10_11313)"/>
<defs>
<linearGradient id="paint0_linear_10_11313" x1="3" y1="8" x2="13" y2="8" gradientUnits="userSpaceOnUse">
<stop stop-color="#FDFC47"/>
<stop offset="1" stop-color="#24FE41"/>
</linearGradient>
<linearGradient id="paint1_linear_10_11313" x1="5" y1="6.5" x2="11" y2="6.5" gradientUnits="userSpaceOnUse">
<stop stop-color="#FDFC47"/>
<stop offset="1" stop-color="#24FE41"/>
</linearGradient>
</defs>
</svg>
