<svg width="16" height="16" viewBox="0 0 16 16" fill="none" xmlns="http://www.w3.org/2000/svg">
<path d="M2 4V12H14V4H2ZM4 5H12V6H13V10H12V11H4V10H3V6H4V5ZM8 6C6.89543 6 6 6.89543 6 8C6 9.10457 6.89543 10 8 10C9.10457 10 10 9.10457 10 8C10 6.89543 9.10457 6 8 6ZM8 7C8.55228 7 9 7.44772 9 8C9 8.55229 8.55228 9 8 9C7.44772 9 7 8.55229 7 8C7 7.44772 7.44772 7 8 7Z" fill="url(#paint0_linear_10_11244)"/>
<defs>
<linearGradient id="paint0_linear_10_11244" x1="2" y1="8" x2="14" y2="8" gradientUnits="userSpaceOnUse">
<stop stop-color="#FDFC47"/>
<stop offset="1" stop-color="#24FE41"/>
</linearGradient>
</defs>
</svg>
