<svg width="16" height="16" viewBox="0 0 16 16" fill="none" xmlns="http://www.w3.org/2000/svg">
<path d="M8 2C6.4087 2 4.88258 2.63214 3.75736 3.75736C2.63214 4.88258 2 6.4087 2 8C2 9.5913 2.63214 11.1174 3.75736 12.2426C4.88258 13.3679 6.4087 14 8 14C9.5913 14 11.1174 13.3679 12.2426 12.2426C13.3679 11.1174 14 9.5913 14 8C14 6.4087 13.3679 4.88258 12.2426 3.75736C11.1174 2.63214 9.5913 2 8 2ZM8.56704 3.7011V3.70264C8.66304 3.69495 8.75935 3.72395 8.82863 3.79336L12.2112 7.18196C12.2791 7.24989 12.3078 7.34147 12.3004 7.43599V7.44214C12.2901 7.64237 12.1196 7.81163 11.9194 7.82168L8.3569 7.99557L8.34178 8.00019C8.14154 8.01119 7.98875 7.85869 8.00005 7.65845L8.18604 4.08235C8.19684 3.8826 8.36727 3.71163 8.56704 3.7011ZM7.65827 8C7.85851 7.989 8.0113 8.1415 8 8.34173L7.81401 11.9178C7.80321 12.1176 7.63273 12.2883 7.43296 12.2989V12.2974C7.33696 12.3052 7.24065 12.2761 7.17137 12.2067L3.78877 8.81806C3.72093 8.75014 3.69221 8.65855 3.69956 8.56403L3.69656 8.55788C3.70689 8.35765 3.8804 8.18838 4.08064 8.17834L7.64014 8.00445L7.65827 8Z" fill="url(#paint0_linear_10_11429)"/>
<defs>
<linearGradient id="paint0_linear_10_11429" x1="2" y1="8" x2="14" y2="8" gradientUnits="userSpaceOnUse">
<stop stop-color="#FDFC47"/>
<stop offset="1" stop-color="#24FE41"/>
</linearGradient>
</defs>
</svg>
