<svg width="16" height="16" viewBox="0 0 16 16" fill="none" xmlns="http://www.w3.org/2000/svg">
<path d="M3 6V11H4V9H8V11H9V6H8V8H4V6H3ZM14 9L10 13V15H12L16 11L14 9ZM13.6895 10.6895L14.2812 11.2813L11.3125 14.2813L10.7187 13.6875L13.6895 10.6895Z" fill="url(#paint0_linear_10_11504)"/>
<path d="M2 1C0.892 1 0 1.892 0 3V13C0 14.108 0.892 15 2 15H9V14H2C1.446 14 1 13.554 1 13V5C1 4.446 1.446 4 2 4H13C13.554 4 14 4.446 14 5V8H15V3C15 1.892 14.108 1 13 1H2Z" fill="url(#paint1_linear_10_11504)"/>
<defs>
<linearGradient id="paint0_linear_10_11504" x1="3" y1="10.5" x2="16" y2="10.5" gradientUnits="userSpaceOnUse">
<stop stop-color="#FDFC47"/>
<stop offset="1" stop-color="#24FE41"/>
</linearGradient>
<linearGradient id="paint1_linear_10_11504" x1="0" y1="8" x2="15" y2="8" gradientUnits="userSpaceOnUse">
<stop stop-color="#FDFC47"/>
<stop offset="1" stop-color="#24FE41"/>
</linearGradient>
</defs>
</svg>
