<svg width="16" height="16" viewBox="0 0 16 16" fill="none" xmlns="http://www.w3.org/2000/svg">
<path d="M4 6V12H6V6H4ZM7 8V12H9V8H7ZM10 10V12H12V10H10Z" fill="url(#paint0_linear_10_11165)"/>
<path d="M2 1C0.892 1 0 1.892 0 3V13C0 14.108 0.892 15 2 15H13C14.108 15 15 14.108 15 13V3C15 1.892 14.108 1 13 1H2ZM2 4H13C13.554 4 14 4.446 14 5V13C14 13.554 13.554 14 13 14H2C1.446 14 1 13.554 1 13V5C1 4.446 1.446 4 2 4Z" fill="url(#paint1_linear_10_11165)"/>
<defs>
<linearGradient id="paint0_linear_10_11165" x1="4" y1="9" x2="12" y2="9" gradientUnits="userSpaceOnUse">
<stop stop-color="#FDFC47"/>
<stop offset="1" stop-color="#24FE41"/>
</linearGradient>
<linearGradient id="paint1_linear_10_11165" x1="0" y1="8" x2="15" y2="8" gradientUnits="userSpaceOnUse">
<stop stop-color="#FDFC47"/>
<stop offset="1" stop-color="#24FE41"/>
</linearGradient>
</defs>
</svg>
