<svg width="16" height="16" viewBox="0 0 16 16" fill="none" xmlns="http://www.w3.org/2000/svg">
<path d="M2 2V3H4.375L2 6.31836V7H6V6H4L6 3V2H2ZM10 4V12.0938L7.71875 9.8125L7 10.5L10.2812 13.8125L10.5 14L10.7188 13.8125L14 10.5L13.2812 9.8125L11 12.0938V4H10ZM4.09375 9C3.31051 9.0182 2.71841 9.14339 2.28125 9.34375L2.53125 10.25C2.74072 10.1771 3.53552 9.9375 4 9.9375H4.0625C4.70913 9.9648 4.75 10.1945 4.75 10.75V10.9688L4.40625 11.0312C2.83976 11.2589 2 11.4541 2 12.6562C2 13.4941 2.61657 14 3.5 14C4.1102 14 4.49642 13.7523 4.90625 13.4062L5 14H6V10.5312C6 9.50211 5.2804 9 4.1875 9H4.09375ZM4.75 11.6875V12.8125C4.41303 13.0402 4.15591 13.1875 3.71875 13.1875C3.32713 13.1875 3.125 12.9398 3.125 12.5938C3.125 11.938 3.70497 11.8189 4.40625 11.7188L4.75 11.6875Z" fill="url(#paint0_linear_10_11456)"/>
<defs>
<linearGradient id="paint0_linear_10_11456" x1="2" y1="8" x2="14" y2="8" gradientUnits="userSpaceOnUse">
<stop stop-color="#FDFC47"/>
<stop offset="1" stop-color="#24FE41"/>
</linearGradient>
</defs>
</svg>
