<svg width="16" height="16" viewBox="0 0 16 16" fill="none" xmlns="http://www.w3.org/2000/svg">
<path d="M4.12109 2L5.12109 3H12V4H13V5H14V2H4.12109ZM8 4C7.46856 4 7.04616 4.24174 6.71875 4.59766L7.12109 5H9.58594C9.23209 4.43701 8.71405 4 8 4ZM2 4.12109V5H2.87891L2 4.12109ZM2 6V9H3V8H4V7H4.87891L3.87891 6H2ZM8.12109 6L9.12109 7H12V8H13V9H14V6H8.12109ZM6.61328 8.73438C6.54436 8.82042 6.47355 8.90535 6.41406 9H6.87891L6.61328 8.73438ZM2 10V14H3V12H4V11H8.87891L7.87891 10H2ZM12.1211 10L14 11.8789V10H12.1211ZM8 12C6.89543 12 6 12.8954 6 14H7C7 13.7348 7.10536 13.4804 7.29289 13.2929C7.48043 13.1054 7.73478 13 8 13C8.13132 13 8.26136 13.0259 8.38268 13.0761C8.50401 13.1264 8.61425 13.2 8.70711 13.2929C8.79997 13.3858 8.87362 13.496 8.92388 13.6173C8.97413 13.7386 9 13.8687 9 14H10C10 12.8954 9.10457 12 8 12Z" fill="url(#paint0_linear_10_11263)"/>
<path d="M2.70703 2L2 2.70703L13.293 14L14 13.2676L2.70703 2Z" fill="url(#paint1_linear_10_11263)"/>
<defs>
<linearGradient id="paint0_linear_10_11263" x1="2" y1="8" x2="14" y2="8" gradientUnits="userSpaceOnUse">
<stop stop-color="#FDFC47"/>
<stop offset="1" stop-color="#24FE41"/>
</linearGradient>
<linearGradient id="paint1_linear_10_11263" x1="2" y1="8" x2="14" y2="8" gradientUnits="userSpaceOnUse">
<stop stop-color="#FDFC47"/>
<stop offset="1" stop-color="#24FE41"/>
</linearGradient>
</defs>
</svg>
