<svg width="16" height="16" viewBox="0 0 16 16" fill="none" xmlns="http://www.w3.org/2000/svg">
<path d="M4 6V8H6V6H4ZM7 6V8H9V6H7ZM10 6V8H12V6H10ZM4 10V12H6V10H4ZM7 10V12H9V10H7Z" fill="url(#paint0_linear_10_11334)"/>
<path d="M3 1C1.892 1 1 1.892 1 3V13C1 14.108 1.892 15 3 15H13C14.108 15 15 14.108 15 13V3C15 1.892 14.108 1 13 1H3ZM3 4H13C13.554 4 14 4.446 14 5V13C14 13.554 13.554 14 13 14H3C2.446 14 2 13.554 2 13V5C2 4.446 2.446 4 3 4Z" fill="url(#paint1_linear_10_11334)"/>
<defs>
<linearGradient id="paint0_linear_10_11334" x1="4" y1="9" x2="12" y2="9" gradientUnits="userSpaceOnUse">
<stop stop-color="#FDFC47"/>
<stop offset="1" stop-color="#24FE41"/>
</linearGradient>
<linearGradient id="paint1_linear_10_11334" x1="1" y1="8" x2="15" y2="8" gradientUnits="userSpaceOnUse">
<stop stop-color="#FDFC47"/>
<stop offset="1" stop-color="#24FE41"/>
</linearGradient>
</defs>
</svg>
