<svg width="16" height="16" viewBox="0 0 16 16" fill="none" xmlns="http://www.w3.org/2000/svg">
<path d="M5 2L4 6H12L11 2L8 3L5 2ZM3 7L2 8H14L13 7H3Z" fill="url(#paint0_linear_10_11414)"/>
<path d="M6 11H10V12H6V11Z" fill="url(#paint1_linear_10_11414)"/>
<path d="M4.5 9C3.83696 9 3.20107 9.26339 2.73223 9.73223C2.26339 10.2011 2 10.837 2 11.5C2 12.163 2.26339 12.7989 2.73223 13.2678C3.20107 13.7366 3.83696 14 4.5 14C4.8283 14 5.15339 13.9353 5.45671 13.8097C5.76002 13.6841 6.03562 13.4999 6.26777 13.2678C6.49991 13.0356 6.68406 12.76 6.8097 12.4567C6.93533 12.1534 7 11.8283 7 11.5C7 11.1717 6.93533 10.8466 6.8097 10.5433C6.68406 10.24 6.49991 9.96438 6.26777 9.73223C6.03562 9.50009 5.76002 9.31594 5.45671 9.1903C5.15339 9.06466 4.8283 9 4.5 9ZM4.5 10C4.89782 10 5.27935 10.158 5.56066 10.4393C5.84196 10.7206 6 11.1022 6 11.5C6 11.8978 5.84196 12.2794 5.56066 12.5607C5.27935 12.842 4.89782 13 4.5 13C4.10217 13 3.72064 12.842 3.43934 12.5607C3.15803 12.2794 3 11.8978 3 11.5C3 11.1022 3.15803 10.7206 3.43934 10.4393C3.72064 10.158 4.10217 10 4.5 10Z" fill="url(#paint2_linear_10_11414)"/>
<path d="M11.5 9C10.837 9 10.2011 9.26339 9.73223 9.73223C9.26339 10.2011 9 10.837 9 11.5C9 12.163 9.26339 12.7989 9.73223 13.2678C10.2011 13.7366 10.837 14 11.5 14C12.163 14 12.7989 13.7366 13.2678 13.2678C13.7366 12.7989 14 12.163 14 11.5C14 10.837 13.7366 10.2011 13.2678 9.73223C12.7989 9.26339 12.163 9 11.5 9ZM11.5 10C11.8978 10 12.2794 10.158 12.5607 10.4393C12.842 10.7206 13 11.1022 13 11.5C13 11.8978 12.842 12.2794 12.5607 12.5607C12.2794 12.842 11.8978 13 11.5 13C11.1022 13 10.7206 12.842 10.4393 12.5607C10.158 12.2794 10 11.8978 10 11.5C10 11.1022 10.158 10.7206 10.4393 10.4393C10.7206 10.158 11.1022 10 11.5 10Z" fill="url(#paint3_linear_10_11414)"/>
<defs>
<linearGradient id="paint0_linear_10_11414" x1="2" y1="5" x2="14" y2="5" gradientUnits="userSpaceOnUse">
<stop stop-color="#FDFC47"/>
<stop offset="1" stop-color="#24FE41"/>
</linearGradient>
<linearGradient id="paint1_linear_10_11414" x1="6" y1="11.5" x2="10" y2="11.5" gradientUnits="userSpaceOnUse">
<stop stop-color="#FDFC47"/>
<stop offset="1" stop-color="#24FE41"/>
</linearGradient>
<linearGradient id="paint2_linear_10_11414" x1="2" y1="11.5" x2="7" y2="11.5" gradientUnits="userSpaceOnUse">
<stop stop-color="#FDFC47"/>
<stop offset="1" stop-color="#24FE41"/>
</linearGradient>
<linearGradient id="paint3_linear_10_11414" x1="9" y1="11.5" x2="14" y2="11.5" gradientUnits="userSpaceOnUse">
<stop stop-color="#FDFC47"/>
<stop offset="1" stop-color="#24FE41"/>
</linearGradient>
</defs>
</svg>
