<svg width="16" height="16" viewBox="0 0 16 16" fill="none" xmlns="http://www.w3.org/2000/svg">
<path d="M5 2V6H6V3H14V10H9V11H14V13H9V14H15V2H5ZM7 4V5H11V4H7ZM12 4V5H13V4H12ZM1 7V14H8V7H4H3H1ZM2 8H7V13H2V8ZM9 8V9H11V8H9ZM12 8V9H13V8H12Z" fill="url(#paint0_linear_10_11322)"/>
<path d="M9 6V7H11V6H9ZM12 6V7H13V6H12Z" fill="url(#paint1_linear_10_11322)"/>
<defs>
<linearGradient id="paint0_linear_10_11322" x1="1" y1="8" x2="15" y2="8" gradientUnits="userSpaceOnUse">
<stop stop-color="#FDFC47"/>
<stop offset="1" stop-color="#24FE41"/>
</linearGradient>
<linearGradient id="paint1_linear_10_11322" x1="9" y1="6.5" x2="13" y2="6.5" gradientUnits="userSpaceOnUse">
<stop stop-color="#FDFC47"/>
<stop offset="1" stop-color="#24FE41"/>
</linearGradient>
</defs>
</svg>
