<svg width="16" height="16" viewBox="0 0 16 16" fill="none" xmlns="http://www.w3.org/2000/svg">
<path d="M3 2V8H1V9H9V8H4V3H14V8H15V2H3ZM5 4V5H9V4H5ZM5 6V7H8V6H5ZM12 9V11H10V12H12V14H13V12H15V11H13V9H12ZM1 10V14H9V10H1ZM6 11H8V13H6V11ZM2 12H3V13H2V12ZM4 12H5V13H4V12Z" fill="url(#paint0_linear_10_11233)"/>
<path d="M10 4V5H13V4H10Z" fill="url(#paint1_linear_10_11233)"/>
<defs>
<linearGradient id="paint0_linear_10_11233" x1="1" y1="8" x2="15" y2="8" gradientUnits="userSpaceOnUse">
<stop stop-color="#FDFC47"/>
<stop offset="1" stop-color="#24FE41"/>
</linearGradient>
<linearGradient id="paint1_linear_10_11233" x1="10" y1="4.5" x2="13" y2="4.5" gradientUnits="userSpaceOnUse">
<stop stop-color="#FDFC47"/>
<stop offset="1" stop-color="#24FE41"/>
</linearGradient>
</defs>
</svg>
