<svg width="16" height="16" viewBox="0 0 16 16" fill="none" xmlns="http://www.w3.org/2000/svg">
<path d="M4 1.00001C2.892 1.00001 2 1.89201 2 3.00001V4.00001H1.5C1.223 4.00001 1 4.22301 1 4.50001C1 4.77701 1.223 5.00001 1.5 5.00001H2V12H1.5C1.223 12 1 12.223 1 12.5C1 12.777 1.223 13 1.5 13H2C2 14.108 2.892 15 4 15H8.7617C8.55479 14.6887 8.38749 14.3527 8.26365 14H4.99995C4.44595 14 3.99995 13.554 3.99995 13V3.00001C3.99995 2.44601 4.44595 2.00001 4.99995 2.00001H13C13.554 2.00001 14 2.44601 14 3.00001V8.26371C14.3526 8.38693 14.6885 8.55357 15 8.7598V3C15 1.892 14.108 1 13 1L4 1.00001Z" fill="url(#paint0_linear_10_11204)"/>
<path d="M16 12.5C16 11.5717 15.6313 10.6815 14.9749 10.0251C14.3185 9.36875 13.4283 9 12.5 9C11.5717 9 10.6815 9.36875 10.0251 10.0251C9.36875 10.6815 9 11.5717 9 12.5C9 13.4283 9.36875 14.3185 10.0251 14.9749C10.6815 15.6313 11.5717 16 12.5 16C13.4283 16 14.3185 15.6313 14.9749 14.9749C15.6313 14.3185 16 13.4283 16 12.5ZM14.9141 12.5L12.4141 15L11.7071 14.293L13.0001 13H10.0001V12H13.0001L11.7071 10.707L12.4141 9.99994L14.9141 12.5Z" fill="url(#paint1_linear_10_11204)"/>
<defs>
<linearGradient id="paint0_linear_10_11204" x1="1" y1="8" x2="15" y2="8" gradientUnits="userSpaceOnUse">
<stop stop-color="#FDFC47"/>
<stop offset="1" stop-color="#24FE41"/>
</linearGradient>
<linearGradient id="paint1_linear_10_11204" x1="9" y1="12.5" x2="16" y2="12.5" gradientUnits="userSpaceOnUse">
<stop stop-color="#FDFC47"/>
<stop offset="1" stop-color="#24FE41"/>
</linearGradient>
</defs>
</svg>
