<svg width="16" height="16" viewBox="0 0 16 16" fill="none" xmlns="http://www.w3.org/2000/svg">
<path d="M4.12109 2L5.12109 3H14V11.8789L15 12.8789V2H4.12109ZM6.12109 4L7.12109 5H9V4H6.12109ZM3 5.12109V8H1V9H6.87891L5.87891 8H4V6.12109L3 5.12109ZM10.1211 8L11.1211 9H13V8H10.1211ZM1 10V14H11.8789L10.8789 13H10V12.1211L7.87891 10H1ZM12.1211 10L13 10.8789V10H12.1211ZM2 12H3V13H2V12ZM4 12H5V13H4V12ZM6 12H7V13H6V12ZM8 12H9V13H8V12Z" fill="url(#paint0_linear_10_11254)"/>
<path d="M2.70703 2L2 2.70703L13.293 14L14 13.2676L2.70703 2ZM10 4V5H13V4H10Z" fill="url(#paint1_linear_10_11254)"/>
<defs>
<linearGradient id="paint0_linear_10_11254" x1="1" y1="8" x2="15" y2="8" gradientUnits="userSpaceOnUse">
<stop stop-color="#FDFC47"/>
<stop offset="1" stop-color="#24FE41"/>
</linearGradient>
<linearGradient id="paint1_linear_10_11254" x1="2" y1="8" x2="14" y2="8" gradientUnits="userSpaceOnUse">
<stop stop-color="#FDFC47"/>
<stop offset="1" stop-color="#24FE41"/>
</linearGradient>
</defs>
</svg>
