<svg width="16" height="16" viewBox="0 0 16 16" fill="none" xmlns="http://www.w3.org/2000/svg">
<path d="M3 2V3.0918C2.41808 3.2978 2 3.84576 2 4.5C2 5.15424 2.41808 5.7022 3 5.9082V14H4V5.9082C4.58256 5.70254 5 5.1547 5 4.5C5 3.8453 4.58256 3.29746 4 3.0918V2H3ZM7.5 2V10.0918C6.91808 10.2978 6.5 10.8458 6.5 11.5C6.5 12.1542 6.91808 12.7022 7.5 12.9082V14H8.5V12.9082C9.08192 12.7022 9.5 12.1542 9.5 11.5C9.5 10.8458 9.08192 10.2978 8.5 10.0918V2H7.5ZM12 2V6.0918C11.4181 6.2978 11 6.84576 11 7.5C11 8.15424 11.4181 8.7022 12 8.9082V14H13V8.9082C13.5819 8.7022 14 8.15424 14 7.5C14 6.84576 13.5819 6.2978 13 6.0918V2H12Z" fill="url(#paint0_linear_10_11380)"/>
<defs>
<linearGradient id="paint0_linear_10_11380" x1="2" y1="8" x2="14" y2="8" gradientUnits="userSpaceOnUse">
<stop stop-color="#FDFC47"/>
<stop offset="1" stop-color="#24FE41"/>
</linearGradient>
</defs>
</svg>
