<svg width="16" height="16" viewBox="0 0 16 16" fill="none" xmlns="http://www.w3.org/2000/svg">
<path d="M5.12109 3L6.12109 4H11.1914L12.6914 7H9.12109L10.1211 8H13V10.8789L14 11.8789V7.38086L11.8086 3H5.12109ZM3.08789 5.20898L2 7.38281V12H3V14H5V12H9.87891L8.87891 11H3V8H5.87891L4.87891 7H3.30859L3.83203 5.95312L3.08789 5.20898ZM4 9V10H5V9H4ZM11.1211 9L12 9.87891V9H11.1211ZM11 13.1211V14H11.8789L11 13.1211Z" fill="url(#paint0_linear_10_11236)"/>
<path d="M2.70703 2L2 2.70703L13.293 14L14 13.2676L2.70703 2Z" fill="url(#paint1_linear_10_11236)"/>
<defs>
<linearGradient id="paint0_linear_10_11236" x1="2" y1="8.5" x2="14" y2="8.5" gradientUnits="userSpaceOnUse">
<stop stop-color="#FDFC47"/>
<stop offset="1" stop-color="#24FE41"/>
</linearGradient>
<linearGradient id="paint1_linear_10_11236" x1="2" y1="8" x2="14" y2="8" gradientUnits="userSpaceOnUse">
<stop stop-color="#FDFC47"/>
<stop offset="1" stop-color="#24FE41"/>
</linearGradient>
</defs>
</svg>
