<svg width="16" height="16" viewBox="0 0 16 16" fill="none" xmlns="http://www.w3.org/2000/svg">
<path d="M10 1C9.31881 1.68119 8.9304 2.8976 9.72266 4.2266L7.70116 5.5801L10.42 8.2989L11.7735 6.2774C13.1025 7.06967 14.3189 6.68125 15.0001 6.00006L10 1ZM4.2773 6.3984C3.80331 6.42381 3.45977 6.54015 3 6.99996L5 9.46286L2 13L1 15L3 14L6.5859 11L9 13C9.40783 12.5921 9.59144 12.1817 9.64453 11.7656L4.2773 6.3984Z" fill="url(#paint0_linear_10_11539)"/>
<path d="M2.707 2L2 2.707L13.293 14L14 13.293L2.707 2Z" fill="url(#paint1_linear_10_11539)"/>
<defs>
<linearGradient id="paint0_linear_10_11539" x1="1" y1="7.99998" x2="15.0001" y2="7.99998" gradientUnits="userSpaceOnUse">
<stop stop-color="#FDFC47"/>
<stop offset="1" stop-color="#24FE41"/>
</linearGradient>
<linearGradient id="paint1_linear_10_11539" x1="2" y1="8" x2="14" y2="8" gradientUnits="userSpaceOnUse">
<stop stop-color="#FDFC47"/>
<stop offset="1" stop-color="#24FE41"/>
</linearGradient>
</defs>
</svg>
