<svg width="16" height="16" viewBox="0 0 16 16" fill="none" xmlns="http://www.w3.org/2000/svg">
<path d="M6.80078 6L10 9L6.80078 12L6 11.25L8.40039 9L6 6.75L6.80078 6Z" fill="url(#paint0_linear_10_11529)"/>
<path d="M13 1C14.108 1 15 1.892 15 3V13C15 14.108 14.108 15 13 15H3C1.892 15 1 14.108 1 13V3C1 1.892 1.892 1 3 1H13ZM13 4H3C2.446 4 2 4.446 2 5V13C2 13.554 2.446 14 3 14H13C13.554 14 14 13.554 14 13V5C14 4.446 13.554 4 13 4Z" fill="url(#paint1_linear_10_11529)"/>
<defs>
<linearGradient id="paint0_linear_10_11529" x1="6" y1="9" x2="10" y2="9" gradientUnits="userSpaceOnUse">
<stop stop-color="#FDFC47"/>
<stop offset="1" stop-color="#24FE41"/>
</linearGradient>
<linearGradient id="paint1_linear_10_11529" x1="1" y1="8" x2="15" y2="8" gradientUnits="userSpaceOnUse">
<stop stop-color="#FDFC47"/>
<stop offset="1" stop-color="#24FE41"/>
</linearGradient>
</defs>
</svg>
