<svg width="16" height="16" viewBox="0 0 16 16" fill="none" xmlns="http://www.w3.org/2000/svg">
<path d="M9.08984 2L5.94336 13.7402L6.91016 14L10.0566 2.25977L9.08984 2ZM5.28516 4L2.32422 7.14453L2 7.49219L2.32422 7.83789L5.26758 11L5.98242 10.3047L3.36133 7.49219L6 4.69531L5.28516 4ZM10.7148 4L10 4.69531L12.6387 7.49219L12.166 8H13.5254L13.6758 7.83789L14 7.49219L13.6758 7.14453L10.7148 4Z" fill="url(#paint0_linear_10_11550)"/>
<path d="M9 9.83337L10.6667 11.5L9 13.1667L9.83333 14L11.5 12.3335L13.1667 14L14 13.1667L12.3333 11.5L14 9.83337L13.1667 9L11.5 10.6667L9.83333 9L9 9.83337Z" fill="url(#paint1_linear_10_11550)"/>
<defs>
<linearGradient id="paint0_linear_10_11550" x1="2" y1="8" x2="14" y2="8" gradientUnits="userSpaceOnUse">
<stop stop-color="#FDFC47"/>
<stop offset="1" stop-color="#24FE41"/>
</linearGradient>
<linearGradient id="paint1_linear_10_11550" x1="9" y1="11.5" x2="14" y2="11.5" gradientUnits="userSpaceOnUse">
<stop stop-color="#FDFC47"/>
<stop offset="1" stop-color="#24FE41"/>
</linearGradient>
</defs>
</svg>
