<svg width="16" height="16" viewBox="0 0 16 16" fill="none" xmlns="http://www.w3.org/2000/svg">
<path d="M7 1V2H9V1H7ZM8 4V5H10.293L7 8.293L7.70703 9.00003L11 5.70703V8.00003H12V4.00003L8 4ZM1 7V9H2V7H1ZM14 7V9H15V7H14ZM2 11C1.446 11 1 11.446 1 12V14C1 14.554 1.446 15 2 15H4C4.554 15 5 14.554 5 14V12C5 11.446 4.554 11 4 11H2ZM2 12H4V14H2V12ZM7 14V15H9V14H7Z" fill="url(#paint0_linear_10_11582)"/>
<path d="M3 0.999926C1.892 0.999926 1 1.89193 1 2.99993V3.99993H2V2.99993C2 2.44593 2.446 1.99993 3 1.99993H4V0.999926H3ZM12 0.999926V1.99993H13C13.554 1.99993 14 2.44593 14 2.99993V3.99993H15V2.99993C15 1.89193 14.1036 0.901526 13 0.999926H12ZM14 11.9999V12.9999C14 13.5539 13.554 13.9999 13 13.9999H12V14.9999H13C14.108 14.9999 15 14.1079 15 12.9999V11.9999H14Z" fill="url(#paint1_linear_10_11582)"/>
<defs>
<linearGradient id="paint0_linear_10_11582" x1="1" y1="8" x2="15" y2="8" gradientUnits="userSpaceOnUse">
<stop stop-color="#FDFC47"/>
<stop offset="1" stop-color="#24FE41"/>
</linearGradient>
<linearGradient id="paint1_linear_10_11582" x1="1" y1="7.99655" x2="15" y2="7.99655" gradientUnits="userSpaceOnUse">
<stop stop-color="#FDFC47"/>
<stop offset="1" stop-color="#24FE41"/>
</linearGradient>
</defs>
</svg>
