<svg width="24" height="24" viewBox="0 0 24 24" fill="none" xmlns="http://www.w3.org/2000/svg">
<path d="M22.9773 11.2926C22.5865 5.23005 17.355 0.632195 11.2924 1.023C5.22989 1.41381 0.632038 6.6453 1.02285 12.7078C1.41366 18.7704 6.64514 23.3682 12.7077 22.9774C18.7702 22.5866 23.3681 17.3551 22.9773 11.2926Z" fill="url(#paint0_linear_10_19845)"/>
<path d="M11.9969 6H12.0031C12.5554 6 13 6.44448 13 6.99667V14.003C13 14.5555 12.5554 15 12.0031 15H11.9969C11.4446 15 11 14.5555 11 14.003V6.99667C11 6.44448 11.4446 6 11.9969 6Z" fill="white"/>
<path d="M13 18C13 17.4477 12.5523 17 12 17C11.4477 17 11 17.4477 11 18C11 18.5523 11.4477 18.9999 12 18.9999C12.5523 18.9999 13 18.5523 13 18Z" fill="white"/>
<defs>
<linearGradient id="paint0_linear_10_19845" x1="12.7077" y1="22.9774" x2="11.2924" y2="1.023" gradientUnits="userSpaceOnUse">
<stop stop-color="#FF8008"/>
<stop offset="1" stop-color="#FFC837"/>
</linearGradient>
</defs>
</svg>
