<svg width="24" height="24" viewBox="0 0 24 24" fill="none" xmlns="http://www.w3.org/2000/svg">
<path d="M12.3926 1.00802C12.026 0.994896 11.659 1.00011 11.293 1.02365C8.38189 1.21134 5.66456 2.54769 3.73869 4.73875C1.81281 6.9298 0.836126 9.79612 1.02346 12.7072C1.21115 15.6183 2.5475 18.3357 4.73855 20.2615C6.92961 22.1874 9.79593 23.1641 12.7071 22.9768C15.6181 22.7891 18.3355 21.4527 20.2614 19.2617C22.1872 17.0706 23.1639 14.2043 22.9766 11.2932C22.8011 8.57185 21.6211 6.01271 19.6654 4.11225C17.7097 2.21179 15.1178 1.10551 12.3926 1.00802Z" fill="url(#paint0_linear_10_19820)"/>
<path d="M12 6C11.446 6 11 6.446 11 7C11 7.554 11.446 8 12 8C12.554 8 13 7.554 13 7C13 6.446 12.554 6 12 6ZM11.9961 10C11.4438 10 11 10.4437 11 10.9961V18.0039C11 18.5561 11.4438 19 11.9961 19H12.0039C12.5562 19 13 18.5561 13 18.0039V10.9961C13 10.4437 12.5562 10 12.0039 10H11.9961Z" fill="white"/>
<defs>
<linearGradient id="paint0_linear_10_19820" x1="1.00073" y1="12.0002" x2="22.9993" y2="12.0002" gradientUnits="userSpaceOnUse">
<stop stop-color="#2193B0"/>
<stop offset="1" stop-color="#6DD5ED"/>
</linearGradient>
</defs>
</svg>
